<?xml version="1.0" encoding="utf-8" standalone="no"?>
<!DOCTYPE svg PUBLIC "-//W3C//DTD SVG 1.1//EN"
  "http://www.w3.org/Graphics/SVG/1.1/DTD/svg11.dtd">
<!-- Created with matplotlib (http://matplotlib.org/) -->
<svg height="416pt" version="1.1" viewBox="0 0 522 416" width="522pt" xmlns="http://www.w3.org/2000/svg" xmlns:xlink="http://www.w3.org/1999/xlink">
 <defs>
  <style type="text/css">
*{stroke-linecap:butt;stroke-linejoin:round;stroke-miterlimit:100000;}
  </style>
 </defs>
 <g id="figure_1">
  <g id="patch_1">
   <path d="M 0 416.711563 
L 522.68125 416.711563 
L 522.68125 0 
L 0 0 
z
" style="fill:none;"/>
  </g>
  <g id="axes_1">
   <g id="patch_2">
    <path d="M 58.644531 371.477188 
L 505.044531 371.477188 
L 505.044531 25.877187 
L 58.644531 25.877187 
z
" style="fill:none;"/>
   </g>
   <g id="LineCollection_1">
    <path clip-path="url(#p8e0a7641c7)" d="M 58.644531 320.985986 
L 58.644531 243.773874 
" style="fill:none;stroke:#0000ff;"/>
    <path clip-path="url(#p8e0a7641c7)" d="M 69.107031 291.102393 
L 69.107031 213.918635 
" style="fill:none;stroke:#0000ff;"/>
    <path clip-path="url(#p8e0a7641c7)" d="M 79.569531 323.208723 
L 79.569531 245.994521 
" style="fill:none;stroke:#0000ff;"/>
    <path clip-path="url(#p8e0a7641c7)" d="M 90.032031 301.228265 
L 90.032031 224.034847 
" style="fill:none;stroke:#0000ff;"/>
    <path clip-path="url(#p8e0a7641c7)" d="M 100.494531 260.97159 
L 100.494531 183.816899 
" style="fill:none;stroke:#0000ff;"/>
    <path clip-path="url(#p8e0a7641c7)" d="M 110.957031 222.93728 
L 110.957031 145.819968 
" style="fill:none;stroke:#0000ff;"/>
    <path clip-path="url(#p8e0a7641c7)" d="M 121.419531 236.027053 
L 121.419531 158.89679 
" style="fill:none;stroke:#0000ff;"/>
    <path clip-path="url(#p8e0a7641c7)" d="M 131.882031 216.762843 
L 131.882031 139.651671 
" style="fill:none;stroke:#0000ff;"/>
    <path clip-path="url(#p8e0a7641c7)" d="M 142.344531 238.743793 
L 142.344531 161.610854 
" style="fill:none;stroke:#0000ff;"/>
    <path clip-path="url(#p8e0a7641c7)" d="M 152.807031 256.032091 
L 152.807031 178.882211 
" style="fill:none;stroke:#0000ff;"/>
    <path clip-path="url(#p8e0a7641c7)" d="M 163.269531 278.012811 
L 163.269531 200.841622 
" style="fill:none;stroke:#0000ff;"/>
    <path clip-path="url(#p8e0a7641c7)" d="M 173.732031 213.79911 
L 173.732031 136.690893 
" style="fill:none;stroke:#0000ff;"/>
    <path clip-path="url(#p8e0a7641c7)" d="M 184.194531 285.422014 
L 184.194531 208.243699 
" style="fill:none;stroke:#0000ff;"/>
    <path clip-path="url(#p8e0a7641c7)" d="M 194.657031 279.494653 
L 194.657031 202.322036 
" style="fill:none;stroke:#0000ff;"/>
    <path clip-path="url(#p8e0a7641c7)" d="M 205.119531 234.792171 
L 205.119531 157.663126 
" style="fill:none;stroke:#0000ff;"/>
    <path clip-path="url(#p8e0a7641c7)" d="M 215.582031 190.336138 
L 215.582031 113.251476 
" style="fill:none;stroke:#0000ff;"/>
    <path clip-path="url(#p8e0a7641c7)" d="M 226.044531 185.396547 
L 226.044531 108.316881 
" style="fill:none;stroke:#0000ff;"/>
    <path clip-path="url(#p8e0a7641c7)" d="M 236.507031 266.652005 
L 236.507031 189.491798 
" style="fill:none;stroke:#0000ff;"/>
    <path clip-path="url(#p8e0a7641c7)" d="M 246.969531 320.985986 
L 246.969531 243.773874 
" style="fill:none;stroke:#0000ff;"/>
    <path clip-path="url(#p8e0a7641c7)" d="M 257.432031 291.596339 
L 257.432031 214.412108 
" style="fill:none;stroke:#0000ff;"/>
    <path clip-path="url(#p8e0a7641c7)" d="M 267.894531 248.375854 
L 267.894531 171.233457 
" style="fill:none;stroke:#0000ff;"/>
    <path clip-path="url(#p8e0a7641c7)" d="M 278.357031 221.702394 
L 278.357031 144.586308 
" style="fill:none;stroke:#0000ff;"/>
    <path clip-path="url(#p8e0a7641c7)" d="M 288.819531 269.368723 
L 288.819531 192.205883 
" style="fill:none;stroke:#0000ff;"/>
    <path clip-path="url(#p8e0a7641c7)" d="M 299.282031 211.32933 
L 299.282031 134.223579 
" style="fill:none;stroke:#0000ff;"/>
    <path clip-path="url(#p8e0a7641c7)" d="M 309.744531 269.615697 
L 309.744531 192.452618 
" style="fill:none;stroke:#0000ff;"/>
    <path clip-path="url(#p8e0a7641c7)" d="M 320.207031 197.498535 
L 320.207031 120.406651 
" style="fill:none;stroke:#0000ff;"/>
    <path clip-path="url(#p8e0a7641c7)" d="M 330.669531 243.436339 
L 330.669531 166.298785 
" style="fill:none;stroke:#0000ff;"/>
    <path clip-path="url(#p8e0a7641c7)" d="M 341.132031 244.177267 
L 341.132031 167.038986 
" style="fill:none;stroke:#0000ff;"/>
    <path clip-path="url(#p8e0a7641c7)" d="M 351.594531 241.707507 
L 351.594531 164.571652 
" style="fill:none;stroke:#0000ff;"/>
    <path clip-path="url(#p8e0a7641c7)" d="M 362.057031 186.878425 
L 362.057031 109.797259 
" style="fill:none;stroke:#0000ff;"/>
    <path clip-path="url(#p8e0a7641c7)" d="M 372.519531 200.215302 
L 372.519531 123.120686 
" style="fill:none;stroke:#0000ff;"/>
    <path clip-path="url(#p8e0a7641c7)" d="M 382.982031 262.453438 
L 382.982031 185.297306 
" style="fill:none;stroke:#0000ff;"/>
    <path clip-path="url(#p8e0a7641c7)" d="M 393.444531 182.185809 
L 393.444531 105.109397 
" style="fill:none;stroke:#0000ff;"/>
    <path clip-path="url(#p8e0a7641c7)" d="M 403.907031 177.246206 
L 403.907031 100.174813 
" style="fill:none;stroke:#0000ff;"/>
    <path clip-path="url(#p8e0a7641c7)" d="M 414.369531 222.196348 
L 414.369531 145.079772 
" style="fill:none;stroke:#0000ff;"/>
    <path clip-path="url(#p8e0a7641c7)" d="M 424.832031 278.259785 
L 424.832031 201.088357 
" style="fill:none;stroke:#0000ff;"/>
    <path clip-path="url(#p8e0a7641c7)" d="M 435.294531 176.752246 
L 435.294531 99.681355 
" style="fill:none;stroke:#0000ff;"/>
    <path clip-path="url(#p8e0a7641c7)" d="M 445.757031 299.993404 
L 445.757031 222.801161 
" style="fill:none;stroke:#0000ff;"/>
    <path clip-path="url(#p8e0a7641c7)" d="M 456.219531 257.513941 
L 456.219531 180.362616 
" style="fill:none;stroke:#0000ff;"/>
    <path clip-path="url(#p8e0a7641c7)" d="M 466.682031 137.976137 
L 466.682031 60.945096 
" style="fill:none;stroke:#0000ff;"/>
    <path clip-path="url(#p8e0a7641c7)" d="M 477.144531 207.871636 
L 477.144531 130.769342 
" style="fill:none;stroke:#0000ff;"/>
   </g>
   <g id="line2d_1">
    <defs>
     <path d="M 3 0 
L -3 -0 
" id="mf951cdc60f" style="stroke:#0000ff;stroke-width:0.5;"/>
    </defs>
    <g clip-path="url(#p8e0a7641c7)">
     <use style="fill:#0000ff;stroke:#0000ff;stroke-width:0.5;" x="58.64453125" xlink:href="#mf951cdc60f" y="320.985985975"/>
     <use style="fill:#0000ff;stroke:#0000ff;stroke-width:0.5;" x="69.10703125" xlink:href="#mf951cdc60f" y="291.102393392"/>
     <use style="fill:#0000ff;stroke:#0000ff;stroke-width:0.5;" x="79.56953125" xlink:href="#mf951cdc60f" y="323.208723089"/>
     <use style="fill:#0000ff;stroke:#0000ff;stroke-width:0.5;" x="90.03203125" xlink:href="#mf951cdc60f" y="301.228265289"/>
     <use style="fill:#0000ff;stroke:#0000ff;stroke-width:0.5;" x="100.49453125" xlink:href="#mf951cdc60f" y="260.971589549"/>
     <use style="fill:#0000ff;stroke:#0000ff;stroke-width:0.5;" x="110.95703125" xlink:href="#mf951cdc60f" y="222.937280361"/>
     <use style="fill:#0000ff;stroke:#0000ff;stroke-width:0.5;" x="121.41953125" xlink:href="#mf951cdc60f" y="236.027053461"/>
     <use style="fill:#0000ff;stroke:#0000ff;stroke-width:0.5;" x="131.88203125" xlink:href="#mf951cdc60f" y="216.7628433"/>
     <use style="fill:#0000ff;stroke:#0000ff;stroke-width:0.5;" x="142.34453125" xlink:href="#mf951cdc60f" y="238.743793123"/>
     <use style="fill:#0000ff;stroke:#0000ff;stroke-width:0.5;" x="152.80703125" xlink:href="#mf951cdc60f" y="256.032090555"/>
     <use style="fill:#0000ff;stroke:#0000ff;stroke-width:0.5;" x="163.26953125" xlink:href="#mf951cdc60f" y="278.012811436"/>
     <use style="fill:#0000ff;stroke:#0000ff;stroke-width:0.5;" x="173.73203125" xlink:href="#mf951cdc60f" y="213.799109916"/>
     <use style="fill:#0000ff;stroke:#0000ff;stroke-width:0.5;" x="184.19453125" xlink:href="#mf951cdc60f" y="285.422014343"/>
     <use style="fill:#0000ff;stroke:#0000ff;stroke-width:0.5;" x="194.65703125" xlink:href="#mf951cdc60f" y="279.494653181"/>
     <use style="fill:#0000ff;stroke:#0000ff;stroke-width:0.5;" x="205.11953125" xlink:href="#mf951cdc60f" y="234.792171149"/>
     <use style="fill:#0000ff;stroke:#0000ff;stroke-width:0.5;" x="215.58203125" xlink:href="#mf951cdc60f" y="190.336138264"/>
     <use style="fill:#0000ff;stroke:#0000ff;stroke-width:0.5;" x="226.04453125" xlink:href="#mf951cdc60f" y="185.396546643"/>
     <use style="fill:#0000ff;stroke:#0000ff;stroke-width:0.5;" x="236.50703125" xlink:href="#mf951cdc60f" y="266.652005397"/>
     <use style="fill:#0000ff;stroke:#0000ff;stroke-width:0.5;" x="246.96953125" xlink:href="#mf951cdc60f" y="320.985985975"/>
     <use style="fill:#0000ff;stroke:#0000ff;stroke-width:0.5;" x="257.43203125" xlink:href="#mf951cdc60f" y="291.596338992"/>
     <use style="fill:#0000ff;stroke:#0000ff;stroke-width:0.5;" x="267.89453125" xlink:href="#mf951cdc60f" y="248.375854329"/>
     <use style="fill:#0000ff;stroke:#0000ff;stroke-width:0.5;" x="278.35703125" xlink:href="#mf951cdc60f" y="221.702393759"/>
     <use style="fill:#0000ff;stroke:#0000ff;stroke-width:0.5;" x="288.81953125" xlink:href="#mf951cdc60f" y="269.368722996"/>
     <use style="fill:#0000ff;stroke:#0000ff;stroke-width:0.5;" x="299.28203125" xlink:href="#mf951cdc60f" y="211.329330313"/>
     <use style="fill:#0000ff;stroke:#0000ff;stroke-width:0.5;" x="309.74453125" xlink:href="#mf951cdc60f" y="269.615697226"/>
     <use style="fill:#0000ff;stroke:#0000ff;stroke-width:0.5;" x="320.20703125" xlink:href="#mf951cdc60f" y="197.498534595"/>
     <use style="fill:#0000ff;stroke:#0000ff;stroke-width:0.5;" x="330.66953125" xlink:href="#mf951cdc60f" y="243.436338836"/>
     <use style="fill:#0000ff;stroke:#0000ff;stroke-width:0.5;" x="341.13203125" xlink:href="#mf951cdc60f" y="244.177266573"/>
     <use style="fill:#0000ff;stroke:#0000ff;stroke-width:0.5;" x="351.59453125" xlink:href="#mf951cdc60f" y="241.707506885"/>
     <use style="fill:#0000ff;stroke:#0000ff;stroke-width:0.5;" x="362.05703125" xlink:href="#mf951cdc60f" y="186.87842481"/>
     <use style="fill:#0000ff;stroke:#0000ff;stroke-width:0.5;" x="372.51953125" xlink:href="#mf951cdc60f" y="200.21530205"/>
     <use style="fill:#0000ff;stroke:#0000ff;stroke-width:0.5;" x="382.98203125" xlink:href="#mf951cdc60f" y="262.453437986"/>
     <use style="fill:#0000ff;stroke:#0000ff;stroke-width:0.5;" x="393.44453125" xlink:href="#mf951cdc60f" y="182.18580861"/>
     <use style="fill:#0000ff;stroke:#0000ff;stroke-width:0.5;" x="403.90703125" xlink:href="#mf951cdc60f" y="177.246206285"/>
     <use style="fill:#0000ff;stroke:#0000ff;stroke-width:0.5;" x="414.36953125" xlink:href="#mf951cdc60f" y="222.196348448"/>
     <use style="fill:#0000ff;stroke:#0000ff;stroke-width:0.5;" x="424.83203125" xlink:href="#mf951cdc60f" y="278.259785101"/>
     <use style="fill:#0000ff;stroke:#0000ff;stroke-width:0.5;" x="435.29453125" xlink:href="#mf951cdc60f" y="176.752245696"/>
     <use style="fill:#0000ff;stroke:#0000ff;stroke-width:0.5;" x="445.75703125" xlink:href="#mf951cdc60f" y="299.993404316"/>
     <use style="fill:#0000ff;stroke:#0000ff;stroke-width:0.5;" x="456.21953125" xlink:href="#mf951cdc60f" y="257.513940933"/>
     <use style="fill:#0000ff;stroke:#0000ff;stroke-width:0.5;" x="466.68203125" xlink:href="#mf951cdc60f" y="137.976136838"/>
     <use style="fill:#0000ff;stroke:#0000ff;stroke-width:0.5;" x="477.14453125" xlink:href="#mf951cdc60f" y="207.871636148"/>
    </g>
   </g>
   <g id="line2d_2">
    <g clip-path="url(#p8e0a7641c7)">
     <use style="fill:#0000ff;stroke:#0000ff;stroke-width:0.5;" x="58.64453125" xlink:href="#mf951cdc60f" y="243.773873827"/>
     <use style="fill:#0000ff;stroke:#0000ff;stroke-width:0.5;" x="69.10703125" xlink:href="#mf951cdc60f" y="213.918635227"/>
     <use style="fill:#0000ff;stroke:#0000ff;stroke-width:0.5;" x="79.56953125" xlink:href="#mf951cdc60f" y="245.994520851"/>
     <use style="fill:#0000ff;stroke:#0000ff;stroke-width:0.5;" x="90.03203125" xlink:href="#mf951cdc60f" y="224.034846624"/>
     <use style="fill:#0000ff;stroke:#0000ff;stroke-width:0.5;" x="100.49453125" xlink:href="#mf951cdc60f" y="183.816898538"/>
     <use style="fill:#0000ff;stroke:#0000ff;stroke-width:0.5;" x="110.95703125" xlink:href="#mf951cdc60f" y="145.819968039"/>
     <use style="fill:#0000ff;stroke:#0000ff;stroke-width:0.5;" x="121.41953125" xlink:href="#mf951cdc60f" y="158.896790416"/>
     <use style="fill:#0000ff;stroke:#0000ff;stroke-width:0.5;" x="131.88203125" xlink:href="#mf951cdc60f" y="139.651671384"/>
     <use style="fill:#0000ff;stroke:#0000ff;stroke-width:0.5;" x="142.34453125" xlink:href="#mf951cdc60f" y="161.610853589"/>
     <use style="fill:#0000ff;stroke:#0000ff;stroke-width:0.5;" x="152.80703125" xlink:href="#mf951cdc60f" y="178.88221056"/>
     <use style="fill:#0000ff;stroke:#0000ff;stroke-width:0.5;" x="163.26953125" xlink:href="#mf951cdc60f" y="200.841621706"/>
     <use style="fill:#0000ff;stroke:#0000ff;stroke-width:0.5;" x="173.73203125" xlink:href="#mf951cdc60f" y="136.690892585"/>
     <use style="fill:#0000ff;stroke:#0000ff;stroke-width:0.5;" x="184.19453125" xlink:href="#mf951cdc60f" y="208.243699258"/>
     <use style="fill:#0000ff;stroke:#0000ff;stroke-width:0.5;" x="194.65703125" xlink:href="#mf951cdc60f" y="202.322036053"/>
     <use style="fill:#0000ff;stroke:#0000ff;stroke-width:0.5;" x="205.11953125" xlink:href="#mf951cdc60f" y="157.663125985"/>
     <use style="fill:#0000ff;stroke:#0000ff;stroke-width:0.5;" x="215.58203125" xlink:href="#mf951cdc60f" y="113.251476118"/>
     <use style="fill:#0000ff;stroke:#0000ff;stroke-width:0.5;" x="226.04453125" xlink:href="#mf951cdc60f" y="108.316880767"/>
     <use style="fill:#0000ff;stroke:#0000ff;stroke-width:0.5;" x="236.50703125" xlink:href="#mf951cdc60f" y="189.491797709"/>
     <use style="fill:#0000ff;stroke:#0000ff;stroke-width:0.5;" x="246.96953125" xlink:href="#mf951cdc60f" y="243.773873827"/>
     <use style="fill:#0000ff;stroke:#0000ff;stroke-width:0.5;" x="257.43203125" xlink:href="#mf951cdc60f" y="214.412108324"/>
     <use style="fill:#0000ff;stroke:#0000ff;stroke-width:0.5;" x="267.89453125" xlink:href="#mf951cdc60f" y="171.233456979"/>
     <use style="fill:#0000ff;stroke:#0000ff;stroke-width:0.5;" x="278.35703125" xlink:href="#mf951cdc60f" y="144.586307898"/>
     <use style="fill:#0000ff;stroke:#0000ff;stroke-width:0.5;" x="288.81953125" xlink:href="#mf951cdc60f" y="192.205882945"/>
     <use style="fill:#0000ff;stroke:#0000ff;stroke-width:0.5;" x="299.28203125" xlink:href="#mf951cdc60f" y="134.223578702"/>
     <use style="fill:#0000ff;stroke:#0000ff;stroke-width:0.5;" x="309.74453125" xlink:href="#mf951cdc60f" y="192.452618063"/>
     <use style="fill:#0000ff;stroke:#0000ff;stroke-width:0.5;" x="320.20703125" xlink:href="#mf951cdc60f" y="120.406650897"/>
     <use style="fill:#0000ff;stroke:#0000ff;stroke-width:0.5;" x="330.66953125" xlink:href="#mf951cdc60f" y="166.298785499"/>
     <use style="fill:#0000ff;stroke:#0000ff;stroke-width:0.5;" x="341.13203125" xlink:href="#mf951cdc60f" y="167.038985808"/>
     <use style="fill:#0000ff;stroke:#0000ff;stroke-width:0.5;" x="351.59453125" xlink:href="#mf951cdc60f" y="164.57165201"/>
     <use style="fill:#0000ff;stroke:#0000ff;stroke-width:0.5;" x="362.05703125" xlink:href="#mf951cdc60f" y="109.797258691"/>
     <use style="fill:#0000ff;stroke:#0000ff;stroke-width:0.5;" x="372.51953125" xlink:href="#mf951cdc60f" y="123.120686276"/>
     <use style="fill:#0000ff;stroke:#0000ff;stroke-width:0.5;" x="382.98203125" xlink:href="#mf951cdc60f" y="185.297306193"/>
     <use style="fill:#0000ff;stroke:#0000ff;stroke-width:0.5;" x="393.44453125" xlink:href="#mf951cdc60f" y="105.109397267"/>
     <use style="fill:#0000ff;stroke:#0000ff;stroke-width:0.5;" x="403.90703125" xlink:href="#mf951cdc60f" y="100.17481262"/>
     <use style="fill:#0000ff;stroke:#0000ff;stroke-width:0.5;" x="414.36953125" xlink:href="#mf951cdc60f" y="145.079771906"/>
     <use style="fill:#0000ff;stroke:#0000ff;stroke-width:0.5;" x="424.83203125" xlink:href="#mf951cdc60f" y="201.08835739"/>
     <use style="fill:#0000ff;stroke:#0000ff;stroke-width:0.5;" x="435.29453125" xlink:href="#mf951cdc60f" y="99.6813545121"/>
     <use style="fill:#0000ff;stroke:#0000ff;stroke-width:0.5;" x="445.75703125" xlink:href="#mf951cdc60f" y="222.801160854"/>
     <use style="fill:#0000ff;stroke:#0000ff;stroke-width:0.5;" x="456.21953125" xlink:href="#mf951cdc60f" y="180.362616274"/>
     <use style="fill:#0000ff;stroke:#0000ff;stroke-width:0.5;" x="466.68203125" xlink:href="#mf951cdc60f" y="60.945095636"/>
     <use style="fill:#0000ff;stroke:#0000ff;stroke-width:0.5;" x="477.14453125" xlink:href="#mf951cdc60f" y="130.769341986"/>
    </g>
   </g>
   <g id="line2d_3">
    <path clip-path="url(#p8e0a7641c7)" d="M 58.644531 282.37993 
L 69.107031 252.510514 
L 79.569531 284.601622 
L 90.032031 262.631556 
L 100.494531 222.394244 
L 110.957031 184.378624 
L 121.419531 197.461922 
L 131.882031 178.207257 
L 142.344531 200.177323 
L 152.807031 217.457151 
L 163.269531 239.427217 
L 173.732031 175.245001 
L 184.194531 246.832857 
L 194.657031 240.908345 
L 205.119531 196.227649 
L 215.582031 151.793807 
L 226.044531 146.856714 
L 236.507031 228.071902 
L 246.969531 282.37993 
L 257.432031 253.004224 
L 267.894531 209.804656 
L 278.357031 183.144351 
L 288.819531 230.787303 
L 299.282031 172.776455 
L 309.744531 231.034158 
L 320.207031 158.952593 
L 330.669531 204.867562 
L 341.132031 205.608126 
L 351.594531 203.139579 
L 362.057031 148.337842 
L 372.519531 161.667994 
L 382.982031 223.875372 
L 393.444531 143.647603 
L 403.907031 138.710509 
L 414.369531 183.63806 
L 424.832031 239.674071 
L 435.294531 138.2168 
L 445.757031 261.397283 
L 456.219531 218.938279 
L 466.682031 99.460616 
L 477.144531 169.320489 
" style="fill:none;stroke:#0000ff;stroke-linecap:square;"/>
   </g>
   <g id="line2d_4">
    <path clip-path="url(#p8e0a7641c7)" d="M 198.144531 371.477188 
L 198.144531 25.877187 
" style="fill:none;stroke:#0000ff;stroke-linecap:square;stroke-width:3.0;"/>
   </g>
   <g id="line2d_5">
    <path clip-path="url(#p8e0a7641c7)" d="M 337.644531 371.477188 
L 337.644531 25.877187 
" style="fill:none;stroke:#0000ff;stroke-linecap:square;stroke-width:3.0;"/>
   </g>
   <g id="patch_3">
    <path d="M 505.044531 371.477188 
L 505.044531 25.877188 
" style="fill:none;stroke:#000000;stroke-linecap:square;stroke-linejoin:miter;"/>
   </g>
   <g id="patch_4">
    <path d="M 58.644531 371.477188 
L 58.644531 25.877188 
" style="fill:none;stroke:#000000;stroke-linecap:square;stroke-linejoin:miter;"/>
   </g>
   <g id="patch_5">
    <path d="M 58.644531 25.877187 
L 505.044531 25.877187 
" style="fill:none;stroke:#000000;stroke-linecap:square;stroke-linejoin:miter;"/>
   </g>
   <g id="patch_6">
    <path d="M 58.644531 371.477188 
L 505.044531 371.477188 
" style="fill:none;stroke:#000000;stroke-linecap:square;stroke-linejoin:miter;"/>
   </g>
   <g id="matplotlib.axis_1">
    <g id="xtick_1">
     <g id="line2d_6">
      <path clip-path="url(#p8e0a7641c7)" d="M 58.644531 371.477188 
L 58.644531 25.877187 
" style="fill:none;stroke:#000000;stroke-dasharray:1.000000,3.000000;stroke-dashoffset:0.0;stroke-width:0.5;"/>
     </g>
     <g id="line2d_7">
      <defs>
       <path d="M 0 0 
L 0 -4 
" id="me7affc1815" style="stroke:#000000;stroke-width:0.5;"/>
      </defs>
      <g>
       <use style="stroke:#000000;stroke-width:0.5;" x="58.64453125" xlink:href="#me7affc1815" y="371.4771875"/>
      </g>
     </g>
     <g id="line2d_8">
      <defs>
       <path d="M 0 0 
L 0 4 
" id="mef262b13c0" style="stroke:#000000;stroke-width:0.5;"/>
      </defs>
      <g>
       <use style="stroke:#000000;stroke-width:0.5;" x="58.64453125" xlink:href="#mef262b13c0" y="25.8771875"/>
      </g>
     </g>
     <g id="text_1">
      <!-- 0 -->
      <defs>
       <path d="M 46 36.53125 
Q 46 50.203125 43.4375 55.78125 
Q 40.875 61.375 34.8125 61.375 
Q 28.765625 61.375 26.171875 55.78125 
Q 23.578125 50.203125 23.578125 36.53125 
Q 23.578125 22.703125 26.171875 17.03125 
Q 28.765625 11.375 34.8125 11.375 
Q 40.828125 11.375 43.40625 17.03125 
Q 46 22.703125 46 36.53125 
M 64.796875 36.375 
Q 64.796875 18.265625 56.984375 8.421875 
Q 49.171875 -1.421875 34.8125 -1.421875 
Q 20.40625 -1.421875 12.59375 8.421875 
Q 4.78125 18.265625 4.78125 36.375 
Q 4.78125 54.546875 12.59375 64.375 
Q 20.40625 74.21875 34.8125 74.21875 
Q 49.171875 74.21875 56.984375 64.375 
Q 64.796875 54.546875 64.796875 36.375 
" id="BitstreamVeraSans-Bold-30"/>
      </defs>
      <g transform="translate(53.426171875 386.87484375)scale(0.15 -0.15)">
       <use xlink:href="#BitstreamVeraSans-Bold-30"/>
      </g>
     </g>
    </g>
    <g id="xtick_2">
     <g id="line2d_9">
      <path clip-path="url(#p8e0a7641c7)" d="M 114.444531 371.477188 
L 114.444531 25.877187 
" style="fill:none;stroke:#000000;stroke-dasharray:1.000000,3.000000;stroke-dashoffset:0.0;stroke-width:0.5;"/>
     </g>
     <g id="line2d_10">
      <g>
       <use style="stroke:#000000;stroke-width:0.5;" x="114.44453125" xlink:href="#me7affc1815" y="371.4771875"/>
      </g>
     </g>
     <g id="line2d_11">
      <g>
       <use style="stroke:#000000;stroke-width:0.5;" x="114.44453125" xlink:href="#mef262b13c0" y="25.8771875"/>
      </g>
     </g>
     <g id="text_2">
      <!-- 2 -->
      <defs>
       <path d="M 28.8125 13.8125 
L 60.890625 13.8125 
L 60.890625 0 
L 7.90625 0 
L 7.90625 13.8125 
L 34.515625 37.3125 
Q 38.09375 40.53125 39.796875 43.609375 
Q 41.5 46.6875 41.5 50 
Q 41.5 55.125 38.0625 58.25 
Q 34.625 61.375 28.90625 61.375 
Q 24.515625 61.375 19.28125 59.5 
Q 14.0625 57.625 8.109375 53.90625 
L 8.109375 69.921875 
Q 14.453125 72.015625 20.65625 73.109375 
Q 26.859375 74.21875 32.8125 74.21875 
Q 45.90625 74.21875 53.15625 68.453125 
Q 60.40625 62.703125 60.40625 52.390625 
Q 60.40625 46.4375 57.328125 41.28125 
Q 54.25 36.140625 44.390625 27.484375 
z
" id="BitstreamVeraSans-Bold-32"/>
      </defs>
      <g transform="translate(109.226171875 386.87484375)scale(0.15 -0.15)">
       <use xlink:href="#BitstreamVeraSans-Bold-32"/>
      </g>
     </g>
    </g>
    <g id="xtick_3">
     <g id="line2d_12">
      <path clip-path="url(#p8e0a7641c7)" d="M 170.244531 371.477188 
L 170.244531 25.877187 
" style="fill:none;stroke:#000000;stroke-dasharray:1.000000,3.000000;stroke-dashoffset:0.0;stroke-width:0.5;"/>
     </g>
     <g id="line2d_13">
      <g>
       <use style="stroke:#000000;stroke-width:0.5;" x="170.24453125" xlink:href="#me7affc1815" y="371.4771875"/>
      </g>
     </g>
     <g id="line2d_14">
      <g>
       <use style="stroke:#000000;stroke-width:0.5;" x="170.24453125" xlink:href="#mef262b13c0" y="25.8771875"/>
      </g>
     </g>
     <g id="text_3">
      <!-- 4 -->
      <defs>
       <path d="M 36.8125 57.421875 
L 16.21875 26.90625 
L 36.8125 26.90625 
z
M 33.6875 72.90625 
L 54.59375 72.90625 
L 54.59375 26.90625 
L 64.984375 26.90625 
L 64.984375 13.28125 
L 54.59375 13.28125 
L 54.59375 0 
L 36.8125 0 
L 36.8125 13.28125 
L 4.5 13.28125 
L 4.5 29.390625 
z
" id="BitstreamVeraSans-Bold-34"/>
      </defs>
      <g transform="translate(165.026171875 386.87484375)scale(0.15 -0.15)">
       <use xlink:href="#BitstreamVeraSans-Bold-34"/>
      </g>
     </g>
    </g>
    <g id="xtick_4">
     <g id="line2d_15">
      <path clip-path="url(#p8e0a7641c7)" d="M 226.044531 371.477188 
L 226.044531 25.877187 
" style="fill:none;stroke:#000000;stroke-dasharray:1.000000,3.000000;stroke-dashoffset:0.0;stroke-width:0.5;"/>
     </g>
     <g id="line2d_16">
      <g>
       <use style="stroke:#000000;stroke-width:0.5;" x="226.04453125" xlink:href="#me7affc1815" y="371.4771875"/>
      </g>
     </g>
     <g id="line2d_17">
      <g>
       <use style="stroke:#000000;stroke-width:0.5;" x="226.04453125" xlink:href="#mef262b13c0" y="25.8771875"/>
      </g>
     </g>
     <g id="text_4">
      <!-- 6 -->
      <defs>
       <path d="M 36.1875 35.984375 
Q 31.25 35.984375 28.78125 32.78125 
Q 26.3125 29.59375 26.3125 23.1875 
Q 26.3125 16.796875 28.78125 13.59375 
Q 31.25 10.40625 36.1875 10.40625 
Q 41.15625 10.40625 43.625 13.59375 
Q 46.09375 16.796875 46.09375 23.1875 
Q 46.09375 29.59375 43.625 32.78125 
Q 41.15625 35.984375 36.1875 35.984375 
M 59.421875 71 
L 59.421875 57.515625 
Q 54.78125 59.71875 50.671875 60.765625 
Q 46.578125 61.8125 42.671875 61.8125 
Q 34.28125 61.8125 29.59375 57.140625 
Q 24.90625 52.484375 24.125 43.3125 
Q 27.34375 45.703125 31.09375 46.890625 
Q 34.859375 48.09375 39.3125 48.09375 
Q 50.484375 48.09375 57.34375 41.546875 
Q 64.203125 35.015625 64.203125 24.421875 
Q 64.203125 12.703125 56.53125 5.640625 
Q 48.875 -1.421875 35.984375 -1.421875 
Q 21.78125 -1.421875 13.984375 8.171875 
Q 6.203125 17.78125 6.203125 35.40625 
Q 6.203125 53.46875 15.3125 63.796875 
Q 24.421875 74.125 40.28125 74.125 
Q 45.3125 74.125 50.046875 73.34375 
Q 54.78125 72.5625 59.421875 71 
" id="BitstreamVeraSans-Bold-36"/>
      </defs>
      <g transform="translate(220.826171875 386.87484375)scale(0.15 -0.15)">
       <use xlink:href="#BitstreamVeraSans-Bold-36"/>
      </g>
     </g>
    </g>
    <g id="xtick_5">
     <g id="line2d_18">
      <path clip-path="url(#p8e0a7641c7)" d="M 281.844531 371.477188 
L 281.844531 25.877187 
" style="fill:none;stroke:#000000;stroke-dasharray:1.000000,3.000000;stroke-dashoffset:0.0;stroke-width:0.5;"/>
     </g>
     <g id="line2d_19">
      <g>
       <use style="stroke:#000000;stroke-width:0.5;" x="281.84453125" xlink:href="#me7affc1815" y="371.4771875"/>
      </g>
     </g>
     <g id="line2d_20">
      <g>
       <use style="stroke:#000000;stroke-width:0.5;" x="281.84453125" xlink:href="#mef262b13c0" y="25.8771875"/>
      </g>
     </g>
     <g id="text_5">
      <!-- 8 -->
      <defs>
       <path d="M 34.8125 32.625 
Q 29.546875 32.625 26.703125 29.734375 
Q 23.875 26.859375 23.875 21.484375 
Q 23.875 16.109375 26.703125 13.25 
Q 29.546875 10.40625 34.8125 10.40625 
Q 40.046875 10.40625 42.828125 13.25 
Q 45.609375 16.109375 45.609375 21.484375 
Q 45.609375 26.90625 42.828125 29.765625 
Q 40.046875 32.625 34.8125 32.625 
M 21.09375 38.8125 
Q 14.453125 40.828125 11.078125 44.96875 
Q 7.71875 49.125 7.71875 55.328125 
Q 7.71875 64.546875 14.59375 69.375 
Q 21.484375 74.21875 34.8125 74.21875 
Q 48.046875 74.21875 54.921875 69.40625 
Q 61.8125 64.59375 61.8125 55.328125 
Q 61.8125 49.125 58.421875 44.96875 
Q 55.03125 40.828125 48.390625 38.8125 
Q 55.8125 36.765625 59.59375 32.15625 
Q 63.375 27.546875 63.375 20.515625 
Q 63.375 9.671875 56.171875 4.125 
Q 48.96875 -1.421875 34.8125 -1.421875 
Q 20.609375 -1.421875 13.359375 4.125 
Q 6.109375 9.671875 6.109375 20.515625 
Q 6.109375 27.546875 9.890625 32.15625 
Q 13.671875 36.765625 21.09375 38.8125 
M 25.484375 53.421875 
Q 25.484375 49.078125 27.90625 46.734375 
Q 30.328125 44.390625 34.8125 44.390625 
Q 39.203125 44.390625 41.59375 46.734375 
Q 44 49.078125 44 53.421875 
Q 44 57.765625 41.59375 60.078125 
Q 39.203125 62.40625 34.8125 62.40625 
Q 30.328125 62.40625 27.90625 60.0625 
Q 25.484375 57.71875 25.484375 53.421875 
" id="BitstreamVeraSans-Bold-38"/>
      </defs>
      <g transform="translate(276.626171875 386.87484375)scale(0.15 -0.15)">
       <use xlink:href="#BitstreamVeraSans-Bold-38"/>
      </g>
     </g>
    </g>
    <g id="xtick_6">
     <g id="line2d_21">
      <path clip-path="url(#p8e0a7641c7)" d="M 337.644531 371.477188 
L 337.644531 25.877187 
" style="fill:none;stroke:#000000;stroke-dasharray:1.000000,3.000000;stroke-dashoffset:0.0;stroke-width:0.5;"/>
     </g>
     <g id="line2d_22">
      <g>
       <use style="stroke:#000000;stroke-width:0.5;" x="337.64453125" xlink:href="#me7affc1815" y="371.4771875"/>
      </g>
     </g>
     <g id="line2d_23">
      <g>
       <use style="stroke:#000000;stroke-width:0.5;" x="337.64453125" xlink:href="#mef262b13c0" y="25.8771875"/>
      </g>
     </g>
     <g id="text_6">
      <!-- 10 -->
      <defs>
       <path d="M 11.71875 12.984375 
L 28.328125 12.984375 
L 28.328125 60.109375 
L 11.28125 56.59375 
L 11.28125 69.390625 
L 28.21875 72.90625 
L 46.09375 72.90625 
L 46.09375 12.984375 
L 62.703125 12.984375 
L 62.703125 0 
L 11.71875 0 
z
" id="BitstreamVeraSans-Bold-31"/>
      </defs>
      <g transform="translate(327.2078125 386.87484375)scale(0.15 -0.15)">
       <use xlink:href="#BitstreamVeraSans-Bold-31"/>
       <use x="69.580078125" xlink:href="#BitstreamVeraSans-Bold-30"/>
      </g>
     </g>
    </g>
    <g id="xtick_7">
     <g id="line2d_24">
      <path clip-path="url(#p8e0a7641c7)" d="M 393.444531 371.477188 
L 393.444531 25.877187 
" style="fill:none;stroke:#000000;stroke-dasharray:1.000000,3.000000;stroke-dashoffset:0.0;stroke-width:0.5;"/>
     </g>
     <g id="line2d_25">
      <g>
       <use style="stroke:#000000;stroke-width:0.5;" x="393.44453125" xlink:href="#me7affc1815" y="371.4771875"/>
      </g>
     </g>
     <g id="line2d_26">
      <g>
       <use style="stroke:#000000;stroke-width:0.5;" x="393.44453125" xlink:href="#mef262b13c0" y="25.8771875"/>
      </g>
     </g>
     <g id="text_7">
      <!-- 12 -->
      <g transform="translate(383.0078125 386.87484375)scale(0.15 -0.15)">
       <use xlink:href="#BitstreamVeraSans-Bold-31"/>
       <use x="69.580078125" xlink:href="#BitstreamVeraSans-Bold-32"/>
      </g>
     </g>
    </g>
    <g id="xtick_8">
     <g id="line2d_27">
      <path clip-path="url(#p8e0a7641c7)" d="M 449.244531 371.477188 
L 449.244531 25.877187 
" style="fill:none;stroke:#000000;stroke-dasharray:1.000000,3.000000;stroke-dashoffset:0.0;stroke-width:0.5;"/>
     </g>
     <g id="line2d_28">
      <g>
       <use style="stroke:#000000;stroke-width:0.5;" x="449.24453125" xlink:href="#me7affc1815" y="371.4771875"/>
      </g>
     </g>
     <g id="line2d_29">
      <g>
       <use style="stroke:#000000;stroke-width:0.5;" x="449.24453125" xlink:href="#mef262b13c0" y="25.8771875"/>
      </g>
     </g>
     <g id="text_8">
      <!-- 14 -->
      <g transform="translate(438.8078125 386.87484375)scale(0.15 -0.15)">
       <use xlink:href="#BitstreamVeraSans-Bold-31"/>
       <use x="69.580078125" xlink:href="#BitstreamVeraSans-Bold-34"/>
      </g>
     </g>
    </g>
    <g id="xtick_9">
     <g id="line2d_30">
      <path clip-path="url(#p8e0a7641c7)" d="M 505.044531 371.477188 
L 505.044531 25.877187 
" style="fill:none;stroke:#000000;stroke-dasharray:1.000000,3.000000;stroke-dashoffset:0.0;stroke-width:0.5;"/>
     </g>
     <g id="line2d_31">
      <g>
       <use style="stroke:#000000;stroke-width:0.5;" x="505.04453125" xlink:href="#me7affc1815" y="371.4771875"/>
      </g>
     </g>
     <g id="line2d_32">
      <g>
       <use style="stroke:#000000;stroke-width:0.5;" x="505.04453125" xlink:href="#mef262b13c0" y="25.8771875"/>
      </g>
     </g>
     <g id="text_9">
      <!-- 16 -->
      <g transform="translate(494.6078125 386.87484375)scale(0.15 -0.15)">
       <use xlink:href="#BitstreamVeraSans-Bold-31"/>
       <use x="69.580078125" xlink:href="#BitstreamVeraSans-Bold-36"/>
      </g>
     </g>
    </g>
    <g id="text_10">
     <!-- t -->
     <defs>
      <path d="M 18.3125 70.21875 
L 18.3125 54.6875 
L 36.8125 54.6875 
L 36.8125 47.703125 
L 18.3125 47.703125 
L 18.3125 18.015625 
Q 18.3125 11.328125 20.140625 9.421875 
Q 21.96875 7.515625 27.59375 7.515625 
L 36.8125 7.515625 
L 36.8125 0 
L 27.59375 0 
Q 17.1875 0 13.234375 3.875 
Q 9.28125 7.765625 9.28125 18.015625 
L 9.28125 47.703125 
L 2.6875 47.703125 
L 2.6875 54.6875 
L 9.28125 54.6875 
L 9.28125 70.21875 
z
" id="BitstreamVeraSans-Roman-74"/>
     </defs>
     <g transform="translate(278.904296875 406.39203125)scale(0.15 -0.15)">
      <use xlink:href="#BitstreamVeraSans-Roman-74"/>
     </g>
    </g>
   </g>
   <g id="matplotlib.axis_2">
    <g id="ytick_1">
     <g id="line2d_33">
      <path clip-path="url(#p8e0a7641c7)" d="M 58.644531 371.477188 
L 505.044531 371.477188 
" style="fill:none;stroke:#000000;stroke-dasharray:1.000000,3.000000;stroke-dashoffset:0.0;stroke-width:0.5;"/>
     </g>
     <g id="line2d_34">
      <defs>
       <path d="M 0 0 
L 4 0 
" id="mae073241fb" style="stroke:#000000;stroke-width:0.5;"/>
      </defs>
      <g>
       <use style="stroke:#000000;stroke-width:0.5;" x="58.64453125" xlink:href="#mae073241fb" y="371.4771875"/>
      </g>
     </g>
     <g id="line2d_35">
      <defs>
       <path d="M 0 0 
L -4 0 
" id="ma2d715dbd6" style="stroke:#000000;stroke-width:0.5;"/>
      </defs>
      <g>
       <use style="stroke:#000000;stroke-width:0.5;" x="505.04453125" xlink:href="#ma2d715dbd6" y="371.4771875"/>
      </g>
     </g>
     <g id="text_11">
      <!-- 0.570 -->
      <defs>
       <path d="M 6.6875 72.90625 
L 61.625 72.90625 
L 61.625 62.3125 
L 33.203125 0 
L 14.890625 0 
L 41.796875 59.078125 
L 6.6875 59.078125 
z
" id="BitstreamVeraSans-Bold-37"/>
       <path d="M 10.59375 72.90625 
L 57.328125 72.90625 
L 57.328125 59.078125 
L 25.59375 59.078125 
L 25.59375 47.796875 
Q 27.734375 48.390625 29.90625 48.703125 
Q 32.078125 49.03125 34.421875 49.03125 
Q 47.75 49.03125 55.171875 42.359375 
Q 62.59375 35.6875 62.59375 23.78125 
Q 62.59375 11.96875 54.515625 5.265625 
Q 46.4375 -1.421875 32.078125 -1.421875 
Q 25.875 -1.421875 19.796875 -0.21875 
Q 13.71875 0.984375 7.71875 3.421875 
L 7.71875 18.21875 
Q 13.671875 14.796875 19.015625 13.078125 
Q 24.359375 11.375 29.109375 11.375 
Q 35.9375 11.375 39.859375 14.71875 
Q 43.796875 18.0625 43.796875 23.78125 
Q 43.796875 29.546875 39.859375 32.859375 
Q 35.9375 36.1875 29.109375 36.1875 
Q 25.046875 36.1875 20.453125 35.125 
Q 15.875 34.078125 10.59375 31.890625 
z
" id="BitstreamVeraSans-Bold-35"/>
       <path d="M 10.203125 18.890625 
L 27.78125 18.890625 
L 27.78125 0 
L 10.203125 0 
z
" id="BitstreamVeraSans-Bold-2e"/>
      </defs>
      <g transform="translate(7.2 375.61625)scale(0.15 -0.15)">
       <use xlink:href="#BitstreamVeraSans-Bold-30"/>
       <use x="69.580078125" xlink:href="#BitstreamVeraSans-Bold-2e"/>
       <use x="107.568359375" xlink:href="#BitstreamVeraSans-Bold-35"/>
       <use x="177.1484375" xlink:href="#BitstreamVeraSans-Bold-37"/>
       <use x="246.728515625" xlink:href="#BitstreamVeraSans-Bold-30"/>
      </g>
     </g>
    </g>
    <g id="ytick_2">
     <g id="line2d_36">
      <path clip-path="url(#p8e0a7641c7)" d="M 58.644531 322.105759 
L 505.044531 322.105759 
" style="fill:none;stroke:#000000;stroke-dasharray:1.000000,3.000000;stroke-dashoffset:0.0;stroke-width:0.5;"/>
     </g>
     <g id="line2d_37">
      <g>
       <use style="stroke:#000000;stroke-width:0.5;" x="58.64453125" xlink:href="#mae073241fb" y="322.105758929"/>
      </g>
     </g>
     <g id="line2d_38">
      <g>
       <use style="stroke:#000000;stroke-width:0.5;" x="505.04453125" xlink:href="#ma2d715dbd6" y="322.105758929"/>
      </g>
     </g>
     <g id="text_12">
      <!-- 0.572 -->
      <g transform="translate(7.2 326.244821429)scale(0.15 -0.15)">
       <use xlink:href="#BitstreamVeraSans-Bold-30"/>
       <use x="69.580078125" xlink:href="#BitstreamVeraSans-Bold-2e"/>
       <use x="107.568359375" xlink:href="#BitstreamVeraSans-Bold-35"/>
       <use x="177.1484375" xlink:href="#BitstreamVeraSans-Bold-37"/>
       <use x="246.728515625" xlink:href="#BitstreamVeraSans-Bold-32"/>
      </g>
     </g>
    </g>
    <g id="ytick_3">
     <g id="line2d_39">
      <path clip-path="url(#p8e0a7641c7)" d="M 58.644531 272.73433 
L 505.044531 272.73433 
" style="fill:none;stroke:#000000;stroke-dasharray:1.000000,3.000000;stroke-dashoffset:0.0;stroke-width:0.5;"/>
     </g>
     <g id="line2d_40">
      <g>
       <use style="stroke:#000000;stroke-width:0.5;" x="58.64453125" xlink:href="#mae073241fb" y="272.734330357"/>
      </g>
     </g>
     <g id="line2d_41">
      <g>
       <use style="stroke:#000000;stroke-width:0.5;" x="505.04453125" xlink:href="#ma2d715dbd6" y="272.734330357"/>
      </g>
     </g>
     <g id="text_13">
      <!-- 0.574 -->
      <g transform="translate(7.2 276.873392857)scale(0.15 -0.15)">
       <use xlink:href="#BitstreamVeraSans-Bold-30"/>
       <use x="69.580078125" xlink:href="#BitstreamVeraSans-Bold-2e"/>
       <use x="107.568359375" xlink:href="#BitstreamVeraSans-Bold-35"/>
       <use x="177.1484375" xlink:href="#BitstreamVeraSans-Bold-37"/>
       <use x="246.728515625" xlink:href="#BitstreamVeraSans-Bold-34"/>
      </g>
     </g>
    </g>
    <g id="ytick_4">
     <g id="line2d_42">
      <path clip-path="url(#p8e0a7641c7)" d="M 58.644531 223.362902 
L 505.044531 223.362902 
" style="fill:none;stroke:#000000;stroke-dasharray:1.000000,3.000000;stroke-dashoffset:0.0;stroke-width:0.5;"/>
     </g>
     <g id="line2d_43">
      <g>
       <use style="stroke:#000000;stroke-width:0.5;" x="58.64453125" xlink:href="#mae073241fb" y="223.362901786"/>
      </g>
     </g>
     <g id="line2d_44">
      <g>
       <use style="stroke:#000000;stroke-width:0.5;" x="505.04453125" xlink:href="#ma2d715dbd6" y="223.362901786"/>
      </g>
     </g>
     <g id="text_14">
      <!-- 0.576 -->
      <g transform="translate(7.2 227.501964286)scale(0.15 -0.15)">
       <use xlink:href="#BitstreamVeraSans-Bold-30"/>
       <use x="69.580078125" xlink:href="#BitstreamVeraSans-Bold-2e"/>
       <use x="107.568359375" xlink:href="#BitstreamVeraSans-Bold-35"/>
       <use x="177.1484375" xlink:href="#BitstreamVeraSans-Bold-37"/>
       <use x="246.728515625" xlink:href="#BitstreamVeraSans-Bold-36"/>
      </g>
     </g>
    </g>
    <g id="ytick_5">
     <g id="line2d_45">
      <path clip-path="url(#p8e0a7641c7)" d="M 58.644531 173.991473 
L 505.044531 173.991473 
" style="fill:none;stroke:#000000;stroke-dasharray:1.000000,3.000000;stroke-dashoffset:0.0;stroke-width:0.5;"/>
     </g>
     <g id="line2d_46">
      <g>
       <use style="stroke:#000000;stroke-width:0.5;" x="58.64453125" xlink:href="#mae073241fb" y="173.991473214"/>
      </g>
     </g>
     <g id="line2d_47">
      <g>
       <use style="stroke:#000000;stroke-width:0.5;" x="505.04453125" xlink:href="#ma2d715dbd6" y="173.991473214"/>
      </g>
     </g>
     <g id="text_15">
      <!-- 0.578 -->
      <g transform="translate(7.2 178.130535714)scale(0.15 -0.15)">
       <use xlink:href="#BitstreamVeraSans-Bold-30"/>
       <use x="69.580078125" xlink:href="#BitstreamVeraSans-Bold-2e"/>
       <use x="107.568359375" xlink:href="#BitstreamVeraSans-Bold-35"/>
       <use x="177.1484375" xlink:href="#BitstreamVeraSans-Bold-37"/>
       <use x="246.728515625" xlink:href="#BitstreamVeraSans-Bold-38"/>
      </g>
     </g>
    </g>
    <g id="ytick_6">
     <g id="line2d_48">
      <path clip-path="url(#p8e0a7641c7)" d="M 58.644531 124.620045 
L 505.044531 124.620045 
" style="fill:none;stroke:#000000;stroke-dasharray:1.000000,3.000000;stroke-dashoffset:0.0;stroke-width:0.5;"/>
     </g>
     <g id="line2d_49">
      <g>
       <use style="stroke:#000000;stroke-width:0.5;" x="58.64453125" xlink:href="#mae073241fb" y="124.620044643"/>
      </g>
     </g>
     <g id="line2d_50">
      <g>
       <use style="stroke:#000000;stroke-width:0.5;" x="505.04453125" xlink:href="#ma2d715dbd6" y="124.620044643"/>
      </g>
     </g>
     <g id="text_16">
      <!-- 0.580 -->
      <g transform="translate(7.2 128.759107143)scale(0.15 -0.15)">
       <use xlink:href="#BitstreamVeraSans-Bold-30"/>
       <use x="69.580078125" xlink:href="#BitstreamVeraSans-Bold-2e"/>
       <use x="107.568359375" xlink:href="#BitstreamVeraSans-Bold-35"/>
       <use x="177.1484375" xlink:href="#BitstreamVeraSans-Bold-38"/>
       <use x="246.728515625" xlink:href="#BitstreamVeraSans-Bold-30"/>
      </g>
     </g>
    </g>
    <g id="ytick_7">
     <g id="line2d_51">
      <path clip-path="url(#p8e0a7641c7)" d="M 58.644531 75.248616 
L 505.044531 75.248616 
" style="fill:none;stroke:#000000;stroke-dasharray:1.000000,3.000000;stroke-dashoffset:0.0;stroke-width:0.5;"/>
     </g>
     <g id="line2d_52">
      <g>
       <use style="stroke:#000000;stroke-width:0.5;" x="58.64453125" xlink:href="#mae073241fb" y="75.2486160714"/>
      </g>
     </g>
     <g id="line2d_53">
      <g>
       <use style="stroke:#000000;stroke-width:0.5;" x="505.04453125" xlink:href="#ma2d715dbd6" y="75.2486160714"/>
      </g>
     </g>
     <g id="text_17">
      <!-- 0.582 -->
      <g transform="translate(7.2 79.3876785714)scale(0.15 -0.15)">
       <use xlink:href="#BitstreamVeraSans-Bold-30"/>
       <use x="69.580078125" xlink:href="#BitstreamVeraSans-Bold-2e"/>
       <use x="107.568359375" xlink:href="#BitstreamVeraSans-Bold-35"/>
       <use x="177.1484375" xlink:href="#BitstreamVeraSans-Bold-38"/>
       <use x="246.728515625" xlink:href="#BitstreamVeraSans-Bold-32"/>
      </g>
     </g>
    </g>
    <g id="ytick_8">
     <g id="line2d_54">
      <path clip-path="url(#p8e0a7641c7)" d="M 58.644531 25.877188 
L 505.044531 25.877188 
" style="fill:none;stroke:#000000;stroke-dasharray:1.000000,3.000000;stroke-dashoffset:0.0;stroke-width:0.5;"/>
     </g>
     <g id="line2d_55">
      <g>
       <use style="stroke:#000000;stroke-width:0.5;" x="58.64453125" xlink:href="#mae073241fb" y="25.8771875"/>
      </g>
     </g>
     <g id="line2d_56">
      <g>
       <use style="stroke:#000000;stroke-width:0.5;" x="505.04453125" xlink:href="#ma2d715dbd6" y="25.8771875"/>
      </g>
     </g>
     <g id="text_18">
      <!-- 0.584 -->
      <g transform="translate(7.2 30.01625)scale(0.15 -0.15)">
       <use xlink:href="#BitstreamVeraSans-Bold-30"/>
       <use x="69.580078125" xlink:href="#BitstreamVeraSans-Bold-2e"/>
       <use x="107.568359375" xlink:href="#BitstreamVeraSans-Bold-35"/>
       <use x="177.1484375" xlink:href="#BitstreamVeraSans-Bold-38"/>
       <use x="246.728515625" xlink:href="#BitstreamVeraSans-Bold-34"/>
      </g>
     </g>
    </g>
   </g>
   <g id="text_19">
    <!-- Ground state probability -->
    <defs>
     <path d="M 59.515625 10.40625 
L 59.515625 29.984375 
L 43.40625 29.984375 
L 43.40625 38.09375 
L 69.28125 38.09375 
L 69.28125 6.78125 
Q 63.578125 2.734375 56.6875 0.65625 
Q 49.8125 -1.421875 42 -1.421875 
Q 24.90625 -1.421875 15.25 8.5625 
Q 5.609375 18.5625 5.609375 36.375 
Q 5.609375 54.25 15.25 64.234375 
Q 24.90625 74.21875 42 74.21875 
Q 49.125 74.21875 55.546875 72.453125 
Q 61.96875 70.703125 67.390625 67.28125 
L 67.390625 56.78125 
Q 61.921875 61.421875 55.765625 63.765625 
Q 49.609375 66.109375 42.828125 66.109375 
Q 29.4375 66.109375 22.71875 58.640625 
Q 16.015625 51.171875 16.015625 36.375 
Q 16.015625 21.625 22.71875 14.15625 
Q 29.4375 6.6875 42.828125 6.6875 
Q 48.046875 6.6875 52.140625 7.59375 
Q 56.25 8.5 59.515625 10.40625 
" id="BitstreamVeraSans-Roman-47"/>
     <path d="M 30.609375 48.390625 
Q 23.390625 48.390625 19.1875 42.75 
Q 14.984375 37.109375 14.984375 27.296875 
Q 14.984375 17.484375 19.15625 11.84375 
Q 23.34375 6.203125 30.609375 6.203125 
Q 37.796875 6.203125 41.984375 11.859375 
Q 46.1875 17.53125 46.1875 27.296875 
Q 46.1875 37.015625 41.984375 42.703125 
Q 37.796875 48.390625 30.609375 48.390625 
M 30.609375 56 
Q 42.328125 56 49.015625 48.375 
Q 55.71875 40.765625 55.71875 27.296875 
Q 55.71875 13.875 49.015625 6.21875 
Q 42.328125 -1.421875 30.609375 -1.421875 
Q 18.84375 -1.421875 12.171875 6.21875 
Q 5.515625 13.875 5.515625 27.296875 
Q 5.515625 40.765625 12.171875 48.375 
Q 18.84375 56 30.609375 56 
" id="BitstreamVeraSans-Roman-6f"/>
     <path d="M 41.109375 46.296875 
Q 39.59375 47.171875 37.8125 47.578125 
Q 36.03125 48 33.890625 48 
Q 26.265625 48 22.1875 43.046875 
Q 18.109375 38.09375 18.109375 28.8125 
L 18.109375 0 
L 9.078125 0 
L 9.078125 54.6875 
L 18.109375 54.6875 
L 18.109375 46.1875 
Q 20.953125 51.171875 25.484375 53.578125 
Q 30.03125 56 36.53125 56 
Q 37.453125 56 38.578125 55.875 
Q 39.703125 55.765625 41.0625 55.515625 
z
" id="BitstreamVeraSans-Roman-72"/>
     <path d="M 8.5 21.578125 
L 8.5 54.6875 
L 17.484375 54.6875 
L 17.484375 21.921875 
Q 17.484375 14.15625 20.5 10.265625 
Q 23.53125 6.390625 29.59375 6.390625 
Q 36.859375 6.390625 41.078125 11.03125 
Q 45.3125 15.671875 45.3125 23.6875 
L 45.3125 54.6875 
L 54.296875 54.6875 
L 54.296875 0 
L 45.3125 0 
L 45.3125 8.40625 
Q 42.046875 3.421875 37.71875 1 
Q 33.40625 -1.421875 27.6875 -1.421875 
Q 18.265625 -1.421875 13.375 4.4375 
Q 8.5 10.296875 8.5 21.578125 
" id="BitstreamVeraSans-Roman-75"/>
     <path d="M 9.421875 54.6875 
L 18.40625 54.6875 
L 18.40625 0 
L 9.421875 0 
z
M 9.421875 75.984375 
L 18.40625 75.984375 
L 18.40625 64.59375 
L 9.421875 64.59375 
z
" id="BitstreamVeraSans-Roman-69"/>
     <path id="BitstreamVeraSans-Roman-20"/>
     <path d="M 48.6875 27.296875 
Q 48.6875 37.203125 44.609375 42.84375 
Q 40.53125 48.484375 33.40625 48.484375 
Q 26.265625 48.484375 22.1875 42.84375 
Q 18.109375 37.203125 18.109375 27.296875 
Q 18.109375 17.390625 22.1875 11.75 
Q 26.265625 6.109375 33.40625 6.109375 
Q 40.53125 6.109375 44.609375 11.75 
Q 48.6875 17.390625 48.6875 27.296875 
M 18.109375 46.390625 
Q 20.953125 51.265625 25.265625 53.625 
Q 29.59375 56 35.59375 56 
Q 45.5625 56 51.78125 48.09375 
Q 58.015625 40.1875 58.015625 27.296875 
Q 58.015625 14.40625 51.78125 6.484375 
Q 45.5625 -1.421875 35.59375 -1.421875 
Q 29.59375 -1.421875 25.265625 0.953125 
Q 20.953125 3.328125 18.109375 8.203125 
L 18.109375 0 
L 9.078125 0 
L 9.078125 75.984375 
L 18.109375 75.984375 
z
" id="BitstreamVeraSans-Roman-62"/>
     <path d="M 54.890625 33.015625 
L 54.890625 0 
L 45.90625 0 
L 45.90625 32.71875 
Q 45.90625 40.484375 42.875 44.328125 
Q 39.84375 48.1875 33.796875 48.1875 
Q 26.515625 48.1875 22.3125 43.546875 
Q 18.109375 38.921875 18.109375 30.90625 
L 18.109375 0 
L 9.078125 0 
L 9.078125 54.6875 
L 18.109375 54.6875 
L 18.109375 46.1875 
Q 21.34375 51.125 25.703125 53.5625 
Q 30.078125 56 35.796875 56 
Q 45.21875 56 50.046875 50.171875 
Q 54.890625 44.34375 54.890625 33.015625 
" id="BitstreamVeraSans-Roman-6e"/>
     <path d="M 44.28125 53.078125 
L 44.28125 44.578125 
Q 40.484375 46.53125 36.375 47.5 
Q 32.28125 48.484375 27.875 48.484375 
Q 21.1875 48.484375 17.84375 46.4375 
Q 14.5 44.390625 14.5 40.28125 
Q 14.5 37.15625 16.890625 35.375 
Q 19.28125 33.59375 26.515625 31.984375 
L 29.59375 31.296875 
Q 39.15625 29.25 43.1875 25.515625 
Q 47.21875 21.78125 47.21875 15.09375 
Q 47.21875 7.46875 41.1875 3.015625 
Q 35.15625 -1.421875 24.609375 -1.421875 
Q 20.21875 -1.421875 15.453125 -0.5625 
Q 10.6875 0.296875 5.421875 2 
L 5.421875 11.28125 
Q 10.40625 8.6875 15.234375 7.390625 
Q 20.0625 6.109375 24.8125 6.109375 
Q 31.15625 6.109375 34.5625 8.28125 
Q 37.984375 10.453125 37.984375 14.40625 
Q 37.984375 18.0625 35.515625 20.015625 
Q 33.0625 21.96875 24.703125 23.78125 
L 21.578125 24.515625 
Q 13.234375 26.265625 9.515625 29.90625 
Q 5.8125 33.546875 5.8125 39.890625 
Q 5.8125 47.609375 11.28125 51.796875 
Q 16.75 56 26.8125 56 
Q 31.78125 56 36.171875 55.265625 
Q 40.578125 54.546875 44.28125 53.078125 
" id="BitstreamVeraSans-Roman-73"/>
     <path d="M 9.421875 75.984375 
L 18.40625 75.984375 
L 18.40625 0 
L 9.421875 0 
z
" id="BitstreamVeraSans-Roman-6c"/>
     <path d="M 18.109375 8.203125 
L 18.109375 -20.796875 
L 9.078125 -20.796875 
L 9.078125 54.6875 
L 18.109375 54.6875 
L 18.109375 46.390625 
Q 20.953125 51.265625 25.265625 53.625 
Q 29.59375 56 35.59375 56 
Q 45.5625 56 51.78125 48.09375 
Q 58.015625 40.1875 58.015625 27.296875 
Q 58.015625 14.40625 51.78125 6.484375 
Q 45.5625 -1.421875 35.59375 -1.421875 
Q 29.59375 -1.421875 25.265625 0.953125 
Q 20.953125 3.328125 18.109375 8.203125 
M 48.6875 27.296875 
Q 48.6875 37.203125 44.609375 42.84375 
Q 40.53125 48.484375 33.40625 48.484375 
Q 26.265625 48.484375 22.1875 42.84375 
Q 18.109375 37.203125 18.109375 27.296875 
Q 18.109375 17.390625 22.1875 11.75 
Q 26.265625 6.109375 33.40625 6.109375 
Q 40.53125 6.109375 44.609375 11.75 
Q 48.6875 17.390625 48.6875 27.296875 
" id="BitstreamVeraSans-Roman-70"/>
     <path d="M 45.40625 46.390625 
L 45.40625 75.984375 
L 54.390625 75.984375 
L 54.390625 0 
L 45.40625 0 
L 45.40625 8.203125 
Q 42.578125 3.328125 38.25 0.953125 
Q 33.9375 -1.421875 27.875 -1.421875 
Q 17.96875 -1.421875 11.734375 6.484375 
Q 5.515625 14.40625 5.515625 27.296875 
Q 5.515625 40.1875 11.734375 48.09375 
Q 17.96875 56 27.875 56 
Q 33.9375 56 38.25 53.625 
Q 42.578125 51.265625 45.40625 46.390625 
M 14.796875 27.296875 
Q 14.796875 17.390625 18.875 11.75 
Q 22.953125 6.109375 30.078125 6.109375 
Q 37.203125 6.109375 41.296875 11.75 
Q 45.40625 17.390625 45.40625 27.296875 
Q 45.40625 37.203125 41.296875 42.84375 
Q 37.203125 48.484375 30.078125 48.484375 
Q 22.953125 48.484375 18.875 42.84375 
Q 14.796875 37.203125 14.796875 27.296875 
" id="BitstreamVeraSans-Roman-64"/>
     <path d="M 56.203125 29.59375 
L 56.203125 25.203125 
L 14.890625 25.203125 
Q 15.484375 15.921875 20.484375 11.0625 
Q 25.484375 6.203125 34.421875 6.203125 
Q 39.59375 6.203125 44.453125 7.46875 
Q 49.3125 8.734375 54.109375 11.28125 
L 54.109375 2.78125 
Q 49.265625 0.734375 44.1875 -0.34375 
Q 39.109375 -1.421875 33.890625 -1.421875 
Q 20.796875 -1.421875 13.15625 6.1875 
Q 5.515625 13.8125 5.515625 26.8125 
Q 5.515625 40.234375 12.765625 48.109375 
Q 20.015625 56 32.328125 56 
Q 43.359375 56 49.78125 48.890625 
Q 56.203125 41.796875 56.203125 29.59375 
M 47.21875 32.234375 
Q 47.125 39.59375 43.09375 43.984375 
Q 39.0625 48.390625 32.421875 48.390625 
Q 24.90625 48.390625 20.390625 44.140625 
Q 15.875 39.890625 15.1875 32.171875 
z
" id="BitstreamVeraSans-Roman-65"/>
     <path d="M 34.28125 27.484375 
Q 23.390625 27.484375 19.1875 25 
Q 14.984375 22.515625 14.984375 16.5 
Q 14.984375 11.71875 18.140625 8.90625 
Q 21.296875 6.109375 26.703125 6.109375 
Q 34.1875 6.109375 38.703125 11.40625 
Q 43.21875 16.703125 43.21875 25.484375 
L 43.21875 27.484375 
z
M 52.203125 31.203125 
L 52.203125 0 
L 43.21875 0 
L 43.21875 8.296875 
Q 40.140625 3.328125 35.546875 0.953125 
Q 30.953125 -1.421875 24.3125 -1.421875 
Q 15.921875 -1.421875 10.953125 3.296875 
Q 6 8.015625 6 15.921875 
Q 6 25.140625 12.171875 29.828125 
Q 18.359375 34.515625 30.609375 34.515625 
L 43.21875 34.515625 
L 43.21875 35.40625 
Q 43.21875 41.609375 39.140625 45 
Q 35.0625 48.390625 27.6875 48.390625 
Q 23 48.390625 18.546875 47.265625 
Q 14.109375 46.140625 10.015625 43.890625 
L 10.015625 52.203125 
Q 14.9375 54.109375 19.578125 55.046875 
Q 24.21875 56 28.609375 56 
Q 40.484375 56 46.34375 49.84375 
Q 52.203125 43.703125 52.203125 31.203125 
" id="BitstreamVeraSans-Roman-61"/>
     <path d="M 32.171875 -5.078125 
Q 28.375 -14.84375 24.75 -17.8125 
Q 21.140625 -20.796875 15.09375 -20.796875 
L 7.90625 -20.796875 
L 7.90625 -13.28125 
L 13.1875 -13.28125 
Q 16.890625 -13.28125 18.9375 -11.515625 
Q 21 -9.765625 23.484375 -3.21875 
L 25.09375 0.875 
L 2.984375 54.6875 
L 12.5 54.6875 
L 29.59375 11.921875 
L 46.6875 54.6875 
L 56.203125 54.6875 
z
" id="BitstreamVeraSans-Roman-79"/>
    </defs>
    <g transform="translate(171.81109375 20.8771875)scale(0.18 -0.18)">
     <use xlink:href="#BitstreamVeraSans-Roman-47"/>
     <use x="77.490234375" xlink:href="#BitstreamVeraSans-Roman-72"/>
     <use x="118.572265625" xlink:href="#BitstreamVeraSans-Roman-6f"/>
     <use x="179.75390625" xlink:href="#BitstreamVeraSans-Roman-75"/>
     <use x="243.1328125" xlink:href="#BitstreamVeraSans-Roman-6e"/>
     <use x="306.51171875" xlink:href="#BitstreamVeraSans-Roman-64"/>
     <use x="369.98828125" xlink:href="#BitstreamVeraSans-Roman-20"/>
     <use x="401.775390625" xlink:href="#BitstreamVeraSans-Roman-73"/>
     <use x="453.875" xlink:href="#BitstreamVeraSans-Roman-74"/>
     <use x="493.083984375" xlink:href="#BitstreamVeraSans-Roman-61"/>
     <use x="554.36328125" xlink:href="#BitstreamVeraSans-Roman-74"/>
     <use x="593.572265625" xlink:href="#BitstreamVeraSans-Roman-65"/>
     <use x="655.095703125" xlink:href="#BitstreamVeraSans-Roman-20"/>
     <use x="686.8828125" xlink:href="#BitstreamVeraSans-Roman-70"/>
     <use x="750.359375" xlink:href="#BitstreamVeraSans-Roman-72"/>
     <use x="791.44140625" xlink:href="#BitstreamVeraSans-Roman-6f"/>
     <use x="852.623046875" xlink:href="#BitstreamVeraSans-Roman-62"/>
     <use x="916.099609375" xlink:href="#BitstreamVeraSans-Roman-61"/>
     <use x="977.37890625" xlink:href="#BitstreamVeraSans-Roman-62"/>
     <use x="1040.85546875" xlink:href="#BitstreamVeraSans-Roman-69"/>
     <use x="1068.638671875" xlink:href="#BitstreamVeraSans-Roman-6c"/>
     <use x="1096.421875" xlink:href="#BitstreamVeraSans-Roman-69"/>
     <use x="1124.205078125" xlink:href="#BitstreamVeraSans-Roman-74"/>
     <use x="1163.4140625" xlink:href="#BitstreamVeraSans-Roman-79"/>
    </g>
   </g>
  </g>
 </g>
 <defs>
  <clipPath id="p8e0a7641c7">
   <rect height="345.6" width="446.4" x="58.64453125" y="25.8771875"/>
  </clipPath>
 </defs>
</svg>
