<?xml version="1.0" encoding="utf-8" standalone="no"?>
<!DOCTYPE svg PUBLIC "-//W3C//DTD SVG 1.1//EN"
  "http://www.w3.org/Graphics/SVG/1.1/DTD/svg11.dtd">
<!-- Created with matplotlib (http://matplotlib.org/) -->
<svg height="328pt" version="1.1" viewBox="0 0 439 328" width="439pt" xmlns="http://www.w3.org/2000/svg" xmlns:xlink="http://www.w3.org/1999/xlink">
 <defs>
  <style type="text/css">
*{stroke-linecap:butt;stroke-linejoin:round;}
  </style>
 </defs>
 <g id="figure_1">
  <g id="patch_1">
   <path d="M 0 328.885437 
L 439.118437 328.885437 
L 439.118437 0 
L 0 0 
z
" style="fill:none;"/>
  </g>
  <g id="axes_1">
   <g id="patch_2">
    <path d="M 65.254688 276.812 
L 422.374688 276.812 
L 422.374688 10.7 
L 65.254688 10.7 
z
" style="fill:none;"/>
   </g>
   <g id="matplotlib.axis_1">
    <g id="xtick_1">
     <g id="line2d_1">
      <path clip-path="url(#pff313e8731)" d="M 65.254688 276.812 
L 65.254688 10.7 
" style="fill:none;stroke:#b0b0b0;stroke-linecap:square;stroke-width:0.8;"/>
     </g>
     <g id="line2d_2">
      <defs>
       <path d="M 0 0 
L 0 3.5 
" id="mf7d53c1b60" style="stroke:#000000;stroke-width:0.8;"/>
      </defs>
      <g>
       <use style="stroke:#000000;stroke-width:0.8;" x="65.254688" xlink:href="#mf7d53c1b60" y="276.812"/>
      </g>
     </g>
     <g id="text_1">
      <!-- 0 -->
      <defs>
       <path d="M 31.78125 66.40625 
Q 24.171875 66.40625 20.328125 58.90625 
Q 16.5 51.421875 16.5 36.375 
Q 16.5 21.390625 20.328125 13.890625 
Q 24.171875 6.390625 31.78125 6.390625 
Q 39.453125 6.390625 43.28125 13.890625 
Q 47.125 21.390625 47.125 36.375 
Q 47.125 51.421875 43.28125 58.90625 
Q 39.453125 66.40625 31.78125 66.40625 
M 31.78125 74.21875 
Q 44.046875 74.21875 50.515625 64.515625 
Q 56.984375 54.828125 56.984375 36.375 
Q 56.984375 17.96875 50.515625 8.265625 
Q 44.046875 -1.421875 31.78125 -1.421875 
Q 19.53125 -1.421875 13.0625 8.265625 
Q 6.59375 17.96875 6.59375 36.375 
Q 6.59375 54.828125 13.0625 64.515625 
Q 19.53125 74.21875 31.78125 74.21875 
" id="DejaVuSans-30"/>
      </defs>
      <g transform="translate(60.482813 295.209656)scale(0.15 -0.15)">
       <use xlink:href="#DejaVuSans-30"/>
      </g>
     </g>
    </g>
    <g id="xtick_2">
     <g id="line2d_3">
      <path clip-path="url(#pff313e8731)" d="M 116.27183 276.812 
L 116.27183 10.7 
" style="fill:none;stroke:#b0b0b0;stroke-linecap:square;stroke-width:0.8;"/>
     </g>
     <g id="line2d_4">
      <g>
       <use style="stroke:#000000;stroke-width:0.8;" x="116.27183" xlink:href="#mf7d53c1b60" y="276.812"/>
      </g>
     </g>
     <g id="text_2">
      <!-- 10 -->
      <defs>
       <path d="M 12.40625 8.296875 
L 28.515625 8.296875 
L 28.515625 63.921875 
L 10.984375 60.40625 
L 10.984375 69.390625 
L 28.421875 72.90625 
L 38.28125 72.90625 
L 38.28125 8.296875 
L 54.390625 8.296875 
L 54.390625 0 
L 12.40625 0 
z
" id="DejaVuSans-31"/>
      </defs>
      <g transform="translate(106.72808 295.209656)scale(0.15 -0.15)">
       <use xlink:href="#DejaVuSans-31"/>
       <use x="63.623047" xlink:href="#DejaVuSans-30"/>
      </g>
     </g>
    </g>
    <g id="xtick_3">
     <g id="line2d_5">
      <path clip-path="url(#pff313e8731)" d="M 167.288973 276.812 
L 167.288973 10.7 
" style="fill:none;stroke:#b0b0b0;stroke-linecap:square;stroke-width:0.8;"/>
     </g>
     <g id="line2d_6">
      <g>
       <use style="stroke:#000000;stroke-width:0.8;" x="167.288973" xlink:href="#mf7d53c1b60" y="276.812"/>
      </g>
     </g>
     <g id="text_3">
      <!-- 20 -->
      <defs>
       <path d="M 19.1875 8.296875 
L 53.609375 8.296875 
L 53.609375 0 
L 7.328125 0 
L 7.328125 8.296875 
Q 12.9375 14.109375 22.625 23.890625 
Q 32.328125 33.6875 34.8125 36.53125 
Q 39.546875 41.84375 41.421875 45.53125 
Q 43.3125 49.21875 43.3125 52.78125 
Q 43.3125 58.59375 39.234375 62.25 
Q 35.15625 65.921875 28.609375 65.921875 
Q 23.96875 65.921875 18.8125 64.3125 
Q 13.671875 62.703125 7.8125 59.421875 
L 7.8125 69.390625 
Q 13.765625 71.78125 18.9375 73 
Q 24.125 74.21875 28.421875 74.21875 
Q 39.75 74.21875 46.484375 68.546875 
Q 53.21875 62.890625 53.21875 53.421875 
Q 53.21875 48.921875 51.53125 44.890625 
Q 49.859375 40.875 45.40625 35.40625 
Q 44.1875 33.984375 37.640625 27.21875 
Q 31.109375 20.453125 19.1875 8.296875 
" id="DejaVuSans-32"/>
      </defs>
      <g transform="translate(157.745223 295.209656)scale(0.15 -0.15)">
       <use xlink:href="#DejaVuSans-32"/>
       <use x="63.623047" xlink:href="#DejaVuSans-30"/>
      </g>
     </g>
    </g>
    <g id="xtick_4">
     <g id="line2d_7">
      <path clip-path="url(#pff313e8731)" d="M 218.306116 276.812 
L 218.306116 10.7 
" style="fill:none;stroke:#b0b0b0;stroke-linecap:square;stroke-width:0.8;"/>
     </g>
     <g id="line2d_8">
      <g>
       <use style="stroke:#000000;stroke-width:0.8;" x="218.306116" xlink:href="#mf7d53c1b60" y="276.812"/>
      </g>
     </g>
     <g id="text_4">
      <!-- 30 -->
      <defs>
       <path d="M 40.578125 39.3125 
Q 47.65625 37.796875 51.625 33 
Q 55.609375 28.21875 55.609375 21.1875 
Q 55.609375 10.40625 48.1875 4.484375 
Q 40.765625 -1.421875 27.09375 -1.421875 
Q 22.515625 -1.421875 17.65625 -0.515625 
Q 12.796875 0.390625 7.625 2.203125 
L 7.625 11.71875 
Q 11.71875 9.328125 16.59375 8.109375 
Q 21.484375 6.890625 26.8125 6.890625 
Q 36.078125 6.890625 40.9375 10.546875 
Q 45.796875 14.203125 45.796875 21.1875 
Q 45.796875 27.640625 41.28125 31.265625 
Q 36.765625 34.90625 28.71875 34.90625 
L 20.21875 34.90625 
L 20.21875 43.015625 
L 29.109375 43.015625 
Q 36.375 43.015625 40.234375 45.921875 
Q 44.09375 48.828125 44.09375 54.296875 
Q 44.09375 59.90625 40.109375 62.90625 
Q 36.140625 65.921875 28.71875 65.921875 
Q 24.65625 65.921875 20.015625 65.03125 
Q 15.375 64.15625 9.8125 62.3125 
L 9.8125 71.09375 
Q 15.4375 72.65625 20.34375 73.4375 
Q 25.25 74.21875 29.59375 74.21875 
Q 40.828125 74.21875 47.359375 69.109375 
Q 53.90625 64.015625 53.90625 55.328125 
Q 53.90625 49.265625 50.4375 45.09375 
Q 46.96875 40.921875 40.578125 39.3125 
" id="DejaVuSans-33"/>
      </defs>
      <g transform="translate(208.762366 295.209656)scale(0.15 -0.15)">
       <use xlink:href="#DejaVuSans-33"/>
       <use x="63.623047" xlink:href="#DejaVuSans-30"/>
      </g>
     </g>
    </g>
    <g id="xtick_5">
     <g id="line2d_9">
      <path clip-path="url(#pff313e8731)" d="M 269.323259 276.812 
L 269.323259 10.7 
" style="fill:none;stroke:#b0b0b0;stroke-linecap:square;stroke-width:0.8;"/>
     </g>
     <g id="line2d_10">
      <g>
       <use style="stroke:#000000;stroke-width:0.8;" x="269.323259" xlink:href="#mf7d53c1b60" y="276.812"/>
      </g>
     </g>
     <g id="text_5">
      <!-- 40 -->
      <defs>
       <path d="M 37.796875 64.3125 
L 12.890625 25.390625 
L 37.796875 25.390625 
z
M 35.203125 72.90625 
L 47.609375 72.90625 
L 47.609375 25.390625 
L 58.015625 25.390625 
L 58.015625 17.1875 
L 47.609375 17.1875 
L 47.609375 0 
L 37.796875 0 
L 37.796875 17.1875 
L 4.890625 17.1875 
L 4.890625 26.703125 
z
" id="DejaVuSans-34"/>
      </defs>
      <g transform="translate(259.779509 295.209656)scale(0.15 -0.15)">
       <use xlink:href="#DejaVuSans-34"/>
       <use x="63.623047" xlink:href="#DejaVuSans-30"/>
      </g>
     </g>
    </g>
    <g id="xtick_6">
     <g id="line2d_11">
      <path clip-path="url(#pff313e8731)" d="M 320.340402 276.812 
L 320.340402 10.7 
" style="fill:none;stroke:#b0b0b0;stroke-linecap:square;stroke-width:0.8;"/>
     </g>
     <g id="line2d_12">
      <g>
       <use style="stroke:#000000;stroke-width:0.8;" x="320.340402" xlink:href="#mf7d53c1b60" y="276.812"/>
      </g>
     </g>
     <g id="text_6">
      <!-- 50 -->
      <defs>
       <path d="M 10.796875 72.90625 
L 49.515625 72.90625 
L 49.515625 64.59375 
L 19.828125 64.59375 
L 19.828125 46.734375 
Q 21.96875 47.46875 24.109375 47.828125 
Q 26.265625 48.1875 28.421875 48.1875 
Q 40.625 48.1875 47.75 41.5 
Q 54.890625 34.8125 54.890625 23.390625 
Q 54.890625 11.625 47.5625 5.09375 
Q 40.234375 -1.421875 26.90625 -1.421875 
Q 22.3125 -1.421875 17.546875 -0.640625 
Q 12.796875 0.140625 7.71875 1.703125 
L 7.71875 11.625 
Q 12.109375 9.234375 16.796875 8.0625 
Q 21.484375 6.890625 26.703125 6.890625 
Q 35.15625 6.890625 40.078125 11.328125 
Q 45.015625 15.765625 45.015625 23.390625 
Q 45.015625 31 40.078125 35.4375 
Q 35.15625 39.890625 26.703125 39.890625 
Q 22.75 39.890625 18.8125 39.015625 
Q 14.890625 38.140625 10.796875 36.28125 
z
" id="DejaVuSans-35"/>
      </defs>
      <g transform="translate(310.796652 295.209656)scale(0.15 -0.15)">
       <use xlink:href="#DejaVuSans-35"/>
       <use x="63.623047" xlink:href="#DejaVuSans-30"/>
      </g>
     </g>
    </g>
    <g id="xtick_7">
     <g id="line2d_13">
      <path clip-path="url(#pff313e8731)" d="M 371.357545 276.812 
L 371.357545 10.7 
" style="fill:none;stroke:#b0b0b0;stroke-linecap:square;stroke-width:0.8;"/>
     </g>
     <g id="line2d_14">
      <g>
       <use style="stroke:#000000;stroke-width:0.8;" x="371.357545" xlink:href="#mf7d53c1b60" y="276.812"/>
      </g>
     </g>
     <g id="text_7">
      <!-- 60 -->
      <defs>
       <path d="M 33.015625 40.375 
Q 26.375 40.375 22.484375 35.828125 
Q 18.609375 31.296875 18.609375 23.390625 
Q 18.609375 15.53125 22.484375 10.953125 
Q 26.375 6.390625 33.015625 6.390625 
Q 39.65625 6.390625 43.53125 10.953125 
Q 47.40625 15.53125 47.40625 23.390625 
Q 47.40625 31.296875 43.53125 35.828125 
Q 39.65625 40.375 33.015625 40.375 
M 52.59375 71.296875 
L 52.59375 62.3125 
Q 48.875 64.0625 45.09375 64.984375 
Q 41.3125 65.921875 37.59375 65.921875 
Q 27.828125 65.921875 22.671875 59.328125 
Q 17.53125 52.734375 16.796875 39.40625 
Q 19.671875 43.65625 24.015625 45.921875 
Q 28.375 48.1875 33.59375 48.1875 
Q 44.578125 48.1875 50.953125 41.515625 
Q 57.328125 34.859375 57.328125 23.390625 
Q 57.328125 12.15625 50.6875 5.359375 
Q 44.046875 -1.421875 33.015625 -1.421875 
Q 20.359375 -1.421875 13.671875 8.265625 
Q 6.984375 17.96875 6.984375 36.375 
Q 6.984375 53.65625 15.1875 63.9375 
Q 23.390625 74.21875 37.203125 74.21875 
Q 40.921875 74.21875 44.703125 73.484375 
Q 48.484375 72.75 52.59375 71.296875 
" id="DejaVuSans-36"/>
      </defs>
      <g transform="translate(361.813795 295.209656)scale(0.15 -0.15)">
       <use xlink:href="#DejaVuSans-36"/>
       <use x="63.623047" xlink:href="#DejaVuSans-30"/>
      </g>
     </g>
    </g>
    <g id="xtick_8">
     <g id="line2d_15">
      <path clip-path="url(#pff313e8731)" d="M 422.374688 276.812 
L 422.374688 10.7 
" style="fill:none;stroke:#b0b0b0;stroke-linecap:square;stroke-width:0.8;"/>
     </g>
     <g id="line2d_16">
      <g>
       <use style="stroke:#000000;stroke-width:0.8;" x="422.374688" xlink:href="#mf7d53c1b60" y="276.812"/>
      </g>
     </g>
     <g id="text_8">
      <!-- 70 -->
      <defs>
       <path d="M 8.203125 72.90625 
L 55.078125 72.90625 
L 55.078125 68.703125 
L 28.609375 0 
L 18.3125 0 
L 43.21875 64.59375 
L 8.203125 64.59375 
z
" id="DejaVuSans-37"/>
      </defs>
      <g transform="translate(412.830938 295.209656)scale(0.15 -0.15)">
       <use xlink:href="#DejaVuSans-37"/>
       <use x="63.623047" xlink:href="#DejaVuSans-30"/>
      </g>
     </g>
    </g>
    <g id="text_9">
     <!-- Vibrational state -->
     <defs>
      <path d="M 28.609375 0 
L 0.78125 72.90625 
L 11.078125 72.90625 
L 34.1875 11.53125 
L 57.328125 72.90625 
L 67.578125 72.90625 
L 39.796875 0 
z
" id="DejaVuSans-56"/>
      <path d="M 9.421875 54.6875 
L 18.40625 54.6875 
L 18.40625 0 
L 9.421875 0 
z
M 9.421875 75.984375 
L 18.40625 75.984375 
L 18.40625 64.59375 
L 9.421875 64.59375 
z
" id="DejaVuSans-69"/>
      <path d="M 48.6875 27.296875 
Q 48.6875 37.203125 44.609375 42.84375 
Q 40.53125 48.484375 33.40625 48.484375 
Q 26.265625 48.484375 22.1875 42.84375 
Q 18.109375 37.203125 18.109375 27.296875 
Q 18.109375 17.390625 22.1875 11.75 
Q 26.265625 6.109375 33.40625 6.109375 
Q 40.53125 6.109375 44.609375 11.75 
Q 48.6875 17.390625 48.6875 27.296875 
M 18.109375 46.390625 
Q 20.953125 51.265625 25.265625 53.625 
Q 29.59375 56 35.59375 56 
Q 45.5625 56 51.78125 48.09375 
Q 58.015625 40.1875 58.015625 27.296875 
Q 58.015625 14.40625 51.78125 6.484375 
Q 45.5625 -1.421875 35.59375 -1.421875 
Q 29.59375 -1.421875 25.265625 0.953125 
Q 20.953125 3.328125 18.109375 8.203125 
L 18.109375 0 
L 9.078125 0 
L 9.078125 75.984375 
L 18.109375 75.984375 
z
" id="DejaVuSans-62"/>
      <path d="M 41.109375 46.296875 
Q 39.59375 47.171875 37.8125 47.578125 
Q 36.03125 48 33.890625 48 
Q 26.265625 48 22.1875 43.046875 
Q 18.109375 38.09375 18.109375 28.8125 
L 18.109375 0 
L 9.078125 0 
L 9.078125 54.6875 
L 18.109375 54.6875 
L 18.109375 46.1875 
Q 20.953125 51.171875 25.484375 53.578125 
Q 30.03125 56 36.53125 56 
Q 37.453125 56 38.578125 55.875 
Q 39.703125 55.765625 41.0625 55.515625 
z
" id="DejaVuSans-72"/>
      <path d="M 34.28125 27.484375 
Q 23.390625 27.484375 19.1875 25 
Q 14.984375 22.515625 14.984375 16.5 
Q 14.984375 11.71875 18.140625 8.90625 
Q 21.296875 6.109375 26.703125 6.109375 
Q 34.1875 6.109375 38.703125 11.40625 
Q 43.21875 16.703125 43.21875 25.484375 
L 43.21875 27.484375 
z
M 52.203125 31.203125 
L 52.203125 0 
L 43.21875 0 
L 43.21875 8.296875 
Q 40.140625 3.328125 35.546875 0.953125 
Q 30.953125 -1.421875 24.3125 -1.421875 
Q 15.921875 -1.421875 10.953125 3.296875 
Q 6 8.015625 6 15.921875 
Q 6 25.140625 12.171875 29.828125 
Q 18.359375 34.515625 30.609375 34.515625 
L 43.21875 34.515625 
L 43.21875 35.40625 
Q 43.21875 41.609375 39.140625 45 
Q 35.0625 48.390625 27.6875 48.390625 
Q 23 48.390625 18.546875 47.265625 
Q 14.109375 46.140625 10.015625 43.890625 
L 10.015625 52.203125 
Q 14.9375 54.109375 19.578125 55.046875 
Q 24.21875 56 28.609375 56 
Q 40.484375 56 46.34375 49.84375 
Q 52.203125 43.703125 52.203125 31.203125 
" id="DejaVuSans-61"/>
      <path d="M 18.3125 70.21875 
L 18.3125 54.6875 
L 36.8125 54.6875 
L 36.8125 47.703125 
L 18.3125 47.703125 
L 18.3125 18.015625 
Q 18.3125 11.328125 20.140625 9.421875 
Q 21.96875 7.515625 27.59375 7.515625 
L 36.8125 7.515625 
L 36.8125 0 
L 27.59375 0 
Q 17.1875 0 13.234375 3.875 
Q 9.28125 7.765625 9.28125 18.015625 
L 9.28125 47.703125 
L 2.6875 47.703125 
L 2.6875 54.6875 
L 9.28125 54.6875 
L 9.28125 70.21875 
z
" id="DejaVuSans-74"/>
      <path d="M 30.609375 48.390625 
Q 23.390625 48.390625 19.1875 42.75 
Q 14.984375 37.109375 14.984375 27.296875 
Q 14.984375 17.484375 19.15625 11.84375 
Q 23.34375 6.203125 30.609375 6.203125 
Q 37.796875 6.203125 41.984375 11.859375 
Q 46.1875 17.53125 46.1875 27.296875 
Q 46.1875 37.015625 41.984375 42.703125 
Q 37.796875 48.390625 30.609375 48.390625 
M 30.609375 56 
Q 42.328125 56 49.015625 48.375 
Q 55.71875 40.765625 55.71875 27.296875 
Q 55.71875 13.875 49.015625 6.21875 
Q 42.328125 -1.421875 30.609375 -1.421875 
Q 18.84375 -1.421875 12.171875 6.21875 
Q 5.515625 13.875 5.515625 27.296875 
Q 5.515625 40.765625 12.171875 48.375 
Q 18.84375 56 30.609375 56 
" id="DejaVuSans-6f"/>
      <path d="M 54.890625 33.015625 
L 54.890625 0 
L 45.90625 0 
L 45.90625 32.71875 
Q 45.90625 40.484375 42.875 44.328125 
Q 39.84375 48.1875 33.796875 48.1875 
Q 26.515625 48.1875 22.3125 43.546875 
Q 18.109375 38.921875 18.109375 30.90625 
L 18.109375 0 
L 9.078125 0 
L 9.078125 54.6875 
L 18.109375 54.6875 
L 18.109375 46.1875 
Q 21.34375 51.125 25.703125 53.5625 
Q 30.078125 56 35.796875 56 
Q 45.21875 56 50.046875 50.171875 
Q 54.890625 44.34375 54.890625 33.015625 
" id="DejaVuSans-6e"/>
      <path d="M 9.421875 75.984375 
L 18.40625 75.984375 
L 18.40625 0 
L 9.421875 0 
z
" id="DejaVuSans-6c"/>
      <path id="DejaVuSans-20"/>
      <path d="M 44.28125 53.078125 
L 44.28125 44.578125 
Q 40.484375 46.53125 36.375 47.5 
Q 32.28125 48.484375 27.875 48.484375 
Q 21.1875 48.484375 17.84375 46.4375 
Q 14.5 44.390625 14.5 40.28125 
Q 14.5 37.15625 16.890625 35.375 
Q 19.28125 33.59375 26.515625 31.984375 
L 29.59375 31.296875 
Q 39.15625 29.25 43.1875 25.515625 
Q 47.21875 21.78125 47.21875 15.09375 
Q 47.21875 7.46875 41.1875 3.015625 
Q 35.15625 -1.421875 24.609375 -1.421875 
Q 20.21875 -1.421875 15.453125 -0.5625 
Q 10.6875 0.296875 5.421875 2 
L 5.421875 11.28125 
Q 10.40625 8.6875 15.234375 7.390625 
Q 20.0625 6.109375 24.8125 6.109375 
Q 31.15625 6.109375 34.5625 8.28125 
Q 37.984375 10.453125 37.984375 14.40625 
Q 37.984375 18.0625 35.515625 20.015625 
Q 33.0625 21.96875 24.703125 23.78125 
L 21.578125 24.515625 
Q 13.234375 26.265625 9.515625 29.90625 
Q 5.8125 33.546875 5.8125 39.890625 
Q 5.8125 47.609375 11.28125 51.796875 
Q 16.75 56 26.8125 56 
Q 31.78125 56 36.171875 55.265625 
Q 40.578125 54.546875 44.28125 53.078125 
" id="DejaVuSans-73"/>
      <path d="M 56.203125 29.59375 
L 56.203125 25.203125 
L 14.890625 25.203125 
Q 15.484375 15.921875 20.484375 11.0625 
Q 25.484375 6.203125 34.421875 6.203125 
Q 39.59375 6.203125 44.453125 7.46875 
Q 49.3125 8.734375 54.109375 11.28125 
L 54.109375 2.78125 
Q 49.265625 0.734375 44.1875 -0.34375 
Q 39.109375 -1.421875 33.890625 -1.421875 
Q 20.796875 -1.421875 13.15625 6.1875 
Q 5.515625 13.8125 5.515625 26.8125 
Q 5.515625 40.234375 12.765625 48.109375 
Q 20.015625 56 32.328125 56 
Q 43.359375 56 49.78125 48.890625 
Q 56.203125 41.796875 56.203125 29.59375 
M 47.21875 32.234375 
Q 47.125 39.59375 43.09375 43.984375 
Q 39.0625 48.390625 32.421875 48.390625 
Q 24.90625 48.390625 20.390625 44.140625 
Q 15.875 39.890625 15.1875 32.171875 
z
" id="DejaVuSans-65"/>
     </defs>
     <g transform="translate(161.04125 317.526062)scale(0.2 -0.2)">
      <use xlink:href="#DejaVuSans-56"/>
      <use x="68.376953" xlink:href="#DejaVuSans-69"/>
      <use x="96.160156" xlink:href="#DejaVuSans-62"/>
      <use x="159.636719" xlink:href="#DejaVuSans-72"/>
      <use x="200.75" xlink:href="#DejaVuSans-61"/>
      <use x="262.029297" xlink:href="#DejaVuSans-74"/>
      <use x="301.238281" xlink:href="#DejaVuSans-69"/>
      <use x="329.021484" xlink:href="#DejaVuSans-6f"/>
      <use x="390.203125" xlink:href="#DejaVuSans-6e"/>
      <use x="453.582031" xlink:href="#DejaVuSans-61"/>
      <use x="514.861328" xlink:href="#DejaVuSans-6c"/>
      <use x="542.644531" xlink:href="#DejaVuSans-20"/>
      <use x="574.431641" xlink:href="#DejaVuSans-73"/>
      <use x="626.53125" xlink:href="#DejaVuSans-74"/>
      <use x="665.740234" xlink:href="#DejaVuSans-61"/>
      <use x="727.019531" xlink:href="#DejaVuSans-74"/>
      <use x="766.228516" xlink:href="#DejaVuSans-65"/>
     </g>
    </g>
   </g>
   <g id="matplotlib.axis_2">
    <g id="ytick_1">
     <g id="line2d_17">
      <path clip-path="url(#pff313e8731)" d="M 65.254688 276.812 
L 422.374688 276.812 
" style="fill:none;stroke:#b0b0b0;stroke-linecap:square;stroke-width:0.8;"/>
     </g>
     <g id="line2d_18">
      <defs>
       <path d="M 0 0 
L -3.5 0 
" id="md483082691" style="stroke:#000000;stroke-width:0.8;"/>
      </defs>
      <g>
       <use style="stroke:#000000;stroke-width:0.8;" x="65.254688" xlink:href="#md483082691" y="276.812"/>
      </g>
     </g>
     <g id="text_10">
      <!-- 0.0 -->
      <defs>
       <path d="M 10.6875 12.40625 
L 21 12.40625 
L 21 0 
L 10.6875 0 
z
" id="DejaVuSans-2e"/>
      </defs>
      <g transform="translate(34.4 282.510828)scale(0.15 -0.15)">
       <use xlink:href="#DejaVuSans-30"/>
       <use x="63.623047" xlink:href="#DejaVuSans-2e"/>
       <use x="95.410156" xlink:href="#DejaVuSans-30"/>
      </g>
     </g>
    </g>
    <g id="ytick_2">
     <g id="line2d_19">
      <path clip-path="url(#pff313e8731)" d="M 65.254688 243.126937 
L 422.374688 243.126937 
" style="fill:none;stroke:#b0b0b0;stroke-linecap:square;stroke-width:0.8;"/>
     </g>
     <g id="line2d_20">
      <g>
       <use style="stroke:#000000;stroke-width:0.8;" x="65.254688" xlink:href="#md483082691" y="243.126937"/>
      </g>
     </g>
     <g id="text_11">
      <!-- 0.1 -->
      <g transform="translate(34.4 248.825765)scale(0.15 -0.15)">
       <use xlink:href="#DejaVuSans-30"/>
       <use x="63.623047" xlink:href="#DejaVuSans-2e"/>
       <use x="95.410156" xlink:href="#DejaVuSans-31"/>
      </g>
     </g>
    </g>
    <g id="ytick_3">
     <g id="line2d_21">
      <path clip-path="url(#pff313e8731)" d="M 65.254688 209.441873 
L 422.374688 209.441873 
" style="fill:none;stroke:#b0b0b0;stroke-linecap:square;stroke-width:0.8;"/>
     </g>
     <g id="line2d_22">
      <g>
       <use style="stroke:#000000;stroke-width:0.8;" x="65.254688" xlink:href="#md483082691" y="209.441873"/>
      </g>
     </g>
     <g id="text_12">
      <!-- 0.2 -->
      <g transform="translate(34.4 215.140702)scale(0.15 -0.15)">
       <use xlink:href="#DejaVuSans-30"/>
       <use x="63.623047" xlink:href="#DejaVuSans-2e"/>
       <use x="95.410156" xlink:href="#DejaVuSans-32"/>
      </g>
     </g>
    </g>
    <g id="ytick_4">
     <g id="line2d_23">
      <path clip-path="url(#pff313e8731)" d="M 65.254688 175.75681 
L 422.374688 175.75681 
" style="fill:none;stroke:#b0b0b0;stroke-linecap:square;stroke-width:0.8;"/>
     </g>
     <g id="line2d_24">
      <g>
       <use style="stroke:#000000;stroke-width:0.8;" x="65.254688" xlink:href="#md483082691" y="175.75681"/>
      </g>
     </g>
     <g id="text_13">
      <!-- 0.3 -->
      <g transform="translate(34.4 181.455638)scale(0.15 -0.15)">
       <use xlink:href="#DejaVuSans-30"/>
       <use x="63.623047" xlink:href="#DejaVuSans-2e"/>
       <use x="95.410156" xlink:href="#DejaVuSans-33"/>
      </g>
     </g>
    </g>
    <g id="ytick_5">
     <g id="line2d_25">
      <path clip-path="url(#pff313e8731)" d="M 65.254688 142.071747 
L 422.374688 142.071747 
" style="fill:none;stroke:#b0b0b0;stroke-linecap:square;stroke-width:0.8;"/>
     </g>
     <g id="line2d_26">
      <g>
       <use style="stroke:#000000;stroke-width:0.8;" x="65.254688" xlink:href="#md483082691" y="142.071747"/>
      </g>
     </g>
     <g id="text_14">
      <!-- 0.4 -->
      <g transform="translate(34.4 147.770575)scale(0.15 -0.15)">
       <use xlink:href="#DejaVuSans-30"/>
       <use x="63.623047" xlink:href="#DejaVuSans-2e"/>
       <use x="95.410156" xlink:href="#DejaVuSans-34"/>
      </g>
     </g>
    </g>
    <g id="ytick_6">
     <g id="line2d_27">
      <path clip-path="url(#pff313e8731)" d="M 65.254688 108.386684 
L 422.374688 108.386684 
" style="fill:none;stroke:#b0b0b0;stroke-linecap:square;stroke-width:0.8;"/>
     </g>
     <g id="line2d_28">
      <g>
       <use style="stroke:#000000;stroke-width:0.8;" x="65.254688" xlink:href="#md483082691" y="108.386684"/>
      </g>
     </g>
     <g id="text_15">
      <!-- 0.5 -->
      <g transform="translate(34.4 114.085512)scale(0.15 -0.15)">
       <use xlink:href="#DejaVuSans-30"/>
       <use x="63.623047" xlink:href="#DejaVuSans-2e"/>
       <use x="95.410156" xlink:href="#DejaVuSans-35"/>
      </g>
     </g>
    </g>
    <g id="ytick_7">
     <g id="line2d_29">
      <path clip-path="url(#pff313e8731)" d="M 65.254688 74.70162 
L 422.374688 74.70162 
" style="fill:none;stroke:#b0b0b0;stroke-linecap:square;stroke-width:0.8;"/>
     </g>
     <g id="line2d_30">
      <g>
       <use style="stroke:#000000;stroke-width:0.8;" x="65.254688" xlink:href="#md483082691" y="74.70162"/>
      </g>
     </g>
     <g id="text_16">
      <!-- 0.6 -->
      <g transform="translate(34.4 80.400448)scale(0.15 -0.15)">
       <use xlink:href="#DejaVuSans-30"/>
       <use x="63.623047" xlink:href="#DejaVuSans-2e"/>
       <use x="95.410156" xlink:href="#DejaVuSans-36"/>
      </g>
     </g>
    </g>
    <g id="ytick_8">
     <g id="line2d_31">
      <path clip-path="url(#pff313e8731)" d="M 65.254688 41.016557 
L 422.374688 41.016557 
" style="fill:none;stroke:#b0b0b0;stroke-linecap:square;stroke-width:0.8;"/>
     </g>
     <g id="line2d_32">
      <g>
       <use style="stroke:#000000;stroke-width:0.8;" x="65.254688" xlink:href="#md483082691" y="41.016557"/>
      </g>
     </g>
     <g id="text_17">
      <!-- 0.7 -->
      <g transform="translate(34.4 46.715385)scale(0.15 -0.15)">
       <use xlink:href="#DejaVuSans-30"/>
       <use x="63.623047" xlink:href="#DejaVuSans-2e"/>
       <use x="95.410156" xlink:href="#DejaVuSans-37"/>
      </g>
     </g>
    </g>
    <g id="text_18">
     <!-- $|\langle n |e^{ikr}| n + \Delta n \rangle|$ -->
     <defs>
      <path d="M 21 76.421875 
L 21 -23.578125 
L 12.703125 -23.578125 
L 12.703125 76.421875 
z
" id="DejaVuSans-7c"/>
      <path d="M 8.9375 31.34375 
L 22.703125 75.875 
L 31 75.875 
L 17.234375 31.34375 
L 31 -13.1875 
L 22.703125 -13.1875 
z
" id="DejaVuSans-27e8"/>
      <path d="M 55.71875 33.015625 
L 49.3125 0 
L 40.28125 0 
L 46.6875 32.671875 
Q 47.125 34.96875 47.359375 36.71875 
Q 47.609375 38.484375 47.609375 39.5 
Q 47.609375 43.609375 45.015625 45.890625 
Q 42.4375 48.1875 37.796875 48.1875 
Q 30.5625 48.1875 25.34375 43.375 
Q 20.125 38.578125 18.5 30.328125 
L 12.5 0 
L 3.515625 0 
L 14.109375 54.6875 
L 23.09375 54.6875 
L 21.296875 46.09375 
Q 25.046875 50.828125 30.3125 53.40625 
Q 35.59375 56 41.40625 56 
Q 48.640625 56 52.609375 52.09375 
Q 56.59375 48.1875 56.59375 41.109375 
Q 56.59375 39.359375 56.375 37.359375 
Q 56.15625 35.359375 55.71875 33.015625 
" id="DejaVuSans-Oblique-6e"/>
      <path d="M 48.09375 32.234375 
Q 48.25 33.015625 48.3125 33.84375 
Q 48.390625 34.671875 48.390625 35.5 
Q 48.390625 41.453125 44.890625 44.921875 
Q 41.40625 48.390625 35.40625 48.390625 
Q 28.71875 48.390625 23.578125 44.15625 
Q 18.453125 39.9375 15.828125 32.171875 
z
M 55.90625 25.203125 
L 14.109375 25.203125 
Q 13.8125 23.34375 13.71875 22.265625 
Q 13.625 21.1875 13.625 20.40625 
Q 13.625 13.625 17.796875 9.90625 
Q 21.96875 6.203125 29.59375 6.203125 
Q 35.453125 6.203125 40.671875 7.515625 
Q 45.90625 8.84375 50.390625 11.375 
L 48.6875 2.484375 
Q 43.84375 0.53125 38.6875 -0.4375 
Q 33.546875 -1.421875 28.21875 -1.421875 
Q 16.84375 -1.421875 10.71875 4.015625 
Q 4.59375 9.46875 4.59375 19.484375 
Q 4.59375 28.03125 7.640625 35.375 
Q 10.6875 42.71875 16.609375 48.484375 
Q 20.40625 52.09375 25.65625 54.046875 
Q 30.90625 56 36.8125 56 
Q 46.09375 56 51.578125 50.4375 
Q 57.078125 44.875 57.078125 35.5 
Q 57.078125 33.25 56.78125 30.6875 
Q 56.5 28.125 55.90625 25.203125 
" id="DejaVuSans-Oblique-65"/>
      <path d="M 18.3125 75.984375 
L 27.296875 75.984375 
L 25.09375 64.59375 
L 16.109375 64.59375 
z
M 14.203125 54.6875 
L 23.1875 54.6875 
L 12.5 0 
L 3.515625 0 
z
" id="DejaVuSans-Oblique-69"/>
      <path d="M 18.3125 75.984375 
L 27.296875 75.984375 
L 18.703125 31.6875 
L 49.515625 54.6875 
L 61.1875 54.6875 
L 26.8125 28.515625 
L 51.90625 0 
L 41.015625 0 
L 17.671875 26.703125 
L 12.5 0 
L 3.515625 0 
z
" id="DejaVuSans-Oblique-6b"/>
      <path d="M 44.578125 46.390625 
Q 43.21875 47.125 41.453125 47.515625 
Q 39.703125 47.90625 37.703125 47.90625 
Q 30.515625 47.90625 25.140625 42.453125 
Q 19.78125 37.015625 18.015625 27.875 
L 12.5 0 
L 3.515625 0 
L 14.203125 54.6875 
L 23.1875 54.6875 
L 21.484375 46.1875 
Q 25.046875 50.921875 30 53.453125 
Q 34.96875 56 40.578125 56 
Q 42.046875 56 43.453125 55.828125 
Q 44.875 55.671875 46.296875 55.28125 
z
" id="DejaVuSans-Oblique-72"/>
      <path d="M 46 62.703125 
L 46 35.5 
L 73.1875 35.5 
L 73.1875 27.203125 
L 46 27.203125 
L 46 0 
L 37.796875 0 
L 37.796875 27.203125 
L 10.59375 27.203125 
L 10.59375 35.5 
L 37.796875 35.5 
L 37.796875 62.703125 
z
" id="DejaVuSans-2b"/>
      <path d="M 34.1875 63.1875 
L 14.15625 8.203125 
L 54.25 8.203125 
z
M 0.78125 0 
L 28.609375 72.90625 
L 39.796875 72.90625 
L 67.578125 0 
z
" id="DejaVuSans-394"/>
      <path d="M 30.078125 31.34375 
L 16.3125 -13.1875 
L 8.015625 -13.1875 
L 21.78125 31.34375 
L 8.015625 75.875 
L 16.3125 75.875 
z
" id="DejaVuSans-27e9"/>
     </defs>
     <g transform="translate(25.6 218.956)rotate(-90)scale(0.2 -0.2)">
      <use transform="translate(0 0.529687)" xlink:href="#DejaVuSans-7c"/>
      <use transform="translate(33.691406 0.529687)" xlink:href="#DejaVuSans-27e8"/>
      <use transform="translate(72.705078 0.529687)" xlink:href="#DejaVuSans-Oblique-6e"/>
      <use transform="translate(136.083984 0.529687)" xlink:href="#DejaVuSans-7c"/>
      <use transform="translate(169.775391 0.529687)" xlink:href="#DejaVuSans-Oblique-65"/>
      <use transform="translate(235.948724 38.810937)scale(0.7)" xlink:href="#DejaVuSans-Oblique-69"/>
      <use transform="translate(255.396966 38.810937)scale(0.7)" xlink:href="#DejaVuSans-Oblique-6b"/>
      <use transform="translate(295.934076 38.810937)scale(0.7)" xlink:href="#DejaVuSans-Oblique-72"/>
      <use transform="translate(327.447747 0.529687)" xlink:href="#DejaVuSans-7c"/>
      <use transform="translate(361.139154 0.529687)" xlink:href="#DejaVuSans-Oblique-6e"/>
      <use transform="translate(444.000482 0.529687)" xlink:href="#DejaVuSans-2b"/>
      <use transform="translate(547.271966 0.529687)" xlink:href="#DejaVuSans-394"/>
      <use transform="translate(615.680169 0.529687)" xlink:href="#DejaVuSans-Oblique-6e"/>
      <use transform="translate(679.059076 0.529687)" xlink:href="#DejaVuSans-27e9"/>
      <use transform="translate(718.072747 0.529687)" xlink:href="#DejaVuSans-7c"/>
     </g>
    </g>
   </g>
   <g id="line2d_33">
    <path clip-path="url(#pff313e8731)" d="M 65.254688 276.812 
L 70.356402 144.282808 
L 75.458116 106.867999 
L 80.55983 88.75202 
L 85.661545 81.377747 
L 90.763259 81.030854 
L 95.864973 85.605166 
L 100.966688 93.734497 
L 106.068402 104.458853 
L 111.170116 117.067863 
L 116.27183 131.017116 
L 121.373545 145.879089 
L 126.475259 161.312269 
L 131.576973 177.040612 
L 136.678688 192.839267 
L 141.780402 208.524279 
L 146.882116 223.944932 
L 151.98383 238.977909 
L 157.085545 253.522737 
L 162.187259 267.49817 
L 167.288973 272.784739 
L 172.390688 260.129027 
L 177.492402 248.197814 
L 182.594116 237.019963 
L 187.69583 226.615491 
L 192.797545 216.996773 
L 197.899259 208.169572 
L 203.000973 200.133934 
L 208.102688 192.884965 
L 213.204402 186.413512 
L 218.306116 180.706754 
L 223.40783 175.748731 
L 228.509545 171.520805 
L 233.611259 168.002072 
L 238.712973 165.169726 
L 243.814688 162.999382 
L 248.916402 161.465366 
L 254.018116 160.540971 
L 259.11983 160.198688 
L 264.221545 160.410409 
L 269.323259 161.147612 
L 274.424973 162.381522 
L 279.526688 164.083257 
L 284.628402 166.22396 
L 289.730116 168.774911 
L 294.83183 171.707629 
L 299.933545 174.993966 
L 305.035259 178.606184 
L 310.136973 182.517028 
L 315.238688 186.699784 
L 320.340402 191.128335 
L 325.442116 195.777208 
L 330.54383 200.621613 
L 335.645545 205.637476 
L 340.747259 210.801471 
L 345.848973 216.091037 
L 350.950688 221.484405 
L 356.052402 226.960606 
L 361.154116 232.499487 
L 366.25583 238.081715 
L 371.357545 243.688783 
L 376.459259 249.303015 
L 381.560973 254.907558 
L 386.662688 260.486386 
L 391.764402 266.024292 
L 396.866116 271.50688 
L 401.96783 276.703444 
L 407.069545 271.37148 
L 412.171259 266.133246 
L 417.272973 260.999994 
L 422.374688 255.982222 
" style="fill:none;stroke:#1f77b4;stroke-linecap:square;stroke-width:1.5;"/>
    <defs>
     <path d="M 0 1.5 
C 0.397805 1.5 0.77937 1.341951 1.06066 1.06066 
C 1.341951 0.77937 1.5 0.397805 1.5 0 
C 1.5 -0.397805 1.341951 -0.77937 1.06066 -1.06066 
C 0.77937 -1.341951 0.397805 -1.5 0 -1.5 
C -0.397805 -1.5 -0.77937 -1.341951 -1.06066 -1.06066 
C -1.341951 -0.77937 -1.5 -0.397805 -1.5 0 
C -1.5 0.397805 -1.341951 0.77937 -1.06066 1.06066 
C -0.77937 1.341951 -0.397805 1.5 0 1.5 
z
" id="m6025152903" style="stroke:#1f77b4;"/>
    </defs>
    <g clip-path="url(#pff313e8731)">
     <use style="fill:#1f77b4;stroke:#1f77b4;" x="65.254688" xlink:href="#m6025152903" y="276.812"/>
     <use style="fill:#1f77b4;stroke:#1f77b4;" x="70.356402" xlink:href="#m6025152903" y="144.282808"/>
     <use style="fill:#1f77b4;stroke:#1f77b4;" x="75.458116" xlink:href="#m6025152903" y="106.867999"/>
     <use style="fill:#1f77b4;stroke:#1f77b4;" x="80.55983" xlink:href="#m6025152903" y="88.75202"/>
     <use style="fill:#1f77b4;stroke:#1f77b4;" x="85.661545" xlink:href="#m6025152903" y="81.377747"/>
     <use style="fill:#1f77b4;stroke:#1f77b4;" x="90.763259" xlink:href="#m6025152903" y="81.030854"/>
     <use style="fill:#1f77b4;stroke:#1f77b4;" x="95.864973" xlink:href="#m6025152903" y="85.605166"/>
     <use style="fill:#1f77b4;stroke:#1f77b4;" x="100.966688" xlink:href="#m6025152903" y="93.734497"/>
     <use style="fill:#1f77b4;stroke:#1f77b4;" x="106.068402" xlink:href="#m6025152903" y="104.458853"/>
     <use style="fill:#1f77b4;stroke:#1f77b4;" x="111.170116" xlink:href="#m6025152903" y="117.067863"/>
     <use style="fill:#1f77b4;stroke:#1f77b4;" x="116.27183" xlink:href="#m6025152903" y="131.017116"/>
     <use style="fill:#1f77b4;stroke:#1f77b4;" x="121.373545" xlink:href="#m6025152903" y="145.879089"/>
     <use style="fill:#1f77b4;stroke:#1f77b4;" x="126.475259" xlink:href="#m6025152903" y="161.312269"/>
     <use style="fill:#1f77b4;stroke:#1f77b4;" x="131.576973" xlink:href="#m6025152903" y="177.040612"/>
     <use style="fill:#1f77b4;stroke:#1f77b4;" x="136.678688" xlink:href="#m6025152903" y="192.839267"/>
     <use style="fill:#1f77b4;stroke:#1f77b4;" x="141.780402" xlink:href="#m6025152903" y="208.524279"/>
     <use style="fill:#1f77b4;stroke:#1f77b4;" x="146.882116" xlink:href="#m6025152903" y="223.944932"/>
     <use style="fill:#1f77b4;stroke:#1f77b4;" x="151.98383" xlink:href="#m6025152903" y="238.977909"/>
     <use style="fill:#1f77b4;stroke:#1f77b4;" x="157.085545" xlink:href="#m6025152903" y="253.522737"/>
     <use style="fill:#1f77b4;stroke:#1f77b4;" x="162.187259" xlink:href="#m6025152903" y="267.49817"/>
     <use style="fill:#1f77b4;stroke:#1f77b4;" x="167.288973" xlink:href="#m6025152903" y="272.784739"/>
     <use style="fill:#1f77b4;stroke:#1f77b4;" x="172.390688" xlink:href="#m6025152903" y="260.129027"/>
     <use style="fill:#1f77b4;stroke:#1f77b4;" x="177.492402" xlink:href="#m6025152903" y="248.197814"/>
     <use style="fill:#1f77b4;stroke:#1f77b4;" x="182.594116" xlink:href="#m6025152903" y="237.019963"/>
     <use style="fill:#1f77b4;stroke:#1f77b4;" x="187.69583" xlink:href="#m6025152903" y="226.615491"/>
     <use style="fill:#1f77b4;stroke:#1f77b4;" x="192.797545" xlink:href="#m6025152903" y="216.996773"/>
     <use style="fill:#1f77b4;stroke:#1f77b4;" x="197.899259" xlink:href="#m6025152903" y="208.169572"/>
     <use style="fill:#1f77b4;stroke:#1f77b4;" x="203.000973" xlink:href="#m6025152903" y="200.133934"/>
     <use style="fill:#1f77b4;stroke:#1f77b4;" x="208.102688" xlink:href="#m6025152903" y="192.884965"/>
     <use style="fill:#1f77b4;stroke:#1f77b4;" x="213.204402" xlink:href="#m6025152903" y="186.413512"/>
     <use style="fill:#1f77b4;stroke:#1f77b4;" x="218.306116" xlink:href="#m6025152903" y="180.706754"/>
     <use style="fill:#1f77b4;stroke:#1f77b4;" x="223.40783" xlink:href="#m6025152903" y="175.748731"/>
     <use style="fill:#1f77b4;stroke:#1f77b4;" x="228.509545" xlink:href="#m6025152903" y="171.520805"/>
     <use style="fill:#1f77b4;stroke:#1f77b4;" x="233.611259" xlink:href="#m6025152903" y="168.002072"/>
     <use style="fill:#1f77b4;stroke:#1f77b4;" x="238.712973" xlink:href="#m6025152903" y="165.169726"/>
     <use style="fill:#1f77b4;stroke:#1f77b4;" x="243.814688" xlink:href="#m6025152903" y="162.999382"/>
     <use style="fill:#1f77b4;stroke:#1f77b4;" x="248.916402" xlink:href="#m6025152903" y="161.465366"/>
     <use style="fill:#1f77b4;stroke:#1f77b4;" x="254.018116" xlink:href="#m6025152903" y="160.540971"/>
     <use style="fill:#1f77b4;stroke:#1f77b4;" x="259.11983" xlink:href="#m6025152903" y="160.198688"/>
     <use style="fill:#1f77b4;stroke:#1f77b4;" x="264.221545" xlink:href="#m6025152903" y="160.410409"/>
     <use style="fill:#1f77b4;stroke:#1f77b4;" x="269.323259" xlink:href="#m6025152903" y="161.147612"/>
     <use style="fill:#1f77b4;stroke:#1f77b4;" x="274.424973" xlink:href="#m6025152903" y="162.381522"/>
     <use style="fill:#1f77b4;stroke:#1f77b4;" x="279.526688" xlink:href="#m6025152903" y="164.083257"/>
     <use style="fill:#1f77b4;stroke:#1f77b4;" x="284.628402" xlink:href="#m6025152903" y="166.22396"/>
     <use style="fill:#1f77b4;stroke:#1f77b4;" x="289.730116" xlink:href="#m6025152903" y="168.774911"/>
     <use style="fill:#1f77b4;stroke:#1f77b4;" x="294.83183" xlink:href="#m6025152903" y="171.707629"/>
     <use style="fill:#1f77b4;stroke:#1f77b4;" x="299.933545" xlink:href="#m6025152903" y="174.993966"/>
     <use style="fill:#1f77b4;stroke:#1f77b4;" x="305.035259" xlink:href="#m6025152903" y="178.606184"/>
     <use style="fill:#1f77b4;stroke:#1f77b4;" x="310.136973" xlink:href="#m6025152903" y="182.517028"/>
     <use style="fill:#1f77b4;stroke:#1f77b4;" x="315.238688" xlink:href="#m6025152903" y="186.699784"/>
     <use style="fill:#1f77b4;stroke:#1f77b4;" x="320.340402" xlink:href="#m6025152903" y="191.128335"/>
     <use style="fill:#1f77b4;stroke:#1f77b4;" x="325.442116" xlink:href="#m6025152903" y="195.777208"/>
     <use style="fill:#1f77b4;stroke:#1f77b4;" x="330.54383" xlink:href="#m6025152903" y="200.621613"/>
     <use style="fill:#1f77b4;stroke:#1f77b4;" x="335.645545" xlink:href="#m6025152903" y="205.637476"/>
     <use style="fill:#1f77b4;stroke:#1f77b4;" x="340.747259" xlink:href="#m6025152903" y="210.801471"/>
     <use style="fill:#1f77b4;stroke:#1f77b4;" x="345.848973" xlink:href="#m6025152903" y="216.091037"/>
     <use style="fill:#1f77b4;stroke:#1f77b4;" x="350.950688" xlink:href="#m6025152903" y="221.484405"/>
     <use style="fill:#1f77b4;stroke:#1f77b4;" x="356.052402" xlink:href="#m6025152903" y="226.960606"/>
     <use style="fill:#1f77b4;stroke:#1f77b4;" x="361.154116" xlink:href="#m6025152903" y="232.499487"/>
     <use style="fill:#1f77b4;stroke:#1f77b4;" x="366.25583" xlink:href="#m6025152903" y="238.081715"/>
     <use style="fill:#1f77b4;stroke:#1f77b4;" x="371.357545" xlink:href="#m6025152903" y="243.688783"/>
     <use style="fill:#1f77b4;stroke:#1f77b4;" x="376.459259" xlink:href="#m6025152903" y="249.303015"/>
     <use style="fill:#1f77b4;stroke:#1f77b4;" x="381.560973" xlink:href="#m6025152903" y="254.907558"/>
     <use style="fill:#1f77b4;stroke:#1f77b4;" x="386.662688" xlink:href="#m6025152903" y="260.486386"/>
     <use style="fill:#1f77b4;stroke:#1f77b4;" x="391.764402" xlink:href="#m6025152903" y="266.024292"/>
     <use style="fill:#1f77b4;stroke:#1f77b4;" x="396.866116" xlink:href="#m6025152903" y="271.50688"/>
     <use style="fill:#1f77b4;stroke:#1f77b4;" x="401.96783" xlink:href="#m6025152903" y="276.703444"/>
     <use style="fill:#1f77b4;stroke:#1f77b4;" x="407.069545" xlink:href="#m6025152903" y="271.37148"/>
     <use style="fill:#1f77b4;stroke:#1f77b4;" x="412.171259" xlink:href="#m6025152903" y="266.133246"/>
     <use style="fill:#1f77b4;stroke:#1f77b4;" x="417.272973" xlink:href="#m6025152903" y="260.999994"/>
     <use style="fill:#1f77b4;stroke:#1f77b4;" x="422.374688" xlink:href="#m6025152903" y="255.982222"/>
    </g>
   </g>
   <g id="line2d_34">
    <path clip-path="url(#pff313e8731)" d="M 65.254688 276.812 
L 70.356402 276.812 
L 75.458116 236.337993 
L 80.55983 211.067843 
L 85.661545 189.712641 
L 90.763259 171.597006 
L 95.864973 156.383992 
L 100.966688 143.818862 
L 106.068402 133.680912 
L 111.170116 125.76934 
L 116.27183 119.897859 
L 121.373545 115.892164 
L 126.475259 113.588536 
L 131.576973 112.832939 
L 136.678688 113.48036 
L 141.780402 115.394283 
L 146.882116 118.446245 
L 151.98383 122.515436 
L 157.085545 127.488333 
L 162.187259 133.258362 
L 167.288973 139.725578 
L 172.390688 146.796363 
L 177.492402 154.383132 
L 182.594116 162.404064 
L 187.69583 170.782826 
L 192.797545 179.448328 
L 197.899259 188.334471 
L 203.000973 197.379915 
L 208.102688 206.527849 
L 213.204402 215.725779 
L 218.306116 224.925309 
L 223.40783 234.081946 
L 228.509545 243.154906 
L 233.611259 252.106921 
L 238.712973 260.904065 
L 243.814688 269.515576 
L 248.916402 275.710305 
L 254.018116 267.550498 
L 259.11983 259.651235 
L 264.221545 252.032211 
L 269.323259 244.710721 
L 274.424973 237.701801 
L 279.526688 231.018356 
L 284.628402 224.671284 
L 289.730116 218.669601 
L 294.83183 213.020552 
L 299.933545 207.729722 
L 305.035259 202.801146 
L 310.136973 198.237402 
L 315.238688 194.039719 
L 320.340402 190.20806 
L 325.442116 186.741217 
L 330.54383 183.636892 
L 335.645545 180.891783 
L 340.747259 178.501655 
L 345.848973 176.461418 
L 350.950688 174.7652 
L 356.052402 173.406405 
L 361.154116 172.377789 
L 366.25583 171.671511 
L 371.357545 171.279196 
L 376.459259 171.19199 
L 381.560973 171.400611 
L 386.662688 171.895397 
L 391.764402 172.666358 
L 396.866116 173.703218 
L 401.96783 174.995455 
L 407.069545 176.532346 
L 412.171259 178.303001 
L 417.272973 180.296399 
L 422.374688 182.501425 
" style="fill:none;stroke:#ff7f0e;stroke-linecap:square;stroke-width:1.5;"/>
    <defs>
     <path d="M 0 1.5 
C 0.397805 1.5 0.77937 1.341951 1.06066 1.06066 
C 1.341951 0.77937 1.5 0.397805 1.5 0 
C 1.5 -0.397805 1.341951 -0.77937 1.06066 -1.06066 
C 0.77937 -1.341951 0.397805 -1.5 0 -1.5 
C -0.397805 -1.5 -0.77937 -1.341951 -1.06066 -1.06066 
C -1.341951 -0.77937 -1.5 -0.397805 -1.5 0 
C -1.5 0.397805 -1.341951 0.77937 -1.06066 1.06066 
C -0.77937 1.341951 -0.397805 1.5 0 1.5 
z
" id="me06103efe5" style="stroke:#ff7f0e;"/>
    </defs>
    <g clip-path="url(#pff313e8731)">
     <use style="fill:#ff7f0e;stroke:#ff7f0e;" x="65.254688" xlink:href="#me06103efe5" y="276.812"/>
     <use style="fill:#ff7f0e;stroke:#ff7f0e;" x="70.356402" xlink:href="#me06103efe5" y="276.812"/>
     <use style="fill:#ff7f0e;stroke:#ff7f0e;" x="75.458116" xlink:href="#me06103efe5" y="236.337993"/>
     <use style="fill:#ff7f0e;stroke:#ff7f0e;" x="80.55983" xlink:href="#me06103efe5" y="211.067843"/>
     <use style="fill:#ff7f0e;stroke:#ff7f0e;" x="85.661545" xlink:href="#me06103efe5" y="189.712641"/>
     <use style="fill:#ff7f0e;stroke:#ff7f0e;" x="90.763259" xlink:href="#me06103efe5" y="171.597006"/>
     <use style="fill:#ff7f0e;stroke:#ff7f0e;" x="95.864973" xlink:href="#me06103efe5" y="156.383992"/>
     <use style="fill:#ff7f0e;stroke:#ff7f0e;" x="100.966688" xlink:href="#me06103efe5" y="143.818862"/>
     <use style="fill:#ff7f0e;stroke:#ff7f0e;" x="106.068402" xlink:href="#me06103efe5" y="133.680912"/>
     <use style="fill:#ff7f0e;stroke:#ff7f0e;" x="111.170116" xlink:href="#me06103efe5" y="125.76934"/>
     <use style="fill:#ff7f0e;stroke:#ff7f0e;" x="116.27183" xlink:href="#me06103efe5" y="119.897859"/>
     <use style="fill:#ff7f0e;stroke:#ff7f0e;" x="121.373545" xlink:href="#me06103efe5" y="115.892164"/>
     <use style="fill:#ff7f0e;stroke:#ff7f0e;" x="126.475259" xlink:href="#me06103efe5" y="113.588536"/>
     <use style="fill:#ff7f0e;stroke:#ff7f0e;" x="131.576973" xlink:href="#me06103efe5" y="112.832939"/>
     <use style="fill:#ff7f0e;stroke:#ff7f0e;" x="136.678688" xlink:href="#me06103efe5" y="113.48036"/>
     <use style="fill:#ff7f0e;stroke:#ff7f0e;" x="141.780402" xlink:href="#me06103efe5" y="115.394283"/>
     <use style="fill:#ff7f0e;stroke:#ff7f0e;" x="146.882116" xlink:href="#me06103efe5" y="118.446245"/>
     <use style="fill:#ff7f0e;stroke:#ff7f0e;" x="151.98383" xlink:href="#me06103efe5" y="122.515436"/>
     <use style="fill:#ff7f0e;stroke:#ff7f0e;" x="157.085545" xlink:href="#me06103efe5" y="127.488333"/>
     <use style="fill:#ff7f0e;stroke:#ff7f0e;" x="162.187259" xlink:href="#me06103efe5" y="133.258362"/>
     <use style="fill:#ff7f0e;stroke:#ff7f0e;" x="167.288973" xlink:href="#me06103efe5" y="139.725578"/>
     <use style="fill:#ff7f0e;stroke:#ff7f0e;" x="172.390688" xlink:href="#me06103efe5" y="146.796363"/>
     <use style="fill:#ff7f0e;stroke:#ff7f0e;" x="177.492402" xlink:href="#me06103efe5" y="154.383132"/>
     <use style="fill:#ff7f0e;stroke:#ff7f0e;" x="182.594116" xlink:href="#me06103efe5" y="162.404064"/>
     <use style="fill:#ff7f0e;stroke:#ff7f0e;" x="187.69583" xlink:href="#me06103efe5" y="170.782826"/>
     <use style="fill:#ff7f0e;stroke:#ff7f0e;" x="192.797545" xlink:href="#me06103efe5" y="179.448328"/>
     <use style="fill:#ff7f0e;stroke:#ff7f0e;" x="197.899259" xlink:href="#me06103efe5" y="188.334471"/>
     <use style="fill:#ff7f0e;stroke:#ff7f0e;" x="203.000973" xlink:href="#me06103efe5" y="197.379915"/>
     <use style="fill:#ff7f0e;stroke:#ff7f0e;" x="208.102688" xlink:href="#me06103efe5" y="206.527849"/>
     <use style="fill:#ff7f0e;stroke:#ff7f0e;" x="213.204402" xlink:href="#me06103efe5" y="215.725779"/>
     <use style="fill:#ff7f0e;stroke:#ff7f0e;" x="218.306116" xlink:href="#me06103efe5" y="224.925309"/>
     <use style="fill:#ff7f0e;stroke:#ff7f0e;" x="223.40783" xlink:href="#me06103efe5" y="234.081946"/>
     <use style="fill:#ff7f0e;stroke:#ff7f0e;" x="228.509545" xlink:href="#me06103efe5" y="243.154906"/>
     <use style="fill:#ff7f0e;stroke:#ff7f0e;" x="233.611259" xlink:href="#me06103efe5" y="252.106921"/>
     <use style="fill:#ff7f0e;stroke:#ff7f0e;" x="238.712973" xlink:href="#me06103efe5" y="260.904065"/>
     <use style="fill:#ff7f0e;stroke:#ff7f0e;" x="243.814688" xlink:href="#me06103efe5" y="269.515576"/>
     <use style="fill:#ff7f0e;stroke:#ff7f0e;" x="248.916402" xlink:href="#me06103efe5" y="275.710305"/>
     <use style="fill:#ff7f0e;stroke:#ff7f0e;" x="254.018116" xlink:href="#me06103efe5" y="267.550498"/>
     <use style="fill:#ff7f0e;stroke:#ff7f0e;" x="259.11983" xlink:href="#me06103efe5" y="259.651235"/>
     <use style="fill:#ff7f0e;stroke:#ff7f0e;" x="264.221545" xlink:href="#me06103efe5" y="252.032211"/>
     <use style="fill:#ff7f0e;stroke:#ff7f0e;" x="269.323259" xlink:href="#me06103efe5" y="244.710721"/>
     <use style="fill:#ff7f0e;stroke:#ff7f0e;" x="274.424973" xlink:href="#me06103efe5" y="237.701801"/>
     <use style="fill:#ff7f0e;stroke:#ff7f0e;" x="279.526688" xlink:href="#me06103efe5" y="231.018356"/>
     <use style="fill:#ff7f0e;stroke:#ff7f0e;" x="284.628402" xlink:href="#me06103efe5" y="224.671284"/>
     <use style="fill:#ff7f0e;stroke:#ff7f0e;" x="289.730116" xlink:href="#me06103efe5" y="218.669601"/>
     <use style="fill:#ff7f0e;stroke:#ff7f0e;" x="294.83183" xlink:href="#me06103efe5" y="213.020552"/>
     <use style="fill:#ff7f0e;stroke:#ff7f0e;" x="299.933545" xlink:href="#me06103efe5" y="207.729722"/>
     <use style="fill:#ff7f0e;stroke:#ff7f0e;" x="305.035259" xlink:href="#me06103efe5" y="202.801146"/>
     <use style="fill:#ff7f0e;stroke:#ff7f0e;" x="310.136973" xlink:href="#me06103efe5" y="198.237402"/>
     <use style="fill:#ff7f0e;stroke:#ff7f0e;" x="315.238688" xlink:href="#me06103efe5" y="194.039719"/>
     <use style="fill:#ff7f0e;stroke:#ff7f0e;" x="320.340402" xlink:href="#me06103efe5" y="190.20806"/>
     <use style="fill:#ff7f0e;stroke:#ff7f0e;" x="325.442116" xlink:href="#me06103efe5" y="186.741217"/>
     <use style="fill:#ff7f0e;stroke:#ff7f0e;" x="330.54383" xlink:href="#me06103efe5" y="183.636892"/>
     <use style="fill:#ff7f0e;stroke:#ff7f0e;" x="335.645545" xlink:href="#me06103efe5" y="180.891783"/>
     <use style="fill:#ff7f0e;stroke:#ff7f0e;" x="340.747259" xlink:href="#me06103efe5" y="178.501655"/>
     <use style="fill:#ff7f0e;stroke:#ff7f0e;" x="345.848973" xlink:href="#me06103efe5" y="176.461418"/>
     <use style="fill:#ff7f0e;stroke:#ff7f0e;" x="350.950688" xlink:href="#me06103efe5" y="174.7652"/>
     <use style="fill:#ff7f0e;stroke:#ff7f0e;" x="356.052402" xlink:href="#me06103efe5" y="173.406405"/>
     <use style="fill:#ff7f0e;stroke:#ff7f0e;" x="361.154116" xlink:href="#me06103efe5" y="172.377789"/>
     <use style="fill:#ff7f0e;stroke:#ff7f0e;" x="366.25583" xlink:href="#me06103efe5" y="171.671511"/>
     <use style="fill:#ff7f0e;stroke:#ff7f0e;" x="371.357545" xlink:href="#me06103efe5" y="171.279196"/>
     <use style="fill:#ff7f0e;stroke:#ff7f0e;" x="376.459259" xlink:href="#me06103efe5" y="171.19199"/>
     <use style="fill:#ff7f0e;stroke:#ff7f0e;" x="381.560973" xlink:href="#me06103efe5" y="171.400611"/>
     <use style="fill:#ff7f0e;stroke:#ff7f0e;" x="386.662688" xlink:href="#me06103efe5" y="171.895397"/>
     <use style="fill:#ff7f0e;stroke:#ff7f0e;" x="391.764402" xlink:href="#me06103efe5" y="172.666358"/>
     <use style="fill:#ff7f0e;stroke:#ff7f0e;" x="396.866116" xlink:href="#me06103efe5" y="173.703218"/>
     <use style="fill:#ff7f0e;stroke:#ff7f0e;" x="401.96783" xlink:href="#me06103efe5" y="174.995455"/>
     <use style="fill:#ff7f0e;stroke:#ff7f0e;" x="407.069545" xlink:href="#me06103efe5" y="176.532346"/>
     <use style="fill:#ff7f0e;stroke:#ff7f0e;" x="412.171259" xlink:href="#me06103efe5" y="178.303001"/>
     <use style="fill:#ff7f0e;stroke:#ff7f0e;" x="417.272973" xlink:href="#me06103efe5" y="180.296399"/>
     <use style="fill:#ff7f0e;stroke:#ff7f0e;" x="422.374688" xlink:href="#me06103efe5" y="182.501425"/>
    </g>
   </g>
   <g id="line2d_35">
    <path clip-path="url(#pff313e8731)" d="M 65.254688 276.812 
L 70.356402 276.812 
L 75.458116 276.812 
L 80.55983 266.719582 
L 85.661545 257.568457 
L 90.763259 247.818076 
L 95.864973 237.758588 
L 100.966688 227.631544 
L 106.068402 217.623589 
L 111.170116 207.878928 
L 116.27183 198.509402 
L 121.373545 189.601696 
L 126.475259 181.222535 
L 131.576973 173.422522 
L 136.678688 166.239053 
L 141.780402 159.698591 
L 146.882116 153.818465 
L 151.98383 148.608329 
L 157.085545 144.071364 
L 162.187259 140.205275 
L 167.288973 137.003132 
L 172.390688 134.454083 
L 177.492402 132.543964 
L 182.594116 131.255831 
L 187.69583 130.570411 
L 192.797545 130.466504 
L 197.899259 130.921331 
L 203.000973 131.910837 
L 208.102688 133.409964 
L 213.204402 135.392882 
L 218.306116 137.833204 
L 223.40783 140.704167 
L 228.509545 143.978797 
L 233.611259 147.630051 
L 238.712973 151.630949 
L 243.814688 155.954681 
L 248.916402 160.57471 
L 254.018116 165.464857 
L 259.11983 170.599379 
L 264.221545 175.953032 
L 269.323259 181.501133 
L 274.424973 187.219609 
L 279.526688 193.085035 
L 284.628402 199.074678 
L 289.730116 205.166522 
L 294.83183 211.339293 
L 299.933545 217.572483 
L 305.035259 223.846364 
L 310.136973 230.141997 
L 315.238688 236.441248 
L 320.340402 242.726783 
L 325.442116 248.982081 
L 330.54383 255.191426 
L 335.645545 261.339905 
L 340.747259 267.413409 
L 345.848973 273.398619 
L 350.950688 274.341 
L 356.052402 268.569207 
L 361.154116 262.921001 
L 366.25583 257.406629 
L 371.357545 252.035603 
L 376.459259 246.816715 
L 381.560973 241.758052 
L 386.662688 236.867011 
L 391.764402 232.150319 
L 396.866116 227.614049 
L 401.96783 223.263638 
L 407.069545 219.103907 
L 412.171259 215.139077 
L 417.272973 211.372793 
L 422.374688 207.808137 
" style="fill:none;stroke:#2ca02c;stroke-linecap:square;stroke-width:1.5;"/>
    <defs>
     <path d="M 0 1.5 
C 0.397805 1.5 0.77937 1.341951 1.06066 1.06066 
C 1.341951 0.77937 1.5 0.397805 1.5 0 
C 1.5 -0.397805 1.341951 -0.77937 1.06066 -1.06066 
C 0.77937 -1.341951 0.397805 -1.5 0 -1.5 
C -0.397805 -1.5 -0.77937 -1.341951 -1.06066 -1.06066 
C -1.341951 -0.77937 -1.5 -0.397805 -1.5 0 
C -1.5 0.397805 -1.341951 0.77937 -1.06066 1.06066 
C -0.77937 1.341951 -0.397805 1.5 0 1.5 
z
" id="m2f6c122cc3" style="stroke:#2ca02c;"/>
    </defs>
    <g clip-path="url(#pff313e8731)">
     <use style="fill:#2ca02c;stroke:#2ca02c;" x="65.254688" xlink:href="#m2f6c122cc3" y="276.812"/>
     <use style="fill:#2ca02c;stroke:#2ca02c;" x="70.356402" xlink:href="#m2f6c122cc3" y="276.812"/>
     <use style="fill:#2ca02c;stroke:#2ca02c;" x="75.458116" xlink:href="#m2f6c122cc3" y="276.812"/>
     <use style="fill:#2ca02c;stroke:#2ca02c;" x="80.55983" xlink:href="#m2f6c122cc3" y="266.719582"/>
     <use style="fill:#2ca02c;stroke:#2ca02c;" x="85.661545" xlink:href="#m2f6c122cc3" y="257.568457"/>
     <use style="fill:#2ca02c;stroke:#2ca02c;" x="90.763259" xlink:href="#m2f6c122cc3" y="247.818076"/>
     <use style="fill:#2ca02c;stroke:#2ca02c;" x="95.864973" xlink:href="#m2f6c122cc3" y="237.758588"/>
     <use style="fill:#2ca02c;stroke:#2ca02c;" x="100.966688" xlink:href="#m2f6c122cc3" y="227.631544"/>
     <use style="fill:#2ca02c;stroke:#2ca02c;" x="106.068402" xlink:href="#m2f6c122cc3" y="217.623589"/>
     <use style="fill:#2ca02c;stroke:#2ca02c;" x="111.170116" xlink:href="#m2f6c122cc3" y="207.878928"/>
     <use style="fill:#2ca02c;stroke:#2ca02c;" x="116.27183" xlink:href="#m2f6c122cc3" y="198.509402"/>
     <use style="fill:#2ca02c;stroke:#2ca02c;" x="121.373545" xlink:href="#m2f6c122cc3" y="189.601696"/>
     <use style="fill:#2ca02c;stroke:#2ca02c;" x="126.475259" xlink:href="#m2f6c122cc3" y="181.222535"/>
     <use style="fill:#2ca02c;stroke:#2ca02c;" x="131.576973" xlink:href="#m2f6c122cc3" y="173.422522"/>
     <use style="fill:#2ca02c;stroke:#2ca02c;" x="136.678688" xlink:href="#m2f6c122cc3" y="166.239053"/>
     <use style="fill:#2ca02c;stroke:#2ca02c;" x="141.780402" xlink:href="#m2f6c122cc3" y="159.698591"/>
     <use style="fill:#2ca02c;stroke:#2ca02c;" x="146.882116" xlink:href="#m2f6c122cc3" y="153.818465"/>
     <use style="fill:#2ca02c;stroke:#2ca02c;" x="151.98383" xlink:href="#m2f6c122cc3" y="148.608329"/>
     <use style="fill:#2ca02c;stroke:#2ca02c;" x="157.085545" xlink:href="#m2f6c122cc3" y="144.071364"/>
     <use style="fill:#2ca02c;stroke:#2ca02c;" x="162.187259" xlink:href="#m2f6c122cc3" y="140.205275"/>
     <use style="fill:#2ca02c;stroke:#2ca02c;" x="167.288973" xlink:href="#m2f6c122cc3" y="137.003132"/>
     <use style="fill:#2ca02c;stroke:#2ca02c;" x="172.390688" xlink:href="#m2f6c122cc3" y="134.454083"/>
     <use style="fill:#2ca02c;stroke:#2ca02c;" x="177.492402" xlink:href="#m2f6c122cc3" y="132.543964"/>
     <use style="fill:#2ca02c;stroke:#2ca02c;" x="182.594116" xlink:href="#m2f6c122cc3" y="131.255831"/>
     <use style="fill:#2ca02c;stroke:#2ca02c;" x="187.69583" xlink:href="#m2f6c122cc3" y="130.570411"/>
     <use style="fill:#2ca02c;stroke:#2ca02c;" x="192.797545" xlink:href="#m2f6c122cc3" y="130.466504"/>
     <use style="fill:#2ca02c;stroke:#2ca02c;" x="197.899259" xlink:href="#m2f6c122cc3" y="130.921331"/>
     <use style="fill:#2ca02c;stroke:#2ca02c;" x="203.000973" xlink:href="#m2f6c122cc3" y="131.910837"/>
     <use style="fill:#2ca02c;stroke:#2ca02c;" x="208.102688" xlink:href="#m2f6c122cc3" y="133.409964"/>
     <use style="fill:#2ca02c;stroke:#2ca02c;" x="213.204402" xlink:href="#m2f6c122cc3" y="135.392882"/>
     <use style="fill:#2ca02c;stroke:#2ca02c;" x="218.306116" xlink:href="#m2f6c122cc3" y="137.833204"/>
     <use style="fill:#2ca02c;stroke:#2ca02c;" x="223.40783" xlink:href="#m2f6c122cc3" y="140.704167"/>
     <use style="fill:#2ca02c;stroke:#2ca02c;" x="228.509545" xlink:href="#m2f6c122cc3" y="143.978797"/>
     <use style="fill:#2ca02c;stroke:#2ca02c;" x="233.611259" xlink:href="#m2f6c122cc3" y="147.630051"/>
     <use style="fill:#2ca02c;stroke:#2ca02c;" x="238.712973" xlink:href="#m2f6c122cc3" y="151.630949"/>
     <use style="fill:#2ca02c;stroke:#2ca02c;" x="243.814688" xlink:href="#m2f6c122cc3" y="155.954681"/>
     <use style="fill:#2ca02c;stroke:#2ca02c;" x="248.916402" xlink:href="#m2f6c122cc3" y="160.57471"/>
     <use style="fill:#2ca02c;stroke:#2ca02c;" x="254.018116" xlink:href="#m2f6c122cc3" y="165.464857"/>
     <use style="fill:#2ca02c;stroke:#2ca02c;" x="259.11983" xlink:href="#m2f6c122cc3" y="170.599379"/>
     <use style="fill:#2ca02c;stroke:#2ca02c;" x="264.221545" xlink:href="#m2f6c122cc3" y="175.953032"/>
     <use style="fill:#2ca02c;stroke:#2ca02c;" x="269.323259" xlink:href="#m2f6c122cc3" y="181.501133"/>
     <use style="fill:#2ca02c;stroke:#2ca02c;" x="274.424973" xlink:href="#m2f6c122cc3" y="187.219609"/>
     <use style="fill:#2ca02c;stroke:#2ca02c;" x="279.526688" xlink:href="#m2f6c122cc3" y="193.085035"/>
     <use style="fill:#2ca02c;stroke:#2ca02c;" x="284.628402" xlink:href="#m2f6c122cc3" y="199.074678"/>
     <use style="fill:#2ca02c;stroke:#2ca02c;" x="289.730116" xlink:href="#m2f6c122cc3" y="205.166522"/>
     <use style="fill:#2ca02c;stroke:#2ca02c;" x="294.83183" xlink:href="#m2f6c122cc3" y="211.339293"/>
     <use style="fill:#2ca02c;stroke:#2ca02c;" x="299.933545" xlink:href="#m2f6c122cc3" y="217.572483"/>
     <use style="fill:#2ca02c;stroke:#2ca02c;" x="305.035259" xlink:href="#m2f6c122cc3" y="223.846364"/>
     <use style="fill:#2ca02c;stroke:#2ca02c;" x="310.136973" xlink:href="#m2f6c122cc3" y="230.141997"/>
     <use style="fill:#2ca02c;stroke:#2ca02c;" x="315.238688" xlink:href="#m2f6c122cc3" y="236.441248"/>
     <use style="fill:#2ca02c;stroke:#2ca02c;" x="320.340402" xlink:href="#m2f6c122cc3" y="242.726783"/>
     <use style="fill:#2ca02c;stroke:#2ca02c;" x="325.442116" xlink:href="#m2f6c122cc3" y="248.982081"/>
     <use style="fill:#2ca02c;stroke:#2ca02c;" x="330.54383" xlink:href="#m2f6c122cc3" y="255.191426"/>
     <use style="fill:#2ca02c;stroke:#2ca02c;" x="335.645545" xlink:href="#m2f6c122cc3" y="261.339905"/>
     <use style="fill:#2ca02c;stroke:#2ca02c;" x="340.747259" xlink:href="#m2f6c122cc3" y="267.413409"/>
     <use style="fill:#2ca02c;stroke:#2ca02c;" x="345.848973" xlink:href="#m2f6c122cc3" y="273.398619"/>
     <use style="fill:#2ca02c;stroke:#2ca02c;" x="350.950688" xlink:href="#m2f6c122cc3" y="274.341"/>
     <use style="fill:#2ca02c;stroke:#2ca02c;" x="356.052402" xlink:href="#m2f6c122cc3" y="268.569207"/>
     <use style="fill:#2ca02c;stroke:#2ca02c;" x="361.154116" xlink:href="#m2f6c122cc3" y="262.921001"/>
     <use style="fill:#2ca02c;stroke:#2ca02c;" x="366.25583" xlink:href="#m2f6c122cc3" y="257.406629"/>
     <use style="fill:#2ca02c;stroke:#2ca02c;" x="371.357545" xlink:href="#m2f6c122cc3" y="252.035603"/>
     <use style="fill:#2ca02c;stroke:#2ca02c;" x="376.459259" xlink:href="#m2f6c122cc3" y="246.816715"/>
     <use style="fill:#2ca02c;stroke:#2ca02c;" x="381.560973" xlink:href="#m2f6c122cc3" y="241.758052"/>
     <use style="fill:#2ca02c;stroke:#2ca02c;" x="386.662688" xlink:href="#m2f6c122cc3" y="236.867011"/>
     <use style="fill:#2ca02c;stroke:#2ca02c;" x="391.764402" xlink:href="#m2f6c122cc3" y="232.150319"/>
     <use style="fill:#2ca02c;stroke:#2ca02c;" x="396.866116" xlink:href="#m2f6c122cc3" y="227.614049"/>
     <use style="fill:#2ca02c;stroke:#2ca02c;" x="401.96783" xlink:href="#m2f6c122cc3" y="223.263638"/>
     <use style="fill:#2ca02c;stroke:#2ca02c;" x="407.069545" xlink:href="#m2f6c122cc3" y="219.103907"/>
     <use style="fill:#2ca02c;stroke:#2ca02c;" x="412.171259" xlink:href="#m2f6c122cc3" y="215.139077"/>
     <use style="fill:#2ca02c;stroke:#2ca02c;" x="417.272973" xlink:href="#m2f6c122cc3" y="211.372793"/>
     <use style="fill:#2ca02c;stroke:#2ca02c;" x="422.374688" xlink:href="#m2f6c122cc3" y="207.808137"/>
    </g>
   </g>
   <g id="line2d_36">
    <path clip-path="url(#pff313e8731)" d="M 65.254688 276.812 
L 70.356402 276.812 
L 75.458116 276.812 
L 80.55983 276.812 
L 85.661545 274.63256 
L 90.763259 272.120435 
L 95.864973 268.991086 
L 100.966688 265.316872 
L 106.068402 261.173937 
L 111.170116 256.634988 
L 116.27183 251.768236 
L 121.373545 246.637292 
L 126.475259 241.301268 
L 131.576973 235.814955 
L 136.678688 230.22901 
L 141.780402 224.590147 
L 146.882116 218.941332 
L 151.98383 213.321962 
L 157.085545 207.768048 
L 162.187259 202.312386 
L 167.288973 196.984727 
L 172.390688 191.811935 
L 177.492402 186.818141 
L 182.594116 182.024894 
L 187.69583 177.451302 
L 192.797545 173.114171 
L 197.899259 169.028135 
L 203.000973 165.205781 
L 208.102688 161.657777 
L 213.204402 158.392978 
L 218.306116 155.418548 
L 223.40783 152.740059 
L 228.509545 150.361598 
L 233.611259 148.285863 
L 238.712973 146.514257 
L 243.814688 145.046978 
L 248.916402 143.883105 
L 254.018116 143.020678 
L 259.11983 142.45678 
L 264.221545 142.187608 
L 269.323259 142.208548 
L 274.424973 142.514237 
L 279.526688 143.098635 
L 284.628402 143.955081 
L 289.730116 145.076355 
L 294.83183 146.454734 
L 299.933545 148.082039 
L 305.035259 149.949696 
L 310.136973 152.048772 
L 315.238688 154.370031 
L 320.340402 156.903968 
L 325.442116 159.640856 
L 330.54383 162.570782 
L 335.645545 165.683681 
L 340.747259 168.969373 
L 345.848973 172.417596 
L 350.950688 176.018034 
L 356.052402 179.760344 
L 361.154116 183.634188 
L 366.25583 187.629253 
L 371.357545 191.735278 
L 376.459259 195.942072 
L 381.560973 200.239539 
L 386.662688 204.617692 
L 391.764402 209.066674 
L 396.866116 213.576774 
L 401.96783 218.138441 
L 407.069545 222.742298 
L 412.171259 227.379153 
L 417.272973 232.040015 
L 422.374688 236.716101 
" style="fill:none;stroke:#d62728;stroke-linecap:square;stroke-width:1.5;"/>
    <defs>
     <path d="M 0 1.5 
C 0.397805 1.5 0.77937 1.341951 1.06066 1.06066 
C 1.341951 0.77937 1.5 0.397805 1.5 0 
C 1.5 -0.397805 1.341951 -0.77937 1.06066 -1.06066 
C 0.77937 -1.341951 0.397805 -1.5 0 -1.5 
C -0.397805 -1.5 -0.77937 -1.341951 -1.06066 -1.06066 
C -1.341951 -0.77937 -1.5 -0.397805 -1.5 0 
C -1.5 0.397805 -1.341951 0.77937 -1.06066 1.06066 
C -0.77937 1.341951 -0.397805 1.5 0 1.5 
z
" id="m0d359ec638" style="stroke:#d62728;"/>
    </defs>
    <g clip-path="url(#pff313e8731)">
     <use style="fill:#d62728;stroke:#d62728;" x="65.254688" xlink:href="#m0d359ec638" y="276.812"/>
     <use style="fill:#d62728;stroke:#d62728;" x="70.356402" xlink:href="#m0d359ec638" y="276.812"/>
     <use style="fill:#d62728;stroke:#d62728;" x="75.458116" xlink:href="#m0d359ec638" y="276.812"/>
     <use style="fill:#d62728;stroke:#d62728;" x="80.55983" xlink:href="#m0d359ec638" y="276.812"/>
     <use style="fill:#d62728;stroke:#d62728;" x="85.661545" xlink:href="#m0d359ec638" y="274.63256"/>
     <use style="fill:#d62728;stroke:#d62728;" x="90.763259" xlink:href="#m0d359ec638" y="272.120435"/>
     <use style="fill:#d62728;stroke:#d62728;" x="95.864973" xlink:href="#m0d359ec638" y="268.991086"/>
     <use style="fill:#d62728;stroke:#d62728;" x="100.966688" xlink:href="#m0d359ec638" y="265.316872"/>
     <use style="fill:#d62728;stroke:#d62728;" x="106.068402" xlink:href="#m0d359ec638" y="261.173937"/>
     <use style="fill:#d62728;stroke:#d62728;" x="111.170116" xlink:href="#m0d359ec638" y="256.634988"/>
     <use style="fill:#d62728;stroke:#d62728;" x="116.27183" xlink:href="#m0d359ec638" y="251.768236"/>
     <use style="fill:#d62728;stroke:#d62728;" x="121.373545" xlink:href="#m0d359ec638" y="246.637292"/>
     <use style="fill:#d62728;stroke:#d62728;" x="126.475259" xlink:href="#m0d359ec638" y="241.301268"/>
     <use style="fill:#d62728;stroke:#d62728;" x="131.576973" xlink:href="#m0d359ec638" y="235.814955"/>
     <use style="fill:#d62728;stroke:#d62728;" x="136.678688" xlink:href="#m0d359ec638" y="230.22901"/>
     <use style="fill:#d62728;stroke:#d62728;" x="141.780402" xlink:href="#m0d359ec638" y="224.590147"/>
     <use style="fill:#d62728;stroke:#d62728;" x="146.882116" xlink:href="#m0d359ec638" y="218.941332"/>
     <use style="fill:#d62728;stroke:#d62728;" x="151.98383" xlink:href="#m0d359ec638" y="213.321962"/>
     <use style="fill:#d62728;stroke:#d62728;" x="157.085545" xlink:href="#m0d359ec638" y="207.768048"/>
     <use style="fill:#d62728;stroke:#d62728;" x="162.187259" xlink:href="#m0d359ec638" y="202.312386"/>
     <use style="fill:#d62728;stroke:#d62728;" x="167.288973" xlink:href="#m0d359ec638" y="196.984727"/>
     <use style="fill:#d62728;stroke:#d62728;" x="172.390688" xlink:href="#m0d359ec638" y="191.811935"/>
     <use style="fill:#d62728;stroke:#d62728;" x="177.492402" xlink:href="#m0d359ec638" y="186.818141"/>
     <use style="fill:#d62728;stroke:#d62728;" x="182.594116" xlink:href="#m0d359ec638" y="182.024894"/>
     <use style="fill:#d62728;stroke:#d62728;" x="187.69583" xlink:href="#m0d359ec638" y="177.451302"/>
     <use style="fill:#d62728;stroke:#d62728;" x="192.797545" xlink:href="#m0d359ec638" y="173.114171"/>
     <use style="fill:#d62728;stroke:#d62728;" x="197.899259" xlink:href="#m0d359ec638" y="169.028135"/>
     <use style="fill:#d62728;stroke:#d62728;" x="203.000973" xlink:href="#m0d359ec638" y="165.205781"/>
     <use style="fill:#d62728;stroke:#d62728;" x="208.102688" xlink:href="#m0d359ec638" y="161.657777"/>
     <use style="fill:#d62728;stroke:#d62728;" x="213.204402" xlink:href="#m0d359ec638" y="158.392978"/>
     <use style="fill:#d62728;stroke:#d62728;" x="218.306116" xlink:href="#m0d359ec638" y="155.418548"/>
     <use style="fill:#d62728;stroke:#d62728;" x="223.40783" xlink:href="#m0d359ec638" y="152.740059"/>
     <use style="fill:#d62728;stroke:#d62728;" x="228.509545" xlink:href="#m0d359ec638" y="150.361598"/>
     <use style="fill:#d62728;stroke:#d62728;" x="233.611259" xlink:href="#m0d359ec638" y="148.285863"/>
     <use style="fill:#d62728;stroke:#d62728;" x="238.712973" xlink:href="#m0d359ec638" y="146.514257"/>
     <use style="fill:#d62728;stroke:#d62728;" x="243.814688" xlink:href="#m0d359ec638" y="145.046978"/>
     <use style="fill:#d62728;stroke:#d62728;" x="248.916402" xlink:href="#m0d359ec638" y="143.883105"/>
     <use style="fill:#d62728;stroke:#d62728;" x="254.018116" xlink:href="#m0d359ec638" y="143.020678"/>
     <use style="fill:#d62728;stroke:#d62728;" x="259.11983" xlink:href="#m0d359ec638" y="142.45678"/>
     <use style="fill:#d62728;stroke:#d62728;" x="264.221545" xlink:href="#m0d359ec638" y="142.187608"/>
     <use style="fill:#d62728;stroke:#d62728;" x="269.323259" xlink:href="#m0d359ec638" y="142.208548"/>
     <use style="fill:#d62728;stroke:#d62728;" x="274.424973" xlink:href="#m0d359ec638" y="142.514237"/>
     <use style="fill:#d62728;stroke:#d62728;" x="279.526688" xlink:href="#m0d359ec638" y="143.098635"/>
     <use style="fill:#d62728;stroke:#d62728;" x="284.628402" xlink:href="#m0d359ec638" y="143.955081"/>
     <use style="fill:#d62728;stroke:#d62728;" x="289.730116" xlink:href="#m0d359ec638" y="145.076355"/>
     <use style="fill:#d62728;stroke:#d62728;" x="294.83183" xlink:href="#m0d359ec638" y="146.454734"/>
     <use style="fill:#d62728;stroke:#d62728;" x="299.933545" xlink:href="#m0d359ec638" y="148.082039"/>
     <use style="fill:#d62728;stroke:#d62728;" x="305.035259" xlink:href="#m0d359ec638" y="149.949696"/>
     <use style="fill:#d62728;stroke:#d62728;" x="310.136973" xlink:href="#m0d359ec638" y="152.048772"/>
     <use style="fill:#d62728;stroke:#d62728;" x="315.238688" xlink:href="#m0d359ec638" y="154.370031"/>
     <use style="fill:#d62728;stroke:#d62728;" x="320.340402" xlink:href="#m0d359ec638" y="156.903968"/>
     <use style="fill:#d62728;stroke:#d62728;" x="325.442116" xlink:href="#m0d359ec638" y="159.640856"/>
     <use style="fill:#d62728;stroke:#d62728;" x="330.54383" xlink:href="#m0d359ec638" y="162.570782"/>
     <use style="fill:#d62728;stroke:#d62728;" x="335.645545" xlink:href="#m0d359ec638" y="165.683681"/>
     <use style="fill:#d62728;stroke:#d62728;" x="340.747259" xlink:href="#m0d359ec638" y="168.969373"/>
     <use style="fill:#d62728;stroke:#d62728;" x="345.848973" xlink:href="#m0d359ec638" y="172.417596"/>
     <use style="fill:#d62728;stroke:#d62728;" x="350.950688" xlink:href="#m0d359ec638" y="176.018034"/>
     <use style="fill:#d62728;stroke:#d62728;" x="356.052402" xlink:href="#m0d359ec638" y="179.760344"/>
     <use style="fill:#d62728;stroke:#d62728;" x="361.154116" xlink:href="#m0d359ec638" y="183.634188"/>
     <use style="fill:#d62728;stroke:#d62728;" x="366.25583" xlink:href="#m0d359ec638" y="187.629253"/>
     <use style="fill:#d62728;stroke:#d62728;" x="371.357545" xlink:href="#m0d359ec638" y="191.735278"/>
     <use style="fill:#d62728;stroke:#d62728;" x="376.459259" xlink:href="#m0d359ec638" y="195.942072"/>
     <use style="fill:#d62728;stroke:#d62728;" x="381.560973" xlink:href="#m0d359ec638" y="200.239539"/>
     <use style="fill:#d62728;stroke:#d62728;" x="386.662688" xlink:href="#m0d359ec638" y="204.617692"/>
     <use style="fill:#d62728;stroke:#d62728;" x="391.764402" xlink:href="#m0d359ec638" y="209.066674"/>
     <use style="fill:#d62728;stroke:#d62728;" x="396.866116" xlink:href="#m0d359ec638" y="213.576774"/>
     <use style="fill:#d62728;stroke:#d62728;" x="401.96783" xlink:href="#m0d359ec638" y="218.138441"/>
     <use style="fill:#d62728;stroke:#d62728;" x="407.069545" xlink:href="#m0d359ec638" y="222.742298"/>
     <use style="fill:#d62728;stroke:#d62728;" x="412.171259" xlink:href="#m0d359ec638" y="227.379153"/>
     <use style="fill:#d62728;stroke:#d62728;" x="417.272973" xlink:href="#m0d359ec638" y="232.040015"/>
     <use style="fill:#d62728;stroke:#d62728;" x="422.374688" xlink:href="#m0d359ec638" y="236.716101"/>
    </g>
   </g>
   <g id="line2d_37">
    <path clip-path="url(#pff313e8731)" d="M 65.254688 276.812 
L 70.356402 276.812 
L 75.458116 276.812 
L 80.55983 276.812 
L 85.661545 276.812 
L 90.763259 276.391041 
L 95.864973 275.812923 
L 100.966688 275.001273 
L 106.068402 273.947872 
L 111.170116 272.65124 
L 116.27183 271.11417 
L 121.373545 269.342632 
L 126.475259 267.345061 
L 131.576973 265.131815 
L 136.678688 262.714762 
L 141.780402 260.106942 
L 146.882116 257.32229 
L 151.98383 254.375399 
L 157.085545 251.281335 
L 162.187259 248.055463 
L 167.288973 244.713309 
L 172.390688 241.270442 
L 177.492402 237.742366 
L 182.594116 234.144436 
L 187.69583 230.491779 
L 192.797545 226.799228 
L 197.899259 223.08127 
L 203.000973 219.351997 
L 208.102688 215.625066 
L 213.204402 211.913664 
L 218.306116 208.230483 
L 223.40783 204.587698 
L 228.509545 200.996945 
L 233.611259 197.469312 
L 238.712973 194.015324 
L 243.814688 190.644939 
L 248.916402 187.367544 
L 254.018116 184.19195 
L 259.11983 181.126396 
L 264.221545 178.17855 
L 269.323259 175.355514 
L 274.424973 172.66383 
L 279.526688 170.109487 
L 284.628402 167.697932 
L 289.730116 165.434076 
L 294.83183 163.322307 
L 299.933545 161.366505 
L 305.035259 159.570047 
L 310.136973 157.935828 
L 315.238688 156.466269 
L 320.340402 155.163335 
L 325.442116 154.028547 
L 330.54383 153.062998 
L 335.645545 152.267367 
L 340.747259 151.641936 
L 345.848973 151.186606 
L 350.950688 150.900908 
L 356.052402 150.784024 
L 361.154116 150.834799 
L 366.25583 151.051757 
L 371.357545 151.433119 
L 376.459259 151.976815 
L 381.560973 152.680499 
L 386.662688 153.541568 
L 391.764402 154.557172 
L 396.866116 155.724233 
L 401.96783 157.039454 
L 407.069545 158.499338 
L 412.171259 160.1002 
L 417.272973 161.838181 
L 422.374688 163.709259 
" style="fill:none;stroke:#9467bd;stroke-linecap:square;stroke-width:1.5;"/>
    <defs>
     <path d="M 0 1.5 
C 0.397805 1.5 0.77937 1.341951 1.06066 1.06066 
C 1.341951 0.77937 1.5 0.397805 1.5 0 
C 1.5 -0.397805 1.341951 -0.77937 1.06066 -1.06066 
C 0.77937 -1.341951 0.397805 -1.5 0 -1.5 
C -0.397805 -1.5 -0.77937 -1.341951 -1.06066 -1.06066 
C -1.341951 -0.77937 -1.5 -0.397805 -1.5 0 
C -1.5 0.397805 -1.341951 0.77937 -1.06066 1.06066 
C -0.77937 1.341951 -0.397805 1.5 0 1.5 
z
" id="mc87f76b6c3" style="stroke:#9467bd;"/>
    </defs>
    <g clip-path="url(#pff313e8731)">
     <use style="fill:#9467bd;stroke:#9467bd;" x="65.254688" xlink:href="#mc87f76b6c3" y="276.812"/>
     <use style="fill:#9467bd;stroke:#9467bd;" x="70.356402" xlink:href="#mc87f76b6c3" y="276.812"/>
     <use style="fill:#9467bd;stroke:#9467bd;" x="75.458116" xlink:href="#mc87f76b6c3" y="276.812"/>
     <use style="fill:#9467bd;stroke:#9467bd;" x="80.55983" xlink:href="#mc87f76b6c3" y="276.812"/>
     <use style="fill:#9467bd;stroke:#9467bd;" x="85.661545" xlink:href="#mc87f76b6c3" y="276.812"/>
     <use style="fill:#9467bd;stroke:#9467bd;" x="90.763259" xlink:href="#mc87f76b6c3" y="276.391041"/>
     <use style="fill:#9467bd;stroke:#9467bd;" x="95.864973" xlink:href="#mc87f76b6c3" y="275.812923"/>
     <use style="fill:#9467bd;stroke:#9467bd;" x="100.966688" xlink:href="#mc87f76b6c3" y="275.001273"/>
     <use style="fill:#9467bd;stroke:#9467bd;" x="106.068402" xlink:href="#mc87f76b6c3" y="273.947872"/>
     <use style="fill:#9467bd;stroke:#9467bd;" x="111.170116" xlink:href="#mc87f76b6c3" y="272.65124"/>
     <use style="fill:#9467bd;stroke:#9467bd;" x="116.27183" xlink:href="#mc87f76b6c3" y="271.11417"/>
     <use style="fill:#9467bd;stroke:#9467bd;" x="121.373545" xlink:href="#mc87f76b6c3" y="269.342632"/>
     <use style="fill:#9467bd;stroke:#9467bd;" x="126.475259" xlink:href="#mc87f76b6c3" y="267.345061"/>
     <use style="fill:#9467bd;stroke:#9467bd;" x="131.576973" xlink:href="#mc87f76b6c3" y="265.131815"/>
     <use style="fill:#9467bd;stroke:#9467bd;" x="136.678688" xlink:href="#mc87f76b6c3" y="262.714762"/>
     <use style="fill:#9467bd;stroke:#9467bd;" x="141.780402" xlink:href="#mc87f76b6c3" y="260.106942"/>
     <use style="fill:#9467bd;stroke:#9467bd;" x="146.882116" xlink:href="#mc87f76b6c3" y="257.32229"/>
     <use style="fill:#9467bd;stroke:#9467bd;" x="151.98383" xlink:href="#mc87f76b6c3" y="254.375399"/>
     <use style="fill:#9467bd;stroke:#9467bd;" x="157.085545" xlink:href="#mc87f76b6c3" y="251.281335"/>
     <use style="fill:#9467bd;stroke:#9467bd;" x="162.187259" xlink:href="#mc87f76b6c3" y="248.055463"/>
     <use style="fill:#9467bd;stroke:#9467bd;" x="167.288973" xlink:href="#mc87f76b6c3" y="244.713309"/>
     <use style="fill:#9467bd;stroke:#9467bd;" x="172.390688" xlink:href="#mc87f76b6c3" y="241.270442"/>
     <use style="fill:#9467bd;stroke:#9467bd;" x="177.492402" xlink:href="#mc87f76b6c3" y="237.742366"/>
     <use style="fill:#9467bd;stroke:#9467bd;" x="182.594116" xlink:href="#mc87f76b6c3" y="234.144436"/>
     <use style="fill:#9467bd;stroke:#9467bd;" x="187.69583" xlink:href="#mc87f76b6c3" y="230.491779"/>
     <use style="fill:#9467bd;stroke:#9467bd;" x="192.797545" xlink:href="#mc87f76b6c3" y="226.799228"/>
     <use style="fill:#9467bd;stroke:#9467bd;" x="197.899259" xlink:href="#mc87f76b6c3" y="223.08127"/>
     <use style="fill:#9467bd;stroke:#9467bd;" x="203.000973" xlink:href="#mc87f76b6c3" y="219.351997"/>
     <use style="fill:#9467bd;stroke:#9467bd;" x="208.102688" xlink:href="#mc87f76b6c3" y="215.625066"/>
     <use style="fill:#9467bd;stroke:#9467bd;" x="213.204402" xlink:href="#mc87f76b6c3" y="211.913664"/>
     <use style="fill:#9467bd;stroke:#9467bd;" x="218.306116" xlink:href="#mc87f76b6c3" y="208.230483"/>
     <use style="fill:#9467bd;stroke:#9467bd;" x="223.40783" xlink:href="#mc87f76b6c3" y="204.587698"/>
     <use style="fill:#9467bd;stroke:#9467bd;" x="228.509545" xlink:href="#mc87f76b6c3" y="200.996945"/>
     <use style="fill:#9467bd;stroke:#9467bd;" x="233.611259" xlink:href="#mc87f76b6c3" y="197.469312"/>
     <use style="fill:#9467bd;stroke:#9467bd;" x="238.712973" xlink:href="#mc87f76b6c3" y="194.015324"/>
     <use style="fill:#9467bd;stroke:#9467bd;" x="243.814688" xlink:href="#mc87f76b6c3" y="190.644939"/>
     <use style="fill:#9467bd;stroke:#9467bd;" x="248.916402" xlink:href="#mc87f76b6c3" y="187.367544"/>
     <use style="fill:#9467bd;stroke:#9467bd;" x="254.018116" xlink:href="#mc87f76b6c3" y="184.19195"/>
     <use style="fill:#9467bd;stroke:#9467bd;" x="259.11983" xlink:href="#mc87f76b6c3" y="181.126396"/>
     <use style="fill:#9467bd;stroke:#9467bd;" x="264.221545" xlink:href="#mc87f76b6c3" y="178.17855"/>
     <use style="fill:#9467bd;stroke:#9467bd;" x="269.323259" xlink:href="#mc87f76b6c3" y="175.355514"/>
     <use style="fill:#9467bd;stroke:#9467bd;" x="274.424973" xlink:href="#mc87f76b6c3" y="172.66383"/>
     <use style="fill:#9467bd;stroke:#9467bd;" x="279.526688" xlink:href="#mc87f76b6c3" y="170.109487"/>
     <use style="fill:#9467bd;stroke:#9467bd;" x="284.628402" xlink:href="#mc87f76b6c3" y="167.697932"/>
     <use style="fill:#9467bd;stroke:#9467bd;" x="289.730116" xlink:href="#mc87f76b6c3" y="165.434076"/>
     <use style="fill:#9467bd;stroke:#9467bd;" x="294.83183" xlink:href="#mc87f76b6c3" y="163.322307"/>
     <use style="fill:#9467bd;stroke:#9467bd;" x="299.933545" xlink:href="#mc87f76b6c3" y="161.366505"/>
     <use style="fill:#9467bd;stroke:#9467bd;" x="305.035259" xlink:href="#mc87f76b6c3" y="159.570047"/>
     <use style="fill:#9467bd;stroke:#9467bd;" x="310.136973" xlink:href="#mc87f76b6c3" y="157.935828"/>
     <use style="fill:#9467bd;stroke:#9467bd;" x="315.238688" xlink:href="#mc87f76b6c3" y="156.466269"/>
     <use style="fill:#9467bd;stroke:#9467bd;" x="320.340402" xlink:href="#mc87f76b6c3" y="155.163335"/>
     <use style="fill:#9467bd;stroke:#9467bd;" x="325.442116" xlink:href="#mc87f76b6c3" y="154.028547"/>
     <use style="fill:#9467bd;stroke:#9467bd;" x="330.54383" xlink:href="#mc87f76b6c3" y="153.062998"/>
     <use style="fill:#9467bd;stroke:#9467bd;" x="335.645545" xlink:href="#mc87f76b6c3" y="152.267367"/>
     <use style="fill:#9467bd;stroke:#9467bd;" x="340.747259" xlink:href="#mc87f76b6c3" y="151.641936"/>
     <use style="fill:#9467bd;stroke:#9467bd;" x="345.848973" xlink:href="#mc87f76b6c3" y="151.186606"/>
     <use style="fill:#9467bd;stroke:#9467bd;" x="350.950688" xlink:href="#mc87f76b6c3" y="150.900908"/>
     <use style="fill:#9467bd;stroke:#9467bd;" x="356.052402" xlink:href="#mc87f76b6c3" y="150.784024"/>
     <use style="fill:#9467bd;stroke:#9467bd;" x="361.154116" xlink:href="#mc87f76b6c3" y="150.834799"/>
     <use style="fill:#9467bd;stroke:#9467bd;" x="366.25583" xlink:href="#mc87f76b6c3" y="151.051757"/>
     <use style="fill:#9467bd;stroke:#9467bd;" x="371.357545" xlink:href="#mc87f76b6c3" y="151.433119"/>
     <use style="fill:#9467bd;stroke:#9467bd;" x="376.459259" xlink:href="#mc87f76b6c3" y="151.976815"/>
     <use style="fill:#9467bd;stroke:#9467bd;" x="381.560973" xlink:href="#mc87f76b6c3" y="152.680499"/>
     <use style="fill:#9467bd;stroke:#9467bd;" x="386.662688" xlink:href="#mc87f76b6c3" y="153.541568"/>
     <use style="fill:#9467bd;stroke:#9467bd;" x="391.764402" xlink:href="#mc87f76b6c3" y="154.557172"/>
     <use style="fill:#9467bd;stroke:#9467bd;" x="396.866116" xlink:href="#mc87f76b6c3" y="155.724233"/>
     <use style="fill:#9467bd;stroke:#9467bd;" x="401.96783" xlink:href="#mc87f76b6c3" y="157.039454"/>
     <use style="fill:#9467bd;stroke:#9467bd;" x="407.069545" xlink:href="#mc87f76b6c3" y="158.499338"/>
     <use style="fill:#9467bd;stroke:#9467bd;" x="412.171259" xlink:href="#mc87f76b6c3" y="160.1002"/>
     <use style="fill:#9467bd;stroke:#9467bd;" x="417.272973" xlink:href="#mc87f76b6c3" y="161.838181"/>
     <use style="fill:#9467bd;stroke:#9467bd;" x="422.374688" xlink:href="#mc87f76b6c3" y="163.709259"/>
    </g>
   </g>
   <g id="patch_3">
    <path d="M 65.254688 276.812 
L 65.254688 10.7 
" style="fill:none;stroke:#000000;stroke-linecap:square;stroke-linejoin:miter;stroke-width:0.8;"/>
   </g>
   <g id="patch_4">
    <path d="M 422.374688 276.812 
L 422.374688 10.7 
" style="fill:none;stroke:#000000;stroke-linecap:square;stroke-linejoin:miter;stroke-width:0.8;"/>
   </g>
   <g id="patch_5">
    <path d="M 65.254688 276.812 
L 422.374688 276.812 
" style="fill:none;stroke:#000000;stroke-linecap:square;stroke-linejoin:miter;stroke-width:0.8;"/>
   </g>
   <g id="patch_6">
    <path d="M 65.254688 10.7 
L 422.374688 10.7 
" style="fill:none;stroke:#000000;stroke-linecap:square;stroke-linejoin:miter;stroke-width:0.8;"/>
   </g>
   <g id="text_19">
    <!-- $\left|\Delta n\right|\!\!=\!\!1$ -->
    <defs>
     <path d="M 10.59375 45.40625 
L 73.1875 45.40625 
L 73.1875 37.203125 
L 10.59375 37.203125 
z
M 10.59375 25.484375 
L 73.1875 25.484375 
L 73.1875 17.1875 
L 10.59375 17.1875 
z
" id="DejaVuSans-3d"/>
    </defs>
    <g style="fill:#1f77b4;" transform="translate(65.254688 57.859089)scale(0.2 -0.2)">
     <use transform="translate(0 0.578125)" xlink:href="#DejaVuSans-7c"/>
     <use transform="translate(33.691406 0.578125)" xlink:href="#DejaVuSans-394"/>
     <use transform="translate(102.099609 0.578125)" xlink:href="#DejaVuSans-Oblique-6e"/>
     <use transform="translate(165.478516 0.578125)" xlink:href="#DejaVuSans-7c"/>
     <use transform="translate(186.180991 0.578125)" xlink:href="#DejaVuSans-3d"/>
     <use transform="translate(256.981123 0.578125)" xlink:href="#DejaVuSans-31"/>
    </g>
   </g>
   <g id="text_20">
    <!-- $\left|\Delta n\right|\!\!=\!\!2$ -->
    <g style="fill:#ff7f0e;" transform="translate(111.170116 91.544152)scale(0.2 -0.2)">
     <use transform="translate(0 0.578125)" xlink:href="#DejaVuSans-7c"/>
     <use transform="translate(33.691406 0.578125)" xlink:href="#DejaVuSans-394"/>
     <use transform="translate(102.099609 0.578125)" xlink:href="#DejaVuSans-Oblique-6e"/>
     <use transform="translate(165.478516 0.578125)" xlink:href="#DejaVuSans-7c"/>
     <use transform="translate(186.180991 0.578125)" xlink:href="#DejaVuSans-3d"/>
     <use transform="translate(256.981123 0.578125)" xlink:href="#DejaVuSans-32"/>
    </g>
   </g>
   <g id="text_21">
    <!-- $\left|\Delta n\right|\!\!=\!\!3$ -->
    <g style="fill:#2ca02c;" transform="translate(172.390688 118.492203)scale(0.2 -0.2)">
     <use transform="translate(0 0.578125)" xlink:href="#DejaVuSans-7c"/>
     <use transform="translate(33.691406 0.578125)" xlink:href="#DejaVuSans-394"/>
     <use transform="translate(102.099609 0.578125)" xlink:href="#DejaVuSans-Oblique-6e"/>
     <use transform="translate(165.478516 0.578125)" xlink:href="#DejaVuSans-7c"/>
     <use transform="translate(186.180991 0.578125)" xlink:href="#DejaVuSans-3d"/>
     <use transform="translate(256.981123 0.578125)" xlink:href="#DejaVuSans-33"/>
    </g>
   </g>
   <g id="text_22">
    <!-- $\left|\Delta n\right|\!\!=\!4$ -->
    <g style="fill:#d62728;" transform="translate(248.916402 128.597722)scale(0.2 -0.2)">
     <use transform="translate(0 0.578125)" xlink:href="#DejaVuSans-7c"/>
     <use transform="translate(33.691406 0.578125)" xlink:href="#DejaVuSans-394"/>
     <use transform="translate(102.099609 0.578125)" xlink:href="#DejaVuSans-Oblique-6e"/>
     <use transform="translate(165.478516 0.578125)" xlink:href="#DejaVuSans-7c"/>
     <use transform="translate(186.180991 0.578125)" xlink:href="#DejaVuSans-3d"/>
     <use transform="translate(273.216799 0.578125)" xlink:href="#DejaVuSans-34"/>
    </g>
   </g>
   <g id="text_23">
    <!-- $\left|\Delta n\right|\!\!=\!5$ -->
    <g style="fill:#9467bd;" transform="translate(335.645545 135.334734)scale(0.2 -0.2)">
     <use transform="translate(0 0.578125)" xlink:href="#DejaVuSans-7c"/>
     <use transform="translate(33.691406 0.578125)" xlink:href="#DejaVuSans-394"/>
     <use transform="translate(102.099609 0.578125)" xlink:href="#DejaVuSans-Oblique-6e"/>
     <use transform="translate(165.478516 0.578125)" xlink:href="#DejaVuSans-7c"/>
     <use transform="translate(186.180991 0.578125)" xlink:href="#DejaVuSans-3d"/>
     <use transform="translate(273.216799 0.578125)" xlink:href="#DejaVuSans-35"/>
    </g>
   </g>
  </g>
 </g>
 <defs>
  <clipPath id="pff313e8731">
   <rect height="266.112" width="357.12" x="65.254688" y="10.7"/>
  </clipPath>
 </defs>
</svg>
