<?xml version="1.0" encoding="utf-8" standalone="no"?>
<!DOCTYPE svg PUBLIC "-//W3C//DTD SVG 1.1//EN"
  "http://www.w3.org/Graphics/SVG/1.1/DTD/svg11.dtd">
<!-- Created with matplotlib (http://matplotlib.org/) -->
<svg height="333pt" version="1.1" viewBox="0 0 494 333" width="494pt" xmlns="http://www.w3.org/2000/svg" xmlns:xlink="http://www.w3.org/1999/xlink">
 <defs>
  <style type="text/css">
*{stroke-linecap:butt;stroke-linejoin:round;}
  </style>
 </defs>
 <g id="figure_1">
  <g id="patch_1">
   <path d="M 0 333.983078 
L 494.138125 333.983078 
L 494.138125 0 
L 0 0 
z
" style="fill:none;"/>
  </g>
  <g id="axes_1">
   <g id="patch_2">
    <path d="M 81.678125 145.954828 
L 483.438125 145.954828 
L 483.438125 12.898828 
L 81.678125 12.898828 
z
" style="fill:none;"/>
   </g>
   <g id="matplotlib.axis_1">
    <g id="xtick_1">
     <g id="line2d_1">
      <path clip-path="url(#p26fe84aaec)" d="M 119.940982 145.954828 
L 119.940982 12.898828 
" style="fill:none;stroke:#b0b0b0;stroke-linecap:square;stroke-width:0.8;"/>
     </g>
     <g id="line2d_2">
      <defs>
       <path d="M 0 0 
L 0 3.5 
" id="mba510bfe63" style="stroke:#000000;stroke-width:0.8;"/>
      </defs>
      <g>
       <use style="stroke:#000000;stroke-width:0.8;" x="119.940982" xlink:href="#mba510bfe63" y="145.954828"/>
      </g>
     </g>
    </g>
    <g id="xtick_2">
     <g id="line2d_3">
      <path clip-path="url(#p26fe84aaec)" d="M 215.598125 145.954828 
L 215.598125 12.898828 
" style="fill:none;stroke:#b0b0b0;stroke-linecap:square;stroke-width:0.8;"/>
     </g>
     <g id="line2d_4">
      <g>
       <use style="stroke:#000000;stroke-width:0.8;" x="215.598125" xlink:href="#mba510bfe63" y="145.954828"/>
      </g>
     </g>
    </g>
    <g id="xtick_3">
     <g id="line2d_5">
      <path clip-path="url(#p26fe84aaec)" d="M 311.255268 145.954828 
L 311.255268 12.898828 
" style="fill:none;stroke:#b0b0b0;stroke-linecap:square;stroke-width:0.8;"/>
     </g>
     <g id="line2d_6">
      <g>
       <use style="stroke:#000000;stroke-width:0.8;" x="311.255268" xlink:href="#mba510bfe63" y="145.954828"/>
      </g>
     </g>
    </g>
    <g id="xtick_4">
     <g id="line2d_7">
      <path clip-path="url(#p26fe84aaec)" d="M 406.912411 145.954828 
L 406.912411 12.898828 
" style="fill:none;stroke:#b0b0b0;stroke-linecap:square;stroke-width:0.8;"/>
     </g>
     <g id="line2d_8">
      <g>
       <use style="stroke:#000000;stroke-width:0.8;" x="406.912411" xlink:href="#mba510bfe63" y="145.954828"/>
      </g>
     </g>
    </g>
   </g>
   <g id="matplotlib.axis_2">
    <g id="ytick_1">
     <g id="line2d_9">
      <path clip-path="url(#p26fe84aaec)" d="M 81.678125 145.954828 
L 483.438125 145.954828 
" style="fill:none;stroke:#b0b0b0;stroke-linecap:square;stroke-width:0.8;"/>
     </g>
     <g id="line2d_10">
      <defs>
       <path d="M 0 0 
L -3.5 0 
" id="ma43dd49c27" style="stroke:#000000;stroke-width:0.8;"/>
      </defs>
      <g>
       <use style="stroke:#000000;stroke-width:0.8;" x="81.678125" xlink:href="#ma43dd49c27" y="145.954828"/>
      </g>
     </g>
     <g id="text_1">
      <!-- 0.00 -->
      <defs>
       <path d="M 46 36.53125 
Q 46 50.203125 43.4375 55.78125 
Q 40.875 61.375 34.8125 61.375 
Q 28.765625 61.375 26.171875 55.78125 
Q 23.578125 50.203125 23.578125 36.53125 
Q 23.578125 22.703125 26.171875 17.03125 
Q 28.765625 11.375 34.8125 11.375 
Q 40.828125 11.375 43.40625 17.03125 
Q 46 22.703125 46 36.53125 
M 64.796875 36.375 
Q 64.796875 18.265625 56.984375 8.421875 
Q 49.171875 -1.421875 34.8125 -1.421875 
Q 20.40625 -1.421875 12.59375 8.421875 
Q 4.78125 18.265625 4.78125 36.375 
Q 4.78125 54.546875 12.59375 64.375 
Q 20.40625 74.21875 34.8125 74.21875 
Q 49.171875 74.21875 56.984375 64.375 
Q 64.796875 54.546875 64.796875 36.375 
" id="DejaVuSans-Bold-30"/>
       <path d="M 10.203125 18.890625 
L 27.78125 18.890625 
L 27.78125 0 
L 10.203125 0 
z
" id="DejaVuSans-Bold-2e"/>
      </defs>
      <g transform="translate(37.670313 151.653656)scale(0.15 -0.15)">
       <use xlink:href="#DejaVuSans-Bold-30"/>
       <use x="69.580078" xlink:href="#DejaVuSans-Bold-2e"/>
       <use x="107.568359" xlink:href="#DejaVuSans-Bold-30"/>
       <use x="177.148438" xlink:href="#DejaVuSans-Bold-30"/>
      </g>
     </g>
    </g>
    <g id="ytick_2">
     <g id="line2d_11">
      <path clip-path="url(#p26fe84aaec)" d="M 81.678125 112.690828 
L 483.438125 112.690828 
" style="fill:none;stroke:#b0b0b0;stroke-linecap:square;stroke-width:0.8;"/>
     </g>
     <g id="line2d_12">
      <g>
       <use style="stroke:#000000;stroke-width:0.8;" x="81.678125" xlink:href="#ma43dd49c27" y="112.690828"/>
      </g>
     </g>
     <g id="text_2">
      <!-- 0.25 -->
      <defs>
       <path d="M 28.8125 13.8125 
L 60.890625 13.8125 
L 60.890625 0 
L 7.90625 0 
L 7.90625 13.8125 
L 34.515625 37.3125 
Q 38.09375 40.53125 39.796875 43.609375 
Q 41.5 46.6875 41.5 50 
Q 41.5 55.125 38.0625 58.25 
Q 34.625 61.375 28.90625 61.375 
Q 24.515625 61.375 19.28125 59.5 
Q 14.0625 57.625 8.109375 53.90625 
L 8.109375 69.921875 
Q 14.453125 72.015625 20.65625 73.109375 
Q 26.859375 74.21875 32.8125 74.21875 
Q 45.90625 74.21875 53.15625 68.453125 
Q 60.40625 62.703125 60.40625 52.390625 
Q 60.40625 46.4375 57.328125 41.28125 
Q 54.25 36.140625 44.390625 27.484375 
z
" id="DejaVuSans-Bold-32"/>
       <path d="M 10.59375 72.90625 
L 57.328125 72.90625 
L 57.328125 59.078125 
L 25.59375 59.078125 
L 25.59375 47.796875 
Q 27.734375 48.390625 29.90625 48.703125 
Q 32.078125 49.03125 34.421875 49.03125 
Q 47.75 49.03125 55.171875 42.359375 
Q 62.59375 35.6875 62.59375 23.78125 
Q 62.59375 11.96875 54.515625 5.265625 
Q 46.4375 -1.421875 32.078125 -1.421875 
Q 25.875 -1.421875 19.796875 -0.21875 
Q 13.71875 0.984375 7.71875 3.421875 
L 7.71875 18.21875 
Q 13.671875 14.796875 19.015625 13.078125 
Q 24.359375 11.375 29.109375 11.375 
Q 35.9375 11.375 39.859375 14.71875 
Q 43.796875 18.0625 43.796875 23.78125 
Q 43.796875 29.546875 39.859375 32.859375 
Q 35.9375 36.1875 29.109375 36.1875 
Q 25.046875 36.1875 20.453125 35.125 
Q 15.875 34.078125 10.59375 31.890625 
z
" id="DejaVuSans-Bold-35"/>
      </defs>
      <g transform="translate(37.670313 118.389656)scale(0.15 -0.15)">
       <use xlink:href="#DejaVuSans-Bold-30"/>
       <use x="69.580078" xlink:href="#DejaVuSans-Bold-2e"/>
       <use x="107.568359" xlink:href="#DejaVuSans-Bold-32"/>
       <use x="177.148438" xlink:href="#DejaVuSans-Bold-35"/>
      </g>
     </g>
    </g>
    <g id="ytick_3">
     <g id="line2d_13">
      <path clip-path="url(#p26fe84aaec)" d="M 81.678125 79.426828 
L 483.438125 79.426828 
" style="fill:none;stroke:#b0b0b0;stroke-linecap:square;stroke-width:0.8;"/>
     </g>
     <g id="line2d_14">
      <g>
       <use style="stroke:#000000;stroke-width:0.8;" x="81.678125" xlink:href="#ma43dd49c27" y="79.426828"/>
      </g>
     </g>
     <g id="text_3">
      <!-- 0.50 -->
      <g transform="translate(37.670313 85.125656)scale(0.15 -0.15)">
       <use xlink:href="#DejaVuSans-Bold-30"/>
       <use x="69.580078" xlink:href="#DejaVuSans-Bold-2e"/>
       <use x="107.568359" xlink:href="#DejaVuSans-Bold-35"/>
       <use x="177.148438" xlink:href="#DejaVuSans-Bold-30"/>
      </g>
     </g>
    </g>
    <g id="ytick_4">
     <g id="line2d_15">
      <path clip-path="url(#p26fe84aaec)" d="M 81.678125 46.162828 
L 483.438125 46.162828 
" style="fill:none;stroke:#b0b0b0;stroke-linecap:square;stroke-width:0.8;"/>
     </g>
     <g id="line2d_16">
      <g>
       <use style="stroke:#000000;stroke-width:0.8;" x="81.678125" xlink:href="#ma43dd49c27" y="46.162828"/>
      </g>
     </g>
     <g id="text_4">
      <!-- 0.75 -->
      <defs>
       <path d="M 6.6875 72.90625 
L 61.625 72.90625 
L 61.625 62.3125 
L 33.203125 0 
L 14.890625 0 
L 41.796875 59.078125 
L 6.6875 59.078125 
z
" id="DejaVuSans-Bold-37"/>
      </defs>
      <g transform="translate(37.670313 51.861656)scale(0.15 -0.15)">
       <use xlink:href="#DejaVuSans-Bold-30"/>
       <use x="69.580078" xlink:href="#DejaVuSans-Bold-2e"/>
       <use x="107.568359" xlink:href="#DejaVuSans-Bold-37"/>
       <use x="177.148438" xlink:href="#DejaVuSans-Bold-35"/>
      </g>
     </g>
    </g>
    <g id="ytick_5">
     <g id="line2d_17">
      <path clip-path="url(#p26fe84aaec)" d="M 81.678125 12.898828 
L 483.438125 12.898828 
" style="fill:none;stroke:#b0b0b0;stroke-linecap:square;stroke-width:0.8;"/>
     </g>
     <g id="line2d_18">
      <g>
       <use style="stroke:#000000;stroke-width:0.8;" x="81.678125" xlink:href="#ma43dd49c27" y="12.898828"/>
      </g>
     </g>
     <g id="text_5">
      <!-- 1.00 -->
      <defs>
       <path d="M 11.71875 12.984375 
L 28.328125 12.984375 
L 28.328125 60.109375 
L 11.28125 56.59375 
L 11.28125 69.390625 
L 28.21875 72.90625 
L 46.09375 72.90625 
L 46.09375 12.984375 
L 62.703125 12.984375 
L 62.703125 0 
L 11.71875 0 
z
" id="DejaVuSans-Bold-31"/>
      </defs>
      <g transform="translate(37.670313 18.597656)scale(0.15 -0.15)">
       <use xlink:href="#DejaVuSans-Bold-31"/>
       <use x="69.580078" xlink:href="#DejaVuSans-Bold-2e"/>
       <use x="107.568359" xlink:href="#DejaVuSans-Bold-30"/>
       <use x="177.148438" xlink:href="#DejaVuSans-Bold-30"/>
      </g>
     </g>
    </g>
   </g>
   <g id="LineCollection_1">
    <path clip-path="url(#p26fe84aaec)" d="M 115.636411 139.742888 
L 115.636411 132.37583 
" style="fill:none;stroke:#ff0000;stroke-width:1.5;"/>
    <path clip-path="url(#p26fe84aaec)" d="M 119.462696 139.486329 
L 119.462696 132.603665 
" style="fill:none;stroke:#ff0000;stroke-width:1.5;"/>
    <path clip-path="url(#p26fe84aaec)" d="M 123.288982 134.111846 
L 123.288982 126.019729 
" style="fill:none;stroke:#ff0000;stroke-width:1.5;"/>
    <path clip-path="url(#p26fe84aaec)" d="M 127.115268 102.944562 
L 127.115268 89.335534 
" style="fill:none;stroke:#ff0000;stroke-width:1.5;"/>
    <path clip-path="url(#p26fe84aaec)" d="M 130.941554 58.642517 
L 130.941554 45.015866 
" style="fill:none;stroke:#ff0000;stroke-width:1.5;"/>
    <path clip-path="url(#p26fe84aaec)" d="M 134.767839 42.180512 
L 134.767839 30.802052 
" style="fill:none;stroke:#ff0000;stroke-width:1.5;"/>
    <path clip-path="url(#p26fe84aaec)" d="M 138.594125 77.365332 
L 138.594125 63.607012 
" style="fill:none;stroke:#ff0000;stroke-width:1.5;"/>
    <path clip-path="url(#p26fe84aaec)" d="M 142.420411 118.065796 
L 142.420411 106.457008 
" style="fill:none;stroke:#ff0000;stroke-width:1.5;"/>
    <path clip-path="url(#p26fe84aaec)" d="M 146.246696 138.13362 
L 146.246696 129.902352 
" style="fill:none;stroke:#ff0000;stroke-width:1.5;"/>
    <path clip-path="url(#p26fe84aaec)" d="M 150.072982 140.418265 
L 150.072982 133.814048 
" style="fill:none;stroke:#ff0000;stroke-width:1.5;"/>
    <path clip-path="url(#p26fe84aaec)" d="M 153.899268 145.480679 
L 153.899268 142.743216 
" style="fill:none;stroke:#ff0000;stroke-width:1.5;"/>
   </g>
   <g id="LineCollection_2">
    <path clip-path="url(#p26fe84aaec)" d="M 275.383839 145.954828 
L 275.383839 144.525655 
" style="fill:none;stroke:#ff0000;stroke-width:1.5;"/>
    <path clip-path="url(#p26fe84aaec)" d="M 279.210125 140.249083 
L 279.210125 133.45291 
" style="fill:none;stroke:#ff0000;stroke-width:1.5;"/>
    <path clip-path="url(#p26fe84aaec)" d="M 283.036411 138.397045 
L 283.036411 130.425971 
" style="fill:none;stroke:#ff0000;stroke-width:1.5;"/>
    <path clip-path="url(#p26fe84aaec)" d="M 286.862696 136.223331 
L 286.862696 126.999553 
" style="fill:none;stroke:#ff0000;stroke-width:1.5;"/>
    <path clip-path="url(#p26fe84aaec)" d="M 290.688982 94.730341 
L 290.688982 80.930389 
" style="fill:none;stroke:#ff0000;stroke-width:1.5;"/>
    <path clip-path="url(#p26fe84aaec)" d="M 294.515268 75.777955 
L 294.515268 61.633687 
" style="fill:none;stroke:#ff0000;stroke-width:1.5;"/>
    <path clip-path="url(#p26fe84aaec)" d="M 298.341554 81.424385 
L 298.341554 67.758535 
" style="fill:none;stroke:#ff0000;stroke-width:1.5;"/>
    <path clip-path="url(#p26fe84aaec)" d="M 302.167839 119.973911 
L 302.167839 107.866227 
" style="fill:none;stroke:#ff0000;stroke-width:1.5;"/>
    <path clip-path="url(#p26fe84aaec)" d="M 305.994125 144.549533 
L 305.994125 140.426512 
" style="fill:none;stroke:#ff0000;stroke-width:1.5;"/>
    <path clip-path="url(#p26fe84aaec)" d="M 309.820411 142.745093 
L 309.820411 137.492984 
" style="fill:none;stroke:#ff0000;stroke-width:1.5;"/>
    <path clip-path="url(#p26fe84aaec)" d="M 313.646696 142.448498 
L 313.646696 136.728526 
" style="fill:none;stroke:#ff0000;stroke-width:1.5;"/>
   </g>
   <g id="LineCollection_3">
    <path clip-path="url(#p26fe84aaec)" d="M 352.866125 142.091504 
L 352.866125 135.812257 
" style="fill:none;stroke:#ff0000;stroke-width:1.5;"/>
    <path clip-path="url(#p26fe84aaec)" d="M 356.979382 145.413511 
L 356.979382 142.294377 
" style="fill:none;stroke:#ff0000;stroke-width:1.5;"/>
    <path clip-path="url(#p26fe84aaec)" d="M 361.092639 144.549533 
L 361.092639 140.426512 
" style="fill:none;stroke:#ff0000;stroke-width:1.5;"/>
    <path clip-path="url(#p26fe84aaec)" d="M 365.205896 139.054135 
L 365.205896 130.918578 
" style="fill:none;stroke:#ff0000;stroke-width:1.5;"/>
    <path clip-path="url(#p26fe84aaec)" d="M 369.319154 142.412124 
L 369.319154 136.634976 
" style="fill:none;stroke:#ff0000;stroke-width:1.5;"/>
    <path clip-path="url(#p26fe84aaec)" d="M 373.432411 137.65783 
L 373.432411 129.705412 
" style="fill:none;stroke:#ff0000;stroke-width:1.5;"/>
    <path clip-path="url(#p26fe84aaec)" d="M 377.545668 131.303922 
L 377.545668 121.922787 
" style="fill:none;stroke:#ff0000;stroke-width:1.5;"/>
    <path clip-path="url(#p26fe84aaec)" d="M 381.658925 132.052484 
L 381.658925 122.206917 
" style="fill:none;stroke:#ff0000;stroke-width:1.5;"/>
    <path clip-path="url(#p26fe84aaec)" d="M 385.772182 140.525587 
L 385.772182 134.043437 
" style="fill:none;stroke:#ff0000;stroke-width:1.5;"/>
    <path clip-path="url(#p26fe84aaec)" d="M 389.885439 143.492157 
L 389.885439 138.413289 
" style="fill:none;stroke:#ff0000;stroke-width:1.5;"/>
    <path clip-path="url(#p26fe84aaec)" d="M 393.998696 145.954828 
L 393.998696 144.704302 
" style="fill:none;stroke:#ff0000;stroke-width:1.5;"/>
   </g>
   <g id="LineCollection_4">
    <path clip-path="url(#p26fe84aaec)" d="M 89.330696 143.636282 
L 89.330696 138.84633 
" style="fill:none;stroke:#000000;stroke-width:1.5;"/>
    <path clip-path="url(#p26fe84aaec)" d="M 93.156982 141.603953 
L 93.156982 135.632861 
" style="fill:none;stroke:#000000;stroke-width:1.5;"/>
    <path clip-path="url(#p26fe84aaec)" d="M 96.983268 124.828613 
L 96.983268 114.049015 
" style="fill:none;stroke:#000000;stroke-width:1.5;"/>
    <path clip-path="url(#p26fe84aaec)" d="M 100.809554 103.811448 
L 100.809554 90.606196 
" style="fill:none;stroke:#000000;stroke-width:1.5;"/>
    <path clip-path="url(#p26fe84aaec)" d="M 104.635839 65.474001 
L 104.635839 52.343692 
" style="fill:none;stroke:#000000;stroke-width:1.5;"/>
    <path clip-path="url(#p26fe84aaec)" d="M 108.462125 78.706301 
L 108.462125 64.655987 
" style="fill:none;stroke:#000000;stroke-width:1.5;"/>
    <path clip-path="url(#p26fe84aaec)" d="M 112.288411 102.9328 
L 112.288411 89.535003 
" style="fill:none;stroke:#000000;stroke-width:1.5;"/>
    <path clip-path="url(#p26fe84aaec)" d="M 116.114696 130.189082 
L 116.114696 119.70289 
" style="fill:none;stroke:#000000;stroke-width:1.5;"/>
    <path clip-path="url(#p26fe84aaec)" d="M 119.940982 143.590152 
L 119.940982 138.707616 
" style="fill:none;stroke:#000000;stroke-width:1.5;"/>
    <path clip-path="url(#p26fe84aaec)" d="M 123.767268 145.396564 
L 123.767268 142.181372 
" style="fill:none;stroke:#000000;stroke-width:1.5;"/>
    <path clip-path="url(#p26fe84aaec)" d="M 127.593554 143.542149 
L 127.593554 138.563381 
" style="fill:none;stroke:#000000;stroke-width:1.5;"/>
   </g>
   <g id="LineCollection_5">
    <path clip-path="url(#p26fe84aaec)" d="M 308.385554 144.563494 
L 308.385554 140.480528 
" style="fill:none;stroke:#000000;stroke-width:1.5;"/>
    <path clip-path="url(#p26fe84aaec)" d="M 313.168411 145.396564 
L 313.168411 142.181372 
" style="fill:none;stroke:#000000;stroke-width:1.5;"/>
    <path clip-path="url(#p26fe84aaec)" d="M 317.951268 142.13472 
L 317.951268 135.922952 
" style="fill:none;stroke:#000000;stroke-width:1.5;"/>
    <path clip-path="url(#p26fe84aaec)" d="M 322.734125 134.162568 
L 322.734125 125.208141 
" style="fill:none;stroke:#000000;stroke-width:1.5;"/>
    <path clip-path="url(#p26fe84aaec)" d="M 327.516982 112.698098 
L 327.516982 100.16839 
" style="fill:none;stroke:#000000;stroke-width:1.5;"/>
    <path clip-path="url(#p26fe84aaec)" d="M 332.299839 95.906136 
L 332.299839 81.934893 
" style="fill:none;stroke:#000000;stroke-width:1.5;"/>
    <path clip-path="url(#p26fe84aaec)" d="M 337.082696 117.511725 
L 337.082696 105.715178 
" style="fill:none;stroke:#000000;stroke-width:1.5;"/>
    <path clip-path="url(#p26fe84aaec)" d="M 341.865554 137.249766 
L 341.865554 129.554984 
" style="fill:none;stroke:#000000;stroke-width:1.5;"/>
    <path clip-path="url(#p26fe84aaec)" d="M 346.648411 144.196725 
L 346.648411 139.067318 
" style="fill:none;stroke:#000000;stroke-width:1.5;"/>
    <path clip-path="url(#p26fe84aaec)" d="M 351.431268 145.40233 
L 351.431268 142.219808 
" style="fill:none;stroke:#000000;stroke-width:1.5;"/>
    <path clip-path="url(#p26fe84aaec)" d="M 356.214125 145.954828 
L 356.214125 144.715368 
" style="fill:none;stroke:#000000;stroke-width:1.5;"/>
   </g>
   <g id="LineCollection_6">
    <path clip-path="url(#p26fe84aaec)" d="M 415.521554 145.954828 
L 415.521554 144.581701 
" style="fill:none;stroke:#000000;stroke-width:1.5;"/>
    <path clip-path="url(#p26fe84aaec)" d="M 421.260982 145.954828 
L 421.260982 144.540091 
" style="fill:none;stroke:#000000;stroke-width:1.5;"/>
    <path clip-path="url(#p26fe84aaec)" d="M 427.000411 143.517409 
L 427.000411 138.489089 
" style="fill:none;stroke:#000000;stroke-width:1.5;"/>
    <path clip-path="url(#p26fe84aaec)" d="M 432.739839 143.328926 
L 432.739839 137.924071 
" style="fill:none;stroke:#000000;stroke-width:1.5;"/>
    <path clip-path="url(#p26fe84aaec)" d="M 438.479268 142.553272 
L 438.479268 136.998242 
" style="fill:none;stroke:#000000;stroke-width:1.5;"/>
    <path clip-path="url(#p26fe84aaec)" d="M 444.218696 139.359591 
L 444.218696 132.349255 
" style="fill:none;stroke:#000000;stroke-width:1.5;"/>
    <path clip-path="url(#p26fe84aaec)" d="M 449.958125 141.686604 
L 449.958125 135.824469 
" style="fill:none;stroke:#000000;stroke-width:1.5;"/>
    <path clip-path="url(#p26fe84aaec)" d="M 455.697554 144.410032 
L 455.697554 139.887725 
" style="fill:none;stroke:#000000;stroke-width:1.5;"/>
    <path clip-path="url(#p26fe84aaec)" d="M 461.436982 145.407977 
L 461.436982 142.257468 
" style="fill:none;stroke:#000000;stroke-width:1.5;"/>
    <path clip-path="url(#p26fe84aaec)" d="M 467.176411 144.459511 
L 467.176411 140.078621 
" style="fill:none;stroke:#000000;stroke-width:1.5;"/>
    <path clip-path="url(#p26fe84aaec)" d="M 472.915839 145.372247 
L 472.915839 142.019379 
" style="fill:none;stroke:#000000;stroke-width:1.5;"/>
   </g>
   <g id="line2d_19">
    <path clip-path="url(#p26fe84aaec)" d="M 115.636411 136.059359 
L 119.462696 136.044997 
L 123.288982 130.065788 
L 127.115268 96.140048 
L 130.941554 51.829191 
L 134.767839 36.491282 
L 138.594125 70.486172 
L 142.420411 112.261402 
L 146.246696 134.017986 
L 150.072982 137.116157 
L 153.899268 144.111947 
" style="fill:none;stroke:#ff0000;stroke-linecap:square;stroke-width:1.5;"/>
    <defs>
     <path d="M 0 3 
C 0.795609 3 1.55874 2.683901 2.12132 2.12132 
C 2.683901 1.55874 3 0.795609 3 0 
C 3 -0.795609 2.683901 -1.55874 2.12132 -2.12132 
C 1.55874 -2.683901 0.795609 -3 0 -3 
C -0.795609 -3 -1.55874 -2.683901 -2.12132 -2.12132 
C -2.683901 -1.55874 -3 -0.795609 -3 0 
C -3 0.795609 -2.683901 1.55874 -2.12132 2.12132 
C -1.55874 2.683901 -0.795609 3 0 3 
z
" id="m662e251709" style="stroke:#ff0000;"/>
    </defs>
    <g clip-path="url(#p26fe84aaec)">
     <use style="fill:#ff0000;stroke:#ff0000;" x="115.636411" xlink:href="#m662e251709" y="136.059359"/>
     <use style="fill:#ff0000;stroke:#ff0000;" x="119.462696" xlink:href="#m662e251709" y="136.044997"/>
     <use style="fill:#ff0000;stroke:#ff0000;" x="123.288982" xlink:href="#m662e251709" y="130.065788"/>
     <use style="fill:#ff0000;stroke:#ff0000;" x="127.115268" xlink:href="#m662e251709" y="96.140048"/>
     <use style="fill:#ff0000;stroke:#ff0000;" x="130.941554" xlink:href="#m662e251709" y="51.829191"/>
     <use style="fill:#ff0000;stroke:#ff0000;" x="134.767839" xlink:href="#m662e251709" y="36.491282"/>
     <use style="fill:#ff0000;stroke:#ff0000;" x="138.594125" xlink:href="#m662e251709" y="70.486172"/>
     <use style="fill:#ff0000;stroke:#ff0000;" x="142.420411" xlink:href="#m662e251709" y="112.261402"/>
     <use style="fill:#ff0000;stroke:#ff0000;" x="146.246696" xlink:href="#m662e251709" y="134.017986"/>
     <use style="fill:#ff0000;stroke:#ff0000;" x="150.072982" xlink:href="#m662e251709" y="137.116157"/>
     <use style="fill:#ff0000;stroke:#ff0000;" x="153.899268" xlink:href="#m662e251709" y="144.111947"/>
    </g>
   </g>
   <g id="line2d_20">
    <path clip-path="url(#p26fe84aaec)" d="M 275.383839 145.240242 
L 279.210125 136.850997 
L 283.036411 134.411508 
L 286.862696 131.611442 
L 290.688982 87.830365 
L 294.515268 68.705821 
L 298.341554 74.59146 
L 302.167839 113.920069 
L 305.994125 142.488022 
L 309.820411 140.119039 
L 313.646696 139.588512 
" style="fill:none;stroke:#ff0000;stroke-linecap:square;stroke-width:1.5;"/>
    <g clip-path="url(#p26fe84aaec)">
     <use style="fill:#ff0000;stroke:#ff0000;" x="275.383839" xlink:href="#m662e251709" y="145.240242"/>
     <use style="fill:#ff0000;stroke:#ff0000;" x="279.210125" xlink:href="#m662e251709" y="136.850997"/>
     <use style="fill:#ff0000;stroke:#ff0000;" x="283.036411" xlink:href="#m662e251709" y="134.411508"/>
     <use style="fill:#ff0000;stroke:#ff0000;" x="286.862696" xlink:href="#m662e251709" y="131.611442"/>
     <use style="fill:#ff0000;stroke:#ff0000;" x="290.688982" xlink:href="#m662e251709" y="87.830365"/>
     <use style="fill:#ff0000;stroke:#ff0000;" x="294.515268" xlink:href="#m662e251709" y="68.705821"/>
     <use style="fill:#ff0000;stroke:#ff0000;" x="298.341554" xlink:href="#m662e251709" y="74.59146"/>
     <use style="fill:#ff0000;stroke:#ff0000;" x="302.167839" xlink:href="#m662e251709" y="113.920069"/>
     <use style="fill:#ff0000;stroke:#ff0000;" x="305.994125" xlink:href="#m662e251709" y="142.488022"/>
     <use style="fill:#ff0000;stroke:#ff0000;" x="309.820411" xlink:href="#m662e251709" y="140.119039"/>
     <use style="fill:#ff0000;stroke:#ff0000;" x="313.646696" xlink:href="#m662e251709" y="139.588512"/>
    </g>
   </g>
   <g id="line2d_21">
    <path clip-path="url(#p26fe84aaec)" d="M 352.866125 138.951881 
L 356.979382 143.853944 
L 361.092639 142.488022 
L 365.205896 134.986356 
L 369.319154 139.52355 
L 373.432411 133.681621 
L 377.545668 126.613354 
L 381.658925 127.129701 
L 385.772182 137.284512 
L 389.885439 140.952723 
L 393.998696 145.329565 
" style="fill:none;stroke:#ff0000;stroke-linecap:square;stroke-width:1.5;"/>
    <g clip-path="url(#p26fe84aaec)">
     <use style="fill:#ff0000;stroke:#ff0000;" x="352.866125" xlink:href="#m662e251709" y="138.951881"/>
     <use style="fill:#ff0000;stroke:#ff0000;" x="356.979382" xlink:href="#m662e251709" y="143.853944"/>
     <use style="fill:#ff0000;stroke:#ff0000;" x="361.092639" xlink:href="#m662e251709" y="142.488022"/>
     <use style="fill:#ff0000;stroke:#ff0000;" x="365.205896" xlink:href="#m662e251709" y="134.986356"/>
     <use style="fill:#ff0000;stroke:#ff0000;" x="369.319154" xlink:href="#m662e251709" y="139.52355"/>
     <use style="fill:#ff0000;stroke:#ff0000;" x="373.432411" xlink:href="#m662e251709" y="133.681621"/>
     <use style="fill:#ff0000;stroke:#ff0000;" x="377.545668" xlink:href="#m662e251709" y="126.613354"/>
     <use style="fill:#ff0000;stroke:#ff0000;" x="381.658925" xlink:href="#m662e251709" y="127.129701"/>
     <use style="fill:#ff0000;stroke:#ff0000;" x="385.772182" xlink:href="#m662e251709" y="137.284512"/>
     <use style="fill:#ff0000;stroke:#ff0000;" x="389.885439" xlink:href="#m662e251709" y="140.952723"/>
     <use style="fill:#ff0000;stroke:#ff0000;" x="393.998696" xlink:href="#m662e251709" y="145.329565"/>
    </g>
   </g>
   <g id="line2d_22">
    <path clip-path="url(#p26fe84aaec)" d="M 89.330696 141.241306 
L 93.156982 138.618407 
L 96.983268 119.438814 
L 100.809554 97.208822 
L 104.635839 58.908847 
L 108.462125 71.681144 
L 112.288411 96.233902 
L 116.114696 124.945986 
L 119.940982 141.148884 
L 123.767268 143.788968 
L 127.593554 141.052765 
" style="fill:none;stroke:#000000;stroke-linecap:square;stroke-width:1.5;"/>
    <defs>
     <path d="M 0 3 
C 0.795609 3 1.55874 2.683901 2.12132 2.12132 
C 2.683901 1.55874 3 0.795609 3 0 
C 3 -0.795609 2.683901 -1.55874 2.12132 -2.12132 
C 1.55874 -2.683901 0.795609 -3 0 -3 
C -0.795609 -3 -1.55874 -2.683901 -2.12132 -2.12132 
C -2.683901 -1.55874 -3 -0.795609 -3 0 
C -3 0.795609 -2.683901 1.55874 -2.12132 2.12132 
C -1.55874 2.683901 -0.795609 3 0 3 
z
" id="m8c7e754792" style="stroke:#000000;"/>
    </defs>
    <g clip-path="url(#p26fe84aaec)">
     <use style="stroke:#000000;" x="89.330696" xlink:href="#m8c7e754792" y="141.241306"/>
     <use style="stroke:#000000;" x="93.156982" xlink:href="#m8c7e754792" y="138.618407"/>
     <use style="stroke:#000000;" x="96.983268" xlink:href="#m8c7e754792" y="119.438814"/>
     <use style="stroke:#000000;" x="100.809554" xlink:href="#m8c7e754792" y="97.208822"/>
     <use style="stroke:#000000;" x="104.635839" xlink:href="#m8c7e754792" y="58.908847"/>
     <use style="stroke:#000000;" x="108.462125" xlink:href="#m8c7e754792" y="71.681144"/>
     <use style="stroke:#000000;" x="112.288411" xlink:href="#m8c7e754792" y="96.233902"/>
     <use style="stroke:#000000;" x="116.114696" xlink:href="#m8c7e754792" y="124.945986"/>
     <use style="stroke:#000000;" x="119.940982" xlink:href="#m8c7e754792" y="141.148884"/>
     <use style="stroke:#000000;" x="123.767268" xlink:href="#m8c7e754792" y="143.788968"/>
     <use style="stroke:#000000;" x="127.593554" xlink:href="#m8c7e754792" y="141.052765"/>
    </g>
   </g>
   <g id="line2d_23">
    <path clip-path="url(#p26fe84aaec)" d="M 308.385554 142.522011 
L 313.168411 143.788968 
L 317.951268 139.028836 
L 322.734125 129.685354 
L 327.516982 106.433244 
L 332.299839 88.920515 
L 337.082696 111.613452 
L 341.865554 133.402375 
L 346.648411 141.632021 
L 351.431268 143.811069 
L 356.214125 145.335098 
" style="fill:none;stroke:#000000;stroke-linecap:square;stroke-width:1.5;"/>
    <g clip-path="url(#p26fe84aaec)">
     <use style="stroke:#000000;" x="308.385554" xlink:href="#m8c7e754792" y="142.522011"/>
     <use style="stroke:#000000;" x="313.168411" xlink:href="#m8c7e754792" y="143.788968"/>
     <use style="stroke:#000000;" x="317.951268" xlink:href="#m8c7e754792" y="139.028836"/>
     <use style="stroke:#000000;" x="322.734125" xlink:href="#m8c7e754792" y="129.685354"/>
     <use style="stroke:#000000;" x="327.516982" xlink:href="#m8c7e754792" y="106.433244"/>
     <use style="stroke:#000000;" x="332.299839" xlink:href="#m8c7e754792" y="88.920515"/>
     <use style="stroke:#000000;" x="337.082696" xlink:href="#m8c7e754792" y="111.613452"/>
     <use style="stroke:#000000;" x="341.865554" xlink:href="#m8c7e754792" y="133.402375"/>
     <use style="stroke:#000000;" x="346.648411" xlink:href="#m8c7e754792" y="141.632021"/>
     <use style="stroke:#000000;" x="351.431268" xlink:href="#m8c7e754792" y="143.811069"/>
     <use style="stroke:#000000;" x="356.214125" xlink:href="#m8c7e754792" y="145.335098"/>
    </g>
   </g>
   <g id="line2d_24">
    <path clip-path="url(#p26fe84aaec)" d="M 415.521554 145.268265 
L 421.260982 145.24746 
L 427.000411 141.003249 
L 432.739839 140.626499 
L 438.479268 139.775757 
L 444.218696 135.854423 
L 449.958125 138.755536 
L 455.697554 142.148878 
L 461.436982 143.832723 
L 467.176411 142.269066 
L 472.915839 143.695813 
" style="fill:none;stroke:#000000;stroke-linecap:square;stroke-width:1.5;"/>
    <g clip-path="url(#p26fe84aaec)">
     <use style="stroke:#000000;" x="415.521554" xlink:href="#m8c7e754792" y="145.268265"/>
     <use style="stroke:#000000;" x="421.260982" xlink:href="#m8c7e754792" y="145.24746"/>
     <use style="stroke:#000000;" x="427.000411" xlink:href="#m8c7e754792" y="141.003249"/>
     <use style="stroke:#000000;" x="432.739839" xlink:href="#m8c7e754792" y="140.626499"/>
     <use style="stroke:#000000;" x="438.479268" xlink:href="#m8c7e754792" y="139.775757"/>
     <use style="stroke:#000000;" x="444.218696" xlink:href="#m8c7e754792" y="135.854423"/>
     <use style="stroke:#000000;" x="449.958125" xlink:href="#m8c7e754792" y="138.755536"/>
     <use style="stroke:#000000;" x="455.697554" xlink:href="#m8c7e754792" y="142.148878"/>
     <use style="stroke:#000000;" x="461.436982" xlink:href="#m8c7e754792" y="143.832723"/>
     <use style="stroke:#000000;" x="467.176411" xlink:href="#m8c7e754792" y="142.269066"/>
     <use style="stroke:#000000;" x="472.915839" xlink:href="#m8c7e754792" y="143.695813"/>
    </g>
   </g>
   <g id="patch_3">
    <path d="M 81.678125 145.954828 
L 81.678125 12.898828 
" style="fill:none;stroke:#000000;stroke-linecap:square;stroke-linejoin:miter;stroke-width:0.8;"/>
   </g>
   <g id="patch_4">
    <path d="M 483.438125 145.954828 
L 483.438125 12.898828 
" style="fill:none;stroke:#000000;stroke-linecap:square;stroke-linejoin:miter;stroke-width:0.8;"/>
   </g>
   <g id="patch_5">
    <path d="M 81.678125 145.954828 
L 483.438125 145.954828 
" style="fill:none;stroke:#000000;stroke-linecap:square;stroke-linejoin:miter;stroke-width:0.8;"/>
   </g>
   <g id="patch_6">
    <path d="M 81.678125 12.898828 
L 483.438125 12.898828 
" style="fill:none;stroke:#000000;stroke-linecap:square;stroke-linejoin:miter;stroke-width:0.8;"/>
   </g>
   <g id="legend_1">
    <g id="patch_7">
     <path d="M 337.4225 87.611328 
L 469.438125 87.611328 
Q 473.438125 87.611328 473.438125 83.611328 
L 473.438125 26.898828 
Q 473.438125 22.898828 469.438125 22.898828 
L 337.4225 22.898828 
Q 333.4225 22.898828 333.4225 26.898828 
L 333.4225 83.611328 
Q 333.4225 87.611328 337.4225 87.611328 
z
" style="fill:#ffffff;opacity:0.8;stroke:#cccccc;stroke-linejoin:miter;"/>
    </g>
    <g id="LineCollection_7">
     <path d="M 361.4225 49.095703 
L 361.4225 29.095703 
" style="fill:none;stroke:#ff0000;stroke-width:1.5;"/>
    </g>
    <g id="line2d_25">
     <path d="M 341.4225 39.095703 
L 381.4225 39.095703 
" style="fill:none;stroke:#ff0000;stroke-linecap:square;stroke-width:1.5;"/>
    </g>
    <g id="line2d_26">
     <g>
      <use style="fill:#ff0000;stroke:#ff0000;" x="361.4225" xlink:href="#m662e251709" y="39.095703"/>
     </g>
    </g>
    <g id="text_6">
     <!-- Axis 2 -->
     <defs>
      <path d="M 53.421875 13.28125 
L 24.03125 13.28125 
L 19.390625 0 
L 0.484375 0 
L 27.484375 72.90625 
L 49.90625 72.90625 
L 76.90625 0 
L 58.015625 0 
z
M 28.71875 26.8125 
L 48.6875 26.8125 
L 38.71875 55.8125 
z
" id="DejaVuSans-Bold-41"/>
      <path d="M 22.21875 27.984375 
L 2.484375 54.6875 
L 21 54.6875 
L 32.171875 38.484375 
L 43.5 54.6875 
L 62.015625 54.6875 
L 42.28125 28.078125 
L 62.984375 0 
L 44.484375 0 
L 32.171875 17.28125 
L 20.015625 0 
L 1.515625 0 
z
" id="DejaVuSans-Bold-78"/>
      <path d="M 8.40625 54.6875 
L 25.875 54.6875 
L 25.875 0 
L 8.40625 0 
z
M 8.40625 75.984375 
L 25.875 75.984375 
L 25.875 61.71875 
L 8.40625 61.71875 
z
" id="DejaVuSans-Bold-69"/>
      <path d="M 51.125 52.984375 
L 51.125 39.703125 
Q 45.515625 42.046875 40.28125 43.21875 
Q 35.0625 44.390625 30.421875 44.390625 
Q 25.4375 44.390625 23.015625 43.140625 
Q 20.609375 41.890625 20.609375 39.3125 
Q 20.609375 37.203125 22.4375 36.078125 
Q 24.265625 34.96875 29 34.421875 
L 32.078125 33.984375 
Q 45.515625 32.28125 50.140625 28.375 
Q 54.78125 24.46875 54.78125 16.109375 
Q 54.78125 7.375 48.328125 2.96875 
Q 41.890625 -1.421875 29.109375 -1.421875 
Q 23.6875 -1.421875 17.890625 -0.5625 
Q 12.109375 0.296875 6 2 
L 6 15.28125 
Q 11.234375 12.75 16.71875 11.46875 
Q 22.21875 10.203125 27.875 10.203125 
Q 33.015625 10.203125 35.59375 11.609375 
Q 38.1875 13.03125 38.1875 15.828125 
Q 38.1875 18.171875 36.40625 19.3125 
Q 34.625 20.453125 29.296875 21.09375 
L 26.21875 21.484375 
Q 14.546875 22.953125 9.859375 26.90625 
Q 5.171875 30.859375 5.171875 38.921875 
Q 5.171875 47.609375 11.125 51.796875 
Q 17.09375 56 29.390625 56 
Q 34.234375 56 39.546875 55.265625 
Q 44.875 54.546875 51.125 52.984375 
" id="DejaVuSans-Bold-73"/>
      <path id="DejaVuSans-Bold-20"/>
     </defs>
     <g transform="translate(397.4225 46.095703)scale(0.2 -0.2)">
      <use xlink:href="#DejaVuSans-Bold-41"/>
      <use x="77.392578" xlink:href="#DejaVuSans-Bold-78"/>
      <use x="141.894531" xlink:href="#DejaVuSans-Bold-69"/>
      <use x="176.171875" xlink:href="#DejaVuSans-Bold-73"/>
      <use x="235.693359" xlink:href="#DejaVuSans-Bold-20"/>
      <use x="270.507812" xlink:href="#DejaVuSans-Bold-32"/>
     </g>
    </g>
    <g id="LineCollection_8">
     <path d="M 361.4225 78.451953 
L 361.4225 58.451953 
" style="fill:none;stroke:#000000;stroke-width:1.5;"/>
    </g>
    <g id="line2d_27">
     <path d="M 341.4225 68.451953 
L 381.4225 68.451953 
" style="fill:none;stroke:#000000;stroke-linecap:square;stroke-width:1.5;"/>
    </g>
    <g id="line2d_28">
     <g>
      <use style="stroke:#000000;" x="361.4225" xlink:href="#m8c7e754792" y="68.451953"/>
     </g>
    </g>
    <g id="text_7">
     <!-- Axis 3 -->
     <defs>
      <path d="M 46.578125 39.3125 
Q 53.953125 37.40625 57.78125 32.6875 
Q 61.625 27.984375 61.625 20.703125 
Q 61.625 9.859375 53.3125 4.21875 
Q 45.015625 -1.421875 29.109375 -1.421875 
Q 23.484375 -1.421875 17.84375 -0.515625 
Q 12.203125 0.390625 6.6875 2.203125 
L 6.6875 16.703125 
Q 11.96875 14.0625 17.15625 12.71875 
Q 22.359375 11.375 27.390625 11.375 
Q 34.859375 11.375 38.84375 13.953125 
Q 42.828125 16.546875 42.828125 21.390625 
Q 42.828125 26.375 38.75 28.9375 
Q 34.671875 31.5 26.703125 31.5 
L 19.1875 31.5 
L 19.1875 43.609375 
L 27.09375 43.609375 
Q 34.1875 43.609375 37.640625 45.828125 
Q 41.109375 48.046875 41.109375 52.59375 
Q 41.109375 56.78125 37.734375 59.078125 
Q 34.375 61.375 28.21875 61.375 
Q 23.6875 61.375 19.046875 60.34375 
Q 14.40625 59.328125 9.8125 57.328125 
L 9.8125 71.09375 
Q 15.375 72.65625 20.84375 73.4375 
Q 26.3125 74.21875 31.59375 74.21875 
Q 45.796875 74.21875 52.84375 69.546875 
Q 59.90625 64.890625 59.90625 55.515625 
Q 59.90625 49.125 56.53125 45.046875 
Q 53.171875 40.96875 46.578125 39.3125 
" id="DejaVuSans-Bold-33"/>
     </defs>
     <g transform="translate(397.4225 75.451953)scale(0.2 -0.2)">
      <use xlink:href="#DejaVuSans-Bold-41"/>
      <use x="77.392578" xlink:href="#DejaVuSans-Bold-78"/>
      <use x="141.894531" xlink:href="#DejaVuSans-Bold-69"/>
      <use x="176.171875" xlink:href="#DejaVuSans-Bold-73"/>
      <use x="235.693359" xlink:href="#DejaVuSans-Bold-20"/>
      <use x="270.507812" xlink:href="#DejaVuSans-Bold-33"/>
     </g>
    </g>
   </g>
  </g>
  <g id="axes_2">
   <g id="patch_8">
    <path d="M 81.678125 279.010828 
L 483.438125 279.010828 
L 483.438125 145.954828 
L 81.678125 145.954828 
z
" style="fill:none;"/>
   </g>
   <g id="matplotlib.axis_3">
    <g id="xtick_5">
     <g id="line2d_29">
      <path clip-path="url(#p07898b4671)" d="M 119.940982 279.010828 
L 119.940982 145.954828 
" style="fill:none;stroke:#b0b0b0;stroke-linecap:square;stroke-width:0.8;"/>
     </g>
     <g id="line2d_30">
      <g>
       <use style="stroke:#000000;stroke-width:0.8;" x="119.940982" xlink:href="#mba510bfe63" y="279.010828"/>
      </g>
     </g>
     <g id="text_8">
      <!-- −500 -->
      <defs>
       <path d="M 10.59375 37.109375 
L 73.1875 37.109375 
L 73.1875 25.59375 
L 10.59375 25.59375 
z
" id="DejaVuSans-Bold-2212"/>
      </defs>
      <g transform="translate(98.001138 297.408484)scale(0.15 -0.15)">
       <use xlink:href="#DejaVuSans-Bold-2212"/>
       <use x="83.789062" xlink:href="#DejaVuSans-Bold-35"/>
       <use x="153.369141" xlink:href="#DejaVuSans-Bold-30"/>
       <use x="222.949219" xlink:href="#DejaVuSans-Bold-30"/>
      </g>
     </g>
    </g>
    <g id="xtick_6">
     <g id="line2d_31">
      <path clip-path="url(#p07898b4671)" d="M 215.598125 279.010828 
L 215.598125 145.954828 
" style="fill:none;stroke:#b0b0b0;stroke-linecap:square;stroke-width:0.8;"/>
     </g>
     <g id="line2d_32">
      <g>
       <use style="stroke:#000000;stroke-width:0.8;" x="215.598125" xlink:href="#mba510bfe63" y="279.010828"/>
      </g>
     </g>
     <g id="text_9">
      <!-- 0 -->
      <g transform="translate(210.379766 297.408484)scale(0.15 -0.15)">
       <use xlink:href="#DejaVuSans-Bold-30"/>
      </g>
     </g>
    </g>
    <g id="xtick_7">
     <g id="line2d_33">
      <path clip-path="url(#p07898b4671)" d="M 311.255268 279.010828 
L 311.255268 145.954828 
" style="fill:none;stroke:#b0b0b0;stroke-linecap:square;stroke-width:0.8;"/>
     </g>
     <g id="line2d_34">
      <g>
       <use style="stroke:#000000;stroke-width:0.8;" x="311.255268" xlink:href="#mba510bfe63" y="279.010828"/>
      </g>
     </g>
     <g id="text_10">
      <!-- 500 -->
      <g transform="translate(295.60019 297.408484)scale(0.15 -0.15)">
       <use xlink:href="#DejaVuSans-Bold-35"/>
       <use x="69.580078" xlink:href="#DejaVuSans-Bold-30"/>
       <use x="139.160156" xlink:href="#DejaVuSans-Bold-30"/>
      </g>
     </g>
    </g>
    <g id="xtick_8">
     <g id="line2d_35">
      <path clip-path="url(#p07898b4671)" d="M 406.912411 279.010828 
L 406.912411 145.954828 
" style="fill:none;stroke:#b0b0b0;stroke-linecap:square;stroke-width:0.8;"/>
     </g>
     <g id="line2d_36">
      <g>
       <use style="stroke:#000000;stroke-width:0.8;" x="406.912411" xlink:href="#mba510bfe63" y="279.010828"/>
      </g>
     </g>
     <g id="text_11">
      <!-- 1000 -->
      <g transform="translate(386.038973 297.408484)scale(0.15 -0.15)">
       <use xlink:href="#DejaVuSans-Bold-31"/>
       <use x="69.580078" xlink:href="#DejaVuSans-Bold-30"/>
       <use x="139.160156" xlink:href="#DejaVuSans-Bold-30"/>
       <use x="208.740234" xlink:href="#DejaVuSans-Bold-30"/>
      </g>
     </g>
    </g>
   </g>
   <g id="matplotlib.axis_4">
    <g id="ytick_6">
     <g id="line2d_37">
      <path clip-path="url(#p07898b4671)" d="M 81.678125 279.010828 
L 483.438125 279.010828 
" style="fill:none;stroke:#b0b0b0;stroke-linecap:square;stroke-width:0.8;"/>
     </g>
     <g id="line2d_38">
      <g>
       <use style="stroke:#000000;stroke-width:0.8;" x="81.678125" xlink:href="#ma43dd49c27" y="279.010828"/>
      </g>
     </g>
     <g id="text_12">
      <!-- 0.00 -->
      <g transform="translate(37.670313 284.709656)scale(0.15 -0.15)">
       <use xlink:href="#DejaVuSans-Bold-30"/>
       <use x="69.580078" xlink:href="#DejaVuSans-Bold-2e"/>
       <use x="107.568359" xlink:href="#DejaVuSans-Bold-30"/>
       <use x="177.148438" xlink:href="#DejaVuSans-Bold-30"/>
      </g>
     </g>
    </g>
    <g id="ytick_7">
     <g id="line2d_39">
      <path clip-path="url(#p07898b4671)" d="M 81.678125 243.996091 
L 483.438125 243.996091 
" style="fill:none;stroke:#b0b0b0;stroke-linecap:square;stroke-width:0.8;"/>
     </g>
     <g id="line2d_40">
      <g>
       <use style="stroke:#000000;stroke-width:0.8;" x="81.678125" xlink:href="#ma43dd49c27" y="243.996091"/>
      </g>
     </g>
     <g id="text_13">
      <!-- 0.25 -->
      <g transform="translate(37.670313 249.694919)scale(0.15 -0.15)">
       <use xlink:href="#DejaVuSans-Bold-30"/>
       <use x="69.580078" xlink:href="#DejaVuSans-Bold-2e"/>
       <use x="107.568359" xlink:href="#DejaVuSans-Bold-32"/>
       <use x="177.148438" xlink:href="#DejaVuSans-Bold-35"/>
      </g>
     </g>
    </g>
    <g id="ytick_8">
     <g id="line2d_41">
      <path clip-path="url(#p07898b4671)" d="M 81.678125 208.981354 
L 483.438125 208.981354 
" style="fill:none;stroke:#b0b0b0;stroke-linecap:square;stroke-width:0.8;"/>
     </g>
     <g id="line2d_42">
      <g>
       <use style="stroke:#000000;stroke-width:0.8;" x="81.678125" xlink:href="#ma43dd49c27" y="208.981354"/>
      </g>
     </g>
     <g id="text_14">
      <!-- 0.50 -->
      <g transform="translate(37.670313 214.680183)scale(0.15 -0.15)">
       <use xlink:href="#DejaVuSans-Bold-30"/>
       <use x="69.580078" xlink:href="#DejaVuSans-Bold-2e"/>
       <use x="107.568359" xlink:href="#DejaVuSans-Bold-35"/>
       <use x="177.148438" xlink:href="#DejaVuSans-Bold-30"/>
      </g>
     </g>
    </g>
    <g id="ytick_9">
     <g id="line2d_43">
      <path clip-path="url(#p07898b4671)" d="M 81.678125 173.966618 
L 483.438125 173.966618 
" style="fill:none;stroke:#b0b0b0;stroke-linecap:square;stroke-width:0.8;"/>
     </g>
     <g id="line2d_44">
      <g>
       <use style="stroke:#000000;stroke-width:0.8;" x="81.678125" xlink:href="#ma43dd49c27" y="173.966618"/>
      </g>
     </g>
     <g id="text_15">
      <!-- 0.75 -->
      <g transform="translate(37.670313 179.665446)scale(0.15 -0.15)">
       <use xlink:href="#DejaVuSans-Bold-30"/>
       <use x="69.580078" xlink:href="#DejaVuSans-Bold-2e"/>
       <use x="107.568359" xlink:href="#DejaVuSans-Bold-37"/>
       <use x="177.148438" xlink:href="#DejaVuSans-Bold-35"/>
      </g>
     </g>
    </g>
   </g>
   <g id="LineCollection_9">
    <path clip-path="url(#p07898b4671)" d="M 114.679839 275.948015 
L 114.679839 272.202314 
" style="fill:none;stroke:#ff0000;stroke-width:1.5;"/>
    <path clip-path="url(#p07898b4671)" d="M 118.506125 278.741663 
L 118.506125 277.176479 
" style="fill:none;stroke:#ff0000;stroke-width:1.5;"/>
    <path clip-path="url(#p07898b4671)" d="M 122.332411 272.582598 
L 122.332411 267.759312 
" style="fill:none;stroke:#ff0000;stroke-width:1.5;"/>
    <path clip-path="url(#p07898b4671)" d="M 126.158696 249.50508 
L 126.158696 240.75187 
" style="fill:none;stroke:#ff0000;stroke-width:1.5;"/>
    <path clip-path="url(#p07898b4671)" d="M 129.984982 219.191818 
L 129.984982 208.351713 
" style="fill:none;stroke:#ff0000;stroke-width:1.5;"/>
    <path clip-path="url(#p07898b4671)" d="M 133.811268 181.436735 
L 133.811268 170.798964 
" style="fill:none;stroke:#ff0000;stroke-width:1.5;"/>
    <path clip-path="url(#p07898b4671)" d="M 137.637554 211.819201 
L 137.637554 200.812544 
" style="fill:none;stroke:#ff0000;stroke-width:1.5;"/>
    <path clip-path="url(#p07898b4671)" d="M 141.463839 263.647563 
L 141.463839 256.468054 
" style="fill:none;stroke:#ff0000;stroke-width:1.5;"/>
    <path clip-path="url(#p07898b4671)" d="M 145.290125 276.664066 
L 145.290125 273.372887 
" style="fill:none;stroke:#ff0000;stroke-width:1.5;"/>
    <path clip-path="url(#p07898b4671)" d="M 149.116411 277.325488 
L 149.116411 274.517097 
" style="fill:none;stroke:#ff0000;stroke-width:1.5;"/>
    <path clip-path="url(#p07898b4671)" d="M 152.942696 278.738165 
L 152.942696 277.152777 
" style="fill:none;stroke:#ff0000;stroke-width:1.5;"/>
   </g>
   <g id="LineCollection_10">
    <path clip-path="url(#p07898b4671)" d="M 274.427268 278.293372 
L 274.427268 276.161721 
" style="fill:none;stroke:#ff0000;stroke-width:1.5;"/>
    <path clip-path="url(#p07898b4671)" d="M 278.253554 278.299566 
L 278.253554 276.186141 
" style="fill:none;stroke:#ff0000;stroke-width:1.5;"/>
    <path clip-path="url(#p07898b4671)" d="M 282.079839 278.734575 
L 282.079839 277.128454 
" style="fill:none;stroke:#ff0000;stroke-width:1.5;"/>
    <path clip-path="url(#p07898b4671)" d="M 285.906125 278.749487 
L 285.906125 277.229501 
" style="fill:none;stroke:#ff0000;stroke-width:1.5;"/>
    <path clip-path="url(#p07898b4671)" d="M 289.732411 275.890004 
L 289.732411 272.074948 
" style="fill:none;stroke:#ff0000;stroke-width:1.5;"/>
    <path clip-path="url(#p07898b4671)" d="M 293.558696 274.752734 
L 293.558696 270.845393 
" style="fill:none;stroke:#ff0000;stroke-width:1.5;"/>
    <path clip-path="url(#p07898b4671)" d="M 297.384982 272.98561 
L 297.384982 268.192355 
" style="fill:none;stroke:#ff0000;stroke-width:1.5;"/>
    <path clip-path="url(#p07898b4671)" d="M 301.211268 272.999539 
L 301.211268 268.478419 
" style="fill:none;stroke:#ff0000;stroke-width:1.5;"/>
    <path clip-path="url(#p07898b4671)" d="M 305.037554 279.010828 
L 305.037554 278.281734 
" style="fill:none;stroke:#ff0000;stroke-width:1.5;"/>
    <path clip-path="url(#p07898b4671)" d="M 308.863839 278.345516 
L 308.863839 276.367401 
" style="fill:none;stroke:#ff0000;stroke-width:1.5;"/>
    <path clip-path="url(#p07898b4671)" d="M 312.690125 279.010828 
L 312.690125 278.244432 
" style="fill:none;stroke:#ff0000;stroke-width:1.5;"/>
   </g>
   <g id="LineCollection_11">
    <path clip-path="url(#p07898b4671)" d="M 351.909554 279.010828 
L 351.909554 278.284946 
" style="fill:none;stroke:#ff0000;stroke-width:1.5;"/>
    <path clip-path="url(#p07898b4671)" d="M 356.022811 277.736909 
L 356.022811 275.065622 
" style="fill:none;stroke:#ff0000;stroke-width:1.5;"/>
    <path clip-path="url(#p07898b4671)" d="M 360.136068 276.588812 
L 360.136068 273.194083 
" style="fill:none;stroke:#ff0000;stroke-width:1.5;"/>
    <path clip-path="url(#p07898b4671)" d="M 364.249325 277.759706 
L 364.249325 275.135609 
" style="fill:none;stroke:#ff0000;stroke-width:1.5;"/>
    <path clip-path="url(#p07898b4671)" d="M 368.362582 277.228287 
L 368.362582 274.260431 
" style="fill:none;stroke:#ff0000;stroke-width:1.5;"/>
    <path clip-path="url(#p07898b4671)" d="M 372.475839 273.954657 
L 372.475839 269.649167 
" style="fill:none;stroke:#ff0000;stroke-width:1.5;"/>
    <path clip-path="url(#p07898b4671)" d="M 376.589096 277.23616 
L 376.589096 274.281211 
" style="fill:none;stroke:#ff0000;stroke-width:1.5;"/>
    <path clip-path="url(#p07898b4671)" d="M 380.702354 277.274506 
L 380.702354 274.382442 
" style="fill:none;stroke:#ff0000;stroke-width:1.5;"/>
    <path clip-path="url(#p07898b4671)" d="M 384.815611 277.838384 
L 384.815611 275.377328 
" style="fill:none;stroke:#ff0000;stroke-width:1.5;"/>
    <path clip-path="url(#p07898b4671)" d="M 388.928868 277.274506 
L 388.928868 274.382442 
" style="fill:none;stroke:#ff0000;stroke-width:1.5;"/>
    <path clip-path="url(#p07898b4671)" d="M 393.042125 279.010828 
L 393.042125 278.28813 
" style="fill:none;stroke:#ff0000;stroke-width:1.5;"/>
   </g>
   <g id="LineCollection_12">
    <path clip-path="url(#p07898b4671)" d="M 88.374125 279.010828 
L 88.374125 278.281734 
" style="fill:none;stroke:#000000;stroke-width:1.5;"/>
    <path clip-path="url(#p07898b4671)" d="M 92.200411 276.744541 
L 92.200411 273.564233 
" style="fill:none;stroke:#000000;stroke-width:1.5;"/>
    <path clip-path="url(#p07898b4671)" d="M 96.026696 273.490437 
L 96.026696 268.802675 
" style="fill:none;stroke:#000000;stroke-width:1.5;"/>
    <path clip-path="url(#p07898b4671)" d="M 99.852982 245.182798 
L 99.852982 236.084584 
" style="fill:none;stroke:#000000;stroke-width:1.5;"/>
    <path clip-path="url(#p07898b4671)" d="M 103.679268 220.967133 
L 103.679268 210.467542 
" style="fill:none;stroke:#000000;stroke-width:1.5;"/>
    <path clip-path="url(#p07898b4671)" d="M 107.505554 213.860708 
L 107.505554 203.225537 
" style="fill:none;stroke:#000000;stroke-width:1.5;"/>
    <path clip-path="url(#p07898b4671)" d="M 111.331839 243.831644 
L 111.331839 234.619067 
" style="fill:none;stroke:#000000;stroke-width:1.5;"/>
    <path clip-path="url(#p07898b4671)" d="M 115.158125 266.927234 
L 115.158125 260.525262 
" style="fill:none;stroke:#000000;stroke-width:1.5;"/>
    <path clip-path="url(#p07898b4671)" d="M 118.984411 276.220334 
L 118.984411 272.800994 
" style="fill:none;stroke:#000000;stroke-width:1.5;"/>
    <path clip-path="url(#p07898b4671)" d="M 122.810696 278.724521 
L 122.810696 277.060367 
" style="fill:none;stroke:#000000;stroke-width:1.5;"/>
    <path clip-path="url(#p07898b4671)" d="M 126.636982 278.305654 
L 126.636982 276.210146 
" style="fill:none;stroke:#000000;stroke-width:1.5;"/>
   </g>
   <g id="LineCollection_13">
    <path clip-path="url(#p07898b4671)" d="M 307.428982 277.23616 
L 307.428982 274.281211 
" style="fill:none;stroke:#000000;stroke-width:1.5;"/>
    <path clip-path="url(#p07898b4671)" d="M 312.211839 278.363803 
L 312.211839 276.439587 
" style="fill:none;stroke:#000000;stroke-width:1.5;"/>
    <path clip-path="url(#p07898b4671)" d="M 316.994696 278.197789 
L 316.994696 275.785258 
" style="fill:none;stroke:#000000;stroke-width:1.5;"/>
    <path clip-path="url(#p07898b4671)" d="M 321.777554 275.683905 
L 321.777554 272.039299 
" style="fill:none;stroke:#000000;stroke-width:1.5;"/>
    <path clip-path="url(#p07898b4671)" d="M 326.560411 277.23616 
L 326.560411 274.281211 
" style="fill:none;stroke:#000000;stroke-width:1.5;"/>
    <path clip-path="url(#p07898b4671)" d="M 331.343268 277.08288 
L 331.343268 273.87698 
" style="fill:none;stroke:#000000;stroke-width:1.5;"/>
    <path clip-path="url(#p07898b4671)" d="M 336.126125 277.73108 
L 336.126125 275.047728 
" style="fill:none;stroke:#000000;stroke-width:1.5;"/>
    <path clip-path="url(#p07898b4671)" d="M 340.908982 276.057798 
L 340.908982 272.443511 
" style="fill:none;stroke:#000000;stroke-width:1.5;"/>
    <path clip-path="url(#p07898b4671)" d="M 345.691839 277.781701 
L 345.691839 275.203157 
" style="fill:none;stroke:#000000;stroke-width:1.5;"/>
    <path clip-path="url(#p07898b4671)" d="M 350.474696 279.010828 
L 350.474696 278.268597 
" style="fill:none;stroke:#000000;stroke-width:1.5;"/>
    <path clip-path="url(#p07898b4671)" d="M 355.257554 278.740507 
L 355.257554 277.168646 
" style="fill:none;stroke:#000000;stroke-width:1.5;"/>
   </g>
   <g id="LineCollection_14">
    <path clip-path="url(#p07898b4671)" d="M 414.564982 279.010828 
L 414.564982 278.22243 
" style="fill:none;stroke:#000000;stroke-width:1.5;"/>
    <path clip-path="url(#p07898b4671)" d="M 420.304411 279.010828 
L 420.304411 278.268597 
" style="fill:none;stroke:#000000;stroke-width:1.5;"/>
    <path clip-path="url(#p07898b4671)" d="M 426.043839 278.730889 
L 426.043839 277.103486 
" style="fill:none;stroke:#000000;stroke-width:1.5;"/>
    <path clip-path="url(#p07898b4671)" d="M 431.783268 277.742686 
L 431.783268 275.083355 
" style="fill:none;stroke:#000000;stroke-width:1.5;"/>
    <path clip-path="url(#p07898b4671)" d="M 437.522696 278.734575 
L 437.522696 277.128454 
" style="fill:none;stroke:#000000;stroke-width:1.5;"/>
    <path clip-path="url(#p07898b4671)" d="M 443.262125 278.70799 
L 443.262125 276.948471 
" style="fill:none;stroke:#000000;stroke-width:1.5;"/>
    <path clip-path="url(#p07898b4671)" d="M 449.001554 278.747298 
L 449.001554 277.214667 
" style="fill:none;stroke:#000000;stroke-width:1.5;"/>
    <path clip-path="url(#p07898b4671)" d="M 454.740982 278.738165 
L 454.740982 277.152777 
" style="fill:none;stroke:#000000;stroke-width:1.5;"/>
    <path clip-path="url(#p07898b4671)" d="M 460.480411 279.010828 
L 460.480411 278.254978 
" style="fill:none;stroke:#000000;stroke-width:1.5;"/>
    <path clip-path="url(#p07898b4671)" d="M 466.219839 278.727103 
L 466.219839 277.077846 
" style="fill:none;stroke:#000000;stroke-width:1.5;"/>
    <path clip-path="url(#p07898b4671)" d="M 471.959268 278.283876 
L 471.959268 276.124288 
" style="fill:none;stroke:#000000;stroke-width:1.5;"/>
   </g>
   <g id="line2d_45">
    <path clip-path="url(#p07898b4671)" d="M 331.343268 268.366348 
L 331.343268 145.954828 
" style="fill:none;opacity:0.3;stroke:#000000;stroke-dasharray:11.2,4.8;stroke-dashoffset:0;stroke-width:4;"/>
   </g>
   <g id="line2d_46">
    <path clip-path="url(#p07898b4671)" d="M 447.088411 272.358028 
L 447.088411 145.954828 
" style="fill:none;opacity:0.3;stroke:#000000;stroke-dasharray:11.2,4.8;stroke-dashoffset:0;stroke-width:4;"/>
   </g>
   <g id="line2d_47">
    <path clip-path="url(#p07898b4671)" d="M 297.863268 265.705228 
L 297.863268 145.954828 
" style="fill:none;opacity:0.3;stroke:#ff0000;stroke-dasharray:11.2,4.8;stroke-dashoffset:0;stroke-width:4;"/>
   </g>
   <g id="line2d_48">
    <path clip-path="url(#p07898b4671)" d="M 380.128411 272.358028 
L 380.128411 145.954828 
" style="fill:none;opacity:0.3;stroke:#ff0000;stroke-dasharray:11.2,4.8;stroke-dashoffset:0;stroke-width:4;"/>
   </g>
   <g id="line2d_49">
    <path clip-path="url(#p07898b4671)" d="M 114.679839 274.075164 
L 118.506125 277.959071 
L 122.332411 270.170955 
L 126.158696 245.128475 
L 129.984982 213.771766 
L 133.811268 176.11785 
L 137.637554 206.315873 
L 141.463839 260.057808 
L 145.290125 275.018477 
L 149.116411 275.921293 
L 152.942696 277.945471 
" style="fill:none;stroke:#ff0000;stroke-linecap:square;stroke-width:1.5;"/>
    <g clip-path="url(#p07898b4671)">
     <use style="fill:#ff0000;stroke:#ff0000;" x="114.679839" xlink:href="#m662e251709" y="274.075164"/>
     <use style="fill:#ff0000;stroke:#ff0000;" x="118.506125" xlink:href="#m662e251709" y="277.959071"/>
     <use style="fill:#ff0000;stroke:#ff0000;" x="122.332411" xlink:href="#m662e251709" y="270.170955"/>
     <use style="fill:#ff0000;stroke:#ff0000;" x="126.158696" xlink:href="#m662e251709" y="245.128475"/>
     <use style="fill:#ff0000;stroke:#ff0000;" x="129.984982" xlink:href="#m662e251709" y="213.771766"/>
     <use style="fill:#ff0000;stroke:#ff0000;" x="133.811268" xlink:href="#m662e251709" y="176.11785"/>
     <use style="fill:#ff0000;stroke:#ff0000;" x="137.637554" xlink:href="#m662e251709" y="206.315873"/>
     <use style="fill:#ff0000;stroke:#ff0000;" x="141.463839" xlink:href="#m662e251709" y="260.057808"/>
     <use style="fill:#ff0000;stroke:#ff0000;" x="145.290125" xlink:href="#m662e251709" y="275.018477"/>
     <use style="fill:#ff0000;stroke:#ff0000;" x="149.116411" xlink:href="#m662e251709" y="275.921293"/>
     <use style="fill:#ff0000;stroke:#ff0000;" x="152.942696" xlink:href="#m662e251709" y="277.945471"/>
    </g>
   </g>
   <g id="line2d_50">
    <path clip-path="url(#p07898b4671)" d="M 274.427268 277.227546 
L 278.253554 277.242854 
L 282.079839 277.931514 
L 285.906125 277.989494 
L 289.732411 273.982476 
L 293.558696 272.799063 
L 297.384982 270.588983 
L 301.211268 270.738979 
L 305.037554 278.646281 
L 308.863839 277.356458 
L 312.690125 278.62763 
" style="fill:none;stroke:#ff0000;stroke-linecap:square;stroke-width:1.5;"/>
    <g clip-path="url(#p07898b4671)">
     <use style="fill:#ff0000;stroke:#ff0000;" x="274.427268" xlink:href="#m662e251709" y="277.227546"/>
     <use style="fill:#ff0000;stroke:#ff0000;" x="278.253554" xlink:href="#m662e251709" y="277.242854"/>
     <use style="fill:#ff0000;stroke:#ff0000;" x="282.079839" xlink:href="#m662e251709" y="277.931514"/>
     <use style="fill:#ff0000;stroke:#ff0000;" x="285.906125" xlink:href="#m662e251709" y="277.989494"/>
     <use style="fill:#ff0000;stroke:#ff0000;" x="289.732411" xlink:href="#m662e251709" y="273.982476"/>
     <use style="fill:#ff0000;stroke:#ff0000;" x="293.558696" xlink:href="#m662e251709" y="272.799063"/>
     <use style="fill:#ff0000;stroke:#ff0000;" x="297.384982" xlink:href="#m662e251709" y="270.588983"/>
     <use style="fill:#ff0000;stroke:#ff0000;" x="301.211268" xlink:href="#m662e251709" y="270.738979"/>
     <use style="fill:#ff0000;stroke:#ff0000;" x="305.037554" xlink:href="#m662e251709" y="278.646281"/>
     <use style="fill:#ff0000;stroke:#ff0000;" x="308.863839" xlink:href="#m662e251709" y="277.356458"/>
     <use style="fill:#ff0000;stroke:#ff0000;" x="312.690125" xlink:href="#m662e251709" y="278.62763"/>
    </g>
   </g>
   <g id="line2d_51">
    <path clip-path="url(#p07898b4671)" d="M 351.909554 278.647887 
L 356.022811 276.401266 
L 360.136068 274.891447 
L 364.249325 276.447658 
L 368.362582 275.744359 
L 372.475839 271.801912 
L 376.589096 275.758685 
L 380.702354 275.828474 
L 384.815611 276.607856 
L 388.928868 275.828474 
L 393.042125 278.649479 
" style="fill:none;stroke:#ff0000;stroke-linecap:square;stroke-width:1.5;"/>
    <g clip-path="url(#p07898b4671)">
     <use style="fill:#ff0000;stroke:#ff0000;" x="351.909554" xlink:href="#m662e251709" y="278.647887"/>
     <use style="fill:#ff0000;stroke:#ff0000;" x="356.022811" xlink:href="#m662e251709" y="276.401266"/>
     <use style="fill:#ff0000;stroke:#ff0000;" x="360.136068" xlink:href="#m662e251709" y="274.891447"/>
     <use style="fill:#ff0000;stroke:#ff0000;" x="364.249325" xlink:href="#m662e251709" y="276.447658"/>
     <use style="fill:#ff0000;stroke:#ff0000;" x="368.362582" xlink:href="#m662e251709" y="275.744359"/>
     <use style="fill:#ff0000;stroke:#ff0000;" x="372.475839" xlink:href="#m662e251709" y="271.801912"/>
     <use style="fill:#ff0000;stroke:#ff0000;" x="376.589096" xlink:href="#m662e251709" y="275.758685"/>
     <use style="fill:#ff0000;stroke:#ff0000;" x="380.702354" xlink:href="#m662e251709" y="275.828474"/>
     <use style="fill:#ff0000;stroke:#ff0000;" x="384.815611" xlink:href="#m662e251709" y="276.607856"/>
     <use style="fill:#ff0000;stroke:#ff0000;" x="388.928868" xlink:href="#m662e251709" y="275.828474"/>
     <use style="fill:#ff0000;stroke:#ff0000;" x="393.042125" xlink:href="#m662e251709" y="278.649479"/>
    </g>
   </g>
   <g id="line2d_52">
    <path clip-path="url(#p07898b4671)" d="M 88.374125 278.646281 
L 92.200411 275.154387 
L 96.026696 271.146556 
L 99.852982 240.633691 
L 103.679268 215.717338 
L 107.505554 208.543122 
L 111.331839 239.225355 
L 115.158125 263.726248 
L 118.984411 274.510664 
L 122.810696 277.892444 
L 126.636982 277.2579 
" style="fill:none;stroke:#000000;stroke-linecap:square;stroke-width:1.5;"/>
    <g clip-path="url(#p07898b4671)">
     <use style="stroke:#000000;" x="88.374125" xlink:href="#m8c7e754792" y="278.646281"/>
     <use style="stroke:#000000;" x="92.200411" xlink:href="#m8c7e754792" y="275.154387"/>
     <use style="stroke:#000000;" x="96.026696" xlink:href="#m8c7e754792" y="271.146556"/>
     <use style="stroke:#000000;" x="99.852982" xlink:href="#m8c7e754792" y="240.633691"/>
     <use style="stroke:#000000;" x="103.679268" xlink:href="#m8c7e754792" y="215.717338"/>
     <use style="stroke:#000000;" x="107.505554" xlink:href="#m8c7e754792" y="208.543122"/>
     <use style="stroke:#000000;" x="111.331839" xlink:href="#m8c7e754792" y="239.225355"/>
     <use style="stroke:#000000;" x="115.158125" xlink:href="#m8c7e754792" y="263.726248"/>
     <use style="stroke:#000000;" x="118.984411" xlink:href="#m8c7e754792" y="274.510664"/>
     <use style="stroke:#000000;" x="122.810696" xlink:href="#m8c7e754792" y="277.892444"/>
     <use style="stroke:#000000;" x="126.636982" xlink:href="#m8c7e754792" y="277.2579"/>
    </g>
   </g>
   <g id="line2d_53">
    <path clip-path="url(#p07898b4671)" d="M 307.428982 275.758685 
L 312.211839 277.401695 
L 316.994696 276.991524 
L 321.777554 273.861602 
L 326.560411 275.758685 
L 331.343268 275.47993 
L 336.126125 276.389404 
L 340.908982 274.250655 
L 345.691839 276.492429 
L 350.474696 278.639713 
L 355.257554 277.954577 
" style="fill:none;stroke:#000000;stroke-linecap:square;stroke-width:1.5;"/>
    <g clip-path="url(#p07898b4671)">
     <use style="stroke:#000000;" x="307.428982" xlink:href="#m8c7e754792" y="275.758685"/>
     <use style="stroke:#000000;" x="312.211839" xlink:href="#m8c7e754792" y="277.401695"/>
     <use style="stroke:#000000;" x="316.994696" xlink:href="#m8c7e754792" y="276.991524"/>
     <use style="stroke:#000000;" x="321.777554" xlink:href="#m8c7e754792" y="273.861602"/>
     <use style="stroke:#000000;" x="326.560411" xlink:href="#m8c7e754792" y="275.758685"/>
     <use style="stroke:#000000;" x="331.343268" xlink:href="#m8c7e754792" y="275.47993"/>
     <use style="stroke:#000000;" x="336.126125" xlink:href="#m8c7e754792" y="276.389404"/>
     <use style="stroke:#000000;" x="340.908982" xlink:href="#m8c7e754792" y="274.250655"/>
     <use style="stroke:#000000;" x="345.691839" xlink:href="#m8c7e754792" y="276.492429"/>
     <use style="stroke:#000000;" x="350.474696" xlink:href="#m8c7e754792" y="278.639713"/>
     <use style="stroke:#000000;" x="355.257554" xlink:href="#m8c7e754792" y="277.954577"/>
    </g>
   </g>
   <g id="line2d_54">
    <path clip-path="url(#p07898b4671)" d="M 414.564982 278.616629 
L 420.304411 278.639713 
L 426.043839 277.917187 
L 431.783268 276.41302 
L 437.522696 277.931514 
L 443.262125 277.828231 
L 449.001554 277.980983 
L 454.740982 277.945471 
L 460.480411 278.632903 
L 466.219839 277.902475 
L 471.959268 277.204082 
" style="fill:none;stroke:#000000;stroke-linecap:square;stroke-width:1.5;"/>
    <g clip-path="url(#p07898b4671)">
     <use style="stroke:#000000;" x="414.564982" xlink:href="#m8c7e754792" y="278.616629"/>
     <use style="stroke:#000000;" x="420.304411" xlink:href="#m8c7e754792" y="278.639713"/>
     <use style="stroke:#000000;" x="426.043839" xlink:href="#m8c7e754792" y="277.917187"/>
     <use style="stroke:#000000;" x="431.783268" xlink:href="#m8c7e754792" y="276.41302"/>
     <use style="stroke:#000000;" x="437.522696" xlink:href="#m8c7e754792" y="277.931514"/>
     <use style="stroke:#000000;" x="443.262125" xlink:href="#m8c7e754792" y="277.828231"/>
     <use style="stroke:#000000;" x="449.001554" xlink:href="#m8c7e754792" y="277.980983"/>
     <use style="stroke:#000000;" x="454.740982" xlink:href="#m8c7e754792" y="277.945471"/>
     <use style="stroke:#000000;" x="460.480411" xlink:href="#m8c7e754792" y="278.632903"/>
     <use style="stroke:#000000;" x="466.219839" xlink:href="#m8c7e754792" y="277.902475"/>
     <use style="stroke:#000000;" x="471.959268" xlink:href="#m8c7e754792" y="277.204082"/>
    </g>
   </g>
   <g id="patch_9">
    <path d="M 81.678125 279.010828 
L 81.678125 145.954828 
" style="fill:none;stroke:#000000;stroke-linecap:square;stroke-linejoin:miter;stroke-width:0.8;"/>
   </g>
   <g id="patch_10">
    <path d="M 483.438125 279.010828 
L 483.438125 145.954828 
" style="fill:none;stroke:#000000;stroke-linecap:square;stroke-linejoin:miter;stroke-width:0.8;"/>
   </g>
   <g id="patch_11">
    <path d="M 81.678125 279.010828 
L 483.438125 279.010828 
" style="fill:none;stroke:#000000;stroke-linecap:square;stroke-linejoin:miter;stroke-width:0.8;"/>
   </g>
   <g id="patch_12">
    <path d="M 81.678125 145.954828 
L 483.438125 145.954828 
" style="fill:none;stroke:#000000;stroke-linecap:square;stroke-linejoin:miter;stroke-width:0.8;"/>
   </g>
  </g>
  <g id="text_16">
   <!-- Detuning from carrier (kHz) -->
   <defs>
    <path d="M 27.984375 58.6875 
L 27.984375 14.203125 
L 34.71875 14.203125 
Q 46.234375 14.203125 52.3125 19.921875 
Q 58.40625 25.640625 58.40625 36.53125 
Q 58.40625 47.359375 52.34375 53.015625 
Q 46.296875 58.6875 34.71875 58.6875 
z
M 9.1875 72.90625 
L 29 72.90625 
Q 45.609375 72.90625 53.734375 70.53125 
Q 61.859375 68.171875 67.671875 62.5 
Q 72.796875 57.5625 75.28125 51.109375 
Q 77.78125 44.671875 77.78125 36.53125 
Q 77.78125 28.265625 75.28125 21.796875 
Q 72.796875 15.328125 67.671875 10.40625 
Q 61.8125 4.734375 53.609375 2.359375 
Q 45.40625 0 29 0 
L 9.1875 0 
z
" id="DejaVuSans-Bold-44"/>
    <path d="M 62.984375 27.484375 
L 62.984375 22.515625 
L 22.125 22.515625 
Q 22.75 16.359375 26.5625 13.28125 
Q 30.375 10.203125 37.203125 10.203125 
Q 42.71875 10.203125 48.5 11.84375 
Q 54.296875 13.484375 60.40625 16.796875 
L 60.40625 3.328125 
Q 54.203125 0.984375 48 -0.21875 
Q 41.796875 -1.421875 35.59375 -1.421875 
Q 20.75 -1.421875 12.515625 6.125 
Q 4.296875 13.671875 4.296875 27.296875 
Q 4.296875 40.671875 12.375 48.328125 
Q 20.453125 56 34.625 56 
Q 47.515625 56 55.25 48.234375 
Q 62.984375 40.484375 62.984375 27.484375 
M 45.015625 33.296875 
Q 45.015625 38.28125 42.109375 41.328125 
Q 39.203125 44.390625 34.515625 44.390625 
Q 29.4375 44.390625 26.265625 41.53125 
Q 23.09375 38.671875 22.3125 33.296875 
z
" id="DejaVuSans-Bold-65"/>
    <path d="M 27.484375 70.21875 
L 27.484375 54.6875 
L 45.515625 54.6875 
L 45.515625 42.1875 
L 27.484375 42.1875 
L 27.484375 19 
Q 27.484375 15.1875 29 13.84375 
Q 30.515625 12.5 35.015625 12.5 
L 44 12.5 
L 44 0 
L 29 0 
Q 18.65625 0 14.328125 4.3125 
Q 10.015625 8.640625 10.015625 19 
L 10.015625 42.1875 
L 1.3125 42.1875 
L 1.3125 54.6875 
L 10.015625 54.6875 
L 10.015625 70.21875 
z
" id="DejaVuSans-Bold-74"/>
    <path d="M 7.8125 21.296875 
L 7.8125 54.6875 
L 25.390625 54.6875 
L 25.390625 49.21875 
Q 25.390625 44.78125 25.34375 38.0625 
Q 25.296875 31.34375 25.296875 29.109375 
Q 25.296875 22.515625 25.640625 19.609375 
Q 25.984375 16.703125 26.8125 15.375 
Q 27.875 13.671875 29.609375 12.734375 
Q 31.34375 11.8125 33.59375 11.8125 
Q 39.0625 11.8125 42.1875 16.015625 
Q 45.3125 20.21875 45.3125 27.6875 
L 45.3125 54.6875 
L 62.796875 54.6875 
L 62.796875 0 
L 45.3125 0 
L 45.3125 7.90625 
Q 41.359375 3.125 36.9375 0.84375 
Q 32.515625 -1.421875 27.203125 -1.421875 
Q 17.71875 -1.421875 12.765625 4.390625 
Q 7.8125 10.203125 7.8125 21.296875 
" id="DejaVuSans-Bold-75"/>
    <path d="M 63.375 33.296875 
L 63.375 0 
L 45.796875 0 
L 45.796875 5.421875 
L 45.796875 25.484375 
Q 45.796875 32.5625 45.484375 35.25 
Q 45.171875 37.9375 44.390625 39.203125 
Q 43.359375 40.921875 41.59375 41.875 
Q 39.84375 42.828125 37.59375 42.828125 
Q 32.125 42.828125 29 38.59375 
Q 25.875 34.375 25.875 26.90625 
L 25.875 0 
L 8.40625 0 
L 8.40625 54.6875 
L 25.875 54.6875 
L 25.875 46.6875 
Q 29.828125 51.46875 34.265625 53.734375 
Q 38.71875 56 44.09375 56 
Q 53.5625 56 58.46875 50.1875 
Q 63.375 44.390625 63.375 33.296875 
" id="DejaVuSans-Bold-6e"/>
    <path d="M 45.609375 9.28125 
Q 42 4.5 37.640625 2.25 
Q 33.296875 0 27.59375 0 
Q 17.578125 0 11.03125 7.875 
Q 4.5 15.765625 4.5 27.984375 
Q 4.5 40.234375 11.03125 48.0625 
Q 17.578125 55.90625 27.59375 55.90625 
Q 33.296875 55.90625 37.640625 53.65625 
Q 42 51.421875 45.609375 46.578125 
L 45.609375 54.6875 
L 63.1875 54.6875 
L 63.1875 5.515625 
Q 63.1875 -7.671875 54.859375 -14.625 
Q 46.53125 -21.578125 30.71875 -21.578125 
Q 25.59375 -21.578125 20.796875 -20.796875 
Q 16.015625 -20.015625 11.1875 -18.40625 
L 11.1875 -4.78125 
Q 15.765625 -7.421875 20.15625 -8.71875 
Q 24.5625 -10.015625 29 -10.015625 
Q 37.59375 -10.015625 41.59375 -6.25 
Q 45.609375 -2.484375 45.609375 5.515625 
z
M 34.078125 43.3125 
Q 28.65625 43.3125 25.625 39.296875 
Q 22.609375 35.296875 22.609375 27.984375 
Q 22.609375 20.453125 25.53125 16.578125 
Q 28.46875 12.703125 34.078125 12.703125 
Q 39.546875 12.703125 42.578125 16.703125 
Q 45.609375 20.703125 45.609375 27.984375 
Q 45.609375 35.296875 42.578125 39.296875 
Q 39.546875 43.3125 34.078125 43.3125 
" id="DejaVuSans-Bold-67"/>
    <path d="M 44.390625 75.984375 
L 44.390625 64.5 
L 34.71875 64.5 
Q 31 64.5 29.53125 63.15625 
Q 28.078125 61.8125 28.078125 58.5 
L 28.078125 54.6875 
L 43.015625 54.6875 
L 43.015625 42.1875 
L 28.078125 42.1875 
L 28.078125 0 
L 10.59375 0 
L 10.59375 42.1875 
L 1.90625 42.1875 
L 1.90625 54.6875 
L 10.59375 54.6875 
L 10.59375 58.5 
Q 10.59375 67.4375 15.578125 71.703125 
Q 20.5625 75.984375 31 75.984375 
z
" id="DejaVuSans-Bold-66"/>
    <path d="M 49.03125 39.796875 
Q 46.734375 40.875 44.453125 41.375 
Q 42.1875 41.890625 39.890625 41.890625 
Q 33.15625 41.890625 29.515625 37.5625 
Q 25.875 33.25 25.875 25.203125 
L 25.875 0 
L 8.40625 0 
L 8.40625 54.6875 
L 25.875 54.6875 
L 25.875 45.703125 
Q 29.25 51.078125 33.609375 53.53125 
Q 37.984375 56 44.09375 56 
Q 44.96875 56 45.984375 55.921875 
Q 47.015625 55.859375 48.96875 55.609375 
z
" id="DejaVuSans-Bold-72"/>
    <path d="M 34.421875 43.5 
Q 28.609375 43.5 25.5625 39.328125 
Q 22.515625 35.15625 22.515625 27.296875 
Q 22.515625 19.4375 25.5625 15.25 
Q 28.609375 11.078125 34.421875 11.078125 
Q 40.140625 11.078125 43.15625 15.25 
Q 46.1875 19.4375 46.1875 27.296875 
Q 46.1875 35.15625 43.15625 39.328125 
Q 40.140625 43.5 34.421875 43.5 
M 34.421875 56 
Q 48.53125 56 56.46875 48.375 
Q 64.40625 40.765625 64.40625 27.296875 
Q 64.40625 13.8125 56.46875 6.1875 
Q 48.53125 -1.421875 34.421875 -1.421875 
Q 20.265625 -1.421875 12.28125 6.1875 
Q 4.296875 13.8125 4.296875 27.296875 
Q 4.296875 40.765625 12.28125 48.375 
Q 20.265625 56 34.421875 56 
" id="DejaVuSans-Bold-6f"/>
    <path d="M 59.078125 45.609375 
Q 62.40625 50.6875 66.96875 53.34375 
Q 71.53125 56 77 56 
Q 86.421875 56 91.359375 50.1875 
Q 96.296875 44.390625 96.296875 33.296875 
L 96.296875 0 
L 78.71875 0 
L 78.71875 28.515625 
Q 78.765625 29.15625 78.78125 29.828125 
Q 78.8125 30.515625 78.8125 31.78125 
Q 78.8125 37.59375 77.09375 40.203125 
Q 75.390625 42.828125 71.578125 42.828125 
Q 66.609375 42.828125 63.890625 38.71875 
Q 61.1875 34.625 61.078125 26.859375 
L 61.078125 0 
L 43.5 0 
L 43.5 28.515625 
Q 43.5 37.59375 41.9375 40.203125 
Q 40.375 42.828125 36.375 42.828125 
Q 31.34375 42.828125 28.609375 38.703125 
Q 25.875 34.578125 25.875 26.90625 
L 25.875 0 
L 8.296875 0 
L 8.296875 54.6875 
L 25.875 54.6875 
L 25.875 46.6875 
Q 29.109375 51.3125 33.28125 53.65625 
Q 37.453125 56 42.484375 56 
Q 48.140625 56 52.484375 53.265625 
Q 56.84375 50.53125 59.078125 45.609375 
" id="DejaVuSans-Bold-6d"/>
    <path d="M 52.59375 52.984375 
L 52.59375 38.71875 
Q 49.03125 41.15625 45.4375 42.328125 
Q 41.84375 43.5 37.984375 43.5 
Q 30.671875 43.5 26.59375 39.234375 
Q 22.515625 34.96875 22.515625 27.296875 
Q 22.515625 19.625 26.59375 15.34375 
Q 30.671875 11.078125 37.984375 11.078125 
Q 42.09375 11.078125 45.78125 12.296875 
Q 49.46875 13.53125 52.59375 15.921875 
L 52.59375 1.609375 
Q 48.484375 0.09375 44.265625 -0.65625 
Q 40.046875 -1.421875 35.796875 -1.421875 
Q 21 -1.421875 12.640625 6.171875 
Q 4.296875 13.765625 4.296875 27.296875 
Q 4.296875 40.828125 12.640625 48.40625 
Q 21 56 35.796875 56 
Q 40.09375 56 44.265625 55.25 
Q 48.4375 54.5 52.59375 52.984375 
" id="DejaVuSans-Bold-63"/>
    <path d="M 32.90625 24.609375 
Q 27.4375 24.609375 24.671875 22.75 
Q 21.921875 20.90625 21.921875 17.28125 
Q 21.921875 13.96875 24.140625 12.078125 
Q 26.375 10.203125 30.328125 10.203125 
Q 35.25 10.203125 38.625 13.734375 
Q 42 17.28125 42 22.609375 
L 42 24.609375 
z
M 59.625 31.203125 
L 59.625 0 
L 42 0 
L 42 8.109375 
Q 38.484375 3.125 34.078125 0.84375 
Q 29.6875 -1.421875 23.390625 -1.421875 
Q 14.890625 -1.421875 9.59375 3.53125 
Q 4.296875 8.5 4.296875 16.40625 
Q 4.296875 26.03125 10.90625 30.515625 
Q 17.53125 35.015625 31.6875 35.015625 
L 42 35.015625 
L 42 36.375 
Q 42 40.53125 38.71875 42.453125 
Q 35.453125 44.390625 28.515625 44.390625 
Q 22.90625 44.390625 18.0625 43.265625 
Q 13.234375 42.140625 9.078125 39.890625 
L 9.078125 53.21875 
Q 14.703125 54.59375 20.359375 55.296875 
Q 26.03125 56 31.6875 56 
Q 46.484375 56 53.046875 50.171875 
Q 59.625 44.34375 59.625 31.203125 
" id="DejaVuSans-Bold-61"/>
    <path d="M 37.703125 -13.1875 
L 23.1875 -13.1875 
Q 15.71875 -1.125 12.15625 9.734375 
Q 8.59375 20.609375 8.59375 31.296875 
Q 8.59375 42 12.171875 52.953125 
Q 15.765625 63.921875 23.1875 75.875 
L 37.703125 75.875 
Q 31.453125 64.3125 28.328125 53.25 
Q 25.203125 42.1875 25.203125 31.390625 
Q 25.203125 20.609375 28.296875 9.515625 
Q 31.390625 -1.5625 37.703125 -13.1875 
" id="DejaVuSans-Bold-28"/>
    <path d="M 8.40625 75.984375 
L 25.875 75.984375 
L 25.875 34.625 
L 46 54.6875 
L 66.3125 54.6875 
L 39.59375 29.59375 
L 68.40625 0 
L 47.21875 0 
L 25.875 22.796875 
L 25.875 0 
L 8.40625 0 
z
" id="DejaVuSans-Bold-6b"/>
    <path d="M 9.1875 72.90625 
L 27.984375 72.90625 
L 27.984375 45.125 
L 55.71875 45.125 
L 55.71875 72.90625 
L 74.515625 72.90625 
L 74.515625 0 
L 55.71875 0 
L 55.71875 30.90625 
L 27.984375 30.90625 
L 27.984375 0 
L 9.1875 0 
z
" id="DejaVuSans-Bold-48"/>
    <path d="M 5.71875 54.6875 
L 53.421875 54.6875 
L 53.421875 42.484375 
L 24.609375 12.5 
L 53.421875 12.5 
L 53.421875 0 
L 4.5 0 
L 4.5 12.203125 
L 33.296875 42.1875 
L 5.71875 42.1875 
z
" id="DejaVuSans-Bold-7a"/>
    <path d="M 8.015625 -13.1875 
Q 14.265625 -1.5625 17.390625 9.515625 
Q 20.515625 20.609375 20.515625 31.390625 
Q 20.515625 42.1875 17.390625 53.25 
Q 14.265625 64.3125 8.015625 75.875 
L 22.515625 75.875 
Q 29.9375 63.921875 33.515625 52.953125 
Q 37.109375 42 37.109375 31.296875 
Q 37.109375 20.609375 33.546875 9.734375 
Q 29.984375 -1.125 22.515625 -13.1875 
z
" id="DejaVuSans-Bold-29"/>
   </defs>
   <g transform="translate(119.595312 322.467453)scale(0.2 -0.2)">
    <use xlink:href="#DejaVuSans-Bold-44"/>
    <use x="83.007812" xlink:href="#DejaVuSans-Bold-65"/>
    <use x="150.830078" xlink:href="#DejaVuSans-Bold-74"/>
    <use x="198.632812" xlink:href="#DejaVuSans-Bold-75"/>
    <use x="269.824219" xlink:href="#DejaVuSans-Bold-6e"/>
    <use x="341.015625" xlink:href="#DejaVuSans-Bold-69"/>
    <use x="375.292969" xlink:href="#DejaVuSans-Bold-6e"/>
    <use x="446.484375" xlink:href="#DejaVuSans-Bold-67"/>
    <use x="518.066406" xlink:href="#DejaVuSans-Bold-20"/>
    <use x="552.880859" xlink:href="#DejaVuSans-Bold-66"/>
    <use x="596.386719" xlink:href="#DejaVuSans-Bold-72"/>
    <use x="645.703125" xlink:href="#DejaVuSans-Bold-6f"/>
    <use x="714.404297" xlink:href="#DejaVuSans-Bold-6d"/>
    <use x="818.603516" xlink:href="#DejaVuSans-Bold-20"/>
    <use x="853.417969" xlink:href="#DejaVuSans-Bold-63"/>
    <use x="912.695312" xlink:href="#DejaVuSans-Bold-61"/>
    <use x="980.175781" xlink:href="#DejaVuSans-Bold-72"/>
    <use x="1029.492188" xlink:href="#DejaVuSans-Bold-72"/>
    <use x="1078.808594" xlink:href="#DejaVuSans-Bold-69"/>
    <use x="1113.085938" xlink:href="#DejaVuSans-Bold-65"/>
    <use x="1180.908203" xlink:href="#DejaVuSans-Bold-72"/>
    <use x="1230.224609" xlink:href="#DejaVuSans-Bold-20"/>
    <use x="1265.039062" xlink:href="#DejaVuSans-Bold-28"/>
    <use x="1310.742188" xlink:href="#DejaVuSans-Bold-6b"/>
    <use x="1377.246094" xlink:href="#DejaVuSans-Bold-48"/>
    <use x="1460.9375" xlink:href="#DejaVuSans-Bold-7a"/>
    <use x="1519.140625" xlink:href="#DejaVuSans-Bold-29"/>
   </g>
  </g>
  <g id="text_17">
   <!-- Normalized survival -->
   <defs>
    <path d="M 9.1875 72.90625 
L 30.171875 72.90625 
L 56.6875 22.90625 
L 56.6875 72.90625 
L 74.515625 72.90625 
L 74.515625 0 
L 53.515625 0 
L 27 50 
L 27 0 
L 9.1875 0 
z
" id="DejaVuSans-Bold-4e"/>
    <path d="M 8.40625 75.984375 
L 25.875 75.984375 
L 25.875 0 
L 8.40625 0 
z
" id="DejaVuSans-Bold-6c"/>
    <path d="M 45.609375 46.6875 
L 45.609375 75.984375 
L 63.1875 75.984375 
L 63.1875 0 
L 45.609375 0 
L 45.609375 7.90625 
Q 42 3.078125 37.640625 0.828125 
Q 33.296875 -1.421875 27.59375 -1.421875 
Q 17.484375 -1.421875 10.984375 6.609375 
Q 4.5 14.65625 4.5 27.296875 
Q 4.5 39.9375 10.984375 47.96875 
Q 17.484375 56 27.59375 56 
Q 33.25 56 37.625 53.734375 
Q 42 51.46875 45.609375 46.6875 
M 34.078125 11.28125 
Q 39.703125 11.28125 42.65625 15.375 
Q 45.609375 19.484375 45.609375 27.296875 
Q 45.609375 35.109375 42.65625 39.203125 
Q 39.703125 43.3125 34.078125 43.3125 
Q 28.515625 43.3125 25.5625 39.203125 
Q 22.609375 35.109375 22.609375 27.296875 
Q 22.609375 19.484375 25.5625 15.375 
Q 28.515625 11.28125 34.078125 11.28125 
" id="DejaVuSans-Bold-64"/>
    <path d="M 1.515625 54.6875 
L 19 54.6875 
L 32.625 16.890625 
L 46.1875 54.6875 
L 63.71875 54.6875 
L 42.1875 0 
L 23 0 
z
" id="DejaVuSans-Bold-76"/>
   </defs>
   <g transform="translate(22.396875 256.308078)rotate(-90)scale(0.2 -0.2)">
    <use xlink:href="#DejaVuSans-Bold-4e"/>
    <use x="83.691406" xlink:href="#DejaVuSans-Bold-6f"/>
    <use x="152.392578" xlink:href="#DejaVuSans-Bold-72"/>
    <use x="201.708984" xlink:href="#DejaVuSans-Bold-6d"/>
    <use x="305.908203" xlink:href="#DejaVuSans-Bold-61"/>
    <use x="373.388672" xlink:href="#DejaVuSans-Bold-6c"/>
    <use x="407.666016" xlink:href="#DejaVuSans-Bold-69"/>
    <use x="441.943359" xlink:href="#DejaVuSans-Bold-7a"/>
    <use x="500.146484" xlink:href="#DejaVuSans-Bold-65"/>
    <use x="567.96875" xlink:href="#DejaVuSans-Bold-64"/>
    <use x="639.550781" xlink:href="#DejaVuSans-Bold-20"/>
    <use x="674.365234" xlink:href="#DejaVuSans-Bold-73"/>
    <use x="733.886719" xlink:href="#DejaVuSans-Bold-75"/>
    <use x="805.078125" xlink:href="#DejaVuSans-Bold-72"/>
    <use x="854.394531" xlink:href="#DejaVuSans-Bold-76"/>
    <use x="919.580078" xlink:href="#DejaVuSans-Bold-69"/>
    <use x="953.857422" xlink:href="#DejaVuSans-Bold-76"/>
    <use x="1019.042969" xlink:href="#DejaVuSans-Bold-61"/>
    <use x="1086.523438" xlink:href="#DejaVuSans-Bold-6c"/>
   </g>
  </g>
 </g>
 <defs>
  <clipPath id="p26fe84aaec">
   <rect height="133.056" width="401.76" x="81.678125" y="12.898828"/>
  </clipPath>
  <clipPath id="p07898b4671">
   <rect height="133.056" width="401.76" x="81.678125" y="145.954828"/>
  </clipPath>
 </defs>
</svg>
