<?xml version="1.0" encoding="utf-8" standalone="no"?>
<!DOCTYPE svg PUBLIC "-//W3C//DTD SVG 1.1//EN"
  "http://www.w3.org/Graphics/SVG/1.1/DTD/svg11.dtd">
<!-- Created with matplotlib (https://matplotlib.org/) -->
<svg height="326.694652pt" version="1.1" viewBox="0 0 446.808948 326.694652" width="446.808948pt" xmlns="http://www.w3.org/2000/svg" xmlns:xlink="http://www.w3.org/1999/xlink">
 <defs>
  <style type="text/css">
*{stroke-linecap:butt;stroke-linejoin:round;}
  </style>
 </defs>
 <g id="figure_1">
  <g id="patch_1">
   <path d="M 0 326.694652 
L 446.808948 326.694652 
L 446.808948 0 
L 0 0 
z
" style="fill:none;"/>
  </g>
  <g id="axes_1">
   <g id="patch_2">
    <path d="M 61.410938 274.621215 
L 418.530938 274.621215 
L 418.530938 8.509215 
L 61.410938 8.509215 
z
" style="fill:none;"/>
   </g>
   <g id="matplotlib.axis_1">
    <g id="xtick_1">
     <g id="line2d_1">
      <path clip-path="url(#pd72c2f7809)" d="M 118.225483 274.621215 
L 118.225483 8.509215 
" style="fill:none;stroke:#b0b0b0;stroke-linecap:square;stroke-width:0.8;"/>
     </g>
     <g id="line2d_2">
      <defs>
       <path d="M 0 0 
L 0 3.5 
" id="m005f0a59be" style="stroke:#000000;stroke-width:0.8;"/>
      </defs>
      <g>
       <use style="stroke:#000000;stroke-width:0.8;" x="118.225483" xlink:href="#m005f0a59be" y="274.621215"/>
      </g>
     </g>
     <g id="text_1">
      <!-- 368.40 -->
      <defs>
       <path d="M 40.578125 39.3125 
Q 47.65625 37.796875 51.625 33 
Q 55.609375 28.21875 55.609375 21.1875 
Q 55.609375 10.40625 48.1875 4.484375 
Q 40.765625 -1.421875 27.09375 -1.421875 
Q 22.515625 -1.421875 17.65625 -0.515625 
Q 12.796875 0.390625 7.625 2.203125 
L 7.625 11.71875 
Q 11.71875 9.328125 16.59375 8.109375 
Q 21.484375 6.890625 26.8125 6.890625 
Q 36.078125 6.890625 40.9375 10.546875 
Q 45.796875 14.203125 45.796875 21.1875 
Q 45.796875 27.640625 41.28125 31.265625 
Q 36.765625 34.90625 28.71875 34.90625 
L 20.21875 34.90625 
L 20.21875 43.015625 
L 29.109375 43.015625 
Q 36.375 43.015625 40.234375 45.921875 
Q 44.09375 48.828125 44.09375 54.296875 
Q 44.09375 59.90625 40.109375 62.90625 
Q 36.140625 65.921875 28.71875 65.921875 
Q 24.65625 65.921875 20.015625 65.03125 
Q 15.375 64.15625 9.8125 62.3125 
L 9.8125 71.09375 
Q 15.4375 72.65625 20.34375 73.4375 
Q 25.25 74.21875 29.59375 74.21875 
Q 40.828125 74.21875 47.359375 69.109375 
Q 53.90625 64.015625 53.90625 55.328125 
Q 53.90625 49.265625 50.4375 45.09375 
Q 46.96875 40.921875 40.578125 39.3125 
z
" id="DejaVuSans-51"/>
       <path d="M 33.015625 40.375 
Q 26.375 40.375 22.484375 35.828125 
Q 18.609375 31.296875 18.609375 23.390625 
Q 18.609375 15.53125 22.484375 10.953125 
Q 26.375 6.390625 33.015625 6.390625 
Q 39.65625 6.390625 43.53125 10.953125 
Q 47.40625 15.53125 47.40625 23.390625 
Q 47.40625 31.296875 43.53125 35.828125 
Q 39.65625 40.375 33.015625 40.375 
z
M 52.59375 71.296875 
L 52.59375 62.3125 
Q 48.875 64.0625 45.09375 64.984375 
Q 41.3125 65.921875 37.59375 65.921875 
Q 27.828125 65.921875 22.671875 59.328125 
Q 17.53125 52.734375 16.796875 39.40625 
Q 19.671875 43.65625 24.015625 45.921875 
Q 28.375 48.1875 33.59375 48.1875 
Q 44.578125 48.1875 50.953125 41.515625 
Q 57.328125 34.859375 57.328125 23.390625 
Q 57.328125 12.15625 50.6875 5.359375 
Q 44.046875 -1.421875 33.015625 -1.421875 
Q 20.359375 -1.421875 13.671875 8.265625 
Q 6.984375 17.96875 6.984375 36.375 
Q 6.984375 53.65625 15.1875 63.9375 
Q 23.390625 74.21875 37.203125 74.21875 
Q 40.921875 74.21875 44.703125 73.484375 
Q 48.484375 72.75 52.59375 71.296875 
z
" id="DejaVuSans-54"/>
       <path d="M 31.78125 34.625 
Q 24.75 34.625 20.71875 30.859375 
Q 16.703125 27.09375 16.703125 20.515625 
Q 16.703125 13.921875 20.71875 10.15625 
Q 24.75 6.390625 31.78125 6.390625 
Q 38.8125 6.390625 42.859375 10.171875 
Q 46.921875 13.96875 46.921875 20.515625 
Q 46.921875 27.09375 42.890625 30.859375 
Q 38.875 34.625 31.78125 34.625 
z
M 21.921875 38.8125 
Q 15.578125 40.375 12.03125 44.71875 
Q 8.5 49.078125 8.5 55.328125 
Q 8.5 64.0625 14.71875 69.140625 
Q 20.953125 74.21875 31.78125 74.21875 
Q 42.671875 74.21875 48.875 69.140625 
Q 55.078125 64.0625 55.078125 55.328125 
Q 55.078125 49.078125 51.53125 44.71875 
Q 48 40.375 41.703125 38.8125 
Q 48.828125 37.15625 52.796875 32.3125 
Q 56.78125 27.484375 56.78125 20.515625 
Q 56.78125 9.90625 50.3125 4.234375 
Q 43.84375 -1.421875 31.78125 -1.421875 
Q 19.734375 -1.421875 13.25 4.234375 
Q 6.78125 9.90625 6.78125 20.515625 
Q 6.78125 27.484375 10.78125 32.3125 
Q 14.796875 37.15625 21.921875 38.8125 
z
M 18.3125 54.390625 
Q 18.3125 48.734375 21.84375 45.5625 
Q 25.390625 42.390625 31.78125 42.390625 
Q 38.140625 42.390625 41.71875 45.5625 
Q 45.3125 48.734375 45.3125 54.390625 
Q 45.3125 60.0625 41.71875 63.234375 
Q 38.140625 66.40625 31.78125 66.40625 
Q 25.390625 66.40625 21.84375 63.234375 
Q 18.3125 60.0625 18.3125 54.390625 
z
" id="DejaVuSans-56"/>
       <path d="M 10.6875 12.40625 
L 21 12.40625 
L 21 0 
L 10.6875 0 
z
" id="DejaVuSans-46"/>
       <path d="M 37.796875 64.3125 
L 12.890625 25.390625 
L 37.796875 25.390625 
z
M 35.203125 72.90625 
L 47.609375 72.90625 
L 47.609375 25.390625 
L 58.015625 25.390625 
L 58.015625 17.1875 
L 47.609375 17.1875 
L 47.609375 0 
L 37.796875 0 
L 37.796875 17.1875 
L 4.890625 17.1875 
L 4.890625 26.703125 
z
" id="DejaVuSans-52"/>
       <path d="M 31.78125 66.40625 
Q 24.171875 66.40625 20.328125 58.90625 
Q 16.5 51.421875 16.5 36.375 
Q 16.5 21.390625 20.328125 13.890625 
Q 24.171875 6.390625 31.78125 6.390625 
Q 39.453125 6.390625 43.28125 13.890625 
Q 47.125 21.390625 47.125 36.375 
Q 47.125 51.421875 43.28125 58.90625 
Q 39.453125 66.40625 31.78125 66.40625 
z
M 31.78125 74.21875 
Q 44.046875 74.21875 50.515625 64.515625 
Q 56.984375 54.828125 56.984375 36.375 
Q 56.984375 17.96875 50.515625 8.265625 
Q 44.046875 -1.421875 31.78125 -1.421875 
Q 19.53125 -1.421875 13.0625 8.265625 
Q 6.59375 17.96875 6.59375 36.375 
Q 6.59375 54.828125 13.0625 64.515625 
Q 19.53125 74.21875 31.78125 74.21875 
z
" id="DejaVuSans-48"/>
      </defs>
      <g transform="translate(91.982514 293.018871)scale(0.15 -0.15)">
       <use xlink:href="#DejaVuSans-51"/>
       <use x="63.623047" xlink:href="#DejaVuSans-54"/>
       <use x="127.246094" xlink:href="#DejaVuSans-56"/>
       <use x="190.869141" xlink:href="#DejaVuSans-46"/>
       <use x="222.65625" xlink:href="#DejaVuSans-52"/>
       <use x="286.279297" xlink:href="#DejaVuSans-48"/>
      </g>
     </g>
    </g>
    <g id="xtick_2">
     <g id="line2d_3">
      <path clip-path="url(#pd72c2f7809)" d="M 192.010607 274.621215 
L 192.010607 8.509215 
" style="fill:none;stroke:#b0b0b0;stroke-linecap:square;stroke-width:0.8;"/>
     </g>
     <g id="line2d_4">
      <g>
       <use style="stroke:#000000;stroke-width:0.8;" x="192.010607" xlink:href="#m005f0a59be" y="274.621215"/>
      </g>
     </g>
     <g id="text_2">
      <!-- 368.42 -->
      <defs>
       <path d="M 19.1875 8.296875 
L 53.609375 8.296875 
L 53.609375 0 
L 7.328125 0 
L 7.328125 8.296875 
Q 12.9375 14.109375 22.625 23.890625 
Q 32.328125 33.6875 34.8125 36.53125 
Q 39.546875 41.84375 41.421875 45.53125 
Q 43.3125 49.21875 43.3125 52.78125 
Q 43.3125 58.59375 39.234375 62.25 
Q 35.15625 65.921875 28.609375 65.921875 
Q 23.96875 65.921875 18.8125 64.3125 
Q 13.671875 62.703125 7.8125 59.421875 
L 7.8125 69.390625 
Q 13.765625 71.78125 18.9375 73 
Q 24.125 74.21875 28.421875 74.21875 
Q 39.75 74.21875 46.484375 68.546875 
Q 53.21875 62.890625 53.21875 53.421875 
Q 53.21875 48.921875 51.53125 44.890625 
Q 49.859375 40.875 45.40625 35.40625 
Q 44.1875 33.984375 37.640625 27.21875 
Q 31.109375 20.453125 19.1875 8.296875 
z
" id="DejaVuSans-50"/>
      </defs>
      <g transform="translate(165.767638 293.018871)scale(0.15 -0.15)">
       <use xlink:href="#DejaVuSans-51"/>
       <use x="63.623047" xlink:href="#DejaVuSans-54"/>
       <use x="127.246094" xlink:href="#DejaVuSans-56"/>
       <use x="190.869141" xlink:href="#DejaVuSans-46"/>
       <use x="222.65625" xlink:href="#DejaVuSans-52"/>
       <use x="286.279297" xlink:href="#DejaVuSans-50"/>
      </g>
     </g>
    </g>
    <g id="xtick_3">
     <g id="line2d_5">
      <path clip-path="url(#pd72c2f7809)" d="M 265.795731 274.621215 
L 265.795731 8.509215 
" style="fill:none;stroke:#b0b0b0;stroke-linecap:square;stroke-width:0.8;"/>
     </g>
     <g id="line2d_6">
      <g>
       <use style="stroke:#000000;stroke-width:0.8;" x="265.795731" xlink:href="#m005f0a59be" y="274.621215"/>
      </g>
     </g>
     <g id="text_3">
      <!-- 368.44 -->
      <g transform="translate(239.552762 293.018871)scale(0.15 -0.15)">
       <use xlink:href="#DejaVuSans-51"/>
       <use x="63.623047" xlink:href="#DejaVuSans-54"/>
       <use x="127.246094" xlink:href="#DejaVuSans-56"/>
       <use x="190.869141" xlink:href="#DejaVuSans-46"/>
       <use x="222.65625" xlink:href="#DejaVuSans-52"/>
       <use x="286.279297" xlink:href="#DejaVuSans-52"/>
      </g>
     </g>
    </g>
    <g id="xtick_4">
     <g id="line2d_7">
      <path clip-path="url(#pd72c2f7809)" d="M 339.580855 274.621215 
L 339.580855 8.509215 
" style="fill:none;stroke:#b0b0b0;stroke-linecap:square;stroke-width:0.8;"/>
     </g>
     <g id="line2d_8">
      <g>
       <use style="stroke:#000000;stroke-width:0.8;" x="339.580855" xlink:href="#m005f0a59be" y="274.621215"/>
      </g>
     </g>
     <g id="text_4">
      <!-- 368.46 -->
      <g transform="translate(313.337886 293.018871)scale(0.15 -0.15)">
       <use xlink:href="#DejaVuSans-51"/>
       <use x="63.623047" xlink:href="#DejaVuSans-54"/>
       <use x="127.246094" xlink:href="#DejaVuSans-56"/>
       <use x="190.869141" xlink:href="#DejaVuSans-46"/>
       <use x="222.65625" xlink:href="#DejaVuSans-52"/>
       <use x="286.279297" xlink:href="#DejaVuSans-54"/>
      </g>
     </g>
    </g>
    <g id="xtick_5">
     <g id="line2d_9">
      <path clip-path="url(#pd72c2f7809)" d="M 413.365979 274.621215 
L 413.365979 8.509215 
" style="fill:none;stroke:#b0b0b0;stroke-linecap:square;stroke-width:0.8;"/>
     </g>
     <g id="line2d_10">
      <g>
       <use style="stroke:#000000;stroke-width:0.8;" x="413.365979" xlink:href="#m005f0a59be" y="274.621215"/>
      </g>
     </g>
     <g id="text_5">
      <!-- 368.48 -->
      <g transform="translate(387.12301 293.018871)scale(0.15 -0.15)">
       <use xlink:href="#DejaVuSans-51"/>
       <use x="63.623047" xlink:href="#DejaVuSans-54"/>
       <use x="127.246094" xlink:href="#DejaVuSans-56"/>
       <use x="190.869141" xlink:href="#DejaVuSans-46"/>
       <use x="222.65625" xlink:href="#DejaVuSans-52"/>
       <use x="286.279297" xlink:href="#DejaVuSans-56"/>
      </g>
     </g>
    </g>
    <g id="text_6">
     <!-- 2-Photon Detuning (MHz) -->
     <defs>
      <path d="M 4.890625 31.390625 
L 31.203125 31.390625 
L 31.203125 23.390625 
L 4.890625 23.390625 
z
" id="DejaVuSans-45"/>
      <path d="M 19.671875 64.796875 
L 19.671875 37.40625 
L 32.078125 37.40625 
Q 38.96875 37.40625 42.71875 40.96875 
Q 46.484375 44.53125 46.484375 51.125 
Q 46.484375 57.671875 42.71875 61.234375 
Q 38.96875 64.796875 32.078125 64.796875 
z
M 9.8125 72.90625 
L 32.078125 72.90625 
Q 44.34375 72.90625 50.609375 67.359375 
Q 56.890625 61.8125 56.890625 51.125 
Q 56.890625 40.328125 50.609375 34.8125 
Q 44.34375 29.296875 32.078125 29.296875 
L 19.671875 29.296875 
L 19.671875 0 
L 9.8125 0 
z
" id="DejaVuSans-80"/>
      <path d="M 54.890625 33.015625 
L 54.890625 0 
L 45.90625 0 
L 45.90625 32.71875 
Q 45.90625 40.484375 42.875 44.328125 
Q 39.84375 48.1875 33.796875 48.1875 
Q 26.515625 48.1875 22.3125 43.546875 
Q 18.109375 38.921875 18.109375 30.90625 
L 18.109375 0 
L 9.078125 0 
L 9.078125 75.984375 
L 18.109375 75.984375 
L 18.109375 46.1875 
Q 21.34375 51.125 25.703125 53.5625 
Q 30.078125 56 35.796875 56 
Q 45.21875 56 50.046875 50.171875 
Q 54.890625 44.34375 54.890625 33.015625 
z
" id="DejaVuSans-104"/>
      <path d="M 30.609375 48.390625 
Q 23.390625 48.390625 19.1875 42.75 
Q 14.984375 37.109375 14.984375 27.296875 
Q 14.984375 17.484375 19.15625 11.84375 
Q 23.34375 6.203125 30.609375 6.203125 
Q 37.796875 6.203125 41.984375 11.859375 
Q 46.1875 17.53125 46.1875 27.296875 
Q 46.1875 37.015625 41.984375 42.703125 
Q 37.796875 48.390625 30.609375 48.390625 
z
M 30.609375 56 
Q 42.328125 56 49.015625 48.375 
Q 55.71875 40.765625 55.71875 27.296875 
Q 55.71875 13.875 49.015625 6.21875 
Q 42.328125 -1.421875 30.609375 -1.421875 
Q 18.84375 -1.421875 12.171875 6.21875 
Q 5.515625 13.875 5.515625 27.296875 
Q 5.515625 40.765625 12.171875 48.375 
Q 18.84375 56 30.609375 56 
z
" id="DejaVuSans-111"/>
      <path d="M 18.3125 70.21875 
L 18.3125 54.6875 
L 36.8125 54.6875 
L 36.8125 47.703125 
L 18.3125 47.703125 
L 18.3125 18.015625 
Q 18.3125 11.328125 20.140625 9.421875 
Q 21.96875 7.515625 27.59375 7.515625 
L 36.8125 7.515625 
L 36.8125 0 
L 27.59375 0 
Q 17.1875 0 13.234375 3.875 
Q 9.28125 7.765625 9.28125 18.015625 
L 9.28125 47.703125 
L 2.6875 47.703125 
L 2.6875 54.6875 
L 9.28125 54.6875 
L 9.28125 70.21875 
z
" id="DejaVuSans-116"/>
      <path d="M 54.890625 33.015625 
L 54.890625 0 
L 45.90625 0 
L 45.90625 32.71875 
Q 45.90625 40.484375 42.875 44.328125 
Q 39.84375 48.1875 33.796875 48.1875 
Q 26.515625 48.1875 22.3125 43.546875 
Q 18.109375 38.921875 18.109375 30.90625 
L 18.109375 0 
L 9.078125 0 
L 9.078125 54.6875 
L 18.109375 54.6875 
L 18.109375 46.1875 
Q 21.34375 51.125 25.703125 53.5625 
Q 30.078125 56 35.796875 56 
Q 45.21875 56 50.046875 50.171875 
Q 54.890625 44.34375 54.890625 33.015625 
z
" id="DejaVuSans-110"/>
      <path id="DejaVuSans-32"/>
      <path d="M 19.671875 64.796875 
L 19.671875 8.109375 
L 31.59375 8.109375 
Q 46.6875 8.109375 53.6875 14.9375 
Q 60.6875 21.78125 60.6875 36.53125 
Q 60.6875 51.171875 53.6875 57.984375 
Q 46.6875 64.796875 31.59375 64.796875 
z
M 9.8125 72.90625 
L 30.078125 72.90625 
Q 51.265625 72.90625 61.171875 64.09375 
Q 71.09375 55.28125 71.09375 36.53125 
Q 71.09375 17.671875 61.125 8.828125 
Q 51.171875 0 30.078125 0 
L 9.8125 0 
z
" id="DejaVuSans-68"/>
      <path d="M 56.203125 29.59375 
L 56.203125 25.203125 
L 14.890625 25.203125 
Q 15.484375 15.921875 20.484375 11.0625 
Q 25.484375 6.203125 34.421875 6.203125 
Q 39.59375 6.203125 44.453125 7.46875 
Q 49.3125 8.734375 54.109375 11.28125 
L 54.109375 2.78125 
Q 49.265625 0.734375 44.1875 -0.34375 
Q 39.109375 -1.421875 33.890625 -1.421875 
Q 20.796875 -1.421875 13.15625 6.1875 
Q 5.515625 13.8125 5.515625 26.8125 
Q 5.515625 40.234375 12.765625 48.109375 
Q 20.015625 56 32.328125 56 
Q 43.359375 56 49.78125 48.890625 
Q 56.203125 41.796875 56.203125 29.59375 
z
M 47.21875 32.234375 
Q 47.125 39.59375 43.09375 43.984375 
Q 39.0625 48.390625 32.421875 48.390625 
Q 24.90625 48.390625 20.390625 44.140625 
Q 15.875 39.890625 15.1875 32.171875 
z
" id="DejaVuSans-101"/>
      <path d="M 8.5 21.578125 
L 8.5 54.6875 
L 17.484375 54.6875 
L 17.484375 21.921875 
Q 17.484375 14.15625 20.5 10.265625 
Q 23.53125 6.390625 29.59375 6.390625 
Q 36.859375 6.390625 41.078125 11.03125 
Q 45.3125 15.671875 45.3125 23.6875 
L 45.3125 54.6875 
L 54.296875 54.6875 
L 54.296875 0 
L 45.3125 0 
L 45.3125 8.40625 
Q 42.046875 3.421875 37.71875 1 
Q 33.40625 -1.421875 27.6875 -1.421875 
Q 18.265625 -1.421875 13.375 4.4375 
Q 8.5 10.296875 8.5 21.578125 
z
M 31.109375 56 
z
" id="DejaVuSans-117"/>
      <path d="M 9.421875 54.6875 
L 18.40625 54.6875 
L 18.40625 0 
L 9.421875 0 
z
M 9.421875 75.984375 
L 18.40625 75.984375 
L 18.40625 64.59375 
L 9.421875 64.59375 
z
" id="DejaVuSans-105"/>
      <path d="M 45.40625 27.984375 
Q 45.40625 37.75 41.375 43.109375 
Q 37.359375 48.484375 30.078125 48.484375 
Q 22.859375 48.484375 18.828125 43.109375 
Q 14.796875 37.75 14.796875 27.984375 
Q 14.796875 18.265625 18.828125 12.890625 
Q 22.859375 7.515625 30.078125 7.515625 
Q 37.359375 7.515625 41.375 12.890625 
Q 45.40625 18.265625 45.40625 27.984375 
z
M 54.390625 6.78125 
Q 54.390625 -7.171875 48.1875 -13.984375 
Q 42 -20.796875 29.203125 -20.796875 
Q 24.46875 -20.796875 20.265625 -20.09375 
Q 16.0625 -19.390625 12.109375 -17.921875 
L 12.109375 -9.1875 
Q 16.0625 -11.328125 19.921875 -12.34375 
Q 23.78125 -13.375 27.78125 -13.375 
Q 36.625 -13.375 41.015625 -8.765625 
Q 45.40625 -4.15625 45.40625 5.171875 
L 45.40625 9.625 
Q 42.625 4.78125 38.28125 2.390625 
Q 33.9375 0 27.875 0 
Q 17.828125 0 11.671875 7.65625 
Q 5.515625 15.328125 5.515625 27.984375 
Q 5.515625 40.671875 11.671875 48.328125 
Q 17.828125 56 27.875 56 
Q 33.9375 56 38.28125 53.609375 
Q 42.625 51.21875 45.40625 46.390625 
L 45.40625 54.6875 
L 54.390625 54.6875 
z
" id="DejaVuSans-103"/>
      <path d="M 31 75.875 
Q 24.46875 64.65625 21.28125 53.65625 
Q 18.109375 42.671875 18.109375 31.390625 
Q 18.109375 20.125 21.3125 9.0625 
Q 24.515625 -2 31 -13.1875 
L 23.1875 -13.1875 
Q 15.875 -1.703125 12.234375 9.375 
Q 8.59375 20.453125 8.59375 31.390625 
Q 8.59375 42.28125 12.203125 53.3125 
Q 15.828125 64.359375 23.1875 75.875 
z
" id="DejaVuSans-40"/>
      <path d="M 9.8125 72.90625 
L 24.515625 72.90625 
L 43.109375 23.296875 
L 61.8125 72.90625 
L 76.515625 72.90625 
L 76.515625 0 
L 66.890625 0 
L 66.890625 64.015625 
L 48.09375 14.015625 
L 38.1875 14.015625 
L 19.390625 64.015625 
L 19.390625 0 
L 9.8125 0 
z
" id="DejaVuSans-77"/>
      <path d="M 9.8125 72.90625 
L 19.671875 72.90625 
L 19.671875 43.015625 
L 55.515625 43.015625 
L 55.515625 72.90625 
L 65.375 72.90625 
L 65.375 0 
L 55.515625 0 
L 55.515625 34.71875 
L 19.671875 34.71875 
L 19.671875 0 
L 9.8125 0 
z
" id="DejaVuSans-72"/>
      <path d="M 5.515625 54.6875 
L 48.1875 54.6875 
L 48.1875 46.484375 
L 14.40625 7.171875 
L 48.1875 7.171875 
L 48.1875 0 
L 4.296875 0 
L 4.296875 8.203125 
L 38.09375 47.515625 
L 5.515625 47.515625 
z
" id="DejaVuSans-122"/>
      <path d="M 8.015625 75.875 
L 15.828125 75.875 
Q 23.140625 64.359375 26.78125 53.3125 
Q 30.421875 42.28125 30.421875 31.390625 
Q 30.421875 20.453125 26.78125 9.375 
Q 23.140625 -1.703125 15.828125 -13.1875 
L 8.015625 -13.1875 
Q 14.5 -2 17.703125 9.0625 
Q 20.90625 20.125 20.90625 31.390625 
Q 20.90625 42.671875 17.703125 53.65625 
Q 14.5 64.65625 8.015625 75.875 
z
" id="DejaVuSans-41"/>
     </defs>
     <g transform="translate(113.669375 315.335277)scale(0.2 -0.2)">
      <use xlink:href="#DejaVuSans-50"/>
      <use x="63.623047" xlink:href="#DejaVuSans-45"/>
      <use x="99.707031" xlink:href="#DejaVuSans-80"/>
      <use x="160.009766" xlink:href="#DejaVuSans-104"/>
      <use x="223.388672" xlink:href="#DejaVuSans-111"/>
      <use x="284.570312" xlink:href="#DejaVuSans-116"/>
      <use x="323.779297" xlink:href="#DejaVuSans-111"/>
      <use x="384.960938" xlink:href="#DejaVuSans-110"/>
      <use x="448.339844" xlink:href="#DejaVuSans-32"/>
      <use x="480.126953" xlink:href="#DejaVuSans-68"/>
      <use x="557.128906" xlink:href="#DejaVuSans-101"/>
      <use x="618.652344" xlink:href="#DejaVuSans-116"/>
      <use x="657.861328" xlink:href="#DejaVuSans-117"/>
      <use x="721.240234" xlink:href="#DejaVuSans-110"/>
      <use x="784.619141" xlink:href="#DejaVuSans-105"/>
      <use x="812.402344" xlink:href="#DejaVuSans-110"/>
      <use x="875.78125" xlink:href="#DejaVuSans-103"/>
      <use x="939.257812" xlink:href="#DejaVuSans-32"/>
      <use x="971.044922" xlink:href="#DejaVuSans-40"/>
      <use x="1010.058594" xlink:href="#DejaVuSans-77"/>
      <use x="1096.337891" xlink:href="#DejaVuSans-72"/>
      <use x="1171.533203" xlink:href="#DejaVuSans-122"/>
      <use x="1224.023438" xlink:href="#DejaVuSans-41"/>
     </g>
    </g>
   </g>
   <g id="matplotlib.axis_2">
    <g id="ytick_1">
     <g id="line2d_11">
      <path clip-path="url(#pd72c2f7809)" d="M 61.410938 253.727335 
L 418.530938 253.727335 
" style="fill:none;stroke:#b0b0b0;stroke-linecap:square;stroke-width:0.8;"/>
     </g>
     <g id="line2d_12">
      <defs>
       <path d="M 0 0 
L -3.5 0 
" id="mc3ce260a5b" style="stroke:#000000;stroke-width:0.8;"/>
      </defs>
      <g>
       <use style="stroke:#000000;stroke-width:0.8;" x="61.410938" xlink:href="#mc3ce260a5b" y="253.727335"/>
      </g>
     </g>
     <g id="text_7">
      <!-- 0.4 -->
      <g transform="translate(30.55625 259.426163)scale(0.15 -0.15)">
       <use xlink:href="#DejaVuSans-48"/>
       <use x="63.623047" xlink:href="#DejaVuSans-46"/>
       <use x="95.410156" xlink:href="#DejaVuSans-52"/>
      </g>
     </g>
    </g>
    <g id="ytick_2">
     <g id="line2d_13">
      <path clip-path="url(#pd72c2f7809)" d="M 61.410938 193.520208 
L 418.530938 193.520208 
" style="fill:none;stroke:#b0b0b0;stroke-linecap:square;stroke-width:0.8;"/>
     </g>
     <g id="line2d_14">
      <g>
       <use style="stroke:#000000;stroke-width:0.8;" x="61.410938" xlink:href="#mc3ce260a5b" y="193.520208"/>
      </g>
     </g>
     <g id="text_8">
      <!-- 0.5 -->
      <defs>
       <path d="M 10.796875 72.90625 
L 49.515625 72.90625 
L 49.515625 64.59375 
L 19.828125 64.59375 
L 19.828125 46.734375 
Q 21.96875 47.46875 24.109375 47.828125 
Q 26.265625 48.1875 28.421875 48.1875 
Q 40.625 48.1875 47.75 41.5 
Q 54.890625 34.8125 54.890625 23.390625 
Q 54.890625 11.625 47.5625 5.09375 
Q 40.234375 -1.421875 26.90625 -1.421875 
Q 22.3125 -1.421875 17.546875 -0.640625 
Q 12.796875 0.140625 7.71875 1.703125 
L 7.71875 11.625 
Q 12.109375 9.234375 16.796875 8.0625 
Q 21.484375 6.890625 26.703125 6.890625 
Q 35.15625 6.890625 40.078125 11.328125 
Q 45.015625 15.765625 45.015625 23.390625 
Q 45.015625 31 40.078125 35.4375 
Q 35.15625 39.890625 26.703125 39.890625 
Q 22.75 39.890625 18.8125 39.015625 
Q 14.890625 38.140625 10.796875 36.28125 
z
" id="DejaVuSans-53"/>
      </defs>
      <g transform="translate(30.55625 199.219037)scale(0.15 -0.15)">
       <use xlink:href="#DejaVuSans-48"/>
       <use x="63.623047" xlink:href="#DejaVuSans-46"/>
       <use x="95.410156" xlink:href="#DejaVuSans-53"/>
      </g>
     </g>
    </g>
    <g id="ytick_3">
     <g id="line2d_15">
      <path clip-path="url(#pd72c2f7809)" d="M 61.410938 133.313082 
L 418.530938 133.313082 
" style="fill:none;stroke:#b0b0b0;stroke-linecap:square;stroke-width:0.8;"/>
     </g>
     <g id="line2d_16">
      <g>
       <use style="stroke:#000000;stroke-width:0.8;" x="61.410938" xlink:href="#mc3ce260a5b" y="133.313082"/>
      </g>
     </g>
     <g id="text_9">
      <!-- 0.6 -->
      <g transform="translate(30.55625 139.01191)scale(0.15 -0.15)">
       <use xlink:href="#DejaVuSans-48"/>
       <use x="63.623047" xlink:href="#DejaVuSans-46"/>
       <use x="95.410156" xlink:href="#DejaVuSans-54"/>
      </g>
     </g>
    </g>
    <g id="ytick_4">
     <g id="line2d_17">
      <path clip-path="url(#pd72c2f7809)" d="M 61.410938 73.105955 
L 418.530938 73.105955 
" style="fill:none;stroke:#b0b0b0;stroke-linecap:square;stroke-width:0.8;"/>
     </g>
     <g id="line2d_18">
      <g>
       <use style="stroke:#000000;stroke-width:0.8;" x="61.410938" xlink:href="#mc3ce260a5b" y="73.105955"/>
      </g>
     </g>
     <g id="text_10">
      <!-- 0.7 -->
      <defs>
       <path d="M 8.203125 72.90625 
L 55.078125 72.90625 
L 55.078125 68.703125 
L 28.609375 0 
L 18.3125 0 
L 43.21875 64.59375 
L 8.203125 64.59375 
z
" id="DejaVuSans-55"/>
      </defs>
      <g transform="translate(30.55625 78.804783)scale(0.15 -0.15)">
       <use xlink:href="#DejaVuSans-48"/>
       <use x="63.623047" xlink:href="#DejaVuSans-46"/>
       <use x="95.410156" xlink:href="#DejaVuSans-55"/>
      </g>
     </g>
    </g>
    <g id="ytick_5">
     <g id="line2d_19">
      <path clip-path="url(#pd72c2f7809)" d="M 61.410938 12.898828 
L 418.530938 12.898828 
" style="fill:none;stroke:#b0b0b0;stroke-linecap:square;stroke-width:0.8;"/>
     </g>
     <g id="line2d_20">
      <g>
       <use style="stroke:#000000;stroke-width:0.8;" x="61.410938" xlink:href="#mc3ce260a5b" y="12.898828"/>
      </g>
     </g>
     <g id="text_11">
      <!-- 0.8 -->
      <g transform="translate(30.55625 18.597656)scale(0.15 -0.15)">
       <use xlink:href="#DejaVuSans-48"/>
       <use x="63.623047" xlink:href="#DejaVuSans-46"/>
       <use x="95.410156" xlink:href="#DejaVuSans-56"/>
      </g>
     </g>
    </g>
    <g id="text_12">
     <!-- Two-body survival -->
     <defs>
      <path d="M -0.296875 72.90625 
L 61.375 72.90625 
L 61.375 64.59375 
L 35.5 64.59375 
L 35.5 0 
L 25.59375 0 
L 25.59375 64.59375 
L -0.296875 64.59375 
z
" id="DejaVuSans-84"/>
      <path d="M 4.203125 54.6875 
L 13.1875 54.6875 
L 24.421875 12.015625 
L 35.59375 54.6875 
L 46.1875 54.6875 
L 57.421875 12.015625 
L 68.609375 54.6875 
L 77.59375 54.6875 
L 63.28125 0 
L 52.6875 0 
L 40.921875 44.828125 
L 29.109375 0 
L 18.5 0 
z
" id="DejaVuSans-119"/>
      <path d="M 48.6875 27.296875 
Q 48.6875 37.203125 44.609375 42.84375 
Q 40.53125 48.484375 33.40625 48.484375 
Q 26.265625 48.484375 22.1875 42.84375 
Q 18.109375 37.203125 18.109375 27.296875 
Q 18.109375 17.390625 22.1875 11.75 
Q 26.265625 6.109375 33.40625 6.109375 
Q 40.53125 6.109375 44.609375 11.75 
Q 48.6875 17.390625 48.6875 27.296875 
z
M 18.109375 46.390625 
Q 20.953125 51.265625 25.265625 53.625 
Q 29.59375 56 35.59375 56 
Q 45.5625 56 51.78125 48.09375 
Q 58.015625 40.1875 58.015625 27.296875 
Q 58.015625 14.40625 51.78125 6.484375 
Q 45.5625 -1.421875 35.59375 -1.421875 
Q 29.59375 -1.421875 25.265625 0.953125 
Q 20.953125 3.328125 18.109375 8.203125 
L 18.109375 0 
L 9.078125 0 
L 9.078125 75.984375 
L 18.109375 75.984375 
z
" id="DejaVuSans-98"/>
      <path d="M 45.40625 46.390625 
L 45.40625 75.984375 
L 54.390625 75.984375 
L 54.390625 0 
L 45.40625 0 
L 45.40625 8.203125 
Q 42.578125 3.328125 38.25 0.953125 
Q 33.9375 -1.421875 27.875 -1.421875 
Q 17.96875 -1.421875 11.734375 6.484375 
Q 5.515625 14.40625 5.515625 27.296875 
Q 5.515625 40.1875 11.734375 48.09375 
Q 17.96875 56 27.875 56 
Q 33.9375 56 38.25 53.625 
Q 42.578125 51.265625 45.40625 46.390625 
z
M 14.796875 27.296875 
Q 14.796875 17.390625 18.875 11.75 
Q 22.953125 6.109375 30.078125 6.109375 
Q 37.203125 6.109375 41.296875 11.75 
Q 45.40625 17.390625 45.40625 27.296875 
Q 45.40625 37.203125 41.296875 42.84375 
Q 37.203125 48.484375 30.078125 48.484375 
Q 22.953125 48.484375 18.875 42.84375 
Q 14.796875 37.203125 14.796875 27.296875 
z
" id="DejaVuSans-100"/>
      <path d="M 32.171875 -5.078125 
Q 28.375 -14.84375 24.75 -17.8125 
Q 21.140625 -20.796875 15.09375 -20.796875 
L 7.90625 -20.796875 
L 7.90625 -13.28125 
L 13.1875 -13.28125 
Q 16.890625 -13.28125 18.9375 -11.515625 
Q 21 -9.765625 23.484375 -3.21875 
L 25.09375 0.875 
L 2.984375 54.6875 
L 12.5 54.6875 
L 29.59375 11.921875 
L 46.6875 54.6875 
L 56.203125 54.6875 
z
" id="DejaVuSans-121"/>
      <path d="M 44.28125 53.078125 
L 44.28125 44.578125 
Q 40.484375 46.53125 36.375 47.5 
Q 32.28125 48.484375 27.875 48.484375 
Q 21.1875 48.484375 17.84375 46.4375 
Q 14.5 44.390625 14.5 40.28125 
Q 14.5 37.15625 16.890625 35.375 
Q 19.28125 33.59375 26.515625 31.984375 
L 29.59375 31.296875 
Q 39.15625 29.25 43.1875 25.515625 
Q 47.21875 21.78125 47.21875 15.09375 
Q 47.21875 7.46875 41.1875 3.015625 
Q 35.15625 -1.421875 24.609375 -1.421875 
Q 20.21875 -1.421875 15.453125 -0.5625 
Q 10.6875 0.296875 5.421875 2 
L 5.421875 11.28125 
Q 10.40625 8.6875 15.234375 7.390625 
Q 20.0625 6.109375 24.8125 6.109375 
Q 31.15625 6.109375 34.5625 8.28125 
Q 37.984375 10.453125 37.984375 14.40625 
Q 37.984375 18.0625 35.515625 20.015625 
Q 33.0625 21.96875 24.703125 23.78125 
L 21.578125 24.515625 
Q 13.234375 26.265625 9.515625 29.90625 
Q 5.8125 33.546875 5.8125 39.890625 
Q 5.8125 47.609375 11.28125 51.796875 
Q 16.75 56 26.8125 56 
Q 31.78125 56 36.171875 55.265625 
Q 40.578125 54.546875 44.28125 53.078125 
z
" id="DejaVuSans-115"/>
      <path d="M 41.109375 46.296875 
Q 39.59375 47.171875 37.8125 47.578125 
Q 36.03125 48 33.890625 48 
Q 26.265625 48 22.1875 43.046875 
Q 18.109375 38.09375 18.109375 28.8125 
L 18.109375 0 
L 9.078125 0 
L 9.078125 54.6875 
L 18.109375 54.6875 
L 18.109375 46.1875 
Q 20.953125 51.171875 25.484375 53.578125 
Q 30.03125 56 36.53125 56 
Q 37.453125 56 38.578125 55.875 
Q 39.703125 55.765625 41.0625 55.515625 
z
" id="DejaVuSans-114"/>
      <path d="M 2.984375 54.6875 
L 12.5 54.6875 
L 29.59375 8.796875 
L 46.6875 54.6875 
L 56.203125 54.6875 
L 35.6875 0 
L 23.484375 0 
z
" id="DejaVuSans-118"/>
      <path d="M 34.28125 27.484375 
Q 23.390625 27.484375 19.1875 25 
Q 14.984375 22.515625 14.984375 16.5 
Q 14.984375 11.71875 18.140625 8.90625 
Q 21.296875 6.109375 26.703125 6.109375 
Q 34.1875 6.109375 38.703125 11.40625 
Q 43.21875 16.703125 43.21875 25.484375 
L 43.21875 27.484375 
z
M 52.203125 31.203125 
L 52.203125 0 
L 43.21875 0 
L 43.21875 8.296875 
Q 40.140625 3.328125 35.546875 0.953125 
Q 30.953125 -1.421875 24.3125 -1.421875 
Q 15.921875 -1.421875 10.953125 3.296875 
Q 6 8.015625 6 15.921875 
Q 6 25.140625 12.171875 29.828125 
Q 18.359375 34.515625 30.609375 34.515625 
L 43.21875 34.515625 
L 43.21875 35.40625 
Q 43.21875 41.609375 39.140625 45 
Q 35.0625 48.390625 27.6875 48.390625 
Q 23 48.390625 18.546875 47.265625 
Q 14.109375 46.140625 10.015625 43.890625 
L 10.015625 52.203125 
Q 14.9375 54.109375 19.578125 55.046875 
Q 24.21875 56 28.609375 56 
Q 40.484375 56 46.34375 49.84375 
Q 52.203125 43.703125 52.203125 31.203125 
z
" id="DejaVuSans-97"/>
      <path d="M 9.421875 75.984375 
L 18.40625 75.984375 
L 18.40625 0 
L 9.421875 0 
z
" id="DejaVuSans-108"/>
     </defs>
     <g transform="translate(22.396875 232.646465)rotate(-90)scale(0.2 -0.2)">
      <use xlink:href="#DejaVuSans-84"/>
      <use x="60.833984" xlink:href="#DejaVuSans-119"/>
      <use x="142.621094" xlink:href="#DejaVuSans-111"/>
      <use x="203.818359" xlink:href="#DejaVuSans-45"/>
      <use x="239.902344" xlink:href="#DejaVuSans-98"/>
      <use x="303.378906" xlink:href="#DejaVuSans-111"/>
      <use x="364.560547" xlink:href="#DejaVuSans-100"/>
      <use x="428.037109" xlink:href="#DejaVuSans-121"/>
      <use x="487.216797" xlink:href="#DejaVuSans-32"/>
      <use x="519.003906" xlink:href="#DejaVuSans-115"/>
      <use x="571.103516" xlink:href="#DejaVuSans-117"/>
      <use x="634.482422" xlink:href="#DejaVuSans-114"/>
      <use x="675.595703" xlink:href="#DejaVuSans-118"/>
      <use x="734.775391" xlink:href="#DejaVuSans-105"/>
      <use x="762.558594" xlink:href="#DejaVuSans-118"/>
      <use x="821.738281" xlink:href="#DejaVuSans-97"/>
      <use x="883.017578" xlink:href="#DejaVuSans-108"/>
     </g>
    </g>
   </g>
   <g id="LineCollection_1">
    <path clip-path="url(#pd72c2f7809)" d="M 92.40069 85.426611 
L 92.40069 59.447362 
" style="fill:none;stroke:#1f77b4;stroke-width:1.5;"/>
    <path clip-path="url(#pd72c2f7809)" d="M 110.846971 103.283482 
L 110.846971 76.098095 
" style="fill:none;stroke:#1f77b4;stroke-width:1.5;"/>
    <path clip-path="url(#pd72c2f7809)" d="M 129.293252 108.8921 
L 129.293252 81.61011 
" style="fill:none;stroke:#1f77b4;stroke-width:1.5;"/>
    <path clip-path="url(#pd72c2f7809)" d="M 147.739533 111.367744 
L 147.739533 83.849966 
" style="fill:none;stroke:#1f77b4;stroke-width:1.5;"/>
    <path clip-path="url(#pd72c2f7809)" d="M 166.185814 119.245283 
L 166.185814 91.612988 
" style="fill:none;stroke:#1f77b4;stroke-width:1.5;"/>
    <path clip-path="url(#pd72c2f7809)" d="M 184.632095 137.29306 
L 184.632095 109.445681 
" style="fill:none;stroke:#1f77b4;stroke-width:1.5;"/>
    <path clip-path="url(#pd72c2f7809)" d="M 203.078376 193.026287 
L 203.078376 163.474283 
" style="fill:none;stroke:#1f77b4;stroke-width:1.5;"/>
    <path clip-path="url(#pd72c2f7809)" d="M 221.524657 260.325983 
L 221.524657 231.903897 
" style="fill:none;stroke:#1f77b4;stroke-width:1.5;"/>
    <path clip-path="url(#pd72c2f7809)" d="M 239.970938 251.643685 
L 239.970938 222.816916 
" style="fill:none;stroke:#1f77b4;stroke-width:1.5;"/>
    <path clip-path="url(#pd72c2f7809)" d="M 258.417218 262.525215 
L 258.417218 234.10882 
" style="fill:none;stroke:#1f77b4;stroke-width:1.5;"/>
    <path clip-path="url(#pd72c2f7809)" d="M 276.863499 242.726657 
L 276.863499 215.294794 
" style="fill:none;stroke:#1f77b4;stroke-width:1.5;"/>
    <path clip-path="url(#pd72c2f7809)" d="M 295.30978 191.996527 
L 295.30978 163.136887 
" style="fill:none;stroke:#1f77b4;stroke-width:1.5;"/>
    <path clip-path="url(#pd72c2f7809)" d="M 313.756061 161.864261 
L 313.756061 133.497122 
" style="fill:none;stroke:#1f77b4;stroke-width:1.5;"/>
    <path clip-path="url(#pd72c2f7809)" d="M 332.202342 155.911046 
L 332.202342 128.914373 
" style="fill:none;stroke:#1f77b4;stroke-width:1.5;"/>
    <path clip-path="url(#pd72c2f7809)" d="M 350.648623 121.243865 
L 350.648623 94.337125 
" style="fill:none;stroke:#1f77b4;stroke-width:1.5;"/>
    <path clip-path="url(#pd72c2f7809)" d="M 369.094904 110.298965 
L 369.094904 82.971388 
" style="fill:none;stroke:#1f77b4;stroke-width:1.5;"/>
    <path clip-path="url(#pd72c2f7809)" d="M 387.541185 95.075145 
L 387.541185 68.975913 
" style="fill:none;stroke:#1f77b4;stroke-width:1.5;"/>
   </g>
   <g id="LineCollection_2">
    <path clip-path="url(#pd72c2f7809)" d="M 92.40069 73.869297 
L 92.40069 47.634972 
" style="fill:none;stroke:#ff7f0e;stroke-width:1.5;"/>
    <path clip-path="url(#pd72c2f7809)" d="M 110.846971 77.324919 
L 110.846971 51.4908 
" style="fill:none;stroke:#ff7f0e;stroke-width:1.5;"/>
    <path clip-path="url(#pd72c2f7809)" d="M 129.293252 44.127243 
L 129.293252 20.605215 
" style="fill:none;stroke:#ff7f0e;stroke-width:1.5;"/>
    <path clip-path="url(#pd72c2f7809)" d="M 147.739533 47.585192 
L 147.739533 22.499437 
" style="fill:none;stroke:#ff7f0e;stroke-width:1.5;"/>
    <path clip-path="url(#pd72c2f7809)" d="M 166.185814 69.625258 
L 166.185814 44.58112 
" style="fill:none;stroke:#ff7f0e;stroke-width:1.5;"/>
    <path clip-path="url(#pd72c2f7809)" d="M 184.632095 99.967765 
L 184.632095 72.458731 
" style="fill:none;stroke:#ff7f0e;stroke-width:1.5;"/>
    <path clip-path="url(#pd72c2f7809)" d="M 203.078376 90.453065 
L 203.078376 64.30265 
" style="fill:none;stroke:#ff7f0e;stroke-width:1.5;"/>
    <path clip-path="url(#pd72c2f7809)" d="M 221.524657 121.313767 
L 221.524657 92.869206 
" style="fill:none;stroke:#ff7f0e;stroke-width:1.5;"/>
    <path clip-path="url(#pd72c2f7809)" d="M 239.970938 143.358723 
L 239.970938 115.349043 
" style="fill:none;stroke:#ff7f0e;stroke-width:1.5;"/>
    <path clip-path="url(#pd72c2f7809)" d="M 258.417218 113.242541 
L 258.417218 86.156831 
" style="fill:none;stroke:#ff7f0e;stroke-width:1.5;"/>
    <path clip-path="url(#pd72c2f7809)" d="M 276.863499 132.492068 
L 276.863499 105.031759 
" style="fill:none;stroke:#ff7f0e;stroke-width:1.5;"/>
    <path clip-path="url(#pd72c2f7809)" d="M 295.30978 84.849367 
L 295.30978 59.879 
" style="fill:none;stroke:#ff7f0e;stroke-width:1.5;"/>
    <path clip-path="url(#pd72c2f7809)" d="M 313.756061 92.155575 
L 313.756061 64.976959 
" style="fill:none;stroke:#ff7f0e;stroke-width:1.5;"/>
    <path clip-path="url(#pd72c2f7809)" d="M 332.202342 92.096974 
L 332.202342 64.824857 
" style="fill:none;stroke:#ff7f0e;stroke-width:1.5;"/>
    <path clip-path="url(#pd72c2f7809)" d="M 350.648623 70.966186 
L 350.648623 45.279619 
" style="fill:none;stroke:#ff7f0e;stroke-width:1.5;"/>
    <path clip-path="url(#pd72c2f7809)" d="M 369.094904 64.384709 
L 369.094904 39.483727 
" style="fill:none;stroke:#ff7f0e;stroke-width:1.5;"/>
    <path clip-path="url(#pd72c2f7809)" d="M 387.541185 61.157516 
L 387.541185 35.522289 
" style="fill:none;stroke:#ff7f0e;stroke-width:1.5;"/>
   </g>
   <g id="line2d_21">
    <path clip-path="url(#pd72c2f7809)" d="M 77.643665 72.08132 
L 85.598497 74.038749 
L 93.001361 76.085956 
L 99.949663 78.236106 
L 106.475872 80.487217 
L 112.612456 82.837601 
L 118.424354 85.300768 
L 123.911564 87.865474 
L 129.139025 90.551581 
L 134.139205 93.368873 
L 138.944573 96.330861 
L 143.555129 99.43276 
L 148.003341 102.691928 
L 152.321678 106.131248 
L 156.510141 109.750862 
L 160.601197 113.580388 
L 164.594847 117.622957 
L 168.52356 121.916493 
L 172.387336 126.468074 
L 176.218642 131.325263 
L 180.049949 136.545297 
L 183.881256 142.146506 
L 187.712563 148.143747 
L 191.608807 154.658574 
L 195.602457 161.773335 
L 199.790919 169.698772 
L 204.2716 178.665798 
L 209.336718 189.317578 
L 216.447363 204.84885 
L 224.402195 222.106849 
L 228.428314 230.309521 
L 231.642716 236.374113 
L 234.402555 241.122467 
L 236.837708 244.885322 
L 239.04558 247.899406 
L 241.058639 250.282045 
L 242.909355 252.13995 
L 244.630196 253.56429 
L 246.253631 254.628145 
L 247.77966 255.372354 
L 249.27322 255.855239 
L 250.701843 256.086656 
L 252.130466 256.091159 
L 253.559089 255.868719 
L 254.987712 255.420798 
L 256.481272 254.714629 
L 258.03977 253.723871 
L 259.663205 252.424187 
L 261.416515 250.725872 
L 263.299699 248.578572 
L 265.312759 245.937804 
L 267.520631 242.666335 
L 269.988252 238.597031 
L 272.78056 233.543156 
L 276.02743 227.184926 
L 280.053549 218.784223 
L 286.255071 205.259721 
L 295.443714 185.284704 
L 300.5413 174.757266 
L 305.054449 165.939215 
L 309.275381 158.175099 
L 313.333968 151.171804 
L 317.29515 144.777525 
L 321.191394 138.906342 
L 325.05517 133.480472 
L 328.951414 128.390924 
L 332.847658 123.664249 
L 336.808839 119.207945 
L 340.80249 115.047449 
L 344.893546 111.106271 
L 349.04954 107.409253 
L 353.335408 103.894036 
L 357.751152 100.561036 
L 362.29677 97.408736 
L 367.004732 94.414231 
L 371.907506 91.560015 
L 377.005092 88.849602 
L 382.362428 86.254318 
L 387.979513 83.781885 
L 393.888817 81.424896 
L 400.155276 79.167147 
L 402.29821 78.44679 
L 402.29821 78.44679 
" style="fill:none;stroke:#1f77b4;stroke-linecap:square;stroke-width:1.5;"/>
   </g>
   <g id="line2d_22">
    <path clip-path="url(#pd72c2f7809)" d="M 77.643665 45.956025 
L 90.825958 47.071532 
L 102.417284 48.270701 
L 112.709862 49.554679 
L 121.930974 50.924988 
L 130.27543 52.386488 
L 137.873106 53.939976 
L 144.853877 55.592083 
L 151.28268 57.339192 
L 157.256921 59.189788 
L 162.874006 61.160521 
L 168.166404 63.251406 
L 173.199053 65.477907 
L 178.004421 67.84608 
L 182.647445 70.382294 
L 187.160595 73.101791 
L 191.576338 76.022174 
L 195.959613 79.187255 
L 200.407825 82.675648 
L 205.01838 86.57886 
L 209.986092 91.082487 
L 216.02527 96.875662 
L 228.233502 108.669188 
L 231.999871 111.940268 
L 235.116867 114.362481 
L 237.844238 116.208204 
L 240.311859 117.616737 
L 242.617137 118.679403 
L 244.79254 119.437821 
L 246.870537 119.92721 
L 248.883596 120.173965 
L 250.864187 120.194304 
L 252.844778 119.993669 
L 254.857837 119.56667 
L 256.935834 118.8975 
L 259.111237 117.960885 
L 261.416515 116.723764 
L 263.916605 115.125634 
L 266.708913 113.067429 
L 269.890846 110.435077 
L 273.754621 106.936069 
L 279.306769 101.576332 
L 290.443534 90.785997 
L 295.638526 86.10261 
L 300.346488 82.15452 
L 304.859637 78.658041 
L 309.307849 75.492104 
L 313.756061 72.597519 
L 318.269211 69.924128 
L 322.912235 67.431795 
L 327.717603 65.105022 
L 332.717783 62.930891 
L 337.977713 60.886932 
L 343.529861 58.968619 
L 349.439164 57.163068 
L 355.770561 55.462533 
L 362.621457 53.855943 
L 370.024321 52.350895 
L 378.109028 50.936577 
L 387.005452 49.608957 
L 396.875937 48.364573 
L 402.29821 47.766392 
L 402.29821 47.766392 
" style="fill:none;stroke:#ff7f0e;stroke-linecap:square;stroke-width:1.5;"/>
   </g>
   <g id="line2d_23">
    <defs>
     <path d="M 0 1.5 
C 0.397805 1.5 0.77937 1.341951 1.06066 1.06066 
C 1.341951 0.77937 1.5 0.397805 1.5 0 
C 1.5 -0.397805 1.341951 -0.77937 1.06066 -1.06066 
C 0.77937 -1.341951 0.397805 -1.5 0 -1.5 
C -0.397805 -1.5 -0.77937 -1.341951 -1.06066 -1.06066 
C -1.341951 -0.77937 -1.5 -0.397805 -1.5 0 
C -1.5 0.397805 -1.341951 0.77937 -1.06066 1.06066 
C -0.77937 1.341951 -0.397805 1.5 0 1.5 
z
" id="mb8bc26594a" style="stroke:#1f77b4;"/>
    </defs>
    <g clip-path="url(#pd72c2f7809)">
     <use style="fill:#1f77b4;stroke:#1f77b4;" x="92.40069" xlink:href="#mb8bc26594a" y="72.436987"/>
     <use style="fill:#1f77b4;stroke:#1f77b4;" x="110.846971" xlink:href="#mb8bc26594a" y="89.690788"/>
     <use style="fill:#1f77b4;stroke:#1f77b4;" x="129.293252" xlink:href="#mb8bc26594a" y="95.251105"/>
     <use style="fill:#1f77b4;stroke:#1f77b4;" x="147.739533" xlink:href="#mb8bc26594a" y="97.608855"/>
     <use style="fill:#1f77b4;stroke:#1f77b4;" x="166.185814" xlink:href="#mb8bc26594a" y="105.429136"/>
     <use style="fill:#1f77b4;stroke:#1f77b4;" x="184.632095" xlink:href="#mb8bc26594a" y="123.369371"/>
     <use style="fill:#1f77b4;stroke:#1f77b4;" x="203.078376" xlink:href="#mb8bc26594a" y="178.250285"/>
     <use style="fill:#1f77b4;stroke:#1f77b4;" x="221.524657" xlink:href="#mb8bc26594a" y="246.11494"/>
     <use style="fill:#1f77b4;stroke:#1f77b4;" x="239.970938" xlink:href="#mb8bc26594a" y="237.230301"/>
     <use style="fill:#1f77b4;stroke:#1f77b4;" x="258.417218" xlink:href="#mb8bc26594a" y="248.317017"/>
     <use style="fill:#1f77b4;stroke:#1f77b4;" x="276.863499" xlink:href="#mb8bc26594a" y="229.010725"/>
     <use style="fill:#1f77b4;stroke:#1f77b4;" x="295.30978" xlink:href="#mb8bc26594a" y="177.566707"/>
     <use style="fill:#1f77b4;stroke:#1f77b4;" x="313.756061" xlink:href="#mb8bc26594a" y="147.680691"/>
     <use style="fill:#1f77b4;stroke:#1f77b4;" x="332.202342" xlink:href="#mb8bc26594a" y="142.41271"/>
     <use style="fill:#1f77b4;stroke:#1f77b4;" x="350.648623" xlink:href="#mb8bc26594a" y="107.790495"/>
     <use style="fill:#1f77b4;stroke:#1f77b4;" x="369.094904" xlink:href="#mb8bc26594a" y="96.635177"/>
     <use style="fill:#1f77b4;stroke:#1f77b4;" x="387.541185" xlink:href="#mb8bc26594a" y="82.025529"/>
    </g>
   </g>
   <g id="line2d_24">
    <defs>
     <path d="M 0 1.5 
C 0.397805 1.5 0.77937 1.341951 1.06066 1.06066 
C 1.341951 0.77937 1.5 0.397805 1.5 0 
C 1.5 -0.397805 1.341951 -0.77937 1.06066 -1.06066 
C 0.77937 -1.341951 0.397805 -1.5 0 -1.5 
C -0.397805 -1.5 -0.77937 -1.341951 -1.06066 -1.06066 
C -1.341951 -0.77937 -1.5 -0.397805 -1.5 0 
C -1.5 0.397805 -1.341951 0.77937 -1.06066 1.06066 
C -0.77937 1.341951 -0.397805 1.5 0 1.5 
z
" id="m3e2fb6b177" style="stroke:#ff7f0e;"/>
    </defs>
    <g clip-path="url(#pd72c2f7809)">
     <use style="fill:#ff7f0e;stroke:#ff7f0e;" x="92.40069" xlink:href="#m3e2fb6b177" y="60.752134"/>
     <use style="fill:#ff7f0e;stroke:#ff7f0e;" x="110.846971" xlink:href="#m3e2fb6b177" y="64.40786"/>
     <use style="fill:#ff7f0e;stroke:#ff7f0e;" x="129.293252" xlink:href="#m3e2fb6b177" y="32.366229"/>
     <use style="fill:#ff7f0e;stroke:#ff7f0e;" x="147.739533" xlink:href="#m3e2fb6b177" y="35.042315"/>
     <use style="fill:#ff7f0e;stroke:#ff7f0e;" x="166.185814" xlink:href="#m3e2fb6b177" y="57.103189"/>
     <use style="fill:#ff7f0e;stroke:#ff7f0e;" x="184.632095" xlink:href="#m3e2fb6b177" y="86.213248"/>
     <use style="fill:#ff7f0e;stroke:#ff7f0e;" x="203.078376" xlink:href="#m3e2fb6b177" y="77.377857"/>
     <use style="fill:#ff7f0e;stroke:#ff7f0e;" x="221.524657" xlink:href="#m3e2fb6b177" y="107.091486"/>
     <use style="fill:#ff7f0e;stroke:#ff7f0e;" x="239.970938" xlink:href="#m3e2fb6b177" y="129.353883"/>
     <use style="fill:#ff7f0e;stroke:#ff7f0e;" x="258.417218" xlink:href="#m3e2fb6b177" y="99.699686"/>
     <use style="fill:#ff7f0e;stroke:#ff7f0e;" x="276.863499" xlink:href="#m3e2fb6b177" y="118.761914"/>
     <use style="fill:#ff7f0e;stroke:#ff7f0e;" x="295.30978" xlink:href="#m3e2fb6b177" y="72.364183"/>
     <use style="fill:#ff7f0e;stroke:#ff7f0e;" x="313.756061" xlink:href="#m3e2fb6b177" y="78.566267"/>
     <use style="fill:#ff7f0e;stroke:#ff7f0e;" x="332.202342" xlink:href="#m3e2fb6b177" y="78.460916"/>
     <use style="fill:#ff7f0e;stroke:#ff7f0e;" x="350.648623" xlink:href="#m3e2fb6b177" y="58.122903"/>
     <use style="fill:#ff7f0e;stroke:#ff7f0e;" x="369.094904" xlink:href="#m3e2fb6b177" y="51.934218"/>
     <use style="fill:#ff7f0e;stroke:#ff7f0e;" x="387.541185" xlink:href="#m3e2fb6b177" y="48.339903"/>
    </g>
   </g>
   <g id="patch_3">
    <path d="M 61.410938 274.621215 
L 61.410938 8.509215 
" style="fill:none;stroke:#000000;stroke-linecap:square;stroke-linejoin:miter;stroke-width:0.8;"/>
   </g>
   <g id="patch_4">
    <path d="M 418.530938 274.621215 
L 418.530938 8.509215 
" style="fill:none;stroke:#000000;stroke-linecap:square;stroke-linejoin:miter;stroke-width:0.8;"/>
   </g>
   <g id="patch_5">
    <path d="M 61.410937 274.621215 
L 418.530938 274.621215 
" style="fill:none;stroke:#000000;stroke-linecap:square;stroke-linejoin:miter;stroke-width:0.8;"/>
   </g>
   <g id="patch_6">
    <path d="M 61.410937 8.509215 
L 418.530938 8.509215 
" style="fill:none;stroke:#000000;stroke-linecap:square;stroke-linejoin:miter;stroke-width:0.8;"/>
   </g>
   <g id="text_13">
    <!-- $f_{5 ms}=368.4361(12)$ MHz -->
    <defs>
     <path d="M 47.796875 75.984375 
L 46.390625 68.5 
L 37.796875 68.5 
Q 32.90625 68.5 30.6875 66.578125 
Q 28.46875 64.65625 27.390625 59.515625 
L 26.421875 54.6875 
L 41.21875 54.6875 
L 39.890625 47.703125 
L 25.09375 47.703125 
L 15.828125 0 
L 6.78125 0 
L 16.109375 47.703125 
L 7.515625 47.703125 
L 8.796875 54.6875 
L 17.390625 54.6875 
L 18.109375 58.5 
Q 19.96875 68.171875 24.625 72.078125 
Q 29.296875 75.984375 39.3125 75.984375 
z
" id="DejaVuSans-Oblique-102"/>
     <path d="M 89.796875 33.015625 
L 83.40625 0 
L 74.421875 0 
L 80.71875 32.71875 
Q 81.109375 34.8125 81.296875 36.328125 
Q 81.5 37.84375 81.5 38.921875 
Q 81.5 43.3125 79.046875 45.75 
Q 76.609375 48.1875 72.21875 48.1875 
Q 65.671875 48.1875 60.546875 43.28125 
Q 55.421875 38.375 53.90625 30.515625 
L 47.90625 0 
L 38.921875 0 
L 45.3125 32.71875 
Q 45.703125 34.515625 45.890625 36.046875 
Q 46.09375 37.59375 46.09375 38.8125 
Q 46.09375 43.265625 43.65625 45.71875 
Q 41.21875 48.1875 36.921875 48.1875 
Q 30.28125 48.1875 25.140625 43.28125 
Q 20.015625 38.375 18.5 30.515625 
L 12.5 0 
L 3.515625 0 
L 14.203125 54.6875 
L 23.1875 54.6875 
L 21.484375 46.1875 
Q 25.140625 50.984375 30.046875 53.484375 
Q 34.96875 56 40.578125 56 
Q 46.53125 56 50.359375 52.875 
Q 54.203125 49.75 54.984375 44.1875 
Q 59.078125 49.953125 64.46875 52.96875 
Q 69.875 56 75.875 56 
Q 82.90625 56 86.734375 51.953125 
Q 90.578125 47.90625 90.578125 40.484375 
Q 90.578125 38.875 90.375 36.9375 
Q 90.1875 35.015625 89.796875 33.015625 
z
" id="DejaVuSans-Oblique-109"/>
     <path d="M 50 53.078125 
L 48.296875 44.578125 
Q 44.734375 46.53125 40.765625 47.5 
Q 36.8125 48.484375 32.625 48.484375 
Q 25.53125 48.484375 21.453125 46.0625 
Q 17.390625 43.65625 17.390625 39.5 
Q 17.390625 34.671875 26.859375 32.078125 
Q 27.59375 31.890625 27.9375 31.78125 
L 30.8125 30.90625 
Q 39.796875 28.421875 42.796875 25.6875 
Q 45.796875 22.953125 45.796875 18.21875 
Q 45.796875 9.515625 38.890625 4.046875 
Q 31.984375 -1.421875 20.796875 -1.421875 
Q 16.453125 -1.421875 11.671875 -0.578125 
Q 6.890625 0.25 1.125 2 
L 2.875 11.28125 
Q 7.8125 8.734375 12.59375 7.421875 
Q 17.390625 6.109375 21.78125 6.109375 
Q 28.375 6.109375 32.5 8.9375 
Q 36.625 11.765625 36.625 16.109375 
Q 36.625 20.796875 25.78125 23.6875 
L 24.859375 23.921875 
L 21.78125 24.703125 
Q 14.9375 26.515625 11.765625 29.46875 
Q 8.59375 32.421875 8.59375 37.015625 
Q 8.59375 45.75 15.15625 50.875 
Q 21.734375 56 33.015625 56 
Q 37.453125 56 41.671875 55.265625 
Q 45.90625 54.546875 50 53.078125 
z
" id="DejaVuSans-Oblique-115"/>
     <path d="M 10.59375 45.40625 
L 73.1875 45.40625 
L 73.1875 37.203125 
L 10.59375 37.203125 
z
M 10.59375 25.484375 
L 73.1875 25.484375 
L 73.1875 17.1875 
L 10.59375 17.1875 
z
" id="DejaVuSans-61"/>
     <path d="M 12.40625 8.296875 
L 28.515625 8.296875 
L 28.515625 63.921875 
L 10.984375 60.40625 
L 10.984375 69.390625 
L 28.421875 72.90625 
L 38.28125 72.90625 
L 38.28125 8.296875 
L 54.390625 8.296875 
L 54.390625 0 
L 12.40625 0 
z
" id="DejaVuSans-49"/>
    </defs>
    <g style="fill:#1f77b4;" transform="translate(70.265152 232.654841)scale(0.1666 -0.1666)">
     <use transform="translate(0 0.015625)" xlink:href="#DejaVuSans-Oblique-102"/>
     <use transform="translate(35.205078 -16.390625)scale(0.7)" xlink:href="#DejaVuSans-53"/>
     <use transform="translate(79.686523 -16.390625)scale(0.7)" xlink:href="#DejaVuSans-Oblique-109"/>
     <use transform="translate(147.875 -16.390625)scale(0.7)" xlink:href="#DejaVuSans-Oblique-115"/>
     <use transform="translate(206.561523 0.015625)" xlink:href="#DejaVuSans-61"/>
     <use transform="translate(309.833008 0.015625)" xlink:href="#DejaVuSans-51"/>
     <use transform="translate(373.456055 0.015625)" xlink:href="#DejaVuSans-54"/>
     <use transform="translate(437.079102 0.015625)" xlink:href="#DejaVuSans-56"/>
     <use transform="translate(500.702148 0.015625)" xlink:href="#DejaVuSans-46"/>
     <use transform="translate(532.489258 0.015625)" xlink:href="#DejaVuSans-52"/>
     <use transform="translate(596.112305 0.015625)" xlink:href="#DejaVuSans-51"/>
     <use transform="translate(659.735352 0.015625)" xlink:href="#DejaVuSans-54"/>
     <use transform="translate(723.358398 0.015625)" xlink:href="#DejaVuSans-49"/>
     <use transform="translate(786.981445 0.015625)" xlink:href="#DejaVuSans-40"/>
     <use transform="translate(825.995117 0.015625)" xlink:href="#DejaVuSans-49"/>
     <use transform="translate(889.618164 0.015625)" xlink:href="#DejaVuSans-50"/>
     <use transform="translate(953.241211 0.015625)" xlink:href="#DejaVuSans-41"/>
     <use transform="translate(992.254883 0.015625)" xlink:href="#DejaVuSans-32"/>
     <use transform="translate(1024.041992 0.015625)" xlink:href="#DejaVuSans-77"/>
     <use transform="translate(1110.321289 0.015625)" xlink:href="#DejaVuSans-72"/>
     <use transform="translate(1185.516602 0.015625)" xlink:href="#DejaVuSans-122"/>
    </g>
   </g>
   <g id="text_14">
    <!-- $\Gamma_{5 ms}=33.0(76)$ kHz -->
    <defs>
     <path d="M 9.8125 0 
L 9.8125 72.90625 
L 55.171875 72.90625 
L 55.171875 64.59375 
L 19.671875 64.59375 
L 19.671875 0 
z
" id="DejaVuSans-915"/>
     <path d="M 9.078125 75.984375 
L 18.109375 75.984375 
L 18.109375 31.109375 
L 44.921875 54.6875 
L 56.390625 54.6875 
L 27.390625 29.109375 
L 57.625 0 
L 45.90625 0 
L 18.109375 26.703125 
L 18.109375 0 
L 9.078125 0 
z
" id="DejaVuSans-107"/>
    </defs>
    <g style="fill:#1f77b4;" transform="translate(70.265152 214.592703)scale(0.1666 -0.1666)">
     <use transform="translate(0 0.015625)" xlink:href="#DejaVuSans-915"/>
     <use transform="translate(56.669922 -16.390625)scale(0.7)" xlink:href="#DejaVuSans-53"/>
     <use transform="translate(101.151367 -16.390625)scale(0.7)" xlink:href="#DejaVuSans-Oblique-109"/>
     <use transform="translate(169.339844 -16.390625)scale(0.7)" xlink:href="#DejaVuSans-Oblique-115"/>
     <use transform="translate(228.026367 0.015625)" xlink:href="#DejaVuSans-61"/>
     <use transform="translate(331.297852 0.015625)" xlink:href="#DejaVuSans-51"/>
     <use transform="translate(394.920898 0.015625)" xlink:href="#DejaVuSans-51"/>
     <use transform="translate(458.543945 0.015625)" xlink:href="#DejaVuSans-46"/>
     <use transform="translate(490.331055 0.015625)" xlink:href="#DejaVuSans-48"/>
     <use transform="translate(553.954102 0.015625)" xlink:href="#DejaVuSans-40"/>
     <use transform="translate(592.967773 0.015625)" xlink:href="#DejaVuSans-55"/>
     <use transform="translate(656.59082 0.015625)" xlink:href="#DejaVuSans-54"/>
     <use transform="translate(720.213867 0.015625)" xlink:href="#DejaVuSans-41"/>
     <use transform="translate(759.227539 0.015625)" xlink:href="#DejaVuSans-32"/>
     <use transform="translate(791.014648 0.015625)" xlink:href="#DejaVuSans-107"/>
     <use transform="translate(848.924805 0.015625)" xlink:href="#DejaVuSans-72"/>
     <use transform="translate(924.120117 0.015625)" xlink:href="#DejaVuSans-122"/>
    </g>
   </g>
   <g id="text_15">
    <!-- $f_{1 ms}=368.4357(28)$ MHz -->
    <g style="fill:#ff7f0e;" transform="translate(132.982508 33.971323)scale(0.1666 -0.1666)">
     <use transform="translate(0 0.015625)" xlink:href="#DejaVuSans-Oblique-102"/>
     <use transform="translate(35.205078 -16.390625)scale(0.7)" xlink:href="#DejaVuSans-49"/>
     <use transform="translate(79.741211 -16.390625)scale(0.7)" xlink:href="#DejaVuSans-Oblique-109"/>
     <use transform="translate(147.929688 -16.390625)scale(0.7)" xlink:href="#DejaVuSans-Oblique-115"/>
     <use transform="translate(206.616211 0.015625)" xlink:href="#DejaVuSans-61"/>
     <use transform="translate(309.887695 0.015625)" xlink:href="#DejaVuSans-51"/>
     <use transform="translate(373.510742 0.015625)" xlink:href="#DejaVuSans-54"/>
     <use transform="translate(437.133789 0.015625)" xlink:href="#DejaVuSans-56"/>
     <use transform="translate(500.756836 0.015625)" xlink:href="#DejaVuSans-46"/>
     <use transform="translate(532.543945 0.015625)" xlink:href="#DejaVuSans-52"/>
     <use transform="translate(596.166992 0.015625)" xlink:href="#DejaVuSans-51"/>
     <use transform="translate(659.790039 0.015625)" xlink:href="#DejaVuSans-53"/>
     <use transform="translate(723.303711 0.015625)" xlink:href="#DejaVuSans-55"/>
     <use transform="translate(786.926758 0.015625)" xlink:href="#DejaVuSans-40"/>
     <use transform="translate(825.94043 0.015625)" xlink:href="#DejaVuSans-50"/>
     <use transform="translate(889.563477 0.015625)" xlink:href="#DejaVuSans-56"/>
     <use transform="translate(953.186523 0.015625)" xlink:href="#DejaVuSans-41"/>
     <use transform="translate(992.200195 0.015625)" xlink:href="#DejaVuSans-32"/>
     <use transform="translate(1023.987305 0.015625)" xlink:href="#DejaVuSans-77"/>
     <use transform="translate(1110.266602 0.015625)" xlink:href="#DejaVuSans-72"/>
     <use transform="translate(1185.461914 0.015625)" xlink:href="#DejaVuSans-122"/>
    </g>
   </g>
   <g id="text_16">
    <!-- $\Gamma_{1 ms}=29(15)$ kHz -->
    <defs>
     <path d="M 10.984375 1.515625 
L 10.984375 10.5 
Q 14.703125 8.734375 18.5 7.8125 
Q 22.3125 6.890625 25.984375 6.890625 
Q 35.75 6.890625 40.890625 13.453125 
Q 46.046875 20.015625 46.78125 33.40625 
Q 43.953125 29.203125 39.59375 26.953125 
Q 35.25 24.703125 29.984375 24.703125 
Q 19.046875 24.703125 12.671875 31.3125 
Q 6.296875 37.9375 6.296875 49.421875 
Q 6.296875 60.640625 12.9375 67.421875 
Q 19.578125 74.21875 30.609375 74.21875 
Q 43.265625 74.21875 49.921875 64.515625 
Q 56.59375 54.828125 56.59375 36.375 
Q 56.59375 19.140625 48.40625 8.859375 
Q 40.234375 -1.421875 26.421875 -1.421875 
Q 22.703125 -1.421875 18.890625 -0.6875 
Q 15.09375 0.046875 10.984375 1.515625 
z
M 30.609375 32.421875 
Q 37.25 32.421875 41.125 36.953125 
Q 45.015625 41.5 45.015625 49.421875 
Q 45.015625 57.28125 41.125 61.84375 
Q 37.25 66.40625 30.609375 66.40625 
Q 23.96875 66.40625 20.09375 61.84375 
Q 16.21875 57.28125 16.21875 49.421875 
Q 16.21875 41.5 20.09375 36.953125 
Q 23.96875 32.421875 30.609375 32.421875 
z
" id="DejaVuSans-57"/>
    </defs>
    <g style="fill:#ff7f0e;" transform="translate(158.807301 52.033461)scale(0.1666 -0.1666)">
     <use transform="translate(0 0.015625)" xlink:href="#DejaVuSans-915"/>
     <use transform="translate(56.669922 -16.390625)scale(0.7)" xlink:href="#DejaVuSans-49"/>
     <use transform="translate(101.206055 -16.390625)scale(0.7)" xlink:href="#DejaVuSans-Oblique-109"/>
     <use transform="translate(169.394531 -16.390625)scale(0.7)" xlink:href="#DejaVuSans-Oblique-115"/>
     <use transform="translate(228.081055 0.015625)" xlink:href="#DejaVuSans-61"/>
     <use transform="translate(331.352539 0.015625)" xlink:href="#DejaVuSans-50"/>
     <use transform="translate(394.959961 0.015625)" xlink:href="#DejaVuSans-57"/>
     <use transform="translate(458.583008 0.015625)" xlink:href="#DejaVuSans-40"/>
     <use transform="translate(497.59668 0.015625)" xlink:href="#DejaVuSans-49"/>
     <use transform="translate(561.219727 0.015625)" xlink:href="#DejaVuSans-53"/>
     <use transform="translate(624.842773 0.015625)" xlink:href="#DejaVuSans-41"/>
     <use transform="translate(663.856445 0.015625)" xlink:href="#DejaVuSans-32"/>
     <use transform="translate(695.643555 0.015625)" xlink:href="#DejaVuSans-107"/>
     <use transform="translate(753.553711 0.015625)" xlink:href="#DejaVuSans-72"/>
     <use transform="translate(828.749023 0.015625)" xlink:href="#DejaVuSans-122"/>
    </g>
   </g>
   <g id="legend_1">
    <g id="patch_7">
     <path d="M 312.755556 266.291215 
L 406.868938 266.291215 
Q 410.200938 266.291215 410.200938 262.959215 
L 410.200938 215.717702 
Q 410.200938 212.385702 406.868938 212.385702 
L 312.755556 212.385702 
Q 309.423556 212.385702 309.423556 215.717702 
L 309.423556 262.959215 
Q 309.423556 266.291215 312.755556 266.291215 
z
" style="fill:#ffffff;opacity:0.8;stroke:#cccccc;stroke-linejoin:miter;"/>
    </g>
    <g id="LineCollection_3">
     <path d="M 332.747556 234.207699 
L 332.747556 217.547699 
" style="fill:none;stroke:#1f77b4;stroke-width:1.5;"/>
    </g>
    <g id="line2d_25"/>
    <g id="line2d_26">
     <g>
      <use style="fill:#1f77b4;stroke:#1f77b4;" x="332.747556" xlink:href="#mb8bc26594a" y="225.877699"/>
     </g>
    </g>
    <g id="text_17">
     <!-- 5 ms -->
     <defs>
      <path d="M 52 44.1875 
Q 55.375 50.25 60.0625 53.125 
Q 64.75 56 71.09375 56 
Q 79.640625 56 84.28125 50.015625 
Q 88.921875 44.046875 88.921875 33.015625 
L 88.921875 0 
L 79.890625 0 
L 79.890625 32.71875 
Q 79.890625 40.578125 77.09375 44.375 
Q 74.3125 48.1875 68.609375 48.1875 
Q 61.625 48.1875 57.5625 43.546875 
Q 53.515625 38.921875 53.515625 30.90625 
L 53.515625 0 
L 44.484375 0 
L 44.484375 32.71875 
Q 44.484375 40.625 41.703125 44.40625 
Q 38.921875 48.1875 33.109375 48.1875 
Q 26.21875 48.1875 22.15625 43.53125 
Q 18.109375 38.875 18.109375 30.90625 
L 18.109375 0 
L 9.078125 0 
L 9.078125 54.6875 
L 18.109375 54.6875 
L 18.109375 46.1875 
Q 21.1875 51.21875 25.484375 53.609375 
Q 29.78125 56 35.6875 56 
Q 41.65625 56 45.828125 52.96875 
Q 50 49.953125 52 44.1875 
z
" id="DejaVuSans-109"/>
     </defs>
     <g transform="translate(362.735556 231.708699)scale(0.1666 -0.1666)">
      <use xlink:href="#DejaVuSans-53"/>
      <use x="63.623047" xlink:href="#DejaVuSans-32"/>
      <use x="95.410156" xlink:href="#DejaVuSans-109"/>
      <use x="192.822266" xlink:href="#DejaVuSans-115"/>
     </g>
    </g>
    <g id="LineCollection_4">
     <path d="M 332.747556 258.661456 
L 332.747556 242.001456 
" style="fill:none;stroke:#ff7f0e;stroke-width:1.5;"/>
    </g>
    <g id="line2d_27"/>
    <g id="line2d_28">
     <g>
      <use style="fill:#ff7f0e;stroke:#ff7f0e;" x="332.747556" xlink:href="#m3e2fb6b177" y="250.331456"/>
     </g>
    </g>
    <g id="text_18">
     <!-- 1 ms -->
     <g transform="translate(362.735556 256.162456)scale(0.1666 -0.1666)">
      <use xlink:href="#DejaVuSans-49"/>
      <use x="63.623047" xlink:href="#DejaVuSans-32"/>
      <use x="95.410156" xlink:href="#DejaVuSans-109"/>
      <use x="192.822266" xlink:href="#DejaVuSans-115"/>
     </g>
    </g>
   </g>
  </g>
 </g>
 <defs>
  <clipPath id="pd72c2f7809">
   <rect height="266.112" width="357.12" x="61.410938" y="8.509215"/>
  </clipPath>
 </defs>
</svg>
