<?xml version="1.0" encoding="utf-8" standalone="no"?>
<!DOCTYPE svg PUBLIC "-//W3C//DTD SVG 1.1//EN"
  "http://www.w3.org/Graphics/SVG/1.1/DTD/svg11.dtd">
<!-- Created with matplotlib (http://matplotlib.org/) -->
<svg height="349pt" version="1.1" viewBox="0 0 431 349" width="431pt" xmlns="http://www.w3.org/2000/svg" xmlns:xlink="http://www.w3.org/1999/xlink">
 <defs>
  <style type="text/css">
*{stroke-linecap:butt;stroke-linejoin:round;}
  </style>
 </defs>
 <g id="figure_1">
  <g id="patch_1">
   <path d="M 0 349.621687 
L 431.947344 349.621687 
L 431.947344 0 
L 0 0 
z
" style="fill:none;"/>
  </g>
  <g id="axes_1">
   <g id="patch_2">
    <path d="M 64.127344 297.54825 
L 421.247344 297.54825 
L 421.247344 31.43625 
L 64.127344 31.43625 
z
" style="fill:none;"/>
   </g>
   <g id="matplotlib.axis_1">
    <g id="xtick_1">
     <g id="line2d_1">
      <path clip-path="url(#p0ce84f744a)" d="M 151.378253 297.54825 
L 151.378253 31.43625 
" style="fill:none;stroke:#b0b0b0;stroke-linecap:square;stroke-width:0.8;"/>
     </g>
     <g id="line2d_2">
      <defs>
       <path d="M 0 0 
L 0 3.5 
" id="m005f0a59be" style="stroke:#000000;stroke-width:0.8;"/>
      </defs>
      <g>
       <use style="stroke:#000000;stroke-width:0.8;" x="151.378253" xlink:href="#m005f0a59be" y="297.54825"/>
      </g>
     </g>
     <g id="text_1">
      <!-- 0 -->
      <defs>
       <path d="M 46 36.53125 
Q 46 50.203125 43.4375 55.78125 
Q 40.875 61.375 34.8125 61.375 
Q 28.765625 61.375 26.171875 55.78125 
Q 23.578125 50.203125 23.578125 36.53125 
Q 23.578125 22.703125 26.171875 17.03125 
Q 28.765625 11.375 34.8125 11.375 
Q 40.828125 11.375 43.40625 17.03125 
Q 46 22.703125 46 36.53125 
z
M 64.796875 36.375 
Q 64.796875 18.265625 56.984375 8.421875 
Q 49.171875 -1.421875 34.8125 -1.421875 
Q 20.40625 -1.421875 12.59375 8.421875 
Q 4.78125 18.265625 4.78125 36.375 
Q 4.78125 54.546875 12.59375 64.375 
Q 20.40625 74.21875 34.8125 74.21875 
Q 49.171875 74.21875 56.984375 64.375 
Q 64.796875 54.546875 64.796875 36.375 
z
" id="DejaVuSans-Bold-30"/>
      </defs>
      <g transform="translate(146.159893 315.945906)scale(0.15 -0.15)">
       <use xlink:href="#DejaVuSans-Bold-30"/>
      </g>
     </g>
    </g>
    <g id="xtick_2">
     <g id="line2d_3">
      <path clip-path="url(#p0ce84f744a)" d="M 252.832798 297.54825 
L 252.832798 31.43625 
" style="fill:none;stroke:#b0b0b0;stroke-linecap:square;stroke-width:0.8;"/>
     </g>
     <g id="line2d_4">
      <g>
       <use style="stroke:#000000;stroke-width:0.8;" x="252.832798" xlink:href="#m005f0a59be" y="297.54825"/>
      </g>
     </g>
     <g id="text_2">
      <!-- 50 -->
      <defs>
       <path d="M 10.59375 72.90625 
L 57.328125 72.90625 
L 57.328125 59.078125 
L 25.59375 59.078125 
L 25.59375 47.796875 
Q 27.734375 48.390625 29.90625 48.703125 
Q 32.078125 49.03125 34.421875 49.03125 
Q 47.75 49.03125 55.171875 42.359375 
Q 62.59375 35.6875 62.59375 23.78125 
Q 62.59375 11.96875 54.515625 5.265625 
Q 46.4375 -1.421875 32.078125 -1.421875 
Q 25.875 -1.421875 19.796875 -0.21875 
Q 13.71875 0.984375 7.71875 3.421875 
L 7.71875 18.21875 
Q 13.671875 14.796875 19.015625 13.078125 
Q 24.359375 11.375 29.109375 11.375 
Q 35.9375 11.375 39.859375 14.71875 
Q 43.796875 18.0625 43.796875 23.78125 
Q 43.796875 29.546875 39.859375 32.859375 
Q 35.9375 36.1875 29.109375 36.1875 
Q 25.046875 36.1875 20.453125 35.125 
Q 15.875 34.078125 10.59375 31.890625 
z
" id="DejaVuSans-Bold-35"/>
      </defs>
      <g transform="translate(242.39608 315.945906)scale(0.15 -0.15)">
       <use xlink:href="#DejaVuSans-Bold-35"/>
       <use x="69.580078" xlink:href="#DejaVuSans-Bold-30"/>
      </g>
     </g>
    </g>
    <g id="xtick_3">
     <g id="line2d_5">
      <path clip-path="url(#p0ce84f744a)" d="M 354.287344 297.54825 
L 354.287344 31.43625 
" style="fill:none;stroke:#b0b0b0;stroke-linecap:square;stroke-width:0.8;"/>
     </g>
     <g id="line2d_6">
      <g>
       <use style="stroke:#000000;stroke-width:0.8;" x="354.287344" xlink:href="#m005f0a59be" y="297.54825"/>
      </g>
     </g>
     <g id="text_3">
      <!-- 100 -->
      <defs>
       <path d="M 11.71875 12.984375 
L 28.328125 12.984375 
L 28.328125 60.109375 
L 11.28125 56.59375 
L 11.28125 69.390625 
L 28.21875 72.90625 
L 46.09375 72.90625 
L 46.09375 12.984375 
L 62.703125 12.984375 
L 62.703125 0 
L 11.71875 0 
z
" id="DejaVuSans-Bold-31"/>
      </defs>
      <g transform="translate(338.632266 315.945906)scale(0.15 -0.15)">
       <use xlink:href="#DejaVuSans-Bold-31"/>
       <use x="69.580078" xlink:href="#DejaVuSans-Bold-30"/>
       <use x="139.160156" xlink:href="#DejaVuSans-Bold-30"/>
      </g>
     </g>
    </g>
    <g id="text_4">
     <!-- Detuning (kHz) -->
     <defs>
      <path d="M 19.671875 64.796875 
L 19.671875 8.109375 
L 31.59375 8.109375 
Q 46.6875 8.109375 53.6875 14.9375 
Q 60.6875 21.78125 60.6875 36.53125 
Q 60.6875 51.171875 53.6875 57.984375 
Q 46.6875 64.796875 31.59375 64.796875 
z
M 9.8125 72.90625 
L 30.078125 72.90625 
Q 51.265625 72.90625 61.171875 64.09375 
Q 71.09375 55.28125 71.09375 36.53125 
Q 71.09375 17.671875 61.125 8.828125 
Q 51.171875 0 30.078125 0 
L 9.8125 0 
z
" id="DejaVuSans-44"/>
      <path d="M 56.203125 29.59375 
L 56.203125 25.203125 
L 14.890625 25.203125 
Q 15.484375 15.921875 20.484375 11.0625 
Q 25.484375 6.203125 34.421875 6.203125 
Q 39.59375 6.203125 44.453125 7.46875 
Q 49.3125 8.734375 54.109375 11.28125 
L 54.109375 2.78125 
Q 49.265625 0.734375 44.1875 -0.34375 
Q 39.109375 -1.421875 33.890625 -1.421875 
Q 20.796875 -1.421875 13.15625 6.1875 
Q 5.515625 13.8125 5.515625 26.8125 
Q 5.515625 40.234375 12.765625 48.109375 
Q 20.015625 56 32.328125 56 
Q 43.359375 56 49.78125 48.890625 
Q 56.203125 41.796875 56.203125 29.59375 
z
M 47.21875 32.234375 
Q 47.125 39.59375 43.09375 43.984375 
Q 39.0625 48.390625 32.421875 48.390625 
Q 24.90625 48.390625 20.390625 44.140625 
Q 15.875 39.890625 15.1875 32.171875 
z
" id="DejaVuSans-65"/>
      <path d="M 18.3125 70.21875 
L 18.3125 54.6875 
L 36.8125 54.6875 
L 36.8125 47.703125 
L 18.3125 47.703125 
L 18.3125 18.015625 
Q 18.3125 11.328125 20.140625 9.421875 
Q 21.96875 7.515625 27.59375 7.515625 
L 36.8125 7.515625 
L 36.8125 0 
L 27.59375 0 
Q 17.1875 0 13.234375 3.875 
Q 9.28125 7.765625 9.28125 18.015625 
L 9.28125 47.703125 
L 2.6875 47.703125 
L 2.6875 54.6875 
L 9.28125 54.6875 
L 9.28125 70.21875 
z
" id="DejaVuSans-74"/>
      <path d="M 8.5 21.578125 
L 8.5 54.6875 
L 17.484375 54.6875 
L 17.484375 21.921875 
Q 17.484375 14.15625 20.5 10.265625 
Q 23.53125 6.390625 29.59375 6.390625 
Q 36.859375 6.390625 41.078125 11.03125 
Q 45.3125 15.671875 45.3125 23.6875 
L 45.3125 54.6875 
L 54.296875 54.6875 
L 54.296875 0 
L 45.3125 0 
L 45.3125 8.40625 
Q 42.046875 3.421875 37.71875 1 
Q 33.40625 -1.421875 27.6875 -1.421875 
Q 18.265625 -1.421875 13.375 4.4375 
Q 8.5 10.296875 8.5 21.578125 
z
M 31.109375 56 
z
" id="DejaVuSans-75"/>
      <path d="M 54.890625 33.015625 
L 54.890625 0 
L 45.90625 0 
L 45.90625 32.71875 
Q 45.90625 40.484375 42.875 44.328125 
Q 39.84375 48.1875 33.796875 48.1875 
Q 26.515625 48.1875 22.3125 43.546875 
Q 18.109375 38.921875 18.109375 30.90625 
L 18.109375 0 
L 9.078125 0 
L 9.078125 54.6875 
L 18.109375 54.6875 
L 18.109375 46.1875 
Q 21.34375 51.125 25.703125 53.5625 
Q 30.078125 56 35.796875 56 
Q 45.21875 56 50.046875 50.171875 
Q 54.890625 44.34375 54.890625 33.015625 
z
" id="DejaVuSans-6e"/>
      <path d="M 9.421875 54.6875 
L 18.40625 54.6875 
L 18.40625 0 
L 9.421875 0 
z
M 9.421875 75.984375 
L 18.40625 75.984375 
L 18.40625 64.59375 
L 9.421875 64.59375 
z
" id="DejaVuSans-69"/>
      <path d="M 45.40625 27.984375 
Q 45.40625 37.75 41.375 43.109375 
Q 37.359375 48.484375 30.078125 48.484375 
Q 22.859375 48.484375 18.828125 43.109375 
Q 14.796875 37.75 14.796875 27.984375 
Q 14.796875 18.265625 18.828125 12.890625 
Q 22.859375 7.515625 30.078125 7.515625 
Q 37.359375 7.515625 41.375 12.890625 
Q 45.40625 18.265625 45.40625 27.984375 
z
M 54.390625 6.78125 
Q 54.390625 -7.171875 48.1875 -13.984375 
Q 42 -20.796875 29.203125 -20.796875 
Q 24.46875 -20.796875 20.265625 -20.09375 
Q 16.0625 -19.390625 12.109375 -17.921875 
L 12.109375 -9.1875 
Q 16.0625 -11.328125 19.921875 -12.34375 
Q 23.78125 -13.375 27.78125 -13.375 
Q 36.625 -13.375 41.015625 -8.765625 
Q 45.40625 -4.15625 45.40625 5.171875 
L 45.40625 9.625 
Q 42.625 4.78125 38.28125 2.390625 
Q 33.9375 0 27.875 0 
Q 17.828125 0 11.671875 7.65625 
Q 5.515625 15.328125 5.515625 27.984375 
Q 5.515625 40.671875 11.671875 48.328125 
Q 17.828125 56 27.875 56 
Q 33.9375 56 38.28125 53.609375 
Q 42.625 51.21875 45.40625 46.390625 
L 45.40625 54.6875 
L 54.390625 54.6875 
z
" id="DejaVuSans-67"/>
      <path id="DejaVuSans-20"/>
      <path d="M 31 75.875 
Q 24.46875 64.65625 21.28125 53.65625 
Q 18.109375 42.671875 18.109375 31.390625 
Q 18.109375 20.125 21.3125 9.0625 
Q 24.515625 -2 31 -13.1875 
L 23.1875 -13.1875 
Q 15.875 -1.703125 12.234375 9.375 
Q 8.59375 20.453125 8.59375 31.390625 
Q 8.59375 42.28125 12.203125 53.3125 
Q 15.828125 64.359375 23.1875 75.875 
z
" id="DejaVuSans-28"/>
      <path d="M 9.078125 75.984375 
L 18.109375 75.984375 
L 18.109375 31.109375 
L 44.921875 54.6875 
L 56.390625 54.6875 
L 27.390625 29.109375 
L 57.625 0 
L 45.90625 0 
L 18.109375 26.703125 
L 18.109375 0 
L 9.078125 0 
z
" id="DejaVuSans-6b"/>
      <path d="M 9.8125 72.90625 
L 19.671875 72.90625 
L 19.671875 43.015625 
L 55.515625 43.015625 
L 55.515625 72.90625 
L 65.375 72.90625 
L 65.375 0 
L 55.515625 0 
L 55.515625 34.71875 
L 19.671875 34.71875 
L 19.671875 0 
L 9.8125 0 
z
" id="DejaVuSans-48"/>
      <path d="M 5.515625 54.6875 
L 48.1875 54.6875 
L 48.1875 46.484375 
L 14.40625 7.171875 
L 48.1875 7.171875 
L 48.1875 0 
L 4.296875 0 
L 4.296875 8.203125 
L 38.09375 47.515625 
L 5.515625 47.515625 
z
" id="DejaVuSans-7a"/>
      <path d="M 8.015625 75.875 
L 15.828125 75.875 
Q 23.140625 64.359375 26.78125 53.3125 
Q 30.421875 42.28125 30.421875 31.390625 
Q 30.421875 20.453125 26.78125 9.375 
Q 23.140625 -1.703125 15.828125 -13.1875 
L 8.015625 -13.1875 
Q 14.5 -2 17.703125 9.0625 
Q 20.90625 20.125 20.90625 31.390625 
Q 20.90625 42.671875 17.703125 53.65625 
Q 14.5 64.65625 8.015625 75.875 
z
" id="DejaVuSans-29"/>
     </defs>
     <g transform="translate(167.234219 338.262312)scale(0.2 -0.2)">
      <use xlink:href="#DejaVuSans-44"/>
      <use x="77.001953" xlink:href="#DejaVuSans-65"/>
      <use x="138.525391" xlink:href="#DejaVuSans-74"/>
      <use x="177.734375" xlink:href="#DejaVuSans-75"/>
      <use x="241.113281" xlink:href="#DejaVuSans-6e"/>
      <use x="304.492188" xlink:href="#DejaVuSans-69"/>
      <use x="332.275391" xlink:href="#DejaVuSans-6e"/>
      <use x="395.654297" xlink:href="#DejaVuSans-67"/>
      <use x="459.130859" xlink:href="#DejaVuSans-20"/>
      <use x="490.917969" xlink:href="#DejaVuSans-28"/>
      <use x="529.931641" xlink:href="#DejaVuSans-6b"/>
      <use x="587.841797" xlink:href="#DejaVuSans-48"/>
      <use x="663.037109" xlink:href="#DejaVuSans-7a"/>
      <use x="715.527344" xlink:href="#DejaVuSans-29"/>
     </g>
    </g>
   </g>
   <g id="matplotlib.axis_2">
    <g id="ytick_1">
     <g id="line2d_7">
      <path clip-path="url(#p0ce84f744a)" d="M 64.127344 297.54825 
L 421.247344 297.54825 
" style="fill:none;stroke:#b0b0b0;stroke-linecap:square;stroke-width:0.8;"/>
     </g>
     <g id="line2d_8">
      <defs>
       <path d="M 0 0 
L -3.5 0 
" id="mc3ce260a5b" style="stroke:#000000;stroke-width:0.8;"/>
      </defs>
      <g>
       <use style="stroke:#000000;stroke-width:0.8;" x="64.127344" xlink:href="#mc3ce260a5b" y="297.54825"/>
      </g>
     </g>
     <g id="text_5">
      <!-- 0.0 -->
      <defs>
       <path d="M 10.203125 18.890625 
L 27.78125 18.890625 
L 27.78125 0 
L 10.203125 0 
z
" id="DejaVuSans-Bold-2e"/>
      </defs>
      <g transform="translate(30.55625 303.247078)scale(0.15 -0.15)">
       <use xlink:href="#DejaVuSans-Bold-30"/>
       <use x="69.580078" xlink:href="#DejaVuSans-Bold-2e"/>
       <use x="107.568359" xlink:href="#DejaVuSans-Bold-30"/>
      </g>
     </g>
    </g>
    <g id="ytick_2">
     <g id="line2d_9">
      <path clip-path="url(#p0ce84f744a)" d="M 64.127344 248.26825 
L 421.247344 248.26825 
" style="fill:none;stroke:#b0b0b0;stroke-linecap:square;stroke-width:0.8;"/>
     </g>
     <g id="line2d_10">
      <g>
       <use style="stroke:#000000;stroke-width:0.8;" x="64.127344" xlink:href="#mc3ce260a5b" y="248.26825"/>
      </g>
     </g>
     <g id="text_6">
      <!-- 0.5 -->
      <g transform="translate(30.55625 253.967078)scale(0.15 -0.15)">
       <use xlink:href="#DejaVuSans-Bold-30"/>
       <use x="69.580078" xlink:href="#DejaVuSans-Bold-2e"/>
       <use x="107.568359" xlink:href="#DejaVuSans-Bold-35"/>
      </g>
     </g>
    </g>
    <g id="ytick_3">
     <g id="line2d_11">
      <path clip-path="url(#p0ce84f744a)" d="M 64.127344 198.98825 
L 421.247344 198.98825 
" style="fill:none;stroke:#b0b0b0;stroke-linecap:square;stroke-width:0.8;"/>
     </g>
     <g id="line2d_12">
      <g>
       <use style="stroke:#000000;stroke-width:0.8;" x="64.127344" xlink:href="#mc3ce260a5b" y="198.98825"/>
      </g>
     </g>
     <g id="text_7">
      <!-- 1.0 -->
      <g transform="translate(30.55625 204.687078)scale(0.15 -0.15)">
       <use xlink:href="#DejaVuSans-Bold-31"/>
       <use x="69.580078" xlink:href="#DejaVuSans-Bold-2e"/>
       <use x="107.568359" xlink:href="#DejaVuSans-Bold-30"/>
      </g>
     </g>
    </g>
    <g id="ytick_4">
     <g id="line2d_13">
      <path clip-path="url(#p0ce84f744a)" d="M 64.127344 149.70825 
L 421.247344 149.70825 
" style="fill:none;stroke:#b0b0b0;stroke-linecap:square;stroke-width:0.8;"/>
     </g>
     <g id="line2d_14">
      <g>
       <use style="stroke:#000000;stroke-width:0.8;" x="64.127344" xlink:href="#mc3ce260a5b" y="149.70825"/>
      </g>
     </g>
     <g id="text_8">
      <!-- 1.5 -->
      <g transform="translate(30.55625 155.407078)scale(0.15 -0.15)">
       <use xlink:href="#DejaVuSans-Bold-31"/>
       <use x="69.580078" xlink:href="#DejaVuSans-Bold-2e"/>
       <use x="107.568359" xlink:href="#DejaVuSans-Bold-35"/>
      </g>
     </g>
    </g>
    <g id="ytick_5">
     <g id="line2d_15">
      <path clip-path="url(#p0ce84f744a)" d="M 64.127344 100.42825 
L 421.247344 100.42825 
" style="fill:none;stroke:#b0b0b0;stroke-linecap:square;stroke-width:0.8;"/>
     </g>
     <g id="line2d_16">
      <g>
       <use style="stroke:#000000;stroke-width:0.8;" x="64.127344" xlink:href="#mc3ce260a5b" y="100.42825"/>
      </g>
     </g>
     <g id="text_9">
      <!-- 2.0 -->
      <defs>
       <path d="M 28.8125 13.8125 
L 60.890625 13.8125 
L 60.890625 0 
L 7.90625 0 
L 7.90625 13.8125 
L 34.515625 37.3125 
Q 38.09375 40.53125 39.796875 43.609375 
Q 41.5 46.6875 41.5 50 
Q 41.5 55.125 38.0625 58.25 
Q 34.625 61.375 28.90625 61.375 
Q 24.515625 61.375 19.28125 59.5 
Q 14.0625 57.625 8.109375 53.90625 
L 8.109375 69.921875 
Q 14.453125 72.015625 20.65625 73.109375 
Q 26.859375 74.21875 32.8125 74.21875 
Q 45.90625 74.21875 53.15625 68.453125 
Q 60.40625 62.703125 60.40625 52.390625 
Q 60.40625 46.4375 57.328125 41.28125 
Q 54.25 36.140625 44.390625 27.484375 
z
" id="DejaVuSans-Bold-32"/>
      </defs>
      <g transform="translate(30.55625 106.127078)scale(0.15 -0.15)">
       <use xlink:href="#DejaVuSans-Bold-32"/>
       <use x="69.580078" xlink:href="#DejaVuSans-Bold-2e"/>
       <use x="107.568359" xlink:href="#DejaVuSans-Bold-30"/>
      </g>
     </g>
    </g>
    <g id="ytick_6">
     <g id="line2d_17">
      <path clip-path="url(#p0ce84f744a)" d="M 64.127344 51.14825 
L 421.247344 51.14825 
" style="fill:none;stroke:#b0b0b0;stroke-linecap:square;stroke-width:0.8;"/>
     </g>
     <g id="line2d_18">
      <g>
       <use style="stroke:#000000;stroke-width:0.8;" x="64.127344" xlink:href="#mc3ce260a5b" y="51.14825"/>
      </g>
     </g>
     <g id="text_10">
      <!-- 2.5 -->
      <g transform="translate(30.55625 56.847078)scale(0.15 -0.15)">
       <use xlink:href="#DejaVuSans-Bold-32"/>
       <use x="69.580078" xlink:href="#DejaVuSans-Bold-2e"/>
       <use x="107.568359" xlink:href="#DejaVuSans-Bold-35"/>
      </g>
     </g>
    </g>
    <g id="text_11">
     <!-- Survival (shifted) -->
     <defs>
      <path d="M 53.515625 70.515625 
L 53.515625 60.890625 
Q 47.90625 63.578125 42.921875 64.890625 
Q 37.9375 66.21875 33.296875 66.21875 
Q 25.25 66.21875 20.875 63.09375 
Q 16.5 59.96875 16.5 54.203125 
Q 16.5 49.359375 19.40625 46.890625 
Q 22.3125 44.4375 30.421875 42.921875 
L 36.375 41.703125 
Q 47.40625 39.59375 52.65625 34.296875 
Q 57.90625 29 57.90625 20.125 
Q 57.90625 9.515625 50.796875 4.046875 
Q 43.703125 -1.421875 29.984375 -1.421875 
Q 24.8125 -1.421875 18.96875 -0.25 
Q 13.140625 0.921875 6.890625 3.21875 
L 6.890625 13.375 
Q 12.890625 10.015625 18.65625 8.296875 
Q 24.421875 6.59375 29.984375 6.59375 
Q 38.421875 6.59375 43.015625 9.90625 
Q 47.609375 13.234375 47.609375 19.390625 
Q 47.609375 24.75 44.3125 27.78125 
Q 41.015625 30.8125 33.5 32.328125 
L 27.484375 33.5 
Q 16.453125 35.6875 11.515625 40.375 
Q 6.59375 45.0625 6.59375 53.421875 
Q 6.59375 63.09375 13.40625 68.65625 
Q 20.21875 74.21875 32.171875 74.21875 
Q 37.3125 74.21875 42.625 73.28125 
Q 47.953125 72.359375 53.515625 70.515625 
z
" id="DejaVuSans-53"/>
      <path d="M 41.109375 46.296875 
Q 39.59375 47.171875 37.8125 47.578125 
Q 36.03125 48 33.890625 48 
Q 26.265625 48 22.1875 43.046875 
Q 18.109375 38.09375 18.109375 28.8125 
L 18.109375 0 
L 9.078125 0 
L 9.078125 54.6875 
L 18.109375 54.6875 
L 18.109375 46.1875 
Q 20.953125 51.171875 25.484375 53.578125 
Q 30.03125 56 36.53125 56 
Q 37.453125 56 38.578125 55.875 
Q 39.703125 55.765625 41.0625 55.515625 
z
" id="DejaVuSans-72"/>
      <path d="M 2.984375 54.6875 
L 12.5 54.6875 
L 29.59375 8.796875 
L 46.6875 54.6875 
L 56.203125 54.6875 
L 35.6875 0 
L 23.484375 0 
z
" id="DejaVuSans-76"/>
      <path d="M 34.28125 27.484375 
Q 23.390625 27.484375 19.1875 25 
Q 14.984375 22.515625 14.984375 16.5 
Q 14.984375 11.71875 18.140625 8.90625 
Q 21.296875 6.109375 26.703125 6.109375 
Q 34.1875 6.109375 38.703125 11.40625 
Q 43.21875 16.703125 43.21875 25.484375 
L 43.21875 27.484375 
z
M 52.203125 31.203125 
L 52.203125 0 
L 43.21875 0 
L 43.21875 8.296875 
Q 40.140625 3.328125 35.546875 0.953125 
Q 30.953125 -1.421875 24.3125 -1.421875 
Q 15.921875 -1.421875 10.953125 3.296875 
Q 6 8.015625 6 15.921875 
Q 6 25.140625 12.171875 29.828125 
Q 18.359375 34.515625 30.609375 34.515625 
L 43.21875 34.515625 
L 43.21875 35.40625 
Q 43.21875 41.609375 39.140625 45 
Q 35.0625 48.390625 27.6875 48.390625 
Q 23 48.390625 18.546875 47.265625 
Q 14.109375 46.140625 10.015625 43.890625 
L 10.015625 52.203125 
Q 14.9375 54.109375 19.578125 55.046875 
Q 24.21875 56 28.609375 56 
Q 40.484375 56 46.34375 49.84375 
Q 52.203125 43.703125 52.203125 31.203125 
z
" id="DejaVuSans-61"/>
      <path d="M 9.421875 75.984375 
L 18.40625 75.984375 
L 18.40625 0 
L 9.421875 0 
z
" id="DejaVuSans-6c"/>
      <path d="M 44.28125 53.078125 
L 44.28125 44.578125 
Q 40.484375 46.53125 36.375 47.5 
Q 32.28125 48.484375 27.875 48.484375 
Q 21.1875 48.484375 17.84375 46.4375 
Q 14.5 44.390625 14.5 40.28125 
Q 14.5 37.15625 16.890625 35.375 
Q 19.28125 33.59375 26.515625 31.984375 
L 29.59375 31.296875 
Q 39.15625 29.25 43.1875 25.515625 
Q 47.21875 21.78125 47.21875 15.09375 
Q 47.21875 7.46875 41.1875 3.015625 
Q 35.15625 -1.421875 24.609375 -1.421875 
Q 20.21875 -1.421875 15.453125 -0.5625 
Q 10.6875 0.296875 5.421875 2 
L 5.421875 11.28125 
Q 10.40625 8.6875 15.234375 7.390625 
Q 20.0625 6.109375 24.8125 6.109375 
Q 31.15625 6.109375 34.5625 8.28125 
Q 37.984375 10.453125 37.984375 14.40625 
Q 37.984375 18.0625 35.515625 20.015625 
Q 33.0625 21.96875 24.703125 23.78125 
L 21.578125 24.515625 
Q 13.234375 26.265625 9.515625 29.90625 
Q 5.8125 33.546875 5.8125 39.890625 
Q 5.8125 47.609375 11.28125 51.796875 
Q 16.75 56 26.8125 56 
Q 31.78125 56 36.171875 55.265625 
Q 40.578125 54.546875 44.28125 53.078125 
z
" id="DejaVuSans-73"/>
      <path d="M 54.890625 33.015625 
L 54.890625 0 
L 45.90625 0 
L 45.90625 32.71875 
Q 45.90625 40.484375 42.875 44.328125 
Q 39.84375 48.1875 33.796875 48.1875 
Q 26.515625 48.1875 22.3125 43.546875 
Q 18.109375 38.921875 18.109375 30.90625 
L 18.109375 0 
L 9.078125 0 
L 9.078125 75.984375 
L 18.109375 75.984375 
L 18.109375 46.1875 
Q 21.34375 51.125 25.703125 53.5625 
Q 30.078125 56 35.796875 56 
Q 45.21875 56 50.046875 50.171875 
Q 54.890625 44.34375 54.890625 33.015625 
z
" id="DejaVuSans-68"/>
      <path d="M 37.109375 75.984375 
L 37.109375 68.5 
L 28.515625 68.5 
Q 23.6875 68.5 21.796875 66.546875 
Q 19.921875 64.59375 19.921875 59.515625 
L 19.921875 54.6875 
L 34.71875 54.6875 
L 34.71875 47.703125 
L 19.921875 47.703125 
L 19.921875 0 
L 10.890625 0 
L 10.890625 47.703125 
L 2.296875 47.703125 
L 2.296875 54.6875 
L 10.890625 54.6875 
L 10.890625 58.5 
Q 10.890625 67.625 15.140625 71.796875 
Q 19.390625 75.984375 28.609375 75.984375 
z
" id="DejaVuSans-66"/>
      <path d="M 45.40625 46.390625 
L 45.40625 75.984375 
L 54.390625 75.984375 
L 54.390625 0 
L 45.40625 0 
L 45.40625 8.203125 
Q 42.578125 3.328125 38.25 0.953125 
Q 33.9375 -1.421875 27.875 -1.421875 
Q 17.96875 -1.421875 11.734375 6.484375 
Q 5.515625 14.40625 5.515625 27.296875 
Q 5.515625 40.1875 11.734375 48.09375 
Q 17.96875 56 27.875 56 
Q 33.9375 56 38.25 53.625 
Q 42.578125 51.265625 45.40625 46.390625 
z
M 14.796875 27.296875 
Q 14.796875 17.390625 18.875 11.75 
Q 22.953125 6.109375 30.078125 6.109375 
Q 37.203125 6.109375 41.296875 11.75 
Q 45.40625 17.390625 45.40625 27.296875 
Q 45.40625 37.203125 41.296875 42.84375 
Q 37.203125 48.484375 30.078125 48.484375 
Q 22.953125 48.484375 18.875 42.84375 
Q 14.796875 37.203125 14.796875 27.296875 
z
" id="DejaVuSans-64"/>
     </defs>
     <g transform="translate(22.396875 250.057875)rotate(-90)scale(0.2 -0.2)">
      <use xlink:href="#DejaVuSans-53"/>
      <use x="63.476562" xlink:href="#DejaVuSans-75"/>
      <use x="126.855469" xlink:href="#DejaVuSans-72"/>
      <use x="167.96875" xlink:href="#DejaVuSans-76"/>
      <use x="227.148438" xlink:href="#DejaVuSans-69"/>
      <use x="254.931641" xlink:href="#DejaVuSans-76"/>
      <use x="314.111328" xlink:href="#DejaVuSans-61"/>
      <use x="375.390625" xlink:href="#DejaVuSans-6c"/>
      <use x="403.173828" xlink:href="#DejaVuSans-20"/>
      <use x="434.960938" xlink:href="#DejaVuSans-28"/>
      <use x="473.974609" xlink:href="#DejaVuSans-73"/>
      <use x="526.074219" xlink:href="#DejaVuSans-68"/>
      <use x="589.453125" xlink:href="#DejaVuSans-69"/>
      <use x="617.236328" xlink:href="#DejaVuSans-66"/>
      <use x="652.425781" xlink:href="#DejaVuSans-74"/>
      <use x="691.634766" xlink:href="#DejaVuSans-65"/>
      <use x="753.158203" xlink:href="#DejaVuSans-64"/>
      <use x="816.634766" xlink:href="#DejaVuSans-29"/>
     </g>
    </g>
   </g>
   <g id="LineCollection_1">
    <path clip-path="url(#p0ce84f744a)" d="M 100.65098 232.738869 
L 100.65098 227.938568 
" style="fill:none;stroke:#1f77b4;stroke-width:1.5;"/>
    <path clip-path="url(#p0ce84f744a)" d="M 120.941889 230.981919 
L 120.941889 226.489706 
" style="fill:none;stroke:#1f77b4;stroke-width:1.5;"/>
    <path clip-path="url(#p0ce84f744a)" d="M 141.232798 232.047761 
L 141.232798 227.407559 
" style="fill:none;stroke:#1f77b4;stroke-width:1.5;"/>
    <path clip-path="url(#p0ce84f744a)" d="M 161.523707 234.864037 
L 161.523707 229.800463 
" style="fill:none;stroke:#1f77b4;stroke-width:1.5;"/>
    <path clip-path="url(#p0ce84f744a)" d="M 181.814616 241.541001 
L 181.814616 236.22756 
" style="fill:none;stroke:#1f77b4;stroke-width:1.5;"/>
    <path clip-path="url(#p0ce84f744a)" d="M 202.105526 246.599789 
L 202.105526 240.740527 
" style="fill:none;stroke:#1f77b4;stroke-width:1.5;"/>
    <path clip-path="url(#p0ce84f744a)" d="M 222.396435 267.860748 
L 222.396435 261.515453 
" style="fill:none;stroke:#1f77b4;stroke-width:1.5;"/>
    <path clip-path="url(#p0ce84f744a)" d="M 242.687344 275.885336 
L 242.687344 269.687806 
" style="fill:none;stroke:#1f77b4;stroke-width:1.5;"/>
    <path clip-path="url(#p0ce84f744a)" d="M 262.978253 287.39218 
L 262.978253 281.705571 
" style="fill:none;stroke:#1f77b4;stroke-width:1.5;"/>
    <path clip-path="url(#p0ce84f744a)" d="M 283.269162 287.905946 
L 283.269162 282.312102 
" style="fill:none;stroke:#1f77b4;stroke-width:1.5;"/>
    <path clip-path="url(#p0ce84f744a)" d="M 303.560071 284.161314 
L 303.560071 278.475078 
" style="fill:none;stroke:#1f77b4;stroke-width:1.5;"/>
    <path clip-path="url(#p0ce84f744a)" d="M 323.85098 269.662472 
L 323.85098 263.589509 
" style="fill:none;stroke:#1f77b4;stroke-width:1.5;"/>
    <path clip-path="url(#p0ce84f744a)" d="M 344.141889 264.406996 
L 344.141889 258.412171 
" style="fill:none;stroke:#1f77b4;stroke-width:1.5;"/>
    <path clip-path="url(#p0ce84f744a)" d="M 364.432798 250.380874 
L 364.432798 244.538626 
" style="fill:none;stroke:#1f77b4;stroke-width:1.5;"/>
    <path clip-path="url(#p0ce84f744a)" d="M 384.723707 234.355834 
L 384.723707 229.500245 
" style="fill:none;stroke:#1f77b4;stroke-width:1.5;"/>
   </g>
   <g id="LineCollection_2">
    <path clip-path="url(#p0ce84f744a)" d="M 100.65098 216.653629 
L 100.65098 212.076671 
" style="fill:none;stroke:#ff7f0e;stroke-width:1.5;"/>
    <path clip-path="url(#p0ce84f744a)" d="M 120.941889 216.300553 
L 120.941889 211.802832 
" style="fill:none;stroke:#ff7f0e;stroke-width:1.5;"/>
    <path clip-path="url(#p0ce84f744a)" d="M 141.232798 217.771194 
L 141.232798 213.042995 
" style="fill:none;stroke:#ff7f0e;stroke-width:1.5;"/>
    <path clip-path="url(#p0ce84f744a)" d="M 161.523707 218.832057 
L 161.523707 213.875502 
" style="fill:none;stroke:#ff7f0e;stroke-width:1.5;"/>
    <path clip-path="url(#p0ce84f744a)" d="M 181.814616 221.742084 
L 181.814616 216.616309 
" style="fill:none;stroke:#ff7f0e;stroke-width:1.5;"/>
    <path clip-path="url(#p0ce84f744a)" d="M 202.105526 231.121103 
L 202.105526 225.564794 
" style="fill:none;stroke:#ff7f0e;stroke-width:1.5;"/>
    <path clip-path="url(#p0ce84f744a)" d="M 222.396435 244.370499 
L 222.396435 238.382366 
" style="fill:none;stroke:#ff7f0e;stroke-width:1.5;"/>
    <path clip-path="url(#p0ce84f744a)" d="M 242.687344 257.849321 
L 242.687344 251.82096 
" style="fill:none;stroke:#ff7f0e;stroke-width:1.5;"/>
    <path clip-path="url(#p0ce84f744a)" d="M 262.978253 266.307623 
L 262.978253 260.464292 
" style="fill:none;stroke:#ff7f0e;stroke-width:1.5;"/>
    <path clip-path="url(#p0ce84f744a)" d="M 283.269162 269.880905 
L 283.269162 264.025571 
" style="fill:none;stroke:#ff7f0e;stroke-width:1.5;"/>
    <path clip-path="url(#p0ce84f744a)" d="M 303.560071 268.580909 
L 303.560071 262.847383 
" style="fill:none;stroke:#ff7f0e;stroke-width:1.5;"/>
    <path clip-path="url(#p0ce84f744a)" d="M 323.85098 256.394921 
L 323.85098 250.079712 
" style="fill:none;stroke:#ff7f0e;stroke-width:1.5;"/>
    <path clip-path="url(#p0ce84f744a)" d="M 344.141889 244.522111 
L 344.141889 238.23228 
" style="fill:none;stroke:#ff7f0e;stroke-width:1.5;"/>
    <path clip-path="url(#p0ce84f744a)" d="M 364.432798 229.044748 
L 364.432798 223.548232 
" style="fill:none;stroke:#ff7f0e;stroke-width:1.5;"/>
    <path clip-path="url(#p0ce84f744a)" d="M 384.723707 220.236311 
L 384.723707 215.271212 
" style="fill:none;stroke:#ff7f0e;stroke-width:1.5;"/>
   </g>
   <g id="LineCollection_3">
    <path clip-path="url(#p0ce84f744a)" d="M 100.65098 203.077778 
L 100.65098 198.348322 
" style="fill:none;stroke:#2ca02c;stroke-width:1.5;"/>
    <path clip-path="url(#p0ce84f744a)" d="M 120.941889 202.07079 
L 120.941889 197.463474 
" style="fill:none;stroke:#2ca02c;stroke-width:1.5;"/>
    <path clip-path="url(#p0ce84f744a)" d="M 141.232798 205.204057 
L 141.232798 200.266012 
" style="fill:none;stroke:#2ca02c;stroke-width:1.5;"/>
    <path clip-path="url(#p0ce84f744a)" d="M 161.523707 202.199376 
L 161.523707 197.520878 
" style="fill:none;stroke:#2ca02c;stroke-width:1.5;"/>
    <path clip-path="url(#p0ce84f744a)" d="M 181.814616 204.294048 
L 181.814616 199.363233 
" style="fill:none;stroke:#2ca02c;stroke-width:1.5;"/>
    <path clip-path="url(#p0ce84f744a)" d="M 202.105526 218.362036 
L 202.105526 212.66884 
" style="fill:none;stroke:#2ca02c;stroke-width:1.5;"/>
    <path clip-path="url(#p0ce84f744a)" d="M 222.396435 233.657377 
L 222.396435 227.34905 
" style="fill:none;stroke:#2ca02c;stroke-width:1.5;"/>
    <path clip-path="url(#p0ce84f744a)" d="M 242.687344 248.786971 
L 242.687344 242.985796 
" style="fill:none;stroke:#2ca02c;stroke-width:1.5;"/>
    <path clip-path="url(#p0ce84f744a)" d="M 262.978253 259.3749 
L 262.978253 254.0862 
" style="fill:none;stroke:#2ca02c;stroke-width:1.5;"/>
    <path clip-path="url(#p0ce84f744a)" d="M 283.269162 261.090156 
L 283.269162 255.9727 
" style="fill:none;stroke:#2ca02c;stroke-width:1.5;"/>
    <path clip-path="url(#p0ce84f744a)" d="M 303.560071 248.735676 
L 303.560071 242.682194 
" style="fill:none;stroke:#2ca02c;stroke-width:1.5;"/>
    <path clip-path="url(#p0ce84f744a)" d="M 323.85098 239.857812 
L 323.85098 233.408288 
" style="fill:none;stroke:#2ca02c;stroke-width:1.5;"/>
    <path clip-path="url(#p0ce84f744a)" d="M 344.141889 220.706278 
L 344.141889 214.769585 
" style="fill:none;stroke:#2ca02c;stroke-width:1.5;"/>
    <path clip-path="url(#p0ce84f744a)" d="M 364.432798 209.176601 
L 364.432798 203.768199 
" style="fill:none;stroke:#2ca02c;stroke-width:1.5;"/>
    <path clip-path="url(#p0ce84f744a)" d="M 384.723707 202.477485 
L 384.723707 197.646501 
" style="fill:none;stroke:#2ca02c;stroke-width:1.5;"/>
   </g>
   <g id="LineCollection_4">
    <path clip-path="url(#p0ce84f744a)" d="M 100.65098 192.470707 
L 100.65098 187.142509 
" style="fill:none;stroke:#d62728;stroke-width:1.5;"/>
    <path clip-path="url(#p0ce84f744a)" d="M 120.941889 185.231262 
L 120.941889 180.675331 
" style="fill:none;stroke:#d62728;stroke-width:1.5;"/>
    <path clip-path="url(#p0ce84f744a)" d="M 141.232798 187.03807 
L 141.232798 182.136103 
" style="fill:none;stroke:#d62728;stroke-width:1.5;"/>
    <path clip-path="url(#p0ce84f744a)" d="M 161.523707 184.447699 
L 161.523707 179.87533 
" style="fill:none;stroke:#d62728;stroke-width:1.5;"/>
    <path clip-path="url(#p0ce84f744a)" d="M 181.814616 192.158124 
L 181.814616 186.843573 
" style="fill:none;stroke:#d62728;stroke-width:1.5;"/>
    <path clip-path="url(#p0ce84f744a)" d="M 202.105526 202.95818 
L 202.105526 197.098169 
" style="fill:none;stroke:#d62728;stroke-width:1.5;"/>
    <path clip-path="url(#p0ce84f744a)" d="M 222.396435 220.909773 
L 222.396435 214.779297 
" style="fill:none;stroke:#d62728;stroke-width:1.5;"/>
    <path clip-path="url(#p0ce84f744a)" d="M 242.687344 228.608117 
L 242.687344 222.512249 
" style="fill:none;stroke:#d62728;stroke-width:1.5;"/>
    <path clip-path="url(#p0ce84f744a)" d="M 262.978253 236.779543 
L 262.978253 231.155961 
" style="fill:none;stroke:#d62728;stroke-width:1.5;"/>
    <path clip-path="url(#p0ce84f744a)" d="M 283.269162 243.258481 
L 283.269162 237.89953 
" style="fill:none;stroke:#d62728;stroke-width:1.5;"/>
    <path clip-path="url(#p0ce84f744a)" d="M 303.560071 240.006094 
L 303.560071 234.3504 
" style="fill:none;stroke:#d62728;stroke-width:1.5;"/>
    <path clip-path="url(#p0ce84f744a)" d="M 323.85098 227.282594 
L 323.85098 221.262768 
" style="fill:none;stroke:#d62728;stroke-width:1.5;"/>
    <path clip-path="url(#p0ce84f744a)" d="M 344.141889 210.807693 
L 344.141889 204.865476 
" style="fill:none;stroke:#d62728;stroke-width:1.5;"/>
    <path clip-path="url(#p0ce84f744a)" d="M 364.432798 197.225538 
L 364.432798 191.630251 
" style="fill:none;stroke:#d62728;stroke-width:1.5;"/>
    <path clip-path="url(#p0ce84f744a)" d="M 384.723707 193.863215 
L 384.723707 188.535436 
" style="fill:none;stroke:#d62728;stroke-width:1.5;"/>
   </g>
   <g id="LineCollection_5">
    <path clip-path="url(#p0ce84f744a)" d="M 100.65098 169.370412 
L 100.65098 164.739208 
" style="fill:none;stroke:#9467bd;stroke-width:1.5;"/>
    <path clip-path="url(#p0ce84f744a)" d="M 120.941889 171.300687 
L 120.941889 166.576784 
" style="fill:none;stroke:#9467bd;stroke-width:1.5;"/>
    <path clip-path="url(#p0ce84f744a)" d="M 141.232798 167.922956 
L 141.232798 163.527447 
" style="fill:none;stroke:#9467bd;stroke-width:1.5;"/>
    <path clip-path="url(#p0ce84f744a)" d="M 161.523707 167.981202 
L 161.523707 163.522054 
" style="fill:none;stroke:#9467bd;stroke-width:1.5;"/>
    <path clip-path="url(#p0ce84f744a)" d="M 181.814616 173.746045 
L 181.814616 168.708322 
" style="fill:none;stroke:#9467bd;stroke-width:1.5;"/>
    <path clip-path="url(#p0ce84f744a)" d="M 202.105526 188.740306 
L 202.105526 182.94113 
" style="fill:none;stroke:#9467bd;stroke-width:1.5;"/>
    <path clip-path="url(#p0ce84f744a)" d="M 222.396435 203.888085 
L 222.396435 197.642908 
" style="fill:none;stroke:#9467bd;stroke-width:1.5;"/>
    <path clip-path="url(#p0ce84f744a)" d="M 242.687344 217.227411 
L 242.687344 211.322015 
" style="fill:none;stroke:#9467bd;stroke-width:1.5;"/>
    <path clip-path="url(#p0ce84f744a)" d="M 262.978253 219.325869 
L 262.978253 213.600082 
" style="fill:none;stroke:#9467bd;stroke-width:1.5;"/>
    <path clip-path="url(#p0ce84f744a)" d="M 283.269162 222.791263 
L 283.269162 217.059271 
" style="fill:none;stroke:#9467bd;stroke-width:1.5;"/>
    <path clip-path="url(#p0ce84f744a)" d="M 303.560071 219.852496 
L 303.560071 214.094584 
" style="fill:none;stroke:#9467bd;stroke-width:1.5;"/>
    <path clip-path="url(#p0ce84f744a)" d="M 323.85098 210.739959 
L 323.85098 204.583101 
" style="fill:none;stroke:#9467bd;stroke-width:1.5;"/>
    <path clip-path="url(#p0ce84f744a)" d="M 344.141889 193.747963 
L 344.141889 187.76676 
" style="fill:none;stroke:#9467bd;stroke-width:1.5;"/>
    <path clip-path="url(#p0ce84f744a)" d="M 364.432798 175.596708 
L 364.432798 170.206443 
" style="fill:none;stroke:#9467bd;stroke-width:1.5;"/>
    <path clip-path="url(#p0ce84f744a)" d="M 384.723707 170.874294 
L 384.723707 166.104517 
" style="fill:none;stroke:#9467bd;stroke-width:1.5;"/>
   </g>
   <g id="LineCollection_6">
    <path clip-path="url(#p0ce84f744a)" d="M 100.65098 157.424856 
L 100.65098 152.267048 
" style="fill:none;stroke:#8c564b;stroke-width:1.5;"/>
    <path clip-path="url(#p0ce84f744a)" d="M 120.941889 157.797496 
L 120.941889 152.794311 
" style="fill:none;stroke:#8c564b;stroke-width:1.5;"/>
    <path clip-path="url(#p0ce84f744a)" d="M 141.232798 154.301849 
L 141.232798 149.748442 
" style="fill:none;stroke:#8c564b;stroke-width:1.5;"/>
    <path clip-path="url(#p0ce84f744a)" d="M 161.523707 154.947821 
L 161.523707 150.211545 
" style="fill:none;stroke:#8c564b;stroke-width:1.5;"/>
    <path clip-path="url(#p0ce84f744a)" d="M 181.814616 161.883151 
L 181.814616 156.430804 
" style="fill:none;stroke:#8c564b;stroke-width:1.5;"/>
    <path clip-path="url(#p0ce84f744a)" d="M 202.105526 177.309711 
L 202.105526 171.310681 
" style="fill:none;stroke:#8c564b;stroke-width:1.5;"/>
    <path clip-path="url(#p0ce84f744a)" d="M 222.396435 189.370573 
L 222.396435 183.240097 
" style="fill:none;stroke:#8c564b;stroke-width:1.5;"/>
    <path clip-path="url(#p0ce84f744a)" d="M 242.687344 198.517004 
L 242.687344 192.486278 
" style="fill:none;stroke:#8c564b;stroke-width:1.5;"/>
    <path clip-path="url(#p0ce84f744a)" d="M 262.978253 205.419127 
L 262.978253 199.858113 
" style="fill:none;stroke:#8c564b;stroke-width:1.5;"/>
    <path clip-path="url(#p0ce84f744a)" d="M 283.269162 212.68507 
L 283.269162 207.476944 
" style="fill:none;stroke:#8c564b;stroke-width:1.5;"/>
    <path clip-path="url(#p0ce84f744a)" d="M 303.560071 202.492832 
L 303.560071 196.432154 
" style="fill:none;stroke:#8c564b;stroke-width:1.5;"/>
    <path clip-path="url(#p0ce84f744a)" d="M 323.85098 193.46889 
L 323.85098 187.25961 
" style="fill:none;stroke:#8c564b;stroke-width:1.5;"/>
    <path clip-path="url(#p0ce84f744a)" d="M 344.141889 174.564996 
L 344.141889 168.368249 
" style="fill:none;stroke:#8c564b;stroke-width:1.5;"/>
    <path clip-path="url(#p0ce84f744a)" d="M 364.432798 161.435418 
L 364.432798 156.140956 
" style="fill:none;stroke:#8c564b;stroke-width:1.5;"/>
    <path clip-path="url(#p0ce84f744a)" d="M 384.723707 155.583104 
L 384.723707 150.663072 
" style="fill:none;stroke:#8c564b;stroke-width:1.5;"/>
   </g>
   <g id="LineCollection_7">
    <path clip-path="url(#p0ce84f744a)" d="M 100.65098 137.138899 
L 100.65098 132.56653 
" style="fill:none;stroke:#e377c2;stroke-width:1.5;"/>
    <path clip-path="url(#p0ce84f744a)" d="M 120.941889 137.885169 
L 120.941889 133.139425 
" style="fill:none;stroke:#e377c2;stroke-width:1.5;"/>
    <path clip-path="url(#p0ce84f744a)" d="M 141.232798 138.693533 
L 141.232798 134.015139 
" style="fill:none;stroke:#e377c2;stroke-width:1.5;"/>
    <path clip-path="url(#p0ce84f744a)" d="M 161.523707 143.82448 
L 161.523707 138.431487 
" style="fill:none;stroke:#e377c2;stroke-width:1.5;"/>
    <path clip-path="url(#p0ce84f744a)" d="M 181.814616 146.243316 
L 181.814616 140.966907 
" style="fill:none;stroke:#e377c2;stroke-width:1.5;"/>
    <path clip-path="url(#p0ce84f744a)" d="M 202.105526 152.773236 
L 202.105526 147.182206 
" style="fill:none;stroke:#e377c2;stroke-width:1.5;"/>
    <path clip-path="url(#p0ce84f744a)" d="M 222.396435 170.533745 
L 222.396435 164.468888 
" style="fill:none;stroke:#e377c2;stroke-width:1.5;"/>
    <path clip-path="url(#p0ce84f744a)" d="M 242.687344 178.028968 
L 242.687344 171.850252 
" style="fill:none;stroke:#e377c2;stroke-width:1.5;"/>
    <path clip-path="url(#p0ce84f744a)" d="M 262.978253 189.78172 
L 262.978253 183.894219 
" style="fill:none;stroke:#e377c2;stroke-width:1.5;"/>
    <path clip-path="url(#p0ce84f744a)" d="M 283.269162 192.414041 
L 283.269162 186.752263 
" style="fill:none;stroke:#e377c2;stroke-width:1.5;"/>
    <path clip-path="url(#p0ce84f744a)" d="M 303.560071 187.473242 
L 303.560071 181.594942 
" style="fill:none;stroke:#e377c2;stroke-width:1.5;"/>
    <path clip-path="url(#p0ce84f744a)" d="M 323.85098 175.056448 
L 323.85098 168.736488 
" style="fill:none;stroke:#e377c2;stroke-width:1.5;"/>
    <path clip-path="url(#p0ce84f744a)" d="M 344.141889 156.438099 
L 344.141889 150.417045 
" style="fill:none;stroke:#e377c2;stroke-width:1.5;"/>
    <path clip-path="url(#p0ce84f744a)" d="M 364.432798 144.859684 
L 364.432798 139.625364 
" style="fill:none;stroke:#e377c2;stroke-width:1.5;"/>
    <path clip-path="url(#p0ce84f744a)" d="M 384.723707 145.495505 
L 384.723707 139.932391 
" style="fill:none;stroke:#e377c2;stroke-width:1.5;"/>
   </g>
   <g id="LineCollection_8">
    <path clip-path="url(#p0ce84f744a)" d="M 100.65098 124.550065 
L 100.65098 119.711485 
" style="fill:none;stroke:#7f7f7f;stroke-width:1.5;"/>
    <path clip-path="url(#p0ce84f744a)" d="M 120.941889 123.805462 
L 120.941889 118.984557 
" style="fill:none;stroke:#7f7f7f;stroke-width:1.5;"/>
    <path clip-path="url(#p0ce84f744a)" d="M 141.232798 123.388933 
L 141.232798 118.789759 
" style="fill:none;stroke:#7f7f7f;stroke-width:1.5;"/>
    <path clip-path="url(#p0ce84f744a)" d="M 161.523707 124.79864 
L 161.523707 119.909237 
" style="fill:none;stroke:#7f7f7f;stroke-width:1.5;"/>
    <path clip-path="url(#p0ce84f744a)" d="M 181.814616 132.935685 
L 181.814616 127.338415 
" style="fill:none;stroke:#7f7f7f;stroke-width:1.5;"/>
    <path clip-path="url(#p0ce84f744a)" d="M 202.105526 144.743645 
L 202.105526 138.924916 
" style="fill:none;stroke:#7f7f7f;stroke-width:1.5;"/>
    <path clip-path="url(#p0ce84f744a)" d="M 222.396435 160.17746 
L 222.396435 153.931264 
" style="fill:none;stroke:#7f7f7f;stroke-width:1.5;"/>
    <path clip-path="url(#p0ce84f744a)" d="M 242.687344 165.825541 
L 242.687344 159.76195 
" style="fill:none;stroke:#7f7f7f;stroke-width:1.5;"/>
    <path clip-path="url(#p0ce84f744a)" d="M 262.978253 170.549841 
L 262.978253 164.471974 
" style="fill:none;stroke:#7f7f7f;stroke-width:1.5;"/>
    <path clip-path="url(#p0ce84f744a)" d="M 283.269162 177.213062 
L 283.269162 171.563895 
" style="fill:none;stroke:#7f7f7f;stroke-width:1.5;"/>
    <path clip-path="url(#p0ce84f744a)" d="M 303.560071 170.679688 
L 303.560071 164.732982 
" style="fill:none;stroke:#7f7f7f;stroke-width:1.5;"/>
    <path clip-path="url(#p0ce84f744a)" d="M 323.85098 160.036692 
L 323.85098 153.863843 
" style="fill:none;stroke:#7f7f7f;stroke-width:1.5;"/>
    <path clip-path="url(#p0ce84f744a)" d="M 344.141889 149.623589 
L 344.141889 142.989092 
" style="fill:none;stroke:#7f7f7f;stroke-width:1.5;"/>
    <path clip-path="url(#p0ce84f744a)" d="M 364.432798 131.866488 
L 364.432798 126.475705 
" style="fill:none;stroke:#7f7f7f;stroke-width:1.5;"/>
    <path clip-path="url(#p0ce84f744a)" d="M 384.723707 125.257937 
L 384.723707 120.407489 
" style="fill:none;stroke:#7f7f7f;stroke-width:1.5;"/>
   </g>
   <g id="LineCollection_9">
    <path clip-path="url(#p0ce84f744a)" d="M 100.65098 110.292814 
L 100.65098 105.239949 
" style="fill:none;stroke:#bcbd22;stroke-width:1.5;"/>
    <path clip-path="url(#p0ce84f744a)" d="M 120.941889 103.817328 
L 120.941889 99.518572 
" style="fill:none;stroke:#bcbd22;stroke-width:1.5;"/>
    <path clip-path="url(#p0ce84f744a)" d="M 141.232798 107.761079 
L 141.232798 102.902549 
" style="fill:none;stroke:#bcbd22;stroke-width:1.5;"/>
    <path clip-path="url(#p0ce84f744a)" d="M 161.523707 105.248516 
L 161.523707 100.654583 
" style="fill:none;stroke:#bcbd22;stroke-width:1.5;"/>
    <path clip-path="url(#p0ce84f744a)" d="M 181.814616 116.586686 
L 181.814616 111.329014 
" style="fill:none;stroke:#bcbd22;stroke-width:1.5;"/>
    <path clip-path="url(#p0ce84f744a)" d="M 202.105526 125.738625 
L 202.105526 119.780083 
" style="fill:none;stroke:#bcbd22;stroke-width:1.5;"/>
    <path clip-path="url(#p0ce84f744a)" d="M 222.396435 141.575067 
L 222.396435 135.357188 
" style="fill:none;stroke:#bcbd22;stroke-width:1.5;"/>
    <path clip-path="url(#p0ce84f744a)" d="M 242.687344 151.600461 
L 242.687344 145.710439 
" style="fill:none;stroke:#bcbd22;stroke-width:1.5;"/>
    <path clip-path="url(#p0ce84f744a)" d="M 262.978253 159.42947 
L 262.978253 153.999691 
" style="fill:none;stroke:#bcbd22;stroke-width:1.5;"/>
    <path clip-path="url(#p0ce84f744a)" d="M 283.269162 165.355784 
L 283.269162 159.839254 
" style="fill:none;stroke:#bcbd22;stroke-width:1.5;"/>
    <path clip-path="url(#p0ce84f744a)" d="M 303.560071 151.208204 
L 303.560071 145.177478 
" style="fill:none;stroke:#bcbd22;stroke-width:1.5;"/>
    <path clip-path="url(#p0ce84f744a)" d="M 323.85098 139.641443 
L 323.85098 133.344886 
" style="fill:none;stroke:#bcbd22;stroke-width:1.5;"/>
    <path clip-path="url(#p0ce84f744a)" d="M 344.141889 130.327709 
L 344.141889 124.153477 
" style="fill:none;stroke:#bcbd22;stroke-width:1.5;"/>
    <path clip-path="url(#p0ce84f744a)" d="M 364.432798 116.585211 
L 364.432798 111.079609 
" style="fill:none;stroke:#bcbd22;stroke-width:1.5;"/>
    <path clip-path="url(#p0ce84f744a)" d="M 384.723707 112.722268 
L 384.723707 107.553632 
" style="fill:none;stroke:#bcbd22;stroke-width:1.5;"/>
   </g>
   <g id="line2d_19">
    <path clip-path="url(#p0ce84f744a)" d="M 80.360071 233.017331 
L 89.353901 233.073316 
L 98.023045 232.904375 
L 107.14675 232.499175 
L 118.64067 231.748739 
L 135.686738 230.638418 
L 142.927259 230.40779 
L 148.966437 230.43361 
L 154.356242 230.676585 
L 159.323953 231.120662 
L 164.031915 231.763249 
L 168.545064 232.60172 
L 172.960807 233.647488 
L 177.311613 234.905905 
L 181.662419 236.396333 
L 186.045694 238.1337 
L 190.526375 240.150507 
L 195.169399 242.487263 
L 200.039704 245.190193 
L 205.299634 248.368109 
L 211.208938 252.205458 
L 218.514396 257.229488 
L 239.489177 271.822137 
L 244.976387 275.266531 
L 249.749286 278.006935 
L 254.100092 280.252457 
L 258.126211 282.084174 
L 261.925049 283.572403 
L 265.561544 284.761493 
L 269.068164 285.677156 
L 272.477377 286.340686 
L 275.821654 286.767934 
L 279.133461 286.968671 
L 282.445269 286.946222 
L 285.757076 286.700797 
L 289.101352 286.229069 
L 292.510566 285.521305 
L 295.984717 284.571699 
L 299.588743 283.353444 
L 303.322644 281.855105 
L 307.283825 280.022308 
L 311.504756 277.820337 
L 316.115312 275.159073 
L 321.310304 271.896223 
L 327.544295 267.706697 
L 337.057624 261.008299 
L 348.454139 253.046913 
L 354.947879 248.787446 
L 360.500027 245.407421 
L 365.532676 242.599267 
L 370.273106 240.204809 
L 374.818724 238.154374 
L 379.266936 236.39038 
L 383.650211 234.890577 
L 388.033486 233.626215 
L 392.449229 232.584646 
L 396.962379 231.750234 
L 401.605403 231.118846 
L 405.014616 230.790357 
L 405.014616 230.790357 
" style="fill:none;stroke:#1f77b4;stroke-linecap:square;stroke-width:1.5;"/>
   </g>
   <g id="line2d_20">
    <path clip-path="url(#p0ce84f744a)" d="M 80.360071 216.454231 
L 89.711057 216.562877 
L 98.510075 216.443293 
L 107.601312 216.093729 
L 118.445858 215.441462 
L 139.355701 214.133035 
L 146.433878 213.954592 
L 152.408119 214.02163 
L 157.765455 214.2999 
L 162.765635 214.780292 
L 167.506066 215.457945 
L 172.084153 216.336575 
L 176.564833 217.423365 
L 180.980577 218.722749 
L 185.428789 220.26518 
L 189.90947 222.055312 
L 194.520025 224.139049 
L 199.325393 226.558701 
L 204.422979 229.379055 
L 210.007596 232.729439 
L 216.468867 236.87437 
L 225.527635 242.977728 
L 238.385241 251.617186 
L 244.554294 255.481585 
L 249.716818 258.458769 
L 254.294905 260.847925 
L 258.515836 262.804385 
L 262.477017 264.398739 
L 266.243387 265.677875 
L 269.879881 266.679091 
L 273.386501 267.416227 
L 276.828183 267.914076 
L 280.237397 268.181808 
L 283.614142 268.223173 
L 286.990887 268.041378 
L 290.4001 267.633274 
L 293.841783 266.996577 
L 297.380871 266.113249 
L 301.017366 264.974063 
L 304.816204 263.547229 
L 308.809854 261.805247 
L 313.063254 259.703069 
L 317.706278 257.154074 
L 322.901271 254.041426 
L 329.102793 250.056049 
L 338.291435 243.853553 
L 350.564604 235.610701 
L 357.123282 231.484016 
L 362.707899 228.227314 
L 367.805485 225.507541 
L 372.610852 223.192666 
L 377.221408 221.215698 
L 381.734558 219.521291 
L 386.18277 218.08768 
L 390.630982 216.886977 
L 395.144131 215.900159 
L 399.754687 215.121175 
L 404.527586 214.541652 
L 405.014616 214.494679 
L 405.014616 214.494679 
" style="fill:none;stroke:#ff7f0e;stroke-linecap:square;stroke-width:1.5;"/>
   </g>
   <g id="line2d_21">
    <path clip-path="url(#p0ce84f744a)" d="M 80.360071 200.882135 
L 88.509715 200.876223 
L 96.529484 200.64698 
L 105.068753 200.175529 
L 115.848362 199.340508 
L 132.732086 198.025573 
L 139.680389 197.728869 
L 145.492286 197.699284 
L 150.687278 197.893205 
L 155.492646 198.294142 
L 160.038264 198.896239 
L 164.38907 199.695415 
L 168.64247 200.702215 
L 172.830933 201.921839 
L 177.019395 203.374119 
L 181.240326 205.075038 
L 185.526195 207.043318 
L 189.941938 209.317276 
L 194.584963 211.962055 
L 199.552674 215.053528 
L 205.007416 218.715865 
L 211.436219 223.310362 
L 221.111892 230.53653 
L 231.729157 238.392777 
L 237.735867 242.5584 
L 242.736047 245.761265 
L 247.184259 248.351007 
L 251.275315 250.478382 
L 255.106622 252.221821 
L 258.743117 253.633402 
L 262.217268 254.745508 
L 265.594013 255.593667 
L 268.873351 256.189593 
L 272.087753 256.550394 
L 275.269686 256.686536 
L 278.451618 256.601562 
L 281.66602 256.291986 
L 284.91289 255.753867 
L 288.224697 254.976771 
L 291.601442 253.954858 
L 295.108062 252.659162 
L 298.777025 251.062645 
L 302.640801 249.135266 
L 306.796795 246.808066 
L 311.342413 244.000485 
L 316.472468 240.561812 
L 322.67399 236.124242 
L 332.576944 228.719835 
L 342.837053 221.137458 
L 349.135981 216.75916 
L 354.525786 213.278303 
L 359.42856 210.372482 
L 364.039115 207.895384 
L 368.454859 205.773131 
L 372.740727 203.957672 
L 376.961658 202.409458 
L 381.150121 201.10792 
L 385.371052 200.028072 
L 389.656921 199.160531 
L 394.072664 198.494069 
L 398.68322 198.024951 
L 403.553525 197.754444 
L 405.014616 197.713773 
L 405.014616 197.713773 
" style="fill:none;stroke:#2ca02c;stroke-linecap:square;stroke-width:1.5;"/>
   </g>
   <g id="line2d_22">
    <path clip-path="url(#p0ce84f744a)" d="M 80.360071 186.861846 
L 89.288964 186.927834 
L 97.860701 186.76842 
L 106.822063 186.375075 
L 117.828952 185.654237 
L 136.530924 184.40597 
L 143.64157 184.182697 
L 149.615811 184.213581 
L 154.940678 184.459898 
L 159.875921 184.90781 
L 164.551414 185.553161 
L 169.064563 186.399611 
L 173.480307 187.454604 
L 177.831113 188.723147 
L 182.181919 190.224326 
L 186.565193 191.972677 
L 191.045874 194.000312 
L 195.688898 196.347199 
L 200.591672 199.07765 
L 205.884071 202.28355 
L 211.89078 206.190279 
L 219.455988 211.393335 
L 238.41771 224.555159 
L 244.099732 228.150038 
L 248.970037 230.973841 
L 253.353312 233.264024 
L 257.4119 235.139233 
L 261.243207 236.66887 
L 264.91217 237.89667 
L 268.451258 238.847802 
L 271.892941 239.543228 
L 275.269686 239.998609 
L 278.581493 240.222524 
L 281.893301 240.223737 
L 285.205108 240.002237 
L 288.549384 239.554718 
L 291.958598 238.871467 
L 295.432749 237.946465 
L 299.004306 236.7649 
L 302.738207 235.293546 
L 306.66692 233.503812 
L 310.855382 231.348716 
L 315.433469 228.738001 
L 320.563524 225.549969 
L 326.700109 221.463275 
L 335.726408 215.151808 
L 348.032045 206.585247 
L 354.525786 202.347046 
L 360.045465 199.004263 
L 365.078114 196.211445 
L 369.818544 193.83166 
L 374.364162 191.795586 
L 378.812374 190.04596 
L 383.195649 188.560621 
L 387.578924 187.311001 
L 391.994667 186.284499 
L 396.507817 185.465615 
L 401.150841 184.850201 
L 405.014616 184.499176 
L 405.014616 184.499176 
" style="fill:none;stroke:#d62728;stroke-linecap:square;stroke-width:1.5;"/>
   </g>
   <g id="line2d_23">
    <path clip-path="url(#p0ce84f744a)" d="M 80.360071 168.440052 
L 89.029214 168.416877 
L 97.63342 168.169512 
L 107.016875 167.670239 
L 121.303104 166.649263 
L 132.699618 165.929029 
L 139.842732 165.69882 
L 145.784504 165.725168 
L 151.109371 165.968186 
L 156.044614 166.414718 
L 160.720107 167.060875 
L 165.200788 167.903676 
L 169.584063 168.954459 
L 173.9024 170.21851 
L 178.220737 171.715371 
L 182.571543 173.460183 
L 187.019755 175.485969 
L 191.630311 177.833992 
L 196.468147 180.551492 
L 201.66314 183.728752 
L 207.507506 187.57171 
L 214.65062 192.549022 
L 236.566994 208.014726 
L 241.956798 211.426818 
L 246.66476 214.149592 
L 250.950628 216.375473 
L 254.944279 218.20177 
L 258.710648 219.682449 
L 262.314674 220.86282 
L 265.788825 221.769253 
L 269.16557 222.423519 
L 272.477377 222.84179 
L 275.756716 223.034029 
L 279.036055 223.003628 
L 282.315394 222.750872 
L 285.627201 222.272342 
L 289.003946 221.558114 
L 292.445629 220.602238 
L 296.017186 219.377381 
L 299.751086 217.857542 
L 303.679799 216.013787 
L 307.868262 213.798377 
L 312.446349 211.119393 
L 317.576404 207.853125 
L 323.745457 203.64953 
L 332.966568 197.061296 
L 344.752707 188.690354 
L 351.213978 184.381329 
L 356.733657 180.962547 
L 361.766306 178.10398 
L 366.474268 175.681828 
L 370.987417 173.606092 
L 375.403161 171.818325 
L 379.753967 170.296112 
L 384.072304 169.019139 
L 388.42311 167.962714 
L 392.871322 167.111381 
L 397.449409 166.461647 
L 402.254777 166.005647 
L 405.014616 165.838556 
L 405.014616 165.838556 
" style="fill:none;stroke:#9467bd;stroke-linecap:square;stroke-width:1.5;"/>
   </g>
   <g id="line2d_24">
    <path clip-path="url(#p0ce84f744a)" d="M 80.360071 155.332914 
L 88.63959 155.310438 
L 96.821703 155.064399 
L 105.620721 154.572251 
L 117.309453 153.674382 
L 131.985306 152.577989 
L 139.128421 152.275815 
L 145.070193 152.242854 
L 150.362591 152.433119 
L 155.265365 152.830697 
L 159.875921 153.425444 
L 164.324133 154.221989 
L 168.674939 155.227248 
L 172.960807 156.446074 
L 177.246676 157.897317 
L 181.565013 159.595704 
L 185.980757 161.573602 
L 190.558844 163.871619 
L 195.364211 166.536299 
L 200.559204 169.677046 
L 206.371101 173.457704 
L 213.546684 178.404996 
L 234.553934 193.064526 
L 239.976207 196.469307 
L 244.684169 199.1693 
L 248.970037 201.375434 
L 252.963688 203.183694 
L 256.730057 204.647359 
L 260.334083 205.811231 
L 263.808234 206.701435 
L 267.184979 207.339565 
L 270.496787 207.741674 
L 273.776125 207.917639 
L 277.055464 207.87081 
L 280.334803 207.601634 
L 283.646611 207.106746 
L 287.023356 206.376345 
L 290.497507 205.394624 
L 294.069064 204.152811 
L 297.802964 202.617361 
L 301.764146 200.743858 
L 306.017546 198.480113 
L 310.66057 195.7511 
L 315.9205 192.394699 
L 322.381771 187.994589 
L 334.232847 179.587983 
L 342.966928 173.535564 
L 349.135981 169.525845 
L 354.493317 166.303201 
L 359.396091 163.608369 
L 364.039115 161.306798 
L 368.519796 159.332926 
L 372.870602 157.657436 
L 377.188939 156.232516 
L 381.474808 155.051009 
L 385.825614 154.082311 
L 390.273826 153.321094 
L 394.884382 152.760139 
L 399.722218 152.398132 
L 404.91721 152.23595 
L 405.014616 152.234915 
L 405.014616 152.234915 
" style="fill:none;stroke:#8c564b;stroke-linecap:square;stroke-width:1.5;"/>
   </g>
   <g id="line2d_25">
    <path clip-path="url(#p0ce84f744a)" d="M 80.360071 138.229132 
L 89.321433 138.207461 
L 98.185388 137.962174 
L 107.925999 137.463731 
L 125.946128 136.252119 
L 135.362051 135.767883 
L 142.245416 135.632028 
L 148.122251 135.73429 
L 153.447118 136.046529 
L 158.414829 136.558727 
L 163.15526 137.270441 
L 167.733347 138.18212 
L 172.214027 139.300215 
L 176.662239 140.638838 
L 181.14292 142.220621 
L 185.688538 144.062777 
L 190.364031 146.199272 
L 195.266805 148.687345 
L 200.526735 151.611629 
L 206.338633 155.103465 
L 213.319403 159.568859 
L 227.216008 168.806882 
L 235.040965 173.832613 
L 240.820393 177.286393 
L 245.788105 180.000661 
L 250.268786 182.198909 
L 254.424779 183.992657 
L 258.321023 185.436072 
L 262.054924 186.585326 
L 265.65895 187.464283 
L 269.16557 188.092832 
L 272.607252 188.485823 
L 276.016466 188.652405 
L 279.425679 188.595651 
L 282.834893 188.316134 
L 286.276575 187.810871 
L 289.783195 187.07091 
L 293.387221 186.081799 
L 297.121122 184.824352 
L 301.017366 183.275802 
L 305.140891 181.395782 
L 309.589103 179.120062 
L 314.524346 176.338601 
L 320.206368 172.871534 
L 327.479357 168.156255 
L 347.739827 154.87543 
L 353.811474 151.249957 
L 359.16881 148.304226 
L 364.136521 145.821584 
L 368.876952 143.698299 
L 373.455039 141.888752 
L 377.968188 140.343107 
L 382.448869 139.043415 
L 386.962018 137.966676 
L 391.540105 137.103667 
L 396.248067 136.442712 
L 401.18331 135.975978 
L 405.014616 135.757169 
L 405.014616 135.757169 
" style="fill:none;stroke:#e377c2;stroke-linecap:square;stroke-width:1.5;"/>
   </g>
   <g id="line2d_26">
    <path clip-path="url(#p0ce84f744a)" d="M 80.360071 124.161871 
L 89.38637 124.095475 
L 98.510075 123.803054 
L 108.932528 123.236959 
L 134.290584 121.751148 
L 141.109011 121.650611 
L 146.985846 121.783151 
L 152.310713 122.123116 
L 157.278425 122.660439 
L 162.018855 123.394604 
L 166.629411 124.33321 
L 171.14256 125.478351 
L 175.623241 126.843961 
L 180.13639 128.452341 
L 184.746946 130.334151 
L 189.487376 132.51175 
L 194.455088 135.041013 
L 199.812424 138.023098 
L 205.819133 141.629598 
L 213.189529 146.329631 
L 235.138371 160.505936 
L 240.690519 163.716081 
L 245.528355 166.261556 
L 249.944099 168.336843 
L 254.035155 170.01792 
L 257.931399 171.380603 
L 261.6653 172.451753 
L 265.269326 173.255568 
L 268.775945 173.812073 
L 272.250096 174.138146 
L 275.691779 174.236714 
L 279.100992 174.113095 
L 282.542675 173.766202 
L 286.016826 173.193324 
L 289.588383 172.377391 
L 293.257346 171.308901 
L 297.056184 169.969648 
L 301.049835 168.323996 
L 305.303234 166.327808 
L 309.91379 163.914538 
L 315.076314 160.955025 
L 321.180429 157.18883 
L 329.752167 151.612057 
L 343.90852 142.400779 
L 350.467198 138.421556 
L 356.084283 135.268614 
L 361.214338 132.639524 
L 366.052175 130.406167 
L 370.727668 128.490891 
L 375.305755 126.855794 
L 379.818904 125.479276 
L 384.332054 124.333967 
L 388.910141 123.401016 
L 393.618102 122.669426 
L 398.520876 122.134622 
L 403.715868 121.794709 
L 405.014616 121.742596 
L 405.014616 121.742596 
" style="fill:none;stroke:#7f7f7f;stroke-linecap:square;stroke-width:1.5;"/>
   </g>
   <g id="line2d_27">
    <path clip-path="url(#p0ce84f744a)" d="M 80.360071 107.039089 
L 89.159089 106.951136 
L 98.087982 106.636866 
L 108.38056 106.042251 
L 132.926899 104.520814 
L 139.680389 104.396727 
L 145.492286 104.508819 
L 150.752216 104.830024 
L 155.65499 105.349622 
L 160.330483 106.066829 
L 164.876101 106.989317 
L 169.324313 108.119545 
L 173.740056 109.472064 
L 178.1558 111.057677 
L 182.63648 112.903445 
L 187.247036 115.04467 
L 192.052404 117.523224 
L 197.182459 120.422494 
L 202.832013 123.875736 
L 209.488097 128.214837 
L 219.618331 135.122685 
L 230.300534 142.328594 
L 236.469587 146.219822 
L 241.599642 149.199135 
L 246.177729 151.605732 
L 250.39866 153.576386 
L 254.359842 155.182199 
L 258.126211 156.470401 
L 261.730237 157.47062 
L 265.236857 158.214817 
L 268.678539 158.717911 
L 272.055284 158.987632 
L 275.39956 159.033552 
L 278.743837 158.858883 
L 282.120582 158.460432 
L 285.562264 157.828747 
L 289.068884 156.957591 
L 292.67291 155.832536 
L 296.439279 154.42144 
L 300.400461 152.696254 
L 304.621392 150.611162 
L 309.199479 148.097059 
L 314.329533 145.019663 
L 320.433649 141.086876 
L 329.135261 135.186296 
L 342.512366 126.12836 
L 349.006107 122.016095 
L 354.590723 118.738043 
L 359.688309 116.00112 
L 364.461208 113.687156 
L 369.071764 111.697151 
L 373.552445 110.003344 
L 378.000657 108.559275 
L 382.448869 107.35001 
L 386.92955 106.362735 
L 391.507637 105.581859 
L 396.248067 104.999196 
L 401.248247 104.610135 
L 405.014616 104.452801 
L 405.014616 104.452801 
" style="fill:none;stroke:#bcbd22;stroke-linecap:square;stroke-width:1.5;"/>
   </g>
   <g id="line2d_28">
    <defs>
     <path d="M 0 3 
C 0.795609 3 1.55874 2.683901 2.12132 2.12132 
C 2.683901 1.55874 3 0.795609 3 0 
C 3 -0.795609 2.683901 -1.55874 2.12132 -2.12132 
C 1.55874 -2.683901 0.795609 -3 0 -3 
C -0.795609 -3 -1.55874 -2.683901 -2.12132 -2.12132 
C -2.683901 -1.55874 -3 -0.795609 -3 0 
C -3 0.795609 -2.683901 1.55874 -2.12132 2.12132 
C -1.55874 2.683901 -0.795609 3 0 3 
z
" id="mcb2457e3ba" style="stroke:#1f77b4;"/>
    </defs>
    <g clip-path="url(#p0ce84f744a)">
     <use style="fill:#1f77b4;stroke:#1f77b4;" x="100.65098" xlink:href="#mcb2457e3ba" y="230.338718"/>
     <use style="fill:#1f77b4;stroke:#1f77b4;" x="120.941889" xlink:href="#mcb2457e3ba" y="228.735813"/>
     <use style="fill:#1f77b4;stroke:#1f77b4;" x="141.232798" xlink:href="#mcb2457e3ba" y="229.72766"/>
     <use style="fill:#1f77b4;stroke:#1f77b4;" x="161.523707" xlink:href="#mcb2457e3ba" y="232.33225"/>
     <use style="fill:#1f77b4;stroke:#1f77b4;" x="181.814616" xlink:href="#mcb2457e3ba" y="238.884281"/>
     <use style="fill:#1f77b4;stroke:#1f77b4;" x="202.105526" xlink:href="#mcb2457e3ba" y="243.670158"/>
     <use style="fill:#1f77b4;stroke:#1f77b4;" x="222.396435" xlink:href="#mcb2457e3ba" y="264.688101"/>
     <use style="fill:#1f77b4;stroke:#1f77b4;" x="242.687344" xlink:href="#mcb2457e3ba" y="272.786571"/>
     <use style="fill:#1f77b4;stroke:#1f77b4;" x="262.978253" xlink:href="#mcb2457e3ba" y="284.548876"/>
     <use style="fill:#1f77b4;stroke:#1f77b4;" x="283.269162" xlink:href="#mcb2457e3ba" y="285.109024"/>
     <use style="fill:#1f77b4;stroke:#1f77b4;" x="303.560071" xlink:href="#mcb2457e3ba" y="281.318196"/>
     <use style="fill:#1f77b4;stroke:#1f77b4;" x="323.85098" xlink:href="#mcb2457e3ba" y="266.62599"/>
     <use style="fill:#1f77b4;stroke:#1f77b4;" x="344.141889" xlink:href="#mcb2457e3ba" y="261.409583"/>
     <use style="fill:#1f77b4;stroke:#1f77b4;" x="364.432798" xlink:href="#mcb2457e3ba" y="247.45975"/>
     <use style="fill:#1f77b4;stroke:#1f77b4;" x="384.723707" xlink:href="#mcb2457e3ba" y="231.928039"/>
    </g>
   </g>
   <g id="line2d_29">
    <defs>
     <path d="M 0 3 
C 0.795609 3 1.55874 2.683901 2.12132 2.12132 
C 2.683901 1.55874 3 0.795609 3 0 
C 3 -0.795609 2.683901 -1.55874 2.12132 -2.12132 
C 1.55874 -2.683901 0.795609 -3 0 -3 
C -0.795609 -3 -1.55874 -2.683901 -2.12132 -2.12132 
C -2.683901 -1.55874 -3 -0.795609 -3 0 
C -3 0.795609 -2.683901 1.55874 -2.12132 2.12132 
C -1.55874 2.683901 -0.795609 3 0 3 
z
" id="mbbb2a9d153" style="stroke:#ff7f0e;"/>
    </defs>
    <g clip-path="url(#p0ce84f744a)">
     <use style="fill:#ff7f0e;stroke:#ff7f0e;" x="100.65098" xlink:href="#mbbb2a9d153" y="214.36515"/>
     <use style="fill:#ff7f0e;stroke:#ff7f0e;" x="120.941889" xlink:href="#mbbb2a9d153" y="214.051692"/>
     <use style="fill:#ff7f0e;stroke:#ff7f0e;" x="141.232798" xlink:href="#mbbb2a9d153" y="215.407094"/>
     <use style="fill:#ff7f0e;stroke:#ff7f0e;" x="161.523707" xlink:href="#mbbb2a9d153" y="216.35378"/>
     <use style="fill:#ff7f0e;stroke:#ff7f0e;" x="181.814616" xlink:href="#mbbb2a9d153" y="219.179196"/>
     <use style="fill:#ff7f0e;stroke:#ff7f0e;" x="202.105526" xlink:href="#mbbb2a9d153" y="228.342949"/>
     <use style="fill:#ff7f0e;stroke:#ff7f0e;" x="222.396435" xlink:href="#mbbb2a9d153" y="241.376433"/>
     <use style="fill:#ff7f0e;stroke:#ff7f0e;" x="242.687344" xlink:href="#mbbb2a9d153" y="254.83514"/>
     <use style="fill:#ff7f0e;stroke:#ff7f0e;" x="262.978253" xlink:href="#mbbb2a9d153" y="263.385957"/>
     <use style="fill:#ff7f0e;stroke:#ff7f0e;" x="283.269162" xlink:href="#mbbb2a9d153" y="266.953238"/>
     <use style="fill:#ff7f0e;stroke:#ff7f0e;" x="303.560071" xlink:href="#mbbb2a9d153" y="265.714146"/>
     <use style="fill:#ff7f0e;stroke:#ff7f0e;" x="323.85098" xlink:href="#mbbb2a9d153" y="253.237317"/>
     <use style="fill:#ff7f0e;stroke:#ff7f0e;" x="344.141889" xlink:href="#mbbb2a9d153" y="241.377195"/>
     <use style="fill:#ff7f0e;stroke:#ff7f0e;" x="364.432798" xlink:href="#mbbb2a9d153" y="226.29649"/>
     <use style="fill:#ff7f0e;stroke:#ff7f0e;" x="384.723707" xlink:href="#mbbb2a9d153" y="217.753761"/>
    </g>
   </g>
   <g id="line2d_30">
    <defs>
     <path d="M 0 3 
C 0.795609 3 1.55874 2.683901 2.12132 2.12132 
C 2.683901 1.55874 3 0.795609 3 0 
C 3 -0.795609 2.683901 -1.55874 2.12132 -2.12132 
C 1.55874 -2.683901 0.795609 -3 0 -3 
C -0.795609 -3 -1.55874 -2.683901 -2.12132 -2.12132 
C -2.683901 -1.55874 -3 -0.795609 -3 0 
C -3 0.795609 -2.683901 1.55874 -2.12132 2.12132 
C -1.55874 2.683901 -0.795609 3 0 3 
z
" id="mbab2358add" style="stroke:#2ca02c;"/>
    </defs>
    <g clip-path="url(#p0ce84f744a)">
     <use style="fill:#2ca02c;stroke:#2ca02c;" x="100.65098" xlink:href="#mbab2358add" y="200.71305"/>
     <use style="fill:#2ca02c;stroke:#2ca02c;" x="120.941889" xlink:href="#mbab2358add" y="199.767132"/>
     <use style="fill:#2ca02c;stroke:#2ca02c;" x="141.232798" xlink:href="#mbab2358add" y="202.735035"/>
     <use style="fill:#2ca02c;stroke:#2ca02c;" x="161.523707" xlink:href="#mbab2358add" y="199.860127"/>
     <use style="fill:#2ca02c;stroke:#2ca02c;" x="181.814616" xlink:href="#mbab2358add" y="201.828641"/>
     <use style="fill:#2ca02c;stroke:#2ca02c;" x="202.105526" xlink:href="#mbab2358add" y="215.515438"/>
     <use style="fill:#2ca02c;stroke:#2ca02c;" x="222.396435" xlink:href="#mbab2358add" y="230.503214"/>
     <use style="fill:#2ca02c;stroke:#2ca02c;" x="242.687344" xlink:href="#mbab2358add" y="245.886383"/>
     <use style="fill:#2ca02c;stroke:#2ca02c;" x="262.978253" xlink:href="#mbab2358add" y="256.73055"/>
     <use style="fill:#2ca02c;stroke:#2ca02c;" x="283.269162" xlink:href="#mbab2358add" y="258.531428"/>
     <use style="fill:#2ca02c;stroke:#2ca02c;" x="303.560071" xlink:href="#mbab2358add" y="245.708935"/>
     <use style="fill:#2ca02c;stroke:#2ca02c;" x="323.85098" xlink:href="#mbab2358add" y="236.63305"/>
     <use style="fill:#2ca02c;stroke:#2ca02c;" x="344.141889" xlink:href="#mbab2358add" y="217.737932"/>
     <use style="fill:#2ca02c;stroke:#2ca02c;" x="364.432798" xlink:href="#mbab2358add" y="206.4724"/>
     <use style="fill:#2ca02c;stroke:#2ca02c;" x="384.723707" xlink:href="#mbab2358add" y="200.061993"/>
    </g>
   </g>
   <g id="line2d_31">
    <defs>
     <path d="M 0 3 
C 0.795609 3 1.55874 2.683901 2.12132 2.12132 
C 2.683901 1.55874 3 0.795609 3 0 
C 3 -0.795609 2.683901 -1.55874 2.12132 -2.12132 
C 1.55874 -2.683901 0.795609 -3 0 -3 
C -0.795609 -3 -1.55874 -2.683901 -2.12132 -2.12132 
C -2.683901 -1.55874 -3 -0.795609 -3 0 
C -3 0.795609 -2.683901 1.55874 -2.12132 2.12132 
C -1.55874 2.683901 -0.795609 3 0 3 
z
" id="m4d17eb6f4c" style="stroke:#d62728;"/>
    </defs>
    <g clip-path="url(#p0ce84f744a)">
     <use style="fill:#d62728;stroke:#d62728;" x="100.65098" xlink:href="#m4d17eb6f4c" y="189.806608"/>
     <use style="fill:#d62728;stroke:#d62728;" x="120.941889" xlink:href="#m4d17eb6f4c" y="182.953296"/>
     <use style="fill:#d62728;stroke:#d62728;" x="141.232798" xlink:href="#m4d17eb6f4c" y="184.587086"/>
     <use style="fill:#d62728;stroke:#d62728;" x="161.523707" xlink:href="#m4d17eb6f4c" y="182.161515"/>
     <use style="fill:#d62728;stroke:#d62728;" x="181.814616" xlink:href="#m4d17eb6f4c" y="189.500848"/>
     <use style="fill:#d62728;stroke:#d62728;" x="202.105526" xlink:href="#m4d17eb6f4c" y="200.028174"/>
     <use style="fill:#d62728;stroke:#d62728;" x="222.396435" xlink:href="#m4d17eb6f4c" y="217.844535"/>
     <use style="fill:#d62728;stroke:#d62728;" x="242.687344" xlink:href="#m4d17eb6f4c" y="225.560183"/>
     <use style="fill:#d62728;stroke:#d62728;" x="262.978253" xlink:href="#m4d17eb6f4c" y="233.967752"/>
     <use style="fill:#d62728;stroke:#d62728;" x="283.269162" xlink:href="#m4d17eb6f4c" y="240.579006"/>
     <use style="fill:#d62728;stroke:#d62728;" x="303.560071" xlink:href="#m4d17eb6f4c" y="237.178247"/>
     <use style="fill:#d62728;stroke:#d62728;" x="323.85098" xlink:href="#m4d17eb6f4c" y="224.272681"/>
     <use style="fill:#d62728;stroke:#d62728;" x="344.141889" xlink:href="#m4d17eb6f4c" y="207.836584"/>
     <use style="fill:#d62728;stroke:#d62728;" x="364.432798" xlink:href="#m4d17eb6f4c" y="194.427894"/>
     <use style="fill:#d62728;stroke:#d62728;" x="384.723707" xlink:href="#m4d17eb6f4c" y="191.199325"/>
    </g>
   </g>
   <g id="line2d_32">
    <defs>
     <path d="M 0 3 
C 0.795609 3 1.55874 2.683901 2.12132 2.12132 
C 2.683901 1.55874 3 0.795609 3 0 
C 3 -0.795609 2.683901 -1.55874 2.12132 -2.12132 
C 1.55874 -2.683901 0.795609 -3 0 -3 
C -0.795609 -3 -1.55874 -2.683901 -2.12132 -2.12132 
C -2.683901 -1.55874 -3 -0.795609 -3 0 
C -3 0.795609 -2.683901 1.55874 -2.12132 2.12132 
C -1.55874 2.683901 -0.795609 3 0 3 
z
" id="mc6bf457b1f" style="stroke:#9467bd;"/>
    </defs>
    <g clip-path="url(#p0ce84f744a)">
     <use style="fill:#9467bd;stroke:#9467bd;" x="100.65098" xlink:href="#mc6bf457b1f" y="167.05481"/>
     <use style="fill:#9467bd;stroke:#9467bd;" x="120.941889" xlink:href="#mc6bf457b1f" y="168.938735"/>
     <use style="fill:#9467bd;stroke:#9467bd;" x="141.232798" xlink:href="#mc6bf457b1f" y="165.725201"/>
     <use style="fill:#9467bd;stroke:#9467bd;" x="161.523707" xlink:href="#mc6bf457b1f" y="165.751628"/>
     <use style="fill:#9467bd;stroke:#9467bd;" x="181.814616" xlink:href="#mc6bf457b1f" y="171.227183"/>
     <use style="fill:#9467bd;stroke:#9467bd;" x="202.105526" xlink:href="#mc6bf457b1f" y="185.840718"/>
     <use style="fill:#9467bd;stroke:#9467bd;" x="222.396435" xlink:href="#mc6bf457b1f" y="200.765497"/>
     <use style="fill:#9467bd;stroke:#9467bd;" x="242.687344" xlink:href="#mc6bf457b1f" y="214.274713"/>
     <use style="fill:#9467bd;stroke:#9467bd;" x="262.978253" xlink:href="#mc6bf457b1f" y="216.462975"/>
     <use style="fill:#9467bd;stroke:#9467bd;" x="283.269162" xlink:href="#mc6bf457b1f" y="219.925267"/>
     <use style="fill:#9467bd;stroke:#9467bd;" x="303.560071" xlink:href="#mc6bf457b1f" y="216.97354"/>
     <use style="fill:#9467bd;stroke:#9467bd;" x="323.85098" xlink:href="#mc6bf457b1f" y="207.66153"/>
     <use style="fill:#9467bd;stroke:#9467bd;" x="344.141889" xlink:href="#mc6bf457b1f" y="190.757361"/>
     <use style="fill:#9467bd;stroke:#9467bd;" x="364.432798" xlink:href="#mc6bf457b1f" y="172.901575"/>
     <use style="fill:#9467bd;stroke:#9467bd;" x="384.723707" xlink:href="#mc6bf457b1f" y="168.489406"/>
    </g>
   </g>
   <g id="line2d_33">
    <defs>
     <path d="M 0 3 
C 0.795609 3 1.55874 2.683901 2.12132 2.12132 
C 2.683901 1.55874 3 0.795609 3 0 
C 3 -0.795609 2.683901 -1.55874 2.12132 -2.12132 
C 1.55874 -2.683901 0.795609 -3 0 -3 
C -0.795609 -3 -1.55874 -2.683901 -2.12132 -2.12132 
C -2.683901 -1.55874 -3 -0.795609 -3 0 
C -3 0.795609 -2.683901 1.55874 -2.12132 2.12132 
C -1.55874 2.683901 -0.795609 3 0 3 
z
" id="mf953d3cdd8" style="stroke:#8c564b;"/>
    </defs>
    <g clip-path="url(#p0ce84f744a)">
     <use style="fill:#8c564b;stroke:#8c564b;" x="100.65098" xlink:href="#mf953d3cdd8" y="154.845952"/>
     <use style="fill:#8c564b;stroke:#8c564b;" x="120.941889" xlink:href="#mf953d3cdd8" y="155.295904"/>
     <use style="fill:#8c564b;stroke:#8c564b;" x="141.232798" xlink:href="#mf953d3cdd8" y="152.025146"/>
     <use style="fill:#8c564b;stroke:#8c564b;" x="161.523707" xlink:href="#mf953d3cdd8" y="152.579683"/>
     <use style="fill:#8c564b;stroke:#8c564b;" x="181.814616" xlink:href="#mf953d3cdd8" y="159.156977"/>
     <use style="fill:#8c564b;stroke:#8c564b;" x="202.105526" xlink:href="#mf953d3cdd8" y="174.310196"/>
     <use style="fill:#8c564b;stroke:#8c564b;" x="222.396435" xlink:href="#mf953d3cdd8" y="186.305335"/>
     <use style="fill:#8c564b;stroke:#8c564b;" x="242.687344" xlink:href="#mf953d3cdd8" y="195.501641"/>
     <use style="fill:#8c564b;stroke:#8c564b;" x="262.978253" xlink:href="#mf953d3cdd8" y="202.63862"/>
     <use style="fill:#8c564b;stroke:#8c564b;" x="283.269162" xlink:href="#mf953d3cdd8" y="210.081007"/>
     <use style="fill:#8c564b;stroke:#8c564b;" x="303.560071" xlink:href="#mf953d3cdd8" y="199.462493"/>
     <use style="fill:#8c564b;stroke:#8c564b;" x="323.85098" xlink:href="#mf953d3cdd8" y="190.36425"/>
     <use style="fill:#8c564b;stroke:#8c564b;" x="344.141889" xlink:href="#mf953d3cdd8" y="171.466623"/>
     <use style="fill:#8c564b;stroke:#8c564b;" x="364.432798" xlink:href="#mf953d3cdd8" y="158.788187"/>
     <use style="fill:#8c564b;stroke:#8c564b;" x="384.723707" xlink:href="#mf953d3cdd8" y="153.123088"/>
    </g>
   </g>
   <g id="line2d_34">
    <defs>
     <path d="M 0 3 
C 0.795609 3 1.55874 2.683901 2.12132 2.12132 
C 2.683901 1.55874 3 0.795609 3 0 
C 3 -0.795609 2.683901 -1.55874 2.12132 -2.12132 
C 1.55874 -2.683901 0.795609 -3 0 -3 
C -0.795609 -3 -1.55874 -2.683901 -2.12132 -2.12132 
C -2.683901 -1.55874 -3 -0.795609 -3 0 
C -3 0.795609 -2.683901 1.55874 -2.12132 2.12132 
C -1.55874 2.683901 -0.795609 3 0 3 
z
" id="m16052a95dc" style="stroke:#e377c2;"/>
    </defs>
    <g clip-path="url(#p0ce84f744a)">
     <use style="fill:#e377c2;stroke:#e377c2;" x="100.65098" xlink:href="#m16052a95dc" y="134.852715"/>
     <use style="fill:#e377c2;stroke:#e377c2;" x="120.941889" xlink:href="#m16052a95dc" y="135.512297"/>
     <use style="fill:#e377c2;stroke:#e377c2;" x="141.232798" xlink:href="#m16052a95dc" y="136.354336"/>
     <use style="fill:#e377c2;stroke:#e377c2;" x="161.523707" xlink:href="#m16052a95dc" y="141.127983"/>
     <use style="fill:#e377c2;stroke:#e377c2;" x="181.814616" xlink:href="#m16052a95dc" y="143.605112"/>
     <use style="fill:#e377c2;stroke:#e377c2;" x="202.105526" xlink:href="#m16052a95dc" y="149.977721"/>
     <use style="fill:#e377c2;stroke:#e377c2;" x="222.396435" xlink:href="#m16052a95dc" y="167.501317"/>
     <use style="fill:#e377c2;stroke:#e377c2;" x="242.687344" xlink:href="#m16052a95dc" y="174.93961"/>
     <use style="fill:#e377c2;stroke:#e377c2;" x="262.978253" xlink:href="#m16052a95dc" y="186.83797"/>
     <use style="fill:#e377c2;stroke:#e377c2;" x="283.269162" xlink:href="#m16052a95dc" y="189.583152"/>
     <use style="fill:#e377c2;stroke:#e377c2;" x="303.560071" xlink:href="#m16052a95dc" y="184.534092"/>
     <use style="fill:#e377c2;stroke:#e377c2;" x="323.85098" xlink:href="#m16052a95dc" y="171.896468"/>
     <use style="fill:#e377c2;stroke:#e377c2;" x="344.141889" xlink:href="#m16052a95dc" y="153.427572"/>
     <use style="fill:#e377c2;stroke:#e377c2;" x="364.432798" xlink:href="#m16052a95dc" y="142.242524"/>
     <use style="fill:#e377c2;stroke:#e377c2;" x="384.723707" xlink:href="#m16052a95dc" y="142.713948"/>
    </g>
   </g>
   <g id="line2d_35">
    <defs>
     <path d="M 0 3 
C 0.795609 3 1.55874 2.683901 2.12132 2.12132 
C 2.683901 1.55874 3 0.795609 3 0 
C 3 -0.795609 2.683901 -1.55874 2.12132 -2.12132 
C 1.55874 -2.683901 0.795609 -3 0 -3 
C -0.795609 -3 -1.55874 -2.683901 -2.12132 -2.12132 
C -2.683901 -1.55874 -3 -0.795609 -3 0 
C -3 0.795609 -2.683901 1.55874 -2.12132 2.12132 
C -1.55874 2.683901 -0.795609 3 0 3 
z
" id="ma0b6eaaa17" style="stroke:#7f7f7f;"/>
    </defs>
    <g clip-path="url(#p0ce84f744a)">
     <use style="fill:#7f7f7f;stroke:#7f7f7f;" x="100.65098" xlink:href="#ma0b6eaaa17" y="122.130775"/>
     <use style="fill:#7f7f7f;stroke:#7f7f7f;" x="120.941889" xlink:href="#ma0b6eaaa17" y="121.39501"/>
     <use style="fill:#7f7f7f;stroke:#7f7f7f;" x="141.232798" xlink:href="#ma0b6eaaa17" y="121.089346"/>
     <use style="fill:#7f7f7f;stroke:#7f7f7f;" x="161.523707" xlink:href="#ma0b6eaaa17" y="122.353939"/>
     <use style="fill:#7f7f7f;stroke:#7f7f7f;" x="181.814616" xlink:href="#ma0b6eaaa17" y="130.13705"/>
     <use style="fill:#7f7f7f;stroke:#7f7f7f;" x="202.105526" xlink:href="#ma0b6eaaa17" y="141.834281"/>
     <use style="fill:#7f7f7f;stroke:#7f7f7f;" x="222.396435" xlink:href="#ma0b6eaaa17" y="157.054362"/>
     <use style="fill:#7f7f7f;stroke:#7f7f7f;" x="242.687344" xlink:href="#ma0b6eaaa17" y="162.793746"/>
     <use style="fill:#7f7f7f;stroke:#7f7f7f;" x="262.978253" xlink:href="#ma0b6eaaa17" y="167.510908"/>
     <use style="fill:#7f7f7f;stroke:#7f7f7f;" x="283.269162" xlink:href="#ma0b6eaaa17" y="174.388479"/>
     <use style="fill:#7f7f7f;stroke:#7f7f7f;" x="303.560071" xlink:href="#ma0b6eaaa17" y="167.706335"/>
     <use style="fill:#7f7f7f;stroke:#7f7f7f;" x="323.85098" xlink:href="#ma0b6eaaa17" y="156.950267"/>
     <use style="fill:#7f7f7f;stroke:#7f7f7f;" x="344.141889" xlink:href="#ma0b6eaaa17" y="146.30634"/>
     <use style="fill:#7f7f7f;stroke:#7f7f7f;" x="364.432798" xlink:href="#ma0b6eaaa17" y="129.171097"/>
     <use style="fill:#7f7f7f;stroke:#7f7f7f;" x="384.723707" xlink:href="#ma0b6eaaa17" y="122.832713"/>
    </g>
   </g>
   <g id="line2d_36">
    <defs>
     <path d="M 0 3 
C 0.795609 3 1.55874 2.683901 2.12132 2.12132 
C 2.683901 1.55874 3 0.795609 3 0 
C 3 -0.795609 2.683901 -1.55874 2.12132 -2.12132 
C 1.55874 -2.683901 0.795609 -3 0 -3 
C -0.795609 -3 -1.55874 -2.683901 -2.12132 -2.12132 
C -2.683901 -1.55874 -3 -0.795609 -3 0 
C -3 0.795609 -2.683901 1.55874 -2.12132 2.12132 
C -1.55874 2.683901 -0.795609 3 0 3 
z
" id="mf359d5a775" style="stroke:#bcbd22;"/>
    </defs>
    <g clip-path="url(#p0ce84f744a)">
     <use style="fill:#bcbd22;stroke:#bcbd22;" x="100.65098" xlink:href="#mf359d5a775" y="107.766381"/>
     <use style="fill:#bcbd22;stroke:#bcbd22;" x="120.941889" xlink:href="#mf359d5a775" y="101.66795"/>
     <use style="fill:#bcbd22;stroke:#bcbd22;" x="141.232798" xlink:href="#mf359d5a775" y="105.331814"/>
     <use style="fill:#bcbd22;stroke:#bcbd22;" x="161.523707" xlink:href="#mf359d5a775" y="102.95155"/>
     <use style="fill:#bcbd22;stroke:#bcbd22;" x="181.814616" xlink:href="#mf359d5a775" y="113.95785"/>
     <use style="fill:#bcbd22;stroke:#bcbd22;" x="202.105526" xlink:href="#mf359d5a775" y="122.759354"/>
     <use style="fill:#bcbd22;stroke:#bcbd22;" x="222.396435" xlink:href="#mf359d5a775" y="138.466127"/>
     <use style="fill:#bcbd22;stroke:#bcbd22;" x="242.687344" xlink:href="#mf359d5a775" y="148.65545"/>
     <use style="fill:#bcbd22;stroke:#bcbd22;" x="262.978253" xlink:href="#mf359d5a775" y="156.71458"/>
     <use style="fill:#bcbd22;stroke:#bcbd22;" x="283.269162" xlink:href="#mf359d5a775" y="162.597519"/>
     <use style="fill:#bcbd22;stroke:#bcbd22;" x="303.560071" xlink:href="#mf359d5a775" y="148.192841"/>
     <use style="fill:#bcbd22;stroke:#bcbd22;" x="323.85098" xlink:href="#mf359d5a775" y="136.493164"/>
     <use style="fill:#bcbd22;stroke:#bcbd22;" x="344.141889" xlink:href="#mf359d5a775" y="127.240593"/>
     <use style="fill:#bcbd22;stroke:#bcbd22;" x="364.432798" xlink:href="#mf359d5a775" y="113.83241"/>
     <use style="fill:#bcbd22;stroke:#bcbd22;" x="384.723707" xlink:href="#mf359d5a775" y="110.13795"/>
    </g>
   </g>
   <g id="patch_3">
    <path d="M 64.127344 297.54825 
L 64.127344 31.43625 
" style="fill:none;stroke:#000000;stroke-linecap:square;stroke-linejoin:miter;stroke-width:0.8;"/>
   </g>
   <g id="patch_4">
    <path d="M 421.247344 297.54825 
L 421.247344 31.43625 
" style="fill:none;stroke:#000000;stroke-linecap:square;stroke-linejoin:miter;stroke-width:0.8;"/>
   </g>
   <g id="patch_5">
    <path d="M 64.127344 297.54825 
L 421.247344 297.54825 
" style="fill:none;stroke:#000000;stroke-linecap:square;stroke-linejoin:miter;stroke-width:0.8;"/>
   </g>
   <g id="patch_6">
    <path d="M 64.127344 31.43625 
L 421.247344 31.43625 
" style="fill:none;stroke:#000000;stroke-linecap:square;stroke-linejoin:miter;stroke-width:0.8;"/>
   </g>
   <g id="text_12">
    <!-- $62MHz\  5mW\  m_F=3$ -->
    <defs>
     <path d="M 36.1875 35.984375 
Q 31.25 35.984375 28.78125 32.78125 
Q 26.3125 29.59375 26.3125 23.1875 
Q 26.3125 16.796875 28.78125 13.59375 
Q 31.25 10.40625 36.1875 10.40625 
Q 41.15625 10.40625 43.625 13.59375 
Q 46.09375 16.796875 46.09375 23.1875 
Q 46.09375 29.59375 43.625 32.78125 
Q 41.15625 35.984375 36.1875 35.984375 
z
M 59.421875 71 
L 59.421875 57.515625 
Q 54.78125 59.71875 50.671875 60.765625 
Q 46.578125 61.8125 42.671875 61.8125 
Q 34.28125 61.8125 29.59375 57.140625 
Q 24.90625 52.484375 24.125 43.3125 
Q 27.34375 45.703125 31.09375 46.890625 
Q 34.859375 48.09375 39.3125 48.09375 
Q 50.484375 48.09375 57.34375 41.546875 
Q 64.203125 35.015625 64.203125 24.421875 
Q 64.203125 12.703125 56.53125 5.640625 
Q 48.875 -1.421875 35.984375 -1.421875 
Q 21.78125 -1.421875 13.984375 8.171875 
Q 6.203125 17.78125 6.203125 35.40625 
Q 6.203125 53.46875 15.3125 63.796875 
Q 24.421875 74.125 40.28125 74.125 
Q 45.3125 74.125 50.046875 73.34375 
Q 54.78125 72.5625 59.421875 71 
z
" id="DejaVuSans-Bold-36"/>
     <path d="M 16.3125 72.90625 
L 39.40625 72.90625 
L 48.78125 34.1875 
L 73.390625 72.90625 
L 97.40625 72.90625 
L 83.203125 0 
L 65.375 0 
L 75.78125 53.8125 
L 50.484375 14.015625 
L 40.375 14.015625 
L 30.328125 53.8125 
L 19.921875 0 
L 2.09375 0 
z
" id="DejaVuSans-BoldOblique-4d"/>
     <path d="M 16.3125 72.90625 
L 35.109375 72.90625 
L 29.6875 45.125 
L 57.421875 45.125 
L 62.796875 72.90625 
L 81.59375 72.90625 
L 67.390625 0 
L 48.578125 0 
L 54.59375 30.90625 
L 26.90625 30.90625 
L 20.90625 0 
L 2.09375 0 
z
" id="DejaVuSans-BoldOblique-48"/>
     <path d="M 10.890625 54.6875 
L 58.59375 54.6875 
L 56.203125 42.484375 
L 22.125 12.5 
L 50.390625 12.5 
L 48 0 
L -0.875 0 
L 1.421875 12.203125 
L 35.59375 42.1875 
L 8.5 42.1875 
z
" id="DejaVuSans-BoldOblique-7a"/>
     <path d="M 62.703125 45.609375 
Q 66.75 50.640625 71.890625 53.3125 
Q 77.046875 56 82.625 56 
Q 89.9375 56 94.15625 51.96875 
Q 98.390625 47.953125 98.390625 40.921875 
Q 98.390625 39.453125 98.171875 37.5625 
Q 97.953125 35.6875 97.515625 33.296875 
L 91.015625 0 
L 73.390625 0 
L 78.90625 28.515625 
L 79.046875 29.25 
Q 80.328125 35.296875 80.328125 37.015625 
Q 80.328125 39.703125 78.78125 41.265625 
Q 77.25 42.828125 74.609375 42.828125 
Q 69.578125 42.828125 66.078125 38.703125 
Q 62.59375 34.578125 61.078125 26.90625 
L 55.8125 0 
L 38.1875 0 
L 43.796875 28.515625 
Q 44.53125 32.171875 44.828125 34.046875 
Q 45.125 35.9375 45.125 37.015625 
Q 45.125 39.75 43.609375 41.28125 
Q 42.09375 42.828125 39.40625 42.828125 
Q 34.578125 42.828125 30.9375 38.546875 
Q 27.296875 34.28125 25.875 26.90625 
L 20.609375 0 
L 3.078125 0 
L 13.71875 54.6875 
L 31.296875 54.6875 
L 29.6875 46.6875 
Q 33.796875 51.3125 38.421875 53.65625 
Q 43.0625 56 48.09375 56 
Q 53.765625 56 57.8125 53.09375 
Q 61.859375 50.203125 62.703125 45.609375 
z
" id="DejaVuSans-BoldOblique-6d"/>
     <path d="M 10.6875 72.90625 
L 28.078125 72.90625 
L 30.328125 19.921875 
L 53.21875 72.90625 
L 71.09375 72.90625 
L 73.484375 19.921875 
L 95.609375 72.90625 
L 114.3125 72.90625 
L 82.90625 0 
L 61.625 0 
L 59.1875 55.421875 
L 35.59375 0 
L 13.8125 0 
z
" id="DejaVuSans-BoldOblique-57"/>
     <path d="M 16.3125 72.90625 
L 67 72.90625 
L 64.203125 58.6875 
L 32.328125 58.6875 
L 29.6875 45.125 
L 59.71875 45.125 
L 56.890625 30.90625 
L 26.90625 30.90625 
L 20.90625 0 
L 2.09375 0 
z
" id="DejaVuSans-BoldOblique-46"/>
     <path d="M 10.59375 48.1875 
L 73.1875 48.1875 
L 73.1875 36.71875 
L 10.59375 36.71875 
z
M 10.59375 25.984375 
L 73.1875 25.984375 
L 73.1875 14.40625 
L 10.59375 14.40625 
z
" id="DejaVuSans-Bold-3d"/>
     <path d="M 46.578125 39.3125 
Q 53.953125 37.40625 57.78125 32.6875 
Q 61.625 27.984375 61.625 20.703125 
Q 61.625 9.859375 53.3125 4.21875 
Q 45.015625 -1.421875 29.109375 -1.421875 
Q 23.484375 -1.421875 17.84375 -0.515625 
Q 12.203125 0.390625 6.6875 2.203125 
L 6.6875 16.703125 
Q 11.96875 14.0625 17.15625 12.71875 
Q 22.359375 11.375 27.390625 11.375 
Q 34.859375 11.375 38.84375 13.953125 
Q 42.828125 16.546875 42.828125 21.390625 
Q 42.828125 26.375 38.75 28.9375 
Q 34.671875 31.5 26.703125 31.5 
L 19.1875 31.5 
L 19.1875 43.609375 
L 27.09375 43.609375 
Q 34.1875 43.609375 37.640625 45.828125 
Q 41.109375 48.046875 41.109375 52.59375 
Q 41.109375 56.78125 37.734375 59.078125 
Q 34.375 61.375 28.21875 61.375 
Q 23.6875 61.375 19.046875 60.34375 
Q 14.40625 59.328125 9.8125 57.328125 
L 9.8125 71.09375 
Q 15.375 72.65625 20.84375 73.4375 
Q 26.3125 74.21875 31.59375 74.21875 
Q 45.796875 74.21875 52.84375 69.546875 
Q 59.90625 64.890625 59.90625 55.515625 
Q 59.90625 49.125 56.53125 45.046875 
Q 53.171875 40.96875 46.578125 39.3125 
z
" id="DejaVuSans-Bold-33"/>
    </defs>
    <g transform="translate(112.607344 25.43625)scale(0.24 -0.24)">
     <use transform="translate(0 0.78125)" xlink:href="#DejaVuSans-Bold-36"/>
     <use transform="translate(69.580078 0.78125)" xlink:href="#DejaVuSans-Bold-32"/>
     <use transform="translate(139.160156 0.78125)" xlink:href="#DejaVuSans-BoldOblique-4d"/>
     <use transform="translate(238.671875 0.78125)" xlink:href="#DejaVuSans-BoldOblique-48"/>
     <use transform="translate(322.363281 0.78125)" xlink:href="#DejaVuSans-BoldOblique-7a"/>
     <use transform="translate(415.299132 0.78125)" xlink:href="#DejaVuSans-Bold-35"/>
     <use transform="translate(484.87921 0.78125)" xlink:href="#DejaVuSans-BoldOblique-6d"/>
     <use transform="translate(589.078429 0.78125)" xlink:href="#DejaVuSans-BoldOblique-57"/>
     <use transform="translate(734.113889 0.78125)" xlink:href="#DejaVuSans-BoldOblique-6d"/>
     <use transform="translate(838.313107 -15.625)scale(0.7)" xlink:href="#DejaVuSans-BoldOblique-46"/>
     <use transform="translate(909.704709 0.78125)" xlink:href="#DejaVuSans-Bold-3d"/>
     <use transform="translate(1014.333615 0.78125)" xlink:href="#DejaVuSans-Bold-33"/>
    </g>
   </g>
  </g>
 </g>
 <defs>
  <clipPath id="p0ce84f744a">
   <rect height="266.112" width="357.12" x="64.127344" y="31.43625"/>
  </clipPath>
 </defs>
</svg>
