<?xml version="1.0" encoding="utf-8" standalone="no"?>
<!DOCTYPE svg PUBLIC "-//W3C//DTD SVG 1.1//EN"
  "http://www.w3.org/Graphics/SVG/1.1/DTD/svg11.dtd">
<!-- Created with matplotlib (http://matplotlib.org/) -->
<svg height="349pt" version="1.1" viewBox="0 0 431 349" width="431pt" xmlns="http://www.w3.org/2000/svg" xmlns:xlink="http://www.w3.org/1999/xlink">
 <defs>
  <style type="text/css">
*{stroke-linecap:butt;stroke-linejoin:round;}
  </style>
 </defs>
 <g id="figure_1">
  <g id="patch_1">
   <path d="M 0 349.621687 
L 431.947344 349.621687 
L 431.947344 0 
L 0 0 
z
" style="fill:none;"/>
  </g>
  <g id="axes_1">
   <g id="patch_2">
    <path d="M 64.127344 297.54825 
L 421.247344 297.54825 
L 421.247344 31.43625 
L 64.127344 31.43625 
z
" style="fill:none;"/>
   </g>
   <g id="matplotlib.axis_1">
    <g id="xtick_1">
     <g id="line2d_1">
      <path clip-path="url(#p2733d070c1)" d="M 64.127344 297.54825 
L 64.127344 31.43625 
" style="fill:none;stroke:#b0b0b0;stroke-linecap:square;stroke-width:0.8;"/>
     </g>
     <g id="line2d_2">
      <defs>
       <path d="M 0 0 
L 0 3.5 
" id="m005f0a59be" style="stroke:#000000;stroke-width:0.8;"/>
      </defs>
      <g>
       <use style="stroke:#000000;stroke-width:0.8;" x="64.127344" xlink:href="#m005f0a59be" y="297.54825"/>
      </g>
     </g>
     <g id="text_1">
      <!-- −100 -->
      <defs>
       <path d="M 10.59375 37.109375 
L 73.1875 37.109375 
L 73.1875 25.59375 
L 10.59375 25.59375 
z
" id="DejaVuSans-Bold-2212"/>
       <path d="M 11.71875 12.984375 
L 28.328125 12.984375 
L 28.328125 60.109375 
L 11.28125 56.59375 
L 11.28125 69.390625 
L 28.21875 72.90625 
L 46.09375 72.90625 
L 46.09375 12.984375 
L 62.703125 12.984375 
L 62.703125 0 
L 11.71875 0 
z
" id="DejaVuSans-Bold-31"/>
       <path d="M 46 36.53125 
Q 46 50.203125 43.4375 55.78125 
Q 40.875 61.375 34.8125 61.375 
Q 28.765625 61.375 26.171875 55.78125 
Q 23.578125 50.203125 23.578125 36.53125 
Q 23.578125 22.703125 26.171875 17.03125 
Q 28.765625 11.375 34.8125 11.375 
Q 40.828125 11.375 43.40625 17.03125 
Q 46 22.703125 46 36.53125 
z
M 64.796875 36.375 
Q 64.796875 18.265625 56.984375 8.421875 
Q 49.171875 -1.421875 34.8125 -1.421875 
Q 20.40625 -1.421875 12.59375 8.421875 
Q 4.78125 18.265625 4.78125 36.375 
Q 4.78125 54.546875 12.59375 64.375 
Q 20.40625 74.21875 34.8125 74.21875 
Q 49.171875 74.21875 56.984375 64.375 
Q 64.796875 54.546875 64.796875 36.375 
z
" id="DejaVuSans-Bold-30"/>
      </defs>
      <g transform="translate(42.1875 315.945906)scale(0.15 -0.15)">
       <use xlink:href="#DejaVuSans-Bold-2212"/>
       <use x="83.789062" xlink:href="#DejaVuSans-Bold-31"/>
       <use x="153.369141" xlink:href="#DejaVuSans-Bold-30"/>
       <use x="222.949219" xlink:href="#DejaVuSans-Bold-30"/>
      </g>
     </g>
    </g>
    <g id="xtick_2">
     <g id="line2d_3">
      <path clip-path="url(#p2733d070c1)" d="M 145.29098 297.54825 
L 145.29098 31.43625 
" style="fill:none;stroke:#b0b0b0;stroke-linecap:square;stroke-width:0.8;"/>
     </g>
     <g id="line2d_4">
      <g>
       <use style="stroke:#000000;stroke-width:0.8;" x="145.29098" xlink:href="#m005f0a59be" y="297.54825"/>
      </g>
     </g>
     <g id="text_2">
      <!-- −50 -->
      <defs>
       <path d="M 10.59375 72.90625 
L 57.328125 72.90625 
L 57.328125 59.078125 
L 25.59375 59.078125 
L 25.59375 47.796875 
Q 27.734375 48.390625 29.90625 48.703125 
Q 32.078125 49.03125 34.421875 49.03125 
Q 47.75 49.03125 55.171875 42.359375 
Q 62.59375 35.6875 62.59375 23.78125 
Q 62.59375 11.96875 54.515625 5.265625 
Q 46.4375 -1.421875 32.078125 -1.421875 
Q 25.875 -1.421875 19.796875 -0.21875 
Q 13.71875 0.984375 7.71875 3.421875 
L 7.71875 18.21875 
Q 13.671875 14.796875 19.015625 13.078125 
Q 24.359375 11.375 29.109375 11.375 
Q 35.9375 11.375 39.859375 14.71875 
Q 43.796875 18.0625 43.796875 23.78125 
Q 43.796875 29.546875 39.859375 32.859375 
Q 35.9375 36.1875 29.109375 36.1875 
Q 25.046875 36.1875 20.453125 35.125 
Q 15.875 34.078125 10.59375 31.890625 
z
" id="DejaVuSans-Bold-35"/>
      </defs>
      <g transform="translate(128.569496 315.945906)scale(0.15 -0.15)">
       <use xlink:href="#DejaVuSans-Bold-2212"/>
       <use x="83.789062" xlink:href="#DejaVuSans-Bold-35"/>
       <use x="153.369141" xlink:href="#DejaVuSans-Bold-30"/>
      </g>
     </g>
    </g>
    <g id="xtick_3">
     <g id="line2d_5">
      <path clip-path="url(#p2733d070c1)" d="M 226.454616 297.54825 
L 226.454616 31.43625 
" style="fill:none;stroke:#b0b0b0;stroke-linecap:square;stroke-width:0.8;"/>
     </g>
     <g id="line2d_6">
      <g>
       <use style="stroke:#000000;stroke-width:0.8;" x="226.454616" xlink:href="#m005f0a59be" y="297.54825"/>
      </g>
     </g>
     <g id="text_3">
      <!-- 0 -->
      <g transform="translate(221.236257 315.945906)scale(0.15 -0.15)">
       <use xlink:href="#DejaVuSans-Bold-30"/>
      </g>
     </g>
    </g>
    <g id="xtick_4">
     <g id="line2d_7">
      <path clip-path="url(#p2733d070c1)" d="M 307.618253 297.54825 
L 307.618253 31.43625 
" style="fill:none;stroke:#b0b0b0;stroke-linecap:square;stroke-width:0.8;"/>
     </g>
     <g id="line2d_8">
      <g>
       <use style="stroke:#000000;stroke-width:0.8;" x="307.618253" xlink:href="#m005f0a59be" y="297.54825"/>
      </g>
     </g>
     <g id="text_4">
      <!-- 50 -->
      <g transform="translate(297.181534 315.945906)scale(0.15 -0.15)">
       <use xlink:href="#DejaVuSans-Bold-35"/>
       <use x="69.580078" xlink:href="#DejaVuSans-Bold-30"/>
      </g>
     </g>
    </g>
    <g id="xtick_5">
     <g id="line2d_9">
      <path clip-path="url(#p2733d070c1)" d="M 388.781889 297.54825 
L 388.781889 31.43625 
" style="fill:none;stroke:#b0b0b0;stroke-linecap:square;stroke-width:0.8;"/>
     </g>
     <g id="line2d_10">
      <g>
       <use style="stroke:#000000;stroke-width:0.8;" x="388.781889" xlink:href="#m005f0a59be" y="297.54825"/>
      </g>
     </g>
     <g id="text_5">
      <!-- 100 -->
      <g transform="translate(373.126811 315.945906)scale(0.15 -0.15)">
       <use xlink:href="#DejaVuSans-Bold-31"/>
       <use x="69.580078" xlink:href="#DejaVuSans-Bold-30"/>
       <use x="139.160156" xlink:href="#DejaVuSans-Bold-30"/>
      </g>
     </g>
    </g>
    <g id="text_6">
     <!-- Detuning (kHz) -->
     <defs>
      <path d="M 19.671875 64.796875 
L 19.671875 8.109375 
L 31.59375 8.109375 
Q 46.6875 8.109375 53.6875 14.9375 
Q 60.6875 21.78125 60.6875 36.53125 
Q 60.6875 51.171875 53.6875 57.984375 
Q 46.6875 64.796875 31.59375 64.796875 
z
M 9.8125 72.90625 
L 30.078125 72.90625 
Q 51.265625 72.90625 61.171875 64.09375 
Q 71.09375 55.28125 71.09375 36.53125 
Q 71.09375 17.671875 61.125 8.828125 
Q 51.171875 0 30.078125 0 
L 9.8125 0 
z
" id="DejaVuSans-44"/>
      <path d="M 56.203125 29.59375 
L 56.203125 25.203125 
L 14.890625 25.203125 
Q 15.484375 15.921875 20.484375 11.0625 
Q 25.484375 6.203125 34.421875 6.203125 
Q 39.59375 6.203125 44.453125 7.46875 
Q 49.3125 8.734375 54.109375 11.28125 
L 54.109375 2.78125 
Q 49.265625 0.734375 44.1875 -0.34375 
Q 39.109375 -1.421875 33.890625 -1.421875 
Q 20.796875 -1.421875 13.15625 6.1875 
Q 5.515625 13.8125 5.515625 26.8125 
Q 5.515625 40.234375 12.765625 48.109375 
Q 20.015625 56 32.328125 56 
Q 43.359375 56 49.78125 48.890625 
Q 56.203125 41.796875 56.203125 29.59375 
z
M 47.21875 32.234375 
Q 47.125 39.59375 43.09375 43.984375 
Q 39.0625 48.390625 32.421875 48.390625 
Q 24.90625 48.390625 20.390625 44.140625 
Q 15.875 39.890625 15.1875 32.171875 
z
" id="DejaVuSans-65"/>
      <path d="M 18.3125 70.21875 
L 18.3125 54.6875 
L 36.8125 54.6875 
L 36.8125 47.703125 
L 18.3125 47.703125 
L 18.3125 18.015625 
Q 18.3125 11.328125 20.140625 9.421875 
Q 21.96875 7.515625 27.59375 7.515625 
L 36.8125 7.515625 
L 36.8125 0 
L 27.59375 0 
Q 17.1875 0 13.234375 3.875 
Q 9.28125 7.765625 9.28125 18.015625 
L 9.28125 47.703125 
L 2.6875 47.703125 
L 2.6875 54.6875 
L 9.28125 54.6875 
L 9.28125 70.21875 
z
" id="DejaVuSans-74"/>
      <path d="M 8.5 21.578125 
L 8.5 54.6875 
L 17.484375 54.6875 
L 17.484375 21.921875 
Q 17.484375 14.15625 20.5 10.265625 
Q 23.53125 6.390625 29.59375 6.390625 
Q 36.859375 6.390625 41.078125 11.03125 
Q 45.3125 15.671875 45.3125 23.6875 
L 45.3125 54.6875 
L 54.296875 54.6875 
L 54.296875 0 
L 45.3125 0 
L 45.3125 8.40625 
Q 42.046875 3.421875 37.71875 1 
Q 33.40625 -1.421875 27.6875 -1.421875 
Q 18.265625 -1.421875 13.375 4.4375 
Q 8.5 10.296875 8.5 21.578125 
z
M 31.109375 56 
z
" id="DejaVuSans-75"/>
      <path d="M 54.890625 33.015625 
L 54.890625 0 
L 45.90625 0 
L 45.90625 32.71875 
Q 45.90625 40.484375 42.875 44.328125 
Q 39.84375 48.1875 33.796875 48.1875 
Q 26.515625 48.1875 22.3125 43.546875 
Q 18.109375 38.921875 18.109375 30.90625 
L 18.109375 0 
L 9.078125 0 
L 9.078125 54.6875 
L 18.109375 54.6875 
L 18.109375 46.1875 
Q 21.34375 51.125 25.703125 53.5625 
Q 30.078125 56 35.796875 56 
Q 45.21875 56 50.046875 50.171875 
Q 54.890625 44.34375 54.890625 33.015625 
z
" id="DejaVuSans-6e"/>
      <path d="M 9.421875 54.6875 
L 18.40625 54.6875 
L 18.40625 0 
L 9.421875 0 
z
M 9.421875 75.984375 
L 18.40625 75.984375 
L 18.40625 64.59375 
L 9.421875 64.59375 
z
" id="DejaVuSans-69"/>
      <path d="M 45.40625 27.984375 
Q 45.40625 37.75 41.375 43.109375 
Q 37.359375 48.484375 30.078125 48.484375 
Q 22.859375 48.484375 18.828125 43.109375 
Q 14.796875 37.75 14.796875 27.984375 
Q 14.796875 18.265625 18.828125 12.890625 
Q 22.859375 7.515625 30.078125 7.515625 
Q 37.359375 7.515625 41.375 12.890625 
Q 45.40625 18.265625 45.40625 27.984375 
z
M 54.390625 6.78125 
Q 54.390625 -7.171875 48.1875 -13.984375 
Q 42 -20.796875 29.203125 -20.796875 
Q 24.46875 -20.796875 20.265625 -20.09375 
Q 16.0625 -19.390625 12.109375 -17.921875 
L 12.109375 -9.1875 
Q 16.0625 -11.328125 19.921875 -12.34375 
Q 23.78125 -13.375 27.78125 -13.375 
Q 36.625 -13.375 41.015625 -8.765625 
Q 45.40625 -4.15625 45.40625 5.171875 
L 45.40625 9.625 
Q 42.625 4.78125 38.28125 2.390625 
Q 33.9375 0 27.875 0 
Q 17.828125 0 11.671875 7.65625 
Q 5.515625 15.328125 5.515625 27.984375 
Q 5.515625 40.671875 11.671875 48.328125 
Q 17.828125 56 27.875 56 
Q 33.9375 56 38.28125 53.609375 
Q 42.625 51.21875 45.40625 46.390625 
L 45.40625 54.6875 
L 54.390625 54.6875 
z
" id="DejaVuSans-67"/>
      <path id="DejaVuSans-20"/>
      <path d="M 31 75.875 
Q 24.46875 64.65625 21.28125 53.65625 
Q 18.109375 42.671875 18.109375 31.390625 
Q 18.109375 20.125 21.3125 9.0625 
Q 24.515625 -2 31 -13.1875 
L 23.1875 -13.1875 
Q 15.875 -1.703125 12.234375 9.375 
Q 8.59375 20.453125 8.59375 31.390625 
Q 8.59375 42.28125 12.203125 53.3125 
Q 15.828125 64.359375 23.1875 75.875 
z
" id="DejaVuSans-28"/>
      <path d="M 9.078125 75.984375 
L 18.109375 75.984375 
L 18.109375 31.109375 
L 44.921875 54.6875 
L 56.390625 54.6875 
L 27.390625 29.109375 
L 57.625 0 
L 45.90625 0 
L 18.109375 26.703125 
L 18.109375 0 
L 9.078125 0 
z
" id="DejaVuSans-6b"/>
      <path d="M 9.8125 72.90625 
L 19.671875 72.90625 
L 19.671875 43.015625 
L 55.515625 43.015625 
L 55.515625 72.90625 
L 65.375 72.90625 
L 65.375 0 
L 55.515625 0 
L 55.515625 34.71875 
L 19.671875 34.71875 
L 19.671875 0 
L 9.8125 0 
z
" id="DejaVuSans-48"/>
      <path d="M 5.515625 54.6875 
L 48.1875 54.6875 
L 48.1875 46.484375 
L 14.40625 7.171875 
L 48.1875 7.171875 
L 48.1875 0 
L 4.296875 0 
L 4.296875 8.203125 
L 38.09375 47.515625 
L 5.515625 47.515625 
z
" id="DejaVuSans-7a"/>
      <path d="M 8.015625 75.875 
L 15.828125 75.875 
Q 23.140625 64.359375 26.78125 53.3125 
Q 30.421875 42.28125 30.421875 31.390625 
Q 30.421875 20.453125 26.78125 9.375 
Q 23.140625 -1.703125 15.828125 -13.1875 
L 8.015625 -13.1875 
Q 14.5 -2 17.703125 9.0625 
Q 20.90625 20.125 20.90625 31.390625 
Q 20.90625 42.671875 17.703125 53.65625 
Q 14.5 64.65625 8.015625 75.875 
z
" id="DejaVuSans-29"/>
     </defs>
     <g transform="translate(167.234219 338.262312)scale(0.2 -0.2)">
      <use xlink:href="#DejaVuSans-44"/>
      <use x="77.001953" xlink:href="#DejaVuSans-65"/>
      <use x="138.525391" xlink:href="#DejaVuSans-74"/>
      <use x="177.734375" xlink:href="#DejaVuSans-75"/>
      <use x="241.113281" xlink:href="#DejaVuSans-6e"/>
      <use x="304.492188" xlink:href="#DejaVuSans-69"/>
      <use x="332.275391" xlink:href="#DejaVuSans-6e"/>
      <use x="395.654297" xlink:href="#DejaVuSans-67"/>
      <use x="459.130859" xlink:href="#DejaVuSans-20"/>
      <use x="490.917969" xlink:href="#DejaVuSans-28"/>
      <use x="529.931641" xlink:href="#DejaVuSans-6b"/>
      <use x="587.841797" xlink:href="#DejaVuSans-48"/>
      <use x="663.037109" xlink:href="#DejaVuSans-7a"/>
      <use x="715.527344" xlink:href="#DejaVuSans-29"/>
     </g>
    </g>
   </g>
   <g id="matplotlib.axis_2">
    <g id="ytick_1">
     <g id="line2d_11">
      <path clip-path="url(#p2733d070c1)" d="M 64.127344 297.54825 
L 421.247344 297.54825 
" style="fill:none;stroke:#b0b0b0;stroke-linecap:square;stroke-width:0.8;"/>
     </g>
     <g id="line2d_12">
      <defs>
       <path d="M 0 0 
L -3.5 0 
" id="mc3ce260a5b" style="stroke:#000000;stroke-width:0.8;"/>
      </defs>
      <g>
       <use style="stroke:#000000;stroke-width:0.8;" x="64.127344" xlink:href="#mc3ce260a5b" y="297.54825"/>
      </g>
     </g>
     <g id="text_7">
      <!-- 0.0 -->
      <defs>
       <path d="M 10.203125 18.890625 
L 27.78125 18.890625 
L 27.78125 0 
L 10.203125 0 
z
" id="DejaVuSans-Bold-2e"/>
      </defs>
      <g transform="translate(30.55625 303.247078)scale(0.15 -0.15)">
       <use xlink:href="#DejaVuSans-Bold-30"/>
       <use x="69.580078" xlink:href="#DejaVuSans-Bold-2e"/>
       <use x="107.568359" xlink:href="#DejaVuSans-Bold-30"/>
      </g>
     </g>
    </g>
    <g id="ytick_2">
     <g id="line2d_13">
      <path clip-path="url(#p2733d070c1)" d="M 64.127344 237.06825 
L 421.247344 237.06825 
" style="fill:none;stroke:#b0b0b0;stroke-linecap:square;stroke-width:0.8;"/>
     </g>
     <g id="line2d_14">
      <g>
       <use style="stroke:#000000;stroke-width:0.8;" x="64.127344" xlink:href="#mc3ce260a5b" y="237.06825"/>
      </g>
     </g>
     <g id="text_8">
      <!-- 0.5 -->
      <g transform="translate(30.55625 242.767078)scale(0.15 -0.15)">
       <use xlink:href="#DejaVuSans-Bold-30"/>
       <use x="69.580078" xlink:href="#DejaVuSans-Bold-2e"/>
       <use x="107.568359" xlink:href="#DejaVuSans-Bold-35"/>
      </g>
     </g>
    </g>
    <g id="ytick_3">
     <g id="line2d_15">
      <path clip-path="url(#p2733d070c1)" d="M 64.127344 176.58825 
L 421.247344 176.58825 
" style="fill:none;stroke:#b0b0b0;stroke-linecap:square;stroke-width:0.8;"/>
     </g>
     <g id="line2d_16">
      <g>
       <use style="stroke:#000000;stroke-width:0.8;" x="64.127344" xlink:href="#mc3ce260a5b" y="176.58825"/>
      </g>
     </g>
     <g id="text_9">
      <!-- 1.0 -->
      <g transform="translate(30.55625 182.287078)scale(0.15 -0.15)">
       <use xlink:href="#DejaVuSans-Bold-31"/>
       <use x="69.580078" xlink:href="#DejaVuSans-Bold-2e"/>
       <use x="107.568359" xlink:href="#DejaVuSans-Bold-30"/>
      </g>
     </g>
    </g>
    <g id="ytick_4">
     <g id="line2d_17">
      <path clip-path="url(#p2733d070c1)" d="M 64.127344 116.10825 
L 421.247344 116.10825 
" style="fill:none;stroke:#b0b0b0;stroke-linecap:square;stroke-width:0.8;"/>
     </g>
     <g id="line2d_18">
      <g>
       <use style="stroke:#000000;stroke-width:0.8;" x="64.127344" xlink:href="#mc3ce260a5b" y="116.10825"/>
      </g>
     </g>
     <g id="text_10">
      <!-- 1.5 -->
      <g transform="translate(30.55625 121.807078)scale(0.15 -0.15)">
       <use xlink:href="#DejaVuSans-Bold-31"/>
       <use x="69.580078" xlink:href="#DejaVuSans-Bold-2e"/>
       <use x="107.568359" xlink:href="#DejaVuSans-Bold-35"/>
      </g>
     </g>
    </g>
    <g id="ytick_5">
     <g id="line2d_19">
      <path clip-path="url(#p2733d070c1)" d="M 64.127344 55.62825 
L 421.247344 55.62825 
" style="fill:none;stroke:#b0b0b0;stroke-linecap:square;stroke-width:0.8;"/>
     </g>
     <g id="line2d_20">
      <g>
       <use style="stroke:#000000;stroke-width:0.8;" x="64.127344" xlink:href="#mc3ce260a5b" y="55.62825"/>
      </g>
     </g>
     <g id="text_11">
      <!-- 2.0 -->
      <defs>
       <path d="M 28.8125 13.8125 
L 60.890625 13.8125 
L 60.890625 0 
L 7.90625 0 
L 7.90625 13.8125 
L 34.515625 37.3125 
Q 38.09375 40.53125 39.796875 43.609375 
Q 41.5 46.6875 41.5 50 
Q 41.5 55.125 38.0625 58.25 
Q 34.625 61.375 28.90625 61.375 
Q 24.515625 61.375 19.28125 59.5 
Q 14.0625 57.625 8.109375 53.90625 
L 8.109375 69.921875 
Q 14.453125 72.015625 20.65625 73.109375 
Q 26.859375 74.21875 32.8125 74.21875 
Q 45.90625 74.21875 53.15625 68.453125 
Q 60.40625 62.703125 60.40625 52.390625 
Q 60.40625 46.4375 57.328125 41.28125 
Q 54.25 36.140625 44.390625 27.484375 
z
" id="DejaVuSans-Bold-32"/>
      </defs>
      <g transform="translate(30.55625 61.327078)scale(0.15 -0.15)">
       <use xlink:href="#DejaVuSans-Bold-32"/>
       <use x="69.580078" xlink:href="#DejaVuSans-Bold-2e"/>
       <use x="107.568359" xlink:href="#DejaVuSans-Bold-30"/>
      </g>
     </g>
    </g>
    <g id="text_12">
     <!-- Survival (shifted) -->
     <defs>
      <path d="M 53.515625 70.515625 
L 53.515625 60.890625 
Q 47.90625 63.578125 42.921875 64.890625 
Q 37.9375 66.21875 33.296875 66.21875 
Q 25.25 66.21875 20.875 63.09375 
Q 16.5 59.96875 16.5 54.203125 
Q 16.5 49.359375 19.40625 46.890625 
Q 22.3125 44.4375 30.421875 42.921875 
L 36.375 41.703125 
Q 47.40625 39.59375 52.65625 34.296875 
Q 57.90625 29 57.90625 20.125 
Q 57.90625 9.515625 50.796875 4.046875 
Q 43.703125 -1.421875 29.984375 -1.421875 
Q 24.8125 -1.421875 18.96875 -0.25 
Q 13.140625 0.921875 6.890625 3.21875 
L 6.890625 13.375 
Q 12.890625 10.015625 18.65625 8.296875 
Q 24.421875 6.59375 29.984375 6.59375 
Q 38.421875 6.59375 43.015625 9.90625 
Q 47.609375 13.234375 47.609375 19.390625 
Q 47.609375 24.75 44.3125 27.78125 
Q 41.015625 30.8125 33.5 32.328125 
L 27.484375 33.5 
Q 16.453125 35.6875 11.515625 40.375 
Q 6.59375 45.0625 6.59375 53.421875 
Q 6.59375 63.09375 13.40625 68.65625 
Q 20.21875 74.21875 32.171875 74.21875 
Q 37.3125 74.21875 42.625 73.28125 
Q 47.953125 72.359375 53.515625 70.515625 
z
" id="DejaVuSans-53"/>
      <path d="M 41.109375 46.296875 
Q 39.59375 47.171875 37.8125 47.578125 
Q 36.03125 48 33.890625 48 
Q 26.265625 48 22.1875 43.046875 
Q 18.109375 38.09375 18.109375 28.8125 
L 18.109375 0 
L 9.078125 0 
L 9.078125 54.6875 
L 18.109375 54.6875 
L 18.109375 46.1875 
Q 20.953125 51.171875 25.484375 53.578125 
Q 30.03125 56 36.53125 56 
Q 37.453125 56 38.578125 55.875 
Q 39.703125 55.765625 41.0625 55.515625 
z
" id="DejaVuSans-72"/>
      <path d="M 2.984375 54.6875 
L 12.5 54.6875 
L 29.59375 8.796875 
L 46.6875 54.6875 
L 56.203125 54.6875 
L 35.6875 0 
L 23.484375 0 
z
" id="DejaVuSans-76"/>
      <path d="M 34.28125 27.484375 
Q 23.390625 27.484375 19.1875 25 
Q 14.984375 22.515625 14.984375 16.5 
Q 14.984375 11.71875 18.140625 8.90625 
Q 21.296875 6.109375 26.703125 6.109375 
Q 34.1875 6.109375 38.703125 11.40625 
Q 43.21875 16.703125 43.21875 25.484375 
L 43.21875 27.484375 
z
M 52.203125 31.203125 
L 52.203125 0 
L 43.21875 0 
L 43.21875 8.296875 
Q 40.140625 3.328125 35.546875 0.953125 
Q 30.953125 -1.421875 24.3125 -1.421875 
Q 15.921875 -1.421875 10.953125 3.296875 
Q 6 8.015625 6 15.921875 
Q 6 25.140625 12.171875 29.828125 
Q 18.359375 34.515625 30.609375 34.515625 
L 43.21875 34.515625 
L 43.21875 35.40625 
Q 43.21875 41.609375 39.140625 45 
Q 35.0625 48.390625 27.6875 48.390625 
Q 23 48.390625 18.546875 47.265625 
Q 14.109375 46.140625 10.015625 43.890625 
L 10.015625 52.203125 
Q 14.9375 54.109375 19.578125 55.046875 
Q 24.21875 56 28.609375 56 
Q 40.484375 56 46.34375 49.84375 
Q 52.203125 43.703125 52.203125 31.203125 
z
" id="DejaVuSans-61"/>
      <path d="M 9.421875 75.984375 
L 18.40625 75.984375 
L 18.40625 0 
L 9.421875 0 
z
" id="DejaVuSans-6c"/>
      <path d="M 44.28125 53.078125 
L 44.28125 44.578125 
Q 40.484375 46.53125 36.375 47.5 
Q 32.28125 48.484375 27.875 48.484375 
Q 21.1875 48.484375 17.84375 46.4375 
Q 14.5 44.390625 14.5 40.28125 
Q 14.5 37.15625 16.890625 35.375 
Q 19.28125 33.59375 26.515625 31.984375 
L 29.59375 31.296875 
Q 39.15625 29.25 43.1875 25.515625 
Q 47.21875 21.78125 47.21875 15.09375 
Q 47.21875 7.46875 41.1875 3.015625 
Q 35.15625 -1.421875 24.609375 -1.421875 
Q 20.21875 -1.421875 15.453125 -0.5625 
Q 10.6875 0.296875 5.421875 2 
L 5.421875 11.28125 
Q 10.40625 8.6875 15.234375 7.390625 
Q 20.0625 6.109375 24.8125 6.109375 
Q 31.15625 6.109375 34.5625 8.28125 
Q 37.984375 10.453125 37.984375 14.40625 
Q 37.984375 18.0625 35.515625 20.015625 
Q 33.0625 21.96875 24.703125 23.78125 
L 21.578125 24.515625 
Q 13.234375 26.265625 9.515625 29.90625 
Q 5.8125 33.546875 5.8125 39.890625 
Q 5.8125 47.609375 11.28125 51.796875 
Q 16.75 56 26.8125 56 
Q 31.78125 56 36.171875 55.265625 
Q 40.578125 54.546875 44.28125 53.078125 
z
" id="DejaVuSans-73"/>
      <path d="M 54.890625 33.015625 
L 54.890625 0 
L 45.90625 0 
L 45.90625 32.71875 
Q 45.90625 40.484375 42.875 44.328125 
Q 39.84375 48.1875 33.796875 48.1875 
Q 26.515625 48.1875 22.3125 43.546875 
Q 18.109375 38.921875 18.109375 30.90625 
L 18.109375 0 
L 9.078125 0 
L 9.078125 75.984375 
L 18.109375 75.984375 
L 18.109375 46.1875 
Q 21.34375 51.125 25.703125 53.5625 
Q 30.078125 56 35.796875 56 
Q 45.21875 56 50.046875 50.171875 
Q 54.890625 44.34375 54.890625 33.015625 
z
" id="DejaVuSans-68"/>
      <path d="M 37.109375 75.984375 
L 37.109375 68.5 
L 28.515625 68.5 
Q 23.6875 68.5 21.796875 66.546875 
Q 19.921875 64.59375 19.921875 59.515625 
L 19.921875 54.6875 
L 34.71875 54.6875 
L 34.71875 47.703125 
L 19.921875 47.703125 
L 19.921875 0 
L 10.890625 0 
L 10.890625 47.703125 
L 2.296875 47.703125 
L 2.296875 54.6875 
L 10.890625 54.6875 
L 10.890625 58.5 
Q 10.890625 67.625 15.140625 71.796875 
Q 19.390625 75.984375 28.609375 75.984375 
z
" id="DejaVuSans-66"/>
      <path d="M 45.40625 46.390625 
L 45.40625 75.984375 
L 54.390625 75.984375 
L 54.390625 0 
L 45.40625 0 
L 45.40625 8.203125 
Q 42.578125 3.328125 38.25 0.953125 
Q 33.9375 -1.421875 27.875 -1.421875 
Q 17.96875 -1.421875 11.734375 6.484375 
Q 5.515625 14.40625 5.515625 27.296875 
Q 5.515625 40.1875 11.734375 48.09375 
Q 17.96875 56 27.875 56 
Q 33.9375 56 38.25 53.625 
Q 42.578125 51.265625 45.40625 46.390625 
z
M 14.796875 27.296875 
Q 14.796875 17.390625 18.875 11.75 
Q 22.953125 6.109375 30.078125 6.109375 
Q 37.203125 6.109375 41.296875 11.75 
Q 45.40625 17.390625 45.40625 27.296875 
Q 45.40625 37.203125 41.296875 42.84375 
Q 37.203125 48.484375 30.078125 48.484375 
Q 22.953125 48.484375 18.875 42.84375 
Q 14.796875 37.203125 14.796875 27.296875 
z
" id="DejaVuSans-64"/>
     </defs>
     <g transform="translate(22.396875 250.057875)rotate(-90)scale(0.2 -0.2)">
      <use xlink:href="#DejaVuSans-53"/>
      <use x="63.476562" xlink:href="#DejaVuSans-75"/>
      <use x="126.855469" xlink:href="#DejaVuSans-72"/>
      <use x="167.96875" xlink:href="#DejaVuSans-76"/>
      <use x="227.148438" xlink:href="#DejaVuSans-69"/>
      <use x="254.931641" xlink:href="#DejaVuSans-76"/>
      <use x="314.111328" xlink:href="#DejaVuSans-61"/>
      <use x="375.390625" xlink:href="#DejaVuSans-6c"/>
      <use x="403.173828" xlink:href="#DejaVuSans-20"/>
      <use x="434.960938" xlink:href="#DejaVuSans-28"/>
      <use x="473.974609" xlink:href="#DejaVuSans-73"/>
      <use x="526.074219" xlink:href="#DejaVuSans-68"/>
      <use x="589.453125" xlink:href="#DejaVuSans-69"/>
      <use x="617.236328" xlink:href="#DejaVuSans-66"/>
      <use x="652.425781" xlink:href="#DejaVuSans-74"/>
      <use x="691.634766" xlink:href="#DejaVuSans-65"/>
      <use x="753.158203" xlink:href="#DejaVuSans-64"/>
      <use x="816.634766" xlink:href="#DejaVuSans-29"/>
     </g>
    </g>
   </g>
   <g id="LineCollection_1">
    <path clip-path="url(#p2733d070c1)" d="M 96.592798 295.529867 
L 96.592798 292.708076 
" style="fill:none;stroke:#1f77b4;stroke-width:1.5;"/>
    <path clip-path="url(#p2733d070c1)" d="M 112.825526 288.99902 
L 112.825526 283.797592 
" style="fill:none;stroke:#1f77b4;stroke-width:1.5;"/>
    <path clip-path="url(#p2733d070c1)" d="M 129.058253 289.945909 
L 129.058253 285.098399 
" style="fill:none;stroke:#1f77b4;stroke-width:1.5;"/>
    <path clip-path="url(#p2733d070c1)" d="M 145.29098 288.158797 
L 145.29098 282.875768 
" style="fill:none;stroke:#1f77b4;stroke-width:1.5;"/>
    <path clip-path="url(#p2733d070c1)" d="M 161.523707 286.576961 
L 161.523707 281.166775 
" style="fill:none;stroke:#1f77b4;stroke-width:1.5;"/>
    <path clip-path="url(#p2733d070c1)" d="M 177.756435 296.9037 
L 177.756435 294.9928 
" style="fill:none;stroke:#1f77b4;stroke-width:1.5;"/>
    <path clip-path="url(#p2733d070c1)" d="M 193.989162 295.866691 
L 193.989162 293.079301 
" style="fill:none;stroke:#1f77b4;stroke-width:1.5;"/>
    <path clip-path="url(#p2733d070c1)" d="M 210.221889 289.66908 
L 210.221889 284.851749 
" style="fill:none;stroke:#1f77b4;stroke-width:1.5;"/>
    <path clip-path="url(#p2733d070c1)" d="M 226.454616 272.45792 
L 226.454616 265.008423 
" style="fill:none;stroke:#1f77b4;stroke-width:1.5;"/>
    <path clip-path="url(#p2733d070c1)" d="M 242.687344 248.287265 
L 242.687344 239.637422 
" style="fill:none;stroke:#1f77b4;stroke-width:1.5;"/>
    <path clip-path="url(#p2733d070c1)" d="M 258.920071 225.746065 
L 258.920071 217.37505 
" style="fill:none;stroke:#1f77b4;stroke-width:1.5;"/>
    <path clip-path="url(#p2733d070c1)" d="M 275.152798 208.795743 
L 275.152798 201.483701 
" style="fill:none;stroke:#1f77b4;stroke-width:1.5;"/>
    <path clip-path="url(#p2733d070c1)" d="M 291.385526 206.46761 
L 291.385526 199.480654 
" style="fill:none;stroke:#1f77b4;stroke-width:1.5;"/>
    <path clip-path="url(#p2733d070c1)" d="M 307.618253 209.120274 
L 307.618253 201.744841 
" style="fill:none;stroke:#1f77b4;stroke-width:1.5;"/>
    <path clip-path="url(#p2733d070c1)" d="M 323.85098 231.890347 
L 323.85098 223.2472 
" style="fill:none;stroke:#1f77b4;stroke-width:1.5;"/>
    <path clip-path="url(#p2733d070c1)" d="M 340.083707 257.500322 
L 340.083707 249.468178 
" style="fill:none;stroke:#1f77b4;stroke-width:1.5;"/>
    <path clip-path="url(#p2733d070c1)" d="M 356.316435 284.208905 
L 356.316435 278.345057 
" style="fill:none;stroke:#1f77b4;stroke-width:1.5;"/>
    <path clip-path="url(#p2733d070c1)" d="M 372.549162 295.560873 
L 372.549162 292.781516 
" style="fill:none;stroke:#1f77b4;stroke-width:1.5;"/>
    <path clip-path="url(#p2733d070c1)" d="M 388.781889 295.827448 
L 388.781889 292.976335 
" style="fill:none;stroke:#1f77b4;stroke-width:1.5;"/>
   </g>
   <g id="LineCollection_2">
    <path clip-path="url(#p2733d070c1)" d="M 96.592798 269.428994 
L 96.592798 265.849476 
" style="fill:none;stroke:#ff7f0e;stroke-width:1.5;"/>
    <path clip-path="url(#p2733d070c1)" d="M 112.825526 263.487505 
L 112.825526 258.132229 
" style="fill:none;stroke:#ff7f0e;stroke-width:1.5;"/>
    <path clip-path="url(#p2733d070c1)" d="M 129.058253 264.44942 
L 129.058253 259.58308 
" style="fill:none;stroke:#ff7f0e;stroke-width:1.5;"/>
    <path clip-path="url(#p2733d070c1)" d="M 145.29098 268.448483 
L 145.29098 264.559189 
" style="fill:none;stroke:#ff7f0e;stroke-width:1.5;"/>
    <path clip-path="url(#p2733d070c1)" d="M 161.523707 271.418485 
L 161.523707 268.707084 
" style="fill:none;stroke:#ff7f0e;stroke-width:1.5;"/>
    <path clip-path="url(#p2733d070c1)" d="M 177.756435 269.676832 
L 177.756435 266.039305 
" style="fill:none;stroke:#ff7f0e;stroke-width:1.5;"/>
    <path clip-path="url(#p2733d070c1)" d="M 193.989162 269.900959 
L 193.989162 266.478275 
" style="fill:none;stroke:#ff7f0e;stroke-width:1.5;"/>
    <path clip-path="url(#p2733d070c1)" d="M 210.221889 258.805469 
L 210.221889 252.729888 
" style="fill:none;stroke:#ff7f0e;stroke-width:1.5;"/>
    <path clip-path="url(#p2733d070c1)" d="M 226.454616 245.496119 
L 226.454616 238.081162 
" style="fill:none;stroke:#ff7f0e;stroke-width:1.5;"/>
    <path clip-path="url(#p2733d070c1)" d="M 242.687344 207.880217 
L 242.687344 198.951166 
" style="fill:none;stroke:#ff7f0e;stroke-width:1.5;"/>
    <path clip-path="url(#p2733d070c1)" d="M 258.920071 188.456261 
L 258.920071 180.966828 
" style="fill:none;stroke:#ff7f0e;stroke-width:1.5;"/>
    <path clip-path="url(#p2733d070c1)" d="M 275.152798 179.583748 
L 275.152798 172.728752 
" style="fill:none;stroke:#ff7f0e;stroke-width:1.5;"/>
    <path clip-path="url(#p2733d070c1)" d="M 291.385526 184.928274 
L 291.385526 177.552841 
" style="fill:none;stroke:#ff7f0e;stroke-width:1.5;"/>
    <path clip-path="url(#p2733d070c1)" d="M 307.618253 207.533984 
L 307.618253 199.150929 
" style="fill:none;stroke:#ff7f0e;stroke-width:1.5;"/>
    <path clip-path="url(#p2733d070c1)" d="M 323.85098 225.131101 
L 323.85098 216.313507 
" style="fill:none;stroke:#ff7f0e;stroke-width:1.5;"/>
    <path clip-path="url(#p2733d070c1)" d="M 340.083707 254.870918 
L 340.083707 248.034447 
" style="fill:none;stroke:#ff7f0e;stroke-width:1.5;"/>
    <path clip-path="url(#p2733d070c1)" d="M 356.316435 267.821579 
L 356.316435 263.694941 
" style="fill:none;stroke:#ff7f0e;stroke-width:1.5;"/>
    <path clip-path="url(#p2733d070c1)" d="M 372.549162 271.79072 
L 372.549162 269.192095 
" style="fill:none;stroke:#ff7f0e;stroke-width:1.5;"/>
    <path clip-path="url(#p2733d070c1)" d="M 388.781889 271.227144 
L 388.781889 268.254052 
" style="fill:none;stroke:#ff7f0e;stroke-width:1.5;"/>
   </g>
   <g id="LineCollection_3">
    <path clip-path="url(#p2733d070c1)" d="M 96.592798 245.484832 
L 96.592798 241.847305 
" style="fill:none;stroke:#2ca02c;stroke-width:1.5;"/>
    <path clip-path="url(#p2733d070c1)" d="M 112.825526 240.167556 
L 112.825526 235.091253 
" style="fill:none;stroke:#2ca02c;stroke-width:1.5;"/>
    <path clip-path="url(#p2733d070c1)" d="M 129.058253 240.804601 
L 129.058253 235.71144 
" style="fill:none;stroke:#2ca02c;stroke-width:1.5;"/>
    <path clip-path="url(#p2733d070c1)" d="M 145.29098 241.683576 
L 145.29098 236.909345 
" style="fill:none;stroke:#2ca02c;stroke-width:1.5;"/>
    <path clip-path="url(#p2733d070c1)" d="M 161.523707 246.072768 
L 161.523707 242.706259 
" style="fill:none;stroke:#2ca02c;stroke-width:1.5;"/>
    <path clip-path="url(#p2733d070c1)" d="M 177.756435 246.402501 
L 177.756435 243.041931 
" style="fill:none;stroke:#2ca02c;stroke-width:1.5;"/>
    <path clip-path="url(#p2733d070c1)" d="M 193.989162 243.7399 
L 193.989162 239.692048 
" style="fill:none;stroke:#2ca02c;stroke-width:1.5;"/>
    <path clip-path="url(#p2733d070c1)" d="M 210.221889 226.131711 
L 210.221889 218.92425 
" style="fill:none;stroke:#2ca02c;stroke-width:1.5;"/>
    <path clip-path="url(#p2733d070c1)" d="M 226.454616 200.836536 
L 226.454616 192.335783 
" style="fill:none;stroke:#2ca02c;stroke-width:1.5;"/>
    <path clip-path="url(#p2733d070c1)" d="M 242.687344 176.978929 
L 242.687344 168.311781 
" style="fill:none;stroke:#2ca02c;stroke-width:1.5;"/>
    <path clip-path="url(#p2733d070c1)" d="M 258.920071 155.858827 
L 258.920071 149.053436 
" style="fill:none;stroke:#2ca02c;stroke-width:1.5;"/>
    <path clip-path="url(#p2733d070c1)" d="M 275.152798 155.146461 
L 275.152798 148.267221 
" style="fill:none;stroke:#2ca02c;stroke-width:1.5;"/>
    <path clip-path="url(#p2733d070c1)" d="M 291.385526 159.597543 
L 291.385526 152.302915 
" style="fill:none;stroke:#2ca02c;stroke-width:1.5;"/>
    <path clip-path="url(#p2733d070c1)" d="M 307.618253 180.498381 
L 307.618253 171.752742 
" style="fill:none;stroke:#2ca02c;stroke-width:1.5;"/>
    <path clip-path="url(#p2733d070c1)" d="M 323.85098 212.036656 
L 323.85098 203.761844 
" style="fill:none;stroke:#2ca02c;stroke-width:1.5;"/>
    <path clip-path="url(#p2733d070c1)" d="M 340.083707 232.263152 
L 340.083707 225.944952 
" style="fill:none;stroke:#2ca02c;stroke-width:1.5;"/>
    <path clip-path="url(#p2733d070c1)" d="M 356.316435 245.382625 
L 356.316435 241.647413 
" style="fill:none;stroke:#2ca02c;stroke-width:1.5;"/>
    <path clip-path="url(#p2733d070c1)" d="M 372.549162 248.931876 
L 372.549162 247.582224 
" style="fill:none;stroke:#2ca02c;stroke-width:1.5;"/>
    <path clip-path="url(#p2733d070c1)" d="M 388.781889 243.004545 
L 388.781889 238.661098 
" style="fill:none;stroke:#2ca02c;stroke-width:1.5;"/>
   </g>
   <g id="LineCollection_4">
    <path clip-path="url(#p2733d070c1)" d="M 96.592798 219.437579 
L 96.592798 215.310941 
" style="fill:none;stroke:#d62728;stroke-width:1.5;"/>
    <path clip-path="url(#p2733d070c1)" d="M 112.825526 218.512231 
L 112.825526 213.967456 
" style="fill:none;stroke:#d62728;stroke-width:1.5;"/>
    <path clip-path="url(#p2733d070c1)" d="M 129.058253 217.865743 
L 129.058253 213.11746 
" style="fill:none;stroke:#d62728;stroke-width:1.5;"/>
    <path clip-path="url(#p2733d070c1)" d="M 145.29098 218.40551 
L 145.29098 213.789424 
" style="fill:none;stroke:#d62728;stroke-width:1.5;"/>
    <path clip-path="url(#p2733d070c1)" d="M 161.523707 223.485627 
L 161.523707 221.015673 
" style="fill:none;stroke:#d62728;stroke-width:1.5;"/>
    <path clip-path="url(#p2733d070c1)" d="M 177.756435 224.730135 
L 177.756435 223.324365 
" style="fill:none;stroke:#d62728;stroke-width:1.5;"/>
    <path clip-path="url(#p2733d070c1)" d="M 193.989162 215.15651 
L 193.989162 209.82799 
" style="fill:none;stroke:#d62728;stroke-width:1.5;"/>
    <path clip-path="url(#p2733d070c1)" d="M 210.221889 201.590876 
L 210.221889 194.386855 
" style="fill:none;stroke:#d62728;stroke-width:1.5;"/>
    <path clip-path="url(#p2733d070c1)" d="M 226.454616 177.356227 
L 226.454616 168.428273 
" style="fill:none;stroke:#d62728;stroke-width:1.5;"/>
    <path clip-path="url(#p2733d070c1)" d="M 242.687344 152.54348 
L 242.687344 144.456405 
" style="fill:none;stroke:#d62728;stroke-width:1.5;"/>
    <path clip-path="url(#p2733d070c1)" d="M 258.920071 131.557435 
L 258.920071 124.456631 
" style="fill:none;stroke:#d62728;stroke-width:1.5;"/>
    <path clip-path="url(#p2733d070c1)" d="M 275.152798 126.732881 
L 275.152798 120.371004 
" style="fill:none;stroke:#d62728;stroke-width:1.5;"/>
    <path clip-path="url(#p2733d070c1)" d="M 291.385526 153.027884 
L 291.385526 144.619828 
" style="fill:none;stroke:#d62728;stroke-width:1.5;"/>
    <path clip-path="url(#p2733d070c1)" d="M 307.618253 160.263849 
L 307.618253 151.139256 
" style="fill:none;stroke:#d62728;stroke-width:1.5;"/>
    <path clip-path="url(#p2733d070c1)" d="M 323.85098 194.533269 
L 323.85098 186.887094 
" style="fill:none;stroke:#d62728;stroke-width:1.5;"/>
    <path clip-path="url(#p2733d070c1)" d="M 340.083707 213.305118 
L 340.083707 207.418708 
" style="fill:none;stroke:#d62728;stroke-width:1.5;"/>
    <path clip-path="url(#p2733d070c1)" d="M 356.316435 223.423165 
L 356.316435 220.851335 
" style="fill:none;stroke:#d62728;stroke-width:1.5;"/>
    <path clip-path="url(#p2733d070c1)" d="M 372.549162 223.968492 
L 372.549162 221.865717 
" style="fill:none;stroke:#d62728;stroke-width:1.5;"/>
    <path clip-path="url(#p2733d070c1)" d="M 388.781889 221.796343 
L 388.781889 218.34059 
" style="fill:none;stroke:#d62728;stroke-width:1.5;"/>
   </g>
   <g id="LineCollection_5">
    <path clip-path="url(#p2733d070c1)" d="M 96.592798 195.504566 
L 96.592798 191.335934 
" style="fill:none;stroke:#9467bd;stroke-width:1.5;"/>
    <path clip-path="url(#p2733d070c1)" d="M 112.825526 192.279217 
L 112.825526 187.105283 
" style="fill:none;stroke:#9467bd;stroke-width:1.5;"/>
    <path clip-path="url(#p2733d070c1)" d="M 129.058253 195.382796 
L 129.058253 191.354174 
" style="fill:none;stroke:#9467bd;stroke-width:1.5;"/>
    <path clip-path="url(#p2733d070c1)" d="M 145.29098 190.656711 
L 145.29098 185.340078 
" style="fill:none;stroke:#9467bd;stroke-width:1.5;"/>
    <path clip-path="url(#p2733d070c1)" d="M 161.523707 198.761867 
L 161.523707 195.940076 
" style="fill:none;stroke:#9467bd;stroke-width:1.5;"/>
    <path clip-path="url(#p2733d070c1)" d="M 177.756435 200.540646 
L 177.756435 199.149339 
" style="fill:none;stroke:#9467bd;stroke-width:1.5;"/>
    <path clip-path="url(#p2733d070c1)" d="M 193.989162 196.249386 
L 193.989162 192.416901 
" style="fill:none;stroke:#9467bd;stroke-width:1.5;"/>
    <path clip-path="url(#p2733d070c1)" d="M 210.221889 176.995757 
L 210.221889 169.956588 
" style="fill:none;stroke:#9467bd;stroke-width:1.5;"/>
    <path clip-path="url(#p2733d070c1)" d="M 226.454616 154.497216 
L 226.454616 145.95313 
" style="fill:none;stroke:#9467bd;stroke-width:1.5;"/>
    <path clip-path="url(#p2733d070c1)" d="M 242.687344 123.064012 
L 242.687344 114.918457 
" style="fill:none;stroke:#9467bd;stroke-width:1.5;"/>
    <path clip-path="url(#p2733d070c1)" d="M 258.920071 108.364503 
L 258.920071 101.122151 
" style="fill:none;stroke:#9467bd;stroke-width:1.5;"/>
    <path clip-path="url(#p2733d070c1)" d="M 275.152798 103.446776 
L 275.152798 97.263864 
" style="fill:none;stroke:#9467bd;stroke-width:1.5;"/>
    <path clip-path="url(#p2733d070c1)" d="M 291.385526 124.126222 
L 291.385526 115.946443 
" style="fill:none;stroke:#9467bd;stroke-width:1.5;"/>
    <path clip-path="url(#p2733d070c1)" d="M 307.618253 139.654266 
L 307.618253 130.518647 
" style="fill:none;stroke:#9467bd;stroke-width:1.5;"/>
    <path clip-path="url(#p2733d070c1)" d="M 323.85098 161.021642 
L 323.85098 152.735406 
" style="fill:none;stroke:#9467bd;stroke-width:1.5;"/>
    <path clip-path="url(#p2733d070c1)" d="M 340.083707 182.39629 
L 340.083707 175.592597 
" style="fill:none;stroke:#9467bd;stroke-width:1.5;"/>
    <path clip-path="url(#p2733d070c1)" d="M 356.316435 198.275824 
L 356.316435 195.220676 
" style="fill:none;stroke:#9467bd;stroke-width:1.5;"/>
    <path clip-path="url(#p2733d070c1)" d="M 372.549162 199.293627 
L 372.549162 196.823673 
" style="fill:none;stroke:#9467bd;stroke-width:1.5;"/>
    <path clip-path="url(#p2733d070c1)" d="M 388.781889 199.117648 
L 388.781889 196.361064 
" style="fill:none;stroke:#9467bd;stroke-width:1.5;"/>
   </g>
   <g id="LineCollection_6">
    <path clip-path="url(#p2733d070c1)" d="M 96.592798 170.938677 
L 96.592798 166.730131 
" style="fill:none;stroke:#8c564b;stroke-width:1.5;"/>
    <path clip-path="url(#p2733d070c1)" d="M 112.825526 171.91342 
L 112.825526 167.963813 
" style="fill:none;stroke:#8c564b;stroke-width:1.5;"/>
    <path clip-path="url(#p2733d070c1)" d="M 129.058253 169.873607 
L 129.058253 165.158893 
" style="fill:none;stroke:#8c564b;stroke-width:1.5;"/>
    <path clip-path="url(#p2733d070c1)" d="M 145.29098 166.480129 
L 145.29098 161.324273 
" style="fill:none;stroke:#8c564b;stroke-width:1.5;"/>
    <path clip-path="url(#p2733d070c1)" d="M 161.523707 172.742529 
L 161.523707 168.94615 
" style="fill:none;stroke:#8c564b;stroke-width:1.5;"/>
    <path clip-path="url(#p2733d070c1)" d="M 177.756435 175.493497 
L 177.756435 173.203003 
" style="fill:none;stroke:#8c564b;stroke-width:1.5;"/>
    <path clip-path="url(#p2733d070c1)" d="M 193.989162 170.757089 
L 193.989162 166.419411 
" style="fill:none;stroke:#8c564b;stroke-width:1.5;"/>
    <path clip-path="url(#p2733d070c1)" d="M 210.221889 160.808893 
L 210.221889 154.406756 
" style="fill:none;stroke:#8c564b;stroke-width:1.5;"/>
    <path clip-path="url(#p2733d070c1)" d="M 226.454616 144.278616 
L 226.454616 136.193203 
" style="fill:none;stroke:#8c564b;stroke-width:1.5;"/>
    <path clip-path="url(#p2733d070c1)" d="M 242.687344 110.83954 
L 242.687344 102.495399 
" style="fill:none;stroke:#8c564b;stroke-width:1.5;"/>
    <path clip-path="url(#p2733d070c1)" d="M 258.920071 85.361981 
L 258.920071 78.184519 
" style="fill:none;stroke:#8c564b;stroke-width:1.5;"/>
    <path clip-path="url(#p2733d070c1)" d="M 275.152798 82.280093 
L 275.152798 75.546007 
" style="fill:none;stroke:#8c564b;stroke-width:1.5;"/>
    <path clip-path="url(#p2733d070c1)" d="M 291.385526 87.658842 
L 291.385526 80.000355 
" style="fill:none;stroke:#8c564b;stroke-width:1.5;"/>
    <path clip-path="url(#p2733d070c1)" d="M 307.618253 105.913691 
L 307.618253 97.349617 
" style="fill:none;stroke:#8c564b;stroke-width:1.5;"/>
    <path clip-path="url(#p2733d070c1)" d="M 323.85098 131.593916 
L 323.85098 122.85307 
" style="fill:none;stroke:#8c564b;stroke-width:1.5;"/>
    <path clip-path="url(#p2733d070c1)" d="M 340.083707 156.630795 
L 340.083707 149.782819 
" style="fill:none;stroke:#8c564b;stroke-width:1.5;"/>
    <path clip-path="url(#p2733d070c1)" d="M 356.316435 167.544268 
L 356.316435 162.443009 
" style="fill:none;stroke:#8c564b;stroke-width:1.5;"/>
    <path clip-path="url(#p2733d070c1)" d="M 372.549162 173.545302 
L 372.549162 170.230162 
" style="fill:none;stroke:#8c564b;stroke-width:1.5;"/>
    <path clip-path="url(#p2733d070c1)" d="M 388.781889 173.975634 
L 388.781889 170.791882 
" style="fill:none;stroke:#8c564b;stroke-width:1.5;"/>
   </g>
   <g id="LineCollection_7">
    <path clip-path="url(#p2733d070c1)" d="M 96.592798 149.321117 
L 96.592798 145.971907 
" style="fill:none;stroke:#e377c2;stroke-width:1.5;"/>
    <path clip-path="url(#p2733d070c1)" d="M 112.825526 142.165653 
L 112.825526 136.796847 
" style="fill:none;stroke:#e377c2;stroke-width:1.5;"/>
    <path clip-path="url(#p2733d070c1)" d="M 129.058253 144.003441 
L 129.058253 139.07829 
" style="fill:none;stroke:#e377c2;stroke-width:1.5;"/>
    <path clip-path="url(#p2733d070c1)" d="M 145.29098 144.433873 
L 145.29098 139.568627 
" style="fill:none;stroke:#e377c2;stroke-width:1.5;"/>
    <path clip-path="url(#p2733d070c1)" d="M 161.523707 146.915114 
L 161.523707 142.591232 
" style="fill:none;stroke:#e377c2;stroke-width:1.5;"/>
    <path clip-path="url(#p2733d070c1)" d="M 177.756435 147.746046 
L 177.756435 143.816454 
" style="fill:none;stroke:#e377c2;stroke-width:1.5;"/>
    <path clip-path="url(#p2733d070c1)" d="M 193.989162 150.345878 
L 193.989162 147.480339 
" style="fill:none;stroke:#e377c2;stroke-width:1.5;"/>
    <path clip-path="url(#p2733d070c1)" d="M 210.221889 147.388707 
L 210.221889 143.423491 
" style="fill:none;stroke:#e377c2;stroke-width:1.5;"/>
    <path clip-path="url(#p2733d070c1)" d="M 226.454616 137.048781 
L 226.454616 130.675332 
" style="fill:none;stroke:#e377c2;stroke-width:1.5;"/>
    <path clip-path="url(#p2733d070c1)" d="M 242.687344 103.4234 
L 242.687344 94.639688 
" style="fill:none;stroke:#e377c2;stroke-width:1.5;"/>
    <path clip-path="url(#p2733d070c1)" d="M 258.920071 69.70474 
L 258.920071 61.83776 
" style="fill:none;stroke:#e377c2;stroke-width:1.5;"/>
    <path clip-path="url(#p2733d070c1)" d="M 275.152798 59.556843 
L 275.152798 52.572564 
" style="fill:none;stroke:#e377c2;stroke-width:1.5;"/>
    <path clip-path="url(#p2733d070c1)" d="M 291.385526 55.767216 
L 291.385526 49.258011 
" style="fill:none;stroke:#e377c2;stroke-width:1.5;"/>
    <path clip-path="url(#p2733d070c1)" d="M 307.618253 63.117268 
L 307.618253 55.531232 
" style="fill:none;stroke:#e377c2;stroke-width:1.5;"/>
    <path clip-path="url(#p2733d070c1)" d="M 323.85098 92.835121 
L 323.85098 84.208808 
" style="fill:none;stroke:#e377c2;stroke-width:1.5;"/>
    <path clip-path="url(#p2733d070c1)" d="M 340.083707 120.412396 
L 340.083707 112.540916 
" style="fill:none;stroke:#e377c2;stroke-width:1.5;"/>
    <path clip-path="url(#p2733d070c1)" d="M 356.316435 138.630637 
L 356.316435 132.597047 
" style="fill:none;stroke:#e377c2;stroke-width:1.5;"/>
    <path clip-path="url(#p2733d070c1)" d="M 372.549162 146.204563 
L 372.549162 141.83963 
" style="fill:none;stroke:#e377c2;stroke-width:1.5;"/>
    <path clip-path="url(#p2733d070c1)" d="M 388.781889 150.301616 
L 388.781889 147.37559 
" style="fill:none;stroke:#e377c2;stroke-width:1.5;"/>
   </g>
   <g id="line2d_21">
    <path clip-path="url(#p2733d070c1)" d="M 80.360071 297.4357 
L 86.431718 297.104737 
L 92.665709 296.5399 
L 99.614011 295.679689 
L 109.516965 294.201109 
L 120.491386 292.616675 
L 126.660439 291.954866 
L 131.952838 291.608102 
L 136.823143 291.509435 
L 141.531104 291.634646 
L 146.271535 291.98351 
L 151.239246 292.574355 
L 156.856332 293.473566 
L 165.070913 295.044879 
L 173.317963 296.556009 
L 177.993456 297.18654 
L 181.857232 297.488995 
L 185.298914 297.538611 
L 188.448378 297.364858 
L 191.40303 296.982828 
L 194.227807 296.396698 
L 196.987647 295.596891 
L 199.682549 294.584046 
L 202.344982 293.346142 
L 205.007416 291.862738 
L 207.702318 290.104061 
L 210.429689 288.056359 
L 213.221997 285.679545 
L 216.111712 282.923831 
L 219.131301 279.730422 
L 222.313234 276.033161 
L 225.689979 271.761636 
L 229.358942 266.754858 
L 233.482467 260.741479 
L 238.450178 253.085344 
L 246.762166 239.785536 
L 253.742937 228.796464 
L 258.191149 222.200413 
L 261.892581 217.097557 
L 265.139451 212.98761 
L 268.094103 209.596226 
L 270.821474 206.796461 
L 273.354032 204.506602 
L 275.756716 202.628931 
L 278.029525 201.130747 
L 280.204928 199.960069 
L 282.282925 199.089547 
L 284.295985 198.482126 
L 286.276575 198.114466 
L 288.224697 197.977331 
L 290.17282 198.063577 
L 292.120942 198.372746 
L 294.101532 198.913893 
L 296.114592 199.695209 
L 298.192589 200.741627 
L 300.367992 202.091388 
L 302.640801 203.76991 
L 305.043485 205.829334 
L 307.576044 208.299377 
L 310.303414 211.278426 
L 313.258066 214.844881 
L 316.504936 219.122145 
L 320.1739 224.333702 
L 324.557174 230.96302 
L 330.693759 240.688621 
L 341.538305 257.899637 
L 346.246267 264.916397 
L 350.239917 270.48174 
L 353.843943 275.131369 
L 357.188219 279.088268 
L 360.337683 282.47414 
L 363.324804 285.364824 
L 366.214518 287.855776 
L 369.006827 289.974251 
L 371.766666 291.790398 
L 374.461568 293.30168 
L 377.156471 294.561165 
L 379.883842 295.589603 
L 382.643681 296.391259 
L 385.468458 296.979142 
L 388.390641 297.359824 
L 391.475168 297.536065 
L 394.786976 297.500117 
L 398.455939 297.232729 
L 402.67687 296.695115 
L 405.014616 296.318978 
L 405.014616 296.318978 
" style="fill:none;stroke:#1f77b4;stroke-linecap:square;stroke-width:1.5;"/>
   </g>
   <g id="line2d_22">
    <path clip-path="url(#p2733d070c1)" d="M 80.360071 272.567431 
L 85.522595 271.845098 
L 91.13968 270.829882 
L 98.055513 269.341039 
L 114.484676 265.710978 
L 119.614731 264.867743 
L 124.095412 264.352169 
L 128.251406 264.094978 
L 132.245056 264.069887 
L 136.173769 264.267865 
L 140.13495 264.69086 
L 144.258475 265.357085 
L 148.739156 266.311428 
L 154.031555 267.676598 
L 171.012685 272.246227 
L 174.746586 272.901107 
L 178.025925 273.254389 
L 181.013045 273.355775 
L 183.805354 273.23084 
L 186.467787 272.890764 
L 189.032815 272.340543 
L 191.532905 271.579012 
L 194.032995 270.582667 
L 196.500616 269.359139 
L 199.000706 267.868669 
L 201.533265 266.096338 
L 204.130761 264.00181 
L 206.793194 261.56513 
L 209.553034 258.734937 
L 212.442748 255.450409 
L 215.527275 251.600971 
L 218.839083 247.104048 
L 222.475577 241.782544 
L 226.66404 235.243277 
L 231.956438 226.539012 
L 246.340073 202.653111 
L 250.333723 196.590201 
L 253.742937 191.808808 
L 256.762526 187.945043 
L 259.522365 184.764136 
L 262.087393 182.140093 
L 264.490077 179.99586 
L 266.730417 178.286568 
L 268.873351 176.925681 
L 270.91888 175.88543 
L 272.89947 175.125351 
L 274.815124 174.625822 
L 276.698308 174.363332 
L 278.549024 174.327538 
L 280.39974 174.512175 
L 282.282925 174.925324 
L 284.198579 175.57646 
L 286.146701 176.473717 
L 288.192229 177.665374 
L 290.302694 179.154951 
L 292.543035 181.014218 
L 294.91325 183.277773 
L 297.445809 186.01226 
L 300.17318 189.292971 
L 303.1603 193.244447 
L 306.504576 198.051574 
L 310.368352 204.012308 
L 315.238657 211.962342 
L 331.960038 239.621162 
L 335.986157 245.645296 
L 339.557714 250.596872 
L 342.804585 254.727773 
L 345.856642 258.25743 
L 348.746357 261.263976 
L 351.506197 263.819257 
L 354.16863 265.985906 
L 356.766126 267.81593 
L 359.298685 269.332493 
L 361.798775 270.575372 
L 364.298865 271.573284 
L 366.831424 272.344726 
L 369.396451 272.893519 
L 372.026416 273.229435 
L 374.786255 273.355495 
L 377.708439 273.262328 
L 380.857903 272.935118 
L 384.364522 272.341453 
L 388.488047 271.407909 
L 394.007727 269.910953 
L 405.014616 266.826116 
L 405.014616 266.826116 
" style="fill:none;stroke:#ff7f0e;stroke-linecap:square;stroke-width:1.5;"/>
   </g>
   <g id="line2d_23">
    <path clip-path="url(#p2733d070c1)" d="M 80.360071 247.618555 
L 86.269375 246.576975 
L 93.964457 244.976628 
L 107.14675 242.217326 
L 112.63396 241.323584 
L 117.309453 240.783276 
L 121.595322 240.508206 
L 125.686378 240.466085 
L 129.712497 240.646629 
L 133.771085 241.052184 
L 137.992016 241.699867 
L 142.570103 242.631226 
L 148.057313 243.985274 
L 163.869571 248.040296 
L 167.733347 248.705093 
L 171.077623 249.060407 
L 174.129681 249.163835 
L 176.954458 249.040428 
L 179.64936 248.701758 
L 182.246856 248.151324 
L 184.779415 247.386718 
L 187.279505 246.397822 
L 189.747126 245.183013 
L 192.247216 243.70187 
L 194.779775 241.938477 
L 197.344802 239.879229 
L 200.007236 237.450621 
L 202.767075 234.623774 
L 205.624321 231.374143 
L 208.64391 227.598603 
L 211.89078 223.174081 
L 215.429869 217.963884 
L 219.39105 211.724754 
L 224.16395 203.772194 
L 231.891501 190.386916 
L 238.969677 178.293076 
L 243.320483 171.289815 
L 246.924509 165.894675 
L 250.106442 161.520975 
L 252.963688 157.958967 
L 255.593653 155.023205 
L 258.061274 152.594512 
L 260.366552 150.630115 
L 262.541955 149.060272 
L 264.619952 147.828415 
L 266.633011 146.892022 
L 268.548664 146.240971 
L 270.431849 145.832624 
L 272.282565 145.657198 
L 274.133281 145.70659 
L 275.983997 145.98055 
L 277.867182 146.488387 
L 279.782835 147.239307 
L 281.763426 148.259841 
L 283.808954 149.568185 
L 285.951888 151.207321 
L 288.224697 153.233849 
L 290.627381 155.681929 
L 293.192409 158.619428 
L 295.984717 162.16557 
L 299.036775 166.411502 
L 302.478457 171.59487 
L 306.504576 178.079768 
L 311.732037 186.952967 
L 325.855922 211.146085 
L 330.141791 217.916185 
L 333.843223 223.359564 
L 337.219968 227.938172 
L 340.336963 231.799278 
L 343.291615 235.112005 
L 346.116392 237.948799 
L 348.811294 240.34663 
L 351.441259 242.393493 
L 354.006287 244.111915 
L 356.538845 245.543527 
L 359.038935 246.705271 
L 361.571494 247.636808 
L 364.104053 248.333408 
L 366.701549 248.818654 
L 369.396451 249.095179 
L 372.221228 249.160006 
L 375.240817 249.00418 
L 378.552625 248.605526 
L 382.318994 247.92012 
L 386.897081 246.850228 
L 394.527226 244.797434 
L 402.059965 242.855197 
L 405.014616 242.201703 
L 405.014616 242.201703 
" style="fill:none;stroke:#2ca02c;stroke-linecap:square;stroke-width:1.5;"/>
   </g>
   <g id="line2d_24">
    <path clip-path="url(#p2733d070c1)" d="M 80.360071 222.998103 
L 86.821343 221.762305 
L 108.964997 217.315709 
L 113.802833 216.708638 
L 118.186108 216.380799 
L 122.342102 216.292352 
L 126.40069 216.429066 
L 130.459277 216.789058 
L 134.64774 217.385214 
L 139.160889 218.255936 
L 144.420819 219.506199 
L 153.836742 222.031122 
L 159.843452 223.510189 
L 164.031915 224.316286 
L 167.571003 224.77438 
L 170.720467 224.962244 
L 173.64265 224.916831 
L 176.40249 224.653175 
L 179.032455 224.181457 
L 181.597482 223.497155 
L 184.130041 222.590273 
L 186.630131 221.458355 
L 189.130221 220.082474 
L 191.662779 218.433541 
L 194.260276 216.471619 
L 196.922709 214.175304 
L 199.65008 211.52639 
L 202.507326 208.437242 
L 205.526915 204.837927 
L 208.741316 200.652938 
L 212.247936 195.711635 
L 216.176649 189.776384 
L 220.852142 182.288021 
L 227.832913 170.628387 
L 235.950088 157.169548 
L 240.365832 150.279674 
L 244.002326 145.003222 
L 247.216728 140.722462 
L 250.106442 137.235507 
L 252.768876 134.363322 
L 255.236497 132.019513 
L 257.574243 130.100947 
L 259.782115 128.572882 
L 261.892581 127.380432 
L 263.90564 126.494669 
L 265.853762 125.876556 
L 267.769416 125.501497 
L 269.6526 125.359765 
L 271.535785 125.443821 
L 273.41897 125.753222 
L 275.334623 126.297471 
L 277.282745 127.085278 
L 279.295805 128.142881 
L 281.373801 129.487545 
L 283.549204 131.161268 
L 285.854482 133.219042 
L 288.322104 135.727778 
L 290.952068 138.725342 
L 293.809314 142.326228 
L 296.958778 146.661485 
L 300.530335 151.967454 
L 304.816204 158.753302 
L 310.822914 168.724724 
L 321.147961 185.881246 
L 325.726048 193.021032 
L 329.589823 198.64708 
L 333.063974 203.322358 
L 336.278376 207.281555 
L 339.297965 210.652782 
L 342.155211 213.515811 
L 344.91505 215.970042 
L 347.577484 218.043842 
L 350.17498 219.789058 
L 352.740007 221.24638 
L 355.272566 222.43202 
L 357.805125 223.374794 
L 360.370152 224.093524 
L 363.000117 224.598195 
L 365.695019 224.889204 
L 368.519796 224.970773 
L 371.539385 224.83361 
L 374.851193 224.455188 
L 378.585094 223.797698 
L 383.098243 222.767083 
L 390.143951 220.896625 
L 398.488407 218.738186 
L 403.488588 217.678113 
L 405.014616 217.406152 
L 405.014616 217.406152 
" style="fill:none;stroke:#d62728;stroke-linecap:square;stroke-width:1.5;"/>
   </g>
   <g id="line2d_25">
    <path clip-path="url(#p2733d070c1)" d="M 80.360071 199.180523 
L 88.087622 198.013267 
L 105.977876 195.223145 
L 111.659899 194.623742 
L 116.660079 194.31696 
L 121.335572 194.25086 
L 125.88119 194.407423 
L 130.491746 194.790135 
L 135.329583 195.418082 
L 140.784324 196.357333 
L 148.576813 197.952542 
L 157.14855 199.652514 
L 161.759105 200.338394 
L 165.590412 200.688473 
L 168.967157 200.77879 
L 172.084153 200.643057 
L 175.006336 200.296178 
L 177.798644 199.743489 
L 180.526015 198.976349 
L 183.188448 197.995627 
L 185.818413 196.789722 
L 188.448378 195.338462 
L 191.110812 193.612171 
L 193.805714 191.596929 
L 196.565553 189.252459 
L 199.422799 186.528544 
L 202.377451 183.401746 
L 205.494446 179.77563 
L 208.838723 175.535322 
L 212.442748 170.599385 
L 216.501336 164.651962 
L 221.339173 157.14883 
L 228.806974 145.092986 
L 236.631931 132.585633 
L 241.14508 125.79033 
L 244.846512 120.604762 
L 248.125851 116.384138 
L 251.080503 112.935182 
L 253.807874 110.086261 
L 256.340433 107.754971 
L 258.710648 105.866163 
L 260.983457 104.335217 
L 263.126391 103.153228 
L 265.204388 102.256844 
L 267.217448 101.628254 
L 269.198038 101.243659 
L 271.146161 101.093752 
L 273.061814 101.168006 
L 275.009936 101.468536 
L 276.958058 101.994359 
L 278.971118 102.771375 
L 281.049114 103.817867 
L 283.192049 105.150402 
L 285.432389 106.809254 
L 287.802604 108.847179 
L 290.302694 111.294617 
L 292.997597 114.25118 
L 295.91978 117.796793 
L 299.134181 122.057093 
L 302.770676 127.259213 
L 307.089013 133.842953 
L 313.030785 143.345273 
L 324.362362 161.518325 
L 329.005386 168.494838 
L 332.966568 174.055284 
L 336.538125 178.692078 
L 339.817464 182.594489 
L 342.934459 185.963238 
L 345.889111 188.834867 
L 348.746357 191.305705 
L 351.506197 193.403404 
L 354.233567 195.198422 
L 356.896001 196.688336 
L 359.558434 197.92616 
L 362.220868 198.921698 
L 364.948239 199.703137 
L 367.740547 200.269403 
L 370.630262 200.626434 
L 373.68232 200.775925 
L 376.961658 200.708768 
L 380.565684 200.407033 
L 384.721678 199.82805 
L 389.981608 198.85752 
L 405.014616 195.834164 
L 405.014616 195.834164 
" style="fill:none;stroke:#9467bd;stroke-linecap:square;stroke-width:1.5;"/>
   </g>
   <g id="line2d_26">
    <path clip-path="url(#p2733d070c1)" d="M 80.360071 175.713884 
L 85.717407 174.953339 
L 91.691648 173.87428 
L 99.678948 172.184945 
L 111.724837 169.643434 
L 117.244516 168.723008 
L 121.952478 168.159441 
L 126.270815 167.86488 
L 130.361871 167.806952 
L 134.38799 167.972504 
L 138.446578 168.364245 
L 142.63504 168.994081 
L 147.180659 169.907123 
L 152.537994 171.219844 
L 169.551594 175.574199 
L 173.317963 176.191723 
L 176.629771 176.51274 
L 179.64936 176.583846 
L 182.474137 176.428631 
L 185.169039 176.056858 
L 187.766535 175.472577 
L 190.299094 174.673765 
L 192.799184 173.650596 
L 195.299274 172.384108 
L 197.799364 170.866519 
L 200.331923 169.067909 
L 202.929419 166.947405 
L 205.591852 164.484773 
L 208.384161 161.592517 
L 211.306344 158.237089 
L 214.39087 154.349164 
L 217.702678 149.809294 
L 221.339173 144.43751 
L 225.495166 137.887136 
L 230.690159 129.257732 
L 246.047854 103.464642 
L 249.976567 97.466001 
L 253.353312 92.70617 
L 256.372901 88.82621 
L 259.132741 85.635778 
L 261.6653 83.038191 
L 264.035515 80.915581 
L 266.275855 79.199668 
L 268.41879 77.834403 
L 270.464318 76.791665 
L 272.444909 76.03068 
L 274.360562 75.531625 
L 276.243747 75.270856 
L 278.094463 75.237939 
L 279.945179 75.426608 
L 281.828363 75.84504 
L 283.744017 76.502775 
L 285.692139 77.408022 
L 287.737667 78.609487 
L 289.848133 80.110752 
L 292.088473 81.984238 
L 294.458688 84.264964 
L 296.991247 87.020357 
L 299.718618 90.326724 
L 302.67327 94.26514 
L 305.985077 99.061123 
L 309.783915 104.966548 
L 314.524346 112.769761 
L 324.459768 129.701304 
L 330.17426 139.147704 
L 334.492597 145.867479 
L 338.226498 151.275355 
L 341.603243 155.783026 
L 344.752707 159.621428 
L 347.707358 162.877675 
L 350.532136 165.664403 
L 353.259506 168.04455 
L 355.889471 170.048027 
L 358.454499 171.727233 
L 360.987057 173.123079 
L 363.519616 174.265417 
L 366.052175 175.163772 
L 368.617202 175.837167 
L 371.247167 176.295793 
L 373.974538 176.542531 
L 376.831784 176.574872 
L 379.883842 176.384279 
L 383.228118 175.94923 
L 387.059425 175.219898 
L 391.799855 174.079573 
L 401.605403 171.416626 
L 405.014616 170.540865 
L 405.014616 170.540865 
" style="fill:none;stroke:#8c564b;stroke-linecap:square;stroke-width:1.5;"/>
   </g>
   <g id="line2d_27">
    <path clip-path="url(#p2733d070c1)" d="M 80.360071 152.334151 
L 84.970627 152.061378 
L 89.548714 151.568438 
L 94.256675 150.835911 
L 99.289324 149.823557 
L 105.101222 148.418389 
L 114.095052 145.977813 
L 122.439508 143.795934 
L 127.602032 142.674946 
L 131.985306 141.946377 
L 135.978957 141.505247 
L 139.745326 141.310773 
L 143.414289 141.344044 
L 147.050784 141.600717 
L 150.719747 142.083242 
L 154.551054 142.814033 
L 158.674579 143.831141 
L 163.447478 145.246536 
L 170.525655 147.609894 
L 177.928519 150.015171 
L 182.116981 151.140361 
L 185.591132 151.847067 
L 188.64319 152.246299 
L 191.467967 152.394314 
L 194.097932 152.313235 
L 196.630491 152.013766 
L 199.065643 151.503392 
L 201.468327 150.771531 
L 203.838543 149.815436 
L 206.208758 148.617144 
L 208.578973 147.169284 
L 211.014126 145.416642 
L 213.481747 143.363955 
L 216.046774 140.935535 
L 218.709208 138.101672 
L 221.501516 134.796677 
L 224.456168 130.945802 
L 227.605632 126.468634 
L 231.047314 121.181718 
L 234.943558 114.775428 
L 239.65152 106.583775 
L 247.541415 92.320671 
L 254.16503 80.544474 
L 258.385961 73.481188 
L 261.892581 68.029658 
L 264.977107 63.629987 
L 267.769416 60.020752 
L 270.334443 57.055626 
L 272.737127 54.60943 
L 274.977467 52.636572 
L 277.120402 51.041974 
L 279.133461 49.814729 
L 281.081583 48.884147 
L 282.964768 48.23013 
L 284.783015 47.831118 
L 286.568794 47.663532 
L 288.354572 47.71906 
L 290.140351 47.997429 
L 291.958598 48.508395 
L 293.809314 49.261571 
L 295.724968 50.284622 
L 297.705558 51.596642 
L 299.783555 53.242542 
L 301.991427 55.28152 
L 304.329173 57.749797 
L 306.829263 60.718825 
L 309.556634 64.313778 
L 312.543755 68.631284 
L 315.888031 73.868264 
L 319.816744 80.453076 
L 324.881861 89.408092 
L 339.070684 114.740673 
L 343.226678 121.561359 
L 346.830704 127.059645 
L 350.110042 131.664265 
L 353.129632 135.530494 
L 355.986877 138.834947 
L 358.714248 141.653433 
L 361.311744 144.02479 
L 363.844303 146.039743 
L 366.311924 147.721417 
L 368.747077 149.112098 
L 371.149761 150.228701 
L 373.552445 151.100139 
L 375.955129 151.737329 
L 378.42275 152.161576 
L 380.955309 152.371244 
L 383.617742 152.366184 
L 386.442519 152.134991 
L 389.494577 151.659092 
L 392.93626 150.890674 
L 396.994847 149.747517 
L 402.67687 147.893007 
L 405.014616 147.096557 
L 405.014616 147.096557 
" style="fill:none;stroke:#e377c2;stroke-linecap:square;stroke-width:1.5;"/>
   </g>
   <g id="line2d_28">
    <defs>
     <path d="M 0 3 
C 0.795609 3 1.55874 2.683901 2.12132 2.12132 
C 2.683901 1.55874 3 0.795609 3 0 
C 3 -0.795609 2.683901 -1.55874 2.12132 -2.12132 
C 1.55874 -2.683901 0.795609 -3 0 -3 
C -0.795609 -3 -1.55874 -2.683901 -2.12132 -2.12132 
C -2.683901 -1.55874 -3 -0.795609 -3 0 
C -3 0.795609 -2.683901 1.55874 -2.12132 2.12132 
C -1.55874 2.683901 -0.795609 3 0 3 
z
" id="mcb2457e3ba" style="stroke:#1f77b4;"/>
    </defs>
    <g clip-path="url(#p2733d070c1)">
     <use style="fill:#1f77b4;stroke:#1f77b4;" x="96.592798" xlink:href="#mcb2457e3ba" y="294.118972"/>
     <use style="fill:#1f77b4;stroke:#1f77b4;" x="112.825526" xlink:href="#mcb2457e3ba" y="286.398306"/>
     <use style="fill:#1f77b4;stroke:#1f77b4;" x="129.058253" xlink:href="#mcb2457e3ba" y="287.522154"/>
     <use style="fill:#1f77b4;stroke:#1f77b4;" x="145.29098" xlink:href="#mcb2457e3ba" y="285.517282"/>
     <use style="fill:#1f77b4;stroke:#1f77b4;" x="161.523707" xlink:href="#mcb2457e3ba" y="283.871868"/>
     <use style="fill:#1f77b4;stroke:#1f77b4;" x="177.756435" xlink:href="#mcb2457e3ba" y="295.94825"/>
     <use style="fill:#1f77b4;stroke:#1f77b4;" x="193.989162" xlink:href="#mcb2457e3ba" y="294.472996"/>
     <use style="fill:#1f77b4;stroke:#1f77b4;" x="210.221889" xlink:href="#mcb2457e3ba" y="287.260415"/>
     <use style="fill:#1f77b4;stroke:#1f77b4;" x="226.454616" xlink:href="#mcb2457e3ba" y="268.733171"/>
     <use style="fill:#1f77b4;stroke:#1f77b4;" x="242.687344" xlink:href="#mcb2457e3ba" y="243.962343"/>
     <use style="fill:#1f77b4;stroke:#1f77b4;" x="258.920071" xlink:href="#mcb2457e3ba" y="221.560558"/>
     <use style="fill:#1f77b4;stroke:#1f77b4;" x="275.152798" xlink:href="#mcb2457e3ba" y="205.139722"/>
     <use style="fill:#1f77b4;stroke:#1f77b4;" x="291.385526" xlink:href="#mcb2457e3ba" y="202.974132"/>
     <use style="fill:#1f77b4;stroke:#1f77b4;" x="307.618253" xlink:href="#mcb2457e3ba" y="205.432558"/>
     <use style="fill:#1f77b4;stroke:#1f77b4;" x="323.85098" xlink:href="#mcb2457e3ba" y="227.568774"/>
     <use style="fill:#1f77b4;stroke:#1f77b4;" x="340.083707" xlink:href="#mcb2457e3ba" y="253.48425"/>
     <use style="fill:#1f77b4;stroke:#1f77b4;" x="356.316435" xlink:href="#mcb2457e3ba" y="281.276981"/>
     <use style="fill:#1f77b4;stroke:#1f77b4;" x="372.549162" xlink:href="#mcb2457e3ba" y="294.171194"/>
     <use style="fill:#1f77b4;stroke:#1f77b4;" x="388.781889" xlink:href="#mcb2457e3ba" y="294.401892"/>
    </g>
   </g>
   <g id="line2d_29">
    <defs>
     <path d="M 0 3 
C 0.795609 3 1.55874 2.683901 2.12132 2.12132 
C 2.683901 1.55874 3 0.795609 3 0 
C 3 -0.795609 2.683901 -1.55874 2.12132 -2.12132 
C 1.55874 -2.683901 0.795609 -3 0 -3 
C -0.795609 -3 -1.55874 -2.683901 -2.12132 -2.12132 
C -2.683901 -1.55874 -3 -0.795609 -3 0 
C -3 0.795609 -2.683901 1.55874 -2.12132 2.12132 
C -1.55874 2.683901 -0.795609 3 0 3 
z
" id="mbbb2a9d153" style="stroke:#ff7f0e;"/>
    </defs>
    <g clip-path="url(#p2733d070c1)">
     <use style="fill:#ff7f0e;stroke:#ff7f0e;" x="96.592798" xlink:href="#mbbb2a9d153" y="267.639235"/>
     <use style="fill:#ff7f0e;stroke:#ff7f0e;" x="112.825526" xlink:href="#mbbb2a9d153" y="260.809867"/>
     <use style="fill:#ff7f0e;stroke:#ff7f0e;" x="129.058253" xlink:href="#mbbb2a9d153" y="262.01625"/>
     <use style="fill:#ff7f0e;stroke:#ff7f0e;" x="145.29098" xlink:href="#mbbb2a9d153" y="266.503836"/>
     <use style="fill:#ff7f0e;stroke:#ff7f0e;" x="161.523707" xlink:href="#mbbb2a9d153" y="270.062785"/>
     <use style="fill:#ff7f0e;stroke:#ff7f0e;" x="177.756435" xlink:href="#mbbb2a9d153" y="267.858068"/>
     <use style="fill:#ff7f0e;stroke:#ff7f0e;" x="193.989162" xlink:href="#mbbb2a9d153" y="268.189617"/>
     <use style="fill:#ff7f0e;stroke:#ff7f0e;" x="210.221889" xlink:href="#mbbb2a9d153" y="255.767679"/>
     <use style="fill:#ff7f0e;stroke:#ff7f0e;" x="226.454616" xlink:href="#mbbb2a9d153" y="241.78864"/>
     <use style="fill:#ff7f0e;stroke:#ff7f0e;" x="242.687344" xlink:href="#mbbb2a9d153" y="203.415691"/>
     <use style="fill:#ff7f0e;stroke:#ff7f0e;" x="258.920071" xlink:href="#mbbb2a9d153" y="184.711544"/>
     <use style="fill:#ff7f0e;stroke:#ff7f0e;" x="275.152798" xlink:href="#mbbb2a9d153" y="176.15625"/>
     <use style="fill:#ff7f0e;stroke:#ff7f0e;" x="291.385526" xlink:href="#mbbb2a9d153" y="181.240558"/>
     <use style="fill:#ff7f0e;stroke:#ff7f0e;" x="307.618253" xlink:href="#mbbb2a9d153" y="203.342457"/>
     <use style="fill:#ff7f0e;stroke:#ff7f0e;" x="323.85098" xlink:href="#mbbb2a9d153" y="220.722304"/>
     <use style="fill:#ff7f0e;stroke:#ff7f0e;" x="340.083707" xlink:href="#mbbb2a9d153" y="251.452682"/>
     <use style="fill:#ff7f0e;stroke:#ff7f0e;" x="356.316435" xlink:href="#mbbb2a9d153" y="265.75826"/>
     <use style="fill:#ff7f0e;stroke:#ff7f0e;" x="372.549162" xlink:href="#mbbb2a9d153" y="270.491408"/>
     <use style="fill:#ff7f0e;stroke:#ff7f0e;" x="388.781889" xlink:href="#mbbb2a9d153" y="269.740598"/>
    </g>
   </g>
   <g id="line2d_30">
    <defs>
     <path d="M 0 3 
C 0.795609 3 1.55874 2.683901 2.12132 2.12132 
C 2.683901 1.55874 3 0.795609 3 0 
C 3 -0.795609 2.683901 -1.55874 2.12132 -2.12132 
C 1.55874 -2.683901 0.795609 -3 0 -3 
C -0.795609 -3 -1.55874 -2.683901 -2.12132 -2.12132 
C -2.683901 -1.55874 -3 -0.795609 -3 0 
C -3 0.795609 -2.683901 1.55874 -2.12132 2.12132 
C -1.55874 2.683901 -0.795609 3 0 3 
z
" id="mbab2358add" style="stroke:#2ca02c;"/>
    </defs>
    <g clip-path="url(#p2733d070c1)">
     <use style="fill:#2ca02c;stroke:#2ca02c;" x="96.592798" xlink:href="#mbab2358add" y="243.666068"/>
     <use style="fill:#2ca02c;stroke:#2ca02c;" x="112.825526" xlink:href="#mbab2358add" y="237.629405"/>
     <use style="fill:#2ca02c;stroke:#2ca02c;" x="129.058253" xlink:href="#mbab2358add" y="238.25802"/>
     <use style="fill:#2ca02c;stroke:#2ca02c;" x="145.29098" xlink:href="#mbab2358add" y="239.296461"/>
     <use style="fill:#2ca02c;stroke:#2ca02c;" x="161.523707" xlink:href="#mbab2358add" y="244.389513"/>
     <use style="fill:#2ca02c;stroke:#2ca02c;" x="177.756435" xlink:href="#mbab2358add" y="244.722216"/>
     <use style="fill:#2ca02c;stroke:#2ca02c;" x="193.989162" xlink:href="#mbab2358add" y="241.715974"/>
     <use style="fill:#2ca02c;stroke:#2ca02c;" x="210.221889" xlink:href="#mbab2358add" y="222.527981"/>
     <use style="fill:#2ca02c;stroke:#2ca02c;" x="226.454616" xlink:href="#mbab2358add" y="196.58616"/>
     <use style="fill:#2ca02c;stroke:#2ca02c;" x="242.687344" xlink:href="#mbab2358add" y="172.645355"/>
     <use style="fill:#2ca02c;stroke:#2ca02c;" x="258.920071" xlink:href="#mbab2358add" y="152.456131"/>
     <use style="fill:#2ca02c;stroke:#2ca02c;" x="275.152798" xlink:href="#mbab2358add" y="151.706841"/>
     <use style="fill:#2ca02c;stroke:#2ca02c;" x="291.385526" xlink:href="#mbab2358add" y="155.950229"/>
     <use style="fill:#2ca02c;stroke:#2ca02c;" x="307.618253" xlink:href="#mbab2358add" y="176.125561"/>
     <use style="fill:#2ca02c;stroke:#2ca02c;" x="323.85098" xlink:href="#mbab2358add" y="207.89925"/>
     <use style="fill:#2ca02c;stroke:#2ca02c;" x="340.083707" xlink:href="#mbab2358add" y="229.104052"/>
     <use style="fill:#2ca02c;stroke:#2ca02c;" x="356.316435" xlink:href="#mbab2358add" y="243.515019"/>
     <use style="fill:#2ca02c;stroke:#2ca02c;" x="372.549162" xlink:href="#mbab2358add" y="248.25705"/>
     <use style="fill:#2ca02c;stroke:#2ca02c;" x="388.781889" xlink:href="#mbab2358add" y="240.832821"/>
    </g>
   </g>
   <g id="line2d_31">
    <defs>
     <path d="M 0 3 
C 0.795609 3 1.55874 2.683901 2.12132 2.12132 
C 2.683901 1.55874 3 0.795609 3 0 
C 3 -0.795609 2.683901 -1.55874 2.12132 -2.12132 
C 1.55874 -2.683901 0.795609 -3 0 -3 
C -0.795609 -3 -1.55874 -2.683901 -2.12132 -2.12132 
C -2.683901 -1.55874 -3 -0.795609 -3 0 
C -3 0.795609 -2.683901 1.55874 -2.12132 2.12132 
C -1.55874 2.683901 -0.795609 3 0 3 
z
" id="m4d17eb6f4c" style="stroke:#d62728;"/>
    </defs>
    <g clip-path="url(#p2733d070c1)">
     <use style="fill:#d62728;stroke:#d62728;" x="96.592798" xlink:href="#m4d17eb6f4c" y="217.37426"/>
     <use style="fill:#d62728;stroke:#d62728;" x="112.825526" xlink:href="#m4d17eb6f4c" y="216.239844"/>
     <use style="fill:#d62728;stroke:#d62728;" x="129.058253" xlink:href="#m4d17eb6f4c" y="215.491601"/>
     <use style="fill:#d62728;stroke:#d62728;" x="145.29098" xlink:href="#m4d17eb6f4c" y="216.097467"/>
     <use style="fill:#d62728;stroke:#d62728;" x="161.523707" xlink:href="#m4d17eb6f4c" y="222.25065"/>
     <use style="fill:#d62728;stroke:#d62728;" x="177.756435" xlink:href="#m4d17eb6f4c" y="224.02725"/>
     <use style="fill:#d62728;stroke:#d62728;" x="193.989162" xlink:href="#m4d17eb6f4c" y="212.49225"/>
     <use style="fill:#d62728;stroke:#d62728;" x="210.221889" xlink:href="#m4d17eb6f4c" y="197.988865"/>
     <use style="fill:#d62728;stroke:#d62728;" x="226.454616" xlink:href="#m4d17eb6f4c" y="172.89225"/>
     <use style="fill:#d62728;stroke:#d62728;" x="242.687344" xlink:href="#m4d17eb6f4c" y="148.499942"/>
     <use style="fill:#d62728;stroke:#d62728;" x="258.920071" xlink:href="#m4d17eb6f4c" y="128.007033"/>
     <use style="fill:#d62728;stroke:#d62728;" x="275.152798" xlink:href="#m4d17eb6f4c" y="123.551942"/>
     <use style="fill:#d62728;stroke:#d62728;" x="291.385526" xlink:href="#m4d17eb6f4c" y="148.823856"/>
     <use style="fill:#d62728;stroke:#d62728;" x="307.618253" xlink:href="#m4d17eb6f4c" y="155.701552"/>
     <use style="fill:#d62728;stroke:#d62728;" x="323.85098" xlink:href="#m4d17eb6f4c" y="190.710181"/>
     <use style="fill:#d62728;stroke:#d62728;" x="340.083707" xlink:href="#m4d17eb6f4c" y="210.361913"/>
     <use style="fill:#d62728;stroke:#d62728;" x="356.316435" xlink:href="#m4d17eb6f4c" y="222.13725"/>
     <use style="fill:#d62728;stroke:#d62728;" x="372.549162" xlink:href="#m4d17eb6f4c" y="222.917104"/>
     <use style="fill:#d62728;stroke:#d62728;" x="388.781889" xlink:href="#m4d17eb6f4c" y="220.068466"/>
    </g>
   </g>
   <g id="line2d_32">
    <defs>
     <path d="M 0 3 
C 0.795609 3 1.55874 2.683901 2.12132 2.12132 
C 2.683901 1.55874 3 0.795609 3 0 
C 3 -0.795609 2.683901 -1.55874 2.12132 -2.12132 
C 1.55874 -2.683901 0.795609 -3 0 -3 
C -0.795609 -3 -1.55874 -2.683901 -2.12132 -2.12132 
C -2.683901 -1.55874 -3 -0.795609 -3 0 
C -3 0.795609 -2.683901 1.55874 -2.12132 2.12132 
C -1.55874 2.683901 -0.795609 3 0 3 
z
" id="mc6bf457b1f" style="stroke:#9467bd;"/>
    </defs>
    <g clip-path="url(#p2733d070c1)">
     <use style="fill:#9467bd;stroke:#9467bd;" x="96.592798" xlink:href="#mc6bf457b1f" y="193.42025"/>
     <use style="fill:#9467bd;stroke:#9467bd;" x="112.825526" xlink:href="#mc6bf457b1f" y="189.69225"/>
     <use style="fill:#9467bd;stroke:#9467bd;" x="129.058253" xlink:href="#mc6bf457b1f" y="193.368485"/>
     <use style="fill:#9467bd;stroke:#9467bd;" x="145.29098" xlink:href="#mc6bf457b1f" y="187.998394"/>
     <use style="fill:#9467bd;stroke:#9467bd;" x="161.523707" xlink:href="#mc6bf457b1f" y="197.350972"/>
     <use style="fill:#9467bd;stroke:#9467bd;" x="177.756435" xlink:href="#mc6bf457b1f" y="199.844992"/>
     <use style="fill:#9467bd;stroke:#9467bd;" x="193.989162" xlink:href="#mc6bf457b1f" y="194.333143"/>
     <use style="fill:#9467bd;stroke:#9467bd;" x="210.221889" xlink:href="#mc6bf457b1f" y="173.476172"/>
     <use style="fill:#9467bd;stroke:#9467bd;" x="226.454616" xlink:href="#mc6bf457b1f" y="150.225173"/>
     <use style="fill:#9467bd;stroke:#9467bd;" x="242.687344" xlink:href="#mc6bf457b1f" y="118.991234"/>
     <use style="fill:#9467bd;stroke:#9467bd;" x="258.920071" xlink:href="#mc6bf457b1f" y="104.743327"/>
     <use style="fill:#9467bd;stroke:#9467bd;" x="275.152798" xlink:href="#mc6bf457b1f" y="100.35532"/>
     <use style="fill:#9467bd;stroke:#9467bd;" x="291.385526" xlink:href="#mc6bf457b1f" y="120.036332"/>
     <use style="fill:#9467bd;stroke:#9467bd;" x="307.618253" xlink:href="#mc6bf457b1f" y="135.086457"/>
     <use style="fill:#9467bd;stroke:#9467bd;" x="323.85098" xlink:href="#mc6bf457b1f" y="156.878524"/>
     <use style="fill:#9467bd;stroke:#9467bd;" x="340.083707" xlink:href="#mc6bf457b1f" y="178.994444"/>
     <use style="fill:#9467bd;stroke:#9467bd;" x="356.316435" xlink:href="#mc6bf457b1f" y="196.74825"/>
     <use style="fill:#9467bd;stroke:#9467bd;" x="372.549162" xlink:href="#mc6bf457b1f" y="198.05865"/>
     <use style="fill:#9467bd;stroke:#9467bd;" x="388.781889" xlink:href="#mc6bf457b1f" y="197.739356"/>
    </g>
   </g>
   <g id="line2d_33">
    <defs>
     <path d="M 0 3 
C 0.795609 3 1.55874 2.683901 2.12132 2.12132 
C 2.683901 1.55874 3 0.795609 3 0 
C 3 -0.795609 2.683901 -1.55874 2.12132 -2.12132 
C 1.55874 -2.683901 0.795609 -3 0 -3 
C -0.795609 -3 -1.55874 -2.683901 -2.12132 -2.12132 
C -2.683901 -1.55874 -3 -0.795609 -3 0 
C -3 0.795609 -2.683901 1.55874 -2.12132 2.12132 
C -1.55874 2.683901 -0.795609 3 0 3 
z
" id="mf953d3cdd8" style="stroke:#8c564b;"/>
    </defs>
    <g clip-path="url(#p2733d070c1)">
     <use style="fill:#8c564b;stroke:#8c564b;" x="96.592798" xlink:href="#mf953d3cdd8" y="168.834404"/>
     <use style="fill:#8c564b;stroke:#8c564b;" x="112.825526" xlink:href="#mf953d3cdd8" y="169.938616"/>
     <use style="fill:#8c564b;stroke:#8c564b;" x="129.058253" xlink:href="#mf953d3cdd8" y="167.51625"/>
     <use style="fill:#8c564b;stroke:#8c564b;" x="145.29098" xlink:href="#mf953d3cdd8" y="163.902201"/>
     <use style="fill:#8c564b;stroke:#8c564b;" x="161.523707" xlink:href="#mf953d3cdd8" y="170.844339"/>
     <use style="fill:#8c564b;stroke:#8c564b;" x="177.756435" xlink:href="#mf953d3cdd8" y="174.34825"/>
     <use style="fill:#8c564b;stroke:#8c564b;" x="193.989162" xlink:href="#mf953d3cdd8" y="168.58825"/>
     <use style="fill:#8c564b;stroke:#8c564b;" x="210.221889" xlink:href="#mf953d3cdd8" y="157.607824"/>
     <use style="fill:#8c564b;stroke:#8c564b;" x="226.454616" xlink:href="#mf953d3cdd8" y="140.23591"/>
     <use style="fill:#8c564b;stroke:#8c564b;" x="242.687344" xlink:href="#mf953d3cdd8" y="106.66747"/>
     <use style="fill:#8c564b;stroke:#8c564b;" x="258.920071" xlink:href="#mf953d3cdd8" y="81.77325"/>
     <use style="fill:#8c564b;stroke:#8c564b;" x="275.152798" xlink:href="#mf953d3cdd8" y="78.91305"/>
     <use style="fill:#8c564b;stroke:#8c564b;" x="291.385526" xlink:href="#mf953d3cdd8" y="83.829598"/>
     <use style="fill:#8c564b;stroke:#8c564b;" x="307.618253" xlink:href="#mf953d3cdd8" y="101.631654"/>
     <use style="fill:#8c564b;stroke:#8c564b;" x="323.85098" xlink:href="#mf953d3cdd8" y="127.223493"/>
     <use style="fill:#8c564b;stroke:#8c564b;" x="340.083707" xlink:href="#mf953d3cdd8" y="153.206807"/>
     <use style="fill:#8c564b;stroke:#8c564b;" x="356.316435" xlink:href="#mf953d3cdd8" y="164.993639"/>
     <use style="fill:#8c564b;stroke:#8c564b;" x="372.549162" xlink:href="#mf953d3cdd8" y="171.887732"/>
     <use style="fill:#8c564b;stroke:#8c564b;" x="388.781889" xlink:href="#mf953d3cdd8" y="172.383758"/>
    </g>
   </g>
   <g id="line2d_34">
    <defs>
     <path d="M 0 3 
C 0.795609 3 1.55874 2.683901 2.12132 2.12132 
C 2.683901 1.55874 3 0.795609 3 0 
C 3 -0.795609 2.683901 -1.55874 2.12132 -2.12132 
C 1.55874 -2.683901 0.795609 -3 0 -3 
C -0.795609 -3 -1.55874 -2.683901 -2.12132 -2.12132 
C -2.683901 -1.55874 -3 -0.795609 -3 0 
C -3 0.795609 -2.683901 1.55874 -2.12132 2.12132 
C -1.55874 2.683901 -0.795609 3 0 3 
z
" id="m16052a95dc" style="stroke:#e377c2;"/>
    </defs>
    <g clip-path="url(#p2733d070c1)">
     <use style="fill:#e377c2;stroke:#e377c2;" x="96.592798" xlink:href="#m16052a95dc" y="147.646512"/>
     <use style="fill:#e377c2;stroke:#e377c2;" x="112.825526" xlink:href="#m16052a95dc" y="139.48125"/>
     <use style="fill:#e377c2;stroke:#e377c2;" x="129.058253" xlink:href="#m16052a95dc" y="141.540865"/>
     <use style="fill:#e377c2;stroke:#e377c2;" x="145.29098" xlink:href="#m16052a95dc" y="142.00125"/>
     <use style="fill:#e377c2;stroke:#e377c2;" x="161.523707" xlink:href="#m16052a95dc" y="144.753173"/>
     <use style="fill:#e377c2;stroke:#e377c2;" x="177.756435" xlink:href="#m16052a95dc" y="145.78125"/>
     <use style="fill:#e377c2;stroke:#e377c2;" x="193.989162" xlink:href="#m16052a95dc" y="148.913109"/>
     <use style="fill:#e377c2;stroke:#e377c2;" x="210.221889" xlink:href="#m16052a95dc" y="145.406099"/>
     <use style="fill:#e377c2;stroke:#e377c2;" x="226.454616" xlink:href="#m16052a95dc" y="133.862056"/>
     <use style="fill:#e377c2;stroke:#e377c2;" x="242.687344" xlink:href="#m16052a95dc" y="99.031544"/>
     <use style="fill:#e377c2;stroke:#e377c2;" x="258.920071" xlink:href="#m16052a95dc" y="65.77125"/>
     <use style="fill:#e377c2;stroke:#e377c2;" x="275.152798" xlink:href="#m16052a95dc" y="56.064704"/>
     <use style="fill:#e377c2;stroke:#e377c2;" x="291.385526" xlink:href="#m16052a95dc" y="52.512614"/>
     <use style="fill:#e377c2;stroke:#e377c2;" x="307.618253" xlink:href="#m16052a95dc" y="59.32425"/>
     <use style="fill:#e377c2;stroke:#e377c2;" x="323.85098" xlink:href="#m16052a95dc" y="88.521964"/>
     <use style="fill:#e377c2;stroke:#e377c2;" x="340.083707" xlink:href="#m16052a95dc" y="116.476656"/>
     <use style="fill:#e377c2;stroke:#e377c2;" x="356.316435" xlink:href="#m16052a95dc" y="135.613842"/>
     <use style="fill:#e377c2;stroke:#e377c2;" x="372.549162" xlink:href="#m16052a95dc" y="144.022096"/>
     <use style="fill:#e377c2;stroke:#e377c2;" x="388.781889" xlink:href="#m16052a95dc" y="148.838603"/>
    </g>
   </g>
   <g id="patch_3">
    <path d="M 64.127344 297.54825 
L 64.127344 31.43625 
" style="fill:none;stroke:#000000;stroke-linecap:square;stroke-linejoin:miter;stroke-width:0.8;"/>
   </g>
   <g id="patch_4">
    <path d="M 421.247344 297.54825 
L 421.247344 31.43625 
" style="fill:none;stroke:#000000;stroke-linecap:square;stroke-linejoin:miter;stroke-width:0.8;"/>
   </g>
   <g id="patch_5">
    <path d="M 64.127344 297.54825 
L 421.247344 297.54825 
" style="fill:none;stroke:#000000;stroke-linecap:square;stroke-linejoin:miter;stroke-width:0.8;"/>
   </g>
   <g id="patch_6">
    <path d="M 64.127344 31.43625 
L 421.247344 31.43625 
" style="fill:none;stroke:#000000;stroke-linecap:square;stroke-linejoin:miter;stroke-width:0.8;"/>
   </g>
   <g id="text_13">
    <!-- $62MHz\ 5mW\  m_F=4$ -->
    <defs>
     <path d="M 36.1875 35.984375 
Q 31.25 35.984375 28.78125 32.78125 
Q 26.3125 29.59375 26.3125 23.1875 
Q 26.3125 16.796875 28.78125 13.59375 
Q 31.25 10.40625 36.1875 10.40625 
Q 41.15625 10.40625 43.625 13.59375 
Q 46.09375 16.796875 46.09375 23.1875 
Q 46.09375 29.59375 43.625 32.78125 
Q 41.15625 35.984375 36.1875 35.984375 
z
M 59.421875 71 
L 59.421875 57.515625 
Q 54.78125 59.71875 50.671875 60.765625 
Q 46.578125 61.8125 42.671875 61.8125 
Q 34.28125 61.8125 29.59375 57.140625 
Q 24.90625 52.484375 24.125 43.3125 
Q 27.34375 45.703125 31.09375 46.890625 
Q 34.859375 48.09375 39.3125 48.09375 
Q 50.484375 48.09375 57.34375 41.546875 
Q 64.203125 35.015625 64.203125 24.421875 
Q 64.203125 12.703125 56.53125 5.640625 
Q 48.875 -1.421875 35.984375 -1.421875 
Q 21.78125 -1.421875 13.984375 8.171875 
Q 6.203125 17.78125 6.203125 35.40625 
Q 6.203125 53.46875 15.3125 63.796875 
Q 24.421875 74.125 40.28125 74.125 
Q 45.3125 74.125 50.046875 73.34375 
Q 54.78125 72.5625 59.421875 71 
z
" id="DejaVuSans-Bold-36"/>
     <path d="M 16.3125 72.90625 
L 39.40625 72.90625 
L 48.78125 34.1875 
L 73.390625 72.90625 
L 97.40625 72.90625 
L 83.203125 0 
L 65.375 0 
L 75.78125 53.8125 
L 50.484375 14.015625 
L 40.375 14.015625 
L 30.328125 53.8125 
L 19.921875 0 
L 2.09375 0 
z
" id="DejaVuSans-BoldOblique-4d"/>
     <path d="M 16.3125 72.90625 
L 35.109375 72.90625 
L 29.6875 45.125 
L 57.421875 45.125 
L 62.796875 72.90625 
L 81.59375 72.90625 
L 67.390625 0 
L 48.578125 0 
L 54.59375 30.90625 
L 26.90625 30.90625 
L 20.90625 0 
L 2.09375 0 
z
" id="DejaVuSans-BoldOblique-48"/>
     <path d="M 10.890625 54.6875 
L 58.59375 54.6875 
L 56.203125 42.484375 
L 22.125 12.5 
L 50.390625 12.5 
L 48 0 
L -0.875 0 
L 1.421875 12.203125 
L 35.59375 42.1875 
L 8.5 42.1875 
z
" id="DejaVuSans-BoldOblique-7a"/>
     <path d="M 62.703125 45.609375 
Q 66.75 50.640625 71.890625 53.3125 
Q 77.046875 56 82.625 56 
Q 89.9375 56 94.15625 51.96875 
Q 98.390625 47.953125 98.390625 40.921875 
Q 98.390625 39.453125 98.171875 37.5625 
Q 97.953125 35.6875 97.515625 33.296875 
L 91.015625 0 
L 73.390625 0 
L 78.90625 28.515625 
L 79.046875 29.25 
Q 80.328125 35.296875 80.328125 37.015625 
Q 80.328125 39.703125 78.78125 41.265625 
Q 77.25 42.828125 74.609375 42.828125 
Q 69.578125 42.828125 66.078125 38.703125 
Q 62.59375 34.578125 61.078125 26.90625 
L 55.8125 0 
L 38.1875 0 
L 43.796875 28.515625 
Q 44.53125 32.171875 44.828125 34.046875 
Q 45.125 35.9375 45.125 37.015625 
Q 45.125 39.75 43.609375 41.28125 
Q 42.09375 42.828125 39.40625 42.828125 
Q 34.578125 42.828125 30.9375 38.546875 
Q 27.296875 34.28125 25.875 26.90625 
L 20.609375 0 
L 3.078125 0 
L 13.71875 54.6875 
L 31.296875 54.6875 
L 29.6875 46.6875 
Q 33.796875 51.3125 38.421875 53.65625 
Q 43.0625 56 48.09375 56 
Q 53.765625 56 57.8125 53.09375 
Q 61.859375 50.203125 62.703125 45.609375 
z
" id="DejaVuSans-BoldOblique-6d"/>
     <path d="M 10.6875 72.90625 
L 28.078125 72.90625 
L 30.328125 19.921875 
L 53.21875 72.90625 
L 71.09375 72.90625 
L 73.484375 19.921875 
L 95.609375 72.90625 
L 114.3125 72.90625 
L 82.90625 0 
L 61.625 0 
L 59.1875 55.421875 
L 35.59375 0 
L 13.8125 0 
z
" id="DejaVuSans-BoldOblique-57"/>
     <path d="M 16.3125 72.90625 
L 67 72.90625 
L 64.203125 58.6875 
L 32.328125 58.6875 
L 29.6875 45.125 
L 59.71875 45.125 
L 56.890625 30.90625 
L 26.90625 30.90625 
L 20.90625 0 
L 2.09375 0 
z
" id="DejaVuSans-BoldOblique-46"/>
     <path d="M 10.59375 48.1875 
L 73.1875 48.1875 
L 73.1875 36.71875 
L 10.59375 36.71875 
z
M 10.59375 25.984375 
L 73.1875 25.984375 
L 73.1875 14.40625 
L 10.59375 14.40625 
z
" id="DejaVuSans-Bold-3d"/>
     <path d="M 36.8125 57.421875 
L 16.21875 26.90625 
L 36.8125 26.90625 
z
M 33.6875 72.90625 
L 54.59375 72.90625 
L 54.59375 26.90625 
L 64.984375 26.90625 
L 64.984375 13.28125 
L 54.59375 13.28125 
L 54.59375 0 
L 36.8125 0 
L 36.8125 13.28125 
L 4.5 13.28125 
L 4.5 29.390625 
z
" id="DejaVuSans-Bold-34"/>
    </defs>
    <g transform="translate(112.607344 25.43625)scale(0.24 -0.24)">
     <use transform="translate(0 0.78125)" xlink:href="#DejaVuSans-Bold-36"/>
     <use transform="translate(69.580078 0.78125)" xlink:href="#DejaVuSans-Bold-32"/>
     <use transform="translate(139.160156 0.78125)" xlink:href="#DejaVuSans-BoldOblique-4d"/>
     <use transform="translate(238.671875 0.78125)" xlink:href="#DejaVuSans-BoldOblique-48"/>
     <use transform="translate(322.363281 0.78125)" xlink:href="#DejaVuSans-BoldOblique-7a"/>
     <use transform="translate(415.299132 0.78125)" xlink:href="#DejaVuSans-Bold-35"/>
     <use transform="translate(484.87921 0.78125)" xlink:href="#DejaVuSans-BoldOblique-6d"/>
     <use transform="translate(589.078429 0.78125)" xlink:href="#DejaVuSans-BoldOblique-57"/>
     <use transform="translate(734.113889 0.78125)" xlink:href="#DejaVuSans-BoldOblique-6d"/>
     <use transform="translate(838.313107 -15.625)scale(0.7)" xlink:href="#DejaVuSans-BoldOblique-46"/>
     <use transform="translate(909.704709 0.78125)" xlink:href="#DejaVuSans-Bold-3d"/>
     <use transform="translate(1014.333615 0.78125)" xlink:href="#DejaVuSans-Bold-34"/>
    </g>
   </g>
  </g>
 </g>
 <defs>
  <clipPath id="p2733d070c1">
   <rect height="266.112" width="357.12" x="64.127344" y="31.43625"/>
  </clipPath>
 </defs>
</svg>
