<?xml version="1.0" encoding="utf-8" standalone="no"?>
<!DOCTYPE svg PUBLIC "-//W3C//DTD SVG 1.1//EN"
  "http://www.w3.org/Graphics/SVG/1.1/DTD/svg11.dtd">
<!-- Created with matplotlib (http://matplotlib.org/) -->
<svg height="349pt" version="1.1" viewBox="0 0 444 349" width="444pt" xmlns="http://www.w3.org/2000/svg" xmlns:xlink="http://www.w3.org/1999/xlink">
 <defs>
  <style type="text/css">
*{stroke-linecap:butt;stroke-linejoin:round;}
  </style>
 </defs>
 <g id="figure_1">
  <g id="patch_1">
   <path d="M 0 349.621687 
L 444.102422 349.621687 
L 444.102422 0 
L 0 0 
z
" style="fill:none;"/>
  </g>
  <g id="axes_1">
   <g id="patch_2">
    <path d="M 64.127344 297.54825 
L 421.247344 297.54825 
L 421.247344 31.43625 
L 64.127344 31.43625 
z
" style="fill:none;"/>
   </g>
   <g id="matplotlib.axis_1">
    <g id="xtick_1">
     <g id="line2d_1">
      <path clip-path="url(#p866940f7b6)" d="M 86.447344 297.54825 
L 86.447344 31.43625 
" style="fill:none;stroke:#b0b0b0;stroke-linecap:square;stroke-width:0.8;"/>
     </g>
     <g id="line2d_2">
      <defs>
       <path d="M 0 0 
L 0 3.5 
" id="mb37894f576" style="stroke:#000000;stroke-width:0.8;"/>
      </defs>
      <g>
       <use style="stroke:#000000;stroke-width:0.8;" x="86.447344" xlink:href="#mb37894f576" y="297.54825"/>
      </g>
     </g>
     <g id="text_1">
      <!-- −100 -->
      <defs>
       <path d="M 10.59375 37.109375 
L 73.1875 37.109375 
L 73.1875 25.59375 
L 10.59375 25.59375 
z
" id="DejaVuSans-Bold-2212"/>
       <path d="M 11.71875 12.984375 
L 28.328125 12.984375 
L 28.328125 60.109375 
L 11.28125 56.59375 
L 11.28125 69.390625 
L 28.21875 72.90625 
L 46.09375 72.90625 
L 46.09375 12.984375 
L 62.703125 12.984375 
L 62.703125 0 
L 11.71875 0 
z
" id="DejaVuSans-Bold-31"/>
       <path d="M 46 36.53125 
Q 46 50.203125 43.4375 55.78125 
Q 40.875 61.375 34.8125 61.375 
Q 28.765625 61.375 26.171875 55.78125 
Q 23.578125 50.203125 23.578125 36.53125 
Q 23.578125 22.703125 26.171875 17.03125 
Q 28.765625 11.375 34.8125 11.375 
Q 40.828125 11.375 43.40625 17.03125 
Q 46 22.703125 46 36.53125 
z
M 64.796875 36.375 
Q 64.796875 18.265625 56.984375 8.421875 
Q 49.171875 -1.421875 34.8125 -1.421875 
Q 20.40625 -1.421875 12.59375 8.421875 
Q 4.78125 18.265625 4.78125 36.375 
Q 4.78125 54.546875 12.59375 64.375 
Q 20.40625 74.21875 34.8125 74.21875 
Q 49.171875 74.21875 56.984375 64.375 
Q 64.796875 54.546875 64.796875 36.375 
z
" id="DejaVuSans-Bold-30"/>
      </defs>
      <g transform="translate(64.5075 315.945906)scale(0.15 -0.15)">
       <use xlink:href="#DejaVuSans-Bold-2212"/>
       <use x="83.789062" xlink:href="#DejaVuSans-Bold-31"/>
       <use x="153.369141" xlink:href="#DejaVuSans-Bold-30"/>
       <use x="222.949219" xlink:href="#DejaVuSans-Bold-30"/>
      </g>
     </g>
    </g>
    <g id="xtick_2">
     <g id="line2d_3">
      <path clip-path="url(#p866940f7b6)" d="M 142.247344 297.54825 
L 142.247344 31.43625 
" style="fill:none;stroke:#b0b0b0;stroke-linecap:square;stroke-width:0.8;"/>
     </g>
     <g id="line2d_4">
      <g>
       <use style="stroke:#000000;stroke-width:0.8;" x="142.247344" xlink:href="#mb37894f576" y="297.54825"/>
      </g>
     </g>
     <g id="text_2">
      <!-- −50 -->
      <defs>
       <path d="M 10.59375 72.90625 
L 57.328125 72.90625 
L 57.328125 59.078125 
L 25.59375 59.078125 
L 25.59375 47.796875 
Q 27.734375 48.390625 29.90625 48.703125 
Q 32.078125 49.03125 34.421875 49.03125 
Q 47.75 49.03125 55.171875 42.359375 
Q 62.59375 35.6875 62.59375 23.78125 
Q 62.59375 11.96875 54.515625 5.265625 
Q 46.4375 -1.421875 32.078125 -1.421875 
Q 25.875 -1.421875 19.796875 -0.21875 
Q 13.71875 0.984375 7.71875 3.421875 
L 7.71875 18.21875 
Q 13.671875 14.796875 19.015625 13.078125 
Q 24.359375 11.375 29.109375 11.375 
Q 35.9375 11.375 39.859375 14.71875 
Q 43.796875 18.0625 43.796875 23.78125 
Q 43.796875 29.546875 39.859375 32.859375 
Q 35.9375 36.1875 29.109375 36.1875 
Q 25.046875 36.1875 20.453125 35.125 
Q 15.875 34.078125 10.59375 31.890625 
z
" id="DejaVuSans-Bold-35"/>
      </defs>
      <g transform="translate(125.525859 315.945906)scale(0.15 -0.15)">
       <use xlink:href="#DejaVuSans-Bold-2212"/>
       <use x="83.789062" xlink:href="#DejaVuSans-Bold-35"/>
       <use x="153.369141" xlink:href="#DejaVuSans-Bold-30"/>
      </g>
     </g>
    </g>
    <g id="xtick_3">
     <g id="line2d_5">
      <path clip-path="url(#p866940f7b6)" d="M 198.047344 297.54825 
L 198.047344 31.43625 
" style="fill:none;stroke:#b0b0b0;stroke-linecap:square;stroke-width:0.8;"/>
     </g>
     <g id="line2d_6">
      <g>
       <use style="stroke:#000000;stroke-width:0.8;" x="198.047344" xlink:href="#mb37894f576" y="297.54825"/>
      </g>
     </g>
     <g id="text_3">
      <!-- 0 -->
      <g transform="translate(192.828984 315.945906)scale(0.15 -0.15)">
       <use xlink:href="#DejaVuSans-Bold-30"/>
      </g>
     </g>
    </g>
    <g id="xtick_4">
     <g id="line2d_7">
      <path clip-path="url(#p866940f7b6)" d="M 253.847344 297.54825 
L 253.847344 31.43625 
" style="fill:none;stroke:#b0b0b0;stroke-linecap:square;stroke-width:0.8;"/>
     </g>
     <g id="line2d_8">
      <g>
       <use style="stroke:#000000;stroke-width:0.8;" x="253.847344" xlink:href="#mb37894f576" y="297.54825"/>
      </g>
     </g>
     <g id="text_4">
      <!-- 50 -->
      <g transform="translate(243.410625 315.945906)scale(0.15 -0.15)">
       <use xlink:href="#DejaVuSans-Bold-35"/>
       <use x="69.580078" xlink:href="#DejaVuSans-Bold-30"/>
      </g>
     </g>
    </g>
    <g id="xtick_5">
     <g id="line2d_9">
      <path clip-path="url(#p866940f7b6)" d="M 309.647344 297.54825 
L 309.647344 31.43625 
" style="fill:none;stroke:#b0b0b0;stroke-linecap:square;stroke-width:0.8;"/>
     </g>
     <g id="line2d_10">
      <g>
       <use style="stroke:#000000;stroke-width:0.8;" x="309.647344" xlink:href="#mb37894f576" y="297.54825"/>
      </g>
     </g>
     <g id="text_5">
      <!-- 100 -->
      <g transform="translate(293.992266 315.945906)scale(0.15 -0.15)">
       <use xlink:href="#DejaVuSans-Bold-31"/>
       <use x="69.580078" xlink:href="#DejaVuSans-Bold-30"/>
       <use x="139.160156" xlink:href="#DejaVuSans-Bold-30"/>
      </g>
     </g>
    </g>
    <g id="xtick_6">
     <g id="line2d_11">
      <path clip-path="url(#p866940f7b6)" d="M 365.447344 297.54825 
L 365.447344 31.43625 
" style="fill:none;stroke:#b0b0b0;stroke-linecap:square;stroke-width:0.8;"/>
     </g>
     <g id="line2d_12">
      <g>
       <use style="stroke:#000000;stroke-width:0.8;" x="365.447344" xlink:href="#mb37894f576" y="297.54825"/>
      </g>
     </g>
     <g id="text_6">
      <!-- 150 -->
      <g transform="translate(349.792266 315.945906)scale(0.15 -0.15)">
       <use xlink:href="#DejaVuSans-Bold-31"/>
       <use x="69.580078" xlink:href="#DejaVuSans-Bold-35"/>
       <use x="139.160156" xlink:href="#DejaVuSans-Bold-30"/>
      </g>
     </g>
    </g>
    <g id="xtick_7">
     <g id="line2d_13">
      <path clip-path="url(#p866940f7b6)" d="M 421.247344 297.54825 
L 421.247344 31.43625 
" style="fill:none;stroke:#b0b0b0;stroke-linecap:square;stroke-width:0.8;"/>
     </g>
     <g id="line2d_14">
      <g>
       <use style="stroke:#000000;stroke-width:0.8;" x="421.247344" xlink:href="#mb37894f576" y="297.54825"/>
      </g>
     </g>
     <g id="text_7">
      <!-- 200 -->
      <defs>
       <path d="M 28.8125 13.8125 
L 60.890625 13.8125 
L 60.890625 0 
L 7.90625 0 
L 7.90625 13.8125 
L 34.515625 37.3125 
Q 38.09375 40.53125 39.796875 43.609375 
Q 41.5 46.6875 41.5 50 
Q 41.5 55.125 38.0625 58.25 
Q 34.625 61.375 28.90625 61.375 
Q 24.515625 61.375 19.28125 59.5 
Q 14.0625 57.625 8.109375 53.90625 
L 8.109375 69.921875 
Q 14.453125 72.015625 20.65625 73.109375 
Q 26.859375 74.21875 32.8125 74.21875 
Q 45.90625 74.21875 53.15625 68.453125 
Q 60.40625 62.703125 60.40625 52.390625 
Q 60.40625 46.4375 57.328125 41.28125 
Q 54.25 36.140625 44.390625 27.484375 
z
" id="DejaVuSans-Bold-32"/>
      </defs>
      <g transform="translate(405.592266 315.945906)scale(0.15 -0.15)">
       <use xlink:href="#DejaVuSans-Bold-32"/>
       <use x="69.580078" xlink:href="#DejaVuSans-Bold-30"/>
       <use x="139.160156" xlink:href="#DejaVuSans-Bold-30"/>
      </g>
     </g>
    </g>
    <g id="text_8">
     <!-- Detuning (kHz) -->
     <defs>
      <path d="M 19.671875 64.796875 
L 19.671875 8.109375 
L 31.59375 8.109375 
Q 46.6875 8.109375 53.6875 14.9375 
Q 60.6875 21.78125 60.6875 36.53125 
Q 60.6875 51.171875 53.6875 57.984375 
Q 46.6875 64.796875 31.59375 64.796875 
z
M 9.8125 72.90625 
L 30.078125 72.90625 
Q 51.265625 72.90625 61.171875 64.09375 
Q 71.09375 55.28125 71.09375 36.53125 
Q 71.09375 17.671875 61.125 8.828125 
Q 51.171875 0 30.078125 0 
L 9.8125 0 
z
" id="DejaVuSans-44"/>
      <path d="M 56.203125 29.59375 
L 56.203125 25.203125 
L 14.890625 25.203125 
Q 15.484375 15.921875 20.484375 11.0625 
Q 25.484375 6.203125 34.421875 6.203125 
Q 39.59375 6.203125 44.453125 7.46875 
Q 49.3125 8.734375 54.109375 11.28125 
L 54.109375 2.78125 
Q 49.265625 0.734375 44.1875 -0.34375 
Q 39.109375 -1.421875 33.890625 -1.421875 
Q 20.796875 -1.421875 13.15625 6.1875 
Q 5.515625 13.8125 5.515625 26.8125 
Q 5.515625 40.234375 12.765625 48.109375 
Q 20.015625 56 32.328125 56 
Q 43.359375 56 49.78125 48.890625 
Q 56.203125 41.796875 56.203125 29.59375 
z
M 47.21875 32.234375 
Q 47.125 39.59375 43.09375 43.984375 
Q 39.0625 48.390625 32.421875 48.390625 
Q 24.90625 48.390625 20.390625 44.140625 
Q 15.875 39.890625 15.1875 32.171875 
z
" id="DejaVuSans-65"/>
      <path d="M 18.3125 70.21875 
L 18.3125 54.6875 
L 36.8125 54.6875 
L 36.8125 47.703125 
L 18.3125 47.703125 
L 18.3125 18.015625 
Q 18.3125 11.328125 20.140625 9.421875 
Q 21.96875 7.515625 27.59375 7.515625 
L 36.8125 7.515625 
L 36.8125 0 
L 27.59375 0 
Q 17.1875 0 13.234375 3.875 
Q 9.28125 7.765625 9.28125 18.015625 
L 9.28125 47.703125 
L 2.6875 47.703125 
L 2.6875 54.6875 
L 9.28125 54.6875 
L 9.28125 70.21875 
z
" id="DejaVuSans-74"/>
      <path d="M 8.5 21.578125 
L 8.5 54.6875 
L 17.484375 54.6875 
L 17.484375 21.921875 
Q 17.484375 14.15625 20.5 10.265625 
Q 23.53125 6.390625 29.59375 6.390625 
Q 36.859375 6.390625 41.078125 11.03125 
Q 45.3125 15.671875 45.3125 23.6875 
L 45.3125 54.6875 
L 54.296875 54.6875 
L 54.296875 0 
L 45.3125 0 
L 45.3125 8.40625 
Q 42.046875 3.421875 37.71875 1 
Q 33.40625 -1.421875 27.6875 -1.421875 
Q 18.265625 -1.421875 13.375 4.4375 
Q 8.5 10.296875 8.5 21.578125 
z
M 31.109375 56 
z
" id="DejaVuSans-75"/>
      <path d="M 54.890625 33.015625 
L 54.890625 0 
L 45.90625 0 
L 45.90625 32.71875 
Q 45.90625 40.484375 42.875 44.328125 
Q 39.84375 48.1875 33.796875 48.1875 
Q 26.515625 48.1875 22.3125 43.546875 
Q 18.109375 38.921875 18.109375 30.90625 
L 18.109375 0 
L 9.078125 0 
L 9.078125 54.6875 
L 18.109375 54.6875 
L 18.109375 46.1875 
Q 21.34375 51.125 25.703125 53.5625 
Q 30.078125 56 35.796875 56 
Q 45.21875 56 50.046875 50.171875 
Q 54.890625 44.34375 54.890625 33.015625 
z
" id="DejaVuSans-6e"/>
      <path d="M 9.421875 54.6875 
L 18.40625 54.6875 
L 18.40625 0 
L 9.421875 0 
z
M 9.421875 75.984375 
L 18.40625 75.984375 
L 18.40625 64.59375 
L 9.421875 64.59375 
z
" id="DejaVuSans-69"/>
      <path d="M 45.40625 27.984375 
Q 45.40625 37.75 41.375 43.109375 
Q 37.359375 48.484375 30.078125 48.484375 
Q 22.859375 48.484375 18.828125 43.109375 
Q 14.796875 37.75 14.796875 27.984375 
Q 14.796875 18.265625 18.828125 12.890625 
Q 22.859375 7.515625 30.078125 7.515625 
Q 37.359375 7.515625 41.375 12.890625 
Q 45.40625 18.265625 45.40625 27.984375 
z
M 54.390625 6.78125 
Q 54.390625 -7.171875 48.1875 -13.984375 
Q 42 -20.796875 29.203125 -20.796875 
Q 24.46875 -20.796875 20.265625 -20.09375 
Q 16.0625 -19.390625 12.109375 -17.921875 
L 12.109375 -9.1875 
Q 16.0625 -11.328125 19.921875 -12.34375 
Q 23.78125 -13.375 27.78125 -13.375 
Q 36.625 -13.375 41.015625 -8.765625 
Q 45.40625 -4.15625 45.40625 5.171875 
L 45.40625 9.625 
Q 42.625 4.78125 38.28125 2.390625 
Q 33.9375 0 27.875 0 
Q 17.828125 0 11.671875 7.65625 
Q 5.515625 15.328125 5.515625 27.984375 
Q 5.515625 40.671875 11.671875 48.328125 
Q 17.828125 56 27.875 56 
Q 33.9375 56 38.28125 53.609375 
Q 42.625 51.21875 45.40625 46.390625 
L 45.40625 54.6875 
L 54.390625 54.6875 
z
" id="DejaVuSans-67"/>
      <path id="DejaVuSans-20"/>
      <path d="M 31 75.875 
Q 24.46875 64.65625 21.28125 53.65625 
Q 18.109375 42.671875 18.109375 31.390625 
Q 18.109375 20.125 21.3125 9.0625 
Q 24.515625 -2 31 -13.1875 
L 23.1875 -13.1875 
Q 15.875 -1.703125 12.234375 9.375 
Q 8.59375 20.453125 8.59375 31.390625 
Q 8.59375 42.28125 12.203125 53.3125 
Q 15.828125 64.359375 23.1875 75.875 
z
" id="DejaVuSans-28"/>
      <path d="M 9.078125 75.984375 
L 18.109375 75.984375 
L 18.109375 31.109375 
L 44.921875 54.6875 
L 56.390625 54.6875 
L 27.390625 29.109375 
L 57.625 0 
L 45.90625 0 
L 18.109375 26.703125 
L 18.109375 0 
L 9.078125 0 
z
" id="DejaVuSans-6b"/>
      <path d="M 9.8125 72.90625 
L 19.671875 72.90625 
L 19.671875 43.015625 
L 55.515625 43.015625 
L 55.515625 72.90625 
L 65.375 72.90625 
L 65.375 0 
L 55.515625 0 
L 55.515625 34.71875 
L 19.671875 34.71875 
L 19.671875 0 
L 9.8125 0 
z
" id="DejaVuSans-48"/>
      <path d="M 5.515625 54.6875 
L 48.1875 54.6875 
L 48.1875 46.484375 
L 14.40625 7.171875 
L 48.1875 7.171875 
L 48.1875 0 
L 4.296875 0 
L 4.296875 8.203125 
L 38.09375 47.515625 
L 5.515625 47.515625 
z
" id="DejaVuSans-7a"/>
      <path d="M 8.015625 75.875 
L 15.828125 75.875 
Q 23.140625 64.359375 26.78125 53.3125 
Q 30.421875 42.28125 30.421875 31.390625 
Q 30.421875 20.453125 26.78125 9.375 
Q 23.140625 -1.703125 15.828125 -13.1875 
L 8.015625 -13.1875 
Q 14.5 -2 17.703125 9.0625 
Q 20.90625 20.125 20.90625 31.390625 
Q 20.90625 42.671875 17.703125 53.65625 
Q 14.5 64.65625 8.015625 75.875 
z
" id="DejaVuSans-29"/>
     </defs>
     <g transform="translate(167.234219 338.262312)scale(0.2 -0.2)">
      <use xlink:href="#DejaVuSans-44"/>
      <use x="77.001953" xlink:href="#DejaVuSans-65"/>
      <use x="138.525391" xlink:href="#DejaVuSans-74"/>
      <use x="177.734375" xlink:href="#DejaVuSans-75"/>
      <use x="241.113281" xlink:href="#DejaVuSans-6e"/>
      <use x="304.492188" xlink:href="#DejaVuSans-69"/>
      <use x="332.275391" xlink:href="#DejaVuSans-6e"/>
      <use x="395.654297" xlink:href="#DejaVuSans-67"/>
      <use x="459.130859" xlink:href="#DejaVuSans-20"/>
      <use x="490.917969" xlink:href="#DejaVuSans-28"/>
      <use x="529.931641" xlink:href="#DejaVuSans-6b"/>
      <use x="587.841797" xlink:href="#DejaVuSans-48"/>
      <use x="663.037109" xlink:href="#DejaVuSans-7a"/>
      <use x="715.527344" xlink:href="#DejaVuSans-29"/>
     </g>
    </g>
   </g>
   <g id="matplotlib.axis_2">
    <g id="ytick_1">
     <g id="line2d_15">
      <path clip-path="url(#p866940f7b6)" d="M 64.127344 297.54825 
L 421.247344 297.54825 
" style="fill:none;stroke:#b0b0b0;stroke-linecap:square;stroke-width:0.8;"/>
     </g>
     <g id="line2d_16">
      <defs>
       <path d="M 0 0 
L -3.5 0 
" id="m5b953e7278" style="stroke:#000000;stroke-width:0.8;"/>
      </defs>
      <g>
       <use style="stroke:#000000;stroke-width:0.8;" x="64.127344" xlink:href="#m5b953e7278" y="297.54825"/>
      </g>
     </g>
     <g id="text_9">
      <!-- 0.0 -->
      <defs>
       <path d="M 10.203125 18.890625 
L 27.78125 18.890625 
L 27.78125 0 
L 10.203125 0 
z
" id="DejaVuSans-Bold-2e"/>
      </defs>
      <g transform="translate(30.55625 303.247078)scale(0.15 -0.15)">
       <use xlink:href="#DejaVuSans-Bold-30"/>
       <use x="69.580078" xlink:href="#DejaVuSans-Bold-2e"/>
       <use x="107.568359" xlink:href="#DejaVuSans-Bold-30"/>
      </g>
     </g>
    </g>
    <g id="ytick_2">
     <g id="line2d_17">
      <path clip-path="url(#p866940f7b6)" d="M 64.127344 244.32585 
L 421.247344 244.32585 
" style="fill:none;stroke:#b0b0b0;stroke-linecap:square;stroke-width:0.8;"/>
     </g>
     <g id="line2d_18">
      <g>
       <use style="stroke:#000000;stroke-width:0.8;" x="64.127344" xlink:href="#m5b953e7278" y="244.32585"/>
      </g>
     </g>
     <g id="text_10">
      <!-- 0.2 -->
      <g transform="translate(30.55625 250.024678)scale(0.15 -0.15)">
       <use xlink:href="#DejaVuSans-Bold-30"/>
       <use x="69.580078" xlink:href="#DejaVuSans-Bold-2e"/>
       <use x="107.568359" xlink:href="#DejaVuSans-Bold-32"/>
      </g>
     </g>
    </g>
    <g id="ytick_3">
     <g id="line2d_19">
      <path clip-path="url(#p866940f7b6)" d="M 64.127344 191.10345 
L 421.247344 191.10345 
" style="fill:none;stroke:#b0b0b0;stroke-linecap:square;stroke-width:0.8;"/>
     </g>
     <g id="line2d_20">
      <g>
       <use style="stroke:#000000;stroke-width:0.8;" x="64.127344" xlink:href="#m5b953e7278" y="191.10345"/>
      </g>
     </g>
     <g id="text_11">
      <!-- 0.4 -->
      <defs>
       <path d="M 36.8125 57.421875 
L 16.21875 26.90625 
L 36.8125 26.90625 
z
M 33.6875 72.90625 
L 54.59375 72.90625 
L 54.59375 26.90625 
L 64.984375 26.90625 
L 64.984375 13.28125 
L 54.59375 13.28125 
L 54.59375 0 
L 36.8125 0 
L 36.8125 13.28125 
L 4.5 13.28125 
L 4.5 29.390625 
z
" id="DejaVuSans-Bold-34"/>
      </defs>
      <g transform="translate(30.55625 196.802278)scale(0.15 -0.15)">
       <use xlink:href="#DejaVuSans-Bold-30"/>
       <use x="69.580078" xlink:href="#DejaVuSans-Bold-2e"/>
       <use x="107.568359" xlink:href="#DejaVuSans-Bold-34"/>
      </g>
     </g>
    </g>
    <g id="ytick_4">
     <g id="line2d_21">
      <path clip-path="url(#p866940f7b6)" d="M 64.127344 137.88105 
L 421.247344 137.88105 
" style="fill:none;stroke:#b0b0b0;stroke-linecap:square;stroke-width:0.8;"/>
     </g>
     <g id="line2d_22">
      <g>
       <use style="stroke:#000000;stroke-width:0.8;" x="64.127344" xlink:href="#m5b953e7278" y="137.88105"/>
      </g>
     </g>
     <g id="text_12">
      <!-- 0.6 -->
      <defs>
       <path d="M 36.1875 35.984375 
Q 31.25 35.984375 28.78125 32.78125 
Q 26.3125 29.59375 26.3125 23.1875 
Q 26.3125 16.796875 28.78125 13.59375 
Q 31.25 10.40625 36.1875 10.40625 
Q 41.15625 10.40625 43.625 13.59375 
Q 46.09375 16.796875 46.09375 23.1875 
Q 46.09375 29.59375 43.625 32.78125 
Q 41.15625 35.984375 36.1875 35.984375 
z
M 59.421875 71 
L 59.421875 57.515625 
Q 54.78125 59.71875 50.671875 60.765625 
Q 46.578125 61.8125 42.671875 61.8125 
Q 34.28125 61.8125 29.59375 57.140625 
Q 24.90625 52.484375 24.125 43.3125 
Q 27.34375 45.703125 31.09375 46.890625 
Q 34.859375 48.09375 39.3125 48.09375 
Q 50.484375 48.09375 57.34375 41.546875 
Q 64.203125 35.015625 64.203125 24.421875 
Q 64.203125 12.703125 56.53125 5.640625 
Q 48.875 -1.421875 35.984375 -1.421875 
Q 21.78125 -1.421875 13.984375 8.171875 
Q 6.203125 17.78125 6.203125 35.40625 
Q 6.203125 53.46875 15.3125 63.796875 
Q 24.421875 74.125 40.28125 74.125 
Q 45.3125 74.125 50.046875 73.34375 
Q 54.78125 72.5625 59.421875 71 
z
" id="DejaVuSans-Bold-36"/>
      </defs>
      <g transform="translate(30.55625 143.579878)scale(0.15 -0.15)">
       <use xlink:href="#DejaVuSans-Bold-30"/>
       <use x="69.580078" xlink:href="#DejaVuSans-Bold-2e"/>
       <use x="107.568359" xlink:href="#DejaVuSans-Bold-36"/>
      </g>
     </g>
    </g>
    <g id="ytick_5">
     <g id="line2d_23">
      <path clip-path="url(#p866940f7b6)" d="M 64.127344 84.65865 
L 421.247344 84.65865 
" style="fill:none;stroke:#b0b0b0;stroke-linecap:square;stroke-width:0.8;"/>
     </g>
     <g id="line2d_24">
      <g>
       <use style="stroke:#000000;stroke-width:0.8;" x="64.127344" xlink:href="#m5b953e7278" y="84.65865"/>
      </g>
     </g>
     <g id="text_13">
      <!-- 0.8 -->
      <defs>
       <path d="M 34.8125 32.625 
Q 29.546875 32.625 26.703125 29.734375 
Q 23.875 26.859375 23.875 21.484375 
Q 23.875 16.109375 26.703125 13.25 
Q 29.546875 10.40625 34.8125 10.40625 
Q 40.046875 10.40625 42.828125 13.25 
Q 45.609375 16.109375 45.609375 21.484375 
Q 45.609375 26.90625 42.828125 29.765625 
Q 40.046875 32.625 34.8125 32.625 
z
M 21.09375 38.8125 
Q 14.453125 40.828125 11.078125 44.96875 
Q 7.71875 49.125 7.71875 55.328125 
Q 7.71875 64.546875 14.59375 69.375 
Q 21.484375 74.21875 34.8125 74.21875 
Q 48.046875 74.21875 54.921875 69.40625 
Q 61.8125 64.59375 61.8125 55.328125 
Q 61.8125 49.125 58.421875 44.96875 
Q 55.03125 40.828125 48.390625 38.8125 
Q 55.8125 36.765625 59.59375 32.15625 
Q 63.375 27.546875 63.375 20.515625 
Q 63.375 9.671875 56.171875 4.125 
Q 48.96875 -1.421875 34.8125 -1.421875 
Q 20.609375 -1.421875 13.359375 4.125 
Q 6.109375 9.671875 6.109375 20.515625 
Q 6.109375 27.546875 9.890625 32.15625 
Q 13.671875 36.765625 21.09375 38.8125 
z
M 25.484375 53.421875 
Q 25.484375 49.078125 27.90625 46.734375 
Q 30.328125 44.390625 34.8125 44.390625 
Q 39.203125 44.390625 41.59375 46.734375 
Q 44 49.078125 44 53.421875 
Q 44 57.765625 41.59375 60.078125 
Q 39.203125 62.40625 34.8125 62.40625 
Q 30.328125 62.40625 27.90625 60.0625 
Q 25.484375 57.71875 25.484375 53.421875 
z
" id="DejaVuSans-Bold-38"/>
      </defs>
      <g transform="translate(30.55625 90.357478)scale(0.15 -0.15)">
       <use xlink:href="#DejaVuSans-Bold-30"/>
       <use x="69.580078" xlink:href="#DejaVuSans-Bold-2e"/>
       <use x="107.568359" xlink:href="#DejaVuSans-Bold-38"/>
      </g>
     </g>
    </g>
    <g id="ytick_6">
     <g id="line2d_25">
      <path clip-path="url(#p866940f7b6)" d="M 64.127344 31.43625 
L 421.247344 31.43625 
" style="fill:none;stroke:#b0b0b0;stroke-linecap:square;stroke-width:0.8;"/>
     </g>
     <g id="line2d_26">
      <g>
       <use style="stroke:#000000;stroke-width:0.8;" x="64.127344" xlink:href="#m5b953e7278" y="31.43625"/>
      </g>
     </g>
     <g id="text_14">
      <!-- 1.0 -->
      <g transform="translate(30.55625 37.135078)scale(0.15 -0.15)">
       <use xlink:href="#DejaVuSans-Bold-31"/>
       <use x="69.580078" xlink:href="#DejaVuSans-Bold-2e"/>
       <use x="107.568359" xlink:href="#DejaVuSans-Bold-30"/>
      </g>
     </g>
    </g>
    <g id="text_15">
     <!-- Survival -->
     <defs>
      <path d="M 53.515625 70.515625 
L 53.515625 60.890625 
Q 47.90625 63.578125 42.921875 64.890625 
Q 37.9375 66.21875 33.296875 66.21875 
Q 25.25 66.21875 20.875 63.09375 
Q 16.5 59.96875 16.5 54.203125 
Q 16.5 49.359375 19.40625 46.890625 
Q 22.3125 44.4375 30.421875 42.921875 
L 36.375 41.703125 
Q 47.40625 39.59375 52.65625 34.296875 
Q 57.90625 29 57.90625 20.125 
Q 57.90625 9.515625 50.796875 4.046875 
Q 43.703125 -1.421875 29.984375 -1.421875 
Q 24.8125 -1.421875 18.96875 -0.25 
Q 13.140625 0.921875 6.890625 3.21875 
L 6.890625 13.375 
Q 12.890625 10.015625 18.65625 8.296875 
Q 24.421875 6.59375 29.984375 6.59375 
Q 38.421875 6.59375 43.015625 9.90625 
Q 47.609375 13.234375 47.609375 19.390625 
Q 47.609375 24.75 44.3125 27.78125 
Q 41.015625 30.8125 33.5 32.328125 
L 27.484375 33.5 
Q 16.453125 35.6875 11.515625 40.375 
Q 6.59375 45.0625 6.59375 53.421875 
Q 6.59375 63.09375 13.40625 68.65625 
Q 20.21875 74.21875 32.171875 74.21875 
Q 37.3125 74.21875 42.625 73.28125 
Q 47.953125 72.359375 53.515625 70.515625 
z
" id="DejaVuSans-53"/>
      <path d="M 41.109375 46.296875 
Q 39.59375 47.171875 37.8125 47.578125 
Q 36.03125 48 33.890625 48 
Q 26.265625 48 22.1875 43.046875 
Q 18.109375 38.09375 18.109375 28.8125 
L 18.109375 0 
L 9.078125 0 
L 9.078125 54.6875 
L 18.109375 54.6875 
L 18.109375 46.1875 
Q 20.953125 51.171875 25.484375 53.578125 
Q 30.03125 56 36.53125 56 
Q 37.453125 56 38.578125 55.875 
Q 39.703125 55.765625 41.0625 55.515625 
z
" id="DejaVuSans-72"/>
      <path d="M 2.984375 54.6875 
L 12.5 54.6875 
L 29.59375 8.796875 
L 46.6875 54.6875 
L 56.203125 54.6875 
L 35.6875 0 
L 23.484375 0 
z
" id="DejaVuSans-76"/>
      <path d="M 34.28125 27.484375 
Q 23.390625 27.484375 19.1875 25 
Q 14.984375 22.515625 14.984375 16.5 
Q 14.984375 11.71875 18.140625 8.90625 
Q 21.296875 6.109375 26.703125 6.109375 
Q 34.1875 6.109375 38.703125 11.40625 
Q 43.21875 16.703125 43.21875 25.484375 
L 43.21875 27.484375 
z
M 52.203125 31.203125 
L 52.203125 0 
L 43.21875 0 
L 43.21875 8.296875 
Q 40.140625 3.328125 35.546875 0.953125 
Q 30.953125 -1.421875 24.3125 -1.421875 
Q 15.921875 -1.421875 10.953125 3.296875 
Q 6 8.015625 6 15.921875 
Q 6 25.140625 12.171875 29.828125 
Q 18.359375 34.515625 30.609375 34.515625 
L 43.21875 34.515625 
L 43.21875 35.40625 
Q 43.21875 41.609375 39.140625 45 
Q 35.0625 48.390625 27.6875 48.390625 
Q 23 48.390625 18.546875 47.265625 
Q 14.109375 46.140625 10.015625 43.890625 
L 10.015625 52.203125 
Q 14.9375 54.109375 19.578125 55.046875 
Q 24.21875 56 28.609375 56 
Q 40.484375 56 46.34375 49.84375 
Q 52.203125 43.703125 52.203125 31.203125 
z
" id="DejaVuSans-61"/>
      <path d="M 9.421875 75.984375 
L 18.40625 75.984375 
L 18.40625 0 
L 9.421875 0 
z
" id="DejaVuSans-6c"/>
     </defs>
     <g transform="translate(22.396875 204.811)rotate(-90)scale(0.2 -0.2)">
      <use xlink:href="#DejaVuSans-53"/>
      <use x="63.476562" xlink:href="#DejaVuSans-75"/>
      <use x="126.855469" xlink:href="#DejaVuSans-72"/>
      <use x="167.96875" xlink:href="#DejaVuSans-76"/>
      <use x="227.148438" xlink:href="#DejaVuSans-69"/>
      <use x="254.931641" xlink:href="#DejaVuSans-76"/>
      <use x="314.111328" xlink:href="#DejaVuSans-61"/>
      <use x="375.390625" xlink:href="#DejaVuSans-6c"/>
     </g>
    </g>
   </g>
   <g id="LineCollection_1">
    <path clip-path="url(#p866940f7b6)" d="M 86.447344 62.028249 
L 86.447344 48.203166 
" style="fill:none;stroke:#ff7f0e;stroke-width:1.5;"/>
    <path clip-path="url(#p866940f7b6)" d="M 97.607344 89.375065 
L 97.607344 71.210435 
" style="fill:none;stroke:#ff7f0e;stroke-width:1.5;"/>
    <path clip-path="url(#p866940f7b6)" d="M 108.767344 91.415731 
L 108.767344 71.553943 
" style="fill:none;stroke:#ff7f0e;stroke-width:1.5;"/>
    <path clip-path="url(#p866940f7b6)" d="M 119.927344 88.010303 
L 119.927344 69.902197 
" style="fill:none;stroke:#ff7f0e;stroke-width:1.5;"/>
    <path clip-path="url(#p866940f7b6)" d="M 131.087344 83.862525 
L 131.087344 66.294711 
" style="fill:none;stroke:#ff7f0e;stroke-width:1.5;"/>
    <path clip-path="url(#p866940f7b6)" d="M 142.247344 90.693293 
L 142.247344 72.482961 
" style="fill:none;stroke:#ff7f0e;stroke-width:1.5;"/>
    <path clip-path="url(#p866940f7b6)" d="M 153.407344 78.277153 
L 153.407344 60.957921 
" style="fill:none;stroke:#ff7f0e;stroke-width:1.5;"/>
    <path clip-path="url(#p866940f7b6)" d="M 164.567344 102.218892 
L 164.567344 83.615704 
" style="fill:none;stroke:#ff7f0e;stroke-width:1.5;"/>
    <path clip-path="url(#p866940f7b6)" d="M 175.727344 122.338503 
L 175.727344 101.013753 
" style="fill:none;stroke:#ff7f0e;stroke-width:1.5;"/>
    <path clip-path="url(#p866940f7b6)" d="M 186.887344 197.115719 
L 186.887344 172.809089 
" style="fill:none;stroke:#ff7f0e;stroke-width:1.5;"/>
    <path clip-path="url(#p866940f7b6)" d="M 198.047344 219.21667 
L 198.047344 196.25423 
" style="fill:none;stroke:#ff7f0e;stroke-width:1.5;"/>
    <path clip-path="url(#p866940f7b6)" d="M 209.207344 266.833474 
L 209.207344 250.119026 
" style="fill:none;stroke:#ff7f0e;stroke-width:1.5;"/>
    <path clip-path="url(#p866940f7b6)" d="M 220.367344 274.452169 
L 220.367344 258.704469 
" style="fill:none;stroke:#ff7f0e;stroke-width:1.5;"/>
    <path clip-path="url(#p866940f7b6)" d="M 231.527344 250.841389 
L 231.527344 231.423623 
" style="fill:none;stroke:#ff7f0e;stroke-width:1.5;"/>
    <path clip-path="url(#p866940f7b6)" d="M 242.687344 227.454418 
L 242.687344 205.378667 
" style="fill:none;stroke:#ff7f0e;stroke-width:1.5;"/>
    <path clip-path="url(#p866940f7b6)" d="M 253.847344 159.078632 
L 253.847344 135.289673 
" style="fill:none;stroke:#ff7f0e;stroke-width:1.5;"/>
    <path clip-path="url(#p866940f7b6)" d="M 265.007344 123.758824 
L 265.007344 102.409676 
" style="fill:none;stroke:#ff7f0e;stroke-width:1.5;"/>
    <path clip-path="url(#p866940f7b6)" d="M 276.167344 94.79625 
L 276.167344 75.78825 
" style="fill:none;stroke:#ff7f0e;stroke-width:1.5;"/>
    <path clip-path="url(#p866940f7b6)" d="M 287.327344 73.583465 
L 287.327344 57.896035 
" style="fill:none;stroke:#ff7f0e;stroke-width:1.5;"/>
    <path clip-path="url(#p866940f7b6)" d="M 298.487344 84.040922 
L 298.487344 66.044755 
" style="fill:none;stroke:#ff7f0e;stroke-width:1.5;"/>
    <path clip-path="url(#p866940f7b6)" d="M 309.647344 96.21109 
L 309.647344 78.01324 
" style="fill:none;stroke:#ff7f0e;stroke-width:1.5;"/>
    <path clip-path="url(#p866940f7b6)" d="M 320.807344 94.031844 
L 320.807344 76.379067 
" style="fill:none;stroke:#ff7f0e;stroke-width:1.5;"/>
    <path clip-path="url(#p866940f7b6)" d="M 331.967344 106.177877 
L 331.967344 85.24025 
" style="fill:none;stroke:#ff7f0e;stroke-width:1.5;"/>
    <path clip-path="url(#p866940f7b6)" d="M 343.127344 70.848929 
L 343.127344 56.123542 
" style="fill:none;stroke:#ff7f0e;stroke-width:1.5;"/>
    <path clip-path="url(#p866940f7b6)" d="M 354.287344 75.051319 
L 354.287344 57.977981 
" style="fill:none;stroke:#ff7f0e;stroke-width:1.5;"/>
    <path clip-path="url(#p866940f7b6)" d="M 365.447344 81.084062 
L 365.447344 64.707394 
" style="fill:none;stroke:#ff7f0e;stroke-width:1.5;"/>
   </g>
   <g id="LineCollection_2">
    <path clip-path="url(#p866940f7b6)" d="M 86.447344 66.644322 
L 86.447344 51.368503 
" style="fill:none;stroke:#1f77b4;stroke-width:1.5;"/>
    <path clip-path="url(#p866940f7b6)" d="M 97.607344 73.261047 
L 97.607344 57.686616 
" style="fill:none;stroke:#1f77b4;stroke-width:1.5;"/>
    <path clip-path="url(#p866940f7b6)" d="M 108.767344 66.52453 
L 108.767344 51.78797 
" style="fill:none;stroke:#1f77b4;stroke-width:1.5;"/>
    <path clip-path="url(#p866940f7b6)" d="M 119.927344 68.095937 
L 119.927344 53.191392 
" style="fill:none;stroke:#1f77b4;stroke-width:1.5;"/>
    <path clip-path="url(#p866940f7b6)" d="M 131.087344 79.571999 
L 131.087344 62.232026 
" style="fill:none;stroke:#1f77b4;stroke-width:1.5;"/>
    <path clip-path="url(#p866940f7b6)" d="M 142.247344 76.11802 
L 142.247344 59.11827 
" style="fill:none;stroke:#1f77b4;stroke-width:1.5;"/>
    <path clip-path="url(#p866940f7b6)" d="M 153.407344 64.859061 
L 153.407344 50.326055 
" style="fill:none;stroke:#1f77b4;stroke-width:1.5;"/>
    <path clip-path="url(#p866940f7b6)" d="M 164.567344 64.102872 
L 164.567344 50.341721 
" style="fill:none;stroke:#1f77b4;stroke-width:1.5;"/>
    <path clip-path="url(#p866940f7b6)" d="M 175.727344 76.208743 
L 175.727344 60.00171 
" style="fill:none;stroke:#1f77b4;stroke-width:1.5;"/>
    <path clip-path="url(#p866940f7b6)" d="M 186.887344 127.404844 
L 186.887344 104.60664 
" style="fill:none;stroke:#1f77b4;stroke-width:1.5;"/>
    <path clip-path="url(#p866940f7b6)" d="M 198.047344 197.551233 
L 198.047344 173.567667 
" style="fill:none;stroke:#1f77b4;stroke-width:1.5;"/>
    <path clip-path="url(#p866940f7b6)" d="M 209.207344 217.067257 
L 209.207344 193.968443 
" style="fill:none;stroke:#1f77b4;stroke-width:1.5;"/>
    <path clip-path="url(#p866940f7b6)" d="M 220.367344 263.261268 
L 220.367344 246.441082 
" style="fill:none;stroke:#1f77b4;stroke-width:1.5;"/>
    <path clip-path="url(#p866940f7b6)" d="M 231.527344 271.935261 
L 231.527344 256.092361 
" style="fill:none;stroke:#1f77b4;stroke-width:1.5;"/>
    <path clip-path="url(#p866940f7b6)" d="M 242.687344 257.805362 
L 242.687344 238.103938 
" style="fill:none;stroke:#1f77b4;stroke-width:1.5;"/>
    <path clip-path="url(#p866940f7b6)" d="M 253.847344 217.525527 
L 253.847344 195.386604 
" style="fill:none;stroke:#1f77b4;stroke-width:1.5;"/>
    <path clip-path="url(#p866940f7b6)" d="M 265.007344 161.55894 
L 265.007344 138.090379 
" style="fill:none;stroke:#1f77b4;stroke-width:1.5;"/>
    <path clip-path="url(#p866940f7b6)" d="M 276.167344 121.356829 
L 276.167344 99.452061 
" style="fill:none;stroke:#1f77b4;stroke-width:1.5;"/>
    <path clip-path="url(#p866940f7b6)" d="M 287.327344 91.687934 
L 287.327344 72.869639 
" style="fill:none;stroke:#1f77b4;stroke-width:1.5;"/>
    <path clip-path="url(#p866940f7b6)" d="M 298.487344 74.9884 
L 298.487344 58.392407 
" style="fill:none;stroke:#1f77b4;stroke-width:1.5;"/>
    <path clip-path="url(#p866940f7b6)" d="M 309.647344 81.952866 
L 309.647344 64.61615 
" style="fill:none;stroke:#1f77b4;stroke-width:1.5;"/>
    <path clip-path="url(#p866940f7b6)" d="M 320.807344 89.838329 
L 320.807344 70.450171 
" style="fill:none;stroke:#1f77b4;stroke-width:1.5;"/>
    <path clip-path="url(#p866940f7b6)" d="M 331.967344 67.719926 
L 331.967344 52.504298 
" style="fill:none;stroke:#1f77b4;stroke-width:1.5;"/>
    <path clip-path="url(#p866940f7b6)" d="M 343.127344 98.404965 
L 343.127344 79.379535 
" style="fill:none;stroke:#1f77b4;stroke-width:1.5;"/>
    <path clip-path="url(#p866940f7b6)" d="M 354.287344 75.051319 
L 354.287344 57.977981 
" style="fill:none;stroke:#1f77b4;stroke-width:1.5;"/>
    <path clip-path="url(#p866940f7b6)" d="M 365.447344 79.938919 
L 365.447344 62.047959 
" style="fill:none;stroke:#1f77b4;stroke-width:1.5;"/>
   </g>
   <g id="line2d_27">
    <path clip-path="url(#p866940f7b6)" d="M 86.447344 72.421749 
L 90.883887 74.747465 
L 99.645364 79.388352 
L 102.854184 80.79859 
L 105.588658 81.763228 
L 108.044103 82.398554 
L 110.332132 82.765476 
L 112.536453 82.895053 
L 114.684968 82.798748 
L 116.833482 82.477885 
L 119.0099 81.92554 
L 121.270026 81.119168 
L 123.669666 80.023686 
L 126.348334 78.549358 
L 129.585058 76.500425 
L 139.825382 69.812735 
L 142.11341 68.707059 
L 144.066606 68.003608 
L 145.824481 67.603156 
L 147.442843 67.461188 
L 148.949594 67.548877 
L 150.400539 67.853857 
L 151.823581 68.380662 
L 153.246624 69.148949 
L 154.669666 70.173454 
L 156.120611 71.495744 
L 157.627362 73.179093 
L 159.189918 75.271378 
L 160.80828 77.821924 
L 162.51035 80.935178 
L 164.296129 84.683076 
L 166.165616 89.137143 
L 168.146714 94.444653 
L 170.267326 100.780707 
L 172.555355 108.344761 
L 175.038703 117.35214 
L 177.773176 128.131621 
L 180.926192 141.500982 
L 184.888388 159.338041 
L 196.970296 214.438338 
L 199.927992 226.493524 
L 202.439243 235.833829 
L 204.671466 243.306612 
L 206.680467 249.274639 
L 208.494148 253.987322 
L 210.140413 257.671875 
L 211.647164 260.524236 
L 213.042303 262.705486 
L 214.325832 264.310888 
L 215.497749 265.434065 
L 216.585958 266.180108 
L 217.618361 266.621193 
L 218.594959 266.798161 
L 219.543653 266.745905 
L 220.492348 266.472862 
L 221.496849 265.943905 
L 222.557155 265.119611 
L 223.673266 263.959767 
L 224.873086 262.383439 
L 226.184517 260.277547 
L 227.60756 257.551826 
L 229.142213 254.116178 
L 230.816381 249.807599 
L 232.657965 244.43249 
L 234.694869 237.772044 
L 236.954995 229.593476 
L 239.522051 219.440599 
L 242.563455 206.463969 
L 246.553554 188.39098 
L 257.463545 138.458325 
L 260.728172 124.846005 
L 263.546354 114.014208 
L 266.085508 105.111895 
L 268.401439 97.773277 
L 270.577857 91.597835 
L 272.61476 86.473179 
L 274.540053 82.220403 
L 276.353734 78.739843 
L 278.083707 75.889721 
L 279.729972 73.594427 
L 281.320431 71.751627 
L 282.855085 70.309561 
L 284.333932 69.218395 
L 285.784878 68.417965 
L 287.235823 67.869486 
L 288.686768 67.556167 
L 290.193518 67.460535 
L 291.756075 67.586387 
L 293.430242 67.948145 
L 295.271826 68.581318 
L 297.336633 69.534498 
L 299.792078 70.924779 
L 303.084607 73.067699 
L 311.343833 78.55071 
L 314.189918 80.108647 
L 316.673266 81.220898 
L 318.989198 82.017708 
L 321.193518 82.543096 
L 323.342033 82.828663 
L 325.490548 82.890009 
L 327.666966 82.729374 
L 329.927092 82.33796 
L 332.326732 81.693341 
L 334.949594 80.753229 
L 337.963095 79.427168 
L 341.757875 77.498383 
L 353.644463 71.280737 
L 356.936993 69.915641 
L 359.894688 68.92535 
L 362.71287 68.213633 
L 365.447344 67.748761 
L 365.447344 67.748761 
" style="fill:none;stroke:#ff7f0e;stroke-linecap:square;stroke-width:1.5;"/>
   </g>
   <g id="line2d_28">
    <path clip-path="url(#p866940f7b6)" d="M 86.447344 60.245327 
L 89.739873 60.973447 
L 93.283527 61.988832 
L 97.41314 63.413737 
L 104.30513 66.076539 
L 109.578757 68.001893 
L 113.094508 69.053216 
L 116.080107 69.720051 
L 118.81458 70.105436 
L 121.381637 70.244766 
L 123.864986 70.159275 
L 126.348334 69.850795 
L 128.887488 69.307594 
L 131.538253 68.509135 
L 134.440143 67.397072 
L 137.927992 65.808858 
L 148.475247 60.82553 
L 150.874887 60.046806 
L 152.939693 59.60525 
L 154.781277 59.43268 
L 156.483347 59.490663 
L 158.101709 59.765358 
L 159.664265 60.255607 
L 161.198919 60.971739 
L 162.733572 61.938321 
L 164.268226 63.17197 
L 165.830782 64.718154 
L 167.421241 66.607261 
L 169.067506 68.911488 
L 170.797479 71.728059 
L 172.583257 75.070993 
L 174.452744 79.052262 
L 176.433842 83.811858 
L 178.526552 89.439614 
L 180.730872 96.019377 
L 183.102609 103.814765 
L 185.669666 113.032138 
L 188.515751 124.100218 
L 191.80828 137.834772 
L 195.965796 156.198763 
L 207.684968 208.549763 
L 210.782177 221.03941 
L 213.40504 230.727125 
L 215.720971 238.457769 
L 217.785778 244.606883 
L 219.655265 249.509611 
L 221.385238 253.442602 
L 222.947794 256.469035 
L 224.398739 258.814214 
L 225.738073 260.569602 
L 226.965796 261.825916 
L 228.10981 262.68815 
L 229.170116 263.218851 
L 230.174616 263.481873 
L 231.151214 263.513241 
L 232.127812 263.323334 
L 233.132312 262.897675 
L 234.192618 262.196263 
L 235.30873 261.18055 
L 236.50855 259.775241 
L 237.792078 257.918468 
L 239.187218 255.495367 
L 240.693968 252.419062 
L 242.340233 248.534246 
L 244.126012 243.733799 
L 246.079207 237.831454 
L 248.255625 230.522982 
L 250.683167 221.568545 
L 253.501349 210.28491 
L 256.933392 195.567725 
L 261.983797 172.80787 
L 269.238523 140.234537 
L 272.893788 124.880258 
L 275.963095 112.919566 
L 278.697569 103.138227 
L 281.180917 95.057132 
L 283.496849 88.259081 
L 285.673266 82.547149 
L 287.71017 77.807129 
L 289.663365 73.813932 
L 291.50495 70.539235 
L 293.290728 67.809045 
L 294.992798 65.602903 
L 296.639063 63.823003 
L 298.257425 62.397104 
L 299.819981 61.308956 
L 301.382537 60.487154 
L 302.945094 59.913341 
L 304.535553 59.563803 
L 306.181817 59.428383 
L 307.939693 59.510461 
L 309.837083 59.827167 
L 311.957695 60.414735 
L 314.41314 61.334813 
L 317.566156 62.769378 
L 328.392438 67.895835 
L 331.294328 68.907577 
L 333.945094 69.598905 
L 336.484247 70.031503 
L 338.967596 70.229297 
L 341.478847 70.204653 
L 344.073806 69.953204 
L 346.80828 69.461955 
L 349.821781 68.689955 
L 353.365436 67.542331 
L 358.304229 65.684449 
L 365.447344 62.957488 
L 365.447344 62.957488 
" style="fill:none;stroke:#1f77b4;stroke-linecap:square;stroke-width:1.5;"/>
   </g>
   <g id="line2d_29">
    <defs>
     <path d="M 0 3 
C 0.795609 3 1.55874 2.683901 2.12132 2.12132 
C 2.683901 1.55874 3 0.795609 3 0 
C 3 -0.795609 2.683901 -1.55874 2.12132 -2.12132 
C 1.55874 -2.683901 0.795609 -3 0 -3 
C -0.795609 -3 -1.55874 -2.683901 -2.12132 -2.12132 
C -2.683901 -1.55874 -3 -0.795609 -3 0 
C -3 0.795609 -2.683901 1.55874 -2.12132 2.12132 
C -1.55874 2.683901 -0.795609 3 0 3 
z
" id="m41b21472b5" style="stroke:#ff7f0e;"/>
    </defs>
    <g clip-path="url(#p866940f7b6)">
     <use style="fill:#ff7f0e;stroke:#ff7f0e;" x="86.447344" xlink:href="#m41b21472b5" y="55.115708"/>
     <use style="fill:#ff7f0e;stroke:#ff7f0e;" x="97.607344" xlink:href="#m41b21472b5" y="80.29275"/>
     <use style="fill:#ff7f0e;stroke:#ff7f0e;" x="108.767344" xlink:href="#m41b21472b5" y="81.484837"/>
     <use style="fill:#ff7f0e;stroke:#ff7f0e;" x="119.927344" xlink:href="#m41b21472b5" y="78.95625"/>
     <use style="fill:#ff7f0e;stroke:#ff7f0e;" x="131.087344" xlink:href="#m41b21472b5" y="75.078618"/>
     <use style="fill:#ff7f0e;stroke:#ff7f0e;" x="142.247344" xlink:href="#m41b21472b5" y="81.588127"/>
     <use style="fill:#ff7f0e;stroke:#ff7f0e;" x="153.407344" xlink:href="#m41b21472b5" y="69.617537"/>
     <use style="fill:#ff7f0e;stroke:#ff7f0e;" x="164.567344" xlink:href="#m41b21472b5" y="92.917298"/>
     <use style="fill:#ff7f0e;stroke:#ff7f0e;" x="175.727344" xlink:href="#m41b21472b5" y="111.676128"/>
     <use style="fill:#ff7f0e;stroke:#ff7f0e;" x="186.887344" xlink:href="#m41b21472b5" y="184.962404"/>
     <use style="fill:#ff7f0e;stroke:#ff7f0e;" x="198.047344" xlink:href="#m41b21472b5" y="207.73545"/>
     <use style="fill:#ff7f0e;stroke:#ff7f0e;" x="209.207344" xlink:href="#m41b21472b5" y="258.47625"/>
     <use style="fill:#ff7f0e;stroke:#ff7f0e;" x="220.367344" xlink:href="#m41b21472b5" y="266.578319"/>
     <use style="fill:#ff7f0e;stroke:#ff7f0e;" x="231.527344" xlink:href="#m41b21472b5" y="241.132506"/>
     <use style="fill:#ff7f0e;stroke:#ff7f0e;" x="242.687344" xlink:href="#m41b21472b5" y="216.416543"/>
     <use style="fill:#ff7f0e;stroke:#ff7f0e;" x="253.847344" xlink:href="#m41b21472b5" y="147.184152"/>
     <use style="fill:#ff7f0e;stroke:#ff7f0e;" x="265.007344" xlink:href="#m41b21472b5" y="113.08425"/>
     <use style="fill:#ff7f0e;stroke:#ff7f0e;" x="276.167344" xlink:href="#m41b21472b5" y="85.29225"/>
     <use style="fill:#ff7f0e;stroke:#ff7f0e;" x="287.327344" xlink:href="#m41b21472b5" y="65.73975"/>
     <use style="fill:#ff7f0e;stroke:#ff7f0e;" x="298.487344" xlink:href="#m41b21472b5" y="75.042838"/>
     <use style="fill:#ff7f0e;stroke:#ff7f0e;" x="309.647344" xlink:href="#m41b21472b5" y="87.112165"/>
     <use style="fill:#ff7f0e;stroke:#ff7f0e;" x="320.807344" xlink:href="#m41b21472b5" y="85.205455"/>
     <use style="fill:#ff7f0e;stroke:#ff7f0e;" x="331.967344" xlink:href="#m41b21472b5" y="95.709064"/>
     <use style="fill:#ff7f0e;stroke:#ff7f0e;" x="343.127344" xlink:href="#m41b21472b5" y="63.486235"/>
     <use style="fill:#ff7f0e;stroke:#ff7f0e;" x="354.287344" xlink:href="#m41b21472b5" y="66.51465"/>
     <use style="fill:#ff7f0e;stroke:#ff7f0e;" x="365.447344" xlink:href="#m41b21472b5" y="72.895728"/>
    </g>
   </g>
   <g id="line2d_30">
    <defs>
     <path d="M 0 3 
C 0.795609 3 1.55874 2.683901 2.12132 2.12132 
C 2.683901 1.55874 3 0.795609 3 0 
C 3 -0.795609 2.683901 -1.55874 2.12132 -2.12132 
C 1.55874 -2.683901 0.795609 -3 0 -3 
C -0.795609 -3 -1.55874 -2.683901 -2.12132 -2.12132 
C -2.683901 -1.55874 -3 -0.795609 -3 0 
C -3 0.795609 -2.683901 1.55874 -2.12132 2.12132 
C -1.55874 2.683901 -0.795609 3 0 3 
z
" id="mde329fac48" style="stroke:#1f77b4;"/>
    </defs>
    <g clip-path="url(#p866940f7b6)">
     <use style="fill:#1f77b4;stroke:#1f77b4;" x="86.447344" xlink:href="#mde329fac48" y="59.006412"/>
     <use style="fill:#1f77b4;stroke:#1f77b4;" x="97.607344" xlink:href="#mde329fac48" y="65.473831"/>
     <use style="fill:#1f77b4;stroke:#1f77b4;" x="108.767344" xlink:href="#mde329fac48" y="59.15625"/>
     <use style="fill:#1f77b4;stroke:#1f77b4;" x="119.927344" xlink:href="#mde329fac48" y="60.643665"/>
     <use style="fill:#1f77b4;stroke:#1f77b4;" x="131.087344" xlink:href="#mde329fac48" y="70.902013"/>
     <use style="fill:#1f77b4;stroke:#1f77b4;" x="142.247344" xlink:href="#mde329fac48" y="67.618145"/>
     <use style="fill:#1f77b4;stroke:#1f77b4;" x="153.407344" xlink:href="#mde329fac48" y="57.592558"/>
     <use style="fill:#1f77b4;stroke:#1f77b4;" x="164.567344" xlink:href="#mde329fac48" y="57.222297"/>
     <use style="fill:#1f77b4;stroke:#1f77b4;" x="175.727344" xlink:href="#mde329fac48" y="68.105226"/>
     <use style="fill:#1f77b4;stroke:#1f77b4;" x="186.887344" xlink:href="#mde329fac48" y="116.005742"/>
     <use style="fill:#1f77b4;stroke:#1f77b4;" x="198.047344" xlink:href="#mde329fac48" y="185.55945"/>
     <use style="fill:#1f77b4;stroke:#1f77b4;" x="209.207344" xlink:href="#mde329fac48" y="205.51785"/>
     <use style="fill:#1f77b4;stroke:#1f77b4;" x="220.367344" xlink:href="#mde329fac48" y="254.851175"/>
     <use style="fill:#1f77b4;stroke:#1f77b4;" x="231.527344" xlink:href="#mde329fac48" y="264.013811"/>
     <use style="fill:#1f77b4;stroke:#1f77b4;" x="242.687344" xlink:href="#mde329fac48" y="247.95465"/>
     <use style="fill:#1f77b4;stroke:#1f77b4;" x="253.847344" xlink:href="#mde329fac48" y="206.456065"/>
     <use style="fill:#1f77b4;stroke:#1f77b4;" x="265.007344" xlink:href="#mde329fac48" y="149.824659"/>
     <use style="fill:#1f77b4;stroke:#1f77b4;" x="276.167344" xlink:href="#mde329fac48" y="110.404445"/>
     <use style="fill:#1f77b4;stroke:#1f77b4;" x="287.327344" xlink:href="#mde329fac48" y="82.278787"/>
     <use style="fill:#1f77b4;stroke:#1f77b4;" x="298.487344" xlink:href="#mde329fac48" y="66.690404"/>
     <use style="fill:#1f77b4;stroke:#1f77b4;" x="309.647344" xlink:href="#mde329fac48" y="73.284508"/>
     <use style="fill:#1f77b4;stroke:#1f77b4;" x="320.807344" xlink:href="#mde329fac48" y="80.14425"/>
     <use style="fill:#1f77b4;stroke:#1f77b4;" x="331.967344" xlink:href="#mde329fac48" y="60.112112"/>
     <use style="fill:#1f77b4;stroke:#1f77b4;" x="343.127344" xlink:href="#mde329fac48" y="88.89225"/>
     <use style="fill:#1f77b4;stroke:#1f77b4;" x="354.287344" xlink:href="#mde329fac48" y="66.51465"/>
     <use style="fill:#1f77b4;stroke:#1f77b4;" x="365.447344" xlink:href="#mde329fac48" y="70.993439"/>
    </g>
   </g>
   <g id="patch_3">
    <path d="M 64.127344 297.54825 
L 64.127344 31.43625 
" style="fill:none;stroke:#000000;stroke-linecap:square;stroke-linejoin:miter;stroke-width:0.8;"/>
   </g>
   <g id="patch_4">
    <path d="M 421.247344 297.54825 
L 421.247344 31.43625 
" style="fill:none;stroke:#000000;stroke-linecap:square;stroke-linejoin:miter;stroke-width:0.8;"/>
   </g>
   <g id="patch_5">
    <path d="M 64.127344 297.54825 
L 421.247344 297.54825 
" style="fill:none;stroke:#000000;stroke-linecap:square;stroke-linejoin:miter;stroke-width:0.8;"/>
   </g>
   <g id="patch_6">
    <path d="M 64.127344 31.43625 
L 421.247344 31.43625 
" style="fill:none;stroke:#000000;stroke-linecap:square;stroke-linejoin:miter;stroke-width:0.8;"/>
   </g>
   <g id="text_16">
    <!-- 18.64(28) kHz -->
    <defs>
     <path d="M 37.703125 -13.1875 
L 23.1875 -13.1875 
Q 15.71875 -1.125 12.15625 9.734375 
Q 8.59375 20.609375 8.59375 31.296875 
Q 8.59375 42 12.171875 52.953125 
Q 15.765625 63.921875 23.1875 75.875 
L 37.703125 75.875 
Q 31.453125 64.3125 28.328125 53.25 
Q 25.203125 42.1875 25.203125 31.390625 
Q 25.203125 20.609375 28.296875 9.515625 
Q 31.390625 -1.5625 37.703125 -13.1875 
z
" id="DejaVuSans-Bold-28"/>
     <path d="M 8.015625 -13.1875 
Q 14.265625 -1.5625 17.390625 9.515625 
Q 20.515625 20.609375 20.515625 31.390625 
Q 20.515625 42.1875 17.390625 53.25 
Q 14.265625 64.3125 8.015625 75.875 
L 22.515625 75.875 
Q 29.9375 63.921875 33.515625 52.953125 
Q 37.109375 42 37.109375 31.296875 
Q 37.109375 20.609375 33.546875 9.734375 
Q 29.984375 -1.125 22.515625 -13.1875 
z
" id="DejaVuSans-Bold-29"/>
     <path id="DejaVuSans-Bold-20"/>
     <path d="M 8.40625 75.984375 
L 25.875 75.984375 
L 25.875 34.625 
L 46 54.6875 
L 66.3125 54.6875 
L 39.59375 29.59375 
L 68.40625 0 
L 47.21875 0 
L 25.875 22.796875 
L 25.875 0 
L 8.40625 0 
z
" id="DejaVuSans-Bold-6b"/>
     <path d="M 9.1875 72.90625 
L 27.984375 72.90625 
L 27.984375 45.125 
L 55.71875 45.125 
L 55.71875 72.90625 
L 74.515625 72.90625 
L 74.515625 0 
L 55.71875 0 
L 55.71875 30.90625 
L 27.984375 30.90625 
L 27.984375 0 
L 9.1875 0 
z
" id="DejaVuSans-Bold-48"/>
     <path d="M 5.71875 54.6875 
L 53.421875 54.6875 
L 53.421875 42.484375 
L 24.609375 12.5 
L 53.421875 12.5 
L 53.421875 0 
L 4.5 0 
L 4.5 12.203125 
L 33.296875 42.1875 
L 5.71875 42.1875 
z
" id="DejaVuSans-Bold-7a"/>
    </defs>
    <g style="fill:#ff7f0e;" transform="translate(69.707344 284.24265)scale(0.2 -0.2)">
     <use xlink:href="#DejaVuSans-Bold-31"/>
     <use x="69.580078" xlink:href="#DejaVuSans-Bold-38"/>
     <use x="139.160156" xlink:href="#DejaVuSans-Bold-2e"/>
     <use x="177.148438" xlink:href="#DejaVuSans-Bold-36"/>
     <use x="246.728516" xlink:href="#DejaVuSans-Bold-34"/>
     <use x="316.308594" xlink:href="#DejaVuSans-Bold-28"/>
     <use x="362.011719" xlink:href="#DejaVuSans-Bold-32"/>
     <use x="431.591797" xlink:href="#DejaVuSans-Bold-38"/>
     <use x="501.171875" xlink:href="#DejaVuSans-Bold-29"/>
     <use x="546.875" xlink:href="#DejaVuSans-Bold-20"/>
     <use x="581.689453" xlink:href="#DejaVuSans-Bold-6b"/>
     <use x="648.193359" xlink:href="#DejaVuSans-Bold-48"/>
     <use x="731.884766" xlink:href="#DejaVuSans-Bold-7a"/>
    </g>
   </g>
   <g id="text_17">
    <!-- 29.35(28) kHz -->
    <defs>
     <path d="M 10.015625 1.609375 
L 10.015625 15.09375 
Q 14.5 12.984375 18.59375 11.9375 
Q 22.703125 10.890625 26.703125 10.890625 
Q 35.109375 10.890625 39.796875 15.546875 
Q 44.484375 20.21875 45.3125 29.390625 
Q 42 26.953125 38.234375 25.734375 
Q 34.46875 24.515625 30.078125 24.515625 
Q 18.890625 24.515625 12.03125 31.03125 
Q 5.171875 37.546875 5.171875 48.1875 
Q 5.171875 59.96875 12.8125 67.046875 
Q 20.453125 74.125 33.296875 74.125 
Q 47.5625 74.125 55.375 64.5 
Q 63.1875 54.890625 63.1875 37.3125 
Q 63.1875 19.234375 54.046875 8.90625 
Q 44.921875 -1.421875 29 -1.421875 
Q 23.875 -1.421875 19.1875 -0.65625 
Q 14.5 0.09375 10.015625 1.609375 
z
M 33.203125 36.71875 
Q 38.140625 36.71875 40.625 39.90625 
Q 43.109375 43.109375 43.109375 49.515625 
Q 43.109375 55.859375 40.625 59.078125 
Q 38.140625 62.3125 33.203125 62.3125 
Q 28.265625 62.3125 25.78125 59.078125 
Q 23.296875 55.859375 23.296875 49.515625 
Q 23.296875 43.109375 25.78125 39.90625 
Q 28.265625 36.71875 33.203125 36.71875 
z
" id="DejaVuSans-Bold-39"/>
     <path d="M 46.578125 39.3125 
Q 53.953125 37.40625 57.78125 32.6875 
Q 61.625 27.984375 61.625 20.703125 
Q 61.625 9.859375 53.3125 4.21875 
Q 45.015625 -1.421875 29.109375 -1.421875 
Q 23.484375 -1.421875 17.84375 -0.515625 
Q 12.203125 0.390625 6.6875 2.203125 
L 6.6875 16.703125 
Q 11.96875 14.0625 17.15625 12.71875 
Q 22.359375 11.375 27.390625 11.375 
Q 34.859375 11.375 38.84375 13.953125 
Q 42.828125 16.546875 42.828125 21.390625 
Q 42.828125 26.375 38.75 28.9375 
Q 34.671875 31.5 26.703125 31.5 
L 19.1875 31.5 
L 19.1875 43.609375 
L 27.09375 43.609375 
Q 34.1875 43.609375 37.640625 45.828125 
Q 41.109375 48.046875 41.109375 52.59375 
Q 41.109375 56.78125 37.734375 59.078125 
Q 34.375 61.375 28.21875 61.375 
Q 23.6875 61.375 19.046875 60.34375 
Q 14.40625 59.328125 9.8125 57.328125 
L 9.8125 71.09375 
Q 15.375 72.65625 20.84375 73.4375 
Q 26.3125 74.21875 31.59375 74.21875 
Q 45.796875 74.21875 52.84375 69.546875 
Q 59.90625 64.890625 59.90625 55.515625 
Q 59.90625 49.125 56.53125 45.046875 
Q 53.171875 40.96875 46.578125 39.3125 
z
" id="DejaVuSans-Bold-33"/>
    </defs>
    <g style="fill:#1f77b4;" transform="translate(276.167344 191.10345)scale(0.2 -0.2)">
     <use xlink:href="#DejaVuSans-Bold-32"/>
     <use x="69.580078" xlink:href="#DejaVuSans-Bold-39"/>
     <use x="139.160156" xlink:href="#DejaVuSans-Bold-2e"/>
     <use x="177.148438" xlink:href="#DejaVuSans-Bold-33"/>
     <use x="246.728516" xlink:href="#DejaVuSans-Bold-35"/>
     <use x="316.308594" xlink:href="#DejaVuSans-Bold-28"/>
     <use x="362.011719" xlink:href="#DejaVuSans-Bold-32"/>
     <use x="431.591797" xlink:href="#DejaVuSans-Bold-38"/>
     <use x="501.171875" xlink:href="#DejaVuSans-Bold-29"/>
     <use x="546.875" xlink:href="#DejaVuSans-Bold-20"/>
     <use x="581.689453" xlink:href="#DejaVuSans-Bold-6b"/>
     <use x="648.193359" xlink:href="#DejaVuSans-Bold-48"/>
     <use x="731.884766" xlink:href="#DejaVuSans-Bold-7a"/>
    </g>
   </g>
   <g id="text_18">
    <!-- Trap at 56.5MHz -->
    <defs>
     <path d="M -0.296875 72.90625 
L 61.375 72.90625 
L 61.375 64.59375 
L 35.5 64.59375 
L 35.5 0 
L 25.59375 0 
L 25.59375 64.59375 
L -0.296875 64.59375 
z
" id="DejaVuSans-54"/>
     <path d="M 18.109375 8.203125 
L 18.109375 -20.796875 
L 9.078125 -20.796875 
L 9.078125 54.6875 
L 18.109375 54.6875 
L 18.109375 46.390625 
Q 20.953125 51.265625 25.265625 53.625 
Q 29.59375 56 35.59375 56 
Q 45.5625 56 51.78125 48.09375 
Q 58.015625 40.1875 58.015625 27.296875 
Q 58.015625 14.40625 51.78125 6.484375 
Q 45.5625 -1.421875 35.59375 -1.421875 
Q 29.59375 -1.421875 25.265625 0.953125 
Q 20.953125 3.328125 18.109375 8.203125 
z
M 48.6875 27.296875 
Q 48.6875 37.203125 44.609375 42.84375 
Q 40.53125 48.484375 33.40625 48.484375 
Q 26.265625 48.484375 22.1875 42.84375 
Q 18.109375 37.203125 18.109375 27.296875 
Q 18.109375 17.390625 22.1875 11.75 
Q 26.265625 6.109375 33.40625 6.109375 
Q 40.53125 6.109375 44.609375 11.75 
Q 48.6875 17.390625 48.6875 27.296875 
z
" id="DejaVuSans-70"/>
     <path d="M 10.796875 72.90625 
L 49.515625 72.90625 
L 49.515625 64.59375 
L 19.828125 64.59375 
L 19.828125 46.734375 
Q 21.96875 47.46875 24.109375 47.828125 
Q 26.265625 48.1875 28.421875 48.1875 
Q 40.625 48.1875 47.75 41.5 
Q 54.890625 34.8125 54.890625 23.390625 
Q 54.890625 11.625 47.5625 5.09375 
Q 40.234375 -1.421875 26.90625 -1.421875 
Q 22.3125 -1.421875 17.546875 -0.640625 
Q 12.796875 0.140625 7.71875 1.703125 
L 7.71875 11.625 
Q 12.109375 9.234375 16.796875 8.0625 
Q 21.484375 6.890625 26.703125 6.890625 
Q 35.15625 6.890625 40.078125 11.328125 
Q 45.015625 15.765625 45.015625 23.390625 
Q 45.015625 31 40.078125 35.4375 
Q 35.15625 39.890625 26.703125 39.890625 
Q 22.75 39.890625 18.8125 39.015625 
Q 14.890625 38.140625 10.796875 36.28125 
z
" id="DejaVuSans-35"/>
     <path d="M 33.015625 40.375 
Q 26.375 40.375 22.484375 35.828125 
Q 18.609375 31.296875 18.609375 23.390625 
Q 18.609375 15.53125 22.484375 10.953125 
Q 26.375 6.390625 33.015625 6.390625 
Q 39.65625 6.390625 43.53125 10.953125 
Q 47.40625 15.53125 47.40625 23.390625 
Q 47.40625 31.296875 43.53125 35.828125 
Q 39.65625 40.375 33.015625 40.375 
z
M 52.59375 71.296875 
L 52.59375 62.3125 
Q 48.875 64.0625 45.09375 64.984375 
Q 41.3125 65.921875 37.59375 65.921875 
Q 27.828125 65.921875 22.671875 59.328125 
Q 17.53125 52.734375 16.796875 39.40625 
Q 19.671875 43.65625 24.015625 45.921875 
Q 28.375 48.1875 33.59375 48.1875 
Q 44.578125 48.1875 50.953125 41.515625 
Q 57.328125 34.859375 57.328125 23.390625 
Q 57.328125 12.15625 50.6875 5.359375 
Q 44.046875 -1.421875 33.015625 -1.421875 
Q 20.359375 -1.421875 13.671875 8.265625 
Q 6.984375 17.96875 6.984375 36.375 
Q 6.984375 53.65625 15.1875 63.9375 
Q 23.390625 74.21875 37.203125 74.21875 
Q 40.921875 74.21875 44.703125 73.484375 
Q 48.484375 72.75 52.59375 71.296875 
z
" id="DejaVuSans-36"/>
     <path d="M 10.6875 12.40625 
L 21 12.40625 
L 21 0 
L 10.6875 0 
z
" id="DejaVuSans-2e"/>
     <path d="M 9.8125 72.90625 
L 24.515625 72.90625 
L 43.109375 23.296875 
L 61.8125 72.90625 
L 76.515625 72.90625 
L 76.515625 0 
L 66.890625 0 
L 66.890625 64.015625 
L 48.09375 14.015625 
L 38.1875 14.015625 
L 19.390625 64.015625 
L 19.390625 0 
L 9.8125 0 
z
" id="DejaVuSans-4d"/>
    </defs>
    <g transform="translate(143.398594 25.43625)scale(0.24 -0.24)">
     <use xlink:href="#DejaVuSans-54"/>
     <use x="60.865234" xlink:href="#DejaVuSans-72"/>
     <use x="101.978516" xlink:href="#DejaVuSans-61"/>
     <use x="163.257812" xlink:href="#DejaVuSans-70"/>
     <use x="226.734375" xlink:href="#DejaVuSans-20"/>
     <use x="258.521484" xlink:href="#DejaVuSans-61"/>
     <use x="319.800781" xlink:href="#DejaVuSans-74"/>
     <use x="359.009766" xlink:href="#DejaVuSans-20"/>
     <use x="390.796875" xlink:href="#DejaVuSans-35"/>
     <use x="454.419922" xlink:href="#DejaVuSans-36"/>
     <use x="518.042969" xlink:href="#DejaVuSans-2e"/>
     <use x="549.830078" xlink:href="#DejaVuSans-35"/>
     <use x="613.453125" xlink:href="#DejaVuSans-4d"/>
     <use x="699.732422" xlink:href="#DejaVuSans-48"/>
     <use x="774.927734" xlink:href="#DejaVuSans-7a"/>
    </g>
   </g>
   <g id="legend_1">
    <g id="patch_7">
     <path d="M 251.003594 287.54825 
L 407.247344 287.54825 
Q 411.247344 287.54825 411.247344 283.54825 
L 411.247344 226.83575 
Q 411.247344 222.83575 407.247344 222.83575 
L 251.003594 222.83575 
Q 247.003594 222.83575 247.003594 226.83575 
L 247.003594 283.54825 
Q 247.003594 287.54825 251.003594 287.54825 
z
" style="fill:#ffffff;opacity:0.8;stroke:#cccccc;stroke-linejoin:miter;"/>
    </g>
    <g id="LineCollection_3">
     <path d="M 275.003594 249.032625 
L 275.003594 229.032625 
" style="fill:none;stroke:#ff7f0e;stroke-width:1.5;"/>
    </g>
    <g id="line2d_31"/>
    <g id="line2d_32">
     <g>
      <use style="fill:#ff7f0e;stroke:#ff7f0e;" x="275.003594" xlink:href="#m41b21472b5" y="239.032625"/>
     </g>
    </g>
    <g id="text_19">
     <!-- 15.5mW -->
     <defs>
      <path d="M 59.078125 45.609375 
Q 62.40625 50.6875 66.96875 53.34375 
Q 71.53125 56 77 56 
Q 86.421875 56 91.359375 50.1875 
Q 96.296875 44.390625 96.296875 33.296875 
L 96.296875 0 
L 78.71875 0 
L 78.71875 28.515625 
Q 78.765625 29.15625 78.78125 29.828125 
Q 78.8125 30.515625 78.8125 31.78125 
Q 78.8125 37.59375 77.09375 40.203125 
Q 75.390625 42.828125 71.578125 42.828125 
Q 66.609375 42.828125 63.890625 38.71875 
Q 61.1875 34.625 61.078125 26.859375 
L 61.078125 0 
L 43.5 0 
L 43.5 28.515625 
Q 43.5 37.59375 41.9375 40.203125 
Q 40.375 42.828125 36.375 42.828125 
Q 31.34375 42.828125 28.609375 38.703125 
Q 25.875 34.578125 25.875 26.90625 
L 25.875 0 
L 8.296875 0 
L 8.296875 54.6875 
L 25.875 54.6875 
L 25.875 46.6875 
Q 29.109375 51.3125 33.28125 53.65625 
Q 37.453125 56 42.484375 56 
Q 48.140625 56 52.484375 53.265625 
Q 56.84375 50.53125 59.078125 45.609375 
z
" id="DejaVuSans-Bold-6d"/>
      <path d="M 2.984375 72.90625 
L 21 72.90625 
L 33.59375 19.921875 
L 46.09375 72.90625 
L 64.203125 72.90625 
L 76.703125 19.921875 
L 89.3125 72.90625 
L 107.171875 72.90625 
L 89.984375 0 
L 68.3125 0 
L 55.078125 55.421875 
L 42 0 
L 20.3125 0 
z
" id="DejaVuSans-Bold-57"/>
     </defs>
     <g transform="translate(311.003594 246.032625)scale(0.2 -0.2)">
      <use xlink:href="#DejaVuSans-Bold-31"/>
      <use x="69.580078" xlink:href="#DejaVuSans-Bold-35"/>
      <use x="139.160156" xlink:href="#DejaVuSans-Bold-2e"/>
      <use x="177.148438" xlink:href="#DejaVuSans-Bold-35"/>
      <use x="246.728516" xlink:href="#DejaVuSans-Bold-6d"/>
      <use x="350.927734" xlink:href="#DejaVuSans-Bold-57"/>
     </g>
    </g>
    <g id="LineCollection_4">
     <path d="M 275.003594 278.388875 
L 275.003594 258.388875 
" style="fill:none;stroke:#1f77b4;stroke-width:1.5;"/>
    </g>
    <g id="line2d_33"/>
    <g id="line2d_34">
     <g>
      <use style="fill:#1f77b4;stroke:#1f77b4;" x="275.003594" xlink:href="#mde329fac48" y="268.388875"/>
     </g>
    </g>
    <g id="text_20">
     <!-- 5mW -->
     <g transform="translate(311.003594 275.388875)scale(0.2 -0.2)">
      <use xlink:href="#DejaVuSans-Bold-35"/>
      <use x="69.580078" xlink:href="#DejaVuSans-Bold-6d"/>
      <use x="173.779297" xlink:href="#DejaVuSans-Bold-57"/>
     </g>
    </g>
   </g>
  </g>
 </g>
 <defs>
  <clipPath id="p866940f7b6">
   <rect height="266.112" width="357.12" x="64.127344" y="31.43625"/>
  </clipPath>
 </defs>
</svg>
