<?xml version="1.0" encoding="utf-8" standalone="no"?>
<!DOCTYPE svg PUBLIC "-//W3C//DTD SVG 1.1//EN"
  "http://www.w3.org/Graphics/SVG/1.1/DTD/svg11.dtd">
<!-- Created with matplotlib (http://matplotlib.org/) -->
<svg height="351pt" version="1.1" viewBox="0 0 678 351" width="678pt" xmlns="http://www.w3.org/2000/svg" xmlns:xlink="http://www.w3.org/1999/xlink">
 <defs>
  <style type="text/css">
*{stroke-linecap:butt;stroke-linejoin:round;}
  </style>
 </defs>
 <g id="figure_1">
  <g id="patch_1">
   <path d="M 0 351.865437 
L 678.375219 351.865437 
L 678.375219 0 
L 0 0 
z
" style="fill:none;"/>
  </g>
  <g id="axes_1">
   <g id="patch_2">
    <path d="M 70.999219 297.54825 
L 428.119219 297.54825 
L 428.119219 31.43625 
L 70.999219 31.43625 
z
" style="fill:none;"/>
   </g>
   <g id="matplotlib.axis_1">
    <g id="xtick_1">
     <g id="line2d_1">
      <path clip-path="url(#p012c1a1acd)" d="M 87.231946 297.54825 
L 87.231946 31.43625 
" style="fill:none;stroke:#b0b0b0;stroke-linecap:square;stroke-width:0.8;"/>
     </g>
     <g id="line2d_2">
      <defs>
       <path d="M 0 0 
L 0 3.5 
" id="m0df9ea002d" style="stroke:#000000;stroke-width:0.8;"/>
      </defs>
      <g>
       <use style="stroke:#000000;stroke-width:0.8;" x="87.231946" xlink:href="#m0df9ea002d" y="297.54825"/>
      </g>
     </g>
     <g id="text_1">
      <!-- −0.3 -->
      <defs>
       <path d="M 10.59375 37.109375 
L 73.1875 37.109375 
L 73.1875 25.59375 
L 10.59375 25.59375 
z
" id="DejaVuSans-Bold-2212"/>
       <path d="M 46 36.53125 
Q 46 50.203125 43.4375 55.78125 
Q 40.875 61.375 34.8125 61.375 
Q 28.765625 61.375 26.171875 55.78125 
Q 23.578125 50.203125 23.578125 36.53125 
Q 23.578125 22.703125 26.171875 17.03125 
Q 28.765625 11.375 34.8125 11.375 
Q 40.828125 11.375 43.40625 17.03125 
Q 46 22.703125 46 36.53125 
z
M 64.796875 36.375 
Q 64.796875 18.265625 56.984375 8.421875 
Q 49.171875 -1.421875 34.8125 -1.421875 
Q 20.40625 -1.421875 12.59375 8.421875 
Q 4.78125 18.265625 4.78125 36.375 
Q 4.78125 54.546875 12.59375 64.375 
Q 20.40625 74.21875 34.8125 74.21875 
Q 49.171875 74.21875 56.984375 64.375 
Q 64.796875 54.546875 64.796875 36.375 
z
" id="DejaVuSans-Bold-30"/>
       <path d="M 10.203125 18.890625 
L 27.78125 18.890625 
L 27.78125 0 
L 10.203125 0 
z
" id="DejaVuSans-Bold-2e"/>
       <path d="M 46.578125 39.3125 
Q 53.953125 37.40625 57.78125 32.6875 
Q 61.625 27.984375 61.625 20.703125 
Q 61.625 9.859375 53.3125 4.21875 
Q 45.015625 -1.421875 29.109375 -1.421875 
Q 23.484375 -1.421875 17.84375 -0.515625 
Q 12.203125 0.390625 6.6875 2.203125 
L 6.6875 16.703125 
Q 11.96875 14.0625 17.15625 12.71875 
Q 22.359375 11.375 27.390625 11.375 
Q 34.859375 11.375 38.84375 13.953125 
Q 42.828125 16.546875 42.828125 21.390625 
Q 42.828125 26.375 38.75 28.9375 
Q 34.671875 31.5 26.703125 31.5 
L 19.1875 31.5 
L 19.1875 43.609375 
L 27.09375 43.609375 
Q 34.1875 43.609375 37.640625 45.828125 
Q 41.109375 48.046875 41.109375 52.59375 
Q 41.109375 56.78125 37.734375 59.078125 
Q 34.375 61.375 28.21875 61.375 
Q 23.6875 61.375 19.046875 60.34375 
Q 14.40625 59.328125 9.8125 57.328125 
L 9.8125 71.09375 
Q 15.375 72.65625 20.84375 73.4375 
Q 26.3125 74.21875 31.59375 74.21875 
Q 45.796875 74.21875 52.84375 69.546875 
Q 59.90625 64.890625 59.90625 55.515625 
Q 59.90625 49.125 56.53125 45.046875 
Q 53.171875 40.96875 46.578125 39.3125 
z
" id="DejaVuSans-Bold-33"/>
      </defs>
      <g transform="translate(67.661634 315.945906)scale(0.15 -0.15)">
       <use xlink:href="#DejaVuSans-Bold-2212"/>
       <use x="83.789062" xlink:href="#DejaVuSans-Bold-30"/>
       <use x="153.369141" xlink:href="#DejaVuSans-Bold-2e"/>
       <use x="191.357422" xlink:href="#DejaVuSans-Bold-33"/>
      </g>
     </g>
    </g>
    <g id="xtick_2">
     <g id="line2d_3">
      <path clip-path="url(#p012c1a1acd)" d="M 141.341037 297.54825 
L 141.341037 31.43625 
" style="fill:none;stroke:#b0b0b0;stroke-linecap:square;stroke-width:0.8;"/>
     </g>
     <g id="line2d_4">
      <g>
       <use style="stroke:#000000;stroke-width:0.8;" x="141.341037" xlink:href="#m0df9ea002d" y="297.54825"/>
      </g>
     </g>
     <g id="text_2">
      <!-- −0.2 -->
      <defs>
       <path d="M 28.8125 13.8125 
L 60.890625 13.8125 
L 60.890625 0 
L 7.90625 0 
L 7.90625 13.8125 
L 34.515625 37.3125 
Q 38.09375 40.53125 39.796875 43.609375 
Q 41.5 46.6875 41.5 50 
Q 41.5 55.125 38.0625 58.25 
Q 34.625 61.375 28.90625 61.375 
Q 24.515625 61.375 19.28125 59.5 
Q 14.0625 57.625 8.109375 53.90625 
L 8.109375 69.921875 
Q 14.453125 72.015625 20.65625 73.109375 
Q 26.859375 74.21875 32.8125 74.21875 
Q 45.90625 74.21875 53.15625 68.453125 
Q 60.40625 62.703125 60.40625 52.390625 
Q 60.40625 46.4375 57.328125 41.28125 
Q 54.25 36.140625 44.390625 27.484375 
z
" id="DejaVuSans-Bold-32"/>
      </defs>
      <g transform="translate(121.770724 315.945906)scale(0.15 -0.15)">
       <use xlink:href="#DejaVuSans-Bold-2212"/>
       <use x="83.789062" xlink:href="#DejaVuSans-Bold-30"/>
       <use x="153.369141" xlink:href="#DejaVuSans-Bold-2e"/>
       <use x="191.357422" xlink:href="#DejaVuSans-Bold-32"/>
      </g>
     </g>
    </g>
    <g id="xtick_3">
     <g id="line2d_5">
      <path clip-path="url(#p012c1a1acd)" d="M 195.450128 297.54825 
L 195.450128 31.43625 
" style="fill:none;stroke:#b0b0b0;stroke-linecap:square;stroke-width:0.8;"/>
     </g>
     <g id="line2d_6">
      <g>
       <use style="stroke:#000000;stroke-width:0.8;" x="195.450128" xlink:href="#m0df9ea002d" y="297.54825"/>
      </g>
     </g>
     <g id="text_3">
      <!-- −0.1 -->
      <defs>
       <path d="M 11.71875 12.984375 
L 28.328125 12.984375 
L 28.328125 60.109375 
L 11.28125 56.59375 
L 11.28125 69.390625 
L 28.21875 72.90625 
L 46.09375 72.90625 
L 46.09375 12.984375 
L 62.703125 12.984375 
L 62.703125 0 
L 11.71875 0 
z
" id="DejaVuSans-Bold-31"/>
      </defs>
      <g transform="translate(175.879815 315.945906)scale(0.15 -0.15)">
       <use xlink:href="#DejaVuSans-Bold-2212"/>
       <use x="83.789062" xlink:href="#DejaVuSans-Bold-30"/>
       <use x="153.369141" xlink:href="#DejaVuSans-Bold-2e"/>
       <use x="191.357422" xlink:href="#DejaVuSans-Bold-31"/>
      </g>
     </g>
    </g>
    <g id="xtick_4">
     <g id="line2d_7">
      <path clip-path="url(#p012c1a1acd)" d="M 249.559219 297.54825 
L 249.559219 31.43625 
" style="fill:none;stroke:#b0b0b0;stroke-linecap:square;stroke-width:0.8;"/>
     </g>
     <g id="line2d_8">
      <g>
       <use style="stroke:#000000;stroke-width:0.8;" x="249.559219" xlink:href="#m0df9ea002d" y="297.54825"/>
      </g>
     </g>
     <g id="text_4">
      <!-- 0.0 -->
      <g transform="translate(236.273672 315.945906)scale(0.15 -0.15)">
       <use xlink:href="#DejaVuSans-Bold-30"/>
       <use x="69.580078" xlink:href="#DejaVuSans-Bold-2e"/>
       <use x="107.568359" xlink:href="#DejaVuSans-Bold-30"/>
      </g>
     </g>
    </g>
    <g id="xtick_5">
     <g id="line2d_9">
      <path clip-path="url(#p012c1a1acd)" d="M 303.66831 297.54825 
L 303.66831 31.43625 
" style="fill:none;stroke:#b0b0b0;stroke-linecap:square;stroke-width:0.8;"/>
     </g>
     <g id="line2d_10">
      <g>
       <use style="stroke:#000000;stroke-width:0.8;" x="303.66831" xlink:href="#m0df9ea002d" y="297.54825"/>
      </g>
     </g>
     <g id="text_5">
      <!-- 0.1 -->
      <g transform="translate(290.382763 315.945906)scale(0.15 -0.15)">
       <use xlink:href="#DejaVuSans-Bold-30"/>
       <use x="69.580078" xlink:href="#DejaVuSans-Bold-2e"/>
       <use x="107.568359" xlink:href="#DejaVuSans-Bold-31"/>
      </g>
     </g>
    </g>
    <g id="xtick_6">
     <g id="line2d_11">
      <path clip-path="url(#p012c1a1acd)" d="M 357.777401 297.54825 
L 357.777401 31.43625 
" style="fill:none;stroke:#b0b0b0;stroke-linecap:square;stroke-width:0.8;"/>
     </g>
     <g id="line2d_12">
      <g>
       <use style="stroke:#000000;stroke-width:0.8;" x="357.777401" xlink:href="#m0df9ea002d" y="297.54825"/>
      </g>
     </g>
     <g id="text_6">
      <!-- 0.2 -->
      <g transform="translate(344.491854 315.945906)scale(0.15 -0.15)">
       <use xlink:href="#DejaVuSans-Bold-30"/>
       <use x="69.580078" xlink:href="#DejaVuSans-Bold-2e"/>
       <use x="107.568359" xlink:href="#DejaVuSans-Bold-32"/>
      </g>
     </g>
    </g>
    <g id="xtick_7">
     <g id="line2d_13">
      <path clip-path="url(#p012c1a1acd)" d="M 411.886491 297.54825 
L 411.886491 31.43625 
" style="fill:none;stroke:#b0b0b0;stroke-linecap:square;stroke-width:0.8;"/>
     </g>
     <g id="line2d_14">
      <g>
       <use style="stroke:#000000;stroke-width:0.8;" x="411.886491" xlink:href="#m0df9ea002d" y="297.54825"/>
      </g>
     </g>
     <g id="text_7">
      <!-- 0.3 -->
      <g transform="translate(398.600945 315.945906)scale(0.15 -0.15)">
       <use xlink:href="#DejaVuSans-Bold-30"/>
       <use x="69.580078" xlink:href="#DejaVuSans-Bold-2e"/>
       <use x="107.568359" xlink:href="#DejaVuSans-Bold-33"/>
      </g>
     </g>
    </g>
    <g id="text_8">
     <!-- $B_y (G)$ -->
     <defs>
      <path d="M 39.984375 44.671875 
Q 45.015625 44.671875 47.84375 47.203125 
Q 50.6875 49.75 50.6875 54.203125 
Q 50.6875 57.078125 48.703125 58.59375 
Q 46.734375 60.109375 43.015625 60.109375 
L 32.515625 60.109375 
L 29.5 44.671875 
z
M 34.421875 12.796875 
Q 40.875 12.796875 44.328125 15.875 
Q 47.796875 18.953125 47.796875 24.703125 
Q 47.796875 28.375 45.40625 30.125 
Q 43.015625 31.890625 38.09375 31.890625 
L 27 31.890625 
L 23.296875 12.796875 
z
M 56.6875 39.015625 
Q 61.46875 37.640625 64.078125 34 
Q 66.703125 30.375 66.703125 25 
Q 66.703125 13.234375 57.9375 6.609375 
Q 49.171875 0 33.296875 0 
L 2.09375 0 
L 16.3125 72.90625 
L 44.484375 72.90625 
Q 57.46875 72.90625 63.6875 69.09375 
Q 69.921875 65.28125 69.921875 57.328125 
Q 69.921875 50.640625 66.25 45.578125 
Q 62.59375 40.53125 56.6875 39.015625 
z
" id="DejaVuSans-BoldOblique-42"/>
      <path d="M 6.59375 54.6875 
L 23.09375 54.6875 
L 30.609375 16.796875 
L 50 54.6875 
L 68.703125 54.6875 
L 34.078125 -5.171875 
Q 28.265625 -15.28125 23.328125 -18.421875 
Q 18.40625 -21.578125 10.59375 -21.578125 
L 0 -21.578125 
L 1.8125 -10.109375 
L 7.328125 -10.109375 
Q 11.625 -10.109375 13.984375 -8.671875 
Q 16.359375 -7.234375 18.21875 -3.609375 
L 19.828125 -0.6875 
z
" id="DejaVuSans-BoldOblique-79"/>
      <path d="M 37.703125 -13.1875 
L 23.1875 -13.1875 
Q 15.71875 -1.125 12.15625 9.734375 
Q 8.59375 20.609375 8.59375 31.296875 
Q 8.59375 42 12.171875 52.953125 
Q 15.765625 63.921875 23.1875 75.875 
L 37.703125 75.875 
Q 31.453125 64.3125 28.328125 53.25 
Q 25.203125 42.1875 25.203125 31.390625 
Q 25.203125 20.609375 28.296875 9.515625 
Q 31.390625 -1.5625 37.703125 -13.1875 
z
" id="DejaVuSans-Bold-28"/>
      <path d="M 68.109375 5.421875 
Q 60.984375 1.953125 53.3125 0.265625 
Q 45.65625 -1.421875 36.921875 -1.421875 
Q 21.390625 -1.421875 12.5 6.46875 
Q 3.609375 14.359375 3.609375 27.984375 
Q 3.609375 36.8125 6.390625 44.546875 
Q 9.1875 52.296875 14.703125 58.6875 
Q 21.4375 66.5 30.59375 70.359375 
Q 39.75 74.21875 51.515625 74.21875 
Q 58.0625 74.21875 64.703125 72.84375 
Q 71.34375 71.484375 77.78125 68.796875 
L 74.90625 53.71875 
Q 68.953125 57.171875 63.25 58.875 
Q 57.5625 60.59375 51.8125 60.59375 
Q 39.203125 60.59375 31.296875 52.1875 
Q 23.390625 43.796875 23.390625 30.609375 
Q 23.390625 21.875 28 17.03125 
Q 32.625 12.203125 41.015625 12.203125 
Q 43.75 12.203125 46.484375 12.5625 
Q 49.21875 12.9375 52 13.71875 
L 54.78125 27.875 
L 43.3125 27.875 
L 45.703125 40.484375 
L 74.90625 40.484375 
z
" id="DejaVuSans-BoldOblique-47"/>
      <path d="M 8.015625 -13.1875 
Q 14.265625 -1.5625 17.390625 9.515625 
Q 20.515625 20.609375 20.515625 31.390625 
Q 20.515625 42.1875 17.390625 53.25 
Q 14.265625 64.3125 8.015625 75.875 
L 22.515625 75.875 
Q 29.9375 63.921875 33.515625 52.953125 
Q 37.109375 42 37.109375 31.296875 
Q 37.109375 20.609375 33.546875 9.734375 
Q 29.984375 -1.125 22.515625 -13.1875 
z
" id="DejaVuSans-Bold-29"/>
     </defs>
     <g transform="translate(219.659219 338.265437)scale(0.2 -0.2)">
      <use transform="translate(0 0.125)" xlink:href="#DejaVuSans-BoldOblique-42"/>
      <use transform="translate(76.220703 -16.28125)scale(0.7)" xlink:href="#DejaVuSans-BoldOblique-79"/>
      <use transform="translate(124.584961 0.125)" xlink:href="#DejaVuSans-Bold-28"/>
      <use transform="translate(170.288086 0.125)" xlink:href="#DejaVuSans-BoldOblique-47"/>
      <use transform="translate(252.368164 0.125)" xlink:href="#DejaVuSans-Bold-29"/>
     </g>
    </g>
   </g>
   <g id="matplotlib.axis_2">
    <g id="ytick_1">
     <g id="line2d_15">
      <path clip-path="url(#p012c1a1acd)" d="M 70.999219 270.113054 
L 428.119219 270.113054 
" style="fill:none;stroke:#b0b0b0;stroke-linecap:square;stroke-width:0.8;"/>
     </g>
     <g id="line2d_16">
      <defs>
       <path d="M 0 0 
L -3.5 0 
" id="ma3db547045" style="stroke:#000000;stroke-width:0.8;"/>
      </defs>
      <g>
       <use style="stroke:#000000;stroke-width:0.8;" x="70.999219" xlink:href="#ma3db547045" y="270.113054"/>
      </g>
     </g>
     <g id="text_9">
      <!-- −30 -->
      <g transform="translate(30.55625 275.811883)scale(0.15 -0.15)">
       <use xlink:href="#DejaVuSans-Bold-2212"/>
       <use x="83.789062" xlink:href="#DejaVuSans-Bold-33"/>
       <use x="153.369141" xlink:href="#DejaVuSans-Bold-30"/>
      </g>
     </g>
    </g>
    <g id="ytick_2">
     <g id="line2d_17">
      <path clip-path="url(#p012c1a1acd)" d="M 70.999219 232.837052 
L 428.119219 232.837052 
" style="fill:none;stroke:#b0b0b0;stroke-linecap:square;stroke-width:0.8;"/>
     </g>
     <g id="line2d_18">
      <g>
       <use style="stroke:#000000;stroke-width:0.8;" x="70.999219" xlink:href="#ma3db547045" y="232.837052"/>
      </g>
     </g>
     <g id="text_10">
      <!-- −25 -->
      <defs>
       <path d="M 10.59375 72.90625 
L 57.328125 72.90625 
L 57.328125 59.078125 
L 25.59375 59.078125 
L 25.59375 47.796875 
Q 27.734375 48.390625 29.90625 48.703125 
Q 32.078125 49.03125 34.421875 49.03125 
Q 47.75 49.03125 55.171875 42.359375 
Q 62.59375 35.6875 62.59375 23.78125 
Q 62.59375 11.96875 54.515625 5.265625 
Q 46.4375 -1.421875 32.078125 -1.421875 
Q 25.875 -1.421875 19.796875 -0.21875 
Q 13.71875 0.984375 7.71875 3.421875 
L 7.71875 18.21875 
Q 13.671875 14.796875 19.015625 13.078125 
Q 24.359375 11.375 29.109375 11.375 
Q 35.9375 11.375 39.859375 14.71875 
Q 43.796875 18.0625 43.796875 23.78125 
Q 43.796875 29.546875 39.859375 32.859375 
Q 35.9375 36.1875 29.109375 36.1875 
Q 25.046875 36.1875 20.453125 35.125 
Q 15.875 34.078125 10.59375 31.890625 
z
" id="DejaVuSans-Bold-35"/>
      </defs>
      <g transform="translate(30.55625 238.535881)scale(0.15 -0.15)">
       <use xlink:href="#DejaVuSans-Bold-2212"/>
       <use x="83.789062" xlink:href="#DejaVuSans-Bold-32"/>
       <use x="153.369141" xlink:href="#DejaVuSans-Bold-35"/>
      </g>
     </g>
    </g>
    <g id="ytick_3">
     <g id="line2d_19">
      <path clip-path="url(#p012c1a1acd)" d="M 70.999219 195.56105 
L 428.119219 195.56105 
" style="fill:none;stroke:#b0b0b0;stroke-linecap:square;stroke-width:0.8;"/>
     </g>
     <g id="line2d_20">
      <g>
       <use style="stroke:#000000;stroke-width:0.8;" x="70.999219" xlink:href="#ma3db547045" y="195.56105"/>
      </g>
     </g>
     <g id="text_11">
      <!-- −20 -->
      <g transform="translate(30.55625 201.259879)scale(0.15 -0.15)">
       <use xlink:href="#DejaVuSans-Bold-2212"/>
       <use x="83.789062" xlink:href="#DejaVuSans-Bold-32"/>
       <use x="153.369141" xlink:href="#DejaVuSans-Bold-30"/>
      </g>
     </g>
    </g>
    <g id="ytick_4">
     <g id="line2d_21">
      <path clip-path="url(#p012c1a1acd)" d="M 70.999219 158.285048 
L 428.119219 158.285048 
" style="fill:none;stroke:#b0b0b0;stroke-linecap:square;stroke-width:0.8;"/>
     </g>
     <g id="line2d_22">
      <g>
       <use style="stroke:#000000;stroke-width:0.8;" x="70.999219" xlink:href="#ma3db547045" y="158.285048"/>
      </g>
     </g>
     <g id="text_12">
      <!-- −15 -->
      <g transform="translate(30.55625 163.983877)scale(0.15 -0.15)">
       <use xlink:href="#DejaVuSans-Bold-2212"/>
       <use x="83.789062" xlink:href="#DejaVuSans-Bold-31"/>
       <use x="153.369141" xlink:href="#DejaVuSans-Bold-35"/>
      </g>
     </g>
    </g>
    <g id="ytick_5">
     <g id="line2d_23">
      <path clip-path="url(#p012c1a1acd)" d="M 70.999219 121.009047 
L 428.119219 121.009047 
" style="fill:none;stroke:#b0b0b0;stroke-linecap:square;stroke-width:0.8;"/>
     </g>
     <g id="line2d_24">
      <g>
       <use style="stroke:#000000;stroke-width:0.8;" x="70.999219" xlink:href="#ma3db547045" y="121.009047"/>
      </g>
     </g>
     <g id="text_13">
      <!-- −10 -->
      <g transform="translate(30.55625 126.707875)scale(0.15 -0.15)">
       <use xlink:href="#DejaVuSans-Bold-2212"/>
       <use x="83.789062" xlink:href="#DejaVuSans-Bold-31"/>
       <use x="153.369141" xlink:href="#DejaVuSans-Bold-30"/>
      </g>
     </g>
    </g>
    <g id="ytick_6">
     <g id="line2d_25">
      <path clip-path="url(#p012c1a1acd)" d="M 70.999219 83.733045 
L 428.119219 83.733045 
" style="fill:none;stroke:#b0b0b0;stroke-linecap:square;stroke-width:0.8;"/>
     </g>
     <g id="line2d_26">
      <g>
       <use style="stroke:#000000;stroke-width:0.8;" x="70.999219" xlink:href="#ma3db547045" y="83.733045"/>
      </g>
     </g>
     <g id="text_14">
      <!-- −5 -->
      <g transform="translate(40.992969 89.431873)scale(0.15 -0.15)">
       <use xlink:href="#DejaVuSans-Bold-2212"/>
       <use x="83.789062" xlink:href="#DejaVuSans-Bold-35"/>
      </g>
     </g>
    </g>
    <g id="ytick_7">
     <g id="line2d_27">
      <path clip-path="url(#p012c1a1acd)" d="M 70.999219 46.457043 
L 428.119219 46.457043 
" style="fill:none;stroke:#b0b0b0;stroke-linecap:square;stroke-width:0.8;"/>
     </g>
     <g id="line2d_28">
      <g>
       <use style="stroke:#000000;stroke-width:0.8;" x="70.999219" xlink:href="#ma3db547045" y="46.457043"/>
      </g>
     </g>
     <g id="text_15">
      <!-- 0 -->
      <g transform="translate(53.5625 52.155871)scale(0.15 -0.15)">
       <use xlink:href="#DejaVuSans-Bold-30"/>
      </g>
     </g>
    </g>
    <g id="text_16">
     <!-- Shift (kHz) -->
     <defs>
      <path d="M 53.515625 70.515625 
L 53.515625 60.890625 
Q 47.90625 63.578125 42.921875 64.890625 
Q 37.9375 66.21875 33.296875 66.21875 
Q 25.25 66.21875 20.875 63.09375 
Q 16.5 59.96875 16.5 54.203125 
Q 16.5 49.359375 19.40625 46.890625 
Q 22.3125 44.4375 30.421875 42.921875 
L 36.375 41.703125 
Q 47.40625 39.59375 52.65625 34.296875 
Q 57.90625 29 57.90625 20.125 
Q 57.90625 9.515625 50.796875 4.046875 
Q 43.703125 -1.421875 29.984375 -1.421875 
Q 24.8125 -1.421875 18.96875 -0.25 
Q 13.140625 0.921875 6.890625 3.21875 
L 6.890625 13.375 
Q 12.890625 10.015625 18.65625 8.296875 
Q 24.421875 6.59375 29.984375 6.59375 
Q 38.421875 6.59375 43.015625 9.90625 
Q 47.609375 13.234375 47.609375 19.390625 
Q 47.609375 24.75 44.3125 27.78125 
Q 41.015625 30.8125 33.5 32.328125 
L 27.484375 33.5 
Q 16.453125 35.6875 11.515625 40.375 
Q 6.59375 45.0625 6.59375 53.421875 
Q 6.59375 63.09375 13.40625 68.65625 
Q 20.21875 74.21875 32.171875 74.21875 
Q 37.3125 74.21875 42.625 73.28125 
Q 47.953125 72.359375 53.515625 70.515625 
z
" id="DejaVuSans-53"/>
      <path d="M 54.890625 33.015625 
L 54.890625 0 
L 45.90625 0 
L 45.90625 32.71875 
Q 45.90625 40.484375 42.875 44.328125 
Q 39.84375 48.1875 33.796875 48.1875 
Q 26.515625 48.1875 22.3125 43.546875 
Q 18.109375 38.921875 18.109375 30.90625 
L 18.109375 0 
L 9.078125 0 
L 9.078125 75.984375 
L 18.109375 75.984375 
L 18.109375 46.1875 
Q 21.34375 51.125 25.703125 53.5625 
Q 30.078125 56 35.796875 56 
Q 45.21875 56 50.046875 50.171875 
Q 54.890625 44.34375 54.890625 33.015625 
z
" id="DejaVuSans-68"/>
      <path d="M 9.421875 54.6875 
L 18.40625 54.6875 
L 18.40625 0 
L 9.421875 0 
z
M 9.421875 75.984375 
L 18.40625 75.984375 
L 18.40625 64.59375 
L 9.421875 64.59375 
z
" id="DejaVuSans-69"/>
      <path d="M 37.109375 75.984375 
L 37.109375 68.5 
L 28.515625 68.5 
Q 23.6875 68.5 21.796875 66.546875 
Q 19.921875 64.59375 19.921875 59.515625 
L 19.921875 54.6875 
L 34.71875 54.6875 
L 34.71875 47.703125 
L 19.921875 47.703125 
L 19.921875 0 
L 10.890625 0 
L 10.890625 47.703125 
L 2.296875 47.703125 
L 2.296875 54.6875 
L 10.890625 54.6875 
L 10.890625 58.5 
Q 10.890625 67.625 15.140625 71.796875 
Q 19.390625 75.984375 28.609375 75.984375 
z
" id="DejaVuSans-66"/>
      <path d="M 18.3125 70.21875 
L 18.3125 54.6875 
L 36.8125 54.6875 
L 36.8125 47.703125 
L 18.3125 47.703125 
L 18.3125 18.015625 
Q 18.3125 11.328125 20.140625 9.421875 
Q 21.96875 7.515625 27.59375 7.515625 
L 36.8125 7.515625 
L 36.8125 0 
L 27.59375 0 
Q 17.1875 0 13.234375 3.875 
Q 9.28125 7.765625 9.28125 18.015625 
L 9.28125 47.703125 
L 2.6875 47.703125 
L 2.6875 54.6875 
L 9.28125 54.6875 
L 9.28125 70.21875 
z
" id="DejaVuSans-74"/>
      <path id="DejaVuSans-20"/>
      <path d="M 31 75.875 
Q 24.46875 64.65625 21.28125 53.65625 
Q 18.109375 42.671875 18.109375 31.390625 
Q 18.109375 20.125 21.3125 9.0625 
Q 24.515625 -2 31 -13.1875 
L 23.1875 -13.1875 
Q 15.875 -1.703125 12.234375 9.375 
Q 8.59375 20.453125 8.59375 31.390625 
Q 8.59375 42.28125 12.203125 53.3125 
Q 15.828125 64.359375 23.1875 75.875 
z
" id="DejaVuSans-28"/>
      <path d="M 9.078125 75.984375 
L 18.109375 75.984375 
L 18.109375 31.109375 
L 44.921875 54.6875 
L 56.390625 54.6875 
L 27.390625 29.109375 
L 57.625 0 
L 45.90625 0 
L 18.109375 26.703125 
L 18.109375 0 
L 9.078125 0 
z
" id="DejaVuSans-6b"/>
      <path d="M 9.8125 72.90625 
L 19.671875 72.90625 
L 19.671875 43.015625 
L 55.515625 43.015625 
L 55.515625 72.90625 
L 65.375 72.90625 
L 65.375 0 
L 55.515625 0 
L 55.515625 34.71875 
L 19.671875 34.71875 
L 19.671875 0 
L 9.8125 0 
z
" id="DejaVuSans-48"/>
      <path d="M 5.515625 54.6875 
L 48.1875 54.6875 
L 48.1875 46.484375 
L 14.40625 7.171875 
L 48.1875 7.171875 
L 48.1875 0 
L 4.296875 0 
L 4.296875 8.203125 
L 38.09375 47.515625 
L 5.515625 47.515625 
z
" id="DejaVuSans-7a"/>
      <path d="M 8.015625 75.875 
L 15.828125 75.875 
Q 23.140625 64.359375 26.78125 53.3125 
Q 30.421875 42.28125 30.421875 31.390625 
Q 30.421875 20.453125 26.78125 9.375 
Q 23.140625 -1.703125 15.828125 -13.1875 
L 8.015625 -13.1875 
Q 14.5 -2 17.703125 9.0625 
Q 20.90625 20.125 20.90625 31.390625 
Q 20.90625 42.671875 17.703125 53.65625 
Q 14.5 64.65625 8.015625 75.875 
z
" id="DejaVuSans-29"/>
     </defs>
     <g transform="translate(22.396875 216.936)rotate(-90)scale(0.2 -0.2)">
      <use xlink:href="#DejaVuSans-53"/>
      <use x="63.476562" xlink:href="#DejaVuSans-68"/>
      <use x="126.855469" xlink:href="#DejaVuSans-69"/>
      <use x="154.638672" xlink:href="#DejaVuSans-66"/>
      <use x="189.828125" xlink:href="#DejaVuSans-74"/>
      <use x="229.037109" xlink:href="#DejaVuSans-20"/>
      <use x="260.824219" xlink:href="#DejaVuSans-28"/>
      <use x="299.837891" xlink:href="#DejaVuSans-6b"/>
      <use x="357.748047" xlink:href="#DejaVuSans-48"/>
      <use x="432.943359" xlink:href="#DejaVuSans-7a"/>
      <use x="485.433594" xlink:href="#DejaVuSans-29"/>
     </g>
    </g>
   </g>
   <g id="LineCollection_1">
    <path clip-path="url(#p012c1a1acd)" d="M 87.231946 216.417135 
L 87.231946 166.17545 
" style="fill:none;stroke:#1f77b4;stroke-width:1.5;"/>
    <path clip-path="url(#p012c1a1acd)" d="M 141.341037 198.766315 
L 141.341037 145.089854 
" style="fill:none;stroke:#1f77b4;stroke-width:1.5;"/>
    <path clip-path="url(#p012c1a1acd)" d="M 195.450128 213.014808 
L 195.450128 155.90809 
" style="fill:none;stroke:#1f77b4;stroke-width:1.5;"/>
    <path clip-path="url(#p012c1a1acd)" d="M 249.559219 183.683347 
L 249.559219 129.308956 
" style="fill:none;stroke:#1f77b4;stroke-width:1.5;"/>
    <path clip-path="url(#p012c1a1acd)" d="M 303.66831 136.109513 
L 303.66831 73.872664 
" style="fill:none;stroke:#1f77b4;stroke-width:1.5;"/>
    <path clip-path="url(#p012c1a1acd)" d="M 357.777401 170.992837 
L 357.777401 125.641701 
" style="fill:none;stroke:#1f77b4;stroke-width:1.5;"/>
    <path clip-path="url(#p012c1a1acd)" d="M 411.886491 98.345963 
L 411.886491 43.53225 
" style="fill:none;stroke:#1f77b4;stroke-width:1.5;"/>
   </g>
   <g id="LineCollection_2">
    <path clip-path="url(#p012c1a1acd)" d="M 87.231946 232.424922 
L 87.231946 200.26613 
" style="fill:none;stroke:#ff7f0e;stroke-width:1.5;"/>
    <path clip-path="url(#p012c1a1acd)" d="M 141.341037 222.349573 
L 141.341037 192.443923 
" style="fill:none;stroke:#ff7f0e;stroke-width:1.5;"/>
    <path clip-path="url(#p012c1a1acd)" d="M 195.450128 182.814544 
L 195.450128 136.918129 
" style="fill:none;stroke:#ff7f0e;stroke-width:1.5;"/>
    <path clip-path="url(#p012c1a1acd)" d="M 249.559219 219.982403 
L 249.559219 187.289764 
" style="fill:none;stroke:#ff7f0e;stroke-width:1.5;"/>
    <path clip-path="url(#p012c1a1acd)" d="M 303.66831 109.997838 
L 303.66831 80.559974 
" style="fill:none;stroke:#ff7f0e;stroke-width:1.5;"/>
    <path clip-path="url(#p012c1a1acd)" d="M 357.777401 124.054435 
L 357.777401 80.891939 
" style="fill:none;stroke:#ff7f0e;stroke-width:1.5;"/>
    <path clip-path="url(#p012c1a1acd)" d="M 411.886491 88.696112 
L 411.886491 44.461791 
" style="fill:none;stroke:#ff7f0e;stroke-width:1.5;"/>
   </g>
   <g id="LineCollection_3">
    <path clip-path="url(#p012c1a1acd)" d="M 87.231946 270.224169 
L 87.231946 210.081477 
" style="fill:none;stroke:#2ca02c;stroke-width:1.5;"/>
    <path clip-path="url(#p012c1a1acd)" d="M 141.341037 251.932074 
L 141.341037 203.829544 
" style="fill:none;stroke:#2ca02c;stroke-width:1.5;"/>
    <path clip-path="url(#p012c1a1acd)" d="M 195.450128 224.532339 
L 195.450128 159.045791 
" style="fill:none;stroke:#2ca02c;stroke-width:1.5;"/>
    <path clip-path="url(#p012c1a1acd)" d="M 249.559219 210.248944 
L 249.559219 150.769076 
" style="fill:none;stroke:#2ca02c;stroke-width:1.5;"/>
    <path clip-path="url(#p012c1a1acd)" d="M 303.66831 209.333389 
L 303.66831 147.522917 
" style="fill:none;stroke:#2ca02c;stroke-width:1.5;"/>
    <path clip-path="url(#p012c1a1acd)" d="M 357.777401 213.294415 
L 357.777401 161.513299 
" style="fill:none;stroke:#2ca02c;stroke-width:1.5;"/>
    <path clip-path="url(#p012c1a1acd)" d="M 411.886491 152.658973 
L 411.886491 96.81214 
" style="fill:none;stroke:#2ca02c;stroke-width:1.5;"/>
   </g>
   <g id="LineCollection_4">
    <path clip-path="url(#p012c1a1acd)" d="M 87.231946 285.45225 
L 87.231946 245.640155 
" style="fill:none;stroke:#d62728;stroke-width:1.5;"/>
    <path clip-path="url(#p012c1a1acd)" d="M 141.341037 273.128052 
L 141.341037 231.100067 
" style="fill:none;stroke:#d62728;stroke-width:1.5;"/>
    <path clip-path="url(#p012c1a1acd)" d="M 195.450128 239.088637 
L 195.450128 204.271861 
" style="fill:none;stroke:#d62728;stroke-width:1.5;"/>
    <path clip-path="url(#p012c1a1acd)" d="M 249.559219 275.49239 
L 249.559219 244.274995 
" style="fill:none;stroke:#d62728;stroke-width:1.5;"/>
    <path clip-path="url(#p012c1a1acd)" d="M 303.66831 183.757536 
L 303.66831 144.529793 
" style="fill:none;stroke:#d62728;stroke-width:1.5;"/>
    <path clip-path="url(#p012c1a1acd)" d="M 357.777401 155.982562 
L 357.777401 126.697987 
" style="fill:none;stroke:#d62728;stroke-width:1.5;"/>
    <path clip-path="url(#p012c1a1acd)" d="M 411.886491 129.851214 
L 411.886491 92.936682 
" style="fill:none;stroke:#d62728;stroke-width:1.5;"/>
   </g>
   <g id="line2d_29">
    <path clip-path="url(#p012c1a1acd)" d="M 87.231946 191.296293 
L 141.341037 171.928085 
L 195.450128 184.461449 
L 249.559219 156.496151 
L 303.66831 104.991088 
L 357.777401 148.317269 
L 411.886491 70.939106 
" style="fill:none;stroke:#1f77b4;stroke-linecap:square;stroke-width:1.5;"/>
   </g>
   <g id="line2d_30">
    <path clip-path="url(#p012c1a1acd)" d="M 87.231946 216.345526 
L 141.341037 207.396748 
L 195.450128 159.866337 
L 249.559219 203.636083 
L 303.66831 95.278906 
L 357.777401 102.473187 
L 411.886491 66.578951 
" style="fill:none;stroke:#ff7f0e;stroke-linecap:square;stroke-width:1.5;"/>
   </g>
   <g id="line2d_31">
    <path clip-path="url(#p012c1a1acd)" d="M 87.231946 240.152823 
L 141.341037 227.880809 
L 195.450128 191.789065 
L 249.559219 180.50901 
L 303.66831 178.428153 
L 357.777401 187.403857 
L 411.886491 124.735557 
" style="fill:none;stroke:#2ca02c;stroke-linecap:square;stroke-width:1.5;"/>
   </g>
   <g id="line2d_32">
    <path clip-path="url(#p012c1a1acd)" d="M 87.231946 265.546202 
L 141.341037 252.11406 
L 195.450128 221.680249 
L 249.559219 259.883692 
L 303.66831 164.143665 
L 357.777401 141.340274 
L 411.886491 111.393948 
" style="fill:none;stroke:#d62728;stroke-linecap:square;stroke-width:1.5;"/>
   </g>
   <g id="patch_3">
    <path d="M 70.999219 297.54825 
L 70.999219 31.43625 
" style="fill:none;stroke:#000000;stroke-linecap:square;stroke-linejoin:miter;stroke-width:0.8;"/>
   </g>
   <g id="patch_4">
    <path d="M 428.119219 297.54825 
L 428.119219 31.43625 
" style="fill:none;stroke:#000000;stroke-linecap:square;stroke-linejoin:miter;stroke-width:0.8;"/>
   </g>
   <g id="patch_5">
    <path d="M 70.999219 297.54825 
L 428.119219 297.54825 
" style="fill:none;stroke:#000000;stroke-linecap:square;stroke-linejoin:miter;stroke-width:0.8;"/>
   </g>
   <g id="patch_6">
    <path d="M 70.999219 31.43625 
L 428.119219 31.43625 
" style="fill:none;stroke:#000000;stroke-linecap:square;stroke-linejoin:miter;stroke-width:0.8;"/>
   </g>
   <g id="text_17">
    <!-- Shift from trap light -->
    <defs>
     <path d="M 41.109375 46.296875 
Q 39.59375 47.171875 37.8125 47.578125 
Q 36.03125 48 33.890625 48 
Q 26.265625 48 22.1875 43.046875 
Q 18.109375 38.09375 18.109375 28.8125 
L 18.109375 0 
L 9.078125 0 
L 9.078125 54.6875 
L 18.109375 54.6875 
L 18.109375 46.1875 
Q 20.953125 51.171875 25.484375 53.578125 
Q 30.03125 56 36.53125 56 
Q 37.453125 56 38.578125 55.875 
Q 39.703125 55.765625 41.0625 55.515625 
z
" id="DejaVuSans-72"/>
     <path d="M 30.609375 48.390625 
Q 23.390625 48.390625 19.1875 42.75 
Q 14.984375 37.109375 14.984375 27.296875 
Q 14.984375 17.484375 19.15625 11.84375 
Q 23.34375 6.203125 30.609375 6.203125 
Q 37.796875 6.203125 41.984375 11.859375 
Q 46.1875 17.53125 46.1875 27.296875 
Q 46.1875 37.015625 41.984375 42.703125 
Q 37.796875 48.390625 30.609375 48.390625 
z
M 30.609375 56 
Q 42.328125 56 49.015625 48.375 
Q 55.71875 40.765625 55.71875 27.296875 
Q 55.71875 13.875 49.015625 6.21875 
Q 42.328125 -1.421875 30.609375 -1.421875 
Q 18.84375 -1.421875 12.171875 6.21875 
Q 5.515625 13.875 5.515625 27.296875 
Q 5.515625 40.765625 12.171875 48.375 
Q 18.84375 56 30.609375 56 
z
" id="DejaVuSans-6f"/>
     <path d="M 52 44.1875 
Q 55.375 50.25 60.0625 53.125 
Q 64.75 56 71.09375 56 
Q 79.640625 56 84.28125 50.015625 
Q 88.921875 44.046875 88.921875 33.015625 
L 88.921875 0 
L 79.890625 0 
L 79.890625 32.71875 
Q 79.890625 40.578125 77.09375 44.375 
Q 74.3125 48.1875 68.609375 48.1875 
Q 61.625 48.1875 57.5625 43.546875 
Q 53.515625 38.921875 53.515625 30.90625 
L 53.515625 0 
L 44.484375 0 
L 44.484375 32.71875 
Q 44.484375 40.625 41.703125 44.40625 
Q 38.921875 48.1875 33.109375 48.1875 
Q 26.21875 48.1875 22.15625 43.53125 
Q 18.109375 38.875 18.109375 30.90625 
L 18.109375 0 
L 9.078125 0 
L 9.078125 54.6875 
L 18.109375 54.6875 
L 18.109375 46.1875 
Q 21.1875 51.21875 25.484375 53.609375 
Q 29.78125 56 35.6875 56 
Q 41.65625 56 45.828125 52.96875 
Q 50 49.953125 52 44.1875 
z
" id="DejaVuSans-6d"/>
     <path d="M 34.28125 27.484375 
Q 23.390625 27.484375 19.1875 25 
Q 14.984375 22.515625 14.984375 16.5 
Q 14.984375 11.71875 18.140625 8.90625 
Q 21.296875 6.109375 26.703125 6.109375 
Q 34.1875 6.109375 38.703125 11.40625 
Q 43.21875 16.703125 43.21875 25.484375 
L 43.21875 27.484375 
z
M 52.203125 31.203125 
L 52.203125 0 
L 43.21875 0 
L 43.21875 8.296875 
Q 40.140625 3.328125 35.546875 0.953125 
Q 30.953125 -1.421875 24.3125 -1.421875 
Q 15.921875 -1.421875 10.953125 3.296875 
Q 6 8.015625 6 15.921875 
Q 6 25.140625 12.171875 29.828125 
Q 18.359375 34.515625 30.609375 34.515625 
L 43.21875 34.515625 
L 43.21875 35.40625 
Q 43.21875 41.609375 39.140625 45 
Q 35.0625 48.390625 27.6875 48.390625 
Q 23 48.390625 18.546875 47.265625 
Q 14.109375 46.140625 10.015625 43.890625 
L 10.015625 52.203125 
Q 14.9375 54.109375 19.578125 55.046875 
Q 24.21875 56 28.609375 56 
Q 40.484375 56 46.34375 49.84375 
Q 52.203125 43.703125 52.203125 31.203125 
z
" id="DejaVuSans-61"/>
     <path d="M 18.109375 8.203125 
L 18.109375 -20.796875 
L 9.078125 -20.796875 
L 9.078125 54.6875 
L 18.109375 54.6875 
L 18.109375 46.390625 
Q 20.953125 51.265625 25.265625 53.625 
Q 29.59375 56 35.59375 56 
Q 45.5625 56 51.78125 48.09375 
Q 58.015625 40.1875 58.015625 27.296875 
Q 58.015625 14.40625 51.78125 6.484375 
Q 45.5625 -1.421875 35.59375 -1.421875 
Q 29.59375 -1.421875 25.265625 0.953125 
Q 20.953125 3.328125 18.109375 8.203125 
z
M 48.6875 27.296875 
Q 48.6875 37.203125 44.609375 42.84375 
Q 40.53125 48.484375 33.40625 48.484375 
Q 26.265625 48.484375 22.1875 42.84375 
Q 18.109375 37.203125 18.109375 27.296875 
Q 18.109375 17.390625 22.1875 11.75 
Q 26.265625 6.109375 33.40625 6.109375 
Q 40.53125 6.109375 44.609375 11.75 
Q 48.6875 17.390625 48.6875 27.296875 
z
" id="DejaVuSans-70"/>
     <path d="M 9.421875 75.984375 
L 18.40625 75.984375 
L 18.40625 0 
L 9.421875 0 
z
" id="DejaVuSans-6c"/>
     <path d="M 45.40625 27.984375 
Q 45.40625 37.75 41.375 43.109375 
Q 37.359375 48.484375 30.078125 48.484375 
Q 22.859375 48.484375 18.828125 43.109375 
Q 14.796875 37.75 14.796875 27.984375 
Q 14.796875 18.265625 18.828125 12.890625 
Q 22.859375 7.515625 30.078125 7.515625 
Q 37.359375 7.515625 41.375 12.890625 
Q 45.40625 18.265625 45.40625 27.984375 
z
M 54.390625 6.78125 
Q 54.390625 -7.171875 48.1875 -13.984375 
Q 42 -20.796875 29.203125 -20.796875 
Q 24.46875 -20.796875 20.265625 -20.09375 
Q 16.0625 -19.390625 12.109375 -17.921875 
L 12.109375 -9.1875 
Q 16.0625 -11.328125 19.921875 -12.34375 
Q 23.78125 -13.375 27.78125 -13.375 
Q 36.625 -13.375 41.015625 -8.765625 
Q 45.40625 -4.15625 45.40625 5.171875 
L 45.40625 9.625 
Q 42.625 4.78125 38.28125 2.390625 
Q 33.9375 0 27.875 0 
Q 17.828125 0 11.671875 7.65625 
Q 5.515625 15.328125 5.515625 27.984375 
Q 5.515625 40.671875 11.671875 48.328125 
Q 17.828125 56 27.875 56 
Q 33.9375 56 38.28125 53.609375 
Q 42.625 51.21875 45.40625 46.390625 
L 45.40625 54.6875 
L 54.390625 54.6875 
z
" id="DejaVuSans-67"/>
    </defs>
    <g transform="translate(131.244844 25.43625)scale(0.24 -0.24)">
     <use xlink:href="#DejaVuSans-53"/>
     <use x="63.476562" xlink:href="#DejaVuSans-68"/>
     <use x="126.855469" xlink:href="#DejaVuSans-69"/>
     <use x="154.638672" xlink:href="#DejaVuSans-66"/>
     <use x="189.828125" xlink:href="#DejaVuSans-74"/>
     <use x="229.037109" xlink:href="#DejaVuSans-20"/>
     <use x="260.824219" xlink:href="#DejaVuSans-66"/>
     <use x="296.029297" xlink:href="#DejaVuSans-72"/>
     <use x="337.111328" xlink:href="#DejaVuSans-6f"/>
     <use x="398.292969" xlink:href="#DejaVuSans-6d"/>
     <use x="495.705078" xlink:href="#DejaVuSans-20"/>
     <use x="527.492188" xlink:href="#DejaVuSans-74"/>
     <use x="566.701172" xlink:href="#DejaVuSans-72"/>
     <use x="607.814453" xlink:href="#DejaVuSans-61"/>
     <use x="669.09375" xlink:href="#DejaVuSans-70"/>
     <use x="732.570312" xlink:href="#DejaVuSans-20"/>
     <use x="764.357422" xlink:href="#DejaVuSans-6c"/>
     <use x="792.140625" xlink:href="#DejaVuSans-69"/>
     <use x="819.923828" xlink:href="#DejaVuSans-67"/>
     <use x="883.400391" xlink:href="#DejaVuSans-68"/>
     <use x="946.779297" xlink:href="#DejaVuSans-74"/>
    </g>
   </g>
   <g id="legend_1">
    <g id="patch_7">
     <path d="M 449.975219 154.86125 
L 667.175219 154.86125 
Q 671.175219 154.86125 671.175219 150.86125 
L 671.175219 35.43625 
Q 671.175219 31.43625 667.175219 31.43625 
L 449.975219 31.43625 
Q 445.975219 31.43625 445.975219 35.43625 
L 445.975219 150.86125 
Q 445.975219 154.86125 449.975219 154.86125 
z
" style="fill:#ffffff;opacity:0.8;stroke:#cccccc;stroke-linejoin:miter;"/>
    </g>
    <g id="LineCollection_5">
     <path d="M 473.975219 57.633125 
L 473.975219 37.633125 
" style="fill:none;stroke:#1f77b4;stroke-width:1.5;"/>
    </g>
    <g id="line2d_33">
     <path d="M 453.975219 47.633125 
L 493.975219 47.633125 
" style="fill:none;stroke:#1f77b4;stroke-linecap:square;stroke-width:1.5;"/>
    </g>
    <g id="line2d_34"/>
    <g id="text_18">
     <!-- $50MHz\ m_F=3$ -->
     <defs>
      <path d="M 16.3125 72.90625 
L 39.40625 72.90625 
L 48.78125 34.1875 
L 73.390625 72.90625 
L 97.40625 72.90625 
L 83.203125 0 
L 65.375 0 
L 75.78125 53.8125 
L 50.484375 14.015625 
L 40.375 14.015625 
L 30.328125 53.8125 
L 19.921875 0 
L 2.09375 0 
z
" id="DejaVuSans-BoldOblique-4d"/>
      <path d="M 16.3125 72.90625 
L 35.109375 72.90625 
L 29.6875 45.125 
L 57.421875 45.125 
L 62.796875 72.90625 
L 81.59375 72.90625 
L 67.390625 0 
L 48.578125 0 
L 54.59375 30.90625 
L 26.90625 30.90625 
L 20.90625 0 
L 2.09375 0 
z
" id="DejaVuSans-BoldOblique-48"/>
      <path d="M 10.890625 54.6875 
L 58.59375 54.6875 
L 56.203125 42.484375 
L 22.125 12.5 
L 50.390625 12.5 
L 48 0 
L -0.875 0 
L 1.421875 12.203125 
L 35.59375 42.1875 
L 8.5 42.1875 
z
" id="DejaVuSans-BoldOblique-7a"/>
      <path d="M 62.703125 45.609375 
Q 66.75 50.640625 71.890625 53.3125 
Q 77.046875 56 82.625 56 
Q 89.9375 56 94.15625 51.96875 
Q 98.390625 47.953125 98.390625 40.921875 
Q 98.390625 39.453125 98.171875 37.5625 
Q 97.953125 35.6875 97.515625 33.296875 
L 91.015625 0 
L 73.390625 0 
L 78.90625 28.515625 
L 79.046875 29.25 
Q 80.328125 35.296875 80.328125 37.015625 
Q 80.328125 39.703125 78.78125 41.265625 
Q 77.25 42.828125 74.609375 42.828125 
Q 69.578125 42.828125 66.078125 38.703125 
Q 62.59375 34.578125 61.078125 26.90625 
L 55.8125 0 
L 38.1875 0 
L 43.796875 28.515625 
Q 44.53125 32.171875 44.828125 34.046875 
Q 45.125 35.9375 45.125 37.015625 
Q 45.125 39.75 43.609375 41.28125 
Q 42.09375 42.828125 39.40625 42.828125 
Q 34.578125 42.828125 30.9375 38.546875 
Q 27.296875 34.28125 25.875 26.90625 
L 20.609375 0 
L 3.078125 0 
L 13.71875 54.6875 
L 31.296875 54.6875 
L 29.6875 46.6875 
Q 33.796875 51.3125 38.421875 53.65625 
Q 43.0625 56 48.09375 56 
Q 53.765625 56 57.8125 53.09375 
Q 61.859375 50.203125 62.703125 45.609375 
z
" id="DejaVuSans-BoldOblique-6d"/>
      <path d="M 16.3125 72.90625 
L 67 72.90625 
L 64.203125 58.6875 
L 32.328125 58.6875 
L 29.6875 45.125 
L 59.71875 45.125 
L 56.890625 30.90625 
L 26.90625 30.90625 
L 20.90625 0 
L 2.09375 0 
z
" id="DejaVuSans-BoldOblique-46"/>
      <path d="M 10.59375 48.1875 
L 73.1875 48.1875 
L 73.1875 36.71875 
L 10.59375 36.71875 
z
M 10.59375 25.984375 
L 73.1875 25.984375 
L 73.1875 14.40625 
L 10.59375 14.40625 
z
" id="DejaVuSans-Bold-3d"/>
     </defs>
     <g transform="translate(509.975219 54.633125)scale(0.2 -0.2)">
      <use transform="translate(0 0.78125)" xlink:href="#DejaVuSans-Bold-35"/>
      <use transform="translate(69.580078 0.78125)" xlink:href="#DejaVuSans-Bold-30"/>
      <use transform="translate(139.160156 0.78125)" xlink:href="#DejaVuSans-BoldOblique-4d"/>
      <use transform="translate(238.671875 0.78125)" xlink:href="#DejaVuSans-BoldOblique-48"/>
      <use transform="translate(322.363281 0.78125)" xlink:href="#DejaVuSans-BoldOblique-7a"/>
      <use transform="translate(415.299132 0.78125)" xlink:href="#DejaVuSans-BoldOblique-6d"/>
      <use transform="translate(519.498351 -15.625)scale(0.7)" xlink:href="#DejaVuSans-BoldOblique-46"/>
      <use transform="translate(590.889952 0.78125)" xlink:href="#DejaVuSans-Bold-3d"/>
      <use transform="translate(695.518858 0.78125)" xlink:href="#DejaVuSans-Bold-33"/>
     </g>
    </g>
    <g id="LineCollection_6">
     <path d="M 473.975219 86.989375 
L 473.975219 66.989375 
" style="fill:none;stroke:#ff7f0e;stroke-width:1.5;"/>
    </g>
    <g id="line2d_35">
     <path d="M 453.975219 76.989375 
L 493.975219 76.989375 
" style="fill:none;stroke:#ff7f0e;stroke-linecap:square;stroke-width:1.5;"/>
    </g>
    <g id="line2d_36"/>
    <g id="text_19">
     <!-- $50MHz\ m_F=4$ -->
     <defs>
      <path d="M 36.8125 57.421875 
L 16.21875 26.90625 
L 36.8125 26.90625 
z
M 33.6875 72.90625 
L 54.59375 72.90625 
L 54.59375 26.90625 
L 64.984375 26.90625 
L 64.984375 13.28125 
L 54.59375 13.28125 
L 54.59375 0 
L 36.8125 0 
L 36.8125 13.28125 
L 4.5 13.28125 
L 4.5 29.390625 
z
" id="DejaVuSans-Bold-34"/>
     </defs>
     <g transform="translate(509.975219 83.989375)scale(0.2 -0.2)">
      <use transform="translate(0 0.78125)" xlink:href="#DejaVuSans-Bold-35"/>
      <use transform="translate(69.580078 0.78125)" xlink:href="#DejaVuSans-Bold-30"/>
      <use transform="translate(139.160156 0.78125)" xlink:href="#DejaVuSans-BoldOblique-4d"/>
      <use transform="translate(238.671875 0.78125)" xlink:href="#DejaVuSans-BoldOblique-48"/>
      <use transform="translate(322.363281 0.78125)" xlink:href="#DejaVuSans-BoldOblique-7a"/>
      <use transform="translate(415.299132 0.78125)" xlink:href="#DejaVuSans-BoldOblique-6d"/>
      <use transform="translate(519.498351 -15.625)scale(0.7)" xlink:href="#DejaVuSans-BoldOblique-46"/>
      <use transform="translate(590.889952 0.78125)" xlink:href="#DejaVuSans-Bold-3d"/>
      <use transform="translate(695.518858 0.78125)" xlink:href="#DejaVuSans-Bold-34"/>
     </g>
    </g>
    <g id="LineCollection_7">
     <path d="M 473.975219 116.345625 
L 473.975219 96.345625 
" style="fill:none;stroke:#2ca02c;stroke-width:1.5;"/>
    </g>
    <g id="line2d_37">
     <path d="M 453.975219 106.345625 
L 493.975219 106.345625 
" style="fill:none;stroke:#2ca02c;stroke-linecap:square;stroke-width:1.5;"/>
    </g>
    <g id="line2d_38"/>
    <g id="text_20">
     <!-- $62MHz\ m_F=3$ -->
     <defs>
      <path d="M 36.1875 35.984375 
Q 31.25 35.984375 28.78125 32.78125 
Q 26.3125 29.59375 26.3125 23.1875 
Q 26.3125 16.796875 28.78125 13.59375 
Q 31.25 10.40625 36.1875 10.40625 
Q 41.15625 10.40625 43.625 13.59375 
Q 46.09375 16.796875 46.09375 23.1875 
Q 46.09375 29.59375 43.625 32.78125 
Q 41.15625 35.984375 36.1875 35.984375 
z
M 59.421875 71 
L 59.421875 57.515625 
Q 54.78125 59.71875 50.671875 60.765625 
Q 46.578125 61.8125 42.671875 61.8125 
Q 34.28125 61.8125 29.59375 57.140625 
Q 24.90625 52.484375 24.125 43.3125 
Q 27.34375 45.703125 31.09375 46.890625 
Q 34.859375 48.09375 39.3125 48.09375 
Q 50.484375 48.09375 57.34375 41.546875 
Q 64.203125 35.015625 64.203125 24.421875 
Q 64.203125 12.703125 56.53125 5.640625 
Q 48.875 -1.421875 35.984375 -1.421875 
Q 21.78125 -1.421875 13.984375 8.171875 
Q 6.203125 17.78125 6.203125 35.40625 
Q 6.203125 53.46875 15.3125 63.796875 
Q 24.421875 74.125 40.28125 74.125 
Q 45.3125 74.125 50.046875 73.34375 
Q 54.78125 72.5625 59.421875 71 
z
" id="DejaVuSans-Bold-36"/>
     </defs>
     <g transform="translate(509.975219 113.345625)scale(0.2 -0.2)">
      <use transform="translate(0 0.78125)" xlink:href="#DejaVuSans-Bold-36"/>
      <use transform="translate(69.580078 0.78125)" xlink:href="#DejaVuSans-Bold-32"/>
      <use transform="translate(139.160156 0.78125)" xlink:href="#DejaVuSans-BoldOblique-4d"/>
      <use transform="translate(238.671875 0.78125)" xlink:href="#DejaVuSans-BoldOblique-48"/>
      <use transform="translate(322.363281 0.78125)" xlink:href="#DejaVuSans-BoldOblique-7a"/>
      <use transform="translate(415.299132 0.78125)" xlink:href="#DejaVuSans-BoldOblique-6d"/>
      <use transform="translate(519.498351 -15.625)scale(0.7)" xlink:href="#DejaVuSans-BoldOblique-46"/>
      <use transform="translate(590.889952 0.78125)" xlink:href="#DejaVuSans-Bold-3d"/>
      <use transform="translate(695.518858 0.78125)" xlink:href="#DejaVuSans-Bold-33"/>
     </g>
    </g>
    <g id="LineCollection_8">
     <path d="M 473.975219 145.701875 
L 473.975219 125.701875 
" style="fill:none;stroke:#d62728;stroke-width:1.5;"/>
    </g>
    <g id="line2d_39">
     <path d="M 453.975219 135.701875 
L 493.975219 135.701875 
" style="fill:none;stroke:#d62728;stroke-linecap:square;stroke-width:1.5;"/>
    </g>
    <g id="line2d_40"/>
    <g id="text_21">
     <!-- $62MHz\ m_F=4$ -->
     <g transform="translate(509.975219 142.701875)scale(0.2 -0.2)">
      <use transform="translate(0 0.78125)" xlink:href="#DejaVuSans-Bold-36"/>
      <use transform="translate(69.580078 0.78125)" xlink:href="#DejaVuSans-Bold-32"/>
      <use transform="translate(139.160156 0.78125)" xlink:href="#DejaVuSans-BoldOblique-4d"/>
      <use transform="translate(238.671875 0.78125)" xlink:href="#DejaVuSans-BoldOblique-48"/>
      <use transform="translate(322.363281 0.78125)" xlink:href="#DejaVuSans-BoldOblique-7a"/>
      <use transform="translate(415.299132 0.78125)" xlink:href="#DejaVuSans-BoldOblique-6d"/>
      <use transform="translate(519.498351 -15.625)scale(0.7)" xlink:href="#DejaVuSans-BoldOblique-46"/>
      <use transform="translate(590.889952 0.78125)" xlink:href="#DejaVuSans-Bold-3d"/>
      <use transform="translate(695.518858 0.78125)" xlink:href="#DejaVuSans-Bold-34"/>
     </g>
    </g>
   </g>
  </g>
 </g>
 <defs>
  <clipPath id="p012c1a1acd">
   <rect height="266.112" width="357.12" x="70.999219" y="31.43625"/>
  </clipPath>
 </defs>
</svg>
