<?xml version="1.0" encoding="utf-8" standalone="no"?>
<!DOCTYPE svg PUBLIC "-//W3C//DTD SVG 1.1//EN"
  "http://www.w3.org/Graphics/SVG/1.1/DTD/svg11.dtd">
<!-- Created with matplotlib (http://matplotlib.org/) -->
<svg height="349pt" version="1.1" viewBox="0 0 681 349" width="681pt" xmlns="http://www.w3.org/2000/svg" xmlns:xlink="http://www.w3.org/1999/xlink">
 <defs>
  <style type="text/css">
*{stroke-linecap:butt;stroke-linejoin:round;}
  </style>
 </defs>
 <g id="figure_1">
  <g id="patch_1">
   <path d="M 0 349.621687 
L 681.940062 349.621687 
L 681.940062 0 
L 0 0 
z
" style="fill:none;"/>
  </g>
  <g id="axes_1">
   <g id="patch_2">
    <path d="M 74.564063 297.54825 
L 431.684062 297.54825 
L 431.684062 31.43625 
L 74.564063 31.43625 
z
" style="fill:none;"/>
   </g>
   <g id="matplotlib.axis_1">
    <g id="xtick_1">
     <g id="line2d_1">
      <path clip-path="url(#p6dde9045af)" d="M 78.310076 297.54825 
L 78.310076 31.43625 
" style="fill:none;stroke:#b0b0b0;stroke-linecap:square;stroke-width:0.8;"/>
     </g>
     <g id="line2d_2">
      <defs>
       <path d="M 0 0 
L 0 3.5 
" id="m005f0a59be" style="stroke:#000000;stroke-width:0.8;"/>
      </defs>
      <g>
       <use style="stroke:#000000;stroke-width:0.8;" x="78.310076" xlink:href="#m005f0a59be" y="297.54825"/>
      </g>
     </g>
     <g id="text_1">
      <!-- 2.5 -->
      <defs>
       <path d="M 28.8125 13.8125 
L 60.890625 13.8125 
L 60.890625 0 
L 7.90625 0 
L 7.90625 13.8125 
L 34.515625 37.3125 
Q 38.09375 40.53125 39.796875 43.609375 
Q 41.5 46.6875 41.5 50 
Q 41.5 55.125 38.0625 58.25 
Q 34.625 61.375 28.90625 61.375 
Q 24.515625 61.375 19.28125 59.5 
Q 14.0625 57.625 8.109375 53.90625 
L 8.109375 69.921875 
Q 14.453125 72.015625 20.65625 73.109375 
Q 26.859375 74.21875 32.8125 74.21875 
Q 45.90625 74.21875 53.15625 68.453125 
Q 60.40625 62.703125 60.40625 52.390625 
Q 60.40625 46.4375 57.328125 41.28125 
Q 54.25 36.140625 44.390625 27.484375 
z
" id="DejaVuSans-Bold-32"/>
       <path d="M 10.203125 18.890625 
L 27.78125 18.890625 
L 27.78125 0 
L 10.203125 0 
z
" id="DejaVuSans-Bold-2e"/>
       <path d="M 10.59375 72.90625 
L 57.328125 72.90625 
L 57.328125 59.078125 
L 25.59375 59.078125 
L 25.59375 47.796875 
Q 27.734375 48.390625 29.90625 48.703125 
Q 32.078125 49.03125 34.421875 49.03125 
Q 47.75 49.03125 55.171875 42.359375 
Q 62.59375 35.6875 62.59375 23.78125 
Q 62.59375 11.96875 54.515625 5.265625 
Q 46.4375 -1.421875 32.078125 -1.421875 
Q 25.875 -1.421875 19.796875 -0.21875 
Q 13.71875 0.984375 7.71875 3.421875 
L 7.71875 18.21875 
Q 13.671875 14.796875 19.015625 13.078125 
Q 24.359375 11.375 29.109375 11.375 
Q 35.9375 11.375 39.859375 14.71875 
Q 43.796875 18.0625 43.796875 23.78125 
Q 43.796875 29.546875 39.859375 32.859375 
Q 35.9375 36.1875 29.109375 36.1875 
Q 25.046875 36.1875 20.453125 35.125 
Q 15.875 34.078125 10.59375 31.890625 
z
" id="DejaVuSans-Bold-35"/>
      </defs>
      <g transform="translate(65.02453 315.945906)scale(0.15 -0.15)">
       <use xlink:href="#DejaVuSans-Bold-32"/>
       <use x="69.580078" xlink:href="#DejaVuSans-Bold-2e"/>
       <use x="107.568359" xlink:href="#DejaVuSans-Bold-35"/>
      </g>
     </g>
    </g>
    <g id="xtick_2">
     <g id="line2d_3">
      <path clip-path="url(#p6dde9045af)" d="M 140.743643 297.54825 
L 140.743643 31.43625 
" style="fill:none;stroke:#b0b0b0;stroke-linecap:square;stroke-width:0.8;"/>
     </g>
     <g id="line2d_4">
      <g>
       <use style="stroke:#000000;stroke-width:0.8;" x="140.743643" xlink:href="#m005f0a59be" y="297.54825"/>
      </g>
     </g>
     <g id="text_2">
      <!-- 5.0 -->
      <defs>
       <path d="M 46 36.53125 
Q 46 50.203125 43.4375 55.78125 
Q 40.875 61.375 34.8125 61.375 
Q 28.765625 61.375 26.171875 55.78125 
Q 23.578125 50.203125 23.578125 36.53125 
Q 23.578125 22.703125 26.171875 17.03125 
Q 28.765625 11.375 34.8125 11.375 
Q 40.828125 11.375 43.40625 17.03125 
Q 46 22.703125 46 36.53125 
z
M 64.796875 36.375 
Q 64.796875 18.265625 56.984375 8.421875 
Q 49.171875 -1.421875 34.8125 -1.421875 
Q 20.40625 -1.421875 12.59375 8.421875 
Q 4.78125 18.265625 4.78125 36.375 
Q 4.78125 54.546875 12.59375 64.375 
Q 20.40625 74.21875 34.8125 74.21875 
Q 49.171875 74.21875 56.984375 64.375 
Q 64.796875 54.546875 64.796875 36.375 
z
" id="DejaVuSans-Bold-30"/>
      </defs>
      <g transform="translate(127.458096 315.945906)scale(0.15 -0.15)">
       <use xlink:href="#DejaVuSans-Bold-35"/>
       <use x="69.580078" xlink:href="#DejaVuSans-Bold-2e"/>
       <use x="107.568359" xlink:href="#DejaVuSans-Bold-30"/>
      </g>
     </g>
    </g>
    <g id="xtick_3">
     <g id="line2d_5">
      <path clip-path="url(#p6dde9045af)" d="M 203.177209 297.54825 
L 203.177209 31.43625 
" style="fill:none;stroke:#b0b0b0;stroke-linecap:square;stroke-width:0.8;"/>
     </g>
     <g id="line2d_6">
      <g>
       <use style="stroke:#000000;stroke-width:0.8;" x="203.177209" xlink:href="#m005f0a59be" y="297.54825"/>
      </g>
     </g>
     <g id="text_3">
      <!-- 7.5 -->
      <defs>
       <path d="M 6.6875 72.90625 
L 61.625 72.90625 
L 61.625 62.3125 
L 33.203125 0 
L 14.890625 0 
L 41.796875 59.078125 
L 6.6875 59.078125 
z
" id="DejaVuSans-Bold-37"/>
      </defs>
      <g transform="translate(189.891662 315.945906)scale(0.15 -0.15)">
       <use xlink:href="#DejaVuSans-Bold-37"/>
       <use x="69.580078" xlink:href="#DejaVuSans-Bold-2e"/>
       <use x="107.568359" xlink:href="#DejaVuSans-Bold-35"/>
      </g>
     </g>
    </g>
    <g id="xtick_4">
     <g id="line2d_7">
      <path clip-path="url(#p6dde9045af)" d="M 265.610776 297.54825 
L 265.610776 31.43625 
" style="fill:none;stroke:#b0b0b0;stroke-linecap:square;stroke-width:0.8;"/>
     </g>
     <g id="line2d_8">
      <g>
       <use style="stroke:#000000;stroke-width:0.8;" x="265.610776" xlink:href="#m005f0a59be" y="297.54825"/>
      </g>
     </g>
     <g id="text_4">
      <!-- 10.0 -->
      <defs>
       <path d="M 11.71875 12.984375 
L 28.328125 12.984375 
L 28.328125 60.109375 
L 11.28125 56.59375 
L 11.28125 69.390625 
L 28.21875 72.90625 
L 46.09375 72.90625 
L 46.09375 12.984375 
L 62.703125 12.984375 
L 62.703125 0 
L 11.71875 0 
z
" id="DejaVuSans-Bold-31"/>
      </defs>
      <g transform="translate(247.10687 315.945906)scale(0.15 -0.15)">
       <use xlink:href="#DejaVuSans-Bold-31"/>
       <use x="69.580078" xlink:href="#DejaVuSans-Bold-30"/>
       <use x="139.160156" xlink:href="#DejaVuSans-Bold-2e"/>
       <use x="177.148438" xlink:href="#DejaVuSans-Bold-30"/>
      </g>
     </g>
    </g>
    <g id="xtick_5">
     <g id="line2d_9">
      <path clip-path="url(#p6dde9045af)" d="M 328.044342 297.54825 
L 328.044342 31.43625 
" style="fill:none;stroke:#b0b0b0;stroke-linecap:square;stroke-width:0.8;"/>
     </g>
     <g id="line2d_10">
      <g>
       <use style="stroke:#000000;stroke-width:0.8;" x="328.044342" xlink:href="#m005f0a59be" y="297.54825"/>
      </g>
     </g>
     <g id="text_5">
      <!-- 12.5 -->
      <g transform="translate(309.540436 315.945906)scale(0.15 -0.15)">
       <use xlink:href="#DejaVuSans-Bold-31"/>
       <use x="69.580078" xlink:href="#DejaVuSans-Bold-32"/>
       <use x="139.160156" xlink:href="#DejaVuSans-Bold-2e"/>
       <use x="177.148438" xlink:href="#DejaVuSans-Bold-35"/>
      </g>
     </g>
    </g>
    <g id="xtick_6">
     <g id="line2d_11">
      <path clip-path="url(#p6dde9045af)" d="M 390.477909 297.54825 
L 390.477909 31.43625 
" style="fill:none;stroke:#b0b0b0;stroke-linecap:square;stroke-width:0.8;"/>
     </g>
     <g id="line2d_12">
      <g>
       <use style="stroke:#000000;stroke-width:0.8;" x="390.477909" xlink:href="#m005f0a59be" y="297.54825"/>
      </g>
     </g>
     <g id="text_6">
      <!-- 15.0 -->
      <g transform="translate(371.974002 315.945906)scale(0.15 -0.15)">
       <use xlink:href="#DejaVuSans-Bold-31"/>
       <use x="69.580078" xlink:href="#DejaVuSans-Bold-35"/>
       <use x="139.160156" xlink:href="#DejaVuSans-Bold-2e"/>
       <use x="177.148438" xlink:href="#DejaVuSans-Bold-30"/>
      </g>
     </g>
    </g>
    <g id="text_7">
     <!-- Trap depth (mW) -->
     <defs>
      <path d="M -0.296875 72.90625 
L 61.375 72.90625 
L 61.375 64.59375 
L 35.5 64.59375 
L 35.5 0 
L 25.59375 0 
L 25.59375 64.59375 
L -0.296875 64.59375 
z
" id="DejaVuSans-54"/>
      <path d="M 41.109375 46.296875 
Q 39.59375 47.171875 37.8125 47.578125 
Q 36.03125 48 33.890625 48 
Q 26.265625 48 22.1875 43.046875 
Q 18.109375 38.09375 18.109375 28.8125 
L 18.109375 0 
L 9.078125 0 
L 9.078125 54.6875 
L 18.109375 54.6875 
L 18.109375 46.1875 
Q 20.953125 51.171875 25.484375 53.578125 
Q 30.03125 56 36.53125 56 
Q 37.453125 56 38.578125 55.875 
Q 39.703125 55.765625 41.0625 55.515625 
z
" id="DejaVuSans-72"/>
      <path d="M 34.28125 27.484375 
Q 23.390625 27.484375 19.1875 25 
Q 14.984375 22.515625 14.984375 16.5 
Q 14.984375 11.71875 18.140625 8.90625 
Q 21.296875 6.109375 26.703125 6.109375 
Q 34.1875 6.109375 38.703125 11.40625 
Q 43.21875 16.703125 43.21875 25.484375 
L 43.21875 27.484375 
z
M 52.203125 31.203125 
L 52.203125 0 
L 43.21875 0 
L 43.21875 8.296875 
Q 40.140625 3.328125 35.546875 0.953125 
Q 30.953125 -1.421875 24.3125 -1.421875 
Q 15.921875 -1.421875 10.953125 3.296875 
Q 6 8.015625 6 15.921875 
Q 6 25.140625 12.171875 29.828125 
Q 18.359375 34.515625 30.609375 34.515625 
L 43.21875 34.515625 
L 43.21875 35.40625 
Q 43.21875 41.609375 39.140625 45 
Q 35.0625 48.390625 27.6875 48.390625 
Q 23 48.390625 18.546875 47.265625 
Q 14.109375 46.140625 10.015625 43.890625 
L 10.015625 52.203125 
Q 14.9375 54.109375 19.578125 55.046875 
Q 24.21875 56 28.609375 56 
Q 40.484375 56 46.34375 49.84375 
Q 52.203125 43.703125 52.203125 31.203125 
z
" id="DejaVuSans-61"/>
      <path d="M 18.109375 8.203125 
L 18.109375 -20.796875 
L 9.078125 -20.796875 
L 9.078125 54.6875 
L 18.109375 54.6875 
L 18.109375 46.390625 
Q 20.953125 51.265625 25.265625 53.625 
Q 29.59375 56 35.59375 56 
Q 45.5625 56 51.78125 48.09375 
Q 58.015625 40.1875 58.015625 27.296875 
Q 58.015625 14.40625 51.78125 6.484375 
Q 45.5625 -1.421875 35.59375 -1.421875 
Q 29.59375 -1.421875 25.265625 0.953125 
Q 20.953125 3.328125 18.109375 8.203125 
z
M 48.6875 27.296875 
Q 48.6875 37.203125 44.609375 42.84375 
Q 40.53125 48.484375 33.40625 48.484375 
Q 26.265625 48.484375 22.1875 42.84375 
Q 18.109375 37.203125 18.109375 27.296875 
Q 18.109375 17.390625 22.1875 11.75 
Q 26.265625 6.109375 33.40625 6.109375 
Q 40.53125 6.109375 44.609375 11.75 
Q 48.6875 17.390625 48.6875 27.296875 
z
" id="DejaVuSans-70"/>
      <path id="DejaVuSans-20"/>
      <path d="M 45.40625 46.390625 
L 45.40625 75.984375 
L 54.390625 75.984375 
L 54.390625 0 
L 45.40625 0 
L 45.40625 8.203125 
Q 42.578125 3.328125 38.25 0.953125 
Q 33.9375 -1.421875 27.875 -1.421875 
Q 17.96875 -1.421875 11.734375 6.484375 
Q 5.515625 14.40625 5.515625 27.296875 
Q 5.515625 40.1875 11.734375 48.09375 
Q 17.96875 56 27.875 56 
Q 33.9375 56 38.25 53.625 
Q 42.578125 51.265625 45.40625 46.390625 
z
M 14.796875 27.296875 
Q 14.796875 17.390625 18.875 11.75 
Q 22.953125 6.109375 30.078125 6.109375 
Q 37.203125 6.109375 41.296875 11.75 
Q 45.40625 17.390625 45.40625 27.296875 
Q 45.40625 37.203125 41.296875 42.84375 
Q 37.203125 48.484375 30.078125 48.484375 
Q 22.953125 48.484375 18.875 42.84375 
Q 14.796875 37.203125 14.796875 27.296875 
z
" id="DejaVuSans-64"/>
      <path d="M 56.203125 29.59375 
L 56.203125 25.203125 
L 14.890625 25.203125 
Q 15.484375 15.921875 20.484375 11.0625 
Q 25.484375 6.203125 34.421875 6.203125 
Q 39.59375 6.203125 44.453125 7.46875 
Q 49.3125 8.734375 54.109375 11.28125 
L 54.109375 2.78125 
Q 49.265625 0.734375 44.1875 -0.34375 
Q 39.109375 -1.421875 33.890625 -1.421875 
Q 20.796875 -1.421875 13.15625 6.1875 
Q 5.515625 13.8125 5.515625 26.8125 
Q 5.515625 40.234375 12.765625 48.109375 
Q 20.015625 56 32.328125 56 
Q 43.359375 56 49.78125 48.890625 
Q 56.203125 41.796875 56.203125 29.59375 
z
M 47.21875 32.234375 
Q 47.125 39.59375 43.09375 43.984375 
Q 39.0625 48.390625 32.421875 48.390625 
Q 24.90625 48.390625 20.390625 44.140625 
Q 15.875 39.890625 15.1875 32.171875 
z
" id="DejaVuSans-65"/>
      <path d="M 18.3125 70.21875 
L 18.3125 54.6875 
L 36.8125 54.6875 
L 36.8125 47.703125 
L 18.3125 47.703125 
L 18.3125 18.015625 
Q 18.3125 11.328125 20.140625 9.421875 
Q 21.96875 7.515625 27.59375 7.515625 
L 36.8125 7.515625 
L 36.8125 0 
L 27.59375 0 
Q 17.1875 0 13.234375 3.875 
Q 9.28125 7.765625 9.28125 18.015625 
L 9.28125 47.703125 
L 2.6875 47.703125 
L 2.6875 54.6875 
L 9.28125 54.6875 
L 9.28125 70.21875 
z
" id="DejaVuSans-74"/>
      <path d="M 54.890625 33.015625 
L 54.890625 0 
L 45.90625 0 
L 45.90625 32.71875 
Q 45.90625 40.484375 42.875 44.328125 
Q 39.84375 48.1875 33.796875 48.1875 
Q 26.515625 48.1875 22.3125 43.546875 
Q 18.109375 38.921875 18.109375 30.90625 
L 18.109375 0 
L 9.078125 0 
L 9.078125 75.984375 
L 18.109375 75.984375 
L 18.109375 46.1875 
Q 21.34375 51.125 25.703125 53.5625 
Q 30.078125 56 35.796875 56 
Q 45.21875 56 50.046875 50.171875 
Q 54.890625 44.34375 54.890625 33.015625 
z
" id="DejaVuSans-68"/>
      <path d="M 31 75.875 
Q 24.46875 64.65625 21.28125 53.65625 
Q 18.109375 42.671875 18.109375 31.390625 
Q 18.109375 20.125 21.3125 9.0625 
Q 24.515625 -2 31 -13.1875 
L 23.1875 -13.1875 
Q 15.875 -1.703125 12.234375 9.375 
Q 8.59375 20.453125 8.59375 31.390625 
Q 8.59375 42.28125 12.203125 53.3125 
Q 15.828125 64.359375 23.1875 75.875 
z
" id="DejaVuSans-28"/>
      <path d="M 52 44.1875 
Q 55.375 50.25 60.0625 53.125 
Q 64.75 56 71.09375 56 
Q 79.640625 56 84.28125 50.015625 
Q 88.921875 44.046875 88.921875 33.015625 
L 88.921875 0 
L 79.890625 0 
L 79.890625 32.71875 
Q 79.890625 40.578125 77.09375 44.375 
Q 74.3125 48.1875 68.609375 48.1875 
Q 61.625 48.1875 57.5625 43.546875 
Q 53.515625 38.921875 53.515625 30.90625 
L 53.515625 0 
L 44.484375 0 
L 44.484375 32.71875 
Q 44.484375 40.625 41.703125 44.40625 
Q 38.921875 48.1875 33.109375 48.1875 
Q 26.21875 48.1875 22.15625 43.53125 
Q 18.109375 38.875 18.109375 30.90625 
L 18.109375 0 
L 9.078125 0 
L 9.078125 54.6875 
L 18.109375 54.6875 
L 18.109375 46.1875 
Q 21.1875 51.21875 25.484375 53.609375 
Q 29.78125 56 35.6875 56 
Q 41.65625 56 45.828125 52.96875 
Q 50 49.953125 52 44.1875 
z
" id="DejaVuSans-6d"/>
      <path d="M 3.328125 72.90625 
L 13.28125 72.90625 
L 28.609375 11.28125 
L 43.890625 72.90625 
L 54.984375 72.90625 
L 70.3125 11.28125 
L 85.59375 72.90625 
L 95.609375 72.90625 
L 77.296875 0 
L 64.890625 0 
L 49.515625 63.28125 
L 33.984375 0 
L 21.578125 0 
z
" id="DejaVuSans-57"/>
      <path d="M 8.015625 75.875 
L 15.828125 75.875 
Q 23.140625 64.359375 26.78125 53.3125 
Q 30.421875 42.28125 30.421875 31.390625 
Q 30.421875 20.453125 26.78125 9.375 
Q 23.140625 -1.703125 15.828125 -13.1875 
L 8.015625 -13.1875 
Q 14.5 -2 17.703125 9.0625 
Q 20.90625 20.125 20.90625 31.390625 
Q 20.90625 42.671875 17.703125 53.65625 
Q 14.5 64.65625 8.015625 75.875 
z
" id="DejaVuSans-29"/>
     </defs>
     <g transform="translate(167.555313 338.262312)scale(0.2 -0.2)">
      <use xlink:href="#DejaVuSans-54"/>
      <use x="60.865234" xlink:href="#DejaVuSans-72"/>
      <use x="101.978516" xlink:href="#DejaVuSans-61"/>
      <use x="163.257812" xlink:href="#DejaVuSans-70"/>
      <use x="226.734375" xlink:href="#DejaVuSans-20"/>
      <use x="258.521484" xlink:href="#DejaVuSans-64"/>
      <use x="321.998047" xlink:href="#DejaVuSans-65"/>
      <use x="383.521484" xlink:href="#DejaVuSans-70"/>
      <use x="446.998047" xlink:href="#DejaVuSans-74"/>
      <use x="486.207031" xlink:href="#DejaVuSans-68"/>
      <use x="549.585938" xlink:href="#DejaVuSans-20"/>
      <use x="581.373047" xlink:href="#DejaVuSans-28"/>
      <use x="620.386719" xlink:href="#DejaVuSans-6d"/>
      <use x="717.798828" xlink:href="#DejaVuSans-57"/>
      <use x="816.675781" xlink:href="#DejaVuSans-29"/>
     </g>
    </g>
   </g>
   <g id="matplotlib.axis_2">
    <g id="ytick_1">
     <g id="line2d_13">
      <path clip-path="url(#p6dde9045af)" d="M 74.564063 263.163269 
L 431.684062 263.163269 
" style="fill:none;stroke:#b0b0b0;stroke-linecap:square;stroke-width:0.8;"/>
     </g>
     <g id="line2d_14">
      <defs>
       <path d="M 0 0 
L -3.5 0 
" id="mc3ce260a5b" style="stroke:#000000;stroke-width:0.8;"/>
      </defs>
      <g>
       <use style="stroke:#000000;stroke-width:0.8;" x="74.564063" xlink:href="#mc3ce260a5b" y="263.163269"/>
      </g>
     </g>
     <g id="text_8">
      <!-- 55.0 -->
      <g transform="translate(30.55625 268.862097)scale(0.15 -0.15)">
       <use xlink:href="#DejaVuSans-Bold-35"/>
       <use x="69.580078" xlink:href="#DejaVuSans-Bold-35"/>
       <use x="139.160156" xlink:href="#DejaVuSans-Bold-2e"/>
       <use x="177.148438" xlink:href="#DejaVuSans-Bold-30"/>
      </g>
     </g>
    </g>
    <g id="ytick_2">
     <g id="line2d_15">
      <path clip-path="url(#p6dde9045af)" d="M 74.564063 226.639041 
L 431.684062 226.639041 
" style="fill:none;stroke:#b0b0b0;stroke-linecap:square;stroke-width:0.8;"/>
     </g>
     <g id="line2d_16">
      <g>
       <use style="stroke:#000000;stroke-width:0.8;" x="74.564063" xlink:href="#mc3ce260a5b" y="226.639041"/>
      </g>
     </g>
     <g id="text_9">
      <!-- 57.5 -->
      <g transform="translate(30.55625 232.337869)scale(0.15 -0.15)">
       <use xlink:href="#DejaVuSans-Bold-35"/>
       <use x="69.580078" xlink:href="#DejaVuSans-Bold-37"/>
       <use x="139.160156" xlink:href="#DejaVuSans-Bold-2e"/>
       <use x="177.148438" xlink:href="#DejaVuSans-Bold-35"/>
      </g>
     </g>
    </g>
    <g id="ytick_3">
     <g id="line2d_17">
      <path clip-path="url(#p6dde9045af)" d="M 74.564063 190.114812 
L 431.684062 190.114812 
" style="fill:none;stroke:#b0b0b0;stroke-linecap:square;stroke-width:0.8;"/>
     </g>
     <g id="line2d_18">
      <g>
       <use style="stroke:#000000;stroke-width:0.8;" x="74.564063" xlink:href="#mc3ce260a5b" y="190.114812"/>
      </g>
     </g>
     <g id="text_10">
      <!-- 60.0 -->
      <defs>
       <path d="M 36.1875 35.984375 
Q 31.25 35.984375 28.78125 32.78125 
Q 26.3125 29.59375 26.3125 23.1875 
Q 26.3125 16.796875 28.78125 13.59375 
Q 31.25 10.40625 36.1875 10.40625 
Q 41.15625 10.40625 43.625 13.59375 
Q 46.09375 16.796875 46.09375 23.1875 
Q 46.09375 29.59375 43.625 32.78125 
Q 41.15625 35.984375 36.1875 35.984375 
z
M 59.421875 71 
L 59.421875 57.515625 
Q 54.78125 59.71875 50.671875 60.765625 
Q 46.578125 61.8125 42.671875 61.8125 
Q 34.28125 61.8125 29.59375 57.140625 
Q 24.90625 52.484375 24.125 43.3125 
Q 27.34375 45.703125 31.09375 46.890625 
Q 34.859375 48.09375 39.3125 48.09375 
Q 50.484375 48.09375 57.34375 41.546875 
Q 64.203125 35.015625 64.203125 24.421875 
Q 64.203125 12.703125 56.53125 5.640625 
Q 48.875 -1.421875 35.984375 -1.421875 
Q 21.78125 -1.421875 13.984375 8.171875 
Q 6.203125 17.78125 6.203125 35.40625 
Q 6.203125 53.46875 15.3125 63.796875 
Q 24.421875 74.125 40.28125 74.125 
Q 45.3125 74.125 50.046875 73.34375 
Q 54.78125 72.5625 59.421875 71 
z
" id="DejaVuSans-Bold-36"/>
      </defs>
      <g transform="translate(30.55625 195.81364)scale(0.15 -0.15)">
       <use xlink:href="#DejaVuSans-Bold-36"/>
       <use x="69.580078" xlink:href="#DejaVuSans-Bold-30"/>
       <use x="139.160156" xlink:href="#DejaVuSans-Bold-2e"/>
       <use x="177.148438" xlink:href="#DejaVuSans-Bold-30"/>
      </g>
     </g>
    </g>
    <g id="ytick_4">
     <g id="line2d_19">
      <path clip-path="url(#p6dde9045af)" d="M 74.564063 153.590584 
L 431.684062 153.590584 
" style="fill:none;stroke:#b0b0b0;stroke-linecap:square;stroke-width:0.8;"/>
     </g>
     <g id="line2d_20">
      <g>
       <use style="stroke:#000000;stroke-width:0.8;" x="74.564063" xlink:href="#mc3ce260a5b" y="153.590584"/>
      </g>
     </g>
     <g id="text_11">
      <!-- 62.5 -->
      <g transform="translate(30.55625 159.289412)scale(0.15 -0.15)">
       <use xlink:href="#DejaVuSans-Bold-36"/>
       <use x="69.580078" xlink:href="#DejaVuSans-Bold-32"/>
       <use x="139.160156" xlink:href="#DejaVuSans-Bold-2e"/>
       <use x="177.148438" xlink:href="#DejaVuSans-Bold-35"/>
      </g>
     </g>
    </g>
    <g id="ytick_5">
     <g id="line2d_21">
      <path clip-path="url(#p6dde9045af)" d="M 74.564063 117.066355 
L 431.684062 117.066355 
" style="fill:none;stroke:#b0b0b0;stroke-linecap:square;stroke-width:0.8;"/>
     </g>
     <g id="line2d_22">
      <g>
       <use style="stroke:#000000;stroke-width:0.8;" x="74.564063" xlink:href="#mc3ce260a5b" y="117.066355"/>
      </g>
     </g>
     <g id="text_12">
      <!-- 65.0 -->
      <g transform="translate(30.55625 122.765183)scale(0.15 -0.15)">
       <use xlink:href="#DejaVuSans-Bold-36"/>
       <use x="69.580078" xlink:href="#DejaVuSans-Bold-35"/>
       <use x="139.160156" xlink:href="#DejaVuSans-Bold-2e"/>
       <use x="177.148438" xlink:href="#DejaVuSans-Bold-30"/>
      </g>
     </g>
    </g>
    <g id="ytick_6">
     <g id="line2d_23">
      <path clip-path="url(#p6dde9045af)" d="M 74.564063 80.542126 
L 431.684062 80.542126 
" style="fill:none;stroke:#b0b0b0;stroke-linecap:square;stroke-width:0.8;"/>
     </g>
     <g id="line2d_24">
      <g>
       <use style="stroke:#000000;stroke-width:0.8;" x="74.564063" xlink:href="#mc3ce260a5b" y="80.542126"/>
      </g>
     </g>
     <g id="text_13">
      <!-- 67.5 -->
      <g transform="translate(30.55625 86.240955)scale(0.15 -0.15)">
       <use xlink:href="#DejaVuSans-Bold-36"/>
       <use x="69.580078" xlink:href="#DejaVuSans-Bold-37"/>
       <use x="139.160156" xlink:href="#DejaVuSans-Bold-2e"/>
       <use x="177.148438" xlink:href="#DejaVuSans-Bold-35"/>
      </g>
     </g>
    </g>
    <g id="ytick_7">
     <g id="line2d_25">
      <path clip-path="url(#p6dde9045af)" d="M 74.564063 44.017898 
L 431.684062 44.017898 
" style="fill:none;stroke:#b0b0b0;stroke-linecap:square;stroke-width:0.8;"/>
     </g>
     <g id="line2d_26">
      <g>
       <use style="stroke:#000000;stroke-width:0.8;" x="74.564063" xlink:href="#mc3ce260a5b" y="44.017898"/>
      </g>
     </g>
     <g id="text_14">
      <!-- 70.0 -->
      <g transform="translate(30.55625 49.716726)scale(0.15 -0.15)">
       <use xlink:href="#DejaVuSans-Bold-37"/>
       <use x="69.580078" xlink:href="#DejaVuSans-Bold-30"/>
       <use x="139.160156" xlink:href="#DejaVuSans-Bold-2e"/>
       <use x="177.148438" xlink:href="#DejaVuSans-Bold-30"/>
      </g>
     </g>
    </g>
    <g id="text_15">
     <!-- Frequency (kHz) -->
     <defs>
      <path d="M 9.8125 72.90625 
L 51.703125 72.90625 
L 51.703125 64.59375 
L 19.671875 64.59375 
L 19.671875 43.109375 
L 48.578125 43.109375 
L 48.578125 34.8125 
L 19.671875 34.8125 
L 19.671875 0 
L 9.8125 0 
z
" id="DejaVuSans-46"/>
      <path d="M 14.796875 27.296875 
Q 14.796875 17.390625 18.875 11.75 
Q 22.953125 6.109375 30.078125 6.109375 
Q 37.203125 6.109375 41.296875 11.75 
Q 45.40625 17.390625 45.40625 27.296875 
Q 45.40625 37.203125 41.296875 42.84375 
Q 37.203125 48.484375 30.078125 48.484375 
Q 22.953125 48.484375 18.875 42.84375 
Q 14.796875 37.203125 14.796875 27.296875 
z
M 45.40625 8.203125 
Q 42.578125 3.328125 38.25 0.953125 
Q 33.9375 -1.421875 27.875 -1.421875 
Q 17.96875 -1.421875 11.734375 6.484375 
Q 5.515625 14.40625 5.515625 27.296875 
Q 5.515625 40.1875 11.734375 48.09375 
Q 17.96875 56 27.875 56 
Q 33.9375 56 38.25 53.625 
Q 42.578125 51.265625 45.40625 46.390625 
L 45.40625 54.6875 
L 54.390625 54.6875 
L 54.390625 -20.796875 
L 45.40625 -20.796875 
z
" id="DejaVuSans-71"/>
      <path d="M 8.5 21.578125 
L 8.5 54.6875 
L 17.484375 54.6875 
L 17.484375 21.921875 
Q 17.484375 14.15625 20.5 10.265625 
Q 23.53125 6.390625 29.59375 6.390625 
Q 36.859375 6.390625 41.078125 11.03125 
Q 45.3125 15.671875 45.3125 23.6875 
L 45.3125 54.6875 
L 54.296875 54.6875 
L 54.296875 0 
L 45.3125 0 
L 45.3125 8.40625 
Q 42.046875 3.421875 37.71875 1 
Q 33.40625 -1.421875 27.6875 -1.421875 
Q 18.265625 -1.421875 13.375 4.4375 
Q 8.5 10.296875 8.5 21.578125 
z
M 31.109375 56 
z
" id="DejaVuSans-75"/>
      <path d="M 54.890625 33.015625 
L 54.890625 0 
L 45.90625 0 
L 45.90625 32.71875 
Q 45.90625 40.484375 42.875 44.328125 
Q 39.84375 48.1875 33.796875 48.1875 
Q 26.515625 48.1875 22.3125 43.546875 
Q 18.109375 38.921875 18.109375 30.90625 
L 18.109375 0 
L 9.078125 0 
L 9.078125 54.6875 
L 18.109375 54.6875 
L 18.109375 46.1875 
Q 21.34375 51.125 25.703125 53.5625 
Q 30.078125 56 35.796875 56 
Q 45.21875 56 50.046875 50.171875 
Q 54.890625 44.34375 54.890625 33.015625 
z
" id="DejaVuSans-6e"/>
      <path d="M 48.78125 52.59375 
L 48.78125 44.1875 
Q 44.96875 46.296875 41.140625 47.34375 
Q 37.3125 48.390625 33.40625 48.390625 
Q 24.65625 48.390625 19.8125 42.84375 
Q 14.984375 37.3125 14.984375 27.296875 
Q 14.984375 17.28125 19.8125 11.734375 
Q 24.65625 6.203125 33.40625 6.203125 
Q 37.3125 6.203125 41.140625 7.25 
Q 44.96875 8.296875 48.78125 10.40625 
L 48.78125 2.09375 
Q 45.015625 0.34375 40.984375 -0.53125 
Q 36.96875 -1.421875 32.421875 -1.421875 
Q 20.0625 -1.421875 12.78125 6.34375 
Q 5.515625 14.109375 5.515625 27.296875 
Q 5.515625 40.671875 12.859375 48.328125 
Q 20.21875 56 33.015625 56 
Q 37.15625 56 41.109375 55.140625 
Q 45.0625 54.296875 48.78125 52.59375 
z
" id="DejaVuSans-63"/>
      <path d="M 32.171875 -5.078125 
Q 28.375 -14.84375 24.75 -17.8125 
Q 21.140625 -20.796875 15.09375 -20.796875 
L 7.90625 -20.796875 
L 7.90625 -13.28125 
L 13.1875 -13.28125 
Q 16.890625 -13.28125 18.9375 -11.515625 
Q 21 -9.765625 23.484375 -3.21875 
L 25.09375 0.875 
L 2.984375 54.6875 
L 12.5 54.6875 
L 29.59375 11.921875 
L 46.6875 54.6875 
L 56.203125 54.6875 
z
" id="DejaVuSans-79"/>
      <path d="M 9.078125 75.984375 
L 18.109375 75.984375 
L 18.109375 31.109375 
L 44.921875 54.6875 
L 56.390625 54.6875 
L 27.390625 29.109375 
L 57.625 0 
L 45.90625 0 
L 18.109375 26.703125 
L 18.109375 0 
L 9.078125 0 
z
" id="DejaVuSans-6b"/>
      <path d="M 9.8125 72.90625 
L 19.671875 72.90625 
L 19.671875 43.015625 
L 55.515625 43.015625 
L 55.515625 72.90625 
L 65.375 72.90625 
L 65.375 0 
L 55.515625 0 
L 55.515625 34.71875 
L 19.671875 34.71875 
L 19.671875 0 
L 9.8125 0 
z
" id="DejaVuSans-48"/>
      <path d="M 5.515625 54.6875 
L 48.1875 54.6875 
L 48.1875 46.484375 
L 14.40625 7.171875 
L 48.1875 7.171875 
L 48.1875 0 
L 4.296875 0 
L 4.296875 8.203125 
L 38.09375 47.515625 
L 5.515625 47.515625 
z
" id="DejaVuSans-7a"/>
     </defs>
     <g transform="translate(22.396875 246.628187)rotate(-90)scale(0.2 -0.2)">
      <use xlink:href="#DejaVuSans-46"/>
      <use x="57.410156" xlink:href="#DejaVuSans-72"/>
      <use x="98.492188" xlink:href="#DejaVuSans-65"/>
      <use x="160.015625" xlink:href="#DejaVuSans-71"/>
      <use x="223.492188" xlink:href="#DejaVuSans-75"/>
      <use x="286.871094" xlink:href="#DejaVuSans-65"/>
      <use x="348.394531" xlink:href="#DejaVuSans-6e"/>
      <use x="411.773438" xlink:href="#DejaVuSans-63"/>
      <use x="466.753906" xlink:href="#DejaVuSans-79"/>
      <use x="525.933594" xlink:href="#DejaVuSans-20"/>
      <use x="557.720703" xlink:href="#DejaVuSans-28"/>
      <use x="596.734375" xlink:href="#DejaVuSans-6b"/>
      <use x="654.644531" xlink:href="#DejaVuSans-48"/>
      <use x="729.839844" xlink:href="#DejaVuSans-7a"/>
      <use x="782.330078" xlink:href="#DejaVuSans-29"/>
     </g>
    </g>
   </g>
   <g id="LineCollection_1">
    <path clip-path="url(#p6dde9045af)" d="M 103.283503 161.712239 
L 103.283503 74.237951 
" style="fill:none;stroke:#1f77b4;stroke-width:1.5;"/>
    <path clip-path="url(#p6dde9045af)" d="M 140.743643 103.653874 
L 140.743643 43.53225 
" style="fill:none;stroke:#1f77b4;stroke-width:1.5;"/>
    <path clip-path="url(#p6dde9045af)" d="M 178.203783 133.099553 
L 178.203783 59.956416 
" style="fill:none;stroke:#1f77b4;stroke-width:1.5;"/>
    <path clip-path="url(#p6dde9045af)" d="M 215.663923 155.109881 
L 215.663923 78.643968 
" style="fill:none;stroke:#1f77b4;stroke-width:1.5;"/>
    <path clip-path="url(#p6dde9045af)" d="M 253.124063 126.693635 
L 253.124063 58.415196 
" style="fill:none;stroke:#1f77b4;stroke-width:1.5;"/>
    <path clip-path="url(#p6dde9045af)" d="M 290.584202 155.695121 
L 290.584202 88.510172 
" style="fill:none;stroke:#1f77b4;stroke-width:1.5;"/>
    <path clip-path="url(#p6dde9045af)" d="M 328.044342 151.217107 
L 328.044342 70.854388 
" style="fill:none;stroke:#1f77b4;stroke-width:1.5;"/>
    <path clip-path="url(#p6dde9045af)" d="M 365.504482 146.991657 
L 365.504482 61.441104 
" style="fill:none;stroke:#1f77b4;stroke-width:1.5;"/>
    <path clip-path="url(#p6dde9045af)" d="M 402.964622 161.235129 
L 402.964622 77.722779 
" style="fill:none;stroke:#1f77b4;stroke-width:1.5;"/>
   </g>
   <g id="LineCollection_2">
    <path clip-path="url(#p6dde9045af)" d="M 103.283503 166.070235 
L 103.283503 111.388079 
" style="fill:none;stroke:#ff7f0e;stroke-width:1.5;"/>
    <path clip-path="url(#p6dde9045af)" d="M 140.743643 185.521502 
L 140.743643 105.049204 
" style="fill:none;stroke:#ff7f0e;stroke-width:1.5;"/>
    <path clip-path="url(#p6dde9045af)" d="M 178.203783 167.916303 
L 178.203783 105.341223 
" style="fill:none;stroke:#ff7f0e;stroke-width:1.5;"/>
    <path clip-path="url(#p6dde9045af)" d="M 215.663923 192.726537 
L 215.663923 120.62078 
" style="fill:none;stroke:#ff7f0e;stroke-width:1.5;"/>
    <path clip-path="url(#p6dde9045af)" d="M 253.124063 190.684491 
L 253.124063 148.020863 
" style="fill:none;stroke:#ff7f0e;stroke-width:1.5;"/>
    <path clip-path="url(#p6dde9045af)" d="M 290.584202 203.163444 
L 290.584202 141.569875 
" style="fill:none;stroke:#ff7f0e;stroke-width:1.5;"/>
    <path clip-path="url(#p6dde9045af)" d="M 328.044342 234.502347 
L 328.044342 145.75376 
" style="fill:none;stroke:#ff7f0e;stroke-width:1.5;"/>
    <path clip-path="url(#p6dde9045af)" d="M 365.504482 243.635892 
L 365.504482 160.514383 
" style="fill:none;stroke:#ff7f0e;stroke-width:1.5;"/>
    <path clip-path="url(#p6dde9045af)" d="M 402.964622 285.45225 
L 402.964622 199.769623 
" style="fill:none;stroke:#ff7f0e;stroke-width:1.5;"/>
   </g>
   <g id="LineCollection_3">
    <path clip-path="url(#p6dde9045af)" d="M 103.283503 198.472985 
L 103.283503 156.048216 
" style="fill:none;stroke:#2ca02c;stroke-width:1.5;"/>
    <path clip-path="url(#p6dde9045af)" d="M 140.743643 181.866456 
L 140.743643 143.679878 
" style="fill:none;stroke:#2ca02c;stroke-width:1.5;"/>
    <path clip-path="url(#p6dde9045af)" d="M 178.203783 183.892311 
L 178.203783 142.328109 
" style="fill:none;stroke:#2ca02c;stroke-width:1.5;"/>
    <path clip-path="url(#p6dde9045af)" d="M 215.663923 186.043116 
L 215.663923 141.777318 
" style="fill:none;stroke:#2ca02c;stroke-width:1.5;"/>
    <path clip-path="url(#p6dde9045af)" d="M 253.124063 136.941376 
L 253.124063 96.722082 
" style="fill:none;stroke:#2ca02c;stroke-width:1.5;"/>
    <path clip-path="url(#p6dde9045af)" d="M 290.584202 142.462966 
L 290.584202 107.789982 
" style="fill:none;stroke:#2ca02c;stroke-width:1.5;"/>
    <path clip-path="url(#p6dde9045af)" d="M 328.044342 161.565145 
L 328.044342 116.314402 
" style="fill:none;stroke:#2ca02c;stroke-width:1.5;"/>
    <path clip-path="url(#p6dde9045af)" d="M 365.504482 167.26357 
L 365.504482 124.792949 
" style="fill:none;stroke:#2ca02c;stroke-width:1.5;"/>
    <path clip-path="url(#p6dde9045af)" d="M 402.964622 146.992271 
L 402.964622 110.50575 
" style="fill:none;stroke:#2ca02c;stroke-width:1.5;"/>
   </g>
   <g id="LineCollection_4">
    <path clip-path="url(#p6dde9045af)" d="M 103.283503 203.977279 
L 103.283503 170.682757 
" style="fill:none;stroke:#d62728;stroke-width:1.5;"/>
    <path clip-path="url(#p6dde9045af)" d="M 140.743643 209.233716 
L 140.743643 178.300881 
" style="fill:none;stroke:#d62728;stroke-width:1.5;"/>
    <path clip-path="url(#p6dde9045af)" d="M 178.203783 203.750955 
L 178.203783 174.305633 
" style="fill:none;stroke:#d62728;stroke-width:1.5;"/>
    <path clip-path="url(#p6dde9045af)" d="M 215.663923 236.218818 
L 215.663923 197.212845 
" style="fill:none;stroke:#d62728;stroke-width:1.5;"/>
    <path clip-path="url(#p6dde9045af)" d="M 253.124063 243.316861 
L 253.124063 199.072325 
" style="fill:none;stroke:#d62728;stroke-width:1.5;"/>
    <path clip-path="url(#p6dde9045af)" d="M 290.584202 224.148556 
L 290.584202 184.98854 
" style="fill:none;stroke:#d62728;stroke-width:1.5;"/>
    <path clip-path="url(#p6dde9045af)" d="M 328.044342 226.046166 
L 328.044342 192.481002 
" style="fill:none;stroke:#d62728;stroke-width:1.5;"/>
    <path clip-path="url(#p6dde9045af)" d="M 365.504482 250.137246 
L 365.504482 198.94192 
" style="fill:none;stroke:#d62728;stroke-width:1.5;"/>
    <path clip-path="url(#p6dde9045af)" d="M 402.964622 263.239098 
L 402.964622 224.849277 
" style="fill:none;stroke:#d62728;stroke-width:1.5;"/>
   </g>
   <g id="line2d_27">
    <path clip-path="url(#p6dde9045af)" d="M 90.79679 97.35415 
L 415.451335 113.49374 
L 415.451335 113.49374 
" style="fill:none;stroke:#1f77b4;stroke-linecap:square;stroke-width:1.5;"/>
   </g>
   <g id="line2d_28">
    <path clip-path="url(#p6dde9045af)" d="M 90.79679 118.00616 
L 415.451335 223.637796 
L 415.451335 223.637796 
" style="fill:none;stroke:#ff7f0e;stroke-linecap:square;stroke-width:1.5;"/>
   </g>
   <g id="line2d_29">
    <path clip-path="url(#p6dde9045af)" d="M 90.79679 166.020023 
L 415.451335 124.040587 
L 415.451335 124.040587 
" style="fill:none;stroke:#2ca02c;stroke-linecap:square;stroke-width:1.5;"/>
   </g>
   <g id="line2d_30">
    <path clip-path="url(#p6dde9045af)" d="M 90.79679 186.317418 
L 415.451335 232.29336 
L 415.451335 232.29336 
" style="fill:none;stroke:#d62728;stroke-linecap:square;stroke-width:1.5;"/>
   </g>
   <g id="line2d_31">
    <defs>
     <path d="M 0 3 
C 0.795609 3 1.55874 2.683901 2.12132 2.12132 
C 2.683901 1.55874 3 0.795609 3 0 
C 3 -0.795609 2.683901 -1.55874 2.12132 -2.12132 
C 1.55874 -2.683901 0.795609 -3 0 -3 
C -0.795609 -3 -1.55874 -2.683901 -2.12132 -2.12132 
C -2.683901 -1.55874 -3 -0.795609 -3 0 
C -3 0.795609 -2.683901 1.55874 -2.12132 2.12132 
C -1.55874 2.683901 -0.795609 3 0 3 
z
" id="mcb2457e3ba" style="stroke:#1f77b4;"/>
    </defs>
    <g clip-path="url(#p6dde9045af)">
     <use style="fill:#1f77b4;stroke:#1f77b4;" x="103.283503" xlink:href="#mcb2457e3ba" y="117.975095"/>
     <use style="fill:#1f77b4;stroke:#1f77b4;" x="140.743643" xlink:href="#mcb2457e3ba" y="73.593062"/>
     <use style="fill:#1f77b4;stroke:#1f77b4;" x="178.203783" xlink:href="#mcb2457e3ba" y="96.527985"/>
     <use style="fill:#1f77b4;stroke:#1f77b4;" x="215.663923" xlink:href="#mcb2457e3ba" y="116.876924"/>
     <use style="fill:#1f77b4;stroke:#1f77b4;" x="253.124063" xlink:href="#mcb2457e3ba" y="92.554415"/>
     <use style="fill:#1f77b4;stroke:#1f77b4;" x="290.584202" xlink:href="#mcb2457e3ba" y="122.102647"/>
     <use style="fill:#1f77b4;stroke:#1f77b4;" x="328.044342" xlink:href="#mcb2457e3ba" y="111.035748"/>
     <use style="fill:#1f77b4;stroke:#1f77b4;" x="365.504482" xlink:href="#mcb2457e3ba" y="104.216381"/>
     <use style="fill:#1f77b4;stroke:#1f77b4;" x="402.964622" xlink:href="#mcb2457e3ba" y="119.478954"/>
    </g>
   </g>
   <g id="line2d_32">
    <defs>
     <path d="M 0 3 
C 0.795609 3 1.55874 2.683901 2.12132 2.12132 
C 2.683901 1.55874 3 0.795609 3 0 
C 3 -0.795609 2.683901 -1.55874 2.12132 -2.12132 
C 1.55874 -2.683901 0.795609 -3 0 -3 
C -0.795609 -3 -1.55874 -2.683901 -2.12132 -2.12132 
C -2.683901 -1.55874 -3 -0.795609 -3 0 
C -3 0.795609 -2.683901 1.55874 -2.12132 2.12132 
C -1.55874 2.683901 -0.795609 3 0 3 
z
" id="mbbb2a9d153" style="stroke:#ff7f0e;"/>
    </defs>
    <g clip-path="url(#p6dde9045af)">
     <use style="fill:#ff7f0e;stroke:#ff7f0e;" x="103.283503" xlink:href="#mbbb2a9d153" y="138.729157"/>
     <use style="fill:#ff7f0e;stroke:#ff7f0e;" x="140.743643" xlink:href="#mbbb2a9d153" y="145.285353"/>
     <use style="fill:#ff7f0e;stroke:#ff7f0e;" x="178.203783" xlink:href="#mbbb2a9d153" y="136.628763"/>
     <use style="fill:#ff7f0e;stroke:#ff7f0e;" x="215.663923" xlink:href="#mbbb2a9d153" y="156.673658"/>
     <use style="fill:#ff7f0e;stroke:#ff7f0e;" x="253.124063" xlink:href="#mbbb2a9d153" y="169.352677"/>
     <use style="fill:#ff7f0e;stroke:#ff7f0e;" x="290.584202" xlink:href="#mbbb2a9d153" y="172.36666"/>
     <use style="fill:#ff7f0e;stroke:#ff7f0e;" x="328.044342" xlink:href="#mbbb2a9d153" y="190.128053"/>
     <use style="fill:#ff7f0e;stroke:#ff7f0e;" x="365.504482" xlink:href="#mbbb2a9d153" y="202.075138"/>
     <use style="fill:#ff7f0e;stroke:#ff7f0e;" x="402.964622" xlink:href="#mbbb2a9d153" y="242.610937"/>
    </g>
   </g>
   <g id="line2d_33">
    <defs>
     <path d="M 0 3 
C 0.795609 3 1.55874 2.683901 2.12132 2.12132 
C 2.683901 1.55874 3 0.795609 3 0 
C 3 -0.795609 2.683901 -1.55874 2.12132 -2.12132 
C 1.55874 -2.683901 0.795609 -3 0 -3 
C -0.795609 -3 -1.55874 -2.683901 -2.12132 -2.12132 
C -2.683901 -1.55874 -3 -0.795609 -3 0 
C -3 0.795609 -2.683901 1.55874 -2.12132 2.12132 
C -1.55874 2.683901 -0.795609 3 0 3 
z
" id="mbab2358add" style="stroke:#2ca02c;"/>
    </defs>
    <g clip-path="url(#p6dde9045af)">
     <use style="fill:#2ca02c;stroke:#2ca02c;" x="103.283503" xlink:href="#mbab2358add" y="177.2606"/>
     <use style="fill:#2ca02c;stroke:#2ca02c;" x="140.743643" xlink:href="#mbab2358add" y="162.773167"/>
     <use style="fill:#2ca02c;stroke:#2ca02c;" x="178.203783" xlink:href="#mbab2358add" y="163.11021"/>
     <use style="fill:#2ca02c;stroke:#2ca02c;" x="215.663923" xlink:href="#mbab2358add" y="163.910217"/>
     <use style="fill:#2ca02c;stroke:#2ca02c;" x="253.124063" xlink:href="#mbab2358add" y="116.831729"/>
     <use style="fill:#2ca02c;stroke:#2ca02c;" x="290.584202" xlink:href="#mbab2358add" y="125.126474"/>
     <use style="fill:#2ca02c;stroke:#2ca02c;" x="328.044342" xlink:href="#mbab2358add" y="138.939774"/>
     <use style="fill:#2ca02c;stroke:#2ca02c;" x="365.504482" xlink:href="#mbab2358add" y="146.028259"/>
     <use style="fill:#2ca02c;stroke:#2ca02c;" x="402.964622" xlink:href="#mbab2358add" y="128.749011"/>
    </g>
   </g>
   <g id="line2d_34">
    <defs>
     <path d="M 0 3 
C 0.795609 3 1.55874 2.683901 2.12132 2.12132 
C 2.683901 1.55874 3 0.795609 3 0 
C 3 -0.795609 2.683901 -1.55874 2.12132 -2.12132 
C 1.55874 -2.683901 0.795609 -3 0 -3 
C -0.795609 -3 -1.55874 -2.683901 -2.12132 -2.12132 
C -2.683901 -1.55874 -3 -0.795609 -3 0 
C -3 0.795609 -2.683901 1.55874 -2.12132 2.12132 
C -1.55874 2.683901 -0.795609 3 0 3 
z
" id="m4d17eb6f4c" style="stroke:#d62728;"/>
    </defs>
    <g clip-path="url(#p6dde9045af)">
     <use style="fill:#d62728;stroke:#d62728;" x="103.283503" xlink:href="#m4d17eb6f4c" y="187.330018"/>
     <use style="fill:#d62728;stroke:#d62728;" x="140.743643" xlink:href="#m4d17eb6f4c" y="193.767299"/>
     <use style="fill:#d62728;stroke:#d62728;" x="178.203783" xlink:href="#m4d17eb6f4c" y="189.028294"/>
     <use style="fill:#d62728;stroke:#d62728;" x="215.663923" xlink:href="#m4d17eb6f4c" y="216.715831"/>
     <use style="fill:#d62728;stroke:#d62728;" x="253.124063" xlink:href="#m4d17eb6f4c" y="221.194593"/>
     <use style="fill:#d62728;stroke:#d62728;" x="290.584202" xlink:href="#m4d17eb6f4c" y="204.568548"/>
     <use style="fill:#d62728;stroke:#d62728;" x="328.044342" xlink:href="#m4d17eb6f4c" y="209.263584"/>
     <use style="fill:#d62728;stroke:#d62728;" x="365.504482" xlink:href="#m4d17eb6f4c" y="224.539583"/>
     <use style="fill:#d62728;stroke:#d62728;" x="402.964622" xlink:href="#m4d17eb6f4c" y="244.044188"/>
    </g>
   </g>
   <g id="patch_3">
    <path d="M 74.564063 297.54825 
L 74.564063 31.43625 
" style="fill:none;stroke:#000000;stroke-linecap:square;stroke-linejoin:miter;stroke-width:0.8;"/>
   </g>
   <g id="patch_4">
    <path d="M 431.684062 297.54825 
L 431.684062 31.43625 
" style="fill:none;stroke:#000000;stroke-linecap:square;stroke-linejoin:miter;stroke-width:0.8;"/>
   </g>
   <g id="patch_5">
    <path d="M 74.564063 297.54825 
L 431.684062 297.54825 
" style="fill:none;stroke:#000000;stroke-linecap:square;stroke-linejoin:miter;stroke-width:0.8;"/>
   </g>
   <g id="patch_6">
    <path d="M 74.564063 31.43625 
L 431.684062 31.43625 
" style="fill:none;stroke:#000000;stroke-linecap:square;stroke-linejoin:miter;stroke-width:0.8;"/>
   </g>
   <g id="text_16">
    <!-- Resonance -->
    <defs>
     <path d="M 44.390625 34.1875 
Q 47.5625 33.109375 50.5625 29.59375 
Q 53.5625 26.078125 56.59375 19.921875 
L 66.609375 0 
L 56 0 
L 46.6875 18.703125 
Q 43.0625 26.03125 39.671875 28.421875 
Q 36.28125 30.8125 30.421875 30.8125 
L 19.671875 30.8125 
L 19.671875 0 
L 9.8125 0 
L 9.8125 72.90625 
L 32.078125 72.90625 
Q 44.578125 72.90625 50.734375 67.671875 
Q 56.890625 62.453125 56.890625 51.90625 
Q 56.890625 45.015625 53.6875 40.46875 
Q 50.484375 35.9375 44.390625 34.1875 
z
M 19.671875 64.796875 
L 19.671875 38.921875 
L 32.078125 38.921875 
Q 39.203125 38.921875 42.84375 42.21875 
Q 46.484375 45.515625 46.484375 51.90625 
Q 46.484375 58.296875 42.84375 61.546875 
Q 39.203125 64.796875 32.078125 64.796875 
z
" id="DejaVuSans-52"/>
     <path d="M 44.28125 53.078125 
L 44.28125 44.578125 
Q 40.484375 46.53125 36.375 47.5 
Q 32.28125 48.484375 27.875 48.484375 
Q 21.1875 48.484375 17.84375 46.4375 
Q 14.5 44.390625 14.5 40.28125 
Q 14.5 37.15625 16.890625 35.375 
Q 19.28125 33.59375 26.515625 31.984375 
L 29.59375 31.296875 
Q 39.15625 29.25 43.1875 25.515625 
Q 47.21875 21.78125 47.21875 15.09375 
Q 47.21875 7.46875 41.1875 3.015625 
Q 35.15625 -1.421875 24.609375 -1.421875 
Q 20.21875 -1.421875 15.453125 -0.5625 
Q 10.6875 0.296875 5.421875 2 
L 5.421875 11.28125 
Q 10.40625 8.6875 15.234375 7.390625 
Q 20.0625 6.109375 24.8125 6.109375 
Q 31.15625 6.109375 34.5625 8.28125 
Q 37.984375 10.453125 37.984375 14.40625 
Q 37.984375 18.0625 35.515625 20.015625 
Q 33.0625 21.96875 24.703125 23.78125 
L 21.578125 24.515625 
Q 13.234375 26.265625 9.515625 29.90625 
Q 5.8125 33.546875 5.8125 39.890625 
Q 5.8125 47.609375 11.28125 51.796875 
Q 16.75 56 26.8125 56 
Q 31.78125 56 36.171875 55.265625 
Q 40.578125 54.546875 44.28125 53.078125 
z
" id="DejaVuSans-73"/>
     <path d="M 30.609375 48.390625 
Q 23.390625 48.390625 19.1875 42.75 
Q 14.984375 37.109375 14.984375 27.296875 
Q 14.984375 17.484375 19.15625 11.84375 
Q 23.34375 6.203125 30.609375 6.203125 
Q 37.796875 6.203125 41.984375 11.859375 
Q 46.1875 17.53125 46.1875 27.296875 
Q 46.1875 37.015625 41.984375 42.703125 
Q 37.796875 48.390625 30.609375 48.390625 
z
M 30.609375 56 
Q 42.328125 56 49.015625 48.375 
Q 55.71875 40.765625 55.71875 27.296875 
Q 55.71875 13.875 49.015625 6.21875 
Q 42.328125 -1.421875 30.609375 -1.421875 
Q 18.84375 -1.421875 12.171875 6.21875 
Q 5.515625 13.875 5.515625 27.296875 
Q 5.515625 40.765625 12.171875 48.375 
Q 18.84375 56 30.609375 56 
z
" id="DejaVuSans-6f"/>
    </defs>
    <g transform="translate(187.270313 25.43625)scale(0.24 -0.24)">
     <use xlink:href="#DejaVuSans-52"/>
     <use x="69.419922" xlink:href="#DejaVuSans-65"/>
     <use x="130.943359" xlink:href="#DejaVuSans-73"/>
     <use x="183.042969" xlink:href="#DejaVuSans-6f"/>
     <use x="244.224609" xlink:href="#DejaVuSans-6e"/>
     <use x="307.603516" xlink:href="#DejaVuSans-61"/>
     <use x="368.882812" xlink:href="#DejaVuSans-6e"/>
     <use x="432.261719" xlink:href="#DejaVuSans-63"/>
     <use x="487.242188" xlink:href="#DejaVuSans-65"/>
    </g>
   </g>
   <g id="legend_1">
    <g id="patch_7">
     <path d="M 453.540062 154.86125 
L 670.740063 154.86125 
Q 674.740063 154.86125 674.740063 150.86125 
L 674.740063 35.43625 
Q 674.740063 31.43625 670.740063 31.43625 
L 453.540062 31.43625 
Q 449.540062 31.43625 449.540062 35.43625 
L 449.540062 150.86125 
Q 449.540062 154.86125 453.540062 154.86125 
z
" style="fill:#ffffff;opacity:0.8;stroke:#cccccc;stroke-linejoin:miter;"/>
    </g>
    <g id="LineCollection_5">
     <path d="M 477.540062 57.633125 
L 477.540062 37.633125 
" style="fill:none;stroke:#1f77b4;stroke-width:1.5;"/>
    </g>
    <g id="line2d_35"/>
    <g id="line2d_36">
     <g>
      <use style="fill:#1f77b4;stroke:#1f77b4;" x="477.540062" xlink:href="#mcb2457e3ba" y="47.633125"/>
     </g>
    </g>
    <g id="text_17">
     <!-- $50MHz\ m_F=3$ -->
     <defs>
      <path d="M 16.3125 72.90625 
L 39.40625 72.90625 
L 48.78125 34.1875 
L 73.390625 72.90625 
L 97.40625 72.90625 
L 83.203125 0 
L 65.375 0 
L 75.78125 53.8125 
L 50.484375 14.015625 
L 40.375 14.015625 
L 30.328125 53.8125 
L 19.921875 0 
L 2.09375 0 
z
" id="DejaVuSans-BoldOblique-4d"/>
      <path d="M 16.3125 72.90625 
L 35.109375 72.90625 
L 29.6875 45.125 
L 57.421875 45.125 
L 62.796875 72.90625 
L 81.59375 72.90625 
L 67.390625 0 
L 48.578125 0 
L 54.59375 30.90625 
L 26.90625 30.90625 
L 20.90625 0 
L 2.09375 0 
z
" id="DejaVuSans-BoldOblique-48"/>
      <path d="M 10.890625 54.6875 
L 58.59375 54.6875 
L 56.203125 42.484375 
L 22.125 12.5 
L 50.390625 12.5 
L 48 0 
L -0.875 0 
L 1.421875 12.203125 
L 35.59375 42.1875 
L 8.5 42.1875 
z
" id="DejaVuSans-BoldOblique-7a"/>
      <path d="M 62.703125 45.609375 
Q 66.75 50.640625 71.890625 53.3125 
Q 77.046875 56 82.625 56 
Q 89.9375 56 94.15625 51.96875 
Q 98.390625 47.953125 98.390625 40.921875 
Q 98.390625 39.453125 98.171875 37.5625 
Q 97.953125 35.6875 97.515625 33.296875 
L 91.015625 0 
L 73.390625 0 
L 78.90625 28.515625 
L 79.046875 29.25 
Q 80.328125 35.296875 80.328125 37.015625 
Q 80.328125 39.703125 78.78125 41.265625 
Q 77.25 42.828125 74.609375 42.828125 
Q 69.578125 42.828125 66.078125 38.703125 
Q 62.59375 34.578125 61.078125 26.90625 
L 55.8125 0 
L 38.1875 0 
L 43.796875 28.515625 
Q 44.53125 32.171875 44.828125 34.046875 
Q 45.125 35.9375 45.125 37.015625 
Q 45.125 39.75 43.609375 41.28125 
Q 42.09375 42.828125 39.40625 42.828125 
Q 34.578125 42.828125 30.9375 38.546875 
Q 27.296875 34.28125 25.875 26.90625 
L 20.609375 0 
L 3.078125 0 
L 13.71875 54.6875 
L 31.296875 54.6875 
L 29.6875 46.6875 
Q 33.796875 51.3125 38.421875 53.65625 
Q 43.0625 56 48.09375 56 
Q 53.765625 56 57.8125 53.09375 
Q 61.859375 50.203125 62.703125 45.609375 
z
" id="DejaVuSans-BoldOblique-6d"/>
      <path d="M 16.3125 72.90625 
L 67 72.90625 
L 64.203125 58.6875 
L 32.328125 58.6875 
L 29.6875 45.125 
L 59.71875 45.125 
L 56.890625 30.90625 
L 26.90625 30.90625 
L 20.90625 0 
L 2.09375 0 
z
" id="DejaVuSans-BoldOblique-46"/>
      <path d="M 10.59375 48.1875 
L 73.1875 48.1875 
L 73.1875 36.71875 
L 10.59375 36.71875 
z
M 10.59375 25.984375 
L 73.1875 25.984375 
L 73.1875 14.40625 
L 10.59375 14.40625 
z
" id="DejaVuSans-Bold-3d"/>
      <path d="M 46.578125 39.3125 
Q 53.953125 37.40625 57.78125 32.6875 
Q 61.625 27.984375 61.625 20.703125 
Q 61.625 9.859375 53.3125 4.21875 
Q 45.015625 -1.421875 29.109375 -1.421875 
Q 23.484375 -1.421875 17.84375 -0.515625 
Q 12.203125 0.390625 6.6875 2.203125 
L 6.6875 16.703125 
Q 11.96875 14.0625 17.15625 12.71875 
Q 22.359375 11.375 27.390625 11.375 
Q 34.859375 11.375 38.84375 13.953125 
Q 42.828125 16.546875 42.828125 21.390625 
Q 42.828125 26.375 38.75 28.9375 
Q 34.671875 31.5 26.703125 31.5 
L 19.1875 31.5 
L 19.1875 43.609375 
L 27.09375 43.609375 
Q 34.1875 43.609375 37.640625 45.828125 
Q 41.109375 48.046875 41.109375 52.59375 
Q 41.109375 56.78125 37.734375 59.078125 
Q 34.375 61.375 28.21875 61.375 
Q 23.6875 61.375 19.046875 60.34375 
Q 14.40625 59.328125 9.8125 57.328125 
L 9.8125 71.09375 
Q 15.375 72.65625 20.84375 73.4375 
Q 26.3125 74.21875 31.59375 74.21875 
Q 45.796875 74.21875 52.84375 69.546875 
Q 59.90625 64.890625 59.90625 55.515625 
Q 59.90625 49.125 56.53125 45.046875 
Q 53.171875 40.96875 46.578125 39.3125 
z
" id="DejaVuSans-Bold-33"/>
     </defs>
     <g transform="translate(513.540062 54.633125)scale(0.2 -0.2)">
      <use transform="translate(0 0.78125)" xlink:href="#DejaVuSans-Bold-35"/>
      <use transform="translate(69.580078 0.78125)" xlink:href="#DejaVuSans-Bold-30"/>
      <use transform="translate(139.160156 0.78125)" xlink:href="#DejaVuSans-BoldOblique-4d"/>
      <use transform="translate(238.671875 0.78125)" xlink:href="#DejaVuSans-BoldOblique-48"/>
      <use transform="translate(322.363281 0.78125)" xlink:href="#DejaVuSans-BoldOblique-7a"/>
      <use transform="translate(415.299132 0.78125)" xlink:href="#DejaVuSans-BoldOblique-6d"/>
      <use transform="translate(519.498351 -15.625)scale(0.7)" xlink:href="#DejaVuSans-BoldOblique-46"/>
      <use transform="translate(590.889952 0.78125)" xlink:href="#DejaVuSans-Bold-3d"/>
      <use transform="translate(695.518858 0.78125)" xlink:href="#DejaVuSans-Bold-33"/>
     </g>
    </g>
    <g id="LineCollection_6">
     <path d="M 477.540062 86.989375 
L 477.540062 66.989375 
" style="fill:none;stroke:#ff7f0e;stroke-width:1.5;"/>
    </g>
    <g id="line2d_37"/>
    <g id="line2d_38">
     <g>
      <use style="fill:#ff7f0e;stroke:#ff7f0e;" x="477.540062" xlink:href="#mbbb2a9d153" y="76.989375"/>
     </g>
    </g>
    <g id="text_18">
     <!-- $62MHz\ m_F=3$ -->
     <g transform="translate(513.540062 83.989375)scale(0.2 -0.2)">
      <use transform="translate(0 0.78125)" xlink:href="#DejaVuSans-Bold-36"/>
      <use transform="translate(69.580078 0.78125)" xlink:href="#DejaVuSans-Bold-32"/>
      <use transform="translate(139.160156 0.78125)" xlink:href="#DejaVuSans-BoldOblique-4d"/>
      <use transform="translate(238.671875 0.78125)" xlink:href="#DejaVuSans-BoldOblique-48"/>
      <use transform="translate(322.363281 0.78125)" xlink:href="#DejaVuSans-BoldOblique-7a"/>
      <use transform="translate(415.299132 0.78125)" xlink:href="#DejaVuSans-BoldOblique-6d"/>
      <use transform="translate(519.498351 -15.625)scale(0.7)" xlink:href="#DejaVuSans-BoldOblique-46"/>
      <use transform="translate(590.889952 0.78125)" xlink:href="#DejaVuSans-Bold-3d"/>
      <use transform="translate(695.518858 0.78125)" xlink:href="#DejaVuSans-Bold-33"/>
     </g>
    </g>
    <g id="LineCollection_7">
     <path d="M 477.540062 116.345625 
L 477.540062 96.345625 
" style="fill:none;stroke:#2ca02c;stroke-width:1.5;"/>
    </g>
    <g id="line2d_39"/>
    <g id="line2d_40">
     <g>
      <use style="fill:#2ca02c;stroke:#2ca02c;" x="477.540062" xlink:href="#mbab2358add" y="106.345625"/>
     </g>
    </g>
    <g id="text_19">
     <!-- $50MHz\ m_F=4$ -->
     <defs>
      <path d="M 36.8125 57.421875 
L 16.21875 26.90625 
L 36.8125 26.90625 
z
M 33.6875 72.90625 
L 54.59375 72.90625 
L 54.59375 26.90625 
L 64.984375 26.90625 
L 64.984375 13.28125 
L 54.59375 13.28125 
L 54.59375 0 
L 36.8125 0 
L 36.8125 13.28125 
L 4.5 13.28125 
L 4.5 29.390625 
z
" id="DejaVuSans-Bold-34"/>
     </defs>
     <g transform="translate(513.540062 113.345625)scale(0.2 -0.2)">
      <use transform="translate(0 0.78125)" xlink:href="#DejaVuSans-Bold-35"/>
      <use transform="translate(69.580078 0.78125)" xlink:href="#DejaVuSans-Bold-30"/>
      <use transform="translate(139.160156 0.78125)" xlink:href="#DejaVuSans-BoldOblique-4d"/>
      <use transform="translate(238.671875 0.78125)" xlink:href="#DejaVuSans-BoldOblique-48"/>
      <use transform="translate(322.363281 0.78125)" xlink:href="#DejaVuSans-BoldOblique-7a"/>
      <use transform="translate(415.299132 0.78125)" xlink:href="#DejaVuSans-BoldOblique-6d"/>
      <use transform="translate(519.498351 -15.625)scale(0.7)" xlink:href="#DejaVuSans-BoldOblique-46"/>
      <use transform="translate(590.889952 0.78125)" xlink:href="#DejaVuSans-Bold-3d"/>
      <use transform="translate(695.518858 0.78125)" xlink:href="#DejaVuSans-Bold-34"/>
     </g>
    </g>
    <g id="LineCollection_8">
     <path d="M 477.540062 145.701875 
L 477.540062 125.701875 
" style="fill:none;stroke:#d62728;stroke-width:1.5;"/>
    </g>
    <g id="line2d_41"/>
    <g id="line2d_42">
     <g>
      <use style="fill:#d62728;stroke:#d62728;" x="477.540062" xlink:href="#m4d17eb6f4c" y="135.701875"/>
     </g>
    </g>
    <g id="text_20">
     <!-- $62MHz\ m_F=4$ -->
     <g transform="translate(513.540062 142.701875)scale(0.2 -0.2)">
      <use transform="translate(0 0.78125)" xlink:href="#DejaVuSans-Bold-36"/>
      <use transform="translate(69.580078 0.78125)" xlink:href="#DejaVuSans-Bold-32"/>
      <use transform="translate(139.160156 0.78125)" xlink:href="#DejaVuSans-BoldOblique-4d"/>
      <use transform="translate(238.671875 0.78125)" xlink:href="#DejaVuSans-BoldOblique-48"/>
      <use transform="translate(322.363281 0.78125)" xlink:href="#DejaVuSans-BoldOblique-7a"/>
      <use transform="translate(415.299132 0.78125)" xlink:href="#DejaVuSans-BoldOblique-6d"/>
      <use transform="translate(519.498351 -15.625)scale(0.7)" xlink:href="#DejaVuSans-BoldOblique-46"/>
      <use transform="translate(590.889952 0.78125)" xlink:href="#DejaVuSans-Bold-3d"/>
      <use transform="translate(695.518858 0.78125)" xlink:href="#DejaVuSans-Bold-34"/>
     </g>
    </g>
   </g>
  </g>
  <g id="text_21">
   <!-- $\delta^{m_F3}_{50}=1.3(70)\ kHz$ -->
   <defs>
    <path d="M 61.140625 61.71875 
Q 55.8125 65.140625 40.234375 65.140625 
Q 31.9375 65.140625 31 60.359375 
Q 30.953125 60.015625 30.953125 59.71875 
Q 30.953125 55.671875 41.15625 54.109375 
Q 63.09375 50.6875 63.09375 33.734375 
Q 63.09375 30.671875 62.40625 27.09375 
Q 59.8125 13.875 50.34375 6.25 
Q 40.828125 -1.421875 26.859375 -1.421875 
Q 12.84375 -1.421875 6.296875 6.25 
Q 1.5625 11.71875 1.5625 20.125 
Q 1.5625 35.203125 13.8125 45.3125 
Q 16.796875 47.75 20.21875 49.3125 
Q 14.984375 52.4375 14.984375 58.15625 
Q 14.984375 59.46875 15.28125 60.9375 
Q 18.359375 76.765625 44.140625 76.765625 
Q 57.078125 76.765625 63.375 73.34375 
z
M 31.296875 42.96875 
Q 28.515625 41.890625 25.921875 39.15625 
Q 21.875 34.90625 20.40625 27.25 
Q 19.828125 24.265625 19.828125 21.09375 
Q 19.828125 17.921875 21.234375 15.28125 
Q 23.640625 10.984375 29.15625 10.984375 
Q 34.71875 10.984375 38.765625 15.328125 
Q 42.875 19.734375 44.28125 27.046875 
Q 44.78125 29.5 44.78125 32.5625 
Q 44.78125 35.59375 42.921875 37.984375 
Q 40.1875 41.703125 35.453125 42.234375 
Q 33.25 42.484375 31.296875 42.96875 
z
" id="DejaVuSans-BoldOblique-3b4"/>
    <path d="M 37.703125 -13.1875 
L 23.1875 -13.1875 
Q 15.71875 -1.125 12.15625 9.734375 
Q 8.59375 20.609375 8.59375 31.296875 
Q 8.59375 42 12.171875 52.953125 
Q 15.765625 63.921875 23.1875 75.875 
L 37.703125 75.875 
Q 31.453125 64.3125 28.328125 53.25 
Q 25.203125 42.1875 25.203125 31.390625 
Q 25.203125 20.609375 28.296875 9.515625 
Q 31.390625 -1.5625 37.703125 -13.1875 
z
" id="DejaVuSans-Bold-28"/>
    <path d="M 8.015625 -13.1875 
Q 14.265625 -1.5625 17.390625 9.515625 
Q 20.515625 20.609375 20.515625 31.390625 
Q 20.515625 42.1875 17.390625 53.25 
Q 14.265625 64.3125 8.015625 75.875 
L 22.515625 75.875 
Q 29.9375 63.921875 33.515625 52.953125 
Q 37.109375 42 37.109375 31.296875 
Q 37.109375 20.609375 33.546875 9.734375 
Q 29.984375 -1.125 22.515625 -13.1875 
z
" id="DejaVuSans-Bold-29"/>
    <path d="M 17.828125 75.984375 
L 35.40625 75.984375 
L 27.390625 34.8125 
L 50.984375 54.6875 
L 71.578125 54.6875 
L 39.796875 29.390625 
L 62.890625 0 
L 42.921875 0 
L 25.203125 23.578125 
L 20.609375 0 
L 3.078125 0 
z
" id="DejaVuSans-BoldOblique-6b"/>
   </defs>
   <g style="fill:#1f77b4;" transform="translate(427.076063 187.24425)scale(0.2 -0.2)">
    <use transform="translate(0 0.453125)" xlink:href="#DejaVuSans-BoldOblique-3b4"/>
    <use transform="translate(76.258255 49.046875)scale(0.7)" xlink:href="#DejaVuSans-BoldOblique-6d"/>
    <use transform="translate(149.197708 37.5625)scale(0.49)" xlink:href="#DejaVuSans-BoldOblique-46"/>
    <use transform="translate(184.583939 49.046875)scale(0.7)" xlink:href="#DejaVuSans-Bold-33"/>
    <use transform="translate(68.701172 -26.890625)scale(0.7)" xlink:href="#DejaVuSans-Bold-35"/>
    <use transform="translate(117.407227 -26.890625)scale(0.7)" xlink:href="#DejaVuSans-Bold-30"/>
    <use transform="translate(256.864212 0.453125)" xlink:href="#DejaVuSans-Bold-3d"/>
    <use transform="translate(361.493118 0.453125)" xlink:href="#DejaVuSans-Bold-31"/>
    <use transform="translate(431.073197 0.453125)" xlink:href="#DejaVuSans-Bold-2e"/>
    <use transform="translate(469.061478 0.453125)" xlink:href="#DejaVuSans-Bold-33"/>
    <use transform="translate(538.641556 0.453125)" xlink:href="#DejaVuSans-Bold-28"/>
    <use transform="translate(584.344681 0.453125)" xlink:href="#DejaVuSans-Bold-37"/>
    <use transform="translate(653.924759 0.453125)" xlink:href="#DejaVuSans-Bold-30"/>
    <use transform="translate(723.504837 0.453125)" xlink:href="#DejaVuSans-Bold-29"/>
    <use transform="translate(803.940688 0.453125)" xlink:href="#DejaVuSans-BoldOblique-6b"/>
    <use transform="translate(870.444594 0.453125)" xlink:href="#DejaVuSans-BoldOblique-48"/>
    <use transform="translate(954.136 0.453125)" xlink:href="#DejaVuSans-BoldOblique-7a"/>
   </g>
  </g>
  <g id="text_22">
   <!-- $\delta^{m_F3}_{62}=8.6(70)\ kHz$ -->
   <defs>
    <path d="M 34.8125 32.625 
Q 29.546875 32.625 26.703125 29.734375 
Q 23.875 26.859375 23.875 21.484375 
Q 23.875 16.109375 26.703125 13.25 
Q 29.546875 10.40625 34.8125 10.40625 
Q 40.046875 10.40625 42.828125 13.25 
Q 45.609375 16.109375 45.609375 21.484375 
Q 45.609375 26.90625 42.828125 29.765625 
Q 40.046875 32.625 34.8125 32.625 
z
M 21.09375 38.8125 
Q 14.453125 40.828125 11.078125 44.96875 
Q 7.71875 49.125 7.71875 55.328125 
Q 7.71875 64.546875 14.59375 69.375 
Q 21.484375 74.21875 34.8125 74.21875 
Q 48.046875 74.21875 54.921875 69.40625 
Q 61.8125 64.59375 61.8125 55.328125 
Q 61.8125 49.125 58.421875 44.96875 
Q 55.03125 40.828125 48.390625 38.8125 
Q 55.8125 36.765625 59.59375 32.15625 
Q 63.375 27.546875 63.375 20.515625 
Q 63.375 9.671875 56.171875 4.125 
Q 48.96875 -1.421875 34.8125 -1.421875 
Q 20.609375 -1.421875 13.359375 4.125 
Q 6.109375 9.671875 6.109375 20.515625 
Q 6.109375 27.546875 9.890625 32.15625 
Q 13.671875 36.765625 21.09375 38.8125 
z
M 25.484375 53.421875 
Q 25.484375 49.078125 27.90625 46.734375 
Q 30.328125 44.390625 34.8125 44.390625 
Q 39.203125 44.390625 41.59375 46.734375 
Q 44 49.078125 44 53.421875 
Q 44 57.765625 41.59375 60.078125 
Q 39.203125 62.40625 34.8125 62.40625 
Q 30.328125 62.40625 27.90625 60.0625 
Q 25.484375 57.71875 25.484375 53.421875 
z
" id="DejaVuSans-Bold-38"/>
   </defs>
   <g style="fill:#ff7f0e;" transform="translate(427.076063 221.80425)scale(0.2 -0.2)">
    <use transform="translate(0 0.453125)" xlink:href="#DejaVuSans-BoldOblique-3b4"/>
    <use transform="translate(76.258255 49.046875)scale(0.7)" xlink:href="#DejaVuSans-BoldOblique-6d"/>
    <use transform="translate(149.197708 37.5625)scale(0.49)" xlink:href="#DejaVuSans-BoldOblique-46"/>
    <use transform="translate(184.583939 49.046875)scale(0.7)" xlink:href="#DejaVuSans-Bold-33"/>
    <use transform="translate(68.701172 -26.890625)scale(0.7)" xlink:href="#DejaVuSans-Bold-36"/>
    <use transform="translate(117.407227 -26.890625)scale(0.7)" xlink:href="#DejaVuSans-Bold-32"/>
    <use transform="translate(256.864212 0.453125)" xlink:href="#DejaVuSans-Bold-3d"/>
    <use transform="translate(361.493118 0.453125)" xlink:href="#DejaVuSans-Bold-38"/>
    <use transform="translate(431.073197 0.453125)" xlink:href="#DejaVuSans-Bold-2e"/>
    <use transform="translate(469.061478 0.453125)" xlink:href="#DejaVuSans-Bold-36"/>
    <use transform="translate(538.641556 0.453125)" xlink:href="#DejaVuSans-Bold-28"/>
    <use transform="translate(584.344681 0.453125)" xlink:href="#DejaVuSans-Bold-37"/>
    <use transform="translate(653.924759 0.453125)" xlink:href="#DejaVuSans-Bold-30"/>
    <use transform="translate(723.504837 0.453125)" xlink:href="#DejaVuSans-Bold-29"/>
    <use transform="translate(803.940688 0.453125)" xlink:href="#DejaVuSans-BoldOblique-6b"/>
    <use transform="translate(870.444594 0.453125)" xlink:href="#DejaVuSans-BoldOblique-48"/>
    <use transform="translate(954.136 0.453125)" xlink:href="#DejaVuSans-BoldOblique-7a"/>
   </g>
  </g>
  <g id="text_23">
   <!-- $\delta^{m_F4}_{50}=-3.4(25)\ kHz$ -->
   <defs>
    <path d="M 10.59375 37.109375 
L 73.1875 37.109375 
L 73.1875 25.59375 
L 10.59375 25.59375 
z
" id="DejaVuSans-Bold-2212"/>
   </defs>
   <g style="fill:#2ca02c;" transform="translate(427.076063 256.26425)scale(0.2 -0.2)">
    <use transform="translate(0 0.371875)" xlink:href="#DejaVuSans-BoldOblique-3b4"/>
    <use transform="translate(76.258255 48.965625)scale(0.7)" xlink:href="#DejaVuSans-BoldOblique-6d"/>
    <use transform="translate(149.197708 37.48125)scale(0.49)" xlink:href="#DejaVuSans-BoldOblique-46"/>
    <use transform="translate(184.583939 48.965625)scale(0.7)" xlink:href="#DejaVuSans-Bold-34"/>
    <use transform="translate(68.701172 -26.971875)scale(0.7)" xlink:href="#DejaVuSans-Bold-35"/>
    <use transform="translate(117.407227 -26.971875)scale(0.7)" xlink:href="#DejaVuSans-Bold-30"/>
    <use transform="translate(256.864212 0.371875)" xlink:href="#DejaVuSans-Bold-3d"/>
    <use transform="translate(382.332962 0.371875)" xlink:href="#DejaVuSans-Bold-2212"/>
    <use transform="translate(486.961868 0.371875)" xlink:href="#DejaVuSans-Bold-33"/>
    <use transform="translate(556.541947 0.371875)" xlink:href="#DejaVuSans-Bold-2e"/>
    <use transform="translate(594.530228 0.371875)" xlink:href="#DejaVuSans-Bold-34"/>
    <use transform="translate(664.110306 0.371875)" xlink:href="#DejaVuSans-Bold-28"/>
    <use transform="translate(709.813431 0.371875)" xlink:href="#DejaVuSans-Bold-32"/>
    <use transform="translate(779.393509 0.371875)" xlink:href="#DejaVuSans-Bold-35"/>
    <use transform="translate(848.973587 0.371875)" xlink:href="#DejaVuSans-Bold-29"/>
    <use transform="translate(929.409438 0.371875)" xlink:href="#DejaVuSans-BoldOblique-6b"/>
    <use transform="translate(995.913344 0.371875)" xlink:href="#DejaVuSans-BoldOblique-48"/>
    <use transform="translate(1079.60475 0.371875)" xlink:href="#DejaVuSans-BoldOblique-7a"/>
   </g>
  </g>
  <g id="text_24">
   <!-- $\delta^{m_F4}_{62}=3.8(26)\ kHz$ -->
   <g style="fill:#d62728;" transform="translate(427.076063 290.82425)scale(0.2 -0.2)">
    <use transform="translate(0 0.371875)" xlink:href="#DejaVuSans-BoldOblique-3b4"/>
    <use transform="translate(76.258255 48.965625)scale(0.7)" xlink:href="#DejaVuSans-BoldOblique-6d"/>
    <use transform="translate(149.197708 37.48125)scale(0.49)" xlink:href="#DejaVuSans-BoldOblique-46"/>
    <use transform="translate(184.583939 48.965625)scale(0.7)" xlink:href="#DejaVuSans-Bold-34"/>
    <use transform="translate(68.701172 -26.971875)scale(0.7)" xlink:href="#DejaVuSans-Bold-36"/>
    <use transform="translate(117.407227 -26.971875)scale(0.7)" xlink:href="#DejaVuSans-Bold-32"/>
    <use transform="translate(256.864212 0.371875)" xlink:href="#DejaVuSans-Bold-3d"/>
    <use transform="translate(361.493118 0.371875)" xlink:href="#DejaVuSans-Bold-33"/>
    <use transform="translate(431.073197 0.371875)" xlink:href="#DejaVuSans-Bold-2e"/>
    <use transform="translate(469.045853 0.371875)" xlink:href="#DejaVuSans-Bold-38"/>
    <use transform="translate(538.625931 0.371875)" xlink:href="#DejaVuSans-Bold-28"/>
    <use transform="translate(584.329056 0.371875)" xlink:href="#DejaVuSans-Bold-32"/>
    <use transform="translate(653.909134 0.371875)" xlink:href="#DejaVuSans-Bold-36"/>
    <use transform="translate(723.489212 0.371875)" xlink:href="#DejaVuSans-Bold-29"/>
    <use transform="translate(803.925063 0.371875)" xlink:href="#DejaVuSans-BoldOblique-6b"/>
    <use transform="translate(870.428969 0.371875)" xlink:href="#DejaVuSans-BoldOblique-48"/>
    <use transform="translate(954.120375 0.371875)" xlink:href="#DejaVuSans-BoldOblique-7a"/>
   </g>
  </g>
 </g>
 <defs>
  <clipPath id="p6dde9045af">
   <rect height="266.112" width="357.12" x="74.564063" y="31.43625"/>
  </clipPath>
 </defs>
</svg>
