G04 #@! TF.FileFunction,Legend,Top*
%FSLAX46Y46*%
G04 Gerber Fmt 4.6, Leading zero omitted, Abs format (unit mm)*
G04 Created by KiCad (PCBNEW 4.0.7) date Sat May 26 11:04:06 2018*
%MOMM*%
%LPD*%
G01*
G04 APERTURE LIST*
%ADD10C,0.100000*%
%ADD11C,0.120000*%
%ADD12C,0.150000*%
G04 APERTURE END LIST*
D10*
D11*
X89821137Y-74133400D02*
G75*
G03X94615436Y-74132000I2396863J981400D01*
G01*
X89821137Y-72170600D02*
G75*
G02X94615436Y-72172000I2396863J-981400D01*
G01*
X89821137Y-72170600D02*
G75*
G03X89820564Y-74132000I2396863J-981400D01*
G01*
X92218000Y-75702000D02*
X92218000Y-70602000D01*
X92178000Y-75702000D02*
X92178000Y-74132000D01*
X92178000Y-72172000D02*
X92178000Y-70602000D01*
X92138000Y-75701000D02*
X92138000Y-74132000D01*
X92138000Y-72172000D02*
X92138000Y-70603000D01*
X92098000Y-75700000D02*
X92098000Y-74132000D01*
X92098000Y-72172000D02*
X92098000Y-70604000D01*
X92058000Y-75698000D02*
X92058000Y-74132000D01*
X92058000Y-72172000D02*
X92058000Y-70606000D01*
X92018000Y-75695000D02*
X92018000Y-74132000D01*
X92018000Y-72172000D02*
X92018000Y-70609000D01*
X91978000Y-75691000D02*
X91978000Y-74132000D01*
X91978000Y-72172000D02*
X91978000Y-70613000D01*
X91938000Y-75687000D02*
X91938000Y-74132000D01*
X91938000Y-72172000D02*
X91938000Y-70617000D01*
X91898000Y-75683000D02*
X91898000Y-74132000D01*
X91898000Y-72172000D02*
X91898000Y-70621000D01*
X91858000Y-75677000D02*
X91858000Y-74132000D01*
X91858000Y-72172000D02*
X91858000Y-70627000D01*
X91818000Y-75671000D02*
X91818000Y-74132000D01*
X91818000Y-72172000D02*
X91818000Y-70633000D01*
X91778000Y-75665000D02*
X91778000Y-74132000D01*
X91778000Y-72172000D02*
X91778000Y-70639000D01*
X91738000Y-75658000D02*
X91738000Y-74132000D01*
X91738000Y-72172000D02*
X91738000Y-70646000D01*
X91698000Y-75650000D02*
X91698000Y-74132000D01*
X91698000Y-72172000D02*
X91698000Y-70654000D01*
X91658000Y-75641000D02*
X91658000Y-74132000D01*
X91658000Y-72172000D02*
X91658000Y-70663000D01*
X91618000Y-75632000D02*
X91618000Y-74132000D01*
X91618000Y-72172000D02*
X91618000Y-70672000D01*
X91578000Y-75622000D02*
X91578000Y-74132000D01*
X91578000Y-72172000D02*
X91578000Y-70682000D01*
X91538000Y-75612000D02*
X91538000Y-74132000D01*
X91538000Y-72172000D02*
X91538000Y-70692000D01*
X91497000Y-75600000D02*
X91497000Y-74132000D01*
X91497000Y-72172000D02*
X91497000Y-70704000D01*
X91457000Y-75588000D02*
X91457000Y-74132000D01*
X91457000Y-72172000D02*
X91457000Y-70716000D01*
X91417000Y-75576000D02*
X91417000Y-74132000D01*
X91417000Y-72172000D02*
X91417000Y-70728000D01*
X91377000Y-75562000D02*
X91377000Y-74132000D01*
X91377000Y-72172000D02*
X91377000Y-70742000D01*
X91337000Y-75548000D02*
X91337000Y-74132000D01*
X91337000Y-72172000D02*
X91337000Y-70756000D01*
X91297000Y-75534000D02*
X91297000Y-74132000D01*
X91297000Y-72172000D02*
X91297000Y-70770000D01*
X91257000Y-75518000D02*
X91257000Y-74132000D01*
X91257000Y-72172000D02*
X91257000Y-70786000D01*
X91217000Y-75502000D02*
X91217000Y-74132000D01*
X91217000Y-72172000D02*
X91217000Y-70802000D01*
X91177000Y-75485000D02*
X91177000Y-74132000D01*
X91177000Y-72172000D02*
X91177000Y-70819000D01*
X91137000Y-75467000D02*
X91137000Y-74132000D01*
X91137000Y-72172000D02*
X91137000Y-70837000D01*
X91097000Y-75448000D02*
X91097000Y-74132000D01*
X91097000Y-72172000D02*
X91097000Y-70856000D01*
X91057000Y-75428000D02*
X91057000Y-74132000D01*
X91057000Y-72172000D02*
X91057000Y-70876000D01*
X91017000Y-75408000D02*
X91017000Y-74132000D01*
X91017000Y-72172000D02*
X91017000Y-70896000D01*
X90977000Y-75386000D02*
X90977000Y-74132000D01*
X90977000Y-72172000D02*
X90977000Y-70918000D01*
X90937000Y-75364000D02*
X90937000Y-74132000D01*
X90937000Y-72172000D02*
X90937000Y-70940000D01*
X90897000Y-75341000D02*
X90897000Y-74132000D01*
X90897000Y-72172000D02*
X90897000Y-70963000D01*
X90857000Y-75317000D02*
X90857000Y-74132000D01*
X90857000Y-72172000D02*
X90857000Y-70987000D01*
X90817000Y-75292000D02*
X90817000Y-74132000D01*
X90817000Y-72172000D02*
X90817000Y-71012000D01*
X90777000Y-75265000D02*
X90777000Y-74132000D01*
X90777000Y-72172000D02*
X90777000Y-71039000D01*
X90737000Y-75238000D02*
X90737000Y-74132000D01*
X90737000Y-72172000D02*
X90737000Y-71066000D01*
X90697000Y-75210000D02*
X90697000Y-74132000D01*
X90697000Y-72172000D02*
X90697000Y-71094000D01*
X90657000Y-75180000D02*
X90657000Y-74132000D01*
X90657000Y-72172000D02*
X90657000Y-71124000D01*
X90617000Y-75149000D02*
X90617000Y-74132000D01*
X90617000Y-72172000D02*
X90617000Y-71155000D01*
X90577000Y-75117000D02*
X90577000Y-74132000D01*
X90577000Y-72172000D02*
X90577000Y-71187000D01*
X90537000Y-75084000D02*
X90537000Y-74132000D01*
X90537000Y-72172000D02*
X90537000Y-71220000D01*
X90497000Y-75049000D02*
X90497000Y-74132000D01*
X90497000Y-72172000D02*
X90497000Y-71255000D01*
X90457000Y-75013000D02*
X90457000Y-74132000D01*
X90457000Y-72172000D02*
X90457000Y-71291000D01*
X90417000Y-74975000D02*
X90417000Y-74132000D01*
X90417000Y-72172000D02*
X90417000Y-71329000D01*
X90377000Y-74935000D02*
X90377000Y-74132000D01*
X90377000Y-72172000D02*
X90377000Y-71369000D01*
X90337000Y-74894000D02*
X90337000Y-74132000D01*
X90337000Y-72172000D02*
X90337000Y-71410000D01*
X90297000Y-74851000D02*
X90297000Y-74132000D01*
X90297000Y-72172000D02*
X90297000Y-71453000D01*
X90257000Y-74806000D02*
X90257000Y-74132000D01*
X90257000Y-72172000D02*
X90257000Y-71498000D01*
X90217000Y-74758000D02*
X90217000Y-71546000D01*
X90177000Y-74708000D02*
X90177000Y-71596000D01*
X90137000Y-74656000D02*
X90137000Y-71648000D01*
X90097000Y-74600000D02*
X90097000Y-71704000D01*
X90057000Y-74542000D02*
X90057000Y-71762000D01*
X90017000Y-74479000D02*
X90017000Y-71825000D01*
X89977000Y-74413000D02*
X89977000Y-71891000D01*
X89937000Y-74341000D02*
X89937000Y-71963000D01*
X89897000Y-74264000D02*
X89897000Y-72040000D01*
X89857000Y-74180000D02*
X89857000Y-72124000D01*
X89817000Y-74086000D02*
X89817000Y-72218000D01*
X89777000Y-73981000D02*
X89777000Y-72323000D01*
X89737000Y-73859000D02*
X89737000Y-72445000D01*
X89697000Y-73711000D02*
X89697000Y-72593000D01*
X89657000Y-73506000D02*
X89657000Y-72798000D01*
X95418000Y-73152000D02*
X94218000Y-73152000D01*
X94818000Y-73802000D02*
X94818000Y-72502000D01*
X70009137Y-74133400D02*
G75*
G03X74803436Y-74132000I2396863J981400D01*
G01*
X70009137Y-72170600D02*
G75*
G02X74803436Y-72172000I2396863J-981400D01*
G01*
X70009137Y-72170600D02*
G75*
G03X70008564Y-74132000I2396863J-981400D01*
G01*
X72406000Y-75702000D02*
X72406000Y-70602000D01*
X72366000Y-75702000D02*
X72366000Y-74132000D01*
X72366000Y-72172000D02*
X72366000Y-70602000D01*
X72326000Y-75701000D02*
X72326000Y-74132000D01*
X72326000Y-72172000D02*
X72326000Y-70603000D01*
X72286000Y-75700000D02*
X72286000Y-74132000D01*
X72286000Y-72172000D02*
X72286000Y-70604000D01*
X72246000Y-75698000D02*
X72246000Y-74132000D01*
X72246000Y-72172000D02*
X72246000Y-70606000D01*
X72206000Y-75695000D02*
X72206000Y-74132000D01*
X72206000Y-72172000D02*
X72206000Y-70609000D01*
X72166000Y-75691000D02*
X72166000Y-74132000D01*
X72166000Y-72172000D02*
X72166000Y-70613000D01*
X72126000Y-75687000D02*
X72126000Y-74132000D01*
X72126000Y-72172000D02*
X72126000Y-70617000D01*
X72086000Y-75683000D02*
X72086000Y-74132000D01*
X72086000Y-72172000D02*
X72086000Y-70621000D01*
X72046000Y-75677000D02*
X72046000Y-74132000D01*
X72046000Y-72172000D02*
X72046000Y-70627000D01*
X72006000Y-75671000D02*
X72006000Y-74132000D01*
X72006000Y-72172000D02*
X72006000Y-70633000D01*
X71966000Y-75665000D02*
X71966000Y-74132000D01*
X71966000Y-72172000D02*
X71966000Y-70639000D01*
X71926000Y-75658000D02*
X71926000Y-74132000D01*
X71926000Y-72172000D02*
X71926000Y-70646000D01*
X71886000Y-75650000D02*
X71886000Y-74132000D01*
X71886000Y-72172000D02*
X71886000Y-70654000D01*
X71846000Y-75641000D02*
X71846000Y-74132000D01*
X71846000Y-72172000D02*
X71846000Y-70663000D01*
X71806000Y-75632000D02*
X71806000Y-74132000D01*
X71806000Y-72172000D02*
X71806000Y-70672000D01*
X71766000Y-75622000D02*
X71766000Y-74132000D01*
X71766000Y-72172000D02*
X71766000Y-70682000D01*
X71726000Y-75612000D02*
X71726000Y-74132000D01*
X71726000Y-72172000D02*
X71726000Y-70692000D01*
X71685000Y-75600000D02*
X71685000Y-74132000D01*
X71685000Y-72172000D02*
X71685000Y-70704000D01*
X71645000Y-75588000D02*
X71645000Y-74132000D01*
X71645000Y-72172000D02*
X71645000Y-70716000D01*
X71605000Y-75576000D02*
X71605000Y-74132000D01*
X71605000Y-72172000D02*
X71605000Y-70728000D01*
X71565000Y-75562000D02*
X71565000Y-74132000D01*
X71565000Y-72172000D02*
X71565000Y-70742000D01*
X71525000Y-75548000D02*
X71525000Y-74132000D01*
X71525000Y-72172000D02*
X71525000Y-70756000D01*
X71485000Y-75534000D02*
X71485000Y-74132000D01*
X71485000Y-72172000D02*
X71485000Y-70770000D01*
X71445000Y-75518000D02*
X71445000Y-74132000D01*
X71445000Y-72172000D02*
X71445000Y-70786000D01*
X71405000Y-75502000D02*
X71405000Y-74132000D01*
X71405000Y-72172000D02*
X71405000Y-70802000D01*
X71365000Y-75485000D02*
X71365000Y-74132000D01*
X71365000Y-72172000D02*
X71365000Y-70819000D01*
X71325000Y-75467000D02*
X71325000Y-74132000D01*
X71325000Y-72172000D02*
X71325000Y-70837000D01*
X71285000Y-75448000D02*
X71285000Y-74132000D01*
X71285000Y-72172000D02*
X71285000Y-70856000D01*
X71245000Y-75428000D02*
X71245000Y-74132000D01*
X71245000Y-72172000D02*
X71245000Y-70876000D01*
X71205000Y-75408000D02*
X71205000Y-74132000D01*
X71205000Y-72172000D02*
X71205000Y-70896000D01*
X71165000Y-75386000D02*
X71165000Y-74132000D01*
X71165000Y-72172000D02*
X71165000Y-70918000D01*
X71125000Y-75364000D02*
X71125000Y-74132000D01*
X71125000Y-72172000D02*
X71125000Y-70940000D01*
X71085000Y-75341000D02*
X71085000Y-74132000D01*
X71085000Y-72172000D02*
X71085000Y-70963000D01*
X71045000Y-75317000D02*
X71045000Y-74132000D01*
X71045000Y-72172000D02*
X71045000Y-70987000D01*
X71005000Y-75292000D02*
X71005000Y-74132000D01*
X71005000Y-72172000D02*
X71005000Y-71012000D01*
X70965000Y-75265000D02*
X70965000Y-74132000D01*
X70965000Y-72172000D02*
X70965000Y-71039000D01*
X70925000Y-75238000D02*
X70925000Y-74132000D01*
X70925000Y-72172000D02*
X70925000Y-71066000D01*
X70885000Y-75210000D02*
X70885000Y-74132000D01*
X70885000Y-72172000D02*
X70885000Y-71094000D01*
X70845000Y-75180000D02*
X70845000Y-74132000D01*
X70845000Y-72172000D02*
X70845000Y-71124000D01*
X70805000Y-75149000D02*
X70805000Y-74132000D01*
X70805000Y-72172000D02*
X70805000Y-71155000D01*
X70765000Y-75117000D02*
X70765000Y-74132000D01*
X70765000Y-72172000D02*
X70765000Y-71187000D01*
X70725000Y-75084000D02*
X70725000Y-74132000D01*
X70725000Y-72172000D02*
X70725000Y-71220000D01*
X70685000Y-75049000D02*
X70685000Y-74132000D01*
X70685000Y-72172000D02*
X70685000Y-71255000D01*
X70645000Y-75013000D02*
X70645000Y-74132000D01*
X70645000Y-72172000D02*
X70645000Y-71291000D01*
X70605000Y-74975000D02*
X70605000Y-74132000D01*
X70605000Y-72172000D02*
X70605000Y-71329000D01*
X70565000Y-74935000D02*
X70565000Y-74132000D01*
X70565000Y-72172000D02*
X70565000Y-71369000D01*
X70525000Y-74894000D02*
X70525000Y-74132000D01*
X70525000Y-72172000D02*
X70525000Y-71410000D01*
X70485000Y-74851000D02*
X70485000Y-74132000D01*
X70485000Y-72172000D02*
X70485000Y-71453000D01*
X70445000Y-74806000D02*
X70445000Y-74132000D01*
X70445000Y-72172000D02*
X70445000Y-71498000D01*
X70405000Y-74758000D02*
X70405000Y-71546000D01*
X70365000Y-74708000D02*
X70365000Y-71596000D01*
X70325000Y-74656000D02*
X70325000Y-71648000D01*
X70285000Y-74600000D02*
X70285000Y-71704000D01*
X70245000Y-74542000D02*
X70245000Y-71762000D01*
X70205000Y-74479000D02*
X70205000Y-71825000D01*
X70165000Y-74413000D02*
X70165000Y-71891000D01*
X70125000Y-74341000D02*
X70125000Y-71963000D01*
X70085000Y-74264000D02*
X70085000Y-72040000D01*
X70045000Y-74180000D02*
X70045000Y-72124000D01*
X70005000Y-74086000D02*
X70005000Y-72218000D01*
X69965000Y-73981000D02*
X69965000Y-72323000D01*
X69925000Y-73859000D02*
X69925000Y-72445000D01*
X69885000Y-73711000D02*
X69885000Y-72593000D01*
X69845000Y-73506000D02*
X69845000Y-72798000D01*
X75606000Y-73152000D02*
X74406000Y-73152000D01*
X75006000Y-73802000D02*
X75006000Y-72502000D01*
D12*
X75946000Y-78486000D02*
X88646000Y-78486000D01*
X75946000Y-78994000D02*
X75946000Y-71628000D01*
X88646000Y-78994000D02*
X75946000Y-78994000D01*
X75946000Y-71628000D02*
X88646000Y-71628000D01*
X88646000Y-71628000D02*
X88646000Y-78994000D01*
X45349160Y-70269100D02*
X44549060Y-59270900D01*
X46149260Y-70269100D02*
X45349160Y-59270900D01*
X46949360Y-70269100D02*
X46149260Y-59270900D01*
X47749460Y-70269100D02*
X46949360Y-59270900D01*
X48549560Y-70269100D02*
X47749460Y-59270900D01*
X49349660Y-70269100D02*
X48549560Y-59270900D01*
X35450780Y-64770000D02*
G75*
G03X35450780Y-64770000I-1000760J0D01*
G01*
X42451020Y-59969400D02*
X30449520Y-59969400D01*
X30449520Y-59969400D02*
X30449520Y-69570600D01*
X30449520Y-69570600D02*
X42451020Y-69570600D01*
X49949100Y-59270900D02*
X42451020Y-59270900D01*
X42451020Y-59270900D02*
X42451020Y-70269100D01*
X42451020Y-70269100D02*
X49949100Y-70269100D01*
X64350900Y-72570340D02*
X64350900Y-56969660D01*
X64350900Y-56969660D02*
X49949100Y-56969660D01*
X49949100Y-56969660D02*
X49949100Y-72570340D01*
X49949100Y-72570340D02*
X64350900Y-72570340D01*
X118988840Y-59778900D02*
X119788940Y-70777100D01*
X118188740Y-59778900D02*
X118988840Y-70777100D01*
X117388640Y-59778900D02*
X118188740Y-70777100D01*
X116588540Y-59778900D02*
X117388640Y-70777100D01*
X115788440Y-59778900D02*
X116588540Y-70777100D01*
X114988340Y-59778900D02*
X115788440Y-70777100D01*
X130888740Y-65278000D02*
G75*
G03X130888740Y-65278000I-1000760J0D01*
G01*
X121886980Y-70078600D02*
X133888480Y-70078600D01*
X133888480Y-70078600D02*
X133888480Y-60477400D01*
X133888480Y-60477400D02*
X121886980Y-60477400D01*
X114388900Y-70777100D02*
X121886980Y-70777100D01*
X121886980Y-70777100D02*
X121886980Y-59778900D01*
X121886980Y-59778900D02*
X114388900Y-59778900D01*
X99987100Y-57477660D02*
X99987100Y-73078340D01*
X99987100Y-73078340D02*
X114388900Y-73078340D01*
X114388900Y-73078340D02*
X114388900Y-57477660D01*
X114388900Y-57477660D02*
X99987100Y-57477660D01*
X92051334Y-77069143D02*
X92003715Y-77116762D01*
X91860858Y-77164381D01*
X91765620Y-77164381D01*
X91622762Y-77116762D01*
X91527524Y-77021524D01*
X91479905Y-76926286D01*
X91432286Y-76735810D01*
X91432286Y-76592952D01*
X91479905Y-76402476D01*
X91527524Y-76307238D01*
X91622762Y-76212000D01*
X91765620Y-76164381D01*
X91860858Y-76164381D01*
X92003715Y-76212000D01*
X92051334Y-76259619D01*
X92384667Y-76164381D02*
X93051334Y-76164381D01*
X92622762Y-77164381D01*
X71763143Y-77069143D02*
X71715524Y-77116762D01*
X71572667Y-77164381D01*
X71477429Y-77164381D01*
X71334571Y-77116762D01*
X71239333Y-77021524D01*
X71191714Y-76926286D01*
X71144095Y-76735810D01*
X71144095Y-76592952D01*
X71191714Y-76402476D01*
X71239333Y-76307238D01*
X71334571Y-76212000D01*
X71477429Y-76164381D01*
X71572667Y-76164381D01*
X71715524Y-76212000D01*
X71763143Y-76259619D01*
X72715524Y-77164381D02*
X72144095Y-77164381D01*
X72429809Y-77164381D02*
X72429809Y-76164381D01*
X72334571Y-76307238D01*
X72239333Y-76402476D01*
X72144095Y-76450095D01*
X73334571Y-76164381D02*
X73429810Y-76164381D01*
X73525048Y-76212000D01*
X73572667Y-76259619D01*
X73620286Y-76354857D01*
X73667905Y-76545333D01*
X73667905Y-76783429D01*
X73620286Y-76973905D01*
X73572667Y-77069143D01*
X73525048Y-77116762D01*
X73429810Y-77164381D01*
X73334571Y-77164381D01*
X73239333Y-77116762D01*
X73191714Y-77069143D01*
X73144095Y-76973905D01*
X73096476Y-76783429D01*
X73096476Y-76545333D01*
X73144095Y-76354857D01*
X73191714Y-76259619D01*
X73239333Y-76212000D01*
X73334571Y-76164381D01*
X81796000Y-76648571D02*
X81796000Y-77720000D01*
X81724572Y-77934286D01*
X81581715Y-78077143D01*
X81367429Y-78148571D01*
X81224572Y-78148571D01*
X82438857Y-76791429D02*
X82510286Y-76720000D01*
X82653143Y-76648571D01*
X83010286Y-76648571D01*
X83153143Y-76720000D01*
X83224572Y-76791429D01*
X83296000Y-76934286D01*
X83296000Y-77077143D01*
X83224572Y-77291429D01*
X82367429Y-78148571D01*
X83296000Y-78148571D01*
X66254381Y-64595333D02*
X66968667Y-64595333D01*
X67111524Y-64642953D01*
X67206762Y-64738191D01*
X67254381Y-64881048D01*
X67254381Y-64976286D01*
X67254381Y-63595333D02*
X67254381Y-64166762D01*
X67254381Y-63881048D02*
X66254381Y-63881048D01*
X66397238Y-63976286D01*
X66492476Y-64071524D01*
X66540095Y-64166762D01*
X96988381Y-66119333D02*
X97702667Y-66119333D01*
X97845524Y-66166953D01*
X97940762Y-66262191D01*
X97988381Y-66405048D01*
X97988381Y-66500286D01*
X96988381Y-65738381D02*
X96988381Y-65119333D01*
X97369333Y-65452667D01*
X97369333Y-65309809D01*
X97416952Y-65214571D01*
X97464571Y-65166952D01*
X97559810Y-65119333D01*
X97797905Y-65119333D01*
X97893143Y-65166952D01*
X97940762Y-65214571D01*
X97988381Y-65309809D01*
X97988381Y-65595524D01*
X97940762Y-65690762D01*
X97893143Y-65738381D01*
M02*
