G04 #@! TF.FileFunction,Copper,L2,Inr,Signal*
%FSLAX46Y46*%
G04 Gerber Fmt 4.6, Leading zero omitted, Abs format (unit mm)*
G04 Created by KiCad (PCBNEW 4.0.7) date Thu May  3 16:22:41 2018*
%MOMM*%
%LPD*%
G01*
G04 APERTURE LIST*
%ADD10C,0.100000*%
%ADD11R,1.600000X1.600000*%
%ADD12C,1.600000*%
%ADD13O,7.000240X3.500120*%
%ADD14O,2.499360X1.600200*%
%ADD15C,2.000000*%
%ADD16R,2.000000X2.000000*%
%ADD17C,0.600000*%
%ADD18C,1.200000*%
%ADD19C,0.600000*%
%ADD20C,0.254000*%
G04 APERTURE END LIST*
D10*
D11*
X92456000Y-77216000D03*
D12*
X90456000Y-77216000D03*
D11*
X72644000Y-77216000D03*
D12*
X70644000Y-77216000D03*
D13*
X57886600Y-69867780D03*
X57886600Y-59669680D03*
D14*
X62151260Y-64770000D03*
X62151260Y-67269360D03*
D15*
X85344000Y-77216000D03*
D16*
X77724000Y-77216000D03*
D15*
X81534000Y-77216000D03*
D13*
X106451400Y-60180220D03*
X106451400Y-70378320D03*
D14*
X102186740Y-65278000D03*
X102186740Y-62778640D03*
D17*
X86502819Y-62372819D03*
X82042000Y-62230000D03*
X82042000Y-64516000D03*
X90027181Y-65135181D03*
X96012000Y-69596000D03*
X79502000Y-70358000D03*
D18*
X70644000Y-77216000D02*
X70644000Y-78518000D01*
X70644000Y-78518000D02*
X73660000Y-81534000D01*
X73660000Y-81534000D02*
X95295720Y-81534000D01*
X95295720Y-81534000D02*
X106451400Y-70378320D01*
X96012000Y-69596000D02*
X96012000Y-76708000D01*
X96012000Y-76708000D02*
X92710000Y-80010000D01*
X92710000Y-80010000D02*
X75438000Y-80010000D01*
X75438000Y-80010000D02*
X72644000Y-77216000D01*
X79502000Y-70358000D02*
X72644000Y-77216000D01*
X77724000Y-77216000D02*
X72644000Y-77216000D01*
D19*
X77724000Y-77216000D02*
X72644000Y-77216000D01*
D20*
G36*
X102925045Y-58583531D02*
X102449231Y-59384830D01*
X102368854Y-59682207D01*
X102478655Y-60053220D01*
X106324400Y-60053220D01*
X106324400Y-60033220D01*
X106578400Y-60033220D01*
X106578400Y-60053220D01*
X106598400Y-60053220D01*
X106598400Y-60307220D01*
X106578400Y-60307220D01*
X106578400Y-62565280D01*
X108328460Y-62565280D01*
X109231516Y-62335127D01*
X109526000Y-62114841D01*
X109526000Y-68443699D01*
X109231516Y-68223413D01*
X108328460Y-67993260D01*
X106578400Y-67993260D01*
X106578400Y-70251320D01*
X106598400Y-70251320D01*
X106598400Y-70505320D01*
X106578400Y-70505320D01*
X106578400Y-72763380D01*
X108328460Y-72763380D01*
X109231516Y-72533227D01*
X109526000Y-72312941D01*
X109526000Y-81586000D01*
X54558000Y-81586000D01*
X54558000Y-76999223D01*
X69197035Y-76999223D01*
X69224222Y-77569454D01*
X69390136Y-77970005D01*
X69636255Y-78044139D01*
X70464395Y-77216000D01*
X69636255Y-76387861D01*
X69390136Y-76461995D01*
X69197035Y-76999223D01*
X54558000Y-76999223D01*
X54558000Y-76208255D01*
X69815861Y-76208255D01*
X70644000Y-77036395D01*
X70658142Y-77022252D01*
X70837748Y-77201858D01*
X70823605Y-77216000D01*
X70837748Y-77230143D01*
X70658142Y-77409748D01*
X70644000Y-77395605D01*
X69815861Y-78223745D01*
X69889995Y-78469864D01*
X70427223Y-78662965D01*
X70997454Y-78635778D01*
X71388947Y-78473616D01*
X71592110Y-78612431D01*
X71844000Y-78663440D01*
X72344886Y-78663440D01*
X74564723Y-80883277D01*
X74965386Y-81150991D01*
X75438000Y-81245000D01*
X92710000Y-81245000D01*
X93182614Y-81150991D01*
X93583277Y-80883277D01*
X96885277Y-77581277D01*
X97152991Y-77180614D01*
X97247000Y-76708000D01*
X97247000Y-70876333D01*
X102368854Y-70876333D01*
X102449231Y-71173710D01*
X102925045Y-71975009D01*
X103671284Y-72533227D01*
X104574340Y-72763380D01*
X106324400Y-72763380D01*
X106324400Y-70505320D01*
X102478655Y-70505320D01*
X102368854Y-70876333D01*
X97247000Y-70876333D01*
X97247000Y-69880307D01*
X102368854Y-69880307D01*
X102478655Y-70251320D01*
X106324400Y-70251320D01*
X106324400Y-67993260D01*
X104574340Y-67993260D01*
X103671284Y-68223413D01*
X102925045Y-68781631D01*
X102449231Y-69582930D01*
X102368854Y-69880307D01*
X97247000Y-69880307D01*
X97247000Y-69596000D01*
X97152991Y-69123386D01*
X96885277Y-68722723D01*
X96484614Y-68455009D01*
X96012000Y-68361000D01*
X95539386Y-68455009D01*
X95138723Y-68722723D01*
X94871009Y-69123386D01*
X94777000Y-69596000D01*
X94777000Y-76196446D01*
X93884448Y-77088998D01*
X93732252Y-77088998D01*
X93891000Y-76930250D01*
X93891000Y-76289690D01*
X93794327Y-76056301D01*
X93615698Y-75877673D01*
X93382309Y-75781000D01*
X92741750Y-75781000D01*
X92583000Y-75939750D01*
X92583000Y-77089000D01*
X92603000Y-77089000D01*
X92603000Y-77343000D01*
X92583000Y-77343000D01*
X92583000Y-77363000D01*
X92329000Y-77363000D01*
X92329000Y-77343000D01*
X92309000Y-77343000D01*
X92309000Y-77089000D01*
X92329000Y-77089000D01*
X92329000Y-75939750D01*
X92170250Y-75781000D01*
X91529691Y-75781000D01*
X91296302Y-75877673D01*
X91202002Y-75971973D01*
X90742691Y-75781250D01*
X90171813Y-75780752D01*
X89644200Y-75998757D01*
X89240176Y-76402077D01*
X89021250Y-76929309D01*
X89020752Y-77500187D01*
X89238757Y-78027800D01*
X89642077Y-78431824D01*
X90169309Y-78650750D01*
X90740187Y-78651248D01*
X91202287Y-78460312D01*
X91296302Y-78554327D01*
X91529691Y-78651000D01*
X92170250Y-78651000D01*
X92328998Y-78492252D01*
X92328998Y-78644448D01*
X92198446Y-78775000D01*
X85852416Y-78775000D01*
X86268943Y-78602894D01*
X86729278Y-78143363D01*
X86978716Y-77542648D01*
X86979284Y-76892205D01*
X86730894Y-76291057D01*
X86271363Y-75830722D01*
X85670648Y-75581284D01*
X85020205Y-75580716D01*
X84419057Y-75829106D01*
X83958722Y-76288637D01*
X83709284Y-76889352D01*
X83708716Y-77539795D01*
X83957106Y-78140943D01*
X84416637Y-78601278D01*
X84835007Y-78775000D01*
X82042416Y-78775000D01*
X82458943Y-78602894D01*
X82919278Y-78143363D01*
X83168716Y-77542648D01*
X83169284Y-76892205D01*
X82920894Y-76291057D01*
X82461363Y-75830722D01*
X81860648Y-75581284D01*
X81210205Y-75580716D01*
X80609057Y-75829106D01*
X80148722Y-76288637D01*
X79899284Y-76889352D01*
X79898716Y-77539795D01*
X80147106Y-78140943D01*
X80606637Y-78601278D01*
X81025007Y-78775000D01*
X79027947Y-78775000D01*
X79175441Y-78680090D01*
X79320431Y-78467890D01*
X79371440Y-78216000D01*
X79371440Y-76216000D01*
X79327162Y-75980683D01*
X79188090Y-75764559D01*
X78975890Y-75619569D01*
X78724000Y-75568560D01*
X76724000Y-75568560D01*
X76488683Y-75612838D01*
X76272559Y-75751910D01*
X76127569Y-75964110D01*
X76124149Y-75981000D01*
X75625554Y-75981000D01*
X80375277Y-71231277D01*
X80642991Y-70830614D01*
X80737000Y-70358000D01*
X80642991Y-69885386D01*
X80375277Y-69484723D01*
X79974614Y-69217009D01*
X79502000Y-69123000D01*
X79029386Y-69217009D01*
X78628723Y-69484723D01*
X72344886Y-75768560D01*
X71844000Y-75768560D01*
X71608683Y-75812838D01*
X71392559Y-75951910D01*
X71388023Y-75958548D01*
X70860777Y-75769035D01*
X70290546Y-75796222D01*
X69889995Y-75962136D01*
X69815861Y-76208255D01*
X54558000Y-76208255D01*
X54558000Y-74653606D01*
X56186606Y-73025000D01*
X71628000Y-73025000D01*
X71677410Y-73014994D01*
X71717803Y-72987803D01*
X76035803Y-68669803D01*
X76063666Y-68627789D01*
X76073000Y-68580000D01*
X76073000Y-65278000D01*
X100265137Y-65278000D01*
X100374377Y-65827189D01*
X100685468Y-66292769D01*
X101151048Y-66603860D01*
X101700237Y-66713100D01*
X102673243Y-66713100D01*
X103222432Y-66603860D01*
X103688012Y-66292769D01*
X103999103Y-65827189D01*
X104108343Y-65278000D01*
X103999103Y-64728811D01*
X103688012Y-64263231D01*
X103336821Y-64028572D01*
X103740892Y-63703607D01*
X104010781Y-63210497D01*
X104028323Y-63127695D01*
X103906336Y-62905640D01*
X102313740Y-62905640D01*
X102313740Y-62925640D01*
X102059740Y-62925640D01*
X102059740Y-62905640D01*
X100467144Y-62905640D01*
X100345157Y-63127695D01*
X100362699Y-63210497D01*
X100632588Y-63703607D01*
X101036659Y-64028572D01*
X100685468Y-64263231D01*
X100374377Y-64728811D01*
X100265137Y-65278000D01*
X76073000Y-65278000D01*
X76073000Y-62790606D01*
X76448439Y-62415167D01*
X81106838Y-62415167D01*
X81248883Y-62758943D01*
X81511673Y-63022192D01*
X81855201Y-63164838D01*
X82227167Y-63165162D01*
X82570943Y-63023117D01*
X82834192Y-62760327D01*
X82918211Y-62557986D01*
X85567657Y-62557986D01*
X85709702Y-62901762D01*
X85972492Y-63165011D01*
X86316020Y-63307657D01*
X86687986Y-63307981D01*
X87031762Y-63165936D01*
X87295011Y-62903146D01*
X87437657Y-62559618D01*
X87437770Y-62429585D01*
X100345157Y-62429585D01*
X100467144Y-62651640D01*
X102059740Y-62651640D01*
X102059740Y-61343540D01*
X102313740Y-61343540D01*
X102313740Y-62651640D01*
X103906336Y-62651640D01*
X104028323Y-62429585D01*
X104027547Y-62425924D01*
X104574340Y-62565280D01*
X106324400Y-62565280D01*
X106324400Y-60307220D01*
X102478655Y-60307220D01*
X102368854Y-60678233D01*
X102449231Y-60975610D01*
X102667709Y-61343540D01*
X102313740Y-61343540D01*
X102059740Y-61343540D01*
X101610160Y-61343540D01*
X101070638Y-61501381D01*
X100632588Y-61853673D01*
X100362699Y-62346783D01*
X100345157Y-62429585D01*
X87437770Y-62429585D01*
X87437981Y-62187652D01*
X87295936Y-61843876D01*
X87033146Y-61580627D01*
X86689618Y-61437981D01*
X86317652Y-61437657D01*
X85973876Y-61579702D01*
X85710627Y-61842492D01*
X85567981Y-62186020D01*
X85567657Y-62557986D01*
X82918211Y-62557986D01*
X82976838Y-62416799D01*
X82977162Y-62044833D01*
X82835117Y-61701057D01*
X82572327Y-61437808D01*
X82228799Y-61295162D01*
X81856833Y-61294838D01*
X81513057Y-61436883D01*
X81249808Y-61699673D01*
X81107162Y-62043201D01*
X81106838Y-62415167D01*
X76448439Y-62415167D01*
X80749606Y-58114000D01*
X103552725Y-58114000D01*
X102925045Y-58583531D01*
X102925045Y-58583531D01*
G37*
X102925045Y-58583531D02*
X102449231Y-59384830D01*
X102368854Y-59682207D01*
X102478655Y-60053220D01*
X106324400Y-60053220D01*
X106324400Y-60033220D01*
X106578400Y-60033220D01*
X106578400Y-60053220D01*
X106598400Y-60053220D01*
X106598400Y-60307220D01*
X106578400Y-60307220D01*
X106578400Y-62565280D01*
X108328460Y-62565280D01*
X109231516Y-62335127D01*
X109526000Y-62114841D01*
X109526000Y-68443699D01*
X109231516Y-68223413D01*
X108328460Y-67993260D01*
X106578400Y-67993260D01*
X106578400Y-70251320D01*
X106598400Y-70251320D01*
X106598400Y-70505320D01*
X106578400Y-70505320D01*
X106578400Y-72763380D01*
X108328460Y-72763380D01*
X109231516Y-72533227D01*
X109526000Y-72312941D01*
X109526000Y-81586000D01*
X54558000Y-81586000D01*
X54558000Y-76999223D01*
X69197035Y-76999223D01*
X69224222Y-77569454D01*
X69390136Y-77970005D01*
X69636255Y-78044139D01*
X70464395Y-77216000D01*
X69636255Y-76387861D01*
X69390136Y-76461995D01*
X69197035Y-76999223D01*
X54558000Y-76999223D01*
X54558000Y-76208255D01*
X69815861Y-76208255D01*
X70644000Y-77036395D01*
X70658142Y-77022252D01*
X70837748Y-77201858D01*
X70823605Y-77216000D01*
X70837748Y-77230143D01*
X70658142Y-77409748D01*
X70644000Y-77395605D01*
X69815861Y-78223745D01*
X69889995Y-78469864D01*
X70427223Y-78662965D01*
X70997454Y-78635778D01*
X71388947Y-78473616D01*
X71592110Y-78612431D01*
X71844000Y-78663440D01*
X72344886Y-78663440D01*
X74564723Y-80883277D01*
X74965386Y-81150991D01*
X75438000Y-81245000D01*
X92710000Y-81245000D01*
X93182614Y-81150991D01*
X93583277Y-80883277D01*
X96885277Y-77581277D01*
X97152991Y-77180614D01*
X97247000Y-76708000D01*
X97247000Y-70876333D01*
X102368854Y-70876333D01*
X102449231Y-71173710D01*
X102925045Y-71975009D01*
X103671284Y-72533227D01*
X104574340Y-72763380D01*
X106324400Y-72763380D01*
X106324400Y-70505320D01*
X102478655Y-70505320D01*
X102368854Y-70876333D01*
X97247000Y-70876333D01*
X97247000Y-69880307D01*
X102368854Y-69880307D01*
X102478655Y-70251320D01*
X106324400Y-70251320D01*
X106324400Y-67993260D01*
X104574340Y-67993260D01*
X103671284Y-68223413D01*
X102925045Y-68781631D01*
X102449231Y-69582930D01*
X102368854Y-69880307D01*
X97247000Y-69880307D01*
X97247000Y-69596000D01*
X97152991Y-69123386D01*
X96885277Y-68722723D01*
X96484614Y-68455009D01*
X96012000Y-68361000D01*
X95539386Y-68455009D01*
X95138723Y-68722723D01*
X94871009Y-69123386D01*
X94777000Y-69596000D01*
X94777000Y-76196446D01*
X93884448Y-77088998D01*
X93732252Y-77088998D01*
X93891000Y-76930250D01*
X93891000Y-76289690D01*
X93794327Y-76056301D01*
X93615698Y-75877673D01*
X93382309Y-75781000D01*
X92741750Y-75781000D01*
X92583000Y-75939750D01*
X92583000Y-77089000D01*
X92603000Y-77089000D01*
X92603000Y-77343000D01*
X92583000Y-77343000D01*
X92583000Y-77363000D01*
X92329000Y-77363000D01*
X92329000Y-77343000D01*
X92309000Y-77343000D01*
X92309000Y-77089000D01*
X92329000Y-77089000D01*
X92329000Y-75939750D01*
X92170250Y-75781000D01*
X91529691Y-75781000D01*
X91296302Y-75877673D01*
X91202002Y-75971973D01*
X90742691Y-75781250D01*
X90171813Y-75780752D01*
X89644200Y-75998757D01*
X89240176Y-76402077D01*
X89021250Y-76929309D01*
X89020752Y-77500187D01*
X89238757Y-78027800D01*
X89642077Y-78431824D01*
X90169309Y-78650750D01*
X90740187Y-78651248D01*
X91202287Y-78460312D01*
X91296302Y-78554327D01*
X91529691Y-78651000D01*
X92170250Y-78651000D01*
X92328998Y-78492252D01*
X92328998Y-78644448D01*
X92198446Y-78775000D01*
X85852416Y-78775000D01*
X86268943Y-78602894D01*
X86729278Y-78143363D01*
X86978716Y-77542648D01*
X86979284Y-76892205D01*
X86730894Y-76291057D01*
X86271363Y-75830722D01*
X85670648Y-75581284D01*
X85020205Y-75580716D01*
X84419057Y-75829106D01*
X83958722Y-76288637D01*
X83709284Y-76889352D01*
X83708716Y-77539795D01*
X83957106Y-78140943D01*
X84416637Y-78601278D01*
X84835007Y-78775000D01*
X82042416Y-78775000D01*
X82458943Y-78602894D01*
X82919278Y-78143363D01*
X83168716Y-77542648D01*
X83169284Y-76892205D01*
X82920894Y-76291057D01*
X82461363Y-75830722D01*
X81860648Y-75581284D01*
X81210205Y-75580716D01*
X80609057Y-75829106D01*
X80148722Y-76288637D01*
X79899284Y-76889352D01*
X79898716Y-77539795D01*
X80147106Y-78140943D01*
X80606637Y-78601278D01*
X81025007Y-78775000D01*
X79027947Y-78775000D01*
X79175441Y-78680090D01*
X79320431Y-78467890D01*
X79371440Y-78216000D01*
X79371440Y-76216000D01*
X79327162Y-75980683D01*
X79188090Y-75764559D01*
X78975890Y-75619569D01*
X78724000Y-75568560D01*
X76724000Y-75568560D01*
X76488683Y-75612838D01*
X76272559Y-75751910D01*
X76127569Y-75964110D01*
X76124149Y-75981000D01*
X75625554Y-75981000D01*
X80375277Y-71231277D01*
X80642991Y-70830614D01*
X80737000Y-70358000D01*
X80642991Y-69885386D01*
X80375277Y-69484723D01*
X79974614Y-69217009D01*
X79502000Y-69123000D01*
X79029386Y-69217009D01*
X78628723Y-69484723D01*
X72344886Y-75768560D01*
X71844000Y-75768560D01*
X71608683Y-75812838D01*
X71392559Y-75951910D01*
X71388023Y-75958548D01*
X70860777Y-75769035D01*
X70290546Y-75796222D01*
X69889995Y-75962136D01*
X69815861Y-76208255D01*
X54558000Y-76208255D01*
X54558000Y-74653606D01*
X56186606Y-73025000D01*
X71628000Y-73025000D01*
X71677410Y-73014994D01*
X71717803Y-72987803D01*
X76035803Y-68669803D01*
X76063666Y-68627789D01*
X76073000Y-68580000D01*
X76073000Y-65278000D01*
X100265137Y-65278000D01*
X100374377Y-65827189D01*
X100685468Y-66292769D01*
X101151048Y-66603860D01*
X101700237Y-66713100D01*
X102673243Y-66713100D01*
X103222432Y-66603860D01*
X103688012Y-66292769D01*
X103999103Y-65827189D01*
X104108343Y-65278000D01*
X103999103Y-64728811D01*
X103688012Y-64263231D01*
X103336821Y-64028572D01*
X103740892Y-63703607D01*
X104010781Y-63210497D01*
X104028323Y-63127695D01*
X103906336Y-62905640D01*
X102313740Y-62905640D01*
X102313740Y-62925640D01*
X102059740Y-62925640D01*
X102059740Y-62905640D01*
X100467144Y-62905640D01*
X100345157Y-63127695D01*
X100362699Y-63210497D01*
X100632588Y-63703607D01*
X101036659Y-64028572D01*
X100685468Y-64263231D01*
X100374377Y-64728811D01*
X100265137Y-65278000D01*
X76073000Y-65278000D01*
X76073000Y-62790606D01*
X76448439Y-62415167D01*
X81106838Y-62415167D01*
X81248883Y-62758943D01*
X81511673Y-63022192D01*
X81855201Y-63164838D01*
X82227167Y-63165162D01*
X82570943Y-63023117D01*
X82834192Y-62760327D01*
X82918211Y-62557986D01*
X85567657Y-62557986D01*
X85709702Y-62901762D01*
X85972492Y-63165011D01*
X86316020Y-63307657D01*
X86687986Y-63307981D01*
X87031762Y-63165936D01*
X87295011Y-62903146D01*
X87437657Y-62559618D01*
X87437770Y-62429585D01*
X100345157Y-62429585D01*
X100467144Y-62651640D01*
X102059740Y-62651640D01*
X102059740Y-61343540D01*
X102313740Y-61343540D01*
X102313740Y-62651640D01*
X103906336Y-62651640D01*
X104028323Y-62429585D01*
X104027547Y-62425924D01*
X104574340Y-62565280D01*
X106324400Y-62565280D01*
X106324400Y-60307220D01*
X102478655Y-60307220D01*
X102368854Y-60678233D01*
X102449231Y-60975610D01*
X102667709Y-61343540D01*
X102313740Y-61343540D01*
X102059740Y-61343540D01*
X101610160Y-61343540D01*
X101070638Y-61501381D01*
X100632588Y-61853673D01*
X100362699Y-62346783D01*
X100345157Y-62429585D01*
X87437770Y-62429585D01*
X87437981Y-62187652D01*
X87295936Y-61843876D01*
X87033146Y-61580627D01*
X86689618Y-61437981D01*
X86317652Y-61437657D01*
X85973876Y-61579702D01*
X85710627Y-61842492D01*
X85567981Y-62186020D01*
X85567657Y-62557986D01*
X82918211Y-62557986D01*
X82976838Y-62416799D01*
X82977162Y-62044833D01*
X82835117Y-61701057D01*
X82572327Y-61437808D01*
X82228799Y-61295162D01*
X81856833Y-61294838D01*
X81513057Y-61436883D01*
X81249808Y-61699673D01*
X81107162Y-62043201D01*
X81106838Y-62415167D01*
X76448439Y-62415167D01*
X80749606Y-58114000D01*
X103552725Y-58114000D01*
X102925045Y-58583531D01*
M02*
