G04 #@! TF.FileFunction,Copper,L1,Top,Signal*
%FSLAX46Y46*%
G04 Gerber Fmt 4.6, Leading zero omitted, Abs format (unit mm)*
G04 Created by KiCad (PCBNEW 4.0.7) date Thu May  3 16:22:41 2018*
%MOMM*%
%LPD*%
G01*
G04 APERTURE LIST*
%ADD10C,0.100000*%
%ADD11C,0.300000*%
%ADD12R,1.600000X1.600000*%
%ADD13C,1.600000*%
%ADD14O,7.000240X3.500120*%
%ADD15O,2.499360X1.600200*%
%ADD16C,2.000000*%
%ADD17R,2.000000X2.000000*%
%ADD18C,0.600000*%
%ADD19C,1.200000*%
%ADD20C,0.254000*%
G04 APERTURE END LIST*
D10*
D11*
X101802857Y-73600571D02*
X102088571Y-73600571D01*
X102231429Y-73672000D01*
X102374286Y-73814857D01*
X102445714Y-74100571D01*
X102445714Y-74600571D01*
X102374286Y-74886286D01*
X102231429Y-75029143D01*
X102088571Y-75100571D01*
X101802857Y-75100571D01*
X101660000Y-75029143D01*
X101517143Y-74886286D01*
X101445714Y-74600571D01*
X101445714Y-74100571D01*
X101517143Y-73814857D01*
X101660000Y-73672000D01*
X101802857Y-73600571D01*
X103088572Y-73600571D02*
X103088572Y-74814857D01*
X103160000Y-74957714D01*
X103231429Y-75029143D01*
X103374286Y-75100571D01*
X103660000Y-75100571D01*
X103802858Y-75029143D01*
X103874286Y-74957714D01*
X103945715Y-74814857D01*
X103945715Y-73600571D01*
X104445715Y-73600571D02*
X105302858Y-73600571D01*
X104874287Y-75100571D02*
X104874287Y-73600571D01*
X105802858Y-75100571D02*
X105802858Y-73600571D01*
X106374286Y-73600571D01*
X106517144Y-73672000D01*
X106588572Y-73743429D01*
X106660001Y-73886286D01*
X106660001Y-74100571D01*
X106588572Y-74243429D01*
X106517144Y-74314857D01*
X106374286Y-74386286D01*
X105802858Y-74386286D01*
X107302858Y-73600571D02*
X107302858Y-74814857D01*
X107374286Y-74957714D01*
X107445715Y-75029143D01*
X107588572Y-75100571D01*
X107874286Y-75100571D01*
X108017144Y-75029143D01*
X108088572Y-74957714D01*
X108160001Y-74814857D01*
X108160001Y-73600571D01*
X108660001Y-73600571D02*
X109517144Y-73600571D01*
X109088573Y-75100571D02*
X109088573Y-73600571D01*
X54765143Y-74846571D02*
X54765143Y-73346571D01*
X55479429Y-74846571D02*
X55479429Y-73346571D01*
X56336572Y-74846571D01*
X56336572Y-73346571D01*
X57050858Y-74846571D02*
X57050858Y-73346571D01*
X57622286Y-73346571D01*
X57765144Y-73418000D01*
X57836572Y-73489429D01*
X57908001Y-73632286D01*
X57908001Y-73846571D01*
X57836572Y-73989429D01*
X57765144Y-74060857D01*
X57622286Y-74132286D01*
X57050858Y-74132286D01*
X58550858Y-73346571D02*
X58550858Y-74560857D01*
X58622286Y-74703714D01*
X58693715Y-74775143D01*
X58836572Y-74846571D01*
X59122286Y-74846571D01*
X59265144Y-74775143D01*
X59336572Y-74703714D01*
X59408001Y-74560857D01*
X59408001Y-73346571D01*
X59908001Y-73346571D02*
X60765144Y-73346571D01*
X60336573Y-74846571D02*
X60336573Y-73346571D01*
D12*
X92456000Y-77216000D03*
D13*
X90456000Y-77216000D03*
D12*
X72644000Y-77216000D03*
D13*
X70644000Y-77216000D03*
D14*
X57886600Y-69867780D03*
X57886600Y-59669680D03*
D15*
X62151260Y-64770000D03*
X62151260Y-67269360D03*
D16*
X85344000Y-77216000D03*
D17*
X77724000Y-77216000D03*
D16*
X81534000Y-77216000D03*
D14*
X106451400Y-60180220D03*
X106451400Y-70378320D03*
D15*
X102186740Y-65278000D03*
X102186740Y-62778640D03*
D18*
X86502819Y-62372819D03*
X82042000Y-62230000D03*
X82042000Y-64516000D03*
X90027181Y-65135181D03*
X96012000Y-69596000D03*
X79502000Y-70358000D03*
D19*
X82042000Y-64516000D02*
X88900000Y-71374000D01*
X88900000Y-71374000D02*
X94742000Y-71374000D01*
X90027181Y-65135181D02*
X91694000Y-66802000D01*
X91694000Y-66802000D02*
X91694000Y-68326000D01*
X91694000Y-68326000D02*
X94742000Y-71374000D01*
X94742000Y-71374000D02*
X105455720Y-71374000D01*
X105455720Y-71374000D02*
X106451400Y-70378320D01*
X106451400Y-60180220D02*
X104785160Y-60180220D01*
X104785160Y-60180220D02*
X102186740Y-62778640D01*
X106451400Y-70378320D02*
X106451400Y-60180220D01*
X57886600Y-69867780D02*
X59552840Y-69867780D01*
X59552840Y-69867780D02*
X62151260Y-67269360D01*
X57886600Y-59669680D02*
X57886600Y-69867780D01*
D20*
G36*
X102925045Y-58583531D02*
X102449231Y-59384830D01*
X102368854Y-59682207D01*
X102478655Y-60053220D01*
X106324400Y-60053220D01*
X106324400Y-60033220D01*
X106578400Y-60033220D01*
X106578400Y-60053220D01*
X106598400Y-60053220D01*
X106598400Y-60307220D01*
X106578400Y-60307220D01*
X106578400Y-62565280D01*
X108328460Y-62565280D01*
X109231516Y-62335127D01*
X109526000Y-62114841D01*
X109526000Y-68443699D01*
X109231516Y-68223413D01*
X108328460Y-67993260D01*
X106578400Y-67993260D01*
X106578400Y-70251320D01*
X106598400Y-70251320D01*
X106598400Y-70505320D01*
X106578400Y-70505320D01*
X106578400Y-70525320D01*
X106324400Y-70525320D01*
X106324400Y-70505320D01*
X102478655Y-70505320D01*
X102368854Y-70876333D01*
X102449231Y-71173710D01*
X102925045Y-71975009D01*
X103671284Y-72533227D01*
X103882274Y-72587000D01*
X100525000Y-72587000D01*
X100525000Y-76407000D01*
X109526000Y-76407000D01*
X109526000Y-81586000D01*
X54558000Y-81586000D01*
X54558000Y-76999223D01*
X69197035Y-76999223D01*
X69224222Y-77569454D01*
X69390136Y-77970005D01*
X69636255Y-78044139D01*
X70464395Y-77216000D01*
X69636255Y-76387861D01*
X69390136Y-76461995D01*
X69197035Y-76999223D01*
X54558000Y-76999223D01*
X54558000Y-76208255D01*
X69815861Y-76208255D01*
X70644000Y-77036395D01*
X70658142Y-77022252D01*
X70837748Y-77201858D01*
X70823605Y-77216000D01*
X70837748Y-77230143D01*
X70658142Y-77409748D01*
X70644000Y-77395605D01*
X69815861Y-78223745D01*
X69889995Y-78469864D01*
X70427223Y-78662965D01*
X70997454Y-78635778D01*
X71388947Y-78473616D01*
X71592110Y-78612431D01*
X71844000Y-78663440D01*
X73444000Y-78663440D01*
X73679317Y-78619162D01*
X73895441Y-78480090D01*
X74040431Y-78267890D01*
X74091440Y-78016000D01*
X74091440Y-76416000D01*
X74053808Y-76216000D01*
X76076560Y-76216000D01*
X76076560Y-78216000D01*
X76120838Y-78451317D01*
X76259910Y-78667441D01*
X76472110Y-78812431D01*
X76724000Y-78863440D01*
X78724000Y-78863440D01*
X78959317Y-78819162D01*
X79175441Y-78680090D01*
X79320431Y-78467890D01*
X79371440Y-78216000D01*
X79371440Y-77539795D01*
X79898716Y-77539795D01*
X80147106Y-78140943D01*
X80606637Y-78601278D01*
X81207352Y-78850716D01*
X81857795Y-78851284D01*
X82458943Y-78602894D01*
X82919278Y-78143363D01*
X83168716Y-77542648D01*
X83168718Y-77539795D01*
X83708716Y-77539795D01*
X83957106Y-78140943D01*
X84416637Y-78601278D01*
X85017352Y-78850716D01*
X85667795Y-78851284D01*
X86268943Y-78602894D01*
X86729278Y-78143363D01*
X86978716Y-77542648D01*
X86978753Y-77500187D01*
X89020752Y-77500187D01*
X89238757Y-78027800D01*
X89642077Y-78431824D01*
X90169309Y-78650750D01*
X90740187Y-78651248D01*
X91202287Y-78460312D01*
X91296302Y-78554327D01*
X91529691Y-78651000D01*
X92170250Y-78651000D01*
X92329000Y-78492250D01*
X92329000Y-77343000D01*
X92583000Y-77343000D01*
X92583000Y-78492250D01*
X92741750Y-78651000D01*
X93382309Y-78651000D01*
X93615698Y-78554327D01*
X93794327Y-78375699D01*
X93891000Y-78142310D01*
X93891000Y-77501750D01*
X93732250Y-77343000D01*
X92583000Y-77343000D01*
X92329000Y-77343000D01*
X92309000Y-77343000D01*
X92309000Y-77089000D01*
X92329000Y-77089000D01*
X92329000Y-75939750D01*
X92583000Y-75939750D01*
X92583000Y-77089000D01*
X93732250Y-77089000D01*
X93891000Y-76930250D01*
X93891000Y-76289690D01*
X93794327Y-76056301D01*
X93615698Y-75877673D01*
X93382309Y-75781000D01*
X92741750Y-75781000D01*
X92583000Y-75939750D01*
X92329000Y-75939750D01*
X92170250Y-75781000D01*
X91529691Y-75781000D01*
X91296302Y-75877673D01*
X91202002Y-75971973D01*
X90742691Y-75781250D01*
X90171813Y-75780752D01*
X89644200Y-75998757D01*
X89240176Y-76402077D01*
X89021250Y-76929309D01*
X89020752Y-77500187D01*
X86978753Y-77500187D01*
X86979284Y-76892205D01*
X86730894Y-76291057D01*
X86271363Y-75830722D01*
X85670648Y-75581284D01*
X85020205Y-75580716D01*
X84419057Y-75829106D01*
X83958722Y-76288637D01*
X83709284Y-76889352D01*
X83708716Y-77539795D01*
X83168718Y-77539795D01*
X83169284Y-76892205D01*
X82920894Y-76291057D01*
X82461363Y-75830722D01*
X81860648Y-75581284D01*
X81210205Y-75580716D01*
X80609057Y-75829106D01*
X80148722Y-76288637D01*
X79899284Y-76889352D01*
X79898716Y-77539795D01*
X79371440Y-77539795D01*
X79371440Y-76216000D01*
X79327162Y-75980683D01*
X79188090Y-75764559D01*
X78975890Y-75619569D01*
X78724000Y-75568560D01*
X76724000Y-75568560D01*
X76488683Y-75612838D01*
X76272559Y-75751910D01*
X76127569Y-75964110D01*
X76076560Y-76216000D01*
X74053808Y-76216000D01*
X74047162Y-76180683D01*
X73908090Y-75964559D01*
X73695890Y-75819569D01*
X73444000Y-75768560D01*
X71844000Y-75768560D01*
X71608683Y-75812838D01*
X71392559Y-75951910D01*
X71388023Y-75958548D01*
X70860777Y-75769035D01*
X70290546Y-75796222D01*
X69889995Y-75962136D01*
X69815861Y-76208255D01*
X54558000Y-76208255D01*
X54558000Y-76153000D01*
X61543001Y-76153000D01*
X61543001Y-73025000D01*
X71628000Y-73025000D01*
X71677410Y-73014994D01*
X71717803Y-72987803D01*
X74162439Y-70543167D01*
X78566838Y-70543167D01*
X78708883Y-70886943D01*
X78971673Y-71150192D01*
X79315201Y-71292838D01*
X79687167Y-71293162D01*
X80030943Y-71151117D01*
X80294192Y-70888327D01*
X80436838Y-70544799D01*
X80437162Y-70172833D01*
X80295117Y-69829057D01*
X80247311Y-69781167D01*
X95076838Y-69781167D01*
X95218883Y-70124943D01*
X95481673Y-70388192D01*
X95825201Y-70530838D01*
X96197167Y-70531162D01*
X96540943Y-70389117D01*
X96804192Y-70126327D01*
X96906348Y-69880307D01*
X102368854Y-69880307D01*
X102478655Y-70251320D01*
X106324400Y-70251320D01*
X106324400Y-67993260D01*
X104574340Y-67993260D01*
X103671284Y-68223413D01*
X102925045Y-68781631D01*
X102449231Y-69582930D01*
X102368854Y-69880307D01*
X96906348Y-69880307D01*
X96946838Y-69782799D01*
X96947162Y-69410833D01*
X96805117Y-69067057D01*
X96542327Y-68803808D01*
X96198799Y-68661162D01*
X95826833Y-68660838D01*
X95483057Y-68802883D01*
X95219808Y-69065673D01*
X95077162Y-69409201D01*
X95076838Y-69781167D01*
X80247311Y-69781167D01*
X80032327Y-69565808D01*
X79688799Y-69423162D01*
X79316833Y-69422838D01*
X78973057Y-69564883D01*
X78709808Y-69827673D01*
X78567162Y-70171201D01*
X78566838Y-70543167D01*
X74162439Y-70543167D01*
X76035803Y-68669803D01*
X76063666Y-68627789D01*
X76073000Y-68580000D01*
X76073000Y-65278000D01*
X100265137Y-65278000D01*
X100374377Y-65827189D01*
X100685468Y-66292769D01*
X101151048Y-66603860D01*
X101700237Y-66713100D01*
X102673243Y-66713100D01*
X103222432Y-66603860D01*
X103688012Y-66292769D01*
X103999103Y-65827189D01*
X104108343Y-65278000D01*
X103999103Y-64728811D01*
X103688012Y-64263231D01*
X103336821Y-64028572D01*
X103740892Y-63703607D01*
X104010781Y-63210497D01*
X104028323Y-63127695D01*
X103906336Y-62905640D01*
X102313740Y-62905640D01*
X102313740Y-62925640D01*
X102059740Y-62925640D01*
X102059740Y-62905640D01*
X100467144Y-62905640D01*
X100345157Y-63127695D01*
X100362699Y-63210497D01*
X100632588Y-63703607D01*
X101036659Y-64028572D01*
X100685468Y-64263231D01*
X100374377Y-64728811D01*
X100265137Y-65278000D01*
X76073000Y-65278000D01*
X76073000Y-62790606D01*
X76448439Y-62415167D01*
X81106838Y-62415167D01*
X81248883Y-62758943D01*
X81511673Y-63022192D01*
X81855201Y-63164838D01*
X82227167Y-63165162D01*
X82570943Y-63023117D01*
X82834192Y-62760327D01*
X82918211Y-62557986D01*
X85567657Y-62557986D01*
X85709702Y-62901762D01*
X85972492Y-63165011D01*
X86316020Y-63307657D01*
X86687986Y-63307981D01*
X87031762Y-63165936D01*
X87295011Y-62903146D01*
X87437657Y-62559618D01*
X87437770Y-62429585D01*
X100345157Y-62429585D01*
X100467144Y-62651640D01*
X102059740Y-62651640D01*
X102059740Y-61343540D01*
X102313740Y-61343540D01*
X102313740Y-62651640D01*
X103906336Y-62651640D01*
X104028323Y-62429585D01*
X104027547Y-62425924D01*
X104574340Y-62565280D01*
X106324400Y-62565280D01*
X106324400Y-60307220D01*
X102478655Y-60307220D01*
X102368854Y-60678233D01*
X102449231Y-60975610D01*
X102667709Y-61343540D01*
X102313740Y-61343540D01*
X102059740Y-61343540D01*
X101610160Y-61343540D01*
X101070638Y-61501381D01*
X100632588Y-61853673D01*
X100362699Y-62346783D01*
X100345157Y-62429585D01*
X87437770Y-62429585D01*
X87437981Y-62187652D01*
X87295936Y-61843876D01*
X87033146Y-61580627D01*
X86689618Y-61437981D01*
X86317652Y-61437657D01*
X85973876Y-61579702D01*
X85710627Y-61842492D01*
X85567981Y-62186020D01*
X85567657Y-62557986D01*
X82918211Y-62557986D01*
X82976838Y-62416799D01*
X82977162Y-62044833D01*
X82835117Y-61701057D01*
X82572327Y-61437808D01*
X82228799Y-61295162D01*
X81856833Y-61294838D01*
X81513057Y-61436883D01*
X81249808Y-61699673D01*
X81107162Y-62043201D01*
X81106838Y-62415167D01*
X76448439Y-62415167D01*
X80749606Y-58114000D01*
X103552725Y-58114000D01*
X102925045Y-58583531D01*
X102925045Y-58583531D01*
G37*
X102925045Y-58583531D02*
X102449231Y-59384830D01*
X102368854Y-59682207D01*
X102478655Y-60053220D01*
X106324400Y-60053220D01*
X106324400Y-60033220D01*
X106578400Y-60033220D01*
X106578400Y-60053220D01*
X106598400Y-60053220D01*
X106598400Y-60307220D01*
X106578400Y-60307220D01*
X106578400Y-62565280D01*
X108328460Y-62565280D01*
X109231516Y-62335127D01*
X109526000Y-62114841D01*
X109526000Y-68443699D01*
X109231516Y-68223413D01*
X108328460Y-67993260D01*
X106578400Y-67993260D01*
X106578400Y-70251320D01*
X106598400Y-70251320D01*
X106598400Y-70505320D01*
X106578400Y-70505320D01*
X106578400Y-70525320D01*
X106324400Y-70525320D01*
X106324400Y-70505320D01*
X102478655Y-70505320D01*
X102368854Y-70876333D01*
X102449231Y-71173710D01*
X102925045Y-71975009D01*
X103671284Y-72533227D01*
X103882274Y-72587000D01*
X100525000Y-72587000D01*
X100525000Y-76407000D01*
X109526000Y-76407000D01*
X109526000Y-81586000D01*
X54558000Y-81586000D01*
X54558000Y-76999223D01*
X69197035Y-76999223D01*
X69224222Y-77569454D01*
X69390136Y-77970005D01*
X69636255Y-78044139D01*
X70464395Y-77216000D01*
X69636255Y-76387861D01*
X69390136Y-76461995D01*
X69197035Y-76999223D01*
X54558000Y-76999223D01*
X54558000Y-76208255D01*
X69815861Y-76208255D01*
X70644000Y-77036395D01*
X70658142Y-77022252D01*
X70837748Y-77201858D01*
X70823605Y-77216000D01*
X70837748Y-77230143D01*
X70658142Y-77409748D01*
X70644000Y-77395605D01*
X69815861Y-78223745D01*
X69889995Y-78469864D01*
X70427223Y-78662965D01*
X70997454Y-78635778D01*
X71388947Y-78473616D01*
X71592110Y-78612431D01*
X71844000Y-78663440D01*
X73444000Y-78663440D01*
X73679317Y-78619162D01*
X73895441Y-78480090D01*
X74040431Y-78267890D01*
X74091440Y-78016000D01*
X74091440Y-76416000D01*
X74053808Y-76216000D01*
X76076560Y-76216000D01*
X76076560Y-78216000D01*
X76120838Y-78451317D01*
X76259910Y-78667441D01*
X76472110Y-78812431D01*
X76724000Y-78863440D01*
X78724000Y-78863440D01*
X78959317Y-78819162D01*
X79175441Y-78680090D01*
X79320431Y-78467890D01*
X79371440Y-78216000D01*
X79371440Y-77539795D01*
X79898716Y-77539795D01*
X80147106Y-78140943D01*
X80606637Y-78601278D01*
X81207352Y-78850716D01*
X81857795Y-78851284D01*
X82458943Y-78602894D01*
X82919278Y-78143363D01*
X83168716Y-77542648D01*
X83168718Y-77539795D01*
X83708716Y-77539795D01*
X83957106Y-78140943D01*
X84416637Y-78601278D01*
X85017352Y-78850716D01*
X85667795Y-78851284D01*
X86268943Y-78602894D01*
X86729278Y-78143363D01*
X86978716Y-77542648D01*
X86978753Y-77500187D01*
X89020752Y-77500187D01*
X89238757Y-78027800D01*
X89642077Y-78431824D01*
X90169309Y-78650750D01*
X90740187Y-78651248D01*
X91202287Y-78460312D01*
X91296302Y-78554327D01*
X91529691Y-78651000D01*
X92170250Y-78651000D01*
X92329000Y-78492250D01*
X92329000Y-77343000D01*
X92583000Y-77343000D01*
X92583000Y-78492250D01*
X92741750Y-78651000D01*
X93382309Y-78651000D01*
X93615698Y-78554327D01*
X93794327Y-78375699D01*
X93891000Y-78142310D01*
X93891000Y-77501750D01*
X93732250Y-77343000D01*
X92583000Y-77343000D01*
X92329000Y-77343000D01*
X92309000Y-77343000D01*
X92309000Y-77089000D01*
X92329000Y-77089000D01*
X92329000Y-75939750D01*
X92583000Y-75939750D01*
X92583000Y-77089000D01*
X93732250Y-77089000D01*
X93891000Y-76930250D01*
X93891000Y-76289690D01*
X93794327Y-76056301D01*
X93615698Y-75877673D01*
X93382309Y-75781000D01*
X92741750Y-75781000D01*
X92583000Y-75939750D01*
X92329000Y-75939750D01*
X92170250Y-75781000D01*
X91529691Y-75781000D01*
X91296302Y-75877673D01*
X91202002Y-75971973D01*
X90742691Y-75781250D01*
X90171813Y-75780752D01*
X89644200Y-75998757D01*
X89240176Y-76402077D01*
X89021250Y-76929309D01*
X89020752Y-77500187D01*
X86978753Y-77500187D01*
X86979284Y-76892205D01*
X86730894Y-76291057D01*
X86271363Y-75830722D01*
X85670648Y-75581284D01*
X85020205Y-75580716D01*
X84419057Y-75829106D01*
X83958722Y-76288637D01*
X83709284Y-76889352D01*
X83708716Y-77539795D01*
X83168718Y-77539795D01*
X83169284Y-76892205D01*
X82920894Y-76291057D01*
X82461363Y-75830722D01*
X81860648Y-75581284D01*
X81210205Y-75580716D01*
X80609057Y-75829106D01*
X80148722Y-76288637D01*
X79899284Y-76889352D01*
X79898716Y-77539795D01*
X79371440Y-77539795D01*
X79371440Y-76216000D01*
X79327162Y-75980683D01*
X79188090Y-75764559D01*
X78975890Y-75619569D01*
X78724000Y-75568560D01*
X76724000Y-75568560D01*
X76488683Y-75612838D01*
X76272559Y-75751910D01*
X76127569Y-75964110D01*
X76076560Y-76216000D01*
X74053808Y-76216000D01*
X74047162Y-76180683D01*
X73908090Y-75964559D01*
X73695890Y-75819569D01*
X73444000Y-75768560D01*
X71844000Y-75768560D01*
X71608683Y-75812838D01*
X71392559Y-75951910D01*
X71388023Y-75958548D01*
X70860777Y-75769035D01*
X70290546Y-75796222D01*
X69889995Y-75962136D01*
X69815861Y-76208255D01*
X54558000Y-76208255D01*
X54558000Y-76153000D01*
X61543001Y-76153000D01*
X61543001Y-73025000D01*
X71628000Y-73025000D01*
X71677410Y-73014994D01*
X71717803Y-72987803D01*
X74162439Y-70543167D01*
X78566838Y-70543167D01*
X78708883Y-70886943D01*
X78971673Y-71150192D01*
X79315201Y-71292838D01*
X79687167Y-71293162D01*
X80030943Y-71151117D01*
X80294192Y-70888327D01*
X80436838Y-70544799D01*
X80437162Y-70172833D01*
X80295117Y-69829057D01*
X80247311Y-69781167D01*
X95076838Y-69781167D01*
X95218883Y-70124943D01*
X95481673Y-70388192D01*
X95825201Y-70530838D01*
X96197167Y-70531162D01*
X96540943Y-70389117D01*
X96804192Y-70126327D01*
X96906348Y-69880307D01*
X102368854Y-69880307D01*
X102478655Y-70251320D01*
X106324400Y-70251320D01*
X106324400Y-67993260D01*
X104574340Y-67993260D01*
X103671284Y-68223413D01*
X102925045Y-68781631D01*
X102449231Y-69582930D01*
X102368854Y-69880307D01*
X96906348Y-69880307D01*
X96946838Y-69782799D01*
X96947162Y-69410833D01*
X96805117Y-69067057D01*
X96542327Y-68803808D01*
X96198799Y-68661162D01*
X95826833Y-68660838D01*
X95483057Y-68802883D01*
X95219808Y-69065673D01*
X95077162Y-69409201D01*
X95076838Y-69781167D01*
X80247311Y-69781167D01*
X80032327Y-69565808D01*
X79688799Y-69423162D01*
X79316833Y-69422838D01*
X78973057Y-69564883D01*
X78709808Y-69827673D01*
X78567162Y-70171201D01*
X78566838Y-70543167D01*
X74162439Y-70543167D01*
X76035803Y-68669803D01*
X76063666Y-68627789D01*
X76073000Y-68580000D01*
X76073000Y-65278000D01*
X100265137Y-65278000D01*
X100374377Y-65827189D01*
X100685468Y-66292769D01*
X101151048Y-66603860D01*
X101700237Y-66713100D01*
X102673243Y-66713100D01*
X103222432Y-66603860D01*
X103688012Y-66292769D01*
X103999103Y-65827189D01*
X104108343Y-65278000D01*
X103999103Y-64728811D01*
X103688012Y-64263231D01*
X103336821Y-64028572D01*
X103740892Y-63703607D01*
X104010781Y-63210497D01*
X104028323Y-63127695D01*
X103906336Y-62905640D01*
X102313740Y-62905640D01*
X102313740Y-62925640D01*
X102059740Y-62925640D01*
X102059740Y-62905640D01*
X100467144Y-62905640D01*
X100345157Y-63127695D01*
X100362699Y-63210497D01*
X100632588Y-63703607D01*
X101036659Y-64028572D01*
X100685468Y-64263231D01*
X100374377Y-64728811D01*
X100265137Y-65278000D01*
X76073000Y-65278000D01*
X76073000Y-62790606D01*
X76448439Y-62415167D01*
X81106838Y-62415167D01*
X81248883Y-62758943D01*
X81511673Y-63022192D01*
X81855201Y-63164838D01*
X82227167Y-63165162D01*
X82570943Y-63023117D01*
X82834192Y-62760327D01*
X82918211Y-62557986D01*
X85567657Y-62557986D01*
X85709702Y-62901762D01*
X85972492Y-63165011D01*
X86316020Y-63307657D01*
X86687986Y-63307981D01*
X87031762Y-63165936D01*
X87295011Y-62903146D01*
X87437657Y-62559618D01*
X87437770Y-62429585D01*
X100345157Y-62429585D01*
X100467144Y-62651640D01*
X102059740Y-62651640D01*
X102059740Y-61343540D01*
X102313740Y-61343540D01*
X102313740Y-62651640D01*
X103906336Y-62651640D01*
X104028323Y-62429585D01*
X104027547Y-62425924D01*
X104574340Y-62565280D01*
X106324400Y-62565280D01*
X106324400Y-60307220D01*
X102478655Y-60307220D01*
X102368854Y-60678233D01*
X102449231Y-60975610D01*
X102667709Y-61343540D01*
X102313740Y-61343540D01*
X102059740Y-61343540D01*
X101610160Y-61343540D01*
X101070638Y-61501381D01*
X100632588Y-61853673D01*
X100362699Y-62346783D01*
X100345157Y-62429585D01*
X87437770Y-62429585D01*
X87437981Y-62187652D01*
X87295936Y-61843876D01*
X87033146Y-61580627D01*
X86689618Y-61437981D01*
X86317652Y-61437657D01*
X85973876Y-61579702D01*
X85710627Y-61842492D01*
X85567981Y-62186020D01*
X85567657Y-62557986D01*
X82918211Y-62557986D01*
X82976838Y-62416799D01*
X82977162Y-62044833D01*
X82835117Y-61701057D01*
X82572327Y-61437808D01*
X82228799Y-61295162D01*
X81856833Y-61294838D01*
X81513057Y-61436883D01*
X81249808Y-61699673D01*
X81107162Y-62043201D01*
X81106838Y-62415167D01*
X76448439Y-62415167D01*
X80749606Y-58114000D01*
X103552725Y-58114000D01*
X102925045Y-58583531D01*
M02*
