G04 #@! TF.FileFunction,Legend,Bot*
%FSLAX46Y46*%
G04 Gerber Fmt 4.6, Leading zero omitted, Abs format (unit mm)*
G04 Created by KiCad (PCBNEW 4.0.7) date Sat May 26 11:04:06 2018*
%MOMM*%
%LPD*%
G01*
G04 APERTURE LIST*
%ADD10C,0.100000*%
%ADD11C,0.120000*%
%ADD12C,0.150000*%
G04 APERTURE END LIST*
D10*
D11*
X80172000Y-63912000D02*
X80172000Y-64612000D01*
X81372000Y-64612000D02*
X81372000Y-63912000D01*
X69180000Y-66390000D02*
X69180000Y-65690000D01*
X67980000Y-65690000D02*
X67980000Y-66390000D01*
X81372000Y-61818000D02*
X81372000Y-61118000D01*
X80172000Y-61118000D02*
X80172000Y-61818000D01*
X81184000Y-69434000D02*
X81884000Y-69434000D01*
X81884000Y-68234000D02*
X81184000Y-68234000D01*
X96424000Y-68926000D02*
X97124000Y-68926000D01*
X97124000Y-67726000D02*
X96424000Y-67726000D01*
X86268000Y-64166000D02*
X86268000Y-64866000D01*
X87468000Y-64866000D02*
X87468000Y-64166000D01*
X84744000Y-64166000D02*
X84744000Y-64866000D01*
X85944000Y-64866000D02*
X85944000Y-64166000D01*
X96424000Y-67402000D02*
X97124000Y-67402000D01*
X97124000Y-66202000D02*
X96424000Y-66202000D01*
X81184000Y-70958000D02*
X81884000Y-70958000D01*
X81884000Y-69758000D02*
X81184000Y-69758000D01*
X84998000Y-68738000D02*
X84998000Y-69438000D01*
X86198000Y-69438000D02*
X86198000Y-68738000D01*
X92298000Y-61884000D02*
X91598000Y-61884000D01*
X91598000Y-63084000D02*
X92298000Y-63084000D01*
X98460000Y-65690000D02*
X98460000Y-66390000D01*
X99660000Y-66390000D02*
X99660000Y-65690000D01*
D12*
X65540000Y-67985000D02*
X66540000Y-67985000D01*
X66540000Y-66635000D02*
X65540000Y-66635000D01*
X65540000Y-65445000D02*
X66540000Y-65445000D01*
X66540000Y-64095000D02*
X65540000Y-64095000D01*
X81621000Y-71890000D02*
X81621000Y-72890000D01*
X82971000Y-72890000D02*
X82971000Y-71890000D01*
X71541000Y-68064000D02*
X71541000Y-67064000D01*
X70191000Y-67064000D02*
X70191000Y-68064000D01*
X81034000Y-67477000D02*
X82034000Y-67477000D01*
X82034000Y-66127000D02*
X81034000Y-66127000D01*
X87892000Y-61635000D02*
X88892000Y-61635000D01*
X88892000Y-60285000D02*
X87892000Y-60285000D01*
X85606000Y-67477000D02*
X86606000Y-67477000D01*
X86606000Y-66127000D02*
X85606000Y-66127000D01*
X96274000Y-65953000D02*
X97274000Y-65953000D01*
X97274000Y-64603000D02*
X96274000Y-64603000D01*
X74125000Y-68615000D02*
X74125000Y-68565000D01*
X78275000Y-68615000D02*
X78275000Y-68470000D01*
X78275000Y-63465000D02*
X78275000Y-63610000D01*
X74125000Y-63465000D02*
X74125000Y-63610000D01*
X74125000Y-68615000D02*
X78275000Y-68615000D01*
X74125000Y-63465000D02*
X78275000Y-63465000D01*
X74125000Y-68565000D02*
X72725000Y-68565000D01*
X89365000Y-68615000D02*
X89365000Y-68565000D01*
X93515000Y-68615000D02*
X93515000Y-68470000D01*
X93515000Y-63465000D02*
X93515000Y-63610000D01*
X89365000Y-63465000D02*
X89365000Y-63610000D01*
X89365000Y-68615000D02*
X93515000Y-68615000D01*
X89365000Y-63465000D02*
X93515000Y-63465000D01*
X89365000Y-68565000D02*
X87965000Y-68565000D01*
X71541000Y-65016000D02*
X71541000Y-64016000D01*
X70191000Y-64016000D02*
X70191000Y-65016000D01*
X79629143Y-64095334D02*
X79676762Y-64047715D01*
X79724381Y-63904858D01*
X79724381Y-63809620D01*
X79676762Y-63666762D01*
X79581524Y-63571524D01*
X79486286Y-63523905D01*
X79295810Y-63476286D01*
X79152952Y-63476286D01*
X78962476Y-63523905D01*
X78867238Y-63571524D01*
X78772000Y-63666762D01*
X78724381Y-63809620D01*
X78724381Y-63904858D01*
X78772000Y-64047715D01*
X78819619Y-64095334D01*
X79724381Y-65047715D02*
X79724381Y-64476286D01*
X79724381Y-64762000D02*
X78724381Y-64762000D01*
X78867238Y-64666762D01*
X78962476Y-64571524D01*
X79010095Y-64476286D01*
X70437143Y-65873334D02*
X70484762Y-65825715D01*
X70532381Y-65682858D01*
X70532381Y-65587620D01*
X70484762Y-65444762D01*
X70389524Y-65349524D01*
X70294286Y-65301905D01*
X70103810Y-65254286D01*
X69960952Y-65254286D01*
X69770476Y-65301905D01*
X69675238Y-65349524D01*
X69580000Y-65444762D01*
X69532381Y-65587620D01*
X69532381Y-65682858D01*
X69580000Y-65825715D01*
X69627619Y-65873334D01*
X69627619Y-66254286D02*
X69580000Y-66301905D01*
X69532381Y-66397143D01*
X69532381Y-66635239D01*
X69580000Y-66730477D01*
X69627619Y-66778096D01*
X69722857Y-66825715D01*
X69818095Y-66825715D01*
X69960952Y-66778096D01*
X70532381Y-66206667D01*
X70532381Y-66825715D01*
X82629143Y-61301334D02*
X82676762Y-61253715D01*
X82724381Y-61110858D01*
X82724381Y-61015620D01*
X82676762Y-60872762D01*
X82581524Y-60777524D01*
X82486286Y-60729905D01*
X82295810Y-60682286D01*
X82152952Y-60682286D01*
X81962476Y-60729905D01*
X81867238Y-60777524D01*
X81772000Y-60872762D01*
X81724381Y-61015620D01*
X81724381Y-61110858D01*
X81772000Y-61253715D01*
X81819619Y-61301334D01*
X81724381Y-61634667D02*
X81724381Y-62253715D01*
X82105333Y-61920381D01*
X82105333Y-62063239D01*
X82152952Y-62158477D01*
X82200571Y-62206096D01*
X82295810Y-62253715D01*
X82533905Y-62253715D01*
X82629143Y-62206096D01*
X82676762Y-62158477D01*
X82724381Y-62063239D01*
X82724381Y-61777524D01*
X82676762Y-61682286D01*
X82629143Y-61634667D01*
X81700666Y-70691143D02*
X81748285Y-70738762D01*
X81891142Y-70786381D01*
X81986380Y-70786381D01*
X82129238Y-70738762D01*
X82224476Y-70643524D01*
X82272095Y-70548286D01*
X82319714Y-70357810D01*
X82319714Y-70214952D01*
X82272095Y-70024476D01*
X82224476Y-69929238D01*
X82129238Y-69834000D01*
X81986380Y-69786381D01*
X81891142Y-69786381D01*
X81748285Y-69834000D01*
X81700666Y-69881619D01*
X80843523Y-70119714D02*
X80843523Y-70786381D01*
X81081619Y-69738762D02*
X81319714Y-70453048D01*
X80700666Y-70453048D01*
X96940666Y-70183143D02*
X96988285Y-70230762D01*
X97131142Y-70278381D01*
X97226380Y-70278381D01*
X97369238Y-70230762D01*
X97464476Y-70135524D01*
X97512095Y-70040286D01*
X97559714Y-69849810D01*
X97559714Y-69706952D01*
X97512095Y-69516476D01*
X97464476Y-69421238D01*
X97369238Y-69326000D01*
X97226380Y-69278381D01*
X97131142Y-69278381D01*
X96988285Y-69326000D01*
X96940666Y-69373619D01*
X96035904Y-69278381D02*
X96512095Y-69278381D01*
X96559714Y-69754571D01*
X96512095Y-69706952D01*
X96416857Y-69659333D01*
X96178761Y-69659333D01*
X96083523Y-69706952D01*
X96035904Y-69754571D01*
X95988285Y-69849810D01*
X95988285Y-70087905D01*
X96035904Y-70183143D01*
X96083523Y-70230762D01*
X96178761Y-70278381D01*
X96416857Y-70278381D01*
X96512095Y-70230762D01*
X96559714Y-70183143D01*
X85725143Y-64349334D02*
X85772762Y-64301715D01*
X85820381Y-64158858D01*
X85820381Y-64063620D01*
X85772762Y-63920762D01*
X85677524Y-63825524D01*
X85582286Y-63777905D01*
X85391810Y-63730286D01*
X85248952Y-63730286D01*
X85058476Y-63777905D01*
X84963238Y-63825524D01*
X84868000Y-63920762D01*
X84820381Y-64063620D01*
X84820381Y-64158858D01*
X84868000Y-64301715D01*
X84915619Y-64349334D01*
X84820381Y-65206477D02*
X84820381Y-65016000D01*
X84868000Y-64920762D01*
X84915619Y-64873143D01*
X85058476Y-64777905D01*
X85248952Y-64730286D01*
X85629905Y-64730286D01*
X85725143Y-64777905D01*
X85772762Y-64825524D01*
X85820381Y-64920762D01*
X85820381Y-65111239D01*
X85772762Y-65206477D01*
X85725143Y-65254096D01*
X85629905Y-65301715D01*
X85391810Y-65301715D01*
X85296571Y-65254096D01*
X85248952Y-65206477D01*
X85201333Y-65111239D01*
X85201333Y-64920762D01*
X85248952Y-64825524D01*
X85296571Y-64777905D01*
X85391810Y-64730286D01*
X84201143Y-64349334D02*
X84248762Y-64301715D01*
X84296381Y-64158858D01*
X84296381Y-64063620D01*
X84248762Y-63920762D01*
X84153524Y-63825524D01*
X84058286Y-63777905D01*
X83867810Y-63730286D01*
X83724952Y-63730286D01*
X83534476Y-63777905D01*
X83439238Y-63825524D01*
X83344000Y-63920762D01*
X83296381Y-64063620D01*
X83296381Y-64158858D01*
X83344000Y-64301715D01*
X83391619Y-64349334D01*
X83724952Y-64920762D02*
X83677333Y-64825524D01*
X83629714Y-64777905D01*
X83534476Y-64730286D01*
X83486857Y-64730286D01*
X83391619Y-64777905D01*
X83344000Y-64825524D01*
X83296381Y-64920762D01*
X83296381Y-65111239D01*
X83344000Y-65206477D01*
X83391619Y-65254096D01*
X83486857Y-65301715D01*
X83534476Y-65301715D01*
X83629714Y-65254096D01*
X83677333Y-65206477D01*
X83724952Y-65111239D01*
X83724952Y-64920762D01*
X83772571Y-64825524D01*
X83820190Y-64777905D01*
X83915429Y-64730286D01*
X84105905Y-64730286D01*
X84201143Y-64777905D01*
X84248762Y-64825524D01*
X84296381Y-64920762D01*
X84296381Y-65111239D01*
X84248762Y-65206477D01*
X84201143Y-65254096D01*
X84105905Y-65301715D01*
X83915429Y-65301715D01*
X83820190Y-65254096D01*
X83772571Y-65206477D01*
X83724952Y-65111239D01*
X96940666Y-68659143D02*
X96988285Y-68706762D01*
X97131142Y-68754381D01*
X97226380Y-68754381D01*
X97369238Y-68706762D01*
X97464476Y-68611524D01*
X97512095Y-68516286D01*
X97559714Y-68325810D01*
X97559714Y-68182952D01*
X97512095Y-67992476D01*
X97464476Y-67897238D01*
X97369238Y-67802000D01*
X97226380Y-67754381D01*
X97131142Y-67754381D01*
X96988285Y-67802000D01*
X96940666Y-67849619D01*
X96464476Y-68754381D02*
X96274000Y-68754381D01*
X96178761Y-68706762D01*
X96131142Y-68659143D01*
X96035904Y-68516286D01*
X95988285Y-68325810D01*
X95988285Y-67944857D01*
X96035904Y-67849619D01*
X96083523Y-67802000D01*
X96178761Y-67754381D01*
X96369238Y-67754381D01*
X96464476Y-67802000D01*
X96512095Y-67849619D01*
X96559714Y-67944857D01*
X96559714Y-68182952D01*
X96512095Y-68278190D01*
X96464476Y-68325810D01*
X96369238Y-68373429D01*
X96178761Y-68373429D01*
X96083523Y-68325810D01*
X96035904Y-68278190D01*
X95988285Y-68182952D01*
X82176857Y-72215143D02*
X82224476Y-72262762D01*
X82367333Y-72310381D01*
X82462571Y-72310381D01*
X82605429Y-72262762D01*
X82700667Y-72167524D01*
X82748286Y-72072286D01*
X82795905Y-71881810D01*
X82795905Y-71738952D01*
X82748286Y-71548476D01*
X82700667Y-71453238D01*
X82605429Y-71358000D01*
X82462571Y-71310381D01*
X82367333Y-71310381D01*
X82224476Y-71358000D01*
X82176857Y-71405619D01*
X81224476Y-72310381D02*
X81795905Y-72310381D01*
X81510191Y-72310381D02*
X81510191Y-71310381D01*
X81605429Y-71453238D01*
X81700667Y-71548476D01*
X81795905Y-71596095D01*
X80272095Y-72310381D02*
X80843524Y-72310381D01*
X80557810Y-72310381D02*
X80557810Y-71310381D01*
X80653048Y-71453238D01*
X80748286Y-71548476D01*
X80843524Y-71596095D01*
X84455143Y-68445143D02*
X84502762Y-68397524D01*
X84550381Y-68254667D01*
X84550381Y-68159429D01*
X84502762Y-68016571D01*
X84407524Y-67921333D01*
X84312286Y-67873714D01*
X84121810Y-67826095D01*
X83978952Y-67826095D01*
X83788476Y-67873714D01*
X83693238Y-67921333D01*
X83598000Y-68016571D01*
X83550381Y-68159429D01*
X83550381Y-68254667D01*
X83598000Y-68397524D01*
X83645619Y-68445143D01*
X84550381Y-69397524D02*
X84550381Y-68826095D01*
X84550381Y-69111809D02*
X83550381Y-69111809D01*
X83693238Y-69016571D01*
X83788476Y-68921333D01*
X83836095Y-68826095D01*
X83645619Y-69778476D02*
X83598000Y-69826095D01*
X83550381Y-69921333D01*
X83550381Y-70159429D01*
X83598000Y-70254667D01*
X83645619Y-70302286D01*
X83740857Y-70349905D01*
X83836095Y-70349905D01*
X83978952Y-70302286D01*
X84550381Y-69730857D01*
X84550381Y-70349905D01*
X92590857Y-61341143D02*
X92638476Y-61388762D01*
X92781333Y-61436381D01*
X92876571Y-61436381D01*
X93019429Y-61388762D01*
X93114667Y-61293524D01*
X93162286Y-61198286D01*
X93209905Y-61007810D01*
X93209905Y-60864952D01*
X93162286Y-60674476D01*
X93114667Y-60579238D01*
X93019429Y-60484000D01*
X92876571Y-60436381D01*
X92781333Y-60436381D01*
X92638476Y-60484000D01*
X92590857Y-60531619D01*
X91638476Y-61436381D02*
X92209905Y-61436381D01*
X91924191Y-61436381D02*
X91924191Y-60436381D01*
X92019429Y-60579238D01*
X92114667Y-60674476D01*
X92209905Y-60722095D01*
X91305143Y-60436381D02*
X90686095Y-60436381D01*
X91019429Y-60817333D01*
X90876571Y-60817333D01*
X90781333Y-60864952D01*
X90733714Y-60912571D01*
X90686095Y-61007810D01*
X90686095Y-61245905D01*
X90733714Y-61341143D01*
X90781333Y-61388762D01*
X90876571Y-61436381D01*
X91162286Y-61436381D01*
X91257524Y-61388762D01*
X91305143Y-61341143D01*
X97917143Y-65397143D02*
X97964762Y-65349524D01*
X98012381Y-65206667D01*
X98012381Y-65111429D01*
X97964762Y-64968571D01*
X97869524Y-64873333D01*
X97774286Y-64825714D01*
X97583810Y-64778095D01*
X97440952Y-64778095D01*
X97250476Y-64825714D01*
X97155238Y-64873333D01*
X97060000Y-64968571D01*
X97012381Y-65111429D01*
X97012381Y-65206667D01*
X97060000Y-65349524D01*
X97107619Y-65397143D01*
X98012381Y-66349524D02*
X98012381Y-65778095D01*
X98012381Y-66063809D02*
X97012381Y-66063809D01*
X97155238Y-65968571D01*
X97250476Y-65873333D01*
X97298095Y-65778095D01*
X97345714Y-67206667D02*
X98012381Y-67206667D01*
X96964762Y-66968571D02*
X97679048Y-66730476D01*
X97679048Y-67349524D01*
X66206666Y-65862381D02*
X66540000Y-65386190D01*
X66778095Y-65862381D02*
X66778095Y-64862381D01*
X66397142Y-64862381D01*
X66301904Y-64910000D01*
X66254285Y-64957619D01*
X66206666Y-65052857D01*
X66206666Y-65195714D01*
X66254285Y-65290952D01*
X66301904Y-65338571D01*
X66397142Y-65386190D01*
X66778095Y-65386190D01*
X65254285Y-65862381D02*
X65825714Y-65862381D01*
X65540000Y-65862381D02*
X65540000Y-64862381D01*
X65635238Y-65005238D01*
X65730476Y-65100476D01*
X65825714Y-65148095D01*
X66206666Y-63322381D02*
X66540000Y-62846190D01*
X66778095Y-63322381D02*
X66778095Y-62322381D01*
X66397142Y-62322381D01*
X66301904Y-62370000D01*
X66254285Y-62417619D01*
X66206666Y-62512857D01*
X66206666Y-62655714D01*
X66254285Y-62750952D01*
X66301904Y-62798571D01*
X66397142Y-62846190D01*
X66778095Y-62846190D01*
X65825714Y-62417619D02*
X65778095Y-62370000D01*
X65682857Y-62322381D01*
X65444761Y-62322381D01*
X65349523Y-62370000D01*
X65301904Y-62417619D01*
X65254285Y-62512857D01*
X65254285Y-62608095D01*
X65301904Y-62750952D01*
X65873333Y-63322381D01*
X65254285Y-63322381D01*
X84648381Y-72223334D02*
X84172190Y-71890000D01*
X84648381Y-71651905D02*
X83648381Y-71651905D01*
X83648381Y-72032858D01*
X83696000Y-72128096D01*
X83743619Y-72175715D01*
X83838857Y-72223334D01*
X83981714Y-72223334D01*
X84076952Y-72175715D01*
X84124571Y-72128096D01*
X84172190Y-72032858D01*
X84172190Y-71651905D01*
X83648381Y-72556667D02*
X83648381Y-73175715D01*
X84029333Y-72842381D01*
X84029333Y-72985239D01*
X84076952Y-73080477D01*
X84124571Y-73128096D01*
X84219810Y-73175715D01*
X84457905Y-73175715D01*
X84553143Y-73128096D01*
X84600762Y-73080477D01*
X84648381Y-72985239D01*
X84648381Y-72699524D01*
X84600762Y-72604286D01*
X84553143Y-72556667D01*
X69418381Y-67397334D02*
X68942190Y-67064000D01*
X69418381Y-66825905D02*
X68418381Y-66825905D01*
X68418381Y-67206858D01*
X68466000Y-67302096D01*
X68513619Y-67349715D01*
X68608857Y-67397334D01*
X68751714Y-67397334D01*
X68846952Y-67349715D01*
X68894571Y-67302096D01*
X68942190Y-67206858D01*
X68942190Y-66825905D01*
X68751714Y-68254477D02*
X69418381Y-68254477D01*
X68370762Y-68016381D02*
X69085048Y-67778286D01*
X69085048Y-68397334D01*
X81700666Y-65354381D02*
X82034000Y-64878190D01*
X82272095Y-65354381D02*
X82272095Y-64354381D01*
X81891142Y-64354381D01*
X81795904Y-64402000D01*
X81748285Y-64449619D01*
X81700666Y-64544857D01*
X81700666Y-64687714D01*
X81748285Y-64782952D01*
X81795904Y-64830571D01*
X81891142Y-64878190D01*
X82272095Y-64878190D01*
X80795904Y-64354381D02*
X81272095Y-64354381D01*
X81319714Y-64830571D01*
X81272095Y-64782952D01*
X81176857Y-64735333D01*
X80938761Y-64735333D01*
X80843523Y-64782952D01*
X80795904Y-64830571D01*
X80748285Y-64925810D01*
X80748285Y-65163905D01*
X80795904Y-65259143D01*
X80843523Y-65306762D01*
X80938761Y-65354381D01*
X81176857Y-65354381D01*
X81272095Y-65306762D01*
X81319714Y-65259143D01*
X88558666Y-59512381D02*
X88892000Y-59036190D01*
X89130095Y-59512381D02*
X89130095Y-58512381D01*
X88749142Y-58512381D01*
X88653904Y-58560000D01*
X88606285Y-58607619D01*
X88558666Y-58702857D01*
X88558666Y-58845714D01*
X88606285Y-58940952D01*
X88653904Y-58988571D01*
X88749142Y-59036190D01*
X89130095Y-59036190D01*
X87701523Y-58512381D02*
X87892000Y-58512381D01*
X87987238Y-58560000D01*
X88034857Y-58607619D01*
X88130095Y-58750476D01*
X88177714Y-58940952D01*
X88177714Y-59321905D01*
X88130095Y-59417143D01*
X88082476Y-59464762D01*
X87987238Y-59512381D01*
X87796761Y-59512381D01*
X87701523Y-59464762D01*
X87653904Y-59417143D01*
X87606285Y-59321905D01*
X87606285Y-59083810D01*
X87653904Y-58988571D01*
X87701523Y-58940952D01*
X87796761Y-58893333D01*
X87987238Y-58893333D01*
X88082476Y-58940952D01*
X88130095Y-58988571D01*
X88177714Y-59083810D01*
X86272666Y-65354381D02*
X86606000Y-64878190D01*
X86844095Y-65354381D02*
X86844095Y-64354381D01*
X86463142Y-64354381D01*
X86367904Y-64402000D01*
X86320285Y-64449619D01*
X86272666Y-64544857D01*
X86272666Y-64687714D01*
X86320285Y-64782952D01*
X86367904Y-64830571D01*
X86463142Y-64878190D01*
X86844095Y-64878190D01*
X85939333Y-64354381D02*
X85272666Y-64354381D01*
X85701238Y-65354381D01*
X96940666Y-63830381D02*
X97274000Y-63354190D01*
X97512095Y-63830381D02*
X97512095Y-62830381D01*
X97131142Y-62830381D01*
X97035904Y-62878000D01*
X96988285Y-62925619D01*
X96940666Y-63020857D01*
X96940666Y-63163714D01*
X96988285Y-63258952D01*
X97035904Y-63306571D01*
X97131142Y-63354190D01*
X97512095Y-63354190D01*
X96369238Y-63258952D02*
X96464476Y-63211333D01*
X96512095Y-63163714D01*
X96559714Y-63068476D01*
X96559714Y-63020857D01*
X96512095Y-62925619D01*
X96464476Y-62878000D01*
X96369238Y-62830381D01*
X96178761Y-62830381D01*
X96083523Y-62878000D01*
X96035904Y-62925619D01*
X95988285Y-63020857D01*
X95988285Y-63068476D01*
X96035904Y-63163714D01*
X96083523Y-63211333D01*
X96178761Y-63258952D01*
X96369238Y-63258952D01*
X96464476Y-63306571D01*
X96512095Y-63354190D01*
X96559714Y-63449429D01*
X96559714Y-63639905D01*
X96512095Y-63735143D01*
X96464476Y-63782762D01*
X96369238Y-63830381D01*
X96178761Y-63830381D01*
X96083523Y-63782762D01*
X96035904Y-63735143D01*
X95988285Y-63639905D01*
X95988285Y-63449429D01*
X96035904Y-63354190D01*
X96083523Y-63306571D01*
X96178761Y-63258952D01*
X76961905Y-68992381D02*
X76961905Y-69801905D01*
X76914286Y-69897143D01*
X76866667Y-69944762D01*
X76771429Y-69992381D01*
X76580952Y-69992381D01*
X76485714Y-69944762D01*
X76438095Y-69897143D01*
X76390476Y-69801905D01*
X76390476Y-68992381D01*
X75390476Y-69992381D02*
X75961905Y-69992381D01*
X75676191Y-69992381D02*
X75676191Y-68992381D01*
X75771429Y-69135238D01*
X75866667Y-69230476D01*
X75961905Y-69278095D01*
X92201905Y-68992381D02*
X92201905Y-69801905D01*
X92154286Y-69897143D01*
X92106667Y-69944762D01*
X92011429Y-69992381D01*
X91820952Y-69992381D01*
X91725714Y-69944762D01*
X91678095Y-69897143D01*
X91630476Y-69801905D01*
X91630476Y-68992381D01*
X91201905Y-69087619D02*
X91154286Y-69040000D01*
X91059048Y-68992381D01*
X90820952Y-68992381D01*
X90725714Y-69040000D01*
X90678095Y-69087619D01*
X90630476Y-69182857D01*
X90630476Y-69278095D01*
X90678095Y-69420952D01*
X91249524Y-69992381D01*
X90630476Y-69992381D01*
X69418381Y-64349334D02*
X68942190Y-64016000D01*
X69418381Y-63777905D02*
X68418381Y-63777905D01*
X68418381Y-64158858D01*
X68466000Y-64254096D01*
X68513619Y-64301715D01*
X68608857Y-64349334D01*
X68751714Y-64349334D01*
X68846952Y-64301715D01*
X68894571Y-64254096D01*
X68942190Y-64158858D01*
X68942190Y-63777905D01*
X69418381Y-64825524D02*
X69418381Y-65016000D01*
X69370762Y-65111239D01*
X69323143Y-65158858D01*
X69180286Y-65254096D01*
X68989810Y-65301715D01*
X68608857Y-65301715D01*
X68513619Y-65254096D01*
X68466000Y-65206477D01*
X68418381Y-65111239D01*
X68418381Y-64920762D01*
X68466000Y-64825524D01*
X68513619Y-64777905D01*
X68608857Y-64730286D01*
X68846952Y-64730286D01*
X68942190Y-64777905D01*
X68989810Y-64825524D01*
X69037429Y-64920762D01*
X69037429Y-65111239D01*
X68989810Y-65206477D01*
X68942190Y-65254096D01*
X68846952Y-65301715D01*
M02*
