G04 #@! TF.FileFunction,Copper,L4,Bot,Signal*
%FSLAX46Y46*%
G04 Gerber Fmt 4.6, Leading zero omitted, Abs format (unit mm)*
G04 Created by KiCad (PCBNEW 4.0.7) date Thu May  3 16:22:41 2018*
%MOMM*%
%LPD*%
G01*
G04 APERTURE LIST*
%ADD10C,0.100000*%
%ADD11R,0.750000X0.800000*%
%ADD12R,0.800000X0.750000*%
%ADD13R,1.600000X1.600000*%
%ADD14C,1.600000*%
%ADD15O,7.000240X3.500120*%
%ADD16O,2.499360X1.600200*%
%ADD17C,2.000000*%
%ADD18R,2.000000X2.000000*%
%ADD19R,0.500000X0.900000*%
%ADD20R,0.900000X0.500000*%
%ADD21R,1.550000X0.600000*%
%ADD22C,0.600000*%
%ADD23C,1.200000*%
%ADD24C,0.600000*%
%ADD25C,0.400000*%
%ADD26C,0.200000*%
%ADD27C,0.254000*%
G04 APERTURE END LIST*
D10*
D11*
X80772000Y-63512000D03*
X80772000Y-65012000D03*
X71120000Y-66790000D03*
X71120000Y-65290000D03*
X80772000Y-62218000D03*
X80772000Y-60718000D03*
D12*
X80784000Y-68834000D03*
X82284000Y-68834000D03*
X96024000Y-68326000D03*
X97524000Y-68326000D03*
D11*
X86868000Y-63766000D03*
X86868000Y-65266000D03*
D13*
X92456000Y-77216000D03*
D14*
X90456000Y-77216000D03*
D11*
X85344000Y-63766000D03*
X85344000Y-65266000D03*
D12*
X96024000Y-66802000D03*
X97524000Y-66802000D03*
D13*
X72644000Y-77216000D03*
D14*
X70644000Y-77216000D03*
D12*
X80784000Y-70358000D03*
X82284000Y-70358000D03*
D11*
X85598000Y-68338000D03*
X85598000Y-69838000D03*
D12*
X92698000Y-62484000D03*
X91198000Y-62484000D03*
D11*
X99060000Y-65290000D03*
X99060000Y-66790000D03*
D15*
X57886600Y-69867780D03*
X57886600Y-59669680D03*
D16*
X62151260Y-64770000D03*
X62151260Y-67269360D03*
D17*
X85344000Y-77216000D03*
D18*
X77724000Y-77216000D03*
D17*
X81534000Y-77216000D03*
D15*
X106451400Y-60180220D03*
X106451400Y-70378320D03*
D16*
X102186740Y-65278000D03*
X102186740Y-62778640D03*
D19*
X66790000Y-67310000D03*
X65290000Y-67310000D03*
X66790000Y-64770000D03*
X65290000Y-64770000D03*
X81522000Y-75438000D03*
X80022000Y-75438000D03*
D20*
X68580000Y-65290000D03*
X68580000Y-66790000D03*
D19*
X82284000Y-66802000D03*
X80784000Y-66802000D03*
X89142000Y-60960000D03*
X87642000Y-60960000D03*
X86856000Y-66802000D03*
X85356000Y-66802000D03*
X97524000Y-65278000D03*
X96024000Y-65278000D03*
D21*
X73500000Y-67945000D03*
X73500000Y-66675000D03*
X73500000Y-65405000D03*
X73500000Y-64135000D03*
X78900000Y-64135000D03*
X78900000Y-65405000D03*
X78900000Y-66675000D03*
X78900000Y-67945000D03*
X88740000Y-67945000D03*
X88740000Y-66675000D03*
X88740000Y-65405000D03*
X88740000Y-64135000D03*
X94140000Y-64135000D03*
X94140000Y-65405000D03*
X94140000Y-66675000D03*
X94140000Y-67945000D03*
D20*
X83820000Y-68314000D03*
X83820000Y-66814000D03*
D22*
X86502819Y-62372819D03*
X82042000Y-62230000D03*
X82042000Y-64516000D03*
X90027181Y-65135181D03*
X96012000Y-69596000D03*
X79502000Y-70358000D03*
D23*
X85344000Y-63766000D02*
X85344000Y-63531638D01*
X85344000Y-63531638D02*
X86502819Y-62372819D01*
X80772000Y-62218000D02*
X82030000Y-62218000D01*
X82030000Y-62218000D02*
X82042000Y-62230000D01*
D24*
X85344000Y-63766000D02*
X86868000Y-63766000D01*
X86868000Y-63766000D02*
X87237000Y-64135000D01*
X87237000Y-64135000D02*
X88740000Y-64135000D01*
X80772000Y-63512000D02*
X80772000Y-62218000D01*
X80772000Y-62218000D02*
X80772000Y-62263000D01*
X80772000Y-62263000D02*
X78900000Y-64135000D01*
X80772000Y-63512000D02*
X79523000Y-63512000D01*
X79523000Y-63512000D02*
X78900000Y-64135000D01*
X99060000Y-66790000D02*
X103136000Y-66790000D01*
X104140000Y-64731900D02*
X102186740Y-62778640D01*
X104140000Y-65786000D02*
X104140000Y-64731900D01*
X103136000Y-66790000D02*
X104140000Y-65786000D01*
D25*
X90027181Y-65135181D02*
X90027181Y-64658819D01*
X90027181Y-64658819D02*
X90170000Y-64516000D01*
X90170000Y-64516000D02*
X90170000Y-63500000D01*
X90170000Y-63500000D02*
X89662000Y-62992000D01*
X89662000Y-62992000D02*
X89154000Y-62992000D01*
X89154000Y-62992000D02*
X88392000Y-62230000D01*
X88392000Y-62230000D02*
X88392000Y-59944000D01*
X88392000Y-59944000D02*
X89408000Y-58928000D01*
X89408000Y-58928000D02*
X105199180Y-58928000D01*
X105199180Y-58928000D02*
X106451400Y-60180220D01*
D23*
X78900000Y-65405000D02*
X77851000Y-65405000D01*
X77851000Y-65405000D02*
X77216000Y-64770000D01*
X77216000Y-64770000D02*
X77216000Y-62992000D01*
X77216000Y-62992000D02*
X79502000Y-60706000D01*
X79502000Y-60706000D02*
X80760000Y-60706000D01*
X80760000Y-60706000D02*
X80772000Y-60718000D01*
X80772000Y-65012000D02*
X81546000Y-65012000D01*
X81546000Y-65012000D02*
X82042000Y-64516000D01*
X82284000Y-70358000D02*
X85078000Y-70358000D01*
X85078000Y-70358000D02*
X85598000Y-69838000D01*
X80022000Y-75438000D02*
X80022000Y-73394000D01*
X80022000Y-73394000D02*
X82284000Y-71132000D01*
X82284000Y-71132000D02*
X82284000Y-70358000D01*
X92456000Y-77216000D02*
X99613720Y-77216000D01*
X99613720Y-77216000D02*
X106451400Y-70378320D01*
X85598000Y-69838000D02*
X93206000Y-69838000D01*
X93206000Y-69838000D02*
X94742000Y-71374000D01*
X94742000Y-71374000D02*
X105455720Y-71374000D01*
X105455720Y-71374000D02*
X106451400Y-70378320D01*
X88740000Y-65405000D02*
X89757362Y-65405000D01*
X89757362Y-65405000D02*
X90027181Y-65135181D01*
X97524000Y-68326000D02*
X104399080Y-68326000D01*
X104399080Y-68326000D02*
X106451400Y-70378320D01*
X106451400Y-60180220D02*
X104785160Y-60180220D01*
X104785160Y-60180220D02*
X102186740Y-62778640D01*
X106451400Y-60180220D02*
X106451400Y-70378320D01*
D24*
X80022000Y-75438000D02*
X80022000Y-73394000D01*
X80022000Y-73394000D02*
X82284000Y-71132000D01*
X82284000Y-71132000D02*
X82284000Y-70358000D01*
X99060000Y-66790000D02*
X97536000Y-66790000D01*
X97536000Y-66790000D02*
X97524000Y-66802000D01*
X97524000Y-66802000D02*
X97524000Y-68326000D01*
X82284000Y-68834000D02*
X82284000Y-70358000D01*
X85598000Y-69838000D02*
X85344000Y-69838000D01*
X85344000Y-69838000D02*
X83820000Y-68314000D01*
X85344000Y-65266000D02*
X86868000Y-65266000D01*
X86868000Y-65266000D02*
X87007000Y-65405000D01*
X87007000Y-65405000D02*
X88740000Y-65405000D01*
X83820000Y-68314000D02*
X82804000Y-68314000D01*
X82804000Y-68314000D02*
X82284000Y-68834000D01*
D25*
X82284000Y-68834000D02*
X82284000Y-68822000D01*
X82284000Y-68822000D02*
X81534000Y-68072000D01*
X81534000Y-68072000D02*
X81534000Y-65774000D01*
X81534000Y-65774000D02*
X80772000Y-65012000D01*
D26*
X82284000Y-68834000D02*
X82284000Y-68822000D01*
D24*
X78900000Y-65405000D02*
X80379000Y-65405000D01*
X80379000Y-65405000D02*
X80772000Y-65012000D01*
X73500000Y-67945000D02*
X72275000Y-67945000D01*
X72275000Y-67945000D02*
X71120000Y-66790000D01*
X68580000Y-66790000D02*
X71120000Y-66790000D01*
X66790000Y-67310000D02*
X68060000Y-67310000D01*
X68060000Y-67310000D02*
X68580000Y-66790000D01*
X73500000Y-64135000D02*
X72275000Y-64135000D01*
X72275000Y-64135000D02*
X71120000Y-65290000D01*
X66790000Y-64770000D02*
X68060000Y-64770000D01*
X68060000Y-64770000D02*
X68580000Y-65290000D01*
X68580000Y-65290000D02*
X71120000Y-65290000D01*
D23*
X96024000Y-68326000D02*
X96024000Y-69584000D01*
X96024000Y-69584000D02*
X96012000Y-69596000D01*
X80784000Y-70358000D02*
X79502000Y-70358000D01*
D24*
X80784000Y-70358000D02*
X80772000Y-70358000D01*
X96024000Y-66802000D02*
X96024000Y-68326000D01*
X94140000Y-66675000D02*
X95897000Y-66675000D01*
X95897000Y-66675000D02*
X96024000Y-66802000D01*
X80784000Y-68834000D02*
X80784000Y-70358000D01*
X80784000Y-68834000D02*
X79789000Y-68834000D01*
X79789000Y-68834000D02*
X78900000Y-67945000D01*
X83820000Y-66814000D02*
X83820000Y-63500000D01*
X83820000Y-63500000D02*
X86360000Y-60960000D01*
X86360000Y-60960000D02*
X87642000Y-60960000D01*
X85356000Y-66802000D02*
X85356000Y-68096000D01*
X85356000Y-68096000D02*
X85598000Y-68338000D01*
X83820000Y-66814000D02*
X84074000Y-66814000D01*
X84074000Y-66814000D02*
X85598000Y-68338000D01*
X83820000Y-66814000D02*
X85344000Y-66814000D01*
X85344000Y-66814000D02*
X85356000Y-66802000D01*
X82284000Y-66802000D02*
X83808000Y-66802000D01*
X83808000Y-66802000D02*
X83820000Y-66814000D01*
X82296000Y-66814000D02*
X82284000Y-66802000D01*
X94140000Y-65405000D02*
X95897000Y-65405000D01*
X95897000Y-65405000D02*
X96024000Y-65278000D01*
X94140000Y-65405000D02*
X93345000Y-65405000D01*
X93345000Y-65405000D02*
X92698000Y-64758000D01*
X92698000Y-64758000D02*
X92698000Y-62484000D01*
X92698000Y-62484000D02*
X92698000Y-62218000D01*
X92698000Y-62218000D02*
X91440000Y-60960000D01*
X91440000Y-60960000D02*
X89142000Y-60960000D01*
X88740000Y-66675000D02*
X90043000Y-66675000D01*
X90043000Y-66675000D02*
X91198000Y-65520000D01*
X91198000Y-65520000D02*
X91198000Y-62484000D01*
X88740000Y-66675000D02*
X86983000Y-66675000D01*
X86983000Y-66675000D02*
X86856000Y-66802000D01*
X99060000Y-65290000D02*
X102174740Y-65290000D01*
X102174740Y-65290000D02*
X102186740Y-65278000D01*
X99060000Y-65290000D02*
X97536000Y-65290000D01*
X97536000Y-65290000D02*
X97524000Y-65278000D01*
D23*
X65290000Y-67310000D02*
X62191900Y-67310000D01*
X62191900Y-67310000D02*
X62151260Y-67269360D01*
X57886600Y-69867780D02*
X59552840Y-69867780D01*
X59552840Y-69867780D02*
X62151260Y-67269360D01*
X57886600Y-59669680D02*
X57886600Y-69867780D01*
X62151260Y-64770000D02*
X65290000Y-64770000D01*
X81522000Y-75438000D02*
X81522000Y-77204000D01*
X81522000Y-77204000D02*
X81534000Y-77216000D01*
D24*
X81534000Y-77216000D02*
X81534000Y-75450000D01*
X81534000Y-75450000D02*
X81522000Y-75438000D01*
X81776000Y-76974000D02*
X81534000Y-77216000D01*
X78900000Y-66675000D02*
X80657000Y-66675000D01*
X80657000Y-66675000D02*
X80784000Y-66802000D01*
D27*
G36*
X102925045Y-58583531D02*
X102449231Y-59384830D01*
X102368854Y-59682207D01*
X102478655Y-60053220D01*
X106324400Y-60053220D01*
X106324400Y-60033220D01*
X106578400Y-60033220D01*
X106578400Y-60053220D01*
X106598400Y-60053220D01*
X106598400Y-60307220D01*
X106578400Y-60307220D01*
X106578400Y-62565280D01*
X108328460Y-62565280D01*
X109231516Y-62335127D01*
X109526000Y-62114841D01*
X109526000Y-68443699D01*
X109231516Y-68223413D01*
X108328460Y-67993260D01*
X106578400Y-67993260D01*
X106578400Y-70251320D01*
X106598400Y-70251320D01*
X106598400Y-70505320D01*
X106578400Y-70505320D01*
X106578400Y-72763380D01*
X108328460Y-72763380D01*
X109231516Y-72533227D01*
X109526000Y-72312941D01*
X109526000Y-81586000D01*
X54558000Y-81586000D01*
X54558000Y-76999223D01*
X69197035Y-76999223D01*
X69224222Y-77569454D01*
X69390136Y-77970005D01*
X69636255Y-78044139D01*
X70464395Y-77216000D01*
X69636255Y-76387861D01*
X69390136Y-76461995D01*
X69197035Y-76999223D01*
X54558000Y-76999223D01*
X54558000Y-76208255D01*
X69815861Y-76208255D01*
X70644000Y-77036395D01*
X70658142Y-77022252D01*
X70837748Y-77201858D01*
X70823605Y-77216000D01*
X70837748Y-77230143D01*
X70658142Y-77409748D01*
X70644000Y-77395605D01*
X69815861Y-78223745D01*
X69889995Y-78469864D01*
X70427223Y-78662965D01*
X70997454Y-78635778D01*
X71388947Y-78473616D01*
X71592110Y-78612431D01*
X71844000Y-78663440D01*
X73444000Y-78663440D01*
X73679317Y-78619162D01*
X73895441Y-78480090D01*
X74040431Y-78267890D01*
X74091440Y-78016000D01*
X74091440Y-76416000D01*
X74053808Y-76216000D01*
X76076560Y-76216000D01*
X76076560Y-78216000D01*
X76120838Y-78451317D01*
X76259910Y-78667441D01*
X76472110Y-78812431D01*
X76724000Y-78863440D01*
X78724000Y-78863440D01*
X78959317Y-78819162D01*
X79175441Y-78680090D01*
X79320431Y-78467890D01*
X79371440Y-78216000D01*
X79371440Y-77539795D01*
X79898716Y-77539795D01*
X80147106Y-78140943D01*
X80606637Y-78601278D01*
X81207352Y-78850716D01*
X81857795Y-78851284D01*
X82458943Y-78602894D01*
X82919278Y-78143363D01*
X83168716Y-77542648D01*
X83168718Y-77539795D01*
X83708716Y-77539795D01*
X83957106Y-78140943D01*
X84416637Y-78601278D01*
X85017352Y-78850716D01*
X85667795Y-78851284D01*
X86268943Y-78602894D01*
X86729278Y-78143363D01*
X86978716Y-77542648D01*
X86978753Y-77500187D01*
X89020752Y-77500187D01*
X89238757Y-78027800D01*
X89642077Y-78431824D01*
X90169309Y-78650750D01*
X90740187Y-78651248D01*
X91202287Y-78460312D01*
X91296302Y-78554327D01*
X91529691Y-78651000D01*
X92170250Y-78651000D01*
X92329000Y-78492250D01*
X92329000Y-77343000D01*
X92583000Y-77343000D01*
X92583000Y-78492250D01*
X92741750Y-78651000D01*
X93382309Y-78651000D01*
X93615698Y-78554327D01*
X93794327Y-78375699D01*
X93891000Y-78142310D01*
X93891000Y-77501750D01*
X93732250Y-77343000D01*
X92583000Y-77343000D01*
X92329000Y-77343000D01*
X92309000Y-77343000D01*
X92309000Y-77089000D01*
X92329000Y-77089000D01*
X92329000Y-75939750D01*
X92583000Y-75939750D01*
X92583000Y-77089000D01*
X93732250Y-77089000D01*
X93891000Y-76930250D01*
X93891000Y-76289690D01*
X93794327Y-76056301D01*
X93615698Y-75877673D01*
X93382309Y-75781000D01*
X92741750Y-75781000D01*
X92583000Y-75939750D01*
X92329000Y-75939750D01*
X92170250Y-75781000D01*
X91529691Y-75781000D01*
X91296302Y-75877673D01*
X91202002Y-75971973D01*
X90742691Y-75781250D01*
X90171813Y-75780752D01*
X89644200Y-75998757D01*
X89240176Y-76402077D01*
X89021250Y-76929309D01*
X89020752Y-77500187D01*
X86978753Y-77500187D01*
X86979284Y-76892205D01*
X86730894Y-76291057D01*
X86271363Y-75830722D01*
X85670648Y-75581284D01*
X85020205Y-75580716D01*
X84419057Y-75829106D01*
X83958722Y-76288637D01*
X83709284Y-76889352D01*
X83708716Y-77539795D01*
X83168718Y-77539795D01*
X83169284Y-76892205D01*
X82920894Y-76291057D01*
X82757000Y-76126876D01*
X82757000Y-75438000D01*
X82662991Y-74965386D01*
X82395277Y-74564723D01*
X81994614Y-74297009D01*
X81522000Y-74203000D01*
X81049386Y-74297009D01*
X80707485Y-74525460D01*
X80631698Y-74449673D01*
X80398309Y-74353000D01*
X80305750Y-74353000D01*
X80147000Y-74511750D01*
X80147000Y-75311000D01*
X80169000Y-75311000D01*
X80169000Y-75565000D01*
X80147000Y-75565000D01*
X80147000Y-76292784D01*
X79899284Y-76889352D01*
X79898716Y-77539795D01*
X79371440Y-77539795D01*
X79371440Y-76385465D01*
X79412302Y-76426327D01*
X79645691Y-76523000D01*
X79738250Y-76523000D01*
X79897000Y-76364250D01*
X79897000Y-75565000D01*
X79295750Y-75565000D01*
X79137000Y-75723750D01*
X79137000Y-75729651D01*
X78975890Y-75619569D01*
X78724000Y-75568560D01*
X76724000Y-75568560D01*
X76488683Y-75612838D01*
X76272559Y-75751910D01*
X76127569Y-75964110D01*
X76076560Y-76216000D01*
X74053808Y-76216000D01*
X74047162Y-76180683D01*
X73908090Y-75964559D01*
X73695890Y-75819569D01*
X73444000Y-75768560D01*
X71844000Y-75768560D01*
X71608683Y-75812838D01*
X71392559Y-75951910D01*
X71388023Y-75958548D01*
X70860777Y-75769035D01*
X70290546Y-75796222D01*
X69889995Y-75962136D01*
X69815861Y-76208255D01*
X54558000Y-76208255D01*
X54558000Y-74861690D01*
X79137000Y-74861690D01*
X79137000Y-75152250D01*
X79295750Y-75311000D01*
X79897000Y-75311000D01*
X79897000Y-74511750D01*
X79738250Y-74353000D01*
X79645691Y-74353000D01*
X79412302Y-74449673D01*
X79233673Y-74628301D01*
X79137000Y-74861690D01*
X54558000Y-74861690D01*
X54558000Y-74653606D01*
X56186606Y-73025000D01*
X71628000Y-73025000D01*
X71677410Y-73014994D01*
X71717803Y-72987803D01*
X76035803Y-68669803D01*
X76063666Y-68627789D01*
X76073000Y-68580000D01*
X76073000Y-63835000D01*
X77477560Y-63835000D01*
X77477560Y-64435000D01*
X77521838Y-64670317D01*
X77580178Y-64760980D01*
X77490000Y-64978690D01*
X77490000Y-65119250D01*
X77648750Y-65278000D01*
X78773000Y-65278000D01*
X78773000Y-65258000D01*
X79027000Y-65258000D01*
X79027000Y-65278000D01*
X79047000Y-65278000D01*
X79047000Y-65532000D01*
X79027000Y-65532000D01*
X79027000Y-65552000D01*
X78773000Y-65552000D01*
X78773000Y-65532000D01*
X77648750Y-65532000D01*
X77490000Y-65690750D01*
X77490000Y-65831310D01*
X77579806Y-66048122D01*
X77528569Y-66123110D01*
X77477560Y-66375000D01*
X77477560Y-66975000D01*
X77521838Y-67210317D01*
X77585678Y-67309528D01*
X77528569Y-67393110D01*
X77477560Y-67645000D01*
X77477560Y-68245000D01*
X77521838Y-68480317D01*
X77660910Y-68696441D01*
X77873110Y-68841431D01*
X78125000Y-68892440D01*
X78525150Y-68892440D01*
X78921683Y-69288973D01*
X78628723Y-69484723D01*
X78361009Y-69885386D01*
X78267000Y-70358000D01*
X78361009Y-70830614D01*
X78628723Y-71231277D01*
X79029386Y-71498991D01*
X79502000Y-71593000D01*
X80784000Y-71593000D01*
X81256614Y-71498991D01*
X81569388Y-71290002D01*
X81757691Y-71368000D01*
X81998250Y-71368000D01*
X82157000Y-71209250D01*
X82157000Y-70485000D01*
X82411000Y-70485000D01*
X82411000Y-71209250D01*
X82569750Y-71368000D01*
X82810309Y-71368000D01*
X83043698Y-71271327D01*
X83222327Y-71092699D01*
X83311948Y-70876333D01*
X102368854Y-70876333D01*
X102449231Y-71173710D01*
X102925045Y-71975009D01*
X103671284Y-72533227D01*
X104574340Y-72763380D01*
X106324400Y-72763380D01*
X106324400Y-70505320D01*
X102478655Y-70505320D01*
X102368854Y-70876333D01*
X83311948Y-70876333D01*
X83319000Y-70859310D01*
X83319000Y-70643750D01*
X83160250Y-70485000D01*
X82411000Y-70485000D01*
X82157000Y-70485000D01*
X82137000Y-70485000D01*
X82137000Y-70231000D01*
X82157000Y-70231000D01*
X82157000Y-68961000D01*
X82137000Y-68961000D01*
X82137000Y-68707000D01*
X82157000Y-68707000D01*
X82157000Y-68687000D01*
X82411000Y-68687000D01*
X82411000Y-68707000D01*
X82431000Y-68707000D01*
X82431000Y-68961000D01*
X82411000Y-68961000D01*
X82411000Y-70231000D01*
X83160250Y-70231000D01*
X83267500Y-70123750D01*
X84588000Y-70123750D01*
X84588000Y-70364309D01*
X84684673Y-70597698D01*
X84863301Y-70776327D01*
X85096690Y-70873000D01*
X85312250Y-70873000D01*
X85471000Y-70714250D01*
X85471000Y-69965000D01*
X85725000Y-69965000D01*
X85725000Y-70714250D01*
X85883750Y-70873000D01*
X86099310Y-70873000D01*
X86332699Y-70776327D01*
X86511327Y-70597698D01*
X86608000Y-70364309D01*
X86608000Y-70123750D01*
X86449250Y-69965000D01*
X85725000Y-69965000D01*
X85471000Y-69965000D01*
X84746750Y-69965000D01*
X84588000Y-70123750D01*
X83267500Y-70123750D01*
X83319000Y-70072250D01*
X83319000Y-69856690D01*
X83222327Y-69623301D01*
X83195026Y-69596000D01*
X83222327Y-69568699D01*
X83319000Y-69335310D01*
X83319000Y-69199000D01*
X83534250Y-69199000D01*
X83693000Y-69040250D01*
X83693000Y-68439000D01*
X83673000Y-68439000D01*
X83673000Y-68189000D01*
X83693000Y-68189000D01*
X83693000Y-68167000D01*
X83947000Y-68167000D01*
X83947000Y-68189000D01*
X83967000Y-68189000D01*
X83967000Y-68439000D01*
X83947000Y-68439000D01*
X83947000Y-69040250D01*
X84105750Y-69199000D01*
X84396310Y-69199000D01*
X84629699Y-69102327D01*
X84674211Y-69057815D01*
X84686329Y-69076646D01*
X84684673Y-69078302D01*
X84588000Y-69311691D01*
X84588000Y-69552250D01*
X84746750Y-69711000D01*
X85471000Y-69711000D01*
X85471000Y-69691000D01*
X85725000Y-69691000D01*
X85725000Y-69711000D01*
X86449250Y-69711000D01*
X86608000Y-69552250D01*
X86608000Y-69311691D01*
X86511327Y-69078302D01*
X86509957Y-69076932D01*
X86569431Y-68989890D01*
X86620440Y-68738000D01*
X86620440Y-67938000D01*
X86613184Y-67899440D01*
X87106000Y-67899440D01*
X87317560Y-67859632D01*
X87317560Y-68245000D01*
X87361838Y-68480317D01*
X87500910Y-68696441D01*
X87713110Y-68841431D01*
X87965000Y-68892440D01*
X89515000Y-68892440D01*
X89750317Y-68848162D01*
X89966441Y-68709090D01*
X90111431Y-68496890D01*
X90162440Y-68245000D01*
X90162440Y-67645000D01*
X90151783Y-67588362D01*
X90400809Y-67538827D01*
X90704145Y-67336145D01*
X91859145Y-66181145D01*
X92061827Y-65877809D01*
X92133000Y-65520000D01*
X92133000Y-65515290D01*
X92683855Y-66066145D01*
X92768738Y-66122862D01*
X92768569Y-66123110D01*
X92717560Y-66375000D01*
X92717560Y-66975000D01*
X92761838Y-67210317D01*
X92825678Y-67309528D01*
X92768569Y-67393110D01*
X92717560Y-67645000D01*
X92717560Y-68245000D01*
X92761838Y-68480317D01*
X92900910Y-68696441D01*
X93113110Y-68841431D01*
X93365000Y-68892440D01*
X94789000Y-68892440D01*
X94789000Y-69535672D01*
X94777000Y-69596000D01*
X94871009Y-70068614D01*
X95138723Y-70469277D01*
X95539386Y-70736991D01*
X96012000Y-70831000D01*
X96484614Y-70736991D01*
X96885277Y-70469277D01*
X96897277Y-70457277D01*
X97164991Y-70056614D01*
X97200060Y-69880307D01*
X102368854Y-69880307D01*
X102478655Y-70251320D01*
X106324400Y-70251320D01*
X106324400Y-67993260D01*
X104574340Y-67993260D01*
X103671284Y-68223413D01*
X102925045Y-68781631D01*
X102449231Y-69582930D01*
X102368854Y-69880307D01*
X97200060Y-69880307D01*
X97259000Y-69584000D01*
X97259000Y-69315250D01*
X97397000Y-69177250D01*
X97397000Y-68453000D01*
X97651000Y-68453000D01*
X97651000Y-69177250D01*
X97809750Y-69336000D01*
X98050309Y-69336000D01*
X98283698Y-69239327D01*
X98462327Y-69060699D01*
X98559000Y-68827310D01*
X98559000Y-68611750D01*
X98400250Y-68453000D01*
X97651000Y-68453000D01*
X97397000Y-68453000D01*
X97377000Y-68453000D01*
X97377000Y-68199000D01*
X97397000Y-68199000D01*
X97397000Y-66929000D01*
X97651000Y-66929000D01*
X97651000Y-68199000D01*
X98400250Y-68199000D01*
X98559000Y-68040250D01*
X98559000Y-67825000D01*
X98774250Y-67825000D01*
X98933000Y-67666250D01*
X98933000Y-66917000D01*
X99187000Y-66917000D01*
X99187000Y-67666250D01*
X99345750Y-67825000D01*
X99561310Y-67825000D01*
X99794699Y-67728327D01*
X99973327Y-67549698D01*
X100070000Y-67316309D01*
X100070000Y-67075750D01*
X99911250Y-66917000D01*
X99187000Y-66917000D01*
X98933000Y-66917000D01*
X98208750Y-66917000D01*
X98196750Y-66929000D01*
X97651000Y-66929000D01*
X97397000Y-66929000D01*
X97377000Y-66929000D01*
X97377000Y-66675000D01*
X97397000Y-66675000D01*
X97397000Y-66655000D01*
X97651000Y-66655000D01*
X97651000Y-66675000D01*
X98400250Y-66675000D01*
X98412250Y-66663000D01*
X98933000Y-66663000D01*
X98933000Y-66643000D01*
X99187000Y-66643000D01*
X99187000Y-66663000D01*
X99911250Y-66663000D01*
X100070000Y-66504250D01*
X100070000Y-66263691D01*
X100053974Y-66225000D01*
X100640186Y-66225000D01*
X100685468Y-66292769D01*
X101151048Y-66603860D01*
X101700237Y-66713100D01*
X102673243Y-66713100D01*
X103222432Y-66603860D01*
X103688012Y-66292769D01*
X103999103Y-65827189D01*
X104108343Y-65278000D01*
X103999103Y-64728811D01*
X103688012Y-64263231D01*
X103336821Y-64028572D01*
X103740892Y-63703607D01*
X104010781Y-63210497D01*
X104028323Y-63127695D01*
X103906336Y-62905640D01*
X102313740Y-62905640D01*
X102313740Y-62925640D01*
X102059740Y-62925640D01*
X102059740Y-62905640D01*
X100467144Y-62905640D01*
X100345157Y-63127695D01*
X100362699Y-63210497D01*
X100632588Y-63703607D01*
X101036659Y-64028572D01*
X100685468Y-64263231D01*
X100624150Y-64355000D01*
X99776797Y-64355000D01*
X99686890Y-64293569D01*
X99435000Y-64242560D01*
X98685000Y-64242560D01*
X98449683Y-64286838D01*
X98343756Y-64355000D01*
X98206537Y-64355000D01*
X98025890Y-64231569D01*
X97774000Y-64180560D01*
X97274000Y-64180560D01*
X97038683Y-64224838D01*
X96822559Y-64363910D01*
X96774866Y-64433711D01*
X96738090Y-64376559D01*
X96525890Y-64231569D01*
X96274000Y-64180560D01*
X95774000Y-64180560D01*
X95562440Y-64220368D01*
X95562440Y-63835000D01*
X95518162Y-63599683D01*
X95379090Y-63383559D01*
X95166890Y-63238569D01*
X94915000Y-63187560D01*
X93642045Y-63187560D01*
X93694431Y-63110890D01*
X93745440Y-62859000D01*
X93745440Y-62429585D01*
X100345157Y-62429585D01*
X100467144Y-62651640D01*
X102059740Y-62651640D01*
X102059740Y-61343540D01*
X102313740Y-61343540D01*
X102313740Y-62651640D01*
X103906336Y-62651640D01*
X104028323Y-62429585D01*
X104027547Y-62425924D01*
X104574340Y-62565280D01*
X106324400Y-62565280D01*
X106324400Y-60307220D01*
X102478655Y-60307220D01*
X102368854Y-60678233D01*
X102449231Y-60975610D01*
X102667709Y-61343540D01*
X102313740Y-61343540D01*
X102059740Y-61343540D01*
X101610160Y-61343540D01*
X101070638Y-61501381D01*
X100632588Y-61853673D01*
X100362699Y-62346783D01*
X100345157Y-62429585D01*
X93745440Y-62429585D01*
X93745440Y-62109000D01*
X93701162Y-61873683D01*
X93562090Y-61657559D01*
X93349890Y-61512569D01*
X93305964Y-61503674D01*
X92101145Y-60298855D01*
X91797809Y-60096173D01*
X91440000Y-60025000D01*
X89806975Y-60025000D01*
X89643890Y-59913569D01*
X89392000Y-59862560D01*
X88892000Y-59862560D01*
X88656683Y-59906838D01*
X88440559Y-60045910D01*
X88392866Y-60115711D01*
X88356090Y-60058559D01*
X88143890Y-59913569D01*
X87892000Y-59862560D01*
X87392000Y-59862560D01*
X87156683Y-59906838D01*
X86973054Y-60025000D01*
X86360000Y-60025000D01*
X86002191Y-60096173D01*
X85698855Y-60298855D01*
X83158855Y-62838855D01*
X82956173Y-63142191D01*
X82885000Y-63500000D01*
X82885000Y-65823288D01*
X82785890Y-65755569D01*
X82534000Y-65704560D01*
X82034000Y-65704560D01*
X81798683Y-65748838D01*
X81582559Y-65887910D01*
X81534866Y-65957711D01*
X81520947Y-65936079D01*
X81685327Y-65771698D01*
X81782000Y-65538309D01*
X81782000Y-65297750D01*
X81623250Y-65139000D01*
X80899000Y-65139000D01*
X80899000Y-65159000D01*
X80645000Y-65159000D01*
X80645000Y-65139000D01*
X80625000Y-65139000D01*
X80625000Y-64885000D01*
X80645000Y-64885000D01*
X80645000Y-64865000D01*
X80899000Y-64865000D01*
X80899000Y-64885000D01*
X81623250Y-64885000D01*
X81782000Y-64726250D01*
X81782000Y-64485691D01*
X81685327Y-64252302D01*
X81683957Y-64250932D01*
X81743431Y-64163890D01*
X81794440Y-63912000D01*
X81794440Y-63453000D01*
X81981672Y-63453000D01*
X82042000Y-63465000D01*
X82514614Y-63370991D01*
X82915277Y-63103277D01*
X83182991Y-62702614D01*
X83277000Y-62230000D01*
X83182991Y-61757386D01*
X82915277Y-61356723D01*
X82903277Y-61344723D01*
X82502614Y-61077009D01*
X82030000Y-60983000D01*
X81761250Y-60983000D01*
X81623250Y-60845000D01*
X80899000Y-60845000D01*
X80899000Y-60865000D01*
X80645000Y-60865000D01*
X80645000Y-60845000D01*
X79920750Y-60845000D01*
X79762000Y-61003750D01*
X79762000Y-61244309D01*
X79839998Y-61432612D01*
X79631009Y-61745386D01*
X79547501Y-62165209D01*
X78525150Y-63187560D01*
X78125000Y-63187560D01*
X77889683Y-63231838D01*
X77673559Y-63370910D01*
X77528569Y-63583110D01*
X77477560Y-63835000D01*
X76073000Y-63835000D01*
X76073000Y-62790606D01*
X78671915Y-60191691D01*
X79762000Y-60191691D01*
X79762000Y-60432250D01*
X79920750Y-60591000D01*
X80645000Y-60591000D01*
X80645000Y-59841750D01*
X80899000Y-59841750D01*
X80899000Y-60591000D01*
X81623250Y-60591000D01*
X81782000Y-60432250D01*
X81782000Y-60191691D01*
X81685327Y-59958302D01*
X81506699Y-59779673D01*
X81273310Y-59683000D01*
X81057750Y-59683000D01*
X80899000Y-59841750D01*
X80645000Y-59841750D01*
X80486250Y-59683000D01*
X80270690Y-59683000D01*
X80037301Y-59779673D01*
X79858673Y-59958302D01*
X79762000Y-60191691D01*
X78671915Y-60191691D01*
X80749606Y-58114000D01*
X103552725Y-58114000D01*
X102925045Y-58583531D01*
X102925045Y-58583531D01*
G37*
X102925045Y-58583531D02*
X102449231Y-59384830D01*
X102368854Y-59682207D01*
X102478655Y-60053220D01*
X106324400Y-60053220D01*
X106324400Y-60033220D01*
X106578400Y-60033220D01*
X106578400Y-60053220D01*
X106598400Y-60053220D01*
X106598400Y-60307220D01*
X106578400Y-60307220D01*
X106578400Y-62565280D01*
X108328460Y-62565280D01*
X109231516Y-62335127D01*
X109526000Y-62114841D01*
X109526000Y-68443699D01*
X109231516Y-68223413D01*
X108328460Y-67993260D01*
X106578400Y-67993260D01*
X106578400Y-70251320D01*
X106598400Y-70251320D01*
X106598400Y-70505320D01*
X106578400Y-70505320D01*
X106578400Y-72763380D01*
X108328460Y-72763380D01*
X109231516Y-72533227D01*
X109526000Y-72312941D01*
X109526000Y-81586000D01*
X54558000Y-81586000D01*
X54558000Y-76999223D01*
X69197035Y-76999223D01*
X69224222Y-77569454D01*
X69390136Y-77970005D01*
X69636255Y-78044139D01*
X70464395Y-77216000D01*
X69636255Y-76387861D01*
X69390136Y-76461995D01*
X69197035Y-76999223D01*
X54558000Y-76999223D01*
X54558000Y-76208255D01*
X69815861Y-76208255D01*
X70644000Y-77036395D01*
X70658142Y-77022252D01*
X70837748Y-77201858D01*
X70823605Y-77216000D01*
X70837748Y-77230143D01*
X70658142Y-77409748D01*
X70644000Y-77395605D01*
X69815861Y-78223745D01*
X69889995Y-78469864D01*
X70427223Y-78662965D01*
X70997454Y-78635778D01*
X71388947Y-78473616D01*
X71592110Y-78612431D01*
X71844000Y-78663440D01*
X73444000Y-78663440D01*
X73679317Y-78619162D01*
X73895441Y-78480090D01*
X74040431Y-78267890D01*
X74091440Y-78016000D01*
X74091440Y-76416000D01*
X74053808Y-76216000D01*
X76076560Y-76216000D01*
X76076560Y-78216000D01*
X76120838Y-78451317D01*
X76259910Y-78667441D01*
X76472110Y-78812431D01*
X76724000Y-78863440D01*
X78724000Y-78863440D01*
X78959317Y-78819162D01*
X79175441Y-78680090D01*
X79320431Y-78467890D01*
X79371440Y-78216000D01*
X79371440Y-77539795D01*
X79898716Y-77539795D01*
X80147106Y-78140943D01*
X80606637Y-78601278D01*
X81207352Y-78850716D01*
X81857795Y-78851284D01*
X82458943Y-78602894D01*
X82919278Y-78143363D01*
X83168716Y-77542648D01*
X83168718Y-77539795D01*
X83708716Y-77539795D01*
X83957106Y-78140943D01*
X84416637Y-78601278D01*
X85017352Y-78850716D01*
X85667795Y-78851284D01*
X86268943Y-78602894D01*
X86729278Y-78143363D01*
X86978716Y-77542648D01*
X86978753Y-77500187D01*
X89020752Y-77500187D01*
X89238757Y-78027800D01*
X89642077Y-78431824D01*
X90169309Y-78650750D01*
X90740187Y-78651248D01*
X91202287Y-78460312D01*
X91296302Y-78554327D01*
X91529691Y-78651000D01*
X92170250Y-78651000D01*
X92329000Y-78492250D01*
X92329000Y-77343000D01*
X92583000Y-77343000D01*
X92583000Y-78492250D01*
X92741750Y-78651000D01*
X93382309Y-78651000D01*
X93615698Y-78554327D01*
X93794327Y-78375699D01*
X93891000Y-78142310D01*
X93891000Y-77501750D01*
X93732250Y-77343000D01*
X92583000Y-77343000D01*
X92329000Y-77343000D01*
X92309000Y-77343000D01*
X92309000Y-77089000D01*
X92329000Y-77089000D01*
X92329000Y-75939750D01*
X92583000Y-75939750D01*
X92583000Y-77089000D01*
X93732250Y-77089000D01*
X93891000Y-76930250D01*
X93891000Y-76289690D01*
X93794327Y-76056301D01*
X93615698Y-75877673D01*
X93382309Y-75781000D01*
X92741750Y-75781000D01*
X92583000Y-75939750D01*
X92329000Y-75939750D01*
X92170250Y-75781000D01*
X91529691Y-75781000D01*
X91296302Y-75877673D01*
X91202002Y-75971973D01*
X90742691Y-75781250D01*
X90171813Y-75780752D01*
X89644200Y-75998757D01*
X89240176Y-76402077D01*
X89021250Y-76929309D01*
X89020752Y-77500187D01*
X86978753Y-77500187D01*
X86979284Y-76892205D01*
X86730894Y-76291057D01*
X86271363Y-75830722D01*
X85670648Y-75581284D01*
X85020205Y-75580716D01*
X84419057Y-75829106D01*
X83958722Y-76288637D01*
X83709284Y-76889352D01*
X83708716Y-77539795D01*
X83168718Y-77539795D01*
X83169284Y-76892205D01*
X82920894Y-76291057D01*
X82757000Y-76126876D01*
X82757000Y-75438000D01*
X82662991Y-74965386D01*
X82395277Y-74564723D01*
X81994614Y-74297009D01*
X81522000Y-74203000D01*
X81049386Y-74297009D01*
X80707485Y-74525460D01*
X80631698Y-74449673D01*
X80398309Y-74353000D01*
X80305750Y-74353000D01*
X80147000Y-74511750D01*
X80147000Y-75311000D01*
X80169000Y-75311000D01*
X80169000Y-75565000D01*
X80147000Y-75565000D01*
X80147000Y-76292784D01*
X79899284Y-76889352D01*
X79898716Y-77539795D01*
X79371440Y-77539795D01*
X79371440Y-76385465D01*
X79412302Y-76426327D01*
X79645691Y-76523000D01*
X79738250Y-76523000D01*
X79897000Y-76364250D01*
X79897000Y-75565000D01*
X79295750Y-75565000D01*
X79137000Y-75723750D01*
X79137000Y-75729651D01*
X78975890Y-75619569D01*
X78724000Y-75568560D01*
X76724000Y-75568560D01*
X76488683Y-75612838D01*
X76272559Y-75751910D01*
X76127569Y-75964110D01*
X76076560Y-76216000D01*
X74053808Y-76216000D01*
X74047162Y-76180683D01*
X73908090Y-75964559D01*
X73695890Y-75819569D01*
X73444000Y-75768560D01*
X71844000Y-75768560D01*
X71608683Y-75812838D01*
X71392559Y-75951910D01*
X71388023Y-75958548D01*
X70860777Y-75769035D01*
X70290546Y-75796222D01*
X69889995Y-75962136D01*
X69815861Y-76208255D01*
X54558000Y-76208255D01*
X54558000Y-74861690D01*
X79137000Y-74861690D01*
X79137000Y-75152250D01*
X79295750Y-75311000D01*
X79897000Y-75311000D01*
X79897000Y-74511750D01*
X79738250Y-74353000D01*
X79645691Y-74353000D01*
X79412302Y-74449673D01*
X79233673Y-74628301D01*
X79137000Y-74861690D01*
X54558000Y-74861690D01*
X54558000Y-74653606D01*
X56186606Y-73025000D01*
X71628000Y-73025000D01*
X71677410Y-73014994D01*
X71717803Y-72987803D01*
X76035803Y-68669803D01*
X76063666Y-68627789D01*
X76073000Y-68580000D01*
X76073000Y-63835000D01*
X77477560Y-63835000D01*
X77477560Y-64435000D01*
X77521838Y-64670317D01*
X77580178Y-64760980D01*
X77490000Y-64978690D01*
X77490000Y-65119250D01*
X77648750Y-65278000D01*
X78773000Y-65278000D01*
X78773000Y-65258000D01*
X79027000Y-65258000D01*
X79027000Y-65278000D01*
X79047000Y-65278000D01*
X79047000Y-65532000D01*
X79027000Y-65532000D01*
X79027000Y-65552000D01*
X78773000Y-65552000D01*
X78773000Y-65532000D01*
X77648750Y-65532000D01*
X77490000Y-65690750D01*
X77490000Y-65831310D01*
X77579806Y-66048122D01*
X77528569Y-66123110D01*
X77477560Y-66375000D01*
X77477560Y-66975000D01*
X77521838Y-67210317D01*
X77585678Y-67309528D01*
X77528569Y-67393110D01*
X77477560Y-67645000D01*
X77477560Y-68245000D01*
X77521838Y-68480317D01*
X77660910Y-68696441D01*
X77873110Y-68841431D01*
X78125000Y-68892440D01*
X78525150Y-68892440D01*
X78921683Y-69288973D01*
X78628723Y-69484723D01*
X78361009Y-69885386D01*
X78267000Y-70358000D01*
X78361009Y-70830614D01*
X78628723Y-71231277D01*
X79029386Y-71498991D01*
X79502000Y-71593000D01*
X80784000Y-71593000D01*
X81256614Y-71498991D01*
X81569388Y-71290002D01*
X81757691Y-71368000D01*
X81998250Y-71368000D01*
X82157000Y-71209250D01*
X82157000Y-70485000D01*
X82411000Y-70485000D01*
X82411000Y-71209250D01*
X82569750Y-71368000D01*
X82810309Y-71368000D01*
X83043698Y-71271327D01*
X83222327Y-71092699D01*
X83311948Y-70876333D01*
X102368854Y-70876333D01*
X102449231Y-71173710D01*
X102925045Y-71975009D01*
X103671284Y-72533227D01*
X104574340Y-72763380D01*
X106324400Y-72763380D01*
X106324400Y-70505320D01*
X102478655Y-70505320D01*
X102368854Y-70876333D01*
X83311948Y-70876333D01*
X83319000Y-70859310D01*
X83319000Y-70643750D01*
X83160250Y-70485000D01*
X82411000Y-70485000D01*
X82157000Y-70485000D01*
X82137000Y-70485000D01*
X82137000Y-70231000D01*
X82157000Y-70231000D01*
X82157000Y-68961000D01*
X82137000Y-68961000D01*
X82137000Y-68707000D01*
X82157000Y-68707000D01*
X82157000Y-68687000D01*
X82411000Y-68687000D01*
X82411000Y-68707000D01*
X82431000Y-68707000D01*
X82431000Y-68961000D01*
X82411000Y-68961000D01*
X82411000Y-70231000D01*
X83160250Y-70231000D01*
X83267500Y-70123750D01*
X84588000Y-70123750D01*
X84588000Y-70364309D01*
X84684673Y-70597698D01*
X84863301Y-70776327D01*
X85096690Y-70873000D01*
X85312250Y-70873000D01*
X85471000Y-70714250D01*
X85471000Y-69965000D01*
X85725000Y-69965000D01*
X85725000Y-70714250D01*
X85883750Y-70873000D01*
X86099310Y-70873000D01*
X86332699Y-70776327D01*
X86511327Y-70597698D01*
X86608000Y-70364309D01*
X86608000Y-70123750D01*
X86449250Y-69965000D01*
X85725000Y-69965000D01*
X85471000Y-69965000D01*
X84746750Y-69965000D01*
X84588000Y-70123750D01*
X83267500Y-70123750D01*
X83319000Y-70072250D01*
X83319000Y-69856690D01*
X83222327Y-69623301D01*
X83195026Y-69596000D01*
X83222327Y-69568699D01*
X83319000Y-69335310D01*
X83319000Y-69199000D01*
X83534250Y-69199000D01*
X83693000Y-69040250D01*
X83693000Y-68439000D01*
X83673000Y-68439000D01*
X83673000Y-68189000D01*
X83693000Y-68189000D01*
X83693000Y-68167000D01*
X83947000Y-68167000D01*
X83947000Y-68189000D01*
X83967000Y-68189000D01*
X83967000Y-68439000D01*
X83947000Y-68439000D01*
X83947000Y-69040250D01*
X84105750Y-69199000D01*
X84396310Y-69199000D01*
X84629699Y-69102327D01*
X84674211Y-69057815D01*
X84686329Y-69076646D01*
X84684673Y-69078302D01*
X84588000Y-69311691D01*
X84588000Y-69552250D01*
X84746750Y-69711000D01*
X85471000Y-69711000D01*
X85471000Y-69691000D01*
X85725000Y-69691000D01*
X85725000Y-69711000D01*
X86449250Y-69711000D01*
X86608000Y-69552250D01*
X86608000Y-69311691D01*
X86511327Y-69078302D01*
X86509957Y-69076932D01*
X86569431Y-68989890D01*
X86620440Y-68738000D01*
X86620440Y-67938000D01*
X86613184Y-67899440D01*
X87106000Y-67899440D01*
X87317560Y-67859632D01*
X87317560Y-68245000D01*
X87361838Y-68480317D01*
X87500910Y-68696441D01*
X87713110Y-68841431D01*
X87965000Y-68892440D01*
X89515000Y-68892440D01*
X89750317Y-68848162D01*
X89966441Y-68709090D01*
X90111431Y-68496890D01*
X90162440Y-68245000D01*
X90162440Y-67645000D01*
X90151783Y-67588362D01*
X90400809Y-67538827D01*
X90704145Y-67336145D01*
X91859145Y-66181145D01*
X92061827Y-65877809D01*
X92133000Y-65520000D01*
X92133000Y-65515290D01*
X92683855Y-66066145D01*
X92768738Y-66122862D01*
X92768569Y-66123110D01*
X92717560Y-66375000D01*
X92717560Y-66975000D01*
X92761838Y-67210317D01*
X92825678Y-67309528D01*
X92768569Y-67393110D01*
X92717560Y-67645000D01*
X92717560Y-68245000D01*
X92761838Y-68480317D01*
X92900910Y-68696441D01*
X93113110Y-68841431D01*
X93365000Y-68892440D01*
X94789000Y-68892440D01*
X94789000Y-69535672D01*
X94777000Y-69596000D01*
X94871009Y-70068614D01*
X95138723Y-70469277D01*
X95539386Y-70736991D01*
X96012000Y-70831000D01*
X96484614Y-70736991D01*
X96885277Y-70469277D01*
X96897277Y-70457277D01*
X97164991Y-70056614D01*
X97200060Y-69880307D01*
X102368854Y-69880307D01*
X102478655Y-70251320D01*
X106324400Y-70251320D01*
X106324400Y-67993260D01*
X104574340Y-67993260D01*
X103671284Y-68223413D01*
X102925045Y-68781631D01*
X102449231Y-69582930D01*
X102368854Y-69880307D01*
X97200060Y-69880307D01*
X97259000Y-69584000D01*
X97259000Y-69315250D01*
X97397000Y-69177250D01*
X97397000Y-68453000D01*
X97651000Y-68453000D01*
X97651000Y-69177250D01*
X97809750Y-69336000D01*
X98050309Y-69336000D01*
X98283698Y-69239327D01*
X98462327Y-69060699D01*
X98559000Y-68827310D01*
X98559000Y-68611750D01*
X98400250Y-68453000D01*
X97651000Y-68453000D01*
X97397000Y-68453000D01*
X97377000Y-68453000D01*
X97377000Y-68199000D01*
X97397000Y-68199000D01*
X97397000Y-66929000D01*
X97651000Y-66929000D01*
X97651000Y-68199000D01*
X98400250Y-68199000D01*
X98559000Y-68040250D01*
X98559000Y-67825000D01*
X98774250Y-67825000D01*
X98933000Y-67666250D01*
X98933000Y-66917000D01*
X99187000Y-66917000D01*
X99187000Y-67666250D01*
X99345750Y-67825000D01*
X99561310Y-67825000D01*
X99794699Y-67728327D01*
X99973327Y-67549698D01*
X100070000Y-67316309D01*
X100070000Y-67075750D01*
X99911250Y-66917000D01*
X99187000Y-66917000D01*
X98933000Y-66917000D01*
X98208750Y-66917000D01*
X98196750Y-66929000D01*
X97651000Y-66929000D01*
X97397000Y-66929000D01*
X97377000Y-66929000D01*
X97377000Y-66675000D01*
X97397000Y-66675000D01*
X97397000Y-66655000D01*
X97651000Y-66655000D01*
X97651000Y-66675000D01*
X98400250Y-66675000D01*
X98412250Y-66663000D01*
X98933000Y-66663000D01*
X98933000Y-66643000D01*
X99187000Y-66643000D01*
X99187000Y-66663000D01*
X99911250Y-66663000D01*
X100070000Y-66504250D01*
X100070000Y-66263691D01*
X100053974Y-66225000D01*
X100640186Y-66225000D01*
X100685468Y-66292769D01*
X101151048Y-66603860D01*
X101700237Y-66713100D01*
X102673243Y-66713100D01*
X103222432Y-66603860D01*
X103688012Y-66292769D01*
X103999103Y-65827189D01*
X104108343Y-65278000D01*
X103999103Y-64728811D01*
X103688012Y-64263231D01*
X103336821Y-64028572D01*
X103740892Y-63703607D01*
X104010781Y-63210497D01*
X104028323Y-63127695D01*
X103906336Y-62905640D01*
X102313740Y-62905640D01*
X102313740Y-62925640D01*
X102059740Y-62925640D01*
X102059740Y-62905640D01*
X100467144Y-62905640D01*
X100345157Y-63127695D01*
X100362699Y-63210497D01*
X100632588Y-63703607D01*
X101036659Y-64028572D01*
X100685468Y-64263231D01*
X100624150Y-64355000D01*
X99776797Y-64355000D01*
X99686890Y-64293569D01*
X99435000Y-64242560D01*
X98685000Y-64242560D01*
X98449683Y-64286838D01*
X98343756Y-64355000D01*
X98206537Y-64355000D01*
X98025890Y-64231569D01*
X97774000Y-64180560D01*
X97274000Y-64180560D01*
X97038683Y-64224838D01*
X96822559Y-64363910D01*
X96774866Y-64433711D01*
X96738090Y-64376559D01*
X96525890Y-64231569D01*
X96274000Y-64180560D01*
X95774000Y-64180560D01*
X95562440Y-64220368D01*
X95562440Y-63835000D01*
X95518162Y-63599683D01*
X95379090Y-63383559D01*
X95166890Y-63238569D01*
X94915000Y-63187560D01*
X93642045Y-63187560D01*
X93694431Y-63110890D01*
X93745440Y-62859000D01*
X93745440Y-62429585D01*
X100345157Y-62429585D01*
X100467144Y-62651640D01*
X102059740Y-62651640D01*
X102059740Y-61343540D01*
X102313740Y-61343540D01*
X102313740Y-62651640D01*
X103906336Y-62651640D01*
X104028323Y-62429585D01*
X104027547Y-62425924D01*
X104574340Y-62565280D01*
X106324400Y-62565280D01*
X106324400Y-60307220D01*
X102478655Y-60307220D01*
X102368854Y-60678233D01*
X102449231Y-60975610D01*
X102667709Y-61343540D01*
X102313740Y-61343540D01*
X102059740Y-61343540D01*
X101610160Y-61343540D01*
X101070638Y-61501381D01*
X100632588Y-61853673D01*
X100362699Y-62346783D01*
X100345157Y-62429585D01*
X93745440Y-62429585D01*
X93745440Y-62109000D01*
X93701162Y-61873683D01*
X93562090Y-61657559D01*
X93349890Y-61512569D01*
X93305964Y-61503674D01*
X92101145Y-60298855D01*
X91797809Y-60096173D01*
X91440000Y-60025000D01*
X89806975Y-60025000D01*
X89643890Y-59913569D01*
X89392000Y-59862560D01*
X88892000Y-59862560D01*
X88656683Y-59906838D01*
X88440559Y-60045910D01*
X88392866Y-60115711D01*
X88356090Y-60058559D01*
X88143890Y-59913569D01*
X87892000Y-59862560D01*
X87392000Y-59862560D01*
X87156683Y-59906838D01*
X86973054Y-60025000D01*
X86360000Y-60025000D01*
X86002191Y-60096173D01*
X85698855Y-60298855D01*
X83158855Y-62838855D01*
X82956173Y-63142191D01*
X82885000Y-63500000D01*
X82885000Y-65823288D01*
X82785890Y-65755569D01*
X82534000Y-65704560D01*
X82034000Y-65704560D01*
X81798683Y-65748838D01*
X81582559Y-65887910D01*
X81534866Y-65957711D01*
X81520947Y-65936079D01*
X81685327Y-65771698D01*
X81782000Y-65538309D01*
X81782000Y-65297750D01*
X81623250Y-65139000D01*
X80899000Y-65139000D01*
X80899000Y-65159000D01*
X80645000Y-65159000D01*
X80645000Y-65139000D01*
X80625000Y-65139000D01*
X80625000Y-64885000D01*
X80645000Y-64885000D01*
X80645000Y-64865000D01*
X80899000Y-64865000D01*
X80899000Y-64885000D01*
X81623250Y-64885000D01*
X81782000Y-64726250D01*
X81782000Y-64485691D01*
X81685327Y-64252302D01*
X81683957Y-64250932D01*
X81743431Y-64163890D01*
X81794440Y-63912000D01*
X81794440Y-63453000D01*
X81981672Y-63453000D01*
X82042000Y-63465000D01*
X82514614Y-63370991D01*
X82915277Y-63103277D01*
X83182991Y-62702614D01*
X83277000Y-62230000D01*
X83182991Y-61757386D01*
X82915277Y-61356723D01*
X82903277Y-61344723D01*
X82502614Y-61077009D01*
X82030000Y-60983000D01*
X81761250Y-60983000D01*
X81623250Y-60845000D01*
X80899000Y-60845000D01*
X80899000Y-60865000D01*
X80645000Y-60865000D01*
X80645000Y-60845000D01*
X79920750Y-60845000D01*
X79762000Y-61003750D01*
X79762000Y-61244309D01*
X79839998Y-61432612D01*
X79631009Y-61745386D01*
X79547501Y-62165209D01*
X78525150Y-63187560D01*
X78125000Y-63187560D01*
X77889683Y-63231838D01*
X77673559Y-63370910D01*
X77528569Y-63583110D01*
X77477560Y-63835000D01*
X76073000Y-63835000D01*
X76073000Y-62790606D01*
X78671915Y-60191691D01*
X79762000Y-60191691D01*
X79762000Y-60432250D01*
X79920750Y-60591000D01*
X80645000Y-60591000D01*
X80645000Y-59841750D01*
X80899000Y-59841750D01*
X80899000Y-60591000D01*
X81623250Y-60591000D01*
X81782000Y-60432250D01*
X81782000Y-60191691D01*
X81685327Y-59958302D01*
X81506699Y-59779673D01*
X81273310Y-59683000D01*
X81057750Y-59683000D01*
X80899000Y-59841750D01*
X80645000Y-59841750D01*
X80486250Y-59683000D01*
X80270690Y-59683000D01*
X80037301Y-59779673D01*
X79858673Y-59958302D01*
X79762000Y-60191691D01*
X78671915Y-60191691D01*
X80749606Y-58114000D01*
X103552725Y-58114000D01*
X102925045Y-58583531D01*
G36*
X88867000Y-65278000D02*
X88887000Y-65278000D01*
X88887000Y-65532000D01*
X88867000Y-65532000D01*
X88867000Y-65552000D01*
X88613000Y-65552000D01*
X88613000Y-65532000D01*
X88593000Y-65532000D01*
X88593000Y-65278000D01*
X88613000Y-65278000D01*
X88613000Y-65258000D01*
X88867000Y-65258000D01*
X88867000Y-65278000D01*
X88867000Y-65278000D01*
G37*
X88867000Y-65278000D02*
X88887000Y-65278000D01*
X88887000Y-65532000D01*
X88867000Y-65532000D01*
X88867000Y-65552000D01*
X88613000Y-65552000D01*
X88613000Y-65532000D01*
X88593000Y-65532000D01*
X88593000Y-65278000D01*
X88613000Y-65278000D01*
X88613000Y-65258000D01*
X88867000Y-65258000D01*
X88867000Y-65278000D01*
G36*
X85471000Y-65139000D02*
X86741000Y-65139000D01*
X86741000Y-65119000D01*
X86995000Y-65119000D01*
X86995000Y-65139000D01*
X87015000Y-65139000D01*
X87015000Y-65393000D01*
X86995000Y-65393000D01*
X86995000Y-65413000D01*
X86741000Y-65413000D01*
X86741000Y-65393000D01*
X85471000Y-65393000D01*
X85471000Y-65413000D01*
X85217000Y-65413000D01*
X85217000Y-65393000D01*
X85197000Y-65393000D01*
X85197000Y-65139000D01*
X85217000Y-65139000D01*
X85217000Y-65119000D01*
X85471000Y-65119000D01*
X85471000Y-65139000D01*
X85471000Y-65139000D01*
G37*
X85471000Y-65139000D02*
X86741000Y-65139000D01*
X86741000Y-65119000D01*
X86995000Y-65119000D01*
X86995000Y-65139000D01*
X87015000Y-65139000D01*
X87015000Y-65393000D01*
X86995000Y-65393000D01*
X86995000Y-65413000D01*
X86741000Y-65413000D01*
X86741000Y-65393000D01*
X85471000Y-65393000D01*
X85471000Y-65413000D01*
X85217000Y-65413000D01*
X85217000Y-65393000D01*
X85197000Y-65393000D01*
X85197000Y-65139000D01*
X85217000Y-65139000D01*
X85217000Y-65119000D01*
X85471000Y-65119000D01*
X85471000Y-65139000D01*
G36*
X88427910Y-61861441D02*
X88640110Y-62006431D01*
X88892000Y-62057440D01*
X89392000Y-62057440D01*
X89627317Y-62013162D01*
X89810946Y-61895000D01*
X90193896Y-61895000D01*
X90150560Y-62109000D01*
X90150560Y-62859000D01*
X90194838Y-63094317D01*
X90263000Y-63200244D01*
X90263000Y-65132710D01*
X90117712Y-65277998D01*
X89991252Y-65277998D01*
X90150000Y-65119250D01*
X90150000Y-64978690D01*
X90060194Y-64761878D01*
X90111431Y-64686890D01*
X90162440Y-64435000D01*
X90162440Y-63835000D01*
X90118162Y-63599683D01*
X89979090Y-63383559D01*
X89766890Y-63238569D01*
X89515000Y-63187560D01*
X87965000Y-63187560D01*
X87898887Y-63200000D01*
X87859205Y-63200000D01*
X87846162Y-63130683D01*
X87707090Y-62914559D01*
X87631934Y-62863207D01*
X87643810Y-62845433D01*
X87737819Y-62372819D01*
X87675086Y-62057440D01*
X87892000Y-62057440D01*
X88127317Y-62013162D01*
X88343441Y-61874090D01*
X88391134Y-61804289D01*
X88427910Y-61861441D01*
X88427910Y-61861441D01*
G37*
X88427910Y-61861441D02*
X88640110Y-62006431D01*
X88892000Y-62057440D01*
X89392000Y-62057440D01*
X89627317Y-62013162D01*
X89810946Y-61895000D01*
X90193896Y-61895000D01*
X90150560Y-62109000D01*
X90150560Y-62859000D01*
X90194838Y-63094317D01*
X90263000Y-63200244D01*
X90263000Y-65132710D01*
X90117712Y-65277998D01*
X89991252Y-65277998D01*
X90150000Y-65119250D01*
X90150000Y-64978690D01*
X90060194Y-64761878D01*
X90111431Y-64686890D01*
X90162440Y-64435000D01*
X90162440Y-63835000D01*
X90118162Y-63599683D01*
X89979090Y-63383559D01*
X89766890Y-63238569D01*
X89515000Y-63187560D01*
X87965000Y-63187560D01*
X87898887Y-63200000D01*
X87859205Y-63200000D01*
X87846162Y-63130683D01*
X87707090Y-62914559D01*
X87631934Y-62863207D01*
X87643810Y-62845433D01*
X87737819Y-62372819D01*
X87675086Y-62057440D01*
X87892000Y-62057440D01*
X88127317Y-62013162D01*
X88343441Y-61874090D01*
X88391134Y-61804289D01*
X88427910Y-61861441D01*
M02*
