M48
;DRILL file {KiCad 4.0.7} date Thu May  3 16:22:56 2018
;FORMAT={-:-/ absolute / inch / decimal}
FMAT,2
INCH,TZ
T1C0.016
T2C0.031
T3C0.039
T4C0.047
T5C0.087
%
G90
G05
M72
T1
X3.13Y-2.77
X3.23Y-2.45
X3.23Y-2.54
X3.4056Y-2.4556
X3.5444Y-2.5644
X3.78Y-2.74
T2
X2.7813Y-3.04
X2.86Y-3.04
X3.5613Y-3.04
X3.64Y-3.04
T3
X2.4469Y-2.55
X2.4469Y-2.6484
X4.0231Y-2.4716
X4.0231Y-2.57
T4
X3.06Y-3.04
X3.21Y-3.04
X3.36Y-3.04
T5
X2.279Y-2.3492
X2.279Y-2.7507
X4.191Y-2.3693
X4.191Y-2.7708
T0
M30
