G04 #@! TF.FileFunction,Soldermask,Bot*
%FSLAX46Y46*%
G04 Gerber Fmt 4.6, Leading zero omitted, Abs format (unit mm)*
G04 Created by KiCad (PCBNEW 4.0.7) date Thu May  3 16:22:41 2018*
%MOMM*%
%LPD*%
G01*
G04 APERTURE LIST*
%ADD10C,0.100000*%
%ADD11R,1.150000X1.200000*%
%ADD12R,1.200000X1.150000*%
%ADD13R,2.000000X2.000000*%
%ADD14C,2.000000*%
%ADD15O,7.400240X3.900120*%
%ADD16O,2.899360X2.000200*%
%ADD17C,2.400000*%
%ADD18R,2.400000X2.400000*%
%ADD19R,0.900000X1.300000*%
%ADD20R,1.300000X0.900000*%
%ADD21R,1.950000X1.000000*%
G04 APERTURE END LIST*
D10*
D11*
X80772000Y-63512000D03*
X80772000Y-65012000D03*
X71120000Y-66790000D03*
X71120000Y-65290000D03*
X80772000Y-62218000D03*
X80772000Y-60718000D03*
D12*
X80784000Y-68834000D03*
X82284000Y-68834000D03*
X96024000Y-68326000D03*
X97524000Y-68326000D03*
D11*
X86868000Y-63766000D03*
X86868000Y-65266000D03*
D13*
X92456000Y-77216000D03*
D14*
X90456000Y-77216000D03*
D11*
X85344000Y-63766000D03*
X85344000Y-65266000D03*
D12*
X96024000Y-66802000D03*
X97524000Y-66802000D03*
D13*
X72644000Y-77216000D03*
D14*
X70644000Y-77216000D03*
D12*
X80784000Y-70358000D03*
X82284000Y-70358000D03*
D11*
X85598000Y-68338000D03*
X85598000Y-69838000D03*
D12*
X92698000Y-62484000D03*
X91198000Y-62484000D03*
D11*
X99060000Y-65290000D03*
X99060000Y-66790000D03*
D15*
X57886600Y-69867780D03*
X57886600Y-59669680D03*
D16*
X62151260Y-64770000D03*
X62151260Y-67269360D03*
D17*
X85344000Y-77216000D03*
D18*
X77724000Y-77216000D03*
D17*
X81534000Y-77216000D03*
D15*
X106451400Y-60180220D03*
X106451400Y-70378320D03*
D16*
X102186740Y-65278000D03*
X102186740Y-62778640D03*
D19*
X66790000Y-67310000D03*
X65290000Y-67310000D03*
X66790000Y-64770000D03*
X65290000Y-64770000D03*
X81522000Y-75438000D03*
X80022000Y-75438000D03*
D20*
X68580000Y-65290000D03*
X68580000Y-66790000D03*
D19*
X82284000Y-66802000D03*
X80784000Y-66802000D03*
X89142000Y-60960000D03*
X87642000Y-60960000D03*
X86856000Y-66802000D03*
X85356000Y-66802000D03*
X97524000Y-65278000D03*
X96024000Y-65278000D03*
D21*
X73500000Y-67945000D03*
X73500000Y-66675000D03*
X73500000Y-65405000D03*
X73500000Y-64135000D03*
X78900000Y-64135000D03*
X78900000Y-65405000D03*
X78900000Y-66675000D03*
X78900000Y-67945000D03*
X88740000Y-67945000D03*
X88740000Y-66675000D03*
X88740000Y-65405000D03*
X88740000Y-64135000D03*
X94140000Y-64135000D03*
X94140000Y-65405000D03*
X94140000Y-66675000D03*
X94140000Y-67945000D03*
D20*
X83820000Y-68314000D03*
X83820000Y-66814000D03*
M02*
