G04 #@! TF.FileFunction,Legend,Top*
%FSLAX46Y46*%
G04 Gerber Fmt 4.6, Leading zero omitted, Abs format (unit mm)*
G04 Created by KiCad (PCBNEW 4.0.7) date Thu May  3 16:22:41 2018*
%MOMM*%
%LPD*%
G01*
G04 APERTURE LIST*
%ADD10C,0.100000*%
%ADD11C,0.120000*%
%ADD12C,0.150000*%
G04 APERTURE END LIST*
D10*
D11*
X89059137Y-78197400D02*
G75*
G03X93853436Y-78196000I2396863J981400D01*
G01*
X89059137Y-76234600D02*
G75*
G02X93853436Y-76236000I2396863J-981400D01*
G01*
X89059137Y-76234600D02*
G75*
G03X89058564Y-78196000I2396863J-981400D01*
G01*
X91456000Y-79766000D02*
X91456000Y-74666000D01*
X91416000Y-79766000D02*
X91416000Y-78196000D01*
X91416000Y-76236000D02*
X91416000Y-74666000D01*
X91376000Y-79765000D02*
X91376000Y-78196000D01*
X91376000Y-76236000D02*
X91376000Y-74667000D01*
X91336000Y-79764000D02*
X91336000Y-78196000D01*
X91336000Y-76236000D02*
X91336000Y-74668000D01*
X91296000Y-79762000D02*
X91296000Y-78196000D01*
X91296000Y-76236000D02*
X91296000Y-74670000D01*
X91256000Y-79759000D02*
X91256000Y-78196000D01*
X91256000Y-76236000D02*
X91256000Y-74673000D01*
X91216000Y-79755000D02*
X91216000Y-78196000D01*
X91216000Y-76236000D02*
X91216000Y-74677000D01*
X91176000Y-79751000D02*
X91176000Y-78196000D01*
X91176000Y-76236000D02*
X91176000Y-74681000D01*
X91136000Y-79747000D02*
X91136000Y-78196000D01*
X91136000Y-76236000D02*
X91136000Y-74685000D01*
X91096000Y-79741000D02*
X91096000Y-78196000D01*
X91096000Y-76236000D02*
X91096000Y-74691000D01*
X91056000Y-79735000D02*
X91056000Y-78196000D01*
X91056000Y-76236000D02*
X91056000Y-74697000D01*
X91016000Y-79729000D02*
X91016000Y-78196000D01*
X91016000Y-76236000D02*
X91016000Y-74703000D01*
X90976000Y-79722000D02*
X90976000Y-78196000D01*
X90976000Y-76236000D02*
X90976000Y-74710000D01*
X90936000Y-79714000D02*
X90936000Y-78196000D01*
X90936000Y-76236000D02*
X90936000Y-74718000D01*
X90896000Y-79705000D02*
X90896000Y-78196000D01*
X90896000Y-76236000D02*
X90896000Y-74727000D01*
X90856000Y-79696000D02*
X90856000Y-78196000D01*
X90856000Y-76236000D02*
X90856000Y-74736000D01*
X90816000Y-79686000D02*
X90816000Y-78196000D01*
X90816000Y-76236000D02*
X90816000Y-74746000D01*
X90776000Y-79676000D02*
X90776000Y-78196000D01*
X90776000Y-76236000D02*
X90776000Y-74756000D01*
X90735000Y-79664000D02*
X90735000Y-78196000D01*
X90735000Y-76236000D02*
X90735000Y-74768000D01*
X90695000Y-79652000D02*
X90695000Y-78196000D01*
X90695000Y-76236000D02*
X90695000Y-74780000D01*
X90655000Y-79640000D02*
X90655000Y-78196000D01*
X90655000Y-76236000D02*
X90655000Y-74792000D01*
X90615000Y-79626000D02*
X90615000Y-78196000D01*
X90615000Y-76236000D02*
X90615000Y-74806000D01*
X90575000Y-79612000D02*
X90575000Y-78196000D01*
X90575000Y-76236000D02*
X90575000Y-74820000D01*
X90535000Y-79598000D02*
X90535000Y-78196000D01*
X90535000Y-76236000D02*
X90535000Y-74834000D01*
X90495000Y-79582000D02*
X90495000Y-78196000D01*
X90495000Y-76236000D02*
X90495000Y-74850000D01*
X90455000Y-79566000D02*
X90455000Y-78196000D01*
X90455000Y-76236000D02*
X90455000Y-74866000D01*
X90415000Y-79549000D02*
X90415000Y-78196000D01*
X90415000Y-76236000D02*
X90415000Y-74883000D01*
X90375000Y-79531000D02*
X90375000Y-78196000D01*
X90375000Y-76236000D02*
X90375000Y-74901000D01*
X90335000Y-79512000D02*
X90335000Y-78196000D01*
X90335000Y-76236000D02*
X90335000Y-74920000D01*
X90295000Y-79492000D02*
X90295000Y-78196000D01*
X90295000Y-76236000D02*
X90295000Y-74940000D01*
X90255000Y-79472000D02*
X90255000Y-78196000D01*
X90255000Y-76236000D02*
X90255000Y-74960000D01*
X90215000Y-79450000D02*
X90215000Y-78196000D01*
X90215000Y-76236000D02*
X90215000Y-74982000D01*
X90175000Y-79428000D02*
X90175000Y-78196000D01*
X90175000Y-76236000D02*
X90175000Y-75004000D01*
X90135000Y-79405000D02*
X90135000Y-78196000D01*
X90135000Y-76236000D02*
X90135000Y-75027000D01*
X90095000Y-79381000D02*
X90095000Y-78196000D01*
X90095000Y-76236000D02*
X90095000Y-75051000D01*
X90055000Y-79356000D02*
X90055000Y-78196000D01*
X90055000Y-76236000D02*
X90055000Y-75076000D01*
X90015000Y-79329000D02*
X90015000Y-78196000D01*
X90015000Y-76236000D02*
X90015000Y-75103000D01*
X89975000Y-79302000D02*
X89975000Y-78196000D01*
X89975000Y-76236000D02*
X89975000Y-75130000D01*
X89935000Y-79274000D02*
X89935000Y-78196000D01*
X89935000Y-76236000D02*
X89935000Y-75158000D01*
X89895000Y-79244000D02*
X89895000Y-78196000D01*
X89895000Y-76236000D02*
X89895000Y-75188000D01*
X89855000Y-79213000D02*
X89855000Y-78196000D01*
X89855000Y-76236000D02*
X89855000Y-75219000D01*
X89815000Y-79181000D02*
X89815000Y-78196000D01*
X89815000Y-76236000D02*
X89815000Y-75251000D01*
X89775000Y-79148000D02*
X89775000Y-78196000D01*
X89775000Y-76236000D02*
X89775000Y-75284000D01*
X89735000Y-79113000D02*
X89735000Y-78196000D01*
X89735000Y-76236000D02*
X89735000Y-75319000D01*
X89695000Y-79077000D02*
X89695000Y-78196000D01*
X89695000Y-76236000D02*
X89695000Y-75355000D01*
X89655000Y-79039000D02*
X89655000Y-78196000D01*
X89655000Y-76236000D02*
X89655000Y-75393000D01*
X89615000Y-78999000D02*
X89615000Y-78196000D01*
X89615000Y-76236000D02*
X89615000Y-75433000D01*
X89575000Y-78958000D02*
X89575000Y-78196000D01*
X89575000Y-76236000D02*
X89575000Y-75474000D01*
X89535000Y-78915000D02*
X89535000Y-78196000D01*
X89535000Y-76236000D02*
X89535000Y-75517000D01*
X89495000Y-78870000D02*
X89495000Y-78196000D01*
X89495000Y-76236000D02*
X89495000Y-75562000D01*
X89455000Y-78822000D02*
X89455000Y-75610000D01*
X89415000Y-78772000D02*
X89415000Y-75660000D01*
X89375000Y-78720000D02*
X89375000Y-75712000D01*
X89335000Y-78664000D02*
X89335000Y-75768000D01*
X89295000Y-78606000D02*
X89295000Y-75826000D01*
X89255000Y-78543000D02*
X89255000Y-75889000D01*
X89215000Y-78477000D02*
X89215000Y-75955000D01*
X89175000Y-78405000D02*
X89175000Y-76027000D01*
X89135000Y-78328000D02*
X89135000Y-76104000D01*
X89095000Y-78244000D02*
X89095000Y-76188000D01*
X89055000Y-78150000D02*
X89055000Y-76282000D01*
X89015000Y-78045000D02*
X89015000Y-76387000D01*
X88975000Y-77923000D02*
X88975000Y-76509000D01*
X88935000Y-77775000D02*
X88935000Y-76657000D01*
X88895000Y-77570000D02*
X88895000Y-76862000D01*
X94656000Y-77216000D02*
X93456000Y-77216000D01*
X94056000Y-77866000D02*
X94056000Y-76566000D01*
X69247137Y-78197400D02*
G75*
G03X74041436Y-78196000I2396863J981400D01*
G01*
X69247137Y-76234600D02*
G75*
G02X74041436Y-76236000I2396863J-981400D01*
G01*
X69247137Y-76234600D02*
G75*
G03X69246564Y-78196000I2396863J-981400D01*
G01*
X71644000Y-79766000D02*
X71644000Y-74666000D01*
X71604000Y-79766000D02*
X71604000Y-78196000D01*
X71604000Y-76236000D02*
X71604000Y-74666000D01*
X71564000Y-79765000D02*
X71564000Y-78196000D01*
X71564000Y-76236000D02*
X71564000Y-74667000D01*
X71524000Y-79764000D02*
X71524000Y-78196000D01*
X71524000Y-76236000D02*
X71524000Y-74668000D01*
X71484000Y-79762000D02*
X71484000Y-78196000D01*
X71484000Y-76236000D02*
X71484000Y-74670000D01*
X71444000Y-79759000D02*
X71444000Y-78196000D01*
X71444000Y-76236000D02*
X71444000Y-74673000D01*
X71404000Y-79755000D02*
X71404000Y-78196000D01*
X71404000Y-76236000D02*
X71404000Y-74677000D01*
X71364000Y-79751000D02*
X71364000Y-78196000D01*
X71364000Y-76236000D02*
X71364000Y-74681000D01*
X71324000Y-79747000D02*
X71324000Y-78196000D01*
X71324000Y-76236000D02*
X71324000Y-74685000D01*
X71284000Y-79741000D02*
X71284000Y-78196000D01*
X71284000Y-76236000D02*
X71284000Y-74691000D01*
X71244000Y-79735000D02*
X71244000Y-78196000D01*
X71244000Y-76236000D02*
X71244000Y-74697000D01*
X71204000Y-79729000D02*
X71204000Y-78196000D01*
X71204000Y-76236000D02*
X71204000Y-74703000D01*
X71164000Y-79722000D02*
X71164000Y-78196000D01*
X71164000Y-76236000D02*
X71164000Y-74710000D01*
X71124000Y-79714000D02*
X71124000Y-78196000D01*
X71124000Y-76236000D02*
X71124000Y-74718000D01*
X71084000Y-79705000D02*
X71084000Y-78196000D01*
X71084000Y-76236000D02*
X71084000Y-74727000D01*
X71044000Y-79696000D02*
X71044000Y-78196000D01*
X71044000Y-76236000D02*
X71044000Y-74736000D01*
X71004000Y-79686000D02*
X71004000Y-78196000D01*
X71004000Y-76236000D02*
X71004000Y-74746000D01*
X70964000Y-79676000D02*
X70964000Y-78196000D01*
X70964000Y-76236000D02*
X70964000Y-74756000D01*
X70923000Y-79664000D02*
X70923000Y-78196000D01*
X70923000Y-76236000D02*
X70923000Y-74768000D01*
X70883000Y-79652000D02*
X70883000Y-78196000D01*
X70883000Y-76236000D02*
X70883000Y-74780000D01*
X70843000Y-79640000D02*
X70843000Y-78196000D01*
X70843000Y-76236000D02*
X70843000Y-74792000D01*
X70803000Y-79626000D02*
X70803000Y-78196000D01*
X70803000Y-76236000D02*
X70803000Y-74806000D01*
X70763000Y-79612000D02*
X70763000Y-78196000D01*
X70763000Y-76236000D02*
X70763000Y-74820000D01*
X70723000Y-79598000D02*
X70723000Y-78196000D01*
X70723000Y-76236000D02*
X70723000Y-74834000D01*
X70683000Y-79582000D02*
X70683000Y-78196000D01*
X70683000Y-76236000D02*
X70683000Y-74850000D01*
X70643000Y-79566000D02*
X70643000Y-78196000D01*
X70643000Y-76236000D02*
X70643000Y-74866000D01*
X70603000Y-79549000D02*
X70603000Y-78196000D01*
X70603000Y-76236000D02*
X70603000Y-74883000D01*
X70563000Y-79531000D02*
X70563000Y-78196000D01*
X70563000Y-76236000D02*
X70563000Y-74901000D01*
X70523000Y-79512000D02*
X70523000Y-78196000D01*
X70523000Y-76236000D02*
X70523000Y-74920000D01*
X70483000Y-79492000D02*
X70483000Y-78196000D01*
X70483000Y-76236000D02*
X70483000Y-74940000D01*
X70443000Y-79472000D02*
X70443000Y-78196000D01*
X70443000Y-76236000D02*
X70443000Y-74960000D01*
X70403000Y-79450000D02*
X70403000Y-78196000D01*
X70403000Y-76236000D02*
X70403000Y-74982000D01*
X70363000Y-79428000D02*
X70363000Y-78196000D01*
X70363000Y-76236000D02*
X70363000Y-75004000D01*
X70323000Y-79405000D02*
X70323000Y-78196000D01*
X70323000Y-76236000D02*
X70323000Y-75027000D01*
X70283000Y-79381000D02*
X70283000Y-78196000D01*
X70283000Y-76236000D02*
X70283000Y-75051000D01*
X70243000Y-79356000D02*
X70243000Y-78196000D01*
X70243000Y-76236000D02*
X70243000Y-75076000D01*
X70203000Y-79329000D02*
X70203000Y-78196000D01*
X70203000Y-76236000D02*
X70203000Y-75103000D01*
X70163000Y-79302000D02*
X70163000Y-78196000D01*
X70163000Y-76236000D02*
X70163000Y-75130000D01*
X70123000Y-79274000D02*
X70123000Y-78196000D01*
X70123000Y-76236000D02*
X70123000Y-75158000D01*
X70083000Y-79244000D02*
X70083000Y-78196000D01*
X70083000Y-76236000D02*
X70083000Y-75188000D01*
X70043000Y-79213000D02*
X70043000Y-78196000D01*
X70043000Y-76236000D02*
X70043000Y-75219000D01*
X70003000Y-79181000D02*
X70003000Y-78196000D01*
X70003000Y-76236000D02*
X70003000Y-75251000D01*
X69963000Y-79148000D02*
X69963000Y-78196000D01*
X69963000Y-76236000D02*
X69963000Y-75284000D01*
X69923000Y-79113000D02*
X69923000Y-78196000D01*
X69923000Y-76236000D02*
X69923000Y-75319000D01*
X69883000Y-79077000D02*
X69883000Y-78196000D01*
X69883000Y-76236000D02*
X69883000Y-75355000D01*
X69843000Y-79039000D02*
X69843000Y-78196000D01*
X69843000Y-76236000D02*
X69843000Y-75393000D01*
X69803000Y-78999000D02*
X69803000Y-78196000D01*
X69803000Y-76236000D02*
X69803000Y-75433000D01*
X69763000Y-78958000D02*
X69763000Y-78196000D01*
X69763000Y-76236000D02*
X69763000Y-75474000D01*
X69723000Y-78915000D02*
X69723000Y-78196000D01*
X69723000Y-76236000D02*
X69723000Y-75517000D01*
X69683000Y-78870000D02*
X69683000Y-78196000D01*
X69683000Y-76236000D02*
X69683000Y-75562000D01*
X69643000Y-78822000D02*
X69643000Y-75610000D01*
X69603000Y-78772000D02*
X69603000Y-75660000D01*
X69563000Y-78720000D02*
X69563000Y-75712000D01*
X69523000Y-78664000D02*
X69523000Y-75768000D01*
X69483000Y-78606000D02*
X69483000Y-75826000D01*
X69443000Y-78543000D02*
X69443000Y-75889000D01*
X69403000Y-78477000D02*
X69403000Y-75955000D01*
X69363000Y-78405000D02*
X69363000Y-76027000D01*
X69323000Y-78328000D02*
X69323000Y-76104000D01*
X69283000Y-78244000D02*
X69283000Y-76188000D01*
X69243000Y-78150000D02*
X69243000Y-76282000D01*
X69203000Y-78045000D02*
X69203000Y-76387000D01*
X69163000Y-77923000D02*
X69163000Y-76509000D01*
X69123000Y-77775000D02*
X69123000Y-76657000D01*
X69083000Y-77570000D02*
X69083000Y-76862000D01*
X74844000Y-77216000D02*
X73644000Y-77216000D01*
X74244000Y-77866000D02*
X74244000Y-76566000D01*
D12*
X45349160Y-70269100D02*
X44549060Y-59270900D01*
X46149260Y-70269100D02*
X45349160Y-59270900D01*
X46949360Y-70269100D02*
X46149260Y-59270900D01*
X47749460Y-70269100D02*
X46949360Y-59270900D01*
X48549560Y-70269100D02*
X47749460Y-59270900D01*
X49349660Y-70269100D02*
X48549560Y-59270900D01*
X35450780Y-64770000D02*
G75*
G03X35450780Y-64770000I-1000760J0D01*
G01*
X42451020Y-59969400D02*
X30449520Y-59969400D01*
X30449520Y-59969400D02*
X30449520Y-69570600D01*
X30449520Y-69570600D02*
X42451020Y-69570600D01*
X49949100Y-59270900D02*
X42451020Y-59270900D01*
X42451020Y-59270900D02*
X42451020Y-70269100D01*
X42451020Y-70269100D02*
X49949100Y-70269100D01*
X64350900Y-72570340D02*
X64350900Y-56969660D01*
X64350900Y-56969660D02*
X49949100Y-56969660D01*
X49949100Y-56969660D02*
X49949100Y-72570340D01*
X49949100Y-72570340D02*
X64350900Y-72570340D01*
X75184000Y-80772000D02*
X87884000Y-80772000D01*
X75184000Y-81280000D02*
X75184000Y-73914000D01*
X87884000Y-81280000D02*
X75184000Y-81280000D01*
X75184000Y-73914000D02*
X87884000Y-73914000D01*
X87884000Y-73914000D02*
X87884000Y-81280000D01*
X118988840Y-59778900D02*
X119788940Y-70777100D01*
X118188740Y-59778900D02*
X118988840Y-70777100D01*
X117388640Y-59778900D02*
X118188740Y-70777100D01*
X116588540Y-59778900D02*
X117388640Y-70777100D01*
X115788440Y-59778900D02*
X116588540Y-70777100D01*
X114988340Y-59778900D02*
X115788440Y-70777100D01*
X130888740Y-65278000D02*
G75*
G03X130888740Y-65278000I-1000760J0D01*
G01*
X121886980Y-70078600D02*
X133888480Y-70078600D01*
X133888480Y-70078600D02*
X133888480Y-60477400D01*
X133888480Y-60477400D02*
X121886980Y-60477400D01*
X114388900Y-70777100D02*
X121886980Y-70777100D01*
X121886980Y-70777100D02*
X121886980Y-59778900D01*
X121886980Y-59778900D02*
X114388900Y-59778900D01*
X99987100Y-57477660D02*
X99987100Y-73078340D01*
X99987100Y-73078340D02*
X114388900Y-73078340D01*
X114388900Y-73078340D02*
X114388900Y-57477660D01*
X114388900Y-57477660D02*
X99987100Y-57477660D01*
X91289334Y-81133143D02*
X91241715Y-81180762D01*
X91098858Y-81228381D01*
X91003620Y-81228381D01*
X90860762Y-81180762D01*
X90765524Y-81085524D01*
X90717905Y-80990286D01*
X90670286Y-80799810D01*
X90670286Y-80656952D01*
X90717905Y-80466476D01*
X90765524Y-80371238D01*
X90860762Y-80276000D01*
X91003620Y-80228381D01*
X91098858Y-80228381D01*
X91241715Y-80276000D01*
X91289334Y-80323619D01*
X91622667Y-80228381D02*
X92289334Y-80228381D01*
X91860762Y-81228381D01*
X71001143Y-81133143D02*
X70953524Y-81180762D01*
X70810667Y-81228381D01*
X70715429Y-81228381D01*
X70572571Y-81180762D01*
X70477333Y-81085524D01*
X70429714Y-80990286D01*
X70382095Y-80799810D01*
X70382095Y-80656952D01*
X70429714Y-80466476D01*
X70477333Y-80371238D01*
X70572571Y-80276000D01*
X70715429Y-80228381D01*
X70810667Y-80228381D01*
X70953524Y-80276000D01*
X71001143Y-80323619D01*
X71953524Y-81228381D02*
X71382095Y-81228381D01*
X71667809Y-81228381D02*
X71667809Y-80228381D01*
X71572571Y-80371238D01*
X71477333Y-80466476D01*
X71382095Y-80514095D01*
X72572571Y-80228381D02*
X72667810Y-80228381D01*
X72763048Y-80276000D01*
X72810667Y-80323619D01*
X72858286Y-80418857D01*
X72905905Y-80609333D01*
X72905905Y-80847429D01*
X72858286Y-81037905D01*
X72810667Y-81133143D01*
X72763048Y-81180762D01*
X72667810Y-81228381D01*
X72572571Y-81228381D01*
X72477333Y-81180762D01*
X72429714Y-81133143D01*
X72382095Y-81037905D01*
X72334476Y-80847429D01*
X72334476Y-80609333D01*
X72382095Y-80418857D01*
X72429714Y-80323619D01*
X72477333Y-80276000D01*
X72572571Y-80228381D01*
X66254381Y-64595333D02*
X66968667Y-64595333D01*
X67111524Y-64642953D01*
X67206762Y-64738191D01*
X67254381Y-64881048D01*
X67254381Y-64976286D01*
X67254381Y-63595333D02*
X67254381Y-64166762D01*
X67254381Y-63881048D02*
X66254381Y-63881048D01*
X66397238Y-63976286D01*
X66492476Y-64071524D01*
X66540095Y-64166762D01*
X81034000Y-78934571D02*
X81034000Y-80006000D01*
X80962572Y-80220286D01*
X80819715Y-80363143D01*
X80605429Y-80434571D01*
X80462572Y-80434571D01*
X81676857Y-79077429D02*
X81748286Y-79006000D01*
X81891143Y-78934571D01*
X82248286Y-78934571D01*
X82391143Y-79006000D01*
X82462572Y-79077429D01*
X82534000Y-79220286D01*
X82534000Y-79363143D01*
X82462572Y-79577429D01*
X81605429Y-80434571D01*
X82534000Y-80434571D01*
X96988381Y-66119333D02*
X97702667Y-66119333D01*
X97845524Y-66166953D01*
X97940762Y-66262191D01*
X97988381Y-66405048D01*
X97988381Y-66500286D01*
X96988381Y-65738381D02*
X96988381Y-65119333D01*
X97369333Y-65452667D01*
X97369333Y-65309809D01*
X97416952Y-65214571D01*
X97464571Y-65166952D01*
X97559810Y-65119333D01*
X97797905Y-65119333D01*
X97893143Y-65166952D01*
X97940762Y-65214571D01*
X97988381Y-65309809D01*
X97988381Y-65595524D01*
X97940762Y-65690762D01*
X97893143Y-65738381D01*
M02*
