G04 #@! TF.FileFunction,Copper,L3,Inr,Signal*
%FSLAX46Y46*%
G04 Gerber Fmt 4.6, Leading zero omitted, Abs format (unit mm)*
G04 Created by KiCad (PCBNEW 4.0.7) date Sat May 26 11:04:06 2018*
%MOMM*%
%LPD*%
G01*
G04 APERTURE LIST*
%ADD10C,0.100000*%
%ADD11R,1.600000X1.600000*%
%ADD12C,1.600000*%
%ADD13C,2.000000*%
%ADD14R,2.000000X2.000000*%
%ADD15O,7.000240X3.500120*%
%ADD16O,2.499360X1.600200*%
%ADD17C,0.600000*%
%ADD18C,1.200000*%
%ADD19C,0.254000*%
G04 APERTURE END LIST*
D10*
D11*
X93218000Y-73152000D03*
D12*
X91218000Y-73152000D03*
D11*
X73406000Y-73152000D03*
D12*
X71406000Y-73152000D03*
D13*
X86106000Y-74930000D03*
D14*
X78486000Y-74930000D03*
D13*
X82296000Y-74930000D03*
D15*
X57886600Y-69867780D03*
X57886600Y-59669680D03*
D16*
X62992000Y-64770000D03*
X62992000Y-67310000D03*
D15*
X106451400Y-60180220D03*
X106451400Y-70378320D03*
D16*
X101346000Y-65278000D03*
X101346000Y-62738000D03*
D17*
X82296000Y-62230000D03*
X86375819Y-62499819D03*
X69850000Y-64262000D03*
X69850000Y-67818000D03*
X82042000Y-64516000D03*
X90027181Y-65135181D03*
X96012000Y-69596000D03*
X79248000Y-70358000D03*
D18*
X82296000Y-62230000D02*
X87122000Y-67056000D01*
X87122000Y-67056000D02*
X87122000Y-70866000D01*
X87122000Y-70866000D02*
X88900000Y-72644000D01*
X88900000Y-72644000D02*
X90710000Y-72644000D01*
X90710000Y-72644000D02*
X91218000Y-73152000D01*
X86375819Y-62499819D02*
X88646000Y-64770000D01*
X88646000Y-64770000D02*
X88646000Y-70580000D01*
X88646000Y-70580000D02*
X91218000Y-73152000D01*
X89440000Y-74930000D02*
X91218000Y-73152000D01*
X86106000Y-74930000D02*
X89440000Y-74930000D01*
D19*
G36*
X102925045Y-58583531D02*
X102449231Y-59384830D01*
X102368854Y-59682207D01*
X102478655Y-60053220D01*
X106324400Y-60053220D01*
X106324400Y-60033220D01*
X106578400Y-60033220D01*
X106578400Y-60053220D01*
X106598400Y-60053220D01*
X106598400Y-60307220D01*
X106578400Y-60307220D01*
X106578400Y-62565280D01*
X108328460Y-62565280D01*
X109231516Y-62335127D01*
X109526000Y-62114841D01*
X109526000Y-68443699D01*
X109231516Y-68223413D01*
X108328460Y-67993260D01*
X106578400Y-67993260D01*
X106578400Y-70251320D01*
X106598400Y-70251320D01*
X106598400Y-70505320D01*
X106578400Y-70505320D01*
X106578400Y-72763380D01*
X108328460Y-72763380D01*
X109231516Y-72533227D01*
X109526000Y-72312941D01*
X109526000Y-77014000D01*
X70589606Y-77014000D01*
X68707000Y-75131394D01*
X68707000Y-72935223D01*
X69959035Y-72935223D01*
X69986222Y-73505454D01*
X70152136Y-73906005D01*
X70398255Y-73980139D01*
X71226395Y-73152000D01*
X70398255Y-72323861D01*
X70152136Y-72397995D01*
X69959035Y-72935223D01*
X68707000Y-72935223D01*
X68707000Y-72442606D01*
X69005351Y-72144255D01*
X70577861Y-72144255D01*
X71406000Y-72972395D01*
X71420142Y-72958252D01*
X71599748Y-73137858D01*
X71585605Y-73152000D01*
X71599748Y-73166143D01*
X71420142Y-73345748D01*
X71406000Y-73331605D01*
X70577861Y-74159745D01*
X70651995Y-74405864D01*
X71189223Y-74598965D01*
X71759454Y-74571778D01*
X72150947Y-74409616D01*
X72354110Y-74548431D01*
X72606000Y-74599440D01*
X74206000Y-74599440D01*
X74441317Y-74555162D01*
X74657441Y-74416090D01*
X74802431Y-74203890D01*
X74853440Y-73952000D01*
X74853440Y-73930000D01*
X76838560Y-73930000D01*
X76838560Y-75930000D01*
X76882838Y-76165317D01*
X77021910Y-76381441D01*
X77234110Y-76526431D01*
X77486000Y-76577440D01*
X79486000Y-76577440D01*
X79721317Y-76533162D01*
X79937441Y-76394090D01*
X80082431Y-76181890D01*
X80133440Y-75930000D01*
X80133440Y-75253795D01*
X80660716Y-75253795D01*
X80909106Y-75854943D01*
X81368637Y-76315278D01*
X81969352Y-76564716D01*
X82619795Y-76565284D01*
X83220943Y-76316894D01*
X83681278Y-75857363D01*
X83930716Y-75256648D01*
X83931284Y-74606205D01*
X83682894Y-74005057D01*
X83223363Y-73544722D01*
X82622648Y-73295284D01*
X81972205Y-73294716D01*
X81371057Y-73543106D01*
X80910722Y-74002637D01*
X80661284Y-74603352D01*
X80660716Y-75253795D01*
X80133440Y-75253795D01*
X80133440Y-73930000D01*
X80089162Y-73694683D01*
X79950090Y-73478559D01*
X79737890Y-73333569D01*
X79486000Y-73282560D01*
X77486000Y-73282560D01*
X77250683Y-73326838D01*
X77034559Y-73465910D01*
X76889569Y-73678110D01*
X76838560Y-73930000D01*
X74853440Y-73930000D01*
X74853440Y-72352000D01*
X74809162Y-72116683D01*
X74670090Y-71900559D01*
X74457890Y-71755569D01*
X74206000Y-71704560D01*
X72606000Y-71704560D01*
X72370683Y-71748838D01*
X72154559Y-71887910D01*
X72150023Y-71894548D01*
X71622777Y-71705035D01*
X71052546Y-71732222D01*
X70651995Y-71898136D01*
X70577861Y-72144255D01*
X69005351Y-72144255D01*
X70606439Y-70543167D01*
X78312838Y-70543167D01*
X78454883Y-70886943D01*
X78717673Y-71150192D01*
X79061201Y-71292838D01*
X79433167Y-71293162D01*
X79776943Y-71151117D01*
X80040192Y-70888327D01*
X80182838Y-70544799D01*
X80183162Y-70172833D01*
X80041117Y-69829057D01*
X79778327Y-69565808D01*
X79434799Y-69423162D01*
X79062833Y-69422838D01*
X78719057Y-69564883D01*
X78455808Y-69827673D01*
X78313162Y-70171201D01*
X78312838Y-70543167D01*
X70606439Y-70543167D01*
X71172606Y-69977000D01*
X74422000Y-69977000D01*
X74471410Y-69966994D01*
X74511803Y-69939803D01*
X76289803Y-68161803D01*
X76317666Y-68119789D01*
X76327000Y-68072000D01*
X76327000Y-62282606D01*
X76379606Y-62230000D01*
X81061000Y-62230000D01*
X81155009Y-62702614D01*
X81422723Y-63103277D01*
X85887000Y-67567554D01*
X85887000Y-70866000D01*
X85981009Y-71338614D01*
X86248723Y-71739277D01*
X88026723Y-73517277D01*
X88292705Y-73695000D01*
X87183379Y-73695000D01*
X87033363Y-73544722D01*
X86432648Y-73295284D01*
X85782205Y-73294716D01*
X85181057Y-73543106D01*
X84720722Y-74002637D01*
X84471284Y-74603352D01*
X84470716Y-75253795D01*
X84719106Y-75854943D01*
X85178637Y-76315278D01*
X85779352Y-76564716D01*
X86429795Y-76565284D01*
X87030943Y-76316894D01*
X87183103Y-76165000D01*
X89440000Y-76165000D01*
X89912614Y-76070991D01*
X90313277Y-75803277D01*
X91548401Y-74568153D01*
X91964287Y-74396312D01*
X92058302Y-74490327D01*
X92291691Y-74587000D01*
X92932250Y-74587000D01*
X93091000Y-74428250D01*
X93091000Y-73279000D01*
X93345000Y-73279000D01*
X93345000Y-74428250D01*
X93503750Y-74587000D01*
X94144309Y-74587000D01*
X94377698Y-74490327D01*
X94556327Y-74311699D01*
X94653000Y-74078310D01*
X94653000Y-73437750D01*
X94494250Y-73279000D01*
X93345000Y-73279000D01*
X93091000Y-73279000D01*
X93071000Y-73279000D01*
X93071000Y-73025000D01*
X93091000Y-73025000D01*
X93091000Y-71875750D01*
X93345000Y-71875750D01*
X93345000Y-73025000D01*
X94494250Y-73025000D01*
X94653000Y-72866250D01*
X94653000Y-72225690D01*
X94556327Y-71992301D01*
X94377698Y-71813673D01*
X94144309Y-71717000D01*
X93503750Y-71717000D01*
X93345000Y-71875750D01*
X93091000Y-71875750D01*
X92932250Y-71717000D01*
X92291691Y-71717000D01*
X92058302Y-71813673D01*
X91964002Y-71907973D01*
X91547637Y-71735083D01*
X90688887Y-70876333D01*
X102368854Y-70876333D01*
X102449231Y-71173710D01*
X102925045Y-71975009D01*
X103671284Y-72533227D01*
X104574340Y-72763380D01*
X106324400Y-72763380D01*
X106324400Y-70505320D01*
X102478655Y-70505320D01*
X102368854Y-70876333D01*
X90688887Y-70876333D01*
X89881000Y-70068446D01*
X89881000Y-69781167D01*
X95076838Y-69781167D01*
X95218883Y-70124943D01*
X95481673Y-70388192D01*
X95825201Y-70530838D01*
X96197167Y-70531162D01*
X96540943Y-70389117D01*
X96804192Y-70126327D01*
X96906348Y-69880307D01*
X102368854Y-69880307D01*
X102478655Y-70251320D01*
X106324400Y-70251320D01*
X106324400Y-67993260D01*
X104574340Y-67993260D01*
X103671284Y-68223413D01*
X102925045Y-68781631D01*
X102449231Y-69582930D01*
X102368854Y-69880307D01*
X96906348Y-69880307D01*
X96946838Y-69782799D01*
X96947162Y-69410833D01*
X96805117Y-69067057D01*
X96542327Y-68803808D01*
X96198799Y-68661162D01*
X95826833Y-68660838D01*
X95483057Y-68802883D01*
X95219808Y-69065673D01*
X95077162Y-69409201D01*
X95076838Y-69781167D01*
X89881000Y-69781167D01*
X89881000Y-65278000D01*
X99424397Y-65278000D01*
X99533637Y-65827189D01*
X99844728Y-66292769D01*
X100310308Y-66603860D01*
X100859497Y-66713100D01*
X101832503Y-66713100D01*
X102381692Y-66603860D01*
X102847272Y-66292769D01*
X103158363Y-65827189D01*
X103267603Y-65278000D01*
X103158363Y-64728811D01*
X102847272Y-64263231D01*
X102468480Y-64010130D01*
X102900152Y-63662967D01*
X103170041Y-63169857D01*
X103187583Y-63087055D01*
X103065596Y-62865000D01*
X101473000Y-62865000D01*
X101473000Y-62885000D01*
X101219000Y-62885000D01*
X101219000Y-62865000D01*
X99626404Y-62865000D01*
X99504417Y-63087055D01*
X99521959Y-63169857D01*
X99791848Y-63662967D01*
X100223520Y-64010130D01*
X99844728Y-64263231D01*
X99533637Y-64728811D01*
X99424397Y-65278000D01*
X89881000Y-65278000D01*
X89881000Y-64770000D01*
X89786991Y-64297386D01*
X89519277Y-63896723D01*
X88011499Y-62388945D01*
X99504417Y-62388945D01*
X99626404Y-62611000D01*
X101219000Y-62611000D01*
X101219000Y-61302900D01*
X101473000Y-61302900D01*
X101473000Y-62611000D01*
X103065596Y-62611000D01*
X103187583Y-62388945D01*
X103170041Y-62306143D01*
X102900152Y-61813033D01*
X102462102Y-61460741D01*
X101922580Y-61302900D01*
X101473000Y-61302900D01*
X101219000Y-61302900D01*
X100769420Y-61302900D01*
X100229898Y-61460741D01*
X99791848Y-61813033D01*
X99521959Y-62306143D01*
X99504417Y-62388945D01*
X88011499Y-62388945D01*
X87249096Y-61626542D01*
X86848433Y-61358828D01*
X86375819Y-61264819D01*
X85903205Y-61358828D01*
X85502542Y-61626542D01*
X85234828Y-62027205D01*
X85140819Y-62499819D01*
X85234828Y-62972433D01*
X85502542Y-63373096D01*
X87411000Y-65281554D01*
X87411000Y-65598446D01*
X83169277Y-61356723D01*
X82768614Y-61089009D01*
X82296000Y-60995000D01*
X81823386Y-61089009D01*
X81422723Y-61356723D01*
X81155009Y-61757386D01*
X81061000Y-62230000D01*
X76379606Y-62230000D01*
X77931373Y-60678233D01*
X102368854Y-60678233D01*
X102449231Y-60975610D01*
X102925045Y-61776909D01*
X103671284Y-62335127D01*
X104574340Y-62565280D01*
X106324400Y-62565280D01*
X106324400Y-60307220D01*
X102478655Y-60307220D01*
X102368854Y-60678233D01*
X77931373Y-60678233D01*
X80495606Y-58114000D01*
X103552725Y-58114000D01*
X102925045Y-58583531D01*
X102925045Y-58583531D01*
G37*
X102925045Y-58583531D02*
X102449231Y-59384830D01*
X102368854Y-59682207D01*
X102478655Y-60053220D01*
X106324400Y-60053220D01*
X106324400Y-60033220D01*
X106578400Y-60033220D01*
X106578400Y-60053220D01*
X106598400Y-60053220D01*
X106598400Y-60307220D01*
X106578400Y-60307220D01*
X106578400Y-62565280D01*
X108328460Y-62565280D01*
X109231516Y-62335127D01*
X109526000Y-62114841D01*
X109526000Y-68443699D01*
X109231516Y-68223413D01*
X108328460Y-67993260D01*
X106578400Y-67993260D01*
X106578400Y-70251320D01*
X106598400Y-70251320D01*
X106598400Y-70505320D01*
X106578400Y-70505320D01*
X106578400Y-72763380D01*
X108328460Y-72763380D01*
X109231516Y-72533227D01*
X109526000Y-72312941D01*
X109526000Y-77014000D01*
X70589606Y-77014000D01*
X68707000Y-75131394D01*
X68707000Y-72935223D01*
X69959035Y-72935223D01*
X69986222Y-73505454D01*
X70152136Y-73906005D01*
X70398255Y-73980139D01*
X71226395Y-73152000D01*
X70398255Y-72323861D01*
X70152136Y-72397995D01*
X69959035Y-72935223D01*
X68707000Y-72935223D01*
X68707000Y-72442606D01*
X69005351Y-72144255D01*
X70577861Y-72144255D01*
X71406000Y-72972395D01*
X71420142Y-72958252D01*
X71599748Y-73137858D01*
X71585605Y-73152000D01*
X71599748Y-73166143D01*
X71420142Y-73345748D01*
X71406000Y-73331605D01*
X70577861Y-74159745D01*
X70651995Y-74405864D01*
X71189223Y-74598965D01*
X71759454Y-74571778D01*
X72150947Y-74409616D01*
X72354110Y-74548431D01*
X72606000Y-74599440D01*
X74206000Y-74599440D01*
X74441317Y-74555162D01*
X74657441Y-74416090D01*
X74802431Y-74203890D01*
X74853440Y-73952000D01*
X74853440Y-73930000D01*
X76838560Y-73930000D01*
X76838560Y-75930000D01*
X76882838Y-76165317D01*
X77021910Y-76381441D01*
X77234110Y-76526431D01*
X77486000Y-76577440D01*
X79486000Y-76577440D01*
X79721317Y-76533162D01*
X79937441Y-76394090D01*
X80082431Y-76181890D01*
X80133440Y-75930000D01*
X80133440Y-75253795D01*
X80660716Y-75253795D01*
X80909106Y-75854943D01*
X81368637Y-76315278D01*
X81969352Y-76564716D01*
X82619795Y-76565284D01*
X83220943Y-76316894D01*
X83681278Y-75857363D01*
X83930716Y-75256648D01*
X83931284Y-74606205D01*
X83682894Y-74005057D01*
X83223363Y-73544722D01*
X82622648Y-73295284D01*
X81972205Y-73294716D01*
X81371057Y-73543106D01*
X80910722Y-74002637D01*
X80661284Y-74603352D01*
X80660716Y-75253795D01*
X80133440Y-75253795D01*
X80133440Y-73930000D01*
X80089162Y-73694683D01*
X79950090Y-73478559D01*
X79737890Y-73333569D01*
X79486000Y-73282560D01*
X77486000Y-73282560D01*
X77250683Y-73326838D01*
X77034559Y-73465910D01*
X76889569Y-73678110D01*
X76838560Y-73930000D01*
X74853440Y-73930000D01*
X74853440Y-72352000D01*
X74809162Y-72116683D01*
X74670090Y-71900559D01*
X74457890Y-71755569D01*
X74206000Y-71704560D01*
X72606000Y-71704560D01*
X72370683Y-71748838D01*
X72154559Y-71887910D01*
X72150023Y-71894548D01*
X71622777Y-71705035D01*
X71052546Y-71732222D01*
X70651995Y-71898136D01*
X70577861Y-72144255D01*
X69005351Y-72144255D01*
X70606439Y-70543167D01*
X78312838Y-70543167D01*
X78454883Y-70886943D01*
X78717673Y-71150192D01*
X79061201Y-71292838D01*
X79433167Y-71293162D01*
X79776943Y-71151117D01*
X80040192Y-70888327D01*
X80182838Y-70544799D01*
X80183162Y-70172833D01*
X80041117Y-69829057D01*
X79778327Y-69565808D01*
X79434799Y-69423162D01*
X79062833Y-69422838D01*
X78719057Y-69564883D01*
X78455808Y-69827673D01*
X78313162Y-70171201D01*
X78312838Y-70543167D01*
X70606439Y-70543167D01*
X71172606Y-69977000D01*
X74422000Y-69977000D01*
X74471410Y-69966994D01*
X74511803Y-69939803D01*
X76289803Y-68161803D01*
X76317666Y-68119789D01*
X76327000Y-68072000D01*
X76327000Y-62282606D01*
X76379606Y-62230000D01*
X81061000Y-62230000D01*
X81155009Y-62702614D01*
X81422723Y-63103277D01*
X85887000Y-67567554D01*
X85887000Y-70866000D01*
X85981009Y-71338614D01*
X86248723Y-71739277D01*
X88026723Y-73517277D01*
X88292705Y-73695000D01*
X87183379Y-73695000D01*
X87033363Y-73544722D01*
X86432648Y-73295284D01*
X85782205Y-73294716D01*
X85181057Y-73543106D01*
X84720722Y-74002637D01*
X84471284Y-74603352D01*
X84470716Y-75253795D01*
X84719106Y-75854943D01*
X85178637Y-76315278D01*
X85779352Y-76564716D01*
X86429795Y-76565284D01*
X87030943Y-76316894D01*
X87183103Y-76165000D01*
X89440000Y-76165000D01*
X89912614Y-76070991D01*
X90313277Y-75803277D01*
X91548401Y-74568153D01*
X91964287Y-74396312D01*
X92058302Y-74490327D01*
X92291691Y-74587000D01*
X92932250Y-74587000D01*
X93091000Y-74428250D01*
X93091000Y-73279000D01*
X93345000Y-73279000D01*
X93345000Y-74428250D01*
X93503750Y-74587000D01*
X94144309Y-74587000D01*
X94377698Y-74490327D01*
X94556327Y-74311699D01*
X94653000Y-74078310D01*
X94653000Y-73437750D01*
X94494250Y-73279000D01*
X93345000Y-73279000D01*
X93091000Y-73279000D01*
X93071000Y-73279000D01*
X93071000Y-73025000D01*
X93091000Y-73025000D01*
X93091000Y-71875750D01*
X93345000Y-71875750D01*
X93345000Y-73025000D01*
X94494250Y-73025000D01*
X94653000Y-72866250D01*
X94653000Y-72225690D01*
X94556327Y-71992301D01*
X94377698Y-71813673D01*
X94144309Y-71717000D01*
X93503750Y-71717000D01*
X93345000Y-71875750D01*
X93091000Y-71875750D01*
X92932250Y-71717000D01*
X92291691Y-71717000D01*
X92058302Y-71813673D01*
X91964002Y-71907973D01*
X91547637Y-71735083D01*
X90688887Y-70876333D01*
X102368854Y-70876333D01*
X102449231Y-71173710D01*
X102925045Y-71975009D01*
X103671284Y-72533227D01*
X104574340Y-72763380D01*
X106324400Y-72763380D01*
X106324400Y-70505320D01*
X102478655Y-70505320D01*
X102368854Y-70876333D01*
X90688887Y-70876333D01*
X89881000Y-70068446D01*
X89881000Y-69781167D01*
X95076838Y-69781167D01*
X95218883Y-70124943D01*
X95481673Y-70388192D01*
X95825201Y-70530838D01*
X96197167Y-70531162D01*
X96540943Y-70389117D01*
X96804192Y-70126327D01*
X96906348Y-69880307D01*
X102368854Y-69880307D01*
X102478655Y-70251320D01*
X106324400Y-70251320D01*
X106324400Y-67993260D01*
X104574340Y-67993260D01*
X103671284Y-68223413D01*
X102925045Y-68781631D01*
X102449231Y-69582930D01*
X102368854Y-69880307D01*
X96906348Y-69880307D01*
X96946838Y-69782799D01*
X96947162Y-69410833D01*
X96805117Y-69067057D01*
X96542327Y-68803808D01*
X96198799Y-68661162D01*
X95826833Y-68660838D01*
X95483057Y-68802883D01*
X95219808Y-69065673D01*
X95077162Y-69409201D01*
X95076838Y-69781167D01*
X89881000Y-69781167D01*
X89881000Y-65278000D01*
X99424397Y-65278000D01*
X99533637Y-65827189D01*
X99844728Y-66292769D01*
X100310308Y-66603860D01*
X100859497Y-66713100D01*
X101832503Y-66713100D01*
X102381692Y-66603860D01*
X102847272Y-66292769D01*
X103158363Y-65827189D01*
X103267603Y-65278000D01*
X103158363Y-64728811D01*
X102847272Y-64263231D01*
X102468480Y-64010130D01*
X102900152Y-63662967D01*
X103170041Y-63169857D01*
X103187583Y-63087055D01*
X103065596Y-62865000D01*
X101473000Y-62865000D01*
X101473000Y-62885000D01*
X101219000Y-62885000D01*
X101219000Y-62865000D01*
X99626404Y-62865000D01*
X99504417Y-63087055D01*
X99521959Y-63169857D01*
X99791848Y-63662967D01*
X100223520Y-64010130D01*
X99844728Y-64263231D01*
X99533637Y-64728811D01*
X99424397Y-65278000D01*
X89881000Y-65278000D01*
X89881000Y-64770000D01*
X89786991Y-64297386D01*
X89519277Y-63896723D01*
X88011499Y-62388945D01*
X99504417Y-62388945D01*
X99626404Y-62611000D01*
X101219000Y-62611000D01*
X101219000Y-61302900D01*
X101473000Y-61302900D01*
X101473000Y-62611000D01*
X103065596Y-62611000D01*
X103187583Y-62388945D01*
X103170041Y-62306143D01*
X102900152Y-61813033D01*
X102462102Y-61460741D01*
X101922580Y-61302900D01*
X101473000Y-61302900D01*
X101219000Y-61302900D01*
X100769420Y-61302900D01*
X100229898Y-61460741D01*
X99791848Y-61813033D01*
X99521959Y-62306143D01*
X99504417Y-62388945D01*
X88011499Y-62388945D01*
X87249096Y-61626542D01*
X86848433Y-61358828D01*
X86375819Y-61264819D01*
X85903205Y-61358828D01*
X85502542Y-61626542D01*
X85234828Y-62027205D01*
X85140819Y-62499819D01*
X85234828Y-62972433D01*
X85502542Y-63373096D01*
X87411000Y-65281554D01*
X87411000Y-65598446D01*
X83169277Y-61356723D01*
X82768614Y-61089009D01*
X82296000Y-60995000D01*
X81823386Y-61089009D01*
X81422723Y-61356723D01*
X81155009Y-61757386D01*
X81061000Y-62230000D01*
X76379606Y-62230000D01*
X77931373Y-60678233D01*
X102368854Y-60678233D01*
X102449231Y-60975610D01*
X102925045Y-61776909D01*
X103671284Y-62335127D01*
X104574340Y-62565280D01*
X106324400Y-62565280D01*
X106324400Y-60307220D01*
X102478655Y-60307220D01*
X102368854Y-60678233D01*
X77931373Y-60678233D01*
X80495606Y-58114000D01*
X103552725Y-58114000D01*
X102925045Y-58583531D01*
M02*
