M48
;DRILL file {KiCad 4.0.7} date Sat May 26 11:04:12 2018
;FORMAT={-:-/ absolute / inch / decimal}
FMAT,2
INCH,TZ
T1C0.016
T2C0.031
T3C0.039
T4C0.047
T5C0.087
%
G90
G05
M72
T1
X2.75Y-2.53
X2.75Y-2.67
X3.12Y-2.77
X3.23Y-2.54
X3.24Y-2.45
X3.4006Y-2.4606
X3.5444Y-2.5644
X3.78Y-2.74
T2
X2.8113Y-2.88
X2.89Y-2.88
X3.5913Y-2.88
X3.67Y-2.88
T3
X2.48Y-2.55
X2.48Y-2.65
X3.99Y-2.47
X3.99Y-2.57
T4
X3.09Y-2.95
X3.24Y-2.95
X3.39Y-2.95
T5
X2.279Y-2.3492
X2.279Y-2.7507
X4.191Y-2.3693
X4.191Y-2.7708
T0
M30
