G04 #@! TF.FileFunction,Copper,L2,Inr,Signal*
%FSLAX46Y46*%
G04 Gerber Fmt 4.6, Leading zero omitted, Abs format (unit mm)*
G04 Created by KiCad (PCBNEW 4.0.7) date Sat May 26 11:04:06 2018*
%MOMM*%
%LPD*%
G01*
G04 APERTURE LIST*
%ADD10C,0.100000*%
%ADD11R,1.600000X1.600000*%
%ADD12C,1.600000*%
%ADD13C,2.000000*%
%ADD14R,2.000000X2.000000*%
%ADD15O,7.000240X3.500120*%
%ADD16O,2.499360X1.600200*%
%ADD17C,0.600000*%
%ADD18C,1.200000*%
%ADD19C,0.254000*%
G04 APERTURE END LIST*
D10*
D11*
X93218000Y-73152000D03*
D12*
X91218000Y-73152000D03*
D11*
X73406000Y-73152000D03*
D12*
X71406000Y-73152000D03*
D13*
X86106000Y-74930000D03*
D14*
X78486000Y-74930000D03*
D13*
X82296000Y-74930000D03*
D15*
X57886600Y-69867780D03*
X57886600Y-59669680D03*
D16*
X62992000Y-64770000D03*
X62992000Y-67310000D03*
D15*
X106451400Y-60180220D03*
X106451400Y-70378320D03*
D16*
X101346000Y-65278000D03*
X101346000Y-62738000D03*
D17*
X82296000Y-62230000D03*
X86375819Y-62499819D03*
X69850000Y-64262000D03*
X69850000Y-67818000D03*
X82042000Y-64516000D03*
X90027181Y-65135181D03*
X96012000Y-69596000D03*
X79248000Y-70358000D03*
D18*
X96012000Y-69596000D02*
X96012000Y-73152000D01*
X96012000Y-73152000D02*
X96012000Y-73660000D01*
X96012000Y-73660000D02*
X92710000Y-76962000D01*
X92710000Y-76962000D02*
X77216000Y-76962000D01*
X77216000Y-76962000D02*
X73406000Y-73152000D01*
X79248000Y-70358000D02*
X76200000Y-70358000D01*
X76200000Y-70358000D02*
X73406000Y-73152000D01*
X73406000Y-73152000D02*
X76708000Y-73152000D01*
X76708000Y-73152000D02*
X78486000Y-74930000D01*
D19*
G36*
X102925045Y-58583531D02*
X102449231Y-59384830D01*
X102368854Y-59682207D01*
X102478655Y-60053220D01*
X106324400Y-60053220D01*
X106324400Y-60033220D01*
X106578400Y-60033220D01*
X106578400Y-60053220D01*
X106598400Y-60053220D01*
X106598400Y-60307220D01*
X106578400Y-60307220D01*
X106578400Y-62565280D01*
X108328460Y-62565280D01*
X109231516Y-62335127D01*
X109526000Y-62114841D01*
X109526000Y-68443699D01*
X109231516Y-68223413D01*
X108328460Y-67993260D01*
X106578400Y-67993260D01*
X106578400Y-70251320D01*
X106598400Y-70251320D01*
X106598400Y-70505320D01*
X106578400Y-70505320D01*
X106578400Y-72763380D01*
X108328460Y-72763380D01*
X109231516Y-72533227D01*
X109526000Y-72312941D01*
X109526000Y-77014000D01*
X94404554Y-77014000D01*
X96885277Y-74533277D01*
X97152991Y-74132614D01*
X97247000Y-73660000D01*
X97247000Y-70876333D01*
X102368854Y-70876333D01*
X102449231Y-71173710D01*
X102925045Y-71975009D01*
X103671284Y-72533227D01*
X104574340Y-72763380D01*
X106324400Y-72763380D01*
X106324400Y-70505320D01*
X102478655Y-70505320D01*
X102368854Y-70876333D01*
X97247000Y-70876333D01*
X97247000Y-69880307D01*
X102368854Y-69880307D01*
X102478655Y-70251320D01*
X106324400Y-70251320D01*
X106324400Y-67993260D01*
X104574340Y-67993260D01*
X103671284Y-68223413D01*
X102925045Y-68781631D01*
X102449231Y-69582930D01*
X102368854Y-69880307D01*
X97247000Y-69880307D01*
X97247000Y-69596000D01*
X97152991Y-69123386D01*
X96885277Y-68722723D01*
X96484614Y-68455009D01*
X96012000Y-68361000D01*
X95539386Y-68455009D01*
X95138723Y-68722723D01*
X94871009Y-69123386D01*
X94777000Y-69596000D01*
X94777000Y-73148446D01*
X94570348Y-73355098D01*
X94494250Y-73279000D01*
X93345000Y-73279000D01*
X93345000Y-74428250D01*
X93421098Y-74504348D01*
X92198446Y-75727000D01*
X87545409Y-75727000D01*
X87740716Y-75256648D01*
X87741284Y-74606205D01*
X87492894Y-74005057D01*
X87033363Y-73544722D01*
X86771982Y-73436187D01*
X89782752Y-73436187D01*
X90000757Y-73963800D01*
X90404077Y-74367824D01*
X90931309Y-74586750D01*
X91502187Y-74587248D01*
X91964287Y-74396312D01*
X92058302Y-74490327D01*
X92291691Y-74587000D01*
X92932250Y-74587000D01*
X93091000Y-74428250D01*
X93091000Y-73279000D01*
X93071000Y-73279000D01*
X93071000Y-73025000D01*
X93091000Y-73025000D01*
X93091000Y-71875750D01*
X93345000Y-71875750D01*
X93345000Y-73025000D01*
X94494250Y-73025000D01*
X94653000Y-72866250D01*
X94653000Y-72225690D01*
X94556327Y-71992301D01*
X94377698Y-71813673D01*
X94144309Y-71717000D01*
X93503750Y-71717000D01*
X93345000Y-71875750D01*
X93091000Y-71875750D01*
X92932250Y-71717000D01*
X92291691Y-71717000D01*
X92058302Y-71813673D01*
X91964002Y-71907973D01*
X91504691Y-71717250D01*
X90933813Y-71716752D01*
X90406200Y-71934757D01*
X90002176Y-72338077D01*
X89783250Y-72865309D01*
X89782752Y-73436187D01*
X86771982Y-73436187D01*
X86432648Y-73295284D01*
X85782205Y-73294716D01*
X85181057Y-73543106D01*
X84720722Y-74002637D01*
X84471284Y-74603352D01*
X84470716Y-75253795D01*
X84666241Y-75727000D01*
X83735409Y-75727000D01*
X83930716Y-75256648D01*
X83931284Y-74606205D01*
X83682894Y-74005057D01*
X83223363Y-73544722D01*
X82622648Y-73295284D01*
X81972205Y-73294716D01*
X81371057Y-73543106D01*
X80910722Y-74002637D01*
X80661284Y-74603352D01*
X80660716Y-75253795D01*
X80856241Y-75727000D01*
X80133440Y-75727000D01*
X80133440Y-73930000D01*
X80089162Y-73694683D01*
X79950090Y-73478559D01*
X79737890Y-73333569D01*
X79486000Y-73282560D01*
X78585114Y-73282560D01*
X77581277Y-72278723D01*
X77180614Y-72011009D01*
X76708000Y-71917000D01*
X76387554Y-71917000D01*
X76711554Y-71593000D01*
X79248000Y-71593000D01*
X79720614Y-71498991D01*
X80121277Y-71231277D01*
X80388991Y-70830614D01*
X80483000Y-70358000D01*
X80388991Y-69885386D01*
X80121277Y-69484723D01*
X79720614Y-69217009D01*
X79248000Y-69123000D01*
X76200000Y-69123000D01*
X75727386Y-69217009D01*
X75326723Y-69484723D01*
X73106886Y-71704560D01*
X72606000Y-71704560D01*
X72370683Y-71748838D01*
X72154559Y-71887910D01*
X72150023Y-71894548D01*
X71622777Y-71705035D01*
X71052546Y-71732222D01*
X70651995Y-71898136D01*
X70577861Y-72144255D01*
X71406000Y-72972395D01*
X71420142Y-72958252D01*
X71599748Y-73137858D01*
X71585605Y-73152000D01*
X71599748Y-73166143D01*
X71420142Y-73345748D01*
X71406000Y-73331605D01*
X70577861Y-74159745D01*
X70651995Y-74405864D01*
X71189223Y-74598965D01*
X71759454Y-74571778D01*
X72150947Y-74409616D01*
X72354110Y-74548431D01*
X72606000Y-74599440D01*
X73106886Y-74599440D01*
X75521446Y-77014000D01*
X70589606Y-77014000D01*
X68707000Y-75131394D01*
X68707000Y-72935223D01*
X69959035Y-72935223D01*
X69986222Y-73505454D01*
X70152136Y-73906005D01*
X70398255Y-73980139D01*
X71226395Y-73152000D01*
X70398255Y-72323861D01*
X70152136Y-72397995D01*
X69959035Y-72935223D01*
X68707000Y-72935223D01*
X68707000Y-72442606D01*
X71172606Y-69977000D01*
X74422000Y-69977000D01*
X74471410Y-69966994D01*
X74511803Y-69939803D01*
X76289803Y-68161803D01*
X76317666Y-68119789D01*
X76327000Y-68072000D01*
X76327000Y-65278000D01*
X99424397Y-65278000D01*
X99533637Y-65827189D01*
X99844728Y-66292769D01*
X100310308Y-66603860D01*
X100859497Y-66713100D01*
X101832503Y-66713100D01*
X102381692Y-66603860D01*
X102847272Y-66292769D01*
X103158363Y-65827189D01*
X103267603Y-65278000D01*
X103158363Y-64728811D01*
X102847272Y-64263231D01*
X102468480Y-64010130D01*
X102900152Y-63662967D01*
X103170041Y-63169857D01*
X103187583Y-63087055D01*
X103065596Y-62865000D01*
X101473000Y-62865000D01*
X101473000Y-62885000D01*
X101219000Y-62885000D01*
X101219000Y-62865000D01*
X99626404Y-62865000D01*
X99504417Y-63087055D01*
X99521959Y-63169857D01*
X99791848Y-63662967D01*
X100223520Y-64010130D01*
X99844728Y-64263231D01*
X99533637Y-64728811D01*
X99424397Y-65278000D01*
X76327000Y-65278000D01*
X76327000Y-62415167D01*
X81360838Y-62415167D01*
X81502883Y-62758943D01*
X81765673Y-63022192D01*
X82109201Y-63164838D01*
X82481167Y-63165162D01*
X82824943Y-63023117D01*
X83088192Y-62760327D01*
X83119476Y-62684986D01*
X85440657Y-62684986D01*
X85582702Y-63028762D01*
X85845492Y-63292011D01*
X86189020Y-63434657D01*
X86560986Y-63434981D01*
X86904762Y-63292936D01*
X87168011Y-63030146D01*
X87310657Y-62686618D01*
X87310916Y-62388945D01*
X99504417Y-62388945D01*
X99626404Y-62611000D01*
X101219000Y-62611000D01*
X101219000Y-61302900D01*
X101473000Y-61302900D01*
X101473000Y-62611000D01*
X103065596Y-62611000D01*
X103187583Y-62388945D01*
X103170041Y-62306143D01*
X102900152Y-61813033D01*
X102462102Y-61460741D01*
X101922580Y-61302900D01*
X101473000Y-61302900D01*
X101219000Y-61302900D01*
X100769420Y-61302900D01*
X100229898Y-61460741D01*
X99791848Y-61813033D01*
X99521959Y-62306143D01*
X99504417Y-62388945D01*
X87310916Y-62388945D01*
X87310981Y-62314652D01*
X87168936Y-61970876D01*
X86906146Y-61707627D01*
X86562618Y-61564981D01*
X86190652Y-61564657D01*
X85846876Y-61706702D01*
X85583627Y-61969492D01*
X85440981Y-62313020D01*
X85440657Y-62684986D01*
X83119476Y-62684986D01*
X83230838Y-62416799D01*
X83231162Y-62044833D01*
X83089117Y-61701057D01*
X82826327Y-61437808D01*
X82482799Y-61295162D01*
X82110833Y-61294838D01*
X81767057Y-61436883D01*
X81503808Y-61699673D01*
X81361162Y-62043201D01*
X81360838Y-62415167D01*
X76327000Y-62415167D01*
X76327000Y-62282606D01*
X77931373Y-60678233D01*
X102368854Y-60678233D01*
X102449231Y-60975610D01*
X102925045Y-61776909D01*
X103671284Y-62335127D01*
X104574340Y-62565280D01*
X106324400Y-62565280D01*
X106324400Y-60307220D01*
X102478655Y-60307220D01*
X102368854Y-60678233D01*
X77931373Y-60678233D01*
X80495606Y-58114000D01*
X103552725Y-58114000D01*
X102925045Y-58583531D01*
X102925045Y-58583531D01*
G37*
X102925045Y-58583531D02*
X102449231Y-59384830D01*
X102368854Y-59682207D01*
X102478655Y-60053220D01*
X106324400Y-60053220D01*
X106324400Y-60033220D01*
X106578400Y-60033220D01*
X106578400Y-60053220D01*
X106598400Y-60053220D01*
X106598400Y-60307220D01*
X106578400Y-60307220D01*
X106578400Y-62565280D01*
X108328460Y-62565280D01*
X109231516Y-62335127D01*
X109526000Y-62114841D01*
X109526000Y-68443699D01*
X109231516Y-68223413D01*
X108328460Y-67993260D01*
X106578400Y-67993260D01*
X106578400Y-70251320D01*
X106598400Y-70251320D01*
X106598400Y-70505320D01*
X106578400Y-70505320D01*
X106578400Y-72763380D01*
X108328460Y-72763380D01*
X109231516Y-72533227D01*
X109526000Y-72312941D01*
X109526000Y-77014000D01*
X94404554Y-77014000D01*
X96885277Y-74533277D01*
X97152991Y-74132614D01*
X97247000Y-73660000D01*
X97247000Y-70876333D01*
X102368854Y-70876333D01*
X102449231Y-71173710D01*
X102925045Y-71975009D01*
X103671284Y-72533227D01*
X104574340Y-72763380D01*
X106324400Y-72763380D01*
X106324400Y-70505320D01*
X102478655Y-70505320D01*
X102368854Y-70876333D01*
X97247000Y-70876333D01*
X97247000Y-69880307D01*
X102368854Y-69880307D01*
X102478655Y-70251320D01*
X106324400Y-70251320D01*
X106324400Y-67993260D01*
X104574340Y-67993260D01*
X103671284Y-68223413D01*
X102925045Y-68781631D01*
X102449231Y-69582930D01*
X102368854Y-69880307D01*
X97247000Y-69880307D01*
X97247000Y-69596000D01*
X97152991Y-69123386D01*
X96885277Y-68722723D01*
X96484614Y-68455009D01*
X96012000Y-68361000D01*
X95539386Y-68455009D01*
X95138723Y-68722723D01*
X94871009Y-69123386D01*
X94777000Y-69596000D01*
X94777000Y-73148446D01*
X94570348Y-73355098D01*
X94494250Y-73279000D01*
X93345000Y-73279000D01*
X93345000Y-74428250D01*
X93421098Y-74504348D01*
X92198446Y-75727000D01*
X87545409Y-75727000D01*
X87740716Y-75256648D01*
X87741284Y-74606205D01*
X87492894Y-74005057D01*
X87033363Y-73544722D01*
X86771982Y-73436187D01*
X89782752Y-73436187D01*
X90000757Y-73963800D01*
X90404077Y-74367824D01*
X90931309Y-74586750D01*
X91502187Y-74587248D01*
X91964287Y-74396312D01*
X92058302Y-74490327D01*
X92291691Y-74587000D01*
X92932250Y-74587000D01*
X93091000Y-74428250D01*
X93091000Y-73279000D01*
X93071000Y-73279000D01*
X93071000Y-73025000D01*
X93091000Y-73025000D01*
X93091000Y-71875750D01*
X93345000Y-71875750D01*
X93345000Y-73025000D01*
X94494250Y-73025000D01*
X94653000Y-72866250D01*
X94653000Y-72225690D01*
X94556327Y-71992301D01*
X94377698Y-71813673D01*
X94144309Y-71717000D01*
X93503750Y-71717000D01*
X93345000Y-71875750D01*
X93091000Y-71875750D01*
X92932250Y-71717000D01*
X92291691Y-71717000D01*
X92058302Y-71813673D01*
X91964002Y-71907973D01*
X91504691Y-71717250D01*
X90933813Y-71716752D01*
X90406200Y-71934757D01*
X90002176Y-72338077D01*
X89783250Y-72865309D01*
X89782752Y-73436187D01*
X86771982Y-73436187D01*
X86432648Y-73295284D01*
X85782205Y-73294716D01*
X85181057Y-73543106D01*
X84720722Y-74002637D01*
X84471284Y-74603352D01*
X84470716Y-75253795D01*
X84666241Y-75727000D01*
X83735409Y-75727000D01*
X83930716Y-75256648D01*
X83931284Y-74606205D01*
X83682894Y-74005057D01*
X83223363Y-73544722D01*
X82622648Y-73295284D01*
X81972205Y-73294716D01*
X81371057Y-73543106D01*
X80910722Y-74002637D01*
X80661284Y-74603352D01*
X80660716Y-75253795D01*
X80856241Y-75727000D01*
X80133440Y-75727000D01*
X80133440Y-73930000D01*
X80089162Y-73694683D01*
X79950090Y-73478559D01*
X79737890Y-73333569D01*
X79486000Y-73282560D01*
X78585114Y-73282560D01*
X77581277Y-72278723D01*
X77180614Y-72011009D01*
X76708000Y-71917000D01*
X76387554Y-71917000D01*
X76711554Y-71593000D01*
X79248000Y-71593000D01*
X79720614Y-71498991D01*
X80121277Y-71231277D01*
X80388991Y-70830614D01*
X80483000Y-70358000D01*
X80388991Y-69885386D01*
X80121277Y-69484723D01*
X79720614Y-69217009D01*
X79248000Y-69123000D01*
X76200000Y-69123000D01*
X75727386Y-69217009D01*
X75326723Y-69484723D01*
X73106886Y-71704560D01*
X72606000Y-71704560D01*
X72370683Y-71748838D01*
X72154559Y-71887910D01*
X72150023Y-71894548D01*
X71622777Y-71705035D01*
X71052546Y-71732222D01*
X70651995Y-71898136D01*
X70577861Y-72144255D01*
X71406000Y-72972395D01*
X71420142Y-72958252D01*
X71599748Y-73137858D01*
X71585605Y-73152000D01*
X71599748Y-73166143D01*
X71420142Y-73345748D01*
X71406000Y-73331605D01*
X70577861Y-74159745D01*
X70651995Y-74405864D01*
X71189223Y-74598965D01*
X71759454Y-74571778D01*
X72150947Y-74409616D01*
X72354110Y-74548431D01*
X72606000Y-74599440D01*
X73106886Y-74599440D01*
X75521446Y-77014000D01*
X70589606Y-77014000D01*
X68707000Y-75131394D01*
X68707000Y-72935223D01*
X69959035Y-72935223D01*
X69986222Y-73505454D01*
X70152136Y-73906005D01*
X70398255Y-73980139D01*
X71226395Y-73152000D01*
X70398255Y-72323861D01*
X70152136Y-72397995D01*
X69959035Y-72935223D01*
X68707000Y-72935223D01*
X68707000Y-72442606D01*
X71172606Y-69977000D01*
X74422000Y-69977000D01*
X74471410Y-69966994D01*
X74511803Y-69939803D01*
X76289803Y-68161803D01*
X76317666Y-68119789D01*
X76327000Y-68072000D01*
X76327000Y-65278000D01*
X99424397Y-65278000D01*
X99533637Y-65827189D01*
X99844728Y-66292769D01*
X100310308Y-66603860D01*
X100859497Y-66713100D01*
X101832503Y-66713100D01*
X102381692Y-66603860D01*
X102847272Y-66292769D01*
X103158363Y-65827189D01*
X103267603Y-65278000D01*
X103158363Y-64728811D01*
X102847272Y-64263231D01*
X102468480Y-64010130D01*
X102900152Y-63662967D01*
X103170041Y-63169857D01*
X103187583Y-63087055D01*
X103065596Y-62865000D01*
X101473000Y-62865000D01*
X101473000Y-62885000D01*
X101219000Y-62885000D01*
X101219000Y-62865000D01*
X99626404Y-62865000D01*
X99504417Y-63087055D01*
X99521959Y-63169857D01*
X99791848Y-63662967D01*
X100223520Y-64010130D01*
X99844728Y-64263231D01*
X99533637Y-64728811D01*
X99424397Y-65278000D01*
X76327000Y-65278000D01*
X76327000Y-62415167D01*
X81360838Y-62415167D01*
X81502883Y-62758943D01*
X81765673Y-63022192D01*
X82109201Y-63164838D01*
X82481167Y-63165162D01*
X82824943Y-63023117D01*
X83088192Y-62760327D01*
X83119476Y-62684986D01*
X85440657Y-62684986D01*
X85582702Y-63028762D01*
X85845492Y-63292011D01*
X86189020Y-63434657D01*
X86560986Y-63434981D01*
X86904762Y-63292936D01*
X87168011Y-63030146D01*
X87310657Y-62686618D01*
X87310916Y-62388945D01*
X99504417Y-62388945D01*
X99626404Y-62611000D01*
X101219000Y-62611000D01*
X101219000Y-61302900D01*
X101473000Y-61302900D01*
X101473000Y-62611000D01*
X103065596Y-62611000D01*
X103187583Y-62388945D01*
X103170041Y-62306143D01*
X102900152Y-61813033D01*
X102462102Y-61460741D01*
X101922580Y-61302900D01*
X101473000Y-61302900D01*
X101219000Y-61302900D01*
X100769420Y-61302900D01*
X100229898Y-61460741D01*
X99791848Y-61813033D01*
X99521959Y-62306143D01*
X99504417Y-62388945D01*
X87310916Y-62388945D01*
X87310981Y-62314652D01*
X87168936Y-61970876D01*
X86906146Y-61707627D01*
X86562618Y-61564981D01*
X86190652Y-61564657D01*
X85846876Y-61706702D01*
X85583627Y-61969492D01*
X85440981Y-62313020D01*
X85440657Y-62684986D01*
X83119476Y-62684986D01*
X83230838Y-62416799D01*
X83231162Y-62044833D01*
X83089117Y-61701057D01*
X82826327Y-61437808D01*
X82482799Y-61295162D01*
X82110833Y-61294838D01*
X81767057Y-61436883D01*
X81503808Y-61699673D01*
X81361162Y-62043201D01*
X81360838Y-62415167D01*
X76327000Y-62415167D01*
X76327000Y-62282606D01*
X77931373Y-60678233D01*
X102368854Y-60678233D01*
X102449231Y-60975610D01*
X102925045Y-61776909D01*
X103671284Y-62335127D01*
X104574340Y-62565280D01*
X106324400Y-62565280D01*
X106324400Y-60307220D01*
X102478655Y-60307220D01*
X102368854Y-60678233D01*
X77931373Y-60678233D01*
X80495606Y-58114000D01*
X103552725Y-58114000D01*
X102925045Y-58583531D01*
M02*
