G04 #@! TF.FileFunction,Paste,Bot*
%FSLAX46Y46*%
G04 Gerber Fmt 4.6, Leading zero omitted, Abs format (unit mm)*
G04 Created by KiCad (PCBNEW 4.0.7) date Fri Jun  8 12:20:10 2018*
%MOMM*%
%LPD*%
G01*
G04 APERTURE LIST*
%ADD10C,0.100000*%
%ADD11R,1.050000X0.450000*%
%ADD12R,0.882000X0.537000*%
%ADD13R,0.750000X0.800000*%
%ADD14R,1.250000X1.000000*%
%ADD15R,0.500000X0.900000*%
%ADD16R,0.900000X0.500000*%
%ADD17R,0.890000X0.420000*%
%ADD18R,0.495000X0.427500*%
%ADD19R,0.800000X0.750000*%
%ADD20R,1.550000X0.600000*%
G04 APERTURE END LIST*
D10*
D11*
X181613000Y-105555000D03*
X181613000Y-106205000D03*
X181613000Y-106855000D03*
X181613000Y-107505000D03*
X181613000Y-108155000D03*
X181613000Y-108805000D03*
X181613000Y-109455000D03*
X181613000Y-110105000D03*
X176063000Y-110105000D03*
X176063000Y-109455000D03*
X176063000Y-108805000D03*
X176063000Y-108155000D03*
X176063000Y-107505000D03*
X176063000Y-106855000D03*
X176063000Y-106205000D03*
X176063000Y-105555000D03*
D12*
X178103000Y-109172500D03*
X178103000Y-108277500D03*
X178103000Y-107382500D03*
X178103000Y-106487500D03*
X179573000Y-109172500D03*
X179573000Y-108277500D03*
X179573000Y-107382500D03*
X179573000Y-106487500D03*
D13*
X165794000Y-119156000D03*
X165794000Y-117656000D03*
X165794000Y-106734000D03*
X165794000Y-108234000D03*
X174430000Y-118902000D03*
X174430000Y-117402000D03*
X174430000Y-106988000D03*
X174430000Y-108488000D03*
D14*
X172652000Y-119152000D03*
X172652000Y-117152000D03*
X172652000Y-106738000D03*
X172652000Y-108738000D03*
X170620000Y-119152000D03*
X170620000Y-117152000D03*
X170620000Y-106738000D03*
X170620000Y-108738000D03*
X185088000Y-109155000D03*
X185088000Y-111155000D03*
X183828000Y-118390000D03*
X183828000Y-116390000D03*
X186963000Y-109130000D03*
X186963000Y-111130000D03*
X186368000Y-118390000D03*
X186368000Y-116390000D03*
D13*
X185713000Y-120780000D03*
X185713000Y-122280000D03*
X187113000Y-107005000D03*
X187113000Y-105505000D03*
D14*
X184138000Y-120780000D03*
X184138000Y-122780000D03*
X185438000Y-107130000D03*
X185438000Y-105130000D03*
X182338000Y-120780000D03*
X182338000Y-122780000D03*
X183563000Y-107130000D03*
X183563000Y-105130000D03*
D15*
X168830000Y-119168000D03*
X167330000Y-119168000D03*
X168830000Y-106722000D03*
X167330000Y-106722000D03*
D16*
X183288000Y-110930000D03*
X183288000Y-109430000D03*
X182050000Y-116640000D03*
X182050000Y-118140000D03*
X188713000Y-105455000D03*
X188713000Y-106955000D03*
X187388000Y-122155000D03*
X187388000Y-120655000D03*
D17*
X176135000Y-120793000D03*
X176135000Y-120143000D03*
X176135000Y-119493000D03*
X176135000Y-118843000D03*
X176135000Y-118193000D03*
X176135000Y-117543000D03*
X180345000Y-117543000D03*
X180345000Y-118193000D03*
X180345000Y-118843000D03*
X180345000Y-119493000D03*
X180345000Y-120143000D03*
X180345000Y-120793000D03*
D18*
X178652500Y-118099250D03*
X178652500Y-118811750D03*
X178652500Y-119524250D03*
X178652500Y-120236750D03*
X177827500Y-118099250D03*
X177827500Y-118811750D03*
X177827500Y-119524250D03*
X177827500Y-120236750D03*
D13*
X170180000Y-130060000D03*
X170180000Y-131560000D03*
X157988000Y-133338000D03*
X157988000Y-131838000D03*
X170180000Y-128766000D03*
X170180000Y-127266000D03*
D19*
X170192000Y-135382000D03*
X171692000Y-135382000D03*
X185432000Y-134874000D03*
X186932000Y-134874000D03*
D13*
X176276000Y-130314000D03*
X176276000Y-131814000D03*
X174752000Y-130314000D03*
X174752000Y-131814000D03*
D19*
X185432000Y-133350000D03*
X186932000Y-133350000D03*
X170192000Y-136906000D03*
X171692000Y-136906000D03*
D13*
X175006000Y-134886000D03*
X175006000Y-136386000D03*
D19*
X182106000Y-129032000D03*
X180606000Y-129032000D03*
D13*
X188468000Y-131838000D03*
X188468000Y-133338000D03*
D15*
X156198000Y-133858000D03*
X154698000Y-133858000D03*
X156198000Y-131318000D03*
X154698000Y-131318000D03*
D16*
X171704000Y-139688000D03*
X171704000Y-138188000D03*
X160274000Y-133362000D03*
X160274000Y-134862000D03*
D15*
X171692000Y-133350000D03*
X170192000Y-133350000D03*
X178550000Y-127508000D03*
X177050000Y-127508000D03*
X176264000Y-133350000D03*
X174764000Y-133350000D03*
X186932000Y-131826000D03*
X185432000Y-131826000D03*
D20*
X162908000Y-134493000D03*
X162908000Y-133223000D03*
X162908000Y-131953000D03*
X162908000Y-130683000D03*
X168308000Y-130683000D03*
X168308000Y-131953000D03*
X168308000Y-133223000D03*
X168308000Y-134493000D03*
X178148000Y-134493000D03*
X178148000Y-133223000D03*
X178148000Y-131953000D03*
X178148000Y-130683000D03*
X183548000Y-130683000D03*
X183548000Y-131953000D03*
X183548000Y-133223000D03*
X183548000Y-134493000D03*
D16*
X160274000Y-130314000D03*
X160274000Y-131814000D03*
D13*
X172720000Y-97524000D03*
X172720000Y-96024000D03*
X184912000Y-94246000D03*
X184912000Y-95746000D03*
X172720000Y-98818000D03*
X172720000Y-100318000D03*
D19*
X172708000Y-92202000D03*
X171208000Y-92202000D03*
X157468000Y-92710000D03*
X155968000Y-92710000D03*
D13*
X166624000Y-97270000D03*
X166624000Y-95770000D03*
X168148000Y-97270000D03*
X168148000Y-95770000D03*
D19*
X157468000Y-94234000D03*
X155968000Y-94234000D03*
X172708000Y-90678000D03*
X171208000Y-90678000D03*
D13*
X167894000Y-92698000D03*
X167894000Y-91198000D03*
D19*
X160794000Y-98552000D03*
X162294000Y-98552000D03*
D13*
X154432000Y-95746000D03*
X154432000Y-94246000D03*
D15*
X186702000Y-93726000D03*
X188202000Y-93726000D03*
X186702000Y-96266000D03*
X188202000Y-96266000D03*
D16*
X171196000Y-87896000D03*
X171196000Y-89396000D03*
X182626000Y-94222000D03*
X182626000Y-92722000D03*
D15*
X171208000Y-94234000D03*
X172708000Y-94234000D03*
X164350000Y-100076000D03*
X165850000Y-100076000D03*
X166636000Y-94234000D03*
X168136000Y-94234000D03*
X155968000Y-95758000D03*
X157468000Y-95758000D03*
D20*
X179992000Y-93091000D03*
X179992000Y-94361000D03*
X179992000Y-95631000D03*
X179992000Y-96901000D03*
X174592000Y-96901000D03*
X174592000Y-95631000D03*
X174592000Y-94361000D03*
X174592000Y-93091000D03*
X164752000Y-93091000D03*
X164752000Y-94361000D03*
X164752000Y-95631000D03*
X164752000Y-96901000D03*
X159352000Y-96901000D03*
X159352000Y-95631000D03*
X159352000Y-94361000D03*
X159352000Y-93091000D03*
D16*
X182626000Y-97270000D03*
X182626000Y-95770000D03*
M02*
