G04 #@! TF.FileFunction,Soldermask,Top*
%FSLAX46Y46*%
G04 Gerber Fmt 4.6, Leading zero omitted, Abs format (unit mm)*
G04 Created by KiCad (PCBNEW 4.0.7) date Fri Jun  8 12:20:10 2018*
%MOMM*%
%LPD*%
G01*
G04 APERTURE LIST*
%ADD10C,0.100000*%
%ADD11R,2.400000X2.400000*%
%ADD12C,2.400000*%
%ADD13R,1.150000X1.200000*%
%ADD14R,1.200000X1.150000*%
%ADD15R,3.190000X1.590000*%
%ADD16R,2.000000X2.000000*%
%ADD17C,2.000000*%
%ADD18O,7.400240X3.900120*%
%ADD19O,2.899360X2.000200*%
G04 APERTURE END LIST*
D10*
D11*
X158242000Y-115824000D03*
D12*
X158242000Y-120824000D03*
D13*
X180913000Y-111405000D03*
X180913000Y-109905000D03*
D14*
X183988000Y-115180000D03*
X185488000Y-115180000D03*
D12*
X147574000Y-116586000D03*
D11*
X147574000Y-108966000D03*
D12*
X147574000Y-112776000D03*
X196038000Y-116415000D03*
D11*
X196038000Y-108795000D03*
D12*
X196038000Y-112605000D03*
D15*
X186408000Y-110695000D03*
X181568000Y-108155000D03*
X186408000Y-105615000D03*
X182568000Y-116815000D03*
X187408000Y-119355000D03*
X182568000Y-121895000D03*
D11*
X163576000Y-106680000D03*
D12*
X163576000Y-111680000D03*
D16*
X182626000Y-139700000D03*
D17*
X180626000Y-139700000D03*
D16*
X162814000Y-139700000D03*
D17*
X160814000Y-139700000D03*
D12*
X175514000Y-141478000D03*
D11*
X167894000Y-141478000D03*
D12*
X171704000Y-141478000D03*
D18*
X147294600Y-138955780D03*
X147294600Y-128757680D03*
D19*
X152400000Y-133858000D03*
X152400000Y-136398000D03*
D18*
X195859400Y-126728220D03*
X195859400Y-136926320D03*
D19*
X190754000Y-131826000D03*
X190754000Y-129286000D03*
D16*
X160274000Y-87884000D03*
D17*
X162274000Y-87884000D03*
D16*
X180086000Y-87884000D03*
D17*
X182086000Y-87884000D03*
D12*
X167386000Y-86106000D03*
D11*
X175006000Y-86106000D03*
D12*
X171196000Y-86106000D03*
D18*
X195605400Y-88628220D03*
X195605400Y-98826320D03*
D19*
X190500000Y-93726000D03*
X190500000Y-91186000D03*
D18*
X147040600Y-100855780D03*
X147040600Y-90657680D03*
D19*
X152146000Y-95758000D03*
X152146000Y-98298000D03*
M02*
