G04 #@! TF.FileFunction,Legend,Bot*
%FSLAX46Y46*%
G04 Gerber Fmt 4.6, Leading zero omitted, Abs format (unit mm)*
G04 Created by KiCad (PCBNEW 4.0.7) date Fri Jun  8 12:20:10 2018*
%MOMM*%
%LPD*%
G01*
G04 APERTURE LIST*
%ADD10C,0.100000*%
%ADD11C,0.150000*%
%ADD12C,0.120000*%
G04 APERTURE END LIST*
D10*
D11*
X181088000Y-110555000D02*
X176588000Y-110555000D01*
X182213000Y-105005000D02*
X176588000Y-105005000D01*
D12*
X166394000Y-118756000D02*
X166394000Y-118056000D01*
X165194000Y-118056000D02*
X165194000Y-118756000D01*
X165194000Y-107134000D02*
X165194000Y-107834000D01*
X166394000Y-107834000D02*
X166394000Y-107134000D01*
X175030000Y-118502000D02*
X175030000Y-117802000D01*
X173830000Y-117802000D02*
X173830000Y-118502000D01*
X173830000Y-107388000D02*
X173830000Y-108088000D01*
X175030000Y-108088000D02*
X175030000Y-107388000D01*
X173502000Y-117652000D02*
X173502000Y-118652000D01*
X171802000Y-118652000D02*
X171802000Y-117652000D01*
X171802000Y-108238000D02*
X171802000Y-107238000D01*
X173502000Y-107238000D02*
X173502000Y-108238000D01*
X171470000Y-117652000D02*
X171470000Y-118652000D01*
X169770000Y-118652000D02*
X169770000Y-117652000D01*
X169770000Y-108238000D02*
X169770000Y-107238000D01*
X171470000Y-107238000D02*
X171470000Y-108238000D01*
X184238000Y-110655000D02*
X184238000Y-109655000D01*
X185938000Y-109655000D02*
X185938000Y-110655000D01*
X184678000Y-116890000D02*
X184678000Y-117890000D01*
X182978000Y-117890000D02*
X182978000Y-116890000D01*
X186113000Y-110630000D02*
X186113000Y-109630000D01*
X187813000Y-109630000D02*
X187813000Y-110630000D01*
X187218000Y-116890000D02*
X187218000Y-117890000D01*
X185518000Y-117890000D02*
X185518000Y-116890000D01*
X185113000Y-121180000D02*
X185113000Y-121880000D01*
X186313000Y-121880000D02*
X186313000Y-121180000D01*
X187713000Y-106605000D02*
X187713000Y-105905000D01*
X186513000Y-105905000D02*
X186513000Y-106605000D01*
X183288000Y-122280000D02*
X183288000Y-121280000D01*
X184988000Y-121280000D02*
X184988000Y-122280000D01*
X186288000Y-105630000D02*
X186288000Y-106630000D01*
X184588000Y-106630000D02*
X184588000Y-105630000D01*
X181488000Y-122280000D02*
X181488000Y-121280000D01*
X183188000Y-121280000D02*
X183188000Y-122280000D01*
X184413000Y-105630000D02*
X184413000Y-106630000D01*
X182713000Y-106630000D02*
X182713000Y-105630000D01*
D11*
X167580000Y-119843000D02*
X168580000Y-119843000D01*
X168580000Y-118493000D02*
X167580000Y-118493000D01*
X167580000Y-107397000D02*
X168580000Y-107397000D01*
X168580000Y-106047000D02*
X167580000Y-106047000D01*
X182613000Y-109680000D02*
X182613000Y-110680000D01*
X183963000Y-110680000D02*
X183963000Y-109680000D01*
X182725000Y-117890000D02*
X182725000Y-116890000D01*
X181375000Y-116890000D02*
X181375000Y-117890000D01*
X189388000Y-106705000D02*
X189388000Y-105705000D01*
X188038000Y-105705000D02*
X188038000Y-106705000D01*
X186713000Y-120905000D02*
X186713000Y-121905000D01*
X188063000Y-121905000D02*
X188063000Y-120905000D01*
X179865000Y-121293000D02*
X179865000Y-121228000D01*
X179865000Y-117043000D02*
X179865000Y-117108000D01*
X176615000Y-117043000D02*
X176615000Y-117108000D01*
X176615000Y-121293000D02*
X179865000Y-121293000D01*
X176615000Y-117043000D02*
X179865000Y-117043000D01*
X176615000Y-121293000D02*
X175690000Y-121293000D01*
D12*
X169580000Y-130460000D02*
X169580000Y-131160000D01*
X170780000Y-131160000D02*
X170780000Y-130460000D01*
X158588000Y-132938000D02*
X158588000Y-132238000D01*
X157388000Y-132238000D02*
X157388000Y-132938000D01*
X170780000Y-128366000D02*
X170780000Y-127666000D01*
X169580000Y-127666000D02*
X169580000Y-128366000D01*
X170592000Y-135982000D02*
X171292000Y-135982000D01*
X171292000Y-134782000D02*
X170592000Y-134782000D01*
X185832000Y-135474000D02*
X186532000Y-135474000D01*
X186532000Y-134274000D02*
X185832000Y-134274000D01*
X175676000Y-130714000D02*
X175676000Y-131414000D01*
X176876000Y-131414000D02*
X176876000Y-130714000D01*
X174152000Y-130714000D02*
X174152000Y-131414000D01*
X175352000Y-131414000D02*
X175352000Y-130714000D01*
X185832000Y-133950000D02*
X186532000Y-133950000D01*
X186532000Y-132750000D02*
X185832000Y-132750000D01*
X170592000Y-137506000D02*
X171292000Y-137506000D01*
X171292000Y-136306000D02*
X170592000Y-136306000D01*
X174406000Y-135286000D02*
X174406000Y-135986000D01*
X175606000Y-135986000D02*
X175606000Y-135286000D01*
X181706000Y-128432000D02*
X181006000Y-128432000D01*
X181006000Y-129632000D02*
X181706000Y-129632000D01*
X187868000Y-132238000D02*
X187868000Y-132938000D01*
X189068000Y-132938000D02*
X189068000Y-132238000D01*
D11*
X154948000Y-134533000D02*
X155948000Y-134533000D01*
X155948000Y-133183000D02*
X154948000Y-133183000D01*
X154948000Y-131993000D02*
X155948000Y-131993000D01*
X155948000Y-130643000D02*
X154948000Y-130643000D01*
X171029000Y-138438000D02*
X171029000Y-139438000D01*
X172379000Y-139438000D02*
X172379000Y-138438000D01*
X160949000Y-134612000D02*
X160949000Y-133612000D01*
X159599000Y-133612000D02*
X159599000Y-134612000D01*
X170442000Y-134025000D02*
X171442000Y-134025000D01*
X171442000Y-132675000D02*
X170442000Y-132675000D01*
X177300000Y-128183000D02*
X178300000Y-128183000D01*
X178300000Y-126833000D02*
X177300000Y-126833000D01*
X175014000Y-134025000D02*
X176014000Y-134025000D01*
X176014000Y-132675000D02*
X175014000Y-132675000D01*
X185682000Y-132501000D02*
X186682000Y-132501000D01*
X186682000Y-131151000D02*
X185682000Y-131151000D01*
X163533000Y-135163000D02*
X163533000Y-135113000D01*
X167683000Y-135163000D02*
X167683000Y-135018000D01*
X167683000Y-130013000D02*
X167683000Y-130158000D01*
X163533000Y-130013000D02*
X163533000Y-130158000D01*
X163533000Y-135163000D02*
X167683000Y-135163000D01*
X163533000Y-130013000D02*
X167683000Y-130013000D01*
X163533000Y-135113000D02*
X162133000Y-135113000D01*
X178773000Y-135163000D02*
X178773000Y-135113000D01*
X182923000Y-135163000D02*
X182923000Y-135018000D01*
X182923000Y-130013000D02*
X182923000Y-130158000D01*
X178773000Y-130013000D02*
X178773000Y-130158000D01*
X178773000Y-135163000D02*
X182923000Y-135163000D01*
X178773000Y-130013000D02*
X182923000Y-130013000D01*
X178773000Y-135113000D02*
X177373000Y-135113000D01*
X160949000Y-131564000D02*
X160949000Y-130564000D01*
X159599000Y-130564000D02*
X159599000Y-131564000D01*
D12*
X173320000Y-97124000D02*
X173320000Y-96424000D01*
X172120000Y-96424000D02*
X172120000Y-97124000D01*
X184312000Y-94646000D02*
X184312000Y-95346000D01*
X185512000Y-95346000D02*
X185512000Y-94646000D01*
X172120000Y-99218000D02*
X172120000Y-99918000D01*
X173320000Y-99918000D02*
X173320000Y-99218000D01*
X172308000Y-91602000D02*
X171608000Y-91602000D01*
X171608000Y-92802000D02*
X172308000Y-92802000D01*
X157068000Y-92110000D02*
X156368000Y-92110000D01*
X156368000Y-93310000D02*
X157068000Y-93310000D01*
X167224000Y-96870000D02*
X167224000Y-96170000D01*
X166024000Y-96170000D02*
X166024000Y-96870000D01*
X168748000Y-96870000D02*
X168748000Y-96170000D01*
X167548000Y-96170000D02*
X167548000Y-96870000D01*
X157068000Y-93634000D02*
X156368000Y-93634000D01*
X156368000Y-94834000D02*
X157068000Y-94834000D01*
X172308000Y-90078000D02*
X171608000Y-90078000D01*
X171608000Y-91278000D02*
X172308000Y-91278000D01*
X168494000Y-92298000D02*
X168494000Y-91598000D01*
X167294000Y-91598000D02*
X167294000Y-92298000D01*
X161194000Y-99152000D02*
X161894000Y-99152000D01*
X161894000Y-97952000D02*
X161194000Y-97952000D01*
X155032000Y-95346000D02*
X155032000Y-94646000D01*
X153832000Y-94646000D02*
X153832000Y-95346000D01*
D11*
X187952000Y-93051000D02*
X186952000Y-93051000D01*
X186952000Y-94401000D02*
X187952000Y-94401000D01*
X187952000Y-95591000D02*
X186952000Y-95591000D01*
X186952000Y-96941000D02*
X187952000Y-96941000D01*
X171871000Y-89146000D02*
X171871000Y-88146000D01*
X170521000Y-88146000D02*
X170521000Y-89146000D01*
X181951000Y-92972000D02*
X181951000Y-93972000D01*
X183301000Y-93972000D02*
X183301000Y-92972000D01*
X172458000Y-93559000D02*
X171458000Y-93559000D01*
X171458000Y-94909000D02*
X172458000Y-94909000D01*
X165600000Y-99401000D02*
X164600000Y-99401000D01*
X164600000Y-100751000D02*
X165600000Y-100751000D01*
X167886000Y-93559000D02*
X166886000Y-93559000D01*
X166886000Y-94909000D02*
X167886000Y-94909000D01*
X157218000Y-95083000D02*
X156218000Y-95083000D01*
X156218000Y-96433000D02*
X157218000Y-96433000D01*
X179367000Y-92421000D02*
X179367000Y-92471000D01*
X175217000Y-92421000D02*
X175217000Y-92566000D01*
X175217000Y-97571000D02*
X175217000Y-97426000D01*
X179367000Y-97571000D02*
X179367000Y-97426000D01*
X179367000Y-92421000D02*
X175217000Y-92421000D01*
X179367000Y-97571000D02*
X175217000Y-97571000D01*
X179367000Y-92471000D02*
X180767000Y-92471000D01*
X164127000Y-92421000D02*
X164127000Y-92471000D01*
X159977000Y-92421000D02*
X159977000Y-92566000D01*
X159977000Y-97571000D02*
X159977000Y-97426000D01*
X164127000Y-97571000D02*
X164127000Y-97426000D01*
X164127000Y-92421000D02*
X159977000Y-92421000D01*
X164127000Y-97571000D02*
X159977000Y-97571000D01*
X164127000Y-92471000D02*
X165527000Y-92471000D01*
X181951000Y-96020000D02*
X181951000Y-97020000D01*
X183301000Y-97020000D02*
X183301000Y-96020000D01*
X179599905Y-103732381D02*
X179599905Y-104541905D01*
X179552286Y-104637143D01*
X179504667Y-104684762D01*
X179409429Y-104732381D01*
X179218952Y-104732381D01*
X179123714Y-104684762D01*
X179076095Y-104637143D01*
X179028476Y-104541905D01*
X179028476Y-103732381D01*
X178028476Y-104732381D02*
X178599905Y-104732381D01*
X178314191Y-104732381D02*
X178314191Y-103732381D01*
X178409429Y-103875238D01*
X178504667Y-103970476D01*
X178599905Y-104018095D01*
X167651143Y-118239334D02*
X167698762Y-118191715D01*
X167746381Y-118048858D01*
X167746381Y-117953620D01*
X167698762Y-117810762D01*
X167603524Y-117715524D01*
X167508286Y-117667905D01*
X167317810Y-117620286D01*
X167174952Y-117620286D01*
X166984476Y-117667905D01*
X166889238Y-117715524D01*
X166794000Y-117810762D01*
X166746381Y-117953620D01*
X166746381Y-118048858D01*
X166794000Y-118191715D01*
X166841619Y-118239334D01*
X166746381Y-118572667D02*
X166746381Y-119191715D01*
X167127333Y-118858381D01*
X167127333Y-119001239D01*
X167174952Y-119096477D01*
X167222571Y-119144096D01*
X167317810Y-119191715D01*
X167555905Y-119191715D01*
X167651143Y-119144096D01*
X167698762Y-119096477D01*
X167746381Y-119001239D01*
X167746381Y-118715524D01*
X167698762Y-118620286D01*
X167651143Y-118572667D01*
X164651143Y-107317334D02*
X164698762Y-107269715D01*
X164746381Y-107126858D01*
X164746381Y-107031620D01*
X164698762Y-106888762D01*
X164603524Y-106793524D01*
X164508286Y-106745905D01*
X164317810Y-106698286D01*
X164174952Y-106698286D01*
X163984476Y-106745905D01*
X163889238Y-106793524D01*
X163794000Y-106888762D01*
X163746381Y-107031620D01*
X163746381Y-107126858D01*
X163794000Y-107269715D01*
X163841619Y-107317334D01*
X164079714Y-108174477D02*
X164746381Y-108174477D01*
X163698762Y-107936381D02*
X164413048Y-107698286D01*
X164413048Y-108317334D01*
X176287143Y-117985334D02*
X176334762Y-117937715D01*
X176382381Y-117794858D01*
X176382381Y-117699620D01*
X176334762Y-117556762D01*
X176239524Y-117461524D01*
X176144286Y-117413905D01*
X175953810Y-117366286D01*
X175810952Y-117366286D01*
X175620476Y-117413905D01*
X175525238Y-117461524D01*
X175430000Y-117556762D01*
X175382381Y-117699620D01*
X175382381Y-117794858D01*
X175430000Y-117937715D01*
X175477619Y-117985334D01*
X175382381Y-118890096D02*
X175382381Y-118413905D01*
X175858571Y-118366286D01*
X175810952Y-118413905D01*
X175763333Y-118509143D01*
X175763333Y-118747239D01*
X175810952Y-118842477D01*
X175858571Y-118890096D01*
X175953810Y-118937715D01*
X176191905Y-118937715D01*
X176287143Y-118890096D01*
X176334762Y-118842477D01*
X176382381Y-118747239D01*
X176382381Y-118509143D01*
X176334762Y-118413905D01*
X176287143Y-118366286D01*
X173287143Y-107571334D02*
X173334762Y-107523715D01*
X173382381Y-107380858D01*
X173382381Y-107285620D01*
X173334762Y-107142762D01*
X173239524Y-107047524D01*
X173144286Y-106999905D01*
X172953810Y-106952286D01*
X172810952Y-106952286D01*
X172620476Y-106999905D01*
X172525238Y-107047524D01*
X172430000Y-107142762D01*
X172382381Y-107285620D01*
X172382381Y-107380858D01*
X172430000Y-107523715D01*
X172477619Y-107571334D01*
X172382381Y-108428477D02*
X172382381Y-108238000D01*
X172430000Y-108142762D01*
X172477619Y-108095143D01*
X172620476Y-107999905D01*
X172810952Y-107952286D01*
X173191905Y-107952286D01*
X173287143Y-107999905D01*
X173334762Y-108047524D01*
X173382381Y-108142762D01*
X173382381Y-108333239D01*
X173334762Y-108428477D01*
X173287143Y-108476096D01*
X173191905Y-108523715D01*
X172953810Y-108523715D01*
X172858571Y-108476096D01*
X172810952Y-108428477D01*
X172763333Y-108333239D01*
X172763333Y-108142762D01*
X172810952Y-108047524D01*
X172858571Y-107999905D01*
X172953810Y-107952286D01*
X174509143Y-117985334D02*
X174556762Y-117937715D01*
X174604381Y-117794858D01*
X174604381Y-117699620D01*
X174556762Y-117556762D01*
X174461524Y-117461524D01*
X174366286Y-117413905D01*
X174175810Y-117366286D01*
X174032952Y-117366286D01*
X173842476Y-117413905D01*
X173747238Y-117461524D01*
X173652000Y-117556762D01*
X173604381Y-117699620D01*
X173604381Y-117794858D01*
X173652000Y-117937715D01*
X173699619Y-117985334D01*
X173604381Y-118318667D02*
X173604381Y-118985334D01*
X174604381Y-118556762D01*
X171509143Y-107571334D02*
X171556762Y-107523715D01*
X171604381Y-107380858D01*
X171604381Y-107285620D01*
X171556762Y-107142762D01*
X171461524Y-107047524D01*
X171366286Y-106999905D01*
X171175810Y-106952286D01*
X171032952Y-106952286D01*
X170842476Y-106999905D01*
X170747238Y-107047524D01*
X170652000Y-107142762D01*
X170604381Y-107285620D01*
X170604381Y-107380858D01*
X170652000Y-107523715D01*
X170699619Y-107571334D01*
X171032952Y-108142762D02*
X170985333Y-108047524D01*
X170937714Y-107999905D01*
X170842476Y-107952286D01*
X170794857Y-107952286D01*
X170699619Y-107999905D01*
X170652000Y-108047524D01*
X170604381Y-108142762D01*
X170604381Y-108333239D01*
X170652000Y-108428477D01*
X170699619Y-108476096D01*
X170794857Y-108523715D01*
X170842476Y-108523715D01*
X170937714Y-108476096D01*
X170985333Y-108428477D01*
X171032952Y-108333239D01*
X171032952Y-108142762D01*
X171080571Y-108047524D01*
X171128190Y-107999905D01*
X171223429Y-107952286D01*
X171413905Y-107952286D01*
X171509143Y-107999905D01*
X171556762Y-108047524D01*
X171604381Y-108142762D01*
X171604381Y-108333239D01*
X171556762Y-108428477D01*
X171509143Y-108476096D01*
X171413905Y-108523715D01*
X171223429Y-108523715D01*
X171128190Y-108476096D01*
X171080571Y-108428477D01*
X171032952Y-108333239D01*
X172477143Y-117985334D02*
X172524762Y-117937715D01*
X172572381Y-117794858D01*
X172572381Y-117699620D01*
X172524762Y-117556762D01*
X172429524Y-117461524D01*
X172334286Y-117413905D01*
X172143810Y-117366286D01*
X172000952Y-117366286D01*
X171810476Y-117413905D01*
X171715238Y-117461524D01*
X171620000Y-117556762D01*
X171572381Y-117699620D01*
X171572381Y-117794858D01*
X171620000Y-117937715D01*
X171667619Y-117985334D01*
X172572381Y-118461524D02*
X172572381Y-118652000D01*
X172524762Y-118747239D01*
X172477143Y-118794858D01*
X172334286Y-118890096D01*
X172143810Y-118937715D01*
X171762857Y-118937715D01*
X171667619Y-118890096D01*
X171620000Y-118842477D01*
X171572381Y-118747239D01*
X171572381Y-118556762D01*
X171620000Y-118461524D01*
X171667619Y-118413905D01*
X171762857Y-118366286D01*
X172000952Y-118366286D01*
X172096190Y-118413905D01*
X172143810Y-118461524D01*
X172191429Y-118556762D01*
X172191429Y-118747239D01*
X172143810Y-118842477D01*
X172096190Y-118890096D01*
X172000952Y-118937715D01*
X169477143Y-107095143D02*
X169524762Y-107047524D01*
X169572381Y-106904667D01*
X169572381Y-106809429D01*
X169524762Y-106666571D01*
X169429524Y-106571333D01*
X169334286Y-106523714D01*
X169143810Y-106476095D01*
X169000952Y-106476095D01*
X168810476Y-106523714D01*
X168715238Y-106571333D01*
X168620000Y-106666571D01*
X168572381Y-106809429D01*
X168572381Y-106904667D01*
X168620000Y-107047524D01*
X168667619Y-107095143D01*
X169572381Y-108047524D02*
X169572381Y-107476095D01*
X169572381Y-107761809D02*
X168572381Y-107761809D01*
X168715238Y-107666571D01*
X168810476Y-107571333D01*
X168858095Y-107476095D01*
X168572381Y-108666571D02*
X168572381Y-108761810D01*
X168620000Y-108857048D01*
X168667619Y-108904667D01*
X168762857Y-108952286D01*
X168953333Y-108999905D01*
X169191429Y-108999905D01*
X169381905Y-108952286D01*
X169477143Y-108904667D01*
X169524762Y-108857048D01*
X169572381Y-108761810D01*
X169572381Y-108666571D01*
X169524762Y-108571333D01*
X169477143Y-108523714D01*
X169381905Y-108476095D01*
X169191429Y-108428476D01*
X168953333Y-108428476D01*
X168762857Y-108476095D01*
X168667619Y-108523714D01*
X168620000Y-108571333D01*
X168572381Y-108666571D01*
X183945143Y-109512143D02*
X183992762Y-109464524D01*
X184040381Y-109321667D01*
X184040381Y-109226429D01*
X183992762Y-109083571D01*
X183897524Y-108988333D01*
X183802286Y-108940714D01*
X183611810Y-108893095D01*
X183468952Y-108893095D01*
X183278476Y-108940714D01*
X183183238Y-108988333D01*
X183088000Y-109083571D01*
X183040381Y-109226429D01*
X183040381Y-109321667D01*
X183088000Y-109464524D01*
X183135619Y-109512143D01*
X184040381Y-110464524D02*
X184040381Y-109893095D01*
X184040381Y-110178809D02*
X183040381Y-110178809D01*
X183183238Y-110083571D01*
X183278476Y-109988333D01*
X183326095Y-109893095D01*
X183040381Y-110797857D02*
X183040381Y-111416905D01*
X183421333Y-111083571D01*
X183421333Y-111226429D01*
X183468952Y-111321667D01*
X183516571Y-111369286D01*
X183611810Y-111416905D01*
X183849905Y-111416905D01*
X183945143Y-111369286D01*
X183992762Y-111321667D01*
X184040381Y-111226429D01*
X184040381Y-110940714D01*
X183992762Y-110845476D01*
X183945143Y-110797857D01*
X185685143Y-116747143D02*
X185732762Y-116699524D01*
X185780381Y-116556667D01*
X185780381Y-116461429D01*
X185732762Y-116318571D01*
X185637524Y-116223333D01*
X185542286Y-116175714D01*
X185351810Y-116128095D01*
X185208952Y-116128095D01*
X185018476Y-116175714D01*
X184923238Y-116223333D01*
X184828000Y-116318571D01*
X184780381Y-116461429D01*
X184780381Y-116556667D01*
X184828000Y-116699524D01*
X184875619Y-116747143D01*
X185780381Y-117699524D02*
X185780381Y-117128095D01*
X185780381Y-117413809D02*
X184780381Y-117413809D01*
X184923238Y-117318571D01*
X185018476Y-117223333D01*
X185066095Y-117128095D01*
X185113714Y-118556667D02*
X185780381Y-118556667D01*
X184732762Y-118318571D02*
X185447048Y-118080476D01*
X185447048Y-118699524D01*
X185820143Y-109487143D02*
X185867762Y-109439524D01*
X185915381Y-109296667D01*
X185915381Y-109201429D01*
X185867762Y-109058571D01*
X185772524Y-108963333D01*
X185677286Y-108915714D01*
X185486810Y-108868095D01*
X185343952Y-108868095D01*
X185153476Y-108915714D01*
X185058238Y-108963333D01*
X184963000Y-109058571D01*
X184915381Y-109201429D01*
X184915381Y-109296667D01*
X184963000Y-109439524D01*
X185010619Y-109487143D01*
X185915381Y-110439524D02*
X185915381Y-109868095D01*
X185915381Y-110153809D02*
X184915381Y-110153809D01*
X185058238Y-110058571D01*
X185153476Y-109963333D01*
X185201095Y-109868095D01*
X184915381Y-111344286D02*
X184915381Y-110868095D01*
X185391571Y-110820476D01*
X185343952Y-110868095D01*
X185296333Y-110963333D01*
X185296333Y-111201429D01*
X185343952Y-111296667D01*
X185391571Y-111344286D01*
X185486810Y-111391905D01*
X185724905Y-111391905D01*
X185820143Y-111344286D01*
X185867762Y-111296667D01*
X185915381Y-111201429D01*
X185915381Y-110963333D01*
X185867762Y-110868095D01*
X185820143Y-110820476D01*
X188225143Y-116747143D02*
X188272762Y-116699524D01*
X188320381Y-116556667D01*
X188320381Y-116461429D01*
X188272762Y-116318571D01*
X188177524Y-116223333D01*
X188082286Y-116175714D01*
X187891810Y-116128095D01*
X187748952Y-116128095D01*
X187558476Y-116175714D01*
X187463238Y-116223333D01*
X187368000Y-116318571D01*
X187320381Y-116461429D01*
X187320381Y-116556667D01*
X187368000Y-116699524D01*
X187415619Y-116747143D01*
X188320381Y-117699524D02*
X188320381Y-117128095D01*
X188320381Y-117413809D02*
X187320381Y-117413809D01*
X187463238Y-117318571D01*
X187558476Y-117223333D01*
X187606095Y-117128095D01*
X187320381Y-118556667D02*
X187320381Y-118366190D01*
X187368000Y-118270952D01*
X187415619Y-118223333D01*
X187558476Y-118128095D01*
X187748952Y-118080476D01*
X188129905Y-118080476D01*
X188225143Y-118128095D01*
X188272762Y-118175714D01*
X188320381Y-118270952D01*
X188320381Y-118461429D01*
X188272762Y-118556667D01*
X188225143Y-118604286D01*
X188129905Y-118651905D01*
X187891810Y-118651905D01*
X187796571Y-118604286D01*
X187748952Y-118556667D01*
X187701333Y-118461429D01*
X187701333Y-118270952D01*
X187748952Y-118175714D01*
X187796571Y-118128095D01*
X187891810Y-118080476D01*
X184570143Y-120887143D02*
X184617762Y-120839524D01*
X184665381Y-120696667D01*
X184665381Y-120601429D01*
X184617762Y-120458571D01*
X184522524Y-120363333D01*
X184427286Y-120315714D01*
X184236810Y-120268095D01*
X184093952Y-120268095D01*
X183903476Y-120315714D01*
X183808238Y-120363333D01*
X183713000Y-120458571D01*
X183665381Y-120601429D01*
X183665381Y-120696667D01*
X183713000Y-120839524D01*
X183760619Y-120887143D01*
X184665381Y-121839524D02*
X184665381Y-121268095D01*
X184665381Y-121553809D02*
X183665381Y-121553809D01*
X183808238Y-121458571D01*
X183903476Y-121363333D01*
X183951095Y-121268095D01*
X183665381Y-122172857D02*
X183665381Y-122839524D01*
X184665381Y-122410952D01*
X188970143Y-105612143D02*
X189017762Y-105564524D01*
X189065381Y-105421667D01*
X189065381Y-105326429D01*
X189017762Y-105183571D01*
X188922524Y-105088333D01*
X188827286Y-105040714D01*
X188636810Y-104993095D01*
X188493952Y-104993095D01*
X188303476Y-105040714D01*
X188208238Y-105088333D01*
X188113000Y-105183571D01*
X188065381Y-105326429D01*
X188065381Y-105421667D01*
X188113000Y-105564524D01*
X188160619Y-105612143D01*
X189065381Y-106564524D02*
X189065381Y-105993095D01*
X189065381Y-106278809D02*
X188065381Y-106278809D01*
X188208238Y-106183571D01*
X188303476Y-106088333D01*
X188351095Y-105993095D01*
X188493952Y-107135952D02*
X188446333Y-107040714D01*
X188398714Y-106993095D01*
X188303476Y-106945476D01*
X188255857Y-106945476D01*
X188160619Y-106993095D01*
X188113000Y-107040714D01*
X188065381Y-107135952D01*
X188065381Y-107326429D01*
X188113000Y-107421667D01*
X188160619Y-107469286D01*
X188255857Y-107516905D01*
X188303476Y-107516905D01*
X188398714Y-107469286D01*
X188446333Y-107421667D01*
X188493952Y-107326429D01*
X188493952Y-107135952D01*
X188541571Y-107040714D01*
X188589190Y-106993095D01*
X188684429Y-106945476D01*
X188874905Y-106945476D01*
X188970143Y-106993095D01*
X189017762Y-107040714D01*
X189065381Y-107135952D01*
X189065381Y-107326429D01*
X189017762Y-107421667D01*
X188970143Y-107469286D01*
X188874905Y-107516905D01*
X188684429Y-107516905D01*
X188589190Y-107469286D01*
X188541571Y-107421667D01*
X188493952Y-107326429D01*
X182995143Y-121137143D02*
X183042762Y-121089524D01*
X183090381Y-120946667D01*
X183090381Y-120851429D01*
X183042762Y-120708571D01*
X182947524Y-120613333D01*
X182852286Y-120565714D01*
X182661810Y-120518095D01*
X182518952Y-120518095D01*
X182328476Y-120565714D01*
X182233238Y-120613333D01*
X182138000Y-120708571D01*
X182090381Y-120851429D01*
X182090381Y-120946667D01*
X182138000Y-121089524D01*
X182185619Y-121137143D01*
X183090381Y-122089524D02*
X183090381Y-121518095D01*
X183090381Y-121803809D02*
X182090381Y-121803809D01*
X182233238Y-121708571D01*
X182328476Y-121613333D01*
X182376095Y-121518095D01*
X183090381Y-122565714D02*
X183090381Y-122756190D01*
X183042762Y-122851429D01*
X182995143Y-122899048D01*
X182852286Y-122994286D01*
X182661810Y-123041905D01*
X182280857Y-123041905D01*
X182185619Y-122994286D01*
X182138000Y-122946667D01*
X182090381Y-122851429D01*
X182090381Y-122660952D01*
X182138000Y-122565714D01*
X182185619Y-122518095D01*
X182280857Y-122470476D01*
X182518952Y-122470476D01*
X182614190Y-122518095D01*
X182661810Y-122565714D01*
X182709429Y-122660952D01*
X182709429Y-122851429D01*
X182661810Y-122946667D01*
X182614190Y-122994286D01*
X182518952Y-123041905D01*
X187295143Y-105487143D02*
X187342762Y-105439524D01*
X187390381Y-105296667D01*
X187390381Y-105201429D01*
X187342762Y-105058571D01*
X187247524Y-104963333D01*
X187152286Y-104915714D01*
X186961810Y-104868095D01*
X186818952Y-104868095D01*
X186628476Y-104915714D01*
X186533238Y-104963333D01*
X186438000Y-105058571D01*
X186390381Y-105201429D01*
X186390381Y-105296667D01*
X186438000Y-105439524D01*
X186485619Y-105487143D01*
X186485619Y-105868095D02*
X186438000Y-105915714D01*
X186390381Y-106010952D01*
X186390381Y-106249048D01*
X186438000Y-106344286D01*
X186485619Y-106391905D01*
X186580857Y-106439524D01*
X186676095Y-106439524D01*
X186818952Y-106391905D01*
X187390381Y-105820476D01*
X187390381Y-106439524D01*
X186390381Y-107058571D02*
X186390381Y-107153810D01*
X186438000Y-107249048D01*
X186485619Y-107296667D01*
X186580857Y-107344286D01*
X186771333Y-107391905D01*
X187009429Y-107391905D01*
X187199905Y-107344286D01*
X187295143Y-107296667D01*
X187342762Y-107249048D01*
X187390381Y-107153810D01*
X187390381Y-107058571D01*
X187342762Y-106963333D01*
X187295143Y-106915714D01*
X187199905Y-106868095D01*
X187009429Y-106820476D01*
X186771333Y-106820476D01*
X186580857Y-106868095D01*
X186485619Y-106915714D01*
X186438000Y-106963333D01*
X186390381Y-107058571D01*
X181195143Y-121137143D02*
X181242762Y-121089524D01*
X181290381Y-120946667D01*
X181290381Y-120851429D01*
X181242762Y-120708571D01*
X181147524Y-120613333D01*
X181052286Y-120565714D01*
X180861810Y-120518095D01*
X180718952Y-120518095D01*
X180528476Y-120565714D01*
X180433238Y-120613333D01*
X180338000Y-120708571D01*
X180290381Y-120851429D01*
X180290381Y-120946667D01*
X180338000Y-121089524D01*
X180385619Y-121137143D01*
X180385619Y-121518095D02*
X180338000Y-121565714D01*
X180290381Y-121660952D01*
X180290381Y-121899048D01*
X180338000Y-121994286D01*
X180385619Y-122041905D01*
X180480857Y-122089524D01*
X180576095Y-122089524D01*
X180718952Y-122041905D01*
X181290381Y-121470476D01*
X181290381Y-122089524D01*
X181290381Y-123041905D02*
X181290381Y-122470476D01*
X181290381Y-122756190D02*
X180290381Y-122756190D01*
X180433238Y-122660952D01*
X180528476Y-122565714D01*
X180576095Y-122470476D01*
X185420143Y-105487143D02*
X185467762Y-105439524D01*
X185515381Y-105296667D01*
X185515381Y-105201429D01*
X185467762Y-105058571D01*
X185372524Y-104963333D01*
X185277286Y-104915714D01*
X185086810Y-104868095D01*
X184943952Y-104868095D01*
X184753476Y-104915714D01*
X184658238Y-104963333D01*
X184563000Y-105058571D01*
X184515381Y-105201429D01*
X184515381Y-105296667D01*
X184563000Y-105439524D01*
X184610619Y-105487143D01*
X184610619Y-105868095D02*
X184563000Y-105915714D01*
X184515381Y-106010952D01*
X184515381Y-106249048D01*
X184563000Y-106344286D01*
X184610619Y-106391905D01*
X184705857Y-106439524D01*
X184801095Y-106439524D01*
X184943952Y-106391905D01*
X185515381Y-105820476D01*
X185515381Y-106439524D01*
X184610619Y-106820476D02*
X184563000Y-106868095D01*
X184515381Y-106963333D01*
X184515381Y-107201429D01*
X184563000Y-107296667D01*
X184610619Y-107344286D01*
X184705857Y-107391905D01*
X184801095Y-107391905D01*
X184943952Y-107344286D01*
X185515381Y-106772857D01*
X185515381Y-107391905D01*
X168246666Y-117720381D02*
X168580000Y-117244190D01*
X168818095Y-117720381D02*
X168818095Y-116720381D01*
X168437142Y-116720381D01*
X168341904Y-116768000D01*
X168294285Y-116815619D01*
X168246666Y-116910857D01*
X168246666Y-117053714D01*
X168294285Y-117148952D01*
X168341904Y-117196571D01*
X168437142Y-117244190D01*
X168818095Y-117244190D01*
X167294285Y-117720381D02*
X167865714Y-117720381D01*
X167580000Y-117720381D02*
X167580000Y-116720381D01*
X167675238Y-116863238D01*
X167770476Y-116958476D01*
X167865714Y-117006095D01*
X168246666Y-105274381D02*
X168580000Y-104798190D01*
X168818095Y-105274381D02*
X168818095Y-104274381D01*
X168437142Y-104274381D01*
X168341904Y-104322000D01*
X168294285Y-104369619D01*
X168246666Y-104464857D01*
X168246666Y-104607714D01*
X168294285Y-104702952D01*
X168341904Y-104750571D01*
X168437142Y-104798190D01*
X168818095Y-104798190D01*
X167865714Y-104369619D02*
X167818095Y-104322000D01*
X167722857Y-104274381D01*
X167484761Y-104274381D01*
X167389523Y-104322000D01*
X167341904Y-104369619D01*
X167294285Y-104464857D01*
X167294285Y-104560095D01*
X167341904Y-104702952D01*
X167913333Y-105274381D01*
X167294285Y-105274381D01*
X185640381Y-110013334D02*
X185164190Y-109680000D01*
X185640381Y-109441905D02*
X184640381Y-109441905D01*
X184640381Y-109822858D01*
X184688000Y-109918096D01*
X184735619Y-109965715D01*
X184830857Y-110013334D01*
X184973714Y-110013334D01*
X185068952Y-109965715D01*
X185116571Y-109918096D01*
X185164190Y-109822858D01*
X185164190Y-109441905D01*
X184640381Y-110346667D02*
X184640381Y-110965715D01*
X185021333Y-110632381D01*
X185021333Y-110775239D01*
X185068952Y-110870477D01*
X185116571Y-110918096D01*
X185211810Y-110965715D01*
X185449905Y-110965715D01*
X185545143Y-110918096D01*
X185592762Y-110870477D01*
X185640381Y-110775239D01*
X185640381Y-110489524D01*
X185592762Y-110394286D01*
X185545143Y-110346667D01*
X180602381Y-117223334D02*
X180126190Y-116890000D01*
X180602381Y-116651905D02*
X179602381Y-116651905D01*
X179602381Y-117032858D01*
X179650000Y-117128096D01*
X179697619Y-117175715D01*
X179792857Y-117223334D01*
X179935714Y-117223334D01*
X180030952Y-117175715D01*
X180078571Y-117128096D01*
X180126190Y-117032858D01*
X180126190Y-116651905D01*
X179935714Y-118080477D02*
X180602381Y-118080477D01*
X179554762Y-117842381D02*
X180269048Y-117604286D01*
X180269048Y-118223334D01*
X187265381Y-106038334D02*
X186789190Y-105705000D01*
X187265381Y-105466905D02*
X186265381Y-105466905D01*
X186265381Y-105847858D01*
X186313000Y-105943096D01*
X186360619Y-105990715D01*
X186455857Y-106038334D01*
X186598714Y-106038334D01*
X186693952Y-105990715D01*
X186741571Y-105943096D01*
X186789190Y-105847858D01*
X186789190Y-105466905D01*
X186265381Y-106943096D02*
X186265381Y-106466905D01*
X186741571Y-106419286D01*
X186693952Y-106466905D01*
X186646333Y-106562143D01*
X186646333Y-106800239D01*
X186693952Y-106895477D01*
X186741571Y-106943096D01*
X186836810Y-106990715D01*
X187074905Y-106990715D01*
X187170143Y-106943096D01*
X187217762Y-106895477D01*
X187265381Y-106800239D01*
X187265381Y-106562143D01*
X187217762Y-106466905D01*
X187170143Y-106419286D01*
X189740381Y-121238334D02*
X189264190Y-120905000D01*
X189740381Y-120666905D02*
X188740381Y-120666905D01*
X188740381Y-121047858D01*
X188788000Y-121143096D01*
X188835619Y-121190715D01*
X188930857Y-121238334D01*
X189073714Y-121238334D01*
X189168952Y-121190715D01*
X189216571Y-121143096D01*
X189264190Y-121047858D01*
X189264190Y-120666905D01*
X188740381Y-122095477D02*
X188740381Y-121905000D01*
X188788000Y-121809762D01*
X188835619Y-121762143D01*
X188978476Y-121666905D01*
X189168952Y-121619286D01*
X189549905Y-121619286D01*
X189645143Y-121666905D01*
X189692762Y-121714524D01*
X189740381Y-121809762D01*
X189740381Y-122000239D01*
X189692762Y-122095477D01*
X189645143Y-122143096D01*
X189549905Y-122190715D01*
X189311810Y-122190715D01*
X189216571Y-122143096D01*
X189168952Y-122095477D01*
X189121333Y-122000239D01*
X189121333Y-121809762D01*
X189168952Y-121714524D01*
X189216571Y-121666905D01*
X189311810Y-121619286D01*
X179001905Y-121670381D02*
X179001905Y-122479905D01*
X178954286Y-122575143D01*
X178906667Y-122622762D01*
X178811429Y-122670381D01*
X178620952Y-122670381D01*
X178525714Y-122622762D01*
X178478095Y-122575143D01*
X178430476Y-122479905D01*
X178430476Y-121670381D01*
X178001905Y-121765619D02*
X177954286Y-121718000D01*
X177859048Y-121670381D01*
X177620952Y-121670381D01*
X177525714Y-121718000D01*
X177478095Y-121765619D01*
X177430476Y-121860857D01*
X177430476Y-121956095D01*
X177478095Y-122098952D01*
X178049524Y-122670381D01*
X177430476Y-122670381D01*
X169037143Y-130643334D02*
X169084762Y-130595715D01*
X169132381Y-130452858D01*
X169132381Y-130357620D01*
X169084762Y-130214762D01*
X168989524Y-130119524D01*
X168894286Y-130071905D01*
X168703810Y-130024286D01*
X168560952Y-130024286D01*
X168370476Y-130071905D01*
X168275238Y-130119524D01*
X168180000Y-130214762D01*
X168132381Y-130357620D01*
X168132381Y-130452858D01*
X168180000Y-130595715D01*
X168227619Y-130643334D01*
X169132381Y-131595715D02*
X169132381Y-131024286D01*
X169132381Y-131310000D02*
X168132381Y-131310000D01*
X168275238Y-131214762D01*
X168370476Y-131119524D01*
X168418095Y-131024286D01*
X159845143Y-132421334D02*
X159892762Y-132373715D01*
X159940381Y-132230858D01*
X159940381Y-132135620D01*
X159892762Y-131992762D01*
X159797524Y-131897524D01*
X159702286Y-131849905D01*
X159511810Y-131802286D01*
X159368952Y-131802286D01*
X159178476Y-131849905D01*
X159083238Y-131897524D01*
X158988000Y-131992762D01*
X158940381Y-132135620D01*
X158940381Y-132230858D01*
X158988000Y-132373715D01*
X159035619Y-132421334D01*
X159035619Y-132802286D02*
X158988000Y-132849905D01*
X158940381Y-132945143D01*
X158940381Y-133183239D01*
X158988000Y-133278477D01*
X159035619Y-133326096D01*
X159130857Y-133373715D01*
X159226095Y-133373715D01*
X159368952Y-133326096D01*
X159940381Y-132754667D01*
X159940381Y-133373715D01*
X172037143Y-127849334D02*
X172084762Y-127801715D01*
X172132381Y-127658858D01*
X172132381Y-127563620D01*
X172084762Y-127420762D01*
X171989524Y-127325524D01*
X171894286Y-127277905D01*
X171703810Y-127230286D01*
X171560952Y-127230286D01*
X171370476Y-127277905D01*
X171275238Y-127325524D01*
X171180000Y-127420762D01*
X171132381Y-127563620D01*
X171132381Y-127658858D01*
X171180000Y-127801715D01*
X171227619Y-127849334D01*
X171132381Y-128182667D02*
X171132381Y-128801715D01*
X171513333Y-128468381D01*
X171513333Y-128611239D01*
X171560952Y-128706477D01*
X171608571Y-128754096D01*
X171703810Y-128801715D01*
X171941905Y-128801715D01*
X172037143Y-128754096D01*
X172084762Y-128706477D01*
X172132381Y-128611239D01*
X172132381Y-128325524D01*
X172084762Y-128230286D01*
X172037143Y-128182667D01*
X171108666Y-137239143D02*
X171156285Y-137286762D01*
X171299142Y-137334381D01*
X171394380Y-137334381D01*
X171537238Y-137286762D01*
X171632476Y-137191524D01*
X171680095Y-137096286D01*
X171727714Y-136905810D01*
X171727714Y-136762952D01*
X171680095Y-136572476D01*
X171632476Y-136477238D01*
X171537238Y-136382000D01*
X171394380Y-136334381D01*
X171299142Y-136334381D01*
X171156285Y-136382000D01*
X171108666Y-136429619D01*
X170251523Y-136667714D02*
X170251523Y-137334381D01*
X170489619Y-136286762D02*
X170727714Y-137001048D01*
X170108666Y-137001048D01*
X186348666Y-136731143D02*
X186396285Y-136778762D01*
X186539142Y-136826381D01*
X186634380Y-136826381D01*
X186777238Y-136778762D01*
X186872476Y-136683524D01*
X186920095Y-136588286D01*
X186967714Y-136397810D01*
X186967714Y-136254952D01*
X186920095Y-136064476D01*
X186872476Y-135969238D01*
X186777238Y-135874000D01*
X186634380Y-135826381D01*
X186539142Y-135826381D01*
X186396285Y-135874000D01*
X186348666Y-135921619D01*
X185443904Y-135826381D02*
X185920095Y-135826381D01*
X185967714Y-136302571D01*
X185920095Y-136254952D01*
X185824857Y-136207333D01*
X185586761Y-136207333D01*
X185491523Y-136254952D01*
X185443904Y-136302571D01*
X185396285Y-136397810D01*
X185396285Y-136635905D01*
X185443904Y-136731143D01*
X185491523Y-136778762D01*
X185586761Y-136826381D01*
X185824857Y-136826381D01*
X185920095Y-136778762D01*
X185967714Y-136731143D01*
X175133143Y-130897334D02*
X175180762Y-130849715D01*
X175228381Y-130706858D01*
X175228381Y-130611620D01*
X175180762Y-130468762D01*
X175085524Y-130373524D01*
X174990286Y-130325905D01*
X174799810Y-130278286D01*
X174656952Y-130278286D01*
X174466476Y-130325905D01*
X174371238Y-130373524D01*
X174276000Y-130468762D01*
X174228381Y-130611620D01*
X174228381Y-130706858D01*
X174276000Y-130849715D01*
X174323619Y-130897334D01*
X174228381Y-131754477D02*
X174228381Y-131564000D01*
X174276000Y-131468762D01*
X174323619Y-131421143D01*
X174466476Y-131325905D01*
X174656952Y-131278286D01*
X175037905Y-131278286D01*
X175133143Y-131325905D01*
X175180762Y-131373524D01*
X175228381Y-131468762D01*
X175228381Y-131659239D01*
X175180762Y-131754477D01*
X175133143Y-131802096D01*
X175037905Y-131849715D01*
X174799810Y-131849715D01*
X174704571Y-131802096D01*
X174656952Y-131754477D01*
X174609333Y-131659239D01*
X174609333Y-131468762D01*
X174656952Y-131373524D01*
X174704571Y-131325905D01*
X174799810Y-131278286D01*
X173609143Y-130897334D02*
X173656762Y-130849715D01*
X173704381Y-130706858D01*
X173704381Y-130611620D01*
X173656762Y-130468762D01*
X173561524Y-130373524D01*
X173466286Y-130325905D01*
X173275810Y-130278286D01*
X173132952Y-130278286D01*
X172942476Y-130325905D01*
X172847238Y-130373524D01*
X172752000Y-130468762D01*
X172704381Y-130611620D01*
X172704381Y-130706858D01*
X172752000Y-130849715D01*
X172799619Y-130897334D01*
X173132952Y-131468762D02*
X173085333Y-131373524D01*
X173037714Y-131325905D01*
X172942476Y-131278286D01*
X172894857Y-131278286D01*
X172799619Y-131325905D01*
X172752000Y-131373524D01*
X172704381Y-131468762D01*
X172704381Y-131659239D01*
X172752000Y-131754477D01*
X172799619Y-131802096D01*
X172894857Y-131849715D01*
X172942476Y-131849715D01*
X173037714Y-131802096D01*
X173085333Y-131754477D01*
X173132952Y-131659239D01*
X173132952Y-131468762D01*
X173180571Y-131373524D01*
X173228190Y-131325905D01*
X173323429Y-131278286D01*
X173513905Y-131278286D01*
X173609143Y-131325905D01*
X173656762Y-131373524D01*
X173704381Y-131468762D01*
X173704381Y-131659239D01*
X173656762Y-131754477D01*
X173609143Y-131802096D01*
X173513905Y-131849715D01*
X173323429Y-131849715D01*
X173228190Y-131802096D01*
X173180571Y-131754477D01*
X173132952Y-131659239D01*
X186348666Y-135207143D02*
X186396285Y-135254762D01*
X186539142Y-135302381D01*
X186634380Y-135302381D01*
X186777238Y-135254762D01*
X186872476Y-135159524D01*
X186920095Y-135064286D01*
X186967714Y-134873810D01*
X186967714Y-134730952D01*
X186920095Y-134540476D01*
X186872476Y-134445238D01*
X186777238Y-134350000D01*
X186634380Y-134302381D01*
X186539142Y-134302381D01*
X186396285Y-134350000D01*
X186348666Y-134397619D01*
X185872476Y-135302381D02*
X185682000Y-135302381D01*
X185586761Y-135254762D01*
X185539142Y-135207143D01*
X185443904Y-135064286D01*
X185396285Y-134873810D01*
X185396285Y-134492857D01*
X185443904Y-134397619D01*
X185491523Y-134350000D01*
X185586761Y-134302381D01*
X185777238Y-134302381D01*
X185872476Y-134350000D01*
X185920095Y-134397619D01*
X185967714Y-134492857D01*
X185967714Y-134730952D01*
X185920095Y-134826190D01*
X185872476Y-134873810D01*
X185777238Y-134921429D01*
X185586761Y-134921429D01*
X185491523Y-134873810D01*
X185443904Y-134826190D01*
X185396285Y-134730952D01*
X171584857Y-138763143D02*
X171632476Y-138810762D01*
X171775333Y-138858381D01*
X171870571Y-138858381D01*
X172013429Y-138810762D01*
X172108667Y-138715524D01*
X172156286Y-138620286D01*
X172203905Y-138429810D01*
X172203905Y-138286952D01*
X172156286Y-138096476D01*
X172108667Y-138001238D01*
X172013429Y-137906000D01*
X171870571Y-137858381D01*
X171775333Y-137858381D01*
X171632476Y-137906000D01*
X171584857Y-137953619D01*
X170632476Y-138858381D02*
X171203905Y-138858381D01*
X170918191Y-138858381D02*
X170918191Y-137858381D01*
X171013429Y-138001238D01*
X171108667Y-138096476D01*
X171203905Y-138144095D01*
X169680095Y-138858381D02*
X170251524Y-138858381D01*
X169965810Y-138858381D02*
X169965810Y-137858381D01*
X170061048Y-138001238D01*
X170156286Y-138096476D01*
X170251524Y-138144095D01*
X173863143Y-134993143D02*
X173910762Y-134945524D01*
X173958381Y-134802667D01*
X173958381Y-134707429D01*
X173910762Y-134564571D01*
X173815524Y-134469333D01*
X173720286Y-134421714D01*
X173529810Y-134374095D01*
X173386952Y-134374095D01*
X173196476Y-134421714D01*
X173101238Y-134469333D01*
X173006000Y-134564571D01*
X172958381Y-134707429D01*
X172958381Y-134802667D01*
X173006000Y-134945524D01*
X173053619Y-134993143D01*
X173958381Y-135945524D02*
X173958381Y-135374095D01*
X173958381Y-135659809D02*
X172958381Y-135659809D01*
X173101238Y-135564571D01*
X173196476Y-135469333D01*
X173244095Y-135374095D01*
X173053619Y-136326476D02*
X173006000Y-136374095D01*
X172958381Y-136469333D01*
X172958381Y-136707429D01*
X173006000Y-136802667D01*
X173053619Y-136850286D01*
X173148857Y-136897905D01*
X173244095Y-136897905D01*
X173386952Y-136850286D01*
X173958381Y-136278857D01*
X173958381Y-136897905D01*
X181998857Y-127889143D02*
X182046476Y-127936762D01*
X182189333Y-127984381D01*
X182284571Y-127984381D01*
X182427429Y-127936762D01*
X182522667Y-127841524D01*
X182570286Y-127746286D01*
X182617905Y-127555810D01*
X182617905Y-127412952D01*
X182570286Y-127222476D01*
X182522667Y-127127238D01*
X182427429Y-127032000D01*
X182284571Y-126984381D01*
X182189333Y-126984381D01*
X182046476Y-127032000D01*
X181998857Y-127079619D01*
X181046476Y-127984381D02*
X181617905Y-127984381D01*
X181332191Y-127984381D02*
X181332191Y-126984381D01*
X181427429Y-127127238D01*
X181522667Y-127222476D01*
X181617905Y-127270095D01*
X180713143Y-126984381D02*
X180094095Y-126984381D01*
X180427429Y-127365333D01*
X180284571Y-127365333D01*
X180189333Y-127412952D01*
X180141714Y-127460571D01*
X180094095Y-127555810D01*
X180094095Y-127793905D01*
X180141714Y-127889143D01*
X180189333Y-127936762D01*
X180284571Y-127984381D01*
X180570286Y-127984381D01*
X180665524Y-127936762D01*
X180713143Y-127889143D01*
X187325143Y-131945143D02*
X187372762Y-131897524D01*
X187420381Y-131754667D01*
X187420381Y-131659429D01*
X187372762Y-131516571D01*
X187277524Y-131421333D01*
X187182286Y-131373714D01*
X186991810Y-131326095D01*
X186848952Y-131326095D01*
X186658476Y-131373714D01*
X186563238Y-131421333D01*
X186468000Y-131516571D01*
X186420381Y-131659429D01*
X186420381Y-131754667D01*
X186468000Y-131897524D01*
X186515619Y-131945143D01*
X187420381Y-132897524D02*
X187420381Y-132326095D01*
X187420381Y-132611809D02*
X186420381Y-132611809D01*
X186563238Y-132516571D01*
X186658476Y-132421333D01*
X186706095Y-132326095D01*
X186753714Y-133754667D02*
X187420381Y-133754667D01*
X186372762Y-133516571D02*
X187087048Y-133278476D01*
X187087048Y-133897524D01*
X155614666Y-132410381D02*
X155948000Y-131934190D01*
X156186095Y-132410381D02*
X156186095Y-131410381D01*
X155805142Y-131410381D01*
X155709904Y-131458000D01*
X155662285Y-131505619D01*
X155614666Y-131600857D01*
X155614666Y-131743714D01*
X155662285Y-131838952D01*
X155709904Y-131886571D01*
X155805142Y-131934190D01*
X156186095Y-131934190D01*
X154662285Y-132410381D02*
X155233714Y-132410381D01*
X154948000Y-132410381D02*
X154948000Y-131410381D01*
X155043238Y-131553238D01*
X155138476Y-131648476D01*
X155233714Y-131696095D01*
X155614666Y-129870381D02*
X155948000Y-129394190D01*
X156186095Y-129870381D02*
X156186095Y-128870381D01*
X155805142Y-128870381D01*
X155709904Y-128918000D01*
X155662285Y-128965619D01*
X155614666Y-129060857D01*
X155614666Y-129203714D01*
X155662285Y-129298952D01*
X155709904Y-129346571D01*
X155805142Y-129394190D01*
X156186095Y-129394190D01*
X155233714Y-128965619D02*
X155186095Y-128918000D01*
X155090857Y-128870381D01*
X154852761Y-128870381D01*
X154757523Y-128918000D01*
X154709904Y-128965619D01*
X154662285Y-129060857D01*
X154662285Y-129156095D01*
X154709904Y-129298952D01*
X155281333Y-129870381D01*
X154662285Y-129870381D01*
X174056381Y-138771334D02*
X173580190Y-138438000D01*
X174056381Y-138199905D02*
X173056381Y-138199905D01*
X173056381Y-138580858D01*
X173104000Y-138676096D01*
X173151619Y-138723715D01*
X173246857Y-138771334D01*
X173389714Y-138771334D01*
X173484952Y-138723715D01*
X173532571Y-138676096D01*
X173580190Y-138580858D01*
X173580190Y-138199905D01*
X173056381Y-139104667D02*
X173056381Y-139723715D01*
X173437333Y-139390381D01*
X173437333Y-139533239D01*
X173484952Y-139628477D01*
X173532571Y-139676096D01*
X173627810Y-139723715D01*
X173865905Y-139723715D01*
X173961143Y-139676096D01*
X174008762Y-139628477D01*
X174056381Y-139533239D01*
X174056381Y-139247524D01*
X174008762Y-139152286D01*
X173961143Y-139104667D01*
X158826381Y-133945334D02*
X158350190Y-133612000D01*
X158826381Y-133373905D02*
X157826381Y-133373905D01*
X157826381Y-133754858D01*
X157874000Y-133850096D01*
X157921619Y-133897715D01*
X158016857Y-133945334D01*
X158159714Y-133945334D01*
X158254952Y-133897715D01*
X158302571Y-133850096D01*
X158350190Y-133754858D01*
X158350190Y-133373905D01*
X158159714Y-134802477D02*
X158826381Y-134802477D01*
X157778762Y-134564381D02*
X158493048Y-134326286D01*
X158493048Y-134945334D01*
X171108666Y-131902381D02*
X171442000Y-131426190D01*
X171680095Y-131902381D02*
X171680095Y-130902381D01*
X171299142Y-130902381D01*
X171203904Y-130950000D01*
X171156285Y-130997619D01*
X171108666Y-131092857D01*
X171108666Y-131235714D01*
X171156285Y-131330952D01*
X171203904Y-131378571D01*
X171299142Y-131426190D01*
X171680095Y-131426190D01*
X170203904Y-130902381D02*
X170680095Y-130902381D01*
X170727714Y-131378571D01*
X170680095Y-131330952D01*
X170584857Y-131283333D01*
X170346761Y-131283333D01*
X170251523Y-131330952D01*
X170203904Y-131378571D01*
X170156285Y-131473810D01*
X170156285Y-131711905D01*
X170203904Y-131807143D01*
X170251523Y-131854762D01*
X170346761Y-131902381D01*
X170584857Y-131902381D01*
X170680095Y-131854762D01*
X170727714Y-131807143D01*
X177966666Y-126060381D02*
X178300000Y-125584190D01*
X178538095Y-126060381D02*
X178538095Y-125060381D01*
X178157142Y-125060381D01*
X178061904Y-125108000D01*
X178014285Y-125155619D01*
X177966666Y-125250857D01*
X177966666Y-125393714D01*
X178014285Y-125488952D01*
X178061904Y-125536571D01*
X178157142Y-125584190D01*
X178538095Y-125584190D01*
X177109523Y-125060381D02*
X177300000Y-125060381D01*
X177395238Y-125108000D01*
X177442857Y-125155619D01*
X177538095Y-125298476D01*
X177585714Y-125488952D01*
X177585714Y-125869905D01*
X177538095Y-125965143D01*
X177490476Y-126012762D01*
X177395238Y-126060381D01*
X177204761Y-126060381D01*
X177109523Y-126012762D01*
X177061904Y-125965143D01*
X177014285Y-125869905D01*
X177014285Y-125631810D01*
X177061904Y-125536571D01*
X177109523Y-125488952D01*
X177204761Y-125441333D01*
X177395238Y-125441333D01*
X177490476Y-125488952D01*
X177538095Y-125536571D01*
X177585714Y-125631810D01*
X175680666Y-131902381D02*
X176014000Y-131426190D01*
X176252095Y-131902381D02*
X176252095Y-130902381D01*
X175871142Y-130902381D01*
X175775904Y-130950000D01*
X175728285Y-130997619D01*
X175680666Y-131092857D01*
X175680666Y-131235714D01*
X175728285Y-131330952D01*
X175775904Y-131378571D01*
X175871142Y-131426190D01*
X176252095Y-131426190D01*
X175347333Y-130902381D02*
X174680666Y-130902381D01*
X175109238Y-131902381D01*
X186348666Y-130378381D02*
X186682000Y-129902190D01*
X186920095Y-130378381D02*
X186920095Y-129378381D01*
X186539142Y-129378381D01*
X186443904Y-129426000D01*
X186396285Y-129473619D01*
X186348666Y-129568857D01*
X186348666Y-129711714D01*
X186396285Y-129806952D01*
X186443904Y-129854571D01*
X186539142Y-129902190D01*
X186920095Y-129902190D01*
X185777238Y-129806952D02*
X185872476Y-129759333D01*
X185920095Y-129711714D01*
X185967714Y-129616476D01*
X185967714Y-129568857D01*
X185920095Y-129473619D01*
X185872476Y-129426000D01*
X185777238Y-129378381D01*
X185586761Y-129378381D01*
X185491523Y-129426000D01*
X185443904Y-129473619D01*
X185396285Y-129568857D01*
X185396285Y-129616476D01*
X185443904Y-129711714D01*
X185491523Y-129759333D01*
X185586761Y-129806952D01*
X185777238Y-129806952D01*
X185872476Y-129854571D01*
X185920095Y-129902190D01*
X185967714Y-129997429D01*
X185967714Y-130187905D01*
X185920095Y-130283143D01*
X185872476Y-130330762D01*
X185777238Y-130378381D01*
X185586761Y-130378381D01*
X185491523Y-130330762D01*
X185443904Y-130283143D01*
X185396285Y-130187905D01*
X185396285Y-129997429D01*
X185443904Y-129902190D01*
X185491523Y-129854571D01*
X185586761Y-129806952D01*
X166369905Y-135540381D02*
X166369905Y-136349905D01*
X166322286Y-136445143D01*
X166274667Y-136492762D01*
X166179429Y-136540381D01*
X165988952Y-136540381D01*
X165893714Y-136492762D01*
X165846095Y-136445143D01*
X165798476Y-136349905D01*
X165798476Y-135540381D01*
X164798476Y-136540381D02*
X165369905Y-136540381D01*
X165084191Y-136540381D02*
X165084191Y-135540381D01*
X165179429Y-135683238D01*
X165274667Y-135778476D01*
X165369905Y-135826095D01*
X181609905Y-135540381D02*
X181609905Y-136349905D01*
X181562286Y-136445143D01*
X181514667Y-136492762D01*
X181419429Y-136540381D01*
X181228952Y-136540381D01*
X181133714Y-136492762D01*
X181086095Y-136445143D01*
X181038476Y-136349905D01*
X181038476Y-135540381D01*
X180609905Y-135635619D02*
X180562286Y-135588000D01*
X180467048Y-135540381D01*
X180228952Y-135540381D01*
X180133714Y-135588000D01*
X180086095Y-135635619D01*
X180038476Y-135730857D01*
X180038476Y-135826095D01*
X180086095Y-135968952D01*
X180657524Y-136540381D01*
X180038476Y-136540381D01*
X158826381Y-130897334D02*
X158350190Y-130564000D01*
X158826381Y-130325905D02*
X157826381Y-130325905D01*
X157826381Y-130706858D01*
X157874000Y-130802096D01*
X157921619Y-130849715D01*
X158016857Y-130897334D01*
X158159714Y-130897334D01*
X158254952Y-130849715D01*
X158302571Y-130802096D01*
X158350190Y-130706858D01*
X158350190Y-130325905D01*
X158826381Y-131373524D02*
X158826381Y-131564000D01*
X158778762Y-131659239D01*
X158731143Y-131706858D01*
X158588286Y-131802096D01*
X158397810Y-131849715D01*
X158016857Y-131849715D01*
X157921619Y-131802096D01*
X157874000Y-131754477D01*
X157826381Y-131659239D01*
X157826381Y-131468762D01*
X157874000Y-131373524D01*
X157921619Y-131325905D01*
X158016857Y-131278286D01*
X158254952Y-131278286D01*
X158350190Y-131325905D01*
X158397810Y-131373524D01*
X158445429Y-131468762D01*
X158445429Y-131659239D01*
X158397810Y-131754477D01*
X158350190Y-131802096D01*
X158254952Y-131849715D01*
X174577143Y-96607334D02*
X174624762Y-96559715D01*
X174672381Y-96416858D01*
X174672381Y-96321620D01*
X174624762Y-96178762D01*
X174529524Y-96083524D01*
X174434286Y-96035905D01*
X174243810Y-95988286D01*
X174100952Y-95988286D01*
X173910476Y-96035905D01*
X173815238Y-96083524D01*
X173720000Y-96178762D01*
X173672381Y-96321620D01*
X173672381Y-96416858D01*
X173720000Y-96559715D01*
X173767619Y-96607334D01*
X174672381Y-97559715D02*
X174672381Y-96988286D01*
X174672381Y-97274000D02*
X173672381Y-97274000D01*
X173815238Y-97178762D01*
X173910476Y-97083524D01*
X173958095Y-96988286D01*
X183769143Y-94829334D02*
X183816762Y-94781715D01*
X183864381Y-94638858D01*
X183864381Y-94543620D01*
X183816762Y-94400762D01*
X183721524Y-94305524D01*
X183626286Y-94257905D01*
X183435810Y-94210286D01*
X183292952Y-94210286D01*
X183102476Y-94257905D01*
X183007238Y-94305524D01*
X182912000Y-94400762D01*
X182864381Y-94543620D01*
X182864381Y-94638858D01*
X182912000Y-94781715D01*
X182959619Y-94829334D01*
X182959619Y-95210286D02*
X182912000Y-95257905D01*
X182864381Y-95353143D01*
X182864381Y-95591239D01*
X182912000Y-95686477D01*
X182959619Y-95734096D01*
X183054857Y-95781715D01*
X183150095Y-95781715D01*
X183292952Y-95734096D01*
X183864381Y-95162667D01*
X183864381Y-95781715D01*
X171577143Y-99401334D02*
X171624762Y-99353715D01*
X171672381Y-99210858D01*
X171672381Y-99115620D01*
X171624762Y-98972762D01*
X171529524Y-98877524D01*
X171434286Y-98829905D01*
X171243810Y-98782286D01*
X171100952Y-98782286D01*
X170910476Y-98829905D01*
X170815238Y-98877524D01*
X170720000Y-98972762D01*
X170672381Y-99115620D01*
X170672381Y-99210858D01*
X170720000Y-99353715D01*
X170767619Y-99401334D01*
X170672381Y-99734667D02*
X170672381Y-100353715D01*
X171053333Y-100020381D01*
X171053333Y-100163239D01*
X171100952Y-100258477D01*
X171148571Y-100306096D01*
X171243810Y-100353715D01*
X171481905Y-100353715D01*
X171577143Y-100306096D01*
X171624762Y-100258477D01*
X171672381Y-100163239D01*
X171672381Y-99877524D01*
X171624762Y-99782286D01*
X171577143Y-99734667D01*
X172124666Y-91059143D02*
X172172285Y-91106762D01*
X172315142Y-91154381D01*
X172410380Y-91154381D01*
X172553238Y-91106762D01*
X172648476Y-91011524D01*
X172696095Y-90916286D01*
X172743714Y-90725810D01*
X172743714Y-90582952D01*
X172696095Y-90392476D01*
X172648476Y-90297238D01*
X172553238Y-90202000D01*
X172410380Y-90154381D01*
X172315142Y-90154381D01*
X172172285Y-90202000D01*
X172124666Y-90249619D01*
X171267523Y-90487714D02*
X171267523Y-91154381D01*
X171505619Y-90106762D02*
X171743714Y-90821048D01*
X171124666Y-90821048D01*
X156884666Y-91567143D02*
X156932285Y-91614762D01*
X157075142Y-91662381D01*
X157170380Y-91662381D01*
X157313238Y-91614762D01*
X157408476Y-91519524D01*
X157456095Y-91424286D01*
X157503714Y-91233810D01*
X157503714Y-91090952D01*
X157456095Y-90900476D01*
X157408476Y-90805238D01*
X157313238Y-90710000D01*
X157170380Y-90662381D01*
X157075142Y-90662381D01*
X156932285Y-90710000D01*
X156884666Y-90757619D01*
X155979904Y-90662381D02*
X156456095Y-90662381D01*
X156503714Y-91138571D01*
X156456095Y-91090952D01*
X156360857Y-91043333D01*
X156122761Y-91043333D01*
X156027523Y-91090952D01*
X155979904Y-91138571D01*
X155932285Y-91233810D01*
X155932285Y-91471905D01*
X155979904Y-91567143D01*
X156027523Y-91614762D01*
X156122761Y-91662381D01*
X156360857Y-91662381D01*
X156456095Y-91614762D01*
X156503714Y-91567143D01*
X168481143Y-96353334D02*
X168528762Y-96305715D01*
X168576381Y-96162858D01*
X168576381Y-96067620D01*
X168528762Y-95924762D01*
X168433524Y-95829524D01*
X168338286Y-95781905D01*
X168147810Y-95734286D01*
X168004952Y-95734286D01*
X167814476Y-95781905D01*
X167719238Y-95829524D01*
X167624000Y-95924762D01*
X167576381Y-96067620D01*
X167576381Y-96162858D01*
X167624000Y-96305715D01*
X167671619Y-96353334D01*
X167576381Y-97210477D02*
X167576381Y-97020000D01*
X167624000Y-96924762D01*
X167671619Y-96877143D01*
X167814476Y-96781905D01*
X168004952Y-96734286D01*
X168385905Y-96734286D01*
X168481143Y-96781905D01*
X168528762Y-96829524D01*
X168576381Y-96924762D01*
X168576381Y-97115239D01*
X168528762Y-97210477D01*
X168481143Y-97258096D01*
X168385905Y-97305715D01*
X168147810Y-97305715D01*
X168052571Y-97258096D01*
X168004952Y-97210477D01*
X167957333Y-97115239D01*
X167957333Y-96924762D01*
X168004952Y-96829524D01*
X168052571Y-96781905D01*
X168147810Y-96734286D01*
X170005143Y-96353334D02*
X170052762Y-96305715D01*
X170100381Y-96162858D01*
X170100381Y-96067620D01*
X170052762Y-95924762D01*
X169957524Y-95829524D01*
X169862286Y-95781905D01*
X169671810Y-95734286D01*
X169528952Y-95734286D01*
X169338476Y-95781905D01*
X169243238Y-95829524D01*
X169148000Y-95924762D01*
X169100381Y-96067620D01*
X169100381Y-96162858D01*
X169148000Y-96305715D01*
X169195619Y-96353334D01*
X169528952Y-96924762D02*
X169481333Y-96829524D01*
X169433714Y-96781905D01*
X169338476Y-96734286D01*
X169290857Y-96734286D01*
X169195619Y-96781905D01*
X169148000Y-96829524D01*
X169100381Y-96924762D01*
X169100381Y-97115239D01*
X169148000Y-97210477D01*
X169195619Y-97258096D01*
X169290857Y-97305715D01*
X169338476Y-97305715D01*
X169433714Y-97258096D01*
X169481333Y-97210477D01*
X169528952Y-97115239D01*
X169528952Y-96924762D01*
X169576571Y-96829524D01*
X169624190Y-96781905D01*
X169719429Y-96734286D01*
X169909905Y-96734286D01*
X170005143Y-96781905D01*
X170052762Y-96829524D01*
X170100381Y-96924762D01*
X170100381Y-97115239D01*
X170052762Y-97210477D01*
X170005143Y-97258096D01*
X169909905Y-97305715D01*
X169719429Y-97305715D01*
X169624190Y-97258096D01*
X169576571Y-97210477D01*
X169528952Y-97115239D01*
X156884666Y-93091143D02*
X156932285Y-93138762D01*
X157075142Y-93186381D01*
X157170380Y-93186381D01*
X157313238Y-93138762D01*
X157408476Y-93043524D01*
X157456095Y-92948286D01*
X157503714Y-92757810D01*
X157503714Y-92614952D01*
X157456095Y-92424476D01*
X157408476Y-92329238D01*
X157313238Y-92234000D01*
X157170380Y-92186381D01*
X157075142Y-92186381D01*
X156932285Y-92234000D01*
X156884666Y-92281619D01*
X156408476Y-93186381D02*
X156218000Y-93186381D01*
X156122761Y-93138762D01*
X156075142Y-93091143D01*
X155979904Y-92948286D01*
X155932285Y-92757810D01*
X155932285Y-92376857D01*
X155979904Y-92281619D01*
X156027523Y-92234000D01*
X156122761Y-92186381D01*
X156313238Y-92186381D01*
X156408476Y-92234000D01*
X156456095Y-92281619D01*
X156503714Y-92376857D01*
X156503714Y-92614952D01*
X156456095Y-92710190D01*
X156408476Y-92757810D01*
X156313238Y-92805429D01*
X156122761Y-92805429D01*
X156027523Y-92757810D01*
X155979904Y-92710190D01*
X155932285Y-92614952D01*
X172600857Y-89535143D02*
X172648476Y-89582762D01*
X172791333Y-89630381D01*
X172886571Y-89630381D01*
X173029429Y-89582762D01*
X173124667Y-89487524D01*
X173172286Y-89392286D01*
X173219905Y-89201810D01*
X173219905Y-89058952D01*
X173172286Y-88868476D01*
X173124667Y-88773238D01*
X173029429Y-88678000D01*
X172886571Y-88630381D01*
X172791333Y-88630381D01*
X172648476Y-88678000D01*
X172600857Y-88725619D01*
X171648476Y-89630381D02*
X172219905Y-89630381D01*
X171934191Y-89630381D02*
X171934191Y-88630381D01*
X172029429Y-88773238D01*
X172124667Y-88868476D01*
X172219905Y-88916095D01*
X170696095Y-89630381D02*
X171267524Y-89630381D01*
X170981810Y-89630381D02*
X170981810Y-88630381D01*
X171077048Y-88773238D01*
X171172286Y-88868476D01*
X171267524Y-88916095D01*
X169751143Y-91305143D02*
X169798762Y-91257524D01*
X169846381Y-91114667D01*
X169846381Y-91019429D01*
X169798762Y-90876571D01*
X169703524Y-90781333D01*
X169608286Y-90733714D01*
X169417810Y-90686095D01*
X169274952Y-90686095D01*
X169084476Y-90733714D01*
X168989238Y-90781333D01*
X168894000Y-90876571D01*
X168846381Y-91019429D01*
X168846381Y-91114667D01*
X168894000Y-91257524D01*
X168941619Y-91305143D01*
X169846381Y-92257524D02*
X169846381Y-91686095D01*
X169846381Y-91971809D02*
X168846381Y-91971809D01*
X168989238Y-91876571D01*
X169084476Y-91781333D01*
X169132095Y-91686095D01*
X168941619Y-92638476D02*
X168894000Y-92686095D01*
X168846381Y-92781333D01*
X168846381Y-93019429D01*
X168894000Y-93114667D01*
X168941619Y-93162286D01*
X169036857Y-93209905D01*
X169132095Y-93209905D01*
X169274952Y-93162286D01*
X169846381Y-92590857D01*
X169846381Y-93209905D01*
X162186857Y-100409143D02*
X162234476Y-100456762D01*
X162377333Y-100504381D01*
X162472571Y-100504381D01*
X162615429Y-100456762D01*
X162710667Y-100361524D01*
X162758286Y-100266286D01*
X162805905Y-100075810D01*
X162805905Y-99932952D01*
X162758286Y-99742476D01*
X162710667Y-99647238D01*
X162615429Y-99552000D01*
X162472571Y-99504381D01*
X162377333Y-99504381D01*
X162234476Y-99552000D01*
X162186857Y-99599619D01*
X161234476Y-100504381D02*
X161805905Y-100504381D01*
X161520191Y-100504381D02*
X161520191Y-99504381D01*
X161615429Y-99647238D01*
X161710667Y-99742476D01*
X161805905Y-99790095D01*
X160901143Y-99504381D02*
X160282095Y-99504381D01*
X160615429Y-99885333D01*
X160472571Y-99885333D01*
X160377333Y-99932952D01*
X160329714Y-99980571D01*
X160282095Y-100075810D01*
X160282095Y-100313905D01*
X160329714Y-100409143D01*
X160377333Y-100456762D01*
X160472571Y-100504381D01*
X160758286Y-100504381D01*
X160853524Y-100456762D01*
X160901143Y-100409143D01*
X156289143Y-94353143D02*
X156336762Y-94305524D01*
X156384381Y-94162667D01*
X156384381Y-94067429D01*
X156336762Y-93924571D01*
X156241524Y-93829333D01*
X156146286Y-93781714D01*
X155955810Y-93734095D01*
X155812952Y-93734095D01*
X155622476Y-93781714D01*
X155527238Y-93829333D01*
X155432000Y-93924571D01*
X155384381Y-94067429D01*
X155384381Y-94162667D01*
X155432000Y-94305524D01*
X155479619Y-94353143D01*
X156384381Y-95305524D02*
X156384381Y-94734095D01*
X156384381Y-95019809D02*
X155384381Y-95019809D01*
X155527238Y-94924571D01*
X155622476Y-94829333D01*
X155670095Y-94734095D01*
X155717714Y-96162667D02*
X156384381Y-96162667D01*
X155336762Y-95924571D02*
X156051048Y-95686476D01*
X156051048Y-96305524D01*
X187618666Y-96078381D02*
X187952000Y-95602190D01*
X188190095Y-96078381D02*
X188190095Y-95078381D01*
X187809142Y-95078381D01*
X187713904Y-95126000D01*
X187666285Y-95173619D01*
X187618666Y-95268857D01*
X187618666Y-95411714D01*
X187666285Y-95506952D01*
X187713904Y-95554571D01*
X187809142Y-95602190D01*
X188190095Y-95602190D01*
X186666285Y-96078381D02*
X187237714Y-96078381D01*
X186952000Y-96078381D02*
X186952000Y-95078381D01*
X187047238Y-95221238D01*
X187142476Y-95316476D01*
X187237714Y-95364095D01*
X187618666Y-98618381D02*
X187952000Y-98142190D01*
X188190095Y-98618381D02*
X188190095Y-97618381D01*
X187809142Y-97618381D01*
X187713904Y-97666000D01*
X187666285Y-97713619D01*
X187618666Y-97808857D01*
X187618666Y-97951714D01*
X187666285Y-98046952D01*
X187713904Y-98094571D01*
X187809142Y-98142190D01*
X188190095Y-98142190D01*
X187237714Y-97713619D02*
X187190095Y-97666000D01*
X187094857Y-97618381D01*
X186856761Y-97618381D01*
X186761523Y-97666000D01*
X186713904Y-97713619D01*
X186666285Y-97808857D01*
X186666285Y-97904095D01*
X186713904Y-98046952D01*
X187285333Y-98618381D01*
X186666285Y-98618381D01*
X169748381Y-88479334D02*
X169272190Y-88146000D01*
X169748381Y-87907905D02*
X168748381Y-87907905D01*
X168748381Y-88288858D01*
X168796000Y-88384096D01*
X168843619Y-88431715D01*
X168938857Y-88479334D01*
X169081714Y-88479334D01*
X169176952Y-88431715D01*
X169224571Y-88384096D01*
X169272190Y-88288858D01*
X169272190Y-87907905D01*
X168748381Y-88812667D02*
X168748381Y-89431715D01*
X169129333Y-89098381D01*
X169129333Y-89241239D01*
X169176952Y-89336477D01*
X169224571Y-89384096D01*
X169319810Y-89431715D01*
X169557905Y-89431715D01*
X169653143Y-89384096D01*
X169700762Y-89336477D01*
X169748381Y-89241239D01*
X169748381Y-88955524D01*
X169700762Y-88860286D01*
X169653143Y-88812667D01*
X184978381Y-93305334D02*
X184502190Y-92972000D01*
X184978381Y-92733905D02*
X183978381Y-92733905D01*
X183978381Y-93114858D01*
X184026000Y-93210096D01*
X184073619Y-93257715D01*
X184168857Y-93305334D01*
X184311714Y-93305334D01*
X184406952Y-93257715D01*
X184454571Y-93210096D01*
X184502190Y-93114858D01*
X184502190Y-92733905D01*
X184311714Y-94162477D02*
X184978381Y-94162477D01*
X183930762Y-93924381D02*
X184645048Y-93686286D01*
X184645048Y-94305334D01*
X172124666Y-96586381D02*
X172458000Y-96110190D01*
X172696095Y-96586381D02*
X172696095Y-95586381D01*
X172315142Y-95586381D01*
X172219904Y-95634000D01*
X172172285Y-95681619D01*
X172124666Y-95776857D01*
X172124666Y-95919714D01*
X172172285Y-96014952D01*
X172219904Y-96062571D01*
X172315142Y-96110190D01*
X172696095Y-96110190D01*
X171219904Y-95586381D02*
X171696095Y-95586381D01*
X171743714Y-96062571D01*
X171696095Y-96014952D01*
X171600857Y-95967333D01*
X171362761Y-95967333D01*
X171267523Y-96014952D01*
X171219904Y-96062571D01*
X171172285Y-96157810D01*
X171172285Y-96395905D01*
X171219904Y-96491143D01*
X171267523Y-96538762D01*
X171362761Y-96586381D01*
X171600857Y-96586381D01*
X171696095Y-96538762D01*
X171743714Y-96491143D01*
X165266666Y-102428381D02*
X165600000Y-101952190D01*
X165838095Y-102428381D02*
X165838095Y-101428381D01*
X165457142Y-101428381D01*
X165361904Y-101476000D01*
X165314285Y-101523619D01*
X165266666Y-101618857D01*
X165266666Y-101761714D01*
X165314285Y-101856952D01*
X165361904Y-101904571D01*
X165457142Y-101952190D01*
X165838095Y-101952190D01*
X164409523Y-101428381D02*
X164600000Y-101428381D01*
X164695238Y-101476000D01*
X164742857Y-101523619D01*
X164838095Y-101666476D01*
X164885714Y-101856952D01*
X164885714Y-102237905D01*
X164838095Y-102333143D01*
X164790476Y-102380762D01*
X164695238Y-102428381D01*
X164504761Y-102428381D01*
X164409523Y-102380762D01*
X164361904Y-102333143D01*
X164314285Y-102237905D01*
X164314285Y-101999810D01*
X164361904Y-101904571D01*
X164409523Y-101856952D01*
X164504761Y-101809333D01*
X164695238Y-101809333D01*
X164790476Y-101856952D01*
X164838095Y-101904571D01*
X164885714Y-101999810D01*
X167552666Y-96586381D02*
X167886000Y-96110190D01*
X168124095Y-96586381D02*
X168124095Y-95586381D01*
X167743142Y-95586381D01*
X167647904Y-95634000D01*
X167600285Y-95681619D01*
X167552666Y-95776857D01*
X167552666Y-95919714D01*
X167600285Y-96014952D01*
X167647904Y-96062571D01*
X167743142Y-96110190D01*
X168124095Y-96110190D01*
X167219333Y-95586381D02*
X166552666Y-95586381D01*
X166981238Y-96586381D01*
X156884666Y-98110381D02*
X157218000Y-97634190D01*
X157456095Y-98110381D02*
X157456095Y-97110381D01*
X157075142Y-97110381D01*
X156979904Y-97158000D01*
X156932285Y-97205619D01*
X156884666Y-97300857D01*
X156884666Y-97443714D01*
X156932285Y-97538952D01*
X156979904Y-97586571D01*
X157075142Y-97634190D01*
X157456095Y-97634190D01*
X156313238Y-97538952D02*
X156408476Y-97491333D01*
X156456095Y-97443714D01*
X156503714Y-97348476D01*
X156503714Y-97300857D01*
X156456095Y-97205619D01*
X156408476Y-97158000D01*
X156313238Y-97110381D01*
X156122761Y-97110381D01*
X156027523Y-97158000D01*
X155979904Y-97205619D01*
X155932285Y-97300857D01*
X155932285Y-97348476D01*
X155979904Y-97443714D01*
X156027523Y-97491333D01*
X156122761Y-97538952D01*
X156313238Y-97538952D01*
X156408476Y-97586571D01*
X156456095Y-97634190D01*
X156503714Y-97729429D01*
X156503714Y-97919905D01*
X156456095Y-98015143D01*
X156408476Y-98062762D01*
X156313238Y-98110381D01*
X156122761Y-98110381D01*
X156027523Y-98062762D01*
X155979904Y-98015143D01*
X155932285Y-97919905D01*
X155932285Y-97729429D01*
X155979904Y-97634190D01*
X156027523Y-97586571D01*
X156122761Y-97538952D01*
X178053905Y-90948381D02*
X178053905Y-91757905D01*
X178006286Y-91853143D01*
X177958667Y-91900762D01*
X177863429Y-91948381D01*
X177672952Y-91948381D01*
X177577714Y-91900762D01*
X177530095Y-91853143D01*
X177482476Y-91757905D01*
X177482476Y-90948381D01*
X176482476Y-91948381D02*
X177053905Y-91948381D01*
X176768191Y-91948381D02*
X176768191Y-90948381D01*
X176863429Y-91091238D01*
X176958667Y-91186476D01*
X177053905Y-91234095D01*
X162813905Y-90948381D02*
X162813905Y-91757905D01*
X162766286Y-91853143D01*
X162718667Y-91900762D01*
X162623429Y-91948381D01*
X162432952Y-91948381D01*
X162337714Y-91900762D01*
X162290095Y-91853143D01*
X162242476Y-91757905D01*
X162242476Y-90948381D01*
X161813905Y-91043619D02*
X161766286Y-90996000D01*
X161671048Y-90948381D01*
X161432952Y-90948381D01*
X161337714Y-90996000D01*
X161290095Y-91043619D01*
X161242476Y-91138857D01*
X161242476Y-91234095D01*
X161290095Y-91376952D01*
X161861524Y-91948381D01*
X161242476Y-91948381D01*
X184978381Y-96353334D02*
X184502190Y-96020000D01*
X184978381Y-95781905D02*
X183978381Y-95781905D01*
X183978381Y-96162858D01*
X184026000Y-96258096D01*
X184073619Y-96305715D01*
X184168857Y-96353334D01*
X184311714Y-96353334D01*
X184406952Y-96305715D01*
X184454571Y-96258096D01*
X184502190Y-96162858D01*
X184502190Y-95781905D01*
X184978381Y-96829524D02*
X184978381Y-97020000D01*
X184930762Y-97115239D01*
X184883143Y-97162858D01*
X184740286Y-97258096D01*
X184549810Y-97305715D01*
X184168857Y-97305715D01*
X184073619Y-97258096D01*
X184026000Y-97210477D01*
X183978381Y-97115239D01*
X183978381Y-96924762D01*
X184026000Y-96829524D01*
X184073619Y-96781905D01*
X184168857Y-96734286D01*
X184406952Y-96734286D01*
X184502190Y-96781905D01*
X184549810Y-96829524D01*
X184597429Y-96924762D01*
X184597429Y-97115239D01*
X184549810Y-97210477D01*
X184502190Y-97258096D01*
X184406952Y-97305715D01*
M02*
