M48
;DRILL file {KiCad 4.0.7} date Fri Jun  8 12:20:14 2018
;FORMAT={-:-/ absolute / inch / decimal}
FMAT,2
INCH,TZ
T1C0.016
T2C0.031
T3C0.039
T4C0.039
T5C0.047
T6C0.087
%
G90
G05
M72
T1
X6.04Y-5.17
X6.2005Y-3.5998
X6.27Y-5.15
X6.27Y-5.29
X6.3021Y-4.6321
X6.3454Y-4.6336
X6.3887Y-4.6321
X6.432Y-4.6336
X6.4356Y-3.7756
X6.4753Y-4.6321
X6.5343Y-4.3108
X6.5737Y-4.6336
X6.5776Y-4.3108
X6.5794Y-3.8794
X6.617Y-4.6321
X6.6209Y-4.3108
X6.64Y-5.39
X6.6603Y-4.6336
X6.6643Y-4.3108
X6.7173Y-4.3187
X6.7173Y-4.5667
X6.74Y-3.89
X6.75Y-3.8
X6.75Y-5.16
X6.7587Y-4.3187
X6.7587Y-4.5667
X6.76Y-5.07
X6.7973Y-4.3187
X6.7973Y-4.5667
X6.8414Y-4.3187
X6.8454Y-4.5785
X6.86Y-3.57
X6.8673Y-4.3532
X6.8769Y-4.5509
X6.8769Y-4.8069
X6.9202Y-4.5509
X6.9202Y-4.8069
X6.9206Y-5.0806
X6.9595Y-4.8069
X6.9635Y-4.5509
X6.9989Y-4.8069
X7.0173Y-4.5917
X7.0383Y-4.8069
X7.0644Y-5.1844
X7.0737Y-4.8069
X7.1052Y-4.8187
X7.1324Y-4.7404
X7.1473Y-4.6917
X7.1678Y-4.5543
X7.1957Y-4.4407
X7.218Y-4.3969
X7.2239Y-4.2591
X7.23Y-3.67
X7.23Y-3.81
X7.2509Y-4.4431
X7.2902Y-4.425
X7.2995Y-5.3602
X7.306Y-4.4919
X7.3296Y-4.4289
X7.3493Y-4.8462
X7.3558Y-4.4919
X7.3558Y-4.5346
X7.3729Y-4.4289
X7.4005Y-4.1139
X7.4005Y-4.5352
X7.4005Y-4.5785
X7.4083Y-4.8423
X7.4123Y-4.6179
X7.4162Y-4.4289
X7.432Y-4.8029
X7.4398Y-4.6494
X7.4405Y-4.3486
X7.4477Y-4.1139
X7.4517Y-4.6927
X7.4556Y-4.3935
X7.46Y-3.79
X7.4871Y-4.1533
X7.4871Y-4.2557
X7.4871Y-4.7045
T2
X6.31Y-3.46
X6.3313Y-5.5
X6.3887Y-3.46
X6.41Y-5.5
X7.09Y-3.46
X7.1113Y-5.5
X7.1687Y-3.46
X7.19Y-5.5
T3
X6.23Y-4.56
X6.23Y-4.7569
X6.44Y-4.2
X6.44Y-4.3969
T4
X5.99Y-3.77
X5.99Y-3.87
X6.Y-5.27
X6.Y-5.37
X7.5Y-3.59
X7.5Y-3.69
X7.51Y-5.09
X7.51Y-5.19
T5
X5.81Y-4.29
X5.81Y-4.44
X5.81Y-4.59
X6.59Y-3.39
X6.61Y-5.57
X6.74Y-3.39
X6.76Y-5.57
X6.89Y-3.39
X6.91Y-5.57
X7.718Y-4.2833
X7.718Y-4.4333
X7.718Y-4.5833
T6
X5.789Y-3.5692
X5.789Y-3.9707
X5.799Y-5.0692
X5.799Y-5.4707
X7.701Y-3.4893
X7.701Y-3.8908
X7.711Y-4.9893
X7.711Y-5.3908
T0
M30
