G04 #@! TF.FileFunction,Legend,Top*
%FSLAX46Y46*%
G04 Gerber Fmt 4.6, Leading zero omitted, Abs format (unit mm)*
G04 Created by KiCad (PCBNEW 4.0.7) date Fri Jun  8 12:20:10 2018*
%MOMM*%
%LPD*%
G01*
G04 APERTURE LIST*
%ADD10C,0.100000*%
%ADD11C,0.120000*%
%ADD12C,0.150000*%
G04 APERTURE END LIST*
D10*
D11*
X159421194Y-123275525D02*
G75*
G03X159422000Y-113372667I-1179194J4951525D01*
G01*
X157062806Y-123275525D02*
G75*
G02X157062000Y-113372667I1179194J4951525D01*
G01*
X157062806Y-123275525D02*
G75*
G03X159422000Y-123275333I1179194J4951525D01*
G01*
X163292000Y-118324000D02*
X153192000Y-118324000D01*
X163292000Y-118364000D02*
X153192000Y-118364000D01*
X163292000Y-118404000D02*
X153192000Y-118404000D01*
X163291000Y-118444000D02*
X153193000Y-118444000D01*
X163290000Y-118484000D02*
X153194000Y-118484000D01*
X163289000Y-118524000D02*
X153195000Y-118524000D01*
X163287000Y-118564000D02*
X153197000Y-118564000D01*
X163285000Y-118604000D02*
X153199000Y-118604000D01*
X163282000Y-118644000D02*
X153202000Y-118644000D01*
X163280000Y-118684000D02*
X153204000Y-118684000D01*
X163277000Y-118724000D02*
X153207000Y-118724000D01*
X163273000Y-118764000D02*
X153211000Y-118764000D01*
X163270000Y-118804000D02*
X153214000Y-118804000D01*
X163266000Y-118844000D02*
X153218000Y-118844000D01*
X163262000Y-118884000D02*
X153222000Y-118884000D01*
X163257000Y-118924000D02*
X153227000Y-118924000D01*
X163252000Y-118964000D02*
X153232000Y-118964000D01*
X163247000Y-119004000D02*
X153237000Y-119004000D01*
X163241000Y-119045000D02*
X153243000Y-119045000D01*
X163235000Y-119085000D02*
X153249000Y-119085000D01*
X163229000Y-119125000D02*
X153255000Y-119125000D01*
X163223000Y-119165000D02*
X153261000Y-119165000D01*
X163216000Y-119205000D02*
X153268000Y-119205000D01*
X163209000Y-119245000D02*
X153275000Y-119245000D01*
X163201000Y-119285000D02*
X153283000Y-119285000D01*
X163193000Y-119325000D02*
X153291000Y-119325000D01*
X163185000Y-119365000D02*
X153299000Y-119365000D01*
X163177000Y-119405000D02*
X153307000Y-119405000D01*
X163168000Y-119445000D02*
X153316000Y-119445000D01*
X163159000Y-119485000D02*
X153325000Y-119485000D01*
X163149000Y-119525000D02*
X153335000Y-119525000D01*
X163139000Y-119565000D02*
X153345000Y-119565000D01*
X163129000Y-119605000D02*
X153355000Y-119605000D01*
X163118000Y-119645000D02*
X159423000Y-119645000D01*
X157061000Y-119645000D02*
X153366000Y-119645000D01*
X163107000Y-119685000D02*
X159423000Y-119685000D01*
X157061000Y-119685000D02*
X153377000Y-119685000D01*
X163096000Y-119725000D02*
X159423000Y-119725000D01*
X157061000Y-119725000D02*
X153388000Y-119725000D01*
X163085000Y-119765000D02*
X159423000Y-119765000D01*
X157061000Y-119765000D02*
X153399000Y-119765000D01*
X163073000Y-119805000D02*
X159423000Y-119805000D01*
X157061000Y-119805000D02*
X153411000Y-119805000D01*
X163060000Y-119845000D02*
X159423000Y-119845000D01*
X157061000Y-119845000D02*
X153424000Y-119845000D01*
X163048000Y-119885000D02*
X159423000Y-119885000D01*
X157061000Y-119885000D02*
X153436000Y-119885000D01*
X163034000Y-119925000D02*
X159423000Y-119925000D01*
X157061000Y-119925000D02*
X153450000Y-119925000D01*
X163021000Y-119965000D02*
X159423000Y-119965000D01*
X157061000Y-119965000D02*
X153463000Y-119965000D01*
X163007000Y-120005000D02*
X159423000Y-120005000D01*
X157061000Y-120005000D02*
X153477000Y-120005000D01*
X162993000Y-120045000D02*
X159423000Y-120045000D01*
X157061000Y-120045000D02*
X153491000Y-120045000D01*
X162979000Y-120085000D02*
X159423000Y-120085000D01*
X157061000Y-120085000D02*
X153505000Y-120085000D01*
X162964000Y-120125000D02*
X159423000Y-120125000D01*
X157061000Y-120125000D02*
X153520000Y-120125000D01*
X162948000Y-120165000D02*
X159423000Y-120165000D01*
X157061000Y-120165000D02*
X153536000Y-120165000D01*
X162933000Y-120205000D02*
X159423000Y-120205000D01*
X157061000Y-120205000D02*
X153551000Y-120205000D01*
X162916000Y-120245000D02*
X159423000Y-120245000D01*
X157061000Y-120245000D02*
X153568000Y-120245000D01*
X162900000Y-120285000D02*
X159423000Y-120285000D01*
X157061000Y-120285000D02*
X153584000Y-120285000D01*
X162883000Y-120325000D02*
X159423000Y-120325000D01*
X157061000Y-120325000D02*
X153601000Y-120325000D01*
X162866000Y-120365000D02*
X159423000Y-120365000D01*
X157061000Y-120365000D02*
X153618000Y-120365000D01*
X162848000Y-120405000D02*
X159423000Y-120405000D01*
X157061000Y-120405000D02*
X153636000Y-120405000D01*
X162830000Y-120445000D02*
X159423000Y-120445000D01*
X157061000Y-120445000D02*
X153654000Y-120445000D01*
X162811000Y-120485000D02*
X159423000Y-120485000D01*
X157061000Y-120485000D02*
X153673000Y-120485000D01*
X162792000Y-120525000D02*
X159423000Y-120525000D01*
X157061000Y-120525000D02*
X153692000Y-120525000D01*
X162773000Y-120565000D02*
X159423000Y-120565000D01*
X157061000Y-120565000D02*
X153711000Y-120565000D01*
X162753000Y-120605000D02*
X159423000Y-120605000D01*
X157061000Y-120605000D02*
X153731000Y-120605000D01*
X162733000Y-120645000D02*
X159423000Y-120645000D01*
X157061000Y-120645000D02*
X153751000Y-120645000D01*
X162712000Y-120685000D02*
X159423000Y-120685000D01*
X157061000Y-120685000D02*
X153772000Y-120685000D01*
X162691000Y-120725000D02*
X159423000Y-120725000D01*
X157061000Y-120725000D02*
X153793000Y-120725000D01*
X162670000Y-120765000D02*
X159423000Y-120765000D01*
X157061000Y-120765000D02*
X153814000Y-120765000D01*
X162647000Y-120805000D02*
X159423000Y-120805000D01*
X157061000Y-120805000D02*
X153837000Y-120805000D01*
X162625000Y-120845000D02*
X159423000Y-120845000D01*
X157061000Y-120845000D02*
X153859000Y-120845000D01*
X162602000Y-120885000D02*
X159423000Y-120885000D01*
X157061000Y-120885000D02*
X153882000Y-120885000D01*
X162578000Y-120925000D02*
X159423000Y-120925000D01*
X157061000Y-120925000D02*
X153906000Y-120925000D01*
X162554000Y-120965000D02*
X159423000Y-120965000D01*
X157061000Y-120965000D02*
X153930000Y-120965000D01*
X162530000Y-121005000D02*
X159423000Y-121005000D01*
X157061000Y-121005000D02*
X153954000Y-121005000D01*
X162505000Y-121045000D02*
X159423000Y-121045000D01*
X157061000Y-121045000D02*
X153979000Y-121045000D01*
X162479000Y-121085000D02*
X159423000Y-121085000D01*
X157061000Y-121085000D02*
X154005000Y-121085000D01*
X162453000Y-121125000D02*
X159423000Y-121125000D01*
X157061000Y-121125000D02*
X154031000Y-121125000D01*
X162427000Y-121165000D02*
X159423000Y-121165000D01*
X157061000Y-121165000D02*
X154057000Y-121165000D01*
X162399000Y-121205000D02*
X159423000Y-121205000D01*
X157061000Y-121205000D02*
X154085000Y-121205000D01*
X162372000Y-121245000D02*
X159423000Y-121245000D01*
X157061000Y-121245000D02*
X154112000Y-121245000D01*
X162343000Y-121285000D02*
X159423000Y-121285000D01*
X157061000Y-121285000D02*
X154141000Y-121285000D01*
X162314000Y-121325000D02*
X159423000Y-121325000D01*
X157061000Y-121325000D02*
X154170000Y-121325000D01*
X162285000Y-121365000D02*
X159423000Y-121365000D01*
X157061000Y-121365000D02*
X154199000Y-121365000D01*
X162255000Y-121405000D02*
X159423000Y-121405000D01*
X157061000Y-121405000D02*
X154229000Y-121405000D01*
X162224000Y-121445000D02*
X159423000Y-121445000D01*
X157061000Y-121445000D02*
X154260000Y-121445000D01*
X162193000Y-121485000D02*
X159423000Y-121485000D01*
X157061000Y-121485000D02*
X154291000Y-121485000D01*
X162161000Y-121525000D02*
X159423000Y-121525000D01*
X157061000Y-121525000D02*
X154323000Y-121525000D01*
X162128000Y-121565000D02*
X159423000Y-121565000D01*
X157061000Y-121565000D02*
X154356000Y-121565000D01*
X162095000Y-121605000D02*
X159423000Y-121605000D01*
X157061000Y-121605000D02*
X154389000Y-121605000D01*
X162061000Y-121645000D02*
X159423000Y-121645000D01*
X157061000Y-121645000D02*
X154423000Y-121645000D01*
X162026000Y-121685000D02*
X159423000Y-121685000D01*
X157061000Y-121685000D02*
X154458000Y-121685000D01*
X161990000Y-121725000D02*
X159423000Y-121725000D01*
X157061000Y-121725000D02*
X154494000Y-121725000D01*
X161954000Y-121765000D02*
X159423000Y-121765000D01*
X157061000Y-121765000D02*
X154530000Y-121765000D01*
X161917000Y-121805000D02*
X159423000Y-121805000D01*
X157061000Y-121805000D02*
X154567000Y-121805000D01*
X161879000Y-121845000D02*
X159423000Y-121845000D01*
X157061000Y-121845000D02*
X154605000Y-121845000D01*
X161840000Y-121885000D02*
X159423000Y-121885000D01*
X157061000Y-121885000D02*
X154644000Y-121885000D01*
X161801000Y-121925000D02*
X159423000Y-121925000D01*
X157061000Y-121925000D02*
X154683000Y-121925000D01*
X161760000Y-121965000D02*
X159423000Y-121965000D01*
X157061000Y-121965000D02*
X154724000Y-121965000D01*
X161719000Y-122005000D02*
X154765000Y-122005000D01*
X161677000Y-122045000D02*
X154807000Y-122045000D01*
X161633000Y-122085000D02*
X154851000Y-122085000D01*
X161589000Y-122125000D02*
X154895000Y-122125000D01*
X161544000Y-122165000D02*
X154940000Y-122165000D01*
X161497000Y-122205000D02*
X154987000Y-122205000D01*
X161449000Y-122245000D02*
X155035000Y-122245000D01*
X161400000Y-122285000D02*
X155084000Y-122285000D01*
X161350000Y-122325000D02*
X155134000Y-122325000D01*
X161299000Y-122365000D02*
X155185000Y-122365000D01*
X161246000Y-122405000D02*
X155238000Y-122405000D01*
X161191000Y-122445000D02*
X155293000Y-122445000D01*
X161136000Y-122485000D02*
X155348000Y-122485000D01*
X161078000Y-122525000D02*
X155406000Y-122525000D01*
X161019000Y-122565000D02*
X155465000Y-122565000D01*
X160957000Y-122605000D02*
X155527000Y-122605000D01*
X160894000Y-122645000D02*
X155590000Y-122645000D01*
X160829000Y-122685000D02*
X155655000Y-122685000D01*
X160761000Y-122725000D02*
X155723000Y-122725000D01*
X160691000Y-122765000D02*
X155793000Y-122765000D01*
X160619000Y-122805000D02*
X155865000Y-122805000D01*
X160543000Y-122845000D02*
X155941000Y-122845000D01*
X160464000Y-122885000D02*
X156020000Y-122885000D01*
X160382000Y-122925000D02*
X156102000Y-122925000D01*
X160295000Y-122965000D02*
X156189000Y-122965000D01*
X160204000Y-123005000D02*
X156280000Y-123005000D01*
X160108000Y-123045000D02*
X156376000Y-123045000D01*
X160005000Y-123085000D02*
X156479000Y-123085000D01*
X159896000Y-123125000D02*
X156588000Y-123125000D01*
X159778000Y-123165000D02*
X156706000Y-123165000D01*
X159649000Y-123205000D02*
X156835000Y-123205000D01*
X159507000Y-123245000D02*
X156977000Y-123245000D01*
X159346000Y-123285000D02*
X157138000Y-123285000D01*
X159155000Y-123325000D02*
X157329000Y-123325000D01*
X158914000Y-123365000D02*
X157570000Y-123365000D01*
X158521000Y-123405000D02*
X157963000Y-123405000D01*
X158242000Y-113124000D02*
X158242000Y-114624000D01*
X158992000Y-113874000D02*
X157492000Y-113874000D01*
X180313000Y-111005000D02*
X180313000Y-110305000D01*
X181513000Y-110305000D02*
X181513000Y-111005000D01*
X184388000Y-114580000D02*
X185088000Y-114580000D01*
X185088000Y-115780000D02*
X184388000Y-115780000D01*
D12*
X144018000Y-106426000D02*
X144018000Y-119126000D01*
X143510000Y-106426000D02*
X150876000Y-106426000D01*
X143510000Y-119126000D02*
X143510000Y-106426000D01*
X150876000Y-106426000D02*
X150876000Y-119126000D01*
X150876000Y-119126000D02*
X143510000Y-119126000D01*
X192482000Y-106255000D02*
X192482000Y-118955000D01*
X191974000Y-106255000D02*
X199340000Y-106255000D01*
X191974000Y-118955000D02*
X191974000Y-106255000D01*
X199340000Y-106255000D02*
X199340000Y-118955000D01*
X199340000Y-118955000D02*
X191974000Y-118955000D01*
D11*
X186208000Y-106395000D02*
X186208000Y-109915000D01*
X181768000Y-104925000D02*
X181768000Y-107375000D01*
X181768000Y-108935000D02*
X181768000Y-111385000D01*
X184828000Y-104925000D02*
X181768000Y-104925000D01*
X184828000Y-111385000D02*
X181768000Y-111385000D01*
X183958000Y-111045000D02*
X182628000Y-109725000D01*
X184068000Y-110935000D02*
X182748000Y-109605000D01*
X184298000Y-110325000D02*
G75*
G03X184298000Y-110325000I-950000J0D01*
G01*
X182768000Y-121115000D02*
X182768000Y-117595000D01*
X187208000Y-122585000D02*
X187208000Y-120135000D01*
X187208000Y-118575000D02*
X187208000Y-116125000D01*
X184148000Y-122585000D02*
X187208000Y-122585000D01*
X184148000Y-116125000D02*
X187208000Y-116125000D01*
X185018000Y-116465000D02*
X186348000Y-117785000D01*
X184908000Y-116575000D02*
X186228000Y-117905000D01*
X186578000Y-117185000D02*
G75*
G03X186578000Y-117185000I-950000J0D01*
G01*
X164755194Y-114131525D02*
G75*
G03X164756000Y-104228667I-1179194J4951525D01*
G01*
X162396806Y-114131525D02*
G75*
G02X162396000Y-104228667I1179194J4951525D01*
G01*
X162396806Y-114131525D02*
G75*
G03X164756000Y-114131333I1179194J4951525D01*
G01*
X168626000Y-109180000D02*
X158526000Y-109180000D01*
X168626000Y-109220000D02*
X158526000Y-109220000D01*
X168626000Y-109260000D02*
X158526000Y-109260000D01*
X168625000Y-109300000D02*
X158527000Y-109300000D01*
X168624000Y-109340000D02*
X158528000Y-109340000D01*
X168623000Y-109380000D02*
X158529000Y-109380000D01*
X168621000Y-109420000D02*
X158531000Y-109420000D01*
X168619000Y-109460000D02*
X158533000Y-109460000D01*
X168616000Y-109500000D02*
X158536000Y-109500000D01*
X168614000Y-109540000D02*
X158538000Y-109540000D01*
X168611000Y-109580000D02*
X158541000Y-109580000D01*
X168607000Y-109620000D02*
X158545000Y-109620000D01*
X168604000Y-109660000D02*
X158548000Y-109660000D01*
X168600000Y-109700000D02*
X158552000Y-109700000D01*
X168596000Y-109740000D02*
X158556000Y-109740000D01*
X168591000Y-109780000D02*
X158561000Y-109780000D01*
X168586000Y-109820000D02*
X158566000Y-109820000D01*
X168581000Y-109860000D02*
X158571000Y-109860000D01*
X168575000Y-109901000D02*
X158577000Y-109901000D01*
X168569000Y-109941000D02*
X158583000Y-109941000D01*
X168563000Y-109981000D02*
X158589000Y-109981000D01*
X168557000Y-110021000D02*
X158595000Y-110021000D01*
X168550000Y-110061000D02*
X158602000Y-110061000D01*
X168543000Y-110101000D02*
X158609000Y-110101000D01*
X168535000Y-110141000D02*
X158617000Y-110141000D01*
X168527000Y-110181000D02*
X158625000Y-110181000D01*
X168519000Y-110221000D02*
X158633000Y-110221000D01*
X168511000Y-110261000D02*
X158641000Y-110261000D01*
X168502000Y-110301000D02*
X158650000Y-110301000D01*
X168493000Y-110341000D02*
X158659000Y-110341000D01*
X168483000Y-110381000D02*
X158669000Y-110381000D01*
X168473000Y-110421000D02*
X158679000Y-110421000D01*
X168463000Y-110461000D02*
X158689000Y-110461000D01*
X168452000Y-110501000D02*
X164757000Y-110501000D01*
X162395000Y-110501000D02*
X158700000Y-110501000D01*
X168441000Y-110541000D02*
X164757000Y-110541000D01*
X162395000Y-110541000D02*
X158711000Y-110541000D01*
X168430000Y-110581000D02*
X164757000Y-110581000D01*
X162395000Y-110581000D02*
X158722000Y-110581000D01*
X168419000Y-110621000D02*
X164757000Y-110621000D01*
X162395000Y-110621000D02*
X158733000Y-110621000D01*
X168407000Y-110661000D02*
X164757000Y-110661000D01*
X162395000Y-110661000D02*
X158745000Y-110661000D01*
X168394000Y-110701000D02*
X164757000Y-110701000D01*
X162395000Y-110701000D02*
X158758000Y-110701000D01*
X168382000Y-110741000D02*
X164757000Y-110741000D01*
X162395000Y-110741000D02*
X158770000Y-110741000D01*
X168368000Y-110781000D02*
X164757000Y-110781000D01*
X162395000Y-110781000D02*
X158784000Y-110781000D01*
X168355000Y-110821000D02*
X164757000Y-110821000D01*
X162395000Y-110821000D02*
X158797000Y-110821000D01*
X168341000Y-110861000D02*
X164757000Y-110861000D01*
X162395000Y-110861000D02*
X158811000Y-110861000D01*
X168327000Y-110901000D02*
X164757000Y-110901000D01*
X162395000Y-110901000D02*
X158825000Y-110901000D01*
X168313000Y-110941000D02*
X164757000Y-110941000D01*
X162395000Y-110941000D02*
X158839000Y-110941000D01*
X168298000Y-110981000D02*
X164757000Y-110981000D01*
X162395000Y-110981000D02*
X158854000Y-110981000D01*
X168282000Y-111021000D02*
X164757000Y-111021000D01*
X162395000Y-111021000D02*
X158870000Y-111021000D01*
X168267000Y-111061000D02*
X164757000Y-111061000D01*
X162395000Y-111061000D02*
X158885000Y-111061000D01*
X168250000Y-111101000D02*
X164757000Y-111101000D01*
X162395000Y-111101000D02*
X158902000Y-111101000D01*
X168234000Y-111141000D02*
X164757000Y-111141000D01*
X162395000Y-111141000D02*
X158918000Y-111141000D01*
X168217000Y-111181000D02*
X164757000Y-111181000D01*
X162395000Y-111181000D02*
X158935000Y-111181000D01*
X168200000Y-111221000D02*
X164757000Y-111221000D01*
X162395000Y-111221000D02*
X158952000Y-111221000D01*
X168182000Y-111261000D02*
X164757000Y-111261000D01*
X162395000Y-111261000D02*
X158970000Y-111261000D01*
X168164000Y-111301000D02*
X164757000Y-111301000D01*
X162395000Y-111301000D02*
X158988000Y-111301000D01*
X168145000Y-111341000D02*
X164757000Y-111341000D01*
X162395000Y-111341000D02*
X159007000Y-111341000D01*
X168126000Y-111381000D02*
X164757000Y-111381000D01*
X162395000Y-111381000D02*
X159026000Y-111381000D01*
X168107000Y-111421000D02*
X164757000Y-111421000D01*
X162395000Y-111421000D02*
X159045000Y-111421000D01*
X168087000Y-111461000D02*
X164757000Y-111461000D01*
X162395000Y-111461000D02*
X159065000Y-111461000D01*
X168067000Y-111501000D02*
X164757000Y-111501000D01*
X162395000Y-111501000D02*
X159085000Y-111501000D01*
X168046000Y-111541000D02*
X164757000Y-111541000D01*
X162395000Y-111541000D02*
X159106000Y-111541000D01*
X168025000Y-111581000D02*
X164757000Y-111581000D01*
X162395000Y-111581000D02*
X159127000Y-111581000D01*
X168004000Y-111621000D02*
X164757000Y-111621000D01*
X162395000Y-111621000D02*
X159148000Y-111621000D01*
X167981000Y-111661000D02*
X164757000Y-111661000D01*
X162395000Y-111661000D02*
X159171000Y-111661000D01*
X167959000Y-111701000D02*
X164757000Y-111701000D01*
X162395000Y-111701000D02*
X159193000Y-111701000D01*
X167936000Y-111741000D02*
X164757000Y-111741000D01*
X162395000Y-111741000D02*
X159216000Y-111741000D01*
X167912000Y-111781000D02*
X164757000Y-111781000D01*
X162395000Y-111781000D02*
X159240000Y-111781000D01*
X167888000Y-111821000D02*
X164757000Y-111821000D01*
X162395000Y-111821000D02*
X159264000Y-111821000D01*
X167864000Y-111861000D02*
X164757000Y-111861000D01*
X162395000Y-111861000D02*
X159288000Y-111861000D01*
X167839000Y-111901000D02*
X164757000Y-111901000D01*
X162395000Y-111901000D02*
X159313000Y-111901000D01*
X167813000Y-111941000D02*
X164757000Y-111941000D01*
X162395000Y-111941000D02*
X159339000Y-111941000D01*
X167787000Y-111981000D02*
X164757000Y-111981000D01*
X162395000Y-111981000D02*
X159365000Y-111981000D01*
X167761000Y-112021000D02*
X164757000Y-112021000D01*
X162395000Y-112021000D02*
X159391000Y-112021000D01*
X167733000Y-112061000D02*
X164757000Y-112061000D01*
X162395000Y-112061000D02*
X159419000Y-112061000D01*
X167706000Y-112101000D02*
X164757000Y-112101000D01*
X162395000Y-112101000D02*
X159446000Y-112101000D01*
X167677000Y-112141000D02*
X164757000Y-112141000D01*
X162395000Y-112141000D02*
X159475000Y-112141000D01*
X167648000Y-112181000D02*
X164757000Y-112181000D01*
X162395000Y-112181000D02*
X159504000Y-112181000D01*
X167619000Y-112221000D02*
X164757000Y-112221000D01*
X162395000Y-112221000D02*
X159533000Y-112221000D01*
X167589000Y-112261000D02*
X164757000Y-112261000D01*
X162395000Y-112261000D02*
X159563000Y-112261000D01*
X167558000Y-112301000D02*
X164757000Y-112301000D01*
X162395000Y-112301000D02*
X159594000Y-112301000D01*
X167527000Y-112341000D02*
X164757000Y-112341000D01*
X162395000Y-112341000D02*
X159625000Y-112341000D01*
X167495000Y-112381000D02*
X164757000Y-112381000D01*
X162395000Y-112381000D02*
X159657000Y-112381000D01*
X167462000Y-112421000D02*
X164757000Y-112421000D01*
X162395000Y-112421000D02*
X159690000Y-112421000D01*
X167429000Y-112461000D02*
X164757000Y-112461000D01*
X162395000Y-112461000D02*
X159723000Y-112461000D01*
X167395000Y-112501000D02*
X164757000Y-112501000D01*
X162395000Y-112501000D02*
X159757000Y-112501000D01*
X167360000Y-112541000D02*
X164757000Y-112541000D01*
X162395000Y-112541000D02*
X159792000Y-112541000D01*
X167324000Y-112581000D02*
X164757000Y-112581000D01*
X162395000Y-112581000D02*
X159828000Y-112581000D01*
X167288000Y-112621000D02*
X164757000Y-112621000D01*
X162395000Y-112621000D02*
X159864000Y-112621000D01*
X167251000Y-112661000D02*
X164757000Y-112661000D01*
X162395000Y-112661000D02*
X159901000Y-112661000D01*
X167213000Y-112701000D02*
X164757000Y-112701000D01*
X162395000Y-112701000D02*
X159939000Y-112701000D01*
X167174000Y-112741000D02*
X164757000Y-112741000D01*
X162395000Y-112741000D02*
X159978000Y-112741000D01*
X167135000Y-112781000D02*
X164757000Y-112781000D01*
X162395000Y-112781000D02*
X160017000Y-112781000D01*
X167094000Y-112821000D02*
X164757000Y-112821000D01*
X162395000Y-112821000D02*
X160058000Y-112821000D01*
X167053000Y-112861000D02*
X160099000Y-112861000D01*
X167011000Y-112901000D02*
X160141000Y-112901000D01*
X166967000Y-112941000D02*
X160185000Y-112941000D01*
X166923000Y-112981000D02*
X160229000Y-112981000D01*
X166878000Y-113021000D02*
X160274000Y-113021000D01*
X166831000Y-113061000D02*
X160321000Y-113061000D01*
X166783000Y-113101000D02*
X160369000Y-113101000D01*
X166734000Y-113141000D02*
X160418000Y-113141000D01*
X166684000Y-113181000D02*
X160468000Y-113181000D01*
X166633000Y-113221000D02*
X160519000Y-113221000D01*
X166580000Y-113261000D02*
X160572000Y-113261000D01*
X166525000Y-113301000D02*
X160627000Y-113301000D01*
X166470000Y-113341000D02*
X160682000Y-113341000D01*
X166412000Y-113381000D02*
X160740000Y-113381000D01*
X166353000Y-113421000D02*
X160799000Y-113421000D01*
X166291000Y-113461000D02*
X160861000Y-113461000D01*
X166228000Y-113501000D02*
X160924000Y-113501000D01*
X166163000Y-113541000D02*
X160989000Y-113541000D01*
X166095000Y-113581000D02*
X161057000Y-113581000D01*
X166025000Y-113621000D02*
X161127000Y-113621000D01*
X165953000Y-113661000D02*
X161199000Y-113661000D01*
X165877000Y-113701000D02*
X161275000Y-113701000D01*
X165798000Y-113741000D02*
X161354000Y-113741000D01*
X165716000Y-113781000D02*
X161436000Y-113781000D01*
X165629000Y-113821000D02*
X161523000Y-113821000D01*
X165538000Y-113861000D02*
X161614000Y-113861000D01*
X165442000Y-113901000D02*
X161710000Y-113901000D01*
X165339000Y-113941000D02*
X161813000Y-113941000D01*
X165230000Y-113981000D02*
X161922000Y-113981000D01*
X165112000Y-114021000D02*
X162040000Y-114021000D01*
X164983000Y-114061000D02*
X162169000Y-114061000D01*
X164841000Y-114101000D02*
X162311000Y-114101000D01*
X164680000Y-114141000D02*
X162472000Y-114141000D01*
X164489000Y-114181000D02*
X162663000Y-114181000D01*
X164248000Y-114221000D02*
X162904000Y-114221000D01*
X163855000Y-114261000D02*
X163297000Y-114261000D01*
X163576000Y-103980000D02*
X163576000Y-105480000D01*
X164326000Y-104730000D02*
X162826000Y-104730000D01*
X179229137Y-140681400D02*
G75*
G03X184023436Y-140680000I2396863J981400D01*
G01*
X179229137Y-138718600D02*
G75*
G02X184023436Y-138720000I2396863J-981400D01*
G01*
X179229137Y-138718600D02*
G75*
G03X179228564Y-140680000I2396863J-981400D01*
G01*
X181626000Y-142250000D02*
X181626000Y-137150000D01*
X181586000Y-142250000D02*
X181586000Y-140680000D01*
X181586000Y-138720000D02*
X181586000Y-137150000D01*
X181546000Y-142249000D02*
X181546000Y-140680000D01*
X181546000Y-138720000D02*
X181546000Y-137151000D01*
X181506000Y-142248000D02*
X181506000Y-140680000D01*
X181506000Y-138720000D02*
X181506000Y-137152000D01*
X181466000Y-142246000D02*
X181466000Y-140680000D01*
X181466000Y-138720000D02*
X181466000Y-137154000D01*
X181426000Y-142243000D02*
X181426000Y-140680000D01*
X181426000Y-138720000D02*
X181426000Y-137157000D01*
X181386000Y-142239000D02*
X181386000Y-140680000D01*
X181386000Y-138720000D02*
X181386000Y-137161000D01*
X181346000Y-142235000D02*
X181346000Y-140680000D01*
X181346000Y-138720000D02*
X181346000Y-137165000D01*
X181306000Y-142231000D02*
X181306000Y-140680000D01*
X181306000Y-138720000D02*
X181306000Y-137169000D01*
X181266000Y-142225000D02*
X181266000Y-140680000D01*
X181266000Y-138720000D02*
X181266000Y-137175000D01*
X181226000Y-142219000D02*
X181226000Y-140680000D01*
X181226000Y-138720000D02*
X181226000Y-137181000D01*
X181186000Y-142213000D02*
X181186000Y-140680000D01*
X181186000Y-138720000D02*
X181186000Y-137187000D01*
X181146000Y-142206000D02*
X181146000Y-140680000D01*
X181146000Y-138720000D02*
X181146000Y-137194000D01*
X181106000Y-142198000D02*
X181106000Y-140680000D01*
X181106000Y-138720000D02*
X181106000Y-137202000D01*
X181066000Y-142189000D02*
X181066000Y-140680000D01*
X181066000Y-138720000D02*
X181066000Y-137211000D01*
X181026000Y-142180000D02*
X181026000Y-140680000D01*
X181026000Y-138720000D02*
X181026000Y-137220000D01*
X180986000Y-142170000D02*
X180986000Y-140680000D01*
X180986000Y-138720000D02*
X180986000Y-137230000D01*
X180946000Y-142160000D02*
X180946000Y-140680000D01*
X180946000Y-138720000D02*
X180946000Y-137240000D01*
X180905000Y-142148000D02*
X180905000Y-140680000D01*
X180905000Y-138720000D02*
X180905000Y-137252000D01*
X180865000Y-142136000D02*
X180865000Y-140680000D01*
X180865000Y-138720000D02*
X180865000Y-137264000D01*
X180825000Y-142124000D02*
X180825000Y-140680000D01*
X180825000Y-138720000D02*
X180825000Y-137276000D01*
X180785000Y-142110000D02*
X180785000Y-140680000D01*
X180785000Y-138720000D02*
X180785000Y-137290000D01*
X180745000Y-142096000D02*
X180745000Y-140680000D01*
X180745000Y-138720000D02*
X180745000Y-137304000D01*
X180705000Y-142082000D02*
X180705000Y-140680000D01*
X180705000Y-138720000D02*
X180705000Y-137318000D01*
X180665000Y-142066000D02*
X180665000Y-140680000D01*
X180665000Y-138720000D02*
X180665000Y-137334000D01*
X180625000Y-142050000D02*
X180625000Y-140680000D01*
X180625000Y-138720000D02*
X180625000Y-137350000D01*
X180585000Y-142033000D02*
X180585000Y-140680000D01*
X180585000Y-138720000D02*
X180585000Y-137367000D01*
X180545000Y-142015000D02*
X180545000Y-140680000D01*
X180545000Y-138720000D02*
X180545000Y-137385000D01*
X180505000Y-141996000D02*
X180505000Y-140680000D01*
X180505000Y-138720000D02*
X180505000Y-137404000D01*
X180465000Y-141976000D02*
X180465000Y-140680000D01*
X180465000Y-138720000D02*
X180465000Y-137424000D01*
X180425000Y-141956000D02*
X180425000Y-140680000D01*
X180425000Y-138720000D02*
X180425000Y-137444000D01*
X180385000Y-141934000D02*
X180385000Y-140680000D01*
X180385000Y-138720000D02*
X180385000Y-137466000D01*
X180345000Y-141912000D02*
X180345000Y-140680000D01*
X180345000Y-138720000D02*
X180345000Y-137488000D01*
X180305000Y-141889000D02*
X180305000Y-140680000D01*
X180305000Y-138720000D02*
X180305000Y-137511000D01*
X180265000Y-141865000D02*
X180265000Y-140680000D01*
X180265000Y-138720000D02*
X180265000Y-137535000D01*
X180225000Y-141840000D02*
X180225000Y-140680000D01*
X180225000Y-138720000D02*
X180225000Y-137560000D01*
X180185000Y-141813000D02*
X180185000Y-140680000D01*
X180185000Y-138720000D02*
X180185000Y-137587000D01*
X180145000Y-141786000D02*
X180145000Y-140680000D01*
X180145000Y-138720000D02*
X180145000Y-137614000D01*
X180105000Y-141758000D02*
X180105000Y-140680000D01*
X180105000Y-138720000D02*
X180105000Y-137642000D01*
X180065000Y-141728000D02*
X180065000Y-140680000D01*
X180065000Y-138720000D02*
X180065000Y-137672000D01*
X180025000Y-141697000D02*
X180025000Y-140680000D01*
X180025000Y-138720000D02*
X180025000Y-137703000D01*
X179985000Y-141665000D02*
X179985000Y-140680000D01*
X179985000Y-138720000D02*
X179985000Y-137735000D01*
X179945000Y-141632000D02*
X179945000Y-140680000D01*
X179945000Y-138720000D02*
X179945000Y-137768000D01*
X179905000Y-141597000D02*
X179905000Y-140680000D01*
X179905000Y-138720000D02*
X179905000Y-137803000D01*
X179865000Y-141561000D02*
X179865000Y-140680000D01*
X179865000Y-138720000D02*
X179865000Y-137839000D01*
X179825000Y-141523000D02*
X179825000Y-140680000D01*
X179825000Y-138720000D02*
X179825000Y-137877000D01*
X179785000Y-141483000D02*
X179785000Y-140680000D01*
X179785000Y-138720000D02*
X179785000Y-137917000D01*
X179745000Y-141442000D02*
X179745000Y-140680000D01*
X179745000Y-138720000D02*
X179745000Y-137958000D01*
X179705000Y-141399000D02*
X179705000Y-140680000D01*
X179705000Y-138720000D02*
X179705000Y-138001000D01*
X179665000Y-141354000D02*
X179665000Y-140680000D01*
X179665000Y-138720000D02*
X179665000Y-138046000D01*
X179625000Y-141306000D02*
X179625000Y-138094000D01*
X179585000Y-141256000D02*
X179585000Y-138144000D01*
X179545000Y-141204000D02*
X179545000Y-138196000D01*
X179505000Y-141148000D02*
X179505000Y-138252000D01*
X179465000Y-141090000D02*
X179465000Y-138310000D01*
X179425000Y-141027000D02*
X179425000Y-138373000D01*
X179385000Y-140961000D02*
X179385000Y-138439000D01*
X179345000Y-140889000D02*
X179345000Y-138511000D01*
X179305000Y-140812000D02*
X179305000Y-138588000D01*
X179265000Y-140728000D02*
X179265000Y-138672000D01*
X179225000Y-140634000D02*
X179225000Y-138766000D01*
X179185000Y-140529000D02*
X179185000Y-138871000D01*
X179145000Y-140407000D02*
X179145000Y-138993000D01*
X179105000Y-140259000D02*
X179105000Y-139141000D01*
X179065000Y-140054000D02*
X179065000Y-139346000D01*
X184826000Y-139700000D02*
X183626000Y-139700000D01*
X184226000Y-140350000D02*
X184226000Y-139050000D01*
X159417137Y-140681400D02*
G75*
G03X164211436Y-140680000I2396863J981400D01*
G01*
X159417137Y-138718600D02*
G75*
G02X164211436Y-138720000I2396863J-981400D01*
G01*
X159417137Y-138718600D02*
G75*
G03X159416564Y-140680000I2396863J-981400D01*
G01*
X161814000Y-142250000D02*
X161814000Y-137150000D01*
X161774000Y-142250000D02*
X161774000Y-140680000D01*
X161774000Y-138720000D02*
X161774000Y-137150000D01*
X161734000Y-142249000D02*
X161734000Y-140680000D01*
X161734000Y-138720000D02*
X161734000Y-137151000D01*
X161694000Y-142248000D02*
X161694000Y-140680000D01*
X161694000Y-138720000D02*
X161694000Y-137152000D01*
X161654000Y-142246000D02*
X161654000Y-140680000D01*
X161654000Y-138720000D02*
X161654000Y-137154000D01*
X161614000Y-142243000D02*
X161614000Y-140680000D01*
X161614000Y-138720000D02*
X161614000Y-137157000D01*
X161574000Y-142239000D02*
X161574000Y-140680000D01*
X161574000Y-138720000D02*
X161574000Y-137161000D01*
X161534000Y-142235000D02*
X161534000Y-140680000D01*
X161534000Y-138720000D02*
X161534000Y-137165000D01*
X161494000Y-142231000D02*
X161494000Y-140680000D01*
X161494000Y-138720000D02*
X161494000Y-137169000D01*
X161454000Y-142225000D02*
X161454000Y-140680000D01*
X161454000Y-138720000D02*
X161454000Y-137175000D01*
X161414000Y-142219000D02*
X161414000Y-140680000D01*
X161414000Y-138720000D02*
X161414000Y-137181000D01*
X161374000Y-142213000D02*
X161374000Y-140680000D01*
X161374000Y-138720000D02*
X161374000Y-137187000D01*
X161334000Y-142206000D02*
X161334000Y-140680000D01*
X161334000Y-138720000D02*
X161334000Y-137194000D01*
X161294000Y-142198000D02*
X161294000Y-140680000D01*
X161294000Y-138720000D02*
X161294000Y-137202000D01*
X161254000Y-142189000D02*
X161254000Y-140680000D01*
X161254000Y-138720000D02*
X161254000Y-137211000D01*
X161214000Y-142180000D02*
X161214000Y-140680000D01*
X161214000Y-138720000D02*
X161214000Y-137220000D01*
X161174000Y-142170000D02*
X161174000Y-140680000D01*
X161174000Y-138720000D02*
X161174000Y-137230000D01*
X161134000Y-142160000D02*
X161134000Y-140680000D01*
X161134000Y-138720000D02*
X161134000Y-137240000D01*
X161093000Y-142148000D02*
X161093000Y-140680000D01*
X161093000Y-138720000D02*
X161093000Y-137252000D01*
X161053000Y-142136000D02*
X161053000Y-140680000D01*
X161053000Y-138720000D02*
X161053000Y-137264000D01*
X161013000Y-142124000D02*
X161013000Y-140680000D01*
X161013000Y-138720000D02*
X161013000Y-137276000D01*
X160973000Y-142110000D02*
X160973000Y-140680000D01*
X160973000Y-138720000D02*
X160973000Y-137290000D01*
X160933000Y-142096000D02*
X160933000Y-140680000D01*
X160933000Y-138720000D02*
X160933000Y-137304000D01*
X160893000Y-142082000D02*
X160893000Y-140680000D01*
X160893000Y-138720000D02*
X160893000Y-137318000D01*
X160853000Y-142066000D02*
X160853000Y-140680000D01*
X160853000Y-138720000D02*
X160853000Y-137334000D01*
X160813000Y-142050000D02*
X160813000Y-140680000D01*
X160813000Y-138720000D02*
X160813000Y-137350000D01*
X160773000Y-142033000D02*
X160773000Y-140680000D01*
X160773000Y-138720000D02*
X160773000Y-137367000D01*
X160733000Y-142015000D02*
X160733000Y-140680000D01*
X160733000Y-138720000D02*
X160733000Y-137385000D01*
X160693000Y-141996000D02*
X160693000Y-140680000D01*
X160693000Y-138720000D02*
X160693000Y-137404000D01*
X160653000Y-141976000D02*
X160653000Y-140680000D01*
X160653000Y-138720000D02*
X160653000Y-137424000D01*
X160613000Y-141956000D02*
X160613000Y-140680000D01*
X160613000Y-138720000D02*
X160613000Y-137444000D01*
X160573000Y-141934000D02*
X160573000Y-140680000D01*
X160573000Y-138720000D02*
X160573000Y-137466000D01*
X160533000Y-141912000D02*
X160533000Y-140680000D01*
X160533000Y-138720000D02*
X160533000Y-137488000D01*
X160493000Y-141889000D02*
X160493000Y-140680000D01*
X160493000Y-138720000D02*
X160493000Y-137511000D01*
X160453000Y-141865000D02*
X160453000Y-140680000D01*
X160453000Y-138720000D02*
X160453000Y-137535000D01*
X160413000Y-141840000D02*
X160413000Y-140680000D01*
X160413000Y-138720000D02*
X160413000Y-137560000D01*
X160373000Y-141813000D02*
X160373000Y-140680000D01*
X160373000Y-138720000D02*
X160373000Y-137587000D01*
X160333000Y-141786000D02*
X160333000Y-140680000D01*
X160333000Y-138720000D02*
X160333000Y-137614000D01*
X160293000Y-141758000D02*
X160293000Y-140680000D01*
X160293000Y-138720000D02*
X160293000Y-137642000D01*
X160253000Y-141728000D02*
X160253000Y-140680000D01*
X160253000Y-138720000D02*
X160253000Y-137672000D01*
X160213000Y-141697000D02*
X160213000Y-140680000D01*
X160213000Y-138720000D02*
X160213000Y-137703000D01*
X160173000Y-141665000D02*
X160173000Y-140680000D01*
X160173000Y-138720000D02*
X160173000Y-137735000D01*
X160133000Y-141632000D02*
X160133000Y-140680000D01*
X160133000Y-138720000D02*
X160133000Y-137768000D01*
X160093000Y-141597000D02*
X160093000Y-140680000D01*
X160093000Y-138720000D02*
X160093000Y-137803000D01*
X160053000Y-141561000D02*
X160053000Y-140680000D01*
X160053000Y-138720000D02*
X160053000Y-137839000D01*
X160013000Y-141523000D02*
X160013000Y-140680000D01*
X160013000Y-138720000D02*
X160013000Y-137877000D01*
X159973000Y-141483000D02*
X159973000Y-140680000D01*
X159973000Y-138720000D02*
X159973000Y-137917000D01*
X159933000Y-141442000D02*
X159933000Y-140680000D01*
X159933000Y-138720000D02*
X159933000Y-137958000D01*
X159893000Y-141399000D02*
X159893000Y-140680000D01*
X159893000Y-138720000D02*
X159893000Y-138001000D01*
X159853000Y-141354000D02*
X159853000Y-140680000D01*
X159853000Y-138720000D02*
X159853000Y-138046000D01*
X159813000Y-141306000D02*
X159813000Y-138094000D01*
X159773000Y-141256000D02*
X159773000Y-138144000D01*
X159733000Y-141204000D02*
X159733000Y-138196000D01*
X159693000Y-141148000D02*
X159693000Y-138252000D01*
X159653000Y-141090000D02*
X159653000Y-138310000D01*
X159613000Y-141027000D02*
X159613000Y-138373000D01*
X159573000Y-140961000D02*
X159573000Y-138439000D01*
X159533000Y-140889000D02*
X159533000Y-138511000D01*
X159493000Y-140812000D02*
X159493000Y-138588000D01*
X159453000Y-140728000D02*
X159453000Y-138672000D01*
X159413000Y-140634000D02*
X159413000Y-138766000D01*
X159373000Y-140529000D02*
X159373000Y-138871000D01*
X159333000Y-140407000D02*
X159333000Y-138993000D01*
X159293000Y-140259000D02*
X159293000Y-139141000D01*
X159253000Y-140054000D02*
X159253000Y-139346000D01*
X165014000Y-139700000D02*
X163814000Y-139700000D01*
X164414000Y-140350000D02*
X164414000Y-139050000D01*
D12*
X165354000Y-145034000D02*
X178054000Y-145034000D01*
X165354000Y-145542000D02*
X165354000Y-138176000D01*
X178054000Y-145542000D02*
X165354000Y-145542000D01*
X165354000Y-138176000D02*
X178054000Y-138176000D01*
X178054000Y-138176000D02*
X178054000Y-145542000D01*
X134757160Y-139357100D02*
X133957060Y-128358900D01*
X135557260Y-139357100D02*
X134757160Y-128358900D01*
X136357360Y-139357100D02*
X135557260Y-128358900D01*
X137157460Y-139357100D02*
X136357360Y-128358900D01*
X137957560Y-139357100D02*
X137157460Y-128358900D01*
X138757660Y-139357100D02*
X137957560Y-128358900D01*
X124858780Y-133858000D02*
G75*
G03X124858780Y-133858000I-1000760J0D01*
G01*
X131859020Y-129057400D02*
X119857520Y-129057400D01*
X119857520Y-129057400D02*
X119857520Y-138658600D01*
X119857520Y-138658600D02*
X131859020Y-138658600D01*
X139357100Y-128358900D02*
X131859020Y-128358900D01*
X131859020Y-128358900D02*
X131859020Y-139357100D01*
X131859020Y-139357100D02*
X139357100Y-139357100D01*
X153758900Y-141658340D02*
X153758900Y-126057660D01*
X153758900Y-126057660D02*
X139357100Y-126057660D01*
X139357100Y-126057660D02*
X139357100Y-141658340D01*
X139357100Y-141658340D02*
X153758900Y-141658340D01*
X208396840Y-126326900D02*
X209196940Y-137325100D01*
X207596740Y-126326900D02*
X208396840Y-137325100D01*
X206796640Y-126326900D02*
X207596740Y-137325100D01*
X205996540Y-126326900D02*
X206796640Y-137325100D01*
X205196440Y-126326900D02*
X205996540Y-137325100D01*
X204396340Y-126326900D02*
X205196440Y-137325100D01*
X220296740Y-131826000D02*
G75*
G03X220296740Y-131826000I-1000760J0D01*
G01*
X211294980Y-136626600D02*
X223296480Y-136626600D01*
X223296480Y-136626600D02*
X223296480Y-127025400D01*
X223296480Y-127025400D02*
X211294980Y-127025400D01*
X203796900Y-137325100D02*
X211294980Y-137325100D01*
X211294980Y-137325100D02*
X211294980Y-126326900D01*
X211294980Y-126326900D02*
X203796900Y-126326900D01*
X189395100Y-124025660D02*
X189395100Y-139626340D01*
X189395100Y-139626340D02*
X203796900Y-139626340D01*
X203796900Y-139626340D02*
X203796900Y-124025660D01*
X203796900Y-124025660D02*
X189395100Y-124025660D01*
D11*
X163670863Y-86902600D02*
G75*
G03X158876564Y-86904000I-2396863J-981400D01*
G01*
X163670863Y-88865400D02*
G75*
G02X158876564Y-88864000I-2396863J981400D01*
G01*
X163670863Y-88865400D02*
G75*
G03X163671436Y-86904000I-2396863J981400D01*
G01*
X161274000Y-85334000D02*
X161274000Y-90434000D01*
X161314000Y-85334000D02*
X161314000Y-86904000D01*
X161314000Y-88864000D02*
X161314000Y-90434000D01*
X161354000Y-85335000D02*
X161354000Y-86904000D01*
X161354000Y-88864000D02*
X161354000Y-90433000D01*
X161394000Y-85336000D02*
X161394000Y-86904000D01*
X161394000Y-88864000D02*
X161394000Y-90432000D01*
X161434000Y-85338000D02*
X161434000Y-86904000D01*
X161434000Y-88864000D02*
X161434000Y-90430000D01*
X161474000Y-85341000D02*
X161474000Y-86904000D01*
X161474000Y-88864000D02*
X161474000Y-90427000D01*
X161514000Y-85345000D02*
X161514000Y-86904000D01*
X161514000Y-88864000D02*
X161514000Y-90423000D01*
X161554000Y-85349000D02*
X161554000Y-86904000D01*
X161554000Y-88864000D02*
X161554000Y-90419000D01*
X161594000Y-85353000D02*
X161594000Y-86904000D01*
X161594000Y-88864000D02*
X161594000Y-90415000D01*
X161634000Y-85359000D02*
X161634000Y-86904000D01*
X161634000Y-88864000D02*
X161634000Y-90409000D01*
X161674000Y-85365000D02*
X161674000Y-86904000D01*
X161674000Y-88864000D02*
X161674000Y-90403000D01*
X161714000Y-85371000D02*
X161714000Y-86904000D01*
X161714000Y-88864000D02*
X161714000Y-90397000D01*
X161754000Y-85378000D02*
X161754000Y-86904000D01*
X161754000Y-88864000D02*
X161754000Y-90390000D01*
X161794000Y-85386000D02*
X161794000Y-86904000D01*
X161794000Y-88864000D02*
X161794000Y-90382000D01*
X161834000Y-85395000D02*
X161834000Y-86904000D01*
X161834000Y-88864000D02*
X161834000Y-90373000D01*
X161874000Y-85404000D02*
X161874000Y-86904000D01*
X161874000Y-88864000D02*
X161874000Y-90364000D01*
X161914000Y-85414000D02*
X161914000Y-86904000D01*
X161914000Y-88864000D02*
X161914000Y-90354000D01*
X161954000Y-85424000D02*
X161954000Y-86904000D01*
X161954000Y-88864000D02*
X161954000Y-90344000D01*
X161995000Y-85436000D02*
X161995000Y-86904000D01*
X161995000Y-88864000D02*
X161995000Y-90332000D01*
X162035000Y-85448000D02*
X162035000Y-86904000D01*
X162035000Y-88864000D02*
X162035000Y-90320000D01*
X162075000Y-85460000D02*
X162075000Y-86904000D01*
X162075000Y-88864000D02*
X162075000Y-90308000D01*
X162115000Y-85474000D02*
X162115000Y-86904000D01*
X162115000Y-88864000D02*
X162115000Y-90294000D01*
X162155000Y-85488000D02*
X162155000Y-86904000D01*
X162155000Y-88864000D02*
X162155000Y-90280000D01*
X162195000Y-85502000D02*
X162195000Y-86904000D01*
X162195000Y-88864000D02*
X162195000Y-90266000D01*
X162235000Y-85518000D02*
X162235000Y-86904000D01*
X162235000Y-88864000D02*
X162235000Y-90250000D01*
X162275000Y-85534000D02*
X162275000Y-86904000D01*
X162275000Y-88864000D02*
X162275000Y-90234000D01*
X162315000Y-85551000D02*
X162315000Y-86904000D01*
X162315000Y-88864000D02*
X162315000Y-90217000D01*
X162355000Y-85569000D02*
X162355000Y-86904000D01*
X162355000Y-88864000D02*
X162355000Y-90199000D01*
X162395000Y-85588000D02*
X162395000Y-86904000D01*
X162395000Y-88864000D02*
X162395000Y-90180000D01*
X162435000Y-85608000D02*
X162435000Y-86904000D01*
X162435000Y-88864000D02*
X162435000Y-90160000D01*
X162475000Y-85628000D02*
X162475000Y-86904000D01*
X162475000Y-88864000D02*
X162475000Y-90140000D01*
X162515000Y-85650000D02*
X162515000Y-86904000D01*
X162515000Y-88864000D02*
X162515000Y-90118000D01*
X162555000Y-85672000D02*
X162555000Y-86904000D01*
X162555000Y-88864000D02*
X162555000Y-90096000D01*
X162595000Y-85695000D02*
X162595000Y-86904000D01*
X162595000Y-88864000D02*
X162595000Y-90073000D01*
X162635000Y-85719000D02*
X162635000Y-86904000D01*
X162635000Y-88864000D02*
X162635000Y-90049000D01*
X162675000Y-85744000D02*
X162675000Y-86904000D01*
X162675000Y-88864000D02*
X162675000Y-90024000D01*
X162715000Y-85771000D02*
X162715000Y-86904000D01*
X162715000Y-88864000D02*
X162715000Y-89997000D01*
X162755000Y-85798000D02*
X162755000Y-86904000D01*
X162755000Y-88864000D02*
X162755000Y-89970000D01*
X162795000Y-85826000D02*
X162795000Y-86904000D01*
X162795000Y-88864000D02*
X162795000Y-89942000D01*
X162835000Y-85856000D02*
X162835000Y-86904000D01*
X162835000Y-88864000D02*
X162835000Y-89912000D01*
X162875000Y-85887000D02*
X162875000Y-86904000D01*
X162875000Y-88864000D02*
X162875000Y-89881000D01*
X162915000Y-85919000D02*
X162915000Y-86904000D01*
X162915000Y-88864000D02*
X162915000Y-89849000D01*
X162955000Y-85952000D02*
X162955000Y-86904000D01*
X162955000Y-88864000D02*
X162955000Y-89816000D01*
X162995000Y-85987000D02*
X162995000Y-86904000D01*
X162995000Y-88864000D02*
X162995000Y-89781000D01*
X163035000Y-86023000D02*
X163035000Y-86904000D01*
X163035000Y-88864000D02*
X163035000Y-89745000D01*
X163075000Y-86061000D02*
X163075000Y-86904000D01*
X163075000Y-88864000D02*
X163075000Y-89707000D01*
X163115000Y-86101000D02*
X163115000Y-86904000D01*
X163115000Y-88864000D02*
X163115000Y-89667000D01*
X163155000Y-86142000D02*
X163155000Y-86904000D01*
X163155000Y-88864000D02*
X163155000Y-89626000D01*
X163195000Y-86185000D02*
X163195000Y-86904000D01*
X163195000Y-88864000D02*
X163195000Y-89583000D01*
X163235000Y-86230000D02*
X163235000Y-86904000D01*
X163235000Y-88864000D02*
X163235000Y-89538000D01*
X163275000Y-86278000D02*
X163275000Y-89490000D01*
X163315000Y-86328000D02*
X163315000Y-89440000D01*
X163355000Y-86380000D02*
X163355000Y-89388000D01*
X163395000Y-86436000D02*
X163395000Y-89332000D01*
X163435000Y-86494000D02*
X163435000Y-89274000D01*
X163475000Y-86557000D02*
X163475000Y-89211000D01*
X163515000Y-86623000D02*
X163515000Y-89145000D01*
X163555000Y-86695000D02*
X163555000Y-89073000D01*
X163595000Y-86772000D02*
X163595000Y-88996000D01*
X163635000Y-86856000D02*
X163635000Y-88912000D01*
X163675000Y-86950000D02*
X163675000Y-88818000D01*
X163715000Y-87055000D02*
X163715000Y-88713000D01*
X163755000Y-87177000D02*
X163755000Y-88591000D01*
X163795000Y-87325000D02*
X163795000Y-88443000D01*
X163835000Y-87530000D02*
X163835000Y-88238000D01*
X158074000Y-87884000D02*
X159274000Y-87884000D01*
X158674000Y-87234000D02*
X158674000Y-88534000D01*
X183482863Y-86902600D02*
G75*
G03X178688564Y-86904000I-2396863J-981400D01*
G01*
X183482863Y-88865400D02*
G75*
G02X178688564Y-88864000I-2396863J981400D01*
G01*
X183482863Y-88865400D02*
G75*
G03X183483436Y-86904000I-2396863J981400D01*
G01*
X181086000Y-85334000D02*
X181086000Y-90434000D01*
X181126000Y-85334000D02*
X181126000Y-86904000D01*
X181126000Y-88864000D02*
X181126000Y-90434000D01*
X181166000Y-85335000D02*
X181166000Y-86904000D01*
X181166000Y-88864000D02*
X181166000Y-90433000D01*
X181206000Y-85336000D02*
X181206000Y-86904000D01*
X181206000Y-88864000D02*
X181206000Y-90432000D01*
X181246000Y-85338000D02*
X181246000Y-86904000D01*
X181246000Y-88864000D02*
X181246000Y-90430000D01*
X181286000Y-85341000D02*
X181286000Y-86904000D01*
X181286000Y-88864000D02*
X181286000Y-90427000D01*
X181326000Y-85345000D02*
X181326000Y-86904000D01*
X181326000Y-88864000D02*
X181326000Y-90423000D01*
X181366000Y-85349000D02*
X181366000Y-86904000D01*
X181366000Y-88864000D02*
X181366000Y-90419000D01*
X181406000Y-85353000D02*
X181406000Y-86904000D01*
X181406000Y-88864000D02*
X181406000Y-90415000D01*
X181446000Y-85359000D02*
X181446000Y-86904000D01*
X181446000Y-88864000D02*
X181446000Y-90409000D01*
X181486000Y-85365000D02*
X181486000Y-86904000D01*
X181486000Y-88864000D02*
X181486000Y-90403000D01*
X181526000Y-85371000D02*
X181526000Y-86904000D01*
X181526000Y-88864000D02*
X181526000Y-90397000D01*
X181566000Y-85378000D02*
X181566000Y-86904000D01*
X181566000Y-88864000D02*
X181566000Y-90390000D01*
X181606000Y-85386000D02*
X181606000Y-86904000D01*
X181606000Y-88864000D02*
X181606000Y-90382000D01*
X181646000Y-85395000D02*
X181646000Y-86904000D01*
X181646000Y-88864000D02*
X181646000Y-90373000D01*
X181686000Y-85404000D02*
X181686000Y-86904000D01*
X181686000Y-88864000D02*
X181686000Y-90364000D01*
X181726000Y-85414000D02*
X181726000Y-86904000D01*
X181726000Y-88864000D02*
X181726000Y-90354000D01*
X181766000Y-85424000D02*
X181766000Y-86904000D01*
X181766000Y-88864000D02*
X181766000Y-90344000D01*
X181807000Y-85436000D02*
X181807000Y-86904000D01*
X181807000Y-88864000D02*
X181807000Y-90332000D01*
X181847000Y-85448000D02*
X181847000Y-86904000D01*
X181847000Y-88864000D02*
X181847000Y-90320000D01*
X181887000Y-85460000D02*
X181887000Y-86904000D01*
X181887000Y-88864000D02*
X181887000Y-90308000D01*
X181927000Y-85474000D02*
X181927000Y-86904000D01*
X181927000Y-88864000D02*
X181927000Y-90294000D01*
X181967000Y-85488000D02*
X181967000Y-86904000D01*
X181967000Y-88864000D02*
X181967000Y-90280000D01*
X182007000Y-85502000D02*
X182007000Y-86904000D01*
X182007000Y-88864000D02*
X182007000Y-90266000D01*
X182047000Y-85518000D02*
X182047000Y-86904000D01*
X182047000Y-88864000D02*
X182047000Y-90250000D01*
X182087000Y-85534000D02*
X182087000Y-86904000D01*
X182087000Y-88864000D02*
X182087000Y-90234000D01*
X182127000Y-85551000D02*
X182127000Y-86904000D01*
X182127000Y-88864000D02*
X182127000Y-90217000D01*
X182167000Y-85569000D02*
X182167000Y-86904000D01*
X182167000Y-88864000D02*
X182167000Y-90199000D01*
X182207000Y-85588000D02*
X182207000Y-86904000D01*
X182207000Y-88864000D02*
X182207000Y-90180000D01*
X182247000Y-85608000D02*
X182247000Y-86904000D01*
X182247000Y-88864000D02*
X182247000Y-90160000D01*
X182287000Y-85628000D02*
X182287000Y-86904000D01*
X182287000Y-88864000D02*
X182287000Y-90140000D01*
X182327000Y-85650000D02*
X182327000Y-86904000D01*
X182327000Y-88864000D02*
X182327000Y-90118000D01*
X182367000Y-85672000D02*
X182367000Y-86904000D01*
X182367000Y-88864000D02*
X182367000Y-90096000D01*
X182407000Y-85695000D02*
X182407000Y-86904000D01*
X182407000Y-88864000D02*
X182407000Y-90073000D01*
X182447000Y-85719000D02*
X182447000Y-86904000D01*
X182447000Y-88864000D02*
X182447000Y-90049000D01*
X182487000Y-85744000D02*
X182487000Y-86904000D01*
X182487000Y-88864000D02*
X182487000Y-90024000D01*
X182527000Y-85771000D02*
X182527000Y-86904000D01*
X182527000Y-88864000D02*
X182527000Y-89997000D01*
X182567000Y-85798000D02*
X182567000Y-86904000D01*
X182567000Y-88864000D02*
X182567000Y-89970000D01*
X182607000Y-85826000D02*
X182607000Y-86904000D01*
X182607000Y-88864000D02*
X182607000Y-89942000D01*
X182647000Y-85856000D02*
X182647000Y-86904000D01*
X182647000Y-88864000D02*
X182647000Y-89912000D01*
X182687000Y-85887000D02*
X182687000Y-86904000D01*
X182687000Y-88864000D02*
X182687000Y-89881000D01*
X182727000Y-85919000D02*
X182727000Y-86904000D01*
X182727000Y-88864000D02*
X182727000Y-89849000D01*
X182767000Y-85952000D02*
X182767000Y-86904000D01*
X182767000Y-88864000D02*
X182767000Y-89816000D01*
X182807000Y-85987000D02*
X182807000Y-86904000D01*
X182807000Y-88864000D02*
X182807000Y-89781000D01*
X182847000Y-86023000D02*
X182847000Y-86904000D01*
X182847000Y-88864000D02*
X182847000Y-89745000D01*
X182887000Y-86061000D02*
X182887000Y-86904000D01*
X182887000Y-88864000D02*
X182887000Y-89707000D01*
X182927000Y-86101000D02*
X182927000Y-86904000D01*
X182927000Y-88864000D02*
X182927000Y-89667000D01*
X182967000Y-86142000D02*
X182967000Y-86904000D01*
X182967000Y-88864000D02*
X182967000Y-89626000D01*
X183007000Y-86185000D02*
X183007000Y-86904000D01*
X183007000Y-88864000D02*
X183007000Y-89583000D01*
X183047000Y-86230000D02*
X183047000Y-86904000D01*
X183047000Y-88864000D02*
X183047000Y-89538000D01*
X183087000Y-86278000D02*
X183087000Y-89490000D01*
X183127000Y-86328000D02*
X183127000Y-89440000D01*
X183167000Y-86380000D02*
X183167000Y-89388000D01*
X183207000Y-86436000D02*
X183207000Y-89332000D01*
X183247000Y-86494000D02*
X183247000Y-89274000D01*
X183287000Y-86557000D02*
X183287000Y-89211000D01*
X183327000Y-86623000D02*
X183327000Y-89145000D01*
X183367000Y-86695000D02*
X183367000Y-89073000D01*
X183407000Y-86772000D02*
X183407000Y-88996000D01*
X183447000Y-86856000D02*
X183447000Y-88912000D01*
X183487000Y-86950000D02*
X183487000Y-88818000D01*
X183527000Y-87055000D02*
X183527000Y-88713000D01*
X183567000Y-87177000D02*
X183567000Y-88591000D01*
X183607000Y-87325000D02*
X183607000Y-88443000D01*
X183647000Y-87530000D02*
X183647000Y-88238000D01*
X177886000Y-87884000D02*
X179086000Y-87884000D01*
X178486000Y-87234000D02*
X178486000Y-88534000D01*
D12*
X177546000Y-82550000D02*
X164846000Y-82550000D01*
X177546000Y-82042000D02*
X177546000Y-89408000D01*
X164846000Y-82042000D02*
X177546000Y-82042000D01*
X177546000Y-89408000D02*
X164846000Y-89408000D01*
X164846000Y-89408000D02*
X164846000Y-82042000D01*
X208142840Y-88226900D02*
X208942940Y-99225100D01*
X207342740Y-88226900D02*
X208142840Y-99225100D01*
X206542640Y-88226900D02*
X207342740Y-99225100D01*
X205742540Y-88226900D02*
X206542640Y-99225100D01*
X204942440Y-88226900D02*
X205742540Y-99225100D01*
X204142340Y-88226900D02*
X204942440Y-99225100D01*
X220042740Y-93726000D02*
G75*
G03X220042740Y-93726000I-1000760J0D01*
G01*
X211040980Y-98526600D02*
X223042480Y-98526600D01*
X223042480Y-98526600D02*
X223042480Y-88925400D01*
X223042480Y-88925400D02*
X211040980Y-88925400D01*
X203542900Y-99225100D02*
X211040980Y-99225100D01*
X211040980Y-99225100D02*
X211040980Y-88226900D01*
X211040980Y-88226900D02*
X203542900Y-88226900D01*
X189141100Y-85925660D02*
X189141100Y-101526340D01*
X189141100Y-101526340D02*
X203542900Y-101526340D01*
X203542900Y-101526340D02*
X203542900Y-85925660D01*
X203542900Y-85925660D02*
X189141100Y-85925660D01*
X134503160Y-101257100D02*
X133703060Y-90258900D01*
X135303260Y-101257100D02*
X134503160Y-90258900D01*
X136103360Y-101257100D02*
X135303260Y-90258900D01*
X136903460Y-101257100D02*
X136103360Y-90258900D01*
X137703560Y-101257100D02*
X136903460Y-90258900D01*
X138503660Y-101257100D02*
X137703560Y-90258900D01*
X124604780Y-95758000D02*
G75*
G03X124604780Y-95758000I-1000760J0D01*
G01*
X131605020Y-90957400D02*
X119603520Y-90957400D01*
X119603520Y-90957400D02*
X119603520Y-100558600D01*
X119603520Y-100558600D02*
X131605020Y-100558600D01*
X139103100Y-90258900D02*
X131605020Y-90258900D01*
X131605020Y-90258900D02*
X131605020Y-101257100D01*
X131605020Y-101257100D02*
X139103100Y-101257100D01*
X153504900Y-103558340D02*
X153504900Y-87957660D01*
X153504900Y-87957660D02*
X139103100Y-87957660D01*
X139103100Y-87957660D02*
X139103100Y-103558340D01*
X139103100Y-103558340D02*
X153504900Y-103558340D01*
X164659143Y-118490666D02*
X164706762Y-118538285D01*
X164754381Y-118681142D01*
X164754381Y-118776380D01*
X164706762Y-118919238D01*
X164611524Y-119014476D01*
X164516286Y-119062095D01*
X164325810Y-119109714D01*
X164182952Y-119109714D01*
X163992476Y-119062095D01*
X163897238Y-119014476D01*
X163802000Y-118919238D01*
X163754381Y-118776380D01*
X163754381Y-118681142D01*
X163802000Y-118538285D01*
X163849619Y-118490666D01*
X164754381Y-117538285D02*
X164754381Y-118109714D01*
X164754381Y-117824000D02*
X163754381Y-117824000D01*
X163897238Y-117919238D01*
X163992476Y-118014476D01*
X164040095Y-118109714D01*
X179770143Y-111297857D02*
X179817762Y-111345476D01*
X179865381Y-111488333D01*
X179865381Y-111583571D01*
X179817762Y-111726429D01*
X179722524Y-111821667D01*
X179627286Y-111869286D01*
X179436810Y-111916905D01*
X179293952Y-111916905D01*
X179103476Y-111869286D01*
X179008238Y-111821667D01*
X178913000Y-111726429D01*
X178865381Y-111583571D01*
X178865381Y-111488333D01*
X178913000Y-111345476D01*
X178960619Y-111297857D01*
X179865381Y-110345476D02*
X179865381Y-110916905D01*
X179865381Y-110631191D02*
X178865381Y-110631191D01*
X179008238Y-110726429D01*
X179103476Y-110821667D01*
X179151095Y-110916905D01*
X179865381Y-109393095D02*
X179865381Y-109964524D01*
X179865381Y-109678810D02*
X178865381Y-109678810D01*
X179008238Y-109774048D01*
X179103476Y-109869286D01*
X179151095Y-109964524D01*
X184095143Y-114037143D02*
X184047524Y-114084762D01*
X183904667Y-114132381D01*
X183809429Y-114132381D01*
X183666571Y-114084762D01*
X183571333Y-113989524D01*
X183523714Y-113894286D01*
X183476095Y-113703810D01*
X183476095Y-113560952D01*
X183523714Y-113370476D01*
X183571333Y-113275238D01*
X183666571Y-113180000D01*
X183809429Y-113132381D01*
X183904667Y-113132381D01*
X184047524Y-113180000D01*
X184095143Y-113227619D01*
X185047524Y-114132381D02*
X184476095Y-114132381D01*
X184761809Y-114132381D02*
X184761809Y-113132381D01*
X184666571Y-113275238D01*
X184571333Y-113370476D01*
X184476095Y-113418095D01*
X185428476Y-113227619D02*
X185476095Y-113180000D01*
X185571333Y-113132381D01*
X185809429Y-113132381D01*
X185904667Y-113180000D01*
X185952286Y-113227619D01*
X185999905Y-113322857D01*
X185999905Y-113418095D01*
X185952286Y-113560952D01*
X185380857Y-114132381D01*
X185999905Y-114132381D01*
X144212571Y-113276000D02*
X145284000Y-113276000D01*
X145498286Y-113347428D01*
X145641143Y-113490285D01*
X145712571Y-113704571D01*
X145712571Y-113847428D01*
X145712571Y-111776000D02*
X145712571Y-112633143D01*
X145712571Y-112204571D02*
X144212571Y-112204571D01*
X144426857Y-112347428D01*
X144569714Y-112490286D01*
X144641143Y-112633143D01*
X192676571Y-113105000D02*
X193748000Y-113105000D01*
X193962286Y-113176428D01*
X194105143Y-113319285D01*
X194176571Y-113533571D01*
X194176571Y-113676428D01*
X192819429Y-112462143D02*
X192748000Y-112390714D01*
X192676571Y-112247857D01*
X192676571Y-111890714D01*
X192748000Y-111747857D01*
X192819429Y-111676428D01*
X192962286Y-111605000D01*
X193105143Y-111605000D01*
X193319429Y-111676428D01*
X194176571Y-112533571D01*
X194176571Y-111605000D01*
X189500381Y-108750238D02*
X189024190Y-109083572D01*
X189500381Y-109321667D02*
X188500381Y-109321667D01*
X188500381Y-108940714D01*
X188548000Y-108845476D01*
X188595619Y-108797857D01*
X188690857Y-108750238D01*
X188833714Y-108750238D01*
X188928952Y-108797857D01*
X188976571Y-108845476D01*
X189024190Y-108940714D01*
X189024190Y-109321667D01*
X188500381Y-108464524D02*
X189500381Y-108131191D01*
X188500381Y-107797857D01*
X189500381Y-106940714D02*
X189500381Y-107512143D01*
X189500381Y-107226429D02*
X188500381Y-107226429D01*
X188643238Y-107321667D01*
X188738476Y-107416905D01*
X188786095Y-107512143D01*
X180380381Y-119950238D02*
X179904190Y-120283572D01*
X180380381Y-120521667D02*
X179380381Y-120521667D01*
X179380381Y-120140714D01*
X179428000Y-120045476D01*
X179475619Y-119997857D01*
X179570857Y-119950238D01*
X179713714Y-119950238D01*
X179808952Y-119997857D01*
X179856571Y-120045476D01*
X179904190Y-120140714D01*
X179904190Y-120521667D01*
X179380381Y-119664524D02*
X180380381Y-119331191D01*
X179380381Y-118997857D01*
X179475619Y-118712143D02*
X179428000Y-118664524D01*
X179380381Y-118569286D01*
X179380381Y-118331190D01*
X179428000Y-118235952D01*
X179475619Y-118188333D01*
X179570857Y-118140714D01*
X179666095Y-118140714D01*
X179808952Y-118188333D01*
X180380381Y-118759762D01*
X180380381Y-118140714D01*
X169993143Y-109346666D02*
X170040762Y-109394285D01*
X170088381Y-109537142D01*
X170088381Y-109632380D01*
X170040762Y-109775238D01*
X169945524Y-109870476D01*
X169850286Y-109918095D01*
X169659810Y-109965714D01*
X169516952Y-109965714D01*
X169326476Y-109918095D01*
X169231238Y-109870476D01*
X169136000Y-109775238D01*
X169088381Y-109632380D01*
X169088381Y-109537142D01*
X169136000Y-109394285D01*
X169183619Y-109346666D01*
X169183619Y-108965714D02*
X169136000Y-108918095D01*
X169088381Y-108822857D01*
X169088381Y-108584761D01*
X169136000Y-108489523D01*
X169183619Y-108441904D01*
X169278857Y-108394285D01*
X169374095Y-108394285D01*
X169516952Y-108441904D01*
X170088381Y-109013333D01*
X170088381Y-108394285D01*
X181459334Y-143617143D02*
X181411715Y-143664762D01*
X181268858Y-143712381D01*
X181173620Y-143712381D01*
X181030762Y-143664762D01*
X180935524Y-143569524D01*
X180887905Y-143474286D01*
X180840286Y-143283810D01*
X180840286Y-143140952D01*
X180887905Y-142950476D01*
X180935524Y-142855238D01*
X181030762Y-142760000D01*
X181173620Y-142712381D01*
X181268858Y-142712381D01*
X181411715Y-142760000D01*
X181459334Y-142807619D01*
X181792667Y-142712381D02*
X182459334Y-142712381D01*
X182030762Y-143712381D01*
X161171143Y-143617143D02*
X161123524Y-143664762D01*
X160980667Y-143712381D01*
X160885429Y-143712381D01*
X160742571Y-143664762D01*
X160647333Y-143569524D01*
X160599714Y-143474286D01*
X160552095Y-143283810D01*
X160552095Y-143140952D01*
X160599714Y-142950476D01*
X160647333Y-142855238D01*
X160742571Y-142760000D01*
X160885429Y-142712381D01*
X160980667Y-142712381D01*
X161123524Y-142760000D01*
X161171143Y-142807619D01*
X162123524Y-143712381D02*
X161552095Y-143712381D01*
X161837809Y-143712381D02*
X161837809Y-142712381D01*
X161742571Y-142855238D01*
X161647333Y-142950476D01*
X161552095Y-142998095D01*
X162742571Y-142712381D02*
X162837810Y-142712381D01*
X162933048Y-142760000D01*
X162980667Y-142807619D01*
X163028286Y-142902857D01*
X163075905Y-143093333D01*
X163075905Y-143331429D01*
X163028286Y-143521905D01*
X162980667Y-143617143D01*
X162933048Y-143664762D01*
X162837810Y-143712381D01*
X162742571Y-143712381D01*
X162647333Y-143664762D01*
X162599714Y-143617143D01*
X162552095Y-143521905D01*
X162504476Y-143331429D01*
X162504476Y-143093333D01*
X162552095Y-142902857D01*
X162599714Y-142807619D01*
X162647333Y-142760000D01*
X162742571Y-142712381D01*
X171204000Y-143196571D02*
X171204000Y-144268000D01*
X171132572Y-144482286D01*
X170989715Y-144625143D01*
X170775429Y-144696571D01*
X170632572Y-144696571D01*
X171846857Y-143339429D02*
X171918286Y-143268000D01*
X172061143Y-143196571D01*
X172418286Y-143196571D01*
X172561143Y-143268000D01*
X172632572Y-143339429D01*
X172704000Y-143482286D01*
X172704000Y-143625143D01*
X172632572Y-143839429D01*
X171775429Y-144696571D01*
X172704000Y-144696571D01*
X155662381Y-133683333D02*
X156376667Y-133683333D01*
X156519524Y-133730953D01*
X156614762Y-133826191D01*
X156662381Y-133969048D01*
X156662381Y-134064286D01*
X156662381Y-132683333D02*
X156662381Y-133254762D01*
X156662381Y-132969048D02*
X155662381Y-132969048D01*
X155805238Y-133064286D01*
X155900476Y-133159524D01*
X155948095Y-133254762D01*
X186396381Y-132667333D02*
X187110667Y-132667333D01*
X187253524Y-132714953D01*
X187348762Y-132810191D01*
X187396381Y-132953048D01*
X187396381Y-133048286D01*
X186396381Y-132286381D02*
X186396381Y-131667333D01*
X186777333Y-132000667D01*
X186777333Y-131857809D01*
X186824952Y-131762571D01*
X186872571Y-131714952D01*
X186967810Y-131667333D01*
X187205905Y-131667333D01*
X187301143Y-131714952D01*
X187348762Y-131762571D01*
X187396381Y-131857809D01*
X187396381Y-132143524D01*
X187348762Y-132238762D01*
X187301143Y-132286381D01*
X161107334Y-84681143D02*
X161059715Y-84728762D01*
X160916858Y-84776381D01*
X160821620Y-84776381D01*
X160678762Y-84728762D01*
X160583524Y-84633524D01*
X160535905Y-84538286D01*
X160488286Y-84347810D01*
X160488286Y-84204952D01*
X160535905Y-84014476D01*
X160583524Y-83919238D01*
X160678762Y-83824000D01*
X160821620Y-83776381D01*
X160916858Y-83776381D01*
X161059715Y-83824000D01*
X161107334Y-83871619D01*
X161440667Y-83776381D02*
X162107334Y-83776381D01*
X161678762Y-84776381D01*
X180443143Y-84681143D02*
X180395524Y-84728762D01*
X180252667Y-84776381D01*
X180157429Y-84776381D01*
X180014571Y-84728762D01*
X179919333Y-84633524D01*
X179871714Y-84538286D01*
X179824095Y-84347810D01*
X179824095Y-84204952D01*
X179871714Y-84014476D01*
X179919333Y-83919238D01*
X180014571Y-83824000D01*
X180157429Y-83776381D01*
X180252667Y-83776381D01*
X180395524Y-83824000D01*
X180443143Y-83871619D01*
X181395524Y-84776381D02*
X180824095Y-84776381D01*
X181109809Y-84776381D02*
X181109809Y-83776381D01*
X181014571Y-83919238D01*
X180919333Y-84014476D01*
X180824095Y-84062095D01*
X182014571Y-83776381D02*
X182109810Y-83776381D01*
X182205048Y-83824000D01*
X182252667Y-83871619D01*
X182300286Y-83966857D01*
X182347905Y-84157333D01*
X182347905Y-84395429D01*
X182300286Y-84585905D01*
X182252667Y-84681143D01*
X182205048Y-84728762D01*
X182109810Y-84776381D01*
X182014571Y-84776381D01*
X181919333Y-84728762D01*
X181871714Y-84681143D01*
X181824095Y-84585905D01*
X181776476Y-84395429D01*
X181776476Y-84157333D01*
X181824095Y-83966857D01*
X181871714Y-83871619D01*
X181919333Y-83824000D01*
X182014571Y-83776381D01*
X170696000Y-82744571D02*
X170696000Y-83816000D01*
X170624572Y-84030286D01*
X170481715Y-84173143D01*
X170267429Y-84244571D01*
X170124572Y-84244571D01*
X171338857Y-82887429D02*
X171410286Y-82816000D01*
X171553143Y-82744571D01*
X171910286Y-82744571D01*
X172053143Y-82816000D01*
X172124572Y-82887429D01*
X172196000Y-83030286D01*
X172196000Y-83173143D01*
X172124572Y-83387429D01*
X171267429Y-84244571D01*
X172196000Y-84244571D01*
X186142381Y-94567333D02*
X186856667Y-94567333D01*
X186999524Y-94614953D01*
X187094762Y-94710191D01*
X187142381Y-94853048D01*
X187142381Y-94948286D01*
X187142381Y-93567333D02*
X187142381Y-94138762D01*
X187142381Y-93853048D02*
X186142381Y-93853048D01*
X186285238Y-93948286D01*
X186380476Y-94043524D01*
X186428095Y-94138762D01*
X155408381Y-95583333D02*
X156122667Y-95583333D01*
X156265524Y-95630953D01*
X156360762Y-95726191D01*
X156408381Y-95869048D01*
X156408381Y-95964286D01*
X155408381Y-95202381D02*
X155408381Y-94583333D01*
X155789333Y-94916667D01*
X155789333Y-94773809D01*
X155836952Y-94678571D01*
X155884571Y-94630952D01*
X155979810Y-94583333D01*
X156217905Y-94583333D01*
X156313143Y-94630952D01*
X156360762Y-94678571D01*
X156408381Y-94773809D01*
X156408381Y-95059524D01*
X156360762Y-95154762D01*
X156313143Y-95202381D01*
M02*
