G04 #@! TF.FileFunction,Legend,Bot*
%FSLAX46Y46*%
G04 Gerber Fmt 4.6, Leading zero omitted, Abs format (unit mm)*
G04 Created by KiCad (PCBNEW 4.0.4-stable) date Mon Oct  3 10:35:52 2016*
%MOMM*%
%LPD*%
G01*
G04 APERTURE LIST*
%ADD10C,0.100000*%
%ADD11C,0.150000*%
G04 APERTURE END LIST*
D10*
D11*
X141092500Y-117751500D02*
X141092500Y-112753500D01*
X141232500Y-117743500D02*
X141232500Y-115406500D01*
X141232500Y-115098500D02*
X141232500Y-112761500D01*
X141372500Y-117727500D02*
X141372500Y-115725500D01*
X141372500Y-114779500D02*
X141372500Y-112777500D01*
X141512500Y-117703500D02*
X141512500Y-115872500D01*
X141512500Y-114632500D02*
X141512500Y-112801500D01*
X141652500Y-117670500D02*
X141652500Y-115964500D01*
X141652500Y-114540500D02*
X141652500Y-112834500D01*
X141792500Y-117629500D02*
X141792500Y-116020500D01*
X141792500Y-114484500D02*
X141792500Y-112875500D01*
X141932500Y-117579500D02*
X141932500Y-116047500D01*
X141932500Y-114457500D02*
X141932500Y-112925500D01*
X142072500Y-117518500D02*
X142072500Y-116050500D01*
X142072500Y-114454500D02*
X142072500Y-112986500D01*
X142212500Y-117448500D02*
X142212500Y-116028500D01*
X142212500Y-114476500D02*
X142212500Y-113056500D01*
X142352500Y-117366500D02*
X142352500Y-115978500D01*
X142352500Y-114526500D02*
X142352500Y-113138500D01*
X142492500Y-117271500D02*
X142492500Y-115896500D01*
X142492500Y-114608500D02*
X142492500Y-113233500D01*
X142632500Y-117160500D02*
X142632500Y-115764500D01*
X142632500Y-114740500D02*
X142632500Y-113344500D01*
X142772500Y-117032500D02*
X142772500Y-115517500D01*
X142772500Y-114987500D02*
X142772500Y-113472500D01*
X142912500Y-116883500D02*
X142912500Y-113621500D01*
X143052500Y-116704500D02*
X143052500Y-113800500D01*
X143192500Y-116485500D02*
X143192500Y-114019500D01*
X143332500Y-116196500D02*
X143332500Y-114308500D01*
X143472500Y-115724500D02*
X143472500Y-114780500D01*
X142817500Y-115252500D02*
G75*
G03X142817500Y-115252500I-800000J0D01*
G01*
X143555000Y-115252500D02*
G75*
G03X143555000Y-115252500I-2537500J0D01*
G01*
X147379000Y-117815000D02*
X147379000Y-112817000D01*
X147519000Y-117807000D02*
X147519000Y-115470000D01*
X147519000Y-115162000D02*
X147519000Y-112825000D01*
X147659000Y-117791000D02*
X147659000Y-115789000D01*
X147659000Y-114843000D02*
X147659000Y-112841000D01*
X147799000Y-117767000D02*
X147799000Y-115936000D01*
X147799000Y-114696000D02*
X147799000Y-112865000D01*
X147939000Y-117734000D02*
X147939000Y-116028000D01*
X147939000Y-114604000D02*
X147939000Y-112898000D01*
X148079000Y-117693000D02*
X148079000Y-116084000D01*
X148079000Y-114548000D02*
X148079000Y-112939000D01*
X148219000Y-117643000D02*
X148219000Y-116111000D01*
X148219000Y-114521000D02*
X148219000Y-112989000D01*
X148359000Y-117582000D02*
X148359000Y-116114000D01*
X148359000Y-114518000D02*
X148359000Y-113050000D01*
X148499000Y-117512000D02*
X148499000Y-116092000D01*
X148499000Y-114540000D02*
X148499000Y-113120000D01*
X148639000Y-117430000D02*
X148639000Y-116042000D01*
X148639000Y-114590000D02*
X148639000Y-113202000D01*
X148779000Y-117335000D02*
X148779000Y-115960000D01*
X148779000Y-114672000D02*
X148779000Y-113297000D01*
X148919000Y-117224000D02*
X148919000Y-115828000D01*
X148919000Y-114804000D02*
X148919000Y-113408000D01*
X149059000Y-117096000D02*
X149059000Y-115581000D01*
X149059000Y-115051000D02*
X149059000Y-113536000D01*
X149199000Y-116947000D02*
X149199000Y-113685000D01*
X149339000Y-116768000D02*
X149339000Y-113864000D01*
X149479000Y-116549000D02*
X149479000Y-114083000D01*
X149619000Y-116260000D02*
X149619000Y-114372000D01*
X149759000Y-115788000D02*
X149759000Y-114844000D01*
X149104000Y-115316000D02*
G75*
G03X149104000Y-115316000I-800000J0D01*
G01*
X149841500Y-115316000D02*
G75*
G03X149841500Y-115316000I-2537500J0D01*
G01*
X132667500Y-81842500D02*
X134667500Y-81842500D01*
X134667500Y-83892500D02*
X132667500Y-83892500D01*
X116157500Y-82477500D02*
X118157500Y-82477500D01*
X118157500Y-84527500D02*
X116157500Y-84527500D01*
X133862500Y-75288500D02*
X133862500Y-80286500D01*
X133722500Y-75296500D02*
X133722500Y-77633500D01*
X133722500Y-77941500D02*
X133722500Y-80278500D01*
X133582500Y-75312500D02*
X133582500Y-77314500D01*
X133582500Y-78260500D02*
X133582500Y-80262500D01*
X133442500Y-75336500D02*
X133442500Y-77167500D01*
X133442500Y-78407500D02*
X133442500Y-80238500D01*
X133302500Y-75369500D02*
X133302500Y-77075500D01*
X133302500Y-78499500D02*
X133302500Y-80205500D01*
X133162500Y-75410500D02*
X133162500Y-77019500D01*
X133162500Y-78555500D02*
X133162500Y-80164500D01*
X133022500Y-75460500D02*
X133022500Y-76992500D01*
X133022500Y-78582500D02*
X133022500Y-80114500D01*
X132882500Y-75521500D02*
X132882500Y-76989500D01*
X132882500Y-78585500D02*
X132882500Y-80053500D01*
X132742500Y-75591500D02*
X132742500Y-77011500D01*
X132742500Y-78563500D02*
X132742500Y-79983500D01*
X132602500Y-75673500D02*
X132602500Y-77061500D01*
X132602500Y-78513500D02*
X132602500Y-79901500D01*
X132462500Y-75768500D02*
X132462500Y-77143500D01*
X132462500Y-78431500D02*
X132462500Y-79806500D01*
X132322500Y-75879500D02*
X132322500Y-77275500D01*
X132322500Y-78299500D02*
X132322500Y-79695500D01*
X132182500Y-76007500D02*
X132182500Y-77522500D01*
X132182500Y-78052500D02*
X132182500Y-79567500D01*
X132042500Y-76156500D02*
X132042500Y-79418500D01*
X131902500Y-76335500D02*
X131902500Y-79239500D01*
X131762500Y-76554500D02*
X131762500Y-79020500D01*
X131622500Y-76843500D02*
X131622500Y-78731500D01*
X131482500Y-77315500D02*
X131482500Y-78259500D01*
X133737500Y-77787500D02*
G75*
G03X133737500Y-77787500I-800000J0D01*
G01*
X136475000Y-77787500D02*
G75*
G03X136475000Y-77787500I-2537500J0D01*
G01*
X116962500Y-80286500D02*
X116962500Y-75288500D01*
X117102500Y-80278500D02*
X117102500Y-77941500D01*
X117102500Y-77633500D02*
X117102500Y-75296500D01*
X117242500Y-80262500D02*
X117242500Y-78260500D01*
X117242500Y-77314500D02*
X117242500Y-75312500D01*
X117382500Y-80238500D02*
X117382500Y-78407500D01*
X117382500Y-77167500D02*
X117382500Y-75336500D01*
X117522500Y-80205500D02*
X117522500Y-78499500D01*
X117522500Y-77075500D02*
X117522500Y-75369500D01*
X117662500Y-80164500D02*
X117662500Y-78555500D01*
X117662500Y-77019500D02*
X117662500Y-75410500D01*
X117802500Y-80114500D02*
X117802500Y-78582500D01*
X117802500Y-76992500D02*
X117802500Y-75460500D01*
X117942500Y-80053500D02*
X117942500Y-78585500D01*
X117942500Y-76989500D02*
X117942500Y-75521500D01*
X118082500Y-79983500D02*
X118082500Y-78563500D01*
X118082500Y-77011500D02*
X118082500Y-75591500D01*
X118222500Y-79901500D02*
X118222500Y-78513500D01*
X118222500Y-77061500D02*
X118222500Y-75673500D01*
X118362500Y-79806500D02*
X118362500Y-78431500D01*
X118362500Y-77143500D02*
X118362500Y-75768500D01*
X118502500Y-79695500D02*
X118502500Y-78299500D01*
X118502500Y-77275500D02*
X118502500Y-75879500D01*
X118642500Y-79567500D02*
X118642500Y-78052500D01*
X118642500Y-77522500D02*
X118642500Y-76007500D01*
X118782500Y-79418500D02*
X118782500Y-76156500D01*
X118922500Y-79239500D02*
X118922500Y-76335500D01*
X119062500Y-79020500D02*
X119062500Y-76554500D01*
X119202500Y-78731500D02*
X119202500Y-76843500D01*
X119342500Y-78259500D02*
X119342500Y-77315500D01*
X118687500Y-77787500D02*
G75*
G03X118687500Y-77787500I-800000J0D01*
G01*
X119425000Y-77787500D02*
G75*
G03X119425000Y-77787500I-2537500J0D01*
G01*
X162437500Y-65763500D02*
X162437500Y-70761500D01*
X162297500Y-65771500D02*
X162297500Y-68108500D01*
X162297500Y-68416500D02*
X162297500Y-70753500D01*
X162157500Y-65787500D02*
X162157500Y-67789500D01*
X162157500Y-68735500D02*
X162157500Y-70737500D01*
X162017500Y-65811500D02*
X162017500Y-67642500D01*
X162017500Y-68882500D02*
X162017500Y-70713500D01*
X161877500Y-65844500D02*
X161877500Y-67550500D01*
X161877500Y-68974500D02*
X161877500Y-70680500D01*
X161737500Y-65885500D02*
X161737500Y-67494500D01*
X161737500Y-69030500D02*
X161737500Y-70639500D01*
X161597500Y-65935500D02*
X161597500Y-67467500D01*
X161597500Y-69057500D02*
X161597500Y-70589500D01*
X161457500Y-65996500D02*
X161457500Y-67464500D01*
X161457500Y-69060500D02*
X161457500Y-70528500D01*
X161317500Y-66066500D02*
X161317500Y-67486500D01*
X161317500Y-69038500D02*
X161317500Y-70458500D01*
X161177500Y-66148500D02*
X161177500Y-67536500D01*
X161177500Y-68988500D02*
X161177500Y-70376500D01*
X161037500Y-66243500D02*
X161037500Y-67618500D01*
X161037500Y-68906500D02*
X161037500Y-70281500D01*
X160897500Y-66354500D02*
X160897500Y-67750500D01*
X160897500Y-68774500D02*
X160897500Y-70170500D01*
X160757500Y-66482500D02*
X160757500Y-67997500D01*
X160757500Y-68527500D02*
X160757500Y-70042500D01*
X160617500Y-66631500D02*
X160617500Y-69893500D01*
X160477500Y-66810500D02*
X160477500Y-69714500D01*
X160337500Y-67029500D02*
X160337500Y-69495500D01*
X160197500Y-67318500D02*
X160197500Y-69206500D01*
X160057500Y-67790500D02*
X160057500Y-68734500D01*
X162312500Y-68262500D02*
G75*
G03X162312500Y-68262500I-800000J0D01*
G01*
X165050000Y-68262500D02*
G75*
G03X165050000Y-68262500I-2537500J0D01*
G01*
X174502500Y-65763500D02*
X174502500Y-70761500D01*
X174362500Y-65771500D02*
X174362500Y-68108500D01*
X174362500Y-68416500D02*
X174362500Y-70753500D01*
X174222500Y-65787500D02*
X174222500Y-67789500D01*
X174222500Y-68735500D02*
X174222500Y-70737500D01*
X174082500Y-65811500D02*
X174082500Y-67642500D01*
X174082500Y-68882500D02*
X174082500Y-70713500D01*
X173942500Y-65844500D02*
X173942500Y-67550500D01*
X173942500Y-68974500D02*
X173942500Y-70680500D01*
X173802500Y-65885500D02*
X173802500Y-67494500D01*
X173802500Y-69030500D02*
X173802500Y-70639500D01*
X173662500Y-65935500D02*
X173662500Y-67467500D01*
X173662500Y-69057500D02*
X173662500Y-70589500D01*
X173522500Y-65996500D02*
X173522500Y-67464500D01*
X173522500Y-69060500D02*
X173522500Y-70528500D01*
X173382500Y-66066500D02*
X173382500Y-67486500D01*
X173382500Y-69038500D02*
X173382500Y-70458500D01*
X173242500Y-66148500D02*
X173242500Y-67536500D01*
X173242500Y-68988500D02*
X173242500Y-70376500D01*
X173102500Y-66243500D02*
X173102500Y-67618500D01*
X173102500Y-68906500D02*
X173102500Y-70281500D01*
X172962500Y-66354500D02*
X172962500Y-67750500D01*
X172962500Y-68774500D02*
X172962500Y-70170500D01*
X172822500Y-66482500D02*
X172822500Y-67997500D01*
X172822500Y-68527500D02*
X172822500Y-70042500D01*
X172682500Y-66631500D02*
X172682500Y-69893500D01*
X172542500Y-66810500D02*
X172542500Y-69714500D01*
X172402500Y-67029500D02*
X172402500Y-69495500D01*
X172262500Y-67318500D02*
X172262500Y-69206500D01*
X172122500Y-67790500D02*
X172122500Y-68734500D01*
X174377500Y-68262500D02*
G75*
G03X174377500Y-68262500I-800000J0D01*
G01*
X177115000Y-68262500D02*
G75*
G03X177115000Y-68262500I-2537500J0D01*
G01*
X109283500Y-89217500D02*
X109283500Y-101917500D01*
X109791500Y-89217500D02*
X102425500Y-89217500D01*
X109791500Y-101917500D02*
X109791500Y-89217500D01*
X102425500Y-89217500D02*
X102425500Y-101917500D01*
X102425500Y-101917500D02*
X109791500Y-101917500D01*
X109283500Y-104457500D02*
X109283500Y-117157500D01*
X109791500Y-104457500D02*
X102425500Y-104457500D01*
X109791500Y-117157500D02*
X109791500Y-104457500D01*
X102425500Y-104457500D02*
X102425500Y-117157500D01*
X102425500Y-117157500D02*
X109791500Y-117157500D01*
X124523500Y-104457500D02*
X124523500Y-117157500D01*
X125031500Y-104457500D02*
X117665500Y-104457500D01*
X125031500Y-117157500D02*
X125031500Y-104457500D01*
X117665500Y-104457500D02*
X117665500Y-117157500D01*
X117665500Y-117157500D02*
X125031500Y-117157500D01*
X124523500Y-89217500D02*
X124523500Y-101917500D01*
X125031500Y-89217500D02*
X117665500Y-89217500D01*
X125031500Y-101917500D02*
X125031500Y-89217500D01*
X117665500Y-89217500D02*
X117665500Y-101917500D01*
X117665500Y-101917500D02*
X125031500Y-101917500D01*
X109283500Y-73977500D02*
X109283500Y-86677500D01*
X109791500Y-73977500D02*
X102425500Y-73977500D01*
X109791500Y-86677500D02*
X109791500Y-73977500D01*
X102425500Y-73977500D02*
X102425500Y-86677500D01*
X102425500Y-86677500D02*
X109791500Y-86677500D01*
X139763500Y-89217500D02*
X139763500Y-101917500D01*
X140271500Y-89217500D02*
X132905500Y-89217500D01*
X140271500Y-101917500D02*
X140271500Y-89217500D01*
X132905500Y-89217500D02*
X132905500Y-101917500D01*
X132905500Y-101917500D02*
X140271500Y-101917500D01*
X148272500Y-57721500D02*
X160972500Y-57721500D01*
X148272500Y-57213500D02*
X148272500Y-64579500D01*
X160972500Y-57213500D02*
X148272500Y-57213500D01*
X148272500Y-64579500D02*
X160972500Y-64579500D01*
X160972500Y-64579500D02*
X160972500Y-57213500D01*
X163512500Y-57721500D02*
X176212500Y-57721500D01*
X163512500Y-57213500D02*
X163512500Y-64579500D01*
X176212500Y-57213500D02*
X163512500Y-57213500D01*
X163512500Y-64579500D02*
X176212500Y-64579500D01*
X176212500Y-64579500D02*
X176212500Y-57213500D01*
X148653500Y-68897500D02*
X148653500Y-81597500D01*
X149161500Y-68897500D02*
X141795500Y-68897500D01*
X149161500Y-81597500D02*
X149161500Y-68897500D01*
X141795500Y-68897500D02*
X141795500Y-81597500D01*
X141795500Y-81597500D02*
X149161500Y-81597500D01*
X133032500Y-57721500D02*
X145732500Y-57721500D01*
X133032500Y-57213500D02*
X133032500Y-64579500D01*
X145732500Y-57213500D02*
X133032500Y-57213500D01*
X133032500Y-64579500D02*
X145732500Y-64579500D01*
X145732500Y-64579500D02*
X145732500Y-57213500D01*
X117792500Y-57721500D02*
X130492500Y-57721500D01*
X117792500Y-57213500D02*
X117792500Y-64579500D01*
X130492500Y-57213500D02*
X117792500Y-57213500D01*
X117792500Y-64579500D02*
X130492500Y-64579500D01*
X130492500Y-64579500D02*
X130492500Y-57213500D01*
X102552500Y-57721500D02*
X115252500Y-57721500D01*
X102552500Y-57213500D02*
X102552500Y-64579500D01*
X115252500Y-57213500D02*
X102552500Y-57213500D01*
X102552500Y-64579500D02*
X115252500Y-64579500D01*
X115252500Y-64579500D02*
X115252500Y-57213500D01*
X189801500Y-127952500D02*
X189801500Y-115252500D01*
X189293500Y-127952500D02*
X196659500Y-127952500D01*
X189293500Y-115252500D02*
X189293500Y-127952500D01*
X196659500Y-127952500D02*
X196659500Y-115252500D01*
X196659500Y-115252500D02*
X189293500Y-115252500D01*
X209613500Y-100647500D02*
X209613500Y-113347500D01*
X210121500Y-100647500D02*
X202755500Y-100647500D01*
X210121500Y-113347500D02*
X210121500Y-100647500D01*
X202755500Y-100647500D02*
X202755500Y-113347500D01*
X202755500Y-113347500D02*
X210121500Y-113347500D01*
X189801500Y-113347500D02*
X189801500Y-100647500D01*
X189293500Y-113347500D02*
X196659500Y-113347500D01*
X189293500Y-100647500D02*
X189293500Y-113347500D01*
X196659500Y-113347500D02*
X196659500Y-100647500D01*
X196659500Y-100647500D02*
X189293500Y-100647500D01*
X209613500Y-56832500D02*
X209613500Y-69532500D01*
X210121500Y-56832500D02*
X202755500Y-56832500D01*
X210121500Y-69532500D02*
X210121500Y-56832500D01*
X202755500Y-56832500D02*
X202755500Y-69532500D01*
X202755500Y-69532500D02*
X210121500Y-69532500D01*
X189801500Y-84137500D02*
X189801500Y-71437500D01*
X189293500Y-84137500D02*
X196659500Y-84137500D01*
X189293500Y-71437500D02*
X189293500Y-84137500D01*
X196659500Y-84137500D02*
X196659500Y-71437500D01*
X196659500Y-71437500D02*
X189293500Y-71437500D01*
X209613500Y-71437500D02*
X209613500Y-84137500D01*
X210121500Y-71437500D02*
X202755500Y-71437500D01*
X210121500Y-84137500D02*
X210121500Y-71437500D01*
X202755500Y-71437500D02*
X202755500Y-84137500D01*
X202755500Y-84137500D02*
X210121500Y-84137500D01*
X189801500Y-69532500D02*
X189801500Y-56832500D01*
X189293500Y-69532500D02*
X196659500Y-69532500D01*
X189293500Y-56832500D02*
X189293500Y-69532500D01*
X196659500Y-69532500D02*
X196659500Y-56832500D01*
X196659500Y-56832500D02*
X189293500Y-56832500D01*
X209613500Y-86042500D02*
X209613500Y-98742500D01*
X210121500Y-86042500D02*
X202755500Y-86042500D01*
X210121500Y-98742500D02*
X210121500Y-86042500D01*
X202755500Y-86042500D02*
X202755500Y-98742500D01*
X202755500Y-98742500D02*
X210121500Y-98742500D01*
X189801500Y-98742500D02*
X189801500Y-86042500D01*
X189293500Y-98742500D02*
X196659500Y-98742500D01*
X189293500Y-86042500D02*
X189293500Y-98742500D01*
X196659500Y-98742500D02*
X196659500Y-86042500D01*
X196659500Y-86042500D02*
X189293500Y-86042500D01*
X209613500Y-115252500D02*
X209613500Y-127952500D01*
X210121500Y-115252500D02*
X202755500Y-115252500D01*
X210121500Y-127952500D02*
X210121500Y-115252500D01*
X202755500Y-115252500D02*
X202755500Y-127952500D01*
X202755500Y-127952500D02*
X210121500Y-127952500D01*
X150177500Y-126428500D02*
X137477500Y-126428500D01*
X150177500Y-126936500D02*
X150177500Y-119570500D01*
X137477500Y-126936500D02*
X150177500Y-126936500D01*
X150177500Y-119570500D02*
X137477500Y-119570500D01*
X137477500Y-119570500D02*
X137477500Y-126936500D01*
X126182500Y-123547500D02*
X127182500Y-123547500D01*
X127182500Y-122197500D02*
X126182500Y-122197500D01*
X127912500Y-77922500D02*
X127912500Y-78922500D01*
X129262500Y-78922500D02*
X129262500Y-77922500D01*
X122237500Y-86042500D02*
X122237500Y-87058500D01*
X122237500Y-80962500D02*
X122237500Y-83502500D01*
X122237500Y-77406500D02*
X122237500Y-78422500D01*
X126174500Y-85788500D02*
X124904500Y-85788500D01*
X125425200Y-85001100D02*
X125679200Y-85039200D01*
X125679200Y-85039200D02*
X125958600Y-85217000D01*
X125958600Y-85217000D02*
X126174500Y-85534500D01*
X126174500Y-85534500D02*
X126187200Y-85979000D01*
X126187200Y-85979000D02*
X125984000Y-86334600D01*
X125984000Y-86334600D02*
X125691900Y-86512400D01*
X125691900Y-86512400D02*
X125374400Y-86563200D01*
X125374400Y-86563200D02*
X124968000Y-86461600D01*
X124968000Y-86461600D02*
X124714000Y-86118700D01*
X124714000Y-86118700D02*
X124625100Y-85940900D01*
X125412500Y-87058500D02*
X126682500Y-87058500D01*
X126682500Y-87058500D02*
X126682500Y-77406500D01*
X126682500Y-77406500D02*
X121602500Y-77406500D01*
X121602500Y-87058500D02*
X124142500Y-87058500D01*
X124142500Y-87058500D02*
X125412500Y-87058500D01*
X182562500Y-58102500D02*
X182562500Y-57086500D01*
X182562500Y-63182500D02*
X182562500Y-60642500D01*
X182562500Y-66738500D02*
X182562500Y-65722500D01*
X178625500Y-58356500D02*
X179895500Y-58356500D01*
X179374800Y-59143900D02*
X179120800Y-59105800D01*
X179120800Y-59105800D02*
X178841400Y-58928000D01*
X178841400Y-58928000D02*
X178625500Y-58610500D01*
X178625500Y-58610500D02*
X178612800Y-58166000D01*
X178612800Y-58166000D02*
X178816000Y-57810400D01*
X178816000Y-57810400D02*
X179108100Y-57632600D01*
X179108100Y-57632600D02*
X179425600Y-57581800D01*
X179425600Y-57581800D02*
X179832000Y-57683400D01*
X179832000Y-57683400D02*
X180086000Y-58026300D01*
X180086000Y-58026300D02*
X180174900Y-58204100D01*
X179387500Y-57086500D02*
X178117500Y-57086500D01*
X178117500Y-57086500D02*
X178117500Y-66738500D01*
X178117500Y-66738500D02*
X183197500Y-66738500D01*
X183197500Y-57086500D02*
X180657500Y-57086500D01*
X180657500Y-57086500D02*
X179387500Y-57086500D01*
D10*
X142617500Y-115252500D02*
G75*
G03X142617500Y-115252500I-600000J0D01*
G01*
X148904000Y-115316000D02*
G75*
G03X148904000Y-115316000I-600000J0D01*
G01*
X133537500Y-77787500D02*
G75*
G03X133537500Y-77787500I-600000J0D01*
G01*
X118487500Y-77787500D02*
G75*
G03X118487500Y-77787500I-600000J0D01*
G01*
X162112500Y-68262500D02*
G75*
G03X162112500Y-68262500I-600000J0D01*
G01*
X174177500Y-68262500D02*
G75*
G03X174177500Y-68262500I-600000J0D01*
G01*
X106677500Y-99377500D02*
G75*
G03X106677500Y-99377500I-950000J0D01*
G01*
X106677500Y-95567500D02*
G75*
G03X106677500Y-95567500I-950000J0D01*
G01*
X106677500Y-114617500D02*
G75*
G03X106677500Y-114617500I-950000J0D01*
G01*
X106677500Y-110807500D02*
G75*
G03X106677500Y-110807500I-950000J0D01*
G01*
X121917500Y-114617500D02*
G75*
G03X121917500Y-114617500I-950000J0D01*
G01*
X121917500Y-110807500D02*
G75*
G03X121917500Y-110807500I-950000J0D01*
G01*
X121917500Y-99377500D02*
G75*
G03X121917500Y-99377500I-950000J0D01*
G01*
X121917500Y-95567500D02*
G75*
G03X121917500Y-95567500I-950000J0D01*
G01*
X106677500Y-84137500D02*
G75*
G03X106677500Y-84137500I-950000J0D01*
G01*
X106677500Y-80327500D02*
G75*
G03X106677500Y-80327500I-950000J0D01*
G01*
X137157500Y-99377500D02*
G75*
G03X137157500Y-99377500I-950000J0D01*
G01*
X137157500Y-95567500D02*
G75*
G03X137157500Y-95567500I-950000J0D01*
G01*
X159382500Y-61277500D02*
G75*
G03X159382500Y-61277500I-950000J0D01*
G01*
X155572500Y-61277500D02*
G75*
G03X155572500Y-61277500I-950000J0D01*
G01*
X174622500Y-61277500D02*
G75*
G03X174622500Y-61277500I-950000J0D01*
G01*
X170812500Y-61277500D02*
G75*
G03X170812500Y-61277500I-950000J0D01*
G01*
X146047500Y-79057500D02*
G75*
G03X146047500Y-79057500I-950000J0D01*
G01*
X146047500Y-75247500D02*
G75*
G03X146047500Y-75247500I-950000J0D01*
G01*
X144142500Y-61277500D02*
G75*
G03X144142500Y-61277500I-950000J0D01*
G01*
X140332500Y-61277500D02*
G75*
G03X140332500Y-61277500I-950000J0D01*
G01*
X128902500Y-61277500D02*
G75*
G03X128902500Y-61277500I-950000J0D01*
G01*
X125092500Y-61277500D02*
G75*
G03X125092500Y-61277500I-950000J0D01*
G01*
X113662500Y-61277500D02*
G75*
G03X113662500Y-61277500I-950000J0D01*
G01*
X109852500Y-61277500D02*
G75*
G03X109852500Y-61277500I-950000J0D01*
G01*
X194307500Y-117792500D02*
G75*
G03X194307500Y-117792500I-950000J0D01*
G01*
X194307500Y-121602500D02*
G75*
G03X194307500Y-121602500I-950000J0D01*
G01*
X207007500Y-110807500D02*
G75*
G03X207007500Y-110807500I-950000J0D01*
G01*
X207007500Y-106997500D02*
G75*
G03X207007500Y-106997500I-950000J0D01*
G01*
X194307500Y-103187500D02*
G75*
G03X194307500Y-103187500I-950000J0D01*
G01*
X194307500Y-106997500D02*
G75*
G03X194307500Y-106997500I-950000J0D01*
G01*
X207007500Y-66992500D02*
G75*
G03X207007500Y-66992500I-950000J0D01*
G01*
X207007500Y-63182500D02*
G75*
G03X207007500Y-63182500I-950000J0D01*
G01*
X194307500Y-73977500D02*
G75*
G03X194307500Y-73977500I-950000J0D01*
G01*
X194307500Y-77787500D02*
G75*
G03X194307500Y-77787500I-950000J0D01*
G01*
X207007500Y-81597500D02*
G75*
G03X207007500Y-81597500I-950000J0D01*
G01*
X207007500Y-77787500D02*
G75*
G03X207007500Y-77787500I-950000J0D01*
G01*
X194307500Y-59372500D02*
G75*
G03X194307500Y-59372500I-950000J0D01*
G01*
X194307500Y-63182500D02*
G75*
G03X194307500Y-63182500I-950000J0D01*
G01*
X207007500Y-96202500D02*
G75*
G03X207007500Y-96202500I-950000J0D01*
G01*
X207007500Y-92392500D02*
G75*
G03X207007500Y-92392500I-950000J0D01*
G01*
X194307500Y-88582500D02*
G75*
G03X194307500Y-88582500I-950000J0D01*
G01*
X194307500Y-92392500D02*
G75*
G03X194307500Y-92392500I-950000J0D01*
G01*
X207007500Y-125412500D02*
G75*
G03X207007500Y-125412500I-950000J0D01*
G01*
X207007500Y-121602500D02*
G75*
G03X207007500Y-121602500I-950000J0D01*
G01*
X140967500Y-122872500D02*
G75*
G03X140967500Y-122872500I-950000J0D01*
G01*
X144777500Y-122872500D02*
G75*
G03X144777500Y-122872500I-950000J0D01*
G01*
X126124500Y-82232500D02*
G75*
G03X126124500Y-82232500I-712000J0D01*
G01*
X123584500Y-79692500D02*
G75*
G03X123584500Y-79692500I-712000J0D01*
G01*
X123584500Y-84772500D02*
G75*
G03X123584500Y-84772500I-712000J0D01*
G01*
X180099500Y-61912500D02*
G75*
G03X180099500Y-61912500I-712000J0D01*
G01*
X182639500Y-64452500D02*
G75*
G03X182639500Y-64452500I-712000J0D01*
G01*
X182639500Y-59372500D02*
G75*
G03X182639500Y-59372500I-712000J0D01*
G01*
D11*
X141184166Y-119409643D02*
X141231785Y-119457262D01*
X141374642Y-119504881D01*
X141469880Y-119504881D01*
X141612738Y-119457262D01*
X141707976Y-119362024D01*
X141755595Y-119266786D01*
X141803214Y-119076310D01*
X141803214Y-118933452D01*
X141755595Y-118742976D01*
X141707976Y-118647738D01*
X141612738Y-118552500D01*
X141469880Y-118504881D01*
X141374642Y-118504881D01*
X141231785Y-118552500D01*
X141184166Y-118600119D01*
X140231785Y-119504881D02*
X140803214Y-119504881D01*
X140517500Y-119504881D02*
X140517500Y-118504881D01*
X140612738Y-118647738D01*
X140707976Y-118742976D01*
X140803214Y-118790595D01*
X147470666Y-119473143D02*
X147518285Y-119520762D01*
X147661142Y-119568381D01*
X147756380Y-119568381D01*
X147899238Y-119520762D01*
X147994476Y-119425524D01*
X148042095Y-119330286D01*
X148089714Y-119139810D01*
X148089714Y-118996952D01*
X148042095Y-118806476D01*
X147994476Y-118711238D01*
X147899238Y-118616000D01*
X147756380Y-118568381D01*
X147661142Y-118568381D01*
X147518285Y-118616000D01*
X147470666Y-118663619D01*
X147137333Y-118568381D02*
X146518285Y-118568381D01*
X146851619Y-118949333D01*
X146708761Y-118949333D01*
X146613523Y-118996952D01*
X146565904Y-119044571D01*
X146518285Y-119139810D01*
X146518285Y-119377905D01*
X146565904Y-119473143D01*
X146613523Y-119520762D01*
X146708761Y-119568381D01*
X146994476Y-119568381D01*
X147089714Y-119520762D01*
X147137333Y-119473143D01*
X133834166Y-80924643D02*
X133881785Y-80972262D01*
X134024642Y-81019881D01*
X134119880Y-81019881D01*
X134262738Y-80972262D01*
X134357976Y-80877024D01*
X134405595Y-80781786D01*
X134453214Y-80591310D01*
X134453214Y-80448452D01*
X134405595Y-80257976D01*
X134357976Y-80162738D01*
X134262738Y-80067500D01*
X134119880Y-80019881D01*
X134024642Y-80019881D01*
X133881785Y-80067500D01*
X133834166Y-80115119D01*
X132977023Y-80353214D02*
X132977023Y-81019881D01*
X133215119Y-79972262D02*
X133453214Y-80686548D01*
X132834166Y-80686548D01*
X117324166Y-81559643D02*
X117371785Y-81607262D01*
X117514642Y-81654881D01*
X117609880Y-81654881D01*
X117752738Y-81607262D01*
X117847976Y-81512024D01*
X117895595Y-81416786D01*
X117943214Y-81226310D01*
X117943214Y-81083452D01*
X117895595Y-80892976D01*
X117847976Y-80797738D01*
X117752738Y-80702500D01*
X117609880Y-80654881D01*
X117514642Y-80654881D01*
X117371785Y-80702500D01*
X117324166Y-80750119D01*
X116419404Y-80654881D02*
X116895595Y-80654881D01*
X116943214Y-81131071D01*
X116895595Y-81083452D01*
X116800357Y-81035833D01*
X116562261Y-81035833D01*
X116467023Y-81083452D01*
X116419404Y-81131071D01*
X116371785Y-81226310D01*
X116371785Y-81464405D01*
X116419404Y-81559643D01*
X116467023Y-81607262D01*
X116562261Y-81654881D01*
X116800357Y-81654881D01*
X116895595Y-81607262D01*
X116943214Y-81559643D01*
X134104166Y-74344643D02*
X134151785Y-74392262D01*
X134294642Y-74439881D01*
X134389880Y-74439881D01*
X134532738Y-74392262D01*
X134627976Y-74297024D01*
X134675595Y-74201786D01*
X134723214Y-74011310D01*
X134723214Y-73868452D01*
X134675595Y-73677976D01*
X134627976Y-73582738D01*
X134532738Y-73487500D01*
X134389880Y-73439881D01*
X134294642Y-73439881D01*
X134151785Y-73487500D01*
X134104166Y-73535119D01*
X133247023Y-73439881D02*
X133437500Y-73439881D01*
X133532738Y-73487500D01*
X133580357Y-73535119D01*
X133675595Y-73677976D01*
X133723214Y-73868452D01*
X133723214Y-74249405D01*
X133675595Y-74344643D01*
X133627976Y-74392262D01*
X133532738Y-74439881D01*
X133342261Y-74439881D01*
X133247023Y-74392262D01*
X133199404Y-74344643D01*
X133151785Y-74249405D01*
X133151785Y-74011310D01*
X133199404Y-73916071D01*
X133247023Y-73868452D01*
X133342261Y-73820833D01*
X133532738Y-73820833D01*
X133627976Y-73868452D01*
X133675595Y-73916071D01*
X133723214Y-74011310D01*
X117054166Y-81944643D02*
X117101785Y-81992262D01*
X117244642Y-82039881D01*
X117339880Y-82039881D01*
X117482738Y-81992262D01*
X117577976Y-81897024D01*
X117625595Y-81801786D01*
X117673214Y-81611310D01*
X117673214Y-81468452D01*
X117625595Y-81277976D01*
X117577976Y-81182738D01*
X117482738Y-81087500D01*
X117339880Y-81039881D01*
X117244642Y-81039881D01*
X117101785Y-81087500D01*
X117054166Y-81135119D01*
X116720833Y-81039881D02*
X116054166Y-81039881D01*
X116482738Y-82039881D01*
X163155357Y-64819643D02*
X163202976Y-64867262D01*
X163345833Y-64914881D01*
X163441071Y-64914881D01*
X163583929Y-64867262D01*
X163679167Y-64772024D01*
X163726786Y-64676786D01*
X163774405Y-64486310D01*
X163774405Y-64343452D01*
X163726786Y-64152976D01*
X163679167Y-64057738D01*
X163583929Y-63962500D01*
X163441071Y-63914881D01*
X163345833Y-63914881D01*
X163202976Y-63962500D01*
X163155357Y-64010119D01*
X162202976Y-64914881D02*
X162774405Y-64914881D01*
X162488691Y-64914881D02*
X162488691Y-63914881D01*
X162583929Y-64057738D01*
X162679167Y-64152976D01*
X162774405Y-64200595D01*
X161583929Y-63914881D02*
X161488690Y-63914881D01*
X161393452Y-63962500D01*
X161345833Y-64010119D01*
X161298214Y-64105357D01*
X161250595Y-64295833D01*
X161250595Y-64533929D01*
X161298214Y-64724405D01*
X161345833Y-64819643D01*
X161393452Y-64867262D01*
X161488690Y-64914881D01*
X161583929Y-64914881D01*
X161679167Y-64867262D01*
X161726786Y-64819643D01*
X161774405Y-64724405D01*
X161822024Y-64533929D01*
X161822024Y-64295833D01*
X161774405Y-64105357D01*
X161726786Y-64010119D01*
X161679167Y-63962500D01*
X161583929Y-63914881D01*
X175220357Y-64819643D02*
X175267976Y-64867262D01*
X175410833Y-64914881D01*
X175506071Y-64914881D01*
X175648929Y-64867262D01*
X175744167Y-64772024D01*
X175791786Y-64676786D01*
X175839405Y-64486310D01*
X175839405Y-64343452D01*
X175791786Y-64152976D01*
X175744167Y-64057738D01*
X175648929Y-63962500D01*
X175506071Y-63914881D01*
X175410833Y-63914881D01*
X175267976Y-63962500D01*
X175220357Y-64010119D01*
X174267976Y-64914881D02*
X174839405Y-64914881D01*
X174553691Y-64914881D02*
X174553691Y-63914881D01*
X174648929Y-64057738D01*
X174744167Y-64152976D01*
X174839405Y-64200595D01*
X173315595Y-64914881D02*
X173887024Y-64914881D01*
X173601310Y-64914881D02*
X173601310Y-63914881D01*
X173696548Y-64057738D01*
X173791786Y-64152976D01*
X173887024Y-64200595D01*
X108946071Y-94460358D02*
X107446071Y-94460358D01*
X108946071Y-95317501D02*
X108088929Y-94674644D01*
X107446071Y-95317501D02*
X108303214Y-94460358D01*
X108946071Y-96746072D02*
X108946071Y-95888929D01*
X108946071Y-96317501D02*
X107446071Y-96317501D01*
X107660357Y-96174644D01*
X107803214Y-96031786D01*
X107874643Y-95888929D01*
X108946071Y-109700358D02*
X107446071Y-109700358D01*
X108946071Y-110557501D02*
X108088929Y-109914644D01*
X107446071Y-110557501D02*
X108303214Y-109700358D01*
X107588929Y-111128929D02*
X107517500Y-111200358D01*
X107446071Y-111343215D01*
X107446071Y-111700358D01*
X107517500Y-111843215D01*
X107588929Y-111914644D01*
X107731786Y-111986072D01*
X107874643Y-111986072D01*
X108088929Y-111914644D01*
X108946071Y-111057501D01*
X108946071Y-111986072D01*
X124186071Y-109700358D02*
X122686071Y-109700358D01*
X124186071Y-110557501D02*
X123328929Y-109914644D01*
X122686071Y-110557501D02*
X123543214Y-109700358D01*
X122686071Y-111057501D02*
X122686071Y-111986072D01*
X123257500Y-111486072D01*
X123257500Y-111700358D01*
X123328929Y-111843215D01*
X123400357Y-111914644D01*
X123543214Y-111986072D01*
X123900357Y-111986072D01*
X124043214Y-111914644D01*
X124114643Y-111843215D01*
X124186071Y-111700358D01*
X124186071Y-111271786D01*
X124114643Y-111128929D01*
X124043214Y-111057501D01*
X124186071Y-94460358D02*
X122686071Y-94460358D01*
X124186071Y-95317501D02*
X123328929Y-94674644D01*
X122686071Y-95317501D02*
X123543214Y-94460358D01*
X123186071Y-96603215D02*
X124186071Y-96603215D01*
X122614643Y-96246072D02*
X123686071Y-95888929D01*
X123686071Y-96817501D01*
X108946071Y-79220358D02*
X107446071Y-79220358D01*
X108946071Y-80077501D02*
X108088929Y-79434644D01*
X107446071Y-80077501D02*
X108303214Y-79220358D01*
X107446071Y-81434644D02*
X107446071Y-80720358D01*
X108160357Y-80648929D01*
X108088929Y-80720358D01*
X108017500Y-80863215D01*
X108017500Y-81220358D01*
X108088929Y-81363215D01*
X108160357Y-81434644D01*
X108303214Y-81506072D01*
X108660357Y-81506072D01*
X108803214Y-81434644D01*
X108874643Y-81363215D01*
X108946071Y-81220358D01*
X108946071Y-80863215D01*
X108874643Y-80720358D01*
X108803214Y-80648929D01*
X139426071Y-94460358D02*
X137926071Y-94460358D01*
X139426071Y-95317501D02*
X138568929Y-94674644D01*
X137926071Y-95317501D02*
X138783214Y-94460358D01*
X137926071Y-96603215D02*
X137926071Y-96317501D01*
X137997500Y-96174644D01*
X138068929Y-96103215D01*
X138283214Y-95960358D01*
X138568929Y-95888929D01*
X139140357Y-95888929D01*
X139283214Y-95960358D01*
X139354643Y-96031786D01*
X139426071Y-96174644D01*
X139426071Y-96460358D01*
X139354643Y-96603215D01*
X139283214Y-96674644D01*
X139140357Y-96746072D01*
X138783214Y-96746072D01*
X138640357Y-96674644D01*
X138568929Y-96603215D01*
X138497500Y-96460358D01*
X138497500Y-96174644D01*
X138568929Y-96031786D01*
X138640357Y-95960358D01*
X138783214Y-95888929D01*
X155729642Y-59416071D02*
X155729642Y-57916071D01*
X154872499Y-59416071D02*
X155515356Y-58558929D01*
X154872499Y-57916071D02*
X155729642Y-58773214D01*
X154372499Y-57916071D02*
X153372499Y-57916071D01*
X154015356Y-59416071D01*
X170969642Y-59416071D02*
X170969642Y-57916071D01*
X170112499Y-59416071D02*
X170755356Y-58558929D01*
X170112499Y-57916071D02*
X170969642Y-58773214D01*
X169255356Y-58558929D02*
X169398214Y-58487500D01*
X169469642Y-58416071D01*
X169541071Y-58273214D01*
X169541071Y-58201786D01*
X169469642Y-58058929D01*
X169398214Y-57987500D01*
X169255356Y-57916071D01*
X168969642Y-57916071D01*
X168826785Y-57987500D01*
X168755356Y-58058929D01*
X168683928Y-58201786D01*
X168683928Y-58273214D01*
X168755356Y-58416071D01*
X168826785Y-58487500D01*
X168969642Y-58558929D01*
X169255356Y-58558929D01*
X169398214Y-58630357D01*
X169469642Y-58701786D01*
X169541071Y-58844643D01*
X169541071Y-59130357D01*
X169469642Y-59273214D01*
X169398214Y-59344643D01*
X169255356Y-59416071D01*
X168969642Y-59416071D01*
X168826785Y-59344643D01*
X168755356Y-59273214D01*
X168683928Y-59130357D01*
X168683928Y-58844643D01*
X168755356Y-58701786D01*
X168826785Y-58630357D01*
X168969642Y-58558929D01*
X148316071Y-74140358D02*
X146816071Y-74140358D01*
X148316071Y-74997501D02*
X147458929Y-74354644D01*
X146816071Y-74997501D02*
X147673214Y-74140358D01*
X148316071Y-75711786D02*
X148316071Y-75997501D01*
X148244643Y-76140358D01*
X148173214Y-76211786D01*
X147958929Y-76354644D01*
X147673214Y-76426072D01*
X147101786Y-76426072D01*
X146958929Y-76354644D01*
X146887500Y-76283215D01*
X146816071Y-76140358D01*
X146816071Y-75854644D01*
X146887500Y-75711786D01*
X146958929Y-75640358D01*
X147101786Y-75568929D01*
X147458929Y-75568929D01*
X147601786Y-75640358D01*
X147673214Y-75711786D01*
X147744643Y-75854644D01*
X147744643Y-76140358D01*
X147673214Y-76283215D01*
X147601786Y-76354644D01*
X147458929Y-76426072D01*
X141203928Y-59416071D02*
X141203928Y-57916071D01*
X140346785Y-59416071D02*
X140989642Y-58558929D01*
X140346785Y-57916071D02*
X141203928Y-58773214D01*
X138918214Y-59416071D02*
X139775357Y-59416071D01*
X139346785Y-59416071D02*
X139346785Y-57916071D01*
X139489642Y-58130357D01*
X139632500Y-58273214D01*
X139775357Y-58344643D01*
X137989643Y-57916071D02*
X137846786Y-57916071D01*
X137703929Y-57987500D01*
X137632500Y-58058929D01*
X137561071Y-58201786D01*
X137489643Y-58487500D01*
X137489643Y-58844643D01*
X137561071Y-59130357D01*
X137632500Y-59273214D01*
X137703929Y-59344643D01*
X137846786Y-59416071D01*
X137989643Y-59416071D01*
X138132500Y-59344643D01*
X138203929Y-59273214D01*
X138275357Y-59130357D01*
X138346786Y-58844643D01*
X138346786Y-58487500D01*
X138275357Y-58201786D01*
X138203929Y-58058929D01*
X138132500Y-57987500D01*
X137989643Y-57916071D01*
X125963928Y-59416071D02*
X125963928Y-57916071D01*
X125106785Y-59416071D02*
X125749642Y-58558929D01*
X125106785Y-57916071D02*
X125963928Y-58773214D01*
X123678214Y-59416071D02*
X124535357Y-59416071D01*
X124106785Y-59416071D02*
X124106785Y-57916071D01*
X124249642Y-58130357D01*
X124392500Y-58273214D01*
X124535357Y-58344643D01*
X122249643Y-59416071D02*
X123106786Y-59416071D01*
X122678214Y-59416071D02*
X122678214Y-57916071D01*
X122821071Y-58130357D01*
X122963929Y-58273214D01*
X123106786Y-58344643D01*
X110723928Y-59416071D02*
X110723928Y-57916071D01*
X109866785Y-59416071D02*
X110509642Y-58558929D01*
X109866785Y-57916071D02*
X110723928Y-58773214D01*
X108438214Y-59416071D02*
X109295357Y-59416071D01*
X108866785Y-59416071D02*
X108866785Y-57916071D01*
X109009642Y-58130357D01*
X109152500Y-58273214D01*
X109295357Y-58344643D01*
X107866786Y-58058929D02*
X107795357Y-57987500D01*
X107652500Y-57916071D01*
X107295357Y-57916071D01*
X107152500Y-57987500D01*
X107081071Y-58058929D01*
X107009643Y-58201786D01*
X107009643Y-58344643D01*
X107081071Y-58558929D01*
X107938214Y-59416071D01*
X107009643Y-59416071D01*
X191496071Y-119781072D02*
X189996071Y-119781072D01*
X191496071Y-120638215D02*
X190638929Y-119995358D01*
X189996071Y-120638215D02*
X190853214Y-119781072D01*
X191496071Y-122066786D02*
X191496071Y-121209643D01*
X191496071Y-121638215D02*
X189996071Y-121638215D01*
X190210357Y-121495358D01*
X190353214Y-121352500D01*
X190424643Y-121209643D01*
X189996071Y-122566786D02*
X189996071Y-123495357D01*
X190567500Y-122995357D01*
X190567500Y-123209643D01*
X190638929Y-123352500D01*
X190710357Y-123423929D01*
X190853214Y-123495357D01*
X191210357Y-123495357D01*
X191353214Y-123423929D01*
X191424643Y-123352500D01*
X191496071Y-123209643D01*
X191496071Y-122781071D01*
X191424643Y-122638214D01*
X191353214Y-122566786D01*
X209276071Y-105176072D02*
X207776071Y-105176072D01*
X209276071Y-106033215D02*
X208418929Y-105390358D01*
X207776071Y-106033215D02*
X208633214Y-105176072D01*
X209276071Y-107461786D02*
X209276071Y-106604643D01*
X209276071Y-107033215D02*
X207776071Y-107033215D01*
X207990357Y-106890358D01*
X208133214Y-106747500D01*
X208204643Y-106604643D01*
X208276071Y-108747500D02*
X209276071Y-108747500D01*
X207704643Y-108390357D02*
X208776071Y-108033214D01*
X208776071Y-108961786D01*
X191496071Y-105176072D02*
X189996071Y-105176072D01*
X191496071Y-106033215D02*
X190638929Y-105390358D01*
X189996071Y-106033215D02*
X190853214Y-105176072D01*
X191496071Y-107461786D02*
X191496071Y-106604643D01*
X191496071Y-107033215D02*
X189996071Y-107033215D01*
X190210357Y-106890358D01*
X190353214Y-106747500D01*
X190424643Y-106604643D01*
X189996071Y-108818929D02*
X189996071Y-108104643D01*
X190710357Y-108033214D01*
X190638929Y-108104643D01*
X190567500Y-108247500D01*
X190567500Y-108604643D01*
X190638929Y-108747500D01*
X190710357Y-108818929D01*
X190853214Y-108890357D01*
X191210357Y-108890357D01*
X191353214Y-108818929D01*
X191424643Y-108747500D01*
X191496071Y-108604643D01*
X191496071Y-108247500D01*
X191424643Y-108104643D01*
X191353214Y-108033214D01*
X209276071Y-61361072D02*
X207776071Y-61361072D01*
X209276071Y-62218215D02*
X208418929Y-61575358D01*
X207776071Y-62218215D02*
X208633214Y-61361072D01*
X209276071Y-63646786D02*
X209276071Y-62789643D01*
X209276071Y-63218215D02*
X207776071Y-63218215D01*
X207990357Y-63075358D01*
X208133214Y-62932500D01*
X208204643Y-62789643D01*
X207776071Y-64932500D02*
X207776071Y-64646786D01*
X207847500Y-64503929D01*
X207918929Y-64432500D01*
X208133214Y-64289643D01*
X208418929Y-64218214D01*
X208990357Y-64218214D01*
X209133214Y-64289643D01*
X209204643Y-64361071D01*
X209276071Y-64503929D01*
X209276071Y-64789643D01*
X209204643Y-64932500D01*
X209133214Y-65003929D01*
X208990357Y-65075357D01*
X208633214Y-65075357D01*
X208490357Y-65003929D01*
X208418929Y-64932500D01*
X208347500Y-64789643D01*
X208347500Y-64503929D01*
X208418929Y-64361071D01*
X208490357Y-64289643D01*
X208633214Y-64218214D01*
X191496071Y-75966072D02*
X189996071Y-75966072D01*
X191496071Y-76823215D02*
X190638929Y-76180358D01*
X189996071Y-76823215D02*
X190853214Y-75966072D01*
X191496071Y-78251786D02*
X191496071Y-77394643D01*
X191496071Y-77823215D02*
X189996071Y-77823215D01*
X190210357Y-77680358D01*
X190353214Y-77537500D01*
X190424643Y-77394643D01*
X189996071Y-78751786D02*
X189996071Y-79751786D01*
X191496071Y-79108929D01*
X209276071Y-75966072D02*
X207776071Y-75966072D01*
X209276071Y-76823215D02*
X208418929Y-76180358D01*
X207776071Y-76823215D02*
X208633214Y-75966072D01*
X209276071Y-78251786D02*
X209276071Y-77394643D01*
X209276071Y-77823215D02*
X207776071Y-77823215D01*
X207990357Y-77680358D01*
X208133214Y-77537500D01*
X208204643Y-77394643D01*
X208418929Y-79108929D02*
X208347500Y-78966071D01*
X208276071Y-78894643D01*
X208133214Y-78823214D01*
X208061786Y-78823214D01*
X207918929Y-78894643D01*
X207847500Y-78966071D01*
X207776071Y-79108929D01*
X207776071Y-79394643D01*
X207847500Y-79537500D01*
X207918929Y-79608929D01*
X208061786Y-79680357D01*
X208133214Y-79680357D01*
X208276071Y-79608929D01*
X208347500Y-79537500D01*
X208418929Y-79394643D01*
X208418929Y-79108929D01*
X208490357Y-78966071D01*
X208561786Y-78894643D01*
X208704643Y-78823214D01*
X208990357Y-78823214D01*
X209133214Y-78894643D01*
X209204643Y-78966071D01*
X209276071Y-79108929D01*
X209276071Y-79394643D01*
X209204643Y-79537500D01*
X209133214Y-79608929D01*
X208990357Y-79680357D01*
X208704643Y-79680357D01*
X208561786Y-79608929D01*
X208490357Y-79537500D01*
X208418929Y-79394643D01*
X191496071Y-61361072D02*
X189996071Y-61361072D01*
X191496071Y-62218215D02*
X190638929Y-61575358D01*
X189996071Y-62218215D02*
X190853214Y-61361072D01*
X191496071Y-63646786D02*
X191496071Y-62789643D01*
X191496071Y-63218215D02*
X189996071Y-63218215D01*
X190210357Y-63075358D01*
X190353214Y-62932500D01*
X190424643Y-62789643D01*
X191496071Y-64361071D02*
X191496071Y-64646786D01*
X191424643Y-64789643D01*
X191353214Y-64861071D01*
X191138929Y-65003929D01*
X190853214Y-65075357D01*
X190281786Y-65075357D01*
X190138929Y-65003929D01*
X190067500Y-64932500D01*
X189996071Y-64789643D01*
X189996071Y-64503929D01*
X190067500Y-64361071D01*
X190138929Y-64289643D01*
X190281786Y-64218214D01*
X190638929Y-64218214D01*
X190781786Y-64289643D01*
X190853214Y-64361071D01*
X190924643Y-64503929D01*
X190924643Y-64789643D01*
X190853214Y-64932500D01*
X190781786Y-65003929D01*
X190638929Y-65075357D01*
X209276071Y-90571072D02*
X207776071Y-90571072D01*
X209276071Y-91428215D02*
X208418929Y-90785358D01*
X207776071Y-91428215D02*
X208633214Y-90571072D01*
X207918929Y-91999643D02*
X207847500Y-92071072D01*
X207776071Y-92213929D01*
X207776071Y-92571072D01*
X207847500Y-92713929D01*
X207918929Y-92785358D01*
X208061786Y-92856786D01*
X208204643Y-92856786D01*
X208418929Y-92785358D01*
X209276071Y-91928215D01*
X209276071Y-92856786D01*
X207776071Y-93785357D02*
X207776071Y-93928214D01*
X207847500Y-94071071D01*
X207918929Y-94142500D01*
X208061786Y-94213929D01*
X208347500Y-94285357D01*
X208704643Y-94285357D01*
X208990357Y-94213929D01*
X209133214Y-94142500D01*
X209204643Y-94071071D01*
X209276071Y-93928214D01*
X209276071Y-93785357D01*
X209204643Y-93642500D01*
X209133214Y-93571071D01*
X208990357Y-93499643D01*
X208704643Y-93428214D01*
X208347500Y-93428214D01*
X208061786Y-93499643D01*
X207918929Y-93571071D01*
X207847500Y-93642500D01*
X207776071Y-93785357D01*
X191496071Y-90571072D02*
X189996071Y-90571072D01*
X191496071Y-91428215D02*
X190638929Y-90785358D01*
X189996071Y-91428215D02*
X190853214Y-90571072D01*
X190138929Y-91999643D02*
X190067500Y-92071072D01*
X189996071Y-92213929D01*
X189996071Y-92571072D01*
X190067500Y-92713929D01*
X190138929Y-92785358D01*
X190281786Y-92856786D01*
X190424643Y-92856786D01*
X190638929Y-92785358D01*
X191496071Y-91928215D01*
X191496071Y-92856786D01*
X191496071Y-94285357D02*
X191496071Y-93428214D01*
X191496071Y-93856786D02*
X189996071Y-93856786D01*
X190210357Y-93713929D01*
X190353214Y-93571071D01*
X190424643Y-93428214D01*
X209276071Y-119781072D02*
X207776071Y-119781072D01*
X209276071Y-120638215D02*
X208418929Y-119995358D01*
X207776071Y-120638215D02*
X208633214Y-119781072D01*
X207918929Y-121209643D02*
X207847500Y-121281072D01*
X207776071Y-121423929D01*
X207776071Y-121781072D01*
X207847500Y-121923929D01*
X207918929Y-121995358D01*
X208061786Y-122066786D01*
X208204643Y-122066786D01*
X208418929Y-121995358D01*
X209276071Y-121138215D01*
X209276071Y-122066786D01*
X207918929Y-122638214D02*
X207847500Y-122709643D01*
X207776071Y-122852500D01*
X207776071Y-123209643D01*
X207847500Y-123352500D01*
X207918929Y-123423929D01*
X208061786Y-123495357D01*
X208204643Y-123495357D01*
X208418929Y-123423929D01*
X209276071Y-122566786D01*
X209276071Y-123495357D01*
X144934642Y-126091071D02*
X144934642Y-124591071D01*
X144363214Y-124591071D01*
X144220356Y-124662500D01*
X144148928Y-124733929D01*
X144077499Y-124876786D01*
X144077499Y-125091071D01*
X144148928Y-125233929D01*
X144220356Y-125305357D01*
X144363214Y-125376786D01*
X144934642Y-125376786D01*
X142648928Y-126091071D02*
X143506071Y-126091071D01*
X143077499Y-126091071D02*
X143077499Y-124591071D01*
X143220356Y-124805357D01*
X143363214Y-124948214D01*
X143506071Y-125019643D01*
X126849166Y-121424881D02*
X127182500Y-120948690D01*
X127420595Y-121424881D02*
X127420595Y-120424881D01*
X127039642Y-120424881D01*
X126944404Y-120472500D01*
X126896785Y-120520119D01*
X126849166Y-120615357D01*
X126849166Y-120758214D01*
X126896785Y-120853452D01*
X126944404Y-120901071D01*
X127039642Y-120948690D01*
X127420595Y-120948690D01*
X125896785Y-121424881D02*
X126468214Y-121424881D01*
X126182500Y-121424881D02*
X126182500Y-120424881D01*
X126277738Y-120567738D01*
X126372976Y-120662976D01*
X126468214Y-120710595D01*
X130939881Y-78255834D02*
X130463690Y-77922500D01*
X130939881Y-77684405D02*
X129939881Y-77684405D01*
X129939881Y-78065358D01*
X129987500Y-78160596D01*
X130035119Y-78208215D01*
X130130357Y-78255834D01*
X130273214Y-78255834D01*
X130368452Y-78208215D01*
X130416071Y-78160596D01*
X130463690Y-78065358D01*
X130463690Y-77684405D01*
X130035119Y-78636786D02*
X129987500Y-78684405D01*
X129939881Y-78779643D01*
X129939881Y-79017739D01*
X129987500Y-79112977D01*
X130035119Y-79160596D01*
X130130357Y-79208215D01*
X130225595Y-79208215D01*
X130368452Y-79160596D01*
X130939881Y-78589167D01*
X130939881Y-79208215D01*
X124737738Y-75064881D02*
X125071072Y-74588690D01*
X125309167Y-75064881D02*
X125309167Y-74064881D01*
X124928214Y-74064881D01*
X124832976Y-74112500D01*
X124785357Y-74160119D01*
X124737738Y-74255357D01*
X124737738Y-74398214D01*
X124785357Y-74493452D01*
X124832976Y-74541071D01*
X124928214Y-74588690D01*
X125309167Y-74588690D01*
X124452024Y-74064881D02*
X124118691Y-75064881D01*
X123785357Y-74064881D01*
X122928214Y-75064881D02*
X123499643Y-75064881D01*
X123213929Y-75064881D02*
X123213929Y-74064881D01*
X123309167Y-74207738D01*
X123404405Y-74302976D01*
X123499643Y-74350595D01*
X181252738Y-69984881D02*
X181586072Y-69508690D01*
X181824167Y-69984881D02*
X181824167Y-68984881D01*
X181443214Y-68984881D01*
X181347976Y-69032500D01*
X181300357Y-69080119D01*
X181252738Y-69175357D01*
X181252738Y-69318214D01*
X181300357Y-69413452D01*
X181347976Y-69461071D01*
X181443214Y-69508690D01*
X181824167Y-69508690D01*
X180967024Y-68984881D02*
X180633691Y-69984881D01*
X180300357Y-68984881D01*
X180014643Y-69080119D02*
X179967024Y-69032500D01*
X179871786Y-68984881D01*
X179633690Y-68984881D01*
X179538452Y-69032500D01*
X179490833Y-69080119D01*
X179443214Y-69175357D01*
X179443214Y-69270595D01*
X179490833Y-69413452D01*
X180062262Y-69984881D01*
X179443214Y-69984881D01*
M02*
