G04 #@! TF.FileFunction,Copper,L3,Inr,Signal*
%FSLAX46Y46*%
G04 Gerber Fmt 4.6, Leading zero omitted, Abs format (unit mm)*
G04 Created by KiCad (PCBNEW 4.0.4-stable) date Mon Oct  3 10:35:52 2016*
%MOMM*%
%LPD*%
G01*
G04 APERTURE LIST*
%ADD10C,0.100000*%
%ADD11C,6.400000*%
%ADD12R,1.300000X1.300000*%
%ADD13C,1.300000*%
%ADD14C,2.000000*%
%ADD15R,2.000000X2.000000*%
%ADD16C,1.524000*%
%ADD17C,3.048000*%
%ADD18C,0.600000*%
%ADD19C,1.500000*%
%ADD20C,3.000000*%
%ADD21C,0.152400*%
G04 APERTURE END LIST*
D10*
D11*
X145288000Y-87884000D03*
D12*
X140017500Y-115252500D03*
D13*
X142017500Y-115252500D03*
D12*
X146304000Y-115316000D03*
D13*
X148304000Y-115316000D03*
D12*
X134937500Y-77787500D03*
D13*
X132937500Y-77787500D03*
D12*
X115887500Y-77787500D03*
D13*
X117887500Y-77787500D03*
D12*
X163512500Y-68262500D03*
D13*
X161512500Y-68262500D03*
D12*
X175577500Y-68262500D03*
D13*
X173577500Y-68262500D03*
D12*
X198437500Y-66992500D03*
D13*
X198437500Y-64992500D03*
D12*
X200977500Y-117157500D03*
D13*
X200977500Y-119157500D03*
D12*
X198437500Y-60642500D03*
D13*
X198437500Y-58642500D03*
D12*
X200977500Y-123507500D03*
D13*
X200977500Y-125507500D03*
D14*
X105727500Y-99377500D03*
D15*
X105727500Y-91757500D03*
D14*
X105727500Y-95567500D03*
X105727500Y-114617500D03*
D15*
X105727500Y-106997500D03*
D14*
X105727500Y-110807500D03*
X120967500Y-114617500D03*
D15*
X120967500Y-106997500D03*
D14*
X120967500Y-110807500D03*
X120967500Y-99377500D03*
D15*
X120967500Y-91757500D03*
D14*
X120967500Y-95567500D03*
X105727500Y-84137500D03*
D15*
X105727500Y-76517500D03*
D14*
X105727500Y-80327500D03*
X136207500Y-99377500D03*
D15*
X136207500Y-91757500D03*
D14*
X136207500Y-95567500D03*
X158432500Y-61277500D03*
D15*
X150812500Y-61277500D03*
D14*
X154622500Y-61277500D03*
X173672500Y-61277500D03*
D15*
X166052500Y-61277500D03*
D14*
X169862500Y-61277500D03*
X145097500Y-79057500D03*
D15*
X145097500Y-71437500D03*
D14*
X145097500Y-75247500D03*
X143192500Y-61277500D03*
D15*
X135572500Y-61277500D03*
D14*
X139382500Y-61277500D03*
X127952500Y-61277500D03*
D15*
X120332500Y-61277500D03*
D14*
X124142500Y-61277500D03*
X112712500Y-61277500D03*
D15*
X105092500Y-61277500D03*
D14*
X108902500Y-61277500D03*
X193357500Y-117792500D03*
D15*
X193357500Y-125412500D03*
D14*
X193357500Y-121602500D03*
X206057500Y-110807500D03*
D15*
X206057500Y-103187500D03*
D14*
X206057500Y-106997500D03*
X193357500Y-103187500D03*
D15*
X193357500Y-110807500D03*
D14*
X193357500Y-106997500D03*
X206057500Y-66992500D03*
D15*
X206057500Y-59372500D03*
D14*
X206057500Y-63182500D03*
X193357500Y-73977500D03*
D15*
X193357500Y-81597500D03*
D14*
X193357500Y-77787500D03*
X206057500Y-81597500D03*
D15*
X206057500Y-73977500D03*
D14*
X206057500Y-77787500D03*
X193357500Y-59372500D03*
D15*
X193357500Y-66992500D03*
D14*
X193357500Y-63182500D03*
X206057500Y-96202500D03*
D15*
X206057500Y-88582500D03*
D14*
X206057500Y-92392500D03*
X193357500Y-88582500D03*
D15*
X193357500Y-96202500D03*
D14*
X193357500Y-92392500D03*
X206057500Y-125412500D03*
D15*
X206057500Y-117792500D03*
D14*
X206057500Y-121602500D03*
X140017500Y-122872500D03*
D15*
X147637500Y-122872500D03*
D14*
X143827500Y-122872500D03*
D16*
X125412500Y-82232500D03*
X122872500Y-79692500D03*
X122872500Y-84772500D03*
X179387500Y-61912500D03*
X181927500Y-64452500D03*
X181927500Y-59372500D03*
D17*
X113347500Y-122999500D03*
X122237500Y-122999500D03*
X131127500Y-122999500D03*
X131762500Y-72199500D03*
X125412500Y-72199500D03*
X119062500Y-72199500D03*
X112712500Y-72199500D03*
D11*
X145288000Y-106172000D03*
D18*
X174752000Y-73660000D03*
X136652000Y-116840000D03*
X158496000Y-75184000D03*
X158496000Y-66548000D03*
X158496000Y-70612000D03*
X158496000Y-68580000D03*
X176784000Y-67056000D03*
X175768000Y-66040000D03*
X172720000Y-65024000D03*
X173736000Y-65024000D03*
D19*
X134937500Y-77787500D02*
X134937500Y-75374500D01*
X134937500Y-75374500D02*
X131762500Y-72199500D01*
D20*
X113284000Y-88392000D02*
X113284000Y-98869500D01*
X113284000Y-98869500D02*
X112776000Y-99377500D01*
X105727500Y-114617500D02*
X107886500Y-114617500D01*
X107886500Y-114617500D02*
X112776000Y-109728000D01*
X112776000Y-99377500D02*
X112776000Y-109728000D01*
X117665500Y-114617500D02*
X120967500Y-114617500D01*
X112776000Y-109728000D02*
X117665500Y-114617500D01*
X120967500Y-99377500D02*
X136207500Y-99377500D01*
X105727500Y-99377500D02*
X112776000Y-99377500D01*
X112776000Y-99377500D02*
X120967500Y-99377500D01*
X129032000Y-84328000D02*
X129032000Y-92964000D01*
X122618500Y-99377500D02*
X120967500Y-99377500D01*
X129032000Y-92964000D02*
X122618500Y-99377500D01*
X131762500Y-72199500D02*
X129032000Y-74930000D01*
X129032000Y-74930000D02*
X129032000Y-84328000D01*
X129032000Y-84328000D02*
X129032000Y-94996000D01*
X129032000Y-94996000D02*
X133413500Y-99377500D01*
X133413500Y-99377500D02*
X136207500Y-99377500D01*
X105727500Y-84137500D02*
X108521500Y-84137500D01*
X129032000Y-83820000D02*
X129032000Y-74930000D01*
X124460000Y-88392000D02*
X129032000Y-83820000D01*
X112776000Y-88392000D02*
X113284000Y-88392000D01*
X113284000Y-88392000D02*
X124460000Y-88392000D01*
X108521500Y-84137500D02*
X112776000Y-88392000D01*
X150812500Y-61277500D02*
X150812500Y-65722500D01*
X150812500Y-65722500D02*
X145097500Y-71437500D01*
X147447000Y-57912000D02*
X162687000Y-57912000D01*
X162687000Y-57912000D02*
X166052500Y-61277500D01*
X132080000Y-57912000D02*
X147447000Y-57912000D01*
X147447000Y-57912000D02*
X150812500Y-61277500D01*
X116840000Y-57912000D02*
X132080000Y-57912000D01*
X132080000Y-57912000D02*
X132207000Y-57912000D01*
X132207000Y-57912000D02*
X135572500Y-61277500D01*
X105092500Y-61277500D02*
X105092500Y-60007500D01*
X105092500Y-60007500D02*
X107188000Y-57912000D01*
X107188000Y-57912000D02*
X116840000Y-57912000D01*
X116840000Y-57912000D02*
X116967000Y-57912000D01*
X116967000Y-57912000D02*
X120332500Y-61277500D01*
D19*
X175768000Y-66040000D02*
X176784000Y-67056000D01*
X174752000Y-65024000D02*
X175768000Y-66040000D01*
X173736000Y-65024000D02*
X174752000Y-65024000D01*
X173736000Y-65024000D02*
X172720000Y-65024000D01*
D20*
X166052500Y-61277500D02*
X166052500Y-61912500D01*
X166052500Y-61912500D02*
X169164000Y-65024000D01*
X169164000Y-65024000D02*
X173736000Y-65024000D01*
D19*
X166052500Y-61912500D02*
X169164000Y-65024000D01*
X169164000Y-65024000D02*
X173736000Y-65024000D01*
D20*
X189484000Y-85471000D02*
X189484000Y-70866000D01*
X189484000Y-70866000D02*
X193357500Y-66992500D01*
X189484000Y-101092000D02*
X189484000Y-85471000D01*
X189484000Y-85471000D02*
X193357500Y-81597500D01*
X189484000Y-115316000D02*
X189484000Y-101092000D01*
X189484000Y-101092000D02*
X189484000Y-100076000D01*
X189484000Y-100076000D02*
X193357500Y-96202500D01*
X193357500Y-125412500D02*
X191452500Y-125412500D01*
X191452500Y-125412500D02*
X189484000Y-123444000D01*
X189484000Y-123444000D02*
X189484000Y-115316000D01*
X189484000Y-115316000D02*
X189484000Y-114681000D01*
X189484000Y-114681000D02*
X193357500Y-110807500D01*
D19*
X200977500Y-125507500D02*
X205962500Y-125507500D01*
X205962500Y-125507500D02*
X206057500Y-125412500D01*
D20*
X209296000Y-101600000D02*
X209296000Y-70231000D01*
X209296000Y-70231000D02*
X206057500Y-66992500D01*
X209296000Y-99441000D02*
X209296000Y-84836000D01*
X209296000Y-84836000D02*
X206057500Y-81597500D01*
X209296000Y-114046000D02*
X209296000Y-101600000D01*
X209296000Y-101600000D02*
X209296000Y-99441000D01*
X209296000Y-99441000D02*
X206057500Y-96202500D01*
X206057500Y-125412500D02*
X207327500Y-125412500D01*
X207327500Y-125412500D02*
X209296000Y-123444000D01*
X209296000Y-123444000D02*
X209296000Y-114046000D01*
X209296000Y-114046000D02*
X206057500Y-110807500D01*
D21*
G36*
X139115800Y-75215564D02*
X139115800Y-101568436D01*
X122904436Y-117779800D01*
X105187564Y-117779800D01*
X103182224Y-115774460D01*
X104821988Y-115774460D01*
X104927701Y-116020821D01*
X105525609Y-116220069D01*
X106154253Y-116175341D01*
X106527299Y-116020821D01*
X106633012Y-115774460D01*
X120061988Y-115774460D01*
X120167701Y-116020821D01*
X120765609Y-116220069D01*
X121394253Y-116175341D01*
X121767299Y-116020821D01*
X121873012Y-115774460D01*
X120967500Y-114868947D01*
X120061988Y-115774460D01*
X106633012Y-115774460D01*
X105727500Y-114868947D01*
X104821988Y-115774460D01*
X103182224Y-115774460D01*
X102692200Y-115284436D01*
X102692200Y-114415609D01*
X104124931Y-114415609D01*
X104169659Y-115044253D01*
X104324179Y-115417299D01*
X104570540Y-115523012D01*
X105476053Y-114617500D01*
X105978947Y-114617500D01*
X106884460Y-115523012D01*
X107130821Y-115417299D01*
X107330069Y-114819391D01*
X107301340Y-114415609D01*
X119364931Y-114415609D01*
X119409659Y-115044253D01*
X119564179Y-115417299D01*
X119810540Y-115523012D01*
X120716053Y-114617500D01*
X121218947Y-114617500D01*
X122124460Y-115523012D01*
X122370821Y-115417299D01*
X122570069Y-114819391D01*
X122525341Y-114190747D01*
X122370821Y-113817701D01*
X122124460Y-113711988D01*
X121218947Y-114617500D01*
X120716053Y-114617500D01*
X119810540Y-113711988D01*
X119564179Y-113817701D01*
X119364931Y-114415609D01*
X107301340Y-114415609D01*
X107285341Y-114190747D01*
X107130821Y-113817701D01*
X106884460Y-113711988D01*
X105978947Y-114617500D01*
X105476053Y-114617500D01*
X104570540Y-113711988D01*
X104324179Y-113817701D01*
X104124931Y-114415609D01*
X102692200Y-114415609D01*
X102692200Y-113460540D01*
X104821988Y-113460540D01*
X105727500Y-114366053D01*
X106633012Y-113460540D01*
X120061988Y-113460540D01*
X120967500Y-114366053D01*
X121873012Y-113460540D01*
X121767299Y-113214179D01*
X121169391Y-113014931D01*
X120540747Y-113059659D01*
X120167701Y-113214179D01*
X120061988Y-113460540D01*
X106633012Y-113460540D01*
X106527299Y-113214179D01*
X105929391Y-113014931D01*
X105300747Y-113059659D01*
X104927701Y-113214179D01*
X104821988Y-113460540D01*
X102692200Y-113460540D01*
X102692200Y-111121234D01*
X104143026Y-111121234D01*
X104383698Y-111703705D01*
X104828951Y-112149736D01*
X105411001Y-112391424D01*
X106041234Y-112391974D01*
X106623705Y-112151302D01*
X107069736Y-111706049D01*
X107311424Y-111123999D01*
X107311426Y-111121234D01*
X119383026Y-111121234D01*
X119623698Y-111703705D01*
X120068951Y-112149736D01*
X120651001Y-112391424D01*
X121281234Y-112391974D01*
X121863705Y-112151302D01*
X122309736Y-111706049D01*
X122551424Y-111123999D01*
X122551974Y-110493766D01*
X122311302Y-109911295D01*
X121866049Y-109465264D01*
X121283999Y-109223576D01*
X120653766Y-109223026D01*
X120071295Y-109463698D01*
X119625264Y-109908951D01*
X119383576Y-110491001D01*
X119383026Y-111121234D01*
X107311426Y-111121234D01*
X107311974Y-110493766D01*
X107071302Y-109911295D01*
X106626049Y-109465264D01*
X106043999Y-109223576D01*
X105413766Y-109223026D01*
X104831295Y-109463698D01*
X104385264Y-109908951D01*
X104143576Y-110491001D01*
X104143026Y-111121234D01*
X102692200Y-111121234D01*
X102692200Y-105997500D01*
X104131855Y-105997500D01*
X104131855Y-107997500D01*
X104172591Y-108213992D01*
X104300537Y-108412826D01*
X104495761Y-108546217D01*
X104727500Y-108593145D01*
X106727500Y-108593145D01*
X106943992Y-108552409D01*
X107142826Y-108424463D01*
X107276217Y-108229239D01*
X107323145Y-107997500D01*
X107323145Y-105997500D01*
X119371855Y-105997500D01*
X119371855Y-107997500D01*
X119412591Y-108213992D01*
X119540537Y-108412826D01*
X119735761Y-108546217D01*
X119967500Y-108593145D01*
X121967500Y-108593145D01*
X122183992Y-108552409D01*
X122382826Y-108424463D01*
X122516217Y-108229239D01*
X122563145Y-107997500D01*
X122563145Y-105997500D01*
X122522409Y-105781008D01*
X122394463Y-105582174D01*
X122199239Y-105448783D01*
X121967500Y-105401855D01*
X119967500Y-105401855D01*
X119751008Y-105442591D01*
X119552174Y-105570537D01*
X119418783Y-105765761D01*
X119371855Y-105997500D01*
X107323145Y-105997500D01*
X107282409Y-105781008D01*
X107154463Y-105582174D01*
X106959239Y-105448783D01*
X106727500Y-105401855D01*
X104727500Y-105401855D01*
X104511008Y-105442591D01*
X104312174Y-105570537D01*
X104178783Y-105765761D01*
X104131855Y-105997500D01*
X102692200Y-105997500D01*
X102692200Y-100534460D01*
X104821988Y-100534460D01*
X104927701Y-100780821D01*
X105525609Y-100980069D01*
X106154253Y-100935341D01*
X106527299Y-100780821D01*
X106633012Y-100534460D01*
X120061988Y-100534460D01*
X120167701Y-100780821D01*
X120765609Y-100980069D01*
X121394253Y-100935341D01*
X121767299Y-100780821D01*
X121873012Y-100534460D01*
X135301988Y-100534460D01*
X135407701Y-100780821D01*
X136005609Y-100980069D01*
X136634253Y-100935341D01*
X137007299Y-100780821D01*
X137113012Y-100534460D01*
X136207500Y-99628947D01*
X135301988Y-100534460D01*
X121873012Y-100534460D01*
X120967500Y-99628947D01*
X120061988Y-100534460D01*
X106633012Y-100534460D01*
X105727500Y-99628947D01*
X104821988Y-100534460D01*
X102692200Y-100534460D01*
X102692200Y-99175609D01*
X104124931Y-99175609D01*
X104169659Y-99804253D01*
X104324179Y-100177299D01*
X104570540Y-100283012D01*
X105476053Y-99377500D01*
X105978947Y-99377500D01*
X106884460Y-100283012D01*
X107130821Y-100177299D01*
X107330069Y-99579391D01*
X107301340Y-99175609D01*
X119364931Y-99175609D01*
X119409659Y-99804253D01*
X119564179Y-100177299D01*
X119810540Y-100283012D01*
X120716053Y-99377500D01*
X121218947Y-99377500D01*
X122124460Y-100283012D01*
X122370821Y-100177299D01*
X122570069Y-99579391D01*
X122541340Y-99175609D01*
X134604931Y-99175609D01*
X134649659Y-99804253D01*
X134804179Y-100177299D01*
X135050540Y-100283012D01*
X135956053Y-99377500D01*
X136458947Y-99377500D01*
X137364460Y-100283012D01*
X137610821Y-100177299D01*
X137810069Y-99579391D01*
X137765341Y-98950747D01*
X137610821Y-98577701D01*
X137364460Y-98471988D01*
X136458947Y-99377500D01*
X135956053Y-99377500D01*
X135050540Y-98471988D01*
X134804179Y-98577701D01*
X134604931Y-99175609D01*
X122541340Y-99175609D01*
X122525341Y-98950747D01*
X122370821Y-98577701D01*
X122124460Y-98471988D01*
X121218947Y-99377500D01*
X120716053Y-99377500D01*
X119810540Y-98471988D01*
X119564179Y-98577701D01*
X119364931Y-99175609D01*
X107301340Y-99175609D01*
X107285341Y-98950747D01*
X107130821Y-98577701D01*
X106884460Y-98471988D01*
X105978947Y-99377500D01*
X105476053Y-99377500D01*
X104570540Y-98471988D01*
X104324179Y-98577701D01*
X104124931Y-99175609D01*
X102692200Y-99175609D01*
X102692200Y-98220540D01*
X104821988Y-98220540D01*
X105727500Y-99126053D01*
X106633012Y-98220540D01*
X120061988Y-98220540D01*
X120967500Y-99126053D01*
X121873012Y-98220540D01*
X135301988Y-98220540D01*
X136207500Y-99126053D01*
X137113012Y-98220540D01*
X137007299Y-97974179D01*
X136409391Y-97774931D01*
X135780747Y-97819659D01*
X135407701Y-97974179D01*
X135301988Y-98220540D01*
X121873012Y-98220540D01*
X121767299Y-97974179D01*
X121169391Y-97774931D01*
X120540747Y-97819659D01*
X120167701Y-97974179D01*
X120061988Y-98220540D01*
X106633012Y-98220540D01*
X106527299Y-97974179D01*
X105929391Y-97774931D01*
X105300747Y-97819659D01*
X104927701Y-97974179D01*
X104821988Y-98220540D01*
X102692200Y-98220540D01*
X102692200Y-95881234D01*
X104143026Y-95881234D01*
X104383698Y-96463705D01*
X104828951Y-96909736D01*
X105411001Y-97151424D01*
X106041234Y-97151974D01*
X106623705Y-96911302D01*
X107069736Y-96466049D01*
X107311424Y-95883999D01*
X107311426Y-95881234D01*
X119383026Y-95881234D01*
X119623698Y-96463705D01*
X120068951Y-96909736D01*
X120651001Y-97151424D01*
X121281234Y-97151974D01*
X121863705Y-96911302D01*
X122309736Y-96466049D01*
X122551424Y-95883999D01*
X122551426Y-95881234D01*
X134623026Y-95881234D01*
X134863698Y-96463705D01*
X135308951Y-96909736D01*
X135891001Y-97151424D01*
X136521234Y-97151974D01*
X137103705Y-96911302D01*
X137549736Y-96466049D01*
X137791424Y-95883999D01*
X137791974Y-95253766D01*
X137551302Y-94671295D01*
X137106049Y-94225264D01*
X136523999Y-93983576D01*
X135893766Y-93983026D01*
X135311295Y-94223698D01*
X134865264Y-94668951D01*
X134623576Y-95251001D01*
X134623026Y-95881234D01*
X122551426Y-95881234D01*
X122551974Y-95253766D01*
X122311302Y-94671295D01*
X121866049Y-94225264D01*
X121283999Y-93983576D01*
X120653766Y-93983026D01*
X120071295Y-94223698D01*
X119625264Y-94668951D01*
X119383576Y-95251001D01*
X119383026Y-95881234D01*
X107311426Y-95881234D01*
X107311974Y-95253766D01*
X107071302Y-94671295D01*
X106626049Y-94225264D01*
X106043999Y-93983576D01*
X105413766Y-93983026D01*
X104831295Y-94223698D01*
X104385264Y-94668951D01*
X104143576Y-95251001D01*
X104143026Y-95881234D01*
X102692200Y-95881234D01*
X102692200Y-90757500D01*
X104131855Y-90757500D01*
X104131855Y-92757500D01*
X104172591Y-92973992D01*
X104300537Y-93172826D01*
X104495761Y-93306217D01*
X104727500Y-93353145D01*
X106727500Y-93353145D01*
X106943992Y-93312409D01*
X107142826Y-93184463D01*
X107276217Y-92989239D01*
X107323145Y-92757500D01*
X107323145Y-90757500D01*
X119371855Y-90757500D01*
X119371855Y-92757500D01*
X119412591Y-92973992D01*
X119540537Y-93172826D01*
X119735761Y-93306217D01*
X119967500Y-93353145D01*
X121967500Y-93353145D01*
X122183992Y-93312409D01*
X122382826Y-93184463D01*
X122516217Y-92989239D01*
X122563145Y-92757500D01*
X122563145Y-90757500D01*
X134611855Y-90757500D01*
X134611855Y-92757500D01*
X134652591Y-92973992D01*
X134780537Y-93172826D01*
X134975761Y-93306217D01*
X135207500Y-93353145D01*
X137207500Y-93353145D01*
X137423992Y-93312409D01*
X137622826Y-93184463D01*
X137756217Y-92989239D01*
X137803145Y-92757500D01*
X137803145Y-90757500D01*
X137762409Y-90541008D01*
X137634463Y-90342174D01*
X137439239Y-90208783D01*
X137207500Y-90161855D01*
X135207500Y-90161855D01*
X134991008Y-90202591D01*
X134792174Y-90330537D01*
X134658783Y-90525761D01*
X134611855Y-90757500D01*
X122563145Y-90757500D01*
X122522409Y-90541008D01*
X122394463Y-90342174D01*
X122199239Y-90208783D01*
X121967500Y-90161855D01*
X119967500Y-90161855D01*
X119751008Y-90202591D01*
X119552174Y-90330537D01*
X119418783Y-90525761D01*
X119371855Y-90757500D01*
X107323145Y-90757500D01*
X107282409Y-90541008D01*
X107154463Y-90342174D01*
X106959239Y-90208783D01*
X106727500Y-90161855D01*
X104727500Y-90161855D01*
X104511008Y-90202591D01*
X104312174Y-90330537D01*
X104178783Y-90525761D01*
X104131855Y-90757500D01*
X102692200Y-90757500D01*
X102692200Y-85294460D01*
X104821988Y-85294460D01*
X104927701Y-85540821D01*
X105525609Y-85740069D01*
X106154253Y-85695341D01*
X106527299Y-85540821D01*
X106633012Y-85294460D01*
X105727500Y-84388947D01*
X104821988Y-85294460D01*
X102692200Y-85294460D01*
X102692200Y-83935609D01*
X104124931Y-83935609D01*
X104169659Y-84564253D01*
X104324179Y-84937299D01*
X104570540Y-85043012D01*
X105476053Y-84137500D01*
X105978947Y-84137500D01*
X106884460Y-85043012D01*
X106893574Y-85039101D01*
X121526066Y-85039101D01*
X121730581Y-85534065D01*
X122108943Y-85913088D01*
X122603549Y-86118466D01*
X123139101Y-86118934D01*
X123634065Y-85914419D01*
X124013088Y-85536057D01*
X124218466Y-85041451D01*
X124218934Y-84505899D01*
X124014419Y-84010935D01*
X123636057Y-83631912D01*
X123141451Y-83426534D01*
X122605899Y-83426066D01*
X122110935Y-83630581D01*
X121731912Y-84008943D01*
X121526534Y-84503549D01*
X121526066Y-85039101D01*
X106893574Y-85039101D01*
X107130821Y-84937299D01*
X107330069Y-84339391D01*
X107285341Y-83710747D01*
X107130821Y-83337701D01*
X106884460Y-83231988D01*
X105978947Y-84137500D01*
X105476053Y-84137500D01*
X104570540Y-83231988D01*
X104324179Y-83337701D01*
X104124931Y-83935609D01*
X102692200Y-83935609D01*
X102692200Y-82980540D01*
X104821988Y-82980540D01*
X105727500Y-83886053D01*
X106633012Y-82980540D01*
X106527299Y-82734179D01*
X105929391Y-82534931D01*
X105300747Y-82579659D01*
X104927701Y-82734179D01*
X104821988Y-82980540D01*
X102692200Y-82980540D01*
X102692200Y-82499101D01*
X124066066Y-82499101D01*
X124270581Y-82994065D01*
X124648943Y-83373088D01*
X125143549Y-83578466D01*
X125679101Y-83578934D01*
X126174065Y-83374419D01*
X126553088Y-82996057D01*
X126758466Y-82501451D01*
X126758934Y-81965899D01*
X126554419Y-81470935D01*
X126176057Y-81091912D01*
X125681451Y-80886534D01*
X125145899Y-80886066D01*
X124650935Y-81090581D01*
X124271912Y-81468943D01*
X124066534Y-81963549D01*
X124066066Y-82499101D01*
X102692200Y-82499101D01*
X102692200Y-80641234D01*
X104143026Y-80641234D01*
X104383698Y-81223705D01*
X104828951Y-81669736D01*
X105411001Y-81911424D01*
X106041234Y-81911974D01*
X106623705Y-81671302D01*
X107069736Y-81226049D01*
X107311424Y-80643999D01*
X107311974Y-80013766D01*
X107289387Y-79959101D01*
X121526066Y-79959101D01*
X121730581Y-80454065D01*
X122108943Y-80833088D01*
X122603549Y-81038466D01*
X123139101Y-81038934D01*
X123634065Y-80834419D01*
X124013088Y-80456057D01*
X124218466Y-79961451D01*
X124218934Y-79425899D01*
X124014419Y-78930935D01*
X123636057Y-78551912D01*
X123141451Y-78346534D01*
X122605899Y-78346066D01*
X122110935Y-78550581D01*
X121731912Y-78928943D01*
X121526534Y-79423549D01*
X121526066Y-79959101D01*
X107289387Y-79959101D01*
X107071302Y-79431295D01*
X106626049Y-78985264D01*
X106043999Y-78743576D01*
X105413766Y-78743026D01*
X104831295Y-78983698D01*
X104385264Y-79428951D01*
X104143576Y-80011001D01*
X104143026Y-80641234D01*
X102692200Y-80641234D01*
X102692200Y-75517500D01*
X104131855Y-75517500D01*
X104131855Y-77517500D01*
X104172591Y-77733992D01*
X104300537Y-77932826D01*
X104495761Y-78066217D01*
X104727500Y-78113145D01*
X106727500Y-78113145D01*
X106943992Y-78072409D01*
X107142826Y-77944463D01*
X107276217Y-77749239D01*
X107323145Y-77517500D01*
X107323145Y-77137500D01*
X114641855Y-77137500D01*
X114641855Y-78437500D01*
X114682591Y-78653992D01*
X114810537Y-78852826D01*
X115005761Y-78986217D01*
X115237500Y-79033145D01*
X116537500Y-79033145D01*
X116753992Y-78992409D01*
X116952826Y-78864463D01*
X117060855Y-78706358D01*
X117187469Y-78833193D01*
X117640925Y-79021485D01*
X118131920Y-79021913D01*
X118585705Y-78834414D01*
X118933193Y-78487531D01*
X119121485Y-78034075D01*
X119121486Y-78031920D01*
X131703087Y-78031920D01*
X131890586Y-78485705D01*
X132237469Y-78833193D01*
X132690925Y-79021485D01*
X133181920Y-79021913D01*
X133635705Y-78834414D01*
X133765786Y-78704559D01*
X133792239Y-78768422D01*
X133956577Y-78932761D01*
X134171295Y-79021700D01*
X134613650Y-79021700D01*
X134759700Y-78875650D01*
X134759700Y-77965300D01*
X135115300Y-77965300D01*
X135115300Y-78875650D01*
X135261350Y-79021700D01*
X135703705Y-79021700D01*
X135918423Y-78932761D01*
X136082761Y-78768422D01*
X136171700Y-78553704D01*
X136171700Y-78111350D01*
X136025650Y-77965300D01*
X135115300Y-77965300D01*
X134759700Y-77965300D01*
X134739700Y-77965300D01*
X134739700Y-77609700D01*
X134759700Y-77609700D01*
X134759700Y-76699350D01*
X135115300Y-76699350D01*
X135115300Y-77609700D01*
X136025650Y-77609700D01*
X136171700Y-77463650D01*
X136171700Y-77021296D01*
X136082761Y-76806578D01*
X135918423Y-76642239D01*
X135703705Y-76553300D01*
X135261350Y-76553300D01*
X135115300Y-76699350D01*
X134759700Y-76699350D01*
X134613650Y-76553300D01*
X134171295Y-76553300D01*
X133956577Y-76642239D01*
X133792239Y-76806578D01*
X133765832Y-76870331D01*
X133637531Y-76741807D01*
X133184075Y-76553515D01*
X132693080Y-76553087D01*
X132239295Y-76740586D01*
X131891807Y-77087469D01*
X131703515Y-77540925D01*
X131703087Y-78031920D01*
X119121486Y-78031920D01*
X119121913Y-77543080D01*
X118934414Y-77089295D01*
X118587531Y-76741807D01*
X118134075Y-76553515D01*
X117643080Y-76553087D01*
X117189295Y-76740586D01*
X117059613Y-76870042D01*
X116964463Y-76722174D01*
X116769239Y-76588783D01*
X116537500Y-76541855D01*
X115237500Y-76541855D01*
X115021008Y-76582591D01*
X114822174Y-76710537D01*
X114688783Y-76905761D01*
X114641855Y-77137500D01*
X107323145Y-77137500D01*
X107323145Y-75517500D01*
X107282409Y-75301008D01*
X107154463Y-75102174D01*
X106959239Y-74968783D01*
X106727500Y-74921855D01*
X104727500Y-74921855D01*
X104511008Y-74962591D01*
X104312174Y-75090537D01*
X104178783Y-75285761D01*
X104131855Y-75517500D01*
X102692200Y-75517500D01*
X102692200Y-75215564D01*
X105290757Y-72617007D01*
X110603935Y-72617007D01*
X110924213Y-73392139D01*
X111516741Y-73985703D01*
X112291313Y-74307333D01*
X113130007Y-74308065D01*
X113905139Y-73987787D01*
X114498703Y-73395259D01*
X114820333Y-72620687D01*
X114820336Y-72617007D01*
X116953935Y-72617007D01*
X117274213Y-73392139D01*
X117866741Y-73985703D01*
X118641313Y-74307333D01*
X119480007Y-74308065D01*
X120255139Y-73987787D01*
X120848703Y-73395259D01*
X121170333Y-72620687D01*
X121170336Y-72617007D01*
X123303935Y-72617007D01*
X123624213Y-73392139D01*
X124216741Y-73985703D01*
X124991313Y-74307333D01*
X125830007Y-74308065D01*
X126605139Y-73987787D01*
X126857077Y-73736288D01*
X130477159Y-73736288D01*
X130647227Y-74037033D01*
X131435316Y-74323956D01*
X132273215Y-74287449D01*
X132877773Y-74037033D01*
X133047841Y-73736288D01*
X131762500Y-72450947D01*
X130477159Y-73736288D01*
X126857077Y-73736288D01*
X127198703Y-73395259D01*
X127520333Y-72620687D01*
X127520986Y-71872316D01*
X129638044Y-71872316D01*
X129674551Y-72710215D01*
X129924967Y-73314773D01*
X130225712Y-73484841D01*
X131511053Y-72199500D01*
X132013947Y-72199500D01*
X133299288Y-73484841D01*
X133600033Y-73314773D01*
X133886956Y-72526684D01*
X133850449Y-71688785D01*
X133600033Y-71084227D01*
X133299288Y-70914159D01*
X132013947Y-72199500D01*
X131511053Y-72199500D01*
X130225712Y-70914159D01*
X129924967Y-71084227D01*
X129638044Y-71872316D01*
X127520986Y-71872316D01*
X127521065Y-71781993D01*
X127200787Y-71006861D01*
X126857239Y-70662712D01*
X130477159Y-70662712D01*
X131762500Y-71948053D01*
X133047841Y-70662712D01*
X132877773Y-70361967D01*
X132089684Y-70075044D01*
X131251785Y-70111551D01*
X130647227Y-70361967D01*
X130477159Y-70662712D01*
X126857239Y-70662712D01*
X126608259Y-70413297D01*
X125833687Y-70091667D01*
X124994993Y-70090935D01*
X124219861Y-70411213D01*
X123626297Y-71003741D01*
X123304667Y-71778313D01*
X123303935Y-72617007D01*
X121170336Y-72617007D01*
X121171065Y-71781993D01*
X120850787Y-71006861D01*
X120258259Y-70413297D01*
X119483687Y-70091667D01*
X118644993Y-70090935D01*
X117869861Y-70411213D01*
X117276297Y-71003741D01*
X116954667Y-71778313D01*
X116953935Y-72617007D01*
X114820336Y-72617007D01*
X114821065Y-71781993D01*
X114500787Y-71006861D01*
X113908259Y-70413297D01*
X113133687Y-70091667D01*
X112294993Y-70090935D01*
X111519861Y-70411213D01*
X110926297Y-71003741D01*
X110604667Y-71778313D01*
X110603935Y-72617007D01*
X105290757Y-72617007D01*
X108743564Y-69164200D01*
X133064436Y-69164200D01*
X139115800Y-75215564D01*
X139115800Y-75215564D01*
G37*
X139115800Y-75215564D02*
X139115800Y-101568436D01*
X122904436Y-117779800D01*
X105187564Y-117779800D01*
X103182224Y-115774460D01*
X104821988Y-115774460D01*
X104927701Y-116020821D01*
X105525609Y-116220069D01*
X106154253Y-116175341D01*
X106527299Y-116020821D01*
X106633012Y-115774460D01*
X120061988Y-115774460D01*
X120167701Y-116020821D01*
X120765609Y-116220069D01*
X121394253Y-116175341D01*
X121767299Y-116020821D01*
X121873012Y-115774460D01*
X120967500Y-114868947D01*
X120061988Y-115774460D01*
X106633012Y-115774460D01*
X105727500Y-114868947D01*
X104821988Y-115774460D01*
X103182224Y-115774460D01*
X102692200Y-115284436D01*
X102692200Y-114415609D01*
X104124931Y-114415609D01*
X104169659Y-115044253D01*
X104324179Y-115417299D01*
X104570540Y-115523012D01*
X105476053Y-114617500D01*
X105978947Y-114617500D01*
X106884460Y-115523012D01*
X107130821Y-115417299D01*
X107330069Y-114819391D01*
X107301340Y-114415609D01*
X119364931Y-114415609D01*
X119409659Y-115044253D01*
X119564179Y-115417299D01*
X119810540Y-115523012D01*
X120716053Y-114617500D01*
X121218947Y-114617500D01*
X122124460Y-115523012D01*
X122370821Y-115417299D01*
X122570069Y-114819391D01*
X122525341Y-114190747D01*
X122370821Y-113817701D01*
X122124460Y-113711988D01*
X121218947Y-114617500D01*
X120716053Y-114617500D01*
X119810540Y-113711988D01*
X119564179Y-113817701D01*
X119364931Y-114415609D01*
X107301340Y-114415609D01*
X107285341Y-114190747D01*
X107130821Y-113817701D01*
X106884460Y-113711988D01*
X105978947Y-114617500D01*
X105476053Y-114617500D01*
X104570540Y-113711988D01*
X104324179Y-113817701D01*
X104124931Y-114415609D01*
X102692200Y-114415609D01*
X102692200Y-113460540D01*
X104821988Y-113460540D01*
X105727500Y-114366053D01*
X106633012Y-113460540D01*
X120061988Y-113460540D01*
X120967500Y-114366053D01*
X121873012Y-113460540D01*
X121767299Y-113214179D01*
X121169391Y-113014931D01*
X120540747Y-113059659D01*
X120167701Y-113214179D01*
X120061988Y-113460540D01*
X106633012Y-113460540D01*
X106527299Y-113214179D01*
X105929391Y-113014931D01*
X105300747Y-113059659D01*
X104927701Y-113214179D01*
X104821988Y-113460540D01*
X102692200Y-113460540D01*
X102692200Y-111121234D01*
X104143026Y-111121234D01*
X104383698Y-111703705D01*
X104828951Y-112149736D01*
X105411001Y-112391424D01*
X106041234Y-112391974D01*
X106623705Y-112151302D01*
X107069736Y-111706049D01*
X107311424Y-111123999D01*
X107311426Y-111121234D01*
X119383026Y-111121234D01*
X119623698Y-111703705D01*
X120068951Y-112149736D01*
X120651001Y-112391424D01*
X121281234Y-112391974D01*
X121863705Y-112151302D01*
X122309736Y-111706049D01*
X122551424Y-111123999D01*
X122551974Y-110493766D01*
X122311302Y-109911295D01*
X121866049Y-109465264D01*
X121283999Y-109223576D01*
X120653766Y-109223026D01*
X120071295Y-109463698D01*
X119625264Y-109908951D01*
X119383576Y-110491001D01*
X119383026Y-111121234D01*
X107311426Y-111121234D01*
X107311974Y-110493766D01*
X107071302Y-109911295D01*
X106626049Y-109465264D01*
X106043999Y-109223576D01*
X105413766Y-109223026D01*
X104831295Y-109463698D01*
X104385264Y-109908951D01*
X104143576Y-110491001D01*
X104143026Y-111121234D01*
X102692200Y-111121234D01*
X102692200Y-105997500D01*
X104131855Y-105997500D01*
X104131855Y-107997500D01*
X104172591Y-108213992D01*
X104300537Y-108412826D01*
X104495761Y-108546217D01*
X104727500Y-108593145D01*
X106727500Y-108593145D01*
X106943992Y-108552409D01*
X107142826Y-108424463D01*
X107276217Y-108229239D01*
X107323145Y-107997500D01*
X107323145Y-105997500D01*
X119371855Y-105997500D01*
X119371855Y-107997500D01*
X119412591Y-108213992D01*
X119540537Y-108412826D01*
X119735761Y-108546217D01*
X119967500Y-108593145D01*
X121967500Y-108593145D01*
X122183992Y-108552409D01*
X122382826Y-108424463D01*
X122516217Y-108229239D01*
X122563145Y-107997500D01*
X122563145Y-105997500D01*
X122522409Y-105781008D01*
X122394463Y-105582174D01*
X122199239Y-105448783D01*
X121967500Y-105401855D01*
X119967500Y-105401855D01*
X119751008Y-105442591D01*
X119552174Y-105570537D01*
X119418783Y-105765761D01*
X119371855Y-105997500D01*
X107323145Y-105997500D01*
X107282409Y-105781008D01*
X107154463Y-105582174D01*
X106959239Y-105448783D01*
X106727500Y-105401855D01*
X104727500Y-105401855D01*
X104511008Y-105442591D01*
X104312174Y-105570537D01*
X104178783Y-105765761D01*
X104131855Y-105997500D01*
X102692200Y-105997500D01*
X102692200Y-100534460D01*
X104821988Y-100534460D01*
X104927701Y-100780821D01*
X105525609Y-100980069D01*
X106154253Y-100935341D01*
X106527299Y-100780821D01*
X106633012Y-100534460D01*
X120061988Y-100534460D01*
X120167701Y-100780821D01*
X120765609Y-100980069D01*
X121394253Y-100935341D01*
X121767299Y-100780821D01*
X121873012Y-100534460D01*
X135301988Y-100534460D01*
X135407701Y-100780821D01*
X136005609Y-100980069D01*
X136634253Y-100935341D01*
X137007299Y-100780821D01*
X137113012Y-100534460D01*
X136207500Y-99628947D01*
X135301988Y-100534460D01*
X121873012Y-100534460D01*
X120967500Y-99628947D01*
X120061988Y-100534460D01*
X106633012Y-100534460D01*
X105727500Y-99628947D01*
X104821988Y-100534460D01*
X102692200Y-100534460D01*
X102692200Y-99175609D01*
X104124931Y-99175609D01*
X104169659Y-99804253D01*
X104324179Y-100177299D01*
X104570540Y-100283012D01*
X105476053Y-99377500D01*
X105978947Y-99377500D01*
X106884460Y-100283012D01*
X107130821Y-100177299D01*
X107330069Y-99579391D01*
X107301340Y-99175609D01*
X119364931Y-99175609D01*
X119409659Y-99804253D01*
X119564179Y-100177299D01*
X119810540Y-100283012D01*
X120716053Y-99377500D01*
X121218947Y-99377500D01*
X122124460Y-100283012D01*
X122370821Y-100177299D01*
X122570069Y-99579391D01*
X122541340Y-99175609D01*
X134604931Y-99175609D01*
X134649659Y-99804253D01*
X134804179Y-100177299D01*
X135050540Y-100283012D01*
X135956053Y-99377500D01*
X136458947Y-99377500D01*
X137364460Y-100283012D01*
X137610821Y-100177299D01*
X137810069Y-99579391D01*
X137765341Y-98950747D01*
X137610821Y-98577701D01*
X137364460Y-98471988D01*
X136458947Y-99377500D01*
X135956053Y-99377500D01*
X135050540Y-98471988D01*
X134804179Y-98577701D01*
X134604931Y-99175609D01*
X122541340Y-99175609D01*
X122525341Y-98950747D01*
X122370821Y-98577701D01*
X122124460Y-98471988D01*
X121218947Y-99377500D01*
X120716053Y-99377500D01*
X119810540Y-98471988D01*
X119564179Y-98577701D01*
X119364931Y-99175609D01*
X107301340Y-99175609D01*
X107285341Y-98950747D01*
X107130821Y-98577701D01*
X106884460Y-98471988D01*
X105978947Y-99377500D01*
X105476053Y-99377500D01*
X104570540Y-98471988D01*
X104324179Y-98577701D01*
X104124931Y-99175609D01*
X102692200Y-99175609D01*
X102692200Y-98220540D01*
X104821988Y-98220540D01*
X105727500Y-99126053D01*
X106633012Y-98220540D01*
X120061988Y-98220540D01*
X120967500Y-99126053D01*
X121873012Y-98220540D01*
X135301988Y-98220540D01*
X136207500Y-99126053D01*
X137113012Y-98220540D01*
X137007299Y-97974179D01*
X136409391Y-97774931D01*
X135780747Y-97819659D01*
X135407701Y-97974179D01*
X135301988Y-98220540D01*
X121873012Y-98220540D01*
X121767299Y-97974179D01*
X121169391Y-97774931D01*
X120540747Y-97819659D01*
X120167701Y-97974179D01*
X120061988Y-98220540D01*
X106633012Y-98220540D01*
X106527299Y-97974179D01*
X105929391Y-97774931D01*
X105300747Y-97819659D01*
X104927701Y-97974179D01*
X104821988Y-98220540D01*
X102692200Y-98220540D01*
X102692200Y-95881234D01*
X104143026Y-95881234D01*
X104383698Y-96463705D01*
X104828951Y-96909736D01*
X105411001Y-97151424D01*
X106041234Y-97151974D01*
X106623705Y-96911302D01*
X107069736Y-96466049D01*
X107311424Y-95883999D01*
X107311426Y-95881234D01*
X119383026Y-95881234D01*
X119623698Y-96463705D01*
X120068951Y-96909736D01*
X120651001Y-97151424D01*
X121281234Y-97151974D01*
X121863705Y-96911302D01*
X122309736Y-96466049D01*
X122551424Y-95883999D01*
X122551426Y-95881234D01*
X134623026Y-95881234D01*
X134863698Y-96463705D01*
X135308951Y-96909736D01*
X135891001Y-97151424D01*
X136521234Y-97151974D01*
X137103705Y-96911302D01*
X137549736Y-96466049D01*
X137791424Y-95883999D01*
X137791974Y-95253766D01*
X137551302Y-94671295D01*
X137106049Y-94225264D01*
X136523999Y-93983576D01*
X135893766Y-93983026D01*
X135311295Y-94223698D01*
X134865264Y-94668951D01*
X134623576Y-95251001D01*
X134623026Y-95881234D01*
X122551426Y-95881234D01*
X122551974Y-95253766D01*
X122311302Y-94671295D01*
X121866049Y-94225264D01*
X121283999Y-93983576D01*
X120653766Y-93983026D01*
X120071295Y-94223698D01*
X119625264Y-94668951D01*
X119383576Y-95251001D01*
X119383026Y-95881234D01*
X107311426Y-95881234D01*
X107311974Y-95253766D01*
X107071302Y-94671295D01*
X106626049Y-94225264D01*
X106043999Y-93983576D01*
X105413766Y-93983026D01*
X104831295Y-94223698D01*
X104385264Y-94668951D01*
X104143576Y-95251001D01*
X104143026Y-95881234D01*
X102692200Y-95881234D01*
X102692200Y-90757500D01*
X104131855Y-90757500D01*
X104131855Y-92757500D01*
X104172591Y-92973992D01*
X104300537Y-93172826D01*
X104495761Y-93306217D01*
X104727500Y-93353145D01*
X106727500Y-93353145D01*
X106943992Y-93312409D01*
X107142826Y-93184463D01*
X107276217Y-92989239D01*
X107323145Y-92757500D01*
X107323145Y-90757500D01*
X119371855Y-90757500D01*
X119371855Y-92757500D01*
X119412591Y-92973992D01*
X119540537Y-93172826D01*
X119735761Y-93306217D01*
X119967500Y-93353145D01*
X121967500Y-93353145D01*
X122183992Y-93312409D01*
X122382826Y-93184463D01*
X122516217Y-92989239D01*
X122563145Y-92757500D01*
X122563145Y-90757500D01*
X134611855Y-90757500D01*
X134611855Y-92757500D01*
X134652591Y-92973992D01*
X134780537Y-93172826D01*
X134975761Y-93306217D01*
X135207500Y-93353145D01*
X137207500Y-93353145D01*
X137423992Y-93312409D01*
X137622826Y-93184463D01*
X137756217Y-92989239D01*
X137803145Y-92757500D01*
X137803145Y-90757500D01*
X137762409Y-90541008D01*
X137634463Y-90342174D01*
X137439239Y-90208783D01*
X137207500Y-90161855D01*
X135207500Y-90161855D01*
X134991008Y-90202591D01*
X134792174Y-90330537D01*
X134658783Y-90525761D01*
X134611855Y-90757500D01*
X122563145Y-90757500D01*
X122522409Y-90541008D01*
X122394463Y-90342174D01*
X122199239Y-90208783D01*
X121967500Y-90161855D01*
X119967500Y-90161855D01*
X119751008Y-90202591D01*
X119552174Y-90330537D01*
X119418783Y-90525761D01*
X119371855Y-90757500D01*
X107323145Y-90757500D01*
X107282409Y-90541008D01*
X107154463Y-90342174D01*
X106959239Y-90208783D01*
X106727500Y-90161855D01*
X104727500Y-90161855D01*
X104511008Y-90202591D01*
X104312174Y-90330537D01*
X104178783Y-90525761D01*
X104131855Y-90757500D01*
X102692200Y-90757500D01*
X102692200Y-85294460D01*
X104821988Y-85294460D01*
X104927701Y-85540821D01*
X105525609Y-85740069D01*
X106154253Y-85695341D01*
X106527299Y-85540821D01*
X106633012Y-85294460D01*
X105727500Y-84388947D01*
X104821988Y-85294460D01*
X102692200Y-85294460D01*
X102692200Y-83935609D01*
X104124931Y-83935609D01*
X104169659Y-84564253D01*
X104324179Y-84937299D01*
X104570540Y-85043012D01*
X105476053Y-84137500D01*
X105978947Y-84137500D01*
X106884460Y-85043012D01*
X106893574Y-85039101D01*
X121526066Y-85039101D01*
X121730581Y-85534065D01*
X122108943Y-85913088D01*
X122603549Y-86118466D01*
X123139101Y-86118934D01*
X123634065Y-85914419D01*
X124013088Y-85536057D01*
X124218466Y-85041451D01*
X124218934Y-84505899D01*
X124014419Y-84010935D01*
X123636057Y-83631912D01*
X123141451Y-83426534D01*
X122605899Y-83426066D01*
X122110935Y-83630581D01*
X121731912Y-84008943D01*
X121526534Y-84503549D01*
X121526066Y-85039101D01*
X106893574Y-85039101D01*
X107130821Y-84937299D01*
X107330069Y-84339391D01*
X107285341Y-83710747D01*
X107130821Y-83337701D01*
X106884460Y-83231988D01*
X105978947Y-84137500D01*
X105476053Y-84137500D01*
X104570540Y-83231988D01*
X104324179Y-83337701D01*
X104124931Y-83935609D01*
X102692200Y-83935609D01*
X102692200Y-82980540D01*
X104821988Y-82980540D01*
X105727500Y-83886053D01*
X106633012Y-82980540D01*
X106527299Y-82734179D01*
X105929391Y-82534931D01*
X105300747Y-82579659D01*
X104927701Y-82734179D01*
X104821988Y-82980540D01*
X102692200Y-82980540D01*
X102692200Y-82499101D01*
X124066066Y-82499101D01*
X124270581Y-82994065D01*
X124648943Y-83373088D01*
X125143549Y-83578466D01*
X125679101Y-83578934D01*
X126174065Y-83374419D01*
X126553088Y-82996057D01*
X126758466Y-82501451D01*
X126758934Y-81965899D01*
X126554419Y-81470935D01*
X126176057Y-81091912D01*
X125681451Y-80886534D01*
X125145899Y-80886066D01*
X124650935Y-81090581D01*
X124271912Y-81468943D01*
X124066534Y-81963549D01*
X124066066Y-82499101D01*
X102692200Y-82499101D01*
X102692200Y-80641234D01*
X104143026Y-80641234D01*
X104383698Y-81223705D01*
X104828951Y-81669736D01*
X105411001Y-81911424D01*
X106041234Y-81911974D01*
X106623705Y-81671302D01*
X107069736Y-81226049D01*
X107311424Y-80643999D01*
X107311974Y-80013766D01*
X107289387Y-79959101D01*
X121526066Y-79959101D01*
X121730581Y-80454065D01*
X122108943Y-80833088D01*
X122603549Y-81038466D01*
X123139101Y-81038934D01*
X123634065Y-80834419D01*
X124013088Y-80456057D01*
X124218466Y-79961451D01*
X124218934Y-79425899D01*
X124014419Y-78930935D01*
X123636057Y-78551912D01*
X123141451Y-78346534D01*
X122605899Y-78346066D01*
X122110935Y-78550581D01*
X121731912Y-78928943D01*
X121526534Y-79423549D01*
X121526066Y-79959101D01*
X107289387Y-79959101D01*
X107071302Y-79431295D01*
X106626049Y-78985264D01*
X106043999Y-78743576D01*
X105413766Y-78743026D01*
X104831295Y-78983698D01*
X104385264Y-79428951D01*
X104143576Y-80011001D01*
X104143026Y-80641234D01*
X102692200Y-80641234D01*
X102692200Y-75517500D01*
X104131855Y-75517500D01*
X104131855Y-77517500D01*
X104172591Y-77733992D01*
X104300537Y-77932826D01*
X104495761Y-78066217D01*
X104727500Y-78113145D01*
X106727500Y-78113145D01*
X106943992Y-78072409D01*
X107142826Y-77944463D01*
X107276217Y-77749239D01*
X107323145Y-77517500D01*
X107323145Y-77137500D01*
X114641855Y-77137500D01*
X114641855Y-78437500D01*
X114682591Y-78653992D01*
X114810537Y-78852826D01*
X115005761Y-78986217D01*
X115237500Y-79033145D01*
X116537500Y-79033145D01*
X116753992Y-78992409D01*
X116952826Y-78864463D01*
X117060855Y-78706358D01*
X117187469Y-78833193D01*
X117640925Y-79021485D01*
X118131920Y-79021913D01*
X118585705Y-78834414D01*
X118933193Y-78487531D01*
X119121485Y-78034075D01*
X119121486Y-78031920D01*
X131703087Y-78031920D01*
X131890586Y-78485705D01*
X132237469Y-78833193D01*
X132690925Y-79021485D01*
X133181920Y-79021913D01*
X133635705Y-78834414D01*
X133765786Y-78704559D01*
X133792239Y-78768422D01*
X133956577Y-78932761D01*
X134171295Y-79021700D01*
X134613650Y-79021700D01*
X134759700Y-78875650D01*
X134759700Y-77965300D01*
X135115300Y-77965300D01*
X135115300Y-78875650D01*
X135261350Y-79021700D01*
X135703705Y-79021700D01*
X135918423Y-78932761D01*
X136082761Y-78768422D01*
X136171700Y-78553704D01*
X136171700Y-78111350D01*
X136025650Y-77965300D01*
X135115300Y-77965300D01*
X134759700Y-77965300D01*
X134739700Y-77965300D01*
X134739700Y-77609700D01*
X134759700Y-77609700D01*
X134759700Y-76699350D01*
X135115300Y-76699350D01*
X135115300Y-77609700D01*
X136025650Y-77609700D01*
X136171700Y-77463650D01*
X136171700Y-77021296D01*
X136082761Y-76806578D01*
X135918423Y-76642239D01*
X135703705Y-76553300D01*
X135261350Y-76553300D01*
X135115300Y-76699350D01*
X134759700Y-76699350D01*
X134613650Y-76553300D01*
X134171295Y-76553300D01*
X133956577Y-76642239D01*
X133792239Y-76806578D01*
X133765832Y-76870331D01*
X133637531Y-76741807D01*
X133184075Y-76553515D01*
X132693080Y-76553087D01*
X132239295Y-76740586D01*
X131891807Y-77087469D01*
X131703515Y-77540925D01*
X131703087Y-78031920D01*
X119121486Y-78031920D01*
X119121913Y-77543080D01*
X118934414Y-77089295D01*
X118587531Y-76741807D01*
X118134075Y-76553515D01*
X117643080Y-76553087D01*
X117189295Y-76740586D01*
X117059613Y-76870042D01*
X116964463Y-76722174D01*
X116769239Y-76588783D01*
X116537500Y-76541855D01*
X115237500Y-76541855D01*
X115021008Y-76582591D01*
X114822174Y-76710537D01*
X114688783Y-76905761D01*
X114641855Y-77137500D01*
X107323145Y-77137500D01*
X107323145Y-75517500D01*
X107282409Y-75301008D01*
X107154463Y-75102174D01*
X106959239Y-74968783D01*
X106727500Y-74921855D01*
X104727500Y-74921855D01*
X104511008Y-74962591D01*
X104312174Y-75090537D01*
X104178783Y-75285761D01*
X104131855Y-75517500D01*
X102692200Y-75517500D01*
X102692200Y-75215564D01*
X105290757Y-72617007D01*
X110603935Y-72617007D01*
X110924213Y-73392139D01*
X111516741Y-73985703D01*
X112291313Y-74307333D01*
X113130007Y-74308065D01*
X113905139Y-73987787D01*
X114498703Y-73395259D01*
X114820333Y-72620687D01*
X114820336Y-72617007D01*
X116953935Y-72617007D01*
X117274213Y-73392139D01*
X117866741Y-73985703D01*
X118641313Y-74307333D01*
X119480007Y-74308065D01*
X120255139Y-73987787D01*
X120848703Y-73395259D01*
X121170333Y-72620687D01*
X121170336Y-72617007D01*
X123303935Y-72617007D01*
X123624213Y-73392139D01*
X124216741Y-73985703D01*
X124991313Y-74307333D01*
X125830007Y-74308065D01*
X126605139Y-73987787D01*
X126857077Y-73736288D01*
X130477159Y-73736288D01*
X130647227Y-74037033D01*
X131435316Y-74323956D01*
X132273215Y-74287449D01*
X132877773Y-74037033D01*
X133047841Y-73736288D01*
X131762500Y-72450947D01*
X130477159Y-73736288D01*
X126857077Y-73736288D01*
X127198703Y-73395259D01*
X127520333Y-72620687D01*
X127520986Y-71872316D01*
X129638044Y-71872316D01*
X129674551Y-72710215D01*
X129924967Y-73314773D01*
X130225712Y-73484841D01*
X131511053Y-72199500D01*
X132013947Y-72199500D01*
X133299288Y-73484841D01*
X133600033Y-73314773D01*
X133886956Y-72526684D01*
X133850449Y-71688785D01*
X133600033Y-71084227D01*
X133299288Y-70914159D01*
X132013947Y-72199500D01*
X131511053Y-72199500D01*
X130225712Y-70914159D01*
X129924967Y-71084227D01*
X129638044Y-71872316D01*
X127520986Y-71872316D01*
X127521065Y-71781993D01*
X127200787Y-71006861D01*
X126857239Y-70662712D01*
X130477159Y-70662712D01*
X131762500Y-71948053D01*
X133047841Y-70662712D01*
X132877773Y-70361967D01*
X132089684Y-70075044D01*
X131251785Y-70111551D01*
X130647227Y-70361967D01*
X130477159Y-70662712D01*
X126857239Y-70662712D01*
X126608259Y-70413297D01*
X125833687Y-70091667D01*
X124994993Y-70090935D01*
X124219861Y-70411213D01*
X123626297Y-71003741D01*
X123304667Y-71778313D01*
X123303935Y-72617007D01*
X121170336Y-72617007D01*
X121171065Y-71781993D01*
X120850787Y-71006861D01*
X120258259Y-70413297D01*
X119483687Y-70091667D01*
X118644993Y-70090935D01*
X117869861Y-70411213D01*
X117276297Y-71003741D01*
X116954667Y-71778313D01*
X116953935Y-72617007D01*
X114820336Y-72617007D01*
X114821065Y-71781993D01*
X114500787Y-71006861D01*
X113908259Y-70413297D01*
X113133687Y-70091667D01*
X112294993Y-70090935D01*
X111519861Y-70411213D01*
X110926297Y-71003741D01*
X110604667Y-71778313D01*
X110603935Y-72617007D01*
X105290757Y-72617007D01*
X108743564Y-69164200D01*
X133064436Y-69164200D01*
X139115800Y-75215564D01*
G36*
X184835800Y-58451564D02*
X184835800Y-74136436D01*
X176244436Y-82727800D01*
X143795564Y-82727800D01*
X140438998Y-79371234D01*
X143513026Y-79371234D01*
X143753698Y-79953705D01*
X144198951Y-80399736D01*
X144781001Y-80641424D01*
X145411234Y-80641974D01*
X145993705Y-80401302D01*
X146439736Y-79956049D01*
X146681424Y-79373999D01*
X146681974Y-78743766D01*
X146441302Y-78161295D01*
X145996049Y-77715264D01*
X145413999Y-77473576D01*
X144783766Y-77473026D01*
X144201295Y-77713698D01*
X143755264Y-78158951D01*
X143513576Y-78741001D01*
X143513026Y-79371234D01*
X140438998Y-79371234D01*
X140284200Y-79216436D01*
X140284200Y-75561234D01*
X143513026Y-75561234D01*
X143753698Y-76143705D01*
X144198951Y-76589736D01*
X144781001Y-76831424D01*
X145411234Y-76831974D01*
X145993705Y-76591302D01*
X146439736Y-76146049D01*
X146681424Y-75563999D01*
X146681602Y-75359107D01*
X157611646Y-75359107D01*
X157745974Y-75684205D01*
X157994487Y-75933152D01*
X158319350Y-76068047D01*
X158671107Y-76068354D01*
X158996205Y-75934026D01*
X159245152Y-75685513D01*
X159380047Y-75360650D01*
X159380354Y-75008893D01*
X159246026Y-74683795D01*
X158997513Y-74434848D01*
X158672650Y-74299953D01*
X158320893Y-74299646D01*
X157995795Y-74433974D01*
X157746848Y-74682487D01*
X157611953Y-75007350D01*
X157611646Y-75359107D01*
X146681602Y-75359107D01*
X146681974Y-74933766D01*
X146441302Y-74351295D01*
X145996049Y-73905264D01*
X145827092Y-73835107D01*
X173867646Y-73835107D01*
X174001974Y-74160205D01*
X174250487Y-74409152D01*
X174575350Y-74544047D01*
X174927107Y-74544354D01*
X175252205Y-74410026D01*
X175501152Y-74161513D01*
X175636047Y-73836650D01*
X175636354Y-73484893D01*
X175502026Y-73159795D01*
X175253513Y-72910848D01*
X174928650Y-72775953D01*
X174576893Y-72775646D01*
X174251795Y-72909974D01*
X174002848Y-73158487D01*
X173867953Y-73483350D01*
X173867646Y-73835107D01*
X145827092Y-73835107D01*
X145413999Y-73663576D01*
X144783766Y-73663026D01*
X144201295Y-73903698D01*
X143755264Y-74348951D01*
X143513576Y-74931001D01*
X143513026Y-75561234D01*
X140284200Y-75561234D01*
X140284200Y-74676000D01*
X140278197Y-74646354D01*
X140261882Y-74622118D01*
X137401114Y-71761350D01*
X143513300Y-71761350D01*
X143513300Y-72553705D01*
X143602239Y-72768423D01*
X143766578Y-72932761D01*
X143981296Y-73021700D01*
X144773650Y-73021700D01*
X144919700Y-72875650D01*
X144919700Y-71615300D01*
X145275300Y-71615300D01*
X145275300Y-72875650D01*
X145421350Y-73021700D01*
X146213704Y-73021700D01*
X146428422Y-72932761D01*
X146592761Y-72768423D01*
X146681700Y-72553705D01*
X146681700Y-71761350D01*
X146535650Y-71615300D01*
X145275300Y-71615300D01*
X144919700Y-71615300D01*
X143659350Y-71615300D01*
X143513300Y-71761350D01*
X137401114Y-71761350D01*
X135961059Y-70321295D01*
X143513300Y-70321295D01*
X143513300Y-71113650D01*
X143659350Y-71259700D01*
X144919700Y-71259700D01*
X144919700Y-69999350D01*
X145275300Y-69999350D01*
X145275300Y-71259700D01*
X146535650Y-71259700D01*
X146681700Y-71113650D01*
X146681700Y-70787107D01*
X157611646Y-70787107D01*
X157745974Y-71112205D01*
X157994487Y-71361152D01*
X158319350Y-71496047D01*
X158671107Y-71496354D01*
X158996205Y-71362026D01*
X159245152Y-71113513D01*
X159380047Y-70788650D01*
X159380354Y-70436893D01*
X159246026Y-70111795D01*
X158997513Y-69862848D01*
X158672650Y-69727953D01*
X158320893Y-69727646D01*
X157995795Y-69861974D01*
X157746848Y-70110487D01*
X157611953Y-70435350D01*
X157611646Y-70787107D01*
X146681700Y-70787107D01*
X146681700Y-70321295D01*
X146592761Y-70106577D01*
X146428422Y-69942239D01*
X146213704Y-69853300D01*
X145421350Y-69853300D01*
X145275300Y-69999350D01*
X144919700Y-69999350D01*
X144773650Y-69853300D01*
X143981296Y-69853300D01*
X143766578Y-69942239D01*
X143602239Y-70106577D01*
X143513300Y-70321295D01*
X135961059Y-70321295D01*
X134394871Y-68755107D01*
X157611646Y-68755107D01*
X157745974Y-69080205D01*
X157994487Y-69329152D01*
X158319350Y-69464047D01*
X158671107Y-69464354D01*
X158996205Y-69330026D01*
X159245152Y-69081513D01*
X159380047Y-68756650D01*
X159380264Y-68506920D01*
X160278087Y-68506920D01*
X160465586Y-68960705D01*
X160812469Y-69308193D01*
X161265925Y-69496485D01*
X161756920Y-69496913D01*
X162210705Y-69309414D01*
X162340387Y-69179958D01*
X162435537Y-69327826D01*
X162630761Y-69461217D01*
X162862500Y-69508145D01*
X164162500Y-69508145D01*
X164378992Y-69467409D01*
X164577826Y-69339463D01*
X164711217Y-69144239D01*
X164758145Y-68912500D01*
X164758145Y-68506920D01*
X172343087Y-68506920D01*
X172530586Y-68960705D01*
X172877469Y-69308193D01*
X173330925Y-69496485D01*
X173821920Y-69496913D01*
X174275705Y-69309414D01*
X174405786Y-69179559D01*
X174432239Y-69243422D01*
X174596577Y-69407761D01*
X174811295Y-69496700D01*
X175253650Y-69496700D01*
X175399700Y-69350650D01*
X175399700Y-68440300D01*
X175755300Y-68440300D01*
X175755300Y-69350650D01*
X175901350Y-69496700D01*
X176343705Y-69496700D01*
X176558423Y-69407761D01*
X176722761Y-69243422D01*
X176811700Y-69028704D01*
X176811700Y-68586350D01*
X176665650Y-68440300D01*
X175755300Y-68440300D01*
X175399700Y-68440300D01*
X175379700Y-68440300D01*
X175379700Y-68084700D01*
X175399700Y-68084700D01*
X175399700Y-67174350D01*
X175755300Y-67174350D01*
X175755300Y-68084700D01*
X176665650Y-68084700D01*
X176811700Y-67938650D01*
X176811700Y-67496296D01*
X176722761Y-67281578D01*
X176558423Y-67117239D01*
X176343705Y-67028300D01*
X175901350Y-67028300D01*
X175755300Y-67174350D01*
X175399700Y-67174350D01*
X175253650Y-67028300D01*
X174811295Y-67028300D01*
X174596577Y-67117239D01*
X174432239Y-67281578D01*
X174405832Y-67345331D01*
X174277531Y-67216807D01*
X173824075Y-67028515D01*
X173333080Y-67028087D01*
X172879295Y-67215586D01*
X172531807Y-67562469D01*
X172343515Y-68015925D01*
X172343087Y-68506920D01*
X164758145Y-68506920D01*
X164758145Y-67612500D01*
X164717409Y-67396008D01*
X164589463Y-67197174D01*
X164394239Y-67063783D01*
X164162500Y-67016855D01*
X162862500Y-67016855D01*
X162646008Y-67057591D01*
X162447174Y-67185537D01*
X162339145Y-67343642D01*
X162212531Y-67216807D01*
X161759075Y-67028515D01*
X161268080Y-67028087D01*
X160814295Y-67215586D01*
X160466807Y-67562469D01*
X160278515Y-68015925D01*
X160278087Y-68506920D01*
X159380264Y-68506920D01*
X159380354Y-68404893D01*
X159246026Y-68079795D01*
X158997513Y-67830848D01*
X158672650Y-67695953D01*
X158320893Y-67695646D01*
X157995795Y-67829974D01*
X157746848Y-68078487D01*
X157611953Y-68403350D01*
X157611646Y-68755107D01*
X134394871Y-68755107D01*
X133657882Y-68018118D01*
X133632673Y-68001401D01*
X133604000Y-67995800D01*
X105695564Y-67995800D01*
X104422871Y-66723107D01*
X157611646Y-66723107D01*
X157745974Y-67048205D01*
X157994487Y-67297152D01*
X158319350Y-67432047D01*
X158671107Y-67432354D01*
X158996205Y-67298026D01*
X159245152Y-67049513D01*
X159380047Y-66724650D01*
X159380354Y-66372893D01*
X159246026Y-66047795D01*
X158997513Y-65798848D01*
X158672650Y-65663953D01*
X158320893Y-65663646D01*
X157995795Y-65797974D01*
X157746848Y-66046487D01*
X157611953Y-66371350D01*
X157611646Y-66723107D01*
X104422871Y-66723107D01*
X102692200Y-64992436D01*
X102692200Y-64719101D01*
X180581066Y-64719101D01*
X180785581Y-65214065D01*
X181163943Y-65593088D01*
X181658549Y-65798466D01*
X182194101Y-65798934D01*
X182689065Y-65594419D01*
X183068088Y-65216057D01*
X183273466Y-64721451D01*
X183273934Y-64185899D01*
X183069419Y-63690935D01*
X182691057Y-63311912D01*
X182196451Y-63106534D01*
X181660899Y-63106066D01*
X181165935Y-63310581D01*
X180786912Y-63688943D01*
X180581534Y-64183549D01*
X180581066Y-64719101D01*
X102692200Y-64719101D01*
X102692200Y-61601350D01*
X103508300Y-61601350D01*
X103508300Y-62393704D01*
X103597239Y-62608422D01*
X103761577Y-62772761D01*
X103976295Y-62861700D01*
X104768650Y-62861700D01*
X104914700Y-62715650D01*
X104914700Y-61455300D01*
X105270300Y-61455300D01*
X105270300Y-62715650D01*
X105416350Y-62861700D01*
X106208705Y-62861700D01*
X106423423Y-62772761D01*
X106587761Y-62608422D01*
X106676700Y-62393704D01*
X106676700Y-61601350D01*
X106666584Y-61591234D01*
X107318026Y-61591234D01*
X107558698Y-62173705D01*
X108003951Y-62619736D01*
X108586001Y-62861424D01*
X109216234Y-62861974D01*
X109798705Y-62621302D01*
X110244736Y-62176049D01*
X110486424Y-61593999D01*
X110486426Y-61591234D01*
X111128026Y-61591234D01*
X111368698Y-62173705D01*
X111813951Y-62619736D01*
X112396001Y-62861424D01*
X113026234Y-62861974D01*
X113608705Y-62621302D01*
X114054736Y-62176049D01*
X114293371Y-61601350D01*
X118748300Y-61601350D01*
X118748300Y-62393704D01*
X118837239Y-62608422D01*
X119001577Y-62772761D01*
X119216295Y-62861700D01*
X120008650Y-62861700D01*
X120154700Y-62715650D01*
X120154700Y-61455300D01*
X120510300Y-61455300D01*
X120510300Y-62715650D01*
X120656350Y-62861700D01*
X121448705Y-62861700D01*
X121663423Y-62772761D01*
X121827761Y-62608422D01*
X121916700Y-62393704D01*
X121916700Y-61601350D01*
X121906584Y-61591234D01*
X122558026Y-61591234D01*
X122798698Y-62173705D01*
X123243951Y-62619736D01*
X123826001Y-62861424D01*
X124456234Y-62861974D01*
X125038705Y-62621302D01*
X125484736Y-62176049D01*
X125726424Y-61593999D01*
X125726426Y-61591234D01*
X126368026Y-61591234D01*
X126608698Y-62173705D01*
X127053951Y-62619736D01*
X127636001Y-62861424D01*
X128266234Y-62861974D01*
X128848705Y-62621302D01*
X129294736Y-62176049D01*
X129533371Y-61601350D01*
X133988300Y-61601350D01*
X133988300Y-62393704D01*
X134077239Y-62608422D01*
X134241577Y-62772761D01*
X134456295Y-62861700D01*
X135248650Y-62861700D01*
X135394700Y-62715650D01*
X135394700Y-61455300D01*
X135750300Y-61455300D01*
X135750300Y-62715650D01*
X135896350Y-62861700D01*
X136688705Y-62861700D01*
X136903423Y-62772761D01*
X137067761Y-62608422D01*
X137156700Y-62393704D01*
X137156700Y-61601350D01*
X137146584Y-61591234D01*
X137798026Y-61591234D01*
X138038698Y-62173705D01*
X138483951Y-62619736D01*
X139066001Y-62861424D01*
X139696234Y-62861974D01*
X140278705Y-62621302D01*
X140724736Y-62176049D01*
X140966424Y-61593999D01*
X140966426Y-61591234D01*
X141608026Y-61591234D01*
X141848698Y-62173705D01*
X142293951Y-62619736D01*
X142876001Y-62861424D01*
X143506234Y-62861974D01*
X144088705Y-62621302D01*
X144534736Y-62176049D01*
X144773371Y-61601350D01*
X149228300Y-61601350D01*
X149228300Y-62393704D01*
X149317239Y-62608422D01*
X149481577Y-62772761D01*
X149696295Y-62861700D01*
X150488650Y-62861700D01*
X150634700Y-62715650D01*
X150634700Y-61455300D01*
X150990300Y-61455300D01*
X150990300Y-62715650D01*
X151136350Y-62861700D01*
X151928705Y-62861700D01*
X152143423Y-62772761D01*
X152307761Y-62608422D01*
X152396700Y-62393704D01*
X152396700Y-61601350D01*
X152386584Y-61591234D01*
X153038026Y-61591234D01*
X153278698Y-62173705D01*
X153723951Y-62619736D01*
X154306001Y-62861424D01*
X154936234Y-62861974D01*
X155518705Y-62621302D01*
X155964736Y-62176049D01*
X156206424Y-61593999D01*
X156206426Y-61591234D01*
X156848026Y-61591234D01*
X157088698Y-62173705D01*
X157533951Y-62619736D01*
X158116001Y-62861424D01*
X158746234Y-62861974D01*
X159328705Y-62621302D01*
X159774736Y-62176049D01*
X160013371Y-61601350D01*
X164468300Y-61601350D01*
X164468300Y-62393704D01*
X164557239Y-62608422D01*
X164721577Y-62772761D01*
X164936295Y-62861700D01*
X165728650Y-62861700D01*
X165874700Y-62715650D01*
X165874700Y-61455300D01*
X166230300Y-61455300D01*
X166230300Y-62715650D01*
X166376350Y-62861700D01*
X167168705Y-62861700D01*
X167383423Y-62772761D01*
X167547761Y-62608422D01*
X167636700Y-62393704D01*
X167636700Y-61601350D01*
X167626584Y-61591234D01*
X168278026Y-61591234D01*
X168518698Y-62173705D01*
X168963951Y-62619736D01*
X169546001Y-62861424D01*
X170176234Y-62861974D01*
X170758705Y-62621302D01*
X171204736Y-62176049D01*
X171446424Y-61593999D01*
X171446426Y-61591234D01*
X172088026Y-61591234D01*
X172328698Y-62173705D01*
X172773951Y-62619736D01*
X173356001Y-62861424D01*
X173986234Y-62861974D01*
X174568705Y-62621302D01*
X175011678Y-62179101D01*
X178041066Y-62179101D01*
X178245581Y-62674065D01*
X178623943Y-63053088D01*
X179118549Y-63258466D01*
X179654101Y-63258934D01*
X180149065Y-63054419D01*
X180528088Y-62676057D01*
X180733466Y-62181451D01*
X180733934Y-61645899D01*
X180529419Y-61150935D01*
X180151057Y-60771912D01*
X179656451Y-60566534D01*
X179120899Y-60566066D01*
X178625935Y-60770581D01*
X178246912Y-61148943D01*
X178041534Y-61643549D01*
X178041066Y-62179101D01*
X175011678Y-62179101D01*
X175014736Y-62176049D01*
X175256424Y-61593999D01*
X175256974Y-60963766D01*
X175016302Y-60381295D01*
X174571049Y-59935264D01*
X173988999Y-59693576D01*
X173358766Y-59693026D01*
X172776295Y-59933698D01*
X172330264Y-60378951D01*
X172088576Y-60961001D01*
X172088026Y-61591234D01*
X171446426Y-61591234D01*
X171446974Y-60963766D01*
X171206302Y-60381295D01*
X170761049Y-59935264D01*
X170178999Y-59693576D01*
X169548766Y-59693026D01*
X168966295Y-59933698D01*
X168520264Y-60378951D01*
X168278576Y-60961001D01*
X168278026Y-61591234D01*
X167626584Y-61591234D01*
X167490650Y-61455300D01*
X166230300Y-61455300D01*
X165874700Y-61455300D01*
X164614350Y-61455300D01*
X164468300Y-61601350D01*
X160013371Y-61601350D01*
X160016424Y-61593999D01*
X160016974Y-60963766D01*
X159776302Y-60381295D01*
X159556687Y-60161296D01*
X164468300Y-60161296D01*
X164468300Y-60953650D01*
X164614350Y-61099700D01*
X165874700Y-61099700D01*
X165874700Y-59839350D01*
X166230300Y-59839350D01*
X166230300Y-61099700D01*
X167490650Y-61099700D01*
X167636700Y-60953650D01*
X167636700Y-60161296D01*
X167547761Y-59946578D01*
X167383423Y-59782239D01*
X167168705Y-59693300D01*
X166376350Y-59693300D01*
X166230300Y-59839350D01*
X165874700Y-59839350D01*
X165728650Y-59693300D01*
X164936295Y-59693300D01*
X164721577Y-59782239D01*
X164557239Y-59946578D01*
X164468300Y-60161296D01*
X159556687Y-60161296D01*
X159331049Y-59935264D01*
X158748999Y-59693576D01*
X158118766Y-59693026D01*
X157536295Y-59933698D01*
X157090264Y-60378951D01*
X156848576Y-60961001D01*
X156848026Y-61591234D01*
X156206426Y-61591234D01*
X156206974Y-60963766D01*
X155966302Y-60381295D01*
X155521049Y-59935264D01*
X154938999Y-59693576D01*
X154308766Y-59693026D01*
X153726295Y-59933698D01*
X153280264Y-60378951D01*
X153038576Y-60961001D01*
X153038026Y-61591234D01*
X152386584Y-61591234D01*
X152250650Y-61455300D01*
X150990300Y-61455300D01*
X150634700Y-61455300D01*
X149374350Y-61455300D01*
X149228300Y-61601350D01*
X144773371Y-61601350D01*
X144776424Y-61593999D01*
X144776974Y-60963766D01*
X144536302Y-60381295D01*
X144316687Y-60161296D01*
X149228300Y-60161296D01*
X149228300Y-60953650D01*
X149374350Y-61099700D01*
X150634700Y-61099700D01*
X150634700Y-59839350D01*
X150990300Y-59839350D01*
X150990300Y-61099700D01*
X152250650Y-61099700D01*
X152396700Y-60953650D01*
X152396700Y-60161296D01*
X152307761Y-59946578D01*
X152143423Y-59782239D01*
X151928705Y-59693300D01*
X151136350Y-59693300D01*
X150990300Y-59839350D01*
X150634700Y-59839350D01*
X150488650Y-59693300D01*
X149696295Y-59693300D01*
X149481577Y-59782239D01*
X149317239Y-59946578D01*
X149228300Y-60161296D01*
X144316687Y-60161296D01*
X144091049Y-59935264D01*
X143508999Y-59693576D01*
X142878766Y-59693026D01*
X142296295Y-59933698D01*
X141850264Y-60378951D01*
X141608576Y-60961001D01*
X141608026Y-61591234D01*
X140966426Y-61591234D01*
X140966974Y-60963766D01*
X140726302Y-60381295D01*
X140281049Y-59935264D01*
X139698999Y-59693576D01*
X139068766Y-59693026D01*
X138486295Y-59933698D01*
X138040264Y-60378951D01*
X137798576Y-60961001D01*
X137798026Y-61591234D01*
X137146584Y-61591234D01*
X137010650Y-61455300D01*
X135750300Y-61455300D01*
X135394700Y-61455300D01*
X134134350Y-61455300D01*
X133988300Y-61601350D01*
X129533371Y-61601350D01*
X129536424Y-61593999D01*
X129536974Y-60963766D01*
X129296302Y-60381295D01*
X129076687Y-60161296D01*
X133988300Y-60161296D01*
X133988300Y-60953650D01*
X134134350Y-61099700D01*
X135394700Y-61099700D01*
X135394700Y-59839350D01*
X135750300Y-59839350D01*
X135750300Y-61099700D01*
X137010650Y-61099700D01*
X137156700Y-60953650D01*
X137156700Y-60161296D01*
X137067761Y-59946578D01*
X136903423Y-59782239D01*
X136688705Y-59693300D01*
X135896350Y-59693300D01*
X135750300Y-59839350D01*
X135394700Y-59839350D01*
X135248650Y-59693300D01*
X134456295Y-59693300D01*
X134241577Y-59782239D01*
X134077239Y-59946578D01*
X133988300Y-60161296D01*
X129076687Y-60161296D01*
X128851049Y-59935264D01*
X128268999Y-59693576D01*
X127638766Y-59693026D01*
X127056295Y-59933698D01*
X126610264Y-60378951D01*
X126368576Y-60961001D01*
X126368026Y-61591234D01*
X125726426Y-61591234D01*
X125726974Y-60963766D01*
X125486302Y-60381295D01*
X125041049Y-59935264D01*
X124458999Y-59693576D01*
X123828766Y-59693026D01*
X123246295Y-59933698D01*
X122800264Y-60378951D01*
X122558576Y-60961001D01*
X122558026Y-61591234D01*
X121906584Y-61591234D01*
X121770650Y-61455300D01*
X120510300Y-61455300D01*
X120154700Y-61455300D01*
X118894350Y-61455300D01*
X118748300Y-61601350D01*
X114293371Y-61601350D01*
X114296424Y-61593999D01*
X114296974Y-60963766D01*
X114056302Y-60381295D01*
X113836687Y-60161296D01*
X118748300Y-60161296D01*
X118748300Y-60953650D01*
X118894350Y-61099700D01*
X120154700Y-61099700D01*
X120154700Y-59839350D01*
X120510300Y-59839350D01*
X120510300Y-61099700D01*
X121770650Y-61099700D01*
X121916700Y-60953650D01*
X121916700Y-60161296D01*
X121827761Y-59946578D01*
X121663423Y-59782239D01*
X121448705Y-59693300D01*
X120656350Y-59693300D01*
X120510300Y-59839350D01*
X120154700Y-59839350D01*
X120008650Y-59693300D01*
X119216295Y-59693300D01*
X119001577Y-59782239D01*
X118837239Y-59946578D01*
X118748300Y-60161296D01*
X113836687Y-60161296D01*
X113611049Y-59935264D01*
X113028999Y-59693576D01*
X112398766Y-59693026D01*
X111816295Y-59933698D01*
X111370264Y-60378951D01*
X111128576Y-60961001D01*
X111128026Y-61591234D01*
X110486426Y-61591234D01*
X110486974Y-60963766D01*
X110246302Y-60381295D01*
X109801049Y-59935264D01*
X109218999Y-59693576D01*
X108588766Y-59693026D01*
X108006295Y-59933698D01*
X107560264Y-60378951D01*
X107318576Y-60961001D01*
X107318026Y-61591234D01*
X106666584Y-61591234D01*
X106530650Y-61455300D01*
X105270300Y-61455300D01*
X104914700Y-61455300D01*
X103654350Y-61455300D01*
X103508300Y-61601350D01*
X102692200Y-61601350D01*
X102692200Y-60161296D01*
X103508300Y-60161296D01*
X103508300Y-60953650D01*
X103654350Y-61099700D01*
X104914700Y-61099700D01*
X104914700Y-59839350D01*
X105270300Y-59839350D01*
X105270300Y-61099700D01*
X106530650Y-61099700D01*
X106676700Y-60953650D01*
X106676700Y-60161296D01*
X106587761Y-59946578D01*
X106423423Y-59782239D01*
X106208705Y-59693300D01*
X105416350Y-59693300D01*
X105270300Y-59839350D01*
X104914700Y-59839350D01*
X104768650Y-59693300D01*
X103976295Y-59693300D01*
X103761577Y-59782239D01*
X103597239Y-59946578D01*
X103508300Y-60161296D01*
X102692200Y-60161296D01*
X102692200Y-59639101D01*
X180581066Y-59639101D01*
X180785581Y-60134065D01*
X181163943Y-60513088D01*
X181658549Y-60718466D01*
X182194101Y-60718934D01*
X182689065Y-60514419D01*
X183068088Y-60136057D01*
X183273466Y-59641451D01*
X183273934Y-59105899D01*
X183069419Y-58610935D01*
X182691057Y-58231912D01*
X182196451Y-58026534D01*
X181660899Y-58026066D01*
X181165935Y-58230581D01*
X180786912Y-58608943D01*
X180581534Y-59103549D01*
X180581066Y-59639101D01*
X102692200Y-59639101D01*
X102692200Y-59467564D01*
X105645564Y-56514200D01*
X182898436Y-56514200D01*
X184835800Y-58451564D01*
X184835800Y-58451564D01*
G37*
X184835800Y-58451564D02*
X184835800Y-74136436D01*
X176244436Y-82727800D01*
X143795564Y-82727800D01*
X140438998Y-79371234D01*
X143513026Y-79371234D01*
X143753698Y-79953705D01*
X144198951Y-80399736D01*
X144781001Y-80641424D01*
X145411234Y-80641974D01*
X145993705Y-80401302D01*
X146439736Y-79956049D01*
X146681424Y-79373999D01*
X146681974Y-78743766D01*
X146441302Y-78161295D01*
X145996049Y-77715264D01*
X145413999Y-77473576D01*
X144783766Y-77473026D01*
X144201295Y-77713698D01*
X143755264Y-78158951D01*
X143513576Y-78741001D01*
X143513026Y-79371234D01*
X140438998Y-79371234D01*
X140284200Y-79216436D01*
X140284200Y-75561234D01*
X143513026Y-75561234D01*
X143753698Y-76143705D01*
X144198951Y-76589736D01*
X144781001Y-76831424D01*
X145411234Y-76831974D01*
X145993705Y-76591302D01*
X146439736Y-76146049D01*
X146681424Y-75563999D01*
X146681602Y-75359107D01*
X157611646Y-75359107D01*
X157745974Y-75684205D01*
X157994487Y-75933152D01*
X158319350Y-76068047D01*
X158671107Y-76068354D01*
X158996205Y-75934026D01*
X159245152Y-75685513D01*
X159380047Y-75360650D01*
X159380354Y-75008893D01*
X159246026Y-74683795D01*
X158997513Y-74434848D01*
X158672650Y-74299953D01*
X158320893Y-74299646D01*
X157995795Y-74433974D01*
X157746848Y-74682487D01*
X157611953Y-75007350D01*
X157611646Y-75359107D01*
X146681602Y-75359107D01*
X146681974Y-74933766D01*
X146441302Y-74351295D01*
X145996049Y-73905264D01*
X145827092Y-73835107D01*
X173867646Y-73835107D01*
X174001974Y-74160205D01*
X174250487Y-74409152D01*
X174575350Y-74544047D01*
X174927107Y-74544354D01*
X175252205Y-74410026D01*
X175501152Y-74161513D01*
X175636047Y-73836650D01*
X175636354Y-73484893D01*
X175502026Y-73159795D01*
X175253513Y-72910848D01*
X174928650Y-72775953D01*
X174576893Y-72775646D01*
X174251795Y-72909974D01*
X174002848Y-73158487D01*
X173867953Y-73483350D01*
X173867646Y-73835107D01*
X145827092Y-73835107D01*
X145413999Y-73663576D01*
X144783766Y-73663026D01*
X144201295Y-73903698D01*
X143755264Y-74348951D01*
X143513576Y-74931001D01*
X143513026Y-75561234D01*
X140284200Y-75561234D01*
X140284200Y-74676000D01*
X140278197Y-74646354D01*
X140261882Y-74622118D01*
X137401114Y-71761350D01*
X143513300Y-71761350D01*
X143513300Y-72553705D01*
X143602239Y-72768423D01*
X143766578Y-72932761D01*
X143981296Y-73021700D01*
X144773650Y-73021700D01*
X144919700Y-72875650D01*
X144919700Y-71615300D01*
X145275300Y-71615300D01*
X145275300Y-72875650D01*
X145421350Y-73021700D01*
X146213704Y-73021700D01*
X146428422Y-72932761D01*
X146592761Y-72768423D01*
X146681700Y-72553705D01*
X146681700Y-71761350D01*
X146535650Y-71615300D01*
X145275300Y-71615300D01*
X144919700Y-71615300D01*
X143659350Y-71615300D01*
X143513300Y-71761350D01*
X137401114Y-71761350D01*
X135961059Y-70321295D01*
X143513300Y-70321295D01*
X143513300Y-71113650D01*
X143659350Y-71259700D01*
X144919700Y-71259700D01*
X144919700Y-69999350D01*
X145275300Y-69999350D01*
X145275300Y-71259700D01*
X146535650Y-71259700D01*
X146681700Y-71113650D01*
X146681700Y-70787107D01*
X157611646Y-70787107D01*
X157745974Y-71112205D01*
X157994487Y-71361152D01*
X158319350Y-71496047D01*
X158671107Y-71496354D01*
X158996205Y-71362026D01*
X159245152Y-71113513D01*
X159380047Y-70788650D01*
X159380354Y-70436893D01*
X159246026Y-70111795D01*
X158997513Y-69862848D01*
X158672650Y-69727953D01*
X158320893Y-69727646D01*
X157995795Y-69861974D01*
X157746848Y-70110487D01*
X157611953Y-70435350D01*
X157611646Y-70787107D01*
X146681700Y-70787107D01*
X146681700Y-70321295D01*
X146592761Y-70106577D01*
X146428422Y-69942239D01*
X146213704Y-69853300D01*
X145421350Y-69853300D01*
X145275300Y-69999350D01*
X144919700Y-69999350D01*
X144773650Y-69853300D01*
X143981296Y-69853300D01*
X143766578Y-69942239D01*
X143602239Y-70106577D01*
X143513300Y-70321295D01*
X135961059Y-70321295D01*
X134394871Y-68755107D01*
X157611646Y-68755107D01*
X157745974Y-69080205D01*
X157994487Y-69329152D01*
X158319350Y-69464047D01*
X158671107Y-69464354D01*
X158996205Y-69330026D01*
X159245152Y-69081513D01*
X159380047Y-68756650D01*
X159380264Y-68506920D01*
X160278087Y-68506920D01*
X160465586Y-68960705D01*
X160812469Y-69308193D01*
X161265925Y-69496485D01*
X161756920Y-69496913D01*
X162210705Y-69309414D01*
X162340387Y-69179958D01*
X162435537Y-69327826D01*
X162630761Y-69461217D01*
X162862500Y-69508145D01*
X164162500Y-69508145D01*
X164378992Y-69467409D01*
X164577826Y-69339463D01*
X164711217Y-69144239D01*
X164758145Y-68912500D01*
X164758145Y-68506920D01*
X172343087Y-68506920D01*
X172530586Y-68960705D01*
X172877469Y-69308193D01*
X173330925Y-69496485D01*
X173821920Y-69496913D01*
X174275705Y-69309414D01*
X174405786Y-69179559D01*
X174432239Y-69243422D01*
X174596577Y-69407761D01*
X174811295Y-69496700D01*
X175253650Y-69496700D01*
X175399700Y-69350650D01*
X175399700Y-68440300D01*
X175755300Y-68440300D01*
X175755300Y-69350650D01*
X175901350Y-69496700D01*
X176343705Y-69496700D01*
X176558423Y-69407761D01*
X176722761Y-69243422D01*
X176811700Y-69028704D01*
X176811700Y-68586350D01*
X176665650Y-68440300D01*
X175755300Y-68440300D01*
X175399700Y-68440300D01*
X175379700Y-68440300D01*
X175379700Y-68084700D01*
X175399700Y-68084700D01*
X175399700Y-67174350D01*
X175755300Y-67174350D01*
X175755300Y-68084700D01*
X176665650Y-68084700D01*
X176811700Y-67938650D01*
X176811700Y-67496296D01*
X176722761Y-67281578D01*
X176558423Y-67117239D01*
X176343705Y-67028300D01*
X175901350Y-67028300D01*
X175755300Y-67174350D01*
X175399700Y-67174350D01*
X175253650Y-67028300D01*
X174811295Y-67028300D01*
X174596577Y-67117239D01*
X174432239Y-67281578D01*
X174405832Y-67345331D01*
X174277531Y-67216807D01*
X173824075Y-67028515D01*
X173333080Y-67028087D01*
X172879295Y-67215586D01*
X172531807Y-67562469D01*
X172343515Y-68015925D01*
X172343087Y-68506920D01*
X164758145Y-68506920D01*
X164758145Y-67612500D01*
X164717409Y-67396008D01*
X164589463Y-67197174D01*
X164394239Y-67063783D01*
X164162500Y-67016855D01*
X162862500Y-67016855D01*
X162646008Y-67057591D01*
X162447174Y-67185537D01*
X162339145Y-67343642D01*
X162212531Y-67216807D01*
X161759075Y-67028515D01*
X161268080Y-67028087D01*
X160814295Y-67215586D01*
X160466807Y-67562469D01*
X160278515Y-68015925D01*
X160278087Y-68506920D01*
X159380264Y-68506920D01*
X159380354Y-68404893D01*
X159246026Y-68079795D01*
X158997513Y-67830848D01*
X158672650Y-67695953D01*
X158320893Y-67695646D01*
X157995795Y-67829974D01*
X157746848Y-68078487D01*
X157611953Y-68403350D01*
X157611646Y-68755107D01*
X134394871Y-68755107D01*
X133657882Y-68018118D01*
X133632673Y-68001401D01*
X133604000Y-67995800D01*
X105695564Y-67995800D01*
X104422871Y-66723107D01*
X157611646Y-66723107D01*
X157745974Y-67048205D01*
X157994487Y-67297152D01*
X158319350Y-67432047D01*
X158671107Y-67432354D01*
X158996205Y-67298026D01*
X159245152Y-67049513D01*
X159380047Y-66724650D01*
X159380354Y-66372893D01*
X159246026Y-66047795D01*
X158997513Y-65798848D01*
X158672650Y-65663953D01*
X158320893Y-65663646D01*
X157995795Y-65797974D01*
X157746848Y-66046487D01*
X157611953Y-66371350D01*
X157611646Y-66723107D01*
X104422871Y-66723107D01*
X102692200Y-64992436D01*
X102692200Y-64719101D01*
X180581066Y-64719101D01*
X180785581Y-65214065D01*
X181163943Y-65593088D01*
X181658549Y-65798466D01*
X182194101Y-65798934D01*
X182689065Y-65594419D01*
X183068088Y-65216057D01*
X183273466Y-64721451D01*
X183273934Y-64185899D01*
X183069419Y-63690935D01*
X182691057Y-63311912D01*
X182196451Y-63106534D01*
X181660899Y-63106066D01*
X181165935Y-63310581D01*
X180786912Y-63688943D01*
X180581534Y-64183549D01*
X180581066Y-64719101D01*
X102692200Y-64719101D01*
X102692200Y-61601350D01*
X103508300Y-61601350D01*
X103508300Y-62393704D01*
X103597239Y-62608422D01*
X103761577Y-62772761D01*
X103976295Y-62861700D01*
X104768650Y-62861700D01*
X104914700Y-62715650D01*
X104914700Y-61455300D01*
X105270300Y-61455300D01*
X105270300Y-62715650D01*
X105416350Y-62861700D01*
X106208705Y-62861700D01*
X106423423Y-62772761D01*
X106587761Y-62608422D01*
X106676700Y-62393704D01*
X106676700Y-61601350D01*
X106666584Y-61591234D01*
X107318026Y-61591234D01*
X107558698Y-62173705D01*
X108003951Y-62619736D01*
X108586001Y-62861424D01*
X109216234Y-62861974D01*
X109798705Y-62621302D01*
X110244736Y-62176049D01*
X110486424Y-61593999D01*
X110486426Y-61591234D01*
X111128026Y-61591234D01*
X111368698Y-62173705D01*
X111813951Y-62619736D01*
X112396001Y-62861424D01*
X113026234Y-62861974D01*
X113608705Y-62621302D01*
X114054736Y-62176049D01*
X114293371Y-61601350D01*
X118748300Y-61601350D01*
X118748300Y-62393704D01*
X118837239Y-62608422D01*
X119001577Y-62772761D01*
X119216295Y-62861700D01*
X120008650Y-62861700D01*
X120154700Y-62715650D01*
X120154700Y-61455300D01*
X120510300Y-61455300D01*
X120510300Y-62715650D01*
X120656350Y-62861700D01*
X121448705Y-62861700D01*
X121663423Y-62772761D01*
X121827761Y-62608422D01*
X121916700Y-62393704D01*
X121916700Y-61601350D01*
X121906584Y-61591234D01*
X122558026Y-61591234D01*
X122798698Y-62173705D01*
X123243951Y-62619736D01*
X123826001Y-62861424D01*
X124456234Y-62861974D01*
X125038705Y-62621302D01*
X125484736Y-62176049D01*
X125726424Y-61593999D01*
X125726426Y-61591234D01*
X126368026Y-61591234D01*
X126608698Y-62173705D01*
X127053951Y-62619736D01*
X127636001Y-62861424D01*
X128266234Y-62861974D01*
X128848705Y-62621302D01*
X129294736Y-62176049D01*
X129533371Y-61601350D01*
X133988300Y-61601350D01*
X133988300Y-62393704D01*
X134077239Y-62608422D01*
X134241577Y-62772761D01*
X134456295Y-62861700D01*
X135248650Y-62861700D01*
X135394700Y-62715650D01*
X135394700Y-61455300D01*
X135750300Y-61455300D01*
X135750300Y-62715650D01*
X135896350Y-62861700D01*
X136688705Y-62861700D01*
X136903423Y-62772761D01*
X137067761Y-62608422D01*
X137156700Y-62393704D01*
X137156700Y-61601350D01*
X137146584Y-61591234D01*
X137798026Y-61591234D01*
X138038698Y-62173705D01*
X138483951Y-62619736D01*
X139066001Y-62861424D01*
X139696234Y-62861974D01*
X140278705Y-62621302D01*
X140724736Y-62176049D01*
X140966424Y-61593999D01*
X140966426Y-61591234D01*
X141608026Y-61591234D01*
X141848698Y-62173705D01*
X142293951Y-62619736D01*
X142876001Y-62861424D01*
X143506234Y-62861974D01*
X144088705Y-62621302D01*
X144534736Y-62176049D01*
X144773371Y-61601350D01*
X149228300Y-61601350D01*
X149228300Y-62393704D01*
X149317239Y-62608422D01*
X149481577Y-62772761D01*
X149696295Y-62861700D01*
X150488650Y-62861700D01*
X150634700Y-62715650D01*
X150634700Y-61455300D01*
X150990300Y-61455300D01*
X150990300Y-62715650D01*
X151136350Y-62861700D01*
X151928705Y-62861700D01*
X152143423Y-62772761D01*
X152307761Y-62608422D01*
X152396700Y-62393704D01*
X152396700Y-61601350D01*
X152386584Y-61591234D01*
X153038026Y-61591234D01*
X153278698Y-62173705D01*
X153723951Y-62619736D01*
X154306001Y-62861424D01*
X154936234Y-62861974D01*
X155518705Y-62621302D01*
X155964736Y-62176049D01*
X156206424Y-61593999D01*
X156206426Y-61591234D01*
X156848026Y-61591234D01*
X157088698Y-62173705D01*
X157533951Y-62619736D01*
X158116001Y-62861424D01*
X158746234Y-62861974D01*
X159328705Y-62621302D01*
X159774736Y-62176049D01*
X160013371Y-61601350D01*
X164468300Y-61601350D01*
X164468300Y-62393704D01*
X164557239Y-62608422D01*
X164721577Y-62772761D01*
X164936295Y-62861700D01*
X165728650Y-62861700D01*
X165874700Y-62715650D01*
X165874700Y-61455300D01*
X166230300Y-61455300D01*
X166230300Y-62715650D01*
X166376350Y-62861700D01*
X167168705Y-62861700D01*
X167383423Y-62772761D01*
X167547761Y-62608422D01*
X167636700Y-62393704D01*
X167636700Y-61601350D01*
X167626584Y-61591234D01*
X168278026Y-61591234D01*
X168518698Y-62173705D01*
X168963951Y-62619736D01*
X169546001Y-62861424D01*
X170176234Y-62861974D01*
X170758705Y-62621302D01*
X171204736Y-62176049D01*
X171446424Y-61593999D01*
X171446426Y-61591234D01*
X172088026Y-61591234D01*
X172328698Y-62173705D01*
X172773951Y-62619736D01*
X173356001Y-62861424D01*
X173986234Y-62861974D01*
X174568705Y-62621302D01*
X175011678Y-62179101D01*
X178041066Y-62179101D01*
X178245581Y-62674065D01*
X178623943Y-63053088D01*
X179118549Y-63258466D01*
X179654101Y-63258934D01*
X180149065Y-63054419D01*
X180528088Y-62676057D01*
X180733466Y-62181451D01*
X180733934Y-61645899D01*
X180529419Y-61150935D01*
X180151057Y-60771912D01*
X179656451Y-60566534D01*
X179120899Y-60566066D01*
X178625935Y-60770581D01*
X178246912Y-61148943D01*
X178041534Y-61643549D01*
X178041066Y-62179101D01*
X175011678Y-62179101D01*
X175014736Y-62176049D01*
X175256424Y-61593999D01*
X175256974Y-60963766D01*
X175016302Y-60381295D01*
X174571049Y-59935264D01*
X173988999Y-59693576D01*
X173358766Y-59693026D01*
X172776295Y-59933698D01*
X172330264Y-60378951D01*
X172088576Y-60961001D01*
X172088026Y-61591234D01*
X171446426Y-61591234D01*
X171446974Y-60963766D01*
X171206302Y-60381295D01*
X170761049Y-59935264D01*
X170178999Y-59693576D01*
X169548766Y-59693026D01*
X168966295Y-59933698D01*
X168520264Y-60378951D01*
X168278576Y-60961001D01*
X168278026Y-61591234D01*
X167626584Y-61591234D01*
X167490650Y-61455300D01*
X166230300Y-61455300D01*
X165874700Y-61455300D01*
X164614350Y-61455300D01*
X164468300Y-61601350D01*
X160013371Y-61601350D01*
X160016424Y-61593999D01*
X160016974Y-60963766D01*
X159776302Y-60381295D01*
X159556687Y-60161296D01*
X164468300Y-60161296D01*
X164468300Y-60953650D01*
X164614350Y-61099700D01*
X165874700Y-61099700D01*
X165874700Y-59839350D01*
X166230300Y-59839350D01*
X166230300Y-61099700D01*
X167490650Y-61099700D01*
X167636700Y-60953650D01*
X167636700Y-60161296D01*
X167547761Y-59946578D01*
X167383423Y-59782239D01*
X167168705Y-59693300D01*
X166376350Y-59693300D01*
X166230300Y-59839350D01*
X165874700Y-59839350D01*
X165728650Y-59693300D01*
X164936295Y-59693300D01*
X164721577Y-59782239D01*
X164557239Y-59946578D01*
X164468300Y-60161296D01*
X159556687Y-60161296D01*
X159331049Y-59935264D01*
X158748999Y-59693576D01*
X158118766Y-59693026D01*
X157536295Y-59933698D01*
X157090264Y-60378951D01*
X156848576Y-60961001D01*
X156848026Y-61591234D01*
X156206426Y-61591234D01*
X156206974Y-60963766D01*
X155966302Y-60381295D01*
X155521049Y-59935264D01*
X154938999Y-59693576D01*
X154308766Y-59693026D01*
X153726295Y-59933698D01*
X153280264Y-60378951D01*
X153038576Y-60961001D01*
X153038026Y-61591234D01*
X152386584Y-61591234D01*
X152250650Y-61455300D01*
X150990300Y-61455300D01*
X150634700Y-61455300D01*
X149374350Y-61455300D01*
X149228300Y-61601350D01*
X144773371Y-61601350D01*
X144776424Y-61593999D01*
X144776974Y-60963766D01*
X144536302Y-60381295D01*
X144316687Y-60161296D01*
X149228300Y-60161296D01*
X149228300Y-60953650D01*
X149374350Y-61099700D01*
X150634700Y-61099700D01*
X150634700Y-59839350D01*
X150990300Y-59839350D01*
X150990300Y-61099700D01*
X152250650Y-61099700D01*
X152396700Y-60953650D01*
X152396700Y-60161296D01*
X152307761Y-59946578D01*
X152143423Y-59782239D01*
X151928705Y-59693300D01*
X151136350Y-59693300D01*
X150990300Y-59839350D01*
X150634700Y-59839350D01*
X150488650Y-59693300D01*
X149696295Y-59693300D01*
X149481577Y-59782239D01*
X149317239Y-59946578D01*
X149228300Y-60161296D01*
X144316687Y-60161296D01*
X144091049Y-59935264D01*
X143508999Y-59693576D01*
X142878766Y-59693026D01*
X142296295Y-59933698D01*
X141850264Y-60378951D01*
X141608576Y-60961001D01*
X141608026Y-61591234D01*
X140966426Y-61591234D01*
X140966974Y-60963766D01*
X140726302Y-60381295D01*
X140281049Y-59935264D01*
X139698999Y-59693576D01*
X139068766Y-59693026D01*
X138486295Y-59933698D01*
X138040264Y-60378951D01*
X137798576Y-60961001D01*
X137798026Y-61591234D01*
X137146584Y-61591234D01*
X137010650Y-61455300D01*
X135750300Y-61455300D01*
X135394700Y-61455300D01*
X134134350Y-61455300D01*
X133988300Y-61601350D01*
X129533371Y-61601350D01*
X129536424Y-61593999D01*
X129536974Y-60963766D01*
X129296302Y-60381295D01*
X129076687Y-60161296D01*
X133988300Y-60161296D01*
X133988300Y-60953650D01*
X134134350Y-61099700D01*
X135394700Y-61099700D01*
X135394700Y-59839350D01*
X135750300Y-59839350D01*
X135750300Y-61099700D01*
X137010650Y-61099700D01*
X137156700Y-60953650D01*
X137156700Y-60161296D01*
X137067761Y-59946578D01*
X136903423Y-59782239D01*
X136688705Y-59693300D01*
X135896350Y-59693300D01*
X135750300Y-59839350D01*
X135394700Y-59839350D01*
X135248650Y-59693300D01*
X134456295Y-59693300D01*
X134241577Y-59782239D01*
X134077239Y-59946578D01*
X133988300Y-60161296D01*
X129076687Y-60161296D01*
X128851049Y-59935264D01*
X128268999Y-59693576D01*
X127638766Y-59693026D01*
X127056295Y-59933698D01*
X126610264Y-60378951D01*
X126368576Y-60961001D01*
X126368026Y-61591234D01*
X125726426Y-61591234D01*
X125726974Y-60963766D01*
X125486302Y-60381295D01*
X125041049Y-59935264D01*
X124458999Y-59693576D01*
X123828766Y-59693026D01*
X123246295Y-59933698D01*
X122800264Y-60378951D01*
X122558576Y-60961001D01*
X122558026Y-61591234D01*
X121906584Y-61591234D01*
X121770650Y-61455300D01*
X120510300Y-61455300D01*
X120154700Y-61455300D01*
X118894350Y-61455300D01*
X118748300Y-61601350D01*
X114293371Y-61601350D01*
X114296424Y-61593999D01*
X114296974Y-60963766D01*
X114056302Y-60381295D01*
X113836687Y-60161296D01*
X118748300Y-60161296D01*
X118748300Y-60953650D01*
X118894350Y-61099700D01*
X120154700Y-61099700D01*
X120154700Y-59839350D01*
X120510300Y-59839350D01*
X120510300Y-61099700D01*
X121770650Y-61099700D01*
X121916700Y-60953650D01*
X121916700Y-60161296D01*
X121827761Y-59946578D01*
X121663423Y-59782239D01*
X121448705Y-59693300D01*
X120656350Y-59693300D01*
X120510300Y-59839350D01*
X120154700Y-59839350D01*
X120008650Y-59693300D01*
X119216295Y-59693300D01*
X119001577Y-59782239D01*
X118837239Y-59946578D01*
X118748300Y-60161296D01*
X113836687Y-60161296D01*
X113611049Y-59935264D01*
X113028999Y-59693576D01*
X112398766Y-59693026D01*
X111816295Y-59933698D01*
X111370264Y-60378951D01*
X111128576Y-60961001D01*
X111128026Y-61591234D01*
X110486426Y-61591234D01*
X110486974Y-60963766D01*
X110246302Y-60381295D01*
X109801049Y-59935264D01*
X109218999Y-59693576D01*
X108588766Y-59693026D01*
X108006295Y-59933698D01*
X107560264Y-60378951D01*
X107318576Y-60961001D01*
X107318026Y-61591234D01*
X106666584Y-61591234D01*
X106530650Y-61455300D01*
X105270300Y-61455300D01*
X104914700Y-61455300D01*
X103654350Y-61455300D01*
X103508300Y-61601350D01*
X102692200Y-61601350D01*
X102692200Y-60161296D01*
X103508300Y-60161296D01*
X103508300Y-60953650D01*
X103654350Y-61099700D01*
X104914700Y-61099700D01*
X104914700Y-59839350D01*
X105270300Y-59839350D01*
X105270300Y-61099700D01*
X106530650Y-61099700D01*
X106676700Y-60953650D01*
X106676700Y-60161296D01*
X106587761Y-59946578D01*
X106423423Y-59782239D01*
X106208705Y-59693300D01*
X105416350Y-59693300D01*
X105270300Y-59839350D01*
X104914700Y-59839350D01*
X104768650Y-59693300D01*
X103976295Y-59693300D01*
X103761577Y-59782239D01*
X103597239Y-59946578D01*
X103508300Y-60161296D01*
X102692200Y-60161296D01*
X102692200Y-59639101D01*
X180581066Y-59639101D01*
X180785581Y-60134065D01*
X181163943Y-60513088D01*
X181658549Y-60718466D01*
X182194101Y-60718934D01*
X182689065Y-60514419D01*
X183068088Y-60136057D01*
X183273466Y-59641451D01*
X183273934Y-59105899D01*
X183069419Y-58610935D01*
X182691057Y-58231912D01*
X182196451Y-58026534D01*
X181660899Y-58026066D01*
X181165935Y-58230581D01*
X180786912Y-58608943D01*
X180581534Y-59103549D01*
X180581066Y-59639101D01*
X102692200Y-59639101D01*
X102692200Y-59467564D01*
X105645564Y-56514200D01*
X182898436Y-56514200D01*
X184835800Y-58451564D01*
G36*
X184835800Y-90963564D02*
X184835800Y-121380436D01*
X178784436Y-127431800D01*
X104171564Y-127431800D01*
X102692200Y-125952436D01*
X102692200Y-123417007D01*
X111238935Y-123417007D01*
X111559213Y-124192139D01*
X112151741Y-124785703D01*
X112926313Y-125107333D01*
X113765007Y-125108065D01*
X114540139Y-124787787D01*
X115133703Y-124195259D01*
X115455333Y-123420687D01*
X115455336Y-123417007D01*
X120128935Y-123417007D01*
X120449213Y-124192139D01*
X121041741Y-124785703D01*
X121816313Y-125107333D01*
X122655007Y-125108065D01*
X123430139Y-124787787D01*
X124023703Y-124195259D01*
X124345333Y-123420687D01*
X124345336Y-123417007D01*
X129018935Y-123417007D01*
X129339213Y-124192139D01*
X129931741Y-124785703D01*
X130706313Y-125107333D01*
X131545007Y-125108065D01*
X132320139Y-124787787D01*
X132913703Y-124195259D01*
X133235333Y-123420687D01*
X133235537Y-123186234D01*
X138433026Y-123186234D01*
X138673698Y-123768705D01*
X139118951Y-124214736D01*
X139701001Y-124456424D01*
X140331234Y-124456974D01*
X140913705Y-124216302D01*
X141100873Y-124029460D01*
X142921988Y-124029460D01*
X143027701Y-124275821D01*
X143625609Y-124475069D01*
X144254253Y-124430341D01*
X144627299Y-124275821D01*
X144733012Y-124029460D01*
X143827500Y-123123947D01*
X142921988Y-124029460D01*
X141100873Y-124029460D01*
X141359736Y-123771049D01*
X141601424Y-123188999D01*
X141601876Y-122670609D01*
X142224931Y-122670609D01*
X142269659Y-123299253D01*
X142424179Y-123672299D01*
X142670540Y-123778012D01*
X143576053Y-122872500D01*
X144078947Y-122872500D01*
X144984460Y-123778012D01*
X145230821Y-123672299D01*
X145430069Y-123074391D01*
X145385341Y-122445747D01*
X145230821Y-122072701D01*
X144984460Y-121966988D01*
X144078947Y-122872500D01*
X143576053Y-122872500D01*
X142670540Y-121966988D01*
X142424179Y-122072701D01*
X142224931Y-122670609D01*
X141601876Y-122670609D01*
X141601974Y-122558766D01*
X141361302Y-121976295D01*
X141101002Y-121715540D01*
X142921988Y-121715540D01*
X143827500Y-122621053D01*
X144576052Y-121872500D01*
X146041855Y-121872500D01*
X146041855Y-123872500D01*
X146082591Y-124088992D01*
X146210537Y-124287826D01*
X146405761Y-124421217D01*
X146637500Y-124468145D01*
X148637500Y-124468145D01*
X148853992Y-124427409D01*
X149052826Y-124299463D01*
X149186217Y-124104239D01*
X149233145Y-123872500D01*
X149233145Y-121872500D01*
X149192409Y-121656008D01*
X149064463Y-121457174D01*
X148869239Y-121323783D01*
X148637500Y-121276855D01*
X146637500Y-121276855D01*
X146421008Y-121317591D01*
X146222174Y-121445537D01*
X146088783Y-121640761D01*
X146041855Y-121872500D01*
X144576052Y-121872500D01*
X144733012Y-121715540D01*
X144627299Y-121469179D01*
X144029391Y-121269931D01*
X143400747Y-121314659D01*
X143027701Y-121469179D01*
X142921988Y-121715540D01*
X141101002Y-121715540D01*
X140916049Y-121530264D01*
X140333999Y-121288576D01*
X139703766Y-121288026D01*
X139121295Y-121528698D01*
X138675264Y-121973951D01*
X138433576Y-122556001D01*
X138433026Y-123186234D01*
X133235537Y-123186234D01*
X133236065Y-122581993D01*
X132915787Y-121806861D01*
X132323259Y-121213297D01*
X131548687Y-120891667D01*
X130709993Y-120890935D01*
X129934861Y-121211213D01*
X129341297Y-121803741D01*
X129019667Y-122578313D01*
X129018935Y-123417007D01*
X124345336Y-123417007D01*
X124346065Y-122581993D01*
X124025787Y-121806861D01*
X123433259Y-121213297D01*
X122658687Y-120891667D01*
X121819993Y-120890935D01*
X121044861Y-121211213D01*
X120451297Y-121803741D01*
X120129667Y-122578313D01*
X120128935Y-123417007D01*
X115455336Y-123417007D01*
X115456065Y-122581993D01*
X115135787Y-121806861D01*
X114543259Y-121213297D01*
X113768687Y-120891667D01*
X112929993Y-120890935D01*
X112154861Y-121211213D01*
X111561297Y-121803741D01*
X111239667Y-122578313D01*
X111238935Y-123417007D01*
X102692200Y-123417007D01*
X102692200Y-121951564D01*
X105187564Y-119456200D01*
X125476000Y-119456200D01*
X125505646Y-119450197D01*
X125529882Y-119433882D01*
X130361264Y-114602500D01*
X138771855Y-114602500D01*
X138771855Y-115902500D01*
X138812591Y-116118992D01*
X138940537Y-116317826D01*
X139135761Y-116451217D01*
X139367500Y-116498145D01*
X140667500Y-116498145D01*
X140883992Y-116457409D01*
X141082826Y-116329463D01*
X141190855Y-116171358D01*
X141317469Y-116298193D01*
X141770925Y-116486485D01*
X142261920Y-116486913D01*
X142715705Y-116299414D01*
X143063193Y-115952531D01*
X143251485Y-115499075D01*
X143251913Y-115008080D01*
X143110570Y-114666000D01*
X145058355Y-114666000D01*
X145058355Y-115966000D01*
X145099091Y-116182492D01*
X145227037Y-116381326D01*
X145422261Y-116514717D01*
X145654000Y-116561645D01*
X146954000Y-116561645D01*
X147170492Y-116520909D01*
X147369326Y-116392963D01*
X147477355Y-116234858D01*
X147603969Y-116361693D01*
X148057425Y-116549985D01*
X148548420Y-116550413D01*
X149002205Y-116362914D01*
X149349693Y-116016031D01*
X149537985Y-115562575D01*
X149538413Y-115071580D01*
X149350914Y-114617795D01*
X149004031Y-114270307D01*
X148550575Y-114082015D01*
X148059580Y-114081587D01*
X147605795Y-114269086D01*
X147476113Y-114398542D01*
X147380963Y-114250674D01*
X147185739Y-114117283D01*
X146954000Y-114070355D01*
X145654000Y-114070355D01*
X145437508Y-114111091D01*
X145238674Y-114239037D01*
X145105283Y-114434261D01*
X145058355Y-114666000D01*
X143110570Y-114666000D01*
X143064414Y-114554295D01*
X142717531Y-114206807D01*
X142264075Y-114018515D01*
X141773080Y-114018087D01*
X141319295Y-114205586D01*
X141189613Y-114335042D01*
X141094463Y-114187174D01*
X140899239Y-114053783D01*
X140667500Y-114006855D01*
X139367500Y-114006855D01*
X139151008Y-114047591D01*
X138952174Y-114175537D01*
X138818783Y-114370761D01*
X138771855Y-114602500D01*
X130361264Y-114602500D01*
X138042342Y-106921422D01*
X141503144Y-106921422D01*
X142078041Y-108312777D01*
X143141624Y-109378218D01*
X144531974Y-109955542D01*
X146037422Y-109956856D01*
X147428777Y-109381959D01*
X148494218Y-108318376D01*
X149071542Y-106928026D01*
X149072856Y-105422578D01*
X148497959Y-104031223D01*
X147434376Y-102965782D01*
X146044026Y-102388458D01*
X144538578Y-102387144D01*
X143147223Y-102962041D01*
X142081782Y-104025624D01*
X141504458Y-105415974D01*
X141503144Y-106921422D01*
X138042342Y-106921422D01*
X141785882Y-103177882D01*
X141802599Y-103152673D01*
X141808200Y-103124000D01*
X141808200Y-98583564D01*
X155479564Y-84912200D01*
X178784436Y-84912200D01*
X184835800Y-90963564D01*
X184835800Y-90963564D01*
G37*
X184835800Y-90963564D02*
X184835800Y-121380436D01*
X178784436Y-127431800D01*
X104171564Y-127431800D01*
X102692200Y-125952436D01*
X102692200Y-123417007D01*
X111238935Y-123417007D01*
X111559213Y-124192139D01*
X112151741Y-124785703D01*
X112926313Y-125107333D01*
X113765007Y-125108065D01*
X114540139Y-124787787D01*
X115133703Y-124195259D01*
X115455333Y-123420687D01*
X115455336Y-123417007D01*
X120128935Y-123417007D01*
X120449213Y-124192139D01*
X121041741Y-124785703D01*
X121816313Y-125107333D01*
X122655007Y-125108065D01*
X123430139Y-124787787D01*
X124023703Y-124195259D01*
X124345333Y-123420687D01*
X124345336Y-123417007D01*
X129018935Y-123417007D01*
X129339213Y-124192139D01*
X129931741Y-124785703D01*
X130706313Y-125107333D01*
X131545007Y-125108065D01*
X132320139Y-124787787D01*
X132913703Y-124195259D01*
X133235333Y-123420687D01*
X133235537Y-123186234D01*
X138433026Y-123186234D01*
X138673698Y-123768705D01*
X139118951Y-124214736D01*
X139701001Y-124456424D01*
X140331234Y-124456974D01*
X140913705Y-124216302D01*
X141100873Y-124029460D01*
X142921988Y-124029460D01*
X143027701Y-124275821D01*
X143625609Y-124475069D01*
X144254253Y-124430341D01*
X144627299Y-124275821D01*
X144733012Y-124029460D01*
X143827500Y-123123947D01*
X142921988Y-124029460D01*
X141100873Y-124029460D01*
X141359736Y-123771049D01*
X141601424Y-123188999D01*
X141601876Y-122670609D01*
X142224931Y-122670609D01*
X142269659Y-123299253D01*
X142424179Y-123672299D01*
X142670540Y-123778012D01*
X143576053Y-122872500D01*
X144078947Y-122872500D01*
X144984460Y-123778012D01*
X145230821Y-123672299D01*
X145430069Y-123074391D01*
X145385341Y-122445747D01*
X145230821Y-122072701D01*
X144984460Y-121966988D01*
X144078947Y-122872500D01*
X143576053Y-122872500D01*
X142670540Y-121966988D01*
X142424179Y-122072701D01*
X142224931Y-122670609D01*
X141601876Y-122670609D01*
X141601974Y-122558766D01*
X141361302Y-121976295D01*
X141101002Y-121715540D01*
X142921988Y-121715540D01*
X143827500Y-122621053D01*
X144576052Y-121872500D01*
X146041855Y-121872500D01*
X146041855Y-123872500D01*
X146082591Y-124088992D01*
X146210537Y-124287826D01*
X146405761Y-124421217D01*
X146637500Y-124468145D01*
X148637500Y-124468145D01*
X148853992Y-124427409D01*
X149052826Y-124299463D01*
X149186217Y-124104239D01*
X149233145Y-123872500D01*
X149233145Y-121872500D01*
X149192409Y-121656008D01*
X149064463Y-121457174D01*
X148869239Y-121323783D01*
X148637500Y-121276855D01*
X146637500Y-121276855D01*
X146421008Y-121317591D01*
X146222174Y-121445537D01*
X146088783Y-121640761D01*
X146041855Y-121872500D01*
X144576052Y-121872500D01*
X144733012Y-121715540D01*
X144627299Y-121469179D01*
X144029391Y-121269931D01*
X143400747Y-121314659D01*
X143027701Y-121469179D01*
X142921988Y-121715540D01*
X141101002Y-121715540D01*
X140916049Y-121530264D01*
X140333999Y-121288576D01*
X139703766Y-121288026D01*
X139121295Y-121528698D01*
X138675264Y-121973951D01*
X138433576Y-122556001D01*
X138433026Y-123186234D01*
X133235537Y-123186234D01*
X133236065Y-122581993D01*
X132915787Y-121806861D01*
X132323259Y-121213297D01*
X131548687Y-120891667D01*
X130709993Y-120890935D01*
X129934861Y-121211213D01*
X129341297Y-121803741D01*
X129019667Y-122578313D01*
X129018935Y-123417007D01*
X124345336Y-123417007D01*
X124346065Y-122581993D01*
X124025787Y-121806861D01*
X123433259Y-121213297D01*
X122658687Y-120891667D01*
X121819993Y-120890935D01*
X121044861Y-121211213D01*
X120451297Y-121803741D01*
X120129667Y-122578313D01*
X120128935Y-123417007D01*
X115455336Y-123417007D01*
X115456065Y-122581993D01*
X115135787Y-121806861D01*
X114543259Y-121213297D01*
X113768687Y-120891667D01*
X112929993Y-120890935D01*
X112154861Y-121211213D01*
X111561297Y-121803741D01*
X111239667Y-122578313D01*
X111238935Y-123417007D01*
X102692200Y-123417007D01*
X102692200Y-121951564D01*
X105187564Y-119456200D01*
X125476000Y-119456200D01*
X125505646Y-119450197D01*
X125529882Y-119433882D01*
X130361264Y-114602500D01*
X138771855Y-114602500D01*
X138771855Y-115902500D01*
X138812591Y-116118992D01*
X138940537Y-116317826D01*
X139135761Y-116451217D01*
X139367500Y-116498145D01*
X140667500Y-116498145D01*
X140883992Y-116457409D01*
X141082826Y-116329463D01*
X141190855Y-116171358D01*
X141317469Y-116298193D01*
X141770925Y-116486485D01*
X142261920Y-116486913D01*
X142715705Y-116299414D01*
X143063193Y-115952531D01*
X143251485Y-115499075D01*
X143251913Y-115008080D01*
X143110570Y-114666000D01*
X145058355Y-114666000D01*
X145058355Y-115966000D01*
X145099091Y-116182492D01*
X145227037Y-116381326D01*
X145422261Y-116514717D01*
X145654000Y-116561645D01*
X146954000Y-116561645D01*
X147170492Y-116520909D01*
X147369326Y-116392963D01*
X147477355Y-116234858D01*
X147603969Y-116361693D01*
X148057425Y-116549985D01*
X148548420Y-116550413D01*
X149002205Y-116362914D01*
X149349693Y-116016031D01*
X149537985Y-115562575D01*
X149538413Y-115071580D01*
X149350914Y-114617795D01*
X149004031Y-114270307D01*
X148550575Y-114082015D01*
X148059580Y-114081587D01*
X147605795Y-114269086D01*
X147476113Y-114398542D01*
X147380963Y-114250674D01*
X147185739Y-114117283D01*
X146954000Y-114070355D01*
X145654000Y-114070355D01*
X145437508Y-114111091D01*
X145238674Y-114239037D01*
X145105283Y-114434261D01*
X145058355Y-114666000D01*
X143110570Y-114666000D01*
X143064414Y-114554295D01*
X142717531Y-114206807D01*
X142264075Y-114018515D01*
X141773080Y-114018087D01*
X141319295Y-114205586D01*
X141189613Y-114335042D01*
X141094463Y-114187174D01*
X140899239Y-114053783D01*
X140667500Y-114006855D01*
X139367500Y-114006855D01*
X139151008Y-114047591D01*
X138952174Y-114175537D01*
X138818783Y-114370761D01*
X138771855Y-114602500D01*
X130361264Y-114602500D01*
X138042342Y-106921422D01*
X141503144Y-106921422D01*
X142078041Y-108312777D01*
X143141624Y-109378218D01*
X144531974Y-109955542D01*
X146037422Y-109956856D01*
X147428777Y-109381959D01*
X148494218Y-108318376D01*
X149071542Y-106928026D01*
X149072856Y-105422578D01*
X148497959Y-104031223D01*
X147434376Y-102965782D01*
X146044026Y-102388458D01*
X144538578Y-102387144D01*
X143147223Y-102962041D01*
X142081782Y-104025624D01*
X141504458Y-105415974D01*
X141503144Y-106921422D01*
X138042342Y-106921422D01*
X141785882Y-103177882D01*
X141802599Y-103152673D01*
X141808200Y-103124000D01*
X141808200Y-98583564D01*
X155479564Y-84912200D01*
X178784436Y-84912200D01*
X184835800Y-90963564D01*
G36*
X199567800Y-57943564D02*
X199567800Y-58146106D01*
X199484414Y-57944295D01*
X199137531Y-57596807D01*
X198684075Y-57408515D01*
X198193080Y-57408087D01*
X197739295Y-57595586D01*
X197391807Y-57942469D01*
X197203515Y-58395925D01*
X197203087Y-58886920D01*
X197390586Y-59340705D01*
X197520042Y-59470387D01*
X197372174Y-59565537D01*
X197238783Y-59760761D01*
X197191855Y-59992500D01*
X197191855Y-61292500D01*
X197232591Y-61508992D01*
X197360537Y-61707826D01*
X197555761Y-61841217D01*
X197787500Y-61888145D01*
X199087500Y-61888145D01*
X199303992Y-61847409D01*
X199502826Y-61719463D01*
X199567800Y-61624370D01*
X199567800Y-64496106D01*
X199484414Y-64294295D01*
X199137531Y-63946807D01*
X198684075Y-63758515D01*
X198193080Y-63758087D01*
X197739295Y-63945586D01*
X197391807Y-64292469D01*
X197203515Y-64745925D01*
X197203087Y-65236920D01*
X197390586Y-65690705D01*
X197520441Y-65820786D01*
X197456578Y-65847239D01*
X197292239Y-66011577D01*
X197203300Y-66226295D01*
X197203300Y-66668650D01*
X197349350Y-66814700D01*
X198259700Y-66814700D01*
X198259700Y-66794700D01*
X198615300Y-66794700D01*
X198615300Y-66814700D01*
X198635300Y-66814700D01*
X198635300Y-67170300D01*
X198615300Y-67170300D01*
X198615300Y-68080650D01*
X198761350Y-68226700D01*
X199203704Y-68226700D01*
X199418422Y-68137761D01*
X199567800Y-67988384D01*
X199567800Y-69056436D01*
X198066118Y-70558118D01*
X198049401Y-70583327D01*
X198043800Y-70612000D01*
X198043800Y-113760436D01*
X196034118Y-115770118D01*
X196017401Y-115795327D01*
X196011800Y-115824000D01*
X196011800Y-125952436D01*
X194532436Y-127431800D01*
X190531564Y-127431800D01*
X188836114Y-125736350D01*
X191773300Y-125736350D01*
X191773300Y-126528705D01*
X191862239Y-126743423D01*
X192026578Y-126907761D01*
X192241296Y-126996700D01*
X193033650Y-126996700D01*
X193179700Y-126850650D01*
X193179700Y-125590300D01*
X193535300Y-125590300D01*
X193535300Y-126850650D01*
X193681350Y-126996700D01*
X194473704Y-126996700D01*
X194688422Y-126907761D01*
X194852761Y-126743423D01*
X194941700Y-126528705D01*
X194941700Y-125736350D01*
X194795650Y-125590300D01*
X193535300Y-125590300D01*
X193179700Y-125590300D01*
X191919350Y-125590300D01*
X191773300Y-125736350D01*
X188836114Y-125736350D01*
X187396059Y-124296295D01*
X191773300Y-124296295D01*
X191773300Y-125088650D01*
X191919350Y-125234700D01*
X193179700Y-125234700D01*
X193179700Y-123974350D01*
X193535300Y-123974350D01*
X193535300Y-125234700D01*
X194795650Y-125234700D01*
X194941700Y-125088650D01*
X194941700Y-124296295D01*
X194852761Y-124081577D01*
X194688422Y-123917239D01*
X194473704Y-123828300D01*
X193681350Y-123828300D01*
X193535300Y-123974350D01*
X193179700Y-123974350D01*
X193033650Y-123828300D01*
X192241296Y-123828300D01*
X192026578Y-123917239D01*
X191862239Y-124081577D01*
X191773300Y-124296295D01*
X187396059Y-124296295D01*
X187020200Y-123920436D01*
X187020200Y-121916234D01*
X191773026Y-121916234D01*
X192013698Y-122498705D01*
X192458951Y-122944736D01*
X193041001Y-123186424D01*
X193671234Y-123186974D01*
X194253705Y-122946302D01*
X194699736Y-122501049D01*
X194941424Y-121918999D01*
X194941974Y-121288766D01*
X194701302Y-120706295D01*
X194256049Y-120260264D01*
X193673999Y-120018576D01*
X193043766Y-120018026D01*
X192461295Y-120258698D01*
X192015264Y-120703951D01*
X191773576Y-121286001D01*
X191773026Y-121916234D01*
X187020200Y-121916234D01*
X187020200Y-118106234D01*
X191773026Y-118106234D01*
X192013698Y-118688705D01*
X192458951Y-119134736D01*
X193041001Y-119376424D01*
X193671234Y-119376974D01*
X194253705Y-119136302D01*
X194699736Y-118691049D01*
X194941424Y-118108999D01*
X194941974Y-117478766D01*
X194701302Y-116896295D01*
X194256049Y-116450264D01*
X193673999Y-116208576D01*
X193043766Y-116208026D01*
X192461295Y-116448698D01*
X192015264Y-116893951D01*
X191773576Y-117476001D01*
X191773026Y-118106234D01*
X187020200Y-118106234D01*
X187020200Y-111131350D01*
X191773300Y-111131350D01*
X191773300Y-111923705D01*
X191862239Y-112138423D01*
X192026578Y-112302761D01*
X192241296Y-112391700D01*
X193033650Y-112391700D01*
X193179700Y-112245650D01*
X193179700Y-110985300D01*
X193535300Y-110985300D01*
X193535300Y-112245650D01*
X193681350Y-112391700D01*
X194473704Y-112391700D01*
X194688422Y-112302761D01*
X194852761Y-112138423D01*
X194941700Y-111923705D01*
X194941700Y-111131350D01*
X194795650Y-110985300D01*
X193535300Y-110985300D01*
X193179700Y-110985300D01*
X191919350Y-110985300D01*
X191773300Y-111131350D01*
X187020200Y-111131350D01*
X187020200Y-109691295D01*
X191773300Y-109691295D01*
X191773300Y-110483650D01*
X191919350Y-110629700D01*
X193179700Y-110629700D01*
X193179700Y-109369350D01*
X193535300Y-109369350D01*
X193535300Y-110629700D01*
X194795650Y-110629700D01*
X194941700Y-110483650D01*
X194941700Y-109691295D01*
X194852761Y-109476577D01*
X194688422Y-109312239D01*
X194473704Y-109223300D01*
X193681350Y-109223300D01*
X193535300Y-109369350D01*
X193179700Y-109369350D01*
X193033650Y-109223300D01*
X192241296Y-109223300D01*
X192026578Y-109312239D01*
X191862239Y-109476577D01*
X191773300Y-109691295D01*
X187020200Y-109691295D01*
X187020200Y-107311234D01*
X191773026Y-107311234D01*
X192013698Y-107893705D01*
X192458951Y-108339736D01*
X193041001Y-108581424D01*
X193671234Y-108581974D01*
X194253705Y-108341302D01*
X194699736Y-107896049D01*
X194941424Y-107313999D01*
X194941974Y-106683766D01*
X194701302Y-106101295D01*
X194256049Y-105655264D01*
X193673999Y-105413576D01*
X193043766Y-105413026D01*
X192461295Y-105653698D01*
X192015264Y-106098951D01*
X191773576Y-106681001D01*
X191773026Y-107311234D01*
X187020200Y-107311234D01*
X187020200Y-103501234D01*
X191773026Y-103501234D01*
X192013698Y-104083705D01*
X192458951Y-104529736D01*
X193041001Y-104771424D01*
X193671234Y-104771974D01*
X194253705Y-104531302D01*
X194699736Y-104086049D01*
X194941424Y-103503999D01*
X194941974Y-102873766D01*
X194701302Y-102291295D01*
X194256049Y-101845264D01*
X193673999Y-101603576D01*
X193043766Y-101603026D01*
X192461295Y-101843698D01*
X192015264Y-102288951D01*
X191773576Y-102871001D01*
X191773026Y-103501234D01*
X187020200Y-103501234D01*
X187020200Y-96526350D01*
X191773300Y-96526350D01*
X191773300Y-97318705D01*
X191862239Y-97533423D01*
X192026578Y-97697761D01*
X192241296Y-97786700D01*
X193033650Y-97786700D01*
X193179700Y-97640650D01*
X193179700Y-96380300D01*
X193535300Y-96380300D01*
X193535300Y-97640650D01*
X193681350Y-97786700D01*
X194473704Y-97786700D01*
X194688422Y-97697761D01*
X194852761Y-97533423D01*
X194941700Y-97318705D01*
X194941700Y-96526350D01*
X194795650Y-96380300D01*
X193535300Y-96380300D01*
X193179700Y-96380300D01*
X191919350Y-96380300D01*
X191773300Y-96526350D01*
X187020200Y-96526350D01*
X187020200Y-95086295D01*
X191773300Y-95086295D01*
X191773300Y-95878650D01*
X191919350Y-96024700D01*
X193179700Y-96024700D01*
X193179700Y-94764350D01*
X193535300Y-94764350D01*
X193535300Y-96024700D01*
X194795650Y-96024700D01*
X194941700Y-95878650D01*
X194941700Y-95086295D01*
X194852761Y-94871577D01*
X194688422Y-94707239D01*
X194473704Y-94618300D01*
X193681350Y-94618300D01*
X193535300Y-94764350D01*
X193179700Y-94764350D01*
X193033650Y-94618300D01*
X192241296Y-94618300D01*
X192026578Y-94707239D01*
X191862239Y-94871577D01*
X191773300Y-95086295D01*
X187020200Y-95086295D01*
X187020200Y-92706234D01*
X191773026Y-92706234D01*
X192013698Y-93288705D01*
X192458951Y-93734736D01*
X193041001Y-93976424D01*
X193671234Y-93976974D01*
X194253705Y-93736302D01*
X194699736Y-93291049D01*
X194941424Y-92708999D01*
X194941974Y-92078766D01*
X194701302Y-91496295D01*
X194256049Y-91050264D01*
X193673999Y-90808576D01*
X193043766Y-90808026D01*
X192461295Y-91048698D01*
X192015264Y-91493951D01*
X191773576Y-92076001D01*
X191773026Y-92706234D01*
X187020200Y-92706234D01*
X187020200Y-88896234D01*
X191773026Y-88896234D01*
X192013698Y-89478705D01*
X192458951Y-89924736D01*
X193041001Y-90166424D01*
X193671234Y-90166974D01*
X194253705Y-89926302D01*
X194699736Y-89481049D01*
X194941424Y-88898999D01*
X194941974Y-88268766D01*
X194701302Y-87686295D01*
X194256049Y-87240264D01*
X193673999Y-86998576D01*
X193043766Y-86998026D01*
X192461295Y-87238698D01*
X192015264Y-87683951D01*
X191773576Y-88266001D01*
X191773026Y-88896234D01*
X187020200Y-88896234D01*
X187020200Y-81921350D01*
X191773300Y-81921350D01*
X191773300Y-82713705D01*
X191862239Y-82928423D01*
X192026578Y-83092761D01*
X192241296Y-83181700D01*
X193033650Y-83181700D01*
X193179700Y-83035650D01*
X193179700Y-81775300D01*
X193535300Y-81775300D01*
X193535300Y-83035650D01*
X193681350Y-83181700D01*
X194473704Y-83181700D01*
X194688422Y-83092761D01*
X194852761Y-82928423D01*
X194941700Y-82713705D01*
X194941700Y-81921350D01*
X194795650Y-81775300D01*
X193535300Y-81775300D01*
X193179700Y-81775300D01*
X191919350Y-81775300D01*
X191773300Y-81921350D01*
X187020200Y-81921350D01*
X187020200Y-80481295D01*
X191773300Y-80481295D01*
X191773300Y-81273650D01*
X191919350Y-81419700D01*
X193179700Y-81419700D01*
X193179700Y-80159350D01*
X193535300Y-80159350D01*
X193535300Y-81419700D01*
X194795650Y-81419700D01*
X194941700Y-81273650D01*
X194941700Y-80481295D01*
X194852761Y-80266577D01*
X194688422Y-80102239D01*
X194473704Y-80013300D01*
X193681350Y-80013300D01*
X193535300Y-80159350D01*
X193179700Y-80159350D01*
X193033650Y-80013300D01*
X192241296Y-80013300D01*
X192026578Y-80102239D01*
X191862239Y-80266577D01*
X191773300Y-80481295D01*
X187020200Y-80481295D01*
X187020200Y-78101234D01*
X191773026Y-78101234D01*
X192013698Y-78683705D01*
X192458951Y-79129736D01*
X193041001Y-79371424D01*
X193671234Y-79371974D01*
X194253705Y-79131302D01*
X194699736Y-78686049D01*
X194941424Y-78103999D01*
X194941974Y-77473766D01*
X194701302Y-76891295D01*
X194256049Y-76445264D01*
X193673999Y-76203576D01*
X193043766Y-76203026D01*
X192461295Y-76443698D01*
X192015264Y-76888951D01*
X191773576Y-77471001D01*
X191773026Y-78101234D01*
X187020200Y-78101234D01*
X187020200Y-74291234D01*
X191773026Y-74291234D01*
X192013698Y-74873705D01*
X192458951Y-75319736D01*
X193041001Y-75561424D01*
X193671234Y-75561974D01*
X194253705Y-75321302D01*
X194699736Y-74876049D01*
X194941424Y-74293999D01*
X194941974Y-73663766D01*
X194701302Y-73081295D01*
X194256049Y-72635264D01*
X193673999Y-72393576D01*
X193043766Y-72393026D01*
X192461295Y-72633698D01*
X192015264Y-73078951D01*
X191773576Y-73661001D01*
X191773026Y-74291234D01*
X187020200Y-74291234D01*
X187020200Y-67316350D01*
X191773300Y-67316350D01*
X191773300Y-68108705D01*
X191862239Y-68323423D01*
X192026578Y-68487761D01*
X192241296Y-68576700D01*
X193033650Y-68576700D01*
X193179700Y-68430650D01*
X193179700Y-67170300D01*
X193535300Y-67170300D01*
X193535300Y-68430650D01*
X193681350Y-68576700D01*
X194473704Y-68576700D01*
X194688422Y-68487761D01*
X194852761Y-68323423D01*
X194941700Y-68108705D01*
X194941700Y-67316350D01*
X197203300Y-67316350D01*
X197203300Y-67758705D01*
X197292239Y-67973423D01*
X197456578Y-68137761D01*
X197671296Y-68226700D01*
X198113650Y-68226700D01*
X198259700Y-68080650D01*
X198259700Y-67170300D01*
X197349350Y-67170300D01*
X197203300Y-67316350D01*
X194941700Y-67316350D01*
X194795650Y-67170300D01*
X193535300Y-67170300D01*
X193179700Y-67170300D01*
X191919350Y-67170300D01*
X191773300Y-67316350D01*
X187020200Y-67316350D01*
X187020200Y-65876295D01*
X191773300Y-65876295D01*
X191773300Y-66668650D01*
X191919350Y-66814700D01*
X193179700Y-66814700D01*
X193179700Y-65554350D01*
X193535300Y-65554350D01*
X193535300Y-66814700D01*
X194795650Y-66814700D01*
X194941700Y-66668650D01*
X194941700Y-65876295D01*
X194852761Y-65661577D01*
X194688422Y-65497239D01*
X194473704Y-65408300D01*
X193681350Y-65408300D01*
X193535300Y-65554350D01*
X193179700Y-65554350D01*
X193033650Y-65408300D01*
X192241296Y-65408300D01*
X192026578Y-65497239D01*
X191862239Y-65661577D01*
X191773300Y-65876295D01*
X187020200Y-65876295D01*
X187020200Y-63496234D01*
X191773026Y-63496234D01*
X192013698Y-64078705D01*
X192458951Y-64524736D01*
X193041001Y-64766424D01*
X193671234Y-64766974D01*
X194253705Y-64526302D01*
X194699736Y-64081049D01*
X194941424Y-63498999D01*
X194941974Y-62868766D01*
X194701302Y-62286295D01*
X194256049Y-61840264D01*
X193673999Y-61598576D01*
X193043766Y-61598026D01*
X192461295Y-61838698D01*
X192015264Y-62283951D01*
X191773576Y-62866001D01*
X191773026Y-63496234D01*
X187020200Y-63496234D01*
X187020200Y-60483564D01*
X187817530Y-59686234D01*
X191773026Y-59686234D01*
X192013698Y-60268705D01*
X192458951Y-60714736D01*
X193041001Y-60956424D01*
X193671234Y-60956974D01*
X194253705Y-60716302D01*
X194699736Y-60271049D01*
X194941424Y-59688999D01*
X194941974Y-59058766D01*
X194701302Y-58476295D01*
X194256049Y-58030264D01*
X193673999Y-57788576D01*
X193043766Y-57788026D01*
X192461295Y-58028698D01*
X192015264Y-58473951D01*
X191773576Y-59056001D01*
X191773026Y-59686234D01*
X187817530Y-59686234D01*
X190531564Y-56972200D01*
X198596436Y-56972200D01*
X199567800Y-57943564D01*
X199567800Y-57943564D01*
G37*
X199567800Y-57943564D02*
X199567800Y-58146106D01*
X199484414Y-57944295D01*
X199137531Y-57596807D01*
X198684075Y-57408515D01*
X198193080Y-57408087D01*
X197739295Y-57595586D01*
X197391807Y-57942469D01*
X197203515Y-58395925D01*
X197203087Y-58886920D01*
X197390586Y-59340705D01*
X197520042Y-59470387D01*
X197372174Y-59565537D01*
X197238783Y-59760761D01*
X197191855Y-59992500D01*
X197191855Y-61292500D01*
X197232591Y-61508992D01*
X197360537Y-61707826D01*
X197555761Y-61841217D01*
X197787500Y-61888145D01*
X199087500Y-61888145D01*
X199303992Y-61847409D01*
X199502826Y-61719463D01*
X199567800Y-61624370D01*
X199567800Y-64496106D01*
X199484414Y-64294295D01*
X199137531Y-63946807D01*
X198684075Y-63758515D01*
X198193080Y-63758087D01*
X197739295Y-63945586D01*
X197391807Y-64292469D01*
X197203515Y-64745925D01*
X197203087Y-65236920D01*
X197390586Y-65690705D01*
X197520441Y-65820786D01*
X197456578Y-65847239D01*
X197292239Y-66011577D01*
X197203300Y-66226295D01*
X197203300Y-66668650D01*
X197349350Y-66814700D01*
X198259700Y-66814700D01*
X198259700Y-66794700D01*
X198615300Y-66794700D01*
X198615300Y-66814700D01*
X198635300Y-66814700D01*
X198635300Y-67170300D01*
X198615300Y-67170300D01*
X198615300Y-68080650D01*
X198761350Y-68226700D01*
X199203704Y-68226700D01*
X199418422Y-68137761D01*
X199567800Y-67988384D01*
X199567800Y-69056436D01*
X198066118Y-70558118D01*
X198049401Y-70583327D01*
X198043800Y-70612000D01*
X198043800Y-113760436D01*
X196034118Y-115770118D01*
X196017401Y-115795327D01*
X196011800Y-115824000D01*
X196011800Y-125952436D01*
X194532436Y-127431800D01*
X190531564Y-127431800D01*
X188836114Y-125736350D01*
X191773300Y-125736350D01*
X191773300Y-126528705D01*
X191862239Y-126743423D01*
X192026578Y-126907761D01*
X192241296Y-126996700D01*
X193033650Y-126996700D01*
X193179700Y-126850650D01*
X193179700Y-125590300D01*
X193535300Y-125590300D01*
X193535300Y-126850650D01*
X193681350Y-126996700D01*
X194473704Y-126996700D01*
X194688422Y-126907761D01*
X194852761Y-126743423D01*
X194941700Y-126528705D01*
X194941700Y-125736350D01*
X194795650Y-125590300D01*
X193535300Y-125590300D01*
X193179700Y-125590300D01*
X191919350Y-125590300D01*
X191773300Y-125736350D01*
X188836114Y-125736350D01*
X187396059Y-124296295D01*
X191773300Y-124296295D01*
X191773300Y-125088650D01*
X191919350Y-125234700D01*
X193179700Y-125234700D01*
X193179700Y-123974350D01*
X193535300Y-123974350D01*
X193535300Y-125234700D01*
X194795650Y-125234700D01*
X194941700Y-125088650D01*
X194941700Y-124296295D01*
X194852761Y-124081577D01*
X194688422Y-123917239D01*
X194473704Y-123828300D01*
X193681350Y-123828300D01*
X193535300Y-123974350D01*
X193179700Y-123974350D01*
X193033650Y-123828300D01*
X192241296Y-123828300D01*
X192026578Y-123917239D01*
X191862239Y-124081577D01*
X191773300Y-124296295D01*
X187396059Y-124296295D01*
X187020200Y-123920436D01*
X187020200Y-121916234D01*
X191773026Y-121916234D01*
X192013698Y-122498705D01*
X192458951Y-122944736D01*
X193041001Y-123186424D01*
X193671234Y-123186974D01*
X194253705Y-122946302D01*
X194699736Y-122501049D01*
X194941424Y-121918999D01*
X194941974Y-121288766D01*
X194701302Y-120706295D01*
X194256049Y-120260264D01*
X193673999Y-120018576D01*
X193043766Y-120018026D01*
X192461295Y-120258698D01*
X192015264Y-120703951D01*
X191773576Y-121286001D01*
X191773026Y-121916234D01*
X187020200Y-121916234D01*
X187020200Y-118106234D01*
X191773026Y-118106234D01*
X192013698Y-118688705D01*
X192458951Y-119134736D01*
X193041001Y-119376424D01*
X193671234Y-119376974D01*
X194253705Y-119136302D01*
X194699736Y-118691049D01*
X194941424Y-118108999D01*
X194941974Y-117478766D01*
X194701302Y-116896295D01*
X194256049Y-116450264D01*
X193673999Y-116208576D01*
X193043766Y-116208026D01*
X192461295Y-116448698D01*
X192015264Y-116893951D01*
X191773576Y-117476001D01*
X191773026Y-118106234D01*
X187020200Y-118106234D01*
X187020200Y-111131350D01*
X191773300Y-111131350D01*
X191773300Y-111923705D01*
X191862239Y-112138423D01*
X192026578Y-112302761D01*
X192241296Y-112391700D01*
X193033650Y-112391700D01*
X193179700Y-112245650D01*
X193179700Y-110985300D01*
X193535300Y-110985300D01*
X193535300Y-112245650D01*
X193681350Y-112391700D01*
X194473704Y-112391700D01*
X194688422Y-112302761D01*
X194852761Y-112138423D01*
X194941700Y-111923705D01*
X194941700Y-111131350D01*
X194795650Y-110985300D01*
X193535300Y-110985300D01*
X193179700Y-110985300D01*
X191919350Y-110985300D01*
X191773300Y-111131350D01*
X187020200Y-111131350D01*
X187020200Y-109691295D01*
X191773300Y-109691295D01*
X191773300Y-110483650D01*
X191919350Y-110629700D01*
X193179700Y-110629700D01*
X193179700Y-109369350D01*
X193535300Y-109369350D01*
X193535300Y-110629700D01*
X194795650Y-110629700D01*
X194941700Y-110483650D01*
X194941700Y-109691295D01*
X194852761Y-109476577D01*
X194688422Y-109312239D01*
X194473704Y-109223300D01*
X193681350Y-109223300D01*
X193535300Y-109369350D01*
X193179700Y-109369350D01*
X193033650Y-109223300D01*
X192241296Y-109223300D01*
X192026578Y-109312239D01*
X191862239Y-109476577D01*
X191773300Y-109691295D01*
X187020200Y-109691295D01*
X187020200Y-107311234D01*
X191773026Y-107311234D01*
X192013698Y-107893705D01*
X192458951Y-108339736D01*
X193041001Y-108581424D01*
X193671234Y-108581974D01*
X194253705Y-108341302D01*
X194699736Y-107896049D01*
X194941424Y-107313999D01*
X194941974Y-106683766D01*
X194701302Y-106101295D01*
X194256049Y-105655264D01*
X193673999Y-105413576D01*
X193043766Y-105413026D01*
X192461295Y-105653698D01*
X192015264Y-106098951D01*
X191773576Y-106681001D01*
X191773026Y-107311234D01*
X187020200Y-107311234D01*
X187020200Y-103501234D01*
X191773026Y-103501234D01*
X192013698Y-104083705D01*
X192458951Y-104529736D01*
X193041001Y-104771424D01*
X193671234Y-104771974D01*
X194253705Y-104531302D01*
X194699736Y-104086049D01*
X194941424Y-103503999D01*
X194941974Y-102873766D01*
X194701302Y-102291295D01*
X194256049Y-101845264D01*
X193673999Y-101603576D01*
X193043766Y-101603026D01*
X192461295Y-101843698D01*
X192015264Y-102288951D01*
X191773576Y-102871001D01*
X191773026Y-103501234D01*
X187020200Y-103501234D01*
X187020200Y-96526350D01*
X191773300Y-96526350D01*
X191773300Y-97318705D01*
X191862239Y-97533423D01*
X192026578Y-97697761D01*
X192241296Y-97786700D01*
X193033650Y-97786700D01*
X193179700Y-97640650D01*
X193179700Y-96380300D01*
X193535300Y-96380300D01*
X193535300Y-97640650D01*
X193681350Y-97786700D01*
X194473704Y-97786700D01*
X194688422Y-97697761D01*
X194852761Y-97533423D01*
X194941700Y-97318705D01*
X194941700Y-96526350D01*
X194795650Y-96380300D01*
X193535300Y-96380300D01*
X193179700Y-96380300D01*
X191919350Y-96380300D01*
X191773300Y-96526350D01*
X187020200Y-96526350D01*
X187020200Y-95086295D01*
X191773300Y-95086295D01*
X191773300Y-95878650D01*
X191919350Y-96024700D01*
X193179700Y-96024700D01*
X193179700Y-94764350D01*
X193535300Y-94764350D01*
X193535300Y-96024700D01*
X194795650Y-96024700D01*
X194941700Y-95878650D01*
X194941700Y-95086295D01*
X194852761Y-94871577D01*
X194688422Y-94707239D01*
X194473704Y-94618300D01*
X193681350Y-94618300D01*
X193535300Y-94764350D01*
X193179700Y-94764350D01*
X193033650Y-94618300D01*
X192241296Y-94618300D01*
X192026578Y-94707239D01*
X191862239Y-94871577D01*
X191773300Y-95086295D01*
X187020200Y-95086295D01*
X187020200Y-92706234D01*
X191773026Y-92706234D01*
X192013698Y-93288705D01*
X192458951Y-93734736D01*
X193041001Y-93976424D01*
X193671234Y-93976974D01*
X194253705Y-93736302D01*
X194699736Y-93291049D01*
X194941424Y-92708999D01*
X194941974Y-92078766D01*
X194701302Y-91496295D01*
X194256049Y-91050264D01*
X193673999Y-90808576D01*
X193043766Y-90808026D01*
X192461295Y-91048698D01*
X192015264Y-91493951D01*
X191773576Y-92076001D01*
X191773026Y-92706234D01*
X187020200Y-92706234D01*
X187020200Y-88896234D01*
X191773026Y-88896234D01*
X192013698Y-89478705D01*
X192458951Y-89924736D01*
X193041001Y-90166424D01*
X193671234Y-90166974D01*
X194253705Y-89926302D01*
X194699736Y-89481049D01*
X194941424Y-88898999D01*
X194941974Y-88268766D01*
X194701302Y-87686295D01*
X194256049Y-87240264D01*
X193673999Y-86998576D01*
X193043766Y-86998026D01*
X192461295Y-87238698D01*
X192015264Y-87683951D01*
X191773576Y-88266001D01*
X191773026Y-88896234D01*
X187020200Y-88896234D01*
X187020200Y-81921350D01*
X191773300Y-81921350D01*
X191773300Y-82713705D01*
X191862239Y-82928423D01*
X192026578Y-83092761D01*
X192241296Y-83181700D01*
X193033650Y-83181700D01*
X193179700Y-83035650D01*
X193179700Y-81775300D01*
X193535300Y-81775300D01*
X193535300Y-83035650D01*
X193681350Y-83181700D01*
X194473704Y-83181700D01*
X194688422Y-83092761D01*
X194852761Y-82928423D01*
X194941700Y-82713705D01*
X194941700Y-81921350D01*
X194795650Y-81775300D01*
X193535300Y-81775300D01*
X193179700Y-81775300D01*
X191919350Y-81775300D01*
X191773300Y-81921350D01*
X187020200Y-81921350D01*
X187020200Y-80481295D01*
X191773300Y-80481295D01*
X191773300Y-81273650D01*
X191919350Y-81419700D01*
X193179700Y-81419700D01*
X193179700Y-80159350D01*
X193535300Y-80159350D01*
X193535300Y-81419700D01*
X194795650Y-81419700D01*
X194941700Y-81273650D01*
X194941700Y-80481295D01*
X194852761Y-80266577D01*
X194688422Y-80102239D01*
X194473704Y-80013300D01*
X193681350Y-80013300D01*
X193535300Y-80159350D01*
X193179700Y-80159350D01*
X193033650Y-80013300D01*
X192241296Y-80013300D01*
X192026578Y-80102239D01*
X191862239Y-80266577D01*
X191773300Y-80481295D01*
X187020200Y-80481295D01*
X187020200Y-78101234D01*
X191773026Y-78101234D01*
X192013698Y-78683705D01*
X192458951Y-79129736D01*
X193041001Y-79371424D01*
X193671234Y-79371974D01*
X194253705Y-79131302D01*
X194699736Y-78686049D01*
X194941424Y-78103999D01*
X194941974Y-77473766D01*
X194701302Y-76891295D01*
X194256049Y-76445264D01*
X193673999Y-76203576D01*
X193043766Y-76203026D01*
X192461295Y-76443698D01*
X192015264Y-76888951D01*
X191773576Y-77471001D01*
X191773026Y-78101234D01*
X187020200Y-78101234D01*
X187020200Y-74291234D01*
X191773026Y-74291234D01*
X192013698Y-74873705D01*
X192458951Y-75319736D01*
X193041001Y-75561424D01*
X193671234Y-75561974D01*
X194253705Y-75321302D01*
X194699736Y-74876049D01*
X194941424Y-74293999D01*
X194941974Y-73663766D01*
X194701302Y-73081295D01*
X194256049Y-72635264D01*
X193673999Y-72393576D01*
X193043766Y-72393026D01*
X192461295Y-72633698D01*
X192015264Y-73078951D01*
X191773576Y-73661001D01*
X191773026Y-74291234D01*
X187020200Y-74291234D01*
X187020200Y-67316350D01*
X191773300Y-67316350D01*
X191773300Y-68108705D01*
X191862239Y-68323423D01*
X192026578Y-68487761D01*
X192241296Y-68576700D01*
X193033650Y-68576700D01*
X193179700Y-68430650D01*
X193179700Y-67170300D01*
X193535300Y-67170300D01*
X193535300Y-68430650D01*
X193681350Y-68576700D01*
X194473704Y-68576700D01*
X194688422Y-68487761D01*
X194852761Y-68323423D01*
X194941700Y-68108705D01*
X194941700Y-67316350D01*
X197203300Y-67316350D01*
X197203300Y-67758705D01*
X197292239Y-67973423D01*
X197456578Y-68137761D01*
X197671296Y-68226700D01*
X198113650Y-68226700D01*
X198259700Y-68080650D01*
X198259700Y-67170300D01*
X197349350Y-67170300D01*
X197203300Y-67316350D01*
X194941700Y-67316350D01*
X194795650Y-67170300D01*
X193535300Y-67170300D01*
X193179700Y-67170300D01*
X191919350Y-67170300D01*
X191773300Y-67316350D01*
X187020200Y-67316350D01*
X187020200Y-65876295D01*
X191773300Y-65876295D01*
X191773300Y-66668650D01*
X191919350Y-66814700D01*
X193179700Y-66814700D01*
X193179700Y-65554350D01*
X193535300Y-65554350D01*
X193535300Y-66814700D01*
X194795650Y-66814700D01*
X194941700Y-66668650D01*
X194941700Y-65876295D01*
X194852761Y-65661577D01*
X194688422Y-65497239D01*
X194473704Y-65408300D01*
X193681350Y-65408300D01*
X193535300Y-65554350D01*
X193179700Y-65554350D01*
X193033650Y-65408300D01*
X192241296Y-65408300D01*
X192026578Y-65497239D01*
X191862239Y-65661577D01*
X191773300Y-65876295D01*
X187020200Y-65876295D01*
X187020200Y-63496234D01*
X191773026Y-63496234D01*
X192013698Y-64078705D01*
X192458951Y-64524736D01*
X193041001Y-64766424D01*
X193671234Y-64766974D01*
X194253705Y-64526302D01*
X194699736Y-64081049D01*
X194941424Y-63498999D01*
X194941974Y-62868766D01*
X194701302Y-62286295D01*
X194256049Y-61840264D01*
X193673999Y-61598576D01*
X193043766Y-61598026D01*
X192461295Y-61838698D01*
X192015264Y-62283951D01*
X191773576Y-62866001D01*
X191773026Y-63496234D01*
X187020200Y-63496234D01*
X187020200Y-60483564D01*
X187817530Y-59686234D01*
X191773026Y-59686234D01*
X192013698Y-60268705D01*
X192458951Y-60714736D01*
X193041001Y-60956424D01*
X193671234Y-60956974D01*
X194253705Y-60716302D01*
X194699736Y-60271049D01*
X194941424Y-59688999D01*
X194941974Y-59058766D01*
X194701302Y-58476295D01*
X194256049Y-58030264D01*
X193673999Y-57788576D01*
X193043766Y-57788026D01*
X192461295Y-58028698D01*
X192015264Y-58473951D01*
X191773576Y-59056001D01*
X191773026Y-59686234D01*
X187817530Y-59686234D01*
X190531564Y-56972200D01*
X198596436Y-56972200D01*
X199567800Y-57943564D01*
G36*
X211201800Y-59417564D02*
X211201800Y-125494436D01*
X209264436Y-127431800D01*
X201199564Y-127431800D01*
X200252107Y-126484343D01*
X200326802Y-126409648D01*
X200389107Y-126619845D01*
X200859572Y-126760342D01*
X201347990Y-126710105D01*
X201565893Y-126619845D01*
X201580827Y-126569460D01*
X205151988Y-126569460D01*
X205257701Y-126815821D01*
X205855609Y-127015069D01*
X206484253Y-126970341D01*
X206857299Y-126815821D01*
X206963012Y-126569460D01*
X206057500Y-125663947D01*
X205151988Y-126569460D01*
X201580827Y-126569460D01*
X201628199Y-126409646D01*
X200977500Y-125758947D01*
X200963358Y-125773090D01*
X200711911Y-125521643D01*
X200726053Y-125507500D01*
X200711911Y-125493358D01*
X200963358Y-125241911D01*
X200977500Y-125256053D01*
X200991643Y-125241911D01*
X201243090Y-125493358D01*
X201228947Y-125507500D01*
X201879646Y-126158199D01*
X202089845Y-126095893D01*
X202230342Y-125625428D01*
X202187676Y-125210609D01*
X204454931Y-125210609D01*
X204499659Y-125839253D01*
X204654179Y-126212299D01*
X204900540Y-126318012D01*
X205806053Y-125412500D01*
X206308947Y-125412500D01*
X207214460Y-126318012D01*
X207460821Y-126212299D01*
X207660069Y-125614391D01*
X207615341Y-124985747D01*
X207460821Y-124612701D01*
X207214460Y-124506988D01*
X206308947Y-125412500D01*
X205806053Y-125412500D01*
X204900540Y-124506988D01*
X204654179Y-124612701D01*
X204454931Y-125210609D01*
X202187676Y-125210609D01*
X202180105Y-125137010D01*
X202089845Y-124919107D01*
X201879648Y-124856802D01*
X201991978Y-124744472D01*
X201914527Y-124667021D01*
X202042826Y-124584463D01*
X202176217Y-124389239D01*
X202203291Y-124255540D01*
X205151988Y-124255540D01*
X206057500Y-125161053D01*
X206963012Y-124255540D01*
X206857299Y-124009179D01*
X206259391Y-123809931D01*
X205630747Y-123854659D01*
X205257701Y-124009179D01*
X205151988Y-124255540D01*
X202203291Y-124255540D01*
X202223145Y-124157500D01*
X202223145Y-122857500D01*
X202182409Y-122641008D01*
X202054463Y-122442174D01*
X201859239Y-122308783D01*
X201627500Y-122261855D01*
X200327500Y-122261855D01*
X200111008Y-122302591D01*
X199912174Y-122430537D01*
X199778783Y-122625761D01*
X199731855Y-122857500D01*
X199731855Y-124157500D01*
X199772591Y-124373992D01*
X199900537Y-124572826D01*
X200039630Y-124667864D01*
X199963022Y-124744472D01*
X200075352Y-124856802D01*
X199865155Y-124919107D01*
X199724658Y-125389572D01*
X199774895Y-125877990D01*
X199865155Y-126095893D01*
X200075352Y-126158198D01*
X200000657Y-126232893D01*
X199720200Y-125952436D01*
X199720200Y-121916234D01*
X204473026Y-121916234D01*
X204713698Y-122498705D01*
X205158951Y-122944736D01*
X205741001Y-123186424D01*
X206371234Y-123186974D01*
X206953705Y-122946302D01*
X207399736Y-122501049D01*
X207641424Y-121918999D01*
X207641974Y-121288766D01*
X207401302Y-120706295D01*
X206956049Y-120260264D01*
X206373999Y-120018576D01*
X205743766Y-120018026D01*
X205161295Y-120258698D01*
X204715264Y-120703951D01*
X204473576Y-121286001D01*
X204473026Y-121916234D01*
X199720200Y-121916234D01*
X199720200Y-116363564D01*
X199771363Y-116312401D01*
X199731855Y-116507500D01*
X199731855Y-117807500D01*
X199772591Y-118023992D01*
X199900537Y-118222826D01*
X200058642Y-118330855D01*
X199931807Y-118457469D01*
X199743515Y-118910925D01*
X199743087Y-119401920D01*
X199930586Y-119855705D01*
X200277469Y-120203193D01*
X200730925Y-120391485D01*
X201221920Y-120391913D01*
X201675705Y-120204414D01*
X202023193Y-119857531D01*
X202211485Y-119404075D01*
X202211913Y-118913080D01*
X202024414Y-118459295D01*
X201894958Y-118329613D01*
X202042826Y-118234463D01*
X202176217Y-118039239D01*
X202223145Y-117807500D01*
X202223145Y-116792500D01*
X204461855Y-116792500D01*
X204461855Y-118792500D01*
X204502591Y-119008992D01*
X204630537Y-119207826D01*
X204825761Y-119341217D01*
X205057500Y-119388145D01*
X207057500Y-119388145D01*
X207273992Y-119347409D01*
X207472826Y-119219463D01*
X207606217Y-119024239D01*
X207653145Y-118792500D01*
X207653145Y-116792500D01*
X207612409Y-116576008D01*
X207484463Y-116377174D01*
X207289239Y-116243783D01*
X207057500Y-116196855D01*
X205057500Y-116196855D01*
X204841008Y-116237591D01*
X204642174Y-116365537D01*
X204508783Y-116560761D01*
X204461855Y-116792500D01*
X202223145Y-116792500D01*
X202223145Y-116507500D01*
X202182409Y-116291008D01*
X202054463Y-116092174D01*
X201859239Y-115958783D01*
X201627500Y-115911855D01*
X200327500Y-115911855D01*
X200135847Y-115947917D01*
X201729882Y-114353882D01*
X201746599Y-114328673D01*
X201752200Y-114300000D01*
X201752200Y-111964460D01*
X205151988Y-111964460D01*
X205257701Y-112210821D01*
X205855609Y-112410069D01*
X206484253Y-112365341D01*
X206857299Y-112210821D01*
X206963012Y-111964460D01*
X206057500Y-111058947D01*
X205151988Y-111964460D01*
X201752200Y-111964460D01*
X201752200Y-110605609D01*
X204454931Y-110605609D01*
X204499659Y-111234253D01*
X204654179Y-111607299D01*
X204900540Y-111713012D01*
X205806053Y-110807500D01*
X206308947Y-110807500D01*
X207214460Y-111713012D01*
X207460821Y-111607299D01*
X207660069Y-111009391D01*
X207615341Y-110380747D01*
X207460821Y-110007701D01*
X207214460Y-109901988D01*
X206308947Y-110807500D01*
X205806053Y-110807500D01*
X204900540Y-109901988D01*
X204654179Y-110007701D01*
X204454931Y-110605609D01*
X201752200Y-110605609D01*
X201752200Y-109650540D01*
X205151988Y-109650540D01*
X206057500Y-110556053D01*
X206963012Y-109650540D01*
X206857299Y-109404179D01*
X206259391Y-109204931D01*
X205630747Y-109249659D01*
X205257701Y-109404179D01*
X205151988Y-109650540D01*
X201752200Y-109650540D01*
X201752200Y-107311234D01*
X204473026Y-107311234D01*
X204713698Y-107893705D01*
X205158951Y-108339736D01*
X205741001Y-108581424D01*
X206371234Y-108581974D01*
X206953705Y-108341302D01*
X207399736Y-107896049D01*
X207641424Y-107313999D01*
X207641974Y-106683766D01*
X207401302Y-106101295D01*
X206956049Y-105655264D01*
X206373999Y-105413576D01*
X205743766Y-105413026D01*
X205161295Y-105653698D01*
X204715264Y-106098951D01*
X204473576Y-106681001D01*
X204473026Y-107311234D01*
X201752200Y-107311234D01*
X201752200Y-102187500D01*
X204461855Y-102187500D01*
X204461855Y-104187500D01*
X204502591Y-104403992D01*
X204630537Y-104602826D01*
X204825761Y-104736217D01*
X205057500Y-104783145D01*
X207057500Y-104783145D01*
X207273992Y-104742409D01*
X207472826Y-104614463D01*
X207606217Y-104419239D01*
X207653145Y-104187500D01*
X207653145Y-102187500D01*
X207612409Y-101971008D01*
X207484463Y-101772174D01*
X207289239Y-101638783D01*
X207057500Y-101591855D01*
X205057500Y-101591855D01*
X204841008Y-101632591D01*
X204642174Y-101760537D01*
X204508783Y-101955761D01*
X204461855Y-102187500D01*
X201752200Y-102187500D01*
X201752200Y-97359460D01*
X205151988Y-97359460D01*
X205257701Y-97605821D01*
X205855609Y-97805069D01*
X206484253Y-97760341D01*
X206857299Y-97605821D01*
X206963012Y-97359460D01*
X206057500Y-96453947D01*
X205151988Y-97359460D01*
X201752200Y-97359460D01*
X201752200Y-96000609D01*
X204454931Y-96000609D01*
X204499659Y-96629253D01*
X204654179Y-97002299D01*
X204900540Y-97108012D01*
X205806053Y-96202500D01*
X206308947Y-96202500D01*
X207214460Y-97108012D01*
X207460821Y-97002299D01*
X207660069Y-96404391D01*
X207615341Y-95775747D01*
X207460821Y-95402701D01*
X207214460Y-95296988D01*
X206308947Y-96202500D01*
X205806053Y-96202500D01*
X204900540Y-95296988D01*
X204654179Y-95402701D01*
X204454931Y-96000609D01*
X201752200Y-96000609D01*
X201752200Y-95045540D01*
X205151988Y-95045540D01*
X206057500Y-95951053D01*
X206963012Y-95045540D01*
X206857299Y-94799179D01*
X206259391Y-94599931D01*
X205630747Y-94644659D01*
X205257701Y-94799179D01*
X205151988Y-95045540D01*
X201752200Y-95045540D01*
X201752200Y-92706234D01*
X204473026Y-92706234D01*
X204713698Y-93288705D01*
X205158951Y-93734736D01*
X205741001Y-93976424D01*
X206371234Y-93976974D01*
X206953705Y-93736302D01*
X207399736Y-93291049D01*
X207641424Y-92708999D01*
X207641974Y-92078766D01*
X207401302Y-91496295D01*
X206956049Y-91050264D01*
X206373999Y-90808576D01*
X205743766Y-90808026D01*
X205161295Y-91048698D01*
X204715264Y-91493951D01*
X204473576Y-92076001D01*
X204473026Y-92706234D01*
X201752200Y-92706234D01*
X201752200Y-87582500D01*
X204461855Y-87582500D01*
X204461855Y-89582500D01*
X204502591Y-89798992D01*
X204630537Y-89997826D01*
X204825761Y-90131217D01*
X205057500Y-90178145D01*
X207057500Y-90178145D01*
X207273992Y-90137409D01*
X207472826Y-90009463D01*
X207606217Y-89814239D01*
X207653145Y-89582500D01*
X207653145Y-87582500D01*
X207612409Y-87366008D01*
X207484463Y-87167174D01*
X207289239Y-87033783D01*
X207057500Y-86986855D01*
X205057500Y-86986855D01*
X204841008Y-87027591D01*
X204642174Y-87155537D01*
X204508783Y-87350761D01*
X204461855Y-87582500D01*
X201752200Y-87582500D01*
X201752200Y-82754460D01*
X205151988Y-82754460D01*
X205257701Y-83000821D01*
X205855609Y-83200069D01*
X206484253Y-83155341D01*
X206857299Y-83000821D01*
X206963012Y-82754460D01*
X206057500Y-81848947D01*
X205151988Y-82754460D01*
X201752200Y-82754460D01*
X201752200Y-81395609D01*
X204454931Y-81395609D01*
X204499659Y-82024253D01*
X204654179Y-82397299D01*
X204900540Y-82503012D01*
X205806053Y-81597500D01*
X206308947Y-81597500D01*
X207214460Y-82503012D01*
X207460821Y-82397299D01*
X207660069Y-81799391D01*
X207615341Y-81170747D01*
X207460821Y-80797701D01*
X207214460Y-80691988D01*
X206308947Y-81597500D01*
X205806053Y-81597500D01*
X204900540Y-80691988D01*
X204654179Y-80797701D01*
X204454931Y-81395609D01*
X201752200Y-81395609D01*
X201752200Y-80440540D01*
X205151988Y-80440540D01*
X206057500Y-81346053D01*
X206963012Y-80440540D01*
X206857299Y-80194179D01*
X206259391Y-79994931D01*
X205630747Y-80039659D01*
X205257701Y-80194179D01*
X205151988Y-80440540D01*
X201752200Y-80440540D01*
X201752200Y-78101234D01*
X204473026Y-78101234D01*
X204713698Y-78683705D01*
X205158951Y-79129736D01*
X205741001Y-79371424D01*
X206371234Y-79371974D01*
X206953705Y-79131302D01*
X207399736Y-78686049D01*
X207641424Y-78103999D01*
X207641974Y-77473766D01*
X207401302Y-76891295D01*
X206956049Y-76445264D01*
X206373999Y-76203576D01*
X205743766Y-76203026D01*
X205161295Y-76443698D01*
X204715264Y-76888951D01*
X204473576Y-77471001D01*
X204473026Y-78101234D01*
X201752200Y-78101234D01*
X201752200Y-72977500D01*
X204461855Y-72977500D01*
X204461855Y-74977500D01*
X204502591Y-75193992D01*
X204630537Y-75392826D01*
X204825761Y-75526217D01*
X205057500Y-75573145D01*
X207057500Y-75573145D01*
X207273992Y-75532409D01*
X207472826Y-75404463D01*
X207606217Y-75209239D01*
X207653145Y-74977500D01*
X207653145Y-72977500D01*
X207612409Y-72761008D01*
X207484463Y-72562174D01*
X207289239Y-72428783D01*
X207057500Y-72381855D01*
X205057500Y-72381855D01*
X204841008Y-72422591D01*
X204642174Y-72550537D01*
X204508783Y-72745761D01*
X204461855Y-72977500D01*
X201752200Y-72977500D01*
X201752200Y-71151564D01*
X204269882Y-68633882D01*
X204286599Y-68608673D01*
X204292200Y-68580000D01*
X204292200Y-68149460D01*
X205151988Y-68149460D01*
X205257701Y-68395821D01*
X205855609Y-68595069D01*
X206484253Y-68550341D01*
X206857299Y-68395821D01*
X206963012Y-68149460D01*
X206057500Y-67243947D01*
X205151988Y-68149460D01*
X204292200Y-68149460D01*
X204292200Y-66790609D01*
X204454931Y-66790609D01*
X204499659Y-67419253D01*
X204654179Y-67792299D01*
X204900540Y-67898012D01*
X205806053Y-66992500D01*
X206308947Y-66992500D01*
X207214460Y-67898012D01*
X207460821Y-67792299D01*
X207660069Y-67194391D01*
X207615341Y-66565747D01*
X207460821Y-66192701D01*
X207214460Y-66086988D01*
X206308947Y-66992500D01*
X205806053Y-66992500D01*
X204900540Y-66086988D01*
X204654179Y-66192701D01*
X204454931Y-66790609D01*
X204292200Y-66790609D01*
X204292200Y-65835540D01*
X205151988Y-65835540D01*
X206057500Y-66741053D01*
X206963012Y-65835540D01*
X206857299Y-65589179D01*
X206259391Y-65389931D01*
X205630747Y-65434659D01*
X205257701Y-65589179D01*
X205151988Y-65835540D01*
X204292200Y-65835540D01*
X204292200Y-63496234D01*
X204473026Y-63496234D01*
X204713698Y-64078705D01*
X205158951Y-64524736D01*
X205741001Y-64766424D01*
X206371234Y-64766974D01*
X206953705Y-64526302D01*
X207399736Y-64081049D01*
X207641424Y-63498999D01*
X207641974Y-62868766D01*
X207401302Y-62286295D01*
X206956049Y-61840264D01*
X206373999Y-61598576D01*
X205743766Y-61598026D01*
X205161295Y-61838698D01*
X204715264Y-62283951D01*
X204473576Y-62866001D01*
X204473026Y-63496234D01*
X204292200Y-63496234D01*
X204292200Y-58451564D01*
X204484858Y-58258906D01*
X204461855Y-58372500D01*
X204461855Y-60372500D01*
X204502591Y-60588992D01*
X204630537Y-60787826D01*
X204825761Y-60921217D01*
X205057500Y-60968145D01*
X207057500Y-60968145D01*
X207273992Y-60927409D01*
X207472826Y-60799463D01*
X207606217Y-60604239D01*
X207653145Y-60372500D01*
X207653145Y-58372500D01*
X207612409Y-58156008D01*
X207484463Y-57957174D01*
X207289239Y-57823783D01*
X207057500Y-57776855D01*
X205057500Y-57776855D01*
X204945912Y-57797852D01*
X205771564Y-56972200D01*
X208756436Y-56972200D01*
X211201800Y-59417564D01*
X211201800Y-59417564D01*
G37*
X211201800Y-59417564D02*
X211201800Y-125494436D01*
X209264436Y-127431800D01*
X201199564Y-127431800D01*
X200252107Y-126484343D01*
X200326802Y-126409648D01*
X200389107Y-126619845D01*
X200859572Y-126760342D01*
X201347990Y-126710105D01*
X201565893Y-126619845D01*
X201580827Y-126569460D01*
X205151988Y-126569460D01*
X205257701Y-126815821D01*
X205855609Y-127015069D01*
X206484253Y-126970341D01*
X206857299Y-126815821D01*
X206963012Y-126569460D01*
X206057500Y-125663947D01*
X205151988Y-126569460D01*
X201580827Y-126569460D01*
X201628199Y-126409646D01*
X200977500Y-125758947D01*
X200963358Y-125773090D01*
X200711911Y-125521643D01*
X200726053Y-125507500D01*
X200711911Y-125493358D01*
X200963358Y-125241911D01*
X200977500Y-125256053D01*
X200991643Y-125241911D01*
X201243090Y-125493358D01*
X201228947Y-125507500D01*
X201879646Y-126158199D01*
X202089845Y-126095893D01*
X202230342Y-125625428D01*
X202187676Y-125210609D01*
X204454931Y-125210609D01*
X204499659Y-125839253D01*
X204654179Y-126212299D01*
X204900540Y-126318012D01*
X205806053Y-125412500D01*
X206308947Y-125412500D01*
X207214460Y-126318012D01*
X207460821Y-126212299D01*
X207660069Y-125614391D01*
X207615341Y-124985747D01*
X207460821Y-124612701D01*
X207214460Y-124506988D01*
X206308947Y-125412500D01*
X205806053Y-125412500D01*
X204900540Y-124506988D01*
X204654179Y-124612701D01*
X204454931Y-125210609D01*
X202187676Y-125210609D01*
X202180105Y-125137010D01*
X202089845Y-124919107D01*
X201879648Y-124856802D01*
X201991978Y-124744472D01*
X201914527Y-124667021D01*
X202042826Y-124584463D01*
X202176217Y-124389239D01*
X202203291Y-124255540D01*
X205151988Y-124255540D01*
X206057500Y-125161053D01*
X206963012Y-124255540D01*
X206857299Y-124009179D01*
X206259391Y-123809931D01*
X205630747Y-123854659D01*
X205257701Y-124009179D01*
X205151988Y-124255540D01*
X202203291Y-124255540D01*
X202223145Y-124157500D01*
X202223145Y-122857500D01*
X202182409Y-122641008D01*
X202054463Y-122442174D01*
X201859239Y-122308783D01*
X201627500Y-122261855D01*
X200327500Y-122261855D01*
X200111008Y-122302591D01*
X199912174Y-122430537D01*
X199778783Y-122625761D01*
X199731855Y-122857500D01*
X199731855Y-124157500D01*
X199772591Y-124373992D01*
X199900537Y-124572826D01*
X200039630Y-124667864D01*
X199963022Y-124744472D01*
X200075352Y-124856802D01*
X199865155Y-124919107D01*
X199724658Y-125389572D01*
X199774895Y-125877990D01*
X199865155Y-126095893D01*
X200075352Y-126158198D01*
X200000657Y-126232893D01*
X199720200Y-125952436D01*
X199720200Y-121916234D01*
X204473026Y-121916234D01*
X204713698Y-122498705D01*
X205158951Y-122944736D01*
X205741001Y-123186424D01*
X206371234Y-123186974D01*
X206953705Y-122946302D01*
X207399736Y-122501049D01*
X207641424Y-121918999D01*
X207641974Y-121288766D01*
X207401302Y-120706295D01*
X206956049Y-120260264D01*
X206373999Y-120018576D01*
X205743766Y-120018026D01*
X205161295Y-120258698D01*
X204715264Y-120703951D01*
X204473576Y-121286001D01*
X204473026Y-121916234D01*
X199720200Y-121916234D01*
X199720200Y-116363564D01*
X199771363Y-116312401D01*
X199731855Y-116507500D01*
X199731855Y-117807500D01*
X199772591Y-118023992D01*
X199900537Y-118222826D01*
X200058642Y-118330855D01*
X199931807Y-118457469D01*
X199743515Y-118910925D01*
X199743087Y-119401920D01*
X199930586Y-119855705D01*
X200277469Y-120203193D01*
X200730925Y-120391485D01*
X201221920Y-120391913D01*
X201675705Y-120204414D01*
X202023193Y-119857531D01*
X202211485Y-119404075D01*
X202211913Y-118913080D01*
X202024414Y-118459295D01*
X201894958Y-118329613D01*
X202042826Y-118234463D01*
X202176217Y-118039239D01*
X202223145Y-117807500D01*
X202223145Y-116792500D01*
X204461855Y-116792500D01*
X204461855Y-118792500D01*
X204502591Y-119008992D01*
X204630537Y-119207826D01*
X204825761Y-119341217D01*
X205057500Y-119388145D01*
X207057500Y-119388145D01*
X207273992Y-119347409D01*
X207472826Y-119219463D01*
X207606217Y-119024239D01*
X207653145Y-118792500D01*
X207653145Y-116792500D01*
X207612409Y-116576008D01*
X207484463Y-116377174D01*
X207289239Y-116243783D01*
X207057500Y-116196855D01*
X205057500Y-116196855D01*
X204841008Y-116237591D01*
X204642174Y-116365537D01*
X204508783Y-116560761D01*
X204461855Y-116792500D01*
X202223145Y-116792500D01*
X202223145Y-116507500D01*
X202182409Y-116291008D01*
X202054463Y-116092174D01*
X201859239Y-115958783D01*
X201627500Y-115911855D01*
X200327500Y-115911855D01*
X200135847Y-115947917D01*
X201729882Y-114353882D01*
X201746599Y-114328673D01*
X201752200Y-114300000D01*
X201752200Y-111964460D01*
X205151988Y-111964460D01*
X205257701Y-112210821D01*
X205855609Y-112410069D01*
X206484253Y-112365341D01*
X206857299Y-112210821D01*
X206963012Y-111964460D01*
X206057500Y-111058947D01*
X205151988Y-111964460D01*
X201752200Y-111964460D01*
X201752200Y-110605609D01*
X204454931Y-110605609D01*
X204499659Y-111234253D01*
X204654179Y-111607299D01*
X204900540Y-111713012D01*
X205806053Y-110807500D01*
X206308947Y-110807500D01*
X207214460Y-111713012D01*
X207460821Y-111607299D01*
X207660069Y-111009391D01*
X207615341Y-110380747D01*
X207460821Y-110007701D01*
X207214460Y-109901988D01*
X206308947Y-110807500D01*
X205806053Y-110807500D01*
X204900540Y-109901988D01*
X204654179Y-110007701D01*
X204454931Y-110605609D01*
X201752200Y-110605609D01*
X201752200Y-109650540D01*
X205151988Y-109650540D01*
X206057500Y-110556053D01*
X206963012Y-109650540D01*
X206857299Y-109404179D01*
X206259391Y-109204931D01*
X205630747Y-109249659D01*
X205257701Y-109404179D01*
X205151988Y-109650540D01*
X201752200Y-109650540D01*
X201752200Y-107311234D01*
X204473026Y-107311234D01*
X204713698Y-107893705D01*
X205158951Y-108339736D01*
X205741001Y-108581424D01*
X206371234Y-108581974D01*
X206953705Y-108341302D01*
X207399736Y-107896049D01*
X207641424Y-107313999D01*
X207641974Y-106683766D01*
X207401302Y-106101295D01*
X206956049Y-105655264D01*
X206373999Y-105413576D01*
X205743766Y-105413026D01*
X205161295Y-105653698D01*
X204715264Y-106098951D01*
X204473576Y-106681001D01*
X204473026Y-107311234D01*
X201752200Y-107311234D01*
X201752200Y-102187500D01*
X204461855Y-102187500D01*
X204461855Y-104187500D01*
X204502591Y-104403992D01*
X204630537Y-104602826D01*
X204825761Y-104736217D01*
X205057500Y-104783145D01*
X207057500Y-104783145D01*
X207273992Y-104742409D01*
X207472826Y-104614463D01*
X207606217Y-104419239D01*
X207653145Y-104187500D01*
X207653145Y-102187500D01*
X207612409Y-101971008D01*
X207484463Y-101772174D01*
X207289239Y-101638783D01*
X207057500Y-101591855D01*
X205057500Y-101591855D01*
X204841008Y-101632591D01*
X204642174Y-101760537D01*
X204508783Y-101955761D01*
X204461855Y-102187500D01*
X201752200Y-102187500D01*
X201752200Y-97359460D01*
X205151988Y-97359460D01*
X205257701Y-97605821D01*
X205855609Y-97805069D01*
X206484253Y-97760341D01*
X206857299Y-97605821D01*
X206963012Y-97359460D01*
X206057500Y-96453947D01*
X205151988Y-97359460D01*
X201752200Y-97359460D01*
X201752200Y-96000609D01*
X204454931Y-96000609D01*
X204499659Y-96629253D01*
X204654179Y-97002299D01*
X204900540Y-97108012D01*
X205806053Y-96202500D01*
X206308947Y-96202500D01*
X207214460Y-97108012D01*
X207460821Y-97002299D01*
X207660069Y-96404391D01*
X207615341Y-95775747D01*
X207460821Y-95402701D01*
X207214460Y-95296988D01*
X206308947Y-96202500D01*
X205806053Y-96202500D01*
X204900540Y-95296988D01*
X204654179Y-95402701D01*
X204454931Y-96000609D01*
X201752200Y-96000609D01*
X201752200Y-95045540D01*
X205151988Y-95045540D01*
X206057500Y-95951053D01*
X206963012Y-95045540D01*
X206857299Y-94799179D01*
X206259391Y-94599931D01*
X205630747Y-94644659D01*
X205257701Y-94799179D01*
X205151988Y-95045540D01*
X201752200Y-95045540D01*
X201752200Y-92706234D01*
X204473026Y-92706234D01*
X204713698Y-93288705D01*
X205158951Y-93734736D01*
X205741001Y-93976424D01*
X206371234Y-93976974D01*
X206953705Y-93736302D01*
X207399736Y-93291049D01*
X207641424Y-92708999D01*
X207641974Y-92078766D01*
X207401302Y-91496295D01*
X206956049Y-91050264D01*
X206373999Y-90808576D01*
X205743766Y-90808026D01*
X205161295Y-91048698D01*
X204715264Y-91493951D01*
X204473576Y-92076001D01*
X204473026Y-92706234D01*
X201752200Y-92706234D01*
X201752200Y-87582500D01*
X204461855Y-87582500D01*
X204461855Y-89582500D01*
X204502591Y-89798992D01*
X204630537Y-89997826D01*
X204825761Y-90131217D01*
X205057500Y-90178145D01*
X207057500Y-90178145D01*
X207273992Y-90137409D01*
X207472826Y-90009463D01*
X207606217Y-89814239D01*
X207653145Y-89582500D01*
X207653145Y-87582500D01*
X207612409Y-87366008D01*
X207484463Y-87167174D01*
X207289239Y-87033783D01*
X207057500Y-86986855D01*
X205057500Y-86986855D01*
X204841008Y-87027591D01*
X204642174Y-87155537D01*
X204508783Y-87350761D01*
X204461855Y-87582500D01*
X201752200Y-87582500D01*
X201752200Y-82754460D01*
X205151988Y-82754460D01*
X205257701Y-83000821D01*
X205855609Y-83200069D01*
X206484253Y-83155341D01*
X206857299Y-83000821D01*
X206963012Y-82754460D01*
X206057500Y-81848947D01*
X205151988Y-82754460D01*
X201752200Y-82754460D01*
X201752200Y-81395609D01*
X204454931Y-81395609D01*
X204499659Y-82024253D01*
X204654179Y-82397299D01*
X204900540Y-82503012D01*
X205806053Y-81597500D01*
X206308947Y-81597500D01*
X207214460Y-82503012D01*
X207460821Y-82397299D01*
X207660069Y-81799391D01*
X207615341Y-81170747D01*
X207460821Y-80797701D01*
X207214460Y-80691988D01*
X206308947Y-81597500D01*
X205806053Y-81597500D01*
X204900540Y-80691988D01*
X204654179Y-80797701D01*
X204454931Y-81395609D01*
X201752200Y-81395609D01*
X201752200Y-80440540D01*
X205151988Y-80440540D01*
X206057500Y-81346053D01*
X206963012Y-80440540D01*
X206857299Y-80194179D01*
X206259391Y-79994931D01*
X205630747Y-80039659D01*
X205257701Y-80194179D01*
X205151988Y-80440540D01*
X201752200Y-80440540D01*
X201752200Y-78101234D01*
X204473026Y-78101234D01*
X204713698Y-78683705D01*
X205158951Y-79129736D01*
X205741001Y-79371424D01*
X206371234Y-79371974D01*
X206953705Y-79131302D01*
X207399736Y-78686049D01*
X207641424Y-78103999D01*
X207641974Y-77473766D01*
X207401302Y-76891295D01*
X206956049Y-76445264D01*
X206373999Y-76203576D01*
X205743766Y-76203026D01*
X205161295Y-76443698D01*
X204715264Y-76888951D01*
X204473576Y-77471001D01*
X204473026Y-78101234D01*
X201752200Y-78101234D01*
X201752200Y-72977500D01*
X204461855Y-72977500D01*
X204461855Y-74977500D01*
X204502591Y-75193992D01*
X204630537Y-75392826D01*
X204825761Y-75526217D01*
X205057500Y-75573145D01*
X207057500Y-75573145D01*
X207273992Y-75532409D01*
X207472826Y-75404463D01*
X207606217Y-75209239D01*
X207653145Y-74977500D01*
X207653145Y-72977500D01*
X207612409Y-72761008D01*
X207484463Y-72562174D01*
X207289239Y-72428783D01*
X207057500Y-72381855D01*
X205057500Y-72381855D01*
X204841008Y-72422591D01*
X204642174Y-72550537D01*
X204508783Y-72745761D01*
X204461855Y-72977500D01*
X201752200Y-72977500D01*
X201752200Y-71151564D01*
X204269882Y-68633882D01*
X204286599Y-68608673D01*
X204292200Y-68580000D01*
X204292200Y-68149460D01*
X205151988Y-68149460D01*
X205257701Y-68395821D01*
X205855609Y-68595069D01*
X206484253Y-68550341D01*
X206857299Y-68395821D01*
X206963012Y-68149460D01*
X206057500Y-67243947D01*
X205151988Y-68149460D01*
X204292200Y-68149460D01*
X204292200Y-66790609D01*
X204454931Y-66790609D01*
X204499659Y-67419253D01*
X204654179Y-67792299D01*
X204900540Y-67898012D01*
X205806053Y-66992500D01*
X206308947Y-66992500D01*
X207214460Y-67898012D01*
X207460821Y-67792299D01*
X207660069Y-67194391D01*
X207615341Y-66565747D01*
X207460821Y-66192701D01*
X207214460Y-66086988D01*
X206308947Y-66992500D01*
X205806053Y-66992500D01*
X204900540Y-66086988D01*
X204654179Y-66192701D01*
X204454931Y-66790609D01*
X204292200Y-66790609D01*
X204292200Y-65835540D01*
X205151988Y-65835540D01*
X206057500Y-66741053D01*
X206963012Y-65835540D01*
X206857299Y-65589179D01*
X206259391Y-65389931D01*
X205630747Y-65434659D01*
X205257701Y-65589179D01*
X205151988Y-65835540D01*
X204292200Y-65835540D01*
X204292200Y-63496234D01*
X204473026Y-63496234D01*
X204713698Y-64078705D01*
X205158951Y-64524736D01*
X205741001Y-64766424D01*
X206371234Y-64766974D01*
X206953705Y-64526302D01*
X207399736Y-64081049D01*
X207641424Y-63498999D01*
X207641974Y-62868766D01*
X207401302Y-62286295D01*
X206956049Y-61840264D01*
X206373999Y-61598576D01*
X205743766Y-61598026D01*
X205161295Y-61838698D01*
X204715264Y-62283951D01*
X204473576Y-62866001D01*
X204473026Y-63496234D01*
X204292200Y-63496234D01*
X204292200Y-58451564D01*
X204484858Y-58258906D01*
X204461855Y-58372500D01*
X204461855Y-60372500D01*
X204502591Y-60588992D01*
X204630537Y-60787826D01*
X204825761Y-60921217D01*
X205057500Y-60968145D01*
X207057500Y-60968145D01*
X207273992Y-60927409D01*
X207472826Y-60799463D01*
X207606217Y-60604239D01*
X207653145Y-60372500D01*
X207653145Y-58372500D01*
X207612409Y-58156008D01*
X207484463Y-57957174D01*
X207289239Y-57823783D01*
X207057500Y-57776855D01*
X205057500Y-57776855D01*
X204945912Y-57797852D01*
X205771564Y-56972200D01*
X208756436Y-56972200D01*
X211201800Y-59417564D01*
M02*
