M48
INCH,TZ
T1C0.016
T2C0.031
T3C0.032
T4C0.047
T5C0.058
T6C0.126
%
G90
G05
T1
X53800Y-46000
X62400Y-26200
X62400Y-27000
X62400Y-27800
X62400Y-29600
X68000Y-25600
X68400Y-25600
X68800Y-29000
X69200Y-26000
X69600Y-26400
T2
X45625Y-30625
X46412Y-30625
X52338Y-30625
X53125Y-30625
X55125Y-45375
X55912Y-45375
X57600Y-45400
X58387Y-45400
X63588Y-26875
X64375Y-26875
X68338Y-26875
X69125Y-26875
X78125Y-23088
X78125Y-23875
X78125Y-25588
X78125Y-26375
X79125Y-46125
X79125Y-46912
X79125Y-48625
X79125Y-49412
T3
X48375Y-31375
X48375Y-33375
X49375Y-32375
X70625Y-24375
X71625Y-23375
X71625Y-25375
T4
X41375Y-24125
X41625Y-30125
X41625Y-31625
X41625Y-33125
X41625Y-36125
X41625Y-37625
X41625Y-39125
X41625Y-42125
X41625Y-43625
X41625Y-45125
X42875Y-24125
X44375Y-24125
X47375Y-24125
X47625Y-36125
X47625Y-37625
X47625Y-39125
X47625Y-42125
X47625Y-43625
X47625Y-45125
X48875Y-24125
X50375Y-24125
X53375Y-24125
X53625Y-36125
X53625Y-37625
X53625Y-39125
X54875Y-24125
X55125Y-48375
X56375Y-24125
X56625Y-48375
X57125Y-28125
X57125Y-29625
X57125Y-31125
X58125Y-48375
X59375Y-24125
X60875Y-24125
X62375Y-24125
X65375Y-24125
X66875Y-24125
X68375Y-24125
X76125Y-23375
X76125Y-24875
X76125Y-26375
X76125Y-29125
X76125Y-30625
X76125Y-32125
X76125Y-34875
X76125Y-36375
X76125Y-37875
X76125Y-40625
X76125Y-42125
X76125Y-43625
X76125Y-46375
X76125Y-47875
X76125Y-49375
X81125Y-23375
X81125Y-24875
X81125Y-26375
X81125Y-29125
X81125Y-30625
X81125Y-32125
X81125Y-34875
X81125Y-36375
X81125Y-37875
X81125Y-40625
X81125Y-42125
X81125Y-43625
X81125Y-46375
X81125Y-47875
X81125Y-49375
T5
X44375Y-28425
X44625Y-48425
X46875Y-28425
X48125Y-48425
X49375Y-28425
X51625Y-48425
X51875Y-28425
T6
X57200Y-34600
X57200Y-41800
T0
M30
