G04 #@! TF.FileFunction,Soldermask,Bot*
%FSLAX46Y46*%
G04 Gerber Fmt 4.6, Leading zero omitted, Abs format (unit mm)*
G04 Created by KiCad (PCBNEW 4.0.4-stable) date Mon Oct  3 10:35:52 2016*
%MOMM*%
%LPD*%
G01*
G04 APERTURE LIST*
%ADD10C,0.100000*%
%ADD11C,6.400000*%
%ADD12R,1.300000X1.300000*%
%ADD13C,1.300000*%
%ADD14R,1.000000X1.600000*%
%ADD15C,2.000000*%
%ADD16R,2.000000X2.000000*%
%ADD17R,0.500000X0.900000*%
%ADD18R,0.900000X0.500000*%
%ADD19C,1.524000*%
%ADD20C,3.048000*%
G04 APERTURE END LIST*
D10*
D11*
X145288000Y-87884000D03*
D12*
X140017500Y-115252500D03*
D13*
X142017500Y-115252500D03*
D12*
X146304000Y-115316000D03*
D13*
X148304000Y-115316000D03*
D14*
X135167500Y-82867500D03*
X132167500Y-82867500D03*
X118657500Y-83502500D03*
X115657500Y-83502500D03*
D12*
X134937500Y-77787500D03*
D13*
X132937500Y-77787500D03*
D12*
X115887500Y-77787500D03*
D13*
X117887500Y-77787500D03*
D12*
X163512500Y-68262500D03*
D13*
X161512500Y-68262500D03*
D12*
X175577500Y-68262500D03*
D13*
X173577500Y-68262500D03*
D12*
X198437500Y-66992500D03*
D13*
X198437500Y-64992500D03*
D12*
X200977500Y-117157500D03*
D13*
X200977500Y-119157500D03*
D12*
X198437500Y-60642500D03*
D13*
X198437500Y-58642500D03*
D12*
X200977500Y-123507500D03*
D13*
X200977500Y-125507500D03*
D15*
X105727500Y-99377500D03*
D16*
X105727500Y-91757500D03*
D15*
X105727500Y-95567500D03*
X105727500Y-114617500D03*
D16*
X105727500Y-106997500D03*
D15*
X105727500Y-110807500D03*
X120967500Y-114617500D03*
D16*
X120967500Y-106997500D03*
D15*
X120967500Y-110807500D03*
X120967500Y-99377500D03*
D16*
X120967500Y-91757500D03*
D15*
X120967500Y-95567500D03*
X105727500Y-84137500D03*
D16*
X105727500Y-76517500D03*
D15*
X105727500Y-80327500D03*
X136207500Y-99377500D03*
D16*
X136207500Y-91757500D03*
D15*
X136207500Y-95567500D03*
X158432500Y-61277500D03*
D16*
X150812500Y-61277500D03*
D15*
X154622500Y-61277500D03*
X173672500Y-61277500D03*
D16*
X166052500Y-61277500D03*
D15*
X169862500Y-61277500D03*
X145097500Y-79057500D03*
D16*
X145097500Y-71437500D03*
D15*
X145097500Y-75247500D03*
X143192500Y-61277500D03*
D16*
X135572500Y-61277500D03*
D15*
X139382500Y-61277500D03*
X127952500Y-61277500D03*
D16*
X120332500Y-61277500D03*
D15*
X124142500Y-61277500D03*
X112712500Y-61277500D03*
D16*
X105092500Y-61277500D03*
D15*
X108902500Y-61277500D03*
X193357500Y-117792500D03*
D16*
X193357500Y-125412500D03*
D15*
X193357500Y-121602500D03*
X206057500Y-110807500D03*
D16*
X206057500Y-103187500D03*
D15*
X206057500Y-106997500D03*
X193357500Y-103187500D03*
D16*
X193357500Y-110807500D03*
D15*
X193357500Y-106997500D03*
X206057500Y-66992500D03*
D16*
X206057500Y-59372500D03*
D15*
X206057500Y-63182500D03*
X193357500Y-73977500D03*
D16*
X193357500Y-81597500D03*
D15*
X193357500Y-77787500D03*
X206057500Y-81597500D03*
D16*
X206057500Y-73977500D03*
D15*
X206057500Y-77787500D03*
X193357500Y-59372500D03*
D16*
X193357500Y-66992500D03*
D15*
X193357500Y-63182500D03*
X206057500Y-96202500D03*
D16*
X206057500Y-88582500D03*
D15*
X206057500Y-92392500D03*
X193357500Y-88582500D03*
D16*
X193357500Y-96202500D03*
D15*
X193357500Y-92392500D03*
X206057500Y-125412500D03*
D16*
X206057500Y-117792500D03*
D15*
X206057500Y-121602500D03*
X140017500Y-122872500D03*
D16*
X147637500Y-122872500D03*
D15*
X143827500Y-122872500D03*
D17*
X127432500Y-122872500D03*
X125932500Y-122872500D03*
D18*
X128587500Y-79172500D03*
X128587500Y-77672500D03*
D19*
X125412500Y-82232500D03*
X122872500Y-79692500D03*
X122872500Y-84772500D03*
X179387500Y-61912500D03*
X181927500Y-64452500D03*
X181927500Y-59372500D03*
D20*
X113347500Y-122999500D03*
X122237500Y-122999500D03*
X131127500Y-122999500D03*
X131762500Y-72199500D03*
X125412500Y-72199500D03*
X119062500Y-72199500D03*
X112712500Y-72199500D03*
D11*
X145288000Y-106172000D03*
M02*
