G04 #@! TF.FileFunction,Copper,L3,Inr,Signal*
%FSLAX46Y46*%
G04 Gerber Fmt 4.6, Leading zero omitted, Abs format (unit mm)*
G04 Created by KiCad (PCBNEW (2015-05-27 BZR 5686)-product) date 2015年05月29日 星期五 17时45分10秒*
%MOMM*%
G01*
G04 APERTURE LIST*
%ADD10C,0.100000*%
%ADD11R,1.300000X1.300000*%
%ADD12C,1.300000*%
%ADD13C,2.000000*%
%ADD14R,2.000000X2.000000*%
%ADD15C,1.524000*%
%ADD16C,3.048000*%
%ADD17C,0.600000*%
%ADD18C,1.500000*%
%ADD19C,3.000000*%
%ADD20C,0.152400*%
G04 APERTURE END LIST*
D10*
D11*
X137160000Y-117475000D03*
D12*
X139160000Y-117475000D03*
D11*
X144780000Y-117475000D03*
D12*
X146780000Y-117475000D03*
D11*
X176530000Y-106680000D03*
D12*
X176530000Y-108680000D03*
D11*
X176530000Y-118745000D03*
D12*
X176530000Y-116745000D03*
D13*
X156210000Y-119380000D03*
D14*
X156210000Y-127000000D03*
D13*
X156210000Y-123190000D03*
X163830000Y-133985000D03*
D14*
X171450000Y-133985000D03*
D13*
X167640000Y-133985000D03*
X178435000Y-98425000D03*
D14*
X170815000Y-98425000D03*
D13*
X174625000Y-98425000D03*
X177800000Y-133985000D03*
D14*
X185420000Y-133985000D03*
D13*
X181610000Y-133985000D03*
X156210000Y-106045000D03*
D14*
X156210000Y-113665000D03*
D13*
X156210000Y-109855000D03*
X163195000Y-98425000D03*
D14*
X155575000Y-98425000D03*
D13*
X159385000Y-98425000D03*
X137160000Y-128270000D03*
D14*
X144780000Y-128270000D03*
D13*
X140970000Y-128270000D03*
D14*
X142875000Y-142240000D03*
D13*
X146685000Y-142240000D03*
D14*
X175260000Y-142240000D03*
D13*
X179070000Y-142240000D03*
D14*
X132080000Y-142240000D03*
D13*
X135890000Y-142240000D03*
D14*
X186055000Y-142240000D03*
D13*
X189865000Y-142240000D03*
D14*
X153670000Y-142240000D03*
D13*
X157480000Y-142240000D03*
D14*
X164465000Y-142240000D03*
D13*
X168275000Y-142240000D03*
D15*
X189865000Y-118745000D03*
X192405000Y-113665000D03*
X189865000Y-106045000D03*
D16*
X133223000Y-122555000D03*
X133223000Y-113665000D03*
X133223000Y-104775000D03*
X184023000Y-104140000D03*
X184023000Y-110490000D03*
X184023000Y-116840000D03*
X184023000Y-123190000D03*
D17*
X179070000Y-105410000D03*
X179705000Y-115570000D03*
X179705000Y-109220000D03*
X179705000Y-120015000D03*
D18*
X179070000Y-105410000D02*
X177800000Y-105410000D01*
X177800000Y-105410000D02*
X176530000Y-106680000D01*
X176530000Y-106680000D02*
X177800000Y-106680000D01*
X177800000Y-106680000D02*
X179070000Y-105410000D01*
X176530000Y-108680000D02*
X179165000Y-108680000D01*
X179165000Y-108680000D02*
X179705000Y-109220000D01*
X179705000Y-109220000D02*
X177070000Y-109220000D01*
X177070000Y-109220000D02*
X176530000Y-108680000D01*
X176530000Y-116745000D02*
X176625000Y-116745000D01*
X176625000Y-116745000D02*
X177800000Y-115570000D01*
X177800000Y-115570000D02*
X179705000Y-115570000D01*
X176530000Y-116745000D02*
X178530000Y-116745000D01*
X178530000Y-116745000D02*
X179705000Y-115570000D01*
X179705000Y-120015000D02*
X177800000Y-120015000D01*
X177800000Y-120015000D02*
X176530000Y-118745000D01*
X176530000Y-118745000D02*
X178435000Y-118745000D01*
X178435000Y-118745000D02*
X179705000Y-120015000D01*
D19*
X156210000Y-127000000D02*
X159385000Y-127000000D01*
X159385000Y-127000000D02*
X165735000Y-120650000D01*
X180022500Y-127952500D02*
X175577500Y-123507500D01*
X175577500Y-123507500D02*
X175577500Y-124142500D01*
X175577500Y-124142500D02*
X175895000Y-124460000D01*
X175895000Y-124460000D02*
X175895000Y-123190000D01*
X161925000Y-113665000D02*
X165100000Y-113665000D01*
X165100000Y-113665000D02*
X169545000Y-118110000D01*
X170815000Y-98425000D02*
X170815000Y-99060000D01*
X170815000Y-99060000D02*
X173355000Y-101600000D01*
X173355000Y-101600000D02*
X173355000Y-116840000D01*
X155575000Y-98425000D02*
X155575000Y-100965000D01*
X155575000Y-100965000D02*
X169545000Y-114935000D01*
X169545000Y-114935000D02*
X169545000Y-118110000D01*
X169545000Y-118110000D02*
X169545000Y-118745000D01*
X156210000Y-113665000D02*
X159385000Y-113665000D01*
X159385000Y-113665000D02*
X164465000Y-118745000D01*
X156210000Y-113665000D02*
X161290000Y-118745000D01*
X161290000Y-118745000D02*
X164465000Y-118745000D01*
X164465000Y-118745000D02*
X169545000Y-118745000D01*
X169545000Y-118745000D02*
X170815000Y-117475000D01*
X163830000Y-127000000D02*
X164465000Y-127000000D01*
X164465000Y-127000000D02*
X169545000Y-121920000D01*
X169545000Y-121920000D02*
X169545000Y-123825000D01*
X156210000Y-127000000D02*
X157480000Y-127000000D01*
X157480000Y-127000000D02*
X160020000Y-124460000D01*
X160020000Y-124460000D02*
X164465000Y-124460000D01*
X164465000Y-124460000D02*
X168910000Y-120015000D01*
X185420000Y-133985000D02*
X185420000Y-133350000D01*
X185420000Y-133350000D02*
X180022500Y-127952500D01*
X180022500Y-127952500D02*
X179070000Y-127000000D01*
X179070000Y-127000000D02*
X179070000Y-120015000D01*
X171450000Y-133985000D02*
X171450000Y-127635000D01*
X171450000Y-127635000D02*
X175895000Y-123190000D01*
X175895000Y-123190000D02*
X179070000Y-120015000D01*
X179070000Y-120015000D02*
X179705000Y-120015000D01*
X171450000Y-133985000D02*
X171450000Y-123825000D01*
X171450000Y-123825000D02*
X175260000Y-120015000D01*
X170815000Y-98425000D02*
X170815000Y-117475000D01*
X170815000Y-117475000D02*
X173355000Y-120015000D01*
X173355000Y-120015000D02*
X173990000Y-120015000D01*
X173990000Y-120015000D02*
X173990000Y-119380000D01*
X185420000Y-133985000D02*
X185420000Y-131445000D01*
X185420000Y-131445000D02*
X179705000Y-125730000D01*
X179705000Y-125730000D02*
X179705000Y-120015000D01*
X179705000Y-120015000D02*
X179705000Y-120015000D01*
X171450000Y-133985000D02*
X171450000Y-128270000D01*
X171450000Y-128270000D02*
X179705000Y-120015000D01*
X156210000Y-127000000D02*
X163830000Y-127000000D01*
X163830000Y-127000000D02*
X166370000Y-127000000D01*
X166370000Y-127000000D02*
X169545000Y-123825000D01*
X169545000Y-123825000D02*
X173990000Y-119380000D01*
X173990000Y-119380000D02*
X173355000Y-120015000D01*
X173355000Y-120015000D02*
X174625000Y-120015000D01*
X174625000Y-120015000D02*
X173355000Y-120015000D01*
X156210000Y-113665000D02*
X161925000Y-113665000D01*
X161925000Y-113665000D02*
X162560000Y-113665000D01*
X162560000Y-113665000D02*
X168910000Y-120015000D01*
X168910000Y-120015000D02*
X173355000Y-120015000D01*
X173355000Y-120015000D02*
X175260000Y-120015000D01*
X175260000Y-120015000D02*
X174625000Y-120015000D01*
X155575000Y-98425000D02*
X155575000Y-99060000D01*
X155575000Y-99060000D02*
X173355000Y-116840000D01*
X173355000Y-116840000D02*
X173355000Y-118110000D01*
X179705000Y-120015000D02*
X174625000Y-120015000D01*
X174625000Y-120015000D02*
X175260000Y-120015000D01*
X175260000Y-120015000D02*
X173355000Y-118110000D01*
X173355000Y-118110000D02*
X173355000Y-104775000D01*
X173355000Y-104775000D02*
X170815000Y-102235000D01*
X170815000Y-102235000D02*
X170815000Y-98425000D01*
D20*
G36*
X180898800Y-137083800D02*
X179384474Y-137083800D01*
X179384474Y-133671266D01*
X179143802Y-133088795D01*
X178698549Y-132642764D01*
X178116499Y-132401076D01*
X177486266Y-132400526D01*
X176903795Y-132641198D01*
X176457764Y-133086451D01*
X176352200Y-133340677D01*
X176352200Y-119833150D01*
X176352200Y-118922800D01*
X175441850Y-118922800D01*
X175295800Y-119068850D01*
X175295800Y-119511205D01*
X175384739Y-119725923D01*
X175549078Y-119890261D01*
X175763796Y-119979200D01*
X175996205Y-119979200D01*
X176206150Y-119979200D01*
X176352200Y-119833150D01*
X176352200Y-133340677D01*
X176216076Y-133668501D01*
X176215526Y-134298734D01*
X176456198Y-134881205D01*
X176901451Y-135327236D01*
X177483501Y-135568924D01*
X178113734Y-135569474D01*
X178696205Y-135328802D01*
X179142236Y-134883549D01*
X179383924Y-134301499D01*
X179384474Y-133671266D01*
X179384474Y-137083800D01*
X173034200Y-137083800D01*
X173034200Y-135101204D01*
X173034200Y-134868795D01*
X173034200Y-134308850D01*
X173034200Y-133661150D01*
X173034200Y-133101205D01*
X173034200Y-132868796D01*
X172945261Y-132654078D01*
X172780923Y-132489739D01*
X172566205Y-132400800D01*
X172399200Y-132400800D01*
X172399200Y-99541204D01*
X172399200Y-99308795D01*
X172399200Y-98748850D01*
X172399200Y-98101150D01*
X172399200Y-97541205D01*
X172399200Y-97308796D01*
X172310261Y-97094078D01*
X172145923Y-96929739D01*
X171931205Y-96840800D01*
X171138850Y-96840800D01*
X170992800Y-96986850D01*
X170992800Y-98247200D01*
X172253150Y-98247200D01*
X172399200Y-98101150D01*
X172399200Y-98748850D01*
X172253150Y-98602800D01*
X170992800Y-98602800D01*
X170992800Y-99863150D01*
X171138850Y-100009200D01*
X171931205Y-100009200D01*
X172145923Y-99920261D01*
X172310261Y-99755922D01*
X172399200Y-99541204D01*
X172399200Y-132400800D01*
X171773850Y-132400800D01*
X171627800Y-132546850D01*
X171627800Y-133807200D01*
X172888150Y-133807200D01*
X173034200Y-133661150D01*
X173034200Y-134308850D01*
X172888150Y-134162800D01*
X171627800Y-134162800D01*
X171627800Y-135423150D01*
X171773850Y-135569200D01*
X172566205Y-135569200D01*
X172780923Y-135480261D01*
X172945261Y-135315922D01*
X173034200Y-135101204D01*
X173034200Y-137083800D01*
X171272200Y-137083800D01*
X171272200Y-135423150D01*
X171272200Y-134162800D01*
X171272200Y-133807200D01*
X171272200Y-132546850D01*
X171126150Y-132400800D01*
X170637200Y-132400800D01*
X170637200Y-99863150D01*
X170637200Y-98602800D01*
X170637200Y-98247200D01*
X170637200Y-96986850D01*
X170491150Y-96840800D01*
X169698795Y-96840800D01*
X169484077Y-96929739D01*
X169319739Y-97094078D01*
X169230800Y-97308796D01*
X169230800Y-97541205D01*
X169230800Y-98101150D01*
X169376850Y-98247200D01*
X170637200Y-98247200D01*
X170637200Y-98602800D01*
X169376850Y-98602800D01*
X169230800Y-98748850D01*
X169230800Y-99308795D01*
X169230800Y-99541204D01*
X169319739Y-99755922D01*
X169484077Y-99920261D01*
X169698795Y-100009200D01*
X170491150Y-100009200D01*
X170637200Y-99863150D01*
X170637200Y-132400800D01*
X170333795Y-132400800D01*
X170119077Y-132489739D01*
X169954739Y-132654078D01*
X169865800Y-132868796D01*
X169865800Y-133101205D01*
X169865800Y-133661150D01*
X170011850Y-133807200D01*
X171272200Y-133807200D01*
X171272200Y-134162800D01*
X170011850Y-134162800D01*
X169865800Y-134308850D01*
X169865800Y-134868795D01*
X169865800Y-135101204D01*
X169954739Y-135315922D01*
X170119077Y-135480261D01*
X170333795Y-135569200D01*
X171126150Y-135569200D01*
X171272200Y-135423150D01*
X171272200Y-137083800D01*
X169224474Y-137083800D01*
X169224474Y-133671266D01*
X168983802Y-133088795D01*
X168538549Y-132642764D01*
X167956499Y-132401076D01*
X167326266Y-132400526D01*
X166743795Y-132641198D01*
X166297764Y-133086451D01*
X166056076Y-133668501D01*
X166055526Y-134298734D01*
X166296198Y-134881205D01*
X166741451Y-135327236D01*
X167323501Y-135568924D01*
X167953734Y-135569474D01*
X168536205Y-135328802D01*
X168982236Y-134883549D01*
X169223924Y-134301499D01*
X169224474Y-133671266D01*
X169224474Y-137083800D01*
X165414474Y-137083800D01*
X165414474Y-133671266D01*
X165173802Y-133088795D01*
X164779474Y-132693777D01*
X164779474Y-98111266D01*
X164538802Y-97528795D01*
X164093549Y-97082764D01*
X163511499Y-96841076D01*
X162881266Y-96840526D01*
X162298795Y-97081198D01*
X161852764Y-97526451D01*
X161611076Y-98108501D01*
X161610526Y-98738734D01*
X161851198Y-99321205D01*
X162296451Y-99767236D01*
X162878501Y-100008924D01*
X163508734Y-100009474D01*
X164091205Y-99768802D01*
X164537236Y-99323549D01*
X164778924Y-98741499D01*
X164779474Y-98111266D01*
X164779474Y-132693777D01*
X164728549Y-132642764D01*
X164146499Y-132401076D01*
X163516266Y-132400526D01*
X162933795Y-132641198D01*
X162487764Y-133086451D01*
X162246076Y-133668501D01*
X162245526Y-134298734D01*
X162486198Y-134881205D01*
X162931451Y-135327236D01*
X163513501Y-135568924D01*
X164143734Y-135569474D01*
X164726205Y-135328802D01*
X165172236Y-134883549D01*
X165413924Y-134301499D01*
X165414474Y-133671266D01*
X165414474Y-137083800D01*
X160969474Y-137083800D01*
X160969474Y-98111266D01*
X160728802Y-97528795D01*
X160283549Y-97082764D01*
X159701499Y-96841076D01*
X159071266Y-96840526D01*
X158488795Y-97081198D01*
X158042764Y-97526451D01*
X157801076Y-98108501D01*
X157800526Y-98738734D01*
X158041198Y-99321205D01*
X158486451Y-99767236D01*
X159068501Y-100008924D01*
X159698734Y-100009474D01*
X160281205Y-99768802D01*
X160727236Y-99323549D01*
X160968924Y-98741499D01*
X160969474Y-98111266D01*
X160969474Y-137083800D01*
X157794474Y-137083800D01*
X157794474Y-122876266D01*
X157794474Y-119066266D01*
X157794474Y-109541266D01*
X157794474Y-105731266D01*
X157553802Y-105148795D01*
X157159200Y-104753503D01*
X157159200Y-99541204D01*
X157159200Y-99308795D01*
X157159200Y-98748850D01*
X157159200Y-98101150D01*
X157159200Y-97541205D01*
X157159200Y-97308796D01*
X157070261Y-97094078D01*
X156905923Y-96929739D01*
X156691205Y-96840800D01*
X155898850Y-96840800D01*
X155752800Y-96986850D01*
X155752800Y-98247200D01*
X157013150Y-98247200D01*
X157159200Y-98101150D01*
X157159200Y-98748850D01*
X157013150Y-98602800D01*
X155752800Y-98602800D01*
X155752800Y-99863150D01*
X155898850Y-100009200D01*
X156691205Y-100009200D01*
X156905923Y-99920261D01*
X157070261Y-99755922D01*
X157159200Y-99541204D01*
X157159200Y-104753503D01*
X157108549Y-104702764D01*
X156526499Y-104461076D01*
X155896266Y-104460526D01*
X155397200Y-104666735D01*
X155397200Y-99863150D01*
X155397200Y-98602800D01*
X155397200Y-98247200D01*
X155397200Y-96986850D01*
X155251150Y-96840800D01*
X154458795Y-96840800D01*
X154244077Y-96929739D01*
X154079739Y-97094078D01*
X153990800Y-97308796D01*
X153990800Y-97541205D01*
X153990800Y-98101150D01*
X154136850Y-98247200D01*
X155397200Y-98247200D01*
X155397200Y-98602800D01*
X154136850Y-98602800D01*
X153990800Y-98748850D01*
X153990800Y-99308795D01*
X153990800Y-99541204D01*
X154079739Y-99755922D01*
X154244077Y-99920261D01*
X154458795Y-100009200D01*
X155251150Y-100009200D01*
X155397200Y-99863150D01*
X155397200Y-104666735D01*
X155313795Y-104701198D01*
X154867764Y-105146451D01*
X154626076Y-105728501D01*
X154625526Y-106358734D01*
X154866198Y-106941205D01*
X155311451Y-107387236D01*
X155893501Y-107628924D01*
X156523734Y-107629474D01*
X157106205Y-107388802D01*
X157552236Y-106943549D01*
X157793924Y-106361499D01*
X157794474Y-105731266D01*
X157794474Y-109541266D01*
X157553802Y-108958795D01*
X157108549Y-108512764D01*
X156526499Y-108271076D01*
X155896266Y-108270526D01*
X155313795Y-108511198D01*
X154867764Y-108956451D01*
X154626076Y-109538501D01*
X154625526Y-110168734D01*
X154866198Y-110751205D01*
X155311451Y-111197236D01*
X155893501Y-111438924D01*
X156523734Y-111439474D01*
X157106205Y-111198802D01*
X157552236Y-110753549D01*
X157793924Y-110171499D01*
X157794474Y-109541266D01*
X157794474Y-119066266D01*
X157794200Y-119065602D01*
X157794200Y-114781205D01*
X157794200Y-113988850D01*
X157794200Y-113341150D01*
X157794200Y-112548795D01*
X157705261Y-112334077D01*
X157540922Y-112169739D01*
X157326204Y-112080800D01*
X157093795Y-112080800D01*
X156533850Y-112080800D01*
X156387800Y-112226850D01*
X156387800Y-113487200D01*
X157648150Y-113487200D01*
X157794200Y-113341150D01*
X157794200Y-113988850D01*
X157648150Y-113842800D01*
X156387800Y-113842800D01*
X156387800Y-115103150D01*
X156533850Y-115249200D01*
X157093795Y-115249200D01*
X157326204Y-115249200D01*
X157540922Y-115160261D01*
X157705261Y-114995923D01*
X157794200Y-114781205D01*
X157794200Y-119065602D01*
X157553802Y-118483795D01*
X157108549Y-118037764D01*
X156526499Y-117796076D01*
X156032200Y-117795644D01*
X156032200Y-115103150D01*
X156032200Y-113842800D01*
X156032200Y-113487200D01*
X156032200Y-112226850D01*
X155886150Y-112080800D01*
X155326205Y-112080800D01*
X155093796Y-112080800D01*
X154879078Y-112169739D01*
X154714739Y-112334077D01*
X154625800Y-112548795D01*
X154625800Y-113341150D01*
X154771850Y-113487200D01*
X156032200Y-113487200D01*
X156032200Y-113842800D01*
X154771850Y-113842800D01*
X154625800Y-113988850D01*
X154625800Y-114781205D01*
X154714739Y-114995923D01*
X154879078Y-115160261D01*
X155093796Y-115249200D01*
X155326205Y-115249200D01*
X155886150Y-115249200D01*
X156032200Y-115103150D01*
X156032200Y-117795644D01*
X155896266Y-117795526D01*
X155313795Y-118036198D01*
X154867764Y-118481451D01*
X154626076Y-119063501D01*
X154625526Y-119693734D01*
X154866198Y-120276205D01*
X155311451Y-120722236D01*
X155893501Y-120963924D01*
X156523734Y-120964474D01*
X157106205Y-120723802D01*
X157552236Y-120278549D01*
X157793924Y-119696499D01*
X157794474Y-119066266D01*
X157794474Y-122876266D01*
X157553802Y-122293795D01*
X157108549Y-121847764D01*
X156526499Y-121606076D01*
X155896266Y-121605526D01*
X155313795Y-121846198D01*
X154867764Y-122291451D01*
X154626076Y-122873501D01*
X154625526Y-123503734D01*
X154866198Y-124086205D01*
X155311451Y-124532236D01*
X155893501Y-124773924D01*
X156523734Y-124774474D01*
X157106205Y-124533802D01*
X157552236Y-124088549D01*
X157793924Y-123506499D01*
X157794474Y-122876266D01*
X157794474Y-137083800D01*
X157794200Y-137083800D01*
X157794200Y-128116205D01*
X157794200Y-127323850D01*
X157794200Y-126676150D01*
X157794200Y-125883795D01*
X157705261Y-125669077D01*
X157540922Y-125504739D01*
X157326204Y-125415800D01*
X157093795Y-125415800D01*
X156533850Y-125415800D01*
X156387800Y-125561850D01*
X156387800Y-126822200D01*
X157648150Y-126822200D01*
X157794200Y-126676150D01*
X157794200Y-127323850D01*
X157648150Y-127177800D01*
X156387800Y-127177800D01*
X156387800Y-128438150D01*
X156533850Y-128584200D01*
X157093795Y-128584200D01*
X157326204Y-128584200D01*
X157540922Y-128495261D01*
X157705261Y-128330923D01*
X157794200Y-128116205D01*
X157794200Y-137083800D01*
X156032200Y-137083800D01*
X156032200Y-128438150D01*
X156032200Y-127177800D01*
X156032200Y-126822200D01*
X156032200Y-125561850D01*
X155886150Y-125415800D01*
X155326205Y-125415800D01*
X155093796Y-125415800D01*
X154879078Y-125504739D01*
X154714739Y-125669077D01*
X154625800Y-125883795D01*
X154625800Y-126676150D01*
X154771850Y-126822200D01*
X156032200Y-126822200D01*
X156032200Y-127177800D01*
X154771850Y-127177800D01*
X154625800Y-127323850D01*
X154625800Y-128116205D01*
X154714739Y-128330923D01*
X154879078Y-128495261D01*
X155093796Y-128584200D01*
X155326205Y-128584200D01*
X155886150Y-128584200D01*
X156032200Y-128438150D01*
X156032200Y-137083800D01*
X150526563Y-137083800D01*
X148062763Y-134620000D01*
X151206200Y-131476563D01*
X151206200Y-97186563D01*
X153066563Y-95326200D01*
X180898800Y-95326200D01*
X180898800Y-105333800D01*
X180389042Y-105333800D01*
X180302640Y-104899424D01*
X180019474Y-104475635D01*
X180019474Y-98111266D01*
X179778802Y-97528795D01*
X179333549Y-97082764D01*
X178751499Y-96841076D01*
X178121266Y-96840526D01*
X177538795Y-97081198D01*
X177092764Y-97526451D01*
X176851076Y-98108501D01*
X176850526Y-98738734D01*
X177091198Y-99321205D01*
X177536451Y-99767236D01*
X178118501Y-100008924D01*
X178748734Y-100009474D01*
X179331205Y-99768802D01*
X179777236Y-99323549D01*
X180018924Y-98741499D01*
X180019474Y-98111266D01*
X180019474Y-104475635D01*
X180013422Y-104466578D01*
X179580576Y-104177360D01*
X179070000Y-104075800D01*
X177800000Y-104075800D01*
X177289423Y-104177360D01*
X176856578Y-104466578D01*
X176209474Y-105113682D01*
X176209474Y-98111266D01*
X175968802Y-97528795D01*
X175523549Y-97082764D01*
X174941499Y-96841076D01*
X174311266Y-96840526D01*
X173728795Y-97081198D01*
X173282764Y-97526451D01*
X173041076Y-98108501D01*
X173040526Y-98738734D01*
X173281198Y-99321205D01*
X173726451Y-99767236D01*
X174308501Y-100008924D01*
X174938734Y-100009474D01*
X175521205Y-99768802D01*
X175967236Y-99323549D01*
X176208924Y-98741499D01*
X176209474Y-98111266D01*
X176209474Y-105113682D01*
X175888801Y-105434355D01*
X175880000Y-105434355D01*
X175657247Y-105477574D01*
X175461467Y-105606180D01*
X175330414Y-105800331D01*
X175284355Y-106030000D01*
X175284355Y-106234804D01*
X175195800Y-106680000D01*
X175284355Y-107125195D01*
X175284355Y-107330000D01*
X175327574Y-107552753D01*
X175456180Y-107748533D01*
X175540541Y-107805477D01*
X175297360Y-108169424D01*
X175195800Y-108680000D01*
X175297360Y-109190576D01*
X175586578Y-109623422D01*
X176126578Y-110163422D01*
X176453800Y-110382064D01*
X176453800Y-115029356D01*
X175872875Y-115610280D01*
X175586578Y-115801578D01*
X175297360Y-116234424D01*
X175195800Y-116745000D01*
X175297360Y-117255576D01*
X175536036Y-117612780D01*
X175384739Y-117764077D01*
X175295800Y-117978795D01*
X175295800Y-118421150D01*
X175441850Y-118567200D01*
X176352200Y-118567200D01*
X176352200Y-118547200D01*
X176453800Y-118547200D01*
X176453800Y-118776563D01*
X176707800Y-119030563D01*
X176707800Y-119833150D01*
X176853850Y-119979200D01*
X177063795Y-119979200D01*
X177296204Y-119979200D01*
X177510922Y-119890261D01*
X177539210Y-119861973D01*
X177768437Y-120091200D01*
X180898800Y-120091200D01*
X180898800Y-132564755D01*
X180713795Y-132641198D01*
X180267764Y-133086451D01*
X180026076Y-133668501D01*
X180025526Y-134298734D01*
X180266198Y-134881205D01*
X180711451Y-135327236D01*
X180898800Y-135405030D01*
X180898800Y-137083800D01*
X180898800Y-137083800D01*
G37*
X180898800Y-137083800D02*
X179384474Y-137083800D01*
X179384474Y-133671266D01*
X179143802Y-133088795D01*
X178698549Y-132642764D01*
X178116499Y-132401076D01*
X177486266Y-132400526D01*
X176903795Y-132641198D01*
X176457764Y-133086451D01*
X176352200Y-133340677D01*
X176352200Y-119833150D01*
X176352200Y-118922800D01*
X175441850Y-118922800D01*
X175295800Y-119068850D01*
X175295800Y-119511205D01*
X175384739Y-119725923D01*
X175549078Y-119890261D01*
X175763796Y-119979200D01*
X175996205Y-119979200D01*
X176206150Y-119979200D01*
X176352200Y-119833150D01*
X176352200Y-133340677D01*
X176216076Y-133668501D01*
X176215526Y-134298734D01*
X176456198Y-134881205D01*
X176901451Y-135327236D01*
X177483501Y-135568924D01*
X178113734Y-135569474D01*
X178696205Y-135328802D01*
X179142236Y-134883549D01*
X179383924Y-134301499D01*
X179384474Y-133671266D01*
X179384474Y-137083800D01*
X173034200Y-137083800D01*
X173034200Y-135101204D01*
X173034200Y-134868795D01*
X173034200Y-134308850D01*
X173034200Y-133661150D01*
X173034200Y-133101205D01*
X173034200Y-132868796D01*
X172945261Y-132654078D01*
X172780923Y-132489739D01*
X172566205Y-132400800D01*
X172399200Y-132400800D01*
X172399200Y-99541204D01*
X172399200Y-99308795D01*
X172399200Y-98748850D01*
X172399200Y-98101150D01*
X172399200Y-97541205D01*
X172399200Y-97308796D01*
X172310261Y-97094078D01*
X172145923Y-96929739D01*
X171931205Y-96840800D01*
X171138850Y-96840800D01*
X170992800Y-96986850D01*
X170992800Y-98247200D01*
X172253150Y-98247200D01*
X172399200Y-98101150D01*
X172399200Y-98748850D01*
X172253150Y-98602800D01*
X170992800Y-98602800D01*
X170992800Y-99863150D01*
X171138850Y-100009200D01*
X171931205Y-100009200D01*
X172145923Y-99920261D01*
X172310261Y-99755922D01*
X172399200Y-99541204D01*
X172399200Y-132400800D01*
X171773850Y-132400800D01*
X171627800Y-132546850D01*
X171627800Y-133807200D01*
X172888150Y-133807200D01*
X173034200Y-133661150D01*
X173034200Y-134308850D01*
X172888150Y-134162800D01*
X171627800Y-134162800D01*
X171627800Y-135423150D01*
X171773850Y-135569200D01*
X172566205Y-135569200D01*
X172780923Y-135480261D01*
X172945261Y-135315922D01*
X173034200Y-135101204D01*
X173034200Y-137083800D01*
X171272200Y-137083800D01*
X171272200Y-135423150D01*
X171272200Y-134162800D01*
X171272200Y-133807200D01*
X171272200Y-132546850D01*
X171126150Y-132400800D01*
X170637200Y-132400800D01*
X170637200Y-99863150D01*
X170637200Y-98602800D01*
X170637200Y-98247200D01*
X170637200Y-96986850D01*
X170491150Y-96840800D01*
X169698795Y-96840800D01*
X169484077Y-96929739D01*
X169319739Y-97094078D01*
X169230800Y-97308796D01*
X169230800Y-97541205D01*
X169230800Y-98101150D01*
X169376850Y-98247200D01*
X170637200Y-98247200D01*
X170637200Y-98602800D01*
X169376850Y-98602800D01*
X169230800Y-98748850D01*
X169230800Y-99308795D01*
X169230800Y-99541204D01*
X169319739Y-99755922D01*
X169484077Y-99920261D01*
X169698795Y-100009200D01*
X170491150Y-100009200D01*
X170637200Y-99863150D01*
X170637200Y-132400800D01*
X170333795Y-132400800D01*
X170119077Y-132489739D01*
X169954739Y-132654078D01*
X169865800Y-132868796D01*
X169865800Y-133101205D01*
X169865800Y-133661150D01*
X170011850Y-133807200D01*
X171272200Y-133807200D01*
X171272200Y-134162800D01*
X170011850Y-134162800D01*
X169865800Y-134308850D01*
X169865800Y-134868795D01*
X169865800Y-135101204D01*
X169954739Y-135315922D01*
X170119077Y-135480261D01*
X170333795Y-135569200D01*
X171126150Y-135569200D01*
X171272200Y-135423150D01*
X171272200Y-137083800D01*
X169224474Y-137083800D01*
X169224474Y-133671266D01*
X168983802Y-133088795D01*
X168538549Y-132642764D01*
X167956499Y-132401076D01*
X167326266Y-132400526D01*
X166743795Y-132641198D01*
X166297764Y-133086451D01*
X166056076Y-133668501D01*
X166055526Y-134298734D01*
X166296198Y-134881205D01*
X166741451Y-135327236D01*
X167323501Y-135568924D01*
X167953734Y-135569474D01*
X168536205Y-135328802D01*
X168982236Y-134883549D01*
X169223924Y-134301499D01*
X169224474Y-133671266D01*
X169224474Y-137083800D01*
X165414474Y-137083800D01*
X165414474Y-133671266D01*
X165173802Y-133088795D01*
X164779474Y-132693777D01*
X164779474Y-98111266D01*
X164538802Y-97528795D01*
X164093549Y-97082764D01*
X163511499Y-96841076D01*
X162881266Y-96840526D01*
X162298795Y-97081198D01*
X161852764Y-97526451D01*
X161611076Y-98108501D01*
X161610526Y-98738734D01*
X161851198Y-99321205D01*
X162296451Y-99767236D01*
X162878501Y-100008924D01*
X163508734Y-100009474D01*
X164091205Y-99768802D01*
X164537236Y-99323549D01*
X164778924Y-98741499D01*
X164779474Y-98111266D01*
X164779474Y-132693777D01*
X164728549Y-132642764D01*
X164146499Y-132401076D01*
X163516266Y-132400526D01*
X162933795Y-132641198D01*
X162487764Y-133086451D01*
X162246076Y-133668501D01*
X162245526Y-134298734D01*
X162486198Y-134881205D01*
X162931451Y-135327236D01*
X163513501Y-135568924D01*
X164143734Y-135569474D01*
X164726205Y-135328802D01*
X165172236Y-134883549D01*
X165413924Y-134301499D01*
X165414474Y-133671266D01*
X165414474Y-137083800D01*
X160969474Y-137083800D01*
X160969474Y-98111266D01*
X160728802Y-97528795D01*
X160283549Y-97082764D01*
X159701499Y-96841076D01*
X159071266Y-96840526D01*
X158488795Y-97081198D01*
X158042764Y-97526451D01*
X157801076Y-98108501D01*
X157800526Y-98738734D01*
X158041198Y-99321205D01*
X158486451Y-99767236D01*
X159068501Y-100008924D01*
X159698734Y-100009474D01*
X160281205Y-99768802D01*
X160727236Y-99323549D01*
X160968924Y-98741499D01*
X160969474Y-98111266D01*
X160969474Y-137083800D01*
X157794474Y-137083800D01*
X157794474Y-122876266D01*
X157794474Y-119066266D01*
X157794474Y-109541266D01*
X157794474Y-105731266D01*
X157553802Y-105148795D01*
X157159200Y-104753503D01*
X157159200Y-99541204D01*
X157159200Y-99308795D01*
X157159200Y-98748850D01*
X157159200Y-98101150D01*
X157159200Y-97541205D01*
X157159200Y-97308796D01*
X157070261Y-97094078D01*
X156905923Y-96929739D01*
X156691205Y-96840800D01*
X155898850Y-96840800D01*
X155752800Y-96986850D01*
X155752800Y-98247200D01*
X157013150Y-98247200D01*
X157159200Y-98101150D01*
X157159200Y-98748850D01*
X157013150Y-98602800D01*
X155752800Y-98602800D01*
X155752800Y-99863150D01*
X155898850Y-100009200D01*
X156691205Y-100009200D01*
X156905923Y-99920261D01*
X157070261Y-99755922D01*
X157159200Y-99541204D01*
X157159200Y-104753503D01*
X157108549Y-104702764D01*
X156526499Y-104461076D01*
X155896266Y-104460526D01*
X155397200Y-104666735D01*
X155397200Y-99863150D01*
X155397200Y-98602800D01*
X155397200Y-98247200D01*
X155397200Y-96986850D01*
X155251150Y-96840800D01*
X154458795Y-96840800D01*
X154244077Y-96929739D01*
X154079739Y-97094078D01*
X153990800Y-97308796D01*
X153990800Y-97541205D01*
X153990800Y-98101150D01*
X154136850Y-98247200D01*
X155397200Y-98247200D01*
X155397200Y-98602800D01*
X154136850Y-98602800D01*
X153990800Y-98748850D01*
X153990800Y-99308795D01*
X153990800Y-99541204D01*
X154079739Y-99755922D01*
X154244077Y-99920261D01*
X154458795Y-100009200D01*
X155251150Y-100009200D01*
X155397200Y-99863150D01*
X155397200Y-104666735D01*
X155313795Y-104701198D01*
X154867764Y-105146451D01*
X154626076Y-105728501D01*
X154625526Y-106358734D01*
X154866198Y-106941205D01*
X155311451Y-107387236D01*
X155893501Y-107628924D01*
X156523734Y-107629474D01*
X157106205Y-107388802D01*
X157552236Y-106943549D01*
X157793924Y-106361499D01*
X157794474Y-105731266D01*
X157794474Y-109541266D01*
X157553802Y-108958795D01*
X157108549Y-108512764D01*
X156526499Y-108271076D01*
X155896266Y-108270526D01*
X155313795Y-108511198D01*
X154867764Y-108956451D01*
X154626076Y-109538501D01*
X154625526Y-110168734D01*
X154866198Y-110751205D01*
X155311451Y-111197236D01*
X155893501Y-111438924D01*
X156523734Y-111439474D01*
X157106205Y-111198802D01*
X157552236Y-110753549D01*
X157793924Y-110171499D01*
X157794474Y-109541266D01*
X157794474Y-119066266D01*
X157794200Y-119065602D01*
X157794200Y-114781205D01*
X157794200Y-113988850D01*
X157794200Y-113341150D01*
X157794200Y-112548795D01*
X157705261Y-112334077D01*
X157540922Y-112169739D01*
X157326204Y-112080800D01*
X157093795Y-112080800D01*
X156533850Y-112080800D01*
X156387800Y-112226850D01*
X156387800Y-113487200D01*
X157648150Y-113487200D01*
X157794200Y-113341150D01*
X157794200Y-113988850D01*
X157648150Y-113842800D01*
X156387800Y-113842800D01*
X156387800Y-115103150D01*
X156533850Y-115249200D01*
X157093795Y-115249200D01*
X157326204Y-115249200D01*
X157540922Y-115160261D01*
X157705261Y-114995923D01*
X157794200Y-114781205D01*
X157794200Y-119065602D01*
X157553802Y-118483795D01*
X157108549Y-118037764D01*
X156526499Y-117796076D01*
X156032200Y-117795644D01*
X156032200Y-115103150D01*
X156032200Y-113842800D01*
X156032200Y-113487200D01*
X156032200Y-112226850D01*
X155886150Y-112080800D01*
X155326205Y-112080800D01*
X155093796Y-112080800D01*
X154879078Y-112169739D01*
X154714739Y-112334077D01*
X154625800Y-112548795D01*
X154625800Y-113341150D01*
X154771850Y-113487200D01*
X156032200Y-113487200D01*
X156032200Y-113842800D01*
X154771850Y-113842800D01*
X154625800Y-113988850D01*
X154625800Y-114781205D01*
X154714739Y-114995923D01*
X154879078Y-115160261D01*
X155093796Y-115249200D01*
X155326205Y-115249200D01*
X155886150Y-115249200D01*
X156032200Y-115103150D01*
X156032200Y-117795644D01*
X155896266Y-117795526D01*
X155313795Y-118036198D01*
X154867764Y-118481451D01*
X154626076Y-119063501D01*
X154625526Y-119693734D01*
X154866198Y-120276205D01*
X155311451Y-120722236D01*
X155893501Y-120963924D01*
X156523734Y-120964474D01*
X157106205Y-120723802D01*
X157552236Y-120278549D01*
X157793924Y-119696499D01*
X157794474Y-119066266D01*
X157794474Y-122876266D01*
X157553802Y-122293795D01*
X157108549Y-121847764D01*
X156526499Y-121606076D01*
X155896266Y-121605526D01*
X155313795Y-121846198D01*
X154867764Y-122291451D01*
X154626076Y-122873501D01*
X154625526Y-123503734D01*
X154866198Y-124086205D01*
X155311451Y-124532236D01*
X155893501Y-124773924D01*
X156523734Y-124774474D01*
X157106205Y-124533802D01*
X157552236Y-124088549D01*
X157793924Y-123506499D01*
X157794474Y-122876266D01*
X157794474Y-137083800D01*
X157794200Y-137083800D01*
X157794200Y-128116205D01*
X157794200Y-127323850D01*
X157794200Y-126676150D01*
X157794200Y-125883795D01*
X157705261Y-125669077D01*
X157540922Y-125504739D01*
X157326204Y-125415800D01*
X157093795Y-125415800D01*
X156533850Y-125415800D01*
X156387800Y-125561850D01*
X156387800Y-126822200D01*
X157648150Y-126822200D01*
X157794200Y-126676150D01*
X157794200Y-127323850D01*
X157648150Y-127177800D01*
X156387800Y-127177800D01*
X156387800Y-128438150D01*
X156533850Y-128584200D01*
X157093795Y-128584200D01*
X157326204Y-128584200D01*
X157540922Y-128495261D01*
X157705261Y-128330923D01*
X157794200Y-128116205D01*
X157794200Y-137083800D01*
X156032200Y-137083800D01*
X156032200Y-128438150D01*
X156032200Y-127177800D01*
X156032200Y-126822200D01*
X156032200Y-125561850D01*
X155886150Y-125415800D01*
X155326205Y-125415800D01*
X155093796Y-125415800D01*
X154879078Y-125504739D01*
X154714739Y-125669077D01*
X154625800Y-125883795D01*
X154625800Y-126676150D01*
X154771850Y-126822200D01*
X156032200Y-126822200D01*
X156032200Y-127177800D01*
X154771850Y-127177800D01*
X154625800Y-127323850D01*
X154625800Y-128116205D01*
X154714739Y-128330923D01*
X154879078Y-128495261D01*
X155093796Y-128584200D01*
X155326205Y-128584200D01*
X155886150Y-128584200D01*
X156032200Y-128438150D01*
X156032200Y-137083800D01*
X150526563Y-137083800D01*
X148062763Y-134620000D01*
X151206200Y-131476563D01*
X151206200Y-97186563D01*
X153066563Y-95326200D01*
X180898800Y-95326200D01*
X180898800Y-105333800D01*
X180389042Y-105333800D01*
X180302640Y-104899424D01*
X180019474Y-104475635D01*
X180019474Y-98111266D01*
X179778802Y-97528795D01*
X179333549Y-97082764D01*
X178751499Y-96841076D01*
X178121266Y-96840526D01*
X177538795Y-97081198D01*
X177092764Y-97526451D01*
X176851076Y-98108501D01*
X176850526Y-98738734D01*
X177091198Y-99321205D01*
X177536451Y-99767236D01*
X178118501Y-100008924D01*
X178748734Y-100009474D01*
X179331205Y-99768802D01*
X179777236Y-99323549D01*
X180018924Y-98741499D01*
X180019474Y-98111266D01*
X180019474Y-104475635D01*
X180013422Y-104466578D01*
X179580576Y-104177360D01*
X179070000Y-104075800D01*
X177800000Y-104075800D01*
X177289423Y-104177360D01*
X176856578Y-104466578D01*
X176209474Y-105113682D01*
X176209474Y-98111266D01*
X175968802Y-97528795D01*
X175523549Y-97082764D01*
X174941499Y-96841076D01*
X174311266Y-96840526D01*
X173728795Y-97081198D01*
X173282764Y-97526451D01*
X173041076Y-98108501D01*
X173040526Y-98738734D01*
X173281198Y-99321205D01*
X173726451Y-99767236D01*
X174308501Y-100008924D01*
X174938734Y-100009474D01*
X175521205Y-99768802D01*
X175967236Y-99323549D01*
X176208924Y-98741499D01*
X176209474Y-98111266D01*
X176209474Y-105113682D01*
X175888801Y-105434355D01*
X175880000Y-105434355D01*
X175657247Y-105477574D01*
X175461467Y-105606180D01*
X175330414Y-105800331D01*
X175284355Y-106030000D01*
X175284355Y-106234804D01*
X175195800Y-106680000D01*
X175284355Y-107125195D01*
X175284355Y-107330000D01*
X175327574Y-107552753D01*
X175456180Y-107748533D01*
X175540541Y-107805477D01*
X175297360Y-108169424D01*
X175195800Y-108680000D01*
X175297360Y-109190576D01*
X175586578Y-109623422D01*
X176126578Y-110163422D01*
X176453800Y-110382064D01*
X176453800Y-115029356D01*
X175872875Y-115610280D01*
X175586578Y-115801578D01*
X175297360Y-116234424D01*
X175195800Y-116745000D01*
X175297360Y-117255576D01*
X175536036Y-117612780D01*
X175384739Y-117764077D01*
X175295800Y-117978795D01*
X175295800Y-118421150D01*
X175441850Y-118567200D01*
X176352200Y-118567200D01*
X176352200Y-118547200D01*
X176453800Y-118547200D01*
X176453800Y-118776563D01*
X176707800Y-119030563D01*
X176707800Y-119833150D01*
X176853850Y-119979200D01*
X177063795Y-119979200D01*
X177296204Y-119979200D01*
X177510922Y-119890261D01*
X177539210Y-119861973D01*
X177768437Y-120091200D01*
X180898800Y-120091200D01*
X180898800Y-132564755D01*
X180713795Y-132641198D01*
X180267764Y-133086451D01*
X180026076Y-133668501D01*
X180025526Y-134298734D01*
X180266198Y-134881205D01*
X180711451Y-135327236D01*
X180898800Y-135405030D01*
X180898800Y-137083800D01*
G36*
X192328800Y-145973800D02*
X191449474Y-145973800D01*
X191449474Y-141926266D01*
X191208802Y-141343795D01*
X190763549Y-140897764D01*
X190181499Y-140656076D01*
X189551266Y-140655526D01*
X188968795Y-140896198D01*
X188522764Y-141341451D01*
X188281076Y-141923501D01*
X188280526Y-142553734D01*
X188521198Y-143136205D01*
X188966451Y-143582236D01*
X189548501Y-143823924D01*
X190178734Y-143824474D01*
X190761205Y-143583802D01*
X191207236Y-143138549D01*
X191448924Y-142556499D01*
X191449474Y-141926266D01*
X191449474Y-145973800D01*
X187639200Y-145973800D01*
X187639200Y-143356204D01*
X187639200Y-143123795D01*
X187639200Y-142563850D01*
X187639200Y-141916150D01*
X187639200Y-141356205D01*
X187639200Y-141123796D01*
X187550261Y-140909078D01*
X187385923Y-140744739D01*
X187171205Y-140655800D01*
X186378850Y-140655800D01*
X186232800Y-140801850D01*
X186232800Y-142062200D01*
X187493150Y-142062200D01*
X187639200Y-141916150D01*
X187639200Y-142563850D01*
X187493150Y-142417800D01*
X186232800Y-142417800D01*
X186232800Y-143678150D01*
X186378850Y-143824200D01*
X187171205Y-143824200D01*
X187385923Y-143735261D01*
X187550261Y-143570922D01*
X187639200Y-143356204D01*
X187639200Y-145973800D01*
X185877200Y-145973800D01*
X185877200Y-143678150D01*
X185877200Y-142417800D01*
X185877200Y-142062200D01*
X185877200Y-140801850D01*
X185731150Y-140655800D01*
X184938795Y-140655800D01*
X184724077Y-140744739D01*
X184559739Y-140909078D01*
X184470800Y-141123796D01*
X184470800Y-141356205D01*
X184470800Y-141916150D01*
X184616850Y-142062200D01*
X185877200Y-142062200D01*
X185877200Y-142417800D01*
X184616850Y-142417800D01*
X184470800Y-142563850D01*
X184470800Y-143123795D01*
X184470800Y-143356204D01*
X184559739Y-143570922D01*
X184724077Y-143735261D01*
X184938795Y-143824200D01*
X185731150Y-143824200D01*
X185877200Y-143678150D01*
X185877200Y-145973800D01*
X180654474Y-145973800D01*
X180654474Y-141926266D01*
X180413802Y-141343795D01*
X179968549Y-140897764D01*
X179386499Y-140656076D01*
X178756266Y-140655526D01*
X178173795Y-140896198D01*
X177727764Y-141341451D01*
X177486076Y-141923501D01*
X177485526Y-142553734D01*
X177726198Y-143136205D01*
X178171451Y-143582236D01*
X178753501Y-143823924D01*
X179383734Y-143824474D01*
X179966205Y-143583802D01*
X180412236Y-143138549D01*
X180653924Y-142556499D01*
X180654474Y-141926266D01*
X180654474Y-145973800D01*
X176844200Y-145973800D01*
X176844200Y-143356204D01*
X176844200Y-143123795D01*
X176844200Y-142563850D01*
X176844200Y-141916150D01*
X176844200Y-141356205D01*
X176844200Y-141123796D01*
X176755261Y-140909078D01*
X176590923Y-140744739D01*
X176376205Y-140655800D01*
X175583850Y-140655800D01*
X175437800Y-140801850D01*
X175437800Y-142062200D01*
X176698150Y-142062200D01*
X176844200Y-141916150D01*
X176844200Y-142563850D01*
X176698150Y-142417800D01*
X175437800Y-142417800D01*
X175437800Y-143678150D01*
X175583850Y-143824200D01*
X176376205Y-143824200D01*
X176590923Y-143735261D01*
X176755261Y-143570922D01*
X176844200Y-143356204D01*
X176844200Y-145973800D01*
X175082200Y-145973800D01*
X175082200Y-143678150D01*
X175082200Y-142417800D01*
X175082200Y-142062200D01*
X175082200Y-140801850D01*
X174936150Y-140655800D01*
X174143795Y-140655800D01*
X173929077Y-140744739D01*
X173764739Y-140909078D01*
X173675800Y-141123796D01*
X173675800Y-141356205D01*
X173675800Y-141916150D01*
X173821850Y-142062200D01*
X175082200Y-142062200D01*
X175082200Y-142417800D01*
X173821850Y-142417800D01*
X173675800Y-142563850D01*
X173675800Y-143123795D01*
X173675800Y-143356204D01*
X173764739Y-143570922D01*
X173929077Y-143735261D01*
X174143795Y-143824200D01*
X174936150Y-143824200D01*
X175082200Y-143678150D01*
X175082200Y-145973800D01*
X169859474Y-145973800D01*
X169859474Y-141926266D01*
X169618802Y-141343795D01*
X169173549Y-140897764D01*
X168591499Y-140656076D01*
X167961266Y-140655526D01*
X167378795Y-140896198D01*
X166932764Y-141341451D01*
X166691076Y-141923501D01*
X166690526Y-142553734D01*
X166931198Y-143136205D01*
X167376451Y-143582236D01*
X167958501Y-143823924D01*
X168588734Y-143824474D01*
X169171205Y-143583802D01*
X169617236Y-143138549D01*
X169858924Y-142556499D01*
X169859474Y-141926266D01*
X169859474Y-145973800D01*
X166049200Y-145973800D01*
X166049200Y-143356204D01*
X166049200Y-143123795D01*
X166049200Y-142563850D01*
X166049200Y-141916150D01*
X166049200Y-141356205D01*
X166049200Y-141123796D01*
X165960261Y-140909078D01*
X165795923Y-140744739D01*
X165581205Y-140655800D01*
X164788850Y-140655800D01*
X164642800Y-140801850D01*
X164642800Y-142062200D01*
X165903150Y-142062200D01*
X166049200Y-141916150D01*
X166049200Y-142563850D01*
X165903150Y-142417800D01*
X164642800Y-142417800D01*
X164642800Y-143678150D01*
X164788850Y-143824200D01*
X165581205Y-143824200D01*
X165795923Y-143735261D01*
X165960261Y-143570922D01*
X166049200Y-143356204D01*
X166049200Y-145973800D01*
X164287200Y-145973800D01*
X164287200Y-143678150D01*
X164287200Y-142417800D01*
X164287200Y-142062200D01*
X164287200Y-140801850D01*
X164141150Y-140655800D01*
X163348795Y-140655800D01*
X163134077Y-140744739D01*
X162969739Y-140909078D01*
X162880800Y-141123796D01*
X162880800Y-141356205D01*
X162880800Y-141916150D01*
X163026850Y-142062200D01*
X164287200Y-142062200D01*
X164287200Y-142417800D01*
X163026850Y-142417800D01*
X162880800Y-142563850D01*
X162880800Y-143123795D01*
X162880800Y-143356204D01*
X162969739Y-143570922D01*
X163134077Y-143735261D01*
X163348795Y-143824200D01*
X164141150Y-143824200D01*
X164287200Y-143678150D01*
X164287200Y-145973800D01*
X159064474Y-145973800D01*
X159064474Y-141926266D01*
X158823802Y-141343795D01*
X158378549Y-140897764D01*
X157796499Y-140656076D01*
X157166266Y-140655526D01*
X156583795Y-140896198D01*
X156137764Y-141341451D01*
X155896076Y-141923501D01*
X155895526Y-142553734D01*
X156136198Y-143136205D01*
X156581451Y-143582236D01*
X157163501Y-143823924D01*
X157793734Y-143824474D01*
X158376205Y-143583802D01*
X158822236Y-143138549D01*
X159063924Y-142556499D01*
X159064474Y-141926266D01*
X159064474Y-145973800D01*
X155254200Y-145973800D01*
X155254200Y-143356204D01*
X155254200Y-143123795D01*
X155254200Y-142563850D01*
X155254200Y-141916150D01*
X155254200Y-141356205D01*
X155254200Y-141123796D01*
X155165261Y-140909078D01*
X155000923Y-140744739D01*
X154786205Y-140655800D01*
X153993850Y-140655800D01*
X153847800Y-140801850D01*
X153847800Y-142062200D01*
X155108150Y-142062200D01*
X155254200Y-141916150D01*
X155254200Y-142563850D01*
X155108150Y-142417800D01*
X153847800Y-142417800D01*
X153847800Y-143678150D01*
X153993850Y-143824200D01*
X154786205Y-143824200D01*
X155000923Y-143735261D01*
X155165261Y-143570922D01*
X155254200Y-143356204D01*
X155254200Y-145973800D01*
X153492200Y-145973800D01*
X153492200Y-143678150D01*
X153492200Y-142417800D01*
X153492200Y-142062200D01*
X153492200Y-140801850D01*
X153346150Y-140655800D01*
X152553795Y-140655800D01*
X152339077Y-140744739D01*
X152174739Y-140909078D01*
X152085800Y-141123796D01*
X152085800Y-141356205D01*
X152085800Y-141916150D01*
X152231850Y-142062200D01*
X153492200Y-142062200D01*
X153492200Y-142417800D01*
X152231850Y-142417800D01*
X152085800Y-142563850D01*
X152085800Y-143123795D01*
X152085800Y-143356204D01*
X152174739Y-143570922D01*
X152339077Y-143735261D01*
X152553795Y-143824200D01*
X153346150Y-143824200D01*
X153492200Y-143678150D01*
X153492200Y-145973800D01*
X148269474Y-145973800D01*
X148269474Y-141926266D01*
X148028802Y-141343795D01*
X147583549Y-140897764D01*
X147001499Y-140656076D01*
X146371266Y-140655526D01*
X145788795Y-140896198D01*
X145342764Y-141341451D01*
X145101076Y-141923501D01*
X145100526Y-142553734D01*
X145341198Y-143136205D01*
X145786451Y-143582236D01*
X146368501Y-143823924D01*
X146998734Y-143824474D01*
X147581205Y-143583802D01*
X148027236Y-143138549D01*
X148268924Y-142556499D01*
X148269474Y-141926266D01*
X148269474Y-145973800D01*
X144459200Y-145973800D01*
X144459200Y-143356204D01*
X144459200Y-143123795D01*
X144459200Y-142563850D01*
X144459200Y-141916150D01*
X144459200Y-141356205D01*
X144459200Y-141123796D01*
X144370261Y-140909078D01*
X144205923Y-140744739D01*
X143991205Y-140655800D01*
X143198850Y-140655800D01*
X143052800Y-140801850D01*
X143052800Y-142062200D01*
X144313150Y-142062200D01*
X144459200Y-141916150D01*
X144459200Y-142563850D01*
X144313150Y-142417800D01*
X143052800Y-142417800D01*
X143052800Y-143678150D01*
X143198850Y-143824200D01*
X143991205Y-143824200D01*
X144205923Y-143735261D01*
X144370261Y-143570922D01*
X144459200Y-143356204D01*
X144459200Y-145973800D01*
X142697200Y-145973800D01*
X142697200Y-143678150D01*
X142697200Y-142417800D01*
X142697200Y-142062200D01*
X142697200Y-140801850D01*
X142551150Y-140655800D01*
X141758795Y-140655800D01*
X141544077Y-140744739D01*
X141379739Y-140909078D01*
X141290800Y-141123796D01*
X141290800Y-141356205D01*
X141290800Y-141916150D01*
X141436850Y-142062200D01*
X142697200Y-142062200D01*
X142697200Y-142417800D01*
X141436850Y-142417800D01*
X141290800Y-142563850D01*
X141290800Y-143123795D01*
X141290800Y-143356204D01*
X141379739Y-143570922D01*
X141544077Y-143735261D01*
X141758795Y-143824200D01*
X142551150Y-143824200D01*
X142697200Y-143678150D01*
X142697200Y-145973800D01*
X137474474Y-145973800D01*
X137474474Y-141926266D01*
X137233802Y-141343795D01*
X136788549Y-140897764D01*
X136206499Y-140656076D01*
X135576266Y-140655526D01*
X134993795Y-140896198D01*
X134547764Y-141341451D01*
X134306076Y-141923501D01*
X134305526Y-142553734D01*
X134546198Y-143136205D01*
X134991451Y-143582236D01*
X135573501Y-143823924D01*
X136203734Y-143824474D01*
X136786205Y-143583802D01*
X137232236Y-143138549D01*
X137473924Y-142556499D01*
X137474474Y-141926266D01*
X137474474Y-145973800D01*
X133664200Y-145973800D01*
X133664200Y-143356204D01*
X133664200Y-143123795D01*
X133664200Y-142563850D01*
X133664200Y-141916150D01*
X133664200Y-141356205D01*
X133664200Y-141123796D01*
X133575261Y-140909078D01*
X133410923Y-140744739D01*
X133196205Y-140655800D01*
X132403850Y-140655800D01*
X132257800Y-140801850D01*
X132257800Y-142062200D01*
X133518150Y-142062200D01*
X133664200Y-141916150D01*
X133664200Y-142563850D01*
X133518150Y-142417800D01*
X132257800Y-142417800D01*
X132257800Y-143678150D01*
X132403850Y-143824200D01*
X133196205Y-143824200D01*
X133410923Y-143735261D01*
X133575261Y-143570922D01*
X133664200Y-143356204D01*
X133664200Y-145973800D01*
X131902200Y-145973800D01*
X131902200Y-143678150D01*
X131902200Y-142417800D01*
X131902200Y-142062200D01*
X131902200Y-140801850D01*
X131756150Y-140655800D01*
X130963795Y-140655800D01*
X130749077Y-140744739D01*
X130584739Y-140909078D01*
X130495800Y-141123796D01*
X130495800Y-141356205D01*
X130495800Y-141916150D01*
X130641850Y-142062200D01*
X131902200Y-142062200D01*
X131902200Y-142417800D01*
X130641850Y-142417800D01*
X130495800Y-142563850D01*
X130495800Y-143123795D01*
X130495800Y-143356204D01*
X130584739Y-143570922D01*
X130749077Y-143735261D01*
X130963795Y-143824200D01*
X131756150Y-143824200D01*
X131902200Y-143678150D01*
X131902200Y-145973800D01*
X129616200Y-145973800D01*
X129616200Y-139141200D01*
X192328800Y-139141200D01*
X192328800Y-145973800D01*
X192328800Y-145973800D01*
G37*
X192328800Y-145973800D02*
X191449474Y-145973800D01*
X191449474Y-141926266D01*
X191208802Y-141343795D01*
X190763549Y-140897764D01*
X190181499Y-140656076D01*
X189551266Y-140655526D01*
X188968795Y-140896198D01*
X188522764Y-141341451D01*
X188281076Y-141923501D01*
X188280526Y-142553734D01*
X188521198Y-143136205D01*
X188966451Y-143582236D01*
X189548501Y-143823924D01*
X190178734Y-143824474D01*
X190761205Y-143583802D01*
X191207236Y-143138549D01*
X191448924Y-142556499D01*
X191449474Y-141926266D01*
X191449474Y-145973800D01*
X187639200Y-145973800D01*
X187639200Y-143356204D01*
X187639200Y-143123795D01*
X187639200Y-142563850D01*
X187639200Y-141916150D01*
X187639200Y-141356205D01*
X187639200Y-141123796D01*
X187550261Y-140909078D01*
X187385923Y-140744739D01*
X187171205Y-140655800D01*
X186378850Y-140655800D01*
X186232800Y-140801850D01*
X186232800Y-142062200D01*
X187493150Y-142062200D01*
X187639200Y-141916150D01*
X187639200Y-142563850D01*
X187493150Y-142417800D01*
X186232800Y-142417800D01*
X186232800Y-143678150D01*
X186378850Y-143824200D01*
X187171205Y-143824200D01*
X187385923Y-143735261D01*
X187550261Y-143570922D01*
X187639200Y-143356204D01*
X187639200Y-145973800D01*
X185877200Y-145973800D01*
X185877200Y-143678150D01*
X185877200Y-142417800D01*
X185877200Y-142062200D01*
X185877200Y-140801850D01*
X185731150Y-140655800D01*
X184938795Y-140655800D01*
X184724077Y-140744739D01*
X184559739Y-140909078D01*
X184470800Y-141123796D01*
X184470800Y-141356205D01*
X184470800Y-141916150D01*
X184616850Y-142062200D01*
X185877200Y-142062200D01*
X185877200Y-142417800D01*
X184616850Y-142417800D01*
X184470800Y-142563850D01*
X184470800Y-143123795D01*
X184470800Y-143356204D01*
X184559739Y-143570922D01*
X184724077Y-143735261D01*
X184938795Y-143824200D01*
X185731150Y-143824200D01*
X185877200Y-143678150D01*
X185877200Y-145973800D01*
X180654474Y-145973800D01*
X180654474Y-141926266D01*
X180413802Y-141343795D01*
X179968549Y-140897764D01*
X179386499Y-140656076D01*
X178756266Y-140655526D01*
X178173795Y-140896198D01*
X177727764Y-141341451D01*
X177486076Y-141923501D01*
X177485526Y-142553734D01*
X177726198Y-143136205D01*
X178171451Y-143582236D01*
X178753501Y-143823924D01*
X179383734Y-143824474D01*
X179966205Y-143583802D01*
X180412236Y-143138549D01*
X180653924Y-142556499D01*
X180654474Y-141926266D01*
X180654474Y-145973800D01*
X176844200Y-145973800D01*
X176844200Y-143356204D01*
X176844200Y-143123795D01*
X176844200Y-142563850D01*
X176844200Y-141916150D01*
X176844200Y-141356205D01*
X176844200Y-141123796D01*
X176755261Y-140909078D01*
X176590923Y-140744739D01*
X176376205Y-140655800D01*
X175583850Y-140655800D01*
X175437800Y-140801850D01*
X175437800Y-142062200D01*
X176698150Y-142062200D01*
X176844200Y-141916150D01*
X176844200Y-142563850D01*
X176698150Y-142417800D01*
X175437800Y-142417800D01*
X175437800Y-143678150D01*
X175583850Y-143824200D01*
X176376205Y-143824200D01*
X176590923Y-143735261D01*
X176755261Y-143570922D01*
X176844200Y-143356204D01*
X176844200Y-145973800D01*
X175082200Y-145973800D01*
X175082200Y-143678150D01*
X175082200Y-142417800D01*
X175082200Y-142062200D01*
X175082200Y-140801850D01*
X174936150Y-140655800D01*
X174143795Y-140655800D01*
X173929077Y-140744739D01*
X173764739Y-140909078D01*
X173675800Y-141123796D01*
X173675800Y-141356205D01*
X173675800Y-141916150D01*
X173821850Y-142062200D01*
X175082200Y-142062200D01*
X175082200Y-142417800D01*
X173821850Y-142417800D01*
X173675800Y-142563850D01*
X173675800Y-143123795D01*
X173675800Y-143356204D01*
X173764739Y-143570922D01*
X173929077Y-143735261D01*
X174143795Y-143824200D01*
X174936150Y-143824200D01*
X175082200Y-143678150D01*
X175082200Y-145973800D01*
X169859474Y-145973800D01*
X169859474Y-141926266D01*
X169618802Y-141343795D01*
X169173549Y-140897764D01*
X168591499Y-140656076D01*
X167961266Y-140655526D01*
X167378795Y-140896198D01*
X166932764Y-141341451D01*
X166691076Y-141923501D01*
X166690526Y-142553734D01*
X166931198Y-143136205D01*
X167376451Y-143582236D01*
X167958501Y-143823924D01*
X168588734Y-143824474D01*
X169171205Y-143583802D01*
X169617236Y-143138549D01*
X169858924Y-142556499D01*
X169859474Y-141926266D01*
X169859474Y-145973800D01*
X166049200Y-145973800D01*
X166049200Y-143356204D01*
X166049200Y-143123795D01*
X166049200Y-142563850D01*
X166049200Y-141916150D01*
X166049200Y-141356205D01*
X166049200Y-141123796D01*
X165960261Y-140909078D01*
X165795923Y-140744739D01*
X165581205Y-140655800D01*
X164788850Y-140655800D01*
X164642800Y-140801850D01*
X164642800Y-142062200D01*
X165903150Y-142062200D01*
X166049200Y-141916150D01*
X166049200Y-142563850D01*
X165903150Y-142417800D01*
X164642800Y-142417800D01*
X164642800Y-143678150D01*
X164788850Y-143824200D01*
X165581205Y-143824200D01*
X165795923Y-143735261D01*
X165960261Y-143570922D01*
X166049200Y-143356204D01*
X166049200Y-145973800D01*
X164287200Y-145973800D01*
X164287200Y-143678150D01*
X164287200Y-142417800D01*
X164287200Y-142062200D01*
X164287200Y-140801850D01*
X164141150Y-140655800D01*
X163348795Y-140655800D01*
X163134077Y-140744739D01*
X162969739Y-140909078D01*
X162880800Y-141123796D01*
X162880800Y-141356205D01*
X162880800Y-141916150D01*
X163026850Y-142062200D01*
X164287200Y-142062200D01*
X164287200Y-142417800D01*
X163026850Y-142417800D01*
X162880800Y-142563850D01*
X162880800Y-143123795D01*
X162880800Y-143356204D01*
X162969739Y-143570922D01*
X163134077Y-143735261D01*
X163348795Y-143824200D01*
X164141150Y-143824200D01*
X164287200Y-143678150D01*
X164287200Y-145973800D01*
X159064474Y-145973800D01*
X159064474Y-141926266D01*
X158823802Y-141343795D01*
X158378549Y-140897764D01*
X157796499Y-140656076D01*
X157166266Y-140655526D01*
X156583795Y-140896198D01*
X156137764Y-141341451D01*
X155896076Y-141923501D01*
X155895526Y-142553734D01*
X156136198Y-143136205D01*
X156581451Y-143582236D01*
X157163501Y-143823924D01*
X157793734Y-143824474D01*
X158376205Y-143583802D01*
X158822236Y-143138549D01*
X159063924Y-142556499D01*
X159064474Y-141926266D01*
X159064474Y-145973800D01*
X155254200Y-145973800D01*
X155254200Y-143356204D01*
X155254200Y-143123795D01*
X155254200Y-142563850D01*
X155254200Y-141916150D01*
X155254200Y-141356205D01*
X155254200Y-141123796D01*
X155165261Y-140909078D01*
X155000923Y-140744739D01*
X154786205Y-140655800D01*
X153993850Y-140655800D01*
X153847800Y-140801850D01*
X153847800Y-142062200D01*
X155108150Y-142062200D01*
X155254200Y-141916150D01*
X155254200Y-142563850D01*
X155108150Y-142417800D01*
X153847800Y-142417800D01*
X153847800Y-143678150D01*
X153993850Y-143824200D01*
X154786205Y-143824200D01*
X155000923Y-143735261D01*
X155165261Y-143570922D01*
X155254200Y-143356204D01*
X155254200Y-145973800D01*
X153492200Y-145973800D01*
X153492200Y-143678150D01*
X153492200Y-142417800D01*
X153492200Y-142062200D01*
X153492200Y-140801850D01*
X153346150Y-140655800D01*
X152553795Y-140655800D01*
X152339077Y-140744739D01*
X152174739Y-140909078D01*
X152085800Y-141123796D01*
X152085800Y-141356205D01*
X152085800Y-141916150D01*
X152231850Y-142062200D01*
X153492200Y-142062200D01*
X153492200Y-142417800D01*
X152231850Y-142417800D01*
X152085800Y-142563850D01*
X152085800Y-143123795D01*
X152085800Y-143356204D01*
X152174739Y-143570922D01*
X152339077Y-143735261D01*
X152553795Y-143824200D01*
X153346150Y-143824200D01*
X153492200Y-143678150D01*
X153492200Y-145973800D01*
X148269474Y-145973800D01*
X148269474Y-141926266D01*
X148028802Y-141343795D01*
X147583549Y-140897764D01*
X147001499Y-140656076D01*
X146371266Y-140655526D01*
X145788795Y-140896198D01*
X145342764Y-141341451D01*
X145101076Y-141923501D01*
X145100526Y-142553734D01*
X145341198Y-143136205D01*
X145786451Y-143582236D01*
X146368501Y-143823924D01*
X146998734Y-143824474D01*
X147581205Y-143583802D01*
X148027236Y-143138549D01*
X148268924Y-142556499D01*
X148269474Y-141926266D01*
X148269474Y-145973800D01*
X144459200Y-145973800D01*
X144459200Y-143356204D01*
X144459200Y-143123795D01*
X144459200Y-142563850D01*
X144459200Y-141916150D01*
X144459200Y-141356205D01*
X144459200Y-141123796D01*
X144370261Y-140909078D01*
X144205923Y-140744739D01*
X143991205Y-140655800D01*
X143198850Y-140655800D01*
X143052800Y-140801850D01*
X143052800Y-142062200D01*
X144313150Y-142062200D01*
X144459200Y-141916150D01*
X144459200Y-142563850D01*
X144313150Y-142417800D01*
X143052800Y-142417800D01*
X143052800Y-143678150D01*
X143198850Y-143824200D01*
X143991205Y-143824200D01*
X144205923Y-143735261D01*
X144370261Y-143570922D01*
X144459200Y-143356204D01*
X144459200Y-145973800D01*
X142697200Y-145973800D01*
X142697200Y-143678150D01*
X142697200Y-142417800D01*
X142697200Y-142062200D01*
X142697200Y-140801850D01*
X142551150Y-140655800D01*
X141758795Y-140655800D01*
X141544077Y-140744739D01*
X141379739Y-140909078D01*
X141290800Y-141123796D01*
X141290800Y-141356205D01*
X141290800Y-141916150D01*
X141436850Y-142062200D01*
X142697200Y-142062200D01*
X142697200Y-142417800D01*
X141436850Y-142417800D01*
X141290800Y-142563850D01*
X141290800Y-143123795D01*
X141290800Y-143356204D01*
X141379739Y-143570922D01*
X141544077Y-143735261D01*
X141758795Y-143824200D01*
X142551150Y-143824200D01*
X142697200Y-143678150D01*
X142697200Y-145973800D01*
X137474474Y-145973800D01*
X137474474Y-141926266D01*
X137233802Y-141343795D01*
X136788549Y-140897764D01*
X136206499Y-140656076D01*
X135576266Y-140655526D01*
X134993795Y-140896198D01*
X134547764Y-141341451D01*
X134306076Y-141923501D01*
X134305526Y-142553734D01*
X134546198Y-143136205D01*
X134991451Y-143582236D01*
X135573501Y-143823924D01*
X136203734Y-143824474D01*
X136786205Y-143583802D01*
X137232236Y-143138549D01*
X137473924Y-142556499D01*
X137474474Y-141926266D01*
X137474474Y-145973800D01*
X133664200Y-145973800D01*
X133664200Y-143356204D01*
X133664200Y-143123795D01*
X133664200Y-142563850D01*
X133664200Y-141916150D01*
X133664200Y-141356205D01*
X133664200Y-141123796D01*
X133575261Y-140909078D01*
X133410923Y-140744739D01*
X133196205Y-140655800D01*
X132403850Y-140655800D01*
X132257800Y-140801850D01*
X132257800Y-142062200D01*
X133518150Y-142062200D01*
X133664200Y-141916150D01*
X133664200Y-142563850D01*
X133518150Y-142417800D01*
X132257800Y-142417800D01*
X132257800Y-143678150D01*
X132403850Y-143824200D01*
X133196205Y-143824200D01*
X133410923Y-143735261D01*
X133575261Y-143570922D01*
X133664200Y-143356204D01*
X133664200Y-145973800D01*
X131902200Y-145973800D01*
X131902200Y-143678150D01*
X131902200Y-142417800D01*
X131902200Y-142062200D01*
X131902200Y-140801850D01*
X131756150Y-140655800D01*
X130963795Y-140655800D01*
X130749077Y-140744739D01*
X130584739Y-140909078D01*
X130495800Y-141123796D01*
X130495800Y-141356205D01*
X130495800Y-141916150D01*
X130641850Y-142062200D01*
X131902200Y-142062200D01*
X131902200Y-142417800D01*
X130641850Y-142417800D01*
X130495800Y-142563850D01*
X130495800Y-143123795D01*
X130495800Y-143356204D01*
X130584739Y-143570922D01*
X130749077Y-143735261D01*
X130963795Y-143824200D01*
X131756150Y-143824200D01*
X131902200Y-143678150D01*
X131902200Y-145973800D01*
X129616200Y-145973800D01*
X129616200Y-139141200D01*
X192328800Y-139141200D01*
X192328800Y-145973800D01*
M02*
