G04 #@! TF.FileFunction,Copper,L2,Inr,Signal*
%FSLAX46Y46*%
G04 Gerber Fmt 4.6, Leading zero omitted, Abs format (unit mm)*
G04 Created by KiCad (PCBNEW (2015-05-27 BZR 5686)-product) date 2015年05月29日 星期五 17时45分10秒*
%MOMM*%
G01*
G04 APERTURE LIST*
%ADD10C,0.100000*%
%ADD11R,1.300000X1.300000*%
%ADD12C,1.300000*%
%ADD13C,2.000000*%
%ADD14R,2.000000X2.000000*%
%ADD15C,1.524000*%
%ADD16C,3.048000*%
%ADD17C,0.600000*%
%ADD18C,1.500000*%
%ADD19C,3.000000*%
%ADD20C,0.152400*%
G04 APERTURE END LIST*
D10*
D11*
X137160000Y-117475000D03*
D12*
X139160000Y-117475000D03*
D11*
X144780000Y-117475000D03*
D12*
X146780000Y-117475000D03*
D11*
X176530000Y-106680000D03*
D12*
X176530000Y-108680000D03*
D11*
X176530000Y-118745000D03*
D12*
X176530000Y-116745000D03*
D13*
X156210000Y-119380000D03*
D14*
X156210000Y-127000000D03*
D13*
X156210000Y-123190000D03*
X163830000Y-133985000D03*
D14*
X171450000Y-133985000D03*
D13*
X167640000Y-133985000D03*
X178435000Y-98425000D03*
D14*
X170815000Y-98425000D03*
D13*
X174625000Y-98425000D03*
X177800000Y-133985000D03*
D14*
X185420000Y-133985000D03*
D13*
X181610000Y-133985000D03*
X156210000Y-106045000D03*
D14*
X156210000Y-113665000D03*
D13*
X156210000Y-109855000D03*
X163195000Y-98425000D03*
D14*
X155575000Y-98425000D03*
D13*
X159385000Y-98425000D03*
X137160000Y-128270000D03*
D14*
X144780000Y-128270000D03*
D13*
X140970000Y-128270000D03*
D14*
X142875000Y-142240000D03*
D13*
X146685000Y-142240000D03*
D14*
X175260000Y-142240000D03*
D13*
X179070000Y-142240000D03*
D14*
X132080000Y-142240000D03*
D13*
X135890000Y-142240000D03*
D14*
X186055000Y-142240000D03*
D13*
X189865000Y-142240000D03*
D14*
X153670000Y-142240000D03*
D13*
X157480000Y-142240000D03*
D14*
X164465000Y-142240000D03*
D13*
X168275000Y-142240000D03*
D15*
X189865000Y-118745000D03*
X192405000Y-113665000D03*
X189865000Y-106045000D03*
D16*
X133223000Y-122555000D03*
X133223000Y-113665000D03*
X133223000Y-104775000D03*
X184023000Y-104140000D03*
X184023000Y-110490000D03*
X184023000Y-116840000D03*
X184023000Y-123190000D03*
D17*
X179070000Y-105410000D03*
X179705000Y-115570000D03*
X179705000Y-109220000D03*
X179705000Y-120015000D03*
D18*
X176530000Y-106680000D02*
X177800000Y-106680000D01*
X177800000Y-106680000D02*
X179070000Y-105410000D01*
X179070000Y-105410000D02*
X177800000Y-105410000D01*
X177800000Y-105410000D02*
X176530000Y-106680000D01*
X179705000Y-115570000D02*
X177705000Y-115570000D01*
X177705000Y-115570000D02*
X176530000Y-116745000D01*
X176530000Y-116745000D02*
X178530000Y-116745000D01*
X178530000Y-116745000D02*
X179705000Y-115570000D01*
X179705000Y-109220000D02*
X177070000Y-109220000D01*
X177070000Y-109220000D02*
X176530000Y-108680000D01*
X176530000Y-108680000D02*
X179165000Y-108680000D01*
X179165000Y-108680000D02*
X179705000Y-109220000D01*
D19*
X172720000Y-115570000D02*
X172720000Y-123825000D01*
X172720000Y-123825000D02*
X172085000Y-123190000D01*
X172085000Y-123190000D02*
X172085000Y-121285000D01*
X172085000Y-121285000D02*
X172085000Y-123190000D01*
X161290000Y-111760000D02*
X161925000Y-111760000D01*
X161925000Y-111760000D02*
X164465000Y-114300000D01*
X164465000Y-114300000D02*
X164465000Y-114935000D01*
X161290000Y-114935000D02*
X164465000Y-114935000D01*
X164465000Y-114935000D02*
X163830000Y-114935000D01*
X163830000Y-114935000D02*
X167640000Y-111125000D01*
X161290000Y-119380000D02*
X161290000Y-114935000D01*
X161290000Y-114935000D02*
X161290000Y-111760000D01*
X161290000Y-111760000D02*
X161290000Y-112395000D01*
X161290000Y-112395000D02*
X158750000Y-109855000D01*
X167957500Y-119062500D02*
X169227500Y-119062500D01*
X169227500Y-119062500D02*
X172720000Y-115570000D01*
X172720000Y-115570000D02*
X178435000Y-109855000D01*
X167957500Y-119062500D02*
X167957500Y-116522500D01*
X167957500Y-116522500D02*
X174625000Y-109855000D01*
X181610000Y-133985000D02*
X181610000Y-132715000D01*
X181610000Y-132715000D02*
X172085000Y-123190000D01*
X172085000Y-123190000D02*
X167957500Y-119062500D01*
X167957500Y-119062500D02*
X167640000Y-118745000D01*
X167640000Y-118745000D02*
X166370000Y-118745000D01*
X167640000Y-133985000D02*
X167640000Y-131445000D01*
X167640000Y-131445000D02*
X166370000Y-130175000D01*
X166370000Y-130175000D02*
X166370000Y-118745000D01*
X166370000Y-118745000D02*
X166370000Y-116205000D01*
X166370000Y-116205000D02*
X166370000Y-114300000D01*
X167640000Y-133985000D02*
X167640000Y-130810000D01*
X167640000Y-130810000D02*
X169545000Y-128905000D01*
X169545000Y-128905000D02*
X169545000Y-118745000D01*
X156210000Y-123190000D02*
X157480000Y-123190000D01*
X157480000Y-123190000D02*
X161290000Y-119380000D01*
X161290000Y-119380000D02*
X166370000Y-114300000D01*
X166370000Y-114300000D02*
X167640000Y-113030000D01*
X167640000Y-113030000D02*
X167640000Y-111125000D01*
X156210000Y-109855000D02*
X158750000Y-109855000D01*
X158750000Y-109855000D02*
X160020000Y-111125000D01*
X160020000Y-111125000D02*
X167640000Y-111125000D01*
X167640000Y-111125000D02*
X171450000Y-111125000D01*
X156210000Y-109855000D02*
X157480000Y-109855000D01*
X157480000Y-109855000D02*
X158750000Y-108585000D01*
X158750000Y-108585000D02*
X168275000Y-108585000D01*
X168275000Y-108585000D02*
X168910000Y-107950000D01*
X168910000Y-107950000D02*
X169545000Y-107950000D01*
X169545000Y-107950000D02*
X169545000Y-109855000D01*
X174625000Y-98425000D02*
X174625000Y-99695000D01*
X174625000Y-99695000D02*
X171450000Y-102870000D01*
X171450000Y-102870000D02*
X171450000Y-111125000D01*
X159385000Y-98425000D02*
X159385000Y-103505000D01*
X159385000Y-103505000D02*
X165735000Y-109855000D01*
X181610000Y-133985000D02*
X181610000Y-130810000D01*
X181610000Y-130810000D02*
X169545000Y-118745000D01*
X169545000Y-118745000D02*
X167640000Y-116840000D01*
X167640000Y-116840000D02*
X167640000Y-114935000D01*
X167640000Y-133985000D02*
X167640000Y-114935000D01*
X167640000Y-114935000D02*
X171450000Y-111125000D01*
X171450000Y-111125000D02*
X172720000Y-109855000D01*
X156210000Y-123190000D02*
X159385000Y-123190000D01*
X159385000Y-123190000D02*
X172720000Y-109855000D01*
X156210000Y-109855000D02*
X165735000Y-109855000D01*
X165735000Y-109855000D02*
X169545000Y-109855000D01*
X159385000Y-98425000D02*
X159385000Y-99695000D01*
X159385000Y-99695000D02*
X169545000Y-109855000D01*
X169545000Y-109855000D02*
X169545000Y-109855000D01*
X169545000Y-109855000D02*
X172720000Y-109855000D01*
X172720000Y-109855000D02*
X174625000Y-109855000D01*
X179705000Y-109220000D02*
X179070000Y-109220000D01*
X179070000Y-109220000D02*
X178435000Y-109855000D01*
X178435000Y-109855000D02*
X174625000Y-109855000D01*
X174625000Y-109855000D02*
X173355000Y-108585000D01*
X173355000Y-108585000D02*
X173355000Y-100965000D01*
X173355000Y-100965000D02*
X174625000Y-99695000D01*
X174625000Y-99695000D02*
X174625000Y-98425000D01*
D18*
X179705000Y-120015000D02*
X177800000Y-120015000D01*
X177800000Y-120015000D02*
X176530000Y-118745000D01*
X176530000Y-118745000D02*
X178435000Y-118745000D01*
X178435000Y-118745000D02*
X179705000Y-120015000D01*
D20*
G36*
X180898800Y-137083800D02*
X179384474Y-137083800D01*
X179384474Y-133671266D01*
X179143802Y-133088795D01*
X178698549Y-132642764D01*
X178116499Y-132401076D01*
X177486266Y-132400526D01*
X176903795Y-132641198D01*
X176457764Y-133086451D01*
X176216076Y-133668501D01*
X176215526Y-134298734D01*
X176456198Y-134881205D01*
X176901451Y-135327236D01*
X177483501Y-135568924D01*
X178113734Y-135569474D01*
X178696205Y-135328802D01*
X179142236Y-134883549D01*
X179383924Y-134301499D01*
X179384474Y-133671266D01*
X179384474Y-137083800D01*
X173045645Y-137083800D01*
X173045645Y-134985000D01*
X173045645Y-132985000D01*
X173002426Y-132762247D01*
X172873820Y-132566467D01*
X172679669Y-132435414D01*
X172450000Y-132389355D01*
X172410645Y-132389355D01*
X172410645Y-99425000D01*
X172410645Y-97425000D01*
X172367426Y-97202247D01*
X172238820Y-97006467D01*
X172044669Y-96875414D01*
X171815000Y-96829355D01*
X169815000Y-96829355D01*
X169592247Y-96872574D01*
X169396467Y-97001180D01*
X169265414Y-97195331D01*
X169219355Y-97425000D01*
X169219355Y-99425000D01*
X169262574Y-99647753D01*
X169391180Y-99843533D01*
X169585331Y-99974586D01*
X169815000Y-100020645D01*
X171815000Y-100020645D01*
X172037753Y-99977426D01*
X172233533Y-99848820D01*
X172364586Y-99654669D01*
X172410645Y-99425000D01*
X172410645Y-132389355D01*
X170450000Y-132389355D01*
X170227247Y-132432574D01*
X170031467Y-132561180D01*
X169900414Y-132755331D01*
X169854355Y-132985000D01*
X169854355Y-134985000D01*
X169897574Y-135207753D01*
X170026180Y-135403533D01*
X170220331Y-135534586D01*
X170450000Y-135580645D01*
X172450000Y-135580645D01*
X172672753Y-135537426D01*
X172868533Y-135408820D01*
X172999586Y-135214669D01*
X173045645Y-134985000D01*
X173045645Y-137083800D01*
X169242569Y-137083800D01*
X169242569Y-134186891D01*
X169197841Y-133558247D01*
X169043321Y-133185201D01*
X168796960Y-133079488D01*
X168545512Y-133330935D01*
X168545512Y-132828040D01*
X168439799Y-132581679D01*
X167841891Y-132382431D01*
X167213247Y-132427159D01*
X166840201Y-132581679D01*
X166734488Y-132828040D01*
X167640000Y-133733553D01*
X168545512Y-132828040D01*
X168545512Y-133330935D01*
X167891447Y-133985000D01*
X168796960Y-134890512D01*
X169043321Y-134784799D01*
X169242569Y-134186891D01*
X169242569Y-137083800D01*
X168545512Y-137083800D01*
X168545512Y-135141960D01*
X167640000Y-134236447D01*
X167388553Y-134487894D01*
X167388553Y-133985000D01*
X166483040Y-133079488D01*
X166236679Y-133185201D01*
X166037431Y-133783109D01*
X166082159Y-134411753D01*
X166236679Y-134784799D01*
X166483040Y-134890512D01*
X167388553Y-133985000D01*
X167388553Y-134487894D01*
X166734488Y-135141960D01*
X166840201Y-135388321D01*
X167438109Y-135587569D01*
X168066753Y-135542841D01*
X168439799Y-135388321D01*
X168545512Y-135141960D01*
X168545512Y-137083800D01*
X165414474Y-137083800D01*
X165414474Y-133671266D01*
X165173802Y-133088795D01*
X164779474Y-132693777D01*
X164779474Y-98111266D01*
X164538802Y-97528795D01*
X164093549Y-97082764D01*
X163511499Y-96841076D01*
X162881266Y-96840526D01*
X162298795Y-97081198D01*
X161852764Y-97526451D01*
X161611076Y-98108501D01*
X161610526Y-98738734D01*
X161851198Y-99321205D01*
X162296451Y-99767236D01*
X162878501Y-100008924D01*
X163508734Y-100009474D01*
X164091205Y-99768802D01*
X164537236Y-99323549D01*
X164778924Y-98741499D01*
X164779474Y-98111266D01*
X164779474Y-132693777D01*
X164728549Y-132642764D01*
X164146499Y-132401076D01*
X163516266Y-132400526D01*
X162933795Y-132641198D01*
X162487764Y-133086451D01*
X162246076Y-133668501D01*
X162245526Y-134298734D01*
X162486198Y-134881205D01*
X162931451Y-135327236D01*
X163513501Y-135568924D01*
X164143734Y-135569474D01*
X164726205Y-135328802D01*
X165172236Y-134883549D01*
X165413924Y-134301499D01*
X165414474Y-133671266D01*
X165414474Y-137083800D01*
X160987569Y-137083800D01*
X160987569Y-98626891D01*
X160942841Y-97998247D01*
X160788321Y-97625201D01*
X160541960Y-97519488D01*
X160290512Y-97770935D01*
X160290512Y-97268040D01*
X160184799Y-97021679D01*
X159586891Y-96822431D01*
X158958247Y-96867159D01*
X158585201Y-97021679D01*
X158479488Y-97268040D01*
X159385000Y-98173553D01*
X160290512Y-97268040D01*
X160290512Y-97770935D01*
X159636447Y-98425000D01*
X160541960Y-99330512D01*
X160788321Y-99224799D01*
X160987569Y-98626891D01*
X160987569Y-137083800D01*
X160290512Y-137083800D01*
X160290512Y-99581960D01*
X159385000Y-98676447D01*
X159133553Y-98927894D01*
X159133553Y-98425000D01*
X158228040Y-97519488D01*
X157981679Y-97625201D01*
X157782431Y-98223109D01*
X157827159Y-98851753D01*
X157981679Y-99224799D01*
X158228040Y-99330512D01*
X159133553Y-98425000D01*
X159133553Y-98927894D01*
X158479488Y-99581960D01*
X158585201Y-99828321D01*
X159183109Y-100027569D01*
X159811753Y-99982841D01*
X160184799Y-99828321D01*
X160290512Y-99581960D01*
X160290512Y-137083800D01*
X157812569Y-137083800D01*
X157812569Y-123391891D01*
X157812569Y-110056891D01*
X157794474Y-109802569D01*
X157794474Y-105731266D01*
X157553802Y-105148795D01*
X157170645Y-104764968D01*
X157170645Y-99425000D01*
X157170645Y-97425000D01*
X157127426Y-97202247D01*
X156998820Y-97006467D01*
X156804669Y-96875414D01*
X156575000Y-96829355D01*
X154575000Y-96829355D01*
X154352247Y-96872574D01*
X154156467Y-97001180D01*
X154025414Y-97195331D01*
X153979355Y-97425000D01*
X153979355Y-99425000D01*
X154022574Y-99647753D01*
X154151180Y-99843533D01*
X154345331Y-99974586D01*
X154575000Y-100020645D01*
X156575000Y-100020645D01*
X156797753Y-99977426D01*
X156993533Y-99848820D01*
X157124586Y-99654669D01*
X157170645Y-99425000D01*
X157170645Y-104764968D01*
X157108549Y-104702764D01*
X156526499Y-104461076D01*
X155896266Y-104460526D01*
X155313795Y-104701198D01*
X154867764Y-105146451D01*
X154626076Y-105728501D01*
X154625526Y-106358734D01*
X154866198Y-106941205D01*
X155311451Y-107387236D01*
X155893501Y-107628924D01*
X156523734Y-107629474D01*
X157106205Y-107388802D01*
X157552236Y-106943549D01*
X157793924Y-106361499D01*
X157794474Y-105731266D01*
X157794474Y-109802569D01*
X157767841Y-109428247D01*
X157613321Y-109055201D01*
X157366960Y-108949488D01*
X157115512Y-109200935D01*
X157115512Y-108698040D01*
X157009799Y-108451679D01*
X156411891Y-108252431D01*
X155783247Y-108297159D01*
X155410201Y-108451679D01*
X155304488Y-108698040D01*
X156210000Y-109603553D01*
X157115512Y-108698040D01*
X157115512Y-109200935D01*
X156461447Y-109855000D01*
X157366960Y-110760512D01*
X157613321Y-110654799D01*
X157812569Y-110056891D01*
X157812569Y-123391891D01*
X157805645Y-123294575D01*
X157805645Y-114665000D01*
X157805645Y-112665000D01*
X157762426Y-112442247D01*
X157633820Y-112246467D01*
X157439669Y-112115414D01*
X157210000Y-112069355D01*
X157115512Y-112069355D01*
X157115512Y-111011960D01*
X156210000Y-110106447D01*
X155958553Y-110357894D01*
X155958553Y-109855000D01*
X155053040Y-108949488D01*
X154806679Y-109055201D01*
X154607431Y-109653109D01*
X154652159Y-110281753D01*
X154806679Y-110654799D01*
X155053040Y-110760512D01*
X155958553Y-109855000D01*
X155958553Y-110357894D01*
X155304488Y-111011960D01*
X155410201Y-111258321D01*
X156008109Y-111457569D01*
X156636753Y-111412841D01*
X157009799Y-111258321D01*
X157115512Y-111011960D01*
X157115512Y-112069355D01*
X155210000Y-112069355D01*
X154987247Y-112112574D01*
X154791467Y-112241180D01*
X154660414Y-112435331D01*
X154614355Y-112665000D01*
X154614355Y-114665000D01*
X154657574Y-114887753D01*
X154786180Y-115083533D01*
X154980331Y-115214586D01*
X155210000Y-115260645D01*
X157210000Y-115260645D01*
X157432753Y-115217426D01*
X157628533Y-115088820D01*
X157759586Y-114894669D01*
X157805645Y-114665000D01*
X157805645Y-123294575D01*
X157794474Y-123137569D01*
X157794474Y-119066266D01*
X157553802Y-118483795D01*
X157108549Y-118037764D01*
X156526499Y-117796076D01*
X155896266Y-117795526D01*
X155313795Y-118036198D01*
X154867764Y-118481451D01*
X154626076Y-119063501D01*
X154625526Y-119693734D01*
X154866198Y-120276205D01*
X155311451Y-120722236D01*
X155893501Y-120963924D01*
X156523734Y-120964474D01*
X157106205Y-120723802D01*
X157552236Y-120278549D01*
X157793924Y-119696499D01*
X157794474Y-119066266D01*
X157794474Y-123137569D01*
X157767841Y-122763247D01*
X157613321Y-122390201D01*
X157366960Y-122284488D01*
X157115512Y-122535935D01*
X157115512Y-122033040D01*
X157009799Y-121786679D01*
X156411891Y-121587431D01*
X155783247Y-121632159D01*
X155410201Y-121786679D01*
X155304488Y-122033040D01*
X156210000Y-122938553D01*
X157115512Y-122033040D01*
X157115512Y-122535935D01*
X156461447Y-123190000D01*
X157366960Y-124095512D01*
X157613321Y-123989799D01*
X157812569Y-123391891D01*
X157812569Y-137083800D01*
X157805645Y-137083800D01*
X157805645Y-128000000D01*
X157805645Y-126000000D01*
X157762426Y-125777247D01*
X157633820Y-125581467D01*
X157439669Y-125450414D01*
X157210000Y-125404355D01*
X157115512Y-125404355D01*
X157115512Y-124346960D01*
X156210000Y-123441447D01*
X155958553Y-123692894D01*
X155958553Y-123190000D01*
X155053040Y-122284488D01*
X154806679Y-122390201D01*
X154607431Y-122988109D01*
X154652159Y-123616753D01*
X154806679Y-123989799D01*
X155053040Y-124095512D01*
X155958553Y-123190000D01*
X155958553Y-123692894D01*
X155304488Y-124346960D01*
X155410201Y-124593321D01*
X156008109Y-124792569D01*
X156636753Y-124747841D01*
X157009799Y-124593321D01*
X157115512Y-124346960D01*
X157115512Y-125404355D01*
X155210000Y-125404355D01*
X154987247Y-125447574D01*
X154791467Y-125576180D01*
X154660414Y-125770331D01*
X154614355Y-126000000D01*
X154614355Y-128000000D01*
X154657574Y-128222753D01*
X154786180Y-128418533D01*
X154980331Y-128549586D01*
X155210000Y-128595645D01*
X157210000Y-128595645D01*
X157432753Y-128552426D01*
X157628533Y-128423820D01*
X157759586Y-128229669D01*
X157805645Y-128000000D01*
X157805645Y-137083800D01*
X150526563Y-137083800D01*
X148062763Y-134620000D01*
X151206200Y-131476563D01*
X151206200Y-97186563D01*
X153066563Y-95326200D01*
X180898800Y-95326200D01*
X180898800Y-105333800D01*
X180389042Y-105333800D01*
X180302640Y-104899424D01*
X180019474Y-104475635D01*
X180019474Y-98111266D01*
X179778802Y-97528795D01*
X179333549Y-97082764D01*
X178751499Y-96841076D01*
X178121266Y-96840526D01*
X177538795Y-97081198D01*
X177092764Y-97526451D01*
X176851076Y-98108501D01*
X176850526Y-98738734D01*
X177091198Y-99321205D01*
X177536451Y-99767236D01*
X178118501Y-100008924D01*
X178748734Y-100009474D01*
X179331205Y-99768802D01*
X179777236Y-99323549D01*
X180018924Y-98741499D01*
X180019474Y-98111266D01*
X180019474Y-104475635D01*
X180013422Y-104466578D01*
X179580576Y-104177360D01*
X179070000Y-104075800D01*
X177800000Y-104075800D01*
X177289423Y-104177360D01*
X176856578Y-104466578D01*
X176227569Y-105095587D01*
X176227569Y-98626891D01*
X176182841Y-97998247D01*
X176028321Y-97625201D01*
X175781960Y-97519488D01*
X175530512Y-97770935D01*
X175530512Y-97268040D01*
X175424799Y-97021679D01*
X174826891Y-96822431D01*
X174198247Y-96867159D01*
X173825201Y-97021679D01*
X173719488Y-97268040D01*
X174625000Y-98173553D01*
X175530512Y-97268040D01*
X175530512Y-97770935D01*
X174876447Y-98425000D01*
X175781960Y-99330512D01*
X176028321Y-99224799D01*
X176227569Y-98626891D01*
X176227569Y-105095587D01*
X175888801Y-105434355D01*
X175880000Y-105434355D01*
X175657247Y-105477574D01*
X175530512Y-105560825D01*
X175530512Y-99581960D01*
X174625000Y-98676447D01*
X174373553Y-98927894D01*
X174373553Y-98425000D01*
X173468040Y-97519488D01*
X173221679Y-97625201D01*
X173022431Y-98223109D01*
X173067159Y-98851753D01*
X173221679Y-99224799D01*
X173468040Y-99330512D01*
X174373553Y-98425000D01*
X174373553Y-98927894D01*
X173719488Y-99581960D01*
X173825201Y-99828321D01*
X174423109Y-100027569D01*
X175051753Y-99982841D01*
X175424799Y-99828321D01*
X175530512Y-99581960D01*
X175530512Y-105560825D01*
X175461467Y-105606180D01*
X175330414Y-105800331D01*
X175284355Y-106030000D01*
X175284355Y-106234804D01*
X175195800Y-106680000D01*
X175284355Y-107125195D01*
X175284355Y-107330000D01*
X175327574Y-107552753D01*
X175456180Y-107748533D01*
X175592168Y-107840325D01*
X175515522Y-107916972D01*
X175627851Y-108029301D01*
X175417655Y-108091607D01*
X175277158Y-108562072D01*
X175327395Y-109050490D01*
X175417655Y-109268393D01*
X175627854Y-109330699D01*
X176278553Y-108680000D01*
X176264410Y-108665857D01*
X176453800Y-108476468D01*
X176453800Y-109007647D01*
X176278553Y-109182894D01*
X175879301Y-109582146D01*
X175941607Y-109792345D01*
X176412072Y-109932842D01*
X176453800Y-109928550D01*
X176453800Y-115512125D01*
X176159510Y-115542395D01*
X175941607Y-115632655D01*
X175879301Y-115842854D01*
X176453800Y-116417353D01*
X176453800Y-116948532D01*
X176278553Y-116773285D01*
X176264410Y-116759142D01*
X176278553Y-116745000D01*
X175627854Y-116094301D01*
X175417655Y-116156607D01*
X175277158Y-116627072D01*
X175327395Y-117115490D01*
X175417655Y-117333393D01*
X175627851Y-117395698D01*
X175515522Y-117508028D01*
X175592560Y-117585066D01*
X175461467Y-117671180D01*
X175330414Y-117865331D01*
X175284355Y-118095000D01*
X175284355Y-118299804D01*
X175195800Y-118745000D01*
X175284355Y-119190195D01*
X175284355Y-119395000D01*
X175327574Y-119617753D01*
X175456180Y-119813533D01*
X175650331Y-119944586D01*
X175880000Y-119990645D01*
X175888801Y-119990645D01*
X176856578Y-120958422D01*
X177289423Y-121247640D01*
X177289424Y-121247640D01*
X177800000Y-121349200D01*
X179705000Y-121349200D01*
X180215576Y-121247640D01*
X180648422Y-120958422D01*
X180898800Y-120583704D01*
X180898800Y-132544980D01*
X180810201Y-132581679D01*
X180704488Y-132828040D01*
X180898800Y-133022352D01*
X180898800Y-133525247D01*
X180453040Y-133079488D01*
X180206679Y-133185201D01*
X180007431Y-133783109D01*
X180052159Y-134411753D01*
X180206679Y-134784799D01*
X180453040Y-134890512D01*
X180898800Y-134444752D01*
X180898800Y-134947647D01*
X180704488Y-135141960D01*
X180810201Y-135388321D01*
X180898800Y-135417845D01*
X180898800Y-137083800D01*
X180898800Y-137083800D01*
G37*
X180898800Y-137083800D02*
X179384474Y-137083800D01*
X179384474Y-133671266D01*
X179143802Y-133088795D01*
X178698549Y-132642764D01*
X178116499Y-132401076D01*
X177486266Y-132400526D01*
X176903795Y-132641198D01*
X176457764Y-133086451D01*
X176216076Y-133668501D01*
X176215526Y-134298734D01*
X176456198Y-134881205D01*
X176901451Y-135327236D01*
X177483501Y-135568924D01*
X178113734Y-135569474D01*
X178696205Y-135328802D01*
X179142236Y-134883549D01*
X179383924Y-134301499D01*
X179384474Y-133671266D01*
X179384474Y-137083800D01*
X173045645Y-137083800D01*
X173045645Y-134985000D01*
X173045645Y-132985000D01*
X173002426Y-132762247D01*
X172873820Y-132566467D01*
X172679669Y-132435414D01*
X172450000Y-132389355D01*
X172410645Y-132389355D01*
X172410645Y-99425000D01*
X172410645Y-97425000D01*
X172367426Y-97202247D01*
X172238820Y-97006467D01*
X172044669Y-96875414D01*
X171815000Y-96829355D01*
X169815000Y-96829355D01*
X169592247Y-96872574D01*
X169396467Y-97001180D01*
X169265414Y-97195331D01*
X169219355Y-97425000D01*
X169219355Y-99425000D01*
X169262574Y-99647753D01*
X169391180Y-99843533D01*
X169585331Y-99974586D01*
X169815000Y-100020645D01*
X171815000Y-100020645D01*
X172037753Y-99977426D01*
X172233533Y-99848820D01*
X172364586Y-99654669D01*
X172410645Y-99425000D01*
X172410645Y-132389355D01*
X170450000Y-132389355D01*
X170227247Y-132432574D01*
X170031467Y-132561180D01*
X169900414Y-132755331D01*
X169854355Y-132985000D01*
X169854355Y-134985000D01*
X169897574Y-135207753D01*
X170026180Y-135403533D01*
X170220331Y-135534586D01*
X170450000Y-135580645D01*
X172450000Y-135580645D01*
X172672753Y-135537426D01*
X172868533Y-135408820D01*
X172999586Y-135214669D01*
X173045645Y-134985000D01*
X173045645Y-137083800D01*
X169242569Y-137083800D01*
X169242569Y-134186891D01*
X169197841Y-133558247D01*
X169043321Y-133185201D01*
X168796960Y-133079488D01*
X168545512Y-133330935D01*
X168545512Y-132828040D01*
X168439799Y-132581679D01*
X167841891Y-132382431D01*
X167213247Y-132427159D01*
X166840201Y-132581679D01*
X166734488Y-132828040D01*
X167640000Y-133733553D01*
X168545512Y-132828040D01*
X168545512Y-133330935D01*
X167891447Y-133985000D01*
X168796960Y-134890512D01*
X169043321Y-134784799D01*
X169242569Y-134186891D01*
X169242569Y-137083800D01*
X168545512Y-137083800D01*
X168545512Y-135141960D01*
X167640000Y-134236447D01*
X167388553Y-134487894D01*
X167388553Y-133985000D01*
X166483040Y-133079488D01*
X166236679Y-133185201D01*
X166037431Y-133783109D01*
X166082159Y-134411753D01*
X166236679Y-134784799D01*
X166483040Y-134890512D01*
X167388553Y-133985000D01*
X167388553Y-134487894D01*
X166734488Y-135141960D01*
X166840201Y-135388321D01*
X167438109Y-135587569D01*
X168066753Y-135542841D01*
X168439799Y-135388321D01*
X168545512Y-135141960D01*
X168545512Y-137083800D01*
X165414474Y-137083800D01*
X165414474Y-133671266D01*
X165173802Y-133088795D01*
X164779474Y-132693777D01*
X164779474Y-98111266D01*
X164538802Y-97528795D01*
X164093549Y-97082764D01*
X163511499Y-96841076D01*
X162881266Y-96840526D01*
X162298795Y-97081198D01*
X161852764Y-97526451D01*
X161611076Y-98108501D01*
X161610526Y-98738734D01*
X161851198Y-99321205D01*
X162296451Y-99767236D01*
X162878501Y-100008924D01*
X163508734Y-100009474D01*
X164091205Y-99768802D01*
X164537236Y-99323549D01*
X164778924Y-98741499D01*
X164779474Y-98111266D01*
X164779474Y-132693777D01*
X164728549Y-132642764D01*
X164146499Y-132401076D01*
X163516266Y-132400526D01*
X162933795Y-132641198D01*
X162487764Y-133086451D01*
X162246076Y-133668501D01*
X162245526Y-134298734D01*
X162486198Y-134881205D01*
X162931451Y-135327236D01*
X163513501Y-135568924D01*
X164143734Y-135569474D01*
X164726205Y-135328802D01*
X165172236Y-134883549D01*
X165413924Y-134301499D01*
X165414474Y-133671266D01*
X165414474Y-137083800D01*
X160987569Y-137083800D01*
X160987569Y-98626891D01*
X160942841Y-97998247D01*
X160788321Y-97625201D01*
X160541960Y-97519488D01*
X160290512Y-97770935D01*
X160290512Y-97268040D01*
X160184799Y-97021679D01*
X159586891Y-96822431D01*
X158958247Y-96867159D01*
X158585201Y-97021679D01*
X158479488Y-97268040D01*
X159385000Y-98173553D01*
X160290512Y-97268040D01*
X160290512Y-97770935D01*
X159636447Y-98425000D01*
X160541960Y-99330512D01*
X160788321Y-99224799D01*
X160987569Y-98626891D01*
X160987569Y-137083800D01*
X160290512Y-137083800D01*
X160290512Y-99581960D01*
X159385000Y-98676447D01*
X159133553Y-98927894D01*
X159133553Y-98425000D01*
X158228040Y-97519488D01*
X157981679Y-97625201D01*
X157782431Y-98223109D01*
X157827159Y-98851753D01*
X157981679Y-99224799D01*
X158228040Y-99330512D01*
X159133553Y-98425000D01*
X159133553Y-98927894D01*
X158479488Y-99581960D01*
X158585201Y-99828321D01*
X159183109Y-100027569D01*
X159811753Y-99982841D01*
X160184799Y-99828321D01*
X160290512Y-99581960D01*
X160290512Y-137083800D01*
X157812569Y-137083800D01*
X157812569Y-123391891D01*
X157812569Y-110056891D01*
X157794474Y-109802569D01*
X157794474Y-105731266D01*
X157553802Y-105148795D01*
X157170645Y-104764968D01*
X157170645Y-99425000D01*
X157170645Y-97425000D01*
X157127426Y-97202247D01*
X156998820Y-97006467D01*
X156804669Y-96875414D01*
X156575000Y-96829355D01*
X154575000Y-96829355D01*
X154352247Y-96872574D01*
X154156467Y-97001180D01*
X154025414Y-97195331D01*
X153979355Y-97425000D01*
X153979355Y-99425000D01*
X154022574Y-99647753D01*
X154151180Y-99843533D01*
X154345331Y-99974586D01*
X154575000Y-100020645D01*
X156575000Y-100020645D01*
X156797753Y-99977426D01*
X156993533Y-99848820D01*
X157124586Y-99654669D01*
X157170645Y-99425000D01*
X157170645Y-104764968D01*
X157108549Y-104702764D01*
X156526499Y-104461076D01*
X155896266Y-104460526D01*
X155313795Y-104701198D01*
X154867764Y-105146451D01*
X154626076Y-105728501D01*
X154625526Y-106358734D01*
X154866198Y-106941205D01*
X155311451Y-107387236D01*
X155893501Y-107628924D01*
X156523734Y-107629474D01*
X157106205Y-107388802D01*
X157552236Y-106943549D01*
X157793924Y-106361499D01*
X157794474Y-105731266D01*
X157794474Y-109802569D01*
X157767841Y-109428247D01*
X157613321Y-109055201D01*
X157366960Y-108949488D01*
X157115512Y-109200935D01*
X157115512Y-108698040D01*
X157009799Y-108451679D01*
X156411891Y-108252431D01*
X155783247Y-108297159D01*
X155410201Y-108451679D01*
X155304488Y-108698040D01*
X156210000Y-109603553D01*
X157115512Y-108698040D01*
X157115512Y-109200935D01*
X156461447Y-109855000D01*
X157366960Y-110760512D01*
X157613321Y-110654799D01*
X157812569Y-110056891D01*
X157812569Y-123391891D01*
X157805645Y-123294575D01*
X157805645Y-114665000D01*
X157805645Y-112665000D01*
X157762426Y-112442247D01*
X157633820Y-112246467D01*
X157439669Y-112115414D01*
X157210000Y-112069355D01*
X157115512Y-112069355D01*
X157115512Y-111011960D01*
X156210000Y-110106447D01*
X155958553Y-110357894D01*
X155958553Y-109855000D01*
X155053040Y-108949488D01*
X154806679Y-109055201D01*
X154607431Y-109653109D01*
X154652159Y-110281753D01*
X154806679Y-110654799D01*
X155053040Y-110760512D01*
X155958553Y-109855000D01*
X155958553Y-110357894D01*
X155304488Y-111011960D01*
X155410201Y-111258321D01*
X156008109Y-111457569D01*
X156636753Y-111412841D01*
X157009799Y-111258321D01*
X157115512Y-111011960D01*
X157115512Y-112069355D01*
X155210000Y-112069355D01*
X154987247Y-112112574D01*
X154791467Y-112241180D01*
X154660414Y-112435331D01*
X154614355Y-112665000D01*
X154614355Y-114665000D01*
X154657574Y-114887753D01*
X154786180Y-115083533D01*
X154980331Y-115214586D01*
X155210000Y-115260645D01*
X157210000Y-115260645D01*
X157432753Y-115217426D01*
X157628533Y-115088820D01*
X157759586Y-114894669D01*
X157805645Y-114665000D01*
X157805645Y-123294575D01*
X157794474Y-123137569D01*
X157794474Y-119066266D01*
X157553802Y-118483795D01*
X157108549Y-118037764D01*
X156526499Y-117796076D01*
X155896266Y-117795526D01*
X155313795Y-118036198D01*
X154867764Y-118481451D01*
X154626076Y-119063501D01*
X154625526Y-119693734D01*
X154866198Y-120276205D01*
X155311451Y-120722236D01*
X155893501Y-120963924D01*
X156523734Y-120964474D01*
X157106205Y-120723802D01*
X157552236Y-120278549D01*
X157793924Y-119696499D01*
X157794474Y-119066266D01*
X157794474Y-123137569D01*
X157767841Y-122763247D01*
X157613321Y-122390201D01*
X157366960Y-122284488D01*
X157115512Y-122535935D01*
X157115512Y-122033040D01*
X157009799Y-121786679D01*
X156411891Y-121587431D01*
X155783247Y-121632159D01*
X155410201Y-121786679D01*
X155304488Y-122033040D01*
X156210000Y-122938553D01*
X157115512Y-122033040D01*
X157115512Y-122535935D01*
X156461447Y-123190000D01*
X157366960Y-124095512D01*
X157613321Y-123989799D01*
X157812569Y-123391891D01*
X157812569Y-137083800D01*
X157805645Y-137083800D01*
X157805645Y-128000000D01*
X157805645Y-126000000D01*
X157762426Y-125777247D01*
X157633820Y-125581467D01*
X157439669Y-125450414D01*
X157210000Y-125404355D01*
X157115512Y-125404355D01*
X157115512Y-124346960D01*
X156210000Y-123441447D01*
X155958553Y-123692894D01*
X155958553Y-123190000D01*
X155053040Y-122284488D01*
X154806679Y-122390201D01*
X154607431Y-122988109D01*
X154652159Y-123616753D01*
X154806679Y-123989799D01*
X155053040Y-124095512D01*
X155958553Y-123190000D01*
X155958553Y-123692894D01*
X155304488Y-124346960D01*
X155410201Y-124593321D01*
X156008109Y-124792569D01*
X156636753Y-124747841D01*
X157009799Y-124593321D01*
X157115512Y-124346960D01*
X157115512Y-125404355D01*
X155210000Y-125404355D01*
X154987247Y-125447574D01*
X154791467Y-125576180D01*
X154660414Y-125770331D01*
X154614355Y-126000000D01*
X154614355Y-128000000D01*
X154657574Y-128222753D01*
X154786180Y-128418533D01*
X154980331Y-128549586D01*
X155210000Y-128595645D01*
X157210000Y-128595645D01*
X157432753Y-128552426D01*
X157628533Y-128423820D01*
X157759586Y-128229669D01*
X157805645Y-128000000D01*
X157805645Y-137083800D01*
X150526563Y-137083800D01*
X148062763Y-134620000D01*
X151206200Y-131476563D01*
X151206200Y-97186563D01*
X153066563Y-95326200D01*
X180898800Y-95326200D01*
X180898800Y-105333800D01*
X180389042Y-105333800D01*
X180302640Y-104899424D01*
X180019474Y-104475635D01*
X180019474Y-98111266D01*
X179778802Y-97528795D01*
X179333549Y-97082764D01*
X178751499Y-96841076D01*
X178121266Y-96840526D01*
X177538795Y-97081198D01*
X177092764Y-97526451D01*
X176851076Y-98108501D01*
X176850526Y-98738734D01*
X177091198Y-99321205D01*
X177536451Y-99767236D01*
X178118501Y-100008924D01*
X178748734Y-100009474D01*
X179331205Y-99768802D01*
X179777236Y-99323549D01*
X180018924Y-98741499D01*
X180019474Y-98111266D01*
X180019474Y-104475635D01*
X180013422Y-104466578D01*
X179580576Y-104177360D01*
X179070000Y-104075800D01*
X177800000Y-104075800D01*
X177289423Y-104177360D01*
X176856578Y-104466578D01*
X176227569Y-105095587D01*
X176227569Y-98626891D01*
X176182841Y-97998247D01*
X176028321Y-97625201D01*
X175781960Y-97519488D01*
X175530512Y-97770935D01*
X175530512Y-97268040D01*
X175424799Y-97021679D01*
X174826891Y-96822431D01*
X174198247Y-96867159D01*
X173825201Y-97021679D01*
X173719488Y-97268040D01*
X174625000Y-98173553D01*
X175530512Y-97268040D01*
X175530512Y-97770935D01*
X174876447Y-98425000D01*
X175781960Y-99330512D01*
X176028321Y-99224799D01*
X176227569Y-98626891D01*
X176227569Y-105095587D01*
X175888801Y-105434355D01*
X175880000Y-105434355D01*
X175657247Y-105477574D01*
X175530512Y-105560825D01*
X175530512Y-99581960D01*
X174625000Y-98676447D01*
X174373553Y-98927894D01*
X174373553Y-98425000D01*
X173468040Y-97519488D01*
X173221679Y-97625201D01*
X173022431Y-98223109D01*
X173067159Y-98851753D01*
X173221679Y-99224799D01*
X173468040Y-99330512D01*
X174373553Y-98425000D01*
X174373553Y-98927894D01*
X173719488Y-99581960D01*
X173825201Y-99828321D01*
X174423109Y-100027569D01*
X175051753Y-99982841D01*
X175424799Y-99828321D01*
X175530512Y-99581960D01*
X175530512Y-105560825D01*
X175461467Y-105606180D01*
X175330414Y-105800331D01*
X175284355Y-106030000D01*
X175284355Y-106234804D01*
X175195800Y-106680000D01*
X175284355Y-107125195D01*
X175284355Y-107330000D01*
X175327574Y-107552753D01*
X175456180Y-107748533D01*
X175592168Y-107840325D01*
X175515522Y-107916972D01*
X175627851Y-108029301D01*
X175417655Y-108091607D01*
X175277158Y-108562072D01*
X175327395Y-109050490D01*
X175417655Y-109268393D01*
X175627854Y-109330699D01*
X176278553Y-108680000D01*
X176264410Y-108665857D01*
X176453800Y-108476468D01*
X176453800Y-109007647D01*
X176278553Y-109182894D01*
X175879301Y-109582146D01*
X175941607Y-109792345D01*
X176412072Y-109932842D01*
X176453800Y-109928550D01*
X176453800Y-115512125D01*
X176159510Y-115542395D01*
X175941607Y-115632655D01*
X175879301Y-115842854D01*
X176453800Y-116417353D01*
X176453800Y-116948532D01*
X176278553Y-116773285D01*
X176264410Y-116759142D01*
X176278553Y-116745000D01*
X175627854Y-116094301D01*
X175417655Y-116156607D01*
X175277158Y-116627072D01*
X175327395Y-117115490D01*
X175417655Y-117333393D01*
X175627851Y-117395698D01*
X175515522Y-117508028D01*
X175592560Y-117585066D01*
X175461467Y-117671180D01*
X175330414Y-117865331D01*
X175284355Y-118095000D01*
X175284355Y-118299804D01*
X175195800Y-118745000D01*
X175284355Y-119190195D01*
X175284355Y-119395000D01*
X175327574Y-119617753D01*
X175456180Y-119813533D01*
X175650331Y-119944586D01*
X175880000Y-119990645D01*
X175888801Y-119990645D01*
X176856578Y-120958422D01*
X177289423Y-121247640D01*
X177289424Y-121247640D01*
X177800000Y-121349200D01*
X179705000Y-121349200D01*
X180215576Y-121247640D01*
X180648422Y-120958422D01*
X180898800Y-120583704D01*
X180898800Y-132544980D01*
X180810201Y-132581679D01*
X180704488Y-132828040D01*
X180898800Y-133022352D01*
X180898800Y-133525247D01*
X180453040Y-133079488D01*
X180206679Y-133185201D01*
X180007431Y-133783109D01*
X180052159Y-134411753D01*
X180206679Y-134784799D01*
X180453040Y-134890512D01*
X180898800Y-134444752D01*
X180898800Y-134947647D01*
X180704488Y-135141960D01*
X180810201Y-135388321D01*
X180898800Y-135417845D01*
X180898800Y-137083800D01*
G36*
X192328800Y-145973800D02*
X191467569Y-145973800D01*
X191467569Y-142441891D01*
X191422841Y-141813247D01*
X191268321Y-141440201D01*
X191021960Y-141334488D01*
X190770512Y-141585935D01*
X190770512Y-141083040D01*
X190664799Y-140836679D01*
X190066891Y-140637431D01*
X189438247Y-140682159D01*
X189065201Y-140836679D01*
X188959488Y-141083040D01*
X189865000Y-141988553D01*
X190770512Y-141083040D01*
X190770512Y-141585935D01*
X190116447Y-142240000D01*
X191021960Y-143145512D01*
X191268321Y-143039799D01*
X191467569Y-142441891D01*
X191467569Y-145973800D01*
X190770512Y-145973800D01*
X190770512Y-143396960D01*
X189865000Y-142491447D01*
X189613553Y-142742894D01*
X189613553Y-142240000D01*
X188708040Y-141334488D01*
X188461679Y-141440201D01*
X188262431Y-142038109D01*
X188307159Y-142666753D01*
X188461679Y-143039799D01*
X188708040Y-143145512D01*
X189613553Y-142240000D01*
X189613553Y-142742894D01*
X188959488Y-143396960D01*
X189065201Y-143643321D01*
X189663109Y-143842569D01*
X190291753Y-143797841D01*
X190664799Y-143643321D01*
X190770512Y-143396960D01*
X190770512Y-145973800D01*
X187650645Y-145973800D01*
X187650645Y-143240000D01*
X187650645Y-141240000D01*
X187607426Y-141017247D01*
X187478820Y-140821467D01*
X187284669Y-140690414D01*
X187055000Y-140644355D01*
X185055000Y-140644355D01*
X184832247Y-140687574D01*
X184636467Y-140816180D01*
X184505414Y-141010331D01*
X184459355Y-141240000D01*
X184459355Y-143240000D01*
X184502574Y-143462753D01*
X184631180Y-143658533D01*
X184825331Y-143789586D01*
X185055000Y-143835645D01*
X187055000Y-143835645D01*
X187277753Y-143792426D01*
X187473533Y-143663820D01*
X187604586Y-143469669D01*
X187650645Y-143240000D01*
X187650645Y-145973800D01*
X180672569Y-145973800D01*
X180672569Y-142441891D01*
X180627841Y-141813247D01*
X180473321Y-141440201D01*
X180226960Y-141334488D01*
X179975512Y-141585935D01*
X179975512Y-141083040D01*
X179869799Y-140836679D01*
X179271891Y-140637431D01*
X178643247Y-140682159D01*
X178270201Y-140836679D01*
X178164488Y-141083040D01*
X179070000Y-141988553D01*
X179975512Y-141083040D01*
X179975512Y-141585935D01*
X179321447Y-142240000D01*
X180226960Y-143145512D01*
X180473321Y-143039799D01*
X180672569Y-142441891D01*
X180672569Y-145973800D01*
X179975512Y-145973800D01*
X179975512Y-143396960D01*
X179070000Y-142491447D01*
X178818553Y-142742894D01*
X178818553Y-142240000D01*
X177913040Y-141334488D01*
X177666679Y-141440201D01*
X177467431Y-142038109D01*
X177512159Y-142666753D01*
X177666679Y-143039799D01*
X177913040Y-143145512D01*
X178818553Y-142240000D01*
X178818553Y-142742894D01*
X178164488Y-143396960D01*
X178270201Y-143643321D01*
X178868109Y-143842569D01*
X179496753Y-143797841D01*
X179869799Y-143643321D01*
X179975512Y-143396960D01*
X179975512Y-145973800D01*
X176855645Y-145973800D01*
X176855645Y-143240000D01*
X176855645Y-141240000D01*
X176812426Y-141017247D01*
X176683820Y-140821467D01*
X176489669Y-140690414D01*
X176260000Y-140644355D01*
X174260000Y-140644355D01*
X174037247Y-140687574D01*
X173841467Y-140816180D01*
X173710414Y-141010331D01*
X173664355Y-141240000D01*
X173664355Y-143240000D01*
X173707574Y-143462753D01*
X173836180Y-143658533D01*
X174030331Y-143789586D01*
X174260000Y-143835645D01*
X176260000Y-143835645D01*
X176482753Y-143792426D01*
X176678533Y-143663820D01*
X176809586Y-143469669D01*
X176855645Y-143240000D01*
X176855645Y-145973800D01*
X169877569Y-145973800D01*
X169877569Y-142441891D01*
X169832841Y-141813247D01*
X169678321Y-141440201D01*
X169431960Y-141334488D01*
X169180512Y-141585935D01*
X169180512Y-141083040D01*
X169074799Y-140836679D01*
X168476891Y-140637431D01*
X167848247Y-140682159D01*
X167475201Y-140836679D01*
X167369488Y-141083040D01*
X168275000Y-141988553D01*
X169180512Y-141083040D01*
X169180512Y-141585935D01*
X168526447Y-142240000D01*
X169431960Y-143145512D01*
X169678321Y-143039799D01*
X169877569Y-142441891D01*
X169877569Y-145973800D01*
X169180512Y-145973800D01*
X169180512Y-143396960D01*
X168275000Y-142491447D01*
X168023553Y-142742894D01*
X168023553Y-142240000D01*
X167118040Y-141334488D01*
X166871679Y-141440201D01*
X166672431Y-142038109D01*
X166717159Y-142666753D01*
X166871679Y-143039799D01*
X167118040Y-143145512D01*
X168023553Y-142240000D01*
X168023553Y-142742894D01*
X167369488Y-143396960D01*
X167475201Y-143643321D01*
X168073109Y-143842569D01*
X168701753Y-143797841D01*
X169074799Y-143643321D01*
X169180512Y-143396960D01*
X169180512Y-145973800D01*
X166060645Y-145973800D01*
X166060645Y-143240000D01*
X166060645Y-141240000D01*
X166017426Y-141017247D01*
X165888820Y-140821467D01*
X165694669Y-140690414D01*
X165465000Y-140644355D01*
X163465000Y-140644355D01*
X163242247Y-140687574D01*
X163046467Y-140816180D01*
X162915414Y-141010331D01*
X162869355Y-141240000D01*
X162869355Y-143240000D01*
X162912574Y-143462753D01*
X163041180Y-143658533D01*
X163235331Y-143789586D01*
X163465000Y-143835645D01*
X165465000Y-143835645D01*
X165687753Y-143792426D01*
X165883533Y-143663820D01*
X166014586Y-143469669D01*
X166060645Y-143240000D01*
X166060645Y-145973800D01*
X159082569Y-145973800D01*
X159082569Y-142441891D01*
X159037841Y-141813247D01*
X158883321Y-141440201D01*
X158636960Y-141334488D01*
X158385512Y-141585935D01*
X158385512Y-141083040D01*
X158279799Y-140836679D01*
X157681891Y-140637431D01*
X157053247Y-140682159D01*
X156680201Y-140836679D01*
X156574488Y-141083040D01*
X157480000Y-141988553D01*
X158385512Y-141083040D01*
X158385512Y-141585935D01*
X157731447Y-142240000D01*
X158636960Y-143145512D01*
X158883321Y-143039799D01*
X159082569Y-142441891D01*
X159082569Y-145973800D01*
X158385512Y-145973800D01*
X158385512Y-143396960D01*
X157480000Y-142491447D01*
X157228553Y-142742894D01*
X157228553Y-142240000D01*
X156323040Y-141334488D01*
X156076679Y-141440201D01*
X155877431Y-142038109D01*
X155922159Y-142666753D01*
X156076679Y-143039799D01*
X156323040Y-143145512D01*
X157228553Y-142240000D01*
X157228553Y-142742894D01*
X156574488Y-143396960D01*
X156680201Y-143643321D01*
X157278109Y-143842569D01*
X157906753Y-143797841D01*
X158279799Y-143643321D01*
X158385512Y-143396960D01*
X158385512Y-145973800D01*
X155265645Y-145973800D01*
X155265645Y-143240000D01*
X155265645Y-141240000D01*
X155222426Y-141017247D01*
X155093820Y-140821467D01*
X154899669Y-140690414D01*
X154670000Y-140644355D01*
X152670000Y-140644355D01*
X152447247Y-140687574D01*
X152251467Y-140816180D01*
X152120414Y-141010331D01*
X152074355Y-141240000D01*
X152074355Y-143240000D01*
X152117574Y-143462753D01*
X152246180Y-143658533D01*
X152440331Y-143789586D01*
X152670000Y-143835645D01*
X154670000Y-143835645D01*
X154892753Y-143792426D01*
X155088533Y-143663820D01*
X155219586Y-143469669D01*
X155265645Y-143240000D01*
X155265645Y-145973800D01*
X148287569Y-145973800D01*
X148287569Y-142441891D01*
X148242841Y-141813247D01*
X148088321Y-141440201D01*
X147841960Y-141334488D01*
X147590512Y-141585935D01*
X147590512Y-141083040D01*
X147484799Y-140836679D01*
X146886891Y-140637431D01*
X146258247Y-140682159D01*
X145885201Y-140836679D01*
X145779488Y-141083040D01*
X146685000Y-141988553D01*
X147590512Y-141083040D01*
X147590512Y-141585935D01*
X146936447Y-142240000D01*
X147841960Y-143145512D01*
X148088321Y-143039799D01*
X148287569Y-142441891D01*
X148287569Y-145973800D01*
X147590512Y-145973800D01*
X147590512Y-143396960D01*
X146685000Y-142491447D01*
X146433553Y-142742894D01*
X146433553Y-142240000D01*
X145528040Y-141334488D01*
X145281679Y-141440201D01*
X145082431Y-142038109D01*
X145127159Y-142666753D01*
X145281679Y-143039799D01*
X145528040Y-143145512D01*
X146433553Y-142240000D01*
X146433553Y-142742894D01*
X145779488Y-143396960D01*
X145885201Y-143643321D01*
X146483109Y-143842569D01*
X147111753Y-143797841D01*
X147484799Y-143643321D01*
X147590512Y-143396960D01*
X147590512Y-145973800D01*
X144470645Y-145973800D01*
X144470645Y-143240000D01*
X144470645Y-141240000D01*
X144427426Y-141017247D01*
X144298820Y-140821467D01*
X144104669Y-140690414D01*
X143875000Y-140644355D01*
X141875000Y-140644355D01*
X141652247Y-140687574D01*
X141456467Y-140816180D01*
X141325414Y-141010331D01*
X141279355Y-141240000D01*
X141279355Y-143240000D01*
X141322574Y-143462753D01*
X141451180Y-143658533D01*
X141645331Y-143789586D01*
X141875000Y-143835645D01*
X143875000Y-143835645D01*
X144097753Y-143792426D01*
X144293533Y-143663820D01*
X144424586Y-143469669D01*
X144470645Y-143240000D01*
X144470645Y-145973800D01*
X137492569Y-145973800D01*
X137492569Y-142441891D01*
X137447841Y-141813247D01*
X137293321Y-141440201D01*
X137046960Y-141334488D01*
X136795512Y-141585935D01*
X136795512Y-141083040D01*
X136689799Y-140836679D01*
X136091891Y-140637431D01*
X135463247Y-140682159D01*
X135090201Y-140836679D01*
X134984488Y-141083040D01*
X135890000Y-141988553D01*
X136795512Y-141083040D01*
X136795512Y-141585935D01*
X136141447Y-142240000D01*
X137046960Y-143145512D01*
X137293321Y-143039799D01*
X137492569Y-142441891D01*
X137492569Y-145973800D01*
X136795512Y-145973800D01*
X136795512Y-143396960D01*
X135890000Y-142491447D01*
X135638553Y-142742894D01*
X135638553Y-142240000D01*
X134733040Y-141334488D01*
X134486679Y-141440201D01*
X134287431Y-142038109D01*
X134332159Y-142666753D01*
X134486679Y-143039799D01*
X134733040Y-143145512D01*
X135638553Y-142240000D01*
X135638553Y-142742894D01*
X134984488Y-143396960D01*
X135090201Y-143643321D01*
X135688109Y-143842569D01*
X136316753Y-143797841D01*
X136689799Y-143643321D01*
X136795512Y-143396960D01*
X136795512Y-145973800D01*
X133675645Y-145973800D01*
X133675645Y-143240000D01*
X133675645Y-141240000D01*
X133632426Y-141017247D01*
X133503820Y-140821467D01*
X133309669Y-140690414D01*
X133080000Y-140644355D01*
X131080000Y-140644355D01*
X130857247Y-140687574D01*
X130661467Y-140816180D01*
X130530414Y-141010331D01*
X130484355Y-141240000D01*
X130484355Y-143240000D01*
X130527574Y-143462753D01*
X130656180Y-143658533D01*
X130850331Y-143789586D01*
X131080000Y-143835645D01*
X133080000Y-143835645D01*
X133302753Y-143792426D01*
X133498533Y-143663820D01*
X133629586Y-143469669D01*
X133675645Y-143240000D01*
X133675645Y-145973800D01*
X129616200Y-145973800D01*
X129616200Y-139141200D01*
X192328800Y-139141200D01*
X192328800Y-145973800D01*
X192328800Y-145973800D01*
G37*
X192328800Y-145973800D02*
X191467569Y-145973800D01*
X191467569Y-142441891D01*
X191422841Y-141813247D01*
X191268321Y-141440201D01*
X191021960Y-141334488D01*
X190770512Y-141585935D01*
X190770512Y-141083040D01*
X190664799Y-140836679D01*
X190066891Y-140637431D01*
X189438247Y-140682159D01*
X189065201Y-140836679D01*
X188959488Y-141083040D01*
X189865000Y-141988553D01*
X190770512Y-141083040D01*
X190770512Y-141585935D01*
X190116447Y-142240000D01*
X191021960Y-143145512D01*
X191268321Y-143039799D01*
X191467569Y-142441891D01*
X191467569Y-145973800D01*
X190770512Y-145973800D01*
X190770512Y-143396960D01*
X189865000Y-142491447D01*
X189613553Y-142742894D01*
X189613553Y-142240000D01*
X188708040Y-141334488D01*
X188461679Y-141440201D01*
X188262431Y-142038109D01*
X188307159Y-142666753D01*
X188461679Y-143039799D01*
X188708040Y-143145512D01*
X189613553Y-142240000D01*
X189613553Y-142742894D01*
X188959488Y-143396960D01*
X189065201Y-143643321D01*
X189663109Y-143842569D01*
X190291753Y-143797841D01*
X190664799Y-143643321D01*
X190770512Y-143396960D01*
X190770512Y-145973800D01*
X187650645Y-145973800D01*
X187650645Y-143240000D01*
X187650645Y-141240000D01*
X187607426Y-141017247D01*
X187478820Y-140821467D01*
X187284669Y-140690414D01*
X187055000Y-140644355D01*
X185055000Y-140644355D01*
X184832247Y-140687574D01*
X184636467Y-140816180D01*
X184505414Y-141010331D01*
X184459355Y-141240000D01*
X184459355Y-143240000D01*
X184502574Y-143462753D01*
X184631180Y-143658533D01*
X184825331Y-143789586D01*
X185055000Y-143835645D01*
X187055000Y-143835645D01*
X187277753Y-143792426D01*
X187473533Y-143663820D01*
X187604586Y-143469669D01*
X187650645Y-143240000D01*
X187650645Y-145973800D01*
X180672569Y-145973800D01*
X180672569Y-142441891D01*
X180627841Y-141813247D01*
X180473321Y-141440201D01*
X180226960Y-141334488D01*
X179975512Y-141585935D01*
X179975512Y-141083040D01*
X179869799Y-140836679D01*
X179271891Y-140637431D01*
X178643247Y-140682159D01*
X178270201Y-140836679D01*
X178164488Y-141083040D01*
X179070000Y-141988553D01*
X179975512Y-141083040D01*
X179975512Y-141585935D01*
X179321447Y-142240000D01*
X180226960Y-143145512D01*
X180473321Y-143039799D01*
X180672569Y-142441891D01*
X180672569Y-145973800D01*
X179975512Y-145973800D01*
X179975512Y-143396960D01*
X179070000Y-142491447D01*
X178818553Y-142742894D01*
X178818553Y-142240000D01*
X177913040Y-141334488D01*
X177666679Y-141440201D01*
X177467431Y-142038109D01*
X177512159Y-142666753D01*
X177666679Y-143039799D01*
X177913040Y-143145512D01*
X178818553Y-142240000D01*
X178818553Y-142742894D01*
X178164488Y-143396960D01*
X178270201Y-143643321D01*
X178868109Y-143842569D01*
X179496753Y-143797841D01*
X179869799Y-143643321D01*
X179975512Y-143396960D01*
X179975512Y-145973800D01*
X176855645Y-145973800D01*
X176855645Y-143240000D01*
X176855645Y-141240000D01*
X176812426Y-141017247D01*
X176683820Y-140821467D01*
X176489669Y-140690414D01*
X176260000Y-140644355D01*
X174260000Y-140644355D01*
X174037247Y-140687574D01*
X173841467Y-140816180D01*
X173710414Y-141010331D01*
X173664355Y-141240000D01*
X173664355Y-143240000D01*
X173707574Y-143462753D01*
X173836180Y-143658533D01*
X174030331Y-143789586D01*
X174260000Y-143835645D01*
X176260000Y-143835645D01*
X176482753Y-143792426D01*
X176678533Y-143663820D01*
X176809586Y-143469669D01*
X176855645Y-143240000D01*
X176855645Y-145973800D01*
X169877569Y-145973800D01*
X169877569Y-142441891D01*
X169832841Y-141813247D01*
X169678321Y-141440201D01*
X169431960Y-141334488D01*
X169180512Y-141585935D01*
X169180512Y-141083040D01*
X169074799Y-140836679D01*
X168476891Y-140637431D01*
X167848247Y-140682159D01*
X167475201Y-140836679D01*
X167369488Y-141083040D01*
X168275000Y-141988553D01*
X169180512Y-141083040D01*
X169180512Y-141585935D01*
X168526447Y-142240000D01*
X169431960Y-143145512D01*
X169678321Y-143039799D01*
X169877569Y-142441891D01*
X169877569Y-145973800D01*
X169180512Y-145973800D01*
X169180512Y-143396960D01*
X168275000Y-142491447D01*
X168023553Y-142742894D01*
X168023553Y-142240000D01*
X167118040Y-141334488D01*
X166871679Y-141440201D01*
X166672431Y-142038109D01*
X166717159Y-142666753D01*
X166871679Y-143039799D01*
X167118040Y-143145512D01*
X168023553Y-142240000D01*
X168023553Y-142742894D01*
X167369488Y-143396960D01*
X167475201Y-143643321D01*
X168073109Y-143842569D01*
X168701753Y-143797841D01*
X169074799Y-143643321D01*
X169180512Y-143396960D01*
X169180512Y-145973800D01*
X166060645Y-145973800D01*
X166060645Y-143240000D01*
X166060645Y-141240000D01*
X166017426Y-141017247D01*
X165888820Y-140821467D01*
X165694669Y-140690414D01*
X165465000Y-140644355D01*
X163465000Y-140644355D01*
X163242247Y-140687574D01*
X163046467Y-140816180D01*
X162915414Y-141010331D01*
X162869355Y-141240000D01*
X162869355Y-143240000D01*
X162912574Y-143462753D01*
X163041180Y-143658533D01*
X163235331Y-143789586D01*
X163465000Y-143835645D01*
X165465000Y-143835645D01*
X165687753Y-143792426D01*
X165883533Y-143663820D01*
X166014586Y-143469669D01*
X166060645Y-143240000D01*
X166060645Y-145973800D01*
X159082569Y-145973800D01*
X159082569Y-142441891D01*
X159037841Y-141813247D01*
X158883321Y-141440201D01*
X158636960Y-141334488D01*
X158385512Y-141585935D01*
X158385512Y-141083040D01*
X158279799Y-140836679D01*
X157681891Y-140637431D01*
X157053247Y-140682159D01*
X156680201Y-140836679D01*
X156574488Y-141083040D01*
X157480000Y-141988553D01*
X158385512Y-141083040D01*
X158385512Y-141585935D01*
X157731447Y-142240000D01*
X158636960Y-143145512D01*
X158883321Y-143039799D01*
X159082569Y-142441891D01*
X159082569Y-145973800D01*
X158385512Y-145973800D01*
X158385512Y-143396960D01*
X157480000Y-142491447D01*
X157228553Y-142742894D01*
X157228553Y-142240000D01*
X156323040Y-141334488D01*
X156076679Y-141440201D01*
X155877431Y-142038109D01*
X155922159Y-142666753D01*
X156076679Y-143039799D01*
X156323040Y-143145512D01*
X157228553Y-142240000D01*
X157228553Y-142742894D01*
X156574488Y-143396960D01*
X156680201Y-143643321D01*
X157278109Y-143842569D01*
X157906753Y-143797841D01*
X158279799Y-143643321D01*
X158385512Y-143396960D01*
X158385512Y-145973800D01*
X155265645Y-145973800D01*
X155265645Y-143240000D01*
X155265645Y-141240000D01*
X155222426Y-141017247D01*
X155093820Y-140821467D01*
X154899669Y-140690414D01*
X154670000Y-140644355D01*
X152670000Y-140644355D01*
X152447247Y-140687574D01*
X152251467Y-140816180D01*
X152120414Y-141010331D01*
X152074355Y-141240000D01*
X152074355Y-143240000D01*
X152117574Y-143462753D01*
X152246180Y-143658533D01*
X152440331Y-143789586D01*
X152670000Y-143835645D01*
X154670000Y-143835645D01*
X154892753Y-143792426D01*
X155088533Y-143663820D01*
X155219586Y-143469669D01*
X155265645Y-143240000D01*
X155265645Y-145973800D01*
X148287569Y-145973800D01*
X148287569Y-142441891D01*
X148242841Y-141813247D01*
X148088321Y-141440201D01*
X147841960Y-141334488D01*
X147590512Y-141585935D01*
X147590512Y-141083040D01*
X147484799Y-140836679D01*
X146886891Y-140637431D01*
X146258247Y-140682159D01*
X145885201Y-140836679D01*
X145779488Y-141083040D01*
X146685000Y-141988553D01*
X147590512Y-141083040D01*
X147590512Y-141585935D01*
X146936447Y-142240000D01*
X147841960Y-143145512D01*
X148088321Y-143039799D01*
X148287569Y-142441891D01*
X148287569Y-145973800D01*
X147590512Y-145973800D01*
X147590512Y-143396960D01*
X146685000Y-142491447D01*
X146433553Y-142742894D01*
X146433553Y-142240000D01*
X145528040Y-141334488D01*
X145281679Y-141440201D01*
X145082431Y-142038109D01*
X145127159Y-142666753D01*
X145281679Y-143039799D01*
X145528040Y-143145512D01*
X146433553Y-142240000D01*
X146433553Y-142742894D01*
X145779488Y-143396960D01*
X145885201Y-143643321D01*
X146483109Y-143842569D01*
X147111753Y-143797841D01*
X147484799Y-143643321D01*
X147590512Y-143396960D01*
X147590512Y-145973800D01*
X144470645Y-145973800D01*
X144470645Y-143240000D01*
X144470645Y-141240000D01*
X144427426Y-141017247D01*
X144298820Y-140821467D01*
X144104669Y-140690414D01*
X143875000Y-140644355D01*
X141875000Y-140644355D01*
X141652247Y-140687574D01*
X141456467Y-140816180D01*
X141325414Y-141010331D01*
X141279355Y-141240000D01*
X141279355Y-143240000D01*
X141322574Y-143462753D01*
X141451180Y-143658533D01*
X141645331Y-143789586D01*
X141875000Y-143835645D01*
X143875000Y-143835645D01*
X144097753Y-143792426D01*
X144293533Y-143663820D01*
X144424586Y-143469669D01*
X144470645Y-143240000D01*
X144470645Y-145973800D01*
X137492569Y-145973800D01*
X137492569Y-142441891D01*
X137447841Y-141813247D01*
X137293321Y-141440201D01*
X137046960Y-141334488D01*
X136795512Y-141585935D01*
X136795512Y-141083040D01*
X136689799Y-140836679D01*
X136091891Y-140637431D01*
X135463247Y-140682159D01*
X135090201Y-140836679D01*
X134984488Y-141083040D01*
X135890000Y-141988553D01*
X136795512Y-141083040D01*
X136795512Y-141585935D01*
X136141447Y-142240000D01*
X137046960Y-143145512D01*
X137293321Y-143039799D01*
X137492569Y-142441891D01*
X137492569Y-145973800D01*
X136795512Y-145973800D01*
X136795512Y-143396960D01*
X135890000Y-142491447D01*
X135638553Y-142742894D01*
X135638553Y-142240000D01*
X134733040Y-141334488D01*
X134486679Y-141440201D01*
X134287431Y-142038109D01*
X134332159Y-142666753D01*
X134486679Y-143039799D01*
X134733040Y-143145512D01*
X135638553Y-142240000D01*
X135638553Y-142742894D01*
X134984488Y-143396960D01*
X135090201Y-143643321D01*
X135688109Y-143842569D01*
X136316753Y-143797841D01*
X136689799Y-143643321D01*
X136795512Y-143396960D01*
X136795512Y-145973800D01*
X133675645Y-145973800D01*
X133675645Y-143240000D01*
X133675645Y-141240000D01*
X133632426Y-141017247D01*
X133503820Y-140821467D01*
X133309669Y-140690414D01*
X133080000Y-140644355D01*
X131080000Y-140644355D01*
X130857247Y-140687574D01*
X130661467Y-140816180D01*
X130530414Y-141010331D01*
X130484355Y-141240000D01*
X130484355Y-143240000D01*
X130527574Y-143462753D01*
X130656180Y-143658533D01*
X130850331Y-143789586D01*
X131080000Y-143835645D01*
X133080000Y-143835645D01*
X133302753Y-143792426D01*
X133498533Y-143663820D01*
X133629586Y-143469669D01*
X133675645Y-143240000D01*
X133675645Y-145973800D01*
X129616200Y-145973800D01*
X129616200Y-139141200D01*
X192328800Y-139141200D01*
X192328800Y-145973800D01*
M02*
