G04 #@! TF.FileFunction,Copper,L4,Bot,Signal*
%FSLAX46Y46*%
G04 Gerber Fmt 4.6, Leading zero omitted, Abs format (unit mm)*
G04 Created by KiCad (PCBNEW 4.0.4-stable) date Mon Oct  3 10:35:52 2016*
%MOMM*%
%LPD*%
G01*
G04 APERTURE LIST*
%ADD10C,0.100000*%
%ADD11C,6.400000*%
%ADD12R,1.300000X1.300000*%
%ADD13C,1.300000*%
%ADD14R,1.000000X1.600000*%
%ADD15C,2.000000*%
%ADD16R,2.000000X2.000000*%
%ADD17R,0.500000X0.900000*%
%ADD18R,0.900000X0.500000*%
%ADD19C,1.524000*%
%ADD20C,3.048000*%
%ADD21C,0.600000*%
%ADD22C,2.000000*%
%ADD23C,1.500000*%
%ADD24C,1.000000*%
%ADD25C,3.000000*%
%ADD26C,0.152400*%
G04 APERTURE END LIST*
D10*
D11*
X145288000Y-87884000D03*
D12*
X140017500Y-115252500D03*
D13*
X142017500Y-115252500D03*
D12*
X146304000Y-115316000D03*
D13*
X148304000Y-115316000D03*
D14*
X135167500Y-82867500D03*
X132167500Y-82867500D03*
X118657500Y-83502500D03*
X115657500Y-83502500D03*
D12*
X134937500Y-77787500D03*
D13*
X132937500Y-77787500D03*
D12*
X115887500Y-77787500D03*
D13*
X117887500Y-77787500D03*
D12*
X163512500Y-68262500D03*
D13*
X161512500Y-68262500D03*
D12*
X175577500Y-68262500D03*
D13*
X173577500Y-68262500D03*
D12*
X198437500Y-66992500D03*
D13*
X198437500Y-64992500D03*
D12*
X200977500Y-117157500D03*
D13*
X200977500Y-119157500D03*
D12*
X198437500Y-60642500D03*
D13*
X198437500Y-58642500D03*
D12*
X200977500Y-123507500D03*
D13*
X200977500Y-125507500D03*
D15*
X105727500Y-99377500D03*
D16*
X105727500Y-91757500D03*
D15*
X105727500Y-95567500D03*
X105727500Y-114617500D03*
D16*
X105727500Y-106997500D03*
D15*
X105727500Y-110807500D03*
X120967500Y-114617500D03*
D16*
X120967500Y-106997500D03*
D15*
X120967500Y-110807500D03*
X120967500Y-99377500D03*
D16*
X120967500Y-91757500D03*
D15*
X120967500Y-95567500D03*
X105727500Y-84137500D03*
D16*
X105727500Y-76517500D03*
D15*
X105727500Y-80327500D03*
X136207500Y-99377500D03*
D16*
X136207500Y-91757500D03*
D15*
X136207500Y-95567500D03*
X158432500Y-61277500D03*
D16*
X150812500Y-61277500D03*
D15*
X154622500Y-61277500D03*
X173672500Y-61277500D03*
D16*
X166052500Y-61277500D03*
D15*
X169862500Y-61277500D03*
X145097500Y-79057500D03*
D16*
X145097500Y-71437500D03*
D15*
X145097500Y-75247500D03*
X143192500Y-61277500D03*
D16*
X135572500Y-61277500D03*
D15*
X139382500Y-61277500D03*
X127952500Y-61277500D03*
D16*
X120332500Y-61277500D03*
D15*
X124142500Y-61277500D03*
X112712500Y-61277500D03*
D16*
X105092500Y-61277500D03*
D15*
X108902500Y-61277500D03*
X193357500Y-117792500D03*
D16*
X193357500Y-125412500D03*
D15*
X193357500Y-121602500D03*
X206057500Y-110807500D03*
D16*
X206057500Y-103187500D03*
D15*
X206057500Y-106997500D03*
X193357500Y-103187500D03*
D16*
X193357500Y-110807500D03*
D15*
X193357500Y-106997500D03*
X206057500Y-66992500D03*
D16*
X206057500Y-59372500D03*
D15*
X206057500Y-63182500D03*
X193357500Y-73977500D03*
D16*
X193357500Y-81597500D03*
D15*
X193357500Y-77787500D03*
X206057500Y-81597500D03*
D16*
X206057500Y-73977500D03*
D15*
X206057500Y-77787500D03*
X193357500Y-59372500D03*
D16*
X193357500Y-66992500D03*
D15*
X193357500Y-63182500D03*
X206057500Y-96202500D03*
D16*
X206057500Y-88582500D03*
D15*
X206057500Y-92392500D03*
X193357500Y-88582500D03*
D16*
X193357500Y-96202500D03*
D15*
X193357500Y-92392500D03*
X206057500Y-125412500D03*
D16*
X206057500Y-117792500D03*
D15*
X206057500Y-121602500D03*
X140017500Y-122872500D03*
D16*
X147637500Y-122872500D03*
D15*
X143827500Y-122872500D03*
D17*
X127432500Y-122872500D03*
X125932500Y-122872500D03*
D18*
X128587500Y-79172500D03*
X128587500Y-77672500D03*
D19*
X125412500Y-82232500D03*
X122872500Y-79692500D03*
X122872500Y-84772500D03*
X179387500Y-61912500D03*
X181927500Y-64452500D03*
X181927500Y-59372500D03*
D20*
X113347500Y-122999500D03*
X122237500Y-122999500D03*
X131127500Y-122999500D03*
X131762500Y-72199500D03*
X125412500Y-72199500D03*
X119062500Y-72199500D03*
X112712500Y-72199500D03*
D11*
X145288000Y-106172000D03*
D21*
X174752000Y-73660000D03*
X136652000Y-116840000D03*
X158496000Y-75184000D03*
X158496000Y-66548000D03*
X158496000Y-70612000D03*
X158496000Y-68580000D03*
X176784000Y-67056000D03*
X175768000Y-66040000D03*
X172720000Y-65024000D03*
X173736000Y-65024000D03*
D22*
X140017500Y-122872500D02*
X140017500Y-123126500D01*
X140017500Y-123126500D02*
X136652000Y-126492000D01*
X116840000Y-126492000D02*
X113347500Y-122999500D01*
X136652000Y-126492000D02*
X116840000Y-126492000D01*
D23*
X146304000Y-115316000D02*
X142081000Y-115316000D01*
X142081000Y-115316000D02*
X142017500Y-115252500D01*
X142081000Y-115316000D02*
X142017500Y-115252500D01*
D24*
X127432500Y-122872500D02*
X131000500Y-122872500D01*
X131000500Y-122872500D02*
X131127500Y-122999500D01*
D22*
X147637500Y-122872500D02*
X147637500Y-122237500D01*
X147637500Y-122237500D02*
X145288000Y-119888000D01*
X134239000Y-119888000D02*
X131127500Y-122999500D01*
X145288000Y-119888000D02*
X134239000Y-119888000D01*
D23*
X148304000Y-115316000D02*
X148304000Y-122206000D01*
X148304000Y-122206000D02*
X147637500Y-122872500D01*
X134937500Y-77787500D02*
X134937500Y-82637500D01*
X134937500Y-82637500D02*
X135167500Y-82867500D01*
X115657500Y-83502500D02*
X115657500Y-78017500D01*
X115657500Y-78017500D02*
X115887500Y-77787500D01*
X193357500Y-121602500D02*
X199072500Y-121602500D01*
X199072500Y-121602500D02*
X200977500Y-123507500D01*
X206057500Y-121602500D02*
X202882500Y-121602500D01*
X202882500Y-121602500D02*
X200977500Y-123507500D01*
X206057500Y-121602500D02*
X203422500Y-121602500D01*
X203422500Y-121602500D02*
X200977500Y-119157500D01*
X193357500Y-121602500D02*
X198532500Y-121602500D01*
X198532500Y-121602500D02*
X200977500Y-119157500D01*
X206057500Y-63182500D02*
X200247500Y-63182500D01*
X200247500Y-63182500D02*
X198437500Y-64992500D01*
X193357500Y-63182500D02*
X196627500Y-63182500D01*
X196627500Y-63182500D02*
X198437500Y-64992500D01*
X206057500Y-63182500D02*
X200977500Y-63182500D01*
X200977500Y-63182500D02*
X198437500Y-60642500D01*
X193357500Y-63182500D02*
X195897500Y-63182500D01*
X195897500Y-63182500D02*
X198437500Y-60642500D01*
D25*
X193357500Y-106997500D02*
X206057500Y-106997500D01*
X193357500Y-92392500D02*
X206057500Y-92392500D01*
X193357500Y-77787500D02*
X206057500Y-77787500D01*
X193357500Y-63182500D02*
X206057500Y-63182500D01*
X193357500Y-121602500D02*
X206057500Y-121602500D01*
D23*
X200977500Y-119157500D02*
X203612500Y-119157500D01*
X203612500Y-119157500D02*
X206057500Y-121602500D01*
X200977500Y-123507500D02*
X204152500Y-123507500D01*
X204152500Y-123507500D02*
X206057500Y-121602500D01*
D25*
X193357500Y-63182500D02*
X191198500Y-63182500D01*
X191198500Y-63182500D02*
X180721000Y-73660000D01*
X180721000Y-73660000D02*
X174752000Y-73660000D01*
X124142500Y-61277500D02*
X124142500Y-70929500D01*
X124142500Y-70929500D02*
X125412500Y-72199500D01*
D24*
X128587500Y-77672500D02*
X132822500Y-77672500D01*
X132822500Y-77672500D02*
X132937500Y-77787500D01*
X128587500Y-77672500D02*
X128587500Y-75374500D01*
X128587500Y-75374500D02*
X125412500Y-72199500D01*
D25*
X209296000Y-80772000D02*
X209296000Y-64008000D01*
X209296000Y-64008000D02*
X208470500Y-63182500D01*
X208470500Y-63182500D02*
X206057500Y-63182500D01*
X209296000Y-94488000D02*
X209296000Y-80772000D01*
X209296000Y-80772000D02*
X209296000Y-78232000D01*
X209296000Y-78232000D02*
X208851500Y-77787500D01*
X208851500Y-77787500D02*
X206057500Y-77787500D01*
X209296000Y-110744000D02*
X209296000Y-94488000D01*
X209296000Y-94488000D02*
X209296000Y-93472000D01*
X209296000Y-93472000D02*
X208216500Y-92392500D01*
X208216500Y-92392500D02*
X206057500Y-92392500D01*
X206057500Y-121602500D02*
X207073500Y-121602500D01*
X207073500Y-121602500D02*
X209296000Y-119380000D01*
X209296000Y-119380000D02*
X209296000Y-110744000D01*
X209296000Y-110744000D02*
X209296000Y-108712000D01*
X209296000Y-108712000D02*
X207581500Y-106997500D01*
X207581500Y-106997500D02*
X206057500Y-106997500D01*
X189484000Y-104648000D02*
X189484000Y-118872000D01*
X189484000Y-118872000D02*
X192214500Y-121602500D01*
X192214500Y-121602500D02*
X193357500Y-121602500D01*
X189484000Y-90424000D02*
X189484000Y-104648000D01*
X189484000Y-104648000D02*
X191833500Y-106997500D01*
X191833500Y-106997500D02*
X193357500Y-106997500D01*
X189484000Y-76200000D02*
X189484000Y-90424000D01*
X189484000Y-90424000D02*
X191452500Y-92392500D01*
X191452500Y-92392500D02*
X193357500Y-92392500D01*
X193357500Y-63182500D02*
X191325500Y-63182500D01*
X191325500Y-63182500D02*
X189484000Y-65024000D01*
X189484000Y-65024000D02*
X189484000Y-76200000D01*
X189484000Y-76200000D02*
X191071500Y-77787500D01*
X191071500Y-77787500D02*
X193357500Y-77787500D01*
D23*
X132167500Y-82867500D02*
X132167500Y-78557500D01*
X132167500Y-78557500D02*
X132937500Y-77787500D01*
X118657500Y-83502500D02*
X118657500Y-78557500D01*
X118657500Y-78557500D02*
X117887500Y-77787500D01*
D24*
X125932500Y-122872500D02*
X122364500Y-122872500D01*
X122364500Y-122872500D02*
X122237500Y-122999500D01*
X125412500Y-82232500D02*
X125527500Y-82232500D01*
X125527500Y-82232500D02*
X128587500Y-79172500D01*
D23*
X125412500Y-82232500D02*
X122872500Y-84772500D01*
X122872500Y-79692500D02*
X122872500Y-76009500D01*
X122872500Y-76009500D02*
X119062500Y-72199500D01*
D26*
G36*
X211201800Y-127635800D02*
X137736878Y-127635800D01*
X137772199Y-127612199D01*
X141137696Y-124246701D01*
X141137699Y-124246699D01*
X141282853Y-124029460D01*
X142921988Y-124029460D01*
X143027701Y-124275821D01*
X143625609Y-124475069D01*
X144254253Y-124430341D01*
X144627299Y-124275821D01*
X144733012Y-124029460D01*
X143827500Y-123123947D01*
X142921988Y-124029460D01*
X141282853Y-124029460D01*
X141481110Y-123732747D01*
X141506372Y-123605747D01*
X141578092Y-123245188D01*
X141601424Y-123188999D01*
X141601478Y-123127623D01*
X141601701Y-123126500D01*
X141601700Y-123126495D01*
X141601700Y-122872500D01*
X141601876Y-122670609D01*
X142224931Y-122670609D01*
X142269659Y-123299253D01*
X142424179Y-123672299D01*
X142670540Y-123778012D01*
X143576053Y-122872500D01*
X142670540Y-121966988D01*
X142424179Y-122072701D01*
X142224931Y-122670609D01*
X141601876Y-122670609D01*
X141601974Y-122558766D01*
X141361302Y-121976295D01*
X140916049Y-121530264D01*
X140776215Y-121472200D01*
X143026405Y-121472200D01*
X142921988Y-121715540D01*
X143827500Y-122621053D01*
X143841642Y-122606910D01*
X144093090Y-122858358D01*
X144078947Y-122872500D01*
X144984460Y-123778012D01*
X145230821Y-123672299D01*
X145430069Y-123074391D01*
X145385341Y-122445747D01*
X145230821Y-122072701D01*
X144984461Y-121966989D01*
X145055526Y-121895924D01*
X146041855Y-122882252D01*
X146041855Y-123872500D01*
X146082591Y-124088992D01*
X146210537Y-124287826D01*
X146405761Y-124421217D01*
X146637500Y-124468145D01*
X148637500Y-124468145D01*
X148853992Y-124427409D01*
X148877161Y-124412500D01*
X191761855Y-124412500D01*
X191761855Y-126412500D01*
X191802591Y-126628992D01*
X191930537Y-126827826D01*
X192125761Y-126961217D01*
X192357500Y-127008145D01*
X194357500Y-127008145D01*
X194573992Y-126967409D01*
X194772826Y-126839463D01*
X194906217Y-126644239D01*
X194953145Y-126412500D01*
X194953145Y-125751920D01*
X199743087Y-125751920D01*
X199930586Y-126205705D01*
X200277469Y-126553193D01*
X200730925Y-126741485D01*
X201221920Y-126741913D01*
X201675705Y-126554414D01*
X202023193Y-126207531D01*
X202211485Y-125754075D01*
X202211509Y-125726234D01*
X204473026Y-125726234D01*
X204713698Y-126308705D01*
X205158951Y-126754736D01*
X205741001Y-126996424D01*
X206371234Y-126996974D01*
X206953705Y-126756302D01*
X207399736Y-126311049D01*
X207641424Y-125728999D01*
X207641974Y-125098766D01*
X207401302Y-124516295D01*
X206956049Y-124070264D01*
X206373999Y-123828576D01*
X205743766Y-123828026D01*
X205161295Y-124068698D01*
X204715264Y-124513951D01*
X204473576Y-125096001D01*
X204473026Y-125726234D01*
X202211509Y-125726234D01*
X202211913Y-125263080D01*
X202024414Y-124809295D01*
X201894559Y-124679214D01*
X201958422Y-124652761D01*
X202122761Y-124488423D01*
X202211700Y-124273705D01*
X202211700Y-123831350D01*
X202065650Y-123685300D01*
X201155300Y-123685300D01*
X201155300Y-123705300D01*
X200799700Y-123705300D01*
X200799700Y-123685300D01*
X199889350Y-123685300D01*
X199743300Y-123831350D01*
X199743300Y-124273705D01*
X199832239Y-124488423D01*
X199996578Y-124652761D01*
X200060331Y-124679168D01*
X199931807Y-124807469D01*
X199743515Y-125260925D01*
X199743087Y-125751920D01*
X194953145Y-125751920D01*
X194953145Y-124412500D01*
X194912409Y-124196008D01*
X194784463Y-123997174D01*
X194589239Y-123863783D01*
X194357500Y-123816855D01*
X192357500Y-123816855D01*
X192141008Y-123857591D01*
X191942174Y-123985537D01*
X191808783Y-124180761D01*
X191761855Y-124412500D01*
X148877161Y-124412500D01*
X149052826Y-124299463D01*
X149186217Y-124104239D01*
X149233145Y-123872500D01*
X149233145Y-123163699D01*
X149247422Y-123149422D01*
X149507986Y-122759460D01*
X192451988Y-122759460D01*
X192557701Y-123005821D01*
X193155609Y-123205069D01*
X193784253Y-123160341D01*
X194157299Y-123005821D01*
X194263012Y-122759460D01*
X194244848Y-122741295D01*
X199743300Y-122741295D01*
X199743300Y-123183650D01*
X199889350Y-123329700D01*
X200799700Y-123329700D01*
X200799700Y-122419350D01*
X201155300Y-122419350D01*
X201155300Y-123329700D01*
X202065650Y-123329700D01*
X202211700Y-123183650D01*
X202211700Y-122759460D01*
X205151988Y-122759460D01*
X205257701Y-123005821D01*
X205855609Y-123205069D01*
X206484253Y-123160341D01*
X206857299Y-123005821D01*
X206963012Y-122759460D01*
X206057500Y-121853947D01*
X205151988Y-122759460D01*
X202211700Y-122759460D01*
X202211700Y-122741295D01*
X202122761Y-122526577D01*
X201958422Y-122362239D01*
X201743704Y-122273300D01*
X201301350Y-122273300D01*
X201155300Y-122419350D01*
X200799700Y-122419350D01*
X200653650Y-122273300D01*
X200211296Y-122273300D01*
X199996578Y-122362239D01*
X199832239Y-122526577D01*
X199743300Y-122741295D01*
X194244848Y-122741295D01*
X193357500Y-121853947D01*
X192451988Y-122759460D01*
X149507986Y-122759460D01*
X149536640Y-122716577D01*
X149638200Y-122206000D01*
X149638200Y-121400609D01*
X191754931Y-121400609D01*
X191799659Y-122029253D01*
X191954179Y-122402299D01*
X192200540Y-122508012D01*
X193106053Y-121602500D01*
X193608947Y-121602500D01*
X194514460Y-122508012D01*
X194760821Y-122402299D01*
X194960069Y-121804391D01*
X194931340Y-121400609D01*
X204454931Y-121400609D01*
X204499659Y-122029253D01*
X204654179Y-122402299D01*
X204900540Y-122508012D01*
X205806053Y-121602500D01*
X206308947Y-121602500D01*
X207214460Y-122508012D01*
X207460821Y-122402299D01*
X207660069Y-121804391D01*
X207615341Y-121175747D01*
X207460821Y-120802701D01*
X207214460Y-120696988D01*
X206308947Y-121602500D01*
X205806053Y-121602500D01*
X204900540Y-120696988D01*
X204654179Y-120802701D01*
X204454931Y-121400609D01*
X194931340Y-121400609D01*
X194915341Y-121175747D01*
X194760821Y-120802701D01*
X194514460Y-120696988D01*
X193608947Y-121602500D01*
X193106053Y-121602500D01*
X192200540Y-120696988D01*
X191954179Y-120802701D01*
X191754931Y-121400609D01*
X149638200Y-121400609D01*
X149638200Y-120445540D01*
X192451988Y-120445540D01*
X193357500Y-121351053D01*
X194263012Y-120445540D01*
X205151988Y-120445540D01*
X206057500Y-121351053D01*
X206963012Y-120445540D01*
X206857299Y-120199179D01*
X206259391Y-119999931D01*
X205630747Y-120044659D01*
X205257701Y-120199179D01*
X205151988Y-120445540D01*
X194263012Y-120445540D01*
X194157299Y-120199179D01*
X193738586Y-120059646D01*
X200326801Y-120059646D01*
X200389107Y-120269845D01*
X200859572Y-120410342D01*
X201347990Y-120360105D01*
X201565893Y-120269845D01*
X201628199Y-120059646D01*
X200977500Y-119408947D01*
X200326801Y-120059646D01*
X193738586Y-120059646D01*
X193559391Y-119999931D01*
X192930747Y-120044659D01*
X192557701Y-120199179D01*
X192451988Y-120445540D01*
X149638200Y-120445540D01*
X149638200Y-118106234D01*
X191773026Y-118106234D01*
X192013698Y-118688705D01*
X192458951Y-119134736D01*
X193041001Y-119376424D01*
X193671234Y-119376974D01*
X194253705Y-119136302D01*
X194350604Y-119039572D01*
X199724658Y-119039572D01*
X199774895Y-119527990D01*
X199865155Y-119745893D01*
X200075354Y-119808199D01*
X200726053Y-119157500D01*
X200711911Y-119143358D01*
X200963358Y-118891911D01*
X200977500Y-118906053D01*
X200991643Y-118891911D01*
X201243090Y-119143358D01*
X201228947Y-119157500D01*
X201879646Y-119808199D01*
X202089845Y-119745893D01*
X202230342Y-119275428D01*
X202180105Y-118787010D01*
X202089845Y-118569107D01*
X201879648Y-118506802D01*
X201991978Y-118394472D01*
X201914527Y-118317021D01*
X202042826Y-118234463D01*
X202176217Y-118039239D01*
X202223145Y-117807500D01*
X202223145Y-116792500D01*
X204461855Y-116792500D01*
X204461855Y-118792500D01*
X204502591Y-119008992D01*
X204630537Y-119207826D01*
X204825761Y-119341217D01*
X205057500Y-119388145D01*
X207057500Y-119388145D01*
X207273992Y-119347409D01*
X207472826Y-119219463D01*
X207606217Y-119024239D01*
X207653145Y-118792500D01*
X207653145Y-116792500D01*
X207612409Y-116576008D01*
X207484463Y-116377174D01*
X207289239Y-116243783D01*
X207057500Y-116196855D01*
X205057500Y-116196855D01*
X204841008Y-116237591D01*
X204642174Y-116365537D01*
X204508783Y-116560761D01*
X204461855Y-116792500D01*
X202223145Y-116792500D01*
X202223145Y-116507500D01*
X202182409Y-116291008D01*
X202054463Y-116092174D01*
X201859239Y-115958783D01*
X201627500Y-115911855D01*
X200327500Y-115911855D01*
X200111008Y-115952591D01*
X199912174Y-116080537D01*
X199778783Y-116275761D01*
X199731855Y-116507500D01*
X199731855Y-117807500D01*
X199772591Y-118023992D01*
X199900537Y-118222826D01*
X200039630Y-118317864D01*
X199963022Y-118394472D01*
X200075352Y-118506802D01*
X199865155Y-118569107D01*
X199724658Y-119039572D01*
X194350604Y-119039572D01*
X194699736Y-118691049D01*
X194941424Y-118108999D01*
X194941974Y-117478766D01*
X194701302Y-116896295D01*
X194256049Y-116450264D01*
X193673999Y-116208576D01*
X193043766Y-116208026D01*
X192461295Y-116448698D01*
X192015264Y-116893951D01*
X191773576Y-117476001D01*
X191773026Y-118106234D01*
X149638200Y-118106234D01*
X149638200Y-115316000D01*
X149536640Y-114805424D01*
X149247422Y-114372578D01*
X148814576Y-114083360D01*
X148304000Y-113981800D01*
X147793424Y-114083360D01*
X147429690Y-114326399D01*
X147380963Y-114250674D01*
X147185739Y-114117283D01*
X146954000Y-114070355D01*
X146749196Y-114070355D01*
X146304000Y-113981800D01*
X142336736Y-113981800D01*
X142017500Y-113918300D01*
X141506924Y-114019860D01*
X141143190Y-114262899D01*
X141094463Y-114187174D01*
X140899239Y-114053783D01*
X140667500Y-114006855D01*
X139367500Y-114006855D01*
X139151008Y-114047591D01*
X138952174Y-114175537D01*
X138818783Y-114370761D01*
X138771855Y-114602500D01*
X138771855Y-115902500D01*
X138812591Y-116118992D01*
X138940537Y-116317826D01*
X139135761Y-116451217D01*
X139367500Y-116498145D01*
X140667500Y-116498145D01*
X140883992Y-116457409D01*
X141082826Y-116329463D01*
X141133482Y-116255326D01*
X141137578Y-116259422D01*
X141570424Y-116548640D01*
X142081000Y-116650200D01*
X146304000Y-116650200D01*
X146749196Y-116561645D01*
X146954000Y-116561645D01*
X146969800Y-116558672D01*
X146969800Y-119329402D01*
X146408199Y-118767801D01*
X145894247Y-118424390D01*
X145288000Y-118303799D01*
X145287995Y-118303800D01*
X134239000Y-118303800D01*
X133632752Y-118424390D01*
X133509416Y-118506801D01*
X133118801Y-118767801D01*
X133118799Y-118767804D01*
X130995418Y-120891184D01*
X130709993Y-120890935D01*
X129934861Y-121211213D01*
X129356765Y-121788300D01*
X127432500Y-121788300D01*
X127238672Y-121826855D01*
X127182500Y-121826855D01*
X126966008Y-121867591D01*
X126767174Y-121995537D01*
X126713590Y-122073959D01*
X126682500Y-122094733D01*
X126653214Y-122075165D01*
X126609463Y-122007174D01*
X126414239Y-121873783D01*
X126182500Y-121826855D01*
X126126328Y-121826855D01*
X125932500Y-121788300D01*
X124007258Y-121788300D01*
X123433259Y-121213297D01*
X122658687Y-120891667D01*
X121819993Y-120890935D01*
X121044861Y-121211213D01*
X120451297Y-121803741D01*
X120129667Y-122578313D01*
X120128935Y-123417007D01*
X120449213Y-124192139D01*
X121041741Y-124785703D01*
X121335784Y-124907800D01*
X117496197Y-124907800D01*
X115455816Y-122867418D01*
X115456065Y-122581993D01*
X115135787Y-121806861D01*
X114543259Y-121213297D01*
X113768687Y-120891667D01*
X112929993Y-120890935D01*
X112154861Y-121211213D01*
X111561297Y-121803741D01*
X111239667Y-122578313D01*
X111238935Y-123417007D01*
X111559213Y-124192139D01*
X112151741Y-124785703D01*
X112926313Y-125107333D01*
X113215187Y-125107585D01*
X115719799Y-127612196D01*
X115719801Y-127612199D01*
X115755122Y-127635800D01*
X102234200Y-127635800D01*
X102234200Y-114931234D01*
X104143026Y-114931234D01*
X104383698Y-115513705D01*
X104828951Y-115959736D01*
X105411001Y-116201424D01*
X106041234Y-116201974D01*
X106623705Y-115961302D01*
X107069736Y-115516049D01*
X107311424Y-114933999D01*
X107311426Y-114931234D01*
X119383026Y-114931234D01*
X119623698Y-115513705D01*
X120068951Y-115959736D01*
X120651001Y-116201424D01*
X121281234Y-116201974D01*
X121863705Y-115961302D01*
X122309736Y-115516049D01*
X122551424Y-114933999D01*
X122551974Y-114303766D01*
X122311302Y-113721295D01*
X121866049Y-113275264D01*
X121283999Y-113033576D01*
X120653766Y-113033026D01*
X120071295Y-113273698D01*
X119625264Y-113718951D01*
X119383576Y-114301001D01*
X119383026Y-114931234D01*
X107311426Y-114931234D01*
X107311974Y-114303766D01*
X107071302Y-113721295D01*
X106626049Y-113275264D01*
X106043999Y-113033576D01*
X105413766Y-113033026D01*
X104831295Y-113273698D01*
X104385264Y-113718951D01*
X104143576Y-114301001D01*
X104143026Y-114931234D01*
X102234200Y-114931234D01*
X102234200Y-111964460D01*
X104821988Y-111964460D01*
X104927701Y-112210821D01*
X105525609Y-112410069D01*
X106154253Y-112365341D01*
X106527299Y-112210821D01*
X106633012Y-111964460D01*
X120061988Y-111964460D01*
X120167701Y-112210821D01*
X120765609Y-112410069D01*
X121394253Y-112365341D01*
X121767299Y-112210821D01*
X121873012Y-111964460D01*
X120967500Y-111058947D01*
X120061988Y-111964460D01*
X106633012Y-111964460D01*
X105727500Y-111058947D01*
X104821988Y-111964460D01*
X102234200Y-111964460D01*
X102234200Y-110605609D01*
X104124931Y-110605609D01*
X104169659Y-111234253D01*
X104324179Y-111607299D01*
X104570540Y-111713012D01*
X105476053Y-110807500D01*
X105978947Y-110807500D01*
X106884460Y-111713012D01*
X107130821Y-111607299D01*
X107330069Y-111009391D01*
X107301340Y-110605609D01*
X119364931Y-110605609D01*
X119409659Y-111234253D01*
X119564179Y-111607299D01*
X119810540Y-111713012D01*
X120716053Y-110807500D01*
X121218947Y-110807500D01*
X122124460Y-111713012D01*
X122370821Y-111607299D01*
X122570069Y-111009391D01*
X122525341Y-110380747D01*
X122370821Y-110007701D01*
X122124460Y-109901988D01*
X121218947Y-110807500D01*
X120716053Y-110807500D01*
X119810540Y-109901988D01*
X119564179Y-110007701D01*
X119364931Y-110605609D01*
X107301340Y-110605609D01*
X107285341Y-110380747D01*
X107130821Y-110007701D01*
X106884460Y-109901988D01*
X105978947Y-110807500D01*
X105476053Y-110807500D01*
X104570540Y-109901988D01*
X104324179Y-110007701D01*
X104124931Y-110605609D01*
X102234200Y-110605609D01*
X102234200Y-109650540D01*
X104821988Y-109650540D01*
X105727500Y-110556053D01*
X106633012Y-109650540D01*
X120061988Y-109650540D01*
X120967500Y-110556053D01*
X121873012Y-109650540D01*
X121767299Y-109404179D01*
X121169391Y-109204931D01*
X120540747Y-109249659D01*
X120167701Y-109404179D01*
X120061988Y-109650540D01*
X106633012Y-109650540D01*
X106527299Y-109404179D01*
X105929391Y-109204931D01*
X105300747Y-109249659D01*
X104927701Y-109404179D01*
X104821988Y-109650540D01*
X102234200Y-109650540D01*
X102234200Y-105997500D01*
X104131855Y-105997500D01*
X104131855Y-107997500D01*
X104172591Y-108213992D01*
X104300537Y-108412826D01*
X104495761Y-108546217D01*
X104727500Y-108593145D01*
X106727500Y-108593145D01*
X106943992Y-108552409D01*
X107142826Y-108424463D01*
X107276217Y-108229239D01*
X107323145Y-107997500D01*
X107323145Y-105997500D01*
X119371855Y-105997500D01*
X119371855Y-107997500D01*
X119412591Y-108213992D01*
X119540537Y-108412826D01*
X119735761Y-108546217D01*
X119967500Y-108593145D01*
X121967500Y-108593145D01*
X122183992Y-108552409D01*
X122382826Y-108424463D01*
X122516217Y-108229239D01*
X122563145Y-107997500D01*
X122563145Y-106921422D01*
X141503144Y-106921422D01*
X142078041Y-108312777D01*
X143141624Y-109378218D01*
X144531974Y-109955542D01*
X146037422Y-109956856D01*
X146398890Y-109807500D01*
X191761855Y-109807500D01*
X191761855Y-111807500D01*
X191802591Y-112023992D01*
X191930537Y-112222826D01*
X192125761Y-112356217D01*
X192357500Y-112403145D01*
X194357500Y-112403145D01*
X194573992Y-112362409D01*
X194772826Y-112234463D01*
X194906217Y-112039239D01*
X194953145Y-111807500D01*
X194953145Y-111121234D01*
X204473026Y-111121234D01*
X204713698Y-111703705D01*
X205158951Y-112149736D01*
X205741001Y-112391424D01*
X206371234Y-112391974D01*
X206953705Y-112151302D01*
X207399736Y-111706049D01*
X207641424Y-111123999D01*
X207641974Y-110493766D01*
X207401302Y-109911295D01*
X206956049Y-109465264D01*
X206373999Y-109223576D01*
X205743766Y-109223026D01*
X205161295Y-109463698D01*
X204715264Y-109908951D01*
X204473576Y-110491001D01*
X204473026Y-111121234D01*
X194953145Y-111121234D01*
X194953145Y-109807500D01*
X194912409Y-109591008D01*
X194784463Y-109392174D01*
X194589239Y-109258783D01*
X194357500Y-109211855D01*
X192357500Y-109211855D01*
X192141008Y-109252591D01*
X191942174Y-109380537D01*
X191808783Y-109575761D01*
X191761855Y-109807500D01*
X146398890Y-109807500D01*
X147428777Y-109381959D01*
X148494218Y-108318376D01*
X148562281Y-108154460D01*
X192451988Y-108154460D01*
X192557701Y-108400821D01*
X193155609Y-108600069D01*
X193784253Y-108555341D01*
X194157299Y-108400821D01*
X194263012Y-108154460D01*
X205151988Y-108154460D01*
X205257701Y-108400821D01*
X205855609Y-108600069D01*
X206484253Y-108555341D01*
X206857299Y-108400821D01*
X206963012Y-108154460D01*
X206057500Y-107248947D01*
X205151988Y-108154460D01*
X194263012Y-108154460D01*
X193357500Y-107248947D01*
X192451988Y-108154460D01*
X148562281Y-108154460D01*
X149071542Y-106928026D01*
X149071657Y-106795609D01*
X191754931Y-106795609D01*
X191799659Y-107424253D01*
X191954179Y-107797299D01*
X192200540Y-107903012D01*
X193106053Y-106997500D01*
X193608947Y-106997500D01*
X194514460Y-107903012D01*
X194760821Y-107797299D01*
X194960069Y-107199391D01*
X194931340Y-106795609D01*
X204454931Y-106795609D01*
X204499659Y-107424253D01*
X204654179Y-107797299D01*
X204900540Y-107903012D01*
X205806053Y-106997500D01*
X206308947Y-106997500D01*
X207214460Y-107903012D01*
X207460821Y-107797299D01*
X207660069Y-107199391D01*
X207615341Y-106570747D01*
X207460821Y-106197701D01*
X207214460Y-106091988D01*
X206308947Y-106997500D01*
X205806053Y-106997500D01*
X204900540Y-106091988D01*
X204654179Y-106197701D01*
X204454931Y-106795609D01*
X194931340Y-106795609D01*
X194915341Y-106570747D01*
X194760821Y-106197701D01*
X194514460Y-106091988D01*
X193608947Y-106997500D01*
X193106053Y-106997500D01*
X192200540Y-106091988D01*
X191954179Y-106197701D01*
X191754931Y-106795609D01*
X149071657Y-106795609D01*
X149072491Y-105840540D01*
X192451988Y-105840540D01*
X193357500Y-106746053D01*
X194263012Y-105840540D01*
X205151988Y-105840540D01*
X206057500Y-106746053D01*
X206963012Y-105840540D01*
X206857299Y-105594179D01*
X206259391Y-105394931D01*
X205630747Y-105439659D01*
X205257701Y-105594179D01*
X205151988Y-105840540D01*
X194263012Y-105840540D01*
X194157299Y-105594179D01*
X193559391Y-105394931D01*
X192930747Y-105439659D01*
X192557701Y-105594179D01*
X192451988Y-105840540D01*
X149072491Y-105840540D01*
X149072856Y-105422578D01*
X148497959Y-104031223D01*
X147968895Y-103501234D01*
X191773026Y-103501234D01*
X192013698Y-104083705D01*
X192458951Y-104529736D01*
X193041001Y-104771424D01*
X193671234Y-104771974D01*
X194253705Y-104531302D01*
X194699736Y-104086049D01*
X194941424Y-103503999D01*
X194941974Y-102873766D01*
X194701302Y-102291295D01*
X194597689Y-102187500D01*
X204461855Y-102187500D01*
X204461855Y-104187500D01*
X204502591Y-104403992D01*
X204630537Y-104602826D01*
X204825761Y-104736217D01*
X205057500Y-104783145D01*
X207057500Y-104783145D01*
X207273992Y-104742409D01*
X207472826Y-104614463D01*
X207606217Y-104419239D01*
X207653145Y-104187500D01*
X207653145Y-102187500D01*
X207612409Y-101971008D01*
X207484463Y-101772174D01*
X207289239Y-101638783D01*
X207057500Y-101591855D01*
X205057500Y-101591855D01*
X204841008Y-101632591D01*
X204642174Y-101760537D01*
X204508783Y-101955761D01*
X204461855Y-102187500D01*
X194597689Y-102187500D01*
X194256049Y-101845264D01*
X193673999Y-101603576D01*
X193043766Y-101603026D01*
X192461295Y-101843698D01*
X192015264Y-102288951D01*
X191773576Y-102871001D01*
X191773026Y-103501234D01*
X147968895Y-103501234D01*
X147434376Y-102965782D01*
X146044026Y-102388458D01*
X144538578Y-102387144D01*
X143147223Y-102962041D01*
X142081782Y-104025624D01*
X141504458Y-105415974D01*
X141503144Y-106921422D01*
X122563145Y-106921422D01*
X122563145Y-105997500D01*
X122522409Y-105781008D01*
X122394463Y-105582174D01*
X122199239Y-105448783D01*
X121967500Y-105401855D01*
X119967500Y-105401855D01*
X119751008Y-105442591D01*
X119552174Y-105570537D01*
X119418783Y-105765761D01*
X119371855Y-105997500D01*
X107323145Y-105997500D01*
X107282409Y-105781008D01*
X107154463Y-105582174D01*
X106959239Y-105448783D01*
X106727500Y-105401855D01*
X104727500Y-105401855D01*
X104511008Y-105442591D01*
X104312174Y-105570537D01*
X104178783Y-105765761D01*
X104131855Y-105997500D01*
X102234200Y-105997500D01*
X102234200Y-99691234D01*
X104143026Y-99691234D01*
X104383698Y-100273705D01*
X104828951Y-100719736D01*
X105411001Y-100961424D01*
X106041234Y-100961974D01*
X106623705Y-100721302D01*
X107069736Y-100276049D01*
X107311424Y-99693999D01*
X107311426Y-99691234D01*
X119383026Y-99691234D01*
X119623698Y-100273705D01*
X120068951Y-100719736D01*
X120651001Y-100961424D01*
X121281234Y-100961974D01*
X121863705Y-100721302D01*
X122309736Y-100276049D01*
X122551424Y-99693999D01*
X122551426Y-99691234D01*
X134623026Y-99691234D01*
X134863698Y-100273705D01*
X135308951Y-100719736D01*
X135891001Y-100961424D01*
X136521234Y-100961974D01*
X137103705Y-100721302D01*
X137549736Y-100276049D01*
X137791424Y-99693999D01*
X137791974Y-99063766D01*
X137551302Y-98481295D01*
X137106049Y-98035264D01*
X136523999Y-97793576D01*
X135893766Y-97793026D01*
X135311295Y-98033698D01*
X134865264Y-98478951D01*
X134623576Y-99061001D01*
X134623026Y-99691234D01*
X122551426Y-99691234D01*
X122551974Y-99063766D01*
X122311302Y-98481295D01*
X121866049Y-98035264D01*
X121283999Y-97793576D01*
X120653766Y-97793026D01*
X120071295Y-98033698D01*
X119625264Y-98478951D01*
X119383576Y-99061001D01*
X119383026Y-99691234D01*
X107311426Y-99691234D01*
X107311974Y-99063766D01*
X107071302Y-98481295D01*
X106626049Y-98035264D01*
X106043999Y-97793576D01*
X105413766Y-97793026D01*
X104831295Y-98033698D01*
X104385264Y-98478951D01*
X104143576Y-99061001D01*
X104143026Y-99691234D01*
X102234200Y-99691234D01*
X102234200Y-96724460D01*
X104821988Y-96724460D01*
X104927701Y-96970821D01*
X105525609Y-97170069D01*
X106154253Y-97125341D01*
X106527299Y-96970821D01*
X106633012Y-96724460D01*
X120061988Y-96724460D01*
X120167701Y-96970821D01*
X120765609Y-97170069D01*
X121394253Y-97125341D01*
X121767299Y-96970821D01*
X121873012Y-96724460D01*
X135301988Y-96724460D01*
X135407701Y-96970821D01*
X136005609Y-97170069D01*
X136634253Y-97125341D01*
X137007299Y-96970821D01*
X137113012Y-96724460D01*
X136207500Y-95818947D01*
X135301988Y-96724460D01*
X121873012Y-96724460D01*
X120967500Y-95818947D01*
X120061988Y-96724460D01*
X106633012Y-96724460D01*
X105727500Y-95818947D01*
X104821988Y-96724460D01*
X102234200Y-96724460D01*
X102234200Y-95365609D01*
X104124931Y-95365609D01*
X104169659Y-95994253D01*
X104324179Y-96367299D01*
X104570540Y-96473012D01*
X105476053Y-95567500D01*
X105978947Y-95567500D01*
X106884460Y-96473012D01*
X107130821Y-96367299D01*
X107330069Y-95769391D01*
X107301340Y-95365609D01*
X119364931Y-95365609D01*
X119409659Y-95994253D01*
X119564179Y-96367299D01*
X119810540Y-96473012D01*
X120716053Y-95567500D01*
X121218947Y-95567500D01*
X122124460Y-96473012D01*
X122370821Y-96367299D01*
X122570069Y-95769391D01*
X122541340Y-95365609D01*
X134604931Y-95365609D01*
X134649659Y-95994253D01*
X134804179Y-96367299D01*
X135050540Y-96473012D01*
X135956053Y-95567500D01*
X136458947Y-95567500D01*
X137364460Y-96473012D01*
X137610821Y-96367299D01*
X137810069Y-95769391D01*
X137769735Y-95202500D01*
X191761855Y-95202500D01*
X191761855Y-97202500D01*
X191802591Y-97418992D01*
X191930537Y-97617826D01*
X192125761Y-97751217D01*
X192357500Y-97798145D01*
X194357500Y-97798145D01*
X194573992Y-97757409D01*
X194772826Y-97629463D01*
X194906217Y-97434239D01*
X194953145Y-97202500D01*
X194953145Y-96516234D01*
X204473026Y-96516234D01*
X204713698Y-97098705D01*
X205158951Y-97544736D01*
X205741001Y-97786424D01*
X206371234Y-97786974D01*
X206953705Y-97546302D01*
X207399736Y-97101049D01*
X207641424Y-96518999D01*
X207641974Y-95888766D01*
X207401302Y-95306295D01*
X206956049Y-94860264D01*
X206373999Y-94618576D01*
X205743766Y-94618026D01*
X205161295Y-94858698D01*
X204715264Y-95303951D01*
X204473576Y-95886001D01*
X204473026Y-96516234D01*
X194953145Y-96516234D01*
X194953145Y-95202500D01*
X194912409Y-94986008D01*
X194784463Y-94787174D01*
X194589239Y-94653783D01*
X194357500Y-94606855D01*
X192357500Y-94606855D01*
X192141008Y-94647591D01*
X191942174Y-94775537D01*
X191808783Y-94970761D01*
X191761855Y-95202500D01*
X137769735Y-95202500D01*
X137765341Y-95140747D01*
X137610821Y-94767701D01*
X137364460Y-94661988D01*
X136458947Y-95567500D01*
X135956053Y-95567500D01*
X135050540Y-94661988D01*
X134804179Y-94767701D01*
X134604931Y-95365609D01*
X122541340Y-95365609D01*
X122525341Y-95140747D01*
X122370821Y-94767701D01*
X122124460Y-94661988D01*
X121218947Y-95567500D01*
X120716053Y-95567500D01*
X119810540Y-94661988D01*
X119564179Y-94767701D01*
X119364931Y-95365609D01*
X107301340Y-95365609D01*
X107285341Y-95140747D01*
X107130821Y-94767701D01*
X106884460Y-94661988D01*
X105978947Y-95567500D01*
X105476053Y-95567500D01*
X104570540Y-94661988D01*
X104324179Y-94767701D01*
X104124931Y-95365609D01*
X102234200Y-95365609D01*
X102234200Y-94410540D01*
X104821988Y-94410540D01*
X105727500Y-95316053D01*
X106633012Y-94410540D01*
X120061988Y-94410540D01*
X120967500Y-95316053D01*
X121873012Y-94410540D01*
X135301988Y-94410540D01*
X136207500Y-95316053D01*
X137113012Y-94410540D01*
X137007299Y-94164179D01*
X136409391Y-93964931D01*
X135780747Y-94009659D01*
X135407701Y-94164179D01*
X135301988Y-94410540D01*
X121873012Y-94410540D01*
X121767299Y-94164179D01*
X121169391Y-93964931D01*
X120540747Y-94009659D01*
X120167701Y-94164179D01*
X120061988Y-94410540D01*
X106633012Y-94410540D01*
X106527299Y-94164179D01*
X105929391Y-93964931D01*
X105300747Y-94009659D01*
X104927701Y-94164179D01*
X104821988Y-94410540D01*
X102234200Y-94410540D01*
X102234200Y-93549460D01*
X192451988Y-93549460D01*
X192557701Y-93795821D01*
X193155609Y-93995069D01*
X193784253Y-93950341D01*
X194157299Y-93795821D01*
X194263012Y-93549460D01*
X205151988Y-93549460D01*
X205257701Y-93795821D01*
X205855609Y-93995069D01*
X206484253Y-93950341D01*
X206857299Y-93795821D01*
X206963012Y-93549460D01*
X206057500Y-92643947D01*
X205151988Y-93549460D01*
X194263012Y-93549460D01*
X193357500Y-92643947D01*
X192451988Y-93549460D01*
X102234200Y-93549460D01*
X102234200Y-90757500D01*
X104131855Y-90757500D01*
X104131855Y-92757500D01*
X104172591Y-92973992D01*
X104300537Y-93172826D01*
X104495761Y-93306217D01*
X104727500Y-93353145D01*
X106727500Y-93353145D01*
X106943992Y-93312409D01*
X107142826Y-93184463D01*
X107276217Y-92989239D01*
X107323145Y-92757500D01*
X107323145Y-90757500D01*
X119371855Y-90757500D01*
X119371855Y-92757500D01*
X119412591Y-92973992D01*
X119540537Y-93172826D01*
X119735761Y-93306217D01*
X119967500Y-93353145D01*
X121967500Y-93353145D01*
X122183992Y-93312409D01*
X122382826Y-93184463D01*
X122516217Y-92989239D01*
X122563145Y-92757500D01*
X122563145Y-90757500D01*
X134611855Y-90757500D01*
X134611855Y-92757500D01*
X134652591Y-92973992D01*
X134780537Y-93172826D01*
X134975761Y-93306217D01*
X135207500Y-93353145D01*
X137207500Y-93353145D01*
X137423992Y-93312409D01*
X137622826Y-93184463D01*
X137756217Y-92989239D01*
X137803145Y-92757500D01*
X137803145Y-92190609D01*
X191754931Y-92190609D01*
X191799659Y-92819253D01*
X191954179Y-93192299D01*
X192200540Y-93298012D01*
X193106053Y-92392500D01*
X193608947Y-92392500D01*
X194514460Y-93298012D01*
X194760821Y-93192299D01*
X194960069Y-92594391D01*
X194931340Y-92190609D01*
X204454931Y-92190609D01*
X204499659Y-92819253D01*
X204654179Y-93192299D01*
X204900540Y-93298012D01*
X205806053Y-92392500D01*
X206308947Y-92392500D01*
X207214460Y-93298012D01*
X207460821Y-93192299D01*
X207660069Y-92594391D01*
X207615341Y-91965747D01*
X207460821Y-91592701D01*
X207214460Y-91486988D01*
X206308947Y-92392500D01*
X205806053Y-92392500D01*
X204900540Y-91486988D01*
X204654179Y-91592701D01*
X204454931Y-92190609D01*
X194931340Y-92190609D01*
X194915341Y-91965747D01*
X194760821Y-91592701D01*
X194514460Y-91486988D01*
X193608947Y-92392500D01*
X193106053Y-92392500D01*
X192200540Y-91486988D01*
X191954179Y-91592701D01*
X191754931Y-92190609D01*
X137803145Y-92190609D01*
X137803145Y-90757500D01*
X137762409Y-90541008D01*
X137634463Y-90342174D01*
X137439239Y-90208783D01*
X137207500Y-90161855D01*
X135207500Y-90161855D01*
X134991008Y-90202591D01*
X134792174Y-90330537D01*
X134658783Y-90525761D01*
X134611855Y-90757500D01*
X122563145Y-90757500D01*
X122522409Y-90541008D01*
X122394463Y-90342174D01*
X122199239Y-90208783D01*
X121967500Y-90161855D01*
X119967500Y-90161855D01*
X119751008Y-90202591D01*
X119552174Y-90330537D01*
X119418783Y-90525761D01*
X119371855Y-90757500D01*
X107323145Y-90757500D01*
X107282409Y-90541008D01*
X107154463Y-90342174D01*
X106959239Y-90208783D01*
X106727500Y-90161855D01*
X104727500Y-90161855D01*
X104511008Y-90202591D01*
X104312174Y-90330537D01*
X104178783Y-90525761D01*
X104131855Y-90757500D01*
X102234200Y-90757500D01*
X102234200Y-88633422D01*
X141503144Y-88633422D01*
X142078041Y-90024777D01*
X143141624Y-91090218D01*
X144531974Y-91667542D01*
X146037422Y-91668856D01*
X147086125Y-91235540D01*
X192451988Y-91235540D01*
X193357500Y-92141053D01*
X194263012Y-91235540D01*
X205151988Y-91235540D01*
X206057500Y-92141053D01*
X206963012Y-91235540D01*
X206857299Y-90989179D01*
X206259391Y-90789931D01*
X205630747Y-90834659D01*
X205257701Y-90989179D01*
X205151988Y-91235540D01*
X194263012Y-91235540D01*
X194157299Y-90989179D01*
X193559391Y-90789931D01*
X192930747Y-90834659D01*
X192557701Y-90989179D01*
X192451988Y-91235540D01*
X147086125Y-91235540D01*
X147428777Y-91093959D01*
X148494218Y-90030376D01*
X148965155Y-88896234D01*
X191773026Y-88896234D01*
X192013698Y-89478705D01*
X192458951Y-89924736D01*
X193041001Y-90166424D01*
X193671234Y-90166974D01*
X194253705Y-89926302D01*
X194699736Y-89481049D01*
X194941424Y-88898999D01*
X194941974Y-88268766D01*
X194701302Y-87686295D01*
X194597689Y-87582500D01*
X204461855Y-87582500D01*
X204461855Y-89582500D01*
X204502591Y-89798992D01*
X204630537Y-89997826D01*
X204825761Y-90131217D01*
X205057500Y-90178145D01*
X207057500Y-90178145D01*
X207273992Y-90137409D01*
X207472826Y-90009463D01*
X207606217Y-89814239D01*
X207653145Y-89582500D01*
X207653145Y-87582500D01*
X207612409Y-87366008D01*
X207484463Y-87167174D01*
X207289239Y-87033783D01*
X207057500Y-86986855D01*
X205057500Y-86986855D01*
X204841008Y-87027591D01*
X204642174Y-87155537D01*
X204508783Y-87350761D01*
X204461855Y-87582500D01*
X194597689Y-87582500D01*
X194256049Y-87240264D01*
X193673999Y-86998576D01*
X193043766Y-86998026D01*
X192461295Y-87238698D01*
X192015264Y-87683951D01*
X191773576Y-88266001D01*
X191773026Y-88896234D01*
X148965155Y-88896234D01*
X149071542Y-88640026D01*
X149072856Y-87134578D01*
X148497959Y-85743223D01*
X147434376Y-84677782D01*
X146044026Y-84100458D01*
X144538578Y-84099144D01*
X143147223Y-84674041D01*
X142081782Y-85737624D01*
X141504458Y-87127974D01*
X141503144Y-88633422D01*
X102234200Y-88633422D01*
X102234200Y-84451234D01*
X104143026Y-84451234D01*
X104383698Y-85033705D01*
X104828951Y-85479736D01*
X105411001Y-85721424D01*
X106041234Y-85721974D01*
X106623705Y-85481302D01*
X107066678Y-85039101D01*
X121526066Y-85039101D01*
X121730581Y-85534065D01*
X122108943Y-85913088D01*
X122603549Y-86118466D01*
X123139101Y-86118934D01*
X123634065Y-85914419D01*
X124013088Y-85536057D01*
X124025373Y-85506471D01*
X126145708Y-83386136D01*
X126174065Y-83374419D01*
X126357453Y-83191350D01*
X131083300Y-83191350D01*
X131083300Y-83783704D01*
X131172239Y-83998422D01*
X131336577Y-84162761D01*
X131551295Y-84251700D01*
X131843650Y-84251700D01*
X131989700Y-84105650D01*
X131989700Y-83045300D01*
X132345300Y-83045300D01*
X132345300Y-84105650D01*
X132491350Y-84251700D01*
X132783705Y-84251700D01*
X132998423Y-84162761D01*
X133162761Y-83998422D01*
X133251700Y-83783704D01*
X133251700Y-83191350D01*
X133105650Y-83045300D01*
X132345300Y-83045300D01*
X131989700Y-83045300D01*
X131229350Y-83045300D01*
X131083300Y-83191350D01*
X126357453Y-83191350D01*
X126553088Y-82996057D01*
X126734768Y-82558522D01*
X127341994Y-81951296D01*
X131083300Y-81951296D01*
X131083300Y-82543650D01*
X131229350Y-82689700D01*
X131989700Y-82689700D01*
X131989700Y-81629350D01*
X132345300Y-81629350D01*
X132345300Y-82689700D01*
X133105650Y-82689700D01*
X133251700Y-82543650D01*
X133251700Y-81951296D01*
X133162761Y-81736578D01*
X132998423Y-81572239D01*
X132783705Y-81483300D01*
X132491350Y-81483300D01*
X132345300Y-81629350D01*
X131989700Y-81629350D01*
X131843650Y-81483300D01*
X131551295Y-81483300D01*
X131336577Y-81572239D01*
X131172239Y-81736578D01*
X131083300Y-81951296D01*
X127341994Y-81951296D01*
X129354146Y-79939145D01*
X129384837Y-79893213D01*
X129452826Y-79849463D01*
X129586217Y-79654239D01*
X129633145Y-79422500D01*
X129633145Y-79366328D01*
X129671700Y-79172500D01*
X129633145Y-78978671D01*
X129633145Y-78922500D01*
X129592409Y-78706008D01*
X129464463Y-78507174D01*
X129386043Y-78453592D01*
X129363472Y-78419811D01*
X129368422Y-78417761D01*
X129532761Y-78253423D01*
X129621700Y-78038705D01*
X129621700Y-77943550D01*
X129475650Y-77797500D01*
X128765300Y-77797500D01*
X128765300Y-77870300D01*
X128409700Y-77870300D01*
X128409700Y-77797500D01*
X127699350Y-77797500D01*
X127553300Y-77943550D01*
X127553300Y-78038705D01*
X127642239Y-78253423D01*
X127806578Y-78417761D01*
X127808254Y-78418455D01*
X127747413Y-78479296D01*
X127722174Y-78495537D01*
X127702763Y-78523946D01*
X125340474Y-80886236D01*
X125145899Y-80886066D01*
X124650935Y-81090581D01*
X124271912Y-81468943D01*
X124259627Y-81498529D01*
X122139292Y-83618864D01*
X122110935Y-83630581D01*
X121731912Y-84008943D01*
X121526534Y-84503549D01*
X121526066Y-85039101D01*
X107066678Y-85039101D01*
X107069736Y-85036049D01*
X107311424Y-84453999D01*
X107311974Y-83823766D01*
X107071302Y-83241295D01*
X106626049Y-82795264D01*
X106043999Y-82553576D01*
X105413766Y-82553026D01*
X104831295Y-82793698D01*
X104385264Y-83238951D01*
X104143576Y-83821001D01*
X104143026Y-84451234D01*
X102234200Y-84451234D01*
X102234200Y-81484460D01*
X104821988Y-81484460D01*
X104927701Y-81730821D01*
X105525609Y-81930069D01*
X106154253Y-81885341D01*
X106527299Y-81730821D01*
X106633012Y-81484460D01*
X105727500Y-80578947D01*
X104821988Y-81484460D01*
X102234200Y-81484460D01*
X102234200Y-80125609D01*
X104124931Y-80125609D01*
X104169659Y-80754253D01*
X104324179Y-81127299D01*
X104570540Y-81233012D01*
X105476053Y-80327500D01*
X105978947Y-80327500D01*
X106884460Y-81233012D01*
X107130821Y-81127299D01*
X107330069Y-80529391D01*
X107285341Y-79900747D01*
X107130821Y-79527701D01*
X106884460Y-79421988D01*
X105978947Y-80327500D01*
X105476053Y-80327500D01*
X104570540Y-79421988D01*
X104324179Y-79527701D01*
X104124931Y-80125609D01*
X102234200Y-80125609D01*
X102234200Y-79170540D01*
X104821988Y-79170540D01*
X105727500Y-80076053D01*
X106633012Y-79170540D01*
X106527299Y-78924179D01*
X105929391Y-78724931D01*
X105300747Y-78769659D01*
X104927701Y-78924179D01*
X104821988Y-79170540D01*
X102234200Y-79170540D01*
X102234200Y-75517500D01*
X104131855Y-75517500D01*
X104131855Y-77517500D01*
X104172591Y-77733992D01*
X104300537Y-77932826D01*
X104495761Y-78066217D01*
X104727500Y-78113145D01*
X106727500Y-78113145D01*
X106943992Y-78072409D01*
X107029323Y-78017500D01*
X114323300Y-78017500D01*
X114323300Y-83502500D01*
X114424860Y-84013076D01*
X114561855Y-84218104D01*
X114561855Y-84302500D01*
X114602591Y-84518992D01*
X114730537Y-84717826D01*
X114925761Y-84851217D01*
X115157500Y-84898145D01*
X116157500Y-84898145D01*
X116373992Y-84857409D01*
X116572826Y-84729463D01*
X116706217Y-84534239D01*
X116753145Y-84302500D01*
X116753145Y-84218104D01*
X116890140Y-84013076D01*
X116927282Y-83826350D01*
X117573300Y-83826350D01*
X117573300Y-84418704D01*
X117662239Y-84633422D01*
X117826577Y-84797761D01*
X118041295Y-84886700D01*
X118333650Y-84886700D01*
X118479700Y-84740650D01*
X118479700Y-83680300D01*
X118835300Y-83680300D01*
X118835300Y-84740650D01*
X118981350Y-84886700D01*
X119273705Y-84886700D01*
X119488423Y-84797761D01*
X119652761Y-84633422D01*
X119741700Y-84418704D01*
X119741700Y-83826350D01*
X119595650Y-83680300D01*
X118835300Y-83680300D01*
X118479700Y-83680300D01*
X117719350Y-83680300D01*
X117573300Y-83826350D01*
X116927282Y-83826350D01*
X116991700Y-83502500D01*
X116991700Y-82586296D01*
X117573300Y-82586296D01*
X117573300Y-83178650D01*
X117719350Y-83324700D01*
X118479700Y-83324700D01*
X118479700Y-82264350D01*
X118835300Y-82264350D01*
X118835300Y-83324700D01*
X119595650Y-83324700D01*
X119741700Y-83178650D01*
X119741700Y-82586296D01*
X119652761Y-82371578D01*
X119488423Y-82207239D01*
X119273705Y-82118300D01*
X118981350Y-82118300D01*
X118835300Y-82264350D01*
X118479700Y-82264350D01*
X118333650Y-82118300D01*
X118041295Y-82118300D01*
X117826577Y-82207239D01*
X117662239Y-82371578D01*
X117573300Y-82586296D01*
X116991700Y-82586296D01*
X116991700Y-78807569D01*
X117047864Y-78725370D01*
X117124472Y-78801978D01*
X117236802Y-78689648D01*
X117299107Y-78899845D01*
X117769572Y-79040342D01*
X118257990Y-78990105D01*
X118475893Y-78899845D01*
X118538199Y-78689646D01*
X117887500Y-78038947D01*
X117873358Y-78053090D01*
X117621911Y-77801643D01*
X117636053Y-77787500D01*
X118138947Y-77787500D01*
X118789646Y-78438199D01*
X118999845Y-78375893D01*
X119140342Y-77905428D01*
X119090105Y-77417010D01*
X118999845Y-77199107D01*
X118789646Y-77136801D01*
X118138947Y-77787500D01*
X117636053Y-77787500D01*
X117621911Y-77773358D01*
X117873358Y-77521911D01*
X117887500Y-77536053D01*
X118538199Y-76885354D01*
X118475893Y-76675155D01*
X118005428Y-76534658D01*
X117517010Y-76584895D01*
X117299107Y-76675155D01*
X117236802Y-76885352D01*
X117124472Y-76773022D01*
X117047021Y-76850473D01*
X116964463Y-76722174D01*
X116769239Y-76588783D01*
X116537500Y-76541855D01*
X116332696Y-76541855D01*
X115887500Y-76453300D01*
X115442304Y-76541855D01*
X115237500Y-76541855D01*
X115021008Y-76582591D01*
X114822174Y-76710537D01*
X114688783Y-76905761D01*
X114641855Y-77137500D01*
X114641855Y-77182168D01*
X114424860Y-77506924D01*
X114323300Y-78017500D01*
X107029323Y-78017500D01*
X107142826Y-77944463D01*
X107276217Y-77749239D01*
X107323145Y-77517500D01*
X107323145Y-75517500D01*
X107282409Y-75301008D01*
X107154463Y-75102174D01*
X106959239Y-74968783D01*
X106727500Y-74921855D01*
X104727500Y-74921855D01*
X104511008Y-74962591D01*
X104312174Y-75090537D01*
X104178783Y-75285761D01*
X104131855Y-75517500D01*
X102234200Y-75517500D01*
X102234200Y-72617007D01*
X110603935Y-72617007D01*
X110924213Y-73392139D01*
X111516741Y-73985703D01*
X112291313Y-74307333D01*
X113130007Y-74308065D01*
X113905139Y-73987787D01*
X114498703Y-73395259D01*
X114820333Y-72620687D01*
X114820336Y-72617007D01*
X116953935Y-72617007D01*
X117274213Y-73392139D01*
X117866741Y-73985703D01*
X118641313Y-74307333D01*
X119284050Y-74307894D01*
X121538300Y-76562144D01*
X121538300Y-79395213D01*
X121526534Y-79423549D01*
X121526066Y-79959101D01*
X121730581Y-80454065D01*
X122108943Y-80833088D01*
X122603549Y-81038466D01*
X123139101Y-81038934D01*
X123634065Y-80834419D01*
X124013088Y-80456057D01*
X124218466Y-79961451D01*
X124218934Y-79425899D01*
X124206700Y-79396290D01*
X124206700Y-77669572D01*
X131684658Y-77669572D01*
X131734895Y-78157990D01*
X131825155Y-78375893D01*
X132035354Y-78438199D01*
X132686053Y-77787500D01*
X132035354Y-77136801D01*
X131825155Y-77199107D01*
X131684658Y-77669572D01*
X124206700Y-77669572D01*
X124206700Y-77306295D01*
X127553300Y-77306295D01*
X127553300Y-77401450D01*
X127699350Y-77547500D01*
X128409700Y-77547500D01*
X128409700Y-76984350D01*
X128765300Y-76984350D01*
X128765300Y-77547500D01*
X129475650Y-77547500D01*
X129621700Y-77401450D01*
X129621700Y-77306295D01*
X129532761Y-77091577D01*
X129368422Y-76927239D01*
X129267303Y-76885354D01*
X132286801Y-76885354D01*
X132937500Y-77536053D01*
X132951643Y-77521911D01*
X133203090Y-77773358D01*
X133188947Y-77787500D01*
X133203090Y-77801643D01*
X132951643Y-78053090D01*
X132937500Y-78038947D01*
X132286801Y-78689646D01*
X132349107Y-78899845D01*
X132819572Y-79040342D01*
X133307990Y-78990105D01*
X133525893Y-78899845D01*
X133588198Y-78689648D01*
X133603300Y-78704750D01*
X133603300Y-82637500D01*
X133704860Y-83148076D01*
X133994078Y-83580922D01*
X134071855Y-83658699D01*
X134071855Y-83667500D01*
X134112591Y-83883992D01*
X134240537Y-84082826D01*
X134435761Y-84216217D01*
X134667500Y-84263145D01*
X135667500Y-84263145D01*
X135883992Y-84222409D01*
X136082826Y-84094463D01*
X136216217Y-83899239D01*
X136263145Y-83667500D01*
X136263145Y-83583104D01*
X136400140Y-83378076D01*
X136501700Y-82867500D01*
X136400140Y-82356924D01*
X136271700Y-82164700D01*
X136271700Y-79371234D01*
X143513026Y-79371234D01*
X143753698Y-79953705D01*
X144198951Y-80399736D01*
X144781001Y-80641424D01*
X145411234Y-80641974D01*
X145518869Y-80597500D01*
X191761855Y-80597500D01*
X191761855Y-82597500D01*
X191802591Y-82813992D01*
X191930537Y-83012826D01*
X192125761Y-83146217D01*
X192357500Y-83193145D01*
X194357500Y-83193145D01*
X194573992Y-83152409D01*
X194772826Y-83024463D01*
X194906217Y-82829239D01*
X194953145Y-82597500D01*
X194953145Y-81911234D01*
X204473026Y-81911234D01*
X204713698Y-82493705D01*
X205158951Y-82939736D01*
X205741001Y-83181424D01*
X206371234Y-83181974D01*
X206953705Y-82941302D01*
X207399736Y-82496049D01*
X207641424Y-81913999D01*
X207641974Y-81283766D01*
X207401302Y-80701295D01*
X206956049Y-80255264D01*
X206373999Y-80013576D01*
X205743766Y-80013026D01*
X205161295Y-80253698D01*
X204715264Y-80698951D01*
X204473576Y-81281001D01*
X204473026Y-81911234D01*
X194953145Y-81911234D01*
X194953145Y-80597500D01*
X194912409Y-80381008D01*
X194784463Y-80182174D01*
X194589239Y-80048783D01*
X194357500Y-80001855D01*
X192357500Y-80001855D01*
X192141008Y-80042591D01*
X191942174Y-80170537D01*
X191808783Y-80365761D01*
X191761855Y-80597500D01*
X145518869Y-80597500D01*
X145993705Y-80401302D01*
X146439736Y-79956049D01*
X146681424Y-79373999D01*
X146681798Y-78944460D01*
X192451988Y-78944460D01*
X192557701Y-79190821D01*
X193155609Y-79390069D01*
X193784253Y-79345341D01*
X194157299Y-79190821D01*
X194263012Y-78944460D01*
X205151988Y-78944460D01*
X205257701Y-79190821D01*
X205855609Y-79390069D01*
X206484253Y-79345341D01*
X206857299Y-79190821D01*
X206963012Y-78944460D01*
X206057500Y-78038947D01*
X205151988Y-78944460D01*
X194263012Y-78944460D01*
X193357500Y-78038947D01*
X192451988Y-78944460D01*
X146681798Y-78944460D01*
X146681974Y-78743766D01*
X146441302Y-78161295D01*
X145996049Y-77715264D01*
X145683805Y-77585609D01*
X191754931Y-77585609D01*
X191799659Y-78214253D01*
X191954179Y-78587299D01*
X192200540Y-78693012D01*
X193106053Y-77787500D01*
X193608947Y-77787500D01*
X194514460Y-78693012D01*
X194760821Y-78587299D01*
X194960069Y-77989391D01*
X194931340Y-77585609D01*
X204454931Y-77585609D01*
X204499659Y-78214253D01*
X204654179Y-78587299D01*
X204900540Y-78693012D01*
X205806053Y-77787500D01*
X206308947Y-77787500D01*
X207214460Y-78693012D01*
X207460821Y-78587299D01*
X207660069Y-77989391D01*
X207615341Y-77360747D01*
X207460821Y-76987701D01*
X207214460Y-76881988D01*
X206308947Y-77787500D01*
X205806053Y-77787500D01*
X204900540Y-76881988D01*
X204654179Y-76987701D01*
X204454931Y-77585609D01*
X194931340Y-77585609D01*
X194915341Y-77360747D01*
X194760821Y-76987701D01*
X194514460Y-76881988D01*
X193608947Y-77787500D01*
X193106053Y-77787500D01*
X192200540Y-76881988D01*
X191954179Y-76987701D01*
X191754931Y-77585609D01*
X145683805Y-77585609D01*
X145413999Y-77473576D01*
X144783766Y-77473026D01*
X144201295Y-77713698D01*
X143755264Y-78158951D01*
X143513576Y-78741001D01*
X143513026Y-79371234D01*
X136271700Y-79371234D01*
X136271700Y-77787500D01*
X136183145Y-77342304D01*
X136183145Y-77137500D01*
X136142409Y-76921008D01*
X136014463Y-76722174D01*
X135819239Y-76588783D01*
X135587500Y-76541855D01*
X135382696Y-76541855D01*
X134937500Y-76453300D01*
X134492304Y-76541855D01*
X134287500Y-76541855D01*
X134071008Y-76582591D01*
X133872174Y-76710537D01*
X133777136Y-76849630D01*
X133700528Y-76773022D01*
X133588198Y-76885352D01*
X133525893Y-76675155D01*
X133055428Y-76534658D01*
X132567010Y-76584895D01*
X132349107Y-76675155D01*
X132286801Y-76885354D01*
X129267303Y-76885354D01*
X129153704Y-76838300D01*
X128911350Y-76838300D01*
X128765300Y-76984350D01*
X128409700Y-76984350D01*
X128263650Y-76838300D01*
X128021296Y-76838300D01*
X127806578Y-76927239D01*
X127642239Y-77091577D01*
X127553300Y-77306295D01*
X124206700Y-77306295D01*
X124206700Y-76404460D01*
X144191988Y-76404460D01*
X144297701Y-76650821D01*
X144895609Y-76850069D01*
X145524253Y-76805341D01*
X145897299Y-76650821D01*
X145906001Y-76630540D01*
X192451988Y-76630540D01*
X193357500Y-77536053D01*
X194263012Y-76630540D01*
X205151988Y-76630540D01*
X206057500Y-77536053D01*
X206963012Y-76630540D01*
X206857299Y-76384179D01*
X206259391Y-76184931D01*
X205630747Y-76229659D01*
X205257701Y-76384179D01*
X205151988Y-76630540D01*
X194263012Y-76630540D01*
X194157299Y-76384179D01*
X193559391Y-76184931D01*
X192930747Y-76229659D01*
X192557701Y-76384179D01*
X192451988Y-76630540D01*
X145906001Y-76630540D01*
X146003012Y-76404460D01*
X145097500Y-75498947D01*
X144191988Y-76404460D01*
X124206700Y-76404460D01*
X124206700Y-76009500D01*
X124105140Y-75498924D01*
X123815922Y-75066078D01*
X123795453Y-75045609D01*
X143494931Y-75045609D01*
X143539659Y-75674253D01*
X143694179Y-76047299D01*
X143940540Y-76153012D01*
X144846053Y-75247500D01*
X145348947Y-75247500D01*
X146254460Y-76153012D01*
X146500821Y-76047299D01*
X146700069Y-75449391D01*
X146693646Y-75359107D01*
X157611646Y-75359107D01*
X157745974Y-75684205D01*
X157994487Y-75933152D01*
X158319350Y-76068047D01*
X158671107Y-76068354D01*
X158996205Y-75934026D01*
X159245152Y-75685513D01*
X159380047Y-75360650D01*
X159380354Y-75008893D01*
X159246026Y-74683795D01*
X158997513Y-74434848D01*
X158672650Y-74299953D01*
X158320893Y-74299646D01*
X157995795Y-74433974D01*
X157746848Y-74682487D01*
X157611953Y-75007350D01*
X157611646Y-75359107D01*
X146693646Y-75359107D01*
X146655341Y-74820747D01*
X146500821Y-74447701D01*
X146254460Y-74341988D01*
X145348947Y-75247500D01*
X144846053Y-75247500D01*
X143940540Y-74341988D01*
X143694179Y-74447701D01*
X143494931Y-75045609D01*
X123795453Y-75045609D01*
X122486132Y-73736288D01*
X124127159Y-73736288D01*
X124297227Y-74037033D01*
X125085316Y-74323956D01*
X125923215Y-74287449D01*
X126527773Y-74037033D01*
X126697841Y-73736288D01*
X125412500Y-72450947D01*
X124127159Y-73736288D01*
X122486132Y-73736288D01*
X121170508Y-72420664D01*
X121170986Y-71872316D01*
X123288044Y-71872316D01*
X123324551Y-72710215D01*
X123574967Y-73314773D01*
X123875712Y-73484841D01*
X125161053Y-72199500D01*
X125663947Y-72199500D01*
X126949288Y-73484841D01*
X127250033Y-73314773D01*
X127504071Y-72617007D01*
X129653935Y-72617007D01*
X129974213Y-73392139D01*
X130566741Y-73985703D01*
X131341313Y-74307333D01*
X132180007Y-74308065D01*
X132706457Y-74090540D01*
X144191988Y-74090540D01*
X145097500Y-74996053D01*
X145802318Y-74291234D01*
X191773026Y-74291234D01*
X192013698Y-74873705D01*
X192458951Y-75319736D01*
X193041001Y-75561424D01*
X193671234Y-75561974D01*
X194253705Y-75321302D01*
X194699736Y-74876049D01*
X194941424Y-74293999D01*
X194941974Y-73663766D01*
X194701302Y-73081295D01*
X194597689Y-72977500D01*
X204461855Y-72977500D01*
X204461855Y-74977500D01*
X204502591Y-75193992D01*
X204630537Y-75392826D01*
X204825761Y-75526217D01*
X205057500Y-75573145D01*
X207057500Y-75573145D01*
X207273992Y-75532409D01*
X207472826Y-75404463D01*
X207606217Y-75209239D01*
X207653145Y-74977500D01*
X207653145Y-72977500D01*
X207612409Y-72761008D01*
X207484463Y-72562174D01*
X207289239Y-72428783D01*
X207057500Y-72381855D01*
X205057500Y-72381855D01*
X204841008Y-72422591D01*
X204642174Y-72550537D01*
X204508783Y-72745761D01*
X204461855Y-72977500D01*
X194597689Y-72977500D01*
X194256049Y-72635264D01*
X193673999Y-72393576D01*
X193043766Y-72393026D01*
X192461295Y-72633698D01*
X192015264Y-73078951D01*
X191773576Y-73661001D01*
X191773026Y-74291234D01*
X145802318Y-74291234D01*
X146003012Y-74090540D01*
X145897299Y-73844179D01*
X145299391Y-73644931D01*
X144670747Y-73689659D01*
X144297701Y-73844179D01*
X144191988Y-74090540D01*
X132706457Y-74090540D01*
X132955139Y-73987787D01*
X133548703Y-73395259D01*
X133870333Y-72620687D01*
X133871065Y-71781993D01*
X133550787Y-71006861D01*
X132982420Y-70437500D01*
X143501855Y-70437500D01*
X143501855Y-72437500D01*
X143542591Y-72653992D01*
X143670537Y-72852826D01*
X143865761Y-72986217D01*
X144097500Y-73033145D01*
X146097500Y-73033145D01*
X146313992Y-72992409D01*
X146512826Y-72864463D01*
X146646217Y-72669239D01*
X146693145Y-72437500D01*
X146693145Y-70787107D01*
X157611646Y-70787107D01*
X157745974Y-71112205D01*
X157994487Y-71361152D01*
X158319350Y-71496047D01*
X158671107Y-71496354D01*
X158996205Y-71362026D01*
X159245152Y-71113513D01*
X159380047Y-70788650D01*
X159380354Y-70436893D01*
X159246026Y-70111795D01*
X158997513Y-69862848D01*
X158672650Y-69727953D01*
X158320893Y-69727646D01*
X157995795Y-69861974D01*
X157746848Y-70110487D01*
X157611953Y-70435350D01*
X157611646Y-70787107D01*
X146693145Y-70787107D01*
X146693145Y-70437500D01*
X146652409Y-70221008D01*
X146524463Y-70022174D01*
X146329239Y-69888783D01*
X146097500Y-69841855D01*
X144097500Y-69841855D01*
X143881008Y-69882591D01*
X143682174Y-70010537D01*
X143548783Y-70205761D01*
X143501855Y-70437500D01*
X132982420Y-70437500D01*
X132958259Y-70413297D01*
X132183687Y-70091667D01*
X131344993Y-70090935D01*
X130569861Y-70411213D01*
X129976297Y-71003741D01*
X129654667Y-71778313D01*
X129653935Y-72617007D01*
X127504071Y-72617007D01*
X127536956Y-72526684D01*
X127500449Y-71688785D01*
X127250033Y-71084227D01*
X126949288Y-70914159D01*
X125663947Y-72199500D01*
X125161053Y-72199500D01*
X123875712Y-70914159D01*
X123574967Y-71084227D01*
X123288044Y-71872316D01*
X121170986Y-71872316D01*
X121171065Y-71781993D01*
X120850787Y-71006861D01*
X120507239Y-70662712D01*
X124127159Y-70662712D01*
X125412500Y-71948053D01*
X126697841Y-70662712D01*
X126527773Y-70361967D01*
X125739684Y-70075044D01*
X124901785Y-70111551D01*
X124297227Y-70361967D01*
X124127159Y-70662712D01*
X120507239Y-70662712D01*
X120258259Y-70413297D01*
X119483687Y-70091667D01*
X118644993Y-70090935D01*
X117869861Y-70411213D01*
X117276297Y-71003741D01*
X116954667Y-71778313D01*
X116953935Y-72617007D01*
X114820336Y-72617007D01*
X114821065Y-71781993D01*
X114500787Y-71006861D01*
X113908259Y-70413297D01*
X113133687Y-70091667D01*
X112294993Y-70090935D01*
X111519861Y-70411213D01*
X110926297Y-71003741D01*
X110604667Y-71778313D01*
X110603935Y-72617007D01*
X102234200Y-72617007D01*
X102234200Y-68755107D01*
X157611646Y-68755107D01*
X157745974Y-69080205D01*
X157994487Y-69329152D01*
X158319350Y-69464047D01*
X158671107Y-69464354D01*
X158996205Y-69330026D01*
X159245152Y-69081513D01*
X159380047Y-68756650D01*
X159380264Y-68506920D01*
X160278087Y-68506920D01*
X160465586Y-68960705D01*
X160812469Y-69308193D01*
X161265925Y-69496485D01*
X161756920Y-69496913D01*
X162210705Y-69309414D01*
X162340786Y-69179559D01*
X162367239Y-69243422D01*
X162531577Y-69407761D01*
X162746295Y-69496700D01*
X163188650Y-69496700D01*
X163334700Y-69350650D01*
X163334700Y-68440300D01*
X163690300Y-68440300D01*
X163690300Y-69350650D01*
X163836350Y-69496700D01*
X164278705Y-69496700D01*
X164493423Y-69407761D01*
X164657761Y-69243422D01*
X164746700Y-69028704D01*
X164746700Y-68586350D01*
X164600650Y-68440300D01*
X163690300Y-68440300D01*
X163334700Y-68440300D01*
X163314700Y-68440300D01*
X163314700Y-68144572D01*
X172324658Y-68144572D01*
X172374895Y-68632990D01*
X172465155Y-68850893D01*
X172675354Y-68913199D01*
X173326053Y-68262500D01*
X172675354Y-67611801D01*
X172465155Y-67674107D01*
X172324658Y-68144572D01*
X163314700Y-68144572D01*
X163314700Y-68084700D01*
X163334700Y-68084700D01*
X163334700Y-67174350D01*
X163690300Y-67174350D01*
X163690300Y-68084700D01*
X164600650Y-68084700D01*
X164746700Y-67938650D01*
X164746700Y-67496296D01*
X164690392Y-67360354D01*
X172926801Y-67360354D01*
X173577500Y-68011053D01*
X173591643Y-67996911D01*
X173843090Y-68248358D01*
X173828947Y-68262500D01*
X173843090Y-68276643D01*
X173591643Y-68528090D01*
X173577500Y-68513947D01*
X172926801Y-69164646D01*
X172989107Y-69374845D01*
X173459572Y-69515342D01*
X173947990Y-69465105D01*
X174165893Y-69374845D01*
X174228198Y-69164648D01*
X174340528Y-69276978D01*
X174417979Y-69199527D01*
X174500537Y-69327826D01*
X174695761Y-69461217D01*
X174927500Y-69508145D01*
X176227500Y-69508145D01*
X176443992Y-69467409D01*
X176642826Y-69339463D01*
X176776217Y-69144239D01*
X176823145Y-68912500D01*
X176823145Y-67940235D01*
X176959107Y-67940354D01*
X177284205Y-67806026D01*
X177533152Y-67557513D01*
X177668047Y-67232650D01*
X177668354Y-66880893D01*
X177534026Y-66555795D01*
X177285513Y-66306848D01*
X176960650Y-66171953D01*
X176652086Y-66171684D01*
X176652242Y-65992500D01*
X191761855Y-65992500D01*
X191761855Y-67992500D01*
X191802591Y-68208992D01*
X191930537Y-68407826D01*
X192125761Y-68541217D01*
X192357500Y-68588145D01*
X194357500Y-68588145D01*
X194573992Y-68547409D01*
X194772826Y-68419463D01*
X194906217Y-68224239D01*
X194953145Y-67992500D01*
X194953145Y-65992500D01*
X194912409Y-65776008D01*
X194784463Y-65577174D01*
X194589239Y-65443783D01*
X194357500Y-65396855D01*
X192357500Y-65396855D01*
X192141008Y-65437591D01*
X191942174Y-65565537D01*
X191808783Y-65760761D01*
X191761855Y-65992500D01*
X176652242Y-65992500D01*
X176652354Y-65864893D01*
X176518026Y-65539795D01*
X176269513Y-65290848D01*
X175944650Y-65155953D01*
X175592893Y-65155646D01*
X175267795Y-65289974D01*
X175018848Y-65538487D01*
X174883953Y-65863350D01*
X174883646Y-66215107D01*
X175017974Y-66540205D01*
X175266487Y-66789152D01*
X175591350Y-66924047D01*
X175899914Y-66924316D01*
X175899833Y-67016855D01*
X174927500Y-67016855D01*
X174711008Y-67057591D01*
X174512174Y-67185537D01*
X174417136Y-67324630D01*
X174340528Y-67248022D01*
X174228198Y-67360352D01*
X174165893Y-67150155D01*
X173695428Y-67009658D01*
X173207010Y-67059895D01*
X172989107Y-67150155D01*
X172926801Y-67360354D01*
X164690392Y-67360354D01*
X164657761Y-67281578D01*
X164493423Y-67117239D01*
X164278705Y-67028300D01*
X163836350Y-67028300D01*
X163690300Y-67174350D01*
X163334700Y-67174350D01*
X163188650Y-67028300D01*
X162746295Y-67028300D01*
X162531577Y-67117239D01*
X162367239Y-67281578D01*
X162340832Y-67345331D01*
X162212531Y-67216807D01*
X161759075Y-67028515D01*
X161268080Y-67028087D01*
X160814295Y-67215586D01*
X160466807Y-67562469D01*
X160278515Y-68015925D01*
X160278087Y-68506920D01*
X159380264Y-68506920D01*
X159380354Y-68404893D01*
X159246026Y-68079795D01*
X158997513Y-67830848D01*
X158672650Y-67695953D01*
X158320893Y-67695646D01*
X157995795Y-67829974D01*
X157746848Y-68078487D01*
X157611953Y-68403350D01*
X157611646Y-68755107D01*
X102234200Y-68755107D01*
X102234200Y-66723107D01*
X157611646Y-66723107D01*
X157745974Y-67048205D01*
X157994487Y-67297152D01*
X158319350Y-67432047D01*
X158671107Y-67432354D01*
X158996205Y-67298026D01*
X159245152Y-67049513D01*
X159380047Y-66724650D01*
X159380354Y-66372893D01*
X159246026Y-66047795D01*
X158997513Y-65798848D01*
X158672650Y-65663953D01*
X158320893Y-65663646D01*
X157995795Y-65797974D01*
X157746848Y-66046487D01*
X157611953Y-66371350D01*
X157611646Y-66723107D01*
X102234200Y-66723107D01*
X102234200Y-65199107D01*
X171835646Y-65199107D01*
X171969974Y-65524205D01*
X172218487Y-65773152D01*
X172543350Y-65908047D01*
X172895107Y-65908354D01*
X173220205Y-65774026D01*
X173227795Y-65766449D01*
X173234487Y-65773152D01*
X173559350Y-65908047D01*
X173911107Y-65908354D01*
X174236205Y-65774026D01*
X174485152Y-65525513D01*
X174620047Y-65200650D01*
X174620354Y-64848893D01*
X174566725Y-64719101D01*
X180581066Y-64719101D01*
X180785581Y-65214065D01*
X181163943Y-65593088D01*
X181658549Y-65798466D01*
X182194101Y-65798934D01*
X182689065Y-65594419D01*
X183068088Y-65216057D01*
X183209884Y-64874572D01*
X197184658Y-64874572D01*
X197234895Y-65362990D01*
X197325155Y-65580893D01*
X197535352Y-65643198D01*
X197423022Y-65755528D01*
X197500473Y-65832979D01*
X197372174Y-65915537D01*
X197238783Y-66110761D01*
X197191855Y-66342500D01*
X197191855Y-67642500D01*
X197232591Y-67858992D01*
X197360537Y-68057826D01*
X197555761Y-68191217D01*
X197787500Y-68238145D01*
X199087500Y-68238145D01*
X199303992Y-68197409D01*
X199502826Y-68069463D01*
X199636217Y-67874239D01*
X199683145Y-67642500D01*
X199683145Y-67306234D01*
X204473026Y-67306234D01*
X204713698Y-67888705D01*
X205158951Y-68334736D01*
X205741001Y-68576424D01*
X206371234Y-68576974D01*
X206953705Y-68336302D01*
X207399736Y-67891049D01*
X207641424Y-67308999D01*
X207641974Y-66678766D01*
X207401302Y-66096295D01*
X206956049Y-65650264D01*
X206373999Y-65408576D01*
X205743766Y-65408026D01*
X205161295Y-65648698D01*
X204715264Y-66093951D01*
X204473576Y-66676001D01*
X204473026Y-67306234D01*
X199683145Y-67306234D01*
X199683145Y-66342500D01*
X199642409Y-66126008D01*
X199514463Y-65927174D01*
X199375370Y-65832136D01*
X199451978Y-65755528D01*
X199339648Y-65643198D01*
X199549845Y-65580893D01*
X199690342Y-65110428D01*
X199640105Y-64622010D01*
X199549845Y-64404107D01*
X199339646Y-64341801D01*
X198688947Y-64992500D01*
X198703090Y-65006643D01*
X198451643Y-65258090D01*
X198437500Y-65243947D01*
X198423358Y-65258090D01*
X198171911Y-65006643D01*
X198186053Y-64992500D01*
X197535354Y-64341801D01*
X197325155Y-64404107D01*
X197184658Y-64874572D01*
X183209884Y-64874572D01*
X183273466Y-64721451D01*
X183273799Y-64339460D01*
X192451988Y-64339460D01*
X192557701Y-64585821D01*
X193155609Y-64785069D01*
X193784253Y-64740341D01*
X194157299Y-64585821D01*
X194263012Y-64339460D01*
X194013907Y-64090354D01*
X197786801Y-64090354D01*
X198437500Y-64741053D01*
X198839093Y-64339460D01*
X205151988Y-64339460D01*
X205257701Y-64585821D01*
X205855609Y-64785069D01*
X206484253Y-64740341D01*
X206857299Y-64585821D01*
X206963012Y-64339460D01*
X206057500Y-63433947D01*
X205151988Y-64339460D01*
X198839093Y-64339460D01*
X199088199Y-64090354D01*
X199025893Y-63880155D01*
X198555428Y-63739658D01*
X198067010Y-63789895D01*
X197849107Y-63880155D01*
X197786801Y-64090354D01*
X194013907Y-64090354D01*
X193357500Y-63433947D01*
X192451988Y-64339460D01*
X183273799Y-64339460D01*
X183273934Y-64185899D01*
X183069419Y-63690935D01*
X182691057Y-63311912D01*
X182196451Y-63106534D01*
X181660899Y-63106066D01*
X181165935Y-63310581D01*
X180786912Y-63688943D01*
X180581534Y-64183549D01*
X180581066Y-64719101D01*
X174566725Y-64719101D01*
X174486026Y-64523795D01*
X174237513Y-64274848D01*
X173912650Y-64139953D01*
X173560893Y-64139646D01*
X173235795Y-64273974D01*
X173228205Y-64281551D01*
X173221513Y-64274848D01*
X172896650Y-64139953D01*
X172544893Y-64139646D01*
X172219795Y-64273974D01*
X171970848Y-64522487D01*
X171835953Y-64847350D01*
X171835646Y-65199107D01*
X102234200Y-65199107D01*
X102234200Y-60277500D01*
X103496855Y-60277500D01*
X103496855Y-62277500D01*
X103537591Y-62493992D01*
X103665537Y-62692826D01*
X103860761Y-62826217D01*
X104092500Y-62873145D01*
X106092500Y-62873145D01*
X106308992Y-62832409D01*
X106507826Y-62704463D01*
X106641217Y-62509239D01*
X106656360Y-62434460D01*
X107996988Y-62434460D01*
X108102701Y-62680821D01*
X108700609Y-62880069D01*
X109329253Y-62835341D01*
X109702299Y-62680821D01*
X109808012Y-62434460D01*
X108902500Y-61528947D01*
X107996988Y-62434460D01*
X106656360Y-62434460D01*
X106688145Y-62277500D01*
X106688145Y-61075609D01*
X107299931Y-61075609D01*
X107344659Y-61704253D01*
X107499179Y-62077299D01*
X107745540Y-62183012D01*
X108651053Y-61277500D01*
X109153947Y-61277500D01*
X110059460Y-62183012D01*
X110305821Y-62077299D01*
X110467798Y-61591234D01*
X111128026Y-61591234D01*
X111368698Y-62173705D01*
X111813951Y-62619736D01*
X112396001Y-62861424D01*
X113026234Y-62861974D01*
X113608705Y-62621302D01*
X114054736Y-62176049D01*
X114296424Y-61593999D01*
X114296974Y-60963766D01*
X114056302Y-60381295D01*
X113952689Y-60277500D01*
X118736855Y-60277500D01*
X118736855Y-62277500D01*
X118777591Y-62493992D01*
X118905537Y-62692826D01*
X119100761Y-62826217D01*
X119332500Y-62873145D01*
X121332500Y-62873145D01*
X121548992Y-62832409D01*
X121747826Y-62704463D01*
X121881217Y-62509239D01*
X121896360Y-62434460D01*
X123236988Y-62434460D01*
X123342701Y-62680821D01*
X123940609Y-62880069D01*
X124569253Y-62835341D01*
X124942299Y-62680821D01*
X125048012Y-62434460D01*
X124142500Y-61528947D01*
X123236988Y-62434460D01*
X121896360Y-62434460D01*
X121928145Y-62277500D01*
X121928145Y-61075609D01*
X122539931Y-61075609D01*
X122584659Y-61704253D01*
X122739179Y-62077299D01*
X122985540Y-62183012D01*
X123891053Y-61277500D01*
X124393947Y-61277500D01*
X125299460Y-62183012D01*
X125545821Y-62077299D01*
X125707798Y-61591234D01*
X126368026Y-61591234D01*
X126608698Y-62173705D01*
X127053951Y-62619736D01*
X127636001Y-62861424D01*
X128266234Y-62861974D01*
X128848705Y-62621302D01*
X129294736Y-62176049D01*
X129536424Y-61593999D01*
X129536974Y-60963766D01*
X129296302Y-60381295D01*
X129192689Y-60277500D01*
X133976855Y-60277500D01*
X133976855Y-62277500D01*
X134017591Y-62493992D01*
X134145537Y-62692826D01*
X134340761Y-62826217D01*
X134572500Y-62873145D01*
X136572500Y-62873145D01*
X136788992Y-62832409D01*
X136987826Y-62704463D01*
X137121217Y-62509239D01*
X137136360Y-62434460D01*
X138476988Y-62434460D01*
X138582701Y-62680821D01*
X139180609Y-62880069D01*
X139809253Y-62835341D01*
X140182299Y-62680821D01*
X140288012Y-62434460D01*
X139382500Y-61528947D01*
X138476988Y-62434460D01*
X137136360Y-62434460D01*
X137168145Y-62277500D01*
X137168145Y-61075609D01*
X137779931Y-61075609D01*
X137824659Y-61704253D01*
X137979179Y-62077299D01*
X138225540Y-62183012D01*
X139131053Y-61277500D01*
X139633947Y-61277500D01*
X140539460Y-62183012D01*
X140785821Y-62077299D01*
X140947798Y-61591234D01*
X141608026Y-61591234D01*
X141848698Y-62173705D01*
X142293951Y-62619736D01*
X142876001Y-62861424D01*
X143506234Y-62861974D01*
X144088705Y-62621302D01*
X144534736Y-62176049D01*
X144776424Y-61593999D01*
X144776974Y-60963766D01*
X144536302Y-60381295D01*
X144432689Y-60277500D01*
X149216855Y-60277500D01*
X149216855Y-62277500D01*
X149257591Y-62493992D01*
X149385537Y-62692826D01*
X149580761Y-62826217D01*
X149812500Y-62873145D01*
X151812500Y-62873145D01*
X152028992Y-62832409D01*
X152227826Y-62704463D01*
X152361217Y-62509239D01*
X152376360Y-62434460D01*
X153716988Y-62434460D01*
X153822701Y-62680821D01*
X154420609Y-62880069D01*
X155049253Y-62835341D01*
X155422299Y-62680821D01*
X155528012Y-62434460D01*
X154622500Y-61528947D01*
X153716988Y-62434460D01*
X152376360Y-62434460D01*
X152408145Y-62277500D01*
X152408145Y-61075609D01*
X153019931Y-61075609D01*
X153064659Y-61704253D01*
X153219179Y-62077299D01*
X153465540Y-62183012D01*
X154371053Y-61277500D01*
X154873947Y-61277500D01*
X155779460Y-62183012D01*
X156025821Y-62077299D01*
X156187798Y-61591234D01*
X156848026Y-61591234D01*
X157088698Y-62173705D01*
X157533951Y-62619736D01*
X158116001Y-62861424D01*
X158746234Y-62861974D01*
X159328705Y-62621302D01*
X159774736Y-62176049D01*
X160016424Y-61593999D01*
X160016974Y-60963766D01*
X159776302Y-60381295D01*
X159672689Y-60277500D01*
X164456855Y-60277500D01*
X164456855Y-62277500D01*
X164497591Y-62493992D01*
X164625537Y-62692826D01*
X164820761Y-62826217D01*
X165052500Y-62873145D01*
X167052500Y-62873145D01*
X167268992Y-62832409D01*
X167467826Y-62704463D01*
X167601217Y-62509239D01*
X167616360Y-62434460D01*
X168956988Y-62434460D01*
X169062701Y-62680821D01*
X169660609Y-62880069D01*
X170289253Y-62835341D01*
X170662299Y-62680821D01*
X170768012Y-62434460D01*
X169862500Y-61528947D01*
X168956988Y-62434460D01*
X167616360Y-62434460D01*
X167648145Y-62277500D01*
X167648145Y-61075609D01*
X168259931Y-61075609D01*
X168304659Y-61704253D01*
X168459179Y-62077299D01*
X168705540Y-62183012D01*
X169611053Y-61277500D01*
X170113947Y-61277500D01*
X171019460Y-62183012D01*
X171265821Y-62077299D01*
X171427798Y-61591234D01*
X172088026Y-61591234D01*
X172328698Y-62173705D01*
X172773951Y-62619736D01*
X173356001Y-62861424D01*
X173986234Y-62861974D01*
X174568705Y-62621302D01*
X175011678Y-62179101D01*
X178041066Y-62179101D01*
X178245581Y-62674065D01*
X178623943Y-63053088D01*
X179118549Y-63258466D01*
X179654101Y-63258934D01*
X180149065Y-63054419D01*
X180223003Y-62980609D01*
X191754931Y-62980609D01*
X191799659Y-63609253D01*
X191954179Y-63982299D01*
X192200540Y-64088012D01*
X193106053Y-63182500D01*
X193608947Y-63182500D01*
X194514460Y-64088012D01*
X194760821Y-63982299D01*
X194960069Y-63384391D01*
X194931340Y-62980609D01*
X204454931Y-62980609D01*
X204499659Y-63609253D01*
X204654179Y-63982299D01*
X204900540Y-64088012D01*
X205806053Y-63182500D01*
X206308947Y-63182500D01*
X207214460Y-64088012D01*
X207460821Y-63982299D01*
X207660069Y-63384391D01*
X207615341Y-62755747D01*
X207460821Y-62382701D01*
X207214460Y-62276988D01*
X206308947Y-63182500D01*
X205806053Y-63182500D01*
X204900540Y-62276988D01*
X204654179Y-62382701D01*
X204454931Y-62980609D01*
X194931340Y-62980609D01*
X194915341Y-62755747D01*
X194760821Y-62382701D01*
X194514460Y-62276988D01*
X193608947Y-63182500D01*
X193106053Y-63182500D01*
X192200540Y-62276988D01*
X191954179Y-62382701D01*
X191754931Y-62980609D01*
X180223003Y-62980609D01*
X180528088Y-62676057D01*
X180733466Y-62181451D01*
X180733602Y-62025540D01*
X192451988Y-62025540D01*
X193357500Y-62931053D01*
X194263012Y-62025540D01*
X205151988Y-62025540D01*
X206057500Y-62931053D01*
X206963012Y-62025540D01*
X206857299Y-61779179D01*
X206259391Y-61579931D01*
X205630747Y-61624659D01*
X205257701Y-61779179D01*
X205151988Y-62025540D01*
X194263012Y-62025540D01*
X194157299Y-61779179D01*
X193559391Y-61579931D01*
X192930747Y-61624659D01*
X192557701Y-61779179D01*
X192451988Y-62025540D01*
X180733602Y-62025540D01*
X180733934Y-61645899D01*
X180529419Y-61150935D01*
X180345156Y-60966350D01*
X197203300Y-60966350D01*
X197203300Y-61408705D01*
X197292239Y-61623423D01*
X197456578Y-61787761D01*
X197671296Y-61876700D01*
X198113650Y-61876700D01*
X198259700Y-61730650D01*
X198259700Y-60820300D01*
X198615300Y-60820300D01*
X198615300Y-61730650D01*
X198761350Y-61876700D01*
X199203704Y-61876700D01*
X199418422Y-61787761D01*
X199582761Y-61623423D01*
X199671700Y-61408705D01*
X199671700Y-60966350D01*
X199525650Y-60820300D01*
X198615300Y-60820300D01*
X198259700Y-60820300D01*
X197349350Y-60820300D01*
X197203300Y-60966350D01*
X180345156Y-60966350D01*
X180151057Y-60771912D01*
X179656451Y-60566534D01*
X179120899Y-60566066D01*
X178625935Y-60770581D01*
X178246912Y-61148943D01*
X178041534Y-61643549D01*
X178041066Y-62179101D01*
X175011678Y-62179101D01*
X175014736Y-62176049D01*
X175256424Y-61593999D01*
X175256974Y-60963766D01*
X175016302Y-60381295D01*
X174571049Y-59935264D01*
X173988999Y-59693576D01*
X173358766Y-59693026D01*
X172776295Y-59933698D01*
X172330264Y-60378951D01*
X172088576Y-60961001D01*
X172088026Y-61591234D01*
X171427798Y-61591234D01*
X171465069Y-61479391D01*
X171420341Y-60850747D01*
X171265821Y-60477701D01*
X171019460Y-60371988D01*
X170113947Y-61277500D01*
X169611053Y-61277500D01*
X168705540Y-60371988D01*
X168459179Y-60477701D01*
X168259931Y-61075609D01*
X167648145Y-61075609D01*
X167648145Y-60277500D01*
X167618611Y-60120540D01*
X168956988Y-60120540D01*
X169862500Y-61026053D01*
X170768012Y-60120540D01*
X170662299Y-59874179D01*
X170064391Y-59674931D01*
X169435747Y-59719659D01*
X169062701Y-59874179D01*
X168956988Y-60120540D01*
X167618611Y-60120540D01*
X167607409Y-60061008D01*
X167479463Y-59862174D01*
X167284239Y-59728783D01*
X167052500Y-59681855D01*
X165052500Y-59681855D01*
X164836008Y-59722591D01*
X164637174Y-59850537D01*
X164503783Y-60045761D01*
X164456855Y-60277500D01*
X159672689Y-60277500D01*
X159331049Y-59935264D01*
X158748999Y-59693576D01*
X158118766Y-59693026D01*
X157536295Y-59933698D01*
X157090264Y-60378951D01*
X156848576Y-60961001D01*
X156848026Y-61591234D01*
X156187798Y-61591234D01*
X156225069Y-61479391D01*
X156180341Y-60850747D01*
X156025821Y-60477701D01*
X155779460Y-60371988D01*
X154873947Y-61277500D01*
X154371053Y-61277500D01*
X153465540Y-60371988D01*
X153219179Y-60477701D01*
X153019931Y-61075609D01*
X152408145Y-61075609D01*
X152408145Y-60277500D01*
X152378611Y-60120540D01*
X153716988Y-60120540D01*
X154622500Y-61026053D01*
X155528012Y-60120540D01*
X155422299Y-59874179D01*
X154824391Y-59674931D01*
X154195747Y-59719659D01*
X153822701Y-59874179D01*
X153716988Y-60120540D01*
X152378611Y-60120540D01*
X152367409Y-60061008D01*
X152239463Y-59862174D01*
X152044239Y-59728783D01*
X151812500Y-59681855D01*
X149812500Y-59681855D01*
X149596008Y-59722591D01*
X149397174Y-59850537D01*
X149263783Y-60045761D01*
X149216855Y-60277500D01*
X144432689Y-60277500D01*
X144091049Y-59935264D01*
X143508999Y-59693576D01*
X142878766Y-59693026D01*
X142296295Y-59933698D01*
X141850264Y-60378951D01*
X141608576Y-60961001D01*
X141608026Y-61591234D01*
X140947798Y-61591234D01*
X140985069Y-61479391D01*
X140940341Y-60850747D01*
X140785821Y-60477701D01*
X140539460Y-60371988D01*
X139633947Y-61277500D01*
X139131053Y-61277500D01*
X138225540Y-60371988D01*
X137979179Y-60477701D01*
X137779931Y-61075609D01*
X137168145Y-61075609D01*
X137168145Y-60277500D01*
X137138611Y-60120540D01*
X138476988Y-60120540D01*
X139382500Y-61026053D01*
X140288012Y-60120540D01*
X140182299Y-59874179D01*
X139584391Y-59674931D01*
X138955747Y-59719659D01*
X138582701Y-59874179D01*
X138476988Y-60120540D01*
X137138611Y-60120540D01*
X137127409Y-60061008D01*
X136999463Y-59862174D01*
X136804239Y-59728783D01*
X136572500Y-59681855D01*
X134572500Y-59681855D01*
X134356008Y-59722591D01*
X134157174Y-59850537D01*
X134023783Y-60045761D01*
X133976855Y-60277500D01*
X129192689Y-60277500D01*
X128851049Y-59935264D01*
X128268999Y-59693576D01*
X127638766Y-59693026D01*
X127056295Y-59933698D01*
X126610264Y-60378951D01*
X126368576Y-60961001D01*
X126368026Y-61591234D01*
X125707798Y-61591234D01*
X125745069Y-61479391D01*
X125700341Y-60850747D01*
X125545821Y-60477701D01*
X125299460Y-60371988D01*
X124393947Y-61277500D01*
X123891053Y-61277500D01*
X122985540Y-60371988D01*
X122739179Y-60477701D01*
X122539931Y-61075609D01*
X121928145Y-61075609D01*
X121928145Y-60277500D01*
X121898611Y-60120540D01*
X123236988Y-60120540D01*
X124142500Y-61026053D01*
X125048012Y-60120540D01*
X124942299Y-59874179D01*
X124344391Y-59674931D01*
X123715747Y-59719659D01*
X123342701Y-59874179D01*
X123236988Y-60120540D01*
X121898611Y-60120540D01*
X121887409Y-60061008D01*
X121759463Y-59862174D01*
X121564239Y-59728783D01*
X121332500Y-59681855D01*
X119332500Y-59681855D01*
X119116008Y-59722591D01*
X118917174Y-59850537D01*
X118783783Y-60045761D01*
X118736855Y-60277500D01*
X113952689Y-60277500D01*
X113611049Y-59935264D01*
X113028999Y-59693576D01*
X112398766Y-59693026D01*
X111816295Y-59933698D01*
X111370264Y-60378951D01*
X111128576Y-60961001D01*
X111128026Y-61591234D01*
X110467798Y-61591234D01*
X110505069Y-61479391D01*
X110460341Y-60850747D01*
X110305821Y-60477701D01*
X110059460Y-60371988D01*
X109153947Y-61277500D01*
X108651053Y-61277500D01*
X107745540Y-60371988D01*
X107499179Y-60477701D01*
X107299931Y-61075609D01*
X106688145Y-61075609D01*
X106688145Y-60277500D01*
X106658611Y-60120540D01*
X107996988Y-60120540D01*
X108902500Y-61026053D01*
X109808012Y-60120540D01*
X109702299Y-59874179D01*
X109104391Y-59674931D01*
X108475747Y-59719659D01*
X108102701Y-59874179D01*
X107996988Y-60120540D01*
X106658611Y-60120540D01*
X106647409Y-60061008D01*
X106519463Y-59862174D01*
X106324239Y-59728783D01*
X106092500Y-59681855D01*
X104092500Y-59681855D01*
X103876008Y-59722591D01*
X103677174Y-59850537D01*
X103543783Y-60045761D01*
X103496855Y-60277500D01*
X102234200Y-60277500D01*
X102234200Y-59639101D01*
X180581066Y-59639101D01*
X180785581Y-60134065D01*
X181163943Y-60513088D01*
X181658549Y-60718466D01*
X182194101Y-60718934D01*
X182689065Y-60514419D01*
X183068088Y-60136057D01*
X183254870Y-59686234D01*
X191773026Y-59686234D01*
X192013698Y-60268705D01*
X192458951Y-60714736D01*
X193041001Y-60956424D01*
X193671234Y-60956974D01*
X194253705Y-60716302D01*
X194699736Y-60271049D01*
X194941424Y-59688999D01*
X194941974Y-59058766D01*
X194870969Y-58886920D01*
X197203087Y-58886920D01*
X197390586Y-59340705D01*
X197520441Y-59470786D01*
X197456578Y-59497239D01*
X197292239Y-59661577D01*
X197203300Y-59876295D01*
X197203300Y-60318650D01*
X197349350Y-60464700D01*
X198259700Y-60464700D01*
X198259700Y-60444700D01*
X198615300Y-60444700D01*
X198615300Y-60464700D01*
X199525650Y-60464700D01*
X199671700Y-60318650D01*
X199671700Y-59876295D01*
X199582761Y-59661577D01*
X199418422Y-59497239D01*
X199354669Y-59470832D01*
X199483193Y-59342531D01*
X199671485Y-58889075D01*
X199671913Y-58398080D01*
X199661344Y-58372500D01*
X204461855Y-58372500D01*
X204461855Y-60372500D01*
X204502591Y-60588992D01*
X204630537Y-60787826D01*
X204825761Y-60921217D01*
X205057500Y-60968145D01*
X207057500Y-60968145D01*
X207273992Y-60927409D01*
X207472826Y-60799463D01*
X207606217Y-60604239D01*
X207653145Y-60372500D01*
X207653145Y-58372500D01*
X207612409Y-58156008D01*
X207484463Y-57957174D01*
X207289239Y-57823783D01*
X207057500Y-57776855D01*
X205057500Y-57776855D01*
X204841008Y-57817591D01*
X204642174Y-57945537D01*
X204508783Y-58140761D01*
X204461855Y-58372500D01*
X199661344Y-58372500D01*
X199484414Y-57944295D01*
X199137531Y-57596807D01*
X198684075Y-57408515D01*
X198193080Y-57408087D01*
X197739295Y-57595586D01*
X197391807Y-57942469D01*
X197203515Y-58395925D01*
X197203087Y-58886920D01*
X194870969Y-58886920D01*
X194701302Y-58476295D01*
X194256049Y-58030264D01*
X193673999Y-57788576D01*
X193043766Y-57788026D01*
X192461295Y-58028698D01*
X192015264Y-58473951D01*
X191773576Y-59056001D01*
X191773026Y-59686234D01*
X183254870Y-59686234D01*
X183273466Y-59641451D01*
X183273934Y-59105899D01*
X183069419Y-58610935D01*
X182691057Y-58231912D01*
X182196451Y-58026534D01*
X181660899Y-58026066D01*
X181165935Y-58230581D01*
X180786912Y-58608943D01*
X180581534Y-59103549D01*
X180581066Y-59639101D01*
X102234200Y-59639101D01*
X102234200Y-56514200D01*
X211201800Y-56514200D01*
X211201800Y-127635800D01*
X211201800Y-127635800D01*
G37*
X211201800Y-127635800D02*
X137736878Y-127635800D01*
X137772199Y-127612199D01*
X141137696Y-124246701D01*
X141137699Y-124246699D01*
X141282853Y-124029460D01*
X142921988Y-124029460D01*
X143027701Y-124275821D01*
X143625609Y-124475069D01*
X144254253Y-124430341D01*
X144627299Y-124275821D01*
X144733012Y-124029460D01*
X143827500Y-123123947D01*
X142921988Y-124029460D01*
X141282853Y-124029460D01*
X141481110Y-123732747D01*
X141506372Y-123605747D01*
X141578092Y-123245188D01*
X141601424Y-123188999D01*
X141601478Y-123127623D01*
X141601701Y-123126500D01*
X141601700Y-123126495D01*
X141601700Y-122872500D01*
X141601876Y-122670609D01*
X142224931Y-122670609D01*
X142269659Y-123299253D01*
X142424179Y-123672299D01*
X142670540Y-123778012D01*
X143576053Y-122872500D01*
X142670540Y-121966988D01*
X142424179Y-122072701D01*
X142224931Y-122670609D01*
X141601876Y-122670609D01*
X141601974Y-122558766D01*
X141361302Y-121976295D01*
X140916049Y-121530264D01*
X140776215Y-121472200D01*
X143026405Y-121472200D01*
X142921988Y-121715540D01*
X143827500Y-122621053D01*
X143841642Y-122606910D01*
X144093090Y-122858358D01*
X144078947Y-122872500D01*
X144984460Y-123778012D01*
X145230821Y-123672299D01*
X145430069Y-123074391D01*
X145385341Y-122445747D01*
X145230821Y-122072701D01*
X144984461Y-121966989D01*
X145055526Y-121895924D01*
X146041855Y-122882252D01*
X146041855Y-123872500D01*
X146082591Y-124088992D01*
X146210537Y-124287826D01*
X146405761Y-124421217D01*
X146637500Y-124468145D01*
X148637500Y-124468145D01*
X148853992Y-124427409D01*
X148877161Y-124412500D01*
X191761855Y-124412500D01*
X191761855Y-126412500D01*
X191802591Y-126628992D01*
X191930537Y-126827826D01*
X192125761Y-126961217D01*
X192357500Y-127008145D01*
X194357500Y-127008145D01*
X194573992Y-126967409D01*
X194772826Y-126839463D01*
X194906217Y-126644239D01*
X194953145Y-126412500D01*
X194953145Y-125751920D01*
X199743087Y-125751920D01*
X199930586Y-126205705D01*
X200277469Y-126553193D01*
X200730925Y-126741485D01*
X201221920Y-126741913D01*
X201675705Y-126554414D01*
X202023193Y-126207531D01*
X202211485Y-125754075D01*
X202211509Y-125726234D01*
X204473026Y-125726234D01*
X204713698Y-126308705D01*
X205158951Y-126754736D01*
X205741001Y-126996424D01*
X206371234Y-126996974D01*
X206953705Y-126756302D01*
X207399736Y-126311049D01*
X207641424Y-125728999D01*
X207641974Y-125098766D01*
X207401302Y-124516295D01*
X206956049Y-124070264D01*
X206373999Y-123828576D01*
X205743766Y-123828026D01*
X205161295Y-124068698D01*
X204715264Y-124513951D01*
X204473576Y-125096001D01*
X204473026Y-125726234D01*
X202211509Y-125726234D01*
X202211913Y-125263080D01*
X202024414Y-124809295D01*
X201894559Y-124679214D01*
X201958422Y-124652761D01*
X202122761Y-124488423D01*
X202211700Y-124273705D01*
X202211700Y-123831350D01*
X202065650Y-123685300D01*
X201155300Y-123685300D01*
X201155300Y-123705300D01*
X200799700Y-123705300D01*
X200799700Y-123685300D01*
X199889350Y-123685300D01*
X199743300Y-123831350D01*
X199743300Y-124273705D01*
X199832239Y-124488423D01*
X199996578Y-124652761D01*
X200060331Y-124679168D01*
X199931807Y-124807469D01*
X199743515Y-125260925D01*
X199743087Y-125751920D01*
X194953145Y-125751920D01*
X194953145Y-124412500D01*
X194912409Y-124196008D01*
X194784463Y-123997174D01*
X194589239Y-123863783D01*
X194357500Y-123816855D01*
X192357500Y-123816855D01*
X192141008Y-123857591D01*
X191942174Y-123985537D01*
X191808783Y-124180761D01*
X191761855Y-124412500D01*
X148877161Y-124412500D01*
X149052826Y-124299463D01*
X149186217Y-124104239D01*
X149233145Y-123872500D01*
X149233145Y-123163699D01*
X149247422Y-123149422D01*
X149507986Y-122759460D01*
X192451988Y-122759460D01*
X192557701Y-123005821D01*
X193155609Y-123205069D01*
X193784253Y-123160341D01*
X194157299Y-123005821D01*
X194263012Y-122759460D01*
X194244848Y-122741295D01*
X199743300Y-122741295D01*
X199743300Y-123183650D01*
X199889350Y-123329700D01*
X200799700Y-123329700D01*
X200799700Y-122419350D01*
X201155300Y-122419350D01*
X201155300Y-123329700D01*
X202065650Y-123329700D01*
X202211700Y-123183650D01*
X202211700Y-122759460D01*
X205151988Y-122759460D01*
X205257701Y-123005821D01*
X205855609Y-123205069D01*
X206484253Y-123160341D01*
X206857299Y-123005821D01*
X206963012Y-122759460D01*
X206057500Y-121853947D01*
X205151988Y-122759460D01*
X202211700Y-122759460D01*
X202211700Y-122741295D01*
X202122761Y-122526577D01*
X201958422Y-122362239D01*
X201743704Y-122273300D01*
X201301350Y-122273300D01*
X201155300Y-122419350D01*
X200799700Y-122419350D01*
X200653650Y-122273300D01*
X200211296Y-122273300D01*
X199996578Y-122362239D01*
X199832239Y-122526577D01*
X199743300Y-122741295D01*
X194244848Y-122741295D01*
X193357500Y-121853947D01*
X192451988Y-122759460D01*
X149507986Y-122759460D01*
X149536640Y-122716577D01*
X149638200Y-122206000D01*
X149638200Y-121400609D01*
X191754931Y-121400609D01*
X191799659Y-122029253D01*
X191954179Y-122402299D01*
X192200540Y-122508012D01*
X193106053Y-121602500D01*
X193608947Y-121602500D01*
X194514460Y-122508012D01*
X194760821Y-122402299D01*
X194960069Y-121804391D01*
X194931340Y-121400609D01*
X204454931Y-121400609D01*
X204499659Y-122029253D01*
X204654179Y-122402299D01*
X204900540Y-122508012D01*
X205806053Y-121602500D01*
X206308947Y-121602500D01*
X207214460Y-122508012D01*
X207460821Y-122402299D01*
X207660069Y-121804391D01*
X207615341Y-121175747D01*
X207460821Y-120802701D01*
X207214460Y-120696988D01*
X206308947Y-121602500D01*
X205806053Y-121602500D01*
X204900540Y-120696988D01*
X204654179Y-120802701D01*
X204454931Y-121400609D01*
X194931340Y-121400609D01*
X194915341Y-121175747D01*
X194760821Y-120802701D01*
X194514460Y-120696988D01*
X193608947Y-121602500D01*
X193106053Y-121602500D01*
X192200540Y-120696988D01*
X191954179Y-120802701D01*
X191754931Y-121400609D01*
X149638200Y-121400609D01*
X149638200Y-120445540D01*
X192451988Y-120445540D01*
X193357500Y-121351053D01*
X194263012Y-120445540D01*
X205151988Y-120445540D01*
X206057500Y-121351053D01*
X206963012Y-120445540D01*
X206857299Y-120199179D01*
X206259391Y-119999931D01*
X205630747Y-120044659D01*
X205257701Y-120199179D01*
X205151988Y-120445540D01*
X194263012Y-120445540D01*
X194157299Y-120199179D01*
X193738586Y-120059646D01*
X200326801Y-120059646D01*
X200389107Y-120269845D01*
X200859572Y-120410342D01*
X201347990Y-120360105D01*
X201565893Y-120269845D01*
X201628199Y-120059646D01*
X200977500Y-119408947D01*
X200326801Y-120059646D01*
X193738586Y-120059646D01*
X193559391Y-119999931D01*
X192930747Y-120044659D01*
X192557701Y-120199179D01*
X192451988Y-120445540D01*
X149638200Y-120445540D01*
X149638200Y-118106234D01*
X191773026Y-118106234D01*
X192013698Y-118688705D01*
X192458951Y-119134736D01*
X193041001Y-119376424D01*
X193671234Y-119376974D01*
X194253705Y-119136302D01*
X194350604Y-119039572D01*
X199724658Y-119039572D01*
X199774895Y-119527990D01*
X199865155Y-119745893D01*
X200075354Y-119808199D01*
X200726053Y-119157500D01*
X200711911Y-119143358D01*
X200963358Y-118891911D01*
X200977500Y-118906053D01*
X200991643Y-118891911D01*
X201243090Y-119143358D01*
X201228947Y-119157500D01*
X201879646Y-119808199D01*
X202089845Y-119745893D01*
X202230342Y-119275428D01*
X202180105Y-118787010D01*
X202089845Y-118569107D01*
X201879648Y-118506802D01*
X201991978Y-118394472D01*
X201914527Y-118317021D01*
X202042826Y-118234463D01*
X202176217Y-118039239D01*
X202223145Y-117807500D01*
X202223145Y-116792500D01*
X204461855Y-116792500D01*
X204461855Y-118792500D01*
X204502591Y-119008992D01*
X204630537Y-119207826D01*
X204825761Y-119341217D01*
X205057500Y-119388145D01*
X207057500Y-119388145D01*
X207273992Y-119347409D01*
X207472826Y-119219463D01*
X207606217Y-119024239D01*
X207653145Y-118792500D01*
X207653145Y-116792500D01*
X207612409Y-116576008D01*
X207484463Y-116377174D01*
X207289239Y-116243783D01*
X207057500Y-116196855D01*
X205057500Y-116196855D01*
X204841008Y-116237591D01*
X204642174Y-116365537D01*
X204508783Y-116560761D01*
X204461855Y-116792500D01*
X202223145Y-116792500D01*
X202223145Y-116507500D01*
X202182409Y-116291008D01*
X202054463Y-116092174D01*
X201859239Y-115958783D01*
X201627500Y-115911855D01*
X200327500Y-115911855D01*
X200111008Y-115952591D01*
X199912174Y-116080537D01*
X199778783Y-116275761D01*
X199731855Y-116507500D01*
X199731855Y-117807500D01*
X199772591Y-118023992D01*
X199900537Y-118222826D01*
X200039630Y-118317864D01*
X199963022Y-118394472D01*
X200075352Y-118506802D01*
X199865155Y-118569107D01*
X199724658Y-119039572D01*
X194350604Y-119039572D01*
X194699736Y-118691049D01*
X194941424Y-118108999D01*
X194941974Y-117478766D01*
X194701302Y-116896295D01*
X194256049Y-116450264D01*
X193673999Y-116208576D01*
X193043766Y-116208026D01*
X192461295Y-116448698D01*
X192015264Y-116893951D01*
X191773576Y-117476001D01*
X191773026Y-118106234D01*
X149638200Y-118106234D01*
X149638200Y-115316000D01*
X149536640Y-114805424D01*
X149247422Y-114372578D01*
X148814576Y-114083360D01*
X148304000Y-113981800D01*
X147793424Y-114083360D01*
X147429690Y-114326399D01*
X147380963Y-114250674D01*
X147185739Y-114117283D01*
X146954000Y-114070355D01*
X146749196Y-114070355D01*
X146304000Y-113981800D01*
X142336736Y-113981800D01*
X142017500Y-113918300D01*
X141506924Y-114019860D01*
X141143190Y-114262899D01*
X141094463Y-114187174D01*
X140899239Y-114053783D01*
X140667500Y-114006855D01*
X139367500Y-114006855D01*
X139151008Y-114047591D01*
X138952174Y-114175537D01*
X138818783Y-114370761D01*
X138771855Y-114602500D01*
X138771855Y-115902500D01*
X138812591Y-116118992D01*
X138940537Y-116317826D01*
X139135761Y-116451217D01*
X139367500Y-116498145D01*
X140667500Y-116498145D01*
X140883992Y-116457409D01*
X141082826Y-116329463D01*
X141133482Y-116255326D01*
X141137578Y-116259422D01*
X141570424Y-116548640D01*
X142081000Y-116650200D01*
X146304000Y-116650200D01*
X146749196Y-116561645D01*
X146954000Y-116561645D01*
X146969800Y-116558672D01*
X146969800Y-119329402D01*
X146408199Y-118767801D01*
X145894247Y-118424390D01*
X145288000Y-118303799D01*
X145287995Y-118303800D01*
X134239000Y-118303800D01*
X133632752Y-118424390D01*
X133509416Y-118506801D01*
X133118801Y-118767801D01*
X133118799Y-118767804D01*
X130995418Y-120891184D01*
X130709993Y-120890935D01*
X129934861Y-121211213D01*
X129356765Y-121788300D01*
X127432500Y-121788300D01*
X127238672Y-121826855D01*
X127182500Y-121826855D01*
X126966008Y-121867591D01*
X126767174Y-121995537D01*
X126713590Y-122073959D01*
X126682500Y-122094733D01*
X126653214Y-122075165D01*
X126609463Y-122007174D01*
X126414239Y-121873783D01*
X126182500Y-121826855D01*
X126126328Y-121826855D01*
X125932500Y-121788300D01*
X124007258Y-121788300D01*
X123433259Y-121213297D01*
X122658687Y-120891667D01*
X121819993Y-120890935D01*
X121044861Y-121211213D01*
X120451297Y-121803741D01*
X120129667Y-122578313D01*
X120128935Y-123417007D01*
X120449213Y-124192139D01*
X121041741Y-124785703D01*
X121335784Y-124907800D01*
X117496197Y-124907800D01*
X115455816Y-122867418D01*
X115456065Y-122581993D01*
X115135787Y-121806861D01*
X114543259Y-121213297D01*
X113768687Y-120891667D01*
X112929993Y-120890935D01*
X112154861Y-121211213D01*
X111561297Y-121803741D01*
X111239667Y-122578313D01*
X111238935Y-123417007D01*
X111559213Y-124192139D01*
X112151741Y-124785703D01*
X112926313Y-125107333D01*
X113215187Y-125107585D01*
X115719799Y-127612196D01*
X115719801Y-127612199D01*
X115755122Y-127635800D01*
X102234200Y-127635800D01*
X102234200Y-114931234D01*
X104143026Y-114931234D01*
X104383698Y-115513705D01*
X104828951Y-115959736D01*
X105411001Y-116201424D01*
X106041234Y-116201974D01*
X106623705Y-115961302D01*
X107069736Y-115516049D01*
X107311424Y-114933999D01*
X107311426Y-114931234D01*
X119383026Y-114931234D01*
X119623698Y-115513705D01*
X120068951Y-115959736D01*
X120651001Y-116201424D01*
X121281234Y-116201974D01*
X121863705Y-115961302D01*
X122309736Y-115516049D01*
X122551424Y-114933999D01*
X122551974Y-114303766D01*
X122311302Y-113721295D01*
X121866049Y-113275264D01*
X121283999Y-113033576D01*
X120653766Y-113033026D01*
X120071295Y-113273698D01*
X119625264Y-113718951D01*
X119383576Y-114301001D01*
X119383026Y-114931234D01*
X107311426Y-114931234D01*
X107311974Y-114303766D01*
X107071302Y-113721295D01*
X106626049Y-113275264D01*
X106043999Y-113033576D01*
X105413766Y-113033026D01*
X104831295Y-113273698D01*
X104385264Y-113718951D01*
X104143576Y-114301001D01*
X104143026Y-114931234D01*
X102234200Y-114931234D01*
X102234200Y-111964460D01*
X104821988Y-111964460D01*
X104927701Y-112210821D01*
X105525609Y-112410069D01*
X106154253Y-112365341D01*
X106527299Y-112210821D01*
X106633012Y-111964460D01*
X120061988Y-111964460D01*
X120167701Y-112210821D01*
X120765609Y-112410069D01*
X121394253Y-112365341D01*
X121767299Y-112210821D01*
X121873012Y-111964460D01*
X120967500Y-111058947D01*
X120061988Y-111964460D01*
X106633012Y-111964460D01*
X105727500Y-111058947D01*
X104821988Y-111964460D01*
X102234200Y-111964460D01*
X102234200Y-110605609D01*
X104124931Y-110605609D01*
X104169659Y-111234253D01*
X104324179Y-111607299D01*
X104570540Y-111713012D01*
X105476053Y-110807500D01*
X105978947Y-110807500D01*
X106884460Y-111713012D01*
X107130821Y-111607299D01*
X107330069Y-111009391D01*
X107301340Y-110605609D01*
X119364931Y-110605609D01*
X119409659Y-111234253D01*
X119564179Y-111607299D01*
X119810540Y-111713012D01*
X120716053Y-110807500D01*
X121218947Y-110807500D01*
X122124460Y-111713012D01*
X122370821Y-111607299D01*
X122570069Y-111009391D01*
X122525341Y-110380747D01*
X122370821Y-110007701D01*
X122124460Y-109901988D01*
X121218947Y-110807500D01*
X120716053Y-110807500D01*
X119810540Y-109901988D01*
X119564179Y-110007701D01*
X119364931Y-110605609D01*
X107301340Y-110605609D01*
X107285341Y-110380747D01*
X107130821Y-110007701D01*
X106884460Y-109901988D01*
X105978947Y-110807500D01*
X105476053Y-110807500D01*
X104570540Y-109901988D01*
X104324179Y-110007701D01*
X104124931Y-110605609D01*
X102234200Y-110605609D01*
X102234200Y-109650540D01*
X104821988Y-109650540D01*
X105727500Y-110556053D01*
X106633012Y-109650540D01*
X120061988Y-109650540D01*
X120967500Y-110556053D01*
X121873012Y-109650540D01*
X121767299Y-109404179D01*
X121169391Y-109204931D01*
X120540747Y-109249659D01*
X120167701Y-109404179D01*
X120061988Y-109650540D01*
X106633012Y-109650540D01*
X106527299Y-109404179D01*
X105929391Y-109204931D01*
X105300747Y-109249659D01*
X104927701Y-109404179D01*
X104821988Y-109650540D01*
X102234200Y-109650540D01*
X102234200Y-105997500D01*
X104131855Y-105997500D01*
X104131855Y-107997500D01*
X104172591Y-108213992D01*
X104300537Y-108412826D01*
X104495761Y-108546217D01*
X104727500Y-108593145D01*
X106727500Y-108593145D01*
X106943992Y-108552409D01*
X107142826Y-108424463D01*
X107276217Y-108229239D01*
X107323145Y-107997500D01*
X107323145Y-105997500D01*
X119371855Y-105997500D01*
X119371855Y-107997500D01*
X119412591Y-108213992D01*
X119540537Y-108412826D01*
X119735761Y-108546217D01*
X119967500Y-108593145D01*
X121967500Y-108593145D01*
X122183992Y-108552409D01*
X122382826Y-108424463D01*
X122516217Y-108229239D01*
X122563145Y-107997500D01*
X122563145Y-106921422D01*
X141503144Y-106921422D01*
X142078041Y-108312777D01*
X143141624Y-109378218D01*
X144531974Y-109955542D01*
X146037422Y-109956856D01*
X146398890Y-109807500D01*
X191761855Y-109807500D01*
X191761855Y-111807500D01*
X191802591Y-112023992D01*
X191930537Y-112222826D01*
X192125761Y-112356217D01*
X192357500Y-112403145D01*
X194357500Y-112403145D01*
X194573992Y-112362409D01*
X194772826Y-112234463D01*
X194906217Y-112039239D01*
X194953145Y-111807500D01*
X194953145Y-111121234D01*
X204473026Y-111121234D01*
X204713698Y-111703705D01*
X205158951Y-112149736D01*
X205741001Y-112391424D01*
X206371234Y-112391974D01*
X206953705Y-112151302D01*
X207399736Y-111706049D01*
X207641424Y-111123999D01*
X207641974Y-110493766D01*
X207401302Y-109911295D01*
X206956049Y-109465264D01*
X206373999Y-109223576D01*
X205743766Y-109223026D01*
X205161295Y-109463698D01*
X204715264Y-109908951D01*
X204473576Y-110491001D01*
X204473026Y-111121234D01*
X194953145Y-111121234D01*
X194953145Y-109807500D01*
X194912409Y-109591008D01*
X194784463Y-109392174D01*
X194589239Y-109258783D01*
X194357500Y-109211855D01*
X192357500Y-109211855D01*
X192141008Y-109252591D01*
X191942174Y-109380537D01*
X191808783Y-109575761D01*
X191761855Y-109807500D01*
X146398890Y-109807500D01*
X147428777Y-109381959D01*
X148494218Y-108318376D01*
X148562281Y-108154460D01*
X192451988Y-108154460D01*
X192557701Y-108400821D01*
X193155609Y-108600069D01*
X193784253Y-108555341D01*
X194157299Y-108400821D01*
X194263012Y-108154460D01*
X205151988Y-108154460D01*
X205257701Y-108400821D01*
X205855609Y-108600069D01*
X206484253Y-108555341D01*
X206857299Y-108400821D01*
X206963012Y-108154460D01*
X206057500Y-107248947D01*
X205151988Y-108154460D01*
X194263012Y-108154460D01*
X193357500Y-107248947D01*
X192451988Y-108154460D01*
X148562281Y-108154460D01*
X149071542Y-106928026D01*
X149071657Y-106795609D01*
X191754931Y-106795609D01*
X191799659Y-107424253D01*
X191954179Y-107797299D01*
X192200540Y-107903012D01*
X193106053Y-106997500D01*
X193608947Y-106997500D01*
X194514460Y-107903012D01*
X194760821Y-107797299D01*
X194960069Y-107199391D01*
X194931340Y-106795609D01*
X204454931Y-106795609D01*
X204499659Y-107424253D01*
X204654179Y-107797299D01*
X204900540Y-107903012D01*
X205806053Y-106997500D01*
X206308947Y-106997500D01*
X207214460Y-107903012D01*
X207460821Y-107797299D01*
X207660069Y-107199391D01*
X207615341Y-106570747D01*
X207460821Y-106197701D01*
X207214460Y-106091988D01*
X206308947Y-106997500D01*
X205806053Y-106997500D01*
X204900540Y-106091988D01*
X204654179Y-106197701D01*
X204454931Y-106795609D01*
X194931340Y-106795609D01*
X194915341Y-106570747D01*
X194760821Y-106197701D01*
X194514460Y-106091988D01*
X193608947Y-106997500D01*
X193106053Y-106997500D01*
X192200540Y-106091988D01*
X191954179Y-106197701D01*
X191754931Y-106795609D01*
X149071657Y-106795609D01*
X149072491Y-105840540D01*
X192451988Y-105840540D01*
X193357500Y-106746053D01*
X194263012Y-105840540D01*
X205151988Y-105840540D01*
X206057500Y-106746053D01*
X206963012Y-105840540D01*
X206857299Y-105594179D01*
X206259391Y-105394931D01*
X205630747Y-105439659D01*
X205257701Y-105594179D01*
X205151988Y-105840540D01*
X194263012Y-105840540D01*
X194157299Y-105594179D01*
X193559391Y-105394931D01*
X192930747Y-105439659D01*
X192557701Y-105594179D01*
X192451988Y-105840540D01*
X149072491Y-105840540D01*
X149072856Y-105422578D01*
X148497959Y-104031223D01*
X147968895Y-103501234D01*
X191773026Y-103501234D01*
X192013698Y-104083705D01*
X192458951Y-104529736D01*
X193041001Y-104771424D01*
X193671234Y-104771974D01*
X194253705Y-104531302D01*
X194699736Y-104086049D01*
X194941424Y-103503999D01*
X194941974Y-102873766D01*
X194701302Y-102291295D01*
X194597689Y-102187500D01*
X204461855Y-102187500D01*
X204461855Y-104187500D01*
X204502591Y-104403992D01*
X204630537Y-104602826D01*
X204825761Y-104736217D01*
X205057500Y-104783145D01*
X207057500Y-104783145D01*
X207273992Y-104742409D01*
X207472826Y-104614463D01*
X207606217Y-104419239D01*
X207653145Y-104187500D01*
X207653145Y-102187500D01*
X207612409Y-101971008D01*
X207484463Y-101772174D01*
X207289239Y-101638783D01*
X207057500Y-101591855D01*
X205057500Y-101591855D01*
X204841008Y-101632591D01*
X204642174Y-101760537D01*
X204508783Y-101955761D01*
X204461855Y-102187500D01*
X194597689Y-102187500D01*
X194256049Y-101845264D01*
X193673999Y-101603576D01*
X193043766Y-101603026D01*
X192461295Y-101843698D01*
X192015264Y-102288951D01*
X191773576Y-102871001D01*
X191773026Y-103501234D01*
X147968895Y-103501234D01*
X147434376Y-102965782D01*
X146044026Y-102388458D01*
X144538578Y-102387144D01*
X143147223Y-102962041D01*
X142081782Y-104025624D01*
X141504458Y-105415974D01*
X141503144Y-106921422D01*
X122563145Y-106921422D01*
X122563145Y-105997500D01*
X122522409Y-105781008D01*
X122394463Y-105582174D01*
X122199239Y-105448783D01*
X121967500Y-105401855D01*
X119967500Y-105401855D01*
X119751008Y-105442591D01*
X119552174Y-105570537D01*
X119418783Y-105765761D01*
X119371855Y-105997500D01*
X107323145Y-105997500D01*
X107282409Y-105781008D01*
X107154463Y-105582174D01*
X106959239Y-105448783D01*
X106727500Y-105401855D01*
X104727500Y-105401855D01*
X104511008Y-105442591D01*
X104312174Y-105570537D01*
X104178783Y-105765761D01*
X104131855Y-105997500D01*
X102234200Y-105997500D01*
X102234200Y-99691234D01*
X104143026Y-99691234D01*
X104383698Y-100273705D01*
X104828951Y-100719736D01*
X105411001Y-100961424D01*
X106041234Y-100961974D01*
X106623705Y-100721302D01*
X107069736Y-100276049D01*
X107311424Y-99693999D01*
X107311426Y-99691234D01*
X119383026Y-99691234D01*
X119623698Y-100273705D01*
X120068951Y-100719736D01*
X120651001Y-100961424D01*
X121281234Y-100961974D01*
X121863705Y-100721302D01*
X122309736Y-100276049D01*
X122551424Y-99693999D01*
X122551426Y-99691234D01*
X134623026Y-99691234D01*
X134863698Y-100273705D01*
X135308951Y-100719736D01*
X135891001Y-100961424D01*
X136521234Y-100961974D01*
X137103705Y-100721302D01*
X137549736Y-100276049D01*
X137791424Y-99693999D01*
X137791974Y-99063766D01*
X137551302Y-98481295D01*
X137106049Y-98035264D01*
X136523999Y-97793576D01*
X135893766Y-97793026D01*
X135311295Y-98033698D01*
X134865264Y-98478951D01*
X134623576Y-99061001D01*
X134623026Y-99691234D01*
X122551426Y-99691234D01*
X122551974Y-99063766D01*
X122311302Y-98481295D01*
X121866049Y-98035264D01*
X121283999Y-97793576D01*
X120653766Y-97793026D01*
X120071295Y-98033698D01*
X119625264Y-98478951D01*
X119383576Y-99061001D01*
X119383026Y-99691234D01*
X107311426Y-99691234D01*
X107311974Y-99063766D01*
X107071302Y-98481295D01*
X106626049Y-98035264D01*
X106043999Y-97793576D01*
X105413766Y-97793026D01*
X104831295Y-98033698D01*
X104385264Y-98478951D01*
X104143576Y-99061001D01*
X104143026Y-99691234D01*
X102234200Y-99691234D01*
X102234200Y-96724460D01*
X104821988Y-96724460D01*
X104927701Y-96970821D01*
X105525609Y-97170069D01*
X106154253Y-97125341D01*
X106527299Y-96970821D01*
X106633012Y-96724460D01*
X120061988Y-96724460D01*
X120167701Y-96970821D01*
X120765609Y-97170069D01*
X121394253Y-97125341D01*
X121767299Y-96970821D01*
X121873012Y-96724460D01*
X135301988Y-96724460D01*
X135407701Y-96970821D01*
X136005609Y-97170069D01*
X136634253Y-97125341D01*
X137007299Y-96970821D01*
X137113012Y-96724460D01*
X136207500Y-95818947D01*
X135301988Y-96724460D01*
X121873012Y-96724460D01*
X120967500Y-95818947D01*
X120061988Y-96724460D01*
X106633012Y-96724460D01*
X105727500Y-95818947D01*
X104821988Y-96724460D01*
X102234200Y-96724460D01*
X102234200Y-95365609D01*
X104124931Y-95365609D01*
X104169659Y-95994253D01*
X104324179Y-96367299D01*
X104570540Y-96473012D01*
X105476053Y-95567500D01*
X105978947Y-95567500D01*
X106884460Y-96473012D01*
X107130821Y-96367299D01*
X107330069Y-95769391D01*
X107301340Y-95365609D01*
X119364931Y-95365609D01*
X119409659Y-95994253D01*
X119564179Y-96367299D01*
X119810540Y-96473012D01*
X120716053Y-95567500D01*
X121218947Y-95567500D01*
X122124460Y-96473012D01*
X122370821Y-96367299D01*
X122570069Y-95769391D01*
X122541340Y-95365609D01*
X134604931Y-95365609D01*
X134649659Y-95994253D01*
X134804179Y-96367299D01*
X135050540Y-96473012D01*
X135956053Y-95567500D01*
X136458947Y-95567500D01*
X137364460Y-96473012D01*
X137610821Y-96367299D01*
X137810069Y-95769391D01*
X137769735Y-95202500D01*
X191761855Y-95202500D01*
X191761855Y-97202500D01*
X191802591Y-97418992D01*
X191930537Y-97617826D01*
X192125761Y-97751217D01*
X192357500Y-97798145D01*
X194357500Y-97798145D01*
X194573992Y-97757409D01*
X194772826Y-97629463D01*
X194906217Y-97434239D01*
X194953145Y-97202500D01*
X194953145Y-96516234D01*
X204473026Y-96516234D01*
X204713698Y-97098705D01*
X205158951Y-97544736D01*
X205741001Y-97786424D01*
X206371234Y-97786974D01*
X206953705Y-97546302D01*
X207399736Y-97101049D01*
X207641424Y-96518999D01*
X207641974Y-95888766D01*
X207401302Y-95306295D01*
X206956049Y-94860264D01*
X206373999Y-94618576D01*
X205743766Y-94618026D01*
X205161295Y-94858698D01*
X204715264Y-95303951D01*
X204473576Y-95886001D01*
X204473026Y-96516234D01*
X194953145Y-96516234D01*
X194953145Y-95202500D01*
X194912409Y-94986008D01*
X194784463Y-94787174D01*
X194589239Y-94653783D01*
X194357500Y-94606855D01*
X192357500Y-94606855D01*
X192141008Y-94647591D01*
X191942174Y-94775537D01*
X191808783Y-94970761D01*
X191761855Y-95202500D01*
X137769735Y-95202500D01*
X137765341Y-95140747D01*
X137610821Y-94767701D01*
X137364460Y-94661988D01*
X136458947Y-95567500D01*
X135956053Y-95567500D01*
X135050540Y-94661988D01*
X134804179Y-94767701D01*
X134604931Y-95365609D01*
X122541340Y-95365609D01*
X122525341Y-95140747D01*
X122370821Y-94767701D01*
X122124460Y-94661988D01*
X121218947Y-95567500D01*
X120716053Y-95567500D01*
X119810540Y-94661988D01*
X119564179Y-94767701D01*
X119364931Y-95365609D01*
X107301340Y-95365609D01*
X107285341Y-95140747D01*
X107130821Y-94767701D01*
X106884460Y-94661988D01*
X105978947Y-95567500D01*
X105476053Y-95567500D01*
X104570540Y-94661988D01*
X104324179Y-94767701D01*
X104124931Y-95365609D01*
X102234200Y-95365609D01*
X102234200Y-94410540D01*
X104821988Y-94410540D01*
X105727500Y-95316053D01*
X106633012Y-94410540D01*
X120061988Y-94410540D01*
X120967500Y-95316053D01*
X121873012Y-94410540D01*
X135301988Y-94410540D01*
X136207500Y-95316053D01*
X137113012Y-94410540D01*
X137007299Y-94164179D01*
X136409391Y-93964931D01*
X135780747Y-94009659D01*
X135407701Y-94164179D01*
X135301988Y-94410540D01*
X121873012Y-94410540D01*
X121767299Y-94164179D01*
X121169391Y-93964931D01*
X120540747Y-94009659D01*
X120167701Y-94164179D01*
X120061988Y-94410540D01*
X106633012Y-94410540D01*
X106527299Y-94164179D01*
X105929391Y-93964931D01*
X105300747Y-94009659D01*
X104927701Y-94164179D01*
X104821988Y-94410540D01*
X102234200Y-94410540D01*
X102234200Y-93549460D01*
X192451988Y-93549460D01*
X192557701Y-93795821D01*
X193155609Y-93995069D01*
X193784253Y-93950341D01*
X194157299Y-93795821D01*
X194263012Y-93549460D01*
X205151988Y-93549460D01*
X205257701Y-93795821D01*
X205855609Y-93995069D01*
X206484253Y-93950341D01*
X206857299Y-93795821D01*
X206963012Y-93549460D01*
X206057500Y-92643947D01*
X205151988Y-93549460D01*
X194263012Y-93549460D01*
X193357500Y-92643947D01*
X192451988Y-93549460D01*
X102234200Y-93549460D01*
X102234200Y-90757500D01*
X104131855Y-90757500D01*
X104131855Y-92757500D01*
X104172591Y-92973992D01*
X104300537Y-93172826D01*
X104495761Y-93306217D01*
X104727500Y-93353145D01*
X106727500Y-93353145D01*
X106943992Y-93312409D01*
X107142826Y-93184463D01*
X107276217Y-92989239D01*
X107323145Y-92757500D01*
X107323145Y-90757500D01*
X119371855Y-90757500D01*
X119371855Y-92757500D01*
X119412591Y-92973992D01*
X119540537Y-93172826D01*
X119735761Y-93306217D01*
X119967500Y-93353145D01*
X121967500Y-93353145D01*
X122183992Y-93312409D01*
X122382826Y-93184463D01*
X122516217Y-92989239D01*
X122563145Y-92757500D01*
X122563145Y-90757500D01*
X134611855Y-90757500D01*
X134611855Y-92757500D01*
X134652591Y-92973992D01*
X134780537Y-93172826D01*
X134975761Y-93306217D01*
X135207500Y-93353145D01*
X137207500Y-93353145D01*
X137423992Y-93312409D01*
X137622826Y-93184463D01*
X137756217Y-92989239D01*
X137803145Y-92757500D01*
X137803145Y-92190609D01*
X191754931Y-92190609D01*
X191799659Y-92819253D01*
X191954179Y-93192299D01*
X192200540Y-93298012D01*
X193106053Y-92392500D01*
X193608947Y-92392500D01*
X194514460Y-93298012D01*
X194760821Y-93192299D01*
X194960069Y-92594391D01*
X194931340Y-92190609D01*
X204454931Y-92190609D01*
X204499659Y-92819253D01*
X204654179Y-93192299D01*
X204900540Y-93298012D01*
X205806053Y-92392500D01*
X206308947Y-92392500D01*
X207214460Y-93298012D01*
X207460821Y-93192299D01*
X207660069Y-92594391D01*
X207615341Y-91965747D01*
X207460821Y-91592701D01*
X207214460Y-91486988D01*
X206308947Y-92392500D01*
X205806053Y-92392500D01*
X204900540Y-91486988D01*
X204654179Y-91592701D01*
X204454931Y-92190609D01*
X194931340Y-92190609D01*
X194915341Y-91965747D01*
X194760821Y-91592701D01*
X194514460Y-91486988D01*
X193608947Y-92392500D01*
X193106053Y-92392500D01*
X192200540Y-91486988D01*
X191954179Y-91592701D01*
X191754931Y-92190609D01*
X137803145Y-92190609D01*
X137803145Y-90757500D01*
X137762409Y-90541008D01*
X137634463Y-90342174D01*
X137439239Y-90208783D01*
X137207500Y-90161855D01*
X135207500Y-90161855D01*
X134991008Y-90202591D01*
X134792174Y-90330537D01*
X134658783Y-90525761D01*
X134611855Y-90757500D01*
X122563145Y-90757500D01*
X122522409Y-90541008D01*
X122394463Y-90342174D01*
X122199239Y-90208783D01*
X121967500Y-90161855D01*
X119967500Y-90161855D01*
X119751008Y-90202591D01*
X119552174Y-90330537D01*
X119418783Y-90525761D01*
X119371855Y-90757500D01*
X107323145Y-90757500D01*
X107282409Y-90541008D01*
X107154463Y-90342174D01*
X106959239Y-90208783D01*
X106727500Y-90161855D01*
X104727500Y-90161855D01*
X104511008Y-90202591D01*
X104312174Y-90330537D01*
X104178783Y-90525761D01*
X104131855Y-90757500D01*
X102234200Y-90757500D01*
X102234200Y-88633422D01*
X141503144Y-88633422D01*
X142078041Y-90024777D01*
X143141624Y-91090218D01*
X144531974Y-91667542D01*
X146037422Y-91668856D01*
X147086125Y-91235540D01*
X192451988Y-91235540D01*
X193357500Y-92141053D01*
X194263012Y-91235540D01*
X205151988Y-91235540D01*
X206057500Y-92141053D01*
X206963012Y-91235540D01*
X206857299Y-90989179D01*
X206259391Y-90789931D01*
X205630747Y-90834659D01*
X205257701Y-90989179D01*
X205151988Y-91235540D01*
X194263012Y-91235540D01*
X194157299Y-90989179D01*
X193559391Y-90789931D01*
X192930747Y-90834659D01*
X192557701Y-90989179D01*
X192451988Y-91235540D01*
X147086125Y-91235540D01*
X147428777Y-91093959D01*
X148494218Y-90030376D01*
X148965155Y-88896234D01*
X191773026Y-88896234D01*
X192013698Y-89478705D01*
X192458951Y-89924736D01*
X193041001Y-90166424D01*
X193671234Y-90166974D01*
X194253705Y-89926302D01*
X194699736Y-89481049D01*
X194941424Y-88898999D01*
X194941974Y-88268766D01*
X194701302Y-87686295D01*
X194597689Y-87582500D01*
X204461855Y-87582500D01*
X204461855Y-89582500D01*
X204502591Y-89798992D01*
X204630537Y-89997826D01*
X204825761Y-90131217D01*
X205057500Y-90178145D01*
X207057500Y-90178145D01*
X207273992Y-90137409D01*
X207472826Y-90009463D01*
X207606217Y-89814239D01*
X207653145Y-89582500D01*
X207653145Y-87582500D01*
X207612409Y-87366008D01*
X207484463Y-87167174D01*
X207289239Y-87033783D01*
X207057500Y-86986855D01*
X205057500Y-86986855D01*
X204841008Y-87027591D01*
X204642174Y-87155537D01*
X204508783Y-87350761D01*
X204461855Y-87582500D01*
X194597689Y-87582500D01*
X194256049Y-87240264D01*
X193673999Y-86998576D01*
X193043766Y-86998026D01*
X192461295Y-87238698D01*
X192015264Y-87683951D01*
X191773576Y-88266001D01*
X191773026Y-88896234D01*
X148965155Y-88896234D01*
X149071542Y-88640026D01*
X149072856Y-87134578D01*
X148497959Y-85743223D01*
X147434376Y-84677782D01*
X146044026Y-84100458D01*
X144538578Y-84099144D01*
X143147223Y-84674041D01*
X142081782Y-85737624D01*
X141504458Y-87127974D01*
X141503144Y-88633422D01*
X102234200Y-88633422D01*
X102234200Y-84451234D01*
X104143026Y-84451234D01*
X104383698Y-85033705D01*
X104828951Y-85479736D01*
X105411001Y-85721424D01*
X106041234Y-85721974D01*
X106623705Y-85481302D01*
X107066678Y-85039101D01*
X121526066Y-85039101D01*
X121730581Y-85534065D01*
X122108943Y-85913088D01*
X122603549Y-86118466D01*
X123139101Y-86118934D01*
X123634065Y-85914419D01*
X124013088Y-85536057D01*
X124025373Y-85506471D01*
X126145708Y-83386136D01*
X126174065Y-83374419D01*
X126357453Y-83191350D01*
X131083300Y-83191350D01*
X131083300Y-83783704D01*
X131172239Y-83998422D01*
X131336577Y-84162761D01*
X131551295Y-84251700D01*
X131843650Y-84251700D01*
X131989700Y-84105650D01*
X131989700Y-83045300D01*
X132345300Y-83045300D01*
X132345300Y-84105650D01*
X132491350Y-84251700D01*
X132783705Y-84251700D01*
X132998423Y-84162761D01*
X133162761Y-83998422D01*
X133251700Y-83783704D01*
X133251700Y-83191350D01*
X133105650Y-83045300D01*
X132345300Y-83045300D01*
X131989700Y-83045300D01*
X131229350Y-83045300D01*
X131083300Y-83191350D01*
X126357453Y-83191350D01*
X126553088Y-82996057D01*
X126734768Y-82558522D01*
X127341994Y-81951296D01*
X131083300Y-81951296D01*
X131083300Y-82543650D01*
X131229350Y-82689700D01*
X131989700Y-82689700D01*
X131989700Y-81629350D01*
X132345300Y-81629350D01*
X132345300Y-82689700D01*
X133105650Y-82689700D01*
X133251700Y-82543650D01*
X133251700Y-81951296D01*
X133162761Y-81736578D01*
X132998423Y-81572239D01*
X132783705Y-81483300D01*
X132491350Y-81483300D01*
X132345300Y-81629350D01*
X131989700Y-81629350D01*
X131843650Y-81483300D01*
X131551295Y-81483300D01*
X131336577Y-81572239D01*
X131172239Y-81736578D01*
X131083300Y-81951296D01*
X127341994Y-81951296D01*
X129354146Y-79939145D01*
X129384837Y-79893213D01*
X129452826Y-79849463D01*
X129586217Y-79654239D01*
X129633145Y-79422500D01*
X129633145Y-79366328D01*
X129671700Y-79172500D01*
X129633145Y-78978671D01*
X129633145Y-78922500D01*
X129592409Y-78706008D01*
X129464463Y-78507174D01*
X129386043Y-78453592D01*
X129363472Y-78419811D01*
X129368422Y-78417761D01*
X129532761Y-78253423D01*
X129621700Y-78038705D01*
X129621700Y-77943550D01*
X129475650Y-77797500D01*
X128765300Y-77797500D01*
X128765300Y-77870300D01*
X128409700Y-77870300D01*
X128409700Y-77797500D01*
X127699350Y-77797500D01*
X127553300Y-77943550D01*
X127553300Y-78038705D01*
X127642239Y-78253423D01*
X127806578Y-78417761D01*
X127808254Y-78418455D01*
X127747413Y-78479296D01*
X127722174Y-78495537D01*
X127702763Y-78523946D01*
X125340474Y-80886236D01*
X125145899Y-80886066D01*
X124650935Y-81090581D01*
X124271912Y-81468943D01*
X124259627Y-81498529D01*
X122139292Y-83618864D01*
X122110935Y-83630581D01*
X121731912Y-84008943D01*
X121526534Y-84503549D01*
X121526066Y-85039101D01*
X107066678Y-85039101D01*
X107069736Y-85036049D01*
X107311424Y-84453999D01*
X107311974Y-83823766D01*
X107071302Y-83241295D01*
X106626049Y-82795264D01*
X106043999Y-82553576D01*
X105413766Y-82553026D01*
X104831295Y-82793698D01*
X104385264Y-83238951D01*
X104143576Y-83821001D01*
X104143026Y-84451234D01*
X102234200Y-84451234D01*
X102234200Y-81484460D01*
X104821988Y-81484460D01*
X104927701Y-81730821D01*
X105525609Y-81930069D01*
X106154253Y-81885341D01*
X106527299Y-81730821D01*
X106633012Y-81484460D01*
X105727500Y-80578947D01*
X104821988Y-81484460D01*
X102234200Y-81484460D01*
X102234200Y-80125609D01*
X104124931Y-80125609D01*
X104169659Y-80754253D01*
X104324179Y-81127299D01*
X104570540Y-81233012D01*
X105476053Y-80327500D01*
X105978947Y-80327500D01*
X106884460Y-81233012D01*
X107130821Y-81127299D01*
X107330069Y-80529391D01*
X107285341Y-79900747D01*
X107130821Y-79527701D01*
X106884460Y-79421988D01*
X105978947Y-80327500D01*
X105476053Y-80327500D01*
X104570540Y-79421988D01*
X104324179Y-79527701D01*
X104124931Y-80125609D01*
X102234200Y-80125609D01*
X102234200Y-79170540D01*
X104821988Y-79170540D01*
X105727500Y-80076053D01*
X106633012Y-79170540D01*
X106527299Y-78924179D01*
X105929391Y-78724931D01*
X105300747Y-78769659D01*
X104927701Y-78924179D01*
X104821988Y-79170540D01*
X102234200Y-79170540D01*
X102234200Y-75517500D01*
X104131855Y-75517500D01*
X104131855Y-77517500D01*
X104172591Y-77733992D01*
X104300537Y-77932826D01*
X104495761Y-78066217D01*
X104727500Y-78113145D01*
X106727500Y-78113145D01*
X106943992Y-78072409D01*
X107029323Y-78017500D01*
X114323300Y-78017500D01*
X114323300Y-83502500D01*
X114424860Y-84013076D01*
X114561855Y-84218104D01*
X114561855Y-84302500D01*
X114602591Y-84518992D01*
X114730537Y-84717826D01*
X114925761Y-84851217D01*
X115157500Y-84898145D01*
X116157500Y-84898145D01*
X116373992Y-84857409D01*
X116572826Y-84729463D01*
X116706217Y-84534239D01*
X116753145Y-84302500D01*
X116753145Y-84218104D01*
X116890140Y-84013076D01*
X116927282Y-83826350D01*
X117573300Y-83826350D01*
X117573300Y-84418704D01*
X117662239Y-84633422D01*
X117826577Y-84797761D01*
X118041295Y-84886700D01*
X118333650Y-84886700D01*
X118479700Y-84740650D01*
X118479700Y-83680300D01*
X118835300Y-83680300D01*
X118835300Y-84740650D01*
X118981350Y-84886700D01*
X119273705Y-84886700D01*
X119488423Y-84797761D01*
X119652761Y-84633422D01*
X119741700Y-84418704D01*
X119741700Y-83826350D01*
X119595650Y-83680300D01*
X118835300Y-83680300D01*
X118479700Y-83680300D01*
X117719350Y-83680300D01*
X117573300Y-83826350D01*
X116927282Y-83826350D01*
X116991700Y-83502500D01*
X116991700Y-82586296D01*
X117573300Y-82586296D01*
X117573300Y-83178650D01*
X117719350Y-83324700D01*
X118479700Y-83324700D01*
X118479700Y-82264350D01*
X118835300Y-82264350D01*
X118835300Y-83324700D01*
X119595650Y-83324700D01*
X119741700Y-83178650D01*
X119741700Y-82586296D01*
X119652761Y-82371578D01*
X119488423Y-82207239D01*
X119273705Y-82118300D01*
X118981350Y-82118300D01*
X118835300Y-82264350D01*
X118479700Y-82264350D01*
X118333650Y-82118300D01*
X118041295Y-82118300D01*
X117826577Y-82207239D01*
X117662239Y-82371578D01*
X117573300Y-82586296D01*
X116991700Y-82586296D01*
X116991700Y-78807569D01*
X117047864Y-78725370D01*
X117124472Y-78801978D01*
X117236802Y-78689648D01*
X117299107Y-78899845D01*
X117769572Y-79040342D01*
X118257990Y-78990105D01*
X118475893Y-78899845D01*
X118538199Y-78689646D01*
X117887500Y-78038947D01*
X117873358Y-78053090D01*
X117621911Y-77801643D01*
X117636053Y-77787500D01*
X118138947Y-77787500D01*
X118789646Y-78438199D01*
X118999845Y-78375893D01*
X119140342Y-77905428D01*
X119090105Y-77417010D01*
X118999845Y-77199107D01*
X118789646Y-77136801D01*
X118138947Y-77787500D01*
X117636053Y-77787500D01*
X117621911Y-77773358D01*
X117873358Y-77521911D01*
X117887500Y-77536053D01*
X118538199Y-76885354D01*
X118475893Y-76675155D01*
X118005428Y-76534658D01*
X117517010Y-76584895D01*
X117299107Y-76675155D01*
X117236802Y-76885352D01*
X117124472Y-76773022D01*
X117047021Y-76850473D01*
X116964463Y-76722174D01*
X116769239Y-76588783D01*
X116537500Y-76541855D01*
X116332696Y-76541855D01*
X115887500Y-76453300D01*
X115442304Y-76541855D01*
X115237500Y-76541855D01*
X115021008Y-76582591D01*
X114822174Y-76710537D01*
X114688783Y-76905761D01*
X114641855Y-77137500D01*
X114641855Y-77182168D01*
X114424860Y-77506924D01*
X114323300Y-78017500D01*
X107029323Y-78017500D01*
X107142826Y-77944463D01*
X107276217Y-77749239D01*
X107323145Y-77517500D01*
X107323145Y-75517500D01*
X107282409Y-75301008D01*
X107154463Y-75102174D01*
X106959239Y-74968783D01*
X106727500Y-74921855D01*
X104727500Y-74921855D01*
X104511008Y-74962591D01*
X104312174Y-75090537D01*
X104178783Y-75285761D01*
X104131855Y-75517500D01*
X102234200Y-75517500D01*
X102234200Y-72617007D01*
X110603935Y-72617007D01*
X110924213Y-73392139D01*
X111516741Y-73985703D01*
X112291313Y-74307333D01*
X113130007Y-74308065D01*
X113905139Y-73987787D01*
X114498703Y-73395259D01*
X114820333Y-72620687D01*
X114820336Y-72617007D01*
X116953935Y-72617007D01*
X117274213Y-73392139D01*
X117866741Y-73985703D01*
X118641313Y-74307333D01*
X119284050Y-74307894D01*
X121538300Y-76562144D01*
X121538300Y-79395213D01*
X121526534Y-79423549D01*
X121526066Y-79959101D01*
X121730581Y-80454065D01*
X122108943Y-80833088D01*
X122603549Y-81038466D01*
X123139101Y-81038934D01*
X123634065Y-80834419D01*
X124013088Y-80456057D01*
X124218466Y-79961451D01*
X124218934Y-79425899D01*
X124206700Y-79396290D01*
X124206700Y-77669572D01*
X131684658Y-77669572D01*
X131734895Y-78157990D01*
X131825155Y-78375893D01*
X132035354Y-78438199D01*
X132686053Y-77787500D01*
X132035354Y-77136801D01*
X131825155Y-77199107D01*
X131684658Y-77669572D01*
X124206700Y-77669572D01*
X124206700Y-77306295D01*
X127553300Y-77306295D01*
X127553300Y-77401450D01*
X127699350Y-77547500D01*
X128409700Y-77547500D01*
X128409700Y-76984350D01*
X128765300Y-76984350D01*
X128765300Y-77547500D01*
X129475650Y-77547500D01*
X129621700Y-77401450D01*
X129621700Y-77306295D01*
X129532761Y-77091577D01*
X129368422Y-76927239D01*
X129267303Y-76885354D01*
X132286801Y-76885354D01*
X132937500Y-77536053D01*
X132951643Y-77521911D01*
X133203090Y-77773358D01*
X133188947Y-77787500D01*
X133203090Y-77801643D01*
X132951643Y-78053090D01*
X132937500Y-78038947D01*
X132286801Y-78689646D01*
X132349107Y-78899845D01*
X132819572Y-79040342D01*
X133307990Y-78990105D01*
X133525893Y-78899845D01*
X133588198Y-78689648D01*
X133603300Y-78704750D01*
X133603300Y-82637500D01*
X133704860Y-83148076D01*
X133994078Y-83580922D01*
X134071855Y-83658699D01*
X134071855Y-83667500D01*
X134112591Y-83883992D01*
X134240537Y-84082826D01*
X134435761Y-84216217D01*
X134667500Y-84263145D01*
X135667500Y-84263145D01*
X135883992Y-84222409D01*
X136082826Y-84094463D01*
X136216217Y-83899239D01*
X136263145Y-83667500D01*
X136263145Y-83583104D01*
X136400140Y-83378076D01*
X136501700Y-82867500D01*
X136400140Y-82356924D01*
X136271700Y-82164700D01*
X136271700Y-79371234D01*
X143513026Y-79371234D01*
X143753698Y-79953705D01*
X144198951Y-80399736D01*
X144781001Y-80641424D01*
X145411234Y-80641974D01*
X145518869Y-80597500D01*
X191761855Y-80597500D01*
X191761855Y-82597500D01*
X191802591Y-82813992D01*
X191930537Y-83012826D01*
X192125761Y-83146217D01*
X192357500Y-83193145D01*
X194357500Y-83193145D01*
X194573992Y-83152409D01*
X194772826Y-83024463D01*
X194906217Y-82829239D01*
X194953145Y-82597500D01*
X194953145Y-81911234D01*
X204473026Y-81911234D01*
X204713698Y-82493705D01*
X205158951Y-82939736D01*
X205741001Y-83181424D01*
X206371234Y-83181974D01*
X206953705Y-82941302D01*
X207399736Y-82496049D01*
X207641424Y-81913999D01*
X207641974Y-81283766D01*
X207401302Y-80701295D01*
X206956049Y-80255264D01*
X206373999Y-80013576D01*
X205743766Y-80013026D01*
X205161295Y-80253698D01*
X204715264Y-80698951D01*
X204473576Y-81281001D01*
X204473026Y-81911234D01*
X194953145Y-81911234D01*
X194953145Y-80597500D01*
X194912409Y-80381008D01*
X194784463Y-80182174D01*
X194589239Y-80048783D01*
X194357500Y-80001855D01*
X192357500Y-80001855D01*
X192141008Y-80042591D01*
X191942174Y-80170537D01*
X191808783Y-80365761D01*
X191761855Y-80597500D01*
X145518869Y-80597500D01*
X145993705Y-80401302D01*
X146439736Y-79956049D01*
X146681424Y-79373999D01*
X146681798Y-78944460D01*
X192451988Y-78944460D01*
X192557701Y-79190821D01*
X193155609Y-79390069D01*
X193784253Y-79345341D01*
X194157299Y-79190821D01*
X194263012Y-78944460D01*
X205151988Y-78944460D01*
X205257701Y-79190821D01*
X205855609Y-79390069D01*
X206484253Y-79345341D01*
X206857299Y-79190821D01*
X206963012Y-78944460D01*
X206057500Y-78038947D01*
X205151988Y-78944460D01*
X194263012Y-78944460D01*
X193357500Y-78038947D01*
X192451988Y-78944460D01*
X146681798Y-78944460D01*
X146681974Y-78743766D01*
X146441302Y-78161295D01*
X145996049Y-77715264D01*
X145683805Y-77585609D01*
X191754931Y-77585609D01*
X191799659Y-78214253D01*
X191954179Y-78587299D01*
X192200540Y-78693012D01*
X193106053Y-77787500D01*
X193608947Y-77787500D01*
X194514460Y-78693012D01*
X194760821Y-78587299D01*
X194960069Y-77989391D01*
X194931340Y-77585609D01*
X204454931Y-77585609D01*
X204499659Y-78214253D01*
X204654179Y-78587299D01*
X204900540Y-78693012D01*
X205806053Y-77787500D01*
X206308947Y-77787500D01*
X207214460Y-78693012D01*
X207460821Y-78587299D01*
X207660069Y-77989391D01*
X207615341Y-77360747D01*
X207460821Y-76987701D01*
X207214460Y-76881988D01*
X206308947Y-77787500D01*
X205806053Y-77787500D01*
X204900540Y-76881988D01*
X204654179Y-76987701D01*
X204454931Y-77585609D01*
X194931340Y-77585609D01*
X194915341Y-77360747D01*
X194760821Y-76987701D01*
X194514460Y-76881988D01*
X193608947Y-77787500D01*
X193106053Y-77787500D01*
X192200540Y-76881988D01*
X191954179Y-76987701D01*
X191754931Y-77585609D01*
X145683805Y-77585609D01*
X145413999Y-77473576D01*
X144783766Y-77473026D01*
X144201295Y-77713698D01*
X143755264Y-78158951D01*
X143513576Y-78741001D01*
X143513026Y-79371234D01*
X136271700Y-79371234D01*
X136271700Y-77787500D01*
X136183145Y-77342304D01*
X136183145Y-77137500D01*
X136142409Y-76921008D01*
X136014463Y-76722174D01*
X135819239Y-76588783D01*
X135587500Y-76541855D01*
X135382696Y-76541855D01*
X134937500Y-76453300D01*
X134492304Y-76541855D01*
X134287500Y-76541855D01*
X134071008Y-76582591D01*
X133872174Y-76710537D01*
X133777136Y-76849630D01*
X133700528Y-76773022D01*
X133588198Y-76885352D01*
X133525893Y-76675155D01*
X133055428Y-76534658D01*
X132567010Y-76584895D01*
X132349107Y-76675155D01*
X132286801Y-76885354D01*
X129267303Y-76885354D01*
X129153704Y-76838300D01*
X128911350Y-76838300D01*
X128765300Y-76984350D01*
X128409700Y-76984350D01*
X128263650Y-76838300D01*
X128021296Y-76838300D01*
X127806578Y-76927239D01*
X127642239Y-77091577D01*
X127553300Y-77306295D01*
X124206700Y-77306295D01*
X124206700Y-76404460D01*
X144191988Y-76404460D01*
X144297701Y-76650821D01*
X144895609Y-76850069D01*
X145524253Y-76805341D01*
X145897299Y-76650821D01*
X145906001Y-76630540D01*
X192451988Y-76630540D01*
X193357500Y-77536053D01*
X194263012Y-76630540D01*
X205151988Y-76630540D01*
X206057500Y-77536053D01*
X206963012Y-76630540D01*
X206857299Y-76384179D01*
X206259391Y-76184931D01*
X205630747Y-76229659D01*
X205257701Y-76384179D01*
X205151988Y-76630540D01*
X194263012Y-76630540D01*
X194157299Y-76384179D01*
X193559391Y-76184931D01*
X192930747Y-76229659D01*
X192557701Y-76384179D01*
X192451988Y-76630540D01*
X145906001Y-76630540D01*
X146003012Y-76404460D01*
X145097500Y-75498947D01*
X144191988Y-76404460D01*
X124206700Y-76404460D01*
X124206700Y-76009500D01*
X124105140Y-75498924D01*
X123815922Y-75066078D01*
X123795453Y-75045609D01*
X143494931Y-75045609D01*
X143539659Y-75674253D01*
X143694179Y-76047299D01*
X143940540Y-76153012D01*
X144846053Y-75247500D01*
X145348947Y-75247500D01*
X146254460Y-76153012D01*
X146500821Y-76047299D01*
X146700069Y-75449391D01*
X146693646Y-75359107D01*
X157611646Y-75359107D01*
X157745974Y-75684205D01*
X157994487Y-75933152D01*
X158319350Y-76068047D01*
X158671107Y-76068354D01*
X158996205Y-75934026D01*
X159245152Y-75685513D01*
X159380047Y-75360650D01*
X159380354Y-75008893D01*
X159246026Y-74683795D01*
X158997513Y-74434848D01*
X158672650Y-74299953D01*
X158320893Y-74299646D01*
X157995795Y-74433974D01*
X157746848Y-74682487D01*
X157611953Y-75007350D01*
X157611646Y-75359107D01*
X146693646Y-75359107D01*
X146655341Y-74820747D01*
X146500821Y-74447701D01*
X146254460Y-74341988D01*
X145348947Y-75247500D01*
X144846053Y-75247500D01*
X143940540Y-74341988D01*
X143694179Y-74447701D01*
X143494931Y-75045609D01*
X123795453Y-75045609D01*
X122486132Y-73736288D01*
X124127159Y-73736288D01*
X124297227Y-74037033D01*
X125085316Y-74323956D01*
X125923215Y-74287449D01*
X126527773Y-74037033D01*
X126697841Y-73736288D01*
X125412500Y-72450947D01*
X124127159Y-73736288D01*
X122486132Y-73736288D01*
X121170508Y-72420664D01*
X121170986Y-71872316D01*
X123288044Y-71872316D01*
X123324551Y-72710215D01*
X123574967Y-73314773D01*
X123875712Y-73484841D01*
X125161053Y-72199500D01*
X125663947Y-72199500D01*
X126949288Y-73484841D01*
X127250033Y-73314773D01*
X127504071Y-72617007D01*
X129653935Y-72617007D01*
X129974213Y-73392139D01*
X130566741Y-73985703D01*
X131341313Y-74307333D01*
X132180007Y-74308065D01*
X132706457Y-74090540D01*
X144191988Y-74090540D01*
X145097500Y-74996053D01*
X145802318Y-74291234D01*
X191773026Y-74291234D01*
X192013698Y-74873705D01*
X192458951Y-75319736D01*
X193041001Y-75561424D01*
X193671234Y-75561974D01*
X194253705Y-75321302D01*
X194699736Y-74876049D01*
X194941424Y-74293999D01*
X194941974Y-73663766D01*
X194701302Y-73081295D01*
X194597689Y-72977500D01*
X204461855Y-72977500D01*
X204461855Y-74977500D01*
X204502591Y-75193992D01*
X204630537Y-75392826D01*
X204825761Y-75526217D01*
X205057500Y-75573145D01*
X207057500Y-75573145D01*
X207273992Y-75532409D01*
X207472826Y-75404463D01*
X207606217Y-75209239D01*
X207653145Y-74977500D01*
X207653145Y-72977500D01*
X207612409Y-72761008D01*
X207484463Y-72562174D01*
X207289239Y-72428783D01*
X207057500Y-72381855D01*
X205057500Y-72381855D01*
X204841008Y-72422591D01*
X204642174Y-72550537D01*
X204508783Y-72745761D01*
X204461855Y-72977500D01*
X194597689Y-72977500D01*
X194256049Y-72635264D01*
X193673999Y-72393576D01*
X193043766Y-72393026D01*
X192461295Y-72633698D01*
X192015264Y-73078951D01*
X191773576Y-73661001D01*
X191773026Y-74291234D01*
X145802318Y-74291234D01*
X146003012Y-74090540D01*
X145897299Y-73844179D01*
X145299391Y-73644931D01*
X144670747Y-73689659D01*
X144297701Y-73844179D01*
X144191988Y-74090540D01*
X132706457Y-74090540D01*
X132955139Y-73987787D01*
X133548703Y-73395259D01*
X133870333Y-72620687D01*
X133871065Y-71781993D01*
X133550787Y-71006861D01*
X132982420Y-70437500D01*
X143501855Y-70437500D01*
X143501855Y-72437500D01*
X143542591Y-72653992D01*
X143670537Y-72852826D01*
X143865761Y-72986217D01*
X144097500Y-73033145D01*
X146097500Y-73033145D01*
X146313992Y-72992409D01*
X146512826Y-72864463D01*
X146646217Y-72669239D01*
X146693145Y-72437500D01*
X146693145Y-70787107D01*
X157611646Y-70787107D01*
X157745974Y-71112205D01*
X157994487Y-71361152D01*
X158319350Y-71496047D01*
X158671107Y-71496354D01*
X158996205Y-71362026D01*
X159245152Y-71113513D01*
X159380047Y-70788650D01*
X159380354Y-70436893D01*
X159246026Y-70111795D01*
X158997513Y-69862848D01*
X158672650Y-69727953D01*
X158320893Y-69727646D01*
X157995795Y-69861974D01*
X157746848Y-70110487D01*
X157611953Y-70435350D01*
X157611646Y-70787107D01*
X146693145Y-70787107D01*
X146693145Y-70437500D01*
X146652409Y-70221008D01*
X146524463Y-70022174D01*
X146329239Y-69888783D01*
X146097500Y-69841855D01*
X144097500Y-69841855D01*
X143881008Y-69882591D01*
X143682174Y-70010537D01*
X143548783Y-70205761D01*
X143501855Y-70437500D01*
X132982420Y-70437500D01*
X132958259Y-70413297D01*
X132183687Y-70091667D01*
X131344993Y-70090935D01*
X130569861Y-70411213D01*
X129976297Y-71003741D01*
X129654667Y-71778313D01*
X129653935Y-72617007D01*
X127504071Y-72617007D01*
X127536956Y-72526684D01*
X127500449Y-71688785D01*
X127250033Y-71084227D01*
X126949288Y-70914159D01*
X125663947Y-72199500D01*
X125161053Y-72199500D01*
X123875712Y-70914159D01*
X123574967Y-71084227D01*
X123288044Y-71872316D01*
X121170986Y-71872316D01*
X121171065Y-71781993D01*
X120850787Y-71006861D01*
X120507239Y-70662712D01*
X124127159Y-70662712D01*
X125412500Y-71948053D01*
X126697841Y-70662712D01*
X126527773Y-70361967D01*
X125739684Y-70075044D01*
X124901785Y-70111551D01*
X124297227Y-70361967D01*
X124127159Y-70662712D01*
X120507239Y-70662712D01*
X120258259Y-70413297D01*
X119483687Y-70091667D01*
X118644993Y-70090935D01*
X117869861Y-70411213D01*
X117276297Y-71003741D01*
X116954667Y-71778313D01*
X116953935Y-72617007D01*
X114820336Y-72617007D01*
X114821065Y-71781993D01*
X114500787Y-71006861D01*
X113908259Y-70413297D01*
X113133687Y-70091667D01*
X112294993Y-70090935D01*
X111519861Y-70411213D01*
X110926297Y-71003741D01*
X110604667Y-71778313D01*
X110603935Y-72617007D01*
X102234200Y-72617007D01*
X102234200Y-68755107D01*
X157611646Y-68755107D01*
X157745974Y-69080205D01*
X157994487Y-69329152D01*
X158319350Y-69464047D01*
X158671107Y-69464354D01*
X158996205Y-69330026D01*
X159245152Y-69081513D01*
X159380047Y-68756650D01*
X159380264Y-68506920D01*
X160278087Y-68506920D01*
X160465586Y-68960705D01*
X160812469Y-69308193D01*
X161265925Y-69496485D01*
X161756920Y-69496913D01*
X162210705Y-69309414D01*
X162340786Y-69179559D01*
X162367239Y-69243422D01*
X162531577Y-69407761D01*
X162746295Y-69496700D01*
X163188650Y-69496700D01*
X163334700Y-69350650D01*
X163334700Y-68440300D01*
X163690300Y-68440300D01*
X163690300Y-69350650D01*
X163836350Y-69496700D01*
X164278705Y-69496700D01*
X164493423Y-69407761D01*
X164657761Y-69243422D01*
X164746700Y-69028704D01*
X164746700Y-68586350D01*
X164600650Y-68440300D01*
X163690300Y-68440300D01*
X163334700Y-68440300D01*
X163314700Y-68440300D01*
X163314700Y-68144572D01*
X172324658Y-68144572D01*
X172374895Y-68632990D01*
X172465155Y-68850893D01*
X172675354Y-68913199D01*
X173326053Y-68262500D01*
X172675354Y-67611801D01*
X172465155Y-67674107D01*
X172324658Y-68144572D01*
X163314700Y-68144572D01*
X163314700Y-68084700D01*
X163334700Y-68084700D01*
X163334700Y-67174350D01*
X163690300Y-67174350D01*
X163690300Y-68084700D01*
X164600650Y-68084700D01*
X164746700Y-67938650D01*
X164746700Y-67496296D01*
X164690392Y-67360354D01*
X172926801Y-67360354D01*
X173577500Y-68011053D01*
X173591643Y-67996911D01*
X173843090Y-68248358D01*
X173828947Y-68262500D01*
X173843090Y-68276643D01*
X173591643Y-68528090D01*
X173577500Y-68513947D01*
X172926801Y-69164646D01*
X172989107Y-69374845D01*
X173459572Y-69515342D01*
X173947990Y-69465105D01*
X174165893Y-69374845D01*
X174228198Y-69164648D01*
X174340528Y-69276978D01*
X174417979Y-69199527D01*
X174500537Y-69327826D01*
X174695761Y-69461217D01*
X174927500Y-69508145D01*
X176227500Y-69508145D01*
X176443992Y-69467409D01*
X176642826Y-69339463D01*
X176776217Y-69144239D01*
X176823145Y-68912500D01*
X176823145Y-67940235D01*
X176959107Y-67940354D01*
X177284205Y-67806026D01*
X177533152Y-67557513D01*
X177668047Y-67232650D01*
X177668354Y-66880893D01*
X177534026Y-66555795D01*
X177285513Y-66306848D01*
X176960650Y-66171953D01*
X176652086Y-66171684D01*
X176652242Y-65992500D01*
X191761855Y-65992500D01*
X191761855Y-67992500D01*
X191802591Y-68208992D01*
X191930537Y-68407826D01*
X192125761Y-68541217D01*
X192357500Y-68588145D01*
X194357500Y-68588145D01*
X194573992Y-68547409D01*
X194772826Y-68419463D01*
X194906217Y-68224239D01*
X194953145Y-67992500D01*
X194953145Y-65992500D01*
X194912409Y-65776008D01*
X194784463Y-65577174D01*
X194589239Y-65443783D01*
X194357500Y-65396855D01*
X192357500Y-65396855D01*
X192141008Y-65437591D01*
X191942174Y-65565537D01*
X191808783Y-65760761D01*
X191761855Y-65992500D01*
X176652242Y-65992500D01*
X176652354Y-65864893D01*
X176518026Y-65539795D01*
X176269513Y-65290848D01*
X175944650Y-65155953D01*
X175592893Y-65155646D01*
X175267795Y-65289974D01*
X175018848Y-65538487D01*
X174883953Y-65863350D01*
X174883646Y-66215107D01*
X175017974Y-66540205D01*
X175266487Y-66789152D01*
X175591350Y-66924047D01*
X175899914Y-66924316D01*
X175899833Y-67016855D01*
X174927500Y-67016855D01*
X174711008Y-67057591D01*
X174512174Y-67185537D01*
X174417136Y-67324630D01*
X174340528Y-67248022D01*
X174228198Y-67360352D01*
X174165893Y-67150155D01*
X173695428Y-67009658D01*
X173207010Y-67059895D01*
X172989107Y-67150155D01*
X172926801Y-67360354D01*
X164690392Y-67360354D01*
X164657761Y-67281578D01*
X164493423Y-67117239D01*
X164278705Y-67028300D01*
X163836350Y-67028300D01*
X163690300Y-67174350D01*
X163334700Y-67174350D01*
X163188650Y-67028300D01*
X162746295Y-67028300D01*
X162531577Y-67117239D01*
X162367239Y-67281578D01*
X162340832Y-67345331D01*
X162212531Y-67216807D01*
X161759075Y-67028515D01*
X161268080Y-67028087D01*
X160814295Y-67215586D01*
X160466807Y-67562469D01*
X160278515Y-68015925D01*
X160278087Y-68506920D01*
X159380264Y-68506920D01*
X159380354Y-68404893D01*
X159246026Y-68079795D01*
X158997513Y-67830848D01*
X158672650Y-67695953D01*
X158320893Y-67695646D01*
X157995795Y-67829974D01*
X157746848Y-68078487D01*
X157611953Y-68403350D01*
X157611646Y-68755107D01*
X102234200Y-68755107D01*
X102234200Y-66723107D01*
X157611646Y-66723107D01*
X157745974Y-67048205D01*
X157994487Y-67297152D01*
X158319350Y-67432047D01*
X158671107Y-67432354D01*
X158996205Y-67298026D01*
X159245152Y-67049513D01*
X159380047Y-66724650D01*
X159380354Y-66372893D01*
X159246026Y-66047795D01*
X158997513Y-65798848D01*
X158672650Y-65663953D01*
X158320893Y-65663646D01*
X157995795Y-65797974D01*
X157746848Y-66046487D01*
X157611953Y-66371350D01*
X157611646Y-66723107D01*
X102234200Y-66723107D01*
X102234200Y-65199107D01*
X171835646Y-65199107D01*
X171969974Y-65524205D01*
X172218487Y-65773152D01*
X172543350Y-65908047D01*
X172895107Y-65908354D01*
X173220205Y-65774026D01*
X173227795Y-65766449D01*
X173234487Y-65773152D01*
X173559350Y-65908047D01*
X173911107Y-65908354D01*
X174236205Y-65774026D01*
X174485152Y-65525513D01*
X174620047Y-65200650D01*
X174620354Y-64848893D01*
X174566725Y-64719101D01*
X180581066Y-64719101D01*
X180785581Y-65214065D01*
X181163943Y-65593088D01*
X181658549Y-65798466D01*
X182194101Y-65798934D01*
X182689065Y-65594419D01*
X183068088Y-65216057D01*
X183209884Y-64874572D01*
X197184658Y-64874572D01*
X197234895Y-65362990D01*
X197325155Y-65580893D01*
X197535352Y-65643198D01*
X197423022Y-65755528D01*
X197500473Y-65832979D01*
X197372174Y-65915537D01*
X197238783Y-66110761D01*
X197191855Y-66342500D01*
X197191855Y-67642500D01*
X197232591Y-67858992D01*
X197360537Y-68057826D01*
X197555761Y-68191217D01*
X197787500Y-68238145D01*
X199087500Y-68238145D01*
X199303992Y-68197409D01*
X199502826Y-68069463D01*
X199636217Y-67874239D01*
X199683145Y-67642500D01*
X199683145Y-67306234D01*
X204473026Y-67306234D01*
X204713698Y-67888705D01*
X205158951Y-68334736D01*
X205741001Y-68576424D01*
X206371234Y-68576974D01*
X206953705Y-68336302D01*
X207399736Y-67891049D01*
X207641424Y-67308999D01*
X207641974Y-66678766D01*
X207401302Y-66096295D01*
X206956049Y-65650264D01*
X206373999Y-65408576D01*
X205743766Y-65408026D01*
X205161295Y-65648698D01*
X204715264Y-66093951D01*
X204473576Y-66676001D01*
X204473026Y-67306234D01*
X199683145Y-67306234D01*
X199683145Y-66342500D01*
X199642409Y-66126008D01*
X199514463Y-65927174D01*
X199375370Y-65832136D01*
X199451978Y-65755528D01*
X199339648Y-65643198D01*
X199549845Y-65580893D01*
X199690342Y-65110428D01*
X199640105Y-64622010D01*
X199549845Y-64404107D01*
X199339646Y-64341801D01*
X198688947Y-64992500D01*
X198703090Y-65006643D01*
X198451643Y-65258090D01*
X198437500Y-65243947D01*
X198423358Y-65258090D01*
X198171911Y-65006643D01*
X198186053Y-64992500D01*
X197535354Y-64341801D01*
X197325155Y-64404107D01*
X197184658Y-64874572D01*
X183209884Y-64874572D01*
X183273466Y-64721451D01*
X183273799Y-64339460D01*
X192451988Y-64339460D01*
X192557701Y-64585821D01*
X193155609Y-64785069D01*
X193784253Y-64740341D01*
X194157299Y-64585821D01*
X194263012Y-64339460D01*
X194013907Y-64090354D01*
X197786801Y-64090354D01*
X198437500Y-64741053D01*
X198839093Y-64339460D01*
X205151988Y-64339460D01*
X205257701Y-64585821D01*
X205855609Y-64785069D01*
X206484253Y-64740341D01*
X206857299Y-64585821D01*
X206963012Y-64339460D01*
X206057500Y-63433947D01*
X205151988Y-64339460D01*
X198839093Y-64339460D01*
X199088199Y-64090354D01*
X199025893Y-63880155D01*
X198555428Y-63739658D01*
X198067010Y-63789895D01*
X197849107Y-63880155D01*
X197786801Y-64090354D01*
X194013907Y-64090354D01*
X193357500Y-63433947D01*
X192451988Y-64339460D01*
X183273799Y-64339460D01*
X183273934Y-64185899D01*
X183069419Y-63690935D01*
X182691057Y-63311912D01*
X182196451Y-63106534D01*
X181660899Y-63106066D01*
X181165935Y-63310581D01*
X180786912Y-63688943D01*
X180581534Y-64183549D01*
X180581066Y-64719101D01*
X174566725Y-64719101D01*
X174486026Y-64523795D01*
X174237513Y-64274848D01*
X173912650Y-64139953D01*
X173560893Y-64139646D01*
X173235795Y-64273974D01*
X173228205Y-64281551D01*
X173221513Y-64274848D01*
X172896650Y-64139953D01*
X172544893Y-64139646D01*
X172219795Y-64273974D01*
X171970848Y-64522487D01*
X171835953Y-64847350D01*
X171835646Y-65199107D01*
X102234200Y-65199107D01*
X102234200Y-60277500D01*
X103496855Y-60277500D01*
X103496855Y-62277500D01*
X103537591Y-62493992D01*
X103665537Y-62692826D01*
X103860761Y-62826217D01*
X104092500Y-62873145D01*
X106092500Y-62873145D01*
X106308992Y-62832409D01*
X106507826Y-62704463D01*
X106641217Y-62509239D01*
X106656360Y-62434460D01*
X107996988Y-62434460D01*
X108102701Y-62680821D01*
X108700609Y-62880069D01*
X109329253Y-62835341D01*
X109702299Y-62680821D01*
X109808012Y-62434460D01*
X108902500Y-61528947D01*
X107996988Y-62434460D01*
X106656360Y-62434460D01*
X106688145Y-62277500D01*
X106688145Y-61075609D01*
X107299931Y-61075609D01*
X107344659Y-61704253D01*
X107499179Y-62077299D01*
X107745540Y-62183012D01*
X108651053Y-61277500D01*
X109153947Y-61277500D01*
X110059460Y-62183012D01*
X110305821Y-62077299D01*
X110467798Y-61591234D01*
X111128026Y-61591234D01*
X111368698Y-62173705D01*
X111813951Y-62619736D01*
X112396001Y-62861424D01*
X113026234Y-62861974D01*
X113608705Y-62621302D01*
X114054736Y-62176049D01*
X114296424Y-61593999D01*
X114296974Y-60963766D01*
X114056302Y-60381295D01*
X113952689Y-60277500D01*
X118736855Y-60277500D01*
X118736855Y-62277500D01*
X118777591Y-62493992D01*
X118905537Y-62692826D01*
X119100761Y-62826217D01*
X119332500Y-62873145D01*
X121332500Y-62873145D01*
X121548992Y-62832409D01*
X121747826Y-62704463D01*
X121881217Y-62509239D01*
X121896360Y-62434460D01*
X123236988Y-62434460D01*
X123342701Y-62680821D01*
X123940609Y-62880069D01*
X124569253Y-62835341D01*
X124942299Y-62680821D01*
X125048012Y-62434460D01*
X124142500Y-61528947D01*
X123236988Y-62434460D01*
X121896360Y-62434460D01*
X121928145Y-62277500D01*
X121928145Y-61075609D01*
X122539931Y-61075609D01*
X122584659Y-61704253D01*
X122739179Y-62077299D01*
X122985540Y-62183012D01*
X123891053Y-61277500D01*
X124393947Y-61277500D01*
X125299460Y-62183012D01*
X125545821Y-62077299D01*
X125707798Y-61591234D01*
X126368026Y-61591234D01*
X126608698Y-62173705D01*
X127053951Y-62619736D01*
X127636001Y-62861424D01*
X128266234Y-62861974D01*
X128848705Y-62621302D01*
X129294736Y-62176049D01*
X129536424Y-61593999D01*
X129536974Y-60963766D01*
X129296302Y-60381295D01*
X129192689Y-60277500D01*
X133976855Y-60277500D01*
X133976855Y-62277500D01*
X134017591Y-62493992D01*
X134145537Y-62692826D01*
X134340761Y-62826217D01*
X134572500Y-62873145D01*
X136572500Y-62873145D01*
X136788992Y-62832409D01*
X136987826Y-62704463D01*
X137121217Y-62509239D01*
X137136360Y-62434460D01*
X138476988Y-62434460D01*
X138582701Y-62680821D01*
X139180609Y-62880069D01*
X139809253Y-62835341D01*
X140182299Y-62680821D01*
X140288012Y-62434460D01*
X139382500Y-61528947D01*
X138476988Y-62434460D01*
X137136360Y-62434460D01*
X137168145Y-62277500D01*
X137168145Y-61075609D01*
X137779931Y-61075609D01*
X137824659Y-61704253D01*
X137979179Y-62077299D01*
X138225540Y-62183012D01*
X139131053Y-61277500D01*
X139633947Y-61277500D01*
X140539460Y-62183012D01*
X140785821Y-62077299D01*
X140947798Y-61591234D01*
X141608026Y-61591234D01*
X141848698Y-62173705D01*
X142293951Y-62619736D01*
X142876001Y-62861424D01*
X143506234Y-62861974D01*
X144088705Y-62621302D01*
X144534736Y-62176049D01*
X144776424Y-61593999D01*
X144776974Y-60963766D01*
X144536302Y-60381295D01*
X144432689Y-60277500D01*
X149216855Y-60277500D01*
X149216855Y-62277500D01*
X149257591Y-62493992D01*
X149385537Y-62692826D01*
X149580761Y-62826217D01*
X149812500Y-62873145D01*
X151812500Y-62873145D01*
X152028992Y-62832409D01*
X152227826Y-62704463D01*
X152361217Y-62509239D01*
X152376360Y-62434460D01*
X153716988Y-62434460D01*
X153822701Y-62680821D01*
X154420609Y-62880069D01*
X155049253Y-62835341D01*
X155422299Y-62680821D01*
X155528012Y-62434460D01*
X154622500Y-61528947D01*
X153716988Y-62434460D01*
X152376360Y-62434460D01*
X152408145Y-62277500D01*
X152408145Y-61075609D01*
X153019931Y-61075609D01*
X153064659Y-61704253D01*
X153219179Y-62077299D01*
X153465540Y-62183012D01*
X154371053Y-61277500D01*
X154873947Y-61277500D01*
X155779460Y-62183012D01*
X156025821Y-62077299D01*
X156187798Y-61591234D01*
X156848026Y-61591234D01*
X157088698Y-62173705D01*
X157533951Y-62619736D01*
X158116001Y-62861424D01*
X158746234Y-62861974D01*
X159328705Y-62621302D01*
X159774736Y-62176049D01*
X160016424Y-61593999D01*
X160016974Y-60963766D01*
X159776302Y-60381295D01*
X159672689Y-60277500D01*
X164456855Y-60277500D01*
X164456855Y-62277500D01*
X164497591Y-62493992D01*
X164625537Y-62692826D01*
X164820761Y-62826217D01*
X165052500Y-62873145D01*
X167052500Y-62873145D01*
X167268992Y-62832409D01*
X167467826Y-62704463D01*
X167601217Y-62509239D01*
X167616360Y-62434460D01*
X168956988Y-62434460D01*
X169062701Y-62680821D01*
X169660609Y-62880069D01*
X170289253Y-62835341D01*
X170662299Y-62680821D01*
X170768012Y-62434460D01*
X169862500Y-61528947D01*
X168956988Y-62434460D01*
X167616360Y-62434460D01*
X167648145Y-62277500D01*
X167648145Y-61075609D01*
X168259931Y-61075609D01*
X168304659Y-61704253D01*
X168459179Y-62077299D01*
X168705540Y-62183012D01*
X169611053Y-61277500D01*
X170113947Y-61277500D01*
X171019460Y-62183012D01*
X171265821Y-62077299D01*
X171427798Y-61591234D01*
X172088026Y-61591234D01*
X172328698Y-62173705D01*
X172773951Y-62619736D01*
X173356001Y-62861424D01*
X173986234Y-62861974D01*
X174568705Y-62621302D01*
X175011678Y-62179101D01*
X178041066Y-62179101D01*
X178245581Y-62674065D01*
X178623943Y-63053088D01*
X179118549Y-63258466D01*
X179654101Y-63258934D01*
X180149065Y-63054419D01*
X180223003Y-62980609D01*
X191754931Y-62980609D01*
X191799659Y-63609253D01*
X191954179Y-63982299D01*
X192200540Y-64088012D01*
X193106053Y-63182500D01*
X193608947Y-63182500D01*
X194514460Y-64088012D01*
X194760821Y-63982299D01*
X194960069Y-63384391D01*
X194931340Y-62980609D01*
X204454931Y-62980609D01*
X204499659Y-63609253D01*
X204654179Y-63982299D01*
X204900540Y-64088012D01*
X205806053Y-63182500D01*
X206308947Y-63182500D01*
X207214460Y-64088012D01*
X207460821Y-63982299D01*
X207660069Y-63384391D01*
X207615341Y-62755747D01*
X207460821Y-62382701D01*
X207214460Y-62276988D01*
X206308947Y-63182500D01*
X205806053Y-63182500D01*
X204900540Y-62276988D01*
X204654179Y-62382701D01*
X204454931Y-62980609D01*
X194931340Y-62980609D01*
X194915341Y-62755747D01*
X194760821Y-62382701D01*
X194514460Y-62276988D01*
X193608947Y-63182500D01*
X193106053Y-63182500D01*
X192200540Y-62276988D01*
X191954179Y-62382701D01*
X191754931Y-62980609D01*
X180223003Y-62980609D01*
X180528088Y-62676057D01*
X180733466Y-62181451D01*
X180733602Y-62025540D01*
X192451988Y-62025540D01*
X193357500Y-62931053D01*
X194263012Y-62025540D01*
X205151988Y-62025540D01*
X206057500Y-62931053D01*
X206963012Y-62025540D01*
X206857299Y-61779179D01*
X206259391Y-61579931D01*
X205630747Y-61624659D01*
X205257701Y-61779179D01*
X205151988Y-62025540D01*
X194263012Y-62025540D01*
X194157299Y-61779179D01*
X193559391Y-61579931D01*
X192930747Y-61624659D01*
X192557701Y-61779179D01*
X192451988Y-62025540D01*
X180733602Y-62025540D01*
X180733934Y-61645899D01*
X180529419Y-61150935D01*
X180345156Y-60966350D01*
X197203300Y-60966350D01*
X197203300Y-61408705D01*
X197292239Y-61623423D01*
X197456578Y-61787761D01*
X197671296Y-61876700D01*
X198113650Y-61876700D01*
X198259700Y-61730650D01*
X198259700Y-60820300D01*
X198615300Y-60820300D01*
X198615300Y-61730650D01*
X198761350Y-61876700D01*
X199203704Y-61876700D01*
X199418422Y-61787761D01*
X199582761Y-61623423D01*
X199671700Y-61408705D01*
X199671700Y-60966350D01*
X199525650Y-60820300D01*
X198615300Y-60820300D01*
X198259700Y-60820300D01*
X197349350Y-60820300D01*
X197203300Y-60966350D01*
X180345156Y-60966350D01*
X180151057Y-60771912D01*
X179656451Y-60566534D01*
X179120899Y-60566066D01*
X178625935Y-60770581D01*
X178246912Y-61148943D01*
X178041534Y-61643549D01*
X178041066Y-62179101D01*
X175011678Y-62179101D01*
X175014736Y-62176049D01*
X175256424Y-61593999D01*
X175256974Y-60963766D01*
X175016302Y-60381295D01*
X174571049Y-59935264D01*
X173988999Y-59693576D01*
X173358766Y-59693026D01*
X172776295Y-59933698D01*
X172330264Y-60378951D01*
X172088576Y-60961001D01*
X172088026Y-61591234D01*
X171427798Y-61591234D01*
X171465069Y-61479391D01*
X171420341Y-60850747D01*
X171265821Y-60477701D01*
X171019460Y-60371988D01*
X170113947Y-61277500D01*
X169611053Y-61277500D01*
X168705540Y-60371988D01*
X168459179Y-60477701D01*
X168259931Y-61075609D01*
X167648145Y-61075609D01*
X167648145Y-60277500D01*
X167618611Y-60120540D01*
X168956988Y-60120540D01*
X169862500Y-61026053D01*
X170768012Y-60120540D01*
X170662299Y-59874179D01*
X170064391Y-59674931D01*
X169435747Y-59719659D01*
X169062701Y-59874179D01*
X168956988Y-60120540D01*
X167618611Y-60120540D01*
X167607409Y-60061008D01*
X167479463Y-59862174D01*
X167284239Y-59728783D01*
X167052500Y-59681855D01*
X165052500Y-59681855D01*
X164836008Y-59722591D01*
X164637174Y-59850537D01*
X164503783Y-60045761D01*
X164456855Y-60277500D01*
X159672689Y-60277500D01*
X159331049Y-59935264D01*
X158748999Y-59693576D01*
X158118766Y-59693026D01*
X157536295Y-59933698D01*
X157090264Y-60378951D01*
X156848576Y-60961001D01*
X156848026Y-61591234D01*
X156187798Y-61591234D01*
X156225069Y-61479391D01*
X156180341Y-60850747D01*
X156025821Y-60477701D01*
X155779460Y-60371988D01*
X154873947Y-61277500D01*
X154371053Y-61277500D01*
X153465540Y-60371988D01*
X153219179Y-60477701D01*
X153019931Y-61075609D01*
X152408145Y-61075609D01*
X152408145Y-60277500D01*
X152378611Y-60120540D01*
X153716988Y-60120540D01*
X154622500Y-61026053D01*
X155528012Y-60120540D01*
X155422299Y-59874179D01*
X154824391Y-59674931D01*
X154195747Y-59719659D01*
X153822701Y-59874179D01*
X153716988Y-60120540D01*
X152378611Y-60120540D01*
X152367409Y-60061008D01*
X152239463Y-59862174D01*
X152044239Y-59728783D01*
X151812500Y-59681855D01*
X149812500Y-59681855D01*
X149596008Y-59722591D01*
X149397174Y-59850537D01*
X149263783Y-60045761D01*
X149216855Y-60277500D01*
X144432689Y-60277500D01*
X144091049Y-59935264D01*
X143508999Y-59693576D01*
X142878766Y-59693026D01*
X142296295Y-59933698D01*
X141850264Y-60378951D01*
X141608576Y-60961001D01*
X141608026Y-61591234D01*
X140947798Y-61591234D01*
X140985069Y-61479391D01*
X140940341Y-60850747D01*
X140785821Y-60477701D01*
X140539460Y-60371988D01*
X139633947Y-61277500D01*
X139131053Y-61277500D01*
X138225540Y-60371988D01*
X137979179Y-60477701D01*
X137779931Y-61075609D01*
X137168145Y-61075609D01*
X137168145Y-60277500D01*
X137138611Y-60120540D01*
X138476988Y-60120540D01*
X139382500Y-61026053D01*
X140288012Y-60120540D01*
X140182299Y-59874179D01*
X139584391Y-59674931D01*
X138955747Y-59719659D01*
X138582701Y-59874179D01*
X138476988Y-60120540D01*
X137138611Y-60120540D01*
X137127409Y-60061008D01*
X136999463Y-59862174D01*
X136804239Y-59728783D01*
X136572500Y-59681855D01*
X134572500Y-59681855D01*
X134356008Y-59722591D01*
X134157174Y-59850537D01*
X134023783Y-60045761D01*
X133976855Y-60277500D01*
X129192689Y-60277500D01*
X128851049Y-59935264D01*
X128268999Y-59693576D01*
X127638766Y-59693026D01*
X127056295Y-59933698D01*
X126610264Y-60378951D01*
X126368576Y-60961001D01*
X126368026Y-61591234D01*
X125707798Y-61591234D01*
X125745069Y-61479391D01*
X125700341Y-60850747D01*
X125545821Y-60477701D01*
X125299460Y-60371988D01*
X124393947Y-61277500D01*
X123891053Y-61277500D01*
X122985540Y-60371988D01*
X122739179Y-60477701D01*
X122539931Y-61075609D01*
X121928145Y-61075609D01*
X121928145Y-60277500D01*
X121898611Y-60120540D01*
X123236988Y-60120540D01*
X124142500Y-61026053D01*
X125048012Y-60120540D01*
X124942299Y-59874179D01*
X124344391Y-59674931D01*
X123715747Y-59719659D01*
X123342701Y-59874179D01*
X123236988Y-60120540D01*
X121898611Y-60120540D01*
X121887409Y-60061008D01*
X121759463Y-59862174D01*
X121564239Y-59728783D01*
X121332500Y-59681855D01*
X119332500Y-59681855D01*
X119116008Y-59722591D01*
X118917174Y-59850537D01*
X118783783Y-60045761D01*
X118736855Y-60277500D01*
X113952689Y-60277500D01*
X113611049Y-59935264D01*
X113028999Y-59693576D01*
X112398766Y-59693026D01*
X111816295Y-59933698D01*
X111370264Y-60378951D01*
X111128576Y-60961001D01*
X111128026Y-61591234D01*
X110467798Y-61591234D01*
X110505069Y-61479391D01*
X110460341Y-60850747D01*
X110305821Y-60477701D01*
X110059460Y-60371988D01*
X109153947Y-61277500D01*
X108651053Y-61277500D01*
X107745540Y-60371988D01*
X107499179Y-60477701D01*
X107299931Y-61075609D01*
X106688145Y-61075609D01*
X106688145Y-60277500D01*
X106658611Y-60120540D01*
X107996988Y-60120540D01*
X108902500Y-61026053D01*
X109808012Y-60120540D01*
X109702299Y-59874179D01*
X109104391Y-59674931D01*
X108475747Y-59719659D01*
X108102701Y-59874179D01*
X107996988Y-60120540D01*
X106658611Y-60120540D01*
X106647409Y-60061008D01*
X106519463Y-59862174D01*
X106324239Y-59728783D01*
X106092500Y-59681855D01*
X104092500Y-59681855D01*
X103876008Y-59722591D01*
X103677174Y-59850537D01*
X103543783Y-60045761D01*
X103496855Y-60277500D01*
X102234200Y-60277500D01*
X102234200Y-59639101D01*
X180581066Y-59639101D01*
X180785581Y-60134065D01*
X181163943Y-60513088D01*
X181658549Y-60718466D01*
X182194101Y-60718934D01*
X182689065Y-60514419D01*
X183068088Y-60136057D01*
X183254870Y-59686234D01*
X191773026Y-59686234D01*
X192013698Y-60268705D01*
X192458951Y-60714736D01*
X193041001Y-60956424D01*
X193671234Y-60956974D01*
X194253705Y-60716302D01*
X194699736Y-60271049D01*
X194941424Y-59688999D01*
X194941974Y-59058766D01*
X194870969Y-58886920D01*
X197203087Y-58886920D01*
X197390586Y-59340705D01*
X197520441Y-59470786D01*
X197456578Y-59497239D01*
X197292239Y-59661577D01*
X197203300Y-59876295D01*
X197203300Y-60318650D01*
X197349350Y-60464700D01*
X198259700Y-60464700D01*
X198259700Y-60444700D01*
X198615300Y-60444700D01*
X198615300Y-60464700D01*
X199525650Y-60464700D01*
X199671700Y-60318650D01*
X199671700Y-59876295D01*
X199582761Y-59661577D01*
X199418422Y-59497239D01*
X199354669Y-59470832D01*
X199483193Y-59342531D01*
X199671485Y-58889075D01*
X199671913Y-58398080D01*
X199661344Y-58372500D01*
X204461855Y-58372500D01*
X204461855Y-60372500D01*
X204502591Y-60588992D01*
X204630537Y-60787826D01*
X204825761Y-60921217D01*
X205057500Y-60968145D01*
X207057500Y-60968145D01*
X207273992Y-60927409D01*
X207472826Y-60799463D01*
X207606217Y-60604239D01*
X207653145Y-60372500D01*
X207653145Y-58372500D01*
X207612409Y-58156008D01*
X207484463Y-57957174D01*
X207289239Y-57823783D01*
X207057500Y-57776855D01*
X205057500Y-57776855D01*
X204841008Y-57817591D01*
X204642174Y-57945537D01*
X204508783Y-58140761D01*
X204461855Y-58372500D01*
X199661344Y-58372500D01*
X199484414Y-57944295D01*
X199137531Y-57596807D01*
X198684075Y-57408515D01*
X198193080Y-57408087D01*
X197739295Y-57595586D01*
X197391807Y-57942469D01*
X197203515Y-58395925D01*
X197203087Y-58886920D01*
X194870969Y-58886920D01*
X194701302Y-58476295D01*
X194256049Y-58030264D01*
X193673999Y-57788576D01*
X193043766Y-57788026D01*
X192461295Y-58028698D01*
X192015264Y-58473951D01*
X191773576Y-59056001D01*
X191773026Y-59686234D01*
X183254870Y-59686234D01*
X183273466Y-59641451D01*
X183273934Y-59105899D01*
X183069419Y-58610935D01*
X182691057Y-58231912D01*
X182196451Y-58026534D01*
X181660899Y-58026066D01*
X181165935Y-58230581D01*
X180786912Y-58608943D01*
X180581534Y-59103549D01*
X180581066Y-59639101D01*
X102234200Y-59639101D01*
X102234200Y-56514200D01*
X211201800Y-56514200D01*
X211201800Y-127635800D01*
M02*
