G04 #@! TF.FileFunction,Copper,L2,Inr,Signal*
%FSLAX46Y46*%
G04 Gerber Fmt 4.6, Leading zero omitted, Abs format (unit mm)*
G04 Created by KiCad (PCBNEW 4.0.4-stable) date Mon Oct  3 10:35:52 2016*
%MOMM*%
%LPD*%
G01*
G04 APERTURE LIST*
%ADD10C,0.100000*%
%ADD11C,6.400000*%
%ADD12R,1.300000X1.300000*%
%ADD13C,1.300000*%
%ADD14C,2.000000*%
%ADD15R,2.000000X2.000000*%
%ADD16C,1.524000*%
%ADD17C,3.048000*%
%ADD18C,0.600000*%
%ADD19C,3.000000*%
%ADD20C,1.500000*%
%ADD21C,0.152400*%
G04 APERTURE END LIST*
D10*
D11*
X145288000Y-87884000D03*
D12*
X140017500Y-115252500D03*
D13*
X142017500Y-115252500D03*
D12*
X146304000Y-115316000D03*
D13*
X148304000Y-115316000D03*
D12*
X134937500Y-77787500D03*
D13*
X132937500Y-77787500D03*
D12*
X115887500Y-77787500D03*
D13*
X117887500Y-77787500D03*
D12*
X163512500Y-68262500D03*
D13*
X161512500Y-68262500D03*
D12*
X175577500Y-68262500D03*
D13*
X173577500Y-68262500D03*
D12*
X198437500Y-66992500D03*
D13*
X198437500Y-64992500D03*
D12*
X200977500Y-117157500D03*
D13*
X200977500Y-119157500D03*
D12*
X198437500Y-60642500D03*
D13*
X198437500Y-58642500D03*
D12*
X200977500Y-123507500D03*
D13*
X200977500Y-125507500D03*
D14*
X105727500Y-99377500D03*
D15*
X105727500Y-91757500D03*
D14*
X105727500Y-95567500D03*
X105727500Y-114617500D03*
D15*
X105727500Y-106997500D03*
D14*
X105727500Y-110807500D03*
X120967500Y-114617500D03*
D15*
X120967500Y-106997500D03*
D14*
X120967500Y-110807500D03*
X120967500Y-99377500D03*
D15*
X120967500Y-91757500D03*
D14*
X120967500Y-95567500D03*
X105727500Y-84137500D03*
D15*
X105727500Y-76517500D03*
D14*
X105727500Y-80327500D03*
X136207500Y-99377500D03*
D15*
X136207500Y-91757500D03*
D14*
X136207500Y-95567500D03*
X158432500Y-61277500D03*
D15*
X150812500Y-61277500D03*
D14*
X154622500Y-61277500D03*
X173672500Y-61277500D03*
D15*
X166052500Y-61277500D03*
D14*
X169862500Y-61277500D03*
X145097500Y-79057500D03*
D15*
X145097500Y-71437500D03*
D14*
X145097500Y-75247500D03*
X143192500Y-61277500D03*
D15*
X135572500Y-61277500D03*
D14*
X139382500Y-61277500D03*
X127952500Y-61277500D03*
D15*
X120332500Y-61277500D03*
D14*
X124142500Y-61277500D03*
X112712500Y-61277500D03*
D15*
X105092500Y-61277500D03*
D14*
X108902500Y-61277500D03*
X193357500Y-117792500D03*
D15*
X193357500Y-125412500D03*
D14*
X193357500Y-121602500D03*
X206057500Y-110807500D03*
D15*
X206057500Y-103187500D03*
D14*
X206057500Y-106997500D03*
X193357500Y-103187500D03*
D15*
X193357500Y-110807500D03*
D14*
X193357500Y-106997500D03*
X206057500Y-66992500D03*
D15*
X206057500Y-59372500D03*
D14*
X206057500Y-63182500D03*
X193357500Y-73977500D03*
D15*
X193357500Y-81597500D03*
D14*
X193357500Y-77787500D03*
X206057500Y-81597500D03*
D15*
X206057500Y-73977500D03*
D14*
X206057500Y-77787500D03*
X193357500Y-59372500D03*
D15*
X193357500Y-66992500D03*
D14*
X193357500Y-63182500D03*
X206057500Y-96202500D03*
D15*
X206057500Y-88582500D03*
D14*
X206057500Y-92392500D03*
X193357500Y-88582500D03*
D15*
X193357500Y-96202500D03*
D14*
X193357500Y-92392500D03*
X206057500Y-125412500D03*
D15*
X206057500Y-117792500D03*
D14*
X206057500Y-121602500D03*
X140017500Y-122872500D03*
D15*
X147637500Y-122872500D03*
D14*
X143827500Y-122872500D03*
D16*
X125412500Y-82232500D03*
X122872500Y-79692500D03*
X122872500Y-84772500D03*
X179387500Y-61912500D03*
X181927500Y-64452500D03*
X181927500Y-59372500D03*
D17*
X113347500Y-122999500D03*
X122237500Y-122999500D03*
X131127500Y-122999500D03*
X131762500Y-72199500D03*
X125412500Y-72199500D03*
X119062500Y-72199500D03*
X112712500Y-72199500D03*
D11*
X145288000Y-106172000D03*
D18*
X174752000Y-73660000D03*
X136652000Y-116840000D03*
X158496000Y-75184000D03*
X158496000Y-66548000D03*
X158496000Y-70612000D03*
X158496000Y-68580000D03*
X176784000Y-67056000D03*
X175768000Y-66040000D03*
X172720000Y-65024000D03*
X173736000Y-65024000D03*
D19*
X120967500Y-91757500D02*
X136207500Y-91757500D01*
X112712500Y-72199500D02*
X112712500Y-98742500D01*
X112712500Y-98742500D02*
X120967500Y-106997500D01*
X112712500Y-72199500D02*
X112712500Y-83502500D01*
X112712500Y-83502500D02*
X120967500Y-91757500D01*
X112712500Y-72199500D02*
X112712500Y-100012500D01*
X112712500Y-100012500D02*
X105727500Y-106997500D01*
X112712500Y-72199500D02*
X112712500Y-84772500D01*
X112712500Y-84772500D02*
X105727500Y-91757500D01*
X112712500Y-72199500D02*
X110045500Y-72199500D01*
X110045500Y-72199500D02*
X105727500Y-76517500D01*
D20*
X112712500Y-72199500D02*
X112712500Y-74612500D01*
X112712500Y-74612500D02*
X115887500Y-77787500D01*
D19*
X143827500Y-122872500D02*
X143827500Y-121983500D01*
X143827500Y-121983500D02*
X141732000Y-119888000D01*
X141732000Y-119888000D02*
X139700000Y-119888000D01*
X139700000Y-119888000D02*
X136652000Y-116840000D01*
X145097500Y-79057500D02*
X150050500Y-79057500D01*
X150050500Y-79057500D02*
X158432500Y-70675500D01*
X179387500Y-61912500D02*
X181927500Y-59372500D01*
X173672500Y-61277500D02*
X178752500Y-61277500D01*
X178752500Y-61277500D02*
X179387500Y-61912500D01*
X180340000Y-57912000D02*
X177038000Y-57912000D01*
X177038000Y-57912000D02*
X173672500Y-61277500D01*
X156464000Y-57912000D02*
X180340000Y-57912000D01*
X180340000Y-57912000D02*
X180467000Y-57912000D01*
X180467000Y-57912000D02*
X181927500Y-59372500D01*
X131572000Y-57912000D02*
X116078000Y-57912000D01*
X116078000Y-57912000D02*
X112712500Y-61277500D01*
X146558000Y-57912000D02*
X131572000Y-57912000D01*
X131572000Y-57912000D02*
X131318000Y-57912000D01*
X131318000Y-57912000D02*
X127952500Y-61277500D01*
X158432500Y-61277500D02*
X158432500Y-59880500D01*
X146558000Y-57912000D02*
X143192500Y-61277500D01*
X156464000Y-57912000D02*
X146558000Y-57912000D01*
X158432500Y-59880500D02*
X156464000Y-57912000D01*
X158432500Y-61277500D02*
X158432500Y-70675500D01*
X158432500Y-70675500D02*
X158432500Y-75120500D01*
X158432500Y-75120500D02*
X158496000Y-75184000D01*
D20*
X158496000Y-70612000D02*
X158496000Y-75184000D01*
X158432500Y-61277500D02*
X158432500Y-66484500D01*
X158432500Y-66484500D02*
X158496000Y-66548000D01*
X158496000Y-68580000D02*
X158496000Y-70612000D01*
X158432500Y-65024000D02*
X158432500Y-68516500D01*
X158432500Y-68516500D02*
X158496000Y-68580000D01*
X158432500Y-61277500D02*
X158432500Y-65024000D01*
X158432500Y-65024000D02*
X158432500Y-65182500D01*
X158432500Y-65182500D02*
X161512500Y-68262500D01*
X200977500Y-117157500D02*
X205422500Y-117157500D01*
X205422500Y-117157500D02*
X206057500Y-117792500D01*
D19*
X209296000Y-99949000D02*
X209296000Y-114554000D01*
X209296000Y-114554000D02*
X206057500Y-117792500D01*
X209296000Y-85344000D02*
X209296000Y-99949000D01*
X209296000Y-99949000D02*
X206057500Y-103187500D01*
X209296000Y-70739000D02*
X209296000Y-85344000D01*
X209296000Y-85344000D02*
X206057500Y-88582500D01*
X206057500Y-59372500D02*
X207200500Y-59372500D01*
X207200500Y-59372500D02*
X209296000Y-61468000D01*
X209296000Y-61468000D02*
X209296000Y-70739000D01*
X209296000Y-70739000D02*
X206057500Y-73977500D01*
X189484000Y-99060000D02*
X189484000Y-113919000D01*
X189484000Y-113919000D02*
X193357500Y-117792500D01*
X189484000Y-83820000D02*
X189484000Y-99060000D01*
X189484000Y-99060000D02*
X189484000Y-99314000D01*
X189484000Y-99314000D02*
X193357500Y-103187500D01*
X189484000Y-70104000D02*
X189484000Y-83820000D01*
X189484000Y-83820000D02*
X189484000Y-84709000D01*
X189484000Y-84709000D02*
X193357500Y-88582500D01*
X193357500Y-59372500D02*
X191579500Y-59372500D01*
X191579500Y-59372500D02*
X189484000Y-61468000D01*
X189484000Y-61468000D02*
X189484000Y-70104000D01*
X189484000Y-70104000D02*
X193357500Y-73977500D01*
D21*
G36*
X139115800Y-75215564D02*
X139115800Y-101568436D01*
X122904436Y-117779800D01*
X105187564Y-117779800D01*
X102692200Y-115284436D01*
X102692200Y-114931234D01*
X104143026Y-114931234D01*
X104383698Y-115513705D01*
X104828951Y-115959736D01*
X105411001Y-116201424D01*
X106041234Y-116201974D01*
X106623705Y-115961302D01*
X107069736Y-115516049D01*
X107311424Y-114933999D01*
X107311426Y-114931234D01*
X119383026Y-114931234D01*
X119623698Y-115513705D01*
X120068951Y-115959736D01*
X120651001Y-116201424D01*
X121281234Y-116201974D01*
X121863705Y-115961302D01*
X122309736Y-115516049D01*
X122551424Y-114933999D01*
X122551974Y-114303766D01*
X122311302Y-113721295D01*
X121866049Y-113275264D01*
X121283999Y-113033576D01*
X120653766Y-113033026D01*
X120071295Y-113273698D01*
X119625264Y-113718951D01*
X119383576Y-114301001D01*
X119383026Y-114931234D01*
X107311426Y-114931234D01*
X107311974Y-114303766D01*
X107071302Y-113721295D01*
X106626049Y-113275264D01*
X106043999Y-113033576D01*
X105413766Y-113033026D01*
X104831295Y-113273698D01*
X104385264Y-113718951D01*
X104143576Y-114301001D01*
X104143026Y-114931234D01*
X102692200Y-114931234D01*
X102692200Y-111121234D01*
X104143026Y-111121234D01*
X104383698Y-111703705D01*
X104828951Y-112149736D01*
X105411001Y-112391424D01*
X106041234Y-112391974D01*
X106623705Y-112151302D01*
X107069736Y-111706049D01*
X107311424Y-111123999D01*
X107311426Y-111121234D01*
X119383026Y-111121234D01*
X119623698Y-111703705D01*
X120068951Y-112149736D01*
X120651001Y-112391424D01*
X121281234Y-112391974D01*
X121863705Y-112151302D01*
X122309736Y-111706049D01*
X122551424Y-111123999D01*
X122551974Y-110493766D01*
X122311302Y-109911295D01*
X121866049Y-109465264D01*
X121283999Y-109223576D01*
X120653766Y-109223026D01*
X120071295Y-109463698D01*
X119625264Y-109908951D01*
X119383576Y-110491001D01*
X119383026Y-111121234D01*
X107311426Y-111121234D01*
X107311974Y-110493766D01*
X107071302Y-109911295D01*
X106626049Y-109465264D01*
X106043999Y-109223576D01*
X105413766Y-109223026D01*
X104831295Y-109463698D01*
X104385264Y-109908951D01*
X104143576Y-110491001D01*
X104143026Y-111121234D01*
X102692200Y-111121234D01*
X102692200Y-107321350D01*
X104143300Y-107321350D01*
X104143300Y-108113705D01*
X104232239Y-108328423D01*
X104396578Y-108492761D01*
X104611296Y-108581700D01*
X105403650Y-108581700D01*
X105549700Y-108435650D01*
X105549700Y-107175300D01*
X105905300Y-107175300D01*
X105905300Y-108435650D01*
X106051350Y-108581700D01*
X106843704Y-108581700D01*
X107058422Y-108492761D01*
X107222761Y-108328423D01*
X107311700Y-108113705D01*
X107311700Y-107321350D01*
X119383300Y-107321350D01*
X119383300Y-108113705D01*
X119472239Y-108328423D01*
X119636578Y-108492761D01*
X119851296Y-108581700D01*
X120643650Y-108581700D01*
X120789700Y-108435650D01*
X120789700Y-107175300D01*
X121145300Y-107175300D01*
X121145300Y-108435650D01*
X121291350Y-108581700D01*
X122083704Y-108581700D01*
X122298422Y-108492761D01*
X122462761Y-108328423D01*
X122551700Y-108113705D01*
X122551700Y-107321350D01*
X122405650Y-107175300D01*
X121145300Y-107175300D01*
X120789700Y-107175300D01*
X119529350Y-107175300D01*
X119383300Y-107321350D01*
X107311700Y-107321350D01*
X107165650Y-107175300D01*
X105905300Y-107175300D01*
X105549700Y-107175300D01*
X104289350Y-107175300D01*
X104143300Y-107321350D01*
X102692200Y-107321350D01*
X102692200Y-105881295D01*
X104143300Y-105881295D01*
X104143300Y-106673650D01*
X104289350Y-106819700D01*
X105549700Y-106819700D01*
X105549700Y-105559350D01*
X105905300Y-105559350D01*
X105905300Y-106819700D01*
X107165650Y-106819700D01*
X107311700Y-106673650D01*
X107311700Y-105881295D01*
X119383300Y-105881295D01*
X119383300Y-106673650D01*
X119529350Y-106819700D01*
X120789700Y-106819700D01*
X120789700Y-105559350D01*
X121145300Y-105559350D01*
X121145300Y-106819700D01*
X122405650Y-106819700D01*
X122551700Y-106673650D01*
X122551700Y-105881295D01*
X122462761Y-105666577D01*
X122298422Y-105502239D01*
X122083704Y-105413300D01*
X121291350Y-105413300D01*
X121145300Y-105559350D01*
X120789700Y-105559350D01*
X120643650Y-105413300D01*
X119851296Y-105413300D01*
X119636578Y-105502239D01*
X119472239Y-105666577D01*
X119383300Y-105881295D01*
X107311700Y-105881295D01*
X107222761Y-105666577D01*
X107058422Y-105502239D01*
X106843704Y-105413300D01*
X106051350Y-105413300D01*
X105905300Y-105559350D01*
X105549700Y-105559350D01*
X105403650Y-105413300D01*
X104611296Y-105413300D01*
X104396578Y-105502239D01*
X104232239Y-105666577D01*
X104143300Y-105881295D01*
X102692200Y-105881295D01*
X102692200Y-99691234D01*
X104143026Y-99691234D01*
X104383698Y-100273705D01*
X104828951Y-100719736D01*
X105411001Y-100961424D01*
X106041234Y-100961974D01*
X106623705Y-100721302D01*
X107069736Y-100276049D01*
X107311424Y-99693999D01*
X107311426Y-99691234D01*
X119383026Y-99691234D01*
X119623698Y-100273705D01*
X120068951Y-100719736D01*
X120651001Y-100961424D01*
X121281234Y-100961974D01*
X121863705Y-100721302D01*
X122309736Y-100276049D01*
X122551424Y-99693999D01*
X122551426Y-99691234D01*
X134623026Y-99691234D01*
X134863698Y-100273705D01*
X135308951Y-100719736D01*
X135891001Y-100961424D01*
X136521234Y-100961974D01*
X137103705Y-100721302D01*
X137549736Y-100276049D01*
X137791424Y-99693999D01*
X137791974Y-99063766D01*
X137551302Y-98481295D01*
X137106049Y-98035264D01*
X136523999Y-97793576D01*
X135893766Y-97793026D01*
X135311295Y-98033698D01*
X134865264Y-98478951D01*
X134623576Y-99061001D01*
X134623026Y-99691234D01*
X122551426Y-99691234D01*
X122551974Y-99063766D01*
X122311302Y-98481295D01*
X121866049Y-98035264D01*
X121283999Y-97793576D01*
X120653766Y-97793026D01*
X120071295Y-98033698D01*
X119625264Y-98478951D01*
X119383576Y-99061001D01*
X119383026Y-99691234D01*
X107311426Y-99691234D01*
X107311974Y-99063766D01*
X107071302Y-98481295D01*
X106626049Y-98035264D01*
X106043999Y-97793576D01*
X105413766Y-97793026D01*
X104831295Y-98033698D01*
X104385264Y-98478951D01*
X104143576Y-99061001D01*
X104143026Y-99691234D01*
X102692200Y-99691234D01*
X102692200Y-95881234D01*
X104143026Y-95881234D01*
X104383698Y-96463705D01*
X104828951Y-96909736D01*
X105411001Y-97151424D01*
X106041234Y-97151974D01*
X106623705Y-96911302D01*
X107069736Y-96466049D01*
X107311424Y-95883999D01*
X107311426Y-95881234D01*
X119383026Y-95881234D01*
X119623698Y-96463705D01*
X120068951Y-96909736D01*
X120651001Y-97151424D01*
X121281234Y-97151974D01*
X121863705Y-96911302D01*
X122309736Y-96466049D01*
X122551424Y-95883999D01*
X122551426Y-95881234D01*
X134623026Y-95881234D01*
X134863698Y-96463705D01*
X135308951Y-96909736D01*
X135891001Y-97151424D01*
X136521234Y-97151974D01*
X137103705Y-96911302D01*
X137549736Y-96466049D01*
X137791424Y-95883999D01*
X137791974Y-95253766D01*
X137551302Y-94671295D01*
X137106049Y-94225264D01*
X136523999Y-93983576D01*
X135893766Y-93983026D01*
X135311295Y-94223698D01*
X134865264Y-94668951D01*
X134623576Y-95251001D01*
X134623026Y-95881234D01*
X122551426Y-95881234D01*
X122551974Y-95253766D01*
X122311302Y-94671295D01*
X121866049Y-94225264D01*
X121283999Y-93983576D01*
X120653766Y-93983026D01*
X120071295Y-94223698D01*
X119625264Y-94668951D01*
X119383576Y-95251001D01*
X119383026Y-95881234D01*
X107311426Y-95881234D01*
X107311974Y-95253766D01*
X107071302Y-94671295D01*
X106626049Y-94225264D01*
X106043999Y-93983576D01*
X105413766Y-93983026D01*
X104831295Y-94223698D01*
X104385264Y-94668951D01*
X104143576Y-95251001D01*
X104143026Y-95881234D01*
X102692200Y-95881234D01*
X102692200Y-92081350D01*
X104143300Y-92081350D01*
X104143300Y-92873705D01*
X104232239Y-93088423D01*
X104396578Y-93252761D01*
X104611296Y-93341700D01*
X105403650Y-93341700D01*
X105549700Y-93195650D01*
X105549700Y-91935300D01*
X105905300Y-91935300D01*
X105905300Y-93195650D01*
X106051350Y-93341700D01*
X106843704Y-93341700D01*
X107058422Y-93252761D01*
X107222761Y-93088423D01*
X107311700Y-92873705D01*
X107311700Y-92081350D01*
X119383300Y-92081350D01*
X119383300Y-92873705D01*
X119472239Y-93088423D01*
X119636578Y-93252761D01*
X119851296Y-93341700D01*
X120643650Y-93341700D01*
X120789700Y-93195650D01*
X120789700Y-91935300D01*
X121145300Y-91935300D01*
X121145300Y-93195650D01*
X121291350Y-93341700D01*
X122083704Y-93341700D01*
X122298422Y-93252761D01*
X122462761Y-93088423D01*
X122551700Y-92873705D01*
X122551700Y-92081350D01*
X134623300Y-92081350D01*
X134623300Y-92873705D01*
X134712239Y-93088423D01*
X134876578Y-93252761D01*
X135091296Y-93341700D01*
X135883650Y-93341700D01*
X136029700Y-93195650D01*
X136029700Y-91935300D01*
X136385300Y-91935300D01*
X136385300Y-93195650D01*
X136531350Y-93341700D01*
X137323704Y-93341700D01*
X137538422Y-93252761D01*
X137702761Y-93088423D01*
X137791700Y-92873705D01*
X137791700Y-92081350D01*
X137645650Y-91935300D01*
X136385300Y-91935300D01*
X136029700Y-91935300D01*
X134769350Y-91935300D01*
X134623300Y-92081350D01*
X122551700Y-92081350D01*
X122405650Y-91935300D01*
X121145300Y-91935300D01*
X120789700Y-91935300D01*
X119529350Y-91935300D01*
X119383300Y-92081350D01*
X107311700Y-92081350D01*
X107165650Y-91935300D01*
X105905300Y-91935300D01*
X105549700Y-91935300D01*
X104289350Y-91935300D01*
X104143300Y-92081350D01*
X102692200Y-92081350D01*
X102692200Y-90641295D01*
X104143300Y-90641295D01*
X104143300Y-91433650D01*
X104289350Y-91579700D01*
X105549700Y-91579700D01*
X105549700Y-90319350D01*
X105905300Y-90319350D01*
X105905300Y-91579700D01*
X107165650Y-91579700D01*
X107311700Y-91433650D01*
X107311700Y-90641295D01*
X119383300Y-90641295D01*
X119383300Y-91433650D01*
X119529350Y-91579700D01*
X120789700Y-91579700D01*
X120789700Y-90319350D01*
X121145300Y-90319350D01*
X121145300Y-91579700D01*
X122405650Y-91579700D01*
X122551700Y-91433650D01*
X122551700Y-90641295D01*
X134623300Y-90641295D01*
X134623300Y-91433650D01*
X134769350Y-91579700D01*
X136029700Y-91579700D01*
X136029700Y-90319350D01*
X136385300Y-90319350D01*
X136385300Y-91579700D01*
X137645650Y-91579700D01*
X137791700Y-91433650D01*
X137791700Y-90641295D01*
X137702761Y-90426577D01*
X137538422Y-90262239D01*
X137323704Y-90173300D01*
X136531350Y-90173300D01*
X136385300Y-90319350D01*
X136029700Y-90319350D01*
X135883650Y-90173300D01*
X135091296Y-90173300D01*
X134876578Y-90262239D01*
X134712239Y-90426577D01*
X134623300Y-90641295D01*
X122551700Y-90641295D01*
X122462761Y-90426577D01*
X122298422Y-90262239D01*
X122083704Y-90173300D01*
X121291350Y-90173300D01*
X121145300Y-90319350D01*
X120789700Y-90319350D01*
X120643650Y-90173300D01*
X119851296Y-90173300D01*
X119636578Y-90262239D01*
X119472239Y-90426577D01*
X119383300Y-90641295D01*
X107311700Y-90641295D01*
X107222761Y-90426577D01*
X107058422Y-90262239D01*
X106843704Y-90173300D01*
X106051350Y-90173300D01*
X105905300Y-90319350D01*
X105549700Y-90319350D01*
X105403650Y-90173300D01*
X104611296Y-90173300D01*
X104396578Y-90262239D01*
X104232239Y-90426577D01*
X104143300Y-90641295D01*
X102692200Y-90641295D01*
X102692200Y-84451234D01*
X104143026Y-84451234D01*
X104383698Y-85033705D01*
X104828951Y-85479736D01*
X105411001Y-85721424D01*
X106041234Y-85721974D01*
X106623705Y-85481302D01*
X107066678Y-85039101D01*
X121526066Y-85039101D01*
X121730581Y-85534065D01*
X122108943Y-85913088D01*
X122603549Y-86118466D01*
X123139101Y-86118934D01*
X123634065Y-85914419D01*
X124013088Y-85536057D01*
X124218466Y-85041451D01*
X124218934Y-84505899D01*
X124014419Y-84010935D01*
X123636057Y-83631912D01*
X123141451Y-83426534D01*
X122605899Y-83426066D01*
X122110935Y-83630581D01*
X121731912Y-84008943D01*
X121526534Y-84503549D01*
X121526066Y-85039101D01*
X107066678Y-85039101D01*
X107069736Y-85036049D01*
X107311424Y-84453999D01*
X107311974Y-83823766D01*
X107071302Y-83241295D01*
X106626049Y-82795264D01*
X106043999Y-82553576D01*
X105413766Y-82553026D01*
X104831295Y-82793698D01*
X104385264Y-83238951D01*
X104143576Y-83821001D01*
X104143026Y-84451234D01*
X102692200Y-84451234D01*
X102692200Y-82499101D01*
X124066066Y-82499101D01*
X124270581Y-82994065D01*
X124648943Y-83373088D01*
X125143549Y-83578466D01*
X125679101Y-83578934D01*
X126174065Y-83374419D01*
X126553088Y-82996057D01*
X126758466Y-82501451D01*
X126758934Y-81965899D01*
X126554419Y-81470935D01*
X126176057Y-81091912D01*
X125681451Y-80886534D01*
X125145899Y-80886066D01*
X124650935Y-81090581D01*
X124271912Y-81468943D01*
X124066534Y-81963549D01*
X124066066Y-82499101D01*
X102692200Y-82499101D01*
X102692200Y-80641234D01*
X104143026Y-80641234D01*
X104383698Y-81223705D01*
X104828951Y-81669736D01*
X105411001Y-81911424D01*
X106041234Y-81911974D01*
X106623705Y-81671302D01*
X107069736Y-81226049D01*
X107311424Y-80643999D01*
X107311974Y-80013766D01*
X107289387Y-79959101D01*
X121526066Y-79959101D01*
X121730581Y-80454065D01*
X122108943Y-80833088D01*
X122603549Y-81038466D01*
X123139101Y-81038934D01*
X123634065Y-80834419D01*
X124013088Y-80456057D01*
X124218466Y-79961451D01*
X124218934Y-79425899D01*
X124014419Y-78930935D01*
X123636057Y-78551912D01*
X123141451Y-78346534D01*
X122605899Y-78346066D01*
X122110935Y-78550581D01*
X121731912Y-78928943D01*
X121526534Y-79423549D01*
X121526066Y-79959101D01*
X107289387Y-79959101D01*
X107071302Y-79431295D01*
X106626049Y-78985264D01*
X106043999Y-78743576D01*
X105413766Y-78743026D01*
X104831295Y-78983698D01*
X104385264Y-79428951D01*
X104143576Y-80011001D01*
X104143026Y-80641234D01*
X102692200Y-80641234D01*
X102692200Y-78111350D01*
X114653300Y-78111350D01*
X114653300Y-78553704D01*
X114742239Y-78768422D01*
X114906577Y-78932761D01*
X115121295Y-79021700D01*
X115563650Y-79021700D01*
X115709700Y-78875650D01*
X115709700Y-77965300D01*
X114799350Y-77965300D01*
X114653300Y-78111350D01*
X102692200Y-78111350D01*
X102692200Y-76841350D01*
X104143300Y-76841350D01*
X104143300Y-77633705D01*
X104232239Y-77848423D01*
X104396578Y-78012761D01*
X104611296Y-78101700D01*
X105403650Y-78101700D01*
X105549700Y-77955650D01*
X105549700Y-76695300D01*
X105905300Y-76695300D01*
X105905300Y-77955650D01*
X106051350Y-78101700D01*
X106843704Y-78101700D01*
X107058422Y-78012761D01*
X107222761Y-77848423D01*
X107311700Y-77633705D01*
X107311700Y-77021296D01*
X114653300Y-77021296D01*
X114653300Y-77463650D01*
X114799350Y-77609700D01*
X115709700Y-77609700D01*
X115709700Y-76699350D01*
X116065300Y-76699350D01*
X116065300Y-77609700D01*
X116085300Y-77609700D01*
X116085300Y-77965300D01*
X116065300Y-77965300D01*
X116065300Y-78875650D01*
X116211350Y-79021700D01*
X116653705Y-79021700D01*
X116868423Y-78932761D01*
X117032761Y-78768422D01*
X117059168Y-78704669D01*
X117187469Y-78833193D01*
X117640925Y-79021485D01*
X118131920Y-79021913D01*
X118585705Y-78834414D01*
X118933193Y-78487531D01*
X119121485Y-78034075D01*
X119121486Y-78031920D01*
X131703087Y-78031920D01*
X131890586Y-78485705D01*
X132237469Y-78833193D01*
X132690925Y-79021485D01*
X133181920Y-79021913D01*
X133635705Y-78834414D01*
X133765387Y-78704958D01*
X133860537Y-78852826D01*
X134055761Y-78986217D01*
X134287500Y-79033145D01*
X135587500Y-79033145D01*
X135803992Y-78992409D01*
X136002826Y-78864463D01*
X136136217Y-78669239D01*
X136183145Y-78437500D01*
X136183145Y-77137500D01*
X136142409Y-76921008D01*
X136014463Y-76722174D01*
X135819239Y-76588783D01*
X135587500Y-76541855D01*
X134287500Y-76541855D01*
X134071008Y-76582591D01*
X133872174Y-76710537D01*
X133764145Y-76868642D01*
X133637531Y-76741807D01*
X133184075Y-76553515D01*
X132693080Y-76553087D01*
X132239295Y-76740586D01*
X131891807Y-77087469D01*
X131703515Y-77540925D01*
X131703087Y-78031920D01*
X119121486Y-78031920D01*
X119121913Y-77543080D01*
X118934414Y-77089295D01*
X118587531Y-76741807D01*
X118134075Y-76553515D01*
X117643080Y-76553087D01*
X117189295Y-76740586D01*
X117059214Y-76870441D01*
X117032761Y-76806578D01*
X116868423Y-76642239D01*
X116653705Y-76553300D01*
X116211350Y-76553300D01*
X116065300Y-76699350D01*
X115709700Y-76699350D01*
X115563650Y-76553300D01*
X115121295Y-76553300D01*
X114906577Y-76642239D01*
X114742239Y-76806578D01*
X114653300Y-77021296D01*
X107311700Y-77021296D01*
X107311700Y-76841350D01*
X107165650Y-76695300D01*
X105905300Y-76695300D01*
X105549700Y-76695300D01*
X104289350Y-76695300D01*
X104143300Y-76841350D01*
X102692200Y-76841350D01*
X102692200Y-75401295D01*
X104143300Y-75401295D01*
X104143300Y-76193650D01*
X104289350Y-76339700D01*
X105549700Y-76339700D01*
X105549700Y-75079350D01*
X105905300Y-75079350D01*
X105905300Y-76339700D01*
X107165650Y-76339700D01*
X107311700Y-76193650D01*
X107311700Y-75401295D01*
X107222761Y-75186577D01*
X107058422Y-75022239D01*
X106843704Y-74933300D01*
X106051350Y-74933300D01*
X105905300Y-75079350D01*
X105549700Y-75079350D01*
X105403650Y-74933300D01*
X104611296Y-74933300D01*
X104396578Y-75022239D01*
X104232239Y-75186577D01*
X104143300Y-75401295D01*
X102692200Y-75401295D01*
X102692200Y-75215564D01*
X104171476Y-73736288D01*
X111427159Y-73736288D01*
X111597227Y-74037033D01*
X112385316Y-74323956D01*
X113223215Y-74287449D01*
X113827773Y-74037033D01*
X113997841Y-73736288D01*
X112712500Y-72450947D01*
X111427159Y-73736288D01*
X104171476Y-73736288D01*
X106035448Y-71872316D01*
X110588044Y-71872316D01*
X110624551Y-72710215D01*
X110874967Y-73314773D01*
X111175712Y-73484841D01*
X112461053Y-72199500D01*
X112963947Y-72199500D01*
X114249288Y-73484841D01*
X114550033Y-73314773D01*
X114804071Y-72617007D01*
X116953935Y-72617007D01*
X117274213Y-73392139D01*
X117866741Y-73985703D01*
X118641313Y-74307333D01*
X119480007Y-74308065D01*
X120255139Y-73987787D01*
X120848703Y-73395259D01*
X121170333Y-72620687D01*
X121170336Y-72617007D01*
X123303935Y-72617007D01*
X123624213Y-73392139D01*
X124216741Y-73985703D01*
X124991313Y-74307333D01*
X125830007Y-74308065D01*
X126605139Y-73987787D01*
X127198703Y-73395259D01*
X127520333Y-72620687D01*
X127520336Y-72617007D01*
X129653935Y-72617007D01*
X129974213Y-73392139D01*
X130566741Y-73985703D01*
X131341313Y-74307333D01*
X132180007Y-74308065D01*
X132955139Y-73987787D01*
X133548703Y-73395259D01*
X133870333Y-72620687D01*
X133871065Y-71781993D01*
X133550787Y-71006861D01*
X132958259Y-70413297D01*
X132183687Y-70091667D01*
X131344993Y-70090935D01*
X130569861Y-70411213D01*
X129976297Y-71003741D01*
X129654667Y-71778313D01*
X129653935Y-72617007D01*
X127520336Y-72617007D01*
X127521065Y-71781993D01*
X127200787Y-71006861D01*
X126608259Y-70413297D01*
X125833687Y-70091667D01*
X124994993Y-70090935D01*
X124219861Y-70411213D01*
X123626297Y-71003741D01*
X123304667Y-71778313D01*
X123303935Y-72617007D01*
X121170336Y-72617007D01*
X121171065Y-71781993D01*
X120850787Y-71006861D01*
X120258259Y-70413297D01*
X119483687Y-70091667D01*
X118644993Y-70090935D01*
X117869861Y-70411213D01*
X117276297Y-71003741D01*
X116954667Y-71778313D01*
X116953935Y-72617007D01*
X114804071Y-72617007D01*
X114836956Y-72526684D01*
X114800449Y-71688785D01*
X114550033Y-71084227D01*
X114249288Y-70914159D01*
X112963947Y-72199500D01*
X112461053Y-72199500D01*
X111175712Y-70914159D01*
X110874967Y-71084227D01*
X110588044Y-71872316D01*
X106035448Y-71872316D01*
X107245052Y-70662712D01*
X111427159Y-70662712D01*
X112712500Y-71948053D01*
X113997841Y-70662712D01*
X113827773Y-70361967D01*
X113039684Y-70075044D01*
X112201785Y-70111551D01*
X111597227Y-70361967D01*
X111427159Y-70662712D01*
X107245052Y-70662712D01*
X108743564Y-69164200D01*
X133064436Y-69164200D01*
X139115800Y-75215564D01*
X139115800Y-75215564D01*
G37*
X139115800Y-75215564D02*
X139115800Y-101568436D01*
X122904436Y-117779800D01*
X105187564Y-117779800D01*
X102692200Y-115284436D01*
X102692200Y-114931234D01*
X104143026Y-114931234D01*
X104383698Y-115513705D01*
X104828951Y-115959736D01*
X105411001Y-116201424D01*
X106041234Y-116201974D01*
X106623705Y-115961302D01*
X107069736Y-115516049D01*
X107311424Y-114933999D01*
X107311426Y-114931234D01*
X119383026Y-114931234D01*
X119623698Y-115513705D01*
X120068951Y-115959736D01*
X120651001Y-116201424D01*
X121281234Y-116201974D01*
X121863705Y-115961302D01*
X122309736Y-115516049D01*
X122551424Y-114933999D01*
X122551974Y-114303766D01*
X122311302Y-113721295D01*
X121866049Y-113275264D01*
X121283999Y-113033576D01*
X120653766Y-113033026D01*
X120071295Y-113273698D01*
X119625264Y-113718951D01*
X119383576Y-114301001D01*
X119383026Y-114931234D01*
X107311426Y-114931234D01*
X107311974Y-114303766D01*
X107071302Y-113721295D01*
X106626049Y-113275264D01*
X106043999Y-113033576D01*
X105413766Y-113033026D01*
X104831295Y-113273698D01*
X104385264Y-113718951D01*
X104143576Y-114301001D01*
X104143026Y-114931234D01*
X102692200Y-114931234D01*
X102692200Y-111121234D01*
X104143026Y-111121234D01*
X104383698Y-111703705D01*
X104828951Y-112149736D01*
X105411001Y-112391424D01*
X106041234Y-112391974D01*
X106623705Y-112151302D01*
X107069736Y-111706049D01*
X107311424Y-111123999D01*
X107311426Y-111121234D01*
X119383026Y-111121234D01*
X119623698Y-111703705D01*
X120068951Y-112149736D01*
X120651001Y-112391424D01*
X121281234Y-112391974D01*
X121863705Y-112151302D01*
X122309736Y-111706049D01*
X122551424Y-111123999D01*
X122551974Y-110493766D01*
X122311302Y-109911295D01*
X121866049Y-109465264D01*
X121283999Y-109223576D01*
X120653766Y-109223026D01*
X120071295Y-109463698D01*
X119625264Y-109908951D01*
X119383576Y-110491001D01*
X119383026Y-111121234D01*
X107311426Y-111121234D01*
X107311974Y-110493766D01*
X107071302Y-109911295D01*
X106626049Y-109465264D01*
X106043999Y-109223576D01*
X105413766Y-109223026D01*
X104831295Y-109463698D01*
X104385264Y-109908951D01*
X104143576Y-110491001D01*
X104143026Y-111121234D01*
X102692200Y-111121234D01*
X102692200Y-107321350D01*
X104143300Y-107321350D01*
X104143300Y-108113705D01*
X104232239Y-108328423D01*
X104396578Y-108492761D01*
X104611296Y-108581700D01*
X105403650Y-108581700D01*
X105549700Y-108435650D01*
X105549700Y-107175300D01*
X105905300Y-107175300D01*
X105905300Y-108435650D01*
X106051350Y-108581700D01*
X106843704Y-108581700D01*
X107058422Y-108492761D01*
X107222761Y-108328423D01*
X107311700Y-108113705D01*
X107311700Y-107321350D01*
X119383300Y-107321350D01*
X119383300Y-108113705D01*
X119472239Y-108328423D01*
X119636578Y-108492761D01*
X119851296Y-108581700D01*
X120643650Y-108581700D01*
X120789700Y-108435650D01*
X120789700Y-107175300D01*
X121145300Y-107175300D01*
X121145300Y-108435650D01*
X121291350Y-108581700D01*
X122083704Y-108581700D01*
X122298422Y-108492761D01*
X122462761Y-108328423D01*
X122551700Y-108113705D01*
X122551700Y-107321350D01*
X122405650Y-107175300D01*
X121145300Y-107175300D01*
X120789700Y-107175300D01*
X119529350Y-107175300D01*
X119383300Y-107321350D01*
X107311700Y-107321350D01*
X107165650Y-107175300D01*
X105905300Y-107175300D01*
X105549700Y-107175300D01*
X104289350Y-107175300D01*
X104143300Y-107321350D01*
X102692200Y-107321350D01*
X102692200Y-105881295D01*
X104143300Y-105881295D01*
X104143300Y-106673650D01*
X104289350Y-106819700D01*
X105549700Y-106819700D01*
X105549700Y-105559350D01*
X105905300Y-105559350D01*
X105905300Y-106819700D01*
X107165650Y-106819700D01*
X107311700Y-106673650D01*
X107311700Y-105881295D01*
X119383300Y-105881295D01*
X119383300Y-106673650D01*
X119529350Y-106819700D01*
X120789700Y-106819700D01*
X120789700Y-105559350D01*
X121145300Y-105559350D01*
X121145300Y-106819700D01*
X122405650Y-106819700D01*
X122551700Y-106673650D01*
X122551700Y-105881295D01*
X122462761Y-105666577D01*
X122298422Y-105502239D01*
X122083704Y-105413300D01*
X121291350Y-105413300D01*
X121145300Y-105559350D01*
X120789700Y-105559350D01*
X120643650Y-105413300D01*
X119851296Y-105413300D01*
X119636578Y-105502239D01*
X119472239Y-105666577D01*
X119383300Y-105881295D01*
X107311700Y-105881295D01*
X107222761Y-105666577D01*
X107058422Y-105502239D01*
X106843704Y-105413300D01*
X106051350Y-105413300D01*
X105905300Y-105559350D01*
X105549700Y-105559350D01*
X105403650Y-105413300D01*
X104611296Y-105413300D01*
X104396578Y-105502239D01*
X104232239Y-105666577D01*
X104143300Y-105881295D01*
X102692200Y-105881295D01*
X102692200Y-99691234D01*
X104143026Y-99691234D01*
X104383698Y-100273705D01*
X104828951Y-100719736D01*
X105411001Y-100961424D01*
X106041234Y-100961974D01*
X106623705Y-100721302D01*
X107069736Y-100276049D01*
X107311424Y-99693999D01*
X107311426Y-99691234D01*
X119383026Y-99691234D01*
X119623698Y-100273705D01*
X120068951Y-100719736D01*
X120651001Y-100961424D01*
X121281234Y-100961974D01*
X121863705Y-100721302D01*
X122309736Y-100276049D01*
X122551424Y-99693999D01*
X122551426Y-99691234D01*
X134623026Y-99691234D01*
X134863698Y-100273705D01*
X135308951Y-100719736D01*
X135891001Y-100961424D01*
X136521234Y-100961974D01*
X137103705Y-100721302D01*
X137549736Y-100276049D01*
X137791424Y-99693999D01*
X137791974Y-99063766D01*
X137551302Y-98481295D01*
X137106049Y-98035264D01*
X136523999Y-97793576D01*
X135893766Y-97793026D01*
X135311295Y-98033698D01*
X134865264Y-98478951D01*
X134623576Y-99061001D01*
X134623026Y-99691234D01*
X122551426Y-99691234D01*
X122551974Y-99063766D01*
X122311302Y-98481295D01*
X121866049Y-98035264D01*
X121283999Y-97793576D01*
X120653766Y-97793026D01*
X120071295Y-98033698D01*
X119625264Y-98478951D01*
X119383576Y-99061001D01*
X119383026Y-99691234D01*
X107311426Y-99691234D01*
X107311974Y-99063766D01*
X107071302Y-98481295D01*
X106626049Y-98035264D01*
X106043999Y-97793576D01*
X105413766Y-97793026D01*
X104831295Y-98033698D01*
X104385264Y-98478951D01*
X104143576Y-99061001D01*
X104143026Y-99691234D01*
X102692200Y-99691234D01*
X102692200Y-95881234D01*
X104143026Y-95881234D01*
X104383698Y-96463705D01*
X104828951Y-96909736D01*
X105411001Y-97151424D01*
X106041234Y-97151974D01*
X106623705Y-96911302D01*
X107069736Y-96466049D01*
X107311424Y-95883999D01*
X107311426Y-95881234D01*
X119383026Y-95881234D01*
X119623698Y-96463705D01*
X120068951Y-96909736D01*
X120651001Y-97151424D01*
X121281234Y-97151974D01*
X121863705Y-96911302D01*
X122309736Y-96466049D01*
X122551424Y-95883999D01*
X122551426Y-95881234D01*
X134623026Y-95881234D01*
X134863698Y-96463705D01*
X135308951Y-96909736D01*
X135891001Y-97151424D01*
X136521234Y-97151974D01*
X137103705Y-96911302D01*
X137549736Y-96466049D01*
X137791424Y-95883999D01*
X137791974Y-95253766D01*
X137551302Y-94671295D01*
X137106049Y-94225264D01*
X136523999Y-93983576D01*
X135893766Y-93983026D01*
X135311295Y-94223698D01*
X134865264Y-94668951D01*
X134623576Y-95251001D01*
X134623026Y-95881234D01*
X122551426Y-95881234D01*
X122551974Y-95253766D01*
X122311302Y-94671295D01*
X121866049Y-94225264D01*
X121283999Y-93983576D01*
X120653766Y-93983026D01*
X120071295Y-94223698D01*
X119625264Y-94668951D01*
X119383576Y-95251001D01*
X119383026Y-95881234D01*
X107311426Y-95881234D01*
X107311974Y-95253766D01*
X107071302Y-94671295D01*
X106626049Y-94225264D01*
X106043999Y-93983576D01*
X105413766Y-93983026D01*
X104831295Y-94223698D01*
X104385264Y-94668951D01*
X104143576Y-95251001D01*
X104143026Y-95881234D01*
X102692200Y-95881234D01*
X102692200Y-92081350D01*
X104143300Y-92081350D01*
X104143300Y-92873705D01*
X104232239Y-93088423D01*
X104396578Y-93252761D01*
X104611296Y-93341700D01*
X105403650Y-93341700D01*
X105549700Y-93195650D01*
X105549700Y-91935300D01*
X105905300Y-91935300D01*
X105905300Y-93195650D01*
X106051350Y-93341700D01*
X106843704Y-93341700D01*
X107058422Y-93252761D01*
X107222761Y-93088423D01*
X107311700Y-92873705D01*
X107311700Y-92081350D01*
X119383300Y-92081350D01*
X119383300Y-92873705D01*
X119472239Y-93088423D01*
X119636578Y-93252761D01*
X119851296Y-93341700D01*
X120643650Y-93341700D01*
X120789700Y-93195650D01*
X120789700Y-91935300D01*
X121145300Y-91935300D01*
X121145300Y-93195650D01*
X121291350Y-93341700D01*
X122083704Y-93341700D01*
X122298422Y-93252761D01*
X122462761Y-93088423D01*
X122551700Y-92873705D01*
X122551700Y-92081350D01*
X134623300Y-92081350D01*
X134623300Y-92873705D01*
X134712239Y-93088423D01*
X134876578Y-93252761D01*
X135091296Y-93341700D01*
X135883650Y-93341700D01*
X136029700Y-93195650D01*
X136029700Y-91935300D01*
X136385300Y-91935300D01*
X136385300Y-93195650D01*
X136531350Y-93341700D01*
X137323704Y-93341700D01*
X137538422Y-93252761D01*
X137702761Y-93088423D01*
X137791700Y-92873705D01*
X137791700Y-92081350D01*
X137645650Y-91935300D01*
X136385300Y-91935300D01*
X136029700Y-91935300D01*
X134769350Y-91935300D01*
X134623300Y-92081350D01*
X122551700Y-92081350D01*
X122405650Y-91935300D01*
X121145300Y-91935300D01*
X120789700Y-91935300D01*
X119529350Y-91935300D01*
X119383300Y-92081350D01*
X107311700Y-92081350D01*
X107165650Y-91935300D01*
X105905300Y-91935300D01*
X105549700Y-91935300D01*
X104289350Y-91935300D01*
X104143300Y-92081350D01*
X102692200Y-92081350D01*
X102692200Y-90641295D01*
X104143300Y-90641295D01*
X104143300Y-91433650D01*
X104289350Y-91579700D01*
X105549700Y-91579700D01*
X105549700Y-90319350D01*
X105905300Y-90319350D01*
X105905300Y-91579700D01*
X107165650Y-91579700D01*
X107311700Y-91433650D01*
X107311700Y-90641295D01*
X119383300Y-90641295D01*
X119383300Y-91433650D01*
X119529350Y-91579700D01*
X120789700Y-91579700D01*
X120789700Y-90319350D01*
X121145300Y-90319350D01*
X121145300Y-91579700D01*
X122405650Y-91579700D01*
X122551700Y-91433650D01*
X122551700Y-90641295D01*
X134623300Y-90641295D01*
X134623300Y-91433650D01*
X134769350Y-91579700D01*
X136029700Y-91579700D01*
X136029700Y-90319350D01*
X136385300Y-90319350D01*
X136385300Y-91579700D01*
X137645650Y-91579700D01*
X137791700Y-91433650D01*
X137791700Y-90641295D01*
X137702761Y-90426577D01*
X137538422Y-90262239D01*
X137323704Y-90173300D01*
X136531350Y-90173300D01*
X136385300Y-90319350D01*
X136029700Y-90319350D01*
X135883650Y-90173300D01*
X135091296Y-90173300D01*
X134876578Y-90262239D01*
X134712239Y-90426577D01*
X134623300Y-90641295D01*
X122551700Y-90641295D01*
X122462761Y-90426577D01*
X122298422Y-90262239D01*
X122083704Y-90173300D01*
X121291350Y-90173300D01*
X121145300Y-90319350D01*
X120789700Y-90319350D01*
X120643650Y-90173300D01*
X119851296Y-90173300D01*
X119636578Y-90262239D01*
X119472239Y-90426577D01*
X119383300Y-90641295D01*
X107311700Y-90641295D01*
X107222761Y-90426577D01*
X107058422Y-90262239D01*
X106843704Y-90173300D01*
X106051350Y-90173300D01*
X105905300Y-90319350D01*
X105549700Y-90319350D01*
X105403650Y-90173300D01*
X104611296Y-90173300D01*
X104396578Y-90262239D01*
X104232239Y-90426577D01*
X104143300Y-90641295D01*
X102692200Y-90641295D01*
X102692200Y-84451234D01*
X104143026Y-84451234D01*
X104383698Y-85033705D01*
X104828951Y-85479736D01*
X105411001Y-85721424D01*
X106041234Y-85721974D01*
X106623705Y-85481302D01*
X107066678Y-85039101D01*
X121526066Y-85039101D01*
X121730581Y-85534065D01*
X122108943Y-85913088D01*
X122603549Y-86118466D01*
X123139101Y-86118934D01*
X123634065Y-85914419D01*
X124013088Y-85536057D01*
X124218466Y-85041451D01*
X124218934Y-84505899D01*
X124014419Y-84010935D01*
X123636057Y-83631912D01*
X123141451Y-83426534D01*
X122605899Y-83426066D01*
X122110935Y-83630581D01*
X121731912Y-84008943D01*
X121526534Y-84503549D01*
X121526066Y-85039101D01*
X107066678Y-85039101D01*
X107069736Y-85036049D01*
X107311424Y-84453999D01*
X107311974Y-83823766D01*
X107071302Y-83241295D01*
X106626049Y-82795264D01*
X106043999Y-82553576D01*
X105413766Y-82553026D01*
X104831295Y-82793698D01*
X104385264Y-83238951D01*
X104143576Y-83821001D01*
X104143026Y-84451234D01*
X102692200Y-84451234D01*
X102692200Y-82499101D01*
X124066066Y-82499101D01*
X124270581Y-82994065D01*
X124648943Y-83373088D01*
X125143549Y-83578466D01*
X125679101Y-83578934D01*
X126174065Y-83374419D01*
X126553088Y-82996057D01*
X126758466Y-82501451D01*
X126758934Y-81965899D01*
X126554419Y-81470935D01*
X126176057Y-81091912D01*
X125681451Y-80886534D01*
X125145899Y-80886066D01*
X124650935Y-81090581D01*
X124271912Y-81468943D01*
X124066534Y-81963549D01*
X124066066Y-82499101D01*
X102692200Y-82499101D01*
X102692200Y-80641234D01*
X104143026Y-80641234D01*
X104383698Y-81223705D01*
X104828951Y-81669736D01*
X105411001Y-81911424D01*
X106041234Y-81911974D01*
X106623705Y-81671302D01*
X107069736Y-81226049D01*
X107311424Y-80643999D01*
X107311974Y-80013766D01*
X107289387Y-79959101D01*
X121526066Y-79959101D01*
X121730581Y-80454065D01*
X122108943Y-80833088D01*
X122603549Y-81038466D01*
X123139101Y-81038934D01*
X123634065Y-80834419D01*
X124013088Y-80456057D01*
X124218466Y-79961451D01*
X124218934Y-79425899D01*
X124014419Y-78930935D01*
X123636057Y-78551912D01*
X123141451Y-78346534D01*
X122605899Y-78346066D01*
X122110935Y-78550581D01*
X121731912Y-78928943D01*
X121526534Y-79423549D01*
X121526066Y-79959101D01*
X107289387Y-79959101D01*
X107071302Y-79431295D01*
X106626049Y-78985264D01*
X106043999Y-78743576D01*
X105413766Y-78743026D01*
X104831295Y-78983698D01*
X104385264Y-79428951D01*
X104143576Y-80011001D01*
X104143026Y-80641234D01*
X102692200Y-80641234D01*
X102692200Y-78111350D01*
X114653300Y-78111350D01*
X114653300Y-78553704D01*
X114742239Y-78768422D01*
X114906577Y-78932761D01*
X115121295Y-79021700D01*
X115563650Y-79021700D01*
X115709700Y-78875650D01*
X115709700Y-77965300D01*
X114799350Y-77965300D01*
X114653300Y-78111350D01*
X102692200Y-78111350D01*
X102692200Y-76841350D01*
X104143300Y-76841350D01*
X104143300Y-77633705D01*
X104232239Y-77848423D01*
X104396578Y-78012761D01*
X104611296Y-78101700D01*
X105403650Y-78101700D01*
X105549700Y-77955650D01*
X105549700Y-76695300D01*
X105905300Y-76695300D01*
X105905300Y-77955650D01*
X106051350Y-78101700D01*
X106843704Y-78101700D01*
X107058422Y-78012761D01*
X107222761Y-77848423D01*
X107311700Y-77633705D01*
X107311700Y-77021296D01*
X114653300Y-77021296D01*
X114653300Y-77463650D01*
X114799350Y-77609700D01*
X115709700Y-77609700D01*
X115709700Y-76699350D01*
X116065300Y-76699350D01*
X116065300Y-77609700D01*
X116085300Y-77609700D01*
X116085300Y-77965300D01*
X116065300Y-77965300D01*
X116065300Y-78875650D01*
X116211350Y-79021700D01*
X116653705Y-79021700D01*
X116868423Y-78932761D01*
X117032761Y-78768422D01*
X117059168Y-78704669D01*
X117187469Y-78833193D01*
X117640925Y-79021485D01*
X118131920Y-79021913D01*
X118585705Y-78834414D01*
X118933193Y-78487531D01*
X119121485Y-78034075D01*
X119121486Y-78031920D01*
X131703087Y-78031920D01*
X131890586Y-78485705D01*
X132237469Y-78833193D01*
X132690925Y-79021485D01*
X133181920Y-79021913D01*
X133635705Y-78834414D01*
X133765387Y-78704958D01*
X133860537Y-78852826D01*
X134055761Y-78986217D01*
X134287500Y-79033145D01*
X135587500Y-79033145D01*
X135803992Y-78992409D01*
X136002826Y-78864463D01*
X136136217Y-78669239D01*
X136183145Y-78437500D01*
X136183145Y-77137500D01*
X136142409Y-76921008D01*
X136014463Y-76722174D01*
X135819239Y-76588783D01*
X135587500Y-76541855D01*
X134287500Y-76541855D01*
X134071008Y-76582591D01*
X133872174Y-76710537D01*
X133764145Y-76868642D01*
X133637531Y-76741807D01*
X133184075Y-76553515D01*
X132693080Y-76553087D01*
X132239295Y-76740586D01*
X131891807Y-77087469D01*
X131703515Y-77540925D01*
X131703087Y-78031920D01*
X119121486Y-78031920D01*
X119121913Y-77543080D01*
X118934414Y-77089295D01*
X118587531Y-76741807D01*
X118134075Y-76553515D01*
X117643080Y-76553087D01*
X117189295Y-76740586D01*
X117059214Y-76870441D01*
X117032761Y-76806578D01*
X116868423Y-76642239D01*
X116653705Y-76553300D01*
X116211350Y-76553300D01*
X116065300Y-76699350D01*
X115709700Y-76699350D01*
X115563650Y-76553300D01*
X115121295Y-76553300D01*
X114906577Y-76642239D01*
X114742239Y-76806578D01*
X114653300Y-77021296D01*
X107311700Y-77021296D01*
X107311700Y-76841350D01*
X107165650Y-76695300D01*
X105905300Y-76695300D01*
X105549700Y-76695300D01*
X104289350Y-76695300D01*
X104143300Y-76841350D01*
X102692200Y-76841350D01*
X102692200Y-75401295D01*
X104143300Y-75401295D01*
X104143300Y-76193650D01*
X104289350Y-76339700D01*
X105549700Y-76339700D01*
X105549700Y-75079350D01*
X105905300Y-75079350D01*
X105905300Y-76339700D01*
X107165650Y-76339700D01*
X107311700Y-76193650D01*
X107311700Y-75401295D01*
X107222761Y-75186577D01*
X107058422Y-75022239D01*
X106843704Y-74933300D01*
X106051350Y-74933300D01*
X105905300Y-75079350D01*
X105549700Y-75079350D01*
X105403650Y-74933300D01*
X104611296Y-74933300D01*
X104396578Y-75022239D01*
X104232239Y-75186577D01*
X104143300Y-75401295D01*
X102692200Y-75401295D01*
X102692200Y-75215564D01*
X104171476Y-73736288D01*
X111427159Y-73736288D01*
X111597227Y-74037033D01*
X112385316Y-74323956D01*
X113223215Y-74287449D01*
X113827773Y-74037033D01*
X113997841Y-73736288D01*
X112712500Y-72450947D01*
X111427159Y-73736288D01*
X104171476Y-73736288D01*
X106035448Y-71872316D01*
X110588044Y-71872316D01*
X110624551Y-72710215D01*
X110874967Y-73314773D01*
X111175712Y-73484841D01*
X112461053Y-72199500D01*
X112963947Y-72199500D01*
X114249288Y-73484841D01*
X114550033Y-73314773D01*
X114804071Y-72617007D01*
X116953935Y-72617007D01*
X117274213Y-73392139D01*
X117866741Y-73985703D01*
X118641313Y-74307333D01*
X119480007Y-74308065D01*
X120255139Y-73987787D01*
X120848703Y-73395259D01*
X121170333Y-72620687D01*
X121170336Y-72617007D01*
X123303935Y-72617007D01*
X123624213Y-73392139D01*
X124216741Y-73985703D01*
X124991313Y-74307333D01*
X125830007Y-74308065D01*
X126605139Y-73987787D01*
X127198703Y-73395259D01*
X127520333Y-72620687D01*
X127520336Y-72617007D01*
X129653935Y-72617007D01*
X129974213Y-73392139D01*
X130566741Y-73985703D01*
X131341313Y-74307333D01*
X132180007Y-74308065D01*
X132955139Y-73987787D01*
X133548703Y-73395259D01*
X133870333Y-72620687D01*
X133871065Y-71781993D01*
X133550787Y-71006861D01*
X132958259Y-70413297D01*
X132183687Y-70091667D01*
X131344993Y-70090935D01*
X130569861Y-70411213D01*
X129976297Y-71003741D01*
X129654667Y-71778313D01*
X129653935Y-72617007D01*
X127520336Y-72617007D01*
X127521065Y-71781993D01*
X127200787Y-71006861D01*
X126608259Y-70413297D01*
X125833687Y-70091667D01*
X124994993Y-70090935D01*
X124219861Y-70411213D01*
X123626297Y-71003741D01*
X123304667Y-71778313D01*
X123303935Y-72617007D01*
X121170336Y-72617007D01*
X121171065Y-71781993D01*
X120850787Y-71006861D01*
X120258259Y-70413297D01*
X119483687Y-70091667D01*
X118644993Y-70090935D01*
X117869861Y-70411213D01*
X117276297Y-71003741D01*
X116954667Y-71778313D01*
X116953935Y-72617007D01*
X114804071Y-72617007D01*
X114836956Y-72526684D01*
X114800449Y-71688785D01*
X114550033Y-71084227D01*
X114249288Y-70914159D01*
X112963947Y-72199500D01*
X112461053Y-72199500D01*
X111175712Y-70914159D01*
X110874967Y-71084227D01*
X110588044Y-71872316D01*
X106035448Y-71872316D01*
X107245052Y-70662712D01*
X111427159Y-70662712D01*
X112712500Y-71948053D01*
X113997841Y-70662712D01*
X113827773Y-70361967D01*
X113039684Y-70075044D01*
X112201785Y-70111551D01*
X111597227Y-70361967D01*
X111427159Y-70662712D01*
X107245052Y-70662712D01*
X108743564Y-69164200D01*
X133064436Y-69164200D01*
X139115800Y-75215564D01*
G36*
X184835800Y-58451564D02*
X184835800Y-74136436D01*
X176244436Y-82727800D01*
X143795564Y-82727800D01*
X141282224Y-80214460D01*
X144191988Y-80214460D01*
X144297701Y-80460821D01*
X144895609Y-80660069D01*
X145524253Y-80615341D01*
X145897299Y-80460821D01*
X146003012Y-80214460D01*
X145097500Y-79308947D01*
X144191988Y-80214460D01*
X141282224Y-80214460D01*
X140284200Y-79216436D01*
X140284200Y-78855609D01*
X143494931Y-78855609D01*
X143539659Y-79484253D01*
X143694179Y-79857299D01*
X143940540Y-79963012D01*
X144846053Y-79057500D01*
X145348947Y-79057500D01*
X146254460Y-79963012D01*
X146500821Y-79857299D01*
X146700069Y-79259391D01*
X146655341Y-78630747D01*
X146500821Y-78257701D01*
X146254460Y-78151988D01*
X145348947Y-79057500D01*
X144846053Y-79057500D01*
X143940540Y-78151988D01*
X143694179Y-78257701D01*
X143494931Y-78855609D01*
X140284200Y-78855609D01*
X140284200Y-77900540D01*
X144191988Y-77900540D01*
X145097500Y-78806053D01*
X146003012Y-77900540D01*
X145897299Y-77654179D01*
X145299391Y-77454931D01*
X144670747Y-77499659D01*
X144297701Y-77654179D01*
X144191988Y-77900540D01*
X140284200Y-77900540D01*
X140284200Y-75561234D01*
X143513026Y-75561234D01*
X143753698Y-76143705D01*
X144198951Y-76589736D01*
X144781001Y-76831424D01*
X145411234Y-76831974D01*
X145993705Y-76591302D01*
X146439736Y-76146049D01*
X146681424Y-75563999D01*
X146681974Y-74933766D01*
X146441302Y-74351295D01*
X145996049Y-73905264D01*
X145827092Y-73835107D01*
X173867646Y-73835107D01*
X174001974Y-74160205D01*
X174250487Y-74409152D01*
X174575350Y-74544047D01*
X174927107Y-74544354D01*
X175252205Y-74410026D01*
X175501152Y-74161513D01*
X175636047Y-73836650D01*
X175636354Y-73484893D01*
X175502026Y-73159795D01*
X175253513Y-72910848D01*
X174928650Y-72775953D01*
X174576893Y-72775646D01*
X174251795Y-72909974D01*
X174002848Y-73158487D01*
X173867953Y-73483350D01*
X173867646Y-73835107D01*
X145827092Y-73835107D01*
X145413999Y-73663576D01*
X144783766Y-73663026D01*
X144201295Y-73903698D01*
X143755264Y-74348951D01*
X143513576Y-74931001D01*
X143513026Y-75561234D01*
X140284200Y-75561234D01*
X140284200Y-74676000D01*
X140278197Y-74646354D01*
X140261882Y-74622118D01*
X136077264Y-70437500D01*
X143501855Y-70437500D01*
X143501855Y-72437500D01*
X143542591Y-72653992D01*
X143670537Y-72852826D01*
X143865761Y-72986217D01*
X144097500Y-73033145D01*
X146097500Y-73033145D01*
X146313992Y-72992409D01*
X146512826Y-72864463D01*
X146646217Y-72669239D01*
X146693145Y-72437500D01*
X146693145Y-70437500D01*
X146652409Y-70221008D01*
X146524463Y-70022174D01*
X146329239Y-69888783D01*
X146097500Y-69841855D01*
X144097500Y-69841855D01*
X143881008Y-69882591D01*
X143682174Y-70010537D01*
X143548783Y-70205761D01*
X143501855Y-70437500D01*
X136077264Y-70437500D01*
X133784336Y-68144572D01*
X160259658Y-68144572D01*
X160309895Y-68632990D01*
X160400155Y-68850893D01*
X160610354Y-68913199D01*
X161261053Y-68262500D01*
X160610354Y-67611801D01*
X160400155Y-67674107D01*
X160259658Y-68144572D01*
X133784336Y-68144572D01*
X133657882Y-68018118D01*
X133632673Y-68001401D01*
X133604000Y-67995800D01*
X105695564Y-67995800D01*
X105060118Y-67360354D01*
X160861801Y-67360354D01*
X161512500Y-68011053D01*
X161526643Y-67996911D01*
X161778090Y-68248358D01*
X161763947Y-68262500D01*
X161778090Y-68276643D01*
X161526643Y-68528090D01*
X161512500Y-68513947D01*
X160861801Y-69164646D01*
X160924107Y-69374845D01*
X161394572Y-69515342D01*
X161882990Y-69465105D01*
X162100893Y-69374845D01*
X162163198Y-69164648D01*
X162275528Y-69276978D01*
X162352979Y-69199527D01*
X162435537Y-69327826D01*
X162630761Y-69461217D01*
X162862500Y-69508145D01*
X164162500Y-69508145D01*
X164378992Y-69467409D01*
X164577826Y-69339463D01*
X164711217Y-69144239D01*
X164758145Y-68912500D01*
X164758145Y-68506920D01*
X172343087Y-68506920D01*
X172530586Y-68960705D01*
X172877469Y-69308193D01*
X173330925Y-69496485D01*
X173821920Y-69496913D01*
X174275705Y-69309414D01*
X174405387Y-69179958D01*
X174500537Y-69327826D01*
X174695761Y-69461217D01*
X174927500Y-69508145D01*
X176227500Y-69508145D01*
X176443992Y-69467409D01*
X176642826Y-69339463D01*
X176776217Y-69144239D01*
X176823145Y-68912500D01*
X176823145Y-67940235D01*
X176959107Y-67940354D01*
X177284205Y-67806026D01*
X177533152Y-67557513D01*
X177668047Y-67232650D01*
X177668354Y-66880893D01*
X177534026Y-66555795D01*
X177285513Y-66306848D01*
X176960650Y-66171953D01*
X176652086Y-66171684D01*
X176652354Y-65864893D01*
X176518026Y-65539795D01*
X176269513Y-65290848D01*
X175944650Y-65155953D01*
X175592893Y-65155646D01*
X175267795Y-65289974D01*
X175018848Y-65538487D01*
X174883953Y-65863350D01*
X174883646Y-66215107D01*
X175017974Y-66540205D01*
X175266487Y-66789152D01*
X175591350Y-66924047D01*
X175899914Y-66924316D01*
X175899833Y-67016855D01*
X174927500Y-67016855D01*
X174711008Y-67057591D01*
X174512174Y-67185537D01*
X174404145Y-67343642D01*
X174277531Y-67216807D01*
X173824075Y-67028515D01*
X173333080Y-67028087D01*
X172879295Y-67215586D01*
X172531807Y-67562469D01*
X172343515Y-68015925D01*
X172343087Y-68506920D01*
X164758145Y-68506920D01*
X164758145Y-67612500D01*
X164717409Y-67396008D01*
X164589463Y-67197174D01*
X164394239Y-67063783D01*
X164162500Y-67016855D01*
X162862500Y-67016855D01*
X162646008Y-67057591D01*
X162447174Y-67185537D01*
X162352136Y-67324630D01*
X162275528Y-67248022D01*
X162163198Y-67360352D01*
X162100893Y-67150155D01*
X161630428Y-67009658D01*
X161142010Y-67059895D01*
X160924107Y-67150155D01*
X160861801Y-67360354D01*
X105060118Y-67360354D01*
X102898871Y-65199107D01*
X171835646Y-65199107D01*
X171969974Y-65524205D01*
X172218487Y-65773152D01*
X172543350Y-65908047D01*
X172895107Y-65908354D01*
X173220205Y-65774026D01*
X173227795Y-65766449D01*
X173234487Y-65773152D01*
X173559350Y-65908047D01*
X173911107Y-65908354D01*
X174236205Y-65774026D01*
X174485152Y-65525513D01*
X174620047Y-65200650D01*
X174620354Y-64848893D01*
X174566725Y-64719101D01*
X180581066Y-64719101D01*
X180785581Y-65214065D01*
X181163943Y-65593088D01*
X181658549Y-65798466D01*
X182194101Y-65798934D01*
X182689065Y-65594419D01*
X183068088Y-65216057D01*
X183273466Y-64721451D01*
X183273934Y-64185899D01*
X183069419Y-63690935D01*
X182691057Y-63311912D01*
X182196451Y-63106534D01*
X181660899Y-63106066D01*
X181165935Y-63310581D01*
X180786912Y-63688943D01*
X180581534Y-64183549D01*
X180581066Y-64719101D01*
X174566725Y-64719101D01*
X174486026Y-64523795D01*
X174237513Y-64274848D01*
X173912650Y-64139953D01*
X173560893Y-64139646D01*
X173235795Y-64273974D01*
X173228205Y-64281551D01*
X173221513Y-64274848D01*
X172896650Y-64139953D01*
X172544893Y-64139646D01*
X172219795Y-64273974D01*
X171970848Y-64522487D01*
X171835953Y-64847350D01*
X171835646Y-65199107D01*
X102898871Y-65199107D01*
X102692200Y-64992436D01*
X102692200Y-62896346D01*
X178655101Y-62896346D01*
X178731362Y-63118088D01*
X179242666Y-63277411D01*
X179776020Y-63228939D01*
X180043638Y-63118088D01*
X180119899Y-62896346D01*
X179387500Y-62163947D01*
X178655101Y-62896346D01*
X102692200Y-62896346D01*
X102692200Y-60277500D01*
X103496855Y-60277500D01*
X103496855Y-62277500D01*
X103537591Y-62493992D01*
X103665537Y-62692826D01*
X103860761Y-62826217D01*
X104092500Y-62873145D01*
X106092500Y-62873145D01*
X106308992Y-62832409D01*
X106507826Y-62704463D01*
X106641217Y-62509239D01*
X106688145Y-62277500D01*
X106688145Y-61591234D01*
X107318026Y-61591234D01*
X107558698Y-62173705D01*
X108003951Y-62619736D01*
X108586001Y-62861424D01*
X109216234Y-62861974D01*
X109798705Y-62621302D01*
X109985873Y-62434460D01*
X111806988Y-62434460D01*
X111912701Y-62680821D01*
X112510609Y-62880069D01*
X113139253Y-62835341D01*
X113512299Y-62680821D01*
X113618012Y-62434460D01*
X112712500Y-61528947D01*
X111806988Y-62434460D01*
X109985873Y-62434460D01*
X110244736Y-62176049D01*
X110486424Y-61593999D01*
X110486876Y-61075609D01*
X111109931Y-61075609D01*
X111154659Y-61704253D01*
X111309179Y-62077299D01*
X111555540Y-62183012D01*
X112461053Y-61277500D01*
X112963947Y-61277500D01*
X113869460Y-62183012D01*
X114115821Y-62077299D01*
X114315069Y-61479391D01*
X114270341Y-60850747D01*
X114115821Y-60477701D01*
X113869460Y-60371988D01*
X112963947Y-61277500D01*
X112461053Y-61277500D01*
X111555540Y-60371988D01*
X111309179Y-60477701D01*
X111109931Y-61075609D01*
X110486876Y-61075609D01*
X110486974Y-60963766D01*
X110246302Y-60381295D01*
X109986002Y-60120540D01*
X111806988Y-60120540D01*
X112712500Y-61026053D01*
X113461052Y-60277500D01*
X118736855Y-60277500D01*
X118736855Y-62277500D01*
X118777591Y-62493992D01*
X118905537Y-62692826D01*
X119100761Y-62826217D01*
X119332500Y-62873145D01*
X121332500Y-62873145D01*
X121548992Y-62832409D01*
X121747826Y-62704463D01*
X121881217Y-62509239D01*
X121928145Y-62277500D01*
X121928145Y-61591234D01*
X122558026Y-61591234D01*
X122798698Y-62173705D01*
X123243951Y-62619736D01*
X123826001Y-62861424D01*
X124456234Y-62861974D01*
X125038705Y-62621302D01*
X125225873Y-62434460D01*
X127046988Y-62434460D01*
X127152701Y-62680821D01*
X127750609Y-62880069D01*
X128379253Y-62835341D01*
X128752299Y-62680821D01*
X128858012Y-62434460D01*
X127952500Y-61528947D01*
X127046988Y-62434460D01*
X125225873Y-62434460D01*
X125484736Y-62176049D01*
X125726424Y-61593999D01*
X125726876Y-61075609D01*
X126349931Y-61075609D01*
X126394659Y-61704253D01*
X126549179Y-62077299D01*
X126795540Y-62183012D01*
X127701053Y-61277500D01*
X128203947Y-61277500D01*
X129109460Y-62183012D01*
X129355821Y-62077299D01*
X129555069Y-61479391D01*
X129510341Y-60850747D01*
X129355821Y-60477701D01*
X129109460Y-60371988D01*
X128203947Y-61277500D01*
X127701053Y-61277500D01*
X126795540Y-60371988D01*
X126549179Y-60477701D01*
X126349931Y-61075609D01*
X125726876Y-61075609D01*
X125726974Y-60963766D01*
X125486302Y-60381295D01*
X125226002Y-60120540D01*
X127046988Y-60120540D01*
X127952500Y-61026053D01*
X128701052Y-60277500D01*
X133976855Y-60277500D01*
X133976855Y-62277500D01*
X134017591Y-62493992D01*
X134145537Y-62692826D01*
X134340761Y-62826217D01*
X134572500Y-62873145D01*
X136572500Y-62873145D01*
X136788992Y-62832409D01*
X136987826Y-62704463D01*
X137121217Y-62509239D01*
X137168145Y-62277500D01*
X137168145Y-61591234D01*
X137798026Y-61591234D01*
X138038698Y-62173705D01*
X138483951Y-62619736D01*
X139066001Y-62861424D01*
X139696234Y-62861974D01*
X140278705Y-62621302D01*
X140465873Y-62434460D01*
X142286988Y-62434460D01*
X142392701Y-62680821D01*
X142990609Y-62880069D01*
X143619253Y-62835341D01*
X143992299Y-62680821D01*
X144098012Y-62434460D01*
X143192500Y-61528947D01*
X142286988Y-62434460D01*
X140465873Y-62434460D01*
X140724736Y-62176049D01*
X140966424Y-61593999D01*
X140966876Y-61075609D01*
X141589931Y-61075609D01*
X141634659Y-61704253D01*
X141789179Y-62077299D01*
X142035540Y-62183012D01*
X142941053Y-61277500D01*
X143443947Y-61277500D01*
X144349460Y-62183012D01*
X144595821Y-62077299D01*
X144795069Y-61479391D01*
X144750341Y-60850747D01*
X144595821Y-60477701D01*
X144349460Y-60371988D01*
X143443947Y-61277500D01*
X142941053Y-61277500D01*
X142035540Y-60371988D01*
X141789179Y-60477701D01*
X141589931Y-61075609D01*
X140966876Y-61075609D01*
X140966974Y-60963766D01*
X140726302Y-60381295D01*
X140466002Y-60120540D01*
X142286988Y-60120540D01*
X143192500Y-61026053D01*
X143941052Y-60277500D01*
X149216855Y-60277500D01*
X149216855Y-62277500D01*
X149257591Y-62493992D01*
X149385537Y-62692826D01*
X149580761Y-62826217D01*
X149812500Y-62873145D01*
X151812500Y-62873145D01*
X152028992Y-62832409D01*
X152227826Y-62704463D01*
X152361217Y-62509239D01*
X152408145Y-62277500D01*
X152408145Y-61591234D01*
X153038026Y-61591234D01*
X153278698Y-62173705D01*
X153723951Y-62619736D01*
X154306001Y-62861424D01*
X154936234Y-62861974D01*
X155518705Y-62621302D01*
X155705873Y-62434460D01*
X157526988Y-62434460D01*
X157632701Y-62680821D01*
X158230609Y-62880069D01*
X158859253Y-62835341D01*
X159232299Y-62680821D01*
X159338012Y-62434460D01*
X158432500Y-61528947D01*
X157526988Y-62434460D01*
X155705873Y-62434460D01*
X155964736Y-62176049D01*
X156206424Y-61593999D01*
X156206876Y-61075609D01*
X156829931Y-61075609D01*
X156874659Y-61704253D01*
X157029179Y-62077299D01*
X157275540Y-62183012D01*
X158181053Y-61277500D01*
X158683947Y-61277500D01*
X159589460Y-62183012D01*
X159835821Y-62077299D01*
X160035069Y-61479391D01*
X159990341Y-60850747D01*
X159835821Y-60477701D01*
X159589460Y-60371988D01*
X158683947Y-61277500D01*
X158181053Y-61277500D01*
X157275540Y-60371988D01*
X157029179Y-60477701D01*
X156829931Y-61075609D01*
X156206876Y-61075609D01*
X156206974Y-60963766D01*
X155966302Y-60381295D01*
X155706002Y-60120540D01*
X157526988Y-60120540D01*
X158432500Y-61026053D01*
X159181052Y-60277500D01*
X164456855Y-60277500D01*
X164456855Y-62277500D01*
X164497591Y-62493992D01*
X164625537Y-62692826D01*
X164820761Y-62826217D01*
X165052500Y-62873145D01*
X167052500Y-62873145D01*
X167268992Y-62832409D01*
X167467826Y-62704463D01*
X167601217Y-62509239D01*
X167648145Y-62277500D01*
X167648145Y-61591234D01*
X168278026Y-61591234D01*
X168518698Y-62173705D01*
X168963951Y-62619736D01*
X169546001Y-62861424D01*
X170176234Y-62861974D01*
X170758705Y-62621302D01*
X170945873Y-62434460D01*
X172766988Y-62434460D01*
X172872701Y-62680821D01*
X173470609Y-62880069D01*
X174099253Y-62835341D01*
X174472299Y-62680821D01*
X174578012Y-62434460D01*
X173672500Y-61528947D01*
X172766988Y-62434460D01*
X170945873Y-62434460D01*
X171204736Y-62176049D01*
X171446424Y-61593999D01*
X171446876Y-61075609D01*
X172069931Y-61075609D01*
X172114659Y-61704253D01*
X172269179Y-62077299D01*
X172515540Y-62183012D01*
X173421053Y-61277500D01*
X173923947Y-61277500D01*
X174829460Y-62183012D01*
X175075821Y-62077299D01*
X175179003Y-61767666D01*
X178022589Y-61767666D01*
X178071061Y-62301020D01*
X178181912Y-62568638D01*
X178403654Y-62644899D01*
X179136053Y-61912500D01*
X179638947Y-61912500D01*
X180371346Y-62644899D01*
X180593088Y-62568638D01*
X180752411Y-62057334D01*
X180703939Y-61523980D01*
X180593088Y-61256362D01*
X180371346Y-61180101D01*
X179638947Y-61912500D01*
X179136053Y-61912500D01*
X178403654Y-61180101D01*
X178181912Y-61256362D01*
X178022589Y-61767666D01*
X175179003Y-61767666D01*
X175275069Y-61479391D01*
X175235885Y-60928654D01*
X178655101Y-60928654D01*
X179387500Y-61661053D01*
X180119899Y-60928654D01*
X180043638Y-60706912D01*
X179532334Y-60547589D01*
X178998980Y-60596061D01*
X178731362Y-60706912D01*
X178655101Y-60928654D01*
X175235885Y-60928654D01*
X175230341Y-60850747D01*
X175075821Y-60477701D01*
X174829460Y-60371988D01*
X173923947Y-61277500D01*
X173421053Y-61277500D01*
X172515540Y-60371988D01*
X172269179Y-60477701D01*
X172069931Y-61075609D01*
X171446876Y-61075609D01*
X171446974Y-60963766D01*
X171206302Y-60381295D01*
X170946002Y-60120540D01*
X172766988Y-60120540D01*
X173672500Y-61026053D01*
X174342206Y-60356346D01*
X181195101Y-60356346D01*
X181271362Y-60578088D01*
X181782666Y-60737411D01*
X182316020Y-60688939D01*
X182583638Y-60578088D01*
X182659899Y-60356346D01*
X181927500Y-59623947D01*
X181195101Y-60356346D01*
X174342206Y-60356346D01*
X174578012Y-60120540D01*
X174472299Y-59874179D01*
X173874391Y-59674931D01*
X173245747Y-59719659D01*
X172872701Y-59874179D01*
X172766988Y-60120540D01*
X170946002Y-60120540D01*
X170761049Y-59935264D01*
X170178999Y-59693576D01*
X169548766Y-59693026D01*
X168966295Y-59933698D01*
X168520264Y-60378951D01*
X168278576Y-60961001D01*
X168278026Y-61591234D01*
X167648145Y-61591234D01*
X167648145Y-60277500D01*
X167607409Y-60061008D01*
X167479463Y-59862174D01*
X167284239Y-59728783D01*
X167052500Y-59681855D01*
X165052500Y-59681855D01*
X164836008Y-59722591D01*
X164637174Y-59850537D01*
X164503783Y-60045761D01*
X164456855Y-60277500D01*
X159181052Y-60277500D01*
X159338012Y-60120540D01*
X159232299Y-59874179D01*
X158634391Y-59674931D01*
X158005747Y-59719659D01*
X157632701Y-59874179D01*
X157526988Y-60120540D01*
X155706002Y-60120540D01*
X155521049Y-59935264D01*
X154938999Y-59693576D01*
X154308766Y-59693026D01*
X153726295Y-59933698D01*
X153280264Y-60378951D01*
X153038576Y-60961001D01*
X153038026Y-61591234D01*
X152408145Y-61591234D01*
X152408145Y-60277500D01*
X152367409Y-60061008D01*
X152239463Y-59862174D01*
X152044239Y-59728783D01*
X151812500Y-59681855D01*
X149812500Y-59681855D01*
X149596008Y-59722591D01*
X149397174Y-59850537D01*
X149263783Y-60045761D01*
X149216855Y-60277500D01*
X143941052Y-60277500D01*
X144098012Y-60120540D01*
X143992299Y-59874179D01*
X143394391Y-59674931D01*
X142765747Y-59719659D01*
X142392701Y-59874179D01*
X142286988Y-60120540D01*
X140466002Y-60120540D01*
X140281049Y-59935264D01*
X139698999Y-59693576D01*
X139068766Y-59693026D01*
X138486295Y-59933698D01*
X138040264Y-60378951D01*
X137798576Y-60961001D01*
X137798026Y-61591234D01*
X137168145Y-61591234D01*
X137168145Y-60277500D01*
X137127409Y-60061008D01*
X136999463Y-59862174D01*
X136804239Y-59728783D01*
X136572500Y-59681855D01*
X134572500Y-59681855D01*
X134356008Y-59722591D01*
X134157174Y-59850537D01*
X134023783Y-60045761D01*
X133976855Y-60277500D01*
X128701052Y-60277500D01*
X128858012Y-60120540D01*
X128752299Y-59874179D01*
X128154391Y-59674931D01*
X127525747Y-59719659D01*
X127152701Y-59874179D01*
X127046988Y-60120540D01*
X125226002Y-60120540D01*
X125041049Y-59935264D01*
X124458999Y-59693576D01*
X123828766Y-59693026D01*
X123246295Y-59933698D01*
X122800264Y-60378951D01*
X122558576Y-60961001D01*
X122558026Y-61591234D01*
X121928145Y-61591234D01*
X121928145Y-60277500D01*
X121887409Y-60061008D01*
X121759463Y-59862174D01*
X121564239Y-59728783D01*
X121332500Y-59681855D01*
X119332500Y-59681855D01*
X119116008Y-59722591D01*
X118917174Y-59850537D01*
X118783783Y-60045761D01*
X118736855Y-60277500D01*
X113461052Y-60277500D01*
X113618012Y-60120540D01*
X113512299Y-59874179D01*
X112914391Y-59674931D01*
X112285747Y-59719659D01*
X111912701Y-59874179D01*
X111806988Y-60120540D01*
X109986002Y-60120540D01*
X109801049Y-59935264D01*
X109218999Y-59693576D01*
X108588766Y-59693026D01*
X108006295Y-59933698D01*
X107560264Y-60378951D01*
X107318576Y-60961001D01*
X107318026Y-61591234D01*
X106688145Y-61591234D01*
X106688145Y-60277500D01*
X106647409Y-60061008D01*
X106519463Y-59862174D01*
X106324239Y-59728783D01*
X106092500Y-59681855D01*
X104092500Y-59681855D01*
X103876008Y-59722591D01*
X103677174Y-59850537D01*
X103543783Y-60045761D01*
X103496855Y-60277500D01*
X102692200Y-60277500D01*
X102692200Y-59467564D01*
X102932098Y-59227666D01*
X180562589Y-59227666D01*
X180611061Y-59761020D01*
X180721912Y-60028638D01*
X180943654Y-60104899D01*
X181676053Y-59372500D01*
X182178947Y-59372500D01*
X182911346Y-60104899D01*
X183133088Y-60028638D01*
X183292411Y-59517334D01*
X183243939Y-58983980D01*
X183133088Y-58716362D01*
X182911346Y-58640101D01*
X182178947Y-59372500D01*
X181676053Y-59372500D01*
X180943654Y-58640101D01*
X180721912Y-58716362D01*
X180562589Y-59227666D01*
X102932098Y-59227666D01*
X103771110Y-58388654D01*
X181195101Y-58388654D01*
X181927500Y-59121053D01*
X182659899Y-58388654D01*
X182583638Y-58166912D01*
X182072334Y-58007589D01*
X181538980Y-58056061D01*
X181271362Y-58166912D01*
X181195101Y-58388654D01*
X103771110Y-58388654D01*
X105645564Y-56514200D01*
X182898436Y-56514200D01*
X184835800Y-58451564D01*
X184835800Y-58451564D01*
G37*
X184835800Y-58451564D02*
X184835800Y-74136436D01*
X176244436Y-82727800D01*
X143795564Y-82727800D01*
X141282224Y-80214460D01*
X144191988Y-80214460D01*
X144297701Y-80460821D01*
X144895609Y-80660069D01*
X145524253Y-80615341D01*
X145897299Y-80460821D01*
X146003012Y-80214460D01*
X145097500Y-79308947D01*
X144191988Y-80214460D01*
X141282224Y-80214460D01*
X140284200Y-79216436D01*
X140284200Y-78855609D01*
X143494931Y-78855609D01*
X143539659Y-79484253D01*
X143694179Y-79857299D01*
X143940540Y-79963012D01*
X144846053Y-79057500D01*
X145348947Y-79057500D01*
X146254460Y-79963012D01*
X146500821Y-79857299D01*
X146700069Y-79259391D01*
X146655341Y-78630747D01*
X146500821Y-78257701D01*
X146254460Y-78151988D01*
X145348947Y-79057500D01*
X144846053Y-79057500D01*
X143940540Y-78151988D01*
X143694179Y-78257701D01*
X143494931Y-78855609D01*
X140284200Y-78855609D01*
X140284200Y-77900540D01*
X144191988Y-77900540D01*
X145097500Y-78806053D01*
X146003012Y-77900540D01*
X145897299Y-77654179D01*
X145299391Y-77454931D01*
X144670747Y-77499659D01*
X144297701Y-77654179D01*
X144191988Y-77900540D01*
X140284200Y-77900540D01*
X140284200Y-75561234D01*
X143513026Y-75561234D01*
X143753698Y-76143705D01*
X144198951Y-76589736D01*
X144781001Y-76831424D01*
X145411234Y-76831974D01*
X145993705Y-76591302D01*
X146439736Y-76146049D01*
X146681424Y-75563999D01*
X146681974Y-74933766D01*
X146441302Y-74351295D01*
X145996049Y-73905264D01*
X145827092Y-73835107D01*
X173867646Y-73835107D01*
X174001974Y-74160205D01*
X174250487Y-74409152D01*
X174575350Y-74544047D01*
X174927107Y-74544354D01*
X175252205Y-74410026D01*
X175501152Y-74161513D01*
X175636047Y-73836650D01*
X175636354Y-73484893D01*
X175502026Y-73159795D01*
X175253513Y-72910848D01*
X174928650Y-72775953D01*
X174576893Y-72775646D01*
X174251795Y-72909974D01*
X174002848Y-73158487D01*
X173867953Y-73483350D01*
X173867646Y-73835107D01*
X145827092Y-73835107D01*
X145413999Y-73663576D01*
X144783766Y-73663026D01*
X144201295Y-73903698D01*
X143755264Y-74348951D01*
X143513576Y-74931001D01*
X143513026Y-75561234D01*
X140284200Y-75561234D01*
X140284200Y-74676000D01*
X140278197Y-74646354D01*
X140261882Y-74622118D01*
X136077264Y-70437500D01*
X143501855Y-70437500D01*
X143501855Y-72437500D01*
X143542591Y-72653992D01*
X143670537Y-72852826D01*
X143865761Y-72986217D01*
X144097500Y-73033145D01*
X146097500Y-73033145D01*
X146313992Y-72992409D01*
X146512826Y-72864463D01*
X146646217Y-72669239D01*
X146693145Y-72437500D01*
X146693145Y-70437500D01*
X146652409Y-70221008D01*
X146524463Y-70022174D01*
X146329239Y-69888783D01*
X146097500Y-69841855D01*
X144097500Y-69841855D01*
X143881008Y-69882591D01*
X143682174Y-70010537D01*
X143548783Y-70205761D01*
X143501855Y-70437500D01*
X136077264Y-70437500D01*
X133784336Y-68144572D01*
X160259658Y-68144572D01*
X160309895Y-68632990D01*
X160400155Y-68850893D01*
X160610354Y-68913199D01*
X161261053Y-68262500D01*
X160610354Y-67611801D01*
X160400155Y-67674107D01*
X160259658Y-68144572D01*
X133784336Y-68144572D01*
X133657882Y-68018118D01*
X133632673Y-68001401D01*
X133604000Y-67995800D01*
X105695564Y-67995800D01*
X105060118Y-67360354D01*
X160861801Y-67360354D01*
X161512500Y-68011053D01*
X161526643Y-67996911D01*
X161778090Y-68248358D01*
X161763947Y-68262500D01*
X161778090Y-68276643D01*
X161526643Y-68528090D01*
X161512500Y-68513947D01*
X160861801Y-69164646D01*
X160924107Y-69374845D01*
X161394572Y-69515342D01*
X161882990Y-69465105D01*
X162100893Y-69374845D01*
X162163198Y-69164648D01*
X162275528Y-69276978D01*
X162352979Y-69199527D01*
X162435537Y-69327826D01*
X162630761Y-69461217D01*
X162862500Y-69508145D01*
X164162500Y-69508145D01*
X164378992Y-69467409D01*
X164577826Y-69339463D01*
X164711217Y-69144239D01*
X164758145Y-68912500D01*
X164758145Y-68506920D01*
X172343087Y-68506920D01*
X172530586Y-68960705D01*
X172877469Y-69308193D01*
X173330925Y-69496485D01*
X173821920Y-69496913D01*
X174275705Y-69309414D01*
X174405387Y-69179958D01*
X174500537Y-69327826D01*
X174695761Y-69461217D01*
X174927500Y-69508145D01*
X176227500Y-69508145D01*
X176443992Y-69467409D01*
X176642826Y-69339463D01*
X176776217Y-69144239D01*
X176823145Y-68912500D01*
X176823145Y-67940235D01*
X176959107Y-67940354D01*
X177284205Y-67806026D01*
X177533152Y-67557513D01*
X177668047Y-67232650D01*
X177668354Y-66880893D01*
X177534026Y-66555795D01*
X177285513Y-66306848D01*
X176960650Y-66171953D01*
X176652086Y-66171684D01*
X176652354Y-65864893D01*
X176518026Y-65539795D01*
X176269513Y-65290848D01*
X175944650Y-65155953D01*
X175592893Y-65155646D01*
X175267795Y-65289974D01*
X175018848Y-65538487D01*
X174883953Y-65863350D01*
X174883646Y-66215107D01*
X175017974Y-66540205D01*
X175266487Y-66789152D01*
X175591350Y-66924047D01*
X175899914Y-66924316D01*
X175899833Y-67016855D01*
X174927500Y-67016855D01*
X174711008Y-67057591D01*
X174512174Y-67185537D01*
X174404145Y-67343642D01*
X174277531Y-67216807D01*
X173824075Y-67028515D01*
X173333080Y-67028087D01*
X172879295Y-67215586D01*
X172531807Y-67562469D01*
X172343515Y-68015925D01*
X172343087Y-68506920D01*
X164758145Y-68506920D01*
X164758145Y-67612500D01*
X164717409Y-67396008D01*
X164589463Y-67197174D01*
X164394239Y-67063783D01*
X164162500Y-67016855D01*
X162862500Y-67016855D01*
X162646008Y-67057591D01*
X162447174Y-67185537D01*
X162352136Y-67324630D01*
X162275528Y-67248022D01*
X162163198Y-67360352D01*
X162100893Y-67150155D01*
X161630428Y-67009658D01*
X161142010Y-67059895D01*
X160924107Y-67150155D01*
X160861801Y-67360354D01*
X105060118Y-67360354D01*
X102898871Y-65199107D01*
X171835646Y-65199107D01*
X171969974Y-65524205D01*
X172218487Y-65773152D01*
X172543350Y-65908047D01*
X172895107Y-65908354D01*
X173220205Y-65774026D01*
X173227795Y-65766449D01*
X173234487Y-65773152D01*
X173559350Y-65908047D01*
X173911107Y-65908354D01*
X174236205Y-65774026D01*
X174485152Y-65525513D01*
X174620047Y-65200650D01*
X174620354Y-64848893D01*
X174566725Y-64719101D01*
X180581066Y-64719101D01*
X180785581Y-65214065D01*
X181163943Y-65593088D01*
X181658549Y-65798466D01*
X182194101Y-65798934D01*
X182689065Y-65594419D01*
X183068088Y-65216057D01*
X183273466Y-64721451D01*
X183273934Y-64185899D01*
X183069419Y-63690935D01*
X182691057Y-63311912D01*
X182196451Y-63106534D01*
X181660899Y-63106066D01*
X181165935Y-63310581D01*
X180786912Y-63688943D01*
X180581534Y-64183549D01*
X180581066Y-64719101D01*
X174566725Y-64719101D01*
X174486026Y-64523795D01*
X174237513Y-64274848D01*
X173912650Y-64139953D01*
X173560893Y-64139646D01*
X173235795Y-64273974D01*
X173228205Y-64281551D01*
X173221513Y-64274848D01*
X172896650Y-64139953D01*
X172544893Y-64139646D01*
X172219795Y-64273974D01*
X171970848Y-64522487D01*
X171835953Y-64847350D01*
X171835646Y-65199107D01*
X102898871Y-65199107D01*
X102692200Y-64992436D01*
X102692200Y-62896346D01*
X178655101Y-62896346D01*
X178731362Y-63118088D01*
X179242666Y-63277411D01*
X179776020Y-63228939D01*
X180043638Y-63118088D01*
X180119899Y-62896346D01*
X179387500Y-62163947D01*
X178655101Y-62896346D01*
X102692200Y-62896346D01*
X102692200Y-60277500D01*
X103496855Y-60277500D01*
X103496855Y-62277500D01*
X103537591Y-62493992D01*
X103665537Y-62692826D01*
X103860761Y-62826217D01*
X104092500Y-62873145D01*
X106092500Y-62873145D01*
X106308992Y-62832409D01*
X106507826Y-62704463D01*
X106641217Y-62509239D01*
X106688145Y-62277500D01*
X106688145Y-61591234D01*
X107318026Y-61591234D01*
X107558698Y-62173705D01*
X108003951Y-62619736D01*
X108586001Y-62861424D01*
X109216234Y-62861974D01*
X109798705Y-62621302D01*
X109985873Y-62434460D01*
X111806988Y-62434460D01*
X111912701Y-62680821D01*
X112510609Y-62880069D01*
X113139253Y-62835341D01*
X113512299Y-62680821D01*
X113618012Y-62434460D01*
X112712500Y-61528947D01*
X111806988Y-62434460D01*
X109985873Y-62434460D01*
X110244736Y-62176049D01*
X110486424Y-61593999D01*
X110486876Y-61075609D01*
X111109931Y-61075609D01*
X111154659Y-61704253D01*
X111309179Y-62077299D01*
X111555540Y-62183012D01*
X112461053Y-61277500D01*
X112963947Y-61277500D01*
X113869460Y-62183012D01*
X114115821Y-62077299D01*
X114315069Y-61479391D01*
X114270341Y-60850747D01*
X114115821Y-60477701D01*
X113869460Y-60371988D01*
X112963947Y-61277500D01*
X112461053Y-61277500D01*
X111555540Y-60371988D01*
X111309179Y-60477701D01*
X111109931Y-61075609D01*
X110486876Y-61075609D01*
X110486974Y-60963766D01*
X110246302Y-60381295D01*
X109986002Y-60120540D01*
X111806988Y-60120540D01*
X112712500Y-61026053D01*
X113461052Y-60277500D01*
X118736855Y-60277500D01*
X118736855Y-62277500D01*
X118777591Y-62493992D01*
X118905537Y-62692826D01*
X119100761Y-62826217D01*
X119332500Y-62873145D01*
X121332500Y-62873145D01*
X121548992Y-62832409D01*
X121747826Y-62704463D01*
X121881217Y-62509239D01*
X121928145Y-62277500D01*
X121928145Y-61591234D01*
X122558026Y-61591234D01*
X122798698Y-62173705D01*
X123243951Y-62619736D01*
X123826001Y-62861424D01*
X124456234Y-62861974D01*
X125038705Y-62621302D01*
X125225873Y-62434460D01*
X127046988Y-62434460D01*
X127152701Y-62680821D01*
X127750609Y-62880069D01*
X128379253Y-62835341D01*
X128752299Y-62680821D01*
X128858012Y-62434460D01*
X127952500Y-61528947D01*
X127046988Y-62434460D01*
X125225873Y-62434460D01*
X125484736Y-62176049D01*
X125726424Y-61593999D01*
X125726876Y-61075609D01*
X126349931Y-61075609D01*
X126394659Y-61704253D01*
X126549179Y-62077299D01*
X126795540Y-62183012D01*
X127701053Y-61277500D01*
X128203947Y-61277500D01*
X129109460Y-62183012D01*
X129355821Y-62077299D01*
X129555069Y-61479391D01*
X129510341Y-60850747D01*
X129355821Y-60477701D01*
X129109460Y-60371988D01*
X128203947Y-61277500D01*
X127701053Y-61277500D01*
X126795540Y-60371988D01*
X126549179Y-60477701D01*
X126349931Y-61075609D01*
X125726876Y-61075609D01*
X125726974Y-60963766D01*
X125486302Y-60381295D01*
X125226002Y-60120540D01*
X127046988Y-60120540D01*
X127952500Y-61026053D01*
X128701052Y-60277500D01*
X133976855Y-60277500D01*
X133976855Y-62277500D01*
X134017591Y-62493992D01*
X134145537Y-62692826D01*
X134340761Y-62826217D01*
X134572500Y-62873145D01*
X136572500Y-62873145D01*
X136788992Y-62832409D01*
X136987826Y-62704463D01*
X137121217Y-62509239D01*
X137168145Y-62277500D01*
X137168145Y-61591234D01*
X137798026Y-61591234D01*
X138038698Y-62173705D01*
X138483951Y-62619736D01*
X139066001Y-62861424D01*
X139696234Y-62861974D01*
X140278705Y-62621302D01*
X140465873Y-62434460D01*
X142286988Y-62434460D01*
X142392701Y-62680821D01*
X142990609Y-62880069D01*
X143619253Y-62835341D01*
X143992299Y-62680821D01*
X144098012Y-62434460D01*
X143192500Y-61528947D01*
X142286988Y-62434460D01*
X140465873Y-62434460D01*
X140724736Y-62176049D01*
X140966424Y-61593999D01*
X140966876Y-61075609D01*
X141589931Y-61075609D01*
X141634659Y-61704253D01*
X141789179Y-62077299D01*
X142035540Y-62183012D01*
X142941053Y-61277500D01*
X143443947Y-61277500D01*
X144349460Y-62183012D01*
X144595821Y-62077299D01*
X144795069Y-61479391D01*
X144750341Y-60850747D01*
X144595821Y-60477701D01*
X144349460Y-60371988D01*
X143443947Y-61277500D01*
X142941053Y-61277500D01*
X142035540Y-60371988D01*
X141789179Y-60477701D01*
X141589931Y-61075609D01*
X140966876Y-61075609D01*
X140966974Y-60963766D01*
X140726302Y-60381295D01*
X140466002Y-60120540D01*
X142286988Y-60120540D01*
X143192500Y-61026053D01*
X143941052Y-60277500D01*
X149216855Y-60277500D01*
X149216855Y-62277500D01*
X149257591Y-62493992D01*
X149385537Y-62692826D01*
X149580761Y-62826217D01*
X149812500Y-62873145D01*
X151812500Y-62873145D01*
X152028992Y-62832409D01*
X152227826Y-62704463D01*
X152361217Y-62509239D01*
X152408145Y-62277500D01*
X152408145Y-61591234D01*
X153038026Y-61591234D01*
X153278698Y-62173705D01*
X153723951Y-62619736D01*
X154306001Y-62861424D01*
X154936234Y-62861974D01*
X155518705Y-62621302D01*
X155705873Y-62434460D01*
X157526988Y-62434460D01*
X157632701Y-62680821D01*
X158230609Y-62880069D01*
X158859253Y-62835341D01*
X159232299Y-62680821D01*
X159338012Y-62434460D01*
X158432500Y-61528947D01*
X157526988Y-62434460D01*
X155705873Y-62434460D01*
X155964736Y-62176049D01*
X156206424Y-61593999D01*
X156206876Y-61075609D01*
X156829931Y-61075609D01*
X156874659Y-61704253D01*
X157029179Y-62077299D01*
X157275540Y-62183012D01*
X158181053Y-61277500D01*
X158683947Y-61277500D01*
X159589460Y-62183012D01*
X159835821Y-62077299D01*
X160035069Y-61479391D01*
X159990341Y-60850747D01*
X159835821Y-60477701D01*
X159589460Y-60371988D01*
X158683947Y-61277500D01*
X158181053Y-61277500D01*
X157275540Y-60371988D01*
X157029179Y-60477701D01*
X156829931Y-61075609D01*
X156206876Y-61075609D01*
X156206974Y-60963766D01*
X155966302Y-60381295D01*
X155706002Y-60120540D01*
X157526988Y-60120540D01*
X158432500Y-61026053D01*
X159181052Y-60277500D01*
X164456855Y-60277500D01*
X164456855Y-62277500D01*
X164497591Y-62493992D01*
X164625537Y-62692826D01*
X164820761Y-62826217D01*
X165052500Y-62873145D01*
X167052500Y-62873145D01*
X167268992Y-62832409D01*
X167467826Y-62704463D01*
X167601217Y-62509239D01*
X167648145Y-62277500D01*
X167648145Y-61591234D01*
X168278026Y-61591234D01*
X168518698Y-62173705D01*
X168963951Y-62619736D01*
X169546001Y-62861424D01*
X170176234Y-62861974D01*
X170758705Y-62621302D01*
X170945873Y-62434460D01*
X172766988Y-62434460D01*
X172872701Y-62680821D01*
X173470609Y-62880069D01*
X174099253Y-62835341D01*
X174472299Y-62680821D01*
X174578012Y-62434460D01*
X173672500Y-61528947D01*
X172766988Y-62434460D01*
X170945873Y-62434460D01*
X171204736Y-62176049D01*
X171446424Y-61593999D01*
X171446876Y-61075609D01*
X172069931Y-61075609D01*
X172114659Y-61704253D01*
X172269179Y-62077299D01*
X172515540Y-62183012D01*
X173421053Y-61277500D01*
X173923947Y-61277500D01*
X174829460Y-62183012D01*
X175075821Y-62077299D01*
X175179003Y-61767666D01*
X178022589Y-61767666D01*
X178071061Y-62301020D01*
X178181912Y-62568638D01*
X178403654Y-62644899D01*
X179136053Y-61912500D01*
X179638947Y-61912500D01*
X180371346Y-62644899D01*
X180593088Y-62568638D01*
X180752411Y-62057334D01*
X180703939Y-61523980D01*
X180593088Y-61256362D01*
X180371346Y-61180101D01*
X179638947Y-61912500D01*
X179136053Y-61912500D01*
X178403654Y-61180101D01*
X178181912Y-61256362D01*
X178022589Y-61767666D01*
X175179003Y-61767666D01*
X175275069Y-61479391D01*
X175235885Y-60928654D01*
X178655101Y-60928654D01*
X179387500Y-61661053D01*
X180119899Y-60928654D01*
X180043638Y-60706912D01*
X179532334Y-60547589D01*
X178998980Y-60596061D01*
X178731362Y-60706912D01*
X178655101Y-60928654D01*
X175235885Y-60928654D01*
X175230341Y-60850747D01*
X175075821Y-60477701D01*
X174829460Y-60371988D01*
X173923947Y-61277500D01*
X173421053Y-61277500D01*
X172515540Y-60371988D01*
X172269179Y-60477701D01*
X172069931Y-61075609D01*
X171446876Y-61075609D01*
X171446974Y-60963766D01*
X171206302Y-60381295D01*
X170946002Y-60120540D01*
X172766988Y-60120540D01*
X173672500Y-61026053D01*
X174342206Y-60356346D01*
X181195101Y-60356346D01*
X181271362Y-60578088D01*
X181782666Y-60737411D01*
X182316020Y-60688939D01*
X182583638Y-60578088D01*
X182659899Y-60356346D01*
X181927500Y-59623947D01*
X181195101Y-60356346D01*
X174342206Y-60356346D01*
X174578012Y-60120540D01*
X174472299Y-59874179D01*
X173874391Y-59674931D01*
X173245747Y-59719659D01*
X172872701Y-59874179D01*
X172766988Y-60120540D01*
X170946002Y-60120540D01*
X170761049Y-59935264D01*
X170178999Y-59693576D01*
X169548766Y-59693026D01*
X168966295Y-59933698D01*
X168520264Y-60378951D01*
X168278576Y-60961001D01*
X168278026Y-61591234D01*
X167648145Y-61591234D01*
X167648145Y-60277500D01*
X167607409Y-60061008D01*
X167479463Y-59862174D01*
X167284239Y-59728783D01*
X167052500Y-59681855D01*
X165052500Y-59681855D01*
X164836008Y-59722591D01*
X164637174Y-59850537D01*
X164503783Y-60045761D01*
X164456855Y-60277500D01*
X159181052Y-60277500D01*
X159338012Y-60120540D01*
X159232299Y-59874179D01*
X158634391Y-59674931D01*
X158005747Y-59719659D01*
X157632701Y-59874179D01*
X157526988Y-60120540D01*
X155706002Y-60120540D01*
X155521049Y-59935264D01*
X154938999Y-59693576D01*
X154308766Y-59693026D01*
X153726295Y-59933698D01*
X153280264Y-60378951D01*
X153038576Y-60961001D01*
X153038026Y-61591234D01*
X152408145Y-61591234D01*
X152408145Y-60277500D01*
X152367409Y-60061008D01*
X152239463Y-59862174D01*
X152044239Y-59728783D01*
X151812500Y-59681855D01*
X149812500Y-59681855D01*
X149596008Y-59722591D01*
X149397174Y-59850537D01*
X149263783Y-60045761D01*
X149216855Y-60277500D01*
X143941052Y-60277500D01*
X144098012Y-60120540D01*
X143992299Y-59874179D01*
X143394391Y-59674931D01*
X142765747Y-59719659D01*
X142392701Y-59874179D01*
X142286988Y-60120540D01*
X140466002Y-60120540D01*
X140281049Y-59935264D01*
X139698999Y-59693576D01*
X139068766Y-59693026D01*
X138486295Y-59933698D01*
X138040264Y-60378951D01*
X137798576Y-60961001D01*
X137798026Y-61591234D01*
X137168145Y-61591234D01*
X137168145Y-60277500D01*
X137127409Y-60061008D01*
X136999463Y-59862174D01*
X136804239Y-59728783D01*
X136572500Y-59681855D01*
X134572500Y-59681855D01*
X134356008Y-59722591D01*
X134157174Y-59850537D01*
X134023783Y-60045761D01*
X133976855Y-60277500D01*
X128701052Y-60277500D01*
X128858012Y-60120540D01*
X128752299Y-59874179D01*
X128154391Y-59674931D01*
X127525747Y-59719659D01*
X127152701Y-59874179D01*
X127046988Y-60120540D01*
X125226002Y-60120540D01*
X125041049Y-59935264D01*
X124458999Y-59693576D01*
X123828766Y-59693026D01*
X123246295Y-59933698D01*
X122800264Y-60378951D01*
X122558576Y-60961001D01*
X122558026Y-61591234D01*
X121928145Y-61591234D01*
X121928145Y-60277500D01*
X121887409Y-60061008D01*
X121759463Y-59862174D01*
X121564239Y-59728783D01*
X121332500Y-59681855D01*
X119332500Y-59681855D01*
X119116008Y-59722591D01*
X118917174Y-59850537D01*
X118783783Y-60045761D01*
X118736855Y-60277500D01*
X113461052Y-60277500D01*
X113618012Y-60120540D01*
X113512299Y-59874179D01*
X112914391Y-59674931D01*
X112285747Y-59719659D01*
X111912701Y-59874179D01*
X111806988Y-60120540D01*
X109986002Y-60120540D01*
X109801049Y-59935264D01*
X109218999Y-59693576D01*
X108588766Y-59693026D01*
X108006295Y-59933698D01*
X107560264Y-60378951D01*
X107318576Y-60961001D01*
X107318026Y-61591234D01*
X106688145Y-61591234D01*
X106688145Y-60277500D01*
X106647409Y-60061008D01*
X106519463Y-59862174D01*
X106324239Y-59728783D01*
X106092500Y-59681855D01*
X104092500Y-59681855D01*
X103876008Y-59722591D01*
X103677174Y-59850537D01*
X103543783Y-60045761D01*
X103496855Y-60277500D01*
X102692200Y-60277500D01*
X102692200Y-59467564D01*
X102932098Y-59227666D01*
X180562589Y-59227666D01*
X180611061Y-59761020D01*
X180721912Y-60028638D01*
X180943654Y-60104899D01*
X181676053Y-59372500D01*
X182178947Y-59372500D01*
X182911346Y-60104899D01*
X183133088Y-60028638D01*
X183292411Y-59517334D01*
X183243939Y-58983980D01*
X183133088Y-58716362D01*
X182911346Y-58640101D01*
X182178947Y-59372500D01*
X181676053Y-59372500D01*
X180943654Y-58640101D01*
X180721912Y-58716362D01*
X180562589Y-59227666D01*
X102932098Y-59227666D01*
X103771110Y-58388654D01*
X181195101Y-58388654D01*
X181927500Y-59121053D01*
X182659899Y-58388654D01*
X182583638Y-58166912D01*
X182072334Y-58007589D01*
X181538980Y-58056061D01*
X181271362Y-58166912D01*
X181195101Y-58388654D01*
X103771110Y-58388654D01*
X105645564Y-56514200D01*
X182898436Y-56514200D01*
X184835800Y-58451564D01*
G36*
X184835800Y-90963564D02*
X184835800Y-121380436D01*
X178784436Y-127431800D01*
X104171564Y-127431800D01*
X102692200Y-125952436D01*
X102692200Y-123417007D01*
X111238935Y-123417007D01*
X111559213Y-124192139D01*
X112151741Y-124785703D01*
X112926313Y-125107333D01*
X113765007Y-125108065D01*
X114540139Y-124787787D01*
X115133703Y-124195259D01*
X115455333Y-123420687D01*
X115455336Y-123417007D01*
X120128935Y-123417007D01*
X120449213Y-124192139D01*
X121041741Y-124785703D01*
X121816313Y-125107333D01*
X122655007Y-125108065D01*
X123430139Y-124787787D01*
X124023703Y-124195259D01*
X124345333Y-123420687D01*
X124345336Y-123417007D01*
X129018935Y-123417007D01*
X129339213Y-124192139D01*
X129931741Y-124785703D01*
X130706313Y-125107333D01*
X131545007Y-125108065D01*
X132320139Y-124787787D01*
X132913703Y-124195259D01*
X133235333Y-123420687D01*
X133235537Y-123186234D01*
X138433026Y-123186234D01*
X138673698Y-123768705D01*
X139118951Y-124214736D01*
X139701001Y-124456424D01*
X140331234Y-124456974D01*
X140913705Y-124216302D01*
X141100873Y-124029460D01*
X142921988Y-124029460D01*
X143027701Y-124275821D01*
X143625609Y-124475069D01*
X144254253Y-124430341D01*
X144627299Y-124275821D01*
X144733012Y-124029460D01*
X143827500Y-123123947D01*
X142921988Y-124029460D01*
X141100873Y-124029460D01*
X141359736Y-123771049D01*
X141601424Y-123188999D01*
X141601876Y-122670609D01*
X142224931Y-122670609D01*
X142269659Y-123299253D01*
X142424179Y-123672299D01*
X142670540Y-123778012D01*
X143576053Y-122872500D01*
X144078947Y-122872500D01*
X144984460Y-123778012D01*
X145230821Y-123672299D01*
X145430069Y-123074391D01*
X145385341Y-122445747D01*
X145230821Y-122072701D01*
X144984460Y-121966988D01*
X144078947Y-122872500D01*
X143576053Y-122872500D01*
X142670540Y-121966988D01*
X142424179Y-122072701D01*
X142224931Y-122670609D01*
X141601876Y-122670609D01*
X141601974Y-122558766D01*
X141361302Y-121976295D01*
X141101002Y-121715540D01*
X142921988Y-121715540D01*
X143827500Y-122621053D01*
X144576052Y-121872500D01*
X146041855Y-121872500D01*
X146041855Y-123872500D01*
X146082591Y-124088992D01*
X146210537Y-124287826D01*
X146405761Y-124421217D01*
X146637500Y-124468145D01*
X148637500Y-124468145D01*
X148853992Y-124427409D01*
X149052826Y-124299463D01*
X149186217Y-124104239D01*
X149233145Y-123872500D01*
X149233145Y-121872500D01*
X149192409Y-121656008D01*
X149064463Y-121457174D01*
X148869239Y-121323783D01*
X148637500Y-121276855D01*
X146637500Y-121276855D01*
X146421008Y-121317591D01*
X146222174Y-121445537D01*
X146088783Y-121640761D01*
X146041855Y-121872500D01*
X144576052Y-121872500D01*
X144733012Y-121715540D01*
X144627299Y-121469179D01*
X144029391Y-121269931D01*
X143400747Y-121314659D01*
X143027701Y-121469179D01*
X142921988Y-121715540D01*
X141101002Y-121715540D01*
X140916049Y-121530264D01*
X140333999Y-121288576D01*
X139703766Y-121288026D01*
X139121295Y-121528698D01*
X138675264Y-121973951D01*
X138433576Y-122556001D01*
X138433026Y-123186234D01*
X133235537Y-123186234D01*
X133236065Y-122581993D01*
X132915787Y-121806861D01*
X132323259Y-121213297D01*
X131548687Y-120891667D01*
X130709993Y-120890935D01*
X129934861Y-121211213D01*
X129341297Y-121803741D01*
X129019667Y-122578313D01*
X129018935Y-123417007D01*
X124345336Y-123417007D01*
X124346065Y-122581993D01*
X124025787Y-121806861D01*
X123433259Y-121213297D01*
X122658687Y-120891667D01*
X121819993Y-120890935D01*
X121044861Y-121211213D01*
X120451297Y-121803741D01*
X120129667Y-122578313D01*
X120128935Y-123417007D01*
X115455336Y-123417007D01*
X115456065Y-122581993D01*
X115135787Y-121806861D01*
X114543259Y-121213297D01*
X113768687Y-120891667D01*
X112929993Y-120890935D01*
X112154861Y-121211213D01*
X111561297Y-121803741D01*
X111239667Y-122578313D01*
X111238935Y-123417007D01*
X102692200Y-123417007D01*
X102692200Y-121951564D01*
X105187564Y-119456200D01*
X125476000Y-119456200D01*
X125505646Y-119450197D01*
X125529882Y-119433882D01*
X130361264Y-114602500D01*
X138771855Y-114602500D01*
X138771855Y-115902500D01*
X138812591Y-116118992D01*
X138940537Y-116317826D01*
X139135761Y-116451217D01*
X139367500Y-116498145D01*
X140667500Y-116498145D01*
X140883992Y-116457409D01*
X141082826Y-116329463D01*
X141190855Y-116171358D01*
X141317469Y-116298193D01*
X141770925Y-116486485D01*
X142261920Y-116486913D01*
X142715705Y-116299414D01*
X143063193Y-115952531D01*
X143251485Y-115499075D01*
X143251913Y-115008080D01*
X143110570Y-114666000D01*
X145058355Y-114666000D01*
X145058355Y-115966000D01*
X145099091Y-116182492D01*
X145227037Y-116381326D01*
X145422261Y-116514717D01*
X145654000Y-116561645D01*
X146954000Y-116561645D01*
X147170492Y-116520909D01*
X147369326Y-116392963D01*
X147477355Y-116234858D01*
X147603969Y-116361693D01*
X148057425Y-116549985D01*
X148548420Y-116550413D01*
X149002205Y-116362914D01*
X149349693Y-116016031D01*
X149537985Y-115562575D01*
X149538413Y-115071580D01*
X149350914Y-114617795D01*
X149004031Y-114270307D01*
X148550575Y-114082015D01*
X148059580Y-114081587D01*
X147605795Y-114269086D01*
X147476113Y-114398542D01*
X147380963Y-114250674D01*
X147185739Y-114117283D01*
X146954000Y-114070355D01*
X145654000Y-114070355D01*
X145437508Y-114111091D01*
X145238674Y-114239037D01*
X145105283Y-114434261D01*
X145058355Y-114666000D01*
X143110570Y-114666000D01*
X143064414Y-114554295D01*
X142717531Y-114206807D01*
X142264075Y-114018515D01*
X141773080Y-114018087D01*
X141319295Y-114205586D01*
X141189613Y-114335042D01*
X141094463Y-114187174D01*
X140899239Y-114053783D01*
X140667500Y-114006855D01*
X139367500Y-114006855D01*
X139151008Y-114047591D01*
X138952174Y-114175537D01*
X138818783Y-114370761D01*
X138771855Y-114602500D01*
X130361264Y-114602500D01*
X138042342Y-106921422D01*
X141503144Y-106921422D01*
X142078041Y-108312777D01*
X143141624Y-109378218D01*
X144531974Y-109955542D01*
X146037422Y-109956856D01*
X147428777Y-109381959D01*
X148494218Y-108318376D01*
X149071542Y-106928026D01*
X149072856Y-105422578D01*
X148497959Y-104031223D01*
X147434376Y-102965782D01*
X146044026Y-102388458D01*
X144538578Y-102387144D01*
X143147223Y-102962041D01*
X142081782Y-104025624D01*
X141504458Y-105415974D01*
X141503144Y-106921422D01*
X138042342Y-106921422D01*
X141785882Y-103177882D01*
X141802599Y-103152673D01*
X141808200Y-103124000D01*
X141808200Y-98583564D01*
X155479564Y-84912200D01*
X178784436Y-84912200D01*
X184835800Y-90963564D01*
X184835800Y-90963564D01*
G37*
X184835800Y-90963564D02*
X184835800Y-121380436D01*
X178784436Y-127431800D01*
X104171564Y-127431800D01*
X102692200Y-125952436D01*
X102692200Y-123417007D01*
X111238935Y-123417007D01*
X111559213Y-124192139D01*
X112151741Y-124785703D01*
X112926313Y-125107333D01*
X113765007Y-125108065D01*
X114540139Y-124787787D01*
X115133703Y-124195259D01*
X115455333Y-123420687D01*
X115455336Y-123417007D01*
X120128935Y-123417007D01*
X120449213Y-124192139D01*
X121041741Y-124785703D01*
X121816313Y-125107333D01*
X122655007Y-125108065D01*
X123430139Y-124787787D01*
X124023703Y-124195259D01*
X124345333Y-123420687D01*
X124345336Y-123417007D01*
X129018935Y-123417007D01*
X129339213Y-124192139D01*
X129931741Y-124785703D01*
X130706313Y-125107333D01*
X131545007Y-125108065D01*
X132320139Y-124787787D01*
X132913703Y-124195259D01*
X133235333Y-123420687D01*
X133235537Y-123186234D01*
X138433026Y-123186234D01*
X138673698Y-123768705D01*
X139118951Y-124214736D01*
X139701001Y-124456424D01*
X140331234Y-124456974D01*
X140913705Y-124216302D01*
X141100873Y-124029460D01*
X142921988Y-124029460D01*
X143027701Y-124275821D01*
X143625609Y-124475069D01*
X144254253Y-124430341D01*
X144627299Y-124275821D01*
X144733012Y-124029460D01*
X143827500Y-123123947D01*
X142921988Y-124029460D01*
X141100873Y-124029460D01*
X141359736Y-123771049D01*
X141601424Y-123188999D01*
X141601876Y-122670609D01*
X142224931Y-122670609D01*
X142269659Y-123299253D01*
X142424179Y-123672299D01*
X142670540Y-123778012D01*
X143576053Y-122872500D01*
X144078947Y-122872500D01*
X144984460Y-123778012D01*
X145230821Y-123672299D01*
X145430069Y-123074391D01*
X145385341Y-122445747D01*
X145230821Y-122072701D01*
X144984460Y-121966988D01*
X144078947Y-122872500D01*
X143576053Y-122872500D01*
X142670540Y-121966988D01*
X142424179Y-122072701D01*
X142224931Y-122670609D01*
X141601876Y-122670609D01*
X141601974Y-122558766D01*
X141361302Y-121976295D01*
X141101002Y-121715540D01*
X142921988Y-121715540D01*
X143827500Y-122621053D01*
X144576052Y-121872500D01*
X146041855Y-121872500D01*
X146041855Y-123872500D01*
X146082591Y-124088992D01*
X146210537Y-124287826D01*
X146405761Y-124421217D01*
X146637500Y-124468145D01*
X148637500Y-124468145D01*
X148853992Y-124427409D01*
X149052826Y-124299463D01*
X149186217Y-124104239D01*
X149233145Y-123872500D01*
X149233145Y-121872500D01*
X149192409Y-121656008D01*
X149064463Y-121457174D01*
X148869239Y-121323783D01*
X148637500Y-121276855D01*
X146637500Y-121276855D01*
X146421008Y-121317591D01*
X146222174Y-121445537D01*
X146088783Y-121640761D01*
X146041855Y-121872500D01*
X144576052Y-121872500D01*
X144733012Y-121715540D01*
X144627299Y-121469179D01*
X144029391Y-121269931D01*
X143400747Y-121314659D01*
X143027701Y-121469179D01*
X142921988Y-121715540D01*
X141101002Y-121715540D01*
X140916049Y-121530264D01*
X140333999Y-121288576D01*
X139703766Y-121288026D01*
X139121295Y-121528698D01*
X138675264Y-121973951D01*
X138433576Y-122556001D01*
X138433026Y-123186234D01*
X133235537Y-123186234D01*
X133236065Y-122581993D01*
X132915787Y-121806861D01*
X132323259Y-121213297D01*
X131548687Y-120891667D01*
X130709993Y-120890935D01*
X129934861Y-121211213D01*
X129341297Y-121803741D01*
X129019667Y-122578313D01*
X129018935Y-123417007D01*
X124345336Y-123417007D01*
X124346065Y-122581993D01*
X124025787Y-121806861D01*
X123433259Y-121213297D01*
X122658687Y-120891667D01*
X121819993Y-120890935D01*
X121044861Y-121211213D01*
X120451297Y-121803741D01*
X120129667Y-122578313D01*
X120128935Y-123417007D01*
X115455336Y-123417007D01*
X115456065Y-122581993D01*
X115135787Y-121806861D01*
X114543259Y-121213297D01*
X113768687Y-120891667D01*
X112929993Y-120890935D01*
X112154861Y-121211213D01*
X111561297Y-121803741D01*
X111239667Y-122578313D01*
X111238935Y-123417007D01*
X102692200Y-123417007D01*
X102692200Y-121951564D01*
X105187564Y-119456200D01*
X125476000Y-119456200D01*
X125505646Y-119450197D01*
X125529882Y-119433882D01*
X130361264Y-114602500D01*
X138771855Y-114602500D01*
X138771855Y-115902500D01*
X138812591Y-116118992D01*
X138940537Y-116317826D01*
X139135761Y-116451217D01*
X139367500Y-116498145D01*
X140667500Y-116498145D01*
X140883992Y-116457409D01*
X141082826Y-116329463D01*
X141190855Y-116171358D01*
X141317469Y-116298193D01*
X141770925Y-116486485D01*
X142261920Y-116486913D01*
X142715705Y-116299414D01*
X143063193Y-115952531D01*
X143251485Y-115499075D01*
X143251913Y-115008080D01*
X143110570Y-114666000D01*
X145058355Y-114666000D01*
X145058355Y-115966000D01*
X145099091Y-116182492D01*
X145227037Y-116381326D01*
X145422261Y-116514717D01*
X145654000Y-116561645D01*
X146954000Y-116561645D01*
X147170492Y-116520909D01*
X147369326Y-116392963D01*
X147477355Y-116234858D01*
X147603969Y-116361693D01*
X148057425Y-116549985D01*
X148548420Y-116550413D01*
X149002205Y-116362914D01*
X149349693Y-116016031D01*
X149537985Y-115562575D01*
X149538413Y-115071580D01*
X149350914Y-114617795D01*
X149004031Y-114270307D01*
X148550575Y-114082015D01*
X148059580Y-114081587D01*
X147605795Y-114269086D01*
X147476113Y-114398542D01*
X147380963Y-114250674D01*
X147185739Y-114117283D01*
X146954000Y-114070355D01*
X145654000Y-114070355D01*
X145437508Y-114111091D01*
X145238674Y-114239037D01*
X145105283Y-114434261D01*
X145058355Y-114666000D01*
X143110570Y-114666000D01*
X143064414Y-114554295D01*
X142717531Y-114206807D01*
X142264075Y-114018515D01*
X141773080Y-114018087D01*
X141319295Y-114205586D01*
X141189613Y-114335042D01*
X141094463Y-114187174D01*
X140899239Y-114053783D01*
X140667500Y-114006855D01*
X139367500Y-114006855D01*
X139151008Y-114047591D01*
X138952174Y-114175537D01*
X138818783Y-114370761D01*
X138771855Y-114602500D01*
X130361264Y-114602500D01*
X138042342Y-106921422D01*
X141503144Y-106921422D01*
X142078041Y-108312777D01*
X143141624Y-109378218D01*
X144531974Y-109955542D01*
X146037422Y-109956856D01*
X147428777Y-109381959D01*
X148494218Y-108318376D01*
X149071542Y-106928026D01*
X149072856Y-105422578D01*
X148497959Y-104031223D01*
X147434376Y-102965782D01*
X146044026Y-102388458D01*
X144538578Y-102387144D01*
X143147223Y-102962041D01*
X142081782Y-104025624D01*
X141504458Y-105415974D01*
X141503144Y-106921422D01*
X138042342Y-106921422D01*
X141785882Y-103177882D01*
X141802599Y-103152673D01*
X141808200Y-103124000D01*
X141808200Y-98583564D01*
X155479564Y-84912200D01*
X178784436Y-84912200D01*
X184835800Y-90963564D01*
G36*
X199567800Y-57943564D02*
X199567800Y-58097453D01*
X199549845Y-58054107D01*
X199339646Y-57991801D01*
X198688947Y-58642500D01*
X198703090Y-58656643D01*
X198451643Y-58908090D01*
X198437500Y-58893947D01*
X198423358Y-58908090D01*
X198171911Y-58656643D01*
X198186053Y-58642500D01*
X197535354Y-57991801D01*
X197325155Y-58054107D01*
X197184658Y-58524572D01*
X197234895Y-59012990D01*
X197325155Y-59230893D01*
X197535352Y-59293198D01*
X197423022Y-59405528D01*
X197500473Y-59482979D01*
X197372174Y-59565537D01*
X197238783Y-59760761D01*
X197191855Y-59992500D01*
X197191855Y-61292500D01*
X197232591Y-61508992D01*
X197360537Y-61707826D01*
X197555761Y-61841217D01*
X197787500Y-61888145D01*
X199087500Y-61888145D01*
X199303992Y-61847409D01*
X199502826Y-61719463D01*
X199567800Y-61624370D01*
X199567800Y-64496106D01*
X199484414Y-64294295D01*
X199137531Y-63946807D01*
X198684075Y-63758515D01*
X198193080Y-63758087D01*
X197739295Y-63945586D01*
X197391807Y-64292469D01*
X197203515Y-64745925D01*
X197203087Y-65236920D01*
X197390586Y-65690705D01*
X197520042Y-65820387D01*
X197372174Y-65915537D01*
X197238783Y-66110761D01*
X197191855Y-66342500D01*
X197191855Y-67642500D01*
X197232591Y-67858992D01*
X197360537Y-68057826D01*
X197555761Y-68191217D01*
X197787500Y-68238145D01*
X199087500Y-68238145D01*
X199303992Y-68197409D01*
X199502826Y-68069463D01*
X199567800Y-67974370D01*
X199567800Y-69056436D01*
X198066118Y-70558118D01*
X198049401Y-70583327D01*
X198043800Y-70612000D01*
X198043800Y-113760436D01*
X196034118Y-115770118D01*
X196017401Y-115795327D01*
X196011800Y-115824000D01*
X196011800Y-125952436D01*
X194532436Y-127431800D01*
X190531564Y-127431800D01*
X187512264Y-124412500D01*
X191761855Y-124412500D01*
X191761855Y-126412500D01*
X191802591Y-126628992D01*
X191930537Y-126827826D01*
X192125761Y-126961217D01*
X192357500Y-127008145D01*
X194357500Y-127008145D01*
X194573992Y-126967409D01*
X194772826Y-126839463D01*
X194906217Y-126644239D01*
X194953145Y-126412500D01*
X194953145Y-124412500D01*
X194912409Y-124196008D01*
X194784463Y-123997174D01*
X194589239Y-123863783D01*
X194357500Y-123816855D01*
X192357500Y-123816855D01*
X192141008Y-123857591D01*
X191942174Y-123985537D01*
X191808783Y-124180761D01*
X191761855Y-124412500D01*
X187512264Y-124412500D01*
X187020200Y-123920436D01*
X187020200Y-121916234D01*
X191773026Y-121916234D01*
X192013698Y-122498705D01*
X192458951Y-122944736D01*
X193041001Y-123186424D01*
X193671234Y-123186974D01*
X194253705Y-122946302D01*
X194699736Y-122501049D01*
X194941424Y-121918999D01*
X194941974Y-121288766D01*
X194701302Y-120706295D01*
X194256049Y-120260264D01*
X193673999Y-120018576D01*
X193043766Y-120018026D01*
X192461295Y-120258698D01*
X192015264Y-120703951D01*
X191773576Y-121286001D01*
X191773026Y-121916234D01*
X187020200Y-121916234D01*
X187020200Y-118949460D01*
X192451988Y-118949460D01*
X192557701Y-119195821D01*
X193155609Y-119395069D01*
X193784253Y-119350341D01*
X194157299Y-119195821D01*
X194263012Y-118949460D01*
X193357500Y-118043947D01*
X192451988Y-118949460D01*
X187020200Y-118949460D01*
X187020200Y-117590609D01*
X191754931Y-117590609D01*
X191799659Y-118219253D01*
X191954179Y-118592299D01*
X192200540Y-118698012D01*
X193106053Y-117792500D01*
X193608947Y-117792500D01*
X194514460Y-118698012D01*
X194760821Y-118592299D01*
X194960069Y-117994391D01*
X194915341Y-117365747D01*
X194760821Y-116992701D01*
X194514460Y-116886988D01*
X193608947Y-117792500D01*
X193106053Y-117792500D01*
X192200540Y-116886988D01*
X191954179Y-116992701D01*
X191754931Y-117590609D01*
X187020200Y-117590609D01*
X187020200Y-116635540D01*
X192451988Y-116635540D01*
X193357500Y-117541053D01*
X194263012Y-116635540D01*
X194157299Y-116389179D01*
X193559391Y-116189931D01*
X192930747Y-116234659D01*
X192557701Y-116389179D01*
X192451988Y-116635540D01*
X187020200Y-116635540D01*
X187020200Y-109807500D01*
X191761855Y-109807500D01*
X191761855Y-111807500D01*
X191802591Y-112023992D01*
X191930537Y-112222826D01*
X192125761Y-112356217D01*
X192357500Y-112403145D01*
X194357500Y-112403145D01*
X194573992Y-112362409D01*
X194772826Y-112234463D01*
X194906217Y-112039239D01*
X194953145Y-111807500D01*
X194953145Y-109807500D01*
X194912409Y-109591008D01*
X194784463Y-109392174D01*
X194589239Y-109258783D01*
X194357500Y-109211855D01*
X192357500Y-109211855D01*
X192141008Y-109252591D01*
X191942174Y-109380537D01*
X191808783Y-109575761D01*
X191761855Y-109807500D01*
X187020200Y-109807500D01*
X187020200Y-107311234D01*
X191773026Y-107311234D01*
X192013698Y-107893705D01*
X192458951Y-108339736D01*
X193041001Y-108581424D01*
X193671234Y-108581974D01*
X194253705Y-108341302D01*
X194699736Y-107896049D01*
X194941424Y-107313999D01*
X194941974Y-106683766D01*
X194701302Y-106101295D01*
X194256049Y-105655264D01*
X193673999Y-105413576D01*
X193043766Y-105413026D01*
X192461295Y-105653698D01*
X192015264Y-106098951D01*
X191773576Y-106681001D01*
X191773026Y-107311234D01*
X187020200Y-107311234D01*
X187020200Y-104344460D01*
X192451988Y-104344460D01*
X192557701Y-104590821D01*
X193155609Y-104790069D01*
X193784253Y-104745341D01*
X194157299Y-104590821D01*
X194263012Y-104344460D01*
X193357500Y-103438947D01*
X192451988Y-104344460D01*
X187020200Y-104344460D01*
X187020200Y-102985609D01*
X191754931Y-102985609D01*
X191799659Y-103614253D01*
X191954179Y-103987299D01*
X192200540Y-104093012D01*
X193106053Y-103187500D01*
X193608947Y-103187500D01*
X194514460Y-104093012D01*
X194760821Y-103987299D01*
X194960069Y-103389391D01*
X194915341Y-102760747D01*
X194760821Y-102387701D01*
X194514460Y-102281988D01*
X193608947Y-103187500D01*
X193106053Y-103187500D01*
X192200540Y-102281988D01*
X191954179Y-102387701D01*
X191754931Y-102985609D01*
X187020200Y-102985609D01*
X187020200Y-102030540D01*
X192451988Y-102030540D01*
X193357500Y-102936053D01*
X194263012Y-102030540D01*
X194157299Y-101784179D01*
X193559391Y-101584931D01*
X192930747Y-101629659D01*
X192557701Y-101784179D01*
X192451988Y-102030540D01*
X187020200Y-102030540D01*
X187020200Y-95202500D01*
X191761855Y-95202500D01*
X191761855Y-97202500D01*
X191802591Y-97418992D01*
X191930537Y-97617826D01*
X192125761Y-97751217D01*
X192357500Y-97798145D01*
X194357500Y-97798145D01*
X194573992Y-97757409D01*
X194772826Y-97629463D01*
X194906217Y-97434239D01*
X194953145Y-97202500D01*
X194953145Y-95202500D01*
X194912409Y-94986008D01*
X194784463Y-94787174D01*
X194589239Y-94653783D01*
X194357500Y-94606855D01*
X192357500Y-94606855D01*
X192141008Y-94647591D01*
X191942174Y-94775537D01*
X191808783Y-94970761D01*
X191761855Y-95202500D01*
X187020200Y-95202500D01*
X187020200Y-92706234D01*
X191773026Y-92706234D01*
X192013698Y-93288705D01*
X192458951Y-93734736D01*
X193041001Y-93976424D01*
X193671234Y-93976974D01*
X194253705Y-93736302D01*
X194699736Y-93291049D01*
X194941424Y-92708999D01*
X194941974Y-92078766D01*
X194701302Y-91496295D01*
X194256049Y-91050264D01*
X193673999Y-90808576D01*
X193043766Y-90808026D01*
X192461295Y-91048698D01*
X192015264Y-91493951D01*
X191773576Y-92076001D01*
X191773026Y-92706234D01*
X187020200Y-92706234D01*
X187020200Y-89739460D01*
X192451988Y-89739460D01*
X192557701Y-89985821D01*
X193155609Y-90185069D01*
X193784253Y-90140341D01*
X194157299Y-89985821D01*
X194263012Y-89739460D01*
X193357500Y-88833947D01*
X192451988Y-89739460D01*
X187020200Y-89739460D01*
X187020200Y-88380609D01*
X191754931Y-88380609D01*
X191799659Y-89009253D01*
X191954179Y-89382299D01*
X192200540Y-89488012D01*
X193106053Y-88582500D01*
X193608947Y-88582500D01*
X194514460Y-89488012D01*
X194760821Y-89382299D01*
X194960069Y-88784391D01*
X194915341Y-88155747D01*
X194760821Y-87782701D01*
X194514460Y-87676988D01*
X193608947Y-88582500D01*
X193106053Y-88582500D01*
X192200540Y-87676988D01*
X191954179Y-87782701D01*
X191754931Y-88380609D01*
X187020200Y-88380609D01*
X187020200Y-87425540D01*
X192451988Y-87425540D01*
X193357500Y-88331053D01*
X194263012Y-87425540D01*
X194157299Y-87179179D01*
X193559391Y-86979931D01*
X192930747Y-87024659D01*
X192557701Y-87179179D01*
X192451988Y-87425540D01*
X187020200Y-87425540D01*
X187020200Y-80597500D01*
X191761855Y-80597500D01*
X191761855Y-82597500D01*
X191802591Y-82813992D01*
X191930537Y-83012826D01*
X192125761Y-83146217D01*
X192357500Y-83193145D01*
X194357500Y-83193145D01*
X194573992Y-83152409D01*
X194772826Y-83024463D01*
X194906217Y-82829239D01*
X194953145Y-82597500D01*
X194953145Y-80597500D01*
X194912409Y-80381008D01*
X194784463Y-80182174D01*
X194589239Y-80048783D01*
X194357500Y-80001855D01*
X192357500Y-80001855D01*
X192141008Y-80042591D01*
X191942174Y-80170537D01*
X191808783Y-80365761D01*
X191761855Y-80597500D01*
X187020200Y-80597500D01*
X187020200Y-78101234D01*
X191773026Y-78101234D01*
X192013698Y-78683705D01*
X192458951Y-79129736D01*
X193041001Y-79371424D01*
X193671234Y-79371974D01*
X194253705Y-79131302D01*
X194699736Y-78686049D01*
X194941424Y-78103999D01*
X194941974Y-77473766D01*
X194701302Y-76891295D01*
X194256049Y-76445264D01*
X193673999Y-76203576D01*
X193043766Y-76203026D01*
X192461295Y-76443698D01*
X192015264Y-76888951D01*
X191773576Y-77471001D01*
X191773026Y-78101234D01*
X187020200Y-78101234D01*
X187020200Y-75134460D01*
X192451988Y-75134460D01*
X192557701Y-75380821D01*
X193155609Y-75580069D01*
X193784253Y-75535341D01*
X194157299Y-75380821D01*
X194263012Y-75134460D01*
X193357500Y-74228947D01*
X192451988Y-75134460D01*
X187020200Y-75134460D01*
X187020200Y-73775609D01*
X191754931Y-73775609D01*
X191799659Y-74404253D01*
X191954179Y-74777299D01*
X192200540Y-74883012D01*
X193106053Y-73977500D01*
X193608947Y-73977500D01*
X194514460Y-74883012D01*
X194760821Y-74777299D01*
X194960069Y-74179391D01*
X194915341Y-73550747D01*
X194760821Y-73177701D01*
X194514460Y-73071988D01*
X193608947Y-73977500D01*
X193106053Y-73977500D01*
X192200540Y-73071988D01*
X191954179Y-73177701D01*
X191754931Y-73775609D01*
X187020200Y-73775609D01*
X187020200Y-72820540D01*
X192451988Y-72820540D01*
X193357500Y-73726053D01*
X194263012Y-72820540D01*
X194157299Y-72574179D01*
X193559391Y-72374931D01*
X192930747Y-72419659D01*
X192557701Y-72574179D01*
X192451988Y-72820540D01*
X187020200Y-72820540D01*
X187020200Y-65992500D01*
X191761855Y-65992500D01*
X191761855Y-67992500D01*
X191802591Y-68208992D01*
X191930537Y-68407826D01*
X192125761Y-68541217D01*
X192357500Y-68588145D01*
X194357500Y-68588145D01*
X194573992Y-68547409D01*
X194772826Y-68419463D01*
X194906217Y-68224239D01*
X194953145Y-67992500D01*
X194953145Y-65992500D01*
X194912409Y-65776008D01*
X194784463Y-65577174D01*
X194589239Y-65443783D01*
X194357500Y-65396855D01*
X192357500Y-65396855D01*
X192141008Y-65437591D01*
X191942174Y-65565537D01*
X191808783Y-65760761D01*
X191761855Y-65992500D01*
X187020200Y-65992500D01*
X187020200Y-63496234D01*
X191773026Y-63496234D01*
X192013698Y-64078705D01*
X192458951Y-64524736D01*
X193041001Y-64766424D01*
X193671234Y-64766974D01*
X194253705Y-64526302D01*
X194699736Y-64081049D01*
X194941424Y-63498999D01*
X194941974Y-62868766D01*
X194701302Y-62286295D01*
X194256049Y-61840264D01*
X193673999Y-61598576D01*
X193043766Y-61598026D01*
X192461295Y-61838698D01*
X192015264Y-62283951D01*
X191773576Y-62866001D01*
X191773026Y-63496234D01*
X187020200Y-63496234D01*
X187020200Y-60529460D01*
X192451988Y-60529460D01*
X192557701Y-60775821D01*
X193155609Y-60975069D01*
X193784253Y-60930341D01*
X194157299Y-60775821D01*
X194263012Y-60529460D01*
X193357500Y-59623947D01*
X192451988Y-60529460D01*
X187020200Y-60529460D01*
X187020200Y-60483564D01*
X188333155Y-59170609D01*
X191754931Y-59170609D01*
X191799659Y-59799253D01*
X191954179Y-60172299D01*
X192200540Y-60278012D01*
X193106053Y-59372500D01*
X193608947Y-59372500D01*
X194514460Y-60278012D01*
X194760821Y-60172299D01*
X194960069Y-59574391D01*
X194915341Y-58945747D01*
X194760821Y-58572701D01*
X194514460Y-58466988D01*
X193608947Y-59372500D01*
X193106053Y-59372500D01*
X192200540Y-58466988D01*
X191954179Y-58572701D01*
X191754931Y-59170609D01*
X188333155Y-59170609D01*
X189288224Y-58215540D01*
X192451988Y-58215540D01*
X193357500Y-59121053D01*
X194263012Y-58215540D01*
X194157299Y-57969179D01*
X193559391Y-57769931D01*
X192930747Y-57814659D01*
X192557701Y-57969179D01*
X192451988Y-58215540D01*
X189288224Y-58215540D01*
X189763410Y-57740354D01*
X197786801Y-57740354D01*
X198437500Y-58391053D01*
X199088199Y-57740354D01*
X199025893Y-57530155D01*
X198555428Y-57389658D01*
X198067010Y-57439895D01*
X197849107Y-57530155D01*
X197786801Y-57740354D01*
X189763410Y-57740354D01*
X190531564Y-56972200D01*
X198596436Y-56972200D01*
X199567800Y-57943564D01*
X199567800Y-57943564D01*
G37*
X199567800Y-57943564D02*
X199567800Y-58097453D01*
X199549845Y-58054107D01*
X199339646Y-57991801D01*
X198688947Y-58642500D01*
X198703090Y-58656643D01*
X198451643Y-58908090D01*
X198437500Y-58893947D01*
X198423358Y-58908090D01*
X198171911Y-58656643D01*
X198186053Y-58642500D01*
X197535354Y-57991801D01*
X197325155Y-58054107D01*
X197184658Y-58524572D01*
X197234895Y-59012990D01*
X197325155Y-59230893D01*
X197535352Y-59293198D01*
X197423022Y-59405528D01*
X197500473Y-59482979D01*
X197372174Y-59565537D01*
X197238783Y-59760761D01*
X197191855Y-59992500D01*
X197191855Y-61292500D01*
X197232591Y-61508992D01*
X197360537Y-61707826D01*
X197555761Y-61841217D01*
X197787500Y-61888145D01*
X199087500Y-61888145D01*
X199303992Y-61847409D01*
X199502826Y-61719463D01*
X199567800Y-61624370D01*
X199567800Y-64496106D01*
X199484414Y-64294295D01*
X199137531Y-63946807D01*
X198684075Y-63758515D01*
X198193080Y-63758087D01*
X197739295Y-63945586D01*
X197391807Y-64292469D01*
X197203515Y-64745925D01*
X197203087Y-65236920D01*
X197390586Y-65690705D01*
X197520042Y-65820387D01*
X197372174Y-65915537D01*
X197238783Y-66110761D01*
X197191855Y-66342500D01*
X197191855Y-67642500D01*
X197232591Y-67858992D01*
X197360537Y-68057826D01*
X197555761Y-68191217D01*
X197787500Y-68238145D01*
X199087500Y-68238145D01*
X199303992Y-68197409D01*
X199502826Y-68069463D01*
X199567800Y-67974370D01*
X199567800Y-69056436D01*
X198066118Y-70558118D01*
X198049401Y-70583327D01*
X198043800Y-70612000D01*
X198043800Y-113760436D01*
X196034118Y-115770118D01*
X196017401Y-115795327D01*
X196011800Y-115824000D01*
X196011800Y-125952436D01*
X194532436Y-127431800D01*
X190531564Y-127431800D01*
X187512264Y-124412500D01*
X191761855Y-124412500D01*
X191761855Y-126412500D01*
X191802591Y-126628992D01*
X191930537Y-126827826D01*
X192125761Y-126961217D01*
X192357500Y-127008145D01*
X194357500Y-127008145D01*
X194573992Y-126967409D01*
X194772826Y-126839463D01*
X194906217Y-126644239D01*
X194953145Y-126412500D01*
X194953145Y-124412500D01*
X194912409Y-124196008D01*
X194784463Y-123997174D01*
X194589239Y-123863783D01*
X194357500Y-123816855D01*
X192357500Y-123816855D01*
X192141008Y-123857591D01*
X191942174Y-123985537D01*
X191808783Y-124180761D01*
X191761855Y-124412500D01*
X187512264Y-124412500D01*
X187020200Y-123920436D01*
X187020200Y-121916234D01*
X191773026Y-121916234D01*
X192013698Y-122498705D01*
X192458951Y-122944736D01*
X193041001Y-123186424D01*
X193671234Y-123186974D01*
X194253705Y-122946302D01*
X194699736Y-122501049D01*
X194941424Y-121918999D01*
X194941974Y-121288766D01*
X194701302Y-120706295D01*
X194256049Y-120260264D01*
X193673999Y-120018576D01*
X193043766Y-120018026D01*
X192461295Y-120258698D01*
X192015264Y-120703951D01*
X191773576Y-121286001D01*
X191773026Y-121916234D01*
X187020200Y-121916234D01*
X187020200Y-118949460D01*
X192451988Y-118949460D01*
X192557701Y-119195821D01*
X193155609Y-119395069D01*
X193784253Y-119350341D01*
X194157299Y-119195821D01*
X194263012Y-118949460D01*
X193357500Y-118043947D01*
X192451988Y-118949460D01*
X187020200Y-118949460D01*
X187020200Y-117590609D01*
X191754931Y-117590609D01*
X191799659Y-118219253D01*
X191954179Y-118592299D01*
X192200540Y-118698012D01*
X193106053Y-117792500D01*
X193608947Y-117792500D01*
X194514460Y-118698012D01*
X194760821Y-118592299D01*
X194960069Y-117994391D01*
X194915341Y-117365747D01*
X194760821Y-116992701D01*
X194514460Y-116886988D01*
X193608947Y-117792500D01*
X193106053Y-117792500D01*
X192200540Y-116886988D01*
X191954179Y-116992701D01*
X191754931Y-117590609D01*
X187020200Y-117590609D01*
X187020200Y-116635540D01*
X192451988Y-116635540D01*
X193357500Y-117541053D01*
X194263012Y-116635540D01*
X194157299Y-116389179D01*
X193559391Y-116189931D01*
X192930747Y-116234659D01*
X192557701Y-116389179D01*
X192451988Y-116635540D01*
X187020200Y-116635540D01*
X187020200Y-109807500D01*
X191761855Y-109807500D01*
X191761855Y-111807500D01*
X191802591Y-112023992D01*
X191930537Y-112222826D01*
X192125761Y-112356217D01*
X192357500Y-112403145D01*
X194357500Y-112403145D01*
X194573992Y-112362409D01*
X194772826Y-112234463D01*
X194906217Y-112039239D01*
X194953145Y-111807500D01*
X194953145Y-109807500D01*
X194912409Y-109591008D01*
X194784463Y-109392174D01*
X194589239Y-109258783D01*
X194357500Y-109211855D01*
X192357500Y-109211855D01*
X192141008Y-109252591D01*
X191942174Y-109380537D01*
X191808783Y-109575761D01*
X191761855Y-109807500D01*
X187020200Y-109807500D01*
X187020200Y-107311234D01*
X191773026Y-107311234D01*
X192013698Y-107893705D01*
X192458951Y-108339736D01*
X193041001Y-108581424D01*
X193671234Y-108581974D01*
X194253705Y-108341302D01*
X194699736Y-107896049D01*
X194941424Y-107313999D01*
X194941974Y-106683766D01*
X194701302Y-106101295D01*
X194256049Y-105655264D01*
X193673999Y-105413576D01*
X193043766Y-105413026D01*
X192461295Y-105653698D01*
X192015264Y-106098951D01*
X191773576Y-106681001D01*
X191773026Y-107311234D01*
X187020200Y-107311234D01*
X187020200Y-104344460D01*
X192451988Y-104344460D01*
X192557701Y-104590821D01*
X193155609Y-104790069D01*
X193784253Y-104745341D01*
X194157299Y-104590821D01*
X194263012Y-104344460D01*
X193357500Y-103438947D01*
X192451988Y-104344460D01*
X187020200Y-104344460D01*
X187020200Y-102985609D01*
X191754931Y-102985609D01*
X191799659Y-103614253D01*
X191954179Y-103987299D01*
X192200540Y-104093012D01*
X193106053Y-103187500D01*
X193608947Y-103187500D01*
X194514460Y-104093012D01*
X194760821Y-103987299D01*
X194960069Y-103389391D01*
X194915341Y-102760747D01*
X194760821Y-102387701D01*
X194514460Y-102281988D01*
X193608947Y-103187500D01*
X193106053Y-103187500D01*
X192200540Y-102281988D01*
X191954179Y-102387701D01*
X191754931Y-102985609D01*
X187020200Y-102985609D01*
X187020200Y-102030540D01*
X192451988Y-102030540D01*
X193357500Y-102936053D01*
X194263012Y-102030540D01*
X194157299Y-101784179D01*
X193559391Y-101584931D01*
X192930747Y-101629659D01*
X192557701Y-101784179D01*
X192451988Y-102030540D01*
X187020200Y-102030540D01*
X187020200Y-95202500D01*
X191761855Y-95202500D01*
X191761855Y-97202500D01*
X191802591Y-97418992D01*
X191930537Y-97617826D01*
X192125761Y-97751217D01*
X192357500Y-97798145D01*
X194357500Y-97798145D01*
X194573992Y-97757409D01*
X194772826Y-97629463D01*
X194906217Y-97434239D01*
X194953145Y-97202500D01*
X194953145Y-95202500D01*
X194912409Y-94986008D01*
X194784463Y-94787174D01*
X194589239Y-94653783D01*
X194357500Y-94606855D01*
X192357500Y-94606855D01*
X192141008Y-94647591D01*
X191942174Y-94775537D01*
X191808783Y-94970761D01*
X191761855Y-95202500D01*
X187020200Y-95202500D01*
X187020200Y-92706234D01*
X191773026Y-92706234D01*
X192013698Y-93288705D01*
X192458951Y-93734736D01*
X193041001Y-93976424D01*
X193671234Y-93976974D01*
X194253705Y-93736302D01*
X194699736Y-93291049D01*
X194941424Y-92708999D01*
X194941974Y-92078766D01*
X194701302Y-91496295D01*
X194256049Y-91050264D01*
X193673999Y-90808576D01*
X193043766Y-90808026D01*
X192461295Y-91048698D01*
X192015264Y-91493951D01*
X191773576Y-92076001D01*
X191773026Y-92706234D01*
X187020200Y-92706234D01*
X187020200Y-89739460D01*
X192451988Y-89739460D01*
X192557701Y-89985821D01*
X193155609Y-90185069D01*
X193784253Y-90140341D01*
X194157299Y-89985821D01*
X194263012Y-89739460D01*
X193357500Y-88833947D01*
X192451988Y-89739460D01*
X187020200Y-89739460D01*
X187020200Y-88380609D01*
X191754931Y-88380609D01*
X191799659Y-89009253D01*
X191954179Y-89382299D01*
X192200540Y-89488012D01*
X193106053Y-88582500D01*
X193608947Y-88582500D01*
X194514460Y-89488012D01*
X194760821Y-89382299D01*
X194960069Y-88784391D01*
X194915341Y-88155747D01*
X194760821Y-87782701D01*
X194514460Y-87676988D01*
X193608947Y-88582500D01*
X193106053Y-88582500D01*
X192200540Y-87676988D01*
X191954179Y-87782701D01*
X191754931Y-88380609D01*
X187020200Y-88380609D01*
X187020200Y-87425540D01*
X192451988Y-87425540D01*
X193357500Y-88331053D01*
X194263012Y-87425540D01*
X194157299Y-87179179D01*
X193559391Y-86979931D01*
X192930747Y-87024659D01*
X192557701Y-87179179D01*
X192451988Y-87425540D01*
X187020200Y-87425540D01*
X187020200Y-80597500D01*
X191761855Y-80597500D01*
X191761855Y-82597500D01*
X191802591Y-82813992D01*
X191930537Y-83012826D01*
X192125761Y-83146217D01*
X192357500Y-83193145D01*
X194357500Y-83193145D01*
X194573992Y-83152409D01*
X194772826Y-83024463D01*
X194906217Y-82829239D01*
X194953145Y-82597500D01*
X194953145Y-80597500D01*
X194912409Y-80381008D01*
X194784463Y-80182174D01*
X194589239Y-80048783D01*
X194357500Y-80001855D01*
X192357500Y-80001855D01*
X192141008Y-80042591D01*
X191942174Y-80170537D01*
X191808783Y-80365761D01*
X191761855Y-80597500D01*
X187020200Y-80597500D01*
X187020200Y-78101234D01*
X191773026Y-78101234D01*
X192013698Y-78683705D01*
X192458951Y-79129736D01*
X193041001Y-79371424D01*
X193671234Y-79371974D01*
X194253705Y-79131302D01*
X194699736Y-78686049D01*
X194941424Y-78103999D01*
X194941974Y-77473766D01*
X194701302Y-76891295D01*
X194256049Y-76445264D01*
X193673999Y-76203576D01*
X193043766Y-76203026D01*
X192461295Y-76443698D01*
X192015264Y-76888951D01*
X191773576Y-77471001D01*
X191773026Y-78101234D01*
X187020200Y-78101234D01*
X187020200Y-75134460D01*
X192451988Y-75134460D01*
X192557701Y-75380821D01*
X193155609Y-75580069D01*
X193784253Y-75535341D01*
X194157299Y-75380821D01*
X194263012Y-75134460D01*
X193357500Y-74228947D01*
X192451988Y-75134460D01*
X187020200Y-75134460D01*
X187020200Y-73775609D01*
X191754931Y-73775609D01*
X191799659Y-74404253D01*
X191954179Y-74777299D01*
X192200540Y-74883012D01*
X193106053Y-73977500D01*
X193608947Y-73977500D01*
X194514460Y-74883012D01*
X194760821Y-74777299D01*
X194960069Y-74179391D01*
X194915341Y-73550747D01*
X194760821Y-73177701D01*
X194514460Y-73071988D01*
X193608947Y-73977500D01*
X193106053Y-73977500D01*
X192200540Y-73071988D01*
X191954179Y-73177701D01*
X191754931Y-73775609D01*
X187020200Y-73775609D01*
X187020200Y-72820540D01*
X192451988Y-72820540D01*
X193357500Y-73726053D01*
X194263012Y-72820540D01*
X194157299Y-72574179D01*
X193559391Y-72374931D01*
X192930747Y-72419659D01*
X192557701Y-72574179D01*
X192451988Y-72820540D01*
X187020200Y-72820540D01*
X187020200Y-65992500D01*
X191761855Y-65992500D01*
X191761855Y-67992500D01*
X191802591Y-68208992D01*
X191930537Y-68407826D01*
X192125761Y-68541217D01*
X192357500Y-68588145D01*
X194357500Y-68588145D01*
X194573992Y-68547409D01*
X194772826Y-68419463D01*
X194906217Y-68224239D01*
X194953145Y-67992500D01*
X194953145Y-65992500D01*
X194912409Y-65776008D01*
X194784463Y-65577174D01*
X194589239Y-65443783D01*
X194357500Y-65396855D01*
X192357500Y-65396855D01*
X192141008Y-65437591D01*
X191942174Y-65565537D01*
X191808783Y-65760761D01*
X191761855Y-65992500D01*
X187020200Y-65992500D01*
X187020200Y-63496234D01*
X191773026Y-63496234D01*
X192013698Y-64078705D01*
X192458951Y-64524736D01*
X193041001Y-64766424D01*
X193671234Y-64766974D01*
X194253705Y-64526302D01*
X194699736Y-64081049D01*
X194941424Y-63498999D01*
X194941974Y-62868766D01*
X194701302Y-62286295D01*
X194256049Y-61840264D01*
X193673999Y-61598576D01*
X193043766Y-61598026D01*
X192461295Y-61838698D01*
X192015264Y-62283951D01*
X191773576Y-62866001D01*
X191773026Y-63496234D01*
X187020200Y-63496234D01*
X187020200Y-60529460D01*
X192451988Y-60529460D01*
X192557701Y-60775821D01*
X193155609Y-60975069D01*
X193784253Y-60930341D01*
X194157299Y-60775821D01*
X194263012Y-60529460D01*
X193357500Y-59623947D01*
X192451988Y-60529460D01*
X187020200Y-60529460D01*
X187020200Y-60483564D01*
X188333155Y-59170609D01*
X191754931Y-59170609D01*
X191799659Y-59799253D01*
X191954179Y-60172299D01*
X192200540Y-60278012D01*
X193106053Y-59372500D01*
X193608947Y-59372500D01*
X194514460Y-60278012D01*
X194760821Y-60172299D01*
X194960069Y-59574391D01*
X194915341Y-58945747D01*
X194760821Y-58572701D01*
X194514460Y-58466988D01*
X193608947Y-59372500D01*
X193106053Y-59372500D01*
X192200540Y-58466988D01*
X191954179Y-58572701D01*
X191754931Y-59170609D01*
X188333155Y-59170609D01*
X189288224Y-58215540D01*
X192451988Y-58215540D01*
X193357500Y-59121053D01*
X194263012Y-58215540D01*
X194157299Y-57969179D01*
X193559391Y-57769931D01*
X192930747Y-57814659D01*
X192557701Y-57969179D01*
X192451988Y-58215540D01*
X189288224Y-58215540D01*
X189763410Y-57740354D01*
X197786801Y-57740354D01*
X198437500Y-58391053D01*
X199088199Y-57740354D01*
X199025893Y-57530155D01*
X198555428Y-57389658D01*
X198067010Y-57439895D01*
X197849107Y-57530155D01*
X197786801Y-57740354D01*
X189763410Y-57740354D01*
X190531564Y-56972200D01*
X198596436Y-56972200D01*
X199567800Y-57943564D01*
G36*
X211201800Y-59417564D02*
X211201800Y-125494436D01*
X209264436Y-127431800D01*
X201199564Y-127431800D01*
X200351838Y-126584074D01*
X200730925Y-126741485D01*
X201221920Y-126741913D01*
X201675705Y-126554414D01*
X202023193Y-126207531D01*
X202211485Y-125754075D01*
X202211509Y-125726234D01*
X204473026Y-125726234D01*
X204713698Y-126308705D01*
X205158951Y-126754736D01*
X205741001Y-126996424D01*
X206371234Y-126996974D01*
X206953705Y-126756302D01*
X207399736Y-126311049D01*
X207641424Y-125728999D01*
X207641974Y-125098766D01*
X207401302Y-124516295D01*
X206956049Y-124070264D01*
X206373999Y-123828576D01*
X205743766Y-123828026D01*
X205161295Y-124068698D01*
X204715264Y-124513951D01*
X204473576Y-125096001D01*
X204473026Y-125726234D01*
X202211509Y-125726234D01*
X202211913Y-125263080D01*
X202024414Y-124809295D01*
X201894958Y-124679613D01*
X202042826Y-124584463D01*
X202176217Y-124389239D01*
X202223145Y-124157500D01*
X202223145Y-122857500D01*
X202182409Y-122641008D01*
X202054463Y-122442174D01*
X201859239Y-122308783D01*
X201627500Y-122261855D01*
X200327500Y-122261855D01*
X200111008Y-122302591D01*
X199912174Y-122430537D01*
X199778783Y-122625761D01*
X199731855Y-122857500D01*
X199731855Y-124157500D01*
X199772591Y-124373992D01*
X199900537Y-124572826D01*
X200058642Y-124680855D01*
X199931807Y-124807469D01*
X199743515Y-125260925D01*
X199743087Y-125751920D01*
X199900391Y-126132627D01*
X199720200Y-125952436D01*
X199720200Y-121916234D01*
X204473026Y-121916234D01*
X204713698Y-122498705D01*
X205158951Y-122944736D01*
X205741001Y-123186424D01*
X206371234Y-123186974D01*
X206953705Y-122946302D01*
X207399736Y-122501049D01*
X207641424Y-121918999D01*
X207641974Y-121288766D01*
X207401302Y-120706295D01*
X206956049Y-120260264D01*
X206373999Y-120018576D01*
X205743766Y-120018026D01*
X205161295Y-120258698D01*
X204715264Y-120703951D01*
X204473576Y-121286001D01*
X204473026Y-121916234D01*
X199720200Y-121916234D01*
X199720200Y-119401920D01*
X199743087Y-119401920D01*
X199930586Y-119855705D01*
X200277469Y-120203193D01*
X200730925Y-120391485D01*
X201221920Y-120391913D01*
X201675705Y-120204414D01*
X202023193Y-119857531D01*
X202211485Y-119404075D01*
X202211913Y-118913080D01*
X202024414Y-118459295D01*
X201894559Y-118329214D01*
X201958422Y-118302761D01*
X202122761Y-118138423D01*
X202131903Y-118116350D01*
X204473300Y-118116350D01*
X204473300Y-118908705D01*
X204562239Y-119123423D01*
X204726578Y-119287761D01*
X204941296Y-119376700D01*
X205733650Y-119376700D01*
X205879700Y-119230650D01*
X205879700Y-117970300D01*
X206235300Y-117970300D01*
X206235300Y-119230650D01*
X206381350Y-119376700D01*
X207173704Y-119376700D01*
X207388422Y-119287761D01*
X207552761Y-119123423D01*
X207641700Y-118908705D01*
X207641700Y-118116350D01*
X207495650Y-117970300D01*
X206235300Y-117970300D01*
X205879700Y-117970300D01*
X204619350Y-117970300D01*
X204473300Y-118116350D01*
X202131903Y-118116350D01*
X202211700Y-117923705D01*
X202211700Y-117481350D01*
X202065650Y-117335300D01*
X201155300Y-117335300D01*
X201155300Y-117355300D01*
X200799700Y-117355300D01*
X200799700Y-117335300D01*
X199889350Y-117335300D01*
X199743300Y-117481350D01*
X199743300Y-117923705D01*
X199832239Y-118138423D01*
X199996578Y-118302761D01*
X200060331Y-118329168D01*
X199931807Y-118457469D01*
X199743515Y-118910925D01*
X199743087Y-119401920D01*
X199720200Y-119401920D01*
X199720200Y-116363564D01*
X199779243Y-116304521D01*
X199743300Y-116391295D01*
X199743300Y-116833650D01*
X199889350Y-116979700D01*
X200799700Y-116979700D01*
X200799700Y-116069350D01*
X201155300Y-116069350D01*
X201155300Y-116979700D01*
X202065650Y-116979700D01*
X202211700Y-116833650D01*
X202211700Y-116676295D01*
X204473300Y-116676295D01*
X204473300Y-117468650D01*
X204619350Y-117614700D01*
X205879700Y-117614700D01*
X205879700Y-116354350D01*
X206235300Y-116354350D01*
X206235300Y-117614700D01*
X207495650Y-117614700D01*
X207641700Y-117468650D01*
X207641700Y-116676295D01*
X207552761Y-116461577D01*
X207388422Y-116297239D01*
X207173704Y-116208300D01*
X206381350Y-116208300D01*
X206235300Y-116354350D01*
X205879700Y-116354350D01*
X205733650Y-116208300D01*
X204941296Y-116208300D01*
X204726578Y-116297239D01*
X204562239Y-116461577D01*
X204473300Y-116676295D01*
X202211700Y-116676295D01*
X202211700Y-116391295D01*
X202122761Y-116176577D01*
X201958422Y-116012239D01*
X201743704Y-115923300D01*
X201301350Y-115923300D01*
X201155300Y-116069350D01*
X200799700Y-116069350D01*
X200653650Y-115923300D01*
X200211296Y-115923300D01*
X200124520Y-115959244D01*
X201729882Y-114353882D01*
X201746599Y-114328673D01*
X201752200Y-114300000D01*
X201752200Y-111121234D01*
X204473026Y-111121234D01*
X204713698Y-111703705D01*
X205158951Y-112149736D01*
X205741001Y-112391424D01*
X206371234Y-112391974D01*
X206953705Y-112151302D01*
X207399736Y-111706049D01*
X207641424Y-111123999D01*
X207641974Y-110493766D01*
X207401302Y-109911295D01*
X206956049Y-109465264D01*
X206373999Y-109223576D01*
X205743766Y-109223026D01*
X205161295Y-109463698D01*
X204715264Y-109908951D01*
X204473576Y-110491001D01*
X204473026Y-111121234D01*
X201752200Y-111121234D01*
X201752200Y-107311234D01*
X204473026Y-107311234D01*
X204713698Y-107893705D01*
X205158951Y-108339736D01*
X205741001Y-108581424D01*
X206371234Y-108581974D01*
X206953705Y-108341302D01*
X207399736Y-107896049D01*
X207641424Y-107313999D01*
X207641974Y-106683766D01*
X207401302Y-106101295D01*
X206956049Y-105655264D01*
X206373999Y-105413576D01*
X205743766Y-105413026D01*
X205161295Y-105653698D01*
X204715264Y-106098951D01*
X204473576Y-106681001D01*
X204473026Y-107311234D01*
X201752200Y-107311234D01*
X201752200Y-103511350D01*
X204473300Y-103511350D01*
X204473300Y-104303705D01*
X204562239Y-104518423D01*
X204726578Y-104682761D01*
X204941296Y-104771700D01*
X205733650Y-104771700D01*
X205879700Y-104625650D01*
X205879700Y-103365300D01*
X206235300Y-103365300D01*
X206235300Y-104625650D01*
X206381350Y-104771700D01*
X207173704Y-104771700D01*
X207388422Y-104682761D01*
X207552761Y-104518423D01*
X207641700Y-104303705D01*
X207641700Y-103511350D01*
X207495650Y-103365300D01*
X206235300Y-103365300D01*
X205879700Y-103365300D01*
X204619350Y-103365300D01*
X204473300Y-103511350D01*
X201752200Y-103511350D01*
X201752200Y-102071295D01*
X204473300Y-102071295D01*
X204473300Y-102863650D01*
X204619350Y-103009700D01*
X205879700Y-103009700D01*
X205879700Y-101749350D01*
X206235300Y-101749350D01*
X206235300Y-103009700D01*
X207495650Y-103009700D01*
X207641700Y-102863650D01*
X207641700Y-102071295D01*
X207552761Y-101856577D01*
X207388422Y-101692239D01*
X207173704Y-101603300D01*
X206381350Y-101603300D01*
X206235300Y-101749350D01*
X205879700Y-101749350D01*
X205733650Y-101603300D01*
X204941296Y-101603300D01*
X204726578Y-101692239D01*
X204562239Y-101856577D01*
X204473300Y-102071295D01*
X201752200Y-102071295D01*
X201752200Y-96516234D01*
X204473026Y-96516234D01*
X204713698Y-97098705D01*
X205158951Y-97544736D01*
X205741001Y-97786424D01*
X206371234Y-97786974D01*
X206953705Y-97546302D01*
X207399736Y-97101049D01*
X207641424Y-96518999D01*
X207641974Y-95888766D01*
X207401302Y-95306295D01*
X206956049Y-94860264D01*
X206373999Y-94618576D01*
X205743766Y-94618026D01*
X205161295Y-94858698D01*
X204715264Y-95303951D01*
X204473576Y-95886001D01*
X204473026Y-96516234D01*
X201752200Y-96516234D01*
X201752200Y-92706234D01*
X204473026Y-92706234D01*
X204713698Y-93288705D01*
X205158951Y-93734736D01*
X205741001Y-93976424D01*
X206371234Y-93976974D01*
X206953705Y-93736302D01*
X207399736Y-93291049D01*
X207641424Y-92708999D01*
X207641974Y-92078766D01*
X207401302Y-91496295D01*
X206956049Y-91050264D01*
X206373999Y-90808576D01*
X205743766Y-90808026D01*
X205161295Y-91048698D01*
X204715264Y-91493951D01*
X204473576Y-92076001D01*
X204473026Y-92706234D01*
X201752200Y-92706234D01*
X201752200Y-88906350D01*
X204473300Y-88906350D01*
X204473300Y-89698705D01*
X204562239Y-89913423D01*
X204726578Y-90077761D01*
X204941296Y-90166700D01*
X205733650Y-90166700D01*
X205879700Y-90020650D01*
X205879700Y-88760300D01*
X206235300Y-88760300D01*
X206235300Y-90020650D01*
X206381350Y-90166700D01*
X207173704Y-90166700D01*
X207388422Y-90077761D01*
X207552761Y-89913423D01*
X207641700Y-89698705D01*
X207641700Y-88906350D01*
X207495650Y-88760300D01*
X206235300Y-88760300D01*
X205879700Y-88760300D01*
X204619350Y-88760300D01*
X204473300Y-88906350D01*
X201752200Y-88906350D01*
X201752200Y-87466295D01*
X204473300Y-87466295D01*
X204473300Y-88258650D01*
X204619350Y-88404700D01*
X205879700Y-88404700D01*
X205879700Y-87144350D01*
X206235300Y-87144350D01*
X206235300Y-88404700D01*
X207495650Y-88404700D01*
X207641700Y-88258650D01*
X207641700Y-87466295D01*
X207552761Y-87251577D01*
X207388422Y-87087239D01*
X207173704Y-86998300D01*
X206381350Y-86998300D01*
X206235300Y-87144350D01*
X205879700Y-87144350D01*
X205733650Y-86998300D01*
X204941296Y-86998300D01*
X204726578Y-87087239D01*
X204562239Y-87251577D01*
X204473300Y-87466295D01*
X201752200Y-87466295D01*
X201752200Y-81911234D01*
X204473026Y-81911234D01*
X204713698Y-82493705D01*
X205158951Y-82939736D01*
X205741001Y-83181424D01*
X206371234Y-83181974D01*
X206953705Y-82941302D01*
X207399736Y-82496049D01*
X207641424Y-81913999D01*
X207641974Y-81283766D01*
X207401302Y-80701295D01*
X206956049Y-80255264D01*
X206373999Y-80013576D01*
X205743766Y-80013026D01*
X205161295Y-80253698D01*
X204715264Y-80698951D01*
X204473576Y-81281001D01*
X204473026Y-81911234D01*
X201752200Y-81911234D01*
X201752200Y-78101234D01*
X204473026Y-78101234D01*
X204713698Y-78683705D01*
X205158951Y-79129736D01*
X205741001Y-79371424D01*
X206371234Y-79371974D01*
X206953705Y-79131302D01*
X207399736Y-78686049D01*
X207641424Y-78103999D01*
X207641974Y-77473766D01*
X207401302Y-76891295D01*
X206956049Y-76445264D01*
X206373999Y-76203576D01*
X205743766Y-76203026D01*
X205161295Y-76443698D01*
X204715264Y-76888951D01*
X204473576Y-77471001D01*
X204473026Y-78101234D01*
X201752200Y-78101234D01*
X201752200Y-74301350D01*
X204473300Y-74301350D01*
X204473300Y-75093705D01*
X204562239Y-75308423D01*
X204726578Y-75472761D01*
X204941296Y-75561700D01*
X205733650Y-75561700D01*
X205879700Y-75415650D01*
X205879700Y-74155300D01*
X206235300Y-74155300D01*
X206235300Y-75415650D01*
X206381350Y-75561700D01*
X207173704Y-75561700D01*
X207388422Y-75472761D01*
X207552761Y-75308423D01*
X207641700Y-75093705D01*
X207641700Y-74301350D01*
X207495650Y-74155300D01*
X206235300Y-74155300D01*
X205879700Y-74155300D01*
X204619350Y-74155300D01*
X204473300Y-74301350D01*
X201752200Y-74301350D01*
X201752200Y-72861295D01*
X204473300Y-72861295D01*
X204473300Y-73653650D01*
X204619350Y-73799700D01*
X205879700Y-73799700D01*
X205879700Y-72539350D01*
X206235300Y-72539350D01*
X206235300Y-73799700D01*
X207495650Y-73799700D01*
X207641700Y-73653650D01*
X207641700Y-72861295D01*
X207552761Y-72646577D01*
X207388422Y-72482239D01*
X207173704Y-72393300D01*
X206381350Y-72393300D01*
X206235300Y-72539350D01*
X205879700Y-72539350D01*
X205733650Y-72393300D01*
X204941296Y-72393300D01*
X204726578Y-72482239D01*
X204562239Y-72646577D01*
X204473300Y-72861295D01*
X201752200Y-72861295D01*
X201752200Y-71151564D01*
X204269882Y-68633882D01*
X204286599Y-68608673D01*
X204292200Y-68580000D01*
X204292200Y-67306234D01*
X204473026Y-67306234D01*
X204713698Y-67888705D01*
X205158951Y-68334736D01*
X205741001Y-68576424D01*
X206371234Y-68576974D01*
X206953705Y-68336302D01*
X207399736Y-67891049D01*
X207641424Y-67308999D01*
X207641974Y-66678766D01*
X207401302Y-66096295D01*
X206956049Y-65650264D01*
X206373999Y-65408576D01*
X205743766Y-65408026D01*
X205161295Y-65648698D01*
X204715264Y-66093951D01*
X204473576Y-66676001D01*
X204473026Y-67306234D01*
X204292200Y-67306234D01*
X204292200Y-63496234D01*
X204473026Y-63496234D01*
X204713698Y-64078705D01*
X205158951Y-64524736D01*
X205741001Y-64766424D01*
X206371234Y-64766974D01*
X206953705Y-64526302D01*
X207399736Y-64081049D01*
X207641424Y-63498999D01*
X207641974Y-62868766D01*
X207401302Y-62286295D01*
X206956049Y-61840264D01*
X206373999Y-61598576D01*
X205743766Y-61598026D01*
X205161295Y-61838698D01*
X204715264Y-62283951D01*
X204473576Y-62866001D01*
X204473026Y-63496234D01*
X204292200Y-63496234D01*
X204292200Y-59696350D01*
X204473300Y-59696350D01*
X204473300Y-60488705D01*
X204562239Y-60703423D01*
X204726578Y-60867761D01*
X204941296Y-60956700D01*
X205733650Y-60956700D01*
X205879700Y-60810650D01*
X205879700Y-59550300D01*
X206235300Y-59550300D01*
X206235300Y-60810650D01*
X206381350Y-60956700D01*
X207173704Y-60956700D01*
X207388422Y-60867761D01*
X207552761Y-60703423D01*
X207641700Y-60488705D01*
X207641700Y-59696350D01*
X207495650Y-59550300D01*
X206235300Y-59550300D01*
X205879700Y-59550300D01*
X204619350Y-59550300D01*
X204473300Y-59696350D01*
X204292200Y-59696350D01*
X204292200Y-58451564D01*
X204473300Y-58270464D01*
X204473300Y-59048650D01*
X204619350Y-59194700D01*
X205879700Y-59194700D01*
X205879700Y-57934350D01*
X206235300Y-57934350D01*
X206235300Y-59194700D01*
X207495650Y-59194700D01*
X207641700Y-59048650D01*
X207641700Y-58256295D01*
X207552761Y-58041577D01*
X207388422Y-57877239D01*
X207173704Y-57788300D01*
X206381350Y-57788300D01*
X206235300Y-57934350D01*
X205879700Y-57934350D01*
X205733650Y-57788300D01*
X204955464Y-57788300D01*
X205771564Y-56972200D01*
X208756436Y-56972200D01*
X211201800Y-59417564D01*
X211201800Y-59417564D01*
G37*
X211201800Y-59417564D02*
X211201800Y-125494436D01*
X209264436Y-127431800D01*
X201199564Y-127431800D01*
X200351838Y-126584074D01*
X200730925Y-126741485D01*
X201221920Y-126741913D01*
X201675705Y-126554414D01*
X202023193Y-126207531D01*
X202211485Y-125754075D01*
X202211509Y-125726234D01*
X204473026Y-125726234D01*
X204713698Y-126308705D01*
X205158951Y-126754736D01*
X205741001Y-126996424D01*
X206371234Y-126996974D01*
X206953705Y-126756302D01*
X207399736Y-126311049D01*
X207641424Y-125728999D01*
X207641974Y-125098766D01*
X207401302Y-124516295D01*
X206956049Y-124070264D01*
X206373999Y-123828576D01*
X205743766Y-123828026D01*
X205161295Y-124068698D01*
X204715264Y-124513951D01*
X204473576Y-125096001D01*
X204473026Y-125726234D01*
X202211509Y-125726234D01*
X202211913Y-125263080D01*
X202024414Y-124809295D01*
X201894958Y-124679613D01*
X202042826Y-124584463D01*
X202176217Y-124389239D01*
X202223145Y-124157500D01*
X202223145Y-122857500D01*
X202182409Y-122641008D01*
X202054463Y-122442174D01*
X201859239Y-122308783D01*
X201627500Y-122261855D01*
X200327500Y-122261855D01*
X200111008Y-122302591D01*
X199912174Y-122430537D01*
X199778783Y-122625761D01*
X199731855Y-122857500D01*
X199731855Y-124157500D01*
X199772591Y-124373992D01*
X199900537Y-124572826D01*
X200058642Y-124680855D01*
X199931807Y-124807469D01*
X199743515Y-125260925D01*
X199743087Y-125751920D01*
X199900391Y-126132627D01*
X199720200Y-125952436D01*
X199720200Y-121916234D01*
X204473026Y-121916234D01*
X204713698Y-122498705D01*
X205158951Y-122944736D01*
X205741001Y-123186424D01*
X206371234Y-123186974D01*
X206953705Y-122946302D01*
X207399736Y-122501049D01*
X207641424Y-121918999D01*
X207641974Y-121288766D01*
X207401302Y-120706295D01*
X206956049Y-120260264D01*
X206373999Y-120018576D01*
X205743766Y-120018026D01*
X205161295Y-120258698D01*
X204715264Y-120703951D01*
X204473576Y-121286001D01*
X204473026Y-121916234D01*
X199720200Y-121916234D01*
X199720200Y-119401920D01*
X199743087Y-119401920D01*
X199930586Y-119855705D01*
X200277469Y-120203193D01*
X200730925Y-120391485D01*
X201221920Y-120391913D01*
X201675705Y-120204414D01*
X202023193Y-119857531D01*
X202211485Y-119404075D01*
X202211913Y-118913080D01*
X202024414Y-118459295D01*
X201894559Y-118329214D01*
X201958422Y-118302761D01*
X202122761Y-118138423D01*
X202131903Y-118116350D01*
X204473300Y-118116350D01*
X204473300Y-118908705D01*
X204562239Y-119123423D01*
X204726578Y-119287761D01*
X204941296Y-119376700D01*
X205733650Y-119376700D01*
X205879700Y-119230650D01*
X205879700Y-117970300D01*
X206235300Y-117970300D01*
X206235300Y-119230650D01*
X206381350Y-119376700D01*
X207173704Y-119376700D01*
X207388422Y-119287761D01*
X207552761Y-119123423D01*
X207641700Y-118908705D01*
X207641700Y-118116350D01*
X207495650Y-117970300D01*
X206235300Y-117970300D01*
X205879700Y-117970300D01*
X204619350Y-117970300D01*
X204473300Y-118116350D01*
X202131903Y-118116350D01*
X202211700Y-117923705D01*
X202211700Y-117481350D01*
X202065650Y-117335300D01*
X201155300Y-117335300D01*
X201155300Y-117355300D01*
X200799700Y-117355300D01*
X200799700Y-117335300D01*
X199889350Y-117335300D01*
X199743300Y-117481350D01*
X199743300Y-117923705D01*
X199832239Y-118138423D01*
X199996578Y-118302761D01*
X200060331Y-118329168D01*
X199931807Y-118457469D01*
X199743515Y-118910925D01*
X199743087Y-119401920D01*
X199720200Y-119401920D01*
X199720200Y-116363564D01*
X199779243Y-116304521D01*
X199743300Y-116391295D01*
X199743300Y-116833650D01*
X199889350Y-116979700D01*
X200799700Y-116979700D01*
X200799700Y-116069350D01*
X201155300Y-116069350D01*
X201155300Y-116979700D01*
X202065650Y-116979700D01*
X202211700Y-116833650D01*
X202211700Y-116676295D01*
X204473300Y-116676295D01*
X204473300Y-117468650D01*
X204619350Y-117614700D01*
X205879700Y-117614700D01*
X205879700Y-116354350D01*
X206235300Y-116354350D01*
X206235300Y-117614700D01*
X207495650Y-117614700D01*
X207641700Y-117468650D01*
X207641700Y-116676295D01*
X207552761Y-116461577D01*
X207388422Y-116297239D01*
X207173704Y-116208300D01*
X206381350Y-116208300D01*
X206235300Y-116354350D01*
X205879700Y-116354350D01*
X205733650Y-116208300D01*
X204941296Y-116208300D01*
X204726578Y-116297239D01*
X204562239Y-116461577D01*
X204473300Y-116676295D01*
X202211700Y-116676295D01*
X202211700Y-116391295D01*
X202122761Y-116176577D01*
X201958422Y-116012239D01*
X201743704Y-115923300D01*
X201301350Y-115923300D01*
X201155300Y-116069350D01*
X200799700Y-116069350D01*
X200653650Y-115923300D01*
X200211296Y-115923300D01*
X200124520Y-115959244D01*
X201729882Y-114353882D01*
X201746599Y-114328673D01*
X201752200Y-114300000D01*
X201752200Y-111121234D01*
X204473026Y-111121234D01*
X204713698Y-111703705D01*
X205158951Y-112149736D01*
X205741001Y-112391424D01*
X206371234Y-112391974D01*
X206953705Y-112151302D01*
X207399736Y-111706049D01*
X207641424Y-111123999D01*
X207641974Y-110493766D01*
X207401302Y-109911295D01*
X206956049Y-109465264D01*
X206373999Y-109223576D01*
X205743766Y-109223026D01*
X205161295Y-109463698D01*
X204715264Y-109908951D01*
X204473576Y-110491001D01*
X204473026Y-111121234D01*
X201752200Y-111121234D01*
X201752200Y-107311234D01*
X204473026Y-107311234D01*
X204713698Y-107893705D01*
X205158951Y-108339736D01*
X205741001Y-108581424D01*
X206371234Y-108581974D01*
X206953705Y-108341302D01*
X207399736Y-107896049D01*
X207641424Y-107313999D01*
X207641974Y-106683766D01*
X207401302Y-106101295D01*
X206956049Y-105655264D01*
X206373999Y-105413576D01*
X205743766Y-105413026D01*
X205161295Y-105653698D01*
X204715264Y-106098951D01*
X204473576Y-106681001D01*
X204473026Y-107311234D01*
X201752200Y-107311234D01*
X201752200Y-103511350D01*
X204473300Y-103511350D01*
X204473300Y-104303705D01*
X204562239Y-104518423D01*
X204726578Y-104682761D01*
X204941296Y-104771700D01*
X205733650Y-104771700D01*
X205879700Y-104625650D01*
X205879700Y-103365300D01*
X206235300Y-103365300D01*
X206235300Y-104625650D01*
X206381350Y-104771700D01*
X207173704Y-104771700D01*
X207388422Y-104682761D01*
X207552761Y-104518423D01*
X207641700Y-104303705D01*
X207641700Y-103511350D01*
X207495650Y-103365300D01*
X206235300Y-103365300D01*
X205879700Y-103365300D01*
X204619350Y-103365300D01*
X204473300Y-103511350D01*
X201752200Y-103511350D01*
X201752200Y-102071295D01*
X204473300Y-102071295D01*
X204473300Y-102863650D01*
X204619350Y-103009700D01*
X205879700Y-103009700D01*
X205879700Y-101749350D01*
X206235300Y-101749350D01*
X206235300Y-103009700D01*
X207495650Y-103009700D01*
X207641700Y-102863650D01*
X207641700Y-102071295D01*
X207552761Y-101856577D01*
X207388422Y-101692239D01*
X207173704Y-101603300D01*
X206381350Y-101603300D01*
X206235300Y-101749350D01*
X205879700Y-101749350D01*
X205733650Y-101603300D01*
X204941296Y-101603300D01*
X204726578Y-101692239D01*
X204562239Y-101856577D01*
X204473300Y-102071295D01*
X201752200Y-102071295D01*
X201752200Y-96516234D01*
X204473026Y-96516234D01*
X204713698Y-97098705D01*
X205158951Y-97544736D01*
X205741001Y-97786424D01*
X206371234Y-97786974D01*
X206953705Y-97546302D01*
X207399736Y-97101049D01*
X207641424Y-96518999D01*
X207641974Y-95888766D01*
X207401302Y-95306295D01*
X206956049Y-94860264D01*
X206373999Y-94618576D01*
X205743766Y-94618026D01*
X205161295Y-94858698D01*
X204715264Y-95303951D01*
X204473576Y-95886001D01*
X204473026Y-96516234D01*
X201752200Y-96516234D01*
X201752200Y-92706234D01*
X204473026Y-92706234D01*
X204713698Y-93288705D01*
X205158951Y-93734736D01*
X205741001Y-93976424D01*
X206371234Y-93976974D01*
X206953705Y-93736302D01*
X207399736Y-93291049D01*
X207641424Y-92708999D01*
X207641974Y-92078766D01*
X207401302Y-91496295D01*
X206956049Y-91050264D01*
X206373999Y-90808576D01*
X205743766Y-90808026D01*
X205161295Y-91048698D01*
X204715264Y-91493951D01*
X204473576Y-92076001D01*
X204473026Y-92706234D01*
X201752200Y-92706234D01*
X201752200Y-88906350D01*
X204473300Y-88906350D01*
X204473300Y-89698705D01*
X204562239Y-89913423D01*
X204726578Y-90077761D01*
X204941296Y-90166700D01*
X205733650Y-90166700D01*
X205879700Y-90020650D01*
X205879700Y-88760300D01*
X206235300Y-88760300D01*
X206235300Y-90020650D01*
X206381350Y-90166700D01*
X207173704Y-90166700D01*
X207388422Y-90077761D01*
X207552761Y-89913423D01*
X207641700Y-89698705D01*
X207641700Y-88906350D01*
X207495650Y-88760300D01*
X206235300Y-88760300D01*
X205879700Y-88760300D01*
X204619350Y-88760300D01*
X204473300Y-88906350D01*
X201752200Y-88906350D01*
X201752200Y-87466295D01*
X204473300Y-87466295D01*
X204473300Y-88258650D01*
X204619350Y-88404700D01*
X205879700Y-88404700D01*
X205879700Y-87144350D01*
X206235300Y-87144350D01*
X206235300Y-88404700D01*
X207495650Y-88404700D01*
X207641700Y-88258650D01*
X207641700Y-87466295D01*
X207552761Y-87251577D01*
X207388422Y-87087239D01*
X207173704Y-86998300D01*
X206381350Y-86998300D01*
X206235300Y-87144350D01*
X205879700Y-87144350D01*
X205733650Y-86998300D01*
X204941296Y-86998300D01*
X204726578Y-87087239D01*
X204562239Y-87251577D01*
X204473300Y-87466295D01*
X201752200Y-87466295D01*
X201752200Y-81911234D01*
X204473026Y-81911234D01*
X204713698Y-82493705D01*
X205158951Y-82939736D01*
X205741001Y-83181424D01*
X206371234Y-83181974D01*
X206953705Y-82941302D01*
X207399736Y-82496049D01*
X207641424Y-81913999D01*
X207641974Y-81283766D01*
X207401302Y-80701295D01*
X206956049Y-80255264D01*
X206373999Y-80013576D01*
X205743766Y-80013026D01*
X205161295Y-80253698D01*
X204715264Y-80698951D01*
X204473576Y-81281001D01*
X204473026Y-81911234D01*
X201752200Y-81911234D01*
X201752200Y-78101234D01*
X204473026Y-78101234D01*
X204713698Y-78683705D01*
X205158951Y-79129736D01*
X205741001Y-79371424D01*
X206371234Y-79371974D01*
X206953705Y-79131302D01*
X207399736Y-78686049D01*
X207641424Y-78103999D01*
X207641974Y-77473766D01*
X207401302Y-76891295D01*
X206956049Y-76445264D01*
X206373999Y-76203576D01*
X205743766Y-76203026D01*
X205161295Y-76443698D01*
X204715264Y-76888951D01*
X204473576Y-77471001D01*
X204473026Y-78101234D01*
X201752200Y-78101234D01*
X201752200Y-74301350D01*
X204473300Y-74301350D01*
X204473300Y-75093705D01*
X204562239Y-75308423D01*
X204726578Y-75472761D01*
X204941296Y-75561700D01*
X205733650Y-75561700D01*
X205879700Y-75415650D01*
X205879700Y-74155300D01*
X206235300Y-74155300D01*
X206235300Y-75415650D01*
X206381350Y-75561700D01*
X207173704Y-75561700D01*
X207388422Y-75472761D01*
X207552761Y-75308423D01*
X207641700Y-75093705D01*
X207641700Y-74301350D01*
X207495650Y-74155300D01*
X206235300Y-74155300D01*
X205879700Y-74155300D01*
X204619350Y-74155300D01*
X204473300Y-74301350D01*
X201752200Y-74301350D01*
X201752200Y-72861295D01*
X204473300Y-72861295D01*
X204473300Y-73653650D01*
X204619350Y-73799700D01*
X205879700Y-73799700D01*
X205879700Y-72539350D01*
X206235300Y-72539350D01*
X206235300Y-73799700D01*
X207495650Y-73799700D01*
X207641700Y-73653650D01*
X207641700Y-72861295D01*
X207552761Y-72646577D01*
X207388422Y-72482239D01*
X207173704Y-72393300D01*
X206381350Y-72393300D01*
X206235300Y-72539350D01*
X205879700Y-72539350D01*
X205733650Y-72393300D01*
X204941296Y-72393300D01*
X204726578Y-72482239D01*
X204562239Y-72646577D01*
X204473300Y-72861295D01*
X201752200Y-72861295D01*
X201752200Y-71151564D01*
X204269882Y-68633882D01*
X204286599Y-68608673D01*
X204292200Y-68580000D01*
X204292200Y-67306234D01*
X204473026Y-67306234D01*
X204713698Y-67888705D01*
X205158951Y-68334736D01*
X205741001Y-68576424D01*
X206371234Y-68576974D01*
X206953705Y-68336302D01*
X207399736Y-67891049D01*
X207641424Y-67308999D01*
X207641974Y-66678766D01*
X207401302Y-66096295D01*
X206956049Y-65650264D01*
X206373999Y-65408576D01*
X205743766Y-65408026D01*
X205161295Y-65648698D01*
X204715264Y-66093951D01*
X204473576Y-66676001D01*
X204473026Y-67306234D01*
X204292200Y-67306234D01*
X204292200Y-63496234D01*
X204473026Y-63496234D01*
X204713698Y-64078705D01*
X205158951Y-64524736D01*
X205741001Y-64766424D01*
X206371234Y-64766974D01*
X206953705Y-64526302D01*
X207399736Y-64081049D01*
X207641424Y-63498999D01*
X207641974Y-62868766D01*
X207401302Y-62286295D01*
X206956049Y-61840264D01*
X206373999Y-61598576D01*
X205743766Y-61598026D01*
X205161295Y-61838698D01*
X204715264Y-62283951D01*
X204473576Y-62866001D01*
X204473026Y-63496234D01*
X204292200Y-63496234D01*
X204292200Y-59696350D01*
X204473300Y-59696350D01*
X204473300Y-60488705D01*
X204562239Y-60703423D01*
X204726578Y-60867761D01*
X204941296Y-60956700D01*
X205733650Y-60956700D01*
X205879700Y-60810650D01*
X205879700Y-59550300D01*
X206235300Y-59550300D01*
X206235300Y-60810650D01*
X206381350Y-60956700D01*
X207173704Y-60956700D01*
X207388422Y-60867761D01*
X207552761Y-60703423D01*
X207641700Y-60488705D01*
X207641700Y-59696350D01*
X207495650Y-59550300D01*
X206235300Y-59550300D01*
X205879700Y-59550300D01*
X204619350Y-59550300D01*
X204473300Y-59696350D01*
X204292200Y-59696350D01*
X204292200Y-58451564D01*
X204473300Y-58270464D01*
X204473300Y-59048650D01*
X204619350Y-59194700D01*
X205879700Y-59194700D01*
X205879700Y-57934350D01*
X206235300Y-57934350D01*
X206235300Y-59194700D01*
X207495650Y-59194700D01*
X207641700Y-59048650D01*
X207641700Y-58256295D01*
X207552761Y-58041577D01*
X207388422Y-57877239D01*
X207173704Y-57788300D01*
X206381350Y-57788300D01*
X206235300Y-57934350D01*
X205879700Y-57934350D01*
X205733650Y-57788300D01*
X204955464Y-57788300D01*
X205771564Y-56972200D01*
X208756436Y-56972200D01*
X211201800Y-59417564D01*
M02*
