G04 #@! TF.FileFunction,Soldermask,Top*
%FSLAX46Y46*%
G04 Gerber Fmt 4.6, Leading zero omitted, Abs format (unit mm)*
G04 Created by KiCad (PCBNEW (2015-05-27 BZR 5686)-product) date 2015年05月29日 星期五 17时45分10秒*
%MOMM*%
G01*
G04 APERTURE LIST*
%ADD10C,0.100000*%
%ADD11R,1.300000X1.300000*%
%ADD12C,1.300000*%
%ADD13C,2.000000*%
%ADD14R,2.000000X2.000000*%
%ADD15R,0.900000X0.500000*%
%ADD16R,0.500000X0.900000*%
%ADD17C,1.524000*%
%ADD18C,3.048000*%
G04 APERTURE END LIST*
D10*
D11*
X137160000Y-117475000D03*
D12*
X139160000Y-117475000D03*
D11*
X144780000Y-117475000D03*
D12*
X146780000Y-117475000D03*
D11*
X176530000Y-106680000D03*
D12*
X176530000Y-108680000D03*
D11*
X176530000Y-118745000D03*
D12*
X176530000Y-116745000D03*
D13*
X156210000Y-119380000D03*
D14*
X156210000Y-127000000D03*
D13*
X156210000Y-123190000D03*
X163830000Y-133985000D03*
D14*
X171450000Y-133985000D03*
D13*
X167640000Y-133985000D03*
X178435000Y-98425000D03*
D14*
X170815000Y-98425000D03*
D13*
X174625000Y-98425000D03*
X177800000Y-133985000D03*
D14*
X185420000Y-133985000D03*
D13*
X181610000Y-133985000D03*
X156210000Y-106045000D03*
D14*
X156210000Y-113665000D03*
D13*
X156210000Y-109855000D03*
X163195000Y-98425000D03*
D14*
X155575000Y-98425000D03*
D13*
X159385000Y-98425000D03*
X137160000Y-128270000D03*
D14*
X144780000Y-128270000D03*
D13*
X140970000Y-128270000D03*
D14*
X142875000Y-142240000D03*
D13*
X146685000Y-142240000D03*
D14*
X175260000Y-142240000D03*
D13*
X179070000Y-142240000D03*
D14*
X132080000Y-142240000D03*
D13*
X135890000Y-142240000D03*
D14*
X186055000Y-142240000D03*
D13*
X189865000Y-142240000D03*
D14*
X153670000Y-142240000D03*
D13*
X157480000Y-142240000D03*
D14*
X164465000Y-142240000D03*
D13*
X168275000Y-142240000D03*
D15*
X133350000Y-108470000D03*
X133350000Y-109970000D03*
D16*
X188710000Y-110490000D03*
X187210000Y-110490000D03*
X143395000Y-134620000D03*
X144895000Y-134620000D03*
D17*
X189865000Y-118745000D03*
X192405000Y-113665000D03*
X189865000Y-106045000D03*
D18*
X133223000Y-122555000D03*
X133223000Y-113665000D03*
X133223000Y-104775000D03*
X184023000Y-104140000D03*
X184023000Y-110490000D03*
X184023000Y-116840000D03*
X184023000Y-123190000D03*
M02*
