G04 #@! TF.FileFunction,Legend,Top*
%FSLAX46Y46*%
G04 Gerber Fmt 4.6, Leading zero omitted, Abs format (unit mm)*
G04 Created by KiCad (PCBNEW 4.0.4-stable) date Mon Oct  3 10:35:52 2016*
%MOMM*%
%LPD*%
G01*
G04 APERTURE LIST*
%ADD10C,0.100000*%
%ADD11C,0.150000*%
G04 APERTURE END LIST*
D10*
D11*
X150177500Y-126682500D02*
X150177500Y-69278500D01*
X150177500Y-69278500D02*
X188023500Y-69278500D01*
X188023500Y-69278500D02*
X188023500Y-126682500D01*
X188023500Y-126682500D02*
X150177500Y-126682500D01*
X142827500Y-127072500D02*
X144827500Y-127072500D01*
X144827500Y-125022500D02*
X142827500Y-125022500D01*
X163242500Y-62157500D02*
X161242500Y-62157500D01*
X161242500Y-64207500D02*
X163242500Y-64207500D01*
X170862500Y-64062500D02*
X168862500Y-64062500D01*
X168862500Y-66112500D02*
X170862500Y-66112500D01*
X195938500Y-65917500D02*
X200936500Y-65917500D01*
X195946500Y-65777500D02*
X198283500Y-65777500D01*
X198591500Y-65777500D02*
X200928500Y-65777500D01*
X195962500Y-65637500D02*
X197964500Y-65637500D01*
X198910500Y-65637500D02*
X200912500Y-65637500D01*
X195986500Y-65497500D02*
X197817500Y-65497500D01*
X199057500Y-65497500D02*
X200888500Y-65497500D01*
X196019500Y-65357500D02*
X197725500Y-65357500D01*
X199149500Y-65357500D02*
X200855500Y-65357500D01*
X196060500Y-65217500D02*
X197669500Y-65217500D01*
X199205500Y-65217500D02*
X200814500Y-65217500D01*
X196110500Y-65077500D02*
X197642500Y-65077500D01*
X199232500Y-65077500D02*
X200764500Y-65077500D01*
X196171500Y-64937500D02*
X197639500Y-64937500D01*
X199235500Y-64937500D02*
X200703500Y-64937500D01*
X196241500Y-64797500D02*
X197661500Y-64797500D01*
X199213500Y-64797500D02*
X200633500Y-64797500D01*
X196323500Y-64657500D02*
X197711500Y-64657500D01*
X199163500Y-64657500D02*
X200551500Y-64657500D01*
X196418500Y-64517500D02*
X197793500Y-64517500D01*
X199081500Y-64517500D02*
X200456500Y-64517500D01*
X196529500Y-64377500D02*
X197925500Y-64377500D01*
X198949500Y-64377500D02*
X200345500Y-64377500D01*
X196657500Y-64237500D02*
X198172500Y-64237500D01*
X198702500Y-64237500D02*
X200217500Y-64237500D01*
X196806500Y-64097500D02*
X200068500Y-64097500D01*
X196985500Y-63957500D02*
X199889500Y-63957500D01*
X197204500Y-63817500D02*
X199670500Y-63817500D01*
X197493500Y-63677500D02*
X199381500Y-63677500D01*
X197965500Y-63537500D02*
X198909500Y-63537500D01*
X199237500Y-64992500D02*
G75*
G03X199237500Y-64992500I-800000J0D01*
G01*
X200975000Y-65992500D02*
G75*
G03X200975000Y-65992500I-2537500J0D01*
G01*
X191207500Y-67357500D02*
X191207500Y-65357500D01*
X189157500Y-65357500D02*
X189157500Y-67357500D01*
X203476500Y-118232500D02*
X198478500Y-118232500D01*
X203468500Y-118372500D02*
X201131500Y-118372500D01*
X200823500Y-118372500D02*
X198486500Y-118372500D01*
X203452500Y-118512500D02*
X201450500Y-118512500D01*
X200504500Y-118512500D02*
X198502500Y-118512500D01*
X203428500Y-118652500D02*
X201597500Y-118652500D01*
X200357500Y-118652500D02*
X198526500Y-118652500D01*
X203395500Y-118792500D02*
X201689500Y-118792500D01*
X200265500Y-118792500D02*
X198559500Y-118792500D01*
X203354500Y-118932500D02*
X201745500Y-118932500D01*
X200209500Y-118932500D02*
X198600500Y-118932500D01*
X203304500Y-119072500D02*
X201772500Y-119072500D01*
X200182500Y-119072500D02*
X198650500Y-119072500D01*
X203243500Y-119212500D02*
X201775500Y-119212500D01*
X200179500Y-119212500D02*
X198711500Y-119212500D01*
X203173500Y-119352500D02*
X201753500Y-119352500D01*
X200201500Y-119352500D02*
X198781500Y-119352500D01*
X203091500Y-119492500D02*
X201703500Y-119492500D01*
X200251500Y-119492500D02*
X198863500Y-119492500D01*
X202996500Y-119632500D02*
X201621500Y-119632500D01*
X200333500Y-119632500D02*
X198958500Y-119632500D01*
X202885500Y-119772500D02*
X201489500Y-119772500D01*
X200465500Y-119772500D02*
X199069500Y-119772500D01*
X202757500Y-119912500D02*
X201242500Y-119912500D01*
X200712500Y-119912500D02*
X199197500Y-119912500D01*
X202608500Y-120052500D02*
X199346500Y-120052500D01*
X202429500Y-120192500D02*
X199525500Y-120192500D01*
X202210500Y-120332500D02*
X199744500Y-120332500D01*
X201921500Y-120472500D02*
X200033500Y-120472500D01*
X201449500Y-120612500D02*
X200505500Y-120612500D01*
X201777500Y-119157500D02*
G75*
G03X201777500Y-119157500I-800000J0D01*
G01*
X203515000Y-118157500D02*
G75*
G03X203515000Y-118157500I-2537500J0D01*
G01*
X208207500Y-117427500D02*
X208207500Y-119427500D01*
X210257500Y-119427500D02*
X210257500Y-117427500D01*
X195938500Y-59567500D02*
X200936500Y-59567500D01*
X195946500Y-59427500D02*
X198283500Y-59427500D01*
X198591500Y-59427500D02*
X200928500Y-59427500D01*
X195962500Y-59287500D02*
X197964500Y-59287500D01*
X198910500Y-59287500D02*
X200912500Y-59287500D01*
X195986500Y-59147500D02*
X197817500Y-59147500D01*
X199057500Y-59147500D02*
X200888500Y-59147500D01*
X196019500Y-59007500D02*
X197725500Y-59007500D01*
X199149500Y-59007500D02*
X200855500Y-59007500D01*
X196060500Y-58867500D02*
X197669500Y-58867500D01*
X199205500Y-58867500D02*
X200814500Y-58867500D01*
X196110500Y-58727500D02*
X197642500Y-58727500D01*
X199232500Y-58727500D02*
X200764500Y-58727500D01*
X196171500Y-58587500D02*
X197639500Y-58587500D01*
X199235500Y-58587500D02*
X200703500Y-58587500D01*
X196241500Y-58447500D02*
X197661500Y-58447500D01*
X199213500Y-58447500D02*
X200633500Y-58447500D01*
X196323500Y-58307500D02*
X197711500Y-58307500D01*
X199163500Y-58307500D02*
X200551500Y-58307500D01*
X196418500Y-58167500D02*
X197793500Y-58167500D01*
X199081500Y-58167500D02*
X200456500Y-58167500D01*
X196529500Y-58027500D02*
X197925500Y-58027500D01*
X198949500Y-58027500D02*
X200345500Y-58027500D01*
X196657500Y-57887500D02*
X198172500Y-57887500D01*
X198702500Y-57887500D02*
X200217500Y-57887500D01*
X196806500Y-57747500D02*
X200068500Y-57747500D01*
X196985500Y-57607500D02*
X199889500Y-57607500D01*
X197204500Y-57467500D02*
X199670500Y-57467500D01*
X197493500Y-57327500D02*
X199381500Y-57327500D01*
X197965500Y-57187500D02*
X198909500Y-57187500D01*
X199237500Y-58642500D02*
G75*
G03X199237500Y-58642500I-800000J0D01*
G01*
X200975000Y-59642500D02*
G75*
G03X200975000Y-59642500I-2537500J0D01*
G01*
X191207500Y-61642500D02*
X191207500Y-59642500D01*
X189157500Y-59642500D02*
X189157500Y-61642500D01*
X203476500Y-124582500D02*
X198478500Y-124582500D01*
X203468500Y-124722500D02*
X201131500Y-124722500D01*
X200823500Y-124722500D02*
X198486500Y-124722500D01*
X203452500Y-124862500D02*
X201450500Y-124862500D01*
X200504500Y-124862500D02*
X198502500Y-124862500D01*
X203428500Y-125002500D02*
X201597500Y-125002500D01*
X200357500Y-125002500D02*
X198526500Y-125002500D01*
X203395500Y-125142500D02*
X201689500Y-125142500D01*
X200265500Y-125142500D02*
X198559500Y-125142500D01*
X203354500Y-125282500D02*
X201745500Y-125282500D01*
X200209500Y-125282500D02*
X198600500Y-125282500D01*
X203304500Y-125422500D02*
X201772500Y-125422500D01*
X200182500Y-125422500D02*
X198650500Y-125422500D01*
X203243500Y-125562500D02*
X201775500Y-125562500D01*
X200179500Y-125562500D02*
X198711500Y-125562500D01*
X203173500Y-125702500D02*
X201753500Y-125702500D01*
X200201500Y-125702500D02*
X198781500Y-125702500D01*
X203091500Y-125842500D02*
X201703500Y-125842500D01*
X200251500Y-125842500D02*
X198863500Y-125842500D01*
X202996500Y-125982500D02*
X201621500Y-125982500D01*
X200333500Y-125982500D02*
X198958500Y-125982500D01*
X202885500Y-126122500D02*
X201489500Y-126122500D01*
X200465500Y-126122500D02*
X199069500Y-126122500D01*
X202757500Y-126262500D02*
X201242500Y-126262500D01*
X200712500Y-126262500D02*
X199197500Y-126262500D01*
X202608500Y-126402500D02*
X199346500Y-126402500D01*
X202429500Y-126542500D02*
X199525500Y-126542500D01*
X202210500Y-126682500D02*
X199744500Y-126682500D01*
X201921500Y-126822500D02*
X200033500Y-126822500D01*
X201449500Y-126962500D02*
X200505500Y-126962500D01*
X201777500Y-125507500D02*
G75*
G03X201777500Y-125507500I-800000J0D01*
G01*
X203515000Y-124507500D02*
G75*
G03X203515000Y-124507500I-2537500J0D01*
G01*
X208207500Y-123142500D02*
X208207500Y-125142500D01*
X210257500Y-125142500D02*
X210257500Y-123142500D01*
X178712500Y-66222500D02*
X178712500Y-65222500D01*
X180062500Y-65222500D02*
X180062500Y-66222500D01*
X103822500Y-69532500D02*
X105092500Y-68262500D01*
X103822500Y-72072500D02*
X107632500Y-68262500D01*
X103822500Y-126682500D02*
X103822500Y-68262500D01*
X103822500Y-68262500D02*
X140652500Y-68262500D01*
X140652500Y-68262500D02*
X140652500Y-126682500D01*
X140652500Y-126682500D02*
X103822500Y-126682500D01*
D10*
X148438000Y-87884000D02*
G75*
G03X148438000Y-87884000I-3150000J0D01*
G01*
X199037500Y-64992500D02*
G75*
G03X199037500Y-64992500I-600000J0D01*
G01*
X201577500Y-119157500D02*
G75*
G03X201577500Y-119157500I-600000J0D01*
G01*
X199037500Y-58642500D02*
G75*
G03X199037500Y-58642500I-600000J0D01*
G01*
X201577500Y-125507500D02*
G75*
G03X201577500Y-125507500I-600000J0D01*
G01*
X114821500Y-122999500D02*
G75*
G03X114821500Y-122999500I-1474000J0D01*
G01*
X123711500Y-122999500D02*
G75*
G03X123711500Y-122999500I-1474000J0D01*
G01*
X132601500Y-122999500D02*
G75*
G03X132601500Y-122999500I-1474000J0D01*
G01*
X133236500Y-72199500D02*
G75*
G03X133236500Y-72199500I-1474000J0D01*
G01*
X126886500Y-72199500D02*
G75*
G03X126886500Y-72199500I-1474000J0D01*
G01*
X120536500Y-72199500D02*
G75*
G03X120536500Y-72199500I-1474000J0D01*
G01*
X114186500Y-72199500D02*
G75*
G03X114186500Y-72199500I-1474000J0D01*
G01*
X148438000Y-106172000D02*
G75*
G03X148438000Y-106172000I-3150000J0D01*
G01*
D11*
X170946071Y-97345357D02*
X172160357Y-97345357D01*
X172303214Y-97273929D01*
X172374643Y-97202500D01*
X172446071Y-97059643D01*
X172446071Y-96773929D01*
X172374643Y-96631071D01*
X172303214Y-96559643D01*
X172160357Y-96488214D01*
X170946071Y-96488214D01*
X171088929Y-95845357D02*
X171017500Y-95773928D01*
X170946071Y-95631071D01*
X170946071Y-95273928D01*
X171017500Y-95131071D01*
X171088929Y-95059642D01*
X171231786Y-94988214D01*
X171374643Y-94988214D01*
X171588929Y-95059642D01*
X172446071Y-95916785D01*
X172446071Y-94988214D01*
X143954667Y-84136381D02*
X143621333Y-83660190D01*
X143383238Y-84136381D02*
X143383238Y-83136381D01*
X143764191Y-83136381D01*
X143859429Y-83184000D01*
X143907048Y-83231619D01*
X143954667Y-83326857D01*
X143954667Y-83469714D01*
X143907048Y-83564952D01*
X143859429Y-83612571D01*
X143764191Y-83660190D01*
X143383238Y-83660190D01*
X144383238Y-83612571D02*
X144716572Y-83612571D01*
X144859429Y-84136381D02*
X144383238Y-84136381D01*
X144383238Y-83136381D01*
X144859429Y-83136381D01*
X145621334Y-83612571D02*
X145288000Y-83612571D01*
X145288000Y-84136381D02*
X145288000Y-83136381D01*
X145764191Y-83136381D01*
X146288000Y-83136381D02*
X146288000Y-83374476D01*
X146049905Y-83279238D02*
X146288000Y-83374476D01*
X146526096Y-83279238D01*
X146145143Y-83564952D02*
X146288000Y-83374476D01*
X146430858Y-83564952D01*
X147049905Y-83136381D02*
X147049905Y-83374476D01*
X146811810Y-83279238D02*
X147049905Y-83374476D01*
X147288001Y-83279238D01*
X146907048Y-83564952D02*
X147049905Y-83374476D01*
X147192763Y-83564952D01*
X143660834Y-128704643D02*
X143613215Y-128752262D01*
X143470358Y-128799881D01*
X143375120Y-128799881D01*
X143232262Y-128752262D01*
X143137024Y-128657024D01*
X143089405Y-128561786D01*
X143041786Y-128371310D01*
X143041786Y-128228452D01*
X143089405Y-128037976D01*
X143137024Y-127942738D01*
X143232262Y-127847500D01*
X143375120Y-127799881D01*
X143470358Y-127799881D01*
X143613215Y-127847500D01*
X143660834Y-127895119D01*
X144041786Y-127895119D02*
X144089405Y-127847500D01*
X144184643Y-127799881D01*
X144422739Y-127799881D01*
X144517977Y-127847500D01*
X144565596Y-127895119D01*
X144613215Y-127990357D01*
X144613215Y-128085595D01*
X144565596Y-128228452D01*
X143994167Y-128799881D01*
X144613215Y-128799881D01*
X162075834Y-61239643D02*
X162028215Y-61287262D01*
X161885358Y-61334881D01*
X161790120Y-61334881D01*
X161647262Y-61287262D01*
X161552024Y-61192024D01*
X161504405Y-61096786D01*
X161456786Y-60906310D01*
X161456786Y-60763452D01*
X161504405Y-60572976D01*
X161552024Y-60477738D01*
X161647262Y-60382500D01*
X161790120Y-60334881D01*
X161885358Y-60334881D01*
X162028215Y-60382500D01*
X162075834Y-60430119D01*
X162647262Y-60763452D02*
X162552024Y-60715833D01*
X162504405Y-60668214D01*
X162456786Y-60572976D01*
X162456786Y-60525357D01*
X162504405Y-60430119D01*
X162552024Y-60382500D01*
X162647262Y-60334881D01*
X162837739Y-60334881D01*
X162932977Y-60382500D01*
X162980596Y-60430119D01*
X163028215Y-60525357D01*
X163028215Y-60572976D01*
X162980596Y-60668214D01*
X162932977Y-60715833D01*
X162837739Y-60763452D01*
X162647262Y-60763452D01*
X162552024Y-60811071D01*
X162504405Y-60858690D01*
X162456786Y-60953929D01*
X162456786Y-61144405D01*
X162504405Y-61239643D01*
X162552024Y-61287262D01*
X162647262Y-61334881D01*
X162837739Y-61334881D01*
X162932977Y-61287262D01*
X162980596Y-61239643D01*
X163028215Y-61144405D01*
X163028215Y-60953929D01*
X162980596Y-60858690D01*
X162932977Y-60811071D01*
X162837739Y-60763452D01*
X169695834Y-63144643D02*
X169648215Y-63192262D01*
X169505358Y-63239881D01*
X169410120Y-63239881D01*
X169267262Y-63192262D01*
X169172024Y-63097024D01*
X169124405Y-63001786D01*
X169076786Y-62811310D01*
X169076786Y-62668452D01*
X169124405Y-62477976D01*
X169172024Y-62382738D01*
X169267262Y-62287500D01*
X169410120Y-62239881D01*
X169505358Y-62239881D01*
X169648215Y-62287500D01*
X169695834Y-62335119D01*
X170172024Y-63239881D02*
X170362500Y-63239881D01*
X170457739Y-63192262D01*
X170505358Y-63144643D01*
X170600596Y-63001786D01*
X170648215Y-62811310D01*
X170648215Y-62430357D01*
X170600596Y-62335119D01*
X170552977Y-62287500D01*
X170457739Y-62239881D01*
X170267262Y-62239881D01*
X170172024Y-62287500D01*
X170124405Y-62335119D01*
X170076786Y-62430357D01*
X170076786Y-62668452D01*
X170124405Y-62763690D01*
X170172024Y-62811310D01*
X170267262Y-62858929D01*
X170457739Y-62858929D01*
X170552977Y-62811310D01*
X170600596Y-62763690D01*
X170648215Y-62668452D01*
X194994643Y-66635357D02*
X195042262Y-66682976D01*
X195089881Y-66825833D01*
X195089881Y-66921071D01*
X195042262Y-67063929D01*
X194947024Y-67159167D01*
X194851786Y-67206786D01*
X194661310Y-67254405D01*
X194518452Y-67254405D01*
X194327976Y-67206786D01*
X194232738Y-67159167D01*
X194137500Y-67063929D01*
X194089881Y-66921071D01*
X194089881Y-66825833D01*
X194137500Y-66682976D01*
X194185119Y-66635357D01*
X195089881Y-65682976D02*
X195089881Y-66254405D01*
X195089881Y-65968691D02*
X194089881Y-65968691D01*
X194232738Y-66063929D01*
X194327976Y-66159167D01*
X194375595Y-66254405D01*
X194185119Y-65302024D02*
X194137500Y-65254405D01*
X194089881Y-65159167D01*
X194089881Y-64921071D01*
X194137500Y-64825833D01*
X194185119Y-64778214D01*
X194280357Y-64730595D01*
X194375595Y-64730595D01*
X194518452Y-64778214D01*
X195089881Y-65349643D01*
X195089881Y-64730595D01*
X192839643Y-67000357D02*
X192887262Y-67047976D01*
X192934881Y-67190833D01*
X192934881Y-67286071D01*
X192887262Y-67428929D01*
X192792024Y-67524167D01*
X192696786Y-67571786D01*
X192506310Y-67619405D01*
X192363452Y-67619405D01*
X192172976Y-67571786D01*
X192077738Y-67524167D01*
X191982500Y-67428929D01*
X191934881Y-67286071D01*
X191934881Y-67190833D01*
X191982500Y-67047976D01*
X192030119Y-67000357D01*
X192934881Y-66047976D02*
X192934881Y-66619405D01*
X192934881Y-66333691D02*
X191934881Y-66333691D01*
X192077738Y-66428929D01*
X192172976Y-66524167D01*
X192220595Y-66619405D01*
X191934881Y-65714643D02*
X191934881Y-65095595D01*
X192315833Y-65428929D01*
X192315833Y-65286071D01*
X192363452Y-65190833D01*
X192411071Y-65143214D01*
X192506310Y-65095595D01*
X192744405Y-65095595D01*
X192839643Y-65143214D01*
X192887262Y-65190833D01*
X192934881Y-65286071D01*
X192934881Y-65571786D01*
X192887262Y-65667024D01*
X192839643Y-65714643D01*
X205134643Y-118800357D02*
X205182262Y-118847976D01*
X205229881Y-118990833D01*
X205229881Y-119086071D01*
X205182262Y-119228929D01*
X205087024Y-119324167D01*
X204991786Y-119371786D01*
X204801310Y-119419405D01*
X204658452Y-119419405D01*
X204467976Y-119371786D01*
X204372738Y-119324167D01*
X204277500Y-119228929D01*
X204229881Y-119086071D01*
X204229881Y-118990833D01*
X204277500Y-118847976D01*
X204325119Y-118800357D01*
X205229881Y-117847976D02*
X205229881Y-118419405D01*
X205229881Y-118133691D02*
X204229881Y-118133691D01*
X204372738Y-118228929D01*
X204467976Y-118324167D01*
X204515595Y-118419405D01*
X204563214Y-116990833D02*
X205229881Y-116990833D01*
X204182262Y-117228929D02*
X204896548Y-117467024D01*
X204896548Y-116847976D01*
X207289643Y-119070357D02*
X207337262Y-119117976D01*
X207384881Y-119260833D01*
X207384881Y-119356071D01*
X207337262Y-119498929D01*
X207242024Y-119594167D01*
X207146786Y-119641786D01*
X206956310Y-119689405D01*
X206813452Y-119689405D01*
X206622976Y-119641786D01*
X206527738Y-119594167D01*
X206432500Y-119498929D01*
X206384881Y-119356071D01*
X206384881Y-119260833D01*
X206432500Y-119117976D01*
X206480119Y-119070357D01*
X207384881Y-118117976D02*
X207384881Y-118689405D01*
X207384881Y-118403691D02*
X206384881Y-118403691D01*
X206527738Y-118498929D01*
X206622976Y-118594167D01*
X206670595Y-118689405D01*
X206384881Y-117213214D02*
X206384881Y-117689405D01*
X206861071Y-117737024D01*
X206813452Y-117689405D01*
X206765833Y-117594167D01*
X206765833Y-117356071D01*
X206813452Y-117260833D01*
X206861071Y-117213214D01*
X206956310Y-117165595D01*
X207194405Y-117165595D01*
X207289643Y-117213214D01*
X207337262Y-117260833D01*
X207384881Y-117356071D01*
X207384881Y-117594167D01*
X207337262Y-117689405D01*
X207289643Y-117737024D01*
X194994643Y-60285357D02*
X195042262Y-60332976D01*
X195089881Y-60475833D01*
X195089881Y-60571071D01*
X195042262Y-60713929D01*
X194947024Y-60809167D01*
X194851786Y-60856786D01*
X194661310Y-60904405D01*
X194518452Y-60904405D01*
X194327976Y-60856786D01*
X194232738Y-60809167D01*
X194137500Y-60713929D01*
X194089881Y-60571071D01*
X194089881Y-60475833D01*
X194137500Y-60332976D01*
X194185119Y-60285357D01*
X195089881Y-59332976D02*
X195089881Y-59904405D01*
X195089881Y-59618691D02*
X194089881Y-59618691D01*
X194232738Y-59713929D01*
X194327976Y-59809167D01*
X194375595Y-59904405D01*
X194089881Y-58475833D02*
X194089881Y-58666310D01*
X194137500Y-58761548D01*
X194185119Y-58809167D01*
X194327976Y-58904405D01*
X194518452Y-58952024D01*
X194899405Y-58952024D01*
X194994643Y-58904405D01*
X195042262Y-58856786D01*
X195089881Y-58761548D01*
X195089881Y-58571071D01*
X195042262Y-58475833D01*
X194994643Y-58428214D01*
X194899405Y-58380595D01*
X194661310Y-58380595D01*
X194566071Y-58428214D01*
X194518452Y-58475833D01*
X194470833Y-58571071D01*
X194470833Y-58761548D01*
X194518452Y-58856786D01*
X194566071Y-58904405D01*
X194661310Y-58952024D01*
X192839643Y-61285357D02*
X192887262Y-61332976D01*
X192934881Y-61475833D01*
X192934881Y-61571071D01*
X192887262Y-61713929D01*
X192792024Y-61809167D01*
X192696786Y-61856786D01*
X192506310Y-61904405D01*
X192363452Y-61904405D01*
X192172976Y-61856786D01*
X192077738Y-61809167D01*
X191982500Y-61713929D01*
X191934881Y-61571071D01*
X191934881Y-61475833D01*
X191982500Y-61332976D01*
X192030119Y-61285357D01*
X192934881Y-60332976D02*
X192934881Y-60904405D01*
X192934881Y-60618691D02*
X191934881Y-60618691D01*
X192077738Y-60713929D01*
X192172976Y-60809167D01*
X192220595Y-60904405D01*
X191934881Y-59999643D02*
X191934881Y-59332976D01*
X192934881Y-59761548D01*
X205134643Y-125150357D02*
X205182262Y-125197976D01*
X205229881Y-125340833D01*
X205229881Y-125436071D01*
X205182262Y-125578929D01*
X205087024Y-125674167D01*
X204991786Y-125721786D01*
X204801310Y-125769405D01*
X204658452Y-125769405D01*
X204467976Y-125721786D01*
X204372738Y-125674167D01*
X204277500Y-125578929D01*
X204229881Y-125436071D01*
X204229881Y-125340833D01*
X204277500Y-125197976D01*
X204325119Y-125150357D01*
X205229881Y-124197976D02*
X205229881Y-124769405D01*
X205229881Y-124483691D02*
X204229881Y-124483691D01*
X204372738Y-124578929D01*
X204467976Y-124674167D01*
X204515595Y-124769405D01*
X204658452Y-123626548D02*
X204610833Y-123721786D01*
X204563214Y-123769405D01*
X204467976Y-123817024D01*
X204420357Y-123817024D01*
X204325119Y-123769405D01*
X204277500Y-123721786D01*
X204229881Y-123626548D01*
X204229881Y-123436071D01*
X204277500Y-123340833D01*
X204325119Y-123293214D01*
X204420357Y-123245595D01*
X204467976Y-123245595D01*
X204563214Y-123293214D01*
X204610833Y-123340833D01*
X204658452Y-123436071D01*
X204658452Y-123626548D01*
X204706071Y-123721786D01*
X204753690Y-123769405D01*
X204848929Y-123817024D01*
X205039405Y-123817024D01*
X205134643Y-123769405D01*
X205182262Y-123721786D01*
X205229881Y-123626548D01*
X205229881Y-123436071D01*
X205182262Y-123340833D01*
X205134643Y-123293214D01*
X205039405Y-123245595D01*
X204848929Y-123245595D01*
X204753690Y-123293214D01*
X204706071Y-123340833D01*
X204658452Y-123436071D01*
X207289643Y-124785357D02*
X207337262Y-124832976D01*
X207384881Y-124975833D01*
X207384881Y-125071071D01*
X207337262Y-125213929D01*
X207242024Y-125309167D01*
X207146786Y-125356786D01*
X206956310Y-125404405D01*
X206813452Y-125404405D01*
X206622976Y-125356786D01*
X206527738Y-125309167D01*
X206432500Y-125213929D01*
X206384881Y-125071071D01*
X206384881Y-124975833D01*
X206432500Y-124832976D01*
X206480119Y-124785357D01*
X207384881Y-123832976D02*
X207384881Y-124404405D01*
X207384881Y-124118691D02*
X206384881Y-124118691D01*
X206527738Y-124213929D01*
X206622976Y-124309167D01*
X206670595Y-124404405D01*
X207384881Y-123356786D02*
X207384881Y-123166310D01*
X207337262Y-123071071D01*
X207289643Y-123023452D01*
X207146786Y-122928214D01*
X206956310Y-122880595D01*
X206575357Y-122880595D01*
X206480119Y-122928214D01*
X206432500Y-122975833D01*
X206384881Y-123071071D01*
X206384881Y-123261548D01*
X206432500Y-123356786D01*
X206480119Y-123404405D01*
X206575357Y-123452024D01*
X206813452Y-123452024D01*
X206908690Y-123404405D01*
X206956310Y-123356786D01*
X207003929Y-123261548D01*
X207003929Y-123071071D01*
X206956310Y-122975833D01*
X206908690Y-122928214D01*
X206813452Y-122880595D01*
X181739881Y-65889166D02*
X181263690Y-66222500D01*
X181739881Y-66460595D02*
X180739881Y-66460595D01*
X180739881Y-66079642D01*
X180787500Y-65984404D01*
X180835119Y-65936785D01*
X180930357Y-65889166D01*
X181073214Y-65889166D01*
X181168452Y-65936785D01*
X181216071Y-65984404D01*
X181263690Y-66079642D01*
X181263690Y-66460595D01*
X180739881Y-65555833D02*
X180739881Y-64936785D01*
X181120833Y-65270119D01*
X181120833Y-65127261D01*
X181168452Y-65032023D01*
X181216071Y-64984404D01*
X181311310Y-64936785D01*
X181549405Y-64936785D01*
X181644643Y-64984404D01*
X181692262Y-65032023D01*
X181739881Y-65127261D01*
X181739881Y-65412976D01*
X181692262Y-65508214D01*
X181644643Y-65555833D01*
X124591071Y-97345357D02*
X125805357Y-97345357D01*
X125948214Y-97273929D01*
X126019643Y-97202500D01*
X126091071Y-97059643D01*
X126091071Y-96773929D01*
X126019643Y-96631071D01*
X125948214Y-96559643D01*
X125805357Y-96488214D01*
X124591071Y-96488214D01*
X126091071Y-94988214D02*
X126091071Y-95845357D01*
X126091071Y-95416785D02*
X124591071Y-95416785D01*
X124805357Y-95559642D01*
X124948214Y-95702500D01*
X125019643Y-95845357D01*
X143954667Y-102424381D02*
X143621333Y-101948190D01*
X143383238Y-102424381D02*
X143383238Y-101424381D01*
X143764191Y-101424381D01*
X143859429Y-101472000D01*
X143907048Y-101519619D01*
X143954667Y-101614857D01*
X143954667Y-101757714D01*
X143907048Y-101852952D01*
X143859429Y-101900571D01*
X143764191Y-101948190D01*
X143383238Y-101948190D01*
X144383238Y-101900571D02*
X144716572Y-101900571D01*
X144859429Y-102424381D02*
X144383238Y-102424381D01*
X144383238Y-101424381D01*
X144859429Y-101424381D01*
X145621334Y-101900571D02*
X145288000Y-101900571D01*
X145288000Y-102424381D02*
X145288000Y-101424381D01*
X145764191Y-101424381D01*
X146288000Y-101424381D02*
X146288000Y-101662476D01*
X146049905Y-101567238D02*
X146288000Y-101662476D01*
X146526096Y-101567238D01*
X146145143Y-101852952D02*
X146288000Y-101662476D01*
X146430858Y-101852952D01*
X147049905Y-101424381D02*
X147049905Y-101662476D01*
X146811810Y-101567238D02*
X147049905Y-101662476D01*
X147288001Y-101567238D01*
X146907048Y-101852952D02*
X147049905Y-101662476D01*
X147192763Y-101852952D01*
M02*
