M48
;DRILL file {KiCad (2015-05-27 BZR 5686)-product} date 2015年05月29日 星期五 17时45分33秒
;FORMAT={-:-/ absolute / inch / decimal}
FMAT,2
INCH,TZ
T1C0.016
T2C0.030
T3C0.031
T4C0.047
T5C0.058
%
G90
G05
M72
T1
X7.05Y-4.15
X7.075Y-4.3
X7.075Y-4.55
X7.075Y-4.725
T2
X7.475Y-4.175
X7.475Y-4.675
X7.575Y-4.475
T3
X5.4Y-4.625
X5.4787Y-4.625
X5.7Y-4.625
X5.7787Y-4.625
X6.95Y-4.2
X6.95Y-4.2787
X6.95Y-4.5963
X6.95Y-4.675
T4
X5.2Y-5.6
X5.35Y-5.6
X5.4Y-5.05
X5.55Y-5.05
X5.625Y-5.6
X5.7Y-5.05
X5.775Y-5.6
X6.05Y-5.6
X6.125Y-3.875
X6.15Y-4.175
X6.15Y-4.325
X6.15Y-4.475
X6.15Y-4.7
X6.15Y-4.85
X6.15Y-5.
X6.2Y-5.6
X6.275Y-3.875
X6.425Y-3.875
X6.45Y-5.275
X6.475Y-5.6
X6.6Y-5.275
X6.625Y-5.6
X6.725Y-3.875
X6.75Y-5.275
X6.875Y-3.875
X6.9Y-5.6
X7.Y-5.275
X7.025Y-3.875
X7.05Y-5.6
X7.15Y-5.275
X7.3Y-5.275
X7.325Y-5.6
X7.475Y-5.6
T5
X5.245Y-4.125
X5.245Y-4.475
X5.245Y-4.825
X7.245Y-4.1
X7.245Y-4.35
X7.245Y-4.6
X7.245Y-4.85
T0
M30
