G04 #@! TF.FileFunction,Copper,L1,Top,Signal*
%FSLAX46Y46*%
G04 Gerber Fmt 4.6, Leading zero omitted, Abs format (unit mm)*
G04 Created by KiCad (PCBNEW (2015-05-27 BZR 5686)-product) date 2015年05月29日 星期五 17时45分10秒*
%MOMM*%
G01*
G04 APERTURE LIST*
%ADD10C,0.100000*%
%ADD11R,1.300000X1.300000*%
%ADD12C,1.300000*%
%ADD13C,2.000000*%
%ADD14R,2.000000X2.000000*%
%ADD15R,0.900000X0.500000*%
%ADD16R,0.500000X0.900000*%
%ADD17C,1.524000*%
%ADD18C,3.048000*%
%ADD19C,0.600000*%
%ADD20C,1.000000*%
%ADD21C,3.000000*%
%ADD22C,1.500000*%
%ADD23C,2.000000*%
%ADD24C,0.152400*%
G04 APERTURE END LIST*
D10*
D11*
X137160000Y-117475000D03*
D12*
X139160000Y-117475000D03*
D11*
X144780000Y-117475000D03*
D12*
X146780000Y-117475000D03*
D11*
X176530000Y-106680000D03*
D12*
X176530000Y-108680000D03*
D11*
X176530000Y-118745000D03*
D12*
X176530000Y-116745000D03*
D13*
X156210000Y-119380000D03*
D14*
X156210000Y-127000000D03*
D13*
X156210000Y-123190000D03*
X163830000Y-133985000D03*
D14*
X171450000Y-133985000D03*
D13*
X167640000Y-133985000D03*
X178435000Y-98425000D03*
D14*
X170815000Y-98425000D03*
D13*
X174625000Y-98425000D03*
X177800000Y-133985000D03*
D14*
X185420000Y-133985000D03*
D13*
X181610000Y-133985000D03*
X156210000Y-106045000D03*
D14*
X156210000Y-113665000D03*
D13*
X156210000Y-109855000D03*
X163195000Y-98425000D03*
D14*
X155575000Y-98425000D03*
D13*
X159385000Y-98425000D03*
X137160000Y-128270000D03*
D14*
X144780000Y-128270000D03*
D13*
X140970000Y-128270000D03*
D14*
X142875000Y-142240000D03*
D13*
X146685000Y-142240000D03*
D14*
X175260000Y-142240000D03*
D13*
X179070000Y-142240000D03*
D14*
X132080000Y-142240000D03*
D13*
X135890000Y-142240000D03*
D14*
X186055000Y-142240000D03*
D13*
X189865000Y-142240000D03*
D14*
X153670000Y-142240000D03*
D13*
X157480000Y-142240000D03*
D14*
X164465000Y-142240000D03*
D13*
X168275000Y-142240000D03*
D15*
X133350000Y-108470000D03*
X133350000Y-109970000D03*
D16*
X188710000Y-110490000D03*
X187210000Y-110490000D03*
X143395000Y-134620000D03*
X144895000Y-134620000D03*
D17*
X189865000Y-118745000D03*
X192405000Y-113665000D03*
X189865000Y-106045000D03*
D18*
X133223000Y-122555000D03*
X133223000Y-113665000D03*
X133223000Y-104775000D03*
X184023000Y-104140000D03*
X184023000Y-110490000D03*
X184023000Y-116840000D03*
X184023000Y-123190000D03*
D19*
X179070000Y-105410000D03*
X179705000Y-115570000D03*
X179705000Y-109220000D03*
X179705000Y-120015000D03*
D20*
X133350000Y-108470000D02*
X133350000Y-104902000D01*
X133350000Y-104902000D02*
X133223000Y-104775000D01*
D21*
X163195000Y-98425000D02*
X163195000Y-133350000D01*
X163195000Y-133350000D02*
X163830000Y-133985000D01*
X156210000Y-106045000D02*
X158115000Y-106045000D01*
X158115000Y-106045000D02*
X164147500Y-112077500D01*
X164147500Y-112077500D02*
X164147500Y-110172500D01*
X156210000Y-106045000D02*
X160020000Y-106045000D01*
X160020000Y-106045000D02*
X164147500Y-110172500D01*
X164147500Y-110172500D02*
X165100000Y-111125000D01*
X161290000Y-114935000D02*
X161290000Y-109220000D01*
X161290000Y-109220000D02*
X158115000Y-106045000D01*
X156210000Y-119380000D02*
X161925000Y-119380000D01*
X161925000Y-119380000D02*
X169545000Y-111760000D01*
X163195000Y-98425000D02*
X163195000Y-100965000D01*
X163195000Y-100965000D02*
X167640000Y-105410000D01*
X167640000Y-105410000D02*
X168275000Y-105410000D01*
X163195000Y-98425000D02*
X165735000Y-98425000D01*
X165735000Y-98425000D02*
X170497500Y-103187500D01*
X156210000Y-106045000D02*
X158115000Y-106045000D01*
X158115000Y-106045000D02*
X160020000Y-107950000D01*
X160020000Y-107950000D02*
X168275000Y-107950000D01*
X163830000Y-133985000D02*
X163830000Y-121285000D01*
X163830000Y-121285000D02*
X169545000Y-115570000D01*
X169545000Y-115570000D02*
X169545000Y-111760000D01*
X169545000Y-111760000D02*
X169545000Y-109220000D01*
X169545000Y-109220000D02*
X168275000Y-107950000D01*
X156210000Y-119380000D02*
X156845000Y-119380000D01*
X156845000Y-119380000D02*
X161290000Y-114935000D01*
X161290000Y-114935000D02*
X165100000Y-111125000D01*
X165100000Y-111125000D02*
X168275000Y-107950000D01*
X168275000Y-107950000D02*
X168275000Y-105410000D01*
X168275000Y-105410000D02*
X168275000Y-105410000D01*
X156210000Y-119380000D02*
X158115000Y-119380000D01*
X158115000Y-119380000D02*
X172085000Y-105410000D01*
X177800000Y-133985000D02*
X177800000Y-130810000D01*
X177800000Y-130810000D02*
X170180000Y-123190000D01*
X163830000Y-125730000D02*
X164465000Y-125730000D01*
X164465000Y-125730000D02*
X172085000Y-118110000D01*
X163830000Y-133985000D02*
X163830000Y-129540000D01*
X163830000Y-129540000D02*
X170180000Y-123190000D01*
X170180000Y-123190000D02*
X172085000Y-121285000D01*
X177800000Y-133985000D02*
X177800000Y-127000000D01*
X177800000Y-127000000D02*
X172085000Y-121285000D01*
X172085000Y-121285000D02*
X172085000Y-118110000D01*
X172085000Y-118110000D02*
X172085000Y-116205000D01*
X163830000Y-133985000D02*
X163830000Y-125730000D01*
X163830000Y-125730000D02*
X163830000Y-124460000D01*
X163830000Y-124460000D02*
X172085000Y-116205000D01*
X172085000Y-116205000D02*
X172085000Y-105410000D01*
X172085000Y-105410000D02*
X172085000Y-106680000D01*
X156210000Y-119380000D02*
X159385000Y-119380000D01*
X159385000Y-119380000D02*
X172085000Y-106680000D01*
X172085000Y-106680000D02*
X173355000Y-105410000D01*
X167957500Y-103187500D02*
X170497500Y-103187500D01*
X170497500Y-103187500D02*
X176212500Y-103187500D01*
X176212500Y-103187500D02*
X179070000Y-100330000D01*
X177165000Y-105410000D02*
X173355000Y-105410000D01*
X173355000Y-105410000D02*
X168275000Y-105410000D01*
X168275000Y-105410000D02*
X156845000Y-105410000D01*
X156845000Y-105410000D02*
X156210000Y-106045000D01*
X179070000Y-105410000D02*
X177165000Y-105410000D01*
X177165000Y-105410000D02*
X170180000Y-105410000D01*
X170180000Y-105410000D02*
X167957500Y-103187500D01*
X167957500Y-103187500D02*
X163195000Y-98425000D01*
X179070000Y-105410000D02*
X179070000Y-100330000D01*
X179070000Y-100330000D02*
X179070000Y-99060000D01*
X179070000Y-99060000D02*
X178435000Y-98425000D01*
D22*
X179070000Y-105410000D02*
X178752500Y-105727500D01*
X178752500Y-105727500D02*
X177800000Y-106680000D01*
X177800000Y-106680000D02*
X176530000Y-106680000D01*
D20*
X144895000Y-134620000D02*
X144895000Y-134735000D01*
X144895000Y-134735000D02*
X145415000Y-135255000D01*
X145415000Y-135255000D02*
X147955000Y-135255000D01*
X144895000Y-134620000D02*
X144895000Y-134505000D01*
X144895000Y-134505000D02*
X145415000Y-133985000D01*
X145415000Y-133985000D02*
X147320000Y-133985000D01*
X147320000Y-133985000D02*
X149225000Y-132080000D01*
X149225000Y-132080000D02*
X149225000Y-132715000D01*
X144895000Y-134620000D02*
X147320000Y-134620000D01*
D23*
X164465000Y-137160000D02*
X166370000Y-137160000D01*
X166370000Y-137160000D02*
X167640000Y-135890000D01*
X167640000Y-135890000D02*
X167640000Y-133985000D01*
X181610000Y-133985000D02*
X181610000Y-134620000D01*
X181610000Y-134620000D02*
X179070000Y-137160000D01*
X179070000Y-137160000D02*
X164465000Y-137160000D01*
X164465000Y-137160000D02*
X149860000Y-137160000D01*
X149860000Y-137160000D02*
X147955000Y-135255000D01*
X147955000Y-135255000D02*
X147320000Y-134620000D01*
X156210000Y-123190000D02*
X154305000Y-123190000D01*
X154305000Y-123190000D02*
X150495000Y-127000000D01*
X156210000Y-109855000D02*
X154940000Y-109855000D01*
X154940000Y-109855000D02*
X150495000Y-114300000D01*
X159385000Y-98425000D02*
X159385000Y-97790000D01*
X159385000Y-97790000D02*
X156845000Y-95250000D01*
X147320000Y-134620000D02*
X149225000Y-132715000D01*
X149225000Y-132715000D02*
X150495000Y-131445000D01*
X150495000Y-131445000D02*
X150495000Y-127000000D01*
X150495000Y-127000000D02*
X150495000Y-114300000D01*
X150495000Y-114300000D02*
X150495000Y-97155000D01*
X150495000Y-97155000D02*
X152400000Y-95250000D01*
X152400000Y-95250000D02*
X156845000Y-95250000D01*
X156845000Y-95250000D02*
X171450000Y-95250000D01*
X171450000Y-95250000D02*
X174625000Y-98425000D01*
D21*
X179705000Y-109220000D02*
X177889998Y-109220000D01*
X177889998Y-109220000D02*
X177165000Y-109944998D01*
X177165000Y-109944998D02*
X177165000Y-116205000D01*
X179705000Y-109220000D02*
X179705000Y-114617500D01*
X179705000Y-114617500D02*
X179705000Y-115570000D01*
D20*
X184023000Y-110490000D02*
X187210000Y-110490000D01*
D22*
X179705000Y-109220000D02*
X177165000Y-109220000D01*
X177165000Y-109220000D02*
X176625000Y-108680000D01*
X176625000Y-108680000D02*
X176530000Y-108680000D01*
X176530000Y-116745000D02*
X176625000Y-116745000D01*
X176625000Y-116745000D02*
X177165000Y-116205000D01*
X177165000Y-116205000D02*
X177800000Y-115570000D01*
X177800000Y-115570000D02*
X179705000Y-115570000D01*
X179705000Y-115570000D02*
X178530000Y-116745000D01*
X178530000Y-116745000D02*
X176530000Y-116745000D01*
X179705000Y-109220000D02*
X179165000Y-108680000D01*
X179165000Y-108680000D02*
X176530000Y-108680000D01*
X179705000Y-120015000D02*
X177800000Y-120015000D01*
X177800000Y-120015000D02*
X176530000Y-118745000D01*
X179705000Y-120015000D02*
X178435000Y-118745000D01*
X178435000Y-118745000D02*
X176530000Y-118745000D01*
D20*
X140970000Y-128270000D02*
X140335000Y-128905000D01*
X140335000Y-128905000D02*
X140335000Y-132080000D01*
X140335000Y-132080000D02*
X142875000Y-134620000D01*
X142875000Y-134620000D02*
X143395000Y-134620000D01*
X143395000Y-134620000D02*
X143395000Y-133235000D01*
X143395000Y-133235000D02*
X141605000Y-131445000D01*
X141605000Y-131445000D02*
X141605000Y-128905000D01*
X141605000Y-128905000D02*
X140970000Y-128270000D01*
X140970000Y-128270000D02*
X140970000Y-132195000D01*
X140970000Y-132195000D02*
X143395000Y-134620000D01*
X133350000Y-109970000D02*
X133350000Y-113538000D01*
X133350000Y-113538000D02*
X133223000Y-113665000D01*
X189865000Y-106045000D02*
X189865000Y-109335000D01*
X189865000Y-109335000D02*
X188710000Y-110490000D01*
X188710000Y-110490000D02*
X189230000Y-110490000D01*
X189230000Y-110490000D02*
X192405000Y-113665000D01*
X189865000Y-118745000D02*
X185928000Y-118745000D01*
X185928000Y-118745000D02*
X184023000Y-116840000D01*
D24*
G36*
X180898800Y-132564755D02*
X180713795Y-132641198D01*
X180489801Y-132864800D01*
X180489801Y-132864801D01*
X180489800Y-132864801D01*
X180267764Y-133086451D01*
X180026076Y-133668501D01*
X180025818Y-133963784D01*
X179402569Y-134587033D01*
X179028026Y-134961576D01*
X178956961Y-134890511D01*
X179203321Y-134784799D01*
X179402569Y-134186891D01*
X179357841Y-133558247D01*
X179203321Y-133185201D01*
X178956960Y-133079488D01*
X178705512Y-133330935D01*
X178705512Y-132828040D01*
X178599799Y-132581679D01*
X178001891Y-132382431D01*
X177373247Y-132427159D01*
X177000201Y-132581679D01*
X176894488Y-132828040D01*
X177800000Y-133733553D01*
X178705512Y-132828040D01*
X178705512Y-133330935D01*
X178051447Y-133985000D01*
X178065589Y-133999142D01*
X177814142Y-134250589D01*
X177800000Y-134236447D01*
X177548553Y-134487894D01*
X177548553Y-133985000D01*
X176643040Y-133079488D01*
X176396679Y-133185201D01*
X176197431Y-133783109D01*
X176242159Y-134411753D01*
X176396679Y-134784799D01*
X176643040Y-134890512D01*
X177548553Y-133985000D01*
X177548553Y-134487894D01*
X176894488Y-135141960D01*
X177000201Y-135388321D01*
X177562792Y-135575800D01*
X172474971Y-135575800D01*
X172672753Y-135537426D01*
X172868533Y-135408820D01*
X172999586Y-135214669D01*
X173045645Y-134985000D01*
X173045645Y-132985000D01*
X173002426Y-132762247D01*
X172873820Y-132566467D01*
X172679669Y-132435414D01*
X172450000Y-132389355D01*
X170450000Y-132389355D01*
X170227247Y-132432574D01*
X170031467Y-132561180D01*
X169900414Y-132755331D01*
X169854355Y-132985000D01*
X169854355Y-134985000D01*
X169897574Y-135207753D01*
X170026180Y-135403533D01*
X170220331Y-135534586D01*
X170425840Y-135575800D01*
X169224200Y-135575800D01*
X169224200Y-133985236D01*
X169224200Y-133985000D01*
X169224474Y-133671266D01*
X169103610Y-133378753D01*
X168983802Y-133088795D01*
X168760199Y-132864801D01*
X168760198Y-132864800D01*
X168538549Y-132642764D01*
X168246247Y-132521390D01*
X167956499Y-132401076D01*
X167326266Y-132400526D01*
X166743795Y-132641198D01*
X166519801Y-132864800D01*
X166519801Y-132864801D01*
X166519800Y-132864801D01*
X166297764Y-133086451D01*
X166056076Y-133668501D01*
X166055526Y-134298734D01*
X166055800Y-134299397D01*
X166055800Y-135233802D01*
X165713802Y-135575800D01*
X165432569Y-135575800D01*
X165432569Y-134186891D01*
X165387841Y-133558247D01*
X165233321Y-133185201D01*
X164986960Y-133079488D01*
X164797569Y-133268878D01*
X164797569Y-98626891D01*
X164752841Y-97998247D01*
X164598321Y-97625201D01*
X164351960Y-97519488D01*
X163446447Y-98425000D01*
X164351960Y-99330512D01*
X164598321Y-99224799D01*
X164797569Y-98626891D01*
X164797569Y-133268878D01*
X164735512Y-133330935D01*
X164735512Y-132828040D01*
X164629799Y-132581679D01*
X164100512Y-132405298D01*
X164100512Y-99581960D01*
X163195000Y-98676447D01*
X162943553Y-98927894D01*
X162943553Y-98425000D01*
X162038040Y-97519488D01*
X161791679Y-97625201D01*
X161592431Y-98223109D01*
X161637159Y-98851753D01*
X161791679Y-99224799D01*
X162038040Y-99330512D01*
X162943553Y-98425000D01*
X162943553Y-98927894D01*
X162289488Y-99581960D01*
X162395201Y-99828321D01*
X162993109Y-100027569D01*
X163621753Y-99982841D01*
X163994799Y-99828321D01*
X164100512Y-99581960D01*
X164100512Y-132405298D01*
X164031891Y-132382431D01*
X163403247Y-132427159D01*
X163030201Y-132581679D01*
X162924488Y-132828040D01*
X163830000Y-133733553D01*
X164735512Y-132828040D01*
X164735512Y-133330935D01*
X164081447Y-133985000D01*
X164986960Y-134890512D01*
X165233321Y-134784799D01*
X165432569Y-134186891D01*
X165432569Y-135575800D01*
X164465000Y-135575800D01*
X163793520Y-135575800D01*
X164256753Y-135542841D01*
X164629799Y-135388321D01*
X164735512Y-135141960D01*
X163830000Y-134236447D01*
X163578553Y-134487894D01*
X163578553Y-133985000D01*
X162673040Y-133079488D01*
X162426679Y-133185201D01*
X162227431Y-133783109D01*
X162272159Y-134411753D01*
X162426679Y-134784799D01*
X162673040Y-134890512D01*
X163578553Y-133985000D01*
X163578553Y-134487894D01*
X162924488Y-135141960D01*
X163030201Y-135388321D01*
X163592792Y-135575800D01*
X157812569Y-135575800D01*
X157812569Y-119581891D01*
X157812569Y-106246891D01*
X157767841Y-105618247D01*
X157613321Y-105245201D01*
X157366960Y-105139488D01*
X157115512Y-105390935D01*
X157115512Y-104888040D01*
X157009799Y-104641679D01*
X156411891Y-104442431D01*
X155783247Y-104487159D01*
X155410201Y-104641679D01*
X155304488Y-104888040D01*
X156210000Y-105793553D01*
X157115512Y-104888040D01*
X157115512Y-105390935D01*
X156461447Y-106045000D01*
X157366960Y-106950512D01*
X157613321Y-106844799D01*
X157812569Y-106246891D01*
X157812569Y-119581891D01*
X157767841Y-118953247D01*
X157613321Y-118580201D01*
X157366960Y-118474488D01*
X157115512Y-118725935D01*
X157115512Y-118223040D01*
X157009799Y-117976679D01*
X156411891Y-117777431D01*
X155783247Y-117822159D01*
X155410201Y-117976679D01*
X155304488Y-118223040D01*
X156210000Y-119128553D01*
X157115512Y-118223040D01*
X157115512Y-118725935D01*
X156461447Y-119380000D01*
X157366960Y-120285512D01*
X157613321Y-120179799D01*
X157812569Y-119581891D01*
X157812569Y-135575800D01*
X157805645Y-135575800D01*
X157805645Y-128000000D01*
X157805645Y-126000000D01*
X157762426Y-125777247D01*
X157633820Y-125581467D01*
X157439669Y-125450414D01*
X157210000Y-125404355D01*
X155210000Y-125404355D01*
X154987247Y-125447574D01*
X154791467Y-125576180D01*
X154660414Y-125770331D01*
X154614355Y-126000000D01*
X154614355Y-128000000D01*
X154657574Y-128222753D01*
X154786180Y-128418533D01*
X154980331Y-128549586D01*
X155210000Y-128595645D01*
X157210000Y-128595645D01*
X157432753Y-128552426D01*
X157628533Y-128423820D01*
X157759586Y-128229669D01*
X157805645Y-128000000D01*
X157805645Y-135575800D01*
X150516197Y-135575800D01*
X149560397Y-134619999D01*
X150345195Y-133835201D01*
X150345199Y-133835199D01*
X150345199Y-133835198D01*
X151615195Y-132565201D01*
X151615198Y-132565199D01*
X151615199Y-132565199D01*
X151958610Y-132051247D01*
X152079200Y-131445000D01*
X152079200Y-127656197D01*
X154961197Y-124774200D01*
X156209763Y-124774200D01*
X156210000Y-124774200D01*
X156523734Y-124774474D01*
X156816247Y-124653610D01*
X157106205Y-124533802D01*
X157330198Y-124310199D01*
X157330199Y-124310199D01*
X157330199Y-124310198D01*
X157552236Y-124088549D01*
X157673610Y-123796247D01*
X157793924Y-123506499D01*
X157794200Y-123190000D01*
X157794474Y-122876266D01*
X157673610Y-122583753D01*
X157553802Y-122293795D01*
X157330199Y-122069801D01*
X157330198Y-122069800D01*
X157115512Y-121854739D01*
X157115512Y-120536960D01*
X156210000Y-119631447D01*
X155958553Y-119882894D01*
X155958553Y-119380000D01*
X155053040Y-118474488D01*
X154806679Y-118580201D01*
X154607431Y-119178109D01*
X154652159Y-119806753D01*
X154806679Y-120179799D01*
X155053040Y-120285512D01*
X155958553Y-119380000D01*
X155958553Y-119882894D01*
X155304488Y-120536960D01*
X155410201Y-120783321D01*
X156008109Y-120982569D01*
X156636753Y-120937841D01*
X157009799Y-120783321D01*
X157115512Y-120536960D01*
X157115512Y-121854739D01*
X157108549Y-121847764D01*
X156816247Y-121726390D01*
X156526499Y-121606076D01*
X155896266Y-121605526D01*
X155895602Y-121605800D01*
X154305005Y-121605800D01*
X154305000Y-121605799D01*
X153698753Y-121726390D01*
X153184801Y-122069801D01*
X153184798Y-122069804D01*
X152079200Y-123175402D01*
X152079200Y-114956197D01*
X154785754Y-112249642D01*
X154660414Y-112435331D01*
X154614355Y-112665000D01*
X154614355Y-114665000D01*
X154657574Y-114887753D01*
X154786180Y-115083533D01*
X154980331Y-115214586D01*
X155210000Y-115260645D01*
X157210000Y-115260645D01*
X157432753Y-115217426D01*
X157628533Y-115088820D01*
X157759586Y-114894669D01*
X157805645Y-114665000D01*
X157805645Y-112665000D01*
X157762426Y-112442247D01*
X157633820Y-112246467D01*
X157439669Y-112115414D01*
X157210000Y-112069355D01*
X155210000Y-112069355D01*
X154987247Y-112112574D01*
X154799482Y-112235914D01*
X155596197Y-111439200D01*
X156209763Y-111439200D01*
X156210000Y-111439200D01*
X156523734Y-111439474D01*
X156816247Y-111318610D01*
X157106205Y-111198802D01*
X157330198Y-110975199D01*
X157330199Y-110975199D01*
X157330199Y-110975198D01*
X157552236Y-110753549D01*
X157673610Y-110461247D01*
X157793924Y-110171499D01*
X157794200Y-109855000D01*
X157794474Y-109541266D01*
X157673610Y-109248753D01*
X157553802Y-108958795D01*
X157330199Y-108734801D01*
X157330198Y-108734800D01*
X157115512Y-108519739D01*
X157115512Y-107201960D01*
X156210000Y-106296447D01*
X155958553Y-106547894D01*
X155958553Y-106045000D01*
X155053040Y-105139488D01*
X154806679Y-105245201D01*
X154607431Y-105843109D01*
X154652159Y-106471753D01*
X154806679Y-106844799D01*
X155053040Y-106950512D01*
X155958553Y-106045000D01*
X155958553Y-106547894D01*
X155304488Y-107201960D01*
X155410201Y-107448321D01*
X156008109Y-107647569D01*
X156636753Y-107602841D01*
X157009799Y-107448321D01*
X157115512Y-107201960D01*
X157115512Y-108519739D01*
X157108549Y-108512764D01*
X156816247Y-108391390D01*
X156526499Y-108271076D01*
X155896266Y-108270526D01*
X155895602Y-108270800D01*
X154940000Y-108270800D01*
X154333753Y-108391390D01*
X153819801Y-108734801D01*
X153819798Y-108734804D01*
X152079200Y-110475402D01*
X152079200Y-97811197D01*
X153056197Y-96834200D01*
X154550028Y-96834200D01*
X154352247Y-96872574D01*
X154156467Y-97001180D01*
X154025414Y-97195331D01*
X153979355Y-97425000D01*
X153979355Y-99425000D01*
X154022574Y-99647753D01*
X154151180Y-99843533D01*
X154345331Y-99974586D01*
X154575000Y-100020645D01*
X156575000Y-100020645D01*
X156797753Y-99977426D01*
X156993533Y-99848820D01*
X157124586Y-99654669D01*
X157170645Y-99425000D01*
X157170645Y-97816042D01*
X157800781Y-98446178D01*
X157800526Y-98738734D01*
X157921390Y-99031247D01*
X158041198Y-99321205D01*
X158264800Y-99545198D01*
X158264801Y-99545199D01*
X158486451Y-99767236D01*
X158778753Y-99888610D01*
X159068501Y-100008924D01*
X159385000Y-100009200D01*
X159698734Y-100009474D01*
X159991247Y-99888610D01*
X160281205Y-99768802D01*
X160505198Y-99545199D01*
X160505199Y-99545199D01*
X160505199Y-99545198D01*
X160727236Y-99323549D01*
X160848610Y-99031247D01*
X160968924Y-98741499D01*
X160969200Y-98425000D01*
X160969474Y-98111266D01*
X160969200Y-98110602D01*
X160969200Y-97790000D01*
X160848610Y-97183753D01*
X160848610Y-97183752D01*
X160711058Y-96977892D01*
X160615046Y-96834200D01*
X163231479Y-96834200D01*
X162768247Y-96867159D01*
X162395201Y-97021679D01*
X162289488Y-97268040D01*
X163195000Y-98173553D01*
X164100512Y-97268040D01*
X163994799Y-97021679D01*
X163432207Y-96834200D01*
X169790028Y-96834200D01*
X169592247Y-96872574D01*
X169396467Y-97001180D01*
X169265414Y-97195331D01*
X169219355Y-97425000D01*
X169219355Y-99425000D01*
X169262574Y-99647753D01*
X169391180Y-99843533D01*
X169585331Y-99974586D01*
X169815000Y-100020645D01*
X171815000Y-100020645D01*
X172037753Y-99977426D01*
X172233533Y-99848820D01*
X172364586Y-99654669D01*
X172410645Y-99425000D01*
X172410645Y-98451043D01*
X173504801Y-99545199D01*
X173726451Y-99767236D01*
X174018753Y-99888610D01*
X174308501Y-100008924D01*
X174624995Y-100009200D01*
X174625000Y-100009201D01*
X174625003Y-100009200D01*
X174938734Y-100009474D01*
X175231247Y-99888610D01*
X175521205Y-99768802D01*
X175745198Y-99545199D01*
X175745199Y-99545199D01*
X175745199Y-99545198D01*
X175967236Y-99323549D01*
X176088610Y-99031247D01*
X176208924Y-98741499D01*
X176209200Y-98425004D01*
X176209201Y-98425000D01*
X176209200Y-98424996D01*
X176209474Y-98111266D01*
X176088610Y-97818753D01*
X175968802Y-97528795D01*
X175745199Y-97304801D01*
X175745030Y-97304632D01*
X175523549Y-97082764D01*
X175522887Y-97082489D01*
X173766597Y-95326200D01*
X180898800Y-95326200D01*
X180898800Y-105333800D01*
X180037569Y-105333800D01*
X180037569Y-98626891D01*
X179992841Y-97998247D01*
X179838321Y-97625201D01*
X179591960Y-97519488D01*
X179340512Y-97770935D01*
X179340512Y-97268040D01*
X179234799Y-97021679D01*
X178636891Y-96822431D01*
X178008247Y-96867159D01*
X177635201Y-97021679D01*
X177529488Y-97268040D01*
X178435000Y-98173553D01*
X179340512Y-97268040D01*
X179340512Y-97770935D01*
X178686447Y-98425000D01*
X179591960Y-99330512D01*
X179838321Y-99224799D01*
X180037569Y-98626891D01*
X180037569Y-105333800D01*
X179340512Y-105333800D01*
X179340512Y-99581960D01*
X178435000Y-98676447D01*
X178183553Y-98927894D01*
X178183553Y-98425000D01*
X177278040Y-97519488D01*
X177031679Y-97625201D01*
X176832431Y-98223109D01*
X176877159Y-98851753D01*
X177031679Y-99224799D01*
X177278040Y-99330512D01*
X178183553Y-98425000D01*
X178183553Y-98927894D01*
X177529488Y-99581960D01*
X177635201Y-99828321D01*
X178233109Y-100027569D01*
X178861753Y-99982841D01*
X179234799Y-99828321D01*
X179340512Y-99581960D01*
X179340512Y-105333800D01*
X177768437Y-105333800D01*
X177539210Y-105563026D01*
X177510922Y-105534739D01*
X177296204Y-105445800D01*
X177063795Y-105445800D01*
X176853850Y-105445800D01*
X176707800Y-105591850D01*
X176707800Y-106394437D01*
X176453800Y-106648437D01*
X176453800Y-106877800D01*
X176352200Y-106877800D01*
X176352200Y-106857800D01*
X176352200Y-106502200D01*
X176352200Y-105591850D01*
X176206150Y-105445800D01*
X175996205Y-105445800D01*
X175763796Y-105445800D01*
X175549078Y-105534739D01*
X175384739Y-105699077D01*
X175295800Y-105913795D01*
X175295800Y-106356150D01*
X175441850Y-106502200D01*
X176352200Y-106502200D01*
X176352200Y-106857800D01*
X175441850Y-106857800D01*
X175295800Y-107003850D01*
X175295800Y-107446205D01*
X175384739Y-107660923D01*
X175536036Y-107812219D01*
X175297360Y-108169424D01*
X175195800Y-108680000D01*
X175277458Y-109090525D01*
X175239450Y-109147409D01*
X175080800Y-109944998D01*
X175080800Y-116205000D01*
X175239450Y-117002589D01*
X175250253Y-117018758D01*
X175297360Y-117255576D01*
X175540408Y-117619324D01*
X175461467Y-117671180D01*
X175330414Y-117865331D01*
X175284355Y-118095000D01*
X175284355Y-118299804D01*
X175195800Y-118745000D01*
X175284355Y-119190195D01*
X175284355Y-119395000D01*
X175327574Y-119617753D01*
X175456180Y-119813533D01*
X175650331Y-119944586D01*
X175880000Y-119990645D01*
X175888801Y-119990645D01*
X176856578Y-120958422D01*
X177289423Y-121247640D01*
X177289424Y-121247640D01*
X177800000Y-121349200D01*
X179705000Y-121349200D01*
X180215576Y-121247640D01*
X180648422Y-120958422D01*
X180898800Y-120583704D01*
X180898800Y-132564755D01*
X180898800Y-132564755D01*
G37*
X180898800Y-132564755D02*
X180713795Y-132641198D01*
X180489801Y-132864800D01*
X180489801Y-132864801D01*
X180489800Y-132864801D01*
X180267764Y-133086451D01*
X180026076Y-133668501D01*
X180025818Y-133963784D01*
X179402569Y-134587033D01*
X179028026Y-134961576D01*
X178956961Y-134890511D01*
X179203321Y-134784799D01*
X179402569Y-134186891D01*
X179357841Y-133558247D01*
X179203321Y-133185201D01*
X178956960Y-133079488D01*
X178705512Y-133330935D01*
X178705512Y-132828040D01*
X178599799Y-132581679D01*
X178001891Y-132382431D01*
X177373247Y-132427159D01*
X177000201Y-132581679D01*
X176894488Y-132828040D01*
X177800000Y-133733553D01*
X178705512Y-132828040D01*
X178705512Y-133330935D01*
X178051447Y-133985000D01*
X178065589Y-133999142D01*
X177814142Y-134250589D01*
X177800000Y-134236447D01*
X177548553Y-134487894D01*
X177548553Y-133985000D01*
X176643040Y-133079488D01*
X176396679Y-133185201D01*
X176197431Y-133783109D01*
X176242159Y-134411753D01*
X176396679Y-134784799D01*
X176643040Y-134890512D01*
X177548553Y-133985000D01*
X177548553Y-134487894D01*
X176894488Y-135141960D01*
X177000201Y-135388321D01*
X177562792Y-135575800D01*
X172474971Y-135575800D01*
X172672753Y-135537426D01*
X172868533Y-135408820D01*
X172999586Y-135214669D01*
X173045645Y-134985000D01*
X173045645Y-132985000D01*
X173002426Y-132762247D01*
X172873820Y-132566467D01*
X172679669Y-132435414D01*
X172450000Y-132389355D01*
X170450000Y-132389355D01*
X170227247Y-132432574D01*
X170031467Y-132561180D01*
X169900414Y-132755331D01*
X169854355Y-132985000D01*
X169854355Y-134985000D01*
X169897574Y-135207753D01*
X170026180Y-135403533D01*
X170220331Y-135534586D01*
X170425840Y-135575800D01*
X169224200Y-135575800D01*
X169224200Y-133985236D01*
X169224200Y-133985000D01*
X169224474Y-133671266D01*
X169103610Y-133378753D01*
X168983802Y-133088795D01*
X168760199Y-132864801D01*
X168760198Y-132864800D01*
X168538549Y-132642764D01*
X168246247Y-132521390D01*
X167956499Y-132401076D01*
X167326266Y-132400526D01*
X166743795Y-132641198D01*
X166519801Y-132864800D01*
X166519801Y-132864801D01*
X166519800Y-132864801D01*
X166297764Y-133086451D01*
X166056076Y-133668501D01*
X166055526Y-134298734D01*
X166055800Y-134299397D01*
X166055800Y-135233802D01*
X165713802Y-135575800D01*
X165432569Y-135575800D01*
X165432569Y-134186891D01*
X165387841Y-133558247D01*
X165233321Y-133185201D01*
X164986960Y-133079488D01*
X164797569Y-133268878D01*
X164797569Y-98626891D01*
X164752841Y-97998247D01*
X164598321Y-97625201D01*
X164351960Y-97519488D01*
X163446447Y-98425000D01*
X164351960Y-99330512D01*
X164598321Y-99224799D01*
X164797569Y-98626891D01*
X164797569Y-133268878D01*
X164735512Y-133330935D01*
X164735512Y-132828040D01*
X164629799Y-132581679D01*
X164100512Y-132405298D01*
X164100512Y-99581960D01*
X163195000Y-98676447D01*
X162943553Y-98927894D01*
X162943553Y-98425000D01*
X162038040Y-97519488D01*
X161791679Y-97625201D01*
X161592431Y-98223109D01*
X161637159Y-98851753D01*
X161791679Y-99224799D01*
X162038040Y-99330512D01*
X162943553Y-98425000D01*
X162943553Y-98927894D01*
X162289488Y-99581960D01*
X162395201Y-99828321D01*
X162993109Y-100027569D01*
X163621753Y-99982841D01*
X163994799Y-99828321D01*
X164100512Y-99581960D01*
X164100512Y-132405298D01*
X164031891Y-132382431D01*
X163403247Y-132427159D01*
X163030201Y-132581679D01*
X162924488Y-132828040D01*
X163830000Y-133733553D01*
X164735512Y-132828040D01*
X164735512Y-133330935D01*
X164081447Y-133985000D01*
X164986960Y-134890512D01*
X165233321Y-134784799D01*
X165432569Y-134186891D01*
X165432569Y-135575800D01*
X164465000Y-135575800D01*
X163793520Y-135575800D01*
X164256753Y-135542841D01*
X164629799Y-135388321D01*
X164735512Y-135141960D01*
X163830000Y-134236447D01*
X163578553Y-134487894D01*
X163578553Y-133985000D01*
X162673040Y-133079488D01*
X162426679Y-133185201D01*
X162227431Y-133783109D01*
X162272159Y-134411753D01*
X162426679Y-134784799D01*
X162673040Y-134890512D01*
X163578553Y-133985000D01*
X163578553Y-134487894D01*
X162924488Y-135141960D01*
X163030201Y-135388321D01*
X163592792Y-135575800D01*
X157812569Y-135575800D01*
X157812569Y-119581891D01*
X157812569Y-106246891D01*
X157767841Y-105618247D01*
X157613321Y-105245201D01*
X157366960Y-105139488D01*
X157115512Y-105390935D01*
X157115512Y-104888040D01*
X157009799Y-104641679D01*
X156411891Y-104442431D01*
X155783247Y-104487159D01*
X155410201Y-104641679D01*
X155304488Y-104888040D01*
X156210000Y-105793553D01*
X157115512Y-104888040D01*
X157115512Y-105390935D01*
X156461447Y-106045000D01*
X157366960Y-106950512D01*
X157613321Y-106844799D01*
X157812569Y-106246891D01*
X157812569Y-119581891D01*
X157767841Y-118953247D01*
X157613321Y-118580201D01*
X157366960Y-118474488D01*
X157115512Y-118725935D01*
X157115512Y-118223040D01*
X157009799Y-117976679D01*
X156411891Y-117777431D01*
X155783247Y-117822159D01*
X155410201Y-117976679D01*
X155304488Y-118223040D01*
X156210000Y-119128553D01*
X157115512Y-118223040D01*
X157115512Y-118725935D01*
X156461447Y-119380000D01*
X157366960Y-120285512D01*
X157613321Y-120179799D01*
X157812569Y-119581891D01*
X157812569Y-135575800D01*
X157805645Y-135575800D01*
X157805645Y-128000000D01*
X157805645Y-126000000D01*
X157762426Y-125777247D01*
X157633820Y-125581467D01*
X157439669Y-125450414D01*
X157210000Y-125404355D01*
X155210000Y-125404355D01*
X154987247Y-125447574D01*
X154791467Y-125576180D01*
X154660414Y-125770331D01*
X154614355Y-126000000D01*
X154614355Y-128000000D01*
X154657574Y-128222753D01*
X154786180Y-128418533D01*
X154980331Y-128549586D01*
X155210000Y-128595645D01*
X157210000Y-128595645D01*
X157432753Y-128552426D01*
X157628533Y-128423820D01*
X157759586Y-128229669D01*
X157805645Y-128000000D01*
X157805645Y-135575800D01*
X150516197Y-135575800D01*
X149560397Y-134619999D01*
X150345195Y-133835201D01*
X150345199Y-133835199D01*
X150345199Y-133835198D01*
X151615195Y-132565201D01*
X151615198Y-132565199D01*
X151615199Y-132565199D01*
X151958610Y-132051247D01*
X152079200Y-131445000D01*
X152079200Y-127656197D01*
X154961197Y-124774200D01*
X156209763Y-124774200D01*
X156210000Y-124774200D01*
X156523734Y-124774474D01*
X156816247Y-124653610D01*
X157106205Y-124533802D01*
X157330198Y-124310199D01*
X157330199Y-124310199D01*
X157330199Y-124310198D01*
X157552236Y-124088549D01*
X157673610Y-123796247D01*
X157793924Y-123506499D01*
X157794200Y-123190000D01*
X157794474Y-122876266D01*
X157673610Y-122583753D01*
X157553802Y-122293795D01*
X157330199Y-122069801D01*
X157330198Y-122069800D01*
X157115512Y-121854739D01*
X157115512Y-120536960D01*
X156210000Y-119631447D01*
X155958553Y-119882894D01*
X155958553Y-119380000D01*
X155053040Y-118474488D01*
X154806679Y-118580201D01*
X154607431Y-119178109D01*
X154652159Y-119806753D01*
X154806679Y-120179799D01*
X155053040Y-120285512D01*
X155958553Y-119380000D01*
X155958553Y-119882894D01*
X155304488Y-120536960D01*
X155410201Y-120783321D01*
X156008109Y-120982569D01*
X156636753Y-120937841D01*
X157009799Y-120783321D01*
X157115512Y-120536960D01*
X157115512Y-121854739D01*
X157108549Y-121847764D01*
X156816247Y-121726390D01*
X156526499Y-121606076D01*
X155896266Y-121605526D01*
X155895602Y-121605800D01*
X154305005Y-121605800D01*
X154305000Y-121605799D01*
X153698753Y-121726390D01*
X153184801Y-122069801D01*
X153184798Y-122069804D01*
X152079200Y-123175402D01*
X152079200Y-114956197D01*
X154785754Y-112249642D01*
X154660414Y-112435331D01*
X154614355Y-112665000D01*
X154614355Y-114665000D01*
X154657574Y-114887753D01*
X154786180Y-115083533D01*
X154980331Y-115214586D01*
X155210000Y-115260645D01*
X157210000Y-115260645D01*
X157432753Y-115217426D01*
X157628533Y-115088820D01*
X157759586Y-114894669D01*
X157805645Y-114665000D01*
X157805645Y-112665000D01*
X157762426Y-112442247D01*
X157633820Y-112246467D01*
X157439669Y-112115414D01*
X157210000Y-112069355D01*
X155210000Y-112069355D01*
X154987247Y-112112574D01*
X154799482Y-112235914D01*
X155596197Y-111439200D01*
X156209763Y-111439200D01*
X156210000Y-111439200D01*
X156523734Y-111439474D01*
X156816247Y-111318610D01*
X157106205Y-111198802D01*
X157330198Y-110975199D01*
X157330199Y-110975199D01*
X157330199Y-110975198D01*
X157552236Y-110753549D01*
X157673610Y-110461247D01*
X157793924Y-110171499D01*
X157794200Y-109855000D01*
X157794474Y-109541266D01*
X157673610Y-109248753D01*
X157553802Y-108958795D01*
X157330199Y-108734801D01*
X157330198Y-108734800D01*
X157115512Y-108519739D01*
X157115512Y-107201960D01*
X156210000Y-106296447D01*
X155958553Y-106547894D01*
X155958553Y-106045000D01*
X155053040Y-105139488D01*
X154806679Y-105245201D01*
X154607431Y-105843109D01*
X154652159Y-106471753D01*
X154806679Y-106844799D01*
X155053040Y-106950512D01*
X155958553Y-106045000D01*
X155958553Y-106547894D01*
X155304488Y-107201960D01*
X155410201Y-107448321D01*
X156008109Y-107647569D01*
X156636753Y-107602841D01*
X157009799Y-107448321D01*
X157115512Y-107201960D01*
X157115512Y-108519739D01*
X157108549Y-108512764D01*
X156816247Y-108391390D01*
X156526499Y-108271076D01*
X155896266Y-108270526D01*
X155895602Y-108270800D01*
X154940000Y-108270800D01*
X154333753Y-108391390D01*
X153819801Y-108734801D01*
X153819798Y-108734804D01*
X152079200Y-110475402D01*
X152079200Y-97811197D01*
X153056197Y-96834200D01*
X154550028Y-96834200D01*
X154352247Y-96872574D01*
X154156467Y-97001180D01*
X154025414Y-97195331D01*
X153979355Y-97425000D01*
X153979355Y-99425000D01*
X154022574Y-99647753D01*
X154151180Y-99843533D01*
X154345331Y-99974586D01*
X154575000Y-100020645D01*
X156575000Y-100020645D01*
X156797753Y-99977426D01*
X156993533Y-99848820D01*
X157124586Y-99654669D01*
X157170645Y-99425000D01*
X157170645Y-97816042D01*
X157800781Y-98446178D01*
X157800526Y-98738734D01*
X157921390Y-99031247D01*
X158041198Y-99321205D01*
X158264800Y-99545198D01*
X158264801Y-99545199D01*
X158486451Y-99767236D01*
X158778753Y-99888610D01*
X159068501Y-100008924D01*
X159385000Y-100009200D01*
X159698734Y-100009474D01*
X159991247Y-99888610D01*
X160281205Y-99768802D01*
X160505198Y-99545199D01*
X160505199Y-99545199D01*
X160505199Y-99545198D01*
X160727236Y-99323549D01*
X160848610Y-99031247D01*
X160968924Y-98741499D01*
X160969200Y-98425000D01*
X160969474Y-98111266D01*
X160969200Y-98110602D01*
X160969200Y-97790000D01*
X160848610Y-97183753D01*
X160848610Y-97183752D01*
X160711058Y-96977892D01*
X160615046Y-96834200D01*
X163231479Y-96834200D01*
X162768247Y-96867159D01*
X162395201Y-97021679D01*
X162289488Y-97268040D01*
X163195000Y-98173553D01*
X164100512Y-97268040D01*
X163994799Y-97021679D01*
X163432207Y-96834200D01*
X169790028Y-96834200D01*
X169592247Y-96872574D01*
X169396467Y-97001180D01*
X169265414Y-97195331D01*
X169219355Y-97425000D01*
X169219355Y-99425000D01*
X169262574Y-99647753D01*
X169391180Y-99843533D01*
X169585331Y-99974586D01*
X169815000Y-100020645D01*
X171815000Y-100020645D01*
X172037753Y-99977426D01*
X172233533Y-99848820D01*
X172364586Y-99654669D01*
X172410645Y-99425000D01*
X172410645Y-98451043D01*
X173504801Y-99545199D01*
X173726451Y-99767236D01*
X174018753Y-99888610D01*
X174308501Y-100008924D01*
X174624995Y-100009200D01*
X174625000Y-100009201D01*
X174625003Y-100009200D01*
X174938734Y-100009474D01*
X175231247Y-99888610D01*
X175521205Y-99768802D01*
X175745198Y-99545199D01*
X175745199Y-99545199D01*
X175745199Y-99545198D01*
X175967236Y-99323549D01*
X176088610Y-99031247D01*
X176208924Y-98741499D01*
X176209200Y-98425004D01*
X176209201Y-98425000D01*
X176209200Y-98424996D01*
X176209474Y-98111266D01*
X176088610Y-97818753D01*
X175968802Y-97528795D01*
X175745199Y-97304801D01*
X175745030Y-97304632D01*
X175523549Y-97082764D01*
X175522887Y-97082489D01*
X173766597Y-95326200D01*
X180898800Y-95326200D01*
X180898800Y-105333800D01*
X180037569Y-105333800D01*
X180037569Y-98626891D01*
X179992841Y-97998247D01*
X179838321Y-97625201D01*
X179591960Y-97519488D01*
X179340512Y-97770935D01*
X179340512Y-97268040D01*
X179234799Y-97021679D01*
X178636891Y-96822431D01*
X178008247Y-96867159D01*
X177635201Y-97021679D01*
X177529488Y-97268040D01*
X178435000Y-98173553D01*
X179340512Y-97268040D01*
X179340512Y-97770935D01*
X178686447Y-98425000D01*
X179591960Y-99330512D01*
X179838321Y-99224799D01*
X180037569Y-98626891D01*
X180037569Y-105333800D01*
X179340512Y-105333800D01*
X179340512Y-99581960D01*
X178435000Y-98676447D01*
X178183553Y-98927894D01*
X178183553Y-98425000D01*
X177278040Y-97519488D01*
X177031679Y-97625201D01*
X176832431Y-98223109D01*
X176877159Y-98851753D01*
X177031679Y-99224799D01*
X177278040Y-99330512D01*
X178183553Y-98425000D01*
X178183553Y-98927894D01*
X177529488Y-99581960D01*
X177635201Y-99828321D01*
X178233109Y-100027569D01*
X178861753Y-99982841D01*
X179234799Y-99828321D01*
X179340512Y-99581960D01*
X179340512Y-105333800D01*
X177768437Y-105333800D01*
X177539210Y-105563026D01*
X177510922Y-105534739D01*
X177296204Y-105445800D01*
X177063795Y-105445800D01*
X176853850Y-105445800D01*
X176707800Y-105591850D01*
X176707800Y-106394437D01*
X176453800Y-106648437D01*
X176453800Y-106877800D01*
X176352200Y-106877800D01*
X176352200Y-106857800D01*
X176352200Y-106502200D01*
X176352200Y-105591850D01*
X176206150Y-105445800D01*
X175996205Y-105445800D01*
X175763796Y-105445800D01*
X175549078Y-105534739D01*
X175384739Y-105699077D01*
X175295800Y-105913795D01*
X175295800Y-106356150D01*
X175441850Y-106502200D01*
X176352200Y-106502200D01*
X176352200Y-106857800D01*
X175441850Y-106857800D01*
X175295800Y-107003850D01*
X175295800Y-107446205D01*
X175384739Y-107660923D01*
X175536036Y-107812219D01*
X175297360Y-108169424D01*
X175195800Y-108680000D01*
X175277458Y-109090525D01*
X175239450Y-109147409D01*
X175080800Y-109944998D01*
X175080800Y-116205000D01*
X175239450Y-117002589D01*
X175250253Y-117018758D01*
X175297360Y-117255576D01*
X175540408Y-117619324D01*
X175461467Y-117671180D01*
X175330414Y-117865331D01*
X175284355Y-118095000D01*
X175284355Y-118299804D01*
X175195800Y-118745000D01*
X175284355Y-119190195D01*
X175284355Y-119395000D01*
X175327574Y-119617753D01*
X175456180Y-119813533D01*
X175650331Y-119944586D01*
X175880000Y-119990645D01*
X175888801Y-119990645D01*
X176856578Y-120958422D01*
X177289423Y-121247640D01*
X177289424Y-121247640D01*
X177800000Y-121349200D01*
X179705000Y-121349200D01*
X180215576Y-121247640D01*
X180648422Y-120958422D01*
X180898800Y-120583704D01*
X180898800Y-132564755D01*
G36*
X192328800Y-145973800D02*
X191449474Y-145973800D01*
X191449474Y-141926266D01*
X191208802Y-141343795D01*
X190763549Y-140897764D01*
X190181499Y-140656076D01*
X189551266Y-140655526D01*
X188968795Y-140896198D01*
X188522764Y-141341451D01*
X188281076Y-141923501D01*
X188280526Y-142553734D01*
X188521198Y-143136205D01*
X188966451Y-143582236D01*
X189548501Y-143823924D01*
X190178734Y-143824474D01*
X190761205Y-143583802D01*
X191207236Y-143138549D01*
X191448924Y-142556499D01*
X191449474Y-141926266D01*
X191449474Y-145973800D01*
X187639200Y-145973800D01*
X187639200Y-143356204D01*
X187639200Y-143123795D01*
X187639200Y-142563850D01*
X187639200Y-141916150D01*
X187639200Y-141356205D01*
X187639200Y-141123796D01*
X187550261Y-140909078D01*
X187385923Y-140744739D01*
X187171205Y-140655800D01*
X186378850Y-140655800D01*
X186232800Y-140801850D01*
X186232800Y-142062200D01*
X187493150Y-142062200D01*
X187639200Y-141916150D01*
X187639200Y-142563850D01*
X187493150Y-142417800D01*
X186232800Y-142417800D01*
X186232800Y-143678150D01*
X186378850Y-143824200D01*
X187171205Y-143824200D01*
X187385923Y-143735261D01*
X187550261Y-143570922D01*
X187639200Y-143356204D01*
X187639200Y-145973800D01*
X185877200Y-145973800D01*
X185877200Y-143678150D01*
X185877200Y-142417800D01*
X185877200Y-142062200D01*
X185877200Y-140801850D01*
X185731150Y-140655800D01*
X184938795Y-140655800D01*
X184724077Y-140744739D01*
X184559739Y-140909078D01*
X184470800Y-141123796D01*
X184470800Y-141356205D01*
X184470800Y-141916150D01*
X184616850Y-142062200D01*
X185877200Y-142062200D01*
X185877200Y-142417800D01*
X184616850Y-142417800D01*
X184470800Y-142563850D01*
X184470800Y-143123795D01*
X184470800Y-143356204D01*
X184559739Y-143570922D01*
X184724077Y-143735261D01*
X184938795Y-143824200D01*
X185731150Y-143824200D01*
X185877200Y-143678150D01*
X185877200Y-145973800D01*
X180654474Y-145973800D01*
X180654474Y-141926266D01*
X180413802Y-141343795D01*
X179968549Y-140897764D01*
X179386499Y-140656076D01*
X178756266Y-140655526D01*
X178173795Y-140896198D01*
X177727764Y-141341451D01*
X177486076Y-141923501D01*
X177485526Y-142553734D01*
X177726198Y-143136205D01*
X178171451Y-143582236D01*
X178753501Y-143823924D01*
X179383734Y-143824474D01*
X179966205Y-143583802D01*
X180412236Y-143138549D01*
X180653924Y-142556499D01*
X180654474Y-141926266D01*
X180654474Y-145973800D01*
X176844200Y-145973800D01*
X176844200Y-143356204D01*
X176844200Y-143123795D01*
X176844200Y-142563850D01*
X176844200Y-141916150D01*
X176844200Y-141356205D01*
X176844200Y-141123796D01*
X176755261Y-140909078D01*
X176590923Y-140744739D01*
X176376205Y-140655800D01*
X175583850Y-140655800D01*
X175437800Y-140801850D01*
X175437800Y-142062200D01*
X176698150Y-142062200D01*
X176844200Y-141916150D01*
X176844200Y-142563850D01*
X176698150Y-142417800D01*
X175437800Y-142417800D01*
X175437800Y-143678150D01*
X175583850Y-143824200D01*
X176376205Y-143824200D01*
X176590923Y-143735261D01*
X176755261Y-143570922D01*
X176844200Y-143356204D01*
X176844200Y-145973800D01*
X175082200Y-145973800D01*
X175082200Y-143678150D01*
X175082200Y-142417800D01*
X175082200Y-142062200D01*
X175082200Y-140801850D01*
X174936150Y-140655800D01*
X174143795Y-140655800D01*
X173929077Y-140744739D01*
X173764739Y-140909078D01*
X173675800Y-141123796D01*
X173675800Y-141356205D01*
X173675800Y-141916150D01*
X173821850Y-142062200D01*
X175082200Y-142062200D01*
X175082200Y-142417800D01*
X173821850Y-142417800D01*
X173675800Y-142563850D01*
X173675800Y-143123795D01*
X173675800Y-143356204D01*
X173764739Y-143570922D01*
X173929077Y-143735261D01*
X174143795Y-143824200D01*
X174936150Y-143824200D01*
X175082200Y-143678150D01*
X175082200Y-145973800D01*
X169859474Y-145973800D01*
X169859474Y-141926266D01*
X169618802Y-141343795D01*
X169173549Y-140897764D01*
X168591499Y-140656076D01*
X167961266Y-140655526D01*
X167378795Y-140896198D01*
X166932764Y-141341451D01*
X166691076Y-141923501D01*
X166690526Y-142553734D01*
X166931198Y-143136205D01*
X167376451Y-143582236D01*
X167958501Y-143823924D01*
X168588734Y-143824474D01*
X169171205Y-143583802D01*
X169617236Y-143138549D01*
X169858924Y-142556499D01*
X169859474Y-141926266D01*
X169859474Y-145973800D01*
X166049200Y-145973800D01*
X166049200Y-143356204D01*
X166049200Y-143123795D01*
X166049200Y-142563850D01*
X166049200Y-141916150D01*
X166049200Y-141356205D01*
X166049200Y-141123796D01*
X165960261Y-140909078D01*
X165795923Y-140744739D01*
X165581205Y-140655800D01*
X164788850Y-140655800D01*
X164642800Y-140801850D01*
X164642800Y-142062200D01*
X165903150Y-142062200D01*
X166049200Y-141916150D01*
X166049200Y-142563850D01*
X165903150Y-142417800D01*
X164642800Y-142417800D01*
X164642800Y-143678150D01*
X164788850Y-143824200D01*
X165581205Y-143824200D01*
X165795923Y-143735261D01*
X165960261Y-143570922D01*
X166049200Y-143356204D01*
X166049200Y-145973800D01*
X164287200Y-145973800D01*
X164287200Y-143678150D01*
X164287200Y-142417800D01*
X164287200Y-142062200D01*
X164287200Y-140801850D01*
X164141150Y-140655800D01*
X163348795Y-140655800D01*
X163134077Y-140744739D01*
X162969739Y-140909078D01*
X162880800Y-141123796D01*
X162880800Y-141356205D01*
X162880800Y-141916150D01*
X163026850Y-142062200D01*
X164287200Y-142062200D01*
X164287200Y-142417800D01*
X163026850Y-142417800D01*
X162880800Y-142563850D01*
X162880800Y-143123795D01*
X162880800Y-143356204D01*
X162969739Y-143570922D01*
X163134077Y-143735261D01*
X163348795Y-143824200D01*
X164141150Y-143824200D01*
X164287200Y-143678150D01*
X164287200Y-145973800D01*
X159064474Y-145973800D01*
X159064474Y-141926266D01*
X158823802Y-141343795D01*
X158378549Y-140897764D01*
X157796499Y-140656076D01*
X157166266Y-140655526D01*
X156583795Y-140896198D01*
X156137764Y-141341451D01*
X155896076Y-141923501D01*
X155895526Y-142553734D01*
X156136198Y-143136205D01*
X156581451Y-143582236D01*
X157163501Y-143823924D01*
X157793734Y-143824474D01*
X158376205Y-143583802D01*
X158822236Y-143138549D01*
X159063924Y-142556499D01*
X159064474Y-141926266D01*
X159064474Y-145973800D01*
X155254200Y-145973800D01*
X155254200Y-143356204D01*
X155254200Y-143123795D01*
X155254200Y-142563850D01*
X155254200Y-141916150D01*
X155254200Y-141356205D01*
X155254200Y-141123796D01*
X155165261Y-140909078D01*
X155000923Y-140744739D01*
X154786205Y-140655800D01*
X153993850Y-140655800D01*
X153847800Y-140801850D01*
X153847800Y-142062200D01*
X155108150Y-142062200D01*
X155254200Y-141916150D01*
X155254200Y-142563850D01*
X155108150Y-142417800D01*
X153847800Y-142417800D01*
X153847800Y-143678150D01*
X153993850Y-143824200D01*
X154786205Y-143824200D01*
X155000923Y-143735261D01*
X155165261Y-143570922D01*
X155254200Y-143356204D01*
X155254200Y-145973800D01*
X153492200Y-145973800D01*
X153492200Y-143678150D01*
X153492200Y-142417800D01*
X153492200Y-142062200D01*
X153492200Y-140801850D01*
X153346150Y-140655800D01*
X152553795Y-140655800D01*
X152339077Y-140744739D01*
X152174739Y-140909078D01*
X152085800Y-141123796D01*
X152085800Y-141356205D01*
X152085800Y-141916150D01*
X152231850Y-142062200D01*
X153492200Y-142062200D01*
X153492200Y-142417800D01*
X152231850Y-142417800D01*
X152085800Y-142563850D01*
X152085800Y-143123795D01*
X152085800Y-143356204D01*
X152174739Y-143570922D01*
X152339077Y-143735261D01*
X152553795Y-143824200D01*
X153346150Y-143824200D01*
X153492200Y-143678150D01*
X153492200Y-145973800D01*
X148269474Y-145973800D01*
X148269474Y-141926266D01*
X148028802Y-141343795D01*
X147583549Y-140897764D01*
X147001499Y-140656076D01*
X146371266Y-140655526D01*
X145788795Y-140896198D01*
X145342764Y-141341451D01*
X145101076Y-141923501D01*
X145100526Y-142553734D01*
X145341198Y-143136205D01*
X145786451Y-143582236D01*
X146368501Y-143823924D01*
X146998734Y-143824474D01*
X147581205Y-143583802D01*
X148027236Y-143138549D01*
X148268924Y-142556499D01*
X148269474Y-141926266D01*
X148269474Y-145973800D01*
X144459200Y-145973800D01*
X144459200Y-143356204D01*
X144459200Y-143123795D01*
X144459200Y-142563850D01*
X144459200Y-141916150D01*
X144459200Y-141356205D01*
X144459200Y-141123796D01*
X144370261Y-140909078D01*
X144205923Y-140744739D01*
X143991205Y-140655800D01*
X143198850Y-140655800D01*
X143052800Y-140801850D01*
X143052800Y-142062200D01*
X144313150Y-142062200D01*
X144459200Y-141916150D01*
X144459200Y-142563850D01*
X144313150Y-142417800D01*
X143052800Y-142417800D01*
X143052800Y-143678150D01*
X143198850Y-143824200D01*
X143991205Y-143824200D01*
X144205923Y-143735261D01*
X144370261Y-143570922D01*
X144459200Y-143356204D01*
X144459200Y-145973800D01*
X142697200Y-145973800D01*
X142697200Y-143678150D01*
X142697200Y-142417800D01*
X142697200Y-142062200D01*
X142697200Y-140801850D01*
X142551150Y-140655800D01*
X141758795Y-140655800D01*
X141544077Y-140744739D01*
X141379739Y-140909078D01*
X141290800Y-141123796D01*
X141290800Y-141356205D01*
X141290800Y-141916150D01*
X141436850Y-142062200D01*
X142697200Y-142062200D01*
X142697200Y-142417800D01*
X141436850Y-142417800D01*
X141290800Y-142563850D01*
X141290800Y-143123795D01*
X141290800Y-143356204D01*
X141379739Y-143570922D01*
X141544077Y-143735261D01*
X141758795Y-143824200D01*
X142551150Y-143824200D01*
X142697200Y-143678150D01*
X142697200Y-145973800D01*
X137474474Y-145973800D01*
X137474474Y-141926266D01*
X137233802Y-141343795D01*
X136788549Y-140897764D01*
X136206499Y-140656076D01*
X135576266Y-140655526D01*
X134993795Y-140896198D01*
X134547764Y-141341451D01*
X134306076Y-141923501D01*
X134305526Y-142553734D01*
X134546198Y-143136205D01*
X134991451Y-143582236D01*
X135573501Y-143823924D01*
X136203734Y-143824474D01*
X136786205Y-143583802D01*
X137232236Y-143138549D01*
X137473924Y-142556499D01*
X137474474Y-141926266D01*
X137474474Y-145973800D01*
X133664200Y-145973800D01*
X133664200Y-143356204D01*
X133664200Y-143123795D01*
X133664200Y-142563850D01*
X133664200Y-141916150D01*
X133664200Y-141356205D01*
X133664200Y-141123796D01*
X133575261Y-140909078D01*
X133410923Y-140744739D01*
X133196205Y-140655800D01*
X132403850Y-140655800D01*
X132257800Y-140801850D01*
X132257800Y-142062200D01*
X133518150Y-142062200D01*
X133664200Y-141916150D01*
X133664200Y-142563850D01*
X133518150Y-142417800D01*
X132257800Y-142417800D01*
X132257800Y-143678150D01*
X132403850Y-143824200D01*
X133196205Y-143824200D01*
X133410923Y-143735261D01*
X133575261Y-143570922D01*
X133664200Y-143356204D01*
X133664200Y-145973800D01*
X131902200Y-145973800D01*
X131902200Y-143678150D01*
X131902200Y-142417800D01*
X131902200Y-142062200D01*
X131902200Y-140801850D01*
X131756150Y-140655800D01*
X130963795Y-140655800D01*
X130749077Y-140744739D01*
X130584739Y-140909078D01*
X130495800Y-141123796D01*
X130495800Y-141356205D01*
X130495800Y-141916150D01*
X130641850Y-142062200D01*
X131902200Y-142062200D01*
X131902200Y-142417800D01*
X130641850Y-142417800D01*
X130495800Y-142563850D01*
X130495800Y-143123795D01*
X130495800Y-143356204D01*
X130584739Y-143570922D01*
X130749077Y-143735261D01*
X130963795Y-143824200D01*
X131756150Y-143824200D01*
X131902200Y-143678150D01*
X131902200Y-145973800D01*
X129616200Y-145973800D01*
X129616200Y-139141200D01*
X192328800Y-139141200D01*
X192328800Y-145973800D01*
X192328800Y-145973800D01*
G37*
X192328800Y-145973800D02*
X191449474Y-145973800D01*
X191449474Y-141926266D01*
X191208802Y-141343795D01*
X190763549Y-140897764D01*
X190181499Y-140656076D01*
X189551266Y-140655526D01*
X188968795Y-140896198D01*
X188522764Y-141341451D01*
X188281076Y-141923501D01*
X188280526Y-142553734D01*
X188521198Y-143136205D01*
X188966451Y-143582236D01*
X189548501Y-143823924D01*
X190178734Y-143824474D01*
X190761205Y-143583802D01*
X191207236Y-143138549D01*
X191448924Y-142556499D01*
X191449474Y-141926266D01*
X191449474Y-145973800D01*
X187639200Y-145973800D01*
X187639200Y-143356204D01*
X187639200Y-143123795D01*
X187639200Y-142563850D01*
X187639200Y-141916150D01*
X187639200Y-141356205D01*
X187639200Y-141123796D01*
X187550261Y-140909078D01*
X187385923Y-140744739D01*
X187171205Y-140655800D01*
X186378850Y-140655800D01*
X186232800Y-140801850D01*
X186232800Y-142062200D01*
X187493150Y-142062200D01*
X187639200Y-141916150D01*
X187639200Y-142563850D01*
X187493150Y-142417800D01*
X186232800Y-142417800D01*
X186232800Y-143678150D01*
X186378850Y-143824200D01*
X187171205Y-143824200D01*
X187385923Y-143735261D01*
X187550261Y-143570922D01*
X187639200Y-143356204D01*
X187639200Y-145973800D01*
X185877200Y-145973800D01*
X185877200Y-143678150D01*
X185877200Y-142417800D01*
X185877200Y-142062200D01*
X185877200Y-140801850D01*
X185731150Y-140655800D01*
X184938795Y-140655800D01*
X184724077Y-140744739D01*
X184559739Y-140909078D01*
X184470800Y-141123796D01*
X184470800Y-141356205D01*
X184470800Y-141916150D01*
X184616850Y-142062200D01*
X185877200Y-142062200D01*
X185877200Y-142417800D01*
X184616850Y-142417800D01*
X184470800Y-142563850D01*
X184470800Y-143123795D01*
X184470800Y-143356204D01*
X184559739Y-143570922D01*
X184724077Y-143735261D01*
X184938795Y-143824200D01*
X185731150Y-143824200D01*
X185877200Y-143678150D01*
X185877200Y-145973800D01*
X180654474Y-145973800D01*
X180654474Y-141926266D01*
X180413802Y-141343795D01*
X179968549Y-140897764D01*
X179386499Y-140656076D01*
X178756266Y-140655526D01*
X178173795Y-140896198D01*
X177727764Y-141341451D01*
X177486076Y-141923501D01*
X177485526Y-142553734D01*
X177726198Y-143136205D01*
X178171451Y-143582236D01*
X178753501Y-143823924D01*
X179383734Y-143824474D01*
X179966205Y-143583802D01*
X180412236Y-143138549D01*
X180653924Y-142556499D01*
X180654474Y-141926266D01*
X180654474Y-145973800D01*
X176844200Y-145973800D01*
X176844200Y-143356204D01*
X176844200Y-143123795D01*
X176844200Y-142563850D01*
X176844200Y-141916150D01*
X176844200Y-141356205D01*
X176844200Y-141123796D01*
X176755261Y-140909078D01*
X176590923Y-140744739D01*
X176376205Y-140655800D01*
X175583850Y-140655800D01*
X175437800Y-140801850D01*
X175437800Y-142062200D01*
X176698150Y-142062200D01*
X176844200Y-141916150D01*
X176844200Y-142563850D01*
X176698150Y-142417800D01*
X175437800Y-142417800D01*
X175437800Y-143678150D01*
X175583850Y-143824200D01*
X176376205Y-143824200D01*
X176590923Y-143735261D01*
X176755261Y-143570922D01*
X176844200Y-143356204D01*
X176844200Y-145973800D01*
X175082200Y-145973800D01*
X175082200Y-143678150D01*
X175082200Y-142417800D01*
X175082200Y-142062200D01*
X175082200Y-140801850D01*
X174936150Y-140655800D01*
X174143795Y-140655800D01*
X173929077Y-140744739D01*
X173764739Y-140909078D01*
X173675800Y-141123796D01*
X173675800Y-141356205D01*
X173675800Y-141916150D01*
X173821850Y-142062200D01*
X175082200Y-142062200D01*
X175082200Y-142417800D01*
X173821850Y-142417800D01*
X173675800Y-142563850D01*
X173675800Y-143123795D01*
X173675800Y-143356204D01*
X173764739Y-143570922D01*
X173929077Y-143735261D01*
X174143795Y-143824200D01*
X174936150Y-143824200D01*
X175082200Y-143678150D01*
X175082200Y-145973800D01*
X169859474Y-145973800D01*
X169859474Y-141926266D01*
X169618802Y-141343795D01*
X169173549Y-140897764D01*
X168591499Y-140656076D01*
X167961266Y-140655526D01*
X167378795Y-140896198D01*
X166932764Y-141341451D01*
X166691076Y-141923501D01*
X166690526Y-142553734D01*
X166931198Y-143136205D01*
X167376451Y-143582236D01*
X167958501Y-143823924D01*
X168588734Y-143824474D01*
X169171205Y-143583802D01*
X169617236Y-143138549D01*
X169858924Y-142556499D01*
X169859474Y-141926266D01*
X169859474Y-145973800D01*
X166049200Y-145973800D01*
X166049200Y-143356204D01*
X166049200Y-143123795D01*
X166049200Y-142563850D01*
X166049200Y-141916150D01*
X166049200Y-141356205D01*
X166049200Y-141123796D01*
X165960261Y-140909078D01*
X165795923Y-140744739D01*
X165581205Y-140655800D01*
X164788850Y-140655800D01*
X164642800Y-140801850D01*
X164642800Y-142062200D01*
X165903150Y-142062200D01*
X166049200Y-141916150D01*
X166049200Y-142563850D01*
X165903150Y-142417800D01*
X164642800Y-142417800D01*
X164642800Y-143678150D01*
X164788850Y-143824200D01*
X165581205Y-143824200D01*
X165795923Y-143735261D01*
X165960261Y-143570922D01*
X166049200Y-143356204D01*
X166049200Y-145973800D01*
X164287200Y-145973800D01*
X164287200Y-143678150D01*
X164287200Y-142417800D01*
X164287200Y-142062200D01*
X164287200Y-140801850D01*
X164141150Y-140655800D01*
X163348795Y-140655800D01*
X163134077Y-140744739D01*
X162969739Y-140909078D01*
X162880800Y-141123796D01*
X162880800Y-141356205D01*
X162880800Y-141916150D01*
X163026850Y-142062200D01*
X164287200Y-142062200D01*
X164287200Y-142417800D01*
X163026850Y-142417800D01*
X162880800Y-142563850D01*
X162880800Y-143123795D01*
X162880800Y-143356204D01*
X162969739Y-143570922D01*
X163134077Y-143735261D01*
X163348795Y-143824200D01*
X164141150Y-143824200D01*
X164287200Y-143678150D01*
X164287200Y-145973800D01*
X159064474Y-145973800D01*
X159064474Y-141926266D01*
X158823802Y-141343795D01*
X158378549Y-140897764D01*
X157796499Y-140656076D01*
X157166266Y-140655526D01*
X156583795Y-140896198D01*
X156137764Y-141341451D01*
X155896076Y-141923501D01*
X155895526Y-142553734D01*
X156136198Y-143136205D01*
X156581451Y-143582236D01*
X157163501Y-143823924D01*
X157793734Y-143824474D01*
X158376205Y-143583802D01*
X158822236Y-143138549D01*
X159063924Y-142556499D01*
X159064474Y-141926266D01*
X159064474Y-145973800D01*
X155254200Y-145973800D01*
X155254200Y-143356204D01*
X155254200Y-143123795D01*
X155254200Y-142563850D01*
X155254200Y-141916150D01*
X155254200Y-141356205D01*
X155254200Y-141123796D01*
X155165261Y-140909078D01*
X155000923Y-140744739D01*
X154786205Y-140655800D01*
X153993850Y-140655800D01*
X153847800Y-140801850D01*
X153847800Y-142062200D01*
X155108150Y-142062200D01*
X155254200Y-141916150D01*
X155254200Y-142563850D01*
X155108150Y-142417800D01*
X153847800Y-142417800D01*
X153847800Y-143678150D01*
X153993850Y-143824200D01*
X154786205Y-143824200D01*
X155000923Y-143735261D01*
X155165261Y-143570922D01*
X155254200Y-143356204D01*
X155254200Y-145973800D01*
X153492200Y-145973800D01*
X153492200Y-143678150D01*
X153492200Y-142417800D01*
X153492200Y-142062200D01*
X153492200Y-140801850D01*
X153346150Y-140655800D01*
X152553795Y-140655800D01*
X152339077Y-140744739D01*
X152174739Y-140909078D01*
X152085800Y-141123796D01*
X152085800Y-141356205D01*
X152085800Y-141916150D01*
X152231850Y-142062200D01*
X153492200Y-142062200D01*
X153492200Y-142417800D01*
X152231850Y-142417800D01*
X152085800Y-142563850D01*
X152085800Y-143123795D01*
X152085800Y-143356204D01*
X152174739Y-143570922D01*
X152339077Y-143735261D01*
X152553795Y-143824200D01*
X153346150Y-143824200D01*
X153492200Y-143678150D01*
X153492200Y-145973800D01*
X148269474Y-145973800D01*
X148269474Y-141926266D01*
X148028802Y-141343795D01*
X147583549Y-140897764D01*
X147001499Y-140656076D01*
X146371266Y-140655526D01*
X145788795Y-140896198D01*
X145342764Y-141341451D01*
X145101076Y-141923501D01*
X145100526Y-142553734D01*
X145341198Y-143136205D01*
X145786451Y-143582236D01*
X146368501Y-143823924D01*
X146998734Y-143824474D01*
X147581205Y-143583802D01*
X148027236Y-143138549D01*
X148268924Y-142556499D01*
X148269474Y-141926266D01*
X148269474Y-145973800D01*
X144459200Y-145973800D01*
X144459200Y-143356204D01*
X144459200Y-143123795D01*
X144459200Y-142563850D01*
X144459200Y-141916150D01*
X144459200Y-141356205D01*
X144459200Y-141123796D01*
X144370261Y-140909078D01*
X144205923Y-140744739D01*
X143991205Y-140655800D01*
X143198850Y-140655800D01*
X143052800Y-140801850D01*
X143052800Y-142062200D01*
X144313150Y-142062200D01*
X144459200Y-141916150D01*
X144459200Y-142563850D01*
X144313150Y-142417800D01*
X143052800Y-142417800D01*
X143052800Y-143678150D01*
X143198850Y-143824200D01*
X143991205Y-143824200D01*
X144205923Y-143735261D01*
X144370261Y-143570922D01*
X144459200Y-143356204D01*
X144459200Y-145973800D01*
X142697200Y-145973800D01*
X142697200Y-143678150D01*
X142697200Y-142417800D01*
X142697200Y-142062200D01*
X142697200Y-140801850D01*
X142551150Y-140655800D01*
X141758795Y-140655800D01*
X141544077Y-140744739D01*
X141379739Y-140909078D01*
X141290800Y-141123796D01*
X141290800Y-141356205D01*
X141290800Y-141916150D01*
X141436850Y-142062200D01*
X142697200Y-142062200D01*
X142697200Y-142417800D01*
X141436850Y-142417800D01*
X141290800Y-142563850D01*
X141290800Y-143123795D01*
X141290800Y-143356204D01*
X141379739Y-143570922D01*
X141544077Y-143735261D01*
X141758795Y-143824200D01*
X142551150Y-143824200D01*
X142697200Y-143678150D01*
X142697200Y-145973800D01*
X137474474Y-145973800D01*
X137474474Y-141926266D01*
X137233802Y-141343795D01*
X136788549Y-140897764D01*
X136206499Y-140656076D01*
X135576266Y-140655526D01*
X134993795Y-140896198D01*
X134547764Y-141341451D01*
X134306076Y-141923501D01*
X134305526Y-142553734D01*
X134546198Y-143136205D01*
X134991451Y-143582236D01*
X135573501Y-143823924D01*
X136203734Y-143824474D01*
X136786205Y-143583802D01*
X137232236Y-143138549D01*
X137473924Y-142556499D01*
X137474474Y-141926266D01*
X137474474Y-145973800D01*
X133664200Y-145973800D01*
X133664200Y-143356204D01*
X133664200Y-143123795D01*
X133664200Y-142563850D01*
X133664200Y-141916150D01*
X133664200Y-141356205D01*
X133664200Y-141123796D01*
X133575261Y-140909078D01*
X133410923Y-140744739D01*
X133196205Y-140655800D01*
X132403850Y-140655800D01*
X132257800Y-140801850D01*
X132257800Y-142062200D01*
X133518150Y-142062200D01*
X133664200Y-141916150D01*
X133664200Y-142563850D01*
X133518150Y-142417800D01*
X132257800Y-142417800D01*
X132257800Y-143678150D01*
X132403850Y-143824200D01*
X133196205Y-143824200D01*
X133410923Y-143735261D01*
X133575261Y-143570922D01*
X133664200Y-143356204D01*
X133664200Y-145973800D01*
X131902200Y-145973800D01*
X131902200Y-143678150D01*
X131902200Y-142417800D01*
X131902200Y-142062200D01*
X131902200Y-140801850D01*
X131756150Y-140655800D01*
X130963795Y-140655800D01*
X130749077Y-140744739D01*
X130584739Y-140909078D01*
X130495800Y-141123796D01*
X130495800Y-141356205D01*
X130495800Y-141916150D01*
X130641850Y-142062200D01*
X131902200Y-142062200D01*
X131902200Y-142417800D01*
X130641850Y-142417800D01*
X130495800Y-142563850D01*
X130495800Y-143123795D01*
X130495800Y-143356204D01*
X130584739Y-143570922D01*
X130749077Y-143735261D01*
X130963795Y-143824200D01*
X131756150Y-143824200D01*
X131902200Y-143678150D01*
X131902200Y-145973800D01*
X129616200Y-145973800D01*
X129616200Y-139141200D01*
X192328800Y-139141200D01*
X192328800Y-145973800D01*
M02*
