<?xml version="1.0" encoding="utf-8" standalone="no"?>
<!DOCTYPE svg PUBLIC "-//W3C//DTD SVG 1.1//EN"
  "http://www.w3.org/Graphics/SVG/1.1/DTD/svg11.dtd">
<!-- Created with matplotlib (https://matplotlib.org/) -->
<svg height="349.621687pt" version="1.1" viewBox="0 0 429.230937 349.621687" width="429.230937pt" xmlns="http://www.w3.org/2000/svg" xmlns:xlink="http://www.w3.org/1999/xlink">
 <defs>
  <style type="text/css">
*{stroke-linecap:butt;stroke-linejoin:round;}
  </style>
 </defs>
 <g id="figure_1">
  <g id="patch_1">
   <path d="M 0 349.621687 
L 429.230937 349.621687 
L 429.230937 0 
L 0 0 
z
" style="fill:none;"/>
  </g>
  <g id="axes_1">
   <g id="patch_2">
    <path d="M 61.410938 297.54825 
L 418.530938 297.54825 
L 418.530938 31.43625 
L 61.410938 31.43625 
z
" style="fill:none;"/>
   </g>
   <g id="matplotlib.axis_1">
    <g id="xtick_1">
     <g id="line2d_1">
      <path clip-path="url(#pbcf3292bdb)" d="M 91.170938 297.54825 
L 91.170938 31.43625 
" style="fill:none;stroke:#b0b0b0;stroke-linecap:square;stroke-width:0.8;"/>
     </g>
     <g id="line2d_2">
      <defs>
       <path d="M 0 0 
L 0 3.5 
" id="m005f0a59be" style="stroke:#000000;stroke-width:0.8;"/>
      </defs>
      <g>
       <use style="stroke:#000000;stroke-width:0.8;" x="91.170938" xlink:href="#m005f0a59be" y="297.54825"/>
      </g>
     </g>
     <g id="text_1">
      <!-- 693.0 -->
      <defs>
       <path d="M 33.015625 40.375 
Q 26.375 40.375 22.484375 35.828125 
Q 18.609375 31.296875 18.609375 23.390625 
Q 18.609375 15.53125 22.484375 10.953125 
Q 26.375 6.390625 33.015625 6.390625 
Q 39.65625 6.390625 43.53125 10.953125 
Q 47.40625 15.53125 47.40625 23.390625 
Q 47.40625 31.296875 43.53125 35.828125 
Q 39.65625 40.375 33.015625 40.375 
z
M 52.59375 71.296875 
L 52.59375 62.3125 
Q 48.875 64.0625 45.09375 64.984375 
Q 41.3125 65.921875 37.59375 65.921875 
Q 27.828125 65.921875 22.671875 59.328125 
Q 17.53125 52.734375 16.796875 39.40625 
Q 19.671875 43.65625 24.015625 45.921875 
Q 28.375 48.1875 33.59375 48.1875 
Q 44.578125 48.1875 50.953125 41.515625 
Q 57.328125 34.859375 57.328125 23.390625 
Q 57.328125 12.15625 50.6875 5.359375 
Q 44.046875 -1.421875 33.015625 -1.421875 
Q 20.359375 -1.421875 13.671875 8.265625 
Q 6.984375 17.96875 6.984375 36.375 
Q 6.984375 53.65625 15.1875 63.9375 
Q 23.390625 74.21875 37.203125 74.21875 
Q 40.921875 74.21875 44.703125 73.484375 
Q 48.484375 72.75 52.59375 71.296875 
z
" id="DejaVuSans-54"/>
       <path d="M 10.984375 1.515625 
L 10.984375 10.5 
Q 14.703125 8.734375 18.5 7.8125 
Q 22.3125 6.890625 25.984375 6.890625 
Q 35.75 6.890625 40.890625 13.453125 
Q 46.046875 20.015625 46.78125 33.40625 
Q 43.953125 29.203125 39.59375 26.953125 
Q 35.25 24.703125 29.984375 24.703125 
Q 19.046875 24.703125 12.671875 31.3125 
Q 6.296875 37.9375 6.296875 49.421875 
Q 6.296875 60.640625 12.9375 67.421875 
Q 19.578125 74.21875 30.609375 74.21875 
Q 43.265625 74.21875 49.921875 64.515625 
Q 56.59375 54.828125 56.59375 36.375 
Q 56.59375 19.140625 48.40625 8.859375 
Q 40.234375 -1.421875 26.421875 -1.421875 
Q 22.703125 -1.421875 18.890625 -0.6875 
Q 15.09375 0.046875 10.984375 1.515625 
z
M 30.609375 32.421875 
Q 37.25 32.421875 41.125 36.953125 
Q 45.015625 41.5 45.015625 49.421875 
Q 45.015625 57.28125 41.125 61.84375 
Q 37.25 66.40625 30.609375 66.40625 
Q 23.96875 66.40625 20.09375 61.84375 
Q 16.21875 57.28125 16.21875 49.421875 
Q 16.21875 41.5 20.09375 36.953125 
Q 23.96875 32.421875 30.609375 32.421875 
z
" id="DejaVuSans-57"/>
       <path d="M 40.578125 39.3125 
Q 47.65625 37.796875 51.625 33 
Q 55.609375 28.21875 55.609375 21.1875 
Q 55.609375 10.40625 48.1875 4.484375 
Q 40.765625 -1.421875 27.09375 -1.421875 
Q 22.515625 -1.421875 17.65625 -0.515625 
Q 12.796875 0.390625 7.625 2.203125 
L 7.625 11.71875 
Q 11.71875 9.328125 16.59375 8.109375 
Q 21.484375 6.890625 26.8125 6.890625 
Q 36.078125 6.890625 40.9375 10.546875 
Q 45.796875 14.203125 45.796875 21.1875 
Q 45.796875 27.640625 41.28125 31.265625 
Q 36.765625 34.90625 28.71875 34.90625 
L 20.21875 34.90625 
L 20.21875 43.015625 
L 29.109375 43.015625 
Q 36.375 43.015625 40.234375 45.921875 
Q 44.09375 48.828125 44.09375 54.296875 
Q 44.09375 59.90625 40.109375 62.90625 
Q 36.140625 65.921875 28.71875 65.921875 
Q 24.65625 65.921875 20.015625 65.03125 
Q 15.375 64.15625 9.8125 62.3125 
L 9.8125 71.09375 
Q 15.4375 72.65625 20.34375 73.4375 
Q 25.25 74.21875 29.59375 74.21875 
Q 40.828125 74.21875 47.359375 69.109375 
Q 53.90625 64.015625 53.90625 55.328125 
Q 53.90625 49.265625 50.4375 45.09375 
Q 46.96875 40.921875 40.578125 39.3125 
z
" id="DejaVuSans-51"/>
       <path d="M 10.6875 12.40625 
L 21 12.40625 
L 21 0 
L 10.6875 0 
z
" id="DejaVuSans-46"/>
       <path d="M 31.78125 66.40625 
Q 24.171875 66.40625 20.328125 58.90625 
Q 16.5 51.421875 16.5 36.375 
Q 16.5 21.390625 20.328125 13.890625 
Q 24.171875 6.390625 31.78125 6.390625 
Q 39.453125 6.390625 43.28125 13.890625 
Q 47.125 21.390625 47.125 36.375 
Q 47.125 51.421875 43.28125 58.90625 
Q 39.453125 66.40625 31.78125 66.40625 
z
M 31.78125 74.21875 
Q 44.046875 74.21875 50.515625 64.515625 
Q 56.984375 54.828125 56.984375 36.375 
Q 56.984375 17.96875 50.515625 8.265625 
Q 44.046875 -1.421875 31.78125 -1.421875 
Q 19.53125 -1.421875 13.0625 8.265625 
Q 6.59375 17.96875 6.59375 36.375 
Q 6.59375 54.828125 13.0625 64.515625 
Q 19.53125 74.21875 31.78125 74.21875 
z
" id="DejaVuSans-48"/>
      </defs>
      <g transform="translate(69.699844 315.945906)scale(0.15 -0.15)">
       <use xlink:href="#DejaVuSans-54"/>
       <use x="63.623047" xlink:href="#DejaVuSans-57"/>
       <use x="127.246094" xlink:href="#DejaVuSans-51"/>
       <use x="190.869141" xlink:href="#DejaVuSans-46"/>
       <use x="222.65625" xlink:href="#DejaVuSans-48"/>
      </g>
     </g>
    </g>
    <g id="xtick_2">
     <g id="line2d_3">
      <path clip-path="url(#pbcf3292bdb)" d="M 165.570938 297.54825 
L 165.570938 31.43625 
" style="fill:none;stroke:#b0b0b0;stroke-linecap:square;stroke-width:0.8;"/>
     </g>
     <g id="line2d_4">
      <g>
       <use style="stroke:#000000;stroke-width:0.8;" x="165.570938" xlink:href="#m005f0a59be" y="297.54825"/>
      </g>
     </g>
     <g id="text_2">
      <!-- 693.5 -->
      <defs>
       <path d="M 10.796875 72.90625 
L 49.515625 72.90625 
L 49.515625 64.59375 
L 19.828125 64.59375 
L 19.828125 46.734375 
Q 21.96875 47.46875 24.109375 47.828125 
Q 26.265625 48.1875 28.421875 48.1875 
Q 40.625 48.1875 47.75 41.5 
Q 54.890625 34.8125 54.890625 23.390625 
Q 54.890625 11.625 47.5625 5.09375 
Q 40.234375 -1.421875 26.90625 -1.421875 
Q 22.3125 -1.421875 17.546875 -0.640625 
Q 12.796875 0.140625 7.71875 1.703125 
L 7.71875 11.625 
Q 12.109375 9.234375 16.796875 8.0625 
Q 21.484375 6.890625 26.703125 6.890625 
Q 35.15625 6.890625 40.078125 11.328125 
Q 45.015625 15.765625 45.015625 23.390625 
Q 45.015625 31 40.078125 35.4375 
Q 35.15625 39.890625 26.703125 39.890625 
Q 22.75 39.890625 18.8125 39.015625 
Q 14.890625 38.140625 10.796875 36.28125 
z
" id="DejaVuSans-53"/>
      </defs>
      <g transform="translate(144.099844 315.945906)scale(0.15 -0.15)">
       <use xlink:href="#DejaVuSans-54"/>
       <use x="63.623047" xlink:href="#DejaVuSans-57"/>
       <use x="127.246094" xlink:href="#DejaVuSans-51"/>
       <use x="190.869141" xlink:href="#DejaVuSans-46"/>
       <use x="222.65625" xlink:href="#DejaVuSans-53"/>
      </g>
     </g>
    </g>
    <g id="xtick_3">
     <g id="line2d_5">
      <path clip-path="url(#pbcf3292bdb)" d="M 239.970937 297.54825 
L 239.970937 31.43625 
" style="fill:none;stroke:#b0b0b0;stroke-linecap:square;stroke-width:0.8;"/>
     </g>
     <g id="line2d_6">
      <g>
       <use style="stroke:#000000;stroke-width:0.8;" x="239.970937" xlink:href="#m005f0a59be" y="297.54825"/>
      </g>
     </g>
     <g id="text_3">
      <!-- 694.0 -->
      <defs>
       <path d="M 37.796875 64.3125 
L 12.890625 25.390625 
L 37.796875 25.390625 
z
M 35.203125 72.90625 
L 47.609375 72.90625 
L 47.609375 25.390625 
L 58.015625 25.390625 
L 58.015625 17.1875 
L 47.609375 17.1875 
L 47.609375 0 
L 37.796875 0 
L 37.796875 17.1875 
L 4.890625 17.1875 
L 4.890625 26.703125 
z
" id="DejaVuSans-52"/>
      </defs>
      <g transform="translate(218.499844 315.945906)scale(0.15 -0.15)">
       <use xlink:href="#DejaVuSans-54"/>
       <use x="63.623047" xlink:href="#DejaVuSans-57"/>
       <use x="127.246094" xlink:href="#DejaVuSans-52"/>
       <use x="190.869141" xlink:href="#DejaVuSans-46"/>
       <use x="222.65625" xlink:href="#DejaVuSans-48"/>
      </g>
     </g>
    </g>
    <g id="xtick_4">
     <g id="line2d_7">
      <path clip-path="url(#pbcf3292bdb)" d="M 314.370938 297.54825 
L 314.370938 31.43625 
" style="fill:none;stroke:#b0b0b0;stroke-linecap:square;stroke-width:0.8;"/>
     </g>
     <g id="line2d_8">
      <g>
       <use style="stroke:#000000;stroke-width:0.8;" x="314.370938" xlink:href="#m005f0a59be" y="297.54825"/>
      </g>
     </g>
     <g id="text_4">
      <!-- 694.5 -->
      <g transform="translate(292.899844 315.945906)scale(0.15 -0.15)">
       <use xlink:href="#DejaVuSans-54"/>
       <use x="63.623047" xlink:href="#DejaVuSans-57"/>
       <use x="127.246094" xlink:href="#DejaVuSans-52"/>
       <use x="190.869141" xlink:href="#DejaVuSans-46"/>
       <use x="222.65625" xlink:href="#DejaVuSans-53"/>
      </g>
     </g>
    </g>
    <g id="xtick_5">
     <g id="line2d_9">
      <path clip-path="url(#pbcf3292bdb)" d="M 388.770937 297.54825 
L 388.770937 31.43625 
" style="fill:none;stroke:#b0b0b0;stroke-linecap:square;stroke-width:0.8;"/>
     </g>
     <g id="line2d_10">
      <g>
       <use style="stroke:#000000;stroke-width:0.8;" x="388.770937" xlink:href="#m005f0a59be" y="297.54825"/>
      </g>
     </g>
     <g id="text_5">
      <!-- 695.0 -->
      <g transform="translate(367.299844 315.945906)scale(0.15 -0.15)">
       <use xlink:href="#DejaVuSans-54"/>
       <use x="63.623047" xlink:href="#DejaVuSans-57"/>
       <use x="127.246094" xlink:href="#DejaVuSans-53"/>
       <use x="190.869141" xlink:href="#DejaVuSans-46"/>
       <use x="222.65625" xlink:href="#DejaVuSans-48"/>
      </g>
     </g>
    </g>
    <g id="text_6">
     <!-- 288XXX GHz -->
     <defs>
      <path d="M 19.1875 8.296875 
L 53.609375 8.296875 
L 53.609375 0 
L 7.328125 0 
L 7.328125 8.296875 
Q 12.9375 14.109375 22.625 23.890625 
Q 32.328125 33.6875 34.8125 36.53125 
Q 39.546875 41.84375 41.421875 45.53125 
Q 43.3125 49.21875 43.3125 52.78125 
Q 43.3125 58.59375 39.234375 62.25 
Q 35.15625 65.921875 28.609375 65.921875 
Q 23.96875 65.921875 18.8125 64.3125 
Q 13.671875 62.703125 7.8125 59.421875 
L 7.8125 69.390625 
Q 13.765625 71.78125 18.9375 73 
Q 24.125 74.21875 28.421875 74.21875 
Q 39.75 74.21875 46.484375 68.546875 
Q 53.21875 62.890625 53.21875 53.421875 
Q 53.21875 48.921875 51.53125 44.890625 
Q 49.859375 40.875 45.40625 35.40625 
Q 44.1875 33.984375 37.640625 27.21875 
Q 31.109375 20.453125 19.1875 8.296875 
z
" id="DejaVuSans-50"/>
      <path d="M 31.78125 34.625 
Q 24.75 34.625 20.71875 30.859375 
Q 16.703125 27.09375 16.703125 20.515625 
Q 16.703125 13.921875 20.71875 10.15625 
Q 24.75 6.390625 31.78125 6.390625 
Q 38.8125 6.390625 42.859375 10.171875 
Q 46.921875 13.96875 46.921875 20.515625 
Q 46.921875 27.09375 42.890625 30.859375 
Q 38.875 34.625 31.78125 34.625 
z
M 21.921875 38.8125 
Q 15.578125 40.375 12.03125 44.71875 
Q 8.5 49.078125 8.5 55.328125 
Q 8.5 64.0625 14.71875 69.140625 
Q 20.953125 74.21875 31.78125 74.21875 
Q 42.671875 74.21875 48.875 69.140625 
Q 55.078125 64.0625 55.078125 55.328125 
Q 55.078125 49.078125 51.53125 44.71875 
Q 48 40.375 41.703125 38.8125 
Q 48.828125 37.15625 52.796875 32.3125 
Q 56.78125 27.484375 56.78125 20.515625 
Q 56.78125 9.90625 50.3125 4.234375 
Q 43.84375 -1.421875 31.78125 -1.421875 
Q 19.734375 -1.421875 13.25 4.234375 
Q 6.78125 9.90625 6.78125 20.515625 
Q 6.78125 27.484375 10.78125 32.3125 
Q 14.796875 37.15625 21.921875 38.8125 
z
M 18.3125 54.390625 
Q 18.3125 48.734375 21.84375 45.5625 
Q 25.390625 42.390625 31.78125 42.390625 
Q 38.140625 42.390625 41.71875 45.5625 
Q 45.3125 48.734375 45.3125 54.390625 
Q 45.3125 60.0625 41.71875 63.234375 
Q 38.140625 66.40625 31.78125 66.40625 
Q 25.390625 66.40625 21.84375 63.234375 
Q 18.3125 60.0625 18.3125 54.390625 
z
" id="DejaVuSans-56"/>
      <path d="M 6.296875 72.90625 
L 16.890625 72.90625 
L 35.015625 45.796875 
L 53.21875 72.90625 
L 63.8125 72.90625 
L 40.375 37.890625 
L 65.375 0 
L 54.78125 0 
L 34.28125 31 
L 13.625 0 
L 2.984375 0 
L 29 38.921875 
z
" id="DejaVuSans-88"/>
      <path id="DejaVuSans-32"/>
      <path d="M 59.515625 10.40625 
L 59.515625 29.984375 
L 43.40625 29.984375 
L 43.40625 38.09375 
L 69.28125 38.09375 
L 69.28125 6.78125 
Q 63.578125 2.734375 56.6875 0.65625 
Q 49.8125 -1.421875 42 -1.421875 
Q 24.90625 -1.421875 15.25 8.5625 
Q 5.609375 18.5625 5.609375 36.375 
Q 5.609375 54.25 15.25 64.234375 
Q 24.90625 74.21875 42 74.21875 
Q 49.125 74.21875 55.546875 72.453125 
Q 61.96875 70.703125 67.390625 67.28125 
L 67.390625 56.78125 
Q 61.921875 61.421875 55.765625 63.765625 
Q 49.609375 66.109375 42.828125 66.109375 
Q 29.4375 66.109375 22.71875 58.640625 
Q 16.015625 51.171875 16.015625 36.375 
Q 16.015625 21.625 22.71875 14.15625 
Q 29.4375 6.6875 42.828125 6.6875 
Q 48.046875 6.6875 52.140625 7.59375 
Q 56.25 8.5 59.515625 10.40625 
z
" id="DejaVuSans-71"/>
      <path d="M 9.8125 72.90625 
L 19.671875 72.90625 
L 19.671875 43.015625 
L 55.515625 43.015625 
L 55.515625 72.90625 
L 65.375 72.90625 
L 65.375 0 
L 55.515625 0 
L 55.515625 34.71875 
L 19.671875 34.71875 
L 19.671875 0 
L 9.8125 0 
z
" id="DejaVuSans-72"/>
      <path d="M 5.515625 54.6875 
L 48.1875 54.6875 
L 48.1875 46.484375 
L 14.40625 7.171875 
L 48.1875 7.171875 
L 48.1875 0 
L 4.296875 0 
L 4.296875 8.203125 
L 38.09375 47.515625 
L 5.515625 47.515625 
z
" id="DejaVuSans-122"/>
     </defs>
     <g transform="translate(176.638125 338.262312)scale(0.2 -0.2)">
      <use xlink:href="#DejaVuSans-50"/>
      <use x="63.623047" xlink:href="#DejaVuSans-56"/>
      <use x="127.246094" xlink:href="#DejaVuSans-56"/>
      <use x="190.869141" xlink:href="#DejaVuSans-88"/>
      <use x="259.375" xlink:href="#DejaVuSans-88"/>
      <use x="327.880859" xlink:href="#DejaVuSans-88"/>
      <use x="396.386719" xlink:href="#DejaVuSans-32"/>
      <use x="428.173828" xlink:href="#DejaVuSans-71"/>
      <use x="505.664062" xlink:href="#DejaVuSans-72"/>
      <use x="580.859375" xlink:href="#DejaVuSans-122"/>
     </g>
    </g>
   </g>
   <g id="matplotlib.axis_2">
    <g id="ytick_1">
     <g id="line2d_11">
      <path clip-path="url(#pbcf3292bdb)" d="M 61.410938 297.54825 
L 418.530938 297.54825 
" style="fill:none;stroke:#b0b0b0;stroke-linecap:square;stroke-width:0.8;"/>
     </g>
     <g id="line2d_12">
      <defs>
       <path d="M 0 0 
L -3.5 0 
" id="mc3ce260a5b" style="stroke:#000000;stroke-width:0.8;"/>
      </defs>
      <g>
       <use style="stroke:#000000;stroke-width:0.8;" x="61.410938" xlink:href="#mc3ce260a5b" y="297.54825"/>
      </g>
     </g>
     <g id="text_7">
      <!-- 0.2 -->
      <g transform="translate(30.55625 303.247078)scale(0.15 -0.15)">
       <use xlink:href="#DejaVuSans-48"/>
       <use x="63.623047" xlink:href="#DejaVuSans-46"/>
       <use x="95.410156" xlink:href="#DejaVuSans-50"/>
      </g>
     </g>
    </g>
    <g id="ytick_2">
     <g id="line2d_13">
      <path clip-path="url(#pbcf3292bdb)" d="M 61.410938 259.53225 
L 418.530938 259.53225 
" style="fill:none;stroke:#b0b0b0;stroke-linecap:square;stroke-width:0.8;"/>
     </g>
     <g id="line2d_14">
      <g>
       <use style="stroke:#000000;stroke-width:0.8;" x="61.410938" xlink:href="#mc3ce260a5b" y="259.53225"/>
      </g>
     </g>
     <g id="text_8">
      <!-- 0.3 -->
      <g transform="translate(30.55625 265.231078)scale(0.15 -0.15)">
       <use xlink:href="#DejaVuSans-48"/>
       <use x="63.623047" xlink:href="#DejaVuSans-46"/>
       <use x="95.410156" xlink:href="#DejaVuSans-51"/>
      </g>
     </g>
    </g>
    <g id="ytick_3">
     <g id="line2d_15">
      <path clip-path="url(#pbcf3292bdb)" d="M 61.410938 221.51625 
L 418.530938 221.51625 
" style="fill:none;stroke:#b0b0b0;stroke-linecap:square;stroke-width:0.8;"/>
     </g>
     <g id="line2d_16">
      <g>
       <use style="stroke:#000000;stroke-width:0.8;" x="61.410938" xlink:href="#mc3ce260a5b" y="221.51625"/>
      </g>
     </g>
     <g id="text_9">
      <!-- 0.4 -->
      <g transform="translate(30.55625 227.215078)scale(0.15 -0.15)">
       <use xlink:href="#DejaVuSans-48"/>
       <use x="63.623047" xlink:href="#DejaVuSans-46"/>
       <use x="95.410156" xlink:href="#DejaVuSans-52"/>
      </g>
     </g>
    </g>
    <g id="ytick_4">
     <g id="line2d_17">
      <path clip-path="url(#pbcf3292bdb)" d="M 61.410938 183.50025 
L 418.530938 183.50025 
" style="fill:none;stroke:#b0b0b0;stroke-linecap:square;stroke-width:0.8;"/>
     </g>
     <g id="line2d_18">
      <g>
       <use style="stroke:#000000;stroke-width:0.8;" x="61.410938" xlink:href="#mc3ce260a5b" y="183.50025"/>
      </g>
     </g>
     <g id="text_10">
      <!-- 0.5 -->
      <g transform="translate(30.55625 189.199078)scale(0.15 -0.15)">
       <use xlink:href="#DejaVuSans-48"/>
       <use x="63.623047" xlink:href="#DejaVuSans-46"/>
       <use x="95.410156" xlink:href="#DejaVuSans-53"/>
      </g>
     </g>
    </g>
    <g id="ytick_5">
     <g id="line2d_19">
      <path clip-path="url(#pbcf3292bdb)" d="M 61.410938 145.48425 
L 418.530938 145.48425 
" style="fill:none;stroke:#b0b0b0;stroke-linecap:square;stroke-width:0.8;"/>
     </g>
     <g id="line2d_20">
      <g>
       <use style="stroke:#000000;stroke-width:0.8;" x="61.410938" xlink:href="#mc3ce260a5b" y="145.48425"/>
      </g>
     </g>
     <g id="text_11">
      <!-- 0.6 -->
      <g transform="translate(30.55625 151.183078)scale(0.15 -0.15)">
       <use xlink:href="#DejaVuSans-48"/>
       <use x="63.623047" xlink:href="#DejaVuSans-46"/>
       <use x="95.410156" xlink:href="#DejaVuSans-54"/>
      </g>
     </g>
    </g>
    <g id="ytick_6">
     <g id="line2d_21">
      <path clip-path="url(#pbcf3292bdb)" d="M 61.410938 107.46825 
L 418.530938 107.46825 
" style="fill:none;stroke:#b0b0b0;stroke-linecap:square;stroke-width:0.8;"/>
     </g>
     <g id="line2d_22">
      <g>
       <use style="stroke:#000000;stroke-width:0.8;" x="61.410938" xlink:href="#mc3ce260a5b" y="107.46825"/>
      </g>
     </g>
     <g id="text_12">
      <!-- 0.7 -->
      <defs>
       <path d="M 8.203125 72.90625 
L 55.078125 72.90625 
L 55.078125 68.703125 
L 28.609375 0 
L 18.3125 0 
L 43.21875 64.59375 
L 8.203125 64.59375 
z
" id="DejaVuSans-55"/>
      </defs>
      <g transform="translate(30.55625 113.167078)scale(0.15 -0.15)">
       <use xlink:href="#DejaVuSans-48"/>
       <use x="63.623047" xlink:href="#DejaVuSans-46"/>
       <use x="95.410156" xlink:href="#DejaVuSans-55"/>
      </g>
     </g>
    </g>
    <g id="ytick_7">
     <g id="line2d_23">
      <path clip-path="url(#pbcf3292bdb)" d="M 61.410938 69.45225 
L 418.530938 69.45225 
" style="fill:none;stroke:#b0b0b0;stroke-linecap:square;stroke-width:0.8;"/>
     </g>
     <g id="line2d_24">
      <g>
       <use style="stroke:#000000;stroke-width:0.8;" x="61.410938" xlink:href="#mc3ce260a5b" y="69.45225"/>
      </g>
     </g>
     <g id="text_13">
      <!-- 0.8 -->
      <g transform="translate(30.55625 75.151078)scale(0.15 -0.15)">
       <use xlink:href="#DejaVuSans-48"/>
       <use x="63.623047" xlink:href="#DejaVuSans-46"/>
       <use x="95.410156" xlink:href="#DejaVuSans-56"/>
      </g>
     </g>
    </g>
    <g id="ytick_8">
     <g id="line2d_25">
      <path clip-path="url(#pbcf3292bdb)" d="M 61.410938 31.43625 
L 418.530938 31.43625 
" style="fill:none;stroke:#b0b0b0;stroke-linecap:square;stroke-width:0.8;"/>
     </g>
     <g id="line2d_26">
      <g>
       <use style="stroke:#000000;stroke-width:0.8;" x="61.410938" xlink:href="#mc3ce260a5b" y="31.43625"/>
      </g>
     </g>
     <g id="text_14">
      <!-- 0.9 -->
      <g transform="translate(30.55625 37.135078)scale(0.15 -0.15)">
       <use xlink:href="#DejaVuSans-48"/>
       <use x="63.623047" xlink:href="#DejaVuSans-46"/>
       <use x="95.410156" xlink:href="#DejaVuSans-57"/>
      </g>
     </g>
    </g>
    <g id="text_15">
     <!-- Two-body survival -->
     <defs>
      <path d="M -0.296875 72.90625 
L 61.375 72.90625 
L 61.375 64.59375 
L 35.5 64.59375 
L 35.5 0 
L 25.59375 0 
L 25.59375 64.59375 
L -0.296875 64.59375 
z
" id="DejaVuSans-84"/>
      <path d="M 4.203125 54.6875 
L 13.1875 54.6875 
L 24.421875 12.015625 
L 35.59375 54.6875 
L 46.1875 54.6875 
L 57.421875 12.015625 
L 68.609375 54.6875 
L 77.59375 54.6875 
L 63.28125 0 
L 52.6875 0 
L 40.921875 44.828125 
L 29.109375 0 
L 18.5 0 
z
" id="DejaVuSans-119"/>
      <path d="M 30.609375 48.390625 
Q 23.390625 48.390625 19.1875 42.75 
Q 14.984375 37.109375 14.984375 27.296875 
Q 14.984375 17.484375 19.15625 11.84375 
Q 23.34375 6.203125 30.609375 6.203125 
Q 37.796875 6.203125 41.984375 11.859375 
Q 46.1875 17.53125 46.1875 27.296875 
Q 46.1875 37.015625 41.984375 42.703125 
Q 37.796875 48.390625 30.609375 48.390625 
z
M 30.609375 56 
Q 42.328125 56 49.015625 48.375 
Q 55.71875 40.765625 55.71875 27.296875 
Q 55.71875 13.875 49.015625 6.21875 
Q 42.328125 -1.421875 30.609375 -1.421875 
Q 18.84375 -1.421875 12.171875 6.21875 
Q 5.515625 13.875 5.515625 27.296875 
Q 5.515625 40.765625 12.171875 48.375 
Q 18.84375 56 30.609375 56 
z
" id="DejaVuSans-111"/>
      <path d="M 4.890625 31.390625 
L 31.203125 31.390625 
L 31.203125 23.390625 
L 4.890625 23.390625 
z
" id="DejaVuSans-45"/>
      <path d="M 48.6875 27.296875 
Q 48.6875 37.203125 44.609375 42.84375 
Q 40.53125 48.484375 33.40625 48.484375 
Q 26.265625 48.484375 22.1875 42.84375 
Q 18.109375 37.203125 18.109375 27.296875 
Q 18.109375 17.390625 22.1875 11.75 
Q 26.265625 6.109375 33.40625 6.109375 
Q 40.53125 6.109375 44.609375 11.75 
Q 48.6875 17.390625 48.6875 27.296875 
z
M 18.109375 46.390625 
Q 20.953125 51.265625 25.265625 53.625 
Q 29.59375 56 35.59375 56 
Q 45.5625 56 51.78125 48.09375 
Q 58.015625 40.1875 58.015625 27.296875 
Q 58.015625 14.40625 51.78125 6.484375 
Q 45.5625 -1.421875 35.59375 -1.421875 
Q 29.59375 -1.421875 25.265625 0.953125 
Q 20.953125 3.328125 18.109375 8.203125 
L 18.109375 0 
L 9.078125 0 
L 9.078125 75.984375 
L 18.109375 75.984375 
z
" id="DejaVuSans-98"/>
      <path d="M 45.40625 46.390625 
L 45.40625 75.984375 
L 54.390625 75.984375 
L 54.390625 0 
L 45.40625 0 
L 45.40625 8.203125 
Q 42.578125 3.328125 38.25 0.953125 
Q 33.9375 -1.421875 27.875 -1.421875 
Q 17.96875 -1.421875 11.734375 6.484375 
Q 5.515625 14.40625 5.515625 27.296875 
Q 5.515625 40.1875 11.734375 48.09375 
Q 17.96875 56 27.875 56 
Q 33.9375 56 38.25 53.625 
Q 42.578125 51.265625 45.40625 46.390625 
z
M 14.796875 27.296875 
Q 14.796875 17.390625 18.875 11.75 
Q 22.953125 6.109375 30.078125 6.109375 
Q 37.203125 6.109375 41.296875 11.75 
Q 45.40625 17.390625 45.40625 27.296875 
Q 45.40625 37.203125 41.296875 42.84375 
Q 37.203125 48.484375 30.078125 48.484375 
Q 22.953125 48.484375 18.875 42.84375 
Q 14.796875 37.203125 14.796875 27.296875 
z
" id="DejaVuSans-100"/>
      <path d="M 32.171875 -5.078125 
Q 28.375 -14.84375 24.75 -17.8125 
Q 21.140625 -20.796875 15.09375 -20.796875 
L 7.90625 -20.796875 
L 7.90625 -13.28125 
L 13.1875 -13.28125 
Q 16.890625 -13.28125 18.9375 -11.515625 
Q 21 -9.765625 23.484375 -3.21875 
L 25.09375 0.875 
L 2.984375 54.6875 
L 12.5 54.6875 
L 29.59375 11.921875 
L 46.6875 54.6875 
L 56.203125 54.6875 
z
" id="DejaVuSans-121"/>
      <path d="M 44.28125 53.078125 
L 44.28125 44.578125 
Q 40.484375 46.53125 36.375 47.5 
Q 32.28125 48.484375 27.875 48.484375 
Q 21.1875 48.484375 17.84375 46.4375 
Q 14.5 44.390625 14.5 40.28125 
Q 14.5 37.15625 16.890625 35.375 
Q 19.28125 33.59375 26.515625 31.984375 
L 29.59375 31.296875 
Q 39.15625 29.25 43.1875 25.515625 
Q 47.21875 21.78125 47.21875 15.09375 
Q 47.21875 7.46875 41.1875 3.015625 
Q 35.15625 -1.421875 24.609375 -1.421875 
Q 20.21875 -1.421875 15.453125 -0.5625 
Q 10.6875 0.296875 5.421875 2 
L 5.421875 11.28125 
Q 10.40625 8.6875 15.234375 7.390625 
Q 20.0625 6.109375 24.8125 6.109375 
Q 31.15625 6.109375 34.5625 8.28125 
Q 37.984375 10.453125 37.984375 14.40625 
Q 37.984375 18.0625 35.515625 20.015625 
Q 33.0625 21.96875 24.703125 23.78125 
L 21.578125 24.515625 
Q 13.234375 26.265625 9.515625 29.90625 
Q 5.8125 33.546875 5.8125 39.890625 
Q 5.8125 47.609375 11.28125 51.796875 
Q 16.75 56 26.8125 56 
Q 31.78125 56 36.171875 55.265625 
Q 40.578125 54.546875 44.28125 53.078125 
z
" id="DejaVuSans-115"/>
      <path d="M 8.5 21.578125 
L 8.5 54.6875 
L 17.484375 54.6875 
L 17.484375 21.921875 
Q 17.484375 14.15625 20.5 10.265625 
Q 23.53125 6.390625 29.59375 6.390625 
Q 36.859375 6.390625 41.078125 11.03125 
Q 45.3125 15.671875 45.3125 23.6875 
L 45.3125 54.6875 
L 54.296875 54.6875 
L 54.296875 0 
L 45.3125 0 
L 45.3125 8.40625 
Q 42.046875 3.421875 37.71875 1 
Q 33.40625 -1.421875 27.6875 -1.421875 
Q 18.265625 -1.421875 13.375 4.4375 
Q 8.5 10.296875 8.5 21.578125 
z
M 31.109375 56 
z
" id="DejaVuSans-117"/>
      <path d="M 41.109375 46.296875 
Q 39.59375 47.171875 37.8125 47.578125 
Q 36.03125 48 33.890625 48 
Q 26.265625 48 22.1875 43.046875 
Q 18.109375 38.09375 18.109375 28.8125 
L 18.109375 0 
L 9.078125 0 
L 9.078125 54.6875 
L 18.109375 54.6875 
L 18.109375 46.1875 
Q 20.953125 51.171875 25.484375 53.578125 
Q 30.03125 56 36.53125 56 
Q 37.453125 56 38.578125 55.875 
Q 39.703125 55.765625 41.0625 55.515625 
z
" id="DejaVuSans-114"/>
      <path d="M 2.984375 54.6875 
L 12.5 54.6875 
L 29.59375 8.796875 
L 46.6875 54.6875 
L 56.203125 54.6875 
L 35.6875 0 
L 23.484375 0 
z
" id="DejaVuSans-118"/>
      <path d="M 9.421875 54.6875 
L 18.40625 54.6875 
L 18.40625 0 
L 9.421875 0 
z
M 9.421875 75.984375 
L 18.40625 75.984375 
L 18.40625 64.59375 
L 9.421875 64.59375 
z
" id="DejaVuSans-105"/>
      <path d="M 34.28125 27.484375 
Q 23.390625 27.484375 19.1875 25 
Q 14.984375 22.515625 14.984375 16.5 
Q 14.984375 11.71875 18.140625 8.90625 
Q 21.296875 6.109375 26.703125 6.109375 
Q 34.1875 6.109375 38.703125 11.40625 
Q 43.21875 16.703125 43.21875 25.484375 
L 43.21875 27.484375 
z
M 52.203125 31.203125 
L 52.203125 0 
L 43.21875 0 
L 43.21875 8.296875 
Q 40.140625 3.328125 35.546875 0.953125 
Q 30.953125 -1.421875 24.3125 -1.421875 
Q 15.921875 -1.421875 10.953125 3.296875 
Q 6 8.015625 6 15.921875 
Q 6 25.140625 12.171875 29.828125 
Q 18.359375 34.515625 30.609375 34.515625 
L 43.21875 34.515625 
L 43.21875 35.40625 
Q 43.21875 41.609375 39.140625 45 
Q 35.0625 48.390625 27.6875 48.390625 
Q 23 48.390625 18.546875 47.265625 
Q 14.109375 46.140625 10.015625 43.890625 
L 10.015625 52.203125 
Q 14.9375 54.109375 19.578125 55.046875 
Q 24.21875 56 28.609375 56 
Q 40.484375 56 46.34375 49.84375 
Q 52.203125 43.703125 52.203125 31.203125 
z
" id="DejaVuSans-97"/>
      <path d="M 9.421875 75.984375 
L 18.40625 75.984375 
L 18.40625 0 
L 9.421875 0 
z
" id="DejaVuSans-108"/>
     </defs>
     <g transform="translate(22.396875 255.5735)rotate(-90)scale(0.2 -0.2)">
      <use xlink:href="#DejaVuSans-84"/>
      <use x="60.833984" xlink:href="#DejaVuSans-119"/>
      <use x="142.621094" xlink:href="#DejaVuSans-111"/>
      <use x="203.818359" xlink:href="#DejaVuSans-45"/>
      <use x="239.902344" xlink:href="#DejaVuSans-98"/>
      <use x="303.378906" xlink:href="#DejaVuSans-111"/>
      <use x="364.560547" xlink:href="#DejaVuSans-100"/>
      <use x="428.037109" xlink:href="#DejaVuSans-121"/>
      <use x="487.216797" xlink:href="#DejaVuSans-32"/>
      <use x="519.003906" xlink:href="#DejaVuSans-115"/>
      <use x="571.103516" xlink:href="#DejaVuSans-117"/>
      <use x="634.482422" xlink:href="#DejaVuSans-114"/>
      <use x="675.595703" xlink:href="#DejaVuSans-118"/>
      <use x="734.775391" xlink:href="#DejaVuSans-105"/>
      <use x="762.558594" xlink:href="#DejaVuSans-118"/>
      <use x="821.738281" xlink:href="#DejaVuSans-97"/>
      <use x="883.017578" xlink:href="#DejaVuSans-108"/>
     </g>
    </g>
   </g>
   <g id="LineCollection_1">
    <path clip-path="url(#pbcf3292bdb)" d="M 91.170938 218.342126 
L 91.170938 201.010917 
" style="fill:none;stroke:#1f77b4;stroke-width:1.5;"/>
    <path clip-path="url(#pbcf3292bdb)" d="M 106.050938 222.751573 
L 106.050938 207.39631 
" style="fill:none;stroke:#1f77b4;stroke-width:1.5;"/>
    <path clip-path="url(#pbcf3292bdb)" d="M 120.930938 237.966608 
L 120.930938 223.151174 
" style="fill:none;stroke:#1f77b4;stroke-width:1.5;"/>
    <path clip-path="url(#pbcf3292bdb)" d="M 135.810938 236.052723 
L 135.810938 221.25866 
" style="fill:none;stroke:#1f77b4;stroke-width:1.5;"/>
    <path clip-path="url(#pbcf3292bdb)" d="M 150.690938 252.270025 
L 150.690938 238.76573 
" style="fill:none;stroke:#1f77b4;stroke-width:1.5;"/>
    <path clip-path="url(#pbcf3292bdb)" d="M 165.570938 244.939153 
L 165.570938 231.145996 
" style="fill:none;stroke:#1f77b4;stroke-width:1.5;"/>
    <path clip-path="url(#pbcf3292bdb)" d="M 180.450938 261.526162 
L 180.450938 247.667104 
" style="fill:none;stroke:#1f77b4;stroke-width:1.5;"/>
    <path clip-path="url(#pbcf3292bdb)" d="M 195.330938 268.54654 
L 195.330938 254.74196 
" style="fill:none;stroke:#1f77b4;stroke-width:1.5;"/>
    <path clip-path="url(#pbcf3292bdb)" d="M 210.210938 266.307334 
L 210.210938 251.987871 
" style="fill:none;stroke:#1f77b4;stroke-width:1.5;"/>
    <path clip-path="url(#pbcf3292bdb)" d="M 225.090938 288.802229 
L 225.090938 275.552547 
" style="fill:none;stroke:#1f77b4;stroke-width:1.5;"/>
    <path clip-path="url(#pbcf3292bdb)" d="M 239.970937 270.02729 
L 239.970937 256.452096 
" style="fill:none;stroke:#1f77b4;stroke-width:1.5;"/>
    <path clip-path="url(#pbcf3292bdb)" d="M 254.850937 289.728015 
L 254.850937 276.247043 
" style="fill:none;stroke:#1f77b4;stroke-width:1.5;"/>
    <path clip-path="url(#pbcf3292bdb)" d="M 269.730938 282.388222 
L 269.730938 267.024507 
" style="fill:none;stroke:#1f77b4;stroke-width:1.5;"/>
    <path clip-path="url(#pbcf3292bdb)" d="M 284.610938 275.931806 
L 284.610938 260.782979 
" style="fill:none;stroke:#1f77b4;stroke-width:1.5;"/>
    <path clip-path="url(#pbcf3292bdb)" d="M 299.490938 280.309155 
L 299.490938 265.181101 
" style="fill:none;stroke:#1f77b4;stroke-width:1.5;"/>
    <path clip-path="url(#pbcf3292bdb)" d="M 314.370938 276.22807 
L 314.370938 261.912074 
" style="fill:none;stroke:#1f77b4;stroke-width:1.5;"/>
    <path clip-path="url(#pbcf3292bdb)" d="M 329.250937 254.514147 
L 329.250937 238.44298 
" style="fill:none;stroke:#1f77b4;stroke-width:1.5;"/>
    <path clip-path="url(#pbcf3292bdb)" d="M 344.130937 244.503754 
L 344.130937 227.832746 
" style="fill:none;stroke:#1f77b4;stroke-width:1.5;"/>
    <path clip-path="url(#pbcf3292bdb)" d="M 359.010938 244.752889 
L 359.010938 226.01832 
" style="fill:none;stroke:#1f77b4;stroke-width:1.5;"/>
    <path clip-path="url(#pbcf3292bdb)" d="M 373.890938 245.786256 
L 373.890938 229.934244 
" style="fill:none;stroke:#1f77b4;stroke-width:1.5;"/>
    <path clip-path="url(#pbcf3292bdb)" d="M 388.770937 240.735913 
L 388.770937 218.076814 
" style="fill:none;stroke:#1f77b4;stroke-width:1.5;"/>
   </g>
   <g id="LineCollection_2">
    <path clip-path="url(#pbcf3292bdb)" d="M 91.170938 144.559949 
L 91.170938 114.200551 
" style="fill:none;stroke:#ff7f0e;stroke-width:1.5;"/>
    <path clip-path="url(#pbcf3292bdb)" d="M 98.610937 160.009061 
L 98.610937 130.48125 
" style="fill:none;stroke:#ff7f0e;stroke-width:1.5;"/>
    <path clip-path="url(#pbcf3292bdb)" d="M 106.050938 144.781782 
L 106.050938 117.981299 
" style="fill:none;stroke:#ff7f0e;stroke-width:1.5;"/>
    <path clip-path="url(#pbcf3292bdb)" d="M 113.490937 151.173169 
L 113.490937 121.408508 
" style="fill:none;stroke:#ff7f0e;stroke-width:1.5;"/>
    <path clip-path="url(#pbcf3292bdb)" d="M 120.930938 138.238885 
L 120.930938 109.352384 
" style="fill:none;stroke:#ff7f0e;stroke-width:1.5;"/>
    <path clip-path="url(#pbcf3292bdb)" d="M 128.370938 159.614691 
L 128.370938 128.732016 
" style="fill:none;stroke:#ff7f0e;stroke-width:1.5;"/>
    <path clip-path="url(#pbcf3292bdb)" d="M 135.810937 137.609001 
L 135.810937 107.197213 
" style="fill:none;stroke:#ff7f0e;stroke-width:1.5;"/>
    <path clip-path="url(#pbcf3292bdb)" d="M 143.250938 151.531091 
L 143.250938 120.429409 
" style="fill:none;stroke:#ff7f0e;stroke-width:1.5;"/>
    <path clip-path="url(#pbcf3292bdb)" d="M 150.690937 124.912943 
L 150.690937 92.622942 
" style="fill:none;stroke:#ff7f0e;stroke-width:1.5;"/>
    <path clip-path="url(#pbcf3292bdb)" d="M 158.130938 158.970176 
L 158.130938 124.970156 
" style="fill:none;stroke:#ff7f0e;stroke-width:1.5;"/>
    <path clip-path="url(#pbcf3292bdb)" d="M 165.570938 139.884754 
L 165.570938 106.002825 
" style="fill:none;stroke:#ff7f0e;stroke-width:1.5;"/>
    <path clip-path="url(#pbcf3292bdb)" d="M 173.010938 171.726396 
L 173.010938 140.593556 
" style="fill:none;stroke:#ff7f0e;stroke-width:1.5;"/>
    <path clip-path="url(#pbcf3292bdb)" d="M 180.450938 152.262017 
L 180.450938 117.082703 
" style="fill:none;stroke:#ff7f0e;stroke-width:1.5;"/>
    <path clip-path="url(#pbcf3292bdb)" d="M 187.890937 202.266735 
L 187.890937 167.849831 
" style="fill:none;stroke:#ff7f0e;stroke-width:1.5;"/>
    <path clip-path="url(#pbcf3292bdb)" d="M 195.330938 161.70544 
L 195.330938 127.313521 
" style="fill:none;stroke:#ff7f0e;stroke-width:1.5;"/>
    <path clip-path="url(#pbcf3292bdb)" d="M 202.770937 182.115116 
L 202.770937 150.565384 
" style="fill:none;stroke:#ff7f0e;stroke-width:1.5;"/>
    <path clip-path="url(#pbcf3292bdb)" d="M 210.210938 145.970908 
L 210.210938 111.433916 
" style="fill:none;stroke:#ff7f0e;stroke-width:1.5;"/>
    <path clip-path="url(#pbcf3292bdb)" d="M 217.650938 162.73222 
L 217.650938 128.864644 
" style="fill:none;stroke:#ff7f0e;stroke-width:1.5;"/>
    <path clip-path="url(#pbcf3292bdb)" d="M 225.090937 204.553356 
L 225.090937 171.220067 
" style="fill:none;stroke:#ff7f0e;stroke-width:1.5;"/>
    <path clip-path="url(#pbcf3292bdb)" d="M 232.530938 191.34642 
L 232.530938 157.109689 
" style="fill:none;stroke:#ff7f0e;stroke-width:1.5;"/>
    <path clip-path="url(#pbcf3292bdb)" d="M 239.970937 160.546075 
L 239.970937 128.757491 
" style="fill:none;stroke:#ff7f0e;stroke-width:1.5;"/>
    <path clip-path="url(#pbcf3292bdb)" d="M 247.410937 162.176345 
L 247.410937 130.445024 
" style="fill:none;stroke:#ff7f0e;stroke-width:1.5;"/>
    <path clip-path="url(#pbcf3292bdb)" d="M 254.850937 142.71378 
L 254.850937 110.538059 
" style="fill:none;stroke:#ff7f0e;stroke-width:1.5;"/>
    <path clip-path="url(#pbcf3292bdb)" d="M 262.290938 156.345964 
L 262.290938 125.88913 
" style="fill:none;stroke:#ff7f0e;stroke-width:1.5;"/>
    <path clip-path="url(#pbcf3292bdb)" d="M 269.730938 195.215492 
L 269.730938 164.181808 
" style="fill:none;stroke:#ff7f0e;stroke-width:1.5;"/>
    <path clip-path="url(#pbcf3292bdb)" d="M 277.170937 149.504869 
L 277.170937 119.222978 
" style="fill:none;stroke:#ff7f0e;stroke-width:1.5;"/>
    <path clip-path="url(#pbcf3292bdb)" d="M 284.610937 191.394929 
L 284.610937 161.077164 
" style="fill:none;stroke:#ff7f0e;stroke-width:1.5;"/>
    <path clip-path="url(#pbcf3292bdb)" d="M 292.050937 169.089483 
L 292.050937 138.022797 
" style="fill:none;stroke:#ff7f0e;stroke-width:1.5;"/>
    <path clip-path="url(#pbcf3292bdb)" d="M 299.490937 145.279218 
L 299.490937 117.006551 
" style="fill:none;stroke:#ff7f0e;stroke-width:1.5;"/>
    <path clip-path="url(#pbcf3292bdb)" d="M 306.930938 151.69858 
L 306.930938 122.101404 
" style="fill:none;stroke:#ff7f0e;stroke-width:1.5;"/>
    <path clip-path="url(#pbcf3292bdb)" d="M 314.370938 166.341141 
L 314.370938 136.057006 
" style="fill:none;stroke:#ff7f0e;stroke-width:1.5;"/>
    <path clip-path="url(#pbcf3292bdb)" d="M 321.810937 144.211118 
L 321.810937 114.172239 
" style="fill:none;stroke:#ff7f0e;stroke-width:1.5;"/>
    <path clip-path="url(#pbcf3292bdb)" d="M 329.250937 132.660491 
L 329.250937 103.338928 
" style="fill:none;stroke:#ff7f0e;stroke-width:1.5;"/>
    <path clip-path="url(#pbcf3292bdb)" d="M 336.690937 138.238885 
L 336.690937 109.352384 
" style="fill:none;stroke:#ff7f0e;stroke-width:1.5;"/>
    <path clip-path="url(#pbcf3292bdb)" d="M 344.130937 165.589201 
L 344.130937 135.614376 
" style="fill:none;stroke:#ff7f0e;stroke-width:1.5;"/>
    <path clip-path="url(#pbcf3292bdb)" d="M 351.570938 185.20081 
L 351.570938 154.645404 
" style="fill:none;stroke:#ff7f0e;stroke-width:1.5;"/>
    <path clip-path="url(#pbcf3292bdb)" d="M 359.010937 151.739251 
L 359.010937 122.597249 
" style="fill:none;stroke:#ff7f0e;stroke-width:1.5;"/>
    <path clip-path="url(#pbcf3292bdb)" d="M 366.450938 128.221939 
L 366.450938 99.635031 
" style="fill:none;stroke:#ff7f0e;stroke-width:1.5;"/>
    <path clip-path="url(#pbcf3292bdb)" d="M 373.890937 176.037301 
L 373.890937 146.376533 
" style="fill:none;stroke:#ff7f0e;stroke-width:1.5;"/>
    <path clip-path="url(#pbcf3292bdb)" d="M 381.330937 122.721042 
L 381.330937 95.814606 
" style="fill:none;stroke:#ff7f0e;stroke-width:1.5;"/>
    <path clip-path="url(#pbcf3292bdb)" d="M 388.770937 136.630088 
L 388.770937 107.738154 
" style="fill:none;stroke:#ff7f0e;stroke-width:1.5;"/>
   </g>
   <g id="LineCollection_3">
    <path clip-path="url(#pbcf3292bdb)" d="M 91.170938 138.674896 
L 91.170938 109.208804 
" style="fill:none;stroke:#2ca02c;stroke-width:1.5;"/>
    <path clip-path="url(#pbcf3292bdb)" d="M 98.610937 153.742611 
L 98.610937 122.870197 
" style="fill:none;stroke:#2ca02c;stroke-width:1.5;"/>
    <path clip-path="url(#pbcf3292bdb)" d="M 106.050938 139.323445 
L 106.050938 111.881193 
" style="fill:none;stroke:#2ca02c;stroke-width:1.5;"/>
    <path clip-path="url(#pbcf3292bdb)" d="M 113.490937 170.23795 
L 113.490937 140.788071 
" style="fill:none;stroke:#2ca02c;stroke-width:1.5;"/>
    <path clip-path="url(#pbcf3292bdb)" d="M 120.930938 141.560458 
L 120.930938 114.013835 
" style="fill:none;stroke:#2ca02c;stroke-width:1.5;"/>
    <path clip-path="url(#pbcf3292bdb)" d="M 128.370938 156.240509 
L 128.370938 126.279991 
" style="fill:none;stroke:#2ca02c;stroke-width:1.5;"/>
    <path clip-path="url(#pbcf3292bdb)" d="M 135.810937 163.45205 
L 135.810937 133.055205 
" style="fill:none;stroke:#2ca02c;stroke-width:1.5;"/>
    <path clip-path="url(#pbcf3292bdb)" d="M 143.250938 162.281244 
L 143.250938 131.309049 
" style="fill:none;stroke:#2ca02c;stroke-width:1.5;"/>
    <path clip-path="url(#pbcf3292bdb)" d="M 150.690937 146.859635 
L 150.690937 116.695967 
" style="fill:none;stroke:#2ca02c;stroke-width:1.5;"/>
    <path clip-path="url(#pbcf3292bdb)" d="M 158.130938 191.390331 
L 158.130938 158.460094 
" style="fill:none;stroke:#2ca02c;stroke-width:1.5;"/>
    <path clip-path="url(#pbcf3292bdb)" d="M 165.570938 163.507135 
L 165.570938 128.146338 
" style="fill:none;stroke:#2ca02c;stroke-width:1.5;"/>
    <path clip-path="url(#pbcf3292bdb)" d="M 173.010938 141.429189 
L 173.010938 110.702822 
" style="fill:none;stroke:#2ca02c;stroke-width:1.5;"/>
    <path clip-path="url(#pbcf3292bdb)" d="M 180.450938 168.06275 
L 180.450938 132.05775 
" style="fill:none;stroke:#2ca02c;stroke-width:1.5;"/>
    <path clip-path="url(#pbcf3292bdb)" d="M 187.890937 159.825069 
L 187.890937 126.985431 
" style="fill:none;stroke:#2ca02c;stroke-width:1.5;"/>
    <path clip-path="url(#pbcf3292bdb)" d="M 195.330938 192.832627 
L 195.330938 159.767873 
" style="fill:none;stroke:#2ca02c;stroke-width:1.5;"/>
    <path clip-path="url(#pbcf3292bdb)" d="M 202.770937 191.402597 
L 202.770937 159.188119 
" style="fill:none;stroke:#2ca02c;stroke-width:1.5;"/>
    <path clip-path="url(#pbcf3292bdb)" d="M 210.210938 225.923558 
L 210.210938 192.368371 
" style="fill:none;stroke:#2ca02c;stroke-width:1.5;"/>
    <path clip-path="url(#pbcf3292bdb)" d="M 217.650938 191.333361 
L 217.650938 156.81623 
" style="fill:none;stroke:#2ca02c;stroke-width:1.5;"/>
    <path clip-path="url(#pbcf3292bdb)" d="M 225.090937 197.840046 
L 225.090937 166.591805 
" style="fill:none;stroke:#2ca02c;stroke-width:1.5;"/>
    <path clip-path="url(#pbcf3292bdb)" d="M 232.530938 208.756905 
L 232.530938 174.083595 
" style="fill:none;stroke:#2ca02c;stroke-width:1.5;"/>
    <path clip-path="url(#pbcf3292bdb)" d="M 239.970937 188.907324 
L 239.970937 158.215529 
" style="fill:none;stroke:#2ca02c;stroke-width:1.5;"/>
    <path clip-path="url(#pbcf3292bdb)" d="M 247.410937 197.371628 
L 247.410937 163.6421 
" style="fill:none;stroke:#2ca02c;stroke-width:1.5;"/>
    <path clip-path="url(#pbcf3292bdb)" d="M 254.850937 209.890811 
L 254.850937 175.65408 
" style="fill:none;stroke:#2ca02c;stroke-width:1.5;"/>
    <path clip-path="url(#pbcf3292bdb)" d="M 262.290938 212.042757 
L 262.290938 179.750787 
" style="fill:none;stroke:#2ca02c;stroke-width:1.5;"/>
    <path clip-path="url(#pbcf3292bdb)" d="M 269.730938 188.697222 
L 269.730938 156.733916 
" style="fill:none;stroke:#2ca02c;stroke-width:1.5;"/>
    <path clip-path="url(#pbcf3292bdb)" d="M 277.170937 203.988421 
L 277.170937 171.397961 
" style="fill:none;stroke:#2ca02c;stroke-width:1.5;"/>
    <path clip-path="url(#pbcf3292bdb)" d="M 284.610937 186.698897 
L 284.610937 156.978903 
" style="fill:none;stroke:#2ca02c;stroke-width:1.5;"/>
    <path clip-path="url(#pbcf3292bdb)" d="M 292.050937 199.177784 
L 292.050937 167.822716 
" style="fill:none;stroke:#2ca02c;stroke-width:1.5;"/>
    <path clip-path="url(#pbcf3292bdb)" d="M 299.490937 163.824921 
L 299.490937 134.271579 
" style="fill:none;stroke:#2ca02c;stroke-width:1.5;"/>
    <path clip-path="url(#pbcf3292bdb)" d="M 306.930938 177.946379 
L 306.930938 149.037279 
" style="fill:none;stroke:#2ca02c;stroke-width:1.5;"/>
    <path clip-path="url(#pbcf3292bdb)" d="M 314.370938 190.206977 
L 314.370938 160.366856 
" style="fill:none;stroke:#2ca02c;stroke-width:1.5;"/>
    <path clip-path="url(#pbcf3292bdb)" d="M 321.810937 159.950399 
L 321.810937 131.462732 
" style="fill:none;stroke:#2ca02c;stroke-width:1.5;"/>
    <path clip-path="url(#pbcf3292bdb)" d="M 329.250937 182.42484 
L 329.250937 153.451449 
" style="fill:none;stroke:#2ca02c;stroke-width:1.5;"/>
    <path clip-path="url(#pbcf3292bdb)" d="M 336.690937 192.618653 
L 336.690937 162.197232 
" style="fill:none;stroke:#2ca02c;stroke-width:1.5;"/>
    <path clip-path="url(#pbcf3292bdb)" d="M 344.130937 169.977316 
L 344.130937 140.35337 
" style="fill:none;stroke:#2ca02c;stroke-width:1.5;"/>
    <path clip-path="url(#pbcf3292bdb)" d="M 351.570938 164.944594 
L 351.570938 133.889285 
" style="fill:none;stroke:#2ca02c;stroke-width:1.5;"/>
    <path clip-path="url(#pbcf3292bdb)" d="M 359.010937 158.410341 
L 359.010937 129.292981 
" style="fill:none;stroke:#2ca02c;stroke-width:1.5;"/>
    <path clip-path="url(#pbcf3292bdb)" d="M 366.450938 150.63284 
L 366.450938 120.698256 
" style="fill:none;stroke:#2ca02c;stroke-width:1.5;"/>
    <path clip-path="url(#pbcf3292bdb)" d="M 373.890937 178.570284 
L 373.890937 147.607665 
" style="fill:none;stroke:#2ca02c;stroke-width:1.5;"/>
    <path clip-path="url(#pbcf3292bdb)" d="M 381.330937 161.0074 
L 381.330937 132.968015 
" style="fill:none;stroke:#2ca02c;stroke-width:1.5;"/>
    <path clip-path="url(#pbcf3292bdb)" d="M 388.770937 144.559949 
L 388.770937 114.200551 
" style="fill:none;stroke:#2ca02c;stroke-width:1.5;"/>
   </g>
   <g id="LineCollection_4">
    <path clip-path="url(#pbcf3292bdb)" d="M 91.170938 146.23282 
L 91.170938 115.895956 
" style="fill:none;stroke:#d62728;stroke-width:1.5;"/>
    <path clip-path="url(#pbcf3292bdb)" d="M 98.610937 173.667553 
L 98.610937 144.052947 
" style="fill:none;stroke:#d62728;stroke-width:1.5;"/>
    <path clip-path="url(#pbcf3292bdb)" d="M 106.050938 175.045125 
L 106.050938 146.595375 
" style="fill:none;stroke:#d62728;stroke-width:1.5;"/>
    <path clip-path="url(#pbcf3292bdb)" d="M 113.490937 183.321951 
L 113.490937 153.906982 
" style="fill:none;stroke:#d62728;stroke-width:1.5;"/>
    <path clip-path="url(#pbcf3292bdb)" d="M 120.930938 193.685582 
L 120.930938 164.098918 
" style="fill:none;stroke:#d62728;stroke-width:1.5;"/>
    <path clip-path="url(#pbcf3292bdb)" d="M 128.370938 197.75267 
L 128.370938 166.71343 
" style="fill:none;stroke:#d62728;stroke-width:1.5;"/>
    <path clip-path="url(#pbcf3292bdb)" d="M 135.810937 169.501899 
L 135.810937 135.683967 
" style="fill:none;stroke:#d62728;stroke-width:1.5;"/>
    <path clip-path="url(#pbcf3292bdb)" d="M 143.250938 212.63287 
L 143.250938 181.879209 
" style="fill:none;stroke:#d62728;stroke-width:1.5;"/>
    <path clip-path="url(#pbcf3292bdb)" d="M 150.690937 188.239672 
L 150.690937 154.034974 
" style="fill:none;stroke:#d62728;stroke-width:1.5;"/>
    <path clip-path="url(#pbcf3292bdb)" d="M 158.130938 184.477768 
L 158.130938 152.220124 
" style="fill:none;stroke:#d62728;stroke-width:1.5;"/>
    <path clip-path="url(#pbcf3292bdb)" d="M 165.570938 200.408695 
L 165.570938 169.160454 
" style="fill:none;stroke:#d62728;stroke-width:1.5;"/>
    <path clip-path="url(#pbcf3292bdb)" d="M 173.010938 191.3841 
L 173.010938 158.204492 
" style="fill:none;stroke:#d62728;stroke-width:1.5;"/>
    <path clip-path="url(#pbcf3292bdb)" d="M 180.450938 198.215812 
L 180.450938 161.809275 
" style="fill:none;stroke:#d62728;stroke-width:1.5;"/>
    <path clip-path="url(#pbcf3292bdb)" d="M 187.890937 198.303115 
L 187.890937 165.942602 
" style="fill:none;stroke:#d62728;stroke-width:1.5;"/>
    <path clip-path="url(#pbcf3292bdb)" d="M 195.330938 238.273672 
L 195.330938 200.957228 
" style="fill:none;stroke:#d62728;stroke-width:1.5;"/>
    <path clip-path="url(#pbcf3292bdb)" d="M 202.770937 207.581781 
L 202.770937 175.59574 
" style="fill:none;stroke:#d62728;stroke-width:1.5;"/>
    <path clip-path="url(#pbcf3292bdb)" d="M 210.210938 218.683545 
L 210.210938 185.756955 
" style="fill:none;stroke:#d62728;stroke-width:1.5;"/>
    <path clip-path="url(#pbcf3292bdb)" d="M 217.650938 213.682596 
L 217.650938 177.509904 
" style="fill:none;stroke:#d62728;stroke-width:1.5;"/>
    <path clip-path="url(#pbcf3292bdb)" d="M 225.090937 236.555476 
L 225.090937 204.824155 
" style="fill:none;stroke:#d62728;stroke-width:1.5;"/>
    <path clip-path="url(#pbcf3292bdb)" d="M 232.530938 228.862733 
L 232.530938 194.690495 
" style="fill:none;stroke:#d62728;stroke-width:1.5;"/>
    <path clip-path="url(#pbcf3292bdb)" d="M 239.970937 207.581781 
L 239.970937 175.59574 
" style="fill:none;stroke:#d62728;stroke-width:1.5;"/>
    <path clip-path="url(#pbcf3292bdb)" d="M 247.410937 214.32068 
L 247.410937 180.272078 
" style="fill:none;stroke:#d62728;stroke-width:1.5;"/>
    <path clip-path="url(#pbcf3292bdb)" d="M 254.850937 216.435116 
L 254.850937 184.885384 
" style="fill:none;stroke:#d62728;stroke-width:1.5;"/>
    <path clip-path="url(#pbcf3292bdb)" d="M 262.290938 266.88073 
L 262.290938 234.293888 
" style="fill:none;stroke:#d62728;stroke-width:1.5;"/>
    <path clip-path="url(#pbcf3292bdb)" d="M 269.730938 203.668016 
L 269.730938 173.143065 
" style="fill:none;stroke:#d62728;stroke-width:1.5;"/>
    <path clip-path="url(#pbcf3292bdb)" d="M 277.170937 213.507457 
L 277.170937 182.135234 
" style="fill:none;stroke:#d62728;stroke-width:1.5;"/>
    <path clip-path="url(#pbcf3292bdb)" d="M 284.610937 241.687588 
L 284.610937 209.792912 
" style="fill:none;stroke:#d62728;stroke-width:1.5;"/>
    <path clip-path="url(#pbcf3292bdb)" d="M 292.050937 218.945102 
L 292.050937 189.527398 
" style="fill:none;stroke:#d62728;stroke-width:1.5;"/>
    <path clip-path="url(#pbcf3292bdb)" d="M 299.490937 211.058642 
L 299.490937 181.440394 
" style="fill:none;stroke:#d62728;stroke-width:1.5;"/>
    <path clip-path="url(#pbcf3292bdb)" d="M 306.930938 193.552966 
L 306.930938 164.657708 
" style="fill:none;stroke:#d62728;stroke-width:1.5;"/>
    <path clip-path="url(#pbcf3292bdb)" d="M 314.370938 222.556046 
L 314.370938 191.964454 
" style="fill:none;stroke:#d62728;stroke-width:1.5;"/>
    <path clip-path="url(#pbcf3292bdb)" d="M 321.810937 199.607392 
L 321.810937 169.739774 
" style="fill:none;stroke:#d62728;stroke-width:1.5;"/>
    <path clip-path="url(#pbcf3292bdb)" d="M 329.250937 198.036031 
L 329.250937 168.964469 
" style="fill:none;stroke:#d62728;stroke-width:1.5;"/>
    <path clip-path="url(#pbcf3292bdb)" d="M 336.690937 216.093398 
L 336.690937 184.756965 
" style="fill:none;stroke:#d62728;stroke-width:1.5;"/>
    <path clip-path="url(#pbcf3292bdb)" d="M 344.130937 180.85872 
L 344.130937 149.436676 
" style="fill:none;stroke:#d62728;stroke-width:1.5;"/>
    <path clip-path="url(#pbcf3292bdb)" d="M 351.570938 213.639217 
L 351.570938 183.86795 
" style="fill:none;stroke:#d62728;stroke-width:1.5;"/>
    <path clip-path="url(#pbcf3292bdb)" d="M 359.010937 194.035899 
L 359.010937 162.477428 
" style="fill:none;stroke:#d62728;stroke-width:1.5;"/>
    <path clip-path="url(#pbcf3292bdb)" d="M 366.450938 197.260726 
L 366.450938 167.393108 
" style="fill:none;stroke:#d62728;stroke-width:1.5;"/>
    <path clip-path="url(#pbcf3292bdb)" d="M 373.890937 210.999055 
L 373.890937 180.527897 
" style="fill:none;stroke:#d62728;stroke-width:1.5;"/>
    <path clip-path="url(#pbcf3292bdb)" d="M 381.330937 180.229738 
L 381.330937 149.74219 
" style="fill:none;stroke:#d62728;stroke-width:1.5;"/>
    <path clip-path="url(#pbcf3292bdb)" d="M 388.770937 176.141136 
L 388.770937 144.02806 
" style="fill:none;stroke:#d62728;stroke-width:1.5;"/>
   </g>
   <g id="line2d_27">
    <path clip-path="url(#pbcf3292bdb)" d="M 91.170938 209.676521 
L 106.050938 215.073941 
L 120.930938 230.558891 
L 135.810938 228.655691 
L 150.690938 245.517877 
L 165.570938 238.042574 
L 180.450938 254.596633 
L 195.330938 261.64425 
L 210.210938 259.147602 
L 225.090938 282.177388 
L 239.970937 263.239693 
L 254.850937 282.987529 
L 269.730938 274.706365 
L 284.610938 268.357393 
L 299.490938 272.745128 
L 314.370938 269.070072 
L 329.250937 246.478563 
L 344.130937 236.16825 
L 359.010938 235.385604 
L 373.890938 237.86025 
L 388.770937 229.406363 
" style="fill:none;stroke:#1f77b4;stroke-linecap:square;stroke-width:1.5;"/>
    <defs>
     <path d="M 0 1.5 
C 0.397805 1.5 0.77937 1.341951 1.06066 1.06066 
C 1.341951 0.77937 1.5 0.397805 1.5 0 
C 1.5 -0.397805 1.341951 -0.77937 1.06066 -1.06066 
C 0.77937 -1.341951 0.397805 -1.5 0 -1.5 
C -0.397805 -1.5 -0.77937 -1.341951 -1.06066 -1.06066 
C -1.341951 -0.77937 -1.5 -0.397805 -1.5 0 
C -1.5 0.397805 -1.341951 0.77937 -1.06066 1.06066 
C -0.77937 1.341951 -0.397805 1.5 0 1.5 
z
" id="mb8bc26594a" style="stroke:#1f77b4;"/>
    </defs>
    <g clip-path="url(#pbcf3292bdb)">
     <use style="fill:#1f77b4;stroke:#1f77b4;" x="91.170938" xlink:href="#mb8bc26594a" y="209.676521"/>
     <use style="fill:#1f77b4;stroke:#1f77b4;" x="106.050938" xlink:href="#mb8bc26594a" y="215.073941"/>
     <use style="fill:#1f77b4;stroke:#1f77b4;" x="120.930938" xlink:href="#mb8bc26594a" y="230.558891"/>
     <use style="fill:#1f77b4;stroke:#1f77b4;" x="135.810938" xlink:href="#mb8bc26594a" y="228.655691"/>
     <use style="fill:#1f77b4;stroke:#1f77b4;" x="150.690938" xlink:href="#mb8bc26594a" y="245.517877"/>
     <use style="fill:#1f77b4;stroke:#1f77b4;" x="165.570938" xlink:href="#mb8bc26594a" y="238.042574"/>
     <use style="fill:#1f77b4;stroke:#1f77b4;" x="180.450938" xlink:href="#mb8bc26594a" y="254.596633"/>
     <use style="fill:#1f77b4;stroke:#1f77b4;" x="195.330938" xlink:href="#mb8bc26594a" y="261.64425"/>
     <use style="fill:#1f77b4;stroke:#1f77b4;" x="210.210938" xlink:href="#mb8bc26594a" y="259.147602"/>
     <use style="fill:#1f77b4;stroke:#1f77b4;" x="225.090938" xlink:href="#mb8bc26594a" y="282.177388"/>
     <use style="fill:#1f77b4;stroke:#1f77b4;" x="239.970937" xlink:href="#mb8bc26594a" y="263.239693"/>
     <use style="fill:#1f77b4;stroke:#1f77b4;" x="254.850937" xlink:href="#mb8bc26594a" y="282.987529"/>
     <use style="fill:#1f77b4;stroke:#1f77b4;" x="269.730938" xlink:href="#mb8bc26594a" y="274.706365"/>
     <use style="fill:#1f77b4;stroke:#1f77b4;" x="284.610938" xlink:href="#mb8bc26594a" y="268.357393"/>
     <use style="fill:#1f77b4;stroke:#1f77b4;" x="299.490938" xlink:href="#mb8bc26594a" y="272.745128"/>
     <use style="fill:#1f77b4;stroke:#1f77b4;" x="314.370938" xlink:href="#mb8bc26594a" y="269.070072"/>
     <use style="fill:#1f77b4;stroke:#1f77b4;" x="329.250937" xlink:href="#mb8bc26594a" y="246.478563"/>
     <use style="fill:#1f77b4;stroke:#1f77b4;" x="344.130937" xlink:href="#mb8bc26594a" y="236.16825"/>
     <use style="fill:#1f77b4;stroke:#1f77b4;" x="359.010938" xlink:href="#mb8bc26594a" y="235.385604"/>
     <use style="fill:#1f77b4;stroke:#1f77b4;" x="373.890938" xlink:href="#mb8bc26594a" y="237.86025"/>
     <use style="fill:#1f77b4;stroke:#1f77b4;" x="388.770937" xlink:href="#mb8bc26594a" y="229.406363"/>
    </g>
   </g>
   <g id="line2d_28">
    <path clip-path="url(#pbcf3292bdb)" d="M 91.170938 129.38025 
L 98.610937 145.245156 
L 106.050938 131.38154 
L 113.490937 136.290838 
L 120.930938 123.795635 
L 128.370938 144.173353 
L 135.810937 122.403107 
L 143.250938 135.98025 
L 150.690937 108.767942 
L 158.130938 141.970166 
L 165.570938 122.94379 
L 173.010938 156.159976 
L 180.450938 134.67236 
L 187.890937 185.058283 
L 195.330938 144.509481 
L 202.770937 166.34025 
L 210.210938 128.702412 
L 217.650938 145.798432 
L 225.090937 187.886712 
L 232.530938 174.228055 
L 239.970937 144.651783 
L 247.410937 146.310685 
L 254.850937 126.625919 
L 262.290938 141.117547 
L 269.730938 179.69865 
L 277.170937 134.363923 
L 284.610937 176.236046 
L 292.050937 153.55614 
L 299.490937 131.142885 
L 306.930938 136.899992 
L 314.370938 151.199074 
L 321.810937 129.191679 
L 329.250937 117.999709 
L 336.690937 123.795635 
L 344.130937 150.601788 
L 351.570938 169.923107 
L 359.010937 137.16825 
L 366.450938 113.928485 
L 373.890937 161.206917 
L 381.330937 109.267824 
L 388.770937 122.184121 
" style="fill:none;stroke:#ff7f0e;stroke-linecap:square;stroke-width:1.5;"/>
    <defs>
     <path d="M 0 1.5 
C 0.397805 1.5 0.77937 1.341951 1.06066 1.06066 
C 1.341951 0.77937 1.5 0.397805 1.5 0 
C 1.5 -0.397805 1.341951 -0.77937 1.06066 -1.06066 
C 0.77937 -1.341951 0.397805 -1.5 0 -1.5 
C -0.397805 -1.5 -0.77937 -1.341951 -1.06066 -1.06066 
C -1.341951 -0.77937 -1.5 -0.397805 -1.5 0 
C -1.5 0.397805 -1.341951 0.77937 -1.06066 1.06066 
C -0.77937 1.341951 -0.397805 1.5 0 1.5 
z
" id="m3e2fb6b177" style="stroke:#ff7f0e;"/>
    </defs>
    <g clip-path="url(#pbcf3292bdb)">
     <use style="fill:#ff7f0e;stroke:#ff7f0e;" x="91.170938" xlink:href="#m3e2fb6b177" y="129.38025"/>
     <use style="fill:#ff7f0e;stroke:#ff7f0e;" x="98.610937" xlink:href="#m3e2fb6b177" y="145.245156"/>
     <use style="fill:#ff7f0e;stroke:#ff7f0e;" x="106.050938" xlink:href="#m3e2fb6b177" y="131.38154"/>
     <use style="fill:#ff7f0e;stroke:#ff7f0e;" x="113.490937" xlink:href="#m3e2fb6b177" y="136.290838"/>
     <use style="fill:#ff7f0e;stroke:#ff7f0e;" x="120.930938" xlink:href="#m3e2fb6b177" y="123.795635"/>
     <use style="fill:#ff7f0e;stroke:#ff7f0e;" x="128.370938" xlink:href="#m3e2fb6b177" y="144.173353"/>
     <use style="fill:#ff7f0e;stroke:#ff7f0e;" x="135.810937" xlink:href="#m3e2fb6b177" y="122.403107"/>
     <use style="fill:#ff7f0e;stroke:#ff7f0e;" x="143.250938" xlink:href="#m3e2fb6b177" y="135.98025"/>
     <use style="fill:#ff7f0e;stroke:#ff7f0e;" x="150.690937" xlink:href="#m3e2fb6b177" y="108.767942"/>
     <use style="fill:#ff7f0e;stroke:#ff7f0e;" x="158.130938" xlink:href="#m3e2fb6b177" y="141.970166"/>
     <use style="fill:#ff7f0e;stroke:#ff7f0e;" x="165.570938" xlink:href="#m3e2fb6b177" y="122.94379"/>
     <use style="fill:#ff7f0e;stroke:#ff7f0e;" x="173.010938" xlink:href="#m3e2fb6b177" y="156.159976"/>
     <use style="fill:#ff7f0e;stroke:#ff7f0e;" x="180.450938" xlink:href="#m3e2fb6b177" y="134.67236"/>
     <use style="fill:#ff7f0e;stroke:#ff7f0e;" x="187.890937" xlink:href="#m3e2fb6b177" y="185.058283"/>
     <use style="fill:#ff7f0e;stroke:#ff7f0e;" x="195.330938" xlink:href="#m3e2fb6b177" y="144.509481"/>
     <use style="fill:#ff7f0e;stroke:#ff7f0e;" x="202.770937" xlink:href="#m3e2fb6b177" y="166.34025"/>
     <use style="fill:#ff7f0e;stroke:#ff7f0e;" x="210.210938" xlink:href="#m3e2fb6b177" y="128.702412"/>
     <use style="fill:#ff7f0e;stroke:#ff7f0e;" x="217.650938" xlink:href="#m3e2fb6b177" y="145.798432"/>
     <use style="fill:#ff7f0e;stroke:#ff7f0e;" x="225.090937" xlink:href="#m3e2fb6b177" y="187.886712"/>
     <use style="fill:#ff7f0e;stroke:#ff7f0e;" x="232.530938" xlink:href="#m3e2fb6b177" y="174.228055"/>
     <use style="fill:#ff7f0e;stroke:#ff7f0e;" x="239.970937" xlink:href="#m3e2fb6b177" y="144.651783"/>
     <use style="fill:#ff7f0e;stroke:#ff7f0e;" x="247.410937" xlink:href="#m3e2fb6b177" y="146.310685"/>
     <use style="fill:#ff7f0e;stroke:#ff7f0e;" x="254.850937" xlink:href="#m3e2fb6b177" y="126.625919"/>
     <use style="fill:#ff7f0e;stroke:#ff7f0e;" x="262.290938" xlink:href="#m3e2fb6b177" y="141.117547"/>
     <use style="fill:#ff7f0e;stroke:#ff7f0e;" x="269.730938" xlink:href="#m3e2fb6b177" y="179.69865"/>
     <use style="fill:#ff7f0e;stroke:#ff7f0e;" x="277.170937" xlink:href="#m3e2fb6b177" y="134.363923"/>
     <use style="fill:#ff7f0e;stroke:#ff7f0e;" x="284.610937" xlink:href="#m3e2fb6b177" y="176.236046"/>
     <use style="fill:#ff7f0e;stroke:#ff7f0e;" x="292.050937" xlink:href="#m3e2fb6b177" y="153.55614"/>
     <use style="fill:#ff7f0e;stroke:#ff7f0e;" x="299.490937" xlink:href="#m3e2fb6b177" y="131.142885"/>
     <use style="fill:#ff7f0e;stroke:#ff7f0e;" x="306.930938" xlink:href="#m3e2fb6b177" y="136.899992"/>
     <use style="fill:#ff7f0e;stroke:#ff7f0e;" x="314.370938" xlink:href="#m3e2fb6b177" y="151.199074"/>
     <use style="fill:#ff7f0e;stroke:#ff7f0e;" x="321.810937" xlink:href="#m3e2fb6b177" y="129.191679"/>
     <use style="fill:#ff7f0e;stroke:#ff7f0e;" x="329.250937" xlink:href="#m3e2fb6b177" y="117.999709"/>
     <use style="fill:#ff7f0e;stroke:#ff7f0e;" x="336.690937" xlink:href="#m3e2fb6b177" y="123.795635"/>
     <use style="fill:#ff7f0e;stroke:#ff7f0e;" x="344.130937" xlink:href="#m3e2fb6b177" y="150.601788"/>
     <use style="fill:#ff7f0e;stroke:#ff7f0e;" x="351.570938" xlink:href="#m3e2fb6b177" y="169.923107"/>
     <use style="fill:#ff7f0e;stroke:#ff7f0e;" x="359.010937" xlink:href="#m3e2fb6b177" y="137.16825"/>
     <use style="fill:#ff7f0e;stroke:#ff7f0e;" x="366.450938" xlink:href="#m3e2fb6b177" y="113.928485"/>
     <use style="fill:#ff7f0e;stroke:#ff7f0e;" x="373.890937" xlink:href="#m3e2fb6b177" y="161.206917"/>
     <use style="fill:#ff7f0e;stroke:#ff7f0e;" x="381.330937" xlink:href="#m3e2fb6b177" y="109.267824"/>
     <use style="fill:#ff7f0e;stroke:#ff7f0e;" x="388.770937" xlink:href="#m3e2fb6b177" y="122.184121"/>
    </g>
   </g>
   <g id="line2d_29">
    <path clip-path="url(#pbcf3292bdb)" d="M 91.170938 123.94185 
L 98.610937 138.306404 
L 106.050938 125.602319 
L 113.490937 155.513011 
L 120.930938 127.787147 
L 128.370938 141.26025 
L 135.810937 148.253627 
L 143.250938 146.795147 
L 150.690937 131.777801 
L 158.130938 174.925212 
L 165.570938 145.826736 
L 173.010938 126.066005 
L 180.450938 150.06025 
L 187.890937 143.40525 
L 195.330938 176.30025 
L 202.770937 175.295358 
L 210.210938 209.145964 
L 217.650938 174.074795 
L 225.090937 182.215926 
L 232.530938 191.42025 
L 239.970937 173.561426 
L 247.410937 180.506864 
L 254.850937 192.772445 
L 262.290938 195.896772 
L 269.730938 172.715569 
L 277.170937 187.693191 
L 284.610937 171.8389 
L 292.050937 183.50025 
L 299.490937 149.04825 
L 306.930938 163.491829 
L 314.370938 175.286917 
L 321.810937 145.706566 
L 329.250937 167.938145 
L 336.690937 177.407942 
L 344.130937 155.165343 
L 351.570938 149.41694 
L 359.010937 143.851661 
L 366.450938 135.665548 
L 373.890937 163.088975 
L 381.330937 146.987708 
L 388.770937 129.38025 
" style="fill:none;stroke:#2ca02c;stroke-linecap:square;stroke-width:1.5;"/>
    <defs>
     <path d="M 0 1.5 
C 0.397805 1.5 0.77937 1.341951 1.06066 1.06066 
C 1.341951 0.77937 1.5 0.397805 1.5 0 
C 1.5 -0.397805 1.341951 -0.77937 1.06066 -1.06066 
C 0.77937 -1.341951 0.397805 -1.5 0 -1.5 
C -0.397805 -1.5 -0.77937 -1.341951 -1.06066 -1.06066 
C -1.341951 -0.77937 -1.5 -0.397805 -1.5 0 
C -1.5 0.397805 -1.341951 0.77937 -1.06066 1.06066 
C -0.77937 1.341951 -0.397805 1.5 0 1.5 
z
" id="m92edfcde95" style="stroke:#2ca02c;"/>
    </defs>
    <g clip-path="url(#pbcf3292bdb)">
     <use style="fill:#2ca02c;stroke:#2ca02c;" x="91.170938" xlink:href="#m92edfcde95" y="123.94185"/>
     <use style="fill:#2ca02c;stroke:#2ca02c;" x="98.610937" xlink:href="#m92edfcde95" y="138.306404"/>
     <use style="fill:#2ca02c;stroke:#2ca02c;" x="106.050938" xlink:href="#m92edfcde95" y="125.602319"/>
     <use style="fill:#2ca02c;stroke:#2ca02c;" x="113.490937" xlink:href="#m92edfcde95" y="155.513011"/>
     <use style="fill:#2ca02c;stroke:#2ca02c;" x="120.930938" xlink:href="#m92edfcde95" y="127.787147"/>
     <use style="fill:#2ca02c;stroke:#2ca02c;" x="128.370938" xlink:href="#m92edfcde95" y="141.26025"/>
     <use style="fill:#2ca02c;stroke:#2ca02c;" x="135.810937" xlink:href="#m92edfcde95" y="148.253627"/>
     <use style="fill:#2ca02c;stroke:#2ca02c;" x="143.250938" xlink:href="#m92edfcde95" y="146.795147"/>
     <use style="fill:#2ca02c;stroke:#2ca02c;" x="150.690937" xlink:href="#m92edfcde95" y="131.777801"/>
     <use style="fill:#2ca02c;stroke:#2ca02c;" x="158.130938" xlink:href="#m92edfcde95" y="174.925212"/>
     <use style="fill:#2ca02c;stroke:#2ca02c;" x="165.570938" xlink:href="#m92edfcde95" y="145.826736"/>
     <use style="fill:#2ca02c;stroke:#2ca02c;" x="173.010938" xlink:href="#m92edfcde95" y="126.066005"/>
     <use style="fill:#2ca02c;stroke:#2ca02c;" x="180.450938" xlink:href="#m92edfcde95" y="150.06025"/>
     <use style="fill:#2ca02c;stroke:#2ca02c;" x="187.890937" xlink:href="#m92edfcde95" y="143.40525"/>
     <use style="fill:#2ca02c;stroke:#2ca02c;" x="195.330938" xlink:href="#m92edfcde95" y="176.30025"/>
     <use style="fill:#2ca02c;stroke:#2ca02c;" x="202.770937" xlink:href="#m92edfcde95" y="175.295358"/>
     <use style="fill:#2ca02c;stroke:#2ca02c;" x="210.210938" xlink:href="#m92edfcde95" y="209.145964"/>
     <use style="fill:#2ca02c;stroke:#2ca02c;" x="217.650938" xlink:href="#m92edfcde95" y="174.074795"/>
     <use style="fill:#2ca02c;stroke:#2ca02c;" x="225.090937" xlink:href="#m92edfcde95" y="182.215926"/>
     <use style="fill:#2ca02c;stroke:#2ca02c;" x="232.530938" xlink:href="#m92edfcde95" y="191.42025"/>
     <use style="fill:#2ca02c;stroke:#2ca02c;" x="239.970937" xlink:href="#m92edfcde95" y="173.561426"/>
     <use style="fill:#2ca02c;stroke:#2ca02c;" x="247.410937" xlink:href="#m92edfcde95" y="180.506864"/>
     <use style="fill:#2ca02c;stroke:#2ca02c;" x="254.850937" xlink:href="#m92edfcde95" y="192.772445"/>
     <use style="fill:#2ca02c;stroke:#2ca02c;" x="262.290938" xlink:href="#m92edfcde95" y="195.896772"/>
     <use style="fill:#2ca02c;stroke:#2ca02c;" x="269.730938" xlink:href="#m92edfcde95" y="172.715569"/>
     <use style="fill:#2ca02c;stroke:#2ca02c;" x="277.170937" xlink:href="#m92edfcde95" y="187.693191"/>
     <use style="fill:#2ca02c;stroke:#2ca02c;" x="284.610937" xlink:href="#m92edfcde95" y="171.8389"/>
     <use style="fill:#2ca02c;stroke:#2ca02c;" x="292.050937" xlink:href="#m92edfcde95" y="183.50025"/>
     <use style="fill:#2ca02c;stroke:#2ca02c;" x="299.490937" xlink:href="#m92edfcde95" y="149.04825"/>
     <use style="fill:#2ca02c;stroke:#2ca02c;" x="306.930938" xlink:href="#m92edfcde95" y="163.491829"/>
     <use style="fill:#2ca02c;stroke:#2ca02c;" x="314.370938" xlink:href="#m92edfcde95" y="175.286917"/>
     <use style="fill:#2ca02c;stroke:#2ca02c;" x="321.810937" xlink:href="#m92edfcde95" y="145.706566"/>
     <use style="fill:#2ca02c;stroke:#2ca02c;" x="329.250937" xlink:href="#m92edfcde95" y="167.938145"/>
     <use style="fill:#2ca02c;stroke:#2ca02c;" x="336.690937" xlink:href="#m92edfcde95" y="177.407942"/>
     <use style="fill:#2ca02c;stroke:#2ca02c;" x="344.130937" xlink:href="#m92edfcde95" y="155.165343"/>
     <use style="fill:#2ca02c;stroke:#2ca02c;" x="351.570938" xlink:href="#m92edfcde95" y="149.41694"/>
     <use style="fill:#2ca02c;stroke:#2ca02c;" x="359.010937" xlink:href="#m92edfcde95" y="143.851661"/>
     <use style="fill:#2ca02c;stroke:#2ca02c;" x="366.450938" xlink:href="#m92edfcde95" y="135.665548"/>
     <use style="fill:#2ca02c;stroke:#2ca02c;" x="373.890937" xlink:href="#m92edfcde95" y="163.088975"/>
     <use style="fill:#2ca02c;stroke:#2ca02c;" x="381.330937" xlink:href="#m92edfcde95" y="146.987708"/>
     <use style="fill:#2ca02c;stroke:#2ca02c;" x="388.770937" xlink:href="#m92edfcde95" y="129.38025"/>
    </g>
   </g>
   <g id="line2d_30">
    <path clip-path="url(#pbcf3292bdb)" d="M 91.170938 131.064388 
L 98.610937 158.86025 
L 106.050938 160.82025 
L 113.490937 168.614467 
L 120.930938 178.89225 
L 128.370938 182.23305 
L 135.810937 152.592933 
L 143.250938 197.256039 
L 150.690937 171.137323 
L 158.130938 168.348946 
L 165.570938 184.784574 
L 173.010938 174.794296 
L 180.450938 180.012544 
L 187.890937 182.122859 
L 195.330938 219.61545 
L 202.770937 191.588761 
L 210.210938 202.22025 
L 217.650938 195.59625 
L 225.090937 220.689815 
L 232.530938 211.776614 
L 239.970937 191.588761 
L 247.410937 197.296379 
L 254.850937 200.66025 
L 262.290938 250.587309 
L 269.730938 188.40554 
L 277.170937 197.821346 
L 284.610937 225.74025 
L 292.050937 204.23625 
L 299.490937 196.249518 
L 306.930938 179.105337 
L 314.370938 207.26025 
L 321.810937 184.673583 
L 329.250937 183.50025 
L 336.690937 200.425182 
L 344.130937 165.147698 
L 351.570938 198.753583 
L 359.010937 178.256664 
L 366.450938 182.326917 
L 373.890937 195.763476 
L 381.330937 164.985964 
L 388.770937 160.084598 
" style="fill:none;stroke:#d62728;stroke-linecap:square;stroke-width:1.5;"/>
    <defs>
     <path d="M 0 1.5 
C 0.397805 1.5 0.77937 1.341951 1.06066 1.06066 
C 1.341951 0.77937 1.5 0.397805 1.5 0 
C 1.5 -0.397805 1.341951 -0.77937 1.06066 -1.06066 
C 0.77937 -1.341951 0.397805 -1.5 0 -1.5 
C -0.397805 -1.5 -0.77937 -1.341951 -1.06066 -1.06066 
C -1.341951 -0.77937 -1.5 -0.397805 -1.5 0 
C -1.5 0.397805 -1.341951 0.77937 -1.06066 1.06066 
C -0.77937 1.341951 -0.397805 1.5 0 1.5 
z
" id="m851f591001" style="stroke:#d62728;"/>
    </defs>
    <g clip-path="url(#pbcf3292bdb)">
     <use style="fill:#d62728;stroke:#d62728;" x="91.170938" xlink:href="#m851f591001" y="131.064388"/>
     <use style="fill:#d62728;stroke:#d62728;" x="98.610937" xlink:href="#m851f591001" y="158.86025"/>
     <use style="fill:#d62728;stroke:#d62728;" x="106.050938" xlink:href="#m851f591001" y="160.82025"/>
     <use style="fill:#d62728;stroke:#d62728;" x="113.490937" xlink:href="#m851f591001" y="168.614467"/>
     <use style="fill:#d62728;stroke:#d62728;" x="120.930938" xlink:href="#m851f591001" y="178.89225"/>
     <use style="fill:#d62728;stroke:#d62728;" x="128.370938" xlink:href="#m851f591001" y="182.23305"/>
     <use style="fill:#d62728;stroke:#d62728;" x="135.810937" xlink:href="#m851f591001" y="152.592933"/>
     <use style="fill:#d62728;stroke:#d62728;" x="143.250938" xlink:href="#m851f591001" y="197.256039"/>
     <use style="fill:#d62728;stroke:#d62728;" x="150.690937" xlink:href="#m851f591001" y="171.137323"/>
     <use style="fill:#d62728;stroke:#d62728;" x="158.130938" xlink:href="#m851f591001" y="168.348946"/>
     <use style="fill:#d62728;stroke:#d62728;" x="165.570938" xlink:href="#m851f591001" y="184.784574"/>
     <use style="fill:#d62728;stroke:#d62728;" x="173.010938" xlink:href="#m851f591001" y="174.794296"/>
     <use style="fill:#d62728;stroke:#d62728;" x="180.450938" xlink:href="#m851f591001" y="180.012544"/>
     <use style="fill:#d62728;stroke:#d62728;" x="187.890937" xlink:href="#m851f591001" y="182.122859"/>
     <use style="fill:#d62728;stroke:#d62728;" x="195.330938" xlink:href="#m851f591001" y="219.61545"/>
     <use style="fill:#d62728;stroke:#d62728;" x="202.770937" xlink:href="#m851f591001" y="191.588761"/>
     <use style="fill:#d62728;stroke:#d62728;" x="210.210938" xlink:href="#m851f591001" y="202.22025"/>
     <use style="fill:#d62728;stroke:#d62728;" x="217.650938" xlink:href="#m851f591001" y="195.59625"/>
     <use style="fill:#d62728;stroke:#d62728;" x="225.090937" xlink:href="#m851f591001" y="220.689815"/>
     <use style="fill:#d62728;stroke:#d62728;" x="232.530938" xlink:href="#m851f591001" y="211.776614"/>
     <use style="fill:#d62728;stroke:#d62728;" x="239.970937" xlink:href="#m851f591001" y="191.588761"/>
     <use style="fill:#d62728;stroke:#d62728;" x="247.410937" xlink:href="#m851f591001" y="197.296379"/>
     <use style="fill:#d62728;stroke:#d62728;" x="254.850937" xlink:href="#m851f591001" y="200.66025"/>
     <use style="fill:#d62728;stroke:#d62728;" x="262.290938" xlink:href="#m851f591001" y="250.587309"/>
     <use style="fill:#d62728;stroke:#d62728;" x="269.730938" xlink:href="#m851f591001" y="188.40554"/>
     <use style="fill:#d62728;stroke:#d62728;" x="277.170937" xlink:href="#m851f591001" y="197.821346"/>
     <use style="fill:#d62728;stroke:#d62728;" x="284.610937" xlink:href="#m851f591001" y="225.74025"/>
     <use style="fill:#d62728;stroke:#d62728;" x="292.050937" xlink:href="#m851f591001" y="204.23625"/>
     <use style="fill:#d62728;stroke:#d62728;" x="299.490937" xlink:href="#m851f591001" y="196.249518"/>
     <use style="fill:#d62728;stroke:#d62728;" x="306.930938" xlink:href="#m851f591001" y="179.105337"/>
     <use style="fill:#d62728;stroke:#d62728;" x="314.370938" xlink:href="#m851f591001" y="207.26025"/>
     <use style="fill:#d62728;stroke:#d62728;" x="321.810937" xlink:href="#m851f591001" y="184.673583"/>
     <use style="fill:#d62728;stroke:#d62728;" x="329.250937" xlink:href="#m851f591001" y="183.50025"/>
     <use style="fill:#d62728;stroke:#d62728;" x="336.690937" xlink:href="#m851f591001" y="200.425182"/>
     <use style="fill:#d62728;stroke:#d62728;" x="344.130937" xlink:href="#m851f591001" y="165.147698"/>
     <use style="fill:#d62728;stroke:#d62728;" x="351.570938" xlink:href="#m851f591001" y="198.753583"/>
     <use style="fill:#d62728;stroke:#d62728;" x="359.010937" xlink:href="#m851f591001" y="178.256664"/>
     <use style="fill:#d62728;stroke:#d62728;" x="366.450938" xlink:href="#m851f591001" y="182.326917"/>
     <use style="fill:#d62728;stroke:#d62728;" x="373.890937" xlink:href="#m851f591001" y="195.763476"/>
     <use style="fill:#d62728;stroke:#d62728;" x="381.330937" xlink:href="#m851f591001" y="164.985964"/>
     <use style="fill:#d62728;stroke:#d62728;" x="388.770937" xlink:href="#m851f591001" y="160.084598"/>
    </g>
   </g>
   <g id="patch_3">
    <path d="M 61.410938 297.54825 
L 61.410938 31.43625 
" style="fill:none;stroke:#000000;stroke-linecap:square;stroke-linejoin:miter;stroke-width:0.8;"/>
   </g>
   <g id="patch_4">
    <path d="M 418.530938 297.54825 
L 418.530938 31.43625 
" style="fill:none;stroke:#000000;stroke-linecap:square;stroke-linejoin:miter;stroke-width:0.8;"/>
   </g>
   <g id="patch_5">
    <path d="M 61.410937 297.54825 
L 418.530938 297.54825 
" style="fill:none;stroke:#000000;stroke-linecap:square;stroke-linejoin:miter;stroke-width:0.8;"/>
   </g>
   <g id="patch_6">
    <path d="M 61.410937 31.43625 
L 418.530938 31.43625 
" style="fill:none;stroke:#000000;stroke-linecap:square;stroke-linejoin:miter;stroke-width:0.8;"/>
   </g>
   <g id="text_16">
    <!-- PA spectrum @ ms, mW -->
    <defs>
     <path d="M 19.671875 64.796875 
L 19.671875 37.40625 
L 32.078125 37.40625 
Q 38.96875 37.40625 42.71875 40.96875 
Q 46.484375 44.53125 46.484375 51.125 
Q 46.484375 57.671875 42.71875 61.234375 
Q 38.96875 64.796875 32.078125 64.796875 
z
M 9.8125 72.90625 
L 32.078125 72.90625 
Q 44.34375 72.90625 50.609375 67.359375 
Q 56.890625 61.8125 56.890625 51.125 
Q 56.890625 40.328125 50.609375 34.8125 
Q 44.34375 29.296875 32.078125 29.296875 
L 19.671875 29.296875 
L 19.671875 0 
L 9.8125 0 
z
" id="DejaVuSans-80"/>
     <path d="M 34.1875 63.1875 
L 20.796875 26.90625 
L 47.609375 26.90625 
z
M 28.609375 72.90625 
L 39.796875 72.90625 
L 67.578125 0 
L 57.328125 0 
L 50.6875 18.703125 
L 17.828125 18.703125 
L 11.1875 0 
L 0.78125 0 
z
" id="DejaVuSans-65"/>
     <path d="M 18.109375 8.203125 
L 18.109375 -20.796875 
L 9.078125 -20.796875 
L 9.078125 54.6875 
L 18.109375 54.6875 
L 18.109375 46.390625 
Q 20.953125 51.265625 25.265625 53.625 
Q 29.59375 56 35.59375 56 
Q 45.5625 56 51.78125 48.09375 
Q 58.015625 40.1875 58.015625 27.296875 
Q 58.015625 14.40625 51.78125 6.484375 
Q 45.5625 -1.421875 35.59375 -1.421875 
Q 29.59375 -1.421875 25.265625 0.953125 
Q 20.953125 3.328125 18.109375 8.203125 
z
M 48.6875 27.296875 
Q 48.6875 37.203125 44.609375 42.84375 
Q 40.53125 48.484375 33.40625 48.484375 
Q 26.265625 48.484375 22.1875 42.84375 
Q 18.109375 37.203125 18.109375 27.296875 
Q 18.109375 17.390625 22.1875 11.75 
Q 26.265625 6.109375 33.40625 6.109375 
Q 40.53125 6.109375 44.609375 11.75 
Q 48.6875 17.390625 48.6875 27.296875 
z
" id="DejaVuSans-112"/>
     <path d="M 56.203125 29.59375 
L 56.203125 25.203125 
L 14.890625 25.203125 
Q 15.484375 15.921875 20.484375 11.0625 
Q 25.484375 6.203125 34.421875 6.203125 
Q 39.59375 6.203125 44.453125 7.46875 
Q 49.3125 8.734375 54.109375 11.28125 
L 54.109375 2.78125 
Q 49.265625 0.734375 44.1875 -0.34375 
Q 39.109375 -1.421875 33.890625 -1.421875 
Q 20.796875 -1.421875 13.15625 6.1875 
Q 5.515625 13.8125 5.515625 26.8125 
Q 5.515625 40.234375 12.765625 48.109375 
Q 20.015625 56 32.328125 56 
Q 43.359375 56 49.78125 48.890625 
Q 56.203125 41.796875 56.203125 29.59375 
z
M 47.21875 32.234375 
Q 47.125 39.59375 43.09375 43.984375 
Q 39.0625 48.390625 32.421875 48.390625 
Q 24.90625 48.390625 20.390625 44.140625 
Q 15.875 39.890625 15.1875 32.171875 
z
" id="DejaVuSans-101"/>
     <path d="M 48.78125 52.59375 
L 48.78125 44.1875 
Q 44.96875 46.296875 41.140625 47.34375 
Q 37.3125 48.390625 33.40625 48.390625 
Q 24.65625 48.390625 19.8125 42.84375 
Q 14.984375 37.3125 14.984375 27.296875 
Q 14.984375 17.28125 19.8125 11.734375 
Q 24.65625 6.203125 33.40625 6.203125 
Q 37.3125 6.203125 41.140625 7.25 
Q 44.96875 8.296875 48.78125 10.40625 
L 48.78125 2.09375 
Q 45.015625 0.34375 40.984375 -0.53125 
Q 36.96875 -1.421875 32.421875 -1.421875 
Q 20.0625 -1.421875 12.78125 6.34375 
Q 5.515625 14.109375 5.515625 27.296875 
Q 5.515625 40.671875 12.859375 48.328125 
Q 20.21875 56 33.015625 56 
Q 37.15625 56 41.109375 55.140625 
Q 45.0625 54.296875 48.78125 52.59375 
z
" id="DejaVuSans-99"/>
     <path d="M 18.3125 70.21875 
L 18.3125 54.6875 
L 36.8125 54.6875 
L 36.8125 47.703125 
L 18.3125 47.703125 
L 18.3125 18.015625 
Q 18.3125 11.328125 20.140625 9.421875 
Q 21.96875 7.515625 27.59375 7.515625 
L 36.8125 7.515625 
L 36.8125 0 
L 27.59375 0 
Q 17.1875 0 13.234375 3.875 
Q 9.28125 7.765625 9.28125 18.015625 
L 9.28125 47.703125 
L 2.6875 47.703125 
L 2.6875 54.6875 
L 9.28125 54.6875 
L 9.28125 70.21875 
z
" id="DejaVuSans-116"/>
     <path d="M 52 44.1875 
Q 55.375 50.25 60.0625 53.125 
Q 64.75 56 71.09375 56 
Q 79.640625 56 84.28125 50.015625 
Q 88.921875 44.046875 88.921875 33.015625 
L 88.921875 0 
L 79.890625 0 
L 79.890625 32.71875 
Q 79.890625 40.578125 77.09375 44.375 
Q 74.3125 48.1875 68.609375 48.1875 
Q 61.625 48.1875 57.5625 43.546875 
Q 53.515625 38.921875 53.515625 30.90625 
L 53.515625 0 
L 44.484375 0 
L 44.484375 32.71875 
Q 44.484375 40.625 41.703125 44.40625 
Q 38.921875 48.1875 33.109375 48.1875 
Q 26.21875 48.1875 22.15625 43.53125 
Q 18.109375 38.875 18.109375 30.90625 
L 18.109375 0 
L 9.078125 0 
L 9.078125 54.6875 
L 18.109375 54.6875 
L 18.109375 46.1875 
Q 21.1875 51.21875 25.484375 53.609375 
Q 29.78125 56 35.6875 56 
Q 41.65625 56 45.828125 52.96875 
Q 50 49.953125 52 44.1875 
z
" id="DejaVuSans-109"/>
     <path d="M 37.203125 26.21875 
Q 37.203125 19.234375 40.671875 15.25 
Q 44.140625 11.28125 50.203125 11.28125 
Q 56.203125 11.28125 59.640625 15.28125 
Q 63.09375 19.28125 63.09375 26.21875 
Q 63.09375 33.0625 59.578125 37.078125 
Q 56.0625 41.109375 50.09375 41.109375 
Q 44.1875 41.109375 40.6875 37.109375 
Q 37.203125 33.109375 37.203125 26.21875 
z
M 63.8125 11.625 
Q 60.890625 7.859375 57.109375 6.078125 
Q 53.328125 4.296875 48.296875 4.296875 
Q 39.890625 4.296875 34.640625 10.375 
Q 29.390625 16.453125 29.390625 26.21875 
Q 29.390625 35.984375 34.65625 42.078125 
Q 39.9375 48.1875 48.296875 48.1875 
Q 53.328125 48.1875 57.125 46.359375 
Q 60.9375 44.53125 63.8125 40.828125 
L 63.8125 47.21875 
L 70.796875 47.21875 
L 70.796875 11.28125 
Q 77.9375 12.359375 81.953125 17.796875 
Q 85.984375 23.25 85.984375 31.890625 
Q 85.984375 37.109375 84.4375 41.703125 
Q 82.90625 46.296875 79.78125 50.203125 
Q 74.703125 56.59375 67.40625 59.984375 
Q 60.109375 63.375 51.515625 63.375 
Q 45.515625 63.375 39.984375 61.78125 
Q 34.46875 60.203125 29.78125 57.078125 
Q 22.125 52.09375 17.796875 44.015625 
Q 13.484375 35.9375 13.484375 26.515625 
Q 13.484375 18.75 16.28125 11.953125 
Q 19.09375 5.171875 24.421875 0 
Q 29.546875 -5.078125 36.28125 -7.734375 
Q 43.015625 -10.40625 50.6875 -10.40625 
Q 56.984375 -10.40625 63.0625 -8.28125 
Q 69.140625 -6.15625 74.21875 -2.203125 
L 78.609375 -7.625 
Q 72.515625 -12.359375 65.3125 -14.875 
Q 58.109375 -17.390625 50.6875 -17.390625 
Q 41.65625 -17.390625 33.640625 -14.1875 
Q 25.640625 -10.984375 19.390625 -4.890625 
Q 13.140625 1.21875 9.859375 9.25 
Q 6.59375 17.28125 6.59375 26.515625 
Q 6.59375 35.40625 9.90625 43.453125 
Q 13.234375 51.515625 19.390625 57.625 
Q 25.6875 63.8125 33.9375 67.109375 
Q 42.1875 70.40625 51.421875 70.40625 
Q 61.765625 70.40625 70.625 66.15625 
Q 79.5 61.921875 85.5 54.109375 
Q 89.15625 49.3125 91.078125 43.703125 
Q 93.015625 38.09375 93.015625 32.078125 
Q 93.015625 19.234375 85.25 11.8125 
Q 77.484375 4.390625 63.8125 4.109375 
z
" id="DejaVuSans-64"/>
     <path d="M 11.71875 12.40625 
L 22.015625 12.40625 
L 22.015625 4 
L 14.015625 -11.625 
L 7.71875 -11.625 
L 11.71875 4 
z
" id="DejaVuSans-44"/>
     <path d="M 3.328125 72.90625 
L 13.28125 72.90625 
L 28.609375 11.28125 
L 43.890625 72.90625 
L 54.984375 72.90625 
L 70.3125 11.28125 
L 85.59375 72.90625 
L 95.609375 72.90625 
L 77.296875 0 
L 64.890625 0 
L 49.515625 63.28125 
L 33.984375 0 
L 21.578125 0 
z
" id="DejaVuSans-87"/>
    </defs>
    <g transform="translate(95.192813 25.43625)scale(0.24 -0.24)">
     <use xlink:href="#DejaVuSans-80"/>
     <use x="60.208984" xlink:href="#DejaVuSans-65"/>
     <use x="128.617188" xlink:href="#DejaVuSans-32"/>
     <use x="160.404297" xlink:href="#DejaVuSans-115"/>
     <use x="212.503906" xlink:href="#DejaVuSans-112"/>
     <use x="275.980469" xlink:href="#DejaVuSans-101"/>
     <use x="337.503906" xlink:href="#DejaVuSans-99"/>
     <use x="392.484375" xlink:href="#DejaVuSans-116"/>
     <use x="431.693359" xlink:href="#DejaVuSans-114"/>
     <use x="472.806641" xlink:href="#DejaVuSans-117"/>
     <use x="536.185547" xlink:href="#DejaVuSans-109"/>
     <use x="633.597656" xlink:href="#DejaVuSans-32"/>
     <use x="665.384766" xlink:href="#DejaVuSans-64"/>
     <use x="765.384766" xlink:href="#DejaVuSans-32"/>
     <use x="797.171875" xlink:href="#DejaVuSans-109"/>
     <use x="894.583984" xlink:href="#DejaVuSans-115"/>
     <use x="946.683594" xlink:href="#DejaVuSans-44"/>
     <use x="978.470703" xlink:href="#DejaVuSans-32"/>
     <use x="1010.257812" xlink:href="#DejaVuSans-109"/>
     <use x="1107.669922" xlink:href="#DejaVuSans-87"/>
    </g>
   </g>
   <g id="legend_1">
    <g id="patch_7">
     <path d="M 82.852763 83.675762 
L 411.866938 83.675762 
Q 415.198938 83.675762 415.198938 80.343762 
L 415.198938 38.10025 
Q 415.198938 34.76825 411.866938 34.76825 
L 82.852763 34.76825 
Q 79.520763 34.76825 79.520763 38.10025 
L 79.520763 80.343762 
Q 79.520763 83.675762 82.852763 83.675762 
z
" style="fill:#ffffff;opacity:0.8;stroke:#cccccc;stroke-linejoin:miter;"/>
    </g>
    <g id="LineCollection_5">
     <path d="M 102.844763 56.590247 
L 102.844763 39.930247 
" style="fill:none;stroke:#1f77b4;stroke-width:1.5;"/>
    </g>
    <g id="line2d_31">
     <path d="M 86.184763 48.260247 
L 119.504763 48.260247 
" style="fill:none;stroke:#1f77b4;stroke-linecap:square;stroke-width:1.5;"/>
    </g>
    <g id="line2d_32">
     <g>
      <use style="fill:#1f77b4;stroke:#1f77b4;" x="102.844763" xlink:href="#mb8bc26594a" y="48.260247"/>
     </g>
    </g>
    <g id="text_17">
     <!-- 0.8ms 5.8mW -->
     <g transform="translate(122.836763 54.091247)scale(0.1666 -0.1666)">
      <use xlink:href="#DejaVuSans-48"/>
      <use x="63.623047" xlink:href="#DejaVuSans-46"/>
      <use x="95.410156" xlink:href="#DejaVuSans-56"/>
      <use x="159.033203" xlink:href="#DejaVuSans-109"/>
      <use x="256.445312" xlink:href="#DejaVuSans-115"/>
      <use x="308.544922" xlink:href="#DejaVuSans-32"/>
      <use x="340.332031" xlink:href="#DejaVuSans-53"/>
      <use x="403.955078" xlink:href="#DejaVuSans-46"/>
      <use x="435.742188" xlink:href="#DejaVuSans-56"/>
      <use x="499.365234" xlink:href="#DejaVuSans-109"/>
      <use x="596.777344" xlink:href="#DejaVuSans-87"/>
     </g>
    </g>
    <g id="LineCollection_6">
     <path d="M 102.844763 76.046003 
L 102.844763 59.386003 
" style="fill:none;stroke:#ff7f0e;stroke-width:1.5;"/>
    </g>
    <g id="line2d_33">
     <path d="M 86.184763 67.716003 
L 119.504763 67.716003 
" style="fill:none;stroke:#ff7f0e;stroke-linecap:square;stroke-width:1.5;"/>
    </g>
    <g id="line2d_34">
     <g>
      <use style="fill:#ff7f0e;stroke:#ff7f0e;" x="102.844763" xlink:href="#m3e2fb6b177" y="67.716003"/>
     </g>
    </g>
    <g id="text_18">
     <!-- 1.0ms 0.53mW -->
     <defs>
      <path d="M 12.40625 8.296875 
L 28.515625 8.296875 
L 28.515625 63.921875 
L 10.984375 60.40625 
L 10.984375 69.390625 
L 28.421875 72.90625 
L 38.28125 72.90625 
L 38.28125 8.296875 
L 54.390625 8.296875 
L 54.390625 0 
L 12.40625 0 
z
" id="DejaVuSans-49"/>
     </defs>
     <g transform="translate(122.836763 73.547003)scale(0.1666 -0.1666)">
      <use xlink:href="#DejaVuSans-49"/>
      <use x="63.623047" xlink:href="#DejaVuSans-46"/>
      <use x="95.410156" xlink:href="#DejaVuSans-48"/>
      <use x="159.033203" xlink:href="#DejaVuSans-109"/>
      <use x="256.445312" xlink:href="#DejaVuSans-115"/>
      <use x="308.544922" xlink:href="#DejaVuSans-32"/>
      <use x="340.332031" xlink:href="#DejaVuSans-48"/>
      <use x="403.955078" xlink:href="#DejaVuSans-46"/>
      <use x="435.742188" xlink:href="#DejaVuSans-53"/>
      <use x="499.365234" xlink:href="#DejaVuSans-51"/>
      <use x="562.988281" xlink:href="#DejaVuSans-109"/>
      <use x="660.400391" xlink:href="#DejaVuSans-87"/>
     </g>
    </g>
    <g id="LineCollection_7">
     <path d="M 272.651813 56.590247 
L 272.651813 39.930247 
" style="fill:none;stroke:#2ca02c;stroke-width:1.5;"/>
    </g>
    <g id="line2d_35">
     <path d="M 255.991813 48.260247 
L 289.311813 48.260247 
" style="fill:none;stroke:#2ca02c;stroke-linecap:square;stroke-width:1.5;"/>
    </g>
    <g id="line2d_36">
     <g>
      <use style="fill:#2ca02c;stroke:#2ca02c;" x="272.651813" xlink:href="#m92edfcde95" y="48.260247"/>
     </g>
    </g>
    <g id="text_19">
     <!-- 0.8ms 1.0mW -->
     <g transform="translate(292.643813 54.091247)scale(0.1666 -0.1666)">
      <use xlink:href="#DejaVuSans-48"/>
      <use x="63.623047" xlink:href="#DejaVuSans-46"/>
      <use x="95.410156" xlink:href="#DejaVuSans-56"/>
      <use x="159.033203" xlink:href="#DejaVuSans-109"/>
      <use x="256.445312" xlink:href="#DejaVuSans-115"/>
      <use x="308.544922" xlink:href="#DejaVuSans-32"/>
      <use x="340.332031" xlink:href="#DejaVuSans-49"/>
      <use x="403.955078" xlink:href="#DejaVuSans-46"/>
      <use x="435.742188" xlink:href="#DejaVuSans-48"/>
      <use x="499.365234" xlink:href="#DejaVuSans-109"/>
      <use x="596.777344" xlink:href="#DejaVuSans-87"/>
     </g>
    </g>
    <g id="LineCollection_8">
     <path d="M 272.651813 76.046003 
L 272.651813 59.386003 
" style="fill:none;stroke:#d62728;stroke-width:1.5;"/>
    </g>
    <g id="line2d_37">
     <path d="M 255.991813 67.716003 
L 289.311813 67.716003 
" style="fill:none;stroke:#d62728;stroke-linecap:square;stroke-width:1.5;"/>
    </g>
    <g id="line2d_38">
     <g>
      <use style="fill:#d62728;stroke:#d62728;" x="272.651813" xlink:href="#m851f591001" y="67.716003"/>
     </g>
    </g>
    <g id="text_20">
     <!-- 0.3ms 5.8mW -->
     <g transform="translate(292.643813 73.547003)scale(0.1666 -0.1666)">
      <use xlink:href="#DejaVuSans-48"/>
      <use x="63.623047" xlink:href="#DejaVuSans-46"/>
      <use x="95.410156" xlink:href="#DejaVuSans-51"/>
      <use x="159.033203" xlink:href="#DejaVuSans-109"/>
      <use x="256.445312" xlink:href="#DejaVuSans-115"/>
      <use x="308.544922" xlink:href="#DejaVuSans-32"/>
      <use x="340.332031" xlink:href="#DejaVuSans-53"/>
      <use x="403.955078" xlink:href="#DejaVuSans-46"/>
      <use x="435.742188" xlink:href="#DejaVuSans-56"/>
      <use x="499.365234" xlink:href="#DejaVuSans-109"/>
      <use x="596.777344" xlink:href="#DejaVuSans-87"/>
     </g>
    </g>
   </g>
  </g>
 </g>
 <defs>
  <clipPath id="pbcf3292bdb">
   <rect height="266.112" width="357.12" x="61.410938" y="31.43625"/>
  </clipPath>
 </defs>
</svg>
