<?xml version="1.0" encoding="utf-8" standalone="no"?>
<!DOCTYPE svg PUBLIC "-//W3C//DTD SVG 1.1//EN"
  "http://www.w3.org/Graphics/SVG/1.1/DTD/svg11.dtd">
<!-- Created with matplotlib (http://matplotlib.org/) -->
<svg height="349pt" version="1.1" viewBox="0 0 429 349" width="429pt" xmlns="http://www.w3.org/2000/svg" xmlns:xlink="http://www.w3.org/1999/xlink">
 <defs>
  <style type="text/css">
*{stroke-linecap:butt;stroke-linejoin:round;}
  </style>
 </defs>
 <g id="figure_1">
  <g id="patch_1">
   <path d="M 0 349.665437 
L 429.230937 349.665437 
L 429.230937 0 
L 0 0 
z
" style="fill:none;"/>
  </g>
  <g id="axes_1">
   <g id="patch_2">
    <path d="M 61.410938 297.54825 
L 418.530938 297.54825 
L 418.530938 31.43625 
L 61.410938 31.43625 
z
" style="fill:none;"/>
   </g>
   <g id="matplotlib.axis_1">
    <g id="xtick_1">
     <g id="line2d_1">
      <path clip-path="url(#p28badead61)" d="M 77.643665 297.54825 
L 77.643665 31.43625 
" style="fill:none;stroke:#b0b0b0;stroke-linecap:square;stroke-width:0.8;"/>
     </g>
     <g id="line2d_2">
      <defs>
       <path d="M 0 0 
L 0 3.5 
" id="m005f0a59be" style="stroke:#000000;stroke-width:0.8;"/>
      </defs>
      <g>
       <use style="stroke:#000000;stroke-width:0.8;" x="77.643665" xlink:href="#m005f0a59be" y="297.54825"/>
      </g>
     </g>
     <g id="text_1">
      <!-- 0 -->
      <defs>
       <path d="M 31.78125 66.40625 
Q 24.171875 66.40625 20.328125 58.90625 
Q 16.5 51.421875 16.5 36.375 
Q 16.5 21.390625 20.328125 13.890625 
Q 24.171875 6.390625 31.78125 6.390625 
Q 39.453125 6.390625 43.28125 13.890625 
Q 47.125 21.390625 47.125 36.375 
Q 47.125 51.421875 43.28125 58.90625 
Q 39.453125 66.40625 31.78125 66.40625 
z
M 31.78125 74.21875 
Q 44.046875 74.21875 50.515625 64.515625 
Q 56.984375 54.828125 56.984375 36.375 
Q 56.984375 17.96875 50.515625 8.265625 
Q 44.046875 -1.421875 31.78125 -1.421875 
Q 19.53125 -1.421875 13.0625 8.265625 
Q 6.59375 17.96875 6.59375 36.375 
Q 6.59375 54.828125 13.0625 64.515625 
Q 19.53125 74.21875 31.78125 74.21875 
z
" id="DejaVuSans-30"/>
      </defs>
      <g transform="translate(72.87179 315.945906)scale(0.15 -0.15)">
       <use xlink:href="#DejaVuSans-30"/>
      </g>
     </g>
    </g>
    <g id="xtick_2">
     <g id="line2d_3">
      <path clip-path="url(#p28badead61)" d="M 131.752756 297.54825 
L 131.752756 31.43625 
" style="fill:none;stroke:#b0b0b0;stroke-linecap:square;stroke-width:0.8;"/>
     </g>
     <g id="line2d_4">
      <g>
       <use style="stroke:#000000;stroke-width:0.8;" x="131.752756" xlink:href="#m005f0a59be" y="297.54825"/>
      </g>
     </g>
     <g id="text_2">
      <!-- 200 -->
      <defs>
       <path d="M 19.1875 8.296875 
L 53.609375 8.296875 
L 53.609375 0 
L 7.328125 0 
L 7.328125 8.296875 
Q 12.9375 14.109375 22.625 23.890625 
Q 32.328125 33.6875 34.8125 36.53125 
Q 39.546875 41.84375 41.421875 45.53125 
Q 43.3125 49.21875 43.3125 52.78125 
Q 43.3125 58.59375 39.234375 62.25 
Q 35.15625 65.921875 28.609375 65.921875 
Q 23.96875 65.921875 18.8125 64.3125 
Q 13.671875 62.703125 7.8125 59.421875 
L 7.8125 69.390625 
Q 13.765625 71.78125 18.9375 73 
Q 24.125 74.21875 28.421875 74.21875 
Q 39.75 74.21875 46.484375 68.546875 
Q 53.21875 62.890625 53.21875 53.421875 
Q 53.21875 48.921875 51.53125 44.890625 
Q 49.859375 40.875 45.40625 35.40625 
Q 44.1875 33.984375 37.640625 27.21875 
Q 31.109375 20.453125 19.1875 8.296875 
z
" id="DejaVuSans-32"/>
      </defs>
      <g transform="translate(117.437131 315.945906)scale(0.15 -0.15)">
       <use xlink:href="#DejaVuSans-32"/>
       <use x="63.623047" xlink:href="#DejaVuSans-30"/>
       <use x="127.246094" xlink:href="#DejaVuSans-30"/>
      </g>
     </g>
    </g>
    <g id="xtick_3">
     <g id="line2d_5">
      <path clip-path="url(#p28badead61)" d="M 185.861847 297.54825 
L 185.861847 31.43625 
" style="fill:none;stroke:#b0b0b0;stroke-linecap:square;stroke-width:0.8;"/>
     </g>
     <g id="line2d_6">
      <g>
       <use style="stroke:#000000;stroke-width:0.8;" x="185.861847" xlink:href="#m005f0a59be" y="297.54825"/>
      </g>
     </g>
     <g id="text_3">
      <!-- 400 -->
      <defs>
       <path d="M 37.796875 64.3125 
L 12.890625 25.390625 
L 37.796875 25.390625 
z
M 35.203125 72.90625 
L 47.609375 72.90625 
L 47.609375 25.390625 
L 58.015625 25.390625 
L 58.015625 17.1875 
L 47.609375 17.1875 
L 47.609375 0 
L 37.796875 0 
L 37.796875 17.1875 
L 4.890625 17.1875 
L 4.890625 26.703125 
z
" id="DejaVuSans-34"/>
      </defs>
      <g transform="translate(171.546222 315.945906)scale(0.15 -0.15)">
       <use xlink:href="#DejaVuSans-34"/>
       <use x="63.623047" xlink:href="#DejaVuSans-30"/>
       <use x="127.246094" xlink:href="#DejaVuSans-30"/>
      </g>
     </g>
    </g>
    <g id="xtick_4">
     <g id="line2d_7">
      <path clip-path="url(#p28badead61)" d="M 239.970938 297.54825 
L 239.970938 31.43625 
" style="fill:none;stroke:#b0b0b0;stroke-linecap:square;stroke-width:0.8;"/>
     </g>
     <g id="line2d_8">
      <g>
       <use style="stroke:#000000;stroke-width:0.8;" x="239.970938" xlink:href="#m005f0a59be" y="297.54825"/>
      </g>
     </g>
     <g id="text_4">
      <!-- 600 -->
      <defs>
       <path d="M 33.015625 40.375 
Q 26.375 40.375 22.484375 35.828125 
Q 18.609375 31.296875 18.609375 23.390625 
Q 18.609375 15.53125 22.484375 10.953125 
Q 26.375 6.390625 33.015625 6.390625 
Q 39.65625 6.390625 43.53125 10.953125 
Q 47.40625 15.53125 47.40625 23.390625 
Q 47.40625 31.296875 43.53125 35.828125 
Q 39.65625 40.375 33.015625 40.375 
z
M 52.59375 71.296875 
L 52.59375 62.3125 
Q 48.875 64.0625 45.09375 64.984375 
Q 41.3125 65.921875 37.59375 65.921875 
Q 27.828125 65.921875 22.671875 59.328125 
Q 17.53125 52.734375 16.796875 39.40625 
Q 19.671875 43.65625 24.015625 45.921875 
Q 28.375 48.1875 33.59375 48.1875 
Q 44.578125 48.1875 50.953125 41.515625 
Q 57.328125 34.859375 57.328125 23.390625 
Q 57.328125 12.15625 50.6875 5.359375 
Q 44.046875 -1.421875 33.015625 -1.421875 
Q 20.359375 -1.421875 13.671875 8.265625 
Q 6.984375 17.96875 6.984375 36.375 
Q 6.984375 53.65625 15.1875 63.9375 
Q 23.390625 74.21875 37.203125 74.21875 
Q 40.921875 74.21875 44.703125 73.484375 
Q 48.484375 72.75 52.59375 71.296875 
z
" id="DejaVuSans-36"/>
      </defs>
      <g transform="translate(225.655313 315.945906)scale(0.15 -0.15)">
       <use xlink:href="#DejaVuSans-36"/>
       <use x="63.623047" xlink:href="#DejaVuSans-30"/>
       <use x="127.246094" xlink:href="#DejaVuSans-30"/>
      </g>
     </g>
    </g>
    <g id="xtick_5">
     <g id="line2d_9">
      <path clip-path="url(#p28badead61)" d="M 294.080028 297.54825 
L 294.080028 31.43625 
" style="fill:none;stroke:#b0b0b0;stroke-linecap:square;stroke-width:0.8;"/>
     </g>
     <g id="line2d_10">
      <g>
       <use style="stroke:#000000;stroke-width:0.8;" x="294.080028" xlink:href="#m005f0a59be" y="297.54825"/>
      </g>
     </g>
     <g id="text_5">
      <!-- 800 -->
      <defs>
       <path d="M 31.78125 34.625 
Q 24.75 34.625 20.71875 30.859375 
Q 16.703125 27.09375 16.703125 20.515625 
Q 16.703125 13.921875 20.71875 10.15625 
Q 24.75 6.390625 31.78125 6.390625 
Q 38.8125 6.390625 42.859375 10.171875 
Q 46.921875 13.96875 46.921875 20.515625 
Q 46.921875 27.09375 42.890625 30.859375 
Q 38.875 34.625 31.78125 34.625 
z
M 21.921875 38.8125 
Q 15.578125 40.375 12.03125 44.71875 
Q 8.5 49.078125 8.5 55.328125 
Q 8.5 64.0625 14.71875 69.140625 
Q 20.953125 74.21875 31.78125 74.21875 
Q 42.671875 74.21875 48.875 69.140625 
Q 55.078125 64.0625 55.078125 55.328125 
Q 55.078125 49.078125 51.53125 44.71875 
Q 48 40.375 41.703125 38.8125 
Q 48.828125 37.15625 52.796875 32.3125 
Q 56.78125 27.484375 56.78125 20.515625 
Q 56.78125 9.90625 50.3125 4.234375 
Q 43.84375 -1.421875 31.78125 -1.421875 
Q 19.734375 -1.421875 13.25 4.234375 
Q 6.78125 9.90625 6.78125 20.515625 
Q 6.78125 27.484375 10.78125 32.3125 
Q 14.796875 37.15625 21.921875 38.8125 
z
M 18.3125 54.390625 
Q 18.3125 48.734375 21.84375 45.5625 
Q 25.390625 42.390625 31.78125 42.390625 
Q 38.140625 42.390625 41.71875 45.5625 
Q 45.3125 48.734375 45.3125 54.390625 
Q 45.3125 60.0625 41.71875 63.234375 
Q 38.140625 66.40625 31.78125 66.40625 
Q 25.390625 66.40625 21.84375 63.234375 
Q 18.3125 60.0625 18.3125 54.390625 
z
" id="DejaVuSans-38"/>
      </defs>
      <g transform="translate(279.764403 315.945906)scale(0.15 -0.15)">
       <use xlink:href="#DejaVuSans-38"/>
       <use x="63.623047" xlink:href="#DejaVuSans-30"/>
       <use x="127.246094" xlink:href="#DejaVuSans-30"/>
      </g>
     </g>
    </g>
    <g id="xtick_6">
     <g id="line2d_11">
      <path clip-path="url(#p28badead61)" d="M 348.189119 297.54825 
L 348.189119 31.43625 
" style="fill:none;stroke:#b0b0b0;stroke-linecap:square;stroke-width:0.8;"/>
     </g>
     <g id="line2d_12">
      <g>
       <use style="stroke:#000000;stroke-width:0.8;" x="348.189119" xlink:href="#m005f0a59be" y="297.54825"/>
      </g>
     </g>
     <g id="text_6">
      <!-- 1000 -->
      <defs>
       <path d="M 12.40625 8.296875 
L 28.515625 8.296875 
L 28.515625 63.921875 
L 10.984375 60.40625 
L 10.984375 69.390625 
L 28.421875 72.90625 
L 38.28125 72.90625 
L 38.28125 8.296875 
L 54.390625 8.296875 
L 54.390625 0 
L 12.40625 0 
z
" id="DejaVuSans-31"/>
      </defs>
      <g transform="translate(329.101619 315.945906)scale(0.15 -0.15)">
       <use xlink:href="#DejaVuSans-31"/>
       <use x="63.623047" xlink:href="#DejaVuSans-30"/>
       <use x="127.246094" xlink:href="#DejaVuSans-30"/>
       <use x="190.869141" xlink:href="#DejaVuSans-30"/>
      </g>
     </g>
    </g>
    <g id="xtick_7">
     <g id="line2d_13">
      <path clip-path="url(#p28badead61)" d="M 402.29821 297.54825 
L 402.29821 31.43625 
" style="fill:none;stroke:#b0b0b0;stroke-linecap:square;stroke-width:0.8;"/>
     </g>
     <g id="line2d_14">
      <g>
       <use style="stroke:#000000;stroke-width:0.8;" x="402.29821" xlink:href="#m005f0a59be" y="297.54825"/>
      </g>
     </g>
     <g id="text_7">
      <!-- 1200 -->
      <g transform="translate(383.21071 315.945906)scale(0.15 -0.15)">
       <use xlink:href="#DejaVuSans-31"/>
       <use x="63.623047" xlink:href="#DejaVuSans-32"/>
       <use x="127.246094" xlink:href="#DejaVuSans-30"/>
       <use x="190.869141" xlink:href="#DejaVuSans-30"/>
      </g>
     </g>
    </g>
    <g id="text_8">
     <!-- Time ($\mu s$) -->
     <defs>
      <path d="M -0.296875 72.90625 
L 61.375 72.90625 
L 61.375 64.59375 
L 35.5 64.59375 
L 35.5 0 
L 25.59375 0 
L 25.59375 64.59375 
L -0.296875 64.59375 
z
" id="DejaVuSans-54"/>
      <path d="M 9.421875 54.6875 
L 18.40625 54.6875 
L 18.40625 0 
L 9.421875 0 
z
M 9.421875 75.984375 
L 18.40625 75.984375 
L 18.40625 64.59375 
L 9.421875 64.59375 
z
" id="DejaVuSans-69"/>
      <path d="M 52 44.1875 
Q 55.375 50.25 60.0625 53.125 
Q 64.75 56 71.09375 56 
Q 79.640625 56 84.28125 50.015625 
Q 88.921875 44.046875 88.921875 33.015625 
L 88.921875 0 
L 79.890625 0 
L 79.890625 32.71875 
Q 79.890625 40.578125 77.09375 44.375 
Q 74.3125 48.1875 68.609375 48.1875 
Q 61.625 48.1875 57.5625 43.546875 
Q 53.515625 38.921875 53.515625 30.90625 
L 53.515625 0 
L 44.484375 0 
L 44.484375 32.71875 
Q 44.484375 40.625 41.703125 44.40625 
Q 38.921875 48.1875 33.109375 48.1875 
Q 26.21875 48.1875 22.15625 43.53125 
Q 18.109375 38.875 18.109375 30.90625 
L 18.109375 0 
L 9.078125 0 
L 9.078125 54.6875 
L 18.109375 54.6875 
L 18.109375 46.1875 
Q 21.1875 51.21875 25.484375 53.609375 
Q 29.78125 56 35.6875 56 
Q 41.65625 56 45.828125 52.96875 
Q 50 49.953125 52 44.1875 
z
" id="DejaVuSans-6d"/>
      <path d="M 56.203125 29.59375 
L 56.203125 25.203125 
L 14.890625 25.203125 
Q 15.484375 15.921875 20.484375 11.0625 
Q 25.484375 6.203125 34.421875 6.203125 
Q 39.59375 6.203125 44.453125 7.46875 
Q 49.3125 8.734375 54.109375 11.28125 
L 54.109375 2.78125 
Q 49.265625 0.734375 44.1875 -0.34375 
Q 39.109375 -1.421875 33.890625 -1.421875 
Q 20.796875 -1.421875 13.15625 6.1875 
Q 5.515625 13.8125 5.515625 26.8125 
Q 5.515625 40.234375 12.765625 48.109375 
Q 20.015625 56 32.328125 56 
Q 43.359375 56 49.78125 48.890625 
Q 56.203125 41.796875 56.203125 29.59375 
z
M 47.21875 32.234375 
Q 47.125 39.59375 43.09375 43.984375 
Q 39.0625 48.390625 32.421875 48.390625 
Q 24.90625 48.390625 20.390625 44.140625 
Q 15.875 39.890625 15.1875 32.171875 
z
" id="DejaVuSans-65"/>
      <path id="DejaVuSans-20"/>
      <path d="M 31 75.875 
Q 24.46875 64.65625 21.28125 53.65625 
Q 18.109375 42.671875 18.109375 31.390625 
Q 18.109375 20.125 21.3125 9.0625 
Q 24.515625 -2 31 -13.1875 
L 23.1875 -13.1875 
Q 15.875 -1.703125 12.234375 9.375 
Q 8.59375 20.453125 8.59375 31.390625 
Q 8.59375 42.28125 12.203125 53.3125 
Q 15.828125 64.359375 23.1875 75.875 
z
" id="DejaVuSans-28"/>
      <path d="M -1.3125 -20.796875 
L 13.375 54.6875 
L 22.40625 54.6875 
L 15.765625 20.65625 
Q 15.578125 19.625 15.421875 18.359375 
Q 15.28125 17.09375 15.28125 15.828125 
Q 15.28125 11.28125 18.140625 8.828125 
Q 21 6.390625 26.3125 6.390625 
Q 33.546875 6.390625 37.984375 10.484375 
Q 42.4375 14.59375 44 22.796875 
L 50.203125 54.6875 
L 59.1875 54.6875 
L 51.03125 12.640625 
Q 50.828125 11.71875 50.75 11.03125 
Q 50.6875 10.359375 50.6875 9.8125 
Q 50.6875 8.296875 51.296875 7.59375 
Q 51.90625 6.890625 53.21875 6.890625 
Q 53.71875 6.890625 54.5625 7.125 
Q 55.421875 7.375 56.984375 8.015625 
L 55.609375 0.78125 
Q 53.46875 -0.296875 51.515625 -0.859375 
Q 49.5625 -1.421875 47.703125 -1.421875 
Q 44.484375 -1.421875 42.65625 0.625 
Q 40.828125 2.6875 40.828125 6.296875 
Q 38.09375 2.390625 34.296875 0.484375 
Q 30.515625 -1.421875 25.390625 -1.421875 
Q 20.84375 -1.421875 17.453125 0.671875 
Q 14.0625 2.78125 12.984375 6.203125 
L 7.71875 -20.796875 
z
" id="DejaVuSans-Oblique-3bc"/>
      <path d="M 50 53.078125 
L 48.296875 44.578125 
Q 44.734375 46.53125 40.765625 47.5 
Q 36.8125 48.484375 32.625 48.484375 
Q 25.53125 48.484375 21.453125 46.0625 
Q 17.390625 43.65625 17.390625 39.5 
Q 17.390625 34.671875 26.859375 32.078125 
Q 27.59375 31.890625 27.9375 31.78125 
L 30.8125 30.90625 
Q 39.796875 28.421875 42.796875 25.6875 
Q 45.796875 22.953125 45.796875 18.21875 
Q 45.796875 9.515625 38.890625 4.046875 
Q 31.984375 -1.421875 20.796875 -1.421875 
Q 16.453125 -1.421875 11.671875 -0.578125 
Q 6.890625 0.25 1.125 2 
L 2.875 11.28125 
Q 7.8125 8.734375 12.59375 7.421875 
Q 17.390625 6.109375 21.78125 6.109375 
Q 28.375 6.109375 32.5 8.9375 
Q 36.625 11.765625 36.625 16.109375 
Q 36.625 20.796875 25.78125 23.6875 
L 24.859375 23.921875 
L 21.78125 24.703125 
Q 14.9375 26.515625 11.765625 29.46875 
Q 8.59375 32.421875 8.59375 37.015625 
Q 8.59375 45.75 15.15625 50.875 
Q 21.734375 56 33.015625 56 
Q 37.453125 56 41.671875 55.265625 
Q 45.90625 54.546875 50 53.078125 
z
" id="DejaVuSans-Oblique-73"/>
      <path d="M 8.015625 75.875 
L 15.828125 75.875 
Q 23.140625 64.359375 26.78125 53.3125 
Q 30.421875 42.28125 30.421875 31.390625 
Q 30.421875 20.453125 26.78125 9.375 
Q 23.140625 -1.703125 15.828125 -13.1875 
L 8.015625 -13.1875 
Q 14.5 -2 17.703125 9.0625 
Q 20.90625 20.125 20.90625 31.390625 
Q 20.90625 42.671875 17.703125 53.65625 
Q 14.5 64.65625 8.015625 75.875 
z
" id="DejaVuSans-29"/>
     </defs>
     <g transform="translate(192.570938 338.265437)scale(0.2 -0.2)">
      <use transform="translate(0 0.015625)" xlink:href="#DejaVuSans-54"/>
      <use transform="translate(61.083984 0.015625)" xlink:href="#DejaVuSans-69"/>
      <use transform="translate(88.867188 0.015625)" xlink:href="#DejaVuSans-6d"/>
      <use transform="translate(186.279297 0.015625)" xlink:href="#DejaVuSans-65"/>
      <use transform="translate(247.802734 0.015625)" xlink:href="#DejaVuSans-20"/>
      <use transform="translate(279.589844 0.015625)" xlink:href="#DejaVuSans-28"/>
      <use transform="translate(318.603516 0.015625)" xlink:href="#DejaVuSans-Oblique-3bc"/>
      <use transform="translate(382.226562 0.015625)" xlink:href="#DejaVuSans-Oblique-73"/>
      <use transform="translate(434.326172 0.015625)" xlink:href="#DejaVuSans-29"/>
     </g>
    </g>
   </g>
   <g id="matplotlib.axis_2">
    <g id="ytick_1">
     <g id="line2d_15">
      <path clip-path="url(#p28badead61)" d="M 61.410938 297.54825 
L 418.530938 297.54825 
" style="fill:none;stroke:#b0b0b0;stroke-linecap:square;stroke-width:0.8;"/>
     </g>
     <g id="line2d_16">
      <defs>
       <path d="M 0 0 
L -3.5 0 
" id="mc3ce260a5b" style="stroke:#000000;stroke-width:0.8;"/>
      </defs>
      <g>
       <use style="stroke:#000000;stroke-width:0.8;" x="61.410938" xlink:href="#mc3ce260a5b" y="297.54825"/>
      </g>
     </g>
     <g id="text_9">
      <!-- 0.0 -->
      <defs>
       <path d="M 10.6875 12.40625 
L 21 12.40625 
L 21 0 
L 10.6875 0 
z
" id="DejaVuSans-2e"/>
      </defs>
      <g transform="translate(30.55625 303.247078)scale(0.15 -0.15)">
       <use xlink:href="#DejaVuSans-30"/>
       <use x="63.623047" xlink:href="#DejaVuSans-2e"/>
       <use x="95.410156" xlink:href="#DejaVuSans-30"/>
      </g>
     </g>
    </g>
    <g id="ytick_2">
     <g id="line2d_17">
      <path clip-path="url(#p28badead61)" d="M 61.410938 244.32585 
L 418.530938 244.32585 
" style="fill:none;stroke:#b0b0b0;stroke-linecap:square;stroke-width:0.8;"/>
     </g>
     <g id="line2d_18">
      <g>
       <use style="stroke:#000000;stroke-width:0.8;" x="61.410938" xlink:href="#mc3ce260a5b" y="244.32585"/>
      </g>
     </g>
     <g id="text_10">
      <!-- 0.2 -->
      <g transform="translate(30.55625 250.024678)scale(0.15 -0.15)">
       <use xlink:href="#DejaVuSans-30"/>
       <use x="63.623047" xlink:href="#DejaVuSans-2e"/>
       <use x="95.410156" xlink:href="#DejaVuSans-32"/>
      </g>
     </g>
    </g>
    <g id="ytick_3">
     <g id="line2d_19">
      <path clip-path="url(#p28badead61)" d="M 61.410938 191.10345 
L 418.530938 191.10345 
" style="fill:none;stroke:#b0b0b0;stroke-linecap:square;stroke-width:0.8;"/>
     </g>
     <g id="line2d_20">
      <g>
       <use style="stroke:#000000;stroke-width:0.8;" x="61.410938" xlink:href="#mc3ce260a5b" y="191.10345"/>
      </g>
     </g>
     <g id="text_11">
      <!-- 0.4 -->
      <g transform="translate(30.55625 196.802278)scale(0.15 -0.15)">
       <use xlink:href="#DejaVuSans-30"/>
       <use x="63.623047" xlink:href="#DejaVuSans-2e"/>
       <use x="95.410156" xlink:href="#DejaVuSans-34"/>
      </g>
     </g>
    </g>
    <g id="ytick_4">
     <g id="line2d_21">
      <path clip-path="url(#p28badead61)" d="M 61.410938 137.88105 
L 418.530938 137.88105 
" style="fill:none;stroke:#b0b0b0;stroke-linecap:square;stroke-width:0.8;"/>
     </g>
     <g id="line2d_22">
      <g>
       <use style="stroke:#000000;stroke-width:0.8;" x="61.410938" xlink:href="#mc3ce260a5b" y="137.88105"/>
      </g>
     </g>
     <g id="text_12">
      <!-- 0.6 -->
      <g transform="translate(30.55625 143.579878)scale(0.15 -0.15)">
       <use xlink:href="#DejaVuSans-30"/>
       <use x="63.623047" xlink:href="#DejaVuSans-2e"/>
       <use x="95.410156" xlink:href="#DejaVuSans-36"/>
      </g>
     </g>
    </g>
    <g id="ytick_5">
     <g id="line2d_23">
      <path clip-path="url(#p28badead61)" d="M 61.410938 84.65865 
L 418.530938 84.65865 
" style="fill:none;stroke:#b0b0b0;stroke-linecap:square;stroke-width:0.8;"/>
     </g>
     <g id="line2d_24">
      <g>
       <use style="stroke:#000000;stroke-width:0.8;" x="61.410938" xlink:href="#mc3ce260a5b" y="84.65865"/>
      </g>
     </g>
     <g id="text_13">
      <!-- 0.8 -->
      <g transform="translate(30.55625 90.357478)scale(0.15 -0.15)">
       <use xlink:href="#DejaVuSans-30"/>
       <use x="63.623047" xlink:href="#DejaVuSans-2e"/>
       <use x="95.410156" xlink:href="#DejaVuSans-38"/>
      </g>
     </g>
    </g>
    <g id="ytick_6">
     <g id="line2d_25">
      <path clip-path="url(#p28badead61)" d="M 61.410938 31.43625 
L 418.530938 31.43625 
" style="fill:none;stroke:#b0b0b0;stroke-linecap:square;stroke-width:0.8;"/>
     </g>
     <g id="line2d_26">
      <g>
       <use style="stroke:#000000;stroke-width:0.8;" x="61.410938" xlink:href="#mc3ce260a5b" y="31.43625"/>
      </g>
     </g>
     <g id="text_14">
      <!-- 1.0 -->
      <g transform="translate(30.55625 37.135078)scale(0.15 -0.15)">
       <use xlink:href="#DejaVuSans-31"/>
       <use x="63.623047" xlink:href="#DejaVuSans-2e"/>
       <use x="95.410156" xlink:href="#DejaVuSans-30"/>
      </g>
     </g>
    </g>
    <g id="text_15">
     <!-- Survival -->
     <defs>
      <path d="M 53.515625 70.515625 
L 53.515625 60.890625 
Q 47.90625 63.578125 42.921875 64.890625 
Q 37.9375 66.21875 33.296875 66.21875 
Q 25.25 66.21875 20.875 63.09375 
Q 16.5 59.96875 16.5 54.203125 
Q 16.5 49.359375 19.40625 46.890625 
Q 22.3125 44.4375 30.421875 42.921875 
L 36.375 41.703125 
Q 47.40625 39.59375 52.65625 34.296875 
Q 57.90625 29 57.90625 20.125 
Q 57.90625 9.515625 50.796875 4.046875 
Q 43.703125 -1.421875 29.984375 -1.421875 
Q 24.8125 -1.421875 18.96875 -0.25 
Q 13.140625 0.921875 6.890625 3.21875 
L 6.890625 13.375 
Q 12.890625 10.015625 18.65625 8.296875 
Q 24.421875 6.59375 29.984375 6.59375 
Q 38.421875 6.59375 43.015625 9.90625 
Q 47.609375 13.234375 47.609375 19.390625 
Q 47.609375 24.75 44.3125 27.78125 
Q 41.015625 30.8125 33.5 32.328125 
L 27.484375 33.5 
Q 16.453125 35.6875 11.515625 40.375 
Q 6.59375 45.0625 6.59375 53.421875 
Q 6.59375 63.09375 13.40625 68.65625 
Q 20.21875 74.21875 32.171875 74.21875 
Q 37.3125 74.21875 42.625 73.28125 
Q 47.953125 72.359375 53.515625 70.515625 
z
" id="DejaVuSans-53"/>
      <path d="M 8.5 21.578125 
L 8.5 54.6875 
L 17.484375 54.6875 
L 17.484375 21.921875 
Q 17.484375 14.15625 20.5 10.265625 
Q 23.53125 6.390625 29.59375 6.390625 
Q 36.859375 6.390625 41.078125 11.03125 
Q 45.3125 15.671875 45.3125 23.6875 
L 45.3125 54.6875 
L 54.296875 54.6875 
L 54.296875 0 
L 45.3125 0 
L 45.3125 8.40625 
Q 42.046875 3.421875 37.71875 1 
Q 33.40625 -1.421875 27.6875 -1.421875 
Q 18.265625 -1.421875 13.375 4.4375 
Q 8.5 10.296875 8.5 21.578125 
z
M 31.109375 56 
z
" id="DejaVuSans-75"/>
      <path d="M 41.109375 46.296875 
Q 39.59375 47.171875 37.8125 47.578125 
Q 36.03125 48 33.890625 48 
Q 26.265625 48 22.1875 43.046875 
Q 18.109375 38.09375 18.109375 28.8125 
L 18.109375 0 
L 9.078125 0 
L 9.078125 54.6875 
L 18.109375 54.6875 
L 18.109375 46.1875 
Q 20.953125 51.171875 25.484375 53.578125 
Q 30.03125 56 36.53125 56 
Q 37.453125 56 38.578125 55.875 
Q 39.703125 55.765625 41.0625 55.515625 
z
" id="DejaVuSans-72"/>
      <path d="M 2.984375 54.6875 
L 12.5 54.6875 
L 29.59375 8.796875 
L 46.6875 54.6875 
L 56.203125 54.6875 
L 35.6875 0 
L 23.484375 0 
z
" id="DejaVuSans-76"/>
      <path d="M 34.28125 27.484375 
Q 23.390625 27.484375 19.1875 25 
Q 14.984375 22.515625 14.984375 16.5 
Q 14.984375 11.71875 18.140625 8.90625 
Q 21.296875 6.109375 26.703125 6.109375 
Q 34.1875 6.109375 38.703125 11.40625 
Q 43.21875 16.703125 43.21875 25.484375 
L 43.21875 27.484375 
z
M 52.203125 31.203125 
L 52.203125 0 
L 43.21875 0 
L 43.21875 8.296875 
Q 40.140625 3.328125 35.546875 0.953125 
Q 30.953125 -1.421875 24.3125 -1.421875 
Q 15.921875 -1.421875 10.953125 3.296875 
Q 6 8.015625 6 15.921875 
Q 6 25.140625 12.171875 29.828125 
Q 18.359375 34.515625 30.609375 34.515625 
L 43.21875 34.515625 
L 43.21875 35.40625 
Q 43.21875 41.609375 39.140625 45 
Q 35.0625 48.390625 27.6875 48.390625 
Q 23 48.390625 18.546875 47.265625 
Q 14.109375 46.140625 10.015625 43.890625 
L 10.015625 52.203125 
Q 14.9375 54.109375 19.578125 55.046875 
Q 24.21875 56 28.609375 56 
Q 40.484375 56 46.34375 49.84375 
Q 52.203125 43.703125 52.203125 31.203125 
z
" id="DejaVuSans-61"/>
      <path d="M 9.421875 75.984375 
L 18.40625 75.984375 
L 18.40625 0 
L 9.421875 0 
z
" id="DejaVuSans-6c"/>
     </defs>
     <g transform="translate(22.396875 204.811)rotate(-90)scale(0.2 -0.2)">
      <use xlink:href="#DejaVuSans-53"/>
      <use x="63.476562" xlink:href="#DejaVuSans-75"/>
      <use x="126.855469" xlink:href="#DejaVuSans-72"/>
      <use x="167.96875" xlink:href="#DejaVuSans-76"/>
      <use x="227.148438" xlink:href="#DejaVuSans-69"/>
      <use x="254.931641" xlink:href="#DejaVuSans-76"/>
      <use x="314.111328" xlink:href="#DejaVuSans-61"/>
      <use x="375.390625" xlink:href="#DejaVuSans-6c"/>
     </g>
    </g>
   </g>
   <g id="LineCollection_1">
    <path clip-path="url(#p28badead61)" d="M 77.643665 297.54825 
L 77.643665 296.551576 
" style="fill:none;stroke:#1f77b4;stroke-width:1.5;"/>
    <path clip-path="url(#p28badead61)" d="M 83.054574 286.098912 
L 83.054574 278.668647 
" style="fill:none;stroke:#1f77b4;stroke-width:1.5;"/>
    <path clip-path="url(#p28badead61)" d="M 88.465483 234.936522 
L 88.465483 220.673762 
" style="fill:none;stroke:#1f77b4;stroke-width:1.5;"/>
    <path clip-path="url(#p28badead61)" d="M 93.876392 157.639152 
L 93.876392 140.682237 
" style="fill:none;stroke:#1f77b4;stroke-width:1.5;"/>
    <path clip-path="url(#p28badead61)" d="M 99.287301 107.752617 
L 99.287301 93.576681 
" style="fill:none;stroke:#1f77b4;stroke-width:1.5;"/>
    <path clip-path="url(#p28badead61)" d="M 104.69821 76.576299 
L 104.69821 65.03346 
" style="fill:none;stroke:#1f77b4;stroke-width:1.5;"/>
    <path clip-path="url(#p28badead61)" d="M 110.109119 79.704793 
L 110.109119 68.056481 
" style="fill:none;stroke:#1f77b4;stroke-width:1.5;"/>
    <path clip-path="url(#p28badead61)" d="M 115.520028 74.029294 
L 115.520028 62.706993 
" style="fill:none;stroke:#1f77b4;stroke-width:1.5;"/>
    <path clip-path="url(#p28badead61)" d="M 120.930938 94.289065 
L 120.930938 80.685734 
" style="fill:none;stroke:#1f77b4;stroke-width:1.5;"/>
    <path clip-path="url(#p28badead61)" d="M 126.341847 101.397955 
L 126.341847 87.682074 
" style="fill:none;stroke:#1f77b4;stroke-width:1.5;"/>
    <path clip-path="url(#p28badead61)" d="M 131.752756 122.163458 
L 131.752756 106.901593 
" style="fill:none;stroke:#1f77b4;stroke-width:1.5;"/>
    <path clip-path="url(#p28badead61)" d="M 137.163665 108.66749 
L 137.163665 93.751547 
" style="fill:none;stroke:#1f77b4;stroke-width:1.5;"/>
    <path clip-path="url(#p28badead61)" d="M 142.574574 142.128045 
L 142.574574 126.001385 
" style="fill:none;stroke:#1f77b4;stroke-width:1.5;"/>
    <path clip-path="url(#p28badead61)" d="M 147.985483 142.116113 
L 147.985483 126.432695 
" style="fill:none;stroke:#1f77b4;stroke-width:1.5;"/>
    <path clip-path="url(#p28badead61)" d="M 153.396392 150.863993 
L 153.396392 134.91413 
" style="fill:none;stroke:#1f77b4;stroke-width:1.5;"/>
    <path clip-path="url(#p28badead61)" d="M 158.807301 149.589419 
L 158.807301 133.54807 
" style="fill:none;stroke:#1f77b4;stroke-width:1.5;"/>
    <path clip-path="url(#p28badead61)" d="M 164.21821 151.081384 
L 164.21821 135.438435 
" style="fill:none;stroke:#1f77b4;stroke-width:1.5;"/>
    <path clip-path="url(#p28badead61)" d="M 169.629119 175.467521 
L 169.629119 159.365595 
" style="fill:none;stroke:#1f77b4;stroke-width:1.5;"/>
    <path clip-path="url(#p28badead61)" d="M 175.040028 169.119548 
L 175.040028 153.16429 
" style="fill:none;stroke:#1f77b4;stroke-width:1.5;"/>
    <path clip-path="url(#p28badead61)" d="M 180.450938 185.181107 
L 180.450938 168.654319 
" style="fill:none;stroke:#1f77b4;stroke-width:1.5;"/>
    <path clip-path="url(#p28badead61)" d="M 185.861847 200.318947 
L 185.861847 184.148364 
" style="fill:none;stroke:#1f77b4;stroke-width:1.5;"/>
    <path clip-path="url(#p28badead61)" d="M 191.272756 221.78599 
L 191.272756 206.478756 
" style="fill:none;stroke:#1f77b4;stroke-width:1.5;"/>
    <path clip-path="url(#p28badead61)" d="M 196.683665 230.904779 
L 196.683665 216.460427 
" style="fill:none;stroke:#1f77b4;stroke-width:1.5;"/>
    <path clip-path="url(#p28badead61)" d="M 202.094574 241.145453 
L 202.094574 226.773023 
" style="fill:none;stroke:#1f77b4;stroke-width:1.5;"/>
    <path clip-path="url(#p28badead61)" d="M 207.505483 251.766118 
L 207.505483 238.713832 
" style="fill:none;stroke:#1f77b4;stroke-width:1.5;"/>
    <path clip-path="url(#p28badead61)" d="M 212.916392 265.228945 
L 212.916392 253.373822 
" style="fill:none;stroke:#1f77b4;stroke-width:1.5;"/>
    <path clip-path="url(#p28badead61)" d="M 218.327301 276.824035 
L 218.327301 267.250991 
" style="fill:none;stroke:#1f77b4;stroke-width:1.5;"/>
    <path clip-path="url(#p28badead61)" d="M 223.73821 279.829379 
L 223.73821 270.915121 
" style="fill:none;stroke:#1f77b4;stroke-width:1.5;"/>
    <path clip-path="url(#p28badead61)" d="M 229.149119 275.300548 
L 229.149119 265.071306 
" style="fill:none;stroke:#1f77b4;stroke-width:1.5;"/>
    <path clip-path="url(#p28badead61)" d="M 234.560028 272.977596 
L 234.560028 263.087016 
" style="fill:none;stroke:#1f77b4;stroke-width:1.5;"/>
    <path clip-path="url(#p28badead61)" d="M 239.970938 285.187061 
L 239.970938 277.504657 
" style="fill:none;stroke:#1f77b4;stroke-width:1.5;"/>
    <path clip-path="url(#p28badead61)" d="M 245.381847 275.90731 
L 245.381847 266.166875 
" style="fill:none;stroke:#1f77b4;stroke-width:1.5;"/>
    <path clip-path="url(#p28badead61)" d="M 250.792756 277.001835 
L 250.792756 267.723465 
" style="fill:none;stroke:#1f77b4;stroke-width:1.5;"/>
    <path clip-path="url(#p28badead61)" d="M 256.203665 273.90876 
L 256.203665 263.565063 
" style="fill:none;stroke:#1f77b4;stroke-width:1.5;"/>
    <path clip-path="url(#p28badead61)" d="M 261.614574 267.589541 
L 261.614574 256.337471 
" style="fill:none;stroke:#1f77b4;stroke-width:1.5;"/>
    <path clip-path="url(#p28badead61)" d="M 267.025483 266.434114 
L 267.025483 255.666386 
" style="fill:none;stroke:#1f77b4;stroke-width:1.5;"/>
    <path clip-path="url(#p28badead61)" d="M 272.436392 266.006733 
L 272.436392 254.410115 
" style="fill:none;stroke:#1f77b4;stroke-width:1.5;"/>
    <path clip-path="url(#p28badead61)" d="M 277.847301 260.998887 
L 277.847301 249.061823 
" style="fill:none;stroke:#1f77b4;stroke-width:1.5;"/>
    <path clip-path="url(#p28badead61)" d="M 283.25821 254.799052 
L 283.25821 241.929199 
" style="fill:none;stroke:#1f77b4;stroke-width:1.5;"/>
    <path clip-path="url(#p28badead61)" d="M 288.669119 257.370625 
L 288.669119 245.035178 
" style="fill:none;stroke:#1f77b4;stroke-width:1.5;"/>
    <path clip-path="url(#p28badead61)" d="M 294.080028 267.105641 
L 294.080028 255.876538 
" style="fill:none;stroke:#1f77b4;stroke-width:1.5;"/>
   </g>
   <g id="LineCollection_2">
    <path clip-path="url(#p28badead61)" d="M 77.643665 297.54825 
L 77.643665 296.587557 
" style="fill:none;stroke:#ff7f0e;stroke-width:1.5;"/>
    <path clip-path="url(#p28badead61)" d="M 83.054574 289.391968 
L 83.054574 282.866562 
" style="fill:none;stroke:#ff7f0e;stroke-width:1.5;"/>
    <path clip-path="url(#p28badead61)" d="M 88.465483 270.671823 
L 88.465483 260.12252 
" style="fill:none;stroke:#ff7f0e;stroke-width:1.5;"/>
    <path clip-path="url(#p28badead61)" d="M 93.876392 237.621561 
L 93.876392 223.410939 
" style="fill:none;stroke:#ff7f0e;stroke-width:1.5;"/>
    <path clip-path="url(#p28badead61)" d="M 99.287301 201.215387 
L 99.287301 185.225113 
" style="fill:none;stroke:#ff7f0e;stroke-width:1.5;"/>
    <path clip-path="url(#p28badead61)" d="M 104.69821 156.539148 
L 104.69821 139.967116 
" style="fill:none;stroke:#ff7f0e;stroke-width:1.5;"/>
    <path clip-path="url(#p28badead61)" d="M 110.109119 136.206095 
L 110.109119 120.476277 
" style="fill:none;stroke:#ff7f0e;stroke-width:1.5;"/>
    <path clip-path="url(#p28badead61)" d="M 115.520028 133.448662 
L 115.520028 116.937357 
" style="fill:none;stroke:#ff7f0e;stroke-width:1.5;"/>
    <path clip-path="url(#p28badead61)" d="M 120.930938 95.759919 
L 120.930938 82.427781 
" style="fill:none;stroke:#ff7f0e;stroke-width:1.5;"/>
    <path clip-path="url(#p28badead61)" d="M 126.341847 86.658593 
L 126.341847 73.989907 
" style="fill:none;stroke:#ff7f0e;stroke-width:1.5;"/>
    <path clip-path="url(#p28badead61)" d="M 131.752756 67.680485 
L 131.752756 56.852112 
" style="fill:none;stroke:#ff7f0e;stroke-width:1.5;"/>
    <path clip-path="url(#p28badead61)" d="M 137.163665 79.226084 
L 137.163665 67.193207 
" style="fill:none;stroke:#ff7f0e;stroke-width:1.5;"/>
    <path clip-path="url(#p28badead61)" d="M 142.574574 77.633159 
L 142.574574 65.969948 
" style="fill:none;stroke:#ff7f0e;stroke-width:1.5;"/>
    <path clip-path="url(#p28badead61)" d="M 147.985483 77.125507 
L 147.985483 65.580593 
" style="fill:none;stroke:#ff7f0e;stroke-width:1.5;"/>
    <path clip-path="url(#p28badead61)" d="M 153.396392 84.267799 
L 153.396392 71.743901 
" style="fill:none;stroke:#ff7f0e;stroke-width:1.5;"/>
    <path clip-path="url(#p28badead61)" d="M 158.807301 97.331417 
L 158.807301 83.921789 
" style="fill:none;stroke:#ff7f0e;stroke-width:1.5;"/>
    <path clip-path="url(#p28badead61)" d="M 164.21821 81.781705 
L 164.21821 69.794795 
" style="fill:none;stroke:#ff7f0e;stroke-width:1.5;"/>
    <path clip-path="url(#p28badead61)" d="M 169.629119 92.312441 
L 169.629119 79.197543 
" style="fill:none;stroke:#ff7f0e;stroke-width:1.5;"/>
    <path clip-path="url(#p28badead61)" d="M 175.040028 93.658472 
L 175.040028 79.82025 
" style="fill:none;stroke:#ff7f0e;stroke-width:1.5;"/>
    <path clip-path="url(#p28badead61)" d="M 180.450938 89.16074 
L 180.450938 76.438819 
" style="fill:none;stroke:#ff7f0e;stroke-width:1.5;"/>
    <path clip-path="url(#p28badead61)" d="M 185.861847 103.514566 
L 185.861847 89.343411 
" style="fill:none;stroke:#ff7f0e;stroke-width:1.5;"/>
    <path clip-path="url(#p28badead61)" d="M 191.272756 126.82646 
L 191.272756 111.87004 
" style="fill:none;stroke:#ff7f0e;stroke-width:1.5;"/>
    <path clip-path="url(#p28badead61)" d="M 196.683665 129.9981 
L 196.683665 114.585206 
" style="fill:none;stroke:#ff7f0e;stroke-width:1.5;"/>
    <path clip-path="url(#p28badead61)" d="M 202.094574 151.917542 
L 202.094574 135.738958 
" style="fill:none;stroke:#ff7f0e;stroke-width:1.5;"/>
    <path clip-path="url(#p28badead61)" d="M 207.505483 152.903182 
L 207.505483 136.425412 
" style="fill:none;stroke:#ff7f0e;stroke-width:1.5;"/>
    <path clip-path="url(#p28badead61)" d="M 212.916392 160.982793 
L 212.916392 145.110352 
" style="fill:none;stroke:#ff7f0e;stroke-width:1.5;"/>
    <path clip-path="url(#p28badead61)" d="M 218.327301 190.505927 
L 218.327301 174.723218 
" style="fill:none;stroke:#ff7f0e;stroke-width:1.5;"/>
    <path clip-path="url(#p28badead61)" d="M 223.73821 193.814834 
L 223.73821 177.458782 
" style="fill:none;stroke:#ff7f0e;stroke-width:1.5;"/>
    <path clip-path="url(#p28badead61)" d="M 229.149119 215.138667 
L 229.149119 199.455508 
" style="fill:none;stroke:#ff7f0e;stroke-width:1.5;"/>
    <path clip-path="url(#p28badead61)" d="M 234.560028 202.440426 
L 234.560028 186.665674 
" style="fill:none;stroke:#ff7f0e;stroke-width:1.5;"/>
    <path clip-path="url(#p28badead61)" d="M 239.970938 231.054926 
L 239.970938 216.424729 
" style="fill:none;stroke:#ff7f0e;stroke-width:1.5;"/>
    <path clip-path="url(#p28badead61)" d="M 245.381847 223.180503 
L 245.381847 208.378077 
" style="fill:none;stroke:#ff7f0e;stroke-width:1.5;"/>
    <path clip-path="url(#p28badead61)" d="M 250.792756 225.787628 
L 250.792756 210.483133 
" style="fill:none;stroke:#ff7f0e;stroke-width:1.5;"/>
    <path clip-path="url(#p28badead61)" d="M 256.203665 230.340199 
L 256.203665 215.693564 
" style="fill:none;stroke:#ff7f0e;stroke-width:1.5;"/>
    <path clip-path="url(#p28badead61)" d="M 261.614574 231.689512 
L 261.614574 216.837488 
" style="fill:none;stroke:#ff7f0e;stroke-width:1.5;"/>
    <path clip-path="url(#p28badead61)" d="M 267.025483 216.343403 
L 267.025483 201.014112 
" style="fill:none;stroke:#ff7f0e;stroke-width:1.5;"/>
    <path clip-path="url(#p28badead61)" d="M 272.436392 220.354079 
L 272.436392 204.726421 
" style="fill:none;stroke:#ff7f0e;stroke-width:1.5;"/>
    <path clip-path="url(#p28badead61)" d="M 277.847301 204.195778 
L 277.847301 188.292722 
" style="fill:none;stroke:#ff7f0e;stroke-width:1.5;"/>
    <path clip-path="url(#p28badead61)" d="M 283.25821 204.929838 
L 283.25821 188.401416 
" style="fill:none;stroke:#ff7f0e;stroke-width:1.5;"/>
    <path clip-path="url(#p28badead61)" d="M 288.669119 211.131837 
L 288.669119 195.468663 
" style="fill:none;stroke:#ff7f0e;stroke-width:1.5;"/>
    <path clip-path="url(#p28badead61)" d="M 294.080028 185.302924 
L 294.080028 169.212617 
" style="fill:none;stroke:#ff7f0e;stroke-width:1.5;"/>
   </g>
   <g id="LineCollection_3">
    <path clip-path="url(#p28badead61)" d="M 77.643665 297.54825 
L 77.643665 296.536417 
" style="fill:none;stroke:#2ca02c;stroke-width:1.5;"/>
    <path clip-path="url(#p28badead61)" d="M 85.760028 285.733015 
L 85.760028 277.735419 
" style="fill:none;stroke:#2ca02c;stroke-width:1.5;"/>
    <path clip-path="url(#p28badead61)" d="M 93.876392 280.524965 
L 93.876392 271.147401 
" style="fill:none;stroke:#2ca02c;stroke-width:1.5;"/>
    <path clip-path="url(#p28badead61)" d="M 101.992756 287.670379 
L 101.992756 280.61633 
" style="fill:none;stroke:#2ca02c;stroke-width:1.5;"/>
    <path clip-path="url(#p28badead61)" d="M 110.109119 277.010389 
L 110.109119 267.036054 
" style="fill:none;stroke:#2ca02c;stroke-width:1.5;"/>
    <path clip-path="url(#p28badead61)" d="M 118.225483 265.492437 
L 118.225483 253.724738 
" style="fill:none;stroke:#2ca02c;stroke-width:1.5;"/>
    <path clip-path="url(#p28badead61)" d="M 126.341847 251.267188 
L 126.341847 238.370112 
" style="fill:none;stroke:#2ca02c;stroke-width:1.5;"/>
    <path clip-path="url(#p28badead61)" d="M 134.45821 240.27632 
L 134.45821 226.58505 
" style="fill:none;stroke:#2ca02c;stroke-width:1.5;"/>
    <path clip-path="url(#p28badead61)" d="M 142.574574 226.302273 
L 142.574574 211.50126 
" style="fill:none;stroke:#2ca02c;stroke-width:1.5;"/>
    <path clip-path="url(#p28badead61)" d="M 150.690938 222.733447 
L 150.690938 207.767853 
" style="fill:none;stroke:#2ca02c;stroke-width:1.5;"/>
    <path clip-path="url(#p28badead61)" d="M 158.807301 207.387796 
L 158.807301 190.873794 
" style="fill:none;stroke:#2ca02c;stroke-width:1.5;"/>
    <path clip-path="url(#p28badead61)" d="M 166.923665 205.20792 
L 166.923665 188.989797 
" style="fill:none;stroke:#2ca02c;stroke-width:1.5;"/>
    <path clip-path="url(#p28badead61)" d="M 175.040028 183.350722 
L 175.040028 166.963366 
" style="fill:none;stroke:#2ca02c;stroke-width:1.5;"/>
    <path clip-path="url(#p28badead61)" d="M 183.156392 178.2213 
L 183.156392 160.911539 
" style="fill:none;stroke:#2ca02c;stroke-width:1.5;"/>
    <path clip-path="url(#p28badead61)" d="M 191.272756 158.956665 
L 191.272756 142.604079 
" style="fill:none;stroke:#2ca02c;stroke-width:1.5;"/>
    <path clip-path="url(#p28badead61)" d="M 199.389119 158.234351 
L 199.389119 141.30333 
" style="fill:none;stroke:#2ca02c;stroke-width:1.5;"/>
    <path clip-path="url(#p28badead61)" d="M 207.505483 171.248427 
L 207.505483 154.617573 
" style="fill:none;stroke:#2ca02c;stroke-width:1.5;"/>
    <path clip-path="url(#p28badead61)" d="M 215.621847 157.354682 
L 215.621847 140.190426 
" style="fill:none;stroke:#2ca02c;stroke-width:1.5;"/>
    <path clip-path="url(#p28badead61)" d="M 223.73821 154.78943 
L 223.73821 138.148027 
" style="fill:none;stroke:#2ca02c;stroke-width:1.5;"/>
    <path clip-path="url(#p28badead61)" d="M 231.854574 171.331145 
L 231.854574 154.434258 
" style="fill:none;stroke:#2ca02c;stroke-width:1.5;"/>
    <path clip-path="url(#p28badead61)" d="M 239.970938 174.281465 
L 239.970938 158.464335 
" style="fill:none;stroke:#2ca02c;stroke-width:1.5;"/>
    <path clip-path="url(#p28badead61)" d="M 248.087301 186.543514 
L 248.087301 170.347862 
" style="fill:none;stroke:#2ca02c;stroke-width:1.5;"/>
    <path clip-path="url(#p28badead61)" d="M 256.203665 182.684377 
L 256.203665 166.384047 
" style="fill:none;stroke:#2ca02c;stroke-width:1.5;"/>
    <path clip-path="url(#p28badead61)" d="M 264.320028 192.937412 
L 264.320028 176.33496 
" style="fill:none;stroke:#2ca02c;stroke-width:1.5;"/>
    <path clip-path="url(#p28badead61)" d="M 272.436392 200.811381 
L 272.436392 184.526248 
" style="fill:none;stroke:#2ca02c;stroke-width:1.5;"/>
    <path clip-path="url(#p28badead61)" d="M 280.552756 205.545741 
L 280.552756 189.71571 
" style="fill:none;stroke:#2ca02c;stroke-width:1.5;"/>
    <path clip-path="url(#p28badead61)" d="M 288.669119 219.004501 
L 288.669119 203.27823 
" style="fill:none;stroke:#2ca02c;stroke-width:1.5;"/>
    <path clip-path="url(#p28badead61)" d="M 296.785483 219.255491 
L 296.785483 204.059755 
" style="fill:none;stroke:#2ca02c;stroke-width:1.5;"/>
    <path clip-path="url(#p28badead61)" d="M 304.901847 224.356237 
L 304.901847 209.244813 
" style="fill:none;stroke:#2ca02c;stroke-width:1.5;"/>
    <path clip-path="url(#p28badead61)" d="M 313.01821 223.018282 
L 313.01821 207.591666 
" style="fill:none;stroke:#2ca02c;stroke-width:1.5;"/>
    <path clip-path="url(#p28badead61)" d="M 321.134574 232.164226 
L 321.134574 218.038551 
" style="fill:none;stroke:#2ca02c;stroke-width:1.5;"/>
    <path clip-path="url(#p28badead61)" d="M 329.250938 218.817811 
L 329.250938 203.744536 
" style="fill:none;stroke:#2ca02c;stroke-width:1.5;"/>
    <path clip-path="url(#p28badead61)" d="M 337.367301 239.418853 
L 337.367301 225.889689 
" style="fill:none;stroke:#2ca02c;stroke-width:1.5;"/>
    <path clip-path="url(#p28badead61)" d="M 345.483665 250.060427 
L 345.483665 236.734677 
" style="fill:none;stroke:#2ca02c;stroke-width:1.5;"/>
    <path clip-path="url(#p28badead61)" d="M 353.600028 247.126997 
L 353.600028 233.921503 
" style="fill:none;stroke:#2ca02c;stroke-width:1.5;"/>
    <path clip-path="url(#p28badead61)" d="M 361.716392 254.203949 
L 361.716392 241.477125 
" style="fill:none;stroke:#2ca02c;stroke-width:1.5;"/>
    <path clip-path="url(#p28badead61)" d="M 369.832756 247.112804 
L 369.832756 233.646601 
" style="fill:none;stroke:#2ca02c;stroke-width:1.5;"/>
    <path clip-path="url(#p28badead61)" d="M 377.949119 242.749073 
L 377.949119 228.449127 
" style="fill:none;stroke:#2ca02c;stroke-width:1.5;"/>
    <path clip-path="url(#p28badead61)" d="M 386.065483 244.765124 
L 386.065483 231.531376 
" style="fill:none;stroke:#2ca02c;stroke-width:1.5;"/>
    <path clip-path="url(#p28badead61)" d="M 394.181847 247.112804 
L 394.181847 233.646601 
" style="fill:none;stroke:#2ca02c;stroke-width:1.5;"/>
    <path clip-path="url(#p28badead61)" d="M 402.29821 244.712017 
L 402.29821 230.841983 
" style="fill:none;stroke:#2ca02c;stroke-width:1.5;"/>
   </g>
   <g id="line2d_27">
    <path clip-path="url(#p28badead61)" d="M 77.643665 297.049913 
L 83.054574 282.383779 
L 88.465483 227.805142 
L 93.876392 149.160694 
L 99.287301 100.664649 
L 104.69821 70.804879 
L 110.109119 73.880637 
L 115.520028 68.368144 
L 120.930938 87.4874 
L 126.341847 94.540015 
L 131.752756 114.532526 
L 137.163665 101.209518 
L 142.574574 134.064715 
L 147.985483 134.274404 
L 153.396392 142.889062 
L 158.807301 141.568744 
L 164.21821 143.25991 
L 169.629119 167.416558 
L 175.040028 161.141919 
L 180.450938 176.917713 
L 185.861847 192.233655 
L 191.272756 214.132373 
L 196.683665 223.682603 
L 202.094574 233.959238 
L 207.505483 245.239975 
L 212.916392 259.301384 
L 218.327301 272.037513 
L 223.73821 275.37225 
L 229.149119 270.185927 
L 234.560028 268.032306 
L 239.970938 281.345859 
L 245.381847 271.037092 
L 250.792756 272.36265 
L 256.203665 268.736911 
L 261.614574 261.963506 
L 267.025483 261.05025 
L 272.436392 260.208424 
L 277.847301 255.030355 
L 283.25821 248.364125 
L 288.669119 251.202902 
L 294.080028 261.49109 
" style="fill:none;stroke:#1f77b4;stroke-linecap:square;stroke-width:1.5;"/>
    <defs>
     <path d="M 0 1.5 
C 0.397805 1.5 0.77937 1.341951 1.06066 1.06066 
C 1.341951 0.77937 1.5 0.397805 1.5 0 
C 1.5 -0.397805 1.341951 -0.77937 1.06066 -1.06066 
C 0.77937 -1.341951 0.397805 -1.5 0 -1.5 
C -0.397805 -1.5 -0.77937 -1.341951 -1.06066 -1.06066 
C -1.341951 -0.77937 -1.5 -0.397805 -1.5 0 
C -1.5 0.397805 -1.341951 0.77937 -1.06066 1.06066 
C -0.77937 1.341951 -0.397805 1.5 0 1.5 
z
" id="mb8bc26594a" style="stroke:#1f77b4;"/>
    </defs>
    <g clip-path="url(#p28badead61)">
     <use style="fill:#1f77b4;stroke:#1f77b4;" x="77.643665" xlink:href="#mb8bc26594a" y="297.049913"/>
     <use style="fill:#1f77b4;stroke:#1f77b4;" x="83.054574" xlink:href="#mb8bc26594a" y="282.383779"/>
     <use style="fill:#1f77b4;stroke:#1f77b4;" x="88.465483" xlink:href="#mb8bc26594a" y="227.805142"/>
     <use style="fill:#1f77b4;stroke:#1f77b4;" x="93.876392" xlink:href="#mb8bc26594a" y="149.160694"/>
     <use style="fill:#1f77b4;stroke:#1f77b4;" x="99.287301" xlink:href="#mb8bc26594a" y="100.664649"/>
     <use style="fill:#1f77b4;stroke:#1f77b4;" x="104.69821" xlink:href="#mb8bc26594a" y="70.804879"/>
     <use style="fill:#1f77b4;stroke:#1f77b4;" x="110.109119" xlink:href="#mb8bc26594a" y="73.880637"/>
     <use style="fill:#1f77b4;stroke:#1f77b4;" x="115.520028" xlink:href="#mb8bc26594a" y="68.368144"/>
     <use style="fill:#1f77b4;stroke:#1f77b4;" x="120.930938" xlink:href="#mb8bc26594a" y="87.4874"/>
     <use style="fill:#1f77b4;stroke:#1f77b4;" x="126.341847" xlink:href="#mb8bc26594a" y="94.540015"/>
     <use style="fill:#1f77b4;stroke:#1f77b4;" x="131.752756" xlink:href="#mb8bc26594a" y="114.532526"/>
     <use style="fill:#1f77b4;stroke:#1f77b4;" x="137.163665" xlink:href="#mb8bc26594a" y="101.209518"/>
     <use style="fill:#1f77b4;stroke:#1f77b4;" x="142.574574" xlink:href="#mb8bc26594a" y="134.064715"/>
     <use style="fill:#1f77b4;stroke:#1f77b4;" x="147.985483" xlink:href="#mb8bc26594a" y="134.274404"/>
     <use style="fill:#1f77b4;stroke:#1f77b4;" x="153.396392" xlink:href="#mb8bc26594a" y="142.889062"/>
     <use style="fill:#1f77b4;stroke:#1f77b4;" x="158.807301" xlink:href="#mb8bc26594a" y="141.568744"/>
     <use style="fill:#1f77b4;stroke:#1f77b4;" x="164.21821" xlink:href="#mb8bc26594a" y="143.25991"/>
     <use style="fill:#1f77b4;stroke:#1f77b4;" x="169.629119" xlink:href="#mb8bc26594a" y="167.416558"/>
     <use style="fill:#1f77b4;stroke:#1f77b4;" x="175.040028" xlink:href="#mb8bc26594a" y="161.141919"/>
     <use style="fill:#1f77b4;stroke:#1f77b4;" x="180.450938" xlink:href="#mb8bc26594a" y="176.917713"/>
     <use style="fill:#1f77b4;stroke:#1f77b4;" x="185.861847" xlink:href="#mb8bc26594a" y="192.233655"/>
     <use style="fill:#1f77b4;stroke:#1f77b4;" x="191.272756" xlink:href="#mb8bc26594a" y="214.132373"/>
     <use style="fill:#1f77b4;stroke:#1f77b4;" x="196.683665" xlink:href="#mb8bc26594a" y="223.682603"/>
     <use style="fill:#1f77b4;stroke:#1f77b4;" x="202.094574" xlink:href="#mb8bc26594a" y="233.959238"/>
     <use style="fill:#1f77b4;stroke:#1f77b4;" x="207.505483" xlink:href="#mb8bc26594a" y="245.239975"/>
     <use style="fill:#1f77b4;stroke:#1f77b4;" x="212.916392" xlink:href="#mb8bc26594a" y="259.301384"/>
     <use style="fill:#1f77b4;stroke:#1f77b4;" x="218.327301" xlink:href="#mb8bc26594a" y="272.037513"/>
     <use style="fill:#1f77b4;stroke:#1f77b4;" x="223.73821" xlink:href="#mb8bc26594a" y="275.37225"/>
     <use style="fill:#1f77b4;stroke:#1f77b4;" x="229.149119" xlink:href="#mb8bc26594a" y="270.185927"/>
     <use style="fill:#1f77b4;stroke:#1f77b4;" x="234.560028" xlink:href="#mb8bc26594a" y="268.032306"/>
     <use style="fill:#1f77b4;stroke:#1f77b4;" x="239.970938" xlink:href="#mb8bc26594a" y="281.345859"/>
     <use style="fill:#1f77b4;stroke:#1f77b4;" x="245.381847" xlink:href="#mb8bc26594a" y="271.037092"/>
     <use style="fill:#1f77b4;stroke:#1f77b4;" x="250.792756" xlink:href="#mb8bc26594a" y="272.36265"/>
     <use style="fill:#1f77b4;stroke:#1f77b4;" x="256.203665" xlink:href="#mb8bc26594a" y="268.736911"/>
     <use style="fill:#1f77b4;stroke:#1f77b4;" x="261.614574" xlink:href="#mb8bc26594a" y="261.963506"/>
     <use style="fill:#1f77b4;stroke:#1f77b4;" x="267.025483" xlink:href="#mb8bc26594a" y="261.05025"/>
     <use style="fill:#1f77b4;stroke:#1f77b4;" x="272.436392" xlink:href="#mb8bc26594a" y="260.208424"/>
     <use style="fill:#1f77b4;stroke:#1f77b4;" x="277.847301" xlink:href="#mb8bc26594a" y="255.030355"/>
     <use style="fill:#1f77b4;stroke:#1f77b4;" x="283.25821" xlink:href="#mb8bc26594a" y="248.364125"/>
     <use style="fill:#1f77b4;stroke:#1f77b4;" x="288.669119" xlink:href="#mb8bc26594a" y="251.202902"/>
     <use style="fill:#1f77b4;stroke:#1f77b4;" x="294.080028" xlink:href="#mb8bc26594a" y="261.49109"/>
    </g>
   </g>
   <g id="line2d_28">
    <path clip-path="url(#p28badead61)" d="M 77.643665 297.067903 
L 83.054574 286.129265 
L 88.465483 265.397172 
L 93.876392 230.51625 
L 99.287301 193.22025 
L 104.69821 148.253132 
L 110.109119 128.341186 
L 115.520028 125.193009 
L 120.930938 89.09385 
L 126.341847 80.32425 
L 131.752756 62.266299 
L 137.163665 73.209645 
L 142.574574 71.801553 
L 147.985483 71.35305 
L 153.396392 78.00585 
L 158.807301 90.626603 
L 164.21821 75.78825 
L 169.629119 85.754992 
L 175.040028 86.739361 
L 180.450938 82.799779 
L 185.861847 96.428988 
L 191.272756 119.34825 
L 196.683665 122.291653 
L 202.094574 143.82825 
L 207.505483 144.664297 
L 212.916392 153.046573 
L 218.327301 182.614573 
L 223.73821 185.636808 
L 229.149119 207.297087 
L 234.560028 194.55305 
L 239.970938 223.739827 
L 245.381847 215.77929 
L 250.792756 218.13538 
L 256.203665 223.016882 
L 261.614574 224.2635 
L 267.025483 208.678757 
L 272.436392 212.54025 
L 277.847301 196.24425 
L 283.25821 196.665627 
L 288.669119 203.30025 
L 294.080028 177.25777 
" style="fill:none;stroke:#ff7f0e;stroke-linecap:square;stroke-width:1.5;"/>
    <defs>
     <path d="M 0 1.5 
C 0.397805 1.5 0.77937 1.341951 1.06066 1.06066 
C 1.341951 0.77937 1.5 0.397805 1.5 0 
C 1.5 -0.397805 1.341951 -0.77937 1.06066 -1.06066 
C 0.77937 -1.341951 0.397805 -1.5 0 -1.5 
C -0.397805 -1.5 -0.77937 -1.341951 -1.06066 -1.06066 
C -1.341951 -0.77937 -1.5 -0.397805 -1.5 0 
C -1.5 0.397805 -1.341951 0.77937 -1.06066 1.06066 
C -0.77937 1.341951 -0.397805 1.5 0 1.5 
z
" id="m3e2fb6b177" style="stroke:#ff7f0e;"/>
    </defs>
    <g clip-path="url(#p28badead61)">
     <use style="fill:#ff7f0e;stroke:#ff7f0e;" x="77.643665" xlink:href="#m3e2fb6b177" y="297.067903"/>
     <use style="fill:#ff7f0e;stroke:#ff7f0e;" x="83.054574" xlink:href="#m3e2fb6b177" y="286.129265"/>
     <use style="fill:#ff7f0e;stroke:#ff7f0e;" x="88.465483" xlink:href="#m3e2fb6b177" y="265.397172"/>
     <use style="fill:#ff7f0e;stroke:#ff7f0e;" x="93.876392" xlink:href="#m3e2fb6b177" y="230.51625"/>
     <use style="fill:#ff7f0e;stroke:#ff7f0e;" x="99.287301" xlink:href="#m3e2fb6b177" y="193.22025"/>
     <use style="fill:#ff7f0e;stroke:#ff7f0e;" x="104.69821" xlink:href="#m3e2fb6b177" y="148.253132"/>
     <use style="fill:#ff7f0e;stroke:#ff7f0e;" x="110.109119" xlink:href="#m3e2fb6b177" y="128.341186"/>
     <use style="fill:#ff7f0e;stroke:#ff7f0e;" x="115.520028" xlink:href="#m3e2fb6b177" y="125.193009"/>
     <use style="fill:#ff7f0e;stroke:#ff7f0e;" x="120.930938" xlink:href="#m3e2fb6b177" y="89.09385"/>
     <use style="fill:#ff7f0e;stroke:#ff7f0e;" x="126.341847" xlink:href="#m3e2fb6b177" y="80.32425"/>
     <use style="fill:#ff7f0e;stroke:#ff7f0e;" x="131.752756" xlink:href="#m3e2fb6b177" y="62.266299"/>
     <use style="fill:#ff7f0e;stroke:#ff7f0e;" x="137.163665" xlink:href="#m3e2fb6b177" y="73.209645"/>
     <use style="fill:#ff7f0e;stroke:#ff7f0e;" x="142.574574" xlink:href="#m3e2fb6b177" y="71.801553"/>
     <use style="fill:#ff7f0e;stroke:#ff7f0e;" x="147.985483" xlink:href="#m3e2fb6b177" y="71.35305"/>
     <use style="fill:#ff7f0e;stroke:#ff7f0e;" x="153.396392" xlink:href="#m3e2fb6b177" y="78.00585"/>
     <use style="fill:#ff7f0e;stroke:#ff7f0e;" x="158.807301" xlink:href="#m3e2fb6b177" y="90.626603"/>
     <use style="fill:#ff7f0e;stroke:#ff7f0e;" x="164.21821" xlink:href="#m3e2fb6b177" y="75.78825"/>
     <use style="fill:#ff7f0e;stroke:#ff7f0e;" x="169.629119" xlink:href="#m3e2fb6b177" y="85.754992"/>
     <use style="fill:#ff7f0e;stroke:#ff7f0e;" x="175.040028" xlink:href="#m3e2fb6b177" y="86.739361"/>
     <use style="fill:#ff7f0e;stroke:#ff7f0e;" x="180.450938" xlink:href="#m3e2fb6b177" y="82.799779"/>
     <use style="fill:#ff7f0e;stroke:#ff7f0e;" x="185.861847" xlink:href="#m3e2fb6b177" y="96.428988"/>
     <use style="fill:#ff7f0e;stroke:#ff7f0e;" x="191.272756" xlink:href="#m3e2fb6b177" y="119.34825"/>
     <use style="fill:#ff7f0e;stroke:#ff7f0e;" x="196.683665" xlink:href="#m3e2fb6b177" y="122.291653"/>
     <use style="fill:#ff7f0e;stroke:#ff7f0e;" x="202.094574" xlink:href="#m3e2fb6b177" y="143.82825"/>
     <use style="fill:#ff7f0e;stroke:#ff7f0e;" x="207.505483" xlink:href="#m3e2fb6b177" y="144.664297"/>
     <use style="fill:#ff7f0e;stroke:#ff7f0e;" x="212.916392" xlink:href="#m3e2fb6b177" y="153.046573"/>
     <use style="fill:#ff7f0e;stroke:#ff7f0e;" x="218.327301" xlink:href="#m3e2fb6b177" y="182.614573"/>
     <use style="fill:#ff7f0e;stroke:#ff7f0e;" x="223.73821" xlink:href="#m3e2fb6b177" y="185.636808"/>
     <use style="fill:#ff7f0e;stroke:#ff7f0e;" x="229.149119" xlink:href="#m3e2fb6b177" y="207.297087"/>
     <use style="fill:#ff7f0e;stroke:#ff7f0e;" x="234.560028" xlink:href="#m3e2fb6b177" y="194.55305"/>
     <use style="fill:#ff7f0e;stroke:#ff7f0e;" x="239.970938" xlink:href="#m3e2fb6b177" y="223.739827"/>
     <use style="fill:#ff7f0e;stroke:#ff7f0e;" x="245.381847" xlink:href="#m3e2fb6b177" y="215.77929"/>
     <use style="fill:#ff7f0e;stroke:#ff7f0e;" x="250.792756" xlink:href="#m3e2fb6b177" y="218.13538"/>
     <use style="fill:#ff7f0e;stroke:#ff7f0e;" x="256.203665" xlink:href="#m3e2fb6b177" y="223.016882"/>
     <use style="fill:#ff7f0e;stroke:#ff7f0e;" x="261.614574" xlink:href="#m3e2fb6b177" y="224.2635"/>
     <use style="fill:#ff7f0e;stroke:#ff7f0e;" x="267.025483" xlink:href="#m3e2fb6b177" y="208.678757"/>
     <use style="fill:#ff7f0e;stroke:#ff7f0e;" x="272.436392" xlink:href="#m3e2fb6b177" y="212.54025"/>
     <use style="fill:#ff7f0e;stroke:#ff7f0e;" x="277.847301" xlink:href="#m3e2fb6b177" y="196.24425"/>
     <use style="fill:#ff7f0e;stroke:#ff7f0e;" x="283.25821" xlink:href="#m3e2fb6b177" y="196.665627"/>
     <use style="fill:#ff7f0e;stroke:#ff7f0e;" x="288.669119" xlink:href="#m3e2fb6b177" y="203.30025"/>
     <use style="fill:#ff7f0e;stroke:#ff7f0e;" x="294.080028" xlink:href="#m3e2fb6b177" y="177.25777"/>
    </g>
   </g>
   <g id="line2d_29">
    <path clip-path="url(#p28badead61)" d="M 77.643665 297.042334 
L 85.760028 281.734217 
L 93.876392 275.836183 
L 101.992756 284.143354 
L 110.109119 272.023221 
L 118.225483 259.608587 
L 126.341847 244.81865 
L 134.45821 233.430685 
L 142.574574 218.901767 
L 150.690938 215.25065 
L 158.807301 199.130795 
L 166.923665 197.098859 
L 175.040028 175.157044 
L 183.156392 169.566419 
L 191.272756 150.780372 
L 199.389119 149.76884 
L 207.505483 162.933 
L 215.621847 148.772554 
L 223.73821 146.468728 
L 231.854574 162.882702 
L 239.970938 166.3729 
L 248.087301 178.445688 
L 256.203665 174.534212 
L 264.320028 184.636186 
L 272.436392 192.668815 
L 280.552756 197.630725 
L 288.669119 211.141366 
L 296.785483 211.657623 
L 304.901847 216.800525 
L 313.01821 215.304974 
L 321.134574 225.101389 
L 329.250938 211.281173 
L 337.367301 232.654271 
L 345.483665 243.397552 
L 353.600028 240.52425 
L 361.716392 247.840537 
L 369.832756 240.379702 
L 377.949119 235.5991 
L 386.065483 238.14825 
L 394.181847 240.379702 
L 402.29821 237.777 
" style="fill:none;stroke:#2ca02c;stroke-linecap:square;stroke-width:1.5;"/>
    <defs>
     <path d="M 0 1.5 
C 0.397805 1.5 0.77937 1.341951 1.06066 1.06066 
C 1.341951 0.77937 1.5 0.397805 1.5 0 
C 1.5 -0.397805 1.341951 -0.77937 1.06066 -1.06066 
C 0.77937 -1.341951 0.397805 -1.5 0 -1.5 
C -0.397805 -1.5 -0.77937 -1.341951 -1.06066 -1.06066 
C -1.341951 -0.77937 -1.5 -0.397805 -1.5 0 
C -1.5 0.397805 -1.341951 0.77937 -1.06066 1.06066 
C -0.77937 1.341951 -0.397805 1.5 0 1.5 
z
" id="m92edfcde95" style="stroke:#2ca02c;"/>
    </defs>
    <g clip-path="url(#p28badead61)">
     <use style="fill:#2ca02c;stroke:#2ca02c;" x="77.643665" xlink:href="#m92edfcde95" y="297.042334"/>
     <use style="fill:#2ca02c;stroke:#2ca02c;" x="85.760028" xlink:href="#m92edfcde95" y="281.734217"/>
     <use style="fill:#2ca02c;stroke:#2ca02c;" x="93.876392" xlink:href="#m92edfcde95" y="275.836183"/>
     <use style="fill:#2ca02c;stroke:#2ca02c;" x="101.992756" xlink:href="#m92edfcde95" y="284.143354"/>
     <use style="fill:#2ca02c;stroke:#2ca02c;" x="110.109119" xlink:href="#m92edfcde95" y="272.023221"/>
     <use style="fill:#2ca02c;stroke:#2ca02c;" x="118.225483" xlink:href="#m92edfcde95" y="259.608587"/>
     <use style="fill:#2ca02c;stroke:#2ca02c;" x="126.341847" xlink:href="#m92edfcde95" y="244.81865"/>
     <use style="fill:#2ca02c;stroke:#2ca02c;" x="134.45821" xlink:href="#m92edfcde95" y="233.430685"/>
     <use style="fill:#2ca02c;stroke:#2ca02c;" x="142.574574" xlink:href="#m92edfcde95" y="218.901767"/>
     <use style="fill:#2ca02c;stroke:#2ca02c;" x="150.690938" xlink:href="#m92edfcde95" y="215.25065"/>
     <use style="fill:#2ca02c;stroke:#2ca02c;" x="158.807301" xlink:href="#m92edfcde95" y="199.130795"/>
     <use style="fill:#2ca02c;stroke:#2ca02c;" x="166.923665" xlink:href="#m92edfcde95" y="197.098859"/>
     <use style="fill:#2ca02c;stroke:#2ca02c;" x="175.040028" xlink:href="#m92edfcde95" y="175.157044"/>
     <use style="fill:#2ca02c;stroke:#2ca02c;" x="183.156392" xlink:href="#m92edfcde95" y="169.566419"/>
     <use style="fill:#2ca02c;stroke:#2ca02c;" x="191.272756" xlink:href="#m92edfcde95" y="150.780372"/>
     <use style="fill:#2ca02c;stroke:#2ca02c;" x="199.389119" xlink:href="#m92edfcde95" y="149.76884"/>
     <use style="fill:#2ca02c;stroke:#2ca02c;" x="207.505483" xlink:href="#m92edfcde95" y="162.933"/>
     <use style="fill:#2ca02c;stroke:#2ca02c;" x="215.621847" xlink:href="#m92edfcde95" y="148.772554"/>
     <use style="fill:#2ca02c;stroke:#2ca02c;" x="223.73821" xlink:href="#m92edfcde95" y="146.468728"/>
     <use style="fill:#2ca02c;stroke:#2ca02c;" x="231.854574" xlink:href="#m92edfcde95" y="162.882702"/>
     <use style="fill:#2ca02c;stroke:#2ca02c;" x="239.970938" xlink:href="#m92edfcde95" y="166.3729"/>
     <use style="fill:#2ca02c;stroke:#2ca02c;" x="248.087301" xlink:href="#m92edfcde95" y="178.445688"/>
     <use style="fill:#2ca02c;stroke:#2ca02c;" x="256.203665" xlink:href="#m92edfcde95" y="174.534212"/>
     <use style="fill:#2ca02c;stroke:#2ca02c;" x="264.320028" xlink:href="#m92edfcde95" y="184.636186"/>
     <use style="fill:#2ca02c;stroke:#2ca02c;" x="272.436392" xlink:href="#m92edfcde95" y="192.668815"/>
     <use style="fill:#2ca02c;stroke:#2ca02c;" x="280.552756" xlink:href="#m92edfcde95" y="197.630725"/>
     <use style="fill:#2ca02c;stroke:#2ca02c;" x="288.669119" xlink:href="#m92edfcde95" y="211.141366"/>
     <use style="fill:#2ca02c;stroke:#2ca02c;" x="296.785483" xlink:href="#m92edfcde95" y="211.657623"/>
     <use style="fill:#2ca02c;stroke:#2ca02c;" x="304.901847" xlink:href="#m92edfcde95" y="216.800525"/>
     <use style="fill:#2ca02c;stroke:#2ca02c;" x="313.01821" xlink:href="#m92edfcde95" y="215.304974"/>
     <use style="fill:#2ca02c;stroke:#2ca02c;" x="321.134574" xlink:href="#m92edfcde95" y="225.101389"/>
     <use style="fill:#2ca02c;stroke:#2ca02c;" x="329.250938" xlink:href="#m92edfcde95" y="211.281173"/>
     <use style="fill:#2ca02c;stroke:#2ca02c;" x="337.367301" xlink:href="#m92edfcde95" y="232.654271"/>
     <use style="fill:#2ca02c;stroke:#2ca02c;" x="345.483665" xlink:href="#m92edfcde95" y="243.397552"/>
     <use style="fill:#2ca02c;stroke:#2ca02c;" x="353.600028" xlink:href="#m92edfcde95" y="240.52425"/>
     <use style="fill:#2ca02c;stroke:#2ca02c;" x="361.716392" xlink:href="#m92edfcde95" y="247.840537"/>
     <use style="fill:#2ca02c;stroke:#2ca02c;" x="369.832756" xlink:href="#m92edfcde95" y="240.379702"/>
     <use style="fill:#2ca02c;stroke:#2ca02c;" x="377.949119" xlink:href="#m92edfcde95" y="235.5991"/>
     <use style="fill:#2ca02c;stroke:#2ca02c;" x="386.065483" xlink:href="#m92edfcde95" y="238.14825"/>
     <use style="fill:#2ca02c;stroke:#2ca02c;" x="394.181847" xlink:href="#m92edfcde95" y="240.379702"/>
     <use style="fill:#2ca02c;stroke:#2ca02c;" x="402.29821" xlink:href="#m92edfcde95" y="237.777"/>
    </g>
   </g>
   <g id="patch_3">
    <path d="M 61.410938 297.54825 
L 61.410938 31.43625 
" style="fill:none;stroke:#000000;stroke-linecap:square;stroke-linejoin:miter;stroke-width:0.8;"/>
   </g>
   <g id="patch_4">
    <path d="M 418.530938 297.54825 
L 418.530938 31.43625 
" style="fill:none;stroke:#000000;stroke-linecap:square;stroke-linejoin:miter;stroke-width:0.8;"/>
   </g>
   <g id="patch_5">
    <path d="M 61.410938 297.54825 
L 418.530938 297.54825 
" style="fill:none;stroke:#000000;stroke-linecap:square;stroke-linejoin:miter;stroke-width:0.8;"/>
   </g>
   <g id="patch_6">
    <path d="M 61.410938 31.43625 
L 418.530938 31.43625 
" style="fill:none;stroke:#000000;stroke-linecap:square;stroke-linejoin:miter;stroke-width:0.8;"/>
   </g>
   <g id="text_16">
    <!-- Cs -->
    <defs>
     <path d="M 64.40625 67.28125 
L 64.40625 56.890625 
Q 59.421875 61.53125 53.78125 63.8125 
Q 48.140625 66.109375 41.796875 66.109375 
Q 29.296875 66.109375 22.65625 58.46875 
Q 16.015625 50.828125 16.015625 36.375 
Q 16.015625 21.96875 22.65625 14.328125 
Q 29.296875 6.6875 41.796875 6.6875 
Q 48.140625 6.6875 53.78125 8.984375 
Q 59.421875 11.28125 64.40625 15.921875 
L 64.40625 5.609375 
Q 59.234375 2.09375 53.4375 0.328125 
Q 47.65625 -1.421875 41.21875 -1.421875 
Q 24.65625 -1.421875 15.125 8.703125 
Q 5.609375 18.84375 5.609375 36.375 
Q 5.609375 53.953125 15.125 64.078125 
Q 24.65625 74.21875 41.21875 74.21875 
Q 47.75 74.21875 53.53125 72.484375 
Q 59.328125 70.75 64.40625 67.28125 
z
" id="DejaVuSans-43"/>
     <path d="M 44.28125 53.078125 
L 44.28125 44.578125 
Q 40.484375 46.53125 36.375 47.5 
Q 32.28125 48.484375 27.875 48.484375 
Q 21.1875 48.484375 17.84375 46.4375 
Q 14.5 44.390625 14.5 40.28125 
Q 14.5 37.15625 16.890625 35.375 
Q 19.28125 33.59375 26.515625 31.984375 
L 29.59375 31.296875 
Q 39.15625 29.25 43.1875 25.515625 
Q 47.21875 21.78125 47.21875 15.09375 
Q 47.21875 7.46875 41.1875 3.015625 
Q 35.15625 -1.421875 24.609375 -1.421875 
Q 20.21875 -1.421875 15.453125 -0.5625 
Q 10.6875 0.296875 5.421875 2 
L 5.421875 11.28125 
Q 10.40625 8.6875 15.234375 7.390625 
Q 20.0625 6.109375 24.8125 6.109375 
Q 31.15625 6.109375 34.5625 8.28125 
Q 37.984375 10.453125 37.984375 14.40625 
Q 37.984375 18.0625 35.515625 20.015625 
Q 33.0625 21.96875 24.703125 23.78125 
L 21.578125 24.515625 
Q 13.234375 26.265625 9.515625 29.90625 
Q 5.8125 33.546875 5.8125 39.890625 
Q 5.8125 47.609375 11.28125 51.796875 
Q 16.75 56 26.8125 56 
Q 31.78125 56 36.171875 55.265625 
Q 40.578125 54.546875 44.28125 53.078125 
z
" id="DejaVuSans-73"/>
    </defs>
    <g transform="translate(225.340313 25.43625)scale(0.24 -0.24)">
     <use xlink:href="#DejaVuSans-43"/>
     <use x="69.824219" xlink:href="#DejaVuSans-73"/>
    </g>
   </g>
   <g id="legend_1">
    <g id="patch_7">
     <path d="M 326.830938 135.505 
L 404.530937 135.505 
Q 408.530937 135.505 408.530937 131.505 
L 408.530937 45.43625 
Q 408.530937 41.43625 404.530937 41.43625 
L 326.830938 41.43625 
Q 322.830938 41.43625 322.830938 45.43625 
L 322.830938 131.505 
Q 322.830938 135.505 326.830938 135.505 
z
" style="fill:#ffffff;opacity:0.8;stroke:#cccccc;stroke-linejoin:miter;"/>
    </g>
    <g id="LineCollection_4">
     <path d="M 350.830938 67.633125 
L 350.830938 47.633125 
" style="fill:none;stroke:#1f77b4;stroke-width:1.5;"/>
    </g>
    <g id="line2d_30">
     <path d="M 330.830938 57.633125 
L 370.830938 57.633125 
" style="fill:none;stroke:#1f77b4;stroke-linecap:square;stroke-width:1.5;"/>
    </g>
    <g id="line2d_31">
     <g>
      <use style="fill:#1f77b4;stroke:#1f77b4;" x="350.830938" xlink:href="#mb8bc26594a" y="57.633125"/>
     </g>
    </g>
    <g id="text_17">
     <!-- X -->
     <defs>
      <path d="M 6.296875 72.90625 
L 16.890625 72.90625 
L 35.015625 45.796875 
L 53.21875 72.90625 
L 63.8125 72.90625 
L 40.375 37.890625 
L 65.375 0 
L 54.78125 0 
L 34.28125 31 
L 13.625 0 
L 2.984375 0 
L 29 38.921875 
z
" id="DejaVuSans-58"/>
     </defs>
     <g transform="translate(386.830938 64.633125)scale(0.2 -0.2)">
      <use xlink:href="#DejaVuSans-58"/>
     </g>
    </g>
    <g id="LineCollection_5">
     <path d="M 350.830938 96.989375 
L 350.830938 76.989375 
" style="fill:none;stroke:#ff7f0e;stroke-width:1.5;"/>
    </g>
    <g id="line2d_32">
     <path d="M 330.830938 86.989375 
L 370.830938 86.989375 
" style="fill:none;stroke:#ff7f0e;stroke-linecap:square;stroke-width:1.5;"/>
    </g>
    <g id="line2d_33">
     <g>
      <use style="fill:#ff7f0e;stroke:#ff7f0e;" x="350.830938" xlink:href="#m3e2fb6b177" y="86.989375"/>
     </g>
    </g>
    <g id="text_18">
     <!-- Y -->
     <defs>
      <path d="M -0.203125 72.90625 
L 10.40625 72.90625 
L 30.609375 42.921875 
L 50.6875 72.90625 
L 61.28125 72.90625 
L 35.5 34.71875 
L 35.5 0 
L 25.59375 0 
L 25.59375 34.71875 
z
" id="DejaVuSans-59"/>
     </defs>
     <g transform="translate(386.830938 93.989375)scale(0.2 -0.2)">
      <use xlink:href="#DejaVuSans-59"/>
     </g>
    </g>
    <g id="LineCollection_6">
     <path d="M 350.830938 126.345625 
L 350.830938 106.345625 
" style="fill:none;stroke:#2ca02c;stroke-width:1.5;"/>
    </g>
    <g id="line2d_34">
     <path d="M 330.830938 116.345625 
L 370.830938 116.345625 
" style="fill:none;stroke:#2ca02c;stroke-linecap:square;stroke-width:1.5;"/>
    </g>
    <g id="line2d_35">
     <g>
      <use style="fill:#2ca02c;stroke:#2ca02c;" x="350.830938" xlink:href="#m92edfcde95" y="116.345625"/>
     </g>
    </g>
    <g id="text_19">
     <!-- Z -->
     <defs>
      <path d="M 5.609375 72.90625 
L 62.890625 72.90625 
L 62.890625 65.375 
L 16.796875 8.296875 
L 64.015625 8.296875 
L 64.015625 0 
L 4.5 0 
L 4.5 7.515625 
L 50.59375 64.59375 
L 5.609375 64.59375 
z
" id="DejaVuSans-5a"/>
     </defs>
     <g transform="translate(386.830938 123.345625)scale(0.2 -0.2)">
      <use xlink:href="#DejaVuSans-5a"/>
     </g>
    </g>
   </g>
  </g>
 </g>
 <defs>
  <clipPath id="p28badead61">
   <rect height="266.112" width="357.12" x="61.410938" y="31.43625"/>
  </clipPath>
 </defs>
</svg>
