<?xml version="1.0" encoding="utf-8" standalone="no"?>
<!DOCTYPE svg PUBLIC "-//W3C//DTD SVG 1.1//EN"
  "http://www.w3.org/Graphics/SVG/1.1/DTD/svg11.dtd">
<!-- Created with matplotlib (http://matplotlib.org/) -->
<svg height="329pt" version="1.1" viewBox="0 0 429 329" width="429pt" xmlns="http://www.w3.org/2000/svg" xmlns:xlink="http://www.w3.org/1999/xlink">
 <defs>
  <style type="text/css">
*{stroke-linecap:butt;stroke-linejoin:round;}
  </style>
 </defs>
 <g id="figure_1">
  <g id="patch_1">
   <path d="M 0 329.899805 
L 429.363486 329.899805 
L 429.363486 0 
L 0 0 
z
" style="fill:none;"/>
  </g>
  <g id="axes_1">
   <g id="patch_2">
    <path d="M 61.410938 277.826367 
L 418.530938 277.826367 
L 418.530938 11.714367 
L 61.410938 11.714367 
z
" style="fill:none;"/>
   </g>
   <g id="matplotlib.axis_1">
    <g id="xtick_1">
     <g id="line2d_1">
      <path clip-path="url(#p5c12b6adc7)" d="M 74.86884 277.826367 
L 74.86884 11.714367 
" style="fill:none;stroke:#b0b0b0;stroke-linecap:square;stroke-width:0.8;"/>
     </g>
     <g id="line2d_2">
      <defs>
       <path d="M 0 0 
L 0 3.5 
" id="m005f0a59be" style="stroke:#000000;stroke-width:0.8;"/>
      </defs>
      <g>
       <use style="stroke:#000000;stroke-width:0.8;" x="74.86884" xlink:href="#m005f0a59be" y="277.826367"/>
      </g>
     </g>
     <g id="text_1">
      <!-- 0 -->
      <defs>
       <path d="M 31.78125 66.40625 
Q 24.171875 66.40625 20.328125 58.90625 
Q 16.5 51.421875 16.5 36.375 
Q 16.5 21.390625 20.328125 13.890625 
Q 24.171875 6.390625 31.78125 6.390625 
Q 39.453125 6.390625 43.28125 13.890625 
Q 47.125 21.390625 47.125 36.375 
Q 47.125 51.421875 43.28125 58.90625 
Q 39.453125 66.40625 31.78125 66.40625 
z
M 31.78125 74.21875 
Q 44.046875 74.21875 50.515625 64.515625 
Q 56.984375 54.828125 56.984375 36.375 
Q 56.984375 17.96875 50.515625 8.265625 
Q 44.046875 -1.421875 31.78125 -1.421875 
Q 19.53125 -1.421875 13.0625 8.265625 
Q 6.59375 17.96875 6.59375 36.375 
Q 6.59375 54.828125 13.0625 64.515625 
Q 19.53125 74.21875 31.78125 74.21875 
z
" id="DejaVuSans-30"/>
      </defs>
      <g transform="translate(70.096965 296.224023)scale(0.15 -0.15)">
       <use xlink:href="#DejaVuSans-30"/>
      </g>
     </g>
    </g>
    <g id="xtick_2">
     <g id="line2d_3">
      <path clip-path="url(#p5c12b6adc7)" d="M 130.365343 277.826367 
L 130.365343 11.714367 
" style="fill:none;stroke:#b0b0b0;stroke-linecap:square;stroke-width:0.8;"/>
     </g>
     <g id="line2d_4">
      <g>
       <use style="stroke:#000000;stroke-width:0.8;" x="130.365343" xlink:href="#m005f0a59be" y="277.826367"/>
      </g>
     </g>
     <g id="text_2">
      <!-- 20 -->
      <defs>
       <path d="M 19.1875 8.296875 
L 53.609375 8.296875 
L 53.609375 0 
L 7.328125 0 
L 7.328125 8.296875 
Q 12.9375 14.109375 22.625 23.890625 
Q 32.328125 33.6875 34.8125 36.53125 
Q 39.546875 41.84375 41.421875 45.53125 
Q 43.3125 49.21875 43.3125 52.78125 
Q 43.3125 58.59375 39.234375 62.25 
Q 35.15625 65.921875 28.609375 65.921875 
Q 23.96875 65.921875 18.8125 64.3125 
Q 13.671875 62.703125 7.8125 59.421875 
L 7.8125 69.390625 
Q 13.765625 71.78125 18.9375 73 
Q 24.125 74.21875 28.421875 74.21875 
Q 39.75 74.21875 46.484375 68.546875 
Q 53.21875 62.890625 53.21875 53.421875 
Q 53.21875 48.921875 51.53125 44.890625 
Q 49.859375 40.875 45.40625 35.40625 
Q 44.1875 33.984375 37.640625 27.21875 
Q 31.109375 20.453125 19.1875 8.296875 
z
" id="DejaVuSans-32"/>
      </defs>
      <g transform="translate(120.821593 296.224023)scale(0.15 -0.15)">
       <use xlink:href="#DejaVuSans-32"/>
       <use x="63.623047" xlink:href="#DejaVuSans-30"/>
      </g>
     </g>
    </g>
    <g id="xtick_3">
     <g id="line2d_5">
      <path clip-path="url(#p5c12b6adc7)" d="M 185.861847 277.826367 
L 185.861847 11.714367 
" style="fill:none;stroke:#b0b0b0;stroke-linecap:square;stroke-width:0.8;"/>
     </g>
     <g id="line2d_6">
      <g>
       <use style="stroke:#000000;stroke-width:0.8;" x="185.861847" xlink:href="#m005f0a59be" y="277.826367"/>
      </g>
     </g>
     <g id="text_3">
      <!-- 40 -->
      <defs>
       <path d="M 37.796875 64.3125 
L 12.890625 25.390625 
L 37.796875 25.390625 
z
M 35.203125 72.90625 
L 47.609375 72.90625 
L 47.609375 25.390625 
L 58.015625 25.390625 
L 58.015625 17.1875 
L 47.609375 17.1875 
L 47.609375 0 
L 37.796875 0 
L 37.796875 17.1875 
L 4.890625 17.1875 
L 4.890625 26.703125 
z
" id="DejaVuSans-34"/>
      </defs>
      <g transform="translate(176.318097 296.224023)scale(0.15 -0.15)">
       <use xlink:href="#DejaVuSans-34"/>
       <use x="63.623047" xlink:href="#DejaVuSans-30"/>
      </g>
     </g>
    </g>
    <g id="xtick_4">
     <g id="line2d_7">
      <path clip-path="url(#p5c12b6adc7)" d="M 241.35835 277.826367 
L 241.35835 11.714367 
" style="fill:none;stroke:#b0b0b0;stroke-linecap:square;stroke-width:0.8;"/>
     </g>
     <g id="line2d_8">
      <g>
       <use style="stroke:#000000;stroke-width:0.8;" x="241.35835" xlink:href="#m005f0a59be" y="277.826367"/>
      </g>
     </g>
     <g id="text_4">
      <!-- 60 -->
      <defs>
       <path d="M 33.015625 40.375 
Q 26.375 40.375 22.484375 35.828125 
Q 18.609375 31.296875 18.609375 23.390625 
Q 18.609375 15.53125 22.484375 10.953125 
Q 26.375 6.390625 33.015625 6.390625 
Q 39.65625 6.390625 43.53125 10.953125 
Q 47.40625 15.53125 47.40625 23.390625 
Q 47.40625 31.296875 43.53125 35.828125 
Q 39.65625 40.375 33.015625 40.375 
z
M 52.59375 71.296875 
L 52.59375 62.3125 
Q 48.875 64.0625 45.09375 64.984375 
Q 41.3125 65.921875 37.59375 65.921875 
Q 27.828125 65.921875 22.671875 59.328125 
Q 17.53125 52.734375 16.796875 39.40625 
Q 19.671875 43.65625 24.015625 45.921875 
Q 28.375 48.1875 33.59375 48.1875 
Q 44.578125 48.1875 50.953125 41.515625 
Q 57.328125 34.859375 57.328125 23.390625 
Q 57.328125 12.15625 50.6875 5.359375 
Q 44.046875 -1.421875 33.015625 -1.421875 
Q 20.359375 -1.421875 13.671875 8.265625 
Q 6.984375 17.96875 6.984375 36.375 
Q 6.984375 53.65625 15.1875 63.9375 
Q 23.390625 74.21875 37.203125 74.21875 
Q 40.921875 74.21875 44.703125 73.484375 
Q 48.484375 72.75 52.59375 71.296875 
z
" id="DejaVuSans-36"/>
      </defs>
      <g transform="translate(231.8146 296.224023)scale(0.15 -0.15)">
       <use xlink:href="#DejaVuSans-36"/>
       <use x="63.623047" xlink:href="#DejaVuSans-30"/>
      </g>
     </g>
    </g>
    <g id="xtick_5">
     <g id="line2d_9">
      <path clip-path="url(#p5c12b6adc7)" d="M 296.854854 277.826367 
L 296.854854 11.714367 
" style="fill:none;stroke:#b0b0b0;stroke-linecap:square;stroke-width:0.8;"/>
     </g>
     <g id="line2d_10">
      <g>
       <use style="stroke:#000000;stroke-width:0.8;" x="296.854854" xlink:href="#m005f0a59be" y="277.826367"/>
      </g>
     </g>
     <g id="text_5">
      <!-- 80 -->
      <defs>
       <path d="M 31.78125 34.625 
Q 24.75 34.625 20.71875 30.859375 
Q 16.703125 27.09375 16.703125 20.515625 
Q 16.703125 13.921875 20.71875 10.15625 
Q 24.75 6.390625 31.78125 6.390625 
Q 38.8125 6.390625 42.859375 10.171875 
Q 46.921875 13.96875 46.921875 20.515625 
Q 46.921875 27.09375 42.890625 30.859375 
Q 38.875 34.625 31.78125 34.625 
z
M 21.921875 38.8125 
Q 15.578125 40.375 12.03125 44.71875 
Q 8.5 49.078125 8.5 55.328125 
Q 8.5 64.0625 14.71875 69.140625 
Q 20.953125 74.21875 31.78125 74.21875 
Q 42.671875 74.21875 48.875 69.140625 
Q 55.078125 64.0625 55.078125 55.328125 
Q 55.078125 49.078125 51.53125 44.71875 
Q 48 40.375 41.703125 38.8125 
Q 48.828125 37.15625 52.796875 32.3125 
Q 56.78125 27.484375 56.78125 20.515625 
Q 56.78125 9.90625 50.3125 4.234375 
Q 43.84375 -1.421875 31.78125 -1.421875 
Q 19.734375 -1.421875 13.25 4.234375 
Q 6.78125 9.90625 6.78125 20.515625 
Q 6.78125 27.484375 10.78125 32.3125 
Q 14.796875 37.15625 21.921875 38.8125 
z
M 18.3125 54.390625 
Q 18.3125 48.734375 21.84375 45.5625 
Q 25.390625 42.390625 31.78125 42.390625 
Q 38.140625 42.390625 41.71875 45.5625 
Q 45.3125 48.734375 45.3125 54.390625 
Q 45.3125 60.0625 41.71875 63.234375 
Q 38.140625 66.40625 31.78125 66.40625 
Q 25.390625 66.40625 21.84375 63.234375 
Q 18.3125 60.0625 18.3125 54.390625 
z
" id="DejaVuSans-38"/>
      </defs>
      <g transform="translate(287.311104 296.224023)scale(0.15 -0.15)">
       <use xlink:href="#DejaVuSans-38"/>
       <use x="63.623047" xlink:href="#DejaVuSans-30"/>
      </g>
     </g>
    </g>
    <g id="xtick_6">
     <g id="line2d_11">
      <path clip-path="url(#p5c12b6adc7)" d="M 352.351357 277.826367 
L 352.351357 11.714367 
" style="fill:none;stroke:#b0b0b0;stroke-linecap:square;stroke-width:0.8;"/>
     </g>
     <g id="line2d_12">
      <g>
       <use style="stroke:#000000;stroke-width:0.8;" x="352.351357" xlink:href="#m005f0a59be" y="277.826367"/>
      </g>
     </g>
     <g id="text_6">
      <!-- 100 -->
      <defs>
       <path d="M 12.40625 8.296875 
L 28.515625 8.296875 
L 28.515625 63.921875 
L 10.984375 60.40625 
L 10.984375 69.390625 
L 28.421875 72.90625 
L 38.28125 72.90625 
L 38.28125 8.296875 
L 54.390625 8.296875 
L 54.390625 0 
L 12.40625 0 
z
" id="DejaVuSans-31"/>
      </defs>
      <g transform="translate(338.035732 296.224023)scale(0.15 -0.15)">
       <use xlink:href="#DejaVuSans-31"/>
       <use x="63.623047" xlink:href="#DejaVuSans-30"/>
       <use x="127.246094" xlink:href="#DejaVuSans-30"/>
      </g>
     </g>
    </g>
    <g id="xtick_7">
     <g id="line2d_13">
      <path clip-path="url(#p5c12b6adc7)" d="M 407.847861 277.826367 
L 407.847861 11.714367 
" style="fill:none;stroke:#b0b0b0;stroke-linecap:square;stroke-width:0.8;"/>
     </g>
     <g id="line2d_14">
      <g>
       <use style="stroke:#000000;stroke-width:0.8;" x="407.847861" xlink:href="#m005f0a59be" y="277.826367"/>
      </g>
     </g>
     <g id="text_7">
      <!-- 120 -->
      <g transform="translate(393.532236 296.224023)scale(0.15 -0.15)">
       <use xlink:href="#DejaVuSans-31"/>
       <use x="63.623047" xlink:href="#DejaVuSans-32"/>
       <use x="127.246094" xlink:href="#DejaVuSans-30"/>
      </g>
     </g>
    </g>
    <g id="text_8">
     <!-- Time index -->
     <defs>
      <path d="M -0.296875 72.90625 
L 61.375 72.90625 
L 61.375 64.59375 
L 35.5 64.59375 
L 35.5 0 
L 25.59375 0 
L 25.59375 64.59375 
L -0.296875 64.59375 
z
" id="DejaVuSans-54"/>
      <path d="M 9.421875 54.6875 
L 18.40625 54.6875 
L 18.40625 0 
L 9.421875 0 
z
M 9.421875 75.984375 
L 18.40625 75.984375 
L 18.40625 64.59375 
L 9.421875 64.59375 
z
" id="DejaVuSans-69"/>
      <path d="M 52 44.1875 
Q 55.375 50.25 60.0625 53.125 
Q 64.75 56 71.09375 56 
Q 79.640625 56 84.28125 50.015625 
Q 88.921875 44.046875 88.921875 33.015625 
L 88.921875 0 
L 79.890625 0 
L 79.890625 32.71875 
Q 79.890625 40.578125 77.09375 44.375 
Q 74.3125 48.1875 68.609375 48.1875 
Q 61.625 48.1875 57.5625 43.546875 
Q 53.515625 38.921875 53.515625 30.90625 
L 53.515625 0 
L 44.484375 0 
L 44.484375 32.71875 
Q 44.484375 40.625 41.703125 44.40625 
Q 38.921875 48.1875 33.109375 48.1875 
Q 26.21875 48.1875 22.15625 43.53125 
Q 18.109375 38.875 18.109375 30.90625 
L 18.109375 0 
L 9.078125 0 
L 9.078125 54.6875 
L 18.109375 54.6875 
L 18.109375 46.1875 
Q 21.1875 51.21875 25.484375 53.609375 
Q 29.78125 56 35.6875 56 
Q 41.65625 56 45.828125 52.96875 
Q 50 49.953125 52 44.1875 
z
" id="DejaVuSans-6d"/>
      <path d="M 56.203125 29.59375 
L 56.203125 25.203125 
L 14.890625 25.203125 
Q 15.484375 15.921875 20.484375 11.0625 
Q 25.484375 6.203125 34.421875 6.203125 
Q 39.59375 6.203125 44.453125 7.46875 
Q 49.3125 8.734375 54.109375 11.28125 
L 54.109375 2.78125 
Q 49.265625 0.734375 44.1875 -0.34375 
Q 39.109375 -1.421875 33.890625 -1.421875 
Q 20.796875 -1.421875 13.15625 6.1875 
Q 5.515625 13.8125 5.515625 26.8125 
Q 5.515625 40.234375 12.765625 48.109375 
Q 20.015625 56 32.328125 56 
Q 43.359375 56 49.78125 48.890625 
Q 56.203125 41.796875 56.203125 29.59375 
z
M 47.21875 32.234375 
Q 47.125 39.59375 43.09375 43.984375 
Q 39.0625 48.390625 32.421875 48.390625 
Q 24.90625 48.390625 20.390625 44.140625 
Q 15.875 39.890625 15.1875 32.171875 
z
" id="DejaVuSans-65"/>
      <path id="DejaVuSans-20"/>
      <path d="M 54.890625 33.015625 
L 54.890625 0 
L 45.90625 0 
L 45.90625 32.71875 
Q 45.90625 40.484375 42.875 44.328125 
Q 39.84375 48.1875 33.796875 48.1875 
Q 26.515625 48.1875 22.3125 43.546875 
Q 18.109375 38.921875 18.109375 30.90625 
L 18.109375 0 
L 9.078125 0 
L 9.078125 54.6875 
L 18.109375 54.6875 
L 18.109375 46.1875 
Q 21.34375 51.125 25.703125 53.5625 
Q 30.078125 56 35.796875 56 
Q 45.21875 56 50.046875 50.171875 
Q 54.890625 44.34375 54.890625 33.015625 
z
" id="DejaVuSans-6e"/>
      <path d="M 45.40625 46.390625 
L 45.40625 75.984375 
L 54.390625 75.984375 
L 54.390625 0 
L 45.40625 0 
L 45.40625 8.203125 
Q 42.578125 3.328125 38.25 0.953125 
Q 33.9375 -1.421875 27.875 -1.421875 
Q 17.96875 -1.421875 11.734375 6.484375 
Q 5.515625 14.40625 5.515625 27.296875 
Q 5.515625 40.1875 11.734375 48.09375 
Q 17.96875 56 27.875 56 
Q 33.9375 56 38.25 53.625 
Q 42.578125 51.265625 45.40625 46.390625 
z
M 14.796875 27.296875 
Q 14.796875 17.390625 18.875 11.75 
Q 22.953125 6.109375 30.078125 6.109375 
Q 37.203125 6.109375 41.296875 11.75 
Q 45.40625 17.390625 45.40625 27.296875 
Q 45.40625 37.203125 41.296875 42.84375 
Q 37.203125 48.484375 30.078125 48.484375 
Q 22.953125 48.484375 18.875 42.84375 
Q 14.796875 37.203125 14.796875 27.296875 
z
" id="DejaVuSans-64"/>
      <path d="M 54.890625 54.6875 
L 35.109375 28.078125 
L 55.90625 0 
L 45.3125 0 
L 29.390625 21.484375 
L 13.484375 0 
L 2.875 0 
L 24.125 28.609375 
L 4.6875 54.6875 
L 15.28125 54.6875 
L 29.78125 35.203125 
L 44.28125 54.6875 
z
" id="DejaVuSans-78"/>
     </defs>
     <g transform="translate(184.483438 318.54043)scale(0.2 -0.2)">
      <use xlink:href="#DejaVuSans-54"/>
      <use x="61.037109" xlink:href="#DejaVuSans-69"/>
      <use x="88.820312" xlink:href="#DejaVuSans-6d"/>
      <use x="186.232422" xlink:href="#DejaVuSans-65"/>
      <use x="247.755859" xlink:href="#DejaVuSans-20"/>
      <use x="279.542969" xlink:href="#DejaVuSans-69"/>
      <use x="307.326172" xlink:href="#DejaVuSans-6e"/>
      <use x="370.705078" xlink:href="#DejaVuSans-64"/>
      <use x="434.181641" xlink:href="#DejaVuSans-65"/>
      <use x="495.689453" xlink:href="#DejaVuSans-78"/>
     </g>
    </g>
   </g>
   <g id="matplotlib.axis_2">
    <g id="ytick_1">
     <g id="line2d_15">
      <path clip-path="url(#p5c12b6adc7)" d="M 61.410938 242.547605 
L 418.530938 242.547605 
" style="fill:none;stroke:#b0b0b0;stroke-linecap:square;stroke-width:0.8;"/>
     </g>
     <g id="line2d_16">
      <defs>
       <path d="M 0 0 
L -3.5 0 
" id="mc3ce260a5b" style="stroke:#000000;stroke-width:0.8;"/>
      </defs>
      <g>
       <use style="stroke:#000000;stroke-width:0.8;" x="61.410938" xlink:href="#mc3ce260a5b" y="242.547605"/>
      </g>
     </g>
     <g id="text_9">
      <!-- 0.1 -->
      <defs>
       <path d="M 10.6875 12.40625 
L 21 12.40625 
L 21 0 
L 10.6875 0 
z
" id="DejaVuSans-2e"/>
      </defs>
      <g transform="translate(30.55625 248.246433)scale(0.15 -0.15)">
       <use xlink:href="#DejaVuSans-30"/>
       <use x="63.623047" xlink:href="#DejaVuSans-2e"/>
       <use x="95.410156" xlink:href="#DejaVuSans-31"/>
      </g>
     </g>
    </g>
    <g id="ytick_2">
     <g id="line2d_17">
      <path clip-path="url(#p5c12b6adc7)" d="M 61.410938 196.617849 
L 418.530938 196.617849 
" style="fill:none;stroke:#b0b0b0;stroke-linecap:square;stroke-width:0.8;"/>
     </g>
     <g id="line2d_18">
      <g>
       <use style="stroke:#000000;stroke-width:0.8;" x="61.410938" xlink:href="#mc3ce260a5b" y="196.617849"/>
      </g>
     </g>
     <g id="text_10">
      <!-- 0.2 -->
      <g transform="translate(30.55625 202.316678)scale(0.15 -0.15)">
       <use xlink:href="#DejaVuSans-30"/>
       <use x="63.623047" xlink:href="#DejaVuSans-2e"/>
       <use x="95.410156" xlink:href="#DejaVuSans-32"/>
      </g>
     </g>
    </g>
    <g id="ytick_3">
     <g id="line2d_19">
      <path clip-path="url(#p5c12b6adc7)" d="M 61.410938 150.688094 
L 418.530938 150.688094 
" style="fill:none;stroke:#b0b0b0;stroke-linecap:square;stroke-width:0.8;"/>
     </g>
     <g id="line2d_20">
      <g>
       <use style="stroke:#000000;stroke-width:0.8;" x="61.410938" xlink:href="#mc3ce260a5b" y="150.688094"/>
      </g>
     </g>
     <g id="text_11">
      <!-- 0.3 -->
      <defs>
       <path d="M 40.578125 39.3125 
Q 47.65625 37.796875 51.625 33 
Q 55.609375 28.21875 55.609375 21.1875 
Q 55.609375 10.40625 48.1875 4.484375 
Q 40.765625 -1.421875 27.09375 -1.421875 
Q 22.515625 -1.421875 17.65625 -0.515625 
Q 12.796875 0.390625 7.625 2.203125 
L 7.625 11.71875 
Q 11.71875 9.328125 16.59375 8.109375 
Q 21.484375 6.890625 26.8125 6.890625 
Q 36.078125 6.890625 40.9375 10.546875 
Q 45.796875 14.203125 45.796875 21.1875 
Q 45.796875 27.640625 41.28125 31.265625 
Q 36.765625 34.90625 28.71875 34.90625 
L 20.21875 34.90625 
L 20.21875 43.015625 
L 29.109375 43.015625 
Q 36.375 43.015625 40.234375 45.921875 
Q 44.09375 48.828125 44.09375 54.296875 
Q 44.09375 59.90625 40.109375 62.90625 
Q 36.140625 65.921875 28.71875 65.921875 
Q 24.65625 65.921875 20.015625 65.03125 
Q 15.375 64.15625 9.8125 62.3125 
L 9.8125 71.09375 
Q 15.4375 72.65625 20.34375 73.4375 
Q 25.25 74.21875 29.59375 74.21875 
Q 40.828125 74.21875 47.359375 69.109375 
Q 53.90625 64.015625 53.90625 55.328125 
Q 53.90625 49.265625 50.4375 45.09375 
Q 46.96875 40.921875 40.578125 39.3125 
z
" id="DejaVuSans-33"/>
      </defs>
      <g transform="translate(30.55625 156.386922)scale(0.15 -0.15)">
       <use xlink:href="#DejaVuSans-30"/>
       <use x="63.623047" xlink:href="#DejaVuSans-2e"/>
       <use x="95.410156" xlink:href="#DejaVuSans-33"/>
      </g>
     </g>
    </g>
    <g id="ytick_4">
     <g id="line2d_21">
      <path clip-path="url(#p5c12b6adc7)" d="M 61.410938 104.758339 
L 418.530938 104.758339 
" style="fill:none;stroke:#b0b0b0;stroke-linecap:square;stroke-width:0.8;"/>
     </g>
     <g id="line2d_22">
      <g>
       <use style="stroke:#000000;stroke-width:0.8;" x="61.410938" xlink:href="#mc3ce260a5b" y="104.758339"/>
      </g>
     </g>
     <g id="text_12">
      <!-- 0.4 -->
      <g transform="translate(30.55625 110.457167)scale(0.15 -0.15)">
       <use xlink:href="#DejaVuSans-30"/>
       <use x="63.623047" xlink:href="#DejaVuSans-2e"/>
       <use x="95.410156" xlink:href="#DejaVuSans-34"/>
      </g>
     </g>
    </g>
    <g id="ytick_5">
     <g id="line2d_23">
      <path clip-path="url(#p5c12b6adc7)" d="M 61.410938 58.828583 
L 418.530938 58.828583 
" style="fill:none;stroke:#b0b0b0;stroke-linecap:square;stroke-width:0.8;"/>
     </g>
     <g id="line2d_24">
      <g>
       <use style="stroke:#000000;stroke-width:0.8;" x="61.410938" xlink:href="#mc3ce260a5b" y="58.828583"/>
      </g>
     </g>
     <g id="text_13">
      <!-- 0.5 -->
      <defs>
       <path d="M 10.796875 72.90625 
L 49.515625 72.90625 
L 49.515625 64.59375 
L 19.828125 64.59375 
L 19.828125 46.734375 
Q 21.96875 47.46875 24.109375 47.828125 
Q 26.265625 48.1875 28.421875 48.1875 
Q 40.625 48.1875 47.75 41.5 
Q 54.890625 34.8125 54.890625 23.390625 
Q 54.890625 11.625 47.5625 5.09375 
Q 40.234375 -1.421875 26.90625 -1.421875 
Q 22.3125 -1.421875 17.546875 -0.640625 
Q 12.796875 0.140625 7.71875 1.703125 
L 7.71875 11.625 
Q 12.109375 9.234375 16.796875 8.0625 
Q 21.484375 6.890625 26.703125 6.890625 
Q 35.15625 6.890625 40.078125 11.328125 
Q 45.015625 15.765625 45.015625 23.390625 
Q 45.015625 31 40.078125 35.4375 
Q 35.15625 39.890625 26.703125 39.890625 
Q 22.75 39.890625 18.8125 39.015625 
Q 14.890625 38.140625 10.796875 36.28125 
z
" id="DejaVuSans-35"/>
      </defs>
      <g transform="translate(30.55625 64.527412)scale(0.15 -0.15)">
       <use xlink:href="#DejaVuSans-30"/>
       <use x="63.623047" xlink:href="#DejaVuSans-2e"/>
       <use x="95.410156" xlink:href="#DejaVuSans-35"/>
      </g>
     </g>
    </g>
    <g id="ytick_6">
     <g id="line2d_25">
      <path clip-path="url(#p5c12b6adc7)" d="M 61.410938 12.898828 
L 418.530938 12.898828 
" style="fill:none;stroke:#b0b0b0;stroke-linecap:square;stroke-width:0.8;"/>
     </g>
     <g id="line2d_26">
      <g>
       <use style="stroke:#000000;stroke-width:0.8;" x="61.410938" xlink:href="#mc3ce260a5b" y="12.898828"/>
      </g>
     </g>
     <g id="text_14">
      <!-- 0.6 -->
      <g transform="translate(30.55625 18.597656)scale(0.15 -0.15)">
       <use xlink:href="#DejaVuSans-30"/>
       <use x="63.623047" xlink:href="#DejaVuSans-2e"/>
       <use x="95.410156" xlink:href="#DejaVuSans-36"/>
      </g>
     </g>
    </g>
    <g id="text_15">
     <!-- Suvival -->
     <defs>
      <path d="M 53.515625 70.515625 
L 53.515625 60.890625 
Q 47.90625 63.578125 42.921875 64.890625 
Q 37.9375 66.21875 33.296875 66.21875 
Q 25.25 66.21875 20.875 63.09375 
Q 16.5 59.96875 16.5 54.203125 
Q 16.5 49.359375 19.40625 46.890625 
Q 22.3125 44.4375 30.421875 42.921875 
L 36.375 41.703125 
Q 47.40625 39.59375 52.65625 34.296875 
Q 57.90625 29 57.90625 20.125 
Q 57.90625 9.515625 50.796875 4.046875 
Q 43.703125 -1.421875 29.984375 -1.421875 
Q 24.8125 -1.421875 18.96875 -0.25 
Q 13.140625 0.921875 6.890625 3.21875 
L 6.890625 13.375 
Q 12.890625 10.015625 18.65625 8.296875 
Q 24.421875 6.59375 29.984375 6.59375 
Q 38.421875 6.59375 43.015625 9.90625 
Q 47.609375 13.234375 47.609375 19.390625 
Q 47.609375 24.75 44.3125 27.78125 
Q 41.015625 30.8125 33.5 32.328125 
L 27.484375 33.5 
Q 16.453125 35.6875 11.515625 40.375 
Q 6.59375 45.0625 6.59375 53.421875 
Q 6.59375 63.09375 13.40625 68.65625 
Q 20.21875 74.21875 32.171875 74.21875 
Q 37.3125 74.21875 42.625 73.28125 
Q 47.953125 72.359375 53.515625 70.515625 
z
" id="DejaVuSans-53"/>
      <path d="M 8.5 21.578125 
L 8.5 54.6875 
L 17.484375 54.6875 
L 17.484375 21.921875 
Q 17.484375 14.15625 20.5 10.265625 
Q 23.53125 6.390625 29.59375 6.390625 
Q 36.859375 6.390625 41.078125 11.03125 
Q 45.3125 15.671875 45.3125 23.6875 
L 45.3125 54.6875 
L 54.296875 54.6875 
L 54.296875 0 
L 45.3125 0 
L 45.3125 8.40625 
Q 42.046875 3.421875 37.71875 1 
Q 33.40625 -1.421875 27.6875 -1.421875 
Q 18.265625 -1.421875 13.375 4.4375 
Q 8.5 10.296875 8.5 21.578125 
z
M 31.109375 56 
z
" id="DejaVuSans-75"/>
      <path d="M 2.984375 54.6875 
L 12.5 54.6875 
L 29.59375 8.796875 
L 46.6875 54.6875 
L 56.203125 54.6875 
L 35.6875 0 
L 23.484375 0 
z
" id="DejaVuSans-76"/>
      <path d="M 34.28125 27.484375 
Q 23.390625 27.484375 19.1875 25 
Q 14.984375 22.515625 14.984375 16.5 
Q 14.984375 11.71875 18.140625 8.90625 
Q 21.296875 6.109375 26.703125 6.109375 
Q 34.1875 6.109375 38.703125 11.40625 
Q 43.21875 16.703125 43.21875 25.484375 
L 43.21875 27.484375 
z
M 52.203125 31.203125 
L 52.203125 0 
L 43.21875 0 
L 43.21875 8.296875 
Q 40.140625 3.328125 35.546875 0.953125 
Q 30.953125 -1.421875 24.3125 -1.421875 
Q 15.921875 -1.421875 10.953125 3.296875 
Q 6 8.015625 6 15.921875 
Q 6 25.140625 12.171875 29.828125 
Q 18.359375 34.515625 30.609375 34.515625 
L 43.21875 34.515625 
L 43.21875 35.40625 
Q 43.21875 41.609375 39.140625 45 
Q 35.0625 48.390625 27.6875 48.390625 
Q 23 48.390625 18.546875 47.265625 
Q 14.109375 46.140625 10.015625 43.890625 
L 10.015625 52.203125 
Q 14.9375 54.109375 19.578125 55.046875 
Q 24.21875 56 28.609375 56 
Q 40.484375 56 46.34375 49.84375 
Q 52.203125 43.703125 52.203125 31.203125 
z
" id="DejaVuSans-61"/>
      <path d="M 9.421875 75.984375 
L 18.40625 75.984375 
L 18.40625 0 
L 9.421875 0 
z
" id="DejaVuSans-6c"/>
     </defs>
     <g transform="translate(22.396875 180.97818)rotate(-90)scale(0.2 -0.2)">
      <use xlink:href="#DejaVuSans-53"/>
      <use x="63.476562" xlink:href="#DejaVuSans-75"/>
      <use x="126.855469" xlink:href="#DejaVuSans-76"/>
      <use x="186.035156" xlink:href="#DejaVuSans-69"/>
      <use x="213.818359" xlink:href="#DejaVuSans-76"/>
      <use x="272.998047" xlink:href="#DejaVuSans-61"/>
      <use x="334.277344" xlink:href="#DejaVuSans-6c"/>
     </g>
    </g>
   </g>
   <g id="LineCollection_1">
    <path clip-path="url(#p5c12b6adc7)" d="M 77.643665 77.744876 
L 77.643665 46.351042 
" style="fill:none;stroke:#1f77b4;stroke-width:1.5;"/>
    <path clip-path="url(#p5c12b6adc7)" d="M 80.41849 97.396261 
L 80.41849 67.003577 
" style="fill:none;stroke:#1f77b4;stroke-width:1.5;"/>
    <path clip-path="url(#p5c12b6adc7)" d="M 83.193315 83.538957 
L 83.193315 52.738381 
" style="fill:none;stroke:#1f77b4;stroke-width:1.5;"/>
    <path clip-path="url(#p5c12b6adc7)" d="M 85.96814 119.367648 
L 85.96814 87.908553 
" style="fill:none;stroke:#1f77b4;stroke-width:1.5;"/>
    <path clip-path="url(#p5c12b6adc7)" d="M 88.742965 83.865643 
L 88.742965 53.674535 
" style="fill:none;stroke:#1f77b4;stroke-width:1.5;"/>
    <path clip-path="url(#p5c12b6adc7)" d="M 91.517791 57.200718 
L 91.517791 23.810367 
" style="fill:none;stroke:#1f77b4;stroke-width:1.5;"/>
    <path clip-path="url(#p5c12b6adc7)" d="M 94.292616 74.418158 
L 94.292616 43.239009 
" style="fill:none;stroke:#1f77b4;stroke-width:1.5;"/>
    <path clip-path="url(#p5c12b6adc7)" d="M 97.067441 64.871872 
L 97.067441 33.647897 
" style="fill:none;stroke:#1f77b4;stroke-width:1.5;"/>
    <path clip-path="url(#p5c12b6adc7)" d="M 99.842266 92.232735 
L 99.842266 61.844502 
" style="fill:none;stroke:#1f77b4;stroke-width:1.5;"/>
    <path clip-path="url(#p5c12b6adc7)" d="M 102.617091 84.171222 
L 102.617091 52.802197 
" style="fill:none;stroke:#1f77b4;stroke-width:1.5;"/>
    <path clip-path="url(#p5c12b6adc7)" d="M 105.391917 95.377253 
L 105.391917 64.958005 
" style="fill:none;stroke:#1f77b4;stroke-width:1.5;"/>
    <path clip-path="url(#p5c12b6adc7)" d="M 108.166742 88.049205 
L 108.166742 56.997265 
" style="fill:none;stroke:#1f77b4;stroke-width:1.5;"/>
    <path clip-path="url(#p5c12b6adc7)" d="M 110.941567 103.719598 
L 110.941567 72.433012 
" style="fill:none;stroke:#1f77b4;stroke-width:1.5;"/>
    <path clip-path="url(#p5c12b6adc7)" d="M 113.716392 110.00676 
L 113.716392 80.676796 
" style="fill:none;stroke:#1f77b4;stroke-width:1.5;"/>
    <path clip-path="url(#p5c12b6adc7)" d="M 116.491217 138.35659 
L 116.491217 109.694374 
" style="fill:none;stroke:#1f77b4;stroke-width:1.5;"/>
    <path clip-path="url(#p5c12b6adc7)" d="M 119.266042 103.499386 
L 119.266042 73.982252 
" style="fill:none;stroke:#1f77b4;stroke-width:1.5;"/>
    <path clip-path="url(#p5c12b6adc7)" d="M 122.040868 117.074257 
L 122.040868 87.204817 
" style="fill:none;stroke:#1f77b4;stroke-width:1.5;"/>
    <path clip-path="url(#p5c12b6adc7)" d="M 124.815693 127.584652 
L 124.815693 98.598519 
" style="fill:none;stroke:#1f77b4;stroke-width:1.5;"/>
    <path clip-path="url(#p5c12b6adc7)" d="M 127.590518 103.002986 
L 127.590518 73.287911 
" style="fill:none;stroke:#1f77b4;stroke-width:1.5;"/>
    <path clip-path="url(#p5c12b6adc7)" d="M 130.365343 108.294933 
L 130.365343 78.1557 
" style="fill:none;stroke:#1f77b4;stroke-width:1.5;"/>
    <path clip-path="url(#p5c12b6adc7)" d="M 133.140168 127.396061 
L 133.140168 98.215659 
" style="fill:none;stroke:#1f77b4;stroke-width:1.5;"/>
    <path clip-path="url(#p5c12b6adc7)" d="M 135.914993 116.094551 
L 135.914993 88.122539 
" style="fill:none;stroke:#1f77b4;stroke-width:1.5;"/>
    <path clip-path="url(#p5c12b6adc7)" d="M 138.689819 110.373378 
L 138.689819 80.926435 
" style="fill:none;stroke:#1f77b4;stroke-width:1.5;"/>
    <path clip-path="url(#p5c12b6adc7)" d="M 141.464644 133.75472 
L 141.464644 104.666028 
" style="fill:none;stroke:#1f77b4;stroke-width:1.5;"/>
    <path clip-path="url(#p5c12b6adc7)" d="M 144.239469 135.426212 
L 144.239469 105.808772 
" style="fill:none;stroke:#1f77b4;stroke-width:1.5;"/>
    <path clip-path="url(#p5c12b6adc7)" d="M 147.014294 138.453961 
L 147.014294 110.159946 
" style="fill:none;stroke:#1f77b4;stroke-width:1.5;"/>
    <path clip-path="url(#p5c12b6adc7)" d="M 149.789119 145.47394 
L 149.789119 116.475821 
" style="fill:none;stroke:#1f77b4;stroke-width:1.5;"/>
    <path clip-path="url(#p5c12b6adc7)" d="M 152.563944 108.377741 
L 152.563944 78.570005 
" style="fill:none;stroke:#1f77b4;stroke-width:1.5;"/>
    <path clip-path="url(#p5c12b6adc7)" d="M 155.33877 138.202432 
L 155.33877 111.177807 
" style="fill:none;stroke:#1f77b4;stroke-width:1.5;"/>
    <path clip-path="url(#p5c12b6adc7)" d="M 158.113595 136.096934 
L 158.113595 108.006523 
" style="fill:none;stroke:#1f77b4;stroke-width:1.5;"/>
    <path clip-path="url(#p5c12b6adc7)" d="M 160.88842 123.767897 
L 160.88842 94.663416 
" style="fill:none;stroke:#1f77b4;stroke-width:1.5;"/>
    <path clip-path="url(#p5c12b6adc7)" d="M 163.663245 128.984026 
L 163.663245 99.468603 
" style="fill:none;stroke:#1f77b4;stroke-width:1.5;"/>
    <path clip-path="url(#p5c12b6adc7)" d="M 166.43807 121.948387 
L 166.43807 93.740669 
" style="fill:none;stroke:#1f77b4;stroke-width:1.5;"/>
    <path clip-path="url(#p5c12b6adc7)" d="M 169.212896 114.838373 
L 169.212896 86.159076 
" style="fill:none;stroke:#1f77b4;stroke-width:1.5;"/>
    <path clip-path="url(#p5c12b6adc7)" d="M 171.987721 115.630362 
L 171.987721 86.733321 
" style="fill:none;stroke:#1f77b4;stroke-width:1.5;"/>
    <path clip-path="url(#p5c12b6adc7)" d="M 174.762546 155.782653 
L 174.762546 128.891806 
" style="fill:none;stroke:#1f77b4;stroke-width:1.5;"/>
    <path clip-path="url(#p5c12b6adc7)" d="M 177.537371 160.865063 
L 177.537371 135.59008 
" style="fill:none;stroke:#1f77b4;stroke-width:1.5;"/>
    <path clip-path="url(#p5c12b6adc7)" d="M 180.312196 134.073722 
L 180.312196 105.554579 
" style="fill:none;stroke:#1f77b4;stroke-width:1.5;"/>
    <path clip-path="url(#p5c12b6adc7)" d="M 183.087021 131.398676 
L 183.087021 103.370217 
" style="fill:none;stroke:#1f77b4;stroke-width:1.5;"/>
    <path clip-path="url(#p5c12b6adc7)" d="M 185.861847 175.989202 
L 185.861847 148.351864 
" style="fill:none;stroke:#1f77b4;stroke-width:1.5;"/>
    <path clip-path="url(#p5c12b6adc7)" d="M 188.636672 142.175862 
L 188.636672 114.381775 
" style="fill:none;stroke:#1f77b4;stroke-width:1.5;"/>
    <path clip-path="url(#p5c12b6adc7)" d="M 191.411497 126.472513 
L 191.411497 98.169626 
" style="fill:none;stroke:#1f77b4;stroke-width:1.5;"/>
    <path clip-path="url(#p5c12b6adc7)" d="M 194.186322 163.082451 
L 194.186322 136.025601 
" style="fill:none;stroke:#1f77b4;stroke-width:1.5;"/>
    <path clip-path="url(#p5c12b6adc7)" d="M 196.961147 168.456519 
L 196.961147 142.10562 
" style="fill:none;stroke:#1f77b4;stroke-width:1.5;"/>
    <path clip-path="url(#p5c12b6adc7)" d="M 199.735972 149.601756 
L 199.735972 121.787236 
" style="fill:none;stroke:#1f77b4;stroke-width:1.5;"/>
    <path clip-path="url(#p5c12b6adc7)" d="M 202.510798 164.919536 
L 202.510798 137.968743 
" style="fill:none;stroke:#1f77b4;stroke-width:1.5;"/>
    <path clip-path="url(#p5c12b6adc7)" d="M 205.285623 167.364833 
L 205.285623 141.216022 
" style="fill:none;stroke:#1f77b4;stroke-width:1.5;"/>
    <path clip-path="url(#p5c12b6adc7)" d="M 208.060448 118.114548 
L 208.060448 90.354303 
" style="fill:none;stroke:#1f77b4;stroke-width:1.5;"/>
    <path clip-path="url(#p5c12b6adc7)" d="M 210.835273 132.864401 
L 210.835273 104.361963 
" style="fill:none;stroke:#1f77b4;stroke-width:1.5;"/>
    <path clip-path="url(#p5c12b6adc7)" d="M 213.610098 156.807108 
L 213.610098 128.933419 
" style="fill:none;stroke:#1f77b4;stroke-width:1.5;"/>
    <path clip-path="url(#p5c12b6adc7)" d="M 216.384924 147.883584 
L 216.384924 119.629141 
" style="fill:none;stroke:#1f77b4;stroke-width:1.5;"/>
    <path clip-path="url(#p5c12b6adc7)" d="M 219.159749 143.316828 
L 219.159749 116.336911 
" style="fill:none;stroke:#1f77b4;stroke-width:1.5;"/>
    <path clip-path="url(#p5c12b6adc7)" d="M 221.934574 174.084991 
L 221.934574 147.704421 
" style="fill:none;stroke:#1f77b4;stroke-width:1.5;"/>
    <path clip-path="url(#p5c12b6adc7)" d="M 224.709399 143.432371 
L 224.709399 115.101776 
" style="fill:none;stroke:#1f77b4;stroke-width:1.5;"/>
    <path clip-path="url(#p5c12b6adc7)" d="M 227.484224 158.268545 
L 227.484224 131.396471 
" style="fill:none;stroke:#1f77b4;stroke-width:1.5;"/>
    <path clip-path="url(#p5c12b6adc7)" d="M 230.259049 148.194122 
L 230.259049 120.71766 
" style="fill:none;stroke:#1f77b4;stroke-width:1.5;"/>
    <path clip-path="url(#p5c12b6adc7)" d="M 233.033875 129.956697 
L 233.033875 101.591327 
" style="fill:none;stroke:#1f77b4;stroke-width:1.5;"/>
    <path clip-path="url(#p5c12b6adc7)" d="M 235.8087 120.496845 
L 235.8087 91.665991 
" style="fill:none;stroke:#1f77b4;stroke-width:1.5;"/>
    <path clip-path="url(#p5c12b6adc7)" d="M 238.583525 164.887685 
L 238.583525 138.325693 
" style="fill:none;stroke:#1f77b4;stroke-width:1.5;"/>
    <path clip-path="url(#p5c12b6adc7)" d="M 241.35835 131.396754 
L 241.35835 102.538274 
" style="fill:none;stroke:#1f77b4;stroke-width:1.5;"/>
    <path clip-path="url(#p5c12b6adc7)" d="M 244.133175 138.305193 
L 244.133175 109.453426 
" style="fill:none;stroke:#1f77b4;stroke-width:1.5;"/>
    <path clip-path="url(#p5c12b6adc7)" d="M 246.908 132.201315 
L 246.908 103.615389 
" style="fill:none;stroke:#1f77b4;stroke-width:1.5;"/>
    <path clip-path="url(#p5c12b6adc7)" d="M 249.682826 143.3317 
L 249.682826 116.193436 
" style="fill:none;stroke:#1f77b4;stroke-width:1.5;"/>
    <path clip-path="url(#p5c12b6adc7)" d="M 252.457651 153.13183 
L 252.457651 124.883534 
" style="fill:none;stroke:#1f77b4;stroke-width:1.5;"/>
    <path clip-path="url(#p5c12b6adc7)" d="M 255.232476 167.246436 
L 255.232476 139.413706 
" style="fill:none;stroke:#1f77b4;stroke-width:1.5;"/>
    <path clip-path="url(#p5c12b6adc7)" d="M 258.007301 166.61498 
L 258.007301 139.116616 
" style="fill:none;stroke:#1f77b4;stroke-width:1.5;"/>
    <path clip-path="url(#p5c12b6adc7)" d="M 260.782126 157.17955 
L 260.782126 128.953575 
" style="fill:none;stroke:#1f77b4;stroke-width:1.5;"/>
    <path clip-path="url(#p5c12b6adc7)" d="M 263.556951 184.092693 
L 263.556951 158.52654 
" style="fill:none;stroke:#1f77b4;stroke-width:1.5;"/>
    <path clip-path="url(#p5c12b6adc7)" d="M 266.331777 167.150234 
L 266.331777 139.74541 
" style="fill:none;stroke:#1f77b4;stroke-width:1.5;"/>
    <path clip-path="url(#p5c12b6adc7)" d="M 269.106602 149.53788 
L 269.106602 120.531928 
" style="fill:none;stroke:#1f77b4;stroke-width:1.5;"/>
    <path clip-path="url(#p5c12b6adc7)" d="M 271.881427 131.269148 
L 271.881427 103.064414 
" style="fill:none;stroke:#1f77b4;stroke-width:1.5;"/>
    <path clip-path="url(#p5c12b6adc7)" d="M 274.656252 172.499901 
L 274.656252 145.613401 
" style="fill:none;stroke:#1f77b4;stroke-width:1.5;"/>
    <path clip-path="url(#p5c12b6adc7)" d="M 277.431077 161.244072 
L 277.431077 134.083754 
" style="fill:none;stroke:#1f77b4;stroke-width:1.5;"/>
    <path clip-path="url(#p5c12b6adc7)" d="M 280.205903 164.106632 
L 280.205903 137.978896 
" style="fill:none;stroke:#1f77b4;stroke-width:1.5;"/>
    <path clip-path="url(#p5c12b6adc7)" d="M 282.980728 155.468804 
L 282.980728 128.883227 
" style="fill:none;stroke:#1f77b4;stroke-width:1.5;"/>
    <path clip-path="url(#p5c12b6adc7)" d="M 285.755553 163.338927 
L 285.755553 136.123522 
" style="fill:none;stroke:#1f77b4;stroke-width:1.5;"/>
    <path clip-path="url(#p5c12b6adc7)" d="M 288.530378 151.915021 
L 288.530378 124.44252 
" style="fill:none;stroke:#1f77b4;stroke-width:1.5;"/>
    <path clip-path="url(#p5c12b6adc7)" d="M 291.305203 178.051686 
L 291.305203 154.260008 
" style="fill:none;stroke:#1f77b4;stroke-width:1.5;"/>
    <path clip-path="url(#p5c12b6adc7)" d="M 294.080028 146.544312 
L 294.080028 118.47082 
" style="fill:none;stroke:#1f77b4;stroke-width:1.5;"/>
    <path clip-path="url(#p5c12b6adc7)" d="M 296.854854 144.415512 
L 296.854854 117.739761 
" style="fill:none;stroke:#1f77b4;stroke-width:1.5;"/>
    <path clip-path="url(#p5c12b6adc7)" d="M 299.629679 144.671995 
L 299.629679 116.515657 
" style="fill:none;stroke:#1f77b4;stroke-width:1.5;"/>
    <path clip-path="url(#p5c12b6adc7)" d="M 302.404504 165.614854 
L 302.404504 139.363668 
" style="fill:none;stroke:#1f77b4;stroke-width:1.5;"/>
    <path clip-path="url(#p5c12b6adc7)" d="M 305.179329 166.67272 
L 305.179329 140.215039 
" style="fill:none;stroke:#1f77b4;stroke-width:1.5;"/>
    <path clip-path="url(#p5c12b6adc7)" d="M 307.954154 158.792575 
L 307.954154 133.364737 
" style="fill:none;stroke:#1f77b4;stroke-width:1.5;"/>
    <path clip-path="url(#p5c12b6adc7)" d="M 310.728979 159.841929 
L 310.728979 133.216272 
" style="fill:none;stroke:#1f77b4;stroke-width:1.5;"/>
    <path clip-path="url(#p5c12b6adc7)" d="M 313.503805 148.614641 
L 313.503805 121.543667 
" style="fill:none;stroke:#1f77b4;stroke-width:1.5;"/>
    <path clip-path="url(#p5c12b6adc7)" d="M 316.27863 165.391203 
L 316.27863 138.912778 
" style="fill:none;stroke:#1f77b4;stroke-width:1.5;"/>
    <path clip-path="url(#p5c12b6adc7)" d="M 319.053455 163.609993 
L 319.053455 138.103913 
" style="fill:none;stroke:#1f77b4;stroke-width:1.5;"/>
    <path clip-path="url(#p5c12b6adc7)" d="M 321.82828 159.321719 
L 321.82828 132.614362 
" style="fill:none;stroke:#1f77b4;stroke-width:1.5;"/>
    <path clip-path="url(#p5c12b6adc7)" d="M 324.603105 127.966501 
L 324.603105 99.994409 
" style="fill:none;stroke:#1f77b4;stroke-width:1.5;"/>
    <path clip-path="url(#p5c12b6adc7)" d="M 327.377931 133.599803 
L 327.377931 106.303861 
" style="fill:none;stroke:#1f77b4;stroke-width:1.5;"/>
    <path clip-path="url(#p5c12b6adc7)" d="M 330.152756 143.797167 
L 330.152756 117.494871 
" style="fill:none;stroke:#1f77b4;stroke-width:1.5;"/>
    <path clip-path="url(#p5c12b6adc7)" d="M 332.927581 158.927182 
L 332.927581 132.518249 
" style="fill:none;stroke:#1f77b4;stroke-width:1.5;"/>
    <path clip-path="url(#p5c12b6adc7)" d="M 335.702406 141.575729 
L 335.702406 113.870704 
" style="fill:none;stroke:#1f77b4;stroke-width:1.5;"/>
    <path clip-path="url(#p5c12b6adc7)" d="M 338.477231 168.149122 
L 338.477231 141.941012 
" style="fill:none;stroke:#1f77b4;stroke-width:1.5;"/>
    <path clip-path="url(#p5c12b6adc7)" d="M 341.252056 150.368611 
L 341.252056 123.377959 
" style="fill:none;stroke:#1f77b4;stroke-width:1.5;"/>
    <path clip-path="url(#p5c12b6adc7)" d="M 344.026882 150.918833 
L 344.026882 124.007535 
" style="fill:none;stroke:#1f77b4;stroke-width:1.5;"/>
    <path clip-path="url(#p5c12b6adc7)" d="M 346.801707 152.951906 
L 346.801707 126.503263 
" style="fill:none;stroke:#1f77b4;stroke-width:1.5;"/>
    <path clip-path="url(#p5c12b6adc7)" d="M 349.576532 129.956697 
L 349.576532 101.591327 
" style="fill:none;stroke:#1f77b4;stroke-width:1.5;"/>
    <path clip-path="url(#p5c12b6adc7)" d="M 352.351357 146.156237 
L 352.351357 121.003825 
" style="fill:none;stroke:#1f77b4;stroke-width:1.5;"/>
    <path clip-path="url(#p5c12b6adc7)" d="M 355.126182 165.830906 
L 355.126182 139.801322 
" style="fill:none;stroke:#1f77b4;stroke-width:1.5;"/>
    <path clip-path="url(#p5c12b6adc7)" d="M 357.901007 153.727205 
L 357.901007 125.571161 
" style="fill:none;stroke:#1f77b4;stroke-width:1.5;"/>
    <path clip-path="url(#p5c12b6adc7)" d="M 360.675833 164.788575 
L 360.675833 139.299333 
" style="fill:none;stroke:#1f77b4;stroke-width:1.5;"/>
    <path clip-path="url(#p5c12b6adc7)" d="M 363.450658 148.2666 
L 363.450658 120.622688 
" style="fill:none;stroke:#1f77b4;stroke-width:1.5;"/>
    <path clip-path="url(#p5c12b6adc7)" d="M 366.225483 123.677011 
L 366.225483 96.783218 
" style="fill:none;stroke:#1f77b4;stroke-width:1.5;"/>
    <path clip-path="url(#p5c12b6adc7)" d="M 369.000308 131.026747 
L 369.000308 104.006461 
" style="fill:none;stroke:#1f77b4;stroke-width:1.5;"/>
    <path clip-path="url(#p5c12b6adc7)" d="M 371.775133 146.440652 
L 371.775133 118.71451 
" style="fill:none;stroke:#1f77b4;stroke-width:1.5;"/>
    <path clip-path="url(#p5c12b6adc7)" d="M 374.549958 142.711883 
L 374.549958 116.267608 
" style="fill:none;stroke:#1f77b4;stroke-width:1.5;"/>
    <path clip-path="url(#p5c12b6adc7)" d="M 377.324784 154.950464 
L 377.324784 129.426811 
" style="fill:none;stroke:#1f77b4;stroke-width:1.5;"/>
    <path clip-path="url(#p5c12b6adc7)" d="M 380.099609 142.139364 
L 380.099609 116.474638 
" style="fill:none;stroke:#1f77b4;stroke-width:1.5;"/>
    <path clip-path="url(#p5c12b6adc7)" d="M 382.874434 131.136917 
L 382.874434 104.945403 
" style="fill:none;stroke:#1f77b4;stroke-width:1.5;"/>
    <path clip-path="url(#p5c12b6adc7)" d="M 385.649259 148.12288 
L 385.649259 120.810862 
" style="fill:none;stroke:#1f77b4;stroke-width:1.5;"/>
    <path clip-path="url(#p5c12b6adc7)" d="M 388.424084 176.852746 
L 388.424084 150.769016 
" style="fill:none;stroke:#1f77b4;stroke-width:1.5;"/>
    <path clip-path="url(#p5c12b6adc7)" d="M 391.19891 148.769008 
L 391.19891 121.374947 
" style="fill:none;stroke:#1f77b4;stroke-width:1.5;"/>
    <path clip-path="url(#p5c12b6adc7)" d="M 393.973735 129.598879 
L 393.973735 101.510274 
" style="fill:none;stroke:#1f77b4;stroke-width:1.5;"/>
    <path clip-path="url(#p5c12b6adc7)" d="M 396.74856 145.935331 
L 396.74856 117.774614 
" style="fill:none;stroke:#1f77b4;stroke-width:1.5;"/>
    <path clip-path="url(#p5c12b6adc7)" d="M 399.523385 139.581488 
L 399.523385 110.717644 
" style="fill:none;stroke:#1f77b4;stroke-width:1.5;"/>
    <path clip-path="url(#p5c12b6adc7)" d="M 402.29821 134.456841 
L 402.29821 106.647889 
" style="fill:none;stroke:#1f77b4;stroke-width:1.5;"/>
   </g>
   <g id="LineCollection_2">
    <path clip-path="url(#p5c12b6adc7)" d="M 77.643665 223.43433 
L 77.643665 201.670995 
" style="fill:none;stroke:#ff7f0e;stroke-width:1.5;"/>
    <path clip-path="url(#p5c12b6adc7)" d="M 80.41849 239.333758 
L 80.41849 219.405136 
" style="fill:none;stroke:#ff7f0e;stroke-width:1.5;"/>
    <path clip-path="url(#p5c12b6adc7)" d="M 83.193315 247.431836 
L 83.193315 227.697483 
" style="fill:none;stroke:#ff7f0e;stroke-width:1.5;"/>
    <path clip-path="url(#p5c12b6adc7)" d="M 85.96814 249.409406 
L 85.96814 230.052909 
" style="fill:none;stroke:#ff7f0e;stroke-width:1.5;"/>
    <path clip-path="url(#p5c12b6adc7)" d="M 88.742965 252.582664 
L 88.742965 234.190345 
" style="fill:none;stroke:#ff7f0e;stroke-width:1.5;"/>
    <path clip-path="url(#p5c12b6adc7)" d="M 91.517791 262.015828 
L 91.517791 245.729672 
" style="fill:none;stroke:#ff7f0e;stroke-width:1.5;"/>
    <path clip-path="url(#p5c12b6adc7)" d="M 94.292616 255.851296 
L 94.292616 237.389092 
" style="fill:none;stroke:#ff7f0e;stroke-width:1.5;"/>
    <path clip-path="url(#p5c12b6adc7)" d="M 97.067441 263.837646 
L 97.067441 248.619971 
" style="fill:none;stroke:#ff7f0e;stroke-width:1.5;"/>
    <path clip-path="url(#p5c12b6adc7)" d="M 99.842266 239.881292 
L 99.842266 219.763663 
" style="fill:none;stroke:#ff7f0e;stroke-width:1.5;"/>
    <path clip-path="url(#p5c12b6adc7)" d="M 102.617091 251.90564 
L 102.617091 233.189569 
" style="fill:none;stroke:#ff7f0e;stroke-width:1.5;"/>
    <path clip-path="url(#p5c12b6adc7)" d="M 105.391917 242.131436 
L 105.391917 222.049331 
" style="fill:none;stroke:#ff7f0e;stroke-width:1.5;"/>
    <path clip-path="url(#p5c12b6adc7)" d="M 108.166742 245.905929 
L 108.166742 226.47658 
" style="fill:none;stroke:#ff7f0e;stroke-width:1.5;"/>
    <path clip-path="url(#p5c12b6adc7)" d="M 110.941567 265.730367 
L 110.941567 250.404129 
" style="fill:none;stroke:#ff7f0e;stroke-width:1.5;"/>
    <path clip-path="url(#p5c12b6adc7)" d="M 113.716392 237.413525 
L 113.716392 216.365942 
" style="fill:none;stroke:#ff7f0e;stroke-width:1.5;"/>
    <path clip-path="url(#p5c12b6adc7)" d="M 116.491217 234.037511 
L 116.491217 212.576011 
" style="fill:none;stroke:#ff7f0e;stroke-width:1.5;"/>
    <path clip-path="url(#p5c12b6adc7)" d="M 119.266042 226.021418 
L 119.266042 203.376169 
" style="fill:none;stroke:#ff7f0e;stroke-width:1.5;"/>
    <path clip-path="url(#p5c12b6adc7)" d="M 122.040868 255.149574 
L 122.040868 238.464864 
" style="fill:none;stroke:#ff7f0e;stroke-width:1.5;"/>
    <path clip-path="url(#p5c12b6adc7)" d="M 124.815693 231.134003 
L 124.815693 209.805562 
" style="fill:none;stroke:#ff7f0e;stroke-width:1.5;"/>
    <path clip-path="url(#p5c12b6adc7)" d="M 127.590518 245.496235 
L 127.590518 227.155854 
" style="fill:none;stroke:#ff7f0e;stroke-width:1.5;"/>
    <path clip-path="url(#p5c12b6adc7)" d="M 130.365343 233.215757 
L 130.365343 212.23069 
" style="fill:none;stroke:#ff7f0e;stroke-width:1.5;"/>
    <path clip-path="url(#p5c12b6adc7)" d="M 133.140168 259.212383 
L 133.140168 242.547605 
" style="fill:none;stroke:#ff7f0e;stroke-width:1.5;"/>
    <path clip-path="url(#p5c12b6adc7)" d="M 135.914993 233.691314 
L 135.914993 212.86961 
" style="fill:none;stroke:#ff7f0e;stroke-width:1.5;"/>
    <path clip-path="url(#p5c12b6adc7)" d="M 138.689819 239.122451 
L 138.689819 219.115529 
" style="fill:none;stroke:#ff7f0e;stroke-width:1.5;"/>
    <path clip-path="url(#p5c12b6adc7)" d="M 141.464644 233.61705 
L 141.464644 212.397578 
" style="fill:none;stroke:#ff7f0e;stroke-width:1.5;"/>
    <path clip-path="url(#p5c12b6adc7)" d="M 144.239469 247.225793 
L 144.239469 227.893723 
" style="fill:none;stroke:#ff7f0e;stroke-width:1.5;"/>
    <path clip-path="url(#p5c12b6adc7)" d="M 147.014294 258.947859 
L 147.014294 242.140748 
" style="fill:none;stroke:#ff7f0e;stroke-width:1.5;"/>
    <path clip-path="url(#p5c12b6adc7)" d="M 149.789119 247.372138 
L 149.789119 228.992622 
" style="fill:none;stroke:#ff7f0e;stroke-width:1.5;"/>
    <path clip-path="url(#p5c12b6adc7)" d="M 152.563944 232.832298 
L 152.563944 212.074376 
" style="fill:none;stroke:#ff7f0e;stroke-width:1.5;"/>
    <path clip-path="url(#p5c12b6adc7)" d="M 155.33877 252.976244 
L 155.33877 235.27294 
" style="fill:none;stroke:#ff7f0e;stroke-width:1.5;"/>
    <path clip-path="url(#p5c12b6adc7)" d="M 158.113595 244.140108 
L 158.113595 224.860059 
" style="fill:none;stroke:#ff7f0e;stroke-width:1.5;"/>
    <path clip-path="url(#p5c12b6adc7)" d="M 160.88842 242.131436 
L 160.88842 222.049331 
" style="fill:none;stroke:#ff7f0e;stroke-width:1.5;"/>
    <path clip-path="url(#p5c12b6adc7)" d="M 163.663245 243.556035 
L 163.663245 224.042125 
" style="fill:none;stroke:#ff7f0e;stroke-width:1.5;"/>
    <path clip-path="url(#p5c12b6adc7)" d="M 166.43807 240.513448 
L 166.43807 220.635479 
" style="fill:none;stroke:#ff7f0e;stroke-width:1.5;"/>
    <path clip-path="url(#p5c12b6adc7)" d="M 169.212896 235.514384 
L 169.212896 215.321746 
" style="fill:none;stroke:#ff7f0e;stroke-width:1.5;"/>
    <path clip-path="url(#p5c12b6adc7)" d="M 171.987721 245.98185 
L 171.987721 227.442684 
" style="fill:none;stroke:#ff7f0e;stroke-width:1.5;"/>
    <path clip-path="url(#p5c12b6adc7)" d="M 174.762546 255.101333 
L 174.762546 237.408546 
" style="fill:none;stroke:#ff7f0e;stroke-width:1.5;"/>
    <path clip-path="url(#p5c12b6adc7)" d="M 177.537371 238.810705 
L 177.537371 219.066871 
" style="fill:none;stroke:#ff7f0e;stroke-width:1.5;"/>
    <path clip-path="url(#p5c12b6adc7)" d="M 180.312196 250.519952 
L 180.312196 232.168458 
" style="fill:none;stroke:#ff7f0e;stroke-width:1.5;"/>
    <path clip-path="url(#p5c12b6adc7)" d="M 183.087021 247.323872 
L 183.087021 229.707334 
" style="fill:none;stroke:#ff7f0e;stroke-width:1.5;"/>
    <path clip-path="url(#p5c12b6adc7)" d="M 185.861847 239.012024 
L 185.861847 218.565799 
" style="fill:none;stroke:#ff7f0e;stroke-width:1.5;"/>
    <path clip-path="url(#p5c12b6adc7)" d="M 188.636672 239.333758 
L 188.636672 219.405136 
" style="fill:none;stroke:#ff7f0e;stroke-width:1.5;"/>
    <path clip-path="url(#p5c12b6adc7)" d="M 191.411497 241.180253 
L 191.411497 222.300953 
" style="fill:none;stroke:#ff7f0e;stroke-width:1.5;"/>
    <path clip-path="url(#p5c12b6adc7)" d="M 194.186322 261.032689 
L 194.186322 244.791879 
" style="fill:none;stroke:#ff7f0e;stroke-width:1.5;"/>
    <path clip-path="url(#p5c12b6adc7)" d="M 196.961147 255.149574 
L 196.961147 238.464864 
" style="fill:none;stroke:#ff7f0e;stroke-width:1.5;"/>
    <path clip-path="url(#p5c12b6adc7)" d="M 199.735972 234.471321 
L 199.735972 214.600551 
" style="fill:none;stroke:#ff7f0e;stroke-width:1.5;"/>
    <path clip-path="url(#p5c12b6adc7)" d="M 202.510798 255.484256 
L 202.510798 239.390673 
" style="fill:none;stroke:#ff7f0e;stroke-width:1.5;"/>
    <path clip-path="url(#p5c12b6adc7)" d="M 205.285623 248.948733 
L 205.285623 230.810239 
" style="fill:none;stroke:#ff7f0e;stroke-width:1.5;"/>
    <path clip-path="url(#p5c12b6adc7)" d="M 208.060448 248.104197 
L 208.060448 230.798236 
" style="fill:none;stroke:#ff7f0e;stroke-width:1.5;"/>
    <path clip-path="url(#p5c12b6adc7)" d="M 210.835273 238.694335 
L 210.835273 218.528971 
" style="fill:none;stroke:#ff7f0e;stroke-width:1.5;"/>
    <path clip-path="url(#p5c12b6adc7)" d="M 213.610098 245.905929 
L 213.610098 226.47658 
" style="fill:none;stroke:#ff7f0e;stroke-width:1.5;"/>
    <path clip-path="url(#p5c12b6adc7)" d="M 216.384924 237.135587 
L 216.384924 216.395561 
" style="fill:none;stroke:#ff7f0e;stroke-width:1.5;"/>
    <path clip-path="url(#p5c12b6adc7)" d="M 219.159749 245.762207 
L 219.159749 226.717104 
" style="fill:none;stroke:#ff7f0e;stroke-width:1.5;"/>
    <path clip-path="url(#p5c12b6adc7)" d="M 221.934574 239.311924 
L 221.934574 220.10602 
" style="fill:none;stroke:#ff7f0e;stroke-width:1.5;"/>
    <path clip-path="url(#p5c12b6adc7)" d="M 224.709399 249.378991 
L 224.709399 230.985257 
" style="fill:none;stroke:#ff7f0e;stroke-width:1.5;"/>
    <path clip-path="url(#p5c12b6adc7)" d="M 227.484224 244.790719 
L 227.484224 226.172258 
" style="fill:none;stroke:#ff7f0e;stroke-width:1.5;"/>
    <path clip-path="url(#p5c12b6adc7)" d="M 230.259049 249.182245 
L 230.259049 231.555992 
" style="fill:none;stroke:#ff7f0e;stroke-width:1.5;"/>
    <path clip-path="url(#p5c12b6adc7)" d="M 233.033875 249.441097 
L 233.033875 231.512904 
" style="fill:none;stroke:#ff7f0e;stroke-width:1.5;"/>
    <path clip-path="url(#p5c12b6adc7)" d="M 235.8087 219.726573 
L 235.8087 196.86995 
" style="fill:none;stroke:#ff7f0e;stroke-width:1.5;"/>
    <path clip-path="url(#p5c12b6adc7)" d="M 238.583525 239.70139 
L 238.583525 220.634811 
" style="fill:none;stroke:#ff7f0e;stroke-width:1.5;"/>
    <path clip-path="url(#p5c12b6adc7)" d="M 241.35835 241.157096 
L 241.35835 221.906767 
" style="fill:none;stroke:#ff7f0e;stroke-width:1.5;"/>
    <path clip-path="url(#p5c12b6adc7)" d="M 244.133175 251.623205 
L 244.133175 234.215807 
" style="fill:none;stroke:#ff7f0e;stroke-width:1.5;"/>
    <path clip-path="url(#p5c12b6adc7)" d="M 246.908 246.849154 
L 246.908 228.252971 
" style="fill:none;stroke:#ff7f0e;stroke-width:1.5;"/>
    <path clip-path="url(#p5c12b6adc7)" d="M 249.682826 256.958634 
L 249.682826 240.679641 
" style="fill:none;stroke:#ff7f0e;stroke-width:1.5;"/>
    <path clip-path="url(#p5c12b6adc7)" d="M 252.457651 242.667848 
L 252.457651 223.983129 
" style="fill:none;stroke:#ff7f0e;stroke-width:1.5;"/>
    <path clip-path="url(#p5c12b6adc7)" d="M 255.232476 249.306465 
L 255.232476 230.409584 
" style="fill:none;stroke:#ff7f0e;stroke-width:1.5;"/>
    <path clip-path="url(#p5c12b6adc7)" d="M 258.007301 243.068933 
L 258.007301 225.530378 
" style="fill:none;stroke:#ff7f0e;stroke-width:1.5;"/>
    <path clip-path="url(#p5c12b6adc7)" d="M 260.782126 237.425491 
L 260.782126 217.897071 
" style="fill:none;stroke:#ff7f0e;stroke-width:1.5;"/>
    <path clip-path="url(#p5c12b6adc7)" d="M 263.556951 252.74802 
L 263.556951 234.434905 
" style="fill:none;stroke:#ff7f0e;stroke-width:1.5;"/>
    <path clip-path="url(#p5c12b6adc7)" d="M 266.331777 230.553059 
L 266.331777 209.384324 
" style="fill:none;stroke:#ff7f0e;stroke-width:1.5;"/>
    <path clip-path="url(#p5c12b6adc7)" d="M 269.106602 235.045348 
L 269.106602 214.326718 
" style="fill:none;stroke:#ff7f0e;stroke-width:1.5;"/>
    <path clip-path="url(#p5c12b6adc7)" d="M 271.881427 246.677548 
L 271.881427 228.804457 
" style="fill:none;stroke:#ff7f0e;stroke-width:1.5;"/>
    <path clip-path="url(#p5c12b6adc7)" d="M 274.656252 245.445601 
L 274.656252 226.690176 
" style="fill:none;stroke:#ff7f0e;stroke-width:1.5;"/>
    <path clip-path="url(#p5c12b6adc7)" d="M 277.431077 240.884521 
L 277.431077 220.739976 
" style="fill:none;stroke:#ff7f0e;stroke-width:1.5;"/>
    <path clip-path="url(#p5c12b6adc7)" d="M 280.205903 239.70139 
L 280.205903 220.634811 
" style="fill:none;stroke:#ff7f0e;stroke-width:1.5;"/>
    <path clip-path="url(#p5c12b6adc7)" d="M 282.980728 244.81208 
L 282.980728 225.376103 
" style="fill:none;stroke:#ff7f0e;stroke-width:1.5;"/>
    <path clip-path="url(#p5c12b6adc7)" d="M 285.755553 239.017201 
L 285.755553 219.348396 
" style="fill:none;stroke:#ff7f0e;stroke-width:1.5;"/>
    <path clip-path="url(#p5c12b6adc7)" d="M 288.530378 250.40164 
L 288.530378 233.285761 
" style="fill:none;stroke:#ff7f0e;stroke-width:1.5;"/>
    <path clip-path="url(#p5c12b6adc7)" d="M 291.305203 246.677548 
L 291.305203 228.804457 
" style="fill:none;stroke:#ff7f0e;stroke-width:1.5;"/>
    <path clip-path="url(#p5c12b6adc7)" d="M 294.080028 234.471321 
L 294.080028 214.600551 
" style="fill:none;stroke:#ff7f0e;stroke-width:1.5;"/>
    <path clip-path="url(#p5c12b6adc7)" d="M 296.854854 240.833612 
L 296.854854 222.173241 
" style="fill:none;stroke:#ff7f0e;stroke-width:1.5;"/>
    <path clip-path="url(#p5c12b6adc7)" d="M 299.629679 264.186826 
L 299.629679 249.727054 
" style="fill:none;stroke:#ff7f0e;stroke-width:1.5;"/>
    <path clip-path="url(#p5c12b6adc7)" d="M 302.404504 247.164173 
L 302.404504 229.484185 
" style="fill:none;stroke:#ff7f0e;stroke-width:1.5;"/>
    <path clip-path="url(#p5c12b6adc7)" d="M 305.179329 241.914447 
L 305.179329 223.643478 
" style="fill:none;stroke:#ff7f0e;stroke-width:1.5;"/>
    <path clip-path="url(#p5c12b6adc7)" d="M 307.954154 251.293692 
L 307.954154 234.160344 
" style="fill:none;stroke:#ff7f0e;stroke-width:1.5;"/>
    <path clip-path="url(#p5c12b6adc7)" d="M 310.728979 233.226861 
L 310.728979 213.265908 
" style="fill:none;stroke:#ff7f0e;stroke-width:1.5;"/>
    <path clip-path="url(#p5c12b6adc7)" d="M 313.503805 252.79893 
L 313.503805 237.047633 
" style="fill:none;stroke:#ff7f0e;stroke-width:1.5;"/>
    <path clip-path="url(#p5c12b6adc7)" d="M 316.27863 236.932424 
L 316.27863 217.886992 
" style="fill:none;stroke:#ff7f0e;stroke-width:1.5;"/>
    <path clip-path="url(#p5c12b6adc7)" d="M 319.053455 238.514024 
L 319.053455 219.023332 
" style="fill:none;stroke:#ff7f0e;stroke-width:1.5;"/>
    <path clip-path="url(#p5c12b6adc7)" d="M 321.82828 244.594202 
L 321.82828 226.635421 
" style="fill:none;stroke:#ff7f0e;stroke-width:1.5;"/>
    <path clip-path="url(#p5c12b6adc7)" d="M 324.603105 252.934682 
L 324.603105 236.107616 
" style="fill:none;stroke:#ff7f0e;stroke-width:1.5;"/>
    <path clip-path="url(#p5c12b6adc7)" d="M 327.377931 250.543584 
L 327.377931 233.087729 
" style="fill:none;stroke:#ff7f0e;stroke-width:1.5;"/>
    <path clip-path="url(#p5c12b6adc7)" d="M 330.152756 241.03905 
L 330.152756 222.779875 
" style="fill:none;stroke:#ff7f0e;stroke-width:1.5;"/>
    <path clip-path="url(#p5c12b6adc7)" d="M 332.927581 251.585492 
L 332.927581 234.577851 
" style="fill:none;stroke:#ff7f0e;stroke-width:1.5;"/>
    <path clip-path="url(#p5c12b6adc7)" d="M 335.702406 260.174328 
L 335.702406 244.552148 
" style="fill:none;stroke:#ff7f0e;stroke-width:1.5;"/>
    <path clip-path="url(#p5c12b6adc7)" d="M 338.477231 247.031951 
L 338.477231 228.078529 
" style="fill:none;stroke:#ff7f0e;stroke-width:1.5;"/>
    <path clip-path="url(#p5c12b6adc7)" d="M 341.252056 255.897456 
L 341.252056 240.392102 
" style="fill:none;stroke:#ff7f0e;stroke-width:1.5;"/>
    <path clip-path="url(#p5c12b6adc7)" d="M 344.026882 248.784734 
L 344.026882 231.383146 
" style="fill:none;stroke:#ff7f0e;stroke-width:1.5;"/>
    <path clip-path="url(#p5c12b6adc7)" d="M 346.801707 251.585492 
L 346.801707 234.577851 
" style="fill:none;stroke:#ff7f0e;stroke-width:1.5;"/>
    <path clip-path="url(#p5c12b6adc7)" d="M 349.576532 245.98185 
L 349.576532 227.442684 
" style="fill:none;stroke:#ff7f0e;stroke-width:1.5;"/>
    <path clip-path="url(#p5c12b6adc7)" d="M 352.351357 229.497482 
L 352.351357 209.833783 
" style="fill:none;stroke:#ff7f0e;stroke-width:1.5;"/>
    <path clip-path="url(#p5c12b6adc7)" d="M 355.126182 235.951342 
L 355.126182 215.910142 
" style="fill:none;stroke:#ff7f0e;stroke-width:1.5;"/>
    <path clip-path="url(#p5c12b6adc7)" d="M 357.901007 243.115022 
L 357.901007 225.278459 
" style="fill:none;stroke:#ff7f0e;stroke-width:1.5;"/>
    <path clip-path="url(#p5c12b6adc7)" d="M 360.675833 250.839622 
L 360.675833 233.907635 
" style="fill:none;stroke:#ff7f0e;stroke-width:1.5;"/>
    <path clip-path="url(#p5c12b6adc7)" d="M 363.450658 226.841899 
L 363.450658 207.184562 
" style="fill:none;stroke:#ff7f0e;stroke-width:1.5;"/>
    <path clip-path="url(#p5c12b6adc7)" d="M 366.225483 230.406799 
L 366.225483 209.852221 
" style="fill:none;stroke:#ff7f0e;stroke-width:1.5;"/>
    <path clip-path="url(#p5c12b6adc7)" d="M 369.000308 236.152854 
L 369.000308 216.521352 
" style="fill:none;stroke:#ff7f0e;stroke-width:1.5;"/>
    <path clip-path="url(#p5c12b6adc7)" d="M 371.775133 246.989396 
L 371.775133 229.600303 
" style="fill:none;stroke:#ff7f0e;stroke-width:1.5;"/>
    <path clip-path="url(#p5c12b6adc7)" d="M 374.549958 239.829781 
L 374.549958 221.462416 
" style="fill:none;stroke:#ff7f0e;stroke-width:1.5;"/>
    <path clip-path="url(#p5c12b6adc7)" d="M 377.324784 240.230279 
L 377.324784 222.302945 
" style="fill:none;stroke:#ff7f0e;stroke-width:1.5;"/>
    <path clip-path="url(#p5c12b6adc7)" d="M 380.099609 247.710979 
L 380.099609 230.937949 
" style="fill:none;stroke:#ff7f0e;stroke-width:1.5;"/>
    <path clip-path="url(#p5c12b6adc7)" d="M 382.874434 259.792197 
L 382.874434 244.455188 
" style="fill:none;stroke:#ff7f0e;stroke-width:1.5;"/>
    <path clip-path="url(#p5c12b6adc7)" d="M 385.649259 257.311821 
L 385.649259 241.648975 
" style="fill:none;stroke:#ff7f0e;stroke-width:1.5;"/>
    <path clip-path="url(#p5c12b6adc7)" d="M 388.424084 242.436676 
L 388.424084 224.354424 
" style="fill:none;stroke:#ff7f0e;stroke-width:1.5;"/>
    <path clip-path="url(#p5c12b6adc7)" d="M 391.19891 237.534574 
L 391.19891 217.328392 
" style="fill:none;stroke:#ff7f0e;stroke-width:1.5;"/>
    <path clip-path="url(#p5c12b6adc7)" d="M 393.973735 242.127835 
L 393.973735 222.46654 
" style="fill:none;stroke:#ff7f0e;stroke-width:1.5;"/>
    <path clip-path="url(#p5c12b6adc7)" d="M 396.74856 256.170946 
L 396.74856 239.508898 
" style="fill:none;stroke:#ff7f0e;stroke-width:1.5;"/>
    <path clip-path="url(#p5c12b6adc7)" d="M 399.523385 248.272592 
L 399.523385 229.845946 
" style="fill:none;stroke:#ff7f0e;stroke-width:1.5;"/>
    <path clip-path="url(#p5c12b6adc7)" d="M 402.29821 244.610705 
L 402.29821 225.921411 
" style="fill:none;stroke:#ff7f0e;stroke-width:1.5;"/>
   </g>
   <g id="line2d_27">
    <path clip-path="url(#p5c12b6adc7)" d="M 77.643665 62.047959 
L 80.41849 82.199919 
L 83.193315 68.138669 
L 85.96814 103.638101 
L 88.742965 68.770089 
L 91.517791 40.505543 
L 94.292616 58.828583 
L 97.067441 49.259884 
L 99.842266 77.038619 
L 102.617091 68.48671 
L 105.391917 80.167629 
L 108.166742 72.523235 
L 110.941567 88.076305 
L 113.716392 95.341778 
L 116.491217 124.025482 
L 119.266042 88.740819 
L 122.040868 102.139537 
L 124.815693 113.091586 
L 127.590518 88.145449 
L 130.365343 93.225316 
L 133.140168 112.80586 
L 135.914993 102.108545 
L 138.689819 95.649906 
L 141.464644 119.210374 
L 144.239469 120.617492 
L 147.014294 124.306954 
L 149.789119 130.974881 
L 152.563944 93.473873 
L 155.33877 124.690119 
L 158.113595 122.051728 
L 160.88842 109.215657 
L 163.663245 114.226315 
L 166.43807 107.844528 
L 169.212896 100.498724 
L 171.987721 101.181841 
L 174.762546 142.337229 
L 177.537371 148.227571 
L 180.312196 119.814151 
L 183.087021 117.384447 
L 185.861847 162.170533 
L 188.636672 128.278818 
L 191.411497 112.32107 
L 194.186322 149.554026 
L 196.961147 155.28107 
L 199.735972 135.694496 
L 202.510798 151.444139 
L 205.285623 154.290428 
L 208.060448 104.234425 
L 210.835273 118.613182 
L 213.610098 142.870263 
L 216.384924 133.756362 
L 219.159749 129.826869 
L 221.934574 160.894706 
L 224.709399 129.267074 
L 227.484224 144.832508 
L 230.259049 134.455891 
L 233.033875 115.774012 
L 235.8087 106.081418 
L 238.583525 151.606689 
L 241.35835 116.967514 
L 244.133175 123.87931 
L 246.908 117.908352 
L 249.682826 129.762568 
L 252.457651 139.007682 
L 255.232476 153.330071 
L 258.007301 152.865798 
L 260.782126 143.066563 
L 263.556951 171.309617 
L 266.331777 153.447822 
L 269.106602 135.034904 
L 271.881427 117.166781 
L 274.656252 159.056651 
L 277.431077 147.663913 
L 280.205903 151.042764 
L 282.980728 142.176016 
L 285.755553 149.731224 
L 288.530378 138.17877 
L 291.305203 166.155847 
L 294.080028 132.507566 
L 296.854854 131.077637 
L 299.629679 130.593826 
L 302.404504 152.489261 
L 305.179329 153.443879 
L 307.954154 146.078656 
L 310.728979 146.5291 
L 313.503805 135.079154 
L 316.27863 152.151991 
L 319.053455 150.856953 
L 321.82828 145.96804 
L 324.603105 113.980455 
L 327.377931 119.951832 
L 330.152756 130.646019 
L 332.927581 145.722715 
L 335.702406 127.723216 
L 338.477231 155.045067 
L 341.252056 136.873285 
L 344.026882 137.463184 
L 346.801707 139.727584 
L 349.576532 115.774012 
L 352.351357 133.580031 
L 355.126182 152.816114 
L 357.901007 139.649183 
L 360.675833 152.043954 
L 363.450658 134.444644 
L 366.225483 110.230115 
L 369.000308 117.516604 
L 371.775133 132.577581 
L 374.549958 129.489745 
L 377.324784 142.188638 
L 380.099609 129.307001 
L 382.874434 118.04116 
L 385.649259 134.466871 
L 388.424084 163.810881 
L 391.19891 135.071977 
L 393.973735 115.554576 
L 396.74856 131.854973 
L 399.523385 125.149566 
L 402.29821 120.552365 
" style="fill:none;stroke:#1f77b4;stroke-linecap:square;stroke-width:1.5;"/>
    <defs>
     <path d="M 0 3 
C 0.795609 3 1.55874 2.683901 2.12132 2.12132 
C 2.683901 1.55874 3 0.795609 3 0 
C 3 -0.795609 2.683901 -1.55874 2.12132 -2.12132 
C 1.55874 -2.683901 0.795609 -3 0 -3 
C -0.795609 -3 -1.55874 -2.683901 -2.12132 -2.12132 
C -2.683901 -1.55874 -3 -0.795609 -3 0 
C -3 0.795609 -2.683901 1.55874 -2.12132 2.12132 
C -1.55874 2.683901 -0.795609 3 0 3 
z
" id="mcb2457e3ba" style="stroke:#1f77b4;"/>
    </defs>
    <g clip-path="url(#p5c12b6adc7)">
     <use style="fill:#1f77b4;stroke:#1f77b4;" x="77.643665" xlink:href="#mcb2457e3ba" y="62.047959"/>
     <use style="fill:#1f77b4;stroke:#1f77b4;" x="80.41849" xlink:href="#mcb2457e3ba" y="82.199919"/>
     <use style="fill:#1f77b4;stroke:#1f77b4;" x="83.193315" xlink:href="#mcb2457e3ba" y="68.138669"/>
     <use style="fill:#1f77b4;stroke:#1f77b4;" x="85.96814" xlink:href="#mcb2457e3ba" y="103.638101"/>
     <use style="fill:#1f77b4;stroke:#1f77b4;" x="88.742965" xlink:href="#mcb2457e3ba" y="68.770089"/>
     <use style="fill:#1f77b4;stroke:#1f77b4;" x="91.517791" xlink:href="#mcb2457e3ba" y="40.505543"/>
     <use style="fill:#1f77b4;stroke:#1f77b4;" x="94.292616" xlink:href="#mcb2457e3ba" y="58.828583"/>
     <use style="fill:#1f77b4;stroke:#1f77b4;" x="97.067441" xlink:href="#mcb2457e3ba" y="49.259884"/>
     <use style="fill:#1f77b4;stroke:#1f77b4;" x="99.842266" xlink:href="#mcb2457e3ba" y="77.038619"/>
     <use style="fill:#1f77b4;stroke:#1f77b4;" x="102.617091" xlink:href="#mcb2457e3ba" y="68.48671"/>
     <use style="fill:#1f77b4;stroke:#1f77b4;" x="105.391917" xlink:href="#mcb2457e3ba" y="80.167629"/>
     <use style="fill:#1f77b4;stroke:#1f77b4;" x="108.166742" xlink:href="#mcb2457e3ba" y="72.523235"/>
     <use style="fill:#1f77b4;stroke:#1f77b4;" x="110.941567" xlink:href="#mcb2457e3ba" y="88.076305"/>
     <use style="fill:#1f77b4;stroke:#1f77b4;" x="113.716392" xlink:href="#mcb2457e3ba" y="95.341778"/>
     <use style="fill:#1f77b4;stroke:#1f77b4;" x="116.491217" xlink:href="#mcb2457e3ba" y="124.025482"/>
     <use style="fill:#1f77b4;stroke:#1f77b4;" x="119.266042" xlink:href="#mcb2457e3ba" y="88.740819"/>
     <use style="fill:#1f77b4;stroke:#1f77b4;" x="122.040868" xlink:href="#mcb2457e3ba" y="102.139537"/>
     <use style="fill:#1f77b4;stroke:#1f77b4;" x="124.815693" xlink:href="#mcb2457e3ba" y="113.091586"/>
     <use style="fill:#1f77b4;stroke:#1f77b4;" x="127.590518" xlink:href="#mcb2457e3ba" y="88.145449"/>
     <use style="fill:#1f77b4;stroke:#1f77b4;" x="130.365343" xlink:href="#mcb2457e3ba" y="93.225316"/>
     <use style="fill:#1f77b4;stroke:#1f77b4;" x="133.140168" xlink:href="#mcb2457e3ba" y="112.80586"/>
     <use style="fill:#1f77b4;stroke:#1f77b4;" x="135.914993" xlink:href="#mcb2457e3ba" y="102.108545"/>
     <use style="fill:#1f77b4;stroke:#1f77b4;" x="138.689819" xlink:href="#mcb2457e3ba" y="95.649906"/>
     <use style="fill:#1f77b4;stroke:#1f77b4;" x="141.464644" xlink:href="#mcb2457e3ba" y="119.210374"/>
     <use style="fill:#1f77b4;stroke:#1f77b4;" x="144.239469" xlink:href="#mcb2457e3ba" y="120.617492"/>
     <use style="fill:#1f77b4;stroke:#1f77b4;" x="147.014294" xlink:href="#mcb2457e3ba" y="124.306954"/>
     <use style="fill:#1f77b4;stroke:#1f77b4;" x="149.789119" xlink:href="#mcb2457e3ba" y="130.974881"/>
     <use style="fill:#1f77b4;stroke:#1f77b4;" x="152.563944" xlink:href="#mcb2457e3ba" y="93.473873"/>
     <use style="fill:#1f77b4;stroke:#1f77b4;" x="155.33877" xlink:href="#mcb2457e3ba" y="124.690119"/>
     <use style="fill:#1f77b4;stroke:#1f77b4;" x="158.113595" xlink:href="#mcb2457e3ba" y="122.051728"/>
     <use style="fill:#1f77b4;stroke:#1f77b4;" x="160.88842" xlink:href="#mcb2457e3ba" y="109.215657"/>
     <use style="fill:#1f77b4;stroke:#1f77b4;" x="163.663245" xlink:href="#mcb2457e3ba" y="114.226315"/>
     <use style="fill:#1f77b4;stroke:#1f77b4;" x="166.43807" xlink:href="#mcb2457e3ba" y="107.844528"/>
     <use style="fill:#1f77b4;stroke:#1f77b4;" x="169.212896" xlink:href="#mcb2457e3ba" y="100.498724"/>
     <use style="fill:#1f77b4;stroke:#1f77b4;" x="171.987721" xlink:href="#mcb2457e3ba" y="101.181841"/>
     <use style="fill:#1f77b4;stroke:#1f77b4;" x="174.762546" xlink:href="#mcb2457e3ba" y="142.337229"/>
     <use style="fill:#1f77b4;stroke:#1f77b4;" x="177.537371" xlink:href="#mcb2457e3ba" y="148.227571"/>
     <use style="fill:#1f77b4;stroke:#1f77b4;" x="180.312196" xlink:href="#mcb2457e3ba" y="119.814151"/>
     <use style="fill:#1f77b4;stroke:#1f77b4;" x="183.087021" xlink:href="#mcb2457e3ba" y="117.384447"/>
     <use style="fill:#1f77b4;stroke:#1f77b4;" x="185.861847" xlink:href="#mcb2457e3ba" y="162.170533"/>
     <use style="fill:#1f77b4;stroke:#1f77b4;" x="188.636672" xlink:href="#mcb2457e3ba" y="128.278818"/>
     <use style="fill:#1f77b4;stroke:#1f77b4;" x="191.411497" xlink:href="#mcb2457e3ba" y="112.32107"/>
     <use style="fill:#1f77b4;stroke:#1f77b4;" x="194.186322" xlink:href="#mcb2457e3ba" y="149.554026"/>
     <use style="fill:#1f77b4;stroke:#1f77b4;" x="196.961147" xlink:href="#mcb2457e3ba" y="155.28107"/>
     <use style="fill:#1f77b4;stroke:#1f77b4;" x="199.735972" xlink:href="#mcb2457e3ba" y="135.694496"/>
     <use style="fill:#1f77b4;stroke:#1f77b4;" x="202.510798" xlink:href="#mcb2457e3ba" y="151.444139"/>
     <use style="fill:#1f77b4;stroke:#1f77b4;" x="205.285623" xlink:href="#mcb2457e3ba" y="154.290428"/>
     <use style="fill:#1f77b4;stroke:#1f77b4;" x="208.060448" xlink:href="#mcb2457e3ba" y="104.234425"/>
     <use style="fill:#1f77b4;stroke:#1f77b4;" x="210.835273" xlink:href="#mcb2457e3ba" y="118.613182"/>
     <use style="fill:#1f77b4;stroke:#1f77b4;" x="213.610098" xlink:href="#mcb2457e3ba" y="142.870263"/>
     <use style="fill:#1f77b4;stroke:#1f77b4;" x="216.384924" xlink:href="#mcb2457e3ba" y="133.756362"/>
     <use style="fill:#1f77b4;stroke:#1f77b4;" x="219.159749" xlink:href="#mcb2457e3ba" y="129.826869"/>
     <use style="fill:#1f77b4;stroke:#1f77b4;" x="221.934574" xlink:href="#mcb2457e3ba" y="160.894706"/>
     <use style="fill:#1f77b4;stroke:#1f77b4;" x="224.709399" xlink:href="#mcb2457e3ba" y="129.267074"/>
     <use style="fill:#1f77b4;stroke:#1f77b4;" x="227.484224" xlink:href="#mcb2457e3ba" y="144.832508"/>
     <use style="fill:#1f77b4;stroke:#1f77b4;" x="230.259049" xlink:href="#mcb2457e3ba" y="134.455891"/>
     <use style="fill:#1f77b4;stroke:#1f77b4;" x="233.033875" xlink:href="#mcb2457e3ba" y="115.774012"/>
     <use style="fill:#1f77b4;stroke:#1f77b4;" x="235.8087" xlink:href="#mcb2457e3ba" y="106.081418"/>
     <use style="fill:#1f77b4;stroke:#1f77b4;" x="238.583525" xlink:href="#mcb2457e3ba" y="151.606689"/>
     <use style="fill:#1f77b4;stroke:#1f77b4;" x="241.35835" xlink:href="#mcb2457e3ba" y="116.967514"/>
     <use style="fill:#1f77b4;stroke:#1f77b4;" x="244.133175" xlink:href="#mcb2457e3ba" y="123.87931"/>
     <use style="fill:#1f77b4;stroke:#1f77b4;" x="246.908" xlink:href="#mcb2457e3ba" y="117.908352"/>
     <use style="fill:#1f77b4;stroke:#1f77b4;" x="249.682826" xlink:href="#mcb2457e3ba" y="129.762568"/>
     <use style="fill:#1f77b4;stroke:#1f77b4;" x="252.457651" xlink:href="#mcb2457e3ba" y="139.007682"/>
     <use style="fill:#1f77b4;stroke:#1f77b4;" x="255.232476" xlink:href="#mcb2457e3ba" y="153.330071"/>
     <use style="fill:#1f77b4;stroke:#1f77b4;" x="258.007301" xlink:href="#mcb2457e3ba" y="152.865798"/>
     <use style="fill:#1f77b4;stroke:#1f77b4;" x="260.782126" xlink:href="#mcb2457e3ba" y="143.066563"/>
     <use style="fill:#1f77b4;stroke:#1f77b4;" x="263.556951" xlink:href="#mcb2457e3ba" y="171.309617"/>
     <use style="fill:#1f77b4;stroke:#1f77b4;" x="266.331777" xlink:href="#mcb2457e3ba" y="153.447822"/>
     <use style="fill:#1f77b4;stroke:#1f77b4;" x="269.106602" xlink:href="#mcb2457e3ba" y="135.034904"/>
     <use style="fill:#1f77b4;stroke:#1f77b4;" x="271.881427" xlink:href="#mcb2457e3ba" y="117.166781"/>
     <use style="fill:#1f77b4;stroke:#1f77b4;" x="274.656252" xlink:href="#mcb2457e3ba" y="159.056651"/>
     <use style="fill:#1f77b4;stroke:#1f77b4;" x="277.431077" xlink:href="#mcb2457e3ba" y="147.663913"/>
     <use style="fill:#1f77b4;stroke:#1f77b4;" x="280.205903" xlink:href="#mcb2457e3ba" y="151.042764"/>
     <use style="fill:#1f77b4;stroke:#1f77b4;" x="282.980728" xlink:href="#mcb2457e3ba" y="142.176016"/>
     <use style="fill:#1f77b4;stroke:#1f77b4;" x="285.755553" xlink:href="#mcb2457e3ba" y="149.731224"/>
     <use style="fill:#1f77b4;stroke:#1f77b4;" x="288.530378" xlink:href="#mcb2457e3ba" y="138.17877"/>
     <use style="fill:#1f77b4;stroke:#1f77b4;" x="291.305203" xlink:href="#mcb2457e3ba" y="166.155847"/>
     <use style="fill:#1f77b4;stroke:#1f77b4;" x="294.080028" xlink:href="#mcb2457e3ba" y="132.507566"/>
     <use style="fill:#1f77b4;stroke:#1f77b4;" x="296.854854" xlink:href="#mcb2457e3ba" y="131.077637"/>
     <use style="fill:#1f77b4;stroke:#1f77b4;" x="299.629679" xlink:href="#mcb2457e3ba" y="130.593826"/>
     <use style="fill:#1f77b4;stroke:#1f77b4;" x="302.404504" xlink:href="#mcb2457e3ba" y="152.489261"/>
     <use style="fill:#1f77b4;stroke:#1f77b4;" x="305.179329" xlink:href="#mcb2457e3ba" y="153.443879"/>
     <use style="fill:#1f77b4;stroke:#1f77b4;" x="307.954154" xlink:href="#mcb2457e3ba" y="146.078656"/>
     <use style="fill:#1f77b4;stroke:#1f77b4;" x="310.728979" xlink:href="#mcb2457e3ba" y="146.5291"/>
     <use style="fill:#1f77b4;stroke:#1f77b4;" x="313.503805" xlink:href="#mcb2457e3ba" y="135.079154"/>
     <use style="fill:#1f77b4;stroke:#1f77b4;" x="316.27863" xlink:href="#mcb2457e3ba" y="152.151991"/>
     <use style="fill:#1f77b4;stroke:#1f77b4;" x="319.053455" xlink:href="#mcb2457e3ba" y="150.856953"/>
     <use style="fill:#1f77b4;stroke:#1f77b4;" x="321.82828" xlink:href="#mcb2457e3ba" y="145.96804"/>
     <use style="fill:#1f77b4;stroke:#1f77b4;" x="324.603105" xlink:href="#mcb2457e3ba" y="113.980455"/>
     <use style="fill:#1f77b4;stroke:#1f77b4;" x="327.377931" xlink:href="#mcb2457e3ba" y="119.951832"/>
     <use style="fill:#1f77b4;stroke:#1f77b4;" x="330.152756" xlink:href="#mcb2457e3ba" y="130.646019"/>
     <use style="fill:#1f77b4;stroke:#1f77b4;" x="332.927581" xlink:href="#mcb2457e3ba" y="145.722715"/>
     <use style="fill:#1f77b4;stroke:#1f77b4;" x="335.702406" xlink:href="#mcb2457e3ba" y="127.723216"/>
     <use style="fill:#1f77b4;stroke:#1f77b4;" x="338.477231" xlink:href="#mcb2457e3ba" y="155.045067"/>
     <use style="fill:#1f77b4;stroke:#1f77b4;" x="341.252056" xlink:href="#mcb2457e3ba" y="136.873285"/>
     <use style="fill:#1f77b4;stroke:#1f77b4;" x="344.026882" xlink:href="#mcb2457e3ba" y="137.463184"/>
     <use style="fill:#1f77b4;stroke:#1f77b4;" x="346.801707" xlink:href="#mcb2457e3ba" y="139.727584"/>
     <use style="fill:#1f77b4;stroke:#1f77b4;" x="349.576532" xlink:href="#mcb2457e3ba" y="115.774012"/>
     <use style="fill:#1f77b4;stroke:#1f77b4;" x="352.351357" xlink:href="#mcb2457e3ba" y="133.580031"/>
     <use style="fill:#1f77b4;stroke:#1f77b4;" x="355.126182" xlink:href="#mcb2457e3ba" y="152.816114"/>
     <use style="fill:#1f77b4;stroke:#1f77b4;" x="357.901007" xlink:href="#mcb2457e3ba" y="139.649183"/>
     <use style="fill:#1f77b4;stroke:#1f77b4;" x="360.675833" xlink:href="#mcb2457e3ba" y="152.043954"/>
     <use style="fill:#1f77b4;stroke:#1f77b4;" x="363.450658" xlink:href="#mcb2457e3ba" y="134.444644"/>
     <use style="fill:#1f77b4;stroke:#1f77b4;" x="366.225483" xlink:href="#mcb2457e3ba" y="110.230115"/>
     <use style="fill:#1f77b4;stroke:#1f77b4;" x="369.000308" xlink:href="#mcb2457e3ba" y="117.516604"/>
     <use style="fill:#1f77b4;stroke:#1f77b4;" x="371.775133" xlink:href="#mcb2457e3ba" y="132.577581"/>
     <use style="fill:#1f77b4;stroke:#1f77b4;" x="374.549958" xlink:href="#mcb2457e3ba" y="129.489745"/>
     <use style="fill:#1f77b4;stroke:#1f77b4;" x="377.324784" xlink:href="#mcb2457e3ba" y="142.188638"/>
     <use style="fill:#1f77b4;stroke:#1f77b4;" x="380.099609" xlink:href="#mcb2457e3ba" y="129.307001"/>
     <use style="fill:#1f77b4;stroke:#1f77b4;" x="382.874434" xlink:href="#mcb2457e3ba" y="118.04116"/>
     <use style="fill:#1f77b4;stroke:#1f77b4;" x="385.649259" xlink:href="#mcb2457e3ba" y="134.466871"/>
     <use style="fill:#1f77b4;stroke:#1f77b4;" x="388.424084" xlink:href="#mcb2457e3ba" y="163.810881"/>
     <use style="fill:#1f77b4;stroke:#1f77b4;" x="391.19891" xlink:href="#mcb2457e3ba" y="135.071977"/>
     <use style="fill:#1f77b4;stroke:#1f77b4;" x="393.973735" xlink:href="#mcb2457e3ba" y="115.554576"/>
     <use style="fill:#1f77b4;stroke:#1f77b4;" x="396.74856" xlink:href="#mcb2457e3ba" y="131.854973"/>
     <use style="fill:#1f77b4;stroke:#1f77b4;" x="399.523385" xlink:href="#mcb2457e3ba" y="125.149566"/>
     <use style="fill:#1f77b4;stroke:#1f77b4;" x="402.29821" xlink:href="#mcb2457e3ba" y="120.552365"/>
    </g>
   </g>
   <g id="line2d_28">
    <path clip-path="url(#p5c12b6adc7)" d="M 77.643665 212.552662 
L 80.41849 229.369447 
L 83.193315 237.56466 
L 85.96814 239.731157 
L 88.742965 243.386504 
L 91.517791 253.87275 
L 94.292616 246.620194 
L 97.067441 256.228808 
L 99.842266 229.822478 
L 102.617091 242.547605 
L 105.391917 232.090384 
L 108.166742 236.191255 
L 110.941567 258.067248 
L 113.716392 226.889734 
L 116.491217 223.306761 
L 119.266042 214.698794 
L 122.040868 246.807219 
L 124.815693 220.469782 
L 127.590518 236.326044 
L 130.365343 222.723223 
L 133.140168 250.879994 
L 135.914993 223.280462 
L 138.689819 229.11899 
L 141.464644 223.007314 
L 144.239469 237.559758 
L 147.014294 250.544303 
L 149.789119 238.18238 
L 152.563944 222.453337 
L 155.33877 244.124592 
L 158.113595 234.500083 
L 160.88842 232.090384 
L 163.663245 233.79908 
L 166.43807 230.574463 
L 169.212896 225.418065 
L 171.987721 236.712267 
L 174.762546 246.254939 
L 177.537371 228.938788 
L 180.312196 241.344205 
L 183.087021 238.515603 
L 185.861847 228.788911 
L 188.636672 229.369447 
L 191.411497 231.740603 
L 194.186322 252.912284 
L 196.961147 246.807219 
L 199.735972 224.535936 
L 202.510798 247.437465 
L 205.285623 239.879486 
L 208.060448 239.451217 
L 210.835273 228.611653 
L 213.610098 236.191255 
L 216.384924 226.765574 
L 219.159749 236.239655 
L 221.934574 229.708972 
L 224.709399 240.182124 
L 227.484224 235.481489 
L 230.259049 240.369118 
L 233.033875 240.477001 
L 235.8087 208.298261 
L 238.583525 230.1681 
L 241.35835 231.531932 
L 244.133175 242.919506 
L 246.908 237.551062 
L 249.682826 248.819138 
L 252.457651 233.325488 
L 255.232476 239.858024 
L 258.007301 234.299656 
L 260.782126 227.661281 
L 263.556951 243.591463 
L 266.331777 219.968691 
L 269.106602 224.686033 
L 271.881427 237.741002 
L 274.656252 236.067888 
L 277.431077 230.812249 
L 280.205903 230.1681 
L 282.980728 235.094092 
L 285.755553 229.182799 
L 288.530378 241.8437 
L 291.305203 237.741002 
L 294.080028 224.535936 
L 296.854854 231.503427 
L 299.629679 256.95694 
L 302.404504 238.324179 
L 305.179329 232.778963 
L 307.954154 242.727018 
L 310.728979 223.246385 
L 313.503805 244.923282 
L 316.27863 227.409708 
L 319.053455 228.768678 
L 321.82828 235.614811 
L 324.603105 244.521149 
L 327.377931 241.815656 
L 330.152756 231.909463 
L 332.927581 243.081672 
L 335.702406 252.363238 
L 338.477231 237.55524 
L 341.252056 248.144779 
L 344.026882 240.08394 
L 346.801707 243.081672 
L 349.576532 236.712267 
L 352.351357 219.665633 
L 355.126182 225.930742 
L 357.901007 234.19674 
L 360.675833 242.373628 
L 363.450658 217.01323 
L 366.225483 220.12951 
L 369.000308 226.337103 
L 371.775133 238.29485 
L 374.549958 230.646099 
L 377.324784 231.266612 
L 380.099609 239.324464 
L 382.874434 252.123693 
L 385.649259 249.480398 
L 388.424084 233.39555 
L 391.19891 227.431483 
L 393.973735 232.297187 
L 396.74856 247.839922 
L 399.523385 239.059269 
L 402.29821 235.266058 
" style="fill:none;stroke:#ff7f0e;stroke-linecap:square;stroke-width:1.5;"/>
    <defs>
     <path d="M 0 3 
C 0.795609 3 1.55874 2.683901 2.12132 2.12132 
C 2.683901 1.55874 3 0.795609 3 0 
C 3 -0.795609 2.683901 -1.55874 2.12132 -2.12132 
C 1.55874 -2.683901 0.795609 -3 0 -3 
C -0.795609 -3 -1.55874 -2.683901 -2.12132 -2.12132 
C -2.683901 -1.55874 -3 -0.795609 -3 0 
C -3 0.795609 -2.683901 1.55874 -2.12132 2.12132 
C -1.55874 2.683901 -0.795609 3 0 3 
z
" id="mbbb2a9d153" style="stroke:#ff7f0e;"/>
    </defs>
    <g clip-path="url(#p5c12b6adc7)">
     <use style="fill:#ff7f0e;stroke:#ff7f0e;" x="77.643665" xlink:href="#mbbb2a9d153" y="212.552662"/>
     <use style="fill:#ff7f0e;stroke:#ff7f0e;" x="80.41849" xlink:href="#mbbb2a9d153" y="229.369447"/>
     <use style="fill:#ff7f0e;stroke:#ff7f0e;" x="83.193315" xlink:href="#mbbb2a9d153" y="237.56466"/>
     <use style="fill:#ff7f0e;stroke:#ff7f0e;" x="85.96814" xlink:href="#mbbb2a9d153" y="239.731157"/>
     <use style="fill:#ff7f0e;stroke:#ff7f0e;" x="88.742965" xlink:href="#mbbb2a9d153" y="243.386504"/>
     <use style="fill:#ff7f0e;stroke:#ff7f0e;" x="91.517791" xlink:href="#mbbb2a9d153" y="253.87275"/>
     <use style="fill:#ff7f0e;stroke:#ff7f0e;" x="94.292616" xlink:href="#mbbb2a9d153" y="246.620194"/>
     <use style="fill:#ff7f0e;stroke:#ff7f0e;" x="97.067441" xlink:href="#mbbb2a9d153" y="256.228808"/>
     <use style="fill:#ff7f0e;stroke:#ff7f0e;" x="99.842266" xlink:href="#mbbb2a9d153" y="229.822478"/>
     <use style="fill:#ff7f0e;stroke:#ff7f0e;" x="102.617091" xlink:href="#mbbb2a9d153" y="242.547605"/>
     <use style="fill:#ff7f0e;stroke:#ff7f0e;" x="105.391917" xlink:href="#mbbb2a9d153" y="232.090384"/>
     <use style="fill:#ff7f0e;stroke:#ff7f0e;" x="108.166742" xlink:href="#mbbb2a9d153" y="236.191255"/>
     <use style="fill:#ff7f0e;stroke:#ff7f0e;" x="110.941567" xlink:href="#mbbb2a9d153" y="258.067248"/>
     <use style="fill:#ff7f0e;stroke:#ff7f0e;" x="113.716392" xlink:href="#mbbb2a9d153" y="226.889734"/>
     <use style="fill:#ff7f0e;stroke:#ff7f0e;" x="116.491217" xlink:href="#mbbb2a9d153" y="223.306761"/>
     <use style="fill:#ff7f0e;stroke:#ff7f0e;" x="119.266042" xlink:href="#mbbb2a9d153" y="214.698794"/>
     <use style="fill:#ff7f0e;stroke:#ff7f0e;" x="122.040868" xlink:href="#mbbb2a9d153" y="246.807219"/>
     <use style="fill:#ff7f0e;stroke:#ff7f0e;" x="124.815693" xlink:href="#mbbb2a9d153" y="220.469782"/>
     <use style="fill:#ff7f0e;stroke:#ff7f0e;" x="127.590518" xlink:href="#mbbb2a9d153" y="236.326044"/>
     <use style="fill:#ff7f0e;stroke:#ff7f0e;" x="130.365343" xlink:href="#mbbb2a9d153" y="222.723223"/>
     <use style="fill:#ff7f0e;stroke:#ff7f0e;" x="133.140168" xlink:href="#mbbb2a9d153" y="250.879994"/>
     <use style="fill:#ff7f0e;stroke:#ff7f0e;" x="135.914993" xlink:href="#mbbb2a9d153" y="223.280462"/>
     <use style="fill:#ff7f0e;stroke:#ff7f0e;" x="138.689819" xlink:href="#mbbb2a9d153" y="229.11899"/>
     <use style="fill:#ff7f0e;stroke:#ff7f0e;" x="141.464644" xlink:href="#mbbb2a9d153" y="223.007314"/>
     <use style="fill:#ff7f0e;stroke:#ff7f0e;" x="144.239469" xlink:href="#mbbb2a9d153" y="237.559758"/>
     <use style="fill:#ff7f0e;stroke:#ff7f0e;" x="147.014294" xlink:href="#mbbb2a9d153" y="250.544303"/>
     <use style="fill:#ff7f0e;stroke:#ff7f0e;" x="149.789119" xlink:href="#mbbb2a9d153" y="238.18238"/>
     <use style="fill:#ff7f0e;stroke:#ff7f0e;" x="152.563944" xlink:href="#mbbb2a9d153" y="222.453337"/>
     <use style="fill:#ff7f0e;stroke:#ff7f0e;" x="155.33877" xlink:href="#mbbb2a9d153" y="244.124592"/>
     <use style="fill:#ff7f0e;stroke:#ff7f0e;" x="158.113595" xlink:href="#mbbb2a9d153" y="234.500083"/>
     <use style="fill:#ff7f0e;stroke:#ff7f0e;" x="160.88842" xlink:href="#mbbb2a9d153" y="232.090384"/>
     <use style="fill:#ff7f0e;stroke:#ff7f0e;" x="163.663245" xlink:href="#mbbb2a9d153" y="233.79908"/>
     <use style="fill:#ff7f0e;stroke:#ff7f0e;" x="166.43807" xlink:href="#mbbb2a9d153" y="230.574463"/>
     <use style="fill:#ff7f0e;stroke:#ff7f0e;" x="169.212896" xlink:href="#mbbb2a9d153" y="225.418065"/>
     <use style="fill:#ff7f0e;stroke:#ff7f0e;" x="171.987721" xlink:href="#mbbb2a9d153" y="236.712267"/>
     <use style="fill:#ff7f0e;stroke:#ff7f0e;" x="174.762546" xlink:href="#mbbb2a9d153" y="246.254939"/>
     <use style="fill:#ff7f0e;stroke:#ff7f0e;" x="177.537371" xlink:href="#mbbb2a9d153" y="228.938788"/>
     <use style="fill:#ff7f0e;stroke:#ff7f0e;" x="180.312196" xlink:href="#mbbb2a9d153" y="241.344205"/>
     <use style="fill:#ff7f0e;stroke:#ff7f0e;" x="183.087021" xlink:href="#mbbb2a9d153" y="238.515603"/>
     <use style="fill:#ff7f0e;stroke:#ff7f0e;" x="185.861847" xlink:href="#mbbb2a9d153" y="228.788911"/>
     <use style="fill:#ff7f0e;stroke:#ff7f0e;" x="188.636672" xlink:href="#mbbb2a9d153" y="229.369447"/>
     <use style="fill:#ff7f0e;stroke:#ff7f0e;" x="191.411497" xlink:href="#mbbb2a9d153" y="231.740603"/>
     <use style="fill:#ff7f0e;stroke:#ff7f0e;" x="194.186322" xlink:href="#mbbb2a9d153" y="252.912284"/>
     <use style="fill:#ff7f0e;stroke:#ff7f0e;" x="196.961147" xlink:href="#mbbb2a9d153" y="246.807219"/>
     <use style="fill:#ff7f0e;stroke:#ff7f0e;" x="199.735972" xlink:href="#mbbb2a9d153" y="224.535936"/>
     <use style="fill:#ff7f0e;stroke:#ff7f0e;" x="202.510798" xlink:href="#mbbb2a9d153" y="247.437465"/>
     <use style="fill:#ff7f0e;stroke:#ff7f0e;" x="205.285623" xlink:href="#mbbb2a9d153" y="239.879486"/>
     <use style="fill:#ff7f0e;stroke:#ff7f0e;" x="208.060448" xlink:href="#mbbb2a9d153" y="239.451217"/>
     <use style="fill:#ff7f0e;stroke:#ff7f0e;" x="210.835273" xlink:href="#mbbb2a9d153" y="228.611653"/>
     <use style="fill:#ff7f0e;stroke:#ff7f0e;" x="213.610098" xlink:href="#mbbb2a9d153" y="236.191255"/>
     <use style="fill:#ff7f0e;stroke:#ff7f0e;" x="216.384924" xlink:href="#mbbb2a9d153" y="226.765574"/>
     <use style="fill:#ff7f0e;stroke:#ff7f0e;" x="219.159749" xlink:href="#mbbb2a9d153" y="236.239655"/>
     <use style="fill:#ff7f0e;stroke:#ff7f0e;" x="221.934574" xlink:href="#mbbb2a9d153" y="229.708972"/>
     <use style="fill:#ff7f0e;stroke:#ff7f0e;" x="224.709399" xlink:href="#mbbb2a9d153" y="240.182124"/>
     <use style="fill:#ff7f0e;stroke:#ff7f0e;" x="227.484224" xlink:href="#mbbb2a9d153" y="235.481489"/>
     <use style="fill:#ff7f0e;stroke:#ff7f0e;" x="230.259049" xlink:href="#mbbb2a9d153" y="240.369118"/>
     <use style="fill:#ff7f0e;stroke:#ff7f0e;" x="233.033875" xlink:href="#mbbb2a9d153" y="240.477001"/>
     <use style="fill:#ff7f0e;stroke:#ff7f0e;" x="235.8087" xlink:href="#mbbb2a9d153" y="208.298261"/>
     <use style="fill:#ff7f0e;stroke:#ff7f0e;" x="238.583525" xlink:href="#mbbb2a9d153" y="230.1681"/>
     <use style="fill:#ff7f0e;stroke:#ff7f0e;" x="241.35835" xlink:href="#mbbb2a9d153" y="231.531932"/>
     <use style="fill:#ff7f0e;stroke:#ff7f0e;" x="244.133175" xlink:href="#mbbb2a9d153" y="242.919506"/>
     <use style="fill:#ff7f0e;stroke:#ff7f0e;" x="246.908" xlink:href="#mbbb2a9d153" y="237.551062"/>
     <use style="fill:#ff7f0e;stroke:#ff7f0e;" x="249.682826" xlink:href="#mbbb2a9d153" y="248.819138"/>
     <use style="fill:#ff7f0e;stroke:#ff7f0e;" x="252.457651" xlink:href="#mbbb2a9d153" y="233.325488"/>
     <use style="fill:#ff7f0e;stroke:#ff7f0e;" x="255.232476" xlink:href="#mbbb2a9d153" y="239.858024"/>
     <use style="fill:#ff7f0e;stroke:#ff7f0e;" x="258.007301" xlink:href="#mbbb2a9d153" y="234.299656"/>
     <use style="fill:#ff7f0e;stroke:#ff7f0e;" x="260.782126" xlink:href="#mbbb2a9d153" y="227.661281"/>
     <use style="fill:#ff7f0e;stroke:#ff7f0e;" x="263.556951" xlink:href="#mbbb2a9d153" y="243.591463"/>
     <use style="fill:#ff7f0e;stroke:#ff7f0e;" x="266.331777" xlink:href="#mbbb2a9d153" y="219.968691"/>
     <use style="fill:#ff7f0e;stroke:#ff7f0e;" x="269.106602" xlink:href="#mbbb2a9d153" y="224.686033"/>
     <use style="fill:#ff7f0e;stroke:#ff7f0e;" x="271.881427" xlink:href="#mbbb2a9d153" y="237.741002"/>
     <use style="fill:#ff7f0e;stroke:#ff7f0e;" x="274.656252" xlink:href="#mbbb2a9d153" y="236.067888"/>
     <use style="fill:#ff7f0e;stroke:#ff7f0e;" x="277.431077" xlink:href="#mbbb2a9d153" y="230.812249"/>
     <use style="fill:#ff7f0e;stroke:#ff7f0e;" x="280.205903" xlink:href="#mbbb2a9d153" y="230.1681"/>
     <use style="fill:#ff7f0e;stroke:#ff7f0e;" x="282.980728" xlink:href="#mbbb2a9d153" y="235.094092"/>
     <use style="fill:#ff7f0e;stroke:#ff7f0e;" x="285.755553" xlink:href="#mbbb2a9d153" y="229.182799"/>
     <use style="fill:#ff7f0e;stroke:#ff7f0e;" x="288.530378" xlink:href="#mbbb2a9d153" y="241.8437"/>
     <use style="fill:#ff7f0e;stroke:#ff7f0e;" x="291.305203" xlink:href="#mbbb2a9d153" y="237.741002"/>
     <use style="fill:#ff7f0e;stroke:#ff7f0e;" x="294.080028" xlink:href="#mbbb2a9d153" y="224.535936"/>
     <use style="fill:#ff7f0e;stroke:#ff7f0e;" x="296.854854" xlink:href="#mbbb2a9d153" y="231.503427"/>
     <use style="fill:#ff7f0e;stroke:#ff7f0e;" x="299.629679" xlink:href="#mbbb2a9d153" y="256.95694"/>
     <use style="fill:#ff7f0e;stroke:#ff7f0e;" x="302.404504" xlink:href="#mbbb2a9d153" y="238.324179"/>
     <use style="fill:#ff7f0e;stroke:#ff7f0e;" x="305.179329" xlink:href="#mbbb2a9d153" y="232.778963"/>
     <use style="fill:#ff7f0e;stroke:#ff7f0e;" x="307.954154" xlink:href="#mbbb2a9d153" y="242.727018"/>
     <use style="fill:#ff7f0e;stroke:#ff7f0e;" x="310.728979" xlink:href="#mbbb2a9d153" y="223.246385"/>
     <use style="fill:#ff7f0e;stroke:#ff7f0e;" x="313.503805" xlink:href="#mbbb2a9d153" y="244.923282"/>
     <use style="fill:#ff7f0e;stroke:#ff7f0e;" x="316.27863" xlink:href="#mbbb2a9d153" y="227.409708"/>
     <use style="fill:#ff7f0e;stroke:#ff7f0e;" x="319.053455" xlink:href="#mbbb2a9d153" y="228.768678"/>
     <use style="fill:#ff7f0e;stroke:#ff7f0e;" x="321.82828" xlink:href="#mbbb2a9d153" y="235.614811"/>
     <use style="fill:#ff7f0e;stroke:#ff7f0e;" x="324.603105" xlink:href="#mbbb2a9d153" y="244.521149"/>
     <use style="fill:#ff7f0e;stroke:#ff7f0e;" x="327.377931" xlink:href="#mbbb2a9d153" y="241.815656"/>
     <use style="fill:#ff7f0e;stroke:#ff7f0e;" x="330.152756" xlink:href="#mbbb2a9d153" y="231.909463"/>
     <use style="fill:#ff7f0e;stroke:#ff7f0e;" x="332.927581" xlink:href="#mbbb2a9d153" y="243.081672"/>
     <use style="fill:#ff7f0e;stroke:#ff7f0e;" x="335.702406" xlink:href="#mbbb2a9d153" y="252.363238"/>
     <use style="fill:#ff7f0e;stroke:#ff7f0e;" x="338.477231" xlink:href="#mbbb2a9d153" y="237.55524"/>
     <use style="fill:#ff7f0e;stroke:#ff7f0e;" x="341.252056" xlink:href="#mbbb2a9d153" y="248.144779"/>
     <use style="fill:#ff7f0e;stroke:#ff7f0e;" x="344.026882" xlink:href="#mbbb2a9d153" y="240.08394"/>
     <use style="fill:#ff7f0e;stroke:#ff7f0e;" x="346.801707" xlink:href="#mbbb2a9d153" y="243.081672"/>
     <use style="fill:#ff7f0e;stroke:#ff7f0e;" x="349.576532" xlink:href="#mbbb2a9d153" y="236.712267"/>
     <use style="fill:#ff7f0e;stroke:#ff7f0e;" x="352.351357" xlink:href="#mbbb2a9d153" y="219.665633"/>
     <use style="fill:#ff7f0e;stroke:#ff7f0e;" x="355.126182" xlink:href="#mbbb2a9d153" y="225.930742"/>
     <use style="fill:#ff7f0e;stroke:#ff7f0e;" x="357.901007" xlink:href="#mbbb2a9d153" y="234.19674"/>
     <use style="fill:#ff7f0e;stroke:#ff7f0e;" x="360.675833" xlink:href="#mbbb2a9d153" y="242.373628"/>
     <use style="fill:#ff7f0e;stroke:#ff7f0e;" x="363.450658" xlink:href="#mbbb2a9d153" y="217.01323"/>
     <use style="fill:#ff7f0e;stroke:#ff7f0e;" x="366.225483" xlink:href="#mbbb2a9d153" y="220.12951"/>
     <use style="fill:#ff7f0e;stroke:#ff7f0e;" x="369.000308" xlink:href="#mbbb2a9d153" y="226.337103"/>
     <use style="fill:#ff7f0e;stroke:#ff7f0e;" x="371.775133" xlink:href="#mbbb2a9d153" y="238.29485"/>
     <use style="fill:#ff7f0e;stroke:#ff7f0e;" x="374.549958" xlink:href="#mbbb2a9d153" y="230.646099"/>
     <use style="fill:#ff7f0e;stroke:#ff7f0e;" x="377.324784" xlink:href="#mbbb2a9d153" y="231.266612"/>
     <use style="fill:#ff7f0e;stroke:#ff7f0e;" x="380.099609" xlink:href="#mbbb2a9d153" y="239.324464"/>
     <use style="fill:#ff7f0e;stroke:#ff7f0e;" x="382.874434" xlink:href="#mbbb2a9d153" y="252.123693"/>
     <use style="fill:#ff7f0e;stroke:#ff7f0e;" x="385.649259" xlink:href="#mbbb2a9d153" y="249.480398"/>
     <use style="fill:#ff7f0e;stroke:#ff7f0e;" x="388.424084" xlink:href="#mbbb2a9d153" y="233.39555"/>
     <use style="fill:#ff7f0e;stroke:#ff7f0e;" x="391.19891" xlink:href="#mbbb2a9d153" y="227.431483"/>
     <use style="fill:#ff7f0e;stroke:#ff7f0e;" x="393.973735" xlink:href="#mbbb2a9d153" y="232.297187"/>
     <use style="fill:#ff7f0e;stroke:#ff7f0e;" x="396.74856" xlink:href="#mbbb2a9d153" y="247.839922"/>
     <use style="fill:#ff7f0e;stroke:#ff7f0e;" x="399.523385" xlink:href="#mbbb2a9d153" y="239.059269"/>
     <use style="fill:#ff7f0e;stroke:#ff7f0e;" x="402.29821" xlink:href="#mbbb2a9d153" y="235.266058"/>
    </g>
   </g>
   <g id="patch_3">
    <path d="M 61.410938 277.826367 
L 61.410938 11.714367 
" style="fill:none;stroke:#000000;stroke-linecap:square;stroke-linejoin:miter;stroke-width:0.8;"/>
   </g>
   <g id="patch_4">
    <path d="M 418.530938 277.826367 
L 418.530938 11.714367 
" style="fill:none;stroke:#000000;stroke-linecap:square;stroke-linejoin:miter;stroke-width:0.8;"/>
   </g>
   <g id="patch_5">
    <path d="M 61.410938 277.826367 
L 418.530938 277.826367 
" style="fill:none;stroke:#000000;stroke-linecap:square;stroke-linejoin:miter;stroke-width:0.8;"/>
   </g>
   <g id="patch_6">
    <path d="M 61.410938 11.714367 
L 418.530938 11.714367 
" style="fill:none;stroke:#000000;stroke-linecap:square;stroke-linejoin:miter;stroke-width:0.8;"/>
   </g>
   <g id="legend_1">
    <g id="patch_7">
     <path d="M 302.368438 86.426867 
L 404.530938 86.426867 
Q 408.530938 86.426867 408.530938 82.426867 
L 408.530938 25.714367 
Q 408.530938 21.714367 404.530938 21.714367 
L 302.368438 21.714367 
Q 298.368438 21.714367 298.368438 25.714367 
L 298.368438 82.426867 
Q 298.368438 86.426867 302.368438 86.426867 
z
" style="fill:#ffffff;opacity:0.8;stroke:#cccccc;stroke-linejoin:miter;"/>
    </g>
    <g id="LineCollection_3">
     <path d="M 326.368438 47.911242 
L 326.368438 27.911242 
" style="fill:none;stroke:#1f77b4;stroke-width:1.5;"/>
    </g>
    <g id="line2d_29">
     <path d="M 306.368438 37.911242 
L 346.368438 37.911242 
" style="fill:none;stroke:#1f77b4;stroke-linecap:square;stroke-width:1.5;"/>
    </g>
    <g id="line2d_30">
     <g>
      <use style="fill:#1f77b4;stroke:#1f77b4;" x="326.368438" xlink:href="#mcb2457e3ba" y="37.911242"/>
     </g>
    </g>
    <g id="text_16">
     <!-- 2, 2 -->
     <defs>
      <path d="M 11.71875 12.40625 
L 22.015625 12.40625 
L 22.015625 4 
L 14.015625 -11.625 
L 7.71875 -11.625 
L 11.71875 4 
z
" id="DejaVuSans-2c"/>
     </defs>
     <g transform="translate(362.368438 44.911242)scale(0.2 -0.2)">
      <use xlink:href="#DejaVuSans-32"/>
      <use x="63.623047" xlink:href="#DejaVuSans-2c"/>
      <use x="95.410156" xlink:href="#DejaVuSans-20"/>
      <use x="127.197266" xlink:href="#DejaVuSans-32"/>
     </g>
    </g>
    <g id="LineCollection_4">
     <path d="M 326.368438 77.267492 
L 326.368438 57.267492 
" style="fill:none;stroke:#ff7f0e;stroke-width:1.5;"/>
    </g>
    <g id="line2d_31">
     <path d="M 306.368438 67.267492 
L 346.368438 67.267492 
" style="fill:none;stroke:#ff7f0e;stroke-linecap:square;stroke-width:1.5;"/>
    </g>
    <g id="line2d_32">
     <g>
      <use style="fill:#ff7f0e;stroke:#ff7f0e;" x="326.368438" xlink:href="#mbbb2a9d153" y="67.267492"/>
     </g>
    </g>
    <g id="text_17">
     <!-- 2, 1 -->
     <g transform="translate(362.368438 74.267492)scale(0.2 -0.2)">
      <use xlink:href="#DejaVuSans-32"/>
      <use x="63.623047" xlink:href="#DejaVuSans-2c"/>
      <use x="95.410156" xlink:href="#DejaVuSans-20"/>
      <use x="127.197266" xlink:href="#DejaVuSans-31"/>
     </g>
    </g>
   </g>
  </g>
 </g>
 <defs>
  <clipPath id="p5c12b6adc7">
   <rect height="266.112" width="357.12" x="61.410938" y="11.714367"/>
  </clipPath>
 </defs>
</svg>
