  0
SECTION
  2
HEADER
  9
$MEASUREMENT
  70
  1
  9
$INSUNITS
  70
  4
  0
ENDSEC
  0
SECTION
  2
TABLES
  0
TABLE
  2
LTYPE
 70
     1
  0
LTYPE
  2
CONTINUOUS
 70
    64
  3
Ausgezogene Linie
 72
    65
 73
     0
 40
0.0
  0
ENDTAB
  0
TABLE
  2
LAYER
 70
     3
  0
LAYER
  2
Contour
 70
    64
 62
     7
  6
CONTINUOUS
  0
LAYER
  2
Engraving
 70
    64
 62
     7
  6
CONTINUOUS
  0
LAYER
  2
Reference_points
 70
    64
 62
     1
  6
CONTINUOUS
  0
ENDTAB
  0
TABLE
  2
STYLE
 70
     1
  0
STYLE
  2
TXT
 70
    64
 40
0.0
 41
1.0
 50
0.0
 71
     0
 42
3.500000
  3
TXT
  0
ENDTAB
  0
ENDSEC
  0
SECTION
  2
BLOCKS
  0
ENDSEC
  0
SECTION
  2
ENTITIES
  0
LINE
  8
Contour
 62
   7
 39
0.100
  6
CONTINUOUS
 10
418.84000
 20
132.59000
 30
 0
 11
0.00000
 21
132.59000
  0
LINE
  8
Contour
 62
   7
 39
0.100
  6
CONTINUOUS
 10
0.00000
 20
132.59000
 30
 0
 11
0.00000
 21
132.59000
  0
LINE
  8
Contour
 62
   7
 39
0.100
  6
CONTINUOUS
 10
0.00000
 20
132.59000
 30
 0
 11
0.00000
 21
0.00000
  0
LINE
  8
Contour
 62
   7
 39
0.100
  6
CONTINUOUS
 10
0.00000
 20
0.00000
 30
 0
 11
0.00000
 21
0.00000
  0
LINE
  8
Contour
 62
   7
 39
0.100
  6
CONTINUOUS
 10
0.00000
 20
0.00000
 30
 0
 11
418.84000
 21
0.00000
  0
LINE
  8
Contour
 62
   7
 39
0.100
  6
CONTINUOUS
 10
418.84000
 20
0.00000
 30
 0
 11
418.84000
 21
0.00000
  0
LINE
  8
Contour
 62
   7
 39
0.100
  6
CONTINUOUS
 10
418.84000
 20
0.00000
 30
 0
 11
418.84000
 21
132.59000
  0
LINE
  8
Contour
 62
   7
 39
0.100
  6
CONTINUOUS
 10
418.84000
 20
132.59000
 30
 0
 11
418.84000
 21
132.59000
  0
CIRCLE
  8
Contour
 62
   7
 39
0.100
  6
CONTINUOUS
 10
30.13200
 20
89.68000
 30
 0
 40
12.00000
  0
CIRCLE
  8
Contour
 62
   7
 39
0.100
  6
CONTINUOUS
 10
20.63200
 20
77.68000
 30
 0
 40
1.60000
  0
CIRCLE
  8
Contour
 62
   7
 39
0.100
  6
CONTINUOUS
 10
39.63200
 20
101.68000
 30
 0
 40
1.60000
  0
ARC
  8
Contour
 62
   7
 39
0.100
  6
CONTINUOUS
 10
19.13000
 20
33.74200
 30
 0
 40
1.50000
 50
179.96180
 51
-151.65785
  0
LINE
  8
Contour
 62
   7
 39
0.100
  6
CONTINUOUS
 10
17.63000
 20
33.74300
 30
 0
 11
17.63000
 21
45.61700
  0
ARC
  8
Contour
 62
   7
 39
0.100
  6
CONTINUOUS
 10
19.13000
 20
45.61800
 30
 0
 40
1.50000
 50
151.65785
 51
-179.96180
  0
ARC
  8
Contour
 62
   7
 39
0.100
  6
CONTINUOUS
 10
30.13000
 20
39.68000
 30
 0
 40
14.00000
 50
208.35896
 51
151.64104
  0
ARC
  8
Contour
 62
   7
 39
0.100
  6
CONTINUOUS
 10
370.13000
 20
97.11300
 30
 0
 40
1.50000
 50
360.00000
 51
27.55576
  0
LINE
  8
Contour
 62
   7
 39
0.100
  6
CONTINUOUS
 10
371.63000
 20
97.11300
 30
 0
 11
371.63000
 21
52.24700
  0
ARC
  8
Contour
 62
   7
 39
0.100
  6
CONTINUOUS
 10
370.13000
 20
52.24700
 30
 0
 40
1.50000
 50
332.44424
 51
0.00000
  0
ARC
  8
Contour
 62
   7
 39
0.100
  6
CONTINUOUS
 10
327.13000
 20
74.68000
 30
 0
 40
50.00000
 50
297.55109
 51
-27.55109
  0
ARC
  8
Contour
 62
   7
 39
0.100
  6
CONTINUOUS
 10
349.56300
 20
31.68000
 30
 0
 40
1.50000
 50
270.00000
 51
-62.44424
  0
LINE
  8
Contour
 62
   7
 39
0.100
  6
CONTINUOUS
 10
349.56300
 20
30.18000
 30
 0
 11
304.69700
 21
30.18000
  0
ARC
  8
Contour
 62
   7
 39
0.100
  6
CONTINUOUS
 10
304.69700
 20
31.68000
 30
 0
 40
1.50000
 50
242.44424
 51
-90.00000
  0
ARC
  8
Contour
 62
   7
 39
0.100
  6
CONTINUOUS
 10
327.13000
 20
74.68000
 30
 0
 40
50.00000
 50
207.55109
 51
-117.55109
  0
ARC
  8
Contour
 62
   7
 39
0.100
  6
CONTINUOUS
 10
284.13000
 20
52.24700
 30
 0
 40
1.50000
 50
180.00000
 51
-152.44424
  0
LINE
  8
Contour
 62
   7
 39
0.100
  6
CONTINUOUS
 10
282.63000
 20
52.24700
 30
 0
 11
282.63000
 21
97.11300
  0
ARC
  8
Contour
 62
   7
 39
0.100
  6
CONTINUOUS
 10
284.13000
 20
97.11300
 30
 0
 40
1.50000
 50
512.44424
 51
180.00000
  0
ARC
  8
Contour
 62
   7
 39
0.100
  6
CONTINUOUS
 10
327.13000
 20
74.68000
 30
 0
 40
50.00000
 50
477.55109
 51
152.44891
  0
ARC
  8
Contour
 62
   7
 39
0.100
  6
CONTINUOUS
 10
304.69700
 20
117.68000
 30
 0
 40
1.50000
 50
450.00000
 51
117.55576
  0
LINE
  8
Contour
 62
   7
 39
0.100
  6
CONTINUOUS
 10
304.69700
 20
119.18000
 30
 0
 11
349.56300
 21
119.18000
  0
ARC
  8
Contour
 62
   7
 39
0.100
  6
CONTINUOUS
 10
349.56300
 20
117.68000
 30
 0
 40
1.50000
 50
422.44424
 51
90.00000
  0
ARC
  8
Contour
 62
   7
 39
0.100
  6
CONTINUOUS
 10
327.13000
 20
74.68000
 30
 0
 40
50.00000
 50
387.55109
 51
62.44891
  0
CIRCLE
  8
Contour
 62
   7
 39
0.100
  6
CONTINUOUS
 10
368.38000
 20
115.93000
 30
 0
 40
2.15000
  0
CIRCLE
  8
Contour
 62
   7
 39
0.100
  6
CONTINUOUS
 10
285.88000
 20
115.93000
 30
 0
 40
2.15000
  0
CIRCLE
  8
Contour
 62
   7
 39
0.100
  6
CONTINUOUS
 10
285.88000
 20
33.43000
 30
 0
 40
2.15000
  0
CIRCLE
  8
Contour
 62
   7
 39
0.100
  6
CONTINUOUS
 10
368.38000
 20
33.43000
 30
 0
 40
2.15000
  0
LINE
  8
Contour
 62
   7
 39
0.100
  6
CONTINUOUS
 10
277.13000
 20
116.68000
 30
 0
 11
277.13000
 21
32.68000
  0
ARC
  8
Contour
 62
   7
 39
0.100
  6
CONTINUOUS
 10
274.63000
 20
32.68000
 30
 0
 40
2.50000
 50
270.00000
 51
0.00000
  0
LINE
  8
Contour
 62
   7
 39
0.100
  6
CONTINUOUS
 10
274.63000
 20
30.18000
 30
 0
 11
274.63000
 21
30.18000
  0
ARC
  8
Contour
 62
   7
 39
0.100
  6
CONTINUOUS
 10
274.63000
 20
32.68000
 30
 0
 40
2.50000
 50
180.00000
 51
-90.00000
  0
LINE
  8
Contour
 62
   7
 39
0.100
  6
CONTINUOUS
 10
272.13000
 20
32.68000
 30
 0
 11
272.13000
 21
116.68000
  0
ARC
  8
Contour
 62
   7
 39
0.100
  6
CONTINUOUS
 10
274.63000
 20
116.68000
 30
 0
 40
2.50000
 50
450.00000
 51
180.00000
  0
LINE
  8
Contour
 62
   7
 39
0.100
  6
CONTINUOUS
 10
274.63000
 20
119.18000
 30
 0
 11
274.63000
 21
119.18000
  0
ARC
  8
Contour
 62
   7
 39
0.100
  6
CONTINUOUS
 10
274.63000
 20
116.68000
 30
 0
 40
2.50000
 50
360.00000
 51
90.00000
  0
LINE
  8
Contour
 62
   7
 39
0.100
  6
CONTINUOUS
 10
267.13000
 20
116.68000
 30
 0
 11
267.13000
 21
32.68000
  0
ARC
  8
Contour
 62
   7
 39
0.100
  6
CONTINUOUS
 10
264.63000
 20
32.68000
 30
 0
 40
2.50000
 50
270.00000
 51
0.00000
  0
LINE
  8
Contour
 62
   7
 39
0.100
  6
CONTINUOUS
 10
264.63000
 20
30.18000
 30
 0
 11
264.63000
 21
30.18000
  0
ARC
  8
Contour
 62
   7
 39
0.100
  6
CONTINUOUS
 10
264.63000
 20
32.68000
 30
 0
 40
2.50000
 50
180.00000
 51
-90.00000
  0
LINE
  8
Contour
 62
   7
 39
0.100
  6
CONTINUOUS
 10
262.13000
 20
32.68000
 30
 0
 11
262.13000
 21
116.68000
  0
ARC
  8
Contour
 62
   7
 39
0.100
  6
CONTINUOUS
 10
264.63000
 20
116.68000
 30
 0
 40
2.50000
 50
450.00000
 51
180.00000
  0
LINE
  8
Contour
 62
   7
 39
0.100
  6
CONTINUOUS
 10
264.63000
 20
119.18000
 30
 0
 11
264.63000
 21
119.18000
  0
ARC
  8
Contour
 62
   7
 39
0.100
  6
CONTINUOUS
 10
264.63000
 20
116.68000
 30
 0
 40
2.50000
 50
360.00000
 51
90.00000
  0
ARC
  8
Contour
 62
   7
 39
0.100
  6
CONTINUOUS
 10
384.13000
 20
33.74200
 30
 0
 40
1.50000
 50
179.96180
 51
-151.65785
  0
LINE
  8
Contour
 62
   7
 39
0.100
  6
CONTINUOUS
 10
382.63000
 20
33.74300
 30
 0
 11
382.63000
 21
45.61700
  0
ARC
  8
Contour
 62
   7
 39
0.100
  6
CONTINUOUS
 10
384.13000
 20
45.61800
 30
 0
 40
1.50000
 50
151.65785
 51
-179.96180
  0
ARC
  8
Contour
 62
   7
 39
0.100
  6
CONTINUOUS
 10
395.13000
 20
39.68000
 30
 0
 40
14.00000
 50
208.35896
 51
151.64104
  0
LINE
  8
Reference_points
 62
   1
 39
0.100
  6
CONTINUOUS
 10
-1.00000
 20
0.00000
 30
 0
 11
1.00000
 21
0.00000
  0
LINE
  8
Reference_points
 62
   1
 39
0.100
  6
CONTINUOUS
 10
0.00000
 20
-1.00000
 30
 0
 11
0.00000
 21
1.00000
  0
LINE
  8
Reference_points
 62
   1
 39
0.100
  6
CONTINUOUS
 10
29.13200
 20
89.68000
 30
 0
 11
31.13200
 21
89.68000
  0
LINE
  8
Reference_points
 62
   1
 39
0.100
  6
CONTINUOUS
 10
30.13200
 20
88.68000
 30
 0
 11
30.13200
 21
90.68000
  0
LINE
  8
Reference_points
 62
   1
 39
0.100
  6
CONTINUOUS
 10
19.63200
 20
77.68000
 30
 0
 11
21.63200
 21
77.68000
  0
LINE
  8
Reference_points
 62
   1
 39
0.100
  6
CONTINUOUS
 10
20.63200
 20
76.68000
 30
 0
 11
20.63200
 21
78.68000
  0
LINE
  8
Reference_points
 62
   1
 39
0.100
  6
CONTINUOUS
 10
38.63200
 20
101.68000
 30
 0
 11
40.63200
 21
101.68000
  0
LINE
  8
Reference_points
 62
   1
 39
0.100
  6
CONTINUOUS
 10
39.63200
 20
100.68000
 30
 0
 11
39.63200
 21
102.68000
  0
LINE
  8
Reference_points
 62
   1
 39
0.100
  6
CONTINUOUS
 10
29.13100
 20
89.68000
 30
 0
 11
31.13100
 21
89.68000
  0
LINE
  8
Reference_points
 62
   1
 39
0.100
  6
CONTINUOUS
 10
30.13100
 20
88.68000
 30
 0
 11
30.13100
 21
90.68000
  0
LINE
  8
Reference_points
 62
   1
 39
0.100
  6
CONTINUOUS
 10
29.13000
 20
39.68000
 30
 0
 11
31.13000
 21
39.68000
  0
LINE
  8
Reference_points
 62
   1
 39
0.100
  6
CONTINUOUS
 10
30.13000
 20
38.68000
 30
 0
 11
30.13000
 21
40.68000
  0
LINE
  8
Reference_points
 62
   1
 39
0.100
  6
CONTINUOUS
 10
326.13000
 20
74.68000
 30
 0
 11
328.13000
 21
74.68000
  0
LINE
  8
Reference_points
 62
   1
 39
0.100
  6
CONTINUOUS
 10
327.13000
 20
73.68000
 30
 0
 11
327.13000
 21
75.68000
  0
LINE
  8
Reference_points
 62
   1
 39
0.100
  6
CONTINUOUS
 10
367.38000
 20
115.93000
 30
 0
 11
369.38000
 21
115.93000
  0
LINE
  8
Reference_points
 62
   1
 39
0.100
  6
CONTINUOUS
 10
368.38000
 20
114.93000
 30
 0
 11
368.38000
 21
116.93000
  0
LINE
  8
Reference_points
 62
   1
 39
0.100
  6
CONTINUOUS
 10
284.88000
 20
115.93000
 30
 0
 11
286.88000
 21
115.93000
  0
LINE
  8
Reference_points
 62
   1
 39
0.100
  6
CONTINUOUS
 10
285.88000
 20
114.93000
 30
 0
 11
285.88000
 21
116.93000
  0
LINE
  8
Reference_points
 62
   1
 39
0.100
  6
CONTINUOUS
 10
284.88000
 20
33.43000
 30
 0
 11
286.88000
 21
33.43000
  0
LINE
  8
Reference_points
 62
   1
 39
0.100
  6
CONTINUOUS
 10
285.88000
 20
32.43000
 30
 0
 11
285.88000
 21
34.43000
  0
LINE
  8
Reference_points
 62
   1
 39
0.100
  6
CONTINUOUS
 10
367.38000
 20
33.43000
 30
 0
 11
369.38000
 21
33.43000
  0
LINE
  8
Reference_points
 62
   1
 39
0.100
  6
CONTINUOUS
 10
368.38000
 20
32.43000
 30
 0
 11
368.38000
 21
34.43000
  0
LINE
  8
Reference_points
 62
   1
 39
0.100
  6
CONTINUOUS
 10
326.13000
 20
74.68000
 30
 0
 11
328.13000
 21
74.68000
  0
LINE
  8
Reference_points
 62
   1
 39
0.100
  6
CONTINUOUS
 10
327.13000
 20
73.68000
 30
 0
 11
327.13000
 21
75.68000
  0
LINE
  8
Reference_points
 62
   1
 39
0.100
  6
CONTINUOUS
 10
273.63000
 20
74.68000
 30
 0
 11
275.63000
 21
74.68000
  0
LINE
  8
Reference_points
 62
   1
 39
0.100
  6
CONTINUOUS
 10
274.63000
 20
73.68000
 30
 0
 11
274.63000
 21
75.68000
  0
LINE
  8
Reference_points
 62
   1
 39
0.100
  6
CONTINUOUS
 10
263.63000
 20
74.68000
 30
 0
 11
265.63000
 21
74.68000
  0
LINE
  8
Reference_points
 62
   1
 39
0.100
  6
CONTINUOUS
 10
264.63000
 20
73.68000
 30
 0
 11
264.63000
 21
75.68000
  0
LINE
  8
Reference_points
 62
   1
 39
0.100
  6
CONTINUOUS
 10
394.13000
 20
39.68000
 30
 0
 11
396.13000
 21
39.68000
  0
LINE
  8
Reference_points
 62
   1
 39
0.100
  6
CONTINUOUS
 10
395.13000
 20
38.68000
 30
 0
 11
395.13000
 21
40.68000
  0
ENDSEC
  0
EOF
