  0
SECTION
  2
HEADER
  9
$MEASUREMENT
  70
  1
  9
$INSUNITS
  70
  4
  0
ENDSEC
  0
SECTION
  2
TABLES
  0
TABLE
  2
LTYPE
 70
     1
  0
LTYPE
  2
CONTINUOUS
 70
    64
  3
Ausgezogene Linie
 72
    65
 73
     0
 40
0.0
  0
ENDTAB
  0
TABLE
  2
LAYER
 70
     3
  0
LAYER
  2
Contour
 70
    64
 62
     7
  6
CONTINUOUS
  0
LAYER
  2
Engraving
 70
    64
 62
     7
  6
CONTINUOUS
  0
LAYER
  2
Reference_points
 70
    64
 62
     1
  6
CONTINUOUS
  0
ENDTAB
  0
TABLE
  2
STYLE
 70
     1
  0
STYLE
  2
TXT
 70
    64
 40
0.0
 41
1.0
 50
0.0
 71
     0
 42
3.500000
  3
TXT
  0
ENDTAB
  0
ENDSEC
  0
SECTION
  2
BLOCKS
  0
ENDSEC
  0
SECTION
  2
ENTITIES
  0
LINE
  8
Contour
 62
   7
 39
0.100
  6
CONTINUOUS
 10
418.84000
 20
132.59000
 30
 0
 11
0.00000
 21
132.59000
  0
LINE
  8
Contour
 62
   7
 39
0.100
  6
CONTINUOUS
 10
0.00000
 20
132.59000
 30
 0
 11
0.00000
 21
132.59000
  0
LINE
  8
Contour
 62
   7
 39
0.100
  6
CONTINUOUS
 10
0.00000
 20
132.59000
 30
 0
 11
0.00000
 21
0.00000
  0
LINE
  8
Contour
 62
   7
 39
0.100
  6
CONTINUOUS
 10
0.00000
 20
0.00000
 30
 0
 11
0.00000
 21
0.00000
  0
LINE
  8
Contour
 62
   7
 39
0.100
  6
CONTINUOUS
 10
0.00000
 20
0.00000
 30
 0
 11
418.84000
 21
0.00000
  0
LINE
  8
Contour
 62
   7
 39
0.100
  6
CONTINUOUS
 10
418.84000
 20
0.00000
 30
 0
 11
418.84000
 21
0.00000
  0
LINE
  8
Contour
 62
   7
 39
0.100
  6
CONTINUOUS
 10
418.84000
 20
0.00000
 30
 0
 11
418.84000
 21
132.59000
  0
LINE
  8
Contour
 62
   7
 39
0.100
  6
CONTINUOUS
 10
418.84000
 20
132.59000
 30
 0
 11
418.84000
 21
132.59000
  0
CIRCLE
  8
Contour
 62
   7
 39
0.100
  6
CONTINUOUS
 10
30.13200
 20
89.68000
 30
 0
 40
12.00000
  0
CIRCLE
  8
Contour
 62
   7
 39
0.100
  6
CONTINUOUS
 10
39.63200
 20
77.68000
 30
 0
 40
1.60000
  0
CIRCLE
  8
Contour
 62
   7
 39
0.100
  6
CONTINUOUS
 10
20.63200
 20
101.68000
 30
 0
 40
1.60000
  0
ARC
  8
Contour
 62
   7
 39
0.100
  6
CONTINUOUS
 10
42.63000
 20
45.61800
 30
 0
 40
1.50000
 50
359.96180
 51
28.34215
  0
LINE
  8
Contour
 62
   7
 39
0.100
  6
CONTINUOUS
 10
44.13000
 20
45.61700
 30
 0
 11
44.13000
 21
33.74300
  0
ARC
  8
Contour
 62
   7
 39
0.100
  6
CONTINUOUS
 10
42.63000
 20
33.74200
 30
 0
 40
1.50000
 50
331.65785
 51
0.03820
  0
ARC
  8
Contour
 62
   7
 39
0.100
  6
CONTINUOUS
 10
31.63000
 20
39.68000
 30
 0
 40
14.00000
 50
28.35896
 51
-28.35896
  0
LINE
  8
Contour
 62
   7
 39
0.100
  6
CONTINUOUS
 10
240.38800
 20
112.92000
 30
 0
 11
240.38800
 21
54.26000
  0
ARC
  8
Contour
 62
   7
 39
0.100
  6
CONTINUOUS
 10
236.27800
 20
54.26000
 30
 0
 40
4.11000
 50
270.00000
 51
0.00000
  0
LINE
  8
Contour
 62
   7
 39
0.100
  6
CONTINUOUS
 10
236.27800
 20
50.15000
 30
 0
 11
236.27800
 21
50.15000
  0
ARC
  8
Contour
 62
   7
 39
0.100
  6
CONTINUOUS
 10
236.27800
 20
54.26000
 30
 0
 40
4.11000
 50
180.00000
 51
-90.00000
  0
LINE
  8
Contour
 62
   7
 39
0.100
  6
CONTINUOUS
 10
232.16800
 20
54.26000
 30
 0
 11
232.16800
 21
112.92000
  0
ARC
  8
Contour
 62
   7
 39
0.100
  6
CONTINUOUS
 10
236.27800
 20
112.92000
 30
 0
 40
4.11000
 50
450.00000
 51
180.00000
  0
LINE
  8
Contour
 62
   7
 39
0.100
  6
CONTINUOUS
 10
236.27800
 20
117.03000
 30
 0
 11
236.27800
 21
117.03000
  0
ARC
  8
Contour
 62
   7
 39
0.100
  6
CONTINUOUS
 10
236.27800
 20
112.92000
 30
 0
 40
4.11000
 50
360.00000
 51
90.00000
  0
CIRCLE
  8
Contour
 62
   7
 39
0.100
  6
CONTINUOUS
 10
241.27800
 20
119.34000
 30
 0
 40
2.10000
  0
CIRCLE
  8
Contour
 62
   7
 39
0.100
  6
CONTINUOUS
 10
241.27800
 20
47.84000
 30
 0
 40
2.10000
  0
CIRCLE
  8
Contour
 62
   7
 39
0.100
  6
CONTINUOUS
 10
231.05800
 20
119.34000
 30
 0
 40
2.10000
  0
CIRCLE
  8
Contour
 62
   7
 39
0.100
  6
CONTINUOUS
 10
231.05800
 20
47.84000
 30
 0
 40
2.10000
  0
LINE
  8
Contour
 62
   7
 39
0.100
  6
CONTINUOUS
 10
250.61300
 20
112.92000
 30
 0
 11
250.61300
 21
54.26000
  0
ARC
  8
Contour
 62
   7
 39
0.100
  6
CONTINUOUS
 10
246.50300
 20
54.26000
 30
 0
 40
4.11000
 50
270.00000
 51
0.00000
  0
LINE
  8
Contour
 62
   7
 39
0.100
  6
CONTINUOUS
 10
246.50300
 20
50.15000
 30
 0
 11
246.50300
 21
50.15000
  0
ARC
  8
Contour
 62
   7
 39
0.100
  6
CONTINUOUS
 10
246.50300
 20
54.26000
 30
 0
 40
4.11000
 50
180.00000
 51
-90.00000
  0
LINE
  8
Contour
 62
   7
 39
0.100
  6
CONTINUOUS
 10
242.39300
 20
54.26000
 30
 0
 11
242.39300
 21
112.92000
  0
ARC
  8
Contour
 62
   7
 39
0.100
  6
CONTINUOUS
 10
246.50300
 20
112.92000
 30
 0
 40
4.11000
 50
450.00000
 51
180.00000
  0
LINE
  8
Contour
 62
   7
 39
0.100
  6
CONTINUOUS
 10
246.50300
 20
117.03000
 30
 0
 11
246.50300
 21
117.03000
  0
ARC
  8
Contour
 62
   7
 39
0.100
  6
CONTINUOUS
 10
246.50300
 20
112.92000
 30
 0
 40
4.11000
 50
360.00000
 51
90.00000
  0
CIRCLE
  8
Contour
 62
   7
 39
0.100
  6
CONTINUOUS
 10
251.50300
 20
119.34000
 30
 0
 40
2.10000
  0
CIRCLE
  8
Contour
 62
   7
 39
0.100
  6
CONTINUOUS
 10
251.50300
 20
47.84000
 30
 0
 40
2.10000
  0
LINE
  8
Contour
 62
   7
 39
0.100
  6
CONTINUOUS
 10
260.83300
 20
112.92000
 30
 0
 11
260.83300
 21
54.26000
  0
ARC
  8
Contour
 62
   7
 39
0.100
  6
CONTINUOUS
 10
256.72300
 20
54.26000
 30
 0
 40
4.11000
 50
270.00000
 51
0.00000
  0
LINE
  8
Contour
 62
   7
 39
0.100
  6
CONTINUOUS
 10
256.72300
 20
50.15000
 30
 0
 11
256.72300
 21
50.15000
  0
ARC
  8
Contour
 62
   7
 39
0.100
  6
CONTINUOUS
 10
256.72300
 20
54.26000
 30
 0
 40
4.11000
 50
180.00000
 51
-90.00000
  0
LINE
  8
Contour
 62
   7
 39
0.100
  6
CONTINUOUS
 10
252.61300
 20
54.26000
 30
 0
 11
252.61300
 21
112.92000
  0
ARC
  8
Contour
 62
   7
 39
0.100
  6
CONTINUOUS
 10
256.72300
 20
112.92000
 30
 0
 40
4.11000
 50
450.00000
 51
180.00000
  0
LINE
  8
Contour
 62
   7
 39
0.100
  6
CONTINUOUS
 10
256.72300
 20
117.03000
 30
 0
 11
256.72300
 21
117.03000
  0
ARC
  8
Contour
 62
   7
 39
0.100
  6
CONTINUOUS
 10
256.72300
 20
112.92000
 30
 0
 40
4.11000
 50
360.00000
 51
90.00000
  0
CIRCLE
  8
Contour
 62
   7
 39
0.100
  6
CONTINUOUS
 10
261.72300
 20
119.34000
 30
 0
 40
2.10000
  0
CIRCLE
  8
Contour
 62
   7
 39
0.100
  6
CONTINUOUS
 10
261.72300
 20
47.84000
 30
 0
 40
2.10000
  0
LINE
  8
Contour
 62
   7
 39
0.100
  6
CONTINUOUS
 10
271.05100
 20
112.92000
 30
 0
 11
271.05100
 21
54.26000
  0
ARC
  8
Contour
 62
   7
 39
0.100
  6
CONTINUOUS
 10
266.94100
 20
54.26000
 30
 0
 40
4.11000
 50
270.00000
 51
0.00000
  0
LINE
  8
Contour
 62
   7
 39
0.100
  6
CONTINUOUS
 10
266.94100
 20
50.15000
 30
 0
 11
266.94100
 21
50.15000
  0
ARC
  8
Contour
 62
   7
 39
0.100
  6
CONTINUOUS
 10
266.94100
 20
54.26000
 30
 0
 40
4.11000
 50
180.00000
 51
-90.00000
  0
LINE
  8
Contour
 62
   7
 39
0.100
  6
CONTINUOUS
 10
262.83100
 20
54.26000
 30
 0
 11
262.83100
 21
112.92000
  0
ARC
  8
Contour
 62
   7
 39
0.100
  6
CONTINUOUS
 10
266.94100
 20
112.92000
 30
 0
 40
4.11000
 50
450.00000
 51
180.00000
  0
LINE
  8
Contour
 62
   7
 39
0.100
  6
CONTINUOUS
 10
266.94100
 20
117.03000
 30
 0
 11
266.94100
 21
117.03000
  0
ARC
  8
Contour
 62
   7
 39
0.100
  6
CONTINUOUS
 10
266.94100
 20
112.92000
 30
 0
 40
4.11000
 50
360.00000
 51
90.00000
  0
CIRCLE
  8
Contour
 62
   7
 39
0.100
  6
CONTINUOUS
 10
271.94100
 20
119.34000
 30
 0
 40
2.10000
  0
CIRCLE
  8
Contour
 62
   7
 39
0.100
  6
CONTINUOUS
 10
271.94100
 20
47.84000
 30
 0
 40
2.10000
  0
LINE
  8
Contour
 62
   7
 39
0.100
  6
CONTINUOUS
 10
281.27600
 20
112.92000
 30
 0
 11
281.27600
 21
54.26000
  0
ARC
  8
Contour
 62
   7
 39
0.100
  6
CONTINUOUS
 10
277.16600
 20
54.26000
 30
 0
 40
4.11000
 50
270.00000
 51
0.00000
  0
LINE
  8
Contour
 62
   7
 39
0.100
  6
CONTINUOUS
 10
277.16600
 20
50.15000
 30
 0
 11
277.16600
 21
50.15000
  0
ARC
  8
Contour
 62
   7
 39
0.100
  6
CONTINUOUS
 10
277.16600
 20
54.26000
 30
 0
 40
4.11000
 50
180.00000
 51
-90.00000
  0
LINE
  8
Contour
 62
   7
 39
0.100
  6
CONTINUOUS
 10
273.05600
 20
54.26000
 30
 0
 11
273.05600
 21
112.92000
  0
ARC
  8
Contour
 62
   7
 39
0.100
  6
CONTINUOUS
 10
277.16600
 20
112.92000
 30
 0
 40
4.11000
 50
450.00000
 51
180.00000
  0
LINE
  8
Contour
 62
   7
 39
0.100
  6
CONTINUOUS
 10
277.16600
 20
117.03000
 30
 0
 11
277.16600
 21
117.03000
  0
ARC
  8
Contour
 62
   7
 39
0.100
  6
CONTINUOUS
 10
277.16600
 20
112.92000
 30
 0
 40
4.11000
 50
360.00000
 51
90.00000
  0
CIRCLE
  8
Contour
 62
   7
 39
0.100
  6
CONTINUOUS
 10
282.16600
 20
119.34000
 30
 0
 40
2.10000
  0
CIRCLE
  8
Contour
 62
   7
 39
0.100
  6
CONTINUOUS
 10
282.16600
 20
47.84000
 30
 0
 40
2.10000
  0
LINE
  8
Contour
 62
   7
 39
0.100
  6
CONTINUOUS
 10
291.49600
 20
112.92000
 30
 0
 11
291.49600
 21
54.26000
  0
ARC
  8
Contour
 62
   7
 39
0.100
  6
CONTINUOUS
 10
287.38600
 20
54.26000
 30
 0
 40
4.11000
 50
270.00000
 51
0.00000
  0
LINE
  8
Contour
 62
   7
 39
0.100
  6
CONTINUOUS
 10
287.38600
 20
50.15000
 30
 0
 11
287.38600
 21
50.15000
  0
ARC
  8
Contour
 62
   7
 39
0.100
  6
CONTINUOUS
 10
287.38600
 20
54.26000
 30
 0
 40
4.11000
 50
180.00000
 51
-90.00000
  0
LINE
  8
Contour
 62
   7
 39
0.100
  6
CONTINUOUS
 10
283.27600
 20
54.26000
 30
 0
 11
283.27600
 21
112.92000
  0
ARC
  8
Contour
 62
   7
 39
0.100
  6
CONTINUOUS
 10
287.38600
 20
112.92000
 30
 0
 40
4.11000
 50
450.00000
 51
180.00000
  0
LINE
  8
Contour
 62
   7
 39
0.100
  6
CONTINUOUS
 10
287.38600
 20
117.03000
 30
 0
 11
287.38600
 21
117.03000
  0
ARC
  8
Contour
 62
   7
 39
0.100
  6
CONTINUOUS
 10
287.38600
 20
112.92000
 30
 0
 40
4.11000
 50
360.00000
 51
90.00000
  0
CIRCLE
  8
Contour
 62
   7
 39
0.100
  6
CONTINUOUS
 10
292.38600
 20
119.34000
 30
 0
 40
2.10000
  0
CIRCLE
  8
Contour
 62
   7
 39
0.100
  6
CONTINUOUS
 10
292.38600
 20
47.84000
 30
 0
 40
2.10000
  0
LINE
  8
Contour
 62
   7
 39
0.100
  6
CONTINUOUS
 10
301.70900
 20
112.92000
 30
 0
 11
301.70900
 21
54.26000
  0
ARC
  8
Contour
 62
   7
 39
0.100
  6
CONTINUOUS
 10
297.59900
 20
54.26000
 30
 0
 40
4.11000
 50
270.00000
 51
0.00000
  0
LINE
  8
Contour
 62
   7
 39
0.100
  6
CONTINUOUS
 10
297.59900
 20
50.15000
 30
 0
 11
297.59900
 21
50.15000
  0
ARC
  8
Contour
 62
   7
 39
0.100
  6
CONTINUOUS
 10
297.59900
 20
54.26000
 30
 0
 40
4.11000
 50
180.00000
 51
-90.00000
  0
LINE
  8
Contour
 62
   7
 39
0.100
  6
CONTINUOUS
 10
293.48900
 20
54.26000
 30
 0
 11
293.48900
 21
112.92000
  0
ARC
  8
Contour
 62
   7
 39
0.100
  6
CONTINUOUS
 10
297.59900
 20
112.92000
 30
 0
 40
4.11000
 50
450.00000
 51
180.00000
  0
LINE
  8
Contour
 62
   7
 39
0.100
  6
CONTINUOUS
 10
297.59900
 20
117.03000
 30
 0
 11
297.59900
 21
117.03000
  0
ARC
  8
Contour
 62
   7
 39
0.100
  6
CONTINUOUS
 10
297.59900
 20
112.92000
 30
 0
 40
4.11000
 50
360.00000
 51
90.00000
  0
CIRCLE
  8
Contour
 62
   7
 39
0.100
  6
CONTINUOUS
 10
302.59900
 20
119.34000
 30
 0
 40
2.10000
  0
CIRCLE
  8
Contour
 62
   7
 39
0.100
  6
CONTINUOUS
 10
302.59900
 20
47.84000
 30
 0
 40
2.10000
  0
LINE
  8
Contour
 62
   7
 39
0.100
  6
CONTINUOUS
 10
311.93400
 20
112.92000
 30
 0
 11
311.93400
 21
54.26000
  0
ARC
  8
Contour
 62
   7
 39
0.100
  6
CONTINUOUS
 10
307.82400
 20
54.26000
 30
 0
 40
4.11000
 50
270.00000
 51
0.00000
  0
LINE
  8
Contour
 62
   7
 39
0.100
  6
CONTINUOUS
 10
307.82400
 20
50.15000
 30
 0
 11
307.82400
 21
50.15000
  0
ARC
  8
Contour
 62
   7
 39
0.100
  6
CONTINUOUS
 10
307.82400
 20
54.26000
 30
 0
 40
4.11000
 50
180.00000
 51
-90.00000
  0
LINE
  8
Contour
 62
   7
 39
0.100
  6
CONTINUOUS
 10
303.71400
 20
54.26000
 30
 0
 11
303.71400
 21
112.92000
  0
ARC
  8
Contour
 62
   7
 39
0.100
  6
CONTINUOUS
 10
307.82400
 20
112.92000
 30
 0
 40
4.11000
 50
450.00000
 51
180.00000
  0
LINE
  8
Contour
 62
   7
 39
0.100
  6
CONTINUOUS
 10
307.82400
 20
117.03000
 30
 0
 11
307.82400
 21
117.03000
  0
ARC
  8
Contour
 62
   7
 39
0.100
  6
CONTINUOUS
 10
307.82400
 20
112.92000
 30
 0
 40
4.11000
 50
360.00000
 51
90.00000
  0
CIRCLE
  8
Contour
 62
   7
 39
0.100
  6
CONTINUOUS
 10
312.82400
 20
119.34000
 30
 0
 40
2.10000
  0
CIRCLE
  8
Contour
 62
   7
 39
0.100
  6
CONTINUOUS
 10
312.82400
 20
47.84000
 30
 0
 40
2.10000
  0
LINE
  8
Contour
 62
   7
 39
0.100
  6
CONTINUOUS
 10
322.15400
 20
112.92000
 30
 0
 11
322.15400
 21
54.26000
  0
ARC
  8
Contour
 62
   7
 39
0.100
  6
CONTINUOUS
 10
318.04400
 20
54.26000
 30
 0
 40
4.11000
 50
270.00000
 51
0.00000
  0
LINE
  8
Contour
 62
   7
 39
0.100
  6
CONTINUOUS
 10
318.04400
 20
50.15000
 30
 0
 11
318.04400
 21
50.15000
  0
ARC
  8
Contour
 62
   7
 39
0.100
  6
CONTINUOUS
 10
318.04400
 20
54.26000
 30
 0
 40
4.11000
 50
180.00000
 51
-90.00000
  0
LINE
  8
Contour
 62
   7
 39
0.100
  6
CONTINUOUS
 10
313.93400
 20
54.26000
 30
 0
 11
313.93400
 21
112.92000
  0
ARC
  8
Contour
 62
   7
 39
0.100
  6
CONTINUOUS
 10
318.04400
 20
112.92000
 30
 0
 40
4.11000
 50
450.00000
 51
180.00000
  0
LINE
  8
Contour
 62
   7
 39
0.100
  6
CONTINUOUS
 10
318.04400
 20
117.03000
 30
 0
 11
318.04400
 21
117.03000
  0
ARC
  8
Contour
 62
   7
 39
0.100
  6
CONTINUOUS
 10
318.04400
 20
112.92000
 30
 0
 40
4.11000
 50
360.00000
 51
90.00000
  0
CIRCLE
  8
Contour
 62
   7
 39
0.100
  6
CONTINUOUS
 10
323.04400
 20
119.34000
 30
 0
 40
2.10000
  0
CIRCLE
  8
Contour
 62
   7
 39
0.100
  6
CONTINUOUS
 10
323.04400
 20
47.84000
 30
 0
 40
2.10000
  0
LINE
  8
Contour
 62
   7
 39
0.100
  6
CONTINUOUS
 10
332.37200
 20
112.92000
 30
 0
 11
332.37200
 21
54.26000
  0
ARC
  8
Contour
 62
   7
 39
0.100
  6
CONTINUOUS
 10
328.26200
 20
54.26000
 30
 0
 40
4.11000
 50
270.00000
 51
0.00000
  0
LINE
  8
Contour
 62
   7
 39
0.100
  6
CONTINUOUS
 10
328.26200
 20
50.15000
 30
 0
 11
328.26200
 21
50.15000
  0
ARC
  8
Contour
 62
   7
 39
0.100
  6
CONTINUOUS
 10
328.26200
 20
54.26000
 30
 0
 40
4.11000
 50
180.00000
 51
-90.00000
  0
LINE
  8
Contour
 62
   7
 39
0.100
  6
CONTINUOUS
 10
324.15200
 20
54.26000
 30
 0
 11
324.15200
 21
112.92000
  0
ARC
  8
Contour
 62
   7
 39
0.100
  6
CONTINUOUS
 10
328.26200
 20
112.92000
 30
 0
 40
4.11000
 50
450.00000
 51
180.00000
  0
LINE
  8
Contour
 62
   7
 39
0.100
  6
CONTINUOUS
 10
328.26200
 20
117.03000
 30
 0
 11
328.26200
 21
117.03000
  0
ARC
  8
Contour
 62
   7
 39
0.100
  6
CONTINUOUS
 10
328.26200
 20
112.92000
 30
 0
 40
4.11000
 50
360.00000
 51
90.00000
  0
CIRCLE
  8
Contour
 62
   7
 39
0.100
  6
CONTINUOUS
 10
333.26200
 20
119.34000
 30
 0
 40
2.10000
  0
CIRCLE
  8
Contour
 62
   7
 39
0.100
  6
CONTINUOUS
 10
333.26200
 20
47.84000
 30
 0
 40
2.10000
  0
LINE
  8
Contour
 62
   7
 39
0.100
  6
CONTINUOUS
 10
342.59700
 20
112.92000
 30
 0
 11
342.59700
 21
54.26000
  0
ARC
  8
Contour
 62
   7
 39
0.100
  6
CONTINUOUS
 10
338.48700
 20
54.26000
 30
 0
 40
4.11000
 50
270.00000
 51
0.00000
  0
LINE
  8
Contour
 62
   7
 39
0.100
  6
CONTINUOUS
 10
338.48700
 20
50.15000
 30
 0
 11
338.48700
 21
50.15000
  0
ARC
  8
Contour
 62
   7
 39
0.100
  6
CONTINUOUS
 10
338.48700
 20
54.26000
 30
 0
 40
4.11000
 50
180.00000
 51
-90.00000
  0
LINE
  8
Contour
 62
   7
 39
0.100
  6
CONTINUOUS
 10
334.37700
 20
54.26000
 30
 0
 11
334.37700
 21
112.92000
  0
ARC
  8
Contour
 62
   7
 39
0.100
  6
CONTINUOUS
 10
338.48700
 20
112.92000
 30
 0
 40
4.11000
 50
450.00000
 51
180.00000
  0
LINE
  8
Contour
 62
   7
 39
0.100
  6
CONTINUOUS
 10
338.48700
 20
117.03000
 30
 0
 11
338.48700
 21
117.03000
  0
ARC
  8
Contour
 62
   7
 39
0.100
  6
CONTINUOUS
 10
338.48700
 20
112.92000
 30
 0
 40
4.11000
 50
360.00000
 51
90.00000
  0
CIRCLE
  8
Contour
 62
   7
 39
0.100
  6
CONTINUOUS
 10
343.48700
 20
119.34000
 30
 0
 40
2.10000
  0
CIRCLE
  8
Contour
 62
   7
 39
0.100
  6
CONTINUOUS
 10
343.48700
 20
47.84000
 30
 0
 40
2.10000
  0
LINE
  8
Contour
 62
   7
 39
0.100
  6
CONTINUOUS
 10
352.81700
 20
112.92000
 30
 0
 11
352.81700
 21
54.26000
  0
ARC
  8
Contour
 62
   7
 39
0.100
  6
CONTINUOUS
 10
348.70700
 20
54.26000
 30
 0
 40
4.11000
 50
270.00000
 51
0.00000
  0
LINE
  8
Contour
 62
   7
 39
0.100
  6
CONTINUOUS
 10
348.70700
 20
50.15000
 30
 0
 11
348.70700
 21
50.15000
  0
ARC
  8
Contour
 62
   7
 39
0.100
  6
CONTINUOUS
 10
348.70700
 20
54.26000
 30
 0
 40
4.11000
 50
180.00000
 51
-90.00000
  0
LINE
  8
Contour
 62
   7
 39
0.100
  6
CONTINUOUS
 10
344.59700
 20
54.26000
 30
 0
 11
344.59700
 21
112.92000
  0
ARC
  8
Contour
 62
   7
 39
0.100
  6
CONTINUOUS
 10
348.70700
 20
112.92000
 30
 0
 40
4.11000
 50
450.00000
 51
180.00000
  0
LINE
  8
Contour
 62
   7
 39
0.100
  6
CONTINUOUS
 10
348.70700
 20
117.03000
 30
 0
 11
348.70700
 21
117.03000
  0
ARC
  8
Contour
 62
   7
 39
0.100
  6
CONTINUOUS
 10
348.70700
 20
112.92000
 30
 0
 40
4.11000
 50
360.00000
 51
90.00000
  0
CIRCLE
  8
Contour
 62
   7
 39
0.100
  6
CONTINUOUS
 10
353.70700
 20
119.34000
 30
 0
 40
2.10000
  0
CIRCLE
  8
Contour
 62
   7
 39
0.100
  6
CONTINUOUS
 10
353.70700
 20
47.84000
 30
 0
 40
2.10000
  0
LINE
  8
Contour
 62
   7
 39
0.100
  6
CONTINUOUS
 10
363.03300
 20
112.92000
 30
 0
 11
363.03300
 21
54.26000
  0
ARC
  8
Contour
 62
   7
 39
0.100
  6
CONTINUOUS
 10
358.92300
 20
54.26000
 30
 0
 40
4.11000
 50
270.00000
 51
0.00000
  0
LINE
  8
Contour
 62
   7
 39
0.100
  6
CONTINUOUS
 10
358.92300
 20
50.15000
 30
 0
 11
358.92300
 21
50.15000
  0
ARC
  8
Contour
 62
   7
 39
0.100
  6
CONTINUOUS
 10
358.92300
 20
54.26000
 30
 0
 40
4.11000
 50
180.00000
 51
-90.00000
  0
LINE
  8
Contour
 62
   7
 39
0.100
  6
CONTINUOUS
 10
354.81300
 20
54.26000
 30
 0
 11
354.81300
 21
112.92000
  0
ARC
  8
Contour
 62
   7
 39
0.100
  6
CONTINUOUS
 10
358.92300
 20
112.92000
 30
 0
 40
4.11000
 50
450.00000
 51
180.00000
  0
LINE
  8
Contour
 62
   7
 39
0.100
  6
CONTINUOUS
 10
358.92300
 20
117.03000
 30
 0
 11
358.92300
 21
117.03000
  0
ARC
  8
Contour
 62
   7
 39
0.100
  6
CONTINUOUS
 10
358.92300
 20
112.92000
 30
 0
 40
4.11000
 50
360.00000
 51
90.00000
  0
CIRCLE
  8
Contour
 62
   7
 39
0.100
  6
CONTINUOUS
 10
363.92300
 20
119.34000
 30
 0
 40
2.10000
  0
CIRCLE
  8
Contour
 62
   7
 39
0.100
  6
CONTINUOUS
 10
363.92300
 20
47.84000
 30
 0
 40
2.10000
  0
LINE
  8
Contour
 62
   7
 39
0.100
  6
CONTINUOUS
 10
373.25300
 20
112.92000
 30
 0
 11
373.25300
 21
54.26000
  0
ARC
  8
Contour
 62
   7
 39
0.100
  6
CONTINUOUS
 10
369.14300
 20
54.26000
 30
 0
 40
4.11000
 50
270.00000
 51
0.00000
  0
LINE
  8
Contour
 62
   7
 39
0.100
  6
CONTINUOUS
 10
369.14300
 20
50.15000
 30
 0
 11
369.14300
 21
50.15000
  0
ARC
  8
Contour
 62
   7
 39
0.100
  6
CONTINUOUS
 10
369.14300
 20
54.26000
 30
 0
 40
4.11000
 50
180.00000
 51
-90.00000
  0
LINE
  8
Contour
 62
   7
 39
0.100
  6
CONTINUOUS
 10
365.03300
 20
54.26000
 30
 0
 11
365.03300
 21
112.92000
  0
ARC
  8
Contour
 62
   7
 39
0.100
  6
CONTINUOUS
 10
369.14300
 20
112.92000
 30
 0
 40
4.11000
 50
450.00000
 51
180.00000
  0
LINE
  8
Contour
 62
   7
 39
0.100
  6
CONTINUOUS
 10
369.14300
 20
117.03000
 30
 0
 11
369.14300
 21
117.03000
  0
ARC
  8
Contour
 62
   7
 39
0.100
  6
CONTINUOUS
 10
369.14300
 20
112.92000
 30
 0
 40
4.11000
 50
360.00000
 51
90.00000
  0
CIRCLE
  8
Contour
 62
   7
 39
0.100
  6
CONTINUOUS
 10
374.14300
 20
119.34000
 30
 0
 40
2.10000
  0
CIRCLE
  8
Contour
 62
   7
 39
0.100
  6
CONTINUOUS
 10
374.14300
 20
47.84000
 30
 0
 40
2.10000
  0
LINE
  8
Contour
 62
   7
 39
0.100
  6
CONTINUOUS
 10
383.47300
 20
112.92000
 30
 0
 11
383.47300
 21
54.26000
  0
ARC
  8
Contour
 62
   7
 39
0.100
  6
CONTINUOUS
 10
379.36300
 20
54.26000
 30
 0
 40
4.11000
 50
270.00000
 51
0.00000
  0
LINE
  8
Contour
 62
   7
 39
0.100
  6
CONTINUOUS
 10
379.36300
 20
50.15000
 30
 0
 11
379.36300
 21
50.15000
  0
ARC
  8
Contour
 62
   7
 39
0.100
  6
CONTINUOUS
 10
379.36300
 20
54.26000
 30
 0
 40
4.11000
 50
180.00000
 51
-90.00000
  0
LINE
  8
Contour
 62
   7
 39
0.100
  6
CONTINUOUS
 10
375.25300
 20
54.26000
 30
 0
 11
375.25300
 21
112.92000
  0
ARC
  8
Contour
 62
   7
 39
0.100
  6
CONTINUOUS
 10
379.36300
 20
112.92000
 30
 0
 40
4.11000
 50
450.00000
 51
180.00000
  0
LINE
  8
Contour
 62
   7
 39
0.100
  6
CONTINUOUS
 10
379.36300
 20
117.03000
 30
 0
 11
379.36300
 21
117.03000
  0
ARC
  8
Contour
 62
   7
 39
0.100
  6
CONTINUOUS
 10
379.36300
 20
112.92000
 30
 0
 40
4.11000
 50
360.00000
 51
90.00000
  0
CIRCLE
  8
Contour
 62
   7
 39
0.100
  6
CONTINUOUS
 10
384.36300
 20
119.34000
 30
 0
 40
2.10000
  0
CIRCLE
  8
Contour
 62
   7
 39
0.100
  6
CONTINUOUS
 10
384.36300
 20
47.84000
 30
 0
 40
2.10000
  0
LINE
  8
Contour
 62
   7
 39
0.100
  6
CONTINUOUS
 10
393.69500
 20
112.92000
 30
 0
 11
393.69500
 21
54.26000
  0
ARC
  8
Contour
 62
   7
 39
0.100
  6
CONTINUOUS
 10
389.58500
 20
54.26000
 30
 0
 40
4.11000
 50
270.00000
 51
0.00000
  0
LINE
  8
Contour
 62
   7
 39
0.100
  6
CONTINUOUS
 10
389.58500
 20
50.15000
 30
 0
 11
389.58500
 21
50.15000
  0
ARC
  8
Contour
 62
   7
 39
0.100
  6
CONTINUOUS
 10
389.58500
 20
54.26000
 30
 0
 40
4.11000
 50
180.00000
 51
-90.00000
  0
LINE
  8
Contour
 62
   7
 39
0.100
  6
CONTINUOUS
 10
385.47500
 20
54.26000
 30
 0
 11
385.47500
 21
112.92000
  0
ARC
  8
Contour
 62
   7
 39
0.100
  6
CONTINUOUS
 10
389.58500
 20
112.92000
 30
 0
 40
4.11000
 50
450.00000
 51
180.00000
  0
LINE
  8
Contour
 62
   7
 39
0.100
  6
CONTINUOUS
 10
389.58500
 20
117.03000
 30
 0
 11
389.58500
 21
117.03000
  0
ARC
  8
Contour
 62
   7
 39
0.100
  6
CONTINUOUS
 10
389.58500
 20
112.92000
 30
 0
 40
4.11000
 50
360.00000
 51
90.00000
  0
CIRCLE
  8
Contour
 62
   7
 39
0.100
  6
CONTINUOUS
 10
394.58500
 20
119.34000
 30
 0
 40
2.10000
  0
CIRCLE
  8
Contour
 62
   7
 39
0.100
  6
CONTINUOUS
 10
394.58500
 20
47.84000
 30
 0
 40
2.10000
  0
CIRCLE
  8
Contour
 62
   7
 39
0.100
  6
CONTINUOUS
 10
404.80500
 20
119.34000
 30
 0
 40
2.10000
  0
CIRCLE
  8
Contour
 62
   7
 39
0.100
  6
CONTINUOUS
 10
404.80500
 20
47.84000
 30
 0
 40
2.10000
  0
LINE
  8
Contour
 62
   7
 39
0.100
  6
CONTINUOUS
 10
403.91500
 20
112.92000
 30
 0
 11
403.91500
 21
54.26000
  0
ARC
  8
Contour
 62
   7
 39
0.100
  6
CONTINUOUS
 10
399.80500
 20
54.26000
 30
 0
 40
4.11000
 50
270.00000
 51
0.00000
  0
LINE
  8
Contour
 62
   7
 39
0.100
  6
CONTINUOUS
 10
399.80500
 20
50.15000
 30
 0
 11
399.80500
 21
50.15000
  0
ARC
  8
Contour
 62
   7
 39
0.100
  6
CONTINUOUS
 10
399.80500
 20
54.26000
 30
 0
 40
4.11000
 50
180.00000
 51
-90.00000
  0
LINE
  8
Contour
 62
   7
 39
0.100
  6
CONTINUOUS
 10
395.69500
 20
54.26000
 30
 0
 11
395.69500
 21
112.92000
  0
ARC
  8
Contour
 62
   7
 39
0.100
  6
CONTINUOUS
 10
399.80500
 20
112.92000
 30
 0
 40
4.11000
 50
450.00000
 51
180.00000
  0
LINE
  8
Contour
 62
   7
 39
0.100
  6
CONTINUOUS
 10
399.80500
 20
117.03000
 30
 0
 11
399.80500
 21
117.03000
  0
ARC
  8
Contour
 62
   7
 39
0.100
  6
CONTINUOUS
 10
399.80500
 20
112.92000
 30
 0
 40
4.11000
 50
360.00000
 51
90.00000
  0
ENDSEC
  0
EOF
