  0
SECTION
  2
HEADER
  9
$MEASUREMENT
  70
  1
  9
$INSUNITS
  70
  4
  0
ENDSEC
  0
SECTION
  2
TABLES
  0
TABLE
  2
LTYPE
 70
     1
  0
LTYPE
  2
CONTINUOUS
 70
    64
  3
Ausgezogene Linie
 72
    65
 73
     0
 40
0.0
  0
ENDTAB
  0
TABLE
  2
LAYER
 70
     3
  0
LAYER
  2
Contour
 70
    64
 62
     7
  6
CONTINUOUS
  0
LAYER
  2
Engraving
 70
    64
 62
     7
  6
CONTINUOUS
  0
LAYER
  2
Reference_points
 70
    64
 62
     1
  6
CONTINUOUS
  0
ENDTAB
  0
TABLE
  2
STYLE
 70
     1
  0
STYLE
  2
TXT
 70
    64
 40
0.0
 41
1.0
 50
0.0
 71
     0
 42
3.500000
  3
TXT
  0
ENDTAB
  0
ENDSEC
  0
SECTION
  2
BLOCKS
  0
ENDSEC
  0
SECTION
  2
ENTITIES
  0
LINE
  8
Contour
 62
   7
 39
0.100
  6
CONTINUOUS
 10
417.83000
 20
238.00000
 30
 0
 11
0.00000
 21
238.00000
  0
LINE
  8
Contour
 62
   7
 39
0.100
  6
CONTINUOUS
 10
0.00000
 20
238.00000
 30
 0
 11
0.00000
 21
238.00000
  0
LINE
  8
Contour
 62
   7
 39
0.100
  6
CONTINUOUS
 10
0.00000
 20
238.00000
 30
 0
 11
0.00000
 21
0.00000
  0
LINE
  8
Contour
 62
   7
 39
0.100
  6
CONTINUOUS
 10
0.00000
 20
0.00000
 30
 0
 11
0.00000
 21
0.00000
  0
LINE
  8
Contour
 62
   7
 39
0.100
  6
CONTINUOUS
 10
0.00000
 20
0.00000
 30
 0
 11
417.83000
 21
0.00000
  0
LINE
  8
Contour
 62
   7
 39
0.100
  6
CONTINUOUS
 10
417.83000
 20
0.00000
 30
 0
 11
417.83000
 21
0.00000
  0
LINE
  8
Contour
 62
   7
 39
0.100
  6
CONTINUOUS
 10
417.83000
 20
0.00000
 30
 0
 11
417.83000
 21
238.00000
  0
LINE
  8
Contour
 62
   7
 39
0.100
  6
CONTINUOUS
 10
417.83000
 20
238.00000
 30
 0
 11
417.83000
 21
238.00000
  0
CIRCLE
  8
Contour
 62
   7
 39
0.100
  6
CONTINUOUS
 10
65.10000
 20
190.37000
 30
 0
 40
2.10700
  0
CIRCLE
  8
Contour
 62
   7
 39
0.100
  6
CONTINUOUS
 10
235.30000
 20
190.37000
 30
 0
 40
2.10500
  0
CIRCLE
  8
Contour
 62
   7
 39
0.100
  6
CONTINUOUS
 10
65.10000
 20
4.97000
 30
 0
 40
2.10500
  0
CIRCLE
  8
Contour
 62
   7
 39
0.100
  6
CONTINUOUS
 10
235.30000
 20
4.97000
 30
 0
 40
2.10500
  0
CIRCLE
  8
Contour
 62
   7
 39
0.100
  6
CONTINUOUS
 10
199.80000
 20
81.67000
 30
 0
 40
2.10500
  0
CIRCLE
  8
Contour
 62
   7
 39
0.100
  6
CONTINUOUS
 10
163.40000
 20
124.17000
 30
 0
 40
2.10500
  0
CIRCLE
  8
Contour
 62
   7
 39
0.100
  6
CONTINUOUS
 10
235.60000
 20
24.07000
 30
 0
 40
2.10500
  0
CIRCLE
  8
Contour
 62
   7
 39
0.100
  6
CONTINUOUS
 10
235.60000
 20
87.07000
 30
 0
 40
2.10500
  0
CIRCLE
  8
Contour
 62
   7
 39
0.100
  6
CONTINUOUS
 10
235.60000
 20
94.07000
 30
 0
 40
2.10500
  0
CIRCLE
  8
Contour
 62
   7
 39
0.100
  6
CONTINUOUS
 10
235.60000
 20
157.07000
 30
 0
 40
2.10500
  0
CIRCLE
  8
Contour
 62
   7
 39
0.100
  6
CONTINUOUS
 10
370.10000
 20
24.07000
 30
 0
 40
2.10500
  0
CIRCLE
  8
Contour
 62
   7
 39
0.100
  6
CONTINUOUS
 10
370.10000
 20
87.07000
 30
 0
 40
2.10500
  0
CIRCLE
  8
Contour
 62
   7
 39
0.100
  6
CONTINUOUS
 10
370.10000
 20
94.07000
 30
 0
 40
2.10500
  0
CIRCLE
  8
Contour
 62
   7
 39
0.100
  6
CONTINUOUS
 10
370.10000
 20
157.07000
 30
 0
 40
2.10500
  0
LINE
  8
Reference_points
 62
   1
 39
0.100
  6
CONTINUOUS
 10
-1.00000
 20
0.00000
 30
 0
 11
1.00000
 21
0.00000
  0
LINE
  8
Reference_points
 62
   1
 39
0.100
  6
CONTINUOUS
 10
0.00000
 20
-1.00000
 30
 0
 11
0.00000
 21
1.00000
  0
LINE
  8
Reference_points
 62
   1
 39
0.100
  6
CONTINUOUS
 10
64.10000
 20
190.37000
 30
 0
 11
66.10000
 21
190.37000
  0
LINE
  8
Reference_points
 62
   1
 39
0.100
  6
CONTINUOUS
 10
65.10000
 20
189.37000
 30
 0
 11
65.10000
 21
191.37000
  0
LINE
  8
Reference_points
 62
   1
 39
0.100
  6
CONTINUOUS
 10
234.30000
 20
190.37000
 30
 0
 11
236.30000
 21
190.37000
  0
LINE
  8
Reference_points
 62
   1
 39
0.100
  6
CONTINUOUS
 10
235.30000
 20
189.37000
 30
 0
 11
235.30000
 21
191.37000
  0
LINE
  8
Reference_points
 62
   1
 39
0.100
  6
CONTINUOUS
 10
64.10000
 20
4.97000
 30
 0
 11
66.10000
 21
4.97000
  0
LINE
  8
Reference_points
 62
   1
 39
0.100
  6
CONTINUOUS
 10
65.10000
 20
3.97000
 30
 0
 11
65.10000
 21
5.97000
  0
LINE
  8
Reference_points
 62
   1
 39
0.100
  6
CONTINUOUS
 10
234.30000
 20
4.97000
 30
 0
 11
236.30000
 21
4.97000
  0
LINE
  8
Reference_points
 62
   1
 39
0.100
  6
CONTINUOUS
 10
235.30000
 20
3.97000
 30
 0
 11
235.30000
 21
5.97000
  0
LINE
  8
Reference_points
 62
   1
 39
0.100
  6
CONTINUOUS
 10
198.80000
 20
81.67000
 30
 0
 11
200.80000
 21
81.67000
  0
LINE
  8
Reference_points
 62
   1
 39
0.100
  6
CONTINUOUS
 10
199.80000
 20
80.67000
 30
 0
 11
199.80000
 21
82.67000
  0
LINE
  8
Reference_points
 62
   1
 39
0.100
  6
CONTINUOUS
 10
162.40000
 20
124.17000
 30
 0
 11
164.40000
 21
124.17000
  0
LINE
  8
Reference_points
 62
   1
 39
0.100
  6
CONTINUOUS
 10
163.40000
 20
123.17000
 30
 0
 11
163.40000
 21
125.17000
  0
LINE
  8
Reference_points
 62
   1
 39
0.100
  6
CONTINUOUS
 10
234.60000
 20
24.07000
 30
 0
 11
236.60000
 21
24.07000
  0
LINE
  8
Reference_points
 62
   1
 39
0.100
  6
CONTINUOUS
 10
235.60000
 20
23.07000
 30
 0
 11
235.60000
 21
25.07000
  0
LINE
  8
Reference_points
 62
   1
 39
0.100
  6
CONTINUOUS
 10
234.60000
 20
87.07000
 30
 0
 11
236.60000
 21
87.07000
  0
LINE
  8
Reference_points
 62
   1
 39
0.100
  6
CONTINUOUS
 10
235.60000
 20
86.07000
 30
 0
 11
235.60000
 21
88.07000
  0
LINE
  8
Reference_points
 62
   1
 39
0.100
  6
CONTINUOUS
 10
234.60000
 20
94.07000
 30
 0
 11
236.60000
 21
94.07000
  0
LINE
  8
Reference_points
 62
   1
 39
0.100
  6
CONTINUOUS
 10
235.60000
 20
93.07000
 30
 0
 11
235.60000
 21
95.07000
  0
LINE
  8
Reference_points
 62
   1
 39
0.100
  6
CONTINUOUS
 10
234.60000
 20
157.07000
 30
 0
 11
236.60000
 21
157.07000
  0
LINE
  8
Reference_points
 62
   1
 39
0.100
  6
CONTINUOUS
 10
235.60000
 20
156.07000
 30
 0
 11
235.60000
 21
158.07000
  0
LINE
  8
Reference_points
 62
   1
 39
0.100
  6
CONTINUOUS
 10
369.10000
 20
24.07000
 30
 0
 11
371.10000
 21
24.07000
  0
LINE
  8
Reference_points
 62
   1
 39
0.100
  6
CONTINUOUS
 10
370.10000
 20
23.07000
 30
 0
 11
370.10000
 21
25.07000
  0
LINE
  8
Reference_points
 62
   1
 39
0.100
  6
CONTINUOUS
 10
369.10000
 20
87.07000
 30
 0
 11
371.10000
 21
87.07000
  0
LINE
  8
Reference_points
 62
   1
 39
0.100
  6
CONTINUOUS
 10
370.10000
 20
86.07000
 30
 0
 11
370.10000
 21
88.07000
  0
LINE
  8
Reference_points
 62
   1
 39
0.100
  6
CONTINUOUS
 10
369.10000
 20
94.07000
 30
 0
 11
371.10000
 21
94.07000
  0
LINE
  8
Reference_points
 62
   1
 39
0.100
  6
CONTINUOUS
 10
370.10000
 20
93.07000
 30
 0
 11
370.10000
 21
95.07000
  0
LINE
  8
Reference_points
 62
   1
 39
0.100
  6
CONTINUOUS
 10
369.10000
 20
157.07000
 30
 0
 11
371.10000
 21
157.07000
  0
LINE
  8
Reference_points
 62
   1
 39
0.100
  6
CONTINUOUS
 10
370.10000
 20
156.07000
 30
 0
 11
370.10000
 21
158.07000
  0
ENDSEC
  0
EOF
