  0
SECTION
  2
HEADER
  9
$MEASUREMENT
  70
  1
  9
$INSUNITS
  70
  4
  0
ENDSEC
  0
SECTION
  2
TABLES
  0
TABLE
  2
LTYPE
 70
     1
  0
LTYPE
  2
CONTINUOUS
 70
    64
  3
Ausgezogene Linie
 72
    65
 73
     0
 40
0.0
  0
ENDTAB
  0
TABLE
  2
LAYER
 70
     3
  0
LAYER
  2
Contour
 70
    64
 62
     7
  6
CONTINUOUS
  0
LAYER
  2
Engraving
 70
    64
 62
     7
  6
CONTINUOUS
  0
LAYER
  2
Reference_points
 70
    64
 62
     1
  6
CONTINUOUS
  0
ENDTAB
  0
TABLE
  2
STYLE
 70
     1
  0
STYLE
  2
TXT
 70
    64
 40
0.0
 41
1.0
 50
0.0
 71
     0
 42
3.500000
  3
TXT
  0
ENDTAB
  0
ENDSEC
  0
SECTION
  2
BLOCKS
  0
ENDSEC
  0
SECTION
  2
ENTITIES
  0
LINE
  8
Contour
 62
   7
 39
0.100
  6
CONTINUOUS
 10
418.84000
 20
132.59000
 30
 0
 11
0.00000
 21
132.59000
  0
LINE
  8
Contour
 62
   7
 39
0.100
  6
CONTINUOUS
 10
0.00000
 20
132.59000
 30
 0
 11
0.00000
 21
132.59000
  0
LINE
  8
Contour
 62
   7
 39
0.100
  6
CONTINUOUS
 10
0.00000
 20
132.59000
 30
 0
 11
0.00000
 21
0.00000
  0
LINE
  8
Contour
 62
   7
 39
0.100
  6
CONTINUOUS
 10
0.00000
 20
0.00000
 30
 0
 11
0.00000
 21
0.00000
  0
LINE
  8
Contour
 62
   7
 39
0.100
  6
CONTINUOUS
 10
0.00000
 20
0.00000
 30
 0
 11
418.84000
 21
0.00000
  0
LINE
  8
Contour
 62
   7
 39
0.100
  6
CONTINUOUS
 10
418.84000
 20
0.00000
 30
 0
 11
418.84000
 21
0.00000
  0
LINE
  8
Contour
 62
   7
 39
0.100
  6
CONTINUOUS
 10
418.84000
 20
0.00000
 30
 0
 11
418.84000
 21
132.59000
  0
LINE
  8
Contour
 62
   7
 39
0.100
  6
CONTINUOUS
 10
418.84000
 20
132.59000
 30
 0
 11
418.84000
 21
132.59000
  0
ARC
  8
Contour
 62
   7
 39
0.100
  6
CONTINUOUS
 10
289.35000
 20
67.32000
 30
 0
 40
0.50000
 50
316.05341
 51
133.94659
  0
LINE
  8
Contour
 62
   7
 39
0.100
  6
CONTINUOUS
 10
289.71000
 20
66.97300
 30
 0
 11
289.71000
 21
52.38700
  0
ARC
  8
Contour
 62
   7
 39
0.100
  6
CONTINUOUS
 10
289.35000
 20
52.04000
 30
 0
 40
0.50000
 50
226.05341
 51
43.94659
  0
LINE
  8
Contour
 62
   7
 39
0.100
  6
CONTINUOUS
 10
289.00300
 20
51.68000
 30
 0
 11
254.41700
 21
51.68000
  0
ARC
  8
Contour
 62
   7
 39
0.100
  6
CONTINUOUS
 10
254.07000
 20
52.04000
 30
 0
 40
0.50000
 50
136.05341
 51
-46.05341
  0
LINE
  8
Contour
 62
   7
 39
0.100
  6
CONTINUOUS
 10
253.71000
 20
52.38700
 30
 0
 11
253.71000
 21
66.97300
  0
ARC
  8
Contour
 62
   7
 39
0.100
  6
CONTINUOUS
 10
254.07000
 20
67.32000
 30
 0
 40
0.50000
 50
46.05341
 51
-136.05341
  0
LINE
  8
Contour
 62
   7
 39
0.100
  6
CONTINUOUS
 10
254.41700
 20
67.68000
 30
 0
 11
289.00300
 21
67.68000
  0
ARC
  8
Contour
 62
   7
 39
0.100
  6
CONTINUOUS
 10
246.85000
 20
57.82000
 30
 0
 40
0.50000
 50
316.05341
 51
133.94659
  0
LINE
  8
Contour
 62
   7
 39
0.100
  6
CONTINUOUS
 10
247.21000
 20
57.47300
 30
 0
 11
247.21000
 21
53.88700
  0
ARC
  8
Contour
 62
   7
 39
0.100
  6
CONTINUOUS
 10
246.85000
 20
53.54000
 30
 0
 40
0.50000
 50
226.05341
 51
43.94659
  0
LINE
  8
Contour
 62
   7
 39
0.100
  6
CONTINUOUS
 10
246.50300
 20
53.18000
 30
 0
 11
217.91700
 21
53.18000
  0
ARC
  8
Contour
 62
   7
 39
0.100
  6
CONTINUOUS
 10
217.57000
 20
53.54000
 30
 0
 40
0.50000
 50
136.05341
 51
-46.05341
  0
LINE
  8
Contour
 62
   7
 39
0.100
  6
CONTINUOUS
 10
217.21000
 20
53.88700
 30
 0
 11
217.21000
 21
57.47300
  0
ARC
  8
Contour
 62
   7
 39
0.100
  6
CONTINUOUS
 10
217.57000
 20
57.82000
 30
 0
 40
0.50000
 50
46.05341
 51
-136.05341
  0
LINE
  8
Contour
 62
   7
 39
0.100
  6
CONTINUOUS
 10
217.91700
 20
58.18000
 30
 0
 11
246.50300
 21
58.18000
  0
CIRCLE
  8
Contour
 62
   7
 39
0.100
  6
CONTINUOUS
 10
388.71200
 20
89.68000
 30
 0
 40
12.00000
  0
CIRCLE
  8
Contour
 62
   7
 39
0.100
  6
CONTINUOUS
 10
398.21200
 20
77.68000
 30
 0
 40
1.60000
  0
CIRCLE
  8
Contour
 62
   7
 39
0.100
  6
CONTINUOUS
 10
379.21200
 20
101.68000
 30
 0
 40
1.60000
  0
ARC
  8
Contour
 62
   7
 39
0.100
  6
CONTINUOUS
 10
399.71000
 20
45.61800
 30
 0
 40
1.50000
 50
359.96180
 51
28.34215
  0
LINE
  8
Contour
 62
   7
 39
0.100
  6
CONTINUOUS
 10
401.21000
 20
45.61700
 30
 0
 11
401.21000
 21
33.74300
  0
ARC
  8
Contour
 62
   7
 39
0.100
  6
CONTINUOUS
 10
399.71000
 20
33.74200
 30
 0
 40
1.50000
 50
331.65785
 51
0.03820
  0
ARC
  8
Contour
 62
   7
 39
0.100
  6
CONTINUOUS
 10
388.71000
 20
39.68000
 30
 0
 40
14.00000
 50
28.35896
 51
-28.35896
  0
ARC
  8
Contour
 62
   7
 39
0.100
  6
CONTINUOUS
 10
154.71000
 20
97.11300
 30
 0
 40
1.50000
 50
360.00000
 51
27.55576
  0
LINE
  8
Contour
 62
   7
 39
0.100
  6
CONTINUOUS
 10
156.21000
 20
97.11300
 30
 0
 11
156.21000
 21
52.24700
  0
ARC
  8
Contour
 62
   7
 39
0.100
  6
CONTINUOUS
 10
154.71000
 20
52.24700
 30
 0
 40
1.50000
 50
332.44424
 51
0.00000
  0
ARC
  8
Contour
 62
   7
 39
0.100
  6
CONTINUOUS
 10
111.71000
 20
74.68000
 30
 0
 40
50.00000
 50
297.55109
 51
-27.55109
  0
ARC
  8
Contour
 62
   7
 39
0.100
  6
CONTINUOUS
 10
134.14300
 20
31.68000
 30
 0
 40
1.50000
 50
270.00000
 51
-62.44424
  0
LINE
  8
Contour
 62
   7
 39
0.100
  6
CONTINUOUS
 10
134.14300
 20
30.18000
 30
 0
 11
89.27700
 21
30.18000
  0
ARC
  8
Contour
 62
   7
 39
0.100
  6
CONTINUOUS
 10
89.27700
 20
31.68000
 30
 0
 40
1.50000
 50
242.44424
 51
-90.00000
  0
ARC
  8
Contour
 62
   7
 39
0.100
  6
CONTINUOUS
 10
111.71000
 20
74.68000
 30
 0
 40
50.00000
 50
207.55109
 51
-117.55109
  0
ARC
  8
Contour
 62
   7
 39
0.100
  6
CONTINUOUS
 10
68.71000
 20
52.24700
 30
 0
 40
1.50000
 50
180.00000
 51
-152.44424
  0
LINE
  8
Contour
 62
   7
 39
0.100
  6
CONTINUOUS
 10
67.21000
 20
52.24700
 30
 0
 11
67.21000
 21
97.11300
  0
ARC
  8
Contour
 62
   7
 39
0.100
  6
CONTINUOUS
 10
68.71000
 20
97.11300
 30
 0
 40
1.50000
 50
512.44424
 51
180.00000
  0
ARC
  8
Contour
 62
   7
 39
0.100
  6
CONTINUOUS
 10
111.71000
 20
74.68000
 30
 0
 40
50.00000
 50
477.55109
 51
152.44891
  0
ARC
  8
Contour
 62
   7
 39
0.100
  6
CONTINUOUS
 10
89.27700
 20
117.68000
 30
 0
 40
1.50000
 50
450.00000
 51
117.55576
  0
LINE
  8
Contour
 62
   7
 39
0.100
  6
CONTINUOUS
 10
89.27700
 20
119.18000
 30
 0
 11
134.14300
 21
119.18000
  0
ARC
  8
Contour
 62
   7
 39
0.100
  6
CONTINUOUS
 10
134.14300
 20
117.68000
 30
 0
 40
1.50000
 50
422.44424
 51
90.00000
  0
ARC
  8
Contour
 62
   7
 39
0.100
  6
CONTINUOUS
 10
111.71000
 20
74.68000
 30
 0
 40
50.00000
 50
387.55109
 51
62.44891
  0
CIRCLE
  8
Contour
 62
   7
 39
0.100
  6
CONTINUOUS
 10
152.96000
 20
115.93000
 30
 0
 40
2.15000
  0
CIRCLE
  8
Contour
 62
   7
 39
0.100
  6
CONTINUOUS
 10
70.46000
 20
115.93000
 30
 0
 40
2.15000
  0
CIRCLE
  8
Contour
 62
   7
 39
0.100
  6
CONTINUOUS
 10
70.46000
 20
33.43000
 30
 0
 40
2.15000
  0
CIRCLE
  8
Contour
 62
   7
 39
0.100
  6
CONTINUOUS
 10
152.96000
 20
33.43000
 30
 0
 40
2.15000
  0
LINE
  8
Contour
 62
   7
 39
0.100
  6
CONTINUOUS
 10
61.71000
 20
116.68000
 30
 0
 11
61.71000
 21
32.68000
  0
ARC
  8
Contour
 62
   7
 39
0.100
  6
CONTINUOUS
 10
59.21000
 20
32.68000
 30
 0
 40
2.50000
 50
270.00000
 51
0.00000
  0
LINE
  8
Contour
 62
   7
 39
0.100
  6
CONTINUOUS
 10
59.21000
 20
30.18000
 30
 0
 11
59.21000
 21
30.18000
  0
ARC
  8
Contour
 62
   7
 39
0.100
  6
CONTINUOUS
 10
59.21000
 20
32.68000
 30
 0
 40
2.50000
 50
180.00000
 51
-90.00000
  0
LINE
  8
Contour
 62
   7
 39
0.100
  6
CONTINUOUS
 10
56.71000
 20
32.68000
 30
 0
 11
56.71000
 21
116.68000
  0
ARC
  8
Contour
 62
   7
 39
0.100
  6
CONTINUOUS
 10
59.21000
 20
116.68000
 30
 0
 40
2.50000
 50
450.00000
 51
180.00000
  0
LINE
  8
Contour
 62
   7
 39
0.100
  6
CONTINUOUS
 10
59.21000
 20
119.18000
 30
 0
 11
59.21000
 21
119.18000
  0
ARC
  8
Contour
 62
   7
 39
0.100
  6
CONTINUOUS
 10
59.21000
 20
116.68000
 30
 0
 40
2.50000
 50
360.00000
 51
90.00000
  0
LINE
  8
Contour
 62
   7
 39
0.100
  6
CONTINUOUS
 10
51.71000
 20
116.68000
 30
 0
 11
51.71000
 21
32.68000
  0
ARC
  8
Contour
 62
   7
 39
0.100
  6
CONTINUOUS
 10
49.21000
 20
32.68000
 30
 0
 40
2.50000
 50
270.00000
 51
0.00000
  0
LINE
  8
Contour
 62
   7
 39
0.100
  6
CONTINUOUS
 10
49.21000
 20
30.18000
 30
 0
 11
49.21000
 21
30.18000
  0
ARC
  8
Contour
 62
   7
 39
0.100
  6
CONTINUOUS
 10
49.21000
 20
32.68000
 30
 0
 40
2.50000
 50
180.00000
 51
-90.00000
  0
LINE
  8
Contour
 62
   7
 39
0.100
  6
CONTINUOUS
 10
46.71000
 20
32.68000
 30
 0
 11
46.71000
 21
116.68000
  0
ARC
  8
Contour
 62
   7
 39
0.100
  6
CONTINUOUS
 10
49.21000
 20
116.68000
 30
 0
 40
2.50000
 50
450.00000
 51
180.00000
  0
LINE
  8
Contour
 62
   7
 39
0.100
  6
CONTINUOUS
 10
49.21000
 20
119.18000
 30
 0
 11
49.21000
 21
119.18000
  0
ARC
  8
Contour
 62
   7
 39
0.100
  6
CONTINUOUS
 10
49.21000
 20
116.68000
 30
 0
 40
2.50000
 50
360.00000
 51
90.00000
  0
CIRCLE
  8
Contour
 62
   7
 39
0.100
  6
CONTINUOUS
 10
343.71000
 20
84.68000
 30
 0
 40
7.00000
  0
CIRCLE
  8
Contour
 62
   7
 39
0.100
  6
CONTINUOUS
 10
334.21000
 20
84.68000
 30
 0
 40
1.10000
  0
CIRCLE
  8
Contour
 62
   7
 39
0.100
  6
CONTINUOUS
 10
353.21000
 20
84.68000
 30
 0
 40
1.10000
  0
CIRCLE
  8
Contour
 62
   7
 39
0.100
  6
CONTINUOUS
 10
303.61000
 20
122.30500
 30
 0
 40
1.50000
  0
CIRCLE
  8
Contour
 62
   7
 39
0.100
  6
CONTINUOUS
 10
303.61000
 20
78.05500
 30
 0
 40
1.50000
  0
CIRCLE
  8
Contour
 62
   7
 39
0.100
  6
CONTINUOUS
 10
233.81000
 20
78.05500
 30
 0
 40
1.50000
  0
CIRCLE
  8
Contour
 62
   7
 39
0.100
  6
CONTINUOUS
 10
233.81000
 20
122.30500
 30
 0
 40
1.50000
  0
ARC
  8
Contour
 62
   7
 39
0.100
  6
CONTINUOUS
 10
34.71000
 20
45.61800
 30
 0
 40
1.50000
 50
359.96180
 51
28.34215
  0
LINE
  8
Contour
 62
   7
 39
0.100
  6
CONTINUOUS
 10
36.21000
 20
45.61700
 30
 0
 11
36.21000
 21
33.74300
  0
ARC
  8
Contour
 62
   7
 39
0.100
  6
CONTINUOUS
 10
34.71000
 20
33.74200
 30
 0
 40
1.50000
 50
331.65785
 51
0.03820
  0
ARC
  8
Contour
 62
   7
 39
0.100
  6
CONTINUOUS
 10
23.71000
 20
39.68000
 30
 0
 40
14.00000
 50
28.35896
 51
-28.35896
  0
ARC
  8
Contour
 62
   7
 39
0.100
  6
CONTINUOUS
 10
335.85000
 20
59.32000
 30
 0
 40
0.50000
 50
316.05341
 51
133.94659
  0
LINE
  8
Contour
 62
   7
 39
0.100
  6
CONTINUOUS
 10
336.21000
 20
58.97300
 30
 0
 11
336.21000
 21
52.38700
  0
ARC
  8
Contour
 62
   7
 39
0.100
  6
CONTINUOUS
 10
335.85000
 20
52.04000
 30
 0
 40
0.50000
 50
226.05341
 51
43.94659
  0
LINE
  8
Contour
 62
   7
 39
0.100
  6
CONTINUOUS
 10
335.50300
 20
51.68000
 30
 0
 11
314.91700
 21
51.68000
  0
ARC
  8
Contour
 62
   7
 39
0.100
  6
CONTINUOUS
 10
314.57000
 20
52.04000
 30
 0
 40
0.50000
 50
136.05341
 51
-46.05341
  0
LINE
  8
Contour
 62
   7
 39
0.100
  6
CONTINUOUS
 10
314.21000
 20
52.38700
 30
 0
 11
314.21000
 21
58.97300
  0
ARC
  8
Contour
 62
   7
 39
0.100
  6
CONTINUOUS
 10
314.57000
 20
59.32000
 30
 0
 40
0.50000
 50
46.05341
 51
-136.05341
  0
LINE
  8
Contour
 62
   7
 39
0.100
  6
CONTINUOUS
 10
314.91700
 20
59.68000
 30
 0
 11
335.50300
 21
59.68000
  0
LINE
  8
Reference_points
 62
   1
 39
0.100
  6
CONTINUOUS
 10
-1.00000
 20
0.00000
 30
 0
 11
1.00000
 21
0.00000
  0
LINE
  8
Reference_points
 62
   1
 39
0.100
  6
CONTINUOUS
 10
0.00000
 20
-1.00000
 30
 0
 11
0.00000
 21
1.00000
  0
LINE
  8
Reference_points
 62
   1
 39
0.100
  6
CONTINUOUS
 10
270.71000
 20
59.68000
 30
 0
 11
272.71000
 21
59.68000
  0
LINE
  8
Reference_points
 62
   1
 39
0.100
  6
CONTINUOUS
 10
271.71000
 20
58.68000
 30
 0
 11
271.71000
 21
60.68000
  0
LINE
  8
Reference_points
 62
   1
 39
0.100
  6
CONTINUOUS
 10
231.21000
 20
55.68000
 30
 0
 11
233.21000
 21
55.68000
  0
LINE
  8
Reference_points
 62
   1
 39
0.100
  6
CONTINUOUS
 10
232.21000
 20
54.68000
 30
 0
 11
232.21000
 21
56.68000
  0
LINE
  8
Reference_points
 62
   1
 39
0.100
  6
CONTINUOUS
 10
387.71200
 20
89.68000
 30
 0
 11
389.71200
 21
89.68000
  0
LINE
  8
Reference_points
 62
   1
 39
0.100
  6
CONTINUOUS
 10
388.71200
 20
88.68000
 30
 0
 11
388.71200
 21
90.68000
  0
LINE
  8
Reference_points
 62
   1
 39
0.100
  6
CONTINUOUS
 10
397.21200
 20
77.68000
 30
 0
 11
399.21200
 21
77.68000
  0
LINE
  8
Reference_points
 62
   1
 39
0.100
  6
CONTINUOUS
 10
398.21200
 20
76.68000
 30
 0
 11
398.21200
 21
78.68000
  0
LINE
  8
Reference_points
 62
   1
 39
0.100
  6
CONTINUOUS
 10
378.21200
 20
101.68000
 30
 0
 11
380.21200
 21
101.68000
  0
LINE
  8
Reference_points
 62
   1
 39
0.100
  6
CONTINUOUS
 10
379.21200
 20
100.68000
 30
 0
 11
379.21200
 21
102.68000
  0
LINE
  8
Reference_points
 62
   1
 39
0.100
  6
CONTINUOUS
 10
387.71100
 20
89.68000
 30
 0
 11
389.71100
 21
89.68000
  0
LINE
  8
Reference_points
 62
   1
 39
0.100
  6
CONTINUOUS
 10
388.71100
 20
88.68000
 30
 0
 11
388.71100
 21
90.68000
  0
LINE
  8
Reference_points
 62
   1
 39
0.100
  6
CONTINUOUS
 10
387.71000
 20
39.68000
 30
 0
 11
389.71000
 21
39.68000
  0
LINE
  8
Reference_points
 62
   1
 39
0.100
  6
CONTINUOUS
 10
388.71000
 20
38.68000
 30
 0
 11
388.71000
 21
40.68000
  0
LINE
  8
Reference_points
 62
   1
 39
0.100
  6
CONTINUOUS
 10
110.71000
 20
74.68000
 30
 0
 11
112.71000
 21
74.68000
  0
LINE
  8
Reference_points
 62
   1
 39
0.100
  6
CONTINUOUS
 10
111.71000
 20
73.68000
 30
 0
 11
111.71000
 21
75.68000
  0
LINE
  8
Reference_points
 62
   1
 39
0.100
  6
CONTINUOUS
 10
151.96000
 20
115.93000
 30
 0
 11
153.96000
 21
115.93000
  0
LINE
  8
Reference_points
 62
   1
 39
0.100
  6
CONTINUOUS
 10
152.96000
 20
114.93000
 30
 0
 11
152.96000
 21
116.93000
  0
LINE
  8
Reference_points
 62
   1
 39
0.100
  6
CONTINUOUS
 10
69.46000
 20
115.93000
 30
 0
 11
71.46000
 21
115.93000
  0
LINE
  8
Reference_points
 62
   1
 39
0.100
  6
CONTINUOUS
 10
70.46000
 20
114.93000
 30
 0
 11
70.46000
 21
116.93000
  0
LINE
  8
Reference_points
 62
   1
 39
0.100
  6
CONTINUOUS
 10
69.46000
 20
33.43000
 30
 0
 11
71.46000
 21
33.43000
  0
LINE
  8
Reference_points
 62
   1
 39
0.100
  6
CONTINUOUS
 10
70.46000
 20
32.43000
 30
 0
 11
70.46000
 21
34.43000
  0
LINE
  8
Reference_points
 62
   1
 39
0.100
  6
CONTINUOUS
 10
151.96000
 20
33.43000
 30
 0
 11
153.96000
 21
33.43000
  0
LINE
  8
Reference_points
 62
   1
 39
0.100
  6
CONTINUOUS
 10
152.96000
 20
32.43000
 30
 0
 11
152.96000
 21
34.43000
  0
LINE
  8
Reference_points
 62
   1
 39
0.100
  6
CONTINUOUS
 10
110.71000
 20
74.68000
 30
 0
 11
112.71000
 21
74.68000
  0
LINE
  8
Reference_points
 62
   1
 39
0.100
  6
CONTINUOUS
 10
111.71000
 20
73.68000
 30
 0
 11
111.71000
 21
75.68000
  0
LINE
  8
Reference_points
 62
   1
 39
0.100
  6
CONTINUOUS
 10
58.21000
 20
74.68000
 30
 0
 11
60.21000
 21
74.68000
  0
LINE
  8
Reference_points
 62
   1
 39
0.100
  6
CONTINUOUS
 10
59.21000
 20
73.68000
 30
 0
 11
59.21000
 21
75.68000
  0
LINE
  8
Reference_points
 62
   1
 39
0.100
  6
CONTINUOUS
 10
48.21000
 20
74.68000
 30
 0
 11
50.21000
 21
74.68000
  0
LINE
  8
Reference_points
 62
   1
 39
0.100
  6
CONTINUOUS
 10
49.21000
 20
73.68000
 30
 0
 11
49.21000
 21
75.68000
  0
LINE
  8
Reference_points
 62
   1
 39
0.100
  6
CONTINUOUS
 10
342.71000
 20
84.68000
 30
 0
 11
344.71000
 21
84.68000
  0
LINE
  8
Reference_points
 62
   1
 39
0.100
  6
CONTINUOUS
 10
343.71000
 20
83.68000
 30
 0
 11
343.71000
 21
85.68000
  0
LINE
  8
Reference_points
 62
   1
 39
0.100
  6
CONTINUOUS
 10
333.21000
 20
84.68000
 30
 0
 11
335.21000
 21
84.68000
  0
LINE
  8
Reference_points
 62
   1
 39
0.100
  6
CONTINUOUS
 10
334.21000
 20
83.68000
 30
 0
 11
334.21000
 21
85.68000
  0
LINE
  8
Reference_points
 62
   1
 39
0.100
  6
CONTINUOUS
 10
352.21000
 20
84.68000
 30
 0
 11
354.21000
 21
84.68000
  0
LINE
  8
Reference_points
 62
   1
 39
0.100
  6
CONTINUOUS
 10
353.21000
 20
83.68000
 30
 0
 11
353.21000
 21
85.68000
  0
LINE
  8
Reference_points
 62
   1
 39
0.100
  6
CONTINUOUS
 10
342.71000
 20
84.68000
 30
 0
 11
344.71000
 21
84.68000
  0
LINE
  8
Reference_points
 62
   1
 39
0.100
  6
CONTINUOUS
 10
343.71000
 20
83.68000
 30
 0
 11
343.71000
 21
85.68000
  0
LINE
  8
Reference_points
 62
   1
 39
0.100
  6
CONTINUOUS
 10
302.61000
 20
122.30500
 30
 0
 11
304.61000
 21
122.30500
  0
LINE
  8
Reference_points
 62
   1
 39
0.100
  6
CONTINUOUS
 10
303.61000
 20
121.30500
 30
 0
 11
303.61000
 21
123.30500
  0
LINE
  8
Reference_points
 62
   1
 39
0.100
  6
CONTINUOUS
 10
302.61000
 20
78.05500
 30
 0
 11
304.61000
 21
78.05500
  0
LINE
  8
Reference_points
 62
   1
 39
0.100
  6
CONTINUOUS
 10
303.61000
 20
77.05500
 30
 0
 11
303.61000
 21
79.05500
  0
LINE
  8
Reference_points
 62
   1
 39
0.100
  6
CONTINUOUS
 10
232.81000
 20
78.05500
 30
 0
 11
234.81000
 21
78.05500
  0
LINE
  8
Reference_points
 62
   1
 39
0.100
  6
CONTINUOUS
 10
233.81000
 20
77.05500
 30
 0
 11
233.81000
 21
79.05500
  0
LINE
  8
Reference_points
 62
   1
 39
0.100
  6
CONTINUOUS
 10
232.81000
 20
122.30500
 30
 0
 11
234.81000
 21
122.30500
  0
LINE
  8
Reference_points
 62
   1
 39
0.100
  6
CONTINUOUS
 10
233.81000
 20
121.30500
 30
 0
 11
233.81000
 21
123.30500
  0
LINE
  8
Reference_points
 62
   1
 39
0.100
  6
CONTINUOUS
 10
267.71000
 20
100.18000
 30
 0
 11
269.71000
 21
100.18000
  0
LINE
  8
Reference_points
 62
   1
 39
0.100
  6
CONTINUOUS
 10
268.71000
 20
99.18000
 30
 0
 11
268.71000
 21
101.18000
  0
LINE
  8
Reference_points
 62
   1
 39
0.100
  6
CONTINUOUS
 10
22.71000
 20
39.68000
 30
 0
 11
24.71000
 21
39.68000
  0
LINE
  8
Reference_points
 62
   1
 39
0.100
  6
CONTINUOUS
 10
23.71000
 20
38.68000
 30
 0
 11
23.71000
 21
40.68000
  0
LINE
  8
Reference_points
 62
   1
 39
0.100
  6
CONTINUOUS
 10
324.21000
 20
55.68000
 30
 0
 11
326.21000
 21
55.68000
  0
LINE
  8
Reference_points
 62
   1
 39
0.100
  6
CONTINUOUS
 10
325.21000
 20
54.68000
 30
 0
 11
325.21000
 21
56.68000
  0
ENDSEC
  0
EOF
