  0
SECTION
  2
HEADER
  9
$MEASUREMENT
  70
  1
  9
$INSUNITS
  70
  4
  0
ENDSEC
  0
SECTION
  2
TABLES
  0
TABLE
  2
LTYPE
 70
     1
  0
LTYPE
  2
CONTINUOUS
 70
    64
  3
Ausgezogene Linie
 72
    65
 73
     0
 40
0.0
  0
ENDTAB
  0
TABLE
  2
LAYER
 70
     3
  0
LAYER
  2
Contour
 70
    64
 62
     7
  6
CONTINUOUS
  0
LAYER
  2
Engraving
 70
    64
 62
     7
  6
CONTINUOUS
  0
LAYER
  2
Reference_points
 70
    64
 62
     1
  6
CONTINUOUS
  0
ENDTAB
  0
TABLE
  2
STYLE
 70
     1
  0
STYLE
  2
TXT
 70
    64
 40
0.0
 41
1.0
 50
0.0
 71
     0
 42
3.500000
  3
TXT
  0
ENDTAB
  0
ENDSEC
  0
SECTION
  2
BLOCKS
  0
ENDSEC
  0
SECTION
  2
ENTITIES
  0
LINE
  8
Contour
 62
   7
 39
0.100
  6
CONTINUOUS
 10
418.84000
 20
132.59000
 30
 0
 11
0.00000
 21
132.59000
  0
LINE
  8
Contour
 62
   7
 39
0.100
  6
CONTINUOUS
 10
0.00000
 20
132.59000
 30
 0
 11
0.00000
 21
132.59000
  0
LINE
  8
Contour
 62
   7
 39
0.100
  6
CONTINUOUS
 10
0.00000
 20
132.59000
 30
 0
 11
0.00000
 21
0.00000
  0
LINE
  8
Contour
 62
   7
 39
0.100
  6
CONTINUOUS
 10
0.00000
 20
0.00000
 30
 0
 11
0.00000
 21
0.00000
  0
LINE
  8
Contour
 62
   7
 39
0.100
  6
CONTINUOUS
 10
0.00000
 20
0.00000
 30
 0
 11
418.84000
 21
0.00000
  0
LINE
  8
Contour
 62
   7
 39
0.100
  6
CONTINUOUS
 10
418.84000
 20
0.00000
 30
 0
 11
418.84000
 21
0.00000
  0
LINE
  8
Contour
 62
   7
 39
0.100
  6
CONTINUOUS
 10
418.84000
 20
0.00000
 30
 0
 11
418.84000
 21
132.59000
  0
LINE
  8
Contour
 62
   7
 39
0.100
  6
CONTINUOUS
 10
418.84000
 20
132.59000
 30
 0
 11
418.84000
 21
132.59000
  0
ARC
  8
Contour
 62
   7
 39
0.100
  6
CONTINUOUS
 10
290.35000
 20
68.32000
 30
 0
 40
0.50000
 50
316.05341
 51
133.94659
  0
LINE
  8
Contour
 62
   7
 39
0.100
  6
CONTINUOUS
 10
290.71000
 20
67.97300
 30
 0
 11
290.71000
 21
51.38700
  0
ARC
  8
Contour
 62
   7
 39
0.100
  6
CONTINUOUS
 10
290.35000
 20
51.04000
 30
 0
 40
0.50000
 50
226.05341
 51
43.94659
  0
LINE
  8
Contour
 62
   7
 39
0.100
  6
CONTINUOUS
 10
290.00300
 20
50.68000
 30
 0
 11
253.41700
 21
50.68000
  0
ARC
  8
Contour
 62
   7
 39
0.100
  6
CONTINUOUS
 10
253.07000
 20
51.04000
 30
 0
 40
0.50000
 50
136.05341
 51
-46.05341
  0
LINE
  8
Contour
 62
   7
 39
0.100
  6
CONTINUOUS
 10
252.71000
 20
51.38700
 30
 0
 11
252.71000
 21
67.97300
  0
ARC
  8
Contour
 62
   7
 39
0.100
  6
CONTINUOUS
 10
253.07000
 20
68.32000
 30
 0
 40
0.50000
 50
46.05341
 51
-136.05341
  0
LINE
  8
Contour
 62
   7
 39
0.100
  6
CONTINUOUS
 10
253.41700
 20
68.68000
 30
 0
 11
290.00300
 21
68.68000
  0
ARC
  8
Contour
 62
   7
 39
0.100
  6
CONTINUOUS
 10
247.85000
 20
58.82000
 30
 0
 40
0.50000
 50
316.05341
 51
133.94659
  0
LINE
  8
Contour
 62
   7
 39
0.100
  6
CONTINUOUS
 10
248.21000
 20
58.47300
 30
 0
 11
248.21000
 21
52.88700
  0
ARC
  8
Contour
 62
   7
 39
0.100
  6
CONTINUOUS
 10
247.85000
 20
52.54000
 30
 0
 40
0.50000
 50
226.05341
 51
43.94659
  0
LINE
  8
Contour
 62
   7
 39
0.100
  6
CONTINUOUS
 10
247.50300
 20
52.18000
 30
 0
 11
216.91700
 21
52.18000
  0
ARC
  8
Contour
 62
   7
 39
0.100
  6
CONTINUOUS
 10
216.57000
 20
52.54000
 30
 0
 40
0.50000
 50
136.05341
 51
-46.05341
  0
LINE
  8
Contour
 62
   7
 39
0.100
  6
CONTINUOUS
 10
216.21000
 20
52.88700
 30
 0
 11
216.21000
 21
58.47300
  0
ARC
  8
Contour
 62
   7
 39
0.100
  6
CONTINUOUS
 10
216.57000
 20
58.82000
 30
 0
 40
0.50000
 50
46.05341
 51
-136.05341
  0
LINE
  8
Contour
 62
   7
 39
0.100
  6
CONTINUOUS
 10
216.91700
 20
59.18000
 30
 0
 11
247.50300
 21
59.18000
  0
CIRCLE
  8
Contour
 62
   7
 39
0.100
  6
CONTINUOUS
 10
388.71200
 20
89.68000
 30
 0
 40
12.00000
  0
CIRCLE
  8
Contour
 62
   7
 39
0.100
  6
CONTINUOUS
 10
398.21200
 20
77.68000
 30
 0
 40
1.60000
  0
CIRCLE
  8
Contour
 62
   7
 39
0.100
  6
CONTINUOUS
 10
379.21200
 20
101.68000
 30
 0
 40
1.60000
  0
ARC
  8
Contour
 62
   7
 39
0.100
  6
CONTINUOUS
 10
399.71000
 20
45.61800
 30
 0
 40
1.50000
 50
359.96180
 51
28.34215
  0
LINE
  8
Contour
 62
   7
 39
0.100
  6
CONTINUOUS
 10
401.21000
 20
45.61700
 30
 0
 11
401.21000
 21
33.74300
  0
ARC
  8
Contour
 62
   7
 39
0.100
  6
CONTINUOUS
 10
399.71000
 20
33.74200
 30
 0
 40
1.50000
 50
331.65785
 51
0.03820
  0
ARC
  8
Contour
 62
   7
 39
0.100
  6
CONTINUOUS
 10
388.71000
 20
39.68000
 30
 0
 40
14.00000
 50
28.35896
 51
-28.35896
  0
LINE
  8
Contour
 62
   7
 39
0.100
  6
CONTINUOUS
 10
19.46000
 20
112.39000
 30
 0
 11
19.46000
 21
42.79000
  0
ARC
  8
Contour
 62
   7
 39
0.100
  6
CONTINUOUS
 10
15.30000
 20
42.79000
 30
 0
 40
4.16000
 50
270.00000
 51
0.00000
  0
LINE
  8
Contour
 62
   7
 39
0.100
  6
CONTINUOUS
 10
15.30000
 20
38.63000
 30
 0
 11
15.30000
 21
38.63000
  0
ARC
  8
Contour
 62
   7
 39
0.100
  6
CONTINUOUS
 10
15.30000
 20
42.79000
 30
 0
 40
4.16000
 50
180.00000
 51
-90.00000
  0
LINE
  8
Contour
 62
   7
 39
0.100
  6
CONTINUOUS
 10
11.14000
 20
42.79000
 30
 0
 11
11.14000
 21
112.39000
  0
ARC
  8
Contour
 62
   7
 39
0.100
  6
CONTINUOUS
 10
15.30000
 20
112.39000
 30
 0
 40
4.16000
 50
450.00000
 51
180.00000
  0
LINE
  8
Contour
 62
   7
 39
0.100
  6
CONTINUOUS
 10
15.30000
 20
116.55000
 30
 0
 11
15.30000
 21
116.55000
  0
ARC
  8
Contour
 62
   7
 39
0.100
  6
CONTINUOUS
 10
15.30000
 20
112.39000
 30
 0
 40
4.16000
 50
360.00000
 51
90.00000
  0
CIRCLE
  8
Contour
 62
   7
 39
0.100
  6
CONTINUOUS
 10
343.71000
 20
84.68000
 30
 0
 40
7.00000
  0
CIRCLE
  8
Contour
 62
   7
 39
0.100
  6
CONTINUOUS
 10
334.21000
 20
84.68000
 30
 0
 40
1.10000
  0
CIRCLE
  8
Contour
 62
   7
 39
0.100
  6
CONTINUOUS
 10
353.21000
 20
84.68000
 30
 0
 40
1.10000
  0
ARC
  8
Contour
 62
   7
 39
0.100
  6
CONTINUOUS
 10
336.85000
 20
60.32000
 30
 0
 40
0.50000
 50
316.05341
 51
133.94659
  0
LINE
  8
Contour
 62
   7
 39
0.100
  6
CONTINUOUS
 10
337.21000
 20
59.97300
 30
 0
 11
337.21000
 21
51.38700
  0
ARC
  8
Contour
 62
   7
 39
0.100
  6
CONTINUOUS
 10
336.85000
 20
51.04000
 30
 0
 40
0.50000
 50
226.05341
 51
43.94659
  0
LINE
  8
Contour
 62
   7
 39
0.100
  6
CONTINUOUS
 10
336.50300
 20
50.68000
 30
 0
 11
313.91700
 21
50.68000
  0
ARC
  8
Contour
 62
   7
 39
0.100
  6
CONTINUOUS
 10
313.57000
 20
51.04000
 30
 0
 40
0.50000
 50
136.05341
 51
-46.05341
  0
LINE
  8
Contour
 62
   7
 39
0.100
  6
CONTINUOUS
 10
313.21000
 20
51.38700
 30
 0
 11
313.21000
 21
59.97300
  0
ARC
  8
Contour
 62
   7
 39
0.100
  6
CONTINUOUS
 10
313.57000
 20
60.32000
 30
 0
 40
0.50000
 50
46.05341
 51
-136.05341
  0
LINE
  8
Contour
 62
   7
 39
0.100
  6
CONTINUOUS
 10
313.91700
 20
60.68000
 30
 0
 11
336.50300
 21
60.68000
  0
CIRCLE
  8
Contour
 62
   7
 39
0.100
  6
CONTINUOUS
 10
303.61000
 20
122.30500
 30
 0
 40
1.50000
  0
CIRCLE
  8
Contour
 62
   7
 39
0.100
  6
CONTINUOUS
 10
303.61000
 20
78.05500
 30
 0
 40
1.50000
  0
CIRCLE
  8
Contour
 62
   7
 39
0.100
  6
CONTINUOUS
 10
233.81000
 20
78.05500
 30
 0
 40
1.50000
  0
CIRCLE
  8
Contour
 62
   7
 39
0.100
  6
CONTINUOUS
 10
233.81000
 20
122.30500
 30
 0
 40
1.50000
  0
CIRCLE
  8
Contour
 62
   7
 39
0.100
  6
CONTINUOUS
 10
303.61000
 20
100.18000
 30
 0
 40
1.50000
  0
CIRCLE
  8
Contour
 62
   7
 39
0.100
  6
CONTINUOUS
 10
233.81000
 20
100.18000
 30
 0
 40
1.50000
  0
CIRCLE
  8
Contour
 62
   7
 39
0.100
  6
CONTINUOUS
 10
257.08000
 20
122.30000
 30
 0
 40
1.50000
  0
CIRCLE
  8
Contour
 62
   7
 39
0.100
  6
CONTINUOUS
 10
280.34000
 20
122.30000
 30
 0
 40
1.50000
  0
CIRCLE
  8
Contour
 62
   7
 39
0.100
  6
CONTINUOUS
 10
257.08000
 20
100.18000
 30
 0
 40
1.50000
  0
CIRCLE
  8
Contour
 62
   7
 39
0.100
  6
CONTINUOUS
 10
280.34000
 20
100.18000
 30
 0
 40
1.50000
  0
CIRCLE
  8
Contour
 62
   7
 39
0.100
  6
CONTINUOUS
 10
257.08000
 20
78.06000
 30
 0
 40
1.50000
  0
CIRCLE
  8
Contour
 62
   7
 39
0.100
  6
CONTINUOUS
 10
280.34000
 20
78.06000
 30
 0
 40
1.50000
  0
CIRCLE
  8
Contour
 62
   7
 39
0.100
  6
CONTINUOUS
 10
20.46000
 20
118.84000
 30
 0
 40
2.10000
  0
CIRCLE
  8
Contour
 62
   7
 39
0.100
  6
CONTINUOUS
 10
20.46000
 20
36.34000
 30
 0
 40
2.10000
  0
CIRCLE
  8
Contour
 62
   7
 39
0.100
  6
CONTINUOUS
 10
10.14000
 20
118.84000
 30
 0
 40
2.10000
  0
CIRCLE
  8
Contour
 62
   7
 39
0.100
  6
CONTINUOUS
 10
10.14000
 20
36.34000
 30
 0
 40
2.10000
  0
LINE
  8
Contour
 62
   7
 39
0.100
  6
CONTINUOUS
 10
29.78000
 20
112.39000
 30
 0
 11
29.78000
 21
42.79000
  0
ARC
  8
Contour
 62
   7
 39
0.100
  6
CONTINUOUS
 10
25.62000
 20
42.79000
 30
 0
 40
4.16000
 50
270.00000
 51
0.00000
  0
LINE
  8
Contour
 62
   7
 39
0.100
  6
CONTINUOUS
 10
25.62000
 20
38.63000
 30
 0
 11
25.62000
 21
38.63000
  0
ARC
  8
Contour
 62
   7
 39
0.100
  6
CONTINUOUS
 10
25.62000
 20
42.79000
 30
 0
 40
4.16000
 50
180.00000
 51
-90.00000
  0
LINE
  8
Contour
 62
   7
 39
0.100
  6
CONTINUOUS
 10
21.46000
 20
42.79000
 30
 0
 11
21.46000
 21
112.39000
  0
ARC
  8
Contour
 62
   7
 39
0.100
  6
CONTINUOUS
 10
25.62000
 20
112.39000
 30
 0
 40
4.16000
 50
450.00000
 51
180.00000
  0
LINE
  8
Contour
 62
   7
 39
0.100
  6
CONTINUOUS
 10
25.62000
 20
116.55000
 30
 0
 11
25.62000
 21
116.55000
  0
ARC
  8
Contour
 62
   7
 39
0.100
  6
CONTINUOUS
 10
25.62000
 20
112.39000
 30
 0
 40
4.16000
 50
360.00000
 51
90.00000
  0
CIRCLE
  8
Contour
 62
   7
 39
0.100
  6
CONTINUOUS
 10
30.78000
 20
118.84000
 30
 0
 40
2.10000
  0
CIRCLE
  8
Contour
 62
   7
 39
0.100
  6
CONTINUOUS
 10
30.78000
 20
36.34000
 30
 0
 40
2.10000
  0
LINE
  8
Contour
 62
   7
 39
0.100
  6
CONTINUOUS
 10
40.10000
 20
112.39000
 30
 0
 11
40.10000
 21
42.79000
  0
ARC
  8
Contour
 62
   7
 39
0.100
  6
CONTINUOUS
 10
35.94000
 20
42.79000
 30
 0
 40
4.16000
 50
270.00000
 51
0.00000
  0
LINE
  8
Contour
 62
   7
 39
0.100
  6
CONTINUOUS
 10
35.94000
 20
38.63000
 30
 0
 11
35.94000
 21
38.63000
  0
ARC
  8
Contour
 62
   7
 39
0.100
  6
CONTINUOUS
 10
35.94000
 20
42.79000
 30
 0
 40
4.16000
 50
180.00000
 51
-90.00000
  0
LINE
  8
Contour
 62
   7
 39
0.100
  6
CONTINUOUS
 10
31.78000
 20
42.79000
 30
 0
 11
31.78000
 21
112.39000
  0
ARC
  8
Contour
 62
   7
 39
0.100
  6
CONTINUOUS
 10
35.94000
 20
112.39000
 30
 0
 40
4.16000
 50
450.00000
 51
180.00000
  0
LINE
  8
Contour
 62
   7
 39
0.100
  6
CONTINUOUS
 10
35.94000
 20
116.55000
 30
 0
 11
35.94000
 21
116.55000
  0
ARC
  8
Contour
 62
   7
 39
0.100
  6
CONTINUOUS
 10
35.94000
 20
112.39000
 30
 0
 40
4.16000
 50
360.00000
 51
90.00000
  0
CIRCLE
  8
Contour
 62
   7
 39
0.100
  6
CONTINUOUS
 10
41.10000
 20
118.84000
 30
 0
 40
2.10000
  0
CIRCLE
  8
Contour
 62
   7
 39
0.100
  6
CONTINUOUS
 10
41.10000
 20
36.34000
 30
 0
 40
2.10000
  0
LINE
  8
Contour
 62
   7
 39
0.100
  6
CONTINUOUS
 10
50.42000
 20
112.39000
 30
 0
 11
50.42000
 21
42.79000
  0
ARC
  8
Contour
 62
   7
 39
0.100
  6
CONTINUOUS
 10
46.26000
 20
42.79000
 30
 0
 40
4.16000
 50
270.00000
 51
0.00000
  0
LINE
  8
Contour
 62
   7
 39
0.100
  6
CONTINUOUS
 10
46.26000
 20
38.63000
 30
 0
 11
46.26000
 21
38.63000
  0
ARC
  8
Contour
 62
   7
 39
0.100
  6
CONTINUOUS
 10
46.26000
 20
42.79000
 30
 0
 40
4.16000
 50
180.00000
 51
-90.00000
  0
LINE
  8
Contour
 62
   7
 39
0.100
  6
CONTINUOUS
 10
42.10000
 20
42.79000
 30
 0
 11
42.10000
 21
112.39000
  0
ARC
  8
Contour
 62
   7
 39
0.100
  6
CONTINUOUS
 10
46.26000
 20
112.39000
 30
 0
 40
4.16000
 50
450.00000
 51
180.00000
  0
LINE
  8
Contour
 62
   7
 39
0.100
  6
CONTINUOUS
 10
46.26000
 20
116.55000
 30
 0
 11
46.26000
 21
116.55000
  0
ARC
  8
Contour
 62
   7
 39
0.100
  6
CONTINUOUS
 10
46.26000
 20
112.39000
 30
 0
 40
4.16000
 50
360.00000
 51
90.00000
  0
CIRCLE
  8
Contour
 62
   7
 39
0.100
  6
CONTINUOUS
 10
51.42000
 20
118.84000
 30
 0
 40
2.10000
  0
CIRCLE
  8
Contour
 62
   7
 39
0.100
  6
CONTINUOUS
 10
51.42000
 20
36.34000
 30
 0
 40
2.10000
  0
LINE
  8
Contour
 62
   7
 39
0.100
  6
CONTINUOUS
 10
60.74000
 20
112.39000
 30
 0
 11
60.74000
 21
42.79000
  0
ARC
  8
Contour
 62
   7
 39
0.100
  6
CONTINUOUS
 10
56.58000
 20
42.79000
 30
 0
 40
4.16000
 50
270.00000
 51
0.00000
  0
LINE
  8
Contour
 62
   7
 39
0.100
  6
CONTINUOUS
 10
56.58000
 20
38.63000
 30
 0
 11
56.58000
 21
38.63000
  0
ARC
  8
Contour
 62
   7
 39
0.100
  6
CONTINUOUS
 10
56.58000
 20
42.79000
 30
 0
 40
4.16000
 50
180.00000
 51
-90.00000
  0
LINE
  8
Contour
 62
   7
 39
0.100
  6
CONTINUOUS
 10
52.42000
 20
42.79000
 30
 0
 11
52.42000
 21
112.39000
  0
ARC
  8
Contour
 62
   7
 39
0.100
  6
CONTINUOUS
 10
56.58000
 20
112.39000
 30
 0
 40
4.16000
 50
450.00000
 51
180.00000
  0
LINE
  8
Contour
 62
   7
 39
0.100
  6
CONTINUOUS
 10
56.58000
 20
116.55000
 30
 0
 11
56.58000
 21
116.55000
  0
ARC
  8
Contour
 62
   7
 39
0.100
  6
CONTINUOUS
 10
56.58000
 20
112.39000
 30
 0
 40
4.16000
 50
360.00000
 51
90.00000
  0
CIRCLE
  8
Contour
 62
   7
 39
0.100
  6
CONTINUOUS
 10
61.74000
 20
118.84000
 30
 0
 40
2.10000
  0
CIRCLE
  8
Contour
 62
   7
 39
0.100
  6
CONTINUOUS
 10
61.74000
 20
36.34000
 30
 0
 40
2.10000
  0
LINE
  8
Contour
 62
   7
 39
0.100
  6
CONTINUOUS
 10
71.06000
 20
112.39000
 30
 0
 11
71.06000
 21
42.79000
  0
ARC
  8
Contour
 62
   7
 39
0.100
  6
CONTINUOUS
 10
66.90000
 20
42.79000
 30
 0
 40
4.16000
 50
270.00000
 51
0.00000
  0
LINE
  8
Contour
 62
   7
 39
0.100
  6
CONTINUOUS
 10
66.90000
 20
38.63000
 30
 0
 11
66.90000
 21
38.63000
  0
ARC
  8
Contour
 62
   7
 39
0.100
  6
CONTINUOUS
 10
66.90000
 20
42.79000
 30
 0
 40
4.16000
 50
180.00000
 51
-90.00000
  0
LINE
  8
Contour
 62
   7
 39
0.100
  6
CONTINUOUS
 10
62.74000
 20
42.79000
 30
 0
 11
62.74000
 21
112.39000
  0
ARC
  8
Contour
 62
   7
 39
0.100
  6
CONTINUOUS
 10
66.90000
 20
112.39000
 30
 0
 40
4.16000
 50
450.00000
 51
180.00000
  0
LINE
  8
Contour
 62
   7
 39
0.100
  6
CONTINUOUS
 10
66.90000
 20
116.55000
 30
 0
 11
66.90000
 21
116.55000
  0
ARC
  8
Contour
 62
   7
 39
0.100
  6
CONTINUOUS
 10
66.90000
 20
112.39000
 30
 0
 40
4.16000
 50
360.00000
 51
90.00000
  0
CIRCLE
  8
Contour
 62
   7
 39
0.100
  6
CONTINUOUS
 10
72.06000
 20
118.84000
 30
 0
 40
2.10000
  0
CIRCLE
  8
Contour
 62
   7
 39
0.100
  6
CONTINUOUS
 10
72.06000
 20
36.34000
 30
 0
 40
2.10000
  0
LINE
  8
Contour
 62
   7
 39
0.100
  6
CONTINUOUS
 10
81.38000
 20
112.39000
 30
 0
 11
81.38000
 21
42.79000
  0
ARC
  8
Contour
 62
   7
 39
0.100
  6
CONTINUOUS
 10
77.22000
 20
42.79000
 30
 0
 40
4.16000
 50
270.00000
 51
0.00000
  0
LINE
  8
Contour
 62
   7
 39
0.100
  6
CONTINUOUS
 10
77.22000
 20
38.63000
 30
 0
 11
77.22000
 21
38.63000
  0
ARC
  8
Contour
 62
   7
 39
0.100
  6
CONTINUOUS
 10
77.22000
 20
42.79000
 30
 0
 40
4.16000
 50
180.00000
 51
-90.00000
  0
LINE
  8
Contour
 62
   7
 39
0.100
  6
CONTINUOUS
 10
73.06000
 20
42.79000
 30
 0
 11
73.06000
 21
112.39000
  0
ARC
  8
Contour
 62
   7
 39
0.100
  6
CONTINUOUS
 10
77.22000
 20
112.39000
 30
 0
 40
4.16000
 50
450.00000
 51
180.00000
  0
LINE
  8
Contour
 62
   7
 39
0.100
  6
CONTINUOUS
 10
77.22000
 20
116.55000
 30
 0
 11
77.22000
 21
116.55000
  0
ARC
  8
Contour
 62
   7
 39
0.100
  6
CONTINUOUS
 10
77.22000
 20
112.39000
 30
 0
 40
4.16000
 50
360.00000
 51
90.00000
  0
CIRCLE
  8
Contour
 62
   7
 39
0.100
  6
CONTINUOUS
 10
82.38000
 20
118.84000
 30
 0
 40
2.10000
  0
CIRCLE
  8
Contour
 62
   7
 39
0.100
  6
CONTINUOUS
 10
82.38000
 20
36.34000
 30
 0
 40
2.10000
  0
LINE
  8
Contour
 62
   7
 39
0.100
  6
CONTINUOUS
 10
91.70000
 20
112.39000
 30
 0
 11
91.70000
 21
42.79000
  0
ARC
  8
Contour
 62
   7
 39
0.100
  6
CONTINUOUS
 10
87.54000
 20
42.79000
 30
 0
 40
4.16000
 50
270.00000
 51
0.00000
  0
LINE
  8
Contour
 62
   7
 39
0.100
  6
CONTINUOUS
 10
87.54000
 20
38.63000
 30
 0
 11
87.54000
 21
38.63000
  0
ARC
  8
Contour
 62
   7
 39
0.100
  6
CONTINUOUS
 10
87.54000
 20
42.79000
 30
 0
 40
4.16000
 50
180.00000
 51
-90.00000
  0
LINE
  8
Contour
 62
   7
 39
0.100
  6
CONTINUOUS
 10
83.38000
 20
42.79000
 30
 0
 11
83.38000
 21
112.39000
  0
ARC
  8
Contour
 62
   7
 39
0.100
  6
CONTINUOUS
 10
87.54000
 20
112.39000
 30
 0
 40
4.16000
 50
450.00000
 51
180.00000
  0
LINE
  8
Contour
 62
   7
 39
0.100
  6
CONTINUOUS
 10
87.54000
 20
116.55000
 30
 0
 11
87.54000
 21
116.55000
  0
ARC
  8
Contour
 62
   7
 39
0.100
  6
CONTINUOUS
 10
87.54000
 20
112.39000
 30
 0
 40
4.16000
 50
360.00000
 51
90.00000
  0
CIRCLE
  8
Contour
 62
   7
 39
0.100
  6
CONTINUOUS
 10
92.70000
 20
118.84000
 30
 0
 40
2.10000
  0
CIRCLE
  8
Contour
 62
   7
 39
0.100
  6
CONTINUOUS
 10
92.70000
 20
36.34000
 30
 0
 40
2.10000
  0
LINE
  8
Contour
 62
   7
 39
0.100
  6
CONTINUOUS
 10
102.02000
 20
112.39000
 30
 0
 11
102.02000
 21
42.79000
  0
ARC
  8
Contour
 62
   7
 39
0.100
  6
CONTINUOUS
 10
97.86000
 20
42.79000
 30
 0
 40
4.16000
 50
270.00000
 51
0.00000
  0
LINE
  8
Contour
 62
   7
 39
0.100
  6
CONTINUOUS
 10
97.86000
 20
38.63000
 30
 0
 11
97.86000
 21
38.63000
  0
ARC
  8
Contour
 62
   7
 39
0.100
  6
CONTINUOUS
 10
97.86000
 20
42.79000
 30
 0
 40
4.16000
 50
180.00000
 51
-90.00000
  0
LINE
  8
Contour
 62
   7
 39
0.100
  6
CONTINUOUS
 10
93.70000
 20
42.79000
 30
 0
 11
93.70000
 21
112.39000
  0
ARC
  8
Contour
 62
   7
 39
0.100
  6
CONTINUOUS
 10
97.86000
 20
112.39000
 30
 0
 40
4.16000
 50
450.00000
 51
180.00000
  0
LINE
  8
Contour
 62
   7
 39
0.100
  6
CONTINUOUS
 10
97.86000
 20
116.55000
 30
 0
 11
97.86000
 21
116.55000
  0
ARC
  8
Contour
 62
   7
 39
0.100
  6
CONTINUOUS
 10
97.86000
 20
112.39000
 30
 0
 40
4.16000
 50
360.00000
 51
90.00000
  0
CIRCLE
  8
Contour
 62
   7
 39
0.100
  6
CONTINUOUS
 10
103.02000
 20
118.84000
 30
 0
 40
2.10000
  0
CIRCLE
  8
Contour
 62
   7
 39
0.100
  6
CONTINUOUS
 10
103.02000
 20
36.34000
 30
 0
 40
2.10000
  0
LINE
  8
Contour
 62
   7
 39
0.100
  6
CONTINUOUS
 10
112.34000
 20
112.39000
 30
 0
 11
112.34000
 21
42.79000
  0
ARC
  8
Contour
 62
   7
 39
0.100
  6
CONTINUOUS
 10
108.18000
 20
42.79000
 30
 0
 40
4.16000
 50
270.00000
 51
0.00000
  0
LINE
  8
Contour
 62
   7
 39
0.100
  6
CONTINUOUS
 10
108.18000
 20
38.63000
 30
 0
 11
108.18000
 21
38.63000
  0
ARC
  8
Contour
 62
   7
 39
0.100
  6
CONTINUOUS
 10
108.18000
 20
42.79000
 30
 0
 40
4.16000
 50
180.00000
 51
-90.00000
  0
LINE
  8
Contour
 62
   7
 39
0.100
  6
CONTINUOUS
 10
104.02000
 20
42.79000
 30
 0
 11
104.02000
 21
112.39000
  0
ARC
  8
Contour
 62
   7
 39
0.100
  6
CONTINUOUS
 10
108.18000
 20
112.39000
 30
 0
 40
4.16000
 50
450.00000
 51
180.00000
  0
LINE
  8
Contour
 62
   7
 39
0.100
  6
CONTINUOUS
 10
108.18000
 20
116.55000
 30
 0
 11
108.18000
 21
116.55000
  0
ARC
  8
Contour
 62
   7
 39
0.100
  6
CONTINUOUS
 10
108.18000
 20
112.39000
 30
 0
 40
4.16000
 50
360.00000
 51
90.00000
  0
CIRCLE
  8
Contour
 62
   7
 39
0.100
  6
CONTINUOUS
 10
113.34000
 20
118.84000
 30
 0
 40
2.10000
  0
CIRCLE
  8
Contour
 62
   7
 39
0.100
  6
CONTINUOUS
 10
113.34000
 20
36.34000
 30
 0
 40
2.10000
  0
LINE
  8
Contour
 62
   7
 39
0.100
  6
CONTINUOUS
 10
122.66000
 20
112.39000
 30
 0
 11
122.66000
 21
42.79000
  0
ARC
  8
Contour
 62
   7
 39
0.100
  6
CONTINUOUS
 10
118.50000
 20
42.79000
 30
 0
 40
4.16000
 50
270.00000
 51
0.00000
  0
LINE
  8
Contour
 62
   7
 39
0.100
  6
CONTINUOUS
 10
118.50000
 20
38.63000
 30
 0
 11
118.50000
 21
38.63000
  0
ARC
  8
Contour
 62
   7
 39
0.100
  6
CONTINUOUS
 10
118.50000
 20
42.79000
 30
 0
 40
4.16000
 50
180.00000
 51
-90.00000
  0
LINE
  8
Contour
 62
   7
 39
0.100
  6
CONTINUOUS
 10
114.34000
 20
42.79000
 30
 0
 11
114.34000
 21
112.39000
  0
ARC
  8
Contour
 62
   7
 39
0.100
  6
CONTINUOUS
 10
118.50000
 20
112.39000
 30
 0
 40
4.16000
 50
450.00000
 51
180.00000
  0
LINE
  8
Contour
 62
   7
 39
0.100
  6
CONTINUOUS
 10
118.50000
 20
116.55000
 30
 0
 11
118.50000
 21
116.55000
  0
ARC
  8
Contour
 62
   7
 39
0.100
  6
CONTINUOUS
 10
118.50000
 20
112.39000
 30
 0
 40
4.16000
 50
360.00000
 51
90.00000
  0
CIRCLE
  8
Contour
 62
   7
 39
0.100
  6
CONTINUOUS
 10
123.66000
 20
118.84000
 30
 0
 40
2.10000
  0
CIRCLE
  8
Contour
 62
   7
 39
0.100
  6
CONTINUOUS
 10
123.66000
 20
36.34000
 30
 0
 40
2.10000
  0
LINE
  8
Contour
 62
   7
 39
0.100
  6
CONTINUOUS
 10
132.98000
 20
112.39000
 30
 0
 11
132.98000
 21
42.79000
  0
ARC
  8
Contour
 62
   7
 39
0.100
  6
CONTINUOUS
 10
128.82000
 20
42.79000
 30
 0
 40
4.16000
 50
270.00000
 51
0.00000
  0
LINE
  8
Contour
 62
   7
 39
0.100
  6
CONTINUOUS
 10
128.82000
 20
38.63000
 30
 0
 11
128.82000
 21
38.63000
  0
ARC
  8
Contour
 62
   7
 39
0.100
  6
CONTINUOUS
 10
128.82000
 20
42.79000
 30
 0
 40
4.16000
 50
180.00000
 51
-90.00000
  0
LINE
  8
Contour
 62
   7
 39
0.100
  6
CONTINUOUS
 10
124.66000
 20
42.79000
 30
 0
 11
124.66000
 21
112.39000
  0
ARC
  8
Contour
 62
   7
 39
0.100
  6
CONTINUOUS
 10
128.82000
 20
112.39000
 30
 0
 40
4.16000
 50
450.00000
 51
180.00000
  0
LINE
  8
Contour
 62
   7
 39
0.100
  6
CONTINUOUS
 10
128.82000
 20
116.55000
 30
 0
 11
128.82000
 21
116.55000
  0
ARC
  8
Contour
 62
   7
 39
0.100
  6
CONTINUOUS
 10
128.82000
 20
112.39000
 30
 0
 40
4.16000
 50
360.00000
 51
90.00000
  0
CIRCLE
  8
Contour
 62
   7
 39
0.100
  6
CONTINUOUS
 10
133.98000
 20
118.84000
 30
 0
 40
2.10000
  0
CIRCLE
  8
Contour
 62
   7
 39
0.100
  6
CONTINUOUS
 10
133.98000
 20
36.34000
 30
 0
 40
2.10000
  0
LINE
  8
Contour
 62
   7
 39
0.100
  6
CONTINUOUS
 10
143.30000
 20
112.39000
 30
 0
 11
143.30000
 21
42.79000
  0
ARC
  8
Contour
 62
   7
 39
0.100
  6
CONTINUOUS
 10
139.14000
 20
42.79000
 30
 0
 40
4.16000
 50
270.00000
 51
0.00000
  0
LINE
  8
Contour
 62
   7
 39
0.100
  6
CONTINUOUS
 10
139.14000
 20
38.63000
 30
 0
 11
139.14000
 21
38.63000
  0
ARC
  8
Contour
 62
   7
 39
0.100
  6
CONTINUOUS
 10
139.14000
 20
42.79000
 30
 0
 40
4.16000
 50
180.00000
 51
-90.00000
  0
LINE
  8
Contour
 62
   7
 39
0.100
  6
CONTINUOUS
 10
134.98000
 20
42.79000
 30
 0
 11
134.98000
 21
112.39000
  0
ARC
  8
Contour
 62
   7
 39
0.100
  6
CONTINUOUS
 10
139.14000
 20
112.39000
 30
 0
 40
4.16000
 50
450.00000
 51
180.00000
  0
LINE
  8
Contour
 62
   7
 39
0.100
  6
CONTINUOUS
 10
139.14000
 20
116.55000
 30
 0
 11
139.14000
 21
116.55000
  0
ARC
  8
Contour
 62
   7
 39
0.100
  6
CONTINUOUS
 10
139.14000
 20
112.39000
 30
 0
 40
4.16000
 50
360.00000
 51
90.00000
  0
CIRCLE
  8
Contour
 62
   7
 39
0.100
  6
CONTINUOUS
 10
144.30000
 20
118.84000
 30
 0
 40
2.10000
  0
CIRCLE
  8
Contour
 62
   7
 39
0.100
  6
CONTINUOUS
 10
144.30000
 20
36.34000
 30
 0
 40
2.10000
  0
LINE
  8
Contour
 62
   7
 39
0.100
  6
CONTINUOUS
 10
153.62000
 20
112.39000
 30
 0
 11
153.62000
 21
42.79000
  0
ARC
  8
Contour
 62
   7
 39
0.100
  6
CONTINUOUS
 10
149.46000
 20
42.79000
 30
 0
 40
4.16000
 50
270.00000
 51
0.00000
  0
LINE
  8
Contour
 62
   7
 39
0.100
  6
CONTINUOUS
 10
149.46000
 20
38.63000
 30
 0
 11
149.46000
 21
38.63000
  0
ARC
  8
Contour
 62
   7
 39
0.100
  6
CONTINUOUS
 10
149.46000
 20
42.79000
 30
 0
 40
4.16000
 50
180.00000
 51
-90.00000
  0
LINE
  8
Contour
 62
   7
 39
0.100
  6
CONTINUOUS
 10
145.30000
 20
42.79000
 30
 0
 11
145.30000
 21
112.39000
  0
ARC
  8
Contour
 62
   7
 39
0.100
  6
CONTINUOUS
 10
149.46000
 20
112.39000
 30
 0
 40
4.16000
 50
450.00000
 51
180.00000
  0
LINE
  8
Contour
 62
   7
 39
0.100
  6
CONTINUOUS
 10
149.46000
 20
116.55000
 30
 0
 11
149.46000
 21
116.55000
  0
ARC
  8
Contour
 62
   7
 39
0.100
  6
CONTINUOUS
 10
149.46000
 20
112.39000
 30
 0
 40
4.16000
 50
360.00000
 51
90.00000
  0
CIRCLE
  8
Contour
 62
   7
 39
0.100
  6
CONTINUOUS
 10
154.62000
 20
118.84000
 30
 0
 40
2.10000
  0
CIRCLE
  8
Contour
 62
   7
 39
0.100
  6
CONTINUOUS
 10
154.62000
 20
36.34000
 30
 0
 40
2.10000
  0
LINE
  8
Contour
 62
   7
 39
0.100
  6
CONTINUOUS
 10
163.94000
 20
112.39000
 30
 0
 11
163.94000
 21
42.79000
  0
ARC
  8
Contour
 62
   7
 39
0.100
  6
CONTINUOUS
 10
159.78000
 20
42.79000
 30
 0
 40
4.16000
 50
270.00000
 51
0.00000
  0
LINE
  8
Contour
 62
   7
 39
0.100
  6
CONTINUOUS
 10
159.78000
 20
38.63000
 30
 0
 11
159.78000
 21
38.63000
  0
ARC
  8
Contour
 62
   7
 39
0.100
  6
CONTINUOUS
 10
159.78000
 20
42.79000
 30
 0
 40
4.16000
 50
180.00000
 51
-90.00000
  0
LINE
  8
Contour
 62
   7
 39
0.100
  6
CONTINUOUS
 10
155.62000
 20
42.79000
 30
 0
 11
155.62000
 21
112.39000
  0
ARC
  8
Contour
 62
   7
 39
0.100
  6
CONTINUOUS
 10
159.78000
 20
112.39000
 30
 0
 40
4.16000
 50
450.00000
 51
180.00000
  0
LINE
  8
Contour
 62
   7
 39
0.100
  6
CONTINUOUS
 10
159.78000
 20
116.55000
 30
 0
 11
159.78000
 21
116.55000
  0
ARC
  8
Contour
 62
   7
 39
0.100
  6
CONTINUOUS
 10
159.78000
 20
112.39000
 30
 0
 40
4.16000
 50
360.00000
 51
90.00000
  0
CIRCLE
  8
Contour
 62
   7
 39
0.100
  6
CONTINUOUS
 10
164.94000
 20
118.84000
 30
 0
 40
2.10000
  0
CIRCLE
  8
Contour
 62
   7
 39
0.100
  6
CONTINUOUS
 10
164.94000
 20
36.34000
 30
 0
 40
2.10000
  0
LINE
  8
Contour
 62
   7
 39
0.100
  6
CONTINUOUS
 10
174.26000
 20
112.39000
 30
 0
 11
174.26000
 21
42.79000
  0
ARC
  8
Contour
 62
   7
 39
0.100
  6
CONTINUOUS
 10
170.10000
 20
42.79000
 30
 0
 40
4.16000
 50
270.00000
 51
0.00000
  0
LINE
  8
Contour
 62
   7
 39
0.100
  6
CONTINUOUS
 10
170.10000
 20
38.63000
 30
 0
 11
170.10000
 21
38.63000
  0
ARC
  8
Contour
 62
   7
 39
0.100
  6
CONTINUOUS
 10
170.10000
 20
42.79000
 30
 0
 40
4.16000
 50
180.00000
 51
-90.00000
  0
LINE
  8
Contour
 62
   7
 39
0.100
  6
CONTINUOUS
 10
165.94000
 20
42.79000
 30
 0
 11
165.94000
 21
112.39000
  0
ARC
  8
Contour
 62
   7
 39
0.100
  6
CONTINUOUS
 10
170.10000
 20
112.39000
 30
 0
 40
4.16000
 50
450.00000
 51
180.00000
  0
LINE
  8
Contour
 62
   7
 39
0.100
  6
CONTINUOUS
 10
170.10000
 20
116.55000
 30
 0
 11
170.10000
 21
116.55000
  0
ARC
  8
Contour
 62
   7
 39
0.100
  6
CONTINUOUS
 10
170.10000
 20
112.39000
 30
 0
 40
4.16000
 50
360.00000
 51
90.00000
  0
CIRCLE
  8
Contour
 62
   7
 39
0.100
  6
CONTINUOUS
 10
175.26000
 20
118.84000
 30
 0
 40
2.10000
  0
CIRCLE
  8
Contour
 62
   7
 39
0.100
  6
CONTINUOUS
 10
175.26000
 20
36.34000
 30
 0
 40
2.10000
  0
LINE
  8
Contour
 62
   7
 39
0.100
  6
CONTINUOUS
 10
184.58000
 20
112.39000
 30
 0
 11
184.58000
 21
42.79000
  0
ARC
  8
Contour
 62
   7
 39
0.100
  6
CONTINUOUS
 10
180.42000
 20
42.79000
 30
 0
 40
4.16000
 50
270.00000
 51
0.00000
  0
LINE
  8
Contour
 62
   7
 39
0.100
  6
CONTINUOUS
 10
180.42000
 20
38.63000
 30
 0
 11
180.42000
 21
38.63000
  0
ARC
  8
Contour
 62
   7
 39
0.100
  6
CONTINUOUS
 10
180.42000
 20
42.79000
 30
 0
 40
4.16000
 50
180.00000
 51
-90.00000
  0
LINE
  8
Contour
 62
   7
 39
0.100
  6
CONTINUOUS
 10
176.26000
 20
42.79000
 30
 0
 11
176.26000
 21
112.39000
  0
ARC
  8
Contour
 62
   7
 39
0.100
  6
CONTINUOUS
 10
180.42000
 20
112.39000
 30
 0
 40
4.16000
 50
450.00000
 51
180.00000
  0
LINE
  8
Contour
 62
   7
 39
0.100
  6
CONTINUOUS
 10
180.42000
 20
116.55000
 30
 0
 11
180.42000
 21
116.55000
  0
ARC
  8
Contour
 62
   7
 39
0.100
  6
CONTINUOUS
 10
180.42000
 20
112.39000
 30
 0
 40
4.16000
 50
360.00000
 51
90.00000
  0
CIRCLE
  8
Contour
 62
   7
 39
0.100
  6
CONTINUOUS
 10
185.58000
 20
118.84000
 30
 0
 40
2.10000
  0
CIRCLE
  8
Contour
 62
   7
 39
0.100
  6
CONTINUOUS
 10
185.58000
 20
36.34000
 30
 0
 40
2.10000
  0
ENDSEC
  0
EOF
