  0
SECTION
  2
HEADER
  9
$MEASUREMENT
  70
  1
  9
$INSUNITS
  70
  4
  0
ENDSEC
  0
SECTION
  2
TABLES
  0
TABLE
  2
LTYPE
 70
     1
  0
LTYPE
  2
CONTINUOUS
 70
    64
  3
Ausgezogene Linie
 72
    65
 73
     0
 40
0.0
  0
ENDTAB
  0
TABLE
  2
LAYER
 70
     3
  0
LAYER
  2
Contour
 70
    64
 62
     7
  6
CONTINUOUS
  0
LAYER
  2
Engraving
 70
    64
 62
     7
  6
CONTINUOUS
  0
LAYER
  2
Reference_points
 70
    64
 62
     1
  6
CONTINUOUS
  0
ENDTAB
  0
TABLE
  2
STYLE
 70
     1
  0
STYLE
  2
TXT
 70
    64
 40
0.0
 41
1.0
 50
0.0
 71
     0
 42
3.500000
  3
TXT
  0
ENDTAB
  0
ENDSEC
  0
SECTION
  2
BLOCKS
  0
ENDSEC
  0
SECTION
  2
ENTITIES
  0
LINE
  8
Contour
 62
   7
 39
0.100
  6
CONTINUOUS
 10
417.83000
 20
238.00000
 30
 0
 11
0.00000
 21
238.00000
  0
LINE
  8
Contour
 62
   7
 39
0.100
  6
CONTINUOUS
 10
0.00000
 20
238.00000
 30
 0
 11
0.00000
 21
238.00000
  0
LINE
  8
Contour
 62
   7
 39
0.100
  6
CONTINUOUS
 10
0.00000
 20
238.00000
 30
 0
 11
0.00000
 21
0.00000
  0
LINE
  8
Contour
 62
   7
 39
0.100
  6
CONTINUOUS
 10
0.00000
 20
0.00000
 30
 0
 11
0.00000
 21
0.00000
  0
LINE
  8
Contour
 62
   7
 39
0.100
  6
CONTINUOUS
 10
0.00000
 20
0.00000
 30
 0
 11
417.83000
 21
0.00000
  0
LINE
  8
Contour
 62
   7
 39
0.100
  6
CONTINUOUS
 10
417.83000
 20
0.00000
 30
 0
 11
417.83000
 21
0.00000
  0
LINE
  8
Contour
 62
   7
 39
0.100
  6
CONTINUOUS
 10
417.83000
 20
0.00000
 30
 0
 11
417.83000
 21
238.00000
  0
LINE
  8
Contour
 62
   7
 39
0.100
  6
CONTINUOUS
 10
417.83000
 20
238.00000
 30
 0
 11
417.83000
 21
238.00000
  0
LINE
  8
Engraving
 62
   7
 39
0.200
  6
CONTINUOUS
 10
261.25500
 20
94.83000
 30
 0
 11
261.25500
 21
92.73000
  0
ARC
  8
Engraving
 62
   7
 39
0.200
  6
CONTINUOUS
 10
262.55500
 20
92.73000
 30
 0
 40
1.30000
 50
180.00000
 51
360.00000
  0
LINE
  8
Engraving
 62
   7
 39
0.200
  6
CONTINUOUS
 10
263.85500
 20
92.73000
 30
 0
 11
263.85500
 21
94.83000
  0
ARC
  8
Engraving
 62
   7
 39
0.200
  6
CONTINUOUS
 10
262.55500
 20
94.83000
 30
 0
 40
1.30000
 50
0.00000
 51
180.00000
  0
LINE
  8
Engraving
 62
   7
 39
0.200
  6
CONTINUOUS
 10
271.45500
 20
95.03000
 30
 0
 11
272.45500
 21
96.03000
  0
LINE
  8
Engraving
 62
   7
 39
0.200
  6
CONTINUOUS
 10
272.45500
 20
96.03000
 30
 0
 11
272.45500
 21
91.53000
  0
LINE
  8
Engraving
 62
   7
 39
0.200
  6
CONTINUOUS
 10
280.10500
 20
95.58000
 30
 0
 11
280.40500
 21
95.83000
  0
ARC
  8
Engraving
 62
   7
 39
0.200
  6
CONTINUOUS
 10
281.21400
 20
94.88900
 30
 0
 40
1.24100
 50
319.31357
 51
130.68643
  0
LINE
  8
Engraving
 62
   7
 39
0.200
  6
CONTINUOUS
 10
282.15500
 20
94.08000
 30
 0
 11
280.05500
 21
91.53000
  0
LINE
  8
Engraving
 62
   7
 39
0.200
  6
CONTINUOUS
 10
280.05500
 20
91.53000
 30
 0
 11
282.55500
 21
91.53000
  0
ARC
  8
Engraving
 62
   7
 39
0.200
  6
CONTINUOUS
 10
291.36400
 20
94.81700
 30
 0
 40
1.31300
 50
450.39273
 51
157.00763
  0
ARC
  8
Engraving
 62
   7
 39
0.200
  6
CONTINUOUS
 10
291.35500
 20
94.95500
 30
 0
 40
1.17500
 50
270.00000
 51
90.00000
  0
ARC
  8
Engraving
 62
   7
 39
0.200
  6
CONTINUOUS
 10
291.35500
 20
92.60500
 30
 0
 40
1.17500
 50
270.00000
 51
90.00000
  0
ARC
  8
Engraving
 62
   7
 39
0.200
  6
CONTINUOUS
 10
291.36200
 20
92.82000
 30
 0
 40
1.39000
 50
209.75510
 51
-90.28854
  0
LINE
  8
Engraving
 62
   7
 39
0.200
  6
CONTINUOUS
 10
301.65500
 20
96.03000
 30
 0
 11
300.15500
 21
92.28000
  0
LINE
  8
Engraving
 62
   7
 39
0.200
  6
CONTINUOUS
 10
300.15500
 20
92.28000
 30
 0
 11
302.65500
 21
92.28000
  0
LINE
  8
Engraving
 62
   7
 39
0.200
  6
CONTINUOUS
 10
302.65500
 20
92.28000
 30
 0
 11
302.15500
 21
92.28000
  0
LINE
  8
Engraving
 62
   7
 39
0.200
  6
CONTINUOUS
 10
302.15500
 20
92.28000
 30
 0
 11
302.15500
 21
93.03000
  0
LINE
  8
Engraving
 62
   7
 39
0.200
  6
CONTINUOUS
 10
302.15500
 20
93.03000
 30
 0
 11
302.15500
 21
91.53000
  0
LINE
  8
Engraving
 62
   7
 39
0.200
  6
CONTINUOUS
 10
312.55500
 20
96.03000
 30
 0
 11
310.30500
 21
96.03000
  0
LINE
  8
Engraving
 62
   7
 39
0.200
  6
CONTINUOUS
 10
310.30500
 20
96.03000
 30
 0
 11
310.30500
 21
93.93000
  0
ARC
  8
Engraving
 62
   7
 39
0.200
  6
CONTINUOUS
 10
311.35200
 20
92.57400
 30
 0
 40
1.71300
 50
444.87523
 51
127.67259
  0
ARC
  8
Engraving
 62
   7
 39
0.200
  6
CONTINUOUS
 10
311.36800
 20
92.83900
 30
 0
 40
1.44700
 50
315.78406
 51
84.56905
  0
ARC
  8
Engraving
 62
   7
 39
0.200
  6
CONTINUOUS
 10
311.44100
 20
92.77500
 30
 0
 40
1.35000
 50
208.53933
 51
-44.42976
  0
ARC
  8
Engraving
 62
   7
 39
0.200
  6
CONTINUOUS
 10
321.65500
 20
92.98000
 30
 0
 40
1.30000
 50
360.00000
 51
180.00000
  0
LINE
  8
Engraving
 62
   7
 39
0.200
  6
CONTINUOUS
 10
322.95500
 20
92.98000
 30
 0
 11
322.95500
 21
92.73000
  0
ARC
  8
Engraving
 62
   7
 39
0.200
  6
CONTINUOUS
 10
321.65500
 20
92.73000
 30
 0
 40
1.30000
 50
180.00000
 51
0.00000
  0
LINE
  8
Engraving
 62
   7
 39
0.200
  6
CONTINUOUS
 10
320.35500
 20
92.73000
 30
 0
 11
320.35500
 21
94.68000
  0
ARC
  8
Engraving
 62
   7
 39
0.200
  6
CONTINUOUS
 10
321.74000
 20
94.73500
 30
 0
 40
1.38600
 50
45.87691
 51
-177.72591
  0
LINE
  8
Engraving
 62
   7
 39
0.200
  6
CONTINUOUS
 10
330.55500
 20
95.28000
 30
 0
 11
330.55500
 21
96.03000
  0
LINE
  8
Engraving
 62
   7
 39
0.200
  6
CONTINUOUS
 10
330.55500
 20
96.03000
 30
 0
 11
333.05500
 21
96.03000
  0
LINE
  8
Engraving
 62
   7
 39
0.200
  6
CONTINUOUS
 10
333.05500
 20
96.03000
 30
 0
 11
331.05500
 21
91.53000
  0
ARC
  8
Engraving
 62
   7
 39
0.200
  6
CONTINUOUS
 10
341.95500
 20
92.73000
 30
 0
 40
1.30000
 50
270.00000
 51
90.00000
  0
ARC
  8
Engraving
 62
   7
 39
0.200
  6
CONTINUOUS
 10
341.95500
 20
92.73000
 30
 0
 40
1.30000
 50
90.00000
 51
-90.00000
  0
ARC
  8
Engraving
 62
   7
 39
0.200
  6
CONTINUOUS
 10
341.95500
 20
95.08000
 30
 0
 40
1.05000
 50
-90.00000
 51
90.00000
  0
ARC
  8
Engraving
 62
   7
 39
0.200
  6
CONTINUOUS
 10
341.95500
 20
95.08000
 30
 0
 40
1.05000
 50
90.00000
 51
270.00000
  0
ARC
  8
Engraving
 62
   7
 39
0.200
  6
CONTINUOUS
 10
352.10500
 20
94.53000
 30
 0
 40
1.25000
 50
180.00000
 51
0.00000
  0
LINE
  8
Engraving
 62
   7
 39
0.200
  6
CONTINUOUS
 10
350.85500
 20
94.53000
 30
 0
 11
350.85500
 21
94.88000
  0
ARC
  8
Engraving
 62
   7
 39
0.200
  6
CONTINUOUS
 10
352.10500
 20
94.88000
 30
 0
 40
1.25000
 50
360.00000
 51
180.00000
  0
LINE
  8
Engraving
 62
   7
 39
0.200
  6
CONTINUOUS
 10
353.35500
 20
94.88000
 30
 0
 11
353.35500
 21
92.83000
  0
ARC
  8
Engraving
 62
   7
 39
0.200
  6
CONTINUOUS
 10
352.02000
 20
92.75500
 30
 0
 40
1.33700
 50
226.81830
 51
3.21548
  0
LINE
  8
Engraving
 62
   7
 39
0.200
  6
CONTINUOUS
 10
360.95500
 20
95.03000
 30
 0
 11
361.95500
 21
96.03000
  0
LINE
  8
Engraving
 62
   7
 39
0.200
  6
CONTINUOUS
 10
361.95500
 20
96.03000
 30
 0
 11
361.95500
 21
91.53000
  0
LINE
  8
Engraving
 62
   7
 39
0.200
  6
CONTINUOUS
 10
363.15500
 20
94.83000
 30
 0
 11
363.15500
 21
92.73000
  0
ARC
  8
Engraving
 62
   7
 39
0.200
  6
CONTINUOUS
 10
364.45500
 20
92.73000
 30
 0
 40
1.30000
 50
180.00000
 51
360.00000
  0
LINE
  8
Engraving
 62
   7
 39
0.200
  6
CONTINUOUS
 10
365.75500
 20
92.73000
 30
 0
 11
365.75500
 21
94.83000
  0
ARC
  8
Engraving
 62
   7
 39
0.200
  6
CONTINUOUS
 10
364.45500
 20
94.83000
 30
 0
 40
1.30000
 50
0.00000
 51
180.00000
  0
ARC
  8
Engraving
 62
   7
 39
0.200
  6
CONTINUOUS
 10
369.57900
 20
121.79100
 30
 0
 40
1.21600
 50
180.00000
 51
360.00000
  0
LINE
  8
Engraving
 62
   7
 39
0.200
  6
CONTINUOUS
 10
370.79500
 20
121.79100
 30
 0
 11
370.79500
 21
122.93100
  0
ARC
  8
Engraving
 62
   7
 39
0.200
  6
CONTINUOUS
 10
369.57900
 20
122.93100
 30
 0
 40
1.21600
 50
0.00000
 51
180.00000
  0
LINE
  8
Engraving
 62
   7
 39
0.200
  6
CONTINUOUS
 10
368.36300
 20
122.93100
 30
 0
 11
368.36300
 21
121.79100
  0
LINE
  8
Engraving
 62
   7
 39
0.200
  6
CONTINUOUS
 10
371.70700
 20
124.07100
 30
 0
 11
371.70700
 21
121.71500
  0
ARC
  8
Engraving
 62
   7
 39
0.200
  6
CONTINUOUS
 10
372.84700
 20
121.71500
 30
 0
 40
1.14000
 50
180.00000
 51
360.00000
  0
LINE
  8
Engraving
 62
   7
 39
0.200
  6
CONTINUOUS
 10
373.98700
 20
121.71500
 30
 0
 11
373.98700
 21
124.07100
  0
LINE
  8
Engraving
 62
   7
 39
0.200
  6
CONTINUOUS
 10
374.89900
 20
124.07100
 30
 0
 11
377.17900
 21
124.07100
  0
LINE
  8
Engraving
 62
   7
 39
0.200
  6
CONTINUOUS
 10
377.17900
 20
124.07100
 30
 0
 11
376.03900
 21
124.07100
  0
LINE
  8
Engraving
 62
   7
 39
0.200
  6
CONTINUOUS
 10
376.03900
 20
124.07100
 30
 0
 11
376.03900
 21
120.65100
  0
LINE
  8
Engraving
 62
   7
 39
0.200
  6
CONTINUOUS
 10
368.30600
 20
107.13500
 30
 0
 11
368.30600
 21
110.55500
  0
LINE
  8
Engraving
 62
   7
 39
0.200
  6
CONTINUOUS
 10
368.30600
 20
110.55500
 30
 0
 11
369.56000
 21
110.55500
  0
ARC
  8
Engraving
 62
   7
 39
0.200
  6
CONTINUOUS
 10
369.56000
 20
109.70000
 30
 0
 40
0.85500
 50
270.00000
 51
90.00000
  0
LINE
  8
Engraving
 62
   7
 39
0.200
  6
CONTINUOUS
 10
369.56000
 20
108.84500
 30
 0
 11
368.30600
 21
108.84500
  0
LINE
  8
Engraving
 62
   7
 39
0.200
  6
CONTINUOUS
 10
368.30600
 20
108.84500
 30
 0
 11
369.63600
 21
108.84500
  0
LINE
  8
Engraving
 62
   7
 39
0.200
  6
CONTINUOUS
 10
369.63600
 20
108.84500
 30
 0
 11
370.39600
 21
107.13500
  0
LINE
  8
Engraving
 62
   7
 39
0.200
  6
CONTINUOUS
 10
371.27000
 20
108.84500
 30
 0
 11
373.17000
 21
108.84500
  0
LINE
  8
Engraving
 62
   7
 39
0.200
  6
CONTINUOUS
 10
373.55000
 20
110.55500
 30
 0
 11
371.27000
 21
110.55500
  0
LINE
  8
Engraving
 62
   7
 39
0.200
  6
CONTINUOUS
 10
371.27000
 20
110.55500
 30
 0
 11
371.27000
 21
107.13500
  0
LINE
  8
Engraving
 62
   7
 39
0.200
  6
CONTINUOUS
 10
371.27000
 20
107.13500
 30
 0
 11
373.55000
 21
107.13500
  0
LINE
  8
Engraving
 62
   7
 39
0.200
  6
CONTINUOUS
 10
374.46200
 20
108.84500
 30
 0
 11
376.36200
 21
108.84500
  0
LINE
  8
Engraving
 62
   7
 39
0.200
  6
CONTINUOUS
 10
376.74200
 20
110.55500
 30
 0
 11
374.46200
 21
110.55500
  0
LINE
  8
Engraving
 62
   7
 39
0.200
  6
CONTINUOUS
 10
374.46200
 20
110.55500
 30
 0
 11
374.46200
 21
107.13500
  0
LINE
  8
Engraving
 62
   7
 39
0.200
  6
CONTINUOUS
 10
261.25500
 20
164.83000
 30
 0
 11
261.25500
 21
162.73000
  0
ARC
  8
Engraving
 62
   7
 39
0.200
  6
CONTINUOUS
 10
262.55500
 20
162.73000
 30
 0
 40
1.30000
 50
180.00000
 51
360.00000
  0
LINE
  8
Engraving
 62
   7
 39
0.200
  6
CONTINUOUS
 10
263.85500
 20
162.73000
 30
 0
 11
263.85500
 21
164.83000
  0
ARC
  8
Engraving
 62
   7
 39
0.200
  6
CONTINUOUS
 10
262.55500
 20
164.83000
 30
 0
 40
1.30000
 50
0.00000
 51
180.00000
  0
LINE
  8
Engraving
 62
   7
 39
0.200
  6
CONTINUOUS
 10
271.45500
 20
165.03000
 30
 0
 11
272.45500
 21
166.03000
  0
LINE
  8
Engraving
 62
   7
 39
0.200
  6
CONTINUOUS
 10
272.45500
 20
166.03000
 30
 0
 11
272.45500
 21
161.53000
  0
LINE
  8
Engraving
 62
   7
 39
0.200
  6
CONTINUOUS
 10
280.10500
 20
165.58000
 30
 0
 11
280.40500
 21
165.83000
  0
ARC
  8
Engraving
 62
   7
 39
0.200
  6
CONTINUOUS
 10
281.21400
 20
164.88900
 30
 0
 40
1.24100
 50
319.31357
 51
130.68643
  0
LINE
  8
Engraving
 62
   7
 39
0.200
  6
CONTINUOUS
 10
282.15500
 20
164.08000
 30
 0
 11
280.05500
 21
161.53000
  0
LINE
  8
Engraving
 62
   7
 39
0.200
  6
CONTINUOUS
 10
280.05500
 20
161.53000
 30
 0
 11
282.55500
 21
161.53000
  0
ARC
  8
Engraving
 62
   7
 39
0.200
  6
CONTINUOUS
 10
291.36400
 20
164.81700
 30
 0
 40
1.31300
 50
450.39273
 51
157.00763
  0
ARC
  8
Engraving
 62
   7
 39
0.200
  6
CONTINUOUS
 10
291.35500
 20
164.95500
 30
 0
 40
1.17500
 50
270.00000
 51
90.00000
  0
ARC
  8
Engraving
 62
   7
 39
0.200
  6
CONTINUOUS
 10
291.35500
 20
162.60500
 30
 0
 40
1.17500
 50
270.00000
 51
90.00000
  0
ARC
  8
Engraving
 62
   7
 39
0.200
  6
CONTINUOUS
 10
291.36200
 20
162.82000
 30
 0
 40
1.39000
 50
209.75510
 51
-90.28854
  0
LINE
  8
Engraving
 62
   7
 39
0.200
  6
CONTINUOUS
 10
301.65500
 20
166.03000
 30
 0
 11
300.15500
 21
162.28000
  0
LINE
  8
Engraving
 62
   7
 39
0.200
  6
CONTINUOUS
 10
300.15500
 20
162.28000
 30
 0
 11
302.65500
 21
162.28000
  0
LINE
  8
Engraving
 62
   7
 39
0.200
  6
CONTINUOUS
 10
302.65500
 20
162.28000
 30
 0
 11
302.15500
 21
162.28000
  0
LINE
  8
Engraving
 62
   7
 39
0.200
  6
CONTINUOUS
 10
302.15500
 20
162.28000
 30
 0
 11
302.15500
 21
163.03000
  0
LINE
  8
Engraving
 62
   7
 39
0.200
  6
CONTINUOUS
 10
302.15500
 20
163.03000
 30
 0
 11
302.15500
 21
161.53000
  0
LINE
  8
Engraving
 62
   7
 39
0.200
  6
CONTINUOUS
 10
312.55500
 20
166.03000
 30
 0
 11
310.30500
 21
166.03000
  0
LINE
  8
Engraving
 62
   7
 39
0.200
  6
CONTINUOUS
 10
310.30500
 20
166.03000
 30
 0
 11
310.30500
 21
163.93000
  0
ARC
  8
Engraving
 62
   7
 39
0.200
  6
CONTINUOUS
 10
311.35200
 20
162.57400
 30
 0
 40
1.71300
 50
444.87523
 51
127.67259
  0
ARC
  8
Engraving
 62
   7
 39
0.200
  6
CONTINUOUS
 10
311.36800
 20
162.83900
 30
 0
 40
1.44700
 50
315.78406
 51
84.56905
  0
ARC
  8
Engraving
 62
   7
 39
0.200
  6
CONTINUOUS
 10
311.44100
 20
162.77500
 30
 0
 40
1.35000
 50
208.53933
 51
-44.42976
  0
ARC
  8
Engraving
 62
   7
 39
0.200
  6
CONTINUOUS
 10
321.65500
 20
162.98000
 30
 0
 40
1.30000
 50
360.00000
 51
180.00000
  0
LINE
  8
Engraving
 62
   7
 39
0.200
  6
CONTINUOUS
 10
322.95500
 20
162.98000
 30
 0
 11
322.95500
 21
162.73000
  0
ARC
  8
Engraving
 62
   7
 39
0.200
  6
CONTINUOUS
 10
321.65500
 20
162.73000
 30
 0
 40
1.30000
 50
180.00000
 51
0.00000
  0
LINE
  8
Engraving
 62
   7
 39
0.200
  6
CONTINUOUS
 10
320.35500
 20
162.73000
 30
 0
 11
320.35500
 21
164.68000
  0
ARC
  8
Engraving
 62
   7
 39
0.200
  6
CONTINUOUS
 10
321.74000
 20
164.73500
 30
 0
 40
1.38600
 50
45.87691
 51
-177.72591
  0
LINE
  8
Engraving
 62
   7
 39
0.200
  6
CONTINUOUS
 10
330.55500
 20
165.28000
 30
 0
 11
330.55500
 21
166.03000
  0
LINE
  8
Engraving
 62
   7
 39
0.200
  6
CONTINUOUS
 10
330.55500
 20
166.03000
 30
 0
 11
333.05500
 21
166.03000
  0
LINE
  8
Engraving
 62
   7
 39
0.200
  6
CONTINUOUS
 10
333.05500
 20
166.03000
 30
 0
 11
331.05500
 21
161.53000
  0
ARC
  8
Engraving
 62
   7
 39
0.200
  6
CONTINUOUS
 10
341.95500
 20
162.73000
 30
 0
 40
1.30000
 50
270.00000
 51
90.00000
  0
ARC
  8
Engraving
 62
   7
 39
0.200
  6
CONTINUOUS
 10
341.95500
 20
162.73000
 30
 0
 40
1.30000
 50
90.00000
 51
-90.00000
  0
ARC
  8
Engraving
 62
   7
 39
0.200
  6
CONTINUOUS
 10
341.95500
 20
165.08000
 30
 0
 40
1.05000
 50
-90.00000
 51
90.00000
  0
ARC
  8
Engraving
 62
   7
 39
0.200
  6
CONTINUOUS
 10
341.95500
 20
165.08000
 30
 0
 40
1.05000
 50
90.00000
 51
270.00000
  0
ARC
  8
Engraving
 62
   7
 39
0.200
  6
CONTINUOUS
 10
352.10500
 20
164.53000
 30
 0
 40
1.25000
 50
180.00000
 51
0.00000
  0
LINE
  8
Engraving
 62
   7
 39
0.200
  6
CONTINUOUS
 10
350.85500
 20
164.53000
 30
 0
 11
350.85500
 21
164.88000
  0
ARC
  8
Engraving
 62
   7
 39
0.200
  6
CONTINUOUS
 10
352.10500
 20
164.88000
 30
 0
 40
1.25000
 50
360.00000
 51
180.00000
  0
LINE
  8
Engraving
 62
   7
 39
0.200
  6
CONTINUOUS
 10
353.35500
 20
164.88000
 30
 0
 11
353.35500
 21
162.83000
  0
ARC
  8
Engraving
 62
   7
 39
0.200
  6
CONTINUOUS
 10
352.02000
 20
162.75500
 30
 0
 40
1.33700
 50
226.81830
 51
3.21548
  0
LINE
  8
Engraving
 62
   7
 39
0.200
  6
CONTINUOUS
 10
360.95500
 20
165.03000
 30
 0
 11
361.95500
 21
166.03000
  0
LINE
  8
Engraving
 62
   7
 39
0.200
  6
CONTINUOUS
 10
361.95500
 20
166.03000
 30
 0
 11
361.95500
 21
161.53000
  0
LINE
  8
Engraving
 62
   7
 39
0.200
  6
CONTINUOUS
 10
363.15500
 20
164.83000
 30
 0
 11
363.15500
 21
162.73000
  0
ARC
  8
Engraving
 62
   7
 39
0.200
  6
CONTINUOUS
 10
364.45500
 20
162.73000
 30
 0
 40
1.30000
 50
180.00000
 51
360.00000
  0
LINE
  8
Engraving
 62
   7
 39
0.200
  6
CONTINUOUS
 10
365.75500
 20
162.73000
 30
 0
 11
365.75500
 21
164.83000
  0
ARC
  8
Engraving
 62
   7
 39
0.200
  6
CONTINUOUS
 10
364.45500
 20
164.83000
 30
 0
 40
1.30000
 50
0.00000
 51
180.00000
  0
ARC
  8
Engraving
 62
   7
 39
0.200
  6
CONTINUOUS
 10
369.57900
 20
191.79100
 30
 0
 40
1.21600
 50
180.00000
 51
360.00000
  0
LINE
  8
Engraving
 62
   7
 39
0.200
  6
CONTINUOUS
 10
370.79500
 20
191.79100
 30
 0
 11
370.79500
 21
192.93100
  0
ARC
  8
Engraving
 62
   7
 39
0.200
  6
CONTINUOUS
 10
369.57900
 20
192.93100
 30
 0
 40
1.21600
 50
0.00000
 51
180.00000
  0
LINE
  8
Engraving
 62
   7
 39
0.200
  6
CONTINUOUS
 10
368.36300
 20
192.93100
 30
 0
 11
368.36300
 21
191.79100
  0
LINE
  8
Engraving
 62
   7
 39
0.200
  6
CONTINUOUS
 10
371.70700
 20
194.07100
 30
 0
 11
371.70700
 21
191.71500
  0
ARC
  8
Engraving
 62
   7
 39
0.200
  6
CONTINUOUS
 10
372.84700
 20
191.71500
 30
 0
 40
1.14000
 50
180.00000
 51
360.00000
  0
LINE
  8
Engraving
 62
   7
 39
0.200
  6
CONTINUOUS
 10
373.98700
 20
191.71500
 30
 0
 11
373.98700
 21
194.07100
  0
LINE
  8
Engraving
 62
   7
 39
0.200
  6
CONTINUOUS
 10
374.89900
 20
194.07100
 30
 0
 11
377.17900
 21
194.07100
  0
LINE
  8
Engraving
 62
   7
 39
0.200
  6
CONTINUOUS
 10
377.17900
 20
194.07100
 30
 0
 11
376.03900
 21
194.07100
  0
LINE
  8
Engraving
 62
   7
 39
0.200
  6
CONTINUOUS
 10
376.03900
 20
194.07100
 30
 0
 11
376.03900
 21
190.65100
  0
LINE
  8
Engraving
 62
   7
 39
0.200
  6
CONTINUOUS
 10
368.30600
 20
177.13500
 30
 0
 11
368.30600
 21
180.55500
  0
LINE
  8
Engraving
 62
   7
 39
0.200
  6
CONTINUOUS
 10
368.30600
 20
180.55500
 30
 0
 11
369.56000
 21
180.55500
  0
ARC
  8
Engraving
 62
   7
 39
0.200
  6
CONTINUOUS
 10
369.56000
 20
179.70000
 30
 0
 40
0.85500
 50
270.00000
 51
90.00000
  0
LINE
  8
Engraving
 62
   7
 39
0.200
  6
CONTINUOUS
 10
369.56000
 20
178.84500
 30
 0
 11
368.30600
 21
178.84500
  0
LINE
  8
Engraving
 62
   7
 39
0.200
  6
CONTINUOUS
 10
368.30600
 20
178.84500
 30
 0
 11
369.63600
 21
178.84500
  0
LINE
  8
Engraving
 62
   7
 39
0.200
  6
CONTINUOUS
 10
369.63600
 20
178.84500
 30
 0
 11
370.39600
 21
177.13500
  0
LINE
  8
Engraving
 62
   7
 39
0.200
  6
CONTINUOUS
 10
371.27000
 20
178.84500
 30
 0
 11
373.17000
 21
178.84500
  0
LINE
  8
Engraving
 62
   7
 39
0.200
  6
CONTINUOUS
 10
373.55000
 20
180.55500
 30
 0
 11
371.27000
 21
180.55500
  0
LINE
  8
Engraving
 62
   7
 39
0.200
  6
CONTINUOUS
 10
371.27000
 20
180.55500
 30
 0
 11
371.27000
 21
177.13500
  0
LINE
  8
Engraving
 62
   7
 39
0.200
  6
CONTINUOUS
 10
371.27000
 20
177.13500
 30
 0
 11
373.55000
 21
177.13500
  0
LINE
  8
Engraving
 62
   7
 39
0.200
  6
CONTINUOUS
 10
374.46200
 20
178.84500
 30
 0
 11
376.36200
 21
178.84500
  0
LINE
  8
Engraving
 62
   7
 39
0.200
  6
CONTINUOUS
 10
376.74200
 20
180.55500
 30
 0
 11
374.46200
 21
180.55500
  0
LINE
  8
Engraving
 62
   7
 39
0.200
  6
CONTINUOUS
 10
374.46200
 20
180.55500
 30
 0
 11
374.46200
 21
177.13500
  0
CIRCLE
  8
Contour
 62
   7
 39
0.100
  6
CONTINUOUS
 10
282.60000
 20
108.63000
 30
 0
 40
3.50000
  0
CIRCLE
  8
Contour
 62
   7
 39
0.100
  6
CONTINUOUS
 10
282.60000
 20
122.23000
 30
 0
 40
4.00500
  0
CIRCLE
  8
Contour
 62
   7
 39
0.100
  6
CONTINUOUS
 10
292.60000
 20
108.63000
 30
 0
 40
3.50000
  0
CIRCLE
  8
Contour
 62
   7
 39
0.100
  6
CONTINUOUS
 10
292.60000
 20
122.23000
 30
 0
 40
4.00600
  0
CIRCLE
  8
Contour
 62
   7
 39
0.100
  6
CONTINUOUS
 10
302.60000
 20
108.63000
 30
 0
 40
3.50000
  0
CIRCLE
  8
Contour
 62
   7
 39
0.100
  6
CONTINUOUS
 10
302.60000
 20
122.23000
 30
 0
 40
4.00600
  0
CIRCLE
  8
Contour
 62
   7
 39
0.100
  6
CONTINUOUS
 10
312.60000
 20
108.63000
 30
 0
 40
3.50000
  0
CIRCLE
  8
Contour
 62
   7
 39
0.100
  6
CONTINUOUS
 10
312.60000
 20
122.23000
 30
 0
 40
4.00600
  0
CIRCLE
  8
Contour
 62
   7
 39
0.100
  6
CONTINUOUS
 10
322.60000
 20
108.63000
 30
 0
 40
3.50000
  0
CIRCLE
  8
Contour
 62
   7
 39
0.100
  6
CONTINUOUS
 10
322.60000
 20
122.23000
 30
 0
 40
4.00600
  0
CIRCLE
  8
Contour
 62
   7
 39
0.100
  6
CONTINUOUS
 10
332.60000
 20
108.63000
 30
 0
 40
3.50000
  0
CIRCLE
  8
Contour
 62
   7
 39
0.100
  6
CONTINUOUS
 10
332.60000
 20
122.23000
 30
 0
 40
4.00500
  0
CIRCLE
  8
Contour
 62
   7
 39
0.100
  6
CONTINUOUS
 10
342.60000
 20
108.63000
 30
 0
 40
3.50000
  0
CIRCLE
  8
Contour
 62
   7
 39
0.100
  6
CONTINUOUS
 10
342.60000
 20
122.23000
 30
 0
 40
4.00500
  0
CIRCLE
  8
Contour
 62
   7
 39
0.100
  6
CONTINUOUS
 10
352.60000
 20
108.63000
 30
 0
 40
3.50000
  0
CIRCLE
  8
Contour
 62
   7
 39
0.100
  6
CONTINUOUS
 10
352.60000
 20
122.23000
 30
 0
 40
4.00500
  0
CIRCLE
  8
Contour
 62
   7
 39
0.100
  6
CONTINUOUS
 10
362.60000
 20
108.63000
 30
 0
 40
3.50000
  0
CIRCLE
  8
Contour
 62
   7
 39
0.100
  6
CONTINUOUS
 10
362.60000
 20
122.23000
 30
 0
 40
4.00500
  0
CIRCLE
  8
Contour
 62
   7
 39
0.100
  6
CONTINUOUS
 10
272.60000
 20
108.63000
 30
 0
 40
3.50000
  0
CIRCLE
  8
Contour
 62
   7
 39
0.100
  6
CONTINUOUS
 10
272.60000
 20
122.23000
 30
 0
 40
4.00500
  0
CIRCLE
  8
Contour
 62
   7
 39
0.100
  6
CONTINUOUS
 10
262.60000
 20
108.63000
 30
 0
 40
3.50000
  0
CIRCLE
  8
Contour
 62
   7
 39
0.100
  6
CONTINUOUS
 10
262.60000
 20
122.23000
 30
 0
 40
4.00500
  0
ARC
  8
Contour
 62
   7
 39
0.100
  6
CONTINUOUS
 10
238.24000
 20
137.57000
 30
 0
 40
0.50000
 50
316.05341
 51
133.94659
  0
LINE
  8
Contour
 62
   7
 39
0.100
  6
CONTINUOUS
 10
238.60000
 20
137.22300
 30
 0
 11
238.60000
 21
77.63700
  0
ARC
  8
Contour
 62
   7
 39
0.100
  6
CONTINUOUS
 10
238.24000
 20
77.29000
 30
 0
 40
0.50000
 50
226.05341
 51
43.94659
  0
LINE
  8
Contour
 62
   7
 39
0.100
  6
CONTINUOUS
 10
237.89300
 20
76.93000
 30
 0
 11
215.30700
 21
76.93000
  0
ARC
  8
Contour
 62
   7
 39
0.100
  6
CONTINUOUS
 10
214.96000
 20
77.29000
 30
 0
 40
0.50000
 50
136.05341
 51
-46.05341
  0
LINE
  8
Contour
 62
   7
 39
0.100
  6
CONTINUOUS
 10
214.60000
 20
77.63700
 30
 0
 11
214.60000
 21
137.22300
  0
ARC
  8
Contour
 62
   7
 39
0.100
  6
CONTINUOUS
 10
214.96000
 20
137.57000
 30
 0
 40
0.50000
 50
46.05341
 51
-136.05341
  0
LINE
  8
Contour
 62
   7
 39
0.100
  6
CONTINUOUS
 10
215.30700
 20
137.93000
 30
 0
 11
237.89300
 21
137.93000
  0
CIRCLE
  8
Contour
 62
   7
 39
0.100
  6
CONTINUOUS
 10
267.26000
 20
133.18000
 30
 0
 40
2.05000
  0
CIRCLE
  8
Contour
 62
   7
 39
0.100
  6
CONTINUOUS
 10
267.26000
 20
81.68000
 30
 0
 40
2.05000
  0
CIRCLE
  8
Contour
 62
   7
 39
0.100
  6
CONTINUOUS
 10
277.26000
 20
133.18000
 30
 0
 40
2.05000
  0
CIRCLE
  8
Contour
 62
   7
 39
0.100
  6
CONTINUOUS
 10
287.26000
 20
133.18000
 30
 0
 40
2.05000
  0
CIRCLE
  8
Contour
 62
   7
 39
0.100
  6
CONTINUOUS
 10
297.26000
 20
133.18000
 30
 0
 40
2.05000
  0
CIRCLE
  8
Contour
 62
   7
 39
0.100
  6
CONTINUOUS
 10
307.26000
 20
133.18000
 30
 0
 40
2.05000
  0
CIRCLE
  8
Contour
 62
   7
 39
0.100
  6
CONTINUOUS
 10
317.26000
 20
133.18000
 30
 0
 40
2.05000
  0
CIRCLE
  8
Contour
 62
   7
 39
0.100
  6
CONTINUOUS
 10
327.26000
 20
133.18000
 30
 0
 40
2.05000
  0
CIRCLE
  8
Contour
 62
   7
 39
0.100
  6
CONTINUOUS
 10
337.26000
 20
133.18000
 30
 0
 40
2.05000
  0
CIRCLE
  8
Contour
 62
   7
 39
0.100
  6
CONTINUOUS
 10
347.26000
 20
133.18000
 30
 0
 40
2.05000
  0
CIRCLE
  8
Contour
 62
   7
 39
0.100
  6
CONTINUOUS
 10
357.26000
 20
133.18000
 30
 0
 40
2.05000
  0
CIRCLE
  8
Contour
 62
   7
 39
0.100
  6
CONTINUOUS
 10
367.26000
 20
133.18000
 30
 0
 40
2.05000
  0
CIRCLE
  8
Contour
 62
   7
 39
0.100
  6
CONTINUOUS
 10
277.26000
 20
81.68000
 30
 0
 40
2.05000
  0
CIRCLE
  8
Contour
 62
   7
 39
0.100
  6
CONTINUOUS
 10
287.26000
 20
81.68000
 30
 0
 40
2.05000
  0
CIRCLE
  8
Contour
 62
   7
 39
0.100
  6
CONTINUOUS
 10
297.26000
 20
81.68000
 30
 0
 40
2.05000
  0
CIRCLE
  8
Contour
 62
   7
 39
0.100
  6
CONTINUOUS
 10
307.26000
 20
81.68000
 30
 0
 40
2.05000
  0
CIRCLE
  8
Contour
 62
   7
 39
0.100
  6
CONTINUOUS
 10
317.26000
 20
81.68000
 30
 0
 40
2.05000
  0
CIRCLE
  8
Contour
 62
   7
 39
0.100
  6
CONTINUOUS
 10
327.26000
 20
81.68000
 30
 0
 40
2.05000
  0
CIRCLE
  8
Contour
 62
   7
 39
0.100
  6
CONTINUOUS
 10
337.26000
 20
81.68000
 30
 0
 40
2.05000
  0
CIRCLE
  8
Contour
 62
   7
 39
0.100
  6
CONTINUOUS
 10
347.26000
 20
81.68000
 30
 0
 40
2.05000
  0
CIRCLE
  8
Contour
 62
   7
 39
0.100
  6
CONTINUOUS
 10
357.26000
 20
81.68000
 30
 0
 40
2.05000
  0
CIRCLE
  8
Contour
 62
   7
 39
0.100
  6
CONTINUOUS
 10
367.26000
 20
81.68000
 30
 0
 40
2.05000
  0
CIRCLE
  8
Contour
 62
   7
 39
0.100
  6
CONTINUOUS
 10
282.60000
 20
178.63000
 30
 0
 40
3.50000
  0
CIRCLE
  8
Contour
 62
   7
 39
0.100
  6
CONTINUOUS
 10
282.60000
 20
192.23000
 30
 0
 40
4.00500
  0
CIRCLE
  8
Contour
 62
   7
 39
0.100
  6
CONTINUOUS
 10
292.60000
 20
178.63000
 30
 0
 40
3.50000
  0
CIRCLE
  8
Contour
 62
   7
 39
0.100
  6
CONTINUOUS
 10
292.60000
 20
192.23000
 30
 0
 40
4.00500
  0
CIRCLE
  8
Contour
 62
   7
 39
0.100
  6
CONTINUOUS
 10
302.60000
 20
178.63000
 30
 0
 40
3.50000
  0
CIRCLE
  8
Contour
 62
   7
 39
0.100
  6
CONTINUOUS
 10
302.60000
 20
192.23000
 30
 0
 40
4.00500
  0
CIRCLE
  8
Contour
 62
   7
 39
0.100
  6
CONTINUOUS
 10
312.60000
 20
178.63000
 30
 0
 40
3.50000
  0
CIRCLE
  8
Contour
 62
   7
 39
0.100
  6
CONTINUOUS
 10
312.60000
 20
192.23000
 30
 0
 40
4.00500
  0
CIRCLE
  8
Contour
 62
   7
 39
0.100
  6
CONTINUOUS
 10
322.60000
 20
178.63000
 30
 0
 40
3.50000
  0
CIRCLE
  8
Contour
 62
   7
 39
0.100
  6
CONTINUOUS
 10
322.60000
 20
192.23000
 30
 0
 40
4.00500
  0
CIRCLE
  8
Contour
 62
   7
 39
0.100
  6
CONTINUOUS
 10
332.60000
 20
178.63000
 30
 0
 40
3.50000
  0
CIRCLE
  8
Contour
 62
   7
 39
0.100
  6
CONTINUOUS
 10
332.60000
 20
192.23000
 30
 0
 40
4.00500
  0
CIRCLE
  8
Contour
 62
   7
 39
0.100
  6
CONTINUOUS
 10
342.60000
 20
178.63000
 30
 0
 40
3.50000
  0
CIRCLE
  8
Contour
 62
   7
 39
0.100
  6
CONTINUOUS
 10
342.60000
 20
192.23000
 30
 0
 40
4.00500
  0
CIRCLE
  8
Contour
 62
   7
 39
0.100
  6
CONTINUOUS
 10
352.60000
 20
178.63000
 30
 0
 40
3.50000
  0
CIRCLE
  8
Contour
 62
   7
 39
0.100
  6
CONTINUOUS
 10
352.60000
 20
192.23000
 30
 0
 40
4.00500
  0
CIRCLE
  8
Contour
 62
   7
 39
0.100
  6
CONTINUOUS
 10
362.60000
 20
178.63000
 30
 0
 40
3.50000
  0
CIRCLE
  8
Contour
 62
   7
 39
0.100
  6
CONTINUOUS
 10
362.60000
 20
192.23000
 30
 0
 40
4.00500
  0
CIRCLE
  8
Contour
 62
   7
 39
0.100
  6
CONTINUOUS
 10
272.60000
 20
178.63000
 30
 0
 40
3.50000
  0
CIRCLE
  8
Contour
 62
   7
 39
0.100
  6
CONTINUOUS
 10
272.60000
 20
192.23000
 30
 0
 40
4.00500
  0
CIRCLE
  8
Contour
 62
   7
 39
0.100
  6
CONTINUOUS
 10
262.60000
 20
178.63000
 30
 0
 40
3.50000
  0
CIRCLE
  8
Contour
 62
   7
 39
0.100
  6
CONTINUOUS
 10
262.60000
 20
192.23000
 30
 0
 40
4.00500
  0
ARC
  8
Contour
 62
   7
 39
0.100
  6
CONTINUOUS
 10
238.24000
 20
207.57000
 30
 0
 40
0.50000
 50
316.05341
 51
133.94659
  0
LINE
  8
Contour
 62
   7
 39
0.100
  6
CONTINUOUS
 10
238.60000
 20
207.22300
 30
 0
 11
238.60000
 21
147.63700
  0
ARC
  8
Contour
 62
   7
 39
0.100
  6
CONTINUOUS
 10
238.24000
 20
147.29000
 30
 0
 40
0.50000
 50
226.05341
 51
43.94659
  0
LINE
  8
Contour
 62
   7
 39
0.100
  6
CONTINUOUS
 10
237.89300
 20
146.93000
 30
 0
 11
215.30700
 21
146.93000
  0
ARC
  8
Contour
 62
   7
 39
0.100
  6
CONTINUOUS
 10
214.96000
 20
147.29000
 30
 0
 40
0.50000
 50
136.05341
 51
-46.05341
  0
LINE
  8
Contour
 62
   7
 39
0.100
  6
CONTINUOUS
 10
214.60000
 20
147.63700
 30
 0
 11
214.60000
 21
207.22300
  0
ARC
  8
Contour
 62
   7
 39
0.100
  6
CONTINUOUS
 10
214.96000
 20
207.57000
 30
 0
 40
0.50000
 50
46.05341
 51
-136.05341
  0
LINE
  8
Contour
 62
   7
 39
0.100
  6
CONTINUOUS
 10
215.30700
 20
207.93000
 30
 0
 11
237.89300
 21
207.93000
  0
CIRCLE
  8
Contour
 62
   7
 39
0.100
  6
CONTINUOUS
 10
267.26000
 20
203.18000
 30
 0
 40
2.05000
  0
CIRCLE
  8
Contour
 62
   7
 39
0.100
  6
CONTINUOUS
 10
267.26000
 20
151.68000
 30
 0
 40
2.05000
  0
CIRCLE
  8
Contour
 62
   7
 39
0.100
  6
CONTINUOUS
 10
277.26000
 20
203.18000
 30
 0
 40
2.05000
  0
CIRCLE
  8
Contour
 62
   7
 39
0.100
  6
CONTINUOUS
 10
287.26000
 20
203.18000
 30
 0
 40
2.05000
  0
CIRCLE
  8
Contour
 62
   7
 39
0.100
  6
CONTINUOUS
 10
297.26000
 20
203.18000
 30
 0
 40
2.05000
  0
CIRCLE
  8
Contour
 62
   7
 39
0.100
  6
CONTINUOUS
 10
307.26000
 20
203.18000
 30
 0
 40
2.05000
  0
CIRCLE
  8
Contour
 62
   7
 39
0.100
  6
CONTINUOUS
 10
317.26000
 20
203.18000
 30
 0
 40
2.05000
  0
CIRCLE
  8
Contour
 62
   7
 39
0.100
  6
CONTINUOUS
 10
327.26000
 20
203.18000
 30
 0
 40
2.05000
  0
CIRCLE
  8
Contour
 62
   7
 39
0.100
  6
CONTINUOUS
 10
337.26000
 20
203.18000
 30
 0
 40
2.05000
  0
CIRCLE
  8
Contour
 62
   7
 39
0.100
  6
CONTINUOUS
 10
347.26000
 20
203.18000
 30
 0
 40
2.05000
  0
CIRCLE
  8
Contour
 62
   7
 39
0.100
  6
CONTINUOUS
 10
357.26000
 20
203.18000
 30
 0
 40
2.05000
  0
CIRCLE
  8
Contour
 62
   7
 39
0.100
  6
CONTINUOUS
 10
367.26000
 20
203.18000
 30
 0
 40
2.05000
  0
CIRCLE
  8
Contour
 62
   7
 39
0.100
  6
CONTINUOUS
 10
277.26000
 20
151.68000
 30
 0
 40
2.05000
  0
CIRCLE
  8
Contour
 62
   7
 39
0.100
  6
CONTINUOUS
 10
287.26000
 20
151.68000
 30
 0
 40
2.05000
  0
CIRCLE
  8
Contour
 62
   7
 39
0.100
  6
CONTINUOUS
 10
297.26000
 20
151.68000
 30
 0
 40
2.05000
  0
CIRCLE
  8
Contour
 62
   7
 39
0.100
  6
CONTINUOUS
 10
307.26000
 20
151.68000
 30
 0
 40
2.05000
  0
CIRCLE
  8
Contour
 62
   7
 39
0.100
  6
CONTINUOUS
 10
317.26000
 20
151.68000
 30
 0
 40
2.05000
  0
CIRCLE
  8
Contour
 62
   7
 39
0.100
  6
CONTINUOUS
 10
327.26000
 20
151.68000
 30
 0
 40
2.05000
  0
CIRCLE
  8
Contour
 62
   7
 39
0.100
  6
CONTINUOUS
 10
337.26000
 20
151.68000
 30
 0
 40
2.05000
  0
CIRCLE
  8
Contour
 62
   7
 39
0.100
  6
CONTINUOUS
 10
347.26000
 20
151.68000
 30
 0
 40
2.05000
  0
CIRCLE
  8
Contour
 62
   7
 39
0.100
  6
CONTINUOUS
 10
357.26000
 20
151.68000
 30
 0
 40
2.05000
  0
CIRCLE
  8
Contour
 62
   7
 39
0.100
  6
CONTINUOUS
 10
367.26000
 20
151.68000
 30
 0
 40
2.05000
  0
CIRCLE
  8
Contour
 62
   7
 39
0.100
  6
CONTINUOUS
 10
20.35000
 20
147.97000
 30
 0
 40
2.00000
  0
CIRCLE
  8
Contour
 62
   7
 39
0.100
  6
CONTINUOUS
 10
20.53000
 20
214.53000
 30
 0
 40
2.00000
  0
CIRCLE
  8
Contour
 62
   7
 39
0.100
  6
CONTINUOUS
 10
58.45000
 20
214.53000
 30
 0
 40
2.00000
  0
CIRCLE
  8
Contour
 62
   7
 39
0.100
  6
CONTINUOUS
 10
148.87000
 20
214.53000
 30
 0
 40
2.00000
  0
CIRCLE
  8
Contour
 62
   7
 39
0.100
  6
CONTINUOUS
 10
186.97000
 20
214.53000
 30
 0
 40
2.00000
  0
CIRCLE
  8
Contour
 62
   7
 39
0.100
  6
CONTINUOUS
 10
58.45000
 20
147.85000
 30
 0
 40
2.00000
  0
CIRCLE
  8
Contour
 62
   7
 39
0.100
  6
CONTINUOUS
 10
148.87000
 20
147.85000
 30
 0
 40
2.00000
  0
CIRCLE
  8
Contour
 62
   7
 39
0.100
  6
CONTINUOUS
 10
186.97000
 20
147.85000
 30
 0
 40
2.00000
  0
CIRCLE
  8
Contour
 62
   7
 39
0.100
  6
CONTINUOUS
 10
81.44000
 20
181.25000
 30
 0
 40
2.00000
  0
CIRCLE
  8
Contour
 62
   7
 39
0.100
  6
CONTINUOUS
 10
125.88500
 20
181.25000
 30
 0
 40
2.00000
  0
CIRCLE
  8
Contour
 62
   7
 39
0.100
  6
CONTINUOUS
 10
31.65000
 20
26.47000
 30
 0
 40
2.00000
  0
CIRCLE
  8
Contour
 62
   7
 39
0.100
  6
CONTINUOUS
 10
31.83000
 20
93.03000
 30
 0
 40
2.00000
  0
CIRCLE
  8
Contour
 62
   7
 39
0.100
  6
CONTINUOUS
 10
69.75000
 20
93.03000
 30
 0
 40
2.00000
  0
CIRCLE
  8
Contour
 62
   7
 39
0.100
  6
CONTINUOUS
 10
160.17000
 20
93.03000
 30
 0
 40
2.00000
  0
CIRCLE
  8
Contour
 62
   7
 39
0.100
  6
CONTINUOUS
 10
198.27000
 20
93.03000
 30
 0
 40
2.00000
  0
CIRCLE
  8
Contour
 62
   7
 39
0.100
  6
CONTINUOUS
 10
69.75000
 20
26.35000
 30
 0
 40
2.00000
  0
CIRCLE
  8
Contour
 62
   7
 39
0.100
  6
CONTINUOUS
 10
160.17000
 20
26.35000
 30
 0
 40
2.00000
  0
CIRCLE
  8
Contour
 62
   7
 39
0.100
  6
CONTINUOUS
 10
198.27000
 20
26.35000
 30
 0
 40
2.00000
  0
CIRCLE
  8
Contour
 62
   7
 39
0.100
  6
CONTINUOUS
 10
92.74000
 20
59.75000
 30
 0
 40
2.00000
  0
CIRCLE
  8
Contour
 62
   7
 39
0.100
  6
CONTINUOUS
 10
137.18500
 20
59.75000
 30
 0
 40
2.00000
  0
ARC
  8
Contour
 62
   7
 39
0.100
  6
CONTINUOUS
 10
251.08400
 20
83.80200
 30
 0
 40
0.50000
 50
360.00000
 51
30.92446
  0
LINE
  8
Contour
 62
   7
 39
0.100
  6
CONTINUOUS
 10
251.58400
 20
83.80200
 30
 0
 11
251.58400
 21
81.05400
  0
ARC
  8
Contour
 62
   7
 39
0.100
  6
CONTINUOUS
 10
251.08400
 20
81.05400
 30
 0
 40
0.50000
 50
329.07554
 51
0.00000
  0
ARC
  8
Contour
 62
   7
 39
0.100
  6
CONTINUOUS
 10
248.78900
 20
82.42800
 30
 0
 40
3.17500
 50
30.91114
 51
-30.91114
  0
ARC
  8
Contour
 62
   7
 39
0.100
  6
CONTINUOUS
 10
251.08400
 20
93.80200
 30
 0
 40
0.50000
 50
360.00000
 51
30.92446
  0
LINE
  8
Contour
 62
   7
 39
0.100
  6
CONTINUOUS
 10
251.58400
 20
93.80200
 30
 0
 11
251.58400
 21
91.05400
  0
ARC
  8
Contour
 62
   7
 39
0.100
  6
CONTINUOUS
 10
251.08400
 20
91.05400
 30
 0
 40
0.50000
 50
329.07554
 51
0.00000
  0
ARC
  8
Contour
 62
   7
 39
0.100
  6
CONTINUOUS
 10
248.78900
 20
92.42800
 30
 0
 40
3.17500
 50
30.91114
 51
-30.91114
  0
ARC
  8
Contour
 62
   7
 39
0.100
  6
CONTINUOUS
 10
251.08400
 20
103.80200
 30
 0
 40
0.50000
 50
360.00000
 51
30.92446
  0
LINE
  8
Contour
 62
   7
 39
0.100
  6
CONTINUOUS
 10
251.58400
 20
103.80200
 30
 0
 11
251.58400
 21
101.05400
  0
ARC
  8
Contour
 62
   7
 39
0.100
  6
CONTINUOUS
 10
251.08400
 20
101.05400
 30
 0
 40
0.50000
 50
329.07554
 51
0.00000
  0
ARC
  8
Contour
 62
   7
 39
0.100
  6
CONTINUOUS
 10
248.78900
 20
102.42800
 30
 0
 40
3.17500
 50
30.91114
 51
-30.91114
  0
ARC
  8
Contour
 62
   7
 39
0.100
  6
CONTINUOUS
 10
251.08400
 20
113.80200
 30
 0
 40
0.50000
 50
360.00000
 51
30.92446
  0
LINE
  8
Contour
 62
   7
 39
0.100
  6
CONTINUOUS
 10
251.58400
 20
113.80200
 30
 0
 11
251.58400
 21
111.05400
  0
ARC
  8
Contour
 62
   7
 39
0.100
  6
CONTINUOUS
 10
251.08400
 20
111.05400
 30
 0
 40
0.50000
 50
329.07554
 51
0.00000
  0
ARC
  8
Contour
 62
   7
 39
0.100
  6
CONTINUOUS
 10
248.78900
 20
112.42800
 30
 0
 40
3.17500
 50
30.91114
 51
-30.91114
  0
ARC
  8
Contour
 62
   7
 39
0.100
  6
CONTINUOUS
 10
251.08400
 20
123.80200
 30
 0
 40
0.50000
 50
360.00000
 51
30.92446
  0
LINE
  8
Contour
 62
   7
 39
0.100
  6
CONTINUOUS
 10
251.58400
 20
123.80200
 30
 0
 11
251.58400
 21
121.05400
  0
ARC
  8
Contour
 62
   7
 39
0.100
  6
CONTINUOUS
 10
251.08400
 20
121.05400
 30
 0
 40
0.50000
 50
329.07554
 51
0.00000
  0
ARC
  8
Contour
 62
   7
 39
0.100
  6
CONTINUOUS
 10
248.78900
 20
122.42800
 30
 0
 40
3.17500
 50
30.91114
 51
-30.91114
  0
ARC
  8
Contour
 62
   7
 39
0.100
  6
CONTINUOUS
 10
251.08400
 20
133.80200
 30
 0
 40
0.50000
 50
360.00000
 51
30.92446
  0
LINE
  8
Contour
 62
   7
 39
0.100
  6
CONTINUOUS
 10
251.58400
 20
133.80200
 30
 0
 11
251.58400
 21
131.05400
  0
ARC
  8
Contour
 62
   7
 39
0.100
  6
CONTINUOUS
 10
251.08400
 20
131.05400
 30
 0
 40
0.50000
 50
329.07554
 51
0.00000
  0
ARC
  8
Contour
 62
   7
 39
0.100
  6
CONTINUOUS
 10
248.78900
 20
132.42800
 30
 0
 40
3.17500
 50
30.91114
 51
-30.91114
  0
ARC
  8
Contour
 62
   7
 39
0.100
  6
CONTINUOUS
 10
251.08400
 20
153.80200
 30
 0
 40
0.50000
 50
360.00000
 51
30.92446
  0
LINE
  8
Contour
 62
   7
 39
0.100
  6
CONTINUOUS
 10
251.58400
 20
153.80200
 30
 0
 11
251.58400
 21
151.05400
  0
ARC
  8
Contour
 62
   7
 39
0.100
  6
CONTINUOUS
 10
251.08400
 20
151.05400
 30
 0
 40
0.50000
 50
329.07554
 51
0.00000
  0
ARC
  8
Contour
 62
   7
 39
0.100
  6
CONTINUOUS
 10
248.78900
 20
152.42800
 30
 0
 40
3.17500
 50
30.91114
 51
-30.91114
  0
ARC
  8
Contour
 62
   7
 39
0.100
  6
CONTINUOUS
 10
251.08400
 20
163.80200
 30
 0
 40
0.50000
 50
360.00000
 51
30.92446
  0
LINE
  8
Contour
 62
   7
 39
0.100
  6
CONTINUOUS
 10
251.58400
 20
163.80200
 30
 0
 11
251.58400
 21
161.05400
  0
ARC
  8
Contour
 62
   7
 39
0.100
  6
CONTINUOUS
 10
251.08400
 20
161.05400
 30
 0
 40
0.50000
 50
329.07554
 51
0.00000
  0
ARC
  8
Contour
 62
   7
 39
0.100
  6
CONTINUOUS
 10
248.78900
 20
162.42800
 30
 0
 40
3.17500
 50
30.91114
 51
-30.91114
  0
ARC
  8
Contour
 62
   7
 39
0.100
  6
CONTINUOUS
 10
251.08400
 20
173.80200
 30
 0
 40
0.50000
 50
360.00000
 51
30.92446
  0
LINE
  8
Contour
 62
   7
 39
0.100
  6
CONTINUOUS
 10
251.58400
 20
173.80200
 30
 0
 11
251.58400
 21
171.05400
  0
ARC
  8
Contour
 62
   7
 39
0.100
  6
CONTINUOUS
 10
251.08400
 20
171.05400
 30
 0
 40
0.50000
 50
329.07554
 51
0.00000
  0
ARC
  8
Contour
 62
   7
 39
0.100
  6
CONTINUOUS
 10
248.78900
 20
172.42800
 30
 0
 40
3.17500
 50
30.91114
 51
-30.91114
  0
ARC
  8
Contour
 62
   7
 39
0.100
  6
CONTINUOUS
 10
251.08400
 20
183.80200
 30
 0
 40
0.50000
 50
360.00000
 51
30.92446
  0
LINE
  8
Contour
 62
   7
 39
0.100
  6
CONTINUOUS
 10
251.58400
 20
183.80200
 30
 0
 11
251.58400
 21
181.05400
  0
ARC
  8
Contour
 62
   7
 39
0.100
  6
CONTINUOUS
 10
251.08400
 20
181.05400
 30
 0
 40
0.50000
 50
329.07554
 51
0.00000
  0
ARC
  8
Contour
 62
   7
 39
0.100
  6
CONTINUOUS
 10
248.78900
 20
182.42800
 30
 0
 40
3.17500
 50
30.91114
 51
-30.91114
  0
ARC
  8
Contour
 62
   7
 39
0.100
  6
CONTINUOUS
 10
251.08400
 20
193.80200
 30
 0
 40
0.50000
 50
360.00000
 51
30.92446
  0
LINE
  8
Contour
 62
   7
 39
0.100
  6
CONTINUOUS
 10
251.58400
 20
193.80200
 30
 0
 11
251.58400
 21
191.05400
  0
ARC
  8
Contour
 62
   7
 39
0.100
  6
CONTINUOUS
 10
251.08400
 20
191.05400
 30
 0
 40
0.50000
 50
329.07554
 51
0.00000
  0
ARC
  8
Contour
 62
   7
 39
0.100
  6
CONTINUOUS
 10
248.78900
 20
192.42800
 30
 0
 40
3.17500
 50
30.91114
 51
-30.91114
  0
ARC
  8
Contour
 62
   7
 39
0.100
  6
CONTINUOUS
 10
251.08400
 20
203.80200
 30
 0
 40
0.50000
 50
360.00000
 51
30.92446
  0
LINE
  8
Contour
 62
   7
 39
0.100
  6
CONTINUOUS
 10
251.58400
 20
203.80200
 30
 0
 11
251.58400
 21
201.05400
  0
ARC
  8
Contour
 62
   7
 39
0.100
  6
CONTINUOUS
 10
251.08400
 20
201.05400
 30
 0
 40
0.50000
 50
329.07554
 51
0.00000
  0
ARC
  8
Contour
 62
   7
 39
0.100
  6
CONTINUOUS
 10
248.78900
 20
202.42800
 30
 0
 40
3.17500
 50
30.91114
 51
-30.91114
  0
CIRCLE
  8
Contour
 62
   7
 39
0.100
  6
CONTINUOUS
 10
220.60000
 20
144.43000
 30
 0
 40
1.50000
  0
CIRCLE
  8
Contour
 62
   7
 39
0.100
  6
CONTINUOUS
 10
232.60000
 20
210.43000
 30
 0
 40
1.50000
  0
CIRCLE
  8
Contour
 62
   7
 39
0.100
  6
CONTINUOUS
 10
232.60000
 20
140.43000
 30
 0
 40
1.50000
  0
CIRCLE
  8
Contour
 62
   7
 39
0.100
  6
CONTINUOUS
 10
220.60000
 20
74.43000
 30
 0
 40
1.50000
  0
CIRCLE
  8
Contour
 62
   7
 39
0.100
  6
CONTINUOUS
 10
300.00000
 20
22.77800
 30
 0
 40
2.00000
  0
CIRCLE
  8
Contour
 62
   7
 39
0.100
  6
CONTINUOUS
 10
300.00000
 20
67.22300
 30
 0
 40
2.00000
  0
CIRCLE
  8
Contour
 62
   7
 39
0.100
  6
CONTINUOUS
 10
391.00000
 20
67.22000
 30
 0
 40
7.00300
  0
ARC
  8
Contour
 62
   7
 39
0.100
  6
CONTINUOUS
 10
393.45000
 20
47.50000
 30
 0
 40
1.50000
 50
359.96180
 51
45.56727
  0
LINE
  8
Contour
 62
   7
 39
0.100
  6
CONTINUOUS
 10
394.95000
 20
47.49900
 30
 0
 11
394.95000
 21
42.50100
  0
ARC
  8
Contour
 62
   7
 39
0.100
  6
CONTINUOUS
 10
393.45000
 20
42.50000
 30
 0
 40
1.50000
 50
314.43273
 51
0.03820
  0
ARC
  8
Contour
 62
   7
 39
0.100
  6
CONTINUOUS
 10
391.00000
 20
45.00000
 30
 0
 40
5.00000
 50
45.57529
 51
-45.57529
  0
LINE
  8
Reference_points
 62
   1
 39
0.100
  6
CONTINUOUS
 10
-1.00000
 20
0.00000
 30
 0
 11
1.00000
 21
0.00000
  0
LINE
  8
Reference_points
 62
   1
 39
0.100
  6
CONTINUOUS
 10
0.00000
 20
-1.00000
 30
 0
 11
0.00000
 21
1.00000
  0
LINE
  8
Reference_points
 62
   1
 39
0.100
  6
CONTINUOUS
 10
281.60000
 20
108.63000
 30
 0
 11
283.60000
 21
108.63000
  0
LINE
  8
Reference_points
 62
   1
 39
0.100
  6
CONTINUOUS
 10
282.60000
 20
107.63000
 30
 0
 11
282.60000
 21
109.63000
  0
LINE
  8
Reference_points
 62
   1
 39
0.100
  6
CONTINUOUS
 10
281.60000
 20
122.23000
 30
 0
 11
283.60000
 21
122.23000
  0
LINE
  8
Reference_points
 62
   1
 39
0.100
  6
CONTINUOUS
 10
282.60000
 20
121.23000
 30
 0
 11
282.60000
 21
123.23000
  0
LINE
  8
Reference_points
 62
   1
 39
0.100
  6
CONTINUOUS
 10
291.60000
 20
108.63000
 30
 0
 11
293.60000
 21
108.63000
  0
LINE
  8
Reference_points
 62
   1
 39
0.100
  6
CONTINUOUS
 10
292.60000
 20
107.63000
 30
 0
 11
292.60000
 21
109.63000
  0
LINE
  8
Reference_points
 62
   1
 39
0.100
  6
CONTINUOUS
 10
291.60000
 20
122.23000
 30
 0
 11
293.60000
 21
122.23000
  0
LINE
  8
Reference_points
 62
   1
 39
0.100
  6
CONTINUOUS
 10
292.60000
 20
121.23000
 30
 0
 11
292.60000
 21
123.23000
  0
LINE
  8
Reference_points
 62
   1
 39
0.100
  6
CONTINUOUS
 10
301.60000
 20
108.63000
 30
 0
 11
303.60000
 21
108.63000
  0
LINE
  8
Reference_points
 62
   1
 39
0.100
  6
CONTINUOUS
 10
302.60000
 20
107.63000
 30
 0
 11
302.60000
 21
109.63000
  0
LINE
  8
Reference_points
 62
   1
 39
0.100
  6
CONTINUOUS
 10
301.60000
 20
122.23000
 30
 0
 11
303.60000
 21
122.23000
  0
LINE
  8
Reference_points
 62
   1
 39
0.100
  6
CONTINUOUS
 10
302.60000
 20
121.23000
 30
 0
 11
302.60000
 21
123.23000
  0
LINE
  8
Reference_points
 62
   1
 39
0.100
  6
CONTINUOUS
 10
311.60000
 20
108.63000
 30
 0
 11
313.60000
 21
108.63000
  0
LINE
  8
Reference_points
 62
   1
 39
0.100
  6
CONTINUOUS
 10
312.60000
 20
107.63000
 30
 0
 11
312.60000
 21
109.63000
  0
LINE
  8
Reference_points
 62
   1
 39
0.100
  6
CONTINUOUS
 10
311.60000
 20
122.23000
 30
 0
 11
313.60000
 21
122.23000
  0
LINE
  8
Reference_points
 62
   1
 39
0.100
  6
CONTINUOUS
 10
312.60000
 20
121.23000
 30
 0
 11
312.60000
 21
123.23000
  0
LINE
  8
Reference_points
 62
   1
 39
0.100
  6
CONTINUOUS
 10
321.60000
 20
108.63000
 30
 0
 11
323.60000
 21
108.63000
  0
LINE
  8
Reference_points
 62
   1
 39
0.100
  6
CONTINUOUS
 10
322.60000
 20
107.63000
 30
 0
 11
322.60000
 21
109.63000
  0
LINE
  8
Reference_points
 62
   1
 39
0.100
  6
CONTINUOUS
 10
321.60000
 20
122.23000
 30
 0
 11
323.60000
 21
122.23000
  0
LINE
  8
Reference_points
 62
   1
 39
0.100
  6
CONTINUOUS
 10
322.60000
 20
121.23000
 30
 0
 11
322.60000
 21
123.23000
  0
LINE
  8
Reference_points
 62
   1
 39
0.100
  6
CONTINUOUS
 10
331.60000
 20
108.63000
 30
 0
 11
333.60000
 21
108.63000
  0
LINE
  8
Reference_points
 62
   1
 39
0.100
  6
CONTINUOUS
 10
332.60000
 20
107.63000
 30
 0
 11
332.60000
 21
109.63000
  0
LINE
  8
Reference_points
 62
   1
 39
0.100
  6
CONTINUOUS
 10
331.60000
 20
122.23000
 30
 0
 11
333.60000
 21
122.23000
  0
LINE
  8
Reference_points
 62
   1
 39
0.100
  6
CONTINUOUS
 10
332.60000
 20
121.23000
 30
 0
 11
332.60000
 21
123.23000
  0
LINE
  8
Reference_points
 62
   1
 39
0.100
  6
CONTINUOUS
 10
341.60000
 20
108.63000
 30
 0
 11
343.60000
 21
108.63000
  0
LINE
  8
Reference_points
 62
   1
 39
0.100
  6
CONTINUOUS
 10
342.60000
 20
107.63000
 30
 0
 11
342.60000
 21
109.63000
  0
LINE
  8
Reference_points
 62
   1
 39
0.100
  6
CONTINUOUS
 10
341.60000
 20
122.23000
 30
 0
 11
343.60000
 21
122.23000
  0
LINE
  8
Reference_points
 62
   1
 39
0.100
  6
CONTINUOUS
 10
342.60000
 20
121.23000
 30
 0
 11
342.60000
 21
123.23000
  0
LINE
  8
Reference_points
 62
   1
 39
0.100
  6
CONTINUOUS
 10
351.60000
 20
108.63000
 30
 0
 11
353.60000
 21
108.63000
  0
LINE
  8
Reference_points
 62
   1
 39
0.100
  6
CONTINUOUS
 10
352.60000
 20
107.63000
 30
 0
 11
352.60000
 21
109.63000
  0
LINE
  8
Reference_points
 62
   1
 39
0.100
  6
CONTINUOUS
 10
351.60000
 20
122.23000
 30
 0
 11
353.60000
 21
122.23000
  0
LINE
  8
Reference_points
 62
   1
 39
0.100
  6
CONTINUOUS
 10
352.60000
 20
121.23000
 30
 0
 11
352.60000
 21
123.23000
  0
LINE
  8
Reference_points
 62
   1
 39
0.100
  6
CONTINUOUS
 10
361.60000
 20
108.63000
 30
 0
 11
363.60000
 21
108.63000
  0
LINE
  8
Reference_points
 62
   1
 39
0.100
  6
CONTINUOUS
 10
362.60000
 20
107.63000
 30
 0
 11
362.60000
 21
109.63000
  0
LINE
  8
Reference_points
 62
   1
 39
0.100
  6
CONTINUOUS
 10
361.60000
 20
122.23000
 30
 0
 11
363.60000
 21
122.23000
  0
LINE
  8
Reference_points
 62
   1
 39
0.100
  6
CONTINUOUS
 10
362.60000
 20
121.23000
 30
 0
 11
362.60000
 21
123.23000
  0
LINE
  8
Reference_points
 62
   1
 39
0.100
  6
CONTINUOUS
 10
271.60000
 20
108.63000
 30
 0
 11
273.60000
 21
108.63000
  0
LINE
  8
Reference_points
 62
   1
 39
0.100
  6
CONTINUOUS
 10
272.60000
 20
107.63000
 30
 0
 11
272.60000
 21
109.63000
  0
LINE
  8
Reference_points
 62
   1
 39
0.100
  6
CONTINUOUS
 10
271.60000
 20
122.23000
 30
 0
 11
273.60000
 21
122.23000
  0
LINE
  8
Reference_points
 62
   1
 39
0.100
  6
CONTINUOUS
 10
272.60000
 20
121.23000
 30
 0
 11
272.60000
 21
123.23000
  0
LINE
  8
Reference_points
 62
   1
 39
0.100
  6
CONTINUOUS
 10
261.60000
 20
108.63000
 30
 0
 11
263.60000
 21
108.63000
  0
LINE
  8
Reference_points
 62
   1
 39
0.100
  6
CONTINUOUS
 10
262.60000
 20
107.63000
 30
 0
 11
262.60000
 21
109.63000
  0
LINE
  8
Reference_points
 62
   1
 39
0.100
  6
CONTINUOUS
 10
261.60000
 20
122.23000
 30
 0
 11
263.60000
 21
122.23000
  0
LINE
  8
Reference_points
 62
   1
 39
0.100
  6
CONTINUOUS
 10
262.60000
 20
121.23000
 30
 0
 11
262.60000
 21
123.23000
  0
LINE
  8
Reference_points
 62
   1
 39
0.100
  6
CONTINUOUS
 10
225.60000
 20
107.43000
 30
 0
 11
227.60000
 21
107.43000
  0
LINE
  8
Reference_points
 62
   1
 39
0.100
  6
CONTINUOUS
 10
226.60000
 20
106.43000
 30
 0
 11
226.60000
 21
108.43000
  0
LINE
  8
Reference_points
 62
   1
 39
0.100
  6
CONTINUOUS
 10
260.25500
 20
93.80500
 30
 0
 11
262.25500
 21
93.80500
  0
LINE
  8
Reference_points
 62
   1
 39
0.100
  6
CONTINUOUS
 10
261.25500
 20
92.80500
 30
 0
 11
261.25500
 21
94.80500
  0
LINE
  8
Reference_points
 62
   1
 39
0.100
  6
CONTINUOUS
 10
367.36300
 20
122.40100
 30
 0
 11
369.36300
 21
122.40100
  0
LINE
  8
Reference_points
 62
   1
 39
0.100
  6
CONTINUOUS
 10
368.36300
 20
121.40100
 30
 0
 11
368.36300
 21
123.40100
  0
LINE
  8
Reference_points
 62
   1
 39
0.100
  6
CONTINUOUS
 10
367.30600
 20
108.88500
 30
 0
 11
369.30600
 21
108.88500
  0
LINE
  8
Reference_points
 62
   1
 39
0.100
  6
CONTINUOUS
 10
368.30600
 20
107.88500
 30
 0
 11
368.30600
 21
109.88500
  0
LINE
  8
Reference_points
 62
   1
 39
0.100
  6
CONTINUOUS
 10
266.26000
 20
133.18000
 30
 0
 11
268.26000
 21
133.18000
  0
LINE
  8
Reference_points
 62
   1
 39
0.100
  6
CONTINUOUS
 10
267.26000
 20
132.18000
 30
 0
 11
267.26000
 21
134.18000
  0
LINE
  8
Reference_points
 62
   1
 39
0.100
  6
CONTINUOUS
 10
266.26000
 20
81.68000
 30
 0
 11
268.26000
 21
81.68000
  0
LINE
  8
Reference_points
 62
   1
 39
0.100
  6
CONTINUOUS
 10
267.26000
 20
80.68000
 30
 0
 11
267.26000
 21
82.68000
  0
LINE
  8
Reference_points
 62
   1
 39
0.100
  6
CONTINUOUS
 10
276.26000
 20
133.18000
 30
 0
 11
278.26000
 21
133.18000
  0
LINE
  8
Reference_points
 62
   1
 39
0.100
  6
CONTINUOUS
 10
277.26000
 20
132.18000
 30
 0
 11
277.26000
 21
134.18000
  0
LINE
  8
Reference_points
 62
   1
 39
0.100
  6
CONTINUOUS
 10
286.26000
 20
133.18000
 30
 0
 11
288.26000
 21
133.18000
  0
LINE
  8
Reference_points
 62
   1
 39
0.100
  6
CONTINUOUS
 10
287.26000
 20
132.18000
 30
 0
 11
287.26000
 21
134.18000
  0
LINE
  8
Reference_points
 62
   1
 39
0.100
  6
CONTINUOUS
 10
296.26000
 20
133.18000
 30
 0
 11
298.26000
 21
133.18000
  0
LINE
  8
Reference_points
 62
   1
 39
0.100
  6
CONTINUOUS
 10
297.26000
 20
132.18000
 30
 0
 11
297.26000
 21
134.18000
  0
LINE
  8
Reference_points
 62
   1
 39
0.100
  6
CONTINUOUS
 10
306.26000
 20
133.18000
 30
 0
 11
308.26000
 21
133.18000
  0
LINE
  8
Reference_points
 62
   1
 39
0.100
  6
CONTINUOUS
 10
307.26000
 20
132.18000
 30
 0
 11
307.26000
 21
134.18000
  0
LINE
  8
Reference_points
 62
   1
 39
0.100
  6
CONTINUOUS
 10
316.26000
 20
133.18000
 30
 0
 11
318.26000
 21
133.18000
  0
LINE
  8
Reference_points
 62
   1
 39
0.100
  6
CONTINUOUS
 10
317.26000
 20
132.18000
 30
 0
 11
317.26000
 21
134.18000
  0
LINE
  8
Reference_points
 62
   1
 39
0.100
  6
CONTINUOUS
 10
326.26000
 20
133.18000
 30
 0
 11
328.26000
 21
133.18000
  0
LINE
  8
Reference_points
 62
   1
 39
0.100
  6
CONTINUOUS
 10
327.26000
 20
132.18000
 30
 0
 11
327.26000
 21
134.18000
  0
LINE
  8
Reference_points
 62
   1
 39
0.100
  6
CONTINUOUS
 10
336.26000
 20
133.18000
 30
 0
 11
338.26000
 21
133.18000
  0
LINE
  8
Reference_points
 62
   1
 39
0.100
  6
CONTINUOUS
 10
337.26000
 20
132.18000
 30
 0
 11
337.26000
 21
134.18000
  0
LINE
  8
Reference_points
 62
   1
 39
0.100
  6
CONTINUOUS
 10
346.26000
 20
133.18000
 30
 0
 11
348.26000
 21
133.18000
  0
LINE
  8
Reference_points
 62
   1
 39
0.100
  6
CONTINUOUS
 10
347.26000
 20
132.18000
 30
 0
 11
347.26000
 21
134.18000
  0
LINE
  8
Reference_points
 62
   1
 39
0.100
  6
CONTINUOUS
 10
356.26000
 20
133.18000
 30
 0
 11
358.26000
 21
133.18000
  0
LINE
  8
Reference_points
 62
   1
 39
0.100
  6
CONTINUOUS
 10
357.26000
 20
132.18000
 30
 0
 11
357.26000
 21
134.18000
  0
LINE
  8
Reference_points
 62
   1
 39
0.100
  6
CONTINUOUS
 10
366.26000
 20
133.18000
 30
 0
 11
368.26000
 21
133.18000
  0
LINE
  8
Reference_points
 62
   1
 39
0.100
  6
CONTINUOUS
 10
367.26000
 20
132.18000
 30
 0
 11
367.26000
 21
134.18000
  0
LINE
  8
Reference_points
 62
   1
 39
0.100
  6
CONTINUOUS
 10
276.26000
 20
81.68000
 30
 0
 11
278.26000
 21
81.68000
  0
LINE
  8
Reference_points
 62
   1
 39
0.100
  6
CONTINUOUS
 10
277.26000
 20
80.68000
 30
 0
 11
277.26000
 21
82.68000
  0
LINE
  8
Reference_points
 62
   1
 39
0.100
  6
CONTINUOUS
 10
286.26000
 20
81.68000
 30
 0
 11
288.26000
 21
81.68000
  0
LINE
  8
Reference_points
 62
   1
 39
0.100
  6
CONTINUOUS
 10
287.26000
 20
80.68000
 30
 0
 11
287.26000
 21
82.68000
  0
LINE
  8
Reference_points
 62
   1
 39
0.100
  6
CONTINUOUS
 10
296.26000
 20
81.68000
 30
 0
 11
298.26000
 21
81.68000
  0
LINE
  8
Reference_points
 62
   1
 39
0.100
  6
CONTINUOUS
 10
297.26000
 20
80.68000
 30
 0
 11
297.26000
 21
82.68000
  0
LINE
  8
Reference_points
 62
   1
 39
0.100
  6
CONTINUOUS
 10
306.26000
 20
81.68000
 30
 0
 11
308.26000
 21
81.68000
  0
LINE
  8
Reference_points
 62
   1
 39
0.100
  6
CONTINUOUS
 10
307.26000
 20
80.68000
 30
 0
 11
307.26000
 21
82.68000
  0
LINE
  8
Reference_points
 62
   1
 39
0.100
  6
CONTINUOUS
 10
316.26000
 20
81.68000
 30
 0
 11
318.26000
 21
81.68000
  0
LINE
  8
Reference_points
 62
   1
 39
0.100
  6
CONTINUOUS
 10
317.26000
 20
80.68000
 30
 0
 11
317.26000
 21
82.68000
  0
LINE
  8
Reference_points
 62
   1
 39
0.100
  6
CONTINUOUS
 10
326.26000
 20
81.68000
 30
 0
 11
328.26000
 21
81.68000
  0
LINE
  8
Reference_points
 62
   1
 39
0.100
  6
CONTINUOUS
 10
327.26000
 20
80.68000
 30
 0
 11
327.26000
 21
82.68000
  0
LINE
  8
Reference_points
 62
   1
 39
0.100
  6
CONTINUOUS
 10
336.26000
 20
81.68000
 30
 0
 11
338.26000
 21
81.68000
  0
LINE
  8
Reference_points
 62
   1
 39
0.100
  6
CONTINUOUS
 10
337.26000
 20
80.68000
 30
 0
 11
337.26000
 21
82.68000
  0
LINE
  8
Reference_points
 62
   1
 39
0.100
  6
CONTINUOUS
 10
346.26000
 20
81.68000
 30
 0
 11
348.26000
 21
81.68000
  0
LINE
  8
Reference_points
 62
   1
 39
0.100
  6
CONTINUOUS
 10
347.26000
 20
80.68000
 30
 0
 11
347.26000
 21
82.68000
  0
LINE
  8
Reference_points
 62
   1
 39
0.100
  6
CONTINUOUS
 10
356.26000
 20
81.68000
 30
 0
 11
358.26000
 21
81.68000
  0
LINE
  8
Reference_points
 62
   1
 39
0.100
  6
CONTINUOUS
 10
357.26000
 20
80.68000
 30
 0
 11
357.26000
 21
82.68000
  0
LINE
  8
Reference_points
 62
   1
 39
0.100
  6
CONTINUOUS
 10
366.26000
 20
81.68000
 30
 0
 11
368.26000
 21
81.68000
  0
LINE
  8
Reference_points
 62
   1
 39
0.100
  6
CONTINUOUS
 10
367.26000
 20
80.68000
 30
 0
 11
367.26000
 21
82.68000
  0
LINE
  8
Reference_points
 62
   1
 39
0.100
  6
CONTINUOUS
 10
281.60000
 20
178.63000
 30
 0
 11
283.60000
 21
178.63000
  0
LINE
  8
Reference_points
 62
   1
 39
0.100
  6
CONTINUOUS
 10
282.60000
 20
177.63000
 30
 0
 11
282.60000
 21
179.63000
  0
LINE
  8
Reference_points
 62
   1
 39
0.100
  6
CONTINUOUS
 10
281.60000
 20
192.23000
 30
 0
 11
283.60000
 21
192.23000
  0
LINE
  8
Reference_points
 62
   1
 39
0.100
  6
CONTINUOUS
 10
282.60000
 20
191.23000
 30
 0
 11
282.60000
 21
193.23000
  0
LINE
  8
Reference_points
 62
   1
 39
0.100
  6
CONTINUOUS
 10
291.60000
 20
178.63000
 30
 0
 11
293.60000
 21
178.63000
  0
LINE
  8
Reference_points
 62
   1
 39
0.100
  6
CONTINUOUS
 10
292.60000
 20
177.63000
 30
 0
 11
292.60000
 21
179.63000
  0
LINE
  8
Reference_points
 62
   1
 39
0.100
  6
CONTINUOUS
 10
291.60000
 20
192.23000
 30
 0
 11
293.60000
 21
192.23000
  0
LINE
  8
Reference_points
 62
   1
 39
0.100
  6
CONTINUOUS
 10
292.60000
 20
191.23000
 30
 0
 11
292.60000
 21
193.23000
  0
LINE
  8
Reference_points
 62
   1
 39
0.100
  6
CONTINUOUS
 10
301.60000
 20
178.63000
 30
 0
 11
303.60000
 21
178.63000
  0
LINE
  8
Reference_points
 62
   1
 39
0.100
  6
CONTINUOUS
 10
302.60000
 20
177.63000
 30
 0
 11
302.60000
 21
179.63000
  0
LINE
  8
Reference_points
 62
   1
 39
0.100
  6
CONTINUOUS
 10
301.60000
 20
192.23000
 30
 0
 11
303.60000
 21
192.23000
  0
LINE
  8
Reference_points
 62
   1
 39
0.100
  6
CONTINUOUS
 10
302.60000
 20
191.23000
 30
 0
 11
302.60000
 21
193.23000
  0
LINE
  8
Reference_points
 62
   1
 39
0.100
  6
CONTINUOUS
 10
311.60000
 20
178.63000
 30
 0
 11
313.60000
 21
178.63000
  0
LINE
  8
Reference_points
 62
   1
 39
0.100
  6
CONTINUOUS
 10
312.60000
 20
177.63000
 30
 0
 11
312.60000
 21
179.63000
  0
LINE
  8
Reference_points
 62
   1
 39
0.100
  6
CONTINUOUS
 10
311.60000
 20
192.23000
 30
 0
 11
313.60000
 21
192.23000
  0
LINE
  8
Reference_points
 62
   1
 39
0.100
  6
CONTINUOUS
 10
312.60000
 20
191.23000
 30
 0
 11
312.60000
 21
193.23000
  0
LINE
  8
Reference_points
 62
   1
 39
0.100
  6
CONTINUOUS
 10
321.60000
 20
178.63000
 30
 0
 11
323.60000
 21
178.63000
  0
LINE
  8
Reference_points
 62
   1
 39
0.100
  6
CONTINUOUS
 10
322.60000
 20
177.63000
 30
 0
 11
322.60000
 21
179.63000
  0
LINE
  8
Reference_points
 62
   1
 39
0.100
  6
CONTINUOUS
 10
321.60000
 20
192.23000
 30
 0
 11
323.60000
 21
192.23000
  0
LINE
  8
Reference_points
 62
   1
 39
0.100
  6
CONTINUOUS
 10
322.60000
 20
191.23000
 30
 0
 11
322.60000
 21
193.23000
  0
LINE
  8
Reference_points
 62
   1
 39
0.100
  6
CONTINUOUS
 10
331.60000
 20
178.63000
 30
 0
 11
333.60000
 21
178.63000
  0
LINE
  8
Reference_points
 62
   1
 39
0.100
  6
CONTINUOUS
 10
332.60000
 20
177.63000
 30
 0
 11
332.60000
 21
179.63000
  0
LINE
  8
Reference_points
 62
   1
 39
0.100
  6
CONTINUOUS
 10
331.60000
 20
192.23000
 30
 0
 11
333.60000
 21
192.23000
  0
LINE
  8
Reference_points
 62
   1
 39
0.100
  6
CONTINUOUS
 10
332.60000
 20
191.23000
 30
 0
 11
332.60000
 21
193.23000
  0
LINE
  8
Reference_points
 62
   1
 39
0.100
  6
CONTINUOUS
 10
341.60000
 20
178.63000
 30
 0
 11
343.60000
 21
178.63000
  0
LINE
  8
Reference_points
 62
   1
 39
0.100
  6
CONTINUOUS
 10
342.60000
 20
177.63000
 30
 0
 11
342.60000
 21
179.63000
  0
LINE
  8
Reference_points
 62
   1
 39
0.100
  6
CONTINUOUS
 10
341.60000
 20
192.23000
 30
 0
 11
343.60000
 21
192.23000
  0
LINE
  8
Reference_points
 62
   1
 39
0.100
  6
CONTINUOUS
 10
342.60000
 20
191.23000
 30
 0
 11
342.60000
 21
193.23000
  0
LINE
  8
Reference_points
 62
   1
 39
0.100
  6
CONTINUOUS
 10
351.60000
 20
178.63000
 30
 0
 11
353.60000
 21
178.63000
  0
LINE
  8
Reference_points
 62
   1
 39
0.100
  6
CONTINUOUS
 10
352.60000
 20
177.63000
 30
 0
 11
352.60000
 21
179.63000
  0
LINE
  8
Reference_points
 62
   1
 39
0.100
  6
CONTINUOUS
 10
351.60000
 20
192.23000
 30
 0
 11
353.60000
 21
192.23000
  0
LINE
  8
Reference_points
 62
   1
 39
0.100
  6
CONTINUOUS
 10
352.60000
 20
191.23000
 30
 0
 11
352.60000
 21
193.23000
  0
LINE
  8
Reference_points
 62
   1
 39
0.100
  6
CONTINUOUS
 10
361.60000
 20
178.63000
 30
 0
 11
363.60000
 21
178.63000
  0
LINE
  8
Reference_points
 62
   1
 39
0.100
  6
CONTINUOUS
 10
362.60000
 20
177.63000
 30
 0
 11
362.60000
 21
179.63000
  0
LINE
  8
Reference_points
 62
   1
 39
0.100
  6
CONTINUOUS
 10
361.60000
 20
192.23000
 30
 0
 11
363.60000
 21
192.23000
  0
LINE
  8
Reference_points
 62
   1
 39
0.100
  6
CONTINUOUS
 10
362.60000
 20
191.23000
 30
 0
 11
362.60000
 21
193.23000
  0
LINE
  8
Reference_points
 62
   1
 39
0.100
  6
CONTINUOUS
 10
271.60000
 20
178.63000
 30
 0
 11
273.60000
 21
178.63000
  0
LINE
  8
Reference_points
 62
   1
 39
0.100
  6
CONTINUOUS
 10
272.60000
 20
177.63000
 30
 0
 11
272.60000
 21
179.63000
  0
LINE
  8
Reference_points
 62
   1
 39
0.100
  6
CONTINUOUS
 10
271.60000
 20
192.23000
 30
 0
 11
273.60000
 21
192.23000
  0
LINE
  8
Reference_points
 62
   1
 39
0.100
  6
CONTINUOUS
 10
272.60000
 20
191.23000
 30
 0
 11
272.60000
 21
193.23000
  0
LINE
  8
Reference_points
 62
   1
 39
0.100
  6
CONTINUOUS
 10
261.60000
 20
178.63000
 30
 0
 11
263.60000
 21
178.63000
  0
LINE
  8
Reference_points
 62
   1
 39
0.100
  6
CONTINUOUS
 10
262.60000
 20
177.63000
 30
 0
 11
262.60000
 21
179.63000
  0
LINE
  8
Reference_points
 62
   1
 39
0.100
  6
CONTINUOUS
 10
261.60000
 20
192.23000
 30
 0
 11
263.60000
 21
192.23000
  0
LINE
  8
Reference_points
 62
   1
 39
0.100
  6
CONTINUOUS
 10
262.60000
 20
191.23000
 30
 0
 11
262.60000
 21
193.23000
  0
LINE
  8
Reference_points
 62
   1
 39
0.100
  6
CONTINUOUS
 10
225.60000
 20
177.43000
 30
 0
 11
227.60000
 21
177.43000
  0
LINE
  8
Reference_points
 62
   1
 39
0.100
  6
CONTINUOUS
 10
226.60000
 20
176.43000
 30
 0
 11
226.60000
 21
178.43000
  0
LINE
  8
Reference_points
 62
   1
 39
0.100
  6
CONTINUOUS
 10
260.25500
 20
163.80500
 30
 0
 11
262.25500
 21
163.80500
  0
LINE
  8
Reference_points
 62
   1
 39
0.100
  6
CONTINUOUS
 10
261.25500
 20
162.80500
 30
 0
 11
261.25500
 21
164.80500
  0
LINE
  8
Reference_points
 62
   1
 39
0.100
  6
CONTINUOUS
 10
367.36300
 20
192.40100
 30
 0
 11
369.36300
 21
192.40100
  0
LINE
  8
Reference_points
 62
   1
 39
0.100
  6
CONTINUOUS
 10
368.36300
 20
191.40100
 30
 0
 11
368.36300
 21
193.40100
  0
LINE
  8
Reference_points
 62
   1
 39
0.100
  6
CONTINUOUS
 10
367.30600
 20
178.88500
 30
 0
 11
369.30600
 21
178.88500
  0
LINE
  8
Reference_points
 62
   1
 39
0.100
  6
CONTINUOUS
 10
368.30600
 20
177.88500
 30
 0
 11
368.30600
 21
179.88500
  0
LINE
  8
Reference_points
 62
   1
 39
0.100
  6
CONTINUOUS
 10
266.26000
 20
203.18000
 30
 0
 11
268.26000
 21
203.18000
  0
LINE
  8
Reference_points
 62
   1
 39
0.100
  6
CONTINUOUS
 10
267.26000
 20
202.18000
 30
 0
 11
267.26000
 21
204.18000
  0
LINE
  8
Reference_points
 62
   1
 39
0.100
  6
CONTINUOUS
 10
266.26000
 20
151.68000
 30
 0
 11
268.26000
 21
151.68000
  0
LINE
  8
Reference_points
 62
   1
 39
0.100
  6
CONTINUOUS
 10
267.26000
 20
150.68000
 30
 0
 11
267.26000
 21
152.68000
  0
LINE
  8
Reference_points
 62
   1
 39
0.100
  6
CONTINUOUS
 10
276.26000
 20
203.18000
 30
 0
 11
278.26000
 21
203.18000
  0
LINE
  8
Reference_points
 62
   1
 39
0.100
  6
CONTINUOUS
 10
277.26000
 20
202.18000
 30
 0
 11
277.26000
 21
204.18000
  0
LINE
  8
Reference_points
 62
   1
 39
0.100
  6
CONTINUOUS
 10
286.26000
 20
203.18000
 30
 0
 11
288.26000
 21
203.18000
  0
LINE
  8
Reference_points
 62
   1
 39
0.100
  6
CONTINUOUS
 10
287.26000
 20
202.18000
 30
 0
 11
287.26000
 21
204.18000
  0
LINE
  8
Reference_points
 62
   1
 39
0.100
  6
CONTINUOUS
 10
296.26000
 20
203.18000
 30
 0
 11
298.26000
 21
203.18000
  0
LINE
  8
Reference_points
 62
   1
 39
0.100
  6
CONTINUOUS
 10
297.26000
 20
202.18000
 30
 0
 11
297.26000
 21
204.18000
  0
LINE
  8
Reference_points
 62
   1
 39
0.100
  6
CONTINUOUS
 10
306.26000
 20
203.18000
 30
 0
 11
308.26000
 21
203.18000
  0
LINE
  8
Reference_points
 62
   1
 39
0.100
  6
CONTINUOUS
 10
307.26000
 20
202.18000
 30
 0
 11
307.26000
 21
204.18000
  0
LINE
  8
Reference_points
 62
   1
 39
0.100
  6
CONTINUOUS
 10
316.26000
 20
203.18000
 30
 0
 11
318.26000
 21
203.18000
  0
LINE
  8
Reference_points
 62
   1
 39
0.100
  6
CONTINUOUS
 10
317.26000
 20
202.18000
 30
 0
 11
317.26000
 21
204.18000
  0
LINE
  8
Reference_points
 62
   1
 39
0.100
  6
CONTINUOUS
 10
326.26000
 20
203.18000
 30
 0
 11
328.26000
 21
203.18000
  0
LINE
  8
Reference_points
 62
   1
 39
0.100
  6
CONTINUOUS
 10
327.26000
 20
202.18000
 30
 0
 11
327.26000
 21
204.18000
  0
LINE
  8
Reference_points
 62
   1
 39
0.100
  6
CONTINUOUS
 10
336.26000
 20
203.18000
 30
 0
 11
338.26000
 21
203.18000
  0
LINE
  8
Reference_points
 62
   1
 39
0.100
  6
CONTINUOUS
 10
337.26000
 20
202.18000
 30
 0
 11
337.26000
 21
204.18000
  0
LINE
  8
Reference_points
 62
   1
 39
0.100
  6
CONTINUOUS
 10
346.26000
 20
203.18000
 30
 0
 11
348.26000
 21
203.18000
  0
LINE
  8
Reference_points
 62
   1
 39
0.100
  6
CONTINUOUS
 10
347.26000
 20
202.18000
 30
 0
 11
347.26000
 21
204.18000
  0
LINE
  8
Reference_points
 62
   1
 39
0.100
  6
CONTINUOUS
 10
356.26000
 20
203.18000
 30
 0
 11
358.26000
 21
203.18000
  0
LINE
  8
Reference_points
 62
   1
 39
0.100
  6
CONTINUOUS
 10
357.26000
 20
202.18000
 30
 0
 11
357.26000
 21
204.18000
  0
LINE
  8
Reference_points
 62
   1
 39
0.100
  6
CONTINUOUS
 10
366.26000
 20
203.18000
 30
 0
 11
368.26000
 21
203.18000
  0
LINE
  8
Reference_points
 62
   1
 39
0.100
  6
CONTINUOUS
 10
367.26000
 20
202.18000
 30
 0
 11
367.26000
 21
204.18000
  0
LINE
  8
Reference_points
 62
   1
 39
0.100
  6
CONTINUOUS
 10
276.26000
 20
151.68000
 30
 0
 11
278.26000
 21
151.68000
  0
LINE
  8
Reference_points
 62
   1
 39
0.100
  6
CONTINUOUS
 10
277.26000
 20
150.68000
 30
 0
 11
277.26000
 21
152.68000
  0
LINE
  8
Reference_points
 62
   1
 39
0.100
  6
CONTINUOUS
 10
286.26000
 20
151.68000
 30
 0
 11
288.26000
 21
151.68000
  0
LINE
  8
Reference_points
 62
   1
 39
0.100
  6
CONTINUOUS
 10
287.26000
 20
150.68000
 30
 0
 11
287.26000
 21
152.68000
  0
LINE
  8
Reference_points
 62
   1
 39
0.100
  6
CONTINUOUS
 10
296.26000
 20
151.68000
 30
 0
 11
298.26000
 21
151.68000
  0
LINE
  8
Reference_points
 62
   1
 39
0.100
  6
CONTINUOUS
 10
297.26000
 20
150.68000
 30
 0
 11
297.26000
 21
152.68000
  0
LINE
  8
Reference_points
 62
   1
 39
0.100
  6
CONTINUOUS
 10
306.26000
 20
151.68000
 30
 0
 11
308.26000
 21
151.68000
  0
LINE
  8
Reference_points
 62
   1
 39
0.100
  6
CONTINUOUS
 10
307.26000
 20
150.68000
 30
 0
 11
307.26000
 21
152.68000
  0
LINE
  8
Reference_points
 62
   1
 39
0.100
  6
CONTINUOUS
 10
316.26000
 20
151.68000
 30
 0
 11
318.26000
 21
151.68000
  0
LINE
  8
Reference_points
 62
   1
 39
0.100
  6
CONTINUOUS
 10
317.26000
 20
150.68000
 30
 0
 11
317.26000
 21
152.68000
  0
LINE
  8
Reference_points
 62
   1
 39
0.100
  6
CONTINUOUS
 10
326.26000
 20
151.68000
 30
 0
 11
328.26000
 21
151.68000
  0
LINE
  8
Reference_points
 62
   1
 39
0.100
  6
CONTINUOUS
 10
327.26000
 20
150.68000
 30
 0
 11
327.26000
 21
152.68000
  0
LINE
  8
Reference_points
 62
   1
 39
0.100
  6
CONTINUOUS
 10
336.26000
 20
151.68000
 30
 0
 11
338.26000
 21
151.68000
  0
LINE
  8
Reference_points
 62
   1
 39
0.100
  6
CONTINUOUS
 10
337.26000
 20
150.68000
 30
 0
 11
337.26000
 21
152.68000
  0
LINE
  8
Reference_points
 62
   1
 39
0.100
  6
CONTINUOUS
 10
346.26000
 20
151.68000
 30
 0
 11
348.26000
 21
151.68000
  0
LINE
  8
Reference_points
 62
   1
 39
0.100
  6
CONTINUOUS
 10
347.26000
 20
150.68000
 30
 0
 11
347.26000
 21
152.68000
  0
LINE
  8
Reference_points
 62
   1
 39
0.100
  6
CONTINUOUS
 10
356.26000
 20
151.68000
 30
 0
 11
358.26000
 21
151.68000
  0
LINE
  8
Reference_points
 62
   1
 39
0.100
  6
CONTINUOUS
 10
357.26000
 20
150.68000
 30
 0
 11
357.26000
 21
152.68000
  0
LINE
  8
Reference_points
 62
   1
 39
0.100
  6
CONTINUOUS
 10
366.26000
 20
151.68000
 30
 0
 11
368.26000
 21
151.68000
  0
LINE
  8
Reference_points
 62
   1
 39
0.100
  6
CONTINUOUS
 10
367.26000
 20
150.68000
 30
 0
 11
367.26000
 21
152.68000
  0
LINE
  8
Reference_points
 62
   1
 39
0.100
  6
CONTINUOUS
 10
19.35000
 20
147.97000
 30
 0
 11
21.35000
 21
147.97000
  0
LINE
  8
Reference_points
 62
   1
 39
0.100
  6
CONTINUOUS
 10
20.35000
 20
146.97000
 30
 0
 11
20.35000
 21
148.97000
  0
LINE
  8
Reference_points
 62
   1
 39
0.100
  6
CONTINUOUS
 10
19.53000
 20
214.53000
 30
 0
 11
21.53000
 21
214.53000
  0
LINE
  8
Reference_points
 62
   1
 39
0.100
  6
CONTINUOUS
 10
20.53000
 20
213.53000
 30
 0
 11
20.53000
 21
215.53000
  0
LINE
  8
Reference_points
 62
   1
 39
0.100
  6
CONTINUOUS
 10
57.45000
 20
214.53000
 30
 0
 11
59.45000
 21
214.53000
  0
LINE
  8
Reference_points
 62
   1
 39
0.100
  6
CONTINUOUS
 10
58.45000
 20
213.53000
 30
 0
 11
58.45000
 21
215.53000
  0
LINE
  8
Reference_points
 62
   1
 39
0.100
  6
CONTINUOUS
 10
147.87000
 20
214.53000
 30
 0
 11
149.87000
 21
214.53000
  0
LINE
  8
Reference_points
 62
   1
 39
0.100
  6
CONTINUOUS
 10
148.87000
 20
213.53000
 30
 0
 11
148.87000
 21
215.53000
  0
LINE
  8
Reference_points
 62
   1
 39
0.100
  6
CONTINUOUS
 10
185.97000
 20
214.53000
 30
 0
 11
187.97000
 21
214.53000
  0
LINE
  8
Reference_points
 62
   1
 39
0.100
  6
CONTINUOUS
 10
186.97000
 20
213.53000
 30
 0
 11
186.97000
 21
215.53000
  0
LINE
  8
Reference_points
 62
   1
 39
0.100
  6
CONTINUOUS
 10
57.45000
 20
147.85000
 30
 0
 11
59.45000
 21
147.85000
  0
LINE
  8
Reference_points
 62
   1
 39
0.100
  6
CONTINUOUS
 10
58.45000
 20
146.85000
 30
 0
 11
58.45000
 21
148.85000
  0
LINE
  8
Reference_points
 62
   1
 39
0.100
  6
CONTINUOUS
 10
147.87000
 20
147.85000
 30
 0
 11
149.87000
 21
147.85000
  0
LINE
  8
Reference_points
 62
   1
 39
0.100
  6
CONTINUOUS
 10
148.87000
 20
146.85000
 30
 0
 11
148.87000
 21
148.85000
  0
LINE
  8
Reference_points
 62
   1
 39
0.100
  6
CONTINUOUS
 10
185.97000
 20
147.85000
 30
 0
 11
187.97000
 21
147.85000
  0
LINE
  8
Reference_points
 62
   1
 39
0.100
  6
CONTINUOUS
 10
186.97000
 20
146.85000
 30
 0
 11
186.97000
 21
148.85000
  0
LINE
  8
Reference_points
 62
   1
 39
0.100
  6
CONTINUOUS
 10
80.44000
 20
181.25000
 30
 0
 11
82.44000
 21
181.25000
  0
LINE
  8
Reference_points
 62
   1
 39
0.100
  6
CONTINUOUS
 10
81.44000
 20
180.25000
 30
 0
 11
81.44000
 21
182.25000
  0
LINE
  8
Reference_points
 62
   1
 39
0.100
  6
CONTINUOUS
 10
124.88500
 20
181.25000
 30
 0
 11
126.88500
 21
181.25000
  0
LINE
  8
Reference_points
 62
   1
 39
0.100
  6
CONTINUOUS
 10
125.88500
 20
180.25000
 30
 0
 11
125.88500
 21
182.25000
  0
LINE
  8
Reference_points
 62
   1
 39
0.100
  6
CONTINUOUS
 10
30.65000
 20
26.47000
 30
 0
 11
32.65000
 21
26.47000
  0
LINE
  8
Reference_points
 62
   1
 39
0.100
  6
CONTINUOUS
 10
31.65000
 20
25.47000
 30
 0
 11
31.65000
 21
27.47000
  0
LINE
  8
Reference_points
 62
   1
 39
0.100
  6
CONTINUOUS
 10
30.83000
 20
93.03000
 30
 0
 11
32.83000
 21
93.03000
  0
LINE
  8
Reference_points
 62
   1
 39
0.100
  6
CONTINUOUS
 10
31.83000
 20
92.03000
 30
 0
 11
31.83000
 21
94.03000
  0
LINE
  8
Reference_points
 62
   1
 39
0.100
  6
CONTINUOUS
 10
68.75000
 20
93.03000
 30
 0
 11
70.75000
 21
93.03000
  0
LINE
  8
Reference_points
 62
   1
 39
0.100
  6
CONTINUOUS
 10
69.75000
 20
92.03000
 30
 0
 11
69.75000
 21
94.03000
  0
LINE
  8
Reference_points
 62
   1
 39
0.100
  6
CONTINUOUS
 10
159.17000
 20
93.03000
 30
 0
 11
161.17000
 21
93.03000
  0
LINE
  8
Reference_points
 62
   1
 39
0.100
  6
CONTINUOUS
 10
160.17000
 20
92.03000
 30
 0
 11
160.17000
 21
94.03000
  0
LINE
  8
Reference_points
 62
   1
 39
0.100
  6
CONTINUOUS
 10
197.27000
 20
93.03000
 30
 0
 11
199.27000
 21
93.03000
  0
LINE
  8
Reference_points
 62
   1
 39
0.100
  6
CONTINUOUS
 10
198.27000
 20
92.03000
 30
 0
 11
198.27000
 21
94.03000
  0
LINE
  8
Reference_points
 62
   1
 39
0.100
  6
CONTINUOUS
 10
68.75000
 20
26.35000
 30
 0
 11
70.75000
 21
26.35000
  0
LINE
  8
Reference_points
 62
   1
 39
0.100
  6
CONTINUOUS
 10
69.75000
 20
25.35000
 30
 0
 11
69.75000
 21
27.35000
  0
LINE
  8
Reference_points
 62
   1
 39
0.100
  6
CONTINUOUS
 10
159.17000
 20
26.35000
 30
 0
 11
161.17000
 21
26.35000
  0
LINE
  8
Reference_points
 62
   1
 39
0.100
  6
CONTINUOUS
 10
160.17000
 20
25.35000
 30
 0
 11
160.17000
 21
27.35000
  0
LINE
  8
Reference_points
 62
   1
 39
0.100
  6
CONTINUOUS
 10
197.27000
 20
26.35000
 30
 0
 11
199.27000
 21
26.35000
  0
LINE
  8
Reference_points
 62
   1
 39
0.100
  6
CONTINUOUS
 10
198.27000
 20
25.35000
 30
 0
 11
198.27000
 21
27.35000
  0
LINE
  8
Reference_points
 62
   1
 39
0.100
  6
CONTINUOUS
 10
91.74000
 20
59.75000
 30
 0
 11
93.74000
 21
59.75000
  0
LINE
  8
Reference_points
 62
   1
 39
0.100
  6
CONTINUOUS
 10
92.74000
 20
58.75000
 30
 0
 11
92.74000
 21
60.75000
  0
LINE
  8
Reference_points
 62
   1
 39
0.100
  6
CONTINUOUS
 10
136.18500
 20
59.75000
 30
 0
 11
138.18500
 21
59.75000
  0
LINE
  8
Reference_points
 62
   1
 39
0.100
  6
CONTINUOUS
 10
137.18500
 20
58.75000
 30
 0
 11
137.18500
 21
60.75000
  0
LINE
  8
Reference_points
 62
   1
 39
0.100
  6
CONTINUOUS
 10
247.78900
 20
82.42800
 30
 0
 11
249.78900
 21
82.42800
  0
LINE
  8
Reference_points
 62
   1
 39
0.100
  6
CONTINUOUS
 10
248.78900
 20
81.42800
 30
 0
 11
248.78900
 21
83.42800
  0
LINE
  8
Reference_points
 62
   1
 39
0.100
  6
CONTINUOUS
 10
247.78900
 20
92.42800
 30
 0
 11
249.78900
 21
92.42800
  0
LINE
  8
Reference_points
 62
   1
 39
0.100
  6
CONTINUOUS
 10
248.78900
 20
91.42800
 30
 0
 11
248.78900
 21
93.42800
  0
LINE
  8
Reference_points
 62
   1
 39
0.100
  6
CONTINUOUS
 10
247.78900
 20
102.42800
 30
 0
 11
249.78900
 21
102.42800
  0
LINE
  8
Reference_points
 62
   1
 39
0.100
  6
CONTINUOUS
 10
248.78900
 20
101.42800
 30
 0
 11
248.78900
 21
103.42800
  0
LINE
  8
Reference_points
 62
   1
 39
0.100
  6
CONTINUOUS
 10
247.78900
 20
112.42800
 30
 0
 11
249.78900
 21
112.42800
  0
LINE
  8
Reference_points
 62
   1
 39
0.100
  6
CONTINUOUS
 10
248.78900
 20
111.42800
 30
 0
 11
248.78900
 21
113.42800
  0
LINE
  8
Reference_points
 62
   1
 39
0.100
  6
CONTINUOUS
 10
247.78900
 20
122.42800
 30
 0
 11
249.78900
 21
122.42800
  0
LINE
  8
Reference_points
 62
   1
 39
0.100
  6
CONTINUOUS
 10
248.78900
 20
121.42800
 30
 0
 11
248.78900
 21
123.42800
  0
LINE
  8
Reference_points
 62
   1
 39
0.100
  6
CONTINUOUS
 10
247.78900
 20
132.42800
 30
 0
 11
249.78900
 21
132.42800
  0
LINE
  8
Reference_points
 62
   1
 39
0.100
  6
CONTINUOUS
 10
248.78900
 20
131.42800
 30
 0
 11
248.78900
 21
133.42800
  0
LINE
  8
Reference_points
 62
   1
 39
0.100
  6
CONTINUOUS
 10
247.78900
 20
152.42800
 30
 0
 11
249.78900
 21
152.42800
  0
LINE
  8
Reference_points
 62
   1
 39
0.100
  6
CONTINUOUS
 10
248.78900
 20
151.42800
 30
 0
 11
248.78900
 21
153.42800
  0
LINE
  8
Reference_points
 62
   1
 39
0.100
  6
CONTINUOUS
 10
247.78900
 20
162.42800
 30
 0
 11
249.78900
 21
162.42800
  0
LINE
  8
Reference_points
 62
   1
 39
0.100
  6
CONTINUOUS
 10
248.78900
 20
161.42800
 30
 0
 11
248.78900
 21
163.42800
  0
LINE
  8
Reference_points
 62
   1
 39
0.100
  6
CONTINUOUS
 10
247.78900
 20
172.42800
 30
 0
 11
249.78900
 21
172.42800
  0
LINE
  8
Reference_points
 62
   1
 39
0.100
  6
CONTINUOUS
 10
248.78900
 20
171.42800
 30
 0
 11
248.78900
 21
173.42800
  0
LINE
  8
Reference_points
 62
   1
 39
0.100
  6
CONTINUOUS
 10
247.78900
 20
182.42800
 30
 0
 11
249.78900
 21
182.42800
  0
LINE
  8
Reference_points
 62
   1
 39
0.100
  6
CONTINUOUS
 10
248.78900
 20
181.42800
 30
 0
 11
248.78900
 21
183.42800
  0
LINE
  8
Reference_points
 62
   1
 39
0.100
  6
CONTINUOUS
 10
247.78900
 20
192.42800
 30
 0
 11
249.78900
 21
192.42800
  0
LINE
  8
Reference_points
 62
   1
 39
0.100
  6
CONTINUOUS
 10
248.78900
 20
191.42800
 30
 0
 11
248.78900
 21
193.42800
  0
LINE
  8
Reference_points
 62
   1
 39
0.100
  6
CONTINUOUS
 10
247.78900
 20
202.42800
 30
 0
 11
249.78900
 21
202.42800
  0
LINE
  8
Reference_points
 62
   1
 39
0.100
  6
CONTINUOUS
 10
248.78900
 20
201.42800
 30
 0
 11
248.78900
 21
203.42800
  0
LINE
  8
Reference_points
 62
   1
 39
0.100
  6
CONTINUOUS
 10
219.60000
 20
144.43000
 30
 0
 11
221.60000
 21
144.43000
  0
LINE
  8
Reference_points
 62
   1
 39
0.100
  6
CONTINUOUS
 10
220.60000
 20
143.43000
 30
 0
 11
220.60000
 21
145.43000
  0
LINE
  8
Reference_points
 62
   1
 39
0.100
  6
CONTINUOUS
 10
231.60000
 20
210.43000
 30
 0
 11
233.60000
 21
210.43000
  0
LINE
  8
Reference_points
 62
   1
 39
0.100
  6
CONTINUOUS
 10
232.60000
 20
209.43000
 30
 0
 11
232.60000
 21
211.43000
  0
LINE
  8
Reference_points
 62
   1
 39
0.100
  6
CONTINUOUS
 10
231.60000
 20
140.43000
 30
 0
 11
233.60000
 21
140.43000
  0
LINE
  8
Reference_points
 62
   1
 39
0.100
  6
CONTINUOUS
 10
232.60000
 20
139.43000
 30
 0
 11
232.60000
 21
141.43000
  0
LINE
  8
Reference_points
 62
   1
 39
0.100
  6
CONTINUOUS
 10
219.60000
 20
74.43000
 30
 0
 11
221.60000
 21
74.43000
  0
LINE
  8
Reference_points
 62
   1
 39
0.100
  6
CONTINUOUS
 10
220.60000
 20
73.43000
 30
 0
 11
220.60000
 21
75.43000
  0
LINE
  8
Reference_points
 62
   1
 39
0.100
  6
CONTINUOUS
 10
299.00000
 20
22.77800
 30
 0
 11
301.00000
 21
22.77800
  0
LINE
  8
Reference_points
 62
   1
 39
0.100
  6
CONTINUOUS
 10
300.00000
 20
21.77800
 30
 0
 11
300.00000
 21
23.77800
  0
LINE
  8
Reference_points
 62
   1
 39
0.100
  6
CONTINUOUS
 10
299.00000
 20
67.22300
 30
 0
 11
301.00000
 21
67.22300
  0
LINE
  8
Reference_points
 62
   1
 39
0.100
  6
CONTINUOUS
 10
300.00000
 20
66.22300
 30
 0
 11
300.00000
 21
68.22300
  0
LINE
  8
Reference_points
 62
   1
 39
0.100
  6
CONTINUOUS
 10
390.00000
 20
67.22000
 30
 0
 11
392.00000
 21
67.22000
  0
LINE
  8
Reference_points
 62
   1
 39
0.100
  6
CONTINUOUS
 10
391.00000
 20
66.22000
 30
 0
 11
391.00000
 21
68.22000
  0
LINE
  8
Reference_points
 62
   1
 39
0.100
  6
CONTINUOUS
 10
390.00000
 20
45.00000
 30
 0
 11
392.00000
 21
45.00000
  0
LINE
  8
Reference_points
 62
   1
 39
0.100
  6
CONTINUOUS
 10
391.00000
 20
44.00000
 30
 0
 11
391.00000
 21
46.00000
  0
ENDSEC
  0
EOF
