<?xml version="1.0" encoding="utf-8" standalone="no"?>
<!DOCTYPE svg PUBLIC "-//W3C//DTD SVG 1.1//EN"
  "http://www.w3.org/Graphics/SVG/1.1/DTD/svg11.dtd">
<!-- Created with matplotlib (http://matplotlib.org/) -->
<svg height="416pt" version="1.1" viewBox="0 0 538 416" width="538pt" xmlns="http://www.w3.org/2000/svg" xmlns:xlink="http://www.w3.org/1999/xlink">
 <defs>
  <style type="text/css">
*{stroke-linecap:butt;stroke-linejoin:round;stroke-miterlimit:100000;}
  </style>
 </defs>
 <g id="figure_1">
  <g id="patch_1">
   <path d="M 0 416.711563 
L 538.336328 416.711563 
L 538.336328 0 
L 0 0 
z
" style="fill:none;"/>
  </g>
  <g id="axes_1">
   <g id="patch_2">
    <path d="M 79.517969 371.477188 
L 525.917969 371.477188 
L 525.917969 25.877187 
L 79.517969 25.877187 
z
" style="fill:none;"/>
   </g>
   <g id="LineCollection_1">
    <path clip-path="url(#p45a2ab7fc6)" d="M 79.517969 292.924269 
L 79.517969 126.053681 
" style="fill:none;stroke:#0000ff;"/>
    <path clip-path="url(#p45a2ab7fc6)" d="M 90.677969 285.518575 
L 90.677969 102.916604 
" style="fill:none;stroke:#0000ff;"/>
    <path clip-path="url(#p45a2ab7fc6)" d="M 101.837969 323.212132 
L 101.837969 178.421009 
" style="fill:none;stroke:#0000ff;"/>
    <path clip-path="url(#p45a2ab7fc6)" d="M 112.997969 352.189229 
L 112.997969 239.277888 
" style="fill:none;stroke:#0000ff;"/>
    <path clip-path="url(#p45a2ab7fc6)" d="M 124.157969 319.376659 
L 124.157969 163.079785 
" style="fill:none;stroke:#0000ff;"/>
    <path clip-path="url(#p45a2ab7fc6)" d="M 135.317969 287.206881 
L 135.317969 108.191249 
" style="fill:none;stroke:#0000ff;"/>
    <path clip-path="url(#p45a2ab7fc6)" d="M 146.477969 353.651699 
L 146.477969 249.301461 
" style="fill:none;stroke:#0000ff;"/>
    <path clip-path="url(#p45a2ab7fc6)" d="M 157.637969 319.599083 
L 157.637969 163.969442 
" style="fill:none;stroke:#0000ff;"/>
    <path clip-path="url(#p45a2ab7fc6)" d="M 168.797969 352.795058 
L 168.797969 243.430155 
" style="fill:none;stroke:#0000ff;"/>
    <path clip-path="url(#p45a2ab7fc6)" d="M 179.957969 322.997032 
L 179.957969 177.560646 
" style="fill:none;stroke:#0000ff;"/>
    <path clip-path="url(#p45a2ab7fc6)" d="M 191.117969 282.508743 
L 191.117969 93.513231 
" style="fill:none;stroke:#0000ff;"/>
    <path clip-path="url(#p45a2ab7fc6)" d="M 202.277969 371.477187 
L 202.277969 322.061426 
" style="fill:none;stroke:#0000ff;"/>
    <path clip-path="url(#p45a2ab7fc6)" d="M 213.437969 371.477187 
L 213.437969 320.045402 
" style="fill:none;stroke:#0000ff;"/>
    <path clip-path="url(#p45a2ab7fc6)" d="M 224.597969 326.621916 
L 224.597969 192.059594 
" style="fill:none;stroke:#0000ff;"/>
    <path clip-path="url(#p45a2ab7fc6)" d="M 235.757969 250.43492 
L 235.757969 45.776953 
" style="fill:none;stroke:#0000ff;"/>
    <path clip-path="url(#p45a2ab7fc6)" d="M 246.917969 352.20089 
L 246.917969 239.357806 
" style="fill:none;stroke:#0000ff;"/>
    <path clip-path="url(#p45a2ab7fc6)" d="M 258.077969 350.877303 
L 258.077969 230.286137 
" style="fill:none;stroke:#0000ff;"/>
    <path clip-path="url(#p45a2ab7fc6)" d="M 269.237969 353.308344 
L 269.237969 246.948149 
" style="fill:none;stroke:#0000ff;"/>
    <path clip-path="url(#p45a2ab7fc6)" d="M 280.397969 321.463946 
L 280.397969 171.428565 
" style="fill:none;stroke:#0000ff;"/>
    <path clip-path="url(#p45a2ab7fc6)" d="M 291.557969 352.242599 
L 291.557969 239.643677 
" style="fill:none;stroke:#0000ff;"/>
    <path clip-path="url(#p45a2ab7fc6)" d="M 302.717969 351.070474 
L 302.717969 231.6101 
" style="fill:none;stroke:#0000ff;"/>
    <path clip-path="url(#p45a2ab7fc6)" d="M 313.877969 292.249135 
L 313.877969 123.944403 
" style="fill:none;stroke:#0000ff;"/>
    <path clip-path="url(#p45a2ab7fc6)" d="M 325.037969 352.650218 
L 325.037969 242.437442 
" style="fill:none;stroke:#0000ff;"/>
    <path clip-path="url(#p45a2ab7fc6)" d="M 336.197969 371.477188 
L 336.197969 320.956854 
" style="fill:none;stroke:#0000ff;"/>
    <path clip-path="url(#p45a2ab7fc6)" d="M 347.357969 324.353492 
L 347.357969 182.98626 
" style="fill:none;stroke:#0000ff;"/>
    <path clip-path="url(#p45a2ab7fc6)" d="M 358.517969 284.89392 
L 358.517969 100.965044 
" style="fill:none;stroke:#0000ff;"/>
    <path clip-path="url(#p45a2ab7fc6)" d="M 369.677969 350.96402 
L 369.677969 230.880487 
" style="fill:none;stroke:#0000ff;"/>
    <path clip-path="url(#p45a2ab7fc6)" d="M 380.837969 371.477188 
L 380.837969 321.942223 
" style="fill:none;stroke:#0000ff;"/>
    <path clip-path="url(#p45a2ab7fc6)" d="M 391.997969 353.064295 
L 391.997969 245.275468 
" style="fill:none;stroke:#0000ff;"/>
    <path clip-path="url(#p45a2ab7fc6)" d="M 403.157969 353.524939 
L 403.157969 248.432667 
" style="fill:none;stroke:#0000ff;"/>
    <path clip-path="url(#p45a2ab7fc6)" d="M 414.317969 278.080817 
L 414.317969 79.679456 
" style="fill:none;stroke:#0000ff;"/>
    <path clip-path="url(#p45a2ab7fc6)" d="M 425.477969 352.537905 
L 425.477969 241.667664 
" style="fill:none;stroke:#0000ff;"/>
    <path clip-path="url(#p45a2ab7fc6)" d="M 436.637969 322.138675 
L 436.637969 174.127363 
" style="fill:none;stroke:#0000ff;"/>
    <path clip-path="url(#p45a2ab7fc6)" d="M 447.797969 352.424987 
L 447.797969 240.893736 
" style="fill:none;stroke:#0000ff;"/>
    <path clip-path="url(#p45a2ab7fc6)" d="M 458.957969 321.532898 
L 458.957969 171.70436 
" style="fill:none;stroke:#0000ff;"/>
    <path clip-path="url(#p45a2ab7fc6)" d="M 470.117969 352.106954 
L 470.117969 238.713987 
" style="fill:none;stroke:#0000ff;"/>
    <path clip-path="url(#p45a2ab7fc6)" d="M 481.277969 281.482933 
L 481.277969 90.308382 
" style="fill:none;stroke:#0000ff;"/>
    <path clip-path="url(#p45a2ab7fc6)" d="M 492.437969 371.477187 
L 492.437969 321.320448 
" style="fill:none;stroke:#0000ff;"/>
    <path clip-path="url(#p45a2ab7fc6)" d="M 503.597969 280.40393 
L 503.597969 86.937348 
" style="fill:none;stroke:#0000ff;"/>
    <path clip-path="url(#p45a2ab7fc6)" d="M 514.757969 371.477188 
L 514.757969 319.789253 
" style="fill:none;stroke:#0000ff;"/>
    <path clip-path="url(#p45a2ab7fc6)" d="M 525.917969 352.772425 
L 525.917969 243.27503 
" style="fill:none;stroke:#0000ff;"/>
   </g>
   <g id="line2d_1">
    <defs>
     <path d="M 3 0 
L -3 -0 
" id="mbe4aa31325" style="stroke:#0000ff;stroke-width:0.5;"/>
    </defs>
    <g clip-path="url(#p45a2ab7fc6)">
     <use style="fill:#0000ff;stroke:#0000ff;stroke-width:0.5;" x="79.51796875" xlink:href="#mbe4aa31325" y="292.924269167"/>
     <use style="fill:#0000ff;stroke:#0000ff;stroke-width:0.5;" x="90.67796875" xlink:href="#mbe4aa31325" y="285.518574807"/>
     <use style="fill:#0000ff;stroke:#0000ff;stroke-width:0.5;" x="101.83796875" xlink:href="#mbe4aa31325" y="323.212131902"/>
     <use style="fill:#0000ff;stroke:#0000ff;stroke-width:0.5;" x="112.99796875" xlink:href="#mbe4aa31325" y="352.189229344"/>
     <use style="fill:#0000ff;stroke:#0000ff;stroke-width:0.5;" x="124.15796875" xlink:href="#mbe4aa31325" y="319.376658805"/>
     <use style="fill:#0000ff;stroke:#0000ff;stroke-width:0.5;" x="135.31796875" xlink:href="#mbe4aa31325" y="287.206881191"/>
     <use style="fill:#0000ff;stroke:#0000ff;stroke-width:0.5;" x="146.47796875" xlink:href="#mbe4aa31325" y="353.651698606"/>
     <use style="fill:#0000ff;stroke:#0000ff;stroke-width:0.5;" x="157.63796875" xlink:href="#mbe4aa31325" y="319.599083031"/>
     <use style="fill:#0000ff;stroke:#0000ff;stroke-width:0.5;" x="168.79796875" xlink:href="#mbe4aa31325" y="352.795057932"/>
     <use style="fill:#0000ff;stroke:#0000ff;stroke-width:0.5;" x="179.95796875" xlink:href="#mbe4aa31325" y="322.997031958"/>
     <use style="fill:#0000ff;stroke:#0000ff;stroke-width:0.5;" x="191.11796875" xlink:href="#mbe4aa31325" y="282.508742599"/>
     <use style="fill:#0000ff;stroke:#0000ff;stroke-width:0.5;" x="202.27796875" xlink:href="#mbe4aa31325" y="371.4771875"/>
     <use style="fill:#0000ff;stroke:#0000ff;stroke-width:0.5;" x="213.43796875" xlink:href="#mbe4aa31325" y="371.4771875"/>
     <use style="fill:#0000ff;stroke:#0000ff;stroke-width:0.5;" x="224.59796875" xlink:href="#mbe4aa31325" y="326.621915837"/>
     <use style="fill:#0000ff;stroke:#0000ff;stroke-width:0.5;" x="235.75796875" xlink:href="#mbe4aa31325" y="250.434919822"/>
     <use style="fill:#0000ff;stroke:#0000ff;stroke-width:0.5;" x="246.91796875" xlink:href="#mbe4aa31325" y="352.200889699"/>
     <use style="fill:#0000ff;stroke:#0000ff;stroke-width:0.5;" x="258.07796875" xlink:href="#mbe4aa31325" y="350.877302636"/>
     <use style="fill:#0000ff;stroke:#0000ff;stroke-width:0.5;" x="269.23796875" xlink:href="#mbe4aa31325" y="353.308343753"/>
     <use style="fill:#0000ff;stroke:#0000ff;stroke-width:0.5;" x="280.39796875" xlink:href="#mbe4aa31325" y="321.463946146"/>
     <use style="fill:#0000ff;stroke:#0000ff;stroke-width:0.5;" x="291.55796875" xlink:href="#mbe4aa31325" y="352.242599155"/>
     <use style="fill:#0000ff;stroke:#0000ff;stroke-width:0.5;" x="302.71796875" xlink:href="#mbe4aa31325" y="351.070473589"/>
     <use style="fill:#0000ff;stroke:#0000ff;stroke-width:0.5;" x="313.87796875" xlink:href="#mbe4aa31325" y="292.249134764"/>
     <use style="fill:#0000ff;stroke:#0000ff;stroke-width:0.5;" x="325.03796875" xlink:href="#mbe4aa31325" y="352.650218175"/>
     <use style="fill:#0000ff;stroke:#0000ff;stroke-width:0.5;" x="336.19796875" xlink:href="#mbe4aa31325" y="371.4771875"/>
     <use style="fill:#0000ff;stroke:#0000ff;stroke-width:0.5;" x="347.35796875" xlink:href="#mbe4aa31325" y="324.353491889"/>
     <use style="fill:#0000ff;stroke:#0000ff;stroke-width:0.5;" x="358.51796875" xlink:href="#mbe4aa31325" y="284.893919816"/>
     <use style="fill:#0000ff;stroke:#0000ff;stroke-width:0.5;" x="369.67796875" xlink:href="#mbe4aa31325" y="350.964020399"/>
     <use style="fill:#0000ff;stroke:#0000ff;stroke-width:0.5;" x="380.83796875" xlink:href="#mbe4aa31325" y="371.4771875"/>
     <use style="fill:#0000ff;stroke:#0000ff;stroke-width:0.5;" x="391.99796875" xlink:href="#mbe4aa31325" y="353.064294688"/>
     <use style="fill:#0000ff;stroke:#0000ff;stroke-width:0.5;" x="403.15796875" xlink:href="#mbe4aa31325" y="353.524939115"/>
     <use style="fill:#0000ff;stroke:#0000ff;stroke-width:0.5;" x="414.31796875" xlink:href="#mbe4aa31325" y="278.080817153"/>
     <use style="fill:#0000ff;stroke:#0000ff;stroke-width:0.5;" x="425.47796875" xlink:href="#mbe4aa31325" y="352.537905191"/>
     <use style="fill:#0000ff;stroke:#0000ff;stroke-width:0.5;" x="436.63796875" xlink:href="#mbe4aa31325" y="322.138674764"/>
     <use style="fill:#0000ff;stroke:#0000ff;stroke-width:0.5;" x="447.79796875" xlink:href="#mbe4aa31325" y="352.42498661"/>
     <use style="fill:#0000ff;stroke:#0000ff;stroke-width:0.5;" x="458.95796875" xlink:href="#mbe4aa31325" y="321.532897926"/>
     <use style="fill:#0000ff;stroke:#0000ff;stroke-width:0.5;" x="470.11796875" xlink:href="#mbe4aa31325" y="352.106954384"/>
     <use style="fill:#0000ff;stroke:#0000ff;stroke-width:0.5;" x="481.27796875" xlink:href="#mbe4aa31325" y="281.482932956"/>
     <use style="fill:#0000ff;stroke:#0000ff;stroke-width:0.5;" x="492.43796875" xlink:href="#mbe4aa31325" y="371.4771875"/>
     <use style="fill:#0000ff;stroke:#0000ff;stroke-width:0.5;" x="503.59796875" xlink:href="#mbe4aa31325" y="280.403930436"/>
     <use style="fill:#0000ff;stroke:#0000ff;stroke-width:0.5;" x="514.75796875" xlink:href="#mbe4aa31325" y="371.477187501"/>
     <use style="fill:#0000ff;stroke:#0000ff;stroke-width:0.5;" x="525.91796875" xlink:href="#mbe4aa31325" y="352.772424717"/>
    </g>
   </g>
   <g id="line2d_2">
    <g clip-path="url(#p45a2ab7fc6)">
     <use style="fill:#0000ff;stroke:#0000ff;stroke-width:0.5;" x="79.51796875" xlink:href="#mbe4aa31325" y="126.053680903"/>
     <use style="fill:#0000ff;stroke:#0000ff;stroke-width:0.5;" x="90.67796875" xlink:href="#mbe4aa31325" y="102.916603665"/>
     <use style="fill:#0000ff;stroke:#0000ff;stroke-width:0.5;" x="101.83796875" xlink:href="#mbe4aa31325" y="178.421009344"/>
     <use style="fill:#0000ff;stroke:#0000ff;stroke-width:0.5;" x="112.99796875" xlink:href="#mbe4aa31325" y="239.277887944"/>
     <use style="fill:#0000ff;stroke:#0000ff;stroke-width:0.5;" x="124.15796875" xlink:href="#mbe4aa31325" y="163.079785254"/>
     <use style="fill:#0000ff;stroke:#0000ff;stroke-width:0.5;" x="135.31796875" xlink:href="#mbe4aa31325" y="108.191248658"/>
     <use style="fill:#0000ff;stroke:#0000ff;stroke-width:0.5;" x="146.47796875" xlink:href="#mbe4aa31325" y="249.301461106"/>
     <use style="fill:#0000ff;stroke:#0000ff;stroke-width:0.5;" x="157.63796875" xlink:href="#mbe4aa31325" y="163.969442008"/>
     <use style="fill:#0000ff;stroke:#0000ff;stroke-width:0.5;" x="168.79796875" xlink:href="#mbe4aa31325" y="243.430154647"/>
     <use style="fill:#0000ff;stroke:#0000ff;stroke-width:0.5;" x="179.95796875" xlink:href="#mbe4aa31325" y="177.560645696"/>
     <use style="fill:#0000ff;stroke:#0000ff;stroke-width:0.5;" x="191.11796875" xlink:href="#mbe4aa31325" y="93.5132309592"/>
     <use style="fill:#0000ff;stroke:#0000ff;stroke-width:0.5;" x="202.27796875" xlink:href="#mbe4aa31325" y="322.061425931"/>
     <use style="fill:#0000ff;stroke:#0000ff;stroke-width:0.5;" x="213.43796875" xlink:href="#mbe4aa31325" y="320.045401585"/>
     <use style="fill:#0000ff;stroke:#0000ff;stroke-width:0.5;" x="224.59796875" xlink:href="#mbe4aa31325" y="192.059593844"/>
     <use style="fill:#0000ff;stroke:#0000ff;stroke-width:0.5;" x="235.75796875" xlink:href="#mbe4aa31325" y="45.7769525935"/>
     <use style="fill:#0000ff;stroke:#0000ff;stroke-width:0.5;" x="246.91796875" xlink:href="#mbe4aa31325" y="239.357806386"/>
     <use style="fill:#0000ff;stroke:#0000ff;stroke-width:0.5;" x="258.07796875" xlink:href="#mbe4aa31325" y="230.286136589"/>
     <use style="fill:#0000ff;stroke:#0000ff;stroke-width:0.5;" x="269.23796875" xlink:href="#mbe4aa31325" y="246.948149418"/>
     <use style="fill:#0000ff;stroke:#0000ff;stroke-width:0.5;" x="280.39796875" xlink:href="#mbe4aa31325" y="171.428564591"/>
     <use style="fill:#0000ff;stroke:#0000ff;stroke-width:0.5;" x="291.55796875" xlink:href="#mbe4aa31325" y="239.643677179"/>
     <use style="fill:#0000ff;stroke:#0000ff;stroke-width:0.5;" x="302.71796875" xlink:href="#mbe4aa31325" y="231.610100335"/>
     <use style="fill:#0000ff;stroke:#0000ff;stroke-width:0.5;" x="313.87796875" xlink:href="#mbe4aa31325" y="123.944402911"/>
     <use style="fill:#0000ff;stroke:#0000ff;stroke-width:0.5;" x="325.03796875" xlink:href="#mbe4aa31325" y="242.437442239"/>
     <use style="fill:#0000ff;stroke:#0000ff;stroke-width:0.5;" x="336.19796875" xlink:href="#mbe4aa31325" y="320.956854382"/>
     <use style="fill:#0000ff;stroke:#0000ff;stroke-width:0.5;" x="347.35796875" xlink:href="#mbe4aa31325" y="182.986260279"/>
     <use style="fill:#0000ff;stroke:#0000ff;stroke-width:0.5;" x="358.51796875" xlink:href="#mbe4aa31325" y="100.965043755"/>
     <use style="fill:#0000ff;stroke:#0000ff;stroke-width:0.5;" x="369.67796875" xlink:href="#mbe4aa31325" y="230.880486623"/>
     <use style="fill:#0000ff;stroke:#0000ff;stroke-width:0.5;" x="380.83796875" xlink:href="#mbe4aa31325" y="321.942222781"/>
     <use style="fill:#0000ff;stroke:#0000ff;stroke-width:0.5;" x="391.99796875" xlink:href="#mbe4aa31325" y="245.275468211"/>
     <use style="fill:#0000ff;stroke:#0000ff;stroke-width:0.5;" x="403.15796875" xlink:href="#mbe4aa31325" y="248.432667061"/>
     <use style="fill:#0000ff;stroke:#0000ff;stroke-width:0.5;" x="414.31796875" xlink:href="#mbe4aa31325" y="79.6794561322"/>
     <use style="fill:#0000ff;stroke:#0000ff;stroke-width:0.5;" x="425.47796875" xlink:href="#mbe4aa31325" y="241.66766419"/>
     <use style="fill:#0000ff;stroke:#0000ff;stroke-width:0.5;" x="436.63796875" xlink:href="#mbe4aa31325" y="174.127362684"/>
     <use style="fill:#0000ff;stroke:#0000ff;stroke-width:0.5;" x="447.79796875" xlink:href="#mbe4aa31325" y="240.893735617"/>
     <use style="fill:#0000ff;stroke:#0000ff;stroke-width:0.5;" x="458.95796875" xlink:href="#mbe4aa31325" y="171.704359746"/>
     <use style="fill:#0000ff;stroke:#0000ff;stroke-width:0.5;" x="470.11796875" xlink:href="#mbe4aa31325" y="238.713986917"/>
     <use style="fill:#0000ff;stroke:#0000ff;stroke-width:0.5;" x="481.27796875" xlink:href="#mbe4aa31325" y="90.3083816064"/>
     <use style="fill:#0000ff;stroke:#0000ff;stroke-width:0.5;" x="492.43796875" xlink:href="#mbe4aa31325" y="321.320447688"/>
     <use style="fill:#0000ff;stroke:#0000ff;stroke-width:0.5;" x="503.59796875" xlink:href="#mbe4aa31325" y="86.9373484114"/>
     <use style="fill:#0000ff;stroke:#0000ff;stroke-width:0.5;" x="514.75796875" xlink:href="#mbe4aa31325" y="319.789253403"/>
     <use style="fill:#0000ff;stroke:#0000ff;stroke-width:0.5;" x="525.91796875" xlink:href="#mbe4aa31325" y="243.275029589"/>
    </g>
   </g>
   <g id="line2d_3">
    <path clip-path="url(#p45a2ab7fc6)" d="M 79.517969 209.488975 
L 90.677969 194.217589 
L 101.837969 250.816571 
L 112.997969 295.733559 
L 124.157969 241.228222 
L 135.317969 197.699065 
L 146.477969 301.47658 
L 157.637969 241.784263 
L 168.797969 298.112606 
L 179.957969 250.278839 
L 191.117969 188.010987 
L 202.277969 346.769307 
L 213.437969 345.761295 
L 224.597969 259.340755 
L 235.757969 148.105936 
L 246.917969 295.779348 
L 258.077969 290.58172 
L 269.237969 300.128247 
L 280.397969 246.446255 
L 291.557969 295.943138 
L 302.717969 291.340287 
L 313.877969 208.096769 
L 325.037969 297.54383 
L 336.197969 346.217021 
L 347.357969 253.669876 
L 358.517969 192.929482 
L 369.677969 290.922254 
L 380.837969 346.709705 
L 391.997969 299.169881 
L 403.157969 300.978803 
L 414.317969 178.880137 
L 425.477969 297.102785 
L 436.637969 248.133019 
L 447.797969 296.659361 
L 458.957969 246.618629 
L 470.117969 295.410471 
L 481.277969 185.895657 
L 492.437969 346.398818 
L 503.597969 183.670639 
L 514.757969 345.63322 
L 525.917969 298.023727 
" style="fill:none;stroke:#0000ff;stroke-linecap:square;"/>
   </g>
   <g id="line2d_4">
    <path clip-path="url(#p45a2ab7fc6)" d="M 213.437969 371.477188 
L 213.437969 25.877187 
" style="fill:none;stroke:#0000ff;stroke-linecap:square;stroke-width:3.0;"/>
   </g>
   <g id="line2d_5">
    <path clip-path="url(#p45a2ab7fc6)" d="M 302.717969 371.477188 
L 302.717969 25.877187 
" style="fill:none;stroke:#0000ff;stroke-linecap:square;stroke-width:3.0;"/>
   </g>
   <g id="patch_3">
    <path d="M 525.917969 371.477188 
L 525.917969 25.877187 
" style="fill:none;stroke:#000000;stroke-linecap:square;stroke-linejoin:miter;"/>
   </g>
   <g id="patch_4">
    <path d="M 79.517969 371.477188 
L 79.517969 25.877187 
" style="fill:none;stroke:#000000;stroke-linecap:square;stroke-linejoin:miter;"/>
   </g>
   <g id="patch_5">
    <path d="M 79.517969 371.477188 
L 525.917969 371.477188 
" style="fill:none;stroke:#000000;stroke-linecap:square;stroke-linejoin:miter;"/>
   </g>
   <g id="patch_6">
    <path d="M 79.517969 25.877187 
L 525.917969 25.877187 
" style="fill:none;stroke:#000000;stroke-linecap:square;stroke-linejoin:miter;"/>
   </g>
   <g id="matplotlib.axis_1">
    <g id="xtick_1">
     <g id="line2d_6">
      <path clip-path="url(#p45a2ab7fc6)" d="M 79.517969 371.477188 
L 79.517969 25.877187 
" style="fill:none;stroke:#000000;stroke-dasharray:1.000000,3.000000;stroke-dashoffset:0.0;stroke-width:0.5;"/>
     </g>
     <g id="line2d_7">
      <defs>
       <path d="M 0 0 
L 0 -4 
" id="me52f998fe6" style="stroke:#000000;stroke-width:0.5;"/>
      </defs>
      <g>
       <use style="stroke:#000000;stroke-width:0.5;" x="79.51796875" xlink:href="#me52f998fe6" y="371.4771875"/>
      </g>
     </g>
     <g id="line2d_8">
      <defs>
       <path d="M 0 0 
L 0 4 
" id="m3e415d44f4" style="stroke:#000000;stroke-width:0.5;"/>
      </defs>
      <g>
       <use style="stroke:#000000;stroke-width:0.5;" x="79.51796875" xlink:href="#m3e415d44f4" y="25.8771875"/>
      </g>
     </g>
     <g id="text_1">
      <!-- 0 -->
      <defs>
       <path d="M 46 36.53125 
Q 46 50.203125 43.4375 55.78125 
Q 40.875 61.375 34.8125 61.375 
Q 28.765625 61.375 26.171875 55.78125 
Q 23.578125 50.203125 23.578125 36.53125 
Q 23.578125 22.703125 26.171875 17.03125 
Q 28.765625 11.375 34.8125 11.375 
Q 40.828125 11.375 43.40625 17.03125 
Q 46 22.703125 46 36.53125 
M 64.796875 36.375 
Q 64.796875 18.265625 56.984375 8.421875 
Q 49.171875 -1.421875 34.8125 -1.421875 
Q 20.40625 -1.421875 12.59375 8.421875 
Q 4.78125 18.265625 4.78125 36.375 
Q 4.78125 54.546875 12.59375 64.375 
Q 20.40625 74.21875 34.8125 74.21875 
Q 49.171875 74.21875 56.984375 64.375 
Q 64.796875 54.546875 64.796875 36.375 
" id="BitstreamVeraSans-Bold-30"/>
      </defs>
      <g transform="translate(74.299609375 386.87484375)scale(0.15 -0.15)">
       <use xlink:href="#BitstreamVeraSans-Bold-30"/>
      </g>
     </g>
    </g>
    <g id="xtick_2">
     <g id="line2d_9">
      <path clip-path="url(#p45a2ab7fc6)" d="M 168.797969 371.477188 
L 168.797969 25.877187 
" style="fill:none;stroke:#000000;stroke-dasharray:1.000000,3.000000;stroke-dashoffset:0.0;stroke-width:0.5;"/>
     </g>
     <g id="line2d_10">
      <g>
       <use style="stroke:#000000;stroke-width:0.5;" x="168.79796875" xlink:href="#me52f998fe6" y="371.4771875"/>
      </g>
     </g>
     <g id="line2d_11">
      <g>
       <use style="stroke:#000000;stroke-width:0.5;" x="168.79796875" xlink:href="#m3e415d44f4" y="25.8771875"/>
      </g>
     </g>
     <g id="text_2">
      <!-- 1 -->
      <defs>
       <path d="M 11.71875 12.984375 
L 28.328125 12.984375 
L 28.328125 60.109375 
L 11.28125 56.59375 
L 11.28125 69.390625 
L 28.21875 72.90625 
L 46.09375 72.90625 
L 46.09375 12.984375 
L 62.703125 12.984375 
L 62.703125 0 
L 11.71875 0 
z
" id="BitstreamVeraSans-Bold-31"/>
      </defs>
      <g transform="translate(163.579609375 386.87484375)scale(0.15 -0.15)">
       <use xlink:href="#BitstreamVeraSans-Bold-31"/>
      </g>
     </g>
    </g>
    <g id="xtick_3">
     <g id="line2d_12">
      <path clip-path="url(#p45a2ab7fc6)" d="M 258.077969 371.477188 
L 258.077969 25.877187 
" style="fill:none;stroke:#000000;stroke-dasharray:1.000000,3.000000;stroke-dashoffset:0.0;stroke-width:0.5;"/>
     </g>
     <g id="line2d_13">
      <g>
       <use style="stroke:#000000;stroke-width:0.5;" x="258.07796875" xlink:href="#me52f998fe6" y="371.4771875"/>
      </g>
     </g>
     <g id="line2d_14">
      <g>
       <use style="stroke:#000000;stroke-width:0.5;" x="258.07796875" xlink:href="#m3e415d44f4" y="25.8771875"/>
      </g>
     </g>
     <g id="text_3">
      <!-- 2 -->
      <defs>
       <path d="M 28.8125 13.8125 
L 60.890625 13.8125 
L 60.890625 0 
L 7.90625 0 
L 7.90625 13.8125 
L 34.515625 37.3125 
Q 38.09375 40.53125 39.796875 43.609375 
Q 41.5 46.6875 41.5 50 
Q 41.5 55.125 38.0625 58.25 
Q 34.625 61.375 28.90625 61.375 
Q 24.515625 61.375 19.28125 59.5 
Q 14.0625 57.625 8.109375 53.90625 
L 8.109375 69.921875 
Q 14.453125 72.015625 20.65625 73.109375 
Q 26.859375 74.21875 32.8125 74.21875 
Q 45.90625 74.21875 53.15625 68.453125 
Q 60.40625 62.703125 60.40625 52.390625 
Q 60.40625 46.4375 57.328125 41.28125 
Q 54.25 36.140625 44.390625 27.484375 
z
" id="BitstreamVeraSans-Bold-32"/>
      </defs>
      <g transform="translate(252.859609375 386.87484375)scale(0.15 -0.15)">
       <use xlink:href="#BitstreamVeraSans-Bold-32"/>
      </g>
     </g>
    </g>
    <g id="xtick_4">
     <g id="line2d_15">
      <path clip-path="url(#p45a2ab7fc6)" d="M 347.357969 371.477188 
L 347.357969 25.877187 
" style="fill:none;stroke:#000000;stroke-dasharray:1.000000,3.000000;stroke-dashoffset:0.0;stroke-width:0.5;"/>
     </g>
     <g id="line2d_16">
      <g>
       <use style="stroke:#000000;stroke-width:0.5;" x="347.35796875" xlink:href="#me52f998fe6" y="371.4771875"/>
      </g>
     </g>
     <g id="line2d_17">
      <g>
       <use style="stroke:#000000;stroke-width:0.5;" x="347.35796875" xlink:href="#m3e415d44f4" y="25.8771875"/>
      </g>
     </g>
     <g id="text_4">
      <!-- 3 -->
      <defs>
       <path d="M 46.578125 39.3125 
Q 53.953125 37.40625 57.78125 32.6875 
Q 61.625 27.984375 61.625 20.703125 
Q 61.625 9.859375 53.3125 4.21875 
Q 45.015625 -1.421875 29.109375 -1.421875 
Q 23.484375 -1.421875 17.84375 -0.515625 
Q 12.203125 0.390625 6.6875 2.203125 
L 6.6875 16.703125 
Q 11.96875 14.0625 17.15625 12.71875 
Q 22.359375 11.375 27.390625 11.375 
Q 34.859375 11.375 38.84375 13.953125 
Q 42.828125 16.546875 42.828125 21.390625 
Q 42.828125 26.375 38.75 28.9375 
Q 34.671875 31.5 26.703125 31.5 
L 19.1875 31.5 
L 19.1875 43.609375 
L 27.09375 43.609375 
Q 34.1875 43.609375 37.640625 45.828125 
Q 41.109375 48.046875 41.109375 52.59375 
Q 41.109375 56.78125 37.734375 59.078125 
Q 34.375 61.375 28.21875 61.375 
Q 23.6875 61.375 19.046875 60.34375 
Q 14.40625 59.328125 9.8125 57.328125 
L 9.8125 71.09375 
Q 15.375 72.65625 20.84375 73.4375 
Q 26.3125 74.21875 31.59375 74.21875 
Q 45.796875 74.21875 52.84375 69.546875 
Q 59.90625 64.890625 59.90625 55.515625 
Q 59.90625 49.125 56.53125 45.046875 
Q 53.171875 40.96875 46.578125 39.3125 
" id="BitstreamVeraSans-Bold-33"/>
      </defs>
      <g transform="translate(342.139609375 386.87484375)scale(0.15 -0.15)">
       <use xlink:href="#BitstreamVeraSans-Bold-33"/>
      </g>
     </g>
    </g>
    <g id="xtick_5">
     <g id="line2d_18">
      <path clip-path="url(#p45a2ab7fc6)" d="M 436.637969 371.477188 
L 436.637969 25.877187 
" style="fill:none;stroke:#000000;stroke-dasharray:1.000000,3.000000;stroke-dashoffset:0.0;stroke-width:0.5;"/>
     </g>
     <g id="line2d_19">
      <g>
       <use style="stroke:#000000;stroke-width:0.5;" x="436.63796875" xlink:href="#me52f998fe6" y="371.4771875"/>
      </g>
     </g>
     <g id="line2d_20">
      <g>
       <use style="stroke:#000000;stroke-width:0.5;" x="436.63796875" xlink:href="#m3e415d44f4" y="25.8771875"/>
      </g>
     </g>
     <g id="text_5">
      <!-- 4 -->
      <defs>
       <path d="M 36.8125 57.421875 
L 16.21875 26.90625 
L 36.8125 26.90625 
z
M 33.6875 72.90625 
L 54.59375 72.90625 
L 54.59375 26.90625 
L 64.984375 26.90625 
L 64.984375 13.28125 
L 54.59375 13.28125 
L 54.59375 0 
L 36.8125 0 
L 36.8125 13.28125 
L 4.5 13.28125 
L 4.5 29.390625 
z
" id="BitstreamVeraSans-Bold-34"/>
      </defs>
      <g transform="translate(431.419609375 386.87484375)scale(0.15 -0.15)">
       <use xlink:href="#BitstreamVeraSans-Bold-34"/>
      </g>
     </g>
    </g>
    <g id="xtick_6">
     <g id="line2d_21">
      <path clip-path="url(#p45a2ab7fc6)" d="M 525.917969 371.477188 
L 525.917969 25.877187 
" style="fill:none;stroke:#000000;stroke-dasharray:1.000000,3.000000;stroke-dashoffset:0.0;stroke-width:0.5;"/>
     </g>
     <g id="line2d_22">
      <g>
       <use style="stroke:#000000;stroke-width:0.5;" x="525.91796875" xlink:href="#me52f998fe6" y="371.4771875"/>
      </g>
     </g>
     <g id="line2d_23">
      <g>
       <use style="stroke:#000000;stroke-width:0.5;" x="525.91796875" xlink:href="#m3e415d44f4" y="25.8771875"/>
      </g>
     </g>
     <g id="text_6">
      <!-- 5 -->
      <defs>
       <path d="M 10.59375 72.90625 
L 57.328125 72.90625 
L 57.328125 59.078125 
L 25.59375 59.078125 
L 25.59375 47.796875 
Q 27.734375 48.390625 29.90625 48.703125 
Q 32.078125 49.03125 34.421875 49.03125 
Q 47.75 49.03125 55.171875 42.359375 
Q 62.59375 35.6875 62.59375 23.78125 
Q 62.59375 11.96875 54.515625 5.265625 
Q 46.4375 -1.421875 32.078125 -1.421875 
Q 25.875 -1.421875 19.796875 -0.21875 
Q 13.71875 0.984375 7.71875 3.421875 
L 7.71875 18.21875 
Q 13.671875 14.796875 19.015625 13.078125 
Q 24.359375 11.375 29.109375 11.375 
Q 35.9375 11.375 39.859375 14.71875 
Q 43.796875 18.0625 43.796875 23.78125 
Q 43.796875 29.546875 39.859375 32.859375 
Q 35.9375 36.1875 29.109375 36.1875 
Q 25.046875 36.1875 20.453125 35.125 
Q 15.875 34.078125 10.59375 31.890625 
z
" id="BitstreamVeraSans-Bold-35"/>
      </defs>
      <g transform="translate(520.699609375 386.87484375)scale(0.15 -0.15)">
       <use xlink:href="#BitstreamVeraSans-Bold-35"/>
      </g>
     </g>
    </g>
    <g id="text_7">
     <!-- t -->
     <defs>
      <path d="M 18.3125 70.21875 
L 18.3125 54.6875 
L 36.8125 54.6875 
L 36.8125 47.703125 
L 18.3125 47.703125 
L 18.3125 18.015625 
Q 18.3125 11.328125 20.140625 9.421875 
Q 21.96875 7.515625 27.59375 7.515625 
L 36.8125 7.515625 
L 36.8125 0 
L 27.59375 0 
Q 17.1875 0 13.234375 3.875 
Q 9.28125 7.765625 9.28125 18.015625 
L 9.28125 47.703125 
L 2.6875 47.703125 
L 2.6875 54.6875 
L 9.28125 54.6875 
L 9.28125 70.21875 
z
" id="BitstreamVeraSans-Roman-74"/>
     </defs>
     <g transform="translate(299.777734375 406.39203125)scale(0.15 -0.15)">
      <use xlink:href="#BitstreamVeraSans-Roman-74"/>
     </g>
    </g>
   </g>
   <g id="matplotlib.axis_2">
    <g id="ytick_1">
     <g id="line2d_24">
      <path clip-path="url(#p45a2ab7fc6)" d="M 79.517969 371.477188 
L 525.917969 371.477188 
" style="fill:none;stroke:#000000;stroke-dasharray:1.000000,3.000000;stroke-dashoffset:0.0;stroke-width:0.5;"/>
     </g>
     <g id="line2d_25">
      <defs>
       <path d="M 0 0 
L 4 0 
" id="m086b1e244e" style="stroke:#000000;stroke-width:0.5;"/>
      </defs>
      <g>
       <use style="stroke:#000000;stroke-width:0.5;" x="79.51796875" xlink:href="#m086b1e244e" y="371.4771875"/>
      </g>
     </g>
     <g id="line2d_26">
      <defs>
       <path d="M 0 0 
L -4 0 
" id="m52b110976c" style="stroke:#000000;stroke-width:0.5;"/>
      </defs>
      <g>
       <use style="stroke:#000000;stroke-width:0.5;" x="525.91796875" xlink:href="#m52b110976c" y="371.4771875"/>
      </g>
     </g>
     <g id="text_8">
      <!-- 0.00000 -->
      <defs>
       <path d="M 10.203125 18.890625 
L 27.78125 18.890625 
L 27.78125 0 
L 10.203125 0 
z
" id="BitstreamVeraSans-Bold-2e"/>
      </defs>
      <g transform="translate(7.2 375.61625)scale(0.15 -0.15)">
       <use xlink:href="#BitstreamVeraSans-Bold-30"/>
       <use x="69.580078125" xlink:href="#BitstreamVeraSans-Bold-2e"/>
       <use x="107.568359375" xlink:href="#BitstreamVeraSans-Bold-30"/>
       <use x="177.1484375" xlink:href="#BitstreamVeraSans-Bold-30"/>
       <use x="246.728515625" xlink:href="#BitstreamVeraSans-Bold-30"/>
       <use x="316.30859375" xlink:href="#BitstreamVeraSans-Bold-30"/>
       <use x="385.888671875" xlink:href="#BitstreamVeraSans-Bold-30"/>
      </g>
     </g>
    </g>
    <g id="ytick_2">
     <g id="line2d_27">
      <path clip-path="url(#p45a2ab7fc6)" d="M 79.517969 333.077188 
L 525.917969 333.077188 
" style="fill:none;stroke:#000000;stroke-dasharray:1.000000,3.000000;stroke-dashoffset:0.0;stroke-width:0.5;"/>
     </g>
     <g id="line2d_28">
      <g>
       <use style="stroke:#000000;stroke-width:0.5;" x="79.51796875" xlink:href="#m086b1e244e" y="333.0771875"/>
      </g>
     </g>
     <g id="line2d_29">
      <g>
       <use style="stroke:#000000;stroke-width:0.5;" x="525.91796875" xlink:href="#m52b110976c" y="333.0771875"/>
      </g>
     </g>
     <g id="text_9">
      <!-- 0.00001 -->
      <g transform="translate(7.2 337.21625)scale(0.15 -0.15)">
       <use xlink:href="#BitstreamVeraSans-Bold-30"/>
       <use x="69.580078125" xlink:href="#BitstreamVeraSans-Bold-2e"/>
       <use x="107.568359375" xlink:href="#BitstreamVeraSans-Bold-30"/>
       <use x="177.1484375" xlink:href="#BitstreamVeraSans-Bold-30"/>
       <use x="246.728515625" xlink:href="#BitstreamVeraSans-Bold-30"/>
       <use x="316.30859375" xlink:href="#BitstreamVeraSans-Bold-30"/>
       <use x="385.888671875" xlink:href="#BitstreamVeraSans-Bold-31"/>
      </g>
     </g>
    </g>
    <g id="ytick_3">
     <g id="line2d_30">
      <path clip-path="url(#p45a2ab7fc6)" d="M 79.517969 294.677188 
L 525.917969 294.677188 
" style="fill:none;stroke:#000000;stroke-dasharray:1.000000,3.000000;stroke-dashoffset:0.0;stroke-width:0.5;"/>
     </g>
     <g id="line2d_31">
      <g>
       <use style="stroke:#000000;stroke-width:0.5;" x="79.51796875" xlink:href="#m086b1e244e" y="294.6771875"/>
      </g>
     </g>
     <g id="line2d_32">
      <g>
       <use style="stroke:#000000;stroke-width:0.5;" x="525.91796875" xlink:href="#m52b110976c" y="294.6771875"/>
      </g>
     </g>
     <g id="text_10">
      <!-- 0.00002 -->
      <g transform="translate(7.2 298.81625)scale(0.15 -0.15)">
       <use xlink:href="#BitstreamVeraSans-Bold-30"/>
       <use x="69.580078125" xlink:href="#BitstreamVeraSans-Bold-2e"/>
       <use x="107.568359375" xlink:href="#BitstreamVeraSans-Bold-30"/>
       <use x="177.1484375" xlink:href="#BitstreamVeraSans-Bold-30"/>
       <use x="246.728515625" xlink:href="#BitstreamVeraSans-Bold-30"/>
       <use x="316.30859375" xlink:href="#BitstreamVeraSans-Bold-30"/>
       <use x="385.888671875" xlink:href="#BitstreamVeraSans-Bold-32"/>
      </g>
     </g>
    </g>
    <g id="ytick_4">
     <g id="line2d_33">
      <path clip-path="url(#p45a2ab7fc6)" d="M 79.517969 256.277187 
L 525.917969 256.277187 
" style="fill:none;stroke:#000000;stroke-dasharray:1.000000,3.000000;stroke-dashoffset:0.0;stroke-width:0.5;"/>
     </g>
     <g id="line2d_34">
      <g>
       <use style="stroke:#000000;stroke-width:0.5;" x="79.51796875" xlink:href="#m086b1e244e" y="256.2771875"/>
      </g>
     </g>
     <g id="line2d_35">
      <g>
       <use style="stroke:#000000;stroke-width:0.5;" x="525.91796875" xlink:href="#m52b110976c" y="256.2771875"/>
      </g>
     </g>
     <g id="text_11">
      <!-- 0.00003 -->
      <g transform="translate(7.2 260.41625)scale(0.15 -0.15)">
       <use xlink:href="#BitstreamVeraSans-Bold-30"/>
       <use x="69.580078125" xlink:href="#BitstreamVeraSans-Bold-2e"/>
       <use x="107.568359375" xlink:href="#BitstreamVeraSans-Bold-30"/>
       <use x="177.1484375" xlink:href="#BitstreamVeraSans-Bold-30"/>
       <use x="246.728515625" xlink:href="#BitstreamVeraSans-Bold-30"/>
       <use x="316.30859375" xlink:href="#BitstreamVeraSans-Bold-30"/>
       <use x="385.888671875" xlink:href="#BitstreamVeraSans-Bold-33"/>
      </g>
     </g>
    </g>
    <g id="ytick_5">
     <g id="line2d_36">
      <path clip-path="url(#p45a2ab7fc6)" d="M 79.517969 217.877187 
L 525.917969 217.877187 
" style="fill:none;stroke:#000000;stroke-dasharray:1.000000,3.000000;stroke-dashoffset:0.0;stroke-width:0.5;"/>
     </g>
     <g id="line2d_37">
      <g>
       <use style="stroke:#000000;stroke-width:0.5;" x="79.51796875" xlink:href="#m086b1e244e" y="217.8771875"/>
      </g>
     </g>
     <g id="line2d_38">
      <g>
       <use style="stroke:#000000;stroke-width:0.5;" x="525.91796875" xlink:href="#m52b110976c" y="217.8771875"/>
      </g>
     </g>
     <g id="text_12">
      <!-- 0.00004 -->
      <g transform="translate(7.2 222.01625)scale(0.15 -0.15)">
       <use xlink:href="#BitstreamVeraSans-Bold-30"/>
       <use x="69.580078125" xlink:href="#BitstreamVeraSans-Bold-2e"/>
       <use x="107.568359375" xlink:href="#BitstreamVeraSans-Bold-30"/>
       <use x="177.1484375" xlink:href="#BitstreamVeraSans-Bold-30"/>
       <use x="246.728515625" xlink:href="#BitstreamVeraSans-Bold-30"/>
       <use x="316.30859375" xlink:href="#BitstreamVeraSans-Bold-30"/>
       <use x="385.888671875" xlink:href="#BitstreamVeraSans-Bold-34"/>
      </g>
     </g>
    </g>
    <g id="ytick_6">
     <g id="line2d_39">
      <path clip-path="url(#p45a2ab7fc6)" d="M 79.517969 179.477187 
L 525.917969 179.477187 
" style="fill:none;stroke:#000000;stroke-dasharray:1.000000,3.000000;stroke-dashoffset:0.0;stroke-width:0.5;"/>
     </g>
     <g id="line2d_40">
      <g>
       <use style="stroke:#000000;stroke-width:0.5;" x="79.51796875" xlink:href="#m086b1e244e" y="179.4771875"/>
      </g>
     </g>
     <g id="line2d_41">
      <g>
       <use style="stroke:#000000;stroke-width:0.5;" x="525.91796875" xlink:href="#m52b110976c" y="179.4771875"/>
      </g>
     </g>
     <g id="text_13">
      <!-- 0.00005 -->
      <g transform="translate(7.2 183.61625)scale(0.15 -0.15)">
       <use xlink:href="#BitstreamVeraSans-Bold-30"/>
       <use x="69.580078125" xlink:href="#BitstreamVeraSans-Bold-2e"/>
       <use x="107.568359375" xlink:href="#BitstreamVeraSans-Bold-30"/>
       <use x="177.1484375" xlink:href="#BitstreamVeraSans-Bold-30"/>
       <use x="246.728515625" xlink:href="#BitstreamVeraSans-Bold-30"/>
       <use x="316.30859375" xlink:href="#BitstreamVeraSans-Bold-30"/>
       <use x="385.888671875" xlink:href="#BitstreamVeraSans-Bold-35"/>
      </g>
     </g>
    </g>
    <g id="ytick_7">
     <g id="line2d_42">
      <path clip-path="url(#p45a2ab7fc6)" d="M 79.517969 141.077187 
L 525.917969 141.077187 
" style="fill:none;stroke:#000000;stroke-dasharray:1.000000,3.000000;stroke-dashoffset:0.0;stroke-width:0.5;"/>
     </g>
     <g id="line2d_43">
      <g>
       <use style="stroke:#000000;stroke-width:0.5;" x="79.51796875" xlink:href="#m086b1e244e" y="141.0771875"/>
      </g>
     </g>
     <g id="line2d_44">
      <g>
       <use style="stroke:#000000;stroke-width:0.5;" x="525.91796875" xlink:href="#m52b110976c" y="141.0771875"/>
      </g>
     </g>
     <g id="text_14">
      <!-- 0.00006 -->
      <defs>
       <path d="M 36.1875 35.984375 
Q 31.25 35.984375 28.78125 32.78125 
Q 26.3125 29.59375 26.3125 23.1875 
Q 26.3125 16.796875 28.78125 13.59375 
Q 31.25 10.40625 36.1875 10.40625 
Q 41.15625 10.40625 43.625 13.59375 
Q 46.09375 16.796875 46.09375 23.1875 
Q 46.09375 29.59375 43.625 32.78125 
Q 41.15625 35.984375 36.1875 35.984375 
M 59.421875 71 
L 59.421875 57.515625 
Q 54.78125 59.71875 50.671875 60.765625 
Q 46.578125 61.8125 42.671875 61.8125 
Q 34.28125 61.8125 29.59375 57.140625 
Q 24.90625 52.484375 24.125 43.3125 
Q 27.34375 45.703125 31.09375 46.890625 
Q 34.859375 48.09375 39.3125 48.09375 
Q 50.484375 48.09375 57.34375 41.546875 
Q 64.203125 35.015625 64.203125 24.421875 
Q 64.203125 12.703125 56.53125 5.640625 
Q 48.875 -1.421875 35.984375 -1.421875 
Q 21.78125 -1.421875 13.984375 8.171875 
Q 6.203125 17.78125 6.203125 35.40625 
Q 6.203125 53.46875 15.3125 63.796875 
Q 24.421875 74.125 40.28125 74.125 
Q 45.3125 74.125 50.046875 73.34375 
Q 54.78125 72.5625 59.421875 71 
" id="BitstreamVeraSans-Bold-36"/>
      </defs>
      <g transform="translate(7.2 145.21625)scale(0.15 -0.15)">
       <use xlink:href="#BitstreamVeraSans-Bold-30"/>
       <use x="69.580078125" xlink:href="#BitstreamVeraSans-Bold-2e"/>
       <use x="107.568359375" xlink:href="#BitstreamVeraSans-Bold-30"/>
       <use x="177.1484375" xlink:href="#BitstreamVeraSans-Bold-30"/>
       <use x="246.728515625" xlink:href="#BitstreamVeraSans-Bold-30"/>
       <use x="316.30859375" xlink:href="#BitstreamVeraSans-Bold-30"/>
       <use x="385.888671875" xlink:href="#BitstreamVeraSans-Bold-36"/>
      </g>
     </g>
    </g>
    <g id="ytick_8">
     <g id="line2d_45">
      <path clip-path="url(#p45a2ab7fc6)" d="M 79.517969 102.677187 
L 525.917969 102.677187 
" style="fill:none;stroke:#000000;stroke-dasharray:1.000000,3.000000;stroke-dashoffset:0.0;stroke-width:0.5;"/>
     </g>
     <g id="line2d_46">
      <g>
       <use style="stroke:#000000;stroke-width:0.5;" x="79.51796875" xlink:href="#m086b1e244e" y="102.6771875"/>
      </g>
     </g>
     <g id="line2d_47">
      <g>
       <use style="stroke:#000000;stroke-width:0.5;" x="525.91796875" xlink:href="#m52b110976c" y="102.6771875"/>
      </g>
     </g>
     <g id="text_15">
      <!-- 0.00007 -->
      <defs>
       <path d="M 6.6875 72.90625 
L 61.625 72.90625 
L 61.625 62.3125 
L 33.203125 0 
L 14.890625 0 
L 41.796875 59.078125 
L 6.6875 59.078125 
z
" id="BitstreamVeraSans-Bold-37"/>
      </defs>
      <g transform="translate(7.2 106.81625)scale(0.15 -0.15)">
       <use xlink:href="#BitstreamVeraSans-Bold-30"/>
       <use x="69.580078125" xlink:href="#BitstreamVeraSans-Bold-2e"/>
       <use x="107.568359375" xlink:href="#BitstreamVeraSans-Bold-30"/>
       <use x="177.1484375" xlink:href="#BitstreamVeraSans-Bold-30"/>
       <use x="246.728515625" xlink:href="#BitstreamVeraSans-Bold-30"/>
       <use x="316.30859375" xlink:href="#BitstreamVeraSans-Bold-30"/>
       <use x="385.888671875" xlink:href="#BitstreamVeraSans-Bold-37"/>
      </g>
     </g>
    </g>
    <g id="ytick_9">
     <g id="line2d_48">
      <path clip-path="url(#p45a2ab7fc6)" d="M 79.517969 64.277187 
L 525.917969 64.277187 
" style="fill:none;stroke:#000000;stroke-dasharray:1.000000,3.000000;stroke-dashoffset:0.0;stroke-width:0.5;"/>
     </g>
     <g id="line2d_49">
      <g>
       <use style="stroke:#000000;stroke-width:0.5;" x="79.51796875" xlink:href="#m086b1e244e" y="64.2771875"/>
      </g>
     </g>
     <g id="line2d_50">
      <g>
       <use style="stroke:#000000;stroke-width:0.5;" x="525.91796875" xlink:href="#m52b110976c" y="64.2771875"/>
      </g>
     </g>
     <g id="text_16">
      <!-- 0.00008 -->
      <defs>
       <path d="M 34.8125 32.625 
Q 29.546875 32.625 26.703125 29.734375 
Q 23.875 26.859375 23.875 21.484375 
Q 23.875 16.109375 26.703125 13.25 
Q 29.546875 10.40625 34.8125 10.40625 
Q 40.046875 10.40625 42.828125 13.25 
Q 45.609375 16.109375 45.609375 21.484375 
Q 45.609375 26.90625 42.828125 29.765625 
Q 40.046875 32.625 34.8125 32.625 
M 21.09375 38.8125 
Q 14.453125 40.828125 11.078125 44.96875 
Q 7.71875 49.125 7.71875 55.328125 
Q 7.71875 64.546875 14.59375 69.375 
Q 21.484375 74.21875 34.8125 74.21875 
Q 48.046875 74.21875 54.921875 69.40625 
Q 61.8125 64.59375 61.8125 55.328125 
Q 61.8125 49.125 58.421875 44.96875 
Q 55.03125 40.828125 48.390625 38.8125 
Q 55.8125 36.765625 59.59375 32.15625 
Q 63.375 27.546875 63.375 20.515625 
Q 63.375 9.671875 56.171875 4.125 
Q 48.96875 -1.421875 34.8125 -1.421875 
Q 20.609375 -1.421875 13.359375 4.125 
Q 6.109375 9.671875 6.109375 20.515625 
Q 6.109375 27.546875 9.890625 32.15625 
Q 13.671875 36.765625 21.09375 38.8125 
M 25.484375 53.421875 
Q 25.484375 49.078125 27.90625 46.734375 
Q 30.328125 44.390625 34.8125 44.390625 
Q 39.203125 44.390625 41.59375 46.734375 
Q 44 49.078125 44 53.421875 
Q 44 57.765625 41.59375 60.078125 
Q 39.203125 62.40625 34.8125 62.40625 
Q 30.328125 62.40625 27.90625 60.0625 
Q 25.484375 57.71875 25.484375 53.421875 
" id="BitstreamVeraSans-Bold-38"/>
      </defs>
      <g transform="translate(7.2 68.41625)scale(0.15 -0.15)">
       <use xlink:href="#BitstreamVeraSans-Bold-30"/>
       <use x="69.580078125" xlink:href="#BitstreamVeraSans-Bold-2e"/>
       <use x="107.568359375" xlink:href="#BitstreamVeraSans-Bold-30"/>
       <use x="177.1484375" xlink:href="#BitstreamVeraSans-Bold-30"/>
       <use x="246.728515625" xlink:href="#BitstreamVeraSans-Bold-30"/>
       <use x="316.30859375" xlink:href="#BitstreamVeraSans-Bold-30"/>
       <use x="385.888671875" xlink:href="#BitstreamVeraSans-Bold-38"/>
      </g>
     </g>
    </g>
   </g>
   <g id="text_17">
    <!-- Total loss -->
    <defs>
     <path d="M 9.421875 75.984375 
L 18.40625 75.984375 
L 18.40625 0 
L 9.421875 0 
z
" id="BitstreamVeraSans-Roman-6c"/>
     <path d="M 34.28125 27.484375 
Q 23.390625 27.484375 19.1875 25 
Q 14.984375 22.515625 14.984375 16.5 
Q 14.984375 11.71875 18.140625 8.90625 
Q 21.296875 6.109375 26.703125 6.109375 
Q 34.1875 6.109375 38.703125 11.40625 
Q 43.21875 16.703125 43.21875 25.484375 
L 43.21875 27.484375 
z
M 52.203125 31.203125 
L 52.203125 0 
L 43.21875 0 
L 43.21875 8.296875 
Q 40.140625 3.328125 35.546875 0.953125 
Q 30.953125 -1.421875 24.3125 -1.421875 
Q 15.921875 -1.421875 10.953125 3.296875 
Q 6 8.015625 6 15.921875 
Q 6 25.140625 12.171875 29.828125 
Q 18.359375 34.515625 30.609375 34.515625 
L 43.21875 34.515625 
L 43.21875 35.40625 
Q 43.21875 41.609375 39.140625 45 
Q 35.0625 48.390625 27.6875 48.390625 
Q 23 48.390625 18.546875 47.265625 
Q 14.109375 46.140625 10.015625 43.890625 
L 10.015625 52.203125 
Q 14.9375 54.109375 19.578125 55.046875 
Q 24.21875 56 28.609375 56 
Q 40.484375 56 46.34375 49.84375 
Q 52.203125 43.703125 52.203125 31.203125 
" id="BitstreamVeraSans-Roman-61"/>
     <path d="M 44.28125 53.078125 
L 44.28125 44.578125 
Q 40.484375 46.53125 36.375 47.5 
Q 32.28125 48.484375 27.875 48.484375 
Q 21.1875 48.484375 17.84375 46.4375 
Q 14.5 44.390625 14.5 40.28125 
Q 14.5 37.15625 16.890625 35.375 
Q 19.28125 33.59375 26.515625 31.984375 
L 29.59375 31.296875 
Q 39.15625 29.25 43.1875 25.515625 
Q 47.21875 21.78125 47.21875 15.09375 
Q 47.21875 7.46875 41.1875 3.015625 
Q 35.15625 -1.421875 24.609375 -1.421875 
Q 20.21875 -1.421875 15.453125 -0.5625 
Q 10.6875 0.296875 5.421875 2 
L 5.421875 11.28125 
Q 10.40625 8.6875 15.234375 7.390625 
Q 20.0625 6.109375 24.8125 6.109375 
Q 31.15625 6.109375 34.5625 8.28125 
Q 37.984375 10.453125 37.984375 14.40625 
Q 37.984375 18.0625 35.515625 20.015625 
Q 33.0625 21.96875 24.703125 23.78125 
L 21.578125 24.515625 
Q 13.234375 26.265625 9.515625 29.90625 
Q 5.8125 33.546875 5.8125 39.890625 
Q 5.8125 47.609375 11.28125 51.796875 
Q 16.75 56 26.8125 56 
Q 31.78125 56 36.171875 55.265625 
Q 40.578125 54.546875 44.28125 53.078125 
" id="BitstreamVeraSans-Roman-73"/>
     <path d="M 30.609375 48.390625 
Q 23.390625 48.390625 19.1875 42.75 
Q 14.984375 37.109375 14.984375 27.296875 
Q 14.984375 17.484375 19.15625 11.84375 
Q 23.34375 6.203125 30.609375 6.203125 
Q 37.796875 6.203125 41.984375 11.859375 
Q 46.1875 17.53125 46.1875 27.296875 
Q 46.1875 37.015625 41.984375 42.703125 
Q 37.796875 48.390625 30.609375 48.390625 
M 30.609375 56 
Q 42.328125 56 49.015625 48.375 
Q 55.71875 40.765625 55.71875 27.296875 
Q 55.71875 13.875 49.015625 6.21875 
Q 42.328125 -1.421875 30.609375 -1.421875 
Q 18.84375 -1.421875 12.171875 6.21875 
Q 5.515625 13.875 5.515625 27.296875 
Q 5.515625 40.765625 12.171875 48.375 
Q 18.84375 56 30.609375 56 
" id="BitstreamVeraSans-Roman-6f"/>
     <path d="M -0.296875 72.90625 
L 61.375 72.90625 
L 61.375 64.59375 
L 35.5 64.59375 
L 35.5 0 
L 25.59375 0 
L 25.59375 64.59375 
L -0.296875 64.59375 
z
" id="BitstreamVeraSans-Roman-54"/>
     <path id="BitstreamVeraSans-Roman-20"/>
    </defs>
    <g transform="translate(259.9496875 20.8771875)scale(0.18 -0.18)">
     <use xlink:href="#BitstreamVeraSans-Roman-54"/>
     <use x="60.818359375" xlink:href="#BitstreamVeraSans-Roman-6f"/>
     <use x="122.0" xlink:href="#BitstreamVeraSans-Roman-74"/>
     <use x="161.208984375" xlink:href="#BitstreamVeraSans-Roman-61"/>
     <use x="222.48828125" xlink:href="#BitstreamVeraSans-Roman-6c"/>
     <use x="250.271484375" xlink:href="#BitstreamVeraSans-Roman-20"/>
     <use x="282.05859375" xlink:href="#BitstreamVeraSans-Roman-6c"/>
     <use x="309.841796875" xlink:href="#BitstreamVeraSans-Roman-6f"/>
     <use x="371.0234375" xlink:href="#BitstreamVeraSans-Roman-73"/>
     <use x="423.123046875" xlink:href="#BitstreamVeraSans-Roman-73"/>
    </g>
   </g>
  </g>
 </g>
 <defs>
  <clipPath id="p45a2ab7fc6">
   <rect height="345.6" width="446.4" x="79.51796875" y="25.8771875"/>
  </clipPath>
 </defs>
</svg>
