<?xml version="1.0" encoding="utf-8" standalone="no"?>
<!DOCTYPE svg PUBLIC "-//W3C//DTD SVG 1.1//EN"
  "http://www.w3.org/Graphics/SVG/1.1/DTD/svg11.dtd">
<!-- Created with matplotlib (http://matplotlib.org/) -->
<svg height="349pt" version="1.1" viewBox="0 0 429 349" width="429pt" xmlns="http://www.w3.org/2000/svg" xmlns:xlink="http://www.w3.org/1999/xlink">
 <defs>
  <style type="text/css">
*{stroke-linecap:butt;stroke-linejoin:round;}
  </style>
 </defs>
 <g id="figure_1">
  <g id="patch_1">
   <path d="M 0 349.621687 
L 429.230937 349.621687 
L 429.230937 0 
L 0 0 
z
" style="fill:none;"/>
  </g>
  <g id="axes_1">
   <g id="patch_2">
    <path d="M 61.410938 297.54825 
L 418.530938 297.54825 
L 418.530938 31.43625 
L 61.410938 31.43625 
z
" style="fill:none;"/>
   </g>
   <g id="matplotlib.axis_1">
    <g id="xtick_1">
     <g id="line2d_1">
      <path clip-path="url(#pbcf3292bdb)" d="M 74.364326 297.54825 
L 74.364326 31.43625 
" style="fill:none;stroke:#b0b0b0;stroke-linecap:square;stroke-width:0.8;"/>
     </g>
     <g id="line2d_2">
      <defs>
       <path d="M 0 0 
L 0 3.5 
" id="m005f0a59be" style="stroke:#000000;stroke-width:0.8;"/>
      </defs>
      <g>
       <use style="stroke:#000000;stroke-width:0.8;" x="74.364326" xlink:href="#m005f0a59be" y="297.54825"/>
      </g>
     </g>
     <g id="text_1">
      <!-- 0 -->
      <defs>
       <path d="M 31.78125 66.40625 
Q 24.171875 66.40625 20.328125 58.90625 
Q 16.5 51.421875 16.5 36.375 
Q 16.5 21.390625 20.328125 13.890625 
Q 24.171875 6.390625 31.78125 6.390625 
Q 39.453125 6.390625 43.28125 13.890625 
Q 47.125 21.390625 47.125 36.375 
Q 47.125 51.421875 43.28125 58.90625 
Q 39.453125 66.40625 31.78125 66.40625 
z
M 31.78125 74.21875 
Q 44.046875 74.21875 50.515625 64.515625 
Q 56.984375 54.828125 56.984375 36.375 
Q 56.984375 17.96875 50.515625 8.265625 
Q 44.046875 -1.421875 31.78125 -1.421875 
Q 19.53125 -1.421875 13.0625 8.265625 
Q 6.59375 17.96875 6.59375 36.375 
Q 6.59375 54.828125 13.0625 64.515625 
Q 19.53125 74.21875 31.78125 74.21875 
z
" id="DejaVuSans-30"/>
      </defs>
      <g transform="translate(69.592451 315.945906)scale(0.15 -0.15)">
       <use xlink:href="#DejaVuSans-30"/>
      </g>
     </g>
    </g>
    <g id="xtick_2">
     <g id="line2d_3">
      <path clip-path="url(#pbcf3292bdb)" d="M 139.951103 297.54825 
L 139.951103 31.43625 
" style="fill:none;stroke:#b0b0b0;stroke-linecap:square;stroke-width:0.8;"/>
     </g>
     <g id="line2d_4">
      <g>
       <use style="stroke:#000000;stroke-width:0.8;" x="139.951103" xlink:href="#m005f0a59be" y="297.54825"/>
      </g>
     </g>
     <g id="text_2">
      <!-- 2 -->
      <defs>
       <path d="M 19.1875 8.296875 
L 53.609375 8.296875 
L 53.609375 0 
L 7.328125 0 
L 7.328125 8.296875 
Q 12.9375 14.109375 22.625 23.890625 
Q 32.328125 33.6875 34.8125 36.53125 
Q 39.546875 41.84375 41.421875 45.53125 
Q 43.3125 49.21875 43.3125 52.78125 
Q 43.3125 58.59375 39.234375 62.25 
Q 35.15625 65.921875 28.609375 65.921875 
Q 23.96875 65.921875 18.8125 64.3125 
Q 13.671875 62.703125 7.8125 59.421875 
L 7.8125 69.390625 
Q 13.765625 71.78125 18.9375 73 
Q 24.125 74.21875 28.421875 74.21875 
Q 39.75 74.21875 46.484375 68.546875 
Q 53.21875 62.890625 53.21875 53.421875 
Q 53.21875 48.921875 51.53125 44.890625 
Q 49.859375 40.875 45.40625 35.40625 
Q 44.1875 33.984375 37.640625 27.21875 
Q 31.109375 20.453125 19.1875 8.296875 
z
" id="DejaVuSans-32"/>
      </defs>
      <g transform="translate(135.179228 315.945906)scale(0.15 -0.15)">
       <use xlink:href="#DejaVuSans-32"/>
      </g>
     </g>
    </g>
    <g id="xtick_3">
     <g id="line2d_5">
      <path clip-path="url(#pbcf3292bdb)" d="M 205.53788 297.54825 
L 205.53788 31.43625 
" style="fill:none;stroke:#b0b0b0;stroke-linecap:square;stroke-width:0.8;"/>
     </g>
     <g id="line2d_6">
      <g>
       <use style="stroke:#000000;stroke-width:0.8;" x="205.53788" xlink:href="#m005f0a59be" y="297.54825"/>
      </g>
     </g>
     <g id="text_3">
      <!-- 4 -->
      <defs>
       <path d="M 37.796875 64.3125 
L 12.890625 25.390625 
L 37.796875 25.390625 
z
M 35.203125 72.90625 
L 47.609375 72.90625 
L 47.609375 25.390625 
L 58.015625 25.390625 
L 58.015625 17.1875 
L 47.609375 17.1875 
L 47.609375 0 
L 37.796875 0 
L 37.796875 17.1875 
L 4.890625 17.1875 
L 4.890625 26.703125 
z
" id="DejaVuSans-34"/>
      </defs>
      <g transform="translate(200.766005 315.945906)scale(0.15 -0.15)">
       <use xlink:href="#DejaVuSans-34"/>
      </g>
     </g>
    </g>
    <g id="xtick_4">
     <g id="line2d_7">
      <path clip-path="url(#pbcf3292bdb)" d="M 271.124657 297.54825 
L 271.124657 31.43625 
" style="fill:none;stroke:#b0b0b0;stroke-linecap:square;stroke-width:0.8;"/>
     </g>
     <g id="line2d_8">
      <g>
       <use style="stroke:#000000;stroke-width:0.8;" x="271.124657" xlink:href="#m005f0a59be" y="297.54825"/>
      </g>
     </g>
     <g id="text_4">
      <!-- 6 -->
      <defs>
       <path d="M 33.015625 40.375 
Q 26.375 40.375 22.484375 35.828125 
Q 18.609375 31.296875 18.609375 23.390625 
Q 18.609375 15.53125 22.484375 10.953125 
Q 26.375 6.390625 33.015625 6.390625 
Q 39.65625 6.390625 43.53125 10.953125 
Q 47.40625 15.53125 47.40625 23.390625 
Q 47.40625 31.296875 43.53125 35.828125 
Q 39.65625 40.375 33.015625 40.375 
z
M 52.59375 71.296875 
L 52.59375 62.3125 
Q 48.875 64.0625 45.09375 64.984375 
Q 41.3125 65.921875 37.59375 65.921875 
Q 27.828125 65.921875 22.671875 59.328125 
Q 17.53125 52.734375 16.796875 39.40625 
Q 19.671875 43.65625 24.015625 45.921875 
Q 28.375 48.1875 33.59375 48.1875 
Q 44.578125 48.1875 50.953125 41.515625 
Q 57.328125 34.859375 57.328125 23.390625 
Q 57.328125 12.15625 50.6875 5.359375 
Q 44.046875 -1.421875 33.015625 -1.421875 
Q 20.359375 -1.421875 13.671875 8.265625 
Q 6.984375 17.96875 6.984375 36.375 
Q 6.984375 53.65625 15.1875 63.9375 
Q 23.390625 74.21875 37.203125 74.21875 
Q 40.921875 74.21875 44.703125 73.484375 
Q 48.484375 72.75 52.59375 71.296875 
z
" id="DejaVuSans-36"/>
      </defs>
      <g transform="translate(266.352782 315.945906)scale(0.15 -0.15)">
       <use xlink:href="#DejaVuSans-36"/>
      </g>
     </g>
    </g>
    <g id="xtick_5">
     <g id="line2d_9">
      <path clip-path="url(#pbcf3292bdb)" d="M 336.711433 297.54825 
L 336.711433 31.43625 
" style="fill:none;stroke:#b0b0b0;stroke-linecap:square;stroke-width:0.8;"/>
     </g>
     <g id="line2d_10">
      <g>
       <use style="stroke:#000000;stroke-width:0.8;" x="336.711433" xlink:href="#m005f0a59be" y="297.54825"/>
      </g>
     </g>
     <g id="text_5">
      <!-- 8 -->
      <defs>
       <path d="M 31.78125 34.625 
Q 24.75 34.625 20.71875 30.859375 
Q 16.703125 27.09375 16.703125 20.515625 
Q 16.703125 13.921875 20.71875 10.15625 
Q 24.75 6.390625 31.78125 6.390625 
Q 38.8125 6.390625 42.859375 10.171875 
Q 46.921875 13.96875 46.921875 20.515625 
Q 46.921875 27.09375 42.890625 30.859375 
Q 38.875 34.625 31.78125 34.625 
z
M 21.921875 38.8125 
Q 15.578125 40.375 12.03125 44.71875 
Q 8.5 49.078125 8.5 55.328125 
Q 8.5 64.0625 14.71875 69.140625 
Q 20.953125 74.21875 31.78125 74.21875 
Q 42.671875 74.21875 48.875 69.140625 
Q 55.078125 64.0625 55.078125 55.328125 
Q 55.078125 49.078125 51.53125 44.71875 
Q 48 40.375 41.703125 38.8125 
Q 48.828125 37.15625 52.796875 32.3125 
Q 56.78125 27.484375 56.78125 20.515625 
Q 56.78125 9.90625 50.3125 4.234375 
Q 43.84375 -1.421875 31.78125 -1.421875 
Q 19.734375 -1.421875 13.25 4.234375 
Q 6.78125 9.90625 6.78125 20.515625 
Q 6.78125 27.484375 10.78125 32.3125 
Q 14.796875 37.15625 21.921875 38.8125 
z
M 18.3125 54.390625 
Q 18.3125 48.734375 21.84375 45.5625 
Q 25.390625 42.390625 31.78125 42.390625 
Q 38.140625 42.390625 41.71875 45.5625 
Q 45.3125 48.734375 45.3125 54.390625 
Q 45.3125 60.0625 41.71875 63.234375 
Q 38.140625 66.40625 31.78125 66.40625 
Q 25.390625 66.40625 21.84375 63.234375 
Q 18.3125 60.0625 18.3125 54.390625 
z
" id="DejaVuSans-38"/>
      </defs>
      <g transform="translate(331.939558 315.945906)scale(0.15 -0.15)">
       <use xlink:href="#DejaVuSans-38"/>
      </g>
     </g>
    </g>
    <g id="xtick_6">
     <g id="line2d_11">
      <path clip-path="url(#pbcf3292bdb)" d="M 402.29821 297.54825 
L 402.29821 31.43625 
" style="fill:none;stroke:#b0b0b0;stroke-linecap:square;stroke-width:0.8;"/>
     </g>
     <g id="line2d_12">
      <g>
       <use style="stroke:#000000;stroke-width:0.8;" x="402.29821" xlink:href="#m005f0a59be" y="297.54825"/>
      </g>
     </g>
     <g id="text_6">
      <!-- 10 -->
      <defs>
       <path d="M 12.40625 8.296875 
L 28.515625 8.296875 
L 28.515625 63.921875 
L 10.984375 60.40625 
L 10.984375 69.390625 
L 28.421875 72.90625 
L 38.28125 72.90625 
L 38.28125 8.296875 
L 54.390625 8.296875 
L 54.390625 0 
L 12.40625 0 
z
" id="DejaVuSans-31"/>
      </defs>
      <g transform="translate(392.75446 315.945906)scale(0.15 -0.15)">
       <use xlink:href="#DejaVuSans-31"/>
       <use x="63.623047" xlink:href="#DejaVuSans-30"/>
      </g>
     </g>
    </g>
    <g id="text_7">
     <!-- TMerge (ms) -->
     <defs>
      <path d="M -0.296875 72.90625 
L 61.375 72.90625 
L 61.375 64.59375 
L 35.5 64.59375 
L 35.5 0 
L 25.59375 0 
L 25.59375 64.59375 
L -0.296875 64.59375 
z
" id="DejaVuSans-54"/>
      <path d="M 9.8125 72.90625 
L 24.515625 72.90625 
L 43.109375 23.296875 
L 61.8125 72.90625 
L 76.515625 72.90625 
L 76.515625 0 
L 66.890625 0 
L 66.890625 64.015625 
L 48.09375 14.015625 
L 38.1875 14.015625 
L 19.390625 64.015625 
L 19.390625 0 
L 9.8125 0 
z
" id="DejaVuSans-4d"/>
      <path d="M 56.203125 29.59375 
L 56.203125 25.203125 
L 14.890625 25.203125 
Q 15.484375 15.921875 20.484375 11.0625 
Q 25.484375 6.203125 34.421875 6.203125 
Q 39.59375 6.203125 44.453125 7.46875 
Q 49.3125 8.734375 54.109375 11.28125 
L 54.109375 2.78125 
Q 49.265625 0.734375 44.1875 -0.34375 
Q 39.109375 -1.421875 33.890625 -1.421875 
Q 20.796875 -1.421875 13.15625 6.1875 
Q 5.515625 13.8125 5.515625 26.8125 
Q 5.515625 40.234375 12.765625 48.109375 
Q 20.015625 56 32.328125 56 
Q 43.359375 56 49.78125 48.890625 
Q 56.203125 41.796875 56.203125 29.59375 
z
M 47.21875 32.234375 
Q 47.125 39.59375 43.09375 43.984375 
Q 39.0625 48.390625 32.421875 48.390625 
Q 24.90625 48.390625 20.390625 44.140625 
Q 15.875 39.890625 15.1875 32.171875 
z
" id="DejaVuSans-65"/>
      <path d="M 41.109375 46.296875 
Q 39.59375 47.171875 37.8125 47.578125 
Q 36.03125 48 33.890625 48 
Q 26.265625 48 22.1875 43.046875 
Q 18.109375 38.09375 18.109375 28.8125 
L 18.109375 0 
L 9.078125 0 
L 9.078125 54.6875 
L 18.109375 54.6875 
L 18.109375 46.1875 
Q 20.953125 51.171875 25.484375 53.578125 
Q 30.03125 56 36.53125 56 
Q 37.453125 56 38.578125 55.875 
Q 39.703125 55.765625 41.0625 55.515625 
z
" id="DejaVuSans-72"/>
      <path d="M 45.40625 27.984375 
Q 45.40625 37.75 41.375 43.109375 
Q 37.359375 48.484375 30.078125 48.484375 
Q 22.859375 48.484375 18.828125 43.109375 
Q 14.796875 37.75 14.796875 27.984375 
Q 14.796875 18.265625 18.828125 12.890625 
Q 22.859375 7.515625 30.078125 7.515625 
Q 37.359375 7.515625 41.375 12.890625 
Q 45.40625 18.265625 45.40625 27.984375 
z
M 54.390625 6.78125 
Q 54.390625 -7.171875 48.1875 -13.984375 
Q 42 -20.796875 29.203125 -20.796875 
Q 24.46875 -20.796875 20.265625 -20.09375 
Q 16.0625 -19.390625 12.109375 -17.921875 
L 12.109375 -9.1875 
Q 16.0625 -11.328125 19.921875 -12.34375 
Q 23.78125 -13.375 27.78125 -13.375 
Q 36.625 -13.375 41.015625 -8.765625 
Q 45.40625 -4.15625 45.40625 5.171875 
L 45.40625 9.625 
Q 42.625 4.78125 38.28125 2.390625 
Q 33.9375 0 27.875 0 
Q 17.828125 0 11.671875 7.65625 
Q 5.515625 15.328125 5.515625 27.984375 
Q 5.515625 40.671875 11.671875 48.328125 
Q 17.828125 56 27.875 56 
Q 33.9375 56 38.28125 53.609375 
Q 42.625 51.21875 45.40625 46.390625 
L 45.40625 54.6875 
L 54.390625 54.6875 
z
" id="DejaVuSans-67"/>
      <path id="DejaVuSans-20"/>
      <path d="M 31 75.875 
Q 24.46875 64.65625 21.28125 53.65625 
Q 18.109375 42.671875 18.109375 31.390625 
Q 18.109375 20.125 21.3125 9.0625 
Q 24.515625 -2 31 -13.1875 
L 23.1875 -13.1875 
Q 15.875 -1.703125 12.234375 9.375 
Q 8.59375 20.453125 8.59375 31.390625 
Q 8.59375 42.28125 12.203125 53.3125 
Q 15.828125 64.359375 23.1875 75.875 
z
" id="DejaVuSans-28"/>
      <path d="M 52 44.1875 
Q 55.375 50.25 60.0625 53.125 
Q 64.75 56 71.09375 56 
Q 79.640625 56 84.28125 50.015625 
Q 88.921875 44.046875 88.921875 33.015625 
L 88.921875 0 
L 79.890625 0 
L 79.890625 32.71875 
Q 79.890625 40.578125 77.09375 44.375 
Q 74.3125 48.1875 68.609375 48.1875 
Q 61.625 48.1875 57.5625 43.546875 
Q 53.515625 38.921875 53.515625 30.90625 
L 53.515625 0 
L 44.484375 0 
L 44.484375 32.71875 
Q 44.484375 40.625 41.703125 44.40625 
Q 38.921875 48.1875 33.109375 48.1875 
Q 26.21875 48.1875 22.15625 43.53125 
Q 18.109375 38.875 18.109375 30.90625 
L 18.109375 0 
L 9.078125 0 
L 9.078125 54.6875 
L 18.109375 54.6875 
L 18.109375 46.1875 
Q 21.1875 51.21875 25.484375 53.609375 
Q 29.78125 56 35.6875 56 
Q 41.65625 56 45.828125 52.96875 
Q 50 49.953125 52 44.1875 
z
" id="DejaVuSans-6d"/>
      <path d="M 44.28125 53.078125 
L 44.28125 44.578125 
Q 40.484375 46.53125 36.375 47.5 
Q 32.28125 48.484375 27.875 48.484375 
Q 21.1875 48.484375 17.84375 46.4375 
Q 14.5 44.390625 14.5 40.28125 
Q 14.5 37.15625 16.890625 35.375 
Q 19.28125 33.59375 26.515625 31.984375 
L 29.59375 31.296875 
Q 39.15625 29.25 43.1875 25.515625 
Q 47.21875 21.78125 47.21875 15.09375 
Q 47.21875 7.46875 41.1875 3.015625 
Q 35.15625 -1.421875 24.609375 -1.421875 
Q 20.21875 -1.421875 15.453125 -0.5625 
Q 10.6875 0.296875 5.421875 2 
L 5.421875 11.28125 
Q 10.40625 8.6875 15.234375 7.390625 
Q 20.0625 6.109375 24.8125 6.109375 
Q 31.15625 6.109375 34.5625 8.28125 
Q 37.984375 10.453125 37.984375 14.40625 
Q 37.984375 18.0625 35.515625 20.015625 
Q 33.0625 21.96875 24.703125 23.78125 
L 21.578125 24.515625 
Q 13.234375 26.265625 9.515625 29.90625 
Q 5.8125 33.546875 5.8125 39.890625 
Q 5.8125 47.609375 11.28125 51.796875 
Q 16.75 56 26.8125 56 
Q 31.78125 56 36.171875 55.265625 
Q 40.578125 54.546875 44.28125 53.078125 
z
" id="DejaVuSans-73"/>
      <path d="M 8.015625 75.875 
L 15.828125 75.875 
Q 23.140625 64.359375 26.78125 53.3125 
Q 30.421875 42.28125 30.421875 31.390625 
Q 30.421875 20.453125 26.78125 9.375 
Q 23.140625 -1.703125 15.828125 -13.1875 
L 8.015625 -13.1875 
Q 14.5 -2 17.703125 9.0625 
Q 20.90625 20.125 20.90625 31.390625 
Q 20.90625 42.671875 17.703125 53.65625 
Q 14.5 64.65625 8.015625 75.875 
z
" id="DejaVuSans-29"/>
     </defs>
     <g transform="translate(176.539688 338.262312)scale(0.2 -0.2)">
      <use xlink:href="#DejaVuSans-54"/>
      <use x="61.083984" xlink:href="#DejaVuSans-4d"/>
      <use x="147.363281" xlink:href="#DejaVuSans-65"/>
      <use x="208.886719" xlink:href="#DejaVuSans-72"/>
      <use x="249.984375" xlink:href="#DejaVuSans-67"/>
      <use x="313.460938" xlink:href="#DejaVuSans-65"/>
      <use x="374.984375" xlink:href="#DejaVuSans-20"/>
      <use x="406.771484" xlink:href="#DejaVuSans-28"/>
      <use x="445.785156" xlink:href="#DejaVuSans-6d"/>
      <use x="543.197266" xlink:href="#DejaVuSans-73"/>
      <use x="595.296875" xlink:href="#DejaVuSans-29"/>
     </g>
    </g>
   </g>
   <g id="matplotlib.axis_2">
    <g id="ytick_1">
     <g id="line2d_13">
      <path clip-path="url(#pbcf3292bdb)" d="M 61.410938 297.54825 
L 418.530938 297.54825 
" style="fill:none;stroke:#b0b0b0;stroke-linecap:square;stroke-width:0.8;"/>
     </g>
     <g id="line2d_14">
      <defs>
       <path d="M 0 0 
L -3.5 0 
" id="mc3ce260a5b" style="stroke:#000000;stroke-width:0.8;"/>
      </defs>
      <g>
       <use style="stroke:#000000;stroke-width:0.8;" x="61.410938" xlink:href="#mc3ce260a5b" y="297.54825"/>
      </g>
     </g>
     <g id="text_8">
      <!-- 0.0 -->
      <defs>
       <path d="M 10.6875 12.40625 
L 21 12.40625 
L 21 0 
L 10.6875 0 
z
" id="DejaVuSans-2e"/>
      </defs>
      <g transform="translate(30.55625 303.247078)scale(0.15 -0.15)">
       <use xlink:href="#DejaVuSans-30"/>
       <use x="63.623047" xlink:href="#DejaVuSans-2e"/>
       <use x="95.410156" xlink:href="#DejaVuSans-30"/>
      </g>
     </g>
    </g>
    <g id="ytick_2">
     <g id="line2d_15">
      <path clip-path="url(#pbcf3292bdb)" d="M 61.410938 253.19625 
L 418.530938 253.19625 
" style="fill:none;stroke:#b0b0b0;stroke-linecap:square;stroke-width:0.8;"/>
     </g>
     <g id="line2d_16">
      <g>
       <use style="stroke:#000000;stroke-width:0.8;" x="61.410938" xlink:href="#mc3ce260a5b" y="253.19625"/>
      </g>
     </g>
     <g id="text_9">
      <!-- 0.1 -->
      <g transform="translate(30.55625 258.895078)scale(0.15 -0.15)">
       <use xlink:href="#DejaVuSans-30"/>
       <use x="63.623047" xlink:href="#DejaVuSans-2e"/>
       <use x="95.410156" xlink:href="#DejaVuSans-31"/>
      </g>
     </g>
    </g>
    <g id="ytick_3">
     <g id="line2d_17">
      <path clip-path="url(#pbcf3292bdb)" d="M 61.410938 208.84425 
L 418.530938 208.84425 
" style="fill:none;stroke:#b0b0b0;stroke-linecap:square;stroke-width:0.8;"/>
     </g>
     <g id="line2d_18">
      <g>
       <use style="stroke:#000000;stroke-width:0.8;" x="61.410938" xlink:href="#mc3ce260a5b" y="208.84425"/>
      </g>
     </g>
     <g id="text_10">
      <!-- 0.2 -->
      <g transform="translate(30.55625 214.543078)scale(0.15 -0.15)">
       <use xlink:href="#DejaVuSans-30"/>
       <use x="63.623047" xlink:href="#DejaVuSans-2e"/>
       <use x="95.410156" xlink:href="#DejaVuSans-32"/>
      </g>
     </g>
    </g>
    <g id="ytick_4">
     <g id="line2d_19">
      <path clip-path="url(#pbcf3292bdb)" d="M 61.410938 164.49225 
L 418.530938 164.49225 
" style="fill:none;stroke:#b0b0b0;stroke-linecap:square;stroke-width:0.8;"/>
     </g>
     <g id="line2d_20">
      <g>
       <use style="stroke:#000000;stroke-width:0.8;" x="61.410938" xlink:href="#mc3ce260a5b" y="164.49225"/>
      </g>
     </g>
     <g id="text_11">
      <!-- 0.3 -->
      <defs>
       <path d="M 40.578125 39.3125 
Q 47.65625 37.796875 51.625 33 
Q 55.609375 28.21875 55.609375 21.1875 
Q 55.609375 10.40625 48.1875 4.484375 
Q 40.765625 -1.421875 27.09375 -1.421875 
Q 22.515625 -1.421875 17.65625 -0.515625 
Q 12.796875 0.390625 7.625 2.203125 
L 7.625 11.71875 
Q 11.71875 9.328125 16.59375 8.109375 
Q 21.484375 6.890625 26.8125 6.890625 
Q 36.078125 6.890625 40.9375 10.546875 
Q 45.796875 14.203125 45.796875 21.1875 
Q 45.796875 27.640625 41.28125 31.265625 
Q 36.765625 34.90625 28.71875 34.90625 
L 20.21875 34.90625 
L 20.21875 43.015625 
L 29.109375 43.015625 
Q 36.375 43.015625 40.234375 45.921875 
Q 44.09375 48.828125 44.09375 54.296875 
Q 44.09375 59.90625 40.109375 62.90625 
Q 36.140625 65.921875 28.71875 65.921875 
Q 24.65625 65.921875 20.015625 65.03125 
Q 15.375 64.15625 9.8125 62.3125 
L 9.8125 71.09375 
Q 15.4375 72.65625 20.34375 73.4375 
Q 25.25 74.21875 29.59375 74.21875 
Q 40.828125 74.21875 47.359375 69.109375 
Q 53.90625 64.015625 53.90625 55.328125 
Q 53.90625 49.265625 50.4375 45.09375 
Q 46.96875 40.921875 40.578125 39.3125 
z
" id="DejaVuSans-33"/>
      </defs>
      <g transform="translate(30.55625 170.191078)scale(0.15 -0.15)">
       <use xlink:href="#DejaVuSans-30"/>
       <use x="63.623047" xlink:href="#DejaVuSans-2e"/>
       <use x="95.410156" xlink:href="#DejaVuSans-33"/>
      </g>
     </g>
    </g>
    <g id="ytick_5">
     <g id="line2d_21">
      <path clip-path="url(#pbcf3292bdb)" d="M 61.410938 120.14025 
L 418.530938 120.14025 
" style="fill:none;stroke:#b0b0b0;stroke-linecap:square;stroke-width:0.8;"/>
     </g>
     <g id="line2d_22">
      <g>
       <use style="stroke:#000000;stroke-width:0.8;" x="61.410938" xlink:href="#mc3ce260a5b" y="120.14025"/>
      </g>
     </g>
     <g id="text_12">
      <!-- 0.4 -->
      <g transform="translate(30.55625 125.839078)scale(0.15 -0.15)">
       <use xlink:href="#DejaVuSans-30"/>
       <use x="63.623047" xlink:href="#DejaVuSans-2e"/>
       <use x="95.410156" xlink:href="#DejaVuSans-34"/>
      </g>
     </g>
    </g>
    <g id="ytick_6">
     <g id="line2d_23">
      <path clip-path="url(#pbcf3292bdb)" d="M 61.410938 75.78825 
L 418.530938 75.78825 
" style="fill:none;stroke:#b0b0b0;stroke-linecap:square;stroke-width:0.8;"/>
     </g>
     <g id="line2d_24">
      <g>
       <use style="stroke:#000000;stroke-width:0.8;" x="61.410938" xlink:href="#mc3ce260a5b" y="75.78825"/>
      </g>
     </g>
     <g id="text_13">
      <!-- 0.5 -->
      <defs>
       <path d="M 10.796875 72.90625 
L 49.515625 72.90625 
L 49.515625 64.59375 
L 19.828125 64.59375 
L 19.828125 46.734375 
Q 21.96875 47.46875 24.109375 47.828125 
Q 26.265625 48.1875 28.421875 48.1875 
Q 40.625 48.1875 47.75 41.5 
Q 54.890625 34.8125 54.890625 23.390625 
Q 54.890625 11.625 47.5625 5.09375 
Q 40.234375 -1.421875 26.90625 -1.421875 
Q 22.3125 -1.421875 17.546875 -0.640625 
Q 12.796875 0.140625 7.71875 1.703125 
L 7.71875 11.625 
Q 12.109375 9.234375 16.796875 8.0625 
Q 21.484375 6.890625 26.703125 6.890625 
Q 35.15625 6.890625 40.078125 11.328125 
Q 45.015625 15.765625 45.015625 23.390625 
Q 45.015625 31 40.078125 35.4375 
Q 35.15625 39.890625 26.703125 39.890625 
Q 22.75 39.890625 18.8125 39.015625 
Q 14.890625 38.140625 10.796875 36.28125 
z
" id="DejaVuSans-35"/>
      </defs>
      <g transform="translate(30.55625 81.487078)scale(0.15 -0.15)">
       <use xlink:href="#DejaVuSans-30"/>
       <use x="63.623047" xlink:href="#DejaVuSans-2e"/>
       <use x="95.410156" xlink:href="#DejaVuSans-35"/>
      </g>
     </g>
    </g>
    <g id="ytick_7">
     <g id="line2d_25">
      <path clip-path="url(#pbcf3292bdb)" d="M 61.410938 31.43625 
L 418.530938 31.43625 
" style="fill:none;stroke:#b0b0b0;stroke-linecap:square;stroke-width:0.8;"/>
     </g>
     <g id="line2d_26">
      <g>
       <use style="stroke:#000000;stroke-width:0.8;" x="61.410938" xlink:href="#mc3ce260a5b" y="31.43625"/>
      </g>
     </g>
     <g id="text_14">
      <!-- 0.6 -->
      <g transform="translate(30.55625 37.135078)scale(0.15 -0.15)">
       <use xlink:href="#DejaVuSans-30"/>
       <use x="63.623047" xlink:href="#DejaVuSans-2e"/>
       <use x="95.410156" xlink:href="#DejaVuSans-36"/>
      </g>
     </g>
    </g>
    <g id="text_15">
     <!-- Survival -->
     <defs>
      <path d="M 53.515625 70.515625 
L 53.515625 60.890625 
Q 47.90625 63.578125 42.921875 64.890625 
Q 37.9375 66.21875 33.296875 66.21875 
Q 25.25 66.21875 20.875 63.09375 
Q 16.5 59.96875 16.5 54.203125 
Q 16.5 49.359375 19.40625 46.890625 
Q 22.3125 44.4375 30.421875 42.921875 
L 36.375 41.703125 
Q 47.40625 39.59375 52.65625 34.296875 
Q 57.90625 29 57.90625 20.125 
Q 57.90625 9.515625 50.796875 4.046875 
Q 43.703125 -1.421875 29.984375 -1.421875 
Q 24.8125 -1.421875 18.96875 -0.25 
Q 13.140625 0.921875 6.890625 3.21875 
L 6.890625 13.375 
Q 12.890625 10.015625 18.65625 8.296875 
Q 24.421875 6.59375 29.984375 6.59375 
Q 38.421875 6.59375 43.015625 9.90625 
Q 47.609375 13.234375 47.609375 19.390625 
Q 47.609375 24.75 44.3125 27.78125 
Q 41.015625 30.8125 33.5 32.328125 
L 27.484375 33.5 
Q 16.453125 35.6875 11.515625 40.375 
Q 6.59375 45.0625 6.59375 53.421875 
Q 6.59375 63.09375 13.40625 68.65625 
Q 20.21875 74.21875 32.171875 74.21875 
Q 37.3125 74.21875 42.625 73.28125 
Q 47.953125 72.359375 53.515625 70.515625 
z
" id="DejaVuSans-53"/>
      <path d="M 8.5 21.578125 
L 8.5 54.6875 
L 17.484375 54.6875 
L 17.484375 21.921875 
Q 17.484375 14.15625 20.5 10.265625 
Q 23.53125 6.390625 29.59375 6.390625 
Q 36.859375 6.390625 41.078125 11.03125 
Q 45.3125 15.671875 45.3125 23.6875 
L 45.3125 54.6875 
L 54.296875 54.6875 
L 54.296875 0 
L 45.3125 0 
L 45.3125 8.40625 
Q 42.046875 3.421875 37.71875 1 
Q 33.40625 -1.421875 27.6875 -1.421875 
Q 18.265625 -1.421875 13.375 4.4375 
Q 8.5 10.296875 8.5 21.578125 
z
M 31.109375 56 
z
" id="DejaVuSans-75"/>
      <path d="M 2.984375 54.6875 
L 12.5 54.6875 
L 29.59375 8.796875 
L 46.6875 54.6875 
L 56.203125 54.6875 
L 35.6875 0 
L 23.484375 0 
z
" id="DejaVuSans-76"/>
      <path d="M 9.421875 54.6875 
L 18.40625 54.6875 
L 18.40625 0 
L 9.421875 0 
z
M 9.421875 75.984375 
L 18.40625 75.984375 
L 18.40625 64.59375 
L 9.421875 64.59375 
z
" id="DejaVuSans-69"/>
      <path d="M 34.28125 27.484375 
Q 23.390625 27.484375 19.1875 25 
Q 14.984375 22.515625 14.984375 16.5 
Q 14.984375 11.71875 18.140625 8.90625 
Q 21.296875 6.109375 26.703125 6.109375 
Q 34.1875 6.109375 38.703125 11.40625 
Q 43.21875 16.703125 43.21875 25.484375 
L 43.21875 27.484375 
z
M 52.203125 31.203125 
L 52.203125 0 
L 43.21875 0 
L 43.21875 8.296875 
Q 40.140625 3.328125 35.546875 0.953125 
Q 30.953125 -1.421875 24.3125 -1.421875 
Q 15.921875 -1.421875 10.953125 3.296875 
Q 6 8.015625 6 15.921875 
Q 6 25.140625 12.171875 29.828125 
Q 18.359375 34.515625 30.609375 34.515625 
L 43.21875 34.515625 
L 43.21875 35.40625 
Q 43.21875 41.609375 39.140625 45 
Q 35.0625 48.390625 27.6875 48.390625 
Q 23 48.390625 18.546875 47.265625 
Q 14.109375 46.140625 10.015625 43.890625 
L 10.015625 52.203125 
Q 14.9375 54.109375 19.578125 55.046875 
Q 24.21875 56 28.609375 56 
Q 40.484375 56 46.34375 49.84375 
Q 52.203125 43.703125 52.203125 31.203125 
z
" id="DejaVuSans-61"/>
      <path d="M 9.421875 75.984375 
L 18.40625 75.984375 
L 18.40625 0 
L 9.421875 0 
z
" id="DejaVuSans-6c"/>
     </defs>
     <g transform="translate(22.396875 204.811)rotate(-90)scale(0.2 -0.2)">
      <use xlink:href="#DejaVuSans-53"/>
      <use x="63.476562" xlink:href="#DejaVuSans-75"/>
      <use x="126.855469" xlink:href="#DejaVuSans-72"/>
      <use x="167.96875" xlink:href="#DejaVuSans-76"/>
      <use x="227.148438" xlink:href="#DejaVuSans-69"/>
      <use x="254.931641" xlink:href="#DejaVuSans-76"/>
      <use x="314.111328" xlink:href="#DejaVuSans-61"/>
      <use x="375.390625" xlink:href="#DejaVuSans-6c"/>
     </g>
    </g>
   </g>
   <g id="LineCollection_1">
    <path clip-path="url(#pbcf3292bdb)" d="M 77.643665 266.382269 
L 77.643665 239.066572 
" style="fill:none;stroke:#1f77b4;stroke-width:1.5;"/>
    <path clip-path="url(#pbcf3292bdb)" d="M 80.923004 276.456708 
L 80.923004 254.049501 
" style="fill:none;stroke:#1f77b4;stroke-width:1.5;"/>
    <path clip-path="url(#pbcf3292bdb)" d="M 90.76102 263.413321 
L 90.76102 235.663385 
" style="fill:none;stroke:#1f77b4;stroke-width:1.5;"/>
    <path clip-path="url(#pbcf3292bdb)" d="M 100.599037 280.254079 
L 100.599037 256.762421 
" style="fill:none;stroke:#1f77b4;stroke-width:1.5;"/>
    <path clip-path="url(#pbcf3292bdb)" d="M 107.157714 204.060718 
L 107.157714 164.655782 
" style="fill:none;stroke:#1f77b4;stroke-width:1.5;"/>
    <path clip-path="url(#pbcf3292bdb)" d="M 108.703219 278.510474 
L 108.703219 255.893816 
" style="fill:none;stroke:#1f77b4;stroke-width:1.5;"/>
    <path clip-path="url(#pbcf3292bdb)" d="M 110.321561 280.520686 
L 110.321561 260.181851 
" style="fill:none;stroke:#1f77b4;stroke-width:1.5;"/>
    <path clip-path="url(#pbcf3292bdb)" d="M 112.016174 292.43061 
L 112.016174 277.46589 
" style="fill:none;stroke:#1f77b4;stroke-width:1.5;"/>
    <path clip-path="url(#pbcf3292bdb)" d="M 113.790651 271.487293 
L 113.790651 248.369207 
" style="fill:none;stroke:#1f77b4;stroke-width:1.5;"/>
    <path clip-path="url(#pbcf3292bdb)" d="M 115.648756 276.456708 
L 115.648756 254.049501 
" style="fill:none;stroke:#1f77b4;stroke-width:1.5;"/>
    <path clip-path="url(#pbcf3292bdb)" d="M 117.594431 255.741469 
L 117.594431 227.438769 
" style="fill:none;stroke:#1f77b4;stroke-width:1.5;"/>
    <path clip-path="url(#pbcf3292bdb)" d="M 119.631803 259.010662 
L 119.631803 229.825838 
" style="fill:none;stroke:#1f77b4;stroke-width:1.5;"/>
    <path clip-path="url(#pbcf3292bdb)" d="M 121.765194 286.444872 
L 121.765194 268.331628 
" style="fill:none;stroke:#1f77b4;stroke-width:1.5;"/>
    <path clip-path="url(#pbcf3292bdb)" d="M 123.999128 275.811548 
L 123.999128 252.756952 
" style="fill:none;stroke:#1f77b4;stroke-width:1.5;"/>
    <path clip-path="url(#pbcf3292bdb)" d="M 126.338344 289.32375 
L 126.338344 272.389524 
" style="fill:none;stroke:#1f77b4;stroke-width:1.5;"/>
    <path clip-path="url(#pbcf3292bdb)" d="M 128.787804 273.343527 
L 128.787804 247.832973 
" style="fill:none;stroke:#1f77b4;stroke-width:1.5;"/>
    <path clip-path="url(#pbcf3292bdb)" d="M 131.352704 254.474749 
L 131.352704 223.905962 
" style="fill:none;stroke:#1f77b4;stroke-width:1.5;"/>
    <path clip-path="url(#pbcf3292bdb)" d="M 134.038483 268.588448 
L 134.038483 243.073596 
" style="fill:none;stroke:#1f77b4;stroke-width:1.5;"/>
    <path clip-path="url(#pbcf3292bdb)" d="M 136.850839 272.336214 
L 136.850839 248.108404 
" style="fill:none;stroke:#1f77b4;stroke-width:1.5;"/>
    <path clip-path="url(#pbcf3292bdb)" d="M 139.795738 267.99065 
L 139.795738 241.98585 
" style="fill:none;stroke:#1f77b4;stroke-width:1.5;"/>
    <path clip-path="url(#pbcf3292bdb)" d="M 142.879425 277.064669 
L 142.879425 255.269567 
" style="fill:none;stroke:#1f77b4;stroke-width:1.5;"/>
    <path clip-path="url(#pbcf3292bdb)" d="M 146.108443 248.73854 
L 146.108443 216.194482 
" style="fill:none;stroke:#1f77b4;stroke-width:1.5;"/>
    <path clip-path="url(#pbcf3292bdb)" d="M 149.489639 247.752057 
L 149.489639 216.098729 
" style="fill:none;stroke:#1f77b4;stroke-width:1.5;"/>
    <path clip-path="url(#pbcf3292bdb)" d="M 153.030186 263.769642 
L 153.030186 236.286858 
" style="fill:none;stroke:#1f77b4;stroke-width:1.5;"/>
    <path clip-path="url(#pbcf3292bdb)" d="M 156.737593 259.417556 
L 156.737593 230.514408 
" style="fill:none;stroke:#1f77b4;stroke-width:1.5;"/>
    <path clip-path="url(#pbcf3292bdb)" d="M 160.619726 249.754519 
L 160.619726 219.243158 
" style="fill:none;stroke:#1f77b4;stroke-width:1.5;"/>
    <path clip-path="url(#pbcf3292bdb)" d="M 164.684818 259.815945 
L 164.684818 231.189126 
" style="fill:none;stroke:#1f77b4;stroke-width:1.5;"/>
    <path clip-path="url(#pbcf3292bdb)" d="M 168.941491 232.721895 
L 168.941491 197.23418 
" style="fill:none;stroke:#1f77b4;stroke-width:1.5;"/>
    <path clip-path="url(#pbcf3292bdb)" d="M 173.398776 271.81627 
L 173.398776 247.12023 
" style="fill:none;stroke:#1f77b4;stroke-width:1.5;"/>
    <path clip-path="url(#pbcf3292bdb)" d="M 178.066126 266.717801 
L 178.066126 239.674699 
" style="fill:none;stroke:#1f77b4;stroke-width:1.5;"/>
    <path clip-path="url(#pbcf3292bdb)" d="M 182.953441 276.964004 
L 182.953441 252.612496 
" style="fill:none;stroke:#1f77b4;stroke-width:1.5;"/>
    <path clip-path="url(#pbcf3292bdb)" d="M 188.071088 220.512725 
L 188.071088 183.169881 
" style="fill:none;stroke:#1f77b4;stroke-width:1.5;"/>
    <path clip-path="url(#pbcf3292bdb)" d="M 193.429923 255.385132 
L 193.429923 225.40209 
" style="fill:none;stroke:#1f77b4;stroke-width:1.5;"/>
    <path clip-path="url(#pbcf3292bdb)" d="M 199.041311 233.831226 
L 199.041311 201.105274 
" style="fill:none;stroke:#1f77b4;stroke-width:1.5;"/>
    <path clip-path="url(#pbcf3292bdb)" d="M 204.917157 200.565567 
L 204.917157 161.792715 
" style="fill:none;stroke:#1f77b4;stroke-width:1.5;"/>
    <path clip-path="url(#pbcf3292bdb)" d="M 211.069922 206.87413 
L 211.069922 166.46237 
" style="fill:none;stroke:#1f77b4;stroke-width:1.5;"/>
    <path clip-path="url(#pbcf3292bdb)" d="M 217.512658 209.461981 
L 217.512658 168.914519 
" style="fill:none;stroke:#1f77b4;stroke-width:1.5;"/>
    <path clip-path="url(#pbcf3292bdb)" d="M 224.259031 162.8795 
L 224.259031 119.418684 
" style="fill:none;stroke:#1f77b4;stroke-width:1.5;"/>
    <path clip-path="url(#pbcf3292bdb)" d="M 231.323351 151.883081 
L 231.323351 110.573419 
" style="fill:none;stroke:#1f77b4;stroke-width:1.5;"/>
    <path clip-path="url(#pbcf3292bdb)" d="M 238.720602 192.372239 
L 238.720602 153.508261 
" style="fill:none;stroke:#1f77b4;stroke-width:1.5;"/>
    <path clip-path="url(#pbcf3292bdb)" d="M 246.466475 205.426285 
L 246.466475 165.525699 
" style="fill:none;stroke:#1f77b4;stroke-width:1.5;"/>
    <path clip-path="url(#pbcf3292bdb)" d="M 254.577399 216.349652 
L 254.577399 182.05537 
" style="fill:none;stroke:#1f77b4;stroke-width:1.5;"/>
    <path clip-path="url(#pbcf3292bdb)" d="M 263.07058 188.051878 
L 263.07058 147.958681 
" style="fill:none;stroke:#1f77b4;stroke-width:1.5;"/>
    <path clip-path="url(#pbcf3292bdb)" d="M 271.964032 220.808454 
L 271.964032 186.49129 
" style="fill:none;stroke:#1f77b4;stroke-width:1.5;"/>
    <path clip-path="url(#pbcf3292bdb)" d="M 281.276619 268.878368 
L 281.276619 243.601661 
" style="fill:none;stroke:#1f77b4;stroke-width:1.5;"/>
    <path clip-path="url(#pbcf3292bdb)" d="M 291.028095 260.962662 
L 291.028095 233.134234 
" style="fill:none;stroke:#1f77b4;stroke-width:1.5;"/>
    <path clip-path="url(#pbcf3292bdb)" d="M 301.239144 280.355654 
L 301.239144 259.828846 
" style="fill:none;stroke:#1f77b4;stroke-width:1.5;"/>
    <path clip-path="url(#pbcf3292bdb)" d="M 311.931424 285.844018 
L 311.931424 266.787801 
" style="fill:none;stroke:#1f77b4;stroke-width:1.5;"/>
    <path clip-path="url(#pbcf3292bdb)" d="M 323.127617 266.03935 
L 323.127617 238.445537 
" style="fill:none;stroke:#1f77b4;stroke-width:1.5;"/>
    <path clip-path="url(#pbcf3292bdb)" d="M 334.851469 286.444872 
L 334.851469 268.331628 
" style="fill:none;stroke:#1f77b4;stroke-width:1.5;"/>
    <path clip-path="url(#pbcf3292bdb)" d="M 347.12785 288.848465 
L 347.12785 270.968035 
" style="fill:none;stroke:#1f77b4;stroke-width:1.5;"/>
    <path clip-path="url(#pbcf3292bdb)" d="M 359.982799 281.786573 
L 359.982799 260.280362 
" style="fill:none;stroke:#1f77b4;stroke-width:1.5;"/>
    <path clip-path="url(#pbcf3292bdb)" d="M 373.443583 292.912077 
L 373.443583 279.322567 
" style="fill:none;stroke:#1f77b4;stroke-width:1.5;"/>
    <path clip-path="url(#pbcf3292bdb)" d="M 387.538754 276.456708 
L 387.538754 254.049501 
" style="fill:none;stroke:#1f77b4;stroke-width:1.5;"/>
    <path clip-path="url(#pbcf3292bdb)" d="M 402.29821 226.839092 
L 402.29821 189.885234 
" style="fill:none;stroke:#1f77b4;stroke-width:1.5;"/>
   </g>
   <g id="LineCollection_2">
    <path clip-path="url(#pbcf3292bdb)" d="M 77.643665 260.206092 
L 77.643665 231.850408 
" style="fill:none;stroke:#ff7f0e;stroke-width:1.5;"/>
    <path clip-path="url(#pbcf3292bdb)" d="M 80.923004 266.069725 
L 80.923004 240.322775 
" style="fill:none;stroke:#ff7f0e;stroke-width:1.5;"/>
    <path clip-path="url(#pbcf3292bdb)" d="M 90.76102 269.183906 
L 90.76102 242.136594 
" style="fill:none;stroke:#ff7f0e;stroke-width:1.5;"/>
    <path clip-path="url(#pbcf3292bdb)" d="M 100.599037 277.656511 
L 100.599037 254.079989 
" style="fill:none;stroke:#ff7f0e;stroke-width:1.5;"/>
    <path clip-path="url(#pbcf3292bdb)" d="M 107.157714 278.712628 
L 107.157714 256.323872 
" style="fill:none;stroke:#ff7f0e;stroke-width:1.5;"/>
    <path clip-path="url(#pbcf3292bdb)" d="M 108.703219 256.257812 
L 108.703219 226.838688 
" style="fill:none;stroke:#ff7f0e;stroke-width:1.5;"/>
    <path clip-path="url(#pbcf3292bdb)" d="M 110.321561 252.27751 
L 110.321561 221.85899 
" style="fill:none;stroke:#ff7f0e;stroke-width:1.5;"/>
    <path clip-path="url(#pbcf3292bdb)" d="M 112.016174 282.279453 
L 112.016174 263.954674 
" style="fill:none;stroke:#ff7f0e;stroke-width:1.5;"/>
    <path clip-path="url(#pbcf3292bdb)" d="M 113.790651 276.221532 
L 113.790651 251.042498 
" style="fill:none;stroke:#ff7f0e;stroke-width:1.5;"/>
    <path clip-path="url(#pbcf3292bdb)" d="M 115.648756 273.315503 
L 115.648756 249.972997 
" style="fill:none;stroke:#ff7f0e;stroke-width:1.5;"/>
    <path clip-path="url(#pbcf3292bdb)" d="M 117.594431 255.899486 
L 117.594431 224.579486 
" style="fill:none;stroke:#ff7f0e;stroke-width:1.5;"/>
    <path clip-path="url(#pbcf3292bdb)" d="M 119.631803 279.480057 
L 119.631803 257.958843 
" style="fill:none;stroke:#ff7f0e;stroke-width:1.5;"/>
    <path clip-path="url(#pbcf3292bdb)" d="M 121.765194 280.841424 
L 121.765194 260.868409 
" style="fill:none;stroke:#ff7f0e;stroke-width:1.5;"/>
    <path clip-path="url(#pbcf3292bdb)" d="M 123.999128 251.491228 
L 123.999128 219.021003 
" style="fill:none;stroke:#ff7f0e;stroke-width:1.5;"/>
    <path clip-path="url(#pbcf3292bdb)" d="M 126.338344 255.385132 
L 126.338344 225.40209 
" style="fill:none;stroke:#ff7f0e;stroke-width:1.5;"/>
    <path clip-path="url(#pbcf3292bdb)" d="M 128.787804 249.269164 
L 128.787804 218.480009 
" style="fill:none;stroke:#ff7f0e;stroke-width:1.5;"/>
    <path clip-path="url(#pbcf3292bdb)" d="M 131.352704 254.004645 
L 131.352704 223.134408 
" style="fill:none;stroke:#ff7f0e;stroke-width:1.5;"/>
    <path clip-path="url(#pbcf3292bdb)" d="M 134.038483 241.924212 
L 134.038483 208.444709 
" style="fill:none;stroke:#ff7f0e;stroke-width:1.5;"/>
    <path clip-path="url(#pbcf3292bdb)" d="M 136.850839 250.230206 
L 136.850839 219.991731 
" style="fill:none;stroke:#ff7f0e;stroke-width:1.5;"/>
    <path clip-path="url(#pbcf3292bdb)" d="M 139.795738 255.826037 
L 139.795738 226.127606 
" style="fill:none;stroke:#ff7f0e;stroke-width:1.5;"/>
    <path clip-path="url(#pbcf3292bdb)" d="M 142.879425 245.31631 
L 142.879425 213.650289 
" style="fill:none;stroke:#ff7f0e;stroke-width:1.5;"/>
    <path clip-path="url(#pbcf3292bdb)" d="M 146.108443 250.825701 
L 146.108443 219.530799 
" style="fill:none;stroke:#ff7f0e;stroke-width:1.5;"/>
    <path clip-path="url(#pbcf3292bdb)" d="M 149.489639 243.673641 
L 149.489639 211.125716 
" style="fill:none;stroke:#ff7f0e;stroke-width:1.5;"/>
    <path clip-path="url(#pbcf3292bdb)" d="M 153.030186 240.693356 
L 153.030186 206.563144 
" style="fill:none;stroke:#ff7f0e;stroke-width:1.5;"/>
    <path clip-path="url(#pbcf3292bdb)" d="M 156.737593 244.572606 
L 156.737593 213.737352 
" style="fill:none;stroke:#ff7f0e;stroke-width:1.5;"/>
    <path clip-path="url(#pbcf3292bdb)" d="M 160.619726 233.619363 
L 160.619726 195.825088 
" style="fill:none;stroke:#ff7f0e;stroke-width:1.5;"/>
    <path clip-path="url(#pbcf3292bdb)" d="M 164.684818 246.136442 
L 164.684818 213.569742 
" style="fill:none;stroke:#ff7f0e;stroke-width:1.5;"/>
    <path clip-path="url(#pbcf3292bdb)" d="M 168.941491 196.42408 
L 168.941491 154.487251 
" style="fill:none;stroke:#ff7f0e;stroke-width:1.5;"/>
    <path clip-path="url(#pbcf3292bdb)" d="M 173.398776 195.069614 
L 173.398776 150.546886 
" style="fill:none;stroke:#ff7f0e;stroke-width:1.5;"/>
    <path clip-path="url(#pbcf3292bdb)" d="M 178.066126 219.15673 
L 178.066126 185.85977 
" style="fill:none;stroke:#ff7f0e;stroke-width:1.5;"/>
    <path clip-path="url(#pbcf3292bdb)" d="M 182.953441 176.454494 
L 182.953441 137.482006 
" style="fill:none;stroke:#ff7f0e;stroke-width:1.5;"/>
    <path clip-path="url(#pbcf3292bdb)" d="M 188.071088 144.495873 
L 188.071088 101.813054 
" style="fill:none;stroke:#ff7f0e;stroke-width:1.5;"/>
    <path clip-path="url(#pbcf3292bdb)" d="M 193.429923 151.661252 
L 193.429923 109.739248 
" style="fill:none;stroke:#ff7f0e;stroke-width:1.5;"/>
    <path clip-path="url(#pbcf3292bdb)" d="M 199.041311 226.674811 
L 199.041311 191.874893 
" style="fill:none;stroke:#ff7f0e;stroke-width:1.5;"/>
    <path clip-path="url(#pbcf3292bdb)" d="M 204.917157 216.170337 
L 204.917157 178.175005 
" style="fill:none;stroke:#ff7f0e;stroke-width:1.5;"/>
    <path clip-path="url(#pbcf3292bdb)" d="M 211.069922 176.677199 
L 211.069922 135.784007 
" style="fill:none;stroke:#ff7f0e;stroke-width:1.5;"/>
    <path clip-path="url(#pbcf3292bdb)" d="M 217.512658 170.500881 
L 217.512658 127.342853 
" style="fill:none;stroke:#ff7f0e;stroke-width:1.5;"/>
    <path clip-path="url(#pbcf3292bdb)" d="M 224.259031 205.652608 
L 224.259031 167.683892 
" style="fill:none;stroke:#ff7f0e;stroke-width:1.5;"/>
    <path clip-path="url(#pbcf3292bdb)" d="M 231.323351 237.341328 
L 231.323351 204.060122 
" style="fill:none;stroke:#ff7f0e;stroke-width:1.5;"/>
    <path clip-path="url(#pbcf3292bdb)" d="M 238.720602 267.367644 
L 238.720602 240.853805 
" style="fill:none;stroke:#ff7f0e;stroke-width:1.5;"/>
    <path clip-path="url(#pbcf3292bdb)" d="M 246.466475 269.502695 
L 246.466475 242.73842 
" style="fill:none;stroke:#ff7f0e;stroke-width:1.5;"/>
    <path clip-path="url(#pbcf3292bdb)" d="M 254.577399 266.382269 
L 254.577399 239.066572 
" style="fill:none;stroke:#ff7f0e;stroke-width:1.5;"/>
    <path clip-path="url(#pbcf3292bdb)" d="M 263.07058 276.030943 
L 263.07058 253.19625 
" style="fill:none;stroke:#ff7f0e;stroke-width:1.5;"/>
    <path clip-path="url(#pbcf3292bdb)" d="M 271.964032 261.106792 
L 271.964032 231.638938 
" style="fill:none;stroke:#ff7f0e;stroke-width:1.5;"/>
    <path clip-path="url(#pbcf3292bdb)" d="M 281.276619 267.248651 
L 281.276619 242.399042 
" style="fill:none;stroke:#ff7f0e;stroke-width:1.5;"/>
    <path clip-path="url(#pbcf3292bdb)" d="M 291.028095 284.032206 
L 291.028095 265.46878 
" style="fill:none;stroke:#ff7f0e;stroke-width:1.5;"/>
    <path clip-path="url(#pbcf3292bdb)" d="M 301.239144 263.058913 
L 301.239144 236.701512 
" style="fill:none;stroke:#ff7f0e;stroke-width:1.5;"/>
    <path clip-path="url(#pbcf3292bdb)" d="M 311.931424 280.520686 
L 311.931424 260.181851 
" style="fill:none;stroke:#ff7f0e;stroke-width:1.5;"/>
    <path clip-path="url(#pbcf3292bdb)" d="M 323.127617 265.951386 
L 323.127617 236.06067 
" style="fill:none;stroke:#ff7f0e;stroke-width:1.5;"/>
    <path clip-path="url(#pbcf3292bdb)" d="M 334.851469 200.565567 
L 334.851469 161.792715 
" style="fill:none;stroke:#ff7f0e;stroke-width:1.5;"/>
    <path clip-path="url(#pbcf3292bdb)" d="M 347.12785 170.575464 
L 347.12785 130.222719 
" style="fill:none;stroke:#ff7f0e;stroke-width:1.5;"/>
    <path clip-path="url(#pbcf3292bdb)" d="M 359.982799 225.95907 
L 359.982799 190.859783 
" style="fill:none;stroke:#ff7f0e;stroke-width:1.5;"/>
    <path clip-path="url(#pbcf3292bdb)" d="M 373.443583 254.474749 
L 373.443583 223.905962 
" style="fill:none;stroke:#ff7f0e;stroke-width:1.5;"/>
    <path clip-path="url(#pbcf3292bdb)" d="M 387.538754 264.58871 
L 387.538754 235.823745 
" style="fill:none;stroke:#ff7f0e;stroke-width:1.5;"/>
    <path clip-path="url(#pbcf3292bdb)" d="M 402.29821 259.417556 
L 402.29821 230.514408 
" style="fill:none;stroke:#ff7f0e;stroke-width:1.5;"/>
   </g>
   <g id="line2d_27">
    <path clip-path="url(#pbcf3292bdb)" d="M 77.643665 252.72442 
L 80.923004 265.253104 
L 90.76102 249.538353 
L 100.599037 268.50825 
L 107.157714 184.35825 
L 108.703219 267.202145 
L 110.321561 270.351269 
L 112.016174 284.94825 
L 113.790651 259.92825 
L 115.648756 265.253104 
L 117.594431 241.590119 
L 119.631803 244.41825 
L 121.765194 277.38825 
L 123.999128 264.28425 
L 126.338344 280.856637 
L 128.787804 260.58825 
L 131.352704 239.190355 
L 134.038483 255.831022 
L 136.850839 260.222309 
L 139.795738 254.98825 
L 142.879425 266.167118 
L 146.108443 232.466511 
L 149.489639 231.925393 
L 153.030186 250.02825 
L 156.737593 244.965982 
L 160.619726 234.498838 
L 164.684818 245.502536 
L 168.941491 214.978037 
L 173.398776 259.46825 
L 178.066126 253.19625 
L 182.953441 264.78825 
L 188.071088 201.841303 
L 193.429923 240.393611 
L 199.041311 217.46825 
L 204.917157 181.179141 
L 211.069922 186.66825 
L 217.512658 189.18825 
L 224.259031 141.149092 
L 231.323351 131.22825 
L 238.720602 172.94025 
L 246.466475 185.475992 
L 254.577399 199.202511 
L 263.07058 168.00528 
L 271.964032 203.649872 
L 281.276619 256.240015 
L 291.028095 247.048448 
L 301.239144 270.09225 
L 311.931424 276.31591 
L 323.127617 252.242444 
L 334.851469 277.38825 
L 347.12785 279.90825 
L 359.982799 271.033467 
L 373.443583 286.117322 
L 387.538754 265.253104 
L 402.29821 208.362163 
" style="fill:none;stroke:#1f77b4;stroke-linecap:square;stroke-width:1.5;"/>
    <defs>
     <path d="M 0 1.5 
C 0.397805 1.5 0.77937 1.341951 1.06066 1.06066 
C 1.341951 0.77937 1.5 0.397805 1.5 0 
C 1.5 -0.397805 1.341951 -0.77937 1.06066 -1.06066 
C 0.77937 -1.341951 0.397805 -1.5 0 -1.5 
C -0.397805 -1.5 -0.77937 -1.341951 -1.06066 -1.06066 
C -1.341951 -0.77937 -1.5 -0.397805 -1.5 0 
C -1.5 0.397805 -1.341951 0.77937 -1.06066 1.06066 
C -0.77937 1.341951 -0.397805 1.5 0 1.5 
z
" id="mb8bc26594a" style="stroke:#1f77b4;"/>
    </defs>
    <g clip-path="url(#pbcf3292bdb)">
     <use style="fill:#1f77b4;stroke:#1f77b4;" x="77.643665" xlink:href="#mb8bc26594a" y="252.72442"/>
     <use style="fill:#1f77b4;stroke:#1f77b4;" x="80.923004" xlink:href="#mb8bc26594a" y="265.253104"/>
     <use style="fill:#1f77b4;stroke:#1f77b4;" x="90.76102" xlink:href="#mb8bc26594a" y="249.538353"/>
     <use style="fill:#1f77b4;stroke:#1f77b4;" x="100.599037" xlink:href="#mb8bc26594a" y="268.50825"/>
     <use style="fill:#1f77b4;stroke:#1f77b4;" x="107.157714" xlink:href="#mb8bc26594a" y="184.35825"/>
     <use style="fill:#1f77b4;stroke:#1f77b4;" x="108.703219" xlink:href="#mb8bc26594a" y="267.202145"/>
     <use style="fill:#1f77b4;stroke:#1f77b4;" x="110.321561" xlink:href="#mb8bc26594a" y="270.351269"/>
     <use style="fill:#1f77b4;stroke:#1f77b4;" x="112.016174" xlink:href="#mb8bc26594a" y="284.94825"/>
     <use style="fill:#1f77b4;stroke:#1f77b4;" x="113.790651" xlink:href="#mb8bc26594a" y="259.92825"/>
     <use style="fill:#1f77b4;stroke:#1f77b4;" x="115.648756" xlink:href="#mb8bc26594a" y="265.253104"/>
     <use style="fill:#1f77b4;stroke:#1f77b4;" x="117.594431" xlink:href="#mb8bc26594a" y="241.590119"/>
     <use style="fill:#1f77b4;stroke:#1f77b4;" x="119.631803" xlink:href="#mb8bc26594a" y="244.41825"/>
     <use style="fill:#1f77b4;stroke:#1f77b4;" x="121.765194" xlink:href="#mb8bc26594a" y="277.38825"/>
     <use style="fill:#1f77b4;stroke:#1f77b4;" x="123.999128" xlink:href="#mb8bc26594a" y="264.28425"/>
     <use style="fill:#1f77b4;stroke:#1f77b4;" x="126.338344" xlink:href="#mb8bc26594a" y="280.856637"/>
     <use style="fill:#1f77b4;stroke:#1f77b4;" x="128.787804" xlink:href="#mb8bc26594a" y="260.58825"/>
     <use style="fill:#1f77b4;stroke:#1f77b4;" x="131.352704" xlink:href="#mb8bc26594a" y="239.190355"/>
     <use style="fill:#1f77b4;stroke:#1f77b4;" x="134.038483" xlink:href="#mb8bc26594a" y="255.831022"/>
     <use style="fill:#1f77b4;stroke:#1f77b4;" x="136.850839" xlink:href="#mb8bc26594a" y="260.222309"/>
     <use style="fill:#1f77b4;stroke:#1f77b4;" x="139.795738" xlink:href="#mb8bc26594a" y="254.98825"/>
     <use style="fill:#1f77b4;stroke:#1f77b4;" x="142.879425" xlink:href="#mb8bc26594a" y="266.167118"/>
     <use style="fill:#1f77b4;stroke:#1f77b4;" x="146.108443" xlink:href="#mb8bc26594a" y="232.466511"/>
     <use style="fill:#1f77b4;stroke:#1f77b4;" x="149.489639" xlink:href="#mb8bc26594a" y="231.925393"/>
     <use style="fill:#1f77b4;stroke:#1f77b4;" x="153.030186" xlink:href="#mb8bc26594a" y="250.02825"/>
     <use style="fill:#1f77b4;stroke:#1f77b4;" x="156.737593" xlink:href="#mb8bc26594a" y="244.965982"/>
     <use style="fill:#1f77b4;stroke:#1f77b4;" x="160.619726" xlink:href="#mb8bc26594a" y="234.498838"/>
     <use style="fill:#1f77b4;stroke:#1f77b4;" x="164.684818" xlink:href="#mb8bc26594a" y="245.502536"/>
     <use style="fill:#1f77b4;stroke:#1f77b4;" x="168.941491" xlink:href="#mb8bc26594a" y="214.978037"/>
     <use style="fill:#1f77b4;stroke:#1f77b4;" x="173.398776" xlink:href="#mb8bc26594a" y="259.46825"/>
     <use style="fill:#1f77b4;stroke:#1f77b4;" x="178.066126" xlink:href="#mb8bc26594a" y="253.19625"/>
     <use style="fill:#1f77b4;stroke:#1f77b4;" x="182.953441" xlink:href="#mb8bc26594a" y="264.78825"/>
     <use style="fill:#1f77b4;stroke:#1f77b4;" x="188.071088" xlink:href="#mb8bc26594a" y="201.841303"/>
     <use style="fill:#1f77b4;stroke:#1f77b4;" x="193.429923" xlink:href="#mb8bc26594a" y="240.393611"/>
     <use style="fill:#1f77b4;stroke:#1f77b4;" x="199.041311" xlink:href="#mb8bc26594a" y="217.46825"/>
     <use style="fill:#1f77b4;stroke:#1f77b4;" x="204.917157" xlink:href="#mb8bc26594a" y="181.179141"/>
     <use style="fill:#1f77b4;stroke:#1f77b4;" x="211.069922" xlink:href="#mb8bc26594a" y="186.66825"/>
     <use style="fill:#1f77b4;stroke:#1f77b4;" x="217.512658" xlink:href="#mb8bc26594a" y="189.18825"/>
     <use style="fill:#1f77b4;stroke:#1f77b4;" x="224.259031" xlink:href="#mb8bc26594a" y="141.149092"/>
     <use style="fill:#1f77b4;stroke:#1f77b4;" x="231.323351" xlink:href="#mb8bc26594a" y="131.22825"/>
     <use style="fill:#1f77b4;stroke:#1f77b4;" x="238.720602" xlink:href="#mb8bc26594a" y="172.94025"/>
     <use style="fill:#1f77b4;stroke:#1f77b4;" x="246.466475" xlink:href="#mb8bc26594a" y="185.475992"/>
     <use style="fill:#1f77b4;stroke:#1f77b4;" x="254.577399" xlink:href="#mb8bc26594a" y="199.202511"/>
     <use style="fill:#1f77b4;stroke:#1f77b4;" x="263.07058" xlink:href="#mb8bc26594a" y="168.00528"/>
     <use style="fill:#1f77b4;stroke:#1f77b4;" x="271.964032" xlink:href="#mb8bc26594a" y="203.649872"/>
     <use style="fill:#1f77b4;stroke:#1f77b4;" x="281.276619" xlink:href="#mb8bc26594a" y="256.240015"/>
     <use style="fill:#1f77b4;stroke:#1f77b4;" x="291.028095" xlink:href="#mb8bc26594a" y="247.048448"/>
     <use style="fill:#1f77b4;stroke:#1f77b4;" x="301.239144" xlink:href="#mb8bc26594a" y="270.09225"/>
     <use style="fill:#1f77b4;stroke:#1f77b4;" x="311.931424" xlink:href="#mb8bc26594a" y="276.31591"/>
     <use style="fill:#1f77b4;stroke:#1f77b4;" x="323.127617" xlink:href="#mb8bc26594a" y="252.242444"/>
     <use style="fill:#1f77b4;stroke:#1f77b4;" x="334.851469" xlink:href="#mb8bc26594a" y="277.38825"/>
     <use style="fill:#1f77b4;stroke:#1f77b4;" x="347.12785" xlink:href="#mb8bc26594a" y="279.90825"/>
     <use style="fill:#1f77b4;stroke:#1f77b4;" x="359.982799" xlink:href="#mb8bc26594a" y="271.033467"/>
     <use style="fill:#1f77b4;stroke:#1f77b4;" x="373.443583" xlink:href="#mb8bc26594a" y="286.117322"/>
     <use style="fill:#1f77b4;stroke:#1f77b4;" x="387.538754" xlink:href="#mb8bc26594a" y="265.253104"/>
     <use style="fill:#1f77b4;stroke:#1f77b4;" x="402.29821" xlink:href="#mb8bc26594a" y="208.362163"/>
    </g>
   </g>
   <g id="line2d_28">
    <path clip-path="url(#pbcf3292bdb)" d="M 77.643665 246.02825 
L 80.923004 253.19625 
L 90.76102 255.66025 
L 100.599037 265.86825 
L 107.157714 267.51825 
L 108.703219 241.54825 
L 110.321561 237.06825 
L 112.016174 273.117064 
L 113.790651 263.632015 
L 115.648756 261.64425 
L 117.594431 240.239486 
L 119.631803 268.71945 
L 121.765194 270.854917 
L 123.999128 235.256115 
L 126.338344 240.393611 
L 128.787804 233.874587 
L 131.352704 238.569527 
L 134.038483 225.184461 
L 136.850839 235.110968 
L 139.795738 240.976821 
L 142.879425 229.4833 
L 146.108443 235.17825 
L 149.489639 227.399679 
L 153.030186 223.62825 
L 156.737593 229.154979 
L 160.619726 214.722226 
L 164.684818 229.853092 
L 168.941491 175.455666 
L 173.398776 172.80825 
L 178.066126 202.50825 
L 182.953441 156.96825 
L 188.071088 123.154464 
L 193.429923 130.70025 
L 199.041311 209.274852 
L 204.917157 197.172671 
L 211.069922 156.230603 
L 217.512658 148.921867 
L 224.259031 186.66825 
L 231.323351 220.700725 
L 238.720602 254.110724 
L 246.466475 256.120558 
L 254.577399 252.72442 
L 263.07058 264.613597 
L 271.964032 246.372865 
L 281.276619 254.823846 
L 291.028095 274.750493 
L 301.239144 249.880213 
L 311.931424 270.351269 
L 323.127617 251.006028 
L 334.851469 181.179141 
L 347.12785 150.399091 
L 359.982799 208.409426 
L 373.443583 239.190355 
L 387.538754 250.206228 
L 402.29821 244.965982 
" style="fill:none;stroke:#ff7f0e;stroke-linecap:square;stroke-width:1.5;"/>
    <defs>
     <path d="M 0 1.5 
C 0.397805 1.5 0.77937 1.341951 1.06066 1.06066 
C 1.341951 0.77937 1.5 0.397805 1.5 0 
C 1.5 -0.397805 1.341951 -0.77937 1.06066 -1.06066 
C 0.77937 -1.341951 0.397805 -1.5 0 -1.5 
C -0.397805 -1.5 -0.77937 -1.341951 -1.06066 -1.06066 
C -1.341951 -0.77937 -1.5 -0.397805 -1.5 0 
C -1.5 0.397805 -1.341951 0.77937 -1.06066 1.06066 
C -0.77937 1.341951 -0.397805 1.5 0 1.5 
z
" id="m3e2fb6b177" style="stroke:#ff7f0e;"/>
    </defs>
    <g clip-path="url(#pbcf3292bdb)">
     <use style="fill:#ff7f0e;stroke:#ff7f0e;" x="77.643665" xlink:href="#m3e2fb6b177" y="246.02825"/>
     <use style="fill:#ff7f0e;stroke:#ff7f0e;" x="80.923004" xlink:href="#m3e2fb6b177" y="253.19625"/>
     <use style="fill:#ff7f0e;stroke:#ff7f0e;" x="90.76102" xlink:href="#m3e2fb6b177" y="255.66025"/>
     <use style="fill:#ff7f0e;stroke:#ff7f0e;" x="100.599037" xlink:href="#m3e2fb6b177" y="265.86825"/>
     <use style="fill:#ff7f0e;stroke:#ff7f0e;" x="107.157714" xlink:href="#m3e2fb6b177" y="267.51825"/>
     <use style="fill:#ff7f0e;stroke:#ff7f0e;" x="108.703219" xlink:href="#m3e2fb6b177" y="241.54825"/>
     <use style="fill:#ff7f0e;stroke:#ff7f0e;" x="110.321561" xlink:href="#m3e2fb6b177" y="237.06825"/>
     <use style="fill:#ff7f0e;stroke:#ff7f0e;" x="112.016174" xlink:href="#m3e2fb6b177" y="273.117064"/>
     <use style="fill:#ff7f0e;stroke:#ff7f0e;" x="113.790651" xlink:href="#m3e2fb6b177" y="263.632015"/>
     <use style="fill:#ff7f0e;stroke:#ff7f0e;" x="115.648756" xlink:href="#m3e2fb6b177" y="261.64425"/>
     <use style="fill:#ff7f0e;stroke:#ff7f0e;" x="117.594431" xlink:href="#m3e2fb6b177" y="240.239486"/>
     <use style="fill:#ff7f0e;stroke:#ff7f0e;" x="119.631803" xlink:href="#m3e2fb6b177" y="268.71945"/>
     <use style="fill:#ff7f0e;stroke:#ff7f0e;" x="121.765194" xlink:href="#m3e2fb6b177" y="270.854917"/>
     <use style="fill:#ff7f0e;stroke:#ff7f0e;" x="123.999128" xlink:href="#m3e2fb6b177" y="235.256115"/>
     <use style="fill:#ff7f0e;stroke:#ff7f0e;" x="126.338344" xlink:href="#m3e2fb6b177" y="240.393611"/>
     <use style="fill:#ff7f0e;stroke:#ff7f0e;" x="128.787804" xlink:href="#m3e2fb6b177" y="233.874587"/>
     <use style="fill:#ff7f0e;stroke:#ff7f0e;" x="131.352704" xlink:href="#m3e2fb6b177" y="238.569527"/>
     <use style="fill:#ff7f0e;stroke:#ff7f0e;" x="134.038483" xlink:href="#m3e2fb6b177" y="225.184461"/>
     <use style="fill:#ff7f0e;stroke:#ff7f0e;" x="136.850839" xlink:href="#m3e2fb6b177" y="235.110968"/>
     <use style="fill:#ff7f0e;stroke:#ff7f0e;" x="139.795738" xlink:href="#m3e2fb6b177" y="240.976821"/>
     <use style="fill:#ff7f0e;stroke:#ff7f0e;" x="142.879425" xlink:href="#m3e2fb6b177" y="229.4833"/>
     <use style="fill:#ff7f0e;stroke:#ff7f0e;" x="146.108443" xlink:href="#m3e2fb6b177" y="235.17825"/>
     <use style="fill:#ff7f0e;stroke:#ff7f0e;" x="149.489639" xlink:href="#m3e2fb6b177" y="227.399679"/>
     <use style="fill:#ff7f0e;stroke:#ff7f0e;" x="153.030186" xlink:href="#m3e2fb6b177" y="223.62825"/>
     <use style="fill:#ff7f0e;stroke:#ff7f0e;" x="156.737593" xlink:href="#m3e2fb6b177" y="229.154979"/>
     <use style="fill:#ff7f0e;stroke:#ff7f0e;" x="160.619726" xlink:href="#m3e2fb6b177" y="214.722226"/>
     <use style="fill:#ff7f0e;stroke:#ff7f0e;" x="164.684818" xlink:href="#m3e2fb6b177" y="229.853092"/>
     <use style="fill:#ff7f0e;stroke:#ff7f0e;" x="168.941491" xlink:href="#m3e2fb6b177" y="175.455666"/>
     <use style="fill:#ff7f0e;stroke:#ff7f0e;" x="173.398776" xlink:href="#m3e2fb6b177" y="172.80825"/>
     <use style="fill:#ff7f0e;stroke:#ff7f0e;" x="178.066126" xlink:href="#m3e2fb6b177" y="202.50825"/>
     <use style="fill:#ff7f0e;stroke:#ff7f0e;" x="182.953441" xlink:href="#m3e2fb6b177" y="156.96825"/>
     <use style="fill:#ff7f0e;stroke:#ff7f0e;" x="188.071088" xlink:href="#m3e2fb6b177" y="123.154464"/>
     <use style="fill:#ff7f0e;stroke:#ff7f0e;" x="193.429923" xlink:href="#m3e2fb6b177" y="130.70025"/>
     <use style="fill:#ff7f0e;stroke:#ff7f0e;" x="199.041311" xlink:href="#m3e2fb6b177" y="209.274852"/>
     <use style="fill:#ff7f0e;stroke:#ff7f0e;" x="204.917157" xlink:href="#m3e2fb6b177" y="197.172671"/>
     <use style="fill:#ff7f0e;stroke:#ff7f0e;" x="211.069922" xlink:href="#m3e2fb6b177" y="156.230603"/>
     <use style="fill:#ff7f0e;stroke:#ff7f0e;" x="217.512658" xlink:href="#m3e2fb6b177" y="148.921867"/>
     <use style="fill:#ff7f0e;stroke:#ff7f0e;" x="224.259031" xlink:href="#m3e2fb6b177" y="186.66825"/>
     <use style="fill:#ff7f0e;stroke:#ff7f0e;" x="231.323351" xlink:href="#m3e2fb6b177" y="220.700725"/>
     <use style="fill:#ff7f0e;stroke:#ff7f0e;" x="238.720602" xlink:href="#m3e2fb6b177" y="254.110724"/>
     <use style="fill:#ff7f0e;stroke:#ff7f0e;" x="246.466475" xlink:href="#m3e2fb6b177" y="256.120558"/>
     <use style="fill:#ff7f0e;stroke:#ff7f0e;" x="254.577399" xlink:href="#m3e2fb6b177" y="252.72442"/>
     <use style="fill:#ff7f0e;stroke:#ff7f0e;" x="263.07058" xlink:href="#m3e2fb6b177" y="264.613597"/>
     <use style="fill:#ff7f0e;stroke:#ff7f0e;" x="271.964032" xlink:href="#m3e2fb6b177" y="246.372865"/>
     <use style="fill:#ff7f0e;stroke:#ff7f0e;" x="281.276619" xlink:href="#m3e2fb6b177" y="254.823846"/>
     <use style="fill:#ff7f0e;stroke:#ff7f0e;" x="291.028095" xlink:href="#m3e2fb6b177" y="274.750493"/>
     <use style="fill:#ff7f0e;stroke:#ff7f0e;" x="301.239144" xlink:href="#m3e2fb6b177" y="249.880213"/>
     <use style="fill:#ff7f0e;stroke:#ff7f0e;" x="311.931424" xlink:href="#m3e2fb6b177" y="270.351269"/>
     <use style="fill:#ff7f0e;stroke:#ff7f0e;" x="323.127617" xlink:href="#m3e2fb6b177" y="251.006028"/>
     <use style="fill:#ff7f0e;stroke:#ff7f0e;" x="334.851469" xlink:href="#m3e2fb6b177" y="181.179141"/>
     <use style="fill:#ff7f0e;stroke:#ff7f0e;" x="347.12785" xlink:href="#m3e2fb6b177" y="150.399091"/>
     <use style="fill:#ff7f0e;stroke:#ff7f0e;" x="359.982799" xlink:href="#m3e2fb6b177" y="208.409426"/>
     <use style="fill:#ff7f0e;stroke:#ff7f0e;" x="373.443583" xlink:href="#m3e2fb6b177" y="239.190355"/>
     <use style="fill:#ff7f0e;stroke:#ff7f0e;" x="387.538754" xlink:href="#m3e2fb6b177" y="250.206228"/>
     <use style="fill:#ff7f0e;stroke:#ff7f0e;" x="402.29821" xlink:href="#m3e2fb6b177" y="244.965982"/>
    </g>
   </g>
   <g id="patch_3">
    <path d="M 61.410938 297.54825 
L 61.410938 31.43625 
" style="fill:none;stroke:#000000;stroke-linecap:square;stroke-linejoin:miter;stroke-width:0.8;"/>
   </g>
   <g id="patch_4">
    <path d="M 418.530938 297.54825 
L 418.530938 31.43625 
" style="fill:none;stroke:#000000;stroke-linecap:square;stroke-linejoin:miter;stroke-width:0.8;"/>
   </g>
   <g id="patch_5">
    <path d="M 61.410938 297.54825 
L 418.530938 297.54825 
" style="fill:none;stroke:#000000;stroke-linecap:square;stroke-linejoin:miter;stroke-width:0.8;"/>
   </g>
   <g id="patch_6">
    <path d="M 61.410938 31.43625 
L 418.530938 31.43625 
" style="fill:none;stroke:#000000;stroke-linecap:square;stroke-linejoin:miter;stroke-width:0.8;"/>
   </g>
   <g id="text_16">
    <!-- Cs axial -->
    <defs>
     <path d="M 64.40625 67.28125 
L 64.40625 56.890625 
Q 59.421875 61.53125 53.78125 63.8125 
Q 48.140625 66.109375 41.796875 66.109375 
Q 29.296875 66.109375 22.65625 58.46875 
Q 16.015625 50.828125 16.015625 36.375 
Q 16.015625 21.96875 22.65625 14.328125 
Q 29.296875 6.6875 41.796875 6.6875 
Q 48.140625 6.6875 53.78125 8.984375 
Q 59.421875 11.28125 64.40625 15.921875 
L 64.40625 5.609375 
Q 59.234375 2.09375 53.4375 0.328125 
Q 47.65625 -1.421875 41.21875 -1.421875 
Q 24.65625 -1.421875 15.125 8.703125 
Q 5.609375 18.84375 5.609375 36.375 
Q 5.609375 53.953125 15.125 64.078125 
Q 24.65625 74.21875 41.21875 74.21875 
Q 47.75 74.21875 53.53125 72.484375 
Q 59.328125 70.75 64.40625 67.28125 
z
" id="DejaVuSans-43"/>
     <path d="M 54.890625 54.6875 
L 35.109375 28.078125 
L 55.90625 0 
L 45.3125 0 
L 29.390625 21.484375 
L 13.484375 0 
L 2.875 0 
L 24.125 28.609375 
L 4.6875 54.6875 
L 15.28125 54.6875 
L 29.78125 35.203125 
L 44.28125 54.6875 
z
" id="DejaVuSans-78"/>
    </defs>
    <g transform="translate(193.049063 25.43625)scale(0.24 -0.24)">
     <use xlink:href="#DejaVuSans-43"/>
     <use x="69.824219" xlink:href="#DejaVuSans-73"/>
     <use x="121.923828" xlink:href="#DejaVuSans-20"/>
     <use x="153.710938" xlink:href="#DejaVuSans-61"/>
     <use x="214.990234" xlink:href="#DejaVuSans-78"/>
     <use x="274.169922" xlink:href="#DejaVuSans-69"/>
     <use x="301.953125" xlink:href="#DejaVuSans-61"/>
     <use x="363.232422" xlink:href="#DejaVuSans-6c"/>
    </g>
   </g>
   <g id="legend_1">
    <g id="patch_7">
     <path d="M 315.080938 106.14875 
L 404.530937 106.14875 
Q 408.530937 106.14875 408.530937 102.14875 
L 408.530937 45.43625 
Q 408.530937 41.43625 404.530937 41.43625 
L 315.080938 41.43625 
Q 311.080938 41.43625 311.080938 45.43625 
L 311.080938 102.14875 
Q 311.080938 106.14875 315.080938 106.14875 
z
" style="fill:#ffffff;opacity:0.8;stroke:#cccccc;stroke-linejoin:miter;"/>
    </g>
    <g id="LineCollection_3">
     <path d="M 339.080938 67.633125 
L 339.080938 47.633125 
" style="fill:none;stroke:#1f77b4;stroke-width:1.5;"/>
    </g>
    <g id="line2d_29">
     <path d="M 319.080938 57.633125 
L 359.080938 57.633125 
" style="fill:none;stroke:#1f77b4;stroke-linecap:square;stroke-width:1.5;"/>
    </g>
    <g id="line2d_30">
     <g>
      <use style="fill:#1f77b4;stroke:#1f77b4;" x="339.080938" xlink:href="#mb8bc26594a" y="57.633125"/>
     </g>
    </g>
    <g id="text_17">
     <!-- 8 -->
     <g transform="translate(375.080938 64.633125)scale(0.2 -0.2)">
      <use xlink:href="#DejaVuSans-38"/>
     </g>
    </g>
    <g id="LineCollection_4">
     <path d="M 339.080938 96.989375 
L 339.080938 76.989375 
" style="fill:none;stroke:#ff7f0e;stroke-width:1.5;"/>
    </g>
    <g id="line2d_31">
     <path d="M 319.080938 86.989375 
L 359.080938 86.989375 
" style="fill:none;stroke:#ff7f0e;stroke-linecap:square;stroke-width:1.5;"/>
    </g>
    <g id="line2d_32">
     <g>
      <use style="fill:#ff7f0e;stroke:#ff7f0e;" x="339.080938" xlink:href="#m3e2fb6b177" y="86.989375"/>
     </g>
    </g>
    <g id="text_18">
     <!-- 15 -->
     <g transform="translate(375.080938 93.989375)scale(0.2 -0.2)">
      <use xlink:href="#DejaVuSans-31"/>
      <use x="63.623047" xlink:href="#DejaVuSans-35"/>
     </g>
    </g>
   </g>
  </g>
 </g>
 <defs>
  <clipPath id="pbcf3292bdb">
   <rect height="266.112" width="357.12" x="61.410938" y="31.43625"/>
  </clipPath>
 </defs>
</svg>
