<?xml version="1.0" encoding="utf-8" standalone="no"?>
<!DOCTYPE svg PUBLIC "-//W3C//DTD SVG 1.1//EN"
  "http://www.w3.org/Graphics/SVG/1.1/DTD/svg11.dtd">
<!-- Created with matplotlib (http://matplotlib.org/) -->
<svg height="349pt" version="1.1" viewBox="0 0 429 349" width="429pt" xmlns="http://www.w3.org/2000/svg" xmlns:xlink="http://www.w3.org/1999/xlink">
 <defs>
  <style type="text/css">
*{stroke-linecap:butt;stroke-linejoin:round;}
  </style>
 </defs>
 <g id="figure_1">
  <g id="patch_1">
   <path d="M 0 349.621687 
L 429.230937 349.621687 
L 429.230937 0 
L 0 0 
z
" style="fill:none;"/>
  </g>
  <g id="axes_1">
   <g id="patch_2">
    <path d="M 61.410938 297.54825 
L 418.530938 297.54825 
L 418.530938 31.43625 
L 61.410938 31.43625 
z
" style="fill:none;"/>
   </g>
   <g id="matplotlib.axis_1">
    <g id="xtick_1">
     <g id="line2d_1">
      <path clip-path="url(#pbcf3292bdb)" d="M 77.643665 297.54825 
L 77.643665 31.43625 
" style="fill:none;stroke:#b0b0b0;stroke-linecap:square;stroke-width:0.8;"/>
     </g>
     <g id="line2d_2">
      <defs>
       <path d="M 0 0 
L 0 3.5 
" id="m005f0a59be" style="stroke:#000000;stroke-width:0.8;"/>
      </defs>
      <g>
       <use style="stroke:#000000;stroke-width:0.8;" x="77.643665" xlink:href="#m005f0a59be" y="297.54825"/>
      </g>
     </g>
     <g id="text_1">
      <!-- −150 -->
      <defs>
       <path d="M 10.59375 35.5 
L 73.1875 35.5 
L 73.1875 27.203125 
L 10.59375 27.203125 
z
" id="DejaVuSans-2212"/>
       <path d="M 12.40625 8.296875 
L 28.515625 8.296875 
L 28.515625 63.921875 
L 10.984375 60.40625 
L 10.984375 69.390625 
L 28.421875 72.90625 
L 38.28125 72.90625 
L 38.28125 8.296875 
L 54.390625 8.296875 
L 54.390625 0 
L 12.40625 0 
z
" id="DejaVuSans-31"/>
       <path d="M 10.796875 72.90625 
L 49.515625 72.90625 
L 49.515625 64.59375 
L 19.828125 64.59375 
L 19.828125 46.734375 
Q 21.96875 47.46875 24.109375 47.828125 
Q 26.265625 48.1875 28.421875 48.1875 
Q 40.625 48.1875 47.75 41.5 
Q 54.890625 34.8125 54.890625 23.390625 
Q 54.890625 11.625 47.5625 5.09375 
Q 40.234375 -1.421875 26.90625 -1.421875 
Q 22.3125 -1.421875 17.546875 -0.640625 
Q 12.796875 0.140625 7.71875 1.703125 
L 7.71875 11.625 
Q 12.109375 9.234375 16.796875 8.0625 
Q 21.484375 6.890625 26.703125 6.890625 
Q 35.15625 6.890625 40.078125 11.328125 
Q 45.015625 15.765625 45.015625 23.390625 
Q 45.015625 31 40.078125 35.4375 
Q 35.15625 39.890625 26.703125 39.890625 
Q 22.75 39.890625 18.8125 39.015625 
Q 14.890625 38.140625 10.796875 36.28125 
z
" id="DejaVuSans-35"/>
       <path d="M 31.78125 66.40625 
Q 24.171875 66.40625 20.328125 58.90625 
Q 16.5 51.421875 16.5 36.375 
Q 16.5 21.390625 20.328125 13.890625 
Q 24.171875 6.390625 31.78125 6.390625 
Q 39.453125 6.390625 43.28125 13.890625 
Q 47.125 21.390625 47.125 36.375 
Q 47.125 51.421875 43.28125 58.90625 
Q 39.453125 66.40625 31.78125 66.40625 
z
M 31.78125 74.21875 
Q 44.046875 74.21875 50.515625 64.515625 
Q 56.984375 54.828125 56.984375 36.375 
Q 56.984375 17.96875 50.515625 8.265625 
Q 44.046875 -1.421875 31.78125 -1.421875 
Q 19.53125 -1.421875 13.0625 8.265625 
Q 6.59375 17.96875 6.59375 36.375 
Q 6.59375 54.828125 13.0625 64.515625 
Q 19.53125 74.21875 31.78125 74.21875 
z
" id="DejaVuSans-30"/>
      </defs>
      <g transform="translate(57.043274 315.945906)scale(0.15 -0.15)">
       <use xlink:href="#DejaVuSans-2212"/>
       <use x="83.789062" xlink:href="#DejaVuSans-31"/>
       <use x="147.412109" xlink:href="#DejaVuSans-35"/>
       <use x="211.035156" xlink:href="#DejaVuSans-30"/>
      </g>
     </g>
    </g>
    <g id="xtick_2">
     <g id="line2d_3">
      <path clip-path="url(#pbcf3292bdb)" d="M 131.752756 297.54825 
L 131.752756 31.43625 
" style="fill:none;stroke:#b0b0b0;stroke-linecap:square;stroke-width:0.8;"/>
     </g>
     <g id="line2d_4">
      <g>
       <use style="stroke:#000000;stroke-width:0.8;" x="131.752756" xlink:href="#m005f0a59be" y="297.54825"/>
      </g>
     </g>
     <g id="text_2">
      <!-- −125 -->
      <defs>
       <path d="M 19.1875 8.296875 
L 53.609375 8.296875 
L 53.609375 0 
L 7.328125 0 
L 7.328125 8.296875 
Q 12.9375 14.109375 22.625 23.890625 
Q 32.328125 33.6875 34.8125 36.53125 
Q 39.546875 41.84375 41.421875 45.53125 
Q 43.3125 49.21875 43.3125 52.78125 
Q 43.3125 58.59375 39.234375 62.25 
Q 35.15625 65.921875 28.609375 65.921875 
Q 23.96875 65.921875 18.8125 64.3125 
Q 13.671875 62.703125 7.8125 59.421875 
L 7.8125 69.390625 
Q 13.765625 71.78125 18.9375 73 
Q 24.125 74.21875 28.421875 74.21875 
Q 39.75 74.21875 46.484375 68.546875 
Q 53.21875 62.890625 53.21875 53.421875 
Q 53.21875 48.921875 51.53125 44.890625 
Q 49.859375 40.875 45.40625 35.40625 
Q 44.1875 33.984375 37.640625 27.21875 
Q 31.109375 20.453125 19.1875 8.296875 
z
" id="DejaVuSans-32"/>
      </defs>
      <g transform="translate(111.152365 315.945906)scale(0.15 -0.15)">
       <use xlink:href="#DejaVuSans-2212"/>
       <use x="83.789062" xlink:href="#DejaVuSans-31"/>
       <use x="147.412109" xlink:href="#DejaVuSans-32"/>
       <use x="211.035156" xlink:href="#DejaVuSans-35"/>
      </g>
     </g>
    </g>
    <g id="xtick_3">
     <g id="line2d_5">
      <path clip-path="url(#pbcf3292bdb)" d="M 185.861847 297.54825 
L 185.861847 31.43625 
" style="fill:none;stroke:#b0b0b0;stroke-linecap:square;stroke-width:0.8;"/>
     </g>
     <g id="line2d_6">
      <g>
       <use style="stroke:#000000;stroke-width:0.8;" x="185.861847" xlink:href="#m005f0a59be" y="297.54825"/>
      </g>
     </g>
     <g id="text_3">
      <!-- −100 -->
      <g transform="translate(165.261456 315.945906)scale(0.15 -0.15)">
       <use xlink:href="#DejaVuSans-2212"/>
       <use x="83.789062" xlink:href="#DejaVuSans-31"/>
       <use x="147.412109" xlink:href="#DejaVuSans-30"/>
       <use x="211.035156" xlink:href="#DejaVuSans-30"/>
      </g>
     </g>
    </g>
    <g id="xtick_4">
     <g id="line2d_7">
      <path clip-path="url(#pbcf3292bdb)" d="M 239.970938 297.54825 
L 239.970938 31.43625 
" style="fill:none;stroke:#b0b0b0;stroke-linecap:square;stroke-width:0.8;"/>
     </g>
     <g id="line2d_8">
      <g>
       <use style="stroke:#000000;stroke-width:0.8;" x="239.970938" xlink:href="#m005f0a59be" y="297.54825"/>
      </g>
     </g>
     <g id="text_4">
      <!-- −75 -->
      <defs>
       <path d="M 8.203125 72.90625 
L 55.078125 72.90625 
L 55.078125 68.703125 
L 28.609375 0 
L 18.3125 0 
L 43.21875 64.59375 
L 8.203125 64.59375 
z
" id="DejaVuSans-37"/>
      </defs>
      <g transform="translate(224.142422 315.945906)scale(0.15 -0.15)">
       <use xlink:href="#DejaVuSans-2212"/>
       <use x="83.789062" xlink:href="#DejaVuSans-37"/>
       <use x="147.412109" xlink:href="#DejaVuSans-35"/>
      </g>
     </g>
    </g>
    <g id="xtick_5">
     <g id="line2d_9">
      <path clip-path="url(#pbcf3292bdb)" d="M 294.080028 297.54825 
L 294.080028 31.43625 
" style="fill:none;stroke:#b0b0b0;stroke-linecap:square;stroke-width:0.8;"/>
     </g>
     <g id="line2d_10">
      <g>
       <use style="stroke:#000000;stroke-width:0.8;" x="294.080028" xlink:href="#m005f0a59be" y="297.54825"/>
      </g>
     </g>
     <g id="text_5">
      <!-- −50 -->
      <g transform="translate(278.251513 315.945906)scale(0.15 -0.15)">
       <use xlink:href="#DejaVuSans-2212"/>
       <use x="83.789062" xlink:href="#DejaVuSans-35"/>
       <use x="147.412109" xlink:href="#DejaVuSans-30"/>
      </g>
     </g>
    </g>
    <g id="xtick_6">
     <g id="line2d_11">
      <path clip-path="url(#pbcf3292bdb)" d="M 348.189119 297.54825 
L 348.189119 31.43625 
" style="fill:none;stroke:#b0b0b0;stroke-linecap:square;stroke-width:0.8;"/>
     </g>
     <g id="line2d_12">
      <g>
       <use style="stroke:#000000;stroke-width:0.8;" x="348.189119" xlink:href="#m005f0a59be" y="297.54825"/>
      </g>
     </g>
     <g id="text_6">
      <!-- −25 -->
      <g transform="translate(332.360604 315.945906)scale(0.15 -0.15)">
       <use xlink:href="#DejaVuSans-2212"/>
       <use x="83.789062" xlink:href="#DejaVuSans-32"/>
       <use x="147.412109" xlink:href="#DejaVuSans-35"/>
      </g>
     </g>
    </g>
    <g id="xtick_7">
     <g id="line2d_13">
      <path clip-path="url(#pbcf3292bdb)" d="M 402.29821 297.54825 
L 402.29821 31.43625 
" style="fill:none;stroke:#b0b0b0;stroke-linecap:square;stroke-width:0.8;"/>
     </g>
     <g id="line2d_14">
      <g>
       <use style="stroke:#000000;stroke-width:0.8;" x="402.29821" xlink:href="#m005f0a59be" y="297.54825"/>
      </g>
     </g>
     <g id="text_7">
      <!-- 0 -->
      <g transform="translate(397.526335 315.945906)scale(0.15 -0.15)">
       <use xlink:href="#DejaVuSans-30"/>
      </g>
     </g>
    </g>
    <g id="text_8">
     <!-- Detuning (kHz) -->
     <defs>
      <path d="M 19.671875 64.796875 
L 19.671875 8.109375 
L 31.59375 8.109375 
Q 46.6875 8.109375 53.6875 14.9375 
Q 60.6875 21.78125 60.6875 36.53125 
Q 60.6875 51.171875 53.6875 57.984375 
Q 46.6875 64.796875 31.59375 64.796875 
z
M 9.8125 72.90625 
L 30.078125 72.90625 
Q 51.265625 72.90625 61.171875 64.09375 
Q 71.09375 55.28125 71.09375 36.53125 
Q 71.09375 17.671875 61.125 8.828125 
Q 51.171875 0 30.078125 0 
L 9.8125 0 
z
" id="DejaVuSans-44"/>
      <path d="M 56.203125 29.59375 
L 56.203125 25.203125 
L 14.890625 25.203125 
Q 15.484375 15.921875 20.484375 11.0625 
Q 25.484375 6.203125 34.421875 6.203125 
Q 39.59375 6.203125 44.453125 7.46875 
Q 49.3125 8.734375 54.109375 11.28125 
L 54.109375 2.78125 
Q 49.265625 0.734375 44.1875 -0.34375 
Q 39.109375 -1.421875 33.890625 -1.421875 
Q 20.796875 -1.421875 13.15625 6.1875 
Q 5.515625 13.8125 5.515625 26.8125 
Q 5.515625 40.234375 12.765625 48.109375 
Q 20.015625 56 32.328125 56 
Q 43.359375 56 49.78125 48.890625 
Q 56.203125 41.796875 56.203125 29.59375 
z
M 47.21875 32.234375 
Q 47.125 39.59375 43.09375 43.984375 
Q 39.0625 48.390625 32.421875 48.390625 
Q 24.90625 48.390625 20.390625 44.140625 
Q 15.875 39.890625 15.1875 32.171875 
z
" id="DejaVuSans-65"/>
      <path d="M 18.3125 70.21875 
L 18.3125 54.6875 
L 36.8125 54.6875 
L 36.8125 47.703125 
L 18.3125 47.703125 
L 18.3125 18.015625 
Q 18.3125 11.328125 20.140625 9.421875 
Q 21.96875 7.515625 27.59375 7.515625 
L 36.8125 7.515625 
L 36.8125 0 
L 27.59375 0 
Q 17.1875 0 13.234375 3.875 
Q 9.28125 7.765625 9.28125 18.015625 
L 9.28125 47.703125 
L 2.6875 47.703125 
L 2.6875 54.6875 
L 9.28125 54.6875 
L 9.28125 70.21875 
z
" id="DejaVuSans-74"/>
      <path d="M 8.5 21.578125 
L 8.5 54.6875 
L 17.484375 54.6875 
L 17.484375 21.921875 
Q 17.484375 14.15625 20.5 10.265625 
Q 23.53125 6.390625 29.59375 6.390625 
Q 36.859375 6.390625 41.078125 11.03125 
Q 45.3125 15.671875 45.3125 23.6875 
L 45.3125 54.6875 
L 54.296875 54.6875 
L 54.296875 0 
L 45.3125 0 
L 45.3125 8.40625 
Q 42.046875 3.421875 37.71875 1 
Q 33.40625 -1.421875 27.6875 -1.421875 
Q 18.265625 -1.421875 13.375 4.4375 
Q 8.5 10.296875 8.5 21.578125 
z
M 31.109375 56 
z
" id="DejaVuSans-75"/>
      <path d="M 54.890625 33.015625 
L 54.890625 0 
L 45.90625 0 
L 45.90625 32.71875 
Q 45.90625 40.484375 42.875 44.328125 
Q 39.84375 48.1875 33.796875 48.1875 
Q 26.515625 48.1875 22.3125 43.546875 
Q 18.109375 38.921875 18.109375 30.90625 
L 18.109375 0 
L 9.078125 0 
L 9.078125 54.6875 
L 18.109375 54.6875 
L 18.109375 46.1875 
Q 21.34375 51.125 25.703125 53.5625 
Q 30.078125 56 35.796875 56 
Q 45.21875 56 50.046875 50.171875 
Q 54.890625 44.34375 54.890625 33.015625 
z
" id="DejaVuSans-6e"/>
      <path d="M 9.421875 54.6875 
L 18.40625 54.6875 
L 18.40625 0 
L 9.421875 0 
z
M 9.421875 75.984375 
L 18.40625 75.984375 
L 18.40625 64.59375 
L 9.421875 64.59375 
z
" id="DejaVuSans-69"/>
      <path d="M 45.40625 27.984375 
Q 45.40625 37.75 41.375 43.109375 
Q 37.359375 48.484375 30.078125 48.484375 
Q 22.859375 48.484375 18.828125 43.109375 
Q 14.796875 37.75 14.796875 27.984375 
Q 14.796875 18.265625 18.828125 12.890625 
Q 22.859375 7.515625 30.078125 7.515625 
Q 37.359375 7.515625 41.375 12.890625 
Q 45.40625 18.265625 45.40625 27.984375 
z
M 54.390625 6.78125 
Q 54.390625 -7.171875 48.1875 -13.984375 
Q 42 -20.796875 29.203125 -20.796875 
Q 24.46875 -20.796875 20.265625 -20.09375 
Q 16.0625 -19.390625 12.109375 -17.921875 
L 12.109375 -9.1875 
Q 16.0625 -11.328125 19.921875 -12.34375 
Q 23.78125 -13.375 27.78125 -13.375 
Q 36.625 -13.375 41.015625 -8.765625 
Q 45.40625 -4.15625 45.40625 5.171875 
L 45.40625 9.625 
Q 42.625 4.78125 38.28125 2.390625 
Q 33.9375 0 27.875 0 
Q 17.828125 0 11.671875 7.65625 
Q 5.515625 15.328125 5.515625 27.984375 
Q 5.515625 40.671875 11.671875 48.328125 
Q 17.828125 56 27.875 56 
Q 33.9375 56 38.28125 53.609375 
Q 42.625 51.21875 45.40625 46.390625 
L 45.40625 54.6875 
L 54.390625 54.6875 
z
" id="DejaVuSans-67"/>
      <path id="DejaVuSans-20"/>
      <path d="M 31 75.875 
Q 24.46875 64.65625 21.28125 53.65625 
Q 18.109375 42.671875 18.109375 31.390625 
Q 18.109375 20.125 21.3125 9.0625 
Q 24.515625 -2 31 -13.1875 
L 23.1875 -13.1875 
Q 15.875 -1.703125 12.234375 9.375 
Q 8.59375 20.453125 8.59375 31.390625 
Q 8.59375 42.28125 12.203125 53.3125 
Q 15.828125 64.359375 23.1875 75.875 
z
" id="DejaVuSans-28"/>
      <path d="M 9.078125 75.984375 
L 18.109375 75.984375 
L 18.109375 31.109375 
L 44.921875 54.6875 
L 56.390625 54.6875 
L 27.390625 29.109375 
L 57.625 0 
L 45.90625 0 
L 18.109375 26.703125 
L 18.109375 0 
L 9.078125 0 
z
" id="DejaVuSans-6b"/>
      <path d="M 9.8125 72.90625 
L 19.671875 72.90625 
L 19.671875 43.015625 
L 55.515625 43.015625 
L 55.515625 72.90625 
L 65.375 72.90625 
L 65.375 0 
L 55.515625 0 
L 55.515625 34.71875 
L 19.671875 34.71875 
L 19.671875 0 
L 9.8125 0 
z
" id="DejaVuSans-48"/>
      <path d="M 5.515625 54.6875 
L 48.1875 54.6875 
L 48.1875 46.484375 
L 14.40625 7.171875 
L 48.1875 7.171875 
L 48.1875 0 
L 4.296875 0 
L 4.296875 8.203125 
L 38.09375 47.515625 
L 5.515625 47.515625 
z
" id="DejaVuSans-7a"/>
      <path d="M 8.015625 75.875 
L 15.828125 75.875 
Q 23.140625 64.359375 26.78125 53.3125 
Q 30.421875 42.28125 30.421875 31.390625 
Q 30.421875 20.453125 26.78125 9.375 
Q 23.140625 -1.703125 15.828125 -13.1875 
L 8.015625 -13.1875 
Q 14.5 -2 17.703125 9.0625 
Q 20.90625 20.125 20.90625 31.390625 
Q 20.90625 42.671875 17.703125 53.65625 
Q 14.5 64.65625 8.015625 75.875 
z
" id="DejaVuSans-29"/>
     </defs>
     <g transform="translate(164.517813 338.262312)scale(0.2 -0.2)">
      <use xlink:href="#DejaVuSans-44"/>
      <use x="77.001953" xlink:href="#DejaVuSans-65"/>
      <use x="138.525391" xlink:href="#DejaVuSans-74"/>
      <use x="177.734375" xlink:href="#DejaVuSans-75"/>
      <use x="241.113281" xlink:href="#DejaVuSans-6e"/>
      <use x="304.492188" xlink:href="#DejaVuSans-69"/>
      <use x="332.275391" xlink:href="#DejaVuSans-6e"/>
      <use x="395.654297" xlink:href="#DejaVuSans-67"/>
      <use x="459.130859" xlink:href="#DejaVuSans-20"/>
      <use x="490.917969" xlink:href="#DejaVuSans-28"/>
      <use x="529.931641" xlink:href="#DejaVuSans-6b"/>
      <use x="587.841797" xlink:href="#DejaVuSans-48"/>
      <use x="663.037109" xlink:href="#DejaVuSans-7a"/>
      <use x="715.527344" xlink:href="#DejaVuSans-29"/>
     </g>
    </g>
   </g>
   <g id="matplotlib.axis_2">
    <g id="ytick_1">
     <g id="line2d_15">
      <path clip-path="url(#pbcf3292bdb)" d="M 61.410938 297.54825 
L 418.530938 297.54825 
" style="fill:none;stroke:#b0b0b0;stroke-linecap:square;stroke-width:0.8;"/>
     </g>
     <g id="line2d_16">
      <defs>
       <path d="M 0 0 
L -3.5 0 
" id="mc3ce260a5b" style="stroke:#000000;stroke-width:0.8;"/>
      </defs>
      <g>
       <use style="stroke:#000000;stroke-width:0.8;" x="61.410938" xlink:href="#mc3ce260a5b" y="297.54825"/>
      </g>
     </g>
     <g id="text_9">
      <!-- 0.0 -->
      <defs>
       <path d="M 10.6875 12.40625 
L 21 12.40625 
L 21 0 
L 10.6875 0 
z
" id="DejaVuSans-2e"/>
      </defs>
      <g transform="translate(30.55625 303.247078)scale(0.15 -0.15)">
       <use xlink:href="#DejaVuSans-30"/>
       <use x="63.623047" xlink:href="#DejaVuSans-2e"/>
       <use x="95.410156" xlink:href="#DejaVuSans-30"/>
      </g>
     </g>
    </g>
    <g id="ytick_2">
     <g id="line2d_17">
      <path clip-path="url(#pbcf3292bdb)" d="M 61.410938 264.28425 
L 418.530938 264.28425 
" style="fill:none;stroke:#b0b0b0;stroke-linecap:square;stroke-width:0.8;"/>
     </g>
     <g id="line2d_18">
      <g>
       <use style="stroke:#000000;stroke-width:0.8;" x="61.410938" xlink:href="#mc3ce260a5b" y="264.28425"/>
      </g>
     </g>
     <g id="text_10">
      <!-- 0.1 -->
      <g transform="translate(30.55625 269.983078)scale(0.15 -0.15)">
       <use xlink:href="#DejaVuSans-30"/>
       <use x="63.623047" xlink:href="#DejaVuSans-2e"/>
       <use x="95.410156" xlink:href="#DejaVuSans-31"/>
      </g>
     </g>
    </g>
    <g id="ytick_3">
     <g id="line2d_19">
      <path clip-path="url(#pbcf3292bdb)" d="M 61.410938 231.02025 
L 418.530938 231.02025 
" style="fill:none;stroke:#b0b0b0;stroke-linecap:square;stroke-width:0.8;"/>
     </g>
     <g id="line2d_20">
      <g>
       <use style="stroke:#000000;stroke-width:0.8;" x="61.410938" xlink:href="#mc3ce260a5b" y="231.02025"/>
      </g>
     </g>
     <g id="text_11">
      <!-- 0.2 -->
      <g transform="translate(30.55625 236.719078)scale(0.15 -0.15)">
       <use xlink:href="#DejaVuSans-30"/>
       <use x="63.623047" xlink:href="#DejaVuSans-2e"/>
       <use x="95.410156" xlink:href="#DejaVuSans-32"/>
      </g>
     </g>
    </g>
    <g id="ytick_4">
     <g id="line2d_21">
      <path clip-path="url(#pbcf3292bdb)" d="M 61.410938 197.75625 
L 418.530938 197.75625 
" style="fill:none;stroke:#b0b0b0;stroke-linecap:square;stroke-width:0.8;"/>
     </g>
     <g id="line2d_22">
      <g>
       <use style="stroke:#000000;stroke-width:0.8;" x="61.410938" xlink:href="#mc3ce260a5b" y="197.75625"/>
      </g>
     </g>
     <g id="text_12">
      <!-- 0.3 -->
      <defs>
       <path d="M 40.578125 39.3125 
Q 47.65625 37.796875 51.625 33 
Q 55.609375 28.21875 55.609375 21.1875 
Q 55.609375 10.40625 48.1875 4.484375 
Q 40.765625 -1.421875 27.09375 -1.421875 
Q 22.515625 -1.421875 17.65625 -0.515625 
Q 12.796875 0.390625 7.625 2.203125 
L 7.625 11.71875 
Q 11.71875 9.328125 16.59375 8.109375 
Q 21.484375 6.890625 26.8125 6.890625 
Q 36.078125 6.890625 40.9375 10.546875 
Q 45.796875 14.203125 45.796875 21.1875 
Q 45.796875 27.640625 41.28125 31.265625 
Q 36.765625 34.90625 28.71875 34.90625 
L 20.21875 34.90625 
L 20.21875 43.015625 
L 29.109375 43.015625 
Q 36.375 43.015625 40.234375 45.921875 
Q 44.09375 48.828125 44.09375 54.296875 
Q 44.09375 59.90625 40.109375 62.90625 
Q 36.140625 65.921875 28.71875 65.921875 
Q 24.65625 65.921875 20.015625 65.03125 
Q 15.375 64.15625 9.8125 62.3125 
L 9.8125 71.09375 
Q 15.4375 72.65625 20.34375 73.4375 
Q 25.25 74.21875 29.59375 74.21875 
Q 40.828125 74.21875 47.359375 69.109375 
Q 53.90625 64.015625 53.90625 55.328125 
Q 53.90625 49.265625 50.4375 45.09375 
Q 46.96875 40.921875 40.578125 39.3125 
z
" id="DejaVuSans-33"/>
      </defs>
      <g transform="translate(30.55625 203.455078)scale(0.15 -0.15)">
       <use xlink:href="#DejaVuSans-30"/>
       <use x="63.623047" xlink:href="#DejaVuSans-2e"/>
       <use x="95.410156" xlink:href="#DejaVuSans-33"/>
      </g>
     </g>
    </g>
    <g id="ytick_5">
     <g id="line2d_23">
      <path clip-path="url(#pbcf3292bdb)" d="M 61.410938 164.49225 
L 418.530938 164.49225 
" style="fill:none;stroke:#b0b0b0;stroke-linecap:square;stroke-width:0.8;"/>
     </g>
     <g id="line2d_24">
      <g>
       <use style="stroke:#000000;stroke-width:0.8;" x="61.410938" xlink:href="#mc3ce260a5b" y="164.49225"/>
      </g>
     </g>
     <g id="text_13">
      <!-- 0.4 -->
      <defs>
       <path d="M 37.796875 64.3125 
L 12.890625 25.390625 
L 37.796875 25.390625 
z
M 35.203125 72.90625 
L 47.609375 72.90625 
L 47.609375 25.390625 
L 58.015625 25.390625 
L 58.015625 17.1875 
L 47.609375 17.1875 
L 47.609375 0 
L 37.796875 0 
L 37.796875 17.1875 
L 4.890625 17.1875 
L 4.890625 26.703125 
z
" id="DejaVuSans-34"/>
      </defs>
      <g transform="translate(30.55625 170.191078)scale(0.15 -0.15)">
       <use xlink:href="#DejaVuSans-30"/>
       <use x="63.623047" xlink:href="#DejaVuSans-2e"/>
       <use x="95.410156" xlink:href="#DejaVuSans-34"/>
      </g>
     </g>
    </g>
    <g id="ytick_6">
     <g id="line2d_25">
      <path clip-path="url(#pbcf3292bdb)" d="M 61.410938 131.22825 
L 418.530938 131.22825 
" style="fill:none;stroke:#b0b0b0;stroke-linecap:square;stroke-width:0.8;"/>
     </g>
     <g id="line2d_26">
      <g>
       <use style="stroke:#000000;stroke-width:0.8;" x="61.410938" xlink:href="#mc3ce260a5b" y="131.22825"/>
      </g>
     </g>
     <g id="text_14">
      <!-- 0.5 -->
      <g transform="translate(30.55625 136.927078)scale(0.15 -0.15)">
       <use xlink:href="#DejaVuSans-30"/>
       <use x="63.623047" xlink:href="#DejaVuSans-2e"/>
       <use x="95.410156" xlink:href="#DejaVuSans-35"/>
      </g>
     </g>
    </g>
    <g id="ytick_7">
     <g id="line2d_27">
      <path clip-path="url(#pbcf3292bdb)" d="M 61.410938 97.96425 
L 418.530938 97.96425 
" style="fill:none;stroke:#b0b0b0;stroke-linecap:square;stroke-width:0.8;"/>
     </g>
     <g id="line2d_28">
      <g>
       <use style="stroke:#000000;stroke-width:0.8;" x="61.410938" xlink:href="#mc3ce260a5b" y="97.96425"/>
      </g>
     </g>
     <g id="text_15">
      <!-- 0.6 -->
      <defs>
       <path d="M 33.015625 40.375 
Q 26.375 40.375 22.484375 35.828125 
Q 18.609375 31.296875 18.609375 23.390625 
Q 18.609375 15.53125 22.484375 10.953125 
Q 26.375 6.390625 33.015625 6.390625 
Q 39.65625 6.390625 43.53125 10.953125 
Q 47.40625 15.53125 47.40625 23.390625 
Q 47.40625 31.296875 43.53125 35.828125 
Q 39.65625 40.375 33.015625 40.375 
z
M 52.59375 71.296875 
L 52.59375 62.3125 
Q 48.875 64.0625 45.09375 64.984375 
Q 41.3125 65.921875 37.59375 65.921875 
Q 27.828125 65.921875 22.671875 59.328125 
Q 17.53125 52.734375 16.796875 39.40625 
Q 19.671875 43.65625 24.015625 45.921875 
Q 28.375 48.1875 33.59375 48.1875 
Q 44.578125 48.1875 50.953125 41.515625 
Q 57.328125 34.859375 57.328125 23.390625 
Q 57.328125 12.15625 50.6875 5.359375 
Q 44.046875 -1.421875 33.015625 -1.421875 
Q 20.359375 -1.421875 13.671875 8.265625 
Q 6.984375 17.96875 6.984375 36.375 
Q 6.984375 53.65625 15.1875 63.9375 
Q 23.390625 74.21875 37.203125 74.21875 
Q 40.921875 74.21875 44.703125 73.484375 
Q 48.484375 72.75 52.59375 71.296875 
z
" id="DejaVuSans-36"/>
      </defs>
      <g transform="translate(30.55625 103.663078)scale(0.15 -0.15)">
       <use xlink:href="#DejaVuSans-30"/>
       <use x="63.623047" xlink:href="#DejaVuSans-2e"/>
       <use x="95.410156" xlink:href="#DejaVuSans-36"/>
      </g>
     </g>
    </g>
    <g id="ytick_8">
     <g id="line2d_29">
      <path clip-path="url(#pbcf3292bdb)" d="M 61.410938 64.70025 
L 418.530938 64.70025 
" style="fill:none;stroke:#b0b0b0;stroke-linecap:square;stroke-width:0.8;"/>
     </g>
     <g id="line2d_30">
      <g>
       <use style="stroke:#000000;stroke-width:0.8;" x="61.410938" xlink:href="#mc3ce260a5b" y="64.70025"/>
      </g>
     </g>
     <g id="text_16">
      <!-- 0.7 -->
      <g transform="translate(30.55625 70.399078)scale(0.15 -0.15)">
       <use xlink:href="#DejaVuSans-30"/>
       <use x="63.623047" xlink:href="#DejaVuSans-2e"/>
       <use x="95.410156" xlink:href="#DejaVuSans-37"/>
      </g>
     </g>
    </g>
    <g id="ytick_9">
     <g id="line2d_31">
      <path clip-path="url(#pbcf3292bdb)" d="M 61.410938 31.43625 
L 418.530938 31.43625 
" style="fill:none;stroke:#b0b0b0;stroke-linecap:square;stroke-width:0.8;"/>
     </g>
     <g id="line2d_32">
      <g>
       <use style="stroke:#000000;stroke-width:0.8;" x="61.410938" xlink:href="#mc3ce260a5b" y="31.43625"/>
      </g>
     </g>
     <g id="text_17">
      <!-- 0.8 -->
      <defs>
       <path d="M 31.78125 34.625 
Q 24.75 34.625 20.71875 30.859375 
Q 16.703125 27.09375 16.703125 20.515625 
Q 16.703125 13.921875 20.71875 10.15625 
Q 24.75 6.390625 31.78125 6.390625 
Q 38.8125 6.390625 42.859375 10.171875 
Q 46.921875 13.96875 46.921875 20.515625 
Q 46.921875 27.09375 42.890625 30.859375 
Q 38.875 34.625 31.78125 34.625 
z
M 21.921875 38.8125 
Q 15.578125 40.375 12.03125 44.71875 
Q 8.5 49.078125 8.5 55.328125 
Q 8.5 64.0625 14.71875 69.140625 
Q 20.953125 74.21875 31.78125 74.21875 
Q 42.671875 74.21875 48.875 69.140625 
Q 55.078125 64.0625 55.078125 55.328125 
Q 55.078125 49.078125 51.53125 44.71875 
Q 48 40.375 41.703125 38.8125 
Q 48.828125 37.15625 52.796875 32.3125 
Q 56.78125 27.484375 56.78125 20.515625 
Q 56.78125 9.90625 50.3125 4.234375 
Q 43.84375 -1.421875 31.78125 -1.421875 
Q 19.734375 -1.421875 13.25 4.234375 
Q 6.78125 9.90625 6.78125 20.515625 
Q 6.78125 27.484375 10.78125 32.3125 
Q 14.796875 37.15625 21.921875 38.8125 
z
M 18.3125 54.390625 
Q 18.3125 48.734375 21.84375 45.5625 
Q 25.390625 42.390625 31.78125 42.390625 
Q 38.140625 42.390625 41.71875 45.5625 
Q 45.3125 48.734375 45.3125 54.390625 
Q 45.3125 60.0625 41.71875 63.234375 
Q 38.140625 66.40625 31.78125 66.40625 
Q 25.390625 66.40625 21.84375 63.234375 
Q 18.3125 60.0625 18.3125 54.390625 
z
" id="DejaVuSans-38"/>
      </defs>
      <g transform="translate(30.55625 37.135078)scale(0.15 -0.15)">
       <use xlink:href="#DejaVuSans-30"/>
       <use x="63.623047" xlink:href="#DejaVuSans-2e"/>
       <use x="95.410156" xlink:href="#DejaVuSans-38"/>
      </g>
     </g>
    </g>
    <g id="text_18">
     <!-- Survival -->
     <defs>
      <path d="M 53.515625 70.515625 
L 53.515625 60.890625 
Q 47.90625 63.578125 42.921875 64.890625 
Q 37.9375 66.21875 33.296875 66.21875 
Q 25.25 66.21875 20.875 63.09375 
Q 16.5 59.96875 16.5 54.203125 
Q 16.5 49.359375 19.40625 46.890625 
Q 22.3125 44.4375 30.421875 42.921875 
L 36.375 41.703125 
Q 47.40625 39.59375 52.65625 34.296875 
Q 57.90625 29 57.90625 20.125 
Q 57.90625 9.515625 50.796875 4.046875 
Q 43.703125 -1.421875 29.984375 -1.421875 
Q 24.8125 -1.421875 18.96875 -0.25 
Q 13.140625 0.921875 6.890625 3.21875 
L 6.890625 13.375 
Q 12.890625 10.015625 18.65625 8.296875 
Q 24.421875 6.59375 29.984375 6.59375 
Q 38.421875 6.59375 43.015625 9.90625 
Q 47.609375 13.234375 47.609375 19.390625 
Q 47.609375 24.75 44.3125 27.78125 
Q 41.015625 30.8125 33.5 32.328125 
L 27.484375 33.5 
Q 16.453125 35.6875 11.515625 40.375 
Q 6.59375 45.0625 6.59375 53.421875 
Q 6.59375 63.09375 13.40625 68.65625 
Q 20.21875 74.21875 32.171875 74.21875 
Q 37.3125 74.21875 42.625 73.28125 
Q 47.953125 72.359375 53.515625 70.515625 
z
" id="DejaVuSans-53"/>
      <path d="M 41.109375 46.296875 
Q 39.59375 47.171875 37.8125 47.578125 
Q 36.03125 48 33.890625 48 
Q 26.265625 48 22.1875 43.046875 
Q 18.109375 38.09375 18.109375 28.8125 
L 18.109375 0 
L 9.078125 0 
L 9.078125 54.6875 
L 18.109375 54.6875 
L 18.109375 46.1875 
Q 20.953125 51.171875 25.484375 53.578125 
Q 30.03125 56 36.53125 56 
Q 37.453125 56 38.578125 55.875 
Q 39.703125 55.765625 41.0625 55.515625 
z
" id="DejaVuSans-72"/>
      <path d="M 2.984375 54.6875 
L 12.5 54.6875 
L 29.59375 8.796875 
L 46.6875 54.6875 
L 56.203125 54.6875 
L 35.6875 0 
L 23.484375 0 
z
" id="DejaVuSans-76"/>
      <path d="M 34.28125 27.484375 
Q 23.390625 27.484375 19.1875 25 
Q 14.984375 22.515625 14.984375 16.5 
Q 14.984375 11.71875 18.140625 8.90625 
Q 21.296875 6.109375 26.703125 6.109375 
Q 34.1875 6.109375 38.703125 11.40625 
Q 43.21875 16.703125 43.21875 25.484375 
L 43.21875 27.484375 
z
M 52.203125 31.203125 
L 52.203125 0 
L 43.21875 0 
L 43.21875 8.296875 
Q 40.140625 3.328125 35.546875 0.953125 
Q 30.953125 -1.421875 24.3125 -1.421875 
Q 15.921875 -1.421875 10.953125 3.296875 
Q 6 8.015625 6 15.921875 
Q 6 25.140625 12.171875 29.828125 
Q 18.359375 34.515625 30.609375 34.515625 
L 43.21875 34.515625 
L 43.21875 35.40625 
Q 43.21875 41.609375 39.140625 45 
Q 35.0625 48.390625 27.6875 48.390625 
Q 23 48.390625 18.546875 47.265625 
Q 14.109375 46.140625 10.015625 43.890625 
L 10.015625 52.203125 
Q 14.9375 54.109375 19.578125 55.046875 
Q 24.21875 56 28.609375 56 
Q 40.484375 56 46.34375 49.84375 
Q 52.203125 43.703125 52.203125 31.203125 
z
" id="DejaVuSans-61"/>
      <path d="M 9.421875 75.984375 
L 18.40625 75.984375 
L 18.40625 0 
L 9.421875 0 
z
" id="DejaVuSans-6c"/>
     </defs>
     <g transform="translate(22.396875 204.811)rotate(-90)scale(0.2 -0.2)">
      <use xlink:href="#DejaVuSans-53"/>
      <use x="63.476562" xlink:href="#DejaVuSans-75"/>
      <use x="126.855469" xlink:href="#DejaVuSans-72"/>
      <use x="167.96875" xlink:href="#DejaVuSans-76"/>
      <use x="227.148438" xlink:href="#DejaVuSans-69"/>
      <use x="254.931641" xlink:href="#DejaVuSans-76"/>
      <use x="314.111328" xlink:href="#DejaVuSans-61"/>
      <use x="375.390625" xlink:href="#DejaVuSans-6c"/>
     </g>
    </g>
   </g>
   <g id="LineCollection_1">
    <path clip-path="url(#pbcf3292bdb)" d="M 250.792756 297.54825 
L 250.792756 293.11305 
" style="fill:none;stroke:#1f77b4;stroke-width:1.5;"/>
    <path clip-path="url(#pbcf3292bdb)" d="M 252.957119 297.54825 
L 252.957119 293.053115 
" style="fill:none;stroke:#1f77b4;stroke-width:1.5;"/>
    <path clip-path="url(#pbcf3292bdb)" d="M 255.121483 297.54825 
L 255.121483 293.283635 
" style="fill:none;stroke:#1f77b4;stroke-width:1.5;"/>
    <path clip-path="url(#pbcf3292bdb)" d="M 257.285847 297.54825 
L 257.285847 292.50825 
" style="fill:none;stroke:#1f77b4;stroke-width:1.5;"/>
    <path clip-path="url(#pbcf3292bdb)" d="M 259.45021 297.54825 
L 259.45021 292.50825 
" style="fill:none;stroke:#1f77b4;stroke-width:1.5;"/>
    <path clip-path="url(#pbcf3292bdb)" d="M 261.614574 297.54825 
L 261.614574 292.86318 
" style="fill:none;stroke:#1f77b4;stroke-width:1.5;"/>
    <path clip-path="url(#pbcf3292bdb)" d="M 263.778937 297.54825 
L 263.778937 293.337617 
" style="fill:none;stroke:#1f77b4;stroke-width:1.5;"/>
    <path clip-path="url(#pbcf3292bdb)" d="M 265.943301 296.014276 
L 265.943301 287.202224 
" style="fill:none;stroke:#1f77b4;stroke-width:1.5;"/>
    <path clip-path="url(#pbcf3292bdb)" d="M 268.107665 297.54825 
L 268.107665 293.337617 
" style="fill:none;stroke:#1f77b4;stroke-width:1.5;"/>
    <path clip-path="url(#pbcf3292bdb)" d="M 270.272028 297.54825 
L 270.272028 293.441583 
" style="fill:none;stroke:#1f77b4;stroke-width:1.5;"/>
    <path clip-path="url(#pbcf3292bdb)" d="M 272.436392 297.54825 
L 272.436392 293.22825 
" style="fill:none;stroke:#1f77b4;stroke-width:1.5;"/>
    <path clip-path="url(#pbcf3292bdb)" d="M 274.600756 297.54825 
L 274.600756 292.92825 
" style="fill:none;stroke:#1f77b4;stroke-width:1.5;"/>
    <path clip-path="url(#pbcf3292bdb)" d="M 276.765119 297.54825 
L 276.765119 292.991538 
" style="fill:none;stroke:#1f77b4;stroke-width:1.5;"/>
    <path clip-path="url(#pbcf3292bdb)" d="M 278.929483 297.54825 
L 278.929483 292.86318 
" style="fill:none;stroke:#1f77b4;stroke-width:1.5;"/>
    <path clip-path="url(#pbcf3292bdb)" d="M 281.093847 295.647012 
L 281.093847 284.774193 
" style="fill:none;stroke:#1f77b4;stroke-width:1.5;"/>
    <path clip-path="url(#pbcf3292bdb)" d="M 283.25821 296.084943 
L 283.25821 287.671557 
" style="fill:none;stroke:#1f77b4;stroke-width:1.5;"/>
    <path clip-path="url(#pbcf3292bdb)" d="M 285.422574 295.675043 
L 285.422574 284.958849 
" style="fill:none;stroke:#1f77b4;stroke-width:1.5;"/>
    <path clip-path="url(#pbcf3292bdb)" d="M 287.586938 295.915727 
L 287.586938 286.548874 
" style="fill:none;stroke:#1f77b4;stroke-width:1.5;"/>
    <path clip-path="url(#pbcf3292bdb)" d="M 289.751301 295.230896 
L 289.751301 282.045604 
" style="fill:none;stroke:#1f77b4;stroke-width:1.5;"/>
    <path clip-path="url(#pbcf3292bdb)" d="M 291.915665 295.675043 
L 291.915665 284.958849 
" style="fill:none;stroke:#1f77b4;stroke-width:1.5;"/>
    <path clip-path="url(#pbcf3292bdb)" d="M 294.080028 297.54825 
L 294.080028 292.79625 
" style="fill:none;stroke:#1f77b4;stroke-width:1.5;"/>
    <path clip-path="url(#pbcf3292bdb)" d="M 296.244392 297.54825 
L 296.244392 292.86318 
" style="fill:none;stroke:#1f77b4;stroke-width:1.5;"/>
    <path clip-path="url(#pbcf3292bdb)" d="M 298.408756 297.54825 
L 298.408756 294.08325 
" style="fill:none;stroke:#1f77b4;stroke-width:1.5;"/>
    <path clip-path="url(#pbcf3292bdb)" d="M 300.573119 297.54825 
L 300.573119 292.50825 
" style="fill:none;stroke:#1f77b4;stroke-width:1.5;"/>
    <path clip-path="url(#pbcf3292bdb)" d="M 302.737483 297.54825 
L 302.737483 292.26825 
" style="fill:none;stroke:#1f77b4;stroke-width:1.5;"/>
    <path clip-path="url(#pbcf3292bdb)" d="M 304.901847 297.54825 
L 304.901847 293.171408 
" style="fill:none;stroke:#1f77b4;stroke-width:1.5;"/>
    <path clip-path="url(#pbcf3292bdb)" d="M 307.06621 297.54825 
L 307.06621 293.283635 
" style="fill:none;stroke:#1f77b4;stroke-width:1.5;"/>
    <path clip-path="url(#pbcf3292bdb)" d="M 309.230574 297.54825 
L 309.230574 293.283635 
" style="fill:none;stroke:#1f77b4;stroke-width:1.5;"/>
    <path clip-path="url(#pbcf3292bdb)" d="M 311.394938 297.54825 
L 311.394938 292.26825 
" style="fill:none;stroke:#1f77b4;stroke-width:1.5;"/>
    <path clip-path="url(#pbcf3292bdb)" d="M 313.559301 297.54825 
L 313.559301 293.540539 
" style="fill:none;stroke:#1f77b4;stroke-width:1.5;"/>
    <path clip-path="url(#pbcf3292bdb)" d="M 315.723665 295.728695 
L 315.723665 285.312594 
" style="fill:none;stroke:#1f77b4;stroke-width:1.5;"/>
    <path clip-path="url(#pbcf3292bdb)" d="M 317.888028 295.99553 
L 317.888028 287.077838 
" style="fill:none;stroke:#1f77b4;stroke-width:1.5;"/>
    <path clip-path="url(#pbcf3292bdb)" d="M 320.052392 297.54825 
L 320.052392 292.92825 
" style="fill:none;stroke:#1f77b4;stroke-width:1.5;"/>
    <path clip-path="url(#pbcf3292bdb)" d="M 322.216756 295.936437 
L 322.216756 286.686063 
" style="fill:none;stroke:#1f77b4;stroke-width:1.5;"/>
    <path clip-path="url(#pbcf3292bdb)" d="M 324.381119 297.54825 
L 324.381119 292.35075 
" style="fill:none;stroke:#1f77b4;stroke-width:1.5;"/>
    <path clip-path="url(#pbcf3292bdb)" d="M 326.545483 295.850277 
L 326.545483 286.115697 
" style="fill:none;stroke:#1f77b4;stroke-width:1.5;"/>
    <path clip-path="url(#pbcf3292bdb)" d="M 328.709847 297.54825 
L 328.709847 293.337617 
" style="fill:none;stroke:#1f77b4;stroke-width:1.5;"/>
    <path clip-path="url(#pbcf3292bdb)" d="M 330.87421 297.54825 
L 330.87421 291.813078 
" style="fill:none;stroke:#1f77b4;stroke-width:1.5;"/>
    <path clip-path="url(#pbcf3292bdb)" d="M 333.038574 297.54825 
L 333.038574 292.92825 
" style="fill:none;stroke:#1f77b4;stroke-width:1.5;"/>
    <path clip-path="url(#pbcf3292bdb)" d="M 335.202938 297.54825 
L 335.202938 293.634838 
" style="fill:none;stroke:#1f77b4;stroke-width:1.5;"/>
    <path clip-path="url(#pbcf3292bdb)" d="M 337.367301 297.54825 
L 337.367301 292.92825 
" style="fill:none;stroke:#1f77b4;stroke-width:1.5;"/>
    <path clip-path="url(#pbcf3292bdb)" d="M 339.531665 297.54825 
L 339.531665 292.991538 
" style="fill:none;stroke:#1f77b4;stroke-width:1.5;"/>
    <path clip-path="url(#pbcf3292bdb)" d="M 341.696028 297.54825 
L 341.696028 293.441583 
" style="fill:none;stroke:#1f77b4;stroke-width:1.5;"/>
    <path clip-path="url(#pbcf3292bdb)" d="M 343.860392 297.54825 
L 343.860392 292.72738 
" style="fill:none;stroke:#1f77b4;stroke-width:1.5;"/>
    <path clip-path="url(#pbcf3292bdb)" d="M 346.024756 295.618131 
L 346.024756 284.584041 
" style="fill:none;stroke:#1f77b4;stroke-width:1.5;"/>
    <path clip-path="url(#pbcf3292bdb)" d="M 348.189119 282.575904 
L 348.189119 262.396761 
" style="fill:none;stroke:#1f77b4;stroke-width:1.5;"/>
    <path clip-path="url(#pbcf3292bdb)" d="M 350.353483 237.74647 
L 350.353483 204.89003 
" style="fill:none;stroke:#1f77b4;stroke-width:1.5;"/>
    <path clip-path="url(#pbcf3292bdb)" d="M 352.517847 122.568327 
L 352.517847 83.667328 
" style="fill:none;stroke:#1f77b4;stroke-width:1.5;"/>
    <path clip-path="url(#pbcf3292bdb)" d="M 354.68221 149.416922 
L 354.68221 107.842078 
" style="fill:none;stroke:#1f77b4;stroke-width:1.5;"/>
    <path clip-path="url(#pbcf3292bdb)" d="M 356.846574 124.964839 
L 356.846574 82.960514 
" style="fill:none;stroke:#1f77b4;stroke-width:1.5;"/>
    <path clip-path="url(#pbcf3292bdb)" d="M 359.010938 235.487314 
L 359.010938 198.833186 
" style="fill:none;stroke:#1f77b4;stroke-width:1.5;"/>
    <path clip-path="url(#pbcf3292bdb)" d="M 361.175301 257.69636 
L 361.175301 232.546227 
" style="fill:none;stroke:#1f77b4;stroke-width:1.5;"/>
    <path clip-path="url(#pbcf3292bdb)" d="M 363.339665 288.660836 
L 363.339665 270.612895 
" style="fill:none;stroke:#1f77b4;stroke-width:1.5;"/>
    <path clip-path="url(#pbcf3292bdb)" d="M 365.504028 295.779359 
L 365.504028 285.647004 
" style="fill:none;stroke:#1f77b4;stroke-width:1.5;"/>
    <path clip-path="url(#pbcf3292bdb)" d="M 367.668392 297.54825 
L 367.668392 292.991538 
" style="fill:none;stroke:#1f77b4;stroke-width:1.5;"/>
    <path clip-path="url(#pbcf3292bdb)" d="M 369.832756 295.459477 
L 369.832756 283.541539 
" style="fill:none;stroke:#1f77b4;stroke-width:1.5;"/>
    <path clip-path="url(#pbcf3292bdb)" d="M 371.997119 297.54825 
L 371.997119 293.680343 
" style="fill:none;stroke:#1f77b4;stroke-width:1.5;"/>
    <path clip-path="url(#pbcf3292bdb)" d="M 374.161483 297.54825 
L 374.161483 293.283635 
" style="fill:none;stroke:#1f77b4;stroke-width:1.5;"/>
    <path clip-path="url(#pbcf3292bdb)" d="M 376.325847 297.54825 
L 376.325847 292.92825 
" style="fill:none;stroke:#1f77b4;stroke-width:1.5;"/>
    <path clip-path="url(#pbcf3292bdb)" d="M 378.49021 297.54825 
L 378.49021 292.72738 
" style="fill:none;stroke:#1f77b4;stroke-width:1.5;"/>
   </g>
   <g id="LineCollection_2">
    <path clip-path="url(#pbcf3292bdb)" d="M 77.643665 297.54825 
L 77.643665 293.932598 
" style="fill:none;stroke:#ff7f0e;stroke-width:1.5;"/>
    <path clip-path="url(#pbcf3292bdb)" d="M 79.808028 292.773366 
L 79.808028 278.897782 
" style="fill:none;stroke:#ff7f0e;stroke-width:1.5;"/>
    <path clip-path="url(#pbcf3292bdb)" d="M 81.972392 293.372754 
L 81.972392 281.190412 
" style="fill:none;stroke:#ff7f0e;stroke-width:1.5;"/>
    <path clip-path="url(#pbcf3292bdb)" d="M 84.136756 286.026675 
L 84.136756 267.489825 
" style="fill:none;stroke:#ff7f0e;stroke-width:1.5;"/>
    <path clip-path="url(#pbcf3292bdb)" d="M 86.301119 292.323345 
L 86.301119 277.185462 
" style="fill:none;stroke:#ff7f0e;stroke-width:1.5;"/>
    <path clip-path="url(#pbcf3292bdb)" d="M 88.465483 286.646174 
L 88.465483 269.058747 
" style="fill:none;stroke:#ff7f0e;stroke-width:1.5;"/>
    <path clip-path="url(#pbcf3292bdb)" d="M 90.629847 286.026675 
L 90.629847 267.489825 
" style="fill:none;stroke:#ff7f0e;stroke-width:1.5;"/>
    <path clip-path="url(#pbcf3292bdb)" d="M 92.79421 285.689747 
L 92.79421 266.638753 
" style="fill:none;stroke:#ff7f0e;stroke-width:1.5;"/>
    <path clip-path="url(#pbcf3292bdb)" d="M 94.958574 293.753804 
L 94.958574 282.655056 
" style="fill:none;stroke:#ff7f0e;stroke-width:1.5;"/>
    <path clip-path="url(#pbcf3292bdb)" d="M 97.122937 297.54825 
L 97.122937 293.22825 
" style="fill:none;stroke:#ff7f0e;stroke-width:1.5;"/>
    <path clip-path="url(#pbcf3292bdb)" d="M 99.287301 297.54825 
L 99.287301 292.86318 
" style="fill:none;stroke:#ff7f0e;stroke-width:1.5;"/>
    <path clip-path="url(#pbcf3292bdb)" d="M 101.451665 289.427882 
L 101.451665 272.873125 
" style="fill:none;stroke:#ff7f0e;stroke-width:1.5;"/>
    <path clip-path="url(#pbcf3292bdb)" d="M 103.616028 295.525969 
L 103.616028 283.978031 
" style="fill:none;stroke:#ff7f0e;stroke-width:1.5;"/>
    <path clip-path="url(#pbcf3292bdb)" d="M 105.780392 265.908701 
L 105.780392 238.899799 
" style="fill:none;stroke:#ff7f0e;stroke-width:1.5;"/>
    <path clip-path="url(#pbcf3292bdb)" d="M 107.944756 252.632862 
L 107.944756 221.941898 
" style="fill:none;stroke:#ff7f0e;stroke-width:1.5;"/>
    <path clip-path="url(#pbcf3292bdb)" d="M 110.109119 204.851084 
L 110.109119 169.871416 
" style="fill:none;stroke:#ff7f0e;stroke-width:1.5;"/>
    <path clip-path="url(#pbcf3292bdb)" d="M 112.273483 191.429501 
L 112.273483 155.239657 
" style="fill:none;stroke:#ff7f0e;stroke-width:1.5;"/>
    <path clip-path="url(#pbcf3292bdb)" d="M 114.437847 141.495136 
L 114.437847 104.118832 
" style="fill:none;stroke:#ff7f0e;stroke-width:1.5;"/>
    <path clip-path="url(#pbcf3292bdb)" d="M 116.60221 169.223573 
L 116.60221 128.512927 
" style="fill:none;stroke:#ff7f0e;stroke-width:1.5;"/>
    <path clip-path="url(#pbcf3292bdb)" d="M 118.766574 198.147806 
L 118.766574 162.868694 
" style="fill:none;stroke:#ff7f0e;stroke-width:1.5;"/>
    <path clip-path="url(#pbcf3292bdb)" d="M 120.930937 219.165273 
L 120.930937 182.304958 
" style="fill:none;stroke:#ff7f0e;stroke-width:1.5;"/>
    <path clip-path="url(#pbcf3292bdb)" d="M 123.095301 286.188058 
L 123.095301 267.898031 
" style="fill:none;stroke:#ff7f0e;stroke-width:1.5;"/>
    <path clip-path="url(#pbcf3292bdb)" d="M 125.259665 287.459825 
L 125.259665 271.127407 
" style="fill:none;stroke:#ff7f0e;stroke-width:1.5;"/>
    <path clip-path="url(#pbcf3292bdb)" d="M 127.424028 278.972881 
L 127.424028 259.423619 
" style="fill:none;stroke:#ff7f0e;stroke-width:1.5;"/>
    <path clip-path="url(#pbcf3292bdb)" d="M 129.588392 265.908701 
L 129.588392 238.899799 
" style="fill:none;stroke:#ff7f0e;stroke-width:1.5;"/>
    <path clip-path="url(#pbcf3292bdb)" d="M 131.752756 261.333054 
L 131.752756 235.928152 
" style="fill:none;stroke:#ff7f0e;stroke-width:1.5;"/>
    <path clip-path="url(#pbcf3292bdb)" d="M 133.917119 182.202745 
L 133.917119 141.664217 
" style="fill:none;stroke:#ff7f0e;stroke-width:1.5;"/>
    <path clip-path="url(#pbcf3292bdb)" d="M 136.081483 218.805482 
L 136.081483 185.631506 
" style="fill:none;stroke:#ff7f0e;stroke-width:1.5;"/>
    <path clip-path="url(#pbcf3292bdb)" d="M 138.245847 275.06491 
L 138.245847 249.141098 
" style="fill:none;stroke:#ff7f0e;stroke-width:1.5;"/>
    <path clip-path="url(#pbcf3292bdb)" d="M 140.41021 288.51868 
L 140.41021 270.19532 
" style="fill:none;stroke:#ff7f0e;stroke-width:1.5;"/>
    <path clip-path="url(#pbcf3292bdb)" d="M 142.574574 285.332518 
L 142.574574 265.738099 
" style="fill:none;stroke:#ff7f0e;stroke-width:1.5;"/>
    <path clip-path="url(#pbcf3292bdb)" d="M 144.738938 291.677859 
L 144.738938 274.742779 
" style="fill:none;stroke:#ff7f0e;stroke-width:1.5;"/>
    <path clip-path="url(#pbcf3292bdb)" d="M 146.903301 295.525969 
L 146.903301 283.978031 
" style="fill:none;stroke:#ff7f0e;stroke-width:1.5;"/>
    <path clip-path="url(#pbcf3292bdb)" d="M 149.067665 292.703825 
L 149.067665 278.632675 
" style="fill:none;stroke:#ff7f0e;stroke-width:1.5;"/>
    <path clip-path="url(#pbcf3292bdb)" d="M 151.232028 295.647012 
L 151.232028 284.774193 
" style="fill:none;stroke:#ff7f0e;stroke-width:1.5;"/>
    <path clip-path="url(#pbcf3292bdb)" d="M 153.396392 297.54825 
L 153.396392 291.38825 
" style="fill:none;stroke:#ff7f0e;stroke-width:1.5;"/>
    <path clip-path="url(#pbcf3292bdb)" d="M 155.560756 297.54825 
L 155.560756 292.86318 
" style="fill:none;stroke:#ff7f0e;stroke-width:1.5;"/>
    <path clip-path="url(#pbcf3292bdb)" d="M 157.725119 297.54825 
L 157.725119 293.441583 
" style="fill:none;stroke:#ff7f0e;stroke-width:1.5;"/>
    <path clip-path="url(#pbcf3292bdb)" d="M 159.889483 292.404149 
L 159.889483 277.492351 
" style="fill:none;stroke:#ff7f0e;stroke-width:1.5;"/>
    <path clip-path="url(#pbcf3292bdb)" d="M 162.053847 297.54825 
L 162.053847 293.441583 
" style="fill:none;stroke:#ff7f0e;stroke-width:1.5;"/>
    <path clip-path="url(#pbcf3292bdb)" d="M 164.21821 293.032651 
L 164.21821 279.887849 
" style="fill:none;stroke:#ff7f0e;stroke-width:1.5;"/>
    <path clip-path="url(#pbcf3292bdb)" d="M 166.382574 297.54825 
L 166.382574 293.22825 
" style="fill:none;stroke:#ff7f0e;stroke-width:1.5;"/>
    <path clip-path="url(#pbcf3292bdb)" d="M 168.546937 297.54825 
L 168.546937 292.00425 
" style="fill:none;stroke:#ff7f0e;stroke-width:1.5;"/>
    <path clip-path="url(#pbcf3292bdb)" d="M 170.711301 295.779359 
L 170.711301 285.647004 
" style="fill:none;stroke:#ff7f0e;stroke-width:1.5;"/>
    <path clip-path="url(#pbcf3292bdb)" d="M 172.875665 297.54825 
L 172.875665 293.171408 
" style="fill:none;stroke:#ff7f0e;stroke-width:1.5;"/>
    <path clip-path="url(#pbcf3292bdb)" d="M 175.040028 295.588358 
L 175.040028 284.388142 
" style="fill:none;stroke:#ff7f0e;stroke-width:1.5;"/>
    <path clip-path="url(#pbcf3292bdb)" d="M 177.204392 297.54825 
L 177.204392 293.634838 
" style="fill:none;stroke:#ff7f0e;stroke-width:1.5;"/>
    <path clip-path="url(#pbcf3292bdb)" d="M 179.368756 295.850277 
L 179.368756 286.115697 
" style="fill:none;stroke:#ff7f0e;stroke-width:1.5;"/>
    <path clip-path="url(#pbcf3292bdb)" d="M 181.533119 297.54825 
L 181.533119 292.86318 
" style="fill:none;stroke:#ff7f0e;stroke-width:1.5;"/>
    <path clip-path="url(#pbcf3292bdb)" d="M 183.697483 297.54825 
L 183.697483 293.053115 
" style="fill:none;stroke:#ff7f0e;stroke-width:1.5;"/>
    <path clip-path="url(#pbcf3292bdb)" d="M 185.861847 296.149386 
L 185.861847 288.100158 
" style="fill:none;stroke:#ff7f0e;stroke-width:1.5;"/>
    <path clip-path="url(#pbcf3292bdb)" d="M 188.02621 295.525969 
L 188.02621 283.978031 
" style="fill:none;stroke:#ff7f0e;stroke-width:1.5;"/>
    <path clip-path="url(#pbcf3292bdb)" d="M 190.190574 297.54825 
L 190.190574 292.35075 
" style="fill:none;stroke:#ff7f0e;stroke-width:1.5;"/>
    <path clip-path="url(#pbcf3292bdb)" d="M 192.354938 297.54825 
L 192.354938 292.583474 
" style="fill:none;stroke:#ff7f0e;stroke-width:1.5;"/>
    <path clip-path="url(#pbcf3292bdb)" d="M 194.519301 297.54825 
L 194.519301 293.724802 
" style="fill:none;stroke:#ff7f0e;stroke-width:1.5;"/>
    <path clip-path="url(#pbcf3292bdb)" d="M 196.683665 297.54825 
L 196.683665 292.656485 
" style="fill:none;stroke:#ff7f0e;stroke-width:1.5;"/>
    <path clip-path="url(#pbcf3292bdb)" d="M 198.848028 297.54825 
L 198.848028 293.053115 
" style="fill:none;stroke:#ff7f0e;stroke-width:1.5;"/>
    <path clip-path="url(#pbcf3292bdb)" d="M 201.012392 297.54825 
L 201.012392 292.35075 
" style="fill:none;stroke:#ff7f0e;stroke-width:1.5;"/>
    <path clip-path="url(#pbcf3292bdb)" d="M 203.176756 297.54825 
L 203.176756 292.583474 
" style="fill:none;stroke:#ff7f0e;stroke-width:1.5;"/>
    <path clip-path="url(#pbcf3292bdb)" d="M 205.341119 293.424519 
L 205.341119 281.389054 
" style="fill:none;stroke:#ff7f0e;stroke-width:1.5;"/>
    <path clip-path="url(#pbcf3292bdb)" d="M 207.505483 295.803647 
L 207.505483 285.807447 
" style="fill:none;stroke:#ff7f0e;stroke-width:1.5;"/>
    <path clip-path="url(#pbcf3292bdb)" d="M 209.669847 295.803647 
L 209.669847 285.807447 
" style="fill:none;stroke:#ff7f0e;stroke-width:1.5;"/>
    <path clip-path="url(#pbcf3292bdb)" d="M 211.83421 297.54825 
L 211.83421 292.72738 
" style="fill:none;stroke:#ff7f0e;stroke-width:1.5;"/>
    <path clip-path="url(#pbcf3292bdb)" d="M 213.998574 296.067894 
L 213.998574 287.558261 
" style="fill:none;stroke:#ff7f0e;stroke-width:1.5;"/>
    <path clip-path="url(#pbcf3292bdb)" d="M 216.162937 297.54825 
L 216.162937 293.39025 
" style="fill:none;stroke:#ff7f0e;stroke-width:1.5;"/>
    <path clip-path="url(#pbcf3292bdb)" d="M 218.327301 295.803647 
L 218.327301 285.807447 
" style="fill:none;stroke:#ff7f0e;stroke-width:1.5;"/>
    <path clip-path="url(#pbcf3292bdb)" d="M 220.491665 295.850277 
L 220.491665 286.115697 
" style="fill:none;stroke:#ff7f0e;stroke-width:1.5;"/>
    <path clip-path="url(#pbcf3292bdb)" d="M 222.656028 297.54825 
L 222.656028 292.92825 
" style="fill:none;stroke:#ff7f0e;stroke-width:1.5;"/>
    <path clip-path="url(#pbcf3292bdb)" d="M 224.820392 297.54825 
L 224.820392 292.35075 
" style="fill:none;stroke:#ff7f0e;stroke-width:1.5;"/>
    <path clip-path="url(#pbcf3292bdb)" d="M 226.984756 297.54825 
L 226.984756 292.26825 
" style="fill:none;stroke:#ff7f0e;stroke-width:1.5;"/>
    <path clip-path="url(#pbcf3292bdb)" d="M 229.149119 297.54825 
L 229.149119 292.656485 
" style="fill:none;stroke:#ff7f0e;stroke-width:1.5;"/>
    <path clip-path="url(#pbcf3292bdb)" d="M 231.313483 295.894478 
L 231.313483 286.408175 
" style="fill:none;stroke:#ff7f0e;stroke-width:1.5;"/>
    <path clip-path="url(#pbcf3292bdb)" d="M 233.477847 297.54825 
L 233.477847 293.283635 
" style="fill:none;stroke:#ff7f0e;stroke-width:1.5;"/>
    <path clip-path="url(#pbcf3292bdb)" d="M 235.64221 297.54825 
L 235.64221 292.656485 
" style="fill:none;stroke:#ff7f0e;stroke-width:1.5;"/>
    <path clip-path="url(#pbcf3292bdb)" d="M 237.806574 297.54825 
L 237.806574 292.35075 
" style="fill:none;stroke:#ff7f0e;stroke-width:1.5;"/>
    <path clip-path="url(#pbcf3292bdb)" d="M 239.970938 295.803647 
L 239.970938 285.807447 
" style="fill:none;stroke:#ff7f0e;stroke-width:1.5;"/>
    <path clip-path="url(#pbcf3292bdb)" d="M 242.135301 297.54825 
L 242.135301 292.35075 
" style="fill:none;stroke:#ff7f0e;stroke-width:1.5;"/>
    <path clip-path="url(#pbcf3292bdb)" d="M 244.299665 297.54825 
L 244.299665 293.22825 
" style="fill:none;stroke:#ff7f0e;stroke-width:1.5;"/>
    <path clip-path="url(#pbcf3292bdb)" d="M 246.464028 297.54825 
L 246.464028 292.656485 
" style="fill:none;stroke:#ff7f0e;stroke-width:1.5;"/>
    <path clip-path="url(#pbcf3292bdb)" d="M 248.628392 297.54825 
L 248.628392 293.540539 
" style="fill:none;stroke:#ff7f0e;stroke-width:1.5;"/>
    <path clip-path="url(#pbcf3292bdb)" d="M 250.792756 295.557652 
L 250.792756 284.186233 
" style="fill:none;stroke:#ff7f0e;stroke-width:1.5;"/>
    <path clip-path="url(#pbcf3292bdb)" d="M 252.957119 297.54825 
L 252.957119 293.540539 
" style="fill:none;stroke:#ff7f0e;stroke-width:1.5;"/>
    <path clip-path="url(#pbcf3292bdb)" d="M 255.121483 297.54825 
L 255.121483 293.171408 
" style="fill:none;stroke:#ff7f0e;stroke-width:1.5;"/>
    <path clip-path="url(#pbcf3292bdb)" d="M 257.285847 297.54825 
L 257.285847 293.171408 
" style="fill:none;stroke:#ff7f0e;stroke-width:1.5;"/>
    <path clip-path="url(#pbcf3292bdb)" d="M 259.45021 295.754384 
L 259.45021 285.482116 
" style="fill:none;stroke:#ff7f0e;stroke-width:1.5;"/>
    <path clip-path="url(#pbcf3292bdb)" d="M 261.614574 297.54825 
L 261.614574 292.72738 
" style="fill:none;stroke:#ff7f0e;stroke-width:1.5;"/>
    <path clip-path="url(#pbcf3292bdb)" d="M 263.778937 297.54825 
L 263.778937 293.283635 
" style="fill:none;stroke:#ff7f0e;stroke-width:1.5;"/>
    <path clip-path="url(#pbcf3292bdb)" d="M 265.943301 292.632228 
L 265.943301 278.359925 
" style="fill:none;stroke:#ff7f0e;stroke-width:1.5;"/>
    <path clip-path="url(#pbcf3292bdb)" d="M 268.107665 297.54825 
L 268.107665 292.095135 
" style="fill:none;stroke:#ff7f0e;stroke-width:1.5;"/>
    <path clip-path="url(#pbcf3292bdb)" d="M 270.272028 297.54825 
L 270.272028 292.991538 
" style="fill:none;stroke:#ff7f0e;stroke-width:1.5;"/>
    <path clip-path="url(#pbcf3292bdb)" d="M 272.436392 297.54825 
L 272.436392 292.00425 
" style="fill:none;stroke:#ff7f0e;stroke-width:1.5;"/>
    <path clip-path="url(#pbcf3292bdb)" d="M 274.600756 297.54825 
L 274.600756 293.491665 
" style="fill:none;stroke:#ff7f0e;stroke-width:1.5;"/>
    <path clip-path="url(#pbcf3292bdb)" d="M 276.765119 297.54825 
L 276.765119 292.00425 
" style="fill:none;stroke:#ff7f0e;stroke-width:1.5;"/>
    <path clip-path="url(#pbcf3292bdb)" d="M 278.929483 297.54825 
L 278.929483 293.680343 
" style="fill:none;stroke:#ff7f0e;stroke-width:1.5;"/>
    <path clip-path="url(#pbcf3292bdb)" d="M 281.093847 297.54825 
L 281.093847 292.656485 
" style="fill:none;stroke:#ff7f0e;stroke-width:1.5;"/>
    <path clip-path="url(#pbcf3292bdb)" d="M 283.25821 297.54825 
L 283.25821 292.86318 
" style="fill:none;stroke:#ff7f0e;stroke-width:1.5;"/>
    <path clip-path="url(#pbcf3292bdb)" d="M 285.422574 297.54825 
L 285.422574 293.634838 
" style="fill:none;stroke:#ff7f0e;stroke-width:1.5;"/>
    <path clip-path="url(#pbcf3292bdb)" d="M 287.586938 297.54825 
L 287.586938 292.183089 
" style="fill:none;stroke:#ff7f0e;stroke-width:1.5;"/>
    <path clip-path="url(#pbcf3292bdb)" d="M 289.751301 297.54825 
L 289.751301 292.86318 
" style="fill:none;stroke:#ff7f0e;stroke-width:1.5;"/>
    <path clip-path="url(#pbcf3292bdb)" d="M 291.915665 297.54825 
L 291.915665 293.337617 
" style="fill:none;stroke:#ff7f0e;stroke-width:1.5;"/>
    <path clip-path="url(#pbcf3292bdb)" d="M 294.080028 297.54825 
L 294.080028 292.26825 
" style="fill:none;stroke:#ff7f0e;stroke-width:1.5;"/>
    <path clip-path="url(#pbcf3292bdb)" d="M 296.244392 295.803647 
L 296.244392 285.807447 
" style="fill:none;stroke:#ff7f0e;stroke-width:1.5;"/>
    <path clip-path="url(#pbcf3292bdb)" d="M 298.408756 295.779359 
L 298.408756 285.647004 
" style="fill:none;stroke:#ff7f0e;stroke-width:1.5;"/>
    <path clip-path="url(#pbcf3292bdb)" d="M 300.573119 297.54825 
L 300.573119 292.656485 
" style="fill:none;stroke:#ff7f0e;stroke-width:1.5;"/>
    <path clip-path="url(#pbcf3292bdb)" d="M 302.737483 296.032575 
L 302.737483 287.32369 
" style="fill:none;stroke:#ff7f0e;stroke-width:1.5;"/>
    <path clip-path="url(#pbcf3292bdb)" d="M 304.901847 297.54825 
L 304.901847 292.50825 
" style="fill:none;stroke:#ff7f0e;stroke-width:1.5;"/>
    <path clip-path="url(#pbcf3292bdb)" d="M 307.06621 297.54825 
L 307.06621 291.151327 
" style="fill:none;stroke:#ff7f0e;stroke-width:1.5;"/>
    <path clip-path="url(#pbcf3292bdb)" d="M 309.230574 297.54825 
L 309.230574 293.283635 
" style="fill:none;stroke:#ff7f0e;stroke-width:1.5;"/>
    <path clip-path="url(#pbcf3292bdb)" d="M 311.394938 287.068771 
L 311.394938 270.132033 
" style="fill:none;stroke:#ff7f0e;stroke-width:1.5;"/>
    <path clip-path="url(#pbcf3292bdb)" d="M 313.559301 292.632228 
L 313.559301 278.359925 
" style="fill:none;stroke:#ff7f0e;stroke-width:1.5;"/>
    <path clip-path="url(#pbcf3292bdb)" d="M 315.723665 297.54825 
L 315.723665 292.35075 
" style="fill:none;stroke:#ff7f0e;stroke-width:1.5;"/>
    <path clip-path="url(#pbcf3292bdb)" d="M 317.888028 297.54825 
L 317.888028 292.50825 
" style="fill:none;stroke:#ff7f0e;stroke-width:1.5;"/>
    <path clip-path="url(#pbcf3292bdb)" d="M 320.052392 297.54825 
L 320.052392 292.430712 
" style="fill:none;stroke:#ff7f0e;stroke-width:1.5;"/>
    <path clip-path="url(#pbcf3292bdb)" d="M 322.216756 295.588358 
L 322.216756 284.388142 
" style="fill:none;stroke:#ff7f0e;stroke-width:1.5;"/>
    <path clip-path="url(#pbcf3292bdb)" d="M 324.381119 295.872669 
L 324.381119 286.263831 
" style="fill:none;stroke:#ff7f0e;stroke-width:1.5;"/>
    <path clip-path="url(#pbcf3292bdb)" d="M 326.545483 282.287165 
L 326.545483 264.22147 
" style="fill:none;stroke:#ff7f0e;stroke-width:1.5;"/>
    <path clip-path="url(#pbcf3292bdb)" d="M 328.709847 293.152012 
L 328.709847 280.344488 
" style="fill:none;stroke:#ff7f0e;stroke-width:1.5;"/>
    <path clip-path="url(#pbcf3292bdb)" d="M 330.87421 278.856232 
L 330.87421 257.003008 
" style="fill:none;stroke:#ff7f0e;stroke-width:1.5;"/>
    <path clip-path="url(#pbcf3292bdb)" d="M 333.038574 279.394708 
L 333.038574 260.261792 
" style="fill:none;stroke:#ff7f0e;stroke-width:1.5;"/>
    <path clip-path="url(#pbcf3292bdb)" d="M 335.202938 261.213391 
L 335.202938 232.644848 
" style="fill:none;stroke:#ff7f0e;stroke-width:1.5;"/>
    <path clip-path="url(#pbcf3292bdb)" d="M 337.367301 287.193671 
L 337.367301 266.322829 
" style="fill:none;stroke:#ff7f0e;stroke-width:1.5;"/>
    <path clip-path="url(#pbcf3292bdb)" d="M 339.531665 284.733371 
L 339.531665 267.3156 
" style="fill:none;stroke:#ff7f0e;stroke-width:1.5;"/>
    <path clip-path="url(#pbcf3292bdb)" d="M 341.696028 295.675043 
L 341.696028 284.958849 
" style="fill:none;stroke:#ff7f0e;stroke-width:1.5;"/>
    <path clip-path="url(#pbcf3292bdb)" d="M 343.860392 292.404149 
L 343.860392 277.492351 
" style="fill:none;stroke:#ff7f0e;stroke-width:1.5;"/>
    <path clip-path="url(#pbcf3292bdb)" d="M 346.024756 297.54825 
L 346.024756 293.11305 
" style="fill:none;stroke:#ff7f0e;stroke-width:1.5;"/>
    <path clip-path="url(#pbcf3292bdb)" d="M 348.189119 290.537217 
L 348.189119 276.163186 
" style="fill:none;stroke:#ff7f0e;stroke-width:1.5;"/>
    <path clip-path="url(#pbcf3292bdb)" d="M 350.353483 291.878004 
L 350.353483 275.498496 
" style="fill:none;stroke:#ff7f0e;stroke-width:1.5;"/>
    <path clip-path="url(#pbcf3292bdb)" d="M 352.517847 297.54825 
L 352.517847 293.337617 
" style="fill:none;stroke:#ff7f0e;stroke-width:1.5;"/>
    <path clip-path="url(#pbcf3292bdb)" d="M 354.68221 295.915727 
L 354.68221 286.548874 
" style="fill:none;stroke:#ff7f0e;stroke-width:1.5;"/>
    <path clip-path="url(#pbcf3292bdb)" d="M 356.846574 289.187348 
L 356.846574 272.163065 
" style="fill:none;stroke:#ff7f0e;stroke-width:1.5;"/>
    <path clip-path="url(#pbcf3292bdb)" d="M 359.010938 291.878004 
L 359.010938 275.498496 
" style="fill:none;stroke:#ff7f0e;stroke-width:1.5;"/>
    <path clip-path="url(#pbcf3292bdb)" d="M 361.175301 292.239963 
L 361.175301 276.869037 
" style="fill:none;stroke:#ff7f0e;stroke-width:1.5;"/>
    <path clip-path="url(#pbcf3292bdb)" d="M 363.339665 284.337599 
L 363.339665 263.238901 
" style="fill:none;stroke:#ff7f0e;stroke-width:1.5;"/>
    <path clip-path="url(#pbcf3292bdb)" d="M 365.504028 249.721948 
L 365.504028 218.87765 
" style="fill:none;stroke:#ff7f0e;stroke-width:1.5;"/>
    <path clip-path="url(#pbcf3292bdb)" d="M 367.668392 221.541401 
L 367.668392 185.541186 
" style="fill:none;stroke:#ff7f0e;stroke-width:1.5;"/>
    <path clip-path="url(#pbcf3292bdb)" d="M 369.832756 185.845488 
L 369.832756 146.117877 
" style="fill:none;stroke:#ff7f0e;stroke-width:1.5;"/>
    <path clip-path="url(#pbcf3292bdb)" d="M 371.997119 207.415442 
L 371.997119 167.709445 
" style="fill:none;stroke:#ff7f0e;stroke-width:1.5;"/>
    <path clip-path="url(#pbcf3292bdb)" d="M 374.161483 175.068039 
L 374.161483 136.834948 
" style="fill:none;stroke:#ff7f0e;stroke-width:1.5;"/>
    <path clip-path="url(#pbcf3292bdb)" d="M 376.325847 176.005885 
L 376.325847 137.270615 
" style="fill:none;stroke:#ff7f0e;stroke-width:1.5;"/>
    <path clip-path="url(#pbcf3292bdb)" d="M 378.49021 216.635303 
L 378.49021 178.877197 
" style="fill:none;stroke:#ff7f0e;stroke-width:1.5;"/>
    <path clip-path="url(#pbcf3292bdb)" d="M 380.654574 198.042767 
L 380.654574 163.413733 
" style="fill:none;stroke:#ff7f0e;stroke-width:1.5;"/>
    <path clip-path="url(#pbcf3292bdb)" d="M 382.818938 210.52901 
L 382.818938 175.601336 
" style="fill:none;stroke:#ff7f0e;stroke-width:1.5;"/>
    <path clip-path="url(#pbcf3292bdb)" d="M 384.983301 264.209119 
L 384.983301 237.748181 
" style="fill:none;stroke:#ff7f0e;stroke-width:1.5;"/>
    <path clip-path="url(#pbcf3292bdb)" d="M 387.147665 253.652249 
L 387.147665 221.901751 
" style="fill:none;stroke:#ff7f0e;stroke-width:1.5;"/>
    <path clip-path="url(#pbcf3292bdb)" d="M 389.312028 292.323345 
L 389.312028 277.185462 
" style="fill:none;stroke:#ff7f0e;stroke-width:1.5;"/>
    <path clip-path="url(#pbcf3292bdb)" d="M 391.476392 293.209357 
L 391.476392 280.564066 
" style="fill:none;stroke:#ff7f0e;stroke-width:1.5;"/>
    <path clip-path="url(#pbcf3292bdb)" d="M 393.640756 296.014276 
L 393.640756 287.202224 
" style="fill:none;stroke:#ff7f0e;stroke-width:1.5;"/>
    <path clip-path="url(#pbcf3292bdb)" d="M 395.805119 295.459477 
L 395.805119 283.541539 
" style="fill:none;stroke:#ff7f0e;stroke-width:1.5;"/>
    <path clip-path="url(#pbcf3292bdb)" d="M 397.969483 297.54825 
L 397.969483 293.053115 
" style="fill:none;stroke:#ff7f0e;stroke-width:1.5;"/>
    <path clip-path="url(#pbcf3292bdb)" d="M 400.133847 297.54825 
L 400.133847 292.26825 
" style="fill:none;stroke:#ff7f0e;stroke-width:1.5;"/>
    <path clip-path="url(#pbcf3292bdb)" d="M 402.29821 297.54825 
L 402.29821 293.053115 
" style="fill:none;stroke:#ff7f0e;stroke-width:1.5;"/>
   </g>
   <g id="line2d_33">
    <path clip-path="url(#pbcf3292bdb)" d="M 250.792756 295.33065 
L 252.957119 295.300682 
L 255.121483 295.415942 
L 257.285847 295.02825 
L 259.45021 295.02825 
L 261.614574 295.205715 
L 263.778937 295.442934 
L 265.943301 291.60825 
L 268.107665 295.442934 
L 270.272028 295.494917 
L 272.436392 295.38825 
L 274.600756 295.23825 
L 276.765119 295.269894 
L 278.929483 295.205715 
L 281.093847 290.210603 
L 283.25821 291.87825 
L 285.422574 290.316946 
L 287.586938 291.232301 
L 289.751301 288.63825 
L 291.915665 290.316946 
L 294.080028 295.17225 
L 296.244392 295.205715 
L 298.408756 295.81575 
L 300.573119 295.02825 
L 302.737483 294.90825 
L 304.901847 295.359829 
L 307.06621 295.415942 
L 309.230574 295.415942 
L 311.394938 294.90825 
L 313.559301 295.544395 
L 315.723665 290.520644 
L 317.888028 291.536684 
L 320.052392 295.23825 
L 322.216756 291.31125 
L 324.381119 294.9495 
L 326.545483 290.982987 
L 328.709847 295.442934 
L 330.87421 294.680664 
L 333.038574 295.23825 
L 335.202938 295.591544 
L 337.367301 295.23825 
L 339.531665 295.269894 
L 341.696028 295.494917 
L 343.860392 295.137815 
L 346.024756 290.101086 
L 348.189119 272.486332 
L 350.353483 221.31825 
L 352.517847 103.117827 
L 354.68221 128.6295 
L 356.846574 103.962676 
L 359.010938 217.16025 
L 361.175301 245.121293 
L 363.339665 279.636865 
L 365.504028 290.713182 
L 367.668392 295.269894 
L 369.832756 289.500508 
L 371.997119 295.614297 
L 374.161483 295.415942 
L 376.325847 295.23825 
L 378.49021 295.137815 
" style="fill:none;stroke:#1f77b4;stroke-linecap:square;stroke-width:1.5;"/>
    <defs>
     <path d="M 0 1.5 
C 0.397805 1.5 0.77937 1.341951 1.06066 1.06066 
C 1.341951 0.77937 1.5 0.397805 1.5 0 
C 1.5 -0.397805 1.341951 -0.77937 1.06066 -1.06066 
C 0.77937 -1.341951 0.397805 -1.5 0 -1.5 
C -0.397805 -1.5 -0.77937 -1.341951 -1.06066 -1.06066 
C -1.341951 -0.77937 -1.5 -0.397805 -1.5 0 
C -1.5 0.397805 -1.341951 0.77937 -1.06066 1.06066 
C -0.77937 1.341951 -0.397805 1.5 0 1.5 
z
" id="mb8bc26594a" style="stroke:#1f77b4;"/>
    </defs>
    <g clip-path="url(#pbcf3292bdb)">
     <use style="fill:#1f77b4;stroke:#1f77b4;" x="250.792756" xlink:href="#mb8bc26594a" y="295.33065"/>
     <use style="fill:#1f77b4;stroke:#1f77b4;" x="252.957119" xlink:href="#mb8bc26594a" y="295.300682"/>
     <use style="fill:#1f77b4;stroke:#1f77b4;" x="255.121483" xlink:href="#mb8bc26594a" y="295.415942"/>
     <use style="fill:#1f77b4;stroke:#1f77b4;" x="257.285847" xlink:href="#mb8bc26594a" y="295.02825"/>
     <use style="fill:#1f77b4;stroke:#1f77b4;" x="259.45021" xlink:href="#mb8bc26594a" y="295.02825"/>
     <use style="fill:#1f77b4;stroke:#1f77b4;" x="261.614574" xlink:href="#mb8bc26594a" y="295.205715"/>
     <use style="fill:#1f77b4;stroke:#1f77b4;" x="263.778937" xlink:href="#mb8bc26594a" y="295.442934"/>
     <use style="fill:#1f77b4;stroke:#1f77b4;" x="265.943301" xlink:href="#mb8bc26594a" y="291.60825"/>
     <use style="fill:#1f77b4;stroke:#1f77b4;" x="268.107665" xlink:href="#mb8bc26594a" y="295.442934"/>
     <use style="fill:#1f77b4;stroke:#1f77b4;" x="270.272028" xlink:href="#mb8bc26594a" y="295.494917"/>
     <use style="fill:#1f77b4;stroke:#1f77b4;" x="272.436392" xlink:href="#mb8bc26594a" y="295.38825"/>
     <use style="fill:#1f77b4;stroke:#1f77b4;" x="274.600756" xlink:href="#mb8bc26594a" y="295.23825"/>
     <use style="fill:#1f77b4;stroke:#1f77b4;" x="276.765119" xlink:href="#mb8bc26594a" y="295.269894"/>
     <use style="fill:#1f77b4;stroke:#1f77b4;" x="278.929483" xlink:href="#mb8bc26594a" y="295.205715"/>
     <use style="fill:#1f77b4;stroke:#1f77b4;" x="281.093847" xlink:href="#mb8bc26594a" y="290.210603"/>
     <use style="fill:#1f77b4;stroke:#1f77b4;" x="283.25821" xlink:href="#mb8bc26594a" y="291.87825"/>
     <use style="fill:#1f77b4;stroke:#1f77b4;" x="285.422574" xlink:href="#mb8bc26594a" y="290.316946"/>
     <use style="fill:#1f77b4;stroke:#1f77b4;" x="287.586938" xlink:href="#mb8bc26594a" y="291.232301"/>
     <use style="fill:#1f77b4;stroke:#1f77b4;" x="289.751301" xlink:href="#mb8bc26594a" y="288.63825"/>
     <use style="fill:#1f77b4;stroke:#1f77b4;" x="291.915665" xlink:href="#mb8bc26594a" y="290.316946"/>
     <use style="fill:#1f77b4;stroke:#1f77b4;" x="294.080028" xlink:href="#mb8bc26594a" y="295.17225"/>
     <use style="fill:#1f77b4;stroke:#1f77b4;" x="296.244392" xlink:href="#mb8bc26594a" y="295.205715"/>
     <use style="fill:#1f77b4;stroke:#1f77b4;" x="298.408756" xlink:href="#mb8bc26594a" y="295.81575"/>
     <use style="fill:#1f77b4;stroke:#1f77b4;" x="300.573119" xlink:href="#mb8bc26594a" y="295.02825"/>
     <use style="fill:#1f77b4;stroke:#1f77b4;" x="302.737483" xlink:href="#mb8bc26594a" y="294.90825"/>
     <use style="fill:#1f77b4;stroke:#1f77b4;" x="304.901847" xlink:href="#mb8bc26594a" y="295.359829"/>
     <use style="fill:#1f77b4;stroke:#1f77b4;" x="307.06621" xlink:href="#mb8bc26594a" y="295.415942"/>
     <use style="fill:#1f77b4;stroke:#1f77b4;" x="309.230574" xlink:href="#mb8bc26594a" y="295.415942"/>
     <use style="fill:#1f77b4;stroke:#1f77b4;" x="311.394938" xlink:href="#mb8bc26594a" y="294.90825"/>
     <use style="fill:#1f77b4;stroke:#1f77b4;" x="313.559301" xlink:href="#mb8bc26594a" y="295.544395"/>
     <use style="fill:#1f77b4;stroke:#1f77b4;" x="315.723665" xlink:href="#mb8bc26594a" y="290.520644"/>
     <use style="fill:#1f77b4;stroke:#1f77b4;" x="317.888028" xlink:href="#mb8bc26594a" y="291.536684"/>
     <use style="fill:#1f77b4;stroke:#1f77b4;" x="320.052392" xlink:href="#mb8bc26594a" y="295.23825"/>
     <use style="fill:#1f77b4;stroke:#1f77b4;" x="322.216756" xlink:href="#mb8bc26594a" y="291.31125"/>
     <use style="fill:#1f77b4;stroke:#1f77b4;" x="324.381119" xlink:href="#mb8bc26594a" y="294.9495"/>
     <use style="fill:#1f77b4;stroke:#1f77b4;" x="326.545483" xlink:href="#mb8bc26594a" y="290.982987"/>
     <use style="fill:#1f77b4;stroke:#1f77b4;" x="328.709847" xlink:href="#mb8bc26594a" y="295.442934"/>
     <use style="fill:#1f77b4;stroke:#1f77b4;" x="330.87421" xlink:href="#mb8bc26594a" y="294.680664"/>
     <use style="fill:#1f77b4;stroke:#1f77b4;" x="333.038574" xlink:href="#mb8bc26594a" y="295.23825"/>
     <use style="fill:#1f77b4;stroke:#1f77b4;" x="335.202938" xlink:href="#mb8bc26594a" y="295.591544"/>
     <use style="fill:#1f77b4;stroke:#1f77b4;" x="337.367301" xlink:href="#mb8bc26594a" y="295.23825"/>
     <use style="fill:#1f77b4;stroke:#1f77b4;" x="339.531665" xlink:href="#mb8bc26594a" y="295.269894"/>
     <use style="fill:#1f77b4;stroke:#1f77b4;" x="341.696028" xlink:href="#mb8bc26594a" y="295.494917"/>
     <use style="fill:#1f77b4;stroke:#1f77b4;" x="343.860392" xlink:href="#mb8bc26594a" y="295.137815"/>
     <use style="fill:#1f77b4;stroke:#1f77b4;" x="346.024756" xlink:href="#mb8bc26594a" y="290.101086"/>
     <use style="fill:#1f77b4;stroke:#1f77b4;" x="348.189119" xlink:href="#mb8bc26594a" y="272.486332"/>
     <use style="fill:#1f77b4;stroke:#1f77b4;" x="350.353483" xlink:href="#mb8bc26594a" y="221.31825"/>
     <use style="fill:#1f77b4;stroke:#1f77b4;" x="352.517847" xlink:href="#mb8bc26594a" y="103.117827"/>
     <use style="fill:#1f77b4;stroke:#1f77b4;" x="354.68221" xlink:href="#mb8bc26594a" y="128.6295"/>
     <use style="fill:#1f77b4;stroke:#1f77b4;" x="356.846574" xlink:href="#mb8bc26594a" y="103.962676"/>
     <use style="fill:#1f77b4;stroke:#1f77b4;" x="359.010938" xlink:href="#mb8bc26594a" y="217.16025"/>
     <use style="fill:#1f77b4;stroke:#1f77b4;" x="361.175301" xlink:href="#mb8bc26594a" y="245.121293"/>
     <use style="fill:#1f77b4;stroke:#1f77b4;" x="363.339665" xlink:href="#mb8bc26594a" y="279.636865"/>
     <use style="fill:#1f77b4;stroke:#1f77b4;" x="365.504028" xlink:href="#mb8bc26594a" y="290.713182"/>
     <use style="fill:#1f77b4;stroke:#1f77b4;" x="367.668392" xlink:href="#mb8bc26594a" y="295.269894"/>
     <use style="fill:#1f77b4;stroke:#1f77b4;" x="369.832756" xlink:href="#mb8bc26594a" y="289.500508"/>
     <use style="fill:#1f77b4;stroke:#1f77b4;" x="371.997119" xlink:href="#mb8bc26594a" y="295.614297"/>
     <use style="fill:#1f77b4;stroke:#1f77b4;" x="374.161483" xlink:href="#mb8bc26594a" y="295.415942"/>
     <use style="fill:#1f77b4;stroke:#1f77b4;" x="376.325847" xlink:href="#mb8bc26594a" y="295.23825"/>
     <use style="fill:#1f77b4;stroke:#1f77b4;" x="378.49021" xlink:href="#mb8bc26594a" y="295.137815"/>
    </g>
   </g>
   <g id="line2d_34">
    <path clip-path="url(#pbcf3292bdb)" d="M 77.643665 295.740424 
L 79.808028 285.835574 
L 81.972392 287.281583 
L 84.136756 276.75825 
L 86.301119 284.754404 
L 88.465483 277.852461 
L 90.629847 276.75825 
L 92.79421 276.16425 
L 94.958574 288.20443 
L 97.122937 295.38825 
L 99.287301 295.205715 
L 101.451665 281.150504 
L 103.616028 289.752 
L 105.780392 252.40425 
L 107.944756 237.28738 
L 110.109119 187.36125 
L 112.273483 173.334579 
L 114.437847 122.806984 
L 116.60221 148.86825 
L 118.766574 180.50825 
L 120.930937 200.735116 
L 123.095301 277.043045 
L 125.259665 279.293616 
L 127.424028 269.19825 
L 129.588392 252.40425 
L 131.752756 248.630603 
L 133.917119 161.933481 
L 136.081483 202.218494 
L 138.245847 262.103004 
L 140.41021 279.357 
L 142.574574 275.535309 
L 144.738938 283.210319 
L 146.903301 289.752 
L 149.067665 285.66825 
L 151.232028 290.210603 
L 153.396392 294.46825 
L 155.560756 295.205715 
L 157.725119 295.494917 
L 159.889483 284.94825 
L 162.053847 295.494917 
L 164.21821 286.46025 
L 166.382574 295.38825 
L 168.546937 294.77625 
L 170.711301 290.713182 
L 172.875665 295.359829 
L 175.040028 289.98825 
L 177.204392 295.591544 
L 179.368756 290.982987 
L 181.533119 295.205715 
L 183.697483 295.300682 
L 185.861847 292.124772 
L 188.02621 289.752 
L 190.190574 294.9495 
L 192.354938 295.065862 
L 194.519301 295.636526 
L 196.683665 295.102368 
L 198.848028 295.300682 
L 201.012392 294.9495 
L 203.176756 295.065862 
L 205.341119 287.406787 
L 207.505483 290.805547 
L 209.669847 290.805547 
L 211.83421 295.137815 
L 213.998574 291.813078 
L 216.162937 295.46925 
L 218.327301 290.805547 
L 220.491665 290.982987 
L 222.656028 295.23825 
L 224.820392 294.9495 
L 226.984756 294.90825 
L 229.149119 295.102368 
L 231.313483 291.151327 
L 233.477847 295.415942 
L 235.64221 295.102368 
L 237.806574 294.9495 
L 239.970938 290.805547 
L 242.135301 294.9495 
L 244.299665 295.38825 
L 246.464028 295.102368 
L 248.628392 295.544395 
L 250.792756 289.871942 
L 252.957119 295.544395 
L 255.121483 295.359829 
L 257.285847 295.359829 
L 259.45021 290.61825 
L 261.614574 295.137815 
L 263.778937 295.415942 
L 265.943301 285.496076 
L 268.107665 294.821693 
L 270.272028 295.269894 
L 272.436392 294.77625 
L 274.600756 295.519957 
L 276.765119 294.77625 
L 278.929483 295.614297 
L 281.093847 295.102368 
L 283.25821 295.205715 
L 285.422574 295.591544 
L 287.586938 294.865669 
L 291.915665 295.442934 
L 294.080028 294.90825 
L 296.244392 290.805547 
L 298.408756 290.713182 
L 300.573119 295.102368 
L 302.737483 291.678132 
L 304.901847 295.02825 
L 307.06621 294.349788 
L 309.230574 295.415942 
L 311.394938 278.600402 
L 313.559301 285.496076 
L 315.723665 294.9495 
L 317.888028 295.02825 
L 320.052392 294.989481 
L 322.216756 289.98825 
L 324.381119 291.06825 
L 326.545483 273.254317 
L 328.709847 286.74825 
L 330.87421 267.92962 
L 333.038574 269.82825 
L 335.202938 246.92912 
L 337.367301 276.75825 
L 339.531665 276.024485 
L 341.696028 290.316946 
L 343.860392 284.94825 
L 346.024756 295.33065 
L 348.189119 283.350201 
L 350.353483 283.68825 
L 352.517847 295.442934 
L 354.68221 291.232301 
L 356.846574 280.675207 
L 359.010938 283.68825 
L 361.175301 284.5545 
L 363.339665 273.78825 
L 365.504028 234.299799 
L 367.668392 203.541293 
L 369.832756 165.981683 
L 371.997119 187.562444 
L 374.161483 155.951493 
L 376.325847 156.63825 
L 378.49021 197.75625 
L 380.654574 180.72825 
L 382.818938 193.065173 
L 384.983301 250.97865 
L 387.147665 237.777 
L 389.312028 284.754404 
L 391.476392 286.886712 
L 393.640756 291.60825 
L 395.805119 289.500508 
L 397.969483 295.300682 
L 400.133847 294.90825 
L 402.29821 295.300682 
L 402.29821 295.300682 
" style="fill:none;stroke:#ff7f0e;stroke-linecap:square;stroke-width:1.5;"/>
    <defs>
     <path d="M 0 1.5 
C 0.397805 1.5 0.77937 1.341951 1.06066 1.06066 
C 1.341951 0.77937 1.5 0.397805 1.5 0 
C 1.5 -0.397805 1.341951 -0.77937 1.06066 -1.06066 
C 0.77937 -1.341951 0.397805 -1.5 0 -1.5 
C -0.397805 -1.5 -0.77937 -1.341951 -1.06066 -1.06066 
C -1.341951 -0.77937 -1.5 -0.397805 -1.5 0 
C -1.5 0.397805 -1.341951 0.77937 -1.06066 1.06066 
C -0.77937 1.341951 -0.397805 1.5 0 1.5 
z
" id="m3e2fb6b177" style="stroke:#ff7f0e;"/>
    </defs>
    <g clip-path="url(#pbcf3292bdb)">
     <use style="fill:#ff7f0e;stroke:#ff7f0e;" x="77.643665" xlink:href="#m3e2fb6b177" y="295.740424"/>
     <use style="fill:#ff7f0e;stroke:#ff7f0e;" x="79.808028" xlink:href="#m3e2fb6b177" y="285.835574"/>
     <use style="fill:#ff7f0e;stroke:#ff7f0e;" x="81.972392" xlink:href="#m3e2fb6b177" y="287.281583"/>
     <use style="fill:#ff7f0e;stroke:#ff7f0e;" x="84.136756" xlink:href="#m3e2fb6b177" y="276.75825"/>
     <use style="fill:#ff7f0e;stroke:#ff7f0e;" x="86.301119" xlink:href="#m3e2fb6b177" y="284.754404"/>
     <use style="fill:#ff7f0e;stroke:#ff7f0e;" x="88.465483" xlink:href="#m3e2fb6b177" y="277.852461"/>
     <use style="fill:#ff7f0e;stroke:#ff7f0e;" x="90.629847" xlink:href="#m3e2fb6b177" y="276.75825"/>
     <use style="fill:#ff7f0e;stroke:#ff7f0e;" x="92.79421" xlink:href="#m3e2fb6b177" y="276.16425"/>
     <use style="fill:#ff7f0e;stroke:#ff7f0e;" x="94.958574" xlink:href="#m3e2fb6b177" y="288.20443"/>
     <use style="fill:#ff7f0e;stroke:#ff7f0e;" x="97.122937" xlink:href="#m3e2fb6b177" y="295.38825"/>
     <use style="fill:#ff7f0e;stroke:#ff7f0e;" x="99.287301" xlink:href="#m3e2fb6b177" y="295.205715"/>
     <use style="fill:#ff7f0e;stroke:#ff7f0e;" x="101.451665" xlink:href="#m3e2fb6b177" y="281.150504"/>
     <use style="fill:#ff7f0e;stroke:#ff7f0e;" x="103.616028" xlink:href="#m3e2fb6b177" y="289.752"/>
     <use style="fill:#ff7f0e;stroke:#ff7f0e;" x="105.780392" xlink:href="#m3e2fb6b177" y="252.40425"/>
     <use style="fill:#ff7f0e;stroke:#ff7f0e;" x="107.944756" xlink:href="#m3e2fb6b177" y="237.28738"/>
     <use style="fill:#ff7f0e;stroke:#ff7f0e;" x="110.109119" xlink:href="#m3e2fb6b177" y="187.36125"/>
     <use style="fill:#ff7f0e;stroke:#ff7f0e;" x="112.273483" xlink:href="#m3e2fb6b177" y="173.334579"/>
     <use style="fill:#ff7f0e;stroke:#ff7f0e;" x="114.437847" xlink:href="#m3e2fb6b177" y="122.806984"/>
     <use style="fill:#ff7f0e;stroke:#ff7f0e;" x="116.60221" xlink:href="#m3e2fb6b177" y="148.86825"/>
     <use style="fill:#ff7f0e;stroke:#ff7f0e;" x="118.766574" xlink:href="#m3e2fb6b177" y="180.50825"/>
     <use style="fill:#ff7f0e;stroke:#ff7f0e;" x="120.930937" xlink:href="#m3e2fb6b177" y="200.735116"/>
     <use style="fill:#ff7f0e;stroke:#ff7f0e;" x="123.095301" xlink:href="#m3e2fb6b177" y="277.043045"/>
     <use style="fill:#ff7f0e;stroke:#ff7f0e;" x="125.259665" xlink:href="#m3e2fb6b177" y="279.293616"/>
     <use style="fill:#ff7f0e;stroke:#ff7f0e;" x="127.424028" xlink:href="#m3e2fb6b177" y="269.19825"/>
     <use style="fill:#ff7f0e;stroke:#ff7f0e;" x="129.588392" xlink:href="#m3e2fb6b177" y="252.40425"/>
     <use style="fill:#ff7f0e;stroke:#ff7f0e;" x="131.752756" xlink:href="#m3e2fb6b177" y="248.630603"/>
     <use style="fill:#ff7f0e;stroke:#ff7f0e;" x="133.917119" xlink:href="#m3e2fb6b177" y="161.933481"/>
     <use style="fill:#ff7f0e;stroke:#ff7f0e;" x="136.081483" xlink:href="#m3e2fb6b177" y="202.218494"/>
     <use style="fill:#ff7f0e;stroke:#ff7f0e;" x="138.245847" xlink:href="#m3e2fb6b177" y="262.103004"/>
     <use style="fill:#ff7f0e;stroke:#ff7f0e;" x="140.41021" xlink:href="#m3e2fb6b177" y="279.357"/>
     <use style="fill:#ff7f0e;stroke:#ff7f0e;" x="142.574574" xlink:href="#m3e2fb6b177" y="275.535309"/>
     <use style="fill:#ff7f0e;stroke:#ff7f0e;" x="144.738938" xlink:href="#m3e2fb6b177" y="283.210319"/>
     <use style="fill:#ff7f0e;stroke:#ff7f0e;" x="146.903301" xlink:href="#m3e2fb6b177" y="289.752"/>
     <use style="fill:#ff7f0e;stroke:#ff7f0e;" x="149.067665" xlink:href="#m3e2fb6b177" y="285.66825"/>
     <use style="fill:#ff7f0e;stroke:#ff7f0e;" x="151.232028" xlink:href="#m3e2fb6b177" y="290.210603"/>
     <use style="fill:#ff7f0e;stroke:#ff7f0e;" x="153.396392" xlink:href="#m3e2fb6b177" y="294.46825"/>
     <use style="fill:#ff7f0e;stroke:#ff7f0e;" x="155.560756" xlink:href="#m3e2fb6b177" y="295.205715"/>
     <use style="fill:#ff7f0e;stroke:#ff7f0e;" x="157.725119" xlink:href="#m3e2fb6b177" y="295.494917"/>
     <use style="fill:#ff7f0e;stroke:#ff7f0e;" x="159.889483" xlink:href="#m3e2fb6b177" y="284.94825"/>
     <use style="fill:#ff7f0e;stroke:#ff7f0e;" x="162.053847" xlink:href="#m3e2fb6b177" y="295.494917"/>
     <use style="fill:#ff7f0e;stroke:#ff7f0e;" x="164.21821" xlink:href="#m3e2fb6b177" y="286.46025"/>
     <use style="fill:#ff7f0e;stroke:#ff7f0e;" x="166.382574" xlink:href="#m3e2fb6b177" y="295.38825"/>
     <use style="fill:#ff7f0e;stroke:#ff7f0e;" x="168.546937" xlink:href="#m3e2fb6b177" y="294.77625"/>
     <use style="fill:#ff7f0e;stroke:#ff7f0e;" x="170.711301" xlink:href="#m3e2fb6b177" y="290.713182"/>
     <use style="fill:#ff7f0e;stroke:#ff7f0e;" x="172.875665" xlink:href="#m3e2fb6b177" y="295.359829"/>
     <use style="fill:#ff7f0e;stroke:#ff7f0e;" x="175.040028" xlink:href="#m3e2fb6b177" y="289.98825"/>
     <use style="fill:#ff7f0e;stroke:#ff7f0e;" x="177.204392" xlink:href="#m3e2fb6b177" y="295.591544"/>
     <use style="fill:#ff7f0e;stroke:#ff7f0e;" x="179.368756" xlink:href="#m3e2fb6b177" y="290.982987"/>
     <use style="fill:#ff7f0e;stroke:#ff7f0e;" x="181.533119" xlink:href="#m3e2fb6b177" y="295.205715"/>
     <use style="fill:#ff7f0e;stroke:#ff7f0e;" x="183.697483" xlink:href="#m3e2fb6b177" y="295.300682"/>
     <use style="fill:#ff7f0e;stroke:#ff7f0e;" x="185.861847" xlink:href="#m3e2fb6b177" y="292.124772"/>
     <use style="fill:#ff7f0e;stroke:#ff7f0e;" x="188.02621" xlink:href="#m3e2fb6b177" y="289.752"/>
     <use style="fill:#ff7f0e;stroke:#ff7f0e;" x="190.190574" xlink:href="#m3e2fb6b177" y="294.9495"/>
     <use style="fill:#ff7f0e;stroke:#ff7f0e;" x="192.354938" xlink:href="#m3e2fb6b177" y="295.065862"/>
     <use style="fill:#ff7f0e;stroke:#ff7f0e;" x="194.519301" xlink:href="#m3e2fb6b177" y="295.636526"/>
     <use style="fill:#ff7f0e;stroke:#ff7f0e;" x="196.683665" xlink:href="#m3e2fb6b177" y="295.102368"/>
     <use style="fill:#ff7f0e;stroke:#ff7f0e;" x="198.848028" xlink:href="#m3e2fb6b177" y="295.300682"/>
     <use style="fill:#ff7f0e;stroke:#ff7f0e;" x="201.012392" xlink:href="#m3e2fb6b177" y="294.9495"/>
     <use style="fill:#ff7f0e;stroke:#ff7f0e;" x="203.176756" xlink:href="#m3e2fb6b177" y="295.065862"/>
     <use style="fill:#ff7f0e;stroke:#ff7f0e;" x="205.341119" xlink:href="#m3e2fb6b177" y="287.406787"/>
     <use style="fill:#ff7f0e;stroke:#ff7f0e;" x="207.505483" xlink:href="#m3e2fb6b177" y="290.805547"/>
     <use style="fill:#ff7f0e;stroke:#ff7f0e;" x="209.669847" xlink:href="#m3e2fb6b177" y="290.805547"/>
     <use style="fill:#ff7f0e;stroke:#ff7f0e;" x="211.83421" xlink:href="#m3e2fb6b177" y="295.137815"/>
     <use style="fill:#ff7f0e;stroke:#ff7f0e;" x="213.998574" xlink:href="#m3e2fb6b177" y="291.813078"/>
     <use style="fill:#ff7f0e;stroke:#ff7f0e;" x="216.162937" xlink:href="#m3e2fb6b177" y="295.46925"/>
     <use style="fill:#ff7f0e;stroke:#ff7f0e;" x="218.327301" xlink:href="#m3e2fb6b177" y="290.805547"/>
     <use style="fill:#ff7f0e;stroke:#ff7f0e;" x="220.491665" xlink:href="#m3e2fb6b177" y="290.982987"/>
     <use style="fill:#ff7f0e;stroke:#ff7f0e;" x="222.656028" xlink:href="#m3e2fb6b177" y="295.23825"/>
     <use style="fill:#ff7f0e;stroke:#ff7f0e;" x="224.820392" xlink:href="#m3e2fb6b177" y="294.9495"/>
     <use style="fill:#ff7f0e;stroke:#ff7f0e;" x="226.984756" xlink:href="#m3e2fb6b177" y="294.90825"/>
     <use style="fill:#ff7f0e;stroke:#ff7f0e;" x="229.149119" xlink:href="#m3e2fb6b177" y="295.102368"/>
     <use style="fill:#ff7f0e;stroke:#ff7f0e;" x="231.313483" xlink:href="#m3e2fb6b177" y="291.151327"/>
     <use style="fill:#ff7f0e;stroke:#ff7f0e;" x="233.477847" xlink:href="#m3e2fb6b177" y="295.415942"/>
     <use style="fill:#ff7f0e;stroke:#ff7f0e;" x="235.64221" xlink:href="#m3e2fb6b177" y="295.102368"/>
     <use style="fill:#ff7f0e;stroke:#ff7f0e;" x="237.806574" xlink:href="#m3e2fb6b177" y="294.9495"/>
     <use style="fill:#ff7f0e;stroke:#ff7f0e;" x="239.970938" xlink:href="#m3e2fb6b177" y="290.805547"/>
     <use style="fill:#ff7f0e;stroke:#ff7f0e;" x="242.135301" xlink:href="#m3e2fb6b177" y="294.9495"/>
     <use style="fill:#ff7f0e;stroke:#ff7f0e;" x="244.299665" xlink:href="#m3e2fb6b177" y="295.38825"/>
     <use style="fill:#ff7f0e;stroke:#ff7f0e;" x="246.464028" xlink:href="#m3e2fb6b177" y="295.102368"/>
     <use style="fill:#ff7f0e;stroke:#ff7f0e;" x="248.628392" xlink:href="#m3e2fb6b177" y="295.544395"/>
     <use style="fill:#ff7f0e;stroke:#ff7f0e;" x="250.792756" xlink:href="#m3e2fb6b177" y="289.871942"/>
     <use style="fill:#ff7f0e;stroke:#ff7f0e;" x="252.957119" xlink:href="#m3e2fb6b177" y="295.544395"/>
     <use style="fill:#ff7f0e;stroke:#ff7f0e;" x="255.121483" xlink:href="#m3e2fb6b177" y="295.359829"/>
     <use style="fill:#ff7f0e;stroke:#ff7f0e;" x="257.285847" xlink:href="#m3e2fb6b177" y="295.359829"/>
     <use style="fill:#ff7f0e;stroke:#ff7f0e;" x="259.45021" xlink:href="#m3e2fb6b177" y="290.61825"/>
     <use style="fill:#ff7f0e;stroke:#ff7f0e;" x="261.614574" xlink:href="#m3e2fb6b177" y="295.137815"/>
     <use style="fill:#ff7f0e;stroke:#ff7f0e;" x="263.778937" xlink:href="#m3e2fb6b177" y="295.415942"/>
     <use style="fill:#ff7f0e;stroke:#ff7f0e;" x="265.943301" xlink:href="#m3e2fb6b177" y="285.496076"/>
     <use style="fill:#ff7f0e;stroke:#ff7f0e;" x="268.107665" xlink:href="#m3e2fb6b177" y="294.821693"/>
     <use style="fill:#ff7f0e;stroke:#ff7f0e;" x="270.272028" xlink:href="#m3e2fb6b177" y="295.269894"/>
     <use style="fill:#ff7f0e;stroke:#ff7f0e;" x="272.436392" xlink:href="#m3e2fb6b177" y="294.77625"/>
     <use style="fill:#ff7f0e;stroke:#ff7f0e;" x="274.600756" xlink:href="#m3e2fb6b177" y="295.519957"/>
     <use style="fill:#ff7f0e;stroke:#ff7f0e;" x="276.765119" xlink:href="#m3e2fb6b177" y="294.77625"/>
     <use style="fill:#ff7f0e;stroke:#ff7f0e;" x="278.929483" xlink:href="#m3e2fb6b177" y="295.614297"/>
     <use style="fill:#ff7f0e;stroke:#ff7f0e;" x="281.093847" xlink:href="#m3e2fb6b177" y="295.102368"/>
     <use style="fill:#ff7f0e;stroke:#ff7f0e;" x="283.25821" xlink:href="#m3e2fb6b177" y="295.205715"/>
     <use style="fill:#ff7f0e;stroke:#ff7f0e;" x="285.422574" xlink:href="#m3e2fb6b177" y="295.591544"/>
     <use style="fill:#ff7f0e;stroke:#ff7f0e;" x="287.586938" xlink:href="#m3e2fb6b177" y="294.865669"/>
     <use style="fill:#ff7f0e;stroke:#ff7f0e;" x="289.751301" xlink:href="#m3e2fb6b177" y="295.205715"/>
     <use style="fill:#ff7f0e;stroke:#ff7f0e;" x="291.915665" xlink:href="#m3e2fb6b177" y="295.442934"/>
     <use style="fill:#ff7f0e;stroke:#ff7f0e;" x="294.080028" xlink:href="#m3e2fb6b177" y="294.90825"/>
     <use style="fill:#ff7f0e;stroke:#ff7f0e;" x="296.244392" xlink:href="#m3e2fb6b177" y="290.805547"/>
     <use style="fill:#ff7f0e;stroke:#ff7f0e;" x="298.408756" xlink:href="#m3e2fb6b177" y="290.713182"/>
     <use style="fill:#ff7f0e;stroke:#ff7f0e;" x="300.573119" xlink:href="#m3e2fb6b177" y="295.102368"/>
     <use style="fill:#ff7f0e;stroke:#ff7f0e;" x="302.737483" xlink:href="#m3e2fb6b177" y="291.678132"/>
     <use style="fill:#ff7f0e;stroke:#ff7f0e;" x="304.901847" xlink:href="#m3e2fb6b177" y="295.02825"/>
     <use style="fill:#ff7f0e;stroke:#ff7f0e;" x="307.06621" xlink:href="#m3e2fb6b177" y="294.349788"/>
     <use style="fill:#ff7f0e;stroke:#ff7f0e;" x="309.230574" xlink:href="#m3e2fb6b177" y="295.415942"/>
     <use style="fill:#ff7f0e;stroke:#ff7f0e;" x="311.394938" xlink:href="#m3e2fb6b177" y="278.600402"/>
     <use style="fill:#ff7f0e;stroke:#ff7f0e;" x="313.559301" xlink:href="#m3e2fb6b177" y="285.496076"/>
     <use style="fill:#ff7f0e;stroke:#ff7f0e;" x="315.723665" xlink:href="#m3e2fb6b177" y="294.9495"/>
     <use style="fill:#ff7f0e;stroke:#ff7f0e;" x="317.888028" xlink:href="#m3e2fb6b177" y="295.02825"/>
     <use style="fill:#ff7f0e;stroke:#ff7f0e;" x="320.052392" xlink:href="#m3e2fb6b177" y="294.989481"/>
     <use style="fill:#ff7f0e;stroke:#ff7f0e;" x="322.216756" xlink:href="#m3e2fb6b177" y="289.98825"/>
     <use style="fill:#ff7f0e;stroke:#ff7f0e;" x="324.381119" xlink:href="#m3e2fb6b177" y="291.06825"/>
     <use style="fill:#ff7f0e;stroke:#ff7f0e;" x="326.545483" xlink:href="#m3e2fb6b177" y="273.254317"/>
     <use style="fill:#ff7f0e;stroke:#ff7f0e;" x="328.709847" xlink:href="#m3e2fb6b177" y="286.74825"/>
     <use style="fill:#ff7f0e;stroke:#ff7f0e;" x="330.87421" xlink:href="#m3e2fb6b177" y="267.92962"/>
     <use style="fill:#ff7f0e;stroke:#ff7f0e;" x="333.038574" xlink:href="#m3e2fb6b177" y="269.82825"/>
     <use style="fill:#ff7f0e;stroke:#ff7f0e;" x="335.202938" xlink:href="#m3e2fb6b177" y="246.92912"/>
     <use style="fill:#ff7f0e;stroke:#ff7f0e;" x="337.367301" xlink:href="#m3e2fb6b177" y="276.75825"/>
     <use style="fill:#ff7f0e;stroke:#ff7f0e;" x="339.531665" xlink:href="#m3e2fb6b177" y="276.024485"/>
     <use style="fill:#ff7f0e;stroke:#ff7f0e;" x="341.696028" xlink:href="#m3e2fb6b177" y="290.316946"/>
     <use style="fill:#ff7f0e;stroke:#ff7f0e;" x="343.860392" xlink:href="#m3e2fb6b177" y="284.94825"/>
     <use style="fill:#ff7f0e;stroke:#ff7f0e;" x="346.024756" xlink:href="#m3e2fb6b177" y="295.33065"/>
     <use style="fill:#ff7f0e;stroke:#ff7f0e;" x="348.189119" xlink:href="#m3e2fb6b177" y="283.350201"/>
     <use style="fill:#ff7f0e;stroke:#ff7f0e;" x="350.353483" xlink:href="#m3e2fb6b177" y="283.68825"/>
     <use style="fill:#ff7f0e;stroke:#ff7f0e;" x="352.517847" xlink:href="#m3e2fb6b177" y="295.442934"/>
     <use style="fill:#ff7f0e;stroke:#ff7f0e;" x="354.68221" xlink:href="#m3e2fb6b177" y="291.232301"/>
     <use style="fill:#ff7f0e;stroke:#ff7f0e;" x="356.846574" xlink:href="#m3e2fb6b177" y="280.675207"/>
     <use style="fill:#ff7f0e;stroke:#ff7f0e;" x="359.010938" xlink:href="#m3e2fb6b177" y="283.68825"/>
     <use style="fill:#ff7f0e;stroke:#ff7f0e;" x="361.175301" xlink:href="#m3e2fb6b177" y="284.5545"/>
     <use style="fill:#ff7f0e;stroke:#ff7f0e;" x="363.339665" xlink:href="#m3e2fb6b177" y="273.78825"/>
     <use style="fill:#ff7f0e;stroke:#ff7f0e;" x="365.504028" xlink:href="#m3e2fb6b177" y="234.299799"/>
     <use style="fill:#ff7f0e;stroke:#ff7f0e;" x="367.668392" xlink:href="#m3e2fb6b177" y="203.541293"/>
     <use style="fill:#ff7f0e;stroke:#ff7f0e;" x="369.832756" xlink:href="#m3e2fb6b177" y="165.981683"/>
     <use style="fill:#ff7f0e;stroke:#ff7f0e;" x="371.997119" xlink:href="#m3e2fb6b177" y="187.562444"/>
     <use style="fill:#ff7f0e;stroke:#ff7f0e;" x="374.161483" xlink:href="#m3e2fb6b177" y="155.951493"/>
     <use style="fill:#ff7f0e;stroke:#ff7f0e;" x="376.325847" xlink:href="#m3e2fb6b177" y="156.63825"/>
     <use style="fill:#ff7f0e;stroke:#ff7f0e;" x="378.49021" xlink:href="#m3e2fb6b177" y="197.75625"/>
     <use style="fill:#ff7f0e;stroke:#ff7f0e;" x="380.654574" xlink:href="#m3e2fb6b177" y="180.72825"/>
     <use style="fill:#ff7f0e;stroke:#ff7f0e;" x="382.818938" xlink:href="#m3e2fb6b177" y="193.065173"/>
     <use style="fill:#ff7f0e;stroke:#ff7f0e;" x="384.983301" xlink:href="#m3e2fb6b177" y="250.97865"/>
     <use style="fill:#ff7f0e;stroke:#ff7f0e;" x="387.147665" xlink:href="#m3e2fb6b177" y="237.777"/>
     <use style="fill:#ff7f0e;stroke:#ff7f0e;" x="389.312028" xlink:href="#m3e2fb6b177" y="284.754404"/>
     <use style="fill:#ff7f0e;stroke:#ff7f0e;" x="391.476392" xlink:href="#m3e2fb6b177" y="286.886712"/>
     <use style="fill:#ff7f0e;stroke:#ff7f0e;" x="393.640756" xlink:href="#m3e2fb6b177" y="291.60825"/>
     <use style="fill:#ff7f0e;stroke:#ff7f0e;" x="395.805119" xlink:href="#m3e2fb6b177" y="289.500508"/>
     <use style="fill:#ff7f0e;stroke:#ff7f0e;" x="397.969483" xlink:href="#m3e2fb6b177" y="295.300682"/>
     <use style="fill:#ff7f0e;stroke:#ff7f0e;" x="400.133847" xlink:href="#m3e2fb6b177" y="294.90825"/>
     <use style="fill:#ff7f0e;stroke:#ff7f0e;" x="402.29821" xlink:href="#m3e2fb6b177" y="295.300682"/>
    </g>
   </g>
   <g id="patch_3">
    <path d="M 61.410938 297.54825 
L 61.410938 31.43625 
" style="fill:none;stroke:#000000;stroke-linecap:square;stroke-linejoin:miter;stroke-width:0.8;"/>
   </g>
   <g id="patch_4">
    <path d="M 418.530938 297.54825 
L 418.530938 31.43625 
" style="fill:none;stroke:#000000;stroke-linecap:square;stroke-linejoin:miter;stroke-width:0.8;"/>
   </g>
   <g id="patch_5">
    <path d="M 61.410937 297.54825 
L 418.530938 297.54825 
" style="fill:none;stroke:#000000;stroke-linecap:square;stroke-linejoin:miter;stroke-width:0.8;"/>
   </g>
   <g id="patch_6">
    <path d="M 61.410937 31.43625 
L 418.530938 31.43625 
" style="fill:none;stroke:#000000;stroke-linecap:square;stroke-linejoin:miter;stroke-width:0.8;"/>
   </g>
   <g id="text_19">
    <!-- Na only -->
    <defs>
     <path d="M 9.8125 72.90625 
L 23.09375 72.90625 
L 55.421875 11.921875 
L 55.421875 72.90625 
L 64.984375 72.90625 
L 64.984375 0 
L 51.703125 0 
L 19.390625 60.984375 
L 19.390625 0 
L 9.8125 0 
z
" id="DejaVuSans-4e"/>
     <path d="M 30.609375 48.390625 
Q 23.390625 48.390625 19.1875 42.75 
Q 14.984375 37.109375 14.984375 27.296875 
Q 14.984375 17.484375 19.15625 11.84375 
Q 23.34375 6.203125 30.609375 6.203125 
Q 37.796875 6.203125 41.984375 11.859375 
Q 46.1875 17.53125 46.1875 27.296875 
Q 46.1875 37.015625 41.984375 42.703125 
Q 37.796875 48.390625 30.609375 48.390625 
z
M 30.609375 56 
Q 42.328125 56 49.015625 48.375 
Q 55.71875 40.765625 55.71875 27.296875 
Q 55.71875 13.875 49.015625 6.21875 
Q 42.328125 -1.421875 30.609375 -1.421875 
Q 18.84375 -1.421875 12.171875 6.21875 
Q 5.515625 13.875 5.515625 27.296875 
Q 5.515625 40.765625 12.171875 48.375 
Q 18.84375 56 30.609375 56 
z
" id="DejaVuSans-6f"/>
     <path d="M 32.171875 -5.078125 
Q 28.375 -14.84375 24.75 -17.8125 
Q 21.140625 -20.796875 15.09375 -20.796875 
L 7.90625 -20.796875 
L 7.90625 -13.28125 
L 13.1875 -13.28125 
Q 16.890625 -13.28125 18.9375 -11.515625 
Q 21 -9.765625 23.484375 -3.21875 
L 25.09375 0.875 
L 2.984375 54.6875 
L 12.5 54.6875 
L 29.59375 11.921875 
L 46.6875 54.6875 
L 56.203125 54.6875 
z
" id="DejaVuSans-79"/>
    </defs>
    <g transform="translate(194.442188 25.43625)scale(0.24 -0.24)">
     <use xlink:href="#DejaVuSans-4e"/>
     <use x="74.804688" xlink:href="#DejaVuSans-61"/>
     <use x="136.083984" xlink:href="#DejaVuSans-20"/>
     <use x="167.871094" xlink:href="#DejaVuSans-6f"/>
     <use x="229.052734" xlink:href="#DejaVuSans-6e"/>
     <use x="292.431641" xlink:href="#DejaVuSans-6c"/>
     <use x="320.214844" xlink:href="#DejaVuSans-79"/>
    </g>
   </g>
   <g id="legend_1">
    <g id="patch_7">
     <path d="M 75.410938 106.14875 
L 221.679688 106.14875 
Q 225.679688 106.14875 225.679688 102.14875 
L 225.679688 45.43625 
Q 225.679688 41.43625 221.679688 41.43625 
L 75.410938 41.43625 
Q 71.410938 41.43625 71.410938 45.43625 
L 71.410938 102.14875 
Q 71.410938 106.14875 75.410938 106.14875 
z
" style="fill:#ffffff;opacity:0.8;stroke:#cccccc;stroke-linejoin:miter;"/>
    </g>
    <g id="LineCollection_3">
     <path d="M 99.410938 67.633125 
L 99.410938 47.633125 
" style="fill:none;stroke:#1f77b4;stroke-width:1.5;"/>
    </g>
    <g id="line2d_35">
     <path d="M 79.410938 57.633125 
L 119.410938 57.633125 
" style="fill:none;stroke:#1f77b4;stroke-linecap:square;stroke-width:1.5;"/>
    </g>
    <g id="line2d_36">
     <g>
      <use style="fill:#1f77b4;stroke:#1f77b4;" x="99.410938" xlink:href="#mb8bc26594a" y="57.633125"/>
     </g>
    </g>
    <g id="text_20">
     <!-- Co-prop -->
     <defs>
      <path d="M 64.40625 67.28125 
L 64.40625 56.890625 
Q 59.421875 61.53125 53.78125 63.8125 
Q 48.140625 66.109375 41.796875 66.109375 
Q 29.296875 66.109375 22.65625 58.46875 
Q 16.015625 50.828125 16.015625 36.375 
Q 16.015625 21.96875 22.65625 14.328125 
Q 29.296875 6.6875 41.796875 6.6875 
Q 48.140625 6.6875 53.78125 8.984375 
Q 59.421875 11.28125 64.40625 15.921875 
L 64.40625 5.609375 
Q 59.234375 2.09375 53.4375 0.328125 
Q 47.65625 -1.421875 41.21875 -1.421875 
Q 24.65625 -1.421875 15.125 8.703125 
Q 5.609375 18.84375 5.609375 36.375 
Q 5.609375 53.953125 15.125 64.078125 
Q 24.65625 74.21875 41.21875 74.21875 
Q 47.75 74.21875 53.53125 72.484375 
Q 59.328125 70.75 64.40625 67.28125 
z
" id="DejaVuSans-43"/>
      <path d="M 4.890625 31.390625 
L 31.203125 31.390625 
L 31.203125 23.390625 
L 4.890625 23.390625 
z
" id="DejaVuSans-2d"/>
      <path d="M 18.109375 8.203125 
L 18.109375 -20.796875 
L 9.078125 -20.796875 
L 9.078125 54.6875 
L 18.109375 54.6875 
L 18.109375 46.390625 
Q 20.953125 51.265625 25.265625 53.625 
Q 29.59375 56 35.59375 56 
Q 45.5625 56 51.78125 48.09375 
Q 58.015625 40.1875 58.015625 27.296875 
Q 58.015625 14.40625 51.78125 6.484375 
Q 45.5625 -1.421875 35.59375 -1.421875 
Q 29.59375 -1.421875 25.265625 0.953125 
Q 20.953125 3.328125 18.109375 8.203125 
z
M 48.6875 27.296875 
Q 48.6875 37.203125 44.609375 42.84375 
Q 40.53125 48.484375 33.40625 48.484375 
Q 26.265625 48.484375 22.1875 42.84375 
Q 18.109375 37.203125 18.109375 27.296875 
Q 18.109375 17.390625 22.1875 11.75 
Q 26.265625 6.109375 33.40625 6.109375 
Q 40.53125 6.109375 44.609375 11.75 
Q 48.6875 17.390625 48.6875 27.296875 
z
" id="DejaVuSans-70"/>
     </defs>
     <g transform="translate(135.410938 64.633125)scale(0.2 -0.2)">
      <use xlink:href="#DejaVuSans-43"/>
      <use x="69.824219" xlink:href="#DejaVuSans-6f"/>
      <use x="131.021484" xlink:href="#DejaVuSans-2d"/>
      <use x="167.105469" xlink:href="#DejaVuSans-70"/>
      <use x="230.582031" xlink:href="#DejaVuSans-72"/>
      <use x="271.664062" xlink:href="#DejaVuSans-6f"/>
      <use x="332.845703" xlink:href="#DejaVuSans-70"/>
     </g>
    </g>
    <g id="LineCollection_4">
     <path d="M 99.410938 96.989375 
L 99.410938 76.989375 
" style="fill:none;stroke:#ff7f0e;stroke-width:1.5;"/>
    </g>
    <g id="line2d_37">
     <path d="M 79.410938 86.989375 
L 119.410938 86.989375 
" style="fill:none;stroke:#ff7f0e;stroke-linecap:square;stroke-width:1.5;"/>
    </g>
    <g id="line2d_38">
     <g>
      <use style="fill:#ff7f0e;stroke:#ff7f0e;" x="99.410938" xlink:href="#m3e2fb6b177" y="86.989375"/>
     </g>
    </g>
    <g id="text_21">
     <!-- Radial X -->
     <defs>
      <path d="M 44.390625 34.1875 
Q 47.5625 33.109375 50.5625 29.59375 
Q 53.5625 26.078125 56.59375 19.921875 
L 66.609375 0 
L 56 0 
L 46.6875 18.703125 
Q 43.0625 26.03125 39.671875 28.421875 
Q 36.28125 30.8125 30.421875 30.8125 
L 19.671875 30.8125 
L 19.671875 0 
L 9.8125 0 
L 9.8125 72.90625 
L 32.078125 72.90625 
Q 44.578125 72.90625 50.734375 67.671875 
Q 56.890625 62.453125 56.890625 51.90625 
Q 56.890625 45.015625 53.6875 40.46875 
Q 50.484375 35.9375 44.390625 34.1875 
z
M 19.671875 64.796875 
L 19.671875 38.921875 
L 32.078125 38.921875 
Q 39.203125 38.921875 42.84375 42.21875 
Q 46.484375 45.515625 46.484375 51.90625 
Q 46.484375 58.296875 42.84375 61.546875 
Q 39.203125 64.796875 32.078125 64.796875 
z
" id="DejaVuSans-52"/>
      <path d="M 45.40625 46.390625 
L 45.40625 75.984375 
L 54.390625 75.984375 
L 54.390625 0 
L 45.40625 0 
L 45.40625 8.203125 
Q 42.578125 3.328125 38.25 0.953125 
Q 33.9375 -1.421875 27.875 -1.421875 
Q 17.96875 -1.421875 11.734375 6.484375 
Q 5.515625 14.40625 5.515625 27.296875 
Q 5.515625 40.1875 11.734375 48.09375 
Q 17.96875 56 27.875 56 
Q 33.9375 56 38.25 53.625 
Q 42.578125 51.265625 45.40625 46.390625 
z
M 14.796875 27.296875 
Q 14.796875 17.390625 18.875 11.75 
Q 22.953125 6.109375 30.078125 6.109375 
Q 37.203125 6.109375 41.296875 11.75 
Q 45.40625 17.390625 45.40625 27.296875 
Q 45.40625 37.203125 41.296875 42.84375 
Q 37.203125 48.484375 30.078125 48.484375 
Q 22.953125 48.484375 18.875 42.84375 
Q 14.796875 37.203125 14.796875 27.296875 
z
" id="DejaVuSans-64"/>
      <path d="M 6.296875 72.90625 
L 16.890625 72.90625 
L 35.015625 45.796875 
L 53.21875 72.90625 
L 63.8125 72.90625 
L 40.375 37.890625 
L 65.375 0 
L 54.78125 0 
L 34.28125 31 
L 13.625 0 
L 2.984375 0 
L 29 38.921875 
z
" id="DejaVuSans-58"/>
     </defs>
     <g transform="translate(135.410938 93.989375)scale(0.2 -0.2)">
      <use xlink:href="#DejaVuSans-52"/>
      <use x="69.451172" xlink:href="#DejaVuSans-61"/>
      <use x="130.730469" xlink:href="#DejaVuSans-64"/>
      <use x="194.207031" xlink:href="#DejaVuSans-69"/>
      <use x="221.990234" xlink:href="#DejaVuSans-61"/>
      <use x="283.269531" xlink:href="#DejaVuSans-6c"/>
      <use x="311.052734" xlink:href="#DejaVuSans-20"/>
      <use x="342.839844" xlink:href="#DejaVuSans-58"/>
     </g>
    </g>
   </g>
  </g>
 </g>
 <defs>
  <clipPath id="pbcf3292bdb">
   <rect height="266.112" width="357.12" x="61.410938" y="31.43625"/>
  </clipPath>
 </defs>
</svg>
