<?xml version="1.0" encoding="utf-8" standalone="no"?>
<!DOCTYPE svg PUBLIC "-//W3C//DTD SVG 1.1//EN"
  "http://www.w3.org/Graphics/SVG/1.1/DTD/svg11.dtd">
<!-- Created with matplotlib (http://matplotlib.org/) -->
<svg height="349pt" version="1.1" viewBox="0 0 429 349" width="429pt" xmlns="http://www.w3.org/2000/svg" xmlns:xlink="http://www.w3.org/1999/xlink">
 <defs>
  <style type="text/css">
*{stroke-linecap:butt;stroke-linejoin:round;}
  </style>
 </defs>
 <g id="figure_1">
  <g id="patch_1">
   <path d="M 0 349.621687 
L 429.230937 349.621687 
L 429.230937 0 
L 0 0 
z
" style="fill:none;"/>
  </g>
  <g id="axes_1">
   <g id="patch_2">
    <path d="M 61.410938 297.54825 
L 418.530938 297.54825 
L 418.530938 31.43625 
L 61.410938 31.43625 
z
" style="fill:none;"/>
   </g>
   <g id="matplotlib.axis_1">
    <g id="xtick_1">
     <g id="line2d_1">
      <path clip-path="url(#pbcf3292bdb)" d="M 138.516392 297.54825 
L 138.516392 31.43625 
" style="fill:none;stroke:#b0b0b0;stroke-linecap:square;stroke-width:0.8;"/>
     </g>
     <g id="line2d_2">
      <defs>
       <path d="M 0 0 
L 0 3.5 
" id="m005f0a59be" style="stroke:#000000;stroke-width:0.8;"/>
      </defs>
      <g>
       <use style="stroke:#000000;stroke-width:0.8;" x="138.516392" xlink:href="#m005f0a59be" y="297.54825"/>
      </g>
     </g>
     <g id="text_1">
      <!-- −50 -->
      <defs>
       <path d="M 10.59375 35.5 
L 73.1875 35.5 
L 73.1875 27.203125 
L 10.59375 27.203125 
z
" id="DejaVuSans-2212"/>
       <path d="M 10.796875 72.90625 
L 49.515625 72.90625 
L 49.515625 64.59375 
L 19.828125 64.59375 
L 19.828125 46.734375 
Q 21.96875 47.46875 24.109375 47.828125 
Q 26.265625 48.1875 28.421875 48.1875 
Q 40.625 48.1875 47.75 41.5 
Q 54.890625 34.8125 54.890625 23.390625 
Q 54.890625 11.625 47.5625 5.09375 
Q 40.234375 -1.421875 26.90625 -1.421875 
Q 22.3125 -1.421875 17.546875 -0.640625 
Q 12.796875 0.140625 7.71875 1.703125 
L 7.71875 11.625 
Q 12.109375 9.234375 16.796875 8.0625 
Q 21.484375 6.890625 26.703125 6.890625 
Q 35.15625 6.890625 40.078125 11.328125 
Q 45.015625 15.765625 45.015625 23.390625 
Q 45.015625 31 40.078125 35.4375 
Q 35.15625 39.890625 26.703125 39.890625 
Q 22.75 39.890625 18.8125 39.015625 
Q 14.890625 38.140625 10.796875 36.28125 
z
" id="DejaVuSans-35"/>
       <path d="M 31.78125 66.40625 
Q 24.171875 66.40625 20.328125 58.90625 
Q 16.5 51.421875 16.5 36.375 
Q 16.5 21.390625 20.328125 13.890625 
Q 24.171875 6.390625 31.78125 6.390625 
Q 39.453125 6.390625 43.28125 13.890625 
Q 47.125 21.390625 47.125 36.375 
Q 47.125 51.421875 43.28125 58.90625 
Q 39.453125 66.40625 31.78125 66.40625 
z
M 31.78125 74.21875 
Q 44.046875 74.21875 50.515625 64.515625 
Q 56.984375 54.828125 56.984375 36.375 
Q 56.984375 17.96875 50.515625 8.265625 
Q 44.046875 -1.421875 31.78125 -1.421875 
Q 19.53125 -1.421875 13.0625 8.265625 
Q 6.59375 17.96875 6.59375 36.375 
Q 6.59375 54.828125 13.0625 64.515625 
Q 19.53125 74.21875 31.78125 74.21875 
z
" id="DejaVuSans-30"/>
      </defs>
      <g transform="translate(122.687876 315.945906)scale(0.15 -0.15)">
       <use xlink:href="#DejaVuSans-2212"/>
       <use x="83.789062" xlink:href="#DejaVuSans-35"/>
       <use x="147.412109" xlink:href="#DejaVuSans-30"/>
      </g>
     </g>
    </g>
    <g id="xtick_2">
     <g id="line2d_3">
      <path clip-path="url(#pbcf3292bdb)" d="M 239.970938 297.54825 
L 239.970938 31.43625 
" style="fill:none;stroke:#b0b0b0;stroke-linecap:square;stroke-width:0.8;"/>
     </g>
     <g id="line2d_4">
      <g>
       <use style="stroke:#000000;stroke-width:0.8;" x="239.970938" xlink:href="#m005f0a59be" y="297.54825"/>
      </g>
     </g>
     <g id="text_2">
      <!-- 0 -->
      <g transform="translate(235.199063 315.945906)scale(0.15 -0.15)">
       <use xlink:href="#DejaVuSans-30"/>
      </g>
     </g>
    </g>
    <g id="xtick_3">
     <g id="line2d_5">
      <path clip-path="url(#pbcf3292bdb)" d="M 341.425483 297.54825 
L 341.425483 31.43625 
" style="fill:none;stroke:#b0b0b0;stroke-linecap:square;stroke-width:0.8;"/>
     </g>
     <g id="line2d_6">
      <g>
       <use style="stroke:#000000;stroke-width:0.8;" x="341.425483" xlink:href="#m005f0a59be" y="297.54825"/>
      </g>
     </g>
     <g id="text_3">
      <!-- 50 -->
      <g transform="translate(331.881733 315.945906)scale(0.15 -0.15)">
       <use xlink:href="#DejaVuSans-35"/>
       <use x="63.623047" xlink:href="#DejaVuSans-30"/>
      </g>
     </g>
    </g>
    <g id="text_4">
     <!-- Detuning (kHz) -->
     <defs>
      <path d="M 19.671875 64.796875 
L 19.671875 8.109375 
L 31.59375 8.109375 
Q 46.6875 8.109375 53.6875 14.9375 
Q 60.6875 21.78125 60.6875 36.53125 
Q 60.6875 51.171875 53.6875 57.984375 
Q 46.6875 64.796875 31.59375 64.796875 
z
M 9.8125 72.90625 
L 30.078125 72.90625 
Q 51.265625 72.90625 61.171875 64.09375 
Q 71.09375 55.28125 71.09375 36.53125 
Q 71.09375 17.671875 61.125 8.828125 
Q 51.171875 0 30.078125 0 
L 9.8125 0 
z
" id="DejaVuSans-44"/>
      <path d="M 56.203125 29.59375 
L 56.203125 25.203125 
L 14.890625 25.203125 
Q 15.484375 15.921875 20.484375 11.0625 
Q 25.484375 6.203125 34.421875 6.203125 
Q 39.59375 6.203125 44.453125 7.46875 
Q 49.3125 8.734375 54.109375 11.28125 
L 54.109375 2.78125 
Q 49.265625 0.734375 44.1875 -0.34375 
Q 39.109375 -1.421875 33.890625 -1.421875 
Q 20.796875 -1.421875 13.15625 6.1875 
Q 5.515625 13.8125 5.515625 26.8125 
Q 5.515625 40.234375 12.765625 48.109375 
Q 20.015625 56 32.328125 56 
Q 43.359375 56 49.78125 48.890625 
Q 56.203125 41.796875 56.203125 29.59375 
z
M 47.21875 32.234375 
Q 47.125 39.59375 43.09375 43.984375 
Q 39.0625 48.390625 32.421875 48.390625 
Q 24.90625 48.390625 20.390625 44.140625 
Q 15.875 39.890625 15.1875 32.171875 
z
" id="DejaVuSans-65"/>
      <path d="M 18.3125 70.21875 
L 18.3125 54.6875 
L 36.8125 54.6875 
L 36.8125 47.703125 
L 18.3125 47.703125 
L 18.3125 18.015625 
Q 18.3125 11.328125 20.140625 9.421875 
Q 21.96875 7.515625 27.59375 7.515625 
L 36.8125 7.515625 
L 36.8125 0 
L 27.59375 0 
Q 17.1875 0 13.234375 3.875 
Q 9.28125 7.765625 9.28125 18.015625 
L 9.28125 47.703125 
L 2.6875 47.703125 
L 2.6875 54.6875 
L 9.28125 54.6875 
L 9.28125 70.21875 
z
" id="DejaVuSans-74"/>
      <path d="M 8.5 21.578125 
L 8.5 54.6875 
L 17.484375 54.6875 
L 17.484375 21.921875 
Q 17.484375 14.15625 20.5 10.265625 
Q 23.53125 6.390625 29.59375 6.390625 
Q 36.859375 6.390625 41.078125 11.03125 
Q 45.3125 15.671875 45.3125 23.6875 
L 45.3125 54.6875 
L 54.296875 54.6875 
L 54.296875 0 
L 45.3125 0 
L 45.3125 8.40625 
Q 42.046875 3.421875 37.71875 1 
Q 33.40625 -1.421875 27.6875 -1.421875 
Q 18.265625 -1.421875 13.375 4.4375 
Q 8.5 10.296875 8.5 21.578125 
z
M 31.109375 56 
z
" id="DejaVuSans-75"/>
      <path d="M 54.890625 33.015625 
L 54.890625 0 
L 45.90625 0 
L 45.90625 32.71875 
Q 45.90625 40.484375 42.875 44.328125 
Q 39.84375 48.1875 33.796875 48.1875 
Q 26.515625 48.1875 22.3125 43.546875 
Q 18.109375 38.921875 18.109375 30.90625 
L 18.109375 0 
L 9.078125 0 
L 9.078125 54.6875 
L 18.109375 54.6875 
L 18.109375 46.1875 
Q 21.34375 51.125 25.703125 53.5625 
Q 30.078125 56 35.796875 56 
Q 45.21875 56 50.046875 50.171875 
Q 54.890625 44.34375 54.890625 33.015625 
z
" id="DejaVuSans-6e"/>
      <path d="M 9.421875 54.6875 
L 18.40625 54.6875 
L 18.40625 0 
L 9.421875 0 
z
M 9.421875 75.984375 
L 18.40625 75.984375 
L 18.40625 64.59375 
L 9.421875 64.59375 
z
" id="DejaVuSans-69"/>
      <path d="M 45.40625 27.984375 
Q 45.40625 37.75 41.375 43.109375 
Q 37.359375 48.484375 30.078125 48.484375 
Q 22.859375 48.484375 18.828125 43.109375 
Q 14.796875 37.75 14.796875 27.984375 
Q 14.796875 18.265625 18.828125 12.890625 
Q 22.859375 7.515625 30.078125 7.515625 
Q 37.359375 7.515625 41.375 12.890625 
Q 45.40625 18.265625 45.40625 27.984375 
z
M 54.390625 6.78125 
Q 54.390625 -7.171875 48.1875 -13.984375 
Q 42 -20.796875 29.203125 -20.796875 
Q 24.46875 -20.796875 20.265625 -20.09375 
Q 16.0625 -19.390625 12.109375 -17.921875 
L 12.109375 -9.1875 
Q 16.0625 -11.328125 19.921875 -12.34375 
Q 23.78125 -13.375 27.78125 -13.375 
Q 36.625 -13.375 41.015625 -8.765625 
Q 45.40625 -4.15625 45.40625 5.171875 
L 45.40625 9.625 
Q 42.625 4.78125 38.28125 2.390625 
Q 33.9375 0 27.875 0 
Q 17.828125 0 11.671875 7.65625 
Q 5.515625 15.328125 5.515625 27.984375 
Q 5.515625 40.671875 11.671875 48.328125 
Q 17.828125 56 27.875 56 
Q 33.9375 56 38.28125 53.609375 
Q 42.625 51.21875 45.40625 46.390625 
L 45.40625 54.6875 
L 54.390625 54.6875 
z
" id="DejaVuSans-67"/>
      <path id="DejaVuSans-20"/>
      <path d="M 31 75.875 
Q 24.46875 64.65625 21.28125 53.65625 
Q 18.109375 42.671875 18.109375 31.390625 
Q 18.109375 20.125 21.3125 9.0625 
Q 24.515625 -2 31 -13.1875 
L 23.1875 -13.1875 
Q 15.875 -1.703125 12.234375 9.375 
Q 8.59375 20.453125 8.59375 31.390625 
Q 8.59375 42.28125 12.203125 53.3125 
Q 15.828125 64.359375 23.1875 75.875 
z
" id="DejaVuSans-28"/>
      <path d="M 9.078125 75.984375 
L 18.109375 75.984375 
L 18.109375 31.109375 
L 44.921875 54.6875 
L 56.390625 54.6875 
L 27.390625 29.109375 
L 57.625 0 
L 45.90625 0 
L 18.109375 26.703125 
L 18.109375 0 
L 9.078125 0 
z
" id="DejaVuSans-6b"/>
      <path d="M 9.8125 72.90625 
L 19.671875 72.90625 
L 19.671875 43.015625 
L 55.515625 43.015625 
L 55.515625 72.90625 
L 65.375 72.90625 
L 65.375 0 
L 55.515625 0 
L 55.515625 34.71875 
L 19.671875 34.71875 
L 19.671875 0 
L 9.8125 0 
z
" id="DejaVuSans-48"/>
      <path d="M 5.515625 54.6875 
L 48.1875 54.6875 
L 48.1875 46.484375 
L 14.40625 7.171875 
L 48.1875 7.171875 
L 48.1875 0 
L 4.296875 0 
L 4.296875 8.203125 
L 38.09375 47.515625 
L 5.515625 47.515625 
z
" id="DejaVuSans-7a"/>
      <path d="M 8.015625 75.875 
L 15.828125 75.875 
Q 23.140625 64.359375 26.78125 53.3125 
Q 30.421875 42.28125 30.421875 31.390625 
Q 30.421875 20.453125 26.78125 9.375 
Q 23.140625 -1.703125 15.828125 -13.1875 
L 8.015625 -13.1875 
Q 14.5 -2 17.703125 9.0625 
Q 20.90625 20.125 20.90625 31.390625 
Q 20.90625 42.671875 17.703125 53.65625 
Q 14.5 64.65625 8.015625 75.875 
z
" id="DejaVuSans-29"/>
     </defs>
     <g transform="translate(164.517813 338.262312)scale(0.2 -0.2)">
      <use xlink:href="#DejaVuSans-44"/>
      <use x="77.001953" xlink:href="#DejaVuSans-65"/>
      <use x="138.525391" xlink:href="#DejaVuSans-74"/>
      <use x="177.734375" xlink:href="#DejaVuSans-75"/>
      <use x="241.113281" xlink:href="#DejaVuSans-6e"/>
      <use x="304.492188" xlink:href="#DejaVuSans-69"/>
      <use x="332.275391" xlink:href="#DejaVuSans-6e"/>
      <use x="395.654297" xlink:href="#DejaVuSans-67"/>
      <use x="459.130859" xlink:href="#DejaVuSans-20"/>
      <use x="490.917969" xlink:href="#DejaVuSans-28"/>
      <use x="529.931641" xlink:href="#DejaVuSans-6b"/>
      <use x="587.841797" xlink:href="#DejaVuSans-48"/>
      <use x="663.037109" xlink:href="#DejaVuSans-7a"/>
      <use x="715.527344" xlink:href="#DejaVuSans-29"/>
     </g>
    </g>
   </g>
   <g id="matplotlib.axis_2">
    <g id="ytick_1">
     <g id="line2d_7">
      <path clip-path="url(#pbcf3292bdb)" d="M 61.410938 297.54825 
L 418.530938 297.54825 
" style="fill:none;stroke:#b0b0b0;stroke-linecap:square;stroke-width:0.8;"/>
     </g>
     <g id="line2d_8">
      <defs>
       <path d="M 0 0 
L -3.5 0 
" id="mc3ce260a5b" style="stroke:#000000;stroke-width:0.8;"/>
      </defs>
      <g>
       <use style="stroke:#000000;stroke-width:0.8;" x="61.410938" xlink:href="#mc3ce260a5b" y="297.54825"/>
      </g>
     </g>
     <g id="text_5">
      <!-- 0.0 -->
      <defs>
       <path d="M 10.6875 12.40625 
L 21 12.40625 
L 21 0 
L 10.6875 0 
z
" id="DejaVuSans-2e"/>
      </defs>
      <g transform="translate(30.55625 303.247078)scale(0.15 -0.15)">
       <use xlink:href="#DejaVuSans-30"/>
       <use x="63.623047" xlink:href="#DejaVuSans-2e"/>
       <use x="95.410156" xlink:href="#DejaVuSans-30"/>
      </g>
     </g>
    </g>
    <g id="ytick_2">
     <g id="line2d_9">
      <path clip-path="url(#pbcf3292bdb)" d="M 61.410938 244.32585 
L 418.530938 244.32585 
" style="fill:none;stroke:#b0b0b0;stroke-linecap:square;stroke-width:0.8;"/>
     </g>
     <g id="line2d_10">
      <g>
       <use style="stroke:#000000;stroke-width:0.8;" x="61.410938" xlink:href="#mc3ce260a5b" y="244.32585"/>
      </g>
     </g>
     <g id="text_6">
      <!-- 0.2 -->
      <defs>
       <path d="M 19.1875 8.296875 
L 53.609375 8.296875 
L 53.609375 0 
L 7.328125 0 
L 7.328125 8.296875 
Q 12.9375 14.109375 22.625 23.890625 
Q 32.328125 33.6875 34.8125 36.53125 
Q 39.546875 41.84375 41.421875 45.53125 
Q 43.3125 49.21875 43.3125 52.78125 
Q 43.3125 58.59375 39.234375 62.25 
Q 35.15625 65.921875 28.609375 65.921875 
Q 23.96875 65.921875 18.8125 64.3125 
Q 13.671875 62.703125 7.8125 59.421875 
L 7.8125 69.390625 
Q 13.765625 71.78125 18.9375 73 
Q 24.125 74.21875 28.421875 74.21875 
Q 39.75 74.21875 46.484375 68.546875 
Q 53.21875 62.890625 53.21875 53.421875 
Q 53.21875 48.921875 51.53125 44.890625 
Q 49.859375 40.875 45.40625 35.40625 
Q 44.1875 33.984375 37.640625 27.21875 
Q 31.109375 20.453125 19.1875 8.296875 
z
" id="DejaVuSans-32"/>
      </defs>
      <g transform="translate(30.55625 250.024678)scale(0.15 -0.15)">
       <use xlink:href="#DejaVuSans-30"/>
       <use x="63.623047" xlink:href="#DejaVuSans-2e"/>
       <use x="95.410156" xlink:href="#DejaVuSans-32"/>
      </g>
     </g>
    </g>
    <g id="ytick_3">
     <g id="line2d_11">
      <path clip-path="url(#pbcf3292bdb)" d="M 61.410938 191.10345 
L 418.530938 191.10345 
" style="fill:none;stroke:#b0b0b0;stroke-linecap:square;stroke-width:0.8;"/>
     </g>
     <g id="line2d_12">
      <g>
       <use style="stroke:#000000;stroke-width:0.8;" x="61.410938" xlink:href="#mc3ce260a5b" y="191.10345"/>
      </g>
     </g>
     <g id="text_7">
      <!-- 0.4 -->
      <defs>
       <path d="M 37.796875 64.3125 
L 12.890625 25.390625 
L 37.796875 25.390625 
z
M 35.203125 72.90625 
L 47.609375 72.90625 
L 47.609375 25.390625 
L 58.015625 25.390625 
L 58.015625 17.1875 
L 47.609375 17.1875 
L 47.609375 0 
L 37.796875 0 
L 37.796875 17.1875 
L 4.890625 17.1875 
L 4.890625 26.703125 
z
" id="DejaVuSans-34"/>
      </defs>
      <g transform="translate(30.55625 196.802278)scale(0.15 -0.15)">
       <use xlink:href="#DejaVuSans-30"/>
       <use x="63.623047" xlink:href="#DejaVuSans-2e"/>
       <use x="95.410156" xlink:href="#DejaVuSans-34"/>
      </g>
     </g>
    </g>
    <g id="ytick_4">
     <g id="line2d_13">
      <path clip-path="url(#pbcf3292bdb)" d="M 61.410938 137.88105 
L 418.530938 137.88105 
" style="fill:none;stroke:#b0b0b0;stroke-linecap:square;stroke-width:0.8;"/>
     </g>
     <g id="line2d_14">
      <g>
       <use style="stroke:#000000;stroke-width:0.8;" x="61.410938" xlink:href="#mc3ce260a5b" y="137.88105"/>
      </g>
     </g>
     <g id="text_8">
      <!-- 0.6 -->
      <defs>
       <path d="M 33.015625 40.375 
Q 26.375 40.375 22.484375 35.828125 
Q 18.609375 31.296875 18.609375 23.390625 
Q 18.609375 15.53125 22.484375 10.953125 
Q 26.375 6.390625 33.015625 6.390625 
Q 39.65625 6.390625 43.53125 10.953125 
Q 47.40625 15.53125 47.40625 23.390625 
Q 47.40625 31.296875 43.53125 35.828125 
Q 39.65625 40.375 33.015625 40.375 
z
M 52.59375 71.296875 
L 52.59375 62.3125 
Q 48.875 64.0625 45.09375 64.984375 
Q 41.3125 65.921875 37.59375 65.921875 
Q 27.828125 65.921875 22.671875 59.328125 
Q 17.53125 52.734375 16.796875 39.40625 
Q 19.671875 43.65625 24.015625 45.921875 
Q 28.375 48.1875 33.59375 48.1875 
Q 44.578125 48.1875 50.953125 41.515625 
Q 57.328125 34.859375 57.328125 23.390625 
Q 57.328125 12.15625 50.6875 5.359375 
Q 44.046875 -1.421875 33.015625 -1.421875 
Q 20.359375 -1.421875 13.671875 8.265625 
Q 6.984375 17.96875 6.984375 36.375 
Q 6.984375 53.65625 15.1875 63.9375 
Q 23.390625 74.21875 37.203125 74.21875 
Q 40.921875 74.21875 44.703125 73.484375 
Q 48.484375 72.75 52.59375 71.296875 
z
" id="DejaVuSans-36"/>
      </defs>
      <g transform="translate(30.55625 143.579878)scale(0.15 -0.15)">
       <use xlink:href="#DejaVuSans-30"/>
       <use x="63.623047" xlink:href="#DejaVuSans-2e"/>
       <use x="95.410156" xlink:href="#DejaVuSans-36"/>
      </g>
     </g>
    </g>
    <g id="ytick_5">
     <g id="line2d_15">
      <path clip-path="url(#pbcf3292bdb)" d="M 61.410938 84.65865 
L 418.530938 84.65865 
" style="fill:none;stroke:#b0b0b0;stroke-linecap:square;stroke-width:0.8;"/>
     </g>
     <g id="line2d_16">
      <g>
       <use style="stroke:#000000;stroke-width:0.8;" x="61.410938" xlink:href="#mc3ce260a5b" y="84.65865"/>
      </g>
     </g>
     <g id="text_9">
      <!-- 0.8 -->
      <defs>
       <path d="M 31.78125 34.625 
Q 24.75 34.625 20.71875 30.859375 
Q 16.703125 27.09375 16.703125 20.515625 
Q 16.703125 13.921875 20.71875 10.15625 
Q 24.75 6.390625 31.78125 6.390625 
Q 38.8125 6.390625 42.859375 10.171875 
Q 46.921875 13.96875 46.921875 20.515625 
Q 46.921875 27.09375 42.890625 30.859375 
Q 38.875 34.625 31.78125 34.625 
z
M 21.921875 38.8125 
Q 15.578125 40.375 12.03125 44.71875 
Q 8.5 49.078125 8.5 55.328125 
Q 8.5 64.0625 14.71875 69.140625 
Q 20.953125 74.21875 31.78125 74.21875 
Q 42.671875 74.21875 48.875 69.140625 
Q 55.078125 64.0625 55.078125 55.328125 
Q 55.078125 49.078125 51.53125 44.71875 
Q 48 40.375 41.703125 38.8125 
Q 48.828125 37.15625 52.796875 32.3125 
Q 56.78125 27.484375 56.78125 20.515625 
Q 56.78125 9.90625 50.3125 4.234375 
Q 43.84375 -1.421875 31.78125 -1.421875 
Q 19.734375 -1.421875 13.25 4.234375 
Q 6.78125 9.90625 6.78125 20.515625 
Q 6.78125 27.484375 10.78125 32.3125 
Q 14.796875 37.15625 21.921875 38.8125 
z
M 18.3125 54.390625 
Q 18.3125 48.734375 21.84375 45.5625 
Q 25.390625 42.390625 31.78125 42.390625 
Q 38.140625 42.390625 41.71875 45.5625 
Q 45.3125 48.734375 45.3125 54.390625 
Q 45.3125 60.0625 41.71875 63.234375 
Q 38.140625 66.40625 31.78125 66.40625 
Q 25.390625 66.40625 21.84375 63.234375 
Q 18.3125 60.0625 18.3125 54.390625 
z
" id="DejaVuSans-38"/>
      </defs>
      <g transform="translate(30.55625 90.357478)scale(0.15 -0.15)">
       <use xlink:href="#DejaVuSans-30"/>
       <use x="63.623047" xlink:href="#DejaVuSans-2e"/>
       <use x="95.410156" xlink:href="#DejaVuSans-38"/>
      </g>
     </g>
    </g>
    <g id="ytick_6">
     <g id="line2d_17">
      <path clip-path="url(#pbcf3292bdb)" d="M 61.410938 31.43625 
L 418.530938 31.43625 
" style="fill:none;stroke:#b0b0b0;stroke-linecap:square;stroke-width:0.8;"/>
     </g>
     <g id="line2d_18">
      <g>
       <use style="stroke:#000000;stroke-width:0.8;" x="61.410938" xlink:href="#mc3ce260a5b" y="31.43625"/>
      </g>
     </g>
     <g id="text_10">
      <!-- 1.0 -->
      <defs>
       <path d="M 12.40625 8.296875 
L 28.515625 8.296875 
L 28.515625 63.921875 
L 10.984375 60.40625 
L 10.984375 69.390625 
L 28.421875 72.90625 
L 38.28125 72.90625 
L 38.28125 8.296875 
L 54.390625 8.296875 
L 54.390625 0 
L 12.40625 0 
z
" id="DejaVuSans-31"/>
      </defs>
      <g transform="translate(30.55625 37.135078)scale(0.15 -0.15)">
       <use xlink:href="#DejaVuSans-31"/>
       <use x="63.623047" xlink:href="#DejaVuSans-2e"/>
       <use x="95.410156" xlink:href="#DejaVuSans-30"/>
      </g>
     </g>
    </g>
    <g id="text_11">
     <!-- Survival -->
     <defs>
      <path d="M 53.515625 70.515625 
L 53.515625 60.890625 
Q 47.90625 63.578125 42.921875 64.890625 
Q 37.9375 66.21875 33.296875 66.21875 
Q 25.25 66.21875 20.875 63.09375 
Q 16.5 59.96875 16.5 54.203125 
Q 16.5 49.359375 19.40625 46.890625 
Q 22.3125 44.4375 30.421875 42.921875 
L 36.375 41.703125 
Q 47.40625 39.59375 52.65625 34.296875 
Q 57.90625 29 57.90625 20.125 
Q 57.90625 9.515625 50.796875 4.046875 
Q 43.703125 -1.421875 29.984375 -1.421875 
Q 24.8125 -1.421875 18.96875 -0.25 
Q 13.140625 0.921875 6.890625 3.21875 
L 6.890625 13.375 
Q 12.890625 10.015625 18.65625 8.296875 
Q 24.421875 6.59375 29.984375 6.59375 
Q 38.421875 6.59375 43.015625 9.90625 
Q 47.609375 13.234375 47.609375 19.390625 
Q 47.609375 24.75 44.3125 27.78125 
Q 41.015625 30.8125 33.5 32.328125 
L 27.484375 33.5 
Q 16.453125 35.6875 11.515625 40.375 
Q 6.59375 45.0625 6.59375 53.421875 
Q 6.59375 63.09375 13.40625 68.65625 
Q 20.21875 74.21875 32.171875 74.21875 
Q 37.3125 74.21875 42.625 73.28125 
Q 47.953125 72.359375 53.515625 70.515625 
z
" id="DejaVuSans-53"/>
      <path d="M 41.109375 46.296875 
Q 39.59375 47.171875 37.8125 47.578125 
Q 36.03125 48 33.890625 48 
Q 26.265625 48 22.1875 43.046875 
Q 18.109375 38.09375 18.109375 28.8125 
L 18.109375 0 
L 9.078125 0 
L 9.078125 54.6875 
L 18.109375 54.6875 
L 18.109375 46.1875 
Q 20.953125 51.171875 25.484375 53.578125 
Q 30.03125 56 36.53125 56 
Q 37.453125 56 38.578125 55.875 
Q 39.703125 55.765625 41.0625 55.515625 
z
" id="DejaVuSans-72"/>
      <path d="M 2.984375 54.6875 
L 12.5 54.6875 
L 29.59375 8.796875 
L 46.6875 54.6875 
L 56.203125 54.6875 
L 35.6875 0 
L 23.484375 0 
z
" id="DejaVuSans-76"/>
      <path d="M 34.28125 27.484375 
Q 23.390625 27.484375 19.1875 25 
Q 14.984375 22.515625 14.984375 16.5 
Q 14.984375 11.71875 18.140625 8.90625 
Q 21.296875 6.109375 26.703125 6.109375 
Q 34.1875 6.109375 38.703125 11.40625 
Q 43.21875 16.703125 43.21875 25.484375 
L 43.21875 27.484375 
z
M 52.203125 31.203125 
L 52.203125 0 
L 43.21875 0 
L 43.21875 8.296875 
Q 40.140625 3.328125 35.546875 0.953125 
Q 30.953125 -1.421875 24.3125 -1.421875 
Q 15.921875 -1.421875 10.953125 3.296875 
Q 6 8.015625 6 15.921875 
Q 6 25.140625 12.171875 29.828125 
Q 18.359375 34.515625 30.609375 34.515625 
L 43.21875 34.515625 
L 43.21875 35.40625 
Q 43.21875 41.609375 39.140625 45 
Q 35.0625 48.390625 27.6875 48.390625 
Q 23 48.390625 18.546875 47.265625 
Q 14.109375 46.140625 10.015625 43.890625 
L 10.015625 52.203125 
Q 14.9375 54.109375 19.578125 55.046875 
Q 24.21875 56 28.609375 56 
Q 40.484375 56 46.34375 49.84375 
Q 52.203125 43.703125 52.203125 31.203125 
z
" id="DejaVuSans-61"/>
      <path d="M 9.421875 75.984375 
L 18.40625 75.984375 
L 18.40625 0 
L 9.421875 0 
z
" id="DejaVuSans-6c"/>
     </defs>
     <g transform="translate(22.396875 204.811)rotate(-90)scale(0.2 -0.2)">
      <use xlink:href="#DejaVuSans-53"/>
      <use x="63.476562" xlink:href="#DejaVuSans-75"/>
      <use x="126.855469" xlink:href="#DejaVuSans-72"/>
      <use x="167.96875" xlink:href="#DejaVuSans-76"/>
      <use x="227.148438" xlink:href="#DejaVuSans-69"/>
      <use x="254.931641" xlink:href="#DejaVuSans-76"/>
      <use x="314.111328" xlink:href="#DejaVuSans-61"/>
      <use x="375.390625" xlink:href="#DejaVuSans-6c"/>
     </g>
    </g>
   </g>
   <g id="LineCollection_1">
    <path clip-path="url(#pbcf3292bdb)" d="M 77.643665 296.891747 
L 77.643665 293.087215 
" style="fill:none;stroke:#1f77b4;stroke-width:1.5;"/>
    <path clip-path="url(#pbcf3292bdb)" d="M 79.672756 294.527715 
L 79.672756 288.232467 
" style="fill:none;stroke:#1f77b4;stroke-width:1.5;"/>
    <path clip-path="url(#pbcf3292bdb)" d="M 81.701847 295.849652 
L 81.701847 290.825582 
" style="fill:none;stroke:#1f77b4;stroke-width:1.5;"/>
    <path clip-path="url(#pbcf3292bdb)" d="M 83.730938 295.782008 
L 83.730938 290.560807 
" style="fill:none;stroke:#1f77b4;stroke-width:1.5;"/>
    <path clip-path="url(#pbcf3292bdb)" d="M 85.760028 294.423216 
L 85.760028 287.914489 
" style="fill:none;stroke:#1f77b4;stroke-width:1.5;"/>
    <path clip-path="url(#pbcf3292bdb)" d="M 87.789119 294.547782 
L 87.789119 288.29356 
" style="fill:none;stroke:#1f77b4;stroke-width:1.5;"/>
    <path clip-path="url(#pbcf3292bdb)" d="M 89.81821 291.711534 
L 89.81821 283.606372 
" style="fill:none;stroke:#1f77b4;stroke-width:1.5;"/>
    <path clip-path="url(#pbcf3292bdb)" d="M 91.847301 289.137106 
L 91.847301 280.039394 
" style="fill:none;stroke:#1f77b4;stroke-width:1.5;"/>
    <path clip-path="url(#pbcf3292bdb)" d="M 93.876392 295.463803 
L 93.876392 289.318279 
" style="fill:none;stroke:#1f77b4;stroke-width:1.5;"/>
    <path clip-path="url(#pbcf3292bdb)" d="M 95.905483 290.50789 
L 95.905483 281.977786 
" style="fill:none;stroke:#1f77b4;stroke-width:1.5;"/>
    <path clip-path="url(#pbcf3292bdb)" d="M 97.934574 280.901287 
L 97.934574 269.288813 
" style="fill:none;stroke:#1f77b4;stroke-width:1.5;"/>
    <path clip-path="url(#pbcf3292bdb)" d="M 99.963665 290.267086 
L 99.963665 281.454712 
" style="fill:none;stroke:#1f77b4;stroke-width:1.5;"/>
    <path clip-path="url(#pbcf3292bdb)" d="M 101.992756 289.84555 
L 101.992756 280.54055 
" style="fill:none;stroke:#1f77b4;stroke-width:1.5;"/>
    <path clip-path="url(#pbcf3292bdb)" d="M 104.021847 289.45634 
L 104.021847 280.69216 
" style="fill:none;stroke:#1f77b4;stroke-width:1.5;"/>
    <path clip-path="url(#pbcf3292bdb)" d="M 106.050938 295.827688 
L 106.050938 290.739582 
" style="fill:none;stroke:#1f77b4;stroke-width:1.5;"/>
    <path clip-path="url(#pbcf3292bdb)" d="M 108.080028 294.465872 
L 108.080028 288.04425 
" style="fill:none;stroke:#1f77b4;stroke-width:1.5;"/>
    <path clip-path="url(#pbcf3292bdb)" d="M 110.109119 291.63063 
L 110.109119 283.416336 
" style="fill:none;stroke:#1f77b4;stroke-width:1.5;"/>
    <path clip-path="url(#pbcf3292bdb)" d="M 112.13821 289.45634 
L 112.13821 280.69216 
" style="fill:none;stroke:#1f77b4;stroke-width:1.5;"/>
    <path clip-path="url(#pbcf3292bdb)" d="M 114.167301 297.54825 
L 114.167301 295.70025 
" style="fill:none;stroke:#1f77b4;stroke-width:1.5;"/>
    <path clip-path="url(#pbcf3292bdb)" d="M 116.196392 289.732427 
L 116.196392 280.295552 
" style="fill:none;stroke:#1f77b4;stroke-width:1.5;"/>
    <path clip-path="url(#pbcf3292bdb)" d="M 118.225483 294.44469 
L 118.225483 287.97981 
" style="fill:none;stroke:#1f77b4;stroke-width:1.5;"/>
    <path clip-path="url(#pbcf3292bdb)" d="M 120.254574 296.78873 
L 120.254574 292.39417 
" style="fill:none;stroke:#1f77b4;stroke-width:1.5;"/>
    <path clip-path="url(#pbcf3292bdb)" d="M 122.283665 293.146086 
L 122.283665 285.876535 
" style="fill:none;stroke:#1f77b4;stroke-width:1.5;"/>
    <path clip-path="url(#pbcf3292bdb)" d="M 124.312756 289.955444 
L 124.312756 280.778689 
" style="fill:none;stroke:#1f77b4;stroke-width:1.5;"/>
    <path clip-path="url(#pbcf3292bdb)" d="M 126.341847 291.189962 
L 126.341847 282.382773 
" style="fill:none;stroke:#1f77b4;stroke-width:1.5;"/>
    <path clip-path="url(#pbcf3292bdb)" d="M 128.370938 291.711534 
L 128.370938 283.606372 
" style="fill:none;stroke:#1f77b4;stroke-width:1.5;"/>
    <path clip-path="url(#pbcf3292bdb)" d="M 130.400028 284.75726 
L 130.400028 274.05124 
" style="fill:none;stroke:#1f77b4;stroke-width:1.5;"/>
    <path clip-path="url(#pbcf3292bdb)" d="M 132.429119 276.947576 
L 132.429119 263.416669 
" style="fill:none;stroke:#1f77b4;stroke-width:1.5;"/>
    <path clip-path="url(#pbcf3292bdb)" d="M 134.45821 284.230958 
L 134.45821 273.106406 
" style="fill:none;stroke:#1f77b4;stroke-width:1.5;"/>
    <path clip-path="url(#pbcf3292bdb)" d="M 136.487301 274.07907 
L 136.487301 259.454207 
" style="fill:none;stroke:#1f77b4;stroke-width:1.5;"/>
    <path clip-path="url(#pbcf3292bdb)" d="M 138.516392 273.746711 
L 138.516392 259.50686 
" style="fill:none;stroke:#1f77b4;stroke-width:1.5;"/>
    <path clip-path="url(#pbcf3292bdb)" d="M 140.545483 277.178695 
L 140.545483 264.349805 
" style="fill:none;stroke:#1f77b4;stroke-width:1.5;"/>
    <path clip-path="url(#pbcf3292bdb)" d="M 142.574574 276.48319 
L 142.574574 263.247726 
" style="fill:none;stroke:#1f77b4;stroke-width:1.5;"/>
    <path clip-path="url(#pbcf3292bdb)" d="M 144.603665 269.193286 
L 144.603665 254.592155 
" style="fill:none;stroke:#1f77b4;stroke-width:1.5;"/>
    <path clip-path="url(#pbcf3292bdb)" d="M 146.632756 265.083394 
L 146.632756 248.590778 
" style="fill:none;stroke:#1f77b4;stroke-width:1.5;"/>
    <path clip-path="url(#pbcf3292bdb)" d="M 148.661847 284.903258 
L 148.661847 273.554634 
" style="fill:none;stroke:#1f77b4;stroke-width:1.5;"/>
    <path clip-path="url(#pbcf3292bdb)" d="M 150.690938 287.497715 
L 150.690938 277.639156 
" style="fill:none;stroke:#1f77b4;stroke-width:1.5;"/>
    <path clip-path="url(#pbcf3292bdb)" d="M 152.720028 287.075995 
L 152.720028 276.821167 
" style="fill:none;stroke:#1f77b4;stroke-width:1.5;"/>
    <path clip-path="url(#pbcf3292bdb)" d="M 154.749119 288.216754 
L 154.749119 278.162624 
" style="fill:none;stroke:#1f77b4;stroke-width:1.5;"/>
    <path clip-path="url(#pbcf3292bdb)" d="M 156.77821 289.24628 
L 156.77821 280.262528 
" style="fill:none;stroke:#1f77b4;stroke-width:1.5;"/>
    <path clip-path="url(#pbcf3292bdb)" d="M 158.807301 296.783012 
L 158.807301 292.355757 
" style="fill:none;stroke:#1f77b4;stroke-width:1.5;"/>
    <path clip-path="url(#pbcf3292bdb)" d="M 160.836392 294.44469 
L 160.836392 287.97981 
" style="fill:none;stroke:#1f77b4;stroke-width:1.5;"/>
    <path clip-path="url(#pbcf3292bdb)" d="M 162.865483 294.507378 
L 162.865483 288.170562 
" style="fill:none;stroke:#1f77b4;stroke-width:1.5;"/>
    <path clip-path="url(#pbcf3292bdb)" d="M 164.894574 291.328904 
L 164.894574 282.708373 
" style="fill:none;stroke:#1f77b4;stroke-width:1.5;"/>
    <path clip-path="url(#pbcf3292bdb)" d="M 166.923665 296.846417 
L 166.923665 292.782028 
" style="fill:none;stroke:#1f77b4;stroke-width:1.5;"/>
    <path clip-path="url(#pbcf3292bdb)" d="M 168.952756 291.866881 
L 168.952756 283.971514 
" style="fill:none;stroke:#1f77b4;stroke-width:1.5;"/>
    <path clip-path="url(#pbcf3292bdb)" d="M 170.981847 285.165076 
L 170.981847 274.784556 
" style="fill:none;stroke:#1f77b4;stroke-width:1.5;"/>
    <path clip-path="url(#pbcf3292bdb)" d="M 173.010938 276.645743 
L 173.010938 262.930987 
" style="fill:none;stroke:#1f77b4;stroke-width:1.5;"/>
    <path clip-path="url(#pbcf3292bdb)" d="M 175.040028 276.767016 
L 175.040028 263.697219 
" style="fill:none;stroke:#1f77b4;stroke-width:1.5;"/>
    <path clip-path="url(#pbcf3292bdb)" d="M 177.069119 276.626066 
L 177.069119 263.473954 
" style="fill:none;stroke:#1f77b4;stroke-width:1.5;"/>
    <path clip-path="url(#pbcf3292bdb)" d="M 179.09821 267.026274 
L 179.09821 252.278833 
" style="fill:none;stroke:#1f77b4;stroke-width:1.5;"/>
    <path clip-path="url(#pbcf3292bdb)" d="M 181.127301 239.074147 
L 181.127301 218.994532 
" style="fill:none;stroke:#1f77b4;stroke-width:1.5;"/>
    <path clip-path="url(#pbcf3292bdb)" d="M 183.156392 225.034015 
L 183.156392 204.440331 
" style="fill:none;stroke:#1f77b4;stroke-width:1.5;"/>
    <path clip-path="url(#pbcf3292bdb)" d="M 185.185483 231.933233 
L 185.185483 212.366467 
" style="fill:none;stroke:#1f77b4;stroke-width:1.5;"/>
    <path clip-path="url(#pbcf3292bdb)" d="M 187.214574 229.158742 
L 187.214574 209.704261 
" style="fill:none;stroke:#1f77b4;stroke-width:1.5;"/>
    <path clip-path="url(#pbcf3292bdb)" d="M 189.243665 248.817992 
L 189.243665 231.24945 
" style="fill:none;stroke:#1f77b4;stroke-width:1.5;"/>
    <path clip-path="url(#pbcf3292bdb)" d="M 191.272756 251.965735 
L 191.272756 234.098765 
" style="fill:none;stroke:#1f77b4;stroke-width:1.5;"/>
    <path clip-path="url(#pbcf3292bdb)" d="M 193.301847 262.760884 
L 193.301847 246.184249 
" style="fill:none;stroke:#1f77b4;stroke-width:1.5;"/>
    <path clip-path="url(#pbcf3292bdb)" d="M 195.330938 273.574683 
L 195.330938 259.240285 
" style="fill:none;stroke:#1f77b4;stroke-width:1.5;"/>
    <path clip-path="url(#pbcf3292bdb)" d="M 197.360028 276.334931 
L 197.360028 262.431291 
" style="fill:none;stroke:#1f77b4;stroke-width:1.5;"/>
    <path clip-path="url(#pbcf3292bdb)" d="M 199.389119 286.595648 
L 199.389119 276.701305 
" style="fill:none;stroke:#1f77b4;stroke-width:1.5;"/>
    <path clip-path="url(#pbcf3292bdb)" d="M 201.41821 288.216754 
L 201.41821 278.162624 
" style="fill:none;stroke:#1f77b4;stroke-width:1.5;"/>
    <path clip-path="url(#pbcf3292bdb)" d="M 203.447301 285.176361 
L 203.447301 274.061075 
" style="fill:none;stroke:#1f77b4;stroke-width:1.5;"/>
    <path clip-path="url(#pbcf3292bdb)" d="M 205.476392 286.733497 
L 205.476392 276.958481 
" style="fill:none;stroke:#1f77b4;stroke-width:1.5;"/>
    <path clip-path="url(#pbcf3292bdb)" d="M 207.505483 291.866881 
L 207.505483 283.971514 
" style="fill:none;stroke:#1f77b4;stroke-width:1.5;"/>
    <path clip-path="url(#pbcf3292bdb)" d="M 209.534574 293.399405 
L 209.534574 286.538816 
" style="fill:none;stroke:#1f77b4;stroke-width:1.5;"/>
    <path clip-path="url(#pbcf3292bdb)" d="M 211.563665 293.146086 
L 211.563665 285.876535 
" style="fill:none;stroke:#1f77b4;stroke-width:1.5;"/>
    <path clip-path="url(#pbcf3292bdb)" d="M 213.592756 288.791647 
L 213.592756 279.334042 
" style="fill:none;stroke:#1f77b4;stroke-width:1.5;"/>
    <path clip-path="url(#pbcf3292bdb)" d="M 215.621847 283.75811 
L 215.621847 272.259006 
" style="fill:none;stroke:#1f77b4;stroke-width:1.5;"/>
    <path clip-path="url(#pbcf3292bdb)" d="M 217.650938 271.498077 
L 217.650938 256.591805 
" style="fill:none;stroke:#1f77b4;stroke-width:1.5;"/>
    <path clip-path="url(#pbcf3292bdb)" d="M 219.680028 258.48151 
L 219.680028 242.188151 
" style="fill:none;stroke:#1f77b4;stroke-width:1.5;"/>
    <path clip-path="url(#pbcf3292bdb)" d="M 221.709119 242.672594 
L 221.709119 224.485444 
" style="fill:none;stroke:#1f77b4;stroke-width:1.5;"/>
    <path clip-path="url(#pbcf3292bdb)" d="M 223.73821 235.302826 
L 223.73821 215.167587 
" style="fill:none;stroke:#1f77b4;stroke-width:1.5;"/>
    <path clip-path="url(#pbcf3292bdb)" d="M 225.767301 218.96062 
L 225.767301 198.116128 
" style="fill:none;stroke:#1f77b4;stroke-width:1.5;"/>
    <path clip-path="url(#pbcf3292bdb)" d="M 227.796392 194.645311 
L 227.796392 173.57365 
" style="fill:none;stroke:#1f77b4;stroke-width:1.5;"/>
    <path clip-path="url(#pbcf3292bdb)" d="M 229.825483 210.830973 
L 229.825483 190.261295 
" style="fill:none;stroke:#1f77b4;stroke-width:1.5;"/>
    <path clip-path="url(#pbcf3292bdb)" d="M 231.854574 227.613981 
L 231.854574 207.060391 
" style="fill:none;stroke:#1f77b4;stroke-width:1.5;"/>
    <path clip-path="url(#pbcf3292bdb)" d="M 233.883665 229.465658 
L 233.883665 210.534891 
" style="fill:none;stroke:#1f77b4;stroke-width:1.5;"/>
    <path clip-path="url(#pbcf3292bdb)" d="M 235.912756 226.315829 
L 235.912756 205.74022 
" style="fill:none;stroke:#1f77b4;stroke-width:1.5;"/>
    <path clip-path="url(#pbcf3292bdb)" d="M 237.941847 251.750884 
L 237.941847 234.481616 
" style="fill:none;stroke:#1f77b4;stroke-width:1.5;"/>
    <path clip-path="url(#pbcf3292bdb)" d="M 239.970938 277.829729 
L 239.970938 265.383299 
" style="fill:none;stroke:#1f77b4;stroke-width:1.5;"/>
    <path clip-path="url(#pbcf3292bdb)" d="M 242.000028 288.791647 
L 242.000028 279.334042 
" style="fill:none;stroke:#1f77b4;stroke-width:1.5;"/>
    <path clip-path="url(#pbcf3292bdb)" d="M 244.029119 277.762301 
L 244.029119 264.111799 
" style="fill:none;stroke:#1f77b4;stroke-width:1.5;"/>
    <path clip-path="url(#pbcf3292bdb)" d="M 246.05821 290.50789 
L 246.05821 281.977786 
" style="fill:none;stroke:#1f77b4;stroke-width:1.5;"/>
    <path clip-path="url(#pbcf3292bdb)" d="M 248.087301 291.866881 
L 248.087301 283.971514 
" style="fill:none;stroke:#1f77b4;stroke-width:1.5;"/>
    <path clip-path="url(#pbcf3292bdb)" d="M 250.116392 290.644876 
L 250.116392 282.275624 
" style="fill:none;stroke:#1f77b4;stroke-width:1.5;"/>
    <path clip-path="url(#pbcf3292bdb)" d="M 252.145483 293.345664 
L 252.145483 286.39822 
" style="fill:none;stroke:#1f77b4;stroke-width:1.5;"/>
    <path clip-path="url(#pbcf3292bdb)" d="M 254.174574 289.081435 
L 254.174574 279.925653 
" style="fill:none;stroke:#1f77b4;stroke-width:1.5;"/>
    <path clip-path="url(#pbcf3292bdb)" d="M 256.203665 290.413506 
L 256.203665 281.77269 
" style="fill:none;stroke:#1f77b4;stroke-width:1.5;"/>
    <path clip-path="url(#pbcf3292bdb)" d="M 258.232756 278.754587 
L 258.232756 265.743152 
" style="fill:none;stroke:#1f77b4;stroke-width:1.5;"/>
    <path clip-path="url(#pbcf3292bdb)" d="M 260.261847 282.455859 
L 260.261847 271.318902 
" style="fill:none;stroke:#1f77b4;stroke-width:1.5;"/>
    <path clip-path="url(#pbcf3292bdb)" d="M 262.290938 266.898528 
L 262.290938 250.747464 
" style="fill:none;stroke:#1f77b4;stroke-width:1.5;"/>
    <path clip-path="url(#pbcf3292bdb)" d="M 264.320028 256.860414 
L 264.320028 239.607163 
" style="fill:none;stroke:#1f77b4;stroke-width:1.5;"/>
    <path clip-path="url(#pbcf3292bdb)" d="M 266.349119 243.045865 
L 266.349119 224.388797 
" style="fill:none;stroke:#1f77b4;stroke-width:1.5;"/>
    <path clip-path="url(#pbcf3292bdb)" d="M 268.37821 237.970306 
L 268.37821 218.526194 
" style="fill:none;stroke:#1f77b4;stroke-width:1.5;"/>
    <path clip-path="url(#pbcf3292bdb)" d="M 270.407301 218.96062 
L 270.407301 198.116128 
" style="fill:none;stroke:#1f77b4;stroke-width:1.5;"/>
    <path clip-path="url(#pbcf3292bdb)" d="M 272.436392 212.554618 
L 272.436392 192.461882 
" style="fill:none;stroke:#1f77b4;stroke-width:1.5;"/>
    <path clip-path="url(#pbcf3292bdb)" d="M 274.465483 208.558367 
L 274.465483 187.818133 
" style="fill:none;stroke:#1f77b4;stroke-width:1.5;"/>
    <path clip-path="url(#pbcf3292bdb)" d="M 276.494574 220.605175 
L 276.494574 200.080081 
" style="fill:none;stroke:#1f77b4;stroke-width:1.5;"/>
    <path clip-path="url(#pbcf3292bdb)" d="M 278.523665 233.635802 
L 278.523665 214.212058 
" style="fill:none;stroke:#1f77b4;stroke-width:1.5;"/>
    <path clip-path="url(#pbcf3292bdb)" d="M 280.552756 261.731341 
L 280.552756 246.303826 
" style="fill:none;stroke:#1f77b4;stroke-width:1.5;"/>
    <path clip-path="url(#pbcf3292bdb)" d="M 282.581847 256.269426 
L 282.581847 238.799159 
" style="fill:none;stroke:#1f77b4;stroke-width:1.5;"/>
    <path clip-path="url(#pbcf3292bdb)" d="M 284.610938 269.467857 
L 284.610938 254.543931 
" style="fill:none;stroke:#1f77b4;stroke-width:1.5;"/>
    <path clip-path="url(#pbcf3292bdb)" d="M 286.640028 281.581047 
L 286.640028 269.163453 
" style="fill:none;stroke:#1f77b4;stroke-width:1.5;"/>
    <path clip-path="url(#pbcf3292bdb)" d="M 288.669119 289.299811 
L 288.669119 280.371976 
" style="fill:none;stroke:#1f77b4;stroke-width:1.5;"/>
    <path clip-path="url(#pbcf3292bdb)" d="M 290.69821 284.41114 
L 290.69821 273.42968 
" style="fill:none;stroke:#1f77b4;stroke-width:1.5;"/>
    <path clip-path="url(#pbcf3292bdb)" d="M 292.727301 292.572186 
L 292.727301 284.380314 
" style="fill:none;stroke:#1f77b4;stroke-width:1.5;"/>
    <path clip-path="url(#pbcf3292bdb)" d="M 294.756392 294.587126 
L 294.756392 288.413374 
" style="fill:none;stroke:#1f77b4;stroke-width:1.5;"/>
    <path clip-path="url(#pbcf3292bdb)" d="M 296.785483 289.24628 
L 296.785483 280.262528 
" style="fill:none;stroke:#1f77b4;stroke-width:1.5;"/>
    <path clip-path="url(#pbcf3292bdb)" d="M 298.814574 286.927445 
L 298.814574 276.533363 
" style="fill:none;stroke:#1f77b4;stroke-width:1.5;"/>
    <path clip-path="url(#pbcf3292bdb)" d="M 300.843665 287.220447 
L 300.843665 277.101196 
" style="fill:none;stroke:#1f77b4;stroke-width:1.5;"/>
    <path clip-path="url(#pbcf3292bdb)" d="M 302.872756 273.766472 
L 302.872756 260.054238 
" style="fill:none;stroke:#1f77b4;stroke-width:1.5;"/>
    <path clip-path="url(#pbcf3292bdb)" d="M 304.901847 270.748614 
L 304.901847 255.971886 
" style="fill:none;stroke:#1f77b4;stroke-width:1.5;"/>
    <path clip-path="url(#pbcf3292bdb)" d="M 306.930938 260.449777 
L 306.930938 244.168643 
" style="fill:none;stroke:#1f77b4;stroke-width:1.5;"/>
    <path clip-path="url(#pbcf3292bdb)" d="M 308.960028 248.117517 
L 308.960028 229.349766 
" style="fill:none;stroke:#1f77b4;stroke-width:1.5;"/>
    <path clip-path="url(#pbcf3292bdb)" d="M 310.989119 213.605255 
L 310.989119 192.459962 
" style="fill:none;stroke:#1f77b4;stroke-width:1.5;"/>
    <path clip-path="url(#pbcf3292bdb)" d="M 313.01821 206.397445 
L 313.01821 185.703363 
" style="fill:none;stroke:#1f77b4;stroke-width:1.5;"/>
    <path clip-path="url(#pbcf3292bdb)" d="M 315.047301 218.307604 
L 315.047301 197.570611 
" style="fill:none;stroke:#1f77b4;stroke-width:1.5;"/>
    <path clip-path="url(#pbcf3292bdb)" d="M 317.076392 213.070964 
L 317.076392 192.676613 
" style="fill:none;stroke:#1f77b4;stroke-width:1.5;"/>
    <path clip-path="url(#pbcf3292bdb)" d="M 319.105483 221.867622 
L 319.105483 202.035807 
" style="fill:none;stroke:#1f77b4;stroke-width:1.5;"/>
    <path clip-path="url(#pbcf3292bdb)" d="M 321.134574 234.953617 
L 321.134574 216.343231 
" style="fill:none;stroke:#1f77b4;stroke-width:1.5;"/>
    <path clip-path="url(#pbcf3292bdb)" d="M 323.163665 253.832382 
L 323.163665 236.593398 
" style="fill:none;stroke:#1f77b4;stroke-width:1.5;"/>
    <path clip-path="url(#pbcf3292bdb)" d="M 325.192756 254.911238 
L 325.192756 237.696181 
" style="fill:none;stroke:#1f77b4;stroke-width:1.5;"/>
    <path clip-path="url(#pbcf3292bdb)" d="M 327.221847 272.290685 
L 327.221847 258.741815 
" style="fill:none;stroke:#1f77b4;stroke-width:1.5;"/>
    <path clip-path="url(#pbcf3292bdb)" d="M 329.250938 278.072476 
L 329.250938 265.230413 
" style="fill:none;stroke:#1f77b4;stroke-width:1.5;"/>
    <path clip-path="url(#pbcf3292bdb)" d="M 331.280028 282.573917 
L 331.280028 270.886012 
" style="fill:none;stroke:#1f77b4;stroke-width:1.5;"/>
    <path clip-path="url(#pbcf3292bdb)" d="M 333.309119 288.078596 
L 333.309119 277.881554 
" style="fill:none;stroke:#1f77b4;stroke-width:1.5;"/>
    <path clip-path="url(#pbcf3292bdb)" d="M 335.33821 289.025022 
L 335.33821 279.810425 
" style="fill:none;stroke:#1f77b4;stroke-width:1.5;"/>
    <path clip-path="url(#pbcf3292bdb)" d="M 337.367301 288.909911 
L 337.367301 279.575389 
" style="fill:none;stroke:#1f77b4;stroke-width:1.5;"/>
    <path clip-path="url(#pbcf3292bdb)" d="M 339.396392 293.054629 
L 339.396392 285.637707 
" style="fill:none;stroke:#1f77b4;stroke-width:1.5;"/>
    <path clip-path="url(#pbcf3292bdb)" d="M 341.425483 288.481318 
L 341.425483 278.701336 
" style="fill:none;stroke:#1f77b4;stroke-width:1.5;"/>
    <path clip-path="url(#pbcf3292bdb)" d="M 343.454574 290.776632 
L 343.454574 282.562283 
" style="fill:none;stroke:#1f77b4;stroke-width:1.5;"/>
    <path clip-path="url(#pbcf3292bdb)" d="M 345.483665 292.15402 
L 345.483665 284.64728 
" style="fill:none;stroke:#1f77b4;stroke-width:1.5;"/>
    <path clip-path="url(#pbcf3292bdb)" d="M 347.512756 291.904434 
L 347.512756 284.059831 
" style="fill:none;stroke:#1f77b4;stroke-width:1.5;"/>
    <path clip-path="url(#pbcf3292bdb)" d="M 349.541847 284.139001 
L 349.541847 272.941499 
" style="fill:none;stroke:#1f77b4;stroke-width:1.5;"/>
    <path clip-path="url(#pbcf3292bdb)" d="M 351.570938 259.064181 
L 351.570938 242.62877 
" style="fill:none;stroke:#1f77b4;stroke-width:1.5;"/>
    <path clip-path="url(#pbcf3292bdb)" d="M 353.600028 264.464333 
L 353.600028 248.611345 
" style="fill:none;stroke:#1f77b4;stroke-width:1.5;"/>
    <path clip-path="url(#pbcf3292bdb)" d="M 355.629119 247.371008 
L 355.629119 228.366434 
" style="fill:none;stroke:#1f77b4;stroke-width:1.5;"/>
    <path clip-path="url(#pbcf3292bdb)" d="M 357.65821 245.47368 
L 357.65821 227.2113 
" style="fill:none;stroke:#1f77b4;stroke-width:1.5;"/>
    <path clip-path="url(#pbcf3292bdb)" d="M 359.687301 226.829598 
L 359.687301 206.366594 
" style="fill:none;stroke:#1f77b4;stroke-width:1.5;"/>
    <path clip-path="url(#pbcf3292bdb)" d="M 361.716392 250.896767 
L 361.716392 234.249266 
" style="fill:none;stroke:#1f77b4;stroke-width:1.5;"/>
    <path clip-path="url(#pbcf3292bdb)" d="M 363.745483 256.016671 
L 363.745483 238.832158 
" style="fill:none;stroke:#1f77b4;stroke-width:1.5;"/>
    <path clip-path="url(#pbcf3292bdb)" d="M 365.774574 255.825558 
L 365.774574 239.26707 
" style="fill:none;stroke:#1f77b4;stroke-width:1.5;"/>
    <path clip-path="url(#pbcf3292bdb)" d="M 367.803665 269.662649 
L 367.803665 254.832708 
" style="fill:none;stroke:#1f77b4;stroke-width:1.5;"/>
    <path clip-path="url(#pbcf3292bdb)" d="M 369.832756 273.574683 
L 369.832756 259.240285 
" style="fill:none;stroke:#1f77b4;stroke-width:1.5;"/>
    <path clip-path="url(#pbcf3292bdb)" d="M 371.861847 285.850099 
L 371.861847 275.312656 
" style="fill:none;stroke:#1f77b4;stroke-width:1.5;"/>
    <path clip-path="url(#pbcf3292bdb)" d="M 373.890938 276.48319 
L 373.890938 263.247726 
" style="fill:none;stroke:#1f77b4;stroke-width:1.5;"/>
    <path clip-path="url(#pbcf3292bdb)" d="M 375.920028 289.615931 
L 375.920028 280.043392 
" style="fill:none;stroke:#1f77b4;stroke-width:1.5;"/>
    <path clip-path="url(#pbcf3292bdb)" d="M 377.949119 292.959291 
L 377.949119 285.388902 
" style="fill:none;stroke:#1f77b4;stroke-width:1.5;"/>
    <path clip-path="url(#pbcf3292bdb)" d="M 379.97821 296.846417 
L 379.97821 292.782028 
" style="fill:none;stroke:#1f77b4;stroke-width:1.5;"/>
    <path clip-path="url(#pbcf3292bdb)" d="M 382.007301 290.59981 
L 382.007301 282.177619 
" style="fill:none;stroke:#1f77b4;stroke-width:1.5;"/>
    <path clip-path="url(#pbcf3292bdb)" d="M 384.036392 293.425764 
L 384.036392 286.607793 
" style="fill:none;stroke:#1f77b4;stroke-width:1.5;"/>
    <path clip-path="url(#pbcf3292bdb)" d="M 386.065483 294.379364 
L 386.065483 287.781136 
" style="fill:none;stroke:#1f77b4;stroke-width:1.5;"/>
    <path clip-path="url(#pbcf3292bdb)" d="M 388.094574 291.328904 
L 388.094574 282.708373 
" style="fill:none;stroke:#1f77b4;stroke-width:1.5;"/>
    <path clip-path="url(#pbcf3292bdb)" d="M 390.123665 291.67136 
L 390.123665 283.511997 
" style="fill:none;stroke:#1f77b4;stroke-width:1.5;"/>
    <path clip-path="url(#pbcf3292bdb)" d="M 392.152756 293.085534 
L 392.152756 285.718395 
" style="fill:none;stroke:#1f77b4;stroke-width:1.5;"/>
    <path clip-path="url(#pbcf3292bdb)" d="M 394.181847 286.774619 
L 394.181847 276.237456 
" style="fill:none;stroke:#1f77b4;stroke-width:1.5;"/>
    <path clip-path="url(#pbcf3292bdb)" d="M 396.210938 286.665009 
L 396.210938 276.830691 
" style="fill:none;stroke:#1f77b4;stroke-width:1.5;"/>
    <path clip-path="url(#pbcf3292bdb)" d="M 398.240028 286.160177 
L 398.240028 275.889734 
" style="fill:none;stroke:#1f77b4;stroke-width:1.5;"/>
    <path clip-path="url(#pbcf3292bdb)" d="M 400.269119 279.892966 
L 400.269119 267.620594 
" style="fill:none;stroke:#1f77b4;stroke-width:1.5;"/>
    <path clip-path="url(#pbcf3292bdb)" d="M 402.29821 276.90608 
L 402.29821 263.917578 
" style="fill:none;stroke:#1f77b4;stroke-width:1.5;"/>
   </g>
   <g id="line2d_19">
    <path clip-path="url(#pbcf3292bdb)" d="M 77.643665 294.989481 
L 79.672756 291.380091 
L 81.701847 293.337617 
L 83.730938 293.171408 
L 85.760028 291.168853 
L 87.789119 291.420671 
L 89.81821 287.658953 
L 91.847301 284.58825 
L 93.876392 292.391041 
L 95.905483 286.242838 
L 97.934574 275.09505 
L 99.963665 285.860899 
L 101.992756 285.19305 
L 104.021847 285.07425 
L 106.050938 293.283635 
L 108.080028 291.255061 
L 110.109119 287.523483 
L 112.13821 285.07425 
L 114.167301 296.62425 
L 116.196392 285.013989 
L 118.225483 291.21225 
L 120.254574 294.59145 
L 122.283665 289.51131 
L 124.312756 285.367067 
L 126.341847 286.786368 
L 128.370938 287.658953 
L 130.400028 279.40425 
L 132.429119 270.182122 
L 134.45821 278.668682 
L 136.487301 266.766638 
L 138.516392 266.626785 
L 140.545483 270.76425 
L 142.574574 269.865458 
L 144.603665 261.892721 
L 146.632756 256.837086 
L 148.661847 279.228946 
L 150.690938 282.568435 
L 152.720028 281.948581 
L 154.749119 283.189689 
L 156.77821 284.754404 
L 158.807301 294.569384 
L 160.836392 291.21225 
L 162.865483 291.33897 
L 164.894574 287.018638 
L 166.923665 294.814223 
L 168.952756 287.919197 
L 170.981847 279.974816 
L 173.010938 269.788365 
L 175.040028 270.232118 
L 177.069119 270.05001 
L 179.09821 259.652554 
L 181.127301 229.03434 
L 183.156392 214.737173 
L 185.185483 222.14985 
L 187.214574 219.431502 
L 189.243665 240.033721 
L 191.272756 243.03225 
L 195.330938 266.407484 
L 197.360028 269.383111 
L 199.389119 281.648476 
L 201.41821 283.189689 
L 203.447301 279.618718 
L 205.476392 281.845989 
L 207.505483 287.919197 
L 209.534574 289.969111 
L 211.563665 289.51131 
L 213.592756 284.062845 
L 215.621847 278.008558 
L 219.680028 250.334831 
L 221.709119 233.579019 
L 223.73821 225.235207 
L 225.767301 208.538374 
L 227.796392 184.109481 
L 231.854574 217.337186 
L 233.883665 220.000275 
L 235.912756 216.028025 
L 239.970938 271.606514 
L 242.000028 284.062845 
L 244.029119 270.93705 
L 246.05821 286.242838 
L 248.087301 287.919197 
L 250.116392 286.46025 
L 252.145483 289.871942 
L 254.174574 284.503544 
L 256.203665 286.093098 
L 258.232756 272.24887 
L 260.261847 276.88738 
L 262.290938 258.822996 
L 264.320028 248.233788 
L 266.349119 233.717331 
L 268.37821 228.24825 
L 270.407301 208.538374 
L 272.436392 202.50825 
L 274.465483 198.18825 
L 276.494574 210.342628 
L 278.523665 223.92393 
L 280.552756 254.017583 
L 282.581847 247.534293 
L 284.610938 262.005894 
L 286.640028 275.37225 
L 288.669119 284.835893 
L 290.69821 278.92041 
L 292.727301 288.47625 
L 294.756392 291.50025 
L 296.785483 284.754404 
L 298.814574 281.730404 
L 300.843665 282.160821 
L 302.872756 266.910355 
L 304.901847 263.36025 
L 306.930938 252.30921 
L 308.960028 238.733641 
L 310.989119 203.032609 
L 313.01821 196.050404 
L 315.047301 207.939107 
L 317.076392 202.873788 
L 319.105483 211.951715 
L 321.134574 225.648424 
L 323.163665 245.21289 
L 325.192756 246.303709 
L 327.221847 265.51625 
L 329.250938 271.651445 
L 331.280028 276.729964 
L 333.309119 282.980075 
L 335.33821 284.417724 
L 337.367301 284.24265 
L 339.396392 289.346168 
L 341.425483 283.591327 
L 343.454574 286.669458 
L 345.483665 288.40065 
L 347.512756 287.982132 
L 349.541847 278.54025 
L 351.570938 250.846475 
L 353.600028 256.537839 
L 355.629119 237.868721 
L 357.65821 236.34249 
L 359.687301 216.598096 
L 361.716392 242.573016 
L 363.745483 247.424414 
L 365.774574 247.546314 
L 367.803665 262.247679 
L 369.832756 266.407484 
L 371.861847 280.581378 
L 373.890938 269.865458 
L 375.920028 284.829662 
L 377.949119 289.174096 
L 379.97821 294.814223 
L 382.007301 286.388715 
L 384.036392 290.016778 
L 386.065483 291.08025 
L 388.094574 287.018638 
L 390.123665 287.591679 
L 392.152756 289.401964 
L 394.181847 281.506037 
L 396.210938 281.74785 
L 398.240028 281.024956 
L 400.269119 273.75678 
L 402.29821 270.411829 
L 402.29821 270.411829 
" style="fill:none;stroke:#1f77b4;stroke-linecap:square;stroke-width:1.5;"/>
    <defs>
     <path d="M 0 1.5 
C 0.397805 1.5 0.77937 1.341951 1.06066 1.06066 
C 1.341951 0.77937 1.5 0.397805 1.5 0 
C 1.5 -0.397805 1.341951 -0.77937 1.06066 -1.06066 
C 0.77937 -1.341951 0.397805 -1.5 0 -1.5 
C -0.397805 -1.5 -0.77937 -1.341951 -1.06066 -1.06066 
C -1.341951 -0.77937 -1.5 -0.397805 -1.5 0 
C -1.5 0.397805 -1.341951 0.77937 -1.06066 1.06066 
C -0.77937 1.341951 -0.397805 1.5 0 1.5 
z
" id="mb8bc26594a" style="stroke:#1f77b4;"/>
    </defs>
    <g clip-path="url(#pbcf3292bdb)">
     <use style="fill:#1f77b4;stroke:#1f77b4;" x="77.643665" xlink:href="#mb8bc26594a" y="294.989481"/>
     <use style="fill:#1f77b4;stroke:#1f77b4;" x="79.672756" xlink:href="#mb8bc26594a" y="291.380091"/>
     <use style="fill:#1f77b4;stroke:#1f77b4;" x="81.701847" xlink:href="#mb8bc26594a" y="293.337617"/>
     <use style="fill:#1f77b4;stroke:#1f77b4;" x="83.730938" xlink:href="#mb8bc26594a" y="293.171408"/>
     <use style="fill:#1f77b4;stroke:#1f77b4;" x="85.760028" xlink:href="#mb8bc26594a" y="291.168853"/>
     <use style="fill:#1f77b4;stroke:#1f77b4;" x="87.789119" xlink:href="#mb8bc26594a" y="291.420671"/>
     <use style="fill:#1f77b4;stroke:#1f77b4;" x="89.81821" xlink:href="#mb8bc26594a" y="287.658953"/>
     <use style="fill:#1f77b4;stroke:#1f77b4;" x="91.847301" xlink:href="#mb8bc26594a" y="284.58825"/>
     <use style="fill:#1f77b4;stroke:#1f77b4;" x="93.876392" xlink:href="#mb8bc26594a" y="292.391041"/>
     <use style="fill:#1f77b4;stroke:#1f77b4;" x="95.905483" xlink:href="#mb8bc26594a" y="286.242838"/>
     <use style="fill:#1f77b4;stroke:#1f77b4;" x="97.934574" xlink:href="#mb8bc26594a" y="275.09505"/>
     <use style="fill:#1f77b4;stroke:#1f77b4;" x="99.963665" xlink:href="#mb8bc26594a" y="285.860899"/>
     <use style="fill:#1f77b4;stroke:#1f77b4;" x="101.992756" xlink:href="#mb8bc26594a" y="285.19305"/>
     <use style="fill:#1f77b4;stroke:#1f77b4;" x="104.021847" xlink:href="#mb8bc26594a" y="285.07425"/>
     <use style="fill:#1f77b4;stroke:#1f77b4;" x="106.050938" xlink:href="#mb8bc26594a" y="293.283635"/>
     <use style="fill:#1f77b4;stroke:#1f77b4;" x="108.080028" xlink:href="#mb8bc26594a" y="291.255061"/>
     <use style="fill:#1f77b4;stroke:#1f77b4;" x="110.109119" xlink:href="#mb8bc26594a" y="287.523483"/>
     <use style="fill:#1f77b4;stroke:#1f77b4;" x="112.13821" xlink:href="#mb8bc26594a" y="285.07425"/>
     <use style="fill:#1f77b4;stroke:#1f77b4;" x="114.167301" xlink:href="#mb8bc26594a" y="296.62425"/>
     <use style="fill:#1f77b4;stroke:#1f77b4;" x="116.196392" xlink:href="#mb8bc26594a" y="285.013989"/>
     <use style="fill:#1f77b4;stroke:#1f77b4;" x="118.225483" xlink:href="#mb8bc26594a" y="291.21225"/>
     <use style="fill:#1f77b4;stroke:#1f77b4;" x="120.254574" xlink:href="#mb8bc26594a" y="294.59145"/>
     <use style="fill:#1f77b4;stroke:#1f77b4;" x="122.283665" xlink:href="#mb8bc26594a" y="289.51131"/>
     <use style="fill:#1f77b4;stroke:#1f77b4;" x="124.312756" xlink:href="#mb8bc26594a" y="285.367067"/>
     <use style="fill:#1f77b4;stroke:#1f77b4;" x="126.341847" xlink:href="#mb8bc26594a" y="286.786368"/>
     <use style="fill:#1f77b4;stroke:#1f77b4;" x="128.370938" xlink:href="#mb8bc26594a" y="287.658953"/>
     <use style="fill:#1f77b4;stroke:#1f77b4;" x="130.400028" xlink:href="#mb8bc26594a" y="279.40425"/>
     <use style="fill:#1f77b4;stroke:#1f77b4;" x="132.429119" xlink:href="#mb8bc26594a" y="270.182122"/>
     <use style="fill:#1f77b4;stroke:#1f77b4;" x="134.45821" xlink:href="#mb8bc26594a" y="278.668682"/>
     <use style="fill:#1f77b4;stroke:#1f77b4;" x="136.487301" xlink:href="#mb8bc26594a" y="266.766638"/>
     <use style="fill:#1f77b4;stroke:#1f77b4;" x="138.516392" xlink:href="#mb8bc26594a" y="266.626785"/>
     <use style="fill:#1f77b4;stroke:#1f77b4;" x="140.545483" xlink:href="#mb8bc26594a" y="270.76425"/>
     <use style="fill:#1f77b4;stroke:#1f77b4;" x="142.574574" xlink:href="#mb8bc26594a" y="269.865458"/>
     <use style="fill:#1f77b4;stroke:#1f77b4;" x="144.603665" xlink:href="#mb8bc26594a" y="261.892721"/>
     <use style="fill:#1f77b4;stroke:#1f77b4;" x="146.632756" xlink:href="#mb8bc26594a" y="256.837086"/>
     <use style="fill:#1f77b4;stroke:#1f77b4;" x="148.661847" xlink:href="#mb8bc26594a" y="279.228946"/>
     <use style="fill:#1f77b4;stroke:#1f77b4;" x="150.690938" xlink:href="#mb8bc26594a" y="282.568435"/>
     <use style="fill:#1f77b4;stroke:#1f77b4;" x="152.720028" xlink:href="#mb8bc26594a" y="281.948581"/>
     <use style="fill:#1f77b4;stroke:#1f77b4;" x="154.749119" xlink:href="#mb8bc26594a" y="283.189689"/>
     <use style="fill:#1f77b4;stroke:#1f77b4;" x="156.77821" xlink:href="#mb8bc26594a" y="284.754404"/>
     <use style="fill:#1f77b4;stroke:#1f77b4;" x="158.807301" xlink:href="#mb8bc26594a" y="294.569384"/>
     <use style="fill:#1f77b4;stroke:#1f77b4;" x="160.836392" xlink:href="#mb8bc26594a" y="291.21225"/>
     <use style="fill:#1f77b4;stroke:#1f77b4;" x="162.865483" xlink:href="#mb8bc26594a" y="291.33897"/>
     <use style="fill:#1f77b4;stroke:#1f77b4;" x="164.894574" xlink:href="#mb8bc26594a" y="287.018638"/>
     <use style="fill:#1f77b4;stroke:#1f77b4;" x="166.923665" xlink:href="#mb8bc26594a" y="294.814223"/>
     <use style="fill:#1f77b4;stroke:#1f77b4;" x="168.952756" xlink:href="#mb8bc26594a" y="287.919197"/>
     <use style="fill:#1f77b4;stroke:#1f77b4;" x="170.981847" xlink:href="#mb8bc26594a" y="279.974816"/>
     <use style="fill:#1f77b4;stroke:#1f77b4;" x="173.010938" xlink:href="#mb8bc26594a" y="269.788365"/>
     <use style="fill:#1f77b4;stroke:#1f77b4;" x="175.040028" xlink:href="#mb8bc26594a" y="270.232118"/>
     <use style="fill:#1f77b4;stroke:#1f77b4;" x="177.069119" xlink:href="#mb8bc26594a" y="270.05001"/>
     <use style="fill:#1f77b4;stroke:#1f77b4;" x="179.09821" xlink:href="#mb8bc26594a" y="259.652554"/>
     <use style="fill:#1f77b4;stroke:#1f77b4;" x="181.127301" xlink:href="#mb8bc26594a" y="229.03434"/>
     <use style="fill:#1f77b4;stroke:#1f77b4;" x="183.156392" xlink:href="#mb8bc26594a" y="214.737173"/>
     <use style="fill:#1f77b4;stroke:#1f77b4;" x="185.185483" xlink:href="#mb8bc26594a" y="222.14985"/>
     <use style="fill:#1f77b4;stroke:#1f77b4;" x="187.214574" xlink:href="#mb8bc26594a" y="219.431502"/>
     <use style="fill:#1f77b4;stroke:#1f77b4;" x="189.243665" xlink:href="#mb8bc26594a" y="240.033721"/>
     <use style="fill:#1f77b4;stroke:#1f77b4;" x="191.272756" xlink:href="#mb8bc26594a" y="243.03225"/>
     <use style="fill:#1f77b4;stroke:#1f77b4;" x="193.301847" xlink:href="#mb8bc26594a" y="254.472567"/>
     <use style="fill:#1f77b4;stroke:#1f77b4;" x="195.330938" xlink:href="#mb8bc26594a" y="266.407484"/>
     <use style="fill:#1f77b4;stroke:#1f77b4;" x="197.360028" xlink:href="#mb8bc26594a" y="269.383111"/>
     <use style="fill:#1f77b4;stroke:#1f77b4;" x="199.389119" xlink:href="#mb8bc26594a" y="281.648476"/>
     <use style="fill:#1f77b4;stroke:#1f77b4;" x="201.41821" xlink:href="#mb8bc26594a" y="283.189689"/>
     <use style="fill:#1f77b4;stroke:#1f77b4;" x="203.447301" xlink:href="#mb8bc26594a" y="279.618718"/>
     <use style="fill:#1f77b4;stroke:#1f77b4;" x="205.476392" xlink:href="#mb8bc26594a" y="281.845989"/>
     <use style="fill:#1f77b4;stroke:#1f77b4;" x="207.505483" xlink:href="#mb8bc26594a" y="287.919197"/>
     <use style="fill:#1f77b4;stroke:#1f77b4;" x="209.534574" xlink:href="#mb8bc26594a" y="289.969111"/>
     <use style="fill:#1f77b4;stroke:#1f77b4;" x="211.563665" xlink:href="#mb8bc26594a" y="289.51131"/>
     <use style="fill:#1f77b4;stroke:#1f77b4;" x="213.592756" xlink:href="#mb8bc26594a" y="284.062845"/>
     <use style="fill:#1f77b4;stroke:#1f77b4;" x="215.621847" xlink:href="#mb8bc26594a" y="278.008558"/>
     <use style="fill:#1f77b4;stroke:#1f77b4;" x="217.650938" xlink:href="#mb8bc26594a" y="264.044941"/>
     <use style="fill:#1f77b4;stroke:#1f77b4;" x="219.680028" xlink:href="#mb8bc26594a" y="250.334831"/>
     <use style="fill:#1f77b4;stroke:#1f77b4;" x="221.709119" xlink:href="#mb8bc26594a" y="233.579019"/>
     <use style="fill:#1f77b4;stroke:#1f77b4;" x="223.73821" xlink:href="#mb8bc26594a" y="225.235207"/>
     <use style="fill:#1f77b4;stroke:#1f77b4;" x="225.767301" xlink:href="#mb8bc26594a" y="208.538374"/>
     <use style="fill:#1f77b4;stroke:#1f77b4;" x="227.796392" xlink:href="#mb8bc26594a" y="184.109481"/>
     <use style="fill:#1f77b4;stroke:#1f77b4;" x="229.825483" xlink:href="#mb8bc26594a" y="200.546134"/>
     <use style="fill:#1f77b4;stroke:#1f77b4;" x="231.854574" xlink:href="#mb8bc26594a" y="217.337186"/>
     <use style="fill:#1f77b4;stroke:#1f77b4;" x="233.883665" xlink:href="#mb8bc26594a" y="220.000275"/>
     <use style="fill:#1f77b4;stroke:#1f77b4;" x="235.912756" xlink:href="#mb8bc26594a" y="216.028025"/>
     <use style="fill:#1f77b4;stroke:#1f77b4;" x="237.941847" xlink:href="#mb8bc26594a" y="243.11625"/>
     <use style="fill:#1f77b4;stroke:#1f77b4;" x="239.970938" xlink:href="#mb8bc26594a" y="271.606514"/>
     <use style="fill:#1f77b4;stroke:#1f77b4;" x="242.000028" xlink:href="#mb8bc26594a" y="284.062845"/>
     <use style="fill:#1f77b4;stroke:#1f77b4;" x="244.029119" xlink:href="#mb8bc26594a" y="270.93705"/>
     <use style="fill:#1f77b4;stroke:#1f77b4;" x="246.05821" xlink:href="#mb8bc26594a" y="286.242838"/>
     <use style="fill:#1f77b4;stroke:#1f77b4;" x="248.087301" xlink:href="#mb8bc26594a" y="287.919197"/>
     <use style="fill:#1f77b4;stroke:#1f77b4;" x="250.116392" xlink:href="#mb8bc26594a" y="286.46025"/>
     <use style="fill:#1f77b4;stroke:#1f77b4;" x="252.145483" xlink:href="#mb8bc26594a" y="289.871942"/>
     <use style="fill:#1f77b4;stroke:#1f77b4;" x="254.174574" xlink:href="#mb8bc26594a" y="284.503544"/>
     <use style="fill:#1f77b4;stroke:#1f77b4;" x="256.203665" xlink:href="#mb8bc26594a" y="286.093098"/>
     <use style="fill:#1f77b4;stroke:#1f77b4;" x="258.232756" xlink:href="#mb8bc26594a" y="272.24887"/>
     <use style="fill:#1f77b4;stroke:#1f77b4;" x="260.261847" xlink:href="#mb8bc26594a" y="276.88738"/>
     <use style="fill:#1f77b4;stroke:#1f77b4;" x="262.290938" xlink:href="#mb8bc26594a" y="258.822996"/>
     <use style="fill:#1f77b4;stroke:#1f77b4;" x="264.320028" xlink:href="#mb8bc26594a" y="248.233788"/>
     <use style="fill:#1f77b4;stroke:#1f77b4;" x="266.349119" xlink:href="#mb8bc26594a" y="233.717331"/>
     <use style="fill:#1f77b4;stroke:#1f77b4;" x="268.37821" xlink:href="#mb8bc26594a" y="228.24825"/>
     <use style="fill:#1f77b4;stroke:#1f77b4;" x="270.407301" xlink:href="#mb8bc26594a" y="208.538374"/>
     <use style="fill:#1f77b4;stroke:#1f77b4;" x="272.436392" xlink:href="#mb8bc26594a" y="202.50825"/>
     <use style="fill:#1f77b4;stroke:#1f77b4;" x="274.465483" xlink:href="#mb8bc26594a" y="198.18825"/>
     <use style="fill:#1f77b4;stroke:#1f77b4;" x="276.494574" xlink:href="#mb8bc26594a" y="210.342628"/>
     <use style="fill:#1f77b4;stroke:#1f77b4;" x="278.523665" xlink:href="#mb8bc26594a" y="223.92393"/>
     <use style="fill:#1f77b4;stroke:#1f77b4;" x="280.552756" xlink:href="#mb8bc26594a" y="254.017583"/>
     <use style="fill:#1f77b4;stroke:#1f77b4;" x="282.581847" xlink:href="#mb8bc26594a" y="247.534293"/>
     <use style="fill:#1f77b4;stroke:#1f77b4;" x="284.610938" xlink:href="#mb8bc26594a" y="262.005894"/>
     <use style="fill:#1f77b4;stroke:#1f77b4;" x="286.640028" xlink:href="#mb8bc26594a" y="275.37225"/>
     <use style="fill:#1f77b4;stroke:#1f77b4;" x="288.669119" xlink:href="#mb8bc26594a" y="284.835893"/>
     <use style="fill:#1f77b4;stroke:#1f77b4;" x="290.69821" xlink:href="#mb8bc26594a" y="278.92041"/>
     <use style="fill:#1f77b4;stroke:#1f77b4;" x="292.727301" xlink:href="#mb8bc26594a" y="288.47625"/>
     <use style="fill:#1f77b4;stroke:#1f77b4;" x="294.756392" xlink:href="#mb8bc26594a" y="291.50025"/>
     <use style="fill:#1f77b4;stroke:#1f77b4;" x="296.785483" xlink:href="#mb8bc26594a" y="284.754404"/>
     <use style="fill:#1f77b4;stroke:#1f77b4;" x="298.814574" xlink:href="#mb8bc26594a" y="281.730404"/>
     <use style="fill:#1f77b4;stroke:#1f77b4;" x="300.843665" xlink:href="#mb8bc26594a" y="282.160821"/>
     <use style="fill:#1f77b4;stroke:#1f77b4;" x="302.872756" xlink:href="#mb8bc26594a" y="266.910355"/>
     <use style="fill:#1f77b4;stroke:#1f77b4;" x="304.901847" xlink:href="#mb8bc26594a" y="263.36025"/>
     <use style="fill:#1f77b4;stroke:#1f77b4;" x="306.930938" xlink:href="#mb8bc26594a" y="252.30921"/>
     <use style="fill:#1f77b4;stroke:#1f77b4;" x="308.960028" xlink:href="#mb8bc26594a" y="238.733641"/>
     <use style="fill:#1f77b4;stroke:#1f77b4;" x="310.989119" xlink:href="#mb8bc26594a" y="203.032609"/>
     <use style="fill:#1f77b4;stroke:#1f77b4;" x="313.01821" xlink:href="#mb8bc26594a" y="196.050404"/>
     <use style="fill:#1f77b4;stroke:#1f77b4;" x="315.047301" xlink:href="#mb8bc26594a" y="207.939107"/>
     <use style="fill:#1f77b4;stroke:#1f77b4;" x="317.076392" xlink:href="#mb8bc26594a" y="202.873788"/>
     <use style="fill:#1f77b4;stroke:#1f77b4;" x="319.105483" xlink:href="#mb8bc26594a" y="211.951715"/>
     <use style="fill:#1f77b4;stroke:#1f77b4;" x="321.134574" xlink:href="#mb8bc26594a" y="225.648424"/>
     <use style="fill:#1f77b4;stroke:#1f77b4;" x="323.163665" xlink:href="#mb8bc26594a" y="245.21289"/>
     <use style="fill:#1f77b4;stroke:#1f77b4;" x="325.192756" xlink:href="#mb8bc26594a" y="246.303709"/>
     <use style="fill:#1f77b4;stroke:#1f77b4;" x="327.221847" xlink:href="#mb8bc26594a" y="265.51625"/>
     <use style="fill:#1f77b4;stroke:#1f77b4;" x="329.250938" xlink:href="#mb8bc26594a" y="271.651445"/>
     <use style="fill:#1f77b4;stroke:#1f77b4;" x="331.280028" xlink:href="#mb8bc26594a" y="276.729964"/>
     <use style="fill:#1f77b4;stroke:#1f77b4;" x="333.309119" xlink:href="#mb8bc26594a" y="282.980075"/>
     <use style="fill:#1f77b4;stroke:#1f77b4;" x="335.33821" xlink:href="#mb8bc26594a" y="284.417724"/>
     <use style="fill:#1f77b4;stroke:#1f77b4;" x="337.367301" xlink:href="#mb8bc26594a" y="284.24265"/>
     <use style="fill:#1f77b4;stroke:#1f77b4;" x="339.396392" xlink:href="#mb8bc26594a" y="289.346168"/>
     <use style="fill:#1f77b4;stroke:#1f77b4;" x="341.425483" xlink:href="#mb8bc26594a" y="283.591327"/>
     <use style="fill:#1f77b4;stroke:#1f77b4;" x="343.454574" xlink:href="#mb8bc26594a" y="286.669458"/>
     <use style="fill:#1f77b4;stroke:#1f77b4;" x="345.483665" xlink:href="#mb8bc26594a" y="288.40065"/>
     <use style="fill:#1f77b4;stroke:#1f77b4;" x="347.512756" xlink:href="#mb8bc26594a" y="287.982132"/>
     <use style="fill:#1f77b4;stroke:#1f77b4;" x="349.541847" xlink:href="#mb8bc26594a" y="278.54025"/>
     <use style="fill:#1f77b4;stroke:#1f77b4;" x="351.570938" xlink:href="#mb8bc26594a" y="250.846475"/>
     <use style="fill:#1f77b4;stroke:#1f77b4;" x="353.600028" xlink:href="#mb8bc26594a" y="256.537839"/>
     <use style="fill:#1f77b4;stroke:#1f77b4;" x="355.629119" xlink:href="#mb8bc26594a" y="237.868721"/>
     <use style="fill:#1f77b4;stroke:#1f77b4;" x="357.65821" xlink:href="#mb8bc26594a" y="236.34249"/>
     <use style="fill:#1f77b4;stroke:#1f77b4;" x="359.687301" xlink:href="#mb8bc26594a" y="216.598096"/>
     <use style="fill:#1f77b4;stroke:#1f77b4;" x="361.716392" xlink:href="#mb8bc26594a" y="242.573016"/>
     <use style="fill:#1f77b4;stroke:#1f77b4;" x="363.745483" xlink:href="#mb8bc26594a" y="247.424414"/>
     <use style="fill:#1f77b4;stroke:#1f77b4;" x="365.774574" xlink:href="#mb8bc26594a" y="247.546314"/>
     <use style="fill:#1f77b4;stroke:#1f77b4;" x="367.803665" xlink:href="#mb8bc26594a" y="262.247679"/>
     <use style="fill:#1f77b4;stroke:#1f77b4;" x="369.832756" xlink:href="#mb8bc26594a" y="266.407484"/>
     <use style="fill:#1f77b4;stroke:#1f77b4;" x="371.861847" xlink:href="#mb8bc26594a" y="280.581378"/>
     <use style="fill:#1f77b4;stroke:#1f77b4;" x="373.890938" xlink:href="#mb8bc26594a" y="269.865458"/>
     <use style="fill:#1f77b4;stroke:#1f77b4;" x="375.920028" xlink:href="#mb8bc26594a" y="284.829662"/>
     <use style="fill:#1f77b4;stroke:#1f77b4;" x="377.949119" xlink:href="#mb8bc26594a" y="289.174096"/>
     <use style="fill:#1f77b4;stroke:#1f77b4;" x="379.97821" xlink:href="#mb8bc26594a" y="294.814223"/>
     <use style="fill:#1f77b4;stroke:#1f77b4;" x="382.007301" xlink:href="#mb8bc26594a" y="286.388715"/>
     <use style="fill:#1f77b4;stroke:#1f77b4;" x="384.036392" xlink:href="#mb8bc26594a" y="290.016778"/>
     <use style="fill:#1f77b4;stroke:#1f77b4;" x="386.065483" xlink:href="#mb8bc26594a" y="291.08025"/>
     <use style="fill:#1f77b4;stroke:#1f77b4;" x="388.094574" xlink:href="#mb8bc26594a" y="287.018638"/>
     <use style="fill:#1f77b4;stroke:#1f77b4;" x="390.123665" xlink:href="#mb8bc26594a" y="287.591679"/>
     <use style="fill:#1f77b4;stroke:#1f77b4;" x="392.152756" xlink:href="#mb8bc26594a" y="289.401964"/>
     <use style="fill:#1f77b4;stroke:#1f77b4;" x="394.181847" xlink:href="#mb8bc26594a" y="281.506037"/>
     <use style="fill:#1f77b4;stroke:#1f77b4;" x="396.210938" xlink:href="#mb8bc26594a" y="281.74785"/>
     <use style="fill:#1f77b4;stroke:#1f77b4;" x="398.240028" xlink:href="#mb8bc26594a" y="281.024956"/>
     <use style="fill:#1f77b4;stroke:#1f77b4;" x="400.269119" xlink:href="#mb8bc26594a" y="273.75678"/>
     <use style="fill:#1f77b4;stroke:#1f77b4;" x="402.29821" xlink:href="#mb8bc26594a" y="270.411829"/>
    </g>
   </g>
   <g id="patch_3">
    <path d="M 61.410938 297.54825 
L 61.410938 31.43625 
" style="fill:none;stroke:#000000;stroke-linecap:square;stroke-linejoin:miter;stroke-width:0.8;"/>
   </g>
   <g id="patch_4">
    <path d="M 418.530938 297.54825 
L 418.530938 31.43625 
" style="fill:none;stroke:#000000;stroke-linecap:square;stroke-linejoin:miter;stroke-width:0.8;"/>
   </g>
   <g id="patch_5">
    <path d="M 61.410938 297.54825 
L 418.530938 297.54825 
" style="fill:none;stroke:#000000;stroke-linecap:square;stroke-linejoin:miter;stroke-width:0.8;"/>
   </g>
   <g id="patch_6">
    <path d="M 61.410938 31.43625 
L 418.530938 31.43625 
" style="fill:none;stroke:#000000;stroke-linecap:square;stroke-linejoin:miter;stroke-width:0.8;"/>
   </g>
   <g id="text_12">
    <!-- Cs Axial -->
    <defs>
     <path d="M 64.40625 67.28125 
L 64.40625 56.890625 
Q 59.421875 61.53125 53.78125 63.8125 
Q 48.140625 66.109375 41.796875 66.109375 
Q 29.296875 66.109375 22.65625 58.46875 
Q 16.015625 50.828125 16.015625 36.375 
Q 16.015625 21.96875 22.65625 14.328125 
Q 29.296875 6.6875 41.796875 6.6875 
Q 48.140625 6.6875 53.78125 8.984375 
Q 59.421875 11.28125 64.40625 15.921875 
L 64.40625 5.609375 
Q 59.234375 2.09375 53.4375 0.328125 
Q 47.65625 -1.421875 41.21875 -1.421875 
Q 24.65625 -1.421875 15.125 8.703125 
Q 5.609375 18.84375 5.609375 36.375 
Q 5.609375 53.953125 15.125 64.078125 
Q 24.65625 74.21875 41.21875 74.21875 
Q 47.75 74.21875 53.53125 72.484375 
Q 59.328125 70.75 64.40625 67.28125 
z
" id="DejaVuSans-43"/>
     <path d="M 44.28125 53.078125 
L 44.28125 44.578125 
Q 40.484375 46.53125 36.375 47.5 
Q 32.28125 48.484375 27.875 48.484375 
Q 21.1875 48.484375 17.84375 46.4375 
Q 14.5 44.390625 14.5 40.28125 
Q 14.5 37.15625 16.890625 35.375 
Q 19.28125 33.59375 26.515625 31.984375 
L 29.59375 31.296875 
Q 39.15625 29.25 43.1875 25.515625 
Q 47.21875 21.78125 47.21875 15.09375 
Q 47.21875 7.46875 41.1875 3.015625 
Q 35.15625 -1.421875 24.609375 -1.421875 
Q 20.21875 -1.421875 15.453125 -0.5625 
Q 10.6875 0.296875 5.421875 2 
L 5.421875 11.28125 
Q 10.40625 8.6875 15.234375 7.390625 
Q 20.0625 6.109375 24.8125 6.109375 
Q 31.15625 6.109375 34.5625 8.28125 
Q 37.984375 10.453125 37.984375 14.40625 
Q 37.984375 18.0625 35.515625 20.015625 
Q 33.0625 21.96875 24.703125 23.78125 
L 21.578125 24.515625 
Q 13.234375 26.265625 9.515625 29.90625 
Q 5.8125 33.546875 5.8125 39.890625 
Q 5.8125 47.609375 11.28125 51.796875 
Q 16.75 56 26.8125 56 
Q 31.78125 56 36.171875 55.265625 
Q 40.578125 54.546875 44.28125 53.078125 
z
" id="DejaVuSans-73"/>
     <path d="M 34.1875 63.1875 
L 20.796875 26.90625 
L 47.609375 26.90625 
z
M 28.609375 72.90625 
L 39.796875 72.90625 
L 67.578125 0 
L 57.328125 0 
L 50.6875 18.703125 
L 17.828125 18.703125 
L 11.1875 0 
L 0.78125 0 
z
" id="DejaVuSans-41"/>
     <path d="M 54.890625 54.6875 
L 35.109375 28.078125 
L 55.90625 0 
L 45.3125 0 
L 29.390625 21.484375 
L 13.484375 0 
L 2.875 0 
L 24.125 28.609375 
L 4.6875 54.6875 
L 15.28125 54.6875 
L 29.78125 35.203125 
L 44.28125 54.6875 
z
" id="DejaVuSans-78"/>
    </defs>
    <g transform="translate(192.194063 25.43625)scale(0.24 -0.24)">
     <use xlink:href="#DejaVuSans-43"/>
     <use x="69.824219" xlink:href="#DejaVuSans-73"/>
     <use x="121.923828" xlink:href="#DejaVuSans-20"/>
     <use x="153.710938" xlink:href="#DejaVuSans-41"/>
     <use x="222.119141" xlink:href="#DejaVuSans-78"/>
     <use x="281.298828" xlink:href="#DejaVuSans-69"/>
     <use x="309.082031" xlink:href="#DejaVuSans-61"/>
     <use x="370.361328" xlink:href="#DejaVuSans-6c"/>
    </g>
   </g>
  </g>
 </g>
 <defs>
  <clipPath id="pbcf3292bdb">
   <rect height="266.112" width="357.12" x="61.410938" y="31.43625"/>
  </clipPath>
 </defs>
</svg>
