<?xml version="1.0" encoding="utf-8" standalone="no"?>
<!DOCTYPE svg PUBLIC "-//W3C//DTD SVG 1.1//EN"
  "http://www.w3.org/Graphics/SVG/1.1/DTD/svg11.dtd">
<!-- Created with matplotlib (http://matplotlib.org/) -->
<svg height="349pt" version="1.1" viewBox="0 0 447 349" width="447pt" xmlns="http://www.w3.org/2000/svg" xmlns:xlink="http://www.w3.org/1999/xlink">
 <defs>
  <style type="text/css">
*{stroke-linecap:butt;stroke-linejoin:round;}
  </style>
 </defs>
 <g id="figure_1">
  <g id="patch_1">
   <path d="M 0 349.665437 
L 447.486562 349.665437 
L 447.486562 0 
L 0 0 
z
" style="fill:none;"/>
  </g>
  <g id="axes_1">
   <g id="patch_2">
    <path d="M 61.410938 297.54825 
L 436.386937 297.54825 
L 436.386937 31.43625 
L 61.410938 31.43625 
z
" style="fill:none;"/>
   </g>
   <g id="matplotlib.axis_1">
    <g id="xtick_1">
     <g id="line2d_1">
      <path clip-path="url(#p5f6660c8d0)" d="M 61.410938 297.54825 
L 61.410938 31.43625 
" style="fill:none;stroke:#b0b0b0;stroke-linecap:square;stroke-width:0.8;"/>
     </g>
     <g id="line2d_2">
      <defs>
       <path d="M 0 0 
L 0 3.5 
" id="m8019a37df1" style="stroke:#000000;stroke-width:0.8;"/>
      </defs>
      <g>
       <use style="stroke:#000000;stroke-width:0.8;" x="61.410938" xlink:href="#m8019a37df1" y="297.54825"/>
      </g>
     </g>
     <g id="text_1">
      <!-- 0 -->
      <defs>
       <path d="M 31.78125 66.40625 
Q 24.171875 66.40625 20.328125 58.90625 
Q 16.5 51.421875 16.5 36.375 
Q 16.5 21.390625 20.328125 13.890625 
Q 24.171875 6.390625 31.78125 6.390625 
Q 39.453125 6.390625 43.28125 13.890625 
Q 47.125 21.390625 47.125 36.375 
Q 47.125 51.421875 43.28125 58.90625 
Q 39.453125 66.40625 31.78125 66.40625 
z
M 31.78125 74.21875 
Q 44.046875 74.21875 50.515625 64.515625 
Q 56.984375 54.828125 56.984375 36.375 
Q 56.984375 17.96875 50.515625 8.265625 
Q 44.046875 -1.421875 31.78125 -1.421875 
Q 19.53125 -1.421875 13.0625 8.265625 
Q 6.59375 17.96875 6.59375 36.375 
Q 6.59375 54.828125 13.0625 64.515625 
Q 19.53125 74.21875 31.78125 74.21875 
z
" id="DejaVuSans-30"/>
      </defs>
      <g transform="translate(56.639063 315.945906)scale(0.15 -0.15)">
       <use xlink:href="#DejaVuSans-30"/>
      </g>
     </g>
    </g>
    <g id="xtick_2">
     <g id="line2d_3">
      <path clip-path="url(#p5f6660c8d0)" d="M 113.490938 297.54825 
L 113.490938 31.43625 
" style="fill:none;stroke:#b0b0b0;stroke-linecap:square;stroke-width:0.8;"/>
     </g>
     <g id="line2d_4">
      <g>
       <use style="stroke:#000000;stroke-width:0.8;" x="113.490938" xlink:href="#m8019a37df1" y="297.54825"/>
      </g>
     </g>
     <g id="text_2">
      <!-- 25 -->
      <defs>
       <path d="M 19.1875 8.296875 
L 53.609375 8.296875 
L 53.609375 0 
L 7.328125 0 
L 7.328125 8.296875 
Q 12.9375 14.109375 22.625 23.890625 
Q 32.328125 33.6875 34.8125 36.53125 
Q 39.546875 41.84375 41.421875 45.53125 
Q 43.3125 49.21875 43.3125 52.78125 
Q 43.3125 58.59375 39.234375 62.25 
Q 35.15625 65.921875 28.609375 65.921875 
Q 23.96875 65.921875 18.8125 64.3125 
Q 13.671875 62.703125 7.8125 59.421875 
L 7.8125 69.390625 
Q 13.765625 71.78125 18.9375 73 
Q 24.125 74.21875 28.421875 74.21875 
Q 39.75 74.21875 46.484375 68.546875 
Q 53.21875 62.890625 53.21875 53.421875 
Q 53.21875 48.921875 51.53125 44.890625 
Q 49.859375 40.875 45.40625 35.40625 
Q 44.1875 33.984375 37.640625 27.21875 
Q 31.109375 20.453125 19.1875 8.296875 
z
" id="DejaVuSans-32"/>
       <path d="M 10.796875 72.90625 
L 49.515625 72.90625 
L 49.515625 64.59375 
L 19.828125 64.59375 
L 19.828125 46.734375 
Q 21.96875 47.46875 24.109375 47.828125 
Q 26.265625 48.1875 28.421875 48.1875 
Q 40.625 48.1875 47.75 41.5 
Q 54.890625 34.8125 54.890625 23.390625 
Q 54.890625 11.625 47.5625 5.09375 
Q 40.234375 -1.421875 26.90625 -1.421875 
Q 22.3125 -1.421875 17.546875 -0.640625 
Q 12.796875 0.140625 7.71875 1.703125 
L 7.71875 11.625 
Q 12.109375 9.234375 16.796875 8.0625 
Q 21.484375 6.890625 26.703125 6.890625 
Q 35.15625 6.890625 40.078125 11.328125 
Q 45.015625 15.765625 45.015625 23.390625 
Q 45.015625 31 40.078125 35.4375 
Q 35.15625 39.890625 26.703125 39.890625 
Q 22.75 39.890625 18.8125 39.015625 
Q 14.890625 38.140625 10.796875 36.28125 
z
" id="DejaVuSans-35"/>
      </defs>
      <g transform="translate(103.947188 315.945906)scale(0.15 -0.15)">
       <use xlink:href="#DejaVuSans-32"/>
       <use x="63.623047" xlink:href="#DejaVuSans-35"/>
      </g>
     </g>
    </g>
    <g id="xtick_3">
     <g id="line2d_5">
      <path clip-path="url(#p5f6660c8d0)" d="M 165.570938 297.54825 
L 165.570938 31.43625 
" style="fill:none;stroke:#b0b0b0;stroke-linecap:square;stroke-width:0.8;"/>
     </g>
     <g id="line2d_6">
      <g>
       <use style="stroke:#000000;stroke-width:0.8;" x="165.570938" xlink:href="#m8019a37df1" y="297.54825"/>
      </g>
     </g>
     <g id="text_3">
      <!-- 50 -->
      <g transform="translate(156.027188 315.945906)scale(0.15 -0.15)">
       <use xlink:href="#DejaVuSans-35"/>
       <use x="63.623047" xlink:href="#DejaVuSans-30"/>
      </g>
     </g>
    </g>
    <g id="xtick_4">
     <g id="line2d_7">
      <path clip-path="url(#p5f6660c8d0)" d="M 217.650938 297.54825 
L 217.650938 31.43625 
" style="fill:none;stroke:#b0b0b0;stroke-linecap:square;stroke-width:0.8;"/>
     </g>
     <g id="line2d_8">
      <g>
       <use style="stroke:#000000;stroke-width:0.8;" x="217.650938" xlink:href="#m8019a37df1" y="297.54825"/>
      </g>
     </g>
     <g id="text_4">
      <!-- 75 -->
      <defs>
       <path d="M 8.203125 72.90625 
L 55.078125 72.90625 
L 55.078125 68.703125 
L 28.609375 0 
L 18.3125 0 
L 43.21875 64.59375 
L 8.203125 64.59375 
z
" id="DejaVuSans-37"/>
      </defs>
      <g transform="translate(208.107188 315.945906)scale(0.15 -0.15)">
       <use xlink:href="#DejaVuSans-37"/>
       <use x="63.623047" xlink:href="#DejaVuSans-35"/>
      </g>
     </g>
    </g>
    <g id="xtick_5">
     <g id="line2d_9">
      <path clip-path="url(#p5f6660c8d0)" d="M 269.730938 297.54825 
L 269.730938 31.43625 
" style="fill:none;stroke:#b0b0b0;stroke-linecap:square;stroke-width:0.8;"/>
     </g>
     <g id="line2d_10">
      <g>
       <use style="stroke:#000000;stroke-width:0.8;" x="269.730938" xlink:href="#m8019a37df1" y="297.54825"/>
      </g>
     </g>
     <g id="text_5">
      <!-- 100 -->
      <defs>
       <path d="M 12.40625 8.296875 
L 28.515625 8.296875 
L 28.515625 63.921875 
L 10.984375 60.40625 
L 10.984375 69.390625 
L 28.421875 72.90625 
L 38.28125 72.90625 
L 38.28125 8.296875 
L 54.390625 8.296875 
L 54.390625 0 
L 12.40625 0 
z
" id="DejaVuSans-31"/>
      </defs>
      <g transform="translate(255.415313 315.945906)scale(0.15 -0.15)">
       <use xlink:href="#DejaVuSans-31"/>
       <use x="63.623047" xlink:href="#DejaVuSans-30"/>
       <use x="127.246094" xlink:href="#DejaVuSans-30"/>
      </g>
     </g>
    </g>
    <g id="xtick_6">
     <g id="line2d_11">
      <path clip-path="url(#p5f6660c8d0)" d="M 321.810938 297.54825 
L 321.810938 31.43625 
" style="fill:none;stroke:#b0b0b0;stroke-linecap:square;stroke-width:0.8;"/>
     </g>
     <g id="line2d_12">
      <g>
       <use style="stroke:#000000;stroke-width:0.8;" x="321.810938" xlink:href="#m8019a37df1" y="297.54825"/>
      </g>
     </g>
     <g id="text_6">
      <!-- 125 -->
      <g transform="translate(307.495313 315.945906)scale(0.15 -0.15)">
       <use xlink:href="#DejaVuSans-31"/>
       <use x="63.623047" xlink:href="#DejaVuSans-32"/>
       <use x="127.246094" xlink:href="#DejaVuSans-35"/>
      </g>
     </g>
    </g>
    <g id="xtick_7">
     <g id="line2d_13">
      <path clip-path="url(#p5f6660c8d0)" d="M 373.890938 297.54825 
L 373.890938 31.43625 
" style="fill:none;stroke:#b0b0b0;stroke-linecap:square;stroke-width:0.8;"/>
     </g>
     <g id="line2d_14">
      <g>
       <use style="stroke:#000000;stroke-width:0.8;" x="373.890938" xlink:href="#m8019a37df1" y="297.54825"/>
      </g>
     </g>
     <g id="text_7">
      <!-- 150 -->
      <g transform="translate(359.575312 315.945906)scale(0.15 -0.15)">
       <use xlink:href="#DejaVuSans-31"/>
       <use x="63.623047" xlink:href="#DejaVuSans-35"/>
       <use x="127.246094" xlink:href="#DejaVuSans-30"/>
      </g>
     </g>
    </g>
    <g id="xtick_8">
     <g id="line2d_15">
      <path clip-path="url(#p5f6660c8d0)" d="M 425.970937 297.54825 
L 425.970937 31.43625 
" style="fill:none;stroke:#b0b0b0;stroke-linecap:square;stroke-width:0.8;"/>
     </g>
     <g id="line2d_16">
      <g>
       <use style="stroke:#000000;stroke-width:0.8;" x="425.970937" xlink:href="#m8019a37df1" y="297.54825"/>
      </g>
     </g>
     <g id="text_8">
      <!-- 175 -->
      <g transform="translate(411.655312 315.945906)scale(0.15 -0.15)">
       <use xlink:href="#DejaVuSans-31"/>
       <use x="63.623047" xlink:href="#DejaVuSans-37"/>
       <use x="127.246094" xlink:href="#DejaVuSans-35"/>
      </g>
     </g>
    </g>
    <g id="text_9">
     <!-- Time ($\mu s$) -->
     <defs>
      <path d="M -0.296875 72.90625 
L 61.375 72.90625 
L 61.375 64.59375 
L 35.5 64.59375 
L 35.5 0 
L 25.59375 0 
L 25.59375 64.59375 
L -0.296875 64.59375 
z
" id="DejaVuSans-54"/>
      <path d="M 9.421875 54.6875 
L 18.40625 54.6875 
L 18.40625 0 
L 9.421875 0 
z
M 9.421875 75.984375 
L 18.40625 75.984375 
L 18.40625 64.59375 
L 9.421875 64.59375 
z
" id="DejaVuSans-69"/>
      <path d="M 52 44.1875 
Q 55.375 50.25 60.0625 53.125 
Q 64.75 56 71.09375 56 
Q 79.640625 56 84.28125 50.015625 
Q 88.921875 44.046875 88.921875 33.015625 
L 88.921875 0 
L 79.890625 0 
L 79.890625 32.71875 
Q 79.890625 40.578125 77.09375 44.375 
Q 74.3125 48.1875 68.609375 48.1875 
Q 61.625 48.1875 57.5625 43.546875 
Q 53.515625 38.921875 53.515625 30.90625 
L 53.515625 0 
L 44.484375 0 
L 44.484375 32.71875 
Q 44.484375 40.625 41.703125 44.40625 
Q 38.921875 48.1875 33.109375 48.1875 
Q 26.21875 48.1875 22.15625 43.53125 
Q 18.109375 38.875 18.109375 30.90625 
L 18.109375 0 
L 9.078125 0 
L 9.078125 54.6875 
L 18.109375 54.6875 
L 18.109375 46.1875 
Q 21.1875 51.21875 25.484375 53.609375 
Q 29.78125 56 35.6875 56 
Q 41.65625 56 45.828125 52.96875 
Q 50 49.953125 52 44.1875 
z
" id="DejaVuSans-6d"/>
      <path d="M 56.203125 29.59375 
L 56.203125 25.203125 
L 14.890625 25.203125 
Q 15.484375 15.921875 20.484375 11.0625 
Q 25.484375 6.203125 34.421875 6.203125 
Q 39.59375 6.203125 44.453125 7.46875 
Q 49.3125 8.734375 54.109375 11.28125 
L 54.109375 2.78125 
Q 49.265625 0.734375 44.1875 -0.34375 
Q 39.109375 -1.421875 33.890625 -1.421875 
Q 20.796875 -1.421875 13.15625 6.1875 
Q 5.515625 13.8125 5.515625 26.8125 
Q 5.515625 40.234375 12.765625 48.109375 
Q 20.015625 56 32.328125 56 
Q 43.359375 56 49.78125 48.890625 
Q 56.203125 41.796875 56.203125 29.59375 
z
M 47.21875 32.234375 
Q 47.125 39.59375 43.09375 43.984375 
Q 39.0625 48.390625 32.421875 48.390625 
Q 24.90625 48.390625 20.390625 44.140625 
Q 15.875 39.890625 15.1875 32.171875 
z
" id="DejaVuSans-65"/>
      <path id="DejaVuSans-20"/>
      <path d="M 31 75.875 
Q 24.46875 64.65625 21.28125 53.65625 
Q 18.109375 42.671875 18.109375 31.390625 
Q 18.109375 20.125 21.3125 9.0625 
Q 24.515625 -2 31 -13.1875 
L 23.1875 -13.1875 
Q 15.875 -1.703125 12.234375 9.375 
Q 8.59375 20.453125 8.59375 31.390625 
Q 8.59375 42.28125 12.203125 53.3125 
Q 15.828125 64.359375 23.1875 75.875 
z
" id="DejaVuSans-28"/>
      <path d="M -1.3125 -20.796875 
L 13.375 54.6875 
L 22.40625 54.6875 
L 15.765625 20.65625 
Q 15.578125 19.625 15.421875 18.359375 
Q 15.28125 17.09375 15.28125 15.828125 
Q 15.28125 11.28125 18.140625 8.828125 
Q 21 6.390625 26.3125 6.390625 
Q 33.546875 6.390625 37.984375 10.484375 
Q 42.4375 14.59375 44 22.796875 
L 50.203125 54.6875 
L 59.1875 54.6875 
L 51.03125 12.640625 
Q 50.828125 11.71875 50.75 11.03125 
Q 50.6875 10.359375 50.6875 9.8125 
Q 50.6875 8.296875 51.296875 7.59375 
Q 51.90625 6.890625 53.21875 6.890625 
Q 53.71875 6.890625 54.5625 7.125 
Q 55.421875 7.375 56.984375 8.015625 
L 55.609375 0.78125 
Q 53.46875 -0.296875 51.515625 -0.859375 
Q 49.5625 -1.421875 47.703125 -1.421875 
Q 44.484375 -1.421875 42.65625 0.625 
Q 40.828125 2.6875 40.828125 6.296875 
Q 38.09375 2.390625 34.296875 0.484375 
Q 30.515625 -1.421875 25.390625 -1.421875 
Q 20.84375 -1.421875 17.453125 0.671875 
Q 14.0625 2.78125 12.984375 6.203125 
L 7.71875 -20.796875 
z
" id="DejaVuSans-Oblique-3bc"/>
      <path d="M 50 53.078125 
L 48.296875 44.578125 
Q 44.734375 46.53125 40.765625 47.5 
Q 36.8125 48.484375 32.625 48.484375 
Q 25.53125 48.484375 21.453125 46.0625 
Q 17.390625 43.65625 17.390625 39.5 
Q 17.390625 34.671875 26.859375 32.078125 
Q 27.59375 31.890625 27.9375 31.78125 
L 30.8125 30.90625 
Q 39.796875 28.421875 42.796875 25.6875 
Q 45.796875 22.953125 45.796875 18.21875 
Q 45.796875 9.515625 38.890625 4.046875 
Q 31.984375 -1.421875 20.796875 -1.421875 
Q 16.453125 -1.421875 11.671875 -0.578125 
Q 6.890625 0.25 1.125 2 
L 2.875 11.28125 
Q 7.8125 8.734375 12.59375 7.421875 
Q 17.390625 6.109375 21.78125 6.109375 
Q 28.375 6.109375 32.5 8.9375 
Q 36.625 11.765625 36.625 16.109375 
Q 36.625 20.796875 25.78125 23.6875 
L 24.859375 23.921875 
L 21.78125 24.703125 
Q 14.9375 26.515625 11.765625 29.46875 
Q 8.59375 32.421875 8.59375 37.015625 
Q 8.59375 45.75 15.15625 50.875 
Q 21.734375 56 33.015625 56 
Q 37.453125 56 41.671875 55.265625 
Q 45.90625 54.546875 50 53.078125 
z
" id="DejaVuSans-Oblique-73"/>
      <path d="M 8.015625 75.875 
L 15.828125 75.875 
Q 23.140625 64.359375 26.78125 53.3125 
Q 30.421875 42.28125 30.421875 31.390625 
Q 30.421875 20.453125 26.78125 9.375 
Q 23.140625 -1.703125 15.828125 -13.1875 
L 8.015625 -13.1875 
Q 14.5 -2 17.703125 9.0625 
Q 20.90625 20.125 20.90625 31.390625 
Q 20.90625 42.671875 17.703125 53.65625 
Q 14.5 64.65625 8.015625 75.875 
z
" id="DejaVuSans-29"/>
     </defs>
     <g transform="translate(201.498938 338.265437)scale(0.2 -0.2)">
      <use transform="translate(0 0.015625)" xlink:href="#DejaVuSans-54"/>
      <use transform="translate(61.083984 0.015625)" xlink:href="#DejaVuSans-69"/>
      <use transform="translate(88.867188 0.015625)" xlink:href="#DejaVuSans-6d"/>
      <use transform="translate(186.279297 0.015625)" xlink:href="#DejaVuSans-65"/>
      <use transform="translate(247.802734 0.015625)" xlink:href="#DejaVuSans-20"/>
      <use transform="translate(279.589844 0.015625)" xlink:href="#DejaVuSans-28"/>
      <use transform="translate(318.603516 0.015625)" xlink:href="#DejaVuSans-Oblique-3bc"/>
      <use transform="translate(382.226562 0.015625)" xlink:href="#DejaVuSans-Oblique-73"/>
      <use transform="translate(434.326172 0.015625)" xlink:href="#DejaVuSans-29"/>
     </g>
    </g>
   </g>
   <g id="matplotlib.axis_2">
    <g id="ytick_1">
     <g id="line2d_17">
      <path clip-path="url(#p5f6660c8d0)" d="M 61.410938 297.54825 
L 436.386937 297.54825 
" style="fill:none;stroke:#b0b0b0;stroke-linecap:square;stroke-width:0.8;"/>
     </g>
     <g id="line2d_18">
      <defs>
       <path d="M 0 0 
L -3.5 0 
" id="m93b07773c4" style="stroke:#000000;stroke-width:0.8;"/>
      </defs>
      <g>
       <use style="stroke:#000000;stroke-width:0.8;" x="61.410938" xlink:href="#m93b07773c4" y="297.54825"/>
      </g>
     </g>
     <g id="text_10">
      <!-- 0.0 -->
      <defs>
       <path d="M 10.6875 12.40625 
L 21 12.40625 
L 21 0 
L 10.6875 0 
z
" id="DejaVuSans-2e"/>
      </defs>
      <g transform="translate(30.55625 303.247078)scale(0.15 -0.15)">
       <use xlink:href="#DejaVuSans-30"/>
       <use x="63.623047" xlink:href="#DejaVuSans-2e"/>
       <use x="95.410156" xlink:href="#DejaVuSans-30"/>
      </g>
     </g>
    </g>
    <g id="ytick_2">
     <g id="line2d_19">
      <path clip-path="url(#p5f6660c8d0)" d="M 61.410938 244.32585 
L 436.386937 244.32585 
" style="fill:none;stroke:#b0b0b0;stroke-linecap:square;stroke-width:0.8;"/>
     </g>
     <g id="line2d_20">
      <g>
       <use style="stroke:#000000;stroke-width:0.8;" x="61.410938" xlink:href="#m93b07773c4" y="244.32585"/>
      </g>
     </g>
     <g id="text_11">
      <!-- 0.2 -->
      <g transform="translate(30.55625 250.024678)scale(0.15 -0.15)">
       <use xlink:href="#DejaVuSans-30"/>
       <use x="63.623047" xlink:href="#DejaVuSans-2e"/>
       <use x="95.410156" xlink:href="#DejaVuSans-32"/>
      </g>
     </g>
    </g>
    <g id="ytick_3">
     <g id="line2d_21">
      <path clip-path="url(#p5f6660c8d0)" d="M 61.410938 191.10345 
L 436.386937 191.10345 
" style="fill:none;stroke:#b0b0b0;stroke-linecap:square;stroke-width:0.8;"/>
     </g>
     <g id="line2d_22">
      <g>
       <use style="stroke:#000000;stroke-width:0.8;" x="61.410938" xlink:href="#m93b07773c4" y="191.10345"/>
      </g>
     </g>
     <g id="text_12">
      <!-- 0.4 -->
      <defs>
       <path d="M 37.796875 64.3125 
L 12.890625 25.390625 
L 37.796875 25.390625 
z
M 35.203125 72.90625 
L 47.609375 72.90625 
L 47.609375 25.390625 
L 58.015625 25.390625 
L 58.015625 17.1875 
L 47.609375 17.1875 
L 47.609375 0 
L 37.796875 0 
L 37.796875 17.1875 
L 4.890625 17.1875 
L 4.890625 26.703125 
z
" id="DejaVuSans-34"/>
      </defs>
      <g transform="translate(30.55625 196.802278)scale(0.15 -0.15)">
       <use xlink:href="#DejaVuSans-30"/>
       <use x="63.623047" xlink:href="#DejaVuSans-2e"/>
       <use x="95.410156" xlink:href="#DejaVuSans-34"/>
      </g>
     </g>
    </g>
    <g id="ytick_4">
     <g id="line2d_23">
      <path clip-path="url(#p5f6660c8d0)" d="M 61.410938 137.88105 
L 436.386937 137.88105 
" style="fill:none;stroke:#b0b0b0;stroke-linecap:square;stroke-width:0.8;"/>
     </g>
     <g id="line2d_24">
      <g>
       <use style="stroke:#000000;stroke-width:0.8;" x="61.410938" xlink:href="#m93b07773c4" y="137.88105"/>
      </g>
     </g>
     <g id="text_13">
      <!-- 0.6 -->
      <defs>
       <path d="M 33.015625 40.375 
Q 26.375 40.375 22.484375 35.828125 
Q 18.609375 31.296875 18.609375 23.390625 
Q 18.609375 15.53125 22.484375 10.953125 
Q 26.375 6.390625 33.015625 6.390625 
Q 39.65625 6.390625 43.53125 10.953125 
Q 47.40625 15.53125 47.40625 23.390625 
Q 47.40625 31.296875 43.53125 35.828125 
Q 39.65625 40.375 33.015625 40.375 
z
M 52.59375 71.296875 
L 52.59375 62.3125 
Q 48.875 64.0625 45.09375 64.984375 
Q 41.3125 65.921875 37.59375 65.921875 
Q 27.828125 65.921875 22.671875 59.328125 
Q 17.53125 52.734375 16.796875 39.40625 
Q 19.671875 43.65625 24.015625 45.921875 
Q 28.375 48.1875 33.59375 48.1875 
Q 44.578125 48.1875 50.953125 41.515625 
Q 57.328125 34.859375 57.328125 23.390625 
Q 57.328125 12.15625 50.6875 5.359375 
Q 44.046875 -1.421875 33.015625 -1.421875 
Q 20.359375 -1.421875 13.671875 8.265625 
Q 6.984375 17.96875 6.984375 36.375 
Q 6.984375 53.65625 15.1875 63.9375 
Q 23.390625 74.21875 37.203125 74.21875 
Q 40.921875 74.21875 44.703125 73.484375 
Q 48.484375 72.75 52.59375 71.296875 
z
" id="DejaVuSans-36"/>
      </defs>
      <g transform="translate(30.55625 143.579878)scale(0.15 -0.15)">
       <use xlink:href="#DejaVuSans-30"/>
       <use x="63.623047" xlink:href="#DejaVuSans-2e"/>
       <use x="95.410156" xlink:href="#DejaVuSans-36"/>
      </g>
     </g>
    </g>
    <g id="ytick_5">
     <g id="line2d_25">
      <path clip-path="url(#p5f6660c8d0)" d="M 61.410938 84.65865 
L 436.386937 84.65865 
" style="fill:none;stroke:#b0b0b0;stroke-linecap:square;stroke-width:0.8;"/>
     </g>
     <g id="line2d_26">
      <g>
       <use style="stroke:#000000;stroke-width:0.8;" x="61.410938" xlink:href="#m93b07773c4" y="84.65865"/>
      </g>
     </g>
     <g id="text_14">
      <!-- 0.8 -->
      <defs>
       <path d="M 31.78125 34.625 
Q 24.75 34.625 20.71875 30.859375 
Q 16.703125 27.09375 16.703125 20.515625 
Q 16.703125 13.921875 20.71875 10.15625 
Q 24.75 6.390625 31.78125 6.390625 
Q 38.8125 6.390625 42.859375 10.171875 
Q 46.921875 13.96875 46.921875 20.515625 
Q 46.921875 27.09375 42.890625 30.859375 
Q 38.875 34.625 31.78125 34.625 
z
M 21.921875 38.8125 
Q 15.578125 40.375 12.03125 44.71875 
Q 8.5 49.078125 8.5 55.328125 
Q 8.5 64.0625 14.71875 69.140625 
Q 20.953125 74.21875 31.78125 74.21875 
Q 42.671875 74.21875 48.875 69.140625 
Q 55.078125 64.0625 55.078125 55.328125 
Q 55.078125 49.078125 51.53125 44.71875 
Q 48 40.375 41.703125 38.8125 
Q 48.828125 37.15625 52.796875 32.3125 
Q 56.78125 27.484375 56.78125 20.515625 
Q 56.78125 9.90625 50.3125 4.234375 
Q 43.84375 -1.421875 31.78125 -1.421875 
Q 19.734375 -1.421875 13.25 4.234375 
Q 6.78125 9.90625 6.78125 20.515625 
Q 6.78125 27.484375 10.78125 32.3125 
Q 14.796875 37.15625 21.921875 38.8125 
z
M 18.3125 54.390625 
Q 18.3125 48.734375 21.84375 45.5625 
Q 25.390625 42.390625 31.78125 42.390625 
Q 38.140625 42.390625 41.71875 45.5625 
Q 45.3125 48.734375 45.3125 54.390625 
Q 45.3125 60.0625 41.71875 63.234375 
Q 38.140625 66.40625 31.78125 66.40625 
Q 25.390625 66.40625 21.84375 63.234375 
Q 18.3125 60.0625 18.3125 54.390625 
z
" id="DejaVuSans-38"/>
      </defs>
      <g transform="translate(30.55625 90.357478)scale(0.15 -0.15)">
       <use xlink:href="#DejaVuSans-30"/>
       <use x="63.623047" xlink:href="#DejaVuSans-2e"/>
       <use x="95.410156" xlink:href="#DejaVuSans-38"/>
      </g>
     </g>
    </g>
    <g id="ytick_6">
     <g id="line2d_27">
      <path clip-path="url(#p5f6660c8d0)" d="M 61.410938 31.43625 
L 436.386937 31.43625 
" style="fill:none;stroke:#b0b0b0;stroke-linecap:square;stroke-width:0.8;"/>
     </g>
     <g id="line2d_28">
      <g>
       <use style="stroke:#000000;stroke-width:0.8;" x="61.410938" xlink:href="#m93b07773c4" y="31.43625"/>
      </g>
     </g>
     <g id="text_15">
      <!-- 1.0 -->
      <g transform="translate(30.55625 37.135078)scale(0.15 -0.15)">
       <use xlink:href="#DejaVuSans-31"/>
       <use x="63.623047" xlink:href="#DejaVuSans-2e"/>
       <use x="95.410156" xlink:href="#DejaVuSans-30"/>
      </g>
     </g>
    </g>
    <g id="text_16">
     <!-- Normalized survival -->
     <defs>
      <path d="M 9.8125 72.90625 
L 23.09375 72.90625 
L 55.421875 11.921875 
L 55.421875 72.90625 
L 64.984375 72.90625 
L 64.984375 0 
L 51.703125 0 
L 19.390625 60.984375 
L 19.390625 0 
L 9.8125 0 
z
" id="DejaVuSans-4e"/>
      <path d="M 30.609375 48.390625 
Q 23.390625 48.390625 19.1875 42.75 
Q 14.984375 37.109375 14.984375 27.296875 
Q 14.984375 17.484375 19.15625 11.84375 
Q 23.34375 6.203125 30.609375 6.203125 
Q 37.796875 6.203125 41.984375 11.859375 
Q 46.1875 17.53125 46.1875 27.296875 
Q 46.1875 37.015625 41.984375 42.703125 
Q 37.796875 48.390625 30.609375 48.390625 
z
M 30.609375 56 
Q 42.328125 56 49.015625 48.375 
Q 55.71875 40.765625 55.71875 27.296875 
Q 55.71875 13.875 49.015625 6.21875 
Q 42.328125 -1.421875 30.609375 -1.421875 
Q 18.84375 -1.421875 12.171875 6.21875 
Q 5.515625 13.875 5.515625 27.296875 
Q 5.515625 40.765625 12.171875 48.375 
Q 18.84375 56 30.609375 56 
z
" id="DejaVuSans-6f"/>
      <path d="M 41.109375 46.296875 
Q 39.59375 47.171875 37.8125 47.578125 
Q 36.03125 48 33.890625 48 
Q 26.265625 48 22.1875 43.046875 
Q 18.109375 38.09375 18.109375 28.8125 
L 18.109375 0 
L 9.078125 0 
L 9.078125 54.6875 
L 18.109375 54.6875 
L 18.109375 46.1875 
Q 20.953125 51.171875 25.484375 53.578125 
Q 30.03125 56 36.53125 56 
Q 37.453125 56 38.578125 55.875 
Q 39.703125 55.765625 41.0625 55.515625 
z
" id="DejaVuSans-72"/>
      <path d="M 34.28125 27.484375 
Q 23.390625 27.484375 19.1875 25 
Q 14.984375 22.515625 14.984375 16.5 
Q 14.984375 11.71875 18.140625 8.90625 
Q 21.296875 6.109375 26.703125 6.109375 
Q 34.1875 6.109375 38.703125 11.40625 
Q 43.21875 16.703125 43.21875 25.484375 
L 43.21875 27.484375 
z
M 52.203125 31.203125 
L 52.203125 0 
L 43.21875 0 
L 43.21875 8.296875 
Q 40.140625 3.328125 35.546875 0.953125 
Q 30.953125 -1.421875 24.3125 -1.421875 
Q 15.921875 -1.421875 10.953125 3.296875 
Q 6 8.015625 6 15.921875 
Q 6 25.140625 12.171875 29.828125 
Q 18.359375 34.515625 30.609375 34.515625 
L 43.21875 34.515625 
L 43.21875 35.40625 
Q 43.21875 41.609375 39.140625 45 
Q 35.0625 48.390625 27.6875 48.390625 
Q 23 48.390625 18.546875 47.265625 
Q 14.109375 46.140625 10.015625 43.890625 
L 10.015625 52.203125 
Q 14.9375 54.109375 19.578125 55.046875 
Q 24.21875 56 28.609375 56 
Q 40.484375 56 46.34375 49.84375 
Q 52.203125 43.703125 52.203125 31.203125 
z
" id="DejaVuSans-61"/>
      <path d="M 9.421875 75.984375 
L 18.40625 75.984375 
L 18.40625 0 
L 9.421875 0 
z
" id="DejaVuSans-6c"/>
      <path d="M 5.515625 54.6875 
L 48.1875 54.6875 
L 48.1875 46.484375 
L 14.40625 7.171875 
L 48.1875 7.171875 
L 48.1875 0 
L 4.296875 0 
L 4.296875 8.203125 
L 38.09375 47.515625 
L 5.515625 47.515625 
z
" id="DejaVuSans-7a"/>
      <path d="M 45.40625 46.390625 
L 45.40625 75.984375 
L 54.390625 75.984375 
L 54.390625 0 
L 45.40625 0 
L 45.40625 8.203125 
Q 42.578125 3.328125 38.25 0.953125 
Q 33.9375 -1.421875 27.875 -1.421875 
Q 17.96875 -1.421875 11.734375 6.484375 
Q 5.515625 14.40625 5.515625 27.296875 
Q 5.515625 40.1875 11.734375 48.09375 
Q 17.96875 56 27.875 56 
Q 33.9375 56 38.25 53.625 
Q 42.578125 51.265625 45.40625 46.390625 
z
M 14.796875 27.296875 
Q 14.796875 17.390625 18.875 11.75 
Q 22.953125 6.109375 30.078125 6.109375 
Q 37.203125 6.109375 41.296875 11.75 
Q 45.40625 17.390625 45.40625 27.296875 
Q 45.40625 37.203125 41.296875 42.84375 
Q 37.203125 48.484375 30.078125 48.484375 
Q 22.953125 48.484375 18.875 42.84375 
Q 14.796875 37.203125 14.796875 27.296875 
z
" id="DejaVuSans-64"/>
      <path d="M 44.28125 53.078125 
L 44.28125 44.578125 
Q 40.484375 46.53125 36.375 47.5 
Q 32.28125 48.484375 27.875 48.484375 
Q 21.1875 48.484375 17.84375 46.4375 
Q 14.5 44.390625 14.5 40.28125 
Q 14.5 37.15625 16.890625 35.375 
Q 19.28125 33.59375 26.515625 31.984375 
L 29.59375 31.296875 
Q 39.15625 29.25 43.1875 25.515625 
Q 47.21875 21.78125 47.21875 15.09375 
Q 47.21875 7.46875 41.1875 3.015625 
Q 35.15625 -1.421875 24.609375 -1.421875 
Q 20.21875 -1.421875 15.453125 -0.5625 
Q 10.6875 0.296875 5.421875 2 
L 5.421875 11.28125 
Q 10.40625 8.6875 15.234375 7.390625 
Q 20.0625 6.109375 24.8125 6.109375 
Q 31.15625 6.109375 34.5625 8.28125 
Q 37.984375 10.453125 37.984375 14.40625 
Q 37.984375 18.0625 35.515625 20.015625 
Q 33.0625 21.96875 24.703125 23.78125 
L 21.578125 24.515625 
Q 13.234375 26.265625 9.515625 29.90625 
Q 5.8125 33.546875 5.8125 39.890625 
Q 5.8125 47.609375 11.28125 51.796875 
Q 16.75 56 26.8125 56 
Q 31.78125 56 36.171875 55.265625 
Q 40.578125 54.546875 44.28125 53.078125 
z
" id="DejaVuSans-73"/>
      <path d="M 8.5 21.578125 
L 8.5 54.6875 
L 17.484375 54.6875 
L 17.484375 21.921875 
Q 17.484375 14.15625 20.5 10.265625 
Q 23.53125 6.390625 29.59375 6.390625 
Q 36.859375 6.390625 41.078125 11.03125 
Q 45.3125 15.671875 45.3125 23.6875 
L 45.3125 54.6875 
L 54.296875 54.6875 
L 54.296875 0 
L 45.3125 0 
L 45.3125 8.40625 
Q 42.046875 3.421875 37.71875 1 
Q 33.40625 -1.421875 27.6875 -1.421875 
Q 18.265625 -1.421875 13.375 4.4375 
Q 8.5 10.296875 8.5 21.578125 
z
M 31.109375 56 
z
" id="DejaVuSans-75"/>
      <path d="M 2.984375 54.6875 
L 12.5 54.6875 
L 29.59375 8.796875 
L 46.6875 54.6875 
L 56.203125 54.6875 
L 35.6875 0 
L 23.484375 0 
z
" id="DejaVuSans-76"/>
     </defs>
     <g transform="translate(22.396875 263.734437)rotate(-90)scale(0.2 -0.2)">
      <use xlink:href="#DejaVuSans-4e"/>
      <use x="74.804688" xlink:href="#DejaVuSans-6f"/>
      <use x="135.986328" xlink:href="#DejaVuSans-72"/>
      <use x="177.083984" xlink:href="#DejaVuSans-6d"/>
      <use x="274.496094" xlink:href="#DejaVuSans-61"/>
      <use x="335.775391" xlink:href="#DejaVuSans-6c"/>
      <use x="363.558594" xlink:href="#DejaVuSans-69"/>
      <use x="391.341797" xlink:href="#DejaVuSans-7a"/>
      <use x="443.832031" xlink:href="#DejaVuSans-65"/>
      <use x="505.355469" xlink:href="#DejaVuSans-64"/>
      <use x="568.832031" xlink:href="#DejaVuSans-20"/>
      <use x="600.619141" xlink:href="#DejaVuSans-73"/>
      <use x="652.71875" xlink:href="#DejaVuSans-75"/>
      <use x="716.097656" xlink:href="#DejaVuSans-72"/>
      <use x="757.210938" xlink:href="#DejaVuSans-76"/>
      <use x="816.390625" xlink:href="#DejaVuSans-69"/>
      <use x="844.173828" xlink:href="#DejaVuSans-76"/>
      <use x="903.353516" xlink:href="#DejaVuSans-61"/>
      <use x="964.632812" xlink:href="#DejaVuSans-6c"/>
     </g>
    </g>
   </g>
   <g id="LineCollection_1">
    <path clip-path="url(#p5f6660c8d0)" d="M 61.410938 297.54825 
L 61.410938 296.36025 
" style="fill:none;stroke:#0000ff;stroke-width:1.5;"/>
    <path clip-path="url(#p5f6660c8d0)" d="M 73.910138 245.370124 
L 73.910138 231.084776 
" style="fill:none;stroke:#0000ff;stroke-width:1.5;"/>
    <path clip-path="url(#p5f6660c8d0)" d="M 86.409338 166.366146 
L 86.409338 149.029657 
" style="fill:none;stroke:#0000ff;stroke-width:1.5;"/>
    <path clip-path="url(#p5f6660c8d0)" d="M 98.908538 103.128944 
L 98.908538 88.250632 
" style="fill:none;stroke:#0000ff;stroke-width:1.5;"/>
    <path clip-path="url(#p5f6660c8d0)" d="M 111.407738 146.759349 
L 111.407738 130.088922 
" style="fill:none;stroke:#0000ff;stroke-width:1.5;"/>
    <path clip-path="url(#p5f6660c8d0)" d="M 123.906937 229.281293 
L 123.906937 213.244327 
" style="fill:none;stroke:#0000ff;stroke-width:1.5;"/>
    <path clip-path="url(#p5f6660c8d0)" d="M 136.406138 282.562974 
L 136.406138 273.329526 
" style="fill:none;stroke:#0000ff;stroke-width:1.5;"/>
    <path clip-path="url(#p5f6660c8d0)" d="M 148.905338 244.16319 
L 148.905338 229.447397 
" style="fill:none;stroke:#0000ff;stroke-width:1.5;"/>
    <path clip-path="url(#p5f6660c8d0)" d="M 161.404538 165.347782 
L 161.404538 148.305162 
" style="fill:none;stroke:#0000ff;stroke-width:1.5;"/>
    <path clip-path="url(#p5f6660c8d0)" d="M 173.903738 100.183917 
L 173.903738 85.596244 
" style="fill:none;stroke:#0000ff;stroke-width:1.5;"/>
    <path clip-path="url(#p5f6660c8d0)" d="M 186.402938 160.43004 
L 186.402938 143.470132 
" style="fill:none;stroke:#0000ff;stroke-width:1.5;"/>
    <path clip-path="url(#p5f6660c8d0)" d="M 198.902138 223.624285 
L 198.902138 206.854094 
" style="fill:none;stroke:#0000ff;stroke-width:1.5;"/>
    <path clip-path="url(#p5f6660c8d0)" d="M 211.401338 276.839216 
L 211.401338 266.787062 
" style="fill:none;stroke:#0000ff;stroke-width:1.5;"/>
    <path clip-path="url(#p5f6660c8d0)" d="M 223.900538 247.701619 
L 223.900538 233.507966 
" style="fill:none;stroke:#0000ff;stroke-width:1.5;"/>
    <path clip-path="url(#p5f6660c8d0)" d="M 236.399738 175.435387 
L 236.399738 158.078679 
" style="fill:none;stroke:#0000ff;stroke-width:1.5;"/>
    <path clip-path="url(#p5f6660c8d0)" d="M 248.898937 109.921878 
L 248.898937 94.803713 
" style="fill:none;stroke:#0000ff;stroke-width:1.5;"/>
    <path clip-path="url(#p5f6660c8d0)" d="M 261.398138 162.467228 
L 261.398138 145.273036 
" style="fill:none;stroke:#0000ff;stroke-width:1.5;"/>
    <path clip-path="url(#p5f6660c8d0)" d="M 273.897337 226.313976 
L 273.897337 210.272333 
" style="fill:none;stroke:#0000ff;stroke-width:1.5;"/>
    <path clip-path="url(#p5f6660c8d0)" d="M 286.396538 276.238128 
L 286.396538 265.635972 
" style="fill:none;stroke:#0000ff;stroke-width:1.5;"/>
    <path clip-path="url(#p5f6660c8d0)" d="M 298.895737 249.68533 
L 298.895737 235.495344 
" style="fill:none;stroke:#0000ff;stroke-width:1.5;"/>
    <path clip-path="url(#p5f6660c8d0)" d="M 311.394937 163.258673 
L 311.394937 145.529827 
" style="fill:none;stroke:#0000ff;stroke-width:1.5;"/>
    <path clip-path="url(#p5f6660c8d0)" d="M 323.894137 116.32861 
L 323.894137 100.426046 
" style="fill:none;stroke:#0000ff;stroke-width:1.5;"/>
    <path clip-path="url(#p5f6660c8d0)" d="M 336.393337 144.507521 
L 336.393337 128.061235 
" style="fill:none;stroke:#0000ff;stroke-width:1.5;"/>
    <path clip-path="url(#p5f6660c8d0)" d="M 348.892538 224.866835 
L 348.892538 208.703167 
" style="fill:none;stroke:#0000ff;stroke-width:1.5;"/>
    <path clip-path="url(#p5f6660c8d0)" d="M 361.391738 277.493751 
L 361.391738 267.193868 
" style="fill:none;stroke:#0000ff;stroke-width:1.5;"/>
    <path clip-path="url(#p5f6660c8d0)" d="M 373.890938 254.85906 
L 373.890938 242.30031 
" style="fill:none;stroke:#0000ff;stroke-width:1.5;"/>
    <path clip-path="url(#p5f6660c8d0)" d="M 386.390138 162.456504 
L 386.390138 144.454189 
" style="fill:none;stroke:#0000ff;stroke-width:1.5;"/>
    <path clip-path="url(#p5f6660c8d0)" d="M 398.889337 116.985129 
L 398.889337 101.305724 
" style="fill:none;stroke:#0000ff;stroke-width:1.5;"/>
    <path clip-path="url(#p5f6660c8d0)" d="M 411.388538 147.144887 
L 411.388538 130.189183 
" style="fill:none;stroke:#0000ff;stroke-width:1.5;"/>
    <path clip-path="url(#p5f6660c8d0)" d="M 423.887738 201.010687 
L 423.887738 184.115585 
" style="fill:none;stroke:#0000ff;stroke-width:1.5;"/>
    <path clip-path="url(#p5f6660c8d0)" d="M 436.386937 272.427826 
L 436.386937 260.979074 
" style="fill:none;stroke:#0000ff;stroke-width:1.5;"/>
   </g>
   <g id="LineCollection_2">
    <path clip-path="url(#p5f6660c8d0)" d="M 61.410938 296.928904 
L 61.410938 295.08045 
" style="fill:none;stroke:#ff0000;stroke-width:1.5;"/>
    <path clip-path="url(#p5f6660c8d0)" d="M 75.993338 216.387412 
L 75.993338 204.093224 
" style="fill:none;stroke:#ff0000;stroke-width:1.5;"/>
    <path clip-path="url(#p5f6660c8d0)" d="M 90.575738 110.215226 
L 90.575738 98.353594 
" style="fill:none;stroke:#ff0000;stroke-width:1.5;"/>
    <path clip-path="url(#p5f6660c8d0)" d="M 105.158138 158.942369 
L 105.158138 145.790545 
" style="fill:none;stroke:#ff0000;stroke-width:1.5;"/>
    <path clip-path="url(#p5f6660c8d0)" d="M 119.740538 228.123858 
L 119.740538 216.718928 
" style="fill:none;stroke:#ff0000;stroke-width:1.5;"/>
    <path clip-path="url(#p5f6660c8d0)" d="M 134.322938 193.873392 
L 134.322938 180.879757 
" style="fill:none;stroke:#ff0000;stroke-width:1.5;"/>
    <path clip-path="url(#p5f6660c8d0)" d="M 148.905338 178.479644 
L 148.905338 165.177698 
" style="fill:none;stroke:#ff0000;stroke-width:1.5;"/>
    <path clip-path="url(#p5f6660c8d0)" d="M 163.487738 219.197784 
L 163.487738 207.129348 
" style="fill:none;stroke:#ff0000;stroke-width:1.5;"/>
    <path clip-path="url(#p5f6660c8d0)" d="M 178.070138 198.260817 
L 178.070138 185.585636 
" style="fill:none;stroke:#ff0000;stroke-width:1.5;"/>
    <path clip-path="url(#p5f6660c8d0)" d="M 192.652538 163.119247 
L 192.652538 150.248352 
" style="fill:none;stroke:#ff0000;stroke-width:1.5;"/>
    <path clip-path="url(#p5f6660c8d0)" d="M 207.234938 164.706176 
L 207.234938 151.87217 
" style="fill:none;stroke:#ff0000;stroke-width:1.5;"/>
    <path clip-path="url(#p5f6660c8d0)" d="M 221.817338 193.628985 
L 221.817338 180.773668 
" style="fill:none;stroke:#ff0000;stroke-width:1.5;"/>
    <path clip-path="url(#p5f6660c8d0)" d="M 236.399738 203.416376 
L 236.399738 190.828924 
" style="fill:none;stroke:#ff0000;stroke-width:1.5;"/>
    <path clip-path="url(#p5f6660c8d0)" d="M 250.982138 203.566349 
L 250.982138 190.602151 
" style="fill:none;stroke:#ff0000;stroke-width:1.5;"/>
    <path clip-path="url(#p5f6660c8d0)" d="M 265.564538 193.009845 
L 265.564538 180.221306 
" style="fill:none;stroke:#ff0000;stroke-width:1.5;"/>
    <path clip-path="url(#p5f6660c8d0)" d="M 280.146938 181.040316 
L 280.146938 167.967174 
" style="fill:none;stroke:#ff0000;stroke-width:1.5;"/>
    <path clip-path="url(#p5f6660c8d0)" d="M 294.729338 161.196892 
L 294.729338 147.977781 
" style="fill:none;stroke:#ff0000;stroke-width:1.5;"/>
    <path clip-path="url(#p5f6660c8d0)" d="M 309.311738 194.790612 
L 309.311738 181.66613 
" style="fill:none;stroke:#ff0000;stroke-width:1.5;"/>
    <path clip-path="url(#p5f6660c8d0)" d="M 323.894137 201.897796 
L 323.894137 188.957744 
" style="fill:none;stroke:#ff0000;stroke-width:1.5;"/>
    <path clip-path="url(#p5f6660c8d0)" d="M 338.476538 201.575169 
L 338.476538 188.561331 
" style="fill:none;stroke:#ff0000;stroke-width:1.5;"/>
    <path clip-path="url(#p5f6660c8d0)" d="M 353.058938 181.205607 
L 353.058938 167.888112 
" style="fill:none;stroke:#ff0000;stroke-width:1.5;"/>
   </g>
   <g id="line2d_29">
    <path clip-path="url(#p5f6660c8d0)" d="M 61.410938 297.108182 
L 63.285818 297.108182 
L 65.160698 291.66456 
L 67.035578 283.389153 
L 68.910458 273.283845 
L 70.785338 260.774673 
L 74.535098 230.983254 
L 78.284858 195.695968 
L 80.159738 176.857096 
L 83.909498 143.578796 
L 87.659258 114.731399 
L 89.534138 103.156953 
L 91.409018 94.359363 
L 93.283898 88.276437 
L 95.158778 83.713491 
L 97.033658 82.772778 
L 98.908538 83.678843 
L 100.783418 87.371982 
L 104.533178 100.840333 
L 106.408058 111.010165 
L 110.157818 135.52198 
L 113.907578 163.63831 
L 115.782458 178.482993 
L 119.532218 206.131574 
L 121.407098 219.024889 
L 125.156858 242.701522 
L 127.031738 252.022759 
L 128.906618 259.779752 
L 130.781498 265.751834 
L 132.656378 270.445829 
L 134.531258 272.758537 
L 136.406138 273.52647 
L 138.281018 272.431137 
L 140.155898 269.041715 
L 142.030778 263.517539 
L 143.905658 257.036822 
L 145.780538 249.332603 
L 149.530298 228.77796 
L 151.405178 216.533683 
L 153.280058 202.682438 
L 155.154938 190.255355 
L 157.029818 177.034533 
L 158.904697 162.956921 
L 162.654458 137.574199 
L 166.404218 115.909759 
L 168.279098 107.767893 
L 170.153978 100.911972 
L 172.028858 95.975878 
L 173.903738 93.343822 
L 175.778618 92.647269 
L 177.653498 94.55318 
L 179.528378 97.924251 
L 181.403258 104.257923 
L 183.278138 113.115792 
L 187.027898 135.30886 
L 190.777658 162.844604 
L 196.402298 209.656764 
L 198.277178 223.122719 
L 200.152058 237.427058 
L 202.026938 249.958306 
L 203.901818 260.108661 
L 205.776698 269.477189 
L 207.651578 275.608846 
L 209.526458 279.958608 
L 211.401338 282.044574 
L 213.276218 281.570096 
L 215.151098 278.787985 
L 217.025978 272.71252 
L 218.900858 264.970212 
L 220.775738 255.188166 
L 222.650618 243.858526 
L 226.400378 217.398745 
L 232.025018 173.106752 
L 235.774778 145.839939 
L 237.649658 132.940176 
L 239.524538 121.435956 
L 241.399418 112.888987 
L 243.274298 105.576495 
L 245.149178 99.900489 
L 247.024058 96.890054 
L 248.898938 95.384331 
L 250.773818 96.643227 
L 252.648698 99.655319 
L 254.523578 104.810274 
L 256.398458 112.163975 
L 260.148218 130.376043 
L 262.023098 143.065093 
L 263.897978 154.638255 
L 273.272378 221.358412 
L 275.147258 233.28608 
L 278.897018 254.036206 
L 280.771898 262.039797 
L 282.646778 268.013208 
L 284.521658 273.218049 
L 286.396538 275.332922 
L 288.271418 275.762951 
L 290.146298 273.621474 
L 292.021178 269.870866 
L 293.896057 263.338829 
L 295.770938 255.481041 
L 297.645818 246.557837 
L 299.520698 235.275585 
L 301.395578 223.081814 
L 303.270458 209.696857 
L 305.145338 194.082553 
L 307.020218 180.778803 
L 308.895098 164.691704 
L 312.644858 136.922233 
L 318.269497 105.419103 
L 320.144378 99.933213 
L 322.019257 95.146138 
L 323.894137 92.895697 
L 325.769018 93.333548 
L 327.643897 95.107724 
L 329.518777 101.358376 
L 331.393658 109.22638 
L 333.268538 118.565905 
L 335.143417 129.128616 
L 337.018298 141.778979 
L 342.642938 185.813858 
L 346.392698 215.523804 
L 350.142457 241.215511 
L 352.017337 251.936216 
L 353.892218 261.66336 
L 355.767098 267.5742 
L 357.641977 272.971924 
L 359.516858 275.231366 
L 361.391738 275.404011 
L 363.266618 272.592874 
L 365.141498 267.985019 
L 367.016377 261.697083 
L 368.891257 254.239656 
L 370.766138 243.609166 
L 372.641018 233.880787 
L 383.890298 159.99158 
L 385.765177 149.044307 
L 387.640058 139.165062 
L 389.514938 131.046615 
L 391.389818 124.459247 
L 393.264698 118.849515 
L 395.139577 114.990723 
L 397.014457 111.827664 
L 398.889338 111.196831 
L 400.764218 112.725645 
L 402.639098 114.644206 
L 404.513978 119.250833 
L 406.388858 124.28856 
L 408.263737 131.229066 
L 410.138618 139.487829 
L 413.888377 156.891261 
L 415.763258 167.640818 
L 417.638138 179.909727 
L 419.513018 189.759257 
L 423.262777 211.622991 
L 427.012538 232.549604 
L 430.762298 249.665595 
L 432.637178 255.354202 
L 434.512058 260.435885 
L 436.386938 263.694248 
L 436.386938 263.694248 
" style="fill:none;stroke:#483d8b;stroke-linecap:square;stroke-width:1.5;"/>
   </g>
   <g id="line2d_30">
    <defs>
     <path d="M 0 3 
C 0.795609 3 1.55874 2.683901 2.12132 2.12132 
C 2.683901 1.55874 3 0.795609 3 0 
C 3 -0.795609 2.683901 -1.55874 2.12132 -2.12132 
C 1.55874 -2.683901 0.795609 -3 0 -3 
C -0.795609 -3 -1.55874 -2.683901 -2.12132 -2.12132 
C -2.683901 -1.55874 -3 -0.795609 -3 0 
C -3 0.795609 -2.683901 1.55874 -2.12132 2.12132 
C -1.55874 2.683901 -0.795609 3 0 3 
z
" id="md99016e58b" style="stroke:#0000ff;"/>
    </defs>
    <g clip-path="url(#p5f6660c8d0)">
     <use style="fill:#0000ff;stroke:#0000ff;" x="61.410938" xlink:href="#md99016e58b" y="296.95425"/>
     <use style="fill:#0000ff;stroke:#0000ff;" x="73.910138" xlink:href="#md99016e58b" y="238.22745"/>
     <use style="fill:#0000ff;stroke:#0000ff;" x="86.409338" xlink:href="#md99016e58b" y="157.697901"/>
     <use style="fill:#0000ff;stroke:#0000ff;" x="98.908538" xlink:href="#md99016e58b" y="95.689788"/>
     <use style="fill:#0000ff;stroke:#0000ff;" x="111.407738" xlink:href="#md99016e58b" y="138.424136"/>
     <use style="fill:#0000ff;stroke:#0000ff;" x="123.906937" xlink:href="#md99016e58b" y="221.26281"/>
     <use style="fill:#0000ff;stroke:#0000ff;" x="136.406138" xlink:href="#md99016e58b" y="277.94625"/>
     <use style="fill:#0000ff;stroke:#0000ff;" x="148.905338" xlink:href="#md99016e58b" y="236.805293"/>
     <use style="fill:#0000ff;stroke:#0000ff;" x="161.404538" xlink:href="#md99016e58b" y="156.826472"/>
     <use style="fill:#0000ff;stroke:#0000ff;" x="173.903738" xlink:href="#md99016e58b" y="92.890081"/>
     <use style="fill:#0000ff;stroke:#0000ff;" x="186.402938" xlink:href="#md99016e58b" y="151.950086"/>
     <use style="fill:#0000ff;stroke:#0000ff;" x="198.902138" xlink:href="#md99016e58b" y="215.23919"/>
     <use style="fill:#0000ff;stroke:#0000ff;" x="211.401338" xlink:href="#md99016e58b" y="271.813139"/>
     <use style="fill:#0000ff;stroke:#0000ff;" x="223.900538" xlink:href="#md99016e58b" y="240.604792"/>
     <use style="fill:#0000ff;stroke:#0000ff;" x="236.399738" xlink:href="#md99016e58b" y="166.757033"/>
     <use style="fill:#0000ff;stroke:#0000ff;" x="248.898937" xlink:href="#md99016e58b" y="102.362795"/>
     <use style="fill:#0000ff;stroke:#0000ff;" x="261.398138" xlink:href="#md99016e58b" y="153.870132"/>
     <use style="fill:#0000ff;stroke:#0000ff;" x="273.897337" xlink:href="#md99016e58b" y="218.293154"/>
     <use style="fill:#0000ff;stroke:#0000ff;" x="286.396538" xlink:href="#md99016e58b" y="270.93705"/>
     <use style="fill:#0000ff;stroke:#0000ff;" x="298.895737" xlink:href="#md99016e58b" y="242.590337"/>
     <use style="fill:#0000ff;stroke:#0000ff;" x="311.394937" xlink:href="#md99016e58b" y="154.39425"/>
     <use style="fill:#0000ff;stroke:#0000ff;" x="323.894137" xlink:href="#md99016e58b" y="108.377328"/>
     <use style="fill:#0000ff;stroke:#0000ff;" x="336.393337" xlink:href="#md99016e58b" y="136.284378"/>
     <use style="fill:#0000ff;stroke:#0000ff;" x="348.892538" xlink:href="#md99016e58b" y="216.785001"/>
     <use style="fill:#0000ff;stroke:#0000ff;" x="361.391738" xlink:href="#md99016e58b" y="272.343809"/>
     <use style="fill:#0000ff;stroke:#0000ff;" x="373.890938" xlink:href="#md99016e58b" y="248.579685"/>
     <use style="fill:#0000ff;stroke:#0000ff;" x="386.390138" xlink:href="#md99016e58b" y="153.455347"/>
     <use style="fill:#0000ff;stroke:#0000ff;" x="398.889337" xlink:href="#md99016e58b" y="109.145426"/>
     <use style="fill:#0000ff;stroke:#0000ff;" x="411.388538" xlink:href="#md99016e58b" y="138.667035"/>
     <use style="fill:#0000ff;stroke:#0000ff;" x="423.887738" xlink:href="#md99016e58b" y="192.563136"/>
     <use style="fill:#0000ff;stroke:#0000ff;" x="436.386937" xlink:href="#md99016e58b" y="266.70345"/>
    </g>
   </g>
   <g id="line2d_31">
    <path clip-path="url(#p5f6660c8d0)" d="M 61.410938 296.004677 
L 75.993338 210.240318 
L 90.575738 104.28441 
L 105.158138 152.366457 
L 119.740538 222.421393 
L 134.322938 187.376574 
L 148.905338 171.828671 
L 163.487738 213.163566 
L 178.070138 191.923226 
L 192.652538 156.683799 
L 207.234938 158.289173 
L 221.817338 187.201327 
L 236.399738 197.12265 
L 250.982138 197.08425 
L 265.564538 186.615575 
L 280.146938 174.503745 
L 294.729338 154.587337 
L 309.311738 188.228371 
L 323.894137 195.42777 
L 338.476538 195.06825 
L 353.058938 174.54686 
" style="fill:none;stroke:#ff0000;stroke-linecap:square;stroke-width:1.5;"/>
    <defs>
     <path d="M 0 3 
C 0.795609 3 1.55874 2.683901 2.12132 2.12132 
C 2.683901 1.55874 3 0.795609 3 0 
C 3 -0.795609 2.683901 -1.55874 2.12132 -2.12132 
C 1.55874 -2.683901 0.795609 -3 0 -3 
C -0.795609 -3 -1.55874 -2.683901 -2.12132 -2.12132 
C -2.683901 -1.55874 -3 -0.795609 -3 0 
C -3 0.795609 -2.683901 1.55874 -2.12132 2.12132 
C -1.55874 2.683901 -0.795609 3 0 3 
z
" id="m7cebc061f2" style="stroke:#ff0000;"/>
    </defs>
    <g clip-path="url(#p5f6660c8d0)">
     <use style="fill:#ff0000;stroke:#ff0000;" x="61.410938" xlink:href="#m7cebc061f2" y="296.004677"/>
     <use style="fill:#ff0000;stroke:#ff0000;" x="75.993338" xlink:href="#m7cebc061f2" y="210.240318"/>
     <use style="fill:#ff0000;stroke:#ff0000;" x="90.575738" xlink:href="#m7cebc061f2" y="104.28441"/>
     <use style="fill:#ff0000;stroke:#ff0000;" x="105.158138" xlink:href="#m7cebc061f2" y="152.366457"/>
     <use style="fill:#ff0000;stroke:#ff0000;" x="119.740538" xlink:href="#m7cebc061f2" y="222.421393"/>
     <use style="fill:#ff0000;stroke:#ff0000;" x="134.322938" xlink:href="#m7cebc061f2" y="187.376574"/>
     <use style="fill:#ff0000;stroke:#ff0000;" x="148.905338" xlink:href="#m7cebc061f2" y="171.828671"/>
     <use style="fill:#ff0000;stroke:#ff0000;" x="163.487738" xlink:href="#m7cebc061f2" y="213.163566"/>
     <use style="fill:#ff0000;stroke:#ff0000;" x="178.070138" xlink:href="#m7cebc061f2" y="191.923226"/>
     <use style="fill:#ff0000;stroke:#ff0000;" x="192.652538" xlink:href="#m7cebc061f2" y="156.683799"/>
     <use style="fill:#ff0000;stroke:#ff0000;" x="207.234938" xlink:href="#m7cebc061f2" y="158.289173"/>
     <use style="fill:#ff0000;stroke:#ff0000;" x="221.817338" xlink:href="#m7cebc061f2" y="187.201327"/>
     <use style="fill:#ff0000;stroke:#ff0000;" x="236.399738" xlink:href="#m7cebc061f2" y="197.12265"/>
     <use style="fill:#ff0000;stroke:#ff0000;" x="250.982138" xlink:href="#m7cebc061f2" y="197.08425"/>
     <use style="fill:#ff0000;stroke:#ff0000;" x="265.564538" xlink:href="#m7cebc061f2" y="186.615575"/>
     <use style="fill:#ff0000;stroke:#ff0000;" x="280.146938" xlink:href="#m7cebc061f2" y="174.503745"/>
     <use style="fill:#ff0000;stroke:#ff0000;" x="294.729338" xlink:href="#m7cebc061f2" y="154.587337"/>
     <use style="fill:#ff0000;stroke:#ff0000;" x="309.311738" xlink:href="#m7cebc061f2" y="188.228371"/>
     <use style="fill:#ff0000;stroke:#ff0000;" x="323.894137" xlink:href="#m7cebc061f2" y="195.42777"/>
     <use style="fill:#ff0000;stroke:#ff0000;" x="338.476538" xlink:href="#m7cebc061f2" y="195.06825"/>
     <use style="fill:#ff0000;stroke:#ff0000;" x="353.058938" xlink:href="#m7cebc061f2" y="174.54686"/>
    </g>
   </g>
   <g id="patch_3">
    <path d="M 61.410938 297.54825 
L 61.410938 31.43625 
" style="fill:none;stroke:#000000;stroke-linecap:square;stroke-linejoin:miter;stroke-width:0.8;"/>
   </g>
   <g id="patch_4">
    <path d="M 436.386937 297.54825 
L 436.386937 31.43625 
" style="fill:none;stroke:#000000;stroke-linecap:square;stroke-linejoin:miter;stroke-width:0.8;"/>
   </g>
   <g id="patch_5">
    <path d="M 61.410938 297.54825 
L 436.386938 297.54825 
" style="fill:none;stroke:#000000;stroke-linecap:square;stroke-linejoin:miter;stroke-width:0.8;"/>
   </g>
   <g id="patch_6">
    <path d="M 61.410938 31.43625 
L 436.386938 31.43625 
" style="fill:none;stroke:#000000;stroke-linecap:square;stroke-linejoin:miter;stroke-width:0.8;"/>
   </g>
   <g id="text_17">
    <!-- Axis 2 (radial) heating -->
    <defs>
     <path d="M 34.1875 63.1875 
L 20.796875 26.90625 
L 47.609375 26.90625 
z
M 28.609375 72.90625 
L 39.796875 72.90625 
L 67.578125 0 
L 57.328125 0 
L 50.6875 18.703125 
L 17.828125 18.703125 
L 11.1875 0 
L 0.78125 0 
z
" id="DejaVuSans-41"/>
     <path d="M 54.890625 54.6875 
L 35.109375 28.078125 
L 55.90625 0 
L 45.3125 0 
L 29.390625 21.484375 
L 13.484375 0 
L 2.875 0 
L 24.125 28.609375 
L 4.6875 54.6875 
L 15.28125 54.6875 
L 29.78125 35.203125 
L 44.28125 54.6875 
z
" id="DejaVuSans-78"/>
     <path d="M 54.890625 33.015625 
L 54.890625 0 
L 45.90625 0 
L 45.90625 32.71875 
Q 45.90625 40.484375 42.875 44.328125 
Q 39.84375 48.1875 33.796875 48.1875 
Q 26.515625 48.1875 22.3125 43.546875 
Q 18.109375 38.921875 18.109375 30.90625 
L 18.109375 0 
L 9.078125 0 
L 9.078125 75.984375 
L 18.109375 75.984375 
L 18.109375 46.1875 
Q 21.34375 51.125 25.703125 53.5625 
Q 30.078125 56 35.796875 56 
Q 45.21875 56 50.046875 50.171875 
Q 54.890625 44.34375 54.890625 33.015625 
z
" id="DejaVuSans-68"/>
     <path d="M 18.3125 70.21875 
L 18.3125 54.6875 
L 36.8125 54.6875 
L 36.8125 47.703125 
L 18.3125 47.703125 
L 18.3125 18.015625 
Q 18.3125 11.328125 20.140625 9.421875 
Q 21.96875 7.515625 27.59375 7.515625 
L 36.8125 7.515625 
L 36.8125 0 
L 27.59375 0 
Q 17.1875 0 13.234375 3.875 
Q 9.28125 7.765625 9.28125 18.015625 
L 9.28125 47.703125 
L 2.6875 47.703125 
L 2.6875 54.6875 
L 9.28125 54.6875 
L 9.28125 70.21875 
z
" id="DejaVuSans-74"/>
     <path d="M 54.890625 33.015625 
L 54.890625 0 
L 45.90625 0 
L 45.90625 32.71875 
Q 45.90625 40.484375 42.875 44.328125 
Q 39.84375 48.1875 33.796875 48.1875 
Q 26.515625 48.1875 22.3125 43.546875 
Q 18.109375 38.921875 18.109375 30.90625 
L 18.109375 0 
L 9.078125 0 
L 9.078125 54.6875 
L 18.109375 54.6875 
L 18.109375 46.1875 
Q 21.34375 51.125 25.703125 53.5625 
Q 30.078125 56 35.796875 56 
Q 45.21875 56 50.046875 50.171875 
Q 54.890625 44.34375 54.890625 33.015625 
z
" id="DejaVuSans-6e"/>
     <path d="M 45.40625 27.984375 
Q 45.40625 37.75 41.375 43.109375 
Q 37.359375 48.484375 30.078125 48.484375 
Q 22.859375 48.484375 18.828125 43.109375 
Q 14.796875 37.75 14.796875 27.984375 
Q 14.796875 18.265625 18.828125 12.890625 
Q 22.859375 7.515625 30.078125 7.515625 
Q 37.359375 7.515625 41.375 12.890625 
Q 45.40625 18.265625 45.40625 27.984375 
z
M 54.390625 6.78125 
Q 54.390625 -7.171875 48.1875 -13.984375 
Q 42 -20.796875 29.203125 -20.796875 
Q 24.46875 -20.796875 20.265625 -20.09375 
Q 16.0625 -19.390625 12.109375 -17.921875 
L 12.109375 -9.1875 
Q 16.0625 -11.328125 19.921875 -12.34375 
Q 23.78125 -13.375 27.78125 -13.375 
Q 36.625 -13.375 41.015625 -8.765625 
Q 45.40625 -4.15625 45.40625 5.171875 
L 45.40625 9.625 
Q 42.625 4.78125 38.28125 2.390625 
Q 33.9375 0 27.875 0 
Q 17.828125 0 11.671875 7.65625 
Q 5.515625 15.328125 5.515625 27.984375 
Q 5.515625 40.671875 11.671875 48.328125 
Q 17.828125 56 27.875 56 
Q 33.9375 56 38.28125 53.609375 
Q 42.625 51.21875 45.40625 46.390625 
L 45.40625 54.6875 
L 54.390625 54.6875 
z
" id="DejaVuSans-67"/>
    </defs>
    <g transform="translate(116.032688 25.43625)scale(0.24 -0.24)">
     <use xlink:href="#DejaVuSans-41"/>
     <use x="68.408203" xlink:href="#DejaVuSans-78"/>
     <use x="127.587891" xlink:href="#DejaVuSans-69"/>
     <use x="155.371094" xlink:href="#DejaVuSans-73"/>
     <use x="207.470703" xlink:href="#DejaVuSans-20"/>
     <use x="239.257812" xlink:href="#DejaVuSans-32"/>
     <use x="302.880859" xlink:href="#DejaVuSans-20"/>
     <use x="334.667969" xlink:href="#DejaVuSans-28"/>
     <use x="373.681641" xlink:href="#DejaVuSans-72"/>
     <use x="414.794922" xlink:href="#DejaVuSans-61"/>
     <use x="476.074219" xlink:href="#DejaVuSans-64"/>
     <use x="539.550781" xlink:href="#DejaVuSans-69"/>
     <use x="567.333984" xlink:href="#DejaVuSans-61"/>
     <use x="628.613281" xlink:href="#DejaVuSans-6c"/>
     <use x="656.396484" xlink:href="#DejaVuSans-29"/>
     <use x="695.410156" xlink:href="#DejaVuSans-20"/>
     <use x="727.197266" xlink:href="#DejaVuSans-68"/>
     <use x="790.576172" xlink:href="#DejaVuSans-65"/>
     <use x="852.099609" xlink:href="#DejaVuSans-61"/>
     <use x="913.378906" xlink:href="#DejaVuSans-74"/>
     <use x="952.587891" xlink:href="#DejaVuSans-69"/>
     <use x="980.371094" xlink:href="#DejaVuSans-6e"/>
     <use x="1043.75" xlink:href="#DejaVuSans-67"/>
    </g>
   </g>
   <g id="legend_1">
    <g id="patch_7">
     <path d="M 265.630688 135.505 
L 422.386938 135.505 
Q 426.386938 135.505 426.386938 131.505 
L 426.386938 45.43625 
Q 426.386938 41.43625 422.386938 41.43625 
L 265.630688 41.43625 
Q 261.630688 41.43625 261.630688 45.43625 
L 261.630688 131.505 
Q 261.630688 135.505 265.630688 135.505 
z
" style="fill:#ffffff;opacity:0.8;stroke:#cccccc;stroke-linejoin:miter;"/>
    </g>
    <g id="line2d_32">
     <path d="M 269.630688 57.633125 
L 309.630688 57.633125 
" style="fill:none;stroke:#483d8b;stroke-linecap:square;stroke-width:1.5;"/>
    </g>
    <g id="line2d_33"/>
    <g id="text_18">
     <!-- Fit -->
     <defs>
      <path d="M 9.8125 72.90625 
L 51.703125 72.90625 
L 51.703125 64.59375 
L 19.671875 64.59375 
L 19.671875 43.109375 
L 48.578125 43.109375 
L 48.578125 34.8125 
L 19.671875 34.8125 
L 19.671875 0 
L 9.8125 0 
z
" id="DejaVuSans-46"/>
     </defs>
     <g transform="translate(325.630688 64.633125)scale(0.2 -0.2)">
      <use xlink:href="#DejaVuSans-46"/>
      <use x="57.410156" xlink:href="#DejaVuSans-69"/>
      <use x="85.193359" xlink:href="#DejaVuSans-74"/>
     </g>
    </g>
    <g id="LineCollection_3">
     <path d="M 289.630688 96.989375 
L 289.630688 76.989375 
" style="fill:none;stroke:#0000ff;stroke-width:1.5;"/>
    </g>
    <g id="line2d_34"/>
    <g id="line2d_35">
     <g>
      <use style="fill:#0000ff;stroke:#0000ff;" x="289.630688" xlink:href="#md99016e58b" y="86.989375"/>
     </g>
    </g>
    <g id="text_19">
     <!-- With RSC -->
     <defs>
      <path d="M 3.328125 72.90625 
L 13.28125 72.90625 
L 28.609375 11.28125 
L 43.890625 72.90625 
L 54.984375 72.90625 
L 70.3125 11.28125 
L 85.59375 72.90625 
L 95.609375 72.90625 
L 77.296875 0 
L 64.890625 0 
L 49.515625 63.28125 
L 33.984375 0 
L 21.578125 0 
z
" id="DejaVuSans-57"/>
      <path d="M 44.390625 34.1875 
Q 47.5625 33.109375 50.5625 29.59375 
Q 53.5625 26.078125 56.59375 19.921875 
L 66.609375 0 
L 56 0 
L 46.6875 18.703125 
Q 43.0625 26.03125 39.671875 28.421875 
Q 36.28125 30.8125 30.421875 30.8125 
L 19.671875 30.8125 
L 19.671875 0 
L 9.8125 0 
L 9.8125 72.90625 
L 32.078125 72.90625 
Q 44.578125 72.90625 50.734375 67.671875 
Q 56.890625 62.453125 56.890625 51.90625 
Q 56.890625 45.015625 53.6875 40.46875 
Q 50.484375 35.9375 44.390625 34.1875 
z
M 19.671875 64.796875 
L 19.671875 38.921875 
L 32.078125 38.921875 
Q 39.203125 38.921875 42.84375 42.21875 
Q 46.484375 45.515625 46.484375 51.90625 
Q 46.484375 58.296875 42.84375 61.546875 
Q 39.203125 64.796875 32.078125 64.796875 
z
" id="DejaVuSans-52"/>
      <path d="M 53.515625 70.515625 
L 53.515625 60.890625 
Q 47.90625 63.578125 42.921875 64.890625 
Q 37.9375 66.21875 33.296875 66.21875 
Q 25.25 66.21875 20.875 63.09375 
Q 16.5 59.96875 16.5 54.203125 
Q 16.5 49.359375 19.40625 46.890625 
Q 22.3125 44.4375 30.421875 42.921875 
L 36.375 41.703125 
Q 47.40625 39.59375 52.65625 34.296875 
Q 57.90625 29 57.90625 20.125 
Q 57.90625 9.515625 50.796875 4.046875 
Q 43.703125 -1.421875 29.984375 -1.421875 
Q 24.8125 -1.421875 18.96875 -0.25 
Q 13.140625 0.921875 6.890625 3.21875 
L 6.890625 13.375 
Q 12.890625 10.015625 18.65625 8.296875 
Q 24.421875 6.59375 29.984375 6.59375 
Q 38.421875 6.59375 43.015625 9.90625 
Q 47.609375 13.234375 47.609375 19.390625 
Q 47.609375 24.75 44.3125 27.78125 
Q 41.015625 30.8125 33.5 32.328125 
L 27.484375 33.5 
Q 16.453125 35.6875 11.515625 40.375 
Q 6.59375 45.0625 6.59375 53.421875 
Q 6.59375 63.09375 13.40625 68.65625 
Q 20.21875 74.21875 32.171875 74.21875 
Q 37.3125 74.21875 42.625 73.28125 
Q 47.953125 72.359375 53.515625 70.515625 
z
" id="DejaVuSans-53"/>
      <path d="M 64.40625 67.28125 
L 64.40625 56.890625 
Q 59.421875 61.53125 53.78125 63.8125 
Q 48.140625 66.109375 41.796875 66.109375 
Q 29.296875 66.109375 22.65625 58.46875 
Q 16.015625 50.828125 16.015625 36.375 
Q 16.015625 21.96875 22.65625 14.328125 
Q 29.296875 6.6875 41.796875 6.6875 
Q 48.140625 6.6875 53.78125 8.984375 
Q 59.421875 11.28125 64.40625 15.921875 
L 64.40625 5.609375 
Q 59.234375 2.09375 53.4375 0.328125 
Q 47.65625 -1.421875 41.21875 -1.421875 
Q 24.65625 -1.421875 15.125 8.703125 
Q 5.609375 18.84375 5.609375 36.375 
Q 5.609375 53.953125 15.125 64.078125 
Q 24.65625 74.21875 41.21875 74.21875 
Q 47.75 74.21875 53.53125 72.484375 
Q 59.328125 70.75 64.40625 67.28125 
z
" id="DejaVuSans-43"/>
     </defs>
     <g transform="translate(325.630688 93.989375)scale(0.2 -0.2)">
      <use xlink:href="#DejaVuSans-57"/>
      <use x="98.845703" xlink:href="#DejaVuSans-69"/>
      <use x="126.628906" xlink:href="#DejaVuSans-74"/>
      <use x="165.837891" xlink:href="#DejaVuSans-68"/>
      <use x="229.216797" xlink:href="#DejaVuSans-20"/>
      <use x="261.003906" xlink:href="#DejaVuSans-52"/>
      <use x="330.486328" xlink:href="#DejaVuSans-53"/>
      <use x="393.962891" xlink:href="#DejaVuSans-43"/>
     </g>
    </g>
    <g id="LineCollection_4">
     <path d="M 289.630688 126.345625 
L 289.630688 106.345625 
" style="fill:none;stroke:#ff0000;stroke-width:1.5;"/>
    </g>
    <g id="line2d_36">
     <path d="M 269.630688 116.345625 
L 309.630688 116.345625 
" style="fill:none;stroke:#ff0000;stroke-linecap:square;stroke-width:1.5;"/>
    </g>
    <g id="line2d_37">
     <g>
      <use style="fill:#ff0000;stroke:#ff0000;" x="289.630688" xlink:href="#m7cebc061f2" y="116.345625"/>
     </g>
    </g>
    <g id="text_20">
     <!-- No RSC -->
     <g transform="translate(325.630688 123.345625)scale(0.2 -0.2)">
      <use xlink:href="#DejaVuSans-4e"/>
      <use x="74.804688" xlink:href="#DejaVuSans-6f"/>
      <use x="135.986328" xlink:href="#DejaVuSans-20"/>
      <use x="167.773438" xlink:href="#DejaVuSans-52"/>
      <use x="237.255859" xlink:href="#DejaVuSans-53"/>
      <use x="300.732422" xlink:href="#DejaVuSans-43"/>
     </g>
    </g>
   </g>
  </g>
 </g>
 <defs>
  <clipPath id="p5f6660c8d0">
   <rect height="266.112" width="374.976" x="61.410938" y="31.43625"/>
  </clipPath>
 </defs>
</svg>
