<?xml version="1.0" encoding="utf-8" standalone="no"?>
<!DOCTYPE svg PUBLIC "-//W3C//DTD SVG 1.1//EN"
  "http://www.w3.org/Graphics/SVG/1.1/DTD/svg11.dtd">
<!-- Created with matplotlib (http://matplotlib.org/) -->
<svg height="349pt" version="1.1" viewBox="0 0 438 349" width="438pt" xmlns="http://www.w3.org/2000/svg" xmlns:xlink="http://www.w3.org/1999/xlink">
 <defs>
  <style type="text/css">
*{stroke-linecap:butt;stroke-linejoin:round;}
  </style>
 </defs>
 <g id="figure_1">
  <g id="patch_1">
   <path d="M 0 349.665437 
L 438.884062 349.665437 
L 438.884062 0 
L 0 0 
z
" style="fill:none;"/>
  </g>
  <g id="axes_1">
   <g id="patch_2">
    <path d="M 64.127344 297.54825 
L 421.247344 297.54825 
L 421.247344 31.43625 
L 64.127344 31.43625 
z
" style="fill:none;"/>
   </g>
   <g id="matplotlib.axis_1">
    <g id="xtick_1">
     <g id="line2d_1">
      <path clip-path="url(#pdcd0a52f3f)" d="M 64.127344 297.54825 
L 64.127344 31.43625 
" style="fill:none;stroke:#b0b0b0;stroke-linecap:square;stroke-width:0.8;"/>
     </g>
     <g id="line2d_2">
      <defs>
       <path d="M 0 0 
L 0 3.5 
" id="mbb83ea871b" style="stroke:#000000;stroke-width:0.8;"/>
      </defs>
      <g>
       <use style="stroke:#000000;stroke-width:0.8;" x="64.127344" xlink:href="#mbb83ea871b" y="297.54825"/>
      </g>
     </g>
     <g id="text_1">
      <!-- 0 -->
      <defs>
       <path d="M 46 36.53125 
Q 46 50.203125 43.4375 55.78125 
Q 40.875 61.375 34.8125 61.375 
Q 28.765625 61.375 26.171875 55.78125 
Q 23.578125 50.203125 23.578125 36.53125 
Q 23.578125 22.703125 26.171875 17.03125 
Q 28.765625 11.375 34.8125 11.375 
Q 40.828125 11.375 43.40625 17.03125 
Q 46 22.703125 46 36.53125 
M 64.796875 36.375 
Q 64.796875 18.265625 56.984375 8.421875 
Q 49.171875 -1.421875 34.8125 -1.421875 
Q 20.40625 -1.421875 12.59375 8.421875 
Q 4.78125 18.265625 4.78125 36.375 
Q 4.78125 54.546875 12.59375 64.375 
Q 20.40625 74.21875 34.8125 74.21875 
Q 49.171875 74.21875 56.984375 64.375 
Q 64.796875 54.546875 64.796875 36.375 
" id="DejaVuSans-Bold-30"/>
      </defs>
      <g transform="translate(58.908984 315.945906)scale(0.15 -0.15)">
       <use xlink:href="#DejaVuSans-Bold-30"/>
      </g>
     </g>
    </g>
    <g id="xtick_2">
     <g id="line2d_3">
      <path clip-path="url(#pdcd0a52f3f)" d="M 153.407344 297.54825 
L 153.407344 31.43625 
" style="fill:none;stroke:#b0b0b0;stroke-linecap:square;stroke-width:0.8;"/>
     </g>
     <g id="line2d_4">
      <g>
       <use style="stroke:#000000;stroke-width:0.8;" x="153.407344" xlink:href="#mbb83ea871b" y="297.54825"/>
      </g>
     </g>
     <g id="text_2">
      <!-- 20 -->
      <defs>
       <path d="M 28.8125 13.8125 
L 60.890625 13.8125 
L 60.890625 0 
L 7.90625 0 
L 7.90625 13.8125 
L 34.515625 37.3125 
Q 38.09375 40.53125 39.796875 43.609375 
Q 41.5 46.6875 41.5 50 
Q 41.5 55.125 38.0625 58.25 
Q 34.625 61.375 28.90625 61.375 
Q 24.515625 61.375 19.28125 59.5 
Q 14.0625 57.625 8.109375 53.90625 
L 8.109375 69.921875 
Q 14.453125 72.015625 20.65625 73.109375 
Q 26.859375 74.21875 32.8125 74.21875 
Q 45.90625 74.21875 53.15625 68.453125 
Q 60.40625 62.703125 60.40625 52.390625 
Q 60.40625 46.4375 57.328125 41.28125 
Q 54.25 36.140625 44.390625 27.484375 
z
" id="DejaVuSans-Bold-32"/>
      </defs>
      <g transform="translate(142.970625 315.945906)scale(0.15 -0.15)">
       <use xlink:href="#DejaVuSans-Bold-32"/>
       <use x="69.580078" xlink:href="#DejaVuSans-Bold-30"/>
      </g>
     </g>
    </g>
    <g id="xtick_3">
     <g id="line2d_5">
      <path clip-path="url(#pdcd0a52f3f)" d="M 242.687344 297.54825 
L 242.687344 31.43625 
" style="fill:none;stroke:#b0b0b0;stroke-linecap:square;stroke-width:0.8;"/>
     </g>
     <g id="line2d_6">
      <g>
       <use style="stroke:#000000;stroke-width:0.8;" x="242.687344" xlink:href="#mbb83ea871b" y="297.54825"/>
      </g>
     </g>
     <g id="text_3">
      <!-- 40 -->
      <defs>
       <path d="M 36.8125 57.421875 
L 16.21875 26.90625 
L 36.8125 26.90625 
z
M 33.6875 72.90625 
L 54.59375 72.90625 
L 54.59375 26.90625 
L 64.984375 26.90625 
L 64.984375 13.28125 
L 54.59375 13.28125 
L 54.59375 0 
L 36.8125 0 
L 36.8125 13.28125 
L 4.5 13.28125 
L 4.5 29.390625 
z
" id="DejaVuSans-Bold-34"/>
      </defs>
      <g transform="translate(232.250625 315.945906)scale(0.15 -0.15)">
       <use xlink:href="#DejaVuSans-Bold-34"/>
       <use x="69.580078" xlink:href="#DejaVuSans-Bold-30"/>
      </g>
     </g>
    </g>
    <g id="xtick_4">
     <g id="line2d_7">
      <path clip-path="url(#pdcd0a52f3f)" d="M 331.967344 297.54825 
L 331.967344 31.43625 
" style="fill:none;stroke:#b0b0b0;stroke-linecap:square;stroke-width:0.8;"/>
     </g>
     <g id="line2d_8">
      <g>
       <use style="stroke:#000000;stroke-width:0.8;" x="331.967344" xlink:href="#mbb83ea871b" y="297.54825"/>
      </g>
     </g>
     <g id="text_4">
      <!-- 60 -->
      <defs>
       <path d="M 36.1875 35.984375 
Q 31.25 35.984375 28.78125 32.78125 
Q 26.3125 29.59375 26.3125 23.1875 
Q 26.3125 16.796875 28.78125 13.59375 
Q 31.25 10.40625 36.1875 10.40625 
Q 41.15625 10.40625 43.625 13.59375 
Q 46.09375 16.796875 46.09375 23.1875 
Q 46.09375 29.59375 43.625 32.78125 
Q 41.15625 35.984375 36.1875 35.984375 
M 59.421875 71 
L 59.421875 57.515625 
Q 54.78125 59.71875 50.671875 60.765625 
Q 46.578125 61.8125 42.671875 61.8125 
Q 34.28125 61.8125 29.59375 57.140625 
Q 24.90625 52.484375 24.125 43.3125 
Q 27.34375 45.703125 31.09375 46.890625 
Q 34.859375 48.09375 39.3125 48.09375 
Q 50.484375 48.09375 57.34375 41.546875 
Q 64.203125 35.015625 64.203125 24.421875 
Q 64.203125 12.703125 56.53125 5.640625 
Q 48.875 -1.421875 35.984375 -1.421875 
Q 21.78125 -1.421875 13.984375 8.171875 
Q 6.203125 17.78125 6.203125 35.40625 
Q 6.203125 53.46875 15.3125 63.796875 
Q 24.421875 74.125 40.28125 74.125 
Q 45.3125 74.125 50.046875 73.34375 
Q 54.78125 72.5625 59.421875 71 
" id="DejaVuSans-Bold-36"/>
      </defs>
      <g transform="translate(321.530625 315.945906)scale(0.15 -0.15)">
       <use xlink:href="#DejaVuSans-Bold-36"/>
       <use x="69.580078" xlink:href="#DejaVuSans-Bold-30"/>
      </g>
     </g>
    </g>
    <g id="xtick_5">
     <g id="line2d_9">
      <path clip-path="url(#pdcd0a52f3f)" d="M 421.247344 297.54825 
L 421.247344 31.43625 
" style="fill:none;stroke:#b0b0b0;stroke-linecap:square;stroke-width:0.8;"/>
     </g>
     <g id="line2d_10">
      <g>
       <use style="stroke:#000000;stroke-width:0.8;" x="421.247344" xlink:href="#mbb83ea871b" y="297.54825"/>
      </g>
     </g>
     <g id="text_5">
      <!-- 80 -->
      <defs>
       <path d="M 34.8125 32.625 
Q 29.546875 32.625 26.703125 29.734375 
Q 23.875 26.859375 23.875 21.484375 
Q 23.875 16.109375 26.703125 13.25 
Q 29.546875 10.40625 34.8125 10.40625 
Q 40.046875 10.40625 42.828125 13.25 
Q 45.609375 16.109375 45.609375 21.484375 
Q 45.609375 26.90625 42.828125 29.765625 
Q 40.046875 32.625 34.8125 32.625 
M 21.09375 38.8125 
Q 14.453125 40.828125 11.078125 44.96875 
Q 7.71875 49.125 7.71875 55.328125 
Q 7.71875 64.546875 14.59375 69.375 
Q 21.484375 74.21875 34.8125 74.21875 
Q 48.046875 74.21875 54.921875 69.40625 
Q 61.8125 64.59375 61.8125 55.328125 
Q 61.8125 49.125 58.421875 44.96875 
Q 55.03125 40.828125 48.390625 38.8125 
Q 55.8125 36.765625 59.59375 32.15625 
Q 63.375 27.546875 63.375 20.515625 
Q 63.375 9.671875 56.171875 4.125 
Q 48.96875 -1.421875 34.8125 -1.421875 
Q 20.609375 -1.421875 13.359375 4.125 
Q 6.109375 9.671875 6.109375 20.515625 
Q 6.109375 27.546875 9.890625 32.15625 
Q 13.671875 36.765625 21.09375 38.8125 
M 25.484375 53.421875 
Q 25.484375 49.078125 27.90625 46.734375 
Q 30.328125 44.390625 34.8125 44.390625 
Q 39.203125 44.390625 41.59375 46.734375 
Q 44 49.078125 44 53.421875 
Q 44 57.765625 41.59375 60.078125 
Q 39.203125 62.40625 34.8125 62.40625 
Q 30.328125 62.40625 27.90625 60.0625 
Q 25.484375 57.71875 25.484375 53.421875 
" id="DejaVuSans-Bold-38"/>
      </defs>
      <g transform="translate(410.810625 315.945906)scale(0.15 -0.15)">
       <use xlink:href="#DejaVuSans-Bold-38"/>
       <use x="69.580078" xlink:href="#DejaVuSans-Bold-30"/>
      </g>
     </g>
    </g>
    <g id="text_6">
     <!-- Time ($\mu s$) -->
     <defs>
      <path d="M -0.296875 72.90625 
L 61.375 72.90625 
L 61.375 64.59375 
L 35.5 64.59375 
L 35.5 0 
L 25.59375 0 
L 25.59375 64.59375 
L -0.296875 64.59375 
z
" id="DejaVuSans-54"/>
      <path d="M 9.421875 54.6875 
L 18.40625 54.6875 
L 18.40625 0 
L 9.421875 0 
z
M 9.421875 75.984375 
L 18.40625 75.984375 
L 18.40625 64.59375 
L 9.421875 64.59375 
z
" id="DejaVuSans-69"/>
      <path d="M 52 44.1875 
Q 55.375 50.25 60.0625 53.125 
Q 64.75 56 71.09375 56 
Q 79.640625 56 84.28125 50.015625 
Q 88.921875 44.046875 88.921875 33.015625 
L 88.921875 0 
L 79.890625 0 
L 79.890625 32.71875 
Q 79.890625 40.578125 77.09375 44.375 
Q 74.3125 48.1875 68.609375 48.1875 
Q 61.625 48.1875 57.5625 43.546875 
Q 53.515625 38.921875 53.515625 30.90625 
L 53.515625 0 
L 44.484375 0 
L 44.484375 32.71875 
Q 44.484375 40.625 41.703125 44.40625 
Q 38.921875 48.1875 33.109375 48.1875 
Q 26.21875 48.1875 22.15625 43.53125 
Q 18.109375 38.875 18.109375 30.90625 
L 18.109375 0 
L 9.078125 0 
L 9.078125 54.6875 
L 18.109375 54.6875 
L 18.109375 46.1875 
Q 21.1875 51.21875 25.484375 53.609375 
Q 29.78125 56 35.6875 56 
Q 41.65625 56 45.828125 52.96875 
Q 50 49.953125 52 44.1875 
" id="DejaVuSans-6d"/>
      <path d="M 56.203125 29.59375 
L 56.203125 25.203125 
L 14.890625 25.203125 
Q 15.484375 15.921875 20.484375 11.0625 
Q 25.484375 6.203125 34.421875 6.203125 
Q 39.59375 6.203125 44.453125 7.46875 
Q 49.3125 8.734375 54.109375 11.28125 
L 54.109375 2.78125 
Q 49.265625 0.734375 44.1875 -0.34375 
Q 39.109375 -1.421875 33.890625 -1.421875 
Q 20.796875 -1.421875 13.15625 6.1875 
Q 5.515625 13.8125 5.515625 26.8125 
Q 5.515625 40.234375 12.765625 48.109375 
Q 20.015625 56 32.328125 56 
Q 43.359375 56 49.78125 48.890625 
Q 56.203125 41.796875 56.203125 29.59375 
M 47.21875 32.234375 
Q 47.125 39.59375 43.09375 43.984375 
Q 39.0625 48.390625 32.421875 48.390625 
Q 24.90625 48.390625 20.390625 44.140625 
Q 15.875 39.890625 15.1875 32.171875 
z
" id="DejaVuSans-65"/>
      <path id="DejaVuSans-20"/>
      <path d="M 31 75.875 
Q 24.46875 64.65625 21.28125 53.65625 
Q 18.109375 42.671875 18.109375 31.390625 
Q 18.109375 20.125 21.3125 9.0625 
Q 24.515625 -2 31 -13.1875 
L 23.1875 -13.1875 
Q 15.875 -1.703125 12.234375 9.375 
Q 8.59375 20.453125 8.59375 31.390625 
Q 8.59375 42.28125 12.203125 53.3125 
Q 15.828125 64.359375 23.1875 75.875 
z
" id="DejaVuSans-28"/>
      <path d="M -2.6875 -20.90625 
L 12.015625 54.6875 
L 29.59375 54.6875 
L 23.390625 22.90625 
Q 23.1875 21.875 23.09375 20.890625 
Q 23 19.921875 23 19.09375 
Q 23 15.53125 25.09375 13.625 
Q 27.203125 11.71875 31.203125 11.71875 
Q 36.1875 11.71875 39.109375 14.453125 
Q 42.046875 17.1875 43.21875 22.90625 
L 49.421875 54.6875 
L 67 54.6875 
L 59.90625 18.109375 
Q 59.71875 17.09375 59.609375 16.234375 
Q 59.515625 15.375 59.515625 14.703125 
Q 59.515625 13.28125 60.171875 12.59375 
Q 60.84375 11.921875 62.203125 11.921875 
Q 63.03125 11.921875 63.984375 12.1875 
Q 64.9375 12.453125 65.921875 12.984375 
L 63.484375 0.78125 
Q 60.6875 -0.34375 58.296875 -0.875 
Q 55.90625 -1.421875 53.71875 -1.421875 
Q 49.421875 -1.421875 47 0.4375 
Q 44.578125 2.296875 43.609375 6.296875 
Q 40.578125 2.4375 36.890625 0.5 
Q 33.203125 -1.421875 28.90625 -1.421875 
Q 25.296875 -1.421875 23.015625 -0.265625 
Q 20.75 0.875 19.671875 3.21875 
L 14.984375 -20.90625 
z
" id="DejaVuSans-BoldOblique-3bc"/>
      <path d="M 56 52.984375 
L 53.421875 39.40625 
Q 48.296875 41.84375 43.21875 43.109375 
Q 38.140625 44.390625 33.59375 44.390625 
Q 28.421875 44.390625 25.609375 43.046875 
Q 22.796875 41.703125 22.796875 39.203125 
Q 22.796875 37.75 24.359375 36.859375 
Q 25.921875 35.984375 30.515625 35.015625 
L 33.6875 34.421875 
Q 44.28125 32.171875 48.53125 28.625 
Q 52.78125 25.09375 52.78125 18.796875 
Q 52.78125 9.28125 45.3125 3.921875 
Q 37.84375 -1.421875 24.421875 -1.421875 
Q 18.796875 -1.421875 12.9375 -0.53125 
Q 7.078125 0.34375 0.984375 2.09375 
L 3.609375 15.828125 
Q 8.34375 13.03125 13.734375 11.609375 
Q 19.140625 10.203125 24.8125 10.203125 
Q 30.328125 10.203125 33.109375 11.515625 
Q 35.890625 12.84375 35.890625 15.375 
Q 35.890625 17.140625 34.328125 18.109375 
Q 32.765625 19.09375 27.875 20.125 
L 24.703125 20.703125 
Q 15.328125 22.65625 11.328125 26.46875 
Q 7.328125 30.28125 7.328125 37.015625 
Q 7.328125 46.140625 14.234375 51.0625 
Q 21.140625 56 33.984375 56 
Q 39.59375 56 45.03125 55.25 
Q 50.484375 54.5 56 52.984375 
" id="DejaVuSans-BoldOblique-73"/>
      <path d="M 8.015625 75.875 
L 15.828125 75.875 
Q 23.140625 64.359375 26.78125 53.3125 
Q 30.421875 42.28125 30.421875 31.390625 
Q 30.421875 20.453125 26.78125 9.375 
Q 23.140625 -1.703125 15.828125 -13.1875 
L 8.015625 -13.1875 
Q 14.5 -2 17.703125 9.0625 
Q 20.90625 20.125 20.90625 31.390625 
Q 20.90625 42.671875 17.703125 53.65625 
Q 14.5 64.65625 8.015625 75.875 
" id="DejaVuSans-29"/>
     </defs>
     <g transform="translate(193.587344 338.265437)scale(0.2 -0.2)">
      <use transform="translate(0 0.015625)" xlink:href="#DejaVuSans-54"/>
      <use transform="translate(61.083984 0.015625)" xlink:href="#DejaVuSans-69"/>
      <use transform="translate(88.867188 0.015625)" xlink:href="#DejaVuSans-6d"/>
      <use transform="translate(186.279297 0.015625)" xlink:href="#DejaVuSans-65"/>
      <use transform="translate(247.802734 0.015625)" xlink:href="#DejaVuSans-20"/>
      <use transform="translate(279.589844 0.015625)" xlink:href="#DejaVuSans-28"/>
      <use transform="translate(318.603516 0.015625)" xlink:href="#DejaVuSans-BoldOblique-3bc"/>
      <use transform="translate(392.1875 0.015625)" xlink:href="#DejaVuSans-BoldOblique-73"/>
      <use transform="translate(451.708984 0.015625)" xlink:href="#DejaVuSans-29"/>
     </g>
    </g>
   </g>
   <g id="matplotlib.axis_2">
    <g id="ytick_1">
     <g id="line2d_11">
      <path clip-path="url(#pdcd0a52f3f)" d="M 64.127344 297.54825 
L 421.247344 297.54825 
" style="fill:none;stroke:#b0b0b0;stroke-linecap:square;stroke-width:0.8;"/>
     </g>
     <g id="line2d_12">
      <defs>
       <path d="M 0 0 
L -3.5 0 
" id="mc9a589d813" style="stroke:#000000;stroke-width:0.8;"/>
      </defs>
      <g>
       <use style="stroke:#000000;stroke-width:0.8;" x="64.127344" xlink:href="#mc9a589d813" y="297.54825"/>
      </g>
     </g>
     <g id="text_7">
      <!-- 0.0 -->
      <defs>
       <path d="M 10.203125 18.890625 
L 27.78125 18.890625 
L 27.78125 0 
L 10.203125 0 
z
" id="DejaVuSans-Bold-2e"/>
      </defs>
      <g transform="translate(30.55625 303.247078)scale(0.15 -0.15)">
       <use xlink:href="#DejaVuSans-Bold-30"/>
       <use x="69.580078" xlink:href="#DejaVuSans-Bold-2e"/>
       <use x="107.568359" xlink:href="#DejaVuSans-Bold-30"/>
      </g>
     </g>
    </g>
    <g id="ytick_2">
     <g id="line2d_13">
      <path clip-path="url(#pdcd0a52f3f)" d="M 64.127344 244.32585 
L 421.247344 244.32585 
" style="fill:none;stroke:#b0b0b0;stroke-linecap:square;stroke-width:0.8;"/>
     </g>
     <g id="line2d_14">
      <g>
       <use style="stroke:#000000;stroke-width:0.8;" x="64.127344" xlink:href="#mc9a589d813" y="244.32585"/>
      </g>
     </g>
     <g id="text_8">
      <!-- 0.2 -->
      <g transform="translate(30.55625 250.024678)scale(0.15 -0.15)">
       <use xlink:href="#DejaVuSans-Bold-30"/>
       <use x="69.580078" xlink:href="#DejaVuSans-Bold-2e"/>
       <use x="107.568359" xlink:href="#DejaVuSans-Bold-32"/>
      </g>
     </g>
    </g>
    <g id="ytick_3">
     <g id="line2d_15">
      <path clip-path="url(#pdcd0a52f3f)" d="M 64.127344 191.10345 
L 421.247344 191.10345 
" style="fill:none;stroke:#b0b0b0;stroke-linecap:square;stroke-width:0.8;"/>
     </g>
     <g id="line2d_16">
      <g>
       <use style="stroke:#000000;stroke-width:0.8;" x="64.127344" xlink:href="#mc9a589d813" y="191.10345"/>
      </g>
     </g>
     <g id="text_9">
      <!-- 0.4 -->
      <g transform="translate(30.55625 196.802278)scale(0.15 -0.15)">
       <use xlink:href="#DejaVuSans-Bold-30"/>
       <use x="69.580078" xlink:href="#DejaVuSans-Bold-2e"/>
       <use x="107.568359" xlink:href="#DejaVuSans-Bold-34"/>
      </g>
     </g>
    </g>
    <g id="ytick_4">
     <g id="line2d_17">
      <path clip-path="url(#pdcd0a52f3f)" d="M 64.127344 137.88105 
L 421.247344 137.88105 
" style="fill:none;stroke:#b0b0b0;stroke-linecap:square;stroke-width:0.8;"/>
     </g>
     <g id="line2d_18">
      <g>
       <use style="stroke:#000000;stroke-width:0.8;" x="64.127344" xlink:href="#mc9a589d813" y="137.88105"/>
      </g>
     </g>
     <g id="text_10">
      <!-- 0.6 -->
      <g transform="translate(30.55625 143.579878)scale(0.15 -0.15)">
       <use xlink:href="#DejaVuSans-Bold-30"/>
       <use x="69.580078" xlink:href="#DejaVuSans-Bold-2e"/>
       <use x="107.568359" xlink:href="#DejaVuSans-Bold-36"/>
      </g>
     </g>
    </g>
    <g id="ytick_5">
     <g id="line2d_19">
      <path clip-path="url(#pdcd0a52f3f)" d="M 64.127344 84.65865 
L 421.247344 84.65865 
" style="fill:none;stroke:#b0b0b0;stroke-linecap:square;stroke-width:0.8;"/>
     </g>
     <g id="line2d_20">
      <g>
       <use style="stroke:#000000;stroke-width:0.8;" x="64.127344" xlink:href="#mc9a589d813" y="84.65865"/>
      </g>
     </g>
     <g id="text_11">
      <!-- 0.8 -->
      <g transform="translate(30.55625 90.357478)scale(0.15 -0.15)">
       <use xlink:href="#DejaVuSans-Bold-30"/>
       <use x="69.580078" xlink:href="#DejaVuSans-Bold-2e"/>
       <use x="107.568359" xlink:href="#DejaVuSans-Bold-38"/>
      </g>
     </g>
    </g>
    <g id="ytick_6">
     <g id="line2d_21">
      <path clip-path="url(#pdcd0a52f3f)" d="M 64.127344 31.43625 
L 421.247344 31.43625 
" style="fill:none;stroke:#b0b0b0;stroke-linecap:square;stroke-width:0.8;"/>
     </g>
     <g id="line2d_22">
      <g>
       <use style="stroke:#000000;stroke-width:0.8;" x="64.127344" xlink:href="#mc9a589d813" y="31.43625"/>
      </g>
     </g>
     <g id="text_12">
      <!-- 1.0 -->
      <defs>
       <path d="M 11.71875 12.984375 
L 28.328125 12.984375 
L 28.328125 60.109375 
L 11.28125 56.59375 
L 11.28125 69.390625 
L 28.21875 72.90625 
L 46.09375 72.90625 
L 46.09375 12.984375 
L 62.703125 12.984375 
L 62.703125 0 
L 11.71875 0 
z
" id="DejaVuSans-Bold-31"/>
      </defs>
      <g transform="translate(30.55625 37.135078)scale(0.15 -0.15)">
       <use xlink:href="#DejaVuSans-Bold-31"/>
       <use x="69.580078" xlink:href="#DejaVuSans-Bold-2e"/>
       <use x="107.568359" xlink:href="#DejaVuSans-Bold-30"/>
      </g>
     </g>
    </g>
    <g id="text_13">
     <!-- Normalized survival -->
     <defs>
      <path d="M 9.8125 72.90625 
L 23.09375 72.90625 
L 55.421875 11.921875 
L 55.421875 72.90625 
L 64.984375 72.90625 
L 64.984375 0 
L 51.703125 0 
L 19.390625 60.984375 
L 19.390625 0 
L 9.8125 0 
z
" id="DejaVuSans-4e"/>
      <path d="M 30.609375 48.390625 
Q 23.390625 48.390625 19.1875 42.75 
Q 14.984375 37.109375 14.984375 27.296875 
Q 14.984375 17.484375 19.15625 11.84375 
Q 23.34375 6.203125 30.609375 6.203125 
Q 37.796875 6.203125 41.984375 11.859375 
Q 46.1875 17.53125 46.1875 27.296875 
Q 46.1875 37.015625 41.984375 42.703125 
Q 37.796875 48.390625 30.609375 48.390625 
M 30.609375 56 
Q 42.328125 56 49.015625 48.375 
Q 55.71875 40.765625 55.71875 27.296875 
Q 55.71875 13.875 49.015625 6.21875 
Q 42.328125 -1.421875 30.609375 -1.421875 
Q 18.84375 -1.421875 12.171875 6.21875 
Q 5.515625 13.875 5.515625 27.296875 
Q 5.515625 40.765625 12.171875 48.375 
Q 18.84375 56 30.609375 56 
" id="DejaVuSans-6f"/>
      <path d="M 41.109375 46.296875 
Q 39.59375 47.171875 37.8125 47.578125 
Q 36.03125 48 33.890625 48 
Q 26.265625 48 22.1875 43.046875 
Q 18.109375 38.09375 18.109375 28.8125 
L 18.109375 0 
L 9.078125 0 
L 9.078125 54.6875 
L 18.109375 54.6875 
L 18.109375 46.1875 
Q 20.953125 51.171875 25.484375 53.578125 
Q 30.03125 56 36.53125 56 
Q 37.453125 56 38.578125 55.875 
Q 39.703125 55.765625 41.0625 55.515625 
z
" id="DejaVuSans-72"/>
      <path d="M 34.28125 27.484375 
Q 23.390625 27.484375 19.1875 25 
Q 14.984375 22.515625 14.984375 16.5 
Q 14.984375 11.71875 18.140625 8.90625 
Q 21.296875 6.109375 26.703125 6.109375 
Q 34.1875 6.109375 38.703125 11.40625 
Q 43.21875 16.703125 43.21875 25.484375 
L 43.21875 27.484375 
z
M 52.203125 31.203125 
L 52.203125 0 
L 43.21875 0 
L 43.21875 8.296875 
Q 40.140625 3.328125 35.546875 0.953125 
Q 30.953125 -1.421875 24.3125 -1.421875 
Q 15.921875 -1.421875 10.953125 3.296875 
Q 6 8.015625 6 15.921875 
Q 6 25.140625 12.171875 29.828125 
Q 18.359375 34.515625 30.609375 34.515625 
L 43.21875 34.515625 
L 43.21875 35.40625 
Q 43.21875 41.609375 39.140625 45 
Q 35.0625 48.390625 27.6875 48.390625 
Q 23 48.390625 18.546875 47.265625 
Q 14.109375 46.140625 10.015625 43.890625 
L 10.015625 52.203125 
Q 14.9375 54.109375 19.578125 55.046875 
Q 24.21875 56 28.609375 56 
Q 40.484375 56 46.34375 49.84375 
Q 52.203125 43.703125 52.203125 31.203125 
" id="DejaVuSans-61"/>
      <path d="M 9.421875 75.984375 
L 18.40625 75.984375 
L 18.40625 0 
L 9.421875 0 
z
" id="DejaVuSans-6c"/>
      <path d="M 5.515625 54.6875 
L 48.1875 54.6875 
L 48.1875 46.484375 
L 14.40625 7.171875 
L 48.1875 7.171875 
L 48.1875 0 
L 4.296875 0 
L 4.296875 8.203125 
L 38.09375 47.515625 
L 5.515625 47.515625 
z
" id="DejaVuSans-7a"/>
      <path d="M 45.40625 46.390625 
L 45.40625 75.984375 
L 54.390625 75.984375 
L 54.390625 0 
L 45.40625 0 
L 45.40625 8.203125 
Q 42.578125 3.328125 38.25 0.953125 
Q 33.9375 -1.421875 27.875 -1.421875 
Q 17.96875 -1.421875 11.734375 6.484375 
Q 5.515625 14.40625 5.515625 27.296875 
Q 5.515625 40.1875 11.734375 48.09375 
Q 17.96875 56 27.875 56 
Q 33.9375 56 38.25 53.625 
Q 42.578125 51.265625 45.40625 46.390625 
M 14.796875 27.296875 
Q 14.796875 17.390625 18.875 11.75 
Q 22.953125 6.109375 30.078125 6.109375 
Q 37.203125 6.109375 41.296875 11.75 
Q 45.40625 17.390625 45.40625 27.296875 
Q 45.40625 37.203125 41.296875 42.84375 
Q 37.203125 48.484375 30.078125 48.484375 
Q 22.953125 48.484375 18.875 42.84375 
Q 14.796875 37.203125 14.796875 27.296875 
" id="DejaVuSans-64"/>
      <path d="M 44.28125 53.078125 
L 44.28125 44.578125 
Q 40.484375 46.53125 36.375 47.5 
Q 32.28125 48.484375 27.875 48.484375 
Q 21.1875 48.484375 17.84375 46.4375 
Q 14.5 44.390625 14.5 40.28125 
Q 14.5 37.15625 16.890625 35.375 
Q 19.28125 33.59375 26.515625 31.984375 
L 29.59375 31.296875 
Q 39.15625 29.25 43.1875 25.515625 
Q 47.21875 21.78125 47.21875 15.09375 
Q 47.21875 7.46875 41.1875 3.015625 
Q 35.15625 -1.421875 24.609375 -1.421875 
Q 20.21875 -1.421875 15.453125 -0.5625 
Q 10.6875 0.296875 5.421875 2 
L 5.421875 11.28125 
Q 10.40625 8.6875 15.234375 7.390625 
Q 20.0625 6.109375 24.8125 6.109375 
Q 31.15625 6.109375 34.5625 8.28125 
Q 37.984375 10.453125 37.984375 14.40625 
Q 37.984375 18.0625 35.515625 20.015625 
Q 33.0625 21.96875 24.703125 23.78125 
L 21.578125 24.515625 
Q 13.234375 26.265625 9.515625 29.90625 
Q 5.8125 33.546875 5.8125 39.890625 
Q 5.8125 47.609375 11.28125 51.796875 
Q 16.75 56 26.8125 56 
Q 31.78125 56 36.171875 55.265625 
Q 40.578125 54.546875 44.28125 53.078125 
" id="DejaVuSans-73"/>
      <path d="M 8.5 21.578125 
L 8.5 54.6875 
L 17.484375 54.6875 
L 17.484375 21.921875 
Q 17.484375 14.15625 20.5 10.265625 
Q 23.53125 6.390625 29.59375 6.390625 
Q 36.859375 6.390625 41.078125 11.03125 
Q 45.3125 15.671875 45.3125 23.6875 
L 45.3125 54.6875 
L 54.296875 54.6875 
L 54.296875 0 
L 45.3125 0 
L 45.3125 8.40625 
Q 42.046875 3.421875 37.71875 1 
Q 33.40625 -1.421875 27.6875 -1.421875 
Q 18.265625 -1.421875 13.375 4.4375 
Q 8.5 10.296875 8.5 21.578125 
M 31.109375 56 
z
" id="DejaVuSans-75"/>
      <path d="M 2.984375 54.6875 
L 12.5 54.6875 
L 29.59375 8.796875 
L 46.6875 54.6875 
L 56.203125 54.6875 
L 35.6875 0 
L 23.484375 0 
z
" id="DejaVuSans-76"/>
     </defs>
     <g transform="translate(22.396875 263.734437)rotate(-90)scale(0.2 -0.2)">
      <use xlink:href="#DejaVuSans-4e"/>
      <use x="74.804688" xlink:href="#DejaVuSans-6f"/>
      <use x="135.986328" xlink:href="#DejaVuSans-72"/>
      <use x="177.083984" xlink:href="#DejaVuSans-6d"/>
      <use x="274.496094" xlink:href="#DejaVuSans-61"/>
      <use x="335.775391" xlink:href="#DejaVuSans-6c"/>
      <use x="363.558594" xlink:href="#DejaVuSans-69"/>
      <use x="391.341797" xlink:href="#DejaVuSans-7a"/>
      <use x="443.832031" xlink:href="#DejaVuSans-65"/>
      <use x="505.355469" xlink:href="#DejaVuSans-64"/>
      <use x="568.832031" xlink:href="#DejaVuSans-20"/>
      <use x="600.619141" xlink:href="#DejaVuSans-73"/>
      <use x="652.71875" xlink:href="#DejaVuSans-75"/>
      <use x="716.097656" xlink:href="#DejaVuSans-72"/>
      <use x="757.210938" xlink:href="#DejaVuSans-76"/>
      <use x="816.390625" xlink:href="#DejaVuSans-69"/>
      <use x="844.173828" xlink:href="#DejaVuSans-76"/>
      <use x="903.353516" xlink:href="#DejaVuSans-61"/>
      <use x="964.632812" xlink:href="#DejaVuSans-6c"/>
     </g>
    </g>
   </g>
   <g id="LineCollection_1">
    <path clip-path="url(#pdcd0a52f3f)" d="M 64.127344 297.54825 
L 64.127344 296.150603 
" style="fill:none;stroke:#0000ff;stroke-width:1.5;"/>
    <path clip-path="url(#pdcd0a52f3f)" d="M 73.055344 243.017073 
L 73.055344 226.580361 
" style="fill:none;stroke:#0000ff;stroke-width:1.5;"/>
    <path clip-path="url(#pdcd0a52f3f)" d="M 81.983344 127.442552 
L 81.983344 107.423576 
" style="fill:none;stroke:#0000ff;stroke-width:1.5;"/>
    <path clip-path="url(#pdcd0a52f3f)" d="M 90.911344 71.001827 
L 90.911344 53.112134 
" style="fill:none;stroke:#0000ff;stroke-width:1.5;"/>
    <path clip-path="url(#pdcd0a52f3f)" d="M 99.839344 91.004958 
L 99.839344 72.311778 
" style="fill:none;stroke:#0000ff;stroke-width:1.5;"/>
    <path clip-path="url(#pdcd0a52f3f)" d="M 108.767344 222.573313 
L 108.767344 203.72349 
" style="fill:none;stroke:#0000ff;stroke-width:1.5;"/>
    <path clip-path="url(#pdcd0a52f3f)" d="M 117.695344 281.512007 
L 117.695344 271.586903 
" style="fill:none;stroke:#0000ff;stroke-width:1.5;"/>
    <path clip-path="url(#pdcd0a52f3f)" d="M 126.623344 244.305614 
L 126.623344 228.396114 
" style="fill:none;stroke:#0000ff;stroke-width:1.5;"/>
    <path clip-path="url(#pdcd0a52f3f)" d="M 135.551344 137.644993 
L 135.551344 117.035951 
" style="fill:none;stroke:#0000ff;stroke-width:1.5;"/>
    <path clip-path="url(#pdcd0a52f3f)" d="M 144.479344 61.650823 
L 144.479344 44.442366 
" style="fill:none;stroke:#0000ff;stroke-width:1.5;"/>
    <path clip-path="url(#pdcd0a52f3f)" d="M 153.407344 84.654569 
L 153.407344 65.767533 
" style="fill:none;stroke:#0000ff;stroke-width:1.5;"/>
    <path clip-path="url(#pdcd0a52f3f)" d="M 162.335344 209.478574 
L 162.335344 190.610628 
" style="fill:none;stroke:#0000ff;stroke-width:1.5;"/>
    <path clip-path="url(#pdcd0a52f3f)" d="M 171.263344 270.763354 
L 171.263344 258.748696 
" style="fill:none;stroke:#0000ff;stroke-width:1.5;"/>
    <path clip-path="url(#pdcd0a52f3f)" d="M 180.191344 263.491529 
L 180.191344 250.206006 
" style="fill:none;stroke:#0000ff;stroke-width:1.5;"/>
    <path clip-path="url(#pdcd0a52f3f)" d="M 189.119344 163.7575 
L 189.119344 143.823033 
" style="fill:none;stroke:#0000ff;stroke-width:1.5;"/>
    <path clip-path="url(#pdcd0a52f3f)" d="M 198.047344 81.127818 
L 198.047344 62.65574 
" style="fill:none;stroke:#0000ff;stroke-width:1.5;"/>
    <path clip-path="url(#pdcd0a52f3f)" d="M 206.975344 103.264242 
L 206.975344 83.7671 
" style="fill:none;stroke:#0000ff;stroke-width:1.5;"/>
    <path clip-path="url(#pdcd0a52f3f)" d="M 215.903344 196.055725 
L 215.903344 176.38114 
" style="fill:none;stroke:#0000ff;stroke-width:1.5;"/>
    <path clip-path="url(#pdcd0a52f3f)" d="M 224.831344 279.170186 
L 224.831344 268.28478 
" style="fill:none;stroke:#0000ff;stroke-width:1.5;"/>
    <path clip-path="url(#pdcd0a52f3f)" d="M 233.759344 265.274233 
L 233.759344 251.884277 
" style="fill:none;stroke:#0000ff;stroke-width:1.5;"/>
    <path clip-path="url(#pdcd0a52f3f)" d="M 242.687344 162.621191 
L 242.687344 142.592956 
" style="fill:none;stroke:#0000ff;stroke-width:1.5;"/>
    <path clip-path="url(#pdcd0a52f3f)" d="M 251.615344 73.308311 
L 251.615344 55.96595 
" style="fill:none;stroke:#0000ff;stroke-width:1.5;"/>
    <path clip-path="url(#pdcd0a52f3f)" d="M 260.543344 65.216985 
L 260.543344 48.874728 
" style="fill:none;stroke:#0000ff;stroke-width:1.5;"/>
    <path clip-path="url(#pdcd0a52f3f)" d="M 269.471344 177.957526 
L 269.471344 158.177405 
" style="fill:none;stroke:#0000ff;stroke-width:1.5;"/>
    <path clip-path="url(#pdcd0a52f3f)" d="M 278.399344 272.262011 
L 278.399344 259.333846 
" style="fill:none;stroke:#0000ff;stroke-width:1.5;"/>
    <path clip-path="url(#pdcd0a52f3f)" d="M 287.327344 266.49563 
L 287.327344 253.304846 
" style="fill:none;stroke:#0000ff;stroke-width:1.5;"/>
    <path clip-path="url(#pdcd0a52f3f)" d="M 296.255344 187.26523 
L 296.255344 167.316007 
" style="fill:none;stroke:#0000ff;stroke-width:1.5;"/>
    <path clip-path="url(#pdcd0a52f3f)" d="M 305.183344 93.257411 
L 305.183344 75.032618 
" style="fill:none;stroke:#0000ff;stroke-width:1.5;"/>
    <path clip-path="url(#pdcd0a52f3f)" d="M 314.111344 71.034861 
L 314.111344 53.818476 
" style="fill:none;stroke:#0000ff;stroke-width:1.5;"/>
    <path clip-path="url(#pdcd0a52f3f)" d="M 323.039344 179.23097 
L 323.039344 159.480693 
" style="fill:none;stroke:#0000ff;stroke-width:1.5;"/>
    <path clip-path="url(#pdcd0a52f3f)" d="M 331.967344 260.968435 
L 331.967344 246.79012 
" style="fill:none;stroke:#0000ff;stroke-width:1.5;"/>
    <path clip-path="url(#pdcd0a52f3f)" d="M 340.895344 282.640015 
L 340.895344 273.004204 
" style="fill:none;stroke:#0000ff;stroke-width:1.5;"/>
    <path clip-path="url(#pdcd0a52f3f)" d="M 349.823344 207.191117 
L 349.823344 187.365573 
" style="fill:none;stroke:#0000ff;stroke-width:1.5;"/>
    <path clip-path="url(#pdcd0a52f3f)" d="M 358.751344 89.614793 
L 358.751344 69.837756 
" style="fill:none;stroke:#0000ff;stroke-width:1.5;"/>
    <path clip-path="url(#pdcd0a52f3f)" d="M 367.679344 77.92956 
L 367.679344 59.702599 
" style="fill:none;stroke:#0000ff;stroke-width:1.5;"/>
    <path clip-path="url(#pdcd0a52f3f)" d="M 376.607344 147.15702 
L 376.607344 127.322613 
" style="fill:none;stroke:#0000ff;stroke-width:1.5;"/>
    <path clip-path="url(#pdcd0a52f3f)" d="M 385.535344 247.476799 
L 385.535344 231.413587 
" style="fill:none;stroke:#0000ff;stroke-width:1.5;"/>
    <path clip-path="url(#pdcd0a52f3f)" d="M 394.463344 272.811769 
L 394.463344 260.494019 
" style="fill:none;stroke:#0000ff;stroke-width:1.5;"/>
    <path clip-path="url(#pdcd0a52f3f)" d="M 403.391344 216.049488 
L 403.391344 197.7256 
" style="fill:none;stroke:#0000ff;stroke-width:1.5;"/>
    <path clip-path="url(#pdcd0a52f3f)" d="M 412.319344 125.949127 
L 412.319344 105.877082 
" style="fill:none;stroke:#0000ff;stroke-width:1.5;"/>
    <path clip-path="url(#pdcd0a52f3f)" d="M 421.247344 72.987427 
L 421.247344 55.175498 
" style="fill:none;stroke:#0000ff;stroke-width:1.5;"/>
   </g>
   <g id="line2d_23">
    <path clip-path="url(#pdcd0a52f3f)" d="M 64.127344 297.030522 
L 65.912944 294.89856 
L 67.698544 286.051461 
L 69.484144 273.365 
L 71.269744 256.963981 
L 73.055344 236.042894 
L 76.626544 186.897912 
L 81.983344 108.679384 
L 83.768944 86.634943 
L 85.554544 66.420702 
L 87.340144 51.453119 
L 89.125744 41.584711 
L 90.911344 35.419963 
L 92.696944 35.755617 
L 94.482544 39.287092 
L 96.268144 50.008058 
L 98.053744 64.233228 
L 99.839344 82.551665 
L 101.624944 103.618427 
L 103.410544 127.140198 
L 108.767344 203.899331 
L 110.552944 226.926282 
L 112.338544 248.317284 
L 114.124144 264.591474 
L 115.909744 277.821813 
L 117.695344 285.134415 
L 119.480944 288.430079 
L 121.266544 286.335739 
L 123.052144 280.538575 
L 124.837744 267.880829 
L 126.623344 252.687896 
L 128.408944 233.643624 
L 130.194544 211.691489 
L 137.336944 116.710288 
L 139.122544 96.294481 
L 140.908144 78.208803 
L 142.693744 64.010988 
L 144.479344 53.423995 
L 146.264944 49.200338 
L 148.050544 49.758364 
L 149.836144 54.243343 
L 151.621744 63.250808 
L 153.407344 76.363223 
L 155.192944 93.570233 
L 156.978544 113.418441 
L 164.120944 204.20698 
L 165.906544 223.901673 
L 167.692144 241.785553 
L 169.477744 257.112129 
L 171.263344 267.441075 
L 173.048944 273.190883 
L 174.834544 275.58646 
L 176.620144 271.922695 
L 178.405744 263.905279 
L 180.191344 252.387773 
L 181.976944 236.804967 
L 183.762544 218.473878 
L 192.690544 111.088321 
L 194.476144 93.24948 
L 196.261744 78.901853 
L 198.047344 67.920575 
L 199.832944 60.578963 
L 201.618544 58.768139 
L 203.404144 60.578963 
L 205.189744 66.810224 
L 206.975344 77.744323 
L 208.760944 92.816152 
L 210.546544 109.9705 
L 219.474544 216.046484 
L 221.260144 234.119702 
L 223.045744 248.852151 
L 224.831344 261.180416 
L 226.616944 269.090355 
L 228.402544 272.945821 
L 230.188144 272.093899 
L 231.973744 265.489875 
L 233.759344 255.525726 
L 235.544944 242.823159 
L 237.330544 225.071376 
L 239.116144 205.643493 
L 240.901744 184.612118 
L 242.687344 159.490801 
L 248.044144 99.373972 
L 249.829744 82.647406 
L 251.615344 69.969529 
L 253.400944 60.838827 
L 255.186544 55.696497 
L 256.972144 55.116203 
L 258.757744 59.775406 
L 260.543344 68.447391 
L 262.328944 81.118164 
L 264.114544 98.465728 
L 267.685744 137.18584 
L 269.471344 161.445927 
L 273.042544 205.478869 
L 276.613744 244.784951 
L 278.399344 258.238651 
L 280.184944 269.211994 
L 281.970544 275.070218 
L 283.756144 277.653669 
L 285.541744 275.65752 
L 287.327344 268.502987 
L 289.112944 256.021885 
L 290.898544 241.343258 
L 292.684144 223.09356 
L 294.469744 202.310913 
L 301.612144 112.553382 
L 303.397744 94.706341 
L 305.183344 78.135601 
L 306.968944 65.199717 
L 308.754544 57.356093 
L 310.540144 53.285668 
L 312.325744 53.479432 
L 314.111344 58.698842 
L 315.896944 68.124044 
L 317.682544 81.604679 
L 319.468144 98.259428 
L 321.253744 118.31028 
L 323.039344 139.967503 
L 324.824944 163.143043 
L 330.181744 226.942609 
L 331.967344 243.887034 
L 333.752944 258.280906 
L 335.538544 268.448848 
L 337.324144 274.500491 
L 339.109744 276.915326 
L 340.895344 274.015923 
L 342.680944 265.713508 
L 344.466544 254.760704 
L 346.252144 239.779084 
L 348.037744 221.305013 
L 356.965744 114.206135 
L 358.751344 96.954757 
L 360.536944 81.083282 
L 362.322544 70.737398 
L 364.108144 62.542856 
L 365.893744 56.963974 
L 367.679344 59.916261 
L 369.464944 64.973349 
L 371.250544 76.25108 
L 373.036144 90.258904 
L 374.821744 106.276149 
L 378.392944 145.192514 
L 381.964144 190.034456 
L 385.535344 228.508638 
L 387.320944 243.13928 
L 389.106544 256.207217 
L 390.892144 265.181404 
L 392.677744 268.777167 
L 394.463344 269.035065 
L 396.248944 263.594056 
L 398.034544 256.086349 
L 399.820144 243.558086 
L 401.605744 227.86744 
L 403.391344 210.267922 
L 405.176944 188.663516 
L 406.962544 168.709826 
L 408.748144 147.167532 
L 410.533744 127.015461 
L 412.319344 108.25691 
L 414.104944 92.64219 
L 415.890544 80.13125 
L 417.676144 70.267148 
L 419.461744 65.790505 
L 421.247344 63.210441 
L 421.247344 63.210441 
" style="fill:none;stroke:#ff0000;stroke-linecap:square;stroke-width:1.5;"/>
   </g>
   <g id="line2d_24">
    <defs>
     <path d="M 0 3 
C 0.795609 3 1.55874 2.683901 2.12132 2.12132 
C 2.683901 1.55874 3 0.795609 3 0 
C 3 -0.795609 2.683901 -1.55874 2.12132 -2.12132 
C 1.55874 -2.683901 0.795609 -3 0 -3 
C -0.795609 -3 -1.55874 -2.683901 -2.12132 -2.12132 
C -2.683901 -1.55874 -3 -0.795609 -3 0 
C -3 0.795609 -2.683901 1.55874 -2.12132 2.12132 
C -1.55874 2.683901 -0.795609 3 0 3 
z
" id="m91cdadfdf8" style="stroke:#0000ff;"/>
    </defs>
    <g clip-path="url(#pdcd0a52f3f)">
     <use style="fill:#0000ff;stroke:#0000ff;" x="64.127344" xlink:href="#m91cdadfdf8" y="296.849426"/>
     <use style="fill:#0000ff;stroke:#0000ff;" x="73.055344" xlink:href="#m91cdadfdf8" y="234.798717"/>
     <use style="fill:#0000ff;stroke:#0000ff;" x="81.983344" xlink:href="#m91cdadfdf8" y="117.433064"/>
     <use style="fill:#0000ff;stroke:#0000ff;" x="90.911344" xlink:href="#m91cdadfdf8" y="62.056981"/>
     <use style="fill:#0000ff;stroke:#0000ff;" x="99.839344" xlink:href="#m91cdadfdf8" y="81.658368"/>
     <use style="fill:#0000ff;stroke:#0000ff;" x="108.767344" xlink:href="#m91cdadfdf8" y="213.148402"/>
     <use style="fill:#0000ff;stroke:#0000ff;" x="117.695344" xlink:href="#m91cdadfdf8" y="276.549455"/>
     <use style="fill:#0000ff;stroke:#0000ff;" x="126.623344" xlink:href="#m91cdadfdf8" y="236.350864"/>
     <use style="fill:#0000ff;stroke:#0000ff;" x="135.551344" xlink:href="#m91cdadfdf8" y="127.340472"/>
     <use style="fill:#0000ff;stroke:#0000ff;" x="144.479344" xlink:href="#m91cdadfdf8" y="53.046595"/>
     <use style="fill:#0000ff;stroke:#0000ff;" x="153.407344" xlink:href="#m91cdadfdf8" y="75.211051"/>
     <use style="fill:#0000ff;stroke:#0000ff;" x="162.335344" xlink:href="#m91cdadfdf8" y="200.044601"/>
     <use style="fill:#0000ff;stroke:#0000ff;" x="171.263344" xlink:href="#m91cdadfdf8" y="264.756025"/>
     <use style="fill:#0000ff;stroke:#0000ff;" x="180.191344" xlink:href="#m91cdadfdf8" y="256.848768"/>
     <use style="fill:#0000ff;stroke:#0000ff;" x="189.119344" xlink:href="#m91cdadfdf8" y="153.790267"/>
     <use style="fill:#0000ff;stroke:#0000ff;" x="198.047344" xlink:href="#m91cdadfdf8" y="71.891779"/>
     <use style="fill:#0000ff;stroke:#0000ff;" x="206.975344" xlink:href="#m91cdadfdf8" y="93.515671"/>
     <use style="fill:#0000ff;stroke:#0000ff;" x="215.903344" xlink:href="#m91cdadfdf8" y="186.218433"/>
     <use style="fill:#0000ff;stroke:#0000ff;" x="224.831344" xlink:href="#m91cdadfdf8" y="273.727483"/>
     <use style="fill:#0000ff;stroke:#0000ff;" x="233.759344" xlink:href="#m91cdadfdf8" y="258.579255"/>
     <use style="fill:#0000ff;stroke:#0000ff;" x="242.687344" xlink:href="#m91cdadfdf8" y="152.607074"/>
     <use style="fill:#0000ff;stroke:#0000ff;" x="251.615344" xlink:href="#m91cdadfdf8" y="64.63713"/>
     <use style="fill:#0000ff;stroke:#0000ff;" x="260.543344" xlink:href="#m91cdadfdf8" y="57.045856"/>
     <use style="fill:#0000ff;stroke:#0000ff;" x="269.471344" xlink:href="#m91cdadfdf8" y="168.067466"/>
     <use style="fill:#0000ff;stroke:#0000ff;" x="278.399344" xlink:href="#m91cdadfdf8" y="265.797928"/>
     <use style="fill:#0000ff;stroke:#0000ff;" x="287.327344" xlink:href="#m91cdadfdf8" y="259.900238"/>
     <use style="fill:#0000ff;stroke:#0000ff;" x="296.255344" xlink:href="#m91cdadfdf8" y="177.290618"/>
     <use style="fill:#0000ff;stroke:#0000ff;" x="305.183344" xlink:href="#m91cdadfdf8" y="84.145015"/>
     <use style="fill:#0000ff;stroke:#0000ff;" x="314.111344" xlink:href="#m91cdadfdf8" y="62.426669"/>
     <use style="fill:#0000ff;stroke:#0000ff;" x="323.039344" xlink:href="#m91cdadfdf8" y="169.355832"/>
     <use style="fill:#0000ff;stroke:#0000ff;" x="331.967344" xlink:href="#m91cdadfdf8" y="253.879278"/>
     <use style="fill:#0000ff;stroke:#0000ff;" x="340.895344" xlink:href="#m91cdadfdf8" y="277.822109"/>
     <use style="fill:#0000ff;stroke:#0000ff;" x="349.823344" xlink:href="#m91cdadfdf8" y="197.278345"/>
     <use style="fill:#0000ff;stroke:#0000ff;" x="358.751344" xlink:href="#m91cdadfdf8" y="79.726274"/>
     <use style="fill:#0000ff;stroke:#0000ff;" x="367.679344" xlink:href="#m91cdadfdf8" y="68.81608"/>
     <use style="fill:#0000ff;stroke:#0000ff;" x="376.607344" xlink:href="#m91cdadfdf8" y="137.239816"/>
     <use style="fill:#0000ff;stroke:#0000ff;" x="385.535344" xlink:href="#m91cdadfdf8" y="239.445193"/>
     <use style="fill:#0000ff;stroke:#0000ff;" x="394.463344" xlink:href="#m91cdadfdf8" y="266.652894"/>
     <use style="fill:#0000ff;stroke:#0000ff;" x="403.391344" xlink:href="#m91cdadfdf8" y="206.887544"/>
     <use style="fill:#0000ff;stroke:#0000ff;" x="412.319344" xlink:href="#m91cdadfdf8" y="115.913105"/>
     <use style="fill:#0000ff;stroke:#0000ff;" x="421.247344" xlink:href="#m91cdadfdf8" y="64.081463"/>
    </g>
   </g>
   <g id="patch_3">
    <path d="M 64.127344 297.54825 
L 64.127344 31.43625 
" style="fill:none;stroke:#000000;stroke-linecap:square;stroke-linejoin:miter;stroke-width:0.8;"/>
   </g>
   <g id="patch_4">
    <path d="M 421.247344 297.54825 
L 421.247344 31.43625 
" style="fill:none;stroke:#000000;stroke-linecap:square;stroke-linejoin:miter;stroke-width:0.8;"/>
   </g>
   <g id="patch_5">
    <path d="M 64.127344 297.54825 
L 421.247344 297.54825 
" style="fill:none;stroke:#000000;stroke-linecap:square;stroke-linejoin:miter;stroke-width:0.8;"/>
   </g>
   <g id="patch_6">
    <path d="M 64.127344 31.43625 
L 421.247344 31.43625 
" style="fill:none;stroke:#000000;stroke-linecap:square;stroke-linejoin:miter;stroke-width:0.8;"/>
   </g>
   <g id="text_14">
    <!-- Radial 2 carrier -->
    <defs>
     <path d="M 44.390625 34.1875 
Q 47.5625 33.109375 50.5625 29.59375 
Q 53.5625 26.078125 56.59375 19.921875 
L 66.609375 0 
L 56 0 
L 46.6875 18.703125 
Q 43.0625 26.03125 39.671875 28.421875 
Q 36.28125 30.8125 30.421875 30.8125 
L 19.671875 30.8125 
L 19.671875 0 
L 9.8125 0 
L 9.8125 72.90625 
L 32.078125 72.90625 
Q 44.578125 72.90625 50.734375 67.671875 
Q 56.890625 62.453125 56.890625 51.90625 
Q 56.890625 45.015625 53.6875 40.46875 
Q 50.484375 35.9375 44.390625 34.1875 
M 19.671875 64.796875 
L 19.671875 38.921875 
L 32.078125 38.921875 
Q 39.203125 38.921875 42.84375 42.21875 
Q 46.484375 45.515625 46.484375 51.90625 
Q 46.484375 58.296875 42.84375 61.546875 
Q 39.203125 64.796875 32.078125 64.796875 
z
" id="DejaVuSans-52"/>
     <path d="M 19.1875 8.296875 
L 53.609375 8.296875 
L 53.609375 0 
L 7.328125 0 
L 7.328125 8.296875 
Q 12.9375 14.109375 22.625 23.890625 
Q 32.328125 33.6875 34.8125 36.53125 
Q 39.546875 41.84375 41.421875 45.53125 
Q 43.3125 49.21875 43.3125 52.78125 
Q 43.3125 58.59375 39.234375 62.25 
Q 35.15625 65.921875 28.609375 65.921875 
Q 23.96875 65.921875 18.8125 64.3125 
Q 13.671875 62.703125 7.8125 59.421875 
L 7.8125 69.390625 
Q 13.765625 71.78125 18.9375 73 
Q 24.125 74.21875 28.421875 74.21875 
Q 39.75 74.21875 46.484375 68.546875 
Q 53.21875 62.890625 53.21875 53.421875 
Q 53.21875 48.921875 51.53125 44.890625 
Q 49.859375 40.875 45.40625 35.40625 
Q 44.1875 33.984375 37.640625 27.21875 
Q 31.109375 20.453125 19.1875 8.296875 
" id="DejaVuSans-32"/>
     <path d="M 48.78125 52.59375 
L 48.78125 44.1875 
Q 44.96875 46.296875 41.140625 47.34375 
Q 37.3125 48.390625 33.40625 48.390625 
Q 24.65625 48.390625 19.8125 42.84375 
Q 14.984375 37.3125 14.984375 27.296875 
Q 14.984375 17.28125 19.8125 11.734375 
Q 24.65625 6.203125 33.40625 6.203125 
Q 37.3125 6.203125 41.140625 7.25 
Q 44.96875 8.296875 48.78125 10.40625 
L 48.78125 2.09375 
Q 45.015625 0.34375 40.984375 -0.53125 
Q 36.96875 -1.421875 32.421875 -1.421875 
Q 20.0625 -1.421875 12.78125 6.34375 
Q 5.515625 14.109375 5.515625 27.296875 
Q 5.515625 40.671875 12.859375 48.328125 
Q 20.21875 56 33.015625 56 
Q 37.15625 56 41.109375 55.140625 
Q 45.0625 54.296875 48.78125 52.59375 
" id="DejaVuSans-63"/>
    </defs>
    <g transform="translate(150.630469 25.43625)scale(0.24 -0.24)">
     <use xlink:href="#DejaVuSans-52"/>
     <use x="69.451172" xlink:href="#DejaVuSans-61"/>
     <use x="130.730469" xlink:href="#DejaVuSans-64"/>
     <use x="194.207031" xlink:href="#DejaVuSans-69"/>
     <use x="221.990234" xlink:href="#DejaVuSans-61"/>
     <use x="283.269531" xlink:href="#DejaVuSans-6c"/>
     <use x="311.052734" xlink:href="#DejaVuSans-20"/>
     <use x="342.839844" xlink:href="#DejaVuSans-32"/>
     <use x="406.462891" xlink:href="#DejaVuSans-20"/>
     <use x="438.25" xlink:href="#DejaVuSans-63"/>
     <use x="493.230469" xlink:href="#DejaVuSans-61"/>
     <use x="554.509766" xlink:href="#DejaVuSans-72"/>
     <use x="595.607422" xlink:href="#DejaVuSans-72"/>
     <use x="636.720703" xlink:href="#DejaVuSans-69"/>
     <use x="664.503906" xlink:href="#DejaVuSans-65"/>
     <use x="726.027344" xlink:href="#DejaVuSans-72"/>
    </g>
   </g>
  </g>
 </g>
 <defs>
  <clipPath id="pdcd0a52f3f">
   <rect height="266.112" width="357.12" x="64.127344" y="31.43625"/>
  </clipPath>
 </defs>
</svg>
