<?xml version="1.0" encoding="utf-8" standalone="no"?>
<!DOCTYPE svg PUBLIC "-//W3C//DTD SVG 1.1//EN"
  "http://www.w3.org/Graphics/SVG/1.1/DTD/svg11.dtd">
<!-- Created with matplotlib (http://matplotlib.org/) -->
<svg height="349pt" version="1.1" viewBox="0 0 431 349" width="431pt" xmlns="http://www.w3.org/2000/svg" xmlns:xlink="http://www.w3.org/1999/xlink">
 <defs>
  <style type="text/css">
*{stroke-linecap:butt;stroke-linejoin:round;}
  </style>
 </defs>
 <g id="figure_1">
  <g id="patch_1">
   <path d="M 0 349.621687 
L 431.947344 349.621687 
L 431.947344 0 
L 0 0 
z
" style="fill:none;"/>
  </g>
  <g id="axes_1">
   <g id="patch_2">
    <path d="M 64.127344 297.54825 
L 421.247344 297.54825 
L 421.247344 31.43625 
L 64.127344 31.43625 
z
" style="fill:none;"/>
   </g>
   <g id="matplotlib.axis_1">
    <g id="xtick_1">
     <g id="line2d_1">
      <path clip-path="url(#p2733d070c1)" d="M 80.360071 297.54825 
L 80.360071 31.43625 
" style="fill:none;stroke:#b0b0b0;stroke-linecap:square;stroke-width:0.8;"/>
     </g>
     <g id="line2d_2">
      <defs>
       <path d="M 0 0 
L 0 3.5 
" id="m005f0a59be" style="stroke:#000000;stroke-width:0.8;"/>
      </defs>
      <g>
       <use style="stroke:#000000;stroke-width:0.8;" x="80.360071" xlink:href="#m005f0a59be" y="297.54825"/>
      </g>
     </g>
     <g id="text_1">
      <!-- 18.0 -->
      <defs>
       <path d="M 11.71875 12.984375 
L 28.328125 12.984375 
L 28.328125 60.109375 
L 11.28125 56.59375 
L 11.28125 69.390625 
L 28.21875 72.90625 
L 46.09375 72.90625 
L 46.09375 12.984375 
L 62.703125 12.984375 
L 62.703125 0 
L 11.71875 0 
z
" id="DejaVuSans-Bold-31"/>
       <path d="M 34.8125 32.625 
Q 29.546875 32.625 26.703125 29.734375 
Q 23.875 26.859375 23.875 21.484375 
Q 23.875 16.109375 26.703125 13.25 
Q 29.546875 10.40625 34.8125 10.40625 
Q 40.046875 10.40625 42.828125 13.25 
Q 45.609375 16.109375 45.609375 21.484375 
Q 45.609375 26.90625 42.828125 29.765625 
Q 40.046875 32.625 34.8125 32.625 
z
M 21.09375 38.8125 
Q 14.453125 40.828125 11.078125 44.96875 
Q 7.71875 49.125 7.71875 55.328125 
Q 7.71875 64.546875 14.59375 69.375 
Q 21.484375 74.21875 34.8125 74.21875 
Q 48.046875 74.21875 54.921875 69.40625 
Q 61.8125 64.59375 61.8125 55.328125 
Q 61.8125 49.125 58.421875 44.96875 
Q 55.03125 40.828125 48.390625 38.8125 
Q 55.8125 36.765625 59.59375 32.15625 
Q 63.375 27.546875 63.375 20.515625 
Q 63.375 9.671875 56.171875 4.125 
Q 48.96875 -1.421875 34.8125 -1.421875 
Q 20.609375 -1.421875 13.359375 4.125 
Q 6.109375 9.671875 6.109375 20.515625 
Q 6.109375 27.546875 9.890625 32.15625 
Q 13.671875 36.765625 21.09375 38.8125 
z
M 25.484375 53.421875 
Q 25.484375 49.078125 27.90625 46.734375 
Q 30.328125 44.390625 34.8125 44.390625 
Q 39.203125 44.390625 41.59375 46.734375 
Q 44 49.078125 44 53.421875 
Q 44 57.765625 41.59375 60.078125 
Q 39.203125 62.40625 34.8125 62.40625 
Q 30.328125 62.40625 27.90625 60.0625 
Q 25.484375 57.71875 25.484375 53.421875 
z
" id="DejaVuSans-Bold-38"/>
       <path d="M 10.203125 18.890625 
L 27.78125 18.890625 
L 27.78125 0 
L 10.203125 0 
z
" id="DejaVuSans-Bold-2e"/>
       <path d="M 46 36.53125 
Q 46 50.203125 43.4375 55.78125 
Q 40.875 61.375 34.8125 61.375 
Q 28.765625 61.375 26.171875 55.78125 
Q 23.578125 50.203125 23.578125 36.53125 
Q 23.578125 22.703125 26.171875 17.03125 
Q 28.765625 11.375 34.8125 11.375 
Q 40.828125 11.375 43.40625 17.03125 
Q 46 22.703125 46 36.53125 
z
M 64.796875 36.375 
Q 64.796875 18.265625 56.984375 8.421875 
Q 49.171875 -1.421875 34.8125 -1.421875 
Q 20.40625 -1.421875 12.59375 8.421875 
Q 4.78125 18.265625 4.78125 36.375 
Q 4.78125 54.546875 12.59375 64.375 
Q 20.40625 74.21875 34.8125 74.21875 
Q 49.171875 74.21875 56.984375 64.375 
Q 64.796875 54.546875 64.796875 36.375 
z
" id="DejaVuSans-Bold-30"/>
      </defs>
      <g transform="translate(61.856165 315.945906)scale(0.15 -0.15)">
       <use xlink:href="#DejaVuSans-Bold-31"/>
       <use x="69.580078" xlink:href="#DejaVuSans-Bold-38"/>
       <use x="139.160156" xlink:href="#DejaVuSans-Bold-2e"/>
       <use x="177.148438" xlink:href="#DejaVuSans-Bold-30"/>
      </g>
     </g>
    </g>
    <g id="xtick_2">
     <g id="line2d_3">
      <path clip-path="url(#p2733d070c1)" d="M 161.523707 297.54825 
L 161.523707 31.43625 
" style="fill:none;stroke:#b0b0b0;stroke-linecap:square;stroke-width:0.8;"/>
     </g>
     <g id="line2d_4">
      <g>
       <use style="stroke:#000000;stroke-width:0.8;" x="161.523707" xlink:href="#m005f0a59be" y="297.54825"/>
      </g>
     </g>
     <g id="text_2">
      <!-- 18.5 -->
      <defs>
       <path d="M 10.59375 72.90625 
L 57.328125 72.90625 
L 57.328125 59.078125 
L 25.59375 59.078125 
L 25.59375 47.796875 
Q 27.734375 48.390625 29.90625 48.703125 
Q 32.078125 49.03125 34.421875 49.03125 
Q 47.75 49.03125 55.171875 42.359375 
Q 62.59375 35.6875 62.59375 23.78125 
Q 62.59375 11.96875 54.515625 5.265625 
Q 46.4375 -1.421875 32.078125 -1.421875 
Q 25.875 -1.421875 19.796875 -0.21875 
Q 13.71875 0.984375 7.71875 3.421875 
L 7.71875 18.21875 
Q 13.671875 14.796875 19.015625 13.078125 
Q 24.359375 11.375 29.109375 11.375 
Q 35.9375 11.375 39.859375 14.71875 
Q 43.796875 18.0625 43.796875 23.78125 
Q 43.796875 29.546875 39.859375 32.859375 
Q 35.9375 36.1875 29.109375 36.1875 
Q 25.046875 36.1875 20.453125 35.125 
Q 15.875 34.078125 10.59375 31.890625 
z
" id="DejaVuSans-Bold-35"/>
      </defs>
      <g transform="translate(143.019801 315.945906)scale(0.15 -0.15)">
       <use xlink:href="#DejaVuSans-Bold-31"/>
       <use x="69.580078" xlink:href="#DejaVuSans-Bold-38"/>
       <use x="139.160156" xlink:href="#DejaVuSans-Bold-2e"/>
       <use x="177.148438" xlink:href="#DejaVuSans-Bold-35"/>
      </g>
     </g>
    </g>
    <g id="xtick_3">
     <g id="line2d_5">
      <path clip-path="url(#p2733d070c1)" d="M 242.687344 297.54825 
L 242.687344 31.43625 
" style="fill:none;stroke:#b0b0b0;stroke-linecap:square;stroke-width:0.8;"/>
     </g>
     <g id="line2d_6">
      <g>
       <use style="stroke:#000000;stroke-width:0.8;" x="242.687344" xlink:href="#m005f0a59be" y="297.54825"/>
      </g>
     </g>
     <g id="text_3">
      <!-- 19.0 -->
      <defs>
       <path d="M 10.015625 1.609375 
L 10.015625 15.09375 
Q 14.5 12.984375 18.59375 11.9375 
Q 22.703125 10.890625 26.703125 10.890625 
Q 35.109375 10.890625 39.796875 15.546875 
Q 44.484375 20.21875 45.3125 29.390625 
Q 42 26.953125 38.234375 25.734375 
Q 34.46875 24.515625 30.078125 24.515625 
Q 18.890625 24.515625 12.03125 31.03125 
Q 5.171875 37.546875 5.171875 48.1875 
Q 5.171875 59.96875 12.8125 67.046875 
Q 20.453125 74.125 33.296875 74.125 
Q 47.5625 74.125 55.375 64.5 
Q 63.1875 54.890625 63.1875 37.3125 
Q 63.1875 19.234375 54.046875 8.90625 
Q 44.921875 -1.421875 29 -1.421875 
Q 23.875 -1.421875 19.1875 -0.65625 
Q 14.5 0.09375 10.015625 1.609375 
z
M 33.203125 36.71875 
Q 38.140625 36.71875 40.625 39.90625 
Q 43.109375 43.109375 43.109375 49.515625 
Q 43.109375 55.859375 40.625 59.078125 
Q 38.140625 62.3125 33.203125 62.3125 
Q 28.265625 62.3125 25.78125 59.078125 
Q 23.296875 55.859375 23.296875 49.515625 
Q 23.296875 43.109375 25.78125 39.90625 
Q 28.265625 36.71875 33.203125 36.71875 
z
" id="DejaVuSans-Bold-39"/>
      </defs>
      <g transform="translate(224.183437 315.945906)scale(0.15 -0.15)">
       <use xlink:href="#DejaVuSans-Bold-31"/>
       <use x="69.580078" xlink:href="#DejaVuSans-Bold-39"/>
       <use x="139.160156" xlink:href="#DejaVuSans-Bold-2e"/>
       <use x="177.148438" xlink:href="#DejaVuSans-Bold-30"/>
      </g>
     </g>
    </g>
    <g id="xtick_4">
     <g id="line2d_7">
      <path clip-path="url(#p2733d070c1)" d="M 323.85098 297.54825 
L 323.85098 31.43625 
" style="fill:none;stroke:#b0b0b0;stroke-linecap:square;stroke-width:0.8;"/>
     </g>
     <g id="line2d_8">
      <g>
       <use style="stroke:#000000;stroke-width:0.8;" x="323.85098" xlink:href="#m005f0a59be" y="297.54825"/>
      </g>
     </g>
     <g id="text_4">
      <!-- 19.5 -->
      <g transform="translate(305.347074 315.945906)scale(0.15 -0.15)">
       <use xlink:href="#DejaVuSans-Bold-31"/>
       <use x="69.580078" xlink:href="#DejaVuSans-Bold-39"/>
       <use x="139.160156" xlink:href="#DejaVuSans-Bold-2e"/>
       <use x="177.148438" xlink:href="#DejaVuSans-Bold-35"/>
      </g>
     </g>
    </g>
    <g id="xtick_5">
     <g id="line2d_9">
      <path clip-path="url(#p2733d070c1)" d="M 405.014616 297.54825 
L 405.014616 31.43625 
" style="fill:none;stroke:#b0b0b0;stroke-linecap:square;stroke-width:0.8;"/>
     </g>
     <g id="line2d_10">
      <g>
       <use style="stroke:#000000;stroke-width:0.8;" x="405.014616" xlink:href="#m005f0a59be" y="297.54825"/>
      </g>
     </g>
     <g id="text_5">
      <!-- 20.0 -->
      <defs>
       <path d="M 28.8125 13.8125 
L 60.890625 13.8125 
L 60.890625 0 
L 7.90625 0 
L 7.90625 13.8125 
L 34.515625 37.3125 
Q 38.09375 40.53125 39.796875 43.609375 
Q 41.5 46.6875 41.5 50 
Q 41.5 55.125 38.0625 58.25 
Q 34.625 61.375 28.90625 61.375 
Q 24.515625 61.375 19.28125 59.5 
Q 14.0625 57.625 8.109375 53.90625 
L 8.109375 69.921875 
Q 14.453125 72.015625 20.65625 73.109375 
Q 26.859375 74.21875 32.8125 74.21875 
Q 45.90625 74.21875 53.15625 68.453125 
Q 60.40625 62.703125 60.40625 52.390625 
Q 60.40625 46.4375 57.328125 41.28125 
Q 54.25 36.140625 44.390625 27.484375 
z
" id="DejaVuSans-Bold-32"/>
      </defs>
      <g transform="translate(386.51071 315.945906)scale(0.15 -0.15)">
       <use xlink:href="#DejaVuSans-Bold-32"/>
       <use x="69.580078" xlink:href="#DejaVuSans-Bold-30"/>
       <use x="139.160156" xlink:href="#DejaVuSans-Bold-2e"/>
       <use x="177.148438" xlink:href="#DejaVuSans-Bold-30"/>
      </g>
     </g>
    </g>
    <g id="text_6">
     <!-- Frequency (MHz) -->
     <defs>
      <path d="M 9.8125 72.90625 
L 51.703125 72.90625 
L 51.703125 64.59375 
L 19.671875 64.59375 
L 19.671875 43.109375 
L 48.578125 43.109375 
L 48.578125 34.8125 
L 19.671875 34.8125 
L 19.671875 0 
L 9.8125 0 
z
" id="DejaVuSans-46"/>
      <path d="M 41.109375 46.296875 
Q 39.59375 47.171875 37.8125 47.578125 
Q 36.03125 48 33.890625 48 
Q 26.265625 48 22.1875 43.046875 
Q 18.109375 38.09375 18.109375 28.8125 
L 18.109375 0 
L 9.078125 0 
L 9.078125 54.6875 
L 18.109375 54.6875 
L 18.109375 46.1875 
Q 20.953125 51.171875 25.484375 53.578125 
Q 30.03125 56 36.53125 56 
Q 37.453125 56 38.578125 55.875 
Q 39.703125 55.765625 41.0625 55.515625 
z
" id="DejaVuSans-72"/>
      <path d="M 56.203125 29.59375 
L 56.203125 25.203125 
L 14.890625 25.203125 
Q 15.484375 15.921875 20.484375 11.0625 
Q 25.484375 6.203125 34.421875 6.203125 
Q 39.59375 6.203125 44.453125 7.46875 
Q 49.3125 8.734375 54.109375 11.28125 
L 54.109375 2.78125 
Q 49.265625 0.734375 44.1875 -0.34375 
Q 39.109375 -1.421875 33.890625 -1.421875 
Q 20.796875 -1.421875 13.15625 6.1875 
Q 5.515625 13.8125 5.515625 26.8125 
Q 5.515625 40.234375 12.765625 48.109375 
Q 20.015625 56 32.328125 56 
Q 43.359375 56 49.78125 48.890625 
Q 56.203125 41.796875 56.203125 29.59375 
z
M 47.21875 32.234375 
Q 47.125 39.59375 43.09375 43.984375 
Q 39.0625 48.390625 32.421875 48.390625 
Q 24.90625 48.390625 20.390625 44.140625 
Q 15.875 39.890625 15.1875 32.171875 
z
" id="DejaVuSans-65"/>
      <path d="M 14.796875 27.296875 
Q 14.796875 17.390625 18.875 11.75 
Q 22.953125 6.109375 30.078125 6.109375 
Q 37.203125 6.109375 41.296875 11.75 
Q 45.40625 17.390625 45.40625 27.296875 
Q 45.40625 37.203125 41.296875 42.84375 
Q 37.203125 48.484375 30.078125 48.484375 
Q 22.953125 48.484375 18.875 42.84375 
Q 14.796875 37.203125 14.796875 27.296875 
z
M 45.40625 8.203125 
Q 42.578125 3.328125 38.25 0.953125 
Q 33.9375 -1.421875 27.875 -1.421875 
Q 17.96875 -1.421875 11.734375 6.484375 
Q 5.515625 14.40625 5.515625 27.296875 
Q 5.515625 40.1875 11.734375 48.09375 
Q 17.96875 56 27.875 56 
Q 33.9375 56 38.25 53.625 
Q 42.578125 51.265625 45.40625 46.390625 
L 45.40625 54.6875 
L 54.390625 54.6875 
L 54.390625 -20.796875 
L 45.40625 -20.796875 
z
" id="DejaVuSans-71"/>
      <path d="M 8.5 21.578125 
L 8.5 54.6875 
L 17.484375 54.6875 
L 17.484375 21.921875 
Q 17.484375 14.15625 20.5 10.265625 
Q 23.53125 6.390625 29.59375 6.390625 
Q 36.859375 6.390625 41.078125 11.03125 
Q 45.3125 15.671875 45.3125 23.6875 
L 45.3125 54.6875 
L 54.296875 54.6875 
L 54.296875 0 
L 45.3125 0 
L 45.3125 8.40625 
Q 42.046875 3.421875 37.71875 1 
Q 33.40625 -1.421875 27.6875 -1.421875 
Q 18.265625 -1.421875 13.375 4.4375 
Q 8.5 10.296875 8.5 21.578125 
z
M 31.109375 56 
z
" id="DejaVuSans-75"/>
      <path d="M 54.890625 33.015625 
L 54.890625 0 
L 45.90625 0 
L 45.90625 32.71875 
Q 45.90625 40.484375 42.875 44.328125 
Q 39.84375 48.1875 33.796875 48.1875 
Q 26.515625 48.1875 22.3125 43.546875 
Q 18.109375 38.921875 18.109375 30.90625 
L 18.109375 0 
L 9.078125 0 
L 9.078125 54.6875 
L 18.109375 54.6875 
L 18.109375 46.1875 
Q 21.34375 51.125 25.703125 53.5625 
Q 30.078125 56 35.796875 56 
Q 45.21875 56 50.046875 50.171875 
Q 54.890625 44.34375 54.890625 33.015625 
z
" id="DejaVuSans-6e"/>
      <path d="M 48.78125 52.59375 
L 48.78125 44.1875 
Q 44.96875 46.296875 41.140625 47.34375 
Q 37.3125 48.390625 33.40625 48.390625 
Q 24.65625 48.390625 19.8125 42.84375 
Q 14.984375 37.3125 14.984375 27.296875 
Q 14.984375 17.28125 19.8125 11.734375 
Q 24.65625 6.203125 33.40625 6.203125 
Q 37.3125 6.203125 41.140625 7.25 
Q 44.96875 8.296875 48.78125 10.40625 
L 48.78125 2.09375 
Q 45.015625 0.34375 40.984375 -0.53125 
Q 36.96875 -1.421875 32.421875 -1.421875 
Q 20.0625 -1.421875 12.78125 6.34375 
Q 5.515625 14.109375 5.515625 27.296875 
Q 5.515625 40.671875 12.859375 48.328125 
Q 20.21875 56 33.015625 56 
Q 37.15625 56 41.109375 55.140625 
Q 45.0625 54.296875 48.78125 52.59375 
z
" id="DejaVuSans-63"/>
      <path d="M 32.171875 -5.078125 
Q 28.375 -14.84375 24.75 -17.8125 
Q 21.140625 -20.796875 15.09375 -20.796875 
L 7.90625 -20.796875 
L 7.90625 -13.28125 
L 13.1875 -13.28125 
Q 16.890625 -13.28125 18.9375 -11.515625 
Q 21 -9.765625 23.484375 -3.21875 
L 25.09375 0.875 
L 2.984375 54.6875 
L 12.5 54.6875 
L 29.59375 11.921875 
L 46.6875 54.6875 
L 56.203125 54.6875 
z
" id="DejaVuSans-79"/>
      <path id="DejaVuSans-20"/>
      <path d="M 31 75.875 
Q 24.46875 64.65625 21.28125 53.65625 
Q 18.109375 42.671875 18.109375 31.390625 
Q 18.109375 20.125 21.3125 9.0625 
Q 24.515625 -2 31 -13.1875 
L 23.1875 -13.1875 
Q 15.875 -1.703125 12.234375 9.375 
Q 8.59375 20.453125 8.59375 31.390625 
Q 8.59375 42.28125 12.203125 53.3125 
Q 15.828125 64.359375 23.1875 75.875 
z
" id="DejaVuSans-28"/>
      <path d="M 9.8125 72.90625 
L 24.515625 72.90625 
L 43.109375 23.296875 
L 61.8125 72.90625 
L 76.515625 72.90625 
L 76.515625 0 
L 66.890625 0 
L 66.890625 64.015625 
L 48.09375 14.015625 
L 38.1875 14.015625 
L 19.390625 64.015625 
L 19.390625 0 
L 9.8125 0 
z
" id="DejaVuSans-4d"/>
      <path d="M 9.8125 72.90625 
L 19.671875 72.90625 
L 19.671875 43.015625 
L 55.515625 43.015625 
L 55.515625 72.90625 
L 65.375 72.90625 
L 65.375 0 
L 55.515625 0 
L 55.515625 34.71875 
L 19.671875 34.71875 
L 19.671875 0 
L 9.8125 0 
z
" id="DejaVuSans-48"/>
      <path d="M 5.515625 54.6875 
L 48.1875 54.6875 
L 48.1875 46.484375 
L 14.40625 7.171875 
L 48.1875 7.171875 
L 48.1875 0 
L 4.296875 0 
L 4.296875 8.203125 
L 38.09375 47.515625 
L 5.515625 47.515625 
z
" id="DejaVuSans-7a"/>
      <path d="M 8.015625 75.875 
L 15.828125 75.875 
Q 23.140625 64.359375 26.78125 53.3125 
Q 30.421875 42.28125 30.421875 31.390625 
Q 30.421875 20.453125 26.78125 9.375 
Q 23.140625 -1.703125 15.828125 -13.1875 
L 8.015625 -13.1875 
Q 14.5 -2 17.703125 9.0625 
Q 20.90625 20.125 20.90625 31.390625 
Q 20.90625 42.671875 17.703125 53.65625 
Q 14.5 64.65625 8.015625 75.875 
z
" id="DejaVuSans-29"/>
     </defs>
     <g transform="translate(157.713906 338.262312)scale(0.2 -0.2)">
      <use xlink:href="#DejaVuSans-46"/>
      <use x="57.410156" xlink:href="#DejaVuSans-72"/>
      <use x="98.492188" xlink:href="#DejaVuSans-65"/>
      <use x="160.015625" xlink:href="#DejaVuSans-71"/>
      <use x="223.492188" xlink:href="#DejaVuSans-75"/>
      <use x="286.871094" xlink:href="#DejaVuSans-65"/>
      <use x="348.394531" xlink:href="#DejaVuSans-6e"/>
      <use x="411.773438" xlink:href="#DejaVuSans-63"/>
      <use x="466.753906" xlink:href="#DejaVuSans-79"/>
      <use x="525.933594" xlink:href="#DejaVuSans-20"/>
      <use x="557.720703" xlink:href="#DejaVuSans-28"/>
      <use x="596.734375" xlink:href="#DejaVuSans-4d"/>
      <use x="683.013672" xlink:href="#DejaVuSans-48"/>
      <use x="758.208984" xlink:href="#DejaVuSans-7a"/>
      <use x="810.699219" xlink:href="#DejaVuSans-29"/>
     </g>
    </g>
   </g>
   <g id="matplotlib.axis_2">
    <g id="ytick_1">
     <g id="line2d_11">
      <path clip-path="url(#p2733d070c1)" d="M 64.127344 297.54825 
L 421.247344 297.54825 
" style="fill:none;stroke:#b0b0b0;stroke-linecap:square;stroke-width:0.8;"/>
     </g>
     <g id="line2d_12">
      <defs>
       <path d="M 0 0 
L -3.5 0 
" id="mc3ce260a5b" style="stroke:#000000;stroke-width:0.8;"/>
      </defs>
      <g>
       <use style="stroke:#000000;stroke-width:0.8;" x="64.127344" xlink:href="#mc3ce260a5b" y="297.54825"/>
      </g>
     </g>
     <g id="text_7">
      <!-- 0.0 -->
      <g transform="translate(30.55625 303.247078)scale(0.15 -0.15)">
       <use xlink:href="#DejaVuSans-Bold-30"/>
       <use x="69.580078" xlink:href="#DejaVuSans-Bold-2e"/>
       <use x="107.568359" xlink:href="#DejaVuSans-Bold-30"/>
      </g>
     </g>
    </g>
    <g id="ytick_2">
     <g id="line2d_13">
      <path clip-path="url(#p2733d070c1)" d="M 64.127344 264.28425 
L 421.247344 264.28425 
" style="fill:none;stroke:#b0b0b0;stroke-linecap:square;stroke-width:0.8;"/>
     </g>
     <g id="line2d_14">
      <g>
       <use style="stroke:#000000;stroke-width:0.8;" x="64.127344" xlink:href="#mc3ce260a5b" y="264.28425"/>
      </g>
     </g>
     <g id="text_8">
      <!-- 0.1 -->
      <g transform="translate(30.55625 269.983078)scale(0.15 -0.15)">
       <use xlink:href="#DejaVuSans-Bold-30"/>
       <use x="69.580078" xlink:href="#DejaVuSans-Bold-2e"/>
       <use x="107.568359" xlink:href="#DejaVuSans-Bold-31"/>
      </g>
     </g>
    </g>
    <g id="ytick_3">
     <g id="line2d_15">
      <path clip-path="url(#p2733d070c1)" d="M 64.127344 231.02025 
L 421.247344 231.02025 
" style="fill:none;stroke:#b0b0b0;stroke-linecap:square;stroke-width:0.8;"/>
     </g>
     <g id="line2d_16">
      <g>
       <use style="stroke:#000000;stroke-width:0.8;" x="64.127344" xlink:href="#mc3ce260a5b" y="231.02025"/>
      </g>
     </g>
     <g id="text_9">
      <!-- 0.2 -->
      <g transform="translate(30.55625 236.719078)scale(0.15 -0.15)">
       <use xlink:href="#DejaVuSans-Bold-30"/>
       <use x="69.580078" xlink:href="#DejaVuSans-Bold-2e"/>
       <use x="107.568359" xlink:href="#DejaVuSans-Bold-32"/>
      </g>
     </g>
    </g>
    <g id="ytick_4">
     <g id="line2d_17">
      <path clip-path="url(#p2733d070c1)" d="M 64.127344 197.75625 
L 421.247344 197.75625 
" style="fill:none;stroke:#b0b0b0;stroke-linecap:square;stroke-width:0.8;"/>
     </g>
     <g id="line2d_18">
      <g>
       <use style="stroke:#000000;stroke-width:0.8;" x="64.127344" xlink:href="#mc3ce260a5b" y="197.75625"/>
      </g>
     </g>
     <g id="text_10">
      <!-- 0.3 -->
      <defs>
       <path d="M 46.578125 39.3125 
Q 53.953125 37.40625 57.78125 32.6875 
Q 61.625 27.984375 61.625 20.703125 
Q 61.625 9.859375 53.3125 4.21875 
Q 45.015625 -1.421875 29.109375 -1.421875 
Q 23.484375 -1.421875 17.84375 -0.515625 
Q 12.203125 0.390625 6.6875 2.203125 
L 6.6875 16.703125 
Q 11.96875 14.0625 17.15625 12.71875 
Q 22.359375 11.375 27.390625 11.375 
Q 34.859375 11.375 38.84375 13.953125 
Q 42.828125 16.546875 42.828125 21.390625 
Q 42.828125 26.375 38.75 28.9375 
Q 34.671875 31.5 26.703125 31.5 
L 19.1875 31.5 
L 19.1875 43.609375 
L 27.09375 43.609375 
Q 34.1875 43.609375 37.640625 45.828125 
Q 41.109375 48.046875 41.109375 52.59375 
Q 41.109375 56.78125 37.734375 59.078125 
Q 34.375 61.375 28.21875 61.375 
Q 23.6875 61.375 19.046875 60.34375 
Q 14.40625 59.328125 9.8125 57.328125 
L 9.8125 71.09375 
Q 15.375 72.65625 20.84375 73.4375 
Q 26.3125 74.21875 31.59375 74.21875 
Q 45.796875 74.21875 52.84375 69.546875 
Q 59.90625 64.890625 59.90625 55.515625 
Q 59.90625 49.125 56.53125 45.046875 
Q 53.171875 40.96875 46.578125 39.3125 
z
" id="DejaVuSans-Bold-33"/>
      </defs>
      <g transform="translate(30.55625 203.455078)scale(0.15 -0.15)">
       <use xlink:href="#DejaVuSans-Bold-30"/>
       <use x="69.580078" xlink:href="#DejaVuSans-Bold-2e"/>
       <use x="107.568359" xlink:href="#DejaVuSans-Bold-33"/>
      </g>
     </g>
    </g>
    <g id="ytick_5">
     <g id="line2d_19">
      <path clip-path="url(#p2733d070c1)" d="M 64.127344 164.49225 
L 421.247344 164.49225 
" style="fill:none;stroke:#b0b0b0;stroke-linecap:square;stroke-width:0.8;"/>
     </g>
     <g id="line2d_20">
      <g>
       <use style="stroke:#000000;stroke-width:0.8;" x="64.127344" xlink:href="#mc3ce260a5b" y="164.49225"/>
      </g>
     </g>
     <g id="text_11">
      <!-- 0.4 -->
      <defs>
       <path d="M 36.8125 57.421875 
L 16.21875 26.90625 
L 36.8125 26.90625 
z
M 33.6875 72.90625 
L 54.59375 72.90625 
L 54.59375 26.90625 
L 64.984375 26.90625 
L 64.984375 13.28125 
L 54.59375 13.28125 
L 54.59375 0 
L 36.8125 0 
L 36.8125 13.28125 
L 4.5 13.28125 
L 4.5 29.390625 
z
" id="DejaVuSans-Bold-34"/>
      </defs>
      <g transform="translate(30.55625 170.191078)scale(0.15 -0.15)">
       <use xlink:href="#DejaVuSans-Bold-30"/>
       <use x="69.580078" xlink:href="#DejaVuSans-Bold-2e"/>
       <use x="107.568359" xlink:href="#DejaVuSans-Bold-34"/>
      </g>
     </g>
    </g>
    <g id="ytick_6">
     <g id="line2d_21">
      <path clip-path="url(#p2733d070c1)" d="M 64.127344 131.22825 
L 421.247344 131.22825 
" style="fill:none;stroke:#b0b0b0;stroke-linecap:square;stroke-width:0.8;"/>
     </g>
     <g id="line2d_22">
      <g>
       <use style="stroke:#000000;stroke-width:0.8;" x="64.127344" xlink:href="#mc3ce260a5b" y="131.22825"/>
      </g>
     </g>
     <g id="text_12">
      <!-- 0.5 -->
      <g transform="translate(30.55625 136.927078)scale(0.15 -0.15)">
       <use xlink:href="#DejaVuSans-Bold-30"/>
       <use x="69.580078" xlink:href="#DejaVuSans-Bold-2e"/>
       <use x="107.568359" xlink:href="#DejaVuSans-Bold-35"/>
      </g>
     </g>
    </g>
    <g id="ytick_7">
     <g id="line2d_23">
      <path clip-path="url(#p2733d070c1)" d="M 64.127344 97.96425 
L 421.247344 97.96425 
" style="fill:none;stroke:#b0b0b0;stroke-linecap:square;stroke-width:0.8;"/>
     </g>
     <g id="line2d_24">
      <g>
       <use style="stroke:#000000;stroke-width:0.8;" x="64.127344" xlink:href="#mc3ce260a5b" y="97.96425"/>
      </g>
     </g>
     <g id="text_13">
      <!-- 0.6 -->
      <defs>
       <path d="M 36.1875 35.984375 
Q 31.25 35.984375 28.78125 32.78125 
Q 26.3125 29.59375 26.3125 23.1875 
Q 26.3125 16.796875 28.78125 13.59375 
Q 31.25 10.40625 36.1875 10.40625 
Q 41.15625 10.40625 43.625 13.59375 
Q 46.09375 16.796875 46.09375 23.1875 
Q 46.09375 29.59375 43.625 32.78125 
Q 41.15625 35.984375 36.1875 35.984375 
z
M 59.421875 71 
L 59.421875 57.515625 
Q 54.78125 59.71875 50.671875 60.765625 
Q 46.578125 61.8125 42.671875 61.8125 
Q 34.28125 61.8125 29.59375 57.140625 
Q 24.90625 52.484375 24.125 43.3125 
Q 27.34375 45.703125 31.09375 46.890625 
Q 34.859375 48.09375 39.3125 48.09375 
Q 50.484375 48.09375 57.34375 41.546875 
Q 64.203125 35.015625 64.203125 24.421875 
Q 64.203125 12.703125 56.53125 5.640625 
Q 48.875 -1.421875 35.984375 -1.421875 
Q 21.78125 -1.421875 13.984375 8.171875 
Q 6.203125 17.78125 6.203125 35.40625 
Q 6.203125 53.46875 15.3125 63.796875 
Q 24.421875 74.125 40.28125 74.125 
Q 45.3125 74.125 50.046875 73.34375 
Q 54.78125 72.5625 59.421875 71 
z
" id="DejaVuSans-Bold-36"/>
      </defs>
      <g transform="translate(30.55625 103.663078)scale(0.15 -0.15)">
       <use xlink:href="#DejaVuSans-Bold-30"/>
       <use x="69.580078" xlink:href="#DejaVuSans-Bold-2e"/>
       <use x="107.568359" xlink:href="#DejaVuSans-Bold-36"/>
      </g>
     </g>
    </g>
    <g id="ytick_8">
     <g id="line2d_25">
      <path clip-path="url(#p2733d070c1)" d="M 64.127344 64.70025 
L 421.247344 64.70025 
" style="fill:none;stroke:#b0b0b0;stroke-linecap:square;stroke-width:0.8;"/>
     </g>
     <g id="line2d_26">
      <g>
       <use style="stroke:#000000;stroke-width:0.8;" x="64.127344" xlink:href="#mc3ce260a5b" y="64.70025"/>
      </g>
     </g>
     <g id="text_14">
      <!-- 0.7 -->
      <defs>
       <path d="M 6.6875 72.90625 
L 61.625 72.90625 
L 61.625 62.3125 
L 33.203125 0 
L 14.890625 0 
L 41.796875 59.078125 
L 6.6875 59.078125 
z
" id="DejaVuSans-Bold-37"/>
      </defs>
      <g transform="translate(30.55625 70.399078)scale(0.15 -0.15)">
       <use xlink:href="#DejaVuSans-Bold-30"/>
       <use x="69.580078" xlink:href="#DejaVuSans-Bold-2e"/>
       <use x="107.568359" xlink:href="#DejaVuSans-Bold-37"/>
      </g>
     </g>
    </g>
    <g id="ytick_9">
     <g id="line2d_27">
      <path clip-path="url(#p2733d070c1)" d="M 64.127344 31.43625 
L 421.247344 31.43625 
" style="fill:none;stroke:#b0b0b0;stroke-linecap:square;stroke-width:0.8;"/>
     </g>
     <g id="line2d_28">
      <g>
       <use style="stroke:#000000;stroke-width:0.8;" x="64.127344" xlink:href="#mc3ce260a5b" y="31.43625"/>
      </g>
     </g>
     <g id="text_15">
      <!-- 0.8 -->
      <g transform="translate(30.55625 37.135078)scale(0.15 -0.15)">
       <use xlink:href="#DejaVuSans-Bold-30"/>
       <use x="69.580078" xlink:href="#DejaVuSans-Bold-2e"/>
       <use x="107.568359" xlink:href="#DejaVuSans-Bold-38"/>
      </g>
     </g>
    </g>
    <g id="text_16">
     <!-- Survival -->
     <defs>
      <path d="M 53.515625 70.515625 
L 53.515625 60.890625 
Q 47.90625 63.578125 42.921875 64.890625 
Q 37.9375 66.21875 33.296875 66.21875 
Q 25.25 66.21875 20.875 63.09375 
Q 16.5 59.96875 16.5 54.203125 
Q 16.5 49.359375 19.40625 46.890625 
Q 22.3125 44.4375 30.421875 42.921875 
L 36.375 41.703125 
Q 47.40625 39.59375 52.65625 34.296875 
Q 57.90625 29 57.90625 20.125 
Q 57.90625 9.515625 50.796875 4.046875 
Q 43.703125 -1.421875 29.984375 -1.421875 
Q 24.8125 -1.421875 18.96875 -0.25 
Q 13.140625 0.921875 6.890625 3.21875 
L 6.890625 13.375 
Q 12.890625 10.015625 18.65625 8.296875 
Q 24.421875 6.59375 29.984375 6.59375 
Q 38.421875 6.59375 43.015625 9.90625 
Q 47.609375 13.234375 47.609375 19.390625 
Q 47.609375 24.75 44.3125 27.78125 
Q 41.015625 30.8125 33.5 32.328125 
L 27.484375 33.5 
Q 16.453125 35.6875 11.515625 40.375 
Q 6.59375 45.0625 6.59375 53.421875 
Q 6.59375 63.09375 13.40625 68.65625 
Q 20.21875 74.21875 32.171875 74.21875 
Q 37.3125 74.21875 42.625 73.28125 
Q 47.953125 72.359375 53.515625 70.515625 
z
" id="DejaVuSans-53"/>
      <path d="M 2.984375 54.6875 
L 12.5 54.6875 
L 29.59375 8.796875 
L 46.6875 54.6875 
L 56.203125 54.6875 
L 35.6875 0 
L 23.484375 0 
z
" id="DejaVuSans-76"/>
      <path d="M 9.421875 54.6875 
L 18.40625 54.6875 
L 18.40625 0 
L 9.421875 0 
z
M 9.421875 75.984375 
L 18.40625 75.984375 
L 18.40625 64.59375 
L 9.421875 64.59375 
z
" id="DejaVuSans-69"/>
      <path d="M 34.28125 27.484375 
Q 23.390625 27.484375 19.1875 25 
Q 14.984375 22.515625 14.984375 16.5 
Q 14.984375 11.71875 18.140625 8.90625 
Q 21.296875 6.109375 26.703125 6.109375 
Q 34.1875 6.109375 38.703125 11.40625 
Q 43.21875 16.703125 43.21875 25.484375 
L 43.21875 27.484375 
z
M 52.203125 31.203125 
L 52.203125 0 
L 43.21875 0 
L 43.21875 8.296875 
Q 40.140625 3.328125 35.546875 0.953125 
Q 30.953125 -1.421875 24.3125 -1.421875 
Q 15.921875 -1.421875 10.953125 3.296875 
Q 6 8.015625 6 15.921875 
Q 6 25.140625 12.171875 29.828125 
Q 18.359375 34.515625 30.609375 34.515625 
L 43.21875 34.515625 
L 43.21875 35.40625 
Q 43.21875 41.609375 39.140625 45 
Q 35.0625 48.390625 27.6875 48.390625 
Q 23 48.390625 18.546875 47.265625 
Q 14.109375 46.140625 10.015625 43.890625 
L 10.015625 52.203125 
Q 14.9375 54.109375 19.578125 55.046875 
Q 24.21875 56 28.609375 56 
Q 40.484375 56 46.34375 49.84375 
Q 52.203125 43.703125 52.203125 31.203125 
z
" id="DejaVuSans-61"/>
      <path d="M 9.421875 75.984375 
L 18.40625 75.984375 
L 18.40625 0 
L 9.421875 0 
z
" id="DejaVuSans-6c"/>
     </defs>
     <g transform="translate(22.396875 204.811)rotate(-90)scale(0.2 -0.2)">
      <use xlink:href="#DejaVuSans-53"/>
      <use x="63.476562" xlink:href="#DejaVuSans-75"/>
      <use x="126.855469" xlink:href="#DejaVuSans-72"/>
      <use x="167.96875" xlink:href="#DejaVuSans-76"/>
      <use x="227.148438" xlink:href="#DejaVuSans-69"/>
      <use x="254.931641" xlink:href="#DejaVuSans-76"/>
      <use x="314.111328" xlink:href="#DejaVuSans-61"/>
      <use x="375.390625" xlink:href="#DejaVuSans-6c"/>
     </g>
    </g>
   </g>
   <g id="LineCollection_1">
    <path clip-path="url(#p2733d070c1)" d="M 80.360071 291.283454 
L 80.360071 285.493741 
" style="fill:none;stroke:#1f77b4;stroke-width:1.5;"/>
    <path clip-path="url(#p2733d070c1)" d="M 83.606616 291.562724 
L 83.606616 286.026408 
" style="fill:none;stroke:#1f77b4;stroke-width:1.5;"/>
    <path clip-path="url(#p2733d070c1)" d="M 86.853162 293.770361 
L 86.853162 289.110546 
" style="fill:none;stroke:#1f77b4;stroke-width:1.5;"/>
    <path clip-path="url(#p2733d070c1)" d="M 90.099707 290.857507 
L 90.099707 285.100801 
" style="fill:none;stroke:#1f77b4;stroke-width:1.5;"/>
    <path clip-path="url(#p2733d070c1)" d="M 93.346253 261.816744 
L 93.346253 249.874447 
" style="fill:none;stroke:#1f77b4;stroke-width:1.5;"/>
    <path clip-path="url(#p2733d070c1)" d="M 96.592798 218.385252 
L 96.592798 203.120429 
" style="fill:none;stroke:#1f77b4;stroke-width:1.5;"/>
    <path clip-path="url(#p2733d070c1)" d="M 99.839344 107.199059 
L 99.839344 90.330382 
" style="fill:none;stroke:#1f77b4;stroke-width:1.5;"/>
    <path clip-path="url(#p2733d070c1)" d="M 103.085889 76.515833 
L 103.085889 60.649208 
" style="fill:none;stroke:#1f77b4;stroke-width:1.5;"/>
    <path clip-path="url(#p2733d070c1)" d="M 106.332435 110.730555 
L 106.332435 93.301922 
" style="fill:none;stroke:#1f77b4;stroke-width:1.5;"/>
    <path clip-path="url(#p2733d070c1)" d="M 109.57898 193.058687 
L 109.57898 177.166384 
" style="fill:none;stroke:#1f77b4;stroke-width:1.5;"/>
    <path clip-path="url(#p2733d070c1)" d="M 112.825526 251.582141 
L 112.825526 238.811517 
" style="fill:none;stroke:#1f77b4;stroke-width:1.5;"/>
    <path clip-path="url(#p2733d070c1)" d="M 116.072071 282.066613 
L 116.072071 274.149887 
" style="fill:none;stroke:#1f77b4;stroke-width:1.5;"/>
    <path clip-path="url(#p2733d070c1)" d="M 119.318616 290.568984 
L 119.318616 284.569116 
" style="fill:none;stroke:#1f77b4;stroke-width:1.5;"/>
    <path clip-path="url(#p2733d070c1)" d="M 122.565162 289.995772 
L 122.565162 283.907598 
" style="fill:none;stroke:#1f77b4;stroke-width:1.5;"/>
    <path clip-path="url(#p2733d070c1)" d="M 125.811707 291.228164 
L 125.811707 285.388336 
" style="fill:none;stroke:#1f77b4;stroke-width:1.5;"/>
    <path clip-path="url(#p2733d070c1)" d="M 129.058253 291.31978 
L 129.058253 285.563002 
" style="fill:none;stroke:#1f77b4;stroke-width:1.5;"/>
    <path clip-path="url(#p2733d070c1)" d="M 132.304798 293.490586 
L 132.304798 289.005914 
" style="fill:none;stroke:#1f77b4;stroke-width:1.5;"/>
    <path clip-path="url(#p2733d070c1)" d="M 135.551344 291.071699 
L 135.551344 285.495782 
" style="fill:none;stroke:#1f77b4;stroke-width:1.5;"/>
    <path clip-path="url(#p2733d070c1)" d="M 138.797889 293.874667 
L 138.797889 289.341833 
" style="fill:none;stroke:#1f77b4;stroke-width:1.5;"/>
    <path clip-path="url(#p2733d070c1)" d="M 142.044435 293.119765 
L 142.044435 288.23128 
" style="fill:none;stroke:#1f77b4;stroke-width:1.5;"/>
    <path clip-path="url(#p2733d070c1)" d="M 145.29098 293.156254 
L 145.29098 288.307459 
" style="fill:none;stroke:#1f77b4;stroke-width:1.5;"/>
    <path clip-path="url(#p2733d070c1)" d="M 148.537526 293.843985 
L 148.537526 289.273789 
" style="fill:none;stroke:#1f77b4;stroke-width:1.5;"/>
    <path clip-path="url(#p2733d070c1)" d="M 151.784071 291.612338 
L 151.784071 286.121085 
" style="fill:none;stroke:#1f77b4;stroke-width:1.5;"/>
    <path clip-path="url(#p2733d070c1)" d="M 155.030616 293.854269 
L 155.030616 289.296595 
" style="fill:none;stroke:#1f77b4;stroke-width:1.5;"/>
    <path clip-path="url(#p2733d070c1)" d="M 158.277162 292.686095 
L 158.277162 287.798312 
" style="fill:none;stroke:#1f77b4;stroke-width:1.5;"/>
    <path clip-path="url(#p2733d070c1)" d="M 161.523707 289.601005 
L 161.523707 283.553542 
" style="fill:none;stroke:#1f77b4;stroke-width:1.5;"/>
    <path clip-path="url(#p2733d070c1)" d="M 164.770253 288.478814 
L 164.770253 281.94384 
" style="fill:none;stroke:#1f77b4;stroke-width:1.5;"/>
    <path clip-path="url(#p2733d070c1)" d="M 168.016798 290.782926 
L 168.016798 284.963325 
" style="fill:none;stroke:#1f77b4;stroke-width:1.5;"/>
    <path clip-path="url(#p2733d070c1)" d="M 171.263344 285.004873 
L 171.263344 277.702995 
" style="fill:none;stroke:#1f77b4;stroke-width:1.5;"/>
    <path clip-path="url(#p2733d070c1)" d="M 174.509889 265.964394 
L 174.509889 255.308608 
" style="fill:none;stroke:#1f77b4;stroke-width:1.5;"/>
    <path clip-path="url(#p2733d070c1)" d="M 177.756435 208.54728 
L 177.756435 192.662369 
" style="fill:none;stroke:#1f77b4;stroke-width:1.5;"/>
    <path clip-path="url(#p2733d070c1)" d="M 181.00298 140.247859 
L 181.00298 123.093322 
" style="fill:none;stroke:#1f77b4;stroke-width:1.5;"/>
    <path clip-path="url(#p2733d070c1)" d="M 184.249526 117.674997 
L 184.249526 100.489764 
" style="fill:none;stroke:#1f77b4;stroke-width:1.5;"/>
    <path clip-path="url(#p2733d070c1)" d="M 187.496071 180.260503 
L 187.496071 163.282756 
" style="fill:none;stroke:#1f77b4;stroke-width:1.5;"/>
    <path clip-path="url(#p2733d070c1)" d="M 190.742616 257.073689 
L 190.742616 245.334061 
" style="fill:none;stroke:#1f77b4;stroke-width:1.5;"/>
    <path clip-path="url(#p2733d070c1)" d="M 193.989162 274.845733 
L 193.989162 265.534527 
" style="fill:none;stroke:#1f77b4;stroke-width:1.5;"/>
    <path clip-path="url(#p2733d070c1)" d="M 197.235707 282.807397 
L 197.235707 275.040353 
" style="fill:none;stroke:#1f77b4;stroke-width:1.5;"/>
    <path clip-path="url(#p2733d070c1)" d="M 200.482253 291.787427 
L 200.482253 286.455313 
" style="fill:none;stroke:#1f77b4;stroke-width:1.5;"/>
    <path clip-path="url(#p2733d070c1)" d="M 203.728798 292.010181 
L 203.728798 286.88078 
" style="fill:none;stroke:#1f77b4;stroke-width:1.5;"/>
    <path clip-path="url(#p2733d070c1)" d="M 206.975344 290.608883 
L 206.975344 284.642617 
" style="fill:none;stroke:#1f77b4;stroke-width:1.5;"/>
    <path clip-path="url(#p2733d070c1)" d="M 210.221889 294.827495 
L 210.221889 290.982102 
" style="fill:none;stroke:#1f77b4;stroke-width:1.5;"/>
    <path clip-path="url(#p2733d070c1)" d="M 213.468435 292.832455 
L 213.468435 287.631787 
" style="fill:none;stroke:#1f77b4;stroke-width:1.5;"/>
    <path clip-path="url(#p2733d070c1)" d="M 216.71498 290.27942 
L 216.71498 284.41516 
" style="fill:none;stroke:#1f77b4;stroke-width:1.5;"/>
    <path clip-path="url(#p2733d070c1)" d="M 219.961526 294.030083 
L 219.961526 289.686628 
" style="fill:none;stroke:#1f77b4;stroke-width:1.5;"/>
    <path clip-path="url(#p2733d070c1)" d="M 223.208071 290.432139 
L 223.208071 284.688591 
" style="fill:none;stroke:#1f77b4;stroke-width:1.5;"/>
    <path clip-path="url(#p2733d070c1)" d="M 226.454616 292.488986 
L 226.454616 287.406224 
" style="fill:none;stroke:#1f77b4;stroke-width:1.5;"/>
    <path clip-path="url(#p2733d070c1)" d="M 229.701162 293.227457 
L 229.701162 288.45614 
" style="fill:none;stroke:#1f77b4;stroke-width:1.5;"/>
    <path clip-path="url(#p2733d070c1)" d="M 232.947707 292.609124 
L 232.947707 287.645171 
" style="fill:none;stroke:#1f77b4;stroke-width:1.5;"/>
    <path clip-path="url(#p2733d070c1)" d="M 236.194253 290.930462 
L 236.194253 285.235307 
" style="fill:none;stroke:#1f77b4;stroke-width:1.5;"/>
    <path clip-path="url(#p2733d070c1)" d="M 239.440798 292.230281 
L 239.440798 286.891982 
" style="fill:none;stroke:#1f77b4;stroke-width:1.5;"/>
    <path clip-path="url(#p2733d070c1)" d="M 242.687344 294.41174 
L 242.687344 289.985813 
" style="fill:none;stroke:#1f77b4;stroke-width:1.5;"/>
    <path clip-path="url(#p2733d070c1)" d="M 245.933889 289.428564 
L 245.933889 283.252842 
" style="fill:none;stroke:#1f77b4;stroke-width:1.5;"/>
    <path clip-path="url(#p2733d070c1)" d="M 249.180435 286.351613 
L 249.180435 279.315611 
" style="fill:none;stroke:#1f77b4;stroke-width:1.5;"/>
    <path clip-path="url(#p2733d070c1)" d="M 252.42698 280.194729 
L 252.42698 271.59407 
" style="fill:none;stroke:#1f77b4;stroke-width:1.5;"/>
    <path clip-path="url(#p2733d070c1)" d="M 255.673526 258.396339 
L 255.673526 246.628741 
" style="fill:none;stroke:#1f77b4;stroke-width:1.5;"/>
    <path clip-path="url(#p2733d070c1)" d="M 258.920071 210.024447 
L 258.920071 194.346401 
" style="fill:none;stroke:#1f77b4;stroke-width:1.5;"/>
    <path clip-path="url(#p2733d070c1)" d="M 262.166616 152.666908 
L 262.166616 135.307181 
" style="fill:none;stroke:#1f77b4;stroke-width:1.5;"/>
    <path clip-path="url(#p2733d070c1)" d="M 265.413162 153.880518 
L 265.413162 136.810677 
" style="fill:none;stroke:#1f77b4;stroke-width:1.5;"/>
    <path clip-path="url(#p2733d070c1)" d="M 268.659707 200.14491 
L 268.659707 183.616206 
" style="fill:none;stroke:#1f77b4;stroke-width:1.5;"/>
    <path clip-path="url(#p2733d070c1)" d="M 271.906253 261.990273 
L 271.906253 250.410808 
" style="fill:none;stroke:#1f77b4;stroke-width:1.5;"/>
    <path clip-path="url(#p2733d070c1)" d="M 275.152798 284.971539 
L 275.152798 277.650871 
" style="fill:none;stroke:#1f77b4;stroke-width:1.5;"/>
    <path clip-path="url(#p2733d070c1)" d="M 278.399344 288.626837 
L 278.399344 282.195933 
" style="fill:none;stroke:#1f77b4;stroke-width:1.5;"/>
    <path clip-path="url(#p2733d070c1)" d="M 281.645889 291.088931 
L 281.645889 285.527569 
" style="fill:none;stroke:#1f77b4;stroke-width:1.5;"/>
    <path clip-path="url(#p2733d070c1)" d="M 284.892435 288.840029 
L 284.892435 282.559162 
" style="fill:none;stroke:#1f77b4;stroke-width:1.5;"/>
    <path clip-path="url(#p2733d070c1)" d="M 288.13898 293.770361 
L 288.13898 289.110546 
" style="fill:none;stroke:#1f77b4;stroke-width:1.5;"/>
    <path clip-path="url(#p2733d070c1)" d="M 291.385526 290.099581 
L 291.385526 284.093313 
" style="fill:none;stroke:#1f77b4;stroke-width:1.5;"/>
    <path clip-path="url(#p2733d070c1)" d="M 294.632071 291.123122 
L 294.632071 285.590642 
" style="fill:none;stroke:#1f77b4;stroke-width:1.5;"/>
    <path clip-path="url(#p2733d070c1)" d="M 297.878616 289.428564 
L 297.878616 283.252842 
" style="fill:none;stroke:#1f77b4;stroke-width:1.5;"/>
    <path clip-path="url(#p2733d070c1)" d="M 301.125162 295.364325 
L 301.125162 291.706008 
" style="fill:none;stroke:#1f77b4;stroke-width:1.5;"/>
    <path clip-path="url(#p2733d070c1)" d="M 304.371707 293.395756 
L 304.371707 288.807721 
" style="fill:none;stroke:#1f77b4;stroke-width:1.5;"/>
    <path clip-path="url(#p2733d070c1)" d="M 307.618253 293.864496 
L 307.618253 289.319276 
" style="fill:none;stroke:#1f77b4;stroke-width:1.5;"/>
    <path clip-path="url(#p2733d070c1)" d="M 310.864798 290.966345 
L 310.864798 285.301475 
" style="fill:none;stroke:#1f77b4;stroke-width:1.5;"/>
    <path clip-path="url(#p2733d070c1)" d="M 314.111344 295.055601 
L 314.111344 290.88567 
" style="fill:none;stroke:#1f77b4;stroke-width:1.5;"/>
    <path clip-path="url(#p2733d070c1)" d="M 317.357889 292.529676 
L 317.357889 287.487144 
" style="fill:none;stroke:#1f77b4;stroke-width:1.5;"/>
    <path clip-path="url(#p2733d070c1)" d="M 320.604435 292.502623 
L 320.604435 287.433341 
" style="fill:none;stroke:#1f77b4;stroke-width:1.5;"/>
    <path clip-path="url(#p2733d070c1)" d="M 323.85098 293.019431 
L 323.85098 288.021857 
" style="fill:none;stroke:#1f77b4;stroke-width:1.5;"/>
    <path clip-path="url(#p2733d070c1)" d="M 327.097526 291.114604 
L 327.097526 285.171896 
" style="fill:none;stroke:#1f77b4;stroke-width:1.5;"/>
    <path clip-path="url(#p2733d070c1)" d="M 330.344071 288.453664 
L 330.344071 281.901017 
" style="fill:none;stroke:#1f77b4;stroke-width:1.5;"/>
    <path clip-path="url(#p2733d070c1)" d="M 333.590616 281.547904 
L 333.590616 273.143172 
" style="fill:none;stroke:#1f77b4;stroke-width:1.5;"/>
    <path clip-path="url(#p2733d070c1)" d="M 336.837162 278.304607 
L 336.837162 269.271893 
" style="fill:none;stroke:#1f77b4;stroke-width:1.5;"/>
    <path clip-path="url(#p2733d070c1)" d="M 340.083707 263.449169 
L 340.083707 251.852186 
" style="fill:none;stroke:#1f77b4;stroke-width:1.5;"/>
    <path clip-path="url(#p2733d070c1)" d="M 343.330253 265.243371 
L 343.330253 254.211704 
" style="fill:none;stroke:#1f77b4;stroke-width:1.5;"/>
    <path clip-path="url(#p2733d070c1)" d="M 346.576798 267.037473 
L 346.576798 256.111611 
" style="fill:none;stroke:#1f77b4;stroke-width:1.5;"/>
    <path clip-path="url(#p2733d070c1)" d="M 349.823344 276.77243 
L 349.823344 267.872245 
" style="fill:none;stroke:#1f77b4;stroke-width:1.5;"/>
    <path clip-path="url(#p2733d070c1)" d="M 353.069889 285.364888 
L 353.069889 277.728347 
" style="fill:none;stroke:#1f77b4;stroke-width:1.5;"/>
    <path clip-path="url(#p2733d070c1)" d="M 356.316435 293.07016 
L 356.316435 288.127732 
" style="fill:none;stroke:#1f77b4;stroke-width:1.5;"/>
    <path clip-path="url(#p2733d070c1)" d="M 359.56298 294.704251 
L 359.56298 290.686573 
" style="fill:none;stroke:#1f77b4;stroke-width:1.5;"/>
    <path clip-path="url(#p2733d070c1)" d="M 362.809526 294.689013 
L 362.809526 290.650047 
" style="fill:none;stroke:#1f77b4;stroke-width:1.5;"/>
    <path clip-path="url(#p2733d070c1)" d="M 366.056071 293.944319 
L 366.056071 289.496332 
" style="fill:none;stroke:#1f77b4;stroke-width:1.5;"/>
    <path clip-path="url(#p2733d070c1)" d="M 369.302616 291.724966 
L 369.302616 286.336062 
" style="fill:none;stroke:#1f77b4;stroke-width:1.5;"/>
    <path clip-path="url(#p2733d070c1)" d="M 372.549162 294.741643 
L 372.549162 290.776219 
" style="fill:none;stroke:#1f77b4;stroke-width:1.5;"/>
    <path clip-path="url(#p2733d070c1)" d="M 375.795707 292.73609 
L 375.795707 287.897801 
" style="fill:none;stroke:#1f77b4;stroke-width:1.5;"/>
    <path clip-path="url(#p2733d070c1)" d="M 379.042253 295.297669 
L 379.042253 291.528775 
" style="fill:none;stroke:#1f77b4;stroke-width:1.5;"/>
    <path clip-path="url(#p2733d070c1)" d="M 382.288798 295.404725 
L 382.288798 291.813459 
" style="fill:none;stroke:#1f77b4;stroke-width:1.5;"/>
    <path clip-path="url(#p2733d070c1)" d="M 385.535344 293.41721 
L 385.535344 288.852555 
" style="fill:none;stroke:#1f77b4;stroke-width:1.5;"/>
    <path clip-path="url(#p2733d070c1)" d="M 388.781889 294.518577 
L 388.781889 290.241652 
" style="fill:none;stroke:#1f77b4;stroke-width:1.5;"/>
    <path clip-path="url(#p2733d070c1)" d="M 392.028435 293.144158 
L 392.028435 288.282205 
" style="fill:none;stroke:#1f77b4;stroke-width:1.5;"/>
    <path clip-path="url(#p2733d070c1)" d="M 395.27498 293.307662 
L 395.27498 288.623666 
" style="fill:none;stroke:#1f77b4;stroke-width:1.5;"/>
    <path clip-path="url(#p2733d070c1)" d="M 398.521526 293.874667 
L 398.521526 289.341833 
" style="fill:none;stroke:#1f77b4;stroke-width:1.5;"/>
    <path clip-path="url(#p2733d070c1)" d="M 401.768071 293.833644 
L 401.768071 289.250856 
" style="fill:none;stroke:#1f77b4;stroke-width:1.5;"/>
    <path clip-path="url(#p2733d070c1)" d="M 405.014616 294.634373 
L 405.014616 290.519084 
" style="fill:none;stroke:#1f77b4;stroke-width:1.5;"/>
   </g>
   <g id="line2d_29">
    <path clip-path="url(#p2733d070c1)" d="M 80.360071 288.388598 
L 83.606616 288.794566 
L 86.853162 291.440453 
L 90.099707 287.979154 
L 93.346253 255.845595 
L 96.592798 210.75284 
L 99.839344 98.764721 
L 103.085889 68.582521 
L 106.332435 102.016239 
L 109.57898 185.112536 
L 112.825526 245.196829 
L 116.072071 278.10825 
L 119.318616 287.56905 
L 122.565162 286.951685 
L 125.811707 288.30825 
L 129.058253 288.441391 
L 132.304798 291.24825 
L 135.551344 288.283741 
L 138.797889 291.60825 
L 142.044435 290.675523 
L 145.29098 290.731857 
L 148.537526 291.558887 
L 151.784071 288.866712 
L 155.030616 291.575432 
L 158.277162 290.242203 
L 161.523707 286.577274 
L 164.770253 285.211327 
L 168.016798 287.873125 
L 171.263344 281.353934 
L 174.509889 260.636501 
L 177.756435 200.604825 
L 181.00298 131.67059 
L 184.249526 109.08238 
L 187.496071 171.77163 
L 190.742616 251.203875 
L 193.989162 270.19013 
L 197.235707 278.923875 
L 200.482253 289.12137 
L 203.728798 289.445481 
L 206.975344 287.62575 
L 210.221889 292.904798 
L 213.468435 290.232121 
L 216.71498 287.34729 
L 219.961526 291.858355 
L 223.208071 287.560365 
L 226.454616 289.947605 
L 229.701162 290.841798 
L 232.947707 290.127148 
L 236.194253 288.082884 
L 239.440798 289.561131 
L 242.687344 292.198776 
L 245.933889 286.340703 
L 249.180435 282.833612 
L 252.42698 275.8944 
L 255.673526 252.51254 
L 258.920071 202.185424 
L 262.166616 143.987045 
L 265.413162 145.345597 
L 268.659707 191.880558 
L 271.906253 256.200541 
L 275.152798 281.311205 
L 278.399344 285.411385 
L 281.645889 288.30825 
L 284.892435 285.699596 
L 288.13898 291.440453 
L 291.385526 287.096447 
L 294.632071 288.356882 
L 297.878616 286.340703 
L 301.125162 293.535167 
L 304.371707 291.101738 
L 307.618253 291.591886 
L 310.864798 288.13391 
L 314.111344 292.970635 
L 317.357889 290.00841 
L 320.604435 289.967982 
L 323.85098 290.520644 
L 327.097526 288.14325 
L 330.344071 285.177341 
L 333.590616 277.345538 
L 336.837162 273.78825 
L 340.083707 257.650678 
L 343.330253 259.727538 
L 346.576798 261.574542 
L 349.823344 272.322337 
L 353.069889 281.546617 
L 356.316435 290.598946 
L 359.56298 292.695412 
L 362.809526 292.66953 
L 366.056071 291.720325 
L 369.302616 289.030514 
L 372.549162 292.758931 
L 375.795707 290.316946 
L 379.042253 293.413222 
L 382.288798 293.609092 
L 385.535344 291.134882 
L 388.781889 292.380114 
L 392.028435 290.713182 
L 395.27498 290.965664 
L 398.521526 291.60825 
L 401.768071 291.54225 
L 405.014616 292.576728 
" style="fill:none;stroke:#1f77b4;stroke-linecap:square;stroke-width:1.5;"/>
    <defs>
     <path d="M 0 3 
C 0.795609 3 1.55874 2.683901 2.12132 2.12132 
C 2.683901 1.55874 3 0.795609 3 0 
C 3 -0.795609 2.683901 -1.55874 2.12132 -2.12132 
C 1.55874 -2.683901 0.795609 -3 0 -3 
C -0.795609 -3 -1.55874 -2.683901 -2.12132 -2.12132 
C -2.683901 -1.55874 -3 -0.795609 -3 0 
C -3 0.795609 -2.683901 1.55874 -2.12132 2.12132 
C -1.55874 2.683901 -0.795609 3 0 3 
z
" id="mcb2457e3ba" style="stroke:#1f77b4;"/>
    </defs>
    <g clip-path="url(#p2733d070c1)">
     <use style="fill:#1f77b4;stroke:#1f77b4;" x="80.360071" xlink:href="#mcb2457e3ba" y="288.388598"/>
     <use style="fill:#1f77b4;stroke:#1f77b4;" x="83.606616" xlink:href="#mcb2457e3ba" y="288.794566"/>
     <use style="fill:#1f77b4;stroke:#1f77b4;" x="86.853162" xlink:href="#mcb2457e3ba" y="291.440453"/>
     <use style="fill:#1f77b4;stroke:#1f77b4;" x="90.099707" xlink:href="#mcb2457e3ba" y="287.979154"/>
     <use style="fill:#1f77b4;stroke:#1f77b4;" x="93.346253" xlink:href="#mcb2457e3ba" y="255.845595"/>
     <use style="fill:#1f77b4;stroke:#1f77b4;" x="96.592798" xlink:href="#mcb2457e3ba" y="210.75284"/>
     <use style="fill:#1f77b4;stroke:#1f77b4;" x="99.839344" xlink:href="#mcb2457e3ba" y="98.764721"/>
     <use style="fill:#1f77b4;stroke:#1f77b4;" x="103.085889" xlink:href="#mcb2457e3ba" y="68.582521"/>
     <use style="fill:#1f77b4;stroke:#1f77b4;" x="106.332435" xlink:href="#mcb2457e3ba" y="102.016239"/>
     <use style="fill:#1f77b4;stroke:#1f77b4;" x="109.57898" xlink:href="#mcb2457e3ba" y="185.112536"/>
     <use style="fill:#1f77b4;stroke:#1f77b4;" x="112.825526" xlink:href="#mcb2457e3ba" y="245.196829"/>
     <use style="fill:#1f77b4;stroke:#1f77b4;" x="116.072071" xlink:href="#mcb2457e3ba" y="278.10825"/>
     <use style="fill:#1f77b4;stroke:#1f77b4;" x="119.318616" xlink:href="#mcb2457e3ba" y="287.56905"/>
     <use style="fill:#1f77b4;stroke:#1f77b4;" x="122.565162" xlink:href="#mcb2457e3ba" y="286.951685"/>
     <use style="fill:#1f77b4;stroke:#1f77b4;" x="125.811707" xlink:href="#mcb2457e3ba" y="288.30825"/>
     <use style="fill:#1f77b4;stroke:#1f77b4;" x="129.058253" xlink:href="#mcb2457e3ba" y="288.441391"/>
     <use style="fill:#1f77b4;stroke:#1f77b4;" x="132.304798" xlink:href="#mcb2457e3ba" y="291.24825"/>
     <use style="fill:#1f77b4;stroke:#1f77b4;" x="135.551344" xlink:href="#mcb2457e3ba" y="288.283741"/>
     <use style="fill:#1f77b4;stroke:#1f77b4;" x="138.797889" xlink:href="#mcb2457e3ba" y="291.60825"/>
     <use style="fill:#1f77b4;stroke:#1f77b4;" x="142.044435" xlink:href="#mcb2457e3ba" y="290.675523"/>
     <use style="fill:#1f77b4;stroke:#1f77b4;" x="145.29098" xlink:href="#mcb2457e3ba" y="290.731857"/>
     <use style="fill:#1f77b4;stroke:#1f77b4;" x="148.537526" xlink:href="#mcb2457e3ba" y="291.558887"/>
     <use style="fill:#1f77b4;stroke:#1f77b4;" x="151.784071" xlink:href="#mcb2457e3ba" y="288.866712"/>
     <use style="fill:#1f77b4;stroke:#1f77b4;" x="155.030616" xlink:href="#mcb2457e3ba" y="291.575432"/>
     <use style="fill:#1f77b4;stroke:#1f77b4;" x="158.277162" xlink:href="#mcb2457e3ba" y="290.242203"/>
     <use style="fill:#1f77b4;stroke:#1f77b4;" x="161.523707" xlink:href="#mcb2457e3ba" y="286.577274"/>
     <use style="fill:#1f77b4;stroke:#1f77b4;" x="164.770253" xlink:href="#mcb2457e3ba" y="285.211327"/>
     <use style="fill:#1f77b4;stroke:#1f77b4;" x="168.016798" xlink:href="#mcb2457e3ba" y="287.873125"/>
     <use style="fill:#1f77b4;stroke:#1f77b4;" x="171.263344" xlink:href="#mcb2457e3ba" y="281.353934"/>
     <use style="fill:#1f77b4;stroke:#1f77b4;" x="174.509889" xlink:href="#mcb2457e3ba" y="260.636501"/>
     <use style="fill:#1f77b4;stroke:#1f77b4;" x="177.756435" xlink:href="#mcb2457e3ba" y="200.604825"/>
     <use style="fill:#1f77b4;stroke:#1f77b4;" x="181.00298" xlink:href="#mcb2457e3ba" y="131.67059"/>
     <use style="fill:#1f77b4;stroke:#1f77b4;" x="184.249526" xlink:href="#mcb2457e3ba" y="109.08238"/>
     <use style="fill:#1f77b4;stroke:#1f77b4;" x="187.496071" xlink:href="#mcb2457e3ba" y="171.77163"/>
     <use style="fill:#1f77b4;stroke:#1f77b4;" x="190.742616" xlink:href="#mcb2457e3ba" y="251.203875"/>
     <use style="fill:#1f77b4;stroke:#1f77b4;" x="193.989162" xlink:href="#mcb2457e3ba" y="270.19013"/>
     <use style="fill:#1f77b4;stroke:#1f77b4;" x="197.235707" xlink:href="#mcb2457e3ba" y="278.923875"/>
     <use style="fill:#1f77b4;stroke:#1f77b4;" x="200.482253" xlink:href="#mcb2457e3ba" y="289.12137"/>
     <use style="fill:#1f77b4;stroke:#1f77b4;" x="203.728798" xlink:href="#mcb2457e3ba" y="289.445481"/>
     <use style="fill:#1f77b4;stroke:#1f77b4;" x="206.975344" xlink:href="#mcb2457e3ba" y="287.62575"/>
     <use style="fill:#1f77b4;stroke:#1f77b4;" x="210.221889" xlink:href="#mcb2457e3ba" y="292.904798"/>
     <use style="fill:#1f77b4;stroke:#1f77b4;" x="213.468435" xlink:href="#mcb2457e3ba" y="290.232121"/>
     <use style="fill:#1f77b4;stroke:#1f77b4;" x="216.71498" xlink:href="#mcb2457e3ba" y="287.34729"/>
     <use style="fill:#1f77b4;stroke:#1f77b4;" x="219.961526" xlink:href="#mcb2457e3ba" y="291.858355"/>
     <use style="fill:#1f77b4;stroke:#1f77b4;" x="223.208071" xlink:href="#mcb2457e3ba" y="287.560365"/>
     <use style="fill:#1f77b4;stroke:#1f77b4;" x="226.454616" xlink:href="#mcb2457e3ba" y="289.947605"/>
     <use style="fill:#1f77b4;stroke:#1f77b4;" x="229.701162" xlink:href="#mcb2457e3ba" y="290.841798"/>
     <use style="fill:#1f77b4;stroke:#1f77b4;" x="232.947707" xlink:href="#mcb2457e3ba" y="290.127148"/>
     <use style="fill:#1f77b4;stroke:#1f77b4;" x="236.194253" xlink:href="#mcb2457e3ba" y="288.082884"/>
     <use style="fill:#1f77b4;stroke:#1f77b4;" x="239.440798" xlink:href="#mcb2457e3ba" y="289.561131"/>
     <use style="fill:#1f77b4;stroke:#1f77b4;" x="242.687344" xlink:href="#mcb2457e3ba" y="292.198776"/>
     <use style="fill:#1f77b4;stroke:#1f77b4;" x="245.933889" xlink:href="#mcb2457e3ba" y="286.340703"/>
     <use style="fill:#1f77b4;stroke:#1f77b4;" x="249.180435" xlink:href="#mcb2457e3ba" y="282.833612"/>
     <use style="fill:#1f77b4;stroke:#1f77b4;" x="252.42698" xlink:href="#mcb2457e3ba" y="275.8944"/>
     <use style="fill:#1f77b4;stroke:#1f77b4;" x="255.673526" xlink:href="#mcb2457e3ba" y="252.51254"/>
     <use style="fill:#1f77b4;stroke:#1f77b4;" x="258.920071" xlink:href="#mcb2457e3ba" y="202.185424"/>
     <use style="fill:#1f77b4;stroke:#1f77b4;" x="262.166616" xlink:href="#mcb2457e3ba" y="143.987045"/>
     <use style="fill:#1f77b4;stroke:#1f77b4;" x="265.413162" xlink:href="#mcb2457e3ba" y="145.345597"/>
     <use style="fill:#1f77b4;stroke:#1f77b4;" x="268.659707" xlink:href="#mcb2457e3ba" y="191.880558"/>
     <use style="fill:#1f77b4;stroke:#1f77b4;" x="271.906253" xlink:href="#mcb2457e3ba" y="256.200541"/>
     <use style="fill:#1f77b4;stroke:#1f77b4;" x="275.152798" xlink:href="#mcb2457e3ba" y="281.311205"/>
     <use style="fill:#1f77b4;stroke:#1f77b4;" x="278.399344" xlink:href="#mcb2457e3ba" y="285.411385"/>
     <use style="fill:#1f77b4;stroke:#1f77b4;" x="281.645889" xlink:href="#mcb2457e3ba" y="288.30825"/>
     <use style="fill:#1f77b4;stroke:#1f77b4;" x="284.892435" xlink:href="#mcb2457e3ba" y="285.699596"/>
     <use style="fill:#1f77b4;stroke:#1f77b4;" x="288.13898" xlink:href="#mcb2457e3ba" y="291.440453"/>
     <use style="fill:#1f77b4;stroke:#1f77b4;" x="291.385526" xlink:href="#mcb2457e3ba" y="287.096447"/>
     <use style="fill:#1f77b4;stroke:#1f77b4;" x="294.632071" xlink:href="#mcb2457e3ba" y="288.356882"/>
     <use style="fill:#1f77b4;stroke:#1f77b4;" x="297.878616" xlink:href="#mcb2457e3ba" y="286.340703"/>
     <use style="fill:#1f77b4;stroke:#1f77b4;" x="301.125162" xlink:href="#mcb2457e3ba" y="293.535167"/>
     <use style="fill:#1f77b4;stroke:#1f77b4;" x="304.371707" xlink:href="#mcb2457e3ba" y="291.101738"/>
     <use style="fill:#1f77b4;stroke:#1f77b4;" x="307.618253" xlink:href="#mcb2457e3ba" y="291.591886"/>
     <use style="fill:#1f77b4;stroke:#1f77b4;" x="310.864798" xlink:href="#mcb2457e3ba" y="288.13391"/>
     <use style="fill:#1f77b4;stroke:#1f77b4;" x="314.111344" xlink:href="#mcb2457e3ba" y="292.970635"/>
     <use style="fill:#1f77b4;stroke:#1f77b4;" x="317.357889" xlink:href="#mcb2457e3ba" y="290.00841"/>
     <use style="fill:#1f77b4;stroke:#1f77b4;" x="320.604435" xlink:href="#mcb2457e3ba" y="289.967982"/>
     <use style="fill:#1f77b4;stroke:#1f77b4;" x="323.85098" xlink:href="#mcb2457e3ba" y="290.520644"/>
     <use style="fill:#1f77b4;stroke:#1f77b4;" x="327.097526" xlink:href="#mcb2457e3ba" y="288.14325"/>
     <use style="fill:#1f77b4;stroke:#1f77b4;" x="330.344071" xlink:href="#mcb2457e3ba" y="285.177341"/>
     <use style="fill:#1f77b4;stroke:#1f77b4;" x="333.590616" xlink:href="#mcb2457e3ba" y="277.345538"/>
     <use style="fill:#1f77b4;stroke:#1f77b4;" x="336.837162" xlink:href="#mcb2457e3ba" y="273.78825"/>
     <use style="fill:#1f77b4;stroke:#1f77b4;" x="340.083707" xlink:href="#mcb2457e3ba" y="257.650678"/>
     <use style="fill:#1f77b4;stroke:#1f77b4;" x="343.330253" xlink:href="#mcb2457e3ba" y="259.727538"/>
     <use style="fill:#1f77b4;stroke:#1f77b4;" x="346.576798" xlink:href="#mcb2457e3ba" y="261.574542"/>
     <use style="fill:#1f77b4;stroke:#1f77b4;" x="349.823344" xlink:href="#mcb2457e3ba" y="272.322337"/>
     <use style="fill:#1f77b4;stroke:#1f77b4;" x="353.069889" xlink:href="#mcb2457e3ba" y="281.546617"/>
     <use style="fill:#1f77b4;stroke:#1f77b4;" x="356.316435" xlink:href="#mcb2457e3ba" y="290.598946"/>
     <use style="fill:#1f77b4;stroke:#1f77b4;" x="359.56298" xlink:href="#mcb2457e3ba" y="292.695412"/>
     <use style="fill:#1f77b4;stroke:#1f77b4;" x="362.809526" xlink:href="#mcb2457e3ba" y="292.66953"/>
     <use style="fill:#1f77b4;stroke:#1f77b4;" x="366.056071" xlink:href="#mcb2457e3ba" y="291.720325"/>
     <use style="fill:#1f77b4;stroke:#1f77b4;" x="369.302616" xlink:href="#mcb2457e3ba" y="289.030514"/>
     <use style="fill:#1f77b4;stroke:#1f77b4;" x="372.549162" xlink:href="#mcb2457e3ba" y="292.758931"/>
     <use style="fill:#1f77b4;stroke:#1f77b4;" x="375.795707" xlink:href="#mcb2457e3ba" y="290.316946"/>
     <use style="fill:#1f77b4;stroke:#1f77b4;" x="379.042253" xlink:href="#mcb2457e3ba" y="293.413222"/>
     <use style="fill:#1f77b4;stroke:#1f77b4;" x="382.288798" xlink:href="#mcb2457e3ba" y="293.609092"/>
     <use style="fill:#1f77b4;stroke:#1f77b4;" x="385.535344" xlink:href="#mcb2457e3ba" y="291.134882"/>
     <use style="fill:#1f77b4;stroke:#1f77b4;" x="388.781889" xlink:href="#mcb2457e3ba" y="292.380114"/>
     <use style="fill:#1f77b4;stroke:#1f77b4;" x="392.028435" xlink:href="#mcb2457e3ba" y="290.713182"/>
     <use style="fill:#1f77b4;stroke:#1f77b4;" x="395.27498" xlink:href="#mcb2457e3ba" y="290.965664"/>
     <use style="fill:#1f77b4;stroke:#1f77b4;" x="398.521526" xlink:href="#mcb2457e3ba" y="291.60825"/>
     <use style="fill:#1f77b4;stroke:#1f77b4;" x="401.768071" xlink:href="#mcb2457e3ba" y="291.54225"/>
     <use style="fill:#1f77b4;stroke:#1f77b4;" x="405.014616" xlink:href="#mcb2457e3ba" y="292.576728"/>
    </g>
   </g>
   <g id="patch_3">
    <path d="M 64.127344 297.54825 
L 64.127344 31.43625 
" style="fill:none;stroke:#000000;stroke-linecap:square;stroke-linejoin:miter;stroke-width:0.8;"/>
   </g>
   <g id="patch_4">
    <path d="M 421.247344 297.54825 
L 421.247344 31.43625 
" style="fill:none;stroke:#000000;stroke-linecap:square;stroke-linejoin:miter;stroke-width:0.8;"/>
   </g>
   <g id="patch_5">
    <path d="M 64.127344 297.54825 
L 421.247344 297.54825 
" style="fill:none;stroke:#000000;stroke-linecap:square;stroke-linejoin:miter;stroke-width:0.8;"/>
   </g>
   <g id="patch_6">
    <path d="M 64.127344 31.43625 
L 421.247344 31.43625 
" style="fill:none;stroke:#000000;stroke-linecap:square;stroke-linejoin:miter;stroke-width:0.8;"/>
   </g>
   <g id="text_17">
    <!-- Y spectrum -->
    <defs>
     <path d="M -0.203125 72.90625 
L 10.40625 72.90625 
L 30.609375 42.921875 
L 50.6875 72.90625 
L 61.28125 72.90625 
L 35.5 34.71875 
L 35.5 0 
L 25.59375 0 
L 25.59375 34.71875 
z
" id="DejaVuSans-59"/>
     <path d="M 44.28125 53.078125 
L 44.28125 44.578125 
Q 40.484375 46.53125 36.375 47.5 
Q 32.28125 48.484375 27.875 48.484375 
Q 21.1875 48.484375 17.84375 46.4375 
Q 14.5 44.390625 14.5 40.28125 
Q 14.5 37.15625 16.890625 35.375 
Q 19.28125 33.59375 26.515625 31.984375 
L 29.59375 31.296875 
Q 39.15625 29.25 43.1875 25.515625 
Q 47.21875 21.78125 47.21875 15.09375 
Q 47.21875 7.46875 41.1875 3.015625 
Q 35.15625 -1.421875 24.609375 -1.421875 
Q 20.21875 -1.421875 15.453125 -0.5625 
Q 10.6875 0.296875 5.421875 2 
L 5.421875 11.28125 
Q 10.40625 8.6875 15.234375 7.390625 
Q 20.0625 6.109375 24.8125 6.109375 
Q 31.15625 6.109375 34.5625 8.28125 
Q 37.984375 10.453125 37.984375 14.40625 
Q 37.984375 18.0625 35.515625 20.015625 
Q 33.0625 21.96875 24.703125 23.78125 
L 21.578125 24.515625 
Q 13.234375 26.265625 9.515625 29.90625 
Q 5.8125 33.546875 5.8125 39.890625 
Q 5.8125 47.609375 11.28125 51.796875 
Q 16.75 56 26.8125 56 
Q 31.78125 56 36.171875 55.265625 
Q 40.578125 54.546875 44.28125 53.078125 
z
" id="DejaVuSans-73"/>
     <path d="M 18.109375 8.203125 
L 18.109375 -20.796875 
L 9.078125 -20.796875 
L 9.078125 54.6875 
L 18.109375 54.6875 
L 18.109375 46.390625 
Q 20.953125 51.265625 25.265625 53.625 
Q 29.59375 56 35.59375 56 
Q 45.5625 56 51.78125 48.09375 
Q 58.015625 40.1875 58.015625 27.296875 
Q 58.015625 14.40625 51.78125 6.484375 
Q 45.5625 -1.421875 35.59375 -1.421875 
Q 29.59375 -1.421875 25.265625 0.953125 
Q 20.953125 3.328125 18.109375 8.203125 
z
M 48.6875 27.296875 
Q 48.6875 37.203125 44.609375 42.84375 
Q 40.53125 48.484375 33.40625 48.484375 
Q 26.265625 48.484375 22.1875 42.84375 
Q 18.109375 37.203125 18.109375 27.296875 
Q 18.109375 17.390625 22.1875 11.75 
Q 26.265625 6.109375 33.40625 6.109375 
Q 40.53125 6.109375 44.609375 11.75 
Q 48.6875 17.390625 48.6875 27.296875 
z
" id="DejaVuSans-70"/>
     <path d="M 18.3125 70.21875 
L 18.3125 54.6875 
L 36.8125 54.6875 
L 36.8125 47.703125 
L 18.3125 47.703125 
L 18.3125 18.015625 
Q 18.3125 11.328125 20.140625 9.421875 
Q 21.96875 7.515625 27.59375 7.515625 
L 36.8125 7.515625 
L 36.8125 0 
L 27.59375 0 
Q 17.1875 0 13.234375 3.875 
Q 9.28125 7.765625 9.28125 18.015625 
L 9.28125 47.703125 
L 2.6875 47.703125 
L 2.6875 54.6875 
L 9.28125 54.6875 
L 9.28125 70.21875 
z
" id="DejaVuSans-74"/>
     <path d="M 52 44.1875 
Q 55.375 50.25 60.0625 53.125 
Q 64.75 56 71.09375 56 
Q 79.640625 56 84.28125 50.015625 
Q 88.921875 44.046875 88.921875 33.015625 
L 88.921875 0 
L 79.890625 0 
L 79.890625 32.71875 
Q 79.890625 40.578125 77.09375 44.375 
Q 74.3125 48.1875 68.609375 48.1875 
Q 61.625 48.1875 57.5625 43.546875 
Q 53.515625 38.921875 53.515625 30.90625 
L 53.515625 0 
L 44.484375 0 
L 44.484375 32.71875 
Q 44.484375 40.625 41.703125 44.40625 
Q 38.921875 48.1875 33.109375 48.1875 
Q 26.21875 48.1875 22.15625 43.53125 
Q 18.109375 38.875 18.109375 30.90625 
L 18.109375 0 
L 9.078125 0 
L 9.078125 54.6875 
L 18.109375 54.6875 
L 18.109375 46.1875 
Q 21.1875 51.21875 25.484375 53.609375 
Q 29.78125 56 35.6875 56 
Q 41.65625 56 45.828125 52.96875 
Q 50 49.953125 52 44.1875 
z
" id="DejaVuSans-6d"/>
    </defs>
    <g transform="translate(174.761719 25.43625)scale(0.24 -0.24)">
     <use xlink:href="#DejaVuSans-59"/>
     <use x="61.083984" xlink:href="#DejaVuSans-20"/>
     <use x="92.871094" xlink:href="#DejaVuSans-73"/>
     <use x="144.970703" xlink:href="#DejaVuSans-70"/>
     <use x="208.447266" xlink:href="#DejaVuSans-65"/>
     <use x="269.970703" xlink:href="#DejaVuSans-63"/>
     <use x="324.951172" xlink:href="#DejaVuSans-74"/>
     <use x="364.160156" xlink:href="#DejaVuSans-72"/>
     <use x="405.273438" xlink:href="#DejaVuSans-75"/>
     <use x="468.652344" xlink:href="#DejaVuSans-6d"/>
    </g>
   </g>
  </g>
 </g>
 <defs>
  <clipPath id="p2733d070c1">
   <rect height="266.112" width="357.12" x="64.127344" y="31.43625"/>
  </clipPath>
 </defs>
</svg>
