<?xml version="1.0" encoding="utf-8" standalone="no"?>
<!DOCTYPE svg PUBLIC "-//W3C//DTD SVG 1.1//EN"
  "http://www.w3.org/Graphics/SVG/1.1/DTD/svg11.dtd">
<!-- Created with matplotlib (http://matplotlib.org/) -->
<svg height="349pt" version="1.1" viewBox="0 0 431 349" width="431pt" xmlns="http://www.w3.org/2000/svg" xmlns:xlink="http://www.w3.org/1999/xlink">
 <defs>
  <style type="text/css">
*{stroke-linecap:butt;stroke-linejoin:round;}
  </style>
 </defs>
 <g id="figure_1">
  <g id="patch_1">
   <path d="M 0 349.621687 
L 431.947344 349.621687 
L 431.947344 0 
L 0 0 
z
" style="fill:none;"/>
  </g>
  <g id="axes_1">
   <g id="patch_2">
    <path d="M 64.127344 297.54825 
L 421.247344 297.54825 
L 421.247344 31.43625 
L 64.127344 31.43625 
z
" style="fill:none;"/>
   </g>
   <g id="matplotlib.axis_1">
    <g id="xtick_1">
     <g id="line2d_1">
      <path clip-path="url(#p2733d070c1)" d="M 86.055765 297.54825 
L 86.055765 31.43625 
" style="fill:none;stroke:#b0b0b0;stroke-linecap:square;stroke-width:0.8;"/>
     </g>
     <g id="line2d_2">
      <defs>
       <path d="M 0 0 
L 0 3.5 
" id="m005f0a59be" style="stroke:#000000;stroke-width:0.8;"/>
      </defs>
      <g>
       <use style="stroke:#000000;stroke-width:0.8;" x="86.055765" xlink:href="#m005f0a59be" y="297.54825"/>
      </g>
     </g>
     <g id="text_1">
      <!-- 18.5 -->
      <defs>
       <path d="M 11.71875 12.984375 
L 28.328125 12.984375 
L 28.328125 60.109375 
L 11.28125 56.59375 
L 11.28125 69.390625 
L 28.21875 72.90625 
L 46.09375 72.90625 
L 46.09375 12.984375 
L 62.703125 12.984375 
L 62.703125 0 
L 11.71875 0 
z
" id="DejaVuSans-Bold-31"/>
       <path d="M 34.8125 32.625 
Q 29.546875 32.625 26.703125 29.734375 
Q 23.875 26.859375 23.875 21.484375 
Q 23.875 16.109375 26.703125 13.25 
Q 29.546875 10.40625 34.8125 10.40625 
Q 40.046875 10.40625 42.828125 13.25 
Q 45.609375 16.109375 45.609375 21.484375 
Q 45.609375 26.90625 42.828125 29.765625 
Q 40.046875 32.625 34.8125 32.625 
z
M 21.09375 38.8125 
Q 14.453125 40.828125 11.078125 44.96875 
Q 7.71875 49.125 7.71875 55.328125 
Q 7.71875 64.546875 14.59375 69.375 
Q 21.484375 74.21875 34.8125 74.21875 
Q 48.046875 74.21875 54.921875 69.40625 
Q 61.8125 64.59375 61.8125 55.328125 
Q 61.8125 49.125 58.421875 44.96875 
Q 55.03125 40.828125 48.390625 38.8125 
Q 55.8125 36.765625 59.59375 32.15625 
Q 63.375 27.546875 63.375 20.515625 
Q 63.375 9.671875 56.171875 4.125 
Q 48.96875 -1.421875 34.8125 -1.421875 
Q 20.609375 -1.421875 13.359375 4.125 
Q 6.109375 9.671875 6.109375 20.515625 
Q 6.109375 27.546875 9.890625 32.15625 
Q 13.671875 36.765625 21.09375 38.8125 
z
M 25.484375 53.421875 
Q 25.484375 49.078125 27.90625 46.734375 
Q 30.328125 44.390625 34.8125 44.390625 
Q 39.203125 44.390625 41.59375 46.734375 
Q 44 49.078125 44 53.421875 
Q 44 57.765625 41.59375 60.078125 
Q 39.203125 62.40625 34.8125 62.40625 
Q 30.328125 62.40625 27.90625 60.0625 
Q 25.484375 57.71875 25.484375 53.421875 
z
" id="DejaVuSans-Bold-38"/>
       <path d="M 10.203125 18.890625 
L 27.78125 18.890625 
L 27.78125 0 
L 10.203125 0 
z
" id="DejaVuSans-Bold-2e"/>
       <path d="M 10.59375 72.90625 
L 57.328125 72.90625 
L 57.328125 59.078125 
L 25.59375 59.078125 
L 25.59375 47.796875 
Q 27.734375 48.390625 29.90625 48.703125 
Q 32.078125 49.03125 34.421875 49.03125 
Q 47.75 49.03125 55.171875 42.359375 
Q 62.59375 35.6875 62.59375 23.78125 
Q 62.59375 11.96875 54.515625 5.265625 
Q 46.4375 -1.421875 32.078125 -1.421875 
Q 25.875 -1.421875 19.796875 -0.21875 
Q 13.71875 0.984375 7.71875 3.421875 
L 7.71875 18.21875 
Q 13.671875 14.796875 19.015625 13.078125 
Q 24.359375 11.375 29.109375 11.375 
Q 35.9375 11.375 39.859375 14.71875 
Q 43.796875 18.0625 43.796875 23.78125 
Q 43.796875 29.546875 39.859375 32.859375 
Q 35.9375 36.1875 29.109375 36.1875 
Q 25.046875 36.1875 20.453125 35.125 
Q 15.875 34.078125 10.59375 31.890625 
z
" id="DejaVuSans-Bold-35"/>
      </defs>
      <g transform="translate(67.551859 315.945906)scale(0.15 -0.15)">
       <use xlink:href="#DejaVuSans-Bold-31"/>
       <use x="69.580078" xlink:href="#DejaVuSans-Bold-38"/>
       <use x="139.160156" xlink:href="#DejaVuSans-Bold-2e"/>
       <use x="177.148438" xlink:href="#DejaVuSans-Bold-35"/>
      </g>
     </g>
    </g>
    <g id="xtick_2">
     <g id="line2d_3">
      <path clip-path="url(#p2733d070c1)" d="M 143.012703 297.54825 
L 143.012703 31.43625 
" style="fill:none;stroke:#b0b0b0;stroke-linecap:square;stroke-width:0.8;"/>
     </g>
     <g id="line2d_4">
      <g>
       <use style="stroke:#000000;stroke-width:0.8;" x="143.012703" xlink:href="#m005f0a59be" y="297.54825"/>
      </g>
     </g>
     <g id="text_2">
      <!-- 18.6 -->
      <defs>
       <path d="M 36.1875 35.984375 
Q 31.25 35.984375 28.78125 32.78125 
Q 26.3125 29.59375 26.3125 23.1875 
Q 26.3125 16.796875 28.78125 13.59375 
Q 31.25 10.40625 36.1875 10.40625 
Q 41.15625 10.40625 43.625 13.59375 
Q 46.09375 16.796875 46.09375 23.1875 
Q 46.09375 29.59375 43.625 32.78125 
Q 41.15625 35.984375 36.1875 35.984375 
z
M 59.421875 71 
L 59.421875 57.515625 
Q 54.78125 59.71875 50.671875 60.765625 
Q 46.578125 61.8125 42.671875 61.8125 
Q 34.28125 61.8125 29.59375 57.140625 
Q 24.90625 52.484375 24.125 43.3125 
Q 27.34375 45.703125 31.09375 46.890625 
Q 34.859375 48.09375 39.3125 48.09375 
Q 50.484375 48.09375 57.34375 41.546875 
Q 64.203125 35.015625 64.203125 24.421875 
Q 64.203125 12.703125 56.53125 5.640625 
Q 48.875 -1.421875 35.984375 -1.421875 
Q 21.78125 -1.421875 13.984375 8.171875 
Q 6.203125 17.78125 6.203125 35.40625 
Q 6.203125 53.46875 15.3125 63.796875 
Q 24.421875 74.125 40.28125 74.125 
Q 45.3125 74.125 50.046875 73.34375 
Q 54.78125 72.5625 59.421875 71 
z
" id="DejaVuSans-Bold-36"/>
      </defs>
      <g transform="translate(124.508796 315.945906)scale(0.15 -0.15)">
       <use xlink:href="#DejaVuSans-Bold-31"/>
       <use x="69.580078" xlink:href="#DejaVuSans-Bold-38"/>
       <use x="139.160156" xlink:href="#DejaVuSans-Bold-2e"/>
       <use x="177.148438" xlink:href="#DejaVuSans-Bold-36"/>
      </g>
     </g>
    </g>
    <g id="xtick_3">
     <g id="line2d_5">
      <path clip-path="url(#p2733d070c1)" d="M 199.96964 297.54825 
L 199.96964 31.43625 
" style="fill:none;stroke:#b0b0b0;stroke-linecap:square;stroke-width:0.8;"/>
     </g>
     <g id="line2d_6">
      <g>
       <use style="stroke:#000000;stroke-width:0.8;" x="199.96964" xlink:href="#m005f0a59be" y="297.54825"/>
      </g>
     </g>
     <g id="text_3">
      <!-- 18.7 -->
      <defs>
       <path d="M 6.6875 72.90625 
L 61.625 72.90625 
L 61.625 62.3125 
L 33.203125 0 
L 14.890625 0 
L 41.796875 59.078125 
L 6.6875 59.078125 
z
" id="DejaVuSans-Bold-37"/>
      </defs>
      <g transform="translate(181.465734 315.945906)scale(0.15 -0.15)">
       <use xlink:href="#DejaVuSans-Bold-31"/>
       <use x="69.580078" xlink:href="#DejaVuSans-Bold-38"/>
       <use x="139.160156" xlink:href="#DejaVuSans-Bold-2e"/>
       <use x="177.148438" xlink:href="#DejaVuSans-Bold-37"/>
      </g>
     </g>
    </g>
    <g id="xtick_4">
     <g id="line2d_7">
      <path clip-path="url(#p2733d070c1)" d="M 256.926578 297.54825 
L 256.926578 31.43625 
" style="fill:none;stroke:#b0b0b0;stroke-linecap:square;stroke-width:0.8;"/>
     </g>
     <g id="line2d_8">
      <g>
       <use style="stroke:#000000;stroke-width:0.8;" x="256.926578" xlink:href="#m005f0a59be" y="297.54825"/>
      </g>
     </g>
     <g id="text_4">
      <!-- 18.8 -->
      <g transform="translate(238.422672 315.945906)scale(0.15 -0.15)">
       <use xlink:href="#DejaVuSans-Bold-31"/>
       <use x="69.580078" xlink:href="#DejaVuSans-Bold-38"/>
       <use x="139.160156" xlink:href="#DejaVuSans-Bold-2e"/>
       <use x="177.148438" xlink:href="#DejaVuSans-Bold-38"/>
      </g>
     </g>
    </g>
    <g id="xtick_5">
     <g id="line2d_9">
      <path clip-path="url(#p2733d070c1)" d="M 313.883516 297.54825 
L 313.883516 31.43625 
" style="fill:none;stroke:#b0b0b0;stroke-linecap:square;stroke-width:0.8;"/>
     </g>
     <g id="line2d_10">
      <g>
       <use style="stroke:#000000;stroke-width:0.8;" x="313.883516" xlink:href="#m005f0a59be" y="297.54825"/>
      </g>
     </g>
     <g id="text_5">
      <!-- 18.9 -->
      <defs>
       <path d="M 10.015625 1.609375 
L 10.015625 15.09375 
Q 14.5 12.984375 18.59375 11.9375 
Q 22.703125 10.890625 26.703125 10.890625 
Q 35.109375 10.890625 39.796875 15.546875 
Q 44.484375 20.21875 45.3125 29.390625 
Q 42 26.953125 38.234375 25.734375 
Q 34.46875 24.515625 30.078125 24.515625 
Q 18.890625 24.515625 12.03125 31.03125 
Q 5.171875 37.546875 5.171875 48.1875 
Q 5.171875 59.96875 12.8125 67.046875 
Q 20.453125 74.125 33.296875 74.125 
Q 47.5625 74.125 55.375 64.5 
Q 63.1875 54.890625 63.1875 37.3125 
Q 63.1875 19.234375 54.046875 8.90625 
Q 44.921875 -1.421875 29 -1.421875 
Q 23.875 -1.421875 19.1875 -0.65625 
Q 14.5 0.09375 10.015625 1.609375 
z
M 33.203125 36.71875 
Q 38.140625 36.71875 40.625 39.90625 
Q 43.109375 43.109375 43.109375 49.515625 
Q 43.109375 55.859375 40.625 59.078125 
Q 38.140625 62.3125 33.203125 62.3125 
Q 28.265625 62.3125 25.78125 59.078125 
Q 23.296875 55.859375 23.296875 49.515625 
Q 23.296875 43.109375 25.78125 39.90625 
Q 28.265625 36.71875 33.203125 36.71875 
z
" id="DejaVuSans-Bold-39"/>
      </defs>
      <g transform="translate(295.37961 315.945906)scale(0.15 -0.15)">
       <use xlink:href="#DejaVuSans-Bold-31"/>
       <use x="69.580078" xlink:href="#DejaVuSans-Bold-38"/>
       <use x="139.160156" xlink:href="#DejaVuSans-Bold-2e"/>
       <use x="177.148438" xlink:href="#DejaVuSans-Bold-39"/>
      </g>
     </g>
    </g>
    <g id="xtick_6">
     <g id="line2d_11">
      <path clip-path="url(#p2733d070c1)" d="M 370.840454 297.54825 
L 370.840454 31.43625 
" style="fill:none;stroke:#b0b0b0;stroke-linecap:square;stroke-width:0.8;"/>
     </g>
     <g id="line2d_12">
      <g>
       <use style="stroke:#000000;stroke-width:0.8;" x="370.840454" xlink:href="#m005f0a59be" y="297.54825"/>
      </g>
     </g>
     <g id="text_6">
      <!-- 19.0 -->
      <defs>
       <path d="M 46 36.53125 
Q 46 50.203125 43.4375 55.78125 
Q 40.875 61.375 34.8125 61.375 
Q 28.765625 61.375 26.171875 55.78125 
Q 23.578125 50.203125 23.578125 36.53125 
Q 23.578125 22.703125 26.171875 17.03125 
Q 28.765625 11.375 34.8125 11.375 
Q 40.828125 11.375 43.40625 17.03125 
Q 46 22.703125 46 36.53125 
z
M 64.796875 36.375 
Q 64.796875 18.265625 56.984375 8.421875 
Q 49.171875 -1.421875 34.8125 -1.421875 
Q 20.40625 -1.421875 12.59375 8.421875 
Q 4.78125 18.265625 4.78125 36.375 
Q 4.78125 54.546875 12.59375 64.375 
Q 20.40625 74.21875 34.8125 74.21875 
Q 49.171875 74.21875 56.984375 64.375 
Q 64.796875 54.546875 64.796875 36.375 
z
" id="DejaVuSans-Bold-30"/>
      </defs>
      <g transform="translate(352.336548 315.945906)scale(0.15 -0.15)">
       <use xlink:href="#DejaVuSans-Bold-31"/>
       <use x="69.580078" xlink:href="#DejaVuSans-Bold-39"/>
       <use x="139.160156" xlink:href="#DejaVuSans-Bold-2e"/>
       <use x="177.148438" xlink:href="#DejaVuSans-Bold-30"/>
      </g>
     </g>
    </g>
    <g id="text_7">
     <!-- Frequency (MHz) -->
     <defs>
      <path d="M 9.8125 72.90625 
L 51.703125 72.90625 
L 51.703125 64.59375 
L 19.671875 64.59375 
L 19.671875 43.109375 
L 48.578125 43.109375 
L 48.578125 34.8125 
L 19.671875 34.8125 
L 19.671875 0 
L 9.8125 0 
z
" id="DejaVuSans-46"/>
      <path d="M 41.109375 46.296875 
Q 39.59375 47.171875 37.8125 47.578125 
Q 36.03125 48 33.890625 48 
Q 26.265625 48 22.1875 43.046875 
Q 18.109375 38.09375 18.109375 28.8125 
L 18.109375 0 
L 9.078125 0 
L 9.078125 54.6875 
L 18.109375 54.6875 
L 18.109375 46.1875 
Q 20.953125 51.171875 25.484375 53.578125 
Q 30.03125 56 36.53125 56 
Q 37.453125 56 38.578125 55.875 
Q 39.703125 55.765625 41.0625 55.515625 
z
" id="DejaVuSans-72"/>
      <path d="M 56.203125 29.59375 
L 56.203125 25.203125 
L 14.890625 25.203125 
Q 15.484375 15.921875 20.484375 11.0625 
Q 25.484375 6.203125 34.421875 6.203125 
Q 39.59375 6.203125 44.453125 7.46875 
Q 49.3125 8.734375 54.109375 11.28125 
L 54.109375 2.78125 
Q 49.265625 0.734375 44.1875 -0.34375 
Q 39.109375 -1.421875 33.890625 -1.421875 
Q 20.796875 -1.421875 13.15625 6.1875 
Q 5.515625 13.8125 5.515625 26.8125 
Q 5.515625 40.234375 12.765625 48.109375 
Q 20.015625 56 32.328125 56 
Q 43.359375 56 49.78125 48.890625 
Q 56.203125 41.796875 56.203125 29.59375 
z
M 47.21875 32.234375 
Q 47.125 39.59375 43.09375 43.984375 
Q 39.0625 48.390625 32.421875 48.390625 
Q 24.90625 48.390625 20.390625 44.140625 
Q 15.875 39.890625 15.1875 32.171875 
z
" id="DejaVuSans-65"/>
      <path d="M 14.796875 27.296875 
Q 14.796875 17.390625 18.875 11.75 
Q 22.953125 6.109375 30.078125 6.109375 
Q 37.203125 6.109375 41.296875 11.75 
Q 45.40625 17.390625 45.40625 27.296875 
Q 45.40625 37.203125 41.296875 42.84375 
Q 37.203125 48.484375 30.078125 48.484375 
Q 22.953125 48.484375 18.875 42.84375 
Q 14.796875 37.203125 14.796875 27.296875 
z
M 45.40625 8.203125 
Q 42.578125 3.328125 38.25 0.953125 
Q 33.9375 -1.421875 27.875 -1.421875 
Q 17.96875 -1.421875 11.734375 6.484375 
Q 5.515625 14.40625 5.515625 27.296875 
Q 5.515625 40.1875 11.734375 48.09375 
Q 17.96875 56 27.875 56 
Q 33.9375 56 38.25 53.625 
Q 42.578125 51.265625 45.40625 46.390625 
L 45.40625 54.6875 
L 54.390625 54.6875 
L 54.390625 -20.796875 
L 45.40625 -20.796875 
z
" id="DejaVuSans-71"/>
      <path d="M 8.5 21.578125 
L 8.5 54.6875 
L 17.484375 54.6875 
L 17.484375 21.921875 
Q 17.484375 14.15625 20.5 10.265625 
Q 23.53125 6.390625 29.59375 6.390625 
Q 36.859375 6.390625 41.078125 11.03125 
Q 45.3125 15.671875 45.3125 23.6875 
L 45.3125 54.6875 
L 54.296875 54.6875 
L 54.296875 0 
L 45.3125 0 
L 45.3125 8.40625 
Q 42.046875 3.421875 37.71875 1 
Q 33.40625 -1.421875 27.6875 -1.421875 
Q 18.265625 -1.421875 13.375 4.4375 
Q 8.5 10.296875 8.5 21.578125 
z
M 31.109375 56 
z
" id="DejaVuSans-75"/>
      <path d="M 54.890625 33.015625 
L 54.890625 0 
L 45.90625 0 
L 45.90625 32.71875 
Q 45.90625 40.484375 42.875 44.328125 
Q 39.84375 48.1875 33.796875 48.1875 
Q 26.515625 48.1875 22.3125 43.546875 
Q 18.109375 38.921875 18.109375 30.90625 
L 18.109375 0 
L 9.078125 0 
L 9.078125 54.6875 
L 18.109375 54.6875 
L 18.109375 46.1875 
Q 21.34375 51.125 25.703125 53.5625 
Q 30.078125 56 35.796875 56 
Q 45.21875 56 50.046875 50.171875 
Q 54.890625 44.34375 54.890625 33.015625 
z
" id="DejaVuSans-6e"/>
      <path d="M 48.78125 52.59375 
L 48.78125 44.1875 
Q 44.96875 46.296875 41.140625 47.34375 
Q 37.3125 48.390625 33.40625 48.390625 
Q 24.65625 48.390625 19.8125 42.84375 
Q 14.984375 37.3125 14.984375 27.296875 
Q 14.984375 17.28125 19.8125 11.734375 
Q 24.65625 6.203125 33.40625 6.203125 
Q 37.3125 6.203125 41.140625 7.25 
Q 44.96875 8.296875 48.78125 10.40625 
L 48.78125 2.09375 
Q 45.015625 0.34375 40.984375 -0.53125 
Q 36.96875 -1.421875 32.421875 -1.421875 
Q 20.0625 -1.421875 12.78125 6.34375 
Q 5.515625 14.109375 5.515625 27.296875 
Q 5.515625 40.671875 12.859375 48.328125 
Q 20.21875 56 33.015625 56 
Q 37.15625 56 41.109375 55.140625 
Q 45.0625 54.296875 48.78125 52.59375 
z
" id="DejaVuSans-63"/>
      <path d="M 32.171875 -5.078125 
Q 28.375 -14.84375 24.75 -17.8125 
Q 21.140625 -20.796875 15.09375 -20.796875 
L 7.90625 -20.796875 
L 7.90625 -13.28125 
L 13.1875 -13.28125 
Q 16.890625 -13.28125 18.9375 -11.515625 
Q 21 -9.765625 23.484375 -3.21875 
L 25.09375 0.875 
L 2.984375 54.6875 
L 12.5 54.6875 
L 29.59375 11.921875 
L 46.6875 54.6875 
L 56.203125 54.6875 
z
" id="DejaVuSans-79"/>
      <path id="DejaVuSans-20"/>
      <path d="M 31 75.875 
Q 24.46875 64.65625 21.28125 53.65625 
Q 18.109375 42.671875 18.109375 31.390625 
Q 18.109375 20.125 21.3125 9.0625 
Q 24.515625 -2 31 -13.1875 
L 23.1875 -13.1875 
Q 15.875 -1.703125 12.234375 9.375 
Q 8.59375 20.453125 8.59375 31.390625 
Q 8.59375 42.28125 12.203125 53.3125 
Q 15.828125 64.359375 23.1875 75.875 
z
" id="DejaVuSans-28"/>
      <path d="M 9.8125 72.90625 
L 24.515625 72.90625 
L 43.109375 23.296875 
L 61.8125 72.90625 
L 76.515625 72.90625 
L 76.515625 0 
L 66.890625 0 
L 66.890625 64.015625 
L 48.09375 14.015625 
L 38.1875 14.015625 
L 19.390625 64.015625 
L 19.390625 0 
L 9.8125 0 
z
" id="DejaVuSans-4d"/>
      <path d="M 9.8125 72.90625 
L 19.671875 72.90625 
L 19.671875 43.015625 
L 55.515625 43.015625 
L 55.515625 72.90625 
L 65.375 72.90625 
L 65.375 0 
L 55.515625 0 
L 55.515625 34.71875 
L 19.671875 34.71875 
L 19.671875 0 
L 9.8125 0 
z
" id="DejaVuSans-48"/>
      <path d="M 5.515625 54.6875 
L 48.1875 54.6875 
L 48.1875 46.484375 
L 14.40625 7.171875 
L 48.1875 7.171875 
L 48.1875 0 
L 4.296875 0 
L 4.296875 8.203125 
L 38.09375 47.515625 
L 5.515625 47.515625 
z
" id="DejaVuSans-7a"/>
      <path d="M 8.015625 75.875 
L 15.828125 75.875 
Q 23.140625 64.359375 26.78125 53.3125 
Q 30.421875 42.28125 30.421875 31.390625 
Q 30.421875 20.453125 26.78125 9.375 
Q 23.140625 -1.703125 15.828125 -13.1875 
L 8.015625 -13.1875 
Q 14.5 -2 17.703125 9.0625 
Q 20.90625 20.125 20.90625 31.390625 
Q 20.90625 42.671875 17.703125 53.65625 
Q 14.5 64.65625 8.015625 75.875 
z
" id="DejaVuSans-29"/>
     </defs>
     <g transform="translate(157.713906 338.262312)scale(0.2 -0.2)">
      <use xlink:href="#DejaVuSans-46"/>
      <use x="57.410156" xlink:href="#DejaVuSans-72"/>
      <use x="98.492188" xlink:href="#DejaVuSans-65"/>
      <use x="160.015625" xlink:href="#DejaVuSans-71"/>
      <use x="223.492188" xlink:href="#DejaVuSans-75"/>
      <use x="286.871094" xlink:href="#DejaVuSans-65"/>
      <use x="348.394531" xlink:href="#DejaVuSans-6e"/>
      <use x="411.773438" xlink:href="#DejaVuSans-63"/>
      <use x="466.753906" xlink:href="#DejaVuSans-79"/>
      <use x="525.933594" xlink:href="#DejaVuSans-20"/>
      <use x="557.720703" xlink:href="#DejaVuSans-28"/>
      <use x="596.734375" xlink:href="#DejaVuSans-4d"/>
      <use x="683.013672" xlink:href="#DejaVuSans-48"/>
      <use x="758.208984" xlink:href="#DejaVuSans-7a"/>
      <use x="810.699219" xlink:href="#DejaVuSans-29"/>
     </g>
    </g>
   </g>
   <g id="matplotlib.axis_2">
    <g id="ytick_1">
     <g id="line2d_13">
      <path clip-path="url(#p2733d070c1)" d="M 64.127344 297.54825 
L 421.247344 297.54825 
" style="fill:none;stroke:#b0b0b0;stroke-linecap:square;stroke-width:0.8;"/>
     </g>
     <g id="line2d_14">
      <defs>
       <path d="M 0 0 
L -3.5 0 
" id="mc3ce260a5b" style="stroke:#000000;stroke-width:0.8;"/>
      </defs>
      <g>
       <use style="stroke:#000000;stroke-width:0.8;" x="64.127344" xlink:href="#mc3ce260a5b" y="297.54825"/>
      </g>
     </g>
     <g id="text_8">
      <!-- 0.0 -->
      <g transform="translate(30.55625 303.247078)scale(0.15 -0.15)">
       <use xlink:href="#DejaVuSans-Bold-30"/>
       <use x="69.580078" xlink:href="#DejaVuSans-Bold-2e"/>
       <use x="107.568359" xlink:href="#DejaVuSans-Bold-30"/>
      </g>
     </g>
    </g>
    <g id="ytick_2">
     <g id="line2d_15">
      <path clip-path="url(#p2733d070c1)" d="M 64.127344 244.32585 
L 421.247344 244.32585 
" style="fill:none;stroke:#b0b0b0;stroke-linecap:square;stroke-width:0.8;"/>
     </g>
     <g id="line2d_16">
      <g>
       <use style="stroke:#000000;stroke-width:0.8;" x="64.127344" xlink:href="#mc3ce260a5b" y="244.32585"/>
      </g>
     </g>
     <g id="text_9">
      <!-- 0.2 -->
      <defs>
       <path d="M 28.8125 13.8125 
L 60.890625 13.8125 
L 60.890625 0 
L 7.90625 0 
L 7.90625 13.8125 
L 34.515625 37.3125 
Q 38.09375 40.53125 39.796875 43.609375 
Q 41.5 46.6875 41.5 50 
Q 41.5 55.125 38.0625 58.25 
Q 34.625 61.375 28.90625 61.375 
Q 24.515625 61.375 19.28125 59.5 
Q 14.0625 57.625 8.109375 53.90625 
L 8.109375 69.921875 
Q 14.453125 72.015625 20.65625 73.109375 
Q 26.859375 74.21875 32.8125 74.21875 
Q 45.90625 74.21875 53.15625 68.453125 
Q 60.40625 62.703125 60.40625 52.390625 
Q 60.40625 46.4375 57.328125 41.28125 
Q 54.25 36.140625 44.390625 27.484375 
z
" id="DejaVuSans-Bold-32"/>
      </defs>
      <g transform="translate(30.55625 250.024678)scale(0.15 -0.15)">
       <use xlink:href="#DejaVuSans-Bold-30"/>
       <use x="69.580078" xlink:href="#DejaVuSans-Bold-2e"/>
       <use x="107.568359" xlink:href="#DejaVuSans-Bold-32"/>
      </g>
     </g>
    </g>
    <g id="ytick_3">
     <g id="line2d_17">
      <path clip-path="url(#p2733d070c1)" d="M 64.127344 191.10345 
L 421.247344 191.10345 
" style="fill:none;stroke:#b0b0b0;stroke-linecap:square;stroke-width:0.8;"/>
     </g>
     <g id="line2d_18">
      <g>
       <use style="stroke:#000000;stroke-width:0.8;" x="64.127344" xlink:href="#mc3ce260a5b" y="191.10345"/>
      </g>
     </g>
     <g id="text_10">
      <!-- 0.4 -->
      <defs>
       <path d="M 36.8125 57.421875 
L 16.21875 26.90625 
L 36.8125 26.90625 
z
M 33.6875 72.90625 
L 54.59375 72.90625 
L 54.59375 26.90625 
L 64.984375 26.90625 
L 64.984375 13.28125 
L 54.59375 13.28125 
L 54.59375 0 
L 36.8125 0 
L 36.8125 13.28125 
L 4.5 13.28125 
L 4.5 29.390625 
z
" id="DejaVuSans-Bold-34"/>
      </defs>
      <g transform="translate(30.55625 196.802278)scale(0.15 -0.15)">
       <use xlink:href="#DejaVuSans-Bold-30"/>
       <use x="69.580078" xlink:href="#DejaVuSans-Bold-2e"/>
       <use x="107.568359" xlink:href="#DejaVuSans-Bold-34"/>
      </g>
     </g>
    </g>
    <g id="ytick_4">
     <g id="line2d_19">
      <path clip-path="url(#p2733d070c1)" d="M 64.127344 137.88105 
L 421.247344 137.88105 
" style="fill:none;stroke:#b0b0b0;stroke-linecap:square;stroke-width:0.8;"/>
     </g>
     <g id="line2d_20">
      <g>
       <use style="stroke:#000000;stroke-width:0.8;" x="64.127344" xlink:href="#mc3ce260a5b" y="137.88105"/>
      </g>
     </g>
     <g id="text_11">
      <!-- 0.6 -->
      <g transform="translate(30.55625 143.579878)scale(0.15 -0.15)">
       <use xlink:href="#DejaVuSans-Bold-30"/>
       <use x="69.580078" xlink:href="#DejaVuSans-Bold-2e"/>
       <use x="107.568359" xlink:href="#DejaVuSans-Bold-36"/>
      </g>
     </g>
    </g>
    <g id="ytick_5">
     <g id="line2d_21">
      <path clip-path="url(#p2733d070c1)" d="M 64.127344 84.65865 
L 421.247344 84.65865 
" style="fill:none;stroke:#b0b0b0;stroke-linecap:square;stroke-width:0.8;"/>
     </g>
     <g id="line2d_22">
      <g>
       <use style="stroke:#000000;stroke-width:0.8;" x="64.127344" xlink:href="#mc3ce260a5b" y="84.65865"/>
      </g>
     </g>
     <g id="text_12">
      <!-- 0.8 -->
      <g transform="translate(30.55625 90.357478)scale(0.15 -0.15)">
       <use xlink:href="#DejaVuSans-Bold-30"/>
       <use x="69.580078" xlink:href="#DejaVuSans-Bold-2e"/>
       <use x="107.568359" xlink:href="#DejaVuSans-Bold-38"/>
      </g>
     </g>
    </g>
    <g id="ytick_6">
     <g id="line2d_23">
      <path clip-path="url(#p2733d070c1)" d="M 64.127344 31.43625 
L 421.247344 31.43625 
" style="fill:none;stroke:#b0b0b0;stroke-linecap:square;stroke-width:0.8;"/>
     </g>
     <g id="line2d_24">
      <g>
       <use style="stroke:#000000;stroke-width:0.8;" x="64.127344" xlink:href="#mc3ce260a5b" y="31.43625"/>
      </g>
     </g>
     <g id="text_13">
      <!-- 1.0 -->
      <g transform="translate(30.55625 37.135078)scale(0.15 -0.15)">
       <use xlink:href="#DejaVuSans-Bold-31"/>
       <use x="69.580078" xlink:href="#DejaVuSans-Bold-2e"/>
       <use x="107.568359" xlink:href="#DejaVuSans-Bold-30"/>
      </g>
     </g>
    </g>
    <g id="text_14">
     <!-- Survival -->
     <defs>
      <path d="M 53.515625 70.515625 
L 53.515625 60.890625 
Q 47.90625 63.578125 42.921875 64.890625 
Q 37.9375 66.21875 33.296875 66.21875 
Q 25.25 66.21875 20.875 63.09375 
Q 16.5 59.96875 16.5 54.203125 
Q 16.5 49.359375 19.40625 46.890625 
Q 22.3125 44.4375 30.421875 42.921875 
L 36.375 41.703125 
Q 47.40625 39.59375 52.65625 34.296875 
Q 57.90625 29 57.90625 20.125 
Q 57.90625 9.515625 50.796875 4.046875 
Q 43.703125 -1.421875 29.984375 -1.421875 
Q 24.8125 -1.421875 18.96875 -0.25 
Q 13.140625 0.921875 6.890625 3.21875 
L 6.890625 13.375 
Q 12.890625 10.015625 18.65625 8.296875 
Q 24.421875 6.59375 29.984375 6.59375 
Q 38.421875 6.59375 43.015625 9.90625 
Q 47.609375 13.234375 47.609375 19.390625 
Q 47.609375 24.75 44.3125 27.78125 
Q 41.015625 30.8125 33.5 32.328125 
L 27.484375 33.5 
Q 16.453125 35.6875 11.515625 40.375 
Q 6.59375 45.0625 6.59375 53.421875 
Q 6.59375 63.09375 13.40625 68.65625 
Q 20.21875 74.21875 32.171875 74.21875 
Q 37.3125 74.21875 42.625 73.28125 
Q 47.953125 72.359375 53.515625 70.515625 
z
" id="DejaVuSans-53"/>
      <path d="M 2.984375 54.6875 
L 12.5 54.6875 
L 29.59375 8.796875 
L 46.6875 54.6875 
L 56.203125 54.6875 
L 35.6875 0 
L 23.484375 0 
z
" id="DejaVuSans-76"/>
      <path d="M 9.421875 54.6875 
L 18.40625 54.6875 
L 18.40625 0 
L 9.421875 0 
z
M 9.421875 75.984375 
L 18.40625 75.984375 
L 18.40625 64.59375 
L 9.421875 64.59375 
z
" id="DejaVuSans-69"/>
      <path d="M 34.28125 27.484375 
Q 23.390625 27.484375 19.1875 25 
Q 14.984375 22.515625 14.984375 16.5 
Q 14.984375 11.71875 18.140625 8.90625 
Q 21.296875 6.109375 26.703125 6.109375 
Q 34.1875 6.109375 38.703125 11.40625 
Q 43.21875 16.703125 43.21875 25.484375 
L 43.21875 27.484375 
z
M 52.203125 31.203125 
L 52.203125 0 
L 43.21875 0 
L 43.21875 8.296875 
Q 40.140625 3.328125 35.546875 0.953125 
Q 30.953125 -1.421875 24.3125 -1.421875 
Q 15.921875 -1.421875 10.953125 3.296875 
Q 6 8.015625 6 15.921875 
Q 6 25.140625 12.171875 29.828125 
Q 18.359375 34.515625 30.609375 34.515625 
L 43.21875 34.515625 
L 43.21875 35.40625 
Q 43.21875 41.609375 39.140625 45 
Q 35.0625 48.390625 27.6875 48.390625 
Q 23 48.390625 18.546875 47.265625 
Q 14.109375 46.140625 10.015625 43.890625 
L 10.015625 52.203125 
Q 14.9375 54.109375 19.578125 55.046875 
Q 24.21875 56 28.609375 56 
Q 40.484375 56 46.34375 49.84375 
Q 52.203125 43.703125 52.203125 31.203125 
z
" id="DejaVuSans-61"/>
      <path d="M 9.421875 75.984375 
L 18.40625 75.984375 
L 18.40625 0 
L 9.421875 0 
z
" id="DejaVuSans-6c"/>
     </defs>
     <g transform="translate(22.396875 204.811)rotate(-90)scale(0.2 -0.2)">
      <use xlink:href="#DejaVuSans-53"/>
      <use x="63.476562" xlink:href="#DejaVuSans-75"/>
      <use x="126.855469" xlink:href="#DejaVuSans-72"/>
      <use x="167.96875" xlink:href="#DejaVuSans-76"/>
      <use x="227.148438" xlink:href="#DejaVuSans-69"/>
      <use x="254.931641" xlink:href="#DejaVuSans-76"/>
      <use x="314.111328" xlink:href="#DejaVuSans-61"/>
      <use x="375.390625" xlink:href="#DejaVuSans-6c"/>
     </g>
    </g>
   </g>
   <g id="LineCollection_1">
    <path clip-path="url(#p2733d070c1)" d="M 80.360071 295.209819 
L 80.360071 292.316756 
" style="fill:none;stroke:#1f77b4;stroke-width:1.5;"/>
    <path clip-path="url(#p2733d070c1)" d="M 83.207918 290.260878 
L 83.207918 285.827622 
" style="fill:none;stroke:#1f77b4;stroke-width:1.5;"/>
    <path clip-path="url(#p2733d070c1)" d="M 86.055765 272.316741 
L 86.055765 264.603759 
" style="fill:none;stroke:#1f77b4;stroke-width:1.5;"/>
    <path clip-path="url(#p2733d070c1)" d="M 88.903612 208.308261 
L 88.903612 196.375495 
" style="fill:none;stroke:#1f77b4;stroke-width:1.5;"/>
    <path clip-path="url(#p2733d070c1)" d="M 91.751459 109.305176 
L 91.751459 98.243936 
" style="fill:none;stroke:#1f77b4;stroke-width:1.5;"/>
    <path clip-path="url(#p2733d070c1)" d="M 94.599305 65.525914 
L 94.599305 57.695959 
" style="fill:none;stroke:#1f77b4;stroke-width:1.5;"/>
    <path clip-path="url(#p2733d070c1)" d="M 97.447152 104.804401 
L 97.447152 94.356228 
" style="fill:none;stroke:#1f77b4;stroke-width:1.5;"/>
    <path clip-path="url(#p2733d070c1)" d="M 100.294999 186.726 
L 100.294999 174.355342 
" style="fill:none;stroke:#1f77b4;stroke-width:1.5;"/>
    <path clip-path="url(#p2733d070c1)" d="M 103.142846 254.003277 
L 103.142846 244.378509 
" style="fill:none;stroke:#1f77b4;stroke-width:1.5;"/>
    <path clip-path="url(#p2733d070c1)" d="M 105.990693 282.126178 
L 105.990693 275.979649 
" style="fill:none;stroke:#1f77b4;stroke-width:1.5;"/>
    <path clip-path="url(#p2733d070c1)" d="M 108.83854 293.811368 
L 108.83854 290.341132 
" style="fill:none;stroke:#1f77b4;stroke-width:1.5;"/>
    <path clip-path="url(#p2733d070c1)" d="M 111.686387 295.635006 
L 111.686387 292.927494 
" style="fill:none;stroke:#1f77b4;stroke-width:1.5;"/>
   </g>
   <g id="LineCollection_2">
    <path clip-path="url(#p2733d070c1)" d="M 125.925621 297.330046 
L 125.925621 296.056955 
" style="fill:none;stroke:#1f77b4;stroke-width:1.5;"/>
    <path clip-path="url(#p2733d070c1)" d="M 128.773468 291.521518 
L 128.773468 287.362276 
" style="fill:none;stroke:#1f77b4;stroke-width:1.5;"/>
    <path clip-path="url(#p2733d070c1)" d="M 131.621315 273.178211 
L 131.621315 265.625366 
" style="fill:none;stroke:#1f77b4;stroke-width:1.5;"/>
    <path clip-path="url(#p2733d070c1)" d="M 134.469162 245.889519 
L 134.469162 235.810218 
" style="fill:none;stroke:#1f77b4;stroke-width:1.5;"/>
    <path clip-path="url(#p2733d070c1)" d="M 137.317009 214.579233 
L 137.317009 202.917682 
" style="fill:none;stroke:#1f77b4;stroke-width:1.5;"/>
    <path clip-path="url(#p2733d070c1)" d="M 140.164856 191.125739 
L 140.164856 178.799069 
" style="fill:none;stroke:#1f77b4;stroke-width:1.5;"/>
    <path clip-path="url(#p2733d070c1)" d="M 143.012703 163.392407 
L 143.012703 151.326295 
" style="fill:none;stroke:#1f77b4;stroke-width:1.5;"/>
    <path clip-path="url(#p2733d070c1)" d="M 145.860549 166.975171 
L 145.860549 155.006381 
" style="fill:none;stroke:#1f77b4;stroke-width:1.5;"/>
    <path clip-path="url(#p2733d070c1)" d="M 148.708396 167.812456 
L 148.708396 154.997751 
" style="fill:none;stroke:#1f77b4;stroke-width:1.5;"/>
    <path clip-path="url(#p2733d070c1)" d="M 151.556243 199.297745 
L 151.556243 187.048675 
" style="fill:none;stroke:#1f77b4;stroke-width:1.5;"/>
    <path clip-path="url(#p2733d070c1)" d="M 154.40409 249.488076 
L 154.40409 239.515313 
" style="fill:none;stroke:#1f77b4;stroke-width:1.5;"/>
    <path clip-path="url(#p2733d070c1)" d="M 157.251937 280.946552 
L 157.251937 274.351948 
" style="fill:none;stroke:#1f77b4;stroke-width:1.5;"/>
    <path clip-path="url(#p2733d070c1)" d="M 160.099784 294.791731 
L 160.099784 291.738932 
" style="fill:none;stroke:#1f77b4;stroke-width:1.5;"/>
    <path clip-path="url(#p2733d070c1)" d="M 162.947631 296.545757 
L 162.947631 294.42954 
" style="fill:none;stroke:#1f77b4;stroke-width:1.5;"/>
   </g>
   <g id="LineCollection_3">
    <path clip-path="url(#p2733d070c1)" d="M 177.186865 296.964244 
L 177.186865 295.220746 
" style="fill:none;stroke:#1f77b4;stroke-width:1.5;"/>
    <path clip-path="url(#p2733d070c1)" d="M 180.034712 295.214945 
L 180.034712 292.328158 
" style="fill:none;stroke:#1f77b4;stroke-width:1.5;"/>
    <path clip-path="url(#p2733d070c1)" d="M 182.882559 295.209819 
L 182.882559 292.316756 
" style="fill:none;stroke:#1f77b4;stroke-width:1.5;"/>
    <path clip-path="url(#p2733d070c1)" d="M 185.730406 293.676683 
L 185.730406 290.083207 
" style="fill:none;stroke:#1f77b4;stroke-width:1.5;"/>
    <path clip-path="url(#p2733d070c1)" d="M 188.578253 295.713132 
L 188.578253 293.115205 
" style="fill:none;stroke:#1f77b4;stroke-width:1.5;"/>
    <path clip-path="url(#p2733d070c1)" d="M 191.4261 293.122333 
L 191.4261 289.533972 
" style="fill:none;stroke:#1f77b4;stroke-width:1.5;"/>
    <path clip-path="url(#p2733d070c1)" d="M 194.273947 292.562439 
L 194.273947 288.528166 
" style="fill:none;stroke:#1f77b4;stroke-width:1.5;"/>
    <path clip-path="url(#p2733d070c1)" d="M 197.121794 294.136977 
L 197.121794 290.701238 
" style="fill:none;stroke:#1f77b4;stroke-width:1.5;"/>
    <path clip-path="url(#p2733d070c1)" d="M 199.96964 296.081502 
L 199.96964 293.620836 
" style="fill:none;stroke:#1f77b4;stroke-width:1.5;"/>
    <path clip-path="url(#p2733d070c1)" d="M 202.817487 296.506446 
L 202.817487 294.307792 
" style="fill:none;stroke:#1f77b4;stroke-width:1.5;"/>
    <path clip-path="url(#p2733d070c1)" d="M 205.665334 297.320257 
L 205.665334 295.990256 
" style="fill:none;stroke:#1f77b4;stroke-width:1.5;"/>
   </g>
   <g id="LineCollection_4">
    <path clip-path="url(#p2733d070c1)" d="M 228.448109 296.618023 
L 228.448109 294.653458 
" style="fill:none;stroke:#1f77b4;stroke-width:1.5;"/>
    <path clip-path="url(#p2733d070c1)" d="M 231.295956 297.331904 
L 231.295956 296.069615 
" style="fill:none;stroke:#1f77b4;stroke-width:1.5;"/>
    <path clip-path="url(#p2733d070c1)" d="M 234.143803 295.660386 
L 234.143803 292.988466 
" style="fill:none;stroke:#1f77b4;stroke-width:1.5;"/>
    <path clip-path="url(#p2733d070c1)" d="M 236.99165 294.83269 
L 236.99165 291.824741 
" style="fill:none;stroke:#1f77b4;stroke-width:1.5;"/>
    <path clip-path="url(#p2733d070c1)" d="M 239.839497 294.89465 
L 239.839497 291.954577 
" style="fill:none;stroke:#1f77b4;stroke-width:1.5;"/>
    <path clip-path="url(#p2733d070c1)" d="M 242.687344 295.183847 
L 242.687344 292.258989 
" style="fill:none;stroke:#1f77b4;stroke-width:1.5;"/>
    <path clip-path="url(#p2733d070c1)" d="M 245.535191 294.415295 
L 245.535191 291.256405 
" style="fill:none;stroke:#1f77b4;stroke-width:1.5;"/>
    <path clip-path="url(#p2733d070c1)" d="M 248.383038 296.95114 
L 248.383038 295.168716 
" style="fill:none;stroke:#1f77b4;stroke-width:1.5;"/>
    <path clip-path="url(#p2733d070c1)" d="M 251.230884 296.590404 
L 251.230884 294.567863 
" style="fill:none;stroke:#1f77b4;stroke-width:1.5;"/>
    <path clip-path="url(#p2733d070c1)" d="M 254.078731 296.97432 
L 254.078731 295.260761 
" style="fill:none;stroke:#1f77b4;stroke-width:1.5;"/>
    <path clip-path="url(#p2733d070c1)" d="M 256.926578 296.98762 
L 256.926578 295.313585 
" style="fill:none;stroke:#1f77b4;stroke-width:1.5;"/>
   </g>
   <g id="LineCollection_5">
    <path clip-path="url(#p2733d070c1)" d="M 274.01366 297.322786 
L 274.01366 296.007484 
" style="fill:none;stroke:#1f77b4;stroke-width:1.5;"/>
    <path clip-path="url(#p2733d070c1)" d="M 276.861506 296.571766 
L 276.861506 294.510113 
" style="fill:none;stroke:#1f77b4;stroke-width:1.5;"/>
    <path clip-path="url(#p2733d070c1)" d="M 279.709353 297.329577 
L 279.709353 296.053756 
" style="fill:none;stroke:#1f77b4;stroke-width:1.5;"/>
    <path clip-path="url(#p2733d070c1)" d="M 282.5572 296.543527 
L 282.5572 294.422632 
" style="fill:none;stroke:#1f77b4;stroke-width:1.5;"/>
    <path clip-path="url(#p2733d070c1)" d="M 285.405047 295.308239 
L 285.405047 292.535733 
" style="fill:none;stroke:#1f77b4;stroke-width:1.5;"/>
    <path clip-path="url(#p2733d070c1)" d="M 288.252894 295.250207 
L 288.252894 292.406603 
" style="fill:none;stroke:#1f77b4;stroke-width:1.5;"/>
    <path clip-path="url(#p2733d070c1)" d="M 291.100741 295.269882 
L 291.100741 292.450379 
" style="fill:none;stroke:#1f77b4;stroke-width:1.5;"/>
    <path clip-path="url(#p2733d070c1)" d="M 293.948588 295.652001 
L 293.948588 292.968322 
" style="fill:none;stroke:#1f77b4;stroke-width:1.5;"/>
    <path clip-path="url(#p2733d070c1)" d="M 296.796435 295.701223 
L 296.796435 293.086587 
" style="fill:none;stroke:#1f77b4;stroke-width:1.5;"/>
    <path clip-path="url(#p2733d070c1)" d="M 299.644282 297.54825 
L 299.644282 296.964671 
" style="fill:none;stroke:#1f77b4;stroke-width:1.5;"/>
    <path clip-path="url(#p2733d070c1)" d="M 302.492128 297.328632 
L 302.492128 296.047317 
" style="fill:none;stroke:#1f77b4;stroke-width:1.5;"/>
    <path clip-path="url(#p2733d070c1)" d="M 305.339975 297.54825 
L 305.339975 296.960806 
" style="fill:none;stroke:#1f77b4;stroke-width:1.5;"/>
    <path clip-path="url(#p2733d070c1)" d="M 308.187822 296.976785 
L 308.187822 295.27055 
" style="fill:none;stroke:#1f77b4;stroke-width:1.5;"/>
   </g>
   <g id="LineCollection_6">
    <path clip-path="url(#p2733d070c1)" d="M 319.57921 296.556761 
L 319.57921 294.463626 
" style="fill:none;stroke:#1f77b4;stroke-width:1.5;"/>
    <path clip-path="url(#p2733d070c1)" d="M 322.427057 296.985248 
L 322.427057 295.304163 
" style="fill:none;stroke:#1f77b4;stroke-width:1.5;"/>
    <path clip-path="url(#p2733d070c1)" d="M 325.274904 295.220048 
L 325.274904 292.339511 
" style="fill:none;stroke:#1f77b4;stroke-width:1.5;"/>
    <path clip-path="url(#p2733d070c1)" d="M 328.12275 297.313951 
L 328.12275 295.947294 
" style="fill:none;stroke:#1f77b4;stroke-width:1.5;"/>
    <path clip-path="url(#p2733d070c1)" d="M 330.970597 296.962959 
L 330.970597 295.215646 
" style="fill:none;stroke:#1f77b4;stroke-width:1.5;"/>
    <path clip-path="url(#p2733d070c1)" d="M 333.818444 295.656203 
L 333.818444 292.978416 
" style="fill:none;stroke:#1f77b4;stroke-width:1.5;"/>
    <path clip-path="url(#p2733d070c1)" d="M 336.666291 294.767767 
L 336.666291 291.688733 
" style="fill:none;stroke:#1f77b4;stroke-width:1.5;"/>
    <path clip-path="url(#p2733d070c1)" d="M 339.514138 296.571766 
L 339.514138 294.510113 
" style="fill:none;stroke:#1f77b4;stroke-width:1.5;"/>
    <path clip-path="url(#p2733d070c1)" d="M 342.361985 297.318193 
L 342.361985 295.976194 
" style="fill:none;stroke:#1f77b4;stroke-width:1.5;"/>
    <path clip-path="url(#p2733d070c1)" d="M 345.209832 296.962959 
L 345.209832 295.215646 
" style="fill:none;stroke:#1f77b4;stroke-width:1.5;"/>
    <path clip-path="url(#p2733d070c1)" d="M 348.057679 296.590404 
L 348.057679 294.567863 
" style="fill:none;stroke:#1f77b4;stroke-width:1.5;"/>
    <path clip-path="url(#p2733d070c1)" d="M 350.905526 297.326233 
L 350.905526 296.030973 
" style="fill:none;stroke:#1f77b4;stroke-width:1.5;"/>
    <path clip-path="url(#p2733d070c1)" d="M 353.753372 297.328156 
L 353.753372 296.044076 
" style="fill:none;stroke:#1f77b4;stroke-width:1.5;"/>
   </g>
   <g id="LineCollection_7">
    <path clip-path="url(#p2733d070c1)" d="M 365.14476 295.349875 
L 365.14476 292.628403 
" style="fill:none;stroke:#1f77b4;stroke-width:1.5;"/>
    <path clip-path="url(#p2733d070c1)" d="M 367.992607 297.323285 
L 367.992607 296.010884 
" style="fill:none;stroke:#1f77b4;stroke-width:1.5;"/>
    <path clip-path="url(#p2733d070c1)" d="M 370.840454 297.337292 
L 370.840454 296.106339 
" style="fill:none;stroke:#1f77b4;stroke-width:1.5;"/>
    <path clip-path="url(#p2733d070c1)" d="M 373.688301 295.407355 
L 373.688301 292.756367 
" style="fill:none;stroke:#1f77b4;stroke-width:1.5;"/>
    <path clip-path="url(#p2733d070c1)" d="M 376.536148 296.959072 
L 376.536148 295.20021 
" style="fill:none;stroke:#1f77b4;stroke-width:1.5;"/>
    <path clip-path="url(#p2733d070c1)" d="M 379.383994 294.408728 
L 379.383994 291.243296 
" style="fill:none;stroke:#1f77b4;stroke-width:1.5;"/>
    <path clip-path="url(#p2733d070c1)" d="M 382.231841 296.104348 
L 382.231841 293.681713 
" style="fill:none;stroke:#1f77b4;stroke-width:1.5;"/>
    <path clip-path="url(#p2733d070c1)" d="M 385.079688 296.57597 
L 385.079688 294.523139 
" style="fill:none;stroke:#1f77b4;stroke-width:1.5;"/>
    <path clip-path="url(#p2733d070c1)" d="M 387.927535 294.773797 
L 387.927535 291.701364 
" style="fill:none;stroke:#1f77b4;stroke-width:1.5;"/>
    <path clip-path="url(#p2733d070c1)" d="M 390.775382 294.667592 
L 390.775382 291.478953 
" style="fill:none;stroke:#1f77b4;stroke-width:1.5;"/>
    <path clip-path="url(#p2733d070c1)" d="M 393.623229 296.606384 
L 393.623229 294.617384 
" style="fill:none;stroke:#1f77b4;stroke-width:1.5;"/>
    <path clip-path="url(#p2733d070c1)" d="M 396.471076 295.260086 
L 396.471076 292.428585 
" style="fill:none;stroke:#1f77b4;stroke-width:1.5;"/>
    <path clip-path="url(#p2733d070c1)" d="M 399.318923 296.976785 
L 399.318923 295.27055 
" style="fill:none;stroke:#1f77b4;stroke-width:1.5;"/>
    <path clip-path="url(#p2733d070c1)" d="M 402.16677 296.981652 
L 402.16677 295.28988 
" style="fill:none;stroke:#1f77b4;stroke-width:1.5;"/>
    <path clip-path="url(#p2733d070c1)" d="M 405.014616 297.333276 
L 405.014616 296.07897 
" style="fill:none;stroke:#1f77b4;stroke-width:1.5;"/>
   </g>
   <g id="line2d_25">
    <path clip-path="url(#p2733d070c1)" d="M 80.360071 293.763287 
L 83.207918 288.04425 
L 86.055765 268.46025 
L 88.903612 202.341878 
L 91.751459 103.774556 
L 94.599305 61.610937 
L 97.447152 99.580315 
L 100.294999 180.540671 
L 103.142846 249.190893 
L 105.990693 279.052914 
L 108.83854 292.07625 
L 111.686387 294.28125 
" style="fill:none;stroke:#1f77b4;stroke-linecap:square;stroke-width:1.5;"/>
    <defs>
     <path d="M 0 1.5 
C 0.397805 1.5 0.77937 1.341951 1.06066 1.06066 
C 1.341951 0.77937 1.5 0.397805 1.5 0 
C 1.5 -0.397805 1.341951 -0.77937 1.06066 -1.06066 
C 0.77937 -1.341951 0.397805 -1.5 0 -1.5 
C -0.397805 -1.5 -0.77937 -1.341951 -1.06066 -1.06066 
C -1.341951 -0.77937 -1.5 -0.397805 -1.5 0 
C -1.5 0.397805 -1.341951 0.77937 -1.06066 1.06066 
C -0.77937 1.341951 -0.397805 1.5 0 1.5 
z
" id="mb8bc26594a" style="stroke:#1f77b4;"/>
    </defs>
    <g clip-path="url(#p2733d070c1)">
     <use style="fill:#1f77b4;stroke:#1f77b4;" x="80.360071" xlink:href="#mb8bc26594a" y="293.763287"/>
     <use style="fill:#1f77b4;stroke:#1f77b4;" x="83.207918" xlink:href="#mb8bc26594a" y="288.04425"/>
     <use style="fill:#1f77b4;stroke:#1f77b4;" x="86.055765" xlink:href="#mb8bc26594a" y="268.46025"/>
     <use style="fill:#1f77b4;stroke:#1f77b4;" x="88.903612" xlink:href="#mb8bc26594a" y="202.341878"/>
     <use style="fill:#1f77b4;stroke:#1f77b4;" x="91.751459" xlink:href="#mb8bc26594a" y="103.774556"/>
     <use style="fill:#1f77b4;stroke:#1f77b4;" x="94.599305" xlink:href="#mb8bc26594a" y="61.610937"/>
     <use style="fill:#1f77b4;stroke:#1f77b4;" x="97.447152" xlink:href="#mb8bc26594a" y="99.580315"/>
     <use style="fill:#1f77b4;stroke:#1f77b4;" x="100.294999" xlink:href="#mb8bc26594a" y="180.540671"/>
     <use style="fill:#1f77b4;stroke:#1f77b4;" x="103.142846" xlink:href="#mb8bc26594a" y="249.190893"/>
     <use style="fill:#1f77b4;stroke:#1f77b4;" x="105.990693" xlink:href="#mb8bc26594a" y="279.052914"/>
     <use style="fill:#1f77b4;stroke:#1f77b4;" x="108.83854" xlink:href="#mb8bc26594a" y="292.07625"/>
     <use style="fill:#1f77b4;stroke:#1f77b4;" x="111.686387" xlink:href="#mb8bc26594a" y="294.28125"/>
    </g>
   </g>
   <g id="line2d_26">
    <path clip-path="url(#p2733d070c1)" d="M 125.925621 296.693501 
L 128.773468 289.441897 
L 131.621315 269.401788 
L 134.469162 240.849869 
L 137.317009 208.748457 
L 140.164856 184.962404 
L 143.012703 157.359351 
L 145.860549 160.990776 
L 148.708396 161.405104 
L 151.556243 193.17321 
L 154.40409 244.501695 
L 157.251937 277.64925 
L 160.099784 293.265332 
L 162.947631 295.487648 
" style="fill:none;stroke:#1f77b4;stroke-linecap:square;stroke-width:1.5;"/>
    <g clip-path="url(#p2733d070c1)">
     <use style="fill:#1f77b4;stroke:#1f77b4;" x="125.925621" xlink:href="#mb8bc26594a" y="296.693501"/>
     <use style="fill:#1f77b4;stroke:#1f77b4;" x="128.773468" xlink:href="#mb8bc26594a" y="289.441897"/>
     <use style="fill:#1f77b4;stroke:#1f77b4;" x="131.621315" xlink:href="#mb8bc26594a" y="269.401788"/>
     <use style="fill:#1f77b4;stroke:#1f77b4;" x="134.469162" xlink:href="#mb8bc26594a" y="240.849869"/>
     <use style="fill:#1f77b4;stroke:#1f77b4;" x="137.317009" xlink:href="#mb8bc26594a" y="208.748457"/>
     <use style="fill:#1f77b4;stroke:#1f77b4;" x="140.164856" xlink:href="#mb8bc26594a" y="184.962404"/>
     <use style="fill:#1f77b4;stroke:#1f77b4;" x="143.012703" xlink:href="#mb8bc26594a" y="157.359351"/>
     <use style="fill:#1f77b4;stroke:#1f77b4;" x="145.860549" xlink:href="#mb8bc26594a" y="160.990776"/>
     <use style="fill:#1f77b4;stroke:#1f77b4;" x="148.708396" xlink:href="#mb8bc26594a" y="161.405104"/>
     <use style="fill:#1f77b4;stroke:#1f77b4;" x="151.556243" xlink:href="#mb8bc26594a" y="193.17321"/>
     <use style="fill:#1f77b4;stroke:#1f77b4;" x="154.40409" xlink:href="#mb8bc26594a" y="244.501695"/>
     <use style="fill:#1f77b4;stroke:#1f77b4;" x="157.251937" xlink:href="#mb8bc26594a" y="277.64925"/>
     <use style="fill:#1f77b4;stroke:#1f77b4;" x="160.099784" xlink:href="#mb8bc26594a" y="293.265332"/>
     <use style="fill:#1f77b4;stroke:#1f77b4;" x="162.947631" xlink:href="#mb8bc26594a" y="295.487648"/>
    </g>
   </g>
   <g id="line2d_27">
    <path clip-path="url(#p2733d070c1)" d="M 177.186865 296.092495 
L 180.034712 293.771551 
L 182.882559 293.763287 
L 185.730406 291.879945 
L 188.578253 294.414169 
L 191.4261 291.328152 
L 194.273947 290.545303 
L 197.121794 292.419107 
L 199.96964 294.851169 
L 202.817487 295.407119 
L 205.665334 296.655257 
" style="fill:none;stroke:#1f77b4;stroke-linecap:square;stroke-width:1.5;"/>
    <g clip-path="url(#p2733d070c1)">
     <use style="fill:#1f77b4;stroke:#1f77b4;" x="177.186865" xlink:href="#mb8bc26594a" y="296.092495"/>
     <use style="fill:#1f77b4;stroke:#1f77b4;" x="180.034712" xlink:href="#mb8bc26594a" y="293.771551"/>
     <use style="fill:#1f77b4;stroke:#1f77b4;" x="182.882559" xlink:href="#mb8bc26594a" y="293.763287"/>
     <use style="fill:#1f77b4;stroke:#1f77b4;" x="185.730406" xlink:href="#mb8bc26594a" y="291.879945"/>
     <use style="fill:#1f77b4;stroke:#1f77b4;" x="188.578253" xlink:href="#mb8bc26594a" y="294.414169"/>
     <use style="fill:#1f77b4;stroke:#1f77b4;" x="191.4261" xlink:href="#mb8bc26594a" y="291.328152"/>
     <use style="fill:#1f77b4;stroke:#1f77b4;" x="194.273947" xlink:href="#mb8bc26594a" y="290.545303"/>
     <use style="fill:#1f77b4;stroke:#1f77b4;" x="197.121794" xlink:href="#mb8bc26594a" y="292.419107"/>
     <use style="fill:#1f77b4;stroke:#1f77b4;" x="199.96964" xlink:href="#mb8bc26594a" y="294.851169"/>
     <use style="fill:#1f77b4;stroke:#1f77b4;" x="202.817487" xlink:href="#mb8bc26594a" y="295.407119"/>
     <use style="fill:#1f77b4;stroke:#1f77b4;" x="205.665334" xlink:href="#mb8bc26594a" y="296.655257"/>
    </g>
   </g>
   <g id="line2d_28">
    <path clip-path="url(#p2733d070c1)" d="M 228.448109 295.635741 
L 231.295956 296.70076 
L 234.143803 294.324426 
L 236.99165 293.328715 
L 239.839497 293.424614 
L 242.687344 293.721418 
L 245.535191 292.83585 
L 248.383038 296.059928 
L 251.230884 295.579134 
L 254.078731 296.11754 
L 256.926578 296.150603 
" style="fill:none;stroke:#1f77b4;stroke-linecap:square;stroke-width:1.5;"/>
    <g clip-path="url(#p2733d070c1)">
     <use style="fill:#1f77b4;stroke:#1f77b4;" x="228.448109" xlink:href="#mb8bc26594a" y="295.635741"/>
     <use style="fill:#1f77b4;stroke:#1f77b4;" x="231.295956" xlink:href="#mb8bc26594a" y="296.70076"/>
     <use style="fill:#1f77b4;stroke:#1f77b4;" x="234.143803" xlink:href="#mb8bc26594a" y="294.324426"/>
     <use style="fill:#1f77b4;stroke:#1f77b4;" x="236.99165" xlink:href="#mb8bc26594a" y="293.328715"/>
     <use style="fill:#1f77b4;stroke:#1f77b4;" x="239.839497" xlink:href="#mb8bc26594a" y="293.424614"/>
     <use style="fill:#1f77b4;stroke:#1f77b4;" x="242.687344" xlink:href="#mb8bc26594a" y="293.721418"/>
     <use style="fill:#1f77b4;stroke:#1f77b4;" x="245.535191" xlink:href="#mb8bc26594a" y="292.83585"/>
     <use style="fill:#1f77b4;stroke:#1f77b4;" x="248.383038" xlink:href="#mb8bc26594a" y="296.059928"/>
     <use style="fill:#1f77b4;stroke:#1f77b4;" x="251.230884" xlink:href="#mb8bc26594a" y="295.579134"/>
     <use style="fill:#1f77b4;stroke:#1f77b4;" x="254.078731" xlink:href="#mb8bc26594a" y="296.11754"/>
     <use style="fill:#1f77b4;stroke:#1f77b4;" x="256.926578" xlink:href="#mb8bc26594a" y="296.150603"/>
    </g>
   </g>
   <g id="line2d_29">
    <path clip-path="url(#p2733d070c1)" d="M 274.01366 296.665135 
L 276.861506 295.54094 
L 279.709353 296.691666 
L 282.5572 295.483079 
L 285.405047 293.921986 
L 288.252894 293.828405 
L 291.100741 293.860131 
L 293.948588 294.310162 
L 296.796435 294.393905 
L 299.644282 297.256461 
L 302.492128 296.687974 
L 305.339975 297.254528 
L 308.187822 296.123668 
" style="fill:none;stroke:#1f77b4;stroke-linecap:square;stroke-width:1.5;"/>
    <g clip-path="url(#p2733d070c1)">
     <use style="fill:#1f77b4;stroke:#1f77b4;" x="274.01366" xlink:href="#mb8bc26594a" y="296.665135"/>
     <use style="fill:#1f77b4;stroke:#1f77b4;" x="276.861506" xlink:href="#mb8bc26594a" y="295.54094"/>
     <use style="fill:#1f77b4;stroke:#1f77b4;" x="279.709353" xlink:href="#mb8bc26594a" y="296.691666"/>
     <use style="fill:#1f77b4;stroke:#1f77b4;" x="282.5572" xlink:href="#mb8bc26594a" y="295.483079"/>
     <use style="fill:#1f77b4;stroke:#1f77b4;" x="285.405047" xlink:href="#mb8bc26594a" y="293.921986"/>
     <use style="fill:#1f77b4;stroke:#1f77b4;" x="288.252894" xlink:href="#mb8bc26594a" y="293.828405"/>
     <use style="fill:#1f77b4;stroke:#1f77b4;" x="291.100741" xlink:href="#mb8bc26594a" y="293.860131"/>
     <use style="fill:#1f77b4;stroke:#1f77b4;" x="293.948588" xlink:href="#mb8bc26594a" y="294.310162"/>
     <use style="fill:#1f77b4;stroke:#1f77b4;" x="296.796435" xlink:href="#mb8bc26594a" y="294.393905"/>
     <use style="fill:#1f77b4;stroke:#1f77b4;" x="299.644282" xlink:href="#mb8bc26594a" y="297.256461"/>
     <use style="fill:#1f77b4;stroke:#1f77b4;" x="302.492128" xlink:href="#mb8bc26594a" y="296.687974"/>
     <use style="fill:#1f77b4;stroke:#1f77b4;" x="305.339975" xlink:href="#mb8bc26594a" y="297.254528"/>
     <use style="fill:#1f77b4;stroke:#1f77b4;" x="308.187822" xlink:href="#mb8bc26594a" y="296.123668"/>
    </g>
   </g>
   <g id="line2d_30">
    <path clip-path="url(#p2733d070c1)" d="M 319.57921 295.510193 
L 322.427057 296.144706 
L 325.274904 293.779779 
L 328.12275 296.630622 
L 330.970597 296.089303 
L 333.818444 294.31731 
L 336.666291 293.22825 
L 339.514138 295.54094 
L 342.361985 296.647194 
L 345.209832 296.089303 
L 348.057679 295.579134 
L 350.905526 296.678603 
L 353.753372 296.686116 
" style="fill:none;stroke:#1f77b4;stroke-linecap:square;stroke-width:1.5;"/>
    <g clip-path="url(#p2733d070c1)">
     <use style="fill:#1f77b4;stroke:#1f77b4;" x="319.57921" xlink:href="#mb8bc26594a" y="295.510193"/>
     <use style="fill:#1f77b4;stroke:#1f77b4;" x="322.427057" xlink:href="#mb8bc26594a" y="296.144706"/>
     <use style="fill:#1f77b4;stroke:#1f77b4;" x="325.274904" xlink:href="#mb8bc26594a" y="293.779779"/>
     <use style="fill:#1f77b4;stroke:#1f77b4;" x="328.12275" xlink:href="#mb8bc26594a" y="296.630622"/>
     <use style="fill:#1f77b4;stroke:#1f77b4;" x="330.970597" xlink:href="#mb8bc26594a" y="296.089303"/>
     <use style="fill:#1f77b4;stroke:#1f77b4;" x="333.818444" xlink:href="#mb8bc26594a" y="294.31731"/>
     <use style="fill:#1f77b4;stroke:#1f77b4;" x="336.666291" xlink:href="#mb8bc26594a" y="293.22825"/>
     <use style="fill:#1f77b4;stroke:#1f77b4;" x="339.514138" xlink:href="#mb8bc26594a" y="295.54094"/>
     <use style="fill:#1f77b4;stroke:#1f77b4;" x="342.361985" xlink:href="#mb8bc26594a" y="296.647194"/>
     <use style="fill:#1f77b4;stroke:#1f77b4;" x="345.209832" xlink:href="#mb8bc26594a" y="296.089303"/>
     <use style="fill:#1f77b4;stroke:#1f77b4;" x="348.057679" xlink:href="#mb8bc26594a" y="295.579134"/>
     <use style="fill:#1f77b4;stroke:#1f77b4;" x="350.905526" xlink:href="#mb8bc26594a" y="296.678603"/>
     <use style="fill:#1f77b4;stroke:#1f77b4;" x="353.753372" xlink:href="#mb8bc26594a" y="296.686116"/>
    </g>
   </g>
   <g id="line2d_31">
    <path clip-path="url(#p2733d070c1)" d="M 365.14476 293.989139 
L 367.992607 296.667084 
L 370.840454 296.721815 
L 373.688301 294.081861 
L 376.536148 296.079641 
L 379.383994 292.826012 
L 382.231841 294.89303 
L 385.079688 295.549555 
L 387.927535 293.23758 
L 390.775382 293.073272 
L 393.623229 295.611884 
L 396.471076 293.844336 
L 399.318923 296.123668 
L 402.16677 296.135766 
L 405.014616 296.706123 
" style="fill:none;stroke:#1f77b4;stroke-linecap:square;stroke-width:1.5;"/>
    <g clip-path="url(#p2733d070c1)">
     <use style="fill:#1f77b4;stroke:#1f77b4;" x="365.14476" xlink:href="#mb8bc26594a" y="293.989139"/>
     <use style="fill:#1f77b4;stroke:#1f77b4;" x="367.992607" xlink:href="#mb8bc26594a" y="296.667084"/>
     <use style="fill:#1f77b4;stroke:#1f77b4;" x="370.840454" xlink:href="#mb8bc26594a" y="296.721815"/>
     <use style="fill:#1f77b4;stroke:#1f77b4;" x="373.688301" xlink:href="#mb8bc26594a" y="294.081861"/>
     <use style="fill:#1f77b4;stroke:#1f77b4;" x="376.536148" xlink:href="#mb8bc26594a" y="296.079641"/>
     <use style="fill:#1f77b4;stroke:#1f77b4;" x="379.383994" xlink:href="#mb8bc26594a" y="292.826012"/>
     <use style="fill:#1f77b4;stroke:#1f77b4;" x="382.231841" xlink:href="#mb8bc26594a" y="294.89303"/>
     <use style="fill:#1f77b4;stroke:#1f77b4;" x="385.079688" xlink:href="#mb8bc26594a" y="295.549555"/>
     <use style="fill:#1f77b4;stroke:#1f77b4;" x="387.927535" xlink:href="#mb8bc26594a" y="293.23758"/>
     <use style="fill:#1f77b4;stroke:#1f77b4;" x="390.775382" xlink:href="#mb8bc26594a" y="293.073272"/>
     <use style="fill:#1f77b4;stroke:#1f77b4;" x="393.623229" xlink:href="#mb8bc26594a" y="295.611884"/>
     <use style="fill:#1f77b4;stroke:#1f77b4;" x="396.471076" xlink:href="#mb8bc26594a" y="293.844336"/>
     <use style="fill:#1f77b4;stroke:#1f77b4;" x="399.318923" xlink:href="#mb8bc26594a" y="296.123668"/>
     <use style="fill:#1f77b4;stroke:#1f77b4;" x="402.16677" xlink:href="#mb8bc26594a" y="296.135766"/>
     <use style="fill:#1f77b4;stroke:#1f77b4;" x="405.014616" xlink:href="#mb8bc26594a" y="296.706123"/>
    </g>
   </g>
   <g id="patch_3">
    <path d="M 64.127344 297.54825 
L 64.127344 31.43625 
" style="fill:none;stroke:#000000;stroke-linecap:square;stroke-linejoin:miter;stroke-width:0.8;"/>
   </g>
   <g id="patch_4">
    <path d="M 421.247344 297.54825 
L 421.247344 31.43625 
" style="fill:none;stroke:#000000;stroke-linecap:square;stroke-linejoin:miter;stroke-width:0.8;"/>
   </g>
   <g id="patch_5">
    <path d="M 64.127344 297.54825 
L 421.247344 297.54825 
" style="fill:none;stroke:#000000;stroke-linecap:square;stroke-linejoin:miter;stroke-width:0.8;"/>
   </g>
   <g id="patch_6">
    <path d="M 64.127344 31.43625 
L 421.247344 31.43625 
" style="fill:none;stroke:#000000;stroke-linecap:square;stroke-linejoin:miter;stroke-width:0.8;"/>
   </g>
   <g id="text_15">
    <!-- Z spectrum -->
    <defs>
     <path d="M 5.609375 72.90625 
L 62.890625 72.90625 
L 62.890625 65.375 
L 16.796875 8.296875 
L 64.015625 8.296875 
L 64.015625 0 
L 4.5 0 
L 4.5 7.515625 
L 50.59375 64.59375 
L 5.609375 64.59375 
z
" id="DejaVuSans-5a"/>
     <path d="M 44.28125 53.078125 
L 44.28125 44.578125 
Q 40.484375 46.53125 36.375 47.5 
Q 32.28125 48.484375 27.875 48.484375 
Q 21.1875 48.484375 17.84375 46.4375 
Q 14.5 44.390625 14.5 40.28125 
Q 14.5 37.15625 16.890625 35.375 
Q 19.28125 33.59375 26.515625 31.984375 
L 29.59375 31.296875 
Q 39.15625 29.25 43.1875 25.515625 
Q 47.21875 21.78125 47.21875 15.09375 
Q 47.21875 7.46875 41.1875 3.015625 
Q 35.15625 -1.421875 24.609375 -1.421875 
Q 20.21875 -1.421875 15.453125 -0.5625 
Q 10.6875 0.296875 5.421875 2 
L 5.421875 11.28125 
Q 10.40625 8.6875 15.234375 7.390625 
Q 20.0625 6.109375 24.8125 6.109375 
Q 31.15625 6.109375 34.5625 8.28125 
Q 37.984375 10.453125 37.984375 14.40625 
Q 37.984375 18.0625 35.515625 20.015625 
Q 33.0625 21.96875 24.703125 23.78125 
L 21.578125 24.515625 
Q 13.234375 26.265625 9.515625 29.90625 
Q 5.8125 33.546875 5.8125 39.890625 
Q 5.8125 47.609375 11.28125 51.796875 
Q 16.75 56 26.8125 56 
Q 31.78125 56 36.171875 55.265625 
Q 40.578125 54.546875 44.28125 53.078125 
z
" id="DejaVuSans-73"/>
     <path d="M 18.109375 8.203125 
L 18.109375 -20.796875 
L 9.078125 -20.796875 
L 9.078125 54.6875 
L 18.109375 54.6875 
L 18.109375 46.390625 
Q 20.953125 51.265625 25.265625 53.625 
Q 29.59375 56 35.59375 56 
Q 45.5625 56 51.78125 48.09375 
Q 58.015625 40.1875 58.015625 27.296875 
Q 58.015625 14.40625 51.78125 6.484375 
Q 45.5625 -1.421875 35.59375 -1.421875 
Q 29.59375 -1.421875 25.265625 0.953125 
Q 20.953125 3.328125 18.109375 8.203125 
z
M 48.6875 27.296875 
Q 48.6875 37.203125 44.609375 42.84375 
Q 40.53125 48.484375 33.40625 48.484375 
Q 26.265625 48.484375 22.1875 42.84375 
Q 18.109375 37.203125 18.109375 27.296875 
Q 18.109375 17.390625 22.1875 11.75 
Q 26.265625 6.109375 33.40625 6.109375 
Q 40.53125 6.109375 44.609375 11.75 
Q 48.6875 17.390625 48.6875 27.296875 
z
" id="DejaVuSans-70"/>
     <path d="M 18.3125 70.21875 
L 18.3125 54.6875 
L 36.8125 54.6875 
L 36.8125 47.703125 
L 18.3125 47.703125 
L 18.3125 18.015625 
Q 18.3125 11.328125 20.140625 9.421875 
Q 21.96875 7.515625 27.59375 7.515625 
L 36.8125 7.515625 
L 36.8125 0 
L 27.59375 0 
Q 17.1875 0 13.234375 3.875 
Q 9.28125 7.765625 9.28125 18.015625 
L 9.28125 47.703125 
L 2.6875 47.703125 
L 2.6875 54.6875 
L 9.28125 54.6875 
L 9.28125 70.21875 
z
" id="DejaVuSans-74"/>
     <path d="M 52 44.1875 
Q 55.375 50.25 60.0625 53.125 
Q 64.75 56 71.09375 56 
Q 79.640625 56 84.28125 50.015625 
Q 88.921875 44.046875 88.921875 33.015625 
L 88.921875 0 
L 79.890625 0 
L 79.890625 32.71875 
Q 79.890625 40.578125 77.09375 44.375 
Q 74.3125 48.1875 68.609375 48.1875 
Q 61.625 48.1875 57.5625 43.546875 
Q 53.515625 38.921875 53.515625 30.90625 
L 53.515625 0 
L 44.484375 0 
L 44.484375 32.71875 
Q 44.484375 40.625 41.703125 44.40625 
Q 38.921875 48.1875 33.109375 48.1875 
Q 26.21875 48.1875 22.15625 43.53125 
Q 18.109375 38.875 18.109375 30.90625 
L 18.109375 0 
L 9.078125 0 
L 9.078125 54.6875 
L 18.109375 54.6875 
L 18.109375 46.1875 
Q 21.1875 51.21875 25.484375 53.609375 
Q 29.78125 56 35.6875 56 
Q 41.65625 56 45.828125 52.96875 
Q 50 49.953125 52 44.1875 
z
" id="DejaVuSans-6d"/>
    </defs>
    <g transform="translate(173.871094 25.43625)scale(0.24 -0.24)">
     <use xlink:href="#DejaVuSans-5a"/>
     <use x="68.505859" xlink:href="#DejaVuSans-20"/>
     <use x="100.292969" xlink:href="#DejaVuSans-73"/>
     <use x="152.392578" xlink:href="#DejaVuSans-70"/>
     <use x="215.869141" xlink:href="#DejaVuSans-65"/>
     <use x="277.392578" xlink:href="#DejaVuSans-63"/>
     <use x="332.373047" xlink:href="#DejaVuSans-74"/>
     <use x="371.582031" xlink:href="#DejaVuSans-72"/>
     <use x="412.695312" xlink:href="#DejaVuSans-75"/>
     <use x="476.074219" xlink:href="#DejaVuSans-6d"/>
    </g>
   </g>
  </g>
 </g>
 <defs>
  <clipPath id="p2733d070c1">
   <rect height="266.112" width="357.12" x="64.127344" y="31.43625"/>
  </clipPath>
 </defs>
</svg>
