<?xml version="1.0" encoding="utf-8" standalone="no"?>
<!DOCTYPE svg PUBLIC "-//W3C//DTD SVG 1.1//EN"
  "http://www.w3.org/Graphics/SVG/1.1/DTD/svg11.dtd">
<!-- Created with matplotlib (http://matplotlib.org/) -->
<svg height="349pt" version="1.1" viewBox="0 0 431 349" width="431pt" xmlns="http://www.w3.org/2000/svg" xmlns:xlink="http://www.w3.org/1999/xlink">
 <defs>
  <style type="text/css">
*{stroke-linecap:butt;stroke-linejoin:round;}
  </style>
 </defs>
 <g id="figure_1">
  <g id="patch_1">
   <path d="M 0 349.621687 
L 431.947344 349.621687 
L 431.947344 0 
L 0 0 
z
" style="fill:none;"/>
  </g>
  <g id="axes_1">
   <g id="patch_2">
    <path d="M 64.127344 297.54825 
L 421.247344 297.54825 
L 421.247344 31.43625 
L 64.127344 31.43625 
z
" style="fill:none;"/>
   </g>
   <g id="matplotlib.axis_1">
    <g id="xtick_1">
     <g id="line2d_1">
      <path clip-path="url(#p2733d070c1)" d="M 80.360071 297.54825 
L 80.360071 31.43625 
" style="fill:none;stroke:#b0b0b0;stroke-linecap:square;stroke-width:0.8;"/>
     </g>
     <g id="line2d_2">
      <defs>
       <path d="M 0 0 
L 0 3.5 
" id="m005f0a59be" style="stroke:#000000;stroke-width:0.8;"/>
      </defs>
      <g>
       <use style="stroke:#000000;stroke-width:0.8;" x="80.360071" xlink:href="#m005f0a59be" y="297.54825"/>
      </g>
     </g>
     <g id="text_1">
      <!-- 18.0 -->
      <defs>
       <path d="M 11.71875 12.984375 
L 28.328125 12.984375 
L 28.328125 60.109375 
L 11.28125 56.59375 
L 11.28125 69.390625 
L 28.21875 72.90625 
L 46.09375 72.90625 
L 46.09375 12.984375 
L 62.703125 12.984375 
L 62.703125 0 
L 11.71875 0 
z
" id="DejaVuSans-Bold-31"/>
       <path d="M 34.8125 32.625 
Q 29.546875 32.625 26.703125 29.734375 
Q 23.875 26.859375 23.875 21.484375 
Q 23.875 16.109375 26.703125 13.25 
Q 29.546875 10.40625 34.8125 10.40625 
Q 40.046875 10.40625 42.828125 13.25 
Q 45.609375 16.109375 45.609375 21.484375 
Q 45.609375 26.90625 42.828125 29.765625 
Q 40.046875 32.625 34.8125 32.625 
z
M 21.09375 38.8125 
Q 14.453125 40.828125 11.078125 44.96875 
Q 7.71875 49.125 7.71875 55.328125 
Q 7.71875 64.546875 14.59375 69.375 
Q 21.484375 74.21875 34.8125 74.21875 
Q 48.046875 74.21875 54.921875 69.40625 
Q 61.8125 64.59375 61.8125 55.328125 
Q 61.8125 49.125 58.421875 44.96875 
Q 55.03125 40.828125 48.390625 38.8125 
Q 55.8125 36.765625 59.59375 32.15625 
Q 63.375 27.546875 63.375 20.515625 
Q 63.375 9.671875 56.171875 4.125 
Q 48.96875 -1.421875 34.8125 -1.421875 
Q 20.609375 -1.421875 13.359375 4.125 
Q 6.109375 9.671875 6.109375 20.515625 
Q 6.109375 27.546875 9.890625 32.15625 
Q 13.671875 36.765625 21.09375 38.8125 
z
M 25.484375 53.421875 
Q 25.484375 49.078125 27.90625 46.734375 
Q 30.328125 44.390625 34.8125 44.390625 
Q 39.203125 44.390625 41.59375 46.734375 
Q 44 49.078125 44 53.421875 
Q 44 57.765625 41.59375 60.078125 
Q 39.203125 62.40625 34.8125 62.40625 
Q 30.328125 62.40625 27.90625 60.0625 
Q 25.484375 57.71875 25.484375 53.421875 
z
" id="DejaVuSans-Bold-38"/>
       <path d="M 10.203125 18.890625 
L 27.78125 18.890625 
L 27.78125 0 
L 10.203125 0 
z
" id="DejaVuSans-Bold-2e"/>
       <path d="M 46 36.53125 
Q 46 50.203125 43.4375 55.78125 
Q 40.875 61.375 34.8125 61.375 
Q 28.765625 61.375 26.171875 55.78125 
Q 23.578125 50.203125 23.578125 36.53125 
Q 23.578125 22.703125 26.171875 17.03125 
Q 28.765625 11.375 34.8125 11.375 
Q 40.828125 11.375 43.40625 17.03125 
Q 46 22.703125 46 36.53125 
z
M 64.796875 36.375 
Q 64.796875 18.265625 56.984375 8.421875 
Q 49.171875 -1.421875 34.8125 -1.421875 
Q 20.40625 -1.421875 12.59375 8.421875 
Q 4.78125 18.265625 4.78125 36.375 
Q 4.78125 54.546875 12.59375 64.375 
Q 20.40625 74.21875 34.8125 74.21875 
Q 49.171875 74.21875 56.984375 64.375 
Q 64.796875 54.546875 64.796875 36.375 
z
" id="DejaVuSans-Bold-30"/>
      </defs>
      <g transform="translate(61.856165 315.945906)scale(0.15 -0.15)">
       <use xlink:href="#DejaVuSans-Bold-31"/>
       <use x="69.580078" xlink:href="#DejaVuSans-Bold-38"/>
       <use x="139.160156" xlink:href="#DejaVuSans-Bold-2e"/>
       <use x="177.148438" xlink:href="#DejaVuSans-Bold-30"/>
      </g>
     </g>
    </g>
    <g id="xtick_2">
     <g id="line2d_3">
      <path clip-path="url(#p2733d070c1)" d="M 161.523707 297.54825 
L 161.523707 31.43625 
" style="fill:none;stroke:#b0b0b0;stroke-linecap:square;stroke-width:0.8;"/>
     </g>
     <g id="line2d_4">
      <g>
       <use style="stroke:#000000;stroke-width:0.8;" x="161.523707" xlink:href="#m005f0a59be" y="297.54825"/>
      </g>
     </g>
     <g id="text_2">
      <!-- 18.5 -->
      <defs>
       <path d="M 10.59375 72.90625 
L 57.328125 72.90625 
L 57.328125 59.078125 
L 25.59375 59.078125 
L 25.59375 47.796875 
Q 27.734375 48.390625 29.90625 48.703125 
Q 32.078125 49.03125 34.421875 49.03125 
Q 47.75 49.03125 55.171875 42.359375 
Q 62.59375 35.6875 62.59375 23.78125 
Q 62.59375 11.96875 54.515625 5.265625 
Q 46.4375 -1.421875 32.078125 -1.421875 
Q 25.875 -1.421875 19.796875 -0.21875 
Q 13.71875 0.984375 7.71875 3.421875 
L 7.71875 18.21875 
Q 13.671875 14.796875 19.015625 13.078125 
Q 24.359375 11.375 29.109375 11.375 
Q 35.9375 11.375 39.859375 14.71875 
Q 43.796875 18.0625 43.796875 23.78125 
Q 43.796875 29.546875 39.859375 32.859375 
Q 35.9375 36.1875 29.109375 36.1875 
Q 25.046875 36.1875 20.453125 35.125 
Q 15.875 34.078125 10.59375 31.890625 
z
" id="DejaVuSans-Bold-35"/>
      </defs>
      <g transform="translate(143.019801 315.945906)scale(0.15 -0.15)">
       <use xlink:href="#DejaVuSans-Bold-31"/>
       <use x="69.580078" xlink:href="#DejaVuSans-Bold-38"/>
       <use x="139.160156" xlink:href="#DejaVuSans-Bold-2e"/>
       <use x="177.148438" xlink:href="#DejaVuSans-Bold-35"/>
      </g>
     </g>
    </g>
    <g id="xtick_3">
     <g id="line2d_5">
      <path clip-path="url(#p2733d070c1)" d="M 242.687344 297.54825 
L 242.687344 31.43625 
" style="fill:none;stroke:#b0b0b0;stroke-linecap:square;stroke-width:0.8;"/>
     </g>
     <g id="line2d_6">
      <g>
       <use style="stroke:#000000;stroke-width:0.8;" x="242.687344" xlink:href="#m005f0a59be" y="297.54825"/>
      </g>
     </g>
     <g id="text_3">
      <!-- 19.0 -->
      <defs>
       <path d="M 10.015625 1.609375 
L 10.015625 15.09375 
Q 14.5 12.984375 18.59375 11.9375 
Q 22.703125 10.890625 26.703125 10.890625 
Q 35.109375 10.890625 39.796875 15.546875 
Q 44.484375 20.21875 45.3125 29.390625 
Q 42 26.953125 38.234375 25.734375 
Q 34.46875 24.515625 30.078125 24.515625 
Q 18.890625 24.515625 12.03125 31.03125 
Q 5.171875 37.546875 5.171875 48.1875 
Q 5.171875 59.96875 12.8125 67.046875 
Q 20.453125 74.125 33.296875 74.125 
Q 47.5625 74.125 55.375 64.5 
Q 63.1875 54.890625 63.1875 37.3125 
Q 63.1875 19.234375 54.046875 8.90625 
Q 44.921875 -1.421875 29 -1.421875 
Q 23.875 -1.421875 19.1875 -0.65625 
Q 14.5 0.09375 10.015625 1.609375 
z
M 33.203125 36.71875 
Q 38.140625 36.71875 40.625 39.90625 
Q 43.109375 43.109375 43.109375 49.515625 
Q 43.109375 55.859375 40.625 59.078125 
Q 38.140625 62.3125 33.203125 62.3125 
Q 28.265625 62.3125 25.78125 59.078125 
Q 23.296875 55.859375 23.296875 49.515625 
Q 23.296875 43.109375 25.78125 39.90625 
Q 28.265625 36.71875 33.203125 36.71875 
z
" id="DejaVuSans-Bold-39"/>
      </defs>
      <g transform="translate(224.183437 315.945906)scale(0.15 -0.15)">
       <use xlink:href="#DejaVuSans-Bold-31"/>
       <use x="69.580078" xlink:href="#DejaVuSans-Bold-39"/>
       <use x="139.160156" xlink:href="#DejaVuSans-Bold-2e"/>
       <use x="177.148438" xlink:href="#DejaVuSans-Bold-30"/>
      </g>
     </g>
    </g>
    <g id="xtick_4">
     <g id="line2d_7">
      <path clip-path="url(#p2733d070c1)" d="M 323.85098 297.54825 
L 323.85098 31.43625 
" style="fill:none;stroke:#b0b0b0;stroke-linecap:square;stroke-width:0.8;"/>
     </g>
     <g id="line2d_8">
      <g>
       <use style="stroke:#000000;stroke-width:0.8;" x="323.85098" xlink:href="#m005f0a59be" y="297.54825"/>
      </g>
     </g>
     <g id="text_4">
      <!-- 19.5 -->
      <g transform="translate(305.347074 315.945906)scale(0.15 -0.15)">
       <use xlink:href="#DejaVuSans-Bold-31"/>
       <use x="69.580078" xlink:href="#DejaVuSans-Bold-39"/>
       <use x="139.160156" xlink:href="#DejaVuSans-Bold-2e"/>
       <use x="177.148438" xlink:href="#DejaVuSans-Bold-35"/>
      </g>
     </g>
    </g>
    <g id="xtick_5">
     <g id="line2d_9">
      <path clip-path="url(#p2733d070c1)" d="M 405.014616 297.54825 
L 405.014616 31.43625 
" style="fill:none;stroke:#b0b0b0;stroke-linecap:square;stroke-width:0.8;"/>
     </g>
     <g id="line2d_10">
      <g>
       <use style="stroke:#000000;stroke-width:0.8;" x="405.014616" xlink:href="#m005f0a59be" y="297.54825"/>
      </g>
     </g>
     <g id="text_5">
      <!-- 20.0 -->
      <defs>
       <path d="M 28.8125 13.8125 
L 60.890625 13.8125 
L 60.890625 0 
L 7.90625 0 
L 7.90625 13.8125 
L 34.515625 37.3125 
Q 38.09375 40.53125 39.796875 43.609375 
Q 41.5 46.6875 41.5 50 
Q 41.5 55.125 38.0625 58.25 
Q 34.625 61.375 28.90625 61.375 
Q 24.515625 61.375 19.28125 59.5 
Q 14.0625 57.625 8.109375 53.90625 
L 8.109375 69.921875 
Q 14.453125 72.015625 20.65625 73.109375 
Q 26.859375 74.21875 32.8125 74.21875 
Q 45.90625 74.21875 53.15625 68.453125 
Q 60.40625 62.703125 60.40625 52.390625 
Q 60.40625 46.4375 57.328125 41.28125 
Q 54.25 36.140625 44.390625 27.484375 
z
" id="DejaVuSans-Bold-32"/>
      </defs>
      <g transform="translate(386.51071 315.945906)scale(0.15 -0.15)">
       <use xlink:href="#DejaVuSans-Bold-32"/>
       <use x="69.580078" xlink:href="#DejaVuSans-Bold-30"/>
       <use x="139.160156" xlink:href="#DejaVuSans-Bold-2e"/>
       <use x="177.148438" xlink:href="#DejaVuSans-Bold-30"/>
      </g>
     </g>
    </g>
    <g id="text_6">
     <!-- Frequency (MHz) -->
     <defs>
      <path d="M 9.8125 72.90625 
L 51.703125 72.90625 
L 51.703125 64.59375 
L 19.671875 64.59375 
L 19.671875 43.109375 
L 48.578125 43.109375 
L 48.578125 34.8125 
L 19.671875 34.8125 
L 19.671875 0 
L 9.8125 0 
z
" id="DejaVuSans-46"/>
      <path d="M 41.109375 46.296875 
Q 39.59375 47.171875 37.8125 47.578125 
Q 36.03125 48 33.890625 48 
Q 26.265625 48 22.1875 43.046875 
Q 18.109375 38.09375 18.109375 28.8125 
L 18.109375 0 
L 9.078125 0 
L 9.078125 54.6875 
L 18.109375 54.6875 
L 18.109375 46.1875 
Q 20.953125 51.171875 25.484375 53.578125 
Q 30.03125 56 36.53125 56 
Q 37.453125 56 38.578125 55.875 
Q 39.703125 55.765625 41.0625 55.515625 
z
" id="DejaVuSans-72"/>
      <path d="M 56.203125 29.59375 
L 56.203125 25.203125 
L 14.890625 25.203125 
Q 15.484375 15.921875 20.484375 11.0625 
Q 25.484375 6.203125 34.421875 6.203125 
Q 39.59375 6.203125 44.453125 7.46875 
Q 49.3125 8.734375 54.109375 11.28125 
L 54.109375 2.78125 
Q 49.265625 0.734375 44.1875 -0.34375 
Q 39.109375 -1.421875 33.890625 -1.421875 
Q 20.796875 -1.421875 13.15625 6.1875 
Q 5.515625 13.8125 5.515625 26.8125 
Q 5.515625 40.234375 12.765625 48.109375 
Q 20.015625 56 32.328125 56 
Q 43.359375 56 49.78125 48.890625 
Q 56.203125 41.796875 56.203125 29.59375 
z
M 47.21875 32.234375 
Q 47.125 39.59375 43.09375 43.984375 
Q 39.0625 48.390625 32.421875 48.390625 
Q 24.90625 48.390625 20.390625 44.140625 
Q 15.875 39.890625 15.1875 32.171875 
z
" id="DejaVuSans-65"/>
      <path d="M 14.796875 27.296875 
Q 14.796875 17.390625 18.875 11.75 
Q 22.953125 6.109375 30.078125 6.109375 
Q 37.203125 6.109375 41.296875 11.75 
Q 45.40625 17.390625 45.40625 27.296875 
Q 45.40625 37.203125 41.296875 42.84375 
Q 37.203125 48.484375 30.078125 48.484375 
Q 22.953125 48.484375 18.875 42.84375 
Q 14.796875 37.203125 14.796875 27.296875 
z
M 45.40625 8.203125 
Q 42.578125 3.328125 38.25 0.953125 
Q 33.9375 -1.421875 27.875 -1.421875 
Q 17.96875 -1.421875 11.734375 6.484375 
Q 5.515625 14.40625 5.515625 27.296875 
Q 5.515625 40.1875 11.734375 48.09375 
Q 17.96875 56 27.875 56 
Q 33.9375 56 38.25 53.625 
Q 42.578125 51.265625 45.40625 46.390625 
L 45.40625 54.6875 
L 54.390625 54.6875 
L 54.390625 -20.796875 
L 45.40625 -20.796875 
z
" id="DejaVuSans-71"/>
      <path d="M 8.5 21.578125 
L 8.5 54.6875 
L 17.484375 54.6875 
L 17.484375 21.921875 
Q 17.484375 14.15625 20.5 10.265625 
Q 23.53125 6.390625 29.59375 6.390625 
Q 36.859375 6.390625 41.078125 11.03125 
Q 45.3125 15.671875 45.3125 23.6875 
L 45.3125 54.6875 
L 54.296875 54.6875 
L 54.296875 0 
L 45.3125 0 
L 45.3125 8.40625 
Q 42.046875 3.421875 37.71875 1 
Q 33.40625 -1.421875 27.6875 -1.421875 
Q 18.265625 -1.421875 13.375 4.4375 
Q 8.5 10.296875 8.5 21.578125 
z
M 31.109375 56 
z
" id="DejaVuSans-75"/>
      <path d="M 54.890625 33.015625 
L 54.890625 0 
L 45.90625 0 
L 45.90625 32.71875 
Q 45.90625 40.484375 42.875 44.328125 
Q 39.84375 48.1875 33.796875 48.1875 
Q 26.515625 48.1875 22.3125 43.546875 
Q 18.109375 38.921875 18.109375 30.90625 
L 18.109375 0 
L 9.078125 0 
L 9.078125 54.6875 
L 18.109375 54.6875 
L 18.109375 46.1875 
Q 21.34375 51.125 25.703125 53.5625 
Q 30.078125 56 35.796875 56 
Q 45.21875 56 50.046875 50.171875 
Q 54.890625 44.34375 54.890625 33.015625 
z
" id="DejaVuSans-6e"/>
      <path d="M 48.78125 52.59375 
L 48.78125 44.1875 
Q 44.96875 46.296875 41.140625 47.34375 
Q 37.3125 48.390625 33.40625 48.390625 
Q 24.65625 48.390625 19.8125 42.84375 
Q 14.984375 37.3125 14.984375 27.296875 
Q 14.984375 17.28125 19.8125 11.734375 
Q 24.65625 6.203125 33.40625 6.203125 
Q 37.3125 6.203125 41.140625 7.25 
Q 44.96875 8.296875 48.78125 10.40625 
L 48.78125 2.09375 
Q 45.015625 0.34375 40.984375 -0.53125 
Q 36.96875 -1.421875 32.421875 -1.421875 
Q 20.0625 -1.421875 12.78125 6.34375 
Q 5.515625 14.109375 5.515625 27.296875 
Q 5.515625 40.671875 12.859375 48.328125 
Q 20.21875 56 33.015625 56 
Q 37.15625 56 41.109375 55.140625 
Q 45.0625 54.296875 48.78125 52.59375 
z
" id="DejaVuSans-63"/>
      <path d="M 32.171875 -5.078125 
Q 28.375 -14.84375 24.75 -17.8125 
Q 21.140625 -20.796875 15.09375 -20.796875 
L 7.90625 -20.796875 
L 7.90625 -13.28125 
L 13.1875 -13.28125 
Q 16.890625 -13.28125 18.9375 -11.515625 
Q 21 -9.765625 23.484375 -3.21875 
L 25.09375 0.875 
L 2.984375 54.6875 
L 12.5 54.6875 
L 29.59375 11.921875 
L 46.6875 54.6875 
L 56.203125 54.6875 
z
" id="DejaVuSans-79"/>
      <path id="DejaVuSans-20"/>
      <path d="M 31 75.875 
Q 24.46875 64.65625 21.28125 53.65625 
Q 18.109375 42.671875 18.109375 31.390625 
Q 18.109375 20.125 21.3125 9.0625 
Q 24.515625 -2 31 -13.1875 
L 23.1875 -13.1875 
Q 15.875 -1.703125 12.234375 9.375 
Q 8.59375 20.453125 8.59375 31.390625 
Q 8.59375 42.28125 12.203125 53.3125 
Q 15.828125 64.359375 23.1875 75.875 
z
" id="DejaVuSans-28"/>
      <path d="M 9.8125 72.90625 
L 24.515625 72.90625 
L 43.109375 23.296875 
L 61.8125 72.90625 
L 76.515625 72.90625 
L 76.515625 0 
L 66.890625 0 
L 66.890625 64.015625 
L 48.09375 14.015625 
L 38.1875 14.015625 
L 19.390625 64.015625 
L 19.390625 0 
L 9.8125 0 
z
" id="DejaVuSans-4d"/>
      <path d="M 9.8125 72.90625 
L 19.671875 72.90625 
L 19.671875 43.015625 
L 55.515625 43.015625 
L 55.515625 72.90625 
L 65.375 72.90625 
L 65.375 0 
L 55.515625 0 
L 55.515625 34.71875 
L 19.671875 34.71875 
L 19.671875 0 
L 9.8125 0 
z
" id="DejaVuSans-48"/>
      <path d="M 5.515625 54.6875 
L 48.1875 54.6875 
L 48.1875 46.484375 
L 14.40625 7.171875 
L 48.1875 7.171875 
L 48.1875 0 
L 4.296875 0 
L 4.296875 8.203125 
L 38.09375 47.515625 
L 5.515625 47.515625 
z
" id="DejaVuSans-7a"/>
      <path d="M 8.015625 75.875 
L 15.828125 75.875 
Q 23.140625 64.359375 26.78125 53.3125 
Q 30.421875 42.28125 30.421875 31.390625 
Q 30.421875 20.453125 26.78125 9.375 
Q 23.140625 -1.703125 15.828125 -13.1875 
L 8.015625 -13.1875 
Q 14.5 -2 17.703125 9.0625 
Q 20.90625 20.125 20.90625 31.390625 
Q 20.90625 42.671875 17.703125 53.65625 
Q 14.5 64.65625 8.015625 75.875 
z
" id="DejaVuSans-29"/>
     </defs>
     <g transform="translate(157.713906 338.262312)scale(0.2 -0.2)">
      <use xlink:href="#DejaVuSans-46"/>
      <use x="57.410156" xlink:href="#DejaVuSans-72"/>
      <use x="98.492188" xlink:href="#DejaVuSans-65"/>
      <use x="160.015625" xlink:href="#DejaVuSans-71"/>
      <use x="223.492188" xlink:href="#DejaVuSans-75"/>
      <use x="286.871094" xlink:href="#DejaVuSans-65"/>
      <use x="348.394531" xlink:href="#DejaVuSans-6e"/>
      <use x="411.773438" xlink:href="#DejaVuSans-63"/>
      <use x="466.753906" xlink:href="#DejaVuSans-79"/>
      <use x="525.933594" xlink:href="#DejaVuSans-20"/>
      <use x="557.720703" xlink:href="#DejaVuSans-28"/>
      <use x="596.734375" xlink:href="#DejaVuSans-4d"/>
      <use x="683.013672" xlink:href="#DejaVuSans-48"/>
      <use x="758.208984" xlink:href="#DejaVuSans-7a"/>
      <use x="810.699219" xlink:href="#DejaVuSans-29"/>
     </g>
    </g>
   </g>
   <g id="matplotlib.axis_2">
    <g id="ytick_1">
     <g id="line2d_11">
      <path clip-path="url(#p2733d070c1)" d="M 64.127344 297.54825 
L 421.247344 297.54825 
" style="fill:none;stroke:#b0b0b0;stroke-linecap:square;stroke-width:0.8;"/>
     </g>
     <g id="line2d_12">
      <defs>
       <path d="M 0 0 
L -3.5 0 
" id="mc3ce260a5b" style="stroke:#000000;stroke-width:0.8;"/>
      </defs>
      <g>
       <use style="stroke:#000000;stroke-width:0.8;" x="64.127344" xlink:href="#mc3ce260a5b" y="297.54825"/>
      </g>
     </g>
     <g id="text_7">
      <!-- 0.0 -->
      <g transform="translate(30.55625 303.247078)scale(0.15 -0.15)">
       <use xlink:href="#DejaVuSans-Bold-30"/>
       <use x="69.580078" xlink:href="#DejaVuSans-Bold-2e"/>
       <use x="107.568359" xlink:href="#DejaVuSans-Bold-30"/>
      </g>
     </g>
    </g>
    <g id="ytick_2">
     <g id="line2d_13">
      <path clip-path="url(#p2733d070c1)" d="M 64.127344 264.28425 
L 421.247344 264.28425 
" style="fill:none;stroke:#b0b0b0;stroke-linecap:square;stroke-width:0.8;"/>
     </g>
     <g id="line2d_14">
      <g>
       <use style="stroke:#000000;stroke-width:0.8;" x="64.127344" xlink:href="#mc3ce260a5b" y="264.28425"/>
      </g>
     </g>
     <g id="text_8">
      <!-- 0.1 -->
      <g transform="translate(30.55625 269.983078)scale(0.15 -0.15)">
       <use xlink:href="#DejaVuSans-Bold-30"/>
       <use x="69.580078" xlink:href="#DejaVuSans-Bold-2e"/>
       <use x="107.568359" xlink:href="#DejaVuSans-Bold-31"/>
      </g>
     </g>
    </g>
    <g id="ytick_3">
     <g id="line2d_15">
      <path clip-path="url(#p2733d070c1)" d="M 64.127344 231.02025 
L 421.247344 231.02025 
" style="fill:none;stroke:#b0b0b0;stroke-linecap:square;stroke-width:0.8;"/>
     </g>
     <g id="line2d_16">
      <g>
       <use style="stroke:#000000;stroke-width:0.8;" x="64.127344" xlink:href="#mc3ce260a5b" y="231.02025"/>
      </g>
     </g>
     <g id="text_9">
      <!-- 0.2 -->
      <g transform="translate(30.55625 236.719078)scale(0.15 -0.15)">
       <use xlink:href="#DejaVuSans-Bold-30"/>
       <use x="69.580078" xlink:href="#DejaVuSans-Bold-2e"/>
       <use x="107.568359" xlink:href="#DejaVuSans-Bold-32"/>
      </g>
     </g>
    </g>
    <g id="ytick_4">
     <g id="line2d_17">
      <path clip-path="url(#p2733d070c1)" d="M 64.127344 197.75625 
L 421.247344 197.75625 
" style="fill:none;stroke:#b0b0b0;stroke-linecap:square;stroke-width:0.8;"/>
     </g>
     <g id="line2d_18">
      <g>
       <use style="stroke:#000000;stroke-width:0.8;" x="64.127344" xlink:href="#mc3ce260a5b" y="197.75625"/>
      </g>
     </g>
     <g id="text_10">
      <!-- 0.3 -->
      <defs>
       <path d="M 46.578125 39.3125 
Q 53.953125 37.40625 57.78125 32.6875 
Q 61.625 27.984375 61.625 20.703125 
Q 61.625 9.859375 53.3125 4.21875 
Q 45.015625 -1.421875 29.109375 -1.421875 
Q 23.484375 -1.421875 17.84375 -0.515625 
Q 12.203125 0.390625 6.6875 2.203125 
L 6.6875 16.703125 
Q 11.96875 14.0625 17.15625 12.71875 
Q 22.359375 11.375 27.390625 11.375 
Q 34.859375 11.375 38.84375 13.953125 
Q 42.828125 16.546875 42.828125 21.390625 
Q 42.828125 26.375 38.75 28.9375 
Q 34.671875 31.5 26.703125 31.5 
L 19.1875 31.5 
L 19.1875 43.609375 
L 27.09375 43.609375 
Q 34.1875 43.609375 37.640625 45.828125 
Q 41.109375 48.046875 41.109375 52.59375 
Q 41.109375 56.78125 37.734375 59.078125 
Q 34.375 61.375 28.21875 61.375 
Q 23.6875 61.375 19.046875 60.34375 
Q 14.40625 59.328125 9.8125 57.328125 
L 9.8125 71.09375 
Q 15.375 72.65625 20.84375 73.4375 
Q 26.3125 74.21875 31.59375 74.21875 
Q 45.796875 74.21875 52.84375 69.546875 
Q 59.90625 64.890625 59.90625 55.515625 
Q 59.90625 49.125 56.53125 45.046875 
Q 53.171875 40.96875 46.578125 39.3125 
z
" id="DejaVuSans-Bold-33"/>
      </defs>
      <g transform="translate(30.55625 203.455078)scale(0.15 -0.15)">
       <use xlink:href="#DejaVuSans-Bold-30"/>
       <use x="69.580078" xlink:href="#DejaVuSans-Bold-2e"/>
       <use x="107.568359" xlink:href="#DejaVuSans-Bold-33"/>
      </g>
     </g>
    </g>
    <g id="ytick_5">
     <g id="line2d_19">
      <path clip-path="url(#p2733d070c1)" d="M 64.127344 164.49225 
L 421.247344 164.49225 
" style="fill:none;stroke:#b0b0b0;stroke-linecap:square;stroke-width:0.8;"/>
     </g>
     <g id="line2d_20">
      <g>
       <use style="stroke:#000000;stroke-width:0.8;" x="64.127344" xlink:href="#mc3ce260a5b" y="164.49225"/>
      </g>
     </g>
     <g id="text_11">
      <!-- 0.4 -->
      <defs>
       <path d="M 36.8125 57.421875 
L 16.21875 26.90625 
L 36.8125 26.90625 
z
M 33.6875 72.90625 
L 54.59375 72.90625 
L 54.59375 26.90625 
L 64.984375 26.90625 
L 64.984375 13.28125 
L 54.59375 13.28125 
L 54.59375 0 
L 36.8125 0 
L 36.8125 13.28125 
L 4.5 13.28125 
L 4.5 29.390625 
z
" id="DejaVuSans-Bold-34"/>
      </defs>
      <g transform="translate(30.55625 170.191078)scale(0.15 -0.15)">
       <use xlink:href="#DejaVuSans-Bold-30"/>
       <use x="69.580078" xlink:href="#DejaVuSans-Bold-2e"/>
       <use x="107.568359" xlink:href="#DejaVuSans-Bold-34"/>
      </g>
     </g>
    </g>
    <g id="ytick_6">
     <g id="line2d_21">
      <path clip-path="url(#p2733d070c1)" d="M 64.127344 131.22825 
L 421.247344 131.22825 
" style="fill:none;stroke:#b0b0b0;stroke-linecap:square;stroke-width:0.8;"/>
     </g>
     <g id="line2d_22">
      <g>
       <use style="stroke:#000000;stroke-width:0.8;" x="64.127344" xlink:href="#mc3ce260a5b" y="131.22825"/>
      </g>
     </g>
     <g id="text_12">
      <!-- 0.5 -->
      <g transform="translate(30.55625 136.927078)scale(0.15 -0.15)">
       <use xlink:href="#DejaVuSans-Bold-30"/>
       <use x="69.580078" xlink:href="#DejaVuSans-Bold-2e"/>
       <use x="107.568359" xlink:href="#DejaVuSans-Bold-35"/>
      </g>
     </g>
    </g>
    <g id="ytick_7">
     <g id="line2d_23">
      <path clip-path="url(#p2733d070c1)" d="M 64.127344 97.96425 
L 421.247344 97.96425 
" style="fill:none;stroke:#b0b0b0;stroke-linecap:square;stroke-width:0.8;"/>
     </g>
     <g id="line2d_24">
      <g>
       <use style="stroke:#000000;stroke-width:0.8;" x="64.127344" xlink:href="#mc3ce260a5b" y="97.96425"/>
      </g>
     </g>
     <g id="text_13">
      <!-- 0.6 -->
      <defs>
       <path d="M 36.1875 35.984375 
Q 31.25 35.984375 28.78125 32.78125 
Q 26.3125 29.59375 26.3125 23.1875 
Q 26.3125 16.796875 28.78125 13.59375 
Q 31.25 10.40625 36.1875 10.40625 
Q 41.15625 10.40625 43.625 13.59375 
Q 46.09375 16.796875 46.09375 23.1875 
Q 46.09375 29.59375 43.625 32.78125 
Q 41.15625 35.984375 36.1875 35.984375 
z
M 59.421875 71 
L 59.421875 57.515625 
Q 54.78125 59.71875 50.671875 60.765625 
Q 46.578125 61.8125 42.671875 61.8125 
Q 34.28125 61.8125 29.59375 57.140625 
Q 24.90625 52.484375 24.125 43.3125 
Q 27.34375 45.703125 31.09375 46.890625 
Q 34.859375 48.09375 39.3125 48.09375 
Q 50.484375 48.09375 57.34375 41.546875 
Q 64.203125 35.015625 64.203125 24.421875 
Q 64.203125 12.703125 56.53125 5.640625 
Q 48.875 -1.421875 35.984375 -1.421875 
Q 21.78125 -1.421875 13.984375 8.171875 
Q 6.203125 17.78125 6.203125 35.40625 
Q 6.203125 53.46875 15.3125 63.796875 
Q 24.421875 74.125 40.28125 74.125 
Q 45.3125 74.125 50.046875 73.34375 
Q 54.78125 72.5625 59.421875 71 
z
" id="DejaVuSans-Bold-36"/>
      </defs>
      <g transform="translate(30.55625 103.663078)scale(0.15 -0.15)">
       <use xlink:href="#DejaVuSans-Bold-30"/>
       <use x="69.580078" xlink:href="#DejaVuSans-Bold-2e"/>
       <use x="107.568359" xlink:href="#DejaVuSans-Bold-36"/>
      </g>
     </g>
    </g>
    <g id="ytick_8">
     <g id="line2d_25">
      <path clip-path="url(#p2733d070c1)" d="M 64.127344 64.70025 
L 421.247344 64.70025 
" style="fill:none;stroke:#b0b0b0;stroke-linecap:square;stroke-width:0.8;"/>
     </g>
     <g id="line2d_26">
      <g>
       <use style="stroke:#000000;stroke-width:0.8;" x="64.127344" xlink:href="#mc3ce260a5b" y="64.70025"/>
      </g>
     </g>
     <g id="text_14">
      <!-- 0.7 -->
      <defs>
       <path d="M 6.6875 72.90625 
L 61.625 72.90625 
L 61.625 62.3125 
L 33.203125 0 
L 14.890625 0 
L 41.796875 59.078125 
L 6.6875 59.078125 
z
" id="DejaVuSans-Bold-37"/>
      </defs>
      <g transform="translate(30.55625 70.399078)scale(0.15 -0.15)">
       <use xlink:href="#DejaVuSans-Bold-30"/>
       <use x="69.580078" xlink:href="#DejaVuSans-Bold-2e"/>
       <use x="107.568359" xlink:href="#DejaVuSans-Bold-37"/>
      </g>
     </g>
    </g>
    <g id="ytick_9">
     <g id="line2d_27">
      <path clip-path="url(#p2733d070c1)" d="M 64.127344 31.43625 
L 421.247344 31.43625 
" style="fill:none;stroke:#b0b0b0;stroke-linecap:square;stroke-width:0.8;"/>
     </g>
     <g id="line2d_28">
      <g>
       <use style="stroke:#000000;stroke-width:0.8;" x="64.127344" xlink:href="#mc3ce260a5b" y="31.43625"/>
      </g>
     </g>
     <g id="text_15">
      <!-- 0.8 -->
      <g transform="translate(30.55625 37.135078)scale(0.15 -0.15)">
       <use xlink:href="#DejaVuSans-Bold-30"/>
       <use x="69.580078" xlink:href="#DejaVuSans-Bold-2e"/>
       <use x="107.568359" xlink:href="#DejaVuSans-Bold-38"/>
      </g>
     </g>
    </g>
    <g id="text_16">
     <!-- Survival -->
     <defs>
      <path d="M 53.515625 70.515625 
L 53.515625 60.890625 
Q 47.90625 63.578125 42.921875 64.890625 
Q 37.9375 66.21875 33.296875 66.21875 
Q 25.25 66.21875 20.875 63.09375 
Q 16.5 59.96875 16.5 54.203125 
Q 16.5 49.359375 19.40625 46.890625 
Q 22.3125 44.4375 30.421875 42.921875 
L 36.375 41.703125 
Q 47.40625 39.59375 52.65625 34.296875 
Q 57.90625 29 57.90625 20.125 
Q 57.90625 9.515625 50.796875 4.046875 
Q 43.703125 -1.421875 29.984375 -1.421875 
Q 24.8125 -1.421875 18.96875 -0.25 
Q 13.140625 0.921875 6.890625 3.21875 
L 6.890625 13.375 
Q 12.890625 10.015625 18.65625 8.296875 
Q 24.421875 6.59375 29.984375 6.59375 
Q 38.421875 6.59375 43.015625 9.90625 
Q 47.609375 13.234375 47.609375 19.390625 
Q 47.609375 24.75 44.3125 27.78125 
Q 41.015625 30.8125 33.5 32.328125 
L 27.484375 33.5 
Q 16.453125 35.6875 11.515625 40.375 
Q 6.59375 45.0625 6.59375 53.421875 
Q 6.59375 63.09375 13.40625 68.65625 
Q 20.21875 74.21875 32.171875 74.21875 
Q 37.3125 74.21875 42.625 73.28125 
Q 47.953125 72.359375 53.515625 70.515625 
z
" id="DejaVuSans-53"/>
      <path d="M 2.984375 54.6875 
L 12.5 54.6875 
L 29.59375 8.796875 
L 46.6875 54.6875 
L 56.203125 54.6875 
L 35.6875 0 
L 23.484375 0 
z
" id="DejaVuSans-76"/>
      <path d="M 9.421875 54.6875 
L 18.40625 54.6875 
L 18.40625 0 
L 9.421875 0 
z
M 9.421875 75.984375 
L 18.40625 75.984375 
L 18.40625 64.59375 
L 9.421875 64.59375 
z
" id="DejaVuSans-69"/>
      <path d="M 34.28125 27.484375 
Q 23.390625 27.484375 19.1875 25 
Q 14.984375 22.515625 14.984375 16.5 
Q 14.984375 11.71875 18.140625 8.90625 
Q 21.296875 6.109375 26.703125 6.109375 
Q 34.1875 6.109375 38.703125 11.40625 
Q 43.21875 16.703125 43.21875 25.484375 
L 43.21875 27.484375 
z
M 52.203125 31.203125 
L 52.203125 0 
L 43.21875 0 
L 43.21875 8.296875 
Q 40.140625 3.328125 35.546875 0.953125 
Q 30.953125 -1.421875 24.3125 -1.421875 
Q 15.921875 -1.421875 10.953125 3.296875 
Q 6 8.015625 6 15.921875 
Q 6 25.140625 12.171875 29.828125 
Q 18.359375 34.515625 30.609375 34.515625 
L 43.21875 34.515625 
L 43.21875 35.40625 
Q 43.21875 41.609375 39.140625 45 
Q 35.0625 48.390625 27.6875 48.390625 
Q 23 48.390625 18.546875 47.265625 
Q 14.109375 46.140625 10.015625 43.890625 
L 10.015625 52.203125 
Q 14.9375 54.109375 19.578125 55.046875 
Q 24.21875 56 28.609375 56 
Q 40.484375 56 46.34375 49.84375 
Q 52.203125 43.703125 52.203125 31.203125 
z
" id="DejaVuSans-61"/>
      <path d="M 9.421875 75.984375 
L 18.40625 75.984375 
L 18.40625 0 
L 9.421875 0 
z
" id="DejaVuSans-6c"/>
     </defs>
     <g transform="translate(22.396875 204.811)rotate(-90)scale(0.2 -0.2)">
      <use xlink:href="#DejaVuSans-53"/>
      <use x="63.476562" xlink:href="#DejaVuSans-75"/>
      <use x="126.855469" xlink:href="#DejaVuSans-72"/>
      <use x="167.96875" xlink:href="#DejaVuSans-76"/>
      <use x="227.148438" xlink:href="#DejaVuSans-69"/>
      <use x="254.931641" xlink:href="#DejaVuSans-76"/>
      <use x="314.111328" xlink:href="#DejaVuSans-61"/>
      <use x="375.390625" xlink:href="#DejaVuSans-6c"/>
     </g>
    </g>
   </g>
   <g id="LineCollection_1">
    <path clip-path="url(#p2733d070c1)" d="M 80.360071 293.981393 
L 80.360071 288.041919 
" style="fill:none;stroke:#1f77b4;stroke-width:1.5;"/>
    <path clip-path="url(#p2733d070c1)" d="M 83.606616 294.814647 
L 83.606616 289.087238 
" style="fill:none;stroke:#1f77b4;stroke-width:1.5;"/>
    <path clip-path="url(#p2733d070c1)" d="M 86.853162 275.043073 
L 86.853162 262.270892 
" style="fill:none;stroke:#1f77b4;stroke-width:1.5;"/>
    <path clip-path="url(#p2733d070c1)" d="M 90.099707 255.626709 
L 90.099707 239.200317 
" style="fill:none;stroke:#1f77b4;stroke-width:1.5;"/>
    <path clip-path="url(#p2733d070c1)" d="M 93.346253 249.283557 
L 93.346253 231.623092 
" style="fill:none;stroke:#1f77b4;stroke-width:1.5;"/>
    <path clip-path="url(#p2733d070c1)" d="M 96.592798 279.397095 
L 96.592798 267.737358 
" style="fill:none;stroke:#1f77b4;stroke-width:1.5;"/>
    <path clip-path="url(#p2733d070c1)" d="M 99.839344 282.327904 
L 99.839344 270.979651 
" style="fill:none;stroke:#1f77b4;stroke-width:1.5;"/>
    <path clip-path="url(#p2733d070c1)" d="M 103.085889 250.006374 
L 103.085889 232.579537 
" style="fill:none;stroke:#1f77b4;stroke-width:1.5;"/>
    <path clip-path="url(#p2733d070c1)" d="M 106.332435 214.919504 
L 106.332435 193.696996 
" style="fill:none;stroke:#1f77b4;stroke-width:1.5;"/>
    <path clip-path="url(#p2733d070c1)" d="M 109.57898 96.154778 
L 109.57898 73.625901 
" style="fill:none;stroke:#1f77b4;stroke-width:1.5;"/>
    <path clip-path="url(#p2733d070c1)" d="M 112.825526 43.456811 
L 112.825526 24.405289 
" style="fill:none;stroke:#1f77b4;stroke-width:1.5;"/>
    <path clip-path="url(#p2733d070c1)" d="M 116.072071 80.414118 
L 116.072071 59.570382 
" style="fill:none;stroke:#1f77b4;stroke-width:1.5;"/>
    <path clip-path="url(#p2733d070c1)" d="M 119.318616 132.342812 
L 119.318616 109.323688 
" style="fill:none;stroke:#1f77b4;stroke-width:1.5;"/>
    <path clip-path="url(#p2733d070c1)" d="M 122.565162 198.935009 
L 122.565162 177.105881 
" style="fill:none;stroke:#1f77b4;stroke-width:1.5;"/>
    <path clip-path="url(#p2733d070c1)" d="M 125.811707 260.778234 
L 125.811707 245.301928 
" style="fill:none;stroke:#1f77b4;stroke-width:1.5;"/>
    <path clip-path="url(#p2733d070c1)" d="M 129.058253 265.463606 
L 129.058253 250.509787 
" style="fill:none;stroke:#1f77b4;stroke-width:1.5;"/>
    <path clip-path="url(#p2733d070c1)" d="M 132.304798 262.493275 
L 132.304798 247.021089 
" style="fill:none;stroke:#1f77b4;stroke-width:1.5;"/>
    <path clip-path="url(#p2733d070c1)" d="M 135.551344 252.654368 
L 135.551344 235.806342 
" style="fill:none;stroke:#1f77b4;stroke-width:1.5;"/>
    <path clip-path="url(#p2733d070c1)" d="M 138.797889 246.942875 
L 138.797889 229.120684 
" style="fill:none;stroke:#1f77b4;stroke-width:1.5;"/>
    <path clip-path="url(#p2733d070c1)" d="M 142.044435 275.463217 
L 142.044435 262.915863 
" style="fill:none;stroke:#1f77b4;stroke-width:1.5;"/>
    <path clip-path="url(#p2733d070c1)" d="M 145.29098 281.035526 
L 145.29098 269.377989 
" style="fill:none;stroke:#1f77b4;stroke-width:1.5;"/>
    <path clip-path="url(#p2733d070c1)" d="M 148.537526 281.118255 
L 148.537526 269.516463 
" style="fill:none;stroke:#1f77b4;stroke-width:1.5;"/>
    <path clip-path="url(#p2733d070c1)" d="M 151.784071 277.058195 
L 151.784071 264.491379 
" style="fill:none;stroke:#1f77b4;stroke-width:1.5;"/>
    <path clip-path="url(#p2733d070c1)" d="M 155.030616 239.796751 
L 155.030616 221.944073 
" style="fill:none;stroke:#1f77b4;stroke-width:1.5;"/>
    <path clip-path="url(#p2733d070c1)" d="M 158.277162 260.244459 
L 158.277162 244.564041 
" style="fill:none;stroke:#1f77b4;stroke-width:1.5;"/>
    <path clip-path="url(#p2733d070c1)" d="M 161.523707 271.724784 
L 161.523707 258.851027 
" style="fill:none;stroke:#1f77b4;stroke-width:1.5;"/>
    <path clip-path="url(#p2733d070c1)" d="M 164.770253 288.244939 
L 164.770253 279.726411 
" style="fill:none;stroke:#1f77b4;stroke-width:1.5;"/>
    <path clip-path="url(#p2733d070c1)" d="M 168.016798 268.150565 
L 168.016798 253.216451 
" style="fill:none;stroke:#1f77b4;stroke-width:1.5;"/>
    <path clip-path="url(#p2733d070c1)" d="M 171.263344 228.728568 
L 171.263344 208.533647 
" style="fill:none;stroke:#1f77b4;stroke-width:1.5;"/>
    <path clip-path="url(#p2733d070c1)" d="M 174.509889 213.73135 
L 174.509889 192.47912 
" style="fill:none;stroke:#1f77b4;stroke-width:1.5;"/>
    <path clip-path="url(#p2733d070c1)" d="M 177.756435 208.841504 
L 177.756435 187.63985 
" style="fill:none;stroke:#1f77b4;stroke-width:1.5;"/>
    <path clip-path="url(#p2733d070c1)" d="M 181.00298 208.320394 
L 181.00298 188.075221 
" style="fill:none;stroke:#1f77b4;stroke-width:1.5;"/>
    <path clip-path="url(#p2733d070c1)" d="M 184.249526 227.314091 
L 184.249526 207.254648 
" style="fill:none;stroke:#1f77b4;stroke-width:1.5;"/>
    <path clip-path="url(#p2733d070c1)" d="M 187.496071 211.41357 
L 187.496071 190.688968 
" style="fill:none;stroke:#1f77b4;stroke-width:1.5;"/>
    <path clip-path="url(#p2733d070c1)" d="M 190.742616 214.045393 
L 190.742616 193.448453 
" style="fill:none;stroke:#1f77b4;stroke-width:1.5;"/>
    <path clip-path="url(#p2733d070c1)" d="M 193.989162 203.206131 
L 193.989162 180.989751 
" style="fill:none;stroke:#1f77b4;stroke-width:1.5;"/>
    <path clip-path="url(#p2733d070c1)" d="M 197.235707 200.765451 
L 197.235707 178.700095 
" style="fill:none;stroke:#1f77b4;stroke-width:1.5;"/>
    <path clip-path="url(#p2733d070c1)" d="M 200.482253 210.671985 
L 200.482253 189.428653 
" style="fill:none;stroke:#1f77b4;stroke-width:1.5;"/>
    <path clip-path="url(#p2733d070c1)" d="M 203.728798 224.14255 
L 203.728798 203.806487 
" style="fill:none;stroke:#1f77b4;stroke-width:1.5;"/>
    <path clip-path="url(#p2733d070c1)" d="M 206.975344 197.277657 
L 206.975344 175.525766 
" style="fill:none;stroke:#1f77b4;stroke-width:1.5;"/>
    <path clip-path="url(#p2733d070c1)" d="M 210.221889 171.829007 
L 210.221889 149.235493 
" style="fill:none;stroke:#1f77b4;stroke-width:1.5;"/>
    <path clip-path="url(#p2733d070c1)" d="M 213.468435 213.829305 
L 213.468435 194.246422 
" style="fill:none;stroke:#1f77b4;stroke-width:1.5;"/>
    <path clip-path="url(#p2733d070c1)" d="M 216.71498 241.899301 
L 216.71498 223.659506 
" style="fill:none;stroke:#1f77b4;stroke-width:1.5;"/>
    <path clip-path="url(#p2733d070c1)" d="M 219.961526 282.195116 
L 219.961526 271.321384 
" style="fill:none;stroke:#1f77b4;stroke-width:1.5;"/>
    <path clip-path="url(#p2733d070c1)" d="M 223.208071 279.973608 
L 223.208071 267.602892 
" style="fill:none;stroke:#1f77b4;stroke-width:1.5;"/>
    <path clip-path="url(#p2733d070c1)" d="M 226.454616 270.960513 
L 226.454616 256.952538 
" style="fill:none;stroke:#1f77b4;stroke-width:1.5;"/>
    <path clip-path="url(#p2733d070c1)" d="M 229.701162 257.197579 
L 229.701162 241.326018 
" style="fill:none;stroke:#1f77b4;stroke-width:1.5;"/>
    <path clip-path="url(#p2733d070c1)" d="M 232.947707 257.880512 
L 232.947707 241.95289 
" style="fill:none;stroke:#1f77b4;stroke-width:1.5;"/>
    <path clip-path="url(#p2733d070c1)" d="M 236.194253 274.083635 
L 236.194253 261.229639 
" style="fill:none;stroke:#1f77b4;stroke-width:1.5;"/>
    <path clip-path="url(#p2733d070c1)" d="M 239.440798 287.591314 
L 239.440798 277.74266 
" style="fill:none;stroke:#1f77b4;stroke-width:1.5;"/>
    <path clip-path="url(#p2733d070c1)" d="M 242.687344 287.997719 
L 242.687344 278.538781 
" style="fill:none;stroke:#1f77b4;stroke-width:1.5;"/>
    <path clip-path="url(#p2733d070c1)" d="M 245.933889 282.011923 
L 245.933889 270.438423 
" style="fill:none;stroke:#1f77b4;stroke-width:1.5;"/>
    <path clip-path="url(#p2733d070c1)" d="M 249.180435 245.683577 
L 249.180435 228.02297 
" style="fill:none;stroke:#1f77b4;stroke-width:1.5;"/>
    <path clip-path="url(#p2733d070c1)" d="M 252.42698 251.534141 
L 252.42698 234.312947 
" style="fill:none;stroke:#1f77b4;stroke-width:1.5;"/>
    <path clip-path="url(#p2733d070c1)" d="M 255.673526 265.931113 
L 255.673526 251.178019 
" style="fill:none;stroke:#1f77b4;stroke-width:1.5;"/>
    <path clip-path="url(#p2733d070c1)" d="M 258.920071 278.869601 
L 258.920071 266.887952 
" style="fill:none;stroke:#1f77b4;stroke-width:1.5;"/>
    <path clip-path="url(#p2733d070c1)" d="M 262.166616 263.983052 
L 262.166616 249.11382 
" style="fill:none;stroke:#1f77b4;stroke-width:1.5;"/>
    <path clip-path="url(#p2733d070c1)" d="M 265.413162 221.690215 
L 265.413162 201.461937 
" style="fill:none;stroke:#1f77b4;stroke-width:1.5;"/>
    <path clip-path="url(#p2733d070c1)" d="M 268.659707 171.502547 
L 268.659707 149.009047 
" style="fill:none;stroke:#1f77b4;stroke-width:1.5;"/>
    <path clip-path="url(#p2733d070c1)" d="M 271.906253 122.509332 
L 271.906253 100.091684 
" style="fill:none;stroke:#1f77b4;stroke-width:1.5;"/>
    <path clip-path="url(#p2733d070c1)" d="M 275.152798 128.606706 
L 275.152798 106.000864 
" style="fill:none;stroke:#1f77b4;stroke-width:1.5;"/>
    <path clip-path="url(#p2733d070c1)" d="M 278.399344 177.452715 
L 278.399344 154.51065 
" style="fill:none;stroke:#1f77b4;stroke-width:1.5;"/>
    <path clip-path="url(#p2733d070c1)" d="M 281.645889 245.489537 
L 281.645889 228.514331 
" style="fill:none;stroke:#1f77b4;stroke-width:1.5;"/>
    <path clip-path="url(#p2733d070c1)" d="M 284.892435 273.559902 
L 284.892435 259.998198 
" style="fill:none;stroke:#1f77b4;stroke-width:1.5;"/>
    <path clip-path="url(#p2733d070c1)" d="M 288.13898 285.867747 
L 288.13898 275.964753 
" style="fill:none;stroke:#1f77b4;stroke-width:1.5;"/>
    <path clip-path="url(#p2733d070c1)" d="M 291.385526 268.455106 
L 291.385526 253.664251 
" style="fill:none;stroke:#1f77b4;stroke-width:1.5;"/>
    <path clip-path="url(#p2733d070c1)" d="M 294.632071 262.452145 
L 294.632071 247.619781 
" style="fill:none;stroke:#1f77b4;stroke-width:1.5;"/>
    <path clip-path="url(#p2733d070c1)" d="M 297.878616 273.750327 
L 297.878616 260.724865 
" style="fill:none;stroke:#1f77b4;stroke-width:1.5;"/>
    <path clip-path="url(#p2733d070c1)" d="M 301.125162 280.842597 
L 301.125162 269.593903 
" style="fill:none;stroke:#1f77b4;stroke-width:1.5;"/>
    <path clip-path="url(#p2733d070c1)" d="M 304.371707 296.942723 
L 304.371707 293.424299 
" style="fill:none;stroke:#1f77b4;stroke-width:1.5;"/>
    <path clip-path="url(#p2733d070c1)" d="M 307.618253 292.349184 
L 307.618253 285.070795 
" style="fill:none;stroke:#1f77b4;stroke-width:1.5;"/>
    <path clip-path="url(#p2733d070c1)" d="M 310.864798 288.417009 
L 310.864798 279.36123 
" style="fill:none;stroke:#1f77b4;stroke-width:1.5;"/>
    <path clip-path="url(#p2733d070c1)" d="M 314.111344 272.254367 
L 314.111344 259.270933 
" style="fill:none;stroke:#1f77b4;stroke-width:1.5;"/>
    <path clip-path="url(#p2733d070c1)" d="M 317.357889 286.142152 
L 317.357889 276.463929 
" style="fill:none;stroke:#1f77b4;stroke-width:1.5;"/>
    <path clip-path="url(#p2733d070c1)" d="M 320.604435 292.026413 
L 320.604435 284.305779 
" style="fill:none;stroke:#1f77b4;stroke-width:1.5;"/>
    <path clip-path="url(#p2733d070c1)" d="M 323.85098 291.532917 
L 323.85098 284.172013 
" style="fill:none;stroke:#1f77b4;stroke-width:1.5;"/>
    <path clip-path="url(#p2733d070c1)" d="M 327.097526 283.91608 
L 327.097526 273.117137 
" style="fill:none;stroke:#1f77b4;stroke-width:1.5;"/>
    <path clip-path="url(#p2733d070c1)" d="M 330.344071 286.90876 
L 330.344071 277.206563 
" style="fill:none;stroke:#1f77b4;stroke-width:1.5;"/>
    <path clip-path="url(#p2733d070c1)" d="M 333.590616 283.418428 
L 333.590616 272.241371 
" style="fill:none;stroke:#1f77b4;stroke-width:1.5;"/>
    <path clip-path="url(#p2733d070c1)" d="M 336.837162 285.048146 
L 336.837162 275.113559 
" style="fill:none;stroke:#1f77b4;stroke-width:1.5;"/>
    <path clip-path="url(#p2733d070c1)" d="M 340.083707 278.116653 
L 340.083707 265.677161 
" style="fill:none;stroke:#1f77b4;stroke-width:1.5;"/>
    <path clip-path="url(#p2733d070c1)" d="M 343.330253 268.078108 
L 343.330253 254.253392 
" style="fill:none;stroke:#1f77b4;stroke-width:1.5;"/>
    <path clip-path="url(#p2733d070c1)" d="M 346.576798 267.534304 
L 346.576798 253.114196 
" style="fill:none;stroke:#1f77b4;stroke-width:1.5;"/>
    <path clip-path="url(#p2733d070c1)" d="M 349.823344 224.990816 
L 349.823344 204.621463 
" style="fill:none;stroke:#1f77b4;stroke-width:1.5;"/>
    <path clip-path="url(#p2733d070c1)" d="M 353.069889 241.218549 
L 353.069889 223.519032 
" style="fill:none;stroke:#1f77b4;stroke-width:1.5;"/>
    <path clip-path="url(#p2733d070c1)" d="M 356.316435 245.109423 
L 356.316435 226.724539 
" style="fill:none;stroke:#1f77b4;stroke-width:1.5;"/>
    <path clip-path="url(#p2733d070c1)" d="M 359.56298 268.785167 
L 359.56298 254.92284 
" style="fill:none;stroke:#1f77b4;stroke-width:1.5;"/>
    <path clip-path="url(#p2733d070c1)" d="M 362.809526 280.696107 
L 362.809526 268.810139 
" style="fill:none;stroke:#1f77b4;stroke-width:1.5;"/>
    <path clip-path="url(#p2733d070c1)" d="M 366.056071 280.523683 
L 366.056071 269.070176 
" style="fill:none;stroke:#1f77b4;stroke-width:1.5;"/>
    <path clip-path="url(#p2733d070c1)" d="M 369.302616 283.203158 
L 369.302616 272.48102 
" style="fill:none;stroke:#1f77b4;stroke-width:1.5;"/>
    <path clip-path="url(#p2733d070c1)" d="M 372.549162 292.746788 
L 372.549162 286.014712 
" style="fill:none;stroke:#1f77b4;stroke-width:1.5;"/>
    <path clip-path="url(#p2733d070c1)" d="M 375.795707 293.560532 
L 375.795707 286.93226 
" style="fill:none;stroke:#1f77b4;stroke-width:1.5;"/>
    <path clip-path="url(#p2733d070c1)" d="M 379.042253 290.044081 
L 379.042253 281.844977 
" style="fill:none;stroke:#1f77b4;stroke-width:1.5;"/>
    <path clip-path="url(#p2733d070c1)" d="M 382.288798 280.763994 
L 382.288798 269.464785 
" style="fill:none;stroke:#1f77b4;stroke-width:1.5;"/>
    <path clip-path="url(#p2733d070c1)" d="M 385.535344 292.448549 
L 385.535344 285.30653 
" style="fill:none;stroke:#1f77b4;stroke-width:1.5;"/>
    <path clip-path="url(#p2733d070c1)" d="M 388.781889 292.245869 
L 388.781889 284.825803 
" style="fill:none;stroke:#1f77b4;stroke-width:1.5;"/>
    <path clip-path="url(#p2733d070c1)" d="M 392.028435 289.826666 
L 392.028435 281.39615 
" style="fill:none;stroke:#1f77b4;stroke-width:1.5;"/>
    <path clip-path="url(#p2733d070c1)" d="M 395.27498 292.424065 
L 395.27498 285.248435 
" style="fill:none;stroke:#1f77b4;stroke-width:1.5;"/>
    <path clip-path="url(#p2733d070c1)" d="M 398.521526 285.400134 
L 398.521526 275.11498 
" style="fill:none;stroke:#1f77b4;stroke-width:1.5;"/>
    <path clip-path="url(#p2733d070c1)" d="M 401.768071 289.116241 
L 401.768071 280.735259 
" style="fill:none;stroke:#1f77b4;stroke-width:1.5;"/>
    <path clip-path="url(#p2733d070c1)" d="M 405.014616 289.393515 
L 405.014616 280.502985 
" style="fill:none;stroke:#1f77b4;stroke-width:1.5;"/>
   </g>
   <g id="line2d_29">
    <path clip-path="url(#p2733d070c1)" d="M 80.360071 291.011656 
L 83.606616 291.950942 
L 86.853162 268.656982 
L 90.099707 247.413513 
L 93.346253 240.453325 
L 96.592798 273.567227 
L 99.839344 276.653778 
L 103.085889 241.292956 
L 106.332435 204.30825 
L 109.57898 84.89034 
L 112.825526 33.93105 
L 116.072071 69.99225 
L 119.318616 120.83325 
L 122.565162 188.020445 
L 125.811707 253.040081 
L 129.058253 257.986697 
L 132.304798 254.757182 
L 135.551344 244.230355 
L 138.797889 238.031779 
L 142.044435 269.18954 
L 145.29098 275.206757 
L 148.537526 275.317359 
L 151.784071 270.774787 
L 155.030616 230.870412 
L 158.277162 252.40425 
L 161.523707 265.287905 
L 164.770253 283.985675 
L 168.016798 260.683508 
L 171.263344 218.631107 
L 174.509889 203.105235 
L 177.756435 198.240677 
L 181.00298 198.197808 
L 184.249526 217.284369 
L 187.496071 201.051269 
L 190.742616 203.746923 
L 193.989162 192.097941 
L 197.235707 189.732773 
L 200.482253 200.050319 
L 203.728798 213.974519 
L 206.975344 186.401712 
L 210.221889 160.53225 
L 213.468435 204.037864 
L 216.71498 232.779404 
L 219.961526 276.75825 
L 223.208071 273.78825 
L 226.454616 263.956526 
L 229.701162 249.261798 
L 232.947707 249.916701 
L 236.194253 267.656637 
L 239.440798 282.666987 
L 242.687344 283.26825 
L 245.933889 276.225173 
L 249.180435 236.853274 
L 252.42698 242.923544 
L 255.673526 258.554566 
L 258.920071 272.878776 
L 262.166616 256.548436 
L 265.413162 211.576076 
L 268.659707 160.255797 
L 271.906253 111.300508 
L 275.152798 117.303785 
L 278.399344 165.981683 
L 281.645889 237.001934 
L 284.892435 266.77905 
L 288.13898 280.91625 
L 291.385526 261.059679 
L 294.632071 255.035963 
L 297.878616 267.237596 
L 301.125162 275.21825 
L 304.371707 295.183511 
L 307.618253 288.709989 
L 310.864798 283.88912 
L 314.111344 265.76265 
L 317.357889 281.303041 
L 320.604435 288.166096 
L 323.85098 287.852465 
L 327.097526 278.516608 
L 330.344071 282.057662 
L 333.590616 277.829899 
L 336.837162 280.080853 
L 340.083707 271.896907 
L 343.330253 261.16575 
L 346.576798 260.32425 
L 349.823344 214.806139 
L 353.069889 232.368791 
L 356.316435 235.916981 
L 359.56298 261.854003 
L 362.809526 274.753123 
L 366.056071 274.796929 
L 369.302616 277.842089 
L 372.549162 289.38075 
L 375.795707 290.246396 
L 379.042253 285.944529 
L 382.288798 275.11439 
L 385.535344 288.877539 
L 388.781889 288.535836 
L 392.028435 285.611408 
L 395.27498 288.83625 
L 398.521526 280.257557 
L 401.768071 284.92575 
L 405.014616 284.94825 
" style="fill:none;stroke:#1f77b4;stroke-linecap:square;stroke-width:1.5;"/>
    <defs>
     <path d="M 0 3 
C 0.795609 3 1.55874 2.683901 2.12132 2.12132 
C 2.683901 1.55874 3 0.795609 3 0 
C 3 -0.795609 2.683901 -1.55874 2.12132 -2.12132 
C 1.55874 -2.683901 0.795609 -3 0 -3 
C -0.795609 -3 -1.55874 -2.683901 -2.12132 -2.12132 
C -2.683901 -1.55874 -3 -0.795609 -3 0 
C -3 0.795609 -2.683901 1.55874 -2.12132 2.12132 
C -1.55874 2.683901 -0.795609 3 0 3 
z
" id="mcb2457e3ba" style="stroke:#1f77b4;"/>
    </defs>
    <g clip-path="url(#p2733d070c1)">
     <use style="fill:#1f77b4;stroke:#1f77b4;" x="80.360071" xlink:href="#mcb2457e3ba" y="291.011656"/>
     <use style="fill:#1f77b4;stroke:#1f77b4;" x="83.606616" xlink:href="#mcb2457e3ba" y="291.950942"/>
     <use style="fill:#1f77b4;stroke:#1f77b4;" x="86.853162" xlink:href="#mcb2457e3ba" y="268.656982"/>
     <use style="fill:#1f77b4;stroke:#1f77b4;" x="90.099707" xlink:href="#mcb2457e3ba" y="247.413513"/>
     <use style="fill:#1f77b4;stroke:#1f77b4;" x="93.346253" xlink:href="#mcb2457e3ba" y="240.453325"/>
     <use style="fill:#1f77b4;stroke:#1f77b4;" x="96.592798" xlink:href="#mcb2457e3ba" y="273.567227"/>
     <use style="fill:#1f77b4;stroke:#1f77b4;" x="99.839344" xlink:href="#mcb2457e3ba" y="276.653778"/>
     <use style="fill:#1f77b4;stroke:#1f77b4;" x="103.085889" xlink:href="#mcb2457e3ba" y="241.292956"/>
     <use style="fill:#1f77b4;stroke:#1f77b4;" x="106.332435" xlink:href="#mcb2457e3ba" y="204.30825"/>
     <use style="fill:#1f77b4;stroke:#1f77b4;" x="109.57898" xlink:href="#mcb2457e3ba" y="84.89034"/>
     <use style="fill:#1f77b4;stroke:#1f77b4;" x="112.825526" xlink:href="#mcb2457e3ba" y="33.93105"/>
     <use style="fill:#1f77b4;stroke:#1f77b4;" x="116.072071" xlink:href="#mcb2457e3ba" y="69.99225"/>
     <use style="fill:#1f77b4;stroke:#1f77b4;" x="119.318616" xlink:href="#mcb2457e3ba" y="120.83325"/>
     <use style="fill:#1f77b4;stroke:#1f77b4;" x="122.565162" xlink:href="#mcb2457e3ba" y="188.020445"/>
     <use style="fill:#1f77b4;stroke:#1f77b4;" x="125.811707" xlink:href="#mcb2457e3ba" y="253.040081"/>
     <use style="fill:#1f77b4;stroke:#1f77b4;" x="129.058253" xlink:href="#mcb2457e3ba" y="257.986697"/>
     <use style="fill:#1f77b4;stroke:#1f77b4;" x="132.304798" xlink:href="#mcb2457e3ba" y="254.757182"/>
     <use style="fill:#1f77b4;stroke:#1f77b4;" x="135.551344" xlink:href="#mcb2457e3ba" y="244.230355"/>
     <use style="fill:#1f77b4;stroke:#1f77b4;" x="138.797889" xlink:href="#mcb2457e3ba" y="238.031779"/>
     <use style="fill:#1f77b4;stroke:#1f77b4;" x="142.044435" xlink:href="#mcb2457e3ba" y="269.18954"/>
     <use style="fill:#1f77b4;stroke:#1f77b4;" x="145.29098" xlink:href="#mcb2457e3ba" y="275.206757"/>
     <use style="fill:#1f77b4;stroke:#1f77b4;" x="148.537526" xlink:href="#mcb2457e3ba" y="275.317359"/>
     <use style="fill:#1f77b4;stroke:#1f77b4;" x="151.784071" xlink:href="#mcb2457e3ba" y="270.774787"/>
     <use style="fill:#1f77b4;stroke:#1f77b4;" x="155.030616" xlink:href="#mcb2457e3ba" y="230.870412"/>
     <use style="fill:#1f77b4;stroke:#1f77b4;" x="158.277162" xlink:href="#mcb2457e3ba" y="252.40425"/>
     <use style="fill:#1f77b4;stroke:#1f77b4;" x="161.523707" xlink:href="#mcb2457e3ba" y="265.287905"/>
     <use style="fill:#1f77b4;stroke:#1f77b4;" x="164.770253" xlink:href="#mcb2457e3ba" y="283.985675"/>
     <use style="fill:#1f77b4;stroke:#1f77b4;" x="168.016798" xlink:href="#mcb2457e3ba" y="260.683508"/>
     <use style="fill:#1f77b4;stroke:#1f77b4;" x="171.263344" xlink:href="#mcb2457e3ba" y="218.631107"/>
     <use style="fill:#1f77b4;stroke:#1f77b4;" x="174.509889" xlink:href="#mcb2457e3ba" y="203.105235"/>
     <use style="fill:#1f77b4;stroke:#1f77b4;" x="177.756435" xlink:href="#mcb2457e3ba" y="198.240677"/>
     <use style="fill:#1f77b4;stroke:#1f77b4;" x="181.00298" xlink:href="#mcb2457e3ba" y="198.197808"/>
     <use style="fill:#1f77b4;stroke:#1f77b4;" x="184.249526" xlink:href="#mcb2457e3ba" y="217.284369"/>
     <use style="fill:#1f77b4;stroke:#1f77b4;" x="187.496071" xlink:href="#mcb2457e3ba" y="201.051269"/>
     <use style="fill:#1f77b4;stroke:#1f77b4;" x="190.742616" xlink:href="#mcb2457e3ba" y="203.746923"/>
     <use style="fill:#1f77b4;stroke:#1f77b4;" x="193.989162" xlink:href="#mcb2457e3ba" y="192.097941"/>
     <use style="fill:#1f77b4;stroke:#1f77b4;" x="197.235707" xlink:href="#mcb2457e3ba" y="189.732773"/>
     <use style="fill:#1f77b4;stroke:#1f77b4;" x="200.482253" xlink:href="#mcb2457e3ba" y="200.050319"/>
     <use style="fill:#1f77b4;stroke:#1f77b4;" x="203.728798" xlink:href="#mcb2457e3ba" y="213.974519"/>
     <use style="fill:#1f77b4;stroke:#1f77b4;" x="206.975344" xlink:href="#mcb2457e3ba" y="186.401712"/>
     <use style="fill:#1f77b4;stroke:#1f77b4;" x="210.221889" xlink:href="#mcb2457e3ba" y="160.53225"/>
     <use style="fill:#1f77b4;stroke:#1f77b4;" x="213.468435" xlink:href="#mcb2457e3ba" y="204.037864"/>
     <use style="fill:#1f77b4;stroke:#1f77b4;" x="216.71498" xlink:href="#mcb2457e3ba" y="232.779404"/>
     <use style="fill:#1f77b4;stroke:#1f77b4;" x="219.961526" xlink:href="#mcb2457e3ba" y="276.75825"/>
     <use style="fill:#1f77b4;stroke:#1f77b4;" x="223.208071" xlink:href="#mcb2457e3ba" y="273.78825"/>
     <use style="fill:#1f77b4;stroke:#1f77b4;" x="226.454616" xlink:href="#mcb2457e3ba" y="263.956526"/>
     <use style="fill:#1f77b4;stroke:#1f77b4;" x="229.701162" xlink:href="#mcb2457e3ba" y="249.261798"/>
     <use style="fill:#1f77b4;stroke:#1f77b4;" x="232.947707" xlink:href="#mcb2457e3ba" y="249.916701"/>
     <use style="fill:#1f77b4;stroke:#1f77b4;" x="236.194253" xlink:href="#mcb2457e3ba" y="267.656637"/>
     <use style="fill:#1f77b4;stroke:#1f77b4;" x="239.440798" xlink:href="#mcb2457e3ba" y="282.666987"/>
     <use style="fill:#1f77b4;stroke:#1f77b4;" x="242.687344" xlink:href="#mcb2457e3ba" y="283.26825"/>
     <use style="fill:#1f77b4;stroke:#1f77b4;" x="245.933889" xlink:href="#mcb2457e3ba" y="276.225173"/>
     <use style="fill:#1f77b4;stroke:#1f77b4;" x="249.180435" xlink:href="#mcb2457e3ba" y="236.853274"/>
     <use style="fill:#1f77b4;stroke:#1f77b4;" x="252.42698" xlink:href="#mcb2457e3ba" y="242.923544"/>
     <use style="fill:#1f77b4;stroke:#1f77b4;" x="255.673526" xlink:href="#mcb2457e3ba" y="258.554566"/>
     <use style="fill:#1f77b4;stroke:#1f77b4;" x="258.920071" xlink:href="#mcb2457e3ba" y="272.878776"/>
     <use style="fill:#1f77b4;stroke:#1f77b4;" x="262.166616" xlink:href="#mcb2457e3ba" y="256.548436"/>
     <use style="fill:#1f77b4;stroke:#1f77b4;" x="265.413162" xlink:href="#mcb2457e3ba" y="211.576076"/>
     <use style="fill:#1f77b4;stroke:#1f77b4;" x="268.659707" xlink:href="#mcb2457e3ba" y="160.255797"/>
     <use style="fill:#1f77b4;stroke:#1f77b4;" x="271.906253" xlink:href="#mcb2457e3ba" y="111.300508"/>
     <use style="fill:#1f77b4;stroke:#1f77b4;" x="275.152798" xlink:href="#mcb2457e3ba" y="117.303785"/>
     <use style="fill:#1f77b4;stroke:#1f77b4;" x="278.399344" xlink:href="#mcb2457e3ba" y="165.981683"/>
     <use style="fill:#1f77b4;stroke:#1f77b4;" x="281.645889" xlink:href="#mcb2457e3ba" y="237.001934"/>
     <use style="fill:#1f77b4;stroke:#1f77b4;" x="284.892435" xlink:href="#mcb2457e3ba" y="266.77905"/>
     <use style="fill:#1f77b4;stroke:#1f77b4;" x="288.13898" xlink:href="#mcb2457e3ba" y="280.91625"/>
     <use style="fill:#1f77b4;stroke:#1f77b4;" x="291.385526" xlink:href="#mcb2457e3ba" y="261.059679"/>
     <use style="fill:#1f77b4;stroke:#1f77b4;" x="294.632071" xlink:href="#mcb2457e3ba" y="255.035963"/>
     <use style="fill:#1f77b4;stroke:#1f77b4;" x="297.878616" xlink:href="#mcb2457e3ba" y="267.237596"/>
     <use style="fill:#1f77b4;stroke:#1f77b4;" x="301.125162" xlink:href="#mcb2457e3ba" y="275.21825"/>
     <use style="fill:#1f77b4;stroke:#1f77b4;" x="304.371707" xlink:href="#mcb2457e3ba" y="295.183511"/>
     <use style="fill:#1f77b4;stroke:#1f77b4;" x="307.618253" xlink:href="#mcb2457e3ba" y="288.709989"/>
     <use style="fill:#1f77b4;stroke:#1f77b4;" x="310.864798" xlink:href="#mcb2457e3ba" y="283.88912"/>
     <use style="fill:#1f77b4;stroke:#1f77b4;" x="314.111344" xlink:href="#mcb2457e3ba" y="265.76265"/>
     <use style="fill:#1f77b4;stroke:#1f77b4;" x="317.357889" xlink:href="#mcb2457e3ba" y="281.303041"/>
     <use style="fill:#1f77b4;stroke:#1f77b4;" x="320.604435" xlink:href="#mcb2457e3ba" y="288.166096"/>
     <use style="fill:#1f77b4;stroke:#1f77b4;" x="323.85098" xlink:href="#mcb2457e3ba" y="287.852465"/>
     <use style="fill:#1f77b4;stroke:#1f77b4;" x="327.097526" xlink:href="#mcb2457e3ba" y="278.516608"/>
     <use style="fill:#1f77b4;stroke:#1f77b4;" x="330.344071" xlink:href="#mcb2457e3ba" y="282.057662"/>
     <use style="fill:#1f77b4;stroke:#1f77b4;" x="333.590616" xlink:href="#mcb2457e3ba" y="277.829899"/>
     <use style="fill:#1f77b4;stroke:#1f77b4;" x="336.837162" xlink:href="#mcb2457e3ba" y="280.080853"/>
     <use style="fill:#1f77b4;stroke:#1f77b4;" x="340.083707" xlink:href="#mcb2457e3ba" y="271.896907"/>
     <use style="fill:#1f77b4;stroke:#1f77b4;" x="343.330253" xlink:href="#mcb2457e3ba" y="261.16575"/>
     <use style="fill:#1f77b4;stroke:#1f77b4;" x="346.576798" xlink:href="#mcb2457e3ba" y="260.32425"/>
     <use style="fill:#1f77b4;stroke:#1f77b4;" x="349.823344" xlink:href="#mcb2457e3ba" y="214.806139"/>
     <use style="fill:#1f77b4;stroke:#1f77b4;" x="353.069889" xlink:href="#mcb2457e3ba" y="232.368791"/>
     <use style="fill:#1f77b4;stroke:#1f77b4;" x="356.316435" xlink:href="#mcb2457e3ba" y="235.916981"/>
     <use style="fill:#1f77b4;stroke:#1f77b4;" x="359.56298" xlink:href="#mcb2457e3ba" y="261.854003"/>
     <use style="fill:#1f77b4;stroke:#1f77b4;" x="362.809526" xlink:href="#mcb2457e3ba" y="274.753123"/>
     <use style="fill:#1f77b4;stroke:#1f77b4;" x="366.056071" xlink:href="#mcb2457e3ba" y="274.796929"/>
     <use style="fill:#1f77b4;stroke:#1f77b4;" x="369.302616" xlink:href="#mcb2457e3ba" y="277.842089"/>
     <use style="fill:#1f77b4;stroke:#1f77b4;" x="372.549162" xlink:href="#mcb2457e3ba" y="289.38075"/>
     <use style="fill:#1f77b4;stroke:#1f77b4;" x="375.795707" xlink:href="#mcb2457e3ba" y="290.246396"/>
     <use style="fill:#1f77b4;stroke:#1f77b4;" x="379.042253" xlink:href="#mcb2457e3ba" y="285.944529"/>
     <use style="fill:#1f77b4;stroke:#1f77b4;" x="382.288798" xlink:href="#mcb2457e3ba" y="275.11439"/>
     <use style="fill:#1f77b4;stroke:#1f77b4;" x="385.535344" xlink:href="#mcb2457e3ba" y="288.877539"/>
     <use style="fill:#1f77b4;stroke:#1f77b4;" x="388.781889" xlink:href="#mcb2457e3ba" y="288.535836"/>
     <use style="fill:#1f77b4;stroke:#1f77b4;" x="392.028435" xlink:href="#mcb2457e3ba" y="285.611408"/>
     <use style="fill:#1f77b4;stroke:#1f77b4;" x="395.27498" xlink:href="#mcb2457e3ba" y="288.83625"/>
     <use style="fill:#1f77b4;stroke:#1f77b4;" x="398.521526" xlink:href="#mcb2457e3ba" y="280.257557"/>
     <use style="fill:#1f77b4;stroke:#1f77b4;" x="401.768071" xlink:href="#mcb2457e3ba" y="284.92575"/>
     <use style="fill:#1f77b4;stroke:#1f77b4;" x="405.014616" xlink:href="#mcb2457e3ba" y="284.94825"/>
    </g>
   </g>
   <g id="patch_3">
    <path d="M 64.127344 297.54825 
L 64.127344 31.43625 
" style="fill:none;stroke:#000000;stroke-linecap:square;stroke-linejoin:miter;stroke-width:0.8;"/>
   </g>
   <g id="patch_4">
    <path d="M 421.247344 297.54825 
L 421.247344 31.43625 
" style="fill:none;stroke:#000000;stroke-linecap:square;stroke-linejoin:miter;stroke-width:0.8;"/>
   </g>
   <g id="patch_5">
    <path d="M 64.127344 297.54825 
L 421.247344 297.54825 
" style="fill:none;stroke:#000000;stroke-linecap:square;stroke-linejoin:miter;stroke-width:0.8;"/>
   </g>
   <g id="patch_6">
    <path d="M 64.127344 31.43625 
L 421.247344 31.43625 
" style="fill:none;stroke:#000000;stroke-linecap:square;stroke-linejoin:miter;stroke-width:0.8;"/>
   </g>
   <g id="text_17">
    <!-- Y spectrum -->
    <defs>
     <path d="M -0.203125 72.90625 
L 10.40625 72.90625 
L 30.609375 42.921875 
L 50.6875 72.90625 
L 61.28125 72.90625 
L 35.5 34.71875 
L 35.5 0 
L 25.59375 0 
L 25.59375 34.71875 
z
" id="DejaVuSans-59"/>
     <path d="M 44.28125 53.078125 
L 44.28125 44.578125 
Q 40.484375 46.53125 36.375 47.5 
Q 32.28125 48.484375 27.875 48.484375 
Q 21.1875 48.484375 17.84375 46.4375 
Q 14.5 44.390625 14.5 40.28125 
Q 14.5 37.15625 16.890625 35.375 
Q 19.28125 33.59375 26.515625 31.984375 
L 29.59375 31.296875 
Q 39.15625 29.25 43.1875 25.515625 
Q 47.21875 21.78125 47.21875 15.09375 
Q 47.21875 7.46875 41.1875 3.015625 
Q 35.15625 -1.421875 24.609375 -1.421875 
Q 20.21875 -1.421875 15.453125 -0.5625 
Q 10.6875 0.296875 5.421875 2 
L 5.421875 11.28125 
Q 10.40625 8.6875 15.234375 7.390625 
Q 20.0625 6.109375 24.8125 6.109375 
Q 31.15625 6.109375 34.5625 8.28125 
Q 37.984375 10.453125 37.984375 14.40625 
Q 37.984375 18.0625 35.515625 20.015625 
Q 33.0625 21.96875 24.703125 23.78125 
L 21.578125 24.515625 
Q 13.234375 26.265625 9.515625 29.90625 
Q 5.8125 33.546875 5.8125 39.890625 
Q 5.8125 47.609375 11.28125 51.796875 
Q 16.75 56 26.8125 56 
Q 31.78125 56 36.171875 55.265625 
Q 40.578125 54.546875 44.28125 53.078125 
z
" id="DejaVuSans-73"/>
     <path d="M 18.109375 8.203125 
L 18.109375 -20.796875 
L 9.078125 -20.796875 
L 9.078125 54.6875 
L 18.109375 54.6875 
L 18.109375 46.390625 
Q 20.953125 51.265625 25.265625 53.625 
Q 29.59375 56 35.59375 56 
Q 45.5625 56 51.78125 48.09375 
Q 58.015625 40.1875 58.015625 27.296875 
Q 58.015625 14.40625 51.78125 6.484375 
Q 45.5625 -1.421875 35.59375 -1.421875 
Q 29.59375 -1.421875 25.265625 0.953125 
Q 20.953125 3.328125 18.109375 8.203125 
z
M 48.6875 27.296875 
Q 48.6875 37.203125 44.609375 42.84375 
Q 40.53125 48.484375 33.40625 48.484375 
Q 26.265625 48.484375 22.1875 42.84375 
Q 18.109375 37.203125 18.109375 27.296875 
Q 18.109375 17.390625 22.1875 11.75 
Q 26.265625 6.109375 33.40625 6.109375 
Q 40.53125 6.109375 44.609375 11.75 
Q 48.6875 17.390625 48.6875 27.296875 
z
" id="DejaVuSans-70"/>
     <path d="M 18.3125 70.21875 
L 18.3125 54.6875 
L 36.8125 54.6875 
L 36.8125 47.703125 
L 18.3125 47.703125 
L 18.3125 18.015625 
Q 18.3125 11.328125 20.140625 9.421875 
Q 21.96875 7.515625 27.59375 7.515625 
L 36.8125 7.515625 
L 36.8125 0 
L 27.59375 0 
Q 17.1875 0 13.234375 3.875 
Q 9.28125 7.765625 9.28125 18.015625 
L 9.28125 47.703125 
L 2.6875 47.703125 
L 2.6875 54.6875 
L 9.28125 54.6875 
L 9.28125 70.21875 
z
" id="DejaVuSans-74"/>
     <path d="M 52 44.1875 
Q 55.375 50.25 60.0625 53.125 
Q 64.75 56 71.09375 56 
Q 79.640625 56 84.28125 50.015625 
Q 88.921875 44.046875 88.921875 33.015625 
L 88.921875 0 
L 79.890625 0 
L 79.890625 32.71875 
Q 79.890625 40.578125 77.09375 44.375 
Q 74.3125 48.1875 68.609375 48.1875 
Q 61.625 48.1875 57.5625 43.546875 
Q 53.515625 38.921875 53.515625 30.90625 
L 53.515625 0 
L 44.484375 0 
L 44.484375 32.71875 
Q 44.484375 40.625 41.703125 44.40625 
Q 38.921875 48.1875 33.109375 48.1875 
Q 26.21875 48.1875 22.15625 43.53125 
Q 18.109375 38.875 18.109375 30.90625 
L 18.109375 0 
L 9.078125 0 
L 9.078125 54.6875 
L 18.109375 54.6875 
L 18.109375 46.1875 
Q 21.1875 51.21875 25.484375 53.609375 
Q 29.78125 56 35.6875 56 
Q 41.65625 56 45.828125 52.96875 
Q 50 49.953125 52 44.1875 
z
" id="DejaVuSans-6d"/>
    </defs>
    <g transform="translate(174.761719 25.43625)scale(0.24 -0.24)">
     <use xlink:href="#DejaVuSans-59"/>
     <use x="61.083984" xlink:href="#DejaVuSans-20"/>
     <use x="92.871094" xlink:href="#DejaVuSans-73"/>
     <use x="144.970703" xlink:href="#DejaVuSans-70"/>
     <use x="208.447266" xlink:href="#DejaVuSans-65"/>
     <use x="269.970703" xlink:href="#DejaVuSans-63"/>
     <use x="324.951172" xlink:href="#DejaVuSans-74"/>
     <use x="364.160156" xlink:href="#DejaVuSans-72"/>
     <use x="405.273438" xlink:href="#DejaVuSans-75"/>
     <use x="468.652344" xlink:href="#DejaVuSans-6d"/>
    </g>
   </g>
  </g>
 </g>
 <defs>
  <clipPath id="p2733d070c1">
   <rect height="266.112" width="357.12" x="64.127344" y="31.43625"/>
  </clipPath>
 </defs>
</svg>
