<?xml version="1.0" encoding="utf-8" standalone="no"?>
<!DOCTYPE svg PUBLIC "-//W3C//DTD SVG 1.1//EN"
  "http://www.w3.org/Graphics/SVG/1.1/DTD/svg11.dtd">
<!-- Created with matplotlib (http://matplotlib.org/) -->
<svg height="349pt" version="1.1" viewBox="0 0 431 349" width="431pt" xmlns="http://www.w3.org/2000/svg" xmlns:xlink="http://www.w3.org/1999/xlink">
 <defs>
  <style type="text/css">
*{stroke-linecap:butt;stroke-linejoin:round;}
  </style>
 </defs>
 <g id="figure_1">
  <g id="patch_1">
   <path d="M 0 349.621687 
L 431.947344 349.621687 
L 431.947344 0 
L 0 0 
z
" style="fill:none;"/>
  </g>
  <g id="axes_1">
   <g id="patch_2">
    <path d="M 64.127344 297.54825 
L 421.247344 297.54825 
L 421.247344 31.43625 
L 64.127344 31.43625 
z
" style="fill:none;"/>
   </g>
   <g id="matplotlib.axis_1">
    <g id="xtick_1">
     <g id="line2d_1">
      <path clip-path="url(#p2733d070c1)" d="M 118.554723 297.54825 
L 118.554723 31.43625 
" style="fill:none;stroke:#b0b0b0;stroke-linecap:square;stroke-width:0.8;"/>
     </g>
     <g id="line2d_2">
      <defs>
       <path d="M 0 0 
L 0 3.5 
" id="m005f0a59be" style="stroke:#000000;stroke-width:0.8;"/>
      </defs>
      <g>
       <use style="stroke:#000000;stroke-width:0.8;" x="118.554723" xlink:href="#m005f0a59be" y="297.54825"/>
      </g>
     </g>
     <g id="text_1">
      <!-- 18.5 -->
      <defs>
       <path d="M 11.71875 12.984375 
L 28.328125 12.984375 
L 28.328125 60.109375 
L 11.28125 56.59375 
L 11.28125 69.390625 
L 28.21875 72.90625 
L 46.09375 72.90625 
L 46.09375 12.984375 
L 62.703125 12.984375 
L 62.703125 0 
L 11.71875 0 
z
" id="DejaVuSans-Bold-31"/>
       <path d="M 34.8125 32.625 
Q 29.546875 32.625 26.703125 29.734375 
Q 23.875 26.859375 23.875 21.484375 
Q 23.875 16.109375 26.703125 13.25 
Q 29.546875 10.40625 34.8125 10.40625 
Q 40.046875 10.40625 42.828125 13.25 
Q 45.609375 16.109375 45.609375 21.484375 
Q 45.609375 26.90625 42.828125 29.765625 
Q 40.046875 32.625 34.8125 32.625 
z
M 21.09375 38.8125 
Q 14.453125 40.828125 11.078125 44.96875 
Q 7.71875 49.125 7.71875 55.328125 
Q 7.71875 64.546875 14.59375 69.375 
Q 21.484375 74.21875 34.8125 74.21875 
Q 48.046875 74.21875 54.921875 69.40625 
Q 61.8125 64.59375 61.8125 55.328125 
Q 61.8125 49.125 58.421875 44.96875 
Q 55.03125 40.828125 48.390625 38.8125 
Q 55.8125 36.765625 59.59375 32.15625 
Q 63.375 27.546875 63.375 20.515625 
Q 63.375 9.671875 56.171875 4.125 
Q 48.96875 -1.421875 34.8125 -1.421875 
Q 20.609375 -1.421875 13.359375 4.125 
Q 6.109375 9.671875 6.109375 20.515625 
Q 6.109375 27.546875 9.890625 32.15625 
Q 13.671875 36.765625 21.09375 38.8125 
z
M 25.484375 53.421875 
Q 25.484375 49.078125 27.90625 46.734375 
Q 30.328125 44.390625 34.8125 44.390625 
Q 39.203125 44.390625 41.59375 46.734375 
Q 44 49.078125 44 53.421875 
Q 44 57.765625 41.59375 60.078125 
Q 39.203125 62.40625 34.8125 62.40625 
Q 30.328125 62.40625 27.90625 60.0625 
Q 25.484375 57.71875 25.484375 53.421875 
z
" id="DejaVuSans-Bold-38"/>
       <path d="M 10.203125 18.890625 
L 27.78125 18.890625 
L 27.78125 0 
L 10.203125 0 
z
" id="DejaVuSans-Bold-2e"/>
       <path d="M 10.59375 72.90625 
L 57.328125 72.90625 
L 57.328125 59.078125 
L 25.59375 59.078125 
L 25.59375 47.796875 
Q 27.734375 48.390625 29.90625 48.703125 
Q 32.078125 49.03125 34.421875 49.03125 
Q 47.75 49.03125 55.171875 42.359375 
Q 62.59375 35.6875 62.59375 23.78125 
Q 62.59375 11.96875 54.515625 5.265625 
Q 46.4375 -1.421875 32.078125 -1.421875 
Q 25.875 -1.421875 19.796875 -0.21875 
Q 13.71875 0.984375 7.71875 3.421875 
L 7.71875 18.21875 
Q 13.671875 14.796875 19.015625 13.078125 
Q 24.359375 11.375 29.109375 11.375 
Q 35.9375 11.375 39.859375 14.71875 
Q 43.796875 18.0625 43.796875 23.78125 
Q 43.796875 29.546875 39.859375 32.859375 
Q 35.9375 36.1875 29.109375 36.1875 
Q 25.046875 36.1875 20.453125 35.125 
Q 15.875 34.078125 10.59375 31.890625 
z
" id="DejaVuSans-Bold-35"/>
      </defs>
      <g transform="translate(100.050817 315.945906)scale(0.15 -0.15)">
       <use xlink:href="#DejaVuSans-Bold-31"/>
       <use x="69.580078" xlink:href="#DejaVuSans-Bold-38"/>
       <use x="139.160156" xlink:href="#DejaVuSans-Bold-2e"/>
       <use x="177.148438" xlink:href="#DejaVuSans-Bold-35"/>
      </g>
     </g>
    </g>
    <g id="xtick_2">
     <g id="line2d_3">
      <path clip-path="url(#p2733d070c1)" d="M 214.041354 297.54825 
L 214.041354 31.43625 
" style="fill:none;stroke:#b0b0b0;stroke-linecap:square;stroke-width:0.8;"/>
     </g>
     <g id="line2d_4">
      <g>
       <use style="stroke:#000000;stroke-width:0.8;" x="214.041354" xlink:href="#m005f0a59be" y="297.54825"/>
      </g>
     </g>
     <g id="text_2">
      <!-- 18.6 -->
      <defs>
       <path d="M 36.1875 35.984375 
Q 31.25 35.984375 28.78125 32.78125 
Q 26.3125 29.59375 26.3125 23.1875 
Q 26.3125 16.796875 28.78125 13.59375 
Q 31.25 10.40625 36.1875 10.40625 
Q 41.15625 10.40625 43.625 13.59375 
Q 46.09375 16.796875 46.09375 23.1875 
Q 46.09375 29.59375 43.625 32.78125 
Q 41.15625 35.984375 36.1875 35.984375 
z
M 59.421875 71 
L 59.421875 57.515625 
Q 54.78125 59.71875 50.671875 60.765625 
Q 46.578125 61.8125 42.671875 61.8125 
Q 34.28125 61.8125 29.59375 57.140625 
Q 24.90625 52.484375 24.125 43.3125 
Q 27.34375 45.703125 31.09375 46.890625 
Q 34.859375 48.09375 39.3125 48.09375 
Q 50.484375 48.09375 57.34375 41.546875 
Q 64.203125 35.015625 64.203125 24.421875 
Q 64.203125 12.703125 56.53125 5.640625 
Q 48.875 -1.421875 35.984375 -1.421875 
Q 21.78125 -1.421875 13.984375 8.171875 
Q 6.203125 17.78125 6.203125 35.40625 
Q 6.203125 53.46875 15.3125 63.796875 
Q 24.421875 74.125 40.28125 74.125 
Q 45.3125 74.125 50.046875 73.34375 
Q 54.78125 72.5625 59.421875 71 
z
" id="DejaVuSans-Bold-36"/>
      </defs>
      <g transform="translate(195.537448 315.945906)scale(0.15 -0.15)">
       <use xlink:href="#DejaVuSans-Bold-31"/>
       <use x="69.580078" xlink:href="#DejaVuSans-Bold-38"/>
       <use x="139.160156" xlink:href="#DejaVuSans-Bold-2e"/>
       <use x="177.148438" xlink:href="#DejaVuSans-Bold-36"/>
      </g>
     </g>
    </g>
    <g id="xtick_3">
     <g id="line2d_5">
      <path clip-path="url(#p2733d070c1)" d="M 309.527985 297.54825 
L 309.527985 31.43625 
" style="fill:none;stroke:#b0b0b0;stroke-linecap:square;stroke-width:0.8;"/>
     </g>
     <g id="line2d_6">
      <g>
       <use style="stroke:#000000;stroke-width:0.8;" x="309.527985" xlink:href="#m005f0a59be" y="297.54825"/>
      </g>
     </g>
     <g id="text_3">
      <!-- 18.7 -->
      <defs>
       <path d="M 6.6875 72.90625 
L 61.625 72.90625 
L 61.625 62.3125 
L 33.203125 0 
L 14.890625 0 
L 41.796875 59.078125 
L 6.6875 59.078125 
z
" id="DejaVuSans-Bold-37"/>
      </defs>
      <g transform="translate(291.024079 315.945906)scale(0.15 -0.15)">
       <use xlink:href="#DejaVuSans-Bold-31"/>
       <use x="69.580078" xlink:href="#DejaVuSans-Bold-38"/>
       <use x="139.160156" xlink:href="#DejaVuSans-Bold-2e"/>
       <use x="177.148438" xlink:href="#DejaVuSans-Bold-37"/>
      </g>
     </g>
    </g>
    <g id="xtick_4">
     <g id="line2d_7">
      <path clip-path="url(#p2733d070c1)" d="M 405.014616 297.54825 
L 405.014616 31.43625 
" style="fill:none;stroke:#b0b0b0;stroke-linecap:square;stroke-width:0.8;"/>
     </g>
     <g id="line2d_8">
      <g>
       <use style="stroke:#000000;stroke-width:0.8;" x="405.014616" xlink:href="#m005f0a59be" y="297.54825"/>
      </g>
     </g>
     <g id="text_4">
      <!-- 18.8 -->
      <g transform="translate(386.51071 315.945906)scale(0.15 -0.15)">
       <use xlink:href="#DejaVuSans-Bold-31"/>
       <use x="69.580078" xlink:href="#DejaVuSans-Bold-38"/>
       <use x="139.160156" xlink:href="#DejaVuSans-Bold-2e"/>
       <use x="177.148438" xlink:href="#DejaVuSans-Bold-38"/>
      </g>
     </g>
    </g>
    <g id="text_5">
     <!-- Frequency (MHz) -->
     <defs>
      <path d="M 9.8125 72.90625 
L 51.703125 72.90625 
L 51.703125 64.59375 
L 19.671875 64.59375 
L 19.671875 43.109375 
L 48.578125 43.109375 
L 48.578125 34.8125 
L 19.671875 34.8125 
L 19.671875 0 
L 9.8125 0 
z
" id="DejaVuSans-46"/>
      <path d="M 41.109375 46.296875 
Q 39.59375 47.171875 37.8125 47.578125 
Q 36.03125 48 33.890625 48 
Q 26.265625 48 22.1875 43.046875 
Q 18.109375 38.09375 18.109375 28.8125 
L 18.109375 0 
L 9.078125 0 
L 9.078125 54.6875 
L 18.109375 54.6875 
L 18.109375 46.1875 
Q 20.953125 51.171875 25.484375 53.578125 
Q 30.03125 56 36.53125 56 
Q 37.453125 56 38.578125 55.875 
Q 39.703125 55.765625 41.0625 55.515625 
z
" id="DejaVuSans-72"/>
      <path d="M 56.203125 29.59375 
L 56.203125 25.203125 
L 14.890625 25.203125 
Q 15.484375 15.921875 20.484375 11.0625 
Q 25.484375 6.203125 34.421875 6.203125 
Q 39.59375 6.203125 44.453125 7.46875 
Q 49.3125 8.734375 54.109375 11.28125 
L 54.109375 2.78125 
Q 49.265625 0.734375 44.1875 -0.34375 
Q 39.109375 -1.421875 33.890625 -1.421875 
Q 20.796875 -1.421875 13.15625 6.1875 
Q 5.515625 13.8125 5.515625 26.8125 
Q 5.515625 40.234375 12.765625 48.109375 
Q 20.015625 56 32.328125 56 
Q 43.359375 56 49.78125 48.890625 
Q 56.203125 41.796875 56.203125 29.59375 
z
M 47.21875 32.234375 
Q 47.125 39.59375 43.09375 43.984375 
Q 39.0625 48.390625 32.421875 48.390625 
Q 24.90625 48.390625 20.390625 44.140625 
Q 15.875 39.890625 15.1875 32.171875 
z
" id="DejaVuSans-65"/>
      <path d="M 14.796875 27.296875 
Q 14.796875 17.390625 18.875 11.75 
Q 22.953125 6.109375 30.078125 6.109375 
Q 37.203125 6.109375 41.296875 11.75 
Q 45.40625 17.390625 45.40625 27.296875 
Q 45.40625 37.203125 41.296875 42.84375 
Q 37.203125 48.484375 30.078125 48.484375 
Q 22.953125 48.484375 18.875 42.84375 
Q 14.796875 37.203125 14.796875 27.296875 
z
M 45.40625 8.203125 
Q 42.578125 3.328125 38.25 0.953125 
Q 33.9375 -1.421875 27.875 -1.421875 
Q 17.96875 -1.421875 11.734375 6.484375 
Q 5.515625 14.40625 5.515625 27.296875 
Q 5.515625 40.1875 11.734375 48.09375 
Q 17.96875 56 27.875 56 
Q 33.9375 56 38.25 53.625 
Q 42.578125 51.265625 45.40625 46.390625 
L 45.40625 54.6875 
L 54.390625 54.6875 
L 54.390625 -20.796875 
L 45.40625 -20.796875 
z
" id="DejaVuSans-71"/>
      <path d="M 8.5 21.578125 
L 8.5 54.6875 
L 17.484375 54.6875 
L 17.484375 21.921875 
Q 17.484375 14.15625 20.5 10.265625 
Q 23.53125 6.390625 29.59375 6.390625 
Q 36.859375 6.390625 41.078125 11.03125 
Q 45.3125 15.671875 45.3125 23.6875 
L 45.3125 54.6875 
L 54.296875 54.6875 
L 54.296875 0 
L 45.3125 0 
L 45.3125 8.40625 
Q 42.046875 3.421875 37.71875 1 
Q 33.40625 -1.421875 27.6875 -1.421875 
Q 18.265625 -1.421875 13.375 4.4375 
Q 8.5 10.296875 8.5 21.578125 
z
M 31.109375 56 
z
" id="DejaVuSans-75"/>
      <path d="M 54.890625 33.015625 
L 54.890625 0 
L 45.90625 0 
L 45.90625 32.71875 
Q 45.90625 40.484375 42.875 44.328125 
Q 39.84375 48.1875 33.796875 48.1875 
Q 26.515625 48.1875 22.3125 43.546875 
Q 18.109375 38.921875 18.109375 30.90625 
L 18.109375 0 
L 9.078125 0 
L 9.078125 54.6875 
L 18.109375 54.6875 
L 18.109375 46.1875 
Q 21.34375 51.125 25.703125 53.5625 
Q 30.078125 56 35.796875 56 
Q 45.21875 56 50.046875 50.171875 
Q 54.890625 44.34375 54.890625 33.015625 
z
" id="DejaVuSans-6e"/>
      <path d="M 48.78125 52.59375 
L 48.78125 44.1875 
Q 44.96875 46.296875 41.140625 47.34375 
Q 37.3125 48.390625 33.40625 48.390625 
Q 24.65625 48.390625 19.8125 42.84375 
Q 14.984375 37.3125 14.984375 27.296875 
Q 14.984375 17.28125 19.8125 11.734375 
Q 24.65625 6.203125 33.40625 6.203125 
Q 37.3125 6.203125 41.140625 7.25 
Q 44.96875 8.296875 48.78125 10.40625 
L 48.78125 2.09375 
Q 45.015625 0.34375 40.984375 -0.53125 
Q 36.96875 -1.421875 32.421875 -1.421875 
Q 20.0625 -1.421875 12.78125 6.34375 
Q 5.515625 14.109375 5.515625 27.296875 
Q 5.515625 40.671875 12.859375 48.328125 
Q 20.21875 56 33.015625 56 
Q 37.15625 56 41.109375 55.140625 
Q 45.0625 54.296875 48.78125 52.59375 
z
" id="DejaVuSans-63"/>
      <path d="M 32.171875 -5.078125 
Q 28.375 -14.84375 24.75 -17.8125 
Q 21.140625 -20.796875 15.09375 -20.796875 
L 7.90625 -20.796875 
L 7.90625 -13.28125 
L 13.1875 -13.28125 
Q 16.890625 -13.28125 18.9375 -11.515625 
Q 21 -9.765625 23.484375 -3.21875 
L 25.09375 0.875 
L 2.984375 54.6875 
L 12.5 54.6875 
L 29.59375 11.921875 
L 46.6875 54.6875 
L 56.203125 54.6875 
z
" id="DejaVuSans-79"/>
      <path id="DejaVuSans-20"/>
      <path d="M 31 75.875 
Q 24.46875 64.65625 21.28125 53.65625 
Q 18.109375 42.671875 18.109375 31.390625 
Q 18.109375 20.125 21.3125 9.0625 
Q 24.515625 -2 31 -13.1875 
L 23.1875 -13.1875 
Q 15.875 -1.703125 12.234375 9.375 
Q 8.59375 20.453125 8.59375 31.390625 
Q 8.59375 42.28125 12.203125 53.3125 
Q 15.828125 64.359375 23.1875 75.875 
z
" id="DejaVuSans-28"/>
      <path d="M 9.8125 72.90625 
L 24.515625 72.90625 
L 43.109375 23.296875 
L 61.8125 72.90625 
L 76.515625 72.90625 
L 76.515625 0 
L 66.890625 0 
L 66.890625 64.015625 
L 48.09375 14.015625 
L 38.1875 14.015625 
L 19.390625 64.015625 
L 19.390625 0 
L 9.8125 0 
z
" id="DejaVuSans-4d"/>
      <path d="M 9.8125 72.90625 
L 19.671875 72.90625 
L 19.671875 43.015625 
L 55.515625 43.015625 
L 55.515625 72.90625 
L 65.375 72.90625 
L 65.375 0 
L 55.515625 0 
L 55.515625 34.71875 
L 19.671875 34.71875 
L 19.671875 0 
L 9.8125 0 
z
" id="DejaVuSans-48"/>
      <path d="M 5.515625 54.6875 
L 48.1875 54.6875 
L 48.1875 46.484375 
L 14.40625 7.171875 
L 48.1875 7.171875 
L 48.1875 0 
L 4.296875 0 
L 4.296875 8.203125 
L 38.09375 47.515625 
L 5.515625 47.515625 
z
" id="DejaVuSans-7a"/>
      <path d="M 8.015625 75.875 
L 15.828125 75.875 
Q 23.140625 64.359375 26.78125 53.3125 
Q 30.421875 42.28125 30.421875 31.390625 
Q 30.421875 20.453125 26.78125 9.375 
Q 23.140625 -1.703125 15.828125 -13.1875 
L 8.015625 -13.1875 
Q 14.5 -2 17.703125 9.0625 
Q 20.90625 20.125 20.90625 31.390625 
Q 20.90625 42.671875 17.703125 53.65625 
Q 14.5 64.65625 8.015625 75.875 
z
" id="DejaVuSans-29"/>
     </defs>
     <g transform="translate(157.713906 338.262312)scale(0.2 -0.2)">
      <use xlink:href="#DejaVuSans-46"/>
      <use x="57.410156" xlink:href="#DejaVuSans-72"/>
      <use x="98.492188" xlink:href="#DejaVuSans-65"/>
      <use x="160.015625" xlink:href="#DejaVuSans-71"/>
      <use x="223.492188" xlink:href="#DejaVuSans-75"/>
      <use x="286.871094" xlink:href="#DejaVuSans-65"/>
      <use x="348.394531" xlink:href="#DejaVuSans-6e"/>
      <use x="411.773438" xlink:href="#DejaVuSans-63"/>
      <use x="466.753906" xlink:href="#DejaVuSans-79"/>
      <use x="525.933594" xlink:href="#DejaVuSans-20"/>
      <use x="557.720703" xlink:href="#DejaVuSans-28"/>
      <use x="596.734375" xlink:href="#DejaVuSans-4d"/>
      <use x="683.013672" xlink:href="#DejaVuSans-48"/>
      <use x="758.208984" xlink:href="#DejaVuSans-7a"/>
      <use x="810.699219" xlink:href="#DejaVuSans-29"/>
     </g>
    </g>
   </g>
   <g id="matplotlib.axis_2">
    <g id="ytick_1">
     <g id="line2d_9">
      <path clip-path="url(#p2733d070c1)" d="M 64.127344 297.54825 
L 421.247344 297.54825 
" style="fill:none;stroke:#b0b0b0;stroke-linecap:square;stroke-width:0.8;"/>
     </g>
     <g id="line2d_10">
      <defs>
       <path d="M 0 0 
L -3.5 0 
" id="mc3ce260a5b" style="stroke:#000000;stroke-width:0.8;"/>
      </defs>
      <g>
       <use style="stroke:#000000;stroke-width:0.8;" x="64.127344" xlink:href="#mc3ce260a5b" y="297.54825"/>
      </g>
     </g>
     <g id="text_6">
      <!-- 0.0 -->
      <defs>
       <path d="M 46 36.53125 
Q 46 50.203125 43.4375 55.78125 
Q 40.875 61.375 34.8125 61.375 
Q 28.765625 61.375 26.171875 55.78125 
Q 23.578125 50.203125 23.578125 36.53125 
Q 23.578125 22.703125 26.171875 17.03125 
Q 28.765625 11.375 34.8125 11.375 
Q 40.828125 11.375 43.40625 17.03125 
Q 46 22.703125 46 36.53125 
z
M 64.796875 36.375 
Q 64.796875 18.265625 56.984375 8.421875 
Q 49.171875 -1.421875 34.8125 -1.421875 
Q 20.40625 -1.421875 12.59375 8.421875 
Q 4.78125 18.265625 4.78125 36.375 
Q 4.78125 54.546875 12.59375 64.375 
Q 20.40625 74.21875 34.8125 74.21875 
Q 49.171875 74.21875 56.984375 64.375 
Q 64.796875 54.546875 64.796875 36.375 
z
" id="DejaVuSans-Bold-30"/>
      </defs>
      <g transform="translate(30.55625 303.247078)scale(0.15 -0.15)">
       <use xlink:href="#DejaVuSans-Bold-30"/>
       <use x="69.580078" xlink:href="#DejaVuSans-Bold-2e"/>
       <use x="107.568359" xlink:href="#DejaVuSans-Bold-30"/>
      </g>
     </g>
    </g>
    <g id="ytick_2">
     <g id="line2d_11">
      <path clip-path="url(#p2733d070c1)" d="M 64.127344 259.53225 
L 421.247344 259.53225 
" style="fill:none;stroke:#b0b0b0;stroke-linecap:square;stroke-width:0.8;"/>
     </g>
     <g id="line2d_12">
      <g>
       <use style="stroke:#000000;stroke-width:0.8;" x="64.127344" xlink:href="#mc3ce260a5b" y="259.53225"/>
      </g>
     </g>
     <g id="text_7">
      <!-- 0.1 -->
      <g transform="translate(30.55625 265.231078)scale(0.15 -0.15)">
       <use xlink:href="#DejaVuSans-Bold-30"/>
       <use x="69.580078" xlink:href="#DejaVuSans-Bold-2e"/>
       <use x="107.568359" xlink:href="#DejaVuSans-Bold-31"/>
      </g>
     </g>
    </g>
    <g id="ytick_3">
     <g id="line2d_13">
      <path clip-path="url(#p2733d070c1)" d="M 64.127344 221.51625 
L 421.247344 221.51625 
" style="fill:none;stroke:#b0b0b0;stroke-linecap:square;stroke-width:0.8;"/>
     </g>
     <g id="line2d_14">
      <g>
       <use style="stroke:#000000;stroke-width:0.8;" x="64.127344" xlink:href="#mc3ce260a5b" y="221.51625"/>
      </g>
     </g>
     <g id="text_8">
      <!-- 0.2 -->
      <defs>
       <path d="M 28.8125 13.8125 
L 60.890625 13.8125 
L 60.890625 0 
L 7.90625 0 
L 7.90625 13.8125 
L 34.515625 37.3125 
Q 38.09375 40.53125 39.796875 43.609375 
Q 41.5 46.6875 41.5 50 
Q 41.5 55.125 38.0625 58.25 
Q 34.625 61.375 28.90625 61.375 
Q 24.515625 61.375 19.28125 59.5 
Q 14.0625 57.625 8.109375 53.90625 
L 8.109375 69.921875 
Q 14.453125 72.015625 20.65625 73.109375 
Q 26.859375 74.21875 32.8125 74.21875 
Q 45.90625 74.21875 53.15625 68.453125 
Q 60.40625 62.703125 60.40625 52.390625 
Q 60.40625 46.4375 57.328125 41.28125 
Q 54.25 36.140625 44.390625 27.484375 
z
" id="DejaVuSans-Bold-32"/>
      </defs>
      <g transform="translate(30.55625 227.215078)scale(0.15 -0.15)">
       <use xlink:href="#DejaVuSans-Bold-30"/>
       <use x="69.580078" xlink:href="#DejaVuSans-Bold-2e"/>
       <use x="107.568359" xlink:href="#DejaVuSans-Bold-32"/>
      </g>
     </g>
    </g>
    <g id="ytick_4">
     <g id="line2d_15">
      <path clip-path="url(#p2733d070c1)" d="M 64.127344 183.50025 
L 421.247344 183.50025 
" style="fill:none;stroke:#b0b0b0;stroke-linecap:square;stroke-width:0.8;"/>
     </g>
     <g id="line2d_16">
      <g>
       <use style="stroke:#000000;stroke-width:0.8;" x="64.127344" xlink:href="#mc3ce260a5b" y="183.50025"/>
      </g>
     </g>
     <g id="text_9">
      <!-- 0.3 -->
      <defs>
       <path d="M 46.578125 39.3125 
Q 53.953125 37.40625 57.78125 32.6875 
Q 61.625 27.984375 61.625 20.703125 
Q 61.625 9.859375 53.3125 4.21875 
Q 45.015625 -1.421875 29.109375 -1.421875 
Q 23.484375 -1.421875 17.84375 -0.515625 
Q 12.203125 0.390625 6.6875 2.203125 
L 6.6875 16.703125 
Q 11.96875 14.0625 17.15625 12.71875 
Q 22.359375 11.375 27.390625 11.375 
Q 34.859375 11.375 38.84375 13.953125 
Q 42.828125 16.546875 42.828125 21.390625 
Q 42.828125 26.375 38.75 28.9375 
Q 34.671875 31.5 26.703125 31.5 
L 19.1875 31.5 
L 19.1875 43.609375 
L 27.09375 43.609375 
Q 34.1875 43.609375 37.640625 45.828125 
Q 41.109375 48.046875 41.109375 52.59375 
Q 41.109375 56.78125 37.734375 59.078125 
Q 34.375 61.375 28.21875 61.375 
Q 23.6875 61.375 19.046875 60.34375 
Q 14.40625 59.328125 9.8125 57.328125 
L 9.8125 71.09375 
Q 15.375 72.65625 20.84375 73.4375 
Q 26.3125 74.21875 31.59375 74.21875 
Q 45.796875 74.21875 52.84375 69.546875 
Q 59.90625 64.890625 59.90625 55.515625 
Q 59.90625 49.125 56.53125 45.046875 
Q 53.171875 40.96875 46.578125 39.3125 
z
" id="DejaVuSans-Bold-33"/>
      </defs>
      <g transform="translate(30.55625 189.199078)scale(0.15 -0.15)">
       <use xlink:href="#DejaVuSans-Bold-30"/>
       <use x="69.580078" xlink:href="#DejaVuSans-Bold-2e"/>
       <use x="107.568359" xlink:href="#DejaVuSans-Bold-33"/>
      </g>
     </g>
    </g>
    <g id="ytick_5">
     <g id="line2d_17">
      <path clip-path="url(#p2733d070c1)" d="M 64.127344 145.48425 
L 421.247344 145.48425 
" style="fill:none;stroke:#b0b0b0;stroke-linecap:square;stroke-width:0.8;"/>
     </g>
     <g id="line2d_18">
      <g>
       <use style="stroke:#000000;stroke-width:0.8;" x="64.127344" xlink:href="#mc3ce260a5b" y="145.48425"/>
      </g>
     </g>
     <g id="text_10">
      <!-- 0.4 -->
      <defs>
       <path d="M 36.8125 57.421875 
L 16.21875 26.90625 
L 36.8125 26.90625 
z
M 33.6875 72.90625 
L 54.59375 72.90625 
L 54.59375 26.90625 
L 64.984375 26.90625 
L 64.984375 13.28125 
L 54.59375 13.28125 
L 54.59375 0 
L 36.8125 0 
L 36.8125 13.28125 
L 4.5 13.28125 
L 4.5 29.390625 
z
" id="DejaVuSans-Bold-34"/>
      </defs>
      <g transform="translate(30.55625 151.183078)scale(0.15 -0.15)">
       <use xlink:href="#DejaVuSans-Bold-30"/>
       <use x="69.580078" xlink:href="#DejaVuSans-Bold-2e"/>
       <use x="107.568359" xlink:href="#DejaVuSans-Bold-34"/>
      </g>
     </g>
    </g>
    <g id="ytick_6">
     <g id="line2d_19">
      <path clip-path="url(#p2733d070c1)" d="M 64.127344 107.46825 
L 421.247344 107.46825 
" style="fill:none;stroke:#b0b0b0;stroke-linecap:square;stroke-width:0.8;"/>
     </g>
     <g id="line2d_20">
      <g>
       <use style="stroke:#000000;stroke-width:0.8;" x="64.127344" xlink:href="#mc3ce260a5b" y="107.46825"/>
      </g>
     </g>
     <g id="text_11">
      <!-- 0.5 -->
      <g transform="translate(30.55625 113.167078)scale(0.15 -0.15)">
       <use xlink:href="#DejaVuSans-Bold-30"/>
       <use x="69.580078" xlink:href="#DejaVuSans-Bold-2e"/>
       <use x="107.568359" xlink:href="#DejaVuSans-Bold-35"/>
      </g>
     </g>
    </g>
    <g id="ytick_7">
     <g id="line2d_21">
      <path clip-path="url(#p2733d070c1)" d="M 64.127344 69.45225 
L 421.247344 69.45225 
" style="fill:none;stroke:#b0b0b0;stroke-linecap:square;stroke-width:0.8;"/>
     </g>
     <g id="line2d_22">
      <g>
       <use style="stroke:#000000;stroke-width:0.8;" x="64.127344" xlink:href="#mc3ce260a5b" y="69.45225"/>
      </g>
     </g>
     <g id="text_12">
      <!-- 0.6 -->
      <g transform="translate(30.55625 75.151078)scale(0.15 -0.15)">
       <use xlink:href="#DejaVuSans-Bold-30"/>
       <use x="69.580078" xlink:href="#DejaVuSans-Bold-2e"/>
       <use x="107.568359" xlink:href="#DejaVuSans-Bold-36"/>
      </g>
     </g>
    </g>
    <g id="ytick_8">
     <g id="line2d_23">
      <path clip-path="url(#p2733d070c1)" d="M 64.127344 31.43625 
L 421.247344 31.43625 
" style="fill:none;stroke:#b0b0b0;stroke-linecap:square;stroke-width:0.8;"/>
     </g>
     <g id="line2d_24">
      <g>
       <use style="stroke:#000000;stroke-width:0.8;" x="64.127344" xlink:href="#mc3ce260a5b" y="31.43625"/>
      </g>
     </g>
     <g id="text_13">
      <!-- 0.7 -->
      <g transform="translate(30.55625 37.135078)scale(0.15 -0.15)">
       <use xlink:href="#DejaVuSans-Bold-30"/>
       <use x="69.580078" xlink:href="#DejaVuSans-Bold-2e"/>
       <use x="107.568359" xlink:href="#DejaVuSans-Bold-37"/>
      </g>
     </g>
    </g>
    <g id="text_14">
     <!-- Survival -->
     <defs>
      <path d="M 53.515625 70.515625 
L 53.515625 60.890625 
Q 47.90625 63.578125 42.921875 64.890625 
Q 37.9375 66.21875 33.296875 66.21875 
Q 25.25 66.21875 20.875 63.09375 
Q 16.5 59.96875 16.5 54.203125 
Q 16.5 49.359375 19.40625 46.890625 
Q 22.3125 44.4375 30.421875 42.921875 
L 36.375 41.703125 
Q 47.40625 39.59375 52.65625 34.296875 
Q 57.90625 29 57.90625 20.125 
Q 57.90625 9.515625 50.796875 4.046875 
Q 43.703125 -1.421875 29.984375 -1.421875 
Q 24.8125 -1.421875 18.96875 -0.25 
Q 13.140625 0.921875 6.890625 3.21875 
L 6.890625 13.375 
Q 12.890625 10.015625 18.65625 8.296875 
Q 24.421875 6.59375 29.984375 6.59375 
Q 38.421875 6.59375 43.015625 9.90625 
Q 47.609375 13.234375 47.609375 19.390625 
Q 47.609375 24.75 44.3125 27.78125 
Q 41.015625 30.8125 33.5 32.328125 
L 27.484375 33.5 
Q 16.453125 35.6875 11.515625 40.375 
Q 6.59375 45.0625 6.59375 53.421875 
Q 6.59375 63.09375 13.40625 68.65625 
Q 20.21875 74.21875 32.171875 74.21875 
Q 37.3125 74.21875 42.625 73.28125 
Q 47.953125 72.359375 53.515625 70.515625 
z
" id="DejaVuSans-53"/>
      <path d="M 2.984375 54.6875 
L 12.5 54.6875 
L 29.59375 8.796875 
L 46.6875 54.6875 
L 56.203125 54.6875 
L 35.6875 0 
L 23.484375 0 
z
" id="DejaVuSans-76"/>
      <path d="M 9.421875 54.6875 
L 18.40625 54.6875 
L 18.40625 0 
L 9.421875 0 
z
M 9.421875 75.984375 
L 18.40625 75.984375 
L 18.40625 64.59375 
L 9.421875 64.59375 
z
" id="DejaVuSans-69"/>
      <path d="M 34.28125 27.484375 
Q 23.390625 27.484375 19.1875 25 
Q 14.984375 22.515625 14.984375 16.5 
Q 14.984375 11.71875 18.140625 8.90625 
Q 21.296875 6.109375 26.703125 6.109375 
Q 34.1875 6.109375 38.703125 11.40625 
Q 43.21875 16.703125 43.21875 25.484375 
L 43.21875 27.484375 
z
M 52.203125 31.203125 
L 52.203125 0 
L 43.21875 0 
L 43.21875 8.296875 
Q 40.140625 3.328125 35.546875 0.953125 
Q 30.953125 -1.421875 24.3125 -1.421875 
Q 15.921875 -1.421875 10.953125 3.296875 
Q 6 8.015625 6 15.921875 
Q 6 25.140625 12.171875 29.828125 
Q 18.359375 34.515625 30.609375 34.515625 
L 43.21875 34.515625 
L 43.21875 35.40625 
Q 43.21875 41.609375 39.140625 45 
Q 35.0625 48.390625 27.6875 48.390625 
Q 23 48.390625 18.546875 47.265625 
Q 14.109375 46.140625 10.015625 43.890625 
L 10.015625 52.203125 
Q 14.9375 54.109375 19.578125 55.046875 
Q 24.21875 56 28.609375 56 
Q 40.484375 56 46.34375 49.84375 
Q 52.203125 43.703125 52.203125 31.203125 
z
" id="DejaVuSans-61"/>
      <path d="M 9.421875 75.984375 
L 18.40625 75.984375 
L 18.40625 0 
L 9.421875 0 
z
" id="DejaVuSans-6c"/>
     </defs>
     <g transform="translate(22.396875 204.811)rotate(-90)scale(0.2 -0.2)">
      <use xlink:href="#DejaVuSans-53"/>
      <use x="63.476562" xlink:href="#DejaVuSans-75"/>
      <use x="126.855469" xlink:href="#DejaVuSans-72"/>
      <use x="167.96875" xlink:href="#DejaVuSans-76"/>
      <use x="227.148438" xlink:href="#DejaVuSans-69"/>
      <use x="254.931641" xlink:href="#DejaVuSans-76"/>
      <use x="314.111328" xlink:href="#DejaVuSans-61"/>
      <use x="375.390625" xlink:href="#DejaVuSans-6c"/>
     </g>
    </g>
   </g>
   <g id="LineCollection_1">
    <path clip-path="url(#p2733d070c1)" d="M 80.360071 296.226119 
L 80.360071 288.595787 
" style="fill:none;stroke:#1f77b4;stroke-width:1.5;"/>
    <path clip-path="url(#p2733d070c1)" d="M 85.134403 294.232864 
L 85.134403 284.477429 
" style="fill:none;stroke:#1f77b4;stroke-width:1.5;"/>
    <path clip-path="url(#p2733d070c1)" d="M 89.908734 296.403336 
L 89.908734 289.783164 
" style="fill:none;stroke:#1f77b4;stroke-width:1.5;"/>
    <path clip-path="url(#p2733d070c1)" d="M 94.683066 296.272579 
L 94.683066 288.906704 
" style="fill:none;stroke:#1f77b4;stroke-width:1.5;"/>
    <path clip-path="url(#p2733d070c1)" d="M 99.457397 297.54825 
L 99.457397 294.326555 
" style="fill:none;stroke:#1f77b4;stroke-width:1.5;"/>
    <path clip-path="url(#p2733d070c1)" d="M 104.231729 294.017307 
L 104.231729 283.640661 
" style="fill:none;stroke:#1f77b4;stroke-width:1.5;"/>
    <path clip-path="url(#p2733d070c1)" d="M 109.00606 294.203695 
L 109.00606 284.364109 
" style="fill:none;stroke:#1f77b4;stroke-width:1.5;"/>
    <path clip-path="url(#p2733d070c1)" d="M 113.780392 297.54825 
L 113.780392 294.299019 
" style="fill:none;stroke:#1f77b4;stroke-width:1.5;"/>
    <path clip-path="url(#p2733d070c1)" d="M 118.554723 294.638837 
L 118.554723 286.057663 
" style="fill:none;stroke:#1f77b4;stroke-width:1.5;"/>
    <path clip-path="url(#p2733d070c1)" d="M 123.329055 285.000714 
L 123.329055 269.916274 
" style="fill:none;stroke:#1f77b4;stroke-width:1.5;"/>
    <path clip-path="url(#p2733d070c1)" d="M 128.103387 181.638628 
L 128.103387 148.001321 
" style="fill:none;stroke:#1f77b4;stroke-width:1.5;"/>
    <path clip-path="url(#p2733d070c1)" d="M 132.877718 118.763421 
L 132.877718 81.690793 
" style="fill:none;stroke:#1f77b4;stroke-width:1.5;"/>
    <path clip-path="url(#p2733d070c1)" d="M 137.65205 268.960359 
L 137.65205 248.234501 
" style="fill:none;stroke:#1f77b4;stroke-width:1.5;"/>
    <path clip-path="url(#p2733d070c1)" d="M 142.426381 289.075024 
L 142.426381 275.197692 
" style="fill:none;stroke:#1f77b4;stroke-width:1.5;"/>
    <path clip-path="url(#p2733d070c1)" d="M 147.200713 294.232864 
L 147.200713 284.477429 
" style="fill:none;stroke:#1f77b4;stroke-width:1.5;"/>
    <path clip-path="url(#p2733d070c1)" d="M 151.975044 293.808917 
L 151.975044 282.833214 
" style="fill:none;stroke:#1f77b4;stroke-width:1.5;"/>
    <path clip-path="url(#p2733d070c1)" d="M 156.749376 289.719111 
L 156.749376 276.865389 
" style="fill:none;stroke:#1f77b4;stroke-width:1.5;"/>
    <path clip-path="url(#p2733d070c1)" d="M 161.523707 297.54825 
L 161.523707 293.857376 
" style="fill:none;stroke:#1f77b4;stroke-width:1.5;"/>
    <path clip-path="url(#p2733d070c1)" d="M 166.298039 293.984203 
L 166.298039 283.512297 
" style="fill:none;stroke:#1f77b4;stroke-width:1.5;"/>
    <path clip-path="url(#p2733d070c1)" d="M 171.07237 297.54825 
L 171.07237 294.271009 
" style="fill:none;stroke:#1f77b4;stroke-width:1.5;"/>
    <path clip-path="url(#p2733d070c1)" d="M 175.846702 293.808917 
L 175.846702 282.833214 
" style="fill:none;stroke:#1f77b4;stroke-width:1.5;"/>
    <path clip-path="url(#p2733d070c1)" d="M 180.621034 294.317394 
L 180.621034 284.805997 
" style="fill:none;stroke:#1f77b4;stroke-width:1.5;"/>
    <path clip-path="url(#p2733d070c1)" d="M 185.395365 297.54825 
L 185.395365 294.213513 
" style="fill:none;stroke:#1f77b4;stroke-width:1.5;"/>
    <path clip-path="url(#p2733d070c1)" d="M 190.169697 291.193064 
L 190.169697 278.067319 
" style="fill:none;stroke:#1f77b4;stroke-width:1.5;"/>
    <path clip-path="url(#p2733d070c1)" d="M 194.944028 297.54825 
L 194.944028 294.184002 
" style="fill:none;stroke:#1f77b4;stroke-width:1.5;"/>
    <path clip-path="url(#p2733d070c1)" d="M 199.71836 297.54825 
L 199.71836 293.995353 
" style="fill:none;stroke:#1f77b4;stroke-width:1.5;"/>
    <path clip-path="url(#p2733d070c1)" d="M 204.492691 292.011166 
L 204.492691 280.53347 
" style="fill:none;stroke:#1f77b4;stroke-width:1.5;"/>
    <path clip-path="url(#p2733d070c1)" d="M 209.267023 237.40092 
L 209.267023 207.824811 
" style="fill:none;stroke:#1f77b4;stroke-width:1.5;"/>
    <path clip-path="url(#p2733d070c1)" d="M 214.041354 179.545876 
L 214.041354 144.007767 
" style="fill:none;stroke:#1f77b4;stroke-width:1.5;"/>
    <path clip-path="url(#p2733d070c1)" d="M 218.815686 250.709687 
L 218.815686 224.516543 
" style="fill:none;stroke:#1f77b4;stroke-width:1.5;"/>
    <path clip-path="url(#p2733d070c1)" d="M 223.590018 279.10542 
L 223.590018 261.222266 
" style="fill:none;stroke:#1f77b4;stroke-width:1.5;"/>
    <path clip-path="url(#p2733d070c1)" d="M 228.364349 293.845341 
L 228.364349 282.974236 
" style="fill:none;stroke:#1f77b4;stroke-width:1.5;"/>
    <path clip-path="url(#p2733d070c1)" d="M 233.138681 294.232864 
L 233.138681 284.477429 
" style="fill:none;stroke:#1f77b4;stroke-width:1.5;"/>
    <path clip-path="url(#p2733d070c1)" d="M 237.913012 289.515579 
L 237.913012 276.337844 
" style="fill:none;stroke:#1f77b4;stroke-width:1.5;"/>
    <path clip-path="url(#p2733d070c1)" d="M 242.687344 296.18899 
L 242.687344 288.34751 
" style="fill:none;stroke:#1f77b4;stroke-width:1.5;"/>
    <path clip-path="url(#p2733d070c1)" d="M 247.461675 297.54825 
L 247.461675 294.09225 
" style="fill:none;stroke:#1f77b4;stroke-width:1.5;"/>
    <path clip-path="url(#p2733d070c1)" d="M 252.236007 292.011166 
L 252.236007 280.53347 
" style="fill:none;stroke:#1f77b4;stroke-width:1.5;"/>
    <path clip-path="url(#p2733d070c1)" d="M 257.010338 294.081703 
L 257.010338 283.890473 
" style="fill:none;stroke:#1f77b4;stroke-width:1.5;"/>
    <path clip-path="url(#p2733d070c1)" d="M 261.78467 296.163057 
L 261.78467 288.174198 
" style="fill:none;stroke:#1f77b4;stroke-width:1.5;"/>
    <path clip-path="url(#p2733d070c1)" d="M 266.559002 294.017307 
L 266.559002 283.640661 
" style="fill:none;stroke:#1f77b4;stroke-width:1.5;"/>
    <path clip-path="url(#p2733d070c1)" d="M 271.333333 291.657273 
L 271.333333 279.465173 
" style="fill:none;stroke:#1f77b4;stroke-width:1.5;"/>
    <path clip-path="url(#p2733d070c1)" d="M 276.107665 285.385446 
L 276.107665 268.713407 
" style="fill:none;stroke:#1f77b4;stroke-width:1.5;"/>
    <path clip-path="url(#p2733d070c1)" d="M 280.881996 294.113028 
L 280.881996 284.012044 
" style="fill:none;stroke:#1f77b4;stroke-width:1.5;"/>
    <path clip-path="url(#p2733d070c1)" d="M 285.656328 293.916099 
L 285.656328 283.248326 
" style="fill:none;stroke:#1f77b4;stroke-width:1.5;"/>
    <path clip-path="url(#p2733d070c1)" d="M 290.430659 277.553934 
L 290.430659 258.251557 
" style="fill:none;stroke:#1f77b4;stroke-width:1.5;"/>
    <path clip-path="url(#p2733d070c1)" d="M 295.204991 227.32073 
L 295.204991 197.704191 
" style="fill:none;stroke:#1f77b4;stroke-width:1.5;"/>
    <path clip-path="url(#p2733d070c1)" d="M 299.979322 266.06588 
L 299.979322 243.408998 
" style="fill:none;stroke:#1f77b4;stroke-width:1.5;"/>
    <path clip-path="url(#p2733d070c1)" d="M 304.753654 289.227149 
L 304.753654 275.591121 
" style="fill:none;stroke:#1f77b4;stroke-width:1.5;"/>
    <path clip-path="url(#p2733d070c1)" d="M 309.527985 293.733878 
L 309.527985 282.54282 
" style="fill:none;stroke:#1f77b4;stroke-width:1.5;"/>
    <path clip-path="url(#p2733d070c1)" d="M 314.302317 291.657273 
L 314.302317 279.465173 
" style="fill:none;stroke:#1f77b4;stroke-width:1.5;"/>
    <path clip-path="url(#p2733d070c1)" d="M 319.076649 294.017307 
L 319.076649 283.640661 
" style="fill:none;stroke:#1f77b4;stroke-width:1.5;"/>
    <path clip-path="url(#p2733d070c1)" d="M 323.85098 293.808917 
L 323.85098 282.833214 
" style="fill:none;stroke:#1f77b4;stroke-width:1.5;"/>
    <path clip-path="url(#p2733d070c1)" d="M 328.625312 296.394237 
L 328.625312 289.722106 
" style="fill:none;stroke:#1f77b4;stroke-width:1.5;"/>
    <path clip-path="url(#p2733d070c1)" d="M 333.399643 297.54825 
L 333.399643 293.58825 
" style="fill:none;stroke:#1f77b4;stroke-width:1.5;"/>
    <path clip-path="url(#p2733d070c1)" d="M 338.173975 294.397721 
L 338.173975 285.118452 
" style="fill:none;stroke:#1f77b4;stroke-width:1.5;"/>
    <path clip-path="url(#p2733d070c1)" d="M 342.948306 293.881061 
L 342.948306 283.112582 
" style="fill:none;stroke:#1f77b4;stroke-width:1.5;"/>
    <path clip-path="url(#p2733d070c1)" d="M 347.722638 289.515579 
L 347.722638 276.337844 
" style="fill:none;stroke:#1f77b4;stroke-width:1.5;"/>
    <path clip-path="url(#p2733d070c1)" d="M 352.496969 288.996856 
L 352.496969 274.995644 
" style="fill:none;stroke:#1f77b4;stroke-width:1.5;"/>
    <path clip-path="url(#p2733d070c1)" d="M 357.271301 294.47415 
L 357.271301 285.41595 
" style="fill:none;stroke:#1f77b4;stroke-width:1.5;"/>
    <path clip-path="url(#p2733d070c1)" d="M 362.045633 296.108105 
L 362.045633 287.807219 
" style="fill:none;stroke:#1f77b4;stroke-width:1.5;"/>
    <path clip-path="url(#p2733d070c1)" d="M 366.819964 291.433967 
L 366.819964 278.792253 
" style="fill:none;stroke:#1f77b4;stroke-width:1.5;"/>
    <path clip-path="url(#p2733d070c1)" d="M 371.594296 279.263069 
L 371.594296 261.524859 
" style="fill:none;stroke:#1f77b4;stroke-width:1.5;"/>
    <path clip-path="url(#p2733d070c1)" d="M 376.368627 280.4828 
L 376.368627 262.298103 
" style="fill:none;stroke:#1f77b4;stroke-width:1.5;"/>
    <path clip-path="url(#p2733d070c1)" d="M 381.142959 282.33033 
L 381.142959 266.025187 
" style="fill:none;stroke:#1f77b4;stroke-width:1.5;"/>
    <path clip-path="url(#p2733d070c1)" d="M 385.91729 296.108105 
L 385.91729 287.807219 
" style="fill:none;stroke:#1f77b4;stroke-width:1.5;"/>
    <path clip-path="url(#p2733d070c1)" d="M 390.691622 290.863857 
L 390.691622 277.078357 
" style="fill:none;stroke:#1f77b4;stroke-width:1.5;"/>
    <path clip-path="url(#p2733d070c1)" d="M 395.465953 297.54825 
L 395.465953 293.995353 
" style="fill:none;stroke:#1f77b4;stroke-width:1.5;"/>
    <path clip-path="url(#p2733d070c1)" d="M 400.240285 290.863857 
L 400.240285 277.078357 
" style="fill:none;stroke:#1f77b4;stroke-width:1.5;"/>
    <path clip-path="url(#p2733d070c1)" d="M 405.014616 296.249764 
L 405.014616 288.753992 
" style="fill:none;stroke:#1f77b4;stroke-width:1.5;"/>
   </g>
   <g id="LineCollection_2">
    <path clip-path="url(#p2733d070c1)" d="M 80.360071 281.80594 
L 80.360071 264.965137 
" style="fill:none;stroke:#ff7f0e;stroke-width:1.5;"/>
    <path clip-path="url(#p2733d070c1)" d="M 85.134403 297.54825 
L 85.134403 294.060544 
" style="fill:none;stroke:#ff7f0e;stroke-width:1.5;"/>
    <path clip-path="url(#p2733d070c1)" d="M 89.908734 294.449089 
L 89.908734 285.318379 
" style="fill:none;stroke:#ff7f0e;stroke-width:1.5;"/>
    <path clip-path="url(#p2733d070c1)" d="M 94.683066 296.315885 
L 94.683066 289.196749 
" style="fill:none;stroke:#ff7f0e;stroke-width:1.5;"/>
    <path clip-path="url(#p2733d070c1)" d="M 99.457397 296.176146 
L 99.457397 288.261662 
" style="fill:none;stroke:#ff7f0e;stroke-width:1.5;"/>
    <path clip-path="url(#p2733d070c1)" d="M 104.231729 292.1046 
L 104.231729 280.8159 
" style="fill:none;stroke:#ff7f0e;stroke-width:1.5;"/>
    <path clip-path="url(#p2733d070c1)" d="M 109.00606 297.54825 
L 109.00606 294.38025 
" style="fill:none;stroke:#ff7f0e;stroke-width:1.5;"/>
    <path clip-path="url(#p2733d070c1)" d="M 113.780392 294.203695 
L 113.780392 284.364109 
" style="fill:none;stroke:#ff7f0e;stroke-width:1.5;"/>
    <path clip-path="url(#p2733d070c1)" d="M 118.554723 285.303842 
L 118.554723 270.569801 
" style="fill:none;stroke:#ff7f0e;stroke-width:1.5;"/>
    <path clip-path="url(#p2733d070c1)" d="M 123.329055 203.694217 
L 123.329055 169.32862 
" style="fill:none;stroke:#ff7f0e;stroke-width:1.5;"/>
    <path clip-path="url(#p2733d070c1)" d="M 128.103387 86.365758 
L 128.103387 50.407004 
" style="fill:none;stroke:#ff7f0e;stroke-width:1.5;"/>
    <path clip-path="url(#p2733d070c1)" d="M 132.877718 94.783209 
L 132.877718 58.011752 
" style="fill:none;stroke:#ff7f0e;stroke-width:1.5;"/>
    <path clip-path="url(#p2733d070c1)" d="M 137.65205 168.660568 
L 137.65205 131.998285 
" style="fill:none;stroke:#ff7f0e;stroke-width:1.5;"/>
    <path clip-path="url(#p2733d070c1)" d="M 142.426381 268.474364 
L 142.426381 247.422136 
" style="fill:none;stroke:#ff7f0e;stroke-width:1.5;"/>
    <path clip-path="url(#p2733d070c1)" d="M 147.200713 284.113804 
L 147.200713 268.008087 
" style="fill:none;stroke:#ff7f0e;stroke-width:1.5;"/>
    <path clip-path="url(#p2733d070c1)" d="M 151.975044 297.54825 
L 151.975044 294.242511 
" style="fill:none;stroke:#ff7f0e;stroke-width:1.5;"/>
    <path clip-path="url(#p2733d070c1)" d="M 156.749376 294.049801 
L 156.749376 283.766699 
" style="fill:none;stroke:#ff7f0e;stroke-width:1.5;"/>
    <path clip-path="url(#p2733d070c1)" d="M 161.523707 297.54825 
L 161.523707 294.623942 
" style="fill:none;stroke:#ff7f0e;stroke-width:1.5;"/>
    <path clip-path="url(#p2733d070c1)" d="M 166.298039 294.232864 
L 166.298039 284.477429 
" style="fill:none;stroke:#ff7f0e;stroke-width:1.5;"/>
    <path clip-path="url(#p2733d070c1)" d="M 171.07237 289.445362 
L 171.07237 276.155965 
" style="fill:none;stroke:#ff7f0e;stroke-width:1.5;"/>
    <path clip-path="url(#p2733d070c1)" d="M 175.846702 289.584589 
L 175.846702 276.516657 
" style="fill:none;stroke:#ff7f0e;stroke-width:1.5;"/>
    <path clip-path="url(#p2733d070c1)" d="M 180.621034 291.065351 
L 180.621034 277.683426 
" style="fill:none;stroke:#ff7f0e;stroke-width:1.5;"/>
    <path clip-path="url(#p2733d070c1)" d="M 185.395365 296.163057 
L 185.395365 288.174198 
" style="fill:none;stroke:#ff7f0e;stroke-width:1.5;"/>
    <path clip-path="url(#p2733d070c1)" d="M 190.169697 289.515579 
L 190.169697 276.337844 
" style="fill:none;stroke:#ff7f0e;stroke-width:1.5;"/>
    <path clip-path="url(#p2733d070c1)" d="M 194.944028 287.058978 
L 194.944028 272.598878 
" style="fill:none;stroke:#ff7f0e;stroke-width:1.5;"/>
    <path clip-path="url(#p2733d070c1)" d="M 199.71836 266.353022 
L 199.71836 243.886335 
" style="fill:none;stroke:#ff7f0e;stroke-width:1.5;"/>
    <path clip-path="url(#p2733d070c1)" d="M 204.492691 220.30733 
L 204.492691 186.710012 
" style="fill:none;stroke:#ff7f0e;stroke-width:1.5;"/>
    <path clip-path="url(#p2733d070c1)" d="M 209.267023 198.345558 
L 209.267023 166.055557 
" style="fill:none;stroke:#ff7f0e;stroke-width:1.5;"/>
    <path clip-path="url(#p2733d070c1)" d="M 214.041354 189.642802 
L 214.041354 157.250062 
" style="fill:none;stroke:#ff7f0e;stroke-width:1.5;"/>
    <path clip-path="url(#p2733d070c1)" d="M 218.815686 230.441255 
L 218.815686 201.25314 
" style="fill:none;stroke:#ff7f0e;stroke-width:1.5;"/>
    <path clip-path="url(#p2733d070c1)" d="M 223.590018 256.112152 
L 223.590018 231.759733 
" style="fill:none;stroke:#ff7f0e;stroke-width:1.5;"/>
    <path clip-path="url(#p2733d070c1)" d="M 228.364349 275.143204 
L 228.364349 256.593296 
" style="fill:none;stroke:#ff7f0e;stroke-width:1.5;"/>
    <path clip-path="url(#p2733d070c1)" d="M 233.138681 286.685311 
L 233.138681 271.729084 
" style="fill:none;stroke:#ff7f0e;stroke-width:1.5;"/>
    <path clip-path="url(#p2733d070c1)" d="M 237.913012 294.261528 
L 237.913012 284.588819 
" style="fill:none;stroke:#ff7f0e;stroke-width:1.5;"/>
    <path clip-path="url(#p2733d070c1)" d="M 242.687344 294.143791 
L 242.687344 284.13147 
" style="fill:none;stroke:#ff7f0e;stroke-width:1.5;"/>
    <path clip-path="url(#p2733d070c1)" d="M 247.461675 294.143791 
L 247.461675 284.13147 
" style="fill:none;stroke:#ff7f0e;stroke-width:1.5;"/>
    <path clip-path="url(#p2733d070c1)" d="M 252.236007 293.21174 
L 252.236007 280.527457 
" style="fill:none;stroke:#ff7f0e;stroke-width:1.5;"/>
    <path clip-path="url(#p2733d070c1)" d="M 257.010338 297.54825 
L 257.010338 294.123385 
" style="fill:none;stroke:#ff7f0e;stroke-width:1.5;"/>
    <path clip-path="url(#p2733d070c1)" d="M 261.78467 291.602989 
L 261.78467 279.301511 
" style="fill:none;stroke:#ff7f0e;stroke-width:1.5;"/>
    <path clip-path="url(#p2733d070c1)" d="M 266.559002 294.113028 
L 266.559002 284.012044 
" style="fill:none;stroke:#ff7f0e;stroke-width:1.5;"/>
    <path clip-path="url(#p2733d070c1)" d="M 271.333333 296.163057 
L 271.333333 288.174198 
" style="fill:none;stroke:#ff7f0e;stroke-width:1.5;"/>
    <path clip-path="url(#p2733d070c1)" d="M 276.107665 294.174009 
L 276.107665 284.248807 
" style="fill:none;stroke:#ff7f0e;stroke-width:1.5;"/>
    <path clip-path="url(#p2733d070c1)" d="M 280.881996 285.851976 
L 280.881996 269.793958 
" style="fill:none;stroke:#ff7f0e;stroke-width:1.5;"/>
    <path clip-path="url(#p2733d070c1)" d="M 285.656328 274.145487 
L 285.656328 253.445966 
" style="fill:none;stroke:#ff7f0e;stroke-width:1.5;"/>
    <path clip-path="url(#p2733d070c1)" d="M 290.430659 241.262194 
L 290.430659 214.117383 
" style="fill:none;stroke:#ff7f0e;stroke-width:1.5;"/>
    <path clip-path="url(#p2733d070c1)" d="M 295.204991 212.273771 
L 295.204991 181.561552 
" style="fill:none;stroke:#ff7f0e;stroke-width:1.5;"/>
    <path clip-path="url(#p2733d070c1)" d="M 299.979322 233.551742 
L 299.979322 204.812126 
" style="fill:none;stroke:#ff7f0e;stroke-width:1.5;"/>
    <path clip-path="url(#p2733d070c1)" d="M 304.753654 275.492267 
L 304.753654 254.324233 
" style="fill:none;stroke:#ff7f0e;stroke-width:1.5;"/>
    <path clip-path="url(#p2733d070c1)" d="M 309.527985 293.771771 
L 309.527985 282.689435 
" style="fill:none;stroke:#ff7f0e;stroke-width:1.5;"/>
    <path clip-path="url(#p2733d070c1)" d="M 314.302317 296.283688 
L 314.302317 288.981088 
" style="fill:none;stroke:#ff7f0e;stroke-width:1.5;"/>
    <path clip-path="url(#p2733d070c1)" d="M 319.076649 291.710573 
L 319.076649 279.625927 
" style="fill:none;stroke:#ff7f0e;stroke-width:1.5;"/>
    <path clip-path="url(#p2733d070c1)" d="M 323.85098 297.54825 
L 323.85098 294.153964 
" style="fill:none;stroke:#ff7f0e;stroke-width:1.5;"/>
    <path clip-path="url(#p2733d070c1)" d="M 328.625312 296.163057 
L 328.625312 288.174198 
" style="fill:none;stroke:#ff7f0e;stroke-width:1.5;"/>
    <path clip-path="url(#p2733d070c1)" d="M 333.399643 294.344621 
L 333.399643 284.911879 
" style="fill:none;stroke:#ff7f0e;stroke-width:1.5;"/>
    <path clip-path="url(#p2733d070c1)" d="M 338.173975 294.017307 
L 338.173975 283.640661 
" style="fill:none;stroke:#ff7f0e;stroke-width:1.5;"/>
    <path clip-path="url(#p2733d070c1)" d="M 342.948306 291.255052 
L 342.948306 278.253755 
" style="fill:none;stroke:#ff7f0e;stroke-width:1.5;"/>
    <path clip-path="url(#p2733d070c1)" d="M 347.722638 296.366051 
L 347.722638 289.53303 
" style="fill:none;stroke:#ff7f0e;stroke-width:1.5;"/>
    <path clip-path="url(#p2733d070c1)" d="M 352.496969 291.255052 
L 352.496969 278.253755 
" style="fill:none;stroke:#ff7f0e;stroke-width:1.5;"/>
    <path clip-path="url(#p2733d070c1)" d="M 357.271301 296.272579 
L 357.271301 288.906704 
" style="fill:none;stroke:#ff7f0e;stroke-width:1.5;"/>
    <path clip-path="url(#p2733d070c1)" d="M 362.045633 287.40779 
L 362.045633 273.411988 
" style="fill:none;stroke:#ff7f0e;stroke-width:1.5;"/>
    <path clip-path="url(#p2733d070c1)" d="M 366.819964 284.572398 
L 366.819964 268.994018 
" style="fill:none;stroke:#ff7f0e;stroke-width:1.5;"/>
    <path clip-path="url(#p2733d070c1)" d="M 371.594296 269.838209 
L 371.594296 248.559344 
" style="fill:none;stroke:#ff7f0e;stroke-width:1.5;"/>
    <path clip-path="url(#p2733d070c1)" d="M 376.368627 260.324149 
L 376.368627 236.338065 
" style="fill:none;stroke:#ff7f0e;stroke-width:1.5;"/>
    <path clip-path="url(#p2733d070c1)" d="M 381.142959 270.826587 
L 381.142959 248.955196 
" style="fill:none;stroke:#ff7f0e;stroke-width:1.5;"/>
    <path clip-path="url(#p2733d070c1)" d="M 385.91729 288.127791 
L 385.91729 272.754309 
" style="fill:none;stroke:#ff7f0e;stroke-width:1.5;"/>
    <path clip-path="url(#p2733d070c1)" d="M 390.691622 289.652423 
L 390.691622 276.692481 
" style="fill:none;stroke:#ff7f0e;stroke-width:1.5;"/>
    <path clip-path="url(#p2733d070c1)" d="M 395.465953 296.048612 
L 395.465953 287.410337 
" style="fill:none;stroke:#ff7f0e;stroke-width:1.5;"/>
    <path clip-path="url(#p2733d070c1)" d="M 400.240285 288.315455 
L 400.240285 273.237516 
" style="fill:none;stroke:#ff7f0e;stroke-width:1.5;"/>
    <path clip-path="url(#p2733d070c1)" d="M 405.014616 294.523076 
L 405.014616 285.606495 
" style="fill:none;stroke:#ff7f0e;stroke-width:1.5;"/>
   </g>
   <g id="line2d_25">
    <path clip-path="url(#p2733d070c1)" d="M 80.360071 292.410953 
L 85.134403 289.355147 
L 89.908734 293.09325 
L 94.683066 292.589641 
L 99.457397 295.937403 
L 104.231729 288.828984 
L 109.00606 289.283902 
L 113.780392 295.923635 
L 118.554723 290.34825 
L 123.329055 277.458494 
L 128.103387 164.819974 
L 132.877718 100.227107 
L 137.65205 258.59743 
L 142.426381 282.136358 
L 147.200713 289.355147 
L 151.975044 288.321066 
L 156.749376 283.29225 
L 161.523707 295.702813 
L 166.298039 288.74825 
L 171.07237 295.909629 
L 175.846702 288.321066 
L 180.621034 289.561695 
L 185.395365 295.880882 
L 190.169697 284.630192 
L 194.944028 295.866126 
L 199.71836 295.771801 
L 204.492691 286.272318 
L 209.267023 222.612865 
L 214.041354 161.776821 
L 218.815686 237.613115 
L 223.590018 270.163843 
L 228.364349 288.409788 
L 233.138681 289.355147 
L 237.913012 282.926712 
L 242.687344 292.26825 
L 247.461675 295.82025 
L 252.236007 286.272318 
L 257.010338 288.986088 
L 261.78467 292.168627 
L 266.559002 288.828984 
L 271.333333 285.561223 
L 276.107665 277.049426 
L 280.881996 289.062536 
L 285.656328 288.582212 
L 290.430659 267.902745 
L 295.204991 212.512461 
L 299.979322 254.737439 
L 304.753654 282.409135 
L 309.527985 288.138349 
L 314.302317 285.561223 
L 319.076649 288.828984 
L 323.85098 288.321066 
L 328.625312 293.058171 
L 333.399643 295.56825 
L 338.173975 289.758086 
L 342.948306 288.496821 
L 347.722638 282.926712 
L 352.496969 281.99625 
L 357.271301 289.94505 
L 362.045633 291.957662 
L 366.819964 285.11311 
L 371.594296 270.393964 
L 376.368627 271.390452 
L 381.142959 274.177758 
L 385.91729 291.957662 
L 390.691622 283.971107 
L 395.465953 295.771801 
L 400.240285 283.971107 
L 405.014616 292.501878 
" style="fill:none;stroke:#1f77b4;stroke-linecap:square;stroke-width:1.5;"/>
    <defs>
     <path d="M 0 3 
C 0.795609 3 1.55874 2.683901 2.12132 2.12132 
C 2.683901 1.55874 3 0.795609 3 0 
C 3 -0.795609 2.683901 -1.55874 2.12132 -2.12132 
C 1.55874 -2.683901 0.795609 -3 0 -3 
C -0.795609 -3 -1.55874 -2.683901 -2.12132 -2.12132 
C -2.683901 -1.55874 -3 -0.795609 -3 0 
C -3 0.795609 -2.683901 1.55874 -2.12132 2.12132 
C -1.55874 2.683901 -0.795609 3 0 3 
z
" id="mcb2457e3ba" style="stroke:#1f77b4;"/>
    </defs>
    <g clip-path="url(#p2733d070c1)">
     <use style="fill:#1f77b4;stroke:#1f77b4;" x="80.360071" xlink:href="#mcb2457e3ba" y="292.410953"/>
     <use style="fill:#1f77b4;stroke:#1f77b4;" x="85.134403" xlink:href="#mcb2457e3ba" y="289.355147"/>
     <use style="fill:#1f77b4;stroke:#1f77b4;" x="89.908734" xlink:href="#mcb2457e3ba" y="293.09325"/>
     <use style="fill:#1f77b4;stroke:#1f77b4;" x="94.683066" xlink:href="#mcb2457e3ba" y="292.589641"/>
     <use style="fill:#1f77b4;stroke:#1f77b4;" x="99.457397" xlink:href="#mcb2457e3ba" y="295.937403"/>
     <use style="fill:#1f77b4;stroke:#1f77b4;" x="104.231729" xlink:href="#mcb2457e3ba" y="288.828984"/>
     <use style="fill:#1f77b4;stroke:#1f77b4;" x="109.00606" xlink:href="#mcb2457e3ba" y="289.283902"/>
     <use style="fill:#1f77b4;stroke:#1f77b4;" x="113.780392" xlink:href="#mcb2457e3ba" y="295.923635"/>
     <use style="fill:#1f77b4;stroke:#1f77b4;" x="118.554723" xlink:href="#mcb2457e3ba" y="290.34825"/>
     <use style="fill:#1f77b4;stroke:#1f77b4;" x="123.329055" xlink:href="#mcb2457e3ba" y="277.458494"/>
     <use style="fill:#1f77b4;stroke:#1f77b4;" x="128.103387" xlink:href="#mcb2457e3ba" y="164.819974"/>
     <use style="fill:#1f77b4;stroke:#1f77b4;" x="132.877718" xlink:href="#mcb2457e3ba" y="100.227107"/>
     <use style="fill:#1f77b4;stroke:#1f77b4;" x="137.65205" xlink:href="#mcb2457e3ba" y="258.59743"/>
     <use style="fill:#1f77b4;stroke:#1f77b4;" x="142.426381" xlink:href="#mcb2457e3ba" y="282.136358"/>
     <use style="fill:#1f77b4;stroke:#1f77b4;" x="147.200713" xlink:href="#mcb2457e3ba" y="289.355147"/>
     <use style="fill:#1f77b4;stroke:#1f77b4;" x="151.975044" xlink:href="#mcb2457e3ba" y="288.321066"/>
     <use style="fill:#1f77b4;stroke:#1f77b4;" x="156.749376" xlink:href="#mcb2457e3ba" y="283.29225"/>
     <use style="fill:#1f77b4;stroke:#1f77b4;" x="161.523707" xlink:href="#mcb2457e3ba" y="295.702813"/>
     <use style="fill:#1f77b4;stroke:#1f77b4;" x="166.298039" xlink:href="#mcb2457e3ba" y="288.74825"/>
     <use style="fill:#1f77b4;stroke:#1f77b4;" x="171.07237" xlink:href="#mcb2457e3ba" y="295.909629"/>
     <use style="fill:#1f77b4;stroke:#1f77b4;" x="175.846702" xlink:href="#mcb2457e3ba" y="288.321066"/>
     <use style="fill:#1f77b4;stroke:#1f77b4;" x="180.621034" xlink:href="#mcb2457e3ba" y="289.561695"/>
     <use style="fill:#1f77b4;stroke:#1f77b4;" x="185.395365" xlink:href="#mcb2457e3ba" y="295.880882"/>
     <use style="fill:#1f77b4;stroke:#1f77b4;" x="190.169697" xlink:href="#mcb2457e3ba" y="284.630192"/>
     <use style="fill:#1f77b4;stroke:#1f77b4;" x="194.944028" xlink:href="#mcb2457e3ba" y="295.866126"/>
     <use style="fill:#1f77b4;stroke:#1f77b4;" x="199.71836" xlink:href="#mcb2457e3ba" y="295.771801"/>
     <use style="fill:#1f77b4;stroke:#1f77b4;" x="204.492691" xlink:href="#mcb2457e3ba" y="286.272318"/>
     <use style="fill:#1f77b4;stroke:#1f77b4;" x="209.267023" xlink:href="#mcb2457e3ba" y="222.612865"/>
     <use style="fill:#1f77b4;stroke:#1f77b4;" x="214.041354" xlink:href="#mcb2457e3ba" y="161.776821"/>
     <use style="fill:#1f77b4;stroke:#1f77b4;" x="218.815686" xlink:href="#mcb2457e3ba" y="237.613115"/>
     <use style="fill:#1f77b4;stroke:#1f77b4;" x="223.590018" xlink:href="#mcb2457e3ba" y="270.163843"/>
     <use style="fill:#1f77b4;stroke:#1f77b4;" x="228.364349" xlink:href="#mcb2457e3ba" y="288.409788"/>
     <use style="fill:#1f77b4;stroke:#1f77b4;" x="233.138681" xlink:href="#mcb2457e3ba" y="289.355147"/>
     <use style="fill:#1f77b4;stroke:#1f77b4;" x="237.913012" xlink:href="#mcb2457e3ba" y="282.926712"/>
     <use style="fill:#1f77b4;stroke:#1f77b4;" x="242.687344" xlink:href="#mcb2457e3ba" y="292.26825"/>
     <use style="fill:#1f77b4;stroke:#1f77b4;" x="247.461675" xlink:href="#mcb2457e3ba" y="295.82025"/>
     <use style="fill:#1f77b4;stroke:#1f77b4;" x="252.236007" xlink:href="#mcb2457e3ba" y="286.272318"/>
     <use style="fill:#1f77b4;stroke:#1f77b4;" x="257.010338" xlink:href="#mcb2457e3ba" y="288.986088"/>
     <use style="fill:#1f77b4;stroke:#1f77b4;" x="261.78467" xlink:href="#mcb2457e3ba" y="292.168627"/>
     <use style="fill:#1f77b4;stroke:#1f77b4;" x="266.559002" xlink:href="#mcb2457e3ba" y="288.828984"/>
     <use style="fill:#1f77b4;stroke:#1f77b4;" x="271.333333" xlink:href="#mcb2457e3ba" y="285.561223"/>
     <use style="fill:#1f77b4;stroke:#1f77b4;" x="276.107665" xlink:href="#mcb2457e3ba" y="277.049426"/>
     <use style="fill:#1f77b4;stroke:#1f77b4;" x="280.881996" xlink:href="#mcb2457e3ba" y="289.062536"/>
     <use style="fill:#1f77b4;stroke:#1f77b4;" x="285.656328" xlink:href="#mcb2457e3ba" y="288.582212"/>
     <use style="fill:#1f77b4;stroke:#1f77b4;" x="290.430659" xlink:href="#mcb2457e3ba" y="267.902745"/>
     <use style="fill:#1f77b4;stroke:#1f77b4;" x="295.204991" xlink:href="#mcb2457e3ba" y="212.512461"/>
     <use style="fill:#1f77b4;stroke:#1f77b4;" x="299.979322" xlink:href="#mcb2457e3ba" y="254.737439"/>
     <use style="fill:#1f77b4;stroke:#1f77b4;" x="304.753654" xlink:href="#mcb2457e3ba" y="282.409135"/>
     <use style="fill:#1f77b4;stroke:#1f77b4;" x="309.527985" xlink:href="#mcb2457e3ba" y="288.138349"/>
     <use style="fill:#1f77b4;stroke:#1f77b4;" x="314.302317" xlink:href="#mcb2457e3ba" y="285.561223"/>
     <use style="fill:#1f77b4;stroke:#1f77b4;" x="319.076649" xlink:href="#mcb2457e3ba" y="288.828984"/>
     <use style="fill:#1f77b4;stroke:#1f77b4;" x="323.85098" xlink:href="#mcb2457e3ba" y="288.321066"/>
     <use style="fill:#1f77b4;stroke:#1f77b4;" x="328.625312" xlink:href="#mcb2457e3ba" y="293.058171"/>
     <use style="fill:#1f77b4;stroke:#1f77b4;" x="333.399643" xlink:href="#mcb2457e3ba" y="295.56825"/>
     <use style="fill:#1f77b4;stroke:#1f77b4;" x="338.173975" xlink:href="#mcb2457e3ba" y="289.758086"/>
     <use style="fill:#1f77b4;stroke:#1f77b4;" x="342.948306" xlink:href="#mcb2457e3ba" y="288.496821"/>
     <use style="fill:#1f77b4;stroke:#1f77b4;" x="347.722638" xlink:href="#mcb2457e3ba" y="282.926712"/>
     <use style="fill:#1f77b4;stroke:#1f77b4;" x="352.496969" xlink:href="#mcb2457e3ba" y="281.99625"/>
     <use style="fill:#1f77b4;stroke:#1f77b4;" x="357.271301" xlink:href="#mcb2457e3ba" y="289.94505"/>
     <use style="fill:#1f77b4;stroke:#1f77b4;" x="362.045633" xlink:href="#mcb2457e3ba" y="291.957662"/>
     <use style="fill:#1f77b4;stroke:#1f77b4;" x="366.819964" xlink:href="#mcb2457e3ba" y="285.11311"/>
     <use style="fill:#1f77b4;stroke:#1f77b4;" x="371.594296" xlink:href="#mcb2457e3ba" y="270.393964"/>
     <use style="fill:#1f77b4;stroke:#1f77b4;" x="376.368627" xlink:href="#mcb2457e3ba" y="271.390452"/>
     <use style="fill:#1f77b4;stroke:#1f77b4;" x="381.142959" xlink:href="#mcb2457e3ba" y="274.177758"/>
     <use style="fill:#1f77b4;stroke:#1f77b4;" x="385.91729" xlink:href="#mcb2457e3ba" y="291.957662"/>
     <use style="fill:#1f77b4;stroke:#1f77b4;" x="390.691622" xlink:href="#mcb2457e3ba" y="283.971107"/>
     <use style="fill:#1f77b4;stroke:#1f77b4;" x="395.465953" xlink:href="#mcb2457e3ba" y="295.771801"/>
     <use style="fill:#1f77b4;stroke:#1f77b4;" x="400.240285" xlink:href="#mcb2457e3ba" y="283.971107"/>
     <use style="fill:#1f77b4;stroke:#1f77b4;" x="405.014616" xlink:href="#mcb2457e3ba" y="292.501878"/>
    </g>
   </g>
   <g id="line2d_26">
    <path clip-path="url(#p2733d070c1)" d="M 80.360071 273.385538 
L 85.134403 295.804397 
L 89.908734 289.883734 
L 94.683066 292.756317 
L 99.457397 292.218904 
L 104.231729 286.46025 
L 109.00606 295.96425 
L 113.780392 289.283902 
L 118.554723 277.936821 
L 123.329055 186.511418 
L 128.103387 68.386381 
L 132.877718 76.397481 
L 137.65205 150.329426 
L 142.426381 257.94825 
L 147.200713 276.060946 
L 151.975044 295.89538 
L 156.749376 288.90825 
L 161.523707 296.086096 
L 166.298039 289.355147 
L 171.07237 282.800664 
L 175.846702 283.050623 
L 180.621034 284.374389 
L 185.395365 292.168627 
L 190.169697 282.926712 
L 194.944028 279.828928 
L 199.71836 255.119679 
L 204.492691 203.508671 
L 209.267023 182.200558 
L 214.041354 173.446432 
L 218.815686 215.847197 
L 223.590018 243.935942 
L 228.364349 265.86825 
L 233.138681 279.207197 
L 237.913012 289.425173 
L 242.687344 289.137631 
L 247.461675 289.137631 
L 252.236007 286.869598 
L 257.010338 295.835818 
L 261.78467 285.45225 
L 266.559002 289.062536 
L 271.333333 292.168627 
L 276.107665 289.211408 
L 280.881996 277.822967 
L 285.656328 263.795727 
L 290.430659 227.689788 
L 295.204991 196.917662 
L 299.979322 219.181934 
L 304.753654 264.90825 
L 309.527985 288.230603 
L 314.302317 292.632388 
L 319.076649 285.66825 
L 323.85098 295.851107 
L 328.625312 292.168627 
L 333.399643 289.62825 
L 338.173975 288.828984 
L 342.948306 284.754404 
L 347.722638 292.94954 
L 352.496969 284.754404 
L 357.271301 292.589641 
L 362.045633 280.409889 
L 366.819964 276.783208 
L 371.594296 259.198776 
L 376.368627 248.331107 
L 381.142959 259.890892 
L 385.91729 280.44105 
L 390.691622 283.172452 
L 395.465953 291.729474 
L 400.240285 280.776485 
L 405.014616 290.064785 
" style="fill:none;stroke:#ff7f0e;stroke-linecap:square;stroke-width:1.5;"/>
    <defs>
     <path d="M 0 3 
C 0.795609 3 1.55874 2.683901 2.12132 2.12132 
C 2.683901 1.55874 3 0.795609 3 0 
C 3 -0.795609 2.683901 -1.55874 2.12132 -2.12132 
C 1.55874 -2.683901 0.795609 -3 0 -3 
C -0.795609 -3 -1.55874 -2.683901 -2.12132 -2.12132 
C -2.683901 -1.55874 -3 -0.795609 -3 0 
C -3 0.795609 -2.683901 1.55874 -2.12132 2.12132 
C -1.55874 2.683901 -0.795609 3 0 3 
z
" id="mbbb2a9d153" style="stroke:#ff7f0e;"/>
    </defs>
    <g clip-path="url(#p2733d070c1)">
     <use style="fill:#ff7f0e;stroke:#ff7f0e;" x="80.360071" xlink:href="#mbbb2a9d153" y="273.385538"/>
     <use style="fill:#ff7f0e;stroke:#ff7f0e;" x="85.134403" xlink:href="#mbbb2a9d153" y="295.804397"/>
     <use style="fill:#ff7f0e;stroke:#ff7f0e;" x="89.908734" xlink:href="#mbbb2a9d153" y="289.883734"/>
     <use style="fill:#ff7f0e;stroke:#ff7f0e;" x="94.683066" xlink:href="#mbbb2a9d153" y="292.756317"/>
     <use style="fill:#ff7f0e;stroke:#ff7f0e;" x="99.457397" xlink:href="#mbbb2a9d153" y="292.218904"/>
     <use style="fill:#ff7f0e;stroke:#ff7f0e;" x="104.231729" xlink:href="#mbbb2a9d153" y="286.46025"/>
     <use style="fill:#ff7f0e;stroke:#ff7f0e;" x="109.00606" xlink:href="#mbbb2a9d153" y="295.96425"/>
     <use style="fill:#ff7f0e;stroke:#ff7f0e;" x="113.780392" xlink:href="#mbbb2a9d153" y="289.283902"/>
     <use style="fill:#ff7f0e;stroke:#ff7f0e;" x="118.554723" xlink:href="#mbbb2a9d153" y="277.936821"/>
     <use style="fill:#ff7f0e;stroke:#ff7f0e;" x="123.329055" xlink:href="#mbbb2a9d153" y="186.511418"/>
     <use style="fill:#ff7f0e;stroke:#ff7f0e;" x="128.103387" xlink:href="#mbbb2a9d153" y="68.386381"/>
     <use style="fill:#ff7f0e;stroke:#ff7f0e;" x="132.877718" xlink:href="#mbbb2a9d153" y="76.397481"/>
     <use style="fill:#ff7f0e;stroke:#ff7f0e;" x="137.65205" xlink:href="#mbbb2a9d153" y="150.329426"/>
     <use style="fill:#ff7f0e;stroke:#ff7f0e;" x="142.426381" xlink:href="#mbbb2a9d153" y="257.94825"/>
     <use style="fill:#ff7f0e;stroke:#ff7f0e;" x="147.200713" xlink:href="#mbbb2a9d153" y="276.060946"/>
     <use style="fill:#ff7f0e;stroke:#ff7f0e;" x="151.975044" xlink:href="#mbbb2a9d153" y="295.89538"/>
     <use style="fill:#ff7f0e;stroke:#ff7f0e;" x="156.749376" xlink:href="#mbbb2a9d153" y="288.90825"/>
     <use style="fill:#ff7f0e;stroke:#ff7f0e;" x="161.523707" xlink:href="#mbbb2a9d153" y="296.086096"/>
     <use style="fill:#ff7f0e;stroke:#ff7f0e;" x="166.298039" xlink:href="#mbbb2a9d153" y="289.355147"/>
     <use style="fill:#ff7f0e;stroke:#ff7f0e;" x="171.07237" xlink:href="#mbbb2a9d153" y="282.800664"/>
     <use style="fill:#ff7f0e;stroke:#ff7f0e;" x="175.846702" xlink:href="#mbbb2a9d153" y="283.050623"/>
     <use style="fill:#ff7f0e;stroke:#ff7f0e;" x="180.621034" xlink:href="#mbbb2a9d153" y="284.374389"/>
     <use style="fill:#ff7f0e;stroke:#ff7f0e;" x="185.395365" xlink:href="#mbbb2a9d153" y="292.168627"/>
     <use style="fill:#ff7f0e;stroke:#ff7f0e;" x="190.169697" xlink:href="#mbbb2a9d153" y="282.926712"/>
     <use style="fill:#ff7f0e;stroke:#ff7f0e;" x="194.944028" xlink:href="#mbbb2a9d153" y="279.828928"/>
     <use style="fill:#ff7f0e;stroke:#ff7f0e;" x="199.71836" xlink:href="#mbbb2a9d153" y="255.119679"/>
     <use style="fill:#ff7f0e;stroke:#ff7f0e;" x="204.492691" xlink:href="#mbbb2a9d153" y="203.508671"/>
     <use style="fill:#ff7f0e;stroke:#ff7f0e;" x="209.267023" xlink:href="#mbbb2a9d153" y="182.200558"/>
     <use style="fill:#ff7f0e;stroke:#ff7f0e;" x="214.041354" xlink:href="#mbbb2a9d153" y="173.446432"/>
     <use style="fill:#ff7f0e;stroke:#ff7f0e;" x="218.815686" xlink:href="#mbbb2a9d153" y="215.847197"/>
     <use style="fill:#ff7f0e;stroke:#ff7f0e;" x="223.590018" xlink:href="#mbbb2a9d153" y="243.935942"/>
     <use style="fill:#ff7f0e;stroke:#ff7f0e;" x="228.364349" xlink:href="#mbbb2a9d153" y="265.86825"/>
     <use style="fill:#ff7f0e;stroke:#ff7f0e;" x="233.138681" xlink:href="#mbbb2a9d153" y="279.207197"/>
     <use style="fill:#ff7f0e;stroke:#ff7f0e;" x="237.913012" xlink:href="#mbbb2a9d153" y="289.425173"/>
     <use style="fill:#ff7f0e;stroke:#ff7f0e;" x="242.687344" xlink:href="#mbbb2a9d153" y="289.137631"/>
     <use style="fill:#ff7f0e;stroke:#ff7f0e;" x="247.461675" xlink:href="#mbbb2a9d153" y="289.137631"/>
     <use style="fill:#ff7f0e;stroke:#ff7f0e;" x="252.236007" xlink:href="#mbbb2a9d153" y="286.869598"/>
     <use style="fill:#ff7f0e;stroke:#ff7f0e;" x="257.010338" xlink:href="#mbbb2a9d153" y="295.835818"/>
     <use style="fill:#ff7f0e;stroke:#ff7f0e;" x="261.78467" xlink:href="#mbbb2a9d153" y="285.45225"/>
     <use style="fill:#ff7f0e;stroke:#ff7f0e;" x="266.559002" xlink:href="#mbbb2a9d153" y="289.062536"/>
     <use style="fill:#ff7f0e;stroke:#ff7f0e;" x="271.333333" xlink:href="#mbbb2a9d153" y="292.168627"/>
     <use style="fill:#ff7f0e;stroke:#ff7f0e;" x="276.107665" xlink:href="#mbbb2a9d153" y="289.211408"/>
     <use style="fill:#ff7f0e;stroke:#ff7f0e;" x="280.881996" xlink:href="#mbbb2a9d153" y="277.822967"/>
     <use style="fill:#ff7f0e;stroke:#ff7f0e;" x="285.656328" xlink:href="#mbbb2a9d153" y="263.795727"/>
     <use style="fill:#ff7f0e;stroke:#ff7f0e;" x="290.430659" xlink:href="#mbbb2a9d153" y="227.689788"/>
     <use style="fill:#ff7f0e;stroke:#ff7f0e;" x="295.204991" xlink:href="#mbbb2a9d153" y="196.917662"/>
     <use style="fill:#ff7f0e;stroke:#ff7f0e;" x="299.979322" xlink:href="#mbbb2a9d153" y="219.181934"/>
     <use style="fill:#ff7f0e;stroke:#ff7f0e;" x="304.753654" xlink:href="#mbbb2a9d153" y="264.90825"/>
     <use style="fill:#ff7f0e;stroke:#ff7f0e;" x="309.527985" xlink:href="#mbbb2a9d153" y="288.230603"/>
     <use style="fill:#ff7f0e;stroke:#ff7f0e;" x="314.302317" xlink:href="#mbbb2a9d153" y="292.632388"/>
     <use style="fill:#ff7f0e;stroke:#ff7f0e;" x="319.076649" xlink:href="#mbbb2a9d153" y="285.66825"/>
     <use style="fill:#ff7f0e;stroke:#ff7f0e;" x="323.85098" xlink:href="#mbbb2a9d153" y="295.851107"/>
     <use style="fill:#ff7f0e;stroke:#ff7f0e;" x="328.625312" xlink:href="#mbbb2a9d153" y="292.168627"/>
     <use style="fill:#ff7f0e;stroke:#ff7f0e;" x="333.399643" xlink:href="#mbbb2a9d153" y="289.62825"/>
     <use style="fill:#ff7f0e;stroke:#ff7f0e;" x="338.173975" xlink:href="#mbbb2a9d153" y="288.828984"/>
     <use style="fill:#ff7f0e;stroke:#ff7f0e;" x="342.948306" xlink:href="#mbbb2a9d153" y="284.754404"/>
     <use style="fill:#ff7f0e;stroke:#ff7f0e;" x="347.722638" xlink:href="#mbbb2a9d153" y="292.94954"/>
     <use style="fill:#ff7f0e;stroke:#ff7f0e;" x="352.496969" xlink:href="#mbbb2a9d153" y="284.754404"/>
     <use style="fill:#ff7f0e;stroke:#ff7f0e;" x="357.271301" xlink:href="#mbbb2a9d153" y="292.589641"/>
     <use style="fill:#ff7f0e;stroke:#ff7f0e;" x="362.045633" xlink:href="#mbbb2a9d153" y="280.409889"/>
     <use style="fill:#ff7f0e;stroke:#ff7f0e;" x="366.819964" xlink:href="#mbbb2a9d153" y="276.783208"/>
     <use style="fill:#ff7f0e;stroke:#ff7f0e;" x="371.594296" xlink:href="#mbbb2a9d153" y="259.198776"/>
     <use style="fill:#ff7f0e;stroke:#ff7f0e;" x="376.368627" xlink:href="#mbbb2a9d153" y="248.331107"/>
     <use style="fill:#ff7f0e;stroke:#ff7f0e;" x="381.142959" xlink:href="#mbbb2a9d153" y="259.890892"/>
     <use style="fill:#ff7f0e;stroke:#ff7f0e;" x="385.91729" xlink:href="#mbbb2a9d153" y="280.44105"/>
     <use style="fill:#ff7f0e;stroke:#ff7f0e;" x="390.691622" xlink:href="#mbbb2a9d153" y="283.172452"/>
     <use style="fill:#ff7f0e;stroke:#ff7f0e;" x="395.465953" xlink:href="#mbbb2a9d153" y="291.729474"/>
     <use style="fill:#ff7f0e;stroke:#ff7f0e;" x="400.240285" xlink:href="#mbbb2a9d153" y="280.776485"/>
     <use style="fill:#ff7f0e;stroke:#ff7f0e;" x="405.014616" xlink:href="#mbbb2a9d153" y="290.064785"/>
    </g>
   </g>
   <g id="patch_3">
    <path d="M 64.127344 297.54825 
L 64.127344 31.43625 
" style="fill:none;stroke:#000000;stroke-linecap:square;stroke-linejoin:miter;stroke-width:0.8;"/>
   </g>
   <g id="patch_4">
    <path d="M 421.247344 297.54825 
L 421.247344 31.43625 
" style="fill:none;stroke:#000000;stroke-linecap:square;stroke-linejoin:miter;stroke-width:0.8;"/>
   </g>
   <g id="patch_5">
    <path d="M 64.127344 297.54825 
L 421.247344 297.54825 
" style="fill:none;stroke:#000000;stroke-linecap:square;stroke-linejoin:miter;stroke-width:0.8;"/>
   </g>
   <g id="patch_6">
    <path d="M 64.127344 31.43625 
L 421.247344 31.43625 
" style="fill:none;stroke:#000000;stroke-linecap:square;stroke-linejoin:miter;stroke-width:0.8;"/>
   </g>
   <g id="text_15">
    <!-- Z spectrum -->
    <defs>
     <path d="M 5.609375 72.90625 
L 62.890625 72.90625 
L 62.890625 65.375 
L 16.796875 8.296875 
L 64.015625 8.296875 
L 64.015625 0 
L 4.5 0 
L 4.5 7.515625 
L 50.59375 64.59375 
L 5.609375 64.59375 
z
" id="DejaVuSans-5a"/>
     <path d="M 44.28125 53.078125 
L 44.28125 44.578125 
Q 40.484375 46.53125 36.375 47.5 
Q 32.28125 48.484375 27.875 48.484375 
Q 21.1875 48.484375 17.84375 46.4375 
Q 14.5 44.390625 14.5 40.28125 
Q 14.5 37.15625 16.890625 35.375 
Q 19.28125 33.59375 26.515625 31.984375 
L 29.59375 31.296875 
Q 39.15625 29.25 43.1875 25.515625 
Q 47.21875 21.78125 47.21875 15.09375 
Q 47.21875 7.46875 41.1875 3.015625 
Q 35.15625 -1.421875 24.609375 -1.421875 
Q 20.21875 -1.421875 15.453125 -0.5625 
Q 10.6875 0.296875 5.421875 2 
L 5.421875 11.28125 
Q 10.40625 8.6875 15.234375 7.390625 
Q 20.0625 6.109375 24.8125 6.109375 
Q 31.15625 6.109375 34.5625 8.28125 
Q 37.984375 10.453125 37.984375 14.40625 
Q 37.984375 18.0625 35.515625 20.015625 
Q 33.0625 21.96875 24.703125 23.78125 
L 21.578125 24.515625 
Q 13.234375 26.265625 9.515625 29.90625 
Q 5.8125 33.546875 5.8125 39.890625 
Q 5.8125 47.609375 11.28125 51.796875 
Q 16.75 56 26.8125 56 
Q 31.78125 56 36.171875 55.265625 
Q 40.578125 54.546875 44.28125 53.078125 
z
" id="DejaVuSans-73"/>
     <path d="M 18.109375 8.203125 
L 18.109375 -20.796875 
L 9.078125 -20.796875 
L 9.078125 54.6875 
L 18.109375 54.6875 
L 18.109375 46.390625 
Q 20.953125 51.265625 25.265625 53.625 
Q 29.59375 56 35.59375 56 
Q 45.5625 56 51.78125 48.09375 
Q 58.015625 40.1875 58.015625 27.296875 
Q 58.015625 14.40625 51.78125 6.484375 
Q 45.5625 -1.421875 35.59375 -1.421875 
Q 29.59375 -1.421875 25.265625 0.953125 
Q 20.953125 3.328125 18.109375 8.203125 
z
M 48.6875 27.296875 
Q 48.6875 37.203125 44.609375 42.84375 
Q 40.53125 48.484375 33.40625 48.484375 
Q 26.265625 48.484375 22.1875 42.84375 
Q 18.109375 37.203125 18.109375 27.296875 
Q 18.109375 17.390625 22.1875 11.75 
Q 26.265625 6.109375 33.40625 6.109375 
Q 40.53125 6.109375 44.609375 11.75 
Q 48.6875 17.390625 48.6875 27.296875 
z
" id="DejaVuSans-70"/>
     <path d="M 18.3125 70.21875 
L 18.3125 54.6875 
L 36.8125 54.6875 
L 36.8125 47.703125 
L 18.3125 47.703125 
L 18.3125 18.015625 
Q 18.3125 11.328125 20.140625 9.421875 
Q 21.96875 7.515625 27.59375 7.515625 
L 36.8125 7.515625 
L 36.8125 0 
L 27.59375 0 
Q 17.1875 0 13.234375 3.875 
Q 9.28125 7.765625 9.28125 18.015625 
L 9.28125 47.703125 
L 2.6875 47.703125 
L 2.6875 54.6875 
L 9.28125 54.6875 
L 9.28125 70.21875 
z
" id="DejaVuSans-74"/>
     <path d="M 52 44.1875 
Q 55.375 50.25 60.0625 53.125 
Q 64.75 56 71.09375 56 
Q 79.640625 56 84.28125 50.015625 
Q 88.921875 44.046875 88.921875 33.015625 
L 88.921875 0 
L 79.890625 0 
L 79.890625 32.71875 
Q 79.890625 40.578125 77.09375 44.375 
Q 74.3125 48.1875 68.609375 48.1875 
Q 61.625 48.1875 57.5625 43.546875 
Q 53.515625 38.921875 53.515625 30.90625 
L 53.515625 0 
L 44.484375 0 
L 44.484375 32.71875 
Q 44.484375 40.625 41.703125 44.40625 
Q 38.921875 48.1875 33.109375 48.1875 
Q 26.21875 48.1875 22.15625 43.53125 
Q 18.109375 38.875 18.109375 30.90625 
L 18.109375 0 
L 9.078125 0 
L 9.078125 54.6875 
L 18.109375 54.6875 
L 18.109375 46.1875 
Q 21.1875 51.21875 25.484375 53.609375 
Q 29.78125 56 35.6875 56 
Q 41.65625 56 45.828125 52.96875 
Q 50 49.953125 52 44.1875 
z
" id="DejaVuSans-6d"/>
    </defs>
    <g transform="translate(173.871094 25.43625)scale(0.24 -0.24)">
     <use xlink:href="#DejaVuSans-5a"/>
     <use x="68.505859" xlink:href="#DejaVuSans-20"/>
     <use x="100.292969" xlink:href="#DejaVuSans-73"/>
     <use x="152.392578" xlink:href="#DejaVuSans-70"/>
     <use x="215.869141" xlink:href="#DejaVuSans-65"/>
     <use x="277.392578" xlink:href="#DejaVuSans-63"/>
     <use x="332.373047" xlink:href="#DejaVuSans-74"/>
     <use x="371.582031" xlink:href="#DejaVuSans-72"/>
     <use x="412.695312" xlink:href="#DejaVuSans-75"/>
     <use x="476.074219" xlink:href="#DejaVuSans-6d"/>
    </g>
   </g>
   <g id="legend_1">
    <g id="patch_7">
     <path d="M 230.841094 106.14875 
L 407.247344 106.14875 
Q 411.247344 106.14875 411.247344 102.14875 
L 411.247344 45.43625 
Q 411.247344 41.43625 407.247344 41.43625 
L 230.841094 41.43625 
Q 226.841094 41.43625 226.841094 45.43625 
L 226.841094 102.14875 
Q 226.841094 106.14875 230.841094 106.14875 
z
" style="fill:#ffffff;opacity:0.8;stroke:#cccccc;stroke-linejoin:miter;"/>
    </g>
    <g id="LineCollection_3">
     <path d="M 254.841094 67.633125 
L 254.841094 47.633125 
" style="fill:none;stroke:#1f77b4;stroke-width:1.5;"/>
    </g>
    <g id="line2d_27">
     <path d="M 234.841094 57.633125 
L 274.841094 57.633125 
" style="fill:none;stroke:#1f77b4;stroke-linecap:square;stroke-width:1.5;"/>
    </g>
    <g id="line2d_28">
     <g>
      <use style="fill:#1f77b4;stroke:#1f77b4;" x="254.841094" xlink:href="#mcb2457e3ba" y="57.633125"/>
     </g>
    </g>
    <g id="text_16">
     <!-- 1/3 Power -->
     <defs>
      <path d="M 25.6875 72.90625 
L 36.53125 72.90625 
L 10.796875 -9.28125 
L 0 -9.28125 
z
" id="DejaVuSans-Bold-2f"/>
      <path id="DejaVuSans-Bold-20"/>
      <path d="M 9.1875 72.90625 
L 40.375 72.90625 
Q 54.296875 72.90625 61.734375 66.71875 
Q 69.1875 60.546875 69.1875 49.125 
Q 69.1875 37.640625 61.734375 31.46875 
Q 54.296875 25.296875 40.375 25.296875 
L 27.984375 25.296875 
L 27.984375 0 
L 9.1875 0 
z
M 27.984375 59.28125 
L 27.984375 38.921875 
L 38.375 38.921875 
Q 43.84375 38.921875 46.828125 41.578125 
Q 49.8125 44.234375 49.8125 49.125 
Q 49.8125 54 46.828125 56.640625 
Q 43.84375 59.28125 38.375 59.28125 
z
" id="DejaVuSans-Bold-50"/>
      <path d="M 34.421875 43.5 
Q 28.609375 43.5 25.5625 39.328125 
Q 22.515625 35.15625 22.515625 27.296875 
Q 22.515625 19.4375 25.5625 15.25 
Q 28.609375 11.078125 34.421875 11.078125 
Q 40.140625 11.078125 43.15625 15.25 
Q 46.1875 19.4375 46.1875 27.296875 
Q 46.1875 35.15625 43.15625 39.328125 
Q 40.140625 43.5 34.421875 43.5 
z
M 34.421875 56 
Q 48.53125 56 56.46875 48.375 
Q 64.40625 40.765625 64.40625 27.296875 
Q 64.40625 13.8125 56.46875 6.1875 
Q 48.53125 -1.421875 34.421875 -1.421875 
Q 20.265625 -1.421875 12.28125 6.1875 
Q 4.296875 13.8125 4.296875 27.296875 
Q 4.296875 40.765625 12.28125 48.375 
Q 20.265625 56 34.421875 56 
z
" id="DejaVuSans-Bold-6f"/>
      <path d="M 3.515625 54.6875 
L 20.515625 54.6875 
L 29.6875 17 
L 38.921875 54.6875 
L 53.515625 54.6875 
L 62.703125 17.390625 
L 71.921875 54.6875 
L 88.921875 54.6875 
L 74.515625 0 
L 55.421875 0 
L 46.1875 37.59375 
L 37.015625 0 
L 17.921875 0 
z
" id="DejaVuSans-Bold-77"/>
      <path d="M 62.984375 27.484375 
L 62.984375 22.515625 
L 22.125 22.515625 
Q 22.75 16.359375 26.5625 13.28125 
Q 30.375 10.203125 37.203125 10.203125 
Q 42.71875 10.203125 48.5 11.84375 
Q 54.296875 13.484375 60.40625 16.796875 
L 60.40625 3.328125 
Q 54.203125 0.984375 48 -0.21875 
Q 41.796875 -1.421875 35.59375 -1.421875 
Q 20.75 -1.421875 12.515625 6.125 
Q 4.296875 13.671875 4.296875 27.296875 
Q 4.296875 40.671875 12.375 48.328125 
Q 20.453125 56 34.625 56 
Q 47.515625 56 55.25 48.234375 
Q 62.984375 40.484375 62.984375 27.484375 
z
M 45.015625 33.296875 
Q 45.015625 38.28125 42.109375 41.328125 
Q 39.203125 44.390625 34.515625 44.390625 
Q 29.4375 44.390625 26.265625 41.53125 
Q 23.09375 38.671875 22.3125 33.296875 
z
" id="DejaVuSans-Bold-65"/>
      <path d="M 49.03125 39.796875 
Q 46.734375 40.875 44.453125 41.375 
Q 42.1875 41.890625 39.890625 41.890625 
Q 33.15625 41.890625 29.515625 37.5625 
Q 25.875 33.25 25.875 25.203125 
L 25.875 0 
L 8.40625 0 
L 8.40625 54.6875 
L 25.875 54.6875 
L 25.875 45.703125 
Q 29.25 51.078125 33.609375 53.53125 
Q 37.984375 56 44.09375 56 
Q 44.96875 56 45.984375 55.921875 
Q 47.015625 55.859375 48.96875 55.609375 
z
" id="DejaVuSans-Bold-72"/>
     </defs>
     <g transform="translate(290.841094 64.633125)scale(0.2 -0.2)">
      <use xlink:href="#DejaVuSans-Bold-31"/>
      <use x="69.580078" xlink:href="#DejaVuSans-Bold-2f"/>
      <use x="106.103516" xlink:href="#DejaVuSans-Bold-33"/>
      <use x="175.683594" xlink:href="#DejaVuSans-Bold-20"/>
      <use x="210.498047" xlink:href="#DejaVuSans-Bold-50"/>
      <use x="283.789062" xlink:href="#DejaVuSans-Bold-6f"/>
      <use x="352.490234" xlink:href="#DejaVuSans-Bold-77"/>
      <use x="444.873047" xlink:href="#DejaVuSans-Bold-65"/>
      <use x="512.695312" xlink:href="#DejaVuSans-Bold-72"/>
     </g>
    </g>
    <g id="LineCollection_4">
     <path d="M 254.841094 96.989375 
L 254.841094 76.989375 
" style="fill:none;stroke:#ff7f0e;stroke-width:1.5;"/>
    </g>
    <g id="line2d_29">
     <path d="M 234.841094 86.989375 
L 274.841094 86.989375 
" style="fill:none;stroke:#ff7f0e;stroke-linecap:square;stroke-width:1.5;"/>
    </g>
    <g id="line2d_30">
     <g>
      <use style="fill:#ff7f0e;stroke:#ff7f0e;" x="254.841094" xlink:href="#mbbb2a9d153" y="86.989375"/>
     </g>
    </g>
    <g id="text_17">
     <!-- 2/3 Power -->
     <g transform="translate(290.841094 93.989375)scale(0.2 -0.2)">
      <use xlink:href="#DejaVuSans-Bold-32"/>
      <use x="69.580078" xlink:href="#DejaVuSans-Bold-2f"/>
      <use x="106.103516" xlink:href="#DejaVuSans-Bold-33"/>
      <use x="175.683594" xlink:href="#DejaVuSans-Bold-20"/>
      <use x="210.498047" xlink:href="#DejaVuSans-Bold-50"/>
      <use x="283.789062" xlink:href="#DejaVuSans-Bold-6f"/>
      <use x="352.490234" xlink:href="#DejaVuSans-Bold-77"/>
      <use x="444.873047" xlink:href="#DejaVuSans-Bold-65"/>
      <use x="512.695312" xlink:href="#DejaVuSans-Bold-72"/>
     </g>
    </g>
   </g>
  </g>
 </g>
 <defs>
  <clipPath id="p2733d070c1">
   <rect height="266.112" width="357.12" x="64.127344" y="31.43625"/>
  </clipPath>
 </defs>
</svg>
