<?xml version="1.0" encoding="utf-8" standalone="no"?>
<!DOCTYPE svg PUBLIC "-//W3C//DTD SVG 1.1//EN"
  "http://www.w3.org/Graphics/SVG/1.1/DTD/svg11.dtd">
<!-- Created with matplotlib (http://matplotlib.org/) -->
<svg height="349pt" version="1.1" viewBox="0 0 431 349" width="431pt" xmlns="http://www.w3.org/2000/svg" xmlns:xlink="http://www.w3.org/1999/xlink">
 <defs>
  <style type="text/css">
*{stroke-linecap:butt;stroke-linejoin:round;}
  </style>
 </defs>
 <g id="figure_1">
  <g id="patch_1">
   <path d="M 0 349.665437 
L 431.947344 349.665437 
L 431.947344 0 
L 0 0 
z
" style="fill:none;"/>
  </g>
  <g id="axes_1">
   <g id="patch_2">
    <path d="M 64.127344 297.54825 
L 421.247344 297.54825 
L 421.247344 31.43625 
L 64.127344 31.43625 
z
" style="fill:none;"/>
   </g>
   <g id="matplotlib.axis_1">
    <g id="xtick_1">
     <g id="line2d_1">
      <path clip-path="url(#pb8726b7de2)" d="M 80.360071 297.54825 
L 80.360071 31.43625 
" style="fill:none;stroke:#b0b0b0;stroke-linecap:square;stroke-width:0.8;"/>
     </g>
     <g id="line2d_2">
      <defs>
       <path d="M 0 0 
L 0 3.5 
" id="m005f0a59be" style="stroke:#000000;stroke-width:0.8;"/>
      </defs>
      <g>
       <use style="stroke:#000000;stroke-width:0.8;" x="80.360071" xlink:href="#m005f0a59be" y="297.54825"/>
      </g>
     </g>
     <g id="text_1">
      <!-- 0 -->
      <defs>
       <path d="M 46 36.53125 
Q 46 50.203125 43.4375 55.78125 
Q 40.875 61.375 34.8125 61.375 
Q 28.765625 61.375 26.171875 55.78125 
Q 23.578125 50.203125 23.578125 36.53125 
Q 23.578125 22.703125 26.171875 17.03125 
Q 28.765625 11.375 34.8125 11.375 
Q 40.828125 11.375 43.40625 17.03125 
Q 46 22.703125 46 36.53125 
z
M 64.796875 36.375 
Q 64.796875 18.265625 56.984375 8.421875 
Q 49.171875 -1.421875 34.8125 -1.421875 
Q 20.40625 -1.421875 12.59375 8.421875 
Q 4.78125 18.265625 4.78125 36.375 
Q 4.78125 54.546875 12.59375 64.375 
Q 20.40625 74.21875 34.8125 74.21875 
Q 49.171875 74.21875 56.984375 64.375 
Q 64.796875 54.546875 64.796875 36.375 
z
" id="DejaVuSans-Bold-30"/>
      </defs>
      <g transform="translate(75.141712 315.945906)scale(0.15 -0.15)">
       <use xlink:href="#DejaVuSans-Bold-30"/>
      </g>
     </g>
    </g>
    <g id="xtick_2">
     <g id="line2d_3">
      <path clip-path="url(#pb8726b7de2)" d="M 170.541889 297.54825 
L 170.541889 31.43625 
" style="fill:none;stroke:#b0b0b0;stroke-linecap:square;stroke-width:0.8;"/>
     </g>
     <g id="line2d_4">
      <g>
       <use style="stroke:#000000;stroke-width:0.8;" x="170.541889" xlink:href="#m005f0a59be" y="297.54825"/>
      </g>
     </g>
     <g id="text_2">
      <!-- 50 -->
      <defs>
       <path d="M 10.59375 72.90625 
L 57.328125 72.90625 
L 57.328125 59.078125 
L 25.59375 59.078125 
L 25.59375 47.796875 
Q 27.734375 48.390625 29.90625 48.703125 
Q 32.078125 49.03125 34.421875 49.03125 
Q 47.75 49.03125 55.171875 42.359375 
Q 62.59375 35.6875 62.59375 23.78125 
Q 62.59375 11.96875 54.515625 5.265625 
Q 46.4375 -1.421875 32.078125 -1.421875 
Q 25.875 -1.421875 19.796875 -0.21875 
Q 13.71875 0.984375 7.71875 3.421875 
L 7.71875 18.21875 
Q 13.671875 14.796875 19.015625 13.078125 
Q 24.359375 11.375 29.109375 11.375 
Q 35.9375 11.375 39.859375 14.71875 
Q 43.796875 18.0625 43.796875 23.78125 
Q 43.796875 29.546875 39.859375 32.859375 
Q 35.9375 36.1875 29.109375 36.1875 
Q 25.046875 36.1875 20.453125 35.125 
Q 15.875 34.078125 10.59375 31.890625 
z
" id="DejaVuSans-Bold-35"/>
      </defs>
      <g transform="translate(160.10517 315.945906)scale(0.15 -0.15)">
       <use xlink:href="#DejaVuSans-Bold-35"/>
       <use x="69.580078" xlink:href="#DejaVuSans-Bold-30"/>
      </g>
     </g>
    </g>
    <g id="xtick_3">
     <g id="line2d_5">
      <path clip-path="url(#pb8726b7de2)" d="M 260.723707 297.54825 
L 260.723707 31.43625 
" style="fill:none;stroke:#b0b0b0;stroke-linecap:square;stroke-width:0.8;"/>
     </g>
     <g id="line2d_6">
      <g>
       <use style="stroke:#000000;stroke-width:0.8;" x="260.723707" xlink:href="#m005f0a59be" y="297.54825"/>
      </g>
     </g>
     <g id="text_3">
      <!-- 100 -->
      <defs>
       <path d="M 11.71875 12.984375 
L 28.328125 12.984375 
L 28.328125 60.109375 
L 11.28125 56.59375 
L 11.28125 69.390625 
L 28.21875 72.90625 
L 46.09375 72.90625 
L 46.09375 12.984375 
L 62.703125 12.984375 
L 62.703125 0 
L 11.71875 0 
z
" id="DejaVuSans-Bold-31"/>
      </defs>
      <g transform="translate(245.068629 315.945906)scale(0.15 -0.15)">
       <use xlink:href="#DejaVuSans-Bold-31"/>
       <use x="69.580078" xlink:href="#DejaVuSans-Bold-30"/>
       <use x="139.160156" xlink:href="#DejaVuSans-Bold-30"/>
      </g>
     </g>
    </g>
    <g id="xtick_4">
     <g id="line2d_7">
      <path clip-path="url(#pb8726b7de2)" d="M 350.905526 297.54825 
L 350.905526 31.43625 
" style="fill:none;stroke:#b0b0b0;stroke-linecap:square;stroke-width:0.8;"/>
     </g>
     <g id="line2d_8">
      <g>
       <use style="stroke:#000000;stroke-width:0.8;" x="350.905526" xlink:href="#m005f0a59be" y="297.54825"/>
      </g>
     </g>
     <g id="text_4">
      <!-- 150 -->
      <g transform="translate(335.250447 315.945906)scale(0.15 -0.15)">
       <use xlink:href="#DejaVuSans-Bold-31"/>
       <use x="69.580078" xlink:href="#DejaVuSans-Bold-35"/>
       <use x="139.160156" xlink:href="#DejaVuSans-Bold-30"/>
      </g>
     </g>
    </g>
    <g id="text_5">
     <!-- Time ($\mu s$) -->
     <defs>
      <path d="M -0.296875 72.90625 
L 61.375 72.90625 
L 61.375 64.59375 
L 35.5 64.59375 
L 35.5 0 
L 25.59375 0 
L 25.59375 64.59375 
L -0.296875 64.59375 
z
" id="DejaVuSans-54"/>
      <path d="M 9.421875 54.6875 
L 18.40625 54.6875 
L 18.40625 0 
L 9.421875 0 
z
M 9.421875 75.984375 
L 18.40625 75.984375 
L 18.40625 64.59375 
L 9.421875 64.59375 
z
" id="DejaVuSans-69"/>
      <path d="M 52 44.1875 
Q 55.375 50.25 60.0625 53.125 
Q 64.75 56 71.09375 56 
Q 79.640625 56 84.28125 50.015625 
Q 88.921875 44.046875 88.921875 33.015625 
L 88.921875 0 
L 79.890625 0 
L 79.890625 32.71875 
Q 79.890625 40.578125 77.09375 44.375 
Q 74.3125 48.1875 68.609375 48.1875 
Q 61.625 48.1875 57.5625 43.546875 
Q 53.515625 38.921875 53.515625 30.90625 
L 53.515625 0 
L 44.484375 0 
L 44.484375 32.71875 
Q 44.484375 40.625 41.703125 44.40625 
Q 38.921875 48.1875 33.109375 48.1875 
Q 26.21875 48.1875 22.15625 43.53125 
Q 18.109375 38.875 18.109375 30.90625 
L 18.109375 0 
L 9.078125 0 
L 9.078125 54.6875 
L 18.109375 54.6875 
L 18.109375 46.1875 
Q 21.1875 51.21875 25.484375 53.609375 
Q 29.78125 56 35.6875 56 
Q 41.65625 56 45.828125 52.96875 
Q 50 49.953125 52 44.1875 
z
" id="DejaVuSans-6d"/>
      <path d="M 56.203125 29.59375 
L 56.203125 25.203125 
L 14.890625 25.203125 
Q 15.484375 15.921875 20.484375 11.0625 
Q 25.484375 6.203125 34.421875 6.203125 
Q 39.59375 6.203125 44.453125 7.46875 
Q 49.3125 8.734375 54.109375 11.28125 
L 54.109375 2.78125 
Q 49.265625 0.734375 44.1875 -0.34375 
Q 39.109375 -1.421875 33.890625 -1.421875 
Q 20.796875 -1.421875 13.15625 6.1875 
Q 5.515625 13.8125 5.515625 26.8125 
Q 5.515625 40.234375 12.765625 48.109375 
Q 20.015625 56 32.328125 56 
Q 43.359375 56 49.78125 48.890625 
Q 56.203125 41.796875 56.203125 29.59375 
z
M 47.21875 32.234375 
Q 47.125 39.59375 43.09375 43.984375 
Q 39.0625 48.390625 32.421875 48.390625 
Q 24.90625 48.390625 20.390625 44.140625 
Q 15.875 39.890625 15.1875 32.171875 
z
" id="DejaVuSans-65"/>
      <path id="DejaVuSans-20"/>
      <path d="M 31 75.875 
Q 24.46875 64.65625 21.28125 53.65625 
Q 18.109375 42.671875 18.109375 31.390625 
Q 18.109375 20.125 21.3125 9.0625 
Q 24.515625 -2 31 -13.1875 
L 23.1875 -13.1875 
Q 15.875 -1.703125 12.234375 9.375 
Q 8.59375 20.453125 8.59375 31.390625 
Q 8.59375 42.28125 12.203125 53.3125 
Q 15.828125 64.359375 23.1875 75.875 
z
" id="DejaVuSans-28"/>
      <path d="M -2.6875 -20.90625 
L 12.015625 54.6875 
L 29.59375 54.6875 
L 23.390625 22.90625 
Q 23.1875 21.875 23.09375 20.890625 
Q 23 19.921875 23 19.09375 
Q 23 15.53125 25.09375 13.625 
Q 27.203125 11.71875 31.203125 11.71875 
Q 36.1875 11.71875 39.109375 14.453125 
Q 42.046875 17.1875 43.21875 22.90625 
L 49.421875 54.6875 
L 67 54.6875 
L 59.90625 18.109375 
Q 59.71875 17.09375 59.609375 16.234375 
Q 59.515625 15.375 59.515625 14.703125 
Q 59.515625 13.28125 60.171875 12.59375 
Q 60.84375 11.921875 62.203125 11.921875 
Q 63.03125 11.921875 63.984375 12.1875 
Q 64.9375 12.453125 65.921875 12.984375 
L 63.484375 0.78125 
Q 60.6875 -0.34375 58.296875 -0.875 
Q 55.90625 -1.421875 53.71875 -1.421875 
Q 49.421875 -1.421875 47 0.4375 
Q 44.578125 2.296875 43.609375 6.296875 
Q 40.578125 2.4375 36.890625 0.5 
Q 33.203125 -1.421875 28.90625 -1.421875 
Q 25.296875 -1.421875 23.015625 -0.265625 
Q 20.75 0.875 19.671875 3.21875 
L 14.984375 -20.90625 
z
" id="DejaVuSans-BoldOblique-3bc"/>
      <path d="M 56 52.984375 
L 53.421875 39.40625 
Q 48.296875 41.84375 43.21875 43.109375 
Q 38.140625 44.390625 33.59375 44.390625 
Q 28.421875 44.390625 25.609375 43.046875 
Q 22.796875 41.703125 22.796875 39.203125 
Q 22.796875 37.75 24.359375 36.859375 
Q 25.921875 35.984375 30.515625 35.015625 
L 33.6875 34.421875 
Q 44.28125 32.171875 48.53125 28.625 
Q 52.78125 25.09375 52.78125 18.796875 
Q 52.78125 9.28125 45.3125 3.921875 
Q 37.84375 -1.421875 24.421875 -1.421875 
Q 18.796875 -1.421875 12.9375 -0.53125 
Q 7.078125 0.34375 0.984375 2.09375 
L 3.609375 15.828125 
Q 8.34375 13.03125 13.734375 11.609375 
Q 19.140625 10.203125 24.8125 10.203125 
Q 30.328125 10.203125 33.109375 11.515625 
Q 35.890625 12.84375 35.890625 15.375 
Q 35.890625 17.140625 34.328125 18.109375 
Q 32.765625 19.09375 27.875 20.125 
L 24.703125 20.703125 
Q 15.328125 22.65625 11.328125 26.46875 
Q 7.328125 30.28125 7.328125 37.015625 
Q 7.328125 46.140625 14.234375 51.0625 
Q 21.140625 56 33.984375 56 
Q 39.59375 56 45.03125 55.25 
Q 50.484375 54.5 56 52.984375 
z
" id="DejaVuSans-BoldOblique-73"/>
      <path d="M 8.015625 75.875 
L 15.828125 75.875 
Q 23.140625 64.359375 26.78125 53.3125 
Q 30.421875 42.28125 30.421875 31.390625 
Q 30.421875 20.453125 26.78125 9.375 
Q 23.140625 -1.703125 15.828125 -13.1875 
L 8.015625 -13.1875 
Q 14.5 -2 17.703125 9.0625 
Q 20.90625 20.125 20.90625 31.390625 
Q 20.90625 42.671875 17.703125 53.65625 
Q 14.5 64.65625 8.015625 75.875 
z
" id="DejaVuSans-29"/>
     </defs>
     <g transform="translate(193.587344 338.265437)scale(0.2 -0.2)">
      <use transform="translate(0 0.015625)" xlink:href="#DejaVuSans-54"/>
      <use transform="translate(61.083984 0.015625)" xlink:href="#DejaVuSans-69"/>
      <use transform="translate(88.867188 0.015625)" xlink:href="#DejaVuSans-6d"/>
      <use transform="translate(186.279297 0.015625)" xlink:href="#DejaVuSans-65"/>
      <use transform="translate(247.802734 0.015625)" xlink:href="#DejaVuSans-20"/>
      <use transform="translate(279.589844 0.015625)" xlink:href="#DejaVuSans-28"/>
      <use transform="translate(318.603516 0.015625)" xlink:href="#DejaVuSans-BoldOblique-3bc"/>
      <use transform="translate(392.1875 0.015625)" xlink:href="#DejaVuSans-BoldOblique-73"/>
      <use transform="translate(451.708984 0.015625)" xlink:href="#DejaVuSans-29"/>
     </g>
    </g>
   </g>
   <g id="matplotlib.axis_2">
    <g id="ytick_1">
     <g id="line2d_9">
      <path clip-path="url(#pb8726b7de2)" d="M 64.127344 297.54825 
L 421.247344 297.54825 
" style="fill:none;stroke:#b0b0b0;stroke-linecap:square;stroke-width:0.8;"/>
     </g>
     <g id="line2d_10">
      <defs>
       <path d="M 0 0 
L -3.5 0 
" id="mc3ce260a5b" style="stroke:#000000;stroke-width:0.8;"/>
      </defs>
      <g>
       <use style="stroke:#000000;stroke-width:0.8;" x="64.127344" xlink:href="#mc3ce260a5b" y="297.54825"/>
      </g>
     </g>
     <g id="text_6">
      <!-- 0.0 -->
      <defs>
       <path d="M 10.203125 18.890625 
L 27.78125 18.890625 
L 27.78125 0 
L 10.203125 0 
z
" id="DejaVuSans-Bold-2e"/>
      </defs>
      <g transform="translate(30.55625 303.247078)scale(0.15 -0.15)">
       <use xlink:href="#DejaVuSans-Bold-30"/>
       <use x="69.580078" xlink:href="#DejaVuSans-Bold-2e"/>
       <use x="107.568359" xlink:href="#DejaVuSans-Bold-30"/>
      </g>
     </g>
    </g>
    <g id="ytick_2">
     <g id="line2d_11">
      <path clip-path="url(#pb8726b7de2)" d="M 64.127344 244.32585 
L 421.247344 244.32585 
" style="fill:none;stroke:#b0b0b0;stroke-linecap:square;stroke-width:0.8;"/>
     </g>
     <g id="line2d_12">
      <g>
       <use style="stroke:#000000;stroke-width:0.8;" x="64.127344" xlink:href="#mc3ce260a5b" y="244.32585"/>
      </g>
     </g>
     <g id="text_7">
      <!-- 0.2 -->
      <defs>
       <path d="M 28.8125 13.8125 
L 60.890625 13.8125 
L 60.890625 0 
L 7.90625 0 
L 7.90625 13.8125 
L 34.515625 37.3125 
Q 38.09375 40.53125 39.796875 43.609375 
Q 41.5 46.6875 41.5 50 
Q 41.5 55.125 38.0625 58.25 
Q 34.625 61.375 28.90625 61.375 
Q 24.515625 61.375 19.28125 59.5 
Q 14.0625 57.625 8.109375 53.90625 
L 8.109375 69.921875 
Q 14.453125 72.015625 20.65625 73.109375 
Q 26.859375 74.21875 32.8125 74.21875 
Q 45.90625 74.21875 53.15625 68.453125 
Q 60.40625 62.703125 60.40625 52.390625 
Q 60.40625 46.4375 57.328125 41.28125 
Q 54.25 36.140625 44.390625 27.484375 
z
" id="DejaVuSans-Bold-32"/>
      </defs>
      <g transform="translate(30.55625 250.024678)scale(0.15 -0.15)">
       <use xlink:href="#DejaVuSans-Bold-30"/>
       <use x="69.580078" xlink:href="#DejaVuSans-Bold-2e"/>
       <use x="107.568359" xlink:href="#DejaVuSans-Bold-32"/>
      </g>
     </g>
    </g>
    <g id="ytick_3">
     <g id="line2d_13">
      <path clip-path="url(#pb8726b7de2)" d="M 64.127344 191.10345 
L 421.247344 191.10345 
" style="fill:none;stroke:#b0b0b0;stroke-linecap:square;stroke-width:0.8;"/>
     </g>
     <g id="line2d_14">
      <g>
       <use style="stroke:#000000;stroke-width:0.8;" x="64.127344" xlink:href="#mc3ce260a5b" y="191.10345"/>
      </g>
     </g>
     <g id="text_8">
      <!-- 0.4 -->
      <defs>
       <path d="M 36.8125 57.421875 
L 16.21875 26.90625 
L 36.8125 26.90625 
z
M 33.6875 72.90625 
L 54.59375 72.90625 
L 54.59375 26.90625 
L 64.984375 26.90625 
L 64.984375 13.28125 
L 54.59375 13.28125 
L 54.59375 0 
L 36.8125 0 
L 36.8125 13.28125 
L 4.5 13.28125 
L 4.5 29.390625 
z
" id="DejaVuSans-Bold-34"/>
      </defs>
      <g transform="translate(30.55625 196.802278)scale(0.15 -0.15)">
       <use xlink:href="#DejaVuSans-Bold-30"/>
       <use x="69.580078" xlink:href="#DejaVuSans-Bold-2e"/>
       <use x="107.568359" xlink:href="#DejaVuSans-Bold-34"/>
      </g>
     </g>
    </g>
    <g id="ytick_4">
     <g id="line2d_15">
      <path clip-path="url(#pb8726b7de2)" d="M 64.127344 137.88105 
L 421.247344 137.88105 
" style="fill:none;stroke:#b0b0b0;stroke-linecap:square;stroke-width:0.8;"/>
     </g>
     <g id="line2d_16">
      <g>
       <use style="stroke:#000000;stroke-width:0.8;" x="64.127344" xlink:href="#mc3ce260a5b" y="137.88105"/>
      </g>
     </g>
     <g id="text_9">
      <!-- 0.6 -->
      <defs>
       <path d="M 36.1875 35.984375 
Q 31.25 35.984375 28.78125 32.78125 
Q 26.3125 29.59375 26.3125 23.1875 
Q 26.3125 16.796875 28.78125 13.59375 
Q 31.25 10.40625 36.1875 10.40625 
Q 41.15625 10.40625 43.625 13.59375 
Q 46.09375 16.796875 46.09375 23.1875 
Q 46.09375 29.59375 43.625 32.78125 
Q 41.15625 35.984375 36.1875 35.984375 
z
M 59.421875 71 
L 59.421875 57.515625 
Q 54.78125 59.71875 50.671875 60.765625 
Q 46.578125 61.8125 42.671875 61.8125 
Q 34.28125 61.8125 29.59375 57.140625 
Q 24.90625 52.484375 24.125 43.3125 
Q 27.34375 45.703125 31.09375 46.890625 
Q 34.859375 48.09375 39.3125 48.09375 
Q 50.484375 48.09375 57.34375 41.546875 
Q 64.203125 35.015625 64.203125 24.421875 
Q 64.203125 12.703125 56.53125 5.640625 
Q 48.875 -1.421875 35.984375 -1.421875 
Q 21.78125 -1.421875 13.984375 8.171875 
Q 6.203125 17.78125 6.203125 35.40625 
Q 6.203125 53.46875 15.3125 63.796875 
Q 24.421875 74.125 40.28125 74.125 
Q 45.3125 74.125 50.046875 73.34375 
Q 54.78125 72.5625 59.421875 71 
z
" id="DejaVuSans-Bold-36"/>
      </defs>
      <g transform="translate(30.55625 143.579878)scale(0.15 -0.15)">
       <use xlink:href="#DejaVuSans-Bold-30"/>
       <use x="69.580078" xlink:href="#DejaVuSans-Bold-2e"/>
       <use x="107.568359" xlink:href="#DejaVuSans-Bold-36"/>
      </g>
     </g>
    </g>
    <g id="ytick_5">
     <g id="line2d_17">
      <path clip-path="url(#pb8726b7de2)" d="M 64.127344 84.65865 
L 421.247344 84.65865 
" style="fill:none;stroke:#b0b0b0;stroke-linecap:square;stroke-width:0.8;"/>
     </g>
     <g id="line2d_18">
      <g>
       <use style="stroke:#000000;stroke-width:0.8;" x="64.127344" xlink:href="#mc3ce260a5b" y="84.65865"/>
      </g>
     </g>
     <g id="text_10">
      <!-- 0.8 -->
      <defs>
       <path d="M 34.8125 32.625 
Q 29.546875 32.625 26.703125 29.734375 
Q 23.875 26.859375 23.875 21.484375 
Q 23.875 16.109375 26.703125 13.25 
Q 29.546875 10.40625 34.8125 10.40625 
Q 40.046875 10.40625 42.828125 13.25 
Q 45.609375 16.109375 45.609375 21.484375 
Q 45.609375 26.90625 42.828125 29.765625 
Q 40.046875 32.625 34.8125 32.625 
z
M 21.09375 38.8125 
Q 14.453125 40.828125 11.078125 44.96875 
Q 7.71875 49.125 7.71875 55.328125 
Q 7.71875 64.546875 14.59375 69.375 
Q 21.484375 74.21875 34.8125 74.21875 
Q 48.046875 74.21875 54.921875 69.40625 
Q 61.8125 64.59375 61.8125 55.328125 
Q 61.8125 49.125 58.421875 44.96875 
Q 55.03125 40.828125 48.390625 38.8125 
Q 55.8125 36.765625 59.59375 32.15625 
Q 63.375 27.546875 63.375 20.515625 
Q 63.375 9.671875 56.171875 4.125 
Q 48.96875 -1.421875 34.8125 -1.421875 
Q 20.609375 -1.421875 13.359375 4.125 
Q 6.109375 9.671875 6.109375 20.515625 
Q 6.109375 27.546875 9.890625 32.15625 
Q 13.671875 36.765625 21.09375 38.8125 
z
M 25.484375 53.421875 
Q 25.484375 49.078125 27.90625 46.734375 
Q 30.328125 44.390625 34.8125 44.390625 
Q 39.203125 44.390625 41.59375 46.734375 
Q 44 49.078125 44 53.421875 
Q 44 57.765625 41.59375 60.078125 
Q 39.203125 62.40625 34.8125 62.40625 
Q 30.328125 62.40625 27.90625 60.0625 
Q 25.484375 57.71875 25.484375 53.421875 
z
" id="DejaVuSans-Bold-38"/>
      </defs>
      <g transform="translate(30.55625 90.357478)scale(0.15 -0.15)">
       <use xlink:href="#DejaVuSans-Bold-30"/>
       <use x="69.580078" xlink:href="#DejaVuSans-Bold-2e"/>
       <use x="107.568359" xlink:href="#DejaVuSans-Bold-38"/>
      </g>
     </g>
    </g>
    <g id="ytick_6">
     <g id="line2d_19">
      <path clip-path="url(#pb8726b7de2)" d="M 64.127344 31.43625 
L 421.247344 31.43625 
" style="fill:none;stroke:#b0b0b0;stroke-linecap:square;stroke-width:0.8;"/>
     </g>
     <g id="line2d_20">
      <g>
       <use style="stroke:#000000;stroke-width:0.8;" x="64.127344" xlink:href="#mc3ce260a5b" y="31.43625"/>
      </g>
     </g>
     <g id="text_11">
      <!-- 1.0 -->
      <g transform="translate(30.55625 37.135078)scale(0.15 -0.15)">
       <use xlink:href="#DejaVuSans-Bold-31"/>
       <use x="69.580078" xlink:href="#DejaVuSans-Bold-2e"/>
       <use x="107.568359" xlink:href="#DejaVuSans-Bold-30"/>
      </g>
     </g>
    </g>
    <g id="text_12">
     <!-- Survival -->
     <defs>
      <path d="M 53.515625 70.515625 
L 53.515625 60.890625 
Q 47.90625 63.578125 42.921875 64.890625 
Q 37.9375 66.21875 33.296875 66.21875 
Q 25.25 66.21875 20.875 63.09375 
Q 16.5 59.96875 16.5 54.203125 
Q 16.5 49.359375 19.40625 46.890625 
Q 22.3125 44.4375 30.421875 42.921875 
L 36.375 41.703125 
Q 47.40625 39.59375 52.65625 34.296875 
Q 57.90625 29 57.90625 20.125 
Q 57.90625 9.515625 50.796875 4.046875 
Q 43.703125 -1.421875 29.984375 -1.421875 
Q 24.8125 -1.421875 18.96875 -0.25 
Q 13.140625 0.921875 6.890625 3.21875 
L 6.890625 13.375 
Q 12.890625 10.015625 18.65625 8.296875 
Q 24.421875 6.59375 29.984375 6.59375 
Q 38.421875 6.59375 43.015625 9.90625 
Q 47.609375 13.234375 47.609375 19.390625 
Q 47.609375 24.75 44.3125 27.78125 
Q 41.015625 30.8125 33.5 32.328125 
L 27.484375 33.5 
Q 16.453125 35.6875 11.515625 40.375 
Q 6.59375 45.0625 6.59375 53.421875 
Q 6.59375 63.09375 13.40625 68.65625 
Q 20.21875 74.21875 32.171875 74.21875 
Q 37.3125 74.21875 42.625 73.28125 
Q 47.953125 72.359375 53.515625 70.515625 
z
" id="DejaVuSans-53"/>
      <path d="M 8.5 21.578125 
L 8.5 54.6875 
L 17.484375 54.6875 
L 17.484375 21.921875 
Q 17.484375 14.15625 20.5 10.265625 
Q 23.53125 6.390625 29.59375 6.390625 
Q 36.859375 6.390625 41.078125 11.03125 
Q 45.3125 15.671875 45.3125 23.6875 
L 45.3125 54.6875 
L 54.296875 54.6875 
L 54.296875 0 
L 45.3125 0 
L 45.3125 8.40625 
Q 42.046875 3.421875 37.71875 1 
Q 33.40625 -1.421875 27.6875 -1.421875 
Q 18.265625 -1.421875 13.375 4.4375 
Q 8.5 10.296875 8.5 21.578125 
z
M 31.109375 56 
z
" id="DejaVuSans-75"/>
      <path d="M 41.109375 46.296875 
Q 39.59375 47.171875 37.8125 47.578125 
Q 36.03125 48 33.890625 48 
Q 26.265625 48 22.1875 43.046875 
Q 18.109375 38.09375 18.109375 28.8125 
L 18.109375 0 
L 9.078125 0 
L 9.078125 54.6875 
L 18.109375 54.6875 
L 18.109375 46.1875 
Q 20.953125 51.171875 25.484375 53.578125 
Q 30.03125 56 36.53125 56 
Q 37.453125 56 38.578125 55.875 
Q 39.703125 55.765625 41.0625 55.515625 
z
" id="DejaVuSans-72"/>
      <path d="M 2.984375 54.6875 
L 12.5 54.6875 
L 29.59375 8.796875 
L 46.6875 54.6875 
L 56.203125 54.6875 
L 35.6875 0 
L 23.484375 0 
z
" id="DejaVuSans-76"/>
      <path d="M 34.28125 27.484375 
Q 23.390625 27.484375 19.1875 25 
Q 14.984375 22.515625 14.984375 16.5 
Q 14.984375 11.71875 18.140625 8.90625 
Q 21.296875 6.109375 26.703125 6.109375 
Q 34.1875 6.109375 38.703125 11.40625 
Q 43.21875 16.703125 43.21875 25.484375 
L 43.21875 27.484375 
z
M 52.203125 31.203125 
L 52.203125 0 
L 43.21875 0 
L 43.21875 8.296875 
Q 40.140625 3.328125 35.546875 0.953125 
Q 30.953125 -1.421875 24.3125 -1.421875 
Q 15.921875 -1.421875 10.953125 3.296875 
Q 6 8.015625 6 15.921875 
Q 6 25.140625 12.171875 29.828125 
Q 18.359375 34.515625 30.609375 34.515625 
L 43.21875 34.515625 
L 43.21875 35.40625 
Q 43.21875 41.609375 39.140625 45 
Q 35.0625 48.390625 27.6875 48.390625 
Q 23 48.390625 18.546875 47.265625 
Q 14.109375 46.140625 10.015625 43.890625 
L 10.015625 52.203125 
Q 14.9375 54.109375 19.578125 55.046875 
Q 24.21875 56 28.609375 56 
Q 40.484375 56 46.34375 49.84375 
Q 52.203125 43.703125 52.203125 31.203125 
z
" id="DejaVuSans-61"/>
      <path d="M 9.421875 75.984375 
L 18.40625 75.984375 
L 18.40625 0 
L 9.421875 0 
z
" id="DejaVuSans-6c"/>
     </defs>
     <g transform="translate(22.396875 204.811)rotate(-90)scale(0.2 -0.2)">
      <use xlink:href="#DejaVuSans-53"/>
      <use x="63.476562" xlink:href="#DejaVuSans-75"/>
      <use x="126.855469" xlink:href="#DejaVuSans-72"/>
      <use x="167.96875" xlink:href="#DejaVuSans-76"/>
      <use x="227.148438" xlink:href="#DejaVuSans-69"/>
      <use x="254.931641" xlink:href="#DejaVuSans-76"/>
      <use x="314.111328" xlink:href="#DejaVuSans-61"/>
      <use x="375.390625" xlink:href="#DejaVuSans-6c"/>
     </g>
    </g>
   </g>
   <g id="LineCollection_1">
    <path clip-path="url(#pb8726b7de2)" d="M 80.360071 297.54825 
L 80.360071 296.36553 
" style="fill:none;stroke:#1f77b4;stroke-width:1.5;"/>
    <path clip-path="url(#pb8726b7de2)" d="M 91.181889 252.261748 
L 91.181889 237.657152 
" style="fill:none;stroke:#1f77b4;stroke-width:1.5;"/>
    <path clip-path="url(#pb8726b7de2)" d="M 102.003707 161.934219 
L 102.003707 144.781494 
" style="fill:none;stroke:#1f77b4;stroke-width:1.5;"/>
    <path clip-path="url(#pb8726b7de2)" d="M 112.825526 66.072137 
L 112.825526 55.012363 
" style="fill:none;stroke:#1f77b4;stroke-width:1.5;"/>
    <path clip-path="url(#pb8726b7de2)" d="M 123.647344 67.841647 
L 123.647344 56.041897 
" style="fill:none;stroke:#1f77b4;stroke-width:1.5;"/>
    <path clip-path="url(#pb8726b7de2)" d="M 134.469162 141.114922 
L 134.469162 123.507606 
" style="fill:none;stroke:#1f77b4;stroke-width:1.5;"/>
    <path clip-path="url(#pb8726b7de2)" d="M 145.29098 207.908334 
L 145.29098 190.389059 
" style="fill:none;stroke:#1f77b4;stroke-width:1.5;"/>
    <path clip-path="url(#pb8726b7de2)" d="M 156.112798 246.111986 
L 156.112798 231.372514 
" style="fill:none;stroke:#1f77b4;stroke-width:1.5;"/>
    <path clip-path="url(#pb8726b7de2)" d="M 166.934616 216.791514 
L 166.934616 200.52428 
" style="fill:none;stroke:#1f77b4;stroke-width:1.5;"/>
    <path clip-path="url(#pb8726b7de2)" d="M 177.756435 138.911201 
L 177.756435 122.129809 
" style="fill:none;stroke:#1f77b4;stroke-width:1.5;"/>
    <path clip-path="url(#pb8726b7de2)" d="M 188.578253 79.913847 
L 188.578253 66.665245 
" style="fill:none;stroke:#1f77b4;stroke-width:1.5;"/>
    <path clip-path="url(#pb8726b7de2)" d="M 199.400071 64.711135 
L 199.400071 54.242819 
" style="fill:none;stroke:#1f77b4;stroke-width:1.5;"/>
    <path clip-path="url(#pb8726b7de2)" d="M 210.221889 113.248119 
L 210.221889 96.753612 
" style="fill:none;stroke:#1f77b4;stroke-width:1.5;"/>
    <path clip-path="url(#pb8726b7de2)" d="M 221.043707 168.628778 
L 221.043707 150.977325 
" style="fill:none;stroke:#1f77b4;stroke-width:1.5;"/>
    <path clip-path="url(#pb8726b7de2)" d="M 231.865526 265.115803 
L 231.865526 252.364697 
" style="fill:none;stroke:#1f77b4;stroke-width:1.5;"/>
    <path clip-path="url(#pb8726b7de2)" d="M 242.687344 267.96242 
L 242.687344 255.76768 
" style="fill:none;stroke:#1f77b4;stroke-width:1.5;"/>
    <path clip-path="url(#pb8726b7de2)" d="M 253.509162 199.832232 
L 253.509162 182.60708 
" style="fill:none;stroke:#1f77b4;stroke-width:1.5;"/>
    <path clip-path="url(#pb8726b7de2)" d="M 264.33098 98.054799 
L 264.33098 82.951533 
" style="fill:none;stroke:#1f77b4;stroke-width:1.5;"/>
    <path clip-path="url(#pb8726b7de2)" d="M 275.152798 64.307325 
L 275.152798 53.959918 
" style="fill:none;stroke:#1f77b4;stroke-width:1.5;"/>
    <path clip-path="url(#pb8726b7de2)" d="M 285.974616 108.739401 
L 285.974616 93.129099 
" style="fill:none;stroke:#1f77b4;stroke-width:1.5;"/>
    <path clip-path="url(#pb8726b7de2)" d="M 296.796435 197.986016 
L 296.796435 180.749858 
" style="fill:none;stroke:#1f77b4;stroke-width:1.5;"/>
    <path clip-path="url(#pb8726b7de2)" d="M 307.618253 270.568695 
L 307.618253 258.621562 
" style="fill:none;stroke:#1f77b4;stroke-width:1.5;"/>
    <path clip-path="url(#pb8726b7de2)" d="M 318.440071 253.296889 
L 318.440071 239.358266 
" style="fill:none;stroke:#1f77b4;stroke-width:1.5;"/>
    <path clip-path="url(#pb8726b7de2)" d="M 329.261889 188.542989 
L 329.261889 170.425961 
" style="fill:none;stroke:#1f77b4;stroke-width:1.5;"/>
    <path clip-path="url(#pb8726b7de2)" d="M 340.083707 99.985038 
L 340.083707 84.646255 
" style="fill:none;stroke:#1f77b4;stroke-width:1.5;"/>
    <path clip-path="url(#pb8726b7de2)" d="M 350.905526 60.057906 
L 350.905526 49.700994 
" style="fill:none;stroke:#1f77b4;stroke-width:1.5;"/>
    <path clip-path="url(#pb8726b7de2)" d="M 361.727344 87.663885 
L 361.727344 74.147692 
" style="fill:none;stroke:#1f77b4;stroke-width:1.5;"/>
    <path clip-path="url(#pb8726b7de2)" d="M 372.549162 161.565995 
L 372.549162 143.972513 
" style="fill:none;stroke:#1f77b4;stroke-width:1.5;"/>
    <path clip-path="url(#pb8726b7de2)" d="M 383.37098 234.708308 
L 383.37098 218.864992 
" style="fill:none;stroke:#1f77b4;stroke-width:1.5;"/>
    <path clip-path="url(#pb8726b7de2)" d="M 394.192798 250.918914 
L 394.192798 236.523186 
" style="fill:none;stroke:#1f77b4;stroke-width:1.5;"/>
    <path clip-path="url(#pb8726b7de2)" d="M 405.014616 203.745129 
L 405.014616 187.074525 
" style="fill:none;stroke:#1f77b4;stroke-width:1.5;"/>
   </g>
   <g id="LineCollection_2">
    <path clip-path="url(#pb8726b7de2)" d="M 80.360071 293.318268 
L 80.360071 286.326567 
" style="fill:none;stroke:#ff7f0e;stroke-width:1.5;"/>
    <path clip-path="url(#pb8726b7de2)" d="M 91.181889 223.899953 
L 91.181889 204.876547 
" style="fill:none;stroke:#ff7f0e;stroke-width:1.5;"/>
    <path clip-path="url(#pb8726b7de2)" d="M 102.003707 102.218892 
L 102.003707 83.615704 
" style="fill:none;stroke:#ff7f0e;stroke-width:1.5;"/>
    <path clip-path="url(#pb8726b7de2)" d="M 112.825526 134.650067 
L 112.825526 114.82536 
" style="fill:none;stroke:#ff7f0e;stroke-width:1.5;"/>
    <path clip-path="url(#pb8726b7de2)" d="M 123.647344 215.250965 
L 123.647344 195.230335 
" style="fill:none;stroke:#ff7f0e;stroke-width:1.5;"/>
    <path clip-path="url(#pb8726b7de2)" d="M 134.469162 178.281014 
L 134.469162 157.314964 
" style="fill:none;stroke:#ff7f0e;stroke-width:1.5;"/>
    <path clip-path="url(#pb8726b7de2)" d="M 145.29098 158.508875 
L 145.29098 137.823846 
" style="fill:none;stroke:#ff7f0e;stroke-width:1.5;"/>
    <path clip-path="url(#pb8726b7de2)" d="M 156.112798 205.291378 
L 156.112798 183.841725 
" style="fill:none;stroke:#ff7f0e;stroke-width:1.5;"/>
    <path clip-path="url(#pb8726b7de2)" d="M 166.934616 175.693301 
L 166.934616 154.913833 
" style="fill:none;stroke:#ff7f0e;stroke-width:1.5;"/>
    <path clip-path="url(#pb8726b7de2)" d="M 177.756435 171.766901 
L 177.756435 150.260423 
" style="fill:none;stroke:#ff7f0e;stroke-width:1.5;"/>
    <path clip-path="url(#pb8726b7de2)" d="M 188.578253 145.142775 
L 188.578253 123.693122 
" style="fill:none;stroke:#ff7f0e;stroke-width:1.5;"/>
    <path clip-path="url(#pb8726b7de2)" d="M 199.400071 159.761898 
L 199.400071 139.480672 
" style="fill:none;stroke:#ff7f0e;stroke-width:1.5;"/>
    <path clip-path="url(#pb8726b7de2)" d="M 210.221889 155.889054 
L 210.221889 133.078603 
" style="fill:none;stroke:#ff7f0e;stroke-width:1.5;"/>
    <path clip-path="url(#pb8726b7de2)" d="M 221.043707 170.875132 
L 221.043707 149.580137 
" style="fill:none;stroke:#ff7f0e;stroke-width:1.5;"/>
    <path clip-path="url(#pb8726b7de2)" d="M 231.865526 200.728925 
L 231.865526 179.761123 
" style="fill:none;stroke:#ff7f0e;stroke-width:1.5;"/>
    <path clip-path="url(#pb8726b7de2)" d="M 242.687344 234.144494 
L 242.687344 215.343553 
" style="fill:none;stroke:#ff7f0e;stroke-width:1.5;"/>
   </g>
   <g id="line2d_21">
    <path clip-path="url(#pb8726b7de2)" d="M 80.360071 297.056409 
L 82.307998 297.056409 
L 82.632653 294.627773 
L 82.957307 297.056409 
L 83.281962 293.895359 
L 83.931271 291.64557 
L 84.255926 290.932866 
L 84.58058 289.035595 
L 84.905235 289.005674 
L 85.229889 287.028364 
L 85.554544 286.077926 
L 86.528507 280.818058 
L 86.853162 280.482663 
L 87.177816 277.545096 
L 87.502471 276.515063 
L 87.827126 274.456921 
L 88.15178 271.6049 
L 89.125744 266.912602 
L 89.450398 262.990295 
L 89.775053 260.756027 
L 90.099707 259.592925 
L 93.021598 233.576664 
L 93.346253 232.402006 
L 94.320216 223.008483 
L 94.644871 220.816143 
L 95.29418 213.648817 
L 96.592798 201.108018 
L 99.839344 168.206706 
L 100.163998 164.163684 
L 100.488653 161.916107 
L 102.111926 145.738765 
L 102.761235 138.02888 
L 103.085889 136.778031 
L 103.410544 132.832423 
L 103.735198 130.720085 
L 104.384507 122.799754 
L 104.709162 121.397628 
L 106.332435 106.079537 
L 106.657089 104.067781 
L 107.306398 98.776143 
L 107.631053 97.624977 
L 108.280362 90.785662 
L 108.605016 89.154913 
L 109.57898 81.949486 
L 109.903635 79.529652 
L 110.552944 76.263051 
L 110.877598 73.653247 
L 111.526907 70.564508 
L 111.851562 68.074027 
L 112.176216 67.163745 
L 112.500871 65.880368 
L 113.15018 61.504418 
L 113.474835 61.109011 
L 114.124144 59.208957 
L 114.448798 57.421037 
L 114.773453 56.349956 
L 115.098107 55.968025 
L 116.072071 53.672116 
L 116.72138 52.816239 
L 117.046035 51.818089 
L 117.370689 51.482594 
L 117.695344 51.634499 
L 118.344653 50.816244 
L 118.669307 51.292714 
L 118.993962 50.687458 
L 119.318616 52.385626 
L 119.643271 51.818089 
L 119.967926 52.20015 
L 120.617235 53.583641 
L 120.941889 53.026791 
L 121.266544 54.437745 
L 121.591198 55.270307 
L 121.915853 55.687883 
L 122.240507 56.988267 
L 122.565162 57.671203 
L 123.214471 60.341943 
L 123.539126 60.901041 
L 123.86378 61.727803 
L 124.188435 63.363717 
L 124.513089 65.775037 
L 125.162398 68.098112 
L 125.487053 69.718301 
L 126.136362 73.917136 
L 126.461016 75.452735 
L 127.110326 79.359395 
L 127.43498 80.682475 
L 128.084289 85.804606 
L 128.408944 87.337562 
L 129.382907 95.157835 
L 129.707562 97.557924 
L 130.356871 101.200842 
L 130.681526 105.182047 
L 131.00618 106.810003 
L 131.330835 110.418777 
L 131.655489 111.946464 
L 131.980144 115.994363 
L 133.928071 132.298635 
L 134.252726 135.585989 
L 134.57738 137.699711 
L 134.902035 141.344529 
L 135.226689 143.516005 
L 135.551344 147.377893 
L 135.875998 149.31569 
L 136.525307 156.529097 
L 137.174616 161.684469 
L 137.823926 168.642016 
L 138.14858 170.866935 
L 139.122544 180.089526 
L 139.447198 182.507501 
L 140.096507 189.659808 
L 141.395126 201.334589 
L 141.71978 203.525831 
L 143.667707 221.083295 
L 143.992362 222.235248 
L 144.317016 226.395485 
L 145.29098 234.270172 
L 145.615635 234.825562 
L 145.940289 238.458894 
L 146.589598 242.493541 
L 147.238907 247.577559 
L 147.563562 249.717076 
L 147.888216 251.105579 
L 149.186835 259.337703 
L 149.511489 260.228216 
L 150.810107 267.286071 
L 151.134762 268.432213 
L 151.459416 271.041843 
L 152.108726 273.424704 
L 152.43338 273.77234 
L 152.758035 276.751271 
L 153.082689 276.671205 
L 153.407344 277.007476 
L 153.731998 278.561268 
L 154.056653 279.332484 
L 154.381307 279.690313 
L 154.705962 281.305376 
L 155.355271 282.034776 
L 155.679926 283.074741 
L 156.00458 283.334655 
L 156.653889 283.286086 
L 156.978544 283.50556 
L 157.303198 283.277687 
L 157.627853 284.479701 
L 157.952507 283.118406 
L 158.926471 281.913509 
L 159.251126 282.763876 
L 159.57578 281.305376 
L 159.900435 281.506215 
L 160.225089 281.131716 
L 160.874398 278.95586 
L 161.199053 278.590311 
L 161.848362 275.919985 
L 162.173016 276.064189 
L 162.497671 274.757028 
L 162.822326 274.187839 
L 163.14698 271.267247 
L 163.471635 271.271446 
L 163.796289 269.667233 
L 164.120944 268.636853 
L 165.744216 260.731745 
L 166.068871 257.877524 
L 166.393526 257.215464 
L 166.71818 254.738822 
L 167.042835 253.163004 
L 167.692144 248.608922 
L 168.016798 247.435776 
L 168.341453 245.571758 
L 168.990762 240.51854 
L 169.315416 238.976279 
L 169.640071 235.985632 
L 169.964726 234.37751 
L 170.938689 226.151102 
L 171.263344 224.548971 
L 171.587998 221.955856 
L 171.912653 218.320726 
L 172.237307 216.537914 
L 173.86058 203.461147 
L 175.159198 192.807741 
L 175.483853 190.808459 
L 177.43178 173.410275 
L 183.275562 125.478652 
L 183.600216 123.504909 
L 183.924871 119.799574 
L 185.872798 108.400976 
L 186.197453 104.6978 
L 186.522107 103.313821 
L 186.846762 100.162463 
L 187.171416 98.830007 
L 187.496071 98.197175 
L 188.14538 93.966158 
L 189.443998 86.593412 
L 192.365889 74.029144 
L 192.690544 73.393907 
L 193.015198 72.230297 
L 193.339853 72.16793 
L 193.664507 71.451687 
L 193.989162 70.055776 
L 194.313816 69.365701 
L 194.638471 68.197439 
L 194.963126 68.43547 
L 195.28778 67.965646 
L 195.612435 67.953603 
L 195.937089 67.654983 
L 196.261744 67.072561 
L 196.586398 65.603875 
L 197.235707 66.225911 
L 197.560362 66.293169 
L 197.885016 67.50869 
L 198.209671 66.81446 
L 198.534326 67.085061 
L 198.85898 67.667174 
L 199.183635 67.789084 
L 199.508289 67.748882 
L 199.832944 67.98973 
L 200.157598 68.830544 
L 200.482253 68.529516 
L 200.806907 70.21111 
L 201.456216 71.934427 
L 201.780871 71.632194 
L 202.105526 74.07803 
L 202.43018 73.996135 
L 202.754835 76.161533 
L 203.079489 77.458025 
L 203.404144 77.968262 
L 203.728798 79.645895 
L 204.053453 80.245546 
L 204.378107 82.475976 
L 204.702762 82.626075 
L 205.027416 85.188031 
L 205.676726 88.867587 
L 206.00138 89.424409 
L 206.326035 92.48744 
L 206.975344 94.216239 
L 207.299998 97.352348 
L 209.57258 111.713805 
L 213.793089 143.24052 
L 214.117744 146.892507 
L 214.442398 148.390682 
L 214.767053 150.457156 
L 217.688944 176.851558 
L 218.338253 181.3168 
L 218.987562 187.240217 
L 222.234107 213.803542 
L 222.558762 215.596707 
L 223.532726 224.455625 
L 223.85738 225.825072 
L 224.182035 227.959517 
L 224.506689 231.670199 
L 225.155998 234.925859 
L 225.805307 240.862713 
L 226.129962 242.110003 
L 227.103926 247.927962 
L 227.42858 248.910645 
L 228.077889 254.531304 
L 230.350471 265.192111 
L 230.675126 266.32591 
L 231.324435 270.795941 
L 231.649089 271.009642 
L 231.973744 271.593928 
L 232.623053 274.116455 
L 232.947707 274.696073 
L 233.272362 274.953547 
L 233.921671 277.102165 
L 234.246326 277.638894 
L 234.57098 278.721006 
L 234.895635 280.236286 
L 235.220289 279.191673 
L 235.544944 279.242715 
L 235.869598 280.25196 
L 236.194253 279.920462 
L 236.518907 280.314656 
L 236.843562 281.230462 
L 237.168216 280.639991 
L 237.492871 280.323395 
L 237.817526 280.915185 
L 238.14218 280.403029 
L 238.466835 279.65993 
L 238.791489 279.19783 
L 239.440798 279.599163 
L 239.765453 277.353088 
L 240.090107 277.652802 
L 240.414762 276.528229 
L 240.739416 276.370234 
L 241.71338 273.548982 
L 242.362689 270.626051 
L 242.687344 270.450219 
L 243.336653 268.016528 
L 243.661307 265.916303 
L 243.985962 265.273647 
L 244.310616 262.737046 
L 244.635271 261.656999 
L 245.28458 258.281924 
L 246.258544 252.353063 
L 247.232507 246.987599 
L 250.154398 225.745675 
L 250.803707 221.541426 
L 251.777671 212.991805 
L 252.102326 210.32363 
L 252.42698 206.398209 
L 252.751635 204.22224 
L 253.076289 202.818619 
L 254.050253 193.541081 
L 254.699562 188.776199 
L 255.348871 182.084863 
L 255.673526 181.219269 
L 257.621453 162.257468 
L 258.270762 156.89962 
L 258.595416 154.18047 
L 258.920071 150.494498 
L 259.56938 145.381581 
L 260.867998 134.373611 
L 261.192653 132.658942 
L 261.517307 128.946181 
L 262.166616 123.941293 
L 262.491271 120.035584 
L 262.815926 118.778045 
L 263.14058 115.844741 
L 263.465235 114.489451 
L 264.439198 105.54503 
L 264.763853 104.608535 
L 265.737816 97.667647 
L 266.062471 94.860654 
L 266.71178 91.698092 
L 267.036435 88.622463 
L 267.361089 87.265482 
L 267.685744 85.307728 
L 268.010398 84.810801 
L 268.335053 81.909344 
L 268.984362 79.418985 
L 269.309016 77.109077 
L 269.958326 74.793109 
L 270.28298 73.603374 
L 270.607635 71.965942 
L 271.581598 69.204948 
L 271.906253 67.941561 
L 272.230907 65.867201 
L 272.555562 66.872566 
L 272.880216 67.147559 
L 273.204871 65.012083 
L 273.529526 64.895868 
L 273.85418 63.017462 
L 274.178835 63.983186 
L 274.503489 63.186857 
L 274.828144 63.137155 
L 275.152798 61.823364 
L 275.477453 62.415926 
L 275.802107 62.100836 
L 276.126762 62.721321 
L 276.451416 62.385067 
L 276.776071 62.210554 
L 277.100726 63.71431 
L 277.42538 64.20206 
L 277.750035 64.131527 
L 278.074689 63.825764 
L 278.399344 64.62339 
L 278.723998 66.031015 
L 279.048653 66.922565 
L 279.373307 66.725841 
L 280.347271 70.834179 
L 280.671926 71.248257 
L 281.321235 74.994442 
L 281.645889 74.652062 
L 281.970544 75.433926 
L 282.619853 80.0447 
L 282.944507 80.921119 
L 283.269162 82.278563 
L 283.593816 85.330171 
L 283.918471 86.982745 
L 284.243126 87.415318 
L 284.892435 92.362357 
L 285.217089 93.927684 
L 286.191053 102.261004 
L 287.165016 107.206892 
L 287.489671 110.403019 
L 287.814326 112.213637 
L 289.112944 123.161633 
L 289.762253 127.589585 
L 291.385526 141.519801 
L 292.034835 148.390682 
L 292.359489 150.324381 
L 293.333453 159.632238 
L 293.658107 161.916107 
L 293.982762 165.657089 
L 294.307416 167.207155 
L 295.606035 180.670652 
L 301.449816 230.255743 
L 301.774471 232.407286 
L 302.42378 237.664828 
L 303.073089 242.039467 
L 304.371707 250.77216 
L 304.696362 253.70689 
L 305.021016 254.681576 
L 305.345671 257.343612 
L 305.670326 257.952759 
L 306.319635 262.153346 
L 306.644289 263.187841 
L 307.942907 270.626051 
L 308.267562 271.934751 
L 308.592216 272.373091 
L 308.916871 273.062187 
L 309.241526 275.317536 
L 309.56618 276.711238 
L 309.890835 276.711238 
L 310.540144 280.063872 
L 310.864798 279.750741 
L 311.189453 280.737118 
L 311.514107 281.03297 
L 312.163416 282.458144 
L 312.488071 282.818734 
L 312.812726 281.844214 
L 313.13738 283.137037 
L 313.462035 283.791725 
L 313.786689 283.248824 
L 314.111344 283.296676 
L 314.435998 282.818734 
L 314.760653 283.467581 
L 315.409962 282.198597 
L 315.734616 282.000128 
L 316.059271 281.000054 
L 316.383926 280.672367 
L 316.70858 280.626005 
L 317.033235 279.059028 
L 317.357889 278.95586 
L 318.007198 276.964778 
L 318.331853 276.207113 
L 318.656507 274.96589 
L 318.981162 273.039222 
L 319.305816 273.250443 
L 319.630471 271.095511 
L 319.955126 270.039014 
L 320.27978 267.851025 
L 320.604435 267.725169 
L 320.929089 264.875799 
L 321.253744 264.171951 
L 321.578398 262.345823 
L 321.903053 259.703525 
L 322.227707 258.853234 
L 322.877016 254.952538 
L 323.526326 251.409746 
L 324.175635 246.673108 
L 324.500289 244.420072 
L 324.824944 243.142896 
L 325.474253 237.703882 
L 325.798907 236.601633 
L 326.123562 234.361409 
L 326.448216 229.793584 
L 326.772871 228.440708 
L 327.097526 225.983867 
L 327.42218 222.51473 
L 328.071489 218.545368 
L 329.370107 207.366838 
L 331.318035 191.227162 
L 331.642689 187.125486 
L 332.616653 179.684576 
L 333.590616 170.516269 
L 334.56458 163.763014 
L 335.213889 157.23015 
L 336.187853 148.740685 
L 336.512507 146.913429 
L 337.811126 135.961803 
L 338.13578 133.615329 
L 338.460435 129.592736 
L 338.785089 129.266587 
L 339.109744 125.770731 
L 339.434398 123.852887 
L 339.759053 120.504194 
L 340.083707 118.938575 
L 341.382326 108.889586 
L 342.031635 106.18926 
L 342.680944 100.845413 
L 343.005598 99.808386 
L 343.330253 97.448202 
L 343.654907 96.212997 
L 344.304216 92.46769 
L 344.628871 92.165004 
L 344.953526 89.280089 
L 345.927489 84.708824 
L 346.252144 84.130656 
L 346.576798 82.20689 
L 346.901453 81.420754 
L 347.226107 79.977751 
L 347.550762 79.163599 
L 347.875416 77.932995 
L 348.524726 76.401484 
L 348.84938 75.05488 
L 349.174035 74.613337 
L 349.498689 73.699889 
L 349.823344 73.373958 
L 350.472653 71.194589 
L 350.797307 71.43045 
L 351.121962 72.540576 
L 351.446616 71.119455 
L 351.771271 72.323848 
L 352.095926 71.055054 
L 352.42058 71.81887 
L 352.745235 71.504777 
L 353.069889 72.074379 
L 353.394544 71.055054 
L 353.719198 73.132062 
L 354.043853 72.581721 
L 354.368507 73.334059 
L 354.693162 73.533551 
L 355.017816 74.735586 
L 355.342471 74.773935 
L 355.667126 74.96568 
L 356.316435 77.252712 
L 356.641089 77.315552 
L 357.615053 81.525978 
L 357.939707 81.647392 
L 358.264362 82.069912 
L 358.589016 84.572094 
L 358.913671 85.262841 
L 360.212289 92.257024 
L 360.536944 92.500607 
L 360.861598 95.107517 
L 361.186253 96.157101 
L 361.835562 100.515142 
L 362.160216 100.997336 
L 362.484871 104.365154 
L 362.809526 105.649849 
L 363.783489 112.754339 
L 364.108144 113.549069 
L 365.082107 120.729499 
L 365.406762 121.973875 
L 365.731416 125.705825 
L 366.056071 126.987409 
L 366.380726 128.946181 
L 366.70538 131.783267 
L 367.030035 133.455911 
L 367.354689 137.391417 
L 368.653307 146.390101 
L 368.977962 150.365873 
L 369.302616 152.4237 
L 369.627271 155.771051 
L 369.951926 157.36481 
L 372.549162 176.839417 
L 372.873816 180.747865 
L 373.198471 182.495309 
L 373.523126 185.638076 
L 373.84778 187.387729 
L 375.146398 196.883306 
L 375.471053 200.620677 
L 375.795707 201.402988 
L 376.120362 203.560329 
L 376.445016 208.238311 
L 376.769671 209.835777 
L 377.41898 215.118969 
L 377.743635 216.338558 
L 378.068289 218.044599 
L 378.717598 222.737403 
L 379.366907 227.82584 
L 380.016216 232.349198 
L 380.665526 235.018098 
L 380.99018 237.169079 
L 381.314835 238.267206 
L 381.639489 241.584924 
L 381.964144 242.905494 
L 382.613453 246.545095 
L 382.938107 247.883365 
L 383.262762 249.86191 
L 383.587416 250.471907 
L 383.912071 252.789729 
L 384.236726 252.97524 
L 384.886035 256.120946 
L 385.210689 257.027259 
L 385.859998 260.699368 
L 386.184653 259.648225 
L 386.509307 262.103134 
L 386.833962 263.518785 
L 387.158616 262.644205 
L 387.483271 263.333818 
L 387.807926 265.80687 
L 388.13258 265.962447 
L 388.457235 267.064308 
L 388.781889 266.940816 
L 389.106544 268.14363 
L 389.431198 267.938311 
L 389.755853 268.806422 
L 390.080507 269.127809 
L 390.405162 268.836345 
L 390.729816 269.268878 
L 391.054471 270.163749 
L 391.379126 269.188267 
L 391.70378 270.303147 
L 392.028435 269.749524 
L 392.353089 268.766523 
L 392.677744 268.966015 
L 393.002398 268.996816 
L 393.327053 269.198343 
L 393.976362 268.21207 
L 394.301016 267.42988 
L 394.625671 268.026305 
L 394.950326 266.174711 
L 395.27498 265.201171 
L 395.599635 265.907448 
L 395.924289 263.960452 
L 396.248944 263.846847 
L 396.573598 263.402513 
L 397.222907 260.268358 
L 397.547562 259.955791 
L 397.872216 258.569205 
L 398.196871 256.379238 
L 398.521526 255.872243 
L 398.84618 253.953764 
L 399.170835 254.038407 
L 399.495489 251.504438 
L 400.144798 249.164017 
L 400.469453 247.182571 
L 401.118762 244.762654 
L 402.092726 238.9025 
L 402.41738 237.074767 
L 402.742035 235.905651 
L 403.715998 230.229892 
L 404.040653 229.167365 
L 404.365307 225.696051 
L 404.689962 225.023362 
L 405.014616 221.728381 
L 405.014616 221.728381 
" style="fill:none;stroke:#483d8b;stroke-linecap:square;stroke-width:1.5;"/>
   </g>
   <g id="line2d_22">
    <path clip-path="url(#pb8726b7de2)" d="M 80.360071 297.044382 
L 80.702762 297.044382 
L 81.045453 296.706286 
L 81.388144 297.044382 
L 82.073526 294.969492 
L 82.416216 293.080999 
L 82.758907 292.162145 
L 83.101598 289.17853 
L 83.444289 288.55156 
L 83.78698 285.015839 
L 84.815053 277.80709 
L 87.899271 243.546844 
L 88.927344 229.157927 
L 90.640798 205.42668 
L 91.32618 193.049774 
L 91.668871 189.541222 
L 92.696944 172.959034 
L 93.039635 168.636378 
L 93.725016 158.50379 
L 96.466544 120.66867 
L 98.179998 102.000631 
L 98.522689 100.336101 
L 99.550762 89.781195 
L 100.578835 83.499328 
L 100.921526 81.938909 
L 101.264216 79.465431 
L 101.606907 78.78656 
L 102.292289 75.387967 
L 102.63498 75.362676 
L 102.977671 75.068348 
L 103.320362 73.567149 
L 104.005744 73.315155 
L 104.348435 73.672711 
L 104.691126 74.602943 
L 105.376507 74.421367 
L 105.719198 75.969844 
L 106.061889 76.434385 
L 108.460726 88.98804 
L 109.488798 95.921775 
L 110.17418 100.591855 
L 110.516871 105.482434 
L 110.859562 107.53513 
L 113.258398 129.543226 
L 114.971853 146.907149 
L 115.657235 152.102734 
L 115.999926 156.967572 
L 116.342616 158.72444 
L 117.370689 168.818063 
L 117.71338 171.068482 
L 118.056071 172.129808 
L 118.741453 177.866809 
L 121.140289 193.862144 
L 121.48298 195.507209 
L 121.825671 195.157021 
L 122.168362 198.097261 
L 122.511053 198.478274 
L 122.853744 199.481454 
L 123.196435 199.952094 
L 123.539126 201.705008 
L 123.881816 201.571895 
L 124.224507 202.927295 
L 124.567198 203.766479 
L 124.909889 203.636665 
L 125.595271 204.613123 
L 125.937962 203.766479 
L 126.280653 204.106682 
L 126.966035 203.627713 
L 127.308726 202.481632 
L 127.651416 202.468262 
L 127.994107 201.098621 
L 128.336798 201.323925 
L 129.02218 197.531709 
L 129.707562 195.863834 
L 130.050253 193.487616 
L 130.392944 193.616763 
L 130.735635 191.956672 
L 131.078326 190.963683 
L 131.421016 188.397335 
L 132.449089 183.564821 
L 132.79178 183.266782 
L 134.162544 175.384522 
L 134.847926 172.681243 
L 136.56138 164.621161 
L 136.904071 164.467754 
L 137.246762 162.174943 
L 137.589453 161.524 
L 137.932144 159.450934 
L 138.274835 158.978395 
L 138.617526 157.567072 
L 138.960216 157.970901 
L 139.302907 155.124189 
L 139.645598 155.312307 
L 140.33098 153.353661 
L 140.673671 153.824085 
L 141.016362 152.812152 
L 141.359053 151.405908 
L 141.701744 151.876056 
L 142.044435 151.99779 
L 142.387126 151.007754 
L 142.729816 150.729548 
L 143.072507 150.801207 
L 143.415198 151.380722 
L 143.757889 153.168961 
L 144.443271 153.051424 
L 144.785962 152.68622 
L 145.471344 154.622541 
L 145.814035 155.972568 
L 146.156726 156.305624 
L 146.499416 156.988387 
L 146.842107 157.983391 
L 147.184798 158.283141 
L 147.527489 160.77355 
L 147.87018 160.300891 
L 148.555562 163.895588 
L 148.898253 164.882368 
L 149.240944 167.938541 
L 149.583635 167.777502 
L 149.926326 169.499383 
L 150.269016 172.291507 
L 150.611707 172.303945 
L 151.297089 176.213748 
L 151.982471 178.890955 
L 152.325162 182.133739 
L 152.667853 182.259151 
L 153.695926 187.237528 
L 154.038616 188.299979 
L 154.381307 190.494139 
L 154.723998 190.848432 
L 155.066689 193.186271 
L 155.40938 194.395953 
L 155.752071 196.159081 
L 156.094762 196.463012 
L 156.437453 197.876195 
L 156.780144 198.416962 
L 157.808216 203.359132 
L 158.150907 204.008202 
L 158.493598 203.699334 
L 158.836289 205.652496 
L 159.17898 205.03577 
L 159.521671 206.624068 
L 159.864362 206.388166 
L 160.207053 206.67397 
L 160.549744 207.590722 
L 160.892435 208.05343 
L 161.235126 208.094628 
L 161.577816 208.79625 
L 161.920507 208.035119 
L 162.263198 208.730918 
L 162.605889 208.51577 
L 162.94858 207.504139 
L 163.291271 206.964311 
L 163.633962 207.572494 
L 163.976653 207.47224 
L 164.319344 207.12135 
L 164.662035 205.372484 
L 165.004726 204.990808 
L 165.347416 202.887185 
L 165.690107 203.412848 
L 166.375489 201.372519 
L 167.060871 198.101641 
L 167.403562 197.810786 
L 167.746253 196.402226 
L 168.431635 192.329613 
L 168.774326 191.335051 
L 169.117016 189.26918 
L 169.459707 188.869619 
L 169.802398 186.588542 
L 170.145089 186.495807 
L 170.48778 183.812488 
L 170.830471 183.275177 
L 171.173162 181.025933 
L 171.515853 179.856816 
L 171.858544 177.021681 
L 172.201235 175.185507 
L 172.543926 175.70792 
L 173.229307 171.159613 
L 173.914689 168.442305 
L 174.25738 166.125818 
L 174.600071 164.878221 
L 175.628144 159.641656 
L 175.970835 159.372157 
L 176.998907 154.756314 
L 177.341598 154.760494 
L 177.684289 153.219334 
L 178.02698 152.446949 
L 178.369671 150.759055 
L 179.055053 148.566023 
L 179.397744 148.81153 
L 179.740435 146.732872 
L 180.083126 147.183441 
L 180.425816 146.07402 
L 180.768507 146.715869 
L 181.111198 144.410437 
L 181.79658 145.268424 
L 182.139271 144.892788 
L 182.481962 143.851579 
L 182.824653 144.649478 
L 183.167344 143.504358 
L 183.510035 143.590092 
L 183.852726 145.016577 
L 184.538107 144.436049 
L 184.880798 144.786073 
L 185.223489 145.537345 
L 185.56618 145.259887 
L 185.908871 146.456579 
L 186.251562 145.857489 
L 186.936944 147.378971 
L 187.622326 149.422826 
L 187.965016 149.612511 
L 189.33578 152.770175 
L 189.678471 154.054007 
L 190.021162 154.731231 
L 190.363853 156.239012 
L 191.049235 157.113283 
L 191.391926 157.970901 
L 191.734616 159.430203 
L 192.077307 159.848962 
L 192.419998 161.150848 
L 192.762689 161.747891 
L 193.10538 163.0249 
L 193.790762 163.273668 
L 194.133453 164.695792 
L 194.476144 165.238038 
L 194.818835 166.918626 
L 195.161526 166.997081 
L 195.504216 167.905508 
L 195.846907 168.322558 
L 196.189598 169.049299 
L 196.532289 168.458822 
L 196.87498 169.30531 
L 197.217671 169.292922 
L 197.903053 171.064353 
L 198.245744 171.064353 
L 198.588435 170.143539 
L 199.273816 171.822994 
L 199.616507 172.26663 
L 200.301889 171.321312 
L 200.64458 171.225951 
L 200.987271 171.756656 
L 201.329962 171.424965 
L 201.672653 170.667949 
L 202.015344 171.71934 
L 202.358035 171.225951 
L 202.700726 169.643905 
L 203.043416 169.676939 
L 203.386107 168.640507 
L 203.728798 168.054159 
L 204.071489 167.199413 
L 204.41418 167.732081 
L 204.756871 167.116828 
L 205.099562 165.444498 
L 205.442253 165.456886 
L 205.784944 163.90388 
L 206.127635 163.88315 
L 206.813016 161.383032 
L 207.155707 161.316693 
L 207.498398 160.446006 
L 207.841089 160.446006 
L 208.869162 156.755249 
L 209.211853 155.897562 
L 209.554544 155.387554 
L 210.239926 153.401865 
L 210.925307 152.371389 
L 211.610689 150.898157 
L 211.95338 150.872866 
L 212.296071 150.114124 
L 212.638762 148.388243 
L 212.981453 148.519462 
L 213.324144 148.422106 
L 214.009526 147.537436 
L 214.352216 146.422574 
L 214.694907 146.2653 
L 215.037598 146.469331 
L 215.380289 146.027263 
L 215.72298 146.167535 
L 216.065671 146.142031 
L 216.408362 144.777536 
L 216.751053 145.737969 
L 217.093744 146.116527 
L 217.436435 145.900175 
L 217.779126 146.086772 
L 218.121816 146.754125 
L 218.464507 145.848952 
L 218.807198 147.510742 
L 219.149889 147.503573 
L 219.49258 148.41364 
L 219.835271 148.980845 
L 220.177962 148.836927 
L 220.520653 151.47727 
L 220.863344 151.380722 
L 221.548726 153.055622 
L 221.891416 154.50967 
L 222.234107 154.760494 
L 222.576798 156.030853 
L 222.919489 156.40554 
L 223.604871 159.703848 
L 224.632944 163.09953 
L 225.318326 166.790621 
L 225.661016 167.467811 
L 226.003707 169.255759 
L 226.346398 170.221994 
L 226.689089 172.602467 
L 227.03178 173.945814 
L 227.374471 176.184725 
L 227.717162 177.005028 
L 229.087926 184.362393 
L 229.430616 185.404062 
L 229.773307 187.495733 
L 230.115998 188.113732 
L 230.458689 189.681494 
L 230.80138 192.136712 
L 231.144071 192.556807 
L 232.172144 196.328414 
L 232.857526 199.956492 
L 233.200216 201.492027 
L 233.542907 201.682822 
L 234.57098 205.927991 
L 234.913671 205.575718 
L 235.256362 206.737482 
L 235.599053 208.442528 
L 235.941744 208.236535 
L 236.284435 210.109424 
L 236.627126 209.966221 
L 236.969816 211.091239 
L 237.312507 211.364155 
L 237.655198 211.202614 
L 237.997889 211.928257 
L 238.34058 211.709143 
L 238.683271 212.262515 
L 239.025962 212.557581 
L 239.368653 213.753507 
L 239.711344 211.625227 
L 240.054035 212.398339 
L 240.396726 211.336183 
L 240.739416 213.037481 
L 241.082107 211.760425 
L 242.11018 211.471381 
L 242.452871 210.174096 
L 242.795562 210.308059 
L 243.138253 209.026171 
L 243.480944 208.51577 
L 244.166326 207.171477 
L 244.851707 204.824447 
L 245.194398 203.882864 
L 245.537089 203.511327 
L 246.222471 201.350431 
L 246.565162 199.916906 
L 246.907853 199.323108 
L 247.250544 197.815147 
L 247.935926 196.380517 
L 248.278616 195.001381 
L 248.621307 193.045488 
L 248.963998 192.252452 
L 249.64938 188.088335 
L 249.992071 188.117965 
L 251.020144 184.91931 
L 251.362835 182.593582 
L 251.705526 181.878734 
L 251.705526 181.878734 
" style="fill:none;stroke:#d62728;stroke-linecap:square;stroke-width:1.5;"/>
   </g>
   <g id="line2d_23">
    <defs>
     <path d="M 0 3 
C 0.795609 3 1.55874 2.683901 2.12132 2.12132 
C 2.683901 1.55874 3 0.795609 3 0 
C 3 -0.795609 2.683901 -1.55874 2.12132 -2.12132 
C 1.55874 -2.683901 0.795609 -3 0 -3 
C -0.795609 -3 -1.55874 -2.683901 -2.12132 -2.12132 
C -2.683901 -1.55874 -3 -0.795609 -3 0 
C -3 0.795609 -2.683901 1.55874 -2.12132 2.12132 
C -1.55874 2.683901 -0.795609 3 0 3 
z
" id="mcb2457e3ba" style="stroke:#1f77b4;"/>
    </defs>
    <g clip-path="url(#pb8726b7de2)">
     <use style="fill:#1f77b4;stroke:#1f77b4;" x="80.360071" xlink:href="#mcb2457e3ba" y="296.95689"/>
     <use style="fill:#1f77b4;stroke:#1f77b4;" x="91.181889" xlink:href="#mcb2457e3ba" y="244.95945"/>
     <use style="fill:#1f77b4;stroke:#1f77b4;" x="102.003707" xlink:href="#mcb2457e3ba" y="153.357857"/>
     <use style="fill:#1f77b4;stroke:#1f77b4;" x="112.825526" xlink:href="#mcb2457e3ba" y="60.54225"/>
     <use style="fill:#1f77b4;stroke:#1f77b4;" x="123.647344" xlink:href="#mcb2457e3ba" y="61.941772"/>
     <use style="fill:#1f77b4;stroke:#1f77b4;" x="134.469162" xlink:href="#mcb2457e3ba" y="132.311264"/>
     <use style="fill:#1f77b4;stroke:#1f77b4;" x="145.29098" xlink:href="#mcb2457e3ba" y="199.148697"/>
     <use style="fill:#1f77b4;stroke:#1f77b4;" x="156.112798" xlink:href="#mcb2457e3ba" y="238.74225"/>
     <use style="fill:#1f77b4;stroke:#1f77b4;" x="166.934616" xlink:href="#mcb2457e3ba" y="208.657897"/>
     <use style="fill:#1f77b4;stroke:#1f77b4;" x="177.756435" xlink:href="#mcb2457e3ba" y="130.520505"/>
     <use style="fill:#1f77b4;stroke:#1f77b4;" x="188.578253" xlink:href="#mcb2457e3ba" y="73.289546"/>
     <use style="fill:#1f77b4;stroke:#1f77b4;" x="199.400071" xlink:href="#mcb2457e3ba" y="59.476977"/>
     <use style="fill:#1f77b4;stroke:#1f77b4;" x="210.221889" xlink:href="#mcb2457e3ba" y="105.000865"/>
     <use style="fill:#1f77b4;stroke:#1f77b4;" x="221.043707" xlink:href="#mcb2457e3ba" y="159.803052"/>
     <use style="fill:#1f77b4;stroke:#1f77b4;" x="231.865526" xlink:href="#mcb2457e3ba" y="258.74025"/>
     <use style="fill:#1f77b4;stroke:#1f77b4;" x="242.687344" xlink:href="#mcb2457e3ba" y="261.86505"/>
     <use style="fill:#1f77b4;stroke:#1f77b4;" x="253.509162" xlink:href="#mcb2457e3ba" y="191.219656"/>
     <use style="fill:#1f77b4;stroke:#1f77b4;" x="264.33098" xlink:href="#mcb2457e3ba" y="90.503166"/>
     <use style="fill:#1f77b4;stroke:#1f77b4;" x="275.152798" xlink:href="#mcb2457e3ba" y="59.133621"/>
     <use style="fill:#1f77b4;stroke:#1f77b4;" x="285.974616" xlink:href="#mcb2457e3ba" y="100.93425"/>
     <use style="fill:#1f77b4;stroke:#1f77b4;" x="296.796435" xlink:href="#mcb2457e3ba" y="189.367937"/>
     <use style="fill:#1f77b4;stroke:#1f77b4;" x="307.618253" xlink:href="#mcb2457e3ba" y="264.595129"/>
     <use style="fill:#1f77b4;stroke:#1f77b4;" x="318.440071" xlink:href="#mcb2457e3ba" y="246.327577"/>
     <use style="fill:#1f77b4;stroke:#1f77b4;" x="329.261889" xlink:href="#mcb2457e3ba" y="179.484475"/>
     <use style="fill:#1f77b4;stroke:#1f77b4;" x="340.083707" xlink:href="#mcb2457e3ba" y="92.315646"/>
     <use style="fill:#1f77b4;stroke:#1f77b4;" x="350.905526" xlink:href="#mcb2457e3ba" y="54.87945"/>
     <use style="fill:#1f77b4;stroke:#1f77b4;" x="361.727344" xlink:href="#mcb2457e3ba" y="80.905788"/>
     <use style="fill:#1f77b4;stroke:#1f77b4;" x="372.549162" xlink:href="#mcb2457e3ba" y="152.769254"/>
     <use style="fill:#1f77b4;stroke:#1f77b4;" x="383.37098" xlink:href="#mcb2457e3ba" y="226.78665"/>
     <use style="fill:#1f77b4;stroke:#1f77b4;" x="394.192798" xlink:href="#mcb2457e3ba" y="243.72105"/>
     <use style="fill:#1f77b4;stroke:#1f77b4;" x="405.014616" xlink:href="#mcb2457e3ba" y="195.409827"/>
    </g>
   </g>
   <g id="line2d_24">
    <defs>
     <path d="M 0 3 
C 0.795609 3 1.55874 2.683901 2.12132 2.12132 
C 2.683901 1.55874 3 0.795609 3 0 
C 3 -0.795609 2.683901 -1.55874 2.12132 -2.12132 
C 1.55874 -2.683901 0.795609 -3 0 -3 
C -0.795609 -3 -1.55874 -2.683901 -2.12132 -2.12132 
C -2.683901 -1.55874 -3 -0.795609 -3 0 
C -3 0.795609 -2.683901 1.55874 -2.12132 2.12132 
C -1.55874 2.683901 -0.795609 3 0 3 
z
" id="mbbb2a9d153" style="stroke:#ff7f0e;"/>
    </defs>
    <g clip-path="url(#pb8726b7de2)">
     <use style="fill:#ff7f0e;stroke:#ff7f0e;" x="80.360071" xlink:href="#mbbb2a9d153" y="289.822418"/>
     <use style="fill:#ff7f0e;stroke:#ff7f0e;" x="91.181889" xlink:href="#mbbb2a9d153" y="214.38825"/>
     <use style="fill:#ff7f0e;stroke:#ff7f0e;" x="102.003707" xlink:href="#mbbb2a9d153" y="92.917298"/>
     <use style="fill:#ff7f0e;stroke:#ff7f0e;" x="112.825526" xlink:href="#mbbb2a9d153" y="124.737713"/>
     <use style="fill:#ff7f0e;stroke:#ff7f0e;" x="123.647344" xlink:href="#mbbb2a9d153" y="205.24065"/>
     <use style="fill:#ff7f0e;stroke:#ff7f0e;" x="134.469162" xlink:href="#mbbb2a9d153" y="167.797989"/>
     <use style="fill:#ff7f0e;stroke:#ff7f0e;" x="145.29098" xlink:href="#mbbb2a9d153" y="148.16636"/>
     <use style="fill:#ff7f0e;stroke:#ff7f0e;" x="156.112798" xlink:href="#mbbb2a9d153" y="194.566551"/>
     <use style="fill:#ff7f0e;stroke:#ff7f0e;" x="166.934616" xlink:href="#mbbb2a9d153" y="165.303567"/>
     <use style="fill:#ff7f0e;stroke:#ff7f0e;" x="177.756435" xlink:href="#mbbb2a9d153" y="161.013662"/>
     <use style="fill:#ff7f0e;stroke:#ff7f0e;" x="188.578253" xlink:href="#mbbb2a9d153" y="134.417949"/>
     <use style="fill:#ff7f0e;stroke:#ff7f0e;" x="199.400071" xlink:href="#mbbb2a9d153" y="149.621285"/>
     <use style="fill:#ff7f0e;stroke:#ff7f0e;" x="210.221889" xlink:href="#mbbb2a9d153" y="144.483829"/>
     <use style="fill:#ff7f0e;stroke:#ff7f0e;" x="221.043707" xlink:href="#mbbb2a9d153" y="160.227635"/>
     <use style="fill:#ff7f0e;stroke:#ff7f0e;" x="231.865526" xlink:href="#mbbb2a9d153" y="190.245024"/>
     <use style="fill:#ff7f0e;stroke:#ff7f0e;" x="242.687344" xlink:href="#mbbb2a9d153" y="224.744024"/>
    </g>
   </g>
   <g id="patch_3">
    <path d="M 64.127344 297.54825 
L 64.127344 31.43625 
" style="fill:none;stroke:#000000;stroke-linecap:square;stroke-linejoin:miter;stroke-width:0.8;"/>
   </g>
   <g id="patch_4">
    <path d="M 421.247344 297.54825 
L 421.247344 31.43625 
" style="fill:none;stroke:#000000;stroke-linecap:square;stroke-linejoin:miter;stroke-width:0.8;"/>
   </g>
   <g id="patch_5">
    <path d="M 64.127344 297.54825 
L 421.247344 297.54825 
" style="fill:none;stroke:#000000;stroke-linecap:square;stroke-linejoin:miter;stroke-width:0.8;"/>
   </g>
   <g id="patch_6">
    <path d="M 64.127344 31.43625 
L 421.247344 31.43625 
" style="fill:none;stroke:#000000;stroke-linecap:square;stroke-linejoin:miter;stroke-width:0.8;"/>
   </g>
   <g id="text_13">
    <!-- Y heating -->
    <defs>
     <path d="M -0.203125 72.90625 
L 10.40625 72.90625 
L 30.609375 42.921875 
L 50.6875 72.90625 
L 61.28125 72.90625 
L 35.5 34.71875 
L 35.5 0 
L 25.59375 0 
L 25.59375 34.71875 
z
" id="DejaVuSans-59"/>
     <path d="M 54.890625 33.015625 
L 54.890625 0 
L 45.90625 0 
L 45.90625 32.71875 
Q 45.90625 40.484375 42.875 44.328125 
Q 39.84375 48.1875 33.796875 48.1875 
Q 26.515625 48.1875 22.3125 43.546875 
Q 18.109375 38.921875 18.109375 30.90625 
L 18.109375 0 
L 9.078125 0 
L 9.078125 75.984375 
L 18.109375 75.984375 
L 18.109375 46.1875 
Q 21.34375 51.125 25.703125 53.5625 
Q 30.078125 56 35.796875 56 
Q 45.21875 56 50.046875 50.171875 
Q 54.890625 44.34375 54.890625 33.015625 
z
" id="DejaVuSans-68"/>
     <path d="M 18.3125 70.21875 
L 18.3125 54.6875 
L 36.8125 54.6875 
L 36.8125 47.703125 
L 18.3125 47.703125 
L 18.3125 18.015625 
Q 18.3125 11.328125 20.140625 9.421875 
Q 21.96875 7.515625 27.59375 7.515625 
L 36.8125 7.515625 
L 36.8125 0 
L 27.59375 0 
Q 17.1875 0 13.234375 3.875 
Q 9.28125 7.765625 9.28125 18.015625 
L 9.28125 47.703125 
L 2.6875 47.703125 
L 2.6875 54.6875 
L 9.28125 54.6875 
L 9.28125 70.21875 
z
" id="DejaVuSans-74"/>
     <path d="M 54.890625 33.015625 
L 54.890625 0 
L 45.90625 0 
L 45.90625 32.71875 
Q 45.90625 40.484375 42.875 44.328125 
Q 39.84375 48.1875 33.796875 48.1875 
Q 26.515625 48.1875 22.3125 43.546875 
Q 18.109375 38.921875 18.109375 30.90625 
L 18.109375 0 
L 9.078125 0 
L 9.078125 54.6875 
L 18.109375 54.6875 
L 18.109375 46.1875 
Q 21.34375 51.125 25.703125 53.5625 
Q 30.078125 56 35.796875 56 
Q 45.21875 56 50.046875 50.171875 
Q 54.890625 44.34375 54.890625 33.015625 
z
" id="DejaVuSans-6e"/>
     <path d="M 45.40625 27.984375 
Q 45.40625 37.75 41.375 43.109375 
Q 37.359375 48.484375 30.078125 48.484375 
Q 22.859375 48.484375 18.828125 43.109375 
Q 14.796875 37.75 14.796875 27.984375 
Q 14.796875 18.265625 18.828125 12.890625 
Q 22.859375 7.515625 30.078125 7.515625 
Q 37.359375 7.515625 41.375 12.890625 
Q 45.40625 18.265625 45.40625 27.984375 
z
M 54.390625 6.78125 
Q 54.390625 -7.171875 48.1875 -13.984375 
Q 42 -20.796875 29.203125 -20.796875 
Q 24.46875 -20.796875 20.265625 -20.09375 
Q 16.0625 -19.390625 12.109375 -17.921875 
L 12.109375 -9.1875 
Q 16.0625 -11.328125 19.921875 -12.34375 
Q 23.78125 -13.375 27.78125 -13.375 
Q 36.625 -13.375 41.015625 -8.765625 
Q 45.40625 -4.15625 45.40625 5.171875 
L 45.40625 9.625 
Q 42.625 4.78125 38.28125 2.390625 
Q 33.9375 0 27.875 0 
Q 17.828125 0 11.671875 7.65625 
Q 5.515625 15.328125 5.515625 27.984375 
Q 5.515625 40.671875 11.671875 48.328125 
Q 17.828125 56 27.875 56 
Q 33.9375 56 38.28125 53.609375 
Q 42.625 51.21875 45.40625 46.390625 
L 45.40625 54.6875 
L 54.390625 54.6875 
z
" id="DejaVuSans-67"/>
    </defs>
    <g transform="translate(185.940469 25.43625)scale(0.24 -0.24)">
     <use xlink:href="#DejaVuSans-59"/>
     <use x="61.083984" xlink:href="#DejaVuSans-20"/>
     <use x="92.871094" xlink:href="#DejaVuSans-68"/>
     <use x="156.25" xlink:href="#DejaVuSans-65"/>
     <use x="217.773438" xlink:href="#DejaVuSans-61"/>
     <use x="279.052734" xlink:href="#DejaVuSans-74"/>
     <use x="318.261719" xlink:href="#DejaVuSans-69"/>
     <use x="346.044922" xlink:href="#DejaVuSans-6e"/>
     <use x="409.423828" xlink:href="#DejaVuSans-67"/>
    </g>
   </g>
   <g id="legend_1">
    <g id="patch_7">
     <path d="M 293.656719 106.14875 
L 407.247344 106.14875 
Q 411.247344 106.14875 411.247344 102.14875 
L 411.247344 45.43625 
Q 411.247344 41.43625 407.247344 41.43625 
L 293.656719 41.43625 
Q 289.656719 41.43625 289.656719 45.43625 
L 289.656719 102.14875 
Q 289.656719 106.14875 293.656719 106.14875 
z
" style="fill:#ffffff;opacity:0.8;stroke:#cccccc;stroke-linejoin:miter;"/>
    </g>
    <g id="LineCollection_3">
     <path d="M 317.656719 67.633125 
L 317.656719 47.633125 
" style="fill:none;stroke:#1f77b4;stroke-width:1.5;"/>
    </g>
    <g id="line2d_25"/>
    <g id="line2d_26">
     <g>
      <use style="fill:#1f77b4;stroke:#1f77b4;" x="317.656719" xlink:href="#mcb2457e3ba" y="57.633125"/>
     </g>
    </g>
    <g id="text_14">
     <!-- Cold -->
     <defs>
      <path d="M 67 4 
Q 61.8125 1.3125 56.203125 -0.046875 
Q 50.59375 -1.421875 44.484375 -1.421875 
Q 26.265625 -1.421875 15.625 8.765625 
Q 4.984375 18.953125 4.984375 36.375 
Q 4.984375 53.859375 15.625 64.03125 
Q 26.265625 74.21875 44.484375 74.21875 
Q 50.59375 74.21875 56.203125 72.84375 
Q 61.8125 71.484375 67 68.796875 
L 67 53.71875 
Q 61.765625 57.28125 56.6875 58.9375 
Q 51.609375 60.59375 46 60.59375 
Q 35.9375 60.59375 30.171875 54.140625 
Q 24.421875 47.703125 24.421875 36.375 
Q 24.421875 25.09375 30.171875 18.640625 
Q 35.9375 12.203125 46 12.203125 
Q 51.609375 12.203125 56.6875 13.859375 
Q 61.765625 15.53125 67 19.09375 
z
" id="DejaVuSans-Bold-43"/>
      <path d="M 34.421875 43.5 
Q 28.609375 43.5 25.5625 39.328125 
Q 22.515625 35.15625 22.515625 27.296875 
Q 22.515625 19.4375 25.5625 15.25 
Q 28.609375 11.078125 34.421875 11.078125 
Q 40.140625 11.078125 43.15625 15.25 
Q 46.1875 19.4375 46.1875 27.296875 
Q 46.1875 35.15625 43.15625 39.328125 
Q 40.140625 43.5 34.421875 43.5 
z
M 34.421875 56 
Q 48.53125 56 56.46875 48.375 
Q 64.40625 40.765625 64.40625 27.296875 
Q 64.40625 13.8125 56.46875 6.1875 
Q 48.53125 -1.421875 34.421875 -1.421875 
Q 20.265625 -1.421875 12.28125 6.1875 
Q 4.296875 13.8125 4.296875 27.296875 
Q 4.296875 40.765625 12.28125 48.375 
Q 20.265625 56 34.421875 56 
z
" id="DejaVuSans-Bold-6f"/>
      <path d="M 8.40625 75.984375 
L 25.875 75.984375 
L 25.875 0 
L 8.40625 0 
z
" id="DejaVuSans-Bold-6c"/>
      <path d="M 45.609375 46.6875 
L 45.609375 75.984375 
L 63.1875 75.984375 
L 63.1875 0 
L 45.609375 0 
L 45.609375 7.90625 
Q 42 3.078125 37.640625 0.828125 
Q 33.296875 -1.421875 27.59375 -1.421875 
Q 17.484375 -1.421875 10.984375 6.609375 
Q 4.5 14.65625 4.5 27.296875 
Q 4.5 39.9375 10.984375 47.96875 
Q 17.484375 56 27.59375 56 
Q 33.25 56 37.625 53.734375 
Q 42 51.46875 45.609375 46.6875 
z
M 34.078125 11.28125 
Q 39.703125 11.28125 42.65625 15.375 
Q 45.609375 19.484375 45.609375 27.296875 
Q 45.609375 35.109375 42.65625 39.203125 
Q 39.703125 43.3125 34.078125 43.3125 
Q 28.515625 43.3125 25.5625 39.203125 
Q 22.609375 35.109375 22.609375 27.296875 
Q 22.609375 19.484375 25.5625 15.375 
Q 28.515625 11.28125 34.078125 11.28125 
z
" id="DejaVuSans-Bold-64"/>
     </defs>
     <g transform="translate(353.656719 64.633125)scale(0.2 -0.2)">
      <use xlink:href="#DejaVuSans-Bold-43"/>
      <use x="73.388672" xlink:href="#DejaVuSans-Bold-6f"/>
      <use x="142.089844" xlink:href="#DejaVuSans-Bold-6c"/>
      <use x="176.367188" xlink:href="#DejaVuSans-Bold-64"/>
     </g>
    </g>
    <g id="LineCollection_4">
     <path d="M 317.656719 96.989375 
L 317.656719 76.989375 
" style="fill:none;stroke:#ff7f0e;stroke-width:1.5;"/>
    </g>
    <g id="line2d_27"/>
    <g id="line2d_28">
     <g>
      <use style="fill:#ff7f0e;stroke:#ff7f0e;" x="317.656719" xlink:href="#mbbb2a9d153" y="86.989375"/>
     </g>
    </g>
    <g id="text_15">
     <!-- Hot -->
     <defs>
      <path d="M 9.1875 72.90625 
L 27.984375 72.90625 
L 27.984375 45.125 
L 55.71875 45.125 
L 55.71875 72.90625 
L 74.515625 72.90625 
L 74.515625 0 
L 55.71875 0 
L 55.71875 30.90625 
L 27.984375 30.90625 
L 27.984375 0 
L 9.1875 0 
z
" id="DejaVuSans-Bold-48"/>
      <path d="M 27.484375 70.21875 
L 27.484375 54.6875 
L 45.515625 54.6875 
L 45.515625 42.1875 
L 27.484375 42.1875 
L 27.484375 19 
Q 27.484375 15.1875 29 13.84375 
Q 30.515625 12.5 35.015625 12.5 
L 44 12.5 
L 44 0 
L 29 0 
Q 18.65625 0 14.328125 4.3125 
Q 10.015625 8.640625 10.015625 19 
L 10.015625 42.1875 
L 1.3125 42.1875 
L 1.3125 54.6875 
L 10.015625 54.6875 
L 10.015625 70.21875 
z
" id="DejaVuSans-Bold-74"/>
     </defs>
     <g transform="translate(353.656719 93.989375)scale(0.2 -0.2)">
      <use xlink:href="#DejaVuSans-Bold-48"/>
      <use x="83.691406" xlink:href="#DejaVuSans-Bold-6f"/>
      <use x="152.392578" xlink:href="#DejaVuSans-Bold-74"/>
     </g>
    </g>
   </g>
  </g>
 </g>
 <defs>
  <clipPath id="pb8726b7de2">
   <rect height="266.112" width="357.12" x="64.127344" y="31.43625"/>
  </clipPath>
 </defs>
</svg>
