<?xml version="1.0" encoding="utf-8" standalone="no"?>
<!DOCTYPE svg PUBLIC "-//W3C//DTD SVG 1.1//EN"
  "http://www.w3.org/Graphics/SVG/1.1/DTD/svg11.dtd">
<!-- Created with matplotlib (http://matplotlib.org/) -->
<svg height="248pt" version="1.1" viewBox="0 0 631 248" width="631pt" xmlns="http://www.w3.org/2000/svg" xmlns:xlink="http://www.w3.org/1999/xlink">
 <defs>
  <style type="text/css">
*{stroke-linecap:butt;stroke-linejoin:round;stroke-miterlimit:100000;}
  </style>
 </defs>
 <g id="figure_1">
  <g id="patch_1">
   <path d="M 0 248.750625 
L 631.345312 248.750625 
L 631.345312 -0 
L 0 -0 
z
" style="fill:none;"/>
  </g>
  <g id="axes_1">
   <g id="patch_2">
    <path d="M 66.145313 198.677188 
L 624.145313 198.677188 
L 624.145313 25.877187 
L 66.145313 25.877187 
z
" style="fill:none;"/>
   </g>
   <g id="LineCollection_1">
    <path clip-path="url(#pa89be0ccb4)" d="M 77.305312 195.554258 
L 77.305312 186.371546 
" style="fill:none;stroke:#000000;"/>
    <path clip-path="url(#pa89be0ccb4)" d="M 88.465312 197.547266 
L 88.465312 191.020668 
" style="fill:none;stroke:#000000;"/>
    <path clip-path="url(#pa89be0ccb4)" d="M 99.625313 195.764797 
L 99.625313 187.189578 
" style="fill:none;stroke:#000000;"/>
    <path clip-path="url(#pa89be0ccb4)" d="M 110.785313 167.009103 
L 110.785313 145.516181 
" style="fill:none;stroke:#000000;"/>
    <path clip-path="url(#pa89be0ccb4)" d="M 121.945312 147.540788 
L 121.945312 122.159533 
" style="fill:none;stroke:#000000;"/>
    <path clip-path="url(#pa89be0ccb4)" d="M 133.105312 176.51931 
L 133.105312 158.269547 
" style="fill:none;stroke:#000000;"/>
    <path clip-path="url(#pa89be0ccb4)" d="M 144.265313 198.677188 
L 144.265313 195.41681 
" style="fill:none;stroke:#000000;"/>
    <path clip-path="url(#pa89be0ccb4)" d="M 155.425312 195.525781 
L 155.425312 186.261027 
" style="fill:none;stroke:#000000;"/>
    <path clip-path="url(#pa89be0ccb4)" d="M 166.585312 197.517487 
L 166.585312 190.821236 
" style="fill:none;stroke:#000000;"/>
    <path clip-path="url(#pa89be0ccb4)" d="M 177.745313 193.555567 
L 177.745313 182.943635 
" style="fill:none;stroke:#000000;"/>
    <path clip-path="url(#pa89be0ccb4)" d="M 188.905313 193.510452 
L 188.905313 182.807401 
" style="fill:none;stroke:#000000;"/>
    <path clip-path="url(#pa89be0ccb4)" d="M 200.065312 193.850583 
L 200.065312 183.8355 
" style="fill:none;stroke:#000000;"/>
    <path clip-path="url(#pa89be0ccb4)" d="M 211.225313 195.437145 
L 211.225313 185.91723 
" style="fill:none;stroke:#000000;"/>
    <path clip-path="url(#pa89be0ccb4)" d="M 222.385313 168.085701 
L 222.385313 146.191751 
" style="fill:none;stroke:#000000;"/>
    <path clip-path="url(#pa89be0ccb4)" d="M 233.545313 99.075486 
L 233.545313 68.871992 
" style="fill:none;stroke:#000000;"/>
    <path clip-path="url(#pa89be0ccb4)" d="M 244.705312 173.929259 
L 244.705312 154.900978 
" style="fill:none;stroke:#000000;"/>
    <path clip-path="url(#pa89be0ccb4)" d="M 255.865313 195.740045 
L 255.865313 187.093321 
" style="fill:none;stroke:#000000;"/>
    <path clip-path="url(#pa89be0ccb4)" d="M 267.025313 193.966864 
L 267.025313 184.187511 
" style="fill:none;stroke:#000000;"/>
    <path clip-path="url(#pa89be0ccb4)" d="M 278.185312 198.677188 
L 278.185312 195.506545 
" style="fill:none;stroke:#000000;"/>
    <path clip-path="url(#pa89be0ccb4)" d="M 289.345313 191.374759 
L 289.345313 179.395001 
" style="fill:none;stroke:#000000;"/>
    <path clip-path="url(#pa89be0ccb4)" d="M 300.505313 198.677188 
L 300.505313 195.867431 
" style="fill:none;stroke:#000000;"/>
    <path clip-path="url(#pa89be0ccb4)" d="M 311.665313 197.486095 
L 311.665313 190.611137 
" style="fill:none;stroke:#000000;"/>
    <path clip-path="url(#pa89be0ccb4)" d="M 322.825312 197.636357 
L 322.825312 191.618018 
" style="fill:none;stroke:#000000;"/>
    <path clip-path="url(#pa89be0ccb4)" d="M 333.985313 186.676126 
L 333.985313 172.278249 
" style="fill:none;stroke:#000000;"/>
    <path clip-path="url(#pa89be0ccb4)" d="M 345.145313 183.855247 
L 345.145313 168.025444 
" style="fill:none;stroke:#000000;"/>
    <path clip-path="url(#pa89be0ccb4)" d="M 356.305312 185.015539 
L 356.305312 168.719418 
" style="fill:none;stroke:#000000;"/>
    <path clip-path="url(#pa89be0ccb4)" d="M 367.465312 198.677188 
L 367.465312 195.321848 
" style="fill:none;stroke:#000000;"/>
    <path clip-path="url(#pa89be0ccb4)" d="M 378.625313 195.609696 
L 378.625313 186.586784 
" style="fill:none;stroke:#000000;"/>
    <path clip-path="url(#pa89be0ccb4)" d="M 389.785313 197.566284 
L 389.785313 191.148091 
" style="fill:none;stroke:#000000;"/>
    <path clip-path="url(#pa89be0ccb4)" d="M 400.945312 197.486095 
L 400.945312 190.611137 
" style="fill:none;stroke:#000000;"/>
    <path clip-path="url(#pa89be0ccb4)" d="M 412.105313 195.174431 
L 412.105313 184.899944 
" style="fill:none;stroke:#000000;"/>
    <path clip-path="url(#pa89be0ccb4)" d="M 423.265313 195.525781 
L 423.265313 186.261027 
" style="fill:none;stroke:#000000;"/>
    <path clip-path="url(#pa89be0ccb4)" d="M 434.425312 197.239649 
L 434.425312 188.966339 
" style="fill:none;stroke:#000000;"/>
    <path clip-path="url(#pa89be0ccb4)" d="M 445.585313 189.82649 
L 445.585313 177.594026 
" style="fill:none;stroke:#000000;"/>
    <path clip-path="url(#pa89be0ccb4)" d="M 456.745313 190.903193 
L 456.745313 178.174818 
" style="fill:none;stroke:#000000;"/>
    <path clip-path="url(#pa89be0ccb4)" d="M 467.905313 190.605333 
L 467.905313 177.405646 
" style="fill:none;stroke:#000000;"/>
    <path clip-path="url(#pa89be0ccb4)" d="M 479.065313 194.865354 
L 479.065313 183.706413 
" style="fill:none;stroke:#000000;"/>
    <path clip-path="url(#pa89be0ccb4)" d="M 490.225313 197.452956 
L 490.225313 190.389492 
" style="fill:none;stroke:#000000;"/>
    <path clip-path="url(#pa89be0ccb4)" d="M 501.385313 197.61968 
L 501.385313 191.506123 
" style="fill:none;stroke:#000000;"/>
    <path clip-path="url(#pa89be0ccb4)" d="M 512.545313 195.609696 
L 512.545313 186.586784 
" style="fill:none;stroke:#000000;"/>
    <path clip-path="url(#pa89be0ccb4)" d="M 523.705313 197.486095 
L 523.705313 190.611137 
" style="fill:none;stroke:#000000;"/>
    <path clip-path="url(#pa89be0ccb4)" d="M 534.865313 198.677188 
L 534.865313 195.955928 
" style="fill:none;stroke:#000000;"/>
   </g>
   <g id="line2d_1">
    <defs>
     <path d="M 3 0 
L -3 -0 
" id="me5cae44c21" style="stroke:#000000;stroke-width:0.5;"/>
    </defs>
    <g clip-path="url(#pa89be0ccb4)">
     <use style="stroke:#000000;stroke-width:0.5;" x="77.3053125" xlink:href="#me5cae44c21" y="195.554257966"/>
     <use style="stroke:#000000;stroke-width:0.5;" x="88.4653125" xlink:href="#me5cae44c21" y="197.547266148"/>
     <use style="stroke:#000000;stroke-width:0.5;" x="99.6253125" xlink:href="#me5cae44c21" y="195.764797165"/>
     <use style="stroke:#000000;stroke-width:0.5;" x="110.7853125" xlink:href="#me5cae44c21" y="167.009103017"/>
     <use style="stroke:#000000;stroke-width:0.5;" x="121.9453125" xlink:href="#me5cae44c21" y="147.540788222"/>
     <use style="stroke:#000000;stroke-width:0.5;" x="133.1053125" xlink:href="#me5cae44c21" y="176.519310286"/>
     <use style="stroke:#000000;stroke-width:0.5;" x="144.2653125" xlink:href="#me5cae44c21" y="198.6771875"/>
     <use style="stroke:#000000;stroke-width:0.5;" x="155.4253125" xlink:href="#me5cae44c21" y="195.525780701"/>
     <use style="stroke:#000000;stroke-width:0.5;" x="166.5853125" xlink:href="#me5cae44c21" y="197.517486598"/>
     <use style="stroke:#000000;stroke-width:0.5;" x="177.7453125" xlink:href="#me5cae44c21" y="193.555567439"/>
     <use style="stroke:#000000;stroke-width:0.5;" x="188.9053125" xlink:href="#me5cae44c21" y="193.51045237"/>
     <use style="stroke:#000000;stroke-width:0.5;" x="200.0653125" xlink:href="#me5cae44c21" y="193.850582696"/>
     <use style="stroke:#000000;stroke-width:0.5;" x="211.2253125" xlink:href="#me5cae44c21" y="195.43714509"/>
     <use style="stroke:#000000;stroke-width:0.5;" x="222.3853125" xlink:href="#me5cae44c21" y="168.085700839"/>
     <use style="stroke:#000000;stroke-width:0.5;" x="233.5453125" xlink:href="#me5cae44c21" y="99.0754863917"/>
     <use style="stroke:#000000;stroke-width:0.5;" x="244.7053125" xlink:href="#me5cae44c21" y="173.929258698"/>
     <use style="stroke:#000000;stroke-width:0.5;" x="255.8653125" xlink:href="#me5cae44c21" y="195.740045441"/>
     <use style="stroke:#000000;stroke-width:0.5;" x="267.0253125" xlink:href="#me5cae44c21" y="193.966864089"/>
     <use style="stroke:#000000;stroke-width:0.5;" x="278.1853125" xlink:href="#me5cae44c21" y="198.6771875"/>
     <use style="stroke:#000000;stroke-width:0.5;" x="289.3453125" xlink:href="#me5cae44c21" y="191.37475905"/>
     <use style="stroke:#000000;stroke-width:0.5;" x="300.5053125" xlink:href="#me5cae44c21" y="198.6771875"/>
     <use style="stroke:#000000;stroke-width:0.5;" x="311.6653125" xlink:href="#me5cae44c21" y="197.486094848"/>
     <use style="stroke:#000000;stroke-width:0.5;" x="322.8253125" xlink:href="#me5cae44c21" y="197.636356559"/>
     <use style="stroke:#000000;stroke-width:0.5;" x="333.9853125" xlink:href="#me5cae44c21" y="186.676126414"/>
     <use style="stroke:#000000;stroke-width:0.5;" x="345.1453125" xlink:href="#me5cae44c21" y="183.85524689"/>
     <use style="stroke:#000000;stroke-width:0.5;" x="356.3053125" xlink:href="#me5cae44c21" y="185.01553915"/>
     <use style="stroke:#000000;stroke-width:0.5;" x="367.4653125" xlink:href="#me5cae44c21" y="198.6771875"/>
     <use style="stroke:#000000;stroke-width:0.5;" x="378.6253125" xlink:href="#me5cae44c21" y="195.6096959"/>
     <use style="stroke:#000000;stroke-width:0.5;" x="389.7853125" xlink:href="#me5cae44c21" y="197.566283815"/>
     <use style="stroke:#000000;stroke-width:0.5;" x="400.9453125" xlink:href="#me5cae44c21" y="197.486094848"/>
     <use style="stroke:#000000;stroke-width:0.5;" x="412.1053125" xlink:href="#me5cae44c21" y="195.17443119"/>
     <use style="stroke:#000000;stroke-width:0.5;" x="423.2653125" xlink:href="#me5cae44c21" y="195.525780701"/>
     <use style="stroke:#000000;stroke-width:0.5;" x="434.4253125" xlink:href="#me5cae44c21" y="197.239648907"/>
     <use style="stroke:#000000;stroke-width:0.5;" x="445.5853125" xlink:href="#me5cae44c21" y="189.826490277"/>
     <use style="stroke:#000000;stroke-width:0.5;" x="456.7453125" xlink:href="#me5cae44c21" y="190.9031933"/>
     <use style="stroke:#000000;stroke-width:0.5;" x="467.9053125" xlink:href="#me5cae44c21" y="190.605333208"/>
     <use style="stroke:#000000;stroke-width:0.5;" x="479.0653125" xlink:href="#me5cae44c21" y="194.865353672"/>
     <use style="stroke:#000000;stroke-width:0.5;" x="490.2253125" xlink:href="#me5cae44c21" y="197.452956335"/>
     <use style="stroke:#000000;stroke-width:0.5;" x="501.3853125" xlink:href="#me5cae44c21" y="197.619680402"/>
     <use style="stroke:#000000;stroke-width:0.5;" x="512.5453125" xlink:href="#me5cae44c21" y="195.6096959"/>
     <use style="stroke:#000000;stroke-width:0.5;" x="523.7053125" xlink:href="#me5cae44c21" y="197.486094848"/>
     <use style="stroke:#000000;stroke-width:0.5;" x="534.8653125" xlink:href="#me5cae44c21" y="198.6771875"/>
    </g>
   </g>
   <g id="line2d_2">
    <g clip-path="url(#pa89be0ccb4)">
     <use style="stroke:#000000;stroke-width:0.5;" x="77.3053125" xlink:href="#me5cae44c21" y="186.371545606"/>
     <use style="stroke:#000000;stroke-width:0.5;" x="88.4653125" xlink:href="#me5cae44c21" y="191.020668174"/>
     <use style="stroke:#000000;stroke-width:0.5;" x="99.6253125" xlink:href="#me5cae44c21" y="187.189577835"/>
     <use style="stroke:#000000;stroke-width:0.5;" x="110.7853125" xlink:href="#me5cae44c21" y="145.516181074"/>
     <use style="stroke:#000000;stroke-width:0.5;" x="121.9453125" xlink:href="#me5cae44c21" y="122.159532724"/>
     <use style="stroke:#000000;stroke-width:0.5;" x="133.1053125" xlink:href="#me5cae44c21" y="158.269547473"/>
     <use style="stroke:#000000;stroke-width:0.5;" x="144.2653125" xlink:href="#me5cae44c21" y="195.416810142"/>
     <use style="stroke:#000000;stroke-width:0.5;" x="155.4253125" xlink:href="#me5cae44c21" y="186.261026732"/>
     <use style="stroke:#000000;stroke-width:0.5;" x="166.5853125" xlink:href="#me5cae44c21" y="190.821236228"/>
     <use style="stroke:#000000;stroke-width:0.5;" x="177.7453125" xlink:href="#me5cae44c21" y="182.943635147"/>
     <use style="stroke:#000000;stroke-width:0.5;" x="188.9053125" xlink:href="#me5cae44c21" y="182.807400891"/>
     <use style="stroke:#000000;stroke-width:0.5;" x="200.0653125" xlink:href="#me5cae44c21" y="183.835499621"/>
     <use style="stroke:#000000;stroke-width:0.5;" x="211.2253125" xlink:href="#me5cae44c21" y="185.91722991"/>
     <use style="stroke:#000000;stroke-width:0.5;" x="222.3853125" xlink:href="#me5cae44c21" y="146.191751084"/>
     <use style="stroke:#000000;stroke-width:0.5;" x="233.5453125" xlink:href="#me5cae44c21" y="68.8719920566"/>
     <use style="stroke:#000000;stroke-width:0.5;" x="244.7053125" xlink:href="#me5cae44c21" y="154.900978371"/>
     <use style="stroke:#000000;stroke-width:0.5;" x="255.8653125" xlink:href="#me5cae44c21" y="187.093321156"/>
     <use style="stroke:#000000;stroke-width:0.5;" x="267.0253125" xlink:href="#me5cae44c21" y="184.187510911"/>
     <use style="stroke:#000000;stroke-width:0.5;" x="278.1853125" xlink:href="#me5cae44c21" y="195.506545298"/>
     <use style="stroke:#000000;stroke-width:0.5;" x="289.3453125" xlink:href="#me5cae44c21" y="179.395000565"/>
     <use style="stroke:#000000;stroke-width:0.5;" x="300.5053125" xlink:href="#me5cae44c21" y="195.867431402"/>
     <use style="stroke:#000000;stroke-width:0.5;" x="311.6653125" xlink:href="#me5cae44c21" y="190.611137294"/>
     <use style="stroke:#000000;stroke-width:0.5;" x="322.8253125" xlink:href="#me5cae44c21" y="191.618018441"/>
     <use style="stroke:#000000;stroke-width:0.5;" x="333.9853125" xlink:href="#me5cae44c21" y="172.278248586"/>
     <use style="stroke:#000000;stroke-width:0.5;" x="345.1453125" xlink:href="#me5cae44c21" y="168.0254439"/>
     <use style="stroke:#000000;stroke-width:0.5;" x="356.3053125" xlink:href="#me5cae44c21" y="168.719418374"/>
     <use style="stroke:#000000;stroke-width:0.5;" x="367.4653125" xlink:href="#me5cae44c21" y="195.321847694"/>
     <use style="stroke:#000000;stroke-width:0.5;" x="378.6253125" xlink:href="#me5cae44c21" y="186.586784363"/>
     <use style="stroke:#000000;stroke-width:0.5;" x="389.7853125" xlink:href="#me5cae44c21" y="191.148091185"/>
     <use style="stroke:#000000;stroke-width:0.5;" x="400.9453125" xlink:href="#me5cae44c21" y="190.611137294"/>
     <use style="stroke:#000000;stroke-width:0.5;" x="412.1053125" xlink:href="#me5cae44c21" y="184.89994381"/>
     <use style="stroke:#000000;stroke-width:0.5;" x="423.2653125" xlink:href="#me5cae44c21" y="186.261026732"/>
     <use style="stroke:#000000;stroke-width:0.5;" x="434.4253125" xlink:href="#me5cae44c21" y="188.966338996"/>
     <use style="stroke:#000000;stroke-width:0.5;" x="445.5853125" xlink:href="#me5cae44c21" y="177.594026456"/>
     <use style="stroke:#000000;stroke-width:0.5;" x="456.7453125" xlink:href="#me5cae44c21" y="178.174818064"/>
     <use style="stroke:#000000;stroke-width:0.5;" x="467.9053125" xlink:href="#me5cae44c21" y="177.405645566"/>
     <use style="stroke:#000000;stroke-width:0.5;" x="479.0653125" xlink:href="#me5cae44c21" y="183.706412632"/>
     <use style="stroke:#000000;stroke-width:0.5;" x="490.2253125" xlink:href="#me5cae44c21" y="190.38949206"/>
     <use style="stroke:#000000;stroke-width:0.5;" x="501.3853125" xlink:href="#me5cae44c21" y="191.506123169"/>
     <use style="stroke:#000000;stroke-width:0.5;" x="512.5453125" xlink:href="#me5cae44c21" y="186.586784363"/>
     <use style="stroke:#000000;stroke-width:0.5;" x="523.7053125" xlink:href="#me5cae44c21" y="190.611137294"/>
     <use style="stroke:#000000;stroke-width:0.5;" x="534.8653125" xlink:href="#me5cae44c21" y="195.955927657"/>
    </g>
   </g>
   <g id="line2d_3">
    <path clip-path="url(#pa89be0ccb4)" d="M 77.305312 190.962902 
L 88.465312 194.283967 
L 99.625313 191.477188 
L 110.785313 156.262642 
L 121.945312 134.85016 
L 133.105312 167.394429 
L 144.265313 197.046999 
L 155.425312 190.893404 
L 166.585312 194.169361 
L 177.745313 188.249601 
L 188.905313 188.158927 
L 200.065312 188.843041 
L 211.225313 190.677188 
L 222.385313 157.138726 
L 233.545313 83.973739 
L 244.705312 164.415119 
L 255.865313 191.416683 
L 267.025313 189.077188 
L 278.185312 197.091866 
L 289.345313 185.38488 
L 300.505313 197.272309 
L 311.665313 194.048616 
L 322.825312 194.627187 
L 333.985313 179.477188 
L 345.145313 175.940345 
L 356.305312 176.867479 
L 367.465312 196.999518 
L 378.625313 191.09824 
L 389.785313 194.357188 
L 400.945312 194.048616 
L 412.105313 190.037188 
L 423.265313 190.893404 
L 434.425312 193.102994 
L 445.585313 183.710258 
L 456.745313 184.539006 
L 467.905313 184.005489 
L 479.065313 189.285883 
L 490.225313 193.921224 
L 501.385313 194.562902 
L 512.545313 191.09824 
L 523.705313 194.048616 
L 534.865313 197.316558 
" style="fill:none;stroke:#000000;stroke-linecap:square;"/>
    <defs>
     <path d="M 0 3 
C 0.795609 3 1.55874 2.683901 2.12132 2.12132 
C 2.683901 1.55874 3 0.795609 3 0 
C 3 -0.795609 2.683901 -1.55874 2.12132 -2.12132 
C 1.55874 -2.683901 0.795609 -3 0 -3 
C -0.795609 -3 -1.55874 -2.683901 -2.12132 -2.12132 
C -2.683901 -1.55874 -3 -0.795609 -3 0 
C -3 0.795609 -2.683901 1.55874 -2.12132 2.12132 
C -1.55874 2.683901 -0.795609 3 0 3 
z
" id="ma830311b55" style="stroke:#000000;stroke-width:0.5;"/>
    </defs>
    <g clip-path="url(#pa89be0ccb4)">
     <use style="stroke:#000000;stroke-width:0.5;" x="77.3053125" xlink:href="#ma830311b55" y="190.962901786"/>
     <use style="stroke:#000000;stroke-width:0.5;" x="88.4653125" xlink:href="#ma830311b55" y="194.283967161"/>
     <use style="stroke:#000000;stroke-width:0.5;" x="99.6253125" xlink:href="#ma830311b55" y="191.4771875"/>
     <use style="stroke:#000000;stroke-width:0.5;" x="110.7853125" xlink:href="#ma830311b55" y="156.262642045"/>
     <use style="stroke:#000000;stroke-width:0.5;" x="121.9453125" xlink:href="#ma830311b55" y="134.850160473"/>
     <use style="stroke:#000000;stroke-width:0.5;" x="133.1053125" xlink:href="#ma830311b55" y="167.394428879"/>
     <use style="stroke:#000000;stroke-width:0.5;" x="144.2653125" xlink:href="#ma830311b55" y="197.046998821"/>
     <use style="stroke:#000000;stroke-width:0.5;" x="155.4253125" xlink:href="#ma830311b55" y="190.893403716"/>
     <use style="stroke:#000000;stroke-width:0.5;" x="166.5853125" xlink:href="#ma830311b55" y="194.169361413"/>
     <use style="stroke:#000000;stroke-width:0.5;" x="177.7453125" xlink:href="#ma830311b55" y="188.249601293"/>
     <use style="stroke:#000000;stroke-width:0.5;" x="188.9053125" xlink:href="#ma830311b55" y="188.15892663"/>
     <use style="stroke:#000000;stroke-width:0.5;" x="200.0653125" xlink:href="#ma830311b55" y="188.843041159"/>
     <use style="stroke:#000000;stroke-width:0.5;" x="211.2253125" xlink:href="#ma830311b55" y="190.6771875"/>
     <use style="stroke:#000000;stroke-width:0.5;" x="222.3853125" xlink:href="#ma830311b55" y="157.138725962"/>
     <use style="stroke:#000000;stroke-width:0.5;" x="233.5453125" xlink:href="#ma830311b55" y="83.9737392241"/>
     <use style="stroke:#000000;stroke-width:0.5;" x="244.7053125" xlink:href="#ma830311b55" y="164.415118534"/>
     <use style="stroke:#000000;stroke-width:0.5;" x="255.8653125" xlink:href="#ma830311b55" y="191.416683298"/>
     <use style="stroke:#000000;stroke-width:0.5;" x="267.0253125" xlink:href="#ma830311b55" y="189.0771875"/>
     <use style="stroke:#000000;stroke-width:0.5;" x="278.1853125" xlink:href="#ma830311b55" y="197.091866399"/>
     <use style="stroke:#000000;stroke-width:0.5;" x="289.3453125" xlink:href="#ma830311b55" y="185.384879808"/>
     <use style="stroke:#000000;stroke-width:0.5;" x="300.5053125" xlink:href="#ma830311b55" y="197.272309451"/>
     <use style="stroke:#000000;stroke-width:0.5;" x="311.6653125" xlink:href="#ma830311b55" y="194.048616071"/>
     <use style="stroke:#000000;stroke-width:0.5;" x="322.8253125" xlink:href="#ma830311b55" y="194.6271875"/>
     <use style="stroke:#000000;stroke-width:0.5;" x="333.9853125" xlink:href="#ma830311b55" y="179.4771875"/>
     <use style="stroke:#000000;stroke-width:0.5;" x="345.1453125" xlink:href="#ma830311b55" y="175.940345395"/>
     <use style="stroke:#000000;stroke-width:0.5;" x="356.3053125" xlink:href="#ma830311b55" y="176.867478762"/>
     <use style="stroke:#000000;stroke-width:0.5;" x="367.4653125" xlink:href="#ma830311b55" y="196.999517597"/>
     <use style="stroke:#000000;stroke-width:0.5;" x="378.6253125" xlink:href="#ma830311b55" y="191.098240132"/>
     <use style="stroke:#000000;stroke-width:0.5;" x="389.7853125" xlink:href="#ma830311b55" y="194.3571875"/>
     <use style="stroke:#000000;stroke-width:0.5;" x="400.9453125" xlink:href="#ma830311b55" y="194.048616071"/>
     <use style="stroke:#000000;stroke-width:0.5;" x="412.1053125" xlink:href="#ma830311b55" y="190.0371875"/>
     <use style="stroke:#000000;stroke-width:0.5;" x="423.2653125" xlink:href="#ma830311b55" y="190.893403716"/>
     <use style="stroke:#000000;stroke-width:0.5;" x="434.4253125" xlink:href="#ma830311b55" y="193.102993952"/>
     <use style="stroke:#000000;stroke-width:0.5;" x="445.5853125" xlink:href="#ma830311b55" y="183.710258366"/>
     <use style="stroke:#000000;stroke-width:0.5;" x="456.7453125" xlink:href="#ma830311b55" y="184.539005682"/>
     <use style="stroke:#000000;stroke-width:0.5;" x="467.9053125" xlink:href="#ma830311b55" y="184.005489387"/>
     <use style="stroke:#000000;stroke-width:0.5;" x="479.0653125" xlink:href="#ma830311b55" y="189.285883152"/>
     <use style="stroke:#000000;stroke-width:0.5;" x="490.2253125" xlink:href="#ma830311b55" y="193.921224197"/>
     <use style="stroke:#000000;stroke-width:0.5;" x="501.3853125" xlink:href="#ma830311b55" y="194.562901786"/>
     <use style="stroke:#000000;stroke-width:0.5;" x="512.5453125" xlink:href="#ma830311b55" y="191.098240132"/>
     <use style="stroke:#000000;stroke-width:0.5;" x="523.7053125" xlink:href="#ma830311b55" y="194.048616071"/>
     <use style="stroke:#000000;stroke-width:0.5;" x="534.8653125" xlink:href="#ma830311b55" y="197.316557579"/>
    </g>
   </g>
   <g id="patch_3">
    <path d="M 66.145313 198.677188 
L 624.145313 198.677188 
" style="fill:none;stroke:#000000;stroke-linecap:square;stroke-linejoin:miter;"/>
   </g>
   <g id="patch_4">
    <path d="M 624.145313 198.677188 
L 624.145313 25.877187 
" style="fill:none;stroke:#000000;stroke-linecap:square;stroke-linejoin:miter;"/>
   </g>
   <g id="patch_5">
    <path d="M 66.145313 25.877187 
L 624.145313 25.877187 
" style="fill:none;stroke:#000000;stroke-linecap:square;stroke-linejoin:miter;"/>
   </g>
   <g id="patch_6">
    <path d="M 66.145313 198.677188 
L 66.145313 25.877187 
" style="fill:none;stroke:#000000;stroke-linecap:square;stroke-linejoin:miter;"/>
   </g>
   <g id="matplotlib.axis_1">
    <g id="xtick_1">
     <g id="line2d_4">
      <path clip-path="url(#pa89be0ccb4)" d="M 121.945313 198.677188 
L 121.945313 25.877187 
" style="fill:none;stroke:#000000;stroke-dasharray:1.000000,3.000000;stroke-dashoffset:0.0;stroke-width:0.5;"/>
     </g>
     <g id="line2d_5">
      <defs>
       <path d="M 0 0 
L 0 -4 
" id="mc8f97b1cf7" style="stroke:#000000;stroke-width:0.5;"/>
      </defs>
      <g>
       <use style="stroke:#000000;stroke-width:0.5;" x="121.9453125" xlink:href="#mc8f97b1cf7" y="198.6771875"/>
      </g>
     </g>
     <g id="line2d_6">
      <defs>
       <path d="M 0 0 
L 0 4 
" id="mbb5158695f" style="stroke:#000000;stroke-width:0.5;"/>
      </defs>
      <g>
       <use style="stroke:#000000;stroke-width:0.5;" x="121.9453125" xlink:href="#mbb5158695f" y="25.8771875"/>
      </g>
     </g>
     <g id="text_1">
      <!-- −0.05 -->
      <defs>
       <path d="M 10.59375 72.90625 
L 57.328125 72.90625 
L 57.328125 59.078125 
L 25.59375 59.078125 
L 25.59375 47.796875 
Q 27.734375 48.390625 29.90625 48.703125 
Q 32.078125 49.03125 34.421875 49.03125 
Q 47.75 49.03125 55.171875 42.359375 
Q 62.59375 35.6875 62.59375 23.78125 
Q 62.59375 11.96875 54.515625 5.265625 
Q 46.4375 -1.421875 32.078125 -1.421875 
Q 25.875 -1.421875 19.796875 -0.21875 
Q 13.71875 0.984375 7.71875 3.421875 
L 7.71875 18.21875 
Q 13.671875 14.796875 19.015625 13.078125 
Q 24.359375 11.375 29.109375 11.375 
Q 35.9375 11.375 39.859375 14.71875 
Q 43.796875 18.0625 43.796875 23.78125 
Q 43.796875 29.546875 39.859375 32.859375 
Q 35.9375 36.1875 29.109375 36.1875 
Q 25.046875 36.1875 20.453125 35.125 
Q 15.875 34.078125 10.59375 31.890625 
z
" id="BitstreamVeraSans-Bold-35"/>
       <path d="M 10.59375 37.109375 
L 73.1875 37.109375 
L 73.1875 25.59375 
L 10.59375 25.59375 
z
" id="BitstreamVeraSans-Bold-2212"/>
       <path d="M 46 36.53125 
Q 46 50.203125 43.4375 55.78125 
Q 40.875 61.375 34.8125 61.375 
Q 28.765625 61.375 26.171875 55.78125 
Q 23.578125 50.203125 23.578125 36.53125 
Q 23.578125 22.703125 26.171875 17.03125 
Q 28.765625 11.375 34.8125 11.375 
Q 40.828125 11.375 43.40625 17.03125 
Q 46 22.703125 46 36.53125 
M 64.796875 36.375 
Q 64.796875 18.265625 56.984375 8.421875 
Q 49.171875 -1.421875 34.8125 -1.421875 
Q 20.40625 -1.421875 12.59375 8.421875 
Q 4.78125 18.265625 4.78125 36.375 
Q 4.78125 54.546875 12.59375 64.375 
Q 20.40625 74.21875 34.8125 74.21875 
Q 49.171875 74.21875 56.984375 64.375 
Q 64.796875 54.546875 64.796875 36.375 
" id="BitstreamVeraSans-Bold-30"/>
       <path d="M 10.203125 18.890625 
L 27.78125 18.890625 
L 27.78125 0 
L 10.203125 0 
z
" id="BitstreamVeraSans-Bold-2e"/>
      </defs>
      <g transform="translate(88.89375 217.8740625)scale(0.2 -0.2)">
       <use xlink:href="#BitstreamVeraSans-Bold-2212"/>
       <use x="83.7890625" xlink:href="#BitstreamVeraSans-Bold-30"/>
       <use x="153.369140625" xlink:href="#BitstreamVeraSans-Bold-2e"/>
       <use x="191.357421875" xlink:href="#BitstreamVeraSans-Bold-30"/>
       <use x="260.9375" xlink:href="#BitstreamVeraSans-Bold-35"/>
      </g>
     </g>
    </g>
    <g id="xtick_2">
     <g id="line2d_7">
      <path clip-path="url(#pa89be0ccb4)" d="M 233.545313 198.677188 
L 233.545313 25.877187 
" style="fill:none;stroke:#000000;stroke-dasharray:1.000000,3.000000;stroke-dashoffset:0.0;stroke-width:0.5;"/>
     </g>
     <g id="line2d_8">
      <g>
       <use style="stroke:#000000;stroke-width:0.5;" x="233.5453125" xlink:href="#mc8f97b1cf7" y="198.6771875"/>
      </g>
     </g>
     <g id="line2d_9">
      <g>
       <use style="stroke:#000000;stroke-width:0.5;" x="233.5453125" xlink:href="#mbb5158695f" y="25.8771875"/>
      </g>
     </g>
     <g id="text_2">
      <!-- 0.00 -->
      <g transform="translate(208.8734375 217.8740625)scale(0.2 -0.2)">
       <use xlink:href="#BitstreamVeraSans-Bold-30"/>
       <use x="69.580078125" xlink:href="#BitstreamVeraSans-Bold-2e"/>
       <use x="107.568359375" xlink:href="#BitstreamVeraSans-Bold-30"/>
       <use x="177.1484375" xlink:href="#BitstreamVeraSans-Bold-30"/>
      </g>
     </g>
    </g>
    <g id="xtick_3">
     <g id="line2d_10">
      <path clip-path="url(#pa89be0ccb4)" d="M 345.145313 198.677188 
L 345.145313 25.877187 
" style="fill:none;stroke:#000000;stroke-dasharray:1.000000,3.000000;stroke-dashoffset:0.0;stroke-width:0.5;"/>
     </g>
     <g id="line2d_11">
      <g>
       <use style="stroke:#000000;stroke-width:0.5;" x="345.1453125" xlink:href="#mc8f97b1cf7" y="198.6771875"/>
      </g>
     </g>
     <g id="line2d_12">
      <g>
       <use style="stroke:#000000;stroke-width:0.5;" x="345.1453125" xlink:href="#mbb5158695f" y="25.8771875"/>
      </g>
     </g>
     <g id="text_3">
      <!-- 0.05 -->
      <g transform="translate(320.4734375 217.8740625)scale(0.2 -0.2)">
       <use xlink:href="#BitstreamVeraSans-Bold-30"/>
       <use x="69.580078125" xlink:href="#BitstreamVeraSans-Bold-2e"/>
       <use x="107.568359375" xlink:href="#BitstreamVeraSans-Bold-30"/>
       <use x="177.1484375" xlink:href="#BitstreamVeraSans-Bold-35"/>
      </g>
     </g>
    </g>
    <g id="xtick_4">
     <g id="line2d_13">
      <path clip-path="url(#pa89be0ccb4)" d="M 456.745313 198.677188 
L 456.745313 25.877187 
" style="fill:none;stroke:#000000;stroke-dasharray:1.000000,3.000000;stroke-dashoffset:0.0;stroke-width:0.5;"/>
     </g>
     <g id="line2d_14">
      <g>
       <use style="stroke:#000000;stroke-width:0.5;" x="456.7453125" xlink:href="#mc8f97b1cf7" y="198.6771875"/>
      </g>
     </g>
     <g id="line2d_15">
      <g>
       <use style="stroke:#000000;stroke-width:0.5;" x="456.7453125" xlink:href="#mbb5158695f" y="25.8771875"/>
      </g>
     </g>
     <g id="text_4">
      <!-- 0.10 -->
      <defs>
       <path d="M 11.71875 12.984375 
L 28.328125 12.984375 
L 28.328125 60.109375 
L 11.28125 56.59375 
L 11.28125 69.390625 
L 28.21875 72.90625 
L 46.09375 72.90625 
L 46.09375 12.984375 
L 62.703125 12.984375 
L 62.703125 0 
L 11.71875 0 
z
" id="BitstreamVeraSans-Bold-31"/>
      </defs>
      <g transform="translate(432.0734375 217.8740625)scale(0.2 -0.2)">
       <use xlink:href="#BitstreamVeraSans-Bold-30"/>
       <use x="69.580078125" xlink:href="#BitstreamVeraSans-Bold-2e"/>
       <use x="107.568359375" xlink:href="#BitstreamVeraSans-Bold-31"/>
       <use x="177.1484375" xlink:href="#BitstreamVeraSans-Bold-30"/>
      </g>
     </g>
    </g>
    <g id="xtick_5">
     <g id="line2d_16">
      <path clip-path="url(#pa89be0ccb4)" d="M 568.345313 198.677188 
L 568.345313 25.877187 
" style="fill:none;stroke:#000000;stroke-dasharray:1.000000,3.000000;stroke-dashoffset:0.0;stroke-width:0.5;"/>
     </g>
     <g id="line2d_17">
      <g>
       <use style="stroke:#000000;stroke-width:0.5;" x="568.3453125" xlink:href="#mc8f97b1cf7" y="198.6771875"/>
      </g>
     </g>
     <g id="line2d_18">
      <g>
       <use style="stroke:#000000;stroke-width:0.5;" x="568.3453125" xlink:href="#mbb5158695f" y="25.8771875"/>
      </g>
     </g>
     <g id="text_5">
      <!-- 0.15 -->
      <g transform="translate(543.6734375 217.8740625)scale(0.2 -0.2)">
       <use xlink:href="#BitstreamVeraSans-Bold-30"/>
       <use x="69.580078125" xlink:href="#BitstreamVeraSans-Bold-2e"/>
       <use x="107.568359375" xlink:href="#BitstreamVeraSans-Bold-31"/>
       <use x="177.1484375" xlink:href="#BitstreamVeraSans-Bold-35"/>
      </g>
     </g>
    </g>
    <g id="text_6">
     <!-- Detuning (MHz) -->
     <defs>
      <path d="M 8.015625 75.875 
L 15.828125 75.875 
Q 23.140625 64.359375 26.78125 53.3125 
Q 30.421875 42.28125 30.421875 31.390625 
Q 30.421875 20.453125 26.78125 9.375 
Q 23.140625 -1.703125 15.828125 -13.1875 
L 8.015625 -13.1875 
Q 14.5 -2 17.703125 9.0625 
Q 20.90625 20.125 20.90625 31.390625 
Q 20.90625 42.671875 17.703125 53.65625 
Q 14.5 64.65625 8.015625 75.875 
" id="BitstreamVeraSans-Roman-29"/>
      <path d="M 18.3125 70.21875 
L 18.3125 54.6875 
L 36.8125 54.6875 
L 36.8125 47.703125 
L 18.3125 47.703125 
L 18.3125 18.015625 
Q 18.3125 11.328125 20.140625 9.421875 
Q 21.96875 7.515625 27.59375 7.515625 
L 36.8125 7.515625 
L 36.8125 0 
L 27.59375 0 
Q 17.1875 0 13.234375 3.875 
Q 9.28125 7.765625 9.28125 18.015625 
L 9.28125 47.703125 
L 2.6875 47.703125 
L 2.6875 54.6875 
L 9.28125 54.6875 
L 9.28125 70.21875 
z
" id="BitstreamVeraSans-Roman-74"/>
      <path d="M 5.515625 54.6875 
L 48.1875 54.6875 
L 48.1875 46.484375 
L 14.40625 7.171875 
L 48.1875 7.171875 
L 48.1875 0 
L 4.296875 0 
L 4.296875 8.203125 
L 38.09375 47.515625 
L 5.515625 47.515625 
z
" id="BitstreamVeraSans-Roman-7a"/>
      <path d="M 54.890625 33.015625 
L 54.890625 0 
L 45.90625 0 
L 45.90625 32.71875 
Q 45.90625 40.484375 42.875 44.328125 
Q 39.84375 48.1875 33.796875 48.1875 
Q 26.515625 48.1875 22.3125 43.546875 
Q 18.109375 38.921875 18.109375 30.90625 
L 18.109375 0 
L 9.078125 0 
L 9.078125 54.6875 
L 18.109375 54.6875 
L 18.109375 46.1875 
Q 21.34375 51.125 25.703125 53.5625 
Q 30.078125 56 35.796875 56 
Q 45.21875 56 50.046875 50.171875 
Q 54.890625 44.34375 54.890625 33.015625 
" id="BitstreamVeraSans-Roman-6e"/>
      <path d="M 9.8125 72.90625 
L 24.515625 72.90625 
L 43.109375 23.296875 
L 61.8125 72.90625 
L 76.515625 72.90625 
L 76.515625 0 
L 66.890625 0 
L 66.890625 64.015625 
L 48.09375 14.015625 
L 38.1875 14.015625 
L 19.390625 64.015625 
L 19.390625 0 
L 9.8125 0 
z
" id="BitstreamVeraSans-Roman-4d"/>
      <path d="M 8.5 21.578125 
L 8.5 54.6875 
L 17.484375 54.6875 
L 17.484375 21.921875 
Q 17.484375 14.15625 20.5 10.265625 
Q 23.53125 6.390625 29.59375 6.390625 
Q 36.859375 6.390625 41.078125 11.03125 
Q 45.3125 15.671875 45.3125 23.6875 
L 45.3125 54.6875 
L 54.296875 54.6875 
L 54.296875 0 
L 45.3125 0 
L 45.3125 8.40625 
Q 42.046875 3.421875 37.71875 1 
Q 33.40625 -1.421875 27.6875 -1.421875 
Q 18.265625 -1.421875 13.375 4.4375 
Q 8.5 10.296875 8.5 21.578125 
" id="BitstreamVeraSans-Roman-75"/>
      <path d="M 9.8125 72.90625 
L 19.671875 72.90625 
L 19.671875 43.015625 
L 55.515625 43.015625 
L 55.515625 72.90625 
L 65.375 72.90625 
L 65.375 0 
L 55.515625 0 
L 55.515625 34.71875 
L 19.671875 34.71875 
L 19.671875 0 
L 9.8125 0 
z
" id="BitstreamVeraSans-Roman-48"/>
      <path d="M 56.203125 29.59375 
L 56.203125 25.203125 
L 14.890625 25.203125 
Q 15.484375 15.921875 20.484375 11.0625 
Q 25.484375 6.203125 34.421875 6.203125 
Q 39.59375 6.203125 44.453125 7.46875 
Q 49.3125 8.734375 54.109375 11.28125 
L 54.109375 2.78125 
Q 49.265625 0.734375 44.1875 -0.34375 
Q 39.109375 -1.421875 33.890625 -1.421875 
Q 20.796875 -1.421875 13.15625 6.1875 
Q 5.515625 13.8125 5.515625 26.8125 
Q 5.515625 40.234375 12.765625 48.109375 
Q 20.015625 56 32.328125 56 
Q 43.359375 56 49.78125 48.890625 
Q 56.203125 41.796875 56.203125 29.59375 
M 47.21875 32.234375 
Q 47.125 39.59375 43.09375 43.984375 
Q 39.0625 48.390625 32.421875 48.390625 
Q 24.90625 48.390625 20.390625 44.140625 
Q 15.875 39.890625 15.1875 32.171875 
z
" id="BitstreamVeraSans-Roman-65"/>
      <path id="BitstreamVeraSans-Roman-20"/>
      <path d="M 19.671875 64.796875 
L 19.671875 8.109375 
L 31.59375 8.109375 
Q 46.6875 8.109375 53.6875 14.9375 
Q 60.6875 21.78125 60.6875 36.53125 
Q 60.6875 51.171875 53.6875 57.984375 
Q 46.6875 64.796875 31.59375 64.796875 
z
M 9.8125 72.90625 
L 30.078125 72.90625 
Q 51.265625 72.90625 61.171875 64.09375 
Q 71.09375 55.28125 71.09375 36.53125 
Q 71.09375 17.671875 61.125 8.828125 
Q 51.171875 0 30.078125 0 
L 9.8125 0 
z
" id="BitstreamVeraSans-Roman-44"/>
      <path d="M 31 75.875 
Q 24.46875 64.65625 21.28125 53.65625 
Q 18.109375 42.671875 18.109375 31.390625 
Q 18.109375 20.125 21.3125 9.0625 
Q 24.515625 -2 31 -13.1875 
L 23.1875 -13.1875 
Q 15.875 -1.703125 12.234375 9.375 
Q 8.59375 20.453125 8.59375 31.390625 
Q 8.59375 42.28125 12.203125 53.3125 
Q 15.828125 64.359375 23.1875 75.875 
z
" id="BitstreamVeraSans-Roman-28"/>
      <path d="M 9.421875 54.6875 
L 18.40625 54.6875 
L 18.40625 0 
L 9.421875 0 
z
M 9.421875 75.984375 
L 18.40625 75.984375 
L 18.40625 64.59375 
L 9.421875 64.59375 
z
" id="BitstreamVeraSans-Roman-69"/>
      <path d="M 45.40625 27.984375 
Q 45.40625 37.75 41.375 43.109375 
Q 37.359375 48.484375 30.078125 48.484375 
Q 22.859375 48.484375 18.828125 43.109375 
Q 14.796875 37.75 14.796875 27.984375 
Q 14.796875 18.265625 18.828125 12.890625 
Q 22.859375 7.515625 30.078125 7.515625 
Q 37.359375 7.515625 41.375 12.890625 
Q 45.40625 18.265625 45.40625 27.984375 
M 54.390625 6.78125 
Q 54.390625 -7.171875 48.1875 -13.984375 
Q 42 -20.796875 29.203125 -20.796875 
Q 24.46875 -20.796875 20.265625 -20.09375 
Q 16.0625 -19.390625 12.109375 -17.921875 
L 12.109375 -9.1875 
Q 16.0625 -11.328125 19.921875 -12.34375 
Q 23.78125 -13.375 27.78125 -13.375 
Q 36.625 -13.375 41.015625 -8.765625 
Q 45.40625 -4.15625 45.40625 5.171875 
L 45.40625 9.625 
Q 42.625 4.78125 38.28125 2.390625 
Q 33.9375 0 27.875 0 
Q 17.828125 0 11.671875 7.65625 
Q 5.515625 15.328125 5.515625 27.984375 
Q 5.515625 40.671875 11.671875 48.328125 
Q 17.828125 56 27.875 56 
Q 33.9375 56 38.28125 53.609375 
Q 42.625 51.21875 45.40625 46.390625 
L 45.40625 54.6875 
L 54.390625 54.6875 
z
" id="BitstreamVeraSans-Roman-67"/>
     </defs>
     <g transform="translate(286.42734375 238.43109375)scale(0.15 -0.15)">
      <use xlink:href="#BitstreamVeraSans-Roman-44"/>
      <use x="77.001953125" xlink:href="#BitstreamVeraSans-Roman-65"/>
      <use x="138.525390625" xlink:href="#BitstreamVeraSans-Roman-74"/>
      <use x="177.734375" xlink:href="#BitstreamVeraSans-Roman-75"/>
      <use x="241.11328125" xlink:href="#BitstreamVeraSans-Roman-6e"/>
      <use x="304.4921875" xlink:href="#BitstreamVeraSans-Roman-69"/>
      <use x="332.275390625" xlink:href="#BitstreamVeraSans-Roman-6e"/>
      <use x="395.654296875" xlink:href="#BitstreamVeraSans-Roman-67"/>
      <use x="459.130859375" xlink:href="#BitstreamVeraSans-Roman-20"/>
      <use x="490.91796875" xlink:href="#BitstreamVeraSans-Roman-28"/>
      <use x="529.931640625" xlink:href="#BitstreamVeraSans-Roman-4d"/>
      <use x="616.2109375" xlink:href="#BitstreamVeraSans-Roman-48"/>
      <use x="691.40625" xlink:href="#BitstreamVeraSans-Roman-7a"/>
      <use x="743.896484375" xlink:href="#BitstreamVeraSans-Roman-29"/>
     </g>
    </g>
   </g>
   <g id="matplotlib.axis_2">
    <g id="ytick_1">
     <g id="line2d_19">
      <path clip-path="url(#pa89be0ccb4)" d="M 66.145313 198.677188 
L 624.145313 198.677188 
" style="fill:none;stroke:#000000;stroke-dasharray:1.000000,3.000000;stroke-dashoffset:0.0;stroke-width:0.5;"/>
     </g>
     <g id="line2d_20">
      <defs>
       <path d="M 0 0 
L 4 0 
" id="m4bdf0674ba" style="stroke:#000000;stroke-width:0.5;"/>
      </defs>
      <g>
       <use style="stroke:#000000;stroke-width:0.5;" x="66.1453125" xlink:href="#m4bdf0674ba" y="198.6771875"/>
      </g>
     </g>
     <g id="line2d_21">
      <defs>
       <path d="M 0 0 
L -4 0 
" id="m0873887ccf" style="stroke:#000000;stroke-width:0.5;"/>
      </defs>
      <g>
       <use style="stroke:#000000;stroke-width:0.5;" x="624.1453125" xlink:href="#m0873887ccf" y="198.6771875"/>
      </g>
     </g>
     <g id="text_7">
      <!-- 0.0 -->
      <g transform="translate(26.7171875 204.1959375)scale(0.2 -0.2)">
       <use xlink:href="#BitstreamVeraSans-Bold-30"/>
       <use x="69.580078125" xlink:href="#BitstreamVeraSans-Bold-2e"/>
       <use x="107.568359375" xlink:href="#BitstreamVeraSans-Bold-30"/>
      </g>
     </g>
    </g>
    <g id="ytick_2">
     <g id="line2d_22">
      <path clip-path="url(#pa89be0ccb4)" d="M 66.145313 164.117188 
L 624.145313 164.117188 
" style="fill:none;stroke:#000000;stroke-dasharray:1.000000,3.000000;stroke-dashoffset:0.0;stroke-width:0.5;"/>
     </g>
     <g id="line2d_23">
      <g>
       <use style="stroke:#000000;stroke-width:0.5;" x="66.1453125" xlink:href="#m4bdf0674ba" y="164.1171875"/>
      </g>
     </g>
     <g id="line2d_24">
      <g>
       <use style="stroke:#000000;stroke-width:0.5;" x="624.1453125" xlink:href="#m0873887ccf" y="164.1171875"/>
      </g>
     </g>
     <g id="text_8">
      <!-- 0.1 -->
      <g transform="translate(26.7171875 169.6359375)scale(0.2 -0.2)">
       <use xlink:href="#BitstreamVeraSans-Bold-30"/>
       <use x="69.580078125" xlink:href="#BitstreamVeraSans-Bold-2e"/>
       <use x="107.568359375" xlink:href="#BitstreamVeraSans-Bold-31"/>
      </g>
     </g>
    </g>
    <g id="ytick_3">
     <g id="line2d_25">
      <path clip-path="url(#pa89be0ccb4)" d="M 66.145313 129.557187 
L 624.145313 129.557187 
" style="fill:none;stroke:#000000;stroke-dasharray:1.000000,3.000000;stroke-dashoffset:0.0;stroke-width:0.5;"/>
     </g>
     <g id="line2d_26">
      <g>
       <use style="stroke:#000000;stroke-width:0.5;" x="66.1453125" xlink:href="#m4bdf0674ba" y="129.5571875"/>
      </g>
     </g>
     <g id="line2d_27">
      <g>
       <use style="stroke:#000000;stroke-width:0.5;" x="624.1453125" xlink:href="#m0873887ccf" y="129.5571875"/>
      </g>
     </g>
     <g id="text_9">
      <!-- 0.2 -->
      <defs>
       <path d="M 28.8125 13.8125 
L 60.890625 13.8125 
L 60.890625 0 
L 7.90625 0 
L 7.90625 13.8125 
L 34.515625 37.3125 
Q 38.09375 40.53125 39.796875 43.609375 
Q 41.5 46.6875 41.5 50 
Q 41.5 55.125 38.0625 58.25 
Q 34.625 61.375 28.90625 61.375 
Q 24.515625 61.375 19.28125 59.5 
Q 14.0625 57.625 8.109375 53.90625 
L 8.109375 69.921875 
Q 14.453125 72.015625 20.65625 73.109375 
Q 26.859375 74.21875 32.8125 74.21875 
Q 45.90625 74.21875 53.15625 68.453125 
Q 60.40625 62.703125 60.40625 52.390625 
Q 60.40625 46.4375 57.328125 41.28125 
Q 54.25 36.140625 44.390625 27.484375 
z
" id="BitstreamVeraSans-Bold-32"/>
      </defs>
      <g transform="translate(26.7171875 135.0759375)scale(0.2 -0.2)">
       <use xlink:href="#BitstreamVeraSans-Bold-30"/>
       <use x="69.580078125" xlink:href="#BitstreamVeraSans-Bold-2e"/>
       <use x="107.568359375" xlink:href="#BitstreamVeraSans-Bold-32"/>
      </g>
     </g>
    </g>
    <g id="ytick_4">
     <g id="line2d_28">
      <path clip-path="url(#pa89be0ccb4)" d="M 66.145313 94.997187 
L 624.145313 94.997187 
" style="fill:none;stroke:#000000;stroke-dasharray:1.000000,3.000000;stroke-dashoffset:0.0;stroke-width:0.5;"/>
     </g>
     <g id="line2d_29">
      <g>
       <use style="stroke:#000000;stroke-width:0.5;" x="66.1453125" xlink:href="#m4bdf0674ba" y="94.9971875"/>
      </g>
     </g>
     <g id="line2d_30">
      <g>
       <use style="stroke:#000000;stroke-width:0.5;" x="624.1453125" xlink:href="#m0873887ccf" y="94.9971875"/>
      </g>
     </g>
     <g id="text_10">
      <!-- 0.3 -->
      <defs>
       <path d="M 46.578125 39.3125 
Q 53.953125 37.40625 57.78125 32.6875 
Q 61.625 27.984375 61.625 20.703125 
Q 61.625 9.859375 53.3125 4.21875 
Q 45.015625 -1.421875 29.109375 -1.421875 
Q 23.484375 -1.421875 17.84375 -0.515625 
Q 12.203125 0.390625 6.6875 2.203125 
L 6.6875 16.703125 
Q 11.96875 14.0625 17.15625 12.71875 
Q 22.359375 11.375 27.390625 11.375 
Q 34.859375 11.375 38.84375 13.953125 
Q 42.828125 16.546875 42.828125 21.390625 
Q 42.828125 26.375 38.75 28.9375 
Q 34.671875 31.5 26.703125 31.5 
L 19.1875 31.5 
L 19.1875 43.609375 
L 27.09375 43.609375 
Q 34.1875 43.609375 37.640625 45.828125 
Q 41.109375 48.046875 41.109375 52.59375 
Q 41.109375 56.78125 37.734375 59.078125 
Q 34.375 61.375 28.21875 61.375 
Q 23.6875 61.375 19.046875 60.34375 
Q 14.40625 59.328125 9.8125 57.328125 
L 9.8125 71.09375 
Q 15.375 72.65625 20.84375 73.4375 
Q 26.3125 74.21875 31.59375 74.21875 
Q 45.796875 74.21875 52.84375 69.546875 
Q 59.90625 64.890625 59.90625 55.515625 
Q 59.90625 49.125 56.53125 45.046875 
Q 53.171875 40.96875 46.578125 39.3125 
" id="BitstreamVeraSans-Bold-33"/>
      </defs>
      <g transform="translate(26.7171875 100.5159375)scale(0.2 -0.2)">
       <use xlink:href="#BitstreamVeraSans-Bold-30"/>
       <use x="69.580078125" xlink:href="#BitstreamVeraSans-Bold-2e"/>
       <use x="107.568359375" xlink:href="#BitstreamVeraSans-Bold-33"/>
      </g>
     </g>
    </g>
    <g id="ytick_5">
     <g id="line2d_31">
      <path clip-path="url(#pa89be0ccb4)" d="M 66.145313 60.437187 
L 624.145313 60.437187 
" style="fill:none;stroke:#000000;stroke-dasharray:1.000000,3.000000;stroke-dashoffset:0.0;stroke-width:0.5;"/>
     </g>
     <g id="line2d_32">
      <g>
       <use style="stroke:#000000;stroke-width:0.5;" x="66.1453125" xlink:href="#m4bdf0674ba" y="60.4371875"/>
      </g>
     </g>
     <g id="line2d_33">
      <g>
       <use style="stroke:#000000;stroke-width:0.5;" x="624.1453125" xlink:href="#m0873887ccf" y="60.4371875"/>
      </g>
     </g>
     <g id="text_11">
      <!-- 0.4 -->
      <defs>
       <path d="M 36.8125 57.421875 
L 16.21875 26.90625 
L 36.8125 26.90625 
z
M 33.6875 72.90625 
L 54.59375 72.90625 
L 54.59375 26.90625 
L 64.984375 26.90625 
L 64.984375 13.28125 
L 54.59375 13.28125 
L 54.59375 0 
L 36.8125 0 
L 36.8125 13.28125 
L 4.5 13.28125 
L 4.5 29.390625 
z
" id="BitstreamVeraSans-Bold-34"/>
      </defs>
      <g transform="translate(26.7171875 65.9559375)scale(0.2 -0.2)">
       <use xlink:href="#BitstreamVeraSans-Bold-30"/>
       <use x="69.580078125" xlink:href="#BitstreamVeraSans-Bold-2e"/>
       <use x="107.568359375" xlink:href="#BitstreamVeraSans-Bold-34"/>
      </g>
     </g>
    </g>
    <g id="ytick_6">
     <g id="line2d_34">
      <path clip-path="url(#pa89be0ccb4)" d="M 66.145313 25.877187 
L 624.145313 25.877187 
" style="fill:none;stroke:#000000;stroke-dasharray:1.000000,3.000000;stroke-dashoffset:0.0;stroke-width:0.5;"/>
     </g>
     <g id="line2d_35">
      <g>
       <use style="stroke:#000000;stroke-width:0.5;" x="66.1453125" xlink:href="#m4bdf0674ba" y="25.8771875"/>
      </g>
     </g>
     <g id="line2d_36">
      <g>
       <use style="stroke:#000000;stroke-width:0.5;" x="624.1453125" xlink:href="#m0873887ccf" y="25.8771875"/>
      </g>
     </g>
     <g id="text_12">
      <!-- 0.5 -->
      <g transform="translate(26.7171875 31.3959375)scale(0.2 -0.2)">
       <use xlink:href="#BitstreamVeraSans-Bold-30"/>
       <use x="69.580078125" xlink:href="#BitstreamVeraSans-Bold-2e"/>
       <use x="107.568359375" xlink:href="#BitstreamVeraSans-Bold-35"/>
      </g>
     </g>
    </g>
    <g id="text_13">
     <!-- Survival -->
     <defs>
      <path d="M 34.28125 27.484375 
Q 23.390625 27.484375 19.1875 25 
Q 14.984375 22.515625 14.984375 16.5 
Q 14.984375 11.71875 18.140625 8.90625 
Q 21.296875 6.109375 26.703125 6.109375 
Q 34.1875 6.109375 38.703125 11.40625 
Q 43.21875 16.703125 43.21875 25.484375 
L 43.21875 27.484375 
z
M 52.203125 31.203125 
L 52.203125 0 
L 43.21875 0 
L 43.21875 8.296875 
Q 40.140625 3.328125 35.546875 0.953125 
Q 30.953125 -1.421875 24.3125 -1.421875 
Q 15.921875 -1.421875 10.953125 3.296875 
Q 6 8.015625 6 15.921875 
Q 6 25.140625 12.171875 29.828125 
Q 18.359375 34.515625 30.609375 34.515625 
L 43.21875 34.515625 
L 43.21875 35.40625 
Q 43.21875 41.609375 39.140625 45 
Q 35.0625 48.390625 27.6875 48.390625 
Q 23 48.390625 18.546875 47.265625 
Q 14.109375 46.140625 10.015625 43.890625 
L 10.015625 52.203125 
Q 14.9375 54.109375 19.578125 55.046875 
Q 24.21875 56 28.609375 56 
Q 40.484375 56 46.34375 49.84375 
Q 52.203125 43.703125 52.203125 31.203125 
" id="BitstreamVeraSans-Roman-61"/>
      <path d="M 2.984375 54.6875 
L 12.5 54.6875 
L 29.59375 8.796875 
L 46.6875 54.6875 
L 56.203125 54.6875 
L 35.6875 0 
L 23.484375 0 
z
" id="BitstreamVeraSans-Roman-76"/>
      <path d="M 53.515625 70.515625 
L 53.515625 60.890625 
Q 47.90625 63.578125 42.921875 64.890625 
Q 37.9375 66.21875 33.296875 66.21875 
Q 25.25 66.21875 20.875 63.09375 
Q 16.5 59.96875 16.5 54.203125 
Q 16.5 49.359375 19.40625 46.890625 
Q 22.3125 44.4375 30.421875 42.921875 
L 36.375 41.703125 
Q 47.40625 39.59375 52.65625 34.296875 
Q 57.90625 29 57.90625 20.125 
Q 57.90625 9.515625 50.796875 4.046875 
Q 43.703125 -1.421875 29.984375 -1.421875 
Q 24.8125 -1.421875 18.96875 -0.25 
Q 13.140625 0.921875 6.890625 3.21875 
L 6.890625 13.375 
Q 12.890625 10.015625 18.65625 8.296875 
Q 24.421875 6.59375 29.984375 6.59375 
Q 38.421875 6.59375 43.015625 9.90625 
Q 47.609375 13.234375 47.609375 19.390625 
Q 47.609375 24.75 44.3125 27.78125 
Q 41.015625 30.8125 33.5 32.328125 
L 27.484375 33.5 
Q 16.453125 35.6875 11.515625 40.375 
Q 6.59375 45.0625 6.59375 53.421875 
Q 6.59375 63.09375 13.40625 68.65625 
Q 20.21875 74.21875 32.171875 74.21875 
Q 37.3125 74.21875 42.625 73.28125 
Q 47.953125 72.359375 53.515625 70.515625 
" id="BitstreamVeraSans-Roman-53"/>
      <path d="M 9.421875 75.984375 
L 18.40625 75.984375 
L 18.40625 0 
L 9.421875 0 
z
" id="BitstreamVeraSans-Roman-6c"/>
      <path d="M 41.109375 46.296875 
Q 39.59375 47.171875 37.8125 47.578125 
Q 36.03125 48 33.890625 48 
Q 26.265625 48 22.1875 43.046875 
Q 18.109375 38.09375 18.109375 28.8125 
L 18.109375 0 
L 9.078125 0 
L 9.078125 54.6875 
L 18.109375 54.6875 
L 18.109375 46.1875 
Q 20.953125 51.171875 25.484375 53.578125 
Q 30.03125 56 36.53125 56 
Q 37.453125 56 38.578125 55.875 
Q 39.703125 55.765625 41.0625 55.515625 
z
" id="BitstreamVeraSans-Roman-72"/>
     </defs>
     <g transform="translate(18.59765625 142.51625)rotate(-90.0)scale(0.15 -0.15)">
      <use xlink:href="#BitstreamVeraSans-Roman-53"/>
      <use x="63.4765625" xlink:href="#BitstreamVeraSans-Roman-75"/>
      <use x="126.85546875" xlink:href="#BitstreamVeraSans-Roman-72"/>
      <use x="167.96875" xlink:href="#BitstreamVeraSans-Roman-76"/>
      <use x="227.1484375" xlink:href="#BitstreamVeraSans-Roman-69"/>
      <use x="254.931640625" xlink:href="#BitstreamVeraSans-Roman-76"/>
      <use x="314.111328125" xlink:href="#BitstreamVeraSans-Roman-61"/>
      <use x="375.390625" xlink:href="#BitstreamVeraSans-Roman-6c"/>
     </g>
    </g>
   </g>
   <g id="patch_7">
    <path d="M 103.481411 100.327764 
Q 110.751042 110.178367 118.020672 120.028969 
L 120.03221 118.544477 
Q 120.988761 124.050832 121.945313 129.557187 
Q 116.965686 127.019816 111.986059 124.482444 
L 113.997597 122.997952 
Q 106.727966 113.14735 99.458335 103.296748 
L 103.481411 100.327764 
z
" style="fill:#ff0000;"/>
   </g>
   <g id="text_14">
    <!-- Heating 1 -->
    <defs>
     <path d="M 32.90625 24.609375 
Q 27.4375 24.609375 24.671875 22.75 
Q 21.921875 20.90625 21.921875 17.28125 
Q 21.921875 13.96875 24.140625 12.078125 
Q 26.375 10.203125 30.328125 10.203125 
Q 35.25 10.203125 38.625 13.734375 
Q 42 17.28125 42 22.609375 
L 42 24.609375 
z
M 59.625 31.203125 
L 59.625 0 
L 42 0 
L 42 8.109375 
Q 38.484375 3.125 34.078125 0.84375 
Q 29.6875 -1.421875 23.390625 -1.421875 
Q 14.890625 -1.421875 9.59375 3.53125 
Q 4.296875 8.5 4.296875 16.40625 
Q 4.296875 26.03125 10.90625 30.515625 
Q 17.53125 35.015625 31.6875 35.015625 
L 42 35.015625 
L 42 36.375 
Q 42 40.53125 38.71875 42.453125 
Q 35.453125 44.390625 28.515625 44.390625 
Q 22.90625 44.390625 18.0625 43.265625 
Q 13.234375 42.140625 9.078125 39.890625 
L 9.078125 53.21875 
Q 14.703125 54.59375 20.359375 55.296875 
Q 26.03125 56 31.6875 56 
Q 46.484375 56 53.046875 50.171875 
Q 59.625 44.34375 59.625 31.203125 
" id="BitstreamVeraSans-Bold-61"/>
     <path d="M 63.375 33.296875 
L 63.375 0 
L 45.796875 0 
L 45.796875 5.421875 
L 45.796875 25.484375 
Q 45.796875 32.5625 45.484375 35.25 
Q 45.171875 37.9375 44.390625 39.203125 
Q 43.359375 40.921875 41.59375 41.875 
Q 39.84375 42.828125 37.59375 42.828125 
Q 32.125 42.828125 29 38.59375 
Q 25.875 34.375 25.875 26.90625 
L 25.875 0 
L 8.40625 0 
L 8.40625 54.6875 
L 25.875 54.6875 
L 25.875 46.6875 
Q 29.828125 51.46875 34.265625 53.734375 
Q 38.71875 56 44.09375 56 
Q 53.5625 56 58.46875 50.1875 
Q 63.375 44.390625 63.375 33.296875 
" id="BitstreamVeraSans-Bold-6e"/>
     <path d="M 9.1875 72.90625 
L 27.984375 72.90625 
L 27.984375 45.125 
L 55.71875 45.125 
L 55.71875 72.90625 
L 74.515625 72.90625 
L 74.515625 0 
L 55.71875 0 
L 55.71875 30.90625 
L 27.984375 30.90625 
L 27.984375 0 
L 9.1875 0 
z
" id="BitstreamVeraSans-Bold-48"/>
     <path d="M 62.984375 27.484375 
L 62.984375 22.515625 
L 22.125 22.515625 
Q 22.75 16.359375 26.5625 13.28125 
Q 30.375 10.203125 37.203125 10.203125 
Q 42.71875 10.203125 48.5 11.84375 
Q 54.296875 13.484375 60.40625 16.796875 
L 60.40625 3.328125 
Q 54.203125 0.984375 48 -0.21875 
Q 41.796875 -1.421875 35.59375 -1.421875 
Q 20.75 -1.421875 12.515625 6.125 
Q 4.296875 13.671875 4.296875 27.296875 
Q 4.296875 40.671875 12.375 48.328125 
Q 20.453125 56 34.625 56 
Q 47.515625 56 55.25 48.234375 
Q 62.984375 40.484375 62.984375 27.484375 
M 45.015625 33.296875 
Q 45.015625 38.28125 42.109375 41.328125 
Q 39.203125 44.390625 34.515625 44.390625 
Q 29.4375 44.390625 26.265625 41.53125 
Q 23.09375 38.671875 22.3125 33.296875 
z
" id="BitstreamVeraSans-Bold-65"/>
     <path d="M 45.609375 9.28125 
Q 42 4.5 37.640625 2.25 
Q 33.296875 0 27.59375 0 
Q 17.578125 0 11.03125 7.875 
Q 4.5 15.765625 4.5 27.984375 
Q 4.5 40.234375 11.03125 48.0625 
Q 17.578125 55.90625 27.59375 55.90625 
Q 33.296875 55.90625 37.640625 53.65625 
Q 42 51.421875 45.609375 46.578125 
L 45.609375 54.6875 
L 63.1875 54.6875 
L 63.1875 5.515625 
Q 63.1875 -7.671875 54.859375 -14.625 
Q 46.53125 -21.578125 30.71875 -21.578125 
Q 25.59375 -21.578125 20.796875 -20.796875 
Q 16.015625 -20.015625 11.1875 -18.40625 
L 11.1875 -4.78125 
Q 15.765625 -7.421875 20.15625 -8.71875 
Q 24.5625 -10.015625 29 -10.015625 
Q 37.59375 -10.015625 41.59375 -6.25 
Q 45.609375 -2.484375 45.609375 5.515625 
z
M 34.078125 43.3125 
Q 28.65625 43.3125 25.625 39.296875 
Q 22.609375 35.296875 22.609375 27.984375 
Q 22.609375 20.453125 25.53125 16.578125 
Q 28.46875 12.703125 34.078125 12.703125 
Q 39.546875 12.703125 42.578125 16.703125 
Q 45.609375 20.703125 45.609375 27.984375 
Q 45.609375 35.296875 42.578125 39.296875 
Q 39.546875 43.3125 34.078125 43.3125 
" id="BitstreamVeraSans-Bold-67"/>
     <path id="BitstreamVeraSans-Bold-20"/>
     <path d="M 8.40625 54.6875 
L 25.875 54.6875 
L 25.875 0 
L 8.40625 0 
z
M 8.40625 75.984375 
L 25.875 75.984375 
L 25.875 61.71875 
L 8.40625 61.71875 
z
" id="BitstreamVeraSans-Bold-69"/>
     <path d="M 27.484375 70.21875 
L 27.484375 54.6875 
L 45.515625 54.6875 
L 45.515625 42.1875 
L 27.484375 42.1875 
L 27.484375 19 
Q 27.484375 15.1875 29 13.84375 
Q 30.515625 12.5 35.015625 12.5 
L 44 12.5 
L 44 0 
L 29 0 
Q 18.65625 0 14.328125 4.3125 
Q 10.015625 8.640625 10.015625 19 
L 10.015625 42.1875 
L 1.3125 42.1875 
L 1.3125 54.6875 
L 10.015625 54.6875 
L 10.015625 70.21875 
z
" id="BitstreamVeraSans-Bold-74"/>
    </defs>
    <g style="fill:#ff0000;" transform="translate(99.6253125 94.9971875)scale(0.2 -0.2)">
     <use xlink:href="#BitstreamVeraSans-Bold-48"/>
     <use x="83.69140625" xlink:href="#BitstreamVeraSans-Bold-65"/>
     <use x="151.513671875" xlink:href="#BitstreamVeraSans-Bold-61"/>
     <use x="218.994140625" xlink:href="#BitstreamVeraSans-Bold-74"/>
     <use x="266.796875" xlink:href="#BitstreamVeraSans-Bold-69"/>
     <use x="301.07421875" xlink:href="#BitstreamVeraSans-Bold-6e"/>
     <use x="372.265625" xlink:href="#BitstreamVeraSans-Bold-67"/>
     <use x="443.84765625" xlink:href="#BitstreamVeraSans-Bold-20"/>
     <use x="478.662109375" xlink:href="#BitstreamVeraSans-Bold-31"/>
    </g>
   </g>
   <g id="patch_8">
    <path d="M 255.036706 61.787513 
Q 248.846106 67.343694 242.655506 72.899875 
L 244.325366 74.760404 
Q 238.935339 76.238796 233.545313 77.717188 
Q 235.595619 72.517738 237.645926 67.318289 
L 239.315786 69.178817 
Q 245.506386 63.622636 251.696986 58.066455 
L 255.036706 61.787513 
z
"/>
   </g>
   <g id="text_15">
    <!-- Carrier -->
    <defs>
     <path d="M 49.03125 39.796875 
Q 46.734375 40.875 44.453125 41.375 
Q 42.1875 41.890625 39.890625 41.890625 
Q 33.15625 41.890625 29.515625 37.5625 
Q 25.875 33.25 25.875 25.203125 
L 25.875 0 
L 8.40625 0 
L 8.40625 54.6875 
L 25.875 54.6875 
L 25.875 45.703125 
Q 29.25 51.078125 33.609375 53.53125 
Q 37.984375 56 44.09375 56 
Q 44.96875 56 45.984375 55.921875 
Q 47.015625 55.859375 48.96875 55.609375 
z
" id="BitstreamVeraSans-Bold-72"/>
     <path d="M 67 4 
Q 61.8125 1.3125 56.203125 -0.046875 
Q 50.59375 -1.421875 44.484375 -1.421875 
Q 26.265625 -1.421875 15.625 8.765625 
Q 4.984375 18.953125 4.984375 36.375 
Q 4.984375 53.859375 15.625 64.03125 
Q 26.265625 74.21875 44.484375 74.21875 
Q 50.59375 74.21875 56.203125 72.84375 
Q 61.8125 71.484375 67 68.796875 
L 67 53.71875 
Q 61.765625 57.28125 56.6875 58.9375 
Q 51.609375 60.59375 46 60.59375 
Q 35.9375 60.59375 30.171875 54.140625 
Q 24.421875 47.703125 24.421875 36.375 
Q 24.421875 25.09375 30.171875 18.640625 
Q 35.9375 12.203125 46 12.203125 
Q 51.609375 12.203125 56.6875 13.859375 
Q 61.765625 15.53125 67 19.09375 
z
" id="BitstreamVeraSans-Bold-43"/>
    </defs>
    <g transform="translate(255.8653125 53.5251875)scale(0.2 -0.2)">
     <use xlink:href="#BitstreamVeraSans-Bold-43"/>
     <use x="73.388671875" xlink:href="#BitstreamVeraSans-Bold-61"/>
     <use x="140.869140625" xlink:href="#BitstreamVeraSans-Bold-72"/>
     <use x="190.185546875" xlink:href="#BitstreamVeraSans-Bold-72"/>
     <use x="239.501953125" xlink:href="#BitstreamVeraSans-Bold-69"/>
     <use x="273.779296875" xlink:href="#BitstreamVeraSans-Bold-65"/>
     <use x="341.6015625" xlink:href="#BitstreamVeraSans-Bold-72"/>
    </g>
   </g>
   <g id="patch_9">
    <path d="M 347.645313 136.376383 
Q 347.645313 150.432261 347.645313 164.488139 
L 350.145313 164.488139 
Q 347.645313 169.486663 345.145313 174.485187 
Q 342.645313 169.486663 340.145313 164.488139 
L 342.645313 164.488139 
Q 342.645313 150.432261 342.645313 136.376383 
L 347.645313 136.376383 
z
" style="fill:#008000;"/>
   </g>
   <g id="text_16">
    <!-- Cooling 1 -->
    <defs>
     <path d="M 8.40625 75.984375 
L 25.875 75.984375 
L 25.875 0 
L 8.40625 0 
z
" id="BitstreamVeraSans-Bold-6c"/>
     <path d="M 34.421875 43.5 
Q 28.609375 43.5 25.5625 39.328125 
Q 22.515625 35.15625 22.515625 27.296875 
Q 22.515625 19.4375 25.5625 15.25 
Q 28.609375 11.078125 34.421875 11.078125 
Q 40.140625 11.078125 43.15625 15.25 
Q 46.1875 19.4375 46.1875 27.296875 
Q 46.1875 35.15625 43.15625 39.328125 
Q 40.140625 43.5 34.421875 43.5 
M 34.421875 56 
Q 48.53125 56 56.46875 48.375 
Q 64.40625 40.765625 64.40625 27.296875 
Q 64.40625 13.8125 56.46875 6.1875 
Q 48.53125 -1.421875 34.421875 -1.421875 
Q 20.265625 -1.421875 12.28125 6.1875 
Q 4.296875 13.8125 4.296875 27.296875 
Q 4.296875 40.765625 12.28125 48.375 
Q 20.265625 56 34.421875 56 
" id="BitstreamVeraSans-Bold-6f"/>
    </defs>
    <g style="fill:#008000;" transform="translate(345.1453125 129.5571875)scale(0.2 -0.2)">
     <use xlink:href="#BitstreamVeraSans-Bold-43"/>
     <use x="73.388671875" xlink:href="#BitstreamVeraSans-Bold-6f"/>
     <use x="142.08984375" xlink:href="#BitstreamVeraSans-Bold-6f"/>
     <use x="210.791015625" xlink:href="#BitstreamVeraSans-Bold-6c"/>
     <use x="245.068359375" xlink:href="#BitstreamVeraSans-Bold-69"/>
     <use x="279.345703125" xlink:href="#BitstreamVeraSans-Bold-6e"/>
     <use x="350.537109375" xlink:href="#BitstreamVeraSans-Bold-67"/>
     <use x="422.119140625" xlink:href="#BitstreamVeraSans-Bold-20"/>
     <use x="456.93359375" xlink:href="#BitstreamVeraSans-Bold-31"/>
    </g>
   </g>
   <g id="patch_10">
    <path d="M 459.245313 153.652256 
Q 459.245313 162.524064 459.245313 171.395871 
L 461.745313 171.395871 
Q 459.245313 176.396529 456.745313 181.397188 
Q 454.245313 176.396529 451.745313 171.395871 
L 454.245313 171.395871 
Q 454.245313 162.524064 454.245313 153.652256 
L 459.245313 153.652256 
z
" style="fill:#0000ff;"/>
   </g>
   <g id="text_17">
    <!-- Cooling 2 -->
    <g style="fill:#0000ff;" transform="translate(456.7453125 146.8371875)scale(0.2 -0.2)">
     <use xlink:href="#BitstreamVeraSans-Bold-43"/>
     <use x="73.388671875" xlink:href="#BitstreamVeraSans-Bold-6f"/>
     <use x="142.08984375" xlink:href="#BitstreamVeraSans-Bold-6f"/>
     <use x="210.791015625" xlink:href="#BitstreamVeraSans-Bold-6c"/>
     <use x="245.068359375" xlink:href="#BitstreamVeraSans-Bold-69"/>
     <use x="279.345703125" xlink:href="#BitstreamVeraSans-Bold-6e"/>
     <use x="350.537109375" xlink:href="#BitstreamVeraSans-Bold-67"/>
     <use x="422.119140625" xlink:href="#BitstreamVeraSans-Bold-20"/>
     <use x="456.93359375" xlink:href="#BitstreamVeraSans-Bold-32"/>
    </g>
   </g>
   <g id="text_18">
    <!-- Axial sideband (with RSC) -->
    <defs>
     <path d="M 34.1875 63.1875 
L 20.796875 26.90625 
L 47.609375 26.90625 
z
M 28.609375 72.90625 
L 39.796875 72.90625 
L 67.578125 0 
L 57.328125 0 
L 50.6875 18.703125 
L 17.828125 18.703125 
L 11.1875 0 
L 0.78125 0 
z
" id="BitstreamVeraSans-Roman-41"/>
     <path d="M 44.28125 53.078125 
L 44.28125 44.578125 
Q 40.484375 46.53125 36.375 47.5 
Q 32.28125 48.484375 27.875 48.484375 
Q 21.1875 48.484375 17.84375 46.4375 
Q 14.5 44.390625 14.5 40.28125 
Q 14.5 37.15625 16.890625 35.375 
Q 19.28125 33.59375 26.515625 31.984375 
L 29.59375 31.296875 
Q 39.15625 29.25 43.1875 25.515625 
Q 47.21875 21.78125 47.21875 15.09375 
Q 47.21875 7.46875 41.1875 3.015625 
Q 35.15625 -1.421875 24.609375 -1.421875 
Q 20.21875 -1.421875 15.453125 -0.5625 
Q 10.6875 0.296875 5.421875 2 
L 5.421875 11.28125 
Q 10.40625 8.6875 15.234375 7.390625 
Q 20.0625 6.109375 24.8125 6.109375 
Q 31.15625 6.109375 34.5625 8.28125 
Q 37.984375 10.453125 37.984375 14.40625 
Q 37.984375 18.0625 35.515625 20.015625 
Q 33.0625 21.96875 24.703125 23.78125 
L 21.578125 24.515625 
Q 13.234375 26.265625 9.515625 29.90625 
Q 5.8125 33.546875 5.8125 39.890625 
Q 5.8125 47.609375 11.28125 51.796875 
Q 16.75 56 26.8125 56 
Q 31.78125 56 36.171875 55.265625 
Q 40.578125 54.546875 44.28125 53.078125 
" id="BitstreamVeraSans-Roman-73"/>
     <path d="M 64.40625 67.28125 
L 64.40625 56.890625 
Q 59.421875 61.53125 53.78125 63.8125 
Q 48.140625 66.109375 41.796875 66.109375 
Q 29.296875 66.109375 22.65625 58.46875 
Q 16.015625 50.828125 16.015625 36.375 
Q 16.015625 21.96875 22.65625 14.328125 
Q 29.296875 6.6875 41.796875 6.6875 
Q 48.140625 6.6875 53.78125 8.984375 
Q 59.421875 11.28125 64.40625 15.921875 
L 64.40625 5.609375 
Q 59.234375 2.09375 53.4375 0.328125 
Q 47.65625 -1.421875 41.21875 -1.421875 
Q 24.65625 -1.421875 15.125 8.703125 
Q 5.609375 18.84375 5.609375 36.375 
Q 5.609375 53.953125 15.125 64.078125 
Q 24.65625 74.21875 41.21875 74.21875 
Q 47.75 74.21875 53.53125 72.484375 
Q 59.328125 70.75 64.40625 67.28125 
" id="BitstreamVeraSans-Roman-43"/>
     <path d="M 54.890625 54.6875 
L 35.109375 28.078125 
L 55.90625 0 
L 45.3125 0 
L 29.390625 21.484375 
L 13.484375 0 
L 2.875 0 
L 24.125 28.609375 
L 4.6875 54.6875 
L 15.28125 54.6875 
L 29.78125 35.203125 
L 44.28125 54.6875 
z
" id="BitstreamVeraSans-Roman-78"/>
     <path d="M 48.6875 27.296875 
Q 48.6875 37.203125 44.609375 42.84375 
Q 40.53125 48.484375 33.40625 48.484375 
Q 26.265625 48.484375 22.1875 42.84375 
Q 18.109375 37.203125 18.109375 27.296875 
Q 18.109375 17.390625 22.1875 11.75 
Q 26.265625 6.109375 33.40625 6.109375 
Q 40.53125 6.109375 44.609375 11.75 
Q 48.6875 17.390625 48.6875 27.296875 
M 18.109375 46.390625 
Q 20.953125 51.265625 25.265625 53.625 
Q 29.59375 56 35.59375 56 
Q 45.5625 56 51.78125 48.09375 
Q 58.015625 40.1875 58.015625 27.296875 
Q 58.015625 14.40625 51.78125 6.484375 
Q 45.5625 -1.421875 35.59375 -1.421875 
Q 29.59375 -1.421875 25.265625 0.953125 
Q 20.953125 3.328125 18.109375 8.203125 
L 18.109375 0 
L 9.078125 0 
L 9.078125 75.984375 
L 18.109375 75.984375 
z
" id="BitstreamVeraSans-Roman-62"/>
     <path d="M 54.890625 33.015625 
L 54.890625 0 
L 45.90625 0 
L 45.90625 32.71875 
Q 45.90625 40.484375 42.875 44.328125 
Q 39.84375 48.1875 33.796875 48.1875 
Q 26.515625 48.1875 22.3125 43.546875 
Q 18.109375 38.921875 18.109375 30.90625 
L 18.109375 0 
L 9.078125 0 
L 9.078125 75.984375 
L 18.109375 75.984375 
L 18.109375 46.1875 
Q 21.34375 51.125 25.703125 53.5625 
Q 30.078125 56 35.796875 56 
Q 45.21875 56 50.046875 50.171875 
Q 54.890625 44.34375 54.890625 33.015625 
" id="BitstreamVeraSans-Roman-68"/>
     <path d="M 4.203125 54.6875 
L 13.1875 54.6875 
L 24.421875 12.015625 
L 35.59375 54.6875 
L 46.1875 54.6875 
L 57.421875 12.015625 
L 68.609375 54.6875 
L 77.59375 54.6875 
L 63.28125 0 
L 52.6875 0 
L 40.921875 44.828125 
L 29.109375 0 
L 18.5 0 
z
" id="BitstreamVeraSans-Roman-77"/>
     <path d="M 44.390625 34.1875 
Q 47.5625 33.109375 50.5625 29.59375 
Q 53.5625 26.078125 56.59375 19.921875 
L 66.609375 0 
L 56 0 
L 46.6875 18.703125 
Q 43.0625 26.03125 39.671875 28.421875 
Q 36.28125 30.8125 30.421875 30.8125 
L 19.671875 30.8125 
L 19.671875 0 
L 9.8125 0 
L 9.8125 72.90625 
L 32.078125 72.90625 
Q 44.578125 72.90625 50.734375 67.671875 
Q 56.890625 62.453125 56.890625 51.90625 
Q 56.890625 45.015625 53.6875 40.46875 
Q 50.484375 35.9375 44.390625 34.1875 
M 19.671875 64.796875 
L 19.671875 38.921875 
L 32.078125 38.921875 
Q 39.203125 38.921875 42.84375 42.21875 
Q 46.484375 45.515625 46.484375 51.90625 
Q 46.484375 58.296875 42.84375 61.546875 
Q 39.203125 64.796875 32.078125 64.796875 
z
" id="BitstreamVeraSans-Roman-52"/>
     <path d="M 45.40625 46.390625 
L 45.40625 75.984375 
L 54.390625 75.984375 
L 54.390625 0 
L 45.40625 0 
L 45.40625 8.203125 
Q 42.578125 3.328125 38.25 0.953125 
Q 33.9375 -1.421875 27.875 -1.421875 
Q 17.96875 -1.421875 11.734375 6.484375 
Q 5.515625 14.40625 5.515625 27.296875 
Q 5.515625 40.1875 11.734375 48.09375 
Q 17.96875 56 27.875 56 
Q 33.9375 56 38.25 53.625 
Q 42.578125 51.265625 45.40625 46.390625 
M 14.796875 27.296875 
Q 14.796875 17.390625 18.875 11.75 
Q 22.953125 6.109375 30.078125 6.109375 
Q 37.203125 6.109375 41.296875 11.75 
Q 45.40625 17.390625 45.40625 27.296875 
Q 45.40625 37.203125 41.296875 42.84375 
Q 37.203125 48.484375 30.078125 48.484375 
Q 22.953125 48.484375 18.875 42.84375 
Q 14.796875 37.203125 14.796875 27.296875 
" id="BitstreamVeraSans-Roman-64"/>
    </defs>
    <g transform="translate(229.11140625 20.8771875)scale(0.18 -0.18)">
     <use xlink:href="#BitstreamVeraSans-Roman-41"/>
     <use x="68.408203125" xlink:href="#BitstreamVeraSans-Roman-78"/>
     <use x="127.587890625" xlink:href="#BitstreamVeraSans-Roman-69"/>
     <use x="155.37109375" xlink:href="#BitstreamVeraSans-Roman-61"/>
     <use x="216.650390625" xlink:href="#BitstreamVeraSans-Roman-6c"/>
     <use x="244.43359375" xlink:href="#BitstreamVeraSans-Roman-20"/>
     <use x="276.220703125" xlink:href="#BitstreamVeraSans-Roman-73"/>
     <use x="328.3203125" xlink:href="#BitstreamVeraSans-Roman-69"/>
     <use x="356.103515625" xlink:href="#BitstreamVeraSans-Roman-64"/>
     <use x="419.580078125" xlink:href="#BitstreamVeraSans-Roman-65"/>
     <use x="481.103515625" xlink:href="#BitstreamVeraSans-Roman-62"/>
     <use x="544.580078125" xlink:href="#BitstreamVeraSans-Roman-61"/>
     <use x="605.859375" xlink:href="#BitstreamVeraSans-Roman-6e"/>
     <use x="669.23828125" xlink:href="#BitstreamVeraSans-Roman-64"/>
     <use x="732.71484375" xlink:href="#BitstreamVeraSans-Roman-20"/>
     <use x="764.501953125" xlink:href="#BitstreamVeraSans-Roman-28"/>
     <use x="803.515625" xlink:href="#BitstreamVeraSans-Roman-77"/>
     <use x="885.302734375" xlink:href="#BitstreamVeraSans-Roman-69"/>
     <use x="913.0859375" xlink:href="#BitstreamVeraSans-Roman-74"/>
     <use x="952.294921875" xlink:href="#BitstreamVeraSans-Roman-68"/>
     <use x="1015.673828125" xlink:href="#BitstreamVeraSans-Roman-20"/>
     <use x="1047.4609375" xlink:href="#BitstreamVeraSans-Roman-52"/>
     <use x="1116.943359375" xlink:href="#BitstreamVeraSans-Roman-53"/>
     <use x="1180.419921875" xlink:href="#BitstreamVeraSans-Roman-43"/>
     <use x="1250.244140625" xlink:href="#BitstreamVeraSans-Roman-29"/>
    </g>
   </g>
  </g>
 </g>
 <defs>
  <clipPath id="pa89be0ccb4">
   <rect height="172.8" width="558.0" x="66.1453125" y="25.8771875"/>
  </clipPath>
 </defs>
</svg>
