<?xml version="1.0" encoding="utf-8" standalone="no"?>
<!DOCTYPE svg PUBLIC "-//W3C//DTD SVG 1.1//EN"
  "http://www.w3.org/Graphics/SVG/1.1/DTD/svg11.dtd">
<!-- Created with matplotlib (https://matplotlib.org/) -->
<svg height="349.621687pt" version="1.1" viewBox="0 0 425.730937 349.621687" width="425.730937pt" xmlns="http://www.w3.org/2000/svg" xmlns:xlink="http://www.w3.org/1999/xlink">
 <defs>
  <style type="text/css">
*{stroke-linecap:butt;stroke-linejoin:round;}
  </style>
 </defs>
 <g id="figure_1">
  <g id="patch_1">
   <path d="M 0 349.621687 
L 425.730937 349.621687 
L 425.730937 0 
L 0 0 
z
" style="fill:none;"/>
  </g>
  <g id="axes_1">
   <g id="patch_2">
    <path d="M 61.410938 297.54825 
L 418.530938 297.54825 
L 418.530938 31.43625 
L 61.410938 31.43625 
z
" style="fill:none;"/>
   </g>
   <g id="matplotlib.axis_1">
    <g id="xtick_1">
     <g id="line2d_1">
      <path clip-path="url(#pbcf3292bdb)" d="M 77.643665 297.54825 
L 77.643665 31.43625 
" style="fill:none;stroke:#b0b0b0;stroke-linecap:square;stroke-width:0.8;"/>
     </g>
     <g id="line2d_2">
      <defs>
       <path d="M 0 0 
L 0 3.5 
" id="m005f0a59be" style="stroke:#000000;stroke-width:0.8;"/>
      </defs>
      <g>
       <use style="stroke:#000000;stroke-width:0.8;" x="77.643665" xlink:href="#m005f0a59be" y="297.54825"/>
      </g>
     </g>
     <g id="text_1">
      <!-- 702 -->
      <defs>
       <path d="M 8.203125 72.90625 
L 55.078125 72.90625 
L 55.078125 68.703125 
L 28.609375 0 
L 18.3125 0 
L 43.21875 64.59375 
L 8.203125 64.59375 
z
" id="DejaVuSans-55"/>
       <path d="M 31.78125 66.40625 
Q 24.171875 66.40625 20.328125 58.90625 
Q 16.5 51.421875 16.5 36.375 
Q 16.5 21.390625 20.328125 13.890625 
Q 24.171875 6.390625 31.78125 6.390625 
Q 39.453125 6.390625 43.28125 13.890625 
Q 47.125 21.390625 47.125 36.375 
Q 47.125 51.421875 43.28125 58.90625 
Q 39.453125 66.40625 31.78125 66.40625 
z
M 31.78125 74.21875 
Q 44.046875 74.21875 50.515625 64.515625 
Q 56.984375 54.828125 56.984375 36.375 
Q 56.984375 17.96875 50.515625 8.265625 
Q 44.046875 -1.421875 31.78125 -1.421875 
Q 19.53125 -1.421875 13.0625 8.265625 
Q 6.59375 17.96875 6.59375 36.375 
Q 6.59375 54.828125 13.0625 64.515625 
Q 19.53125 74.21875 31.78125 74.21875 
z
" id="DejaVuSans-48"/>
       <path d="M 19.1875 8.296875 
L 53.609375 8.296875 
L 53.609375 0 
L 7.328125 0 
L 7.328125 8.296875 
Q 12.9375 14.109375 22.625 23.890625 
Q 32.328125 33.6875 34.8125 36.53125 
Q 39.546875 41.84375 41.421875 45.53125 
Q 43.3125 49.21875 43.3125 52.78125 
Q 43.3125 58.59375 39.234375 62.25 
Q 35.15625 65.921875 28.609375 65.921875 
Q 23.96875 65.921875 18.8125 64.3125 
Q 13.671875 62.703125 7.8125 59.421875 
L 7.8125 69.390625 
Q 13.765625 71.78125 18.9375 73 
Q 24.125 74.21875 28.421875 74.21875 
Q 39.75 74.21875 46.484375 68.546875 
Q 53.21875 62.890625 53.21875 53.421875 
Q 53.21875 48.921875 51.53125 44.890625 
Q 49.859375 40.875 45.40625 35.40625 
Q 44.1875 33.984375 37.640625 27.21875 
Q 31.109375 20.453125 19.1875 8.296875 
z
" id="DejaVuSans-50"/>
      </defs>
      <g transform="translate(63.32804 315.945906)scale(0.15 -0.15)">
       <use xlink:href="#DejaVuSans-55"/>
       <use x="63.623047" xlink:href="#DejaVuSans-48"/>
       <use x="127.246094" xlink:href="#DejaVuSans-50"/>
      </g>
     </g>
    </g>
    <g id="xtick_2">
     <g id="line2d_3">
      <path clip-path="url(#pbcf3292bdb)" d="M 142.574574 297.54825 
L 142.574574 31.43625 
" style="fill:none;stroke:#b0b0b0;stroke-linecap:square;stroke-width:0.8;"/>
     </g>
     <g id="line2d_4">
      <g>
       <use style="stroke:#000000;stroke-width:0.8;" x="142.574574" xlink:href="#m005f0a59be" y="297.54825"/>
      </g>
     </g>
     <g id="text_2">
      <!-- 704 -->
      <defs>
       <path d="M 37.796875 64.3125 
L 12.890625 25.390625 
L 37.796875 25.390625 
z
M 35.203125 72.90625 
L 47.609375 72.90625 
L 47.609375 25.390625 
L 58.015625 25.390625 
L 58.015625 17.1875 
L 47.609375 17.1875 
L 47.609375 0 
L 37.796875 0 
L 37.796875 17.1875 
L 4.890625 17.1875 
L 4.890625 26.703125 
z
" id="DejaVuSans-52"/>
      </defs>
      <g transform="translate(128.258949 315.945906)scale(0.15 -0.15)">
       <use xlink:href="#DejaVuSans-55"/>
       <use x="63.623047" xlink:href="#DejaVuSans-48"/>
       <use x="127.246094" xlink:href="#DejaVuSans-52"/>
      </g>
     </g>
    </g>
    <g id="xtick_3">
     <g id="line2d_5">
      <path clip-path="url(#pbcf3292bdb)" d="M 207.505483 297.54825 
L 207.505483 31.43625 
" style="fill:none;stroke:#b0b0b0;stroke-linecap:square;stroke-width:0.8;"/>
     </g>
     <g id="line2d_6">
      <g>
       <use style="stroke:#000000;stroke-width:0.8;" x="207.505483" xlink:href="#m005f0a59be" y="297.54825"/>
      </g>
     </g>
     <g id="text_3">
      <!-- 706 -->
      <defs>
       <path d="M 33.015625 40.375 
Q 26.375 40.375 22.484375 35.828125 
Q 18.609375 31.296875 18.609375 23.390625 
Q 18.609375 15.53125 22.484375 10.953125 
Q 26.375 6.390625 33.015625 6.390625 
Q 39.65625 6.390625 43.53125 10.953125 
Q 47.40625 15.53125 47.40625 23.390625 
Q 47.40625 31.296875 43.53125 35.828125 
Q 39.65625 40.375 33.015625 40.375 
z
M 52.59375 71.296875 
L 52.59375 62.3125 
Q 48.875 64.0625 45.09375 64.984375 
Q 41.3125 65.921875 37.59375 65.921875 
Q 27.828125 65.921875 22.671875 59.328125 
Q 17.53125 52.734375 16.796875 39.40625 
Q 19.671875 43.65625 24.015625 45.921875 
Q 28.375 48.1875 33.59375 48.1875 
Q 44.578125 48.1875 50.953125 41.515625 
Q 57.328125 34.859375 57.328125 23.390625 
Q 57.328125 12.15625 50.6875 5.359375 
Q 44.046875 -1.421875 33.015625 -1.421875 
Q 20.359375 -1.421875 13.671875 8.265625 
Q 6.984375 17.96875 6.984375 36.375 
Q 6.984375 53.65625 15.1875 63.9375 
Q 23.390625 74.21875 37.203125 74.21875 
Q 40.921875 74.21875 44.703125 73.484375 
Q 48.484375 72.75 52.59375 71.296875 
z
" id="DejaVuSans-54"/>
      </defs>
      <g transform="translate(193.189858 315.945906)scale(0.15 -0.15)">
       <use xlink:href="#DejaVuSans-55"/>
       <use x="63.623047" xlink:href="#DejaVuSans-48"/>
       <use x="127.246094" xlink:href="#DejaVuSans-54"/>
      </g>
     </g>
    </g>
    <g id="xtick_4">
     <g id="line2d_7">
      <path clip-path="url(#pbcf3292bdb)" d="M 272.436392 297.54825 
L 272.436392 31.43625 
" style="fill:none;stroke:#b0b0b0;stroke-linecap:square;stroke-width:0.8;"/>
     </g>
     <g id="line2d_8">
      <g>
       <use style="stroke:#000000;stroke-width:0.8;" x="272.436392" xlink:href="#m005f0a59be" y="297.54825"/>
      </g>
     </g>
     <g id="text_4">
      <!-- 708 -->
      <defs>
       <path d="M 31.78125 34.625 
Q 24.75 34.625 20.71875 30.859375 
Q 16.703125 27.09375 16.703125 20.515625 
Q 16.703125 13.921875 20.71875 10.15625 
Q 24.75 6.390625 31.78125 6.390625 
Q 38.8125 6.390625 42.859375 10.171875 
Q 46.921875 13.96875 46.921875 20.515625 
Q 46.921875 27.09375 42.890625 30.859375 
Q 38.875 34.625 31.78125 34.625 
z
M 21.921875 38.8125 
Q 15.578125 40.375 12.03125 44.71875 
Q 8.5 49.078125 8.5 55.328125 
Q 8.5 64.0625 14.71875 69.140625 
Q 20.953125 74.21875 31.78125 74.21875 
Q 42.671875 74.21875 48.875 69.140625 
Q 55.078125 64.0625 55.078125 55.328125 
Q 55.078125 49.078125 51.53125 44.71875 
Q 48 40.375 41.703125 38.8125 
Q 48.828125 37.15625 52.796875 32.3125 
Q 56.78125 27.484375 56.78125 20.515625 
Q 56.78125 9.90625 50.3125 4.234375 
Q 43.84375 -1.421875 31.78125 -1.421875 
Q 19.734375 -1.421875 13.25 4.234375 
Q 6.78125 9.90625 6.78125 20.515625 
Q 6.78125 27.484375 10.78125 32.3125 
Q 14.796875 37.15625 21.921875 38.8125 
z
M 18.3125 54.390625 
Q 18.3125 48.734375 21.84375 45.5625 
Q 25.390625 42.390625 31.78125 42.390625 
Q 38.140625 42.390625 41.71875 45.5625 
Q 45.3125 48.734375 45.3125 54.390625 
Q 45.3125 60.0625 41.71875 63.234375 
Q 38.140625 66.40625 31.78125 66.40625 
Q 25.390625 66.40625 21.84375 63.234375 
Q 18.3125 60.0625 18.3125 54.390625 
z
" id="DejaVuSans-56"/>
      </defs>
      <g transform="translate(258.120767 315.945906)scale(0.15 -0.15)">
       <use xlink:href="#DejaVuSans-55"/>
       <use x="63.623047" xlink:href="#DejaVuSans-48"/>
       <use x="127.246094" xlink:href="#DejaVuSans-56"/>
      </g>
     </g>
    </g>
    <g id="xtick_5">
     <g id="line2d_9">
      <path clip-path="url(#pbcf3292bdb)" d="M 337.367301 297.54825 
L 337.367301 31.43625 
" style="fill:none;stroke:#b0b0b0;stroke-linecap:square;stroke-width:0.8;"/>
     </g>
     <g id="line2d_10">
      <g>
       <use style="stroke:#000000;stroke-width:0.8;" x="337.367301" xlink:href="#m005f0a59be" y="297.54825"/>
      </g>
     </g>
     <g id="text_5">
      <!-- 710 -->
      <defs>
       <path d="M 12.40625 8.296875 
L 28.515625 8.296875 
L 28.515625 63.921875 
L 10.984375 60.40625 
L 10.984375 69.390625 
L 28.421875 72.90625 
L 38.28125 72.90625 
L 38.28125 8.296875 
L 54.390625 8.296875 
L 54.390625 0 
L 12.40625 0 
z
" id="DejaVuSans-49"/>
      </defs>
      <g transform="translate(323.051676 315.945906)scale(0.15 -0.15)">
       <use xlink:href="#DejaVuSans-55"/>
       <use x="63.623047" xlink:href="#DejaVuSans-49"/>
       <use x="127.246094" xlink:href="#DejaVuSans-48"/>
      </g>
     </g>
    </g>
    <g id="xtick_6">
     <g id="line2d_11">
      <path clip-path="url(#pbcf3292bdb)" d="M 402.29821 297.54825 
L 402.29821 31.43625 
" style="fill:none;stroke:#b0b0b0;stroke-linecap:square;stroke-width:0.8;"/>
     </g>
     <g id="line2d_12">
      <g>
       <use style="stroke:#000000;stroke-width:0.8;" x="402.29821" xlink:href="#m005f0a59be" y="297.54825"/>
      </g>
     </g>
     <g id="text_6">
      <!-- 712 -->
      <g transform="translate(387.982585 315.945906)scale(0.15 -0.15)">
       <use xlink:href="#DejaVuSans-55"/>
       <use x="63.623047" xlink:href="#DejaVuSans-49"/>
       <use x="127.246094" xlink:href="#DejaVuSans-50"/>
      </g>
     </g>
    </g>
    <g id="text_7">
     <!-- 288XXX GHz -->
     <defs>
      <path d="M 6.296875 72.90625 
L 16.890625 72.90625 
L 35.015625 45.796875 
L 53.21875 72.90625 
L 63.8125 72.90625 
L 40.375 37.890625 
L 65.375 0 
L 54.78125 0 
L 34.28125 31 
L 13.625 0 
L 2.984375 0 
L 29 38.921875 
z
" id="DejaVuSans-88"/>
      <path id="DejaVuSans-32"/>
      <path d="M 59.515625 10.40625 
L 59.515625 29.984375 
L 43.40625 29.984375 
L 43.40625 38.09375 
L 69.28125 38.09375 
L 69.28125 6.78125 
Q 63.578125 2.734375 56.6875 0.65625 
Q 49.8125 -1.421875 42 -1.421875 
Q 24.90625 -1.421875 15.25 8.5625 
Q 5.609375 18.5625 5.609375 36.375 
Q 5.609375 54.25 15.25 64.234375 
Q 24.90625 74.21875 42 74.21875 
Q 49.125 74.21875 55.546875 72.453125 
Q 61.96875 70.703125 67.390625 67.28125 
L 67.390625 56.78125 
Q 61.921875 61.421875 55.765625 63.765625 
Q 49.609375 66.109375 42.828125 66.109375 
Q 29.4375 66.109375 22.71875 58.640625 
Q 16.015625 51.171875 16.015625 36.375 
Q 16.015625 21.625 22.71875 14.15625 
Q 29.4375 6.6875 42.828125 6.6875 
Q 48.046875 6.6875 52.140625 7.59375 
Q 56.25 8.5 59.515625 10.40625 
z
" id="DejaVuSans-71"/>
      <path d="M 9.8125 72.90625 
L 19.671875 72.90625 
L 19.671875 43.015625 
L 55.515625 43.015625 
L 55.515625 72.90625 
L 65.375 72.90625 
L 65.375 0 
L 55.515625 0 
L 55.515625 34.71875 
L 19.671875 34.71875 
L 19.671875 0 
L 9.8125 0 
z
" id="DejaVuSans-72"/>
      <path d="M 5.515625 54.6875 
L 48.1875 54.6875 
L 48.1875 46.484375 
L 14.40625 7.171875 
L 48.1875 7.171875 
L 48.1875 0 
L 4.296875 0 
L 4.296875 8.203125 
L 38.09375 47.515625 
L 5.515625 47.515625 
z
" id="DejaVuSans-122"/>
     </defs>
     <g transform="translate(176.638125 338.262312)scale(0.2 -0.2)">
      <use xlink:href="#DejaVuSans-50"/>
      <use x="63.623047" xlink:href="#DejaVuSans-56"/>
      <use x="127.246094" xlink:href="#DejaVuSans-56"/>
      <use x="190.869141" xlink:href="#DejaVuSans-88"/>
      <use x="259.375" xlink:href="#DejaVuSans-88"/>
      <use x="327.880859" xlink:href="#DejaVuSans-88"/>
      <use x="396.386719" xlink:href="#DejaVuSans-32"/>
      <use x="428.173828" xlink:href="#DejaVuSans-71"/>
      <use x="505.664062" xlink:href="#DejaVuSans-72"/>
      <use x="580.859375" xlink:href="#DejaVuSans-122"/>
     </g>
    </g>
   </g>
   <g id="matplotlib.axis_2">
    <g id="ytick_1">
     <g id="line2d_13">
      <path clip-path="url(#pbcf3292bdb)" d="M 61.410938 297.54825 
L 418.530938 297.54825 
" style="fill:none;stroke:#b0b0b0;stroke-linecap:square;stroke-width:0.8;"/>
     </g>
     <g id="line2d_14">
      <defs>
       <path d="M 0 0 
L -3.5 0 
" id="mc3ce260a5b" style="stroke:#000000;stroke-width:0.8;"/>
      </defs>
      <g>
       <use style="stroke:#000000;stroke-width:0.8;" x="61.410938" xlink:href="#mc3ce260a5b" y="297.54825"/>
      </g>
     </g>
     <g id="text_8">
      <!-- 0.0 -->
      <defs>
       <path d="M 10.6875 12.40625 
L 21 12.40625 
L 21 0 
L 10.6875 0 
z
" id="DejaVuSans-46"/>
      </defs>
      <g transform="translate(30.55625 303.247078)scale(0.15 -0.15)">
       <use xlink:href="#DejaVuSans-48"/>
       <use x="63.623047" xlink:href="#DejaVuSans-46"/>
       <use x="95.410156" xlink:href="#DejaVuSans-48"/>
      </g>
     </g>
    </g>
    <g id="ytick_2">
     <g id="line2d_15">
      <path clip-path="url(#pbcf3292bdb)" d="M 61.410938 244.32585 
L 418.530938 244.32585 
" style="fill:none;stroke:#b0b0b0;stroke-linecap:square;stroke-width:0.8;"/>
     </g>
     <g id="line2d_16">
      <g>
       <use style="stroke:#000000;stroke-width:0.8;" x="61.410938" xlink:href="#mc3ce260a5b" y="244.32585"/>
      </g>
     </g>
     <g id="text_9">
      <!-- 0.2 -->
      <g transform="translate(30.55625 250.024678)scale(0.15 -0.15)">
       <use xlink:href="#DejaVuSans-48"/>
       <use x="63.623047" xlink:href="#DejaVuSans-46"/>
       <use x="95.410156" xlink:href="#DejaVuSans-50"/>
      </g>
     </g>
    </g>
    <g id="ytick_3">
     <g id="line2d_17">
      <path clip-path="url(#pbcf3292bdb)" d="M 61.410938 191.10345 
L 418.530938 191.10345 
" style="fill:none;stroke:#b0b0b0;stroke-linecap:square;stroke-width:0.8;"/>
     </g>
     <g id="line2d_18">
      <g>
       <use style="stroke:#000000;stroke-width:0.8;" x="61.410938" xlink:href="#mc3ce260a5b" y="191.10345"/>
      </g>
     </g>
     <g id="text_10">
      <!-- 0.4 -->
      <g transform="translate(30.55625 196.802278)scale(0.15 -0.15)">
       <use xlink:href="#DejaVuSans-48"/>
       <use x="63.623047" xlink:href="#DejaVuSans-46"/>
       <use x="95.410156" xlink:href="#DejaVuSans-52"/>
      </g>
     </g>
    </g>
    <g id="ytick_4">
     <g id="line2d_19">
      <path clip-path="url(#pbcf3292bdb)" d="M 61.410938 137.88105 
L 418.530938 137.88105 
" style="fill:none;stroke:#b0b0b0;stroke-linecap:square;stroke-width:0.8;"/>
     </g>
     <g id="line2d_20">
      <g>
       <use style="stroke:#000000;stroke-width:0.8;" x="61.410938" xlink:href="#mc3ce260a5b" y="137.88105"/>
      </g>
     </g>
     <g id="text_11">
      <!-- 0.6 -->
      <g transform="translate(30.55625 143.579878)scale(0.15 -0.15)">
       <use xlink:href="#DejaVuSans-48"/>
       <use x="63.623047" xlink:href="#DejaVuSans-46"/>
       <use x="95.410156" xlink:href="#DejaVuSans-54"/>
      </g>
     </g>
    </g>
    <g id="ytick_5">
     <g id="line2d_21">
      <path clip-path="url(#pbcf3292bdb)" d="M 61.410938 84.65865 
L 418.530938 84.65865 
" style="fill:none;stroke:#b0b0b0;stroke-linecap:square;stroke-width:0.8;"/>
     </g>
     <g id="line2d_22">
      <g>
       <use style="stroke:#000000;stroke-width:0.8;" x="61.410938" xlink:href="#mc3ce260a5b" y="84.65865"/>
      </g>
     </g>
     <g id="text_12">
      <!-- 0.8 -->
      <g transform="translate(30.55625 90.357478)scale(0.15 -0.15)">
       <use xlink:href="#DejaVuSans-48"/>
       <use x="63.623047" xlink:href="#DejaVuSans-46"/>
       <use x="95.410156" xlink:href="#DejaVuSans-56"/>
      </g>
     </g>
    </g>
    <g id="ytick_6">
     <g id="line2d_23">
      <path clip-path="url(#pbcf3292bdb)" d="M 61.410938 31.43625 
L 418.530938 31.43625 
" style="fill:none;stroke:#b0b0b0;stroke-linecap:square;stroke-width:0.8;"/>
     </g>
     <g id="line2d_24">
      <g>
       <use style="stroke:#000000;stroke-width:0.8;" x="61.410938" xlink:href="#mc3ce260a5b" y="31.43625"/>
      </g>
     </g>
     <g id="text_13">
      <!-- 1.0 -->
      <g transform="translate(30.55625 37.135078)scale(0.15 -0.15)">
       <use xlink:href="#DejaVuSans-49"/>
       <use x="63.623047" xlink:href="#DejaVuSans-46"/>
       <use x="95.410156" xlink:href="#DejaVuSans-48"/>
      </g>
     </g>
    </g>
    <g id="text_14">
     <!-- One-body survival -->
     <defs>
      <path d="M 39.40625 66.21875 
Q 28.65625 66.21875 22.328125 58.203125 
Q 16.015625 50.203125 16.015625 36.375 
Q 16.015625 22.609375 22.328125 14.59375 
Q 28.65625 6.59375 39.40625 6.59375 
Q 50.140625 6.59375 56.421875 14.59375 
Q 62.703125 22.609375 62.703125 36.375 
Q 62.703125 50.203125 56.421875 58.203125 
Q 50.140625 66.21875 39.40625 66.21875 
z
M 39.40625 74.21875 
Q 54.734375 74.21875 63.90625 63.9375 
Q 73.09375 53.65625 73.09375 36.375 
Q 73.09375 19.140625 63.90625 8.859375 
Q 54.734375 -1.421875 39.40625 -1.421875 
Q 24.03125 -1.421875 14.8125 8.828125 
Q 5.609375 19.09375 5.609375 36.375 
Q 5.609375 53.65625 14.8125 63.9375 
Q 24.03125 74.21875 39.40625 74.21875 
z
" id="DejaVuSans-79"/>
      <path d="M 54.890625 33.015625 
L 54.890625 0 
L 45.90625 0 
L 45.90625 32.71875 
Q 45.90625 40.484375 42.875 44.328125 
Q 39.84375 48.1875 33.796875 48.1875 
Q 26.515625 48.1875 22.3125 43.546875 
Q 18.109375 38.921875 18.109375 30.90625 
L 18.109375 0 
L 9.078125 0 
L 9.078125 54.6875 
L 18.109375 54.6875 
L 18.109375 46.1875 
Q 21.34375 51.125 25.703125 53.5625 
Q 30.078125 56 35.796875 56 
Q 45.21875 56 50.046875 50.171875 
Q 54.890625 44.34375 54.890625 33.015625 
z
" id="DejaVuSans-110"/>
      <path d="M 56.203125 29.59375 
L 56.203125 25.203125 
L 14.890625 25.203125 
Q 15.484375 15.921875 20.484375 11.0625 
Q 25.484375 6.203125 34.421875 6.203125 
Q 39.59375 6.203125 44.453125 7.46875 
Q 49.3125 8.734375 54.109375 11.28125 
L 54.109375 2.78125 
Q 49.265625 0.734375 44.1875 -0.34375 
Q 39.109375 -1.421875 33.890625 -1.421875 
Q 20.796875 -1.421875 13.15625 6.1875 
Q 5.515625 13.8125 5.515625 26.8125 
Q 5.515625 40.234375 12.765625 48.109375 
Q 20.015625 56 32.328125 56 
Q 43.359375 56 49.78125 48.890625 
Q 56.203125 41.796875 56.203125 29.59375 
z
M 47.21875 32.234375 
Q 47.125 39.59375 43.09375 43.984375 
Q 39.0625 48.390625 32.421875 48.390625 
Q 24.90625 48.390625 20.390625 44.140625 
Q 15.875 39.890625 15.1875 32.171875 
z
" id="DejaVuSans-101"/>
      <path d="M 4.890625 31.390625 
L 31.203125 31.390625 
L 31.203125 23.390625 
L 4.890625 23.390625 
z
" id="DejaVuSans-45"/>
      <path d="M 48.6875 27.296875 
Q 48.6875 37.203125 44.609375 42.84375 
Q 40.53125 48.484375 33.40625 48.484375 
Q 26.265625 48.484375 22.1875 42.84375 
Q 18.109375 37.203125 18.109375 27.296875 
Q 18.109375 17.390625 22.1875 11.75 
Q 26.265625 6.109375 33.40625 6.109375 
Q 40.53125 6.109375 44.609375 11.75 
Q 48.6875 17.390625 48.6875 27.296875 
z
M 18.109375 46.390625 
Q 20.953125 51.265625 25.265625 53.625 
Q 29.59375 56 35.59375 56 
Q 45.5625 56 51.78125 48.09375 
Q 58.015625 40.1875 58.015625 27.296875 
Q 58.015625 14.40625 51.78125 6.484375 
Q 45.5625 -1.421875 35.59375 -1.421875 
Q 29.59375 -1.421875 25.265625 0.953125 
Q 20.953125 3.328125 18.109375 8.203125 
L 18.109375 0 
L 9.078125 0 
L 9.078125 75.984375 
L 18.109375 75.984375 
z
" id="DejaVuSans-98"/>
      <path d="M 30.609375 48.390625 
Q 23.390625 48.390625 19.1875 42.75 
Q 14.984375 37.109375 14.984375 27.296875 
Q 14.984375 17.484375 19.15625 11.84375 
Q 23.34375 6.203125 30.609375 6.203125 
Q 37.796875 6.203125 41.984375 11.859375 
Q 46.1875 17.53125 46.1875 27.296875 
Q 46.1875 37.015625 41.984375 42.703125 
Q 37.796875 48.390625 30.609375 48.390625 
z
M 30.609375 56 
Q 42.328125 56 49.015625 48.375 
Q 55.71875 40.765625 55.71875 27.296875 
Q 55.71875 13.875 49.015625 6.21875 
Q 42.328125 -1.421875 30.609375 -1.421875 
Q 18.84375 -1.421875 12.171875 6.21875 
Q 5.515625 13.875 5.515625 27.296875 
Q 5.515625 40.765625 12.171875 48.375 
Q 18.84375 56 30.609375 56 
z
" id="DejaVuSans-111"/>
      <path d="M 45.40625 46.390625 
L 45.40625 75.984375 
L 54.390625 75.984375 
L 54.390625 0 
L 45.40625 0 
L 45.40625 8.203125 
Q 42.578125 3.328125 38.25 0.953125 
Q 33.9375 -1.421875 27.875 -1.421875 
Q 17.96875 -1.421875 11.734375 6.484375 
Q 5.515625 14.40625 5.515625 27.296875 
Q 5.515625 40.1875 11.734375 48.09375 
Q 17.96875 56 27.875 56 
Q 33.9375 56 38.25 53.625 
Q 42.578125 51.265625 45.40625 46.390625 
z
M 14.796875 27.296875 
Q 14.796875 17.390625 18.875 11.75 
Q 22.953125 6.109375 30.078125 6.109375 
Q 37.203125 6.109375 41.296875 11.75 
Q 45.40625 17.390625 45.40625 27.296875 
Q 45.40625 37.203125 41.296875 42.84375 
Q 37.203125 48.484375 30.078125 48.484375 
Q 22.953125 48.484375 18.875 42.84375 
Q 14.796875 37.203125 14.796875 27.296875 
z
" id="DejaVuSans-100"/>
      <path d="M 32.171875 -5.078125 
Q 28.375 -14.84375 24.75 -17.8125 
Q 21.140625 -20.796875 15.09375 -20.796875 
L 7.90625 -20.796875 
L 7.90625 -13.28125 
L 13.1875 -13.28125 
Q 16.890625 -13.28125 18.9375 -11.515625 
Q 21 -9.765625 23.484375 -3.21875 
L 25.09375 0.875 
L 2.984375 54.6875 
L 12.5 54.6875 
L 29.59375 11.921875 
L 46.6875 54.6875 
L 56.203125 54.6875 
z
" id="DejaVuSans-121"/>
      <path d="M 44.28125 53.078125 
L 44.28125 44.578125 
Q 40.484375 46.53125 36.375 47.5 
Q 32.28125 48.484375 27.875 48.484375 
Q 21.1875 48.484375 17.84375 46.4375 
Q 14.5 44.390625 14.5 40.28125 
Q 14.5 37.15625 16.890625 35.375 
Q 19.28125 33.59375 26.515625 31.984375 
L 29.59375 31.296875 
Q 39.15625 29.25 43.1875 25.515625 
Q 47.21875 21.78125 47.21875 15.09375 
Q 47.21875 7.46875 41.1875 3.015625 
Q 35.15625 -1.421875 24.609375 -1.421875 
Q 20.21875 -1.421875 15.453125 -0.5625 
Q 10.6875 0.296875 5.421875 2 
L 5.421875 11.28125 
Q 10.40625 8.6875 15.234375 7.390625 
Q 20.0625 6.109375 24.8125 6.109375 
Q 31.15625 6.109375 34.5625 8.28125 
Q 37.984375 10.453125 37.984375 14.40625 
Q 37.984375 18.0625 35.515625 20.015625 
Q 33.0625 21.96875 24.703125 23.78125 
L 21.578125 24.515625 
Q 13.234375 26.265625 9.515625 29.90625 
Q 5.8125 33.546875 5.8125 39.890625 
Q 5.8125 47.609375 11.28125 51.796875 
Q 16.75 56 26.8125 56 
Q 31.78125 56 36.171875 55.265625 
Q 40.578125 54.546875 44.28125 53.078125 
z
" id="DejaVuSans-115"/>
      <path d="M 8.5 21.578125 
L 8.5 54.6875 
L 17.484375 54.6875 
L 17.484375 21.921875 
Q 17.484375 14.15625 20.5 10.265625 
Q 23.53125 6.390625 29.59375 6.390625 
Q 36.859375 6.390625 41.078125 11.03125 
Q 45.3125 15.671875 45.3125 23.6875 
L 45.3125 54.6875 
L 54.296875 54.6875 
L 54.296875 0 
L 45.3125 0 
L 45.3125 8.40625 
Q 42.046875 3.421875 37.71875 1 
Q 33.40625 -1.421875 27.6875 -1.421875 
Q 18.265625 -1.421875 13.375 4.4375 
Q 8.5 10.296875 8.5 21.578125 
z
M 31.109375 56 
z
" id="DejaVuSans-117"/>
      <path d="M 41.109375 46.296875 
Q 39.59375 47.171875 37.8125 47.578125 
Q 36.03125 48 33.890625 48 
Q 26.265625 48 22.1875 43.046875 
Q 18.109375 38.09375 18.109375 28.8125 
L 18.109375 0 
L 9.078125 0 
L 9.078125 54.6875 
L 18.109375 54.6875 
L 18.109375 46.1875 
Q 20.953125 51.171875 25.484375 53.578125 
Q 30.03125 56 36.53125 56 
Q 37.453125 56 38.578125 55.875 
Q 39.703125 55.765625 41.0625 55.515625 
z
" id="DejaVuSans-114"/>
      <path d="M 2.984375 54.6875 
L 12.5 54.6875 
L 29.59375 8.796875 
L 46.6875 54.6875 
L 56.203125 54.6875 
L 35.6875 0 
L 23.484375 0 
z
" id="DejaVuSans-118"/>
      <path d="M 9.421875 54.6875 
L 18.40625 54.6875 
L 18.40625 0 
L 9.421875 0 
z
M 9.421875 75.984375 
L 18.40625 75.984375 
L 18.40625 64.59375 
L 9.421875 64.59375 
z
" id="DejaVuSans-105"/>
      <path d="M 34.28125 27.484375 
Q 23.390625 27.484375 19.1875 25 
Q 14.984375 22.515625 14.984375 16.5 
Q 14.984375 11.71875 18.140625 8.90625 
Q 21.296875 6.109375 26.703125 6.109375 
Q 34.1875 6.109375 38.703125 11.40625 
Q 43.21875 16.703125 43.21875 25.484375 
L 43.21875 27.484375 
z
M 52.203125 31.203125 
L 52.203125 0 
L 43.21875 0 
L 43.21875 8.296875 
Q 40.140625 3.328125 35.546875 0.953125 
Q 30.953125 -1.421875 24.3125 -1.421875 
Q 15.921875 -1.421875 10.953125 3.296875 
Q 6 8.015625 6 15.921875 
Q 6 25.140625 12.171875 29.828125 
Q 18.359375 34.515625 30.609375 34.515625 
L 43.21875 34.515625 
L 43.21875 35.40625 
Q 43.21875 41.609375 39.140625 45 
Q 35.0625 48.390625 27.6875 48.390625 
Q 23 48.390625 18.546875 47.265625 
Q 14.109375 46.140625 10.015625 43.890625 
L 10.015625 52.203125 
Q 14.9375 54.109375 19.578125 55.046875 
Q 24.21875 56 28.609375 56 
Q 40.484375 56 46.34375 49.84375 
Q 52.203125 43.703125 52.203125 31.203125 
z
" id="DejaVuSans-97"/>
      <path d="M 9.421875 75.984375 
L 18.40625 75.984375 
L 18.40625 0 
L 9.421875 0 
z
" id="DejaVuSans-108"/>
     </defs>
     <g transform="translate(22.396875 255.55475)rotate(-90)scale(0.2 -0.2)">
      <use xlink:href="#DejaVuSans-79"/>
      <use x="78.710938" xlink:href="#DejaVuSans-110"/>
      <use x="142.089844" xlink:href="#DejaVuSans-101"/>
      <use x="203.613281" xlink:href="#DejaVuSans-45"/>
      <use x="239.697266" xlink:href="#DejaVuSans-98"/>
      <use x="303.173828" xlink:href="#DejaVuSans-111"/>
      <use x="364.355469" xlink:href="#DejaVuSans-100"/>
      <use x="427.832031" xlink:href="#DejaVuSans-121"/>
      <use x="487.011719" xlink:href="#DejaVuSans-32"/>
      <use x="518.798828" xlink:href="#DejaVuSans-115"/>
      <use x="570.898438" xlink:href="#DejaVuSans-117"/>
      <use x="634.277344" xlink:href="#DejaVuSans-114"/>
      <use x="675.390625" xlink:href="#DejaVuSans-118"/>
      <use x="734.570312" xlink:href="#DejaVuSans-105"/>
      <use x="762.353516" xlink:href="#DejaVuSans-118"/>
      <use x="821.533203" xlink:href="#DejaVuSans-97"/>
      <use x="882.8125" xlink:href="#DejaVuSans-108"/>
     </g>
    </g>
   </g>
   <g id="LineCollection_1">
    <path clip-path="url(#pbcf3292bdb)" d="M 77.643665 104.267596 
L 77.643665 89.424669 
" style="fill:none;stroke:#2ca02c;stroke-width:1.5;"/>
    <path clip-path="url(#pbcf3292bdb)" d="M 79.266937 125.15561 
L 79.266937 103.786785 
" style="fill:none;stroke:#2ca02c;stroke-width:1.5;"/>
    <path clip-path="url(#pbcf3292bdb)" d="M 80.89021 113.646086 
L 80.89021 100.217863 
" style="fill:none;stroke:#2ca02c;stroke-width:1.5;"/>
    <path clip-path="url(#pbcf3292bdb)" d="M 82.513483 123.891984 
L 82.513483 108.12863 
" style="fill:none;stroke:#2ca02c;stroke-width:1.5;"/>
    <path clip-path="url(#pbcf3292bdb)" d="M 84.136756 112.316316 
L 84.136756 97.340184 
" style="fill:none;stroke:#2ca02c;stroke-width:1.5;"/>
    <path clip-path="url(#pbcf3292bdb)" d="M 85.760028 92.334397 
L 85.760028 78.87619 
" style="fill:none;stroke:#2ca02c;stroke-width:1.5;"/>
    <path clip-path="url(#pbcf3292bdb)" d="M 87.383301 90.881931 
L 87.383301 77.349198 
" style="fill:none;stroke:#2ca02c;stroke-width:1.5;"/>
    <path clip-path="url(#pbcf3292bdb)" d="M 89.006574 110.627151 
L 89.006574 96.007004 
" style="fill:none;stroke:#2ca02c;stroke-width:1.5;"/>
    <path clip-path="url(#pbcf3292bdb)" d="M 90.629847 132.016238 
L 90.629847 116.202752 
" style="fill:none;stroke:#2ca02c;stroke-width:1.5;"/>
    <path clip-path="url(#pbcf3292bdb)" d="M 92.253119 102.270673 
L 92.253119 86.913053 
" style="fill:none;stroke:#2ca02c;stroke-width:1.5;"/>
    <path clip-path="url(#pbcf3292bdb)" d="M 93.876392 130.337665 
L 93.876392 111.446293 
" style="fill:none;stroke:#2ca02c;stroke-width:1.5;"/>
    <path clip-path="url(#pbcf3292bdb)" d="M 95.499665 146.226162 
L 95.499665 126.889521 
" style="fill:none;stroke:#2ca02c;stroke-width:1.5;"/>
    <path clip-path="url(#pbcf3292bdb)" d="M 97.122938 154.351279 
L 97.122938 135.209221 
" style="fill:none;stroke:#2ca02c;stroke-width:1.5;"/>
    <path clip-path="url(#pbcf3292bdb)" d="M 98.74621 117.092049 
L 98.74621 102.258294 
" style="fill:none;stroke:#2ca02c;stroke-width:1.5;"/>
    <path clip-path="url(#pbcf3292bdb)" d="M 100.369483 108.430564 
L 100.369483 92.086074 
" style="fill:none;stroke:#2ca02c;stroke-width:1.5;"/>
    <path clip-path="url(#pbcf3292bdb)" d="M 101.992756 115.769732 
L 101.992756 98.581906 
" style="fill:none;stroke:#2ca02c;stroke-width:1.5;"/>
    <path clip-path="url(#pbcf3292bdb)" d="M 103.616028 118.633421 
L 103.616028 103.495295 
" style="fill:none;stroke:#2ca02c;stroke-width:1.5;"/>
    <path clip-path="url(#pbcf3292bdb)" d="M 105.239301 135.824443 
L 105.239301 114.784605 
" style="fill:none;stroke:#2ca02c;stroke-width:1.5;"/>
    <path clip-path="url(#pbcf3292bdb)" d="M 106.862574 117.52083 
L 106.862574 101.547844 
" style="fill:none;stroke:#2ca02c;stroke-width:1.5;"/>
    <path clip-path="url(#pbcf3292bdb)" d="M 108.485847 127.501231 
L 108.485847 107.758288 
" style="fill:none;stroke:#2ca02c;stroke-width:1.5;"/>
    <path clip-path="url(#pbcf3292bdb)" d="M 110.109119 108.638495 
L 110.109119 88.321447 
" style="fill:none;stroke:#2ca02c;stroke-width:1.5;"/>
    <path clip-path="url(#pbcf3292bdb)" d="M 111.732392 126.292107 
L 111.732392 107.083291 
" style="fill:none;stroke:#2ca02c;stroke-width:1.5;"/>
    <path clip-path="url(#pbcf3292bdb)" d="M 113.355665 107.896489 
L 113.355665 90.893431 
" style="fill:none;stroke:#2ca02c;stroke-width:1.5;"/>
    <path clip-path="url(#pbcf3292bdb)" d="M 114.978937 121.715122 
L 114.978937 103.701465 
" style="fill:none;stroke:#2ca02c;stroke-width:1.5;"/>
    <path clip-path="url(#pbcf3292bdb)" d="M 116.60221 125.073385 
L 116.60221 108.444927 
" style="fill:none;stroke:#2ca02c;stroke-width:1.5;"/>
    <path clip-path="url(#pbcf3292bdb)" d="M 118.225483 122.224397 
L 118.225483 105.780103 
" style="fill:none;stroke:#2ca02c;stroke-width:1.5;"/>
    <path clip-path="url(#pbcf3292bdb)" d="M 119.848756 135.266826 
L 119.848756 115.353404 
" style="fill:none;stroke:#2ca02c;stroke-width:1.5;"/>
    <path clip-path="url(#pbcf3292bdb)" d="M 121.472028 132.861561 
L 121.472028 113.897321 
" style="fill:none;stroke:#2ca02c;stroke-width:1.5;"/>
    <path clip-path="url(#pbcf3292bdb)" d="M 123.095301 108.873872 
L 123.095301 90.991196 
" style="fill:none;stroke:#2ca02c;stroke-width:1.5;"/>
    <path clip-path="url(#pbcf3292bdb)" d="M 124.718574 121.396788 
L 124.718574 104.96156 
" style="fill:none;stroke:#2ca02c;stroke-width:1.5;"/>
    <path clip-path="url(#pbcf3292bdb)" d="M 126.341847 113.095076 
L 126.341847 97.359188 
" style="fill:none;stroke:#2ca02c;stroke-width:1.5;"/>
    <path clip-path="url(#pbcf3292bdb)" d="M 127.965119 99.718933 
L 127.965119 85.565087 
" style="fill:none;stroke:#2ca02c;stroke-width:1.5;"/>
    <path clip-path="url(#pbcf3292bdb)" d="M 129.588392 101.393205 
L 129.588392 87.479295 
" style="fill:none;stroke:#2ca02c;stroke-width:1.5;"/>
    <path clip-path="url(#pbcf3292bdb)" d="M 131.211665 147.083366 
L 131.211665 127.113369 
" style="fill:none;stroke:#2ca02c;stroke-width:1.5;"/>
    <path clip-path="url(#pbcf3292bdb)" d="M 132.834937 126.913939 
L 132.834937 109.453149 
" style="fill:none;stroke:#2ca02c;stroke-width:1.5;"/>
    <path clip-path="url(#pbcf3292bdb)" d="M 134.45821 96.476835 
L 134.45821 80.232465 
" style="fill:none;stroke:#2ca02c;stroke-width:1.5;"/>
    <path clip-path="url(#pbcf3292bdb)" d="M 136.081483 121.895573 
L 136.081483 105.712927 
" style="fill:none;stroke:#2ca02c;stroke-width:1.5;"/>
    <path clip-path="url(#pbcf3292bdb)" d="M 137.704756 113.663184 
L 137.704756 98.276204 
" style="fill:none;stroke:#2ca02c;stroke-width:1.5;"/>
    <path clip-path="url(#pbcf3292bdb)" d="M 139.328028 111.538818 
L 139.328028 94.928771 
" style="fill:none;stroke:#2ca02c;stroke-width:1.5;"/>
    <path clip-path="url(#pbcf3292bdb)" d="M 140.951301 101.628296 
L 140.951301 86.254958 
" style="fill:none;stroke:#2ca02c;stroke-width:1.5;"/>
    <path clip-path="url(#pbcf3292bdb)" d="M 142.574574 88.135267 
L 142.574574 74.229558 
" style="fill:none;stroke:#2ca02c;stroke-width:1.5;"/>
    <path clip-path="url(#pbcf3292bdb)" d="M 144.197847 86.421768 
L 144.197847 73.683962 
" style="fill:none;stroke:#2ca02c;stroke-width:1.5;"/>
    <path clip-path="url(#pbcf3292bdb)" d="M 145.821119 100.305936 
L 145.821119 86.267064 
" style="fill:none;stroke:#2ca02c;stroke-width:1.5;"/>
    <path clip-path="url(#pbcf3292bdb)" d="M 147.444392 80.886663 
L 147.444392 69.094441 
" style="fill:none;stroke:#2ca02c;stroke-width:1.5;"/>
    <path clip-path="url(#pbcf3292bdb)" d="M 149.067665 110.627151 
L 149.067665 96.007004 
" style="fill:none;stroke:#2ca02c;stroke-width:1.5;"/>
    <path clip-path="url(#pbcf3292bdb)" d="M 150.690937 132.56164 
L 150.690937 109.882372 
" style="fill:none;stroke:#2ca02c;stroke-width:1.5;"/>
    <path clip-path="url(#pbcf3292bdb)" d="M 152.31421 92.419892 
L 152.31421 79.698587 
" style="fill:none;stroke:#2ca02c;stroke-width:1.5;"/>
    <path clip-path="url(#pbcf3292bdb)" d="M 153.937483 98.09679 
L 153.937483 81.100117 
" style="fill:none;stroke:#2ca02c;stroke-width:1.5;"/>
    <path clip-path="url(#pbcf3292bdb)" d="M 155.560756 101.295583 
L 155.560756 85.8462 
" style="fill:none;stroke:#2ca02c;stroke-width:1.5;"/>
    <path clip-path="url(#pbcf3292bdb)" d="M 157.184028 104.225282 
L 157.184028 89.503945 
" style="fill:none;stroke:#2ca02c;stroke-width:1.5;"/>
    <path clip-path="url(#pbcf3292bdb)" d="M 158.807301 105.302286 
L 158.807301 90.040064 
" style="fill:none;stroke:#2ca02c;stroke-width:1.5;"/>
    <path clip-path="url(#pbcf3292bdb)" d="M 162.053847 97.444467 
L 162.053847 80.794507 
" style="fill:none;stroke:#2ca02c;stroke-width:1.5;"/>
    <path clip-path="url(#pbcf3292bdb)" d="M 168.546937 114.860672 
L 168.546937 93.739828 
" style="fill:none;stroke:#2ca02c;stroke-width:1.5;"/>
    <path clip-path="url(#pbcf3292bdb)" d="M 175.040028 122.56212 
L 175.040028 97.02078 
" style="fill:none;stroke:#2ca02c;stroke-width:1.5;"/>
    <path clip-path="url(#pbcf3292bdb)" d="M 181.533119 110.640902 
L 181.533119 92.024611 
" style="fill:none;stroke:#2ca02c;stroke-width:1.5;"/>
    <path clip-path="url(#pbcf3292bdb)" d="M 188.02621 121.473695 
L 188.02621 101.425616 
" style="fill:none;stroke:#2ca02c;stroke-width:1.5;"/>
    <path clip-path="url(#pbcf3292bdb)" d="M 194.519301 121.570127 
L 194.519301 100.14442 
" style="fill:none;stroke:#2ca02c;stroke-width:1.5;"/>
    <path clip-path="url(#pbcf3292bdb)" d="M 201.012392 96.378404 
L 201.012392 75.473296 
" style="fill:none;stroke:#2ca02c;stroke-width:1.5;"/>
    <path clip-path="url(#pbcf3292bdb)" d="M 207.505483 131.818966 
L 207.505483 105.504734 
" style="fill:none;stroke:#2ca02c;stroke-width:1.5;"/>
    <path clip-path="url(#pbcf3292bdb)" d="M 213.998574 124.595527 
L 213.998574 104.596973 
" style="fill:none;stroke:#2ca02c;stroke-width:1.5;"/>
    <path clip-path="url(#pbcf3292bdb)" d="M 220.491665 117.328229 
L 220.491665 94.469335 
" style="fill:none;stroke:#2ca02c;stroke-width:1.5;"/>
    <path clip-path="url(#pbcf3292bdb)" d="M 226.984756 119.6115 
L 226.984756 100.656513 
" style="fill:none;stroke:#2ca02c;stroke-width:1.5;"/>
    <path clip-path="url(#pbcf3292bdb)" d="M 233.477847 94.457535 
L 233.477847 73.246965 
" style="fill:none;stroke:#2ca02c;stroke-width:1.5;"/>
    <path clip-path="url(#pbcf3292bdb)" d="M 239.970937 106.802534 
L 239.970937 85.714274 
" style="fill:none;stroke:#2ca02c;stroke-width:1.5;"/>
    <path clip-path="url(#pbcf3292bdb)" d="M 246.464028 91.775942 
L 246.464028 72.579948 
" style="fill:none;stroke:#2ca02c;stroke-width:1.5;"/>
    <path clip-path="url(#pbcf3292bdb)" d="M 252.957119 79.619025 
L 252.957119 62.657862 
" style="fill:none;stroke:#2ca02c;stroke-width:1.5;"/>
    <path clip-path="url(#pbcf3292bdb)" d="M 259.45021 94.588138 
L 259.45021 75.947996 
" style="fill:none;stroke:#2ca02c;stroke-width:1.5;"/>
    <path clip-path="url(#pbcf3292bdb)" d="M 265.943301 78.562483 
L 265.943301 60.694017 
" style="fill:none;stroke:#2ca02c;stroke-width:1.5;"/>
    <path clip-path="url(#pbcf3292bdb)" d="M 272.436392 97.363391 
L 272.436392 77.672018 
" style="fill:none;stroke:#2ca02c;stroke-width:1.5;"/>
    <path clip-path="url(#pbcf3292bdb)" d="M 278.929483 89.351695 
L 278.929483 70.493822 
" style="fill:none;stroke:#2ca02c;stroke-width:1.5;"/>
    <path clip-path="url(#pbcf3292bdb)" d="M 285.422574 100.731978 
L 285.422574 80.155409 
" style="fill:none;stroke:#2ca02c;stroke-width:1.5;"/>
    <path clip-path="url(#pbcf3292bdb)" d="M 291.915665 106.083379 
L 291.915665 85.482629 
" style="fill:none;stroke:#2ca02c;stroke-width:1.5;"/>
    <path clip-path="url(#pbcf3292bdb)" d="M 298.408756 109.783423 
L 298.408756 90.001772 
" style="fill:none;stroke:#2ca02c;stroke-width:1.5;"/>
    <path clip-path="url(#pbcf3292bdb)" d="M 304.901847 92.796873 
L 304.901847 73.308731 
" style="fill:none;stroke:#2ca02c;stroke-width:1.5;"/>
    <path clip-path="url(#pbcf3292bdb)" d="M 311.394938 83.453046 
L 311.394938 66.011454 
" style="fill:none;stroke:#2ca02c;stroke-width:1.5;"/>
    <path clip-path="url(#pbcf3292bdb)" d="M 317.888028 118.222892 
L 317.888028 96.399427 
" style="fill:none;stroke:#2ca02c;stroke-width:1.5;"/>
    <path clip-path="url(#pbcf3292bdb)" d="M 324.381119 108.468671 
L 324.381119 88.46025 
" style="fill:none;stroke:#2ca02c;stroke-width:1.5;"/>
    <path clip-path="url(#pbcf3292bdb)" d="M 330.87421 87.271581 
L 330.87421 68.264919 
" style="fill:none;stroke:#2ca02c;stroke-width:1.5;"/>
    <path clip-path="url(#pbcf3292bdb)" d="M 337.367301 115.76064 
L 337.367301 94.72086 
" style="fill:none;stroke:#2ca02c;stroke-width:1.5;"/>
    <path clip-path="url(#pbcf3292bdb)" d="M 343.860392 105.502318 
L 343.860392 86.878022 
" style="fill:none;stroke:#2ca02c;stroke-width:1.5;"/>
    <path clip-path="url(#pbcf3292bdb)" d="M 350.353483 110.930431 
L 350.353483 89.508442 
" style="fill:none;stroke:#2ca02c;stroke-width:1.5;"/>
    <path clip-path="url(#pbcf3292bdb)" d="M 356.846574 109.42676 
L 356.846574 88.647805 
" style="fill:none;stroke:#2ca02c;stroke-width:1.5;"/>
    <path clip-path="url(#pbcf3292bdb)" d="M 363.339665 110.910288 
L 363.339665 90.888329 
" style="fill:none;stroke:#2ca02c;stroke-width:1.5;"/>
    <path clip-path="url(#pbcf3292bdb)" d="M 369.832756 130.865325 
L 369.832756 108.722175 
" style="fill:none;stroke:#2ca02c;stroke-width:1.5;"/>
    <path clip-path="url(#pbcf3292bdb)" d="M 376.325847 113.298654 
L 376.325847 91.650591 
" style="fill:none;stroke:#2ca02c;stroke-width:1.5;"/>
    <path clip-path="url(#pbcf3292bdb)" d="M 382.818937 118.741187 
L 382.818937 96.520236 
" style="fill:none;stroke:#2ca02c;stroke-width:1.5;"/>
    <path clip-path="url(#pbcf3292bdb)" d="M 389.312028 118.764306 
L 389.312028 97.634348 
" style="fill:none;stroke:#2ca02c;stroke-width:1.5;"/>
    <path clip-path="url(#pbcf3292bdb)" d="M 395.805119 113.207122 
L 395.805119 93.657488 
" style="fill:none;stroke:#2ca02c;stroke-width:1.5;"/>
    <path clip-path="url(#pbcf3292bdb)" d="M 402.29821 125.19583 
L 402.29821 106.161782 
" style="fill:none;stroke:#2ca02c;stroke-width:1.5;"/>
   </g>
   <g id="LineCollection_2">
    <path clip-path="url(#pbcf3292bdb)" d="M 77.643665 69.762909 
L 77.643665 57.147238 
" style="fill:none;stroke:#ff7f0e;stroke-width:1.5;"/>
    <path clip-path="url(#pbcf3292bdb)" d="M 79.266937 84.340755 
L 79.266937 71.921994 
" style="fill:none;stroke:#ff7f0e;stroke-width:1.5;"/>
    <path clip-path="url(#pbcf3292bdb)" d="M 80.89021 72.943387 
L 80.89021 64.417728 
" style="fill:none;stroke:#ff7f0e;stroke-width:1.5;"/>
    <path clip-path="url(#pbcf3292bdb)" d="M 82.513483 60.78638 
L 82.513483 48.74212 
" style="fill:none;stroke:#ff7f0e;stroke-width:1.5;"/>
    <path clip-path="url(#pbcf3292bdb)" d="M 84.136756 62.715199 
L 84.136756 50.269301 
" style="fill:none;stroke:#ff7f0e;stroke-width:1.5;"/>
    <path clip-path="url(#pbcf3292bdb)" d="M 85.760028 80.73214 
L 85.760028 64.462777 
" style="fill:none;stroke:#ff7f0e;stroke-width:1.5;"/>
    <path clip-path="url(#pbcf3292bdb)" d="M 87.383301 73.532114 
L 87.383301 60.002894 
" style="fill:none;stroke:#ff7f0e;stroke-width:1.5;"/>
    <path clip-path="url(#pbcf3292bdb)" d="M 89.006574 93.940799 
L 89.006574 75.764986 
" style="fill:none;stroke:#ff7f0e;stroke-width:1.5;"/>
    <path clip-path="url(#pbcf3292bdb)" d="M 90.629847 89.371916 
L 90.629847 72.393557 
" style="fill:none;stroke:#ff7f0e;stroke-width:1.5;"/>
    <path clip-path="url(#pbcf3292bdb)" d="M 92.253119 92.989244 
L 92.253119 77.692733 
" style="fill:none;stroke:#ff7f0e;stroke-width:1.5;"/>
    <path clip-path="url(#pbcf3292bdb)" d="M 93.876392 96.189182 
L 93.876392 81.72737 
" style="fill:none;stroke:#ff7f0e;stroke-width:1.5;"/>
    <path clip-path="url(#pbcf3292bdb)" d="M 95.499665 82.875595 
L 95.499665 68.700905 
" style="fill:none;stroke:#ff7f0e;stroke-width:1.5;"/>
    <path clip-path="url(#pbcf3292bdb)" d="M 97.122938 75.534052 
L 97.122938 67.630862 
" style="fill:none;stroke:#ff7f0e;stroke-width:1.5;"/>
    <path clip-path="url(#pbcf3292bdb)" d="M 98.74621 77.023793 
L 98.74621 68.559193 
" style="fill:none;stroke:#ff7f0e;stroke-width:1.5;"/>
    <path clip-path="url(#pbcf3292bdb)" d="M 100.369483 83.663796 
L 100.369483 69.660566 
" style="fill:none;stroke:#ff7f0e;stroke-width:1.5;"/>
    <path clip-path="url(#pbcf3292bdb)" d="M 101.992756 82.101197 
L 101.992756 68.65015 
" style="fill:none;stroke:#ff7f0e;stroke-width:1.5;"/>
    <path clip-path="url(#pbcf3292bdb)" d="M 103.616028 73.88575 
L 103.616028 58.817559 
" style="fill:none;stroke:#ff7f0e;stroke-width:1.5;"/>
    <path clip-path="url(#pbcf3292bdb)" d="M 105.239301 79.74317 
L 105.239301 67.846634 
" style="fill:none;stroke:#ff7f0e;stroke-width:1.5;"/>
    <path clip-path="url(#pbcf3292bdb)" d="M 106.862574 78.436654 
L 106.862574 64.414862 
" style="fill:none;stroke:#ff7f0e;stroke-width:1.5;"/>
    <path clip-path="url(#pbcf3292bdb)" d="M 108.485847 90.984772 
L 108.485847 76.607728 
" style="fill:none;stroke:#ff7f0e;stroke-width:1.5;"/>
    <path clip-path="url(#pbcf3292bdb)" d="M 110.109119 76.080167 
L 110.109119 64.654733 
" style="fill:none;stroke:#ff7f0e;stroke-width:1.5;"/>
    <path clip-path="url(#pbcf3292bdb)" d="M 111.732392 82.667928 
L 111.732392 68.908572 
" style="fill:none;stroke:#ff7f0e;stroke-width:1.5;"/>
    <path clip-path="url(#pbcf3292bdb)" d="M 113.355665 80.276092 
L 113.355665 67.426871 
" style="fill:none;stroke:#ff7f0e;stroke-width:1.5;"/>
    <path clip-path="url(#pbcf3292bdb)" d="M 114.978937 90.496139 
L 114.978937 76.072586 
" style="fill:none;stroke:#ff7f0e;stroke-width:1.5;"/>
    <path clip-path="url(#pbcf3292bdb)" d="M 116.60221 91.855887 
L 116.60221 76.638387 
" style="fill:none;stroke:#ff7f0e;stroke-width:1.5;"/>
    <path clip-path="url(#pbcf3292bdb)" d="M 118.225483 99.294304 
L 118.225483 82.030489 
" style="fill:none;stroke:#ff7f0e;stroke-width:1.5;"/>
    <path clip-path="url(#pbcf3292bdb)" d="M 119.848756 89.300509 
L 119.848756 75.838172 
" style="fill:none;stroke:#ff7f0e;stroke-width:1.5;"/>
    <path clip-path="url(#pbcf3292bdb)" d="M 121.472028 93.453335 
L 121.472028 78.994695 
" style="fill:none;stroke:#ff7f0e;stroke-width:1.5;"/>
    <path clip-path="url(#pbcf3292bdb)" d="M 123.095301 95.383156 
L 123.095301 81.687014 
" style="fill:none;stroke:#ff7f0e;stroke-width:1.5;"/>
    <path clip-path="url(#pbcf3292bdb)" d="M 124.718574 81.689157 
L 124.718574 66.774922 
" style="fill:none;stroke:#ff7f0e;stroke-width:1.5;"/>
    <path clip-path="url(#pbcf3292bdb)" d="M 126.341847 76.814246 
L 126.341847 63.447968 
" style="fill:none;stroke:#ff7f0e;stroke-width:1.5;"/>
    <path clip-path="url(#pbcf3292bdb)" d="M 127.965119 91.288319 
L 127.965119 74.073262 
" style="fill:none;stroke:#ff7f0e;stroke-width:1.5;"/>
    <path clip-path="url(#pbcf3292bdb)" d="M 129.588392 91.888034 
L 129.588392 75.908626 
" style="fill:none;stroke:#ff7f0e;stroke-width:1.5;"/>
    <path clip-path="url(#pbcf3292bdb)" d="M 131.211665 74.809814 
L 131.211665 63.008514 
" style="fill:none;stroke:#ff7f0e;stroke-width:1.5;"/>
    <path clip-path="url(#pbcf3292bdb)" d="M 132.834937 92.276319 
L 132.834937 77.304458 
" style="fill:none;stroke:#ff7f0e;stroke-width:1.5;"/>
    <path clip-path="url(#pbcf3292bdb)" d="M 134.45821 85.581116 
L 134.45821 71.291145 
" style="fill:none;stroke:#ff7f0e;stroke-width:1.5;"/>
    <path clip-path="url(#pbcf3292bdb)" d="M 136.081483 92.690984 
L 136.081483 76.918747 
" style="fill:none;stroke:#ff7f0e;stroke-width:1.5;"/>
    <path clip-path="url(#pbcf3292bdb)" d="M 137.704756 75.87304 
L 137.704756 61.37859 
" style="fill:none;stroke:#ff7f0e;stroke-width:1.5;"/>
    <path clip-path="url(#pbcf3292bdb)" d="M 139.328028 80.635539 
L 139.328028 67.027549 
" style="fill:none;stroke:#ff7f0e;stroke-width:1.5;"/>
    <path clip-path="url(#pbcf3292bdb)" d="M 140.951301 88.97599 
L 140.951301 73.68851 
" style="fill:none;stroke:#ff7f0e;stroke-width:1.5;"/>
    <path clip-path="url(#pbcf3292bdb)" d="M 142.574574 71.306503 
L 142.574574 58.449762 
" style="fill:none;stroke:#ff7f0e;stroke-width:1.5;"/>
    <path clip-path="url(#pbcf3292bdb)" d="M 144.197847 78.995028 
L 144.197847 62.939733 
" style="fill:none;stroke:#ff7f0e;stroke-width:1.5;"/>
    <path clip-path="url(#pbcf3292bdb)" d="M 145.821119 73.845059 
L 145.821119 59.418357 
" style="fill:none;stroke:#ff7f0e;stroke-width:1.5;"/>
    <path clip-path="url(#pbcf3292bdb)" d="M 147.444392 75.994025 
L 147.444392 61.182475 
" style="fill:none;stroke:#ff7f0e;stroke-width:1.5;"/>
    <path clip-path="url(#pbcf3292bdb)" d="M 149.067665 88.122552 
L 149.067665 70.628536 
" style="fill:none;stroke:#ff7f0e;stroke-width:1.5;"/>
    <path clip-path="url(#pbcf3292bdb)" d="M 150.690937 80.543006 
L 150.690937 68.206275 
" style="fill:none;stroke:#ff7f0e;stroke-width:1.5;"/>
    <path clip-path="url(#pbcf3292bdb)" d="M 152.31421 73.576609 
L 152.31421 59.235583 
" style="fill:none;stroke:#ff7f0e;stroke-width:1.5;"/>
    <path clip-path="url(#pbcf3292bdb)" d="M 153.937483 81.013518 
L 153.937483 67.66145 
" style="fill:none;stroke:#ff7f0e;stroke-width:1.5;"/>
    <path clip-path="url(#pbcf3292bdb)" d="M 155.560756 80.874761 
L 155.560756 67.206015 
" style="fill:none;stroke:#ff7f0e;stroke-width:1.5;"/>
    <path clip-path="url(#pbcf3292bdb)" d="M 157.184028 72.233998 
L 157.184028 58.030502 
" style="fill:none;stroke:#ff7f0e;stroke-width:1.5;"/>
    <path clip-path="url(#pbcf3292bdb)" d="M 158.807301 79.231992 
L 158.807301 65.414508 
" style="fill:none;stroke:#ff7f0e;stroke-width:1.5;"/>
    <path clip-path="url(#pbcf3292bdb)" d="M 162.053847 109.481188 
L 162.053847 84.917933 
" style="fill:none;stroke:#ff7f0e;stroke-width:1.5;"/>
    <path clip-path="url(#pbcf3292bdb)" d="M 168.546937 85.735243 
L 168.546937 67.953257 
" style="fill:none;stroke:#ff7f0e;stroke-width:1.5;"/>
    <path clip-path="url(#pbcf3292bdb)" d="M 175.040028 99.728235 
L 175.040028 78.288881 
" style="fill:none;stroke:#ff7f0e;stroke-width:1.5;"/>
    <path clip-path="url(#pbcf3292bdb)" d="M 181.533119 78.136685 
L 181.533119 60.419045 
" style="fill:none;stroke:#ff7f0e;stroke-width:1.5;"/>
    <path clip-path="url(#pbcf3292bdb)" d="M 188.02621 79.738464 
L 188.02621 64.630836 
" style="fill:none;stroke:#ff7f0e;stroke-width:1.5;"/>
    <path clip-path="url(#pbcf3292bdb)" d="M 194.519301 105.013558 
L 194.519301 84.032735 
" style="fill:none;stroke:#ff7f0e;stroke-width:1.5;"/>
    <path clip-path="url(#pbcf3292bdb)" d="M 201.012392 96.364111 
L 201.012392 73.56494 
" style="fill:none;stroke:#ff7f0e;stroke-width:1.5;"/>
    <path clip-path="url(#pbcf3292bdb)" d="M 207.505483 81.703863 
L 207.505483 56.483354 
" style="fill:none;stroke:#ff7f0e;stroke-width:1.5;"/>
    <path clip-path="url(#pbcf3292bdb)" d="M 213.998574 100.464388 
L 213.998574 84.259397 
" style="fill:none;stroke:#ff7f0e;stroke-width:1.5;"/>
    <path clip-path="url(#pbcf3292bdb)" d="M 220.491665 92.470147 
L 220.491665 69.793582 
" style="fill:none;stroke:#ff7f0e;stroke-width:1.5;"/>
    <path clip-path="url(#pbcf3292bdb)" d="M 226.984756 103.159157 
L 226.984756 85.043511 
" style="fill:none;stroke:#ff7f0e;stroke-width:1.5;"/>
    <path clip-path="url(#pbcf3292bdb)" d="M 233.477847 91.036446 
L 233.477847 69.410454 
" style="fill:none;stroke:#ff7f0e;stroke-width:1.5;"/>
    <path clip-path="url(#pbcf3292bdb)" d="M 239.970937 101.582685 
L 239.970937 82.063722 
" style="fill:none;stroke:#ff7f0e;stroke-width:1.5;"/>
    <path clip-path="url(#pbcf3292bdb)" d="M 246.464028 86.458519 
L 246.464028 63.950824 
" style="fill:none;stroke:#ff7f0e;stroke-width:1.5;"/>
    <path clip-path="url(#pbcf3292bdb)" d="M 252.957119 75.847263 
L 252.957119 58.481237 
" style="fill:none;stroke:#ff7f0e;stroke-width:1.5;"/>
    <path clip-path="url(#pbcf3292bdb)" d="M 259.45021 92.685519 
L 259.45021 68.611967 
" style="fill:none;stroke:#ff7f0e;stroke-width:1.5;"/>
    <path clip-path="url(#pbcf3292bdb)" d="M 265.943301 67.66736 
L 265.943301 50.766986 
" style="fill:none;stroke:#ff7f0e;stroke-width:1.5;"/>
    <path clip-path="url(#pbcf3292bdb)" d="M 272.436392 91.819949 
L 272.436392 68.739235 
" style="fill:none;stroke:#ff7f0e;stroke-width:1.5;"/>
    <path clip-path="url(#pbcf3292bdb)" d="M 278.929483 80.732329 
L 278.929483 60.408407 
" style="fill:none;stroke:#ff7f0e;stroke-width:1.5;"/>
    <path clip-path="url(#pbcf3292bdb)" d="M 285.422574 85.444161 
L 285.422574 63.994893 
" style="fill:none;stroke:#ff7f0e;stroke-width:1.5;"/>
    <path clip-path="url(#pbcf3292bdb)" d="M 291.915665 82.504056 
L 291.915665 61.500152 
" style="fill:none;stroke:#ff7f0e;stroke-width:1.5;"/>
    <path clip-path="url(#pbcf3292bdb)" d="M 298.408756 84.63478 
L 298.408756 62.081227 
" style="fill:none;stroke:#ff7f0e;stroke-width:1.5;"/>
    <path clip-path="url(#pbcf3292bdb)" d="M 304.901847 74.228076 
L 304.901847 55.172424 
" style="fill:none;stroke:#ff7f0e;stroke-width:1.5;"/>
    <path clip-path="url(#pbcf3292bdb)" d="M 311.394938 100.232472 
L 311.394938 76.224418 
" style="fill:none;stroke:#ff7f0e;stroke-width:1.5;"/>
    <path clip-path="url(#pbcf3292bdb)" d="M 317.888028 74.738315 
L 317.888028 56.140585 
" style="fill:none;stroke:#ff7f0e;stroke-width:1.5;"/>
    <path clip-path="url(#pbcf3292bdb)" d="M 324.381119 70.2186 
L 324.381119 51.4059 
" style="fill:none;stroke:#ff7f0e;stroke-width:1.5;"/>
    <path clip-path="url(#pbcf3292bdb)" d="M 330.87421 58.579879 
L 330.87421 44.612621 
" style="fill:none;stroke:#ff7f0e;stroke-width:1.5;"/>
    <path clip-path="url(#pbcf3292bdb)" d="M 337.367301 72.773843 
L 337.367301 54.332588 
" style="fill:none;stroke:#ff7f0e;stroke-width:1.5;"/>
    <path clip-path="url(#pbcf3292bdb)" d="M 343.860392 78.396195 
L 343.860392 61.45085 
" style="fill:none;stroke:#ff7f0e;stroke-width:1.5;"/>
    <path clip-path="url(#pbcf3292bdb)" d="M 350.353483 76.458167 
L 350.353483 55.676361 
" style="fill:none;stroke:#ff7f0e;stroke-width:1.5;"/>
    <path clip-path="url(#pbcf3292bdb)" d="M 356.846574 83.24217 
L 356.846574 61.23801 
" style="fill:none;stroke:#ff7f0e;stroke-width:1.5;"/>
    <path clip-path="url(#pbcf3292bdb)" d="M 363.339665 74.155195 
L 363.339665 54.381305 
" style="fill:none;stroke:#ff7f0e;stroke-width:1.5;"/>
    <path clip-path="url(#pbcf3292bdb)" d="M 369.832756 69.139061 
L 369.832756 49.954284 
" style="fill:none;stroke:#ff7f0e;stroke-width:1.5;"/>
    <path clip-path="url(#pbcf3292bdb)" d="M 376.325847 77.781695 
L 376.325847 57.954805 
" style="fill:none;stroke:#ff7f0e;stroke-width:1.5;"/>
    <path clip-path="url(#pbcf3292bdb)" d="M 382.818937 67.027972 
L 382.818937 49.700528 
" style="fill:none;stroke:#ff7f0e;stroke-width:1.5;"/>
    <path clip-path="url(#pbcf3292bdb)" d="M 389.312028 91.08624 
L 389.312028 67.58658 
" style="fill:none;stroke:#ff7f0e;stroke-width:1.5;"/>
    <path clip-path="url(#pbcf3292bdb)" d="M 395.805119 78.419305 
L 395.805119 60.112489 
" style="fill:none;stroke:#ff7f0e;stroke-width:1.5;"/>
    <path clip-path="url(#pbcf3292bdb)" d="M 402.29821 74.269489 
L 402.29821 55.862088 
" style="fill:none;stroke:#ff7f0e;stroke-width:1.5;"/>
   </g>
   <g id="line2d_25">
    <path clip-path="url(#pbcf3292bdb)" d="M 77.643665 96.846132 
L 79.266937 114.471197 
L 80.89021 106.931974 
L 82.513483 116.010307 
L 84.136756 104.82825 
L 85.760028 85.605293 
L 87.383301 84.115564 
L 89.006574 103.317078 
L 90.629847 124.109495 
L 92.253119 94.591863 
L 93.876392 120.891979 
L 95.499665 136.557841 
L 97.122938 144.78025 
L 98.74621 109.675171 
L 100.369483 100.258319 
L 101.992756 107.175819 
L 103.616028 111.064358 
L 105.239301 125.304524 
L 106.862574 109.534337 
L 108.485847 117.629759 
L 110.109119 98.479971 
L 111.732392 116.687699 
L 113.355665 99.39496 
L 114.978937 112.708293 
L 116.60221 116.759156 
L 118.225483 114.00225 
L 119.848756 125.310115 
L 121.472028 123.379441 
L 123.095301 99.932534 
L 124.718574 113.179174 
L 126.341847 105.227132 
L 127.965119 92.64201 
L 129.588392 94.43625 
L 131.211665 137.098368 
L 132.834937 118.183544 
L 134.45821 88.35465 
L 136.081483 113.80425 
L 137.704756 105.969694 
L 139.328028 103.233795 
L 140.951301 93.941627 
L 142.574574 81.182412 
L 144.197847 80.052865 
L 145.821119 93.2865 
L 147.444392 74.990552 
L 149.067665 103.317078 
L 150.690937 121.222006 
L 152.31421 86.059239 
L 153.937483 89.598454 
L 155.560756 93.570892 
L 157.184028 96.864614 
L 158.807301 97.671175 
L 162.053847 89.119487 
L 168.546937 104.30025 
L 175.040028 109.79145 
L 181.533119 101.332756 
L 188.02621 111.449655 
L 194.519301 110.857273 
L 201.012392 85.92585 
L 207.505483 118.66185 
L 213.998574 114.59625 
L 220.491665 105.898782 
L 226.984756 110.134006 
L 233.477847 83.85225 
L 239.970937 96.258404 
L 246.464028 82.177945 
L 252.957119 71.138444 
L 259.45021 85.268067 
L 265.943301 69.62825 
L 272.436392 87.517705 
L 278.929483 79.922758 
L 285.422574 90.443693 
L 291.915665 95.783004 
L 298.408756 99.892598 
L 304.901847 83.052802 
L 311.394938 74.73225 
L 317.888028 107.311159 
L 324.381119 98.464461 
L 330.87421 77.76825 
L 337.367301 105.24075 
L 343.860392 96.19017 
L 350.353483 100.219436 
L 356.846574 99.037282 
L 363.339665 100.899309 
L 369.832756 119.79375 
L 376.325847 102.474623 
L 382.818937 107.630712 
L 389.312028 108.199327 
L 395.805119 103.432305 
L 402.29821 115.678806 
" style="fill:none;stroke:#2ca02c;stroke-linecap:square;stroke-width:1.5;"/>
    <defs>
     <path d="M 0 1.5 
C 0.397805 1.5 0.77937 1.341951 1.06066 1.06066 
C 1.341951 0.77937 1.5 0.397805 1.5 0 
C 1.5 -0.397805 1.341951 -0.77937 1.06066 -1.06066 
C 0.77937 -1.341951 0.397805 -1.5 0 -1.5 
C -0.397805 -1.5 -0.77937 -1.341951 -1.06066 -1.06066 
C -1.341951 -0.77937 -1.5 -0.397805 -1.5 0 
C -1.5 0.397805 -1.341951 0.77937 -1.06066 1.06066 
C -0.77937 1.341951 -0.397805 1.5 0 1.5 
z
" id="m92edfcde95" style="stroke:#2ca02c;"/>
    </defs>
    <g clip-path="url(#pbcf3292bdb)">
     <use style="fill:#2ca02c;stroke:#2ca02c;" x="77.643665" xlink:href="#m92edfcde95" y="96.846132"/>
     <use style="fill:#2ca02c;stroke:#2ca02c;" x="79.266937" xlink:href="#m92edfcde95" y="114.471197"/>
     <use style="fill:#2ca02c;stroke:#2ca02c;" x="80.89021" xlink:href="#m92edfcde95" y="106.931974"/>
     <use style="fill:#2ca02c;stroke:#2ca02c;" x="82.513483" xlink:href="#m92edfcde95" y="116.010307"/>
     <use style="fill:#2ca02c;stroke:#2ca02c;" x="84.136756" xlink:href="#m92edfcde95" y="104.82825"/>
     <use style="fill:#2ca02c;stroke:#2ca02c;" x="85.760028" xlink:href="#m92edfcde95" y="85.605293"/>
     <use style="fill:#2ca02c;stroke:#2ca02c;" x="87.383301" xlink:href="#m92edfcde95" y="84.115564"/>
     <use style="fill:#2ca02c;stroke:#2ca02c;" x="89.006574" xlink:href="#m92edfcde95" y="103.317078"/>
     <use style="fill:#2ca02c;stroke:#2ca02c;" x="90.629847" xlink:href="#m92edfcde95" y="124.109495"/>
     <use style="fill:#2ca02c;stroke:#2ca02c;" x="92.253119" xlink:href="#m92edfcde95" y="94.591863"/>
     <use style="fill:#2ca02c;stroke:#2ca02c;" x="93.876392" xlink:href="#m92edfcde95" y="120.891979"/>
     <use style="fill:#2ca02c;stroke:#2ca02c;" x="95.499665" xlink:href="#m92edfcde95" y="136.557841"/>
     <use style="fill:#2ca02c;stroke:#2ca02c;" x="97.122938" xlink:href="#m92edfcde95" y="144.78025"/>
     <use style="fill:#2ca02c;stroke:#2ca02c;" x="98.74621" xlink:href="#m92edfcde95" y="109.675171"/>
     <use style="fill:#2ca02c;stroke:#2ca02c;" x="100.369483" xlink:href="#m92edfcde95" y="100.258319"/>
     <use style="fill:#2ca02c;stroke:#2ca02c;" x="101.992756" xlink:href="#m92edfcde95" y="107.175819"/>
     <use style="fill:#2ca02c;stroke:#2ca02c;" x="103.616028" xlink:href="#m92edfcde95" y="111.064358"/>
     <use style="fill:#2ca02c;stroke:#2ca02c;" x="105.239301" xlink:href="#m92edfcde95" y="125.304524"/>
     <use style="fill:#2ca02c;stroke:#2ca02c;" x="106.862574" xlink:href="#m92edfcde95" y="109.534337"/>
     <use style="fill:#2ca02c;stroke:#2ca02c;" x="108.485847" xlink:href="#m92edfcde95" y="117.629759"/>
     <use style="fill:#2ca02c;stroke:#2ca02c;" x="110.109119" xlink:href="#m92edfcde95" y="98.479971"/>
     <use style="fill:#2ca02c;stroke:#2ca02c;" x="111.732392" xlink:href="#m92edfcde95" y="116.687699"/>
     <use style="fill:#2ca02c;stroke:#2ca02c;" x="113.355665" xlink:href="#m92edfcde95" y="99.39496"/>
     <use style="fill:#2ca02c;stroke:#2ca02c;" x="114.978937" xlink:href="#m92edfcde95" y="112.708293"/>
     <use style="fill:#2ca02c;stroke:#2ca02c;" x="116.60221" xlink:href="#m92edfcde95" y="116.759156"/>
     <use style="fill:#2ca02c;stroke:#2ca02c;" x="118.225483" xlink:href="#m92edfcde95" y="114.00225"/>
     <use style="fill:#2ca02c;stroke:#2ca02c;" x="119.848756" xlink:href="#m92edfcde95" y="125.310115"/>
     <use style="fill:#2ca02c;stroke:#2ca02c;" x="121.472028" xlink:href="#m92edfcde95" y="123.379441"/>
     <use style="fill:#2ca02c;stroke:#2ca02c;" x="123.095301" xlink:href="#m92edfcde95" y="99.932534"/>
     <use style="fill:#2ca02c;stroke:#2ca02c;" x="124.718574" xlink:href="#m92edfcde95" y="113.179174"/>
     <use style="fill:#2ca02c;stroke:#2ca02c;" x="126.341847" xlink:href="#m92edfcde95" y="105.227132"/>
     <use style="fill:#2ca02c;stroke:#2ca02c;" x="127.965119" xlink:href="#m92edfcde95" y="92.64201"/>
     <use style="fill:#2ca02c;stroke:#2ca02c;" x="129.588392" xlink:href="#m92edfcde95" y="94.43625"/>
     <use style="fill:#2ca02c;stroke:#2ca02c;" x="131.211665" xlink:href="#m92edfcde95" y="137.098368"/>
     <use style="fill:#2ca02c;stroke:#2ca02c;" x="132.834937" xlink:href="#m92edfcde95" y="118.183544"/>
     <use style="fill:#2ca02c;stroke:#2ca02c;" x="134.45821" xlink:href="#m92edfcde95" y="88.35465"/>
     <use style="fill:#2ca02c;stroke:#2ca02c;" x="136.081483" xlink:href="#m92edfcde95" y="113.80425"/>
     <use style="fill:#2ca02c;stroke:#2ca02c;" x="137.704756" xlink:href="#m92edfcde95" y="105.969694"/>
     <use style="fill:#2ca02c;stroke:#2ca02c;" x="139.328028" xlink:href="#m92edfcde95" y="103.233795"/>
     <use style="fill:#2ca02c;stroke:#2ca02c;" x="140.951301" xlink:href="#m92edfcde95" y="93.941627"/>
     <use style="fill:#2ca02c;stroke:#2ca02c;" x="142.574574" xlink:href="#m92edfcde95" y="81.182412"/>
     <use style="fill:#2ca02c;stroke:#2ca02c;" x="144.197847" xlink:href="#m92edfcde95" y="80.052865"/>
     <use style="fill:#2ca02c;stroke:#2ca02c;" x="145.821119" xlink:href="#m92edfcde95" y="93.2865"/>
     <use style="fill:#2ca02c;stroke:#2ca02c;" x="147.444392" xlink:href="#m92edfcde95" y="74.990552"/>
     <use style="fill:#2ca02c;stroke:#2ca02c;" x="149.067665" xlink:href="#m92edfcde95" y="103.317078"/>
     <use style="fill:#2ca02c;stroke:#2ca02c;" x="150.690937" xlink:href="#m92edfcde95" y="121.222006"/>
     <use style="fill:#2ca02c;stroke:#2ca02c;" x="152.31421" xlink:href="#m92edfcde95" y="86.059239"/>
     <use style="fill:#2ca02c;stroke:#2ca02c;" x="153.937483" xlink:href="#m92edfcde95" y="89.598454"/>
     <use style="fill:#2ca02c;stroke:#2ca02c;" x="155.560756" xlink:href="#m92edfcde95" y="93.570892"/>
     <use style="fill:#2ca02c;stroke:#2ca02c;" x="157.184028" xlink:href="#m92edfcde95" y="96.864614"/>
     <use style="fill:#2ca02c;stroke:#2ca02c;" x="158.807301" xlink:href="#m92edfcde95" y="97.671175"/>
     <use style="fill:#2ca02c;stroke:#2ca02c;" x="162.053847" xlink:href="#m92edfcde95" y="89.119487"/>
     <use style="fill:#2ca02c;stroke:#2ca02c;" x="168.546937" xlink:href="#m92edfcde95" y="104.30025"/>
     <use style="fill:#2ca02c;stroke:#2ca02c;" x="175.040028" xlink:href="#m92edfcde95" y="109.79145"/>
     <use style="fill:#2ca02c;stroke:#2ca02c;" x="181.533119" xlink:href="#m92edfcde95" y="101.332756"/>
     <use style="fill:#2ca02c;stroke:#2ca02c;" x="188.02621" xlink:href="#m92edfcde95" y="111.449655"/>
     <use style="fill:#2ca02c;stroke:#2ca02c;" x="194.519301" xlink:href="#m92edfcde95" y="110.857273"/>
     <use style="fill:#2ca02c;stroke:#2ca02c;" x="201.012392" xlink:href="#m92edfcde95" y="85.92585"/>
     <use style="fill:#2ca02c;stroke:#2ca02c;" x="207.505483" xlink:href="#m92edfcde95" y="118.66185"/>
     <use style="fill:#2ca02c;stroke:#2ca02c;" x="213.998574" xlink:href="#m92edfcde95" y="114.59625"/>
     <use style="fill:#2ca02c;stroke:#2ca02c;" x="220.491665" xlink:href="#m92edfcde95" y="105.898782"/>
     <use style="fill:#2ca02c;stroke:#2ca02c;" x="226.984756" xlink:href="#m92edfcde95" y="110.134006"/>
     <use style="fill:#2ca02c;stroke:#2ca02c;" x="233.477847" xlink:href="#m92edfcde95" y="83.85225"/>
     <use style="fill:#2ca02c;stroke:#2ca02c;" x="239.970937" xlink:href="#m92edfcde95" y="96.258404"/>
     <use style="fill:#2ca02c;stroke:#2ca02c;" x="246.464028" xlink:href="#m92edfcde95" y="82.177945"/>
     <use style="fill:#2ca02c;stroke:#2ca02c;" x="252.957119" xlink:href="#m92edfcde95" y="71.138444"/>
     <use style="fill:#2ca02c;stroke:#2ca02c;" x="259.45021" xlink:href="#m92edfcde95" y="85.268067"/>
     <use style="fill:#2ca02c;stroke:#2ca02c;" x="265.943301" xlink:href="#m92edfcde95" y="69.62825"/>
     <use style="fill:#2ca02c;stroke:#2ca02c;" x="272.436392" xlink:href="#m92edfcde95" y="87.517705"/>
     <use style="fill:#2ca02c;stroke:#2ca02c;" x="278.929483" xlink:href="#m92edfcde95" y="79.922758"/>
     <use style="fill:#2ca02c;stroke:#2ca02c;" x="285.422574" xlink:href="#m92edfcde95" y="90.443693"/>
     <use style="fill:#2ca02c;stroke:#2ca02c;" x="291.915665" xlink:href="#m92edfcde95" y="95.783004"/>
     <use style="fill:#2ca02c;stroke:#2ca02c;" x="298.408756" xlink:href="#m92edfcde95" y="99.892598"/>
     <use style="fill:#2ca02c;stroke:#2ca02c;" x="304.901847" xlink:href="#m92edfcde95" y="83.052802"/>
     <use style="fill:#2ca02c;stroke:#2ca02c;" x="311.394938" xlink:href="#m92edfcde95" y="74.73225"/>
     <use style="fill:#2ca02c;stroke:#2ca02c;" x="317.888028" xlink:href="#m92edfcde95" y="107.311159"/>
     <use style="fill:#2ca02c;stroke:#2ca02c;" x="324.381119" xlink:href="#m92edfcde95" y="98.464461"/>
     <use style="fill:#2ca02c;stroke:#2ca02c;" x="330.87421" xlink:href="#m92edfcde95" y="77.76825"/>
     <use style="fill:#2ca02c;stroke:#2ca02c;" x="337.367301" xlink:href="#m92edfcde95" y="105.24075"/>
     <use style="fill:#2ca02c;stroke:#2ca02c;" x="343.860392" xlink:href="#m92edfcde95" y="96.19017"/>
     <use style="fill:#2ca02c;stroke:#2ca02c;" x="350.353483" xlink:href="#m92edfcde95" y="100.219436"/>
     <use style="fill:#2ca02c;stroke:#2ca02c;" x="356.846574" xlink:href="#m92edfcde95" y="99.037282"/>
     <use style="fill:#2ca02c;stroke:#2ca02c;" x="363.339665" xlink:href="#m92edfcde95" y="100.899309"/>
     <use style="fill:#2ca02c;stroke:#2ca02c;" x="369.832756" xlink:href="#m92edfcde95" y="119.79375"/>
     <use style="fill:#2ca02c;stroke:#2ca02c;" x="376.325847" xlink:href="#m92edfcde95" y="102.474623"/>
     <use style="fill:#2ca02c;stroke:#2ca02c;" x="382.818937" xlink:href="#m92edfcde95" y="107.630712"/>
     <use style="fill:#2ca02c;stroke:#2ca02c;" x="389.312028" xlink:href="#m92edfcde95" y="108.199327"/>
     <use style="fill:#2ca02c;stroke:#2ca02c;" x="395.805119" xlink:href="#m92edfcde95" y="103.432305"/>
     <use style="fill:#2ca02c;stroke:#2ca02c;" x="402.29821" xlink:href="#m92edfcde95" y="115.678806"/>
    </g>
   </g>
   <g id="line2d_26">
    <path clip-path="url(#pbcf3292bdb)" d="M 77.643665 63.455074 
L 79.266937 78.131375 
L 80.89021 68.680558 
L 82.513483 54.76425 
L 84.136756 56.49225 
L 85.760028 72.597459 
L 87.383301 66.767504 
L 89.006574 84.852892 
L 90.629847 80.882736 
L 92.253119 85.340988 
L 93.876392 88.958276 
L 95.499665 75.78825 
L 97.122938 71.582457 
L 98.74621 72.791493 
L 100.369483 76.662181 
L 101.992756 75.375673 
L 103.616028 66.351654 
L 105.239301 73.794902 
L 106.862574 71.425758 
L 108.485847 83.79625 
L 110.109119 70.36745 
L 111.732392 75.78825 
L 113.355665 73.851481 
L 114.978937 83.284363 
L 116.60221 84.247137 
L 118.225483 90.662396 
L 119.848756 82.569341 
L 121.472028 86.224015 
L 123.095301 88.535085 
L 124.718574 74.232039 
L 126.341847 70.131107 
L 127.965119 82.680791 
L 129.588392 83.89833 
L 131.211665 68.909164 
L 132.834937 84.790389 
L 134.45821 78.436131 
L 136.081483 84.804865 
L 137.704756 68.625815 
L 139.328028 73.831544 
L 140.951301 81.33225 
L 142.574574 64.878132 
L 144.197847 70.96738 
L 145.821119 66.631708 
L 147.444392 68.58825 
L 149.067665 79.375544 
L 150.690937 74.37464 
L 152.31421 66.406096 
L 153.937483 74.337484 
L 155.560756 74.040388 
L 157.184028 65.13225 
L 158.807301 72.32325 
L 162.053847 97.19956 
L 168.546937 76.84425 
L 175.040028 89.008558 
L 181.533119 69.277865 
L 188.02621 72.18465 
L 194.519301 94.523147 
L 201.012392 84.964526 
L 207.505483 69.093608 
L 213.998574 92.361892 
L 220.491665 81.131864 
L 226.984756 94.101334 
L 233.477847 80.22345 
L 239.970937 91.823204 
L 246.464028 75.204671 
L 252.957119 67.16425 
L 259.45021 80.648743 
L 265.943301 59.217173 
L 272.436392 80.279592 
L 278.929483 70.570368 
L 285.422574 74.719527 
L 291.915665 72.002104 
L 298.408756 73.358003 
L 304.901847 64.70025 
L 311.394938 88.228445 
L 317.888028 65.43945 
L 324.381119 60.81225 
L 330.87421 51.59625 
L 337.367301 63.553216 
L 343.860392 69.923523 
L 350.353483 66.067264 
L 356.846574 72.24009 
L 363.339665 64.26825 
L 369.832756 59.546673 
L 376.325847 67.86825 
L 382.818937 58.36425 
L 389.312028 79.33641 
L 395.805119 69.265897 
L 402.29821 65.065788 
" style="fill:none;stroke:#ff7f0e;stroke-linecap:square;stroke-width:1.5;"/>
    <defs>
     <path d="M 0 1.5 
C 0.397805 1.5 0.77937 1.341951 1.06066 1.06066 
C 1.341951 0.77937 1.5 0.397805 1.5 0 
C 1.5 -0.397805 1.341951 -0.77937 1.06066 -1.06066 
C 0.77937 -1.341951 0.397805 -1.5 0 -1.5 
C -0.397805 -1.5 -0.77937 -1.341951 -1.06066 -1.06066 
C -1.341951 -0.77937 -1.5 -0.397805 -1.5 0 
C -1.5 0.397805 -1.341951 0.77937 -1.06066 1.06066 
C -0.77937 1.341951 -0.397805 1.5 0 1.5 
z
" id="m3e2fb6b177" style="stroke:#ff7f0e;"/>
    </defs>
    <g clip-path="url(#pbcf3292bdb)">
     <use style="fill:#ff7f0e;stroke:#ff7f0e;" x="77.643665" xlink:href="#m3e2fb6b177" y="63.455074"/>
     <use style="fill:#ff7f0e;stroke:#ff7f0e;" x="79.266937" xlink:href="#m3e2fb6b177" y="78.131375"/>
     <use style="fill:#ff7f0e;stroke:#ff7f0e;" x="80.89021" xlink:href="#m3e2fb6b177" y="68.680558"/>
     <use style="fill:#ff7f0e;stroke:#ff7f0e;" x="82.513483" xlink:href="#m3e2fb6b177" y="54.76425"/>
     <use style="fill:#ff7f0e;stroke:#ff7f0e;" x="84.136756" xlink:href="#m3e2fb6b177" y="56.49225"/>
     <use style="fill:#ff7f0e;stroke:#ff7f0e;" x="85.760028" xlink:href="#m3e2fb6b177" y="72.597459"/>
     <use style="fill:#ff7f0e;stroke:#ff7f0e;" x="87.383301" xlink:href="#m3e2fb6b177" y="66.767504"/>
     <use style="fill:#ff7f0e;stroke:#ff7f0e;" x="89.006574" xlink:href="#m3e2fb6b177" y="84.852892"/>
     <use style="fill:#ff7f0e;stroke:#ff7f0e;" x="90.629847" xlink:href="#m3e2fb6b177" y="80.882736"/>
     <use style="fill:#ff7f0e;stroke:#ff7f0e;" x="92.253119" xlink:href="#m3e2fb6b177" y="85.340988"/>
     <use style="fill:#ff7f0e;stroke:#ff7f0e;" x="93.876392" xlink:href="#m3e2fb6b177" y="88.958276"/>
     <use style="fill:#ff7f0e;stroke:#ff7f0e;" x="95.499665" xlink:href="#m3e2fb6b177" y="75.78825"/>
     <use style="fill:#ff7f0e;stroke:#ff7f0e;" x="97.122938" xlink:href="#m3e2fb6b177" y="71.582457"/>
     <use style="fill:#ff7f0e;stroke:#ff7f0e;" x="98.74621" xlink:href="#m3e2fb6b177" y="72.791493"/>
     <use style="fill:#ff7f0e;stroke:#ff7f0e;" x="100.369483" xlink:href="#m3e2fb6b177" y="76.662181"/>
     <use style="fill:#ff7f0e;stroke:#ff7f0e;" x="101.992756" xlink:href="#m3e2fb6b177" y="75.375673"/>
     <use style="fill:#ff7f0e;stroke:#ff7f0e;" x="103.616028" xlink:href="#m3e2fb6b177" y="66.351654"/>
     <use style="fill:#ff7f0e;stroke:#ff7f0e;" x="105.239301" xlink:href="#m3e2fb6b177" y="73.794902"/>
     <use style="fill:#ff7f0e;stroke:#ff7f0e;" x="106.862574" xlink:href="#m3e2fb6b177" y="71.425758"/>
     <use style="fill:#ff7f0e;stroke:#ff7f0e;" x="108.485847" xlink:href="#m3e2fb6b177" y="83.79625"/>
     <use style="fill:#ff7f0e;stroke:#ff7f0e;" x="110.109119" xlink:href="#m3e2fb6b177" y="70.36745"/>
     <use style="fill:#ff7f0e;stroke:#ff7f0e;" x="111.732392" xlink:href="#m3e2fb6b177" y="75.78825"/>
     <use style="fill:#ff7f0e;stroke:#ff7f0e;" x="113.355665" xlink:href="#m3e2fb6b177" y="73.851481"/>
     <use style="fill:#ff7f0e;stroke:#ff7f0e;" x="114.978937" xlink:href="#m3e2fb6b177" y="83.284363"/>
     <use style="fill:#ff7f0e;stroke:#ff7f0e;" x="116.60221" xlink:href="#m3e2fb6b177" y="84.247137"/>
     <use style="fill:#ff7f0e;stroke:#ff7f0e;" x="118.225483" xlink:href="#m3e2fb6b177" y="90.662396"/>
     <use style="fill:#ff7f0e;stroke:#ff7f0e;" x="119.848756" xlink:href="#m3e2fb6b177" y="82.569341"/>
     <use style="fill:#ff7f0e;stroke:#ff7f0e;" x="121.472028" xlink:href="#m3e2fb6b177" y="86.224015"/>
     <use style="fill:#ff7f0e;stroke:#ff7f0e;" x="123.095301" xlink:href="#m3e2fb6b177" y="88.535085"/>
     <use style="fill:#ff7f0e;stroke:#ff7f0e;" x="124.718574" xlink:href="#m3e2fb6b177" y="74.232039"/>
     <use style="fill:#ff7f0e;stroke:#ff7f0e;" x="126.341847" xlink:href="#m3e2fb6b177" y="70.131107"/>
     <use style="fill:#ff7f0e;stroke:#ff7f0e;" x="127.965119" xlink:href="#m3e2fb6b177" y="82.680791"/>
     <use style="fill:#ff7f0e;stroke:#ff7f0e;" x="129.588392" xlink:href="#m3e2fb6b177" y="83.89833"/>
     <use style="fill:#ff7f0e;stroke:#ff7f0e;" x="131.211665" xlink:href="#m3e2fb6b177" y="68.909164"/>
     <use style="fill:#ff7f0e;stroke:#ff7f0e;" x="132.834937" xlink:href="#m3e2fb6b177" y="84.790389"/>
     <use style="fill:#ff7f0e;stroke:#ff7f0e;" x="134.45821" xlink:href="#m3e2fb6b177" y="78.436131"/>
     <use style="fill:#ff7f0e;stroke:#ff7f0e;" x="136.081483" xlink:href="#m3e2fb6b177" y="84.804865"/>
     <use style="fill:#ff7f0e;stroke:#ff7f0e;" x="137.704756" xlink:href="#m3e2fb6b177" y="68.625815"/>
     <use style="fill:#ff7f0e;stroke:#ff7f0e;" x="139.328028" xlink:href="#m3e2fb6b177" y="73.831544"/>
     <use style="fill:#ff7f0e;stroke:#ff7f0e;" x="140.951301" xlink:href="#m3e2fb6b177" y="81.33225"/>
     <use style="fill:#ff7f0e;stroke:#ff7f0e;" x="142.574574" xlink:href="#m3e2fb6b177" y="64.878132"/>
     <use style="fill:#ff7f0e;stroke:#ff7f0e;" x="144.197847" xlink:href="#m3e2fb6b177" y="70.96738"/>
     <use style="fill:#ff7f0e;stroke:#ff7f0e;" x="145.821119" xlink:href="#m3e2fb6b177" y="66.631708"/>
     <use style="fill:#ff7f0e;stroke:#ff7f0e;" x="147.444392" xlink:href="#m3e2fb6b177" y="68.58825"/>
     <use style="fill:#ff7f0e;stroke:#ff7f0e;" x="149.067665" xlink:href="#m3e2fb6b177" y="79.375544"/>
     <use style="fill:#ff7f0e;stroke:#ff7f0e;" x="150.690937" xlink:href="#m3e2fb6b177" y="74.37464"/>
     <use style="fill:#ff7f0e;stroke:#ff7f0e;" x="152.31421" xlink:href="#m3e2fb6b177" y="66.406096"/>
     <use style="fill:#ff7f0e;stroke:#ff7f0e;" x="153.937483" xlink:href="#m3e2fb6b177" y="74.337484"/>
     <use style="fill:#ff7f0e;stroke:#ff7f0e;" x="155.560756" xlink:href="#m3e2fb6b177" y="74.040388"/>
     <use style="fill:#ff7f0e;stroke:#ff7f0e;" x="157.184028" xlink:href="#m3e2fb6b177" y="65.13225"/>
     <use style="fill:#ff7f0e;stroke:#ff7f0e;" x="158.807301" xlink:href="#m3e2fb6b177" y="72.32325"/>
     <use style="fill:#ff7f0e;stroke:#ff7f0e;" x="162.053847" xlink:href="#m3e2fb6b177" y="97.19956"/>
     <use style="fill:#ff7f0e;stroke:#ff7f0e;" x="168.546937" xlink:href="#m3e2fb6b177" y="76.84425"/>
     <use style="fill:#ff7f0e;stroke:#ff7f0e;" x="175.040028" xlink:href="#m3e2fb6b177" y="89.008558"/>
     <use style="fill:#ff7f0e;stroke:#ff7f0e;" x="181.533119" xlink:href="#m3e2fb6b177" y="69.277865"/>
     <use style="fill:#ff7f0e;stroke:#ff7f0e;" x="188.02621" xlink:href="#m3e2fb6b177" y="72.18465"/>
     <use style="fill:#ff7f0e;stroke:#ff7f0e;" x="194.519301" xlink:href="#m3e2fb6b177" y="94.523147"/>
     <use style="fill:#ff7f0e;stroke:#ff7f0e;" x="201.012392" xlink:href="#m3e2fb6b177" y="84.964526"/>
     <use style="fill:#ff7f0e;stroke:#ff7f0e;" x="207.505483" xlink:href="#m3e2fb6b177" y="69.093608"/>
     <use style="fill:#ff7f0e;stroke:#ff7f0e;" x="213.998574" xlink:href="#m3e2fb6b177" y="92.361892"/>
     <use style="fill:#ff7f0e;stroke:#ff7f0e;" x="220.491665" xlink:href="#m3e2fb6b177" y="81.131864"/>
     <use style="fill:#ff7f0e;stroke:#ff7f0e;" x="226.984756" xlink:href="#m3e2fb6b177" y="94.101334"/>
     <use style="fill:#ff7f0e;stroke:#ff7f0e;" x="233.477847" xlink:href="#m3e2fb6b177" y="80.22345"/>
     <use style="fill:#ff7f0e;stroke:#ff7f0e;" x="239.970937" xlink:href="#m3e2fb6b177" y="91.823204"/>
     <use style="fill:#ff7f0e;stroke:#ff7f0e;" x="246.464028" xlink:href="#m3e2fb6b177" y="75.204671"/>
     <use style="fill:#ff7f0e;stroke:#ff7f0e;" x="252.957119" xlink:href="#m3e2fb6b177" y="67.16425"/>
     <use style="fill:#ff7f0e;stroke:#ff7f0e;" x="259.45021" xlink:href="#m3e2fb6b177" y="80.648743"/>
     <use style="fill:#ff7f0e;stroke:#ff7f0e;" x="265.943301" xlink:href="#m3e2fb6b177" y="59.217173"/>
     <use style="fill:#ff7f0e;stroke:#ff7f0e;" x="272.436392" xlink:href="#m3e2fb6b177" y="80.279592"/>
     <use style="fill:#ff7f0e;stroke:#ff7f0e;" x="278.929483" xlink:href="#m3e2fb6b177" y="70.570368"/>
     <use style="fill:#ff7f0e;stroke:#ff7f0e;" x="285.422574" xlink:href="#m3e2fb6b177" y="74.719527"/>
     <use style="fill:#ff7f0e;stroke:#ff7f0e;" x="291.915665" xlink:href="#m3e2fb6b177" y="72.002104"/>
     <use style="fill:#ff7f0e;stroke:#ff7f0e;" x="298.408756" xlink:href="#m3e2fb6b177" y="73.358003"/>
     <use style="fill:#ff7f0e;stroke:#ff7f0e;" x="304.901847" xlink:href="#m3e2fb6b177" y="64.70025"/>
     <use style="fill:#ff7f0e;stroke:#ff7f0e;" x="311.394938" xlink:href="#m3e2fb6b177" y="88.228445"/>
     <use style="fill:#ff7f0e;stroke:#ff7f0e;" x="317.888028" xlink:href="#m3e2fb6b177" y="65.43945"/>
     <use style="fill:#ff7f0e;stroke:#ff7f0e;" x="324.381119" xlink:href="#m3e2fb6b177" y="60.81225"/>
     <use style="fill:#ff7f0e;stroke:#ff7f0e;" x="330.87421" xlink:href="#m3e2fb6b177" y="51.59625"/>
     <use style="fill:#ff7f0e;stroke:#ff7f0e;" x="337.367301" xlink:href="#m3e2fb6b177" y="63.553216"/>
     <use style="fill:#ff7f0e;stroke:#ff7f0e;" x="343.860392" xlink:href="#m3e2fb6b177" y="69.923523"/>
     <use style="fill:#ff7f0e;stroke:#ff7f0e;" x="350.353483" xlink:href="#m3e2fb6b177" y="66.067264"/>
     <use style="fill:#ff7f0e;stroke:#ff7f0e;" x="356.846574" xlink:href="#m3e2fb6b177" y="72.24009"/>
     <use style="fill:#ff7f0e;stroke:#ff7f0e;" x="363.339665" xlink:href="#m3e2fb6b177" y="64.26825"/>
     <use style="fill:#ff7f0e;stroke:#ff7f0e;" x="369.832756" xlink:href="#m3e2fb6b177" y="59.546673"/>
     <use style="fill:#ff7f0e;stroke:#ff7f0e;" x="376.325847" xlink:href="#m3e2fb6b177" y="67.86825"/>
     <use style="fill:#ff7f0e;stroke:#ff7f0e;" x="382.818937" xlink:href="#m3e2fb6b177" y="58.36425"/>
     <use style="fill:#ff7f0e;stroke:#ff7f0e;" x="389.312028" xlink:href="#m3e2fb6b177" y="79.33641"/>
     <use style="fill:#ff7f0e;stroke:#ff7f0e;" x="395.805119" xlink:href="#m3e2fb6b177" y="69.265897"/>
     <use style="fill:#ff7f0e;stroke:#ff7f0e;" x="402.29821" xlink:href="#m3e2fb6b177" y="65.065788"/>
    </g>
   </g>
   <g id="patch_3">
    <path d="M 61.410938 297.54825 
L 61.410938 31.43625 
" style="fill:none;stroke:#000000;stroke-linecap:square;stroke-linejoin:miter;stroke-width:0.8;"/>
   </g>
   <g id="patch_4">
    <path d="M 418.530938 297.54825 
L 418.530938 31.43625 
" style="fill:none;stroke:#000000;stroke-linecap:square;stroke-linejoin:miter;stroke-width:0.8;"/>
   </g>
   <g id="patch_5">
    <path d="M 61.410937 297.54825 
L 418.530937 297.54825 
" style="fill:none;stroke:#000000;stroke-linecap:square;stroke-linejoin:miter;stroke-width:0.8;"/>
   </g>
   <g id="patch_6">
    <path d="M 61.410937 31.43625 
L 418.530937 31.43625 
" style="fill:none;stroke:#000000;stroke-linecap:square;stroke-linejoin:miter;stroke-width:0.8;"/>
   </g>
   <g id="text_15">
    <!-- PA spectrum (one-body) -->
    <defs>
     <path d="M 19.671875 64.796875 
L 19.671875 37.40625 
L 32.078125 37.40625 
Q 38.96875 37.40625 42.71875 40.96875 
Q 46.484375 44.53125 46.484375 51.125 
Q 46.484375 57.671875 42.71875 61.234375 
Q 38.96875 64.796875 32.078125 64.796875 
z
M 9.8125 72.90625 
L 32.078125 72.90625 
Q 44.34375 72.90625 50.609375 67.359375 
Q 56.890625 61.8125 56.890625 51.125 
Q 56.890625 40.328125 50.609375 34.8125 
Q 44.34375 29.296875 32.078125 29.296875 
L 19.671875 29.296875 
L 19.671875 0 
L 9.8125 0 
z
" id="DejaVuSans-80"/>
     <path d="M 34.1875 63.1875 
L 20.796875 26.90625 
L 47.609375 26.90625 
z
M 28.609375 72.90625 
L 39.796875 72.90625 
L 67.578125 0 
L 57.328125 0 
L 50.6875 18.703125 
L 17.828125 18.703125 
L 11.1875 0 
L 0.78125 0 
z
" id="DejaVuSans-65"/>
     <path d="M 18.109375 8.203125 
L 18.109375 -20.796875 
L 9.078125 -20.796875 
L 9.078125 54.6875 
L 18.109375 54.6875 
L 18.109375 46.390625 
Q 20.953125 51.265625 25.265625 53.625 
Q 29.59375 56 35.59375 56 
Q 45.5625 56 51.78125 48.09375 
Q 58.015625 40.1875 58.015625 27.296875 
Q 58.015625 14.40625 51.78125 6.484375 
Q 45.5625 -1.421875 35.59375 -1.421875 
Q 29.59375 -1.421875 25.265625 0.953125 
Q 20.953125 3.328125 18.109375 8.203125 
z
M 48.6875 27.296875 
Q 48.6875 37.203125 44.609375 42.84375 
Q 40.53125 48.484375 33.40625 48.484375 
Q 26.265625 48.484375 22.1875 42.84375 
Q 18.109375 37.203125 18.109375 27.296875 
Q 18.109375 17.390625 22.1875 11.75 
Q 26.265625 6.109375 33.40625 6.109375 
Q 40.53125 6.109375 44.609375 11.75 
Q 48.6875 17.390625 48.6875 27.296875 
z
" id="DejaVuSans-112"/>
     <path d="M 48.78125 52.59375 
L 48.78125 44.1875 
Q 44.96875 46.296875 41.140625 47.34375 
Q 37.3125 48.390625 33.40625 48.390625 
Q 24.65625 48.390625 19.8125 42.84375 
Q 14.984375 37.3125 14.984375 27.296875 
Q 14.984375 17.28125 19.8125 11.734375 
Q 24.65625 6.203125 33.40625 6.203125 
Q 37.3125 6.203125 41.140625 7.25 
Q 44.96875 8.296875 48.78125 10.40625 
L 48.78125 2.09375 
Q 45.015625 0.34375 40.984375 -0.53125 
Q 36.96875 -1.421875 32.421875 -1.421875 
Q 20.0625 -1.421875 12.78125 6.34375 
Q 5.515625 14.109375 5.515625 27.296875 
Q 5.515625 40.671875 12.859375 48.328125 
Q 20.21875 56 33.015625 56 
Q 37.15625 56 41.109375 55.140625 
Q 45.0625 54.296875 48.78125 52.59375 
z
" id="DejaVuSans-99"/>
     <path d="M 18.3125 70.21875 
L 18.3125 54.6875 
L 36.8125 54.6875 
L 36.8125 47.703125 
L 18.3125 47.703125 
L 18.3125 18.015625 
Q 18.3125 11.328125 20.140625 9.421875 
Q 21.96875 7.515625 27.59375 7.515625 
L 36.8125 7.515625 
L 36.8125 0 
L 27.59375 0 
Q 17.1875 0 13.234375 3.875 
Q 9.28125 7.765625 9.28125 18.015625 
L 9.28125 47.703125 
L 2.6875 47.703125 
L 2.6875 54.6875 
L 9.28125 54.6875 
L 9.28125 70.21875 
z
" id="DejaVuSans-116"/>
     <path d="M 52 44.1875 
Q 55.375 50.25 60.0625 53.125 
Q 64.75 56 71.09375 56 
Q 79.640625 56 84.28125 50.015625 
Q 88.921875 44.046875 88.921875 33.015625 
L 88.921875 0 
L 79.890625 0 
L 79.890625 32.71875 
Q 79.890625 40.578125 77.09375 44.375 
Q 74.3125 48.1875 68.609375 48.1875 
Q 61.625 48.1875 57.5625 43.546875 
Q 53.515625 38.921875 53.515625 30.90625 
L 53.515625 0 
L 44.484375 0 
L 44.484375 32.71875 
Q 44.484375 40.625 41.703125 44.40625 
Q 38.921875 48.1875 33.109375 48.1875 
Q 26.21875 48.1875 22.15625 43.53125 
Q 18.109375 38.875 18.109375 30.90625 
L 18.109375 0 
L 9.078125 0 
L 9.078125 54.6875 
L 18.109375 54.6875 
L 18.109375 46.1875 
Q 21.1875 51.21875 25.484375 53.609375 
Q 29.78125 56 35.6875 56 
Q 41.65625 56 45.828125 52.96875 
Q 50 49.953125 52 44.1875 
z
" id="DejaVuSans-109"/>
     <path d="M 31 75.875 
Q 24.46875 64.65625 21.28125 53.65625 
Q 18.109375 42.671875 18.109375 31.390625 
Q 18.109375 20.125 21.3125 9.0625 
Q 24.515625 -2 31 -13.1875 
L 23.1875 -13.1875 
Q 15.875 -1.703125 12.234375 9.375 
Q 8.59375 20.453125 8.59375 31.390625 
Q 8.59375 42.28125 12.203125 53.3125 
Q 15.828125 64.359375 23.1875 75.875 
z
" id="DejaVuSans-40"/>
     <path d="M 8.015625 75.875 
L 15.828125 75.875 
Q 23.140625 64.359375 26.78125 53.3125 
Q 30.421875 42.28125 30.421875 31.390625 
Q 30.421875 20.453125 26.78125 9.375 
Q 23.140625 -1.703125 15.828125 -13.1875 
L 8.015625 -13.1875 
Q 14.5 -2 17.703125 9.0625 
Q 20.90625 20.125 20.90625 31.390625 
Q 20.90625 42.671875 17.703125 53.65625 
Q 14.5 64.65625 8.015625 75.875 
z
" id="DejaVuSans-41"/>
    </defs>
    <g transform="translate(95.175938 25.43625)scale(0.24 -0.24)">
     <use xlink:href="#DejaVuSans-80"/>
     <use x="53.927734" xlink:href="#DejaVuSans-65"/>
     <use x="122.335938" xlink:href="#DejaVuSans-32"/>
     <use x="154.123047" xlink:href="#DejaVuSans-115"/>
     <use x="206.222656" xlink:href="#DejaVuSans-112"/>
     <use x="269.699219" xlink:href="#DejaVuSans-101"/>
     <use x="331.222656" xlink:href="#DejaVuSans-99"/>
     <use x="386.203125" xlink:href="#DejaVuSans-116"/>
     <use x="425.412109" xlink:href="#DejaVuSans-114"/>
     <use x="466.525391" xlink:href="#DejaVuSans-117"/>
     <use x="529.904297" xlink:href="#DejaVuSans-109"/>
     <use x="627.316406" xlink:href="#DejaVuSans-32"/>
     <use x="659.103516" xlink:href="#DejaVuSans-40"/>
     <use x="698.117188" xlink:href="#DejaVuSans-111"/>
     <use x="759.298828" xlink:href="#DejaVuSans-110"/>
     <use x="822.677734" xlink:href="#DejaVuSans-101"/>
     <use x="884.201172" xlink:href="#DejaVuSans-45"/>
     <use x="920.285156" xlink:href="#DejaVuSans-98"/>
     <use x="983.761719" xlink:href="#DejaVuSans-111"/>
     <use x="1044.943359" xlink:href="#DejaVuSans-100"/>
     <use x="1108.419922" xlink:href="#DejaVuSans-121"/>
     <use x="1167.599609" xlink:href="#DejaVuSans-41"/>
    </g>
   </g>
   <g id="legend_1">
    <g id="patch_7">
     <path d="M 73.072938 289.21825 
L 149.058156 289.21825 
Q 152.390156 289.21825 152.390156 285.88625 
L 152.390156 238.644737 
Q 152.390156 235.312737 149.058156 235.312737 
L 73.072938 235.312737 
Q 69.740938 235.312737 69.740938 238.644737 
L 69.740938 285.88625 
Q 69.740938 289.21825 73.072938 289.21825 
z
" style="fill:#ffffff;opacity:0.8;stroke:#cccccc;stroke-linejoin:miter;"/>
    </g>
    <g id="LineCollection_3">
     <path d="M 93.064938 257.134734 
L 93.064938 240.474734 
" style="fill:none;stroke:#2ca02c;stroke-width:1.5;"/>
    </g>
    <g id="line2d_27">
     <path d="M 76.404938 248.804734 
L 109.724938 248.804734 
" style="fill:none;stroke:#2ca02c;stroke-linecap:square;stroke-width:1.5;"/>
    </g>
    <g id="line2d_28">
     <g>
      <use style="fill:#2ca02c;stroke:#2ca02c;" x="93.064938" xlink:href="#m92edfcde95" y="248.804734"/>
     </g>
    </g>
    <g id="text_16">
     <!-- Cs -->
     <defs>
      <path d="M 64.40625 67.28125 
L 64.40625 56.890625 
Q 59.421875 61.53125 53.78125 63.8125 
Q 48.140625 66.109375 41.796875 66.109375 
Q 29.296875 66.109375 22.65625 58.46875 
Q 16.015625 50.828125 16.015625 36.375 
Q 16.015625 21.96875 22.65625 14.328125 
Q 29.296875 6.6875 41.796875 6.6875 
Q 48.140625 6.6875 53.78125 8.984375 
Q 59.421875 11.28125 64.40625 15.921875 
L 64.40625 5.609375 
Q 59.234375 2.09375 53.4375 0.328125 
Q 47.65625 -1.421875 41.21875 -1.421875 
Q 24.65625 -1.421875 15.125 8.703125 
Q 5.609375 18.84375 5.609375 36.375 
Q 5.609375 53.953125 15.125 64.078125 
Q 24.65625 74.21875 41.21875 74.21875 
Q 47.75 74.21875 53.53125 72.484375 
Q 59.328125 70.75 64.40625 67.28125 
z
" id="DejaVuSans-67"/>
     </defs>
     <g transform="translate(123.052938 254.635734)scale(0.1666 -0.1666)">
      <use xlink:href="#DejaVuSans-67"/>
      <use x="69.824219" xlink:href="#DejaVuSans-115"/>
     </g>
    </g>
    <g id="LineCollection_4">
     <path d="M 93.064938 281.588491 
L 93.064938 264.928491 
" style="fill:none;stroke:#ff7f0e;stroke-width:1.5;"/>
    </g>
    <g id="line2d_29">
     <path d="M 76.404938 273.258491 
L 109.724938 273.258491 
" style="fill:none;stroke:#ff7f0e;stroke-linecap:square;stroke-width:1.5;"/>
    </g>
    <g id="line2d_30">
     <g>
      <use style="fill:#ff7f0e;stroke:#ff7f0e;" x="93.064938" xlink:href="#m3e2fb6b177" y="273.258491"/>
     </g>
    </g>
    <g id="text_17">
     <!-- Na -->
     <defs>
      <path d="M 9.8125 72.90625 
L 23.09375 72.90625 
L 55.421875 11.921875 
L 55.421875 72.90625 
L 64.984375 72.90625 
L 64.984375 0 
L 51.703125 0 
L 19.390625 60.984375 
L 19.390625 0 
L 9.8125 0 
z
" id="DejaVuSans-78"/>
     </defs>
     <g transform="translate(123.052938 279.089491)scale(0.1666 -0.1666)">
      <use xlink:href="#DejaVuSans-78"/>
      <use x="74.804688" xlink:href="#DejaVuSans-97"/>
     </g>
    </g>
   </g>
  </g>
 </g>
 <defs>
  <clipPath id="pbcf3292bdb">
   <rect height="266.112" width="357.12" x="61.410938" y="31.43625"/>
  </clipPath>
 </defs>
</svg>
