<?xml version="1.0" encoding="utf-8" standalone="no"?>
<!DOCTYPE svg PUBLIC "-//W3C//DTD SVG 1.1//EN"
  "http://www.w3.org/Graphics/SVG/1.1/DTD/svg11.dtd">
<!-- Created with matplotlib (http://matplotlib.org/) -->
<svg height="331pt" version="1.1" viewBox="0 0 429 331" width="429pt" xmlns="http://www.w3.org/2000/svg" xmlns:xlink="http://www.w3.org/1999/xlink">
 <defs>
  <style type="text/css">
*{stroke-linecap:butt;stroke-linejoin:round;}
  </style>
 </defs>
 <g id="figure_1">
  <g id="patch_1">
   <path d="M 0 331.128016 
L 429.230937 331.128016 
L 429.230937 0 
L 0 0 
z
" style="fill:none;"/>
  </g>
  <g id="axes_1">
   <g id="patch_2">
    <path d="M 61.410938 279.010828 
L 418.530938 279.010828 
L 418.530938 12.898828 
L 61.410938 12.898828 
z
" style="fill:none;"/>
   </g>
   <g id="matplotlib.axis_1">
    <g id="xtick_1">
     <g id="line2d_1">
      <path clip-path="url(#p7ff95d580a)" d="M 61.410938 279.010828 
L 61.410938 12.898828 
" style="fill:none;stroke:#b0b0b0;stroke-linecap:square;stroke-width:0.8;"/>
     </g>
     <g id="line2d_2">
      <defs>
       <path d="M 0 0 
L 0 3.5 
" id="m584c94e0e9" style="stroke:#000000;stroke-width:0.8;"/>
      </defs>
      <g>
       <use style="stroke:#000000;stroke-width:0.8;" x="61.410938" xlink:href="#m584c94e0e9" y="279.010828"/>
      </g>
     </g>
     <g id="text_1">
      <!-- 0 -->
      <defs>
       <path d="M 31.78125 66.40625 
Q 24.171875 66.40625 20.328125 58.90625 
Q 16.5 51.421875 16.5 36.375 
Q 16.5 21.390625 20.328125 13.890625 
Q 24.171875 6.390625 31.78125 6.390625 
Q 39.453125 6.390625 43.28125 13.890625 
Q 47.125 21.390625 47.125 36.375 
Q 47.125 51.421875 43.28125 58.90625 
Q 39.453125 66.40625 31.78125 66.40625 
z
M 31.78125 74.21875 
Q 44.046875 74.21875 50.515625 64.515625 
Q 56.984375 54.828125 56.984375 36.375 
Q 56.984375 17.96875 50.515625 8.265625 
Q 44.046875 -1.421875 31.78125 -1.421875 
Q 19.53125 -1.421875 13.0625 8.265625 
Q 6.59375 17.96875 6.59375 36.375 
Q 6.59375 54.828125 13.0625 64.515625 
Q 19.53125 74.21875 31.78125 74.21875 
z
" id="DejaVuSans-30"/>
      </defs>
      <g transform="translate(56.639063 297.408484)scale(0.15 -0.15)">
       <use xlink:href="#DejaVuSans-30"/>
      </g>
     </g>
    </g>
    <g id="xtick_2">
     <g id="line2d_3">
      <path clip-path="url(#p7ff95d580a)" d="M 160.610938 279.010828 
L 160.610938 12.898828 
" style="fill:none;stroke:#b0b0b0;stroke-linecap:square;stroke-width:0.8;"/>
     </g>
     <g id="line2d_4">
      <g>
       <use style="stroke:#000000;stroke-width:0.8;" x="160.610938" xlink:href="#m584c94e0e9" y="279.010828"/>
      </g>
     </g>
     <g id="text_2">
      <!-- 50 -->
      <defs>
       <path d="M 10.796875 72.90625 
L 49.515625 72.90625 
L 49.515625 64.59375 
L 19.828125 64.59375 
L 19.828125 46.734375 
Q 21.96875 47.46875 24.109375 47.828125 
Q 26.265625 48.1875 28.421875 48.1875 
Q 40.625 48.1875 47.75 41.5 
Q 54.890625 34.8125 54.890625 23.390625 
Q 54.890625 11.625 47.5625 5.09375 
Q 40.234375 -1.421875 26.90625 -1.421875 
Q 22.3125 -1.421875 17.546875 -0.640625 
Q 12.796875 0.140625 7.71875 1.703125 
L 7.71875 11.625 
Q 12.109375 9.234375 16.796875 8.0625 
Q 21.484375 6.890625 26.703125 6.890625 
Q 35.15625 6.890625 40.078125 11.328125 
Q 45.015625 15.765625 45.015625 23.390625 
Q 45.015625 31 40.078125 35.4375 
Q 35.15625 39.890625 26.703125 39.890625 
Q 22.75 39.890625 18.8125 39.015625 
Q 14.890625 38.140625 10.796875 36.28125 
z
" id="DejaVuSans-35"/>
      </defs>
      <g transform="translate(151.067188 297.408484)scale(0.15 -0.15)">
       <use xlink:href="#DejaVuSans-35"/>
       <use x="63.623047" xlink:href="#DejaVuSans-30"/>
      </g>
     </g>
    </g>
    <g id="xtick_3">
     <g id="line2d_5">
      <path clip-path="url(#p7ff95d580a)" d="M 259.810938 279.010828 
L 259.810938 12.898828 
" style="fill:none;stroke:#b0b0b0;stroke-linecap:square;stroke-width:0.8;"/>
     </g>
     <g id="line2d_6">
      <g>
       <use style="stroke:#000000;stroke-width:0.8;" x="259.810938" xlink:href="#m584c94e0e9" y="279.010828"/>
      </g>
     </g>
     <g id="text_3">
      <!-- 100 -->
      <defs>
       <path d="M 12.40625 8.296875 
L 28.515625 8.296875 
L 28.515625 63.921875 
L 10.984375 60.40625 
L 10.984375 69.390625 
L 28.421875 72.90625 
L 38.28125 72.90625 
L 38.28125 8.296875 
L 54.390625 8.296875 
L 54.390625 0 
L 12.40625 0 
z
" id="DejaVuSans-31"/>
      </defs>
      <g transform="translate(245.495313 297.408484)scale(0.15 -0.15)">
       <use xlink:href="#DejaVuSans-31"/>
       <use x="63.623047" xlink:href="#DejaVuSans-30"/>
       <use x="127.246094" xlink:href="#DejaVuSans-30"/>
      </g>
     </g>
    </g>
    <g id="xtick_4">
     <g id="line2d_7">
      <path clip-path="url(#p7ff95d580a)" d="M 359.010938 279.010828 
L 359.010938 12.898828 
" style="fill:none;stroke:#b0b0b0;stroke-linecap:square;stroke-width:0.8;"/>
     </g>
     <g id="line2d_8">
      <g>
       <use style="stroke:#000000;stroke-width:0.8;" x="359.010938" xlink:href="#m584c94e0e9" y="279.010828"/>
      </g>
     </g>
     <g id="text_4">
      <!-- 150 -->
      <g transform="translate(344.695313 297.408484)scale(0.15 -0.15)">
       <use xlink:href="#DejaVuSans-31"/>
       <use x="63.623047" xlink:href="#DejaVuSans-35"/>
       <use x="127.246094" xlink:href="#DejaVuSans-30"/>
      </g>
     </g>
    </g>
    <g id="text_5">
     <!-- Time ($\mu s$) -->
     <defs>
      <path d="M -0.296875 72.90625 
L 61.375 72.90625 
L 61.375 64.59375 
L 35.5 64.59375 
L 35.5 0 
L 25.59375 0 
L 25.59375 64.59375 
L -0.296875 64.59375 
z
" id="DejaVuSans-54"/>
      <path d="M 9.421875 54.6875 
L 18.40625 54.6875 
L 18.40625 0 
L 9.421875 0 
z
M 9.421875 75.984375 
L 18.40625 75.984375 
L 18.40625 64.59375 
L 9.421875 64.59375 
z
" id="DejaVuSans-69"/>
      <path d="M 52 44.1875 
Q 55.375 50.25 60.0625 53.125 
Q 64.75 56 71.09375 56 
Q 79.640625 56 84.28125 50.015625 
Q 88.921875 44.046875 88.921875 33.015625 
L 88.921875 0 
L 79.890625 0 
L 79.890625 32.71875 
Q 79.890625 40.578125 77.09375 44.375 
Q 74.3125 48.1875 68.609375 48.1875 
Q 61.625 48.1875 57.5625 43.546875 
Q 53.515625 38.921875 53.515625 30.90625 
L 53.515625 0 
L 44.484375 0 
L 44.484375 32.71875 
Q 44.484375 40.625 41.703125 44.40625 
Q 38.921875 48.1875 33.109375 48.1875 
Q 26.21875 48.1875 22.15625 43.53125 
Q 18.109375 38.875 18.109375 30.90625 
L 18.109375 0 
L 9.078125 0 
L 9.078125 54.6875 
L 18.109375 54.6875 
L 18.109375 46.1875 
Q 21.1875 51.21875 25.484375 53.609375 
Q 29.78125 56 35.6875 56 
Q 41.65625 56 45.828125 52.96875 
Q 50 49.953125 52 44.1875 
z
" id="DejaVuSans-6d"/>
      <path d="M 56.203125 29.59375 
L 56.203125 25.203125 
L 14.890625 25.203125 
Q 15.484375 15.921875 20.484375 11.0625 
Q 25.484375 6.203125 34.421875 6.203125 
Q 39.59375 6.203125 44.453125 7.46875 
Q 49.3125 8.734375 54.109375 11.28125 
L 54.109375 2.78125 
Q 49.265625 0.734375 44.1875 -0.34375 
Q 39.109375 -1.421875 33.890625 -1.421875 
Q 20.796875 -1.421875 13.15625 6.1875 
Q 5.515625 13.8125 5.515625 26.8125 
Q 5.515625 40.234375 12.765625 48.109375 
Q 20.015625 56 32.328125 56 
Q 43.359375 56 49.78125 48.890625 
Q 56.203125 41.796875 56.203125 29.59375 
z
M 47.21875 32.234375 
Q 47.125 39.59375 43.09375 43.984375 
Q 39.0625 48.390625 32.421875 48.390625 
Q 24.90625 48.390625 20.390625 44.140625 
Q 15.875 39.890625 15.1875 32.171875 
z
" id="DejaVuSans-65"/>
      <path id="DejaVuSans-20"/>
      <path d="M 31 75.875 
Q 24.46875 64.65625 21.28125 53.65625 
Q 18.109375 42.671875 18.109375 31.390625 
Q 18.109375 20.125 21.3125 9.0625 
Q 24.515625 -2 31 -13.1875 
L 23.1875 -13.1875 
Q 15.875 -1.703125 12.234375 9.375 
Q 8.59375 20.453125 8.59375 31.390625 
Q 8.59375 42.28125 12.203125 53.3125 
Q 15.828125 64.359375 23.1875 75.875 
z
" id="DejaVuSans-28"/>
      <path d="M -1.3125 -20.796875 
L 13.375 54.6875 
L 22.40625 54.6875 
L 15.765625 20.65625 
Q 15.578125 19.625 15.421875 18.359375 
Q 15.28125 17.09375 15.28125 15.828125 
Q 15.28125 11.28125 18.140625 8.828125 
Q 21 6.390625 26.3125 6.390625 
Q 33.546875 6.390625 37.984375 10.484375 
Q 42.4375 14.59375 44 22.796875 
L 50.203125 54.6875 
L 59.1875 54.6875 
L 51.03125 12.640625 
Q 50.828125 11.71875 50.75 11.03125 
Q 50.6875 10.359375 50.6875 9.8125 
Q 50.6875 8.296875 51.296875 7.59375 
Q 51.90625 6.890625 53.21875 6.890625 
Q 53.71875 6.890625 54.5625 7.125 
Q 55.421875 7.375 56.984375 8.015625 
L 55.609375 0.78125 
Q 53.46875 -0.296875 51.515625 -0.859375 
Q 49.5625 -1.421875 47.703125 -1.421875 
Q 44.484375 -1.421875 42.65625 0.625 
Q 40.828125 2.6875 40.828125 6.296875 
Q 38.09375 2.390625 34.296875 0.484375 
Q 30.515625 -1.421875 25.390625 -1.421875 
Q 20.84375 -1.421875 17.453125 0.671875 
Q 14.0625 2.78125 12.984375 6.203125 
L 7.71875 -20.796875 
z
" id="DejaVuSans-Oblique-3bc"/>
      <path d="M 50 53.078125 
L 48.296875 44.578125 
Q 44.734375 46.53125 40.765625 47.5 
Q 36.8125 48.484375 32.625 48.484375 
Q 25.53125 48.484375 21.453125 46.0625 
Q 17.390625 43.65625 17.390625 39.5 
Q 17.390625 34.671875 26.859375 32.078125 
Q 27.59375 31.890625 27.9375 31.78125 
L 30.8125 30.90625 
Q 39.796875 28.421875 42.796875 25.6875 
Q 45.796875 22.953125 45.796875 18.21875 
Q 45.796875 9.515625 38.890625 4.046875 
Q 31.984375 -1.421875 20.796875 -1.421875 
Q 16.453125 -1.421875 11.671875 -0.578125 
Q 6.890625 0.25 1.125 2 
L 2.875 11.28125 
Q 7.8125 8.734375 12.59375 7.421875 
Q 17.390625 6.109375 21.78125 6.109375 
Q 28.375 6.109375 32.5 8.9375 
Q 36.625 11.765625 36.625 16.109375 
Q 36.625 20.796875 25.78125 23.6875 
L 24.859375 23.921875 
L 21.78125 24.703125 
Q 14.9375 26.515625 11.765625 29.46875 
Q 8.59375 32.421875 8.59375 37.015625 
Q 8.59375 45.75 15.15625 50.875 
Q 21.734375 56 33.015625 56 
Q 37.453125 56 41.671875 55.265625 
Q 45.90625 54.546875 50 53.078125 
z
" id="DejaVuSans-Oblique-73"/>
      <path d="M 8.015625 75.875 
L 15.828125 75.875 
Q 23.140625 64.359375 26.78125 53.3125 
Q 30.421875 42.28125 30.421875 31.390625 
Q 30.421875 20.453125 26.78125 9.375 
Q 23.140625 -1.703125 15.828125 -13.1875 
L 8.015625 -13.1875 
Q 14.5 -2 17.703125 9.0625 
Q 20.90625 20.125 20.90625 31.390625 
Q 20.90625 42.671875 17.703125 53.65625 
Q 14.5 64.65625 8.015625 75.875 
z
" id="DejaVuSans-29"/>
     </defs>
     <g transform="translate(192.570938 319.728016)scale(0.2 -0.2)">
      <use transform="translate(0 0.015625)" xlink:href="#DejaVuSans-54"/>
      <use transform="translate(61.083984 0.015625)" xlink:href="#DejaVuSans-69"/>
      <use transform="translate(88.867188 0.015625)" xlink:href="#DejaVuSans-6d"/>
      <use transform="translate(186.279297 0.015625)" xlink:href="#DejaVuSans-65"/>
      <use transform="translate(247.802734 0.015625)" xlink:href="#DejaVuSans-20"/>
      <use transform="translate(279.589844 0.015625)" xlink:href="#DejaVuSans-28"/>
      <use transform="translate(318.603516 0.015625)" xlink:href="#DejaVuSans-Oblique-3bc"/>
      <use transform="translate(382.226562 0.015625)" xlink:href="#DejaVuSans-Oblique-73"/>
      <use transform="translate(434.326172 0.015625)" xlink:href="#DejaVuSans-29"/>
     </g>
    </g>
   </g>
   <g id="matplotlib.axis_2">
    <g id="ytick_1">
     <g id="line2d_9">
      <path clip-path="url(#p7ff95d580a)" d="M 61.410938 279.010828 
L 418.530938 279.010828 
" style="fill:none;stroke:#b0b0b0;stroke-linecap:square;stroke-width:0.8;"/>
     </g>
     <g id="line2d_10">
      <defs>
       <path d="M 0 0 
L -3.5 0 
" id="mbf1a7d2a32" style="stroke:#000000;stroke-width:0.8;"/>
      </defs>
      <g>
       <use style="stroke:#000000;stroke-width:0.8;" x="61.410938" xlink:href="#mbf1a7d2a32" y="279.010828"/>
      </g>
     </g>
     <g id="text_6">
      <!-- 0.0 -->
      <defs>
       <path d="M 10.6875 12.40625 
L 21 12.40625 
L 21 0 
L 10.6875 0 
z
" id="DejaVuSans-2e"/>
      </defs>
      <g transform="translate(30.55625 284.709656)scale(0.15 -0.15)">
       <use xlink:href="#DejaVuSans-30"/>
       <use x="63.623047" xlink:href="#DejaVuSans-2e"/>
       <use x="95.410156" xlink:href="#DejaVuSans-30"/>
      </g>
     </g>
    </g>
    <g id="ytick_2">
     <g id="line2d_11">
      <path clip-path="url(#p7ff95d580a)" d="M 61.410938 225.788428 
L 418.530938 225.788428 
" style="fill:none;stroke:#b0b0b0;stroke-linecap:square;stroke-width:0.8;"/>
     </g>
     <g id="line2d_12">
      <g>
       <use style="stroke:#000000;stroke-width:0.8;" x="61.410938" xlink:href="#mbf1a7d2a32" y="225.788428"/>
      </g>
     </g>
     <g id="text_7">
      <!-- 0.2 -->
      <defs>
       <path d="M 19.1875 8.296875 
L 53.609375 8.296875 
L 53.609375 0 
L 7.328125 0 
L 7.328125 8.296875 
Q 12.9375 14.109375 22.625 23.890625 
Q 32.328125 33.6875 34.8125 36.53125 
Q 39.546875 41.84375 41.421875 45.53125 
Q 43.3125 49.21875 43.3125 52.78125 
Q 43.3125 58.59375 39.234375 62.25 
Q 35.15625 65.921875 28.609375 65.921875 
Q 23.96875 65.921875 18.8125 64.3125 
Q 13.671875 62.703125 7.8125 59.421875 
L 7.8125 69.390625 
Q 13.765625 71.78125 18.9375 73 
Q 24.125 74.21875 28.421875 74.21875 
Q 39.75 74.21875 46.484375 68.546875 
Q 53.21875 62.890625 53.21875 53.421875 
Q 53.21875 48.921875 51.53125 44.890625 
Q 49.859375 40.875 45.40625 35.40625 
Q 44.1875 33.984375 37.640625 27.21875 
Q 31.109375 20.453125 19.1875 8.296875 
z
" id="DejaVuSans-32"/>
      </defs>
      <g transform="translate(30.55625 231.487256)scale(0.15 -0.15)">
       <use xlink:href="#DejaVuSans-30"/>
       <use x="63.623047" xlink:href="#DejaVuSans-2e"/>
       <use x="95.410156" xlink:href="#DejaVuSans-32"/>
      </g>
     </g>
    </g>
    <g id="ytick_3">
     <g id="line2d_13">
      <path clip-path="url(#p7ff95d580a)" d="M 61.410938 172.566028 
L 418.530938 172.566028 
" style="fill:none;stroke:#b0b0b0;stroke-linecap:square;stroke-width:0.8;"/>
     </g>
     <g id="line2d_14">
      <g>
       <use style="stroke:#000000;stroke-width:0.8;" x="61.410938" xlink:href="#mbf1a7d2a32" y="172.566028"/>
      </g>
     </g>
     <g id="text_8">
      <!-- 0.4 -->
      <defs>
       <path d="M 37.796875 64.3125 
L 12.890625 25.390625 
L 37.796875 25.390625 
z
M 35.203125 72.90625 
L 47.609375 72.90625 
L 47.609375 25.390625 
L 58.015625 25.390625 
L 58.015625 17.1875 
L 47.609375 17.1875 
L 47.609375 0 
L 37.796875 0 
L 37.796875 17.1875 
L 4.890625 17.1875 
L 4.890625 26.703125 
z
" id="DejaVuSans-34"/>
      </defs>
      <g transform="translate(30.55625 178.264856)scale(0.15 -0.15)">
       <use xlink:href="#DejaVuSans-30"/>
       <use x="63.623047" xlink:href="#DejaVuSans-2e"/>
       <use x="95.410156" xlink:href="#DejaVuSans-34"/>
      </g>
     </g>
    </g>
    <g id="ytick_4">
     <g id="line2d_15">
      <path clip-path="url(#p7ff95d580a)" d="M 61.410938 119.343628 
L 418.530938 119.343628 
" style="fill:none;stroke:#b0b0b0;stroke-linecap:square;stroke-width:0.8;"/>
     </g>
     <g id="line2d_16">
      <g>
       <use style="stroke:#000000;stroke-width:0.8;" x="61.410938" xlink:href="#mbf1a7d2a32" y="119.343628"/>
      </g>
     </g>
     <g id="text_9">
      <!-- 0.6 -->
      <defs>
       <path d="M 33.015625 40.375 
Q 26.375 40.375 22.484375 35.828125 
Q 18.609375 31.296875 18.609375 23.390625 
Q 18.609375 15.53125 22.484375 10.953125 
Q 26.375 6.390625 33.015625 6.390625 
Q 39.65625 6.390625 43.53125 10.953125 
Q 47.40625 15.53125 47.40625 23.390625 
Q 47.40625 31.296875 43.53125 35.828125 
Q 39.65625 40.375 33.015625 40.375 
z
M 52.59375 71.296875 
L 52.59375 62.3125 
Q 48.875 64.0625 45.09375 64.984375 
Q 41.3125 65.921875 37.59375 65.921875 
Q 27.828125 65.921875 22.671875 59.328125 
Q 17.53125 52.734375 16.796875 39.40625 
Q 19.671875 43.65625 24.015625 45.921875 
Q 28.375 48.1875 33.59375 48.1875 
Q 44.578125 48.1875 50.953125 41.515625 
Q 57.328125 34.859375 57.328125 23.390625 
Q 57.328125 12.15625 50.6875 5.359375 
Q 44.046875 -1.421875 33.015625 -1.421875 
Q 20.359375 -1.421875 13.671875 8.265625 
Q 6.984375 17.96875 6.984375 36.375 
Q 6.984375 53.65625 15.1875 63.9375 
Q 23.390625 74.21875 37.203125 74.21875 
Q 40.921875 74.21875 44.703125 73.484375 
Q 48.484375 72.75 52.59375 71.296875 
z
" id="DejaVuSans-36"/>
      </defs>
      <g transform="translate(30.55625 125.042456)scale(0.15 -0.15)">
       <use xlink:href="#DejaVuSans-30"/>
       <use x="63.623047" xlink:href="#DejaVuSans-2e"/>
       <use x="95.410156" xlink:href="#DejaVuSans-36"/>
      </g>
     </g>
    </g>
    <g id="ytick_5">
     <g id="line2d_17">
      <path clip-path="url(#p7ff95d580a)" d="M 61.410938 66.121228 
L 418.530938 66.121228 
" style="fill:none;stroke:#b0b0b0;stroke-linecap:square;stroke-width:0.8;"/>
     </g>
     <g id="line2d_18">
      <g>
       <use style="stroke:#000000;stroke-width:0.8;" x="61.410938" xlink:href="#mbf1a7d2a32" y="66.121228"/>
      </g>
     </g>
     <g id="text_10">
      <!-- 0.8 -->
      <defs>
       <path d="M 31.78125 34.625 
Q 24.75 34.625 20.71875 30.859375 
Q 16.703125 27.09375 16.703125 20.515625 
Q 16.703125 13.921875 20.71875 10.15625 
Q 24.75 6.390625 31.78125 6.390625 
Q 38.8125 6.390625 42.859375 10.171875 
Q 46.921875 13.96875 46.921875 20.515625 
Q 46.921875 27.09375 42.890625 30.859375 
Q 38.875 34.625 31.78125 34.625 
z
M 21.921875 38.8125 
Q 15.578125 40.375 12.03125 44.71875 
Q 8.5 49.078125 8.5 55.328125 
Q 8.5 64.0625 14.71875 69.140625 
Q 20.953125 74.21875 31.78125 74.21875 
Q 42.671875 74.21875 48.875 69.140625 
Q 55.078125 64.0625 55.078125 55.328125 
Q 55.078125 49.078125 51.53125 44.71875 
Q 48 40.375 41.703125 38.8125 
Q 48.828125 37.15625 52.796875 32.3125 
Q 56.78125 27.484375 56.78125 20.515625 
Q 56.78125 9.90625 50.3125 4.234375 
Q 43.84375 -1.421875 31.78125 -1.421875 
Q 19.734375 -1.421875 13.25 4.234375 
Q 6.78125 9.90625 6.78125 20.515625 
Q 6.78125 27.484375 10.78125 32.3125 
Q 14.796875 37.15625 21.921875 38.8125 
z
M 18.3125 54.390625 
Q 18.3125 48.734375 21.84375 45.5625 
Q 25.390625 42.390625 31.78125 42.390625 
Q 38.140625 42.390625 41.71875 45.5625 
Q 45.3125 48.734375 45.3125 54.390625 
Q 45.3125 60.0625 41.71875 63.234375 
Q 38.140625 66.40625 31.78125 66.40625 
Q 25.390625 66.40625 21.84375 63.234375 
Q 18.3125 60.0625 18.3125 54.390625 
z
" id="DejaVuSans-38"/>
      </defs>
      <g transform="translate(30.55625 71.820056)scale(0.15 -0.15)">
       <use xlink:href="#DejaVuSans-30"/>
       <use x="63.623047" xlink:href="#DejaVuSans-2e"/>
       <use x="95.410156" xlink:href="#DejaVuSans-38"/>
      </g>
     </g>
    </g>
    <g id="ytick_6">
     <g id="line2d_19">
      <path clip-path="url(#p7ff95d580a)" d="M 61.410938 12.898828 
L 418.530938 12.898828 
" style="fill:none;stroke:#b0b0b0;stroke-linecap:square;stroke-width:0.8;"/>
     </g>
     <g id="line2d_20">
      <g>
       <use style="stroke:#000000;stroke-width:0.8;" x="61.410938" xlink:href="#mbf1a7d2a32" y="12.898828"/>
      </g>
     </g>
     <g id="text_11">
      <!-- 1.0 -->
      <g transform="translate(30.55625 18.597656)scale(0.15 -0.15)">
       <use xlink:href="#DejaVuSans-31"/>
       <use x="63.623047" xlink:href="#DejaVuSans-2e"/>
       <use x="95.410156" xlink:href="#DejaVuSans-30"/>
      </g>
     </g>
    </g>
    <g id="text_12">
     <!-- F=1 population -->
     <defs>
      <path d="M 9.8125 72.90625 
L 51.703125 72.90625 
L 51.703125 64.59375 
L 19.671875 64.59375 
L 19.671875 43.109375 
L 48.578125 43.109375 
L 48.578125 34.8125 
L 19.671875 34.8125 
L 19.671875 0 
L 9.8125 0 
z
" id="DejaVuSans-46"/>
      <path d="M 10.59375 45.40625 
L 73.1875 45.40625 
L 73.1875 37.203125 
L 10.59375 37.203125 
z
M 10.59375 25.484375 
L 73.1875 25.484375 
L 73.1875 17.1875 
L 10.59375 17.1875 
z
" id="DejaVuSans-3d"/>
      <path d="M 18.109375 8.203125 
L 18.109375 -20.796875 
L 9.078125 -20.796875 
L 9.078125 54.6875 
L 18.109375 54.6875 
L 18.109375 46.390625 
Q 20.953125 51.265625 25.265625 53.625 
Q 29.59375 56 35.59375 56 
Q 45.5625 56 51.78125 48.09375 
Q 58.015625 40.1875 58.015625 27.296875 
Q 58.015625 14.40625 51.78125 6.484375 
Q 45.5625 -1.421875 35.59375 -1.421875 
Q 29.59375 -1.421875 25.265625 0.953125 
Q 20.953125 3.328125 18.109375 8.203125 
z
M 48.6875 27.296875 
Q 48.6875 37.203125 44.609375 42.84375 
Q 40.53125 48.484375 33.40625 48.484375 
Q 26.265625 48.484375 22.1875 42.84375 
Q 18.109375 37.203125 18.109375 27.296875 
Q 18.109375 17.390625 22.1875 11.75 
Q 26.265625 6.109375 33.40625 6.109375 
Q 40.53125 6.109375 44.609375 11.75 
Q 48.6875 17.390625 48.6875 27.296875 
z
" id="DejaVuSans-70"/>
      <path d="M 30.609375 48.390625 
Q 23.390625 48.390625 19.1875 42.75 
Q 14.984375 37.109375 14.984375 27.296875 
Q 14.984375 17.484375 19.15625 11.84375 
Q 23.34375 6.203125 30.609375 6.203125 
Q 37.796875 6.203125 41.984375 11.859375 
Q 46.1875 17.53125 46.1875 27.296875 
Q 46.1875 37.015625 41.984375 42.703125 
Q 37.796875 48.390625 30.609375 48.390625 
z
M 30.609375 56 
Q 42.328125 56 49.015625 48.375 
Q 55.71875 40.765625 55.71875 27.296875 
Q 55.71875 13.875 49.015625 6.21875 
Q 42.328125 -1.421875 30.609375 -1.421875 
Q 18.84375 -1.421875 12.171875 6.21875 
Q 5.515625 13.875 5.515625 27.296875 
Q 5.515625 40.765625 12.171875 48.375 
Q 18.84375 56 30.609375 56 
z
" id="DejaVuSans-6f"/>
      <path d="M 8.5 21.578125 
L 8.5 54.6875 
L 17.484375 54.6875 
L 17.484375 21.921875 
Q 17.484375 14.15625 20.5 10.265625 
Q 23.53125 6.390625 29.59375 6.390625 
Q 36.859375 6.390625 41.078125 11.03125 
Q 45.3125 15.671875 45.3125 23.6875 
L 45.3125 54.6875 
L 54.296875 54.6875 
L 54.296875 0 
L 45.3125 0 
L 45.3125 8.40625 
Q 42.046875 3.421875 37.71875 1 
Q 33.40625 -1.421875 27.6875 -1.421875 
Q 18.265625 -1.421875 13.375 4.4375 
Q 8.5 10.296875 8.5 21.578125 
z
M 31.109375 56 
z
" id="DejaVuSans-75"/>
      <path d="M 9.421875 75.984375 
L 18.40625 75.984375 
L 18.40625 0 
L 9.421875 0 
z
" id="DejaVuSans-6c"/>
      <path d="M 34.28125 27.484375 
Q 23.390625 27.484375 19.1875 25 
Q 14.984375 22.515625 14.984375 16.5 
Q 14.984375 11.71875 18.140625 8.90625 
Q 21.296875 6.109375 26.703125 6.109375 
Q 34.1875 6.109375 38.703125 11.40625 
Q 43.21875 16.703125 43.21875 25.484375 
L 43.21875 27.484375 
z
M 52.203125 31.203125 
L 52.203125 0 
L 43.21875 0 
L 43.21875 8.296875 
Q 40.140625 3.328125 35.546875 0.953125 
Q 30.953125 -1.421875 24.3125 -1.421875 
Q 15.921875 -1.421875 10.953125 3.296875 
Q 6 8.015625 6 15.921875 
Q 6 25.140625 12.171875 29.828125 
Q 18.359375 34.515625 30.609375 34.515625 
L 43.21875 34.515625 
L 43.21875 35.40625 
Q 43.21875 41.609375 39.140625 45 
Q 35.0625 48.390625 27.6875 48.390625 
Q 23 48.390625 18.546875 47.265625 
Q 14.109375 46.140625 10.015625 43.890625 
L 10.015625 52.203125 
Q 14.9375 54.109375 19.578125 55.046875 
Q 24.21875 56 28.609375 56 
Q 40.484375 56 46.34375 49.84375 
Q 52.203125 43.703125 52.203125 31.203125 
z
" id="DejaVuSans-61"/>
      <path d="M 18.3125 70.21875 
L 18.3125 54.6875 
L 36.8125 54.6875 
L 36.8125 47.703125 
L 18.3125 47.703125 
L 18.3125 18.015625 
Q 18.3125 11.328125 20.140625 9.421875 
Q 21.96875 7.515625 27.59375 7.515625 
L 36.8125 7.515625 
L 36.8125 0 
L 27.59375 0 
Q 17.1875 0 13.234375 3.875 
Q 9.28125 7.765625 9.28125 18.015625 
L 9.28125 47.703125 
L 2.6875 47.703125 
L 2.6875 54.6875 
L 9.28125 54.6875 
L 9.28125 70.21875 
z
" id="DejaVuSans-74"/>
      <path d="M 54.890625 33.015625 
L 54.890625 0 
L 45.90625 0 
L 45.90625 32.71875 
Q 45.90625 40.484375 42.875 44.328125 
Q 39.84375 48.1875 33.796875 48.1875 
Q 26.515625 48.1875 22.3125 43.546875 
Q 18.109375 38.921875 18.109375 30.90625 
L 18.109375 0 
L 9.078125 0 
L 9.078125 54.6875 
L 18.109375 54.6875 
L 18.109375 46.1875 
Q 21.34375 51.125 25.703125 53.5625 
Q 30.078125 56 35.796875 56 
Q 45.21875 56 50.046875 50.171875 
Q 54.890625 44.34375 54.890625 33.015625 
z
" id="DejaVuSans-6e"/>
     </defs>
     <g transform="translate(22.396875 222.840766)rotate(-90)scale(0.2 -0.2)">
      <use xlink:href="#DejaVuSans-46"/>
      <use x="57.519531" xlink:href="#DejaVuSans-3d"/>
      <use x="141.308594" xlink:href="#DejaVuSans-31"/>
      <use x="204.931641" xlink:href="#DejaVuSans-20"/>
      <use x="236.71875" xlink:href="#DejaVuSans-70"/>
      <use x="300.195312" xlink:href="#DejaVuSans-6f"/>
      <use x="361.376953" xlink:href="#DejaVuSans-70"/>
      <use x="424.853516" xlink:href="#DejaVuSans-75"/>
      <use x="488.232422" xlink:href="#DejaVuSans-6c"/>
      <use x="516.015625" xlink:href="#DejaVuSans-61"/>
      <use x="577.294922" xlink:href="#DejaVuSans-74"/>
      <use x="616.503906" xlink:href="#DejaVuSans-69"/>
      <use x="644.287109" xlink:href="#DejaVuSans-6f"/>
      <use x="705.46875" xlink:href="#DejaVuSans-6e"/>
     </g>
    </g>
   </g>
   <g id="LineCollection_1">
    <path clip-path="url(#p7ff95d580a)" d="M 61.410938 279.010828 
L 61.410938 277.822828 
" style="fill:none;stroke:#1f77b4;stroke-width:1.5;"/>
    <path clip-path="url(#p7ff95d580a)" d="M 73.314938 226.832702 
L 73.314938 212.547354 
" style="fill:none;stroke:#1f77b4;stroke-width:1.5;"/>
    <path clip-path="url(#p7ff95d580a)" d="M 85.218938 147.828724 
L 85.218938 130.492235 
" style="fill:none;stroke:#1f77b4;stroke-width:1.5;"/>
    <path clip-path="url(#p7ff95d580a)" d="M 97.122938 84.591523 
L 97.122938 69.713211 
" style="fill:none;stroke:#1f77b4;stroke-width:1.5;"/>
    <path clip-path="url(#p7ff95d580a)" d="M 109.026938 128.221927 
L 109.026938 111.5515 
" style="fill:none;stroke:#1f77b4;stroke-width:1.5;"/>
    <path clip-path="url(#p7ff95d580a)" d="M 120.930938 210.743871 
L 120.930938 194.706905 
" style="fill:none;stroke:#1f77b4;stroke-width:1.5;"/>
    <path clip-path="url(#p7ff95d580a)" d="M 132.834938 264.025552 
L 132.834938 254.792104 
" style="fill:none;stroke:#1f77b4;stroke-width:1.5;"/>
    <path clip-path="url(#p7ff95d580a)" d="M 144.738938 225.625768 
L 144.738938 210.909975 
" style="fill:none;stroke:#1f77b4;stroke-width:1.5;"/>
    <path clip-path="url(#p7ff95d580a)" d="M 156.642938 146.81036 
L 156.642938 129.76774 
" style="fill:none;stroke:#1f77b4;stroke-width:1.5;"/>
    <path clip-path="url(#p7ff95d580a)" d="M 168.546938 81.646495 
L 168.546938 67.058822 
" style="fill:none;stroke:#1f77b4;stroke-width:1.5;"/>
    <path clip-path="url(#p7ff95d580a)" d="M 180.450938 141.892618 
L 180.450938 124.932711 
" style="fill:none;stroke:#1f77b4;stroke-width:1.5;"/>
    <path clip-path="url(#p7ff95d580a)" d="M 192.354938 205.086863 
L 192.354938 188.316672 
" style="fill:none;stroke:#1f77b4;stroke-width:1.5;"/>
    <path clip-path="url(#p7ff95d580a)" d="M 204.258938 258.301794 
L 204.258938 248.24964 
" style="fill:none;stroke:#1f77b4;stroke-width:1.5;"/>
    <path clip-path="url(#p7ff95d580a)" d="M 216.162938 229.164197 
L 216.162938 214.970544 
" style="fill:none;stroke:#1f77b4;stroke-width:1.5;"/>
    <path clip-path="url(#p7ff95d580a)" d="M 228.066938 156.897965 
L 228.066938 139.541258 
" style="fill:none;stroke:#1f77b4;stroke-width:1.5;"/>
    <path clip-path="url(#p7ff95d580a)" d="M 239.970938 91.384456 
L 239.970938 76.266291 
" style="fill:none;stroke:#1f77b4;stroke-width:1.5;"/>
    <path clip-path="url(#p7ff95d580a)" d="M 251.874938 143.929806 
L 251.874938 126.735615 
" style="fill:none;stroke:#1f77b4;stroke-width:1.5;"/>
    <path clip-path="url(#p7ff95d580a)" d="M 263.778938 207.776554 
L 263.778938 191.734911 
" style="fill:none;stroke:#1f77b4;stroke-width:1.5;"/>
    <path clip-path="url(#p7ff95d580a)" d="M 275.682938 257.700706 
L 275.682938 247.09855 
" style="fill:none;stroke:#1f77b4;stroke-width:1.5;"/>
    <path clip-path="url(#p7ff95d580a)" d="M 287.586938 231.147908 
L 287.586938 216.957922 
" style="fill:none;stroke:#1f77b4;stroke-width:1.5;"/>
    <path clip-path="url(#p7ff95d580a)" d="M 299.490938 144.721251 
L 299.490938 126.992405 
" style="fill:none;stroke:#1f77b4;stroke-width:1.5;"/>
    <path clip-path="url(#p7ff95d580a)" d="M 311.394938 97.791189 
L 311.394938 81.888624 
" style="fill:none;stroke:#1f77b4;stroke-width:1.5;"/>
    <path clip-path="url(#p7ff95d580a)" d="M 323.298937 125.970099 
L 323.298937 109.523813 
" style="fill:none;stroke:#1f77b4;stroke-width:1.5;"/>
    <path clip-path="url(#p7ff95d580a)" d="M 335.202938 206.329413 
L 335.202938 190.165745 
" style="fill:none;stroke:#1f77b4;stroke-width:1.5;"/>
    <path clip-path="url(#p7ff95d580a)" d="M 347.106938 258.956329 
L 347.106938 248.656446 
" style="fill:none;stroke:#1f77b4;stroke-width:1.5;"/>
    <path clip-path="url(#p7ff95d580a)" d="M 359.010938 236.321638 
L 359.010938 223.762888 
" style="fill:none;stroke:#1f77b4;stroke-width:1.5;"/>
    <path clip-path="url(#p7ff95d580a)" d="M 370.914938 143.919083 
L 370.914938 125.916767 
" style="fill:none;stroke:#1f77b4;stroke-width:1.5;"/>
    <path clip-path="url(#p7ff95d580a)" d="M 382.818938 98.447707 
L 382.818938 82.768302 
" style="fill:none;stroke:#1f77b4;stroke-width:1.5;"/>
    <path clip-path="url(#p7ff95d580a)" d="M 394.722938 128.607465 
L 394.722938 111.651761 
" style="fill:none;stroke:#1f77b4;stroke-width:1.5;"/>
    <path clip-path="url(#p7ff95d580a)" d="M 406.626938 182.473265 
L 406.626938 165.578163 
" style="fill:none;stroke:#1f77b4;stroke-width:1.5;"/>
    <path clip-path="url(#p7ff95d580a)" d="M 418.530937 253.890404 
L 418.530937 242.441652 
" style="fill:none;stroke:#1f77b4;stroke-width:1.5;"/>
   </g>
   <g id="LineCollection_2">
    <path clip-path="url(#p7ff95d580a)" d="M 61.410938 278.391482 
L 61.410938 276.543028 
" style="fill:none;stroke:#d62728;stroke-width:1.5;"/>
    <path clip-path="url(#p7ff95d580a)" d="M 75.298938 197.84999 
L 75.298938 185.555802 
" style="fill:none;stroke:#d62728;stroke-width:1.5;"/>
    <path clip-path="url(#p7ff95d580a)" d="M 89.186938 91.677804 
L 89.186938 79.816172 
" style="fill:none;stroke:#d62728;stroke-width:1.5;"/>
    <path clip-path="url(#p7ff95d580a)" d="M 103.074938 140.404947 
L 103.074938 127.253123 
" style="fill:none;stroke:#d62728;stroke-width:1.5;"/>
    <path clip-path="url(#p7ff95d580a)" d="M 116.962938 209.586436 
L 116.962938 198.181506 
" style="fill:none;stroke:#d62728;stroke-width:1.5;"/>
    <path clip-path="url(#p7ff95d580a)" d="M 130.850938 175.33597 
L 130.850938 162.342335 
" style="fill:none;stroke:#d62728;stroke-width:1.5;"/>
    <path clip-path="url(#p7ff95d580a)" d="M 144.738938 159.942222 
L 144.738938 146.640276 
" style="fill:none;stroke:#d62728;stroke-width:1.5;"/>
    <path clip-path="url(#p7ff95d580a)" d="M 158.626938 200.660362 
L 158.626938 188.591926 
" style="fill:none;stroke:#d62728;stroke-width:1.5;"/>
    <path clip-path="url(#p7ff95d580a)" d="M 172.514938 179.723395 
L 172.514938 167.048214 
" style="fill:none;stroke:#d62728;stroke-width:1.5;"/>
    <path clip-path="url(#p7ff95d580a)" d="M 186.402938 144.581825 
L 186.402938 131.71093 
" style="fill:none;stroke:#d62728;stroke-width:1.5;"/>
    <path clip-path="url(#p7ff95d580a)" d="M 200.290938 146.168754 
L 200.290938 133.334748 
" style="fill:none;stroke:#d62728;stroke-width:1.5;"/>
    <path clip-path="url(#p7ff95d580a)" d="M 214.178938 175.091564 
L 214.178938 162.236247 
" style="fill:none;stroke:#d62728;stroke-width:1.5;"/>
    <path clip-path="url(#p7ff95d580a)" d="M 228.066938 184.878954 
L 228.066938 172.291502 
" style="fill:none;stroke:#d62728;stroke-width:1.5;"/>
    <path clip-path="url(#p7ff95d580a)" d="M 241.954938 185.028927 
L 241.954938 172.064729 
" style="fill:none;stroke:#d62728;stroke-width:1.5;"/>
    <path clip-path="url(#p7ff95d580a)" d="M 255.842938 174.472423 
L 255.842938 161.683884 
" style="fill:none;stroke:#d62728;stroke-width:1.5;"/>
    <path clip-path="url(#p7ff95d580a)" d="M 269.730938 162.502894 
L 269.730938 149.429752 
" style="fill:none;stroke:#d62728;stroke-width:1.5;"/>
    <path clip-path="url(#p7ff95d580a)" d="M 283.618938 142.65947 
L 283.618938 129.44036 
" style="fill:none;stroke:#d62728;stroke-width:1.5;"/>
    <path clip-path="url(#p7ff95d580a)" d="M 297.506938 176.25319 
L 297.506938 163.128708 
" style="fill:none;stroke:#d62728;stroke-width:1.5;"/>
    <path clip-path="url(#p7ff95d580a)" d="M 311.394938 183.360374 
L 311.394938 170.420322 
" style="fill:none;stroke:#d62728;stroke-width:1.5;"/>
    <path clip-path="url(#p7ff95d580a)" d="M 325.282938 183.037748 
L 325.282938 170.023909 
" style="fill:none;stroke:#d62728;stroke-width:1.5;"/>
    <path clip-path="url(#p7ff95d580a)" d="M 339.170938 162.668185 
L 339.170938 149.350691 
" style="fill:none;stroke:#d62728;stroke-width:1.5;"/>
   </g>
   <g id="line2d_21">
    <path clip-path="url(#p7ff95d580a)" d="M 61.410938 278.57076 
L 62.811408 278.569615 
L 64.211879 275.191543 
L 67.01282 264.395976 
L 69.813761 245.877818 
L 71.214232 235.983009 
L 72.614702 224.02175 
L 76.816114 183.761891 
L 81.017526 142.072205 
L 85.218938 105.558829 
L 86.619408 95.003746 
L 88.019879 86.034838 
L 89.420349 78.648021 
L 90.82082 73.812853 
L 92.22129 67.999335 
L 93.621761 64.420809 
L 95.022232 63.058003 
L 96.422702 64.084973 
L 97.823173 65.831055 
L 99.223643 69.993146 
L 100.624114 73.551715 
L 102.024585 79.892315 
L 104.825526 96.626547 
L 106.225996 105.467949 
L 109.026938 125.07456 
L 110.427408 137.253476 
L 111.827879 147.131999 
L 114.62882 171.341334 
L 117.429761 193.622438 
L 118.830232 202.937991 
L 120.230702 213.607768 
L 123.031643 230.369837 
L 125.832585 242.463121 
L 127.233055 247.682721 
L 128.633526 250.989311 
L 130.033996 253.428745 
L 131.434467 255.236947 
L 132.834938 255.227344 
L 134.235408 253.884607 
L 135.635879 251.183409 
L 137.036349 249.005502 
L 138.43682 245.015459 
L 141.237761 232.577334 
L 144.038702 216.688321 
L 145.439173 208.219356 
L 146.839643 198.377174 
L 148.240114 189.554129 
L 156.642938 126.185952 
L 159.443879 108.525778 
L 162.24482 93.650927 
L 163.64529 86.874613 
L 165.045761 82.607634 
L 166.446232 78.875655 
L 167.846702 76.141978 
L 169.247173 74.939556 
L 170.647643 75.061423 
L 172.048114 76.43585 
L 173.448585 78.760795 
L 174.849055 83.263044 
L 176.249526 89.416481 
L 179.050467 103.692368 
L 181.851408 122.46667 
L 183.251879 134.34747 
L 184.652349 144.415755 
L 187.45329 168.90792 
L 188.853761 179.800896 
L 190.254232 192.454454 
L 193.055173 214.619899 
L 195.856114 234.351513 
L 198.657055 248.198157 
L 200.057526 254.110673 
L 201.457996 258.927045 
L 202.858467 260.929201 
L 204.258938 263.197181 
L 205.659408 262.910341 
L 207.059879 261.18475 
L 208.460349 257.716609 
L 209.86082 253.582012 
L 211.26129 247.349191 
L 214.062232 231.453408 
L 215.462702 222.509103 
L 218.263643 201.797785 
L 219.664114 190.785637 
L 221.064585 178.297683 
L 222.465055 167.280043 
L 223.865526 155.182712 
L 228.066938 121.577381 
L 229.467408 113.84745 
L 230.867879 104.988545 
L 233.66882 89.730184 
L 235.06929 84.943578 
L 236.469761 80.668053 
L 237.870232 78.406727 
L 239.270702 76.675901 
L 242.071643 77.12703 
L 243.472114 79.612046 
L 244.872585 83.490005 
L 246.273055 89.225204 
L 247.673526 96.286982 
L 249.073996 100.761899 
L 251.874938 119.981201 
L 253.275408 129.17895 
L 258.87729 170.378107 
L 261.678232 191.985869 
L 265.879643 221.282765 
L 268.680585 236.30876 
L 270.081055 242.708349 
L 272.881996 252.941966 
L 274.282467 256.192761 
L 275.682938 257.48897 
L 277.083408 258.130698 
L 278.483879 257.163887 
L 279.884349 254.303947 
L 282.68529 245.813168 
L 284.085761 240.637228 
L 285.486232 233.437939 
L 286.886702 223.783701 
L 288.287173 215.584336 
L 289.687643 205.58297 
L 295.289526 161.118824 
L 298.090467 138.515185 
L 299.490938 127.502954 
L 302.291879 108.238016 
L 303.692349 98.561872 
L 305.09282 91.093191 
L 307.893761 80.226663 
L 309.294232 76.387832 
L 310.694702 74.888589 
L 312.095173 74.451826 
L 313.495643 74.662569 
L 314.896114 76.929644 
L 316.296585 80.2433 
L 317.697055 86.049205 
L 320.497996 101.0636 
L 321.898467 109.293213 
L 324.699408 130.221448 
L 328.90082 163.976607 
L 330.30129 176.465053 
L 333.102232 198.758767 
L 335.903173 219.973811 
L 337.303643 228.828588 
L 340.104585 243.298479 
L 341.505055 248.509159 
L 342.905526 251.676253 
L 344.305996 254.434502 
L 345.706467 256.301962 
L 347.106938 257.395419 
L 349.907879 251.347545 
L 351.308349 247.289289 
L 352.70882 242.010555 
L 354.10929 235.690608 
L 355.509761 228.671599 
L 356.910232 220.48695 
L 359.711173 202.667679 
L 368.113996 143.583591 
L 370.914938 127.627025 
L 373.715879 113.203529 
L 375.116349 106.779532 
L 376.51682 102.56027 
L 377.91729 99.0945 
L 379.317761 96.054095 
L 380.718232 93.541245 
L 382.118702 93.130712 
L 383.519173 93.529058 
L 384.919643 94.441724 
L 386.320114 96.933015 
L 389.121055 103.243213 
L 390.521526 107.954888 
L 391.921996 113.852028 
L 396.123408 134.010834 
L 400.32482 157.881188 
L 403.125761 175.697846 
L 408.727643 209.068085 
L 410.128114 216.438285 
L 412.929055 229.907037 
L 414.329526 234.556725 
L 415.729996 238.23037 
L 417.130467 243.159661 
L 418.530938 245.339843 
L 418.530938 245.339843 
" style="fill:none;stroke:#1f77b4;stroke-linecap:square;stroke-width:1.5;"/>
   </g>
   <g id="line2d_22">
    <path clip-path="url(#p7ff95d580a)" d="M 61.410938 278.534519 
L 62.500192 278.534519 
L 63.589447 275.03701 
L 64.678702 270.9755 
L 65.767957 265.190914 
L 67.946467 247.720329 
L 69.035722 237.232328 
L 72.303487 199.313569 
L 78.839016 118.329075 
L 81.017526 95.540374 
L 83.196036 77.306087 
L 85.374545 65.524198 
L 86.4638 62.195853 
L 87.553055 60.270095 
L 89.731565 60.566587 
L 91.910075 67.463132 
L 92.99933 73.020604 
L 95.177839 87.128027 
L 97.356349 104.762881 
L 99.534859 124.344358 
L 101.713369 145.898705 
L 106.070388 181.802942 
L 108.248898 195.208677 
L 109.338153 200.81463 
L 110.427408 204.17633 
L 111.516663 206.992274 
L 112.605918 209.067877 
L 113.695173 209.735207 
L 114.784428 209.413229 
L 116.962938 204.821958 
L 118.052192 201.6863 
L 119.141447 196.367496 
L 120.230702 192.265045 
L 121.319957 187.58169 
L 125.676977 161.674884 
L 126.766232 156.419753 
L 127.855487 150.441988 
L 128.944741 145.3438 
L 131.123251 136.556679 
L 132.212506 133.294985 
L 133.301761 131.048292 
L 134.391016 130.109545 
L 136.569526 130.146484 
L 137.658781 129.814028 
L 138.748036 131.881382 
L 139.83729 135.06789 
L 140.926545 138.97903 
L 142.0158 141.905243 
L 143.105055 146.445738 
L 144.19431 152.33896 
L 147.462075 167.579332 
L 148.55133 173.291154 
L 151.819094 188.003475 
L 152.908349 191.553991 
L 153.997604 194.596924 
L 156.176114 197.707967 
L 157.265369 197.923911 
L 158.354624 199.117857 
L 159.443879 198.593386 
L 160.533134 197.295671 
L 162.711643 191.400979 
L 163.800898 188.229292 
L 164.890153 184.691323 
L 165.979408 177.965286 
L 167.068663 173.570082 
L 170.336428 155.795215 
L 172.514938 144.115716 
L 175.782702 128.12073 
L 176.871957 125.383065 
L 177.961212 121.661627 
L 179.050467 118.657947 
L 180.139722 116.113511 
L 181.228977 114.538819 
L 182.318232 113.582669 
L 183.407487 114.107447 
L 184.496741 114.937287 
L 185.585996 116.700118 
L 186.675251 119.06147 
L 187.764506 120.989072 
L 188.853761 124.642161 
L 191.032271 132.95865 
L 192.121526 136.701334 
L 195.38929 150.536053 
L 197.5678 160.471639 
L 198.657055 163.767824 
L 199.74631 166.253071 
L 200.835565 170.606883 
L 201.92482 173.833071 
L 203.014075 175.129593 
L 204.10333 177.361189 
L 205.192585 178.836873 
L 206.281839 179.875266 
L 209.549604 179.449783 
L 210.638859 177.473698 
L 211.728114 175.76981 
L 212.817369 173.378817 
L 213.906624 171.920341 
L 214.995879 169.584773 
L 216.085134 166.363265 
L 217.174388 163.709033 
L 218.263643 162.055062 
L 219.352898 158.547088 
L 220.442153 157.508792 
L 221.531408 155.127739 
L 222.620663 154.058217 
L 223.709918 152.566283 
L 224.799173 152.440863 
L 225.888428 152.703461 
L 226.977683 152.558444 
L 228.066938 152.805364 
L 229.156192 153.706914 
L 230.245447 155.373651 
L 231.334702 157.824965 
L 232.423957 159.027202 
L 233.513212 161.745432 
L 234.602467 165.20623 
L 235.691722 167.96501 
L 236.780977 171.38464 
L 237.870232 173.936673 
L 238.959487 177.481734 
L 240.048741 180.601008 
L 241.137996 183.158846 
L 242.227251 186.149712 
L 243.316506 187.623451 
L 244.405761 188.49354 
L 245.495016 190.206038 
L 246.584271 191.596494 
L 247.673526 191.086455 
L 248.762781 190.112945 
L 249.852036 189.796795 
L 250.94129 188.535484 
L 252.030545 185.938992 
L 255.29831 175.445701 
L 262.923094 140.262099 
L 264.012349 134.527183 
L 265.101604 129.690896 
L 267.280114 121.24523 
L 268.369369 118.199258 
L 269.458624 114.19196 
L 271.637134 109.556496 
L 272.726388 108.690812 
L 273.815643 108.957919 
L 274.904898 108.663093 
L 275.994153 109.707494 
L 277.083408 111.085619 
L 279.261918 115.863464 
L 280.351173 119.847334 
L 281.440428 123.38497 
L 282.529683 128.033791 
L 283.618938 131.832549 
L 284.708192 138.073024 
L 286.886702 148.177355 
L 290.154467 165.28494 
L 291.243722 168.909023 
L 292.332977 174.393344 
L 294.511487 182.12989 
L 295.600741 186.914771 
L 296.689996 189.923181 
L 297.779251 191.821038 
L 298.868506 194.800305 
L 299.957761 196.685906 
L 301.047016 197.155294 
L 302.136271 198.172781 
L 303.225526 198.478273 
L 304.314781 198.584531 
L 305.404036 196.411163 
L 306.49329 195.3869 
L 307.582545 195.121738 
L 309.761055 189.994462 
L 310.85031 188.489345 
L 311.939565 186.170502 
L 313.02882 183.048028 
L 315.20733 178.687573 
L 316.296585 175.653771 
L 317.385839 173.876903 
L 318.475094 171.2775 
L 320.653604 167.551783 
L 321.742859 165.194423 
L 322.832114 164.477229 
L 323.921369 163.191678 
L 325.010624 161.682723 
L 326.099879 160.483397 
L 327.189134 160.695043 
L 328.278388 158.886681 
L 329.367643 159.261404 
L 330.456898 158.574411 
L 331.546153 157.516599 
L 332.635408 157.095036 
L 334.813918 155.455622 
L 335.903173 153.808401 
L 336.992428 153.51085 
L 338.081683 152.730896 
L 339.170938 151.461023 
L 339.170938 151.461023 
" style="fill:none;stroke:#d62728;stroke-linecap:square;stroke-width:1.5;"/>
   </g>
   <g id="line2d_23">
    <path clip-path="url(#p7ff95d580a)" d="M 61.410938 52.815628 
L 418.530938 52.815628 
" style="fill:none;stroke:#1f77b4;stroke-dasharray:9.6,2.4,1.5,2.4;stroke-dashoffset:0;stroke-width:1.5;"/>
   </g>
   <g id="line2d_24">
    <defs>
     <path d="M -3 3 
L 3 3 
L 3 -3 
L -3 -3 
z
" id="ma06a71c734" style="stroke:#1f77b4;stroke-linejoin:miter;"/>
    </defs>
    <g clip-path="url(#p7ff95d580a)">
     <use style="fill:#1f77b4;stroke:#1f77b4;stroke-linejoin:miter;" x="61.410938" xlink:href="#ma06a71c734" y="278.416828"/>
     <use style="fill:#1f77b4;stroke:#1f77b4;stroke-linejoin:miter;" x="73.314938" xlink:href="#ma06a71c734" y="219.690028"/>
     <use style="fill:#1f77b4;stroke:#1f77b4;stroke-linejoin:miter;" x="85.218938" xlink:href="#ma06a71c734" y="139.160479"/>
     <use style="fill:#1f77b4;stroke:#1f77b4;stroke-linejoin:miter;" x="97.122938" xlink:href="#ma06a71c734" y="77.152367"/>
     <use style="fill:#1f77b4;stroke:#1f77b4;stroke-linejoin:miter;" x="109.026938" xlink:href="#ma06a71c734" y="119.886714"/>
     <use style="fill:#1f77b4;stroke:#1f77b4;stroke-linejoin:miter;" x="120.930938" xlink:href="#ma06a71c734" y="202.725388"/>
     <use style="fill:#1f77b4;stroke:#1f77b4;stroke-linejoin:miter;" x="132.834938" xlink:href="#ma06a71c734" y="259.408828"/>
     <use style="fill:#1f77b4;stroke:#1f77b4;stroke-linejoin:miter;" x="144.738938" xlink:href="#ma06a71c734" y="218.267872"/>
     <use style="fill:#1f77b4;stroke:#1f77b4;stroke-linejoin:miter;" x="156.642938" xlink:href="#ma06a71c734" y="138.28905"/>
     <use style="fill:#1f77b4;stroke:#1f77b4;stroke-linejoin:miter;" x="168.546938" xlink:href="#ma06a71c734" y="74.352659"/>
     <use style="fill:#1f77b4;stroke:#1f77b4;stroke-linejoin:miter;" x="180.450938" xlink:href="#ma06a71c734" y="133.412664"/>
     <use style="fill:#1f77b4;stroke:#1f77b4;stroke-linejoin:miter;" x="192.354938" xlink:href="#ma06a71c734" y="196.701768"/>
     <use style="fill:#1f77b4;stroke:#1f77b4;stroke-linejoin:miter;" x="204.258938" xlink:href="#ma06a71c734" y="253.275717"/>
     <use style="fill:#1f77b4;stroke:#1f77b4;stroke-linejoin:miter;" x="216.162938" xlink:href="#ma06a71c734" y="222.06737"/>
     <use style="fill:#1f77b4;stroke:#1f77b4;stroke-linejoin:miter;" x="228.066938" xlink:href="#ma06a71c734" y="148.219611"/>
     <use style="fill:#1f77b4;stroke:#1f77b4;stroke-linejoin:miter;" x="239.970938" xlink:href="#ma06a71c734" y="83.825374"/>
     <use style="fill:#1f77b4;stroke:#1f77b4;stroke-linejoin:miter;" x="251.874938" xlink:href="#ma06a71c734" y="135.33271"/>
     <use style="fill:#1f77b4;stroke:#1f77b4;stroke-linejoin:miter;" x="263.778938" xlink:href="#ma06a71c734" y="199.755732"/>
     <use style="fill:#1f77b4;stroke:#1f77b4;stroke-linejoin:miter;" x="275.682938" xlink:href="#ma06a71c734" y="252.399628"/>
     <use style="fill:#1f77b4;stroke:#1f77b4;stroke-linejoin:miter;" x="287.586938" xlink:href="#ma06a71c734" y="224.052915"/>
     <use style="fill:#1f77b4;stroke:#1f77b4;stroke-linejoin:miter;" x="299.490938" xlink:href="#ma06a71c734" y="135.856828"/>
     <use style="fill:#1f77b4;stroke:#1f77b4;stroke-linejoin:miter;" x="311.394938" xlink:href="#ma06a71c734" y="89.839906"/>
     <use style="fill:#1f77b4;stroke:#1f77b4;stroke-linejoin:miter;" x="323.298937" xlink:href="#ma06a71c734" y="117.746956"/>
     <use style="fill:#1f77b4;stroke:#1f77b4;stroke-linejoin:miter;" x="335.202938" xlink:href="#ma06a71c734" y="198.247579"/>
     <use style="fill:#1f77b4;stroke:#1f77b4;stroke-linejoin:miter;" x="347.106938" xlink:href="#ma06a71c734" y="253.806388"/>
     <use style="fill:#1f77b4;stroke:#1f77b4;stroke-linejoin:miter;" x="359.010938" xlink:href="#ma06a71c734" y="230.042263"/>
     <use style="fill:#1f77b4;stroke:#1f77b4;stroke-linejoin:miter;" x="370.914938" xlink:href="#ma06a71c734" y="134.917925"/>
     <use style="fill:#1f77b4;stroke:#1f77b4;stroke-linejoin:miter;" x="382.818938" xlink:href="#ma06a71c734" y="90.608005"/>
     <use style="fill:#1f77b4;stroke:#1f77b4;stroke-linejoin:miter;" x="394.722938" xlink:href="#ma06a71c734" y="120.129613"/>
     <use style="fill:#1f77b4;stroke:#1f77b4;stroke-linejoin:miter;" x="406.626938" xlink:href="#ma06a71c734" y="174.025714"/>
     <use style="fill:#1f77b4;stroke:#1f77b4;stroke-linejoin:miter;" x="418.530937" xlink:href="#ma06a71c734" y="248.166028"/>
    </g>
   </g>
   <g id="line2d_25">
    <defs>
     <path d="M 0 3 
C 0.795609 3 1.55874 2.683901 2.12132 2.12132 
C 2.683901 1.55874 3 0.795609 3 0 
C 3 -0.795609 2.683901 -1.55874 2.12132 -2.12132 
C 1.55874 -2.683901 0.795609 -3 0 -3 
C -0.795609 -3 -1.55874 -2.683901 -2.12132 -2.12132 
C -2.683901 -1.55874 -3 -0.795609 -3 0 
C -3 0.795609 -2.683901 1.55874 -2.12132 2.12132 
C -1.55874 2.683901 -0.795609 3 0 3 
z
" id="m0ef7b58408" style="stroke:#d62728;"/>
    </defs>
    <g clip-path="url(#p7ff95d580a)">
     <use style="fill:#d62728;stroke:#d62728;" x="61.410938" xlink:href="#m0ef7b58408" y="277.467255"/>
     <use style="fill:#d62728;stroke:#d62728;" x="75.298938" xlink:href="#m0ef7b58408" y="191.702896"/>
     <use style="fill:#d62728;stroke:#d62728;" x="89.186938" xlink:href="#m0ef7b58408" y="85.746988"/>
     <use style="fill:#d62728;stroke:#d62728;" x="103.074938" xlink:href="#m0ef7b58408" y="133.829035"/>
     <use style="fill:#d62728;stroke:#d62728;" x="116.962938" xlink:href="#m0ef7b58408" y="203.883971"/>
     <use style="fill:#d62728;stroke:#d62728;" x="130.850938" xlink:href="#m0ef7b58408" y="168.839152"/>
     <use style="fill:#d62728;stroke:#d62728;" x="144.738938" xlink:href="#m0ef7b58408" y="153.291249"/>
     <use style="fill:#d62728;stroke:#d62728;" x="158.626938" xlink:href="#m0ef7b58408" y="194.626144"/>
     <use style="fill:#d62728;stroke:#d62728;" x="172.514938" xlink:href="#m0ef7b58408" y="173.385804"/>
     <use style="fill:#d62728;stroke:#d62728;" x="186.402938" xlink:href="#m0ef7b58408" y="138.146377"/>
     <use style="fill:#d62728;stroke:#d62728;" x="200.290938" xlink:href="#m0ef7b58408" y="139.751751"/>
     <use style="fill:#d62728;stroke:#d62728;" x="214.178938" xlink:href="#m0ef7b58408" y="168.663905"/>
     <use style="fill:#d62728;stroke:#d62728;" x="228.066938" xlink:href="#m0ef7b58408" y="178.585228"/>
     <use style="fill:#d62728;stroke:#d62728;" x="241.954938" xlink:href="#m0ef7b58408" y="178.546828"/>
     <use style="fill:#d62728;stroke:#d62728;" x="255.842938" xlink:href="#m0ef7b58408" y="168.078154"/>
     <use style="fill:#d62728;stroke:#d62728;" x="269.730938" xlink:href="#m0ef7b58408" y="155.966323"/>
     <use style="fill:#d62728;stroke:#d62728;" x="283.618938" xlink:href="#m0ef7b58408" y="136.049915"/>
     <use style="fill:#d62728;stroke:#d62728;" x="297.506938" xlink:href="#m0ef7b58408" y="169.690949"/>
     <use style="fill:#d62728;stroke:#d62728;" x="311.394938" xlink:href="#m0ef7b58408" y="176.890348"/>
     <use style="fill:#d62728;stroke:#d62728;" x="325.282938" xlink:href="#m0ef7b58408" y="176.530828"/>
     <use style="fill:#d62728;stroke:#d62728;" x="339.170938" xlink:href="#m0ef7b58408" y="156.009438"/>
    </g>
   </g>
   <g id="patch_3">
    <path d="M 61.410938 279.010828 
L 61.410938 12.898828 
" style="fill:none;stroke:#000000;stroke-linecap:square;stroke-linejoin:miter;stroke-width:0.8;"/>
   </g>
   <g id="patch_4">
    <path d="M 418.530938 279.010828 
L 418.530938 12.898828 
" style="fill:none;stroke:#000000;stroke-linecap:square;stroke-linejoin:miter;stroke-width:0.8;"/>
   </g>
   <g id="patch_5">
    <path d="M 61.410938 279.010828 
L 418.530938 279.010828 
" style="fill:none;stroke:#000000;stroke-linecap:square;stroke-linejoin:miter;stroke-width:0.8;"/>
   </g>
   <g id="patch_6">
    <path d="M 61.410938 12.898828 
L 418.530938 12.898828 
" style="fill:none;stroke:#000000;stroke-linecap:square;stroke-linejoin:miter;stroke-width:0.8;"/>
   </g>
  </g>
 </g>
 <defs>
  <clipPath id="p7ff95d580a">
   <rect height="266.112" width="357.12" x="61.410938" y="12.898828"/>
  </clipPath>
 </defs>
</svg>
