<?xml version="1.0" encoding="utf-8" standalone="no"?>
<!DOCTYPE svg PUBLIC "-//W3C//DTD SVG 1.1//EN"
  "http://www.w3.org/Graphics/SVG/1.1/DTD/svg11.dtd">
<!-- Created with matplotlib (http://matplotlib.org/) -->
<svg height="331pt" version="1.1" viewBox="0 0 440 331" width="440pt" xmlns="http://www.w3.org/2000/svg" xmlns:xlink="http://www.w3.org/1999/xlink">
 <defs>
  <style type="text/css">
*{stroke-linecap:butt;stroke-linejoin:round;}
  </style>
 </defs>
 <g id="figure_1">
  <g id="patch_1">
   <path d="M 0 331.128016 
L 440.046563 331.128016 
L 440.046563 0 
L 0 0 
z
" style="fill:none;"/>
  </g>
  <g id="axes_1">
   <g id="patch_2">
    <path d="M 61.410938 279.010828 
L 418.530938 279.010828 
L 418.530938 12.898828 
L 61.410938 12.898828 
z
" style="fill:none;"/>
   </g>
   <g id="matplotlib.axis_1">
    <g id="xtick_1">
     <g id="line2d_1">
      <path clip-path="url(#p2c6c244b9a)" d="M 61.410938 279.010828 
L 61.410938 12.898828 
" style="fill:none;stroke:#b0b0b0;stroke-linecap:square;stroke-width:0.8;"/>
     </g>
     <g id="line2d_2">
      <defs>
       <path d="M 0 0 
L 0 3.5 
" id="md8425bb53b" style="stroke:#000000;stroke-width:0.8;"/>
      </defs>
      <g>
       <use style="stroke:#000000;stroke-width:0.8;" x="61.410938" xlink:href="#md8425bb53b" y="279.010828"/>
      </g>
     </g>
     <g id="text_1">
      <!-- 0 -->
      <defs>
       <path d="M 31.78125 66.40625 
Q 24.171875 66.40625 20.328125 58.90625 
Q 16.5 51.421875 16.5 36.375 
Q 16.5 21.390625 20.328125 13.890625 
Q 24.171875 6.390625 31.78125 6.390625 
Q 39.453125 6.390625 43.28125 13.890625 
Q 47.125 21.390625 47.125 36.375 
Q 47.125 51.421875 43.28125 58.90625 
Q 39.453125 66.40625 31.78125 66.40625 
z
M 31.78125 74.21875 
Q 44.046875 74.21875 50.515625 64.515625 
Q 56.984375 54.828125 56.984375 36.375 
Q 56.984375 17.96875 50.515625 8.265625 
Q 44.046875 -1.421875 31.78125 -1.421875 
Q 19.53125 -1.421875 13.0625 8.265625 
Q 6.59375 17.96875 6.59375 36.375 
Q 6.59375 54.828125 13.0625 64.515625 
Q 19.53125 74.21875 31.78125 74.21875 
z
" id="DejaVuSans-30"/>
      </defs>
      <g transform="translate(56.639063 297.408484)scale(0.15 -0.15)">
       <use xlink:href="#DejaVuSans-30"/>
      </g>
     </g>
    </g>
    <g id="xtick_2">
     <g id="line2d_3">
      <path clip-path="url(#p2c6c244b9a)" d="M 120.930938 279.010828 
L 120.930938 12.898828 
" style="fill:none;stroke:#b0b0b0;stroke-linecap:square;stroke-width:0.8;"/>
     </g>
     <g id="line2d_4">
      <g>
       <use style="stroke:#000000;stroke-width:0.8;" x="120.930938" xlink:href="#md8425bb53b" y="279.010828"/>
      </g>
     </g>
     <g id="text_2">
      <!-- 50 -->
      <defs>
       <path d="M 10.796875 72.90625 
L 49.515625 72.90625 
L 49.515625 64.59375 
L 19.828125 64.59375 
L 19.828125 46.734375 
Q 21.96875 47.46875 24.109375 47.828125 
Q 26.265625 48.1875 28.421875 48.1875 
Q 40.625 48.1875 47.75 41.5 
Q 54.890625 34.8125 54.890625 23.390625 
Q 54.890625 11.625 47.5625 5.09375 
Q 40.234375 -1.421875 26.90625 -1.421875 
Q 22.3125 -1.421875 17.546875 -0.640625 
Q 12.796875 0.140625 7.71875 1.703125 
L 7.71875 11.625 
Q 12.109375 9.234375 16.796875 8.0625 
Q 21.484375 6.890625 26.703125 6.890625 
Q 35.15625 6.890625 40.078125 11.328125 
Q 45.015625 15.765625 45.015625 23.390625 
Q 45.015625 31 40.078125 35.4375 
Q 35.15625 39.890625 26.703125 39.890625 
Q 22.75 39.890625 18.8125 39.015625 
Q 14.890625 38.140625 10.796875 36.28125 
z
" id="DejaVuSans-35"/>
      </defs>
      <g transform="translate(111.387188 297.408484)scale(0.15 -0.15)">
       <use xlink:href="#DejaVuSans-35"/>
       <use x="63.623047" xlink:href="#DejaVuSans-30"/>
      </g>
     </g>
    </g>
    <g id="xtick_3">
     <g id="line2d_5">
      <path clip-path="url(#p2c6c244b9a)" d="M 180.450938 279.010828 
L 180.450938 12.898828 
" style="fill:none;stroke:#b0b0b0;stroke-linecap:square;stroke-width:0.8;"/>
     </g>
     <g id="line2d_6">
      <g>
       <use style="stroke:#000000;stroke-width:0.8;" x="180.450938" xlink:href="#md8425bb53b" y="279.010828"/>
      </g>
     </g>
     <g id="text_3">
      <!-- 100 -->
      <defs>
       <path d="M 12.40625 8.296875 
L 28.515625 8.296875 
L 28.515625 63.921875 
L 10.984375 60.40625 
L 10.984375 69.390625 
L 28.421875 72.90625 
L 38.28125 72.90625 
L 38.28125 8.296875 
L 54.390625 8.296875 
L 54.390625 0 
L 12.40625 0 
z
" id="DejaVuSans-31"/>
      </defs>
      <g transform="translate(166.135313 297.408484)scale(0.15 -0.15)">
       <use xlink:href="#DejaVuSans-31"/>
       <use x="63.623047" xlink:href="#DejaVuSans-30"/>
       <use x="127.246094" xlink:href="#DejaVuSans-30"/>
      </g>
     </g>
    </g>
    <g id="xtick_4">
     <g id="line2d_7">
      <path clip-path="url(#p2c6c244b9a)" d="M 239.970938 279.010828 
L 239.970938 12.898828 
" style="fill:none;stroke:#b0b0b0;stroke-linecap:square;stroke-width:0.8;"/>
     </g>
     <g id="line2d_8">
      <g>
       <use style="stroke:#000000;stroke-width:0.8;" x="239.970938" xlink:href="#md8425bb53b" y="279.010828"/>
      </g>
     </g>
     <g id="text_4">
      <!-- 150 -->
      <g transform="translate(225.655313 297.408484)scale(0.15 -0.15)">
       <use xlink:href="#DejaVuSans-31"/>
       <use x="63.623047" xlink:href="#DejaVuSans-35"/>
       <use x="127.246094" xlink:href="#DejaVuSans-30"/>
      </g>
     </g>
    </g>
    <g id="xtick_5">
     <g id="line2d_9">
      <path clip-path="url(#p2c6c244b9a)" d="M 299.490938 279.010828 
L 299.490938 12.898828 
" style="fill:none;stroke:#b0b0b0;stroke-linecap:square;stroke-width:0.8;"/>
     </g>
     <g id="line2d_10">
      <g>
       <use style="stroke:#000000;stroke-width:0.8;" x="299.490938" xlink:href="#md8425bb53b" y="279.010828"/>
      </g>
     </g>
     <g id="text_5">
      <!-- 200 -->
      <defs>
       <path d="M 19.1875 8.296875 
L 53.609375 8.296875 
L 53.609375 0 
L 7.328125 0 
L 7.328125 8.296875 
Q 12.9375 14.109375 22.625 23.890625 
Q 32.328125 33.6875 34.8125 36.53125 
Q 39.546875 41.84375 41.421875 45.53125 
Q 43.3125 49.21875 43.3125 52.78125 
Q 43.3125 58.59375 39.234375 62.25 
Q 35.15625 65.921875 28.609375 65.921875 
Q 23.96875 65.921875 18.8125 64.3125 
Q 13.671875 62.703125 7.8125 59.421875 
L 7.8125 69.390625 
Q 13.765625 71.78125 18.9375 73 
Q 24.125 74.21875 28.421875 74.21875 
Q 39.75 74.21875 46.484375 68.546875 
Q 53.21875 62.890625 53.21875 53.421875 
Q 53.21875 48.921875 51.53125 44.890625 
Q 49.859375 40.875 45.40625 35.40625 
Q 44.1875 33.984375 37.640625 27.21875 
Q 31.109375 20.453125 19.1875 8.296875 
z
" id="DejaVuSans-32"/>
      </defs>
      <g transform="translate(285.175313 297.408484)scale(0.15 -0.15)">
       <use xlink:href="#DejaVuSans-32"/>
       <use x="63.623047" xlink:href="#DejaVuSans-30"/>
       <use x="127.246094" xlink:href="#DejaVuSans-30"/>
      </g>
     </g>
    </g>
    <g id="xtick_6">
     <g id="line2d_11">
      <path clip-path="url(#p2c6c244b9a)" d="M 359.010938 279.010828 
L 359.010938 12.898828 
" style="fill:none;stroke:#b0b0b0;stroke-linecap:square;stroke-width:0.8;"/>
     </g>
     <g id="line2d_12">
      <g>
       <use style="stroke:#000000;stroke-width:0.8;" x="359.010938" xlink:href="#md8425bb53b" y="279.010828"/>
      </g>
     </g>
     <g id="text_6">
      <!-- 250 -->
      <g transform="translate(344.695313 297.408484)scale(0.15 -0.15)">
       <use xlink:href="#DejaVuSans-32"/>
       <use x="63.623047" xlink:href="#DejaVuSans-35"/>
       <use x="127.246094" xlink:href="#DejaVuSans-30"/>
      </g>
     </g>
    </g>
    <g id="xtick_7">
     <g id="line2d_13">
      <path clip-path="url(#p2c6c244b9a)" d="M 418.530938 279.010828 
L 418.530938 12.898828 
" style="fill:none;stroke:#b0b0b0;stroke-linecap:square;stroke-width:0.8;"/>
     </g>
     <g id="line2d_14">
      <g>
       <use style="stroke:#000000;stroke-width:0.8;" x="418.530938" xlink:href="#md8425bb53b" y="279.010828"/>
      </g>
     </g>
     <g id="text_7">
      <!-- 300 -->
      <defs>
       <path d="M 40.578125 39.3125 
Q 47.65625 37.796875 51.625 33 
Q 55.609375 28.21875 55.609375 21.1875 
Q 55.609375 10.40625 48.1875 4.484375 
Q 40.765625 -1.421875 27.09375 -1.421875 
Q 22.515625 -1.421875 17.65625 -0.515625 
Q 12.796875 0.390625 7.625 2.203125 
L 7.625 11.71875 
Q 11.71875 9.328125 16.59375 8.109375 
Q 21.484375 6.890625 26.8125 6.890625 
Q 36.078125 6.890625 40.9375 10.546875 
Q 45.796875 14.203125 45.796875 21.1875 
Q 45.796875 27.640625 41.28125 31.265625 
Q 36.765625 34.90625 28.71875 34.90625 
L 20.21875 34.90625 
L 20.21875 43.015625 
L 29.109375 43.015625 
Q 36.375 43.015625 40.234375 45.921875 
Q 44.09375 48.828125 44.09375 54.296875 
Q 44.09375 59.90625 40.109375 62.90625 
Q 36.140625 65.921875 28.71875 65.921875 
Q 24.65625 65.921875 20.015625 65.03125 
Q 15.375 64.15625 9.8125 62.3125 
L 9.8125 71.09375 
Q 15.4375 72.65625 20.34375 73.4375 
Q 25.25 74.21875 29.59375 74.21875 
Q 40.828125 74.21875 47.359375 69.109375 
Q 53.90625 64.015625 53.90625 55.328125 
Q 53.90625 49.265625 50.4375 45.09375 
Q 46.96875 40.921875 40.578125 39.3125 
z
" id="DejaVuSans-33"/>
      </defs>
      <g transform="translate(404.215313 297.408484)scale(0.15 -0.15)">
       <use xlink:href="#DejaVuSans-33"/>
       <use x="63.623047" xlink:href="#DejaVuSans-30"/>
       <use x="127.246094" xlink:href="#DejaVuSans-30"/>
      </g>
     </g>
    </g>
    <g id="text_8">
     <!-- Time ($\mu s$) -->
     <defs>
      <path d="M -0.296875 72.90625 
L 61.375 72.90625 
L 61.375 64.59375 
L 35.5 64.59375 
L 35.5 0 
L 25.59375 0 
L 25.59375 64.59375 
L -0.296875 64.59375 
z
" id="DejaVuSans-54"/>
      <path d="M 9.421875 54.6875 
L 18.40625 54.6875 
L 18.40625 0 
L 9.421875 0 
z
M 9.421875 75.984375 
L 18.40625 75.984375 
L 18.40625 64.59375 
L 9.421875 64.59375 
z
" id="DejaVuSans-69"/>
      <path d="M 52 44.1875 
Q 55.375 50.25 60.0625 53.125 
Q 64.75 56 71.09375 56 
Q 79.640625 56 84.28125 50.015625 
Q 88.921875 44.046875 88.921875 33.015625 
L 88.921875 0 
L 79.890625 0 
L 79.890625 32.71875 
Q 79.890625 40.578125 77.09375 44.375 
Q 74.3125 48.1875 68.609375 48.1875 
Q 61.625 48.1875 57.5625 43.546875 
Q 53.515625 38.921875 53.515625 30.90625 
L 53.515625 0 
L 44.484375 0 
L 44.484375 32.71875 
Q 44.484375 40.625 41.703125 44.40625 
Q 38.921875 48.1875 33.109375 48.1875 
Q 26.21875 48.1875 22.15625 43.53125 
Q 18.109375 38.875 18.109375 30.90625 
L 18.109375 0 
L 9.078125 0 
L 9.078125 54.6875 
L 18.109375 54.6875 
L 18.109375 46.1875 
Q 21.1875 51.21875 25.484375 53.609375 
Q 29.78125 56 35.6875 56 
Q 41.65625 56 45.828125 52.96875 
Q 50 49.953125 52 44.1875 
z
" id="DejaVuSans-6d"/>
      <path d="M 56.203125 29.59375 
L 56.203125 25.203125 
L 14.890625 25.203125 
Q 15.484375 15.921875 20.484375 11.0625 
Q 25.484375 6.203125 34.421875 6.203125 
Q 39.59375 6.203125 44.453125 7.46875 
Q 49.3125 8.734375 54.109375 11.28125 
L 54.109375 2.78125 
Q 49.265625 0.734375 44.1875 -0.34375 
Q 39.109375 -1.421875 33.890625 -1.421875 
Q 20.796875 -1.421875 13.15625 6.1875 
Q 5.515625 13.8125 5.515625 26.8125 
Q 5.515625 40.234375 12.765625 48.109375 
Q 20.015625 56 32.328125 56 
Q 43.359375 56 49.78125 48.890625 
Q 56.203125 41.796875 56.203125 29.59375 
z
M 47.21875 32.234375 
Q 47.125 39.59375 43.09375 43.984375 
Q 39.0625 48.390625 32.421875 48.390625 
Q 24.90625 48.390625 20.390625 44.140625 
Q 15.875 39.890625 15.1875 32.171875 
z
" id="DejaVuSans-65"/>
      <path id="DejaVuSans-20"/>
      <path d="M 31 75.875 
Q 24.46875 64.65625 21.28125 53.65625 
Q 18.109375 42.671875 18.109375 31.390625 
Q 18.109375 20.125 21.3125 9.0625 
Q 24.515625 -2 31 -13.1875 
L 23.1875 -13.1875 
Q 15.875 -1.703125 12.234375 9.375 
Q 8.59375 20.453125 8.59375 31.390625 
Q 8.59375 42.28125 12.203125 53.3125 
Q 15.828125 64.359375 23.1875 75.875 
z
" id="DejaVuSans-28"/>
      <path d="M -1.3125 -20.796875 
L 13.375 54.6875 
L 22.40625 54.6875 
L 15.765625 20.65625 
Q 15.578125 19.625 15.421875 18.359375 
Q 15.28125 17.09375 15.28125 15.828125 
Q 15.28125 11.28125 18.140625 8.828125 
Q 21 6.390625 26.3125 6.390625 
Q 33.546875 6.390625 37.984375 10.484375 
Q 42.4375 14.59375 44 22.796875 
L 50.203125 54.6875 
L 59.1875 54.6875 
L 51.03125 12.640625 
Q 50.828125 11.71875 50.75 11.03125 
Q 50.6875 10.359375 50.6875 9.8125 
Q 50.6875 8.296875 51.296875 7.59375 
Q 51.90625 6.890625 53.21875 6.890625 
Q 53.71875 6.890625 54.5625 7.125 
Q 55.421875 7.375 56.984375 8.015625 
L 55.609375 0.78125 
Q 53.46875 -0.296875 51.515625 -0.859375 
Q 49.5625 -1.421875 47.703125 -1.421875 
Q 44.484375 -1.421875 42.65625 0.625 
Q 40.828125 2.6875 40.828125 6.296875 
Q 38.09375 2.390625 34.296875 0.484375 
Q 30.515625 -1.421875 25.390625 -1.421875 
Q 20.84375 -1.421875 17.453125 0.671875 
Q 14.0625 2.78125 12.984375 6.203125 
L 7.71875 -20.796875 
z
" id="DejaVuSans-Oblique-3bc"/>
      <path d="M 50 53.078125 
L 48.296875 44.578125 
Q 44.734375 46.53125 40.765625 47.5 
Q 36.8125 48.484375 32.625 48.484375 
Q 25.53125 48.484375 21.453125 46.0625 
Q 17.390625 43.65625 17.390625 39.5 
Q 17.390625 34.671875 26.859375 32.078125 
Q 27.59375 31.890625 27.9375 31.78125 
L 30.8125 30.90625 
Q 39.796875 28.421875 42.796875 25.6875 
Q 45.796875 22.953125 45.796875 18.21875 
Q 45.796875 9.515625 38.890625 4.046875 
Q 31.984375 -1.421875 20.796875 -1.421875 
Q 16.453125 -1.421875 11.671875 -0.578125 
Q 6.890625 0.25 1.125 2 
L 2.875 11.28125 
Q 7.8125 8.734375 12.59375 7.421875 
Q 17.390625 6.109375 21.78125 6.109375 
Q 28.375 6.109375 32.5 8.9375 
Q 36.625 11.765625 36.625 16.109375 
Q 36.625 20.796875 25.78125 23.6875 
L 24.859375 23.921875 
L 21.78125 24.703125 
Q 14.9375 26.515625 11.765625 29.46875 
Q 8.59375 32.421875 8.59375 37.015625 
Q 8.59375 45.75 15.15625 50.875 
Q 21.734375 56 33.015625 56 
Q 37.453125 56 41.671875 55.265625 
Q 45.90625 54.546875 50 53.078125 
z
" id="DejaVuSans-Oblique-73"/>
      <path d="M 8.015625 75.875 
L 15.828125 75.875 
Q 23.140625 64.359375 26.78125 53.3125 
Q 30.421875 42.28125 30.421875 31.390625 
Q 30.421875 20.453125 26.78125 9.375 
Q 23.140625 -1.703125 15.828125 -13.1875 
L 8.015625 -13.1875 
Q 14.5 -2 17.703125 9.0625 
Q 20.90625 20.125 20.90625 31.390625 
Q 20.90625 42.671875 17.703125 53.65625 
Q 14.5 64.65625 8.015625 75.875 
z
" id="DejaVuSans-29"/>
     </defs>
     <g transform="translate(192.570938 319.728016)scale(0.2 -0.2)">
      <use transform="translate(0 0.015625)" xlink:href="#DejaVuSans-54"/>
      <use transform="translate(61.083984 0.015625)" xlink:href="#DejaVuSans-69"/>
      <use transform="translate(88.867188 0.015625)" xlink:href="#DejaVuSans-6d"/>
      <use transform="translate(186.279297 0.015625)" xlink:href="#DejaVuSans-65"/>
      <use transform="translate(247.802734 0.015625)" xlink:href="#DejaVuSans-20"/>
      <use transform="translate(279.589844 0.015625)" xlink:href="#DejaVuSans-28"/>
      <use transform="translate(318.603516 0.015625)" xlink:href="#DejaVuSans-Oblique-3bc"/>
      <use transform="translate(382.226562 0.015625)" xlink:href="#DejaVuSans-Oblique-73"/>
      <use transform="translate(434.326172 0.015625)" xlink:href="#DejaVuSans-29"/>
     </g>
    </g>
   </g>
   <g id="matplotlib.axis_2">
    <g id="ytick_1">
     <g id="line2d_15">
      <path clip-path="url(#p2c6c244b9a)" d="M 61.410938 279.010828 
L 418.530938 279.010828 
" style="fill:none;stroke:#b0b0b0;stroke-linecap:square;stroke-width:0.8;"/>
     </g>
     <g id="line2d_16">
      <defs>
       <path d="M 0 0 
L -3.5 0 
" id="m250b806eeb" style="stroke:#000000;stroke-width:0.8;"/>
      </defs>
      <g>
       <use style="stroke:#000000;stroke-width:0.8;" x="61.410938" xlink:href="#m250b806eeb" y="279.010828"/>
      </g>
     </g>
     <g id="text_9">
      <!-- 0.0 -->
      <defs>
       <path d="M 10.6875 12.40625 
L 21 12.40625 
L 21 0 
L 10.6875 0 
z
" id="DejaVuSans-2e"/>
      </defs>
      <g transform="translate(30.55625 284.709656)scale(0.15 -0.15)">
       <use xlink:href="#DejaVuSans-30"/>
       <use x="63.623047" xlink:href="#DejaVuSans-2e"/>
       <use x="95.410156" xlink:href="#DejaVuSans-30"/>
      </g>
     </g>
    </g>
    <g id="ytick_2">
     <g id="line2d_17">
      <path clip-path="url(#p2c6c244b9a)" d="M 61.410938 225.788428 
L 418.530938 225.788428 
" style="fill:none;stroke:#b0b0b0;stroke-linecap:square;stroke-width:0.8;"/>
     </g>
     <g id="line2d_18">
      <g>
       <use style="stroke:#000000;stroke-width:0.8;" x="61.410938" xlink:href="#m250b806eeb" y="225.788428"/>
      </g>
     </g>
     <g id="text_10">
      <!-- 0.2 -->
      <g transform="translate(30.55625 231.487256)scale(0.15 -0.15)">
       <use xlink:href="#DejaVuSans-30"/>
       <use x="63.623047" xlink:href="#DejaVuSans-2e"/>
       <use x="95.410156" xlink:href="#DejaVuSans-32"/>
      </g>
     </g>
    </g>
    <g id="ytick_3">
     <g id="line2d_19">
      <path clip-path="url(#p2c6c244b9a)" d="M 61.410938 172.566028 
L 418.530938 172.566028 
" style="fill:none;stroke:#b0b0b0;stroke-linecap:square;stroke-width:0.8;"/>
     </g>
     <g id="line2d_20">
      <g>
       <use style="stroke:#000000;stroke-width:0.8;" x="61.410938" xlink:href="#m250b806eeb" y="172.566028"/>
      </g>
     </g>
     <g id="text_11">
      <!-- 0.4 -->
      <defs>
       <path d="M 37.796875 64.3125 
L 12.890625 25.390625 
L 37.796875 25.390625 
z
M 35.203125 72.90625 
L 47.609375 72.90625 
L 47.609375 25.390625 
L 58.015625 25.390625 
L 58.015625 17.1875 
L 47.609375 17.1875 
L 47.609375 0 
L 37.796875 0 
L 37.796875 17.1875 
L 4.890625 17.1875 
L 4.890625 26.703125 
z
" id="DejaVuSans-34"/>
      </defs>
      <g transform="translate(30.55625 178.264856)scale(0.15 -0.15)">
       <use xlink:href="#DejaVuSans-30"/>
       <use x="63.623047" xlink:href="#DejaVuSans-2e"/>
       <use x="95.410156" xlink:href="#DejaVuSans-34"/>
      </g>
     </g>
    </g>
    <g id="ytick_4">
     <g id="line2d_21">
      <path clip-path="url(#p2c6c244b9a)" d="M 61.410938 119.343628 
L 418.530938 119.343628 
" style="fill:none;stroke:#b0b0b0;stroke-linecap:square;stroke-width:0.8;"/>
     </g>
     <g id="line2d_22">
      <g>
       <use style="stroke:#000000;stroke-width:0.8;" x="61.410938" xlink:href="#m250b806eeb" y="119.343628"/>
      </g>
     </g>
     <g id="text_12">
      <!-- 0.6 -->
      <defs>
       <path d="M 33.015625 40.375 
Q 26.375 40.375 22.484375 35.828125 
Q 18.609375 31.296875 18.609375 23.390625 
Q 18.609375 15.53125 22.484375 10.953125 
Q 26.375 6.390625 33.015625 6.390625 
Q 39.65625 6.390625 43.53125 10.953125 
Q 47.40625 15.53125 47.40625 23.390625 
Q 47.40625 31.296875 43.53125 35.828125 
Q 39.65625 40.375 33.015625 40.375 
z
M 52.59375 71.296875 
L 52.59375 62.3125 
Q 48.875 64.0625 45.09375 64.984375 
Q 41.3125 65.921875 37.59375 65.921875 
Q 27.828125 65.921875 22.671875 59.328125 
Q 17.53125 52.734375 16.796875 39.40625 
Q 19.671875 43.65625 24.015625 45.921875 
Q 28.375 48.1875 33.59375 48.1875 
Q 44.578125 48.1875 50.953125 41.515625 
Q 57.328125 34.859375 57.328125 23.390625 
Q 57.328125 12.15625 50.6875 5.359375 
Q 44.046875 -1.421875 33.015625 -1.421875 
Q 20.359375 -1.421875 13.671875 8.265625 
Q 6.984375 17.96875 6.984375 36.375 
Q 6.984375 53.65625 15.1875 63.9375 
Q 23.390625 74.21875 37.203125 74.21875 
Q 40.921875 74.21875 44.703125 73.484375 
Q 48.484375 72.75 52.59375 71.296875 
z
" id="DejaVuSans-36"/>
      </defs>
      <g transform="translate(30.55625 125.042456)scale(0.15 -0.15)">
       <use xlink:href="#DejaVuSans-30"/>
       <use x="63.623047" xlink:href="#DejaVuSans-2e"/>
       <use x="95.410156" xlink:href="#DejaVuSans-36"/>
      </g>
     </g>
    </g>
    <g id="ytick_5">
     <g id="line2d_23">
      <path clip-path="url(#p2c6c244b9a)" d="M 61.410938 66.121228 
L 418.530938 66.121228 
" style="fill:none;stroke:#b0b0b0;stroke-linecap:square;stroke-width:0.8;"/>
     </g>
     <g id="line2d_24">
      <g>
       <use style="stroke:#000000;stroke-width:0.8;" x="61.410938" xlink:href="#m250b806eeb" y="66.121228"/>
      </g>
     </g>
     <g id="text_13">
      <!-- 0.8 -->
      <defs>
       <path d="M 31.78125 34.625 
Q 24.75 34.625 20.71875 30.859375 
Q 16.703125 27.09375 16.703125 20.515625 
Q 16.703125 13.921875 20.71875 10.15625 
Q 24.75 6.390625 31.78125 6.390625 
Q 38.8125 6.390625 42.859375 10.171875 
Q 46.921875 13.96875 46.921875 20.515625 
Q 46.921875 27.09375 42.890625 30.859375 
Q 38.875 34.625 31.78125 34.625 
z
M 21.921875 38.8125 
Q 15.578125 40.375 12.03125 44.71875 
Q 8.5 49.078125 8.5 55.328125 
Q 8.5 64.0625 14.71875 69.140625 
Q 20.953125 74.21875 31.78125 74.21875 
Q 42.671875 74.21875 48.875 69.140625 
Q 55.078125 64.0625 55.078125 55.328125 
Q 55.078125 49.078125 51.53125 44.71875 
Q 48 40.375 41.703125 38.8125 
Q 48.828125 37.15625 52.796875 32.3125 
Q 56.78125 27.484375 56.78125 20.515625 
Q 56.78125 9.90625 50.3125 4.234375 
Q 43.84375 -1.421875 31.78125 -1.421875 
Q 19.734375 -1.421875 13.25 4.234375 
Q 6.78125 9.90625 6.78125 20.515625 
Q 6.78125 27.484375 10.78125 32.3125 
Q 14.796875 37.15625 21.921875 38.8125 
z
M 18.3125 54.390625 
Q 18.3125 48.734375 21.84375 45.5625 
Q 25.390625 42.390625 31.78125 42.390625 
Q 38.140625 42.390625 41.71875 45.5625 
Q 45.3125 48.734375 45.3125 54.390625 
Q 45.3125 60.0625 41.71875 63.234375 
Q 38.140625 66.40625 31.78125 66.40625 
Q 25.390625 66.40625 21.84375 63.234375 
Q 18.3125 60.0625 18.3125 54.390625 
z
" id="DejaVuSans-38"/>
      </defs>
      <g transform="translate(30.55625 71.820056)scale(0.15 -0.15)">
       <use xlink:href="#DejaVuSans-30"/>
       <use x="63.623047" xlink:href="#DejaVuSans-2e"/>
       <use x="95.410156" xlink:href="#DejaVuSans-38"/>
      </g>
     </g>
    </g>
    <g id="ytick_6">
     <g id="line2d_25">
      <path clip-path="url(#p2c6c244b9a)" d="M 61.410938 12.898828 
L 418.530938 12.898828 
" style="fill:none;stroke:#b0b0b0;stroke-linecap:square;stroke-width:0.8;"/>
     </g>
     <g id="line2d_26">
      <g>
       <use style="stroke:#000000;stroke-width:0.8;" x="61.410938" xlink:href="#m250b806eeb" y="12.898828"/>
      </g>
     </g>
     <g id="text_14">
      <!-- 1.0 -->
      <g transform="translate(30.55625 18.597656)scale(0.15 -0.15)">
       <use xlink:href="#DejaVuSans-31"/>
       <use x="63.623047" xlink:href="#DejaVuSans-2e"/>
       <use x="95.410156" xlink:href="#DejaVuSans-30"/>
      </g>
     </g>
    </g>
    <g id="text_15">
     <!-- F=1 population -->
     <defs>
      <path d="M 9.8125 72.90625 
L 51.703125 72.90625 
L 51.703125 64.59375 
L 19.671875 64.59375 
L 19.671875 43.109375 
L 48.578125 43.109375 
L 48.578125 34.8125 
L 19.671875 34.8125 
L 19.671875 0 
L 9.8125 0 
z
" id="DejaVuSans-46"/>
      <path d="M 10.59375 45.40625 
L 73.1875 45.40625 
L 73.1875 37.203125 
L 10.59375 37.203125 
z
M 10.59375 25.484375 
L 73.1875 25.484375 
L 73.1875 17.1875 
L 10.59375 17.1875 
z
" id="DejaVuSans-3d"/>
      <path d="M 18.109375 8.203125 
L 18.109375 -20.796875 
L 9.078125 -20.796875 
L 9.078125 54.6875 
L 18.109375 54.6875 
L 18.109375 46.390625 
Q 20.953125 51.265625 25.265625 53.625 
Q 29.59375 56 35.59375 56 
Q 45.5625 56 51.78125 48.09375 
Q 58.015625 40.1875 58.015625 27.296875 
Q 58.015625 14.40625 51.78125 6.484375 
Q 45.5625 -1.421875 35.59375 -1.421875 
Q 29.59375 -1.421875 25.265625 0.953125 
Q 20.953125 3.328125 18.109375 8.203125 
z
M 48.6875 27.296875 
Q 48.6875 37.203125 44.609375 42.84375 
Q 40.53125 48.484375 33.40625 48.484375 
Q 26.265625 48.484375 22.1875 42.84375 
Q 18.109375 37.203125 18.109375 27.296875 
Q 18.109375 17.390625 22.1875 11.75 
Q 26.265625 6.109375 33.40625 6.109375 
Q 40.53125 6.109375 44.609375 11.75 
Q 48.6875 17.390625 48.6875 27.296875 
z
" id="DejaVuSans-70"/>
      <path d="M 30.609375 48.390625 
Q 23.390625 48.390625 19.1875 42.75 
Q 14.984375 37.109375 14.984375 27.296875 
Q 14.984375 17.484375 19.15625 11.84375 
Q 23.34375 6.203125 30.609375 6.203125 
Q 37.796875 6.203125 41.984375 11.859375 
Q 46.1875 17.53125 46.1875 27.296875 
Q 46.1875 37.015625 41.984375 42.703125 
Q 37.796875 48.390625 30.609375 48.390625 
z
M 30.609375 56 
Q 42.328125 56 49.015625 48.375 
Q 55.71875 40.765625 55.71875 27.296875 
Q 55.71875 13.875 49.015625 6.21875 
Q 42.328125 -1.421875 30.609375 -1.421875 
Q 18.84375 -1.421875 12.171875 6.21875 
Q 5.515625 13.875 5.515625 27.296875 
Q 5.515625 40.765625 12.171875 48.375 
Q 18.84375 56 30.609375 56 
z
" id="DejaVuSans-6f"/>
      <path d="M 8.5 21.578125 
L 8.5 54.6875 
L 17.484375 54.6875 
L 17.484375 21.921875 
Q 17.484375 14.15625 20.5 10.265625 
Q 23.53125 6.390625 29.59375 6.390625 
Q 36.859375 6.390625 41.078125 11.03125 
Q 45.3125 15.671875 45.3125 23.6875 
L 45.3125 54.6875 
L 54.296875 54.6875 
L 54.296875 0 
L 45.3125 0 
L 45.3125 8.40625 
Q 42.046875 3.421875 37.71875 1 
Q 33.40625 -1.421875 27.6875 -1.421875 
Q 18.265625 -1.421875 13.375 4.4375 
Q 8.5 10.296875 8.5 21.578125 
z
M 31.109375 56 
z
" id="DejaVuSans-75"/>
      <path d="M 9.421875 75.984375 
L 18.40625 75.984375 
L 18.40625 0 
L 9.421875 0 
z
" id="DejaVuSans-6c"/>
      <path d="M 34.28125 27.484375 
Q 23.390625 27.484375 19.1875 25 
Q 14.984375 22.515625 14.984375 16.5 
Q 14.984375 11.71875 18.140625 8.90625 
Q 21.296875 6.109375 26.703125 6.109375 
Q 34.1875 6.109375 38.703125 11.40625 
Q 43.21875 16.703125 43.21875 25.484375 
L 43.21875 27.484375 
z
M 52.203125 31.203125 
L 52.203125 0 
L 43.21875 0 
L 43.21875 8.296875 
Q 40.140625 3.328125 35.546875 0.953125 
Q 30.953125 -1.421875 24.3125 -1.421875 
Q 15.921875 -1.421875 10.953125 3.296875 
Q 6 8.015625 6 15.921875 
Q 6 25.140625 12.171875 29.828125 
Q 18.359375 34.515625 30.609375 34.515625 
L 43.21875 34.515625 
L 43.21875 35.40625 
Q 43.21875 41.609375 39.140625 45 
Q 35.0625 48.390625 27.6875 48.390625 
Q 23 48.390625 18.546875 47.265625 
Q 14.109375 46.140625 10.015625 43.890625 
L 10.015625 52.203125 
Q 14.9375 54.109375 19.578125 55.046875 
Q 24.21875 56 28.609375 56 
Q 40.484375 56 46.34375 49.84375 
Q 52.203125 43.703125 52.203125 31.203125 
z
" id="DejaVuSans-61"/>
      <path d="M 18.3125 70.21875 
L 18.3125 54.6875 
L 36.8125 54.6875 
L 36.8125 47.703125 
L 18.3125 47.703125 
L 18.3125 18.015625 
Q 18.3125 11.328125 20.140625 9.421875 
Q 21.96875 7.515625 27.59375 7.515625 
L 36.8125 7.515625 
L 36.8125 0 
L 27.59375 0 
Q 17.1875 0 13.234375 3.875 
Q 9.28125 7.765625 9.28125 18.015625 
L 9.28125 47.703125 
L 2.6875 47.703125 
L 2.6875 54.6875 
L 9.28125 54.6875 
L 9.28125 70.21875 
z
" id="DejaVuSans-74"/>
      <path d="M 54.890625 33.015625 
L 54.890625 0 
L 45.90625 0 
L 45.90625 32.71875 
Q 45.90625 40.484375 42.875 44.328125 
Q 39.84375 48.1875 33.796875 48.1875 
Q 26.515625 48.1875 22.3125 43.546875 
Q 18.109375 38.921875 18.109375 30.90625 
L 18.109375 0 
L 9.078125 0 
L 9.078125 54.6875 
L 18.109375 54.6875 
L 18.109375 46.1875 
Q 21.34375 51.125 25.703125 53.5625 
Q 30.078125 56 35.796875 56 
Q 45.21875 56 50.046875 50.171875 
Q 54.890625 44.34375 54.890625 33.015625 
z
" id="DejaVuSans-6e"/>
     </defs>
     <g transform="translate(22.396875 222.840766)rotate(-90)scale(0.2 -0.2)">
      <use xlink:href="#DejaVuSans-46"/>
      <use x="57.519531" xlink:href="#DejaVuSans-3d"/>
      <use x="141.308594" xlink:href="#DejaVuSans-31"/>
      <use x="204.931641" xlink:href="#DejaVuSans-20"/>
      <use x="236.71875" xlink:href="#DejaVuSans-70"/>
      <use x="300.195312" xlink:href="#DejaVuSans-6f"/>
      <use x="361.376953" xlink:href="#DejaVuSans-70"/>
      <use x="424.853516" xlink:href="#DejaVuSans-75"/>
      <use x="488.232422" xlink:href="#DejaVuSans-6c"/>
      <use x="516.015625" xlink:href="#DejaVuSans-61"/>
      <use x="577.294922" xlink:href="#DejaVuSans-74"/>
      <use x="616.503906" xlink:href="#DejaVuSans-69"/>
      <use x="644.287109" xlink:href="#DejaVuSans-6f"/>
      <use x="705.46875" xlink:href="#DejaVuSans-6e"/>
     </g>
    </g>
   </g>
   <g id="LineCollection_1">
    <path clip-path="url(#p2c6c244b9a)" d="M 61.410938 279.010828 
L 61.410938 277.673582 
" style="fill:none;stroke:#1f77b4;stroke-width:1.5;"/>
    <path clip-path="url(#p2c6c244b9a)" d="M 73.314938 244.453991 
L 73.314938 231.199665 
" style="fill:none;stroke:#1f77b4;stroke-width:1.5;"/>
    <path clip-path="url(#p2c6c244b9a)" d="M 85.218938 159.138183 
L 85.218938 140.560117 
" style="fill:none;stroke:#1f77b4;stroke-width:1.5;"/>
    <path clip-path="url(#p2c6c244b9a)" d="M 97.122938 91.574703 
L 97.122938 74.784676 
" style="fill:none;stroke:#1f77b4;stroke-width:1.5;"/>
    <path clip-path="url(#p2c6c244b9a)" d="M 109.026938 91.574703 
L 109.026938 74.784676 
" style="fill:none;stroke:#1f77b4;stroke-width:1.5;"/>
    <path clip-path="url(#p2c6c244b9a)" d="M 120.930938 158.228711 
L 120.930938 139.957172 
" style="fill:none;stroke:#1f77b4;stroke-width:1.5;"/>
    <path clip-path="url(#p2c6c244b9a)" d="M 132.834938 238.952864 
L 132.834938 224.599033 
" style="fill:none;stroke:#1f77b4;stroke-width:1.5;"/>
    <path clip-path="url(#p2c6c244b9a)" d="M 144.738938 268.090023 
L 144.738938 258.885233 
" style="fill:none;stroke:#1f77b4;stroke-width:1.5;"/>
    <path clip-path="url(#p2c6c244b9a)" d="M 156.642938 217.392379 
L 156.642938 201.176354 
" style="fill:none;stroke:#1f77b4;stroke-width:1.5;"/>
    <path clip-path="url(#p2c6c244b9a)" d="M 168.546938 134.82921 
L 168.546938 116.722228 
" style="fill:none;stroke:#1f77b4;stroke-width:1.5;"/>
    <path clip-path="url(#p2c6c244b9a)" d="M 180.450938 84.757866 
L 180.450938 68.928567 
" style="fill:none;stroke:#1f77b4;stroke-width:1.5;"/>
    <path clip-path="url(#p2c6c244b9a)" d="M 192.354938 94.818223 
L 192.354938 77.752547 
" style="fill:none;stroke:#1f77b4;stroke-width:1.5;"/>
    <path clip-path="url(#p2c6c244b9a)" d="M 204.258938 170.376485 
L 204.258938 152.091487 
" style="fill:none;stroke:#1f77b4;stroke-width:1.5;"/>
    <path clip-path="url(#p2c6c244b9a)" d="M 216.162938 250.059846 
L 216.162938 237.595656 
" style="fill:none;stroke:#1f77b4;stroke-width:1.5;"/>
    <path clip-path="url(#p2c6c244b9a)" d="M 228.066938 261.545588 
L 228.066938 251.262864 
" style="fill:none;stroke:#1f77b4;stroke-width:1.5;"/>
    <path clip-path="url(#p2c6c244b9a)" d="M 239.970938 210.311151 
L 239.970938 193.150505 
" style="fill:none;stroke:#1f77b4;stroke-width:1.5;"/>
    <path clip-path="url(#p2c6c244b9a)" d="M 251.874938 126.346474 
L 251.874938 107.652799 
" style="fill:none;stroke:#1f77b4;stroke-width:1.5;"/>
    <path clip-path="url(#p2c6c244b9a)" d="M 263.778938 82.691712 
L 263.778938 66.657944 
" style="fill:none;stroke:#1f77b4;stroke-width:1.5;"/>
    <path clip-path="url(#p2c6c244b9a)" d="M 275.682938 121.257087 
L 275.682938 103.490969 
" style="fill:none;stroke:#1f77b4;stroke-width:1.5;"/>
    <path clip-path="url(#p2c6c244b9a)" d="M 287.586938 196.794506 
L 287.586938 178.94043 
" style="fill:none;stroke:#1f77b4;stroke-width:1.5;"/>
    <path clip-path="url(#p2c6c244b9a)" d="M 299.490938 258.054776 
L 299.490938 247.002841 
" style="fill:none;stroke:#1f77b4;stroke-width:1.5;"/>
    <path clip-path="url(#p2c6c244b9a)" d="M 311.394938 254.873993 
L 311.394938 242.971583 
" style="fill:none;stroke:#1f77b4;stroke-width:1.5;"/>
    <path clip-path="url(#p2c6c244b9a)" d="M 323.298938 174.014056 
L 323.298938 155.338494 
" style="fill:none;stroke:#1f77b4;stroke-width:1.5;"/>
    <path clip-path="url(#p2c6c244b9a)" d="M 335.202938 109.025555 
L 335.202938 92.164101 
" style="fill:none;stroke:#1f77b4;stroke-width:1.5;"/>
    <path clip-path="url(#p2c6c244b9a)" d="M 347.106938 96.585752 
L 347.106938 80.411905 
" style="fill:none;stroke:#1f77b4;stroke-width:1.5;"/>
    <path clip-path="url(#p2c6c244b9a)" d="M 359.010938 136.117053 
L 359.010938 117.588406 
" style="fill:none;stroke:#1f77b4;stroke-width:1.5;"/>
    <path clip-path="url(#p2c6c244b9a)" d="M 370.914938 210.052189 
L 370.914938 192.504036 
" style="fill:none;stroke:#1f77b4;stroke-width:1.5;"/>
    <path clip-path="url(#p2c6c244b9a)" d="M 382.818938 254.282731 
L 382.818938 242.428807 
" style="fill:none;stroke:#1f77b4;stroke-width:1.5;"/>
    <path clip-path="url(#p2c6c244b9a)" d="M 394.722938 254.316807 
L 394.722938 242.772663 
" style="fill:none;stroke:#1f77b4;stroke-width:1.5;"/>
    <path clip-path="url(#p2c6c244b9a)" d="M 406.626938 184.464123 
L 406.626938 165.103133 
" style="fill:none;stroke:#1f77b4;stroke-width:1.5;"/>
    <path clip-path="url(#p2c6c244b9a)" d="M 418.530938 113.609399 
L 418.530938 96.024083 
" style="fill:none;stroke:#1f77b4;stroke-width:1.5;"/>
   </g>
   <g id="LineCollection_2">
    <path clip-path="url(#p2c6c244b9a)" d="M 61.410938 278.275034 
L 61.410938 276.081168 
" style="fill:none;stroke:#d62728;stroke-width:1.5;"/>
    <path clip-path="url(#p2c6c244b9a)" d="M 73.314938 272.705208 
L 73.314938 267.626922 
" style="fill:none;stroke:#d62728;stroke-width:1.5;"/>
    <path clip-path="url(#p2c6c244b9a)" d="M 85.218938 264.520887 
L 85.218938 257.352607 
" style="fill:none;stroke:#d62728;stroke-width:1.5;"/>
    <path clip-path="url(#p2c6c244b9a)" d="M 97.122938 246.994766 
L 97.122938 236.929836 
" style="fill:none;stroke:#d62728;stroke-width:1.5;"/>
    <path clip-path="url(#p2c6c244b9a)" d="M 109.026938 227.573888 
L 109.026938 215.730865 
" style="fill:none;stroke:#d62728;stroke-width:1.5;"/>
    <path clip-path="url(#p2c6c244b9a)" d="M 120.930938 214.565228 
L 120.930938 201.891033 
" style="fill:none;stroke:#d62728;stroke-width:1.5;"/>
    <path clip-path="url(#p2c6c244b9a)" d="M 132.834938 203.217024 
L 132.834938 189.603605 
" style="fill:none;stroke:#d62728;stroke-width:1.5;"/>
    <path clip-path="url(#p2c6c244b9a)" d="M 144.738938 214.922399 
L 144.738938 202.075832 
" style="fill:none;stroke:#d62728;stroke-width:1.5;"/>
    <path clip-path="url(#p2c6c244b9a)" d="M 156.642938 184.601547 
L 156.642938 171.116981 
" style="fill:none;stroke:#d62728;stroke-width:1.5;"/>
    <path clip-path="url(#p2c6c244b9a)" d="M 168.546938 207.457861 
L 168.546938 194.4345 
" style="fill:none;stroke:#d62728;stroke-width:1.5;"/>
    <path clip-path="url(#p2c6c244b9a)" d="M 180.450938 187.86834 
L 180.450938 173.775485 
" style="fill:none;stroke:#d62728;stroke-width:1.5;"/>
    <path clip-path="url(#p2c6c244b9a)" d="M 192.354938 198.233914 
L 192.354938 185.082635 
" style="fill:none;stroke:#d62728;stroke-width:1.5;"/>
    <path clip-path="url(#p2c6c244b9a)" d="M 204.258938 196.92999 
L 204.258938 182.846836 
" style="fill:none;stroke:#d62728;stroke-width:1.5;"/>
    <path clip-path="url(#p2c6c244b9a)" d="M 216.162938 189.648693 
L 216.162938 175.502798 
" style="fill:none;stroke:#d62728;stroke-width:1.5;"/>
    <path clip-path="url(#p2c6c244b9a)" d="M 228.066938 198.956704 
L 228.066938 185.834149 
" style="fill:none;stroke:#d62728;stroke-width:1.5;"/>
   </g>
   <g id="line2d_27">
    <path clip-path="url(#p2c6c244b9a)" d="M 61.410938 278.57076 
L 62.811408 278.039654 
L 64.211879 276.191032 
L 65.612349 273.614254 
L 67.01282 269.389398 
L 68.41329 262.801599 
L 69.813761 256.927523 
L 71.214232 249.289822 
L 72.614702 240.898875 
L 75.415643 221.925924 
L 81.017526 177.059968 
L 82.417996 163.789076 
L 85.218938 142.091084 
L 86.619408 128.888857 
L 89.420349 107.917605 
L 92.22129 89.502843 
L 95.022232 75.33073 
L 96.422702 69.073785 
L 99.223643 59.780238 
L 100.624114 57.694506 
L 102.024585 56.319563 
L 103.425055 56.790802 
L 104.825526 57.116359 
L 106.225996 59.411084 
L 109.026938 67.799232 
L 110.427408 73.929948 
L 113.228349 88.371657 
L 114.62882 98.16666 
L 116.02929 105.997128 
L 117.429761 117.924169 
L 120.230702 138.015782 
L 124.432114 172.554419 
L 130.033996 215.917199 
L 132.834938 234.505422 
L 135.635879 249.218823 
L 137.036349 255.694188 
L 138.43682 260.238782 
L 141.237761 266.79194 
L 142.638232 269.217009 
L 144.038702 268.840143 
L 145.439173 268.053508 
L 146.839643 266.099915 
L 148.240114 263.507152 
L 151.041055 253.591028 
L 152.441526 247.85641 
L 155.242467 232.857672 
L 160.844349 194.214154 
L 162.24482 182.382945 
L 166.446232 151.680935 
L 167.846702 139.951033 
L 170.647643 119.781968 
L 172.048114 111.194146 
L 173.448585 101.781031 
L 174.849055 95.676735 
L 176.249526 87.857281 
L 177.649996 81.904294 
L 179.050467 76.789906 
L 180.450938 74.306303 
L 181.851408 70.799085 
L 183.251879 68.629275 
L 184.652349 68.084837 
L 186.05282 69.67405 
L 187.45329 70.34305 
L 188.853761 74.713937 
L 190.254232 78.109208 
L 191.654702 82.678633 
L 193.055173 88.633072 
L 195.856114 103.594195 
L 198.657055 121.543234 
L 202.858467 151.120951 
L 211.26129 211.6212 
L 212.661761 219.535827 
L 214.062232 228.276598 
L 215.462702 234.807381 
L 216.863173 242.383402 
L 218.263643 248.536209 
L 219.664114 252.867642 
L 221.064585 256.775189 
L 222.465055 259.521529 
L 223.865526 260.215222 
L 225.265996 260.641796 
L 226.666467 259.799872 
L 228.066938 258.231643 
L 229.467408 255.055551 
L 232.268349 245.460975 
L 233.66882 239.986303 
L 237.870232 217.727215 
L 240.671173 198.656211 
L 244.872585 169.530758 
L 247.673526 148.386196 
L 251.874938 120.377657 
L 253.275408 111.602693 
L 257.47682 90.61661 
L 260.277761 81.449728 
L 261.678232 77.042436 
L 263.078702 75.623768 
L 264.479173 73.042986 
L 265.879643 72.508169 
L 267.280114 73.748983 
L 268.680585 76.047734 
L 270.081055 78.665871 
L 272.881996 89.004317 
L 274.282467 94.121654 
L 277.083408 108.18432 
L 281.28482 133.60636 
L 282.68529 143.812941 
L 284.085761 152.997111 
L 285.486232 163.767437 
L 286.886702 173.003442 
L 288.287173 183.414382 
L 289.687643 192.320582 
L 291.088114 202.562781 
L 293.889055 219.280061 
L 296.689996 233.2534 
L 298.090467 240.182294 
L 299.490938 245.553605 
L 300.891408 249.499666 
L 302.291879 252.968472 
L 303.692349 254.397301 
L 305.09282 256.505766 
L 306.49329 256.734567 
L 307.893761 255.429021 
L 309.294232 253.473824 
L 310.694702 251.125062 
L 313.495643 241.150396 
L 314.896114 235.527848 
L 316.296585 228.724025 
L 319.097526 213.757225 
L 323.298938 186.298496 
L 324.699408 175.872376 
L 327.500349 157.266695 
L 328.90082 147.403007 
L 331.701761 129.707377 
L 333.102232 120.928962 
L 335.903173 105.377069 
L 338.704114 93.017192 
L 340.104585 87.891795 
L 341.505055 84.797766 
L 342.905526 80.961006 
L 344.305996 79.256897 
L 345.706467 78.163303 
L 347.106938 78.262475 
L 348.507408 78.919832 
L 349.907879 81.354887 
L 351.308349 85.342552 
L 352.70882 88.419232 
L 355.509761 99.591832 
L 358.310702 113.286363 
L 361.111643 131.882319 
L 362.512114 139.973883 
L 363.912585 149.088608 
L 365.313055 159.181508 
L 366.713526 168.040987 
L 368.113996 178.056712 
L 369.514467 186.112091 
L 372.315408 205.213108 
L 373.715879 213.704475 
L 377.91729 234.996713 
L 379.317761 239.384824 
L 380.718232 244.542027 
L 382.118702 248.405598 
L 383.519173 251.473765 
L 384.919643 252.552235 
L 386.320114 253.866389 
L 387.720585 253.383702 
L 389.121055 252.079969 
L 390.521526 249.762341 
L 391.921996 246.308655 
L 394.722938 236.550265 
L 396.123408 229.682572 
L 397.523879 223.568914 
L 400.32482 207.169586 
L 401.72529 199.14138 
L 403.125761 190.216821 
L 404.526232 179.826559 
L 412.929055 124.390136 
L 414.329526 115.8061 
L 415.729996 108.189201 
L 417.130467 101.269199 
L 418.530938 95.664955 
L 418.530938 95.664955 
" style="fill:none;stroke:#1f77b4;stroke-linecap:square;stroke-width:1.5;"/>
   </g>
   <g id="line2d_28">
    <path clip-path="url(#p2c6c244b9a)" d="M 61.410938 278.534519 
L 64.912114 278.534519 
L 65.612349 278.214914 
L 66.312585 278.214914 
L 67.01282 277.768557 
L 67.713055 277.152085 
L 68.41329 277.656895 
L 69.113526 278.534519 
L 69.813761 276.27319 
L 70.513996 275.90359 
L 71.214232 275.282073 
L 71.914467 274.154626 
L 72.614702 274.062735 
L 73.314938 274.575436 
L 74.015173 273.211403 
L 74.715408 272.409396 
L 75.415643 271.958804 
L 76.816114 270.281784 
L 77.516349 269.700806 
L 78.216585 268.480429 
L 78.91682 267.568366 
L 79.617055 267.333868 
L 81.017526 264.923542 
L 81.717761 264.928406 
L 82.417996 262.683544 
L 83.118232 262.230379 
L 84.518702 260.165151 
L 85.218938 260.110506 
L 85.919173 259.105611 
L 86.619408 257.312667 
L 87.319643 255.951583 
L 89.420349 253.372649 
L 90.82082 250.747303 
L 91.521055 249.142253 
L 92.22129 248.663782 
L 92.921526 247.362257 
L 93.621761 245.420517 
L 94.321996 244.685032 
L 95.022232 243.46669 
L 95.722467 241.60553 
L 96.422702 241.060978 
L 97.122938 239.595572 
L 97.823173 239.959009 
L 98.523408 237.02593 
L 99.223643 236.929627 
L 99.923879 236.094568 
L 100.624114 233.524492 
L 102.024585 231.965772 
L 102.72482 229.34593 
L 103.425055 229.412509 
L 104.12529 227.613185 
L 104.825526 226.306788 
L 105.525761 226.053307 
L 106.926232 224.306624 
L 107.626467 222.596279 
L 108.326702 220.570603 
L 109.026938 219.325405 
L 109.727173 220.479269 
L 110.427408 218.360732 
L 111.127643 217.167952 
L 111.827879 217.126598 
L 112.528114 215.509645 
L 113.228349 214.788105 
L 113.928585 213.619921 
L 114.62882 213.560151 
L 115.329055 211.70791 
L 116.02929 211.918791 
L 116.729526 209.740012 
L 117.429761 209.624677 
L 118.129996 208.948337 
L 118.830232 207.406837 
L 119.530467 207.246665 
L 120.230702 206.216081 
L 120.930938 204.882017 
L 121.631173 204.928216 
L 122.331408 204.144146 
L 123.031643 202.826102 
L 123.731879 203.532304 
L 124.432114 201.841058 
L 125.132349 202.158321 
L 125.832585 200.500346 
L 126.53282 199.157889 
L 127.233055 199.915357 
L 127.93329 199.794699 
L 128.633526 199.322465 
L 129.333761 199.358049 
L 130.033996 198.650943 
L 130.734232 197.269351 
L 131.434467 198.38087 
L 132.834938 196.332561 
L 133.535173 196.843831 
L 134.235408 195.878417 
L 134.935643 196.341295 
L 135.635879 195.269534 
L 136.336114 195.152167 
L 137.036349 195.922085 
L 137.736585 195.439063 
L 138.43682 195.121738 
L 139.137055 195.195636 
L 139.83729 194.311325 
L 140.537526 193.21834 
L 141.237761 193.641754 
L 142.638232 194.081146 
L 143.338467 194.462779 
L 144.038702 193.848526 
L 144.738938 194.289689 
L 146.139408 193.723601 
L 146.839643 194.012221 
L 147.539879 193.758063 
L 148.240114 194.07253 
L 148.940349 193.658985 
L 149.640585 193.986375 
L 150.34082 194.808959 
L 151.74129 193.878681 
L 152.441526 194.371907 
L 153.141761 195.286921 
L 154.542232 194.644524 
L 155.242467 194.821941 
L 156.642938 195.491227 
L 157.343173 196.70784 
L 158.043408 195.103213 
L 158.743643 195.891517 
L 159.443879 196.367496 
L 160.144114 194.692124 
L 160.844349 196.363129 
L 162.945055 196.336928 
L 163.64529 197.646269 
L 164.345526 196.712227 
L 165.045761 197.120199 
L 165.745996 197.65949 
L 166.446232 197.7917 
L 167.146467 197.02369 
L 167.846702 198.690789 
L 168.546938 197.893062 
L 169.247173 198.748346 
L 169.947408 198.895456 
L 170.647643 198.845749 
L 171.347879 199.83045 
L 172.048114 198.580104 
L 172.748349 198.677507 
L 173.448585 198.95328 
L 174.14882 199.011105 
L 174.849055 198.522547 
L 175.54929 199.968982 
L 176.249526 199.273537 
L 177.649996 200.232641 
L 178.350232 199.295777 
L 179.750702 200.572182 
L 180.450938 199.562658 
L 181.151173 201.063788 
L 181.851408 200.733814 
L 182.551643 200.272861 
L 183.251879 202.049545 
L 183.952114 199.55821 
L 185.352585 200.61259 
L 186.753055 200.733814 
L 187.45329 200.958303 
L 188.153526 201.505861 
L 188.853761 200.652998 
L 189.553996 201.329934 
L 190.254232 200.477897 
L 190.954467 201.320912 
L 191.654702 201.460752 
L 192.354938 201.045744 
L 193.055173 200.459938 
L 193.755408 201.203627 
L 194.455643 200.697896 
L 195.155879 200.652998 
L 195.856114 201.181073 
L 196.556349 200.599121 
L 197.256585 200.62606 
L 197.95682 199.852794 
L 198.657055 200.688916 
L 199.35729 200.120921 
L 200.057526 200.044952 
L 200.757761 200.684427 
L 201.457996 200.31308 
L 202.158232 200.076233 
L 203.558702 200.994221 
L 204.258938 200.009202 
L 204.959173 199.799168 
L 207.059879 200.352183 
L 207.760114 199.44701 
L 208.460349 200.196891 
L 209.160585 198.38087 
L 209.86082 199.906419 
L 210.561055 199.140097 
L 211.26129 200.116453 
L 211.961526 199.53597 
L 212.661761 200.05389 
L 213.361996 198.53583 
L 214.062232 199.020001 
L 215.462702 199.286881 
L 216.162938 198.966624 
L 216.863173 199.229057 
L 217.563408 198.624378 
L 218.263643 198.170704 
L 218.963879 198.104598 
L 219.664114 198.580104 
L 220.364349 198.203773 
L 221.064585 199.264641 
L 221.76482 199.246849 
L 222.465055 199.460354 
L 223.16529 198.217055 
L 223.865526 199.242401 
L 225.265996 197.879841 
L 225.966232 198.407435 
L 226.666467 199.140097 
L 227.366702 198.163926 
L 228.066938 198.730636 
L 228.767173 197.734409 
L 229.467408 198.606668 
L 230.167643 199.251297 
L 230.867879 198.553539 
L 231.568114 199.073377 
L 232.268349 199.086721 
L 232.968585 199.776824 
L 233.66882 199.40253 
L 234.369055 199.611586 
L 235.06929 198.77491 
L 235.769526 199.371394 
L 237.169996 199.955576 
L 237.870232 199.433666 
L 238.570467 200.299673 
L 239.270702 200.441979 
L 239.970938 199.781293 
L 239.970938 199.781293 
" style="fill:none;stroke:#d62728;stroke-linecap:square;stroke-width:1.5;"/>
   </g>
   <g id="line2d_29">
    <path clip-path="url(#p2c6c244b9a)" d="M 61.410938 52.815628 
L 418.530938 52.815628 
" style="fill:none;stroke:#1f77b4;stroke-dasharray:9.6,2.4,1.5,2.4;stroke-dashoffset:0;stroke-width:1.5;"/>
   </g>
   <g id="line2d_30">
    <defs>
     <path d="M -3 3 
L 3 3 
L 3 -3 
L -3 -3 
z
" id="m50da97408e" style="stroke:#1f77b4;stroke-linejoin:miter;"/>
    </defs>
    <g clip-path="url(#p2c6c244b9a)">
     <use style="fill:#1f77b4;stroke:#1f77b4;stroke-linejoin:miter;" x="61.410938" xlink:href="#m50da97408e" y="278.342205"/>
     <use style="fill:#1f77b4;stroke:#1f77b4;stroke-linejoin:miter;" x="73.314938" xlink:href="#m50da97408e" y="237.826828"/>
     <use style="fill:#1f77b4;stroke:#1f77b4;stroke-linejoin:miter;" x="85.218938" xlink:href="#m50da97408e" y="149.84915"/>
     <use style="fill:#1f77b4;stroke:#1f77b4;stroke-linejoin:miter;" x="97.122938" xlink:href="#m50da97408e" y="83.17969"/>
     <use style="fill:#1f77b4;stroke:#1f77b4;stroke-linejoin:miter;" x="109.026938" xlink:href="#m50da97408e" y="83.17969"/>
     <use style="fill:#1f77b4;stroke:#1f77b4;stroke-linejoin:miter;" x="120.930938" xlink:href="#m50da97408e" y="149.092941"/>
     <use style="fill:#1f77b4;stroke:#1f77b4;stroke-linejoin:miter;" x="132.834938" xlink:href="#m50da97408e" y="231.775948"/>
     <use style="fill:#1f77b4;stroke:#1f77b4;stroke-linejoin:miter;" x="144.738938" xlink:href="#m50da97408e" y="263.487628"/>
     <use style="fill:#1f77b4;stroke:#1f77b4;stroke-linejoin:miter;" x="156.642938" xlink:href="#m50da97408e" y="209.284367"/>
     <use style="fill:#1f77b4;stroke:#1f77b4;stroke-linejoin:miter;" x="168.546938" xlink:href="#m50da97408e" y="125.775719"/>
     <use style="fill:#1f77b4;stroke:#1f77b4;stroke-linejoin:miter;" x="180.450938" xlink:href="#m50da97408e" y="76.843216"/>
     <use style="fill:#1f77b4;stroke:#1f77b4;stroke-linejoin:miter;" x="192.354938" xlink:href="#m50da97408e" y="86.285385"/>
     <use style="fill:#1f77b4;stroke:#1f77b4;stroke-linejoin:miter;" x="204.258938" xlink:href="#m50da97408e" y="161.233986"/>
     <use style="fill:#1f77b4;stroke:#1f77b4;stroke-linejoin:miter;" x="216.162938" xlink:href="#m50da97408e" y="243.827751"/>
     <use style="fill:#1f77b4;stroke:#1f77b4;stroke-linejoin:miter;" x="228.066938" xlink:href="#m50da97408e" y="256.404226"/>
     <use style="fill:#1f77b4;stroke:#1f77b4;stroke-linejoin:miter;" x="239.970938" xlink:href="#m50da97408e" y="201.730828"/>
     <use style="fill:#1f77b4;stroke:#1f77b4;stroke-linejoin:miter;" x="251.874938" xlink:href="#m50da97408e" y="116.999636"/>
     <use style="fill:#1f77b4;stroke:#1f77b4;stroke-linejoin:miter;" x="263.778938" xlink:href="#m50da97408e" y="74.674828"/>
     <use style="fill:#1f77b4;stroke:#1f77b4;stroke-linejoin:miter;" x="275.682938" xlink:href="#m50da97408e" y="112.374028"/>
     <use style="fill:#1f77b4;stroke:#1f77b4;stroke-linejoin:miter;" x="287.586938" xlink:href="#m50da97408e" y="187.867468"/>
     <use style="fill:#1f77b4;stroke:#1f77b4;stroke-linejoin:miter;" x="299.490938" xlink:href="#m50da97408e" y="252.528809"/>
     <use style="fill:#1f77b4;stroke:#1f77b4;stroke-linejoin:miter;" x="311.394938" xlink:href="#m50da97408e" y="248.922788"/>
     <use style="fill:#1f77b4;stroke:#1f77b4;stroke-linejoin:miter;" x="323.298938" xlink:href="#m50da97408e" y="164.676275"/>
     <use style="fill:#1f77b4;stroke:#1f77b4;stroke-linejoin:miter;" x="335.202938" xlink:href="#m50da97408e" y="100.594828"/>
     <use style="fill:#1f77b4;stroke:#1f77b4;stroke-linejoin:miter;" x="347.106938" xlink:href="#m50da97408e" y="88.498828"/>
     <use style="fill:#1f77b4;stroke:#1f77b4;stroke-linejoin:miter;" x="359.010938" xlink:href="#m50da97408e" y="126.852729"/>
     <use style="fill:#1f77b4;stroke:#1f77b4;stroke-linejoin:miter;" x="370.914938" xlink:href="#m50da97408e" y="201.278112"/>
     <use style="fill:#1f77b4;stroke:#1f77b4;stroke-linejoin:miter;" x="382.818938" xlink:href="#m50da97408e" y="248.355769"/>
     <use style="fill:#1f77b4;stroke:#1f77b4;stroke-linejoin:miter;" x="394.722938" xlink:href="#m50da97408e" y="248.544735"/>
     <use style="fill:#1f77b4;stroke:#1f77b4;stroke-linejoin:miter;" x="406.626938" xlink:href="#m50da97408e" y="174.783628"/>
     <use style="fill:#1f77b4;stroke:#1f77b4;stroke-linejoin:miter;" x="418.530938" xlink:href="#m50da97408e" y="104.816741"/>
    </g>
   </g>
   <g id="line2d_31">
    <defs>
     <path d="M 0 3 
C 0.795609 3 1.55874 2.683901 2.12132 2.12132 
C 2.683901 1.55874 3 0.795609 3 0 
C 3 -0.795609 2.683901 -1.55874 2.12132 -2.12132 
C 1.55874 -2.683901 0.795609 -3 0 -3 
C -0.795609 -3 -1.55874 -2.683901 -2.12132 -2.12132 
C -2.683901 -1.55874 -3 -0.795609 -3 0 
C -3 0.795609 -2.683901 1.55874 -2.12132 2.12132 
C -1.55874 2.683901 -0.795609 3 0 3 
z
" id="m67928b13b3" style="stroke:#d62728;"/>
    </defs>
    <g clip-path="url(#p2c6c244b9a)">
     <use style="fill:#d62728;stroke:#d62728;" x="61.410938" xlink:href="#m67928b13b3" y="277.178101"/>
     <use style="fill:#d62728;stroke:#d62728;" x="73.314938" xlink:href="#m67928b13b3" y="270.166065"/>
     <use style="fill:#d62728;stroke:#d62728;" x="85.218938" xlink:href="#m67928b13b3" y="260.936747"/>
     <use style="fill:#d62728;stroke:#d62728;" x="97.122938" xlink:href="#m67928b13b3" y="241.962301"/>
     <use style="fill:#d62728;stroke:#d62728;" x="109.026938" xlink:href="#m67928b13b3" y="221.652377"/>
     <use style="fill:#d62728;stroke:#d62728;" x="120.930938" xlink:href="#m67928b13b3" y="208.22813"/>
     <use style="fill:#d62728;stroke:#d62728;" x="132.834938" xlink:href="#m67928b13b3" y="196.410314"/>
     <use style="fill:#d62728;stroke:#d62728;" x="144.738938" xlink:href="#m67928b13b3" y="208.499116"/>
     <use style="fill:#d62728;stroke:#d62728;" x="156.642938" xlink:href="#m67928b13b3" y="177.859264"/>
     <use style="fill:#d62728;stroke:#d62728;" x="168.546938" xlink:href="#m67928b13b3" y="200.946181"/>
     <use style="fill:#d62728;stroke:#d62728;" x="180.450938" xlink:href="#m67928b13b3" y="180.821912"/>
     <use style="fill:#d62728;stroke:#d62728;" x="192.354938" xlink:href="#m67928b13b3" y="191.658274"/>
     <use style="fill:#d62728;stroke:#d62728;" x="204.258938" xlink:href="#m67928b13b3" y="189.888413"/>
     <use style="fill:#d62728;stroke:#d62728;" x="216.162938" xlink:href="#m67928b13b3" y="182.575746"/>
     <use style="fill:#d62728;stroke:#d62728;" x="228.066938" xlink:href="#m67928b13b3" y="192.395426"/>
    </g>
   </g>
   <g id="patch_3">
    <path d="M 61.410938 279.010828 
L 61.410938 12.898828 
" style="fill:none;stroke:#000000;stroke-linecap:square;stroke-linejoin:miter;stroke-width:0.8;"/>
   </g>
   <g id="patch_4">
    <path d="M 418.530938 279.010828 
L 418.530938 12.898828 
" style="fill:none;stroke:#000000;stroke-linecap:square;stroke-linejoin:miter;stroke-width:0.8;"/>
   </g>
   <g id="patch_5">
    <path d="M 61.410938 279.010828 
L 418.530938 279.010828 
" style="fill:none;stroke:#000000;stroke-linecap:square;stroke-linejoin:miter;stroke-width:0.8;"/>
   </g>
   <g id="patch_6">
    <path d="M 61.410938 12.898828 
L 418.530938 12.898828 
" style="fill:none;stroke:#000000;stroke-linecap:square;stroke-linejoin:miter;stroke-width:0.8;"/>
   </g>
  </g>
 </g>
 <defs>
  <clipPath id="p2c6c244b9a">
   <rect height="266.112" width="357.12" x="61.410938" y="12.898828"/>
  </clipPath>
 </defs>
</svg>
