<?xml version="1.0" encoding="utf-8" standalone="no"?>
<!DOCTYPE svg PUBLIC "-//W3C//DTD SVG 1.1//EN"
  "http://www.w3.org/Graphics/SVG/1.1/DTD/svg11.dtd">
<!-- Created with matplotlib (https://matplotlib.org/) -->
<svg height="349.621687pt" version="1.1" viewBox="0 0 443.55125 349.621687" width="443.55125pt" xmlns="http://www.w3.org/2000/svg" xmlns:xlink="http://www.w3.org/1999/xlink">
 <defs>
  <style type="text/css">
*{stroke-linecap:butt;stroke-linejoin:round;}
  </style>
 </defs>
 <g id="figure_1">
  <g id="patch_1">
   <path d="M 0 349.621687 
L 443.55125 349.621687 
L 443.55125 0 
L 0 0 
z
" style="fill:none;"/>
  </g>
  <g id="axes_1">
   <g id="patch_2">
    <path d="M 75.73125 297.54825 
L 432.85125 297.54825 
L 432.85125 31.43625 
L 75.73125 31.43625 
z
" style="fill:none;"/>
   </g>
   <g id="matplotlib.axis_1">
    <g id="xtick_1">
     <g id="line2d_1">
      <path clip-path="url(#p47e4b84ee8)" d="M 91.963977 297.54825 
L 91.963977 31.43625 
" style="fill:none;stroke:#b0b0b0;stroke-linecap:square;stroke-width:0.8;"/>
     </g>
     <g id="line2d_2">
      <defs>
       <path d="M 0 0 
L 0 3.5 
" id="m005f0a59be" style="stroke:#000000;stroke-width:0.8;"/>
      </defs>
      <g>
       <use style="stroke:#000000;stroke-width:0.8;" x="91.963977" xlink:href="#m005f0a59be" y="297.54825"/>
      </g>
     </g>
     <g id="text_1">
      <!-- −750 -->
      <defs>
       <path d="M 10.59375 35.5 
L 73.1875 35.5 
L 73.1875 27.203125 
L 10.59375 27.203125 
z
" id="DejaVuSans-8722"/>
       <path d="M 8.203125 72.90625 
L 55.078125 72.90625 
L 55.078125 68.703125 
L 28.609375 0 
L 18.3125 0 
L 43.21875 64.59375 
L 8.203125 64.59375 
z
" id="DejaVuSans-55"/>
       <path d="M 10.796875 72.90625 
L 49.515625 72.90625 
L 49.515625 64.59375 
L 19.828125 64.59375 
L 19.828125 46.734375 
Q 21.96875 47.46875 24.109375 47.828125 
Q 26.265625 48.1875 28.421875 48.1875 
Q 40.625 48.1875 47.75 41.5 
Q 54.890625 34.8125 54.890625 23.390625 
Q 54.890625 11.625 47.5625 5.09375 
Q 40.234375 -1.421875 26.90625 -1.421875 
Q 22.3125 -1.421875 17.546875 -0.640625 
Q 12.796875 0.140625 7.71875 1.703125 
L 7.71875 11.625 
Q 12.109375 9.234375 16.796875 8.0625 
Q 21.484375 6.890625 26.703125 6.890625 
Q 35.15625 6.890625 40.078125 11.328125 
Q 45.015625 15.765625 45.015625 23.390625 
Q 45.015625 31 40.078125 35.4375 
Q 35.15625 39.890625 26.703125 39.890625 
Q 22.75 39.890625 18.8125 39.015625 
Q 14.890625 38.140625 10.796875 36.28125 
z
" id="DejaVuSans-53"/>
       <path d="M 31.78125 66.40625 
Q 24.171875 66.40625 20.328125 58.90625 
Q 16.5 51.421875 16.5 36.375 
Q 16.5 21.390625 20.328125 13.890625 
Q 24.171875 6.390625 31.78125 6.390625 
Q 39.453125 6.390625 43.28125 13.890625 
Q 47.125 21.390625 47.125 36.375 
Q 47.125 51.421875 43.28125 58.90625 
Q 39.453125 66.40625 31.78125 66.40625 
z
M 31.78125 74.21875 
Q 44.046875 74.21875 50.515625 64.515625 
Q 56.984375 54.828125 56.984375 36.375 
Q 56.984375 17.96875 50.515625 8.265625 
Q 44.046875 -1.421875 31.78125 -1.421875 
Q 19.53125 -1.421875 13.0625 8.265625 
Q 6.59375 17.96875 6.59375 36.375 
Q 6.59375 54.828125 13.0625 64.515625 
Q 19.53125 74.21875 31.78125 74.21875 
z
" id="DejaVuSans-48"/>
      </defs>
      <g transform="translate(71.363587 315.945906)scale(0.15 -0.15)">
       <use xlink:href="#DejaVuSans-8722"/>
       <use x="83.789062" xlink:href="#DejaVuSans-55"/>
       <use x="147.412109" xlink:href="#DejaVuSans-53"/>
       <use x="211.035156" xlink:href="#DejaVuSans-48"/>
      </g>
     </g>
    </g>
    <g id="xtick_2">
     <g id="line2d_3">
      <path clip-path="url(#p47e4b84ee8)" d="M 149.938003 297.54825 
L 149.938003 31.43625 
" style="fill:none;stroke:#b0b0b0;stroke-linecap:square;stroke-width:0.8;"/>
     </g>
     <g id="line2d_4">
      <g>
       <use style="stroke:#000000;stroke-width:0.8;" x="149.938003" xlink:href="#m005f0a59be" y="297.54825"/>
      </g>
     </g>
     <g id="text_2">
      <!-- −500 -->
      <g transform="translate(129.337613 315.945906)scale(0.15 -0.15)">
       <use xlink:href="#DejaVuSans-8722"/>
       <use x="83.789062" xlink:href="#DejaVuSans-53"/>
       <use x="147.412109" xlink:href="#DejaVuSans-48"/>
       <use x="211.035156" xlink:href="#DejaVuSans-48"/>
      </g>
     </g>
    </g>
    <g id="xtick_3">
     <g id="line2d_5">
      <path clip-path="url(#p47e4b84ee8)" d="M 207.912029 297.54825 
L 207.912029 31.43625 
" style="fill:none;stroke:#b0b0b0;stroke-linecap:square;stroke-width:0.8;"/>
     </g>
     <g id="line2d_6">
      <g>
       <use style="stroke:#000000;stroke-width:0.8;" x="207.912029" xlink:href="#m005f0a59be" y="297.54825"/>
      </g>
     </g>
     <g id="text_3">
      <!-- −250 -->
      <defs>
       <path d="M 19.1875 8.296875 
L 53.609375 8.296875 
L 53.609375 0 
L 7.328125 0 
L 7.328125 8.296875 
Q 12.9375 14.109375 22.625 23.890625 
Q 32.328125 33.6875 34.8125 36.53125 
Q 39.546875 41.84375 41.421875 45.53125 
Q 43.3125 49.21875 43.3125 52.78125 
Q 43.3125 58.59375 39.234375 62.25 
Q 35.15625 65.921875 28.609375 65.921875 
Q 23.96875 65.921875 18.8125 64.3125 
Q 13.671875 62.703125 7.8125 59.421875 
L 7.8125 69.390625 
Q 13.765625 71.78125 18.9375 73 
Q 24.125 74.21875 28.421875 74.21875 
Q 39.75 74.21875 46.484375 68.546875 
Q 53.21875 62.890625 53.21875 53.421875 
Q 53.21875 48.921875 51.53125 44.890625 
Q 49.859375 40.875 45.40625 35.40625 
Q 44.1875 33.984375 37.640625 27.21875 
Q 31.109375 20.453125 19.1875 8.296875 
z
" id="DejaVuSans-50"/>
      </defs>
      <g transform="translate(187.311639 315.945906)scale(0.15 -0.15)">
       <use xlink:href="#DejaVuSans-8722"/>
       <use x="83.789062" xlink:href="#DejaVuSans-50"/>
       <use x="147.412109" xlink:href="#DejaVuSans-53"/>
       <use x="211.035156" xlink:href="#DejaVuSans-48"/>
      </g>
     </g>
    </g>
    <g id="xtick_4">
     <g id="line2d_7">
      <path clip-path="url(#p47e4b84ee8)" d="M 265.886055 297.54825 
L 265.886055 31.43625 
" style="fill:none;stroke:#b0b0b0;stroke-linecap:square;stroke-width:0.8;"/>
     </g>
     <g id="line2d_8">
      <g>
       <use style="stroke:#000000;stroke-width:0.8;" x="265.886055" xlink:href="#m005f0a59be" y="297.54825"/>
      </g>
     </g>
     <g id="text_4">
      <!-- 0 -->
      <g transform="translate(261.11418 315.945906)scale(0.15 -0.15)">
       <use xlink:href="#DejaVuSans-48"/>
      </g>
     </g>
    </g>
    <g id="xtick_5">
     <g id="line2d_9">
      <path clip-path="url(#p47e4b84ee8)" d="M 323.860081 297.54825 
L 323.860081 31.43625 
" style="fill:none;stroke:#b0b0b0;stroke-linecap:square;stroke-width:0.8;"/>
     </g>
     <g id="line2d_10">
      <g>
       <use style="stroke:#000000;stroke-width:0.8;" x="323.860081" xlink:href="#m005f0a59be" y="297.54825"/>
      </g>
     </g>
     <g id="text_5">
      <!-- 250 -->
      <g transform="translate(309.544456 315.945906)scale(0.15 -0.15)">
       <use xlink:href="#DejaVuSans-50"/>
       <use x="63.623047" xlink:href="#DejaVuSans-53"/>
       <use x="127.246094" xlink:href="#DejaVuSans-48"/>
      </g>
     </g>
    </g>
    <g id="xtick_6">
     <g id="line2d_11">
      <path clip-path="url(#p47e4b84ee8)" d="M 381.834107 297.54825 
L 381.834107 31.43625 
" style="fill:none;stroke:#b0b0b0;stroke-linecap:square;stroke-width:0.8;"/>
     </g>
     <g id="line2d_12">
      <g>
       <use style="stroke:#000000;stroke-width:0.8;" x="381.834107" xlink:href="#m005f0a59be" y="297.54825"/>
      </g>
     </g>
     <g id="text_6">
      <!-- 500 -->
      <g transform="translate(367.518482 315.945906)scale(0.15 -0.15)">
       <use xlink:href="#DejaVuSans-53"/>
       <use x="63.623047" xlink:href="#DejaVuSans-48"/>
       <use x="127.246094" xlink:href="#DejaVuSans-48"/>
      </g>
     </g>
    </g>
    <g id="text_7">
     <!-- 288XXX GHz -->
     <defs>
      <path d="M 31.78125 34.625 
Q 24.75 34.625 20.71875 30.859375 
Q 16.703125 27.09375 16.703125 20.515625 
Q 16.703125 13.921875 20.71875 10.15625 
Q 24.75 6.390625 31.78125 6.390625 
Q 38.8125 6.390625 42.859375 10.171875 
Q 46.921875 13.96875 46.921875 20.515625 
Q 46.921875 27.09375 42.890625 30.859375 
Q 38.875 34.625 31.78125 34.625 
z
M 21.921875 38.8125 
Q 15.578125 40.375 12.03125 44.71875 
Q 8.5 49.078125 8.5 55.328125 
Q 8.5 64.0625 14.71875 69.140625 
Q 20.953125 74.21875 31.78125 74.21875 
Q 42.671875 74.21875 48.875 69.140625 
Q 55.078125 64.0625 55.078125 55.328125 
Q 55.078125 49.078125 51.53125 44.71875 
Q 48 40.375 41.703125 38.8125 
Q 48.828125 37.15625 52.796875 32.3125 
Q 56.78125 27.484375 56.78125 20.515625 
Q 56.78125 9.90625 50.3125 4.234375 
Q 43.84375 -1.421875 31.78125 -1.421875 
Q 19.734375 -1.421875 13.25 4.234375 
Q 6.78125 9.90625 6.78125 20.515625 
Q 6.78125 27.484375 10.78125 32.3125 
Q 14.796875 37.15625 21.921875 38.8125 
z
M 18.3125 54.390625 
Q 18.3125 48.734375 21.84375 45.5625 
Q 25.390625 42.390625 31.78125 42.390625 
Q 38.140625 42.390625 41.71875 45.5625 
Q 45.3125 48.734375 45.3125 54.390625 
Q 45.3125 60.0625 41.71875 63.234375 
Q 38.140625 66.40625 31.78125 66.40625 
Q 25.390625 66.40625 21.84375 63.234375 
Q 18.3125 60.0625 18.3125 54.390625 
z
" id="DejaVuSans-56"/>
      <path d="M 6.296875 72.90625 
L 16.890625 72.90625 
L 35.015625 45.796875 
L 53.21875 72.90625 
L 63.8125 72.90625 
L 40.375 37.890625 
L 65.375 0 
L 54.78125 0 
L 34.28125 31 
L 13.625 0 
L 2.984375 0 
L 29 38.921875 
z
" id="DejaVuSans-88"/>
      <path id="DejaVuSans-32"/>
      <path d="M 59.515625 10.40625 
L 59.515625 29.984375 
L 43.40625 29.984375 
L 43.40625 38.09375 
L 69.28125 38.09375 
L 69.28125 6.78125 
Q 63.578125 2.734375 56.6875 0.65625 
Q 49.8125 -1.421875 42 -1.421875 
Q 24.90625 -1.421875 15.25 8.5625 
Q 5.609375 18.5625 5.609375 36.375 
Q 5.609375 54.25 15.25 64.234375 
Q 24.90625 74.21875 42 74.21875 
Q 49.125 74.21875 55.546875 72.453125 
Q 61.96875 70.703125 67.390625 67.28125 
L 67.390625 56.78125 
Q 61.921875 61.421875 55.765625 63.765625 
Q 49.609375 66.109375 42.828125 66.109375 
Q 29.4375 66.109375 22.71875 58.640625 
Q 16.015625 51.171875 16.015625 36.375 
Q 16.015625 21.625 22.71875 14.15625 
Q 29.4375 6.6875 42.828125 6.6875 
Q 48.046875 6.6875 52.140625 7.59375 
Q 56.25 8.5 59.515625 10.40625 
z
" id="DejaVuSans-71"/>
      <path d="M 9.8125 72.90625 
L 19.671875 72.90625 
L 19.671875 43.015625 
L 55.515625 43.015625 
L 55.515625 72.90625 
L 65.375 72.90625 
L 65.375 0 
L 55.515625 0 
L 55.515625 34.71875 
L 19.671875 34.71875 
L 19.671875 0 
L 9.8125 0 
z
" id="DejaVuSans-72"/>
      <path d="M 5.515625 54.6875 
L 48.1875 54.6875 
L 48.1875 46.484375 
L 14.40625 7.171875 
L 48.1875 7.171875 
L 48.1875 0 
L 4.296875 0 
L 4.296875 8.203125 
L 38.09375 47.515625 
L 5.515625 47.515625 
z
" id="DejaVuSans-122"/>
     </defs>
     <g transform="translate(190.958438 338.262312)scale(0.2 -0.2)">
      <use xlink:href="#DejaVuSans-50"/>
      <use x="63.623047" xlink:href="#DejaVuSans-56"/>
      <use x="127.246094" xlink:href="#DejaVuSans-56"/>
      <use x="190.869141" xlink:href="#DejaVuSans-88"/>
      <use x="259.375" xlink:href="#DejaVuSans-88"/>
      <use x="327.880859" xlink:href="#DejaVuSans-88"/>
      <use x="396.386719" xlink:href="#DejaVuSans-32"/>
      <use x="428.173828" xlink:href="#DejaVuSans-71"/>
      <use x="505.664062" xlink:href="#DejaVuSans-72"/>
      <use x="580.859375" xlink:href="#DejaVuSans-122"/>
     </g>
    </g>
   </g>
   <g id="matplotlib.axis_2">
    <g id="ytick_1">
     <g id="line2d_13">
      <path clip-path="url(#p47e4b84ee8)" d="M 75.73125 273.35625 
L 432.85125 273.35625 
" style="fill:none;stroke:#b0b0b0;stroke-linecap:square;stroke-width:0.8;"/>
     </g>
     <g id="line2d_14">
      <defs>
       <path d="M 0 0 
L -3.5 0 
" id="mc3ce260a5b" style="stroke:#000000;stroke-width:0.8;"/>
      </defs>
      <g>
       <use style="stroke:#000000;stroke-width:0.8;" x="75.73125" xlink:href="#mc3ce260a5b" y="273.35625"/>
      </g>
     </g>
     <g id="text_8">
      <!-- 0 -->
      <g transform="translate(59.1875 279.055078)scale(0.15 -0.15)">
       <use xlink:href="#DejaVuSans-48"/>
      </g>
     </g>
    </g>
    <g id="ytick_2">
     <g id="line2d_15">
      <path clip-path="url(#p47e4b84ee8)" d="M 75.73125 224.97225 
L 432.85125 224.97225 
" style="fill:none;stroke:#b0b0b0;stroke-linecap:square;stroke-width:0.8;"/>
     </g>
     <g id="line2d_16">
      <g>
       <use style="stroke:#000000;stroke-width:0.8;" x="75.73125" xlink:href="#mc3ce260a5b" y="224.97225"/>
      </g>
     </g>
     <g id="text_9">
      <!-- 200 -->
      <g transform="translate(40.1 230.671078)scale(0.15 -0.15)">
       <use xlink:href="#DejaVuSans-50"/>
       <use x="63.623047" xlink:href="#DejaVuSans-48"/>
       <use x="127.246094" xlink:href="#DejaVuSans-48"/>
      </g>
     </g>
    </g>
    <g id="ytick_3">
     <g id="line2d_17">
      <path clip-path="url(#p47e4b84ee8)" d="M 75.73125 176.58825 
L 432.85125 176.58825 
" style="fill:none;stroke:#b0b0b0;stroke-linecap:square;stroke-width:0.8;"/>
     </g>
     <g id="line2d_18">
      <g>
       <use style="stroke:#000000;stroke-width:0.8;" x="75.73125" xlink:href="#mc3ce260a5b" y="176.58825"/>
      </g>
     </g>
     <g id="text_10">
      <!-- 400 -->
      <defs>
       <path d="M 37.796875 64.3125 
L 12.890625 25.390625 
L 37.796875 25.390625 
z
M 35.203125 72.90625 
L 47.609375 72.90625 
L 47.609375 25.390625 
L 58.015625 25.390625 
L 58.015625 17.1875 
L 47.609375 17.1875 
L 47.609375 0 
L 37.796875 0 
L 37.796875 17.1875 
L 4.890625 17.1875 
L 4.890625 26.703125 
z
" id="DejaVuSans-52"/>
      </defs>
      <g transform="translate(40.1 182.287078)scale(0.15 -0.15)">
       <use xlink:href="#DejaVuSans-52"/>
       <use x="63.623047" xlink:href="#DejaVuSans-48"/>
       <use x="127.246094" xlink:href="#DejaVuSans-48"/>
      </g>
     </g>
    </g>
    <g id="ytick_4">
     <g id="line2d_19">
      <path clip-path="url(#p47e4b84ee8)" d="M 75.73125 128.20425 
L 432.85125 128.20425 
" style="fill:none;stroke:#b0b0b0;stroke-linecap:square;stroke-width:0.8;"/>
     </g>
     <g id="line2d_20">
      <g>
       <use style="stroke:#000000;stroke-width:0.8;" x="75.73125" xlink:href="#mc3ce260a5b" y="128.20425"/>
      </g>
     </g>
     <g id="text_11">
      <!-- 600 -->
      <defs>
       <path d="M 33.015625 40.375 
Q 26.375 40.375 22.484375 35.828125 
Q 18.609375 31.296875 18.609375 23.390625 
Q 18.609375 15.53125 22.484375 10.953125 
Q 26.375 6.390625 33.015625 6.390625 
Q 39.65625 6.390625 43.53125 10.953125 
Q 47.40625 15.53125 47.40625 23.390625 
Q 47.40625 31.296875 43.53125 35.828125 
Q 39.65625 40.375 33.015625 40.375 
z
M 52.59375 71.296875 
L 52.59375 62.3125 
Q 48.875 64.0625 45.09375 64.984375 
Q 41.3125 65.921875 37.59375 65.921875 
Q 27.828125 65.921875 22.671875 59.328125 
Q 17.53125 52.734375 16.796875 39.40625 
Q 19.671875 43.65625 24.015625 45.921875 
Q 28.375 48.1875 33.59375 48.1875 
Q 44.578125 48.1875 50.953125 41.515625 
Q 57.328125 34.859375 57.328125 23.390625 
Q 57.328125 12.15625 50.6875 5.359375 
Q 44.046875 -1.421875 33.015625 -1.421875 
Q 20.359375 -1.421875 13.671875 8.265625 
Q 6.984375 17.96875 6.984375 36.375 
Q 6.984375 53.65625 15.1875 63.9375 
Q 23.390625 74.21875 37.203125 74.21875 
Q 40.921875 74.21875 44.703125 73.484375 
Q 48.484375 72.75 52.59375 71.296875 
z
" id="DejaVuSans-54"/>
      </defs>
      <g transform="translate(40.1 133.903078)scale(0.15 -0.15)">
       <use xlink:href="#DejaVuSans-54"/>
       <use x="63.623047" xlink:href="#DejaVuSans-48"/>
       <use x="127.246094" xlink:href="#DejaVuSans-48"/>
      </g>
     </g>
    </g>
    <g id="ytick_5">
     <g id="line2d_21">
      <path clip-path="url(#p47e4b84ee8)" d="M 75.73125 79.82025 
L 432.85125 79.82025 
" style="fill:none;stroke:#b0b0b0;stroke-linecap:square;stroke-width:0.8;"/>
     </g>
     <g id="line2d_22">
      <g>
       <use style="stroke:#000000;stroke-width:0.8;" x="75.73125" xlink:href="#mc3ce260a5b" y="79.82025"/>
      </g>
     </g>
     <g id="text_12">
      <!-- 800 -->
      <g transform="translate(40.1 85.519078)scale(0.15 -0.15)">
       <use xlink:href="#DejaVuSans-56"/>
       <use x="63.623047" xlink:href="#DejaVuSans-48"/>
       <use x="127.246094" xlink:href="#DejaVuSans-48"/>
      </g>
     </g>
    </g>
    <g id="ytick_6">
     <g id="line2d_23">
      <path clip-path="url(#p47e4b84ee8)" d="M 75.73125 31.43625 
L 432.85125 31.43625 
" style="fill:none;stroke:#b0b0b0;stroke-linecap:square;stroke-width:0.8;"/>
     </g>
     <g id="line2d_24">
      <g>
       <use style="stroke:#000000;stroke-width:0.8;" x="75.73125" xlink:href="#mc3ce260a5b" y="31.43625"/>
      </g>
     </g>
     <g id="text_13">
      <!-- 1000 -->
      <defs>
       <path d="M 12.40625 8.296875 
L 28.515625 8.296875 
L 28.515625 63.921875 
L 10.984375 60.40625 
L 10.984375 69.390625 
L 28.421875 72.90625 
L 38.28125 72.90625 
L 38.28125 8.296875 
L 54.390625 8.296875 
L 54.390625 0 
L 12.40625 0 
z
" id="DejaVuSans-49"/>
      </defs>
      <g transform="translate(30.55625 37.135078)scale(0.15 -0.15)">
       <use xlink:href="#DejaVuSans-49"/>
       <use x="63.623047" xlink:href="#DejaVuSans-48"/>
       <use x="127.246094" xlink:href="#DejaVuSans-48"/>
       <use x="190.869141" xlink:href="#DejaVuSans-48"/>
      </g>
     </g>
    </g>
    <g id="text_14">
     <!-- 298XXX kHz -->
     <defs>
      <path d="M 10.984375 1.515625 
L 10.984375 10.5 
Q 14.703125 8.734375 18.5 7.8125 
Q 22.3125 6.890625 25.984375 6.890625 
Q 35.75 6.890625 40.890625 13.453125 
Q 46.046875 20.015625 46.78125 33.40625 
Q 43.953125 29.203125 39.59375 26.953125 
Q 35.25 24.703125 29.984375 24.703125 
Q 19.046875 24.703125 12.671875 31.3125 
Q 6.296875 37.9375 6.296875 49.421875 
Q 6.296875 60.640625 12.9375 67.421875 
Q 19.578125 74.21875 30.609375 74.21875 
Q 43.265625 74.21875 49.921875 64.515625 
Q 56.59375 54.828125 56.59375 36.375 
Q 56.59375 19.140625 48.40625 8.859375 
Q 40.234375 -1.421875 26.421875 -1.421875 
Q 22.703125 -1.421875 18.890625 -0.6875 
Q 15.09375 0.046875 10.984375 1.515625 
z
M 30.609375 32.421875 
Q 37.25 32.421875 41.125 36.953125 
Q 45.015625 41.5 45.015625 49.421875 
Q 45.015625 57.28125 41.125 61.84375 
Q 37.25 66.40625 30.609375 66.40625 
Q 23.96875 66.40625 20.09375 61.84375 
Q 16.21875 57.28125 16.21875 49.421875 
Q 16.21875 41.5 20.09375 36.953125 
Q 23.96875 32.421875 30.609375 32.421875 
z
" id="DejaVuSans-57"/>
      <path d="M 9.078125 75.984375 
L 18.109375 75.984375 
L 18.109375 31.109375 
L 44.921875 54.6875 
L 56.390625 54.6875 
L 27.390625 29.109375 
L 57.625 0 
L 45.90625 0 
L 18.109375 26.703125 
L 18.109375 0 
L 9.078125 0 
z
" id="DejaVuSans-107"/>
     </defs>
     <g transform="translate(22.396875 225.86725)rotate(-90)scale(0.2 -0.2)">
      <use xlink:href="#DejaVuSans-50"/>
      <use x="63.623047" xlink:href="#DejaVuSans-57"/>
      <use x="127.246094" xlink:href="#DejaVuSans-56"/>
      <use x="190.869141" xlink:href="#DejaVuSans-88"/>
      <use x="259.375" xlink:href="#DejaVuSans-88"/>
      <use x="327.880859" xlink:href="#DejaVuSans-88"/>
      <use x="396.386719" xlink:href="#DejaVuSans-32"/>
      <use x="428.173828" xlink:href="#DejaVuSans-107"/>
      <use x="486.083984" xlink:href="#DejaVuSans-72"/>
      <use x="561.279297" xlink:href="#DejaVuSans-122"/>
     </g>
    </g>
   </g>
   <g id="LineCollection_1">
    <path clip-path="url(#p47e4b84ee8)" d="M 356.337131 227.87529 
L 356.337131 226.42377 
" style="fill:none;stroke:#1f77b4;stroke-width:1.5;"/>
    <path clip-path="url(#p47e4b84ee8)" d="M 286.304507 269.72745 
L 286.304507 268.75977 
" style="fill:none;stroke:#1f77b4;stroke-width:1.5;"/>
    <path clip-path="url(#p47e4b84ee8)" d="M 175.921962 281.58153 
L 175.921962 280.61385 
" style="fill:none;stroke:#1f77b4;stroke-width:1.5;"/>
    <path clip-path="url(#p47e4b84ee8)" d="M 104.961754 283.27497 
L 104.961754 282.79113 
" style="fill:none;stroke:#1f77b4;stroke-width:1.5;"/>
    <path clip-path="url(#p47e4b84ee8)" d="M 405.035312 45.95145 
L 405.035312 41.11305 
" style="fill:none;stroke:#1f77b4;stroke-width:1.5;"/>
    <path clip-path="url(#p47e4b84ee8)" d="M 315.755312 251.58345 
L 315.755312 250.13193 
" style="fill:none;stroke:#1f77b4;stroke-width:1.5;"/>
    <path clip-path="url(#p47e4b84ee8)" d="M 272.390741 272.38857 
L 272.390741 271.42089 
" style="fill:none;stroke:#1f77b4;stroke-width:1.5;"/>
    <path clip-path="url(#p47e4b84ee8)" d="M 251.056299 265.13097 
L 251.056299 264.64713 
" style="fill:none;stroke:#1f77b4;stroke-width:1.5;"/>
    <path clip-path="url(#p47e4b84ee8)" d="M 239.229598 273.84009 
L 239.229598 273.35625 
" style="fill:none;stroke:#1f77b4;stroke-width:1.5;"/>
    <path clip-path="url(#p47e4b84ee8)" d="M 245.027001 270.45321 
L 245.027001 269.96937 
" style="fill:none;stroke:#1f77b4;stroke-width:1.5;"/>
    <path clip-path="url(#p47e4b84ee8)" d="M 254.302845 261.50217 
L 254.302845 261.01833 
" style="fill:none;stroke:#1f77b4;stroke-width:1.5;"/>
    <path clip-path="url(#p47e4b84ee8)" d="M 266.825234 277.22697 
L 266.825234 276.74313 
" style="fill:none;stroke:#1f77b4;stroke-width:1.5;"/>
   </g>
   <g id="line2d_25">
    <path clip-path="url(#p47e4b84ee8)" d="M 91.963977 287.625789 
L 116.654115 286.181893 
L 138.508224 284.686342 
L 157.859953 283.143539 
L 174.876129 281.569155 
L 189.890402 279.960526 
L 202.902772 278.346149 
L 213.913239 276.761225 
L 222.921803 275.249505 
L 230.262114 273.798539 
L 235.934173 272.458583 
L 240.271629 271.217001 
L 243.608134 270.044412 
L 246.277339 268.875932 
L 248.279242 267.777318 
L 249.947494 266.626133 
L 251.282096 265.462377 
L 252.449873 264.167999 
L 253.450825 262.741181 
L 254.284951 261.207034 
L 255.119077 259.180382 
L 255.786378 256.997821 
L 256.453679 253.99195 
L 256.954155 250.847051 
L 257.454631 246.392139 
L 257.955106 239.550998 
L 258.288757 232.479918 
L 258.622407 221.378223 
L 258.622407 221.378223 
" style="fill:none;stroke:#1f77b4;stroke-linecap:square;stroke-width:1.5;"/>
   </g>
   <g id="line2d_26">
    <path clip-path="url(#p47e4b84ee8)" d="M 260.941368 319.646971 
L 261.408867 305.360344 
L 261.876366 297.4067 
L 262.499698 291.004127 
L 263.12303 286.939676 
L 263.902195 283.529778 
L 264.68136 281.148859 
L 265.616358 279.068617 
L 266.551356 277.503237 
L 267.642187 276.081366 
L 268.888851 274.796466 
L 270.447181 273.51169 
L 272.317177 272.261695 
L 274.654671 270.966907 
L 277.771331 269.502649 
L 282.290488 267.646678 
L 291.172968 264.299575 
L 301.457945 260.34425 
L 308.47043 257.408863 
L 314.547916 254.630654 
L 320.157904 251.823116 
L 325.300392 249.0025 
L 330.131215 246.098235 
L 334.650371 243.12013 
L 338.857862 240.083693 
L 342.90952 236.88162 
L 346.649511 233.646728 
L 350.23367 230.257385 
L 353.661996 226.71134 
L 356.934489 223.008229 
L 360.051148 219.149994 
L 363.011975 215.141382 
L 365.972802 210.748839 
L 368.777796 206.180416 
L 371.426956 201.447297 
L 374.076117 196.245721 
L 376.569445 190.856477 
L 379.062773 184.912827 
L 381.400268 178.756885 
L 383.737762 171.943178 
L 385.919424 164.892106 
L 388.101086 157.059352 
L 390.126915 148.96613 
L 392.152744 139.943649 
L 394.02274 130.644056 
L 395.892735 120.241517 
L 397.762731 108.527232 
L 399.476894 96.411704 
L 401.191057 82.712266 
L 402.90522 67.09638 
L 404.46355 50.875526 
L 406.02188 32.290783 
L 407.580209 10.784593 
L 408.34136 -1 
L 408.34136 -1 
" style="fill:none;stroke:#1f77b4;stroke-linecap:square;stroke-width:1.5;"/>
   </g>
   <g id="line2d_27">
    <defs>
     <path d="M 0 1.5 
C 0.397805 1.5 0.77937 1.341951 1.06066 1.06066 
C 1.341951 0.77937 1.5 0.397805 1.5 0 
C 1.5 -0.397805 1.341951 -0.77937 1.06066 -1.06066 
C 0.77937 -1.341951 0.397805 -1.5 0 -1.5 
C -0.397805 -1.5 -0.77937 -1.341951 -1.06066 -1.06066 
C -1.341951 -0.77937 -1.5 -0.397805 -1.5 0 
C -1.5 0.397805 -1.341951 0.77937 -1.06066 1.06066 
C -0.77937 1.341951 -0.397805 1.5 0 1.5 
z
" id="mb8bc26594a" style="stroke:#1f77b4;"/>
    </defs>
    <g clip-path="url(#p47e4b84ee8)">
     <use style="fill:#1f77b4;stroke:#1f77b4;" x="356.337131" xlink:href="#mb8bc26594a" y="227.14953"/>
     <use style="fill:#1f77b4;stroke:#1f77b4;" x="286.304507" xlink:href="#mb8bc26594a" y="269.24361"/>
     <use style="fill:#1f77b4;stroke:#1f77b4;" x="175.921962" xlink:href="#mb8bc26594a" y="281.09769"/>
     <use style="fill:#1f77b4;stroke:#1f77b4;" x="104.961754" xlink:href="#mb8bc26594a" y="283.03305"/>
     <use style="fill:#1f77b4;stroke:#1f77b4;" x="405.035312" xlink:href="#mb8bc26594a" y="43.53225"/>
     <use style="fill:#1f77b4;stroke:#1f77b4;" x="315.755312" xlink:href="#mb8bc26594a" y="250.85769"/>
     <use style="fill:#1f77b4;stroke:#1f77b4;" x="272.390741" xlink:href="#mb8bc26594a" y="271.90473"/>
     <use style="fill:#1f77b4;stroke:#1f77b4;" x="251.056299" xlink:href="#mb8bc26594a" y="264.88905"/>
     <use style="fill:#1f77b4;stroke:#1f77b4;" x="239.229598" xlink:href="#mb8bc26594a" y="273.59817"/>
     <use style="fill:#1f77b4;stroke:#1f77b4;" x="245.027001" xlink:href="#mb8bc26594a" y="270.21129"/>
     <use style="fill:#1f77b4;stroke:#1f77b4;" x="254.302845" xlink:href="#mb8bc26594a" y="261.26025"/>
     <use style="fill:#1f77b4;stroke:#1f77b4;" x="266.825234" xlink:href="#mb8bc26594a" y="276.98505"/>
    </g>
   </g>
   <g id="patch_3">
    <path d="M 75.73125 297.54825 
L 75.73125 31.43625 
" style="fill:none;stroke:#000000;stroke-linecap:square;stroke-linejoin:miter;stroke-width:0.8;"/>
   </g>
   <g id="patch_4">
    <path d="M 432.85125 297.54825 
L 432.85125 31.43625 
" style="fill:none;stroke:#000000;stroke-linecap:square;stroke-linejoin:miter;stroke-width:0.8;"/>
   </g>
   <g id="patch_5">
    <path d="M 75.73125 297.54825 
L 432.85125 297.54825 
" style="fill:none;stroke:#000000;stroke-linecap:square;stroke-linejoin:miter;stroke-width:0.8;"/>
   </g>
   <g id="patch_6">
    <path d="M 75.73125 31.43625 
L 432.85125 31.43625 
" style="fill:none;stroke:#000000;stroke-linecap:square;stroke-linejoin:miter;stroke-width:0.8;"/>
   </g>
   <g id="text_15">
    <!-- $f_{Raman}=f_{Raman0}-\dfrac{a}{f_{PA}-696.5 \mathrm{GHz}}$ -->
    <defs>
     <path d="M 47.796875 75.984375 
L 46.390625 68.5 
L 37.796875 68.5 
Q 32.90625 68.5 30.6875 66.578125 
Q 28.46875 64.65625 27.390625 59.515625 
L 26.421875 54.6875 
L 41.21875 54.6875 
L 39.890625 47.703125 
L 25.09375 47.703125 
L 15.828125 0 
L 6.78125 0 
L 16.109375 47.703125 
L 7.515625 47.703125 
L 8.796875 54.6875 
L 17.390625 54.6875 
L 18.109375 58.5 
Q 19.96875 68.171875 24.625 72.078125 
Q 29.296875 75.984375 39.3125 75.984375 
z
" id="DejaVuSans-Oblique-102"/>
     <path d="M 25.203125 64.796875 
L 20.21875 38.921875 
L 32.90625 38.921875 
Q 40.375 38.921875 44.984375 43.046875 
Q 49.609375 47.171875 49.609375 53.8125 
Q 49.609375 59.125 46.5 61.953125 
Q 43.40625 64.796875 37.59375 64.796875 
z
M 43.3125 35.015625 
Q 46.4375 34.28125 48.515625 31.390625 
Q 50.59375 28.515625 53.328125 19.921875 
L 59.515625 0 
L 49.125 0 
L 43.40625 18.703125 
Q 41.21875 25.921875 38.328125 28.359375 
Q 35.453125 30.8125 29.5 30.8125 
L 18.609375 30.8125 
L 12.59375 0 
L 2.6875 0 
L 16.890625 72.90625 
L 39.109375 72.90625 
Q 49.21875 72.90625 54.609375 68.328125 
Q 60.015625 63.765625 60.015625 55.171875 
Q 60.015625 47.5625 55.421875 41.984375 
Q 50.828125 36.421875 43.3125 35.015625 
z
" id="DejaVuSans-Oblique-82"/>
     <path d="M 53.71875 31.203125 
L 47.609375 0 
L 38.625 0 
L 40.28125 8.296875 
Q 36.328125 3.421875 31.265625 1 
Q 26.21875 -1.421875 20.015625 -1.421875 
Q 13.03125 -1.421875 8.5625 2.84375 
Q 4.109375 7.125 4.109375 13.8125 
Q 4.109375 23.390625 11.75 28.953125 
Q 19.390625 34.515625 32.8125 34.515625 
L 45.3125 34.515625 
L 45.796875 36.921875 
Q 45.90625 37.3125 45.953125 37.765625 
Q 46 38.234375 46 39.203125 
Q 46 43.5625 42.453125 45.96875 
Q 38.921875 48.390625 32.515625 48.390625 
Q 28.125 48.390625 23.5 47.265625 
Q 18.890625 46.140625 14.015625 43.890625 
L 15.578125 52.203125 
Q 20.65625 54.109375 25.515625 55.046875 
Q 30.375 56 34.90625 56 
Q 44.578125 56 49.625 51.796875 
Q 54.6875 47.609375 54.6875 39.59375 
Q 54.6875 37.984375 54.4375 35.8125 
Q 54.203125 33.640625 53.71875 31.203125 
z
M 44 27.484375 
L 35.015625 27.484375 
Q 23.96875 27.484375 18.671875 24.53125 
Q 13.375 21.578125 13.375 15.375 
Q 13.375 11.078125 16.078125 8.640625 
Q 18.796875 6.203125 23.578125 6.203125 
Q 30.90625 6.203125 36.375 11.453125 
Q 41.84375 16.703125 43.609375 25.484375 
z
" id="DejaVuSans-Oblique-97"/>
     <path d="M 89.796875 33.015625 
L 83.40625 0 
L 74.421875 0 
L 80.71875 32.71875 
Q 81.109375 34.8125 81.296875 36.328125 
Q 81.5 37.84375 81.5 38.921875 
Q 81.5 43.3125 79.046875 45.75 
Q 76.609375 48.1875 72.21875 48.1875 
Q 65.671875 48.1875 60.546875 43.28125 
Q 55.421875 38.375 53.90625 30.515625 
L 47.90625 0 
L 38.921875 0 
L 45.3125 32.71875 
Q 45.703125 34.515625 45.890625 36.046875 
Q 46.09375 37.59375 46.09375 38.8125 
Q 46.09375 43.265625 43.65625 45.71875 
Q 41.21875 48.1875 36.921875 48.1875 
Q 30.28125 48.1875 25.140625 43.28125 
Q 20.015625 38.375 18.5 30.515625 
L 12.5 0 
L 3.515625 0 
L 14.203125 54.6875 
L 23.1875 54.6875 
L 21.484375 46.1875 
Q 25.140625 50.984375 30.046875 53.484375 
Q 34.96875 56 40.578125 56 
Q 46.53125 56 50.359375 52.875 
Q 54.203125 49.75 54.984375 44.1875 
Q 59.078125 49.953125 64.46875 52.96875 
Q 69.875 56 75.875 56 
Q 82.90625 56 86.734375 51.953125 
Q 90.578125 47.90625 90.578125 40.484375 
Q 90.578125 38.875 90.375 36.9375 
Q 90.1875 35.015625 89.796875 33.015625 
z
" id="DejaVuSans-Oblique-109"/>
     <path d="M 55.71875 33.015625 
L 49.3125 0 
L 40.28125 0 
L 46.6875 32.671875 
Q 47.125 34.96875 47.359375 36.71875 
Q 47.609375 38.484375 47.609375 39.5 
Q 47.609375 43.609375 45.015625 45.890625 
Q 42.4375 48.1875 37.796875 48.1875 
Q 30.5625 48.1875 25.34375 43.375 
Q 20.125 38.578125 18.5 30.328125 
L 12.5 0 
L 3.515625 0 
L 14.109375 54.6875 
L 23.09375 54.6875 
L 21.296875 46.09375 
Q 25.046875 50.828125 30.3125 53.40625 
Q 35.59375 56 41.40625 56 
Q 48.640625 56 52.609375 52.09375 
Q 56.59375 48.1875 56.59375 41.109375 
Q 56.59375 39.359375 56.375 37.359375 
Q 56.15625 35.359375 55.71875 33.015625 
z
" id="DejaVuSans-Oblique-110"/>
     <path d="M 10.59375 45.40625 
L 73.1875 45.40625 
L 73.1875 37.203125 
L 10.59375 37.203125 
z
M 10.59375 25.484375 
L 73.1875 25.484375 
L 73.1875 17.1875 
L 10.59375 17.1875 
z
" id="DejaVuSans-61"/>
     <path d="M 16.890625 72.90625 
L 39.703125 72.90625 
Q 49.65625 72.90625 54.875 68.265625 
Q 60.109375 63.625 60.109375 54.6875 
Q 60.109375 42.671875 52.390625 35.984375 
Q 44.671875 29.296875 30.71875 29.296875 
L 18.3125 29.296875 
L 12.59375 0 
L 2.6875 0 
z
M 25.203125 64.796875 
L 19.921875 37.40625 
L 32.328125 37.40625 
Q 40.71875 37.40625 45.203125 41.703125 
Q 49.703125 46 49.703125 54 
Q 49.703125 59.125 46.65625 61.953125 
Q 43.609375 64.796875 38.09375 64.796875 
z
" id="DejaVuSans-Oblique-80"/>
     <path d="M 36.8125 72.90625 
L 48 72.90625 
L 61.53125 0 
L 51.21875 0 
L 48.1875 18.703125 
L 15.375 18.703125 
L 5.078125 0 
L -5.328125 0 
z
M 40.375 63.1875 
L 19.921875 26.90625 
L 46.6875 26.90625 
z
" id="DejaVuSans-Oblique-65"/>
     <path d="M 10.6875 12.40625 
L 21 12.40625 
L 21 0 
L 10.6875 0 
z
" id="DejaVuSans-46"/>
    </defs>
    <g transform="translate(103.558782 64.62801)scale(0.1666 -0.1666)">
     <use transform="translate(0 0.78125)" xlink:href="#DejaVuSans-Oblique-102"/>
     <use transform="translate(35.205078 -15.625)scale(0.7)" xlink:href="#DejaVuSans-Oblique-82"/>
     <use transform="translate(83.842773 -15.625)scale(0.7)" xlink:href="#DejaVuSans-Oblique-97"/>
     <use transform="translate(126.738281 -15.625)scale(0.7)" xlink:href="#DejaVuSans-Oblique-109"/>
     <use transform="translate(194.926758 -15.625)scale(0.7)" xlink:href="#DejaVuSans-Oblique-97"/>
     <use transform="translate(237.822266 -15.625)scale(0.7)" xlink:href="#DejaVuSans-Oblique-110"/>
     <use transform="translate(304.404297 0.78125)" xlink:href="#DejaVuSans-61"/>
     <use transform="translate(407.675781 0.78125)" xlink:href="#DejaVuSans-Oblique-102"/>
     <use transform="translate(442.880859 -15.625)scale(0.7)" xlink:href="#DejaVuSans-Oblique-82"/>
     <use transform="translate(491.518555 -15.625)scale(0.7)" xlink:href="#DejaVuSans-Oblique-97"/>
     <use transform="translate(534.414062 -15.625)scale(0.7)" xlink:href="#DejaVuSans-Oblique-109"/>
     <use transform="translate(602.602539 -15.625)scale(0.7)" xlink:href="#DejaVuSans-Oblique-97"/>
     <use transform="translate(645.498047 -15.625)scale(0.7)" xlink:href="#DejaVuSans-Oblique-110"/>
     <use transform="translate(689.863281 -15.625)scale(0.7)" xlink:href="#DejaVuSans-48"/>
     <use transform="translate(756.616211 0.78125)" xlink:href="#DejaVuSans-8722"/>
     <use transform="translate(1199.887695 46)" xlink:href="#DejaVuSans-Oblique-97"/>
     <use transform="translate(859.887695 -62.65625)" xlink:href="#DejaVuSans-Oblique-102"/>
     <use transform="translate(895.092773 -79.0625)scale(0.7)" xlink:href="#DejaVuSans-Oblique-80"/>
     <use transform="translate(937.304688 -79.0625)scale(0.7)" xlink:href="#DejaVuSans-Oblique-65"/>
     <use transform="translate(1007.407227 -62.65625)" xlink:href="#DejaVuSans-8722"/>
     <use transform="translate(1110.678711 -62.65625)" xlink:href="#DejaVuSans-54"/>
     <use transform="translate(1174.301758 -62.65625)" xlink:href="#DejaVuSans-57"/>
     <use transform="translate(1237.924805 -62.65625)" xlink:href="#DejaVuSans-54"/>
     <use transform="translate(1301.547852 -62.65625)" xlink:href="#DejaVuSans-46"/>
     <use transform="translate(1333.334961 -62.65625)" xlink:href="#DejaVuSans-53"/>
     <use transform="translate(1396.958008 -62.65625)" xlink:href="#DejaVuSans-71"/>
     <use transform="translate(1474.448242 -62.65625)" xlink:href="#DejaVuSans-72"/>
     <use transform="translate(1549.643555 -62.65625)" xlink:href="#DejaVuSans-122"/>
     <path d="M 859.887695 19.578125 
L 859.887695 25.828125 
L 1602.133789 25.828125 
L 1602.133789 19.578125 
L 859.887695 19.578125 
z
"/>
    </g>
    <!--    $\ \ -\dfrac{b}{f_{PA} - f_{PA0}'}$ -->
    <defs>
     <path d="M 49.515625 33.40625 
Q 49.515625 40.484375 46.265625 44.484375 
Q 43.015625 48.484375 37.3125 48.484375 
Q 33.15625 48.484375 29.515625 46.453125 
Q 25.875 44.4375 23.1875 40.578125 
Q 20.359375 36.53125 18.71875 31.171875 
Q 17.09375 25.828125 17.09375 20.515625 
Q 17.09375 13.765625 20.28125 9.9375 
Q 23.484375 6.109375 29.109375 6.109375 
Q 33.34375 6.109375 36.953125 8.078125 
Q 40.578125 10.0625 43.3125 13.921875 
Q 46.09375 17.921875 47.796875 23.234375 
Q 49.515625 28.5625 49.515625 33.40625 
z
M 21.578125 46.390625 
Q 24.90625 50.875 29.90625 53.4375 
Q 34.90625 56 40.375 56 
Q 48.78125 56 53.734375 50.328125 
Q 58.6875 44.671875 58.6875 35.015625 
Q 58.6875 27.09375 55.78125 19.671875 
Q 52.875 12.25 47.515625 6.5 
Q 44 2.6875 39.40625 0.625 
Q 34.8125 -1.421875 29.78125 -1.421875 
Q 24.46875 -1.421875 20.5625 1.015625 
Q 16.65625 3.46875 14.203125 8.296875 
L 12.59375 0 
L 3.609375 0 
L 18.40625 75.984375 
L 27.390625 75.984375 
z
" id="DejaVuSans-Oblique-98"/>
     <path d="M 3.515625 5.421875 
Q 2.875 5.609375 2.875 6.390625 
L 15.09375 51.8125 
Q 15.671875 53.65625 17.078125 54.78125 
Q 18.5 55.90625 20.3125 55.90625 
Q 22.65625 55.90625 24.4375 54.359375 
Q 26.21875 52.828125 26.21875 50.484375 
Q 26.21875 49.46875 25.6875 48.1875 
L 7.625 4.984375 
Q 7.28125 4.296875 6.6875 4.296875 
Q 6.15625 4.296875 5 4.78125 
Q 3.859375 5.28125 3.515625 5.421875 
z
" id="Cmsy10-48"/>
    </defs>
    <g transform="translate(103.558782 102.34625)scale(0.1666 -0.1666)">
     <use transform="translate(0 0.796875)" xlink:href="#DejaVuSans-32"/>
     <use transform="translate(31.787109 0.796875)" xlink:href="#DejaVuSans-32"/>
     <use transform="translate(63.574219 0.796875)" xlink:href="#DejaVuSans-32"/>
     <use transform="translate(179.784507 0.796875)" xlink:href="#DejaVuSans-8722"/>
     <use transform="translate(463.055991 46.015625)" xlink:href="#DejaVuSans-Oblique-98"/>
     <use transform="translate(283.055991 -64.071875)" xlink:href="#DejaVuSans-Oblique-102"/>
     <use transform="translate(318.261069 -80.478125)scale(0.7)" xlink:href="#DejaVuSans-Oblique-80"/>
     <use transform="translate(360.472983 -80.478125)scale(0.7)" xlink:href="#DejaVuSans-Oblique-65"/>
     <use transform="translate(430.575522 -64.071875)" xlink:href="#DejaVuSans-8722"/>
     <use transform="translate(533.847007 -64.071875)" xlink:href="#DejaVuSans-Oblique-102"/>
     <use transform="translate(576.499793 -25.790625)scale(0.7)" xlink:href="#Cmsy10-48"/>
     <use transform="translate(569.052085 -91.415625)scale(0.7)" xlink:href="#DejaVuSans-Oblique-80"/>
     <use transform="translate(611.263999 -91.415625)scale(0.7)" xlink:href="#DejaVuSans-Oblique-65"/>
     <use transform="translate(659.149741 -91.415625)scale(0.7)" xlink:href="#DejaVuSans-48"/>
     <path d="M 283.055991 19.59375 
L 283.055991 25.84375 
L 706.420249 25.84375 
L 706.420249 19.59375 
L 283.055991 19.59375 
z
"/>
    </g>
   </g>
   <g id="text_16">
    <!-- $f_{Raman0}=297.8675(93) \mathrm{MHz}$ -->
    <defs>
     <path d="M 31 75.875 
Q 24.46875 64.65625 21.28125 53.65625 
Q 18.109375 42.671875 18.109375 31.390625 
Q 18.109375 20.125 21.3125 9.0625 
Q 24.515625 -2 31 -13.1875 
L 23.1875 -13.1875 
Q 15.875 -1.703125 12.234375 9.375 
Q 8.59375 20.453125 8.59375 31.390625 
Q 8.59375 42.28125 12.203125 53.3125 
Q 15.828125 64.359375 23.1875 75.875 
z
" id="DejaVuSans-40"/>
     <path d="M 40.578125 39.3125 
Q 47.65625 37.796875 51.625 33 
Q 55.609375 28.21875 55.609375 21.1875 
Q 55.609375 10.40625 48.1875 4.484375 
Q 40.765625 -1.421875 27.09375 -1.421875 
Q 22.515625 -1.421875 17.65625 -0.515625 
Q 12.796875 0.390625 7.625 2.203125 
L 7.625 11.71875 
Q 11.71875 9.328125 16.59375 8.109375 
Q 21.484375 6.890625 26.8125 6.890625 
Q 36.078125 6.890625 40.9375 10.546875 
Q 45.796875 14.203125 45.796875 21.1875 
Q 45.796875 27.640625 41.28125 31.265625 
Q 36.765625 34.90625 28.71875 34.90625 
L 20.21875 34.90625 
L 20.21875 43.015625 
L 29.109375 43.015625 
Q 36.375 43.015625 40.234375 45.921875 
Q 44.09375 48.828125 44.09375 54.296875 
Q 44.09375 59.90625 40.109375 62.90625 
Q 36.140625 65.921875 28.71875 65.921875 
Q 24.65625 65.921875 20.015625 65.03125 
Q 15.375 64.15625 9.8125 62.3125 
L 9.8125 71.09375 
Q 15.4375 72.65625 20.34375 73.4375 
Q 25.25 74.21875 29.59375 74.21875 
Q 40.828125 74.21875 47.359375 69.109375 
Q 53.90625 64.015625 53.90625 55.328125 
Q 53.90625 49.265625 50.4375 45.09375 
Q 46.96875 40.921875 40.578125 39.3125 
z
" id="DejaVuSans-51"/>
     <path d="M 8.015625 75.875 
L 15.828125 75.875 
Q 23.140625 64.359375 26.78125 53.3125 
Q 30.421875 42.28125 30.421875 31.390625 
Q 30.421875 20.453125 26.78125 9.375 
Q 23.140625 -1.703125 15.828125 -13.1875 
L 8.015625 -13.1875 
Q 14.5 -2 17.703125 9.0625 
Q 20.90625 20.125 20.90625 31.390625 
Q 20.90625 42.671875 17.703125 53.65625 
Q 14.5 64.65625 8.015625 75.875 
z
" id="DejaVuSans-41"/>
     <path d="M 9.8125 72.90625 
L 24.515625 72.90625 
L 43.109375 23.296875 
L 61.8125 72.90625 
L 76.515625 72.90625 
L 76.515625 0 
L 66.890625 0 
L 66.890625 64.015625 
L 48.09375 14.015625 
L 38.1875 14.015625 
L 19.390625 64.015625 
L 19.390625 0 
L 9.8125 0 
z
" id="DejaVuSans-77"/>
    </defs>
    <g transform="translate(115.153588 143.043979)scale(0.1666 -0.1666)">
     <use transform="translate(0 0.015625)" xlink:href="#DejaVuSans-Oblique-102"/>
     <use transform="translate(35.205078 -16.390625)scale(0.7)" xlink:href="#DejaVuSans-Oblique-82"/>
     <use transform="translate(83.842773 -16.390625)scale(0.7)" xlink:href="#DejaVuSans-Oblique-97"/>
     <use transform="translate(126.738281 -16.390625)scale(0.7)" xlink:href="#DejaVuSans-Oblique-109"/>
     <use transform="translate(194.926758 -16.390625)scale(0.7)" xlink:href="#DejaVuSans-Oblique-97"/>
     <use transform="translate(237.822266 -16.390625)scale(0.7)" xlink:href="#DejaVuSans-Oblique-110"/>
     <use transform="translate(282.1875 -16.390625)scale(0.7)" xlink:href="#DejaVuSans-48"/>
     <use transform="translate(348.94043 0.015625)" xlink:href="#DejaVuSans-61"/>
     <use transform="translate(452.211914 0.015625)" xlink:href="#DejaVuSans-50"/>
     <use transform="translate(515.819336 0.015625)" xlink:href="#DejaVuSans-57"/>
     <use transform="translate(579.442383 0.015625)" xlink:href="#DejaVuSans-55"/>
     <use transform="translate(643.06543 0.015625)" xlink:href="#DejaVuSans-46"/>
     <use transform="translate(674.821289 0.015625)" xlink:href="#DejaVuSans-56"/>
     <use transform="translate(738.444336 0.015625)" xlink:href="#DejaVuSans-54"/>
     <use transform="translate(802.067383 0.015625)" xlink:href="#DejaVuSans-55"/>
     <use transform="translate(865.69043 0.015625)" xlink:href="#DejaVuSans-53"/>
     <use transform="translate(929.313477 0.015625)" xlink:href="#DejaVuSans-40"/>
     <use transform="translate(968.327148 0.015625)" xlink:href="#DejaVuSans-57"/>
     <use transform="translate(1031.950195 0.015625)" xlink:href="#DejaVuSans-51"/>
     <use transform="translate(1095.573242 0.015625)" xlink:href="#DejaVuSans-41"/>
     <use transform="translate(1134.586914 0.015625)" xlink:href="#DejaVuSans-77"/>
     <use transform="translate(1220.866211 0.015625)" xlink:href="#DejaVuSans-72"/>
     <use transform="translate(1296.061523 0.015625)" xlink:href="#DejaVuSans-122"/>
    </g>
    <!-- $a=104.2(23) \mathrm{MHz\cdot GHz}$ -->
    <defs>
     <path d="M 10.6875 40.921875 
L 21 40.921875 
L 21 28.515625 
L 10.6875 28.515625 
z
" id="DejaVuSans-8901"/>
    </defs>
    <g transform="translate(115.153588 161.699534)scale(0.1666 -0.1666)">
     <use transform="translate(0 0.125)" xlink:href="#DejaVuSans-Oblique-97"/>
     <use transform="translate(80.761719 0.125)" xlink:href="#DejaVuSans-61"/>
     <use transform="translate(184.033203 0.125)" xlink:href="#DejaVuSans-49"/>
     <use transform="translate(247.65625 0.125)" xlink:href="#DejaVuSans-48"/>
     <use transform="translate(311.279297 0.125)" xlink:href="#DejaVuSans-52"/>
     <use transform="translate(374.902344 0.125)" xlink:href="#DejaVuSans-46"/>
     <use transform="translate(406.611328 0.125)" xlink:href="#DejaVuSans-50"/>
     <use transform="translate(470.234375 0.125)" xlink:href="#DejaVuSans-40"/>
     <use transform="translate(509.248047 0.125)" xlink:href="#DejaVuSans-50"/>
     <use transform="translate(572.871094 0.125)" xlink:href="#DejaVuSans-51"/>
     <use transform="translate(636.494141 0.125)" xlink:href="#DejaVuSans-41"/>
     <use transform="translate(675.507812 0.125)" xlink:href="#DejaVuSans-77"/>
     <use transform="translate(761.787109 0.125)" xlink:href="#DejaVuSans-72"/>
     <use transform="translate(836.982422 0.125)" xlink:href="#DejaVuSans-122"/>
     <use transform="translate(908.955078 0.125)" xlink:href="#DejaVuSans-8901"/>
     <use transform="translate(960.224609 0.125)" xlink:href="#DejaVuSans-71"/>
     <use transform="translate(1037.714844 0.125)" xlink:href="#DejaVuSans-72"/>
     <use transform="translate(1112.910156 0.125)" xlink:href="#DejaVuSans-122"/>
    </g>
    <!-- $f_{PA0}'=-26(11) \mathrm{GHz}$ -->
    <g transform="translate(115.153588 180.758054)scale(0.1666 -0.1666)">
     <use transform="translate(0 0.584375)" xlink:href="#DejaVuSans-Oblique-102"/>
     <use transform="translate(42.652786 38.865625)scale(0.7)" xlink:href="#Cmsy10-48"/>
     <use transform="translate(35.205078 -26.759375)scale(0.7)" xlink:href="#DejaVuSans-Oblique-80"/>
     <use transform="translate(77.416992 -26.759375)scale(0.7)" xlink:href="#DejaVuSans-Oblique-65"/>
     <use transform="translate(125.302734 -26.759375)scale(0.7)" xlink:href="#DejaVuSans-48"/>
     <use transform="translate(192.055664 0.584375)" xlink:href="#DejaVuSans-61"/>
     <use transform="translate(314.80957 0.584375)" xlink:href="#DejaVuSans-8722"/>
     <use transform="translate(418.081055 0.584375)" xlink:href="#DejaVuSans-50"/>
     <use transform="translate(481.704102 0.584375)" xlink:href="#DejaVuSans-54"/>
     <use transform="translate(545.327148 0.584375)" xlink:href="#DejaVuSans-40"/>
     <use transform="translate(584.34082 0.584375)" xlink:href="#DejaVuSans-49"/>
     <use transform="translate(647.963867 0.584375)" xlink:href="#DejaVuSans-49"/>
     <use transform="translate(711.586914 0.584375)" xlink:href="#DejaVuSans-41"/>
     <use transform="translate(750.600586 0.584375)" xlink:href="#DejaVuSans-71"/>
     <use transform="translate(828.09082 0.584375)" xlink:href="#DejaVuSans-72"/>
     <use transform="translate(903.286133 0.584375)" xlink:href="#DejaVuSans-122"/>
    </g>
    <!-- $b=1.02(32) \mathrm{MHz\cdot GHz}$ -->
    <g transform="translate(115.153588 200.78025)scale(0.1666 -0.1666)">
     <use transform="translate(0 0.015625)" xlink:href="#DejaVuSans-Oblique-98"/>
     <use transform="translate(82.958984 0.015625)" xlink:href="#DejaVuSans-61"/>
     <use transform="translate(186.230469 0.015625)" xlink:href="#DejaVuSans-49"/>
     <use transform="translate(249.853516 0.015625)" xlink:href="#DejaVuSans-46"/>
     <use transform="translate(281.640625 0.015625)" xlink:href="#DejaVuSans-48"/>
     <use transform="translate(345.263672 0.015625)" xlink:href="#DejaVuSans-50"/>
     <use transform="translate(408.886719 0.015625)" xlink:href="#DejaVuSans-40"/>
     <use transform="translate(447.900391 0.015625)" xlink:href="#DejaVuSans-51"/>
     <use transform="translate(511.523438 0.015625)" xlink:href="#DejaVuSans-50"/>
     <use transform="translate(575.146484 0.015625)" xlink:href="#DejaVuSans-41"/>
     <use transform="translate(614.160156 0.015625)" xlink:href="#DejaVuSans-77"/>
     <use transform="translate(700.439453 0.015625)" xlink:href="#DejaVuSans-72"/>
     <use transform="translate(775.634766 0.015625)" xlink:href="#DejaVuSans-122"/>
     <use transform="translate(847.607422 0.015625)" xlink:href="#DejaVuSans-8901"/>
     <use transform="translate(898.876953 0.015625)" xlink:href="#DejaVuSans-71"/>
     <use transform="translate(976.367188 0.015625)" xlink:href="#DejaVuSans-72"/>
     <use transform="translate(1051.5625 0.015625)" xlink:href="#DejaVuSans-122"/>
    </g>
   </g>
   <g id="text_17">
    <!-- Raman light shift (10 mW) -->
    <defs>
     <path d="M 44.390625 34.1875 
Q 47.5625 33.109375 50.5625 29.59375 
Q 53.5625 26.078125 56.59375 19.921875 
L 66.609375 0 
L 56 0 
L 46.6875 18.703125 
Q 43.0625 26.03125 39.671875 28.421875 
Q 36.28125 30.8125 30.421875 30.8125 
L 19.671875 30.8125 
L 19.671875 0 
L 9.8125 0 
L 9.8125 72.90625 
L 32.078125 72.90625 
Q 44.578125 72.90625 50.734375 67.671875 
Q 56.890625 62.453125 56.890625 51.90625 
Q 56.890625 45.015625 53.6875 40.46875 
Q 50.484375 35.9375 44.390625 34.1875 
z
M 19.671875 64.796875 
L 19.671875 38.921875 
L 32.078125 38.921875 
Q 39.203125 38.921875 42.84375 42.21875 
Q 46.484375 45.515625 46.484375 51.90625 
Q 46.484375 58.296875 42.84375 61.546875 
Q 39.203125 64.796875 32.078125 64.796875 
z
" id="DejaVuSans-82"/>
     <path d="M 34.28125 27.484375 
Q 23.390625 27.484375 19.1875 25 
Q 14.984375 22.515625 14.984375 16.5 
Q 14.984375 11.71875 18.140625 8.90625 
Q 21.296875 6.109375 26.703125 6.109375 
Q 34.1875 6.109375 38.703125 11.40625 
Q 43.21875 16.703125 43.21875 25.484375 
L 43.21875 27.484375 
z
M 52.203125 31.203125 
L 52.203125 0 
L 43.21875 0 
L 43.21875 8.296875 
Q 40.140625 3.328125 35.546875 0.953125 
Q 30.953125 -1.421875 24.3125 -1.421875 
Q 15.921875 -1.421875 10.953125 3.296875 
Q 6 8.015625 6 15.921875 
Q 6 25.140625 12.171875 29.828125 
Q 18.359375 34.515625 30.609375 34.515625 
L 43.21875 34.515625 
L 43.21875 35.40625 
Q 43.21875 41.609375 39.140625 45 
Q 35.0625 48.390625 27.6875 48.390625 
Q 23 48.390625 18.546875 47.265625 
Q 14.109375 46.140625 10.015625 43.890625 
L 10.015625 52.203125 
Q 14.9375 54.109375 19.578125 55.046875 
Q 24.21875 56 28.609375 56 
Q 40.484375 56 46.34375 49.84375 
Q 52.203125 43.703125 52.203125 31.203125 
z
" id="DejaVuSans-97"/>
     <path d="M 52 44.1875 
Q 55.375 50.25 60.0625 53.125 
Q 64.75 56 71.09375 56 
Q 79.640625 56 84.28125 50.015625 
Q 88.921875 44.046875 88.921875 33.015625 
L 88.921875 0 
L 79.890625 0 
L 79.890625 32.71875 
Q 79.890625 40.578125 77.09375 44.375 
Q 74.3125 48.1875 68.609375 48.1875 
Q 61.625 48.1875 57.5625 43.546875 
Q 53.515625 38.921875 53.515625 30.90625 
L 53.515625 0 
L 44.484375 0 
L 44.484375 32.71875 
Q 44.484375 40.625 41.703125 44.40625 
Q 38.921875 48.1875 33.109375 48.1875 
Q 26.21875 48.1875 22.15625 43.53125 
Q 18.109375 38.875 18.109375 30.90625 
L 18.109375 0 
L 9.078125 0 
L 9.078125 54.6875 
L 18.109375 54.6875 
L 18.109375 46.1875 
Q 21.1875 51.21875 25.484375 53.609375 
Q 29.78125 56 35.6875 56 
Q 41.65625 56 45.828125 52.96875 
Q 50 49.953125 52 44.1875 
z
" id="DejaVuSans-109"/>
     <path d="M 54.890625 33.015625 
L 54.890625 0 
L 45.90625 0 
L 45.90625 32.71875 
Q 45.90625 40.484375 42.875 44.328125 
Q 39.84375 48.1875 33.796875 48.1875 
Q 26.515625 48.1875 22.3125 43.546875 
Q 18.109375 38.921875 18.109375 30.90625 
L 18.109375 0 
L 9.078125 0 
L 9.078125 54.6875 
L 18.109375 54.6875 
L 18.109375 46.1875 
Q 21.34375 51.125 25.703125 53.5625 
Q 30.078125 56 35.796875 56 
Q 45.21875 56 50.046875 50.171875 
Q 54.890625 44.34375 54.890625 33.015625 
z
" id="DejaVuSans-110"/>
     <path d="M 9.421875 75.984375 
L 18.40625 75.984375 
L 18.40625 0 
L 9.421875 0 
z
" id="DejaVuSans-108"/>
     <path d="M 9.421875 54.6875 
L 18.40625 54.6875 
L 18.40625 0 
L 9.421875 0 
z
M 9.421875 75.984375 
L 18.40625 75.984375 
L 18.40625 64.59375 
L 9.421875 64.59375 
z
" id="DejaVuSans-105"/>
     <path d="M 45.40625 27.984375 
Q 45.40625 37.75 41.375 43.109375 
Q 37.359375 48.484375 30.078125 48.484375 
Q 22.859375 48.484375 18.828125 43.109375 
Q 14.796875 37.75 14.796875 27.984375 
Q 14.796875 18.265625 18.828125 12.890625 
Q 22.859375 7.515625 30.078125 7.515625 
Q 37.359375 7.515625 41.375 12.890625 
Q 45.40625 18.265625 45.40625 27.984375 
z
M 54.390625 6.78125 
Q 54.390625 -7.171875 48.1875 -13.984375 
Q 42 -20.796875 29.203125 -20.796875 
Q 24.46875 -20.796875 20.265625 -20.09375 
Q 16.0625 -19.390625 12.109375 -17.921875 
L 12.109375 -9.1875 
Q 16.0625 -11.328125 19.921875 -12.34375 
Q 23.78125 -13.375 27.78125 -13.375 
Q 36.625 -13.375 41.015625 -8.765625 
Q 45.40625 -4.15625 45.40625 5.171875 
L 45.40625 9.625 
Q 42.625 4.78125 38.28125 2.390625 
Q 33.9375 0 27.875 0 
Q 17.828125 0 11.671875 7.65625 
Q 5.515625 15.328125 5.515625 27.984375 
Q 5.515625 40.671875 11.671875 48.328125 
Q 17.828125 56 27.875 56 
Q 33.9375 56 38.28125 53.609375 
Q 42.625 51.21875 45.40625 46.390625 
L 45.40625 54.6875 
L 54.390625 54.6875 
z
" id="DejaVuSans-103"/>
     <path d="M 54.890625 33.015625 
L 54.890625 0 
L 45.90625 0 
L 45.90625 32.71875 
Q 45.90625 40.484375 42.875 44.328125 
Q 39.84375 48.1875 33.796875 48.1875 
Q 26.515625 48.1875 22.3125 43.546875 
Q 18.109375 38.921875 18.109375 30.90625 
L 18.109375 0 
L 9.078125 0 
L 9.078125 75.984375 
L 18.109375 75.984375 
L 18.109375 46.1875 
Q 21.34375 51.125 25.703125 53.5625 
Q 30.078125 56 35.796875 56 
Q 45.21875 56 50.046875 50.171875 
Q 54.890625 44.34375 54.890625 33.015625 
z
" id="DejaVuSans-104"/>
     <path d="M 18.3125 70.21875 
L 18.3125 54.6875 
L 36.8125 54.6875 
L 36.8125 47.703125 
L 18.3125 47.703125 
L 18.3125 18.015625 
Q 18.3125 11.328125 20.140625 9.421875 
Q 21.96875 7.515625 27.59375 7.515625 
L 36.8125 7.515625 
L 36.8125 0 
L 27.59375 0 
Q 17.1875 0 13.234375 3.875 
Q 9.28125 7.765625 9.28125 18.015625 
L 9.28125 47.703125 
L 2.6875 47.703125 
L 2.6875 54.6875 
L 9.28125 54.6875 
L 9.28125 70.21875 
z
" id="DejaVuSans-116"/>
     <path d="M 44.28125 53.078125 
L 44.28125 44.578125 
Q 40.484375 46.53125 36.375 47.5 
Q 32.28125 48.484375 27.875 48.484375 
Q 21.1875 48.484375 17.84375 46.4375 
Q 14.5 44.390625 14.5 40.28125 
Q 14.5 37.15625 16.890625 35.375 
Q 19.28125 33.59375 26.515625 31.984375 
L 29.59375 31.296875 
Q 39.15625 29.25 43.1875 25.515625 
Q 47.21875 21.78125 47.21875 15.09375 
Q 47.21875 7.46875 41.1875 3.015625 
Q 35.15625 -1.421875 24.609375 -1.421875 
Q 20.21875 -1.421875 15.453125 -0.5625 
Q 10.6875 0.296875 5.421875 2 
L 5.421875 11.28125 
Q 10.40625 8.6875 15.234375 7.390625 
Q 20.0625 6.109375 24.8125 6.109375 
Q 31.15625 6.109375 34.5625 8.28125 
Q 37.984375 10.453125 37.984375 14.40625 
Q 37.984375 18.0625 35.515625 20.015625 
Q 33.0625 21.96875 24.703125 23.78125 
L 21.578125 24.515625 
Q 13.234375 26.265625 9.515625 29.90625 
Q 5.8125 33.546875 5.8125 39.890625 
Q 5.8125 47.609375 11.28125 51.796875 
Q 16.75 56 26.8125 56 
Q 31.78125 56 36.171875 55.265625 
Q 40.578125 54.546875 44.28125 53.078125 
z
" id="DejaVuSans-115"/>
     <path d="M 37.109375 75.984375 
L 37.109375 68.5 
L 28.515625 68.5 
Q 23.6875 68.5 21.796875 66.546875 
Q 19.921875 64.59375 19.921875 59.515625 
L 19.921875 54.6875 
L 34.71875 54.6875 
L 34.71875 47.703125 
L 19.921875 47.703125 
L 19.921875 0 
L 10.890625 0 
L 10.890625 47.703125 
L 2.296875 47.703125 
L 2.296875 54.6875 
L 10.890625 54.6875 
L 10.890625 58.5 
Q 10.890625 67.625 15.140625 71.796875 
Q 19.390625 75.984375 28.609375 75.984375 
z
" id="DejaVuSans-102"/>
     <path d="M 3.328125 72.90625 
L 13.28125 72.90625 
L 28.609375 11.28125 
L 43.890625 72.90625 
L 54.984375 72.90625 
L 70.3125 11.28125 
L 85.59375 72.90625 
L 95.609375 72.90625 
L 77.296875 0 
L 64.890625 0 
L 49.515625 63.28125 
L 33.984375 0 
L 21.578125 0 
z
" id="DejaVuSans-87"/>
    </defs>
    <g transform="translate(95.80125 25.43625)scale(0.24 -0.24)">
     <use xlink:href="#DejaVuSans-82"/>
     <use x="69.451172" xlink:href="#DejaVuSans-97"/>
     <use x="130.730469" xlink:href="#DejaVuSans-109"/>
     <use x="228.142578" xlink:href="#DejaVuSans-97"/>
     <use x="289.421875" xlink:href="#DejaVuSans-110"/>
     <use x="352.800781" xlink:href="#DejaVuSans-32"/>
     <use x="384.587891" xlink:href="#DejaVuSans-108"/>
     <use x="412.371094" xlink:href="#DejaVuSans-105"/>
     <use x="440.154297" xlink:href="#DejaVuSans-103"/>
     <use x="503.630859" xlink:href="#DejaVuSans-104"/>
     <use x="567.009766" xlink:href="#DejaVuSans-116"/>
     <use x="606.21875" xlink:href="#DejaVuSans-32"/>
     <use x="638.005859" xlink:href="#DejaVuSans-115"/>
     <use x="690.105469" xlink:href="#DejaVuSans-104"/>
     <use x="753.484375" xlink:href="#DejaVuSans-105"/>
     <use x="781.267578" xlink:href="#DejaVuSans-102"/>
     <use x="816.457031" xlink:href="#DejaVuSans-116"/>
     <use x="855.666016" xlink:href="#DejaVuSans-32"/>
     <use x="887.453125" xlink:href="#DejaVuSans-40"/>
     <use x="926.466797" xlink:href="#DejaVuSans-49"/>
     <use x="990.089844" xlink:href="#DejaVuSans-48"/>
     <use x="1053.712891" xlink:href="#DejaVuSans-32"/>
     <use x="1085.5" xlink:href="#DejaVuSans-109"/>
     <use x="1182.912109" xlink:href="#DejaVuSans-87"/>
     <use x="1281.789062" xlink:href="#DejaVuSans-41"/>
    </g>
   </g>
  </g>
 </g>
 <defs>
  <clipPath id="p47e4b84ee8">
   <rect height="266.112" width="357.12" x="75.73125" y="31.43625"/>
  </clipPath>
 </defs>
</svg>
