<?xml version="1.0" encoding="utf-8" standalone="no"?>
<!DOCTYPE svg PUBLIC "-//W3C//DTD SVG 1.1//EN"
  "http://www.w3.org/Graphics/SVG/1.1/DTD/svg11.dtd">
<!-- Created with matplotlib (http://matplotlib.org/) -->
<svg height="359pt" version="1.1" viewBox="0 0 643 359" width="643pt" xmlns="http://www.w3.org/2000/svg" xmlns:xlink="http://www.w3.org/1999/xlink">
 <defs>
  <style type="text/css">
*{stroke-linecap:butt;stroke-linejoin:round;}
  </style>
 </defs>
 <g id="figure_1">
  <g id="patch_1">
   <path d="M 0 359.299812 
L 643.861156 359.299812 
L 643.861156 0 
L 0 0 
z
" style="fill:none;"/>
  </g>
  <g id="axes_1">
   <g id="patch_2">
    <path d="M 85.685156 297.54825 
L 442.805156 297.54825 
L 442.805156 31.43625 
L 85.685156 31.43625 
z
" style="fill:none;"/>
   </g>
   <g id="matplotlib.axis_1">
    <g id="xtick_1">
     <g id="line2d_1">
      <path clip-path="url(#p146ffe059a)" d="M 85.685156 297.54825 
L 85.685156 31.43625 
" style="fill:none;stroke:#b0b0b0;stroke-linecap:square;stroke-width:0.8;"/>
     </g>
     <g id="line2d_2">
      <defs>
       <path d="M 0 0 
L 0 3.5 
" id="m0ab0e77787" style="stroke:#000000;stroke-width:0.8;"/>
      </defs>
      <g>
       <use style="stroke:#000000;stroke-width:0.8;" x="85.685156" xlink:href="#m0ab0e77787" y="297.54825"/>
      </g>
     </g>
     <g id="text_1">
      <!-- 0 -->
      <defs>
       <path d="M 46 36.53125 
Q 46 50.203125 43.4375 55.78125 
Q 40.875 61.375 34.8125 61.375 
Q 28.765625 61.375 26.171875 55.78125 
Q 23.578125 50.203125 23.578125 36.53125 
Q 23.578125 22.703125 26.171875 17.03125 
Q 28.765625 11.375 34.8125 11.375 
Q 40.828125 11.375 43.40625 17.03125 
Q 46 22.703125 46 36.53125 
z
M 64.796875 36.375 
Q 64.796875 18.265625 56.984375 8.421875 
Q 49.171875 -1.421875 34.8125 -1.421875 
Q 20.40625 -1.421875 12.59375 8.421875 
Q 4.78125 18.265625 4.78125 36.375 
Q 4.78125 54.546875 12.59375 64.375 
Q 20.40625 74.21875 34.8125 74.21875 
Q 49.171875 74.21875 56.984375 64.375 
Q 64.796875 54.546875 64.796875 36.375 
z
" id="DejaVuSans-Bold-30"/>
      </defs>
      <g transform="translate(76.987891 323.544344)scale(0.25 -0.25)">
       <use xlink:href="#DejaVuSans-Bold-30"/>
      </g>
     </g>
    </g>
    <g id="xtick_2">
     <g id="line2d_3">
      <path clip-path="url(#p146ffe059a)" d="M 221.730871 297.54825 
L 221.730871 31.43625 
" style="fill:none;stroke:#b0b0b0;stroke-linecap:square;stroke-width:0.8;"/>
     </g>
     <g id="line2d_4">
      <g>
       <use style="stroke:#000000;stroke-width:0.8;" x="221.730871" xlink:href="#m0ab0e77787" y="297.54825"/>
      </g>
     </g>
     <g id="text_2">
      <!-- 10 -->
      <defs>
       <path d="M 11.71875 12.984375 
L 28.328125 12.984375 
L 28.328125 60.109375 
L 11.28125 56.59375 
L 11.28125 69.390625 
L 28.21875 72.90625 
L 46.09375 72.90625 
L 46.09375 12.984375 
L 62.703125 12.984375 
L 62.703125 0 
L 11.71875 0 
z
" id="DejaVuSans-Bold-31"/>
      </defs>
      <g transform="translate(204.336339 323.544344)scale(0.25 -0.25)">
       <use xlink:href="#DejaVuSans-Bold-31"/>
       <use x="69.580078" xlink:href="#DejaVuSans-Bold-30"/>
      </g>
     </g>
    </g>
    <g id="xtick_3">
     <g id="line2d_5">
      <path clip-path="url(#p146ffe059a)" d="M 357.776585 297.54825 
L 357.776585 31.43625 
" style="fill:none;stroke:#b0b0b0;stroke-linecap:square;stroke-width:0.8;"/>
     </g>
     <g id="line2d_6">
      <g>
       <use style="stroke:#000000;stroke-width:0.8;" x="357.776585" xlink:href="#m0ab0e77787" y="297.54825"/>
      </g>
     </g>
     <g id="text_3">
      <!-- 20 -->
      <defs>
       <path d="M 28.8125 13.8125 
L 60.890625 13.8125 
L 60.890625 0 
L 7.90625 0 
L 7.90625 13.8125 
L 34.515625 37.3125 
Q 38.09375 40.53125 39.796875 43.609375 
Q 41.5 46.6875 41.5 50 
Q 41.5 55.125 38.0625 58.25 
Q 34.625 61.375 28.90625 61.375 
Q 24.515625 61.375 19.28125 59.5 
Q 14.0625 57.625 8.109375 53.90625 
L 8.109375 69.921875 
Q 14.453125 72.015625 20.65625 73.109375 
Q 26.859375 74.21875 32.8125 74.21875 
Q 45.90625 74.21875 53.15625 68.453125 
Q 60.40625 62.703125 60.40625 52.390625 
Q 60.40625 46.4375 57.328125 41.28125 
Q 54.25 36.140625 44.390625 27.484375 
z
" id="DejaVuSans-Bold-32"/>
      </defs>
      <g transform="translate(340.382054 323.544344)scale(0.25 -0.25)">
       <use xlink:href="#DejaVuSans-Bold-32"/>
       <use x="69.580078" xlink:href="#DejaVuSans-Bold-30"/>
      </g>
     </g>
    </g>
    <g id="text_4">
     <!-- n -->
     <defs>
      <path d="M 54.890625 33.015625 
L 54.890625 0 
L 45.90625 0 
L 45.90625 32.71875 
Q 45.90625 40.484375 42.875 44.328125 
Q 39.84375 48.1875 33.796875 48.1875 
Q 26.515625 48.1875 22.3125 43.546875 
Q 18.109375 38.921875 18.109375 30.90625 
L 18.109375 0 
L 9.078125 0 
L 9.078125 54.6875 
L 18.109375 54.6875 
L 18.109375 46.1875 
Q 21.34375 51.125 25.703125 53.5625 
Q 30.078125 56 35.796875 56 
Q 45.21875 56 50.046875 50.171875 
Q 54.890625 44.34375 54.890625 33.015625 
z
" id="DejaVuSans-6e"/>
     </defs>
     <g transform="translate(257.907656 347.940437)scale(0.2 -0.2)">
      <use xlink:href="#DejaVuSans-6e"/>
     </g>
    </g>
   </g>
   <g id="matplotlib.axis_2">
    <g id="ytick_1">
     <g id="line2d_7">
      <path clip-path="url(#p146ffe059a)" d="M 85.685156 297.54825 
L 442.805156 297.54825 
" style="fill:none;stroke:#b0b0b0;stroke-linecap:square;stroke-width:0.8;"/>
     </g>
     <g id="line2d_8">
      <defs>
       <path d="M 0 0 
L -3.5 0 
" id="me911bac58f" style="stroke:#000000;stroke-width:0.8;"/>
      </defs>
      <g>
       <use style="stroke:#000000;stroke-width:0.8;" x="85.685156" xlink:href="#me911bac58f" y="297.54825"/>
      </g>
     </g>
     <g id="text_5">
      <!-- 0.0 -->
      <defs>
       <path d="M 10.203125 18.890625 
L 27.78125 18.890625 
L 27.78125 0 
L 10.203125 0 
z
" id="DejaVuSans-Bold-2e"/>
      </defs>
      <g transform="translate(34.4 307.046297)scale(0.25 -0.25)">
       <use xlink:href="#DejaVuSans-Bold-30"/>
       <use x="69.580078" xlink:href="#DejaVuSans-Bold-2e"/>
       <use x="107.568359" xlink:href="#DejaVuSans-Bold-30"/>
      </g>
     </g>
    </g>
    <g id="ytick_2">
     <g id="line2d_9">
      <path clip-path="url(#p146ffe059a)" d="M 85.685156 244.32585 
L 442.805156 244.32585 
" style="fill:none;stroke:#b0b0b0;stroke-linecap:square;stroke-width:0.8;"/>
     </g>
     <g id="line2d_10">
      <g>
       <use style="stroke:#000000;stroke-width:0.8;" x="85.685156" xlink:href="#me911bac58f" y="244.32585"/>
      </g>
     </g>
     <g id="text_6">
      <!-- 0.2 -->
      <g transform="translate(34.4 253.823897)scale(0.25 -0.25)">
       <use xlink:href="#DejaVuSans-Bold-30"/>
       <use x="69.580078" xlink:href="#DejaVuSans-Bold-2e"/>
       <use x="107.568359" xlink:href="#DejaVuSans-Bold-32"/>
      </g>
     </g>
    </g>
    <g id="ytick_3">
     <g id="line2d_11">
      <path clip-path="url(#p146ffe059a)" d="M 85.685156 191.10345 
L 442.805156 191.10345 
" style="fill:none;stroke:#b0b0b0;stroke-linecap:square;stroke-width:0.8;"/>
     </g>
     <g id="line2d_12">
      <g>
       <use style="stroke:#000000;stroke-width:0.8;" x="85.685156" xlink:href="#me911bac58f" y="191.10345"/>
      </g>
     </g>
     <g id="text_7">
      <!-- 0.4 -->
      <defs>
       <path d="M 36.8125 57.421875 
L 16.21875 26.90625 
L 36.8125 26.90625 
z
M 33.6875 72.90625 
L 54.59375 72.90625 
L 54.59375 26.90625 
L 64.984375 26.90625 
L 64.984375 13.28125 
L 54.59375 13.28125 
L 54.59375 0 
L 36.8125 0 
L 36.8125 13.28125 
L 4.5 13.28125 
L 4.5 29.390625 
z
" id="DejaVuSans-Bold-34"/>
      </defs>
      <g transform="translate(34.4 200.601497)scale(0.25 -0.25)">
       <use xlink:href="#DejaVuSans-Bold-30"/>
       <use x="69.580078" xlink:href="#DejaVuSans-Bold-2e"/>
       <use x="107.568359" xlink:href="#DejaVuSans-Bold-34"/>
      </g>
     </g>
    </g>
    <g id="ytick_4">
     <g id="line2d_13">
      <path clip-path="url(#p146ffe059a)" d="M 85.685156 137.88105 
L 442.805156 137.88105 
" style="fill:none;stroke:#b0b0b0;stroke-linecap:square;stroke-width:0.8;"/>
     </g>
     <g id="line2d_14">
      <g>
       <use style="stroke:#000000;stroke-width:0.8;" x="85.685156" xlink:href="#me911bac58f" y="137.88105"/>
      </g>
     </g>
     <g id="text_8">
      <!-- 0.6 -->
      <defs>
       <path d="M 36.1875 35.984375 
Q 31.25 35.984375 28.78125 32.78125 
Q 26.3125 29.59375 26.3125 23.1875 
Q 26.3125 16.796875 28.78125 13.59375 
Q 31.25 10.40625 36.1875 10.40625 
Q 41.15625 10.40625 43.625 13.59375 
Q 46.09375 16.796875 46.09375 23.1875 
Q 46.09375 29.59375 43.625 32.78125 
Q 41.15625 35.984375 36.1875 35.984375 
z
M 59.421875 71 
L 59.421875 57.515625 
Q 54.78125 59.71875 50.671875 60.765625 
Q 46.578125 61.8125 42.671875 61.8125 
Q 34.28125 61.8125 29.59375 57.140625 
Q 24.90625 52.484375 24.125 43.3125 
Q 27.34375 45.703125 31.09375 46.890625 
Q 34.859375 48.09375 39.3125 48.09375 
Q 50.484375 48.09375 57.34375 41.546875 
Q 64.203125 35.015625 64.203125 24.421875 
Q 64.203125 12.703125 56.53125 5.640625 
Q 48.875 -1.421875 35.984375 -1.421875 
Q 21.78125 -1.421875 13.984375 8.171875 
Q 6.203125 17.78125 6.203125 35.40625 
Q 6.203125 53.46875 15.3125 63.796875 
Q 24.421875 74.125 40.28125 74.125 
Q 45.3125 74.125 50.046875 73.34375 
Q 54.78125 72.5625 59.421875 71 
z
" id="DejaVuSans-Bold-36"/>
      </defs>
      <g transform="translate(34.4 147.379097)scale(0.25 -0.25)">
       <use xlink:href="#DejaVuSans-Bold-30"/>
       <use x="69.580078" xlink:href="#DejaVuSans-Bold-2e"/>
       <use x="107.568359" xlink:href="#DejaVuSans-Bold-36"/>
      </g>
     </g>
    </g>
    <g id="ytick_5">
     <g id="line2d_15">
      <path clip-path="url(#p146ffe059a)" d="M 85.685156 84.65865 
L 442.805156 84.65865 
" style="fill:none;stroke:#b0b0b0;stroke-linecap:square;stroke-width:0.8;"/>
     </g>
     <g id="line2d_16">
      <g>
       <use style="stroke:#000000;stroke-width:0.8;" x="85.685156" xlink:href="#me911bac58f" y="84.65865"/>
      </g>
     </g>
     <g id="text_9">
      <!-- 0.8 -->
      <defs>
       <path d="M 34.8125 32.625 
Q 29.546875 32.625 26.703125 29.734375 
Q 23.875 26.859375 23.875 21.484375 
Q 23.875 16.109375 26.703125 13.25 
Q 29.546875 10.40625 34.8125 10.40625 
Q 40.046875 10.40625 42.828125 13.25 
Q 45.609375 16.109375 45.609375 21.484375 
Q 45.609375 26.90625 42.828125 29.765625 
Q 40.046875 32.625 34.8125 32.625 
z
M 21.09375 38.8125 
Q 14.453125 40.828125 11.078125 44.96875 
Q 7.71875 49.125 7.71875 55.328125 
Q 7.71875 64.546875 14.59375 69.375 
Q 21.484375 74.21875 34.8125 74.21875 
Q 48.046875 74.21875 54.921875 69.40625 
Q 61.8125 64.59375 61.8125 55.328125 
Q 61.8125 49.125 58.421875 44.96875 
Q 55.03125 40.828125 48.390625 38.8125 
Q 55.8125 36.765625 59.59375 32.15625 
Q 63.375 27.546875 63.375 20.515625 
Q 63.375 9.671875 56.171875 4.125 
Q 48.96875 -1.421875 34.8125 -1.421875 
Q 20.609375 -1.421875 13.359375 4.125 
Q 6.109375 9.671875 6.109375 20.515625 
Q 6.109375 27.546875 9.890625 32.15625 
Q 13.671875 36.765625 21.09375 38.8125 
z
M 25.484375 53.421875 
Q 25.484375 49.078125 27.90625 46.734375 
Q 30.328125 44.390625 34.8125 44.390625 
Q 39.203125 44.390625 41.59375 46.734375 
Q 44 49.078125 44 53.421875 
Q 44 57.765625 41.59375 60.078125 
Q 39.203125 62.40625 34.8125 62.40625 
Q 30.328125 62.40625 27.90625 60.0625 
Q 25.484375 57.71875 25.484375 53.421875 
z
" id="DejaVuSans-Bold-38"/>
      </defs>
      <g transform="translate(34.4 94.156697)scale(0.25 -0.25)">
       <use xlink:href="#DejaVuSans-Bold-30"/>
       <use x="69.580078" xlink:href="#DejaVuSans-Bold-2e"/>
       <use x="107.568359" xlink:href="#DejaVuSans-Bold-38"/>
      </g>
     </g>
    </g>
    <g id="ytick_6">
     <g id="line2d_17">
      <path clip-path="url(#p146ffe059a)" d="M 85.685156 31.43625 
L 442.805156 31.43625 
" style="fill:none;stroke:#b0b0b0;stroke-linecap:square;stroke-width:0.8;"/>
     </g>
     <g id="line2d_18">
      <g>
       <use style="stroke:#000000;stroke-width:0.8;" x="85.685156" xlink:href="#me911bac58f" y="31.43625"/>
      </g>
     </g>
     <g id="text_10">
      <!-- 1.0 -->
      <g transform="translate(34.4 40.934297)scale(0.25 -0.25)">
       <use xlink:href="#DejaVuSans-Bold-31"/>
       <use x="69.580078" xlink:href="#DejaVuSans-Bold-2e"/>
       <use x="107.568359" xlink:href="#DejaVuSans-Bold-30"/>
      </g>
     </g>
    </g>
    <g id="text_11">
     <!-- $|\langle n |e^{ikr}| n + \Delta n \rangle|$ -->
     <defs>
      <path d="M 23.78125 76.421875 
L 23.78125 -23.578125 
L 12.703125 -23.578125 
L 12.703125 76.421875 
z
" id="DejaVuSans-Bold-7c"/>
      <path d="M 10.5 31.34375 
L 24.421875 75.875 
L 37.703125 75.875 
L 23.734375 31.34375 
L 37.703125 -13.1875 
L 24.421875 -13.1875 
z
" id="DejaVuSans-Bold-27e8"/>
      <path d="M 64.5 33.296875 
L 58.015625 0 
L 40.484375 0 
L 46 28.515625 
Q 46.578125 31.296875 46.890625 33.21875 
Q 47.21875 35.15625 47.21875 36.28125 
Q 47.21875 39.40625 45.484375 41.109375 
Q 43.75 42.828125 40.578125 42.828125 
Q 35.15625 42.828125 31.265625 38.59375 
Q 27.390625 34.375 25.875 26.90625 
L 20.609375 0 
L 3.078125 0 
L 13.71875 54.6875 
L 31.296875 54.6875 
L 29.6875 46.6875 
Q 34.515625 51.421875 39.390625 53.703125 
Q 44.28125 56 49.609375 56 
Q 57.171875 56 61.265625 52.046875 
Q 65.375 48.09375 65.375 40.921875 
Q 65.375 39.359375 65.15625 37.453125 
Q 64.9375 35.546875 64.5 33.296875 
z
" id="DejaVuSans-BoldOblique-6e"/>
      <path d="M 62.890625 25.296875 
L 62.3125 22.515625 
L 21.390625 22.515625 
Q 21.390625 22.21875 21.34375 21.65625 
Q 21.296875 21.09375 21.296875 20.796875 
Q 21.296875 15.484375 24.484375 12.84375 
Q 27.6875 10.203125 34.078125 10.203125 
Q 39.59375 10.203125 45.71875 11.859375 
Q 51.859375 13.53125 58.59375 16.796875 
L 55.90625 3.21875 
Q 49.515625 0.875 43.1875 -0.265625 
Q 36.859375 -1.421875 30.328125 -1.421875 
Q 17.53125 -1.421875 10.5625 4.484375 
Q 3.609375 10.40625 3.609375 21.1875 
Q 3.609375 27.4375 5.828125 33.3125 
Q 8.0625 39.203125 12.3125 44.09375 
Q 17.328125 49.953125 24.328125 52.96875 
Q 31.34375 56 39.890625 56 
Q 50.984375 56 57.5 50.09375 
Q 64.015625 44.1875 64.015625 34.1875 
Q 64.015625 32.234375 63.75 30.046875 
Q 63.484375 27.875 62.890625 25.296875 
z
M 46.390625 33.296875 
Q 46.53125 33.9375 46.609375 34.59375 
Q 46.6875 35.25 46.6875 35.890625 
Q 46.6875 39.796875 44.34375 42.09375 
Q 42 44.390625 37.984375 44.390625 
Q 32.859375 44.390625 29.265625 41.578125 
Q 25.6875 38.765625 23.78125 33.296875 
z
" id="DejaVuSans-BoldOblique-65"/>
      <path d="M 13.71875 54.6875 
L 31.296875 54.6875 
L 20.609375 0 
L 3.078125 0 
z
M 17.828125 75.984375 
L 35.40625 75.984375 
L 32.625 61.71875 
L 14.984375 61.71875 
z
" id="DejaVuSans-BoldOblique-69"/>
      <path d="M 17.828125 75.984375 
L 35.40625 75.984375 
L 27.390625 34.8125 
L 50.984375 54.6875 
L 71.578125 54.6875 
L 39.796875 29.390625 
L 62.890625 0 
L 42.921875 0 
L 25.203125 23.578125 
L 20.609375 0 
L 3.078125 0 
z
" id="DejaVuSans-BoldOblique-6b"/>
      <path d="M 51.421875 39.796875 
Q 49.609375 40.828125 47.40625 41.359375 
Q 45.21875 41.890625 42.671875 41.890625 
Q 35.984375 41.890625 31.5625 37.59375 
Q 27.15625 33.296875 25.59375 25.203125 
L 20.609375 0 
L 3.078125 0 
L 13.71875 54.6875 
L 31.296875 54.6875 
L 29.390625 45.3125 
Q 32.859375 50.484375 38.0625 53.234375 
Q 43.265625 56 49.609375 56 
Q 50.53125 56 51.703125 55.90625 
Q 52.875 55.8125 54.5 55.609375 
z
" id="DejaVuSans-BoldOblique-72"/>
      <path d="M 47.703125 62.703125 
L 47.703125 37.109375 
L 73.1875 37.109375 
L 73.1875 25.59375 
L 47.703125 25.59375 
L 47.703125 0 
L 36.078125 0 
L 36.078125 25.59375 
L 10.59375 25.59375 
L 10.59375 37.109375 
L 36.078125 37.109375 
L 36.078125 62.703125 
z
" id="DejaVuSans-Bold-2b"/>
      <path d="M 76.90625 0 
L 0.484375 0 
L 27.484375 72.90625 
L 49.90625 72.90625 
z
M 24.359375 14.203125 
L 52.875 14.203125 
L 38.71875 55.8125 
z
" id="DejaVuSans-Bold-394"/>
      <path d="M 35.203125 31.34375 
L 21.296875 -13.1875 
L 8.015625 -13.1875 
L 21.96875 31.34375 
L 8.015625 75.875 
L 21.296875 75.875 
z
" id="DejaVuSans-Bold-27e9"/>
     </defs>
     <g transform="translate(25.6 247.99225)rotate(-90)scale(0.2 -0.2)">
      <use transform="translate(0 0.529687)" xlink:href="#DejaVuSans-Bold-7c"/>
      <use transform="translate(36.523438 0.529687)" xlink:href="#DejaVuSans-Bold-27e8"/>
      <use transform="translate(82.226562 0.529687)" xlink:href="#DejaVuSans-BoldOblique-6e"/>
      <use transform="translate(153.417969 0.529687)" xlink:href="#DejaVuSans-Bold-7c"/>
      <use transform="translate(189.941406 0.529687)" xlink:href="#DejaVuSans-BoldOblique-65"/>
      <use transform="translate(262.413568 38.810937)scale(0.7)" xlink:href="#DejaVuSans-BoldOblique-69"/>
      <use transform="translate(286.407708 38.810937)scale(0.7)" xlink:href="#DejaVuSans-BoldOblique-6b"/>
      <use transform="translate(332.960443 38.810937)scale(0.7)" xlink:href="#DejaVuSans-BoldOblique-72"/>
      <use transform="translate(370.216302 0.529687)" xlink:href="#DejaVuSans-Bold-7c"/>
      <use transform="translate(406.73974 0.529687)" xlink:href="#DejaVuSans-BoldOblique-6e"/>
      <use transform="translate(498.77099 0.529687)" xlink:href="#DejaVuSans-Bold-2b"/>
      <use transform="translate(603.399896 0.529687)" xlink:href="#DejaVuSans-Bold-394"/>
      <use transform="translate(680.792474 0.529687)" xlink:href="#DejaVuSans-BoldOblique-6e"/>
      <use transform="translate(751.98388 0.529687)" xlink:href="#DejaVuSans-Bold-27e9"/>
      <use transform="translate(797.687005 0.529687)" xlink:href="#DejaVuSans-Bold-7c"/>
     </g>
    </g>
   </g>
   <g id="line2d_19">
    <path clip-path="url(#p146ffe059a)" d="M 85.685156 297.54825 
L 99.289728 297.54825 
L 112.894299 278.871321 
L 126.498871 266.326605 
L 140.103442 254.947349 
L 153.708013 244.503153 
L 167.312585 234.90957 
L 180.917156 226.114523 
L 194.521728 218.077115 
L 208.126299 210.761532 
L 221.730871 204.134821 
L 235.335442 198.165932 
L 248.940013 192.825252 
L 262.544585 188.084352 
L 276.149156 183.915842 
L 289.753728 180.293278 
L 303.358299 177.191095 
L 316.962871 174.584564 
L 330.567442 172.44975 
L 344.172013 170.763486 
L 357.776585 169.503347 
L 371.381156 168.647624 
L 384.985728 168.175307 
L 398.590299 168.066062 
L 412.194871 168.300215 
L 425.799442 168.858734 
" style="fill:none;stroke:#bfbf00;stroke-linecap:square;stroke-width:1.5;"/>
    <defs>
     <path d="M 0 3 
C 0.795609 3 1.55874 2.683901 2.12132 2.12132 
C 2.683901 1.55874 3 0.795609 3 0 
C 3 -0.795609 2.683901 -1.55874 2.12132 -2.12132 
C 1.55874 -2.683901 0.795609 -3 0 -3 
C -0.795609 -3 -1.55874 -2.683901 -2.12132 -2.12132 
C -2.683901 -1.55874 -3 -0.795609 -3 0 
C -3 0.795609 -2.683901 1.55874 -2.12132 2.12132 
C -1.55874 2.683901 -0.795609 3 0 3 
z
" id="m8ee9dee35b" style="stroke:#bfbf00;"/>
    </defs>
    <g clip-path="url(#p146ffe059a)">
     <use style="fill:#bfbf00;stroke:#bfbf00;" x="85.685156" xlink:href="#m8ee9dee35b" y="297.54825"/>
     <use style="fill:#bfbf00;stroke:#bfbf00;" x="99.289728" xlink:href="#m8ee9dee35b" y="297.54825"/>
     <use style="fill:#bfbf00;stroke:#bfbf00;" x="112.894299" xlink:href="#m8ee9dee35b" y="278.871321"/>
     <use style="fill:#bfbf00;stroke:#bfbf00;" x="126.498871" xlink:href="#m8ee9dee35b" y="266.326605"/>
     <use style="fill:#bfbf00;stroke:#bfbf00;" x="140.103442" xlink:href="#m8ee9dee35b" y="254.947349"/>
     <use style="fill:#bfbf00;stroke:#bfbf00;" x="153.708013" xlink:href="#m8ee9dee35b" y="244.503153"/>
     <use style="fill:#bfbf00;stroke:#bfbf00;" x="167.312585" xlink:href="#m8ee9dee35b" y="234.90957"/>
     <use style="fill:#bfbf00;stroke:#bfbf00;" x="180.917156" xlink:href="#m8ee9dee35b" y="226.114523"/>
     <use style="fill:#bfbf00;stroke:#bfbf00;" x="194.521728" xlink:href="#m8ee9dee35b" y="218.077115"/>
     <use style="fill:#bfbf00;stroke:#bfbf00;" x="208.126299" xlink:href="#m8ee9dee35b" y="210.761532"/>
     <use style="fill:#bfbf00;stroke:#bfbf00;" x="221.730871" xlink:href="#m8ee9dee35b" y="204.134821"/>
     <use style="fill:#bfbf00;stroke:#bfbf00;" x="235.335442" xlink:href="#m8ee9dee35b" y="198.165932"/>
     <use style="fill:#bfbf00;stroke:#bfbf00;" x="248.940013" xlink:href="#m8ee9dee35b" y="192.825252"/>
     <use style="fill:#bfbf00;stroke:#bfbf00;" x="262.544585" xlink:href="#m8ee9dee35b" y="188.084352"/>
     <use style="fill:#bfbf00;stroke:#bfbf00;" x="276.149156" xlink:href="#m8ee9dee35b" y="183.915842"/>
     <use style="fill:#bfbf00;stroke:#bfbf00;" x="289.753728" xlink:href="#m8ee9dee35b" y="180.293278"/>
     <use style="fill:#bfbf00;stroke:#bfbf00;" x="303.358299" xlink:href="#m8ee9dee35b" y="177.191095"/>
     <use style="fill:#bfbf00;stroke:#bfbf00;" x="316.962871" xlink:href="#m8ee9dee35b" y="174.584564"/>
     <use style="fill:#bfbf00;stroke:#bfbf00;" x="330.567442" xlink:href="#m8ee9dee35b" y="172.44975"/>
     <use style="fill:#bfbf00;stroke:#bfbf00;" x="344.172013" xlink:href="#m8ee9dee35b" y="170.763486"/>
     <use style="fill:#bfbf00;stroke:#bfbf00;" x="357.776585" xlink:href="#m8ee9dee35b" y="169.503347"/>
     <use style="fill:#bfbf00;stroke:#bfbf00;" x="371.381156" xlink:href="#m8ee9dee35b" y="168.647624"/>
     <use style="fill:#bfbf00;stroke:#bfbf00;" x="384.985728" xlink:href="#m8ee9dee35b" y="168.175307"/>
     <use style="fill:#bfbf00;stroke:#bfbf00;" x="398.590299" xlink:href="#m8ee9dee35b" y="168.066062"/>
     <use style="fill:#bfbf00;stroke:#bfbf00;" x="412.194871" xlink:href="#m8ee9dee35b" y="168.300215"/>
     <use style="fill:#bfbf00;stroke:#bfbf00;" x="425.799442" xlink:href="#m8ee9dee35b" y="168.858734"/>
    </g>
   </g>
   <g id="line2d_20">
    <path clip-path="url(#p146ffe059a)" d="M 85.685156 297.54825 
L 99.289728 215.873582 
L 112.894299 188.082849 
L 126.498871 170.620662 
L 140.103442 158.939 
L 153.708013 151.155652 
L 167.312585 146.242412 
L 180.917156 143.550332 
L 194.521728 142.631448 
L 208.126299 143.157131 
L 221.730871 144.875528 
L 235.335442 147.587223 
L 248.940013 151.130314 
L 262.544585 155.370747 
L 276.149156 160.195782 
L 289.753728 165.509392 
L 303.358299 171.228949 
L 316.962871 177.282751 
L 330.567442 183.608144 
L 344.172013 190.150075 
L 357.776585 196.859938 
L 371.381156 203.69466 
L 384.985728 210.615957 
L 398.590299 217.589718 
L 412.194871 224.585499 
L 425.799442 231.576096 
" style="fill:none;stroke:#ff0000;stroke-linecap:square;stroke-width:1.5;"/>
    <defs>
     <path d="M 0 3 
C 0.795609 3 1.55874 2.683901 2.12132 2.12132 
C 2.683901 1.55874 3 0.795609 3 0 
C 3 -0.795609 2.683901 -1.55874 2.12132 -2.12132 
C 1.55874 -2.683901 0.795609 -3 0 -3 
C -0.795609 -3 -1.55874 -2.683901 -2.12132 -2.12132 
C -2.683901 -1.55874 -3 -0.795609 -3 0 
C -3 0.795609 -2.683901 1.55874 -2.12132 2.12132 
C -1.55874 2.683901 -0.795609 3 0 3 
z
" id="mb5e57ae5ea" style="stroke:#ff0000;"/>
    </defs>
    <g clip-path="url(#p146ffe059a)">
     <use style="fill:#ff0000;stroke:#ff0000;" x="85.685156" xlink:href="#mb5e57ae5ea" y="297.54825"/>
     <use style="fill:#ff0000;stroke:#ff0000;" x="99.289728" xlink:href="#mb5e57ae5ea" y="215.873582"/>
     <use style="fill:#ff0000;stroke:#ff0000;" x="112.894299" xlink:href="#mb5e57ae5ea" y="188.082849"/>
     <use style="fill:#ff0000;stroke:#ff0000;" x="126.498871" xlink:href="#mb5e57ae5ea" y="170.620662"/>
     <use style="fill:#ff0000;stroke:#ff0000;" x="140.103442" xlink:href="#mb5e57ae5ea" y="158.939"/>
     <use style="fill:#ff0000;stroke:#ff0000;" x="153.708013" xlink:href="#mb5e57ae5ea" y="151.155652"/>
     <use style="fill:#ff0000;stroke:#ff0000;" x="167.312585" xlink:href="#mb5e57ae5ea" y="146.242412"/>
     <use style="fill:#ff0000;stroke:#ff0000;" x="180.917156" xlink:href="#mb5e57ae5ea" y="143.550332"/>
     <use style="fill:#ff0000;stroke:#ff0000;" x="194.521728" xlink:href="#mb5e57ae5ea" y="142.631448"/>
     <use style="fill:#ff0000;stroke:#ff0000;" x="208.126299" xlink:href="#mb5e57ae5ea" y="143.157131"/>
     <use style="fill:#ff0000;stroke:#ff0000;" x="221.730871" xlink:href="#mb5e57ae5ea" y="144.875528"/>
     <use style="fill:#ff0000;stroke:#ff0000;" x="235.335442" xlink:href="#mb5e57ae5ea" y="147.587223"/>
     <use style="fill:#ff0000;stroke:#ff0000;" x="248.940013" xlink:href="#mb5e57ae5ea" y="151.130314"/>
     <use style="fill:#ff0000;stroke:#ff0000;" x="262.544585" xlink:href="#mb5e57ae5ea" y="155.370747"/>
     <use style="fill:#ff0000;stroke:#ff0000;" x="276.149156" xlink:href="#mb5e57ae5ea" y="160.195782"/>
     <use style="fill:#ff0000;stroke:#ff0000;" x="289.753728" xlink:href="#mb5e57ae5ea" y="165.509392"/>
     <use style="fill:#ff0000;stroke:#ff0000;" x="303.358299" xlink:href="#mb5e57ae5ea" y="171.228949"/>
     <use style="fill:#ff0000;stroke:#ff0000;" x="316.962871" xlink:href="#mb5e57ae5ea" y="177.282751"/>
     <use style="fill:#ff0000;stroke:#ff0000;" x="330.567442" xlink:href="#mb5e57ae5ea" y="183.608144"/>
     <use style="fill:#ff0000;stroke:#ff0000;" x="344.172013" xlink:href="#mb5e57ae5ea" y="190.150075"/>
     <use style="fill:#ff0000;stroke:#ff0000;" x="357.776585" xlink:href="#mb5e57ae5ea" y="196.859938"/>
     <use style="fill:#ff0000;stroke:#ff0000;" x="371.381156" xlink:href="#mb5e57ae5ea" y="203.69466"/>
     <use style="fill:#ff0000;stroke:#ff0000;" x="384.985728" xlink:href="#mb5e57ae5ea" y="210.615957"/>
     <use style="fill:#ff0000;stroke:#ff0000;" x="398.590299" xlink:href="#mb5e57ae5ea" y="217.589718"/>
     <use style="fill:#ff0000;stroke:#ff0000;" x="412.194871" xlink:href="#mb5e57ae5ea" y="224.585499"/>
     <use style="fill:#ff0000;stroke:#ff0000;" x="425.799442" xlink:href="#mb5e57ae5ea" y="231.576096"/>
    </g>
   </g>
   <g id="line2d_21">
    <path clip-path="url(#p146ffe059a)" d="M 85.685156 44.994232 
L 99.289728 71.407399 
L 112.894299 96.439365 
L 126.498871 120.138282 
L 140.103442 142.55104 
L 153.708013 163.7233 
L 167.312585 183.699513 
L 180.917156 202.52295 
L 194.521728 220.235726 
L 208.126299 236.878823 
L 221.730871 252.492117 
L 235.335442 267.1144 
L 248.940013 280.7834 
L 262.544585 293.535811 
L 276.149156 289.68919 
L 289.753728 278.663921 
L 303.358299 268.451168 
L 316.962871 259.018171 
L 330.567442 250.333098 
L 344.172013 242.365027 
L 357.776585 235.083924 
L 371.381156 228.460626 
L 384.985728 222.466817 
L 398.590299 217.075014 
L 412.194871 212.258546 
L 425.799442 207.991535 
" style="fill:none;stroke:#000000;stroke-linecap:square;stroke-width:1.5;"/>
    <defs>
     <path d="M 0 3 
C 0.795609 3 1.55874 2.683901 2.12132 2.12132 
C 2.683901 1.55874 3 0.795609 3 0 
C 3 -0.795609 2.683901 -1.55874 2.12132 -2.12132 
C 1.55874 -2.683901 0.795609 -3 0 -3 
C -0.795609 -3 -1.55874 -2.683901 -2.12132 -2.12132 
C -2.683901 -1.55874 -3 -0.795609 -3 0 
C -3 0.795609 -2.683901 1.55874 -2.12132 2.12132 
C -1.55874 2.683901 -0.795609 3 0 3 
z
" id="m65d4cbb7ee" style="stroke:#000000;"/>
    </defs>
    <g clip-path="url(#p146ffe059a)">
     <use style="stroke:#000000;" x="85.685156" xlink:href="#m65d4cbb7ee" y="44.994232"/>
     <use style="stroke:#000000;" x="99.289728" xlink:href="#m65d4cbb7ee" y="71.407399"/>
     <use style="stroke:#000000;" x="112.894299" xlink:href="#m65d4cbb7ee" y="96.439365"/>
     <use style="stroke:#000000;" x="126.498871" xlink:href="#m65d4cbb7ee" y="120.138282"/>
     <use style="stroke:#000000;" x="140.103442" xlink:href="#m65d4cbb7ee" y="142.55104"/>
     <use style="stroke:#000000;" x="153.708013" xlink:href="#m65d4cbb7ee" y="163.7233"/>
     <use style="stroke:#000000;" x="167.312585" xlink:href="#m65d4cbb7ee" y="183.699513"/>
     <use style="stroke:#000000;" x="180.917156" xlink:href="#m65d4cbb7ee" y="202.52295"/>
     <use style="stroke:#000000;" x="194.521728" xlink:href="#m65d4cbb7ee" y="220.235726"/>
     <use style="stroke:#000000;" x="208.126299" xlink:href="#m65d4cbb7ee" y="236.878823"/>
     <use style="stroke:#000000;" x="221.730871" xlink:href="#m65d4cbb7ee" y="252.492117"/>
     <use style="stroke:#000000;" x="235.335442" xlink:href="#m65d4cbb7ee" y="267.1144"/>
     <use style="stroke:#000000;" x="248.940013" xlink:href="#m65d4cbb7ee" y="280.7834"/>
     <use style="stroke:#000000;" x="262.544585" xlink:href="#m65d4cbb7ee" y="293.535811"/>
     <use style="stroke:#000000;" x="276.149156" xlink:href="#m65d4cbb7ee" y="289.68919"/>
     <use style="stroke:#000000;" x="289.753728" xlink:href="#m65d4cbb7ee" y="278.663921"/>
     <use style="stroke:#000000;" x="303.358299" xlink:href="#m65d4cbb7ee" y="268.451168"/>
     <use style="stroke:#000000;" x="316.962871" xlink:href="#m65d4cbb7ee" y="259.018171"/>
     <use style="stroke:#000000;" x="330.567442" xlink:href="#m65d4cbb7ee" y="250.333098"/>
     <use style="stroke:#000000;" x="344.172013" xlink:href="#m65d4cbb7ee" y="242.365027"/>
     <use style="stroke:#000000;" x="357.776585" xlink:href="#m65d4cbb7ee" y="235.083924"/>
     <use style="stroke:#000000;" x="371.381156" xlink:href="#m65d4cbb7ee" y="228.460626"/>
     <use style="stroke:#000000;" x="384.985728" xlink:href="#m65d4cbb7ee" y="222.466817"/>
     <use style="stroke:#000000;" x="398.590299" xlink:href="#m65d4cbb7ee" y="217.075014"/>
     <use style="stroke:#000000;" x="412.194871" xlink:href="#m65d4cbb7ee" y="212.258546"/>
     <use style="stroke:#000000;" x="425.799442" xlink:href="#m65d4cbb7ee" y="207.991535"/>
    </g>
   </g>
   <g id="patch_3">
    <path d="M 85.685156 297.54825 
L 85.685156 31.43625 
" style="fill:none;stroke:#000000;stroke-linecap:square;stroke-linejoin:miter;stroke-width:0.8;"/>
   </g>
   <g id="patch_4">
    <path d="M 442.805156 297.54825 
L 442.805156 31.43625 
" style="fill:none;stroke:#000000;stroke-linecap:square;stroke-linejoin:miter;stroke-width:0.8;"/>
   </g>
   <g id="patch_5">
    <path d="M 85.685156 297.54825 
L 442.805156 297.54825 
" style="fill:none;stroke:#000000;stroke-linecap:square;stroke-linejoin:miter;stroke-width:0.8;"/>
   </g>
   <g id="patch_6">
    <path d="M 85.685156 31.43625 
L 442.805156 31.43625 
" style="fill:none;stroke:#000000;stroke-linecap:square;stroke-linejoin:miter;stroke-width:0.8;"/>
   </g>
   <g id="text_12">
    <!-- $\eta\approx0.32$ -->
    <defs>
     <path d="M 66.40625 33.296875 
L 55.90625 -20.796875 
L 38.328125 -20.796875 
L 43.453125 5.421875 
L 47.3125 25.484375 
Q 48.734375 32.5625 48.921875 35.25 
Q 49.125 37.9375 48.578125 39.203125 
Q 47.90625 40.921875 46.34375 41.890625 
Q 44.734375 42.828125 42.484375 42.828125 
Q 37.015625 42.828125 33.109375 38.578125 
Q 29.15625 34.375 27.6875 26.90625 
L 22.46875 0 
L 4.984375 0 
L 15.625 54.6875 
L 33.109375 54.6875 
L 31.546875 46.6875 
Q 36.421875 51.46875 41.3125 53.71875 
Q 46.1875 56 51.5625 56 
Q 61.03125 56 64.796875 50.203125 
Q 68.609375 44.390625 66.40625 33.296875 
z
" id="DejaVuSans-BoldOblique-3b7"/>
     <path d="M 73.1875 51.703125 
L 73.1875 39.796875 
Q 68.015625 35.890625 63.640625 34.203125 
Q 59.28125 32.515625 54.59375 32.515625 
Q 49.359375 32.515625 42.390625 35.359375 
Q 41.703125 35.640625 41.3125 35.796875 
Q 40.96875 35.9375 40.234375 36.234375 
Q 32.671875 39.203125 28.078125 39.203125 
Q 23.78125 39.203125 19.578125 37.328125 
Q 15.375 35.453125 10.59375 31.390625 
L 10.59375 43.3125 
Q 15.71875 47.125 20.09375 48.796875 
Q 24.46875 50.484375 29.203125 50.484375 
Q 34.578125 50.484375 41.75 47.609375 
Q 42.234375 47.40625 42.484375 47.3125 
Q 42.875 47.171875 43.5625 46.875 
Q 51.125 43.890625 55.71875 43.890625 
Q 59.90625 43.890625 64.03125 45.71875 
Q 68.171875 47.5625 73.1875 51.703125 
z
M 73.1875 31.296875 
L 73.1875 19.390625 
Q 68.015625 15.484375 63.640625 13.796875 
Q 59.28125 12.109375 54.59375 12.109375 
Q 49.359375 12.109375 42.390625 14.9375 
Q 41.703125 15.234375 41.265625 15.4375 
Q 40.96875 15.53125 40.234375 15.828125 
Q 32.671875 18.796875 28.078125 18.796875 
Q 23.78125 18.796875 19.578125 16.9375 
Q 15.375 15.09375 10.59375 10.984375 
L 10.59375 22.90625 
Q 15.828125 26.8125 20.171875 28.484375 
Q 24.515625 30.171875 29.203125 30.171875 
Q 34.421875 30.171875 41.40625 27.34375 
Q 42.140625 27.046875 42.484375 26.90625 
Q 42.875 26.765625 43.5625 26.515625 
Q 51.125 23.484375 55.71875 23.484375 
Q 59.90625 23.484375 64.03125 25.3125 
Q 68.171875 27.15625 73.1875 31.296875 
z
" id="DejaVuSans-Bold-2248"/>
     <path d="M 46.578125 39.3125 
Q 53.953125 37.40625 57.78125 32.6875 
Q 61.625 27.984375 61.625 20.703125 
Q 61.625 9.859375 53.3125 4.21875 
Q 45.015625 -1.421875 29.109375 -1.421875 
Q 23.484375 -1.421875 17.84375 -0.515625 
Q 12.203125 0.390625 6.6875 2.203125 
L 6.6875 16.703125 
Q 11.96875 14.0625 17.15625 12.71875 
Q 22.359375 11.375 27.390625 11.375 
Q 34.859375 11.375 38.84375 13.953125 
Q 42.828125 16.546875 42.828125 21.390625 
Q 42.828125 26.375 38.75 28.9375 
Q 34.671875 31.5 26.703125 31.5 
L 19.1875 31.5 
L 19.1875 43.609375 
L 27.09375 43.609375 
Q 34.1875 43.609375 37.640625 45.828125 
Q 41.109375 48.046875 41.109375 52.59375 
Q 41.109375 56.78125 37.734375 59.078125 
Q 34.375 61.375 28.21875 61.375 
Q 23.6875 61.375 19.046875 60.34375 
Q 14.40625 59.328125 9.8125 57.328125 
L 9.8125 71.09375 
Q 15.375 72.65625 20.84375 73.4375 
Q 26.3125 74.21875 31.59375 74.21875 
Q 45.796875 74.21875 52.84375 69.546875 
Q 59.90625 64.890625 59.90625 55.515625 
Q 59.90625 49.125 56.53125 45.046875 
Q 53.171875 40.96875 46.578125 39.3125 
z
" id="DejaVuSans-Bold-33"/>
    </defs>
    <g transform="translate(153.708013 84.65865)scale(0.3 -0.3)">
     <use transform="translate(0 0.78125)" xlink:href="#DejaVuSans-BoldOblique-3b7"/>
     <use transform="translate(92.03125 0.78125)" xlink:href="#DejaVuSans-Bold-2248"/>
     <use transform="translate(196.660156 0.78125)" xlink:href="#DejaVuSans-Bold-30"/>
     <use transform="translate(266.240234 0.78125)" xlink:href="#DejaVuSans-Bold-2e"/>
     <use transform="translate(304.228516 0.78125)" xlink:href="#DejaVuSans-Bold-33"/>
     <use transform="translate(373.808594 0.78125)" xlink:href="#DejaVuSans-Bold-32"/>
    </g>
   </g>
   <g id="text_13">
    <!-- Radial X coupling strength -->
    <defs>
     <path d="M 44.390625 34.1875 
Q 47.5625 33.109375 50.5625 29.59375 
Q 53.5625 26.078125 56.59375 19.921875 
L 66.609375 0 
L 56 0 
L 46.6875 18.703125 
Q 43.0625 26.03125 39.671875 28.421875 
Q 36.28125 30.8125 30.421875 30.8125 
L 19.671875 30.8125 
L 19.671875 0 
L 9.8125 0 
L 9.8125 72.90625 
L 32.078125 72.90625 
Q 44.578125 72.90625 50.734375 67.671875 
Q 56.890625 62.453125 56.890625 51.90625 
Q 56.890625 45.015625 53.6875 40.46875 
Q 50.484375 35.9375 44.390625 34.1875 
z
M 19.671875 64.796875 
L 19.671875 38.921875 
L 32.078125 38.921875 
Q 39.203125 38.921875 42.84375 42.21875 
Q 46.484375 45.515625 46.484375 51.90625 
Q 46.484375 58.296875 42.84375 61.546875 
Q 39.203125 64.796875 32.078125 64.796875 
z
" id="DejaVuSans-52"/>
     <path d="M 34.28125 27.484375 
Q 23.390625 27.484375 19.1875 25 
Q 14.984375 22.515625 14.984375 16.5 
Q 14.984375 11.71875 18.140625 8.90625 
Q 21.296875 6.109375 26.703125 6.109375 
Q 34.1875 6.109375 38.703125 11.40625 
Q 43.21875 16.703125 43.21875 25.484375 
L 43.21875 27.484375 
z
M 52.203125 31.203125 
L 52.203125 0 
L 43.21875 0 
L 43.21875 8.296875 
Q 40.140625 3.328125 35.546875 0.953125 
Q 30.953125 -1.421875 24.3125 -1.421875 
Q 15.921875 -1.421875 10.953125 3.296875 
Q 6 8.015625 6 15.921875 
Q 6 25.140625 12.171875 29.828125 
Q 18.359375 34.515625 30.609375 34.515625 
L 43.21875 34.515625 
L 43.21875 35.40625 
Q 43.21875 41.609375 39.140625 45 
Q 35.0625 48.390625 27.6875 48.390625 
Q 23 48.390625 18.546875 47.265625 
Q 14.109375 46.140625 10.015625 43.890625 
L 10.015625 52.203125 
Q 14.9375 54.109375 19.578125 55.046875 
Q 24.21875 56 28.609375 56 
Q 40.484375 56 46.34375 49.84375 
Q 52.203125 43.703125 52.203125 31.203125 
z
" id="DejaVuSans-61"/>
     <path d="M 45.40625 46.390625 
L 45.40625 75.984375 
L 54.390625 75.984375 
L 54.390625 0 
L 45.40625 0 
L 45.40625 8.203125 
Q 42.578125 3.328125 38.25 0.953125 
Q 33.9375 -1.421875 27.875 -1.421875 
Q 17.96875 -1.421875 11.734375 6.484375 
Q 5.515625 14.40625 5.515625 27.296875 
Q 5.515625 40.1875 11.734375 48.09375 
Q 17.96875 56 27.875 56 
Q 33.9375 56 38.25 53.625 
Q 42.578125 51.265625 45.40625 46.390625 
z
M 14.796875 27.296875 
Q 14.796875 17.390625 18.875 11.75 
Q 22.953125 6.109375 30.078125 6.109375 
Q 37.203125 6.109375 41.296875 11.75 
Q 45.40625 17.390625 45.40625 27.296875 
Q 45.40625 37.203125 41.296875 42.84375 
Q 37.203125 48.484375 30.078125 48.484375 
Q 22.953125 48.484375 18.875 42.84375 
Q 14.796875 37.203125 14.796875 27.296875 
z
" id="DejaVuSans-64"/>
     <path d="M 9.421875 54.6875 
L 18.40625 54.6875 
L 18.40625 0 
L 9.421875 0 
z
M 9.421875 75.984375 
L 18.40625 75.984375 
L 18.40625 64.59375 
L 9.421875 64.59375 
z
" id="DejaVuSans-69"/>
     <path d="M 9.421875 75.984375 
L 18.40625 75.984375 
L 18.40625 0 
L 9.421875 0 
z
" id="DejaVuSans-6c"/>
     <path id="DejaVuSans-20"/>
     <path d="M 6.296875 72.90625 
L 16.890625 72.90625 
L 35.015625 45.796875 
L 53.21875 72.90625 
L 63.8125 72.90625 
L 40.375 37.890625 
L 65.375 0 
L 54.78125 0 
L 34.28125 31 
L 13.625 0 
L 2.984375 0 
L 29 38.921875 
z
" id="DejaVuSans-58"/>
     <path d="M 48.78125 52.59375 
L 48.78125 44.1875 
Q 44.96875 46.296875 41.140625 47.34375 
Q 37.3125 48.390625 33.40625 48.390625 
Q 24.65625 48.390625 19.8125 42.84375 
Q 14.984375 37.3125 14.984375 27.296875 
Q 14.984375 17.28125 19.8125 11.734375 
Q 24.65625 6.203125 33.40625 6.203125 
Q 37.3125 6.203125 41.140625 7.25 
Q 44.96875 8.296875 48.78125 10.40625 
L 48.78125 2.09375 
Q 45.015625 0.34375 40.984375 -0.53125 
Q 36.96875 -1.421875 32.421875 -1.421875 
Q 20.0625 -1.421875 12.78125 6.34375 
Q 5.515625 14.109375 5.515625 27.296875 
Q 5.515625 40.671875 12.859375 48.328125 
Q 20.21875 56 33.015625 56 
Q 37.15625 56 41.109375 55.140625 
Q 45.0625 54.296875 48.78125 52.59375 
z
" id="DejaVuSans-63"/>
     <path d="M 30.609375 48.390625 
Q 23.390625 48.390625 19.1875 42.75 
Q 14.984375 37.109375 14.984375 27.296875 
Q 14.984375 17.484375 19.15625 11.84375 
Q 23.34375 6.203125 30.609375 6.203125 
Q 37.796875 6.203125 41.984375 11.859375 
Q 46.1875 17.53125 46.1875 27.296875 
Q 46.1875 37.015625 41.984375 42.703125 
Q 37.796875 48.390625 30.609375 48.390625 
z
M 30.609375 56 
Q 42.328125 56 49.015625 48.375 
Q 55.71875 40.765625 55.71875 27.296875 
Q 55.71875 13.875 49.015625 6.21875 
Q 42.328125 -1.421875 30.609375 -1.421875 
Q 18.84375 -1.421875 12.171875 6.21875 
Q 5.515625 13.875 5.515625 27.296875 
Q 5.515625 40.765625 12.171875 48.375 
Q 18.84375 56 30.609375 56 
z
" id="DejaVuSans-6f"/>
     <path d="M 8.5 21.578125 
L 8.5 54.6875 
L 17.484375 54.6875 
L 17.484375 21.921875 
Q 17.484375 14.15625 20.5 10.265625 
Q 23.53125 6.390625 29.59375 6.390625 
Q 36.859375 6.390625 41.078125 11.03125 
Q 45.3125 15.671875 45.3125 23.6875 
L 45.3125 54.6875 
L 54.296875 54.6875 
L 54.296875 0 
L 45.3125 0 
L 45.3125 8.40625 
Q 42.046875 3.421875 37.71875 1 
Q 33.40625 -1.421875 27.6875 -1.421875 
Q 18.265625 -1.421875 13.375 4.4375 
Q 8.5 10.296875 8.5 21.578125 
z
M 31.109375 56 
z
" id="DejaVuSans-75"/>
     <path d="M 18.109375 8.203125 
L 18.109375 -20.796875 
L 9.078125 -20.796875 
L 9.078125 54.6875 
L 18.109375 54.6875 
L 18.109375 46.390625 
Q 20.953125 51.265625 25.265625 53.625 
Q 29.59375 56 35.59375 56 
Q 45.5625 56 51.78125 48.09375 
Q 58.015625 40.1875 58.015625 27.296875 
Q 58.015625 14.40625 51.78125 6.484375 
Q 45.5625 -1.421875 35.59375 -1.421875 
Q 29.59375 -1.421875 25.265625 0.953125 
Q 20.953125 3.328125 18.109375 8.203125 
z
M 48.6875 27.296875 
Q 48.6875 37.203125 44.609375 42.84375 
Q 40.53125 48.484375 33.40625 48.484375 
Q 26.265625 48.484375 22.1875 42.84375 
Q 18.109375 37.203125 18.109375 27.296875 
Q 18.109375 17.390625 22.1875 11.75 
Q 26.265625 6.109375 33.40625 6.109375 
Q 40.53125 6.109375 44.609375 11.75 
Q 48.6875 17.390625 48.6875 27.296875 
z
" id="DejaVuSans-70"/>
     <path d="M 45.40625 27.984375 
Q 45.40625 37.75 41.375 43.109375 
Q 37.359375 48.484375 30.078125 48.484375 
Q 22.859375 48.484375 18.828125 43.109375 
Q 14.796875 37.75 14.796875 27.984375 
Q 14.796875 18.265625 18.828125 12.890625 
Q 22.859375 7.515625 30.078125 7.515625 
Q 37.359375 7.515625 41.375 12.890625 
Q 45.40625 18.265625 45.40625 27.984375 
z
M 54.390625 6.78125 
Q 54.390625 -7.171875 48.1875 -13.984375 
Q 42 -20.796875 29.203125 -20.796875 
Q 24.46875 -20.796875 20.265625 -20.09375 
Q 16.0625 -19.390625 12.109375 -17.921875 
L 12.109375 -9.1875 
Q 16.0625 -11.328125 19.921875 -12.34375 
Q 23.78125 -13.375 27.78125 -13.375 
Q 36.625 -13.375 41.015625 -8.765625 
Q 45.40625 -4.15625 45.40625 5.171875 
L 45.40625 9.625 
Q 42.625 4.78125 38.28125 2.390625 
Q 33.9375 0 27.875 0 
Q 17.828125 0 11.671875 7.65625 
Q 5.515625 15.328125 5.515625 27.984375 
Q 5.515625 40.671875 11.671875 48.328125 
Q 17.828125 56 27.875 56 
Q 33.9375 56 38.28125 53.609375 
Q 42.625 51.21875 45.40625 46.390625 
L 45.40625 54.6875 
L 54.390625 54.6875 
z
" id="DejaVuSans-67"/>
     <path d="M 44.28125 53.078125 
L 44.28125 44.578125 
Q 40.484375 46.53125 36.375 47.5 
Q 32.28125 48.484375 27.875 48.484375 
Q 21.1875 48.484375 17.84375 46.4375 
Q 14.5 44.390625 14.5 40.28125 
Q 14.5 37.15625 16.890625 35.375 
Q 19.28125 33.59375 26.515625 31.984375 
L 29.59375 31.296875 
Q 39.15625 29.25 43.1875 25.515625 
Q 47.21875 21.78125 47.21875 15.09375 
Q 47.21875 7.46875 41.1875 3.015625 
Q 35.15625 -1.421875 24.609375 -1.421875 
Q 20.21875 -1.421875 15.453125 -0.5625 
Q 10.6875 0.296875 5.421875 2 
L 5.421875 11.28125 
Q 10.40625 8.6875 15.234375 7.390625 
Q 20.0625 6.109375 24.8125 6.109375 
Q 31.15625 6.109375 34.5625 8.28125 
Q 37.984375 10.453125 37.984375 14.40625 
Q 37.984375 18.0625 35.515625 20.015625 
Q 33.0625 21.96875 24.703125 23.78125 
L 21.578125 24.515625 
Q 13.234375 26.265625 9.515625 29.90625 
Q 5.8125 33.546875 5.8125 39.890625 
Q 5.8125 47.609375 11.28125 51.796875 
Q 16.75 56 26.8125 56 
Q 31.78125 56 36.171875 55.265625 
Q 40.578125 54.546875 44.28125 53.078125 
z
" id="DejaVuSans-73"/>
     <path d="M 18.3125 70.21875 
L 18.3125 54.6875 
L 36.8125 54.6875 
L 36.8125 47.703125 
L 18.3125 47.703125 
L 18.3125 18.015625 
Q 18.3125 11.328125 20.140625 9.421875 
Q 21.96875 7.515625 27.59375 7.515625 
L 36.8125 7.515625 
L 36.8125 0 
L 27.59375 0 
Q 17.1875 0 13.234375 3.875 
Q 9.28125 7.765625 9.28125 18.015625 
L 9.28125 47.703125 
L 2.6875 47.703125 
L 2.6875 54.6875 
L 9.28125 54.6875 
L 9.28125 70.21875 
z
" id="DejaVuSans-74"/>
     <path d="M 41.109375 46.296875 
Q 39.59375 47.171875 37.8125 47.578125 
Q 36.03125 48 33.890625 48 
Q 26.265625 48 22.1875 43.046875 
Q 18.109375 38.09375 18.109375 28.8125 
L 18.109375 0 
L 9.078125 0 
L 9.078125 54.6875 
L 18.109375 54.6875 
L 18.109375 46.1875 
Q 20.953125 51.171875 25.484375 53.578125 
Q 30.03125 56 36.53125 56 
Q 37.453125 56 38.578125 55.875 
Q 39.703125 55.765625 41.0625 55.515625 
z
" id="DejaVuSans-72"/>
     <path d="M 56.203125 29.59375 
L 56.203125 25.203125 
L 14.890625 25.203125 
Q 15.484375 15.921875 20.484375 11.0625 
Q 25.484375 6.203125 34.421875 6.203125 
Q 39.59375 6.203125 44.453125 7.46875 
Q 49.3125 8.734375 54.109375 11.28125 
L 54.109375 2.78125 
Q 49.265625 0.734375 44.1875 -0.34375 
Q 39.109375 -1.421875 33.890625 -1.421875 
Q 20.796875 -1.421875 13.15625 6.1875 
Q 5.515625 13.8125 5.515625 26.8125 
Q 5.515625 40.234375 12.765625 48.109375 
Q 20.015625 56 32.328125 56 
Q 43.359375 56 49.78125 48.890625 
Q 56.203125 41.796875 56.203125 29.59375 
z
M 47.21875 32.234375 
Q 47.125 39.59375 43.09375 43.984375 
Q 39.0625 48.390625 32.421875 48.390625 
Q 24.90625 48.390625 20.390625 44.140625 
Q 15.875 39.890625 15.1875 32.171875 
z
" id="DejaVuSans-65"/>
     <path d="M 54.890625 33.015625 
L 54.890625 0 
L 45.90625 0 
L 45.90625 32.71875 
Q 45.90625 40.484375 42.875 44.328125 
Q 39.84375 48.1875 33.796875 48.1875 
Q 26.515625 48.1875 22.3125 43.546875 
Q 18.109375 38.921875 18.109375 30.90625 
L 18.109375 0 
L 9.078125 0 
L 9.078125 75.984375 
L 18.109375 75.984375 
L 18.109375 46.1875 
Q 21.34375 51.125 25.703125 53.5625 
Q 30.078125 56 35.796875 56 
Q 45.21875 56 50.046875 50.171875 
Q 54.890625 44.34375 54.890625 33.015625 
z
" id="DejaVuSans-68"/>
    </defs>
    <g transform="translate(105.400781 25.43625)scale(0.24 -0.24)">
     <use xlink:href="#DejaVuSans-52"/>
     <use x="69.451172" xlink:href="#DejaVuSans-61"/>
     <use x="130.730469" xlink:href="#DejaVuSans-64"/>
     <use x="194.207031" xlink:href="#DejaVuSans-69"/>
     <use x="221.990234" xlink:href="#DejaVuSans-61"/>
     <use x="283.269531" xlink:href="#DejaVuSans-6c"/>
     <use x="311.052734" xlink:href="#DejaVuSans-20"/>
     <use x="342.839844" xlink:href="#DejaVuSans-58"/>
     <use x="411.345703" xlink:href="#DejaVuSans-20"/>
     <use x="443.132812" xlink:href="#DejaVuSans-63"/>
     <use x="498.113281" xlink:href="#DejaVuSans-6f"/>
     <use x="559.294922" xlink:href="#DejaVuSans-75"/>
     <use x="622.673828" xlink:href="#DejaVuSans-70"/>
     <use x="686.150391" xlink:href="#DejaVuSans-6c"/>
     <use x="713.933594" xlink:href="#DejaVuSans-69"/>
     <use x="741.716797" xlink:href="#DejaVuSans-6e"/>
     <use x="805.095703" xlink:href="#DejaVuSans-67"/>
     <use x="868.572266" xlink:href="#DejaVuSans-20"/>
     <use x="900.359375" xlink:href="#DejaVuSans-73"/>
     <use x="952.458984" xlink:href="#DejaVuSans-74"/>
     <use x="991.667969" xlink:href="#DejaVuSans-72"/>
     <use x="1032.75" xlink:href="#DejaVuSans-65"/>
     <use x="1094.273438" xlink:href="#DejaVuSans-6e"/>
     <use x="1157.652344" xlink:href="#DejaVuSans-67"/>
     <use x="1221.128906" xlink:href="#DejaVuSans-74"/>
     <use x="1260.337891" xlink:href="#DejaVuSans-68"/>
    </g>
   </g>
   <g id="legend_1">
    <g id="patch_7">
     <path d="M 474.661156 135.505 
L 632.661156 135.505 
Q 636.661156 135.505 636.661156 131.505 
L 636.661156 45.43625 
Q 636.661156 41.43625 632.661156 41.43625 
L 474.661156 41.43625 
Q 470.661156 41.43625 470.661156 45.43625 
L 470.661156 131.505 
Q 470.661156 135.505 474.661156 135.505 
z
" style="fill:#ffffff;opacity:0.8;stroke:#cccccc;stroke-linejoin:miter;"/>
    </g>
    <g id="line2d_22">
     <path d="M 478.661156 57.633125 
L 518.661156 57.633125 
" style="fill:none;stroke:#bfbf00;stroke-linecap:square;stroke-width:1.5;"/>
    </g>
    <g id="line2d_23">
     <g>
      <use style="fill:#bfbf00;stroke:#bfbf00;" x="498.661156" xlink:href="#m8ee9dee35b" y="57.633125"/>
     </g>
    </g>
    <g id="text_14">
     <!-- $\Delta n=-2$ -->
     <defs>
      <path d="M 10.59375 48.1875 
L 73.1875 48.1875 
L 73.1875 36.71875 
L 10.59375 36.71875 
z
M 10.59375 25.984375 
L 73.1875 25.984375 
L 73.1875 14.40625 
L 10.59375 14.40625 
z
" id="DejaVuSans-Bold-3d"/>
      <path d="M 10.59375 37.109375 
L 73.1875 37.109375 
L 73.1875 25.59375 
L 10.59375 25.59375 
z
" id="DejaVuSans-Bold-2212"/>
     </defs>
     <g transform="translate(534.661156 64.633125)scale(0.2 -0.2)">
      <use transform="translate(0 0.78125)" xlink:href="#DejaVuSans-Bold-394"/>
      <use transform="translate(77.392578 0.78125)" xlink:href="#DejaVuSans-BoldOblique-6e"/>
      <use transform="translate(169.423828 0.78125)" xlink:href="#DejaVuSans-Bold-3d"/>
      <use transform="translate(294.892578 0.78125)" xlink:href="#DejaVuSans-Bold-2212"/>
      <use transform="translate(399.521484 0.78125)" xlink:href="#DejaVuSans-Bold-32"/>
     </g>
    </g>
    <g id="line2d_24">
     <path d="M 478.661156 86.989375 
L 518.661156 86.989375 
" style="fill:none;stroke:#ff0000;stroke-linecap:square;stroke-width:1.5;"/>
    </g>
    <g id="line2d_25">
     <g>
      <use style="fill:#ff0000;stroke:#ff0000;" x="498.661156" xlink:href="#mb5e57ae5ea" y="86.989375"/>
     </g>
    </g>
    <g id="text_15">
     <!-- $\Delta n=-1$ -->
     <g transform="translate(534.661156 93.989375)scale(0.2 -0.2)">
      <use transform="translate(0 0.09375)" xlink:href="#DejaVuSans-Bold-394"/>
      <use transform="translate(77.392578 0.09375)" xlink:href="#DejaVuSans-BoldOblique-6e"/>
      <use transform="translate(169.423828 0.09375)" xlink:href="#DejaVuSans-Bold-3d"/>
      <use transform="translate(294.892578 0.09375)" xlink:href="#DejaVuSans-Bold-2212"/>
      <use transform="translate(399.521484 0.09375)" xlink:href="#DejaVuSans-Bold-31"/>
     </g>
    </g>
    <g id="line2d_26">
     <path d="M 478.661156 116.345625 
L 518.661156 116.345625 
" style="fill:none;stroke:#000000;stroke-linecap:square;stroke-width:1.5;"/>
    </g>
    <g id="line2d_27">
     <g>
      <use style="stroke:#000000;" x="498.661156" xlink:href="#m65d4cbb7ee" y="116.345625"/>
     </g>
    </g>
    <g id="text_16">
     <!-- $\Delta n=0$ -->
     <g transform="translate(534.661156 123.345625)scale(0.2 -0.2)">
      <use transform="translate(0 0.78125)" xlink:href="#DejaVuSans-Bold-394"/>
      <use transform="translate(77.392578 0.78125)" xlink:href="#DejaVuSans-BoldOblique-6e"/>
      <use transform="translate(169.423828 0.78125)" xlink:href="#DejaVuSans-Bold-3d"/>
      <use transform="translate(274.052734 0.78125)" xlink:href="#DejaVuSans-Bold-30"/>
     </g>
    </g>
   </g>
  </g>
 </g>
 <defs>
  <clipPath id="p146ffe059a">
   <rect height="266.112" width="357.12" x="85.685156" y="31.43625"/>
  </clipPath>
 </defs>
</svg>
