<?xml version="1.0" encoding="utf-8" standalone="no"?>
<!DOCTYPE svg PUBLIC "-//W3C//DTD SVG 1.1//EN"
  "http://www.w3.org/Graphics/SVG/1.1/DTD/svg11.dtd">
<!-- Created with matplotlib (https://matplotlib.org/) -->
<svg height="349.621687pt" version="1.1" viewBox="0 0 429.230937 349.621687" width="429.230937pt" xmlns="http://www.w3.org/2000/svg" xmlns:xlink="http://www.w3.org/1999/xlink">
 <defs>
  <style type="text/css">
*{stroke-linecap:butt;stroke-linejoin:round;}
  </style>
 </defs>
 <g id="figure_1">
  <g id="patch_1">
   <path d="M 0 349.621687 
L 429.230937 349.621687 
L 429.230937 0 
L 0 0 
z
" style="fill:none;"/>
  </g>
  <g id="axes_1">
   <g id="patch_2">
    <path d="M 61.410938 297.54825 
L 418.530938 297.54825 
L 418.530938 31.43625 
L 61.410938 31.43625 
z
" style="fill:none;"/>
   </g>
   <g id="matplotlib.axis_1">
    <g id="xtick_1">
     <g id="line2d_1">
      <path clip-path="url(#pbcf3292bdb)" d="M 98.441768 297.54825 
L 98.441768 31.43625 
" style="fill:none;stroke:#b0b0b0;stroke-linecap:square;stroke-width:0.8;"/>
     </g>
     <g id="line2d_2">
      <defs>
       <path d="M 0 0 
L 0 3.5 
" id="m005f0a59be" style="stroke:#000000;stroke-width:0.8;"/>
      </defs>
      <g>
       <use style="stroke:#000000;stroke-width:0.8;" x="98.441768" xlink:href="#m005f0a59be" y="297.54825"/>
      </g>
     </g>
     <g id="text_1">
      <!-- 0.1 -->
      <defs>
       <path d="M 31.78125 66.40625 
Q 24.171875 66.40625 20.328125 58.90625 
Q 16.5 51.421875 16.5 36.375 
Q 16.5 21.390625 20.328125 13.890625 
Q 24.171875 6.390625 31.78125 6.390625 
Q 39.453125 6.390625 43.28125 13.890625 
Q 47.125 21.390625 47.125 36.375 
Q 47.125 51.421875 43.28125 58.90625 
Q 39.453125 66.40625 31.78125 66.40625 
z
M 31.78125 74.21875 
Q 44.046875 74.21875 50.515625 64.515625 
Q 56.984375 54.828125 56.984375 36.375 
Q 56.984375 17.96875 50.515625 8.265625 
Q 44.046875 -1.421875 31.78125 -1.421875 
Q 19.53125 -1.421875 13.0625 8.265625 
Q 6.59375 17.96875 6.59375 36.375 
Q 6.59375 54.828125 13.0625 64.515625 
Q 19.53125 74.21875 31.78125 74.21875 
z
" id="DejaVuSans-48"/>
       <path d="M 10.6875 12.40625 
L 21 12.40625 
L 21 0 
L 10.6875 0 
z
" id="DejaVuSans-46"/>
       <path d="M 12.40625 8.296875 
L 28.515625 8.296875 
L 28.515625 63.921875 
L 10.984375 60.40625 
L 10.984375 69.390625 
L 28.421875 72.90625 
L 38.28125 72.90625 
L 38.28125 8.296875 
L 54.390625 8.296875 
L 54.390625 0 
L 12.40625 0 
z
" id="DejaVuSans-49"/>
      </defs>
      <g transform="translate(86.514424 315.945906)scale(0.15 -0.15)">
       <use xlink:href="#DejaVuSans-48"/>
       <use x="63.623047" xlink:href="#DejaVuSans-46"/>
       <use x="95.410156" xlink:href="#DejaVuSans-49"/>
      </g>
     </g>
    </g>
    <g id="xtick_2">
     <g id="line2d_3">
      <path clip-path="url(#pbcf3292bdb)" d="M 221.455522 297.54825 
L 221.455522 31.43625 
" style="fill:none;stroke:#b0b0b0;stroke-linecap:square;stroke-width:0.8;"/>
     </g>
     <g id="line2d_4">
      <g>
       <use style="stroke:#000000;stroke-width:0.8;" x="221.455522" xlink:href="#m005f0a59be" y="297.54825"/>
      </g>
     </g>
     <g id="text_2">
      <!-- 1 -->
      <g transform="translate(216.683647 315.945906)scale(0.15 -0.15)">
       <use xlink:href="#DejaVuSans-49"/>
      </g>
     </g>
    </g>
    <g id="xtick_3">
     <g id="line2d_5">
      <path clip-path="url(#pbcf3292bdb)" d="M 344.469277 297.54825 
L 344.469277 31.43625 
" style="fill:none;stroke:#b0b0b0;stroke-linecap:square;stroke-width:0.8;"/>
     </g>
     <g id="line2d_6">
      <g>
       <use style="stroke:#000000;stroke-width:0.8;" x="344.469277" xlink:href="#m005f0a59be" y="297.54825"/>
      </g>
     </g>
     <g id="text_3">
      <!-- 10 -->
      <g transform="translate(334.925527 315.945906)scale(0.15 -0.15)">
       <use xlink:href="#DejaVuSans-49"/>
       <use x="63.623047" xlink:href="#DejaVuSans-48"/>
      </g>
     </g>
    </g>
    <g id="xtick_4">
     <g id="line2d_7">
      <defs>
       <path d="M 0 0 
L 0 2 
" id="m6449f80ab4" style="stroke:#000000;stroke-width:0.6;"/>
      </defs>
      <g>
       <use style="stroke:#000000;stroke-width:0.6;" x="61.410938" xlink:href="#m6449f80ab4" y="297.54825"/>
      </g>
     </g>
    </g>
    <g id="xtick_5">
     <g id="line2d_8">
      <g>
       <use style="stroke:#000000;stroke-width:0.6;" x="71.15132" xlink:href="#m6449f80ab4" y="297.54825"/>
      </g>
     </g>
    </g>
    <g id="xtick_6">
     <g id="line2d_9">
      <g>
       <use style="stroke:#000000;stroke-width:0.6;" x="79.386696" xlink:href="#m6449f80ab4" y="297.54825"/>
      </g>
     </g>
    </g>
    <g id="xtick_7">
     <g id="line2d_10">
      <g>
       <use style="stroke:#000000;stroke-width:0.6;" x="86.520503" xlink:href="#m6449f80ab4" y="297.54825"/>
      </g>
     </g>
    </g>
    <g id="xtick_8">
     <g id="line2d_11">
      <g>
       <use style="stroke:#000000;stroke-width:0.6;" x="92.812967" xlink:href="#m6449f80ab4" y="297.54825"/>
      </g>
     </g>
    </g>
    <g id="xtick_9">
     <g id="line2d_12">
      <g>
       <use style="stroke:#000000;stroke-width:0.6;" x="135.472598" xlink:href="#m6449f80ab4" y="297.54825"/>
      </g>
     </g>
    </g>
    <g id="xtick_10">
     <g id="line2d_13">
      <g>
       <use style="stroke:#000000;stroke-width:0.6;" x="157.134245" xlink:href="#m6449f80ab4" y="297.54825"/>
      </g>
     </g>
    </g>
    <g id="xtick_11">
     <g id="line2d_14">
      <g>
       <use style="stroke:#000000;stroke-width:0.6;" x="172.503428" xlink:href="#m6449f80ab4" y="297.54825"/>
      </g>
     </g>
    </g>
    <g id="xtick_12">
     <g id="line2d_15">
      <g>
       <use style="stroke:#000000;stroke-width:0.6;" x="184.424692" xlink:href="#m6449f80ab4" y="297.54825"/>
      </g>
     </g>
    </g>
    <g id="xtick_13">
     <g id="line2d_16">
      <g>
       <use style="stroke:#000000;stroke-width:0.6;" x="194.165075" xlink:href="#m6449f80ab4" y="297.54825"/>
      </g>
     </g>
    </g>
    <g id="xtick_14">
     <g id="line2d_17">
      <g>
       <use style="stroke:#000000;stroke-width:0.6;" x="202.400451" xlink:href="#m6449f80ab4" y="297.54825"/>
      </g>
     </g>
    </g>
    <g id="xtick_15">
     <g id="line2d_18">
      <g>
       <use style="stroke:#000000;stroke-width:0.6;" x="209.534258" xlink:href="#m6449f80ab4" y="297.54825"/>
      </g>
     </g>
    </g>
    <g id="xtick_16">
     <g id="line2d_19">
      <g>
       <use style="stroke:#000000;stroke-width:0.6;" x="215.826722" xlink:href="#m6449f80ab4" y="297.54825"/>
      </g>
     </g>
    </g>
    <g id="xtick_17">
     <g id="line2d_20">
      <g>
       <use style="stroke:#000000;stroke-width:0.6;" x="258.486353" xlink:href="#m6449f80ab4" y="297.54825"/>
      </g>
     </g>
    </g>
    <g id="xtick_18">
     <g id="line2d_21">
      <g>
       <use style="stroke:#000000;stroke-width:0.6;" x="280.148" xlink:href="#m6449f80ab4" y="297.54825"/>
      </g>
     </g>
    </g>
    <g id="xtick_19">
     <g id="line2d_22">
      <g>
       <use style="stroke:#000000;stroke-width:0.6;" x="295.517183" xlink:href="#m6449f80ab4" y="297.54825"/>
      </g>
     </g>
    </g>
    <g id="xtick_20">
     <g id="line2d_23">
      <g>
       <use style="stroke:#000000;stroke-width:0.6;" x="307.438447" xlink:href="#m6449f80ab4" y="297.54825"/>
      </g>
     </g>
    </g>
    <g id="xtick_21">
     <g id="line2d_24">
      <g>
       <use style="stroke:#000000;stroke-width:0.6;" x="317.17883" xlink:href="#m6449f80ab4" y="297.54825"/>
      </g>
     </g>
    </g>
    <g id="xtick_22">
     <g id="line2d_25">
      <g>
       <use style="stroke:#000000;stroke-width:0.6;" x="325.414206" xlink:href="#m6449f80ab4" y="297.54825"/>
      </g>
     </g>
    </g>
    <g id="xtick_23">
     <g id="line2d_26">
      <g>
       <use style="stroke:#000000;stroke-width:0.6;" x="332.548013" xlink:href="#m6449f80ab4" y="297.54825"/>
      </g>
     </g>
    </g>
    <g id="xtick_24">
     <g id="line2d_27">
      <g>
       <use style="stroke:#000000;stroke-width:0.6;" x="338.840477" xlink:href="#m6449f80ab4" y="297.54825"/>
      </g>
     </g>
    </g>
    <g id="xtick_25">
     <g id="line2d_28">
      <g>
       <use style="stroke:#000000;stroke-width:0.6;" x="381.500107" xlink:href="#m6449f80ab4" y="297.54825"/>
      </g>
     </g>
    </g>
    <g id="xtick_26">
     <g id="line2d_29">
      <g>
       <use style="stroke:#000000;stroke-width:0.6;" x="403.161754" xlink:href="#m6449f80ab4" y="297.54825"/>
      </g>
     </g>
    </g>
    <g id="xtick_27">
     <g id="line2d_30">
      <g>
       <use style="stroke:#000000;stroke-width:0.6;" x="418.530938" xlink:href="#m6449f80ab4" y="297.54825"/>
      </g>
     </g>
    </g>
    <g id="text_4">
     <!-- Wait time (ms) -->
     <defs>
      <path d="M 3.328125 72.90625 
L 13.28125 72.90625 
L 28.609375 11.28125 
L 43.890625 72.90625 
L 54.984375 72.90625 
L 70.3125 11.28125 
L 85.59375 72.90625 
L 95.609375 72.90625 
L 77.296875 0 
L 64.890625 0 
L 49.515625 63.28125 
L 33.984375 0 
L 21.578125 0 
z
" id="DejaVuSans-87"/>
      <path d="M 34.28125 27.484375 
Q 23.390625 27.484375 19.1875 25 
Q 14.984375 22.515625 14.984375 16.5 
Q 14.984375 11.71875 18.140625 8.90625 
Q 21.296875 6.109375 26.703125 6.109375 
Q 34.1875 6.109375 38.703125 11.40625 
Q 43.21875 16.703125 43.21875 25.484375 
L 43.21875 27.484375 
z
M 52.203125 31.203125 
L 52.203125 0 
L 43.21875 0 
L 43.21875 8.296875 
Q 40.140625 3.328125 35.546875 0.953125 
Q 30.953125 -1.421875 24.3125 -1.421875 
Q 15.921875 -1.421875 10.953125 3.296875 
Q 6 8.015625 6 15.921875 
Q 6 25.140625 12.171875 29.828125 
Q 18.359375 34.515625 30.609375 34.515625 
L 43.21875 34.515625 
L 43.21875 35.40625 
Q 43.21875 41.609375 39.140625 45 
Q 35.0625 48.390625 27.6875 48.390625 
Q 23 48.390625 18.546875 47.265625 
Q 14.109375 46.140625 10.015625 43.890625 
L 10.015625 52.203125 
Q 14.9375 54.109375 19.578125 55.046875 
Q 24.21875 56 28.609375 56 
Q 40.484375 56 46.34375 49.84375 
Q 52.203125 43.703125 52.203125 31.203125 
z
" id="DejaVuSans-97"/>
      <path d="M 9.421875 54.6875 
L 18.40625 54.6875 
L 18.40625 0 
L 9.421875 0 
z
M 9.421875 75.984375 
L 18.40625 75.984375 
L 18.40625 64.59375 
L 9.421875 64.59375 
z
" id="DejaVuSans-105"/>
      <path d="M 18.3125 70.21875 
L 18.3125 54.6875 
L 36.8125 54.6875 
L 36.8125 47.703125 
L 18.3125 47.703125 
L 18.3125 18.015625 
Q 18.3125 11.328125 20.140625 9.421875 
Q 21.96875 7.515625 27.59375 7.515625 
L 36.8125 7.515625 
L 36.8125 0 
L 27.59375 0 
Q 17.1875 0 13.234375 3.875 
Q 9.28125 7.765625 9.28125 18.015625 
L 9.28125 47.703125 
L 2.6875 47.703125 
L 2.6875 54.6875 
L 9.28125 54.6875 
L 9.28125 70.21875 
z
" id="DejaVuSans-116"/>
      <path id="DejaVuSans-32"/>
      <path d="M 52 44.1875 
Q 55.375 50.25 60.0625 53.125 
Q 64.75 56 71.09375 56 
Q 79.640625 56 84.28125 50.015625 
Q 88.921875 44.046875 88.921875 33.015625 
L 88.921875 0 
L 79.890625 0 
L 79.890625 32.71875 
Q 79.890625 40.578125 77.09375 44.375 
Q 74.3125 48.1875 68.609375 48.1875 
Q 61.625 48.1875 57.5625 43.546875 
Q 53.515625 38.921875 53.515625 30.90625 
L 53.515625 0 
L 44.484375 0 
L 44.484375 32.71875 
Q 44.484375 40.625 41.703125 44.40625 
Q 38.921875 48.1875 33.109375 48.1875 
Q 26.21875 48.1875 22.15625 43.53125 
Q 18.109375 38.875 18.109375 30.90625 
L 18.109375 0 
L 9.078125 0 
L 9.078125 54.6875 
L 18.109375 54.6875 
L 18.109375 46.1875 
Q 21.1875 51.21875 25.484375 53.609375 
Q 29.78125 56 35.6875 56 
Q 41.65625 56 45.828125 52.96875 
Q 50 49.953125 52 44.1875 
z
" id="DejaVuSans-109"/>
      <path d="M 56.203125 29.59375 
L 56.203125 25.203125 
L 14.890625 25.203125 
Q 15.484375 15.921875 20.484375 11.0625 
Q 25.484375 6.203125 34.421875 6.203125 
Q 39.59375 6.203125 44.453125 7.46875 
Q 49.3125 8.734375 54.109375 11.28125 
L 54.109375 2.78125 
Q 49.265625 0.734375 44.1875 -0.34375 
Q 39.109375 -1.421875 33.890625 -1.421875 
Q 20.796875 -1.421875 13.15625 6.1875 
Q 5.515625 13.8125 5.515625 26.8125 
Q 5.515625 40.234375 12.765625 48.109375 
Q 20.015625 56 32.328125 56 
Q 43.359375 56 49.78125 48.890625 
Q 56.203125 41.796875 56.203125 29.59375 
z
M 47.21875 32.234375 
Q 47.125 39.59375 43.09375 43.984375 
Q 39.0625 48.390625 32.421875 48.390625 
Q 24.90625 48.390625 20.390625 44.140625 
Q 15.875 39.890625 15.1875 32.171875 
z
" id="DejaVuSans-101"/>
      <path d="M 31 75.875 
Q 24.46875 64.65625 21.28125 53.65625 
Q 18.109375 42.671875 18.109375 31.390625 
Q 18.109375 20.125 21.3125 9.0625 
Q 24.515625 -2 31 -13.1875 
L 23.1875 -13.1875 
Q 15.875 -1.703125 12.234375 9.375 
Q 8.59375 20.453125 8.59375 31.390625 
Q 8.59375 42.28125 12.203125 53.3125 
Q 15.828125 64.359375 23.1875 75.875 
z
" id="DejaVuSans-40"/>
      <path d="M 44.28125 53.078125 
L 44.28125 44.578125 
Q 40.484375 46.53125 36.375 47.5 
Q 32.28125 48.484375 27.875 48.484375 
Q 21.1875 48.484375 17.84375 46.4375 
Q 14.5 44.390625 14.5 40.28125 
Q 14.5 37.15625 16.890625 35.375 
Q 19.28125 33.59375 26.515625 31.984375 
L 29.59375 31.296875 
Q 39.15625 29.25 43.1875 25.515625 
Q 47.21875 21.78125 47.21875 15.09375 
Q 47.21875 7.46875 41.1875 3.015625 
Q 35.15625 -1.421875 24.609375 -1.421875 
Q 20.21875 -1.421875 15.453125 -0.5625 
Q 10.6875 0.296875 5.421875 2 
L 5.421875 11.28125 
Q 10.40625 8.6875 15.234375 7.390625 
Q 20.0625 6.109375 24.8125 6.109375 
Q 31.15625 6.109375 34.5625 8.28125 
Q 37.984375 10.453125 37.984375 14.40625 
Q 37.984375 18.0625 35.515625 20.015625 
Q 33.0625 21.96875 24.703125 23.78125 
L 21.578125 24.515625 
Q 13.234375 26.265625 9.515625 29.90625 
Q 5.8125 33.546875 5.8125 39.890625 
Q 5.8125 47.609375 11.28125 51.796875 
Q 16.75 56 26.8125 56 
Q 31.78125 56 36.171875 55.265625 
Q 40.578125 54.546875 44.28125 53.078125 
z
" id="DejaVuSans-115"/>
      <path d="M 8.015625 75.875 
L 15.828125 75.875 
Q 23.140625 64.359375 26.78125 53.3125 
Q 30.421875 42.28125 30.421875 31.390625 
Q 30.421875 20.453125 26.78125 9.375 
Q 23.140625 -1.703125 15.828125 -13.1875 
L 8.015625 -13.1875 
Q 14.5 -2 17.703125 9.0625 
Q 20.90625 20.125 20.90625 31.390625 
Q 20.90625 42.671875 17.703125 53.65625 
Q 14.5 64.65625 8.015625 75.875 
z
" id="DejaVuSans-41"/>
     </defs>
     <g transform="translate(165.564688 338.262312)scale(0.2 -0.2)">
      <use xlink:href="#DejaVuSans-87"/>
      <use x="98.783203" xlink:href="#DejaVuSans-97"/>
      <use x="160.0625" xlink:href="#DejaVuSans-105"/>
      <use x="187.845703" xlink:href="#DejaVuSans-116"/>
      <use x="227.054688" xlink:href="#DejaVuSans-32"/>
      <use x="258.841797" xlink:href="#DejaVuSans-116"/>
      <use x="298.050781" xlink:href="#DejaVuSans-105"/>
      <use x="325.833984" xlink:href="#DejaVuSans-109"/>
      <use x="423.246094" xlink:href="#DejaVuSans-101"/>
      <use x="484.769531" xlink:href="#DejaVuSans-32"/>
      <use x="516.556641" xlink:href="#DejaVuSans-40"/>
      <use x="555.570312" xlink:href="#DejaVuSans-109"/>
      <use x="652.982422" xlink:href="#DejaVuSans-115"/>
      <use x="705.082031" xlink:href="#DejaVuSans-41"/>
     </g>
    </g>
   </g>
   <g id="matplotlib.axis_2">
    <g id="ytick_1">
     <g id="line2d_31">
      <path clip-path="url(#pbcf3292bdb)" d="M 61.410938 297.54825 
L 418.530938 297.54825 
" style="fill:none;stroke:#b0b0b0;stroke-linecap:square;stroke-width:0.8;"/>
     </g>
     <g id="line2d_32">
      <defs>
       <path d="M 0 0 
L -3.5 0 
" id="mc3ce260a5b" style="stroke:#000000;stroke-width:0.8;"/>
      </defs>
      <g>
       <use style="stroke:#000000;stroke-width:0.8;" x="61.410938" xlink:href="#mc3ce260a5b" y="297.54825"/>
      </g>
     </g>
     <g id="text_5">
      <!-- 0.0 -->
      <g transform="translate(30.55625 303.247078)scale(0.15 -0.15)">
       <use xlink:href="#DejaVuSans-48"/>
       <use x="63.623047" xlink:href="#DejaVuSans-46"/>
       <use x="95.410156" xlink:href="#DejaVuSans-48"/>
      </g>
     </g>
    </g>
    <g id="ytick_2">
     <g id="line2d_33">
      <path clip-path="url(#pbcf3292bdb)" d="M 61.410938 244.32585 
L 418.530938 244.32585 
" style="fill:none;stroke:#b0b0b0;stroke-linecap:square;stroke-width:0.8;"/>
     </g>
     <g id="line2d_34">
      <g>
       <use style="stroke:#000000;stroke-width:0.8;" x="61.410938" xlink:href="#mc3ce260a5b" y="244.32585"/>
      </g>
     </g>
     <g id="text_6">
      <!-- 0.2 -->
      <defs>
       <path d="M 19.1875 8.296875 
L 53.609375 8.296875 
L 53.609375 0 
L 7.328125 0 
L 7.328125 8.296875 
Q 12.9375 14.109375 22.625 23.890625 
Q 32.328125 33.6875 34.8125 36.53125 
Q 39.546875 41.84375 41.421875 45.53125 
Q 43.3125 49.21875 43.3125 52.78125 
Q 43.3125 58.59375 39.234375 62.25 
Q 35.15625 65.921875 28.609375 65.921875 
Q 23.96875 65.921875 18.8125 64.3125 
Q 13.671875 62.703125 7.8125 59.421875 
L 7.8125 69.390625 
Q 13.765625 71.78125 18.9375 73 
Q 24.125 74.21875 28.421875 74.21875 
Q 39.75 74.21875 46.484375 68.546875 
Q 53.21875 62.890625 53.21875 53.421875 
Q 53.21875 48.921875 51.53125 44.890625 
Q 49.859375 40.875 45.40625 35.40625 
Q 44.1875 33.984375 37.640625 27.21875 
Q 31.109375 20.453125 19.1875 8.296875 
z
" id="DejaVuSans-50"/>
      </defs>
      <g transform="translate(30.55625 250.024678)scale(0.15 -0.15)">
       <use xlink:href="#DejaVuSans-48"/>
       <use x="63.623047" xlink:href="#DejaVuSans-46"/>
       <use x="95.410156" xlink:href="#DejaVuSans-50"/>
      </g>
     </g>
    </g>
    <g id="ytick_3">
     <g id="line2d_35">
      <path clip-path="url(#pbcf3292bdb)" d="M 61.410938 191.10345 
L 418.530938 191.10345 
" style="fill:none;stroke:#b0b0b0;stroke-linecap:square;stroke-width:0.8;"/>
     </g>
     <g id="line2d_36">
      <g>
       <use style="stroke:#000000;stroke-width:0.8;" x="61.410938" xlink:href="#mc3ce260a5b" y="191.10345"/>
      </g>
     </g>
     <g id="text_7">
      <!-- 0.4 -->
      <defs>
       <path d="M 37.796875 64.3125 
L 12.890625 25.390625 
L 37.796875 25.390625 
z
M 35.203125 72.90625 
L 47.609375 72.90625 
L 47.609375 25.390625 
L 58.015625 25.390625 
L 58.015625 17.1875 
L 47.609375 17.1875 
L 47.609375 0 
L 37.796875 0 
L 37.796875 17.1875 
L 4.890625 17.1875 
L 4.890625 26.703125 
z
" id="DejaVuSans-52"/>
      </defs>
      <g transform="translate(30.55625 196.802278)scale(0.15 -0.15)">
       <use xlink:href="#DejaVuSans-48"/>
       <use x="63.623047" xlink:href="#DejaVuSans-46"/>
       <use x="95.410156" xlink:href="#DejaVuSans-52"/>
      </g>
     </g>
    </g>
    <g id="ytick_4">
     <g id="line2d_37">
      <path clip-path="url(#pbcf3292bdb)" d="M 61.410938 137.88105 
L 418.530938 137.88105 
" style="fill:none;stroke:#b0b0b0;stroke-linecap:square;stroke-width:0.8;"/>
     </g>
     <g id="line2d_38">
      <g>
       <use style="stroke:#000000;stroke-width:0.8;" x="61.410938" xlink:href="#mc3ce260a5b" y="137.88105"/>
      </g>
     </g>
     <g id="text_8">
      <!-- 0.6 -->
      <defs>
       <path d="M 33.015625 40.375 
Q 26.375 40.375 22.484375 35.828125 
Q 18.609375 31.296875 18.609375 23.390625 
Q 18.609375 15.53125 22.484375 10.953125 
Q 26.375 6.390625 33.015625 6.390625 
Q 39.65625 6.390625 43.53125 10.953125 
Q 47.40625 15.53125 47.40625 23.390625 
Q 47.40625 31.296875 43.53125 35.828125 
Q 39.65625 40.375 33.015625 40.375 
z
M 52.59375 71.296875 
L 52.59375 62.3125 
Q 48.875 64.0625 45.09375 64.984375 
Q 41.3125 65.921875 37.59375 65.921875 
Q 27.828125 65.921875 22.671875 59.328125 
Q 17.53125 52.734375 16.796875 39.40625 
Q 19.671875 43.65625 24.015625 45.921875 
Q 28.375 48.1875 33.59375 48.1875 
Q 44.578125 48.1875 50.953125 41.515625 
Q 57.328125 34.859375 57.328125 23.390625 
Q 57.328125 12.15625 50.6875 5.359375 
Q 44.046875 -1.421875 33.015625 -1.421875 
Q 20.359375 -1.421875 13.671875 8.265625 
Q 6.984375 17.96875 6.984375 36.375 
Q 6.984375 53.65625 15.1875 63.9375 
Q 23.390625 74.21875 37.203125 74.21875 
Q 40.921875 74.21875 44.703125 73.484375 
Q 48.484375 72.75 52.59375 71.296875 
z
" id="DejaVuSans-54"/>
      </defs>
      <g transform="translate(30.55625 143.579878)scale(0.15 -0.15)">
       <use xlink:href="#DejaVuSans-48"/>
       <use x="63.623047" xlink:href="#DejaVuSans-46"/>
       <use x="95.410156" xlink:href="#DejaVuSans-54"/>
      </g>
     </g>
    </g>
    <g id="ytick_5">
     <g id="line2d_39">
      <path clip-path="url(#pbcf3292bdb)" d="M 61.410938 84.65865 
L 418.530938 84.65865 
" style="fill:none;stroke:#b0b0b0;stroke-linecap:square;stroke-width:0.8;"/>
     </g>
     <g id="line2d_40">
      <g>
       <use style="stroke:#000000;stroke-width:0.8;" x="61.410938" xlink:href="#mc3ce260a5b" y="84.65865"/>
      </g>
     </g>
     <g id="text_9">
      <!-- 0.8 -->
      <defs>
       <path d="M 31.78125 34.625 
Q 24.75 34.625 20.71875 30.859375 
Q 16.703125 27.09375 16.703125 20.515625 
Q 16.703125 13.921875 20.71875 10.15625 
Q 24.75 6.390625 31.78125 6.390625 
Q 38.8125 6.390625 42.859375 10.171875 
Q 46.921875 13.96875 46.921875 20.515625 
Q 46.921875 27.09375 42.890625 30.859375 
Q 38.875 34.625 31.78125 34.625 
z
M 21.921875 38.8125 
Q 15.578125 40.375 12.03125 44.71875 
Q 8.5 49.078125 8.5 55.328125 
Q 8.5 64.0625 14.71875 69.140625 
Q 20.953125 74.21875 31.78125 74.21875 
Q 42.671875 74.21875 48.875 69.140625 
Q 55.078125 64.0625 55.078125 55.328125 
Q 55.078125 49.078125 51.53125 44.71875 
Q 48 40.375 41.703125 38.8125 
Q 48.828125 37.15625 52.796875 32.3125 
Q 56.78125 27.484375 56.78125 20.515625 
Q 56.78125 9.90625 50.3125 4.234375 
Q 43.84375 -1.421875 31.78125 -1.421875 
Q 19.734375 -1.421875 13.25 4.234375 
Q 6.78125 9.90625 6.78125 20.515625 
Q 6.78125 27.484375 10.78125 32.3125 
Q 14.796875 37.15625 21.921875 38.8125 
z
M 18.3125 54.390625 
Q 18.3125 48.734375 21.84375 45.5625 
Q 25.390625 42.390625 31.78125 42.390625 
Q 38.140625 42.390625 41.71875 45.5625 
Q 45.3125 48.734375 45.3125 54.390625 
Q 45.3125 60.0625 41.71875 63.234375 
Q 38.140625 66.40625 31.78125 66.40625 
Q 25.390625 66.40625 21.84375 63.234375 
Q 18.3125 60.0625 18.3125 54.390625 
z
" id="DejaVuSans-56"/>
      </defs>
      <g transform="translate(30.55625 90.357478)scale(0.15 -0.15)">
       <use xlink:href="#DejaVuSans-48"/>
       <use x="63.623047" xlink:href="#DejaVuSans-46"/>
       <use x="95.410156" xlink:href="#DejaVuSans-56"/>
      </g>
     </g>
    </g>
    <g id="ytick_6">
     <g id="line2d_41">
      <path clip-path="url(#pbcf3292bdb)" d="M 61.410938 31.43625 
L 418.530938 31.43625 
" style="fill:none;stroke:#b0b0b0;stroke-linecap:square;stroke-width:0.8;"/>
     </g>
     <g id="line2d_42">
      <g>
       <use style="stroke:#000000;stroke-width:0.8;" x="61.410938" xlink:href="#mc3ce260a5b" y="31.43625"/>
      </g>
     </g>
     <g id="text_10">
      <!-- 1.0 -->
      <g transform="translate(30.55625 37.135078)scale(0.15 -0.15)">
       <use xlink:href="#DejaVuSans-49"/>
       <use x="63.623047" xlink:href="#DejaVuSans-46"/>
       <use x="95.410156" xlink:href="#DejaVuSans-48"/>
      </g>
     </g>
    </g>
    <g id="text_11">
     <!-- Cs survival -->
     <defs>
      <path d="M 64.40625 67.28125 
L 64.40625 56.890625 
Q 59.421875 61.53125 53.78125 63.8125 
Q 48.140625 66.109375 41.796875 66.109375 
Q 29.296875 66.109375 22.65625 58.46875 
Q 16.015625 50.828125 16.015625 36.375 
Q 16.015625 21.96875 22.65625 14.328125 
Q 29.296875 6.6875 41.796875 6.6875 
Q 48.140625 6.6875 53.78125 8.984375 
Q 59.421875 11.28125 64.40625 15.921875 
L 64.40625 5.609375 
Q 59.234375 2.09375 53.4375 0.328125 
Q 47.65625 -1.421875 41.21875 -1.421875 
Q 24.65625 -1.421875 15.125 8.703125 
Q 5.609375 18.84375 5.609375 36.375 
Q 5.609375 53.953125 15.125 64.078125 
Q 24.65625 74.21875 41.21875 74.21875 
Q 47.75 74.21875 53.53125 72.484375 
Q 59.328125 70.75 64.40625 67.28125 
z
" id="DejaVuSans-67"/>
      <path d="M 8.5 21.578125 
L 8.5 54.6875 
L 17.484375 54.6875 
L 17.484375 21.921875 
Q 17.484375 14.15625 20.5 10.265625 
Q 23.53125 6.390625 29.59375 6.390625 
Q 36.859375 6.390625 41.078125 11.03125 
Q 45.3125 15.671875 45.3125 23.6875 
L 45.3125 54.6875 
L 54.296875 54.6875 
L 54.296875 0 
L 45.3125 0 
L 45.3125 8.40625 
Q 42.046875 3.421875 37.71875 1 
Q 33.40625 -1.421875 27.6875 -1.421875 
Q 18.265625 -1.421875 13.375 4.4375 
Q 8.5 10.296875 8.5 21.578125 
z
M 31.109375 56 
z
" id="DejaVuSans-117"/>
      <path d="M 41.109375 46.296875 
Q 39.59375 47.171875 37.8125 47.578125 
Q 36.03125 48 33.890625 48 
Q 26.265625 48 22.1875 43.046875 
Q 18.109375 38.09375 18.109375 28.8125 
L 18.109375 0 
L 9.078125 0 
L 9.078125 54.6875 
L 18.109375 54.6875 
L 18.109375 46.1875 
Q 20.953125 51.171875 25.484375 53.578125 
Q 30.03125 56 36.53125 56 
Q 37.453125 56 38.578125 55.875 
Q 39.703125 55.765625 41.0625 55.515625 
z
" id="DejaVuSans-114"/>
      <path d="M 2.984375 54.6875 
L 12.5 54.6875 
L 29.59375 8.796875 
L 46.6875 54.6875 
L 56.203125 54.6875 
L 35.6875 0 
L 23.484375 0 
z
" id="DejaVuSans-118"/>
      <path d="M 9.421875 75.984375 
L 18.40625 75.984375 
L 18.40625 0 
L 9.421875 0 
z
" id="DejaVuSans-108"/>
     </defs>
     <g transform="translate(22.396875 219.04225)rotate(-90)scale(0.2 -0.2)">
      <use xlink:href="#DejaVuSans-67"/>
      <use x="69.824219" xlink:href="#DejaVuSans-115"/>
      <use x="121.923828" xlink:href="#DejaVuSans-32"/>
      <use x="153.710938" xlink:href="#DejaVuSans-115"/>
      <use x="205.810547" xlink:href="#DejaVuSans-117"/>
      <use x="269.189453" xlink:href="#DejaVuSans-114"/>
      <use x="310.302734" xlink:href="#DejaVuSans-118"/>
      <use x="369.482422" xlink:href="#DejaVuSans-105"/>
      <use x="397.265625" xlink:href="#DejaVuSans-118"/>
      <use x="456.445312" xlink:href="#DejaVuSans-97"/>
      <use x="517.724609" xlink:href="#DejaVuSans-108"/>
     </g>
    </g>
   </g>
   <g id="LineCollection_1">
    <path clip-path="url(#pbcf3292bdb)" style="fill:none;stroke:#1f77b4;stroke-width:1.5;"/>
    <path clip-path="url(#pbcf3292bdb)" d="M 135.472598 85.922188 
L 135.472598 77.361439 
" style="fill:none;stroke:#1f77b4;stroke-width:1.5;"/>
    <path clip-path="url(#pbcf3292bdb)" d="M 184.424692 104.851572 
L 184.424692 94.659205 
" style="fill:none;stroke:#1f77b4;stroke-width:1.5;"/>
    <path clip-path="url(#pbcf3292bdb)" d="M 221.455522 104.240037 
L 221.455522 94.189516 
" style="fill:none;stroke:#1f77b4;stroke-width:1.5;"/>
    <path clip-path="url(#pbcf3292bdb)" d="M 258.486353 117.331741 
L 258.486353 106.865067 
" style="fill:none;stroke:#1f77b4;stroke-width:1.5;"/>
    <path clip-path="url(#pbcf3292bdb)" d="M 295.517183 134.296126 
L 295.517183 122.838134 
" style="fill:none;stroke:#1f77b4;stroke-width:1.5;"/>
    <path clip-path="url(#pbcf3292bdb)" d="M 332.548013 131.766361 
L 332.548013 120.6024 
" style="fill:none;stroke:#1f77b4;stroke-width:1.5;"/>
    <path clip-path="url(#pbcf3292bdb)" d="M 354.20966 152.786021 
L 354.20966 141.380087 
" style="fill:none;stroke:#1f77b4;stroke-width:1.5;"/>
    <path clip-path="url(#pbcf3292bdb)" d="M 369.578843 151.326305 
L 369.578843 140.12341 
" style="fill:none;stroke:#1f77b4;stroke-width:1.5;"/>
    <path clip-path="url(#pbcf3292bdb)" d="M 391.24049 161.494754 
L 391.24049 149.982378 
" style="fill:none;stroke:#1f77b4;stroke-width:1.5;"/>
    <path clip-path="url(#pbcf3292bdb)" d="M 406.609673 158.105636 
L 406.609673 146.985005 
" style="fill:none;stroke:#1f77b4;stroke-width:1.5;"/>
   </g>
   <g id="LineCollection_2">
    <path clip-path="url(#pbcf3292bdb)" style="fill:none;stroke:#ff7f0e;stroke-width:1.5;"/>
    <path clip-path="url(#pbcf3292bdb)" d="M 135.472598 261.999275 
L 135.472598 254.021239 
" style="fill:none;stroke:#ff7f0e;stroke-width:1.5;"/>
    <path clip-path="url(#pbcf3292bdb)" d="M 184.424692 250.430617 
L 184.424692 241.316569 
" style="fill:none;stroke:#ff7f0e;stroke-width:1.5;"/>
    <path clip-path="url(#pbcf3292bdb)" d="M 221.455522 239.928704 
L 221.455522 230.412973 
" style="fill:none;stroke:#ff7f0e;stroke-width:1.5;"/>
    <path clip-path="url(#pbcf3292bdb)" d="M 258.486353 237.739467 
L 258.486353 227.963124 
" style="fill:none;stroke:#ff7f0e;stroke-width:1.5;"/>
    <path clip-path="url(#pbcf3292bdb)" d="M 295.517183 244.385999 
L 295.517183 234.765349 
" style="fill:none;stroke:#ff7f0e;stroke-width:1.5;"/>
    <path clip-path="url(#pbcf3292bdb)" d="M 332.548013 241.020231 
L 332.548013 231.293896 
" style="fill:none;stroke:#ff7f0e;stroke-width:1.5;"/>
    <path clip-path="url(#pbcf3292bdb)" d="M 354.20966 246.662031 
L 354.20966 237.3053 
" style="fill:none;stroke:#ff7f0e;stroke-width:1.5;"/>
    <path clip-path="url(#pbcf3292bdb)" d="M 369.578843 245.677773 
L 369.578843 236.674878 
" style="fill:none;stroke:#ff7f0e;stroke-width:1.5;"/>
    <path clip-path="url(#pbcf3292bdb)" d="M 391.24049 254.203065 
L 391.24049 245.353224 
" style="fill:none;stroke:#ff7f0e;stroke-width:1.5;"/>
    <path clip-path="url(#pbcf3292bdb)" d="M 406.609673 261.549661 
L 406.609673 253.201485 
" style="fill:none;stroke:#ff7f0e;stroke-width:1.5;"/>
   </g>
   <g id="LineCollection_3">
    <path clip-path="url(#pbcf3292bdb)" style="fill:none;stroke:#2ca02c;stroke-width:1.5;"/>
    <path clip-path="url(#pbcf3292bdb)" d="M 135.472598 94.457535 
L 135.472598 73.246965 
" style="fill:none;stroke:#2ca02c;stroke-width:1.5;"/>
    <path clip-path="url(#pbcf3292bdb)" d="M 184.424692 98.449338 
L 184.424692 78.471162 
" style="fill:none;stroke:#2ca02c;stroke-width:1.5;"/>
    <path clip-path="url(#pbcf3292bdb)" d="M 221.455522 97.438662 
L 221.455522 74.835438 
" style="fill:none;stroke:#2ca02c;stroke-width:1.5;"/>
    <path clip-path="url(#pbcf3292bdb)" d="M 258.486353 125.849955 
L 258.486353 104.116126 
" style="fill:none;stroke:#2ca02c;stroke-width:1.5;"/>
    <path clip-path="url(#pbcf3292bdb)" d="M 295.517183 127.440536 
L 295.517183 104.355233 
" style="fill:none;stroke:#2ca02c;stroke-width:1.5;"/>
    <path clip-path="url(#pbcf3292bdb)" d="M 332.548013 151.51453 
L 332.548013 125.797737 
" style="fill:none;stroke:#2ca02c;stroke-width:1.5;"/>
    <path clip-path="url(#pbcf3292bdb)" d="M 354.20966 163.080128 
L 354.20966 136.632052 
" style="fill:none;stroke:#2ca02c;stroke-width:1.5;"/>
    <path clip-path="url(#pbcf3292bdb)" d="M 369.578843 161.828463 
L 369.578843 135.538769 
" style="fill:none;stroke:#2ca02c;stroke-width:1.5;"/>
    <path clip-path="url(#pbcf3292bdb)" d="M 391.24049 133.477953 
L 391.24049 109.266547 
" style="fill:none;stroke:#2ca02c;stroke-width:1.5;"/>
    <path clip-path="url(#pbcf3292bdb)" d="M 406.609673 164.975485 
L 406.609673 139.59507 
" style="fill:none;stroke:#2ca02c;stroke-width:1.5;"/>
   </g>
   <g id="LineCollection_4">
    <path clip-path="url(#pbcf3292bdb)" style="fill:none;stroke:#d62728;stroke-width:1.5;"/>
    <path clip-path="url(#pbcf3292bdb)" d="M 135.472598 266.363902 
L 135.472598 246.634215 
" style="fill:none;stroke:#d62728;stroke-width:1.5;"/>
    <path clip-path="url(#pbcf3292bdb)" d="M 184.424692 249.261376 
L 184.424692 228.837607 
" style="fill:none;stroke:#d62728;stroke-width:1.5;"/>
    <path clip-path="url(#pbcf3292bdb)" d="M 221.455522 267.761417 
L 221.455522 250.302662 
" style="fill:none;stroke:#d62728;stroke-width:1.5;"/>
    <path clip-path="url(#pbcf3292bdb)" d="M 258.486353 233.911011 
L 258.486353 210.881489 
" style="fill:none;stroke:#d62728;stroke-width:1.5;"/>
    <path clip-path="url(#pbcf3292bdb)" d="M 295.517183 260.521485 
L 295.517183 240.802215 
" style="fill:none;stroke:#d62728;stroke-width:1.5;"/>
    <path clip-path="url(#pbcf3292bdb)" d="M 332.548013 226.839771 
L 332.548013 203.168729 
" style="fill:none;stroke:#d62728;stroke-width:1.5;"/>
    <path clip-path="url(#pbcf3292bdb)" d="M 354.20966 238.517652 
L 354.20966 216.394848 
" style="fill:none;stroke:#d62728;stroke-width:1.5;"/>
    <path clip-path="url(#pbcf3292bdb)" d="M 369.578843 228.172311 
L 369.578843 204.837789 
" style="fill:none;stroke:#d62728;stroke-width:1.5;"/>
    <path clip-path="url(#pbcf3292bdb)" d="M 391.24049 258.211335 
L 391.24049 237.429165 
" style="fill:none;stroke:#d62728;stroke-width:1.5;"/>
    <path clip-path="url(#pbcf3292bdb)" d="M 406.609673 272.221955 
L 406.609673 255.0913 
" style="fill:none;stroke:#d62728;stroke-width:1.5;"/>
   </g>
   <g id="line2d_43">
    <path clip-path="url(#pbcf3292bdb)" d="M 58.156085 83.459771 
L 84.677826 83.947277 
L 105.559543 84.538256 
L 123.982369 85.282748 
L 139.351552 86.123206 
L 153.239573 87.107045 
L 165.289416 88.176775 
L 176.382382 89.376997 
L 186.607498 90.699336 
L 196.34788 92.181939 
L 205.559068 93.811206 
L 214.241511 95.572481 
L 222.594174 97.493155 
L 230.729034 99.593325 
L 238.705069 101.884889 
L 246.549057 104.370753 
L 254.462793 107.114293 
L 262.531997 110.149828 
L 270.980928 113.568459 
L 280.341065 117.602476 
L 292.119037 122.937935 
L 314.493334 133.118492 
L 322.593698 136.519922 
L 329.483621 139.176333 
L 335.733819 141.350782 
L 341.613611 143.163183 
L 347.302979 144.68525 
L 352.921564 145.958443 
L 358.587133 147.013942 
L 364.430522 147.875278 
L 370.629553 148.561479 
L 377.418446 149.08492 
L 385.245334 149.458362 
L 395.070728 149.692619 
L 409.216248 149.798971 
L 409.216248 149.798971 
" style="fill:none;stroke:#1f77b4;stroke-linecap:square;stroke-width:1.5;"/>
   </g>
   <g id="line2d_44">
    <path clip-path="url(#pbcf3292bdb)" d="M 58.156085 71.96659 
L 79.817732 72.569366 
L 98.872803 73.336731 
L 114.241986 74.179394 
L 128.258586 75.17692 
L 140.179851 76.240986 
L 151.272817 77.44767 
L 161.566822 78.788438 
L 171.1233 80.253938 
L 180.012591 81.83411 
L 188.636509 83.590443 
L 196.919268 85.504956 
L 204.828885 87.558493 
L 212.571869 89.795506 
L 220.2593 92.248218 
L 227.941052 94.935015 
L 235.628483 97.859014 
L 243.666794 101.15849 
L 252.18908 104.902752 
L 261.862092 109.404896 
L 275.735899 116.13966 
L 290.81181 123.396812 
L 299.061188 127.118168 
L 305.947673 129.986706 
L 312.1457 132.332061 
L 317.964845 134.298286 
L 323.531694 135.946606 
L 329.006189 137.336757 
L 334.493329 138.500463 
L 340.096158 139.460559 
L 345.958252 140.237687 
L 352.27399 140.847259 
L 359.353476 141.301492 
L 367.782601 141.610778 
L 379.07825 141.786882 
L 399.938692 141.847063 
L 409.216248 141.848923 
L 409.216248 141.848923 
" style="fill:none;stroke:#2ca02c;stroke-linecap:square;stroke-width:1.5;"/>
   </g>
   <g id="line2d_45">
    <defs>
     <path d="M 0 1.5 
C 0.397805 1.5 0.77937 1.341951 1.06066 1.06066 
C 1.341951 0.77937 1.5 0.397805 1.5 0 
C 1.5 -0.397805 1.341951 -0.77937 1.06066 -1.06066 
C 0.77937 -1.341951 0.397805 -1.5 0 -1.5 
C -0.397805 -1.5 -0.77937 -1.341951 -1.06066 -1.06066 
C -1.341951 -0.77937 -1.5 -0.397805 -1.5 0 
C -1.5 0.397805 -1.341951 0.77937 -1.06066 1.06066 
C -0.77937 1.341951 -0.397805 1.5 0 1.5 
z
" id="mb8bc26594a" style="stroke:#1f77b4;"/>
    </defs>
    <g clip-path="url(#pbcf3292bdb)">
     <use style="fill:#1f77b4;stroke:#1f77b4;" x="-1" xlink:href="#mb8bc26594a" y="81.637303"/>
     <use style="fill:#1f77b4;stroke:#1f77b4;" x="135.472598" xlink:href="#mb8bc26594a" y="81.641813"/>
     <use style="fill:#1f77b4;stroke:#1f77b4;" x="184.424692" xlink:href="#mb8bc26594a" y="99.755388"/>
     <use style="fill:#1f77b4;stroke:#1f77b4;" x="221.455522" xlink:href="#mb8bc26594a" y="99.214776"/>
     <use style="fill:#1f77b4;stroke:#1f77b4;" x="258.486353" xlink:href="#mb8bc26594a" y="112.098404"/>
     <use style="fill:#1f77b4;stroke:#1f77b4;" x="295.517183" xlink:href="#mb8bc26594a" y="128.56713"/>
     <use style="fill:#1f77b4;stroke:#1f77b4;" x="332.548013" xlink:href="#mb8bc26594a" y="126.184381"/>
     <use style="fill:#1f77b4;stroke:#1f77b4;" x="354.20966" xlink:href="#mb8bc26594a" y="147.083054"/>
     <use style="fill:#1f77b4;stroke:#1f77b4;" x="369.578843" xlink:href="#mb8bc26594a" y="145.724858"/>
     <use style="fill:#1f77b4;stroke:#1f77b4;" x="391.24049" xlink:href="#mb8bc26594a" y="155.738566"/>
     <use style="fill:#1f77b4;stroke:#1f77b4;" x="406.609673" xlink:href="#mb8bc26594a" y="152.54532"/>
    </g>
   </g>
   <g id="line2d_46">
    <path clip-path="url(#pbcf3292bdb)" d="M -1 258.014191 
L 135.472598 258.010257 
L 184.424692 245.873593 
L 221.455522 235.170838 
L 258.486353 232.851296 
L 295.517183 239.575674 
L 332.548013 236.157064 
L 354.20966 241.983666 
L 369.578843 241.176325 
L 391.24049 249.778145 
L 406.609673 257.375573 
" style="fill:none;stroke:#ff7f0e;stroke-linecap:square;stroke-width:1.5;"/>
    <defs>
     <path d="M 0 1.5 
C 0.397805 1.5 0.77937 1.341951 1.06066 1.06066 
C 1.341951 0.77937 1.5 0.397805 1.5 0 
C 1.5 -0.397805 1.341951 -0.77937 1.06066 -1.06066 
C 0.77937 -1.341951 0.397805 -1.5 0 -1.5 
C -0.397805 -1.5 -0.77937 -1.341951 -1.06066 -1.06066 
C -1.341951 -0.77937 -1.5 -0.397805 -1.5 0 
C -1.5 0.397805 -1.341951 0.77937 -1.06066 1.06066 
C -0.77937 1.341951 -0.397805 1.5 0 1.5 
z
" id="m3e2fb6b177" style="stroke:#ff7f0e;"/>
    </defs>
    <g clip-path="url(#pbcf3292bdb)">
     <use style="fill:#ff7f0e;stroke:#ff7f0e;" x="-1" xlink:href="#m3e2fb6b177" y="258.014191"/>
     <use style="fill:#ff7f0e;stroke:#ff7f0e;" x="135.472598" xlink:href="#m3e2fb6b177" y="258.010257"/>
     <use style="fill:#ff7f0e;stroke:#ff7f0e;" x="184.424692" xlink:href="#m3e2fb6b177" y="245.873593"/>
     <use style="fill:#ff7f0e;stroke:#ff7f0e;" x="221.455522" xlink:href="#m3e2fb6b177" y="235.170838"/>
     <use style="fill:#ff7f0e;stroke:#ff7f0e;" x="258.486353" xlink:href="#m3e2fb6b177" y="232.851296"/>
     <use style="fill:#ff7f0e;stroke:#ff7f0e;" x="295.517183" xlink:href="#m3e2fb6b177" y="239.575674"/>
     <use style="fill:#ff7f0e;stroke:#ff7f0e;" x="332.548013" xlink:href="#m3e2fb6b177" y="236.157064"/>
     <use style="fill:#ff7f0e;stroke:#ff7f0e;" x="354.20966" xlink:href="#m3e2fb6b177" y="241.983666"/>
     <use style="fill:#ff7f0e;stroke:#ff7f0e;" x="369.578843" xlink:href="#m3e2fb6b177" y="241.176325"/>
     <use style="fill:#ff7f0e;stroke:#ff7f0e;" x="391.24049" xlink:href="#m3e2fb6b177" y="249.778145"/>
     <use style="fill:#ff7f0e;stroke:#ff7f0e;" x="406.609673" xlink:href="#m3e2fb6b177" y="257.375573"/>
    </g>
   </g>
   <g id="line2d_47">
    <defs>
     <path d="M 0 1.5 
C 0.397805 1.5 0.77937 1.341951 1.06066 1.06066 
C 1.341951 0.77937 1.5 0.397805 1.5 0 
C 1.5 -0.397805 1.341951 -0.77937 1.06066 -1.06066 
C 0.77937 -1.341951 0.397805 -1.5 0 -1.5 
C -0.397805 -1.5 -0.77937 -1.341951 -1.06066 -1.06066 
C -1.341951 -0.77937 -1.5 -0.397805 -1.5 0 
C -1.5 0.397805 -1.341951 0.77937 -1.06066 1.06066 
C -0.77937 1.341951 -0.397805 1.5 0 1.5 
z
" id="m92edfcde95" style="stroke:#2ca02c;"/>
    </defs>
    <g clip-path="url(#pbcf3292bdb)">
     <use style="fill:#2ca02c;stroke:#2ca02c;" x="-1" xlink:href="#m92edfcde95" y="83.830402"/>
     <use style="fill:#2ca02c;stroke:#2ca02c;" x="135.472598" xlink:href="#m92edfcde95" y="83.85225"/>
     <use style="fill:#2ca02c;stroke:#2ca02c;" x="184.424692" xlink:href="#m92edfcde95" y="88.46025"/>
     <use style="fill:#2ca02c;stroke:#2ca02c;" x="221.455522" xlink:href="#m92edfcde95" y="86.13705"/>
     <use style="fill:#2ca02c;stroke:#2ca02c;" x="258.486353" xlink:href="#m92edfcde95" y="114.983041"/>
     <use style="fill:#2ca02c;stroke:#2ca02c;" x="295.517183" xlink:href="#m92edfcde95" y="115.897885"/>
     <use style="fill:#2ca02c;stroke:#2ca02c;" x="332.548013" xlink:href="#m92edfcde95" y="138.656133"/>
     <use style="fill:#2ca02c;stroke:#2ca02c;" x="354.20966" xlink:href="#m92edfcde95" y="149.85609"/>
     <use style="fill:#2ca02c;stroke:#2ca02c;" x="369.578843" xlink:href="#m92edfcde95" y="148.683616"/>
     <use style="fill:#2ca02c;stroke:#2ca02c;" x="391.24049" xlink:href="#m92edfcde95" y="121.37225"/>
     <use style="fill:#2ca02c;stroke:#2ca02c;" x="406.609673" xlink:href="#m92edfcde95" y="152.285278"/>
    </g>
   </g>
   <g id="line2d_48">
    <path clip-path="url(#pbcf3292bdb)" d="M -1 256.508777 
L 135.472598 256.499059 
L 184.424692 239.049491 
L 221.455522 259.032039 
L 258.486353 222.39625 
L 295.517183 250.66185 
L 332.548013 215.00425 
L 354.20966 227.45625 
L 369.578843 216.50505 
L 391.24049 247.82025 
L 406.609673 263.656627 
" style="fill:none;stroke:#d62728;stroke-linecap:square;stroke-width:1.5;"/>
    <defs>
     <path d="M 0 1.5 
C 0.397805 1.5 0.77937 1.341951 1.06066 1.06066 
C 1.341951 0.77937 1.5 0.397805 1.5 0 
C 1.5 -0.397805 1.341951 -0.77937 1.06066 -1.06066 
C 0.77937 -1.341951 0.397805 -1.5 0 -1.5 
C -0.397805 -1.5 -0.77937 -1.341951 -1.06066 -1.06066 
C -1.341951 -0.77937 -1.5 -0.397805 -1.5 0 
C -1.5 0.397805 -1.341951 0.77937 -1.06066 1.06066 
C -0.77937 1.341951 -0.397805 1.5 0 1.5 
z
" id="m851f591001" style="stroke:#d62728;"/>
    </defs>
    <g clip-path="url(#pbcf3292bdb)">
     <use style="fill:#d62728;stroke:#d62728;" x="-1" xlink:href="#m851f591001" y="256.508777"/>
     <use style="fill:#d62728;stroke:#d62728;" x="135.472598" xlink:href="#m851f591001" y="256.499059"/>
     <use style="fill:#d62728;stroke:#d62728;" x="184.424692" xlink:href="#m851f591001" y="239.049491"/>
     <use style="fill:#d62728;stroke:#d62728;" x="221.455522" xlink:href="#m851f591001" y="259.032039"/>
     <use style="fill:#d62728;stroke:#d62728;" x="258.486353" xlink:href="#m851f591001" y="222.39625"/>
     <use style="fill:#d62728;stroke:#d62728;" x="295.517183" xlink:href="#m851f591001" y="250.66185"/>
     <use style="fill:#d62728;stroke:#d62728;" x="332.548013" xlink:href="#m851f591001" y="215.00425"/>
     <use style="fill:#d62728;stroke:#d62728;" x="354.20966" xlink:href="#m851f591001" y="227.45625"/>
     <use style="fill:#d62728;stroke:#d62728;" x="369.578843" xlink:href="#m851f591001" y="216.50505"/>
     <use style="fill:#d62728;stroke:#d62728;" x="391.24049" xlink:href="#m851f591001" y="247.82025"/>
     <use style="fill:#d62728;stroke:#d62728;" x="406.609673" xlink:href="#m851f591001" y="263.656627"/>
    </g>
   </g>
   <g id="patch_3">
    <path d="M 61.410938 297.54825 
L 61.410938 31.43625 
" style="fill:none;stroke:#000000;stroke-linecap:square;stroke-linejoin:miter;stroke-width:0.8;"/>
   </g>
   <g id="patch_4">
    <path d="M 418.530938 297.54825 
L 418.530938 31.43625 
" style="fill:none;stroke:#000000;stroke-linecap:square;stroke-linejoin:miter;stroke-width:0.8;"/>
   </g>
   <g id="patch_5">
    <path d="M 61.410938 297.54825 
L 418.530938 297.54825 
" style="fill:none;stroke:#000000;stroke-linecap:square;stroke-linejoin:miter;stroke-width:0.8;"/>
   </g>
   <g id="patch_6">
    <path d="M 61.410938 31.43625 
L 418.530938 31.43625 
" style="fill:none;stroke:#000000;stroke-linecap:square;stroke-linejoin:miter;stroke-width:0.8;"/>
   </g>
   <g id="text_12">
    <!-- $\tau_{488}=4.1(14) ms$ -->
    <defs>
     <path d="M 32.859375 9.96875 
Q 34.1875 7.625 39.453125 7.625 
L 43.75 7.625 
L 42.28125 0 
L 36.921875 0 
Q 28.125 0 25 4.6875 
Q 21.921875 9.46875 23.96875 19.828125 
L 29 45.703125 
L 8.453125 45.703125 
L 10.203125 54.6875 
L 60.640625 54.6875 
L 58.890625 45.703125 
L 38.1875 45.703125 
L 33.015625 19.28125 
Q 31.640625 12.203125 32.859375 9.96875 
z
" id="DejaVuSans-Oblique-964"/>
     <path d="M 10.59375 45.40625 
L 73.1875 45.40625 
L 73.1875 37.203125 
L 10.59375 37.203125 
z
M 10.59375 25.484375 
L 73.1875 25.484375 
L 73.1875 17.1875 
L 10.59375 17.1875 
z
" id="DejaVuSans-61"/>
     <path d="M 89.796875 33.015625 
L 83.40625 0 
L 74.421875 0 
L 80.71875 32.71875 
Q 81.109375 34.8125 81.296875 36.328125 
Q 81.5 37.84375 81.5 38.921875 
Q 81.5 43.3125 79.046875 45.75 
Q 76.609375 48.1875 72.21875 48.1875 
Q 65.671875 48.1875 60.546875 43.28125 
Q 55.421875 38.375 53.90625 30.515625 
L 47.90625 0 
L 38.921875 0 
L 45.3125 32.71875 
Q 45.703125 34.515625 45.890625 36.046875 
Q 46.09375 37.59375 46.09375 38.8125 
Q 46.09375 43.265625 43.65625 45.71875 
Q 41.21875 48.1875 36.921875 48.1875 
Q 30.28125 48.1875 25.140625 43.28125 
Q 20.015625 38.375 18.5 30.515625 
L 12.5 0 
L 3.515625 0 
L 14.203125 54.6875 
L 23.1875 54.6875 
L 21.484375 46.1875 
Q 25.140625 50.984375 30.046875 53.484375 
Q 34.96875 56 40.578125 56 
Q 46.53125 56 50.359375 52.875 
Q 54.203125 49.75 54.984375 44.1875 
Q 59.078125 49.953125 64.46875 52.96875 
Q 69.875 56 75.875 56 
Q 82.90625 56 86.734375 51.953125 
Q 90.578125 47.90625 90.578125 40.484375 
Q 90.578125 38.875 90.375 36.9375 
Q 90.1875 35.015625 89.796875 33.015625 
z
" id="DejaVuSans-Oblique-109"/>
     <path d="M 50 53.078125 
L 48.296875 44.578125 
Q 44.734375 46.53125 40.765625 47.5 
Q 36.8125 48.484375 32.625 48.484375 
Q 25.53125 48.484375 21.453125 46.0625 
Q 17.390625 43.65625 17.390625 39.5 
Q 17.390625 34.671875 26.859375 32.078125 
Q 27.59375 31.890625 27.9375 31.78125 
L 30.8125 30.90625 
Q 39.796875 28.421875 42.796875 25.6875 
Q 45.796875 22.953125 45.796875 18.21875 
Q 45.796875 9.515625 38.890625 4.046875 
Q 31.984375 -1.421875 20.796875 -1.421875 
Q 16.453125 -1.421875 11.671875 -0.578125 
Q 6.890625 0.25 1.125 2 
L 2.875 11.28125 
Q 7.8125 8.734375 12.59375 7.421875 
Q 17.390625 6.109375 21.78125 6.109375 
Q 28.375 6.109375 32.5 8.9375 
Q 36.625 11.765625 36.625 16.109375 
Q 36.625 20.796875 25.78125 23.6875 
L 24.859375 23.921875 
L 21.78125 24.703125 
Q 14.9375 26.515625 11.765625 29.46875 
Q 8.59375 32.421875 8.59375 37.015625 
Q 8.59375 45.75 15.15625 50.875 
Q 21.734375 56 33.015625 56 
Q 37.453125 56 41.671875 55.265625 
Q 45.90625 54.546875 50 53.078125 
z
" id="DejaVuSans-Oblique-115"/>
    </defs>
    <g style="fill:#1f77b4;" transform="translate(71.15132 58.04745)scale(0.2 -0.2)">
     <use transform="translate(0 0.125)" xlink:href="#DejaVuSans-Oblique-964"/>
     <use transform="translate(60.205078 -16.28125)scale(0.7)" xlink:href="#DejaVuSans-52"/>
     <use transform="translate(104.741211 -16.28125)scale(0.7)" xlink:href="#DejaVuSans-56"/>
     <use transform="translate(149.277344 -16.28125)scale(0.7)" xlink:href="#DejaVuSans-56"/>
     <use transform="translate(216.030273 0.125)" xlink:href="#DejaVuSans-61"/>
     <use transform="translate(319.301758 0.125)" xlink:href="#DejaVuSans-52"/>
     <use transform="translate(382.924805 0.125)" xlink:href="#DejaVuSans-46"/>
     <use transform="translate(414.711914 0.125)" xlink:href="#DejaVuSans-49"/>
     <use transform="translate(478.334961 0.125)" xlink:href="#DejaVuSans-40"/>
     <use transform="translate(517.348633 0.125)" xlink:href="#DejaVuSans-49"/>
     <use transform="translate(580.97168 0.125)" xlink:href="#DejaVuSans-52"/>
     <use transform="translate(644.594727 0.125)" xlink:href="#DejaVuSans-41"/>
     <use transform="translate(683.608398 0.125)" xlink:href="#DejaVuSans-Oblique-109"/>
     <use transform="translate(781.020508 0.125)" xlink:href="#DejaVuSans-Oblique-115"/>
    </g>
   </g>
   <g id="text_13">
    <!-- $\tau_{635}=2.7(18) ms$ -->
    <defs>
     <path d="M 40.578125 39.3125 
Q 47.65625 37.796875 51.625 33 
Q 55.609375 28.21875 55.609375 21.1875 
Q 55.609375 10.40625 48.1875 4.484375 
Q 40.765625 -1.421875 27.09375 -1.421875 
Q 22.515625 -1.421875 17.65625 -0.515625 
Q 12.796875 0.390625 7.625 2.203125 
L 7.625 11.71875 
Q 11.71875 9.328125 16.59375 8.109375 
Q 21.484375 6.890625 26.8125 6.890625 
Q 36.078125 6.890625 40.9375 10.546875 
Q 45.796875 14.203125 45.796875 21.1875 
Q 45.796875 27.640625 41.28125 31.265625 
Q 36.765625 34.90625 28.71875 34.90625 
L 20.21875 34.90625 
L 20.21875 43.015625 
L 29.109375 43.015625 
Q 36.375 43.015625 40.234375 45.921875 
Q 44.09375 48.828125 44.09375 54.296875 
Q 44.09375 59.90625 40.109375 62.90625 
Q 36.140625 65.921875 28.71875 65.921875 
Q 24.65625 65.921875 20.015625 65.03125 
Q 15.375 64.15625 9.8125 62.3125 
L 9.8125 71.09375 
Q 15.4375 72.65625 20.34375 73.4375 
Q 25.25 74.21875 29.59375 74.21875 
Q 40.828125 74.21875 47.359375 69.109375 
Q 53.90625 64.015625 53.90625 55.328125 
Q 53.90625 49.265625 50.4375 45.09375 
Q 46.96875 40.921875 40.578125 39.3125 
z
" id="DejaVuSans-51"/>
     <path d="M 10.796875 72.90625 
L 49.515625 72.90625 
L 49.515625 64.59375 
L 19.828125 64.59375 
L 19.828125 46.734375 
Q 21.96875 47.46875 24.109375 47.828125 
Q 26.265625 48.1875 28.421875 48.1875 
Q 40.625 48.1875 47.75 41.5 
Q 54.890625 34.8125 54.890625 23.390625 
Q 54.890625 11.625 47.5625 5.09375 
Q 40.234375 -1.421875 26.90625 -1.421875 
Q 22.3125 -1.421875 17.546875 -0.640625 
Q 12.796875 0.140625 7.71875 1.703125 
L 7.71875 11.625 
Q 12.109375 9.234375 16.796875 8.0625 
Q 21.484375 6.890625 26.703125 6.890625 
Q 35.15625 6.890625 40.078125 11.328125 
Q 45.015625 15.765625 45.015625 23.390625 
Q 45.015625 31 40.078125 35.4375 
Q 35.15625 39.890625 26.703125 39.890625 
Q 22.75 39.890625 18.8125 39.015625 
Q 14.890625 38.140625 10.796875 36.28125 
z
" id="DejaVuSans-53"/>
     <path d="M 8.203125 72.90625 
L 55.078125 72.90625 
L 55.078125 68.703125 
L 28.609375 0 
L 18.3125 0 
L 43.21875 64.59375 
L 8.203125 64.59375 
z
" id="DejaVuSans-55"/>
    </defs>
    <g style="fill:#2ca02c;" transform="translate(249.80391 89.98089)scale(0.2 -0.2)">
     <use transform="translate(0 0.125)" xlink:href="#DejaVuSans-Oblique-964"/>
     <use transform="translate(60.205078 -16.28125)scale(0.7)" xlink:href="#DejaVuSans-54"/>
     <use transform="translate(104.741211 -16.28125)scale(0.7)" xlink:href="#DejaVuSans-51"/>
     <use transform="translate(149.277344 -16.28125)scale(0.7)" xlink:href="#DejaVuSans-53"/>
     <use transform="translate(216.030273 0.125)" xlink:href="#DejaVuSans-61"/>
     <use transform="translate(319.301758 0.125)" xlink:href="#DejaVuSans-50"/>
     <use transform="translate(382.924805 0.125)" xlink:href="#DejaVuSans-46"/>
     <use transform="translate(414.602539 0.125)" xlink:href="#DejaVuSans-55"/>
     <use transform="translate(478.225586 0.125)" xlink:href="#DejaVuSans-40"/>
     <use transform="translate(517.239258 0.125)" xlink:href="#DejaVuSans-49"/>
     <use transform="translate(580.862305 0.125)" xlink:href="#DejaVuSans-56"/>
     <use transform="translate(644.485352 0.125)" xlink:href="#DejaVuSans-41"/>
     <use transform="translate(683.499023 0.125)" xlink:href="#DejaVuSans-Oblique-109"/>
     <use transform="translate(780.911133 0.125)" xlink:href="#DejaVuSans-Oblique-115"/>
    </g>
   </g>
   <g id="text_14">
    <!-- Cs / Na + Cs -->
    <defs>
     <path d="M 25.390625 72.90625 
L 33.6875 72.90625 
L 8.296875 -9.28125 
L 0 -9.28125 
z
" id="DejaVuSans-47"/>
     <path d="M 9.8125 72.90625 
L 23.09375 72.90625 
L 55.421875 11.921875 
L 55.421875 72.90625 
L 64.984375 72.90625 
L 64.984375 0 
L 51.703125 0 
L 19.390625 60.984375 
L 19.390625 0 
L 9.8125 0 
z
" id="DejaVuSans-78"/>
     <path d="M 46 62.703125 
L 46 35.5 
L 73.1875 35.5 
L 73.1875 27.203125 
L 46 27.203125 
L 46 0 
L 37.796875 0 
L 37.796875 27.203125 
L 10.59375 27.203125 
L 10.59375 35.5 
L 37.796875 35.5 
L 37.796875 62.703125 
z
" id="DejaVuSans-43"/>
    </defs>
    <g transform="translate(165.025313 25.43625)scale(0.24 -0.24)">
     <use xlink:href="#DejaVuSans-67"/>
     <use x="69.824219" xlink:href="#DejaVuSans-115"/>
     <use x="121.923828" xlink:href="#DejaVuSans-32"/>
     <use x="153.710938" xlink:href="#DejaVuSans-47"/>
     <use x="187.402344" xlink:href="#DejaVuSans-32"/>
     <use x="219.189453" xlink:href="#DejaVuSans-78"/>
     <use x="293.994141" xlink:href="#DejaVuSans-97"/>
     <use x="355.273438" xlink:href="#DejaVuSans-32"/>
     <use x="387.060547" xlink:href="#DejaVuSans-43"/>
     <use x="470.849609" xlink:href="#DejaVuSans-32"/>
     <use x="502.636719" xlink:href="#DejaVuSans-67"/>
     <use x="572.460938" xlink:href="#DejaVuSans-115"/>
    </g>
   </g>
   <g id="legend_1">
    <g id="patch_7">
     <path d="M 73.072938 215.898762 
L 247.687959 215.898762 
Q 251.019959 215.898762 251.019959 212.566762 
L 251.019959 116.417737 
Q 251.019959 113.085737 247.687959 113.085737 
L 73.072938 113.085737 
Q 69.740938 113.085737 69.740938 116.417737 
L 69.740938 212.566762 
Q 69.740938 215.898762 73.072938 215.898762 
z
" style="fill:#ffffff;opacity:0.8;stroke:#cccccc;stroke-linejoin:miter;"/>
    </g>
    <g id="line2d_49">
     <path d="M 76.404938 126.577734 
L 109.724938 126.577734 
" style="fill:none;stroke:#1f77b4;stroke-linecap:square;stroke-width:1.5;"/>
    </g>
    <g id="line2d_50"/>
    <g id="text_15">
     <!-- 488 GHz Total -->
     <defs>
      <path d="M 59.515625 10.40625 
L 59.515625 29.984375 
L 43.40625 29.984375 
L 43.40625 38.09375 
L 69.28125 38.09375 
L 69.28125 6.78125 
Q 63.578125 2.734375 56.6875 0.65625 
Q 49.8125 -1.421875 42 -1.421875 
Q 24.90625 -1.421875 15.25 8.5625 
Q 5.609375 18.5625 5.609375 36.375 
Q 5.609375 54.25 15.25 64.234375 
Q 24.90625 74.21875 42 74.21875 
Q 49.125 74.21875 55.546875 72.453125 
Q 61.96875 70.703125 67.390625 67.28125 
L 67.390625 56.78125 
Q 61.921875 61.421875 55.765625 63.765625 
Q 49.609375 66.109375 42.828125 66.109375 
Q 29.4375 66.109375 22.71875 58.640625 
Q 16.015625 51.171875 16.015625 36.375 
Q 16.015625 21.625 22.71875 14.15625 
Q 29.4375 6.6875 42.828125 6.6875 
Q 48.046875 6.6875 52.140625 7.59375 
Q 56.25 8.5 59.515625 10.40625 
z
" id="DejaVuSans-71"/>
      <path d="M 9.8125 72.90625 
L 19.671875 72.90625 
L 19.671875 43.015625 
L 55.515625 43.015625 
L 55.515625 72.90625 
L 65.375 72.90625 
L 65.375 0 
L 55.515625 0 
L 55.515625 34.71875 
L 19.671875 34.71875 
L 19.671875 0 
L 9.8125 0 
z
" id="DejaVuSans-72"/>
      <path d="M 5.515625 54.6875 
L 48.1875 54.6875 
L 48.1875 46.484375 
L 14.40625 7.171875 
L 48.1875 7.171875 
L 48.1875 0 
L 4.296875 0 
L 4.296875 8.203125 
L 38.09375 47.515625 
L 5.515625 47.515625 
z
" id="DejaVuSans-122"/>
      <path d="M -0.296875 72.90625 
L 61.375 72.90625 
L 61.375 64.59375 
L 35.5 64.59375 
L 35.5 0 
L 25.59375 0 
L 25.59375 64.59375 
L -0.296875 64.59375 
z
" id="DejaVuSans-84"/>
      <path d="M 30.609375 48.390625 
Q 23.390625 48.390625 19.1875 42.75 
Q 14.984375 37.109375 14.984375 27.296875 
Q 14.984375 17.484375 19.15625 11.84375 
Q 23.34375 6.203125 30.609375 6.203125 
Q 37.796875 6.203125 41.984375 11.859375 
Q 46.1875 17.53125 46.1875 27.296875 
Q 46.1875 37.015625 41.984375 42.703125 
Q 37.796875 48.390625 30.609375 48.390625 
z
M 30.609375 56 
Q 42.328125 56 49.015625 48.375 
Q 55.71875 40.765625 55.71875 27.296875 
Q 55.71875 13.875 49.015625 6.21875 
Q 42.328125 -1.421875 30.609375 -1.421875 
Q 18.84375 -1.421875 12.171875 6.21875 
Q 5.515625 13.875 5.515625 27.296875 
Q 5.515625 40.765625 12.171875 48.375 
Q 18.84375 56 30.609375 56 
z
" id="DejaVuSans-111"/>
     </defs>
     <g transform="translate(123.052938 132.408734)scale(0.1666 -0.1666)">
      <use xlink:href="#DejaVuSans-52"/>
      <use x="63.623047" xlink:href="#DejaVuSans-56"/>
      <use x="127.246094" xlink:href="#DejaVuSans-56"/>
      <use x="190.869141" xlink:href="#DejaVuSans-32"/>
      <use x="222.65625" xlink:href="#DejaVuSans-71"/>
      <use x="300.146484" xlink:href="#DejaVuSans-72"/>
      <use x="375.341797" xlink:href="#DejaVuSans-122"/>
      <use x="427.832031" xlink:href="#DejaVuSans-32"/>
      <use x="459.619141" xlink:href="#DejaVuSans-84"/>
      <use x="520.4375" xlink:href="#DejaVuSans-111"/>
      <use x="581.619141" xlink:href="#DejaVuSans-116"/>
      <use x="620.828125" xlink:href="#DejaVuSans-97"/>
      <use x="682.107422" xlink:href="#DejaVuSans-108"/>
     </g>
    </g>
    <g id="line2d_51">
     <path d="M 76.404938 151.031491 
L 109.724938 151.031491 
" style="fill:none;stroke:#2ca02c;stroke-linecap:square;stroke-width:1.5;"/>
    </g>
    <g id="line2d_52"/>
    <g id="text_16">
     <!-- 635 GHz Total -->
     <g transform="translate(123.052938 156.862491)scale(0.1666 -0.1666)">
      <use xlink:href="#DejaVuSans-54"/>
      <use x="63.623047" xlink:href="#DejaVuSans-51"/>
      <use x="127.246094" xlink:href="#DejaVuSans-53"/>
      <use x="190.869141" xlink:href="#DejaVuSans-32"/>
      <use x="222.65625" xlink:href="#DejaVuSans-71"/>
      <use x="300.146484" xlink:href="#DejaVuSans-72"/>
      <use x="375.341797" xlink:href="#DejaVuSans-122"/>
      <use x="427.832031" xlink:href="#DejaVuSans-32"/>
      <use x="459.619141" xlink:href="#DejaVuSans-84"/>
      <use x="520.4375" xlink:href="#DejaVuSans-111"/>
      <use x="581.619141" xlink:href="#DejaVuSans-116"/>
      <use x="620.828125" xlink:href="#DejaVuSans-97"/>
      <use x="682.107422" xlink:href="#DejaVuSans-108"/>
     </g>
    </g>
    <g id="LineCollection_5">
     <path d="M 93.064938 183.815247 
L 93.064938 167.155247 
" style="fill:none;stroke:#ff7f0e;stroke-width:1.5;"/>
    </g>
    <g id="line2d_53">
     <path d="M 76.404938 175.485247 
L 109.724938 175.485247 
" style="fill:none;stroke:#ff7f0e;stroke-linecap:square;stroke-width:1.5;"/>
    </g>
    <g id="line2d_54">
     <g>
      <use style="fill:#ff7f0e;stroke:#ff7f0e;" x="93.064938" xlink:href="#m3e2fb6b177" y="175.485247"/>
     </g>
    </g>
    <g id="text_17">
     <!-- 488 GHz F = 3 -->
     <defs>
      <path d="M 9.8125 72.90625 
L 51.703125 72.90625 
L 51.703125 64.59375 
L 19.671875 64.59375 
L 19.671875 43.109375 
L 48.578125 43.109375 
L 48.578125 34.8125 
L 19.671875 34.8125 
L 19.671875 0 
L 9.8125 0 
z
" id="DejaVuSans-70"/>
     </defs>
     <g transform="translate(123.052938 181.316247)scale(0.1666 -0.1666)">
      <use xlink:href="#DejaVuSans-52"/>
      <use x="63.623047" xlink:href="#DejaVuSans-56"/>
      <use x="127.246094" xlink:href="#DejaVuSans-56"/>
      <use x="190.869141" xlink:href="#DejaVuSans-32"/>
      <use x="222.65625" xlink:href="#DejaVuSans-71"/>
      <use x="300.146484" xlink:href="#DejaVuSans-72"/>
      <use x="375.341797" xlink:href="#DejaVuSans-122"/>
      <use x="427.832031" xlink:href="#DejaVuSans-32"/>
      <use x="459.619141" xlink:href="#DejaVuSans-70"/>
      <use x="517.138672" xlink:href="#DejaVuSans-32"/>
      <use x="548.925781" xlink:href="#DejaVuSans-61"/>
      <use x="632.714844" xlink:href="#DejaVuSans-32"/>
      <use x="664.501953" xlink:href="#DejaVuSans-51"/>
     </g>
    </g>
    <g id="LineCollection_6">
     <path d="M 93.064938 208.269003 
L 93.064938 191.609003 
" style="fill:none;stroke:#d62728;stroke-width:1.5;"/>
    </g>
    <g id="line2d_55">
     <path d="M 76.404938 199.939003 
L 109.724938 199.939003 
" style="fill:none;stroke:#d62728;stroke-linecap:square;stroke-width:1.5;"/>
    </g>
    <g id="line2d_56">
     <g>
      <use style="fill:#d62728;stroke:#d62728;" x="93.064938" xlink:href="#m851f591001" y="199.939003"/>
     </g>
    </g>
    <g id="text_18">
     <!-- 635 GHz F = 3 -->
     <g transform="translate(123.052938 205.770003)scale(0.1666 -0.1666)">
      <use xlink:href="#DejaVuSans-54"/>
      <use x="63.623047" xlink:href="#DejaVuSans-51"/>
      <use x="127.246094" xlink:href="#DejaVuSans-53"/>
      <use x="190.869141" xlink:href="#DejaVuSans-32"/>
      <use x="222.65625" xlink:href="#DejaVuSans-71"/>
      <use x="300.146484" xlink:href="#DejaVuSans-72"/>
      <use x="375.341797" xlink:href="#DejaVuSans-122"/>
      <use x="427.832031" xlink:href="#DejaVuSans-32"/>
      <use x="459.619141" xlink:href="#DejaVuSans-70"/>
      <use x="517.138672" xlink:href="#DejaVuSans-32"/>
      <use x="548.925781" xlink:href="#DejaVuSans-61"/>
      <use x="632.714844" xlink:href="#DejaVuSans-32"/>
      <use x="664.501953" xlink:href="#DejaVuSans-51"/>
     </g>
    </g>
   </g>
  </g>
 </g>
 <defs>
  <clipPath id="pbcf3292bdb">
   <rect height="266.112" width="357.12" x="61.410938" y="31.43625"/>
  </clipPath>
 </defs>
</svg>
