<?xml version="1.0" encoding="utf-8" standalone="no"?>
<!DOCTYPE svg PUBLIC "-//W3C//DTD SVG 1.1//EN"
  "http://www.w3.org/Graphics/SVG/1.1/DTD/svg11.dtd">
<!-- Created with matplotlib (https://matplotlib.org/) -->
<svg height="349.621687pt" version="1.1" viewBox="0 0 435.274687 349.621687" width="435.274687pt" xmlns="http://www.w3.org/2000/svg" xmlns:xlink="http://www.w3.org/1999/xlink">
 <defs>
  <style type="text/css">
*{stroke-linecap:butt;stroke-linejoin:round;}
  </style>
 </defs>
 <g id="figure_1">
  <g id="patch_1">
   <path d="M 0 349.621687 
L 435.274687 349.621687 
L 435.274687 0 
L 0 0 
z
" style="fill:none;"/>
  </g>
  <g id="axes_1">
   <g id="patch_2">
    <path d="M 70.954688 297.54825 
L 428.074687 297.54825 
L 428.074687 31.43625 
L 70.954688 31.43625 
z
" style="fill:none;"/>
   </g>
   <g id="matplotlib.axis_1">
    <g id="xtick_1">
     <g id="line2d_1">
      <path clip-path="url(#p140c2fcd43)" d="M 82.989296 297.54825 
L 82.989296 31.43625 
" style="fill:none;stroke:#b0b0b0;stroke-linecap:square;stroke-width:0.8;"/>
     </g>
     <g id="line2d_2">
      <defs>
       <path d="M 0 0 
L 0 3.5 
" id="m005f0a59be" style="stroke:#000000;stroke-width:0.8;"/>
      </defs>
      <g>
       <use style="stroke:#000000;stroke-width:0.8;" x="82.989296" xlink:href="#m005f0a59be" y="297.54825"/>
      </g>
     </g>
     <g id="text_1">
      <!-- 0.050 -->
      <defs>
       <path d="M 31.78125 66.40625 
Q 24.171875 66.40625 20.328125 58.90625 
Q 16.5 51.421875 16.5 36.375 
Q 16.5 21.390625 20.328125 13.890625 
Q 24.171875 6.390625 31.78125 6.390625 
Q 39.453125 6.390625 43.28125 13.890625 
Q 47.125 21.390625 47.125 36.375 
Q 47.125 51.421875 43.28125 58.90625 
Q 39.453125 66.40625 31.78125 66.40625 
z
M 31.78125 74.21875 
Q 44.046875 74.21875 50.515625 64.515625 
Q 56.984375 54.828125 56.984375 36.375 
Q 56.984375 17.96875 50.515625 8.265625 
Q 44.046875 -1.421875 31.78125 -1.421875 
Q 19.53125 -1.421875 13.0625 8.265625 
Q 6.59375 17.96875 6.59375 36.375 
Q 6.59375 54.828125 13.0625 64.515625 
Q 19.53125 74.21875 31.78125 74.21875 
z
" id="DejaVuSans-48"/>
       <path d="M 10.6875 12.40625 
L 21 12.40625 
L 21 0 
L 10.6875 0 
z
" id="DejaVuSans-46"/>
       <path d="M 10.796875 72.90625 
L 49.515625 72.90625 
L 49.515625 64.59375 
L 19.828125 64.59375 
L 19.828125 46.734375 
Q 21.96875 47.46875 24.109375 47.828125 
Q 26.265625 48.1875 28.421875 48.1875 
Q 40.625 48.1875 47.75 41.5 
Q 54.890625 34.8125 54.890625 23.390625 
Q 54.890625 11.625 47.5625 5.09375 
Q 40.234375 -1.421875 26.90625 -1.421875 
Q 22.3125 -1.421875 17.546875 -0.640625 
Q 12.796875 0.140625 7.71875 1.703125 
L 7.71875 11.625 
Q 12.109375 9.234375 16.796875 8.0625 
Q 21.484375 6.890625 26.703125 6.890625 
Q 35.15625 6.890625 40.078125 11.328125 
Q 45.015625 15.765625 45.015625 23.390625 
Q 45.015625 31 40.078125 35.4375 
Q 35.15625 39.890625 26.703125 39.890625 
Q 22.75 39.890625 18.8125 39.015625 
Q 14.890625 38.140625 10.796875 36.28125 
z
" id="DejaVuSans-53"/>
      </defs>
      <g transform="translate(61.518202 315.945906)scale(0.15 -0.15)">
       <use xlink:href="#DejaVuSans-48"/>
       <use x="63.623047" xlink:href="#DejaVuSans-46"/>
       <use x="95.410156" xlink:href="#DejaVuSans-48"/>
       <use x="159.033203" xlink:href="#DejaVuSans-53"/>
       <use x="222.65625" xlink:href="#DejaVuSans-48"/>
      </g>
     </g>
    </g>
    <g id="xtick_2">
     <g id="line2d_3">
      <path clip-path="url(#p140c2fcd43)" d="M 152.957948 297.54825 
L 152.957948 31.43625 
" style="fill:none;stroke:#b0b0b0;stroke-linecap:square;stroke-width:0.8;"/>
     </g>
     <g id="line2d_4">
      <g>
       <use style="stroke:#000000;stroke-width:0.8;" x="152.957948" xlink:href="#m005f0a59be" y="297.54825"/>
      </g>
     </g>
     <g id="text_2">
      <!-- 0.055 -->
      <g transform="translate(131.486854 315.945906)scale(0.15 -0.15)">
       <use xlink:href="#DejaVuSans-48"/>
       <use x="63.623047" xlink:href="#DejaVuSans-46"/>
       <use x="95.410156" xlink:href="#DejaVuSans-48"/>
       <use x="159.033203" xlink:href="#DejaVuSans-53"/>
       <use x="222.65625" xlink:href="#DejaVuSans-53"/>
      </g>
     </g>
    </g>
    <g id="xtick_3">
     <g id="line2d_5">
      <path clip-path="url(#p140c2fcd43)" d="M 222.9266 297.54825 
L 222.9266 31.43625 
" style="fill:none;stroke:#b0b0b0;stroke-linecap:square;stroke-width:0.8;"/>
     </g>
     <g id="line2d_6">
      <g>
       <use style="stroke:#000000;stroke-width:0.8;" x="222.9266" xlink:href="#m005f0a59be" y="297.54825"/>
      </g>
     </g>
     <g id="text_3">
      <!-- 0.060 -->
      <defs>
       <path d="M 33.015625 40.375 
Q 26.375 40.375 22.484375 35.828125 
Q 18.609375 31.296875 18.609375 23.390625 
Q 18.609375 15.53125 22.484375 10.953125 
Q 26.375 6.390625 33.015625 6.390625 
Q 39.65625 6.390625 43.53125 10.953125 
Q 47.40625 15.53125 47.40625 23.390625 
Q 47.40625 31.296875 43.53125 35.828125 
Q 39.65625 40.375 33.015625 40.375 
z
M 52.59375 71.296875 
L 52.59375 62.3125 
Q 48.875 64.0625 45.09375 64.984375 
Q 41.3125 65.921875 37.59375 65.921875 
Q 27.828125 65.921875 22.671875 59.328125 
Q 17.53125 52.734375 16.796875 39.40625 
Q 19.671875 43.65625 24.015625 45.921875 
Q 28.375 48.1875 33.59375 48.1875 
Q 44.578125 48.1875 50.953125 41.515625 
Q 57.328125 34.859375 57.328125 23.390625 
Q 57.328125 12.15625 50.6875 5.359375 
Q 44.046875 -1.421875 33.015625 -1.421875 
Q 20.359375 -1.421875 13.671875 8.265625 
Q 6.984375 17.96875 6.984375 36.375 
Q 6.984375 53.65625 15.1875 63.9375 
Q 23.390625 74.21875 37.203125 74.21875 
Q 40.921875 74.21875 44.703125 73.484375 
Q 48.484375 72.75 52.59375 71.296875 
z
" id="DejaVuSans-54"/>
      </defs>
      <g transform="translate(201.455506 315.945906)scale(0.15 -0.15)">
       <use xlink:href="#DejaVuSans-48"/>
       <use x="63.623047" xlink:href="#DejaVuSans-46"/>
       <use x="95.410156" xlink:href="#DejaVuSans-48"/>
       <use x="159.033203" xlink:href="#DejaVuSans-54"/>
       <use x="222.65625" xlink:href="#DejaVuSans-48"/>
      </g>
     </g>
    </g>
    <g id="xtick_4">
     <g id="line2d_7">
      <path clip-path="url(#p140c2fcd43)" d="M 292.895252 297.54825 
L 292.895252 31.43625 
" style="fill:none;stroke:#b0b0b0;stroke-linecap:square;stroke-width:0.8;"/>
     </g>
     <g id="line2d_8">
      <g>
       <use style="stroke:#000000;stroke-width:0.8;" x="292.895252" xlink:href="#m005f0a59be" y="297.54825"/>
      </g>
     </g>
     <g id="text_4">
      <!-- 0.065 -->
      <g transform="translate(271.424158 315.945906)scale(0.15 -0.15)">
       <use xlink:href="#DejaVuSans-48"/>
       <use x="63.623047" xlink:href="#DejaVuSans-46"/>
       <use x="95.410156" xlink:href="#DejaVuSans-48"/>
       <use x="159.033203" xlink:href="#DejaVuSans-54"/>
       <use x="222.65625" xlink:href="#DejaVuSans-53"/>
      </g>
     </g>
    </g>
    <g id="xtick_5">
     <g id="line2d_9">
      <path clip-path="url(#p140c2fcd43)" d="M 362.863904 297.54825 
L 362.863904 31.43625 
" style="fill:none;stroke:#b0b0b0;stroke-linecap:square;stroke-width:0.8;"/>
     </g>
     <g id="line2d_10">
      <g>
       <use style="stroke:#000000;stroke-width:0.8;" x="362.863904" xlink:href="#m005f0a59be" y="297.54825"/>
      </g>
     </g>
     <g id="text_5">
      <!-- 0.070 -->
      <defs>
       <path d="M 8.203125 72.90625 
L 55.078125 72.90625 
L 55.078125 68.703125 
L 28.609375 0 
L 18.3125 0 
L 43.21875 64.59375 
L 8.203125 64.59375 
z
" id="DejaVuSans-55"/>
      </defs>
      <g transform="translate(341.39281 315.945906)scale(0.15 -0.15)">
       <use xlink:href="#DejaVuSans-48"/>
       <use x="63.623047" xlink:href="#DejaVuSans-46"/>
       <use x="95.410156" xlink:href="#DejaVuSans-48"/>
       <use x="159.033203" xlink:href="#DejaVuSans-55"/>
       <use x="222.65625" xlink:href="#DejaVuSans-48"/>
      </g>
     </g>
    </g>
    <g id="text_6">
     <!-- 2-Photon Detuning (MHz) -->
     <defs>
      <path d="M 19.1875 8.296875 
L 53.609375 8.296875 
L 53.609375 0 
L 7.328125 0 
L 7.328125 8.296875 
Q 12.9375 14.109375 22.625 23.890625 
Q 32.328125 33.6875 34.8125 36.53125 
Q 39.546875 41.84375 41.421875 45.53125 
Q 43.3125 49.21875 43.3125 52.78125 
Q 43.3125 58.59375 39.234375 62.25 
Q 35.15625 65.921875 28.609375 65.921875 
Q 23.96875 65.921875 18.8125 64.3125 
Q 13.671875 62.703125 7.8125 59.421875 
L 7.8125 69.390625 
Q 13.765625 71.78125 18.9375 73 
Q 24.125 74.21875 28.421875 74.21875 
Q 39.75 74.21875 46.484375 68.546875 
Q 53.21875 62.890625 53.21875 53.421875 
Q 53.21875 48.921875 51.53125 44.890625 
Q 49.859375 40.875 45.40625 35.40625 
Q 44.1875 33.984375 37.640625 27.21875 
Q 31.109375 20.453125 19.1875 8.296875 
z
" id="DejaVuSans-50"/>
      <path d="M 4.890625 31.390625 
L 31.203125 31.390625 
L 31.203125 23.390625 
L 4.890625 23.390625 
z
" id="DejaVuSans-45"/>
      <path d="M 19.671875 64.796875 
L 19.671875 37.40625 
L 32.078125 37.40625 
Q 38.96875 37.40625 42.71875 40.96875 
Q 46.484375 44.53125 46.484375 51.125 
Q 46.484375 57.671875 42.71875 61.234375 
Q 38.96875 64.796875 32.078125 64.796875 
z
M 9.8125 72.90625 
L 32.078125 72.90625 
Q 44.34375 72.90625 50.609375 67.359375 
Q 56.890625 61.8125 56.890625 51.125 
Q 56.890625 40.328125 50.609375 34.8125 
Q 44.34375 29.296875 32.078125 29.296875 
L 19.671875 29.296875 
L 19.671875 0 
L 9.8125 0 
z
" id="DejaVuSans-80"/>
      <path d="M 54.890625 33.015625 
L 54.890625 0 
L 45.90625 0 
L 45.90625 32.71875 
Q 45.90625 40.484375 42.875 44.328125 
Q 39.84375 48.1875 33.796875 48.1875 
Q 26.515625 48.1875 22.3125 43.546875 
Q 18.109375 38.921875 18.109375 30.90625 
L 18.109375 0 
L 9.078125 0 
L 9.078125 75.984375 
L 18.109375 75.984375 
L 18.109375 46.1875 
Q 21.34375 51.125 25.703125 53.5625 
Q 30.078125 56 35.796875 56 
Q 45.21875 56 50.046875 50.171875 
Q 54.890625 44.34375 54.890625 33.015625 
z
" id="DejaVuSans-104"/>
      <path d="M 30.609375 48.390625 
Q 23.390625 48.390625 19.1875 42.75 
Q 14.984375 37.109375 14.984375 27.296875 
Q 14.984375 17.484375 19.15625 11.84375 
Q 23.34375 6.203125 30.609375 6.203125 
Q 37.796875 6.203125 41.984375 11.859375 
Q 46.1875 17.53125 46.1875 27.296875 
Q 46.1875 37.015625 41.984375 42.703125 
Q 37.796875 48.390625 30.609375 48.390625 
z
M 30.609375 56 
Q 42.328125 56 49.015625 48.375 
Q 55.71875 40.765625 55.71875 27.296875 
Q 55.71875 13.875 49.015625 6.21875 
Q 42.328125 -1.421875 30.609375 -1.421875 
Q 18.84375 -1.421875 12.171875 6.21875 
Q 5.515625 13.875 5.515625 27.296875 
Q 5.515625 40.765625 12.171875 48.375 
Q 18.84375 56 30.609375 56 
z
" id="DejaVuSans-111"/>
      <path d="M 18.3125 70.21875 
L 18.3125 54.6875 
L 36.8125 54.6875 
L 36.8125 47.703125 
L 18.3125 47.703125 
L 18.3125 18.015625 
Q 18.3125 11.328125 20.140625 9.421875 
Q 21.96875 7.515625 27.59375 7.515625 
L 36.8125 7.515625 
L 36.8125 0 
L 27.59375 0 
Q 17.1875 0 13.234375 3.875 
Q 9.28125 7.765625 9.28125 18.015625 
L 9.28125 47.703125 
L 2.6875 47.703125 
L 2.6875 54.6875 
L 9.28125 54.6875 
L 9.28125 70.21875 
z
" id="DejaVuSans-116"/>
      <path d="M 54.890625 33.015625 
L 54.890625 0 
L 45.90625 0 
L 45.90625 32.71875 
Q 45.90625 40.484375 42.875 44.328125 
Q 39.84375 48.1875 33.796875 48.1875 
Q 26.515625 48.1875 22.3125 43.546875 
Q 18.109375 38.921875 18.109375 30.90625 
L 18.109375 0 
L 9.078125 0 
L 9.078125 54.6875 
L 18.109375 54.6875 
L 18.109375 46.1875 
Q 21.34375 51.125 25.703125 53.5625 
Q 30.078125 56 35.796875 56 
Q 45.21875 56 50.046875 50.171875 
Q 54.890625 44.34375 54.890625 33.015625 
z
" id="DejaVuSans-110"/>
      <path id="DejaVuSans-32"/>
      <path d="M 19.671875 64.796875 
L 19.671875 8.109375 
L 31.59375 8.109375 
Q 46.6875 8.109375 53.6875 14.9375 
Q 60.6875 21.78125 60.6875 36.53125 
Q 60.6875 51.171875 53.6875 57.984375 
Q 46.6875 64.796875 31.59375 64.796875 
z
M 9.8125 72.90625 
L 30.078125 72.90625 
Q 51.265625 72.90625 61.171875 64.09375 
Q 71.09375 55.28125 71.09375 36.53125 
Q 71.09375 17.671875 61.125 8.828125 
Q 51.171875 0 30.078125 0 
L 9.8125 0 
z
" id="DejaVuSans-68"/>
      <path d="M 56.203125 29.59375 
L 56.203125 25.203125 
L 14.890625 25.203125 
Q 15.484375 15.921875 20.484375 11.0625 
Q 25.484375 6.203125 34.421875 6.203125 
Q 39.59375 6.203125 44.453125 7.46875 
Q 49.3125 8.734375 54.109375 11.28125 
L 54.109375 2.78125 
Q 49.265625 0.734375 44.1875 -0.34375 
Q 39.109375 -1.421875 33.890625 -1.421875 
Q 20.796875 -1.421875 13.15625 6.1875 
Q 5.515625 13.8125 5.515625 26.8125 
Q 5.515625 40.234375 12.765625 48.109375 
Q 20.015625 56 32.328125 56 
Q 43.359375 56 49.78125 48.890625 
Q 56.203125 41.796875 56.203125 29.59375 
z
M 47.21875 32.234375 
Q 47.125 39.59375 43.09375 43.984375 
Q 39.0625 48.390625 32.421875 48.390625 
Q 24.90625 48.390625 20.390625 44.140625 
Q 15.875 39.890625 15.1875 32.171875 
z
" id="DejaVuSans-101"/>
      <path d="M 8.5 21.578125 
L 8.5 54.6875 
L 17.484375 54.6875 
L 17.484375 21.921875 
Q 17.484375 14.15625 20.5 10.265625 
Q 23.53125 6.390625 29.59375 6.390625 
Q 36.859375 6.390625 41.078125 11.03125 
Q 45.3125 15.671875 45.3125 23.6875 
L 45.3125 54.6875 
L 54.296875 54.6875 
L 54.296875 0 
L 45.3125 0 
L 45.3125 8.40625 
Q 42.046875 3.421875 37.71875 1 
Q 33.40625 -1.421875 27.6875 -1.421875 
Q 18.265625 -1.421875 13.375 4.4375 
Q 8.5 10.296875 8.5 21.578125 
z
M 31.109375 56 
z
" id="DejaVuSans-117"/>
      <path d="M 9.421875 54.6875 
L 18.40625 54.6875 
L 18.40625 0 
L 9.421875 0 
z
M 9.421875 75.984375 
L 18.40625 75.984375 
L 18.40625 64.59375 
L 9.421875 64.59375 
z
" id="DejaVuSans-105"/>
      <path d="M 45.40625 27.984375 
Q 45.40625 37.75 41.375 43.109375 
Q 37.359375 48.484375 30.078125 48.484375 
Q 22.859375 48.484375 18.828125 43.109375 
Q 14.796875 37.75 14.796875 27.984375 
Q 14.796875 18.265625 18.828125 12.890625 
Q 22.859375 7.515625 30.078125 7.515625 
Q 37.359375 7.515625 41.375 12.890625 
Q 45.40625 18.265625 45.40625 27.984375 
z
M 54.390625 6.78125 
Q 54.390625 -7.171875 48.1875 -13.984375 
Q 42 -20.796875 29.203125 -20.796875 
Q 24.46875 -20.796875 20.265625 -20.09375 
Q 16.0625 -19.390625 12.109375 -17.921875 
L 12.109375 -9.1875 
Q 16.0625 -11.328125 19.921875 -12.34375 
Q 23.78125 -13.375 27.78125 -13.375 
Q 36.625 -13.375 41.015625 -8.765625 
Q 45.40625 -4.15625 45.40625 5.171875 
L 45.40625 9.625 
Q 42.625 4.78125 38.28125 2.390625 
Q 33.9375 0 27.875 0 
Q 17.828125 0 11.671875 7.65625 
Q 5.515625 15.328125 5.515625 27.984375 
Q 5.515625 40.671875 11.671875 48.328125 
Q 17.828125 56 27.875 56 
Q 33.9375 56 38.28125 53.609375 
Q 42.625 51.21875 45.40625 46.390625 
L 45.40625 54.6875 
L 54.390625 54.6875 
z
" id="DejaVuSans-103"/>
      <path d="M 31 75.875 
Q 24.46875 64.65625 21.28125 53.65625 
Q 18.109375 42.671875 18.109375 31.390625 
Q 18.109375 20.125 21.3125 9.0625 
Q 24.515625 -2 31 -13.1875 
L 23.1875 -13.1875 
Q 15.875 -1.703125 12.234375 9.375 
Q 8.59375 20.453125 8.59375 31.390625 
Q 8.59375 42.28125 12.203125 53.3125 
Q 15.828125 64.359375 23.1875 75.875 
z
" id="DejaVuSans-40"/>
      <path d="M 9.8125 72.90625 
L 24.515625 72.90625 
L 43.109375 23.296875 
L 61.8125 72.90625 
L 76.515625 72.90625 
L 76.515625 0 
L 66.890625 0 
L 66.890625 64.015625 
L 48.09375 14.015625 
L 38.1875 14.015625 
L 19.390625 64.015625 
L 19.390625 0 
L 9.8125 0 
z
" id="DejaVuSans-77"/>
      <path d="M 9.8125 72.90625 
L 19.671875 72.90625 
L 19.671875 43.015625 
L 55.515625 43.015625 
L 55.515625 72.90625 
L 65.375 72.90625 
L 65.375 0 
L 55.515625 0 
L 55.515625 34.71875 
L 19.671875 34.71875 
L 19.671875 0 
L 9.8125 0 
z
" id="DejaVuSans-72"/>
      <path d="M 5.515625 54.6875 
L 48.1875 54.6875 
L 48.1875 46.484375 
L 14.40625 7.171875 
L 48.1875 7.171875 
L 48.1875 0 
L 4.296875 0 
L 4.296875 8.203125 
L 38.09375 47.515625 
L 5.515625 47.515625 
z
" id="DejaVuSans-122"/>
      <path d="M 8.015625 75.875 
L 15.828125 75.875 
Q 23.140625 64.359375 26.78125 53.3125 
Q 30.421875 42.28125 30.421875 31.390625 
Q 30.421875 20.453125 26.78125 9.375 
Q 23.140625 -1.703125 15.828125 -13.1875 
L 8.015625 -13.1875 
Q 14.5 -2 17.703125 9.0625 
Q 20.90625 20.125 20.90625 31.390625 
Q 20.90625 42.671875 17.703125 53.65625 
Q 14.5 64.65625 8.015625 75.875 
z
" id="DejaVuSans-41"/>
     </defs>
     <g transform="translate(123.213125 338.262312)scale(0.2 -0.2)">
      <use xlink:href="#DejaVuSans-50"/>
      <use x="63.623047" xlink:href="#DejaVuSans-45"/>
      <use x="99.707031" xlink:href="#DejaVuSans-80"/>
      <use x="160.009766" xlink:href="#DejaVuSans-104"/>
      <use x="223.388672" xlink:href="#DejaVuSans-111"/>
      <use x="284.570312" xlink:href="#DejaVuSans-116"/>
      <use x="323.779297" xlink:href="#DejaVuSans-111"/>
      <use x="384.960938" xlink:href="#DejaVuSans-110"/>
      <use x="448.339844" xlink:href="#DejaVuSans-32"/>
      <use x="480.126953" xlink:href="#DejaVuSans-68"/>
      <use x="557.128906" xlink:href="#DejaVuSans-101"/>
      <use x="618.652344" xlink:href="#DejaVuSans-116"/>
      <use x="657.861328" xlink:href="#DejaVuSans-117"/>
      <use x="721.240234" xlink:href="#DejaVuSans-110"/>
      <use x="784.619141" xlink:href="#DejaVuSans-105"/>
      <use x="812.402344" xlink:href="#DejaVuSans-110"/>
      <use x="875.78125" xlink:href="#DejaVuSans-103"/>
      <use x="939.257812" xlink:href="#DejaVuSans-32"/>
      <use x="971.044922" xlink:href="#DejaVuSans-40"/>
      <use x="1010.058594" xlink:href="#DejaVuSans-77"/>
      <use x="1096.337891" xlink:href="#DejaVuSans-72"/>
      <use x="1171.533203" xlink:href="#DejaVuSans-122"/>
      <use x="1224.023438" xlink:href="#DejaVuSans-41"/>
     </g>
    </g>
    <g id="text_7">
     <!-- +3.678e2 -->
     <defs>
      <path d="M 46 62.703125 
L 46 35.5 
L 73.1875 35.5 
L 73.1875 27.203125 
L 46 27.203125 
L 46 0 
L 37.796875 0 
L 37.796875 27.203125 
L 10.59375 27.203125 
L 10.59375 35.5 
L 37.796875 35.5 
L 37.796875 62.703125 
z
" id="DejaVuSans-43"/>
      <path d="M 40.578125 39.3125 
Q 47.65625 37.796875 51.625 33 
Q 55.609375 28.21875 55.609375 21.1875 
Q 55.609375 10.40625 48.1875 4.484375 
Q 40.765625 -1.421875 27.09375 -1.421875 
Q 22.515625 -1.421875 17.65625 -0.515625 
Q 12.796875 0.390625 7.625 2.203125 
L 7.625 11.71875 
Q 11.71875 9.328125 16.59375 8.109375 
Q 21.484375 6.890625 26.8125 6.890625 
Q 36.078125 6.890625 40.9375 10.546875 
Q 45.796875 14.203125 45.796875 21.1875 
Q 45.796875 27.640625 41.28125 31.265625 
Q 36.765625 34.90625 28.71875 34.90625 
L 20.21875 34.90625 
L 20.21875 43.015625 
L 29.109375 43.015625 
Q 36.375 43.015625 40.234375 45.921875 
Q 44.09375 48.828125 44.09375 54.296875 
Q 44.09375 59.90625 40.109375 62.90625 
Q 36.140625 65.921875 28.71875 65.921875 
Q 24.65625 65.921875 20.015625 65.03125 
Q 15.375 64.15625 9.8125 62.3125 
L 9.8125 71.09375 
Q 15.4375 72.65625 20.34375 73.4375 
Q 25.25 74.21875 29.59375 74.21875 
Q 40.828125 74.21875 47.359375 69.109375 
Q 53.90625 64.015625 53.90625 55.328125 
Q 53.90625 49.265625 50.4375 45.09375 
Q 46.96875 40.921875 40.578125 39.3125 
z
" id="DejaVuSans-51"/>
      <path d="M 31.78125 34.625 
Q 24.75 34.625 20.71875 30.859375 
Q 16.703125 27.09375 16.703125 20.515625 
Q 16.703125 13.921875 20.71875 10.15625 
Q 24.75 6.390625 31.78125 6.390625 
Q 38.8125 6.390625 42.859375 10.171875 
Q 46.921875 13.96875 46.921875 20.515625 
Q 46.921875 27.09375 42.890625 30.859375 
Q 38.875 34.625 31.78125 34.625 
z
M 21.921875 38.8125 
Q 15.578125 40.375 12.03125 44.71875 
Q 8.5 49.078125 8.5 55.328125 
Q 8.5 64.0625 14.71875 69.140625 
Q 20.953125 74.21875 31.78125 74.21875 
Q 42.671875 74.21875 48.875 69.140625 
Q 55.078125 64.0625 55.078125 55.328125 
Q 55.078125 49.078125 51.53125 44.71875 
Q 48 40.375 41.703125 38.8125 
Q 48.828125 37.15625 52.796875 32.3125 
Q 56.78125 27.484375 56.78125 20.515625 
Q 56.78125 9.90625 50.3125 4.234375 
Q 43.84375 -1.421875 31.78125 -1.421875 
Q 19.734375 -1.421875 13.25 4.234375 
Q 6.78125 9.90625 6.78125 20.515625 
Q 6.78125 27.484375 10.78125 32.3125 
Q 14.796875 37.15625 21.921875 38.8125 
z
M 18.3125 54.390625 
Q 18.3125 48.734375 21.84375 45.5625 
Q 25.390625 42.390625 31.78125 42.390625 
Q 38.140625 42.390625 41.71875 45.5625 
Q 45.3125 48.734375 45.3125 54.390625 
Q 45.3125 60.0625 41.71875 63.234375 
Q 38.140625 66.40625 31.78125 66.40625 
Q 25.390625 66.40625 21.84375 63.234375 
Q 18.3125 60.0625 18.3125 54.390625 
z
" id="DejaVuSans-56"/>
     </defs>
     <g transform="translate(353.789531 333.463094)scale(0.15 -0.15)">
      <use xlink:href="#DejaVuSans-43"/>
      <use x="83.789062" xlink:href="#DejaVuSans-51"/>
      <use x="147.412109" xlink:href="#DejaVuSans-46"/>
      <use x="179.199219" xlink:href="#DejaVuSans-54"/>
      <use x="242.822266" xlink:href="#DejaVuSans-55"/>
      <use x="306.445312" xlink:href="#DejaVuSans-56"/>
      <use x="370.068359" xlink:href="#DejaVuSans-101"/>
      <use x="431.591797" xlink:href="#DejaVuSans-50"/>
     </g>
    </g>
   </g>
   <g id="matplotlib.axis_2">
    <g id="ytick_1">
     <g id="line2d_11">
      <path clip-path="url(#p140c2fcd43)" d="M 70.954688 277.078096 
L 428.074687 277.078096 
" style="fill:none;stroke:#b0b0b0;stroke-linecap:square;stroke-width:0.8;"/>
     </g>
     <g id="line2d_12">
      <defs>
       <path d="M 0 0 
L -3.5 0 
" id="mc3ce260a5b" style="stroke:#000000;stroke-width:0.8;"/>
      </defs>
      <g>
       <use style="stroke:#000000;stroke-width:0.8;" x="70.954688" xlink:href="#mc3ce260a5b" y="277.078096"/>
      </g>
     </g>
     <g id="text_8">
      <!-- 0.45 -->
      <defs>
       <path d="M 37.796875 64.3125 
L 12.890625 25.390625 
L 37.796875 25.390625 
z
M 35.203125 72.90625 
L 47.609375 72.90625 
L 47.609375 25.390625 
L 58.015625 25.390625 
L 58.015625 17.1875 
L 47.609375 17.1875 
L 47.609375 0 
L 37.796875 0 
L 37.796875 17.1875 
L 4.890625 17.1875 
L 4.890625 26.703125 
z
" id="DejaVuSans-52"/>
      </defs>
      <g transform="translate(30.55625 282.776924)scale(0.15 -0.15)">
       <use xlink:href="#DejaVuSans-48"/>
       <use x="63.623047" xlink:href="#DejaVuSans-46"/>
       <use x="95.410156" xlink:href="#DejaVuSans-52"/>
       <use x="159.033203" xlink:href="#DejaVuSans-53"/>
      </g>
     </g>
    </g>
    <g id="ytick_2">
     <g id="line2d_13">
      <path clip-path="url(#p140c2fcd43)" d="M 70.954688 225.902712 
L 428.074687 225.902712 
" style="fill:none;stroke:#b0b0b0;stroke-linecap:square;stroke-width:0.8;"/>
     </g>
     <g id="line2d_14">
      <g>
       <use style="stroke:#000000;stroke-width:0.8;" x="70.954688" xlink:href="#mc3ce260a5b" y="225.902712"/>
      </g>
     </g>
     <g id="text_9">
      <!-- 0.50 -->
      <g transform="translate(30.55625 231.60154)scale(0.15 -0.15)">
       <use xlink:href="#DejaVuSans-48"/>
       <use x="63.623047" xlink:href="#DejaVuSans-46"/>
       <use x="95.410156" xlink:href="#DejaVuSans-53"/>
       <use x="159.033203" xlink:href="#DejaVuSans-48"/>
      </g>
     </g>
    </g>
    <g id="ytick_3">
     <g id="line2d_15">
      <path clip-path="url(#p140c2fcd43)" d="M 70.954688 174.727327 
L 428.074687 174.727327 
" style="fill:none;stroke:#b0b0b0;stroke-linecap:square;stroke-width:0.8;"/>
     </g>
     <g id="line2d_16">
      <g>
       <use style="stroke:#000000;stroke-width:0.8;" x="70.954688" xlink:href="#mc3ce260a5b" y="174.727327"/>
      </g>
     </g>
     <g id="text_10">
      <!-- 0.55 -->
      <g transform="translate(30.55625 180.426155)scale(0.15 -0.15)">
       <use xlink:href="#DejaVuSans-48"/>
       <use x="63.623047" xlink:href="#DejaVuSans-46"/>
       <use x="95.410156" xlink:href="#DejaVuSans-53"/>
       <use x="159.033203" xlink:href="#DejaVuSans-53"/>
      </g>
     </g>
    </g>
    <g id="ytick_4">
     <g id="line2d_17">
      <path clip-path="url(#p140c2fcd43)" d="M 70.954688 123.551942 
L 428.074687 123.551942 
" style="fill:none;stroke:#b0b0b0;stroke-linecap:square;stroke-width:0.8;"/>
     </g>
     <g id="line2d_18">
      <g>
       <use style="stroke:#000000;stroke-width:0.8;" x="70.954688" xlink:href="#mc3ce260a5b" y="123.551942"/>
      </g>
     </g>
     <g id="text_11">
      <!-- 0.60 -->
      <g transform="translate(30.55625 129.25077)scale(0.15 -0.15)">
       <use xlink:href="#DejaVuSans-48"/>
       <use x="63.623047" xlink:href="#DejaVuSans-46"/>
       <use x="95.410156" xlink:href="#DejaVuSans-54"/>
       <use x="159.033203" xlink:href="#DejaVuSans-48"/>
      </g>
     </g>
    </g>
    <g id="ytick_5">
     <g id="line2d_19">
      <path clip-path="url(#p140c2fcd43)" d="M 70.954688 72.376558 
L 428.074687 72.376558 
" style="fill:none;stroke:#b0b0b0;stroke-linecap:square;stroke-width:0.8;"/>
     </g>
     <g id="line2d_20">
      <g>
       <use style="stroke:#000000;stroke-width:0.8;" x="70.954688" xlink:href="#mc3ce260a5b" y="72.376558"/>
      </g>
     </g>
     <g id="text_12">
      <!-- 0.65 -->
      <g transform="translate(30.55625 78.075386)scale(0.15 -0.15)">
       <use xlink:href="#DejaVuSans-48"/>
       <use x="63.623047" xlink:href="#DejaVuSans-46"/>
       <use x="95.410156" xlink:href="#DejaVuSans-54"/>
       <use x="159.033203" xlink:href="#DejaVuSans-53"/>
      </g>
     </g>
    </g>
    <g id="text_13">
     <!-- Two-body survival -->
     <defs>
      <path d="M -0.296875 72.90625 
L 61.375 72.90625 
L 61.375 64.59375 
L 35.5 64.59375 
L 35.5 0 
L 25.59375 0 
L 25.59375 64.59375 
L -0.296875 64.59375 
z
" id="DejaVuSans-84"/>
      <path d="M 4.203125 54.6875 
L 13.1875 54.6875 
L 24.421875 12.015625 
L 35.59375 54.6875 
L 46.1875 54.6875 
L 57.421875 12.015625 
L 68.609375 54.6875 
L 77.59375 54.6875 
L 63.28125 0 
L 52.6875 0 
L 40.921875 44.828125 
L 29.109375 0 
L 18.5 0 
z
" id="DejaVuSans-119"/>
      <path d="M 48.6875 27.296875 
Q 48.6875 37.203125 44.609375 42.84375 
Q 40.53125 48.484375 33.40625 48.484375 
Q 26.265625 48.484375 22.1875 42.84375 
Q 18.109375 37.203125 18.109375 27.296875 
Q 18.109375 17.390625 22.1875 11.75 
Q 26.265625 6.109375 33.40625 6.109375 
Q 40.53125 6.109375 44.609375 11.75 
Q 48.6875 17.390625 48.6875 27.296875 
z
M 18.109375 46.390625 
Q 20.953125 51.265625 25.265625 53.625 
Q 29.59375 56 35.59375 56 
Q 45.5625 56 51.78125 48.09375 
Q 58.015625 40.1875 58.015625 27.296875 
Q 58.015625 14.40625 51.78125 6.484375 
Q 45.5625 -1.421875 35.59375 -1.421875 
Q 29.59375 -1.421875 25.265625 0.953125 
Q 20.953125 3.328125 18.109375 8.203125 
L 18.109375 0 
L 9.078125 0 
L 9.078125 75.984375 
L 18.109375 75.984375 
z
" id="DejaVuSans-98"/>
      <path d="M 45.40625 46.390625 
L 45.40625 75.984375 
L 54.390625 75.984375 
L 54.390625 0 
L 45.40625 0 
L 45.40625 8.203125 
Q 42.578125 3.328125 38.25 0.953125 
Q 33.9375 -1.421875 27.875 -1.421875 
Q 17.96875 -1.421875 11.734375 6.484375 
Q 5.515625 14.40625 5.515625 27.296875 
Q 5.515625 40.1875 11.734375 48.09375 
Q 17.96875 56 27.875 56 
Q 33.9375 56 38.25 53.625 
Q 42.578125 51.265625 45.40625 46.390625 
z
M 14.796875 27.296875 
Q 14.796875 17.390625 18.875 11.75 
Q 22.953125 6.109375 30.078125 6.109375 
Q 37.203125 6.109375 41.296875 11.75 
Q 45.40625 17.390625 45.40625 27.296875 
Q 45.40625 37.203125 41.296875 42.84375 
Q 37.203125 48.484375 30.078125 48.484375 
Q 22.953125 48.484375 18.875 42.84375 
Q 14.796875 37.203125 14.796875 27.296875 
z
" id="DejaVuSans-100"/>
      <path d="M 32.171875 -5.078125 
Q 28.375 -14.84375 24.75 -17.8125 
Q 21.140625 -20.796875 15.09375 -20.796875 
L 7.90625 -20.796875 
L 7.90625 -13.28125 
L 13.1875 -13.28125 
Q 16.890625 -13.28125 18.9375 -11.515625 
Q 21 -9.765625 23.484375 -3.21875 
L 25.09375 0.875 
L 2.984375 54.6875 
L 12.5 54.6875 
L 29.59375 11.921875 
L 46.6875 54.6875 
L 56.203125 54.6875 
z
" id="DejaVuSans-121"/>
      <path d="M 44.28125 53.078125 
L 44.28125 44.578125 
Q 40.484375 46.53125 36.375 47.5 
Q 32.28125 48.484375 27.875 48.484375 
Q 21.1875 48.484375 17.84375 46.4375 
Q 14.5 44.390625 14.5 40.28125 
Q 14.5 37.15625 16.890625 35.375 
Q 19.28125 33.59375 26.515625 31.984375 
L 29.59375 31.296875 
Q 39.15625 29.25 43.1875 25.515625 
Q 47.21875 21.78125 47.21875 15.09375 
Q 47.21875 7.46875 41.1875 3.015625 
Q 35.15625 -1.421875 24.609375 -1.421875 
Q 20.21875 -1.421875 15.453125 -0.5625 
Q 10.6875 0.296875 5.421875 2 
L 5.421875 11.28125 
Q 10.40625 8.6875 15.234375 7.390625 
Q 20.0625 6.109375 24.8125 6.109375 
Q 31.15625 6.109375 34.5625 8.28125 
Q 37.984375 10.453125 37.984375 14.40625 
Q 37.984375 18.0625 35.515625 20.015625 
Q 33.0625 21.96875 24.703125 23.78125 
L 21.578125 24.515625 
Q 13.234375 26.265625 9.515625 29.90625 
Q 5.8125 33.546875 5.8125 39.890625 
Q 5.8125 47.609375 11.28125 51.796875 
Q 16.75 56 26.8125 56 
Q 31.78125 56 36.171875 55.265625 
Q 40.578125 54.546875 44.28125 53.078125 
z
" id="DejaVuSans-115"/>
      <path d="M 41.109375 46.296875 
Q 39.59375 47.171875 37.8125 47.578125 
Q 36.03125 48 33.890625 48 
Q 26.265625 48 22.1875 43.046875 
Q 18.109375 38.09375 18.109375 28.8125 
L 18.109375 0 
L 9.078125 0 
L 9.078125 54.6875 
L 18.109375 54.6875 
L 18.109375 46.1875 
Q 20.953125 51.171875 25.484375 53.578125 
Q 30.03125 56 36.53125 56 
Q 37.453125 56 38.578125 55.875 
Q 39.703125 55.765625 41.0625 55.515625 
z
" id="DejaVuSans-114"/>
      <path d="M 2.984375 54.6875 
L 12.5 54.6875 
L 29.59375 8.796875 
L 46.6875 54.6875 
L 56.203125 54.6875 
L 35.6875 0 
L 23.484375 0 
z
" id="DejaVuSans-118"/>
      <path d="M 34.28125 27.484375 
Q 23.390625 27.484375 19.1875 25 
Q 14.984375 22.515625 14.984375 16.5 
Q 14.984375 11.71875 18.140625 8.90625 
Q 21.296875 6.109375 26.703125 6.109375 
Q 34.1875 6.109375 38.703125 11.40625 
Q 43.21875 16.703125 43.21875 25.484375 
L 43.21875 27.484375 
z
M 52.203125 31.203125 
L 52.203125 0 
L 43.21875 0 
L 43.21875 8.296875 
Q 40.140625 3.328125 35.546875 0.953125 
Q 30.953125 -1.421875 24.3125 -1.421875 
Q 15.921875 -1.421875 10.953125 3.296875 
Q 6 8.015625 6 15.921875 
Q 6 25.140625 12.171875 29.828125 
Q 18.359375 34.515625 30.609375 34.515625 
L 43.21875 34.515625 
L 43.21875 35.40625 
Q 43.21875 41.609375 39.140625 45 
Q 35.0625 48.390625 27.6875 48.390625 
Q 23 48.390625 18.546875 47.265625 
Q 14.109375 46.140625 10.015625 43.890625 
L 10.015625 52.203125 
Q 14.9375 54.109375 19.578125 55.046875 
Q 24.21875 56 28.609375 56 
Q 40.484375 56 46.34375 49.84375 
Q 52.203125 43.703125 52.203125 31.203125 
z
" id="DejaVuSans-97"/>
      <path d="M 9.421875 75.984375 
L 18.40625 75.984375 
L 18.40625 0 
L 9.421875 0 
z
" id="DejaVuSans-108"/>
     </defs>
     <g transform="translate(22.396875 255.5735)rotate(-90)scale(0.2 -0.2)">
      <use xlink:href="#DejaVuSans-84"/>
      <use x="60.833984" xlink:href="#DejaVuSans-119"/>
      <use x="142.621094" xlink:href="#DejaVuSans-111"/>
      <use x="203.818359" xlink:href="#DejaVuSans-45"/>
      <use x="239.902344" xlink:href="#DejaVuSans-98"/>
      <use x="303.378906" xlink:href="#DejaVuSans-111"/>
      <use x="364.560547" xlink:href="#DejaVuSans-100"/>
      <use x="428.037109" xlink:href="#DejaVuSans-121"/>
      <use x="487.216797" xlink:href="#DejaVuSans-32"/>
      <use x="519.003906" xlink:href="#DejaVuSans-115"/>
      <use x="571.103516" xlink:href="#DejaVuSans-117"/>
      <use x="634.482422" xlink:href="#DejaVuSans-114"/>
      <use x="675.595703" xlink:href="#DejaVuSans-118"/>
      <use x="734.775391" xlink:href="#DejaVuSans-105"/>
      <use x="762.558594" xlink:href="#DejaVuSans-118"/>
      <use x="821.738281" xlink:href="#DejaVuSans-97"/>
      <use x="883.017578" xlink:href="#DejaVuSans-108"/>
     </g>
    </g>
   </g>
   <g id="LineCollection_1">
    <path clip-path="url(#p140c2fcd43)" d="M 117.973622 96.642997 
L 117.973622 47.593195 
" style="fill:none;stroke:#1f77b4;stroke-width:1.5;"/>
    <path clip-path="url(#p140c2fcd43)" d="M 187.942274 189.954123 
L 187.942274 138.505501 
" style="fill:none;stroke:#1f77b4;stroke-width:1.5;"/>
    <path clip-path="url(#p140c2fcd43)" d="M 222.9266 172.99067 
L 222.9266 120.282311 
" style="fill:none;stroke:#1f77b4;stroke-width:1.5;"/>
    <path clip-path="url(#p140c2fcd43)" d="M 229.923465 241.256557 
L 229.923465 190.027409 
" style="fill:none;stroke:#1f77b4;stroke-width:1.5;"/>
    <path clip-path="url(#p140c2fcd43)" d="M 232.722211 272.298281 
L 232.722211 218.764971 
" style="fill:none;stroke:#1f77b4;stroke-width:1.5;"/>
    <path clip-path="url(#p140c2fcd43)" d="M 235.520957 280.966394 
L 235.520957 229.022928 
" style="fill:none;stroke:#1f77b4;stroke-width:1.5;"/>
    <path clip-path="url(#p140c2fcd43)" d="M 238.319703 270.090245 
L 238.319703 218.362512 
" style="fill:none;stroke:#1f77b4;stroke-width:1.5;"/>
    <path clip-path="url(#p140c2fcd43)" d="M 241.118449 237.371956 
L 241.118449 185.565301 
" style="fill:none;stroke:#1f77b4;stroke-width:1.5;"/>
    <path clip-path="url(#p140c2fcd43)" d="M 243.917195 271.416571 
L 243.917195 218.599806 
" style="fill:none;stroke:#1f77b4;stroke-width:1.5;"/>
    <path clip-path="url(#p140c2fcd43)" d="M 246.715941 223.833772 
L 246.715941 171.409384 
" style="fill:none;stroke:#1f77b4;stroke-width:1.5;"/>
    <path clip-path="url(#p140c2fcd43)" d="M 249.514687 232.216192 
L 249.514687 180.82 
" style="fill:none;stroke:#1f77b4;stroke-width:1.5;"/>
    <path clip-path="url(#p140c2fcd43)" d="M 252.313434 286.280572 
L 252.313434 232.823987 
" style="fill:none;stroke:#1f77b4;stroke-width:1.5;"/>
    <path clip-path="url(#p140c2fcd43)" d="M 255.11218 234.404598 
L 255.11218 180.645024 
" style="fill:none;stroke:#1f77b4;stroke-width:1.5;"/>
    <path clip-path="url(#p140c2fcd43)" d="M 257.910926 194.077077 
L 257.910926 141.91037 
" style="fill:none;stroke:#1f77b4;stroke-width:1.5;"/>
    <path clip-path="url(#p140c2fcd43)" d="M 260.709672 268.020977 
L 260.709672 214.545607 
" style="fill:none;stroke:#1f77b4;stroke-width:1.5;"/>
    <path clip-path="url(#p140c2fcd43)" d="M 263.508418 220.226602 
L 263.508418 168.431817 
" style="fill:none;stroke:#1f77b4;stroke-width:1.5;"/>
    <path clip-path="url(#p140c2fcd43)" d="M 266.307164 200.948516 
L 266.307164 148.774775 
" style="fill:none;stroke:#1f77b4;stroke-width:1.5;"/>
    <path clip-path="url(#p140c2fcd43)" d="M 269.10591 153.810339 
L 269.10591 101.592257 
" style="fill:none;stroke:#1f77b4;stroke-width:1.5;"/>
    <path clip-path="url(#p140c2fcd43)" d="M 271.904656 226.121974 
L 271.904656 172.839302 
" style="fill:none;stroke:#1f77b4;stroke-width:1.5;"/>
    <path clip-path="url(#p140c2fcd43)" d="M 274.703402 195.156064 
L 274.703402 141.994126 
" style="fill:none;stroke:#1f77b4;stroke-width:1.5;"/>
    <path clip-path="url(#p140c2fcd43)" d="M 277.502148 158.221772 
L 277.502148 105.986554 
" style="fill:none;stroke:#1f77b4;stroke-width:1.5;"/>
    <path clip-path="url(#p140c2fcd43)" d="M 280.300894 177.808862 
L 280.300894 124.074308 
" style="fill:none;stroke:#1f77b4;stroke-width:1.5;"/>
    <path clip-path="url(#p140c2fcd43)" d="M 283.09964 130.754027 
L 283.09964 78.56748 
" style="fill:none;stroke:#1f77b4;stroke-width:1.5;"/>
    <path clip-path="url(#p140c2fcd43)" d="M 285.898387 177.318336 
L 285.898387 122.746121 
" style="fill:none;stroke:#1f77b4;stroke-width:1.5;"/>
    <path clip-path="url(#p140c2fcd43)" d="M 292.895252 121.252918 
L 292.895252 71.436634 
" style="fill:none;stroke:#1f77b4;stroke-width:1.5;"/>
    <path clip-path="url(#p140c2fcd43)" d="M 327.879578 148.549036 
L 327.879578 98.035301 
" style="fill:none;stroke:#1f77b4;stroke-width:1.5;"/>
    <path clip-path="url(#p140c2fcd43)" d="M 397.84823 130.638236 
L 397.84823 82.587305 
" style="fill:none;stroke:#1f77b4;stroke-width:1.5;"/>
   </g>
   <g id="LineCollection_2">
    <path clip-path="url(#p140c2fcd43)" d="M 101.181145 99.953233 
L 101.181145 72.496669 
" style="fill:none;stroke:#ff7f0e;stroke-width:1.5;"/>
    <path clip-path="url(#p140c2fcd43)" d="M 171.149797 89.986545 
L 171.149797 62.195255 
" style="fill:none;stroke:#ff7f0e;stroke-width:1.5;"/>
    <path clip-path="url(#p140c2fcd43)" d="M 206.134123 97.53713 
L 206.134123 69.915722 
" style="fill:none;stroke:#ff7f0e;stroke-width:1.5;"/>
    <path clip-path="url(#p140c2fcd43)" d="M 213.130988 92.795843 
L 213.130988 65.187388 
" style="fill:none;stroke:#ff7f0e;stroke-width:1.5;"/>
    <path clip-path="url(#p140c2fcd43)" d="M 220.127854 120.905758 
L 220.127854 92.605231 
" style="fill:none;stroke:#ff7f0e;stroke-width:1.5;"/>
    <path clip-path="url(#p140c2fcd43)" d="M 227.124719 108.400562 
L 227.124719 79.851631 
" style="fill:none;stroke:#ff7f0e;stroke-width:1.5;"/>
    <path clip-path="url(#p140c2fcd43)" d="M 234.121584 134.970737 
L 234.121584 106.236395 
" style="fill:none;stroke:#ff7f0e;stroke-width:1.5;"/>
    <path clip-path="url(#p140c2fcd43)" d="M 241.118449 136.320149 
L 241.118449 108.006461 
" style="fill:none;stroke:#ff7f0e;stroke-width:1.5;"/>
    <path clip-path="url(#p140c2fcd43)" d="M 248.115314 161.073056 
L 248.115314 132.449527 
" style="fill:none;stroke:#ff7f0e;stroke-width:1.5;"/>
    <path clip-path="url(#p140c2fcd43)" d="M 255.11218 163.261506 
L 255.11218 135.291429 
" style="fill:none;stroke:#ff7f0e;stroke-width:1.5;"/>
    <path clip-path="url(#p140c2fcd43)" d="M 262.109045 142.361619 
L 262.109045 114.024674 
" style="fill:none;stroke:#ff7f0e;stroke-width:1.5;"/>
    <path clip-path="url(#p140c2fcd43)" d="M 269.10591 119.879708 
L 269.10591 91.773072 
" style="fill:none;stroke:#ff7f0e;stroke-width:1.5;"/>
    <path clip-path="url(#p140c2fcd43)" d="M 276.102775 126.076108 
L 276.102775 98.710692 
" style="fill:none;stroke:#ff7f0e;stroke-width:1.5;"/>
    <path clip-path="url(#p140c2fcd43)" d="M 311.087101 127.095432 
L 311.087101 98.815436 
" style="fill:none;stroke:#ff7f0e;stroke-width:1.5;"/>
    <path clip-path="url(#p140c2fcd43)" d="M 381.055753 100.820494 
L 381.055753 73.233038 
" style="fill:none;stroke:#ff7f0e;stroke-width:1.5;"/>
   </g>
   <g id="line2d_21">
    <path clip-path="url(#p140c2fcd43)" d="M 103.979891 97.596468 
L 114.417459 98.648602 
L 123.469509 99.779082 
L 131.443934 100.994835 
L 138.494681 102.290268 
L 144.806484 103.671877 
L 150.502502 105.142896 
L 155.675102 106.705349 
L 160.416652 108.367949 
L 164.757941 110.122609 
L 168.791338 111.99005 
L 172.547631 113.971925 
L 176.088399 116.09141 
L 179.413642 118.340452 
L 182.554149 120.730507 
L 185.571499 123.306542 
L 188.465692 126.071763 
L 191.236727 129.02617 
L 193.946184 132.242823 
L 196.563274 135.695348 
L 199.149574 139.479296 
L 201.705084 143.620265 
L 204.229806 148.141805 
L 206.754527 153.127105 
L 209.310038 158.677129 
L 211.896338 164.832652 
L 214.605795 171.867461 
L 217.530777 180.101885 
L 220.948388 190.424772 
L 230.215963 218.854181 
L 232.248056 224.128111 
L 233.941467 227.930245 
L 235.388563 230.654775 
L 236.650924 232.579984 
L 237.759338 233.891178 
L 238.775385 234.762626 
L 239.699063 235.269998 
L 240.561163 235.493339 
L 241.392474 235.477686 
L 242.223785 235.235346 
L 243.085885 234.747049 
L 244.009563 233.96168 
L 245.02561 232.79505 
L 246.164813 231.128964 
L 247.427174 228.872874 
L 248.87427 225.811292 
L 250.567681 221.678383 
L 252.599774 216.102463 
L 255.309231 207.969434 
L 265.777588 175.88671 
L 268.70257 167.978831 
L 271.442817 161.19555 
L 274.090695 155.223758 
L 276.676995 149.926827 
L 279.263295 145.12934 
L 281.849595 140.794247 
L 284.466685 136.837515 
L 287.114563 133.232356 
L 289.824021 129.915266 
L 292.595056 126.86961 
L 295.45846 124.048906 
L 298.445021 121.418389 
L 301.554738 118.975579 
L 304.818403 116.695024 
L 308.266803 114.558454 
L 311.930728 112.553155 
L 315.810178 110.684479 
L 319.997521 108.917336 
L 324.492756 107.263959 
L 329.388253 105.703646 
L 334.714799 104.242095 
L 340.564764 102.869909 
L 347.061303 101.578315 
L 354.296785 100.370686 
L 362.425156 99.243661 
L 371.661942 98.192692 
L 382.222667 97.220243 
L 394.446014 96.323578 
L 408.793821 95.50057 
L 411.84196 95.35083 
L 411.84196 95.35083 
" style="fill:none;stroke:#1f77b4;stroke-linecap:square;stroke-width:1.5;"/>
   </g>
   <g id="line2d_22">
    <path clip-path="url(#p140c2fcd43)" d="M 87.187415 85.633715 
L 123.303247 85.998689 
L 146.579947 86.442954 
L 162.959847 86.966963 
L 175.152404 87.569931 
L 184.635504 88.253565 
L 192.240458 89.017922 
L 198.490683 89.863261 
L 203.755651 90.794753 
L 208.250887 91.811098 
L 212.161126 92.918859 
L 215.609526 94.123112 
L 218.688455 95.430136 
L 221.49028 96.859566 
L 224.04579 98.410918 
L 226.416565 100.108219 
L 228.633394 101.965744 
L 230.757855 104.036798 
L 232.789947 106.329025 
L 234.791251 108.928118 
L 236.761765 111.859302 
L 238.73228 115.192614 
L 240.795162 119.12892 
L 243.073569 123.976896 
L 246.214076 131.248325 
L 249.354583 138.371758 
L 250.955626 141.473966 
L 252.217987 143.458004 
L 253.264823 144.705983 
L 254.157712 145.442455 
L 254.958233 145.824764 
L 255.697176 145.9349 
L 256.40533 145.819177 
L 257.144273 145.470223 
L 257.944794 144.838492 
L 258.837683 143.84268 
L 259.884519 142.32521 
L 261.14688 140.076366 
L 262.778712 136.673172 
L 265.45738 130.480313 
L 269.182883 121.981284 
L 271.49208 117.275789 
L 273.61654 113.443898 
L 275.648633 110.227347 
L 277.680726 107.42108 
L 279.743608 104.949489 
L 281.868069 102.751968 
L 284.054108 100.807499 
L 286.363305 99.048986 
L 288.826448 97.452896 
L 291.474326 96.002604 
L 294.368519 94.673356 
L 297.570605 93.452328 
L 301.142162 92.334269 
L 305.175558 91.310935 
L 309.763162 90.381094 
L 315.089708 89.533264 
L 321.370723 88.764538 
L 328.914098 88.072329 
L 338.181673 87.454047 
L 349.820023 86.910368 
L 364.906773 86.439405 
L 385.227702 86.040289 
L 395.049484 85.905645 
L 395.049484 85.905645 
" style="fill:none;stroke:#ff7f0e;stroke-linecap:square;stroke-width:1.5;"/>
   </g>
   <g id="line2d_23">
    <defs>
     <path d="M 0 1.5 
C 0.397805 1.5 0.77937 1.341951 1.06066 1.06066 
C 1.341951 0.77937 1.5 0.397805 1.5 0 
C 1.5 -0.397805 1.341951 -0.77937 1.06066 -1.06066 
C 0.77937 -1.341951 0.397805 -1.5 0 -1.5 
C -0.397805 -1.5 -0.77937 -1.341951 -1.06066 -1.06066 
C -1.341951 -0.77937 -1.5 -0.397805 -1.5 0 
C -1.5 0.397805 -1.341951 0.77937 -1.06066 1.06066 
C -0.77937 1.341951 -0.397805 1.5 0 1.5 
z
" id="mb8bc26594a" style="stroke:#1f77b4;"/>
    </defs>
    <g clip-path="url(#p140c2fcd43)">
     <use style="fill:#1f77b4;stroke:#1f77b4;" x="117.973622" xlink:href="#mb8bc26594a" y="72.118096"/>
     <use style="fill:#1f77b4;stroke:#1f77b4;" x="187.942274" xlink:href="#mb8bc26594a" y="164.229812"/>
     <use style="fill:#1f77b4;stroke:#1f77b4;" x="222.9266" xlink:href="#mb8bc26594a" y="146.636491"/>
     <use style="fill:#1f77b4;stroke:#1f77b4;" x="229.923465" xlink:href="#mb8bc26594a" y="215.641983"/>
     <use style="fill:#1f77b4;stroke:#1f77b4;" x="232.722211" xlink:href="#mb8bc26594a" y="245.531626"/>
     <use style="fill:#1f77b4;stroke:#1f77b4;" x="235.520957" xlink:href="#mb8bc26594a" y="254.994661"/>
     <use style="fill:#1f77b4;stroke:#1f77b4;" x="238.319703" xlink:href="#mb8bc26594a" y="244.226379"/>
     <use style="fill:#1f77b4;stroke:#1f77b4;" x="241.118449" xlink:href="#mb8bc26594a" y="211.468629"/>
     <use style="fill:#1f77b4;stroke:#1f77b4;" x="243.917195" xlink:href="#mb8bc26594a" y="245.008188"/>
     <use style="fill:#1f77b4;stroke:#1f77b4;" x="246.715941" xlink:href="#mb8bc26594a" y="197.621578"/>
     <use style="fill:#1f77b4;stroke:#1f77b4;" x="249.514687" xlink:href="#mb8bc26594a" y="206.518096"/>
     <use style="fill:#1f77b4;stroke:#1f77b4;" x="252.313434" xlink:href="#mb8bc26594a" y="259.55228"/>
     <use style="fill:#1f77b4;stroke:#1f77b4;" x="255.11218" xlink:href="#mb8bc26594a" y="207.524811"/>
     <use style="fill:#1f77b4;stroke:#1f77b4;" x="257.910926" xlink:href="#mb8bc26594a" y="167.993724"/>
     <use style="fill:#1f77b4;stroke:#1f77b4;" x="260.709672" xlink:href="#mb8bc26594a" y="241.283292"/>
     <use style="fill:#1f77b4;stroke:#1f77b4;" x="263.508418" xlink:href="#mb8bc26594a" y="194.329209"/>
     <use style="fill:#1f77b4;stroke:#1f77b4;" x="266.307164" xlink:href="#mb8bc26594a" y="174.861646"/>
     <use style="fill:#1f77b4;stroke:#1f77b4;" x="269.10591" xlink:href="#mb8bc26594a" y="127.701298"/>
     <use style="fill:#1f77b4;stroke:#1f77b4;" x="271.904656" xlink:href="#mb8bc26594a" y="199.480638"/>
     <use style="fill:#1f77b4;stroke:#1f77b4;" x="274.703402" xlink:href="#mb8bc26594a" y="168.575095"/>
     <use style="fill:#1f77b4;stroke:#1f77b4;" x="277.502148" xlink:href="#mb8bc26594a" y="132.104163"/>
     <use style="fill:#1f77b4;stroke:#1f77b4;" x="280.300894" xlink:href="#mb8bc26594a" y="150.941585"/>
     <use style="fill:#1f77b4;stroke:#1f77b4;" x="283.09964" xlink:href="#mb8bc26594a" y="104.660753"/>
     <use style="fill:#1f77b4;stroke:#1f77b4;" x="285.898387" xlink:href="#mb8bc26594a" y="150.032229"/>
     <use style="fill:#1f77b4;stroke:#1f77b4;" x="292.895252" xlink:href="#mb8bc26594a" y="96.344776"/>
     <use style="fill:#1f77b4;stroke:#1f77b4;" x="327.879578" xlink:href="#mb8bc26594a" y="123.292169"/>
     <use style="fill:#1f77b4;stroke:#1f77b4;" x="397.84823" xlink:href="#mb8bc26594a" y="106.612771"/>
    </g>
   </g>
   <g id="line2d_24">
    <defs>
     <path d="M 0 1.5 
C 0.397805 1.5 0.77937 1.341951 1.06066 1.06066 
C 1.341951 0.77937 1.5 0.397805 1.5 0 
C 1.5 -0.397805 1.341951 -0.77937 1.06066 -1.06066 
C 0.77937 -1.341951 0.397805 -1.5 0 -1.5 
C -0.397805 -1.5 -0.77937 -1.341951 -1.06066 -1.06066 
C -1.341951 -0.77937 -1.5 -0.397805 -1.5 0 
C -1.5 0.397805 -1.341951 0.77937 -1.06066 1.06066 
C -0.77937 1.341951 -0.397805 1.5 0 1.5 
z
" id="m3e2fb6b177" style="stroke:#ff7f0e;"/>
    </defs>
    <g clip-path="url(#p140c2fcd43)">
     <use style="fill:#ff7f0e;stroke:#ff7f0e;" x="101.181145" xlink:href="#m3e2fb6b177" y="86.224951"/>
     <use style="fill:#ff7f0e;stroke:#ff7f0e;" x="171.149797" xlink:href="#m3e2fb6b177" y="76.0909"/>
     <use style="fill:#ff7f0e;stroke:#ff7f0e;" x="206.134123" xlink:href="#m3e2fb6b177" y="83.726426"/>
     <use style="fill:#ff7f0e;stroke:#ff7f0e;" x="213.130988" xlink:href="#m3e2fb6b177" y="78.991615"/>
     <use style="fill:#ff7f0e;stroke:#ff7f0e;" x="220.127854" xlink:href="#m3e2fb6b177" y="106.755494"/>
     <use style="fill:#ff7f0e;stroke:#ff7f0e;" x="227.124719" xlink:href="#m3e2fb6b177" y="94.126096"/>
     <use style="fill:#ff7f0e;stroke:#ff7f0e;" x="234.121584" xlink:href="#m3e2fb6b177" y="120.603566"/>
     <use style="fill:#ff7f0e;stroke:#ff7f0e;" x="241.118449" xlink:href="#m3e2fb6b177" y="122.163305"/>
     <use style="fill:#ff7f0e;stroke:#ff7f0e;" x="248.115314" xlink:href="#m3e2fb6b177" y="146.761291"/>
     <use style="fill:#ff7f0e;stroke:#ff7f0e;" x="255.11218" xlink:href="#m3e2fb6b177" y="149.276467"/>
     <use style="fill:#ff7f0e;stroke:#ff7f0e;" x="262.109045" xlink:href="#m3e2fb6b177" y="128.193147"/>
     <use style="fill:#ff7f0e;stroke:#ff7f0e;" x="269.10591" xlink:href="#m3e2fb6b177" y="105.82639"/>
     <use style="fill:#ff7f0e;stroke:#ff7f0e;" x="276.102775" xlink:href="#m3e2fb6b177" y="112.3934"/>
     <use style="fill:#ff7f0e;stroke:#ff7f0e;" x="311.087101" xlink:href="#m3e2fb6b177" y="112.955434"/>
     <use style="fill:#ff7f0e;stroke:#ff7f0e;" x="381.055753" xlink:href="#m3e2fb6b177" y="87.026766"/>
    </g>
   </g>
   <g id="patch_3">
    <path d="M 70.954688 297.54825 
L 70.954688 31.43625 
" style="fill:none;stroke:#000000;stroke-linecap:square;stroke-linejoin:miter;stroke-width:0.8;"/>
   </g>
   <g id="patch_4">
    <path d="M 428.074687 297.54825 
L 428.074687 31.43625 
" style="fill:none;stroke:#000000;stroke-linecap:square;stroke-linejoin:miter;stroke-width:0.8;"/>
   </g>
   <g id="patch_5">
    <path d="M 70.954688 297.54825 
L 428.074688 297.54825 
" style="fill:none;stroke:#000000;stroke-linecap:square;stroke-linejoin:miter;stroke-width:0.8;"/>
   </g>
   <g id="patch_6">
    <path d="M 70.954688 31.43625 
L 428.074688 31.43625 
" style="fill:none;stroke:#000000;stroke-linecap:square;stroke-linejoin:miter;stroke-width:0.8;"/>
   </g>
   <g id="text_14">
    <!-- $f_{80}=367.86129(80)$ MHz -->
    <defs>
     <path d="M 47.796875 75.984375 
L 46.390625 68.5 
L 37.796875 68.5 
Q 32.90625 68.5 30.6875 66.578125 
Q 28.46875 64.65625 27.390625 59.515625 
L 26.421875 54.6875 
L 41.21875 54.6875 
L 39.890625 47.703125 
L 25.09375 47.703125 
L 15.828125 0 
L 6.78125 0 
L 16.109375 47.703125 
L 7.515625 47.703125 
L 8.796875 54.6875 
L 17.390625 54.6875 
L 18.109375 58.5 
Q 19.96875 68.171875 24.625 72.078125 
Q 29.296875 75.984375 39.3125 75.984375 
z
" id="DejaVuSans-Oblique-102"/>
     <path d="M 10.59375 45.40625 
L 73.1875 45.40625 
L 73.1875 37.203125 
L 10.59375 37.203125 
z
M 10.59375 25.484375 
L 73.1875 25.484375 
L 73.1875 17.1875 
L 10.59375 17.1875 
z
" id="DejaVuSans-61"/>
     <path d="M 12.40625 8.296875 
L 28.515625 8.296875 
L 28.515625 63.921875 
L 10.984375 60.40625 
L 10.984375 69.390625 
L 28.421875 72.90625 
L 38.28125 72.90625 
L 38.28125 8.296875 
L 54.390625 8.296875 
L 54.390625 0 
L 12.40625 0 
z
" id="DejaVuSans-49"/>
     <path d="M 10.984375 1.515625 
L 10.984375 10.5 
Q 14.703125 8.734375 18.5 7.8125 
Q 22.3125 6.890625 25.984375 6.890625 
Q 35.75 6.890625 40.890625 13.453125 
Q 46.046875 20.015625 46.78125 33.40625 
Q 43.953125 29.203125 39.59375 26.953125 
Q 35.25 24.703125 29.984375 24.703125 
Q 19.046875 24.703125 12.671875 31.3125 
Q 6.296875 37.9375 6.296875 49.421875 
Q 6.296875 60.640625 12.9375 67.421875 
Q 19.578125 74.21875 30.609375 74.21875 
Q 43.265625 74.21875 49.921875 64.515625 
Q 56.59375 54.828125 56.59375 36.375 
Q 56.59375 19.140625 48.40625 8.859375 
Q 40.234375 -1.421875 26.421875 -1.421875 
Q 22.703125 -1.421875 18.890625 -0.6875 
Q 15.09375 0.046875 10.984375 1.515625 
z
M 30.609375 32.421875 
Q 37.25 32.421875 41.125 36.953125 
Q 45.015625 41.5 45.015625 49.421875 
Q 45.015625 57.28125 41.125 61.84375 
Q 37.25 66.40625 30.609375 66.40625 
Q 23.96875 66.40625 20.09375 61.84375 
Q 16.21875 57.28125 16.21875 49.421875 
Q 16.21875 41.5 20.09375 36.953125 
Q 23.96875 32.421875 30.609375 32.421875 
z
" id="DejaVuSans-57"/>
    </defs>
    <g style="fill:#1f77b4;" transform="translate(208.932869 295.501235)scale(0.1666 -0.1666)">
     <use transform="translate(0 0.015625)" xlink:href="#DejaVuSans-Oblique-102"/>
     <use transform="translate(35.205078 -16.390625)scale(0.7)" xlink:href="#DejaVuSans-56"/>
     <use transform="translate(79.741211 -16.390625)scale(0.7)" xlink:href="#DejaVuSans-48"/>
     <use transform="translate(146.494141 0.015625)" xlink:href="#DejaVuSans-61"/>
     <use transform="translate(249.765625 0.015625)" xlink:href="#DejaVuSans-51"/>
     <use transform="translate(313.388672 0.015625)" xlink:href="#DejaVuSans-54"/>
     <use transform="translate(377.011719 0.015625)" xlink:href="#DejaVuSans-55"/>
     <use transform="translate(440.634766 0.015625)" xlink:href="#DejaVuSans-46"/>
     <use transform="translate(472.390625 0.015625)" xlink:href="#DejaVuSans-56"/>
     <use transform="translate(536.013672 0.015625)" xlink:href="#DejaVuSans-54"/>
     <use transform="translate(599.636719 0.015625)" xlink:href="#DejaVuSans-49"/>
     <use transform="translate(663.259766 0.015625)" xlink:href="#DejaVuSans-50"/>
     <use transform="translate(726.867188 0.015625)" xlink:href="#DejaVuSans-57"/>
     <use transform="translate(790.490234 0.015625)" xlink:href="#DejaVuSans-40"/>
     <use transform="translate(829.503906 0.015625)" xlink:href="#DejaVuSans-56"/>
     <use transform="translate(893.126953 0.015625)" xlink:href="#DejaVuSans-48"/>
     <use transform="translate(956.75 0.015625)" xlink:href="#DejaVuSans-41"/>
     <use transform="translate(995.763672 0.015625)" xlink:href="#DejaVuSans-32"/>
     <use transform="translate(1027.550781 0.015625)" xlink:href="#DejaVuSans-77"/>
     <use transform="translate(1113.830078 0.015625)" xlink:href="#DejaVuSans-72"/>
     <use transform="translate(1189.025391 0.015625)" xlink:href="#DejaVuSans-122"/>
    </g>
   </g>
   <g id="text_15">
    <!-- $\Gamma_{80}=4.2(19)$ kHz -->
    <defs>
     <path d="M 9.8125 0 
L 9.8125 72.90625 
L 55.171875 72.90625 
L 55.171875 64.59375 
L 19.671875 64.59375 
L 19.671875 0 
z
" id="DejaVuSans-915"/>
     <path d="M 9.078125 75.984375 
L 18.109375 75.984375 
L 18.109375 31.109375 
L 44.921875 54.6875 
L 56.390625 54.6875 
L 27.390625 29.109375 
L 57.625 0 
L 45.90625 0 
L 18.109375 26.703125 
L 18.109375 0 
L 9.078125 0 
z
" id="DejaVuSans-107"/>
    </defs>
    <g style="fill:#1f77b4;" transform="translate(264.907791 276.054588)scale(0.1666 -0.1666)">
     <use transform="translate(0 0.015625)" xlink:href="#DejaVuSans-915"/>
     <use transform="translate(56.669922 -16.390625)scale(0.7)" xlink:href="#DejaVuSans-56"/>
     <use transform="translate(101.206055 -16.390625)scale(0.7)" xlink:href="#DejaVuSans-48"/>
     <use transform="translate(167.958984 0.015625)" xlink:href="#DejaVuSans-61"/>
     <use transform="translate(271.230469 0.015625)" xlink:href="#DejaVuSans-52"/>
     <use transform="translate(334.853516 0.015625)" xlink:href="#DejaVuSans-46"/>
     <use transform="translate(366.5625 0.015625)" xlink:href="#DejaVuSans-50"/>
     <use transform="translate(430.185547 0.015625)" xlink:href="#DejaVuSans-40"/>
     <use transform="translate(469.199219 0.015625)" xlink:href="#DejaVuSans-49"/>
     <use transform="translate(532.822266 0.015625)" xlink:href="#DejaVuSans-57"/>
     <use transform="translate(596.445312 0.015625)" xlink:href="#DejaVuSans-41"/>
     <use transform="translate(635.458984 0.015625)" xlink:href="#DejaVuSans-32"/>
     <use transform="translate(667.246094 0.015625)" xlink:href="#DejaVuSans-107"/>
     <use transform="translate(725.15625 0.015625)" xlink:href="#DejaVuSans-72"/>
     <use transform="translate(800.351562 0.015625)" xlink:href="#DejaVuSans-122"/>
    </g>
   </g>
   <g id="text_16">
    <!-- $f_{40}=367.8623(11)$ MHz -->
    <g style="fill:#ff7f0e;" transform="translate(208.932869 72.376558)scale(0.1666 -0.1666)">
     <use transform="translate(0 0.015625)" xlink:href="#DejaVuSans-Oblique-102"/>
     <use transform="translate(35.205078 -16.390625)scale(0.7)" xlink:href="#DejaVuSans-52"/>
     <use transform="translate(79.741211 -16.390625)scale(0.7)" xlink:href="#DejaVuSans-48"/>
     <use transform="translate(146.494141 0.015625)" xlink:href="#DejaVuSans-61"/>
     <use transform="translate(249.765625 0.015625)" xlink:href="#DejaVuSans-51"/>
     <use transform="translate(313.388672 0.015625)" xlink:href="#DejaVuSans-54"/>
     <use transform="translate(377.011719 0.015625)" xlink:href="#DejaVuSans-55"/>
     <use transform="translate(440.634766 0.015625)" xlink:href="#DejaVuSans-46"/>
     <use transform="translate(472.390625 0.015625)" xlink:href="#DejaVuSans-56"/>
     <use transform="translate(536.013672 0.015625)" xlink:href="#DejaVuSans-54"/>
     <use transform="translate(599.636719 0.015625)" xlink:href="#DejaVuSans-50"/>
     <use transform="translate(663.259766 0.015625)" xlink:href="#DejaVuSans-51"/>
     <use transform="translate(726.882812 0.015625)" xlink:href="#DejaVuSans-40"/>
     <use transform="translate(765.896484 0.015625)" xlink:href="#DejaVuSans-49"/>
     <use transform="translate(829.519531 0.015625)" xlink:href="#DejaVuSans-49"/>
     <use transform="translate(893.142578 0.015625)" xlink:href="#DejaVuSans-41"/>
     <use transform="translate(932.15625 0.015625)" xlink:href="#DejaVuSans-32"/>
     <use transform="translate(963.943359 0.015625)" xlink:href="#DejaVuSans-77"/>
     <use transform="translate(1050.222656 0.015625)" xlink:href="#DejaVuSans-72"/>
     <use transform="translate(1125.417969 0.015625)" xlink:href="#DejaVuSans-122"/>
    </g>
   </g>
   <g id="text_17">
    <!-- $\Gamma_{40}=2.4(15)$ kHz -->
    <g style="fill:#ff7f0e;" transform="translate(208.932869 51.906404)scale(0.1666 -0.1666)">
     <use transform="translate(0 0.015625)" xlink:href="#DejaVuSans-915"/>
     <use transform="translate(56.669922 -16.390625)scale(0.7)" xlink:href="#DejaVuSans-52"/>
     <use transform="translate(101.206055 -16.390625)scale(0.7)" xlink:href="#DejaVuSans-48"/>
     <use transform="translate(167.958984 0.015625)" xlink:href="#DejaVuSans-61"/>
     <use transform="translate(271.230469 0.015625)" xlink:href="#DejaVuSans-50"/>
     <use transform="translate(334.853516 0.015625)" xlink:href="#DejaVuSans-46"/>
     <use transform="translate(366.640625 0.015625)" xlink:href="#DejaVuSans-52"/>
     <use transform="translate(430.263672 0.015625)" xlink:href="#DejaVuSans-40"/>
     <use transform="translate(469.277344 0.015625)" xlink:href="#DejaVuSans-49"/>
     <use transform="translate(532.900391 0.015625)" xlink:href="#DejaVuSans-53"/>
     <use transform="translate(596.523438 0.015625)" xlink:href="#DejaVuSans-41"/>
     <use transform="translate(635.537109 0.015625)" xlink:href="#DejaVuSans-32"/>
     <use transform="translate(667.324219 0.015625)" xlink:href="#DejaVuSans-107"/>
     <use transform="translate(725.234375 0.015625)" xlink:href="#DejaVuSans-72"/>
     <use transform="translate(800.429688 0.015625)" xlink:href="#DejaVuSans-122"/>
    </g>
   </g>
   <g id="text_18">
    <!-- 306490.7 GHz, 0.5 mW -->
    <defs>
     <path d="M 59.515625 10.40625 
L 59.515625 29.984375 
L 43.40625 29.984375 
L 43.40625 38.09375 
L 69.28125 38.09375 
L 69.28125 6.78125 
Q 63.578125 2.734375 56.6875 0.65625 
Q 49.8125 -1.421875 42 -1.421875 
Q 24.90625 -1.421875 15.25 8.5625 
Q 5.609375 18.5625 5.609375 36.375 
Q 5.609375 54.25 15.25 64.234375 
Q 24.90625 74.21875 42 74.21875 
Q 49.125 74.21875 55.546875 72.453125 
Q 61.96875 70.703125 67.390625 67.28125 
L 67.390625 56.78125 
Q 61.921875 61.421875 55.765625 63.765625 
Q 49.609375 66.109375 42.828125 66.109375 
Q 29.4375 66.109375 22.71875 58.640625 
Q 16.015625 51.171875 16.015625 36.375 
Q 16.015625 21.625 22.71875 14.15625 
Q 29.4375 6.6875 42.828125 6.6875 
Q 48.046875 6.6875 52.140625 7.59375 
Q 56.25 8.5 59.515625 10.40625 
z
" id="DejaVuSans-71"/>
     <path d="M 11.71875 12.40625 
L 22.015625 12.40625 
L 22.015625 4 
L 14.015625 -11.625 
L 7.71875 -11.625 
L 11.71875 4 
z
" id="DejaVuSans-44"/>
     <path d="M 52 44.1875 
Q 55.375 50.25 60.0625 53.125 
Q 64.75 56 71.09375 56 
Q 79.640625 56 84.28125 50.015625 
Q 88.921875 44.046875 88.921875 33.015625 
L 88.921875 0 
L 79.890625 0 
L 79.890625 32.71875 
Q 79.890625 40.578125 77.09375 44.375 
Q 74.3125 48.1875 68.609375 48.1875 
Q 61.625 48.1875 57.5625 43.546875 
Q 53.515625 38.921875 53.515625 30.90625 
L 53.515625 0 
L 44.484375 0 
L 44.484375 32.71875 
Q 44.484375 40.625 41.703125 44.40625 
Q 38.921875 48.1875 33.109375 48.1875 
Q 26.21875 48.1875 22.15625 43.53125 
Q 18.109375 38.875 18.109375 30.90625 
L 18.109375 0 
L 9.078125 0 
L 9.078125 54.6875 
L 18.109375 54.6875 
L 18.109375 46.1875 
Q 21.1875 51.21875 25.484375 53.609375 
Q 29.78125 56 35.6875 56 
Q 41.65625 56 45.828125 52.96875 
Q 50 49.953125 52 44.1875 
z
" id="DejaVuSans-109"/>
     <path d="M 3.328125 72.90625 
L 13.28125 72.90625 
L 28.609375 11.28125 
L 43.890625 72.90625 
L 54.984375 72.90625 
L 70.3125 11.28125 
L 85.59375 72.90625 
L 95.609375 72.90625 
L 77.296875 0 
L 64.890625 0 
L 49.515625 63.28125 
L 33.984375 0 
L 21.578125 0 
z
" id="DejaVuSans-87"/>
    </defs>
    <g transform="translate(109.742813 25.43625)scale(0.24 -0.24)">
     <use xlink:href="#DejaVuSans-51"/>
     <use x="63.623047" xlink:href="#DejaVuSans-48"/>
     <use x="127.246094" xlink:href="#DejaVuSans-54"/>
     <use x="190.869141" xlink:href="#DejaVuSans-52"/>
     <use x="254.492188" xlink:href="#DejaVuSans-57"/>
     <use x="318.115234" xlink:href="#DejaVuSans-48"/>
     <use x="381.738281" xlink:href="#DejaVuSans-46"/>
     <use x="413.525391" xlink:href="#DejaVuSans-55"/>
     <use x="477.148438" xlink:href="#DejaVuSans-32"/>
     <use x="508.935547" xlink:href="#DejaVuSans-71"/>
     <use x="586.425781" xlink:href="#DejaVuSans-72"/>
     <use x="661.621094" xlink:href="#DejaVuSans-122"/>
     <use x="714.111328" xlink:href="#DejaVuSans-44"/>
     <use x="745.898438" xlink:href="#DejaVuSans-32"/>
     <use x="777.685547" xlink:href="#DejaVuSans-48"/>
     <use x="841.308594" xlink:href="#DejaVuSans-46"/>
     <use x="873.095703" xlink:href="#DejaVuSans-53"/>
     <use x="936.71875" xlink:href="#DejaVuSans-32"/>
     <use x="968.505859" xlink:href="#DejaVuSans-109"/>
     <use x="1065.917969" xlink:href="#DejaVuSans-87"/>
    </g>
   </g>
   <g id="legend_1">
    <g id="patch_7">
     <path d="M 82.616687 289.21825 
L 187.329994 289.21825 
Q 190.661994 289.21825 190.661994 285.88625 
L 190.661994 238.644737 
Q 190.661994 235.312737 187.329994 235.312737 
L 82.616687 235.312737 
Q 79.284688 235.312737 79.284688 238.644737 
L 79.284688 285.88625 
Q 79.284688 289.21825 82.616687 289.21825 
z
" style="fill:#ffffff;opacity:0.8;stroke:#cccccc;stroke-linejoin:miter;"/>
    </g>
    <g id="LineCollection_3">
     <path d="M 102.608688 257.134734 
L 102.608688 240.474734 
" style="fill:none;stroke:#1f77b4;stroke-width:1.5;"/>
    </g>
    <g id="line2d_25"/>
    <g id="line2d_26">
     <g>
      <use style="fill:#1f77b4;stroke:#1f77b4;" x="102.608688" xlink:href="#mb8bc26594a" y="248.804734"/>
     </g>
    </g>
    <g id="text_19">
     <!-- 80 ms -->
     <g transform="translate(132.596688 254.635734)scale(0.1666 -0.1666)">
      <use xlink:href="#DejaVuSans-56"/>
      <use x="63.623047" xlink:href="#DejaVuSans-48"/>
      <use x="127.246094" xlink:href="#DejaVuSans-32"/>
      <use x="159.033203" xlink:href="#DejaVuSans-109"/>
      <use x="256.445312" xlink:href="#DejaVuSans-115"/>
     </g>
    </g>
    <g id="LineCollection_4">
     <path d="M 102.608688 281.588491 
L 102.608688 264.928491 
" style="fill:none;stroke:#ff7f0e;stroke-width:1.5;"/>
    </g>
    <g id="line2d_27"/>
    <g id="line2d_28">
     <g>
      <use style="fill:#ff7f0e;stroke:#ff7f0e;" x="102.608688" xlink:href="#m3e2fb6b177" y="273.258491"/>
     </g>
    </g>
    <g id="text_20">
     <!-- 40 ms -->
     <g transform="translate(132.596688 279.089491)scale(0.1666 -0.1666)">
      <use xlink:href="#DejaVuSans-52"/>
      <use x="63.623047" xlink:href="#DejaVuSans-48"/>
      <use x="127.246094" xlink:href="#DejaVuSans-32"/>
      <use x="159.033203" xlink:href="#DejaVuSans-109"/>
      <use x="256.445312" xlink:href="#DejaVuSans-115"/>
     </g>
    </g>
   </g>
  </g>
 </g>
 <defs>
  <clipPath id="p140c2fcd43">
   <rect height="266.112" width="357.12" x="70.954688" y="31.43625"/>
  </clipPath>
 </defs>
</svg>
