<?xml version="1.0" encoding="utf-8" standalone="no"?>
<!DOCTYPE svg PUBLIC "-//W3C//DTD SVG 1.1//EN"
  "http://www.w3.org/Graphics/SVG/1.1/DTD/svg11.dtd">
<!-- Created with matplotlib (http://matplotlib.org/) -->
<svg height="349pt" version="1.1" viewBox="0 0 437 349" width="437pt" xmlns="http://www.w3.org/2000/svg" xmlns:xlink="http://www.w3.org/1999/xlink">
 <defs>
  <style type="text/css">
*{stroke-linecap:butt;stroke-linejoin:round;}
  </style>
 </defs>
 <g id="figure_1">
  <g id="patch_1">
   <path d="M 0 349.621687 
L 437.729335 349.621687 
L 437.729335 0 
L 0 0 
z
" style="fill:none;"/>
  </g>
  <g id="axes_1">
   <g id="patch_2">
    <path d="M 64.127344 297.54825 
L 421.247344 297.54825 
L 421.247344 31.43625 
L 64.127344 31.43625 
z
" style="fill:none;"/>
   </g>
   <g id="matplotlib.axis_1">
    <g id="xtick_1">
     <g id="line2d_1">
      <path clip-path="url(#p4d7b2de525)" d="M 88.44947 297.54825 
L 88.44947 31.43625 
" style="fill:none;stroke:#b0b0b0;stroke-linecap:square;stroke-width:0.8;"/>
     </g>
     <g id="line2d_2">
      <defs>
       <path d="M 0 0 
L 0 3.5 
" id="m0a7de1d245" style="stroke:#000000;stroke-width:0.8;"/>
      </defs>
      <g>
       <use style="stroke:#000000;stroke-width:0.8;" x="88.44947" xlink:href="#m0a7de1d245" y="297.54825"/>
      </g>
     </g>
     <g id="text_1">
      <!-- −0.50 -->
      <defs>
       <path d="M 10.59375 37.109375 
L 73.1875 37.109375 
L 73.1875 25.59375 
L 10.59375 25.59375 
z
" id="DejaVuSans-Bold-2212"/>
       <path d="M 46 36.53125 
Q 46 50.203125 43.4375 55.78125 
Q 40.875 61.375 34.8125 61.375 
Q 28.765625 61.375 26.171875 55.78125 
Q 23.578125 50.203125 23.578125 36.53125 
Q 23.578125 22.703125 26.171875 17.03125 
Q 28.765625 11.375 34.8125 11.375 
Q 40.828125 11.375 43.40625 17.03125 
Q 46 22.703125 46 36.53125 
M 64.796875 36.375 
Q 64.796875 18.265625 56.984375 8.421875 
Q 49.171875 -1.421875 34.8125 -1.421875 
Q 20.40625 -1.421875 12.59375 8.421875 
Q 4.78125 18.265625 4.78125 36.375 
Q 4.78125 54.546875 12.59375 64.375 
Q 20.40625 74.21875 34.8125 74.21875 
Q 49.171875 74.21875 56.984375 64.375 
Q 64.796875 54.546875 64.796875 36.375 
" id="DejaVuSans-Bold-30"/>
       <path d="M 10.203125 18.890625 
L 27.78125 18.890625 
L 27.78125 0 
L 10.203125 0 
z
" id="DejaVuSans-Bold-2e"/>
       <path d="M 10.59375 72.90625 
L 57.328125 72.90625 
L 57.328125 59.078125 
L 25.59375 59.078125 
L 25.59375 47.796875 
Q 27.734375 48.390625 29.90625 48.703125 
Q 32.078125 49.03125 34.421875 49.03125 
Q 47.75 49.03125 55.171875 42.359375 
Q 62.59375 35.6875 62.59375 23.78125 
Q 62.59375 11.96875 54.515625 5.265625 
Q 46.4375 -1.421875 32.078125 -1.421875 
Q 25.875 -1.421875 19.796875 -0.21875 
Q 13.71875 0.984375 7.71875 3.421875 
L 7.71875 18.21875 
Q 13.671875 14.796875 19.015625 13.078125 
Q 24.359375 11.375 29.109375 11.375 
Q 35.9375 11.375 39.859375 14.71875 
Q 43.796875 18.0625 43.796875 23.78125 
Q 43.796875 29.546875 39.859375 32.859375 
Q 35.9375 36.1875 29.109375 36.1875 
Q 25.046875 36.1875 20.453125 35.125 
Q 15.875 34.078125 10.59375 31.890625 
z
" id="DejaVuSans-Bold-35"/>
      </defs>
      <g transform="translate(63.660798 315.945906)scale(0.15 -0.15)">
       <use xlink:href="#DejaVuSans-Bold-2212"/>
       <use x="83.789062" xlink:href="#DejaVuSans-Bold-30"/>
       <use x="153.369141" xlink:href="#DejaVuSans-Bold-2e"/>
       <use x="191.357422" xlink:href="#DejaVuSans-Bold-35"/>
       <use x="260.9375" xlink:href="#DejaVuSans-Bold-30"/>
      </g>
     </g>
    </g>
    <g id="xtick_2">
     <g id="line2d_3">
      <path clip-path="url(#p4d7b2de525)" d="M 142.378796 297.54825 
L 142.378796 31.43625 
" style="fill:none;stroke:#b0b0b0;stroke-linecap:square;stroke-width:0.8;"/>
     </g>
     <g id="line2d_4">
      <g>
       <use style="stroke:#000000;stroke-width:0.8;" x="142.378796" xlink:href="#m0a7de1d245" y="297.54825"/>
      </g>
     </g>
     <g id="text_2">
      <!-- −0.25 -->
      <defs>
       <path d="M 28.8125 13.8125 
L 60.890625 13.8125 
L 60.890625 0 
L 7.90625 0 
L 7.90625 13.8125 
L 34.515625 37.3125 
Q 38.09375 40.53125 39.796875 43.609375 
Q 41.5 46.6875 41.5 50 
Q 41.5 55.125 38.0625 58.25 
Q 34.625 61.375 28.90625 61.375 
Q 24.515625 61.375 19.28125 59.5 
Q 14.0625 57.625 8.109375 53.90625 
L 8.109375 69.921875 
Q 14.453125 72.015625 20.65625 73.109375 
Q 26.859375 74.21875 32.8125 74.21875 
Q 45.90625 74.21875 53.15625 68.453125 
Q 60.40625 62.703125 60.40625 52.390625 
Q 60.40625 46.4375 57.328125 41.28125 
Q 54.25 36.140625 44.390625 27.484375 
z
" id="DejaVuSans-Bold-32"/>
      </defs>
      <g transform="translate(117.590125 315.945906)scale(0.15 -0.15)">
       <use xlink:href="#DejaVuSans-Bold-2212"/>
       <use x="83.789062" xlink:href="#DejaVuSans-Bold-30"/>
       <use x="153.369141" xlink:href="#DejaVuSans-Bold-2e"/>
       <use x="191.357422" xlink:href="#DejaVuSans-Bold-32"/>
       <use x="260.9375" xlink:href="#DejaVuSans-Bold-35"/>
      </g>
     </g>
    </g>
    <g id="xtick_3">
     <g id="line2d_5">
      <path clip-path="url(#p4d7b2de525)" d="M 196.308123 297.54825 
L 196.308123 31.43625 
" style="fill:none;stroke:#b0b0b0;stroke-linecap:square;stroke-width:0.8;"/>
     </g>
     <g id="line2d_6">
      <g>
       <use style="stroke:#000000;stroke-width:0.8;" x="196.308123" xlink:href="#m0a7de1d245" y="297.54825"/>
      </g>
     </g>
     <g id="text_3">
      <!-- 0.00 -->
      <g transform="translate(177.804217 315.945906)scale(0.15 -0.15)">
       <use xlink:href="#DejaVuSans-Bold-30"/>
       <use x="69.580078" xlink:href="#DejaVuSans-Bold-2e"/>
       <use x="107.568359" xlink:href="#DejaVuSans-Bold-30"/>
       <use x="177.148438" xlink:href="#DejaVuSans-Bold-30"/>
      </g>
     </g>
    </g>
    <g id="xtick_4">
     <g id="line2d_7">
      <path clip-path="url(#p4d7b2de525)" d="M 250.237449 297.54825 
L 250.237449 31.43625 
" style="fill:none;stroke:#b0b0b0;stroke-linecap:square;stroke-width:0.8;"/>
     </g>
     <g id="line2d_8">
      <g>
       <use style="stroke:#000000;stroke-width:0.8;" x="250.237449" xlink:href="#m0a7de1d245" y="297.54825"/>
      </g>
     </g>
     <g id="text_4">
      <!-- 0.25 -->
      <g transform="translate(231.733543 315.945906)scale(0.15 -0.15)">
       <use xlink:href="#DejaVuSans-Bold-30"/>
       <use x="69.580078" xlink:href="#DejaVuSans-Bold-2e"/>
       <use x="107.568359" xlink:href="#DejaVuSans-Bold-32"/>
       <use x="177.148438" xlink:href="#DejaVuSans-Bold-35"/>
      </g>
     </g>
    </g>
    <g id="xtick_5">
     <g id="line2d_9">
      <path clip-path="url(#p4d7b2de525)" d="M 304.166776 297.54825 
L 304.166776 31.43625 
" style="fill:none;stroke:#b0b0b0;stroke-linecap:square;stroke-width:0.8;"/>
     </g>
     <g id="line2d_10">
      <g>
       <use style="stroke:#000000;stroke-width:0.8;" x="304.166776" xlink:href="#m0a7de1d245" y="297.54825"/>
      </g>
     </g>
     <g id="text_5">
      <!-- 0.50 -->
      <g transform="translate(285.66287 315.945906)scale(0.15 -0.15)">
       <use xlink:href="#DejaVuSans-Bold-30"/>
       <use x="69.580078" xlink:href="#DejaVuSans-Bold-2e"/>
       <use x="107.568359" xlink:href="#DejaVuSans-Bold-35"/>
       <use x="177.148438" xlink:href="#DejaVuSans-Bold-30"/>
      </g>
     </g>
    </g>
    <g id="xtick_6">
     <g id="line2d_11">
      <path clip-path="url(#p4d7b2de525)" d="M 358.096102 297.54825 
L 358.096102 31.43625 
" style="fill:none;stroke:#b0b0b0;stroke-linecap:square;stroke-width:0.8;"/>
     </g>
     <g id="line2d_12">
      <g>
       <use style="stroke:#000000;stroke-width:0.8;" x="358.096102" xlink:href="#m0a7de1d245" y="297.54825"/>
      </g>
     </g>
     <g id="text_6">
      <!-- 0.75 -->
      <defs>
       <path d="M 6.6875 72.90625 
L 61.625 72.90625 
L 61.625 62.3125 
L 33.203125 0 
L 14.890625 0 
L 41.796875 59.078125 
L 6.6875 59.078125 
z
" id="DejaVuSans-Bold-37"/>
      </defs>
      <g transform="translate(339.592196 315.945906)scale(0.15 -0.15)">
       <use xlink:href="#DejaVuSans-Bold-30"/>
       <use x="69.580078" xlink:href="#DejaVuSans-Bold-2e"/>
       <use x="107.568359" xlink:href="#DejaVuSans-Bold-37"/>
       <use x="177.148438" xlink:href="#DejaVuSans-Bold-35"/>
      </g>
     </g>
    </g>
    <g id="xtick_7">
     <g id="line2d_13">
      <path clip-path="url(#p4d7b2de525)" d="M 412.025429 297.54825 
L 412.025429 31.43625 
" style="fill:none;stroke:#b0b0b0;stroke-linecap:square;stroke-width:0.8;"/>
     </g>
     <g id="line2d_14">
      <g>
       <use style="stroke:#000000;stroke-width:0.8;" x="412.025429" xlink:href="#m0a7de1d245" y="297.54825"/>
      </g>
     </g>
     <g id="text_7">
      <!-- 1.00 -->
      <defs>
       <path d="M 11.71875 12.984375 
L 28.328125 12.984375 
L 28.328125 60.109375 
L 11.28125 56.59375 
L 11.28125 69.390625 
L 28.21875 72.90625 
L 46.09375 72.90625 
L 46.09375 12.984375 
L 62.703125 12.984375 
L 62.703125 0 
L 11.71875 0 
z
" id="DejaVuSans-Bold-31"/>
      </defs>
      <g transform="translate(393.521523 315.945906)scale(0.15 -0.15)">
       <use xlink:href="#DejaVuSans-Bold-31"/>
       <use x="69.580078" xlink:href="#DejaVuSans-Bold-2e"/>
       <use x="107.568359" xlink:href="#DejaVuSans-Bold-30"/>
       <use x="177.148438" xlink:href="#DejaVuSans-Bold-30"/>
      </g>
     </g>
    </g>
    <g id="text_8">
     <!-- $\delta$/MHz -->
     <defs>
      <path d="M 61.140625 61.71875 
Q 55.8125 65.140625 40.234375 65.140625 
Q 31.9375 65.140625 31 60.359375 
Q 30.953125 60.015625 30.953125 59.71875 
Q 30.953125 55.671875 41.15625 54.109375 
Q 63.09375 50.6875 63.09375 33.734375 
Q 63.09375 30.671875 62.40625 27.09375 
Q 59.8125 13.875 50.34375 6.25 
Q 40.828125 -1.421875 26.859375 -1.421875 
Q 12.84375 -1.421875 6.296875 6.25 
Q 1.5625 11.71875 1.5625 20.125 
Q 1.5625 35.203125 13.8125 45.3125 
Q 16.796875 47.75 20.21875 49.3125 
Q 14.984375 52.4375 14.984375 58.15625 
Q 14.984375 59.46875 15.28125 60.9375 
Q 18.359375 76.765625 44.140625 76.765625 
Q 57.078125 76.765625 63.375 73.34375 
z
M 31.296875 42.96875 
Q 28.515625 41.890625 25.921875 39.15625 
Q 21.875 34.90625 20.40625 27.25 
Q 19.828125 24.265625 19.828125 21.09375 
Q 19.828125 17.921875 21.234375 15.28125 
Q 23.640625 10.984375 29.15625 10.984375 
Q 34.71875 10.984375 38.765625 15.328125 
Q 42.875 19.734375 44.28125 27.046875 
Q 44.78125 29.5 44.78125 32.5625 
Q 44.78125 35.59375 42.921875 37.984375 
Q 40.1875 41.703125 35.453125 42.234375 
Q 33.25 42.484375 31.296875 42.96875 
" id="DejaVuSans-BoldOblique-3b4"/>
      <path d="M 25.390625 72.90625 
L 33.6875 72.90625 
L 8.296875 -9.28125 
L 0 -9.28125 
z
" id="DejaVuSans-2f"/>
      <path d="M 9.8125 72.90625 
L 24.515625 72.90625 
L 43.109375 23.296875 
L 61.8125 72.90625 
L 76.515625 72.90625 
L 76.515625 0 
L 66.890625 0 
L 66.890625 64.015625 
L 48.09375 14.015625 
L 38.1875 14.015625 
L 19.390625 64.015625 
L 19.390625 0 
L 9.8125 0 
z
" id="DejaVuSans-4d"/>
      <path d="M 9.8125 72.90625 
L 19.671875 72.90625 
L 19.671875 43.015625 
L 55.515625 43.015625 
L 55.515625 72.90625 
L 65.375 72.90625 
L 65.375 0 
L 55.515625 0 
L 55.515625 34.71875 
L 19.671875 34.71875 
L 19.671875 0 
L 9.8125 0 
z
" id="DejaVuSans-48"/>
      <path d="M 5.515625 54.6875 
L 48.1875 54.6875 
L 48.1875 46.484375 
L 14.40625 7.171875 
L 48.1875 7.171875 
L 48.1875 0 
L 4.296875 0 
L 4.296875 8.203125 
L 38.09375 47.515625 
L 5.515625 47.515625 
z
" id="DejaVuSans-7a"/>
     </defs>
     <g transform="translate(210.987344 338.262312)scale(0.2 -0.2)">
      <use transform="translate(0 0.234375)" xlink:href="#DejaVuSans-BoldOblique-3b4"/>
      <use transform="translate(68.701172 0.234375)" xlink:href="#DejaVuSans-2f"/>
      <use transform="translate(102.392578 0.234375)" xlink:href="#DejaVuSans-4d"/>
      <use transform="translate(188.671875 0.234375)" xlink:href="#DejaVuSans-48"/>
      <use transform="translate(263.867188 0.234375)" xlink:href="#DejaVuSans-7a"/>
     </g>
    </g>
   </g>
   <g id="matplotlib.axis_2">
    <g id="ytick_1">
     <g id="line2d_15">
      <path clip-path="url(#p4d7b2de525)" d="M 64.127344 297.54825 
L 421.247344 297.54825 
" style="fill:none;stroke:#b0b0b0;stroke-linecap:square;stroke-width:0.8;"/>
     </g>
     <g id="line2d_16">
      <defs>
       <path d="M 0 0 
L -3.5 0 
" id="m08db91e50c" style="stroke:#000000;stroke-width:0.8;"/>
      </defs>
      <g>
       <use style="stroke:#000000;stroke-width:0.8;" x="64.127344" xlink:href="#m08db91e50c" y="297.54825"/>
      </g>
     </g>
     <g id="text_9">
      <!-- 0.0 -->
      <g transform="translate(30.55625 303.247078)scale(0.15 -0.15)">
       <use xlink:href="#DejaVuSans-Bold-30"/>
       <use x="69.580078" xlink:href="#DejaVuSans-Bold-2e"/>
       <use x="107.568359" xlink:href="#DejaVuSans-Bold-30"/>
      </g>
     </g>
    </g>
    <g id="ytick_2">
     <g id="line2d_17">
      <path clip-path="url(#p4d7b2de525)" d="M 64.127344 234.933662 
L 421.247344 234.933662 
" style="fill:none;stroke:#b0b0b0;stroke-linecap:square;stroke-width:0.8;"/>
     </g>
     <g id="line2d_18">
      <g>
       <use style="stroke:#000000;stroke-width:0.8;" x="64.127344" xlink:href="#m08db91e50c" y="234.933662"/>
      </g>
     </g>
     <g id="text_10">
      <!-- 0.2 -->
      <g transform="translate(30.55625 240.63249)scale(0.15 -0.15)">
       <use xlink:href="#DejaVuSans-Bold-30"/>
       <use x="69.580078" xlink:href="#DejaVuSans-Bold-2e"/>
       <use x="107.568359" xlink:href="#DejaVuSans-Bold-32"/>
      </g>
     </g>
    </g>
    <g id="ytick_3">
     <g id="line2d_19">
      <path clip-path="url(#p4d7b2de525)" d="M 64.127344 172.319074 
L 421.247344 172.319074 
" style="fill:none;stroke:#b0b0b0;stroke-linecap:square;stroke-width:0.8;"/>
     </g>
     <g id="line2d_20">
      <g>
       <use style="stroke:#000000;stroke-width:0.8;" x="64.127344" xlink:href="#m08db91e50c" y="172.319074"/>
      </g>
     </g>
     <g id="text_11">
      <!-- 0.4 -->
      <defs>
       <path d="M 36.8125 57.421875 
L 16.21875 26.90625 
L 36.8125 26.90625 
z
M 33.6875 72.90625 
L 54.59375 72.90625 
L 54.59375 26.90625 
L 64.984375 26.90625 
L 64.984375 13.28125 
L 54.59375 13.28125 
L 54.59375 0 
L 36.8125 0 
L 36.8125 13.28125 
L 4.5 13.28125 
L 4.5 29.390625 
z
" id="DejaVuSans-Bold-34"/>
      </defs>
      <g transform="translate(30.55625 178.017902)scale(0.15 -0.15)">
       <use xlink:href="#DejaVuSans-Bold-30"/>
       <use x="69.580078" xlink:href="#DejaVuSans-Bold-2e"/>
       <use x="107.568359" xlink:href="#DejaVuSans-Bold-34"/>
      </g>
     </g>
    </g>
    <g id="ytick_4">
     <g id="line2d_21">
      <path clip-path="url(#p4d7b2de525)" d="M 64.127344 109.704485 
L 421.247344 109.704485 
" style="fill:none;stroke:#b0b0b0;stroke-linecap:square;stroke-width:0.8;"/>
     </g>
     <g id="line2d_22">
      <g>
       <use style="stroke:#000000;stroke-width:0.8;" x="64.127344" xlink:href="#m08db91e50c" y="109.704485"/>
      </g>
     </g>
     <g id="text_12">
      <!-- 0.6 -->
      <defs>
       <path d="M 36.1875 35.984375 
Q 31.25 35.984375 28.78125 32.78125 
Q 26.3125 29.59375 26.3125 23.1875 
Q 26.3125 16.796875 28.78125 13.59375 
Q 31.25 10.40625 36.1875 10.40625 
Q 41.15625 10.40625 43.625 13.59375 
Q 46.09375 16.796875 46.09375 23.1875 
Q 46.09375 29.59375 43.625 32.78125 
Q 41.15625 35.984375 36.1875 35.984375 
M 59.421875 71 
L 59.421875 57.515625 
Q 54.78125 59.71875 50.671875 60.765625 
Q 46.578125 61.8125 42.671875 61.8125 
Q 34.28125 61.8125 29.59375 57.140625 
Q 24.90625 52.484375 24.125 43.3125 
Q 27.34375 45.703125 31.09375 46.890625 
Q 34.859375 48.09375 39.3125 48.09375 
Q 50.484375 48.09375 57.34375 41.546875 
Q 64.203125 35.015625 64.203125 24.421875 
Q 64.203125 12.703125 56.53125 5.640625 
Q 48.875 -1.421875 35.984375 -1.421875 
Q 21.78125 -1.421875 13.984375 8.171875 
Q 6.203125 17.78125 6.203125 35.40625 
Q 6.203125 53.46875 15.3125 63.796875 
Q 24.421875 74.125 40.28125 74.125 
Q 45.3125 74.125 50.046875 73.34375 
Q 54.78125 72.5625 59.421875 71 
" id="DejaVuSans-Bold-36"/>
      </defs>
      <g transform="translate(30.55625 115.403313)scale(0.15 -0.15)">
       <use xlink:href="#DejaVuSans-Bold-30"/>
       <use x="69.580078" xlink:href="#DejaVuSans-Bold-2e"/>
       <use x="107.568359" xlink:href="#DejaVuSans-Bold-36"/>
      </g>
     </g>
    </g>
    <g id="ytick_5">
     <g id="line2d_23">
      <path clip-path="url(#p4d7b2de525)" d="M 64.127344 47.089897 
L 421.247344 47.089897 
" style="fill:none;stroke:#b0b0b0;stroke-linecap:square;stroke-width:0.8;"/>
     </g>
     <g id="line2d_24">
      <g>
       <use style="stroke:#000000;stroke-width:0.8;" x="64.127344" xlink:href="#m08db91e50c" y="47.089897"/>
      </g>
     </g>
     <g id="text_13">
      <!-- 0.8 -->
      <defs>
       <path d="M 34.8125 32.625 
Q 29.546875 32.625 26.703125 29.734375 
Q 23.875 26.859375 23.875 21.484375 
Q 23.875 16.109375 26.703125 13.25 
Q 29.546875 10.40625 34.8125 10.40625 
Q 40.046875 10.40625 42.828125 13.25 
Q 45.609375 16.109375 45.609375 21.484375 
Q 45.609375 26.90625 42.828125 29.765625 
Q 40.046875 32.625 34.8125 32.625 
M 21.09375 38.8125 
Q 14.453125 40.828125 11.078125 44.96875 
Q 7.71875 49.125 7.71875 55.328125 
Q 7.71875 64.546875 14.59375 69.375 
Q 21.484375 74.21875 34.8125 74.21875 
Q 48.046875 74.21875 54.921875 69.40625 
Q 61.8125 64.59375 61.8125 55.328125 
Q 61.8125 49.125 58.421875 44.96875 
Q 55.03125 40.828125 48.390625 38.8125 
Q 55.8125 36.765625 59.59375 32.15625 
Q 63.375 27.546875 63.375 20.515625 
Q 63.375 9.671875 56.171875 4.125 
Q 48.96875 -1.421875 34.8125 -1.421875 
Q 20.609375 -1.421875 13.359375 4.125 
Q 6.109375 9.671875 6.109375 20.515625 
Q 6.109375 27.546875 9.890625 32.15625 
Q 13.671875 36.765625 21.09375 38.8125 
M 25.484375 53.421875 
Q 25.484375 49.078125 27.90625 46.734375 
Q 30.328125 44.390625 34.8125 44.390625 
Q 39.203125 44.390625 41.59375 46.734375 
Q 44 49.078125 44 53.421875 
Q 44 57.765625 41.59375 60.078125 
Q 39.203125 62.40625 34.8125 62.40625 
Q 30.328125 62.40625 27.90625 60.0625 
Q 25.484375 57.71875 25.484375 53.421875 
" id="DejaVuSans-Bold-38"/>
      </defs>
      <g transform="translate(30.55625 52.788725)scale(0.15 -0.15)">
       <use xlink:href="#DejaVuSans-Bold-30"/>
       <use x="69.580078" xlink:href="#DejaVuSans-Bold-2e"/>
       <use x="107.568359" xlink:href="#DejaVuSans-Bold-38"/>
      </g>
     </g>
    </g>
    <g id="text_14">
     <!-- Survival -->
     <defs>
      <path d="M 53.515625 70.515625 
L 53.515625 60.890625 
Q 47.90625 63.578125 42.921875 64.890625 
Q 37.9375 66.21875 33.296875 66.21875 
Q 25.25 66.21875 20.875 63.09375 
Q 16.5 59.96875 16.5 54.203125 
Q 16.5 49.359375 19.40625 46.890625 
Q 22.3125 44.4375 30.421875 42.921875 
L 36.375 41.703125 
Q 47.40625 39.59375 52.65625 34.296875 
Q 57.90625 29 57.90625 20.125 
Q 57.90625 9.515625 50.796875 4.046875 
Q 43.703125 -1.421875 29.984375 -1.421875 
Q 24.8125 -1.421875 18.96875 -0.25 
Q 13.140625 0.921875 6.890625 3.21875 
L 6.890625 13.375 
Q 12.890625 10.015625 18.65625 8.296875 
Q 24.421875 6.59375 29.984375 6.59375 
Q 38.421875 6.59375 43.015625 9.90625 
Q 47.609375 13.234375 47.609375 19.390625 
Q 47.609375 24.75 44.3125 27.78125 
Q 41.015625 30.8125 33.5 32.328125 
L 27.484375 33.5 
Q 16.453125 35.6875 11.515625 40.375 
Q 6.59375 45.0625 6.59375 53.421875 
Q 6.59375 63.09375 13.40625 68.65625 
Q 20.21875 74.21875 32.171875 74.21875 
Q 37.3125 74.21875 42.625 73.28125 
Q 47.953125 72.359375 53.515625 70.515625 
" id="DejaVuSans-53"/>
      <path d="M 8.5 21.578125 
L 8.5 54.6875 
L 17.484375 54.6875 
L 17.484375 21.921875 
Q 17.484375 14.15625 20.5 10.265625 
Q 23.53125 6.390625 29.59375 6.390625 
Q 36.859375 6.390625 41.078125 11.03125 
Q 45.3125 15.671875 45.3125 23.6875 
L 45.3125 54.6875 
L 54.296875 54.6875 
L 54.296875 0 
L 45.3125 0 
L 45.3125 8.40625 
Q 42.046875 3.421875 37.71875 1 
Q 33.40625 -1.421875 27.6875 -1.421875 
Q 18.265625 -1.421875 13.375 4.4375 
Q 8.5 10.296875 8.5 21.578125 
M 31.109375 56 
z
" id="DejaVuSans-75"/>
      <path d="M 41.109375 46.296875 
Q 39.59375 47.171875 37.8125 47.578125 
Q 36.03125 48 33.890625 48 
Q 26.265625 48 22.1875 43.046875 
Q 18.109375 38.09375 18.109375 28.8125 
L 18.109375 0 
L 9.078125 0 
L 9.078125 54.6875 
L 18.109375 54.6875 
L 18.109375 46.1875 
Q 20.953125 51.171875 25.484375 53.578125 
Q 30.03125 56 36.53125 56 
Q 37.453125 56 38.578125 55.875 
Q 39.703125 55.765625 41.0625 55.515625 
z
" id="DejaVuSans-72"/>
      <path d="M 2.984375 54.6875 
L 12.5 54.6875 
L 29.59375 8.796875 
L 46.6875 54.6875 
L 56.203125 54.6875 
L 35.6875 0 
L 23.484375 0 
z
" id="DejaVuSans-76"/>
      <path d="M 9.421875 54.6875 
L 18.40625 54.6875 
L 18.40625 0 
L 9.421875 0 
z
M 9.421875 75.984375 
L 18.40625 75.984375 
L 18.40625 64.59375 
L 9.421875 64.59375 
z
" id="DejaVuSans-69"/>
      <path d="M 34.28125 27.484375 
Q 23.390625 27.484375 19.1875 25 
Q 14.984375 22.515625 14.984375 16.5 
Q 14.984375 11.71875 18.140625 8.90625 
Q 21.296875 6.109375 26.703125 6.109375 
Q 34.1875 6.109375 38.703125 11.40625 
Q 43.21875 16.703125 43.21875 25.484375 
L 43.21875 27.484375 
z
M 52.203125 31.203125 
L 52.203125 0 
L 43.21875 0 
L 43.21875 8.296875 
Q 40.140625 3.328125 35.546875 0.953125 
Q 30.953125 -1.421875 24.3125 -1.421875 
Q 15.921875 -1.421875 10.953125 3.296875 
Q 6 8.015625 6 15.921875 
Q 6 25.140625 12.171875 29.828125 
Q 18.359375 34.515625 30.609375 34.515625 
L 43.21875 34.515625 
L 43.21875 35.40625 
Q 43.21875 41.609375 39.140625 45 
Q 35.0625 48.390625 27.6875 48.390625 
Q 23 48.390625 18.546875 47.265625 
Q 14.109375 46.140625 10.015625 43.890625 
L 10.015625 52.203125 
Q 14.9375 54.109375 19.578125 55.046875 
Q 24.21875 56 28.609375 56 
Q 40.484375 56 46.34375 49.84375 
Q 52.203125 43.703125 52.203125 31.203125 
" id="DejaVuSans-61"/>
      <path d="M 9.421875 75.984375 
L 18.40625 75.984375 
L 18.40625 0 
L 9.421875 0 
z
" id="DejaVuSans-6c"/>
     </defs>
     <g transform="translate(22.396875 204.811)rotate(-90)scale(0.2 -0.2)">
      <use xlink:href="#DejaVuSans-53"/>
      <use x="63.476562" xlink:href="#DejaVuSans-75"/>
      <use x="126.855469" xlink:href="#DejaVuSans-72"/>
      <use x="167.96875" xlink:href="#DejaVuSans-76"/>
      <use x="227.148438" xlink:href="#DejaVuSans-69"/>
      <use x="254.931641" xlink:href="#DejaVuSans-76"/>
      <use x="314.111328" xlink:href="#DejaVuSans-61"/>
      <use x="375.390625" xlink:href="#DejaVuSans-6c"/>
     </g>
    </g>
   </g>
   <g id="LineCollection_1">
    <path clip-path="url(#p4d7b2de525)" d="M 80.360071 279.227235 
L 80.360071 269.088251 
" style="fill:none;stroke:#ff0000;stroke-width:1.5;"/>
    <path clip-path="url(#p4d7b2de525)" d="M 84.674417 273.549392 
L 84.674417 262.707158 
" style="fill:none;stroke:#ff0000;stroke-width:1.5;"/>
    <path clip-path="url(#p4d7b2de525)" d="M 88.988763 282.896499 
L 88.988763 273.793284 
" style="fill:none;stroke:#ff0000;stroke-width:1.5;"/>
    <path clip-path="url(#p4d7b2de525)" d="M 93.303109 269.818201 
L 93.303109 257.938082 
" style="fill:none;stroke:#ff0000;stroke-width:1.5;"/>
    <path clip-path="url(#p4d7b2de525)" d="M 97.617455 189.63707 
L 97.617455 170.952322 
" style="fill:none;stroke:#ff0000;stroke-width:1.5;"/>
    <path clip-path="url(#p4d7b2de525)" d="M 101.931802 85.793011 
L 101.931802 68.469164 
" style="fill:none;stroke:#ff0000;stroke-width:1.5;"/>
    <path clip-path="url(#p4d7b2de525)" d="M 106.246148 111.394956 
L 106.246148 92.940133 
" style="fill:none;stroke:#ff0000;stroke-width:1.5;"/>
    <path clip-path="url(#p4d7b2de525)" d="M 110.560494 213.141086 
L 110.560494 194.875242 
" style="fill:none;stroke:#ff0000;stroke-width:1.5;"/>
    <path clip-path="url(#p4d7b2de525)" d="M 114.87484 272.694055 
L 114.87484 261.227273 
" style="fill:none;stroke:#ff0000;stroke-width:1.5;"/>
    <path clip-path="url(#p4d7b2de525)" d="M 119.189186 271.107888 
L 119.189186 259.497931 
" style="fill:none;stroke:#ff0000;stroke-width:1.5;"/>
    <path clip-path="url(#p4d7b2de525)" d="M 123.503532 269.711831 
L 123.503532 257.789375 
" style="fill:none;stroke:#ff0000;stroke-width:1.5;"/>
    <path clip-path="url(#p4d7b2de525)" d="M 127.817878 287.952624 
L 127.817878 280.275676 
" style="fill:none;stroke:#ff0000;stroke-width:1.5;"/>
   </g>
   <g id="LineCollection_2">
    <path clip-path="url(#p4d7b2de525)" d="M 254.012502 294.582466 
L 254.012502 289.635051 
" style="fill:none;stroke:#ff0000;stroke-width:1.5;"/>
    <path clip-path="url(#p4d7b2de525)" d="M 259.405435 283.354145 
L 259.405435 273.754425 
" style="fill:none;stroke:#ff0000;stroke-width:1.5;"/>
    <path clip-path="url(#p4d7b2de525)" d="M 264.798368 294.660984 
L 264.798368 289.842823 
" style="fill:none;stroke:#ff0000;stroke-width:1.5;"/>
    <path clip-path="url(#p4d7b2de525)" d="M 270.1913 283.875485 
L 270.1913 275.007354 
" style="fill:none;stroke:#ff0000;stroke-width:1.5;"/>
    <path clip-path="url(#p4d7b2de525)" d="M 275.584233 275.975435 
L 275.584233 265.142971 
" style="fill:none;stroke:#ff0000;stroke-width:1.5;"/>
    <path clip-path="url(#p4d7b2de525)" d="M 280.977166 275.096562 
L 280.977166 264.418148 
" style="fill:none;stroke:#ff0000;stroke-width:1.5;"/>
    <path clip-path="url(#p4d7b2de525)" d="M 286.370098 186.739282 
L 286.370098 168.484785 
" style="fill:none;stroke:#ff0000;stroke-width:1.5;"/>
    <path clip-path="url(#p4d7b2de525)" d="M 291.763031 136.216265 
L 291.763031 117.449238 
" style="fill:none;stroke:#ff0000;stroke-width:1.5;"/>
    <path clip-path="url(#p4d7b2de525)" d="M 297.155964 233.349973 
L 297.155964 217.340189 
" style="fill:none;stroke:#ff0000;stroke-width:1.5;"/>
    <path clip-path="url(#p4d7b2de525)" d="M 302.548896 287.25357 
L 302.548896 279.484874 
" style="fill:none;stroke:#ff0000;stroke-width:1.5;"/>
    <path clip-path="url(#p4d7b2de525)" d="M 307.941829 282.454025 
L 307.941829 272.703129 
" style="fill:none;stroke:#ff0000;stroke-width:1.5;"/>
    <path clip-path="url(#p4d7b2de525)" d="M 313.334761 285.665068 
L 313.334761 277.574887 
" style="fill:none;stroke:#ff0000;stroke-width:1.5;"/>
    <path clip-path="url(#p4d7b2de525)" d="M 318.727694 290.112432 
L 318.727694 283.274631 
" style="fill:none;stroke:#ff0000;stroke-width:1.5;"/>
    <path clip-path="url(#p4d7b2de525)" d="M 324.120627 293.804033 
L 324.120627 288.537643 
" style="fill:none;stroke:#ff0000;stroke-width:1.5;"/>
    <path clip-path="url(#p4d7b2de525)" d="M 329.513559 291.047142 
L 329.513559 284.553973 
" style="fill:none;stroke:#ff0000;stroke-width:1.5;"/>
    <path clip-path="url(#p4d7b2de525)" d="M 334.906492 293.775912 
L 334.906492 288.470579 
" style="fill:none;stroke:#ff0000;stroke-width:1.5;"/>
    <path clip-path="url(#p4d7b2de525)" d="M 340.299425 295.48496 
L 340.299425 291.150109 
" style="fill:none;stroke:#ff0000;stroke-width:1.5;"/>
    <path clip-path="url(#p4d7b2de525)" d="M 345.692357 294.735452 
L 345.692357 290.039962 
" style="fill:none;stroke:#ff0000;stroke-width:1.5;"/>
    <path clip-path="url(#p4d7b2de525)" d="M 351.08529 296.258111 
L 351.08529 292.42296 
" style="fill:none;stroke:#ff0000;stroke-width:1.5;"/>
    <path clip-path="url(#p4d7b2de525)" d="M 356.478223 293.550737 
L 356.478223 287.933896 
" style="fill:none;stroke:#ff0000;stroke-width:1.5;"/>
    <path clip-path="url(#p4d7b2de525)" d="M 361.871155 288.920923 
L 361.871155 281.551862 
" style="fill:none;stroke:#ff0000;stroke-width:1.5;"/>
    <path clip-path="url(#p4d7b2de525)" d="M 367.264088 289.234828 
L 367.264088 282.1269 
" style="fill:none;stroke:#ff0000;stroke-width:1.5;"/>
    <path clip-path="url(#p4d7b2de525)" d="M 372.657021 285.472589 
L 372.657021 276.860464 
" style="fill:none;stroke:#ff0000;stroke-width:1.5;"/>
    <path clip-path="url(#p4d7b2de525)" d="M 378.049953 272.694055 
L 378.049953 261.227273 
" style="fill:none;stroke:#ff0000;stroke-width:1.5;"/>
    <path clip-path="url(#p4d7b2de525)" d="M 383.442886 256.13206 
L 383.442886 242.365726 
" style="fill:none;stroke:#ff0000;stroke-width:1.5;"/>
    <path clip-path="url(#p4d7b2de525)" d="M 388.835819 276.590673 
L 388.835819 266.327004 
" style="fill:none;stroke:#ff0000;stroke-width:1.5;"/>
    <path clip-path="url(#p4d7b2de525)" d="M 394.228751 287.988595 
L 394.228751 280.339587 
" style="fill:none;stroke:#ff0000;stroke-width:1.5;"/>
    <path clip-path="url(#p4d7b2de525)" d="M 399.621684 291.913419 
L 399.621684 285.725482 
" style="fill:none;stroke:#ff0000;stroke-width:1.5;"/>
    <path clip-path="url(#p4d7b2de525)" d="M 405.014616 293.014178 
L 405.014616 287.442221 
" style="fill:none;stroke:#ff0000;stroke-width:1.5;"/>
   </g>
   <g id="LineCollection_3">
    <path clip-path="url(#p4d7b2de525)" d="M 85.21371 292.621758 
L 85.21371 286.576507 
" style="fill:none;stroke:#0000ff;stroke-width:1.5;"/>
    <path clip-path="url(#p4d7b2de525)" d="M 89.528057 291.78393 
L 89.528057 285.456699 
" style="fill:none;stroke:#0000ff;stroke-width:1.5;"/>
    <path clip-path="url(#p4d7b2de525)" d="M 93.842403 270.02852 
L 93.842403 258.232184 
" style="fill:none;stroke:#0000ff;stroke-width:1.5;"/>
    <path clip-path="url(#p4d7b2de525)" d="M 98.156749 218.810859 
L 98.156749 201.113876 
" style="fill:none;stroke:#0000ff;stroke-width:1.5;"/>
    <path clip-path="url(#p4d7b2de525)" d="M 102.471095 135.275629 
L 102.471095 115.044341 
" style="fill:none;stroke:#0000ff;stroke-width:1.5;"/>
    <path clip-path="url(#p4d7b2de525)" d="M 106.785441 126.982399 
L 106.785441 107.71618 
" style="fill:none;stroke:#0000ff;stroke-width:1.5;"/>
    <path clip-path="url(#p4d7b2de525)" d="M 111.099787 207.943109 
L 111.099787 189.619273 
" style="fill:none;stroke:#0000ff;stroke-width:1.5;"/>
    <path clip-path="url(#p4d7b2de525)" d="M 115.414133 274.159349 
L 115.414133 262.777355 
" style="fill:none;stroke:#0000ff;stroke-width:1.5;"/>
    <path clip-path="url(#p4d7b2de525)" d="M 119.728479 293.775912 
L 119.728479 288.470579 
" style="fill:none;stroke:#0000ff;stroke-width:1.5;"/>
    <path clip-path="url(#p4d7b2de525)" d="M 124.042825 294.605332 
L 124.042825 289.695549 
" style="fill:none;stroke:#0000ff;stroke-width:1.5;"/>
    <path clip-path="url(#p4d7b2de525)" d="M 128.357172 295.418809 
L 128.357172 290.946573 
" style="fill:none;stroke:#0000ff;stroke-width:1.5;"/>
   </g>
   <g id="LineCollection_4">
    <path clip-path="url(#p4d7b2de525)" d="M 265.337661 296.304249 
L 265.337661 292.605039 
" style="fill:none;stroke:#0000ff;stroke-width:1.5;"/>
    <path clip-path="url(#p4d7b2de525)" d="M 269.652007 293.436191 
L 269.652007 287.661112 
" style="fill:none;stroke:#0000ff;stroke-width:1.5;"/>
    <path clip-path="url(#p4d7b2de525)" d="M 273.966353 290.501061 
L 273.966353 283.475439 
" style="fill:none;stroke:#0000ff;stroke-width:1.5;"/>
    <path clip-path="url(#p4d7b2de525)" d="M 278.280699 295.427309 
L 278.280699 290.97272 
" style="fill:none;stroke:#0000ff;stroke-width:1.5;"/>
    <path clip-path="url(#p4d7b2de525)" d="M 282.595045 278.730109 
L 282.595045 268.648954 
" style="fill:none;stroke:#0000ff;stroke-width:1.5;"/>
    <path clip-path="url(#p4d7b2de525)" d="M 286.909391 281.499781 
L 286.909391 271.933019 
" style="fill:none;stroke:#0000ff;stroke-width:1.5;"/>
    <path clip-path="url(#p4d7b2de525)" d="M 291.223738 274.796473 
L 291.223738 263.706073 
" style="fill:none;stroke:#0000ff;stroke-width:1.5;"/>
    <path clip-path="url(#p4d7b2de525)" d="M 295.538084 289.708813 
L 295.538084 282.50928 
" style="fill:none;stroke:#0000ff;stroke-width:1.5;"/>
    <path clip-path="url(#p4d7b2de525)" d="M 299.85243 291.976006 
L 299.85243 285.855442 
" style="fill:none;stroke:#0000ff;stroke-width:1.5;"/>
    <path clip-path="url(#p4d7b2de525)" d="M 304.166776 292.964387 
L 304.166776 287.332301 
" style="fill:none;stroke:#0000ff;stroke-width:1.5;"/>
    <path clip-path="url(#p4d7b2de525)" d="M 308.481122 296.35179 
L 308.481122 292.792753 
" style="fill:none;stroke:#0000ff;stroke-width:1.5;"/>
   </g>
   <g id="line2d_25">
    <path clip-path="url(#p4d7b2de525)" d="M 80.360071 274.157743 
L 84.674417 268.128275 
L 88.988763 278.344891 
L 93.303109 263.878141 
L 97.617455 180.294696 
L 101.931802 77.131087 
L 106.246148 102.167544 
L 110.560494 204.008164 
L 114.87484 266.960664 
L 119.189186 265.30291 
L 123.503532 263.750603 
L 127.817878 284.11415 
" style="fill:none;stroke:#ff0000;stroke-linecap:square;stroke-width:1.5;"/>
    <defs>
     <path d="M 0 3 
C 0.795609 3 1.55874 2.683901 2.12132 2.12132 
C 2.683901 1.55874 3 0.795609 3 0 
C 3 -0.795609 2.683901 -1.55874 2.12132 -2.12132 
C 1.55874 -2.683901 0.795609 -3 0 -3 
C -0.795609 -3 -1.55874 -2.683901 -2.12132 -2.12132 
C -2.683901 -1.55874 -3 -0.795609 -3 0 
C -3 0.795609 -2.683901 1.55874 -2.12132 2.12132 
C -1.55874 2.683901 -0.795609 3 0 3 
z
" id="maf6dc7e357" style="stroke:#ff0000;"/>
    </defs>
    <g clip-path="url(#p4d7b2de525)">
     <use style="fill:#ff0000;stroke:#ff0000;" x="80.360071" xlink:href="#maf6dc7e357" y="274.157743"/>
     <use style="fill:#ff0000;stroke:#ff0000;" x="84.674417" xlink:href="#maf6dc7e357" y="268.128275"/>
     <use style="fill:#ff0000;stroke:#ff0000;" x="88.988763" xlink:href="#maf6dc7e357" y="278.344891"/>
     <use style="fill:#ff0000;stroke:#ff0000;" x="93.303109" xlink:href="#maf6dc7e357" y="263.878141"/>
     <use style="fill:#ff0000;stroke:#ff0000;" x="97.617455" xlink:href="#maf6dc7e357" y="180.294696"/>
     <use style="fill:#ff0000;stroke:#ff0000;" x="101.931802" xlink:href="#maf6dc7e357" y="77.131087"/>
     <use style="fill:#ff0000;stroke:#ff0000;" x="106.246148" xlink:href="#maf6dc7e357" y="102.167544"/>
     <use style="fill:#ff0000;stroke:#ff0000;" x="110.560494" xlink:href="#maf6dc7e357" y="204.008164"/>
     <use style="fill:#ff0000;stroke:#ff0000;" x="114.87484" xlink:href="#maf6dc7e357" y="266.960664"/>
     <use style="fill:#ff0000;stroke:#ff0000;" x="119.189186" xlink:href="#maf6dc7e357" y="265.30291"/>
     <use style="fill:#ff0000;stroke:#ff0000;" x="123.503532" xlink:href="#maf6dc7e357" y="263.750603"/>
     <use style="fill:#ff0000;stroke:#ff0000;" x="127.817878" xlink:href="#maf6dc7e357" y="284.11415"/>
    </g>
   </g>
   <g id="line2d_26">
    <path clip-path="url(#p4d7b2de525)" d="M 254.012502 292.108759 
L 259.405435 278.554285 
L 264.798368 292.251903 
L 270.1913 279.441419 
L 275.584233 270.559203 
L 280.977166 269.757355 
L 286.370098 177.612033 
L 291.763031 126.832751 
L 297.155964 225.345081 
L 302.548896 283.369222 
L 307.941829 277.578577 
L 313.334761 281.619978 
L 318.727694 286.693531 
L 324.120627 291.170838 
L 329.513559 287.800558 
L 334.906492 291.123246 
L 340.299425 293.317535 
L 345.692357 292.387707 
L 351.08529 294.340535 
L 356.478223 290.742316 
L 361.871155 285.236393 
L 367.264088 285.680864 
L 372.657021 281.166526 
L 378.049953 266.960664 
L 383.442886 249.248893 
L 388.835819 271.458838 
L 394.228751 284.164091 
L 399.621684 288.819451 
L 405.014616 290.228199 
" style="fill:none;stroke:#ff0000;stroke-linecap:square;stroke-width:1.5;"/>
    <g clip-path="url(#p4d7b2de525)">
     <use style="fill:#ff0000;stroke:#ff0000;" x="254.012502" xlink:href="#maf6dc7e357" y="292.108759"/>
     <use style="fill:#ff0000;stroke:#ff0000;" x="259.405435" xlink:href="#maf6dc7e357" y="278.554285"/>
     <use style="fill:#ff0000;stroke:#ff0000;" x="264.798368" xlink:href="#maf6dc7e357" y="292.251903"/>
     <use style="fill:#ff0000;stroke:#ff0000;" x="270.1913" xlink:href="#maf6dc7e357" y="279.441419"/>
     <use style="fill:#ff0000;stroke:#ff0000;" x="275.584233" xlink:href="#maf6dc7e357" y="270.559203"/>
     <use style="fill:#ff0000;stroke:#ff0000;" x="280.977166" xlink:href="#maf6dc7e357" y="269.757355"/>
     <use style="fill:#ff0000;stroke:#ff0000;" x="286.370098" xlink:href="#maf6dc7e357" y="177.612033"/>
     <use style="fill:#ff0000;stroke:#ff0000;" x="291.763031" xlink:href="#maf6dc7e357" y="126.832751"/>
     <use style="fill:#ff0000;stroke:#ff0000;" x="297.155964" xlink:href="#maf6dc7e357" y="225.345081"/>
     <use style="fill:#ff0000;stroke:#ff0000;" x="302.548896" xlink:href="#maf6dc7e357" y="283.369222"/>
     <use style="fill:#ff0000;stroke:#ff0000;" x="307.941829" xlink:href="#maf6dc7e357" y="277.578577"/>
     <use style="fill:#ff0000;stroke:#ff0000;" x="313.334761" xlink:href="#maf6dc7e357" y="281.619978"/>
     <use style="fill:#ff0000;stroke:#ff0000;" x="318.727694" xlink:href="#maf6dc7e357" y="286.693531"/>
     <use style="fill:#ff0000;stroke:#ff0000;" x="324.120627" xlink:href="#maf6dc7e357" y="291.170838"/>
     <use style="fill:#ff0000;stroke:#ff0000;" x="329.513559" xlink:href="#maf6dc7e357" y="287.800558"/>
     <use style="fill:#ff0000;stroke:#ff0000;" x="334.906492" xlink:href="#maf6dc7e357" y="291.123246"/>
     <use style="fill:#ff0000;stroke:#ff0000;" x="340.299425" xlink:href="#maf6dc7e357" y="293.317535"/>
     <use style="fill:#ff0000;stroke:#ff0000;" x="345.692357" xlink:href="#maf6dc7e357" y="292.387707"/>
     <use style="fill:#ff0000;stroke:#ff0000;" x="351.08529" xlink:href="#maf6dc7e357" y="294.340535"/>
     <use style="fill:#ff0000;stroke:#ff0000;" x="356.478223" xlink:href="#maf6dc7e357" y="290.742316"/>
     <use style="fill:#ff0000;stroke:#ff0000;" x="361.871155" xlink:href="#maf6dc7e357" y="285.236393"/>
     <use style="fill:#ff0000;stroke:#ff0000;" x="367.264088" xlink:href="#maf6dc7e357" y="285.680864"/>
     <use style="fill:#ff0000;stroke:#ff0000;" x="372.657021" xlink:href="#maf6dc7e357" y="281.166526"/>
     <use style="fill:#ff0000;stroke:#ff0000;" x="378.049953" xlink:href="#maf6dc7e357" y="266.960664"/>
     <use style="fill:#ff0000;stroke:#ff0000;" x="383.442886" xlink:href="#maf6dc7e357" y="249.248893"/>
     <use style="fill:#ff0000;stroke:#ff0000;" x="388.835819" xlink:href="#maf6dc7e357" y="271.458838"/>
     <use style="fill:#ff0000;stroke:#ff0000;" x="394.228751" xlink:href="#maf6dc7e357" y="284.164091"/>
     <use style="fill:#ff0000;stroke:#ff0000;" x="399.621684" xlink:href="#maf6dc7e357" y="288.819451"/>
     <use style="fill:#ff0000;stroke:#ff0000;" x="405.014616" xlink:href="#maf6dc7e357" y="290.228199"/>
    </g>
   </g>
   <g id="line2d_27">
    <path clip-path="url(#p4d7b2de525)" d="M 85.21371 289.599132 
L 89.528057 288.620314 
L 93.842403 264.130352 
L 98.156749 209.962368 
L 102.471095 125.159985 
L 106.785441 117.34929 
L 111.099787 198.781191 
L 115.414133 268.468352 
L 119.728479 291.123246 
L 124.042825 292.150441 
L 128.357172 293.182691 
" style="fill:none;stroke:#0000ff;stroke-linecap:square;stroke-width:1.5;"/>
    <defs>
     <path d="M 0 3 
C 0.795609 3 1.55874 2.683901 2.12132 2.12132 
C 2.683901 1.55874 3 0.795609 3 0 
C 3 -0.795609 2.683901 -1.55874 2.12132 -2.12132 
C 1.55874 -2.683901 0.795609 -3 0 -3 
C -0.795609 -3 -1.55874 -2.683901 -2.12132 -2.12132 
C -2.683901 -1.55874 -3 -0.795609 -3 0 
C -3 0.795609 -2.683901 1.55874 -2.12132 2.12132 
C -1.55874 2.683901 -0.795609 3 0 3 
z
" id="m2fef863932" style="stroke:#0000ff;"/>
    </defs>
    <g clip-path="url(#p4d7b2de525)">
     <use style="fill:#0000ff;stroke:#0000ff;" x="85.21371" xlink:href="#m2fef863932" y="289.599132"/>
     <use style="fill:#0000ff;stroke:#0000ff;" x="89.528057" xlink:href="#m2fef863932" y="288.620314"/>
     <use style="fill:#0000ff;stroke:#0000ff;" x="93.842403" xlink:href="#m2fef863932" y="264.130352"/>
     <use style="fill:#0000ff;stroke:#0000ff;" x="98.156749" xlink:href="#m2fef863932" y="209.962368"/>
     <use style="fill:#0000ff;stroke:#0000ff;" x="102.471095" xlink:href="#m2fef863932" y="125.159985"/>
     <use style="fill:#0000ff;stroke:#0000ff;" x="106.785441" xlink:href="#m2fef863932" y="117.34929"/>
     <use style="fill:#0000ff;stroke:#0000ff;" x="111.099787" xlink:href="#m2fef863932" y="198.781191"/>
     <use style="fill:#0000ff;stroke:#0000ff;" x="115.414133" xlink:href="#m2fef863932" y="268.468352"/>
     <use style="fill:#0000ff;stroke:#0000ff;" x="119.728479" xlink:href="#m2fef863932" y="291.123246"/>
     <use style="fill:#0000ff;stroke:#0000ff;" x="124.042825" xlink:href="#m2fef863932" y="292.150441"/>
     <use style="fill:#0000ff;stroke:#0000ff;" x="128.357172" xlink:href="#m2fef863932" y="293.182691"/>
    </g>
   </g>
   <g id="line2d_28">
    <path clip-path="url(#p4d7b2de525)" d="M 265.337661 294.454644 
L 269.652007 290.548652 
L 273.966353 286.98825 
L 278.280699 293.200015 
L 282.595045 273.689531 
L 286.909391 276.7164 
L 291.223738 269.251273 
L 295.538084 286.109046 
L 299.85243 288.915724 
L 304.166776 290.148344 
L 308.481122 294.572271 
" style="fill:none;stroke:#0000ff;stroke-linecap:square;stroke-width:1.5;"/>
    <g clip-path="url(#p4d7b2de525)">
     <use style="fill:#0000ff;stroke:#0000ff;" x="265.337661" xlink:href="#m2fef863932" y="294.454644"/>
     <use style="fill:#0000ff;stroke:#0000ff;" x="269.652007" xlink:href="#m2fef863932" y="290.548652"/>
     <use style="fill:#0000ff;stroke:#0000ff;" x="273.966353" xlink:href="#m2fef863932" y="286.98825"/>
     <use style="fill:#0000ff;stroke:#0000ff;" x="278.280699" xlink:href="#m2fef863932" y="293.200015"/>
     <use style="fill:#0000ff;stroke:#0000ff;" x="282.595045" xlink:href="#m2fef863932" y="273.689531"/>
     <use style="fill:#0000ff;stroke:#0000ff;" x="286.909391" xlink:href="#m2fef863932" y="276.7164"/>
     <use style="fill:#0000ff;stroke:#0000ff;" x="291.223738" xlink:href="#m2fef863932" y="269.251273"/>
     <use style="fill:#0000ff;stroke:#0000ff;" x="295.538084" xlink:href="#m2fef863932" y="286.109046"/>
     <use style="fill:#0000ff;stroke:#0000ff;" x="299.85243" xlink:href="#m2fef863932" y="288.915724"/>
     <use style="fill:#0000ff;stroke:#0000ff;" x="304.166776" xlink:href="#m2fef863932" y="290.148344"/>
     <use style="fill:#0000ff;stroke:#0000ff;" x="308.481122" xlink:href="#m2fef863932" y="294.572271"/>
    </g>
   </g>
   <g id="patch_3">
    <path d="M 64.127344 297.54825 
L 64.127344 31.43625 
" style="fill:none;stroke:#000000;stroke-linecap:square;stroke-linejoin:miter;stroke-width:0.8;"/>
   </g>
   <g id="patch_4">
    <path d="M 421.247344 297.54825 
L 421.247344 31.43625 
" style="fill:none;stroke:#000000;stroke-linecap:square;stroke-linejoin:miter;stroke-width:0.8;"/>
   </g>
   <g id="patch_5">
    <path d="M 64.127344 297.54825 
L 421.247344 297.54825 
" style="fill:none;stroke:#000000;stroke-linecap:square;stroke-linejoin:miter;stroke-width:0.8;"/>
   </g>
   <g id="patch_6">
    <path d="M 64.127344 31.43625 
L 421.247344 31.43625 
" style="fill:none;stroke:#000000;stroke-linecap:square;stroke-linejoin:miter;stroke-width:0.8;"/>
   </g>
   <g id="text_15">
    <!-- Axis 2 (Radial) -->
    <defs>
     <path d="M 34.1875 63.1875 
L 20.796875 26.90625 
L 47.609375 26.90625 
z
M 28.609375 72.90625 
L 39.796875 72.90625 
L 67.578125 0 
L 57.328125 0 
L 50.6875 18.703125 
L 17.828125 18.703125 
L 11.1875 0 
L 0.78125 0 
z
" id="DejaVuSans-41"/>
     <path d="M 54.890625 54.6875 
L 35.109375 28.078125 
L 55.90625 0 
L 45.3125 0 
L 29.390625 21.484375 
L 13.484375 0 
L 2.875 0 
L 24.125 28.609375 
L 4.6875 54.6875 
L 15.28125 54.6875 
L 29.78125 35.203125 
L 44.28125 54.6875 
z
" id="DejaVuSans-78"/>
     <path d="M 44.28125 53.078125 
L 44.28125 44.578125 
Q 40.484375 46.53125 36.375 47.5 
Q 32.28125 48.484375 27.875 48.484375 
Q 21.1875 48.484375 17.84375 46.4375 
Q 14.5 44.390625 14.5 40.28125 
Q 14.5 37.15625 16.890625 35.375 
Q 19.28125 33.59375 26.515625 31.984375 
L 29.59375 31.296875 
Q 39.15625 29.25 43.1875 25.515625 
Q 47.21875 21.78125 47.21875 15.09375 
Q 47.21875 7.46875 41.1875 3.015625 
Q 35.15625 -1.421875 24.609375 -1.421875 
Q 20.21875 -1.421875 15.453125 -0.5625 
Q 10.6875 0.296875 5.421875 2 
L 5.421875 11.28125 
Q 10.40625 8.6875 15.234375 7.390625 
Q 20.0625 6.109375 24.8125 6.109375 
Q 31.15625 6.109375 34.5625 8.28125 
Q 37.984375 10.453125 37.984375 14.40625 
Q 37.984375 18.0625 35.515625 20.015625 
Q 33.0625 21.96875 24.703125 23.78125 
L 21.578125 24.515625 
Q 13.234375 26.265625 9.515625 29.90625 
Q 5.8125 33.546875 5.8125 39.890625 
Q 5.8125 47.609375 11.28125 51.796875 
Q 16.75 56 26.8125 56 
Q 31.78125 56 36.171875 55.265625 
Q 40.578125 54.546875 44.28125 53.078125 
" id="DejaVuSans-73"/>
     <path id="DejaVuSans-20"/>
     <path d="M 19.1875 8.296875 
L 53.609375 8.296875 
L 53.609375 0 
L 7.328125 0 
L 7.328125 8.296875 
Q 12.9375 14.109375 22.625 23.890625 
Q 32.328125 33.6875 34.8125 36.53125 
Q 39.546875 41.84375 41.421875 45.53125 
Q 43.3125 49.21875 43.3125 52.78125 
Q 43.3125 58.59375 39.234375 62.25 
Q 35.15625 65.921875 28.609375 65.921875 
Q 23.96875 65.921875 18.8125 64.3125 
Q 13.671875 62.703125 7.8125 59.421875 
L 7.8125 69.390625 
Q 13.765625 71.78125 18.9375 73 
Q 24.125 74.21875 28.421875 74.21875 
Q 39.75 74.21875 46.484375 68.546875 
Q 53.21875 62.890625 53.21875 53.421875 
Q 53.21875 48.921875 51.53125 44.890625 
Q 49.859375 40.875 45.40625 35.40625 
Q 44.1875 33.984375 37.640625 27.21875 
Q 31.109375 20.453125 19.1875 8.296875 
" id="DejaVuSans-32"/>
     <path d="M 31 75.875 
Q 24.46875 64.65625 21.28125 53.65625 
Q 18.109375 42.671875 18.109375 31.390625 
Q 18.109375 20.125 21.3125 9.0625 
Q 24.515625 -2 31 -13.1875 
L 23.1875 -13.1875 
Q 15.875 -1.703125 12.234375 9.375 
Q 8.59375 20.453125 8.59375 31.390625 
Q 8.59375 42.28125 12.203125 53.3125 
Q 15.828125 64.359375 23.1875 75.875 
z
" id="DejaVuSans-28"/>
     <path d="M 44.390625 34.1875 
Q 47.5625 33.109375 50.5625 29.59375 
Q 53.5625 26.078125 56.59375 19.921875 
L 66.609375 0 
L 56 0 
L 46.6875 18.703125 
Q 43.0625 26.03125 39.671875 28.421875 
Q 36.28125 30.8125 30.421875 30.8125 
L 19.671875 30.8125 
L 19.671875 0 
L 9.8125 0 
L 9.8125 72.90625 
L 32.078125 72.90625 
Q 44.578125 72.90625 50.734375 67.671875 
Q 56.890625 62.453125 56.890625 51.90625 
Q 56.890625 45.015625 53.6875 40.46875 
Q 50.484375 35.9375 44.390625 34.1875 
M 19.671875 64.796875 
L 19.671875 38.921875 
L 32.078125 38.921875 
Q 39.203125 38.921875 42.84375 42.21875 
Q 46.484375 45.515625 46.484375 51.90625 
Q 46.484375 58.296875 42.84375 61.546875 
Q 39.203125 64.796875 32.078125 64.796875 
z
" id="DejaVuSans-52"/>
     <path d="M 45.40625 46.390625 
L 45.40625 75.984375 
L 54.390625 75.984375 
L 54.390625 0 
L 45.40625 0 
L 45.40625 8.203125 
Q 42.578125 3.328125 38.25 0.953125 
Q 33.9375 -1.421875 27.875 -1.421875 
Q 17.96875 -1.421875 11.734375 6.484375 
Q 5.515625 14.40625 5.515625 27.296875 
Q 5.515625 40.1875 11.734375 48.09375 
Q 17.96875 56 27.875 56 
Q 33.9375 56 38.25 53.625 
Q 42.578125 51.265625 45.40625 46.390625 
M 14.796875 27.296875 
Q 14.796875 17.390625 18.875 11.75 
Q 22.953125 6.109375 30.078125 6.109375 
Q 37.203125 6.109375 41.296875 11.75 
Q 45.40625 17.390625 45.40625 27.296875 
Q 45.40625 37.203125 41.296875 42.84375 
Q 37.203125 48.484375 30.078125 48.484375 
Q 22.953125 48.484375 18.875 42.84375 
Q 14.796875 37.203125 14.796875 27.296875 
" id="DejaVuSans-64"/>
     <path d="M 8.015625 75.875 
L 15.828125 75.875 
Q 23.140625 64.359375 26.78125 53.3125 
Q 30.421875 42.28125 30.421875 31.390625 
Q 30.421875 20.453125 26.78125 9.375 
Q 23.140625 -1.703125 15.828125 -13.1875 
L 8.015625 -13.1875 
Q 14.5 -2 17.703125 9.0625 
Q 20.90625 20.125 20.90625 31.390625 
Q 20.90625 42.671875 17.703125 53.65625 
Q 14.5 64.65625 8.015625 75.875 
" id="DejaVuSans-29"/>
    </defs>
    <g transform="translate(155.837344 25.43625)scale(0.24 -0.24)">
     <use xlink:href="#DejaVuSans-41"/>
     <use x="68.408203" xlink:href="#DejaVuSans-78"/>
     <use x="127.587891" xlink:href="#DejaVuSans-69"/>
     <use x="155.371094" xlink:href="#DejaVuSans-73"/>
     <use x="207.470703" xlink:href="#DejaVuSans-20"/>
     <use x="239.257812" xlink:href="#DejaVuSans-32"/>
     <use x="302.880859" xlink:href="#DejaVuSans-20"/>
     <use x="334.667969" xlink:href="#DejaVuSans-28"/>
     <use x="373.681641" xlink:href="#DejaVuSans-52"/>
     <use x="443.132812" xlink:href="#DejaVuSans-61"/>
     <use x="504.412109" xlink:href="#DejaVuSans-64"/>
     <use x="567.888672" xlink:href="#DejaVuSans-69"/>
     <use x="595.671875" xlink:href="#DejaVuSans-61"/>
     <use x="656.951172" xlink:href="#DejaVuSans-6c"/>
     <use x="684.734375" xlink:href="#DejaVuSans-29"/>
    </g>
   </g>
   <g id="legend_1">
    <g id="patch_7">
     <path d="M 268.569219 106.14875 
L 407.247344 106.14875 
Q 411.247344 106.14875 411.247344 102.14875 
L 411.247344 45.43625 
Q 411.247344 41.43625 407.247344 41.43625 
L 268.569219 41.43625 
Q 264.569219 41.43625 264.569219 45.43625 
L 264.569219 102.14875 
Q 264.569219 106.14875 268.569219 106.14875 
z
" style="fill:#ffffff;opacity:0.8;stroke:#cccccc;stroke-linejoin:miter;"/>
    </g>
    <g id="LineCollection_5">
     <path d="M 292.569219 67.633125 
L 292.569219 47.633125 
" style="fill:none;stroke:#ff0000;stroke-width:1.5;"/>
    </g>
    <g id="line2d_29">
     <path d="M 272.569219 57.633125 
L 312.569219 57.633125 
" style="fill:none;stroke:#ff0000;stroke-linecap:square;stroke-width:1.5;"/>
    </g>
    <g id="line2d_30">
     <g>
      <use style="fill:#ff0000;stroke:#ff0000;" x="292.569219" xlink:href="#maf6dc7e357" y="57.633125"/>
     </g>
    </g>
    <g id="text_16">
     <!-- Before -->
     <defs>
      <path d="M 38.375 44.671875 
Q 42.828125 44.671875 45.109375 46.625 
Q 47.40625 48.578125 47.40625 52.390625 
Q 47.40625 56.15625 45.109375 58.125 
Q 42.828125 60.109375 38.375 60.109375 
L 27.984375 60.109375 
L 27.984375 44.671875 
z
M 39.015625 12.796875 
Q 44.671875 12.796875 47.53125 15.1875 
Q 50.390625 17.578125 50.390625 22.40625 
Q 50.390625 27.15625 47.5625 29.515625 
Q 44.734375 31.890625 39.015625 31.890625 
L 27.984375 31.890625 
L 27.984375 12.796875 
z
M 56.5 39.015625 
Q 62.546875 37.25 65.859375 32.515625 
Q 69.1875 27.78125 69.1875 20.90625 
Q 69.1875 10.359375 62.0625 5.171875 
Q 54.9375 0 40.375 0 
L 9.1875 0 
L 9.1875 72.90625 
L 37.40625 72.90625 
Q 52.59375 72.90625 59.40625 68.3125 
Q 66.21875 63.71875 66.21875 53.609375 
Q 66.21875 48.296875 63.71875 44.5625 
Q 61.234375 40.828125 56.5 39.015625 
" id="DejaVuSans-Bold-42"/>
      <path d="M 62.984375 27.484375 
L 62.984375 22.515625 
L 22.125 22.515625 
Q 22.75 16.359375 26.5625 13.28125 
Q 30.375 10.203125 37.203125 10.203125 
Q 42.71875 10.203125 48.5 11.84375 
Q 54.296875 13.484375 60.40625 16.796875 
L 60.40625 3.328125 
Q 54.203125 0.984375 48 -0.21875 
Q 41.796875 -1.421875 35.59375 -1.421875 
Q 20.75 -1.421875 12.515625 6.125 
Q 4.296875 13.671875 4.296875 27.296875 
Q 4.296875 40.671875 12.375 48.328125 
Q 20.453125 56 34.625 56 
Q 47.515625 56 55.25 48.234375 
Q 62.984375 40.484375 62.984375 27.484375 
M 45.015625 33.296875 
Q 45.015625 38.28125 42.109375 41.328125 
Q 39.203125 44.390625 34.515625 44.390625 
Q 29.4375 44.390625 26.265625 41.53125 
Q 23.09375 38.671875 22.3125 33.296875 
z
" id="DejaVuSans-Bold-65"/>
      <path d="M 44.390625 75.984375 
L 44.390625 64.5 
L 34.71875 64.5 
Q 31 64.5 29.53125 63.15625 
Q 28.078125 61.8125 28.078125 58.5 
L 28.078125 54.6875 
L 43.015625 54.6875 
L 43.015625 42.1875 
L 28.078125 42.1875 
L 28.078125 0 
L 10.59375 0 
L 10.59375 42.1875 
L 1.90625 42.1875 
L 1.90625 54.6875 
L 10.59375 54.6875 
L 10.59375 58.5 
Q 10.59375 67.4375 15.578125 71.703125 
Q 20.5625 75.984375 31 75.984375 
z
" id="DejaVuSans-Bold-66"/>
      <path d="M 34.421875 43.5 
Q 28.609375 43.5 25.5625 39.328125 
Q 22.515625 35.15625 22.515625 27.296875 
Q 22.515625 19.4375 25.5625 15.25 
Q 28.609375 11.078125 34.421875 11.078125 
Q 40.140625 11.078125 43.15625 15.25 
Q 46.1875 19.4375 46.1875 27.296875 
Q 46.1875 35.15625 43.15625 39.328125 
Q 40.140625 43.5 34.421875 43.5 
M 34.421875 56 
Q 48.53125 56 56.46875 48.375 
Q 64.40625 40.765625 64.40625 27.296875 
Q 64.40625 13.8125 56.46875 6.1875 
Q 48.53125 -1.421875 34.421875 -1.421875 
Q 20.265625 -1.421875 12.28125 6.1875 
Q 4.296875 13.8125 4.296875 27.296875 
Q 4.296875 40.765625 12.28125 48.375 
Q 20.265625 56 34.421875 56 
" id="DejaVuSans-Bold-6f"/>
      <path d="M 49.03125 39.796875 
Q 46.734375 40.875 44.453125 41.375 
Q 42.1875 41.890625 39.890625 41.890625 
Q 33.15625 41.890625 29.515625 37.5625 
Q 25.875 33.25 25.875 25.203125 
L 25.875 0 
L 8.40625 0 
L 8.40625 54.6875 
L 25.875 54.6875 
L 25.875 45.703125 
Q 29.25 51.078125 33.609375 53.53125 
Q 37.984375 56 44.09375 56 
Q 44.96875 56 45.984375 55.921875 
Q 47.015625 55.859375 48.96875 55.609375 
z
" id="DejaVuSans-Bold-72"/>
     </defs>
     <g transform="translate(328.569219 64.633125)scale(0.2 -0.2)">
      <use xlink:href="#DejaVuSans-Bold-42"/>
      <use x="76.220703" xlink:href="#DejaVuSans-Bold-65"/>
      <use x="144.042969" xlink:href="#DejaVuSans-Bold-66"/>
      <use x="187.548828" xlink:href="#DejaVuSans-Bold-6f"/>
      <use x="256.25" xlink:href="#DejaVuSans-Bold-72"/>
      <use x="305.566406" xlink:href="#DejaVuSans-Bold-65"/>
     </g>
    </g>
    <g id="LineCollection_6">
     <path d="M 292.569219 96.989375 
L 292.569219 76.989375 
" style="fill:none;stroke:#0000ff;stroke-width:1.5;"/>
    </g>
    <g id="line2d_31">
     <path d="M 272.569219 86.989375 
L 312.569219 86.989375 
" style="fill:none;stroke:#0000ff;stroke-linecap:square;stroke-width:1.5;"/>
    </g>
    <g id="line2d_32">
     <g>
      <use style="fill:#0000ff;stroke:#0000ff;" x="292.569219" xlink:href="#m2fef863932" y="86.989375"/>
     </g>
    </g>
    <g id="text_17">
     <!-- After -->
     <defs>
      <path d="M 53.421875 13.28125 
L 24.03125 13.28125 
L 19.390625 0 
L 0.484375 0 
L 27.484375 72.90625 
L 49.90625 72.90625 
L 76.90625 0 
L 58.015625 0 
z
M 28.71875 26.8125 
L 48.6875 26.8125 
L 38.71875 55.8125 
z
" id="DejaVuSans-Bold-41"/>
      <path d="M 27.484375 70.21875 
L 27.484375 54.6875 
L 45.515625 54.6875 
L 45.515625 42.1875 
L 27.484375 42.1875 
L 27.484375 19 
Q 27.484375 15.1875 29 13.84375 
Q 30.515625 12.5 35.015625 12.5 
L 44 12.5 
L 44 0 
L 29 0 
Q 18.65625 0 14.328125 4.3125 
Q 10.015625 8.640625 10.015625 19 
L 10.015625 42.1875 
L 1.3125 42.1875 
L 1.3125 54.6875 
L 10.015625 54.6875 
L 10.015625 70.21875 
z
" id="DejaVuSans-Bold-74"/>
     </defs>
     <g transform="translate(328.569219 93.989375)scale(0.2 -0.2)">
      <use xlink:href="#DejaVuSans-Bold-41"/>
      <use x="77.392578" xlink:href="#DejaVuSans-Bold-66"/>
      <use x="120.898438" xlink:href="#DejaVuSans-Bold-74"/>
      <use x="168.701172" xlink:href="#DejaVuSans-Bold-65"/>
      <use x="236.523438" xlink:href="#DejaVuSans-Bold-72"/>
     </g>
    </g>
   </g>
  </g>
 </g>
 <defs>
  <clipPath id="p4d7b2de525">
   <rect height="266.112" width="357.12" x="64.127344" y="31.43625"/>
  </clipPath>
 </defs>
</svg>
