<?xml version="1.0" encoding="utf-8" standalone="no"?>
<!DOCTYPE svg PUBLIC "-//W3C//DTD SVG 1.1//EN"
  "http://www.w3.org/Graphics/SVG/1.1/DTD/svg11.dtd">
<!-- Created with matplotlib (http://matplotlib.org/) -->
<svg height="349pt" version="1.1" viewBox="0 0 431 349" width="431pt" xmlns="http://www.w3.org/2000/svg" xmlns:xlink="http://www.w3.org/1999/xlink">
 <defs>
  <style type="text/css">
*{stroke-linecap:butt;stroke-linejoin:round;}
  </style>
 </defs>
 <g id="figure_1">
  <g id="patch_1">
   <path d="M 0 349.621687 
L 431.947344 349.621687 
L 431.947344 0 
L 0 0 
z
" style="fill:none;"/>
  </g>
  <g id="axes_1">
   <g id="patch_2">
    <path d="M 64.127344 297.54825 
L 421.247344 297.54825 
L 421.247344 31.43625 
L 64.127344 31.43625 
z
" style="fill:none;"/>
   </g>
   <g id="matplotlib.axis_1">
    <g id="xtick_1">
     <g id="line2d_1">
      <path clip-path="url(#p7e619edc19)" d="M 103.838829 297.54825 
L 103.838829 31.43625 
" style="fill:none;stroke:#b0b0b0;stroke-linecap:square;stroke-width:0.8;"/>
     </g>
     <g id="line2d_2">
      <defs>
       <path d="M 0 0 
L 0 3.5 
" id="m6d3b9006cf" style="stroke:#000000;stroke-width:0.8;"/>
      </defs>
      <g>
       <use style="stroke:#000000;stroke-width:0.8;" x="103.838829" xlink:href="#m6d3b9006cf" y="297.54825"/>
      </g>
     </g>
     <g id="text_1">
      <!-- −19.0 -->
      <defs>
       <path d="M 10.59375 37.109375 
L 73.1875 37.109375 
L 73.1875 25.59375 
L 10.59375 25.59375 
z
" id="DejaVuSans-Bold-2212"/>
       <path d="M 11.71875 12.984375 
L 28.328125 12.984375 
L 28.328125 60.109375 
L 11.28125 56.59375 
L 11.28125 69.390625 
L 28.21875 72.90625 
L 46.09375 72.90625 
L 46.09375 12.984375 
L 62.703125 12.984375 
L 62.703125 0 
L 11.71875 0 
z
" id="DejaVuSans-Bold-31"/>
       <path d="M 10.015625 1.609375 
L 10.015625 15.09375 
Q 14.5 12.984375 18.59375 11.9375 
Q 22.703125 10.890625 26.703125 10.890625 
Q 35.109375 10.890625 39.796875 15.546875 
Q 44.484375 20.21875 45.3125 29.390625 
Q 42 26.953125 38.234375 25.734375 
Q 34.46875 24.515625 30.078125 24.515625 
Q 18.890625 24.515625 12.03125 31.03125 
Q 5.171875 37.546875 5.171875 48.1875 
Q 5.171875 59.96875 12.8125 67.046875 
Q 20.453125 74.125 33.296875 74.125 
Q 47.5625 74.125 55.375 64.5 
Q 63.1875 54.890625 63.1875 37.3125 
Q 63.1875 19.234375 54.046875 8.90625 
Q 44.921875 -1.421875 29 -1.421875 
Q 23.875 -1.421875 19.1875 -0.65625 
Q 14.5 0.09375 10.015625 1.609375 
M 33.203125 36.71875 
Q 38.140625 36.71875 40.625 39.90625 
Q 43.109375 43.109375 43.109375 49.515625 
Q 43.109375 55.859375 40.625 59.078125 
Q 38.140625 62.3125 33.203125 62.3125 
Q 28.265625 62.3125 25.78125 59.078125 
Q 23.296875 55.859375 23.296875 49.515625 
Q 23.296875 43.109375 25.78125 39.90625 
Q 28.265625 36.71875 33.203125 36.71875 
" id="DejaVuSans-Bold-39"/>
       <path d="M 10.203125 18.890625 
L 27.78125 18.890625 
L 27.78125 0 
L 10.203125 0 
z
" id="DejaVuSans-Bold-2e"/>
       <path d="M 46 36.53125 
Q 46 50.203125 43.4375 55.78125 
Q 40.875 61.375 34.8125 61.375 
Q 28.765625 61.375 26.171875 55.78125 
Q 23.578125 50.203125 23.578125 36.53125 
Q 23.578125 22.703125 26.171875 17.03125 
Q 28.765625 11.375 34.8125 11.375 
Q 40.828125 11.375 43.40625 17.03125 
Q 46 22.703125 46 36.53125 
M 64.796875 36.375 
Q 64.796875 18.265625 56.984375 8.421875 
Q 49.171875 -1.421875 34.8125 -1.421875 
Q 20.40625 -1.421875 12.59375 8.421875 
Q 4.78125 18.265625 4.78125 36.375 
Q 4.78125 54.546875 12.59375 64.375 
Q 20.40625 74.21875 34.8125 74.21875 
Q 49.171875 74.21875 56.984375 64.375 
Q 64.796875 54.546875 64.796875 36.375 
" id="DejaVuSans-Bold-30"/>
      </defs>
      <g transform="translate(79.050157 315.945906)scale(0.15 -0.15)">
       <use xlink:href="#DejaVuSans-Bold-2212"/>
       <use x="83.789062" xlink:href="#DejaVuSans-Bold-31"/>
       <use x="153.369141" xlink:href="#DejaVuSans-Bold-39"/>
       <use x="222.949219" xlink:href="#DejaVuSans-Bold-2e"/>
       <use x="260.9375" xlink:href="#DejaVuSans-Bold-30"/>
      </g>
     </g>
    </g>
    <g id="xtick_2">
     <g id="line2d_3">
      <path clip-path="url(#p7e619edc19)" d="M 184.800062 297.54825 
L 184.800062 31.43625 
" style="fill:none;stroke:#b0b0b0;stroke-linecap:square;stroke-width:0.8;"/>
     </g>
     <g id="line2d_4">
      <g>
       <use style="stroke:#000000;stroke-width:0.8;" x="184.800062" xlink:href="#m6d3b9006cf" y="297.54825"/>
      </g>
     </g>
     <g id="text_2">
      <!-- −18.5 -->
      <defs>
       <path d="M 34.8125 32.625 
Q 29.546875 32.625 26.703125 29.734375 
Q 23.875 26.859375 23.875 21.484375 
Q 23.875 16.109375 26.703125 13.25 
Q 29.546875 10.40625 34.8125 10.40625 
Q 40.046875 10.40625 42.828125 13.25 
Q 45.609375 16.109375 45.609375 21.484375 
Q 45.609375 26.90625 42.828125 29.765625 
Q 40.046875 32.625 34.8125 32.625 
M 21.09375 38.8125 
Q 14.453125 40.828125 11.078125 44.96875 
Q 7.71875 49.125 7.71875 55.328125 
Q 7.71875 64.546875 14.59375 69.375 
Q 21.484375 74.21875 34.8125 74.21875 
Q 48.046875 74.21875 54.921875 69.40625 
Q 61.8125 64.59375 61.8125 55.328125 
Q 61.8125 49.125 58.421875 44.96875 
Q 55.03125 40.828125 48.390625 38.8125 
Q 55.8125 36.765625 59.59375 32.15625 
Q 63.375 27.546875 63.375 20.515625 
Q 63.375 9.671875 56.171875 4.125 
Q 48.96875 -1.421875 34.8125 -1.421875 
Q 20.609375 -1.421875 13.359375 4.125 
Q 6.109375 9.671875 6.109375 20.515625 
Q 6.109375 27.546875 9.890625 32.15625 
Q 13.671875 36.765625 21.09375 38.8125 
M 25.484375 53.421875 
Q 25.484375 49.078125 27.90625 46.734375 
Q 30.328125 44.390625 34.8125 44.390625 
Q 39.203125 44.390625 41.59375 46.734375 
Q 44 49.078125 44 53.421875 
Q 44 57.765625 41.59375 60.078125 
Q 39.203125 62.40625 34.8125 62.40625 
Q 30.328125 62.40625 27.90625 60.0625 
Q 25.484375 57.71875 25.484375 53.421875 
" id="DejaVuSans-Bold-38"/>
       <path d="M 10.59375 72.90625 
L 57.328125 72.90625 
L 57.328125 59.078125 
L 25.59375 59.078125 
L 25.59375 47.796875 
Q 27.734375 48.390625 29.90625 48.703125 
Q 32.078125 49.03125 34.421875 49.03125 
Q 47.75 49.03125 55.171875 42.359375 
Q 62.59375 35.6875 62.59375 23.78125 
Q 62.59375 11.96875 54.515625 5.265625 
Q 46.4375 -1.421875 32.078125 -1.421875 
Q 25.875 -1.421875 19.796875 -0.21875 
Q 13.71875 0.984375 7.71875 3.421875 
L 7.71875 18.21875 
Q 13.671875 14.796875 19.015625 13.078125 
Q 24.359375 11.375 29.109375 11.375 
Q 35.9375 11.375 39.859375 14.71875 
Q 43.796875 18.0625 43.796875 23.78125 
Q 43.796875 29.546875 39.859375 32.859375 
Q 35.9375 36.1875 29.109375 36.1875 
Q 25.046875 36.1875 20.453125 35.125 
Q 15.875 34.078125 10.59375 31.890625 
z
" id="DejaVuSans-Bold-35"/>
      </defs>
      <g transform="translate(160.01139 315.945906)scale(0.15 -0.15)">
       <use xlink:href="#DejaVuSans-Bold-2212"/>
       <use x="83.789062" xlink:href="#DejaVuSans-Bold-31"/>
       <use x="153.369141" xlink:href="#DejaVuSans-Bold-38"/>
       <use x="222.949219" xlink:href="#DejaVuSans-Bold-2e"/>
       <use x="260.9375" xlink:href="#DejaVuSans-Bold-35"/>
      </g>
     </g>
    </g>
    <g id="xtick_3">
     <g id="line2d_5">
      <path clip-path="url(#p7e619edc19)" d="M 265.761295 297.54825 
L 265.761295 31.43625 
" style="fill:none;stroke:#b0b0b0;stroke-linecap:square;stroke-width:0.8;"/>
     </g>
     <g id="line2d_6">
      <g>
       <use style="stroke:#000000;stroke-width:0.8;" x="265.761295" xlink:href="#m6d3b9006cf" y="297.54825"/>
      </g>
     </g>
     <g id="text_3">
      <!-- −18.0 -->
      <g transform="translate(240.972623 315.945906)scale(0.15 -0.15)">
       <use xlink:href="#DejaVuSans-Bold-2212"/>
       <use x="83.789062" xlink:href="#DejaVuSans-Bold-31"/>
       <use x="153.369141" xlink:href="#DejaVuSans-Bold-38"/>
       <use x="222.949219" xlink:href="#DejaVuSans-Bold-2e"/>
       <use x="260.9375" xlink:href="#DejaVuSans-Bold-30"/>
      </g>
     </g>
    </g>
    <g id="xtick_4">
     <g id="line2d_7">
      <path clip-path="url(#p7e619edc19)" d="M 346.722529 297.54825 
L 346.722529 31.43625 
" style="fill:none;stroke:#b0b0b0;stroke-linecap:square;stroke-width:0.8;"/>
     </g>
     <g id="line2d_8">
      <g>
       <use style="stroke:#000000;stroke-width:0.8;" x="346.722529" xlink:href="#m6d3b9006cf" y="297.54825"/>
      </g>
     </g>
     <g id="text_4">
      <!-- −17.5 -->
      <defs>
       <path d="M 6.6875 72.90625 
L 61.625 72.90625 
L 61.625 62.3125 
L 33.203125 0 
L 14.890625 0 
L 41.796875 59.078125 
L 6.6875 59.078125 
z
" id="DejaVuSans-Bold-37"/>
      </defs>
      <g transform="translate(321.933857 315.945906)scale(0.15 -0.15)">
       <use xlink:href="#DejaVuSans-Bold-2212"/>
       <use x="83.789062" xlink:href="#DejaVuSans-Bold-31"/>
       <use x="153.369141" xlink:href="#DejaVuSans-Bold-37"/>
       <use x="222.949219" xlink:href="#DejaVuSans-Bold-2e"/>
       <use x="260.9375" xlink:href="#DejaVuSans-Bold-35"/>
      </g>
     </g>
    </g>
    <g id="text_5">
     <!-- $\delta$/MHz -->
     <defs>
      <path d="M 61.140625 61.71875 
Q 55.8125 65.140625 40.234375 65.140625 
Q 31.9375 65.140625 31 60.359375 
Q 30.953125 60.015625 30.953125 59.71875 
Q 30.953125 55.671875 41.15625 54.109375 
Q 63.09375 50.6875 63.09375 33.734375 
Q 63.09375 30.671875 62.40625 27.09375 
Q 59.8125 13.875 50.34375 6.25 
Q 40.828125 -1.421875 26.859375 -1.421875 
Q 12.84375 -1.421875 6.296875 6.25 
Q 1.5625 11.71875 1.5625 20.125 
Q 1.5625 35.203125 13.8125 45.3125 
Q 16.796875 47.75 20.21875 49.3125 
Q 14.984375 52.4375 14.984375 58.15625 
Q 14.984375 59.46875 15.28125 60.9375 
Q 18.359375 76.765625 44.140625 76.765625 
Q 57.078125 76.765625 63.375 73.34375 
z
M 31.296875 42.96875 
Q 28.515625 41.890625 25.921875 39.15625 
Q 21.875 34.90625 20.40625 27.25 
Q 19.828125 24.265625 19.828125 21.09375 
Q 19.828125 17.921875 21.234375 15.28125 
Q 23.640625 10.984375 29.15625 10.984375 
Q 34.71875 10.984375 38.765625 15.328125 
Q 42.875 19.734375 44.28125 27.046875 
Q 44.78125 29.5 44.78125 32.5625 
Q 44.78125 35.59375 42.921875 37.984375 
Q 40.1875 41.703125 35.453125 42.234375 
Q 33.25 42.484375 31.296875 42.96875 
" id="DejaVuSans-BoldOblique-3b4"/>
      <path d="M 25.390625 72.90625 
L 33.6875 72.90625 
L 8.296875 -9.28125 
L 0 -9.28125 
z
" id="DejaVuSans-2f"/>
      <path d="M 9.8125 72.90625 
L 24.515625 72.90625 
L 43.109375 23.296875 
L 61.8125 72.90625 
L 76.515625 72.90625 
L 76.515625 0 
L 66.890625 0 
L 66.890625 64.015625 
L 48.09375 14.015625 
L 38.1875 14.015625 
L 19.390625 64.015625 
L 19.390625 0 
L 9.8125 0 
z
" id="DejaVuSans-4d"/>
      <path d="M 9.8125 72.90625 
L 19.671875 72.90625 
L 19.671875 43.015625 
L 55.515625 43.015625 
L 55.515625 72.90625 
L 65.375 72.90625 
L 65.375 0 
L 55.515625 0 
L 55.515625 34.71875 
L 19.671875 34.71875 
L 19.671875 0 
L 9.8125 0 
z
" id="DejaVuSans-48"/>
      <path d="M 5.515625 54.6875 
L 48.1875 54.6875 
L 48.1875 46.484375 
L 14.40625 7.171875 
L 48.1875 7.171875 
L 48.1875 0 
L 4.296875 0 
L 4.296875 8.203125 
L 38.09375 47.515625 
L 5.515625 47.515625 
z
" id="DejaVuSans-7a"/>
     </defs>
     <g transform="translate(210.987344 338.262312)scale(0.2 -0.2)">
      <use transform="translate(0 0.234375)" xlink:href="#DejaVuSans-BoldOblique-3b4"/>
      <use transform="translate(68.701172 0.234375)" xlink:href="#DejaVuSans-2f"/>
      <use transform="translate(102.392578 0.234375)" xlink:href="#DejaVuSans-4d"/>
      <use transform="translate(188.671875 0.234375)" xlink:href="#DejaVuSans-48"/>
      <use transform="translate(263.867188 0.234375)" xlink:href="#DejaVuSans-7a"/>
     </g>
    </g>
   </g>
   <g id="matplotlib.axis_2">
    <g id="ytick_1">
     <g id="line2d_9">
      <path clip-path="url(#p7e619edc19)" d="M 64.127344 297.54825 
L 421.247344 297.54825 
" style="fill:none;stroke:#b0b0b0;stroke-linecap:square;stroke-width:0.8;"/>
     </g>
     <g id="line2d_10">
      <defs>
       <path d="M 0 0 
L -3.5 0 
" id="mcc40e750b1" style="stroke:#000000;stroke-width:0.8;"/>
      </defs>
      <g>
       <use style="stroke:#000000;stroke-width:0.8;" x="64.127344" xlink:href="#mcc40e750b1" y="297.54825"/>
      </g>
     </g>
     <g id="text_6">
      <!-- 0.0 -->
      <g transform="translate(30.55625 303.247078)scale(0.15 -0.15)">
       <use xlink:href="#DejaVuSans-Bold-30"/>
       <use x="69.580078" xlink:href="#DejaVuSans-Bold-2e"/>
       <use x="107.568359" xlink:href="#DejaVuSans-Bold-30"/>
      </g>
     </g>
    </g>
    <g id="ytick_2">
     <g id="line2d_11">
      <path clip-path="url(#p7e619edc19)" d="M 64.127344 238.41225 
L 421.247344 238.41225 
" style="fill:none;stroke:#b0b0b0;stroke-linecap:square;stroke-width:0.8;"/>
     </g>
     <g id="line2d_12">
      <g>
       <use style="stroke:#000000;stroke-width:0.8;" x="64.127344" xlink:href="#mcc40e750b1" y="238.41225"/>
      </g>
     </g>
     <g id="text_7">
      <!-- 0.2 -->
      <defs>
       <path d="M 28.8125 13.8125 
L 60.890625 13.8125 
L 60.890625 0 
L 7.90625 0 
L 7.90625 13.8125 
L 34.515625 37.3125 
Q 38.09375 40.53125 39.796875 43.609375 
Q 41.5 46.6875 41.5 50 
Q 41.5 55.125 38.0625 58.25 
Q 34.625 61.375 28.90625 61.375 
Q 24.515625 61.375 19.28125 59.5 
Q 14.0625 57.625 8.109375 53.90625 
L 8.109375 69.921875 
Q 14.453125 72.015625 20.65625 73.109375 
Q 26.859375 74.21875 32.8125 74.21875 
Q 45.90625 74.21875 53.15625 68.453125 
Q 60.40625 62.703125 60.40625 52.390625 
Q 60.40625 46.4375 57.328125 41.28125 
Q 54.25 36.140625 44.390625 27.484375 
z
" id="DejaVuSans-Bold-32"/>
      </defs>
      <g transform="translate(30.55625 244.111078)scale(0.15 -0.15)">
       <use xlink:href="#DejaVuSans-Bold-30"/>
       <use x="69.580078" xlink:href="#DejaVuSans-Bold-2e"/>
       <use x="107.568359" xlink:href="#DejaVuSans-Bold-32"/>
      </g>
     </g>
    </g>
    <g id="ytick_3">
     <g id="line2d_13">
      <path clip-path="url(#p7e619edc19)" d="M 64.127344 179.27625 
L 421.247344 179.27625 
" style="fill:none;stroke:#b0b0b0;stroke-linecap:square;stroke-width:0.8;"/>
     </g>
     <g id="line2d_14">
      <g>
       <use style="stroke:#000000;stroke-width:0.8;" x="64.127344" xlink:href="#mcc40e750b1" y="179.27625"/>
      </g>
     </g>
     <g id="text_8">
      <!-- 0.4 -->
      <defs>
       <path d="M 36.8125 57.421875 
L 16.21875 26.90625 
L 36.8125 26.90625 
z
M 33.6875 72.90625 
L 54.59375 72.90625 
L 54.59375 26.90625 
L 64.984375 26.90625 
L 64.984375 13.28125 
L 54.59375 13.28125 
L 54.59375 0 
L 36.8125 0 
L 36.8125 13.28125 
L 4.5 13.28125 
L 4.5 29.390625 
z
" id="DejaVuSans-Bold-34"/>
      </defs>
      <g transform="translate(30.55625 184.975078)scale(0.15 -0.15)">
       <use xlink:href="#DejaVuSans-Bold-30"/>
       <use x="69.580078" xlink:href="#DejaVuSans-Bold-2e"/>
       <use x="107.568359" xlink:href="#DejaVuSans-Bold-34"/>
      </g>
     </g>
    </g>
    <g id="ytick_4">
     <g id="line2d_15">
      <path clip-path="url(#p7e619edc19)" d="M 64.127344 120.14025 
L 421.247344 120.14025 
" style="fill:none;stroke:#b0b0b0;stroke-linecap:square;stroke-width:0.8;"/>
     </g>
     <g id="line2d_16">
      <g>
       <use style="stroke:#000000;stroke-width:0.8;" x="64.127344" xlink:href="#mcc40e750b1" y="120.14025"/>
      </g>
     </g>
     <g id="text_9">
      <!-- 0.6 -->
      <defs>
       <path d="M 36.1875 35.984375 
Q 31.25 35.984375 28.78125 32.78125 
Q 26.3125 29.59375 26.3125 23.1875 
Q 26.3125 16.796875 28.78125 13.59375 
Q 31.25 10.40625 36.1875 10.40625 
Q 41.15625 10.40625 43.625 13.59375 
Q 46.09375 16.796875 46.09375 23.1875 
Q 46.09375 29.59375 43.625 32.78125 
Q 41.15625 35.984375 36.1875 35.984375 
M 59.421875 71 
L 59.421875 57.515625 
Q 54.78125 59.71875 50.671875 60.765625 
Q 46.578125 61.8125 42.671875 61.8125 
Q 34.28125 61.8125 29.59375 57.140625 
Q 24.90625 52.484375 24.125 43.3125 
Q 27.34375 45.703125 31.09375 46.890625 
Q 34.859375 48.09375 39.3125 48.09375 
Q 50.484375 48.09375 57.34375 41.546875 
Q 64.203125 35.015625 64.203125 24.421875 
Q 64.203125 12.703125 56.53125 5.640625 
Q 48.875 -1.421875 35.984375 -1.421875 
Q 21.78125 -1.421875 13.984375 8.171875 
Q 6.203125 17.78125 6.203125 35.40625 
Q 6.203125 53.46875 15.3125 63.796875 
Q 24.421875 74.125 40.28125 74.125 
Q 45.3125 74.125 50.046875 73.34375 
Q 54.78125 72.5625 59.421875 71 
" id="DejaVuSans-Bold-36"/>
      </defs>
      <g transform="translate(30.55625 125.839078)scale(0.15 -0.15)">
       <use xlink:href="#DejaVuSans-Bold-30"/>
       <use x="69.580078" xlink:href="#DejaVuSans-Bold-2e"/>
       <use x="107.568359" xlink:href="#DejaVuSans-Bold-36"/>
      </g>
     </g>
    </g>
    <g id="ytick_5">
     <g id="line2d_17">
      <path clip-path="url(#p7e619edc19)" d="M 64.127344 61.00425 
L 421.247344 61.00425 
" style="fill:none;stroke:#b0b0b0;stroke-linecap:square;stroke-width:0.8;"/>
     </g>
     <g id="line2d_18">
      <g>
       <use style="stroke:#000000;stroke-width:0.8;" x="64.127344" xlink:href="#mcc40e750b1" y="61.00425"/>
      </g>
     </g>
     <g id="text_10">
      <!-- 0.8 -->
      <g transform="translate(30.55625 66.703078)scale(0.15 -0.15)">
       <use xlink:href="#DejaVuSans-Bold-30"/>
       <use x="69.580078" xlink:href="#DejaVuSans-Bold-2e"/>
       <use x="107.568359" xlink:href="#DejaVuSans-Bold-38"/>
      </g>
     </g>
    </g>
    <g id="text_11">
     <!-- Normalized survival -->
     <defs>
      <path d="M 9.8125 72.90625 
L 23.09375 72.90625 
L 55.421875 11.921875 
L 55.421875 72.90625 
L 64.984375 72.90625 
L 64.984375 0 
L 51.703125 0 
L 19.390625 60.984375 
L 19.390625 0 
L 9.8125 0 
z
" id="DejaVuSans-4e"/>
      <path d="M 30.609375 48.390625 
Q 23.390625 48.390625 19.1875 42.75 
Q 14.984375 37.109375 14.984375 27.296875 
Q 14.984375 17.484375 19.15625 11.84375 
Q 23.34375 6.203125 30.609375 6.203125 
Q 37.796875 6.203125 41.984375 11.859375 
Q 46.1875 17.53125 46.1875 27.296875 
Q 46.1875 37.015625 41.984375 42.703125 
Q 37.796875 48.390625 30.609375 48.390625 
M 30.609375 56 
Q 42.328125 56 49.015625 48.375 
Q 55.71875 40.765625 55.71875 27.296875 
Q 55.71875 13.875 49.015625 6.21875 
Q 42.328125 -1.421875 30.609375 -1.421875 
Q 18.84375 -1.421875 12.171875 6.21875 
Q 5.515625 13.875 5.515625 27.296875 
Q 5.515625 40.765625 12.171875 48.375 
Q 18.84375 56 30.609375 56 
" id="DejaVuSans-6f"/>
      <path d="M 41.109375 46.296875 
Q 39.59375 47.171875 37.8125 47.578125 
Q 36.03125 48 33.890625 48 
Q 26.265625 48 22.1875 43.046875 
Q 18.109375 38.09375 18.109375 28.8125 
L 18.109375 0 
L 9.078125 0 
L 9.078125 54.6875 
L 18.109375 54.6875 
L 18.109375 46.1875 
Q 20.953125 51.171875 25.484375 53.578125 
Q 30.03125 56 36.53125 56 
Q 37.453125 56 38.578125 55.875 
Q 39.703125 55.765625 41.0625 55.515625 
z
" id="DejaVuSans-72"/>
      <path d="M 52 44.1875 
Q 55.375 50.25 60.0625 53.125 
Q 64.75 56 71.09375 56 
Q 79.640625 56 84.28125 50.015625 
Q 88.921875 44.046875 88.921875 33.015625 
L 88.921875 0 
L 79.890625 0 
L 79.890625 32.71875 
Q 79.890625 40.578125 77.09375 44.375 
Q 74.3125 48.1875 68.609375 48.1875 
Q 61.625 48.1875 57.5625 43.546875 
Q 53.515625 38.921875 53.515625 30.90625 
L 53.515625 0 
L 44.484375 0 
L 44.484375 32.71875 
Q 44.484375 40.625 41.703125 44.40625 
Q 38.921875 48.1875 33.109375 48.1875 
Q 26.21875 48.1875 22.15625 43.53125 
Q 18.109375 38.875 18.109375 30.90625 
L 18.109375 0 
L 9.078125 0 
L 9.078125 54.6875 
L 18.109375 54.6875 
L 18.109375 46.1875 
Q 21.1875 51.21875 25.484375 53.609375 
Q 29.78125 56 35.6875 56 
Q 41.65625 56 45.828125 52.96875 
Q 50 49.953125 52 44.1875 
" id="DejaVuSans-6d"/>
      <path d="M 34.28125 27.484375 
Q 23.390625 27.484375 19.1875 25 
Q 14.984375 22.515625 14.984375 16.5 
Q 14.984375 11.71875 18.140625 8.90625 
Q 21.296875 6.109375 26.703125 6.109375 
Q 34.1875 6.109375 38.703125 11.40625 
Q 43.21875 16.703125 43.21875 25.484375 
L 43.21875 27.484375 
z
M 52.203125 31.203125 
L 52.203125 0 
L 43.21875 0 
L 43.21875 8.296875 
Q 40.140625 3.328125 35.546875 0.953125 
Q 30.953125 -1.421875 24.3125 -1.421875 
Q 15.921875 -1.421875 10.953125 3.296875 
Q 6 8.015625 6 15.921875 
Q 6 25.140625 12.171875 29.828125 
Q 18.359375 34.515625 30.609375 34.515625 
L 43.21875 34.515625 
L 43.21875 35.40625 
Q 43.21875 41.609375 39.140625 45 
Q 35.0625 48.390625 27.6875 48.390625 
Q 23 48.390625 18.546875 47.265625 
Q 14.109375 46.140625 10.015625 43.890625 
L 10.015625 52.203125 
Q 14.9375 54.109375 19.578125 55.046875 
Q 24.21875 56 28.609375 56 
Q 40.484375 56 46.34375 49.84375 
Q 52.203125 43.703125 52.203125 31.203125 
" id="DejaVuSans-61"/>
      <path d="M 9.421875 75.984375 
L 18.40625 75.984375 
L 18.40625 0 
L 9.421875 0 
z
" id="DejaVuSans-6c"/>
      <path d="M 9.421875 54.6875 
L 18.40625 54.6875 
L 18.40625 0 
L 9.421875 0 
z
M 9.421875 75.984375 
L 18.40625 75.984375 
L 18.40625 64.59375 
L 9.421875 64.59375 
z
" id="DejaVuSans-69"/>
      <path d="M 56.203125 29.59375 
L 56.203125 25.203125 
L 14.890625 25.203125 
Q 15.484375 15.921875 20.484375 11.0625 
Q 25.484375 6.203125 34.421875 6.203125 
Q 39.59375 6.203125 44.453125 7.46875 
Q 49.3125 8.734375 54.109375 11.28125 
L 54.109375 2.78125 
Q 49.265625 0.734375 44.1875 -0.34375 
Q 39.109375 -1.421875 33.890625 -1.421875 
Q 20.796875 -1.421875 13.15625 6.1875 
Q 5.515625 13.8125 5.515625 26.8125 
Q 5.515625 40.234375 12.765625 48.109375 
Q 20.015625 56 32.328125 56 
Q 43.359375 56 49.78125 48.890625 
Q 56.203125 41.796875 56.203125 29.59375 
M 47.21875 32.234375 
Q 47.125 39.59375 43.09375 43.984375 
Q 39.0625 48.390625 32.421875 48.390625 
Q 24.90625 48.390625 20.390625 44.140625 
Q 15.875 39.890625 15.1875 32.171875 
z
" id="DejaVuSans-65"/>
      <path d="M 45.40625 46.390625 
L 45.40625 75.984375 
L 54.390625 75.984375 
L 54.390625 0 
L 45.40625 0 
L 45.40625 8.203125 
Q 42.578125 3.328125 38.25 0.953125 
Q 33.9375 -1.421875 27.875 -1.421875 
Q 17.96875 -1.421875 11.734375 6.484375 
Q 5.515625 14.40625 5.515625 27.296875 
Q 5.515625 40.1875 11.734375 48.09375 
Q 17.96875 56 27.875 56 
Q 33.9375 56 38.25 53.625 
Q 42.578125 51.265625 45.40625 46.390625 
M 14.796875 27.296875 
Q 14.796875 17.390625 18.875 11.75 
Q 22.953125 6.109375 30.078125 6.109375 
Q 37.203125 6.109375 41.296875 11.75 
Q 45.40625 17.390625 45.40625 27.296875 
Q 45.40625 37.203125 41.296875 42.84375 
Q 37.203125 48.484375 30.078125 48.484375 
Q 22.953125 48.484375 18.875 42.84375 
Q 14.796875 37.203125 14.796875 27.296875 
" id="DejaVuSans-64"/>
      <path id="DejaVuSans-20"/>
      <path d="M 44.28125 53.078125 
L 44.28125 44.578125 
Q 40.484375 46.53125 36.375 47.5 
Q 32.28125 48.484375 27.875 48.484375 
Q 21.1875 48.484375 17.84375 46.4375 
Q 14.5 44.390625 14.5 40.28125 
Q 14.5 37.15625 16.890625 35.375 
Q 19.28125 33.59375 26.515625 31.984375 
L 29.59375 31.296875 
Q 39.15625 29.25 43.1875 25.515625 
Q 47.21875 21.78125 47.21875 15.09375 
Q 47.21875 7.46875 41.1875 3.015625 
Q 35.15625 -1.421875 24.609375 -1.421875 
Q 20.21875 -1.421875 15.453125 -0.5625 
Q 10.6875 0.296875 5.421875 2 
L 5.421875 11.28125 
Q 10.40625 8.6875 15.234375 7.390625 
Q 20.0625 6.109375 24.8125 6.109375 
Q 31.15625 6.109375 34.5625 8.28125 
Q 37.984375 10.453125 37.984375 14.40625 
Q 37.984375 18.0625 35.515625 20.015625 
Q 33.0625 21.96875 24.703125 23.78125 
L 21.578125 24.515625 
Q 13.234375 26.265625 9.515625 29.90625 
Q 5.8125 33.546875 5.8125 39.890625 
Q 5.8125 47.609375 11.28125 51.796875 
Q 16.75 56 26.8125 56 
Q 31.78125 56 36.171875 55.265625 
Q 40.578125 54.546875 44.28125 53.078125 
" id="DejaVuSans-73"/>
      <path d="M 8.5 21.578125 
L 8.5 54.6875 
L 17.484375 54.6875 
L 17.484375 21.921875 
Q 17.484375 14.15625 20.5 10.265625 
Q 23.53125 6.390625 29.59375 6.390625 
Q 36.859375 6.390625 41.078125 11.03125 
Q 45.3125 15.671875 45.3125 23.6875 
L 45.3125 54.6875 
L 54.296875 54.6875 
L 54.296875 0 
L 45.3125 0 
L 45.3125 8.40625 
Q 42.046875 3.421875 37.71875 1 
Q 33.40625 -1.421875 27.6875 -1.421875 
Q 18.265625 -1.421875 13.375 4.4375 
Q 8.5 10.296875 8.5 21.578125 
M 31.109375 56 
z
" id="DejaVuSans-75"/>
      <path d="M 2.984375 54.6875 
L 12.5 54.6875 
L 29.59375 8.796875 
L 46.6875 54.6875 
L 56.203125 54.6875 
L 35.6875 0 
L 23.484375 0 
z
" id="DejaVuSans-76"/>
     </defs>
     <g transform="translate(22.396875 263.734437)rotate(-90)scale(0.2 -0.2)">
      <use xlink:href="#DejaVuSans-4e"/>
      <use x="74.804688" xlink:href="#DejaVuSans-6f"/>
      <use x="135.986328" xlink:href="#DejaVuSans-72"/>
      <use x="177.083984" xlink:href="#DejaVuSans-6d"/>
      <use x="274.496094" xlink:href="#DejaVuSans-61"/>
      <use x="335.775391" xlink:href="#DejaVuSans-6c"/>
      <use x="363.558594" xlink:href="#DejaVuSans-69"/>
      <use x="391.341797" xlink:href="#DejaVuSans-7a"/>
      <use x="443.832031" xlink:href="#DejaVuSans-65"/>
      <use x="505.355469" xlink:href="#DejaVuSans-64"/>
      <use x="568.832031" xlink:href="#DejaVuSans-20"/>
      <use x="600.619141" xlink:href="#DejaVuSans-73"/>
      <use x="652.71875" xlink:href="#DejaVuSans-75"/>
      <use x="716.097656" xlink:href="#DejaVuSans-72"/>
      <use x="757.210938" xlink:href="#DejaVuSans-76"/>
      <use x="816.390625" xlink:href="#DejaVuSans-69"/>
      <use x="844.173828" xlink:href="#DejaVuSans-76"/>
      <use x="903.353516" xlink:href="#DejaVuSans-61"/>
      <use x="964.632812" xlink:href="#DejaVuSans-6c"/>
     </g>
    </g>
   </g>
   <g id="LineCollection_1">
    <path clip-path="url(#p7e619edc19)" d="M 80.360071 292.395924 
L 80.360071 281.751588 
" style="fill:none;stroke:#ff0000;stroke-width:1.5;"/>
    <path clip-path="url(#p7e619edc19)" d="M 83.59852 287.879639 
L 83.59852 274.610546 
" style="fill:none;stroke:#ff0000;stroke-width:1.5;"/>
    <path clip-path="url(#p7e619edc19)" d="M 86.83697 250.601105 
L 86.83697 226.646443 
" style="fill:none;stroke:#ff0000;stroke-width:1.5;"/>
    <path clip-path="url(#p7e619edc19)" d="M 90.075419 203.896294 
L 90.075419 174.55129 
" style="fill:none;stroke:#ff0000;stroke-width:1.5;"/>
    <path clip-path="url(#p7e619edc19)" d="M 93.313868 118.701968 
L 93.313868 89.523504 
" style="fill:none;stroke:#ff0000;stroke-width:1.5;"/>
    <path clip-path="url(#p7e619edc19)" d="M 96.552318 148.107078 
L 96.552318 116.884159 
" style="fill:none;stroke:#ff0000;stroke-width:1.5;"/>
    <path clip-path="url(#p7e619edc19)" d="M 99.790767 201.943744 
L 99.790767 172.170862 
" style="fill:none;stroke:#ff0000;stroke-width:1.5;"/>
    <path clip-path="url(#p7e619edc19)" d="M 103.029216 262.513258 
L 103.029216 239.210611 
" style="fill:none;stroke:#ff0000;stroke-width:1.5;"/>
    <path clip-path="url(#p7e619edc19)" d="M 106.267666 292.293414 
L 106.267666 281.443334 
" style="fill:none;stroke:#ff0000;stroke-width:1.5;"/>
    <path clip-path="url(#p7e619edc19)" d="M 109.506115 296.307664 
L 109.506115 289.162792 
" style="fill:none;stroke:#ff0000;stroke-width:1.5;"/>
    <path clip-path="url(#p7e619edc19)" d="M 112.744564 292.186741 
L 112.744564 281.122812 
" style="fill:none;stroke:#ff0000;stroke-width:1.5;"/>
   </g>
   <g id="LineCollection_2">
    <path clip-path="url(#p7e619edc19)" d="M 265.761295 294.456396 
L 265.761295 285.383139 
" style="fill:none;stroke:#ff0000;stroke-width:1.5;"/>
    <path clip-path="url(#p7e619edc19)" d="M 269.809357 296.307664 
L 269.809357 289.162792 
" style="fill:none;stroke:#ff0000;stroke-width:1.5;"/>
    <path clip-path="url(#p7e619edc19)" d="M 273.857419 289.059121 
L 273.857419 275.255193 
" style="fill:none;stroke:#ff0000;stroke-width:1.5;"/>
    <path clip-path="url(#p7e619edc19)" d="M 277.90548 271.343227 
L 277.90548 251.444501 
" style="fill:none;stroke:#ff0000;stroke-width:1.5;"/>
    <path clip-path="url(#p7e619edc19)" d="M 281.953542 223.644406 
L 281.953542 195.800609 
" style="fill:none;stroke:#ff0000;stroke-width:1.5;"/>
    <path clip-path="url(#p7e619edc19)" d="M 286.001604 186.328934 
L 286.001604 155.281728 
" style="fill:none;stroke:#ff0000;stroke-width:1.5;"/>
    <path clip-path="url(#p7e619edc19)" d="M 290.049665 234.341354 
L 290.049665 208.126806 
" style="fill:none;stroke:#ff0000;stroke-width:1.5;"/>
    <path clip-path="url(#p7e619edc19)" d="M 294.097727 278.203668 
L 294.097727 261.104152 
" style="fill:none;stroke:#ff0000;stroke-width:1.5;"/>
    <path clip-path="url(#p7e619edc19)" d="M 298.145789 293.641353 
L 298.145789 282.242671 
" style="fill:none;stroke:#ff0000;stroke-width:1.5;"/>
    <path clip-path="url(#p7e619edc19)" d="M 302.19385 296.320476 
L 302.19385 289.248204 
" style="fill:none;stroke:#ff0000;stroke-width:1.5;"/>
    <path clip-path="url(#p7e619edc19)" d="M 306.241912 297.54825 
L 306.241912 294.793895 
" style="fill:none;stroke:#ff0000;stroke-width:1.5;"/>
   </g>
   <g id="LineCollection_3">
    <path clip-path="url(#p7e619edc19)" d="M 356.437877 297.54825 
L 356.437877 294.496857 
" style="fill:none;stroke:#ff0000;stroke-width:1.5;"/>
    <path clip-path="url(#p7e619edc19)" d="M 361.295551 297.54825 
L 361.295551 294.40439 
" style="fill:none;stroke:#ff0000;stroke-width:1.5;"/>
    <path clip-path="url(#p7e619edc19)" d="M 366.153225 292.131764 
L 366.153225 280.957718 
" style="fill:none;stroke:#ff0000;stroke-width:1.5;"/>
    <path clip-path="url(#p7e619edc19)" d="M 371.010898 291.712912 
L 371.010898 279.702123 
" style="fill:none;stroke:#ff0000;stroke-width:1.5;"/>
    <path clip-path="url(#p7e619edc19)" d="M 375.868572 289.989236 
L 375.868572 277.644725 
" style="fill:none;stroke:#ff0000;stroke-width:1.5;"/>
    <path clip-path="url(#p7e619edc19)" d="M 380.726246 282.892168 
L 380.726246 267.313644 
" style="fill:none;stroke:#ff0000;stroke-width:1.5;"/>
    <path clip-path="url(#p7e619edc19)" d="M 385.58392 288.063307 
L 385.58392 275.036341 
" style="fill:none;stroke:#ff0000;stroke-width:1.5;"/>
    <path clip-path="url(#p7e619edc19)" d="M 390.441594 294.11537 
L 390.441594 284.065798 
" style="fill:none;stroke:#ff0000;stroke-width:1.5;"/>
    <path clip-path="url(#p7e619edc19)" d="M 395.299268 296.333026 
L 395.299268 289.331895 
" style="fill:none;stroke:#ff0000;stroke-width:1.5;"/>
    <path clip-path="url(#p7e619edc19)" d="M 400.156942 294.225324 
L 400.156942 284.490012 
" style="fill:none;stroke:#ff0000;stroke-width:1.5;"/>
    <path clip-path="url(#p7e619edc19)" d="M 405.014616 296.253625 
L 405.014616 288.802807 
" style="fill:none;stroke:#ff0000;stroke-width:1.5;"/>
   </g>
   <g id="LineCollection_4">
    <path clip-path="url(#p7e619edc19)" d="M 166.988591 296.320476 
L 166.988591 289.248204 
" style="fill:none;stroke:#ff0000;stroke-width:1.5;"/>
    <path clip-path="url(#p7e619edc19)" d="M 171.846265 296.380762 
L 171.846265 289.650433 
" style="fill:none;stroke:#ff0000;stroke-width:1.5;"/>
    <path clip-path="url(#p7e619edc19)" d="M 176.703939 294.516628 
L 176.703939 285.616309 
" style="fill:none;stroke:#ff0000;stroke-width:1.5;"/>
    <path clip-path="url(#p7e619edc19)" d="M 181.561613 287.590399 
L 181.561613 273.940776 
" style="fill:none;stroke:#ff0000;stroke-width:1.5;"/>
    <path clip-path="url(#p7e619edc19)" d="M 186.419287 244.346724 
L 186.419287 216.843289 
" style="fill:none;stroke:#ff0000;stroke-width:1.5;"/>
    <path clip-path="url(#p7e619edc19)" d="M 191.276961 187.087351 
L 191.276961 155.739232 
" style="fill:none;stroke:#ff0000;stroke-width:1.5;"/>
    <path clip-path="url(#p7e619edc19)" d="M 196.134635 262.965794 
L 196.134635 240.958776 
" style="fill:none;stroke:#ff0000;stroke-width:1.5;"/>
    <path clip-path="url(#p7e619edc19)" d="M 200.992309 292.018356 
L 200.992309 280.617373 
" style="fill:none;stroke:#ff0000;stroke-width:1.5;"/>
    <path clip-path="url(#p7e619edc19)" d="M 205.849983 296.130075 
L 205.849983 287.98141 
" style="fill:none;stroke:#ff0000;stroke-width:1.5;"/>
    <path clip-path="url(#p7e619edc19)" d="M 210.707657 296.414174 
L 210.707657 289.873587 
" style="fill:none;stroke:#ff0000;stroke-width:1.5;"/>
    <path clip-path="url(#p7e619edc19)" d="M 215.565331 296.392116 
L 215.565331 289.726246 
" style="fill:none;stroke:#ff0000;stroke-width:1.5;"/>
   </g>
   <g id="LineCollection_5">
    <path clip-path="url(#p7e619edc19)" d="M 80.360071 296.935462 
L 80.360071 293.37399 
" style="fill:none;stroke:#0000ff;stroke-width:1.5;"/>
    <path clip-path="url(#p7e619edc19)" d="M 83.59852 291.74375 
L 83.59852 283.628796 
" style="fill:none;stroke:#0000ff;stroke-width:1.5;"/>
    <path clip-path="url(#p7e619edc19)" d="M 86.83697 233.972293 
L 86.83697 214.212957 
" style="fill:none;stroke:#0000ff;stroke-width:1.5;"/>
    <path clip-path="url(#p7e619edc19)" d="M 90.075419 158.428596 
L 90.075419 134.402227 
" style="fill:none;stroke:#0000ff;stroke-width:1.5;"/>
    <path clip-path="url(#p7e619edc19)" d="M 93.313868 142.120717 
L 93.313868 117.414999 
" style="fill:none;stroke:#0000ff;stroke-width:1.5;"/>
    <path clip-path="url(#p7e619edc19)" d="M 96.552318 197.773863 
L 96.552318 173.699108 
" style="fill:none;stroke:#0000ff;stroke-width:1.5;"/>
    <path clip-path="url(#p7e619edc19)" d="M 99.790767 260.624095 
L 99.790767 243.958119 
" style="fill:none;stroke:#0000ff;stroke-width:1.5;"/>
    <path clip-path="url(#p7e619edc19)" d="M 103.029216 293.516827 
L 103.029216 286.812082 
" style="fill:none;stroke:#0000ff;stroke-width:1.5;"/>
    <path clip-path="url(#p7e619edc19)" d="M 106.267666 296.873196 
L 106.267666 292.952716 
" style="fill:none;stroke:#0000ff;stroke-width:1.5;"/>
    <path clip-path="url(#p7e619edc19)" d="M 109.506115 296.866266 
L 109.506115 292.905864 
" style="fill:none;stroke:#0000ff;stroke-width:1.5;"/>
    <path clip-path="url(#p7e619edc19)" d="M 112.744564 296.965048 
L 112.744564 293.574349 
" style="fill:none;stroke:#0000ff;stroke-width:1.5;"/>
   </g>
   <g id="LineCollection_6">
    <path clip-path="url(#p7e619edc19)" d="M 265.761295 293.535896 
L 265.761295 286.862343 
" style="fill:none;stroke:#0000ff;stroke-width:1.5;"/>
    <path clip-path="url(#p7e619edc19)" d="M 269.809357 297.54825 
L 269.809357 295.875852 
" style="fill:none;stroke:#0000ff;stroke-width:1.5;"/>
    <path clip-path="url(#p7e619edc19)" d="M 273.857419 296.876608 
L 273.857419 292.975789 
" style="fill:none;stroke:#0000ff;stroke-width:1.5;"/>
    <path clip-path="url(#p7e619edc19)" d="M 277.90548 295.823324 
L 277.90548 290.705225 
" style="fill:none;stroke:#0000ff;stroke-width:1.5;"/>
    <path clip-path="url(#p7e619edc19)" d="M 281.953542 290.562928 
L 281.953542 282.03524 
" style="fill:none;stroke:#0000ff;stroke-width:1.5;"/>
    <path clip-path="url(#p7e619edc19)" d="M 286.001604 295.733327 
L 286.001604 290.351286 
" style="fill:none;stroke:#0000ff;stroke-width:1.5;"/>
    <path clip-path="url(#p7e619edc19)" d="M 290.049665 293.497575 
L 290.049665 286.761345 
" style="fill:none;stroke:#0000ff;stroke-width:1.5;"/>
    <path clip-path="url(#p7e619edc19)" d="M 294.097727 296.876608 
L 294.097727 292.975789 
" style="fill:none;stroke:#0000ff;stroke-width:1.5;"/>
    <path clip-path="url(#p7e619edc19)" d="M 298.145789 295.897016 
L 298.145789 290.995267 
" style="fill:none;stroke:#0000ff;stroke-width:1.5;"/>
    <path clip-path="url(#p7e619edc19)" d="M 302.19385 297.54825 
L 302.19385 295.626378 
" style="fill:none;stroke:#0000ff;stroke-width:1.5;"/>
    <path clip-path="url(#p7e619edc19)" d="M 306.241912 296.886641 
L 306.241912 293.043639 
" style="fill:none;stroke:#0000ff;stroke-width:1.5;"/>
   </g>
   <g id="LineCollection_7">
    <path clip-path="url(#p7e619edc19)" d="M 356.437877 296.612306 
L 356.437877 293.821207 
" style="fill:none;stroke:#0000ff;stroke-width:1.5;"/>
    <path clip-path="url(#p7e619edc19)" d="M 361.295551 295.971882 
L 361.295551 292.648523 
" style="fill:none;stroke:#0000ff;stroke-width:1.5;"/>
    <path clip-path="url(#p7e619edc19)" d="M 366.153225 296.559077 
L 366.153225 293.610244 
" style="fill:none;stroke:#0000ff;stroke-width:1.5;"/>
    <path clip-path="url(#p7e619edc19)" d="M 371.010898 297.197511 
L 371.010898 295.152735 
" style="fill:none;stroke:#0000ff;stroke-width:1.5;"/>
    <path clip-path="url(#p7e619edc19)" d="M 375.868572 293.839703 
L 375.868572 289.261665 
" style="fill:none;stroke:#0000ff;stroke-width:1.5;"/>
    <path clip-path="url(#p7e619edc19)" d="M 380.726246 297.17484 
L 380.726246 294.998477 
" style="fill:none;stroke:#0000ff;stroke-width:1.5;"/>
    <path clip-path="url(#p7e619edc19)" d="M 385.58392 297.198434 
L 385.58392 295.15902 
" style="fill:none;stroke:#0000ff;stroke-width:1.5;"/>
    <path clip-path="url(#p7e619edc19)" d="M 390.441594 297.191866 
L 390.441594 295.114322 
" style="fill:none;stroke:#0000ff;stroke-width:1.5;"/>
    <path clip-path="url(#p7e619edc19)" d="M 395.299268 297.182044 
L 395.299268 295.047488 
" style="fill:none;stroke:#0000ff;stroke-width:1.5;"/>
    <path clip-path="url(#p7e619edc19)" d="M 400.156942 296.612306 
L 400.156942 293.821207 
" style="fill:none;stroke:#0000ff;stroke-width:1.5;"/>
    <path clip-path="url(#p7e619edc19)" d="M 405.014616 297.164042 
L 405.014616 294.925033 
" style="fill:none;stroke:#0000ff;stroke-width:1.5;"/>
   </g>
   <g id="line2d_19">
    <path clip-path="url(#p7e619edc19)" d="M 80.360071 287.073756 
L 83.59852 281.245092 
L 86.83697 238.623774 
L 90.075419 189.223792 
L 93.313868 104.112736 
L 96.552318 132.495618 
L 99.790767 187.057303 
L 103.029216 250.861934 
L 106.267666 286.868374 
L 109.506115 292.735228 
L 112.744564 286.654776 
" style="fill:none;stroke:#ff0000;stroke-linecap:square;stroke-width:1.5;"/>
    <defs>
     <path d="M 0 3 
C 0.795609 3 1.55874 2.683901 2.12132 2.12132 
C 2.683901 1.55874 3 0.795609 3 0 
C 3 -0.795609 2.683901 -1.55874 2.12132 -2.12132 
C 1.55874 -2.683901 0.795609 -3 0 -3 
C -0.795609 -3 -1.55874 -2.683901 -2.12132 -2.12132 
C -2.683901 -1.55874 -3 -0.795609 -3 0 
C -3 0.795609 -2.683901 1.55874 -2.12132 2.12132 
C -1.55874 2.683901 -0.795609 3 0 3 
z
" id="m19abad91e1" style="stroke:#ff0000;"/>
    </defs>
    <g clip-path="url(#p7e619edc19)">
     <use style="fill:#ff0000;stroke:#ff0000;" x="80.360071" xlink:href="#m19abad91e1" y="287.073756"/>
     <use style="fill:#ff0000;stroke:#ff0000;" x="83.59852" xlink:href="#m19abad91e1" y="281.245092"/>
     <use style="fill:#ff0000;stroke:#ff0000;" x="86.83697" xlink:href="#m19abad91e1" y="238.623774"/>
     <use style="fill:#ff0000;stroke:#ff0000;" x="90.075419" xlink:href="#m19abad91e1" y="189.223792"/>
     <use style="fill:#ff0000;stroke:#ff0000;" x="93.313868" xlink:href="#m19abad91e1" y="104.112736"/>
     <use style="fill:#ff0000;stroke:#ff0000;" x="96.552318" xlink:href="#m19abad91e1" y="132.495618"/>
     <use style="fill:#ff0000;stroke:#ff0000;" x="99.790767" xlink:href="#m19abad91e1" y="187.057303"/>
     <use style="fill:#ff0000;stroke:#ff0000;" x="103.029216" xlink:href="#m19abad91e1" y="250.861934"/>
     <use style="fill:#ff0000;stroke:#ff0000;" x="106.267666" xlink:href="#m19abad91e1" y="286.868374"/>
     <use style="fill:#ff0000;stroke:#ff0000;" x="109.506115" xlink:href="#m19abad91e1" y="292.735228"/>
     <use style="fill:#ff0000;stroke:#ff0000;" x="112.744564" xlink:href="#m19abad91e1" y="286.654776"/>
    </g>
   </g>
   <g id="line2d_20">
    <path clip-path="url(#p7e619edc19)" d="M 265.761295 289.919767 
L 269.809357 292.735228 
L 273.857419 282.157157 
L 277.90548 261.393864 
L 281.953542 209.722507 
L 286.001604 170.805331 
L 290.049665 221.23408 
L 294.097727 269.65391 
L 298.145789 287.942012 
L 302.19385 292.78434 
L 306.241912 296.171073 
" style="fill:none;stroke:#ff0000;stroke-linecap:square;stroke-width:1.5;"/>
    <g clip-path="url(#p7e619edc19)">
     <use style="fill:#ff0000;stroke:#ff0000;" x="265.761295" xlink:href="#m19abad91e1" y="289.919767"/>
     <use style="fill:#ff0000;stroke:#ff0000;" x="269.809357" xlink:href="#m19abad91e1" y="292.735228"/>
     <use style="fill:#ff0000;stroke:#ff0000;" x="273.857419" xlink:href="#m19abad91e1" y="282.157157"/>
     <use style="fill:#ff0000;stroke:#ff0000;" x="277.90548" xlink:href="#m19abad91e1" y="261.393864"/>
     <use style="fill:#ff0000;stroke:#ff0000;" x="281.953542" xlink:href="#m19abad91e1" y="209.722507"/>
     <use style="fill:#ff0000;stroke:#ff0000;" x="286.001604" xlink:href="#m19abad91e1" y="170.805331"/>
     <use style="fill:#ff0000;stroke:#ff0000;" x="290.049665" xlink:href="#m19abad91e1" y="221.23408"/>
     <use style="fill:#ff0000;stroke:#ff0000;" x="294.097727" xlink:href="#m19abad91e1" y="269.65391"/>
     <use style="fill:#ff0000;stroke:#ff0000;" x="298.145789" xlink:href="#m19abad91e1" y="287.942012"/>
     <use style="fill:#ff0000;stroke:#ff0000;" x="302.19385" xlink:href="#m19abad91e1" y="292.78434"/>
     <use style="fill:#ff0000;stroke:#ff0000;" x="306.241912" xlink:href="#m19abad91e1" y="296.171073"/>
    </g>
   </g>
   <g id="line2d_21">
    <path clip-path="url(#p7e619edc19)" d="M 356.437877 296.022553 
L 361.295551 295.97632 
L 366.153225 286.544741 
L 371.010898 285.707518 
L 375.868572 283.816981 
L 380.726246 275.102906 
L 385.58392 281.549824 
L 390.441594 289.090584 
L 395.299268 292.832461 
L 400.156942 289.357668 
L 405.014616 292.528216 
" style="fill:none;stroke:#ff0000;stroke-linecap:square;stroke-width:1.5;"/>
    <g clip-path="url(#p7e619edc19)">
     <use style="fill:#ff0000;stroke:#ff0000;" x="356.437877" xlink:href="#m19abad91e1" y="296.022553"/>
     <use style="fill:#ff0000;stroke:#ff0000;" x="361.295551" xlink:href="#m19abad91e1" y="295.97632"/>
     <use style="fill:#ff0000;stroke:#ff0000;" x="366.153225" xlink:href="#m19abad91e1" y="286.544741"/>
     <use style="fill:#ff0000;stroke:#ff0000;" x="371.010898" xlink:href="#m19abad91e1" y="285.707518"/>
     <use style="fill:#ff0000;stroke:#ff0000;" x="375.868572" xlink:href="#m19abad91e1" y="283.816981"/>
     <use style="fill:#ff0000;stroke:#ff0000;" x="380.726246" xlink:href="#m19abad91e1" y="275.102906"/>
     <use style="fill:#ff0000;stroke:#ff0000;" x="385.58392" xlink:href="#m19abad91e1" y="281.549824"/>
     <use style="fill:#ff0000;stroke:#ff0000;" x="390.441594" xlink:href="#m19abad91e1" y="289.090584"/>
     <use style="fill:#ff0000;stroke:#ff0000;" x="395.299268" xlink:href="#m19abad91e1" y="292.832461"/>
     <use style="fill:#ff0000;stroke:#ff0000;" x="400.156942" xlink:href="#m19abad91e1" y="289.357668"/>
     <use style="fill:#ff0000;stroke:#ff0000;" x="405.014616" xlink:href="#m19abad91e1" y="292.528216"/>
    </g>
   </g>
   <g id="line2d_22">
    <path clip-path="url(#p7e619edc19)" d="M 166.988591 292.78434 
L 171.846265 293.015598 
L 176.703939 290.066469 
L 181.561613 280.765587 
L 186.419287 230.595006 
L 191.276961 171.413292 
L 196.134635 251.962285 
L 200.992309 286.317865 
L 205.849983 292.055742 
L 210.707657 293.143881 
L 215.565331 293.059181 
" style="fill:none;stroke:#ff0000;stroke-linecap:square;stroke-width:1.5;"/>
    <g clip-path="url(#p7e619edc19)">
     <use style="fill:#ff0000;stroke:#ff0000;" x="166.988591" xlink:href="#m19abad91e1" y="292.78434"/>
     <use style="fill:#ff0000;stroke:#ff0000;" x="171.846265" xlink:href="#m19abad91e1" y="293.015598"/>
     <use style="fill:#ff0000;stroke:#ff0000;" x="176.703939" xlink:href="#m19abad91e1" y="290.066469"/>
     <use style="fill:#ff0000;stroke:#ff0000;" x="181.561613" xlink:href="#m19abad91e1" y="280.765587"/>
     <use style="fill:#ff0000;stroke:#ff0000;" x="186.419287" xlink:href="#m19abad91e1" y="230.595006"/>
     <use style="fill:#ff0000;stroke:#ff0000;" x="191.276961" xlink:href="#m19abad91e1" y="171.413292"/>
     <use style="fill:#ff0000;stroke:#ff0000;" x="196.134635" xlink:href="#m19abad91e1" y="251.962285"/>
     <use style="fill:#ff0000;stroke:#ff0000;" x="200.992309" xlink:href="#m19abad91e1" y="286.317865"/>
     <use style="fill:#ff0000;stroke:#ff0000;" x="205.849983" xlink:href="#m19abad91e1" y="292.055742"/>
     <use style="fill:#ff0000;stroke:#ff0000;" x="210.707657" xlink:href="#m19abad91e1" y="293.143881"/>
     <use style="fill:#ff0000;stroke:#ff0000;" x="215.565331" xlink:href="#m19abad91e1" y="293.059181"/>
    </g>
   </g>
   <g id="line2d_23">
    <path clip-path="url(#p7e619edc19)" d="M 80.360071 295.154726 
L 83.59852 287.686273 
L 86.83697 224.092625 
L 90.075419 146.415412 
L 93.313868 129.767858 
L 96.552318 185.736485 
L 99.790767 252.291107 
L 103.029216 290.164454 
L 106.267666 294.912956 
L 109.506115 294.886065 
L 112.744564 295.269699 
" style="fill:none;stroke:#0000ff;stroke-linecap:square;stroke-width:1.5;"/>
    <defs>
     <path d="M 0 3 
C 0.795609 3 1.55874 2.683901 2.12132 2.12132 
C 2.683901 1.55874 3 0.795609 3 0 
C 3 -0.795609 2.683901 -1.55874 2.12132 -2.12132 
C 1.55874 -2.683901 0.795609 -3 0 -3 
C -0.795609 -3 -1.55874 -2.683901 -2.12132 -2.12132 
C -2.683901 -1.55874 -3 -0.795609 -3 0 
C -3 0.795609 -2.683901 1.55874 -2.12132 2.12132 
C -1.55874 2.683901 -0.795609 3 0 3 
z
" id="m5191b57454" style="stroke:#0000ff;"/>
    </defs>
    <g clip-path="url(#p7e619edc19)">
     <use style="fill:#0000ff;stroke:#0000ff;" x="80.360071" xlink:href="#m5191b57454" y="295.154726"/>
     <use style="fill:#0000ff;stroke:#0000ff;" x="83.59852" xlink:href="#m5191b57454" y="287.686273"/>
     <use style="fill:#0000ff;stroke:#0000ff;" x="86.83697" xlink:href="#m5191b57454" y="224.092625"/>
     <use style="fill:#0000ff;stroke:#0000ff;" x="90.075419" xlink:href="#m5191b57454" y="146.415412"/>
     <use style="fill:#0000ff;stroke:#0000ff;" x="93.313868" xlink:href="#m5191b57454" y="129.767858"/>
     <use style="fill:#0000ff;stroke:#0000ff;" x="96.552318" xlink:href="#m5191b57454" y="185.736485"/>
     <use style="fill:#0000ff;stroke:#0000ff;" x="99.790767" xlink:href="#m5191b57454" y="252.291107"/>
     <use style="fill:#0000ff;stroke:#0000ff;" x="103.029216" xlink:href="#m5191b57454" y="290.164454"/>
     <use style="fill:#0000ff;stroke:#0000ff;" x="106.267666" xlink:href="#m5191b57454" y="294.912956"/>
     <use style="fill:#0000ff;stroke:#0000ff;" x="109.506115" xlink:href="#m5191b57454" y="294.886065"/>
     <use style="fill:#0000ff;stroke:#0000ff;" x="112.744564" xlink:href="#m5191b57454" y="295.269699"/>
    </g>
   </g>
   <g id="line2d_24">
    <path clip-path="url(#p7e619edc19)" d="M 265.761295 290.19912 
L 269.809357 296.712051 
L 273.857419 294.926199 
L 277.90548 293.264274 
L 281.953542 286.299084 
L 286.001604 293.042307 
L 290.049665 290.12946 
L 294.097727 294.926199 
L 298.145789 293.446141 
L 302.19385 296.587314 
L 306.241912 294.96514 
" style="fill:none;stroke:#0000ff;stroke-linecap:square;stroke-width:1.5;"/>
    <g clip-path="url(#p7e619edc19)">
     <use style="fill:#0000ff;stroke:#0000ff;" x="265.761295" xlink:href="#m5191b57454" y="290.19912"/>
     <use style="fill:#0000ff;stroke:#0000ff;" x="269.809357" xlink:href="#m5191b57454" y="296.712051"/>
     <use style="fill:#0000ff;stroke:#0000ff;" x="273.857419" xlink:href="#m5191b57454" y="294.926199"/>
     <use style="fill:#0000ff;stroke:#0000ff;" x="277.90548" xlink:href="#m5191b57454" y="293.264274"/>
     <use style="fill:#0000ff;stroke:#0000ff;" x="281.953542" xlink:href="#m5191b57454" y="286.299084"/>
     <use style="fill:#0000ff;stroke:#0000ff;" x="286.001604" xlink:href="#m5191b57454" y="293.042307"/>
     <use style="fill:#0000ff;stroke:#0000ff;" x="290.049665" xlink:href="#m5191b57454" y="290.12946"/>
     <use style="fill:#0000ff;stroke:#0000ff;" x="294.097727" xlink:href="#m5191b57454" y="294.926199"/>
     <use style="fill:#0000ff;stroke:#0000ff;" x="298.145789" xlink:href="#m5191b57454" y="293.446141"/>
     <use style="fill:#0000ff;stroke:#0000ff;" x="302.19385" xlink:href="#m5191b57454" y="296.587314"/>
     <use style="fill:#0000ff;stroke:#0000ff;" x="306.241912" xlink:href="#m5191b57454" y="294.96514"/>
    </g>
   </g>
   <g id="line2d_25">
    <path clip-path="url(#p7e619edc19)" d="M 356.437877 295.216757 
L 361.295551 294.310202 
L 366.153225 295.084661 
L 371.010898 296.175123 
L 375.868572 291.550684 
L 380.726246 296.086658 
L 385.58392 296.178727 
L 390.441594 296.153094 
L 395.299268 296.114766 
L 400.156942 295.216757 
L 405.014616 296.044538 
" style="fill:none;stroke:#0000ff;stroke-linecap:square;stroke-width:1.5;"/>
    <g clip-path="url(#p7e619edc19)">
     <use style="fill:#0000ff;stroke:#0000ff;" x="356.437877" xlink:href="#m5191b57454" y="295.216757"/>
     <use style="fill:#0000ff;stroke:#0000ff;" x="361.295551" xlink:href="#m5191b57454" y="294.310202"/>
     <use style="fill:#0000ff;stroke:#0000ff;" x="366.153225" xlink:href="#m5191b57454" y="295.084661"/>
     <use style="fill:#0000ff;stroke:#0000ff;" x="371.010898" xlink:href="#m5191b57454" y="296.175123"/>
     <use style="fill:#0000ff;stroke:#0000ff;" x="375.868572" xlink:href="#m5191b57454" y="291.550684"/>
     <use style="fill:#0000ff;stroke:#0000ff;" x="380.726246" xlink:href="#m5191b57454" y="296.086658"/>
     <use style="fill:#0000ff;stroke:#0000ff;" x="385.58392" xlink:href="#m5191b57454" y="296.178727"/>
     <use style="fill:#0000ff;stroke:#0000ff;" x="390.441594" xlink:href="#m5191b57454" y="296.153094"/>
     <use style="fill:#0000ff;stroke:#0000ff;" x="395.299268" xlink:href="#m5191b57454" y="296.114766"/>
     <use style="fill:#0000ff;stroke:#0000ff;" x="400.156942" xlink:href="#m5191b57454" y="295.216757"/>
     <use style="fill:#0000ff;stroke:#0000ff;" x="405.014616" xlink:href="#m5191b57454" y="296.044538"/>
    </g>
   </g>
   <g id="patch_3">
    <path d="M 64.127344 297.54825 
L 64.127344 31.43625 
" style="fill:none;stroke:#000000;stroke-linecap:square;stroke-linejoin:miter;stroke-width:0.8;"/>
   </g>
   <g id="patch_4">
    <path d="M 421.247344 297.54825 
L 421.247344 31.43625 
" style="fill:none;stroke:#000000;stroke-linecap:square;stroke-linejoin:miter;stroke-width:0.8;"/>
   </g>
   <g id="patch_5">
    <path d="M 64.127344 297.54825 
L 421.247344 297.54825 
" style="fill:none;stroke:#000000;stroke-linecap:square;stroke-linejoin:miter;stroke-width:0.8;"/>
   </g>
   <g id="patch_6">
    <path d="M 64.127344 31.43625 
L 421.247344 31.43625 
" style="fill:none;stroke:#000000;stroke-linecap:square;stroke-linejoin:miter;stroke-width:0.8;"/>
   </g>
   <g id="text_12">
    <!-- Radial 3 -->
    <defs>
     <path d="M 44.390625 34.1875 
Q 47.5625 33.109375 50.5625 29.59375 
Q 53.5625 26.078125 56.59375 19.921875 
L 66.609375 0 
L 56 0 
L 46.6875 18.703125 
Q 43.0625 26.03125 39.671875 28.421875 
Q 36.28125 30.8125 30.421875 30.8125 
L 19.671875 30.8125 
L 19.671875 0 
L 9.8125 0 
L 9.8125 72.90625 
L 32.078125 72.90625 
Q 44.578125 72.90625 50.734375 67.671875 
Q 56.890625 62.453125 56.890625 51.90625 
Q 56.890625 45.015625 53.6875 40.46875 
Q 50.484375 35.9375 44.390625 34.1875 
M 19.671875 64.796875 
L 19.671875 38.921875 
L 32.078125 38.921875 
Q 39.203125 38.921875 42.84375 42.21875 
Q 46.484375 45.515625 46.484375 51.90625 
Q 46.484375 58.296875 42.84375 61.546875 
Q 39.203125 64.796875 32.078125 64.796875 
z
" id="DejaVuSans-52"/>
     <path d="M 40.578125 39.3125 
Q 47.65625 37.796875 51.625 33 
Q 55.609375 28.21875 55.609375 21.1875 
Q 55.609375 10.40625 48.1875 4.484375 
Q 40.765625 -1.421875 27.09375 -1.421875 
Q 22.515625 -1.421875 17.65625 -0.515625 
Q 12.796875 0.390625 7.625 2.203125 
L 7.625 11.71875 
Q 11.71875 9.328125 16.59375 8.109375 
Q 21.484375 6.890625 26.8125 6.890625 
Q 36.078125 6.890625 40.9375 10.546875 
Q 45.796875 14.203125 45.796875 21.1875 
Q 45.796875 27.640625 41.28125 31.265625 
Q 36.765625 34.90625 28.71875 34.90625 
L 20.21875 34.90625 
L 20.21875 43.015625 
L 29.109375 43.015625 
Q 36.375 43.015625 40.234375 45.921875 
Q 44.09375 48.828125 44.09375 54.296875 
Q 44.09375 59.90625 40.109375 62.90625 
Q 36.140625 65.921875 28.71875 65.921875 
Q 24.65625 65.921875 20.015625 65.03125 
Q 15.375 64.15625 9.8125 62.3125 
L 9.8125 71.09375 
Q 15.4375 72.65625 20.34375 73.4375 
Q 25.25 74.21875 29.59375 74.21875 
Q 40.828125 74.21875 47.359375 69.109375 
Q 53.90625 64.015625 53.90625 55.328125 
Q 53.90625 49.265625 50.4375 45.09375 
Q 46.96875 40.921875 40.578125 39.3125 
" id="DejaVuSans-33"/>
    </defs>
    <g transform="translate(193.911094 25.43625)scale(0.24 -0.24)">
     <use xlink:href="#DejaVuSans-52"/>
     <use x="69.451172" xlink:href="#DejaVuSans-61"/>
     <use x="130.730469" xlink:href="#DejaVuSans-64"/>
     <use x="194.207031" xlink:href="#DejaVuSans-69"/>
     <use x="221.990234" xlink:href="#DejaVuSans-61"/>
     <use x="283.269531" xlink:href="#DejaVuSans-6c"/>
     <use x="311.052734" xlink:href="#DejaVuSans-20"/>
     <use x="342.839844" xlink:href="#DejaVuSans-33"/>
    </g>
   </g>
   <g id="legend_1">
    <g id="patch_7">
     <path d="M 268.569219 106.14875 
L 407.247344 106.14875 
Q 411.247344 106.14875 411.247344 102.14875 
L 411.247344 45.43625 
Q 411.247344 41.43625 407.247344 41.43625 
L 268.569219 41.43625 
Q 264.569219 41.43625 264.569219 45.43625 
L 264.569219 102.14875 
Q 264.569219 106.14875 268.569219 106.14875 
z
" style="fill:#ffffff;opacity:0.8;stroke:#cccccc;stroke-linejoin:miter;"/>
    </g>
    <g id="LineCollection_8">
     <path d="M 292.569219 67.633125 
L 292.569219 47.633125 
" style="fill:none;stroke:#ff0000;stroke-width:1.5;"/>
    </g>
    <g id="line2d_26">
     <path d="M 272.569219 57.633125 
L 312.569219 57.633125 
" style="fill:none;stroke:#ff0000;stroke-linecap:square;stroke-width:1.5;"/>
    </g>
    <g id="line2d_27">
     <g>
      <use style="fill:#ff0000;stroke:#ff0000;" x="292.569219" xlink:href="#m19abad91e1" y="57.633125"/>
     </g>
    </g>
    <g id="text_13">
     <!-- Before -->
     <defs>
      <path d="M 38.375 44.671875 
Q 42.828125 44.671875 45.109375 46.625 
Q 47.40625 48.578125 47.40625 52.390625 
Q 47.40625 56.15625 45.109375 58.125 
Q 42.828125 60.109375 38.375 60.109375 
L 27.984375 60.109375 
L 27.984375 44.671875 
z
M 39.015625 12.796875 
Q 44.671875 12.796875 47.53125 15.1875 
Q 50.390625 17.578125 50.390625 22.40625 
Q 50.390625 27.15625 47.5625 29.515625 
Q 44.734375 31.890625 39.015625 31.890625 
L 27.984375 31.890625 
L 27.984375 12.796875 
z
M 56.5 39.015625 
Q 62.546875 37.25 65.859375 32.515625 
Q 69.1875 27.78125 69.1875 20.90625 
Q 69.1875 10.359375 62.0625 5.171875 
Q 54.9375 0 40.375 0 
L 9.1875 0 
L 9.1875 72.90625 
L 37.40625 72.90625 
Q 52.59375 72.90625 59.40625 68.3125 
Q 66.21875 63.71875 66.21875 53.609375 
Q 66.21875 48.296875 63.71875 44.5625 
Q 61.234375 40.828125 56.5 39.015625 
" id="DejaVuSans-Bold-42"/>
      <path d="M 62.984375 27.484375 
L 62.984375 22.515625 
L 22.125 22.515625 
Q 22.75 16.359375 26.5625 13.28125 
Q 30.375 10.203125 37.203125 10.203125 
Q 42.71875 10.203125 48.5 11.84375 
Q 54.296875 13.484375 60.40625 16.796875 
L 60.40625 3.328125 
Q 54.203125 0.984375 48 -0.21875 
Q 41.796875 -1.421875 35.59375 -1.421875 
Q 20.75 -1.421875 12.515625 6.125 
Q 4.296875 13.671875 4.296875 27.296875 
Q 4.296875 40.671875 12.375 48.328125 
Q 20.453125 56 34.625 56 
Q 47.515625 56 55.25 48.234375 
Q 62.984375 40.484375 62.984375 27.484375 
M 45.015625 33.296875 
Q 45.015625 38.28125 42.109375 41.328125 
Q 39.203125 44.390625 34.515625 44.390625 
Q 29.4375 44.390625 26.265625 41.53125 
Q 23.09375 38.671875 22.3125 33.296875 
z
" id="DejaVuSans-Bold-65"/>
      <path d="M 44.390625 75.984375 
L 44.390625 64.5 
L 34.71875 64.5 
Q 31 64.5 29.53125 63.15625 
Q 28.078125 61.8125 28.078125 58.5 
L 28.078125 54.6875 
L 43.015625 54.6875 
L 43.015625 42.1875 
L 28.078125 42.1875 
L 28.078125 0 
L 10.59375 0 
L 10.59375 42.1875 
L 1.90625 42.1875 
L 1.90625 54.6875 
L 10.59375 54.6875 
L 10.59375 58.5 
Q 10.59375 67.4375 15.578125 71.703125 
Q 20.5625 75.984375 31 75.984375 
z
" id="DejaVuSans-Bold-66"/>
      <path d="M 34.421875 43.5 
Q 28.609375 43.5 25.5625 39.328125 
Q 22.515625 35.15625 22.515625 27.296875 
Q 22.515625 19.4375 25.5625 15.25 
Q 28.609375 11.078125 34.421875 11.078125 
Q 40.140625 11.078125 43.15625 15.25 
Q 46.1875 19.4375 46.1875 27.296875 
Q 46.1875 35.15625 43.15625 39.328125 
Q 40.140625 43.5 34.421875 43.5 
M 34.421875 56 
Q 48.53125 56 56.46875 48.375 
Q 64.40625 40.765625 64.40625 27.296875 
Q 64.40625 13.8125 56.46875 6.1875 
Q 48.53125 -1.421875 34.421875 -1.421875 
Q 20.265625 -1.421875 12.28125 6.1875 
Q 4.296875 13.8125 4.296875 27.296875 
Q 4.296875 40.765625 12.28125 48.375 
Q 20.265625 56 34.421875 56 
" id="DejaVuSans-Bold-6f"/>
      <path d="M 49.03125 39.796875 
Q 46.734375 40.875 44.453125 41.375 
Q 42.1875 41.890625 39.890625 41.890625 
Q 33.15625 41.890625 29.515625 37.5625 
Q 25.875 33.25 25.875 25.203125 
L 25.875 0 
L 8.40625 0 
L 8.40625 54.6875 
L 25.875 54.6875 
L 25.875 45.703125 
Q 29.25 51.078125 33.609375 53.53125 
Q 37.984375 56 44.09375 56 
Q 44.96875 56 45.984375 55.921875 
Q 47.015625 55.859375 48.96875 55.609375 
z
" id="DejaVuSans-Bold-72"/>
     </defs>
     <g transform="translate(328.569219 64.633125)scale(0.2 -0.2)">
      <use xlink:href="#DejaVuSans-Bold-42"/>
      <use x="76.220703" xlink:href="#DejaVuSans-Bold-65"/>
      <use x="144.042969" xlink:href="#DejaVuSans-Bold-66"/>
      <use x="187.548828" xlink:href="#DejaVuSans-Bold-6f"/>
      <use x="256.25" xlink:href="#DejaVuSans-Bold-72"/>
      <use x="305.566406" xlink:href="#DejaVuSans-Bold-65"/>
     </g>
    </g>
    <g id="LineCollection_9">
     <path d="M 292.569219 96.989375 
L 292.569219 76.989375 
" style="fill:none;stroke:#0000ff;stroke-width:1.5;"/>
    </g>
    <g id="line2d_28">
     <path d="M 272.569219 86.989375 
L 312.569219 86.989375 
" style="fill:none;stroke:#0000ff;stroke-linecap:square;stroke-width:1.5;"/>
    </g>
    <g id="line2d_29">
     <g>
      <use style="fill:#0000ff;stroke:#0000ff;" x="292.569219" xlink:href="#m5191b57454" y="86.989375"/>
     </g>
    </g>
    <g id="text_14">
     <!-- After -->
     <defs>
      <path d="M 53.421875 13.28125 
L 24.03125 13.28125 
L 19.390625 0 
L 0.484375 0 
L 27.484375 72.90625 
L 49.90625 72.90625 
L 76.90625 0 
L 58.015625 0 
z
M 28.71875 26.8125 
L 48.6875 26.8125 
L 38.71875 55.8125 
z
" id="DejaVuSans-Bold-41"/>
      <path d="M 27.484375 70.21875 
L 27.484375 54.6875 
L 45.515625 54.6875 
L 45.515625 42.1875 
L 27.484375 42.1875 
L 27.484375 19 
Q 27.484375 15.1875 29 13.84375 
Q 30.515625 12.5 35.015625 12.5 
L 44 12.5 
L 44 0 
L 29 0 
Q 18.65625 0 14.328125 4.3125 
Q 10.015625 8.640625 10.015625 19 
L 10.015625 42.1875 
L 1.3125 42.1875 
L 1.3125 54.6875 
L 10.015625 54.6875 
L 10.015625 70.21875 
z
" id="DejaVuSans-Bold-74"/>
     </defs>
     <g transform="translate(328.569219 93.989375)scale(0.2 -0.2)">
      <use xlink:href="#DejaVuSans-Bold-41"/>
      <use x="77.392578" xlink:href="#DejaVuSans-Bold-66"/>
      <use x="120.898438" xlink:href="#DejaVuSans-Bold-74"/>
      <use x="168.701172" xlink:href="#DejaVuSans-Bold-65"/>
      <use x="236.523438" xlink:href="#DejaVuSans-Bold-72"/>
     </g>
    </g>
   </g>
  </g>
 </g>
 <defs>
  <clipPath id="p7e619edc19">
   <rect height="266.112" width="357.12" x="64.127344" y="31.43625"/>
  </clipPath>
 </defs>
</svg>
