<?xml version="1.0" encoding="utf-8" standalone="no"?>
<!DOCTYPE svg PUBLIC "-//W3C//DTD SVG 1.1//EN"
  "http://www.w3.org/Graphics/SVG/1.1/DTD/svg11.dtd">
<!-- Created with matplotlib (http://matplotlib.org/) -->
<svg height="328pt" version="1.1" viewBox="0 0 418 328" width="418pt" xmlns="http://www.w3.org/2000/svg" xmlns:xlink="http://www.w3.org/1999/xlink">
 <defs>
  <style type="text/css">
*{stroke-linecap:butt;stroke-linejoin:round;}
  </style>
 </defs>
 <g id="figure_1">
  <g id="patch_1">
   <path d="M 0 328.885437 
L 418.865398 328.885437 
L 418.865398 0 
L 0 0 
z
" style="fill:none;"/>
  </g>
  <g id="axes_1">
   <g id="patch_2">
    <path d="M 40.771094 276.812 
L 397.891094 276.812 
L 397.891094 10.7 
L 40.771094 10.7 
z
" style="fill:none;"/>
   </g>
   <g id="matplotlib.axis_1">
    <g id="xtick_1">
     <g id="line2d_1">
      <path clip-path="url(#p5ea4b3e655)" d="M 57.003821 276.812 
L 57.003821 10.7 
" style="fill:none;stroke:#b0b0b0;stroke-linecap:square;stroke-width:0.8;"/>
     </g>
     <g id="line2d_2">
      <defs>
       <path d="M 0 0 
L 0 3.5 
" id="mec39e98c97" style="stroke:#000000;stroke-width:0.8;"/>
      </defs>
      <g>
       <use style="stroke:#000000;stroke-width:0.8;" x="57.003821" xlink:href="#mec39e98c97" y="276.812"/>
      </g>
     </g>
     <g id="text_1">
      <!-- −18.60 -->
      <defs>
       <path d="M 10.59375 37.109375 
L 73.1875 37.109375 
L 73.1875 25.59375 
L 10.59375 25.59375 
z
" id="DejaVuSans-Bold-2212"/>
       <path d="M 11.71875 12.984375 
L 28.328125 12.984375 
L 28.328125 60.109375 
L 11.28125 56.59375 
L 11.28125 69.390625 
L 28.21875 72.90625 
L 46.09375 72.90625 
L 46.09375 12.984375 
L 62.703125 12.984375 
L 62.703125 0 
L 11.71875 0 
z
" id="DejaVuSans-Bold-31"/>
       <path d="M 34.8125 32.625 
Q 29.546875 32.625 26.703125 29.734375 
Q 23.875 26.859375 23.875 21.484375 
Q 23.875 16.109375 26.703125 13.25 
Q 29.546875 10.40625 34.8125 10.40625 
Q 40.046875 10.40625 42.828125 13.25 
Q 45.609375 16.109375 45.609375 21.484375 
Q 45.609375 26.90625 42.828125 29.765625 
Q 40.046875 32.625 34.8125 32.625 
M 21.09375 38.8125 
Q 14.453125 40.828125 11.078125 44.96875 
Q 7.71875 49.125 7.71875 55.328125 
Q 7.71875 64.546875 14.59375 69.375 
Q 21.484375 74.21875 34.8125 74.21875 
Q 48.046875 74.21875 54.921875 69.40625 
Q 61.8125 64.59375 61.8125 55.328125 
Q 61.8125 49.125 58.421875 44.96875 
Q 55.03125 40.828125 48.390625 38.8125 
Q 55.8125 36.765625 59.59375 32.15625 
Q 63.375 27.546875 63.375 20.515625 
Q 63.375 9.671875 56.171875 4.125 
Q 48.96875 -1.421875 34.8125 -1.421875 
Q 20.609375 -1.421875 13.359375 4.125 
Q 6.109375 9.671875 6.109375 20.515625 
Q 6.109375 27.546875 9.890625 32.15625 
Q 13.671875 36.765625 21.09375 38.8125 
M 25.484375 53.421875 
Q 25.484375 49.078125 27.90625 46.734375 
Q 30.328125 44.390625 34.8125 44.390625 
Q 39.203125 44.390625 41.59375 46.734375 
Q 44 49.078125 44 53.421875 
Q 44 57.765625 41.59375 60.078125 
Q 39.203125 62.40625 34.8125 62.40625 
Q 30.328125 62.40625 27.90625 60.0625 
Q 25.484375 57.71875 25.484375 53.421875 
" id="DejaVuSans-Bold-38"/>
       <path d="M 10.203125 18.890625 
L 27.78125 18.890625 
L 27.78125 0 
L 10.203125 0 
z
" id="DejaVuSans-Bold-2e"/>
       <path d="M 36.1875 35.984375 
Q 31.25 35.984375 28.78125 32.78125 
Q 26.3125 29.59375 26.3125 23.1875 
Q 26.3125 16.796875 28.78125 13.59375 
Q 31.25 10.40625 36.1875 10.40625 
Q 41.15625 10.40625 43.625 13.59375 
Q 46.09375 16.796875 46.09375 23.1875 
Q 46.09375 29.59375 43.625 32.78125 
Q 41.15625 35.984375 36.1875 35.984375 
M 59.421875 71 
L 59.421875 57.515625 
Q 54.78125 59.71875 50.671875 60.765625 
Q 46.578125 61.8125 42.671875 61.8125 
Q 34.28125 61.8125 29.59375 57.140625 
Q 24.90625 52.484375 24.125 43.3125 
Q 27.34375 45.703125 31.09375 46.890625 
Q 34.859375 48.09375 39.3125 48.09375 
Q 50.484375 48.09375 57.34375 41.546875 
Q 64.203125 35.015625 64.203125 24.421875 
Q 64.203125 12.703125 56.53125 5.640625 
Q 48.875 -1.421875 35.984375 -1.421875 
Q 21.78125 -1.421875 13.984375 8.171875 
Q 6.203125 17.78125 6.203125 35.40625 
Q 6.203125 53.46875 15.3125 63.796875 
Q 24.421875 74.125 40.28125 74.125 
Q 45.3125 74.125 50.046875 73.34375 
Q 54.78125 72.5625 59.421875 71 
" id="DejaVuSans-Bold-36"/>
       <path d="M 46 36.53125 
Q 46 50.203125 43.4375 55.78125 
Q 40.875 61.375 34.8125 61.375 
Q 28.765625 61.375 26.171875 55.78125 
Q 23.578125 50.203125 23.578125 36.53125 
Q 23.578125 22.703125 26.171875 17.03125 
Q 28.765625 11.375 34.8125 11.375 
Q 40.828125 11.375 43.40625 17.03125 
Q 46 22.703125 46 36.53125 
M 64.796875 36.375 
Q 64.796875 18.265625 56.984375 8.421875 
Q 49.171875 -1.421875 34.8125 -1.421875 
Q 20.40625 -1.421875 12.59375 8.421875 
Q 4.78125 18.265625 4.78125 36.375 
Q 4.78125 54.546875 12.59375 64.375 
Q 20.40625 74.21875 34.8125 74.21875 
Q 49.171875 74.21875 56.984375 64.375 
Q 64.796875 54.546875 64.796875 36.375 
" id="DejaVuSans-Bold-30"/>
      </defs>
      <g transform="translate(26.99679 295.209656)scale(0.15 -0.15)">
       <use xlink:href="#DejaVuSans-Bold-2212"/>
       <use x="83.789062" xlink:href="#DejaVuSans-Bold-31"/>
       <use x="153.369141" xlink:href="#DejaVuSans-Bold-38"/>
       <use x="222.949219" xlink:href="#DejaVuSans-Bold-2e"/>
       <use x="260.9375" xlink:href="#DejaVuSans-Bold-36"/>
       <use x="330.517578" xlink:href="#DejaVuSans-Bold-30"/>
      </g>
     </g>
    </g>
    <g id="xtick_2">
     <g id="line2d_3">
      <path clip-path="url(#p5ea4b3e655)" d="M 138.167457 276.812 
L 138.167457 10.7 
" style="fill:none;stroke:#b0b0b0;stroke-linecap:square;stroke-width:0.8;"/>
     </g>
     <g id="line2d_4">
      <g>
       <use style="stroke:#000000;stroke-width:0.8;" x="138.167457" xlink:href="#mec39e98c97" y="276.812"/>
      </g>
     </g>
     <g id="text_2">
      <!-- −18.55 -->
      <defs>
       <path d="M 10.59375 72.90625 
L 57.328125 72.90625 
L 57.328125 59.078125 
L 25.59375 59.078125 
L 25.59375 47.796875 
Q 27.734375 48.390625 29.90625 48.703125 
Q 32.078125 49.03125 34.421875 49.03125 
Q 47.75 49.03125 55.171875 42.359375 
Q 62.59375 35.6875 62.59375 23.78125 
Q 62.59375 11.96875 54.515625 5.265625 
Q 46.4375 -1.421875 32.078125 -1.421875 
Q 25.875 -1.421875 19.796875 -0.21875 
Q 13.71875 0.984375 7.71875 3.421875 
L 7.71875 18.21875 
Q 13.671875 14.796875 19.015625 13.078125 
Q 24.359375 11.375 29.109375 11.375 
Q 35.9375 11.375 39.859375 14.71875 
Q 43.796875 18.0625 43.796875 23.78125 
Q 43.796875 29.546875 39.859375 32.859375 
Q 35.9375 36.1875 29.109375 36.1875 
Q 25.046875 36.1875 20.453125 35.125 
Q 15.875 34.078125 10.59375 31.890625 
z
" id="DejaVuSans-Bold-35"/>
      </defs>
      <g transform="translate(108.160426 295.209656)scale(0.15 -0.15)">
       <use xlink:href="#DejaVuSans-Bold-2212"/>
       <use x="83.789062" xlink:href="#DejaVuSans-Bold-31"/>
       <use x="153.369141" xlink:href="#DejaVuSans-Bold-38"/>
       <use x="222.949219" xlink:href="#DejaVuSans-Bold-2e"/>
       <use x="260.9375" xlink:href="#DejaVuSans-Bold-35"/>
       <use x="330.517578" xlink:href="#DejaVuSans-Bold-35"/>
      </g>
     </g>
    </g>
    <g id="xtick_3">
     <g id="line2d_5">
      <path clip-path="url(#p5ea4b3e655)" d="M 219.331094 276.812 
L 219.331094 10.7 
" style="fill:none;stroke:#b0b0b0;stroke-linecap:square;stroke-width:0.8;"/>
     </g>
     <g id="line2d_6">
      <g>
       <use style="stroke:#000000;stroke-width:0.8;" x="219.331094" xlink:href="#mec39e98c97" y="276.812"/>
      </g>
     </g>
     <g id="text_3">
      <!-- −18.50 -->
      <g transform="translate(189.324062 295.209656)scale(0.15 -0.15)">
       <use xlink:href="#DejaVuSans-Bold-2212"/>
       <use x="83.789062" xlink:href="#DejaVuSans-Bold-31"/>
       <use x="153.369141" xlink:href="#DejaVuSans-Bold-38"/>
       <use x="222.949219" xlink:href="#DejaVuSans-Bold-2e"/>
       <use x="260.9375" xlink:href="#DejaVuSans-Bold-35"/>
       <use x="330.517578" xlink:href="#DejaVuSans-Bold-30"/>
      </g>
     </g>
    </g>
    <g id="xtick_4">
     <g id="line2d_7">
      <path clip-path="url(#p5ea4b3e655)" d="M 300.49473 276.812 
L 300.49473 10.7 
" style="fill:none;stroke:#b0b0b0;stroke-linecap:square;stroke-width:0.8;"/>
     </g>
     <g id="line2d_8">
      <g>
       <use style="stroke:#000000;stroke-width:0.8;" x="300.49473" xlink:href="#mec39e98c97" y="276.812"/>
      </g>
     </g>
     <g id="text_4">
      <!-- −18.45 -->
      <defs>
       <path d="M 36.8125 57.421875 
L 16.21875 26.90625 
L 36.8125 26.90625 
z
M 33.6875 72.90625 
L 54.59375 72.90625 
L 54.59375 26.90625 
L 64.984375 26.90625 
L 64.984375 13.28125 
L 54.59375 13.28125 
L 54.59375 0 
L 36.8125 0 
L 36.8125 13.28125 
L 4.5 13.28125 
L 4.5 29.390625 
z
" id="DejaVuSans-Bold-34"/>
      </defs>
      <g transform="translate(270.487699 295.209656)scale(0.15 -0.15)">
       <use xlink:href="#DejaVuSans-Bold-2212"/>
       <use x="83.789062" xlink:href="#DejaVuSans-Bold-31"/>
       <use x="153.369141" xlink:href="#DejaVuSans-Bold-38"/>
       <use x="222.949219" xlink:href="#DejaVuSans-Bold-2e"/>
       <use x="260.9375" xlink:href="#DejaVuSans-Bold-34"/>
       <use x="330.517578" xlink:href="#DejaVuSans-Bold-35"/>
      </g>
     </g>
    </g>
    <g id="xtick_5">
     <g id="line2d_9">
      <path clip-path="url(#p5ea4b3e655)" d="M 381.658366 276.812 
L 381.658366 10.7 
" style="fill:none;stroke:#b0b0b0;stroke-linecap:square;stroke-width:0.8;"/>
     </g>
     <g id="line2d_10">
      <g>
       <use style="stroke:#000000;stroke-width:0.8;" x="381.658366" xlink:href="#mec39e98c97" y="276.812"/>
      </g>
     </g>
     <g id="text_5">
      <!-- −18.40 -->
      <g transform="translate(351.651335 295.209656)scale(0.15 -0.15)">
       <use xlink:href="#DejaVuSans-Bold-2212"/>
       <use x="83.789062" xlink:href="#DejaVuSans-Bold-31"/>
       <use x="153.369141" xlink:href="#DejaVuSans-Bold-38"/>
       <use x="222.949219" xlink:href="#DejaVuSans-Bold-2e"/>
       <use x="260.9375" xlink:href="#DejaVuSans-Bold-34"/>
       <use x="330.517578" xlink:href="#DejaVuSans-Bold-30"/>
      </g>
     </g>
    </g>
    <g id="text_6">
     <!-- $\delta$/MHz -->
     <defs>
      <path d="M 61.140625 61.71875 
Q 55.8125 65.140625 40.234375 65.140625 
Q 31.9375 65.140625 31 60.359375 
Q 30.953125 60.015625 30.953125 59.71875 
Q 30.953125 55.671875 41.15625 54.109375 
Q 63.09375 50.6875 63.09375 33.734375 
Q 63.09375 30.671875 62.40625 27.09375 
Q 59.8125 13.875 50.34375 6.25 
Q 40.828125 -1.421875 26.859375 -1.421875 
Q 12.84375 -1.421875 6.296875 6.25 
Q 1.5625 11.71875 1.5625 20.125 
Q 1.5625 35.203125 13.8125 45.3125 
Q 16.796875 47.75 20.21875 49.3125 
Q 14.984375 52.4375 14.984375 58.15625 
Q 14.984375 59.46875 15.28125 60.9375 
Q 18.359375 76.765625 44.140625 76.765625 
Q 57.078125 76.765625 63.375 73.34375 
z
M 31.296875 42.96875 
Q 28.515625 41.890625 25.921875 39.15625 
Q 21.875 34.90625 20.40625 27.25 
Q 19.828125 24.265625 19.828125 21.09375 
Q 19.828125 17.921875 21.234375 15.28125 
Q 23.640625 10.984375 29.15625 10.984375 
Q 34.71875 10.984375 38.765625 15.328125 
Q 42.875 19.734375 44.28125 27.046875 
Q 44.78125 29.5 44.78125 32.5625 
Q 44.78125 35.59375 42.921875 37.984375 
Q 40.1875 41.703125 35.453125 42.234375 
Q 33.25 42.484375 31.296875 42.96875 
" id="DejaVuSans-BoldOblique-3b4"/>
      <path d="M 25.390625 72.90625 
L 33.6875 72.90625 
L 8.296875 -9.28125 
L 0 -9.28125 
z
" id="DejaVuSans-2f"/>
      <path d="M 9.8125 72.90625 
L 24.515625 72.90625 
L 43.109375 23.296875 
L 61.8125 72.90625 
L 76.515625 72.90625 
L 76.515625 0 
L 66.890625 0 
L 66.890625 64.015625 
L 48.09375 14.015625 
L 38.1875 14.015625 
L 19.390625 64.015625 
L 19.390625 0 
L 9.8125 0 
z
" id="DejaVuSans-4d"/>
      <path d="M 9.8125 72.90625 
L 19.671875 72.90625 
L 19.671875 43.015625 
L 55.515625 43.015625 
L 55.515625 72.90625 
L 65.375 72.90625 
L 65.375 0 
L 55.515625 0 
L 55.515625 34.71875 
L 19.671875 34.71875 
L 19.671875 0 
L 9.8125 0 
z
" id="DejaVuSans-48"/>
      <path d="M 5.515625 54.6875 
L 48.1875 54.6875 
L 48.1875 46.484375 
L 14.40625 7.171875 
L 48.1875 7.171875 
L 48.1875 0 
L 4.296875 0 
L 4.296875 8.203125 
L 38.09375 47.515625 
L 5.515625 47.515625 
z
" id="DejaVuSans-7a"/>
     </defs>
     <g transform="translate(187.631094 317.526062)scale(0.2 -0.2)">
      <use transform="translate(0 0.234375)" xlink:href="#DejaVuSans-BoldOblique-3b4"/>
      <use transform="translate(68.701172 0.234375)" xlink:href="#DejaVuSans-2f"/>
      <use transform="translate(102.392578 0.234375)" xlink:href="#DejaVuSans-4d"/>
      <use transform="translate(188.671875 0.234375)" xlink:href="#DejaVuSans-48"/>
      <use transform="translate(263.867188 0.234375)" xlink:href="#DejaVuSans-7a"/>
     </g>
    </g>
   </g>
   <g id="matplotlib.axis_2">
    <g id="ytick_1">
     <g id="line2d_11">
      <path clip-path="url(#p5ea4b3e655)" d="M 40.771094 276.812 
L 397.891094 276.812 
" style="fill:none;stroke:#b0b0b0;stroke-linecap:square;stroke-width:0.8;"/>
     </g>
     <g id="line2d_12">
      <defs>
       <path d="M 0 0 
L -3.5 0 
" id="m1136ee93c8" style="stroke:#000000;stroke-width:0.8;"/>
      </defs>
      <g>
       <use style="stroke:#000000;stroke-width:0.8;" x="40.771094" xlink:href="#m1136ee93c8" y="276.812"/>
      </g>
     </g>
     <g id="text_7">
      <!-- 0.0 -->
      <g transform="translate(7.2 282.510828)scale(0.15 -0.15)">
       <use xlink:href="#DejaVuSans-Bold-30"/>
       <use x="69.580078" xlink:href="#DejaVuSans-Bold-2e"/>
       <use x="107.568359" xlink:href="#DejaVuSans-Bold-30"/>
      </g>
     </g>
    </g>
    <g id="ytick_2">
     <g id="line2d_13">
      <path clip-path="url(#p5ea4b3e655)" d="M 40.771094 227.060603 
L 397.891094 227.060603 
" style="fill:none;stroke:#b0b0b0;stroke-linecap:square;stroke-width:0.8;"/>
     </g>
     <g id="line2d_14">
      <g>
       <use style="stroke:#000000;stroke-width:0.8;" x="40.771094" xlink:href="#m1136ee93c8" y="227.060603"/>
      </g>
     </g>
     <g id="text_8">
      <!-- 0.1 -->
      <g transform="translate(7.2 232.759431)scale(0.15 -0.15)">
       <use xlink:href="#DejaVuSans-Bold-30"/>
       <use x="69.580078" xlink:href="#DejaVuSans-Bold-2e"/>
       <use x="107.568359" xlink:href="#DejaVuSans-Bold-31"/>
      </g>
     </g>
    </g>
    <g id="ytick_3">
     <g id="line2d_15">
      <path clip-path="url(#p5ea4b3e655)" d="M 40.771094 177.309206 
L 397.891094 177.309206 
" style="fill:none;stroke:#b0b0b0;stroke-linecap:square;stroke-width:0.8;"/>
     </g>
     <g id="line2d_16">
      <g>
       <use style="stroke:#000000;stroke-width:0.8;" x="40.771094" xlink:href="#m1136ee93c8" y="177.309206"/>
      </g>
     </g>
     <g id="text_9">
      <!-- 0.2 -->
      <defs>
       <path d="M 28.8125 13.8125 
L 60.890625 13.8125 
L 60.890625 0 
L 7.90625 0 
L 7.90625 13.8125 
L 34.515625 37.3125 
Q 38.09375 40.53125 39.796875 43.609375 
Q 41.5 46.6875 41.5 50 
Q 41.5 55.125 38.0625 58.25 
Q 34.625 61.375 28.90625 61.375 
Q 24.515625 61.375 19.28125 59.5 
Q 14.0625 57.625 8.109375 53.90625 
L 8.109375 69.921875 
Q 14.453125 72.015625 20.65625 73.109375 
Q 26.859375 74.21875 32.8125 74.21875 
Q 45.90625 74.21875 53.15625 68.453125 
Q 60.40625 62.703125 60.40625 52.390625 
Q 60.40625 46.4375 57.328125 41.28125 
Q 54.25 36.140625 44.390625 27.484375 
z
" id="DejaVuSans-Bold-32"/>
      </defs>
      <g transform="translate(7.2 183.008034)scale(0.15 -0.15)">
       <use xlink:href="#DejaVuSans-Bold-30"/>
       <use x="69.580078" xlink:href="#DejaVuSans-Bold-2e"/>
       <use x="107.568359" xlink:href="#DejaVuSans-Bold-32"/>
      </g>
     </g>
    </g>
    <g id="ytick_4">
     <g id="line2d_17">
      <path clip-path="url(#p5ea4b3e655)" d="M 40.771094 127.557809 
L 397.891094 127.557809 
" style="fill:none;stroke:#b0b0b0;stroke-linecap:square;stroke-width:0.8;"/>
     </g>
     <g id="line2d_18">
      <g>
       <use style="stroke:#000000;stroke-width:0.8;" x="40.771094" xlink:href="#m1136ee93c8" y="127.557809"/>
      </g>
     </g>
     <g id="text_10">
      <!-- 0.3 -->
      <defs>
       <path d="M 46.578125 39.3125 
Q 53.953125 37.40625 57.78125 32.6875 
Q 61.625 27.984375 61.625 20.703125 
Q 61.625 9.859375 53.3125 4.21875 
Q 45.015625 -1.421875 29.109375 -1.421875 
Q 23.484375 -1.421875 17.84375 -0.515625 
Q 12.203125 0.390625 6.6875 2.203125 
L 6.6875 16.703125 
Q 11.96875 14.0625 17.15625 12.71875 
Q 22.359375 11.375 27.390625 11.375 
Q 34.859375 11.375 38.84375 13.953125 
Q 42.828125 16.546875 42.828125 21.390625 
Q 42.828125 26.375 38.75 28.9375 
Q 34.671875 31.5 26.703125 31.5 
L 19.1875 31.5 
L 19.1875 43.609375 
L 27.09375 43.609375 
Q 34.1875 43.609375 37.640625 45.828125 
Q 41.109375 48.046875 41.109375 52.59375 
Q 41.109375 56.78125 37.734375 59.078125 
Q 34.375 61.375 28.21875 61.375 
Q 23.6875 61.375 19.046875 60.34375 
Q 14.40625 59.328125 9.8125 57.328125 
L 9.8125 71.09375 
Q 15.375 72.65625 20.84375 73.4375 
Q 26.3125 74.21875 31.59375 74.21875 
Q 45.796875 74.21875 52.84375 69.546875 
Q 59.90625 64.890625 59.90625 55.515625 
Q 59.90625 49.125 56.53125 45.046875 
Q 53.171875 40.96875 46.578125 39.3125 
" id="DejaVuSans-Bold-33"/>
      </defs>
      <g transform="translate(7.2 133.256637)scale(0.15 -0.15)">
       <use xlink:href="#DejaVuSans-Bold-30"/>
       <use x="69.580078" xlink:href="#DejaVuSans-Bold-2e"/>
       <use x="107.568359" xlink:href="#DejaVuSans-Bold-33"/>
      </g>
     </g>
    </g>
    <g id="ytick_5">
     <g id="line2d_19">
      <path clip-path="url(#p5ea4b3e655)" d="M 40.771094 77.806412 
L 397.891094 77.806412 
" style="fill:none;stroke:#b0b0b0;stroke-linecap:square;stroke-width:0.8;"/>
     </g>
     <g id="line2d_20">
      <g>
       <use style="stroke:#000000;stroke-width:0.8;" x="40.771094" xlink:href="#m1136ee93c8" y="77.806412"/>
      </g>
     </g>
     <g id="text_11">
      <!-- 0.4 -->
      <g transform="translate(7.2 83.50524)scale(0.15 -0.15)">
       <use xlink:href="#DejaVuSans-Bold-30"/>
       <use x="69.580078" xlink:href="#DejaVuSans-Bold-2e"/>
       <use x="107.568359" xlink:href="#DejaVuSans-Bold-34"/>
      </g>
     </g>
    </g>
    <g id="ytick_6">
     <g id="line2d_21">
      <path clip-path="url(#p5ea4b3e655)" d="M 40.771094 28.055015 
L 397.891094 28.055015 
" style="fill:none;stroke:#b0b0b0;stroke-linecap:square;stroke-width:0.8;"/>
     </g>
     <g id="line2d_22">
      <g>
       <use style="stroke:#000000;stroke-width:0.8;" x="40.771094" xlink:href="#m1136ee93c8" y="28.055015"/>
      </g>
     </g>
     <g id="text_12">
      <!-- 0.5 -->
      <g transform="translate(7.2 33.753843)scale(0.15 -0.15)">
       <use xlink:href="#DejaVuSans-Bold-30"/>
       <use x="69.580078" xlink:href="#DejaVuSans-Bold-2e"/>
       <use x="107.568359" xlink:href="#DejaVuSans-Bold-35"/>
      </g>
     </g>
    </g>
   </g>
   <g id="LineCollection_1">
    <path clip-path="url(#p5ea4b3e655)" d="M 57.003821 251.976649 
L 57.003821 237.1548 
" style="fill:none;stroke:#1f77b4;stroke-width:1.5;"/>
    <path clip-path="url(#p5ea4b3e655)" d="M 60.250366 262.222075 
L 60.250366 250.534706 
" style="fill:none;stroke:#1f77b4;stroke-width:1.5;"/>
    <path clip-path="url(#p5ea4b3e655)" d="M 63.496912 257.518352 
L 63.496912 244.392727 
" style="fill:none;stroke:#1f77b4;stroke-width:1.5;"/>
    <path clip-path="url(#p5ea4b3e655)" d="M 66.743457 251.285712 
L 66.743457 236.595371 
" style="fill:none;stroke:#1f77b4;stroke-width:1.5;"/>
    <path clip-path="url(#p5ea4b3e655)" d="M 69.990003 256.643165 
L 69.990003 242.943737 
" style="fill:none;stroke:#1f77b4;stroke-width:1.5;"/>
    <path clip-path="url(#p5ea4b3e655)" d="M 73.236548 260.085713 
L 73.236548 247.472179 
" style="fill:none;stroke:#1f77b4;stroke-width:1.5;"/>
    <path clip-path="url(#p5ea4b3e655)" d="M 76.483094 260.803359 
L 76.483094 248.714793 
" style="fill:none;stroke:#1f77b4;stroke-width:1.5;"/>
    <path clip-path="url(#p5ea4b3e655)" d="M 79.729639 262.062774 
L 79.729639 250.251402 
" style="fill:none;stroke:#1f77b4;stroke-width:1.5;"/>
    <path clip-path="url(#p5ea4b3e655)" d="M 82.976185 252.088201 
L 82.976185 237.840239 
" style="fill:none;stroke:#1f77b4;stroke-width:1.5;"/>
    <path clip-path="url(#p5ea4b3e655)" d="M 86.22273 241.900821 
L 86.22273 225.275716 
" style="fill:none;stroke:#1f77b4;stroke-width:1.5;"/>
    <path clip-path="url(#p5ea4b3e655)" d="M 89.469276 253.528445 
L 89.469276 239.062242 
" style="fill:none;stroke:#1f77b4;stroke-width:1.5;"/>
    <path clip-path="url(#p5ea4b3e655)" d="M 92.715821 257.867279 
L 92.715821 245.519154 
" style="fill:none;stroke:#1f77b4;stroke-width:1.5;"/>
    <path clip-path="url(#p5ea4b3e655)" d="M 95.962366 241.133323 
L 95.962366 224.163921 
" style="fill:none;stroke:#1f77b4;stroke-width:1.5;"/>
    <path clip-path="url(#p5ea4b3e655)" d="M 99.208912 208.348058 
L 99.208912 186.570769 
" style="fill:none;stroke:#1f77b4;stroke-width:1.5;"/>
    <path clip-path="url(#p5ea4b3e655)" d="M 102.455457 171.656715 
L 102.455457 146.013968 
" style="fill:none;stroke:#1f77b4;stroke-width:1.5;"/>
    <path clip-path="url(#p5ea4b3e655)" d="M 105.702003 124.412098 
L 105.702003 95.672574 
" style="fill:none;stroke:#1f77b4;stroke-width:1.5;"/>
    <path clip-path="url(#p5ea4b3e655)" d="M 108.948548 62.298438 
L 108.948548 32.222597 
" style="fill:none;stroke:#1f77b4;stroke-width:1.5;"/>
    <path clip-path="url(#p5ea4b3e655)" d="M 112.195094 53.185763 
L 112.195094 23.044317 
" style="fill:none;stroke:#1f77b4;stroke-width:1.5;"/>
    <path clip-path="url(#p5ea4b3e655)" d="M 115.441639 75.781631 
L 115.441639 45.934637 
" style="fill:none;stroke:#1f77b4;stroke-width:1.5;"/>
    <path clip-path="url(#p5ea4b3e655)" d="M 118.688185 105.319474 
L 118.688185 77.640144 
" style="fill:none;stroke:#1f77b4;stroke-width:1.5;"/>
    <path clip-path="url(#p5ea4b3e655)" d="M 121.93473 152.01752 
L 121.93473 124.581656 
" style="fill:none;stroke:#1f77b4;stroke-width:1.5;"/>
    <path clip-path="url(#p5ea4b3e655)" d="M 125.181276 207.337148 
L 125.181276 185.27324 
" style="fill:none;stroke:#1f77b4;stroke-width:1.5;"/>
    <path clip-path="url(#p5ea4b3e655)" d="M 128.427821 229.061331 
L 128.427821 210.892259 
" style="fill:none;stroke:#1f77b4;stroke-width:1.5;"/>
    <path clip-path="url(#p5ea4b3e655)" d="M 131.674366 249.094453 
L 131.674366 234.191366 
" style="fill:none;stroke:#1f77b4;stroke-width:1.5;"/>
    <path clip-path="url(#p5ea4b3e655)" d="M 134.920912 239.622957 
L 134.920912 222.400998 
" style="fill:none;stroke:#1f77b4;stroke-width:1.5;"/>
    <path clip-path="url(#p5ea4b3e655)" d="M 138.167457 236.850499 
L 138.167457 218.427716 
" style="fill:none;stroke:#1f77b4;stroke-width:1.5;"/>
    <path clip-path="url(#p5ea4b3e655)" d="M 141.414003 230.481947 
L 141.414003 211.106464 
" style="fill:none;stroke:#1f77b4;stroke-width:1.5;"/>
    <path clip-path="url(#p5ea4b3e655)" d="M 144.660548 250.330666 
L 144.660548 235.115494 
" style="fill:none;stroke:#1f77b4;stroke-width:1.5;"/>
    <path clip-path="url(#p5ea4b3e655)" d="M 147.907094 257.223946 
L 147.907094 244.470986 
" style="fill:none;stroke:#1f77b4;stroke-width:1.5;"/>
    <path clip-path="url(#p5ea4b3e655)" d="M 151.153639 248.250564 
L 151.153639 232.429659 
" style="fill:none;stroke:#1f77b4;stroke-width:1.5;"/>
    <path clip-path="url(#p5ea4b3e655)" d="M 154.400185 242.14058 
L 154.400185 225.198709 
" style="fill:none;stroke:#1f77b4;stroke-width:1.5;"/>
    <path clip-path="url(#p5ea4b3e655)" d="M 157.64673 256.643165 
L 157.64673 242.943737 
" style="fill:none;stroke:#1f77b4;stroke-width:1.5;"/>
    <path clip-path="url(#p5ea4b3e655)" d="M 160.893276 253.352326 
L 160.893276 238.781184 
" style="fill:none;stroke:#1f77b4;stroke-width:1.5;"/>
    <path clip-path="url(#p5ea4b3e655)" d="M 164.139821 253.782967 
L 164.139821 238.880823 
" style="fill:none;stroke:#1f77b4;stroke-width:1.5;"/>
    <path clip-path="url(#p5ea4b3e655)" d="M 167.386366 248.401903 
L 167.386366 233.144101 
" style="fill:none;stroke:#1f77b4;stroke-width:1.5;"/>
    <path clip-path="url(#p5ea4b3e655)" d="M 170.632912 238.956956 
L 170.632912 222.22357 
" style="fill:none;stroke:#1f77b4;stroke-width:1.5;"/>
    <path clip-path="url(#p5ea4b3e655)" d="M 173.879457 242.269481 
L 173.879457 225.387031 
" style="fill:none;stroke:#1f77b4;stroke-width:1.5;"/>
    <path clip-path="url(#p5ea4b3e655)" d="M 177.126003 234.830756 
L 177.126003 216.784984 
" style="fill:none;stroke:#1f77b4;stroke-width:1.5;"/>
    <path clip-path="url(#p5ea4b3e655)" d="M 180.372548 237.618189 
L 180.372548 220.330048 
" style="fill:none;stroke:#1f77b4;stroke-width:1.5;"/>
    <path clip-path="url(#p5ea4b3e655)" d="M 183.619094 251.883402 
L 183.619094 237.008297 
" style="fill:none;stroke:#1f77b4;stroke-width:1.5;"/>
    <path clip-path="url(#p5ea4b3e655)" d="M 186.865639 269.93066 
L 186.865639 261.46763 
" style="fill:none;stroke:#1f77b4;stroke-width:1.5;"/>
    <path clip-path="url(#p5ea4b3e655)" d="M 190.112185 241.990158 
L 190.112185 224.520501 
" style="fill:none;stroke:#1f77b4;stroke-width:1.5;"/>
    <path clip-path="url(#p5ea4b3e655)" d="M 193.35873 223.604865 
L 193.35873 203.863807 
" style="fill:none;stroke:#1f77b4;stroke-width:1.5;"/>
    <path clip-path="url(#p5ea4b3e655)" d="M 196.605276 199.033511 
L 196.605276 175.254058 
" style="fill:none;stroke:#1f77b4;stroke-width:1.5;"/>
    <path clip-path="url(#p5ea4b3e655)" d="M 199.851821 174.280052 
L 199.851821 149.589233 
" style="fill:none;stroke:#1f77b4;stroke-width:1.5;"/>
    <path clip-path="url(#p5ea4b3e655)" d="M 203.098366 207.6699 
L 203.098366 185.97611 
" style="fill:none;stroke:#1f77b4;stroke-width:1.5;"/>
    <path clip-path="url(#p5ea4b3e655)" d="M 206.344912 199.626485 
L 206.344912 176.825274 
" style="fill:none;stroke:#1f77b4;stroke-width:1.5;"/>
    <path clip-path="url(#p5ea4b3e655)" d="M 209.591457 215.398719 
L 209.591457 194.844518 
" style="fill:none;stroke:#1f77b4;stroke-width:1.5;"/>
    <path clip-path="url(#p5ea4b3e655)" d="M 212.838003 204.288898 
L 212.838003 181.654468 
" style="fill:none;stroke:#1f77b4;stroke-width:1.5;"/>
    <path clip-path="url(#p5ea4b3e655)" d="M 216.084548 217.387263 
L 216.084548 196.862256 
" style="fill:none;stroke:#1f77b4;stroke-width:1.5;"/>
    <path clip-path="url(#p5ea4b3e655)" d="M 219.331094 178.515138 
L 219.331094 152.936593 
" style="fill:none;stroke:#1f77b4;stroke-width:1.5;"/>
    <path clip-path="url(#p5ea4b3e655)" d="M 222.577639 182.90473 
L 222.577639 158.75029 
" style="fill:none;stroke:#1f77b4;stroke-width:1.5;"/>
    <path clip-path="url(#p5ea4b3e655)" d="M 225.824185 194.42552 
L 225.824185 171.554803 
" style="fill:none;stroke:#1f77b4;stroke-width:1.5;"/>
    <path clip-path="url(#p5ea4b3e655)" d="M 229.07073 213.326855 
L 229.07073 192.434602 
" style="fill:none;stroke:#1f77b4;stroke-width:1.5;"/>
    <path clip-path="url(#p5ea4b3e655)" d="M 232.317276 231.362404 
L 232.317276 212.700758 
" style="fill:none;stroke:#1f77b4;stroke-width:1.5;"/>
    <path clip-path="url(#p5ea4b3e655)" d="M 235.563821 238.11956 
L 235.563821 220.654655 
" style="fill:none;stroke:#1f77b4;stroke-width:1.5;"/>
    <path clip-path="url(#p5ea4b3e655)" d="M 238.810366 206.261006 
L 238.810366 184.444687 
" style="fill:none;stroke:#1f77b4;stroke-width:1.5;"/>
    <path clip-path="url(#p5ea4b3e655)" d="M 242.056912 184.634208 
L 242.056912 160.179184 
" style="fill:none;stroke:#1f77b4;stroke-width:1.5;"/>
    <path clip-path="url(#p5ea4b3e655)" d="M 245.303457 175.45313 
L 245.303457 150.584693 
" style="fill:none;stroke:#1f77b4;stroke-width:1.5;"/>
    <path clip-path="url(#p5ea4b3e655)" d="M 248.550003 206.224159 
L 248.550003 184.912114 
" style="fill:none;stroke:#1f77b4;stroke-width:1.5;"/>
    <path clip-path="url(#p5ea4b3e655)" d="M 251.796548 226.940444 
L 251.796548 207.353637 
" style="fill:none;stroke:#1f77b4;stroke-width:1.5;"/>
    <path clip-path="url(#p5ea4b3e655)" d="M 255.043094 237.338989 
L 255.043094 219.935474 
" style="fill:none;stroke:#1f77b4;stroke-width:1.5;"/>
    <path clip-path="url(#p5ea4b3e655)" d="M 258.289639 268.538943 
L 258.289639 259.440007 
" style="fill:none;stroke:#1f77b4;stroke-width:1.5;"/>
    <path clip-path="url(#p5ea4b3e655)" d="M 261.536185 252.0692 
L 261.536185 237.300228 
" style="fill:none;stroke:#1f77b4;stroke-width:1.5;"/>
    <path clip-path="url(#p5ea4b3e655)" d="M 264.78273 245.819234 
L 264.78273 229.727756 
" style="fill:none;stroke:#1f77b4;stroke-width:1.5;"/>
    <path clip-path="url(#p5ea4b3e655)" d="M 268.029276 214.073494 
L 268.029276 193.11909 
" style="fill:none;stroke:#1f77b4;stroke-width:1.5;"/>
    <path clip-path="url(#p5ea4b3e655)" d="M 271.275821 238.029659 
L 271.275821 220.911751 
" style="fill:none;stroke:#1f77b4;stroke-width:1.5;"/>
    <path clip-path="url(#p5ea4b3e655)" d="M 274.522366 247.697504 
L 274.522366 231.585328 
" style="fill:none;stroke:#1f77b4;stroke-width:1.5;"/>
    <path clip-path="url(#p5ea4b3e655)" d="M 277.768912 247.885649 
L 277.768912 232.363988 
" style="fill:none;stroke:#1f77b4;stroke-width:1.5;"/>
    <path clip-path="url(#p5ea4b3e655)" d="M 281.015457 253.528445 
L 281.015457 239.062242 
" style="fill:none;stroke:#1f77b4;stroke-width:1.5;"/>
    <path clip-path="url(#p5ea4b3e655)" d="M 284.262003 255.719793 
L 284.262003 242.024015 
" style="fill:none;stroke:#1f77b4;stroke-width:1.5;"/>
    <path clip-path="url(#p5ea4b3e655)" d="M 287.508548 245.819234 
L 287.508548 229.727756 
" style="fill:none;stroke:#1f77b4;stroke-width:1.5;"/>
    <path clip-path="url(#p5ea4b3e655)" d="M 290.755094 250.527351 
L 290.755094 235.420117 
" style="fill:none;stroke:#1f77b4;stroke-width:1.5;"/>
    <path clip-path="url(#p5ea4b3e655)" d="M 294.001639 256.463852 
L 294.001639 243.233808 
" style="fill:none;stroke:#1f77b4;stroke-width:1.5;"/>
    <path clip-path="url(#p5ea4b3e655)" d="M 297.248185 252.872127 
L 297.248185 238.562627 
" style="fill:none;stroke:#1f77b4;stroke-width:1.5;"/>
    <path clip-path="url(#p5ea4b3e655)" d="M 300.49473 262.784243 
L 300.49473 250.809898 
" style="fill:none;stroke:#1f77b4;stroke-width:1.5;"/>
    <path clip-path="url(#p5ea4b3e655)" d="M 303.741276 247.809823 
L 303.741276 231.756754 
" style="fill:none;stroke:#1f77b4;stroke-width:1.5;"/>
    <path clip-path="url(#p5ea4b3e655)" d="M 306.987821 242.992082 
L 306.987821 226.858088 
" style="fill:none;stroke:#1f77b4;stroke-width:1.5;"/>
    <path clip-path="url(#p5ea4b3e655)" d="M 310.234366 256.33352 
L 310.234366 242.431525 
" style="fill:none;stroke:#1f77b4;stroke-width:1.5;"/>
    <path clip-path="url(#p5ea4b3e655)" d="M 313.480912 245.117758 
L 313.480912 228.681239 
" style="fill:none;stroke:#1f77b4;stroke-width:1.5;"/>
    <path clip-path="url(#p5ea4b3e655)" d="M 316.727457 243.43542 
L 316.727457 226.650786 
" style="fill:none;stroke:#1f77b4;stroke-width:1.5;"/>
    <path clip-path="url(#p5ea4b3e655)" d="M 319.974003 224.592534 
L 319.974003 205.499086 
" style="fill:none;stroke:#1f77b4;stroke-width:1.5;"/>
    <path clip-path="url(#p5ea4b3e655)" d="M 323.220548 216.299465 
L 323.220548 195.43427 
" style="fill:none;stroke:#1f77b4;stroke-width:1.5;"/>
    <path clip-path="url(#p5ea4b3e655)" d="M 326.467094 197.600337 
L 326.467094 174.275017 
" style="fill:none;stroke:#1f77b4;stroke-width:1.5;"/>
    <path clip-path="url(#p5ea4b3e655)" d="M 329.713639 164.601712 
L 329.713639 139.416303 
" style="fill:none;stroke:#1f77b4;stroke-width:1.5;"/>
    <path clip-path="url(#p5ea4b3e655)" d="M 332.960185 207.954891 
L 332.960185 185.484687 
" style="fill:none;stroke:#1f77b4;stroke-width:1.5;"/>
    <path clip-path="url(#p5ea4b3e655)" d="M 336.20673 204.450745 
L 336.20673 182.137878 
" style="fill:none;stroke:#1f77b4;stroke-width:1.5;"/>
    <path clip-path="url(#p5ea4b3e655)" d="M 339.453276 234.953501 
L 339.453276 216.568751 
" style="fill:none;stroke:#1f77b4;stroke-width:1.5;"/>
    <path clip-path="url(#p5ea4b3e655)" d="M 342.699821 247.809823 
L 342.699821 231.756754 
" style="fill:none;stroke:#1f77b4;stroke-width:1.5;"/>
    <path clip-path="url(#p5ea4b3e655)" d="M 345.946366 248.997592 
L 345.946366 234.044842 
" style="fill:none;stroke:#1f77b4;stroke-width:1.5;"/>
    <path clip-path="url(#p5ea4b3e655)" d="M 349.192912 261.771339 
L 349.192912 250.393163 
" style="fill:none;stroke:#1f77b4;stroke-width:1.5;"/>
    <path clip-path="url(#p5ea4b3e655)" d="M 352.439457 266.206962 
L 352.439457 255.621033 
" style="fill:none;stroke:#1f77b4;stroke-width:1.5;"/>
    <path clip-path="url(#p5ea4b3e655)" d="M 355.686003 253.957388 
L 355.686003 239.747046 
" style="fill:none;stroke:#1f77b4;stroke-width:1.5;"/>
    <path clip-path="url(#p5ea4b3e655)" d="M 358.932548 248.783001 
L 358.932548 233.243048 
" style="fill:none;stroke:#1f77b4;stroke-width:1.5;"/>
    <path clip-path="url(#p5ea4b3e655)" d="M 362.179094 264.995509 
L 362.179094 254.129347 
" style="fill:none;stroke:#1f77b4;stroke-width:1.5;"/>
    <path clip-path="url(#p5ea4b3e655)" d="M 365.425639 252.0692 
L 365.425639 237.300228 
" style="fill:none;stroke:#1f77b4;stroke-width:1.5;"/>
    <path clip-path="url(#p5ea4b3e655)" d="M 368.672185 261.789399 
L 368.672185 249.765405 
" style="fill:none;stroke:#1f77b4;stroke-width:1.5;"/>
    <path clip-path="url(#p5ea4b3e655)" d="M 371.91873 264.06469 
L 371.91873 253.155848 
" style="fill:none;stroke:#1f77b4;stroke-width:1.5;"/>
    <path clip-path="url(#p5ea4b3e655)" d="M 375.165276 259.831982 
L 375.165276 247.033186 
" style="fill:none;stroke:#1f77b4;stroke-width:1.5;"/>
    <path clip-path="url(#p5ea4b3e655)" d="M 378.411821 262.008898 
L 378.411821 250.155604 
" style="fill:none;stroke:#1f77b4;stroke-width:1.5;"/>
    <path clip-path="url(#p5ea4b3e655)" d="M 381.658366 268.273115 
L 381.658366 258.887376 
" style="fill:none;stroke:#1f77b4;stroke-width:1.5;"/>
   </g>
   <g id="line2d_23">
    <path clip-path="url(#p5ea4b3e655)" d="M 57.003821 244.565724 
L 60.250366 256.378391 
L 63.496912 250.955539 
L 66.743457 243.940541 
L 69.990003 249.793451 
L 73.236548 253.778946 
L 76.483094 254.759076 
L 79.729639 256.157088 
L 82.976185 244.96422 
L 86.22273 233.588269 
L 89.469276 246.295344 
L 92.715821 251.693216 
L 95.962366 232.648622 
L 99.208912 197.459413 
L 102.455457 158.835342 
L 105.702003 110.042336 
L 108.948548 47.260518 
L 112.195094 38.11504 
L 115.441639 60.858134 
L 118.688185 91.479809 
L 121.93473 138.299588 
L 125.181276 196.305194 
L 128.427821 219.976795 
L 131.674366 241.642909 
L 134.920912 231.011977 
L 138.167457 227.639108 
L 141.414003 220.794206 
L 144.660548 242.72308 
L 147.907094 250.847466 
L 151.153639 240.340111 
L 154.400185 233.669645 
L 157.64673 249.793451 
L 160.893276 246.066755 
L 164.139821 246.331895 
L 167.386366 240.773002 
L 170.632912 230.590263 
L 173.879457 233.828256 
L 177.126003 225.80787 
L 180.372548 228.974118 
L 183.619094 244.44585 
L 186.865639 265.699145 
L 190.112185 233.255329 
L 193.35873 213.734336 
L 196.605276 187.143784 
L 199.851821 161.934642 
L 203.098366 196.823005 
L 206.344912 188.225879 
L 209.591457 205.121619 
L 212.838003 192.971683 
L 216.084548 207.12476 
L 219.331094 165.725865 
L 222.577639 170.82751 
L 225.824185 182.990161 
L 229.07073 202.880728 
L 232.317276 222.031581 
L 235.563821 229.387107 
L 238.810366 195.352846 
L 242.056912 172.406696 
L 245.303457 163.018911 
L 248.550003 195.568136 
L 251.796548 217.14704 
L 255.043094 228.637232 
L 258.289639 263.989475 
L 261.536185 244.684714 
L 264.78273 237.773495 
L 268.029276 203.596292 
L 271.275821 229.470705 
L 274.522366 239.641416 
L 277.768912 240.124819 
L 281.015457 246.295344 
L 284.262003 248.871904 
L 287.508548 237.773495 
L 290.755094 242.973734 
L 294.001639 249.84883 
L 297.248185 245.717377 
L 300.49473 256.79707 
L 303.741276 239.783288 
L 306.987821 234.925085 
L 310.234366 249.382523 
L 313.480912 236.899499 
L 316.727457 235.043103 
L 319.974003 215.04581 
L 323.220548 205.866867 
L 326.467094 185.937677 
L 329.713639 152.009008 
L 332.960185 196.719789 
L 336.20673 193.294312 
L 339.453276 225.761126 
L 342.699821 239.783288 
L 345.946366 241.521217 
L 349.192912 256.082251 
L 352.439457 260.913997 
L 355.686003 246.852217 
L 358.932548 241.013024 
L 362.179094 259.562428 
L 365.425639 244.684714 
L 368.672185 255.777402 
L 371.91873 258.610269 
L 375.165276 253.432584 
L 378.411821 256.082251 
L 381.658366 263.580245 
" style="fill:none;stroke:#1f77b4;stroke-linecap:square;stroke-width:1.5;"/>
    <defs>
     <path d="M 0 3 
C 0.795609 3 1.55874 2.683901 2.12132 2.12132 
C 2.683901 1.55874 3 0.795609 3 0 
C 3 -0.795609 2.683901 -1.55874 2.12132 -2.12132 
C 1.55874 -2.683901 0.795609 -3 0 -3 
C -0.795609 -3 -1.55874 -2.683901 -2.12132 -2.12132 
C -2.683901 -1.55874 -3 -0.795609 -3 0 
C -3 0.795609 -2.683901 1.55874 -2.12132 2.12132 
C -1.55874 2.683901 -0.795609 3 0 3 
z
" id="m44269b8413" style="stroke:#1f77b4;"/>
    </defs>
    <g clip-path="url(#p5ea4b3e655)">
     <use style="fill:#1f77b4;stroke:#1f77b4;" x="57.003821" xlink:href="#m44269b8413" y="244.565724"/>
     <use style="fill:#1f77b4;stroke:#1f77b4;" x="60.250366" xlink:href="#m44269b8413" y="256.378391"/>
     <use style="fill:#1f77b4;stroke:#1f77b4;" x="63.496912" xlink:href="#m44269b8413" y="250.955539"/>
     <use style="fill:#1f77b4;stroke:#1f77b4;" x="66.743457" xlink:href="#m44269b8413" y="243.940541"/>
     <use style="fill:#1f77b4;stroke:#1f77b4;" x="69.990003" xlink:href="#m44269b8413" y="249.793451"/>
     <use style="fill:#1f77b4;stroke:#1f77b4;" x="73.236548" xlink:href="#m44269b8413" y="253.778946"/>
     <use style="fill:#1f77b4;stroke:#1f77b4;" x="76.483094" xlink:href="#m44269b8413" y="254.759076"/>
     <use style="fill:#1f77b4;stroke:#1f77b4;" x="79.729639" xlink:href="#m44269b8413" y="256.157088"/>
     <use style="fill:#1f77b4;stroke:#1f77b4;" x="82.976185" xlink:href="#m44269b8413" y="244.96422"/>
     <use style="fill:#1f77b4;stroke:#1f77b4;" x="86.22273" xlink:href="#m44269b8413" y="233.588269"/>
     <use style="fill:#1f77b4;stroke:#1f77b4;" x="89.469276" xlink:href="#m44269b8413" y="246.295344"/>
     <use style="fill:#1f77b4;stroke:#1f77b4;" x="92.715821" xlink:href="#m44269b8413" y="251.693216"/>
     <use style="fill:#1f77b4;stroke:#1f77b4;" x="95.962366" xlink:href="#m44269b8413" y="232.648622"/>
     <use style="fill:#1f77b4;stroke:#1f77b4;" x="99.208912" xlink:href="#m44269b8413" y="197.459413"/>
     <use style="fill:#1f77b4;stroke:#1f77b4;" x="102.455457" xlink:href="#m44269b8413" y="158.835342"/>
     <use style="fill:#1f77b4;stroke:#1f77b4;" x="105.702003" xlink:href="#m44269b8413" y="110.042336"/>
     <use style="fill:#1f77b4;stroke:#1f77b4;" x="108.948548" xlink:href="#m44269b8413" y="47.260518"/>
     <use style="fill:#1f77b4;stroke:#1f77b4;" x="112.195094" xlink:href="#m44269b8413" y="38.11504"/>
     <use style="fill:#1f77b4;stroke:#1f77b4;" x="115.441639" xlink:href="#m44269b8413" y="60.858134"/>
     <use style="fill:#1f77b4;stroke:#1f77b4;" x="118.688185" xlink:href="#m44269b8413" y="91.479809"/>
     <use style="fill:#1f77b4;stroke:#1f77b4;" x="121.93473" xlink:href="#m44269b8413" y="138.299588"/>
     <use style="fill:#1f77b4;stroke:#1f77b4;" x="125.181276" xlink:href="#m44269b8413" y="196.305194"/>
     <use style="fill:#1f77b4;stroke:#1f77b4;" x="128.427821" xlink:href="#m44269b8413" y="219.976795"/>
     <use style="fill:#1f77b4;stroke:#1f77b4;" x="131.674366" xlink:href="#m44269b8413" y="241.642909"/>
     <use style="fill:#1f77b4;stroke:#1f77b4;" x="134.920912" xlink:href="#m44269b8413" y="231.011977"/>
     <use style="fill:#1f77b4;stroke:#1f77b4;" x="138.167457" xlink:href="#m44269b8413" y="227.639108"/>
     <use style="fill:#1f77b4;stroke:#1f77b4;" x="141.414003" xlink:href="#m44269b8413" y="220.794206"/>
     <use style="fill:#1f77b4;stroke:#1f77b4;" x="144.660548" xlink:href="#m44269b8413" y="242.72308"/>
     <use style="fill:#1f77b4;stroke:#1f77b4;" x="147.907094" xlink:href="#m44269b8413" y="250.847466"/>
     <use style="fill:#1f77b4;stroke:#1f77b4;" x="151.153639" xlink:href="#m44269b8413" y="240.340111"/>
     <use style="fill:#1f77b4;stroke:#1f77b4;" x="154.400185" xlink:href="#m44269b8413" y="233.669645"/>
     <use style="fill:#1f77b4;stroke:#1f77b4;" x="157.64673" xlink:href="#m44269b8413" y="249.793451"/>
     <use style="fill:#1f77b4;stroke:#1f77b4;" x="160.893276" xlink:href="#m44269b8413" y="246.066755"/>
     <use style="fill:#1f77b4;stroke:#1f77b4;" x="164.139821" xlink:href="#m44269b8413" y="246.331895"/>
     <use style="fill:#1f77b4;stroke:#1f77b4;" x="167.386366" xlink:href="#m44269b8413" y="240.773002"/>
     <use style="fill:#1f77b4;stroke:#1f77b4;" x="170.632912" xlink:href="#m44269b8413" y="230.590263"/>
     <use style="fill:#1f77b4;stroke:#1f77b4;" x="173.879457" xlink:href="#m44269b8413" y="233.828256"/>
     <use style="fill:#1f77b4;stroke:#1f77b4;" x="177.126003" xlink:href="#m44269b8413" y="225.80787"/>
     <use style="fill:#1f77b4;stroke:#1f77b4;" x="180.372548" xlink:href="#m44269b8413" y="228.974118"/>
     <use style="fill:#1f77b4;stroke:#1f77b4;" x="183.619094" xlink:href="#m44269b8413" y="244.44585"/>
     <use style="fill:#1f77b4;stroke:#1f77b4;" x="186.865639" xlink:href="#m44269b8413" y="265.699145"/>
     <use style="fill:#1f77b4;stroke:#1f77b4;" x="190.112185" xlink:href="#m44269b8413" y="233.255329"/>
     <use style="fill:#1f77b4;stroke:#1f77b4;" x="193.35873" xlink:href="#m44269b8413" y="213.734336"/>
     <use style="fill:#1f77b4;stroke:#1f77b4;" x="196.605276" xlink:href="#m44269b8413" y="187.143784"/>
     <use style="fill:#1f77b4;stroke:#1f77b4;" x="199.851821" xlink:href="#m44269b8413" y="161.934642"/>
     <use style="fill:#1f77b4;stroke:#1f77b4;" x="203.098366" xlink:href="#m44269b8413" y="196.823005"/>
     <use style="fill:#1f77b4;stroke:#1f77b4;" x="206.344912" xlink:href="#m44269b8413" y="188.225879"/>
     <use style="fill:#1f77b4;stroke:#1f77b4;" x="209.591457" xlink:href="#m44269b8413" y="205.121619"/>
     <use style="fill:#1f77b4;stroke:#1f77b4;" x="212.838003" xlink:href="#m44269b8413" y="192.971683"/>
     <use style="fill:#1f77b4;stroke:#1f77b4;" x="216.084548" xlink:href="#m44269b8413" y="207.12476"/>
     <use style="fill:#1f77b4;stroke:#1f77b4;" x="219.331094" xlink:href="#m44269b8413" y="165.725865"/>
     <use style="fill:#1f77b4;stroke:#1f77b4;" x="222.577639" xlink:href="#m44269b8413" y="170.82751"/>
     <use style="fill:#1f77b4;stroke:#1f77b4;" x="225.824185" xlink:href="#m44269b8413" y="182.990161"/>
     <use style="fill:#1f77b4;stroke:#1f77b4;" x="229.07073" xlink:href="#m44269b8413" y="202.880728"/>
     <use style="fill:#1f77b4;stroke:#1f77b4;" x="232.317276" xlink:href="#m44269b8413" y="222.031581"/>
     <use style="fill:#1f77b4;stroke:#1f77b4;" x="235.563821" xlink:href="#m44269b8413" y="229.387107"/>
     <use style="fill:#1f77b4;stroke:#1f77b4;" x="238.810366" xlink:href="#m44269b8413" y="195.352846"/>
     <use style="fill:#1f77b4;stroke:#1f77b4;" x="242.056912" xlink:href="#m44269b8413" y="172.406696"/>
     <use style="fill:#1f77b4;stroke:#1f77b4;" x="245.303457" xlink:href="#m44269b8413" y="163.018911"/>
     <use style="fill:#1f77b4;stroke:#1f77b4;" x="248.550003" xlink:href="#m44269b8413" y="195.568136"/>
     <use style="fill:#1f77b4;stroke:#1f77b4;" x="251.796548" xlink:href="#m44269b8413" y="217.14704"/>
     <use style="fill:#1f77b4;stroke:#1f77b4;" x="255.043094" xlink:href="#m44269b8413" y="228.637232"/>
     <use style="fill:#1f77b4;stroke:#1f77b4;" x="258.289639" xlink:href="#m44269b8413" y="263.989475"/>
     <use style="fill:#1f77b4;stroke:#1f77b4;" x="261.536185" xlink:href="#m44269b8413" y="244.684714"/>
     <use style="fill:#1f77b4;stroke:#1f77b4;" x="264.78273" xlink:href="#m44269b8413" y="237.773495"/>
     <use style="fill:#1f77b4;stroke:#1f77b4;" x="268.029276" xlink:href="#m44269b8413" y="203.596292"/>
     <use style="fill:#1f77b4;stroke:#1f77b4;" x="271.275821" xlink:href="#m44269b8413" y="229.470705"/>
     <use style="fill:#1f77b4;stroke:#1f77b4;" x="274.522366" xlink:href="#m44269b8413" y="239.641416"/>
     <use style="fill:#1f77b4;stroke:#1f77b4;" x="277.768912" xlink:href="#m44269b8413" y="240.124819"/>
     <use style="fill:#1f77b4;stroke:#1f77b4;" x="281.015457" xlink:href="#m44269b8413" y="246.295344"/>
     <use style="fill:#1f77b4;stroke:#1f77b4;" x="284.262003" xlink:href="#m44269b8413" y="248.871904"/>
     <use style="fill:#1f77b4;stroke:#1f77b4;" x="287.508548" xlink:href="#m44269b8413" y="237.773495"/>
     <use style="fill:#1f77b4;stroke:#1f77b4;" x="290.755094" xlink:href="#m44269b8413" y="242.973734"/>
     <use style="fill:#1f77b4;stroke:#1f77b4;" x="294.001639" xlink:href="#m44269b8413" y="249.84883"/>
     <use style="fill:#1f77b4;stroke:#1f77b4;" x="297.248185" xlink:href="#m44269b8413" y="245.717377"/>
     <use style="fill:#1f77b4;stroke:#1f77b4;" x="300.49473" xlink:href="#m44269b8413" y="256.79707"/>
     <use style="fill:#1f77b4;stroke:#1f77b4;" x="303.741276" xlink:href="#m44269b8413" y="239.783288"/>
     <use style="fill:#1f77b4;stroke:#1f77b4;" x="306.987821" xlink:href="#m44269b8413" y="234.925085"/>
     <use style="fill:#1f77b4;stroke:#1f77b4;" x="310.234366" xlink:href="#m44269b8413" y="249.382523"/>
     <use style="fill:#1f77b4;stroke:#1f77b4;" x="313.480912" xlink:href="#m44269b8413" y="236.899499"/>
     <use style="fill:#1f77b4;stroke:#1f77b4;" x="316.727457" xlink:href="#m44269b8413" y="235.043103"/>
     <use style="fill:#1f77b4;stroke:#1f77b4;" x="319.974003" xlink:href="#m44269b8413" y="215.04581"/>
     <use style="fill:#1f77b4;stroke:#1f77b4;" x="323.220548" xlink:href="#m44269b8413" y="205.866867"/>
     <use style="fill:#1f77b4;stroke:#1f77b4;" x="326.467094" xlink:href="#m44269b8413" y="185.937677"/>
     <use style="fill:#1f77b4;stroke:#1f77b4;" x="329.713639" xlink:href="#m44269b8413" y="152.009008"/>
     <use style="fill:#1f77b4;stroke:#1f77b4;" x="332.960185" xlink:href="#m44269b8413" y="196.719789"/>
     <use style="fill:#1f77b4;stroke:#1f77b4;" x="336.20673" xlink:href="#m44269b8413" y="193.294312"/>
     <use style="fill:#1f77b4;stroke:#1f77b4;" x="339.453276" xlink:href="#m44269b8413" y="225.761126"/>
     <use style="fill:#1f77b4;stroke:#1f77b4;" x="342.699821" xlink:href="#m44269b8413" y="239.783288"/>
     <use style="fill:#1f77b4;stroke:#1f77b4;" x="345.946366" xlink:href="#m44269b8413" y="241.521217"/>
     <use style="fill:#1f77b4;stroke:#1f77b4;" x="349.192912" xlink:href="#m44269b8413" y="256.082251"/>
     <use style="fill:#1f77b4;stroke:#1f77b4;" x="352.439457" xlink:href="#m44269b8413" y="260.913997"/>
     <use style="fill:#1f77b4;stroke:#1f77b4;" x="355.686003" xlink:href="#m44269b8413" y="246.852217"/>
     <use style="fill:#1f77b4;stroke:#1f77b4;" x="358.932548" xlink:href="#m44269b8413" y="241.013024"/>
     <use style="fill:#1f77b4;stroke:#1f77b4;" x="362.179094" xlink:href="#m44269b8413" y="259.562428"/>
     <use style="fill:#1f77b4;stroke:#1f77b4;" x="365.425639" xlink:href="#m44269b8413" y="244.684714"/>
     <use style="fill:#1f77b4;stroke:#1f77b4;" x="368.672185" xlink:href="#m44269b8413" y="255.777402"/>
     <use style="fill:#1f77b4;stroke:#1f77b4;" x="371.91873" xlink:href="#m44269b8413" y="258.610269"/>
     <use style="fill:#1f77b4;stroke:#1f77b4;" x="375.165276" xlink:href="#m44269b8413" y="253.432584"/>
     <use style="fill:#1f77b4;stroke:#1f77b4;" x="378.411821" xlink:href="#m44269b8413" y="256.082251"/>
     <use style="fill:#1f77b4;stroke:#1f77b4;" x="381.658366" xlink:href="#m44269b8413" y="263.580245"/>
    </g>
   </g>
   <g id="patch_3">
    <path d="M 40.771094 276.812 
L 40.771094 10.7 
" style="fill:none;stroke:#000000;stroke-linecap:square;stroke-linejoin:miter;stroke-width:0.8;"/>
   </g>
   <g id="patch_4">
    <path d="M 397.891094 276.812 
L 397.891094 10.7 
" style="fill:none;stroke:#000000;stroke-linecap:square;stroke-linejoin:miter;stroke-width:0.8;"/>
   </g>
   <g id="patch_5">
    <path d="M 40.771094 276.812 
L 397.891094 276.812 
" style="fill:none;stroke:#000000;stroke-linecap:square;stroke-linejoin:miter;stroke-width:0.8;"/>
   </g>
   <g id="patch_6">
    <path d="M 40.771094 10.7 
L 397.891094 10.7 
" style="fill:none;stroke:#000000;stroke-linecap:square;stroke-linejoin:miter;stroke-width:0.8;"/>
   </g>
  </g>
 </g>
 <defs>
  <clipPath id="p5ea4b3e655">
   <rect height="266.112" width="357.12" x="40.771094" y="10.7"/>
  </clipPath>
 </defs>
</svg>
