<?xml version="1.0" encoding="utf-8" standalone="no"?>
<!DOCTYPE svg PUBLIC "-//W3C//DTD SVG 1.1//EN"
  "http://www.w3.org/Graphics/SVG/1.1/DTD/svg11.dtd">
<!-- Created with matplotlib (http://matplotlib.org/) -->
<svg height="331pt" version="1.1" viewBox="0 0 442 331" width="442pt" xmlns="http://www.w3.org/2000/svg" xmlns:xlink="http://www.w3.org/1999/xlink">
 <defs>
  <style type="text/css">
*{stroke-linecap:butt;stroke-linejoin:round;}
  </style>
 </defs>
 <g id="figure_1">
  <g id="patch_1">
   <path d="M 0 331.084266 
L 442.384062 331.084266 
L 442.384062 0 
L 0 0 
z
" style="fill:none;"/>
  </g>
  <g id="axes_1">
   <g id="patch_2">
    <path d="M 74.564063 279.010828 
L 431.684062 279.010828 
L 431.684062 12.898828 
L 74.564063 12.898828 
z
" style="fill:none;"/>
   </g>
   <g id="matplotlib.axis_1">
    <g id="xtick_1">
     <g id="line2d_1">
      <path clip-path="url(#pcf8a0a5855)" d="M 90.795298 279.010828 
L 90.795298 12.898828 
" style="fill:none;stroke:#b0b0b0;stroke-linecap:square;stroke-width:0.8;"/>
     </g>
     <g id="line2d_2">
      <defs>
       <path d="M 0 0 
L 0 3.5 
" id="mfba3cecb8d" style="stroke:#000000;stroke-width:0.8;"/>
      </defs>
      <g>
       <use style="stroke:#000000;stroke-width:0.8;" x="90.795298" xlink:href="#mfba3cecb8d" y="279.010828"/>
      </g>
     </g>
     <g id="text_1">
      <!-- 0 -->
      <defs>
       <path d="M 46 36.53125 
Q 46 50.203125 43.4375 55.78125 
Q 40.875 61.375 34.8125 61.375 
Q 28.765625 61.375 26.171875 55.78125 
Q 23.578125 50.203125 23.578125 36.53125 
Q 23.578125 22.703125 26.171875 17.03125 
Q 28.765625 11.375 34.8125 11.375 
Q 40.828125 11.375 43.40625 17.03125 
Q 46 22.703125 46 36.53125 
z
M 64.796875 36.375 
Q 64.796875 18.265625 56.984375 8.421875 
Q 49.171875 -1.421875 34.8125 -1.421875 
Q 20.40625 -1.421875 12.59375 8.421875 
Q 4.78125 18.265625 4.78125 36.375 
Q 4.78125 54.546875 12.59375 64.375 
Q 20.40625 74.21875 34.8125 74.21875 
Q 49.171875 74.21875 56.984375 64.375 
Q 64.796875 54.546875 64.796875 36.375 
z
" id="DejaVuSans-Bold-30"/>
      </defs>
      <g transform="translate(85.576938 297.408484)scale(0.15 -0.15)">
       <use xlink:href="#DejaVuSans-Bold-30"/>
      </g>
     </g>
    </g>
    <g id="xtick_2">
     <g id="line2d_3">
      <path clip-path="url(#pcf8a0a5855)" d="M 165.394228 279.010828 
L 165.394228 12.898828 
" style="fill:none;stroke:#b0b0b0;stroke-linecap:square;stroke-width:0.8;"/>
     </g>
     <g id="line2d_4">
      <g>
       <use style="stroke:#000000;stroke-width:0.8;" x="165.394228" xlink:href="#mfba3cecb8d" y="279.010828"/>
      </g>
     </g>
     <g id="text_2">
      <!-- 50000 -->
      <defs>
       <path d="M 10.59375 72.90625 
L 57.328125 72.90625 
L 57.328125 59.078125 
L 25.59375 59.078125 
L 25.59375 47.796875 
Q 27.734375 48.390625 29.90625 48.703125 
Q 32.078125 49.03125 34.421875 49.03125 
Q 47.75 49.03125 55.171875 42.359375 
Q 62.59375 35.6875 62.59375 23.78125 
Q 62.59375 11.96875 54.515625 5.265625 
Q 46.4375 -1.421875 32.078125 -1.421875 
Q 25.875 -1.421875 19.796875 -0.21875 
Q 13.71875 0.984375 7.71875 3.421875 
L 7.71875 18.21875 
Q 13.671875 14.796875 19.015625 13.078125 
Q 24.359375 11.375 29.109375 11.375 
Q 35.9375 11.375 39.859375 14.71875 
Q 43.796875 18.0625 43.796875 23.78125 
Q 43.796875 29.546875 39.859375 32.859375 
Q 35.9375 36.1875 29.109375 36.1875 
Q 25.046875 36.1875 20.453125 35.125 
Q 15.875 34.078125 10.59375 31.890625 
z
" id="DejaVuSans-Bold-35"/>
      </defs>
      <g transform="translate(139.302431 297.408484)scale(0.15 -0.15)">
       <use xlink:href="#DejaVuSans-Bold-35"/>
       <use x="69.580078" xlink:href="#DejaVuSans-Bold-30"/>
       <use x="139.160156" xlink:href="#DejaVuSans-Bold-30"/>
       <use x="208.740234" xlink:href="#DejaVuSans-Bold-30"/>
       <use x="278.320312" xlink:href="#DejaVuSans-Bold-30"/>
      </g>
     </g>
    </g>
    <g id="xtick_3">
     <g id="line2d_5">
      <path clip-path="url(#pcf8a0a5855)" d="M 239.993159 279.010828 
L 239.993159 12.898828 
" style="fill:none;stroke:#b0b0b0;stroke-linecap:square;stroke-width:0.8;"/>
     </g>
     <g id="line2d_6">
      <g>
       <use style="stroke:#000000;stroke-width:0.8;" x="239.993159" xlink:href="#mfba3cecb8d" y="279.010828"/>
      </g>
     </g>
     <g id="text_3">
      <!-- 100000 -->
      <defs>
       <path d="M 11.71875 12.984375 
L 28.328125 12.984375 
L 28.328125 60.109375 
L 11.28125 56.59375 
L 11.28125 69.390625 
L 28.21875 72.90625 
L 46.09375 72.90625 
L 46.09375 12.984375 
L 62.703125 12.984375 
L 62.703125 0 
L 11.71875 0 
z
" id="DejaVuSans-Bold-31"/>
      </defs>
      <g transform="translate(208.683003 297.408484)scale(0.15 -0.15)">
       <use xlink:href="#DejaVuSans-Bold-31"/>
       <use x="69.580078" xlink:href="#DejaVuSans-Bold-30"/>
       <use x="139.160156" xlink:href="#DejaVuSans-Bold-30"/>
       <use x="208.740234" xlink:href="#DejaVuSans-Bold-30"/>
       <use x="278.320312" xlink:href="#DejaVuSans-Bold-30"/>
       <use x="347.900391" xlink:href="#DejaVuSans-Bold-30"/>
      </g>
     </g>
    </g>
    <g id="xtick_4">
     <g id="line2d_7">
      <path clip-path="url(#pcf8a0a5855)" d="M 314.592089 279.010828 
L 314.592089 12.898828 
" style="fill:none;stroke:#b0b0b0;stroke-linecap:square;stroke-width:0.8;"/>
     </g>
     <g id="line2d_8">
      <g>
       <use style="stroke:#000000;stroke-width:0.8;" x="314.592089" xlink:href="#mfba3cecb8d" y="279.010828"/>
      </g>
     </g>
     <g id="text_4">
      <!-- 150000 -->
      <g transform="translate(283.281933 297.408484)scale(0.15 -0.15)">
       <use xlink:href="#DejaVuSans-Bold-31"/>
       <use x="69.580078" xlink:href="#DejaVuSans-Bold-35"/>
       <use x="139.160156" xlink:href="#DejaVuSans-Bold-30"/>
       <use x="208.740234" xlink:href="#DejaVuSans-Bold-30"/>
       <use x="278.320312" xlink:href="#DejaVuSans-Bold-30"/>
       <use x="347.900391" xlink:href="#DejaVuSans-Bold-30"/>
      </g>
     </g>
    </g>
    <g id="xtick_5">
     <g id="line2d_9">
      <path clip-path="url(#pcf8a0a5855)" d="M 389.19102 279.010828 
L 389.19102 12.898828 
" style="fill:none;stroke:#b0b0b0;stroke-linecap:square;stroke-width:0.8;"/>
     </g>
     <g id="line2d_10">
      <g>
       <use style="stroke:#000000;stroke-width:0.8;" x="389.19102" xlink:href="#mfba3cecb8d" y="279.010828"/>
      </g>
     </g>
     <g id="text_5">
      <!-- 200000 -->
      <defs>
       <path d="M 28.8125 13.8125 
L 60.890625 13.8125 
L 60.890625 0 
L 7.90625 0 
L 7.90625 13.8125 
L 34.515625 37.3125 
Q 38.09375 40.53125 39.796875 43.609375 
Q 41.5 46.6875 41.5 50 
Q 41.5 55.125 38.0625 58.25 
Q 34.625 61.375 28.90625 61.375 
Q 24.515625 61.375 19.28125 59.5 
Q 14.0625 57.625 8.109375 53.90625 
L 8.109375 69.921875 
Q 14.453125 72.015625 20.65625 73.109375 
Q 26.859375 74.21875 32.8125 74.21875 
Q 45.90625 74.21875 53.15625 68.453125 
Q 60.40625 62.703125 60.40625 52.390625 
Q 60.40625 46.4375 57.328125 41.28125 
Q 54.25 36.140625 44.390625 27.484375 
z
" id="DejaVuSans-Bold-32"/>
      </defs>
      <g transform="translate(357.880863 297.408484)scale(0.15 -0.15)">
       <use xlink:href="#DejaVuSans-Bold-32"/>
       <use x="69.580078" xlink:href="#DejaVuSans-Bold-30"/>
       <use x="139.160156" xlink:href="#DejaVuSans-Bold-30"/>
       <use x="208.740234" xlink:href="#DejaVuSans-Bold-30"/>
       <use x="278.320312" xlink:href="#DejaVuSans-Bold-30"/>
       <use x="347.900391" xlink:href="#DejaVuSans-Bold-30"/>
      </g>
     </g>
    </g>
    <g id="text_6">
     <!-- Initial sequence index -->
     <defs>
      <path d="M 9.8125 72.90625 
L 19.671875 72.90625 
L 19.671875 0 
L 9.8125 0 
z
" id="DejaVuSans-49"/>
      <path d="M 54.890625 33.015625 
L 54.890625 0 
L 45.90625 0 
L 45.90625 32.71875 
Q 45.90625 40.484375 42.875 44.328125 
Q 39.84375 48.1875 33.796875 48.1875 
Q 26.515625 48.1875 22.3125 43.546875 
Q 18.109375 38.921875 18.109375 30.90625 
L 18.109375 0 
L 9.078125 0 
L 9.078125 54.6875 
L 18.109375 54.6875 
L 18.109375 46.1875 
Q 21.34375 51.125 25.703125 53.5625 
Q 30.078125 56 35.796875 56 
Q 45.21875 56 50.046875 50.171875 
Q 54.890625 44.34375 54.890625 33.015625 
z
" id="DejaVuSans-6e"/>
      <path d="M 9.421875 54.6875 
L 18.40625 54.6875 
L 18.40625 0 
L 9.421875 0 
z
M 9.421875 75.984375 
L 18.40625 75.984375 
L 18.40625 64.59375 
L 9.421875 64.59375 
z
" id="DejaVuSans-69"/>
      <path d="M 18.3125 70.21875 
L 18.3125 54.6875 
L 36.8125 54.6875 
L 36.8125 47.703125 
L 18.3125 47.703125 
L 18.3125 18.015625 
Q 18.3125 11.328125 20.140625 9.421875 
Q 21.96875 7.515625 27.59375 7.515625 
L 36.8125 7.515625 
L 36.8125 0 
L 27.59375 0 
Q 17.1875 0 13.234375 3.875 
Q 9.28125 7.765625 9.28125 18.015625 
L 9.28125 47.703125 
L 2.6875 47.703125 
L 2.6875 54.6875 
L 9.28125 54.6875 
L 9.28125 70.21875 
z
" id="DejaVuSans-74"/>
      <path d="M 34.28125 27.484375 
Q 23.390625 27.484375 19.1875 25 
Q 14.984375 22.515625 14.984375 16.5 
Q 14.984375 11.71875 18.140625 8.90625 
Q 21.296875 6.109375 26.703125 6.109375 
Q 34.1875 6.109375 38.703125 11.40625 
Q 43.21875 16.703125 43.21875 25.484375 
L 43.21875 27.484375 
z
M 52.203125 31.203125 
L 52.203125 0 
L 43.21875 0 
L 43.21875 8.296875 
Q 40.140625 3.328125 35.546875 0.953125 
Q 30.953125 -1.421875 24.3125 -1.421875 
Q 15.921875 -1.421875 10.953125 3.296875 
Q 6 8.015625 6 15.921875 
Q 6 25.140625 12.171875 29.828125 
Q 18.359375 34.515625 30.609375 34.515625 
L 43.21875 34.515625 
L 43.21875 35.40625 
Q 43.21875 41.609375 39.140625 45 
Q 35.0625 48.390625 27.6875 48.390625 
Q 23 48.390625 18.546875 47.265625 
Q 14.109375 46.140625 10.015625 43.890625 
L 10.015625 52.203125 
Q 14.9375 54.109375 19.578125 55.046875 
Q 24.21875 56 28.609375 56 
Q 40.484375 56 46.34375 49.84375 
Q 52.203125 43.703125 52.203125 31.203125 
z
" id="DejaVuSans-61"/>
      <path d="M 9.421875 75.984375 
L 18.40625 75.984375 
L 18.40625 0 
L 9.421875 0 
z
" id="DejaVuSans-6c"/>
      <path id="DejaVuSans-20"/>
      <path d="M 44.28125 53.078125 
L 44.28125 44.578125 
Q 40.484375 46.53125 36.375 47.5 
Q 32.28125 48.484375 27.875 48.484375 
Q 21.1875 48.484375 17.84375 46.4375 
Q 14.5 44.390625 14.5 40.28125 
Q 14.5 37.15625 16.890625 35.375 
Q 19.28125 33.59375 26.515625 31.984375 
L 29.59375 31.296875 
Q 39.15625 29.25 43.1875 25.515625 
Q 47.21875 21.78125 47.21875 15.09375 
Q 47.21875 7.46875 41.1875 3.015625 
Q 35.15625 -1.421875 24.609375 -1.421875 
Q 20.21875 -1.421875 15.453125 -0.5625 
Q 10.6875 0.296875 5.421875 2 
L 5.421875 11.28125 
Q 10.40625 8.6875 15.234375 7.390625 
Q 20.0625 6.109375 24.8125 6.109375 
Q 31.15625 6.109375 34.5625 8.28125 
Q 37.984375 10.453125 37.984375 14.40625 
Q 37.984375 18.0625 35.515625 20.015625 
Q 33.0625 21.96875 24.703125 23.78125 
L 21.578125 24.515625 
Q 13.234375 26.265625 9.515625 29.90625 
Q 5.8125 33.546875 5.8125 39.890625 
Q 5.8125 47.609375 11.28125 51.796875 
Q 16.75 56 26.8125 56 
Q 31.78125 56 36.171875 55.265625 
Q 40.578125 54.546875 44.28125 53.078125 
z
" id="DejaVuSans-73"/>
      <path d="M 56.203125 29.59375 
L 56.203125 25.203125 
L 14.890625 25.203125 
Q 15.484375 15.921875 20.484375 11.0625 
Q 25.484375 6.203125 34.421875 6.203125 
Q 39.59375 6.203125 44.453125 7.46875 
Q 49.3125 8.734375 54.109375 11.28125 
L 54.109375 2.78125 
Q 49.265625 0.734375 44.1875 -0.34375 
Q 39.109375 -1.421875 33.890625 -1.421875 
Q 20.796875 -1.421875 13.15625 6.1875 
Q 5.515625 13.8125 5.515625 26.8125 
Q 5.515625 40.234375 12.765625 48.109375 
Q 20.015625 56 32.328125 56 
Q 43.359375 56 49.78125 48.890625 
Q 56.203125 41.796875 56.203125 29.59375 
z
M 47.21875 32.234375 
Q 47.125 39.59375 43.09375 43.984375 
Q 39.0625 48.390625 32.421875 48.390625 
Q 24.90625 48.390625 20.390625 44.140625 
Q 15.875 39.890625 15.1875 32.171875 
z
" id="DejaVuSans-65"/>
      <path d="M 14.796875 27.296875 
Q 14.796875 17.390625 18.875 11.75 
Q 22.953125 6.109375 30.078125 6.109375 
Q 37.203125 6.109375 41.296875 11.75 
Q 45.40625 17.390625 45.40625 27.296875 
Q 45.40625 37.203125 41.296875 42.84375 
Q 37.203125 48.484375 30.078125 48.484375 
Q 22.953125 48.484375 18.875 42.84375 
Q 14.796875 37.203125 14.796875 27.296875 
z
M 45.40625 8.203125 
Q 42.578125 3.328125 38.25 0.953125 
Q 33.9375 -1.421875 27.875 -1.421875 
Q 17.96875 -1.421875 11.734375 6.484375 
Q 5.515625 14.40625 5.515625 27.296875 
Q 5.515625 40.1875 11.734375 48.09375 
Q 17.96875 56 27.875 56 
Q 33.9375 56 38.25 53.625 
Q 42.578125 51.265625 45.40625 46.390625 
L 45.40625 54.6875 
L 54.390625 54.6875 
L 54.390625 -20.796875 
L 45.40625 -20.796875 
z
" id="DejaVuSans-71"/>
      <path d="M 8.5 21.578125 
L 8.5 54.6875 
L 17.484375 54.6875 
L 17.484375 21.921875 
Q 17.484375 14.15625 20.5 10.265625 
Q 23.53125 6.390625 29.59375 6.390625 
Q 36.859375 6.390625 41.078125 11.03125 
Q 45.3125 15.671875 45.3125 23.6875 
L 45.3125 54.6875 
L 54.296875 54.6875 
L 54.296875 0 
L 45.3125 0 
L 45.3125 8.40625 
Q 42.046875 3.421875 37.71875 1 
Q 33.40625 -1.421875 27.6875 -1.421875 
Q 18.265625 -1.421875 13.375 4.4375 
Q 8.5 10.296875 8.5 21.578125 
z
M 31.109375 56 
z
" id="DejaVuSans-75"/>
      <path d="M 48.78125 52.59375 
L 48.78125 44.1875 
Q 44.96875 46.296875 41.140625 47.34375 
Q 37.3125 48.390625 33.40625 48.390625 
Q 24.65625 48.390625 19.8125 42.84375 
Q 14.984375 37.3125 14.984375 27.296875 
Q 14.984375 17.28125 19.8125 11.734375 
Q 24.65625 6.203125 33.40625 6.203125 
Q 37.3125 6.203125 41.140625 7.25 
Q 44.96875 8.296875 48.78125 10.40625 
L 48.78125 2.09375 
Q 45.015625 0.34375 40.984375 -0.53125 
Q 36.96875 -1.421875 32.421875 -1.421875 
Q 20.0625 -1.421875 12.78125 6.34375 
Q 5.515625 14.109375 5.515625 27.296875 
Q 5.515625 40.671875 12.859375 48.328125 
Q 20.21875 56 33.015625 56 
Q 37.15625 56 41.109375 55.140625 
Q 45.0625 54.296875 48.78125 52.59375 
z
" id="DejaVuSans-63"/>
      <path d="M 45.40625 46.390625 
L 45.40625 75.984375 
L 54.390625 75.984375 
L 54.390625 0 
L 45.40625 0 
L 45.40625 8.203125 
Q 42.578125 3.328125 38.25 0.953125 
Q 33.9375 -1.421875 27.875 -1.421875 
Q 17.96875 -1.421875 11.734375 6.484375 
Q 5.515625 14.40625 5.515625 27.296875 
Q 5.515625 40.1875 11.734375 48.09375 
Q 17.96875 56 27.875 56 
Q 33.9375 56 38.25 53.625 
Q 42.578125 51.265625 45.40625 46.390625 
z
M 14.796875 27.296875 
Q 14.796875 17.390625 18.875 11.75 
Q 22.953125 6.109375 30.078125 6.109375 
Q 37.203125 6.109375 41.296875 11.75 
Q 45.40625 17.390625 45.40625 27.296875 
Q 45.40625 37.203125 41.296875 42.84375 
Q 37.203125 48.484375 30.078125 48.484375 
Q 22.953125 48.484375 18.875 42.84375 
Q 14.796875 37.203125 14.796875 27.296875 
z
" id="DejaVuSans-64"/>
      <path d="M 54.890625 54.6875 
L 35.109375 28.078125 
L 55.90625 0 
L 45.3125 0 
L 29.390625 21.484375 
L 13.484375 0 
L 2.875 0 
L 24.125 28.609375 
L 4.6875 54.6875 
L 15.28125 54.6875 
L 29.78125 35.203125 
L 44.28125 54.6875 
z
" id="DejaVuSans-78"/>
     </defs>
     <g transform="translate(143.3725 319.724891)scale(0.2 -0.2)">
      <use xlink:href="#DejaVuSans-49"/>
      <use x="29.492188" xlink:href="#DejaVuSans-6e"/>
      <use x="92.871094" xlink:href="#DejaVuSans-69"/>
      <use x="120.654297" xlink:href="#DejaVuSans-74"/>
      <use x="159.863281" xlink:href="#DejaVuSans-69"/>
      <use x="187.646484" xlink:href="#DejaVuSans-61"/>
      <use x="248.925781" xlink:href="#DejaVuSans-6c"/>
      <use x="276.708984" xlink:href="#DejaVuSans-20"/>
      <use x="308.496094" xlink:href="#DejaVuSans-73"/>
      <use x="360.595703" xlink:href="#DejaVuSans-65"/>
      <use x="422.119141" xlink:href="#DejaVuSans-71"/>
      <use x="485.595703" xlink:href="#DejaVuSans-75"/>
      <use x="548.974609" xlink:href="#DejaVuSans-65"/>
      <use x="610.498047" xlink:href="#DejaVuSans-6e"/>
      <use x="673.876953" xlink:href="#DejaVuSans-63"/>
      <use x="728.857422" xlink:href="#DejaVuSans-65"/>
      <use x="790.380859" xlink:href="#DejaVuSans-20"/>
      <use x="822.167969" xlink:href="#DejaVuSans-69"/>
      <use x="849.951172" xlink:href="#DejaVuSans-6e"/>
      <use x="913.330078" xlink:href="#DejaVuSans-64"/>
      <use x="976.806641" xlink:href="#DejaVuSans-65"/>
      <use x="1038.314453" xlink:href="#DejaVuSans-78"/>
     </g>
    </g>
   </g>
   <g id="matplotlib.axis_2">
    <g id="ytick_1">
     <g id="line2d_11">
      <path clip-path="url(#pcf8a0a5855)" d="M 74.564063 279.010828 
L 431.684062 279.010828 
" style="fill:none;stroke:#b0b0b0;stroke-linecap:square;stroke-width:0.8;"/>
     </g>
     <g id="line2d_12">
      <defs>
       <path d="M 0 0 
L -3.5 0 
" id="ma75b24b065" style="stroke:#000000;stroke-width:0.8;"/>
      </defs>
      <g>
       <use style="stroke:#000000;stroke-width:0.8;" x="74.564063" xlink:href="#ma75b24b065" y="279.010828"/>
      </g>
     </g>
     <g id="text_7">
      <!-- 0.60 -->
      <defs>
       <path d="M 10.203125 18.890625 
L 27.78125 18.890625 
L 27.78125 0 
L 10.203125 0 
z
" id="DejaVuSans-Bold-2e"/>
       <path d="M 36.1875 35.984375 
Q 31.25 35.984375 28.78125 32.78125 
Q 26.3125 29.59375 26.3125 23.1875 
Q 26.3125 16.796875 28.78125 13.59375 
Q 31.25 10.40625 36.1875 10.40625 
Q 41.15625 10.40625 43.625 13.59375 
Q 46.09375 16.796875 46.09375 23.1875 
Q 46.09375 29.59375 43.625 32.78125 
Q 41.15625 35.984375 36.1875 35.984375 
z
M 59.421875 71 
L 59.421875 57.515625 
Q 54.78125 59.71875 50.671875 60.765625 
Q 46.578125 61.8125 42.671875 61.8125 
Q 34.28125 61.8125 29.59375 57.140625 
Q 24.90625 52.484375 24.125 43.3125 
Q 27.34375 45.703125 31.09375 46.890625 
Q 34.859375 48.09375 39.3125 48.09375 
Q 50.484375 48.09375 57.34375 41.546875 
Q 64.203125 35.015625 64.203125 24.421875 
Q 64.203125 12.703125 56.53125 5.640625 
Q 48.875 -1.421875 35.984375 -1.421875 
Q 21.78125 -1.421875 13.984375 8.171875 
Q 6.203125 17.78125 6.203125 35.40625 
Q 6.203125 53.46875 15.3125 63.796875 
Q 24.421875 74.125 40.28125 74.125 
Q 45.3125 74.125 50.046875 73.34375 
Q 54.78125 72.5625 59.421875 71 
z
" id="DejaVuSans-Bold-36"/>
      </defs>
      <g transform="translate(30.55625 284.709656)scale(0.15 -0.15)">
       <use xlink:href="#DejaVuSans-Bold-30"/>
       <use x="69.580078" xlink:href="#DejaVuSans-Bold-2e"/>
       <use x="107.568359" xlink:href="#DejaVuSans-Bold-36"/>
       <use x="177.148438" xlink:href="#DejaVuSans-Bold-30"/>
      </g>
     </g>
    </g>
    <g id="ytick_2">
     <g id="line2d_13">
      <path clip-path="url(#pcf8a0a5855)" d="M 74.564063 245.746828 
L 431.684062 245.746828 
" style="fill:none;stroke:#b0b0b0;stroke-linecap:square;stroke-width:0.8;"/>
     </g>
     <g id="line2d_14">
      <g>
       <use style="stroke:#000000;stroke-width:0.8;" x="74.564063" xlink:href="#ma75b24b065" y="245.746828"/>
      </g>
     </g>
     <g id="text_8">
      <!-- 0.65 -->
      <g transform="translate(30.55625 251.445656)scale(0.15 -0.15)">
       <use xlink:href="#DejaVuSans-Bold-30"/>
       <use x="69.580078" xlink:href="#DejaVuSans-Bold-2e"/>
       <use x="107.568359" xlink:href="#DejaVuSans-Bold-36"/>
       <use x="177.148438" xlink:href="#DejaVuSans-Bold-35"/>
      </g>
     </g>
    </g>
    <g id="ytick_3">
     <g id="line2d_15">
      <path clip-path="url(#pcf8a0a5855)" d="M 74.564063 212.482828 
L 431.684062 212.482828 
" style="fill:none;stroke:#b0b0b0;stroke-linecap:square;stroke-width:0.8;"/>
     </g>
     <g id="line2d_16">
      <g>
       <use style="stroke:#000000;stroke-width:0.8;" x="74.564063" xlink:href="#ma75b24b065" y="212.482828"/>
      </g>
     </g>
     <g id="text_9">
      <!-- 0.70 -->
      <defs>
       <path d="M 6.6875 72.90625 
L 61.625 72.90625 
L 61.625 62.3125 
L 33.203125 0 
L 14.890625 0 
L 41.796875 59.078125 
L 6.6875 59.078125 
z
" id="DejaVuSans-Bold-37"/>
      </defs>
      <g transform="translate(30.55625 218.181656)scale(0.15 -0.15)">
       <use xlink:href="#DejaVuSans-Bold-30"/>
       <use x="69.580078" xlink:href="#DejaVuSans-Bold-2e"/>
       <use x="107.568359" xlink:href="#DejaVuSans-Bold-37"/>
       <use x="177.148438" xlink:href="#DejaVuSans-Bold-30"/>
      </g>
     </g>
    </g>
    <g id="ytick_4">
     <g id="line2d_17">
      <path clip-path="url(#pcf8a0a5855)" d="M 74.564063 179.218828 
L 431.684062 179.218828 
" style="fill:none;stroke:#b0b0b0;stroke-linecap:square;stroke-width:0.8;"/>
     </g>
     <g id="line2d_18">
      <g>
       <use style="stroke:#000000;stroke-width:0.8;" x="74.564063" xlink:href="#ma75b24b065" y="179.218828"/>
      </g>
     </g>
     <g id="text_10">
      <!-- 0.75 -->
      <g transform="translate(30.55625 184.917656)scale(0.15 -0.15)">
       <use xlink:href="#DejaVuSans-Bold-30"/>
       <use x="69.580078" xlink:href="#DejaVuSans-Bold-2e"/>
       <use x="107.568359" xlink:href="#DejaVuSans-Bold-37"/>
       <use x="177.148438" xlink:href="#DejaVuSans-Bold-35"/>
      </g>
     </g>
    </g>
    <g id="ytick_5">
     <g id="line2d_19">
      <path clip-path="url(#pcf8a0a5855)" d="M 74.564063 145.954828 
L 431.684062 145.954828 
" style="fill:none;stroke:#b0b0b0;stroke-linecap:square;stroke-width:0.8;"/>
     </g>
     <g id="line2d_20">
      <g>
       <use style="stroke:#000000;stroke-width:0.8;" x="74.564063" xlink:href="#ma75b24b065" y="145.954828"/>
      </g>
     </g>
     <g id="text_11">
      <!-- 0.80 -->
      <defs>
       <path d="M 34.8125 32.625 
Q 29.546875 32.625 26.703125 29.734375 
Q 23.875 26.859375 23.875 21.484375 
Q 23.875 16.109375 26.703125 13.25 
Q 29.546875 10.40625 34.8125 10.40625 
Q 40.046875 10.40625 42.828125 13.25 
Q 45.609375 16.109375 45.609375 21.484375 
Q 45.609375 26.90625 42.828125 29.765625 
Q 40.046875 32.625 34.8125 32.625 
z
M 21.09375 38.8125 
Q 14.453125 40.828125 11.078125 44.96875 
Q 7.71875 49.125 7.71875 55.328125 
Q 7.71875 64.546875 14.59375 69.375 
Q 21.484375 74.21875 34.8125 74.21875 
Q 48.046875 74.21875 54.921875 69.40625 
Q 61.8125 64.59375 61.8125 55.328125 
Q 61.8125 49.125 58.421875 44.96875 
Q 55.03125 40.828125 48.390625 38.8125 
Q 55.8125 36.765625 59.59375 32.15625 
Q 63.375 27.546875 63.375 20.515625 
Q 63.375 9.671875 56.171875 4.125 
Q 48.96875 -1.421875 34.8125 -1.421875 
Q 20.609375 -1.421875 13.359375 4.125 
Q 6.109375 9.671875 6.109375 20.515625 
Q 6.109375 27.546875 9.890625 32.15625 
Q 13.671875 36.765625 21.09375 38.8125 
z
M 25.484375 53.421875 
Q 25.484375 49.078125 27.90625 46.734375 
Q 30.328125 44.390625 34.8125 44.390625 
Q 39.203125 44.390625 41.59375 46.734375 
Q 44 49.078125 44 53.421875 
Q 44 57.765625 41.59375 60.078125 
Q 39.203125 62.40625 34.8125 62.40625 
Q 30.328125 62.40625 27.90625 60.0625 
Q 25.484375 57.71875 25.484375 53.421875 
z
" id="DejaVuSans-Bold-38"/>
      </defs>
      <g transform="translate(30.55625 151.653656)scale(0.15 -0.15)">
       <use xlink:href="#DejaVuSans-Bold-30"/>
       <use x="69.580078" xlink:href="#DejaVuSans-Bold-2e"/>
       <use x="107.568359" xlink:href="#DejaVuSans-Bold-38"/>
       <use x="177.148438" xlink:href="#DejaVuSans-Bold-30"/>
      </g>
     </g>
    </g>
    <g id="ytick_6">
     <g id="line2d_21">
      <path clip-path="url(#pcf8a0a5855)" d="M 74.564063 112.690828 
L 431.684062 112.690828 
" style="fill:none;stroke:#b0b0b0;stroke-linecap:square;stroke-width:0.8;"/>
     </g>
     <g id="line2d_22">
      <g>
       <use style="stroke:#000000;stroke-width:0.8;" x="74.564063" xlink:href="#ma75b24b065" y="112.690828"/>
      </g>
     </g>
     <g id="text_12">
      <!-- 0.85 -->
      <g transform="translate(30.55625 118.389656)scale(0.15 -0.15)">
       <use xlink:href="#DejaVuSans-Bold-30"/>
       <use x="69.580078" xlink:href="#DejaVuSans-Bold-2e"/>
       <use x="107.568359" xlink:href="#DejaVuSans-Bold-38"/>
       <use x="177.148438" xlink:href="#DejaVuSans-Bold-35"/>
      </g>
     </g>
    </g>
    <g id="ytick_7">
     <g id="line2d_23">
      <path clip-path="url(#pcf8a0a5855)" d="M 74.564063 79.426828 
L 431.684062 79.426828 
" style="fill:none;stroke:#b0b0b0;stroke-linecap:square;stroke-width:0.8;"/>
     </g>
     <g id="line2d_24">
      <g>
       <use style="stroke:#000000;stroke-width:0.8;" x="74.564063" xlink:href="#ma75b24b065" y="79.426828"/>
      </g>
     </g>
     <g id="text_13">
      <!-- 0.90 -->
      <defs>
       <path d="M 10.015625 1.609375 
L 10.015625 15.09375 
Q 14.5 12.984375 18.59375 11.9375 
Q 22.703125 10.890625 26.703125 10.890625 
Q 35.109375 10.890625 39.796875 15.546875 
Q 44.484375 20.21875 45.3125 29.390625 
Q 42 26.953125 38.234375 25.734375 
Q 34.46875 24.515625 30.078125 24.515625 
Q 18.890625 24.515625 12.03125 31.03125 
Q 5.171875 37.546875 5.171875 48.1875 
Q 5.171875 59.96875 12.8125 67.046875 
Q 20.453125 74.125 33.296875 74.125 
Q 47.5625 74.125 55.375 64.5 
Q 63.1875 54.890625 63.1875 37.3125 
Q 63.1875 19.234375 54.046875 8.90625 
Q 44.921875 -1.421875 29 -1.421875 
Q 23.875 -1.421875 19.1875 -0.65625 
Q 14.5 0.09375 10.015625 1.609375 
z
M 33.203125 36.71875 
Q 38.140625 36.71875 40.625 39.90625 
Q 43.109375 43.109375 43.109375 49.515625 
Q 43.109375 55.859375 40.625 59.078125 
Q 38.140625 62.3125 33.203125 62.3125 
Q 28.265625 62.3125 25.78125 59.078125 
Q 23.296875 55.859375 23.296875 49.515625 
Q 23.296875 43.109375 25.78125 39.90625 
Q 28.265625 36.71875 33.203125 36.71875 
z
" id="DejaVuSans-Bold-39"/>
      </defs>
      <g transform="translate(30.55625 85.125656)scale(0.15 -0.15)">
       <use xlink:href="#DejaVuSans-Bold-30"/>
       <use x="69.580078" xlink:href="#DejaVuSans-Bold-2e"/>
       <use x="107.568359" xlink:href="#DejaVuSans-Bold-39"/>
       <use x="177.148438" xlink:href="#DejaVuSans-Bold-30"/>
      </g>
     </g>
    </g>
    <g id="ytick_8">
     <g id="line2d_25">
      <path clip-path="url(#pcf8a0a5855)" d="M 74.564063 46.162828 
L 431.684062 46.162828 
" style="fill:none;stroke:#b0b0b0;stroke-linecap:square;stroke-width:0.8;"/>
     </g>
     <g id="line2d_26">
      <g>
       <use style="stroke:#000000;stroke-width:0.8;" x="74.564063" xlink:href="#ma75b24b065" y="46.162828"/>
      </g>
     </g>
     <g id="text_14">
      <!-- 0.95 -->
      <g transform="translate(30.55625 51.861656)scale(0.15 -0.15)">
       <use xlink:href="#DejaVuSans-Bold-30"/>
       <use x="69.580078" xlink:href="#DejaVuSans-Bold-2e"/>
       <use x="107.568359" xlink:href="#DejaVuSans-Bold-39"/>
       <use x="177.148438" xlink:href="#DejaVuSans-Bold-35"/>
      </g>
     </g>
    </g>
    <g id="ytick_9">
     <g id="line2d_27">
      <path clip-path="url(#pcf8a0a5855)" d="M 74.564063 12.898828 
L 431.684062 12.898828 
" style="fill:none;stroke:#b0b0b0;stroke-linecap:square;stroke-width:0.8;"/>
     </g>
     <g id="line2d_28">
      <g>
       <use style="stroke:#000000;stroke-width:0.8;" x="74.564063" xlink:href="#ma75b24b065" y="12.898828"/>
      </g>
     </g>
     <g id="text_15">
      <!-- 1.00 -->
      <g transform="translate(30.55625 18.597656)scale(0.15 -0.15)">
       <use xlink:href="#DejaVuSans-Bold-31"/>
       <use x="69.580078" xlink:href="#DejaVuSans-Bold-2e"/>
       <use x="107.568359" xlink:href="#DejaVuSans-Bold-30"/>
       <use x="177.148438" xlink:href="#DejaVuSans-Bold-30"/>
      </g>
     </g>
    </g>
    <g id="text_16">
     <!-- Total survival -->
     <defs>
      <path d="M -0.296875 72.90625 
L 61.375 72.90625 
L 61.375 64.59375 
L 35.5 64.59375 
L 35.5 0 
L 25.59375 0 
L 25.59375 64.59375 
L -0.296875 64.59375 
z
" id="DejaVuSans-54"/>
      <path d="M 30.609375 48.390625 
Q 23.390625 48.390625 19.1875 42.75 
Q 14.984375 37.109375 14.984375 27.296875 
Q 14.984375 17.484375 19.15625 11.84375 
Q 23.34375 6.203125 30.609375 6.203125 
Q 37.796875 6.203125 41.984375 11.859375 
Q 46.1875 17.53125 46.1875 27.296875 
Q 46.1875 37.015625 41.984375 42.703125 
Q 37.796875 48.390625 30.609375 48.390625 
z
M 30.609375 56 
Q 42.328125 56 49.015625 48.375 
Q 55.71875 40.765625 55.71875 27.296875 
Q 55.71875 13.875 49.015625 6.21875 
Q 42.328125 -1.421875 30.609375 -1.421875 
Q 18.84375 -1.421875 12.171875 6.21875 
Q 5.515625 13.875 5.515625 27.296875 
Q 5.515625 40.765625 12.171875 48.375 
Q 18.84375 56 30.609375 56 
z
" id="DejaVuSans-6f"/>
      <path d="M 41.109375 46.296875 
Q 39.59375 47.171875 37.8125 47.578125 
Q 36.03125 48 33.890625 48 
Q 26.265625 48 22.1875 43.046875 
Q 18.109375 38.09375 18.109375 28.8125 
L 18.109375 0 
L 9.078125 0 
L 9.078125 54.6875 
L 18.109375 54.6875 
L 18.109375 46.1875 
Q 20.953125 51.171875 25.484375 53.578125 
Q 30.03125 56 36.53125 56 
Q 37.453125 56 38.578125 55.875 
Q 39.703125 55.765625 41.0625 55.515625 
z
" id="DejaVuSans-72"/>
      <path d="M 2.984375 54.6875 
L 12.5 54.6875 
L 29.59375 8.796875 
L 46.6875 54.6875 
L 56.203125 54.6875 
L 35.6875 0 
L 23.484375 0 
z
" id="DejaVuSans-76"/>
     </defs>
     <g transform="translate(22.396875 213.339203)rotate(-90)scale(0.2 -0.2)">
      <use xlink:href="#DejaVuSans-54"/>
      <use x="60.818359" xlink:href="#DejaVuSans-6f"/>
      <use x="122" xlink:href="#DejaVuSans-74"/>
      <use x="161.208984" xlink:href="#DejaVuSans-61"/>
      <use x="222.488281" xlink:href="#DejaVuSans-6c"/>
      <use x="250.271484" xlink:href="#DejaVuSans-20"/>
      <use x="282.058594" xlink:href="#DejaVuSans-73"/>
      <use x="334.158203" xlink:href="#DejaVuSans-75"/>
      <use x="397.537109" xlink:href="#DejaVuSans-72"/>
      <use x="438.650391" xlink:href="#DejaVuSans-76"/>
      <use x="497.830078" xlink:href="#DejaVuSans-69"/>
      <use x="525.613281" xlink:href="#DejaVuSans-76"/>
      <use x="584.792969" xlink:href="#DejaVuSans-61"/>
      <use x="646.072266" xlink:href="#DejaVuSans-6c"/>
     </g>
    </g>
   </g>
   <g id="LineCollection_1">
    <path clip-path="url(#pcf8a0a5855)" d="M 90.79679 100.142349 
L 90.79679 62.275308 
" style="fill:none;stroke:#1f77b4;stroke-width:1.5;"/>
    <path clip-path="url(#pcf8a0a5855)" d="M 109.894116 93.431148 
L 109.894116 57.106508 
" style="fill:none;stroke:#1f77b4;stroke-width:1.5;"/>
    <path clip-path="url(#pcf8a0a5855)" d="M 128.991442 61.928171 
L 128.991442 33.565485 
" style="fill:none;stroke:#1f77b4;stroke-width:1.5;"/>
    <path clip-path="url(#pcf8a0a5855)" d="M 148.088768 106.80718 
L 148.088768 67.490477 
" style="fill:none;stroke:#1f77b4;stroke-width:1.5;"/>
    <path clip-path="url(#pcf8a0a5855)" d="M 167.186095 63.716786 
L 167.186095 36.000871 
" style="fill:none;stroke:#1f77b4;stroke-width:1.5;"/>
    <path clip-path="url(#pcf8a0a5855)" d="M 186.283421 102.094968 
L 186.283421 62.028233 
" style="fill:none;stroke:#1f77b4;stroke-width:1.5;"/>
    <path clip-path="url(#pcf8a0a5855)" d="M 205.380747 79.843189 
L 205.380747 46.934467 
" style="fill:none;stroke:#1f77b4;stroke-width:1.5;"/>
    <path clip-path="url(#pcf8a0a5855)" d="M 224.478073 75.418971 
L 224.478073 44.626685 
" style="fill:none;stroke:#1f77b4;stroke-width:1.5;"/>
    <path clip-path="url(#pcf8a0a5855)" d="M 243.575399 95.837442 
L 243.575399 60.920844 
" style="fill:none;stroke:#1f77b4;stroke-width:1.5;"/>
    <path clip-path="url(#pcf8a0a5855)" d="M 262.672726 156.26001 
L 262.672726 107.57361 
" style="fill:none;stroke:#1f77b4;stroke-width:1.5;"/>
    <path clip-path="url(#pcf8a0a5855)" d="M 281.770052 137.394173 
L 281.770052 92.656115 
" style="fill:none;stroke:#1f77b4;stroke-width:1.5;"/>
    <path clip-path="url(#pcf8a0a5855)" d="M 300.867378 86.8964 
L 300.867378 53.416666 
" style="fill:none;stroke:#1f77b4;stroke-width:1.5;"/>
    <path clip-path="url(#pcf8a0a5855)" d="M 319.964704 95.755609 
L 319.964704 59.715267 
" style="fill:none;stroke:#1f77b4;stroke-width:1.5;"/>
    <path clip-path="url(#pcf8a0a5855)" d="M 339.06203 73.484573 
L 339.06203 42.215786 
" style="fill:none;stroke:#1f77b4;stroke-width:1.5;"/>
    <path clip-path="url(#pcf8a0a5855)" d="M 358.159357 94.148636 
L 358.159357 57.512804 
" style="fill:none;stroke:#1f77b4;stroke-width:1.5;"/>
    <path clip-path="url(#pcf8a0a5855)" d="M 377.256683 93.723533 
L 377.256683 58.532305 
" style="fill:none;stroke:#1f77b4;stroke-width:1.5;"/>
    <path clip-path="url(#pcf8a0a5855)" d="M 396.354009 60.141063 
L 396.354009 32.794942 
" style="fill:none;stroke:#1f77b4;stroke-width:1.5;"/>
    <path clip-path="url(#pcf8a0a5855)" d="M 415.451335 74.586585 
L 415.451335 42.763365 
" style="fill:none;stroke:#1f77b4;stroke-width:1.5;"/>
   </g>
   <g id="LineCollection_2">
    <path clip-path="url(#pcf8a0a5855)" d="M 90.79679 110.558481 
L 90.79679 72.09381 
" style="fill:none;stroke:#ff7f0e;stroke-width:1.5;"/>
    <path clip-path="url(#pcf8a0a5855)" d="M 109.894116 118.163184 
L 109.894116 76.872367 
" style="fill:none;stroke:#ff7f0e;stroke-width:1.5;"/>
    <path clip-path="url(#pcf8a0a5855)" d="M 128.991442 125.191599 
L 128.991442 83.558057 
" style="fill:none;stroke:#ff7f0e;stroke-width:1.5;"/>
    <path clip-path="url(#pcf8a0a5855)" d="M 148.088768 103.817708 
L 148.088768 66.839303 
" style="fill:none;stroke:#ff7f0e;stroke-width:1.5;"/>
    <path clip-path="url(#pcf8a0a5855)" d="M 167.186095 136.345118 
L 167.186095 90.867584 
" style="fill:none;stroke:#ff7f0e;stroke-width:1.5;"/>
    <path clip-path="url(#pcf8a0a5855)" d="M 186.283421 128.028733 
L 186.283421 85.412 
" style="fill:none;stroke:#ff7f0e;stroke-width:1.5;"/>
    <path clip-path="url(#pcf8a0a5855)" d="M 205.380747 88.676515 
L 205.380747 53.08738 
" style="fill:none;stroke:#ff7f0e;stroke-width:1.5;"/>
    <path clip-path="url(#pcf8a0a5855)" d="M 224.478073 114.324174 
L 224.478073 73.298347 
" style="fill:none;stroke:#ff7f0e;stroke-width:1.5;"/>
    <path clip-path="url(#pcf8a0a5855)" d="M 243.575399 76.915375 
L 243.575399 43.922281 
" style="fill:none;stroke:#ff7f0e;stroke-width:1.5;"/>
    <path clip-path="url(#pcf8a0a5855)" d="M 262.672726 124.948751 
L 262.672726 81.158438 
" style="fill:none;stroke:#ff7f0e;stroke-width:1.5;"/>
    <path clip-path="url(#pcf8a0a5855)" d="M 281.770052 78.780677 
L 281.770052 44.852273 
" style="fill:none;stroke:#ff7f0e;stroke-width:1.5;"/>
    <path clip-path="url(#pcf8a0a5855)" d="M 300.867378 89.370754 
L 300.867378 53.466903 
" style="fill:none;stroke:#ff7f0e;stroke-width:1.5;"/>
    <path clip-path="url(#pcf8a0a5855)" d="M 319.964704 100.142349 
L 319.964704 62.275308 
" style="fill:none;stroke:#ff7f0e;stroke-width:1.5;"/>
    <path clip-path="url(#pcf8a0a5855)" d="M 339.06203 75.729416 
L 339.06203 43.331792 
" style="fill:none;stroke:#ff7f0e;stroke-width:1.5;"/>
    <path clip-path="url(#pcf8a0a5855)" d="M 358.159357 118.228513 
L 358.159357 78.01278 
" style="fill:none;stroke:#ff7f0e;stroke-width:1.5;"/>
    <path clip-path="url(#pcf8a0a5855)" d="M 377.256683 90.683535 
L 377.256683 55.552742 
" style="fill:none;stroke:#ff7f0e;stroke-width:1.5;"/>
    <path clip-path="url(#pcf8a0a5855)" d="M 396.354009 102.841978 
L 396.354009 65.109524 
" style="fill:none;stroke:#ff7f0e;stroke-width:1.5;"/>
    <path clip-path="url(#pcf8a0a5855)" d="M 415.451335 88.117145 
L 415.451335 54.104511 
" style="fill:none;stroke:#ff7f0e;stroke-width:1.5;"/>
   </g>
   <g id="LineCollection_3">
    <path clip-path="url(#pcf8a0a5855)" d="M 90.79679 128.604464 
L 90.79679 84.681192 
" style="fill:none;stroke:#2ca02c;stroke-width:1.5;"/>
    <path clip-path="url(#pcf8a0a5855)" d="M 109.894116 126.121659 
L 109.894116 84.165409 
" style="fill:none;stroke:#2ca02c;stroke-width:1.5;"/>
    <path clip-path="url(#pcf8a0a5855)" d="M 128.991442 86.667392 
L 128.991442 51.990264 
" style="fill:none;stroke:#2ca02c;stroke-width:1.5;"/>
    <path clip-path="url(#pcf8a0a5855)" d="M 148.088768 97.149735 
L 148.088768 61.703921 
" style="fill:none;stroke:#2ca02c;stroke-width:1.5;"/>
    <path clip-path="url(#pcf8a0a5855)" d="M 167.186095 93.431148 
L 167.186095 57.106508 
" style="fill:none;stroke:#2ca02c;stroke-width:1.5;"/>
    <path clip-path="url(#pcf8a0a5855)" d="M 186.283421 66.925905 
L 186.283421 37.495751 
" style="fill:none;stroke:#2ca02c;stroke-width:1.5;"/>
    <path clip-path="url(#pcf8a0a5855)" d="M 205.380747 121.779204 
L 205.380747 80.289221 
" style="fill:none;stroke:#2ca02c;stroke-width:1.5;"/>
    <path clip-path="url(#pcf8a0a5855)" d="M 224.478073 77.525299 
L 224.478073 44.226204 
" style="fill:none;stroke:#2ca02c;stroke-width:1.5;"/>
    <path clip-path="url(#pcf8a0a5855)" d="M 243.575399 60.141063 
L 243.575399 32.794942 
" style="fill:none;stroke:#2ca02c;stroke-width:1.5;"/>
    <path clip-path="url(#pcf8a0a5855)" d="M 262.672726 86.667392 
L 262.672726 51.990264 
" style="fill:none;stroke:#2ca02c;stroke-width:1.5;"/>
    <path clip-path="url(#pcf8a0a5855)" d="M 281.770052 90.683535 
L 281.770052 55.552742 
" style="fill:none;stroke:#2ca02c;stroke-width:1.5;"/>
    <path clip-path="url(#pcf8a0a5855)" d="M 300.867378 99.902904 
L 300.867378 63.349298 
" style="fill:none;stroke:#2ca02c;stroke-width:1.5;"/>
    <path clip-path="url(#pcf8a0a5855)" d="M 319.964704 104.664996 
L 319.964704 68.408385 
" style="fill:none;stroke:#2ca02c;stroke-width:1.5;"/>
    <path clip-path="url(#pcf8a0a5855)" d="M 339.06203 80.7579 
L 339.06203 45.839756 
" style="fill:none;stroke:#2ca02c;stroke-width:1.5;"/>
    <path clip-path="url(#pcf8a0a5855)" d="M 358.159357 85.714629 
L 358.159357 52.751414 
" style="fill:none;stroke:#2ca02c;stroke-width:1.5;"/>
    <path clip-path="url(#pcf8a0a5855)" d="M 377.256683 105.290204 
L 377.256683 67.74155 
" style="fill:none;stroke:#2ca02c;stroke-width:1.5;"/>
    <path clip-path="url(#pcf8a0a5855)" d="M 396.354009 82.940881 
L 396.354009 48.555467 
" style="fill:none;stroke:#2ca02c;stroke-width:1.5;"/>
    <path clip-path="url(#pcf8a0a5855)" d="M 415.451335 105.179898 
L 415.451335 66.512495 
" style="fill:none;stroke:#2ca02c;stroke-width:1.5;"/>
   </g>
   <g id="LineCollection_4">
    <path clip-path="url(#pcf8a0a5855)" d="M 90.79679 87.994762 
L 90.79679 52.714894 
" style="fill:none;stroke:#d62728;stroke-width:1.5;"/>
    <path clip-path="url(#pcf8a0a5855)" d="M 109.894116 79.065052 
L 109.894116 47.855164 
" style="fill:none;stroke:#d62728;stroke-width:1.5;"/>
    <path clip-path="url(#pcf8a0a5855)" d="M 128.991442 80.677023 
L 128.991442 48.729814 
" style="fill:none;stroke:#d62728;stroke-width:1.5;"/>
    <path clip-path="url(#pcf8a0a5855)" d="M 148.088768 43.714999 
L 148.088768 22.933183 
" style="fill:none;stroke:#d62728;stroke-width:1.5;"/>
    <path clip-path="url(#pcf8a0a5855)" d="M 167.186095 108.492842 
L 167.186095 68.504814 
" style="fill:none;stroke:#d62728;stroke-width:1.5;"/>
    <path clip-path="url(#pcf8a0a5855)" d="M 186.283421 104.548046 
L 186.283421 67.286684 
" style="fill:none;stroke:#d62728;stroke-width:1.5;"/>
    <path clip-path="url(#pcf8a0a5855)" d="M 205.380747 81.668041 
L 205.380747 47.888881 
" style="fill:none;stroke:#d62728;stroke-width:1.5;"/>
    <path clip-path="url(#pcf8a0a5855)" d="M 224.478073 106.811152 
L 224.478073 68.674505 
" style="fill:none;stroke:#d62728;stroke-width:1.5;"/>
    <path clip-path="url(#pcf8a0a5855)" d="M 243.575399 58.883938 
L 243.575399 32.253719 
" style="fill:none;stroke:#d62728;stroke-width:1.5;"/>
    <path clip-path="url(#pcf8a0a5855)" d="M 262.672726 90.025666 
L 262.672726 55.181221 
" style="fill:none;stroke:#d62728;stroke-width:1.5;"/>
    <path clip-path="url(#pcf8a0a5855)" d="M 281.770052 127.499234 
L 281.770052 86.079068 
" style="fill:none;stroke:#d62728;stroke-width:1.5;"/>
    <path clip-path="url(#pcf8a0a5855)" d="M 300.867378 91.531912 
L 300.867378 54.649744 
" style="fill:none;stroke:#d62728;stroke-width:1.5;"/>
    <path clip-path="url(#pcf8a0a5855)" d="M 319.964704 106.80718 
L 319.964704 67.490477 
" style="fill:none;stroke:#d62728;stroke-width:1.5;"/>
    <path clip-path="url(#pcf8a0a5855)" d="M 339.06203 77.007806 
L 339.06203 45.454466 
" style="fill:none;stroke:#d62728;stroke-width:1.5;"/>
    <path clip-path="url(#pcf8a0a5855)" d="M 358.159357 76.915375 
L 358.159357 43.922281 
" style="fill:none;stroke:#d62728;stroke-width:1.5;"/>
    <path clip-path="url(#pcf8a0a5855)" d="M 377.256683 119.974455 
L 377.256683 79.131437 
" style="fill:none;stroke:#d62728;stroke-width:1.5;"/>
    <path clip-path="url(#pcf8a0a5855)" d="M 396.354009 112.151977 
L 396.354009 73.092952 
" style="fill:none;stroke:#d62728;stroke-width:1.5;"/>
    <path clip-path="url(#pcf8a0a5855)" d="M 415.451335 81.796009 
L 415.451335 49.337647 
" style="fill:none;stroke:#d62728;stroke-width:1.5;"/>
   </g>
   <g id="line2d_29">
    <path clip-path="url(#pcf8a0a5855)" d="M 90.79679 81.208828 
L 109.894116 75.268828 
L 128.991442 47.746828 
L 148.088768 87.148828 
L 167.186095 49.858828 
L 186.283421 82.0616 
L 205.380747 63.388828 
L 224.478073 60.022828 
L 243.575399 78.379143 
L 262.672726 131.91681 
L 281.770052 115.025144 
L 300.867378 70.156533 
L 319.964704 77.735438 
L 339.06203 57.850179 
L 358.159357 75.83072 
L 377.256683 76.127919 
L 396.354009 46.468002 
L 415.451335 58.674975 
" style="fill:none;stroke:#1f77b4;stroke-linecap:square;stroke-width:1.5;"/>
    <defs>
     <path d="M 0 1.5 
C 0.397805 1.5 0.77937 1.341951 1.06066 1.06066 
C 1.341951 0.77937 1.5 0.397805 1.5 0 
C 1.5 -0.397805 1.341951 -0.77937 1.06066 -1.06066 
C 0.77937 -1.341951 0.397805 -1.5 0 -1.5 
C -0.397805 -1.5 -0.77937 -1.341951 -1.06066 -1.06066 
C -1.341951 -0.77937 -1.5 -0.397805 -1.5 0 
C -1.5 0.397805 -1.341951 0.77937 -1.06066 1.06066 
C -0.77937 1.341951 -0.397805 1.5 0 1.5 
z
" id="mecf2e085f4" style="stroke:#1f77b4;"/>
    </defs>
    <g clip-path="url(#pcf8a0a5855)">
     <use style="fill:#1f77b4;stroke:#1f77b4;" x="90.79679" xlink:href="#mecf2e085f4" y="81.208828"/>
     <use style="fill:#1f77b4;stroke:#1f77b4;" x="109.894116" xlink:href="#mecf2e085f4" y="75.268828"/>
     <use style="fill:#1f77b4;stroke:#1f77b4;" x="128.991442" xlink:href="#mecf2e085f4" y="47.746828"/>
     <use style="fill:#1f77b4;stroke:#1f77b4;" x="148.088768" xlink:href="#mecf2e085f4" y="87.148828"/>
     <use style="fill:#1f77b4;stroke:#1f77b4;" x="167.186095" xlink:href="#mecf2e085f4" y="49.858828"/>
     <use style="fill:#1f77b4;stroke:#1f77b4;" x="186.283421" xlink:href="#mecf2e085f4" y="82.0616"/>
     <use style="fill:#1f77b4;stroke:#1f77b4;" x="205.380747" xlink:href="#mecf2e085f4" y="63.388828"/>
     <use style="fill:#1f77b4;stroke:#1f77b4;" x="224.478073" xlink:href="#mecf2e085f4" y="60.022828"/>
     <use style="fill:#1f77b4;stroke:#1f77b4;" x="243.575399" xlink:href="#mecf2e085f4" y="78.379143"/>
     <use style="fill:#1f77b4;stroke:#1f77b4;" x="262.672726" xlink:href="#mecf2e085f4" y="131.91681"/>
     <use style="fill:#1f77b4;stroke:#1f77b4;" x="281.770052" xlink:href="#mecf2e085f4" y="115.025144"/>
     <use style="fill:#1f77b4;stroke:#1f77b4;" x="300.867378" xlink:href="#mecf2e085f4" y="70.156533"/>
     <use style="fill:#1f77b4;stroke:#1f77b4;" x="319.964704" xlink:href="#mecf2e085f4" y="77.735438"/>
     <use style="fill:#1f77b4;stroke:#1f77b4;" x="339.06203" xlink:href="#mecf2e085f4" y="57.850179"/>
     <use style="fill:#1f77b4;stroke:#1f77b4;" x="358.159357" xlink:href="#mecf2e085f4" y="75.83072"/>
     <use style="fill:#1f77b4;stroke:#1f77b4;" x="377.256683" xlink:href="#mecf2e085f4" y="76.127919"/>
     <use style="fill:#1f77b4;stroke:#1f77b4;" x="396.354009" xlink:href="#mecf2e085f4" y="46.468002"/>
     <use style="fill:#1f77b4;stroke:#1f77b4;" x="415.451335" xlink:href="#mecf2e085f4" y="58.674975"/>
    </g>
   </g>
   <g id="line2d_30">
    <path clip-path="url(#pcf8a0a5855)" d="M 90.79679 91.326145 
L 109.894116 97.517775 
L 128.991442 104.374828 
L 148.088768 85.328506 
L 167.186095 113.606351 
L 186.283421 106.720367 
L 205.380747 70.881947 
L 224.478073 93.811261 
L 243.575399 60.418828 
L 262.672726 103.053594 
L 281.770052 61.816475 
L 300.867378 71.418828 
L 319.964704 81.208828 
L 339.06203 59.530604 
L 358.159357 98.120646 
L 377.256683 73.118138 
L 396.354009 83.975751 
L 415.451335 71.110828 
" style="fill:none;stroke:#ff7f0e;stroke-linecap:square;stroke-width:1.5;"/>
    <defs>
     <path d="M 0 1.5 
C 0.397805 1.5 0.77937 1.341951 1.06066 1.06066 
C 1.341951 0.77937 1.5 0.397805 1.5 0 
C 1.5 -0.397805 1.341951 -0.77937 1.06066 -1.06066 
C 0.77937 -1.341951 0.397805 -1.5 0 -1.5 
C -0.397805 -1.5 -0.77937 -1.341951 -1.06066 -1.06066 
C -1.341951 -0.77937 -1.5 -0.397805 -1.5 0 
C -1.5 0.397805 -1.341951 0.77937 -1.06066 1.06066 
C -0.77937 1.341951 -0.397805 1.5 0 1.5 
z
" id="ma508e9266b" style="stroke:#ff7f0e;"/>
    </defs>
    <g clip-path="url(#pcf8a0a5855)">
     <use style="fill:#ff7f0e;stroke:#ff7f0e;" x="90.79679" xlink:href="#ma508e9266b" y="91.326145"/>
     <use style="fill:#ff7f0e;stroke:#ff7f0e;" x="109.894116" xlink:href="#ma508e9266b" y="97.517775"/>
     <use style="fill:#ff7f0e;stroke:#ff7f0e;" x="128.991442" xlink:href="#ma508e9266b" y="104.374828"/>
     <use style="fill:#ff7f0e;stroke:#ff7f0e;" x="148.088768" xlink:href="#ma508e9266b" y="85.328506"/>
     <use style="fill:#ff7f0e;stroke:#ff7f0e;" x="167.186095" xlink:href="#ma508e9266b" y="113.606351"/>
     <use style="fill:#ff7f0e;stroke:#ff7f0e;" x="186.283421" xlink:href="#ma508e9266b" y="106.720367"/>
     <use style="fill:#ff7f0e;stroke:#ff7f0e;" x="205.380747" xlink:href="#ma508e9266b" y="70.881947"/>
     <use style="fill:#ff7f0e;stroke:#ff7f0e;" x="224.478073" xlink:href="#ma508e9266b" y="93.811261"/>
     <use style="fill:#ff7f0e;stroke:#ff7f0e;" x="243.575399" xlink:href="#ma508e9266b" y="60.418828"/>
     <use style="fill:#ff7f0e;stroke:#ff7f0e;" x="262.672726" xlink:href="#ma508e9266b" y="103.053594"/>
     <use style="fill:#ff7f0e;stroke:#ff7f0e;" x="281.770052" xlink:href="#ma508e9266b" y="61.816475"/>
     <use style="fill:#ff7f0e;stroke:#ff7f0e;" x="300.867378" xlink:href="#ma508e9266b" y="71.418828"/>
     <use style="fill:#ff7f0e;stroke:#ff7f0e;" x="319.964704" xlink:href="#ma508e9266b" y="81.208828"/>
     <use style="fill:#ff7f0e;stroke:#ff7f0e;" x="339.06203" xlink:href="#ma508e9266b" y="59.530604"/>
     <use style="fill:#ff7f0e;stroke:#ff7f0e;" x="358.159357" xlink:href="#ma508e9266b" y="98.120646"/>
     <use style="fill:#ff7f0e;stroke:#ff7f0e;" x="377.256683" xlink:href="#ma508e9266b" y="73.118138"/>
     <use style="fill:#ff7f0e;stroke:#ff7f0e;" x="396.354009" xlink:href="#ma508e9266b" y="83.975751"/>
     <use style="fill:#ff7f0e;stroke:#ff7f0e;" x="415.451335" xlink:href="#ma508e9266b" y="71.110828"/>
    </g>
   </g>
   <g id="line2d_31">
    <path clip-path="url(#pcf8a0a5855)" d="M 90.79679 106.642828 
L 109.894116 105.143534 
L 128.991442 69.328828 
L 148.088768 79.426828 
L 167.186095 75.268828 
L 186.283421 52.210828 
L 205.380747 101.034213 
L 224.478073 60.875751 
L 243.575399 46.468002 
L 262.672726 69.328828 
L 281.770052 73.118138 
L 300.867378 81.626101 
L 319.964704 86.536691 
L 339.06203 63.298828 
L 358.159357 69.233022 
L 377.256683 86.515877 
L 396.354009 65.748174 
L 415.451335 85.846197 
" style="fill:none;stroke:#2ca02c;stroke-linecap:square;stroke-width:1.5;"/>
    <defs>
     <path d="M 0 1.5 
C 0.397805 1.5 0.77937 1.341951 1.06066 1.06066 
C 1.341951 0.77937 1.5 0.397805 1.5 0 
C 1.5 -0.397805 1.341951 -0.77937 1.06066 -1.06066 
C 0.77937 -1.341951 0.397805 -1.5 0 -1.5 
C -0.397805 -1.5 -0.77937 -1.341951 -1.06066 -1.06066 
C -1.341951 -0.77937 -1.5 -0.397805 -1.5 0 
C -1.5 0.397805 -1.341951 0.77937 -1.06066 1.06066 
C -0.77937 1.341951 -0.397805 1.5 0 1.5 
z
" id="m5e830e8a37" style="stroke:#2ca02c;"/>
    </defs>
    <g clip-path="url(#pcf8a0a5855)">
     <use style="fill:#2ca02c;stroke:#2ca02c;" x="90.79679" xlink:href="#m5e830e8a37" y="106.642828"/>
     <use style="fill:#2ca02c;stroke:#2ca02c;" x="109.894116" xlink:href="#m5e830e8a37" y="105.143534"/>
     <use style="fill:#2ca02c;stroke:#2ca02c;" x="128.991442" xlink:href="#m5e830e8a37" y="69.328828"/>
     <use style="fill:#2ca02c;stroke:#2ca02c;" x="148.088768" xlink:href="#m5e830e8a37" y="79.426828"/>
     <use style="fill:#2ca02c;stroke:#2ca02c;" x="167.186095" xlink:href="#m5e830e8a37" y="75.268828"/>
     <use style="fill:#2ca02c;stroke:#2ca02c;" x="186.283421" xlink:href="#m5e830e8a37" y="52.210828"/>
     <use style="fill:#2ca02c;stroke:#2ca02c;" x="205.380747" xlink:href="#m5e830e8a37" y="101.034213"/>
     <use style="fill:#2ca02c;stroke:#2ca02c;" x="224.478073" xlink:href="#m5e830e8a37" y="60.875751"/>
     <use style="fill:#2ca02c;stroke:#2ca02c;" x="243.575399" xlink:href="#m5e830e8a37" y="46.468002"/>
     <use style="fill:#2ca02c;stroke:#2ca02c;" x="262.672726" xlink:href="#m5e830e8a37" y="69.328828"/>
     <use style="fill:#2ca02c;stroke:#2ca02c;" x="281.770052" xlink:href="#m5e830e8a37" y="73.118138"/>
     <use style="fill:#2ca02c;stroke:#2ca02c;" x="300.867378" xlink:href="#m5e830e8a37" y="81.626101"/>
     <use style="fill:#2ca02c;stroke:#2ca02c;" x="319.964704" xlink:href="#m5e830e8a37" y="86.536691"/>
     <use style="fill:#2ca02c;stroke:#2ca02c;" x="339.06203" xlink:href="#m5e830e8a37" y="63.298828"/>
     <use style="fill:#2ca02c;stroke:#2ca02c;" x="358.159357" xlink:href="#m5e830e8a37" y="69.233022"/>
     <use style="fill:#2ca02c;stroke:#2ca02c;" x="377.256683" xlink:href="#m5e830e8a37" y="86.515877"/>
     <use style="fill:#2ca02c;stroke:#2ca02c;" x="396.354009" xlink:href="#m5e830e8a37" y="65.748174"/>
     <use style="fill:#2ca02c;stroke:#2ca02c;" x="415.451335" xlink:href="#m5e830e8a37" y="85.846197"/>
    </g>
   </g>
   <g id="line2d_32">
    <path clip-path="url(#pcf8a0a5855)" d="M 90.79679 70.354828 
L 109.894116 63.460108 
L 128.991442 64.703418 
L 148.088768 33.324091 
L 167.186095 88.498828 
L 186.283421 85.917365 
L 205.380747 64.778461 
L 224.478073 87.742828 
L 243.575399 45.568828 
L 262.672726 72.603444 
L 281.770052 106.789151 
L 300.867378 73.090828 
L 319.964704 87.148828 
L 339.06203 61.231136 
L 358.159357 60.418828 
L 377.256683 99.552946 
L 396.354009 92.622464 
L 415.451335 65.566828 
" style="fill:none;stroke:#d62728;stroke-linecap:square;stroke-width:1.5;"/>
    <defs>
     <path d="M 0 1.5 
C 0.397805 1.5 0.77937 1.341951 1.06066 1.06066 
C 1.341951 0.77937 1.5 0.397805 1.5 0 
C 1.5 -0.397805 1.341951 -0.77937 1.06066 -1.06066 
C 0.77937 -1.341951 0.397805 -1.5 0 -1.5 
C -0.397805 -1.5 -0.77937 -1.341951 -1.06066 -1.06066 
C -1.341951 -0.77937 -1.5 -0.397805 -1.5 0 
C -1.5 0.397805 -1.341951 0.77937 -1.06066 1.06066 
C -0.77937 1.341951 -0.397805 1.5 0 1.5 
z
" id="me174f43e28" style="stroke:#d62728;"/>
    </defs>
    <g clip-path="url(#pcf8a0a5855)">
     <use style="fill:#d62728;stroke:#d62728;" x="90.79679" xlink:href="#me174f43e28" y="70.354828"/>
     <use style="fill:#d62728;stroke:#d62728;" x="109.894116" xlink:href="#me174f43e28" y="63.460108"/>
     <use style="fill:#d62728;stroke:#d62728;" x="128.991442" xlink:href="#me174f43e28" y="64.703418"/>
     <use style="fill:#d62728;stroke:#d62728;" x="148.088768" xlink:href="#me174f43e28" y="33.324091"/>
     <use style="fill:#d62728;stroke:#d62728;" x="167.186095" xlink:href="#me174f43e28" y="88.498828"/>
     <use style="fill:#d62728;stroke:#d62728;" x="186.283421" xlink:href="#me174f43e28" y="85.917365"/>
     <use style="fill:#d62728;stroke:#d62728;" x="205.380747" xlink:href="#me174f43e28" y="64.778461"/>
     <use style="fill:#d62728;stroke:#d62728;" x="224.478073" xlink:href="#me174f43e28" y="87.742828"/>
     <use style="fill:#d62728;stroke:#d62728;" x="243.575399" xlink:href="#me174f43e28" y="45.568828"/>
     <use style="fill:#d62728;stroke:#d62728;" x="262.672726" xlink:href="#me174f43e28" y="72.603444"/>
     <use style="fill:#d62728;stroke:#d62728;" x="281.770052" xlink:href="#me174f43e28" y="106.789151"/>
     <use style="fill:#d62728;stroke:#d62728;" x="300.867378" xlink:href="#me174f43e28" y="73.090828"/>
     <use style="fill:#d62728;stroke:#d62728;" x="319.964704" xlink:href="#me174f43e28" y="87.148828"/>
     <use style="fill:#d62728;stroke:#d62728;" x="339.06203" xlink:href="#me174f43e28" y="61.231136"/>
     <use style="fill:#d62728;stroke:#d62728;" x="358.159357" xlink:href="#me174f43e28" y="60.418828"/>
     <use style="fill:#d62728;stroke:#d62728;" x="377.256683" xlink:href="#me174f43e28" y="99.552946"/>
     <use style="fill:#d62728;stroke:#d62728;" x="396.354009" xlink:href="#me174f43e28" y="92.622464"/>
     <use style="fill:#d62728;stroke:#d62728;" x="415.451335" xlink:href="#me174f43e28" y="65.566828"/>
    </g>
   </g>
   <g id="patch_3">
    <path d="M 74.564063 279.010828 
L 74.564063 12.898828 
" style="fill:none;stroke:#000000;stroke-linecap:square;stroke-linejoin:miter;stroke-width:0.8;"/>
   </g>
   <g id="patch_4">
    <path d="M 431.684062 279.010828 
L 431.684062 12.898828 
" style="fill:none;stroke:#000000;stroke-linecap:square;stroke-linejoin:miter;stroke-width:0.8;"/>
   </g>
   <g id="patch_5">
    <path d="M 74.564063 279.010828 
L 431.684062 279.010828 
" style="fill:none;stroke:#000000;stroke-linecap:square;stroke-linejoin:miter;stroke-width:0.8;"/>
   </g>
   <g id="patch_6">
    <path d="M 74.564063 12.898828 
L 431.684062 12.898828 
" style="fill:none;stroke:#000000;stroke-linecap:square;stroke-linejoin:miter;stroke-width:0.8;"/>
   </g>
   <g id="legend_1">
    <g id="patch_7">
     <path d="M 88.564063 269.010828 
L 229.739063 269.010828 
Q 233.739063 269.010828 233.739063 265.010828 
L 233.739063 149.585828 
Q 233.739063 145.585828 229.739063 145.585828 
L 88.564063 145.585828 
Q 84.564063 145.585828 84.564063 149.585828 
L 84.564063 265.010828 
Q 84.564063 269.010828 88.564063 269.010828 
z
" style="fill:#ffffff;opacity:0.8;stroke:#cccccc;stroke-linejoin:miter;"/>
    </g>
    <g id="LineCollection_5">
     <path d="M 112.564063 171.782703 
L 112.564063 151.782703 
" style="fill:none;stroke:#1f77b4;stroke-width:1.5;"/>
    </g>
    <g id="line2d_33">
     <path d="M 92.564063 161.782703 
L 132.564063 161.782703 
" style="fill:none;stroke:#1f77b4;stroke-linecap:square;stroke-width:1.5;"/>
    </g>
    <g id="line2d_34">
     <g>
      <use style="fill:#1f77b4;stroke:#1f77b4;" x="112.564063" xlink:href="#mecf2e085f4" y="161.782703"/>
     </g>
    </g>
    <g id="text_17">
     <!-- 0.8 -->
     <g transform="translate(148.564063 168.782703)scale(0.2 -0.2)">
      <use xlink:href="#DejaVuSans-Bold-30"/>
      <use x="69.580078" xlink:href="#DejaVuSans-Bold-2e"/>
      <use x="107.568359" xlink:href="#DejaVuSans-Bold-38"/>
     </g>
    </g>
    <g id="LineCollection_6">
     <path d="M 112.564063 201.138953 
L 112.564063 181.138953 
" style="fill:none;stroke:#ff7f0e;stroke-width:1.5;"/>
    </g>
    <g id="line2d_35">
     <path d="M 92.564063 191.138953 
L 132.564063 191.138953 
" style="fill:none;stroke:#ff7f0e;stroke-linecap:square;stroke-width:1.5;"/>
    </g>
    <g id="line2d_36">
     <g>
      <use style="fill:#ff7f0e;stroke:#ff7f0e;" x="112.564063" xlink:href="#ma508e9266b" y="191.138953"/>
     </g>
    </g>
    <g id="text_18">
     <!-- 1.0 -->
     <g transform="translate(148.564063 198.138953)scale(0.2 -0.2)">
      <use xlink:href="#DejaVuSans-Bold-31"/>
      <use x="69.580078" xlink:href="#DejaVuSans-Bold-2e"/>
      <use x="107.568359" xlink:href="#DejaVuSans-Bold-30"/>
     </g>
    </g>
    <g id="LineCollection_7">
     <path d="M 112.564063 230.495203 
L 112.564063 210.495203 
" style="fill:none;stroke:#2ca02c;stroke-width:1.5;"/>
    </g>
    <g id="line2d_37">
     <path d="M 92.564063 220.495203 
L 132.564063 220.495203 
" style="fill:none;stroke:#2ca02c;stroke-linecap:square;stroke-width:1.5;"/>
    </g>
    <g id="line2d_38">
     <g>
      <use style="fill:#2ca02c;stroke:#2ca02c;" x="112.564063" xlink:href="#m5e830e8a37" y="220.495203"/>
     </g>
    </g>
    <g id="text_19">
     <!-- 1.25 -->
     <g transform="translate(148.564063 227.495203)scale(0.2 -0.2)">
      <use xlink:href="#DejaVuSans-Bold-31"/>
      <use x="69.580078" xlink:href="#DejaVuSans-Bold-2e"/>
      <use x="107.568359" xlink:href="#DejaVuSans-Bold-32"/>
      <use x="177.148438" xlink:href="#DejaVuSans-Bold-35"/>
     </g>
    </g>
    <g id="LineCollection_8">
     <path d="M 112.564063 259.851453 
L 112.564063 239.851453 
" style="fill:none;stroke:#d62728;stroke-width:1.5;"/>
    </g>
    <g id="line2d_39">
     <path d="M 92.564063 249.851453 
L 132.564063 249.851453 
" style="fill:none;stroke:#d62728;stroke-linecap:square;stroke-width:1.5;"/>
    </g>
    <g id="line2d_40">
     <g>
      <use style="fill:#d62728;stroke:#d62728;" x="112.564063" xlink:href="#me174f43e28" y="249.851453"/>
     </g>
    </g>
    <g id="text_20">
     <!-- 1.5625 -->
     <g transform="translate(148.564063 256.851453)scale(0.2 -0.2)">
      <use xlink:href="#DejaVuSans-Bold-31"/>
      <use x="69.580078" xlink:href="#DejaVuSans-Bold-2e"/>
      <use x="107.568359" xlink:href="#DejaVuSans-Bold-35"/>
      <use x="177.148438" xlink:href="#DejaVuSans-Bold-36"/>
      <use x="246.728516" xlink:href="#DejaVuSans-Bold-32"/>
      <use x="316.308594" xlink:href="#DejaVuSans-Bold-35"/>
     </g>
    </g>
   </g>
  </g>
 </g>
 <defs>
  <clipPath id="pcf8a0a5855">
   <rect height="266.112" width="357.12" x="74.564063" y="12.898828"/>
  </clipPath>
 </defs>
</svg>
