<?xml version="1.0" encoding="utf-8" standalone="no"?>
<!DOCTYPE svg PUBLIC "-//W3C//DTD SVG 1.1//EN"
  "http://www.w3.org/Graphics/SVG/1.1/DTD/svg11.dtd">
<!-- Created with matplotlib (http://matplotlib.org/) -->
<svg height="349pt" version="1.1" viewBox="0 0 431 349" width="431pt" xmlns="http://www.w3.org/2000/svg" xmlns:xlink="http://www.w3.org/1999/xlink">
 <defs>
  <style type="text/css">
*{stroke-linecap:butt;stroke-linejoin:round;}
  </style>
 </defs>
 <g id="figure_1">
  <g id="patch_1">
   <path d="M 0 349.621687 
L 431.947344 349.621687 
L 431.947344 0 
L 0 0 
z
" style="fill:none;"/>
  </g>
  <g id="axes_1">
   <g id="patch_2">
    <path d="M 64.127344 297.54825 
L 421.247344 297.54825 
L 421.247344 31.43625 
L 64.127344 31.43625 
z
" style="fill:none;"/>
   </g>
   <g id="matplotlib.axis_1">
    <g id="xtick_1">
     <g id="line2d_1">
      <path clip-path="url(#p730392adf7)" d="M 118.777526 297.54825 
L 118.777526 31.43625 
" style="fill:none;stroke:#b0b0b0;stroke-linecap:square;stroke-width:0.8;"/>
     </g>
     <g id="line2d_2">
      <defs>
       <path d="M 0 0 
L 0 3.5 
" id="m7e908991af" style="stroke:#000000;stroke-width:0.8;"/>
      </defs>
      <g>
       <use style="stroke:#000000;stroke-width:0.8;" x="118.777526" xlink:href="#m7e908991af" y="297.54825"/>
      </g>
     </g>
     <g id="text_1">
      <!-- −500 -->
      <defs>
       <path d="M 10.59375 37.109375 
L 73.1875 37.109375 
L 73.1875 25.59375 
L 10.59375 25.59375 
z
" id="DejaVuSans-Bold-2212"/>
       <path d="M 10.59375 72.90625 
L 57.328125 72.90625 
L 57.328125 59.078125 
L 25.59375 59.078125 
L 25.59375 47.796875 
Q 27.734375 48.390625 29.90625 48.703125 
Q 32.078125 49.03125 34.421875 49.03125 
Q 47.75 49.03125 55.171875 42.359375 
Q 62.59375 35.6875 62.59375 23.78125 
Q 62.59375 11.96875 54.515625 5.265625 
Q 46.4375 -1.421875 32.078125 -1.421875 
Q 25.875 -1.421875 19.796875 -0.21875 
Q 13.71875 0.984375 7.71875 3.421875 
L 7.71875 18.21875 
Q 13.671875 14.796875 19.015625 13.078125 
Q 24.359375 11.375 29.109375 11.375 
Q 35.9375 11.375 39.859375 14.71875 
Q 43.796875 18.0625 43.796875 23.78125 
Q 43.796875 29.546875 39.859375 32.859375 
Q 35.9375 36.1875 29.109375 36.1875 
Q 25.046875 36.1875 20.453125 35.125 
Q 15.875 34.078125 10.59375 31.890625 
z
" id="DejaVuSans-Bold-35"/>
       <path d="M 46 36.53125 
Q 46 50.203125 43.4375 55.78125 
Q 40.875 61.375 34.8125 61.375 
Q 28.765625 61.375 26.171875 55.78125 
Q 23.578125 50.203125 23.578125 36.53125 
Q 23.578125 22.703125 26.171875 17.03125 
Q 28.765625 11.375 34.8125 11.375 
Q 40.828125 11.375 43.40625 17.03125 
Q 46 22.703125 46 36.53125 
z
M 64.796875 36.375 
Q 64.796875 18.265625 56.984375 8.421875 
Q 49.171875 -1.421875 34.8125 -1.421875 
Q 20.40625 -1.421875 12.59375 8.421875 
Q 4.78125 18.265625 4.78125 36.375 
Q 4.78125 54.546875 12.59375 64.375 
Q 20.40625 74.21875 34.8125 74.21875 
Q 49.171875 74.21875 56.984375 64.375 
Q 64.796875 54.546875 64.796875 36.375 
z
" id="DejaVuSans-Bold-30"/>
      </defs>
      <g transform="translate(96.837682 315.945906)scale(0.15 -0.15)">
       <use xlink:href="#DejaVuSans-Bold-2212"/>
       <use x="83.789062" xlink:href="#DejaVuSans-Bold-35"/>
       <use x="153.369141" xlink:href="#DejaVuSans-Bold-30"/>
       <use x="222.949219" xlink:href="#DejaVuSans-Bold-30"/>
      </g>
     </g>
    </g>
    <g id="xtick_2">
     <g id="line2d_3">
      <path clip-path="url(#p730392adf7)" d="M 208.959344 297.54825 
L 208.959344 31.43625 
" style="fill:none;stroke:#b0b0b0;stroke-linecap:square;stroke-width:0.8;"/>
     </g>
     <g id="line2d_4">
      <g>
       <use style="stroke:#000000;stroke-width:0.8;" x="208.959344" xlink:href="#m7e908991af" y="297.54825"/>
      </g>
     </g>
     <g id="text_2">
      <!-- 0 -->
      <g transform="translate(203.740984 315.945906)scale(0.15 -0.15)">
       <use xlink:href="#DejaVuSans-Bold-30"/>
      </g>
     </g>
    </g>
    <g id="xtick_3">
     <g id="line2d_5">
      <path clip-path="url(#p730392adf7)" d="M 299.141162 297.54825 
L 299.141162 31.43625 
" style="fill:none;stroke:#b0b0b0;stroke-linecap:square;stroke-width:0.8;"/>
     </g>
     <g id="line2d_6">
      <g>
       <use style="stroke:#000000;stroke-width:0.8;" x="299.141162" xlink:href="#m7e908991af" y="297.54825"/>
      </g>
     </g>
     <g id="text_3">
      <!-- 500 -->
      <g transform="translate(283.486084 315.945906)scale(0.15 -0.15)">
       <use xlink:href="#DejaVuSans-Bold-35"/>
       <use x="69.580078" xlink:href="#DejaVuSans-Bold-30"/>
       <use x="139.160156" xlink:href="#DejaVuSans-Bold-30"/>
      </g>
     </g>
    </g>
    <g id="xtick_4">
     <g id="line2d_7">
      <path clip-path="url(#p730392adf7)" d="M 389.32298 297.54825 
L 389.32298 31.43625 
" style="fill:none;stroke:#b0b0b0;stroke-linecap:square;stroke-width:0.8;"/>
     </g>
     <g id="line2d_8">
      <g>
       <use style="stroke:#000000;stroke-width:0.8;" x="389.32298" xlink:href="#m7e908991af" y="297.54825"/>
      </g>
     </g>
     <g id="text_4">
      <!-- 1000 -->
      <defs>
       <path d="M 11.71875 12.984375 
L 28.328125 12.984375 
L 28.328125 60.109375 
L 11.28125 56.59375 
L 11.28125 69.390625 
L 28.21875 72.90625 
L 46.09375 72.90625 
L 46.09375 12.984375 
L 62.703125 12.984375 
L 62.703125 0 
L 11.71875 0 
z
" id="DejaVuSans-Bold-31"/>
      </defs>
      <g transform="translate(368.449543 315.945906)scale(0.15 -0.15)">
       <use xlink:href="#DejaVuSans-Bold-31"/>
       <use x="69.580078" xlink:href="#DejaVuSans-Bold-30"/>
       <use x="139.160156" xlink:href="#DejaVuSans-Bold-30"/>
       <use x="208.740234" xlink:href="#DejaVuSans-Bold-30"/>
      </g>
     </g>
    </g>
    <g id="text_5">
     <!-- Detuning from carrier (kHz) -->
     <defs>
      <path d="M 19.671875 64.796875 
L 19.671875 8.109375 
L 31.59375 8.109375 
Q 46.6875 8.109375 53.6875 14.9375 
Q 60.6875 21.78125 60.6875 36.53125 
Q 60.6875 51.171875 53.6875 57.984375 
Q 46.6875 64.796875 31.59375 64.796875 
z
M 9.8125 72.90625 
L 30.078125 72.90625 
Q 51.265625 72.90625 61.171875 64.09375 
Q 71.09375 55.28125 71.09375 36.53125 
Q 71.09375 17.671875 61.125 8.828125 
Q 51.171875 0 30.078125 0 
L 9.8125 0 
z
" id="DejaVuSans-44"/>
      <path d="M 56.203125 29.59375 
L 56.203125 25.203125 
L 14.890625 25.203125 
Q 15.484375 15.921875 20.484375 11.0625 
Q 25.484375 6.203125 34.421875 6.203125 
Q 39.59375 6.203125 44.453125 7.46875 
Q 49.3125 8.734375 54.109375 11.28125 
L 54.109375 2.78125 
Q 49.265625 0.734375 44.1875 -0.34375 
Q 39.109375 -1.421875 33.890625 -1.421875 
Q 20.796875 -1.421875 13.15625 6.1875 
Q 5.515625 13.8125 5.515625 26.8125 
Q 5.515625 40.234375 12.765625 48.109375 
Q 20.015625 56 32.328125 56 
Q 43.359375 56 49.78125 48.890625 
Q 56.203125 41.796875 56.203125 29.59375 
z
M 47.21875 32.234375 
Q 47.125 39.59375 43.09375 43.984375 
Q 39.0625 48.390625 32.421875 48.390625 
Q 24.90625 48.390625 20.390625 44.140625 
Q 15.875 39.890625 15.1875 32.171875 
z
" id="DejaVuSans-65"/>
      <path d="M 18.3125 70.21875 
L 18.3125 54.6875 
L 36.8125 54.6875 
L 36.8125 47.703125 
L 18.3125 47.703125 
L 18.3125 18.015625 
Q 18.3125 11.328125 20.140625 9.421875 
Q 21.96875 7.515625 27.59375 7.515625 
L 36.8125 7.515625 
L 36.8125 0 
L 27.59375 0 
Q 17.1875 0 13.234375 3.875 
Q 9.28125 7.765625 9.28125 18.015625 
L 9.28125 47.703125 
L 2.6875 47.703125 
L 2.6875 54.6875 
L 9.28125 54.6875 
L 9.28125 70.21875 
z
" id="DejaVuSans-74"/>
      <path d="M 8.5 21.578125 
L 8.5 54.6875 
L 17.484375 54.6875 
L 17.484375 21.921875 
Q 17.484375 14.15625 20.5 10.265625 
Q 23.53125 6.390625 29.59375 6.390625 
Q 36.859375 6.390625 41.078125 11.03125 
Q 45.3125 15.671875 45.3125 23.6875 
L 45.3125 54.6875 
L 54.296875 54.6875 
L 54.296875 0 
L 45.3125 0 
L 45.3125 8.40625 
Q 42.046875 3.421875 37.71875 1 
Q 33.40625 -1.421875 27.6875 -1.421875 
Q 18.265625 -1.421875 13.375 4.4375 
Q 8.5 10.296875 8.5 21.578125 
z
M 31.109375 56 
z
" id="DejaVuSans-75"/>
      <path d="M 54.890625 33.015625 
L 54.890625 0 
L 45.90625 0 
L 45.90625 32.71875 
Q 45.90625 40.484375 42.875 44.328125 
Q 39.84375 48.1875 33.796875 48.1875 
Q 26.515625 48.1875 22.3125 43.546875 
Q 18.109375 38.921875 18.109375 30.90625 
L 18.109375 0 
L 9.078125 0 
L 9.078125 54.6875 
L 18.109375 54.6875 
L 18.109375 46.1875 
Q 21.34375 51.125 25.703125 53.5625 
Q 30.078125 56 35.796875 56 
Q 45.21875 56 50.046875 50.171875 
Q 54.890625 44.34375 54.890625 33.015625 
z
" id="DejaVuSans-6e"/>
      <path d="M 9.421875 54.6875 
L 18.40625 54.6875 
L 18.40625 0 
L 9.421875 0 
z
M 9.421875 75.984375 
L 18.40625 75.984375 
L 18.40625 64.59375 
L 9.421875 64.59375 
z
" id="DejaVuSans-69"/>
      <path d="M 45.40625 27.984375 
Q 45.40625 37.75 41.375 43.109375 
Q 37.359375 48.484375 30.078125 48.484375 
Q 22.859375 48.484375 18.828125 43.109375 
Q 14.796875 37.75 14.796875 27.984375 
Q 14.796875 18.265625 18.828125 12.890625 
Q 22.859375 7.515625 30.078125 7.515625 
Q 37.359375 7.515625 41.375 12.890625 
Q 45.40625 18.265625 45.40625 27.984375 
z
M 54.390625 6.78125 
Q 54.390625 -7.171875 48.1875 -13.984375 
Q 42 -20.796875 29.203125 -20.796875 
Q 24.46875 -20.796875 20.265625 -20.09375 
Q 16.0625 -19.390625 12.109375 -17.921875 
L 12.109375 -9.1875 
Q 16.0625 -11.328125 19.921875 -12.34375 
Q 23.78125 -13.375 27.78125 -13.375 
Q 36.625 -13.375 41.015625 -8.765625 
Q 45.40625 -4.15625 45.40625 5.171875 
L 45.40625 9.625 
Q 42.625 4.78125 38.28125 2.390625 
Q 33.9375 0 27.875 0 
Q 17.828125 0 11.671875 7.65625 
Q 5.515625 15.328125 5.515625 27.984375 
Q 5.515625 40.671875 11.671875 48.328125 
Q 17.828125 56 27.875 56 
Q 33.9375 56 38.28125 53.609375 
Q 42.625 51.21875 45.40625 46.390625 
L 45.40625 54.6875 
L 54.390625 54.6875 
z
" id="DejaVuSans-67"/>
      <path id="DejaVuSans-20"/>
      <path d="M 37.109375 75.984375 
L 37.109375 68.5 
L 28.515625 68.5 
Q 23.6875 68.5 21.796875 66.546875 
Q 19.921875 64.59375 19.921875 59.515625 
L 19.921875 54.6875 
L 34.71875 54.6875 
L 34.71875 47.703125 
L 19.921875 47.703125 
L 19.921875 0 
L 10.890625 0 
L 10.890625 47.703125 
L 2.296875 47.703125 
L 2.296875 54.6875 
L 10.890625 54.6875 
L 10.890625 58.5 
Q 10.890625 67.625 15.140625 71.796875 
Q 19.390625 75.984375 28.609375 75.984375 
z
" id="DejaVuSans-66"/>
      <path d="M 41.109375 46.296875 
Q 39.59375 47.171875 37.8125 47.578125 
Q 36.03125 48 33.890625 48 
Q 26.265625 48 22.1875 43.046875 
Q 18.109375 38.09375 18.109375 28.8125 
L 18.109375 0 
L 9.078125 0 
L 9.078125 54.6875 
L 18.109375 54.6875 
L 18.109375 46.1875 
Q 20.953125 51.171875 25.484375 53.578125 
Q 30.03125 56 36.53125 56 
Q 37.453125 56 38.578125 55.875 
Q 39.703125 55.765625 41.0625 55.515625 
z
" id="DejaVuSans-72"/>
      <path d="M 30.609375 48.390625 
Q 23.390625 48.390625 19.1875 42.75 
Q 14.984375 37.109375 14.984375 27.296875 
Q 14.984375 17.484375 19.15625 11.84375 
Q 23.34375 6.203125 30.609375 6.203125 
Q 37.796875 6.203125 41.984375 11.859375 
Q 46.1875 17.53125 46.1875 27.296875 
Q 46.1875 37.015625 41.984375 42.703125 
Q 37.796875 48.390625 30.609375 48.390625 
z
M 30.609375 56 
Q 42.328125 56 49.015625 48.375 
Q 55.71875 40.765625 55.71875 27.296875 
Q 55.71875 13.875 49.015625 6.21875 
Q 42.328125 -1.421875 30.609375 -1.421875 
Q 18.84375 -1.421875 12.171875 6.21875 
Q 5.515625 13.875 5.515625 27.296875 
Q 5.515625 40.765625 12.171875 48.375 
Q 18.84375 56 30.609375 56 
z
" id="DejaVuSans-6f"/>
      <path d="M 52 44.1875 
Q 55.375 50.25 60.0625 53.125 
Q 64.75 56 71.09375 56 
Q 79.640625 56 84.28125 50.015625 
Q 88.921875 44.046875 88.921875 33.015625 
L 88.921875 0 
L 79.890625 0 
L 79.890625 32.71875 
Q 79.890625 40.578125 77.09375 44.375 
Q 74.3125 48.1875 68.609375 48.1875 
Q 61.625 48.1875 57.5625 43.546875 
Q 53.515625 38.921875 53.515625 30.90625 
L 53.515625 0 
L 44.484375 0 
L 44.484375 32.71875 
Q 44.484375 40.625 41.703125 44.40625 
Q 38.921875 48.1875 33.109375 48.1875 
Q 26.21875 48.1875 22.15625 43.53125 
Q 18.109375 38.875 18.109375 30.90625 
L 18.109375 0 
L 9.078125 0 
L 9.078125 54.6875 
L 18.109375 54.6875 
L 18.109375 46.1875 
Q 21.1875 51.21875 25.484375 53.609375 
Q 29.78125 56 35.6875 56 
Q 41.65625 56 45.828125 52.96875 
Q 50 49.953125 52 44.1875 
z
" id="DejaVuSans-6d"/>
      <path d="M 48.78125 52.59375 
L 48.78125 44.1875 
Q 44.96875 46.296875 41.140625 47.34375 
Q 37.3125 48.390625 33.40625 48.390625 
Q 24.65625 48.390625 19.8125 42.84375 
Q 14.984375 37.3125 14.984375 27.296875 
Q 14.984375 17.28125 19.8125 11.734375 
Q 24.65625 6.203125 33.40625 6.203125 
Q 37.3125 6.203125 41.140625 7.25 
Q 44.96875 8.296875 48.78125 10.40625 
L 48.78125 2.09375 
Q 45.015625 0.34375 40.984375 -0.53125 
Q 36.96875 -1.421875 32.421875 -1.421875 
Q 20.0625 -1.421875 12.78125 6.34375 
Q 5.515625 14.109375 5.515625 27.296875 
Q 5.515625 40.671875 12.859375 48.328125 
Q 20.21875 56 33.015625 56 
Q 37.15625 56 41.109375 55.140625 
Q 45.0625 54.296875 48.78125 52.59375 
z
" id="DejaVuSans-63"/>
      <path d="M 34.28125 27.484375 
Q 23.390625 27.484375 19.1875 25 
Q 14.984375 22.515625 14.984375 16.5 
Q 14.984375 11.71875 18.140625 8.90625 
Q 21.296875 6.109375 26.703125 6.109375 
Q 34.1875 6.109375 38.703125 11.40625 
Q 43.21875 16.703125 43.21875 25.484375 
L 43.21875 27.484375 
z
M 52.203125 31.203125 
L 52.203125 0 
L 43.21875 0 
L 43.21875 8.296875 
Q 40.140625 3.328125 35.546875 0.953125 
Q 30.953125 -1.421875 24.3125 -1.421875 
Q 15.921875 -1.421875 10.953125 3.296875 
Q 6 8.015625 6 15.921875 
Q 6 25.140625 12.171875 29.828125 
Q 18.359375 34.515625 30.609375 34.515625 
L 43.21875 34.515625 
L 43.21875 35.40625 
Q 43.21875 41.609375 39.140625 45 
Q 35.0625 48.390625 27.6875 48.390625 
Q 23 48.390625 18.546875 47.265625 
Q 14.109375 46.140625 10.015625 43.890625 
L 10.015625 52.203125 
Q 14.9375 54.109375 19.578125 55.046875 
Q 24.21875 56 28.609375 56 
Q 40.484375 56 46.34375 49.84375 
Q 52.203125 43.703125 52.203125 31.203125 
z
" id="DejaVuSans-61"/>
      <path d="M 31 75.875 
Q 24.46875 64.65625 21.28125 53.65625 
Q 18.109375 42.671875 18.109375 31.390625 
Q 18.109375 20.125 21.3125 9.0625 
Q 24.515625 -2 31 -13.1875 
L 23.1875 -13.1875 
Q 15.875 -1.703125 12.234375 9.375 
Q 8.59375 20.453125 8.59375 31.390625 
Q 8.59375 42.28125 12.203125 53.3125 
Q 15.828125 64.359375 23.1875 75.875 
z
" id="DejaVuSans-28"/>
      <path d="M 9.078125 75.984375 
L 18.109375 75.984375 
L 18.109375 31.109375 
L 44.921875 54.6875 
L 56.390625 54.6875 
L 27.390625 29.109375 
L 57.625 0 
L 45.90625 0 
L 18.109375 26.703125 
L 18.109375 0 
L 9.078125 0 
z
" id="DejaVuSans-6b"/>
      <path d="M 9.8125 72.90625 
L 19.671875 72.90625 
L 19.671875 43.015625 
L 55.515625 43.015625 
L 55.515625 72.90625 
L 65.375 72.90625 
L 65.375 0 
L 55.515625 0 
L 55.515625 34.71875 
L 19.671875 34.71875 
L 19.671875 0 
L 9.8125 0 
z
" id="DejaVuSans-48"/>
      <path d="M 5.515625 54.6875 
L 48.1875 54.6875 
L 48.1875 46.484375 
L 14.40625 7.171875 
L 48.1875 7.171875 
L 48.1875 0 
L 4.296875 0 
L 4.296875 8.203125 
L 38.09375 47.515625 
L 5.515625 47.515625 
z
" id="DejaVuSans-7a"/>
      <path d="M 8.015625 75.875 
L 15.828125 75.875 
Q 23.140625 64.359375 26.78125 53.3125 
Q 30.421875 42.28125 30.421875 31.390625 
Q 30.421875 20.453125 26.78125 9.375 
Q 23.140625 -1.703125 15.828125 -13.1875 
L 8.015625 -13.1875 
Q 14.5 -2 17.703125 9.0625 
Q 20.90625 20.125 20.90625 31.390625 
Q 20.90625 42.671875 17.703125 53.65625 
Q 14.5 64.65625 8.015625 75.875 
z
" id="DejaVuSans-29"/>
     </defs>
     <g transform="translate(104.501406 338.262312)scale(0.2 -0.2)">
      <use xlink:href="#DejaVuSans-44"/>
      <use x="77.001953" xlink:href="#DejaVuSans-65"/>
      <use x="138.525391" xlink:href="#DejaVuSans-74"/>
      <use x="177.734375" xlink:href="#DejaVuSans-75"/>
      <use x="241.113281" xlink:href="#DejaVuSans-6e"/>
      <use x="304.492188" xlink:href="#DejaVuSans-69"/>
      <use x="332.275391" xlink:href="#DejaVuSans-6e"/>
      <use x="395.654297" xlink:href="#DejaVuSans-67"/>
      <use x="459.130859" xlink:href="#DejaVuSans-20"/>
      <use x="490.917969" xlink:href="#DejaVuSans-66"/>
      <use x="526.123047" xlink:href="#DejaVuSans-72"/>
      <use x="567.205078" xlink:href="#DejaVuSans-6f"/>
      <use x="628.386719" xlink:href="#DejaVuSans-6d"/>
      <use x="725.798828" xlink:href="#DejaVuSans-20"/>
      <use x="757.585938" xlink:href="#DejaVuSans-63"/>
      <use x="812.566406" xlink:href="#DejaVuSans-61"/>
      <use x="873.845703" xlink:href="#DejaVuSans-72"/>
      <use x="914.943359" xlink:href="#DejaVuSans-72"/>
      <use x="956.056641" xlink:href="#DejaVuSans-69"/>
      <use x="983.839844" xlink:href="#DejaVuSans-65"/>
      <use x="1045.363281" xlink:href="#DejaVuSans-72"/>
      <use x="1086.476562" xlink:href="#DejaVuSans-20"/>
      <use x="1118.263672" xlink:href="#DejaVuSans-28"/>
      <use x="1157.277344" xlink:href="#DejaVuSans-6b"/>
      <use x="1215.1875" xlink:href="#DejaVuSans-48"/>
      <use x="1290.382812" xlink:href="#DejaVuSans-7a"/>
      <use x="1342.873047" xlink:href="#DejaVuSans-29"/>
     </g>
    </g>
   </g>
   <g id="matplotlib.axis_2">
    <g id="ytick_1">
     <g id="line2d_9">
      <path clip-path="url(#p730392adf7)" d="M 64.127344 297.54825 
L 421.247344 297.54825 
" style="fill:none;stroke:#b0b0b0;stroke-linecap:square;stroke-width:0.8;"/>
     </g>
     <g id="line2d_10">
      <defs>
       <path d="M 0 0 
L -3.5 0 
" id="m6de8575f47" style="stroke:#000000;stroke-width:0.8;"/>
      </defs>
      <g>
       <use style="stroke:#000000;stroke-width:0.8;" x="64.127344" xlink:href="#m6de8575f47" y="297.54825"/>
      </g>
     </g>
     <g id="text_6">
      <!-- 0.0 -->
      <defs>
       <path d="M 10.203125 18.890625 
L 27.78125 18.890625 
L 27.78125 0 
L 10.203125 0 
z
" id="DejaVuSans-Bold-2e"/>
      </defs>
      <g transform="translate(30.55625 303.247078)scale(0.15 -0.15)">
       <use xlink:href="#DejaVuSans-Bold-30"/>
       <use x="69.580078" xlink:href="#DejaVuSans-Bold-2e"/>
       <use x="107.568359" xlink:href="#DejaVuSans-Bold-30"/>
      </g>
     </g>
    </g>
    <g id="ytick_2">
     <g id="line2d_11">
      <path clip-path="url(#p730392adf7)" d="M 64.127344 244.32585 
L 421.247344 244.32585 
" style="fill:none;stroke:#b0b0b0;stroke-linecap:square;stroke-width:0.8;"/>
     </g>
     <g id="line2d_12">
      <g>
       <use style="stroke:#000000;stroke-width:0.8;" x="64.127344" xlink:href="#m6de8575f47" y="244.32585"/>
      </g>
     </g>
     <g id="text_7">
      <!-- 0.2 -->
      <defs>
       <path d="M 28.8125 13.8125 
L 60.890625 13.8125 
L 60.890625 0 
L 7.90625 0 
L 7.90625 13.8125 
L 34.515625 37.3125 
Q 38.09375 40.53125 39.796875 43.609375 
Q 41.5 46.6875 41.5 50 
Q 41.5 55.125 38.0625 58.25 
Q 34.625 61.375 28.90625 61.375 
Q 24.515625 61.375 19.28125 59.5 
Q 14.0625 57.625 8.109375 53.90625 
L 8.109375 69.921875 
Q 14.453125 72.015625 20.65625 73.109375 
Q 26.859375 74.21875 32.8125 74.21875 
Q 45.90625 74.21875 53.15625 68.453125 
Q 60.40625 62.703125 60.40625 52.390625 
Q 60.40625 46.4375 57.328125 41.28125 
Q 54.25 36.140625 44.390625 27.484375 
z
" id="DejaVuSans-Bold-32"/>
      </defs>
      <g transform="translate(30.55625 250.024678)scale(0.15 -0.15)">
       <use xlink:href="#DejaVuSans-Bold-30"/>
       <use x="69.580078" xlink:href="#DejaVuSans-Bold-2e"/>
       <use x="107.568359" xlink:href="#DejaVuSans-Bold-32"/>
      </g>
     </g>
    </g>
    <g id="ytick_3">
     <g id="line2d_13">
      <path clip-path="url(#p730392adf7)" d="M 64.127344 191.10345 
L 421.247344 191.10345 
" style="fill:none;stroke:#b0b0b0;stroke-linecap:square;stroke-width:0.8;"/>
     </g>
     <g id="line2d_14">
      <g>
       <use style="stroke:#000000;stroke-width:0.8;" x="64.127344" xlink:href="#m6de8575f47" y="191.10345"/>
      </g>
     </g>
     <g id="text_8">
      <!-- 0.4 -->
      <defs>
       <path d="M 36.8125 57.421875 
L 16.21875 26.90625 
L 36.8125 26.90625 
z
M 33.6875 72.90625 
L 54.59375 72.90625 
L 54.59375 26.90625 
L 64.984375 26.90625 
L 64.984375 13.28125 
L 54.59375 13.28125 
L 54.59375 0 
L 36.8125 0 
L 36.8125 13.28125 
L 4.5 13.28125 
L 4.5 29.390625 
z
" id="DejaVuSans-Bold-34"/>
      </defs>
      <g transform="translate(30.55625 196.802278)scale(0.15 -0.15)">
       <use xlink:href="#DejaVuSans-Bold-30"/>
       <use x="69.580078" xlink:href="#DejaVuSans-Bold-2e"/>
       <use x="107.568359" xlink:href="#DejaVuSans-Bold-34"/>
      </g>
     </g>
    </g>
    <g id="ytick_4">
     <g id="line2d_15">
      <path clip-path="url(#p730392adf7)" d="M 64.127344 137.88105 
L 421.247344 137.88105 
" style="fill:none;stroke:#b0b0b0;stroke-linecap:square;stroke-width:0.8;"/>
     </g>
     <g id="line2d_16">
      <g>
       <use style="stroke:#000000;stroke-width:0.8;" x="64.127344" xlink:href="#m6de8575f47" y="137.88105"/>
      </g>
     </g>
     <g id="text_9">
      <!-- 0.6 -->
      <defs>
       <path d="M 36.1875 35.984375 
Q 31.25 35.984375 28.78125 32.78125 
Q 26.3125 29.59375 26.3125 23.1875 
Q 26.3125 16.796875 28.78125 13.59375 
Q 31.25 10.40625 36.1875 10.40625 
Q 41.15625 10.40625 43.625 13.59375 
Q 46.09375 16.796875 46.09375 23.1875 
Q 46.09375 29.59375 43.625 32.78125 
Q 41.15625 35.984375 36.1875 35.984375 
z
M 59.421875 71 
L 59.421875 57.515625 
Q 54.78125 59.71875 50.671875 60.765625 
Q 46.578125 61.8125 42.671875 61.8125 
Q 34.28125 61.8125 29.59375 57.140625 
Q 24.90625 52.484375 24.125 43.3125 
Q 27.34375 45.703125 31.09375 46.890625 
Q 34.859375 48.09375 39.3125 48.09375 
Q 50.484375 48.09375 57.34375 41.546875 
Q 64.203125 35.015625 64.203125 24.421875 
Q 64.203125 12.703125 56.53125 5.640625 
Q 48.875 -1.421875 35.984375 -1.421875 
Q 21.78125 -1.421875 13.984375 8.171875 
Q 6.203125 17.78125 6.203125 35.40625 
Q 6.203125 53.46875 15.3125 63.796875 
Q 24.421875 74.125 40.28125 74.125 
Q 45.3125 74.125 50.046875 73.34375 
Q 54.78125 72.5625 59.421875 71 
z
" id="DejaVuSans-Bold-36"/>
      </defs>
      <g transform="translate(30.55625 143.579878)scale(0.15 -0.15)">
       <use xlink:href="#DejaVuSans-Bold-30"/>
       <use x="69.580078" xlink:href="#DejaVuSans-Bold-2e"/>
       <use x="107.568359" xlink:href="#DejaVuSans-Bold-36"/>
      </g>
     </g>
    </g>
    <g id="ytick_5">
     <g id="line2d_17">
      <path clip-path="url(#p730392adf7)" d="M 64.127344 84.65865 
L 421.247344 84.65865 
" style="fill:none;stroke:#b0b0b0;stroke-linecap:square;stroke-width:0.8;"/>
     </g>
     <g id="line2d_18">
      <g>
       <use style="stroke:#000000;stroke-width:0.8;" x="64.127344" xlink:href="#m6de8575f47" y="84.65865"/>
      </g>
     </g>
     <g id="text_10">
      <!-- 0.8 -->
      <defs>
       <path d="M 34.8125 32.625 
Q 29.546875 32.625 26.703125 29.734375 
Q 23.875 26.859375 23.875 21.484375 
Q 23.875 16.109375 26.703125 13.25 
Q 29.546875 10.40625 34.8125 10.40625 
Q 40.046875 10.40625 42.828125 13.25 
Q 45.609375 16.109375 45.609375 21.484375 
Q 45.609375 26.90625 42.828125 29.765625 
Q 40.046875 32.625 34.8125 32.625 
z
M 21.09375 38.8125 
Q 14.453125 40.828125 11.078125 44.96875 
Q 7.71875 49.125 7.71875 55.328125 
Q 7.71875 64.546875 14.59375 69.375 
Q 21.484375 74.21875 34.8125 74.21875 
Q 48.046875 74.21875 54.921875 69.40625 
Q 61.8125 64.59375 61.8125 55.328125 
Q 61.8125 49.125 58.421875 44.96875 
Q 55.03125 40.828125 48.390625 38.8125 
Q 55.8125 36.765625 59.59375 32.15625 
Q 63.375 27.546875 63.375 20.515625 
Q 63.375 9.671875 56.171875 4.125 
Q 48.96875 -1.421875 34.8125 -1.421875 
Q 20.609375 -1.421875 13.359375 4.125 
Q 6.109375 9.671875 6.109375 20.515625 
Q 6.109375 27.546875 9.890625 32.15625 
Q 13.671875 36.765625 21.09375 38.8125 
z
M 25.484375 53.421875 
Q 25.484375 49.078125 27.90625 46.734375 
Q 30.328125 44.390625 34.8125 44.390625 
Q 39.203125 44.390625 41.59375 46.734375 
Q 44 49.078125 44 53.421875 
Q 44 57.765625 41.59375 60.078125 
Q 39.203125 62.40625 34.8125 62.40625 
Q 30.328125 62.40625 27.90625 60.0625 
Q 25.484375 57.71875 25.484375 53.421875 
z
" id="DejaVuSans-Bold-38"/>
      </defs>
      <g transform="translate(30.55625 90.357478)scale(0.15 -0.15)">
       <use xlink:href="#DejaVuSans-Bold-30"/>
       <use x="69.580078" xlink:href="#DejaVuSans-Bold-2e"/>
       <use x="107.568359" xlink:href="#DejaVuSans-Bold-38"/>
      </g>
     </g>
    </g>
    <g id="ytick_6">
     <g id="line2d_19">
      <path clip-path="url(#p730392adf7)" d="M 64.127344 31.43625 
L 421.247344 31.43625 
" style="fill:none;stroke:#b0b0b0;stroke-linecap:square;stroke-width:0.8;"/>
     </g>
     <g id="line2d_20">
      <g>
       <use style="stroke:#000000;stroke-width:0.8;" x="64.127344" xlink:href="#m6de8575f47" y="31.43625"/>
      </g>
     </g>
     <g id="text_11">
      <!-- 1.0 -->
      <g transform="translate(30.55625 37.135078)scale(0.15 -0.15)">
       <use xlink:href="#DejaVuSans-Bold-31"/>
       <use x="69.580078" xlink:href="#DejaVuSans-Bold-2e"/>
       <use x="107.568359" xlink:href="#DejaVuSans-Bold-30"/>
      </g>
     </g>
    </g>
    <g id="text_12">
     <!-- Survival -->
     <defs>
      <path d="M 53.515625 70.515625 
L 53.515625 60.890625 
Q 47.90625 63.578125 42.921875 64.890625 
Q 37.9375 66.21875 33.296875 66.21875 
Q 25.25 66.21875 20.875 63.09375 
Q 16.5 59.96875 16.5 54.203125 
Q 16.5 49.359375 19.40625 46.890625 
Q 22.3125 44.4375 30.421875 42.921875 
L 36.375 41.703125 
Q 47.40625 39.59375 52.65625 34.296875 
Q 57.90625 29 57.90625 20.125 
Q 57.90625 9.515625 50.796875 4.046875 
Q 43.703125 -1.421875 29.984375 -1.421875 
Q 24.8125 -1.421875 18.96875 -0.25 
Q 13.140625 0.921875 6.890625 3.21875 
L 6.890625 13.375 
Q 12.890625 10.015625 18.65625 8.296875 
Q 24.421875 6.59375 29.984375 6.59375 
Q 38.421875 6.59375 43.015625 9.90625 
Q 47.609375 13.234375 47.609375 19.390625 
Q 47.609375 24.75 44.3125 27.78125 
Q 41.015625 30.8125 33.5 32.328125 
L 27.484375 33.5 
Q 16.453125 35.6875 11.515625 40.375 
Q 6.59375 45.0625 6.59375 53.421875 
Q 6.59375 63.09375 13.40625 68.65625 
Q 20.21875 74.21875 32.171875 74.21875 
Q 37.3125 74.21875 42.625 73.28125 
Q 47.953125 72.359375 53.515625 70.515625 
z
" id="DejaVuSans-53"/>
      <path d="M 2.984375 54.6875 
L 12.5 54.6875 
L 29.59375 8.796875 
L 46.6875 54.6875 
L 56.203125 54.6875 
L 35.6875 0 
L 23.484375 0 
z
" id="DejaVuSans-76"/>
      <path d="M 9.421875 75.984375 
L 18.40625 75.984375 
L 18.40625 0 
L 9.421875 0 
z
" id="DejaVuSans-6c"/>
     </defs>
     <g transform="translate(22.396875 204.811)rotate(-90)scale(0.2 -0.2)">
      <use xlink:href="#DejaVuSans-53"/>
      <use x="63.476562" xlink:href="#DejaVuSans-75"/>
      <use x="126.855469" xlink:href="#DejaVuSans-72"/>
      <use x="167.96875" xlink:href="#DejaVuSans-76"/>
      <use x="227.148438" xlink:href="#DejaVuSans-69"/>
      <use x="254.931641" xlink:href="#DejaVuSans-76"/>
      <use x="314.111328" xlink:href="#DejaVuSans-61"/>
      <use x="375.390625" xlink:href="#DejaVuSans-6c"/>
     </g>
    </g>
   </g>
   <g id="LineCollection_1">
    <path clip-path="url(#p730392adf7)" d="M 80.360071 296.215464 
L 80.360071 292.261335 
" style="fill:none;stroke:#1f77b4;stroke-width:1.5;"/>
    <path clip-path="url(#p730392adf7)" d="M 83.967344 297.070657 
L 83.967344 294.295301 
" style="fill:none;stroke:#1f77b4;stroke-width:1.5;"/>
    <path clip-path="url(#p730392adf7)" d="M 87.574616 297.029196 
L 87.574616 294.014837 
" style="fill:none;stroke:#1f77b4;stroke-width:1.5;"/>
    <path clip-path="url(#p730392adf7)" d="M 91.181889 297.54825 
L 91.181889 296.183573 
" style="fill:none;stroke:#1f77b4;stroke-width:1.5;"/>
    <path clip-path="url(#p730392adf7)" d="M 94.789162 296.152552 
L 94.789162 292.013948 
" style="fill:none;stroke:#1f77b4;stroke-width:1.5;"/>
    <path clip-path="url(#p730392adf7)" d="M 98.396435 295.226462 
L 98.396435 290.366038 
" style="fill:none;stroke:#1f77b4;stroke-width:1.5;"/>
    <path clip-path="url(#p730392adf7)" d="M 102.003707 292.385897 
L 102.003707 286.078603 
" style="fill:none;stroke:#1f77b4;stroke-width:1.5;"/>
    <path clip-path="url(#p730392adf7)" d="M 105.61098 295.295933 
L 105.61098 290.578864 
" style="fill:none;stroke:#1f77b4;stroke-width:1.5;"/>
    <path clip-path="url(#p730392adf7)" d="M 109.218253 261.931019 
L 109.218253 248.063674 
" style="fill:none;stroke:#1f77b4;stroke-width:1.5;"/>
    <path clip-path="url(#p730392adf7)" d="M 112.825526 207.397916 
L 112.825526 189.691077 
" style="fill:none;stroke:#1f77b4;stroke-width:1.5;"/>
    <path clip-path="url(#p730392adf7)" d="M 116.432798 142.639769 
L 116.432798 124.206904 
" style="fill:none;stroke:#1f77b4;stroke-width:1.5;"/>
    <path clip-path="url(#p730392adf7)" d="M 120.040071 110.395232 
L 120.040071 92.925268 
" style="fill:none;stroke:#1f77b4;stroke-width:1.5;"/>
    <path clip-path="url(#p730392adf7)" d="M 123.647344 158.086229 
L 123.647344 139.020271 
" style="fill:none;stroke:#1f77b4;stroke-width:1.5;"/>
    <path clip-path="url(#p730392adf7)" d="M 127.254616 224.281545 
L 127.254616 207.346155 
" style="fill:none;stroke:#1f77b4;stroke-width:1.5;"/>
    <path clip-path="url(#p730392adf7)" d="M 130.861889 279.457889 
L 130.861889 268.425191 
" style="fill:none;stroke:#1f77b4;stroke-width:1.5;"/>
    <path clip-path="url(#p730392adf7)" d="M 134.469162 291.280182 
L 134.469162 284.439231 
" style="fill:none;stroke:#1f77b4;stroke-width:1.5;"/>
    <path clip-path="url(#p730392adf7)" d="M 138.076435 288.254146 
L 138.076435 279.804236 
" style="fill:none;stroke:#1f77b4;stroke-width:1.5;"/>
    <path clip-path="url(#p730392adf7)" d="M 141.683707 293.013476 
L 141.683707 286.67654 
" style="fill:none;stroke:#1f77b4;stroke-width:1.5;"/>
    <path clip-path="url(#p730392adf7)" d="M 145.29098 293.17602 
L 145.29098 287.061434 
" style="fill:none;stroke:#1f77b4;stroke-width:1.5;"/>
    <path clip-path="url(#p730392adf7)" d="M 148.898253 296.122644 
L 148.898253 291.896409 
" style="fill:none;stroke:#1f77b4;stroke-width:1.5;"/>
    <path clip-path="url(#p730392adf7)" d="M 152.505526 295.152569 
L 152.505526 290.139804 
" style="fill:none;stroke:#1f77b4;stroke-width:1.5;"/>
   </g>
   <g id="LineCollection_2">
    <path clip-path="url(#p730392adf7)" d="M 260.723707 296.159834 
L 260.723707 292.042573 
" style="fill:none;stroke:#1f77b4;stroke-width:1.5;"/>
    <path clip-path="url(#p730392adf7)" d="M 264.33098 297.54825 
L 264.33098 296.287056 
" style="fill:none;stroke:#1f77b4;stroke-width:1.5;"/>
    <path clip-path="url(#p730392adf7)" d="M 267.938253 296.331271 
L 267.938253 292.717229 
" style="fill:none;stroke:#1f77b4;stroke-width:1.5;"/>
    <path clip-path="url(#p730392adf7)" d="M 271.545526 297.026532 
L 271.545526 293.996825 
" style="fill:none;stroke:#1f77b4;stroke-width:1.5;"/>
    <path clip-path="url(#p730392adf7)" d="M 275.152798 297.066126 
L 275.152798 294.264638 
" style="fill:none;stroke:#1f77b4;stroke-width:1.5;"/>
    <path clip-path="url(#p730392adf7)" d="M 278.760071 297.068402 
L 278.760071 294.280042 
" style="fill:none;stroke:#1f77b4;stroke-width:1.5;"/>
    <path clip-path="url(#p730392adf7)" d="M 282.367344 291.249319 
L 282.367344 284.375572 
" style="fill:none;stroke:#1f77b4;stroke-width:1.5;"/>
    <path clip-path="url(#p730392adf7)" d="M 285.974616 295.284645 
L 285.974616 290.544273 
" style="fill:none;stroke:#1f77b4;stroke-width:1.5;"/>
    <path clip-path="url(#p730392adf7)" d="M 289.581889 297.026532 
L 289.581889 293.996825 
" style="fill:none;stroke:#1f77b4;stroke-width:1.5;"/>
    <path clip-path="url(#p730392adf7)" d="M 293.189162 296.279031 
L 293.189162 292.511497 
" style="fill:none;stroke:#1f77b4;stroke-width:1.5;"/>
    <path clip-path="url(#p730392adf7)" d="M 296.796435 287.09759 
L 296.796435 278.273633 
" style="fill:none;stroke:#1f77b4;stroke-width:1.5;"/>
    <path clip-path="url(#p730392adf7)" d="M 300.403707 287.580349 
L 300.403707 279.148882 
" style="fill:none;stroke:#1f77b4;stroke-width:1.5;"/>
    <path clip-path="url(#p730392adf7)" d="M 304.01098 291.800495 
L 304.01098 284.79624 
" style="fill:none;stroke:#1f77b4;stroke-width:1.5;"/>
    <path clip-path="url(#p730392adf7)" d="M 307.618253 291.459191 
L 307.618253 284.80863 
" style="fill:none;stroke:#1f77b4;stroke-width:1.5;"/>
    <path clip-path="url(#p730392adf7)" d="M 311.225526 296.24164 
L 311.225526 292.364324 
" style="fill:none;stroke:#1f77b4;stroke-width:1.5;"/>
    <path clip-path="url(#p730392adf7)" d="M 314.832798 296.174172 
L 314.832798 292.098943 
" style="fill:none;stroke:#1f77b4;stroke-width:1.5;"/>
    <path clip-path="url(#p730392adf7)" d="M 318.440071 292.122765 
L 318.440071 285.501735 
" style="fill:none;stroke:#1f77b4;stroke-width:1.5;"/>
    <path clip-path="url(#p730392adf7)" d="M 322.047344 294.210385 
L 322.047344 288.666687 
" style="fill:none;stroke:#1f77b4;stroke-width:1.5;"/>
    <path clip-path="url(#p730392adf7)" d="M 325.654616 297.54825 
L 325.654616 296.176539 
" style="fill:none;stroke:#1f77b4;stroke-width:1.5;"/>
    <path clip-path="url(#p730392adf7)" d="M 329.261889 297.042119 
L 329.261889 294.102222 
" style="fill:none;stroke:#1f77b4;stroke-width:1.5;"/>
    <path clip-path="url(#p730392adf7)" d="M 332.869162 290.818547 
L 332.869162 283.487953 
" style="fill:none;stroke:#1f77b4;stroke-width:1.5;"/>
   </g>
   <g id="LineCollection_3">
    <path clip-path="url(#p730392adf7)" d="M 350.905526 295.382342 
L 350.905526 290.843758 
" style="fill:none;stroke:#1f77b4;stroke-width:1.5;"/>
    <path clip-path="url(#p730392adf7)" d="M 354.512798 297.054414 
L 354.512798 294.18539 
" style="fill:none;stroke:#1f77b4;stroke-width:1.5;"/>
    <path clip-path="url(#p730392adf7)" d="M 358.120071 292.177516 
L 358.120071 285.621704 
" style="fill:none;stroke:#1f77b4;stroke-width:1.5;"/>
    <path clip-path="url(#p730392adf7)" d="M 361.727344 293.689722 
L 361.727344 288.280177 
" style="fill:none;stroke:#1f77b4;stroke-width:1.5;"/>
    <path clip-path="url(#p730392adf7)" d="M 365.334616 295.16521 
L 365.334616 290.178494 
" style="fill:none;stroke:#1f77b4;stroke-width:1.5;"/>
    <path clip-path="url(#p730392adf7)" d="M 368.941889 295.238337 
L 368.941889 290.402407 
" style="fill:none;stroke:#1f77b4;stroke-width:1.5;"/>
    <path clip-path="url(#p730392adf7)" d="M 372.549162 292.864216 
L 372.549162 286.323414 
" style="fill:none;stroke:#1f77b4;stroke-width:1.5;"/>
    <path clip-path="url(#p730392adf7)" d="M 376.156435 295.350727 
L 376.156435 290.746816 
" style="fill:none;stroke:#1f77b4;stroke-width:1.5;"/>
    <path clip-path="url(#p730392adf7)" d="M 379.763707 297.042119 
L 379.763707 294.102222 
" style="fill:none;stroke:#1f77b4;stroke-width:1.5;"/>
    <path clip-path="url(#p730392adf7)" d="M 383.37098 297.054414 
L 383.37098 294.18539 
" style="fill:none;stroke:#1f77b4;stroke-width:1.5;"/>
    <path clip-path="url(#p730392adf7)" d="M 386.978253 296.099358 
L 386.978253 291.804926 
" style="fill:none;stroke:#1f77b4;stroke-width:1.5;"/>
    <path clip-path="url(#p730392adf7)" d="M 390.585526 297.54825 
L 390.585526 296.250143 
" style="fill:none;stroke:#1f77b4;stroke-width:1.5;"/>
    <path clip-path="url(#p730392adf7)" d="M 394.192798 295.30711 
L 394.192798 290.613115 
" style="fill:none;stroke:#1f77b4;stroke-width:1.5;"/>
    <path clip-path="url(#p730392adf7)" d="M 397.800071 294.310319 
L 397.800071 288.929705 
" style="fill:none;stroke:#1f77b4;stroke-width:1.5;"/>
    <path clip-path="url(#p730392adf7)" d="M 401.407344 295.100638 
L 401.407344 289.980895 
" style="fill:none;stroke:#1f77b4;stroke-width:1.5;"/>
    <path clip-path="url(#p730392adf7)" d="M 405.014616 297.031834 
L 405.014616 294.032666 
" style="fill:none;stroke:#1f77b4;stroke-width:1.5;"/>
   </g>
   <g id="LineCollection_4">
    <path clip-path="url(#p730392adf7)" d="M 80.360071 293.971181 
L 80.360071 288.037844 
" style="fill:none;stroke:#ff7f0e;stroke-width:1.5;"/>
    <path clip-path="url(#p730392adf7)" d="M 83.967344 293.153517 
L 83.967344 287.008126 
" style="fill:none;stroke:#ff7f0e;stroke-width:1.5;"/>
    <path clip-path="url(#p730392adf7)" d="M 87.574616 296.998305 
L 87.574616 293.806066 
" style="fill:none;stroke:#ff7f0e;stroke-width:1.5;"/>
    <path clip-path="url(#p730392adf7)" d="M 91.181889 297.054414 
L 91.181889 294.18539 
" style="fill:none;stroke:#ff7f0e;stroke-width:1.5;"/>
    <path clip-path="url(#p730392adf7)" d="M 94.789162 295.350727 
L 94.789162 290.746816 
" style="fill:none;stroke:#ff7f0e;stroke-width:1.5;"/>
    <path clip-path="url(#p730392adf7)" d="M 98.396435 297.052003 
L 98.396435 294.169079 
" style="fill:none;stroke:#ff7f0e;stroke-width:1.5;"/>
    <path clip-path="url(#p730392adf7)" d="M 102.003707 295.318175 
L 102.003707 290.64703 
" style="fill:none;stroke:#ff7f0e;stroke-width:1.5;"/>
    <path clip-path="url(#p730392adf7)" d="M 105.61098 295.329133 
L 105.61098 290.680616 
" style="fill:none;stroke:#ff7f0e;stroke-width:1.5;"/>
    <path clip-path="url(#p730392adf7)" d="M 109.218253 294.210385 
L 109.218253 288.666687 
" style="fill:none;stroke:#ff7f0e;stroke-width:1.5;"/>
    <path clip-path="url(#p730392adf7)" d="M 112.825526 290.484458 
L 112.825526 283.472304 
" style="fill:none;stroke:#ff7f0e;stroke-width:1.5;"/>
    <path clip-path="url(#p730392adf7)" d="M 116.432798 244.8878 
L 116.432798 229.12774 
" style="fill:none;stroke:#ff7f0e;stroke-width:1.5;"/>
    <path clip-path="url(#p730392adf7)" d="M 120.040071 181.438044 
L 120.040071 162.973238 
" style="fill:none;stroke:#ff7f0e;stroke-width:1.5;"/>
    <path clip-path="url(#p730392adf7)" d="M 123.647344 96.65055 
L 123.647344 81.53715 
" style="fill:none;stroke:#ff7f0e;stroke-width:1.5;"/>
    <path clip-path="url(#p730392adf7)" d="M 127.254616 130.480137 
L 127.254616 113.445732 
" style="fill:none;stroke:#ff7f0e;stroke-width:1.5;"/>
    <path clip-path="url(#p730392adf7)" d="M 130.861889 184.438889 
L 130.861889 165.728656 
" style="fill:none;stroke:#ff7f0e;stroke-width:1.5;"/>
    <path clip-path="url(#p730392adf7)" d="M 134.469162 246.334347 
L 134.469162 230.335347 
" style="fill:none;stroke:#ff7f0e;stroke-width:1.5;"/>
    <path clip-path="url(#p730392adf7)" d="M 138.076435 291.057562 
L 138.076435 283.980244 
" style="fill:none;stroke:#ff7f0e;stroke-width:1.5;"/>
    <path clip-path="url(#p730392adf7)" d="M 141.683707 294.085706 
L 141.683707 288.338794 
" style="fill:none;stroke:#ff7f0e;stroke-width:1.5;"/>
    <path clip-path="url(#p730392adf7)" d="M 145.29098 293.448902 
L 145.29098 287.708398 
" style="fill:none;stroke:#ff7f0e;stroke-width:1.5;"/>
    <path clip-path="url(#p730392adf7)" d="M 148.898253 291.341009 
L 148.898253 284.564721 
" style="fill:none;stroke:#ff7f0e;stroke-width:1.5;"/>
    <path clip-path="url(#p730392adf7)" d="M 152.505526 295.060187 
L 152.505526 289.857165 
" style="fill:none;stroke:#ff7f0e;stroke-width:1.5;"/>
   </g>
   <g id="LineCollection_5">
    <path clip-path="url(#p730392adf7)" d="M 260.723707 297.068402 
L 260.723707 294.280042 
" style="fill:none;stroke:#ff7f0e;stroke-width:1.5;"/>
    <path clip-path="url(#p730392adf7)" d="M 264.33098 296.083407 
L 264.33098 291.742274 
" style="fill:none;stroke:#ff7f0e;stroke-width:1.5;"/>
    <path clip-path="url(#p730392adf7)" d="M 267.938253 295.382342 
L 267.938253 290.843758 
" style="fill:none;stroke:#ff7f0e;stroke-width:1.5;"/>
    <path clip-path="url(#p730392adf7)" d="M 271.545526 296.188217 
L 271.545526 292.154171 
" style="fill:none;stroke:#ff7f0e;stroke-width:1.5;"/>
    <path clip-path="url(#p730392adf7)" d="M 275.152798 297.068402 
L 275.152798 294.280042 
" style="fill:none;stroke:#ff7f0e;stroke-width:1.5;"/>
    <path clip-path="url(#p730392adf7)" d="M 278.760071 297.54825 
L 278.760071 296.176539 
" style="fill:none;stroke:#ff7f0e;stroke-width:1.5;"/>
    <path clip-path="url(#p730392adf7)" d="M 282.367344 296.181231 
L 282.367344 292.126698 
" style="fill:none;stroke:#ff7f0e;stroke-width:1.5;"/>
    <path clip-path="url(#p730392adf7)" d="M 285.974616 294.577178 
L 285.974616 289.632922 
" style="fill:none;stroke:#ff7f0e;stroke-width:1.5;"/>
    <path clip-path="url(#p730392adf7)" d="M 289.581889 285.371974 
L 289.581889 276.293371 
" style="fill:none;stroke:#ff7f0e;stroke-width:1.5;"/>
    <path clip-path="url(#p730392adf7)" d="M 293.189162 276.296056 
L 293.189162 264.746444 
" style="fill:none;stroke:#ff7f0e;stroke-width:1.5;"/>
    <path clip-path="url(#p730392adf7)" d="M 296.796435 266.679843 
L 296.796435 254.006192 
" style="fill:none;stroke:#ff7f0e;stroke-width:1.5;"/>
    <path clip-path="url(#p730392adf7)" d="M 300.403707 272.113731 
L 300.403707 259.622769 
" style="fill:none;stroke:#ff7f0e;stroke-width:1.5;"/>
    <path clip-path="url(#p730392adf7)" d="M 304.01098 286.418521 
L 304.01098 277.609066 
" style="fill:none;stroke:#ff7f0e;stroke-width:1.5;"/>
    <path clip-path="url(#p730392adf7)" d="M 307.618253 295.139794 
L 307.618253 290.100706 
" style="fill:none;stroke:#ff7f0e;stroke-width:1.5;"/>
    <path clip-path="url(#p730392adf7)" d="M 311.225526 295.261725 
L 311.225526 290.474051 
" style="fill:none;stroke:#ff7f0e;stroke-width:1.5;"/>
    <path clip-path="url(#p730392adf7)" d="M 314.832798 296.137756 
L 314.832798 291.955796 
" style="fill:none;stroke:#ff7f0e;stroke-width:1.5;"/>
    <path clip-path="url(#p730392adf7)" d="M 318.440071 296.16704 
L 318.440071 292.070903 
" style="fill:none;stroke:#ff7f0e;stroke-width:1.5;"/>
    <path clip-path="url(#p730392adf7)" d="M 322.047344 294.193126 
L 322.047344 288.621282 
" style="fill:none;stroke:#ff7f0e;stroke-width:1.5;"/>
    <path clip-path="url(#p730392adf7)" d="M 325.654616 297.083752 
L 325.654616 294.383948 
" style="fill:none;stroke:#ff7f0e;stroke-width:1.5;"/>
    <path clip-path="url(#p730392adf7)" d="M 329.261889 295.202343 
L 329.261889 290.292178 
" style="fill:none;stroke:#ff7f0e;stroke-width:1.5;"/>
    <path clip-path="url(#p730392adf7)" d="M 332.869162 296.291024 
L 332.869162 292.558716 
" style="fill:none;stroke:#ff7f0e;stroke-width:1.5;"/>
   </g>
   <g id="LineCollection_6">
    <path clip-path="url(#p730392adf7)" d="M 350.905526 296.122644 
L 350.905526 291.896409 
" style="fill:none;stroke:#ff7f0e;stroke-width:1.5;"/>
    <path clip-path="url(#p730392adf7)" d="M 354.512798 293.971181 
L 354.512798 288.037844 
" style="fill:none;stroke:#ff7f0e;stroke-width:1.5;"/>
    <path clip-path="url(#p730392adf7)" d="M 358.120071 295.350727 
L 358.120071 290.746816 
" style="fill:none;stroke:#ff7f0e;stroke-width:1.5;"/>
    <path clip-path="url(#p730392adf7)" d="M 361.727344 297.001265 
L 361.727344 293.826059 
" style="fill:none;stroke:#ff7f0e;stroke-width:1.5;"/>
    <path clip-path="url(#p730392adf7)" d="M 365.334616 296.181231 
L 365.334616 292.126698 
" style="fill:none;stroke:#ff7f0e;stroke-width:1.5;"/>
    <path clip-path="url(#p730392adf7)" d="M 368.941889 297.037028 
L 368.941889 294.067792 
" style="fill:none;stroke:#ff7f0e;stroke-width:1.5;"/>
    <path clip-path="url(#p730392adf7)" d="M 372.549162 295.273243 
L 372.549162 290.509337 
" style="fill:none;stroke:#ff7f0e;stroke-width:1.5;"/>
    <path clip-path="url(#p730392adf7)" d="M 376.156435 297.54825 
L 376.156435 296.03625 
" style="fill:none;stroke:#ff7f0e;stroke-width:1.5;"/>
    <path clip-path="url(#p730392adf7)" d="M 379.763707 297.054414 
L 379.763707 294.18539 
" style="fill:none;stroke:#ff7f0e;stroke-width:1.5;"/>
    <path clip-path="url(#p730392adf7)" d="M 383.37098 292.231172 
L 383.37098 285.739308 
" style="fill:none;stroke:#ff7f0e;stroke-width:1.5;"/>
    <path clip-path="url(#p730392adf7)" d="M 386.978253 287.580349 
L 386.978253 279.148882 
" style="fill:none;stroke:#ff7f0e;stroke-width:1.5;"/>
    <path clip-path="url(#p730392adf7)" d="M 390.585526 296.291024 
L 390.585526 292.558716 
" style="fill:none;stroke:#ff7f0e;stroke-width:1.5;"/>
    <path clip-path="url(#p730392adf7)" d="M 394.192798 292.484139 
L 394.192798 286.294172 
" style="fill:none;stroke:#ff7f0e;stroke-width:1.5;"/>
    <path clip-path="url(#p730392adf7)" d="M 397.800071 297.021121 
L 397.800071 293.960245 
" style="fill:none;stroke:#ff7f0e;stroke-width:1.5;"/>
    <path clip-path="url(#p730392adf7)" d="M 401.407344 295.295933 
L 401.407344 290.578864 
" style="fill:none;stroke:#ff7f0e;stroke-width:1.5;"/>
    <path clip-path="url(#p730392adf7)" d="M 405.014616 297.54825 
L 405.014616 296.20425 
" style="fill:none;stroke:#ff7f0e;stroke-width:1.5;"/>
   </g>
   <g id="line2d_21">
    <path clip-path="url(#p730392adf7)" d="M 64.127344 51.45924 
L 421.247344 51.45924 
" style="fill:none;stroke:#1f77b4;stroke-dasharray:5.55,2.4;stroke-dashoffset:0;stroke-width:1.5;"/>
   </g>
   <g id="line2d_22">
    <path clip-path="url(#p730392adf7)" d="M 64.127344 57.777286 
L 421.247344 57.777286 
" style="fill:none;stroke:#ff7f0e;stroke-dasharray:5.55,2.4;stroke-dashoffset:0;stroke-width:1.5;"/>
   </g>
   <g id="line2d_23">
    <path clip-path="url(#p730392adf7)" d="M 80.360071 294.238399 
L 83.967344 295.682979 
L 87.574616 295.522016 
L 91.181889 296.865912 
L 94.789162 294.08325 
L 98.396435 292.79625 
L 102.003707 289.23225 
L 105.61098 292.937399 
L 109.218253 254.997346 
L 112.825526 198.544496 
L 116.432798 133.423336 
L 120.040071 101.66025 
L 123.647344 148.55325 
L 127.254616 215.81385 
L 130.861889 273.94154 
L 134.469162 287.859706 
L 138.076435 284.029191 
L 141.683707 289.845008 
L 145.29098 290.118727 
L 148.898253 294.009527 
L 152.505526 292.646187 
" style="fill:none;stroke:#1f77b4;stroke-linecap:square;stroke-width:1.5;"/>
    <defs>
     <path d="M 0 1.5 
C 0.397805 1.5 0.77937 1.341951 1.06066 1.06066 
C 1.341951 0.77937 1.5 0.397805 1.5 0 
C 1.5 -0.397805 1.341951 -0.77937 1.06066 -1.06066 
C 0.77937 -1.341951 0.397805 -1.5 0 -1.5 
C -0.397805 -1.5 -0.77937 -1.341951 -1.06066 -1.06066 
C -1.341951 -0.77937 -1.5 -0.397805 -1.5 0 
C -1.5 0.397805 -1.341951 0.77937 -1.06066 1.06066 
C -0.77937 1.341951 -0.397805 1.5 0 1.5 
z
" id="mea70e95bd9" style="stroke:#1f77b4;"/>
    </defs>
    <g clip-path="url(#p730392adf7)">
     <use style="fill:#1f77b4;stroke:#1f77b4;" x="80.360071" xlink:href="#mea70e95bd9" y="294.238399"/>
     <use style="fill:#1f77b4;stroke:#1f77b4;" x="83.967344" xlink:href="#mea70e95bd9" y="295.682979"/>
     <use style="fill:#1f77b4;stroke:#1f77b4;" x="87.574616" xlink:href="#mea70e95bd9" y="295.522016"/>
     <use style="fill:#1f77b4;stroke:#1f77b4;" x="91.181889" xlink:href="#mea70e95bd9" y="296.865912"/>
     <use style="fill:#1f77b4;stroke:#1f77b4;" x="94.789162" xlink:href="#mea70e95bd9" y="294.08325"/>
     <use style="fill:#1f77b4;stroke:#1f77b4;" x="98.396435" xlink:href="#mea70e95bd9" y="292.79625"/>
     <use style="fill:#1f77b4;stroke:#1f77b4;" x="102.003707" xlink:href="#mea70e95bd9" y="289.23225"/>
     <use style="fill:#1f77b4;stroke:#1f77b4;" x="105.61098" xlink:href="#mea70e95bd9" y="292.937399"/>
     <use style="fill:#1f77b4;stroke:#1f77b4;" x="109.218253" xlink:href="#mea70e95bd9" y="254.997346"/>
     <use style="fill:#1f77b4;stroke:#1f77b4;" x="112.825526" xlink:href="#mea70e95bd9" y="198.544496"/>
     <use style="fill:#1f77b4;stroke:#1f77b4;" x="116.432798" xlink:href="#mea70e95bd9" y="133.423336"/>
     <use style="fill:#1f77b4;stroke:#1f77b4;" x="120.040071" xlink:href="#mea70e95bd9" y="101.66025"/>
     <use style="fill:#1f77b4;stroke:#1f77b4;" x="123.647344" xlink:href="#mea70e95bd9" y="148.55325"/>
     <use style="fill:#1f77b4;stroke:#1f77b4;" x="127.254616" xlink:href="#mea70e95bd9" y="215.81385"/>
     <use style="fill:#1f77b4;stroke:#1f77b4;" x="130.861889" xlink:href="#mea70e95bd9" y="273.94154"/>
     <use style="fill:#1f77b4;stroke:#1f77b4;" x="134.469162" xlink:href="#mea70e95bd9" y="287.859706"/>
     <use style="fill:#1f77b4;stroke:#1f77b4;" x="138.076435" xlink:href="#mea70e95bd9" y="284.029191"/>
     <use style="fill:#1f77b4;stroke:#1f77b4;" x="141.683707" xlink:href="#mea70e95bd9" y="289.845008"/>
     <use style="fill:#1f77b4;stroke:#1f77b4;" x="145.29098" xlink:href="#mea70e95bd9" y="290.118727"/>
     <use style="fill:#1f77b4;stroke:#1f77b4;" x="148.898253" xlink:href="#mea70e95bd9" y="294.009527"/>
     <use style="fill:#1f77b4;stroke:#1f77b4;" x="152.505526" xlink:href="#mea70e95bd9" y="292.646187"/>
    </g>
   </g>
   <g id="line2d_24">
    <path clip-path="url(#p730392adf7)" d="M 260.723707 294.101203 
L 264.33098 296.917653 
L 267.938253 294.52425 
L 271.545526 295.511679 
L 275.152798 295.665382 
L 278.760071 295.674222 
L 282.367344 287.812445 
L 285.974616 292.914459 
L 289.581889 295.511679 
L 293.189162 294.395264 
L 296.796435 282.685612 
L 300.403707 283.364615 
L 304.01098 288.298368 
L 307.618253 288.13391 
L 311.225526 294.302982 
L 314.832798 294.136558 
L 318.440071 288.81225 
L 322.047344 291.438536 
L 325.654616 296.862394 
L 329.261889 295.572171 
L 332.869162 287.15325 
" style="fill:none;stroke:#1f77b4;stroke-linecap:square;stroke-width:1.5;"/>
    <g clip-path="url(#p730392adf7)">
     <use style="fill:#1f77b4;stroke:#1f77b4;" x="260.723707" xlink:href="#mea70e95bd9" y="294.101203"/>
     <use style="fill:#1f77b4;stroke:#1f77b4;" x="264.33098" xlink:href="#mea70e95bd9" y="296.917653"/>
     <use style="fill:#1f77b4;stroke:#1f77b4;" x="267.938253" xlink:href="#mea70e95bd9" y="294.52425"/>
     <use style="fill:#1f77b4;stroke:#1f77b4;" x="271.545526" xlink:href="#mea70e95bd9" y="295.511679"/>
     <use style="fill:#1f77b4;stroke:#1f77b4;" x="275.152798" xlink:href="#mea70e95bd9" y="295.665382"/>
     <use style="fill:#1f77b4;stroke:#1f77b4;" x="278.760071" xlink:href="#mea70e95bd9" y="295.674222"/>
     <use style="fill:#1f77b4;stroke:#1f77b4;" x="282.367344" xlink:href="#mea70e95bd9" y="287.812445"/>
     <use style="fill:#1f77b4;stroke:#1f77b4;" x="285.974616" xlink:href="#mea70e95bd9" y="292.914459"/>
     <use style="fill:#1f77b4;stroke:#1f77b4;" x="289.581889" xlink:href="#mea70e95bd9" y="295.511679"/>
     <use style="fill:#1f77b4;stroke:#1f77b4;" x="293.189162" xlink:href="#mea70e95bd9" y="294.395264"/>
     <use style="fill:#1f77b4;stroke:#1f77b4;" x="296.796435" xlink:href="#mea70e95bd9" y="282.685612"/>
     <use style="fill:#1f77b4;stroke:#1f77b4;" x="300.403707" xlink:href="#mea70e95bd9" y="283.364615"/>
     <use style="fill:#1f77b4;stroke:#1f77b4;" x="304.01098" xlink:href="#mea70e95bd9" y="288.298368"/>
     <use style="fill:#1f77b4;stroke:#1f77b4;" x="307.618253" xlink:href="#mea70e95bd9" y="288.13391"/>
     <use style="fill:#1f77b4;stroke:#1f77b4;" x="311.225526" xlink:href="#mea70e95bd9" y="294.302982"/>
     <use style="fill:#1f77b4;stroke:#1f77b4;" x="314.832798" xlink:href="#mea70e95bd9" y="294.136558"/>
     <use style="fill:#1f77b4;stroke:#1f77b4;" x="318.440071" xlink:href="#mea70e95bd9" y="288.81225"/>
     <use style="fill:#1f77b4;stroke:#1f77b4;" x="322.047344" xlink:href="#mea70e95bd9" y="291.438536"/>
     <use style="fill:#1f77b4;stroke:#1f77b4;" x="325.654616" xlink:href="#mea70e95bd9" y="296.862394"/>
     <use style="fill:#1f77b4;stroke:#1f77b4;" x="329.261889" xlink:href="#mea70e95bd9" y="295.572171"/>
     <use style="fill:#1f77b4;stroke:#1f77b4;" x="332.869162" xlink:href="#mea70e95bd9" y="287.15325"/>
    </g>
   </g>
   <g id="line2d_25">
    <path clip-path="url(#p730392adf7)" d="M 350.905526 293.11305 
L 354.512798 295.619902 
L 358.120071 288.89961 
L 361.727344 290.98495 
L 365.334616 292.671852 
L 368.941889 292.820372 
L 372.549162 289.593815 
L 376.156435 293.048772 
L 379.763707 295.572171 
L 383.37098 295.619902 
L 386.978253 293.952142 
L 390.585526 296.899196 
L 394.192798 292.960112 
L 397.800071 291.620012 
L 401.407344 292.540766 
L 405.014616 295.53225 
" style="fill:none;stroke:#1f77b4;stroke-linecap:square;stroke-width:1.5;"/>
    <g clip-path="url(#p730392adf7)">
     <use style="fill:#1f77b4;stroke:#1f77b4;" x="350.905526" xlink:href="#mea70e95bd9" y="293.11305"/>
     <use style="fill:#1f77b4;stroke:#1f77b4;" x="354.512798" xlink:href="#mea70e95bd9" y="295.619902"/>
     <use style="fill:#1f77b4;stroke:#1f77b4;" x="358.120071" xlink:href="#mea70e95bd9" y="288.89961"/>
     <use style="fill:#1f77b4;stroke:#1f77b4;" x="361.727344" xlink:href="#mea70e95bd9" y="290.98495"/>
     <use style="fill:#1f77b4;stroke:#1f77b4;" x="365.334616" xlink:href="#mea70e95bd9" y="292.671852"/>
     <use style="fill:#1f77b4;stroke:#1f77b4;" x="368.941889" xlink:href="#mea70e95bd9" y="292.820372"/>
     <use style="fill:#1f77b4;stroke:#1f77b4;" x="372.549162" xlink:href="#mea70e95bd9" y="289.593815"/>
     <use style="fill:#1f77b4;stroke:#1f77b4;" x="376.156435" xlink:href="#mea70e95bd9" y="293.048772"/>
     <use style="fill:#1f77b4;stroke:#1f77b4;" x="379.763707" xlink:href="#mea70e95bd9" y="295.572171"/>
     <use style="fill:#1f77b4;stroke:#1f77b4;" x="383.37098" xlink:href="#mea70e95bd9" y="295.619902"/>
     <use style="fill:#1f77b4;stroke:#1f77b4;" x="386.978253" xlink:href="#mea70e95bd9" y="293.952142"/>
     <use style="fill:#1f77b4;stroke:#1f77b4;" x="390.585526" xlink:href="#mea70e95bd9" y="296.899196"/>
     <use style="fill:#1f77b4;stroke:#1f77b4;" x="394.192798" xlink:href="#mea70e95bd9" y="292.960112"/>
     <use style="fill:#1f77b4;stroke:#1f77b4;" x="397.800071" xlink:href="#mea70e95bd9" y="291.620012"/>
     <use style="fill:#1f77b4;stroke:#1f77b4;" x="401.407344" xlink:href="#mea70e95bd9" y="292.540766"/>
     <use style="fill:#1f77b4;stroke:#1f77b4;" x="405.014616" xlink:href="#mea70e95bd9" y="295.53225"/>
    </g>
   </g>
   <g id="line2d_26">
    <path clip-path="url(#p730392adf7)" d="M 80.360071 291.004512 
L 83.967344 290.080821 
L 87.574616 295.402185 
L 91.181889 295.619902 
L 94.789162 293.048772 
L 98.396435 295.610541 
L 102.003707 292.982603 
L 105.61098 293.004874 
L 109.218253 291.438536 
L 112.825526 286.978381 
L 116.432798 237.00777 
L 120.040071 172.205641 
L 123.647344 89.09385 
L 127.254616 121.962935 
L 130.861889 175.083772 
L 134.469162 238.334847 
L 138.076435 287.518903 
L 141.683707 291.21225 
L 145.29098 290.57865 
L 148.898253 287.952865 
L 152.505526 292.458676 
" style="fill:none;stroke:#ff7f0e;stroke-linecap:square;stroke-width:1.5;"/>
    <defs>
     <path d="M 0 1.5 
C 0.397805 1.5 0.77937 1.341951 1.06066 1.06066 
C 1.341951 0.77937 1.5 0.397805 1.5 0 
C 1.5 -0.397805 1.341951 -0.77937 1.06066 -1.06066 
C 0.77937 -1.341951 0.397805 -1.5 0 -1.5 
C -0.397805 -1.5 -0.77937 -1.341951 -1.06066 -1.06066 
C -1.341951 -0.77937 -1.5 -0.397805 -1.5 0 
C -1.5 0.397805 -1.341951 0.77937 -1.06066 1.06066 
C -0.77937 1.341951 -0.397805 1.5 0 1.5 
z
" id="m2e79176bb6" style="stroke:#ff7f0e;"/>
    </defs>
    <g clip-path="url(#p730392adf7)">
     <use style="fill:#ff7f0e;stroke:#ff7f0e;" x="80.360071" xlink:href="#m2e79176bb6" y="291.004512"/>
     <use style="fill:#ff7f0e;stroke:#ff7f0e;" x="83.967344" xlink:href="#m2e79176bb6" y="290.080821"/>
     <use style="fill:#ff7f0e;stroke:#ff7f0e;" x="87.574616" xlink:href="#m2e79176bb6" y="295.402185"/>
     <use style="fill:#ff7f0e;stroke:#ff7f0e;" x="91.181889" xlink:href="#m2e79176bb6" y="295.619902"/>
     <use style="fill:#ff7f0e;stroke:#ff7f0e;" x="94.789162" xlink:href="#m2e79176bb6" y="293.048772"/>
     <use style="fill:#ff7f0e;stroke:#ff7f0e;" x="98.396435" xlink:href="#m2e79176bb6" y="295.610541"/>
     <use style="fill:#ff7f0e;stroke:#ff7f0e;" x="102.003707" xlink:href="#m2e79176bb6" y="292.982603"/>
     <use style="fill:#ff7f0e;stroke:#ff7f0e;" x="105.61098" xlink:href="#m2e79176bb6" y="293.004874"/>
     <use style="fill:#ff7f0e;stroke:#ff7f0e;" x="109.218253" xlink:href="#m2e79176bb6" y="291.438536"/>
     <use style="fill:#ff7f0e;stroke:#ff7f0e;" x="112.825526" xlink:href="#m2e79176bb6" y="286.978381"/>
     <use style="fill:#ff7f0e;stroke:#ff7f0e;" x="116.432798" xlink:href="#m2e79176bb6" y="237.00777"/>
     <use style="fill:#ff7f0e;stroke:#ff7f0e;" x="120.040071" xlink:href="#m2e79176bb6" y="172.205641"/>
     <use style="fill:#ff7f0e;stroke:#ff7f0e;" x="123.647344" xlink:href="#m2e79176bb6" y="89.09385"/>
     <use style="fill:#ff7f0e;stroke:#ff7f0e;" x="127.254616" xlink:href="#m2e79176bb6" y="121.962935"/>
     <use style="fill:#ff7f0e;stroke:#ff7f0e;" x="130.861889" xlink:href="#m2e79176bb6" y="175.083772"/>
     <use style="fill:#ff7f0e;stroke:#ff7f0e;" x="134.469162" xlink:href="#m2e79176bb6" y="238.334847"/>
     <use style="fill:#ff7f0e;stroke:#ff7f0e;" x="138.076435" xlink:href="#m2e79176bb6" y="287.518903"/>
     <use style="fill:#ff7f0e;stroke:#ff7f0e;" x="141.683707" xlink:href="#m2e79176bb6" y="291.21225"/>
     <use style="fill:#ff7f0e;stroke:#ff7f0e;" x="145.29098" xlink:href="#m2e79176bb6" y="290.57865"/>
     <use style="fill:#ff7f0e;stroke:#ff7f0e;" x="148.898253" xlink:href="#m2e79176bb6" y="287.952865"/>
     <use style="fill:#ff7f0e;stroke:#ff7f0e;" x="152.505526" xlink:href="#m2e79176bb6" y="292.458676"/>
    </g>
   </g>
   <g id="line2d_27">
    <path clip-path="url(#p730392adf7)" d="M 260.723707 295.674222 
L 264.33098 293.91284 
L 267.938253 293.11305 
L 271.545526 294.171194 
L 275.152798 295.674222 
L 278.760071 296.862394 
L 282.367344 294.153964 
L 285.974616 292.10505 
L 289.581889 280.832672 
L 293.189162 270.52125 
L 296.796435 260.343018 
L 300.403707 265.86825 
L 304.01098 282.013793 
L 307.618253 292.62025 
L 311.225526 292.867888 
L 314.832798 294.046776 
L 318.440071 294.118972 
L 322.047344 291.407204 
L 325.654616 295.73385 
L 329.261889 292.74726 
L 332.869162 294.42487 
" style="fill:none;stroke:#ff7f0e;stroke-linecap:square;stroke-width:1.5;"/>
    <g clip-path="url(#p730392adf7)">
     <use style="fill:#ff7f0e;stroke:#ff7f0e;" x="260.723707" xlink:href="#m2e79176bb6" y="295.674222"/>
     <use style="fill:#ff7f0e;stroke:#ff7f0e;" x="264.33098" xlink:href="#m2e79176bb6" y="293.91284"/>
     <use style="fill:#ff7f0e;stroke:#ff7f0e;" x="267.938253" xlink:href="#m2e79176bb6" y="293.11305"/>
     <use style="fill:#ff7f0e;stroke:#ff7f0e;" x="271.545526" xlink:href="#m2e79176bb6" y="294.171194"/>
     <use style="fill:#ff7f0e;stroke:#ff7f0e;" x="275.152798" xlink:href="#m2e79176bb6" y="295.674222"/>
     <use style="fill:#ff7f0e;stroke:#ff7f0e;" x="278.760071" xlink:href="#m2e79176bb6" y="296.862394"/>
     <use style="fill:#ff7f0e;stroke:#ff7f0e;" x="282.367344" xlink:href="#m2e79176bb6" y="294.153964"/>
     <use style="fill:#ff7f0e;stroke:#ff7f0e;" x="285.974616" xlink:href="#m2e79176bb6" y="292.10505"/>
     <use style="fill:#ff7f0e;stroke:#ff7f0e;" x="289.581889" xlink:href="#m2e79176bb6" y="280.832672"/>
     <use style="fill:#ff7f0e;stroke:#ff7f0e;" x="293.189162" xlink:href="#m2e79176bb6" y="270.52125"/>
     <use style="fill:#ff7f0e;stroke:#ff7f0e;" x="296.796435" xlink:href="#m2e79176bb6" y="260.343018"/>
     <use style="fill:#ff7f0e;stroke:#ff7f0e;" x="300.403707" xlink:href="#m2e79176bb6" y="265.86825"/>
     <use style="fill:#ff7f0e;stroke:#ff7f0e;" x="304.01098" xlink:href="#m2e79176bb6" y="282.013793"/>
     <use style="fill:#ff7f0e;stroke:#ff7f0e;" x="307.618253" xlink:href="#m2e79176bb6" y="292.62025"/>
     <use style="fill:#ff7f0e;stroke:#ff7f0e;" x="311.225526" xlink:href="#m2e79176bb6" y="292.867888"/>
     <use style="fill:#ff7f0e;stroke:#ff7f0e;" x="314.832798" xlink:href="#m2e79176bb6" y="294.046776"/>
     <use style="fill:#ff7f0e;stroke:#ff7f0e;" x="318.440071" xlink:href="#m2e79176bb6" y="294.118972"/>
     <use style="fill:#ff7f0e;stroke:#ff7f0e;" x="322.047344" xlink:href="#m2e79176bb6" y="291.407204"/>
     <use style="fill:#ff7f0e;stroke:#ff7f0e;" x="325.654616" xlink:href="#m2e79176bb6" y="295.73385"/>
     <use style="fill:#ff7f0e;stroke:#ff7f0e;" x="329.261889" xlink:href="#m2e79176bb6" y="292.74726"/>
     <use style="fill:#ff7f0e;stroke:#ff7f0e;" x="332.869162" xlink:href="#m2e79176bb6" y="294.42487"/>
    </g>
   </g>
   <g id="line2d_28">
    <path clip-path="url(#p730392adf7)" d="M 350.905526 294.009527 
L 354.512798 291.004512 
L 358.120071 293.048772 
L 361.727344 295.413662 
L 365.334616 294.153964 
L 368.941889 295.55241 
L 372.549162 292.89129 
L 376.156435 296.79225 
L 379.763707 295.619902 
L 383.37098 288.98524 
L 386.978253 283.364615 
L 390.585526 294.42487 
L 394.192798 289.389156 
L 397.800071 295.490683 
L 401.407344 292.937399 
L 405.014616 296.87625 
" style="fill:none;stroke:#ff7f0e;stroke-linecap:square;stroke-width:1.5;"/>
    <g clip-path="url(#p730392adf7)">
     <use style="fill:#ff7f0e;stroke:#ff7f0e;" x="350.905526" xlink:href="#m2e79176bb6" y="294.009527"/>
     <use style="fill:#ff7f0e;stroke:#ff7f0e;" x="354.512798" xlink:href="#m2e79176bb6" y="291.004512"/>
     <use style="fill:#ff7f0e;stroke:#ff7f0e;" x="358.120071" xlink:href="#m2e79176bb6" y="293.048772"/>
     <use style="fill:#ff7f0e;stroke:#ff7f0e;" x="361.727344" xlink:href="#m2e79176bb6" y="295.413662"/>
     <use style="fill:#ff7f0e;stroke:#ff7f0e;" x="365.334616" xlink:href="#m2e79176bb6" y="294.153964"/>
     <use style="fill:#ff7f0e;stroke:#ff7f0e;" x="368.941889" xlink:href="#m2e79176bb6" y="295.55241"/>
     <use style="fill:#ff7f0e;stroke:#ff7f0e;" x="372.549162" xlink:href="#m2e79176bb6" y="292.89129"/>
     <use style="fill:#ff7f0e;stroke:#ff7f0e;" x="376.156435" xlink:href="#m2e79176bb6" y="296.79225"/>
     <use style="fill:#ff7f0e;stroke:#ff7f0e;" x="379.763707" xlink:href="#m2e79176bb6" y="295.619902"/>
     <use style="fill:#ff7f0e;stroke:#ff7f0e;" x="383.37098" xlink:href="#m2e79176bb6" y="288.98524"/>
     <use style="fill:#ff7f0e;stroke:#ff7f0e;" x="386.978253" xlink:href="#m2e79176bb6" y="283.364615"/>
     <use style="fill:#ff7f0e;stroke:#ff7f0e;" x="390.585526" xlink:href="#m2e79176bb6" y="294.42487"/>
     <use style="fill:#ff7f0e;stroke:#ff7f0e;" x="394.192798" xlink:href="#m2e79176bb6" y="289.389156"/>
     <use style="fill:#ff7f0e;stroke:#ff7f0e;" x="397.800071" xlink:href="#m2e79176bb6" y="295.490683"/>
     <use style="fill:#ff7f0e;stroke:#ff7f0e;" x="401.407344" xlink:href="#m2e79176bb6" y="292.937399"/>
     <use style="fill:#ff7f0e;stroke:#ff7f0e;" x="405.014616" xlink:href="#m2e79176bb6" y="296.87625"/>
    </g>
   </g>
   <g id="patch_3">
    <path d="M 64.127344 297.54825 
L 64.127344 31.43625 
" style="fill:none;stroke:#000000;stroke-linecap:square;stroke-linejoin:miter;stroke-width:0.8;"/>
   </g>
   <g id="patch_4">
    <path d="M 421.247344 297.54825 
L 421.247344 31.43625 
" style="fill:none;stroke:#000000;stroke-linecap:square;stroke-linejoin:miter;stroke-width:0.8;"/>
   </g>
   <g id="patch_5">
    <path d="M 64.127344 297.54825 
L 421.247344 297.54825 
" style="fill:none;stroke:#000000;stroke-linecap:square;stroke-linejoin:miter;stroke-width:0.8;"/>
   </g>
   <g id="patch_6">
    <path d="M 64.127344 31.43625 
L 421.247344 31.43625 
" style="fill:none;stroke:#000000;stroke-linecap:square;stroke-linejoin:miter;stroke-width:0.8;"/>
   </g>
   <g id="text_13">
    <!-- Axis Y (radial) -->
    <defs>
     <path d="M 34.1875 63.1875 
L 20.796875 26.90625 
L 47.609375 26.90625 
z
M 28.609375 72.90625 
L 39.796875 72.90625 
L 67.578125 0 
L 57.328125 0 
L 50.6875 18.703125 
L 17.828125 18.703125 
L 11.1875 0 
L 0.78125 0 
z
" id="DejaVuSans-41"/>
     <path d="M 54.890625 54.6875 
L 35.109375 28.078125 
L 55.90625 0 
L 45.3125 0 
L 29.390625 21.484375 
L 13.484375 0 
L 2.875 0 
L 24.125 28.609375 
L 4.6875 54.6875 
L 15.28125 54.6875 
L 29.78125 35.203125 
L 44.28125 54.6875 
z
" id="DejaVuSans-78"/>
     <path d="M 44.28125 53.078125 
L 44.28125 44.578125 
Q 40.484375 46.53125 36.375 47.5 
Q 32.28125 48.484375 27.875 48.484375 
Q 21.1875 48.484375 17.84375 46.4375 
Q 14.5 44.390625 14.5 40.28125 
Q 14.5 37.15625 16.890625 35.375 
Q 19.28125 33.59375 26.515625 31.984375 
L 29.59375 31.296875 
Q 39.15625 29.25 43.1875 25.515625 
Q 47.21875 21.78125 47.21875 15.09375 
Q 47.21875 7.46875 41.1875 3.015625 
Q 35.15625 -1.421875 24.609375 -1.421875 
Q 20.21875 -1.421875 15.453125 -0.5625 
Q 10.6875 0.296875 5.421875 2 
L 5.421875 11.28125 
Q 10.40625 8.6875 15.234375 7.390625 
Q 20.0625 6.109375 24.8125 6.109375 
Q 31.15625 6.109375 34.5625 8.28125 
Q 37.984375 10.453125 37.984375 14.40625 
Q 37.984375 18.0625 35.515625 20.015625 
Q 33.0625 21.96875 24.703125 23.78125 
L 21.578125 24.515625 
Q 13.234375 26.265625 9.515625 29.90625 
Q 5.8125 33.546875 5.8125 39.890625 
Q 5.8125 47.609375 11.28125 51.796875 
Q 16.75 56 26.8125 56 
Q 31.78125 56 36.171875 55.265625 
Q 40.578125 54.546875 44.28125 53.078125 
z
" id="DejaVuSans-73"/>
     <path d="M -0.203125 72.90625 
L 10.40625 72.90625 
L 30.609375 42.921875 
L 50.6875 72.90625 
L 61.28125 72.90625 
L 35.5 34.71875 
L 35.5 0 
L 25.59375 0 
L 25.59375 34.71875 
z
" id="DejaVuSans-59"/>
     <path d="M 45.40625 46.390625 
L 45.40625 75.984375 
L 54.390625 75.984375 
L 54.390625 0 
L 45.40625 0 
L 45.40625 8.203125 
Q 42.578125 3.328125 38.25 0.953125 
Q 33.9375 -1.421875 27.875 -1.421875 
Q 17.96875 -1.421875 11.734375 6.484375 
Q 5.515625 14.40625 5.515625 27.296875 
Q 5.515625 40.1875 11.734375 48.09375 
Q 17.96875 56 27.875 56 
Q 33.9375 56 38.25 53.625 
Q 42.578125 51.265625 45.40625 46.390625 
z
M 14.796875 27.296875 
Q 14.796875 17.390625 18.875 11.75 
Q 22.953125 6.109375 30.078125 6.109375 
Q 37.203125 6.109375 41.296875 11.75 
Q 45.40625 17.390625 45.40625 27.296875 
Q 45.40625 37.203125 41.296875 42.84375 
Q 37.203125 48.484375 30.078125 48.484375 
Q 22.953125 48.484375 18.875 42.84375 
Q 14.796875 37.203125 14.796875 27.296875 
z
" id="DejaVuSans-64"/>
    </defs>
    <g transform="translate(159.544219 25.43625)scale(0.24 -0.24)">
     <use xlink:href="#DejaVuSans-41"/>
     <use x="68.408203" xlink:href="#DejaVuSans-78"/>
     <use x="127.587891" xlink:href="#DejaVuSans-69"/>
     <use x="155.371094" xlink:href="#DejaVuSans-73"/>
     <use x="207.470703" xlink:href="#DejaVuSans-20"/>
     <use x="239.257812" xlink:href="#DejaVuSans-59"/>
     <use x="300.341797" xlink:href="#DejaVuSans-20"/>
     <use x="332.128906" xlink:href="#DejaVuSans-28"/>
     <use x="371.142578" xlink:href="#DejaVuSans-72"/>
     <use x="412.255859" xlink:href="#DejaVuSans-61"/>
     <use x="473.535156" xlink:href="#DejaVuSans-64"/>
     <use x="537.011719" xlink:href="#DejaVuSans-69"/>
     <use x="564.794922" xlink:href="#DejaVuSans-61"/>
     <use x="626.074219" xlink:href="#DejaVuSans-6c"/>
     <use x="653.857422" xlink:href="#DejaVuSans-29"/>
    </g>
   </g>
   <g id="legend_1">
    <g id="patch_7">
     <path d="M 233.656719 197.00475 
L 407.247344 197.00475 
Q 411.247344 197.00475 411.247344 193.00475 
L 411.247344 135.97975 
Q 411.247344 131.97975 407.247344 131.97975 
L 233.656719 131.97975 
Q 229.656719 131.97975 229.656719 135.97975 
L 229.656719 193.00475 
Q 229.656719 197.00475 233.656719 197.00475 
z
" style="fill:#ffffff;opacity:0.8;stroke:#cccccc;stroke-linejoin:miter;"/>
    </g>
    <g id="LineCollection_7">
     <path d="M 257.656719 158.176625 
L 257.656719 138.176625 
" style="fill:none;stroke:#1f77b4;stroke-width:1.5;"/>
    </g>
    <g id="line2d_29">
     <path d="M 237.656719 148.176625 
L 277.656719 148.176625 
" style="fill:none;stroke:#1f77b4;stroke-linecap:square;stroke-width:1.5;"/>
    </g>
    <g id="line2d_30">
     <g>
      <use style="fill:#1f77b4;stroke:#1f77b4;" x="257.656719" xlink:href="#mea70e95bd9" y="148.176625"/>
     </g>
    </g>
    <g id="text_14">
     <!-- No merge -->
     <defs>
      <path d="M 9.1875 72.90625 
L 30.171875 72.90625 
L 56.6875 22.90625 
L 56.6875 72.90625 
L 74.515625 72.90625 
L 74.515625 0 
L 53.515625 0 
L 27 50 
L 27 0 
L 9.1875 0 
z
" id="DejaVuSans-Bold-4e"/>
      <path d="M 34.421875 43.5 
Q 28.609375 43.5 25.5625 39.328125 
Q 22.515625 35.15625 22.515625 27.296875 
Q 22.515625 19.4375 25.5625 15.25 
Q 28.609375 11.078125 34.421875 11.078125 
Q 40.140625 11.078125 43.15625 15.25 
Q 46.1875 19.4375 46.1875 27.296875 
Q 46.1875 35.15625 43.15625 39.328125 
Q 40.140625 43.5 34.421875 43.5 
z
M 34.421875 56 
Q 48.53125 56 56.46875 48.375 
Q 64.40625 40.765625 64.40625 27.296875 
Q 64.40625 13.8125 56.46875 6.1875 
Q 48.53125 -1.421875 34.421875 -1.421875 
Q 20.265625 -1.421875 12.28125 6.1875 
Q 4.296875 13.8125 4.296875 27.296875 
Q 4.296875 40.765625 12.28125 48.375 
Q 20.265625 56 34.421875 56 
z
" id="DejaVuSans-Bold-6f"/>
      <path id="DejaVuSans-Bold-20"/>
      <path d="M 59.078125 45.609375 
Q 62.40625 50.6875 66.96875 53.34375 
Q 71.53125 56 77 56 
Q 86.421875 56 91.359375 50.1875 
Q 96.296875 44.390625 96.296875 33.296875 
L 96.296875 0 
L 78.71875 0 
L 78.71875 28.515625 
Q 78.765625 29.15625 78.78125 29.828125 
Q 78.8125 30.515625 78.8125 31.78125 
Q 78.8125 37.59375 77.09375 40.203125 
Q 75.390625 42.828125 71.578125 42.828125 
Q 66.609375 42.828125 63.890625 38.71875 
Q 61.1875 34.625 61.078125 26.859375 
L 61.078125 0 
L 43.5 0 
L 43.5 28.515625 
Q 43.5 37.59375 41.9375 40.203125 
Q 40.375 42.828125 36.375 42.828125 
Q 31.34375 42.828125 28.609375 38.703125 
Q 25.875 34.578125 25.875 26.90625 
L 25.875 0 
L 8.296875 0 
L 8.296875 54.6875 
L 25.875 54.6875 
L 25.875 46.6875 
Q 29.109375 51.3125 33.28125 53.65625 
Q 37.453125 56 42.484375 56 
Q 48.140625 56 52.484375 53.265625 
Q 56.84375 50.53125 59.078125 45.609375 
z
" id="DejaVuSans-Bold-6d"/>
      <path d="M 62.984375 27.484375 
L 62.984375 22.515625 
L 22.125 22.515625 
Q 22.75 16.359375 26.5625 13.28125 
Q 30.375 10.203125 37.203125 10.203125 
Q 42.71875 10.203125 48.5 11.84375 
Q 54.296875 13.484375 60.40625 16.796875 
L 60.40625 3.328125 
Q 54.203125 0.984375 48 -0.21875 
Q 41.796875 -1.421875 35.59375 -1.421875 
Q 20.75 -1.421875 12.515625 6.125 
Q 4.296875 13.671875 4.296875 27.296875 
Q 4.296875 40.671875 12.375 48.328125 
Q 20.453125 56 34.625 56 
Q 47.515625 56 55.25 48.234375 
Q 62.984375 40.484375 62.984375 27.484375 
z
M 45.015625 33.296875 
Q 45.015625 38.28125 42.109375 41.328125 
Q 39.203125 44.390625 34.515625 44.390625 
Q 29.4375 44.390625 26.265625 41.53125 
Q 23.09375 38.671875 22.3125 33.296875 
z
" id="DejaVuSans-Bold-65"/>
      <path d="M 49.03125 39.796875 
Q 46.734375 40.875 44.453125 41.375 
Q 42.1875 41.890625 39.890625 41.890625 
Q 33.15625 41.890625 29.515625 37.5625 
Q 25.875 33.25 25.875 25.203125 
L 25.875 0 
L 8.40625 0 
L 8.40625 54.6875 
L 25.875 54.6875 
L 25.875 45.703125 
Q 29.25 51.078125 33.609375 53.53125 
Q 37.984375 56 44.09375 56 
Q 44.96875 56 45.984375 55.921875 
Q 47.015625 55.859375 48.96875 55.609375 
z
" id="DejaVuSans-Bold-72"/>
      <path d="M 45.609375 9.28125 
Q 42 4.5 37.640625 2.25 
Q 33.296875 0 27.59375 0 
Q 17.578125 0 11.03125 7.875 
Q 4.5 15.765625 4.5 27.984375 
Q 4.5 40.234375 11.03125 48.0625 
Q 17.578125 55.90625 27.59375 55.90625 
Q 33.296875 55.90625 37.640625 53.65625 
Q 42 51.421875 45.609375 46.578125 
L 45.609375 54.6875 
L 63.1875 54.6875 
L 63.1875 5.515625 
Q 63.1875 -7.671875 54.859375 -14.625 
Q 46.53125 -21.578125 30.71875 -21.578125 
Q 25.59375 -21.578125 20.796875 -20.796875 
Q 16.015625 -20.015625 11.1875 -18.40625 
L 11.1875 -4.78125 
Q 15.765625 -7.421875 20.15625 -8.71875 
Q 24.5625 -10.015625 29 -10.015625 
Q 37.59375 -10.015625 41.59375 -6.25 
Q 45.609375 -2.484375 45.609375 5.515625 
z
M 34.078125 43.3125 
Q 28.65625 43.3125 25.625 39.296875 
Q 22.609375 35.296875 22.609375 27.984375 
Q 22.609375 20.453125 25.53125 16.578125 
Q 28.46875 12.703125 34.078125 12.703125 
Q 39.546875 12.703125 42.578125 16.703125 
Q 45.609375 20.703125 45.609375 27.984375 
Q 45.609375 35.296875 42.578125 39.296875 
Q 39.546875 43.3125 34.078125 43.3125 
z
" id="DejaVuSans-Bold-67"/>
     </defs>
     <g transform="translate(293.656719 155.176625)scale(0.2 -0.2)">
      <use xlink:href="#DejaVuSans-Bold-4e"/>
      <use x="83.691406" xlink:href="#DejaVuSans-Bold-6f"/>
      <use x="152.392578" xlink:href="#DejaVuSans-Bold-20"/>
      <use x="187.207031" xlink:href="#DejaVuSans-Bold-6d"/>
      <use x="291.40625" xlink:href="#DejaVuSans-Bold-65"/>
      <use x="359.228516" xlink:href="#DejaVuSans-Bold-72"/>
      <use x="408.544922" xlink:href="#DejaVuSans-Bold-67"/>
      <use x="480.126953" xlink:href="#DejaVuSans-Bold-65"/>
     </g>
    </g>
    <g id="LineCollection_8">
     <path d="M 257.656719 187.689125 
L 257.656719 167.689125 
" style="fill:none;stroke:#ff7f0e;stroke-width:1.5;"/>
    </g>
    <g id="line2d_31">
     <path d="M 237.656719 177.689125 
L 277.656719 177.689125 
" style="fill:none;stroke:#ff7f0e;stroke-linecap:square;stroke-width:1.5;"/>
    </g>
    <g id="line2d_32">
     <g>
      <use style="fill:#ff7f0e;stroke:#ff7f0e;" x="257.656719" xlink:href="#m2e79176bb6" y="177.689125"/>
     </g>
    </g>
    <g id="text_15">
     <!-- Merge -->
     <defs>
      <path d="M 9.1875 72.90625 
L 33.109375 72.90625 
L 49.703125 33.890625 
L 66.40625 72.90625 
L 90.28125 72.90625 
L 90.28125 0 
L 72.515625 0 
L 72.515625 53.328125 
L 55.71875 14.015625 
L 43.796875 14.015625 
L 27 53.328125 
L 27 0 
L 9.1875 0 
z
" id="DejaVuSans-Bold-4d"/>
     </defs>
     <g transform="translate(293.656719 184.689125)scale(0.2 -0.2)">
      <use xlink:href="#DejaVuSans-Bold-4d"/>
      <use x="99.511719" xlink:href="#DejaVuSans-Bold-65"/>
      <use x="167.333984" xlink:href="#DejaVuSans-Bold-72"/>
      <use x="216.650391" xlink:href="#DejaVuSans-Bold-67"/>
      <use x="288.232422" xlink:href="#DejaVuSans-Bold-65"/>
     </g>
    </g>
   </g>
  </g>
 </g>
 <defs>
  <clipPath id="p730392adf7">
   <rect height="266.112" width="357.12" x="64.127344" y="31.43625"/>
  </clipPath>
 </defs>
</svg>
