<?xml version="1.0" encoding="utf-8" standalone="no"?>
<!DOCTYPE svg PUBLIC "-//W3C//DTD SVG 1.1//EN"
  "http://www.w3.org/Graphics/SVG/1.1/DTD/svg11.dtd">
<!-- Created with matplotlib (http://matplotlib.org/) -->
<svg height="349pt" version="1.1" viewBox="0 0 588 349" width="588pt" xmlns="http://www.w3.org/2000/svg" xmlns:xlink="http://www.w3.org/1999/xlink">
 <defs>
  <style type="text/css">
*{stroke-linecap:butt;stroke-linejoin:round;}
  </style>
 </defs>
 <g id="figure_1">
  <g id="patch_1">
   <path d="M 0 349.621687 
L 588.679125 349.621687 
L 588.679125 0 
L 0 0 
z
" style="fill:none;"/>
  </g>
  <g id="axes_1">
   <g id="patch_2">
    <path d="M 79.303125 297.54825 
L 436.423125 297.54825 
L 436.423125 31.43625 
L 79.303125 31.43625 
z
" style="fill:none;"/>
   </g>
   <g id="matplotlib.axis_1">
    <g id="xtick_1">
     <g id="line2d_1">
      <path clip-path="url(#p386902a5a0)" d="M 136.11767 297.54825 
L 136.11767 31.43625 
" style="fill:none;stroke:#b0b0b0;stroke-linecap:square;stroke-width:0.8;"/>
     </g>
     <g id="line2d_2">
      <defs>
       <path d="M 0 0 
L 0 3.5 
" id="m005f0a59be" style="stroke:#000000;stroke-width:0.8;"/>
      </defs>
      <g>
       <use style="stroke:#000000;stroke-width:0.8;" x="136.11767" xlink:href="#m005f0a59be" y="297.54825"/>
      </g>
     </g>
     <g id="text_1">
      <!-- 30 -->
      <defs>
       <path d="M 46.578125 39.3125 
Q 53.953125 37.40625 57.78125 32.6875 
Q 61.625 27.984375 61.625 20.703125 
Q 61.625 9.859375 53.3125 4.21875 
Q 45.015625 -1.421875 29.109375 -1.421875 
Q 23.484375 -1.421875 17.84375 -0.515625 
Q 12.203125 0.390625 6.6875 2.203125 
L 6.6875 16.703125 
Q 11.96875 14.0625 17.15625 12.71875 
Q 22.359375 11.375 27.390625 11.375 
Q 34.859375 11.375 38.84375 13.953125 
Q 42.828125 16.546875 42.828125 21.390625 
Q 42.828125 26.375 38.75 28.9375 
Q 34.671875 31.5 26.703125 31.5 
L 19.1875 31.5 
L 19.1875 43.609375 
L 27.09375 43.609375 
Q 34.1875 43.609375 37.640625 45.828125 
Q 41.109375 48.046875 41.109375 52.59375 
Q 41.109375 56.78125 37.734375 59.078125 
Q 34.375 61.375 28.21875 61.375 
Q 23.6875 61.375 19.046875 60.34375 
Q 14.40625 59.328125 9.8125 57.328125 
L 9.8125 71.09375 
Q 15.375 72.65625 20.84375 73.4375 
Q 26.3125 74.21875 31.59375 74.21875 
Q 45.796875 74.21875 52.84375 69.546875 
Q 59.90625 64.890625 59.90625 55.515625 
Q 59.90625 49.125 56.53125 45.046875 
Q 53.171875 40.96875 46.578125 39.3125 
z
" id="DejaVuSans-Bold-33"/>
       <path d="M 46 36.53125 
Q 46 50.203125 43.4375 55.78125 
Q 40.875 61.375 34.8125 61.375 
Q 28.765625 61.375 26.171875 55.78125 
Q 23.578125 50.203125 23.578125 36.53125 
Q 23.578125 22.703125 26.171875 17.03125 
Q 28.765625 11.375 34.8125 11.375 
Q 40.828125 11.375 43.40625 17.03125 
Q 46 22.703125 46 36.53125 
z
M 64.796875 36.375 
Q 64.796875 18.265625 56.984375 8.421875 
Q 49.171875 -1.421875 34.8125 -1.421875 
Q 20.40625 -1.421875 12.59375 8.421875 
Q 4.78125 18.265625 4.78125 36.375 
Q 4.78125 54.546875 12.59375 64.375 
Q 20.40625 74.21875 34.8125 74.21875 
Q 49.171875 74.21875 56.984375 64.375 
Q 64.796875 54.546875 64.796875 36.375 
z
" id="DejaVuSans-Bold-30"/>
      </defs>
      <g transform="translate(125.680952 315.945906)scale(0.15 -0.15)">
       <use xlink:href="#DejaVuSans-Bold-33"/>
       <use x="69.580078" xlink:href="#DejaVuSans-Bold-30"/>
      </g>
     </g>
    </g>
    <g id="xtick_2">
     <g id="line2d_3">
      <path clip-path="url(#p386902a5a0)" d="M 237.572216 297.54825 
L 237.572216 31.43625 
" style="fill:none;stroke:#b0b0b0;stroke-linecap:square;stroke-width:0.8;"/>
     </g>
     <g id="line2d_4">
      <g>
       <use style="stroke:#000000;stroke-width:0.8;" x="237.572216" xlink:href="#m005f0a59be" y="297.54825"/>
      </g>
     </g>
     <g id="text_2">
      <!-- 35 -->
      <defs>
       <path d="M 10.59375 72.90625 
L 57.328125 72.90625 
L 57.328125 59.078125 
L 25.59375 59.078125 
L 25.59375 47.796875 
Q 27.734375 48.390625 29.90625 48.703125 
Q 32.078125 49.03125 34.421875 49.03125 
Q 47.75 49.03125 55.171875 42.359375 
Q 62.59375 35.6875 62.59375 23.78125 
Q 62.59375 11.96875 54.515625 5.265625 
Q 46.4375 -1.421875 32.078125 -1.421875 
Q 25.875 -1.421875 19.796875 -0.21875 
Q 13.71875 0.984375 7.71875 3.421875 
L 7.71875 18.21875 
Q 13.671875 14.796875 19.015625 13.078125 
Q 24.359375 11.375 29.109375 11.375 
Q 35.9375 11.375 39.859375 14.71875 
Q 43.796875 18.0625 43.796875 23.78125 
Q 43.796875 29.546875 39.859375 32.859375 
Q 35.9375 36.1875 29.109375 36.1875 
Q 25.046875 36.1875 20.453125 35.125 
Q 15.875 34.078125 10.59375 31.890625 
z
" id="DejaVuSans-Bold-35"/>
      </defs>
      <g transform="translate(227.135497 315.945906)scale(0.15 -0.15)">
       <use xlink:href="#DejaVuSans-Bold-33"/>
       <use x="69.580078" xlink:href="#DejaVuSans-Bold-35"/>
      </g>
     </g>
    </g>
    <g id="xtick_3">
     <g id="line2d_5">
      <path clip-path="url(#p386902a5a0)" d="M 339.026761 297.54825 
L 339.026761 31.43625 
" style="fill:none;stroke:#b0b0b0;stroke-linecap:square;stroke-width:0.8;"/>
     </g>
     <g id="line2d_6">
      <g>
       <use style="stroke:#000000;stroke-width:0.8;" x="339.026761" xlink:href="#m005f0a59be" y="297.54825"/>
      </g>
     </g>
     <g id="text_3">
      <!-- 40 -->
      <defs>
       <path d="M 36.8125 57.421875 
L 16.21875 26.90625 
L 36.8125 26.90625 
z
M 33.6875 72.90625 
L 54.59375 72.90625 
L 54.59375 26.90625 
L 64.984375 26.90625 
L 64.984375 13.28125 
L 54.59375 13.28125 
L 54.59375 0 
L 36.8125 0 
L 36.8125 13.28125 
L 4.5 13.28125 
L 4.5 29.390625 
z
" id="DejaVuSans-Bold-34"/>
      </defs>
      <g transform="translate(328.590043 315.945906)scale(0.15 -0.15)">
       <use xlink:href="#DejaVuSans-Bold-34"/>
       <use x="69.580078" xlink:href="#DejaVuSans-Bold-30"/>
      </g>
     </g>
    </g>
    <g id="text_4">
     <!-- Duty cycle (%) -->
     <defs>
      <path d="M 19.671875 64.796875 
L 19.671875 8.109375 
L 31.59375 8.109375 
Q 46.6875 8.109375 53.6875 14.9375 
Q 60.6875 21.78125 60.6875 36.53125 
Q 60.6875 51.171875 53.6875 57.984375 
Q 46.6875 64.796875 31.59375 64.796875 
z
M 9.8125 72.90625 
L 30.078125 72.90625 
Q 51.265625 72.90625 61.171875 64.09375 
Q 71.09375 55.28125 71.09375 36.53125 
Q 71.09375 17.671875 61.125 8.828125 
Q 51.171875 0 30.078125 0 
L 9.8125 0 
z
" id="DejaVuSans-44"/>
      <path d="M 8.5 21.578125 
L 8.5 54.6875 
L 17.484375 54.6875 
L 17.484375 21.921875 
Q 17.484375 14.15625 20.5 10.265625 
Q 23.53125 6.390625 29.59375 6.390625 
Q 36.859375 6.390625 41.078125 11.03125 
Q 45.3125 15.671875 45.3125 23.6875 
L 45.3125 54.6875 
L 54.296875 54.6875 
L 54.296875 0 
L 45.3125 0 
L 45.3125 8.40625 
Q 42.046875 3.421875 37.71875 1 
Q 33.40625 -1.421875 27.6875 -1.421875 
Q 18.265625 -1.421875 13.375 4.4375 
Q 8.5 10.296875 8.5 21.578125 
z
M 31.109375 56 
z
" id="DejaVuSans-75"/>
      <path d="M 18.3125 70.21875 
L 18.3125 54.6875 
L 36.8125 54.6875 
L 36.8125 47.703125 
L 18.3125 47.703125 
L 18.3125 18.015625 
Q 18.3125 11.328125 20.140625 9.421875 
Q 21.96875 7.515625 27.59375 7.515625 
L 36.8125 7.515625 
L 36.8125 0 
L 27.59375 0 
Q 17.1875 0 13.234375 3.875 
Q 9.28125 7.765625 9.28125 18.015625 
L 9.28125 47.703125 
L 2.6875 47.703125 
L 2.6875 54.6875 
L 9.28125 54.6875 
L 9.28125 70.21875 
z
" id="DejaVuSans-74"/>
      <path d="M 32.171875 -5.078125 
Q 28.375 -14.84375 24.75 -17.8125 
Q 21.140625 -20.796875 15.09375 -20.796875 
L 7.90625 -20.796875 
L 7.90625 -13.28125 
L 13.1875 -13.28125 
Q 16.890625 -13.28125 18.9375 -11.515625 
Q 21 -9.765625 23.484375 -3.21875 
L 25.09375 0.875 
L 2.984375 54.6875 
L 12.5 54.6875 
L 29.59375 11.921875 
L 46.6875 54.6875 
L 56.203125 54.6875 
z
" id="DejaVuSans-79"/>
      <path id="DejaVuSans-20"/>
      <path d="M 48.78125 52.59375 
L 48.78125 44.1875 
Q 44.96875 46.296875 41.140625 47.34375 
Q 37.3125 48.390625 33.40625 48.390625 
Q 24.65625 48.390625 19.8125 42.84375 
Q 14.984375 37.3125 14.984375 27.296875 
Q 14.984375 17.28125 19.8125 11.734375 
Q 24.65625 6.203125 33.40625 6.203125 
Q 37.3125 6.203125 41.140625 7.25 
Q 44.96875 8.296875 48.78125 10.40625 
L 48.78125 2.09375 
Q 45.015625 0.34375 40.984375 -0.53125 
Q 36.96875 -1.421875 32.421875 -1.421875 
Q 20.0625 -1.421875 12.78125 6.34375 
Q 5.515625 14.109375 5.515625 27.296875 
Q 5.515625 40.671875 12.859375 48.328125 
Q 20.21875 56 33.015625 56 
Q 37.15625 56 41.109375 55.140625 
Q 45.0625 54.296875 48.78125 52.59375 
z
" id="DejaVuSans-63"/>
      <path d="M 9.421875 75.984375 
L 18.40625 75.984375 
L 18.40625 0 
L 9.421875 0 
z
" id="DejaVuSans-6c"/>
      <path d="M 56.203125 29.59375 
L 56.203125 25.203125 
L 14.890625 25.203125 
Q 15.484375 15.921875 20.484375 11.0625 
Q 25.484375 6.203125 34.421875 6.203125 
Q 39.59375 6.203125 44.453125 7.46875 
Q 49.3125 8.734375 54.109375 11.28125 
L 54.109375 2.78125 
Q 49.265625 0.734375 44.1875 -0.34375 
Q 39.109375 -1.421875 33.890625 -1.421875 
Q 20.796875 -1.421875 13.15625 6.1875 
Q 5.515625 13.8125 5.515625 26.8125 
Q 5.515625 40.234375 12.765625 48.109375 
Q 20.015625 56 32.328125 56 
Q 43.359375 56 49.78125 48.890625 
Q 56.203125 41.796875 56.203125 29.59375 
z
M 47.21875 32.234375 
Q 47.125 39.59375 43.09375 43.984375 
Q 39.0625 48.390625 32.421875 48.390625 
Q 24.90625 48.390625 20.390625 44.140625 
Q 15.875 39.890625 15.1875 32.171875 
z
" id="DejaVuSans-65"/>
      <path d="M 31 75.875 
Q 24.46875 64.65625 21.28125 53.65625 
Q 18.109375 42.671875 18.109375 31.390625 
Q 18.109375 20.125 21.3125 9.0625 
Q 24.515625 -2 31 -13.1875 
L 23.1875 -13.1875 
Q 15.875 -1.703125 12.234375 9.375 
Q 8.59375 20.453125 8.59375 31.390625 
Q 8.59375 42.28125 12.203125 53.3125 
Q 15.828125 64.359375 23.1875 75.875 
z
" id="DejaVuSans-28"/>
      <path d="M 72.703125 32.078125 
Q 68.453125 32.078125 66.03125 28.46875 
Q 63.625 24.859375 63.625 18.40625 
Q 63.625 12.0625 66.03125 8.421875 
Q 68.453125 4.78125 72.703125 4.78125 
Q 76.859375 4.78125 79.265625 8.421875 
Q 81.6875 12.0625 81.6875 18.40625 
Q 81.6875 24.8125 79.265625 28.4375 
Q 76.859375 32.078125 72.703125 32.078125 
z
M 72.703125 38.28125 
Q 80.421875 38.28125 84.953125 32.90625 
Q 89.5 27.546875 89.5 18.40625 
Q 89.5 9.28125 84.9375 3.921875 
Q 80.375 -1.421875 72.703125 -1.421875 
Q 64.890625 -1.421875 60.34375 3.921875 
Q 55.8125 9.28125 55.8125 18.40625 
Q 55.8125 27.59375 60.375 32.9375 
Q 64.9375 38.28125 72.703125 38.28125 
z
M 22.3125 68.015625 
Q 18.109375 68.015625 15.6875 64.375 
Q 13.28125 60.75 13.28125 54.390625 
Q 13.28125 47.953125 15.671875 44.328125 
Q 18.0625 40.71875 22.3125 40.71875 
Q 26.5625 40.71875 28.96875 44.328125 
Q 31.390625 47.953125 31.390625 54.390625 
Q 31.390625 60.6875 28.953125 64.34375 
Q 26.515625 68.015625 22.3125 68.015625 
z
M 66.40625 74.21875 
L 74.21875 74.21875 
L 28.609375 -1.421875 
L 20.796875 -1.421875 
z
M 22.3125 74.21875 
Q 30.03125 74.21875 34.609375 68.875 
Q 39.203125 63.53125 39.203125 54.390625 
Q 39.203125 45.171875 34.640625 39.84375 
Q 30.078125 34.515625 22.3125 34.515625 
Q 14.546875 34.515625 10.03125 39.859375 
Q 5.515625 45.21875 5.515625 54.390625 
Q 5.515625 63.484375 10.046875 68.84375 
Q 14.59375 74.21875 22.3125 74.21875 
z
" id="DejaVuSans-25"/>
      <path d="M 8.015625 75.875 
L 15.828125 75.875 
Q 23.140625 64.359375 26.78125 53.3125 
Q 30.421875 42.28125 30.421875 31.390625 
Q 30.421875 20.453125 26.78125 9.375 
Q 23.140625 -1.703125 15.828125 -13.1875 
L 8.015625 -13.1875 
Q 14.5 -2 17.703125 9.0625 
Q 20.90625 20.125 20.90625 31.390625 
Q 20.90625 42.671875 17.703125 53.65625 
Q 14.5 64.65625 8.015625 75.875 
z
" id="DejaVuSans-29"/>
     </defs>
     <g transform="translate(184.47875 338.262312)scale(0.2 -0.2)">
      <use xlink:href="#DejaVuSans-44"/>
      <use x="77.001953" xlink:href="#DejaVuSans-75"/>
      <use x="140.380859" xlink:href="#DejaVuSans-74"/>
      <use x="179.589844" xlink:href="#DejaVuSans-79"/>
      <use x="238.769531" xlink:href="#DejaVuSans-20"/>
      <use x="270.556641" xlink:href="#DejaVuSans-63"/>
      <use x="325.537109" xlink:href="#DejaVuSans-79"/>
      <use x="384.716797" xlink:href="#DejaVuSans-63"/>
      <use x="439.697266" xlink:href="#DejaVuSans-6c"/>
      <use x="467.480469" xlink:href="#DejaVuSans-65"/>
      <use x="529.003906" xlink:href="#DejaVuSans-20"/>
      <use x="560.791016" xlink:href="#DejaVuSans-28"/>
      <use x="599.804688" xlink:href="#DejaVuSans-25"/>
      <use x="694.824219" xlink:href="#DejaVuSans-29"/>
     </g>
    </g>
   </g>
   <g id="matplotlib.axis_2">
    <g id="ytick_1">
     <g id="line2d_7">
      <path clip-path="url(#p386902a5a0)" d="M 79.303125 280.207169 
L 436.423125 280.207169 
" style="fill:none;stroke:#b0b0b0;stroke-linecap:square;stroke-width:0.8;"/>
     </g>
     <g id="line2d_8">
      <defs>
       <path d="M 0 0 
L -3.5 0 
" id="mc3ce260a5b" style="stroke:#000000;stroke-width:0.8;"/>
      </defs>
      <g>
       <use style="stroke:#000000;stroke-width:0.8;" x="79.303125" xlink:href="#mc3ce260a5b" y="280.207169"/>
      </g>
     </g>
     <g id="text_5">
      <!-- 2250 -->
      <defs>
       <path d="M 28.8125 13.8125 
L 60.890625 13.8125 
L 60.890625 0 
L 7.90625 0 
L 7.90625 13.8125 
L 34.515625 37.3125 
Q 38.09375 40.53125 39.796875 43.609375 
Q 41.5 46.6875 41.5 50 
Q 41.5 55.125 38.0625 58.25 
Q 34.625 61.375 28.90625 61.375 
Q 24.515625 61.375 19.28125 59.5 
Q 14.0625 57.625 8.109375 53.90625 
L 8.109375 69.921875 
Q 14.453125 72.015625 20.65625 73.109375 
Q 26.859375 74.21875 32.8125 74.21875 
Q 45.90625 74.21875 53.15625 68.453125 
Q 60.40625 62.703125 60.40625 52.390625 
Q 60.40625 46.4375 57.328125 41.28125 
Q 54.25 36.140625 44.390625 27.484375 
z
" id="DejaVuSans-Bold-32"/>
      </defs>
      <g transform="translate(30.55625 285.905997)scale(0.15 -0.15)">
       <use xlink:href="#DejaVuSans-Bold-32"/>
       <use x="69.580078" xlink:href="#DejaVuSans-Bold-32"/>
       <use x="139.160156" xlink:href="#DejaVuSans-Bold-35"/>
       <use x="208.740234" xlink:href="#DejaVuSans-Bold-30"/>
      </g>
     </g>
    </g>
    <g id="ytick_2">
     <g id="line2d_9">
      <path clip-path="url(#p386902a5a0)" d="M 79.303125 245.8287 
L 436.423125 245.8287 
" style="fill:none;stroke:#b0b0b0;stroke-linecap:square;stroke-width:0.8;"/>
     </g>
     <g id="line2d_10">
      <g>
       <use style="stroke:#000000;stroke-width:0.8;" x="79.303125" xlink:href="#mc3ce260a5b" y="245.8287"/>
      </g>
     </g>
     <g id="text_6">
      <!-- 2500 -->
      <g transform="translate(30.55625 251.527528)scale(0.15 -0.15)">
       <use xlink:href="#DejaVuSans-Bold-32"/>
       <use x="69.580078" xlink:href="#DejaVuSans-Bold-35"/>
       <use x="139.160156" xlink:href="#DejaVuSans-Bold-30"/>
       <use x="208.740234" xlink:href="#DejaVuSans-Bold-30"/>
      </g>
     </g>
    </g>
    <g id="ytick_3">
     <g id="line2d_11">
      <path clip-path="url(#p386902a5a0)" d="M 79.303125 211.450231 
L 436.423125 211.450231 
" style="fill:none;stroke:#b0b0b0;stroke-linecap:square;stroke-width:0.8;"/>
     </g>
     <g id="line2d_12">
      <g>
       <use style="stroke:#000000;stroke-width:0.8;" x="79.303125" xlink:href="#mc3ce260a5b" y="211.450231"/>
      </g>
     </g>
     <g id="text_7">
      <!-- 2750 -->
      <defs>
       <path d="M 6.6875 72.90625 
L 61.625 72.90625 
L 61.625 62.3125 
L 33.203125 0 
L 14.890625 0 
L 41.796875 59.078125 
L 6.6875 59.078125 
z
" id="DejaVuSans-Bold-37"/>
      </defs>
      <g transform="translate(30.55625 217.149059)scale(0.15 -0.15)">
       <use xlink:href="#DejaVuSans-Bold-32"/>
       <use x="69.580078" xlink:href="#DejaVuSans-Bold-37"/>
       <use x="139.160156" xlink:href="#DejaVuSans-Bold-35"/>
       <use x="208.740234" xlink:href="#DejaVuSans-Bold-30"/>
      </g>
     </g>
    </g>
    <g id="ytick_4">
     <g id="line2d_13">
      <path clip-path="url(#p386902a5a0)" d="M 79.303125 177.071763 
L 436.423125 177.071763 
" style="fill:none;stroke:#b0b0b0;stroke-linecap:square;stroke-width:0.8;"/>
     </g>
     <g id="line2d_14">
      <g>
       <use style="stroke:#000000;stroke-width:0.8;" x="79.303125" xlink:href="#mc3ce260a5b" y="177.071763"/>
      </g>
     </g>
     <g id="text_8">
      <!-- 3000 -->
      <g transform="translate(30.55625 182.770591)scale(0.15 -0.15)">
       <use xlink:href="#DejaVuSans-Bold-33"/>
       <use x="69.580078" xlink:href="#DejaVuSans-Bold-30"/>
       <use x="139.160156" xlink:href="#DejaVuSans-Bold-30"/>
       <use x="208.740234" xlink:href="#DejaVuSans-Bold-30"/>
      </g>
     </g>
    </g>
    <g id="ytick_5">
     <g id="line2d_15">
      <path clip-path="url(#p386902a5a0)" d="M 79.303125 142.693294 
L 436.423125 142.693294 
" style="fill:none;stroke:#b0b0b0;stroke-linecap:square;stroke-width:0.8;"/>
     </g>
     <g id="line2d_16">
      <g>
       <use style="stroke:#000000;stroke-width:0.8;" x="79.303125" xlink:href="#mc3ce260a5b" y="142.693294"/>
      </g>
     </g>
     <g id="text_9">
      <!-- 3250 -->
      <g transform="translate(30.55625 148.392122)scale(0.15 -0.15)">
       <use xlink:href="#DejaVuSans-Bold-33"/>
       <use x="69.580078" xlink:href="#DejaVuSans-Bold-32"/>
       <use x="139.160156" xlink:href="#DejaVuSans-Bold-35"/>
       <use x="208.740234" xlink:href="#DejaVuSans-Bold-30"/>
      </g>
     </g>
    </g>
    <g id="ytick_6">
     <g id="line2d_17">
      <path clip-path="url(#p386902a5a0)" d="M 79.303125 108.314825 
L 436.423125 108.314825 
" style="fill:none;stroke:#b0b0b0;stroke-linecap:square;stroke-width:0.8;"/>
     </g>
     <g id="line2d_18">
      <g>
       <use style="stroke:#000000;stroke-width:0.8;" x="79.303125" xlink:href="#mc3ce260a5b" y="108.314825"/>
      </g>
     </g>
     <g id="text_10">
      <!-- 3500 -->
      <g transform="translate(30.55625 114.013653)scale(0.15 -0.15)">
       <use xlink:href="#DejaVuSans-Bold-33"/>
       <use x="69.580078" xlink:href="#DejaVuSans-Bold-35"/>
       <use x="139.160156" xlink:href="#DejaVuSans-Bold-30"/>
       <use x="208.740234" xlink:href="#DejaVuSans-Bold-30"/>
      </g>
     </g>
    </g>
    <g id="ytick_7">
     <g id="line2d_19">
      <path clip-path="url(#p386902a5a0)" d="M 79.303125 73.936356 
L 436.423125 73.936356 
" style="fill:none;stroke:#b0b0b0;stroke-linecap:square;stroke-width:0.8;"/>
     </g>
     <g id="line2d_20">
      <g>
       <use style="stroke:#000000;stroke-width:0.8;" x="79.303125" xlink:href="#mc3ce260a5b" y="73.936356"/>
      </g>
     </g>
     <g id="text_11">
      <!-- 3750 -->
      <g transform="translate(30.55625 79.635184)scale(0.15 -0.15)">
       <use xlink:href="#DejaVuSans-Bold-33"/>
       <use x="69.580078" xlink:href="#DejaVuSans-Bold-37"/>
       <use x="139.160156" xlink:href="#DejaVuSans-Bold-35"/>
       <use x="208.740234" xlink:href="#DejaVuSans-Bold-30"/>
      </g>
     </g>
    </g>
    <g id="ytick_8">
     <g id="line2d_21">
      <path clip-path="url(#p386902a5a0)" d="M 79.303125 39.557887 
L 436.423125 39.557887 
" style="fill:none;stroke:#b0b0b0;stroke-linecap:square;stroke-width:0.8;"/>
     </g>
     <g id="line2d_22">
      <g>
       <use style="stroke:#000000;stroke-width:0.8;" x="79.303125" xlink:href="#mc3ce260a5b" y="39.557887"/>
      </g>
     </g>
     <g id="text_12">
      <!-- 4000 -->
      <g transform="translate(30.55625 45.256715)scale(0.15 -0.15)">
       <use xlink:href="#DejaVuSans-Bold-34"/>
       <use x="69.580078" xlink:href="#DejaVuSans-Bold-30"/>
       <use x="139.160156" xlink:href="#DejaVuSans-Bold-30"/>
       <use x="208.740234" xlink:href="#DejaVuSans-Bold-30"/>
      </g>
     </g>
    </g>
    <g id="text_13">
     <!-- Probability -->
     <defs>
      <path d="M 19.671875 64.796875 
L 19.671875 37.40625 
L 32.078125 37.40625 
Q 38.96875 37.40625 42.71875 40.96875 
Q 46.484375 44.53125 46.484375 51.125 
Q 46.484375 57.671875 42.71875 61.234375 
Q 38.96875 64.796875 32.078125 64.796875 
z
M 9.8125 72.90625 
L 32.078125 72.90625 
Q 44.34375 72.90625 50.609375 67.359375 
Q 56.890625 61.8125 56.890625 51.125 
Q 56.890625 40.328125 50.609375 34.8125 
Q 44.34375 29.296875 32.078125 29.296875 
L 19.671875 29.296875 
L 19.671875 0 
L 9.8125 0 
z
" id="DejaVuSans-50"/>
      <path d="M 41.109375 46.296875 
Q 39.59375 47.171875 37.8125 47.578125 
Q 36.03125 48 33.890625 48 
Q 26.265625 48 22.1875 43.046875 
Q 18.109375 38.09375 18.109375 28.8125 
L 18.109375 0 
L 9.078125 0 
L 9.078125 54.6875 
L 18.109375 54.6875 
L 18.109375 46.1875 
Q 20.953125 51.171875 25.484375 53.578125 
Q 30.03125 56 36.53125 56 
Q 37.453125 56 38.578125 55.875 
Q 39.703125 55.765625 41.0625 55.515625 
z
" id="DejaVuSans-72"/>
      <path d="M 30.609375 48.390625 
Q 23.390625 48.390625 19.1875 42.75 
Q 14.984375 37.109375 14.984375 27.296875 
Q 14.984375 17.484375 19.15625 11.84375 
Q 23.34375 6.203125 30.609375 6.203125 
Q 37.796875 6.203125 41.984375 11.859375 
Q 46.1875 17.53125 46.1875 27.296875 
Q 46.1875 37.015625 41.984375 42.703125 
Q 37.796875 48.390625 30.609375 48.390625 
z
M 30.609375 56 
Q 42.328125 56 49.015625 48.375 
Q 55.71875 40.765625 55.71875 27.296875 
Q 55.71875 13.875 49.015625 6.21875 
Q 42.328125 -1.421875 30.609375 -1.421875 
Q 18.84375 -1.421875 12.171875 6.21875 
Q 5.515625 13.875 5.515625 27.296875 
Q 5.515625 40.765625 12.171875 48.375 
Q 18.84375 56 30.609375 56 
z
" id="DejaVuSans-6f"/>
      <path d="M 48.6875 27.296875 
Q 48.6875 37.203125 44.609375 42.84375 
Q 40.53125 48.484375 33.40625 48.484375 
Q 26.265625 48.484375 22.1875 42.84375 
Q 18.109375 37.203125 18.109375 27.296875 
Q 18.109375 17.390625 22.1875 11.75 
Q 26.265625 6.109375 33.40625 6.109375 
Q 40.53125 6.109375 44.609375 11.75 
Q 48.6875 17.390625 48.6875 27.296875 
z
M 18.109375 46.390625 
Q 20.953125 51.265625 25.265625 53.625 
Q 29.59375 56 35.59375 56 
Q 45.5625 56 51.78125 48.09375 
Q 58.015625 40.1875 58.015625 27.296875 
Q 58.015625 14.40625 51.78125 6.484375 
Q 45.5625 -1.421875 35.59375 -1.421875 
Q 29.59375 -1.421875 25.265625 0.953125 
Q 20.953125 3.328125 18.109375 8.203125 
L 18.109375 0 
L 9.078125 0 
L 9.078125 75.984375 
L 18.109375 75.984375 
z
" id="DejaVuSans-62"/>
      <path d="M 34.28125 27.484375 
Q 23.390625 27.484375 19.1875 25 
Q 14.984375 22.515625 14.984375 16.5 
Q 14.984375 11.71875 18.140625 8.90625 
Q 21.296875 6.109375 26.703125 6.109375 
Q 34.1875 6.109375 38.703125 11.40625 
Q 43.21875 16.703125 43.21875 25.484375 
L 43.21875 27.484375 
z
M 52.203125 31.203125 
L 52.203125 0 
L 43.21875 0 
L 43.21875 8.296875 
Q 40.140625 3.328125 35.546875 0.953125 
Q 30.953125 -1.421875 24.3125 -1.421875 
Q 15.921875 -1.421875 10.953125 3.296875 
Q 6 8.015625 6 15.921875 
Q 6 25.140625 12.171875 29.828125 
Q 18.359375 34.515625 30.609375 34.515625 
L 43.21875 34.515625 
L 43.21875 35.40625 
Q 43.21875 41.609375 39.140625 45 
Q 35.0625 48.390625 27.6875 48.390625 
Q 23 48.390625 18.546875 47.265625 
Q 14.109375 46.140625 10.015625 43.890625 
L 10.015625 52.203125 
Q 14.9375 54.109375 19.578125 55.046875 
Q 24.21875 56 28.609375 56 
Q 40.484375 56 46.34375 49.84375 
Q 52.203125 43.703125 52.203125 31.203125 
z
" id="DejaVuSans-61"/>
      <path d="M 9.421875 54.6875 
L 18.40625 54.6875 
L 18.40625 0 
L 9.421875 0 
z
M 9.421875 75.984375 
L 18.40625 75.984375 
L 18.40625 64.59375 
L 9.421875 64.59375 
z
" id="DejaVuSans-69"/>
     </defs>
     <g transform="translate(22.396875 217.745375)rotate(-90)scale(0.2 -0.2)">
      <use xlink:href="#DejaVuSans-50"/>
      <use x="60.287109" xlink:href="#DejaVuSans-72"/>
      <use x="101.369141" xlink:href="#DejaVuSans-6f"/>
      <use x="162.550781" xlink:href="#DejaVuSans-62"/>
      <use x="226.027344" xlink:href="#DejaVuSans-61"/>
      <use x="287.306641" xlink:href="#DejaVuSans-62"/>
      <use x="350.783203" xlink:href="#DejaVuSans-69"/>
      <use x="378.566406" xlink:href="#DejaVuSans-6c"/>
      <use x="406.349609" xlink:href="#DejaVuSans-69"/>
      <use x="434.132812" xlink:href="#DejaVuSans-74"/>
      <use x="473.341797" xlink:href="#DejaVuSans-79"/>
     </g>
    </g>
   </g>
   <g id="LineCollection_1">
    <path clip-path="url(#p386902a5a0)" d="M 95.535852 272.544843 
L 95.535852 268.438826 
" style="fill:none;stroke:#1f77b4;stroke-width:1.5;"/>
    <path clip-path="url(#p386902a5a0)" d="M 136.11767 254.367932 
L 136.11767 248.72826 
" style="fill:none;stroke:#1f77b4;stroke-width:1.5;"/>
    <path clip-path="url(#p386902a5a0)" d="M 176.699489 244.255708 
L 176.699489 237.847981 
" style="fill:none;stroke:#1f77b4;stroke-width:1.5;"/>
    <path clip-path="url(#p386902a5a0)" d="M 217.281307 222.537134 
L 217.281307 215.289972 
" style="fill:none;stroke:#1f77b4;stroke-width:1.5;"/>
    <path clip-path="url(#p386902a5a0)" d="M 257.863125 207.89461 
L 257.863125 200.012719 
" style="fill:none;stroke:#1f77b4;stroke-width:1.5;"/>
    <path clip-path="url(#p386902a5a0)" d="M 298.444943 191.62009 
L 298.444943 183.213846 
" style="fill:none;stroke:#1f77b4;stroke-width:1.5;"/>
    <path clip-path="url(#p386902a5a0)" d="M 339.026761 174.93609 
L 339.026761 166.056933 
" style="fill:none;stroke:#1f77b4;stroke-width:1.5;"/>
    <path clip-path="url(#p386902a5a0)" d="M 379.60858 173.047574 
L 379.60858 164.243289 
" style="fill:none;stroke:#1f77b4;stroke-width:1.5;"/>
    <path clip-path="url(#p386902a5a0)" d="M 420.190398 169.797924 
L 420.190398 161.152052 
" style="fill:none;stroke:#1f77b4;stroke-width:1.5;"/>
   </g>
   <g id="LineCollection_2">
    <path clip-path="url(#p386902a5a0)" d="M 95.535852 196.342644 
L 95.535852 187.964914 
" style="fill:none;stroke:#ff7f0e;stroke-width:1.5;"/>
    <path clip-path="url(#p386902a5a0)" d="M 136.11767 168.914855 
L 136.11767 159.74162 
" style="fill:none;stroke:#ff7f0e;stroke-width:1.5;"/>
    <path clip-path="url(#p386902a5a0)" d="M 176.699489 145.841007 
L 176.699489 136.218733 
" style="fill:none;stroke:#ff7f0e;stroke-width:1.5;"/>
    <path clip-path="url(#p386902a5a0)" d="M 217.281307 146.719745 
L 217.281307 137.010082 
" style="fill:none;stroke:#ff7f0e;stroke-width:1.5;"/>
    <path clip-path="url(#p386902a5a0)" d="M 257.863125 123.779971 
L 257.863125 113.826108 
" style="fill:none;stroke:#ff7f0e;stroke-width:1.5;"/>
    <path clip-path="url(#p386902a5a0)" d="M 298.444943 115.956527 
L 298.444943 105.999209 
" style="fill:none;stroke:#ff7f0e;stroke-width:1.5;"/>
    <path clip-path="url(#p386902a5a0)" d="M 339.026761 111.477626 
L 339.026761 101.534351 
" style="fill:none;stroke:#ff7f0e;stroke-width:1.5;"/>
    <path clip-path="url(#p386902a5a0)" d="M 379.60858 129.086107 
L 379.60858 119.606806 
" style="fill:none;stroke:#ff7f0e;stroke-width:1.5;"/>
    <path clip-path="url(#p386902a5a0)" d="M 420.190398 126.551025 
L 420.190398 117.278759 
" style="fill:none;stroke:#ff7f0e;stroke-width:1.5;"/>
   </g>
   <g id="LineCollection_3">
    <path clip-path="url(#p386902a5a0)" d="M 95.535852 123.425631 
L 95.535852 113.178013 
" style="fill:none;stroke:#2ca02c;stroke-width:1.5;"/>
    <path clip-path="url(#p386902a5a0)" d="M 136.11767 101.523852 
L 136.11767 91.014494 
" style="fill:none;stroke:#2ca02c;stroke-width:1.5;"/>
    <path clip-path="url(#p386902a5a0)" d="M 176.699489 105.33887 
L 176.699489 94.918112 
" style="fill:none;stroke:#2ca02c;stroke-width:1.5;"/>
    <path clip-path="url(#p386902a5a0)" d="M 217.281307 94.362329 
L 217.281307 83.893806 
" style="fill:none;stroke:#2ca02c;stroke-width:1.5;"/>
    <path clip-path="url(#p386902a5a0)" d="M 257.863125 94.229734 
L 257.863125 83.995217 
" style="fill:none;stroke:#2ca02c;stroke-width:1.5;"/>
    <path clip-path="url(#p386902a5a0)" d="M 298.444943 90.209259 
L 298.444943 80.176851 
" style="fill:none;stroke:#2ca02c;stroke-width:1.5;"/>
    <path clip-path="url(#p386902a5a0)" d="M 339.026761 111.448148 
L 339.026761 101.865783 
" style="fill:none;stroke:#2ca02c;stroke-width:1.5;"/>
    <path clip-path="url(#p386902a5a0)" d="M 379.60858 107.398507 
L 379.60858 97.92698 
" style="fill:none;stroke:#2ca02c;stroke-width:1.5;"/>
    <path clip-path="url(#p386902a5a0)" d="M 420.190398 127.686617 
L 420.190398 118.698096 
" style="fill:none;stroke:#2ca02c;stroke-width:1.5;"/>
   </g>
   <g id="LineCollection_4">
    <path clip-path="url(#p386902a5a0)" d="M 95.535852 79.291748 
L 95.535852 68.528486 
" style="fill:none;stroke:#d62728;stroke-width:1.5;"/>
    <path clip-path="url(#p386902a5a0)" d="M 136.11767 75.473364 
L 136.11767 64.826744 
" style="fill:none;stroke:#d62728;stroke-width:1.5;"/>
    <path clip-path="url(#p386902a5a0)" d="M 176.699489 81.540519 
L 176.699489 71.091465 
" style="fill:none;stroke:#d62728;stroke-width:1.5;"/>
    <path clip-path="url(#p386902a5a0)" d="M 217.281307 72.267886 
L 217.281307 61.947129 
" style="fill:none;stroke:#d62728;stroke-width:1.5;"/>
    <path clip-path="url(#p386902a5a0)" d="M 257.863125 84.36305 
L 257.863125 74.26583 
" style="fill:none;stroke:#d62728;stroke-width:1.5;"/>
    <path clip-path="url(#p386902a5a0)" d="M 298.444943 88.485244 
L 298.444943 78.7217 
" style="fill:none;stroke:#d62728;stroke-width:1.5;"/>
    <path clip-path="url(#p386902a5a0)" d="M 339.026761 101.565869 
L 339.026761 92.072449 
" style="fill:none;stroke:#d62728;stroke-width:1.5;"/>
    <path clip-path="url(#p386902a5a0)" d="M 379.60858 121.277103 
L 379.60858 112.391904 
" style="fill:none;stroke:#d62728;stroke-width:1.5;"/>
    <path clip-path="url(#p386902a5a0)" d="M 420.190398 135.757348 
L 420.190398 127.326439 
" style="fill:none;stroke:#d62728;stroke-width:1.5;"/>
   </g>
   <g id="LineCollection_5">
    <path clip-path="url(#p386902a5a0)" d="M 95.535852 81.476937 
L 95.535852 70.824381 
" style="fill:none;stroke:#9467bd;stroke-width:1.5;"/>
    <path clip-path="url(#p386902a5a0)" d="M 136.11767 72.43297 
L 136.11767 62.058721 
" style="fill:none;stroke:#9467bd;stroke-width:1.5;"/>
    <path clip-path="url(#p386902a5a0)" d="M 176.699489 66.061113 
L 176.699489 55.687947 
" style="fill:none;stroke:#9467bd;stroke-width:1.5;"/>
    <path clip-path="url(#p386902a5a0)" d="M 217.281307 82.174227 
L 217.281307 72.181969 
" style="fill:none;stroke:#9467bd;stroke-width:1.5;"/>
    <path clip-path="url(#p386902a5a0)" d="M 257.863125 84.166586 
L 257.863125 74.383302 
" style="fill:none;stroke:#9467bd;stroke-width:1.5;"/>
    <path clip-path="url(#p386902a5a0)" d="M 298.444943 92.424045 
L 298.444943 83.089231 
" style="fill:none;stroke:#9467bd;stroke-width:1.5;"/>
    <path clip-path="url(#p386902a5a0)" d="M 339.026761 122.566516 
L 339.026761 113.698082 
" style="fill:none;stroke:#9467bd;stroke-width:1.5;"/>
    <path clip-path="url(#p386902a5a0)" d="M 379.60858 141.430292 
L 379.60858 133.151909 
" style="fill:none;stroke:#9467bd;stroke-width:1.5;"/>
    <path clip-path="url(#p386902a5a0)" d="M 420.190398 160.8162 
L 420.190398 153.014741 
" style="fill:none;stroke:#9467bd;stroke-width:1.5;"/>
   </g>
   <g id="LineCollection_6">
    <path clip-path="url(#p386902a5a0)" d="M 95.535852 54.004614 
L 95.535852 43.53225 
" style="fill:none;stroke:#8c564b;stroke-width:1.5;"/>
    <path clip-path="url(#p386902a5a0)" d="M 136.11767 59.708737 
L 136.11767 49.335332 
" style="fill:none;stroke:#8c564b;stroke-width:1.5;"/>
    <path clip-path="url(#p386902a5a0)" d="M 176.699489 82.632537 
L 176.699489 72.658094 
" style="fill:none;stroke:#8c564b;stroke-width:1.5;"/>
    <path clip-path="url(#p386902a5a0)" d="M 217.281307 88.539278 
L 217.281307 78.873181 
" style="fill:none;stroke:#8c564b;stroke-width:1.5;"/>
    <path clip-path="url(#p386902a5a0)" d="M 257.863125 96.007308 
L 257.863125 86.797775 
" style="fill:none;stroke:#8c564b;stroke-width:1.5;"/>
    <path clip-path="url(#p386902a5a0)" d="M 298.444943 123.334993 
L 298.444943 114.573864 
" style="fill:none;stroke:#8c564b;stroke-width:1.5;"/>
    <path clip-path="url(#p386902a5a0)" d="M 339.026761 142.277908 
L 339.026761 134.120685 
" style="fill:none;stroke:#8c564b;stroke-width:1.5;"/>
    <path clip-path="url(#p386902a5a0)" d="M 379.60858 160.44255 
L 379.60858 152.846029 
" style="fill:none;stroke:#8c564b;stroke-width:1.5;"/>
    <path clip-path="url(#p386902a5a0)" d="M 420.190398 180.557249 
L 420.190398 173.500416 
" style="fill:none;stroke:#8c564b;stroke-width:1.5;"/>
   </g>
   <g id="LineCollection_7">
    <path clip-path="url(#p386902a5a0)" d="M 95.535852 66.301916 
L 95.535852 55.989506 
" style="fill:none;stroke:#e377c2;stroke-width:1.5;"/>
    <path clip-path="url(#p386902a5a0)" d="M 136.11767 74.038861 
L 136.11767 64.204583 
" style="fill:none;stroke:#e377c2;stroke-width:1.5;"/>
    <path clip-path="url(#p386902a5a0)" d="M 176.699489 86.95919 
L 176.699489 77.361198 
" style="fill:none;stroke:#e377c2;stroke-width:1.5;"/>
    <path clip-path="url(#p386902a5a0)" d="M 217.281307 103.61879 
L 217.281307 94.663816 
" style="fill:none;stroke:#e377c2;stroke-width:1.5;"/>
    <path clip-path="url(#p386902a5a0)" d="M 257.863125 125.679395 
L 257.863125 117.208811 
" style="fill:none;stroke:#e377c2;stroke-width:1.5;"/>
    <path clip-path="url(#p386902a5a0)" d="M 298.444943 140.324027 
L 298.444943 132.244372 
" style="fill:none;stroke:#e377c2;stroke-width:1.5;"/>
    <path clip-path="url(#p386902a5a0)" d="M 339.026761 161.000399 
L 339.026761 153.513165 
" style="fill:none;stroke:#e377c2;stroke-width:1.5;"/>
    <path clip-path="url(#p386902a5a0)" d="M 379.60858 187.047448 
L 379.60858 180.134069 
" style="fill:none;stroke:#e377c2;stroke-width:1.5;"/>
    <path clip-path="url(#p386902a5a0)" d="M 420.190398 201.362015 
L 420.190398 195.070805 
" style="fill:none;stroke:#e377c2;stroke-width:1.5;"/>
   </g>
   <g id="LineCollection_8">
    <path clip-path="url(#p386902a5a0)" d="M 95.535852 80.481532 
L 95.535852 70.906096 
" style="fill:none;stroke:#7f7f7f;stroke-width:1.5;"/>
    <path clip-path="url(#p386902a5a0)" d="M 136.11767 91.566735 
L 136.11767 82.229334 
" style="fill:none;stroke:#7f7f7f;stroke-width:1.5;"/>
    <path clip-path="url(#p386902a5a0)" d="M 176.699489 106.401904 
L 176.699489 97.599549 
" style="fill:none;stroke:#7f7f7f;stroke-width:1.5;"/>
    <path clip-path="url(#p386902a5a0)" d="M 217.281307 129.463504 
L 217.281307 121.198288 
" style="fill:none;stroke:#7f7f7f;stroke-width:1.5;"/>
    <path clip-path="url(#p386902a5a0)" d="M 257.863125 147.386301 
L 257.863125 139.508543 
" style="fill:none;stroke:#7f7f7f;stroke-width:1.5;"/>
    <path clip-path="url(#p386902a5a0)" d="M 298.444943 178.177656 
L 298.444943 171.088179 
" style="fill:none;stroke:#7f7f7f;stroke-width:1.5;"/>
    <path clip-path="url(#p386902a5a0)" d="M 339.026761 191.60855 
L 339.026761 185.021722 
" style="fill:none;stroke:#7f7f7f;stroke-width:1.5;"/>
    <path clip-path="url(#p386902a5a0)" d="M 379.60858 213.265131 
L 379.60858 207.282484 
" style="fill:none;stroke:#7f7f7f;stroke-width:1.5;"/>
    <path clip-path="url(#p386902a5a0)" d="M 420.190398 228.014551 
L 420.190398 222.59956 
" style="fill:none;stroke:#7f7f7f;stroke-width:1.5;"/>
   </g>
   <g id="LineCollection_9">
    <path clip-path="url(#p386902a5a0)" d="M 95.535852 95.031836 
L 95.535852 85.852861 
" style="fill:none;stroke:#bcbd22;stroke-width:1.5;"/>
    <path clip-path="url(#p386902a5a0)" d="M 136.11767 113.418827 
L 136.11767 104.854533 
" style="fill:none;stroke:#bcbd22;stroke-width:1.5;"/>
    <path clip-path="url(#p386902a5a0)" d="M 176.699489 142.129723 
L 176.699489 133.93477 
" style="fill:none;stroke:#bcbd22;stroke-width:1.5;"/>
    <path clip-path="url(#p386902a5a0)" d="M 217.281307 156.845373 
L 217.281307 149.234648 
" style="fill:none;stroke:#bcbd22;stroke-width:1.5;"/>
    <path clip-path="url(#p386902a5a0)" d="M 257.863125 180.262328 
L 257.863125 173.181264 
" style="fill:none;stroke:#bcbd22;stroke-width:1.5;"/>
    <path clip-path="url(#p386902a5a0)" d="M 298.444943 202.311434 
L 298.444943 195.899587 
" style="fill:none;stroke:#bcbd22;stroke-width:1.5;"/>
    <path clip-path="url(#p386902a5a0)" d="M 339.026761 218.178069 
L 339.026761 212.355856 
" style="fill:none;stroke:#bcbd22;stroke-width:1.5;"/>
    <path clip-path="url(#p386902a5a0)" d="M 379.60858 238.47154 
L 379.60858 233.410101 
" style="fill:none;stroke:#bcbd22;stroke-width:1.5;"/>
    <path clip-path="url(#p386902a5a0)" d="M 420.190398 256.546528 
L 420.190398 252.388165 
" style="fill:none;stroke:#bcbd22;stroke-width:1.5;"/>
   </g>
   <g id="LineCollection_10">
    <path clip-path="url(#p386902a5a0)" d="M 95.535852 130.388331 
L 95.535852 121.995475 
" style="fill:none;stroke:#17becf;stroke-width:1.5;"/>
    <path clip-path="url(#p386902a5a0)" d="M 136.11767 138.938146 
L 136.11767 131.03054 
" style="fill:none;stroke:#17becf;stroke-width:1.5;"/>
    <path clip-path="url(#p386902a5a0)" d="M 176.699489 171.272051 
L 176.699489 163.958302 
" style="fill:none;stroke:#17becf;stroke-width:1.5;"/>
    <path clip-path="url(#p386902a5a0)" d="M 217.281307 184.705614 
L 217.281307 177.965282 
" style="fill:none;stroke:#17becf;stroke-width:1.5;"/>
    <path clip-path="url(#p386902a5a0)" d="M 257.863125 212.22792 
L 257.863125 206.156291 
" style="fill:none;stroke:#17becf;stroke-width:1.5;"/>
    <path clip-path="url(#p386902a5a0)" d="M 298.444943 231.142984 
L 298.444943 225.76352 
" style="fill:none;stroke:#17becf;stroke-width:1.5;"/>
    <path clip-path="url(#p386902a5a0)" d="M 339.026761 241.746504 
L 339.026761 236.894336 
" style="fill:none;stroke:#17becf;stroke-width:1.5;"/>
    <path clip-path="url(#p386902a5a0)" d="M 379.60858 262.876007 
L 379.60858 258.978258 
" style="fill:none;stroke:#17becf;stroke-width:1.5;"/>
    <path clip-path="url(#p386902a5a0)" d="M 420.190398 275.490457 
L 420.190398 272.459848 
" style="fill:none;stroke:#17becf;stroke-width:1.5;"/>
   </g>
   <g id="LineCollection_11">
    <path clip-path="url(#p386902a5a0)" d="M 95.535852 158.899886 
L 95.535852 151.17367 
" style="fill:none;stroke:#1f77b4;stroke-width:1.5;"/>
    <path clip-path="url(#p386902a5a0)" d="M 136.11767 172.852647 
L 136.11767 165.613335 
" style="fill:none;stroke:#1f77b4;stroke-width:1.5;"/>
    <path clip-path="url(#p386902a5a0)" d="M 176.699489 199.631405 
L 176.699489 193.050899 
" style="fill:none;stroke:#1f77b4;stroke-width:1.5;"/>
    <path clip-path="url(#p386902a5a0)" d="M 217.281307 222.773624 
L 217.281307 217.01041 
" style="fill:none;stroke:#1f77b4;stroke-width:1.5;"/>
    <path clip-path="url(#p386902a5a0)" d="M 257.863125 242.208065 
L 257.863125 237.220766 
" style="fill:none;stroke:#1f77b4;stroke-width:1.5;"/>
    <path clip-path="url(#p386902a5a0)" d="M 298.444943 257.490427 
L 298.444943 253.271648 
" style="fill:none;stroke:#1f77b4;stroke-width:1.5;"/>
    <path clip-path="url(#p386902a5a0)" d="M 339.026761 273.258933 
L 339.026761 270.073186 
" style="fill:none;stroke:#1f77b4;stroke-width:1.5;"/>
    <path clip-path="url(#p386902a5a0)" d="M 379.60858 280.503821 
L 379.60858 277.755217 
" style="fill:none;stroke:#1f77b4;stroke-width:1.5;"/>
    <path clip-path="url(#p386902a5a0)" d="M 420.190398 285.45225 
L 420.190398 283.323921 
" style="fill:none;stroke:#1f77b4;stroke-width:1.5;"/>
   </g>
   <g id="line2d_23">
    <path clip-path="url(#p386902a5a0)" d="M 95.535852 270.491834 
L 136.11767 251.548096 
L 176.699489 241.051845 
L 217.281307 218.913553 
L 257.863125 203.953664 
L 298.444943 187.416968 
L 339.026761 170.496511 
L 379.60858 168.645432 
L 420.190398 165.474988 
" style="fill:none;stroke:#1f77b4;stroke-linecap:square;stroke-width:1.5;"/>
   </g>
   <g id="line2d_24">
    <path clip-path="url(#p386902a5a0)" d="M 95.535852 192.153779 
L 136.11767 164.328238 
L 176.699489 141.02987 
L 217.281307 141.864913 
L 257.863125 118.80304 
L 298.444943 110.977868 
L 339.026761 106.505989 
L 379.60858 124.346456 
L 420.190398 121.914892 
" style="fill:none;stroke:#ff7f0e;stroke-linecap:square;stroke-width:1.5;"/>
   </g>
   <g id="line2d_25">
    <path clip-path="url(#p386902a5a0)" d="M 95.535852 118.301822 
L 136.11767 96.269173 
L 176.699489 100.128491 
L 217.281307 89.128068 
L 257.863125 89.112475 
L 298.444943 85.193055 
L 339.026761 106.656965 
L 379.60858 102.662744 
L 420.190398 123.192356 
" style="fill:none;stroke:#2ca02c;stroke-linecap:square;stroke-width:1.5;"/>
   </g>
   <g id="line2d_26">
    <path clip-path="url(#p386902a5a0)" d="M 95.535852 73.910117 
L 136.11767 70.150054 
L 176.699489 76.315992 
L 217.281307 67.107508 
L 257.863125 79.31444 
L 298.444943 83.603472 
L 339.026761 96.819159 
L 379.60858 116.834503 
L 420.190398 131.541894 
" style="fill:none;stroke:#d62728;stroke-linecap:square;stroke-width:1.5;"/>
   </g>
   <g id="line2d_27">
    <path clip-path="url(#p386902a5a0)" d="M 95.535852 76.150659 
L 136.11767 67.245846 
L 176.699489 60.87453 
L 217.281307 77.178098 
L 257.863125 79.274944 
L 298.444943 87.756638 
L 339.026761 118.132299 
L 379.60858 137.2911 
L 420.190398 156.915471 
" style="fill:none;stroke:#9467bd;stroke-linecap:square;stroke-width:1.5;"/>
   </g>
   <g id="line2d_28">
    <path clip-path="url(#p386902a5a0)" d="M 95.535852 48.768432 
L 136.11767 54.522035 
L 176.699489 77.645315 
L 217.281307 83.706229 
L 257.863125 91.402542 
L 298.444943 118.954429 
L 339.026761 138.199296 
L 379.60858 156.644289 
L 420.190398 177.028832 
" style="fill:none;stroke:#8c564b;stroke-linecap:square;stroke-width:1.5;"/>
   </g>
   <g id="line2d_29">
    <path clip-path="url(#p386902a5a0)" d="M 95.535852 61.145711 
L 136.11767 69.121722 
L 176.699489 82.160194 
L 217.281307 99.141303 
L 257.863125 121.444103 
L 298.444943 136.284199 
L 339.026761 157.256782 
L 379.60858 183.590758 
L 420.190398 198.21641 
" style="fill:none;stroke:#e377c2;stroke-linecap:square;stroke-width:1.5;"/>
   </g>
   <g id="line2d_30">
    <path clip-path="url(#p386902a5a0)" d="M 95.535852 75.693814 
L 136.11767 86.898035 
L 176.699489 102.000726 
L 217.281307 125.330896 
L 257.863125 143.447422 
L 298.444943 174.632918 
L 339.026761 188.315136 
L 379.60858 210.273808 
L 420.190398 225.307055 
" style="fill:none;stroke:#7f7f7f;stroke-linecap:square;stroke-width:1.5;"/>
   </g>
   <g id="line2d_31">
    <path clip-path="url(#p386902a5a0)" d="M 95.535852 90.442348 
L 136.11767 109.13668 
L 176.699489 138.032246 
L 217.281307 153.040011 
L 257.863125 176.721796 
L 298.444943 199.10551 
L 339.026761 215.266963 
L 379.60858 235.940821 
L 420.190398 254.467347 
" style="fill:none;stroke:#bcbd22;stroke-linecap:square;stroke-width:1.5;"/>
   </g>
   <g id="line2d_32">
    <path clip-path="url(#p386902a5a0)" d="M 95.535852 126.191903 
L 136.11767 134.984343 
L 176.699489 167.615176 
L 217.281307 181.335448 
L 257.863125 209.192105 
L 298.444943 228.453252 
L 339.026761 239.32042 
L 379.60858 260.927133 
L 420.190398 273.975153 
" style="fill:none;stroke:#17becf;stroke-linecap:square;stroke-width:1.5;"/>
   </g>
   <g id="line2d_33">
    <path clip-path="url(#p386902a5a0)" d="M 95.535852 155.036778 
L 136.11767 169.232991 
L 176.699489 196.341152 
L 217.281307 219.892017 
L 257.863125 239.714416 
L 298.444943 255.381038 
L 339.026761 271.66606 
L 379.60858 279.129519 
L 420.190398 284.388085 
" style="fill:none;stroke:#1f77b4;stroke-linecap:square;stroke-width:1.5;"/>
   </g>
   <g id="patch_3">
    <path d="M 79.303125 297.54825 
L 79.303125 31.43625 
" style="fill:none;stroke:#000000;stroke-linecap:square;stroke-linejoin:miter;stroke-width:0.8;"/>
   </g>
   <g id="patch_4">
    <path d="M 436.423125 297.54825 
L 436.423125 31.43625 
" style="fill:none;stroke:#000000;stroke-linecap:square;stroke-linejoin:miter;stroke-width:0.8;"/>
   </g>
   <g id="patch_5">
    <path d="M 79.303125 297.54825 
L 436.423125 297.54825 
" style="fill:none;stroke:#000000;stroke-linecap:square;stroke-linejoin:miter;stroke-width:0.8;"/>
   </g>
   <g id="patch_6">
    <path d="M 79.303125 31.43625 
L 436.423125 31.43625 
" style="fill:none;stroke:#000000;stroke-linecap:square;stroke-linejoin:miter;stroke-width:0.8;"/>
   </g>
   <g id="text_14">
    <!-- Total count second image -->
    <defs>
     <path d="M -0.296875 72.90625 
L 61.375 72.90625 
L 61.375 64.59375 
L 35.5 64.59375 
L 35.5 0 
L 25.59375 0 
L 25.59375 64.59375 
L -0.296875 64.59375 
z
" id="DejaVuSans-54"/>
     <path d="M 54.890625 33.015625 
L 54.890625 0 
L 45.90625 0 
L 45.90625 32.71875 
Q 45.90625 40.484375 42.875 44.328125 
Q 39.84375 48.1875 33.796875 48.1875 
Q 26.515625 48.1875 22.3125 43.546875 
Q 18.109375 38.921875 18.109375 30.90625 
L 18.109375 0 
L 9.078125 0 
L 9.078125 54.6875 
L 18.109375 54.6875 
L 18.109375 46.1875 
Q 21.34375 51.125 25.703125 53.5625 
Q 30.078125 56 35.796875 56 
Q 45.21875 56 50.046875 50.171875 
Q 54.890625 44.34375 54.890625 33.015625 
z
" id="DejaVuSans-6e"/>
     <path d="M 44.28125 53.078125 
L 44.28125 44.578125 
Q 40.484375 46.53125 36.375 47.5 
Q 32.28125 48.484375 27.875 48.484375 
Q 21.1875 48.484375 17.84375 46.4375 
Q 14.5 44.390625 14.5 40.28125 
Q 14.5 37.15625 16.890625 35.375 
Q 19.28125 33.59375 26.515625 31.984375 
L 29.59375 31.296875 
Q 39.15625 29.25 43.1875 25.515625 
Q 47.21875 21.78125 47.21875 15.09375 
Q 47.21875 7.46875 41.1875 3.015625 
Q 35.15625 -1.421875 24.609375 -1.421875 
Q 20.21875 -1.421875 15.453125 -0.5625 
Q 10.6875 0.296875 5.421875 2 
L 5.421875 11.28125 
Q 10.40625 8.6875 15.234375 7.390625 
Q 20.0625 6.109375 24.8125 6.109375 
Q 31.15625 6.109375 34.5625 8.28125 
Q 37.984375 10.453125 37.984375 14.40625 
Q 37.984375 18.0625 35.515625 20.015625 
Q 33.0625 21.96875 24.703125 23.78125 
L 21.578125 24.515625 
Q 13.234375 26.265625 9.515625 29.90625 
Q 5.8125 33.546875 5.8125 39.890625 
Q 5.8125 47.609375 11.28125 51.796875 
Q 16.75 56 26.8125 56 
Q 31.78125 56 36.171875 55.265625 
Q 40.578125 54.546875 44.28125 53.078125 
z
" id="DejaVuSans-73"/>
     <path d="M 45.40625 46.390625 
L 45.40625 75.984375 
L 54.390625 75.984375 
L 54.390625 0 
L 45.40625 0 
L 45.40625 8.203125 
Q 42.578125 3.328125 38.25 0.953125 
Q 33.9375 -1.421875 27.875 -1.421875 
Q 17.96875 -1.421875 11.734375 6.484375 
Q 5.515625 14.40625 5.515625 27.296875 
Q 5.515625 40.1875 11.734375 48.09375 
Q 17.96875 56 27.875 56 
Q 33.9375 56 38.25 53.625 
Q 42.578125 51.265625 45.40625 46.390625 
z
M 14.796875 27.296875 
Q 14.796875 17.390625 18.875 11.75 
Q 22.953125 6.109375 30.078125 6.109375 
Q 37.203125 6.109375 41.296875 11.75 
Q 45.40625 17.390625 45.40625 27.296875 
Q 45.40625 37.203125 41.296875 42.84375 
Q 37.203125 48.484375 30.078125 48.484375 
Q 22.953125 48.484375 18.875 42.84375 
Q 14.796875 37.203125 14.796875 27.296875 
z
" id="DejaVuSans-64"/>
     <path d="M 52 44.1875 
Q 55.375 50.25 60.0625 53.125 
Q 64.75 56 71.09375 56 
Q 79.640625 56 84.28125 50.015625 
Q 88.921875 44.046875 88.921875 33.015625 
L 88.921875 0 
L 79.890625 0 
L 79.890625 32.71875 
Q 79.890625 40.578125 77.09375 44.375 
Q 74.3125 48.1875 68.609375 48.1875 
Q 61.625 48.1875 57.5625 43.546875 
Q 53.515625 38.921875 53.515625 30.90625 
L 53.515625 0 
L 44.484375 0 
L 44.484375 32.71875 
Q 44.484375 40.625 41.703125 44.40625 
Q 38.921875 48.1875 33.109375 48.1875 
Q 26.21875 48.1875 22.15625 43.53125 
Q 18.109375 38.875 18.109375 30.90625 
L 18.109375 0 
L 9.078125 0 
L 9.078125 54.6875 
L 18.109375 54.6875 
L 18.109375 46.1875 
Q 21.1875 51.21875 25.484375 53.609375 
Q 29.78125 56 35.6875 56 
Q 41.65625 56 45.828125 52.96875 
Q 50 49.953125 52 44.1875 
z
" id="DejaVuSans-6d"/>
     <path d="M 45.40625 27.984375 
Q 45.40625 37.75 41.375 43.109375 
Q 37.359375 48.484375 30.078125 48.484375 
Q 22.859375 48.484375 18.828125 43.109375 
Q 14.796875 37.75 14.796875 27.984375 
Q 14.796875 18.265625 18.828125 12.890625 
Q 22.859375 7.515625 30.078125 7.515625 
Q 37.359375 7.515625 41.375 12.890625 
Q 45.40625 18.265625 45.40625 27.984375 
z
M 54.390625 6.78125 
Q 54.390625 -7.171875 48.1875 -13.984375 
Q 42 -20.796875 29.203125 -20.796875 
Q 24.46875 -20.796875 20.265625 -20.09375 
Q 16.0625 -19.390625 12.109375 -17.921875 
L 12.109375 -9.1875 
Q 16.0625 -11.328125 19.921875 -12.34375 
Q 23.78125 -13.375 27.78125 -13.375 
Q 36.625 -13.375 41.015625 -8.765625 
Q 45.40625 -4.15625 45.40625 5.171875 
L 45.40625 9.625 
Q 42.625 4.78125 38.28125 2.390625 
Q 33.9375 0 27.875 0 
Q 17.828125 0 11.671875 7.65625 
Q 5.515625 15.328125 5.515625 27.984375 
Q 5.515625 40.671875 11.671875 48.328125 
Q 17.828125 56 27.875 56 
Q 33.9375 56 38.28125 53.609375 
Q 42.625 51.21875 45.40625 46.390625 
L 45.40625 54.6875 
L 54.390625 54.6875 
z
" id="DejaVuSans-67"/>
    </defs>
    <g transform="translate(102.358125 25.43625)scale(0.24 -0.24)">
     <use xlink:href="#DejaVuSans-54"/>
     <use x="60.818359" xlink:href="#DejaVuSans-6f"/>
     <use x="122" xlink:href="#DejaVuSans-74"/>
     <use x="161.208984" xlink:href="#DejaVuSans-61"/>
     <use x="222.488281" xlink:href="#DejaVuSans-6c"/>
     <use x="250.271484" xlink:href="#DejaVuSans-20"/>
     <use x="282.058594" xlink:href="#DejaVuSans-63"/>
     <use x="337.039062" xlink:href="#DejaVuSans-6f"/>
     <use x="398.220703" xlink:href="#DejaVuSans-75"/>
     <use x="461.599609" xlink:href="#DejaVuSans-6e"/>
     <use x="524.978516" xlink:href="#DejaVuSans-74"/>
     <use x="564.1875" xlink:href="#DejaVuSans-20"/>
     <use x="595.974609" xlink:href="#DejaVuSans-73"/>
     <use x="648.074219" xlink:href="#DejaVuSans-65"/>
     <use x="709.597656" xlink:href="#DejaVuSans-63"/>
     <use x="764.578125" xlink:href="#DejaVuSans-6f"/>
     <use x="825.759766" xlink:href="#DejaVuSans-6e"/>
     <use x="889.138672" xlink:href="#DejaVuSans-64"/>
     <use x="952.615234" xlink:href="#DejaVuSans-20"/>
     <use x="984.402344" xlink:href="#DejaVuSans-69"/>
     <use x="1012.185547" xlink:href="#DejaVuSans-6d"/>
     <use x="1109.597656" xlink:href="#DejaVuSans-61"/>
     <use x="1170.876953" xlink:href="#DejaVuSans-67"/>
     <use x="1234.353516" xlink:href="#DejaVuSans-65"/>
    </g>
   </g>
   <g id="legend_1">
    <g id="patch_7">
     <path d="M 457.479125 294.57125 
L 578.279125 294.57125 
Q 581.479125 294.57125 581.479125 291.37125 
L 581.479125 34.63625 
Q 581.479125 31.43625 578.279125 31.43625 
L 457.479125 31.43625 
Q 454.279125 31.43625 454.279125 34.63625 
L 454.279125 291.37125 
Q 454.279125 294.57125 457.479125 294.57125 
z
" style="fill:#ffffff;opacity:0.8;stroke:#cccccc;stroke-linejoin:miter;"/>
    </g>
    <g id="LineCollection_12">
     <path d="M 476.679125 52.39375 
L 476.679125 36.39375 
" style="fill:none;stroke:#1f77b4;stroke-width:1.5;"/>
    </g>
    <g id="line2d_34">
     <path d="M 460.679125 44.39375 
L 492.679125 44.39375 
" style="fill:none;stroke:#1f77b4;stroke-linecap:square;stroke-width:1.5;"/>
    </g>
    <g id="line2d_35"/>
    <g id="text_15">
     <!-- -30.0${}^\circ$ -->
     <defs>
      <path d="M 5.421875 35.890625 
L 36.078125 35.890625 
L 36.078125 21.6875 
L 5.421875 21.6875 
z
" id="DejaVuSans-Bold-2d"/>
      <path d="M 10.203125 18.890625 
L 27.78125 18.890625 
L 27.78125 0 
L 10.203125 0 
z
" id="DejaVuSans-Bold-2e"/>
      <path d="M 31.25 40 
Q 27.734375 40 25.296875 37.546875 
Q 22.859375 35.109375 22.859375 31.59375 
Q 22.859375 28.078125 25.265625 25.6875 
Q 27.6875 23.296875 31.25 23.296875 
Q 34.765625 23.296875 37.203125 25.703125 
Q 39.65625 28.125 39.65625 31.59375 
Q 39.65625 35.109375 37.1875 37.546875 
Q 34.71875 40 31.25 40 
z
M 31.25 47.90625 
Q 34.46875 47.90625 37.453125 46.65625 
Q 40.4375 45.40625 42.78125 43.125 
Q 45.0625 40.78125 46.265625 37.84375 
Q 47.46875 34.921875 47.46875 31.59375 
Q 47.46875 28.328125 46.265625 25.375 
Q 45.0625 22.421875 42.875 20.21875 
Q 40.53125 17.875 37.5 16.625 
Q 34.46875 15.390625 31.15625 15.390625 
Q 24.265625 15.390625 19.59375 20.046875 
Q 14.9375 24.703125 14.9375 31.59375 
Q 14.9375 38.484375 19.640625 43.1875 
Q 24.359375 47.90625 31.25 47.90625 
z
" id="DejaVuSans-Bold-2218"/>
     </defs>
     <g transform="translate(505.479125 49.99375)scale(0.16 -0.16)">
      <use transform="translate(0 0.78125)" xlink:href="#DejaVuSans-Bold-2d"/>
      <use transform="translate(41.503906 0.78125)" xlink:href="#DejaVuSans-Bold-33"/>
      <use transform="translate(111.083984 0.78125)" xlink:href="#DejaVuSans-Bold-30"/>
      <use transform="translate(180.664062 0.78125)" xlink:href="#DejaVuSans-Bold-2e"/>
      <use transform="translate(218.652344 0.78125)" xlink:href="#DejaVuSans-Bold-30"/>
      <use transform="translate(303.777344 39.0625)scale(0.7)" xlink:href="#DejaVuSans-Bold-2218"/>
     </g>
    </g>
    <g id="LineCollection_13">
     <path d="M 476.679125 75.87875 
L 476.679125 59.87875 
" style="fill:none;stroke:#ff7f0e;stroke-width:1.5;"/>
    </g>
    <g id="line2d_36">
     <path d="M 460.679125 67.87875 
L 492.679125 67.87875 
" style="fill:none;stroke:#ff7f0e;stroke-linecap:square;stroke-width:1.5;"/>
    </g>
    <g id="line2d_37"/>
    <g id="text_16">
     <!-- -40.0${}^\circ$ -->
     <g transform="translate(505.479125 73.47875)scale(0.16 -0.16)">
      <use transform="translate(0 0.78125)" xlink:href="#DejaVuSans-Bold-2d"/>
      <use transform="translate(41.503906 0.78125)" xlink:href="#DejaVuSans-Bold-34"/>
      <use transform="translate(111.083984 0.78125)" xlink:href="#DejaVuSans-Bold-30"/>
      <use transform="translate(180.664062 0.78125)" xlink:href="#DejaVuSans-Bold-2e"/>
      <use transform="translate(218.652344 0.78125)" xlink:href="#DejaVuSans-Bold-30"/>
      <use transform="translate(303.777344 39.0625)scale(0.7)" xlink:href="#DejaVuSans-Bold-2218"/>
     </g>
    </g>
    <g id="LineCollection_14">
     <path d="M 476.679125 99.36375 
L 476.679125 83.36375 
" style="fill:none;stroke:#2ca02c;stroke-width:1.5;"/>
    </g>
    <g id="line2d_38">
     <path d="M 460.679125 91.36375 
L 492.679125 91.36375 
" style="fill:none;stroke:#2ca02c;stroke-linecap:square;stroke-width:1.5;"/>
    </g>
    <g id="line2d_39"/>
    <g id="text_17">
     <!-- -50.0${}^\circ$ -->
     <g transform="translate(505.479125 96.96375)scale(0.16 -0.16)">
      <use transform="translate(0 0.78125)" xlink:href="#DejaVuSans-Bold-2d"/>
      <use transform="translate(41.503906 0.78125)" xlink:href="#DejaVuSans-Bold-35"/>
      <use transform="translate(111.083984 0.78125)" xlink:href="#DejaVuSans-Bold-30"/>
      <use transform="translate(180.664062 0.78125)" xlink:href="#DejaVuSans-Bold-2e"/>
      <use transform="translate(218.652344 0.78125)" xlink:href="#DejaVuSans-Bold-30"/>
      <use transform="translate(303.777344 39.0625)scale(0.7)" xlink:href="#DejaVuSans-Bold-2218"/>
     </g>
    </g>
    <g id="LineCollection_15">
     <path d="M 476.679125 122.84875 
L 476.679125 106.84875 
" style="fill:none;stroke:#d62728;stroke-width:1.5;"/>
    </g>
    <g id="line2d_40">
     <path d="M 460.679125 114.84875 
L 492.679125 114.84875 
" style="fill:none;stroke:#d62728;stroke-linecap:square;stroke-width:1.5;"/>
    </g>
    <g id="line2d_41"/>
    <g id="text_18">
     <!-- -60.0${}^\circ$ -->
     <defs>
      <path d="M 36.1875 35.984375 
Q 31.25 35.984375 28.78125 32.78125 
Q 26.3125 29.59375 26.3125 23.1875 
Q 26.3125 16.796875 28.78125 13.59375 
Q 31.25 10.40625 36.1875 10.40625 
Q 41.15625 10.40625 43.625 13.59375 
Q 46.09375 16.796875 46.09375 23.1875 
Q 46.09375 29.59375 43.625 32.78125 
Q 41.15625 35.984375 36.1875 35.984375 
z
M 59.421875 71 
L 59.421875 57.515625 
Q 54.78125 59.71875 50.671875 60.765625 
Q 46.578125 61.8125 42.671875 61.8125 
Q 34.28125 61.8125 29.59375 57.140625 
Q 24.90625 52.484375 24.125 43.3125 
Q 27.34375 45.703125 31.09375 46.890625 
Q 34.859375 48.09375 39.3125 48.09375 
Q 50.484375 48.09375 57.34375 41.546875 
Q 64.203125 35.015625 64.203125 24.421875 
Q 64.203125 12.703125 56.53125 5.640625 
Q 48.875 -1.421875 35.984375 -1.421875 
Q 21.78125 -1.421875 13.984375 8.171875 
Q 6.203125 17.78125 6.203125 35.40625 
Q 6.203125 53.46875 15.3125 63.796875 
Q 24.421875 74.125 40.28125 74.125 
Q 45.3125 74.125 50.046875 73.34375 
Q 54.78125 72.5625 59.421875 71 
z
" id="DejaVuSans-Bold-36"/>
     </defs>
     <g transform="translate(505.479125 120.44875)scale(0.16 -0.16)">
      <use transform="translate(0 0.78125)" xlink:href="#DejaVuSans-Bold-2d"/>
      <use transform="translate(41.503906 0.78125)" xlink:href="#DejaVuSans-Bold-36"/>
      <use transform="translate(111.083984 0.78125)" xlink:href="#DejaVuSans-Bold-30"/>
      <use transform="translate(180.664062 0.78125)" xlink:href="#DejaVuSans-Bold-2e"/>
      <use transform="translate(218.652344 0.78125)" xlink:href="#DejaVuSans-Bold-30"/>
      <use transform="translate(303.777344 39.0625)scale(0.7)" xlink:href="#DejaVuSans-Bold-2218"/>
     </g>
    </g>
    <g id="LineCollection_16">
     <path d="M 476.679125 146.33375 
L 476.679125 130.33375 
" style="fill:none;stroke:#9467bd;stroke-width:1.5;"/>
    </g>
    <g id="line2d_42">
     <path d="M 460.679125 138.33375 
L 492.679125 138.33375 
" style="fill:none;stroke:#9467bd;stroke-linecap:square;stroke-width:1.5;"/>
    </g>
    <g id="line2d_43"/>
    <g id="text_19">
     <!-- -70.0${}^\circ$ -->
     <g transform="translate(505.479125 143.93375)scale(0.16 -0.16)">
      <use transform="translate(0 0.78125)" xlink:href="#DejaVuSans-Bold-2d"/>
      <use transform="translate(41.503906 0.78125)" xlink:href="#DejaVuSans-Bold-37"/>
      <use transform="translate(111.083984 0.78125)" xlink:href="#DejaVuSans-Bold-30"/>
      <use transform="translate(180.664062 0.78125)" xlink:href="#DejaVuSans-Bold-2e"/>
      <use transform="translate(218.652344 0.78125)" xlink:href="#DejaVuSans-Bold-30"/>
      <use transform="translate(303.777344 39.0625)scale(0.7)" xlink:href="#DejaVuSans-Bold-2218"/>
     </g>
    </g>
    <g id="LineCollection_17">
     <path d="M 476.679125 169.81875 
L 476.679125 153.81875 
" style="fill:none;stroke:#8c564b;stroke-width:1.5;"/>
    </g>
    <g id="line2d_44">
     <path d="M 460.679125 161.81875 
L 492.679125 161.81875 
" style="fill:none;stroke:#8c564b;stroke-linecap:square;stroke-width:1.5;"/>
    </g>
    <g id="line2d_45"/>
    <g id="text_20">
     <!-- -80.0${}^\circ$ -->
     <defs>
      <path d="M 34.8125 32.625 
Q 29.546875 32.625 26.703125 29.734375 
Q 23.875 26.859375 23.875 21.484375 
Q 23.875 16.109375 26.703125 13.25 
Q 29.546875 10.40625 34.8125 10.40625 
Q 40.046875 10.40625 42.828125 13.25 
Q 45.609375 16.109375 45.609375 21.484375 
Q 45.609375 26.90625 42.828125 29.765625 
Q 40.046875 32.625 34.8125 32.625 
z
M 21.09375 38.8125 
Q 14.453125 40.828125 11.078125 44.96875 
Q 7.71875 49.125 7.71875 55.328125 
Q 7.71875 64.546875 14.59375 69.375 
Q 21.484375 74.21875 34.8125 74.21875 
Q 48.046875 74.21875 54.921875 69.40625 
Q 61.8125 64.59375 61.8125 55.328125 
Q 61.8125 49.125 58.421875 44.96875 
Q 55.03125 40.828125 48.390625 38.8125 
Q 55.8125 36.765625 59.59375 32.15625 
Q 63.375 27.546875 63.375 20.515625 
Q 63.375 9.671875 56.171875 4.125 
Q 48.96875 -1.421875 34.8125 -1.421875 
Q 20.609375 -1.421875 13.359375 4.125 
Q 6.109375 9.671875 6.109375 20.515625 
Q 6.109375 27.546875 9.890625 32.15625 
Q 13.671875 36.765625 21.09375 38.8125 
z
M 25.484375 53.421875 
Q 25.484375 49.078125 27.90625 46.734375 
Q 30.328125 44.390625 34.8125 44.390625 
Q 39.203125 44.390625 41.59375 46.734375 
Q 44 49.078125 44 53.421875 
Q 44 57.765625 41.59375 60.078125 
Q 39.203125 62.40625 34.8125 62.40625 
Q 30.328125 62.40625 27.90625 60.0625 
Q 25.484375 57.71875 25.484375 53.421875 
z
" id="DejaVuSans-Bold-38"/>
     </defs>
     <g transform="translate(505.479125 167.41875)scale(0.16 -0.16)">
      <use transform="translate(0 0.78125)" xlink:href="#DejaVuSans-Bold-2d"/>
      <use transform="translate(41.503906 0.78125)" xlink:href="#DejaVuSans-Bold-38"/>
      <use transform="translate(111.083984 0.78125)" xlink:href="#DejaVuSans-Bold-30"/>
      <use transform="translate(180.664062 0.78125)" xlink:href="#DejaVuSans-Bold-2e"/>
      <use transform="translate(218.652344 0.78125)" xlink:href="#DejaVuSans-Bold-30"/>
      <use transform="translate(303.777344 39.0625)scale(0.7)" xlink:href="#DejaVuSans-Bold-2218"/>
     </g>
    </g>
    <g id="LineCollection_18">
     <path d="M 476.679125 193.30375 
L 476.679125 177.30375 
" style="fill:none;stroke:#e377c2;stroke-width:1.5;"/>
    </g>
    <g id="line2d_46">
     <path d="M 460.679125 185.30375 
L 492.679125 185.30375 
" style="fill:none;stroke:#e377c2;stroke-linecap:square;stroke-width:1.5;"/>
    </g>
    <g id="line2d_47"/>
    <g id="text_21">
     <!-- -90.0${}^\circ$ -->
     <defs>
      <path d="M 10.015625 1.609375 
L 10.015625 15.09375 
Q 14.5 12.984375 18.59375 11.9375 
Q 22.703125 10.890625 26.703125 10.890625 
Q 35.109375 10.890625 39.796875 15.546875 
Q 44.484375 20.21875 45.3125 29.390625 
Q 42 26.953125 38.234375 25.734375 
Q 34.46875 24.515625 30.078125 24.515625 
Q 18.890625 24.515625 12.03125 31.03125 
Q 5.171875 37.546875 5.171875 48.1875 
Q 5.171875 59.96875 12.8125 67.046875 
Q 20.453125 74.125 33.296875 74.125 
Q 47.5625 74.125 55.375 64.5 
Q 63.1875 54.890625 63.1875 37.3125 
Q 63.1875 19.234375 54.046875 8.90625 
Q 44.921875 -1.421875 29 -1.421875 
Q 23.875 -1.421875 19.1875 -0.65625 
Q 14.5 0.09375 10.015625 1.609375 
z
M 33.203125 36.71875 
Q 38.140625 36.71875 40.625 39.90625 
Q 43.109375 43.109375 43.109375 49.515625 
Q 43.109375 55.859375 40.625 59.078125 
Q 38.140625 62.3125 33.203125 62.3125 
Q 28.265625 62.3125 25.78125 59.078125 
Q 23.296875 55.859375 23.296875 49.515625 
Q 23.296875 43.109375 25.78125 39.90625 
Q 28.265625 36.71875 33.203125 36.71875 
z
" id="DejaVuSans-Bold-39"/>
     </defs>
     <g transform="translate(505.479125 190.90375)scale(0.16 -0.16)">
      <use transform="translate(0 0.78125)" xlink:href="#DejaVuSans-Bold-2d"/>
      <use transform="translate(41.503906 0.78125)" xlink:href="#DejaVuSans-Bold-39"/>
      <use transform="translate(111.083984 0.78125)" xlink:href="#DejaVuSans-Bold-30"/>
      <use transform="translate(180.664062 0.78125)" xlink:href="#DejaVuSans-Bold-2e"/>
      <use transform="translate(218.652344 0.78125)" xlink:href="#DejaVuSans-Bold-30"/>
      <use transform="translate(303.777344 39.0625)scale(0.7)" xlink:href="#DejaVuSans-Bold-2218"/>
     </g>
    </g>
    <g id="LineCollection_19">
     <path d="M 476.679125 216.78875 
L 476.679125 200.78875 
" style="fill:none;stroke:#7f7f7f;stroke-width:1.5;"/>
    </g>
    <g id="line2d_48">
     <path d="M 460.679125 208.78875 
L 492.679125 208.78875 
" style="fill:none;stroke:#7f7f7f;stroke-linecap:square;stroke-width:1.5;"/>
    </g>
    <g id="line2d_49"/>
    <g id="text_22">
     <!-- -100.0${}^\circ$ -->
     <defs>
      <path d="M 11.71875 12.984375 
L 28.328125 12.984375 
L 28.328125 60.109375 
L 11.28125 56.59375 
L 11.28125 69.390625 
L 28.21875 72.90625 
L 46.09375 72.90625 
L 46.09375 12.984375 
L 62.703125 12.984375 
L 62.703125 0 
L 11.71875 0 
z
" id="DejaVuSans-Bold-31"/>
     </defs>
     <g transform="translate(505.479125 214.38875)scale(0.16 -0.16)">
      <use transform="translate(0 0.78125)" xlink:href="#DejaVuSans-Bold-2d"/>
      <use transform="translate(41.503906 0.78125)" xlink:href="#DejaVuSans-Bold-31"/>
      <use transform="translate(111.083984 0.78125)" xlink:href="#DejaVuSans-Bold-30"/>
      <use transform="translate(180.664062 0.78125)" xlink:href="#DejaVuSans-Bold-30"/>
      <use transform="translate(250.244141 0.78125)" xlink:href="#DejaVuSans-Bold-2e"/>
      <use transform="translate(288.232422 0.78125)" xlink:href="#DejaVuSans-Bold-30"/>
      <use transform="translate(373.357422 39.0625)scale(0.7)" xlink:href="#DejaVuSans-Bold-2218"/>
     </g>
    </g>
    <g id="LineCollection_20">
     <path d="M 476.679125 240.27375 
L 476.679125 224.27375 
" style="fill:none;stroke:#bcbd22;stroke-width:1.5;"/>
    </g>
    <g id="line2d_50">
     <path d="M 460.679125 232.27375 
L 492.679125 232.27375 
" style="fill:none;stroke:#bcbd22;stroke-linecap:square;stroke-width:1.5;"/>
    </g>
    <g id="line2d_51"/>
    <g id="text_23">
     <!-- -110.0${}^\circ$ -->
     <g transform="translate(505.479125 237.87375)scale(0.16 -0.16)">
      <use transform="translate(0 0.78125)" xlink:href="#DejaVuSans-Bold-2d"/>
      <use transform="translate(41.503906 0.78125)" xlink:href="#DejaVuSans-Bold-31"/>
      <use transform="translate(111.083984 0.78125)" xlink:href="#DejaVuSans-Bold-31"/>
      <use transform="translate(180.664062 0.78125)" xlink:href="#DejaVuSans-Bold-30"/>
      <use transform="translate(250.244141 0.78125)" xlink:href="#DejaVuSans-Bold-2e"/>
      <use transform="translate(288.232422 0.78125)" xlink:href="#DejaVuSans-Bold-30"/>
      <use transform="translate(373.357422 39.0625)scale(0.7)" xlink:href="#DejaVuSans-Bold-2218"/>
     </g>
    </g>
    <g id="LineCollection_21">
     <path d="M 476.679125 263.75875 
L 476.679125 247.75875 
" style="fill:none;stroke:#17becf;stroke-width:1.5;"/>
    </g>
    <g id="line2d_52">
     <path d="M 460.679125 255.75875 
L 492.679125 255.75875 
" style="fill:none;stroke:#17becf;stroke-linecap:square;stroke-width:1.5;"/>
    </g>
    <g id="line2d_53"/>
    <g id="text_24">
     <!-- -120.0${}^\circ$ -->
     <g transform="translate(505.479125 261.35875)scale(0.16 -0.16)">
      <use transform="translate(0 0.78125)" xlink:href="#DejaVuSans-Bold-2d"/>
      <use transform="translate(41.503906 0.78125)" xlink:href="#DejaVuSans-Bold-31"/>
      <use transform="translate(111.083984 0.78125)" xlink:href="#DejaVuSans-Bold-32"/>
      <use transform="translate(180.664062 0.78125)" xlink:href="#DejaVuSans-Bold-30"/>
      <use transform="translate(250.244141 0.78125)" xlink:href="#DejaVuSans-Bold-2e"/>
      <use transform="translate(288.232422 0.78125)" xlink:href="#DejaVuSans-Bold-30"/>
      <use transform="translate(373.357422 39.0625)scale(0.7)" xlink:href="#DejaVuSans-Bold-2218"/>
     </g>
    </g>
    <g id="LineCollection_22">
     <path d="M 476.679125 287.24375 
L 476.679125 271.24375 
" style="fill:none;stroke:#1f77b4;stroke-width:1.5;"/>
    </g>
    <g id="line2d_54">
     <path d="M 460.679125 279.24375 
L 492.679125 279.24375 
" style="fill:none;stroke:#1f77b4;stroke-linecap:square;stroke-width:1.5;"/>
    </g>
    <g id="line2d_55"/>
    <g id="text_25">
     <!-- -130.0${}^\circ$ -->
     <g transform="translate(505.479125 284.84375)scale(0.16 -0.16)">
      <use transform="translate(0 0.78125)" xlink:href="#DejaVuSans-Bold-2d"/>
      <use transform="translate(41.503906 0.78125)" xlink:href="#DejaVuSans-Bold-31"/>
      <use transform="translate(111.083984 0.78125)" xlink:href="#DejaVuSans-Bold-33"/>
      <use transform="translate(180.664062 0.78125)" xlink:href="#DejaVuSans-Bold-30"/>
      <use transform="translate(250.244141 0.78125)" xlink:href="#DejaVuSans-Bold-2e"/>
      <use transform="translate(288.232422 0.78125)" xlink:href="#DejaVuSans-Bold-30"/>
      <use transform="translate(373.357422 39.0625)scale(0.7)" xlink:href="#DejaVuSans-Bold-2218"/>
     </g>
    </g>
   </g>
  </g>
 </g>
 <defs>
  <clipPath id="p386902a5a0">
   <rect height="266.112" width="357.12" x="79.303125" y="31.43625"/>
  </clipPath>
 </defs>
</svg>
