<?xml version="1.0" encoding="utf-8" standalone="no"?>
<!DOCTYPE svg PUBLIC "-//W3C//DTD SVG 1.1//EN"
  "http://www.w3.org/Graphics/SVG/1.1/DTD/svg11.dtd">
<!-- Created with matplotlib (https://matplotlib.org/) -->
<svg height="325.385437pt" version="1.1" viewBox="0 0 425.730938 325.385437" width="425.730938pt" xmlns="http://www.w3.org/2000/svg" xmlns:xlink="http://www.w3.org/1999/xlink">
 <defs>
  <style type="text/css">
*{stroke-linecap:butt;stroke-linejoin:round;}
  </style>
 </defs>
 <g id="figure_1">
  <g id="patch_1">
   <path d="M 0 325.385437 
L 425.730938 325.385437 
L 425.730938 0 
L 0 0 
z
" style="fill:none;"/>
  </g>
  <g id="axes_1">
   <g id="patch_2">
    <path d="M 61.410938 273.312 
L 418.530938 273.312 
L 418.530938 7.2 
L 61.410938 7.2 
z
" style="fill:none;"/>
   </g>
   <g id="matplotlib.axis_1">
    <g id="xtick_1">
     <g id="line2d_1">
      <path clip-path="url(#pee92595c7c)" d="M 62.88664 273.312 
L 62.88664 7.2 
" style="fill:none;stroke:#b0b0b0;stroke-linecap:square;stroke-width:0.8;"/>
     </g>
     <g id="line2d_2">
      <defs>
       <path d="M 0 0 
L 0 3.5 
" id="m005f0a59be" style="stroke:#000000;stroke-width:0.8;"/>
      </defs>
      <g>
       <use style="stroke:#000000;stroke-width:0.8;" x="62.88664" xlink:href="#m005f0a59be" y="273.312"/>
      </g>
     </g>
     <g id="text_1">
      <!-- 731.0 -->
      <defs>
       <path d="M 8.203125 72.90625 
L 55.078125 72.90625 
L 55.078125 68.703125 
L 28.609375 0 
L 18.3125 0 
L 43.21875 64.59375 
L 8.203125 64.59375 
z
" id="DejaVuSans-55"/>
       <path d="M 40.578125 39.3125 
Q 47.65625 37.796875 51.625 33 
Q 55.609375 28.21875 55.609375 21.1875 
Q 55.609375 10.40625 48.1875 4.484375 
Q 40.765625 -1.421875 27.09375 -1.421875 
Q 22.515625 -1.421875 17.65625 -0.515625 
Q 12.796875 0.390625 7.625 2.203125 
L 7.625 11.71875 
Q 11.71875 9.328125 16.59375 8.109375 
Q 21.484375 6.890625 26.8125 6.890625 
Q 36.078125 6.890625 40.9375 10.546875 
Q 45.796875 14.203125 45.796875 21.1875 
Q 45.796875 27.640625 41.28125 31.265625 
Q 36.765625 34.90625 28.71875 34.90625 
L 20.21875 34.90625 
L 20.21875 43.015625 
L 29.109375 43.015625 
Q 36.375 43.015625 40.234375 45.921875 
Q 44.09375 48.828125 44.09375 54.296875 
Q 44.09375 59.90625 40.109375 62.90625 
Q 36.140625 65.921875 28.71875 65.921875 
Q 24.65625 65.921875 20.015625 65.03125 
Q 15.375 64.15625 9.8125 62.3125 
L 9.8125 71.09375 
Q 15.4375 72.65625 20.34375 73.4375 
Q 25.25 74.21875 29.59375 74.21875 
Q 40.828125 74.21875 47.359375 69.109375 
Q 53.90625 64.015625 53.90625 55.328125 
Q 53.90625 49.265625 50.4375 45.09375 
Q 46.96875 40.921875 40.578125 39.3125 
z
" id="DejaVuSans-51"/>
       <path d="M 12.40625 8.296875 
L 28.515625 8.296875 
L 28.515625 63.921875 
L 10.984375 60.40625 
L 10.984375 69.390625 
L 28.421875 72.90625 
L 38.28125 72.90625 
L 38.28125 8.296875 
L 54.390625 8.296875 
L 54.390625 0 
L 12.40625 0 
z
" id="DejaVuSans-49"/>
       <path d="M 10.6875 12.40625 
L 21 12.40625 
L 21 0 
L 10.6875 0 
z
" id="DejaVuSans-46"/>
       <path d="M 31.78125 66.40625 
Q 24.171875 66.40625 20.328125 58.90625 
Q 16.5 51.421875 16.5 36.375 
Q 16.5 21.390625 20.328125 13.890625 
Q 24.171875 6.390625 31.78125 6.390625 
Q 39.453125 6.390625 43.28125 13.890625 
Q 47.125 21.390625 47.125 36.375 
Q 47.125 51.421875 43.28125 58.90625 
Q 39.453125 66.40625 31.78125 66.40625 
z
M 31.78125 74.21875 
Q 44.046875 74.21875 50.515625 64.515625 
Q 56.984375 54.828125 56.984375 36.375 
Q 56.984375 17.96875 50.515625 8.265625 
Q 44.046875 -1.421875 31.78125 -1.421875 
Q 19.53125 -1.421875 13.0625 8.265625 
Q 6.59375 17.96875 6.59375 36.375 
Q 6.59375 54.828125 13.0625 64.515625 
Q 19.53125 74.21875 31.78125 74.21875 
z
" id="DejaVuSans-48"/>
      </defs>
      <g transform="translate(41.415546 291.709656)scale(0.15 -0.15)">
       <use xlink:href="#DejaVuSans-55"/>
       <use x="63.623047" xlink:href="#DejaVuSans-51"/>
       <use x="127.246094" xlink:href="#DejaVuSans-49"/>
       <use x="190.869141" xlink:href="#DejaVuSans-46"/>
       <use x="222.65625" xlink:href="#DejaVuSans-48"/>
      </g>
     </g>
    </g>
    <g id="xtick_2">
     <g id="line2d_3">
      <path clip-path="url(#pee92595c7c)" d="M 136.671764 273.312 
L 136.671764 7.2 
" style="fill:none;stroke:#b0b0b0;stroke-linecap:square;stroke-width:0.8;"/>
     </g>
     <g id="line2d_4">
      <g>
       <use style="stroke:#000000;stroke-width:0.8;" x="136.671764" xlink:href="#m005f0a59be" y="273.312"/>
      </g>
     </g>
     <g id="text_2">
      <!-- 731.5 -->
      <defs>
       <path d="M 10.796875 72.90625 
L 49.515625 72.90625 
L 49.515625 64.59375 
L 19.828125 64.59375 
L 19.828125 46.734375 
Q 21.96875 47.46875 24.109375 47.828125 
Q 26.265625 48.1875 28.421875 48.1875 
Q 40.625 48.1875 47.75 41.5 
Q 54.890625 34.8125 54.890625 23.390625 
Q 54.890625 11.625 47.5625 5.09375 
Q 40.234375 -1.421875 26.90625 -1.421875 
Q 22.3125 -1.421875 17.546875 -0.640625 
Q 12.796875 0.140625 7.71875 1.703125 
L 7.71875 11.625 
Q 12.109375 9.234375 16.796875 8.0625 
Q 21.484375 6.890625 26.703125 6.890625 
Q 35.15625 6.890625 40.078125 11.328125 
Q 45.015625 15.765625 45.015625 23.390625 
Q 45.015625 31 40.078125 35.4375 
Q 35.15625 39.890625 26.703125 39.890625 
Q 22.75 39.890625 18.8125 39.015625 
Q 14.890625 38.140625 10.796875 36.28125 
z
" id="DejaVuSans-53"/>
      </defs>
      <g transform="translate(115.20067 291.709656)scale(0.15 -0.15)">
       <use xlink:href="#DejaVuSans-55"/>
       <use x="63.623047" xlink:href="#DejaVuSans-51"/>
       <use x="127.246094" xlink:href="#DejaVuSans-49"/>
       <use x="190.869141" xlink:href="#DejaVuSans-46"/>
       <use x="222.65625" xlink:href="#DejaVuSans-53"/>
      </g>
     </g>
    </g>
    <g id="xtick_3">
     <g id="line2d_5">
      <path clip-path="url(#pee92595c7c)" d="M 210.456888 273.312 
L 210.456888 7.2 
" style="fill:none;stroke:#b0b0b0;stroke-linecap:square;stroke-width:0.8;"/>
     </g>
     <g id="line2d_6">
      <g>
       <use style="stroke:#000000;stroke-width:0.8;" x="210.456888" xlink:href="#m005f0a59be" y="273.312"/>
      </g>
     </g>
     <g id="text_3">
      <!-- 732.0 -->
      <defs>
       <path d="M 19.1875 8.296875 
L 53.609375 8.296875 
L 53.609375 0 
L 7.328125 0 
L 7.328125 8.296875 
Q 12.9375 14.109375 22.625 23.890625 
Q 32.328125 33.6875 34.8125 36.53125 
Q 39.546875 41.84375 41.421875 45.53125 
Q 43.3125 49.21875 43.3125 52.78125 
Q 43.3125 58.59375 39.234375 62.25 
Q 35.15625 65.921875 28.609375 65.921875 
Q 23.96875 65.921875 18.8125 64.3125 
Q 13.671875 62.703125 7.8125 59.421875 
L 7.8125 69.390625 
Q 13.765625 71.78125 18.9375 73 
Q 24.125 74.21875 28.421875 74.21875 
Q 39.75 74.21875 46.484375 68.546875 
Q 53.21875 62.890625 53.21875 53.421875 
Q 53.21875 48.921875 51.53125 44.890625 
Q 49.859375 40.875 45.40625 35.40625 
Q 44.1875 33.984375 37.640625 27.21875 
Q 31.109375 20.453125 19.1875 8.296875 
z
" id="DejaVuSans-50"/>
      </defs>
      <g transform="translate(188.985794 291.709656)scale(0.15 -0.15)">
       <use xlink:href="#DejaVuSans-55"/>
       <use x="63.623047" xlink:href="#DejaVuSans-51"/>
       <use x="127.246094" xlink:href="#DejaVuSans-50"/>
       <use x="190.869141" xlink:href="#DejaVuSans-46"/>
       <use x="222.65625" xlink:href="#DejaVuSans-48"/>
      </g>
     </g>
    </g>
    <g id="xtick_4">
     <g id="line2d_7">
      <path clip-path="url(#pee92595c7c)" d="M 284.242012 273.312 
L 284.242012 7.2 
" style="fill:none;stroke:#b0b0b0;stroke-linecap:square;stroke-width:0.8;"/>
     </g>
     <g id="line2d_8">
      <g>
       <use style="stroke:#000000;stroke-width:0.8;" x="284.242012" xlink:href="#m005f0a59be" y="273.312"/>
      </g>
     </g>
     <g id="text_4">
      <!-- 732.5 -->
      <g transform="translate(262.770918 291.709656)scale(0.15 -0.15)">
       <use xlink:href="#DejaVuSans-55"/>
       <use x="63.623047" xlink:href="#DejaVuSans-51"/>
       <use x="127.246094" xlink:href="#DejaVuSans-50"/>
       <use x="190.869141" xlink:href="#DejaVuSans-46"/>
       <use x="222.65625" xlink:href="#DejaVuSans-53"/>
      </g>
     </g>
    </g>
    <g id="xtick_5">
     <g id="line2d_9">
      <path clip-path="url(#pee92595c7c)" d="M 358.027136 273.312 
L 358.027136 7.2 
" style="fill:none;stroke:#b0b0b0;stroke-linecap:square;stroke-width:0.8;"/>
     </g>
     <g id="line2d_10">
      <g>
       <use style="stroke:#000000;stroke-width:0.8;" x="358.027136" xlink:href="#m005f0a59be" y="273.312"/>
      </g>
     </g>
     <g id="text_5">
      <!-- 733.0 -->
      <g transform="translate(336.556042 291.709656)scale(0.15 -0.15)">
       <use xlink:href="#DejaVuSans-55"/>
       <use x="63.623047" xlink:href="#DejaVuSans-51"/>
       <use x="127.246094" xlink:href="#DejaVuSans-51"/>
       <use x="190.869141" xlink:href="#DejaVuSans-46"/>
       <use x="222.65625" xlink:href="#DejaVuSans-48"/>
      </g>
     </g>
    </g>
    <g id="text_6">
     <!-- 297XXX kHz -->
     <defs>
      <path d="M 10.984375 1.515625 
L 10.984375 10.5 
Q 14.703125 8.734375 18.5 7.8125 
Q 22.3125 6.890625 25.984375 6.890625 
Q 35.75 6.890625 40.890625 13.453125 
Q 46.046875 20.015625 46.78125 33.40625 
Q 43.953125 29.203125 39.59375 26.953125 
Q 35.25 24.703125 29.984375 24.703125 
Q 19.046875 24.703125 12.671875 31.3125 
Q 6.296875 37.9375 6.296875 49.421875 
Q 6.296875 60.640625 12.9375 67.421875 
Q 19.578125 74.21875 30.609375 74.21875 
Q 43.265625 74.21875 49.921875 64.515625 
Q 56.59375 54.828125 56.59375 36.375 
Q 56.59375 19.140625 48.40625 8.859375 
Q 40.234375 -1.421875 26.421875 -1.421875 
Q 22.703125 -1.421875 18.890625 -0.6875 
Q 15.09375 0.046875 10.984375 1.515625 
z
M 30.609375 32.421875 
Q 37.25 32.421875 41.125 36.953125 
Q 45.015625 41.5 45.015625 49.421875 
Q 45.015625 57.28125 41.125 61.84375 
Q 37.25 66.40625 30.609375 66.40625 
Q 23.96875 66.40625 20.09375 61.84375 
Q 16.21875 57.28125 16.21875 49.421875 
Q 16.21875 41.5 20.09375 36.953125 
Q 23.96875 32.421875 30.609375 32.421875 
z
" id="DejaVuSans-57"/>
      <path d="M 6.296875 72.90625 
L 16.890625 72.90625 
L 35.015625 45.796875 
L 53.21875 72.90625 
L 63.8125 72.90625 
L 40.375 37.890625 
L 65.375 0 
L 54.78125 0 
L 34.28125 31 
L 13.625 0 
L 2.984375 0 
L 29 38.921875 
z
" id="DejaVuSans-88"/>
      <path id="DejaVuSans-32"/>
      <path d="M 9.078125 75.984375 
L 18.109375 75.984375 
L 18.109375 31.109375 
L 44.921875 54.6875 
L 56.390625 54.6875 
L 27.390625 29.109375 
L 57.625 0 
L 45.90625 0 
L 18.109375 26.703125 
L 18.109375 0 
L 9.078125 0 
z
" id="DejaVuSans-107"/>
      <path d="M 9.8125 72.90625 
L 19.671875 72.90625 
L 19.671875 43.015625 
L 55.515625 43.015625 
L 55.515625 72.90625 
L 65.375 72.90625 
L 65.375 0 
L 55.515625 0 
L 55.515625 34.71875 
L 19.671875 34.71875 
L 19.671875 0 
L 9.8125 0 
z
" id="DejaVuSans-72"/>
      <path d="M 5.515625 54.6875 
L 48.1875 54.6875 
L 48.1875 46.484375 
L 14.40625 7.171875 
L 48.1875 7.171875 
L 48.1875 0 
L 4.296875 0 
L 4.296875 8.203125 
L 38.09375 47.515625 
L 5.515625 47.515625 
z
" id="DejaVuSans-122"/>
     </defs>
     <g transform="translate(178.595938 314.026062)scale(0.2 -0.2)">
      <use xlink:href="#DejaVuSans-50"/>
      <use x="63.623047" xlink:href="#DejaVuSans-57"/>
      <use x="127.246094" xlink:href="#DejaVuSans-55"/>
      <use x="190.869141" xlink:href="#DejaVuSans-88"/>
      <use x="259.375" xlink:href="#DejaVuSans-88"/>
      <use x="327.880859" xlink:href="#DejaVuSans-88"/>
      <use x="396.386719" xlink:href="#DejaVuSans-32"/>
      <use x="428.173828" xlink:href="#DejaVuSans-107"/>
      <use x="486.083984" xlink:href="#DejaVuSans-72"/>
      <use x="561.279297" xlink:href="#DejaVuSans-122"/>
     </g>
    </g>
   </g>
   <g id="matplotlib.axis_2">
    <g id="ytick_1">
     <g id="line2d_11">
      <path clip-path="url(#pee92595c7c)" d="M 61.410938 273.312 
L 418.530938 273.312 
" style="fill:none;stroke:#b0b0b0;stroke-linecap:square;stroke-width:0.8;"/>
     </g>
     <g id="line2d_12">
      <defs>
       <path d="M 0 0 
L -3.5 0 
" id="mc3ce260a5b" style="stroke:#000000;stroke-width:0.8;"/>
      </defs>
      <g>
       <use style="stroke:#000000;stroke-width:0.8;" x="61.410938" xlink:href="#mc3ce260a5b" y="273.312"/>
      </g>
     </g>
     <g id="text_7">
      <!-- 0.3 -->
      <g transform="translate(30.55625 279.010828)scale(0.15 -0.15)">
       <use xlink:href="#DejaVuSans-48"/>
       <use x="63.623047" xlink:href="#DejaVuSans-46"/>
       <use x="95.410156" xlink:href="#DejaVuSans-51"/>
      </g>
     </g>
    </g>
    <g id="ytick_2">
     <g id="line2d_13">
      <path clip-path="url(#pee92595c7c)" d="M 61.410938 223.102189 
L 418.530938 223.102189 
" style="fill:none;stroke:#b0b0b0;stroke-linecap:square;stroke-width:0.8;"/>
     </g>
     <g id="line2d_14">
      <g>
       <use style="stroke:#000000;stroke-width:0.8;" x="61.410938" xlink:href="#mc3ce260a5b" y="223.102189"/>
      </g>
     </g>
     <g id="text_8">
      <!-- 0.4 -->
      <defs>
       <path d="M 37.796875 64.3125 
L 12.890625 25.390625 
L 37.796875 25.390625 
z
M 35.203125 72.90625 
L 47.609375 72.90625 
L 47.609375 25.390625 
L 58.015625 25.390625 
L 58.015625 17.1875 
L 47.609375 17.1875 
L 47.609375 0 
L 37.796875 0 
L 37.796875 17.1875 
L 4.890625 17.1875 
L 4.890625 26.703125 
z
" id="DejaVuSans-52"/>
      </defs>
      <g transform="translate(30.55625 228.801017)scale(0.15 -0.15)">
       <use xlink:href="#DejaVuSans-48"/>
       <use x="63.623047" xlink:href="#DejaVuSans-46"/>
       <use x="95.410156" xlink:href="#DejaVuSans-52"/>
      </g>
     </g>
    </g>
    <g id="ytick_3">
     <g id="line2d_15">
      <path clip-path="url(#pee92595c7c)" d="M 61.410938 172.892377 
L 418.530938 172.892377 
" style="fill:none;stroke:#b0b0b0;stroke-linecap:square;stroke-width:0.8;"/>
     </g>
     <g id="line2d_16">
      <g>
       <use style="stroke:#000000;stroke-width:0.8;" x="61.410938" xlink:href="#mc3ce260a5b" y="172.892377"/>
      </g>
     </g>
     <g id="text_9">
      <!-- 0.5 -->
      <g transform="translate(30.55625 178.591205)scale(0.15 -0.15)">
       <use xlink:href="#DejaVuSans-48"/>
       <use x="63.623047" xlink:href="#DejaVuSans-46"/>
       <use x="95.410156" xlink:href="#DejaVuSans-53"/>
      </g>
     </g>
    </g>
    <g id="ytick_4">
     <g id="line2d_17">
      <path clip-path="url(#pee92595c7c)" d="M 61.410938 122.682566 
L 418.530938 122.682566 
" style="fill:none;stroke:#b0b0b0;stroke-linecap:square;stroke-width:0.8;"/>
     </g>
     <g id="line2d_18">
      <g>
       <use style="stroke:#000000;stroke-width:0.8;" x="61.410938" xlink:href="#mc3ce260a5b" y="122.682566"/>
      </g>
     </g>
     <g id="text_10">
      <!-- 0.6 -->
      <defs>
       <path d="M 33.015625 40.375 
Q 26.375 40.375 22.484375 35.828125 
Q 18.609375 31.296875 18.609375 23.390625 
Q 18.609375 15.53125 22.484375 10.953125 
Q 26.375 6.390625 33.015625 6.390625 
Q 39.65625 6.390625 43.53125 10.953125 
Q 47.40625 15.53125 47.40625 23.390625 
Q 47.40625 31.296875 43.53125 35.828125 
Q 39.65625 40.375 33.015625 40.375 
z
M 52.59375 71.296875 
L 52.59375 62.3125 
Q 48.875 64.0625 45.09375 64.984375 
Q 41.3125 65.921875 37.59375 65.921875 
Q 27.828125 65.921875 22.671875 59.328125 
Q 17.53125 52.734375 16.796875 39.40625 
Q 19.671875 43.65625 24.015625 45.921875 
Q 28.375 48.1875 33.59375 48.1875 
Q 44.578125 48.1875 50.953125 41.515625 
Q 57.328125 34.859375 57.328125 23.390625 
Q 57.328125 12.15625 50.6875 5.359375 
Q 44.046875 -1.421875 33.015625 -1.421875 
Q 20.359375 -1.421875 13.671875 8.265625 
Q 6.984375 17.96875 6.984375 36.375 
Q 6.984375 53.65625 15.1875 63.9375 
Q 23.390625 74.21875 37.203125 74.21875 
Q 40.921875 74.21875 44.703125 73.484375 
Q 48.484375 72.75 52.59375 71.296875 
z
" id="DejaVuSans-54"/>
      </defs>
      <g transform="translate(30.55625 128.381394)scale(0.15 -0.15)">
       <use xlink:href="#DejaVuSans-48"/>
       <use x="63.623047" xlink:href="#DejaVuSans-46"/>
       <use x="95.410156" xlink:href="#DejaVuSans-54"/>
      </g>
     </g>
    </g>
    <g id="ytick_5">
     <g id="line2d_19">
      <path clip-path="url(#pee92595c7c)" d="M 61.410938 72.472755 
L 418.530938 72.472755 
" style="fill:none;stroke:#b0b0b0;stroke-linecap:square;stroke-width:0.8;"/>
     </g>
     <g id="line2d_20">
      <g>
       <use style="stroke:#000000;stroke-width:0.8;" x="61.410938" xlink:href="#mc3ce260a5b" y="72.472755"/>
      </g>
     </g>
     <g id="text_11">
      <!-- 0.7 -->
      <g transform="translate(30.55625 78.171583)scale(0.15 -0.15)">
       <use xlink:href="#DejaVuSans-48"/>
       <use x="63.623047" xlink:href="#DejaVuSans-46"/>
       <use x="95.410156" xlink:href="#DejaVuSans-55"/>
      </g>
     </g>
    </g>
    <g id="ytick_6">
     <g id="line2d_21">
      <path clip-path="url(#pee92595c7c)" d="M 61.410938 22.262943 
L 418.530938 22.262943 
" style="fill:none;stroke:#b0b0b0;stroke-linecap:square;stroke-width:0.8;"/>
     </g>
     <g id="line2d_22">
      <g>
       <use style="stroke:#000000;stroke-width:0.8;" x="61.410938" xlink:href="#mc3ce260a5b" y="22.262943"/>
      </g>
     </g>
     <g id="text_12">
      <!-- 0.8 -->
      <defs>
       <path d="M 31.78125 34.625 
Q 24.75 34.625 20.71875 30.859375 
Q 16.703125 27.09375 16.703125 20.515625 
Q 16.703125 13.921875 20.71875 10.15625 
Q 24.75 6.390625 31.78125 6.390625 
Q 38.8125 6.390625 42.859375 10.171875 
Q 46.921875 13.96875 46.921875 20.515625 
Q 46.921875 27.09375 42.890625 30.859375 
Q 38.875 34.625 31.78125 34.625 
z
M 21.921875 38.8125 
Q 15.578125 40.375 12.03125 44.71875 
Q 8.5 49.078125 8.5 55.328125 
Q 8.5 64.0625 14.71875 69.140625 
Q 20.953125 74.21875 31.78125 74.21875 
Q 42.671875 74.21875 48.875 69.140625 
Q 55.078125 64.0625 55.078125 55.328125 
Q 55.078125 49.078125 51.53125 44.71875 
Q 48 40.375 41.703125 38.8125 
Q 48.828125 37.15625 52.796875 32.3125 
Q 56.78125 27.484375 56.78125 20.515625 
Q 56.78125 9.90625 50.3125 4.234375 
Q 43.84375 -1.421875 31.78125 -1.421875 
Q 19.734375 -1.421875 13.25 4.234375 
Q 6.78125 9.90625 6.78125 20.515625 
Q 6.78125 27.484375 10.78125 32.3125 
Q 14.796875 37.15625 21.921875 38.8125 
z
M 18.3125 54.390625 
Q 18.3125 48.734375 21.84375 45.5625 
Q 25.390625 42.390625 31.78125 42.390625 
Q 38.140625 42.390625 41.71875 45.5625 
Q 45.3125 48.734375 45.3125 54.390625 
Q 45.3125 60.0625 41.71875 63.234375 
Q 38.140625 66.40625 31.78125 66.40625 
Q 25.390625 66.40625 21.84375 63.234375 
Q 18.3125 60.0625 18.3125 54.390625 
z
" id="DejaVuSans-56"/>
      </defs>
      <g transform="translate(30.55625 27.961772)scale(0.15 -0.15)">
       <use xlink:href="#DejaVuSans-48"/>
       <use x="63.623047" xlink:href="#DejaVuSans-46"/>
       <use x="95.410156" xlink:href="#DejaVuSans-56"/>
      </g>
     </g>
    </g>
    <g id="text_13">
     <!-- Two-body survival -->
     <defs>
      <path d="M -0.296875 72.90625 
L 61.375 72.90625 
L 61.375 64.59375 
L 35.5 64.59375 
L 35.5 0 
L 25.59375 0 
L 25.59375 64.59375 
L -0.296875 64.59375 
z
" id="DejaVuSans-84"/>
      <path d="M 4.203125 54.6875 
L 13.1875 54.6875 
L 24.421875 12.015625 
L 35.59375 54.6875 
L 46.1875 54.6875 
L 57.421875 12.015625 
L 68.609375 54.6875 
L 77.59375 54.6875 
L 63.28125 0 
L 52.6875 0 
L 40.921875 44.828125 
L 29.109375 0 
L 18.5 0 
z
" id="DejaVuSans-119"/>
      <path d="M 30.609375 48.390625 
Q 23.390625 48.390625 19.1875 42.75 
Q 14.984375 37.109375 14.984375 27.296875 
Q 14.984375 17.484375 19.15625 11.84375 
Q 23.34375 6.203125 30.609375 6.203125 
Q 37.796875 6.203125 41.984375 11.859375 
Q 46.1875 17.53125 46.1875 27.296875 
Q 46.1875 37.015625 41.984375 42.703125 
Q 37.796875 48.390625 30.609375 48.390625 
z
M 30.609375 56 
Q 42.328125 56 49.015625 48.375 
Q 55.71875 40.765625 55.71875 27.296875 
Q 55.71875 13.875 49.015625 6.21875 
Q 42.328125 -1.421875 30.609375 -1.421875 
Q 18.84375 -1.421875 12.171875 6.21875 
Q 5.515625 13.875 5.515625 27.296875 
Q 5.515625 40.765625 12.171875 48.375 
Q 18.84375 56 30.609375 56 
z
" id="DejaVuSans-111"/>
      <path d="M 4.890625 31.390625 
L 31.203125 31.390625 
L 31.203125 23.390625 
L 4.890625 23.390625 
z
" id="DejaVuSans-45"/>
      <path d="M 48.6875 27.296875 
Q 48.6875 37.203125 44.609375 42.84375 
Q 40.53125 48.484375 33.40625 48.484375 
Q 26.265625 48.484375 22.1875 42.84375 
Q 18.109375 37.203125 18.109375 27.296875 
Q 18.109375 17.390625 22.1875 11.75 
Q 26.265625 6.109375 33.40625 6.109375 
Q 40.53125 6.109375 44.609375 11.75 
Q 48.6875 17.390625 48.6875 27.296875 
z
M 18.109375 46.390625 
Q 20.953125 51.265625 25.265625 53.625 
Q 29.59375 56 35.59375 56 
Q 45.5625 56 51.78125 48.09375 
Q 58.015625 40.1875 58.015625 27.296875 
Q 58.015625 14.40625 51.78125 6.484375 
Q 45.5625 -1.421875 35.59375 -1.421875 
Q 29.59375 -1.421875 25.265625 0.953125 
Q 20.953125 3.328125 18.109375 8.203125 
L 18.109375 0 
L 9.078125 0 
L 9.078125 75.984375 
L 18.109375 75.984375 
z
" id="DejaVuSans-98"/>
      <path d="M 45.40625 46.390625 
L 45.40625 75.984375 
L 54.390625 75.984375 
L 54.390625 0 
L 45.40625 0 
L 45.40625 8.203125 
Q 42.578125 3.328125 38.25 0.953125 
Q 33.9375 -1.421875 27.875 -1.421875 
Q 17.96875 -1.421875 11.734375 6.484375 
Q 5.515625 14.40625 5.515625 27.296875 
Q 5.515625 40.1875 11.734375 48.09375 
Q 17.96875 56 27.875 56 
Q 33.9375 56 38.25 53.625 
Q 42.578125 51.265625 45.40625 46.390625 
z
M 14.796875 27.296875 
Q 14.796875 17.390625 18.875 11.75 
Q 22.953125 6.109375 30.078125 6.109375 
Q 37.203125 6.109375 41.296875 11.75 
Q 45.40625 17.390625 45.40625 27.296875 
Q 45.40625 37.203125 41.296875 42.84375 
Q 37.203125 48.484375 30.078125 48.484375 
Q 22.953125 48.484375 18.875 42.84375 
Q 14.796875 37.203125 14.796875 27.296875 
z
" id="DejaVuSans-100"/>
      <path d="M 32.171875 -5.078125 
Q 28.375 -14.84375 24.75 -17.8125 
Q 21.140625 -20.796875 15.09375 -20.796875 
L 7.90625 -20.796875 
L 7.90625 -13.28125 
L 13.1875 -13.28125 
Q 16.890625 -13.28125 18.9375 -11.515625 
Q 21 -9.765625 23.484375 -3.21875 
L 25.09375 0.875 
L 2.984375 54.6875 
L 12.5 54.6875 
L 29.59375 11.921875 
L 46.6875 54.6875 
L 56.203125 54.6875 
z
" id="DejaVuSans-121"/>
      <path d="M 44.28125 53.078125 
L 44.28125 44.578125 
Q 40.484375 46.53125 36.375 47.5 
Q 32.28125 48.484375 27.875 48.484375 
Q 21.1875 48.484375 17.84375 46.4375 
Q 14.5 44.390625 14.5 40.28125 
Q 14.5 37.15625 16.890625 35.375 
Q 19.28125 33.59375 26.515625 31.984375 
L 29.59375 31.296875 
Q 39.15625 29.25 43.1875 25.515625 
Q 47.21875 21.78125 47.21875 15.09375 
Q 47.21875 7.46875 41.1875 3.015625 
Q 35.15625 -1.421875 24.609375 -1.421875 
Q 20.21875 -1.421875 15.453125 -0.5625 
Q 10.6875 0.296875 5.421875 2 
L 5.421875 11.28125 
Q 10.40625 8.6875 15.234375 7.390625 
Q 20.0625 6.109375 24.8125 6.109375 
Q 31.15625 6.109375 34.5625 8.28125 
Q 37.984375 10.453125 37.984375 14.40625 
Q 37.984375 18.0625 35.515625 20.015625 
Q 33.0625 21.96875 24.703125 23.78125 
L 21.578125 24.515625 
Q 13.234375 26.265625 9.515625 29.90625 
Q 5.8125 33.546875 5.8125 39.890625 
Q 5.8125 47.609375 11.28125 51.796875 
Q 16.75 56 26.8125 56 
Q 31.78125 56 36.171875 55.265625 
Q 40.578125 54.546875 44.28125 53.078125 
z
" id="DejaVuSans-115"/>
      <path d="M 8.5 21.578125 
L 8.5 54.6875 
L 17.484375 54.6875 
L 17.484375 21.921875 
Q 17.484375 14.15625 20.5 10.265625 
Q 23.53125 6.390625 29.59375 6.390625 
Q 36.859375 6.390625 41.078125 11.03125 
Q 45.3125 15.671875 45.3125 23.6875 
L 45.3125 54.6875 
L 54.296875 54.6875 
L 54.296875 0 
L 45.3125 0 
L 45.3125 8.40625 
Q 42.046875 3.421875 37.71875 1 
Q 33.40625 -1.421875 27.6875 -1.421875 
Q 18.265625 -1.421875 13.375 4.4375 
Q 8.5 10.296875 8.5 21.578125 
z
M 31.109375 56 
z
" id="DejaVuSans-117"/>
      <path d="M 41.109375 46.296875 
Q 39.59375 47.171875 37.8125 47.578125 
Q 36.03125 48 33.890625 48 
Q 26.265625 48 22.1875 43.046875 
Q 18.109375 38.09375 18.109375 28.8125 
L 18.109375 0 
L 9.078125 0 
L 9.078125 54.6875 
L 18.109375 54.6875 
L 18.109375 46.1875 
Q 20.953125 51.171875 25.484375 53.578125 
Q 30.03125 56 36.53125 56 
Q 37.453125 56 38.578125 55.875 
Q 39.703125 55.765625 41.0625 55.515625 
z
" id="DejaVuSans-114"/>
      <path d="M 2.984375 54.6875 
L 12.5 54.6875 
L 29.59375 8.796875 
L 46.6875 54.6875 
L 56.203125 54.6875 
L 35.6875 0 
L 23.484375 0 
z
" id="DejaVuSans-118"/>
      <path d="M 9.421875 54.6875 
L 18.40625 54.6875 
L 18.40625 0 
L 9.421875 0 
z
M 9.421875 75.984375 
L 18.40625 75.984375 
L 18.40625 64.59375 
L 9.421875 64.59375 
z
" id="DejaVuSans-105"/>
      <path d="M 34.28125 27.484375 
Q 23.390625 27.484375 19.1875 25 
Q 14.984375 22.515625 14.984375 16.5 
Q 14.984375 11.71875 18.140625 8.90625 
Q 21.296875 6.109375 26.703125 6.109375 
Q 34.1875 6.109375 38.703125 11.40625 
Q 43.21875 16.703125 43.21875 25.484375 
L 43.21875 27.484375 
z
M 52.203125 31.203125 
L 52.203125 0 
L 43.21875 0 
L 43.21875 8.296875 
Q 40.140625 3.328125 35.546875 0.953125 
Q 30.953125 -1.421875 24.3125 -1.421875 
Q 15.921875 -1.421875 10.953125 3.296875 
Q 6 8.015625 6 15.921875 
Q 6 25.140625 12.171875 29.828125 
Q 18.359375 34.515625 30.609375 34.515625 
L 43.21875 34.515625 
L 43.21875 35.40625 
Q 43.21875 41.609375 39.140625 45 
Q 35.0625 48.390625 27.6875 48.390625 
Q 23 48.390625 18.546875 47.265625 
Q 14.109375 46.140625 10.015625 43.890625 
L 10.015625 52.203125 
Q 14.9375 54.109375 19.578125 55.046875 
Q 24.21875 56 28.609375 56 
Q 40.484375 56 46.34375 49.84375 
Q 52.203125 43.703125 52.203125 31.203125 
z
" id="DejaVuSans-97"/>
      <path d="M 9.421875 75.984375 
L 18.40625 75.984375 
L 18.40625 0 
L 9.421875 0 
z
" id="DejaVuSans-108"/>
     </defs>
     <g transform="translate(22.396875 231.33725)rotate(-90)scale(0.2 -0.2)">
      <use xlink:href="#DejaVuSans-84"/>
      <use x="60.833984" xlink:href="#DejaVuSans-119"/>
      <use x="142.621094" xlink:href="#DejaVuSans-111"/>
      <use x="203.818359" xlink:href="#DejaVuSans-45"/>
      <use x="239.902344" xlink:href="#DejaVuSans-98"/>
      <use x="303.378906" xlink:href="#DejaVuSans-111"/>
      <use x="364.560547" xlink:href="#DejaVuSans-100"/>
      <use x="428.037109" xlink:href="#DejaVuSans-121"/>
      <use x="487.216797" xlink:href="#DejaVuSans-32"/>
      <use x="519.003906" xlink:href="#DejaVuSans-115"/>
      <use x="571.103516" xlink:href="#DejaVuSans-117"/>
      <use x="634.482422" xlink:href="#DejaVuSans-114"/>
      <use x="675.595703" xlink:href="#DejaVuSans-118"/>
      <use x="734.775391" xlink:href="#DejaVuSans-105"/>
      <use x="762.558594" xlink:href="#DejaVuSans-118"/>
      <use x="821.738281" xlink:href="#DejaVuSans-97"/>
      <use x="883.017578" xlink:href="#DejaVuSans-108"/>
     </g>
    </g>
   </g>
   <g id="LineCollection_1">
    <path clip-path="url(#pee92595c7c)" d="M 92.40069 123.21007 
L 92.40069 79.118081 
" style="fill:none;stroke:#1f77b4;stroke-width:1.5;"/>
    <path clip-path="url(#pee92595c7c)" d="M 121.914739 82.31093 
L 121.914739 37.529674 
" style="fill:none;stroke:#1f77b4;stroke-width:1.5;"/>
    <path clip-path="url(#pee92595c7c)" d="M 151.428789 126.519592 
L 151.428789 79.257035 
" style="fill:none;stroke:#1f77b4;stroke-width:1.5;"/>
    <path clip-path="url(#pee92595c7c)" d="M 180.942838 162.830242 
L 180.942838 113.356754 
" style="fill:none;stroke:#1f77b4;stroke-width:1.5;"/>
    <path clip-path="url(#pee92595c7c)" d="M 210.456888 190.257619 
L 210.456888 141.043536 
" style="fill:none;stroke:#1f77b4;stroke-width:1.5;"/>
    <path clip-path="url(#pee92595c7c)" d="M 239.970938 169.977474 
L 239.970938 123.414434 
" style="fill:none;stroke:#1f77b4;stroke-width:1.5;"/>
    <path clip-path="url(#pee92595c7c)" d="M 269.484987 160.558011 
L 269.484987 111.388786 
" style="fill:none;stroke:#1f77b4;stroke-width:1.5;"/>
    <path clip-path="url(#pee92595c7c)" d="M 298.999037 128.09379 
L 298.999037 79.357811 
" style="fill:none;stroke:#1f77b4;stroke-width:1.5;"/>
    <path clip-path="url(#pee92595c7c)" d="M 328.513086 98.172821 
L 328.513086 52.622376 
" style="fill:none;stroke:#1f77b4;stroke-width:1.5;"/>
    <path clip-path="url(#pee92595c7c)" d="M 358.027136 87.922709 
L 358.027136 40.286196 
" style="fill:none;stroke:#1f77b4;stroke-width:1.5;"/>
    <path clip-path="url(#pee92595c7c)" d="M 387.541185 124.10307 
L 387.541185 76.073232 
" style="fill:none;stroke:#1f77b4;stroke-width:1.5;"/>
   </g>
   <g id="LineCollection_2">
    <path clip-path="url(#pee92595c7c)" d="M 92.40069 99.02479 
L 92.40069 80.652319 
" style="fill:none;stroke:#ff7f0e;stroke-width:1.5;"/>
    <path clip-path="url(#pee92595c7c)" d="M 107.157714 120.165223 
L 107.157714 101.563126 
" style="fill:none;stroke:#ff7f0e;stroke-width:1.5;"/>
    <path clip-path="url(#pee92595c7c)" d="M 121.914739 91.676606 
L 121.914739 73.735659 
" style="fill:none;stroke:#ff7f0e;stroke-width:1.5;"/>
    <path clip-path="url(#pee92595c7c)" d="M 136.671764 119.148684 
L 136.671764 100.751874 
" style="fill:none;stroke:#ff7f0e;stroke-width:1.5;"/>
    <path clip-path="url(#pee92595c7c)" d="M 151.428789 133.588143 
L 151.428789 114.375366 
" style="fill:none;stroke:#ff7f0e;stroke-width:1.5;"/>
    <path clip-path="url(#pee92595c7c)" d="M 166.185814 143.15894 
L 166.185814 124.505882 
" style="fill:none;stroke:#ff7f0e;stroke-width:1.5;"/>
    <path clip-path="url(#pee92595c7c)" d="M 180.942838 139.124677 
L 180.942838 119.961455 
" style="fill:none;stroke:#ff7f0e;stroke-width:1.5;"/>
    <path clip-path="url(#pee92595c7c)" d="M 195.699863 131.785322 
L 195.699863 113.440144 
" style="fill:none;stroke:#ff7f0e;stroke-width:1.5;"/>
    <path clip-path="url(#pee92595c7c)" d="M 210.456888 126.706871 
L 210.456888 108.289615 
" style="fill:none;stroke:#ff7f0e;stroke-width:1.5;"/>
    <path clip-path="url(#pee92595c7c)" d="M 225.213913 131.755975 
L 225.213913 113.743768 
" style="fill:none;stroke:#ff7f0e;stroke-width:1.5;"/>
    <path clip-path="url(#pee92595c7c)" d="M 239.970938 95.147565 
L 239.970938 77.198364 
" style="fill:none;stroke:#ff7f0e;stroke-width:1.5;"/>
   </g>
   <g id="LineCollection_3">
    <path clip-path="url(#pee92595c7c)" d="M 166.185814 124.065042 
L 166.185814 95.769678 
" style="fill:none;stroke:#2ca02c;stroke-width:1.5;"/>
    <path clip-path="url(#pee92595c7c)" d="M 180.942838 139.925719 
L 180.942838 110.724656 
" style="fill:none;stroke:#2ca02c;stroke-width:1.5;"/>
    <path clip-path="url(#pee92595c7c)" d="M 195.699863 193.847336 
L 195.699863 165.107206 
" style="fill:none;stroke:#2ca02c;stroke-width:1.5;"/>
    <path clip-path="url(#pee92595c7c)" d="M 210.456888 186.59273 
L 210.456888 157.507132 
" style="fill:none;stroke:#2ca02c;stroke-width:1.5;"/>
    <path clip-path="url(#pee92595c7c)" d="M 225.213913 199.52385 
L 225.213913 168.827112 
" style="fill:none;stroke:#2ca02c;stroke-width:1.5;"/>
    <path clip-path="url(#pee92595c7c)" d="M 239.970938 257.933132 
L 239.970938 228.661426 
" style="fill:none;stroke:#2ca02c;stroke-width:1.5;"/>
    <path clip-path="url(#pee92595c7c)" d="M 254.727962 255.850992 
L 254.727962 228.216522 
" style="fill:none;stroke:#2ca02c;stroke-width:1.5;"/>
    <path clip-path="url(#pee92595c7c)" d="M 269.484987 227.683182 
L 269.484987 199.948288 
" style="fill:none;stroke:#2ca02c;stroke-width:1.5;"/>
    <path clip-path="url(#pee92595c7c)" d="M 284.242012 202.633376 
L 284.242012 172.996372 
" style="fill:none;stroke:#2ca02c;stroke-width:1.5;"/>
    <path clip-path="url(#pee92595c7c)" d="M 298.999037 171.026225 
L 298.999037 141.402361 
" style="fill:none;stroke:#2ca02c;stroke-width:1.5;"/>
    <path clip-path="url(#pee92595c7c)" d="M 313.756061 149.768841 
L 313.756061 121.199969 
" style="fill:none;stroke:#2ca02c;stroke-width:1.5;"/>
   </g>
   <g id="line2d_23">
    <path clip-path="url(#pee92595c7c)" d="M 77.643665 79.434539 
L 86.669964 80.871977 
L 94.852077 82.396573 
L 102.319878 84.01057 
L 109.203243 85.723012 
L 115.567108 87.532893 
L 121.476412 89.441537 
L 127.02856 91.466485 
L 132.256021 93.60828 
L 137.191263 95.868281 
L 141.899225 98.266645 
L 146.412374 100.81358 
L 150.76318 103.522467 
L 155.01658 106.43363 
L 159.172574 109.549207 
L 163.26363 112.894642 
L 167.354687 116.528975 
L 171.510681 120.522938 
L 175.796549 124.955823 
L 180.374636 130.018354 
L 185.667034 136.21667 
L 201.28448 154.760065 
L 204.53135 158.116795 
L 207.323658 160.692164 
L 209.79128 162.672126 
L 212.03162 164.191256 
L 214.109617 165.337197 
L 216.057739 166.163587 
L 217.940924 166.722004 
L 219.759171 167.029023 
L 221.544949 167.104332 
L 223.330728 166.954412 
L 225.116507 166.58129 
L 226.967223 165.964443 
L 228.882876 165.08848 
L 230.895935 163.921836 
L 233.071338 162.398691 
L 235.441554 160.459944 
L 238.071518 158.01371 
L 241.091108 154.892228 
L 244.79254 150.728719 
L 250.084938 144.403682 
L 260.994422 131.312816 
L 265.929664 125.786351 
L 270.377876 121.133852 
L 274.631276 117.004334 
L 278.78727 113.277364 
L 282.910795 109.875224 
L 287.066789 106.731926 
L 291.320189 103.794294 
L 295.670995 101.060472 
L 300.151676 98.50757 
L 304.827169 96.101166 
L 309.697474 93.845638 
L 314.827529 91.71647 
L 320.249802 89.708752 
L 325.996762 87.819031 
L 332.165815 86.027075 
L 338.78943 84.33738 
L 345.965013 82.739841 
L 353.757502 81.236112 
L 362.29677 79.818545 
L 371.680225 78.489526 
L 382.102678 77.241581 
L 393.758942 76.07404 
L 402.29821 75.342856 
L 402.29821 75.342856 
" style="fill:none;stroke:#1f77b4;stroke-linecap:square;stroke-width:1.5;"/>
   </g>
   <g id="line2d_24">
    <path clip-path="url(#pee92595c7c)" d="M 85.022177 87.995754 
L 91.597089 89.636167 
L 97.701205 91.385601 
L 103.431931 93.257037 
L 108.870438 95.26587 
L 114.065431 97.420894 
L 119.098079 99.749116 
L 124.033322 102.277584 
L 128.968565 105.057113 
L 134.049916 108.177514 
L 139.553361 111.825199 
L 146.501663 116.718153 
L 156.956585 124.081503 
L 161.145048 126.736934 
L 164.554261 128.642472 
L 167.541382 130.06301 
L 170.252518 131.111436 
L 172.785077 131.857007 
L 175.203995 132.340313 
L 177.557976 132.584756 
L 179.879488 132.602001 
L 182.201001 132.396567 
L 184.571216 131.96191 
L 187.022603 131.283965 
L 189.603864 130.336845 
L 192.396173 129.070432 
L 195.480699 127.421134 
L 199.036022 125.259843 
L 203.484234 122.280822 
L 210.96827 116.952138 
L 219.361429 111.063638 
L 224.978515 107.397435 
L 230.108569 104.311379 
L 235.092515 101.571727 
L 240.060226 99.094497 
L 245.109109 96.82526 
L 247.34945 95.894234 
L 247.34945 95.894234 
" style="fill:none;stroke:#ff7f0e;stroke-linecap:square;stroke-width:1.5;"/>
   </g>
   <g id="line2d_25">
    <path clip-path="url(#pee92595c7c)" d="M 158.807301 112.451126 
L 162.979529 115.233234 
L 166.989414 118.174175 
L 170.853189 121.283103 
L 174.603324 124.585965 
L 178.256053 128.10002 
L 181.82761 131.845549 
L 185.33423 135.84615 
L 188.808381 140.149863 
L 192.250064 144.769802 
L 195.691746 149.764456 
L 199.165897 155.202065 
L 202.704985 161.159291 
L 206.373949 167.778109 
L 210.270193 175.277048 
L 214.604765 184.118573 
L 220.254319 196.19159 
L 228.663712 214.15196 
L 232.105395 220.944505 
L 234.849 225.886855 
L 237.202981 229.684961 
L 239.280978 232.629274 
L 241.147928 234.902223 
L 242.852535 236.639076 
L 244.427267 237.935881 
L 245.904593 238.869933 
L 247.284512 239.486464 
L 248.615729 239.84145 
L 249.914477 239.95784 
L 251.196991 239.848949 
L 252.495739 239.512926 
L 253.826956 238.935643 
L 255.22311 238.082346 
L 256.700436 236.911887 
L 258.275168 235.374674 
L 259.996009 233.373405 
L 261.879194 230.828958 
L 263.957191 227.636224 
L 266.311172 223.598927 
L 269.071011 218.404098 
L 272.480225 211.486581 
L 277.594045 200.545715 
L 286.263189 182.012785 
L 290.727635 173.031285 
L 294.688817 165.551646 
L 298.422717 158.969489 
L 302.026743 153.061747 
L 305.565832 147.683701 
L 309.072451 142.756118 
L 312.579071 138.20914 
L 316.101925 134.001839 
L 319.673482 130.080334 
L 321.134574 128.569875 
L 321.134574 128.569875 
" style="fill:none;stroke:#2ca02c;stroke-linecap:square;stroke-width:1.5;"/>
   </g>
   <g id="line2d_26">
    <defs>
     <path d="M 0 1.5 
C 0.397805 1.5 0.77937 1.341951 1.06066 1.06066 
C 1.341951 0.77937 1.5 0.397805 1.5 0 
C 1.5 -0.397805 1.341951 -0.77937 1.06066 -1.06066 
C 0.77937 -1.341951 0.397805 -1.5 0 -1.5 
C -0.397805 -1.5 -0.77937 -1.341951 -1.06066 -1.06066 
C -1.341951 -0.77937 -1.5 -0.397805 -1.5 0 
C -1.5 0.397805 -1.341951 0.77937 -1.06066 1.06066 
C -0.77937 1.341951 -0.397805 1.5 0 1.5 
z
" id="mb8bc26594a" style="stroke:#1f77b4;"/>
    </defs>
    <g clip-path="url(#pee92595c7c)">
     <use style="fill:#1f77b4;stroke:#1f77b4;" x="92.40069" xlink:href="#mb8bc26594a" y="101.164075"/>
     <use style="fill:#1f77b4;stroke:#1f77b4;" x="121.914739" xlink:href="#mb8bc26594a" y="59.920302"/>
     <use style="fill:#1f77b4;stroke:#1f77b4;" x="151.428789" xlink:href="#mb8bc26594a" y="102.888313"/>
     <use style="fill:#1f77b4;stroke:#1f77b4;" x="180.942838" xlink:href="#mb8bc26594a" y="138.093498"/>
     <use style="fill:#1f77b4;stroke:#1f77b4;" x="210.456888" xlink:href="#mb8bc26594a" y="165.650578"/>
     <use style="fill:#1f77b4;stroke:#1f77b4;" x="239.970938" xlink:href="#mb8bc26594a" y="146.695954"/>
     <use style="fill:#1f77b4;stroke:#1f77b4;" x="269.484987" xlink:href="#mb8bc26594a" y="135.973398"/>
     <use style="fill:#1f77b4;stroke:#1f77b4;" x="298.999037" xlink:href="#mb8bc26594a" y="103.725801"/>
     <use style="fill:#1f77b4;stroke:#1f77b4;" x="328.513086" xlink:href="#mb8bc26594a" y="75.397598"/>
     <use style="fill:#1f77b4;stroke:#1f77b4;" x="358.027136" xlink:href="#mb8bc26594a" y="64.104453"/>
     <use style="fill:#1f77b4;stroke:#1f77b4;" x="387.541185" xlink:href="#mb8bc26594a" y="100.088151"/>
    </g>
   </g>
   <g id="line2d_27">
    <defs>
     <path d="M 0 1.5 
C 0.397805 1.5 0.77937 1.341951 1.06066 1.06066 
C 1.341951 0.77937 1.5 0.397805 1.5 0 
C 1.5 -0.397805 1.341951 -0.77937 1.06066 -1.06066 
C 0.77937 -1.341951 0.397805 -1.5 0 -1.5 
C -0.397805 -1.5 -0.77937 -1.341951 -1.06066 -1.06066 
C -1.341951 -0.77937 -1.5 -0.397805 -1.5 0 
C -1.5 0.397805 -1.341951 0.77937 -1.06066 1.06066 
C -0.77937 1.341951 -0.397805 1.5 0 1.5 
z
" id="m3e2fb6b177" style="stroke:#ff7f0e;"/>
    </defs>
    <g clip-path="url(#pee92595c7c)">
     <use style="fill:#ff7f0e;stroke:#ff7f0e;" x="92.40069" xlink:href="#m3e2fb6b177" y="89.838554"/>
     <use style="fill:#ff7f0e;stroke:#ff7f0e;" x="107.157714" xlink:href="#m3e2fb6b177" y="110.864175"/>
     <use style="fill:#ff7f0e;stroke:#ff7f0e;" x="121.914739" xlink:href="#m3e2fb6b177" y="82.706133"/>
     <use style="fill:#ff7f0e;stroke:#ff7f0e;" x="136.671764" xlink:href="#m3e2fb6b177" y="109.950279"/>
     <use style="fill:#ff7f0e;stroke:#ff7f0e;" x="151.428789" xlink:href="#m3e2fb6b177" y="123.981754"/>
     <use style="fill:#ff7f0e;stroke:#ff7f0e;" x="166.185814" xlink:href="#m3e2fb6b177" y="133.832411"/>
     <use style="fill:#ff7f0e;stroke:#ff7f0e;" x="180.942838" xlink:href="#m3e2fb6b177" y="129.543066"/>
     <use style="fill:#ff7f0e;stroke:#ff7f0e;" x="195.699863" xlink:href="#m3e2fb6b177" y="122.612733"/>
     <use style="fill:#ff7f0e;stroke:#ff7f0e;" x="210.456888" xlink:href="#m3e2fb6b177" y="117.498243"/>
     <use style="fill:#ff7f0e;stroke:#ff7f0e;" x="225.213913" xlink:href="#m3e2fb6b177" y="122.749871"/>
     <use style="fill:#ff7f0e;stroke:#ff7f0e;" x="239.970938" xlink:href="#m3e2fb6b177" y="86.172964"/>
    </g>
   </g>
   <g id="line2d_28">
    <defs>
     <path d="M 0 1.5 
C 0.397805 1.5 0.77937 1.341951 1.06066 1.06066 
C 1.341951 0.77937 1.5 0.397805 1.5 0 
C 1.5 -0.397805 1.341951 -0.77937 1.06066 -1.06066 
C 0.77937 -1.341951 0.397805 -1.5 0 -1.5 
C -0.397805 -1.5 -0.77937 -1.341951 -1.06066 -1.06066 
C -1.341951 -0.77937 -1.5 -0.397805 -1.5 0 
C -1.5 0.397805 -1.341951 0.77937 -1.06066 1.06066 
C -0.77937 1.341951 -0.397805 1.5 0 1.5 
z
" id="m92edfcde95" style="stroke:#2ca02c;"/>
    </defs>
    <g clip-path="url(#pee92595c7c)">
     <use style="fill:#2ca02c;stroke:#2ca02c;" x="166.185814" xlink:href="#m92edfcde95" y="109.91736"/>
     <use style="fill:#2ca02c;stroke:#2ca02c;" x="180.942838" xlink:href="#m92edfcde95" y="125.325188"/>
     <use style="fill:#2ca02c;stroke:#2ca02c;" x="195.699863" xlink:href="#m92edfcde95" y="179.477271"/>
     <use style="fill:#2ca02c;stroke:#2ca02c;" x="210.456888" xlink:href="#m92edfcde95" y="172.049931"/>
     <use style="fill:#2ca02c;stroke:#2ca02c;" x="225.213913" xlink:href="#m92edfcde95" y="184.175481"/>
     <use style="fill:#2ca02c;stroke:#2ca02c;" x="239.970938" xlink:href="#m92edfcde95" y="243.297279"/>
     <use style="fill:#2ca02c;stroke:#2ca02c;" x="254.727962" xlink:href="#m92edfcde95" y="242.033757"/>
     <use style="fill:#2ca02c;stroke:#2ca02c;" x="269.484987" xlink:href="#m92edfcde95" y="213.815735"/>
     <use style="fill:#2ca02c;stroke:#2ca02c;" x="284.242012" xlink:href="#m92edfcde95" y="187.814874"/>
     <use style="fill:#2ca02c;stroke:#2ca02c;" x="298.999037" xlink:href="#m92edfcde95" y="156.214293"/>
     <use style="fill:#2ca02c;stroke:#2ca02c;" x="313.756061" xlink:href="#m92edfcde95" y="135.484405"/>
    </g>
   </g>
   <g id="patch_3">
    <path d="M 61.410938 273.312 
L 61.410938 7.2 
" style="fill:none;stroke:#000000;stroke-linecap:square;stroke-linejoin:miter;stroke-width:0.8;"/>
   </g>
   <g id="patch_4">
    <path d="M 418.530938 273.312 
L 418.530938 7.2 
" style="fill:none;stroke:#000000;stroke-linecap:square;stroke-linejoin:miter;stroke-width:0.8;"/>
   </g>
   <g id="patch_5">
    <path d="M 61.410938 273.312 
L 418.530938 273.312 
" style="fill:none;stroke:#000000;stroke-linecap:square;stroke-linejoin:miter;stroke-width:0.8;"/>
   </g>
   <g id="patch_6">
    <path d="M 61.410938 7.2 
L 418.530938 7.2 
" style="fill:none;stroke:#000000;stroke-linecap:square;stroke-linejoin:miter;stroke-width:0.8;"/>
   </g>
   <g id="text_14">
    <!-- $\Gamma_{0910}=0.72(75)$ kHz -->
    <defs>
     <path d="M 9.8125 0 
L 9.8125 72.90625 
L 55.171875 72.90625 
L 55.171875 64.59375 
L 19.671875 64.59375 
L 19.671875 0 
z
" id="DejaVuSans-915"/>
     <path d="M 10.59375 45.40625 
L 73.1875 45.40625 
L 73.1875 37.203125 
L 10.59375 37.203125 
z
M 10.59375 25.484375 
L 73.1875 25.484375 
L 73.1875 17.1875 
L 10.59375 17.1875 
z
" id="DejaVuSans-61"/>
     <path d="M 31 75.875 
Q 24.46875 64.65625 21.28125 53.65625 
Q 18.109375 42.671875 18.109375 31.390625 
Q 18.109375 20.125 21.3125 9.0625 
Q 24.515625 -2 31 -13.1875 
L 23.1875 -13.1875 
Q 15.875 -1.703125 12.234375 9.375 
Q 8.59375 20.453125 8.59375 31.390625 
Q 8.59375 42.28125 12.203125 53.3125 
Q 15.828125 64.359375 23.1875 75.875 
z
" id="DejaVuSans-40"/>
     <path d="M 8.015625 75.875 
L 15.828125 75.875 
Q 23.140625 64.359375 26.78125 53.3125 
Q 30.421875 42.28125 30.421875 31.390625 
Q 30.421875 20.453125 26.78125 9.375 
Q 23.140625 -1.703125 15.828125 -13.1875 
L 8.015625 -13.1875 
Q 14.5 -2 17.703125 9.0625 
Q 20.90625 20.125 20.90625 31.390625 
Q 20.90625 42.671875 17.703125 53.65625 
Q 14.5 64.65625 8.015625 75.875 
z
" id="DejaVuSans-41"/>
    </defs>
    <g style="fill:#1f77b4;" transform="translate(217.8354 24.773434)scale(0.1666 -0.1666)">
     <use transform="translate(0 0.015625)" xlink:href="#DejaVuSans-915"/>
     <use transform="translate(56.669922 -16.390625)scale(0.7)" xlink:href="#DejaVuSans-48"/>
     <use transform="translate(101.206055 -16.390625)scale(0.7)" xlink:href="#DejaVuSans-57"/>
     <use transform="translate(145.742188 -16.390625)scale(0.7)" xlink:href="#DejaVuSans-49"/>
     <use transform="translate(190.27832 -16.390625)scale(0.7)" xlink:href="#DejaVuSans-48"/>
     <use transform="translate(257.03125 0.015625)" xlink:href="#DejaVuSans-61"/>
     <use transform="translate(360.302734 0.015625)" xlink:href="#DejaVuSans-48"/>
     <use transform="translate(423.925781 0.015625)" xlink:href="#DejaVuSans-46"/>
     <use transform="translate(455.603516 0.015625)" xlink:href="#DejaVuSans-55"/>
     <use transform="translate(519.226562 0.015625)" xlink:href="#DejaVuSans-50"/>
     <use transform="translate(582.849609 0.015625)" xlink:href="#DejaVuSans-40"/>
     <use transform="translate(621.863281 0.015625)" xlink:href="#DejaVuSans-55"/>
     <use transform="translate(685.486328 0.015625)" xlink:href="#DejaVuSans-53"/>
     <use transform="translate(749.109375 0.015625)" xlink:href="#DejaVuSans-41"/>
     <use transform="translate(788.123047 0.015625)" xlink:href="#DejaVuSans-32"/>
     <use transform="translate(819.910156 0.015625)" xlink:href="#DejaVuSans-107"/>
     <use transform="translate(877.820312 0.015625)" xlink:href="#DejaVuSans-72"/>
     <use transform="translate(953.015625 0.015625)" xlink:href="#DejaVuSans-122"/>
    </g>
   </g>
   <g id="text_15">
    <!-- $f_{0910}=732.07(13)$ kHz -->
    <defs>
     <path d="M 47.796875 75.984375 
L 46.390625 68.5 
L 37.796875 68.5 
Q 32.90625 68.5 30.6875 66.578125 
Q 28.46875 64.65625 27.390625 59.515625 
L 26.421875 54.6875 
L 41.21875 54.6875 
L 39.890625 47.703125 
L 25.09375 47.703125 
L 15.828125 0 
L 6.78125 0 
L 16.109375 47.703125 
L 7.515625 47.703125 
L 8.796875 54.6875 
L 17.390625 54.6875 
L 18.109375 58.5 
Q 19.96875 68.171875 24.625 72.078125 
Q 29.296875 75.984375 39.3125 75.984375 
z
" id="DejaVuSans-Oblique-102"/>
    </defs>
    <g style="fill:#1f77b4;" transform="translate(210.456888 39.836377)scale(0.1666 -0.1666)">
     <use transform="translate(0 0.015625)" xlink:href="#DejaVuSans-Oblique-102"/>
     <use transform="translate(35.205078 -16.390625)scale(0.7)" xlink:href="#DejaVuSans-48"/>
     <use transform="translate(79.741211 -16.390625)scale(0.7)" xlink:href="#DejaVuSans-57"/>
     <use transform="translate(124.277344 -16.390625)scale(0.7)" xlink:href="#DejaVuSans-49"/>
     <use transform="translate(168.813477 -16.390625)scale(0.7)" xlink:href="#DejaVuSans-48"/>
     <use transform="translate(235.566406 0.015625)" xlink:href="#DejaVuSans-61"/>
     <use transform="translate(338.837891 0.015625)" xlink:href="#DejaVuSans-55"/>
     <use transform="translate(402.460938 0.015625)" xlink:href="#DejaVuSans-51"/>
     <use transform="translate(466.083984 0.015625)" xlink:href="#DejaVuSans-50"/>
     <use transform="translate(529.707031 0.015625)" xlink:href="#DejaVuSans-46"/>
     <use transform="translate(561.494141 0.015625)" xlink:href="#DejaVuSans-48"/>
     <use transform="translate(625.117188 0.015625)" xlink:href="#DejaVuSans-55"/>
     <use transform="translate(688.740234 0.015625)" xlink:href="#DejaVuSans-40"/>
     <use transform="translate(727.753906 0.015625)" xlink:href="#DejaVuSans-49"/>
     <use transform="translate(791.376953 0.015625)" xlink:href="#DejaVuSans-51"/>
     <use transform="translate(855 0.015625)" xlink:href="#DejaVuSans-41"/>
     <use transform="translate(894.013672 0.015625)" xlink:href="#DejaVuSans-32"/>
     <use transform="translate(925.800781 0.015625)" xlink:href="#DejaVuSans-107"/>
     <use transform="translate(983.710938 0.015625)" xlink:href="#DejaVuSans-72"/>
     <use transform="translate(1058.90625 0.015625)" xlink:href="#DejaVuSans-122"/>
    </g>
   </g>
   <g id="text_16">
    <!-- $\Gamma_{0912}=0.72(71)$ kHz -->
    <g style="fill:#ff7f0e;" transform="translate(70.265152 57.409811)scale(0.1666 -0.1666)">
     <use transform="translate(0 0.015625)" xlink:href="#DejaVuSans-915"/>
     <use transform="translate(56.669922 -16.390625)scale(0.7)" xlink:href="#DejaVuSans-48"/>
     <use transform="translate(101.206055 -16.390625)scale(0.7)" xlink:href="#DejaVuSans-57"/>
     <use transform="translate(145.742188 -16.390625)scale(0.7)" xlink:href="#DejaVuSans-49"/>
     <use transform="translate(190.27832 -16.390625)scale(0.7)" xlink:href="#DejaVuSans-50"/>
     <use transform="translate(257.03125 0.015625)" xlink:href="#DejaVuSans-61"/>
     <use transform="translate(360.302734 0.015625)" xlink:href="#DejaVuSans-48"/>
     <use transform="translate(423.925781 0.015625)" xlink:href="#DejaVuSans-46"/>
     <use transform="translate(455.603516 0.015625)" xlink:href="#DejaVuSans-55"/>
     <use transform="translate(519.226562 0.015625)" xlink:href="#DejaVuSans-50"/>
     <use transform="translate(582.849609 0.015625)" xlink:href="#DejaVuSans-40"/>
     <use transform="translate(621.863281 0.015625)" xlink:href="#DejaVuSans-55"/>
     <use transform="translate(685.486328 0.015625)" xlink:href="#DejaVuSans-49"/>
     <use transform="translate(749.109375 0.015625)" xlink:href="#DejaVuSans-41"/>
     <use transform="translate(788.123047 0.015625)" xlink:href="#DejaVuSans-32"/>
     <use transform="translate(819.910156 0.015625)" xlink:href="#DejaVuSans-107"/>
     <use transform="translate(877.820312 0.015625)" xlink:href="#DejaVuSans-72"/>
     <use transform="translate(953.015625 0.015625)" xlink:href="#DejaVuSans-122"/>
    </g>
   </g>
   <g id="text_17">
    <!-- $f_{0912}=731.786(68)$ kHz -->
    <g style="fill:#ff7f0e;" transform="translate(62.88664 72.472755)scale(0.1666 -0.1666)">
     <use transform="translate(0 0.015625)" xlink:href="#DejaVuSans-Oblique-102"/>
     <use transform="translate(35.205078 -16.390625)scale(0.7)" xlink:href="#DejaVuSans-48"/>
     <use transform="translate(79.741211 -16.390625)scale(0.7)" xlink:href="#DejaVuSans-57"/>
     <use transform="translate(124.277344 -16.390625)scale(0.7)" xlink:href="#DejaVuSans-49"/>
     <use transform="translate(168.813477 -16.390625)scale(0.7)" xlink:href="#DejaVuSans-50"/>
     <use transform="translate(235.566406 0.015625)" xlink:href="#DejaVuSans-61"/>
     <use transform="translate(338.837891 0.015625)" xlink:href="#DejaVuSans-55"/>
     <use transform="translate(402.460938 0.015625)" xlink:href="#DejaVuSans-51"/>
     <use transform="translate(466.083984 0.015625)" xlink:href="#DejaVuSans-49"/>
     <use transform="translate(529.707031 0.015625)" xlink:href="#DejaVuSans-46"/>
     <use transform="translate(561.384766 0.015625)" xlink:href="#DejaVuSans-55"/>
     <use transform="translate(625.007812 0.015625)" xlink:href="#DejaVuSans-56"/>
     <use transform="translate(688.630859 0.015625)" xlink:href="#DejaVuSans-54"/>
     <use transform="translate(752.253906 0.015625)" xlink:href="#DejaVuSans-40"/>
     <use transform="translate(791.267578 0.015625)" xlink:href="#DejaVuSans-54"/>
     <use transform="translate(854.890625 0.015625)" xlink:href="#DejaVuSans-56"/>
     <use transform="translate(918.513672 0.015625)" xlink:href="#DejaVuSans-41"/>
     <use transform="translate(957.527344 0.015625)" xlink:href="#DejaVuSans-32"/>
     <use transform="translate(989.314453 0.015625)" xlink:href="#DejaVuSans-107"/>
     <use transform="translate(1047.224609 0.015625)" xlink:href="#DejaVuSans-72"/>
     <use transform="translate(1122.419922 0.015625)" xlink:href="#DejaVuSans-122"/>
    </g>
   </g>
   <g id="text_18">
    <!-- $\Gamma_{0918}=0.67(35)$ kHz -->
    <g style="fill:#2ca02c;" transform="translate(217.8354 258.249057)scale(0.1666 -0.1666)">
     <use transform="translate(0 0.015625)" xlink:href="#DejaVuSans-915"/>
     <use transform="translate(56.669922 -16.390625)scale(0.7)" xlink:href="#DejaVuSans-48"/>
     <use transform="translate(101.206055 -16.390625)scale(0.7)" xlink:href="#DejaVuSans-57"/>
     <use transform="translate(145.742188 -16.390625)scale(0.7)" xlink:href="#DejaVuSans-49"/>
     <use transform="translate(190.27832 -16.390625)scale(0.7)" xlink:href="#DejaVuSans-56"/>
     <use transform="translate(257.03125 0.015625)" xlink:href="#DejaVuSans-61"/>
     <use transform="translate(360.302734 0.015625)" xlink:href="#DejaVuSans-48"/>
     <use transform="translate(423.925781 0.015625)" xlink:href="#DejaVuSans-46"/>
     <use transform="translate(455.712891 0.015625)" xlink:href="#DejaVuSans-54"/>
     <use transform="translate(519.335938 0.015625)" xlink:href="#DejaVuSans-55"/>
     <use transform="translate(582.958984 0.015625)" xlink:href="#DejaVuSans-40"/>
     <use transform="translate(621.972656 0.015625)" xlink:href="#DejaVuSans-51"/>
     <use transform="translate(685.595703 0.015625)" xlink:href="#DejaVuSans-53"/>
     <use transform="translate(749.21875 0.015625)" xlink:href="#DejaVuSans-41"/>
     <use transform="translate(788.232422 0.015625)" xlink:href="#DejaVuSans-32"/>
     <use transform="translate(820.019531 0.015625)" xlink:href="#DejaVuSans-107"/>
     <use transform="translate(877.929688 0.015625)" xlink:href="#DejaVuSans-72"/>
     <use transform="translate(953.125 0.015625)" xlink:href="#DejaVuSans-122"/>
    </g>
   </g>
   <g id="text_19">
    <!-- $f_{0918}=732.267(36)$ kHz -->
    <g style="fill:#2ca02c;" transform="translate(210.456888 273.312)scale(0.1666 -0.1666)">
     <use transform="translate(0 0.015625)" xlink:href="#DejaVuSans-Oblique-102"/>
     <use transform="translate(35.205078 -16.390625)scale(0.7)" xlink:href="#DejaVuSans-48"/>
     <use transform="translate(79.741211 -16.390625)scale(0.7)" xlink:href="#DejaVuSans-57"/>
     <use transform="translate(124.277344 -16.390625)scale(0.7)" xlink:href="#DejaVuSans-49"/>
     <use transform="translate(168.813477 -16.390625)scale(0.7)" xlink:href="#DejaVuSans-56"/>
     <use transform="translate(235.566406 0.015625)" xlink:href="#DejaVuSans-61"/>
     <use transform="translate(338.837891 0.015625)" xlink:href="#DejaVuSans-55"/>
     <use transform="translate(402.460938 0.015625)" xlink:href="#DejaVuSans-51"/>
     <use transform="translate(466.083984 0.015625)" xlink:href="#DejaVuSans-50"/>
     <use transform="translate(529.707031 0.015625)" xlink:href="#DejaVuSans-46"/>
     <use transform="translate(561.416016 0.015625)" xlink:href="#DejaVuSans-50"/>
     <use transform="translate(625.039062 0.015625)" xlink:href="#DejaVuSans-54"/>
     <use transform="translate(688.662109 0.015625)" xlink:href="#DejaVuSans-55"/>
     <use transform="translate(752.285156 0.015625)" xlink:href="#DejaVuSans-40"/>
     <use transform="translate(791.298828 0.015625)" xlink:href="#DejaVuSans-51"/>
     <use transform="translate(854.921875 0.015625)" xlink:href="#DejaVuSans-54"/>
     <use transform="translate(918.544922 0.015625)" xlink:href="#DejaVuSans-41"/>
     <use transform="translate(957.558594 0.015625)" xlink:href="#DejaVuSans-32"/>
     <use transform="translate(989.345703 0.015625)" xlink:href="#DejaVuSans-107"/>
     <use transform="translate(1047.255859 0.015625)" xlink:href="#DejaVuSans-72"/>
     <use transform="translate(1122.451172 0.015625)" xlink:href="#DejaVuSans-122"/>
    </g>
   </g>
   <g id="legend_1">
    <g id="patch_7">
     <path d="M 73.072938 264.982 
L 168.784638 264.982 
Q 172.116638 264.982 172.116638 261.65 
L 172.116638 189.954731 
Q 172.116638 186.622731 168.784638 186.622731 
L 73.072938 186.622731 
Q 69.740938 186.622731 69.740938 189.954731 
L 69.740938 261.65 
Q 69.740938 264.982 73.072938 264.982 
z
" style="fill:#ffffff;opacity:0.8;stroke:#cccccc;stroke-linejoin:miter;"/>
    </g>
    <g id="LineCollection_4">
     <path d="M 93.064938 208.444728 
L 93.064938 191.784728 
" style="fill:none;stroke:#1f77b4;stroke-width:1.5;"/>
    </g>
    <g id="line2d_29"/>
    <g id="line2d_30">
     <g>
      <use style="fill:#1f77b4;stroke:#1f77b4;" x="93.064938" xlink:href="#mb8bc26594a" y="200.114728"/>
     </g>
    </g>
    <g id="text_20">
     <!-- 0910 -->
     <g transform="translate(123.052938 205.945728)scale(0.1666 -0.1666)">
      <use xlink:href="#DejaVuSans-48"/>
      <use x="63.623047" xlink:href="#DejaVuSans-57"/>
      <use x="127.246094" xlink:href="#DejaVuSans-49"/>
      <use x="190.869141" xlink:href="#DejaVuSans-48"/>
     </g>
    </g>
    <g id="LineCollection_5">
     <path d="M 93.064938 232.898484 
L 93.064938 216.238484 
" style="fill:none;stroke:#ff7f0e;stroke-width:1.5;"/>
    </g>
    <g id="line2d_31"/>
    <g id="line2d_32">
     <g>
      <use style="fill:#ff7f0e;stroke:#ff7f0e;" x="93.064938" xlink:href="#m3e2fb6b177" y="224.568484"/>
     </g>
    </g>
    <g id="text_21">
     <!-- 0912 -->
     <g transform="translate(123.052938 230.399484)scale(0.1666 -0.1666)">
      <use xlink:href="#DejaVuSans-48"/>
      <use x="63.623047" xlink:href="#DejaVuSans-57"/>
      <use x="127.246094" xlink:href="#DejaVuSans-49"/>
      <use x="190.869141" xlink:href="#DejaVuSans-50"/>
     </g>
    </g>
    <g id="LineCollection_6">
     <path d="M 93.064938 257.352241 
L 93.064938 240.692241 
" style="fill:none;stroke:#2ca02c;stroke-width:1.5;"/>
    </g>
    <g id="line2d_33"/>
    <g id="line2d_34">
     <g>
      <use style="fill:#2ca02c;stroke:#2ca02c;" x="93.064938" xlink:href="#m92edfcde95" y="249.022241"/>
     </g>
    </g>
    <g id="text_22">
     <!-- 0918 -->
     <g transform="translate(123.052938 254.853241)scale(0.1666 -0.1666)">
      <use xlink:href="#DejaVuSans-48"/>
      <use x="63.623047" xlink:href="#DejaVuSans-57"/>
      <use x="127.246094" xlink:href="#DejaVuSans-49"/>
      <use x="190.869141" xlink:href="#DejaVuSans-56"/>
     </g>
    </g>
   </g>
  </g>
 </g>
 <defs>
  <clipPath id="pee92595c7c">
   <rect height="266.112" width="357.12" x="61.410938" y="7.2"/>
  </clipPath>
 </defs>
</svg>
