<?xml version="1.0" encoding="utf-8" standalone="no"?>
<!DOCTYPE svg PUBLIC "-//W3C//DTD SVG 1.1//EN"
  "http://www.w3.org/Graphics/SVG/1.1/DTD/svg11.dtd">
<!-- Created with matplotlib (https://matplotlib.org/) -->
<svg height="349.621687pt" version="1.1" viewBox="0 0 411.018437 349.621687" width="411.018437pt" xmlns="http://www.w3.org/2000/svg" xmlns:xlink="http://www.w3.org/1999/xlink">
 <defs>
  <style type="text/css">
*{stroke-linecap:butt;stroke-linejoin:round;}
  </style>
 </defs>
 <g id="figure_1">
  <g id="patch_1">
   <path d="M 0 349.621687 
L 411.018437 349.621687 
L 411.018437 0 
L 0 0 
z
" style="fill:none;"/>
  </g>
  <g id="axes_1">
   <g id="patch_2">
    <path d="M 38.054688 297.54825 
L 395.174688 297.54825 
L 395.174688 31.43625 
L 38.054688 31.43625 
z
" style="fill:none;"/>
   </g>
   <g id="matplotlib.axis_1">
    <g id="xtick_1">
     <g id="line2d_1">
      <path clip-path="url(#pc07492ed16)" d="M 38.054688 297.54825 
L 38.054688 31.43625 
" style="fill:none;stroke:#b0b0b0;stroke-linecap:square;stroke-width:0.8;"/>
     </g>
     <g id="line2d_2">
      <defs>
       <path d="M 0 0 
L 0 3.5 
" id="m005f0a59be" style="stroke:#000000;stroke-width:0.8;"/>
      </defs>
      <g>
       <use style="stroke:#000000;stroke-width:0.8;" x="38.054688" xlink:href="#m005f0a59be" y="297.54825"/>
      </g>
     </g>
     <g id="text_1">
      <!-- 0.0 -->
      <defs>
       <path d="M 31.78125 66.40625 
Q 24.171875 66.40625 20.328125 58.90625 
Q 16.5 51.421875 16.5 36.375 
Q 16.5 21.390625 20.328125 13.890625 
Q 24.171875 6.390625 31.78125 6.390625 
Q 39.453125 6.390625 43.28125 13.890625 
Q 47.125 21.390625 47.125 36.375 
Q 47.125 51.421875 43.28125 58.90625 
Q 39.453125 66.40625 31.78125 66.40625 
z
M 31.78125 74.21875 
Q 44.046875 74.21875 50.515625 64.515625 
Q 56.984375 54.828125 56.984375 36.375 
Q 56.984375 17.96875 50.515625 8.265625 
Q 44.046875 -1.421875 31.78125 -1.421875 
Q 19.53125 -1.421875 13.0625 8.265625 
Q 6.59375 17.96875 6.59375 36.375 
Q 6.59375 54.828125 13.0625 64.515625 
Q 19.53125 74.21875 31.78125 74.21875 
z
" id="DejaVuSans-48"/>
       <path d="M 10.6875 12.40625 
L 21 12.40625 
L 21 0 
L 10.6875 0 
z
" id="DejaVuSans-46"/>
      </defs>
      <g transform="translate(26.127344 315.945906)scale(0.15 -0.15)">
       <use xlink:href="#DejaVuSans-48"/>
       <use x="63.623047" xlink:href="#DejaVuSans-46"/>
       <use x="95.410156" xlink:href="#DejaVuSans-48"/>
      </g>
     </g>
    </g>
    <g id="xtick_2">
     <g id="line2d_3">
      <path clip-path="url(#pc07492ed16)" d="M 136.164578 297.54825 
L 136.164578 31.43625 
" style="fill:none;stroke:#b0b0b0;stroke-linecap:square;stroke-width:0.8;"/>
     </g>
     <g id="line2d_4">
      <g>
       <use style="stroke:#000000;stroke-width:0.8;" x="136.164578" xlink:href="#m005f0a59be" y="297.54825"/>
      </g>
     </g>
     <g id="text_2">
      <!-- 0.2 -->
      <defs>
       <path d="M 19.1875 8.296875 
L 53.609375 8.296875 
L 53.609375 0 
L 7.328125 0 
L 7.328125 8.296875 
Q 12.9375 14.109375 22.625 23.890625 
Q 32.328125 33.6875 34.8125 36.53125 
Q 39.546875 41.84375 41.421875 45.53125 
Q 43.3125 49.21875 43.3125 52.78125 
Q 43.3125 58.59375 39.234375 62.25 
Q 35.15625 65.921875 28.609375 65.921875 
Q 23.96875 65.921875 18.8125 64.3125 
Q 13.671875 62.703125 7.8125 59.421875 
L 7.8125 69.390625 
Q 13.765625 71.78125 18.9375 73 
Q 24.125 74.21875 28.421875 74.21875 
Q 39.75 74.21875 46.484375 68.546875 
Q 53.21875 62.890625 53.21875 53.421875 
Q 53.21875 48.921875 51.53125 44.890625 
Q 49.859375 40.875 45.40625 35.40625 
Q 44.1875 33.984375 37.640625 27.21875 
Q 31.109375 20.453125 19.1875 8.296875 
z
" id="DejaVuSans-50"/>
      </defs>
      <g transform="translate(124.237234 315.945906)scale(0.15 -0.15)">
       <use xlink:href="#DejaVuSans-48"/>
       <use x="63.623047" xlink:href="#DejaVuSans-46"/>
       <use x="95.410156" xlink:href="#DejaVuSans-50"/>
      </g>
     </g>
    </g>
    <g id="xtick_3">
     <g id="line2d_5">
      <path clip-path="url(#pc07492ed16)" d="M 234.274468 297.54825 
L 234.274468 31.43625 
" style="fill:none;stroke:#b0b0b0;stroke-linecap:square;stroke-width:0.8;"/>
     </g>
     <g id="line2d_6">
      <g>
       <use style="stroke:#000000;stroke-width:0.8;" x="234.274468" xlink:href="#m005f0a59be" y="297.54825"/>
      </g>
     </g>
     <g id="text_3">
      <!-- 0.4 -->
      <defs>
       <path d="M 37.796875 64.3125 
L 12.890625 25.390625 
L 37.796875 25.390625 
z
M 35.203125 72.90625 
L 47.609375 72.90625 
L 47.609375 25.390625 
L 58.015625 25.390625 
L 58.015625 17.1875 
L 47.609375 17.1875 
L 47.609375 0 
L 37.796875 0 
L 37.796875 17.1875 
L 4.890625 17.1875 
L 4.890625 26.703125 
z
" id="DejaVuSans-52"/>
      </defs>
      <g transform="translate(222.347124 315.945906)scale(0.15 -0.15)">
       <use xlink:href="#DejaVuSans-48"/>
       <use x="63.623047" xlink:href="#DejaVuSans-46"/>
       <use x="95.410156" xlink:href="#DejaVuSans-52"/>
      </g>
     </g>
    </g>
    <g id="xtick_4">
     <g id="line2d_7">
      <path clip-path="url(#pc07492ed16)" d="M 332.384358 297.54825 
L 332.384358 31.43625 
" style="fill:none;stroke:#b0b0b0;stroke-linecap:square;stroke-width:0.8;"/>
     </g>
     <g id="line2d_8">
      <g>
       <use style="stroke:#000000;stroke-width:0.8;" x="332.384358" xlink:href="#m005f0a59be" y="297.54825"/>
      </g>
     </g>
     <g id="text_4">
      <!-- 0.6 -->
      <defs>
       <path d="M 33.015625 40.375 
Q 26.375 40.375 22.484375 35.828125 
Q 18.609375 31.296875 18.609375 23.390625 
Q 18.609375 15.53125 22.484375 10.953125 
Q 26.375 6.390625 33.015625 6.390625 
Q 39.65625 6.390625 43.53125 10.953125 
Q 47.40625 15.53125 47.40625 23.390625 
Q 47.40625 31.296875 43.53125 35.828125 
Q 39.65625 40.375 33.015625 40.375 
z
M 52.59375 71.296875 
L 52.59375 62.3125 
Q 48.875 64.0625 45.09375 64.984375 
Q 41.3125 65.921875 37.59375 65.921875 
Q 27.828125 65.921875 22.671875 59.328125 
Q 17.53125 52.734375 16.796875 39.40625 
Q 19.671875 43.65625 24.015625 45.921875 
Q 28.375 48.1875 33.59375 48.1875 
Q 44.578125 48.1875 50.953125 41.515625 
Q 57.328125 34.859375 57.328125 23.390625 
Q 57.328125 12.15625 50.6875 5.359375 
Q 44.046875 -1.421875 33.015625 -1.421875 
Q 20.359375 -1.421875 13.671875 8.265625 
Q 6.984375 17.96875 6.984375 36.375 
Q 6.984375 53.65625 15.1875 63.9375 
Q 23.390625 74.21875 37.203125 74.21875 
Q 40.921875 74.21875 44.703125 73.484375 
Q 48.484375 72.75 52.59375 71.296875 
z
" id="DejaVuSans-54"/>
      </defs>
      <g transform="translate(320.457014 315.945906)scale(0.15 -0.15)">
       <use xlink:href="#DejaVuSans-48"/>
       <use x="63.623047" xlink:href="#DejaVuSans-46"/>
       <use x="95.410156" xlink:href="#DejaVuSans-54"/>
      </g>
     </g>
    </g>
    <g id="text_5">
     <!-- PAAOM/AMP -->
     <defs>
      <path d="M 19.671875 64.796875 
L 19.671875 37.40625 
L 32.078125 37.40625 
Q 38.96875 37.40625 42.71875 40.96875 
Q 46.484375 44.53125 46.484375 51.125 
Q 46.484375 57.671875 42.71875 61.234375 
Q 38.96875 64.796875 32.078125 64.796875 
z
M 9.8125 72.90625 
L 32.078125 72.90625 
Q 44.34375 72.90625 50.609375 67.359375 
Q 56.890625 61.8125 56.890625 51.125 
Q 56.890625 40.328125 50.609375 34.8125 
Q 44.34375 29.296875 32.078125 29.296875 
L 19.671875 29.296875 
L 19.671875 0 
L 9.8125 0 
z
" id="DejaVuSans-80"/>
      <path d="M 34.1875 63.1875 
L 20.796875 26.90625 
L 47.609375 26.90625 
z
M 28.609375 72.90625 
L 39.796875 72.90625 
L 67.578125 0 
L 57.328125 0 
L 50.6875 18.703125 
L 17.828125 18.703125 
L 11.1875 0 
L 0.78125 0 
z
" id="DejaVuSans-65"/>
      <path d="M 39.40625 66.21875 
Q 28.65625 66.21875 22.328125 58.203125 
Q 16.015625 50.203125 16.015625 36.375 
Q 16.015625 22.609375 22.328125 14.59375 
Q 28.65625 6.59375 39.40625 6.59375 
Q 50.140625 6.59375 56.421875 14.59375 
Q 62.703125 22.609375 62.703125 36.375 
Q 62.703125 50.203125 56.421875 58.203125 
Q 50.140625 66.21875 39.40625 66.21875 
z
M 39.40625 74.21875 
Q 54.734375 74.21875 63.90625 63.9375 
Q 73.09375 53.65625 73.09375 36.375 
Q 73.09375 19.140625 63.90625 8.859375 
Q 54.734375 -1.421875 39.40625 -1.421875 
Q 24.03125 -1.421875 14.8125 8.828125 
Q 5.609375 19.09375 5.609375 36.375 
Q 5.609375 53.65625 14.8125 63.9375 
Q 24.03125 74.21875 39.40625 74.21875 
z
" id="DejaVuSans-79"/>
      <path d="M 9.8125 72.90625 
L 24.515625 72.90625 
L 43.109375 23.296875 
L 61.8125 72.90625 
L 76.515625 72.90625 
L 76.515625 0 
L 66.890625 0 
L 66.890625 64.015625 
L 48.09375 14.015625 
L 38.1875 14.015625 
L 19.390625 64.015625 
L 19.390625 0 
L 9.8125 0 
z
" id="DejaVuSans-77"/>
      <path d="M 25.390625 72.90625 
L 33.6875 72.90625 
L 8.296875 -9.28125 
L 0 -9.28125 
z
" id="DejaVuSans-47"/>
     </defs>
     <g transform="translate(156.074062 338.262312)scale(0.2 -0.2)">
      <use xlink:href="#DejaVuSans-80"/>
      <use x="53.927734" xlink:href="#DejaVuSans-65"/>
      <use x="125.085938" xlink:href="#DejaVuSans-65"/>
      <use x="191.744141" xlink:href="#DejaVuSans-79"/>
      <use x="270.455078" xlink:href="#DejaVuSans-77"/>
      <use x="356.734375" xlink:href="#DejaVuSans-47"/>
      <use x="390.425781" xlink:href="#DejaVuSans-65"/>
      <use x="458.833984" xlink:href="#DejaVuSans-77"/>
      <use x="545.113281" xlink:href="#DejaVuSans-80"/>
     </g>
    </g>
   </g>
   <g id="matplotlib.axis_2">
    <g id="ytick_1">
     <g id="line2d_9">
      <path clip-path="url(#pc07492ed16)" d="M 38.054688 297.54825 
L 395.174688 297.54825 
" style="fill:none;stroke:#b0b0b0;stroke-linecap:square;stroke-width:0.8;"/>
     </g>
     <g id="line2d_10">
      <defs>
       <path d="M 0 0 
L -3.5 0 
" id="mc3ce260a5b" style="stroke:#000000;stroke-width:0.8;"/>
      </defs>
      <g>
       <use style="stroke:#000000;stroke-width:0.8;" x="38.054688" xlink:href="#mc3ce260a5b" y="297.54825"/>
      </g>
     </g>
     <g id="text_6">
      <!-- 0.0 -->
      <g transform="translate(7.2 303.247078)scale(0.15 -0.15)">
       <use xlink:href="#DejaVuSans-48"/>
       <use x="63.623047" xlink:href="#DejaVuSans-46"/>
       <use x="95.410156" xlink:href="#DejaVuSans-48"/>
      </g>
     </g>
    </g>
    <g id="ytick_2">
     <g id="line2d_11">
      <path clip-path="url(#pc07492ed16)" d="M 38.054688 244.32585 
L 395.174688 244.32585 
" style="fill:none;stroke:#b0b0b0;stroke-linecap:square;stroke-width:0.8;"/>
     </g>
     <g id="line2d_12">
      <g>
       <use style="stroke:#000000;stroke-width:0.8;" x="38.054688" xlink:href="#mc3ce260a5b" y="244.32585"/>
      </g>
     </g>
     <g id="text_7">
      <!-- 0.2 -->
      <g transform="translate(7.2 250.024678)scale(0.15 -0.15)">
       <use xlink:href="#DejaVuSans-48"/>
       <use x="63.623047" xlink:href="#DejaVuSans-46"/>
       <use x="95.410156" xlink:href="#DejaVuSans-50"/>
      </g>
     </g>
    </g>
    <g id="ytick_3">
     <g id="line2d_13">
      <path clip-path="url(#pc07492ed16)" d="M 38.054688 191.10345 
L 395.174688 191.10345 
" style="fill:none;stroke:#b0b0b0;stroke-linecap:square;stroke-width:0.8;"/>
     </g>
     <g id="line2d_14">
      <g>
       <use style="stroke:#000000;stroke-width:0.8;" x="38.054688" xlink:href="#mc3ce260a5b" y="191.10345"/>
      </g>
     </g>
     <g id="text_8">
      <!-- 0.4 -->
      <g transform="translate(7.2 196.802278)scale(0.15 -0.15)">
       <use xlink:href="#DejaVuSans-48"/>
       <use x="63.623047" xlink:href="#DejaVuSans-46"/>
       <use x="95.410156" xlink:href="#DejaVuSans-52"/>
      </g>
     </g>
    </g>
    <g id="ytick_4">
     <g id="line2d_15">
      <path clip-path="url(#pc07492ed16)" d="M 38.054688 137.88105 
L 395.174688 137.88105 
" style="fill:none;stroke:#b0b0b0;stroke-linecap:square;stroke-width:0.8;"/>
     </g>
     <g id="line2d_16">
      <g>
       <use style="stroke:#000000;stroke-width:0.8;" x="38.054688" xlink:href="#mc3ce260a5b" y="137.88105"/>
      </g>
     </g>
     <g id="text_9">
      <!-- 0.6 -->
      <g transform="translate(7.2 143.579878)scale(0.15 -0.15)">
       <use xlink:href="#DejaVuSans-48"/>
       <use x="63.623047" xlink:href="#DejaVuSans-46"/>
       <use x="95.410156" xlink:href="#DejaVuSans-54"/>
      </g>
     </g>
    </g>
    <g id="ytick_5">
     <g id="line2d_17">
      <path clip-path="url(#pc07492ed16)" d="M 38.054688 84.65865 
L 395.174688 84.65865 
" style="fill:none;stroke:#b0b0b0;stroke-linecap:square;stroke-width:0.8;"/>
     </g>
     <g id="line2d_18">
      <g>
       <use style="stroke:#000000;stroke-width:0.8;" x="38.054688" xlink:href="#mc3ce260a5b" y="84.65865"/>
      </g>
     </g>
     <g id="text_10">
      <!-- 0.8 -->
      <defs>
       <path d="M 31.78125 34.625 
Q 24.75 34.625 20.71875 30.859375 
Q 16.703125 27.09375 16.703125 20.515625 
Q 16.703125 13.921875 20.71875 10.15625 
Q 24.75 6.390625 31.78125 6.390625 
Q 38.8125 6.390625 42.859375 10.171875 
Q 46.921875 13.96875 46.921875 20.515625 
Q 46.921875 27.09375 42.890625 30.859375 
Q 38.875 34.625 31.78125 34.625 
z
M 21.921875 38.8125 
Q 15.578125 40.375 12.03125 44.71875 
Q 8.5 49.078125 8.5 55.328125 
Q 8.5 64.0625 14.71875 69.140625 
Q 20.953125 74.21875 31.78125 74.21875 
Q 42.671875 74.21875 48.875 69.140625 
Q 55.078125 64.0625 55.078125 55.328125 
Q 55.078125 49.078125 51.53125 44.71875 
Q 48 40.375 41.703125 38.8125 
Q 48.828125 37.15625 52.796875 32.3125 
Q 56.78125 27.484375 56.78125 20.515625 
Q 56.78125 9.90625 50.3125 4.234375 
Q 43.84375 -1.421875 31.78125 -1.421875 
Q 19.734375 -1.421875 13.25 4.234375 
Q 6.78125 9.90625 6.78125 20.515625 
Q 6.78125 27.484375 10.78125 32.3125 
Q 14.796875 37.15625 21.921875 38.8125 
z
M 18.3125 54.390625 
Q 18.3125 48.734375 21.84375 45.5625 
Q 25.390625 42.390625 31.78125 42.390625 
Q 38.140625 42.390625 41.71875 45.5625 
Q 45.3125 48.734375 45.3125 54.390625 
Q 45.3125 60.0625 41.71875 63.234375 
Q 38.140625 66.40625 31.78125 66.40625 
Q 25.390625 66.40625 21.84375 63.234375 
Q 18.3125 60.0625 18.3125 54.390625 
z
" id="DejaVuSans-56"/>
      </defs>
      <g transform="translate(7.2 90.357478)scale(0.15 -0.15)">
       <use xlink:href="#DejaVuSans-48"/>
       <use x="63.623047" xlink:href="#DejaVuSans-46"/>
       <use x="95.410156" xlink:href="#DejaVuSans-56"/>
      </g>
     </g>
    </g>
    <g id="ytick_6">
     <g id="line2d_19">
      <path clip-path="url(#pc07492ed16)" d="M 38.054688 31.43625 
L 395.174688 31.43625 
" style="fill:none;stroke:#b0b0b0;stroke-linecap:square;stroke-width:0.8;"/>
     </g>
     <g id="line2d_20">
      <g>
       <use style="stroke:#000000;stroke-width:0.8;" x="38.054688" xlink:href="#mc3ce260a5b" y="31.43625"/>
      </g>
     </g>
     <g id="text_11">
      <!-- 1.0 -->
      <defs>
       <path d="M 12.40625 8.296875 
L 28.515625 8.296875 
L 28.515625 63.921875 
L 10.984375 60.40625 
L 10.984375 69.390625 
L 28.421875 72.90625 
L 38.28125 72.90625 
L 38.28125 8.296875 
L 54.390625 8.296875 
L 54.390625 0 
L 12.40625 0 
z
" id="DejaVuSans-49"/>
      </defs>
      <g transform="translate(7.2 37.135078)scale(0.15 -0.15)">
       <use xlink:href="#DejaVuSans-49"/>
       <use x="63.623047" xlink:href="#DejaVuSans-46"/>
       <use x="95.410156" xlink:href="#DejaVuSans-48"/>
      </g>
     </g>
    </g>
   </g>
   <g id="LineCollection_1">
    <path clip-path="url(#pc07492ed16)" d="M 38.054688 302.87049 
L 38.054688 292.22601 
" style="fill:none;stroke:#1f77b4;stroke-width:1.5;"/>
    <path clip-path="url(#pc07492ed16)" d="M 87.109633 275.57253 
L 87.109633 264.92805 
" style="fill:none;stroke:#1f77b4;stroke-width:1.5;"/>
    <path clip-path="url(#pc07492ed16)" d="M 136.164578 203.708546 
L 136.164578 193.064066 
" style="fill:none;stroke:#1f77b4;stroke-width:1.5;"/>
    <path clip-path="url(#pc07492ed16)" d="M 185.219523 114.059148 
L 185.219523 103.414668 
" style="fill:none;stroke:#1f77b4;stroke-width:1.5;"/>
    <path clip-path="url(#pc07492ed16)" d="M 234.274468 40.677137 
L 234.274468 30.032657 
" style="fill:none;stroke:#1f77b4;stroke-width:1.5;"/>
    <path clip-path="url(#pc07492ed16)" d="M 283.329413 39.42198 
L 283.329413 28.7775 
" style="fill:none;stroke:#1f77b4;stroke-width:1.5;"/>
    <path clip-path="url(#pc07492ed16)" d="M 332.384358 39.428565 
L 332.384358 28.784085 
" style="fill:none;stroke:#1f77b4;stroke-width:1.5;"/>
    <path clip-path="url(#pc07492ed16)" d="M 381.439303 39.497976 
L 381.439303 28.853496 
" style="fill:none;stroke:#1f77b4;stroke-width:1.5;"/>
   </g>
   <g id="LineCollection_2">
    <path clip-path="url(#pc07492ed16)" d="M 38.054688 302.87049 
L 38.054688 292.22601 
" style="fill:none;stroke:#ff7f0e;stroke-width:1.5;"/>
    <path clip-path="url(#pc07492ed16)" d="M 87.109633 276.189725 
L 87.109633 265.545245 
" style="fill:none;stroke:#ff7f0e;stroke-width:1.5;"/>
    <path clip-path="url(#pc07492ed16)" d="M 136.164578 206.589517 
L 136.164578 195.945037 
" style="fill:none;stroke:#ff7f0e;stroke-width:1.5;"/>
    <path clip-path="url(#pc07492ed16)" d="M 185.219523 119.558378 
L 185.219523 108.913898 
" style="fill:none;stroke:#ff7f0e;stroke-width:1.5;"/>
    <path clip-path="url(#pc07492ed16)" d="M 234.274468 47.787373 
L 234.274468 37.142893 
" style="fill:none;stroke:#ff7f0e;stroke-width:1.5;"/>
    <path clip-path="url(#pc07492ed16)" d="M 283.329413 39.335408 
L 283.329413 28.690928 
" style="fill:none;stroke:#ff7f0e;stroke-width:1.5;"/>
    <path clip-path="url(#pc07492ed16)" d="M 332.384358 39.555701 
L 332.384358 28.911221 
" style="fill:none;stroke:#ff7f0e;stroke-width:1.5;"/>
    <path clip-path="url(#pc07492ed16)" d="M 381.439303 39.508897 
L 381.439303 28.864417 
" style="fill:none;stroke:#ff7f0e;stroke-width:1.5;"/>
   </g>
   <g id="LineCollection_3">
    <path clip-path="url(#pc07492ed16)" d="M 38.054688 302.87049 
L 38.054688 292.22601 
" style="fill:none;stroke:#2ca02c;stroke-width:1.5;"/>
    <path clip-path="url(#pc07492ed16)" d="M 87.109633 278.50967 
L 87.109633 267.86519 
" style="fill:none;stroke:#2ca02c;stroke-width:1.5;"/>
    <path clip-path="url(#pc07492ed16)" d="M 136.164578 215.226516 
L 136.164578 204.582036 
" style="fill:none;stroke:#2ca02c;stroke-width:1.5;"/>
    <path clip-path="url(#pc07492ed16)" d="M 185.219523 135.885042 
L 185.219523 125.240562 
" style="fill:none;stroke:#2ca02c;stroke-width:1.5;"/>
    <path clip-path="url(#pc07492ed16)" d="M 234.274468 67.345425 
L 234.274468 56.700945 
" style="fill:none;stroke:#2ca02c;stroke-width:1.5;"/>
    <path clip-path="url(#pc07492ed16)" d="M 283.329413 40.594846 
L 283.329413 29.950366 
" style="fill:none;stroke:#2ca02c;stroke-width:1.5;"/>
    <path clip-path="url(#pc07492ed16)" d="M 332.384358 40.396311 
L 332.384358 29.751831 
" style="fill:none;stroke:#2ca02c;stroke-width:1.5;"/>
    <path clip-path="url(#pc07492ed16)" d="M 381.439303 40.517378 
L 381.439303 29.872898 
" style="fill:none;stroke:#2ca02c;stroke-width:1.5;"/>
   </g>
   <g id="LineCollection_4">
    <path clip-path="url(#pc07492ed16)" d="M 38.054688 302.87049 
L 38.054688 292.22601 
" style="fill:none;stroke:#d62728;stroke-width:1.5;"/>
    <path clip-path="url(#pc07492ed16)" d="M 87.109633 281.756655 
L 87.109633 271.112175 
" style="fill:none;stroke:#d62728;stroke-width:1.5;"/>
    <path clip-path="url(#pc07492ed16)" d="M 136.164578 227.376973 
L 136.164578 216.732493 
" style="fill:none;stroke:#d62728;stroke-width:1.5;"/>
    <path clip-path="url(#pc07492ed16)" d="M 185.219523 159.501331 
L 185.219523 148.856851 
" style="fill:none;stroke:#d62728;stroke-width:1.5;"/>
    <path clip-path="url(#pc07492ed16)" d="M 234.274468 101.082449 
L 234.274468 90.437969 
" style="fill:none;stroke:#d62728;stroke-width:1.5;"/>
    <path clip-path="url(#pc07492ed16)" d="M 283.329413 68.727714 
L 283.329413 58.083234 
" style="fill:none;stroke:#d62728;stroke-width:1.5;"/>
    <path clip-path="url(#pc07492ed16)" d="M 332.384358 61.983501 
L 332.384358 51.339021 
" style="fill:none;stroke:#d62728;stroke-width:1.5;"/>
    <path clip-path="url(#pc07492ed16)" d="M 381.439303 60.980636 
L 381.439303 50.336156 
" style="fill:none;stroke:#d62728;stroke-width:1.5;"/>
   </g>
   <g id="LineCollection_5">
    <path clip-path="url(#pc07492ed16)" d="M 38.054688 302.87049 
L 38.054688 292.22601 
" style="fill:none;stroke:#9467bd;stroke-width:1.5;"/>
    <path clip-path="url(#pc07492ed16)" d="M 87.109633 286.129135 
L 87.109633 275.484655 
" style="fill:none;stroke:#9467bd;stroke-width:1.5;"/>
    <path clip-path="url(#pc07492ed16)" d="M 136.164578 242.524476 
L 136.164578 231.879996 
" style="fill:none;stroke:#9467bd;stroke-width:1.5;"/>
    <path clip-path="url(#pc07492ed16)" d="M 185.219523 187.561606 
L 185.219523 176.917126 
" style="fill:none;stroke:#9467bd;stroke-width:1.5;"/>
    <path clip-path="url(#pc07492ed16)" d="M 234.274468 140.924016 
L 234.274468 130.279536 
" style="fill:none;stroke:#9467bd;stroke-width:1.5;"/>
    <path clip-path="url(#pc07492ed16)" d="M 283.329413 114.736758 
L 283.329413 104.092278 
" style="fill:none;stroke:#9467bd;stroke-width:1.5;"/>
    <path clip-path="url(#pc07492ed16)" d="M 332.384358 108.141187 
L 332.384358 97.496707 
" style="fill:none;stroke:#9467bd;stroke-width:1.5;"/>
    <path clip-path="url(#pc07492ed16)" d="M 381.439303 107.302451 
L 381.439303 96.657971 
" style="fill:none;stroke:#9467bd;stroke-width:1.5;"/>
   </g>
   <g id="LineCollection_6">
    <path clip-path="url(#pc07492ed16)" d="M 38.054688 302.87049 
L 38.054688 292.22601 
" style="fill:none;stroke:#8c564b;stroke-width:1.5;"/>
    <path clip-path="url(#pc07492ed16)" d="M 87.109633 290.253074 
L 87.109633 279.608594 
" style="fill:none;stroke:#8c564b;stroke-width:1.5;"/>
    <path clip-path="url(#pc07492ed16)" d="M 136.164578 257.32172 
L 136.164578 246.67724 
" style="fill:none;stroke:#8c564b;stroke-width:1.5;"/>
    <path clip-path="url(#pc07492ed16)" d="M 185.219523 216.255427 
L 185.219523 205.610947 
" style="fill:none;stroke:#8c564b;stroke-width:1.5;"/>
    <path clip-path="url(#pc07492ed16)" d="M 234.274468 180.035901 
L 234.274468 169.391421 
" style="fill:none;stroke:#8c564b;stroke-width:1.5;"/>
    <path clip-path="url(#pc07492ed16)" d="M 283.329413 160.727158 
L 283.329413 150.082678 
" style="fill:none;stroke:#8c564b;stroke-width:1.5;"/>
    <path clip-path="url(#pc07492ed16)" d="M 332.384358 156.498841 
L 332.384358 145.854361 
" style="fill:none;stroke:#8c564b;stroke-width:1.5;"/>
    <path clip-path="url(#pc07492ed16)" d="M 381.439303 155.194244 
L 381.439303 144.549764 
" style="fill:none;stroke:#8c564b;stroke-width:1.5;"/>
   </g>
   <g id="LineCollection_7">
    <path clip-path="url(#pc07492ed16)" d="M 38.054688 302.87049 
L 38.054688 292.22601 
" style="fill:none;stroke:#e377c2;stroke-width:1.5;"/>
    <path clip-path="url(#pc07492ed16)" d="M 87.109633 293.662695 
L 87.109633 283.018215 
" style="fill:none;stroke:#e377c2;stroke-width:1.5;"/>
    <path clip-path="url(#pc07492ed16)" d="M 136.164578 270.540011 
L 136.164578 259.895531 
" style="fill:none;stroke:#e377c2;stroke-width:1.5;"/>
    <path clip-path="url(#pc07492ed16)" d="M 185.219523 241.49623 
L 185.219523 230.85175 
" style="fill:none;stroke:#e377c2;stroke-width:1.5;"/>
    <path clip-path="url(#pc07492ed16)" d="M 234.274468 216.156271 
L 234.274468 205.511791 
" style="fill:none;stroke:#e377c2;stroke-width:1.5;"/>
    <path clip-path="url(#pc07492ed16)" d="M 283.329413 201.819422 
L 283.329413 191.174942 
" style="fill:none;stroke:#e377c2;stroke-width:1.5;"/>
    <path clip-path="url(#pc07492ed16)" d="M 332.384358 198.521573 
L 332.384358 187.877093 
" style="fill:none;stroke:#e377c2;stroke-width:1.5;"/>
    <path clip-path="url(#pc07492ed16)" d="M 381.439303 197.295604 
L 381.439303 186.651124 
" style="fill:none;stroke:#e377c2;stroke-width:1.5;"/>
   </g>
   <g id="LineCollection_8">
    <path clip-path="url(#pc07492ed16)" d="M 38.054688 302.87049 
L 38.054688 292.22601 
" style="fill:none;stroke:#7f7f7f;stroke-width:1.5;"/>
    <path clip-path="url(#pc07492ed16)" d="M 87.109633 296.634876 
L 87.109633 285.990396 
" style="fill:none;stroke:#7f7f7f;stroke-width:1.5;"/>
    <path clip-path="url(#pc07492ed16)" d="M 136.164578 280.892644 
L 136.164578 270.248164 
" style="fill:none;stroke:#7f7f7f;stroke-width:1.5;"/>
    <path clip-path="url(#pc07492ed16)" d="M 185.219523 261.977132 
L 185.219523 251.332652 
" style="fill:none;stroke:#7f7f7f;stroke-width:1.5;"/>
    <path clip-path="url(#pc07492ed16)" d="M 234.274468 244.953009 
L 234.274468 234.308529 
" style="fill:none;stroke:#7f7f7f;stroke-width:1.5;"/>
    <path clip-path="url(#pc07492ed16)" d="M 283.329413 235.393963 
L 283.329413 224.749483 
" style="fill:none;stroke:#7f7f7f;stroke-width:1.5;"/>
    <path clip-path="url(#pc07492ed16)" d="M 332.384358 233.417565 
L 332.384358 222.773085 
" style="fill:none;stroke:#7f7f7f;stroke-width:1.5;"/>
    <path clip-path="url(#pc07492ed16)" d="M 381.439303 233.187599 
L 381.439303 222.543119 
" style="fill:none;stroke:#7f7f7f;stroke-width:1.5;"/>
   </g>
   <g id="LineCollection_9">
    <path clip-path="url(#pc07492ed16)" d="M 38.054688 302.87049 
L 38.054688 292.22601 
" style="fill:none;stroke:#bcbd22;stroke-width:1.5;"/>
    <path clip-path="url(#pc07492ed16)" d="M 87.109633 298.244331 
L 87.109633 287.599851 
" style="fill:none;stroke:#bcbd22;stroke-width:1.5;"/>
    <path clip-path="url(#pc07492ed16)" d="M 136.164578 288.283082 
L 136.164578 277.638602 
" style="fill:none;stroke:#bcbd22;stroke-width:1.5;"/>
    <path clip-path="url(#pc07492ed16)" d="M 185.219523 276.191601 
L 185.219523 265.547121 
" style="fill:none;stroke:#bcbd22;stroke-width:1.5;"/>
    <path clip-path="url(#pc07492ed16)" d="M 234.274468 265.480853 
L 234.274468 254.836373 
" style="fill:none;stroke:#bcbd22;stroke-width:1.5;"/>
    <path clip-path="url(#pc07492ed16)" d="M 283.329413 258.982196 
L 283.329413 248.337716 
" style="fill:none;stroke:#bcbd22;stroke-width:1.5;"/>
    <path clip-path="url(#pc07492ed16)" d="M 332.384358 257.88541 
L 332.384358 247.24093 
" style="fill:none;stroke:#bcbd22;stroke-width:1.5;"/>
    <path clip-path="url(#pc07492ed16)" d="M 381.439303 257.250741 
L 381.439303 246.606261 
" style="fill:none;stroke:#bcbd22;stroke-width:1.5;"/>
   </g>
   <g id="LineCollection_10">
    <path clip-path="url(#pc07492ed16)" d="M 38.054688 302.87049 
L 38.054688 292.22601 
" style="fill:none;stroke:#17becf;stroke-width:1.5;"/>
    <path clip-path="url(#pc07492ed16)" d="M 87.109633 299.744978 
L 87.109633 289.100498 
" style="fill:none;stroke:#17becf;stroke-width:1.5;"/>
    <path clip-path="url(#pc07492ed16)" d="M 136.164578 293.458727 
L 136.164578 282.814247 
" style="fill:none;stroke:#17becf;stroke-width:1.5;"/>
    <path clip-path="url(#pc07492ed16)" d="M 185.219523 285.635815 
L 185.219523 274.991335 
" style="fill:none;stroke:#17becf;stroke-width:1.5;"/>
    <path clip-path="url(#pc07492ed16)" d="M 234.274468 279.699129 
L 234.274468 269.054649 
" style="fill:none;stroke:#17becf;stroke-width:1.5;"/>
    <path clip-path="url(#pc07492ed16)" d="M 283.329413 275.922938 
L 283.329413 265.278458 
" style="fill:none;stroke:#17becf;stroke-width:1.5;"/>
    <path clip-path="url(#pc07492ed16)" d="M 332.384358 274.504138 
L 332.384358 263.859658 
" style="fill:none;stroke:#17becf;stroke-width:1.5;"/>
    <path clip-path="url(#pc07492ed16)" d="M 381.439303 274.15092 
L 381.439303 263.50644 
" style="fill:none;stroke:#17becf;stroke-width:1.5;"/>
   </g>
   <g id="LineCollection_11">
    <path clip-path="url(#pc07492ed16)" d="M 38.054688 302.87049 
L 38.054688 292.22601 
" style="fill:none;stroke:#1f77b4;stroke-width:1.5;"/>
    <path clip-path="url(#pc07492ed16)" d="M 87.109633 301.617063 
L 87.109633 290.972583 
" style="fill:none;stroke:#1f77b4;stroke-width:1.5;"/>
    <path clip-path="url(#pc07492ed16)" d="M 136.164578 297.143173 
L 136.164578 286.498693 
" style="fill:none;stroke:#1f77b4;stroke-width:1.5;"/>
    <path clip-path="url(#pc07492ed16)" d="M 185.219523 292.358195 
L 185.219523 281.713715 
" style="fill:none;stroke:#1f77b4;stroke-width:1.5;"/>
    <path clip-path="url(#pc07492ed16)" d="M 234.274468 287.424681 
L 234.274468 276.780201 
" style="fill:none;stroke:#1f77b4;stroke-width:1.5;"/>
    <path clip-path="url(#pc07492ed16)" d="M 283.329413 284.754322 
L 283.329413 274.109842 
" style="fill:none;stroke:#1f77b4;stroke-width:1.5;"/>
    <path clip-path="url(#pc07492ed16)" d="M 332.384358 284.635126 
L 332.384358 273.990646 
" style="fill:none;stroke:#1f77b4;stroke-width:1.5;"/>
    <path clip-path="url(#pc07492ed16)" d="M 381.439303 284.566792 
L 381.439303 273.922312 
" style="fill:none;stroke:#1f77b4;stroke-width:1.5;"/>
   </g>
   <g id="LineCollection_12">
    <path clip-path="url(#pc07492ed16)" d="M 38.054688 302.87049 
L 38.054688 292.22601 
" style="fill:none;stroke:#ff7f0e;stroke-width:1.5;"/>
    <path clip-path="url(#pc07492ed16)" d="M 87.109633 301.12811 
L 87.109633 290.48363 
" style="fill:none;stroke:#ff7f0e;stroke-width:1.5;"/>
    <path clip-path="url(#pc07492ed16)" d="M 136.164578 298.862455 
L 136.164578 288.217975 
" style="fill:none;stroke:#ff7f0e;stroke-width:1.5;"/>
    <path clip-path="url(#pc07492ed16)" d="M 185.219523 295.137749 
L 185.219523 284.493269 
" style="fill:none;stroke:#ff7f0e;stroke-width:1.5;"/>
    <path clip-path="url(#pc07492ed16)" d="M 234.274468 291.386214 
L 234.274468 280.741734 
" style="fill:none;stroke:#ff7f0e;stroke-width:1.5;"/>
    <path clip-path="url(#pc07492ed16)" d="M 283.329413 289.538061 
L 283.329413 278.893581 
" style="fill:none;stroke:#ff7f0e;stroke-width:1.5;"/>
    <path clip-path="url(#pc07492ed16)" d="M 332.384358 289.34273 
L 332.384358 278.69825 
" style="fill:none;stroke:#ff7f0e;stroke-width:1.5;"/>
    <path clip-path="url(#pc07492ed16)" d="M 381.439303 289.31964 
L 381.439303 278.67516 
" style="fill:none;stroke:#ff7f0e;stroke-width:1.5;"/>
   </g>
   <g id="LineCollection_13">
    <path clip-path="url(#pc07492ed16)" d="M 38.054688 302.87049 
L 38.054688 292.22601 
" style="fill:none;stroke:#2ca02c;stroke-width:1.5;"/>
    <path clip-path="url(#pc07492ed16)" d="M 87.109633 302.082615 
L 87.109633 291.438135 
" style="fill:none;stroke:#2ca02c;stroke-width:1.5;"/>
    <path clip-path="url(#pc07492ed16)" d="M 136.164578 299.13206 
L 136.164578 288.48758 
" style="fill:none;stroke:#2ca02c;stroke-width:1.5;"/>
    <path clip-path="url(#pc07492ed16)" d="M 185.219523 296.794332 
L 185.219523 286.149852 
" style="fill:none;stroke:#2ca02c;stroke-width:1.5;"/>
    <path clip-path="url(#pc07492ed16)" d="M 234.274468 293.389151 
L 234.274468 282.744671 
" style="fill:none;stroke:#2ca02c;stroke-width:1.5;"/>
    <path clip-path="url(#pc07492ed16)" d="M 283.329413 292.742937 
L 283.329413 282.098457 
" style="fill:none;stroke:#2ca02c;stroke-width:1.5;"/>
    <path clip-path="url(#pc07492ed16)" d="M 332.384358 292.009979 
L 332.384358 281.365499 
" style="fill:none;stroke:#2ca02c;stroke-width:1.5;"/>
    <path clip-path="url(#pc07492ed16)" d="M 381.439303 291.676731 
L 381.439303 281.032251 
" style="fill:none;stroke:#2ca02c;stroke-width:1.5;"/>
   </g>
   <g id="LineCollection_14">
    <path clip-path="url(#pc07492ed16)" d="M 38.054688 302.87049 
L 38.054688 292.22601 
" style="fill:none;stroke:#d62728;stroke-width:1.5;"/>
    <path clip-path="url(#pc07492ed16)" d="M 87.109633 301.53001 
L 87.109633 290.88553 
" style="fill:none;stroke:#d62728;stroke-width:1.5;"/>
    <path clip-path="url(#pc07492ed16)" d="M 136.164578 299.456259 
L 136.164578 288.811779 
" style="fill:none;stroke:#d62728;stroke-width:1.5;"/>
    <path clip-path="url(#pc07492ed16)" d="M 185.219523 297.243031 
L 185.219523 286.598551 
" style="fill:none;stroke:#d62728;stroke-width:1.5;"/>
    <path clip-path="url(#pc07492ed16)" d="M 234.274468 295.2891 
L 234.274468 284.64462 
" style="fill:none;stroke:#d62728;stroke-width:1.5;"/>
    <path clip-path="url(#pc07492ed16)" d="M 283.329413 293.68557 
L 283.329413 283.04109 
" style="fill:none;stroke:#d62728;stroke-width:1.5;"/>
    <path clip-path="url(#pc07492ed16)" d="M 332.384358 293.365425 
L 332.384358 282.720945 
" style="fill:none;stroke:#d62728;stroke-width:1.5;"/>
    <path clip-path="url(#pc07492ed16)" d="M 381.439303 293.367297 
L 381.439303 282.722817 
" style="fill:none;stroke:#d62728;stroke-width:1.5;"/>
   </g>
   <g id="LineCollection_15">
    <path clip-path="url(#pc07492ed16)" d="M 38.054688 302.87049 
L 38.054688 292.22601 
" style="fill:none;stroke:#9467bd;stroke-width:1.5;"/>
    <path clip-path="url(#pc07492ed16)" d="M 87.109633 301.53625 
L 87.109633 290.89177 
" style="fill:none;stroke:#9467bd;stroke-width:1.5;"/>
    <path clip-path="url(#pc07492ed16)" d="M 136.164578 299.764857 
L 136.164578 289.120377 
" style="fill:none;stroke:#9467bd;stroke-width:1.5;"/>
    <path clip-path="url(#pc07492ed16)" d="M 185.219523 297.158772 
L 185.219523 286.514292 
" style="fill:none;stroke:#9467bd;stroke-width:1.5;"/>
    <path clip-path="url(#pc07492ed16)" d="M 234.274468 295.216386 
L 234.274468 284.571906 
" style="fill:none;stroke:#9467bd;stroke-width:1.5;"/>
    <path clip-path="url(#pc07492ed16)" d="M 283.329413 293.676821 
L 283.329413 283.032341 
" style="fill:none;stroke:#9467bd;stroke-width:1.5;"/>
    <path clip-path="url(#pc07492ed16)" d="M 332.384358 293.353869 
L 332.384358 282.709389 
" style="fill:none;stroke:#9467bd;stroke-width:1.5;"/>
    <path clip-path="url(#pc07492ed16)" d="M 381.439303 293.327034 
L 381.439303 282.682554 
" style="fill:none;stroke:#9467bd;stroke-width:1.5;"/>
   </g>
   <g id="LineCollection_16">
    <path clip-path="url(#pc07492ed16)" d="M 38.054688 302.87049 
L 38.054688 292.22601 
" style="fill:none;stroke:#8c564b;stroke-width:1.5;"/>
    <path clip-path="url(#pc07492ed16)" d="M 87.109633 302.666422 
L 87.109633 292.021942 
" style="fill:none;stroke:#8c564b;stroke-width:1.5;"/>
    <path clip-path="url(#pc07492ed16)" d="M 136.164578 300.745555 
L 136.164578 290.101075 
" style="fill:none;stroke:#8c564b;stroke-width:1.5;"/>
    <path clip-path="url(#pc07492ed16)" d="M 185.219523 298.803481 
L 185.219523 288.159001 
" style="fill:none;stroke:#8c564b;stroke-width:1.5;"/>
    <path clip-path="url(#pc07492ed16)" d="M 234.274468 296.864204 
L 234.274468 286.219724 
" style="fill:none;stroke:#8c564b;stroke-width:1.5;"/>
    <path clip-path="url(#pc07492ed16)" d="M 283.329413 295.184235 
L 283.329413 284.539755 
" style="fill:none;stroke:#8c564b;stroke-width:1.5;"/>
    <path clip-path="url(#pc07492ed16)" d="M 332.384358 294.997953 
L 332.384358 284.353473 
" style="fill:none;stroke:#8c564b;stroke-width:1.5;"/>
    <path clip-path="url(#pc07492ed16)" d="M 381.439303 294.960198 
L 381.439303 284.315718 
" style="fill:none;stroke:#8c564b;stroke-width:1.5;"/>
   </g>
   <g id="LineCollection_17">
    <path clip-path="url(#pc07492ed16)" d="M 38.054688 302.87049 
L 38.054688 292.22601 
" style="fill:none;stroke:#e377c2;stroke-width:1.5;"/>
    <path clip-path="url(#pc07492ed16)" d="M 87.109633 302.59559 
L 87.109633 291.95111 
" style="fill:none;stroke:#e377c2;stroke-width:1.5;"/>
    <path clip-path="url(#pc07492ed16)" d="M 136.164578 300.672237 
L 136.164578 290.027757 
" style="fill:none;stroke:#e377c2;stroke-width:1.5;"/>
    <path clip-path="url(#pc07492ed16)" d="M 185.219523 298.697701 
L 185.219523 288.053221 
" style="fill:none;stroke:#e377c2;stroke-width:1.5;"/>
    <path clip-path="url(#pc07492ed16)" d="M 234.274468 296.803992 
L 234.274468 286.159512 
" style="fill:none;stroke:#e377c2;stroke-width:1.5;"/>
    <path clip-path="url(#pc07492ed16)" d="M 283.329413 295.556808 
L 283.329413 284.912328 
" style="fill:none;stroke:#e377c2;stroke-width:1.5;"/>
    <path clip-path="url(#pc07492ed16)" d="M 332.384358 295.037279 
L 332.384358 284.392799 
" style="fill:none;stroke:#e377c2;stroke-width:1.5;"/>
    <path clip-path="url(#pc07492ed16)" d="M 381.439303 295.209519 
L 381.439303 284.565039 
" style="fill:none;stroke:#e377c2;stroke-width:1.5;"/>
   </g>
   <g id="LineCollection_18">
    <path clip-path="url(#pc07492ed16)" d="M 38.054688 302.87049 
L 38.054688 292.22601 
" style="fill:none;stroke:#7f7f7f;stroke-width:1.5;"/>
    <path clip-path="url(#pc07492ed16)" d="M 87.109633 301.65763 
L 87.109633 291.01315 
" style="fill:none;stroke:#7f7f7f;stroke-width:1.5;"/>
    <path clip-path="url(#pc07492ed16)" d="M 136.164578 300.459742 
L 136.164578 289.815262 
" style="fill:none;stroke:#7f7f7f;stroke-width:1.5;"/>
    <path clip-path="url(#pc07492ed16)" d="M 185.219523 297.879873 
L 185.219523 287.235393 
" style="fill:none;stroke:#7f7f7f;stroke-width:1.5;"/>
    <path clip-path="url(#pc07492ed16)" d="M 234.274468 296.272295 
L 234.274468 285.627815 
" style="fill:none;stroke:#7f7f7f;stroke-width:1.5;"/>
    <path clip-path="url(#pc07492ed16)" d="M 283.329413 295.529664 
L 283.329413 284.885184 
" style="fill:none;stroke:#7f7f7f;stroke-width:1.5;"/>
    <path clip-path="url(#pc07492ed16)" d="M 332.384358 295.253517 
L 332.384358 284.609037 
" style="fill:none;stroke:#7f7f7f;stroke-width:1.5;"/>
    <path clip-path="url(#pc07492ed16)" d="M 381.439303 295.341198 
L 381.439303 284.696718 
" style="fill:none;stroke:#7f7f7f;stroke-width:1.5;"/>
   </g>
   <g id="LineCollection_19">
    <path clip-path="url(#pc07492ed16)" d="M 38.054688 302.87049 
L 38.054688 292.22601 
" style="fill:none;stroke:#bcbd22;stroke-width:1.5;"/>
    <path clip-path="url(#pc07492ed16)" d="M 87.109633 302.709794 
L 87.109633 292.065314 
" style="fill:none;stroke:#bcbd22;stroke-width:1.5;"/>
    <path clip-path="url(#pc07492ed16)" d="M 136.164578 300.903754 
L 136.164578 290.259274 
" style="fill:none;stroke:#bcbd22;stroke-width:1.5;"/>
    <path clip-path="url(#pc07492ed16)" d="M 185.219523 298.93547 
L 185.219523 288.29099 
" style="fill:none;stroke:#bcbd22;stroke-width:1.5;"/>
    <path clip-path="url(#pc07492ed16)" d="M 234.274468 296.94784 
L 234.274468 286.30336 
" style="fill:none;stroke:#bcbd22;stroke-width:1.5;"/>
    <path clip-path="url(#pc07492ed16)" d="M 283.329413 295.23854 
L 283.329413 284.59406 
" style="fill:none;stroke:#bcbd22;stroke-width:1.5;"/>
    <path clip-path="url(#pc07492ed16)" d="M 332.384358 295.165837 
L 332.384358 284.521357 
" style="fill:none;stroke:#bcbd22;stroke-width:1.5;"/>
    <path clip-path="url(#pc07492ed16)" d="M 381.439303 295.13089 
L 381.439303 284.48641 
" style="fill:none;stroke:#bcbd22;stroke-width:1.5;"/>
   </g>
   <g id="LineCollection_20">
    <path clip-path="url(#pc07492ed16)" d="M 38.054688 302.87049 
L 38.054688 292.22601 
" style="fill:none;stroke:#17becf;stroke-width:1.5;"/>
    <path clip-path="url(#pc07492ed16)" d="M 87.109633 301.938763 
L 87.109633 291.294283 
" style="fill:none;stroke:#17becf;stroke-width:1.5;"/>
    <path clip-path="url(#pc07492ed16)" d="M 136.164578 300.61856 
L 136.164578 289.97408 
" style="fill:none;stroke:#17becf;stroke-width:1.5;"/>
    <path clip-path="url(#pc07492ed16)" d="M 185.219523 298.589741 
L 185.219523 287.945261 
" style="fill:none;stroke:#17becf;stroke-width:1.5;"/>
    <path clip-path="url(#pc07492ed16)" d="M 234.274468 296.467938 
L 234.274468 285.823458 
" style="fill:none;stroke:#17becf;stroke-width:1.5;"/>
    <path clip-path="url(#pc07492ed16)" d="M 283.329413 295.284097 
L 283.329413 284.639617 
" style="fill:none;stroke:#17becf;stroke-width:1.5;"/>
    <path clip-path="url(#pc07492ed16)" d="M 332.384358 295.260695 
L 332.384358 284.616215 
" style="fill:none;stroke:#17becf;stroke-width:1.5;"/>
    <path clip-path="url(#pc07492ed16)" d="M 381.439303 295.25851 
L 381.439303 284.61403 
" style="fill:none;stroke:#17becf;stroke-width:1.5;"/>
   </g>
   <g id="LineCollection_21">
    <path clip-path="url(#pc07492ed16)" d="M 38.054688 302.87049 
L 38.054688 292.22601 
" style="fill:none;stroke:#1f77b4;stroke-width:1.5;"/>
    <path clip-path="url(#pc07492ed16)" d="M 87.109633 301.905688 
L 87.109633 291.261208 
" style="fill:none;stroke:#1f77b4;stroke-width:1.5;"/>
    <path clip-path="url(#pc07492ed16)" d="M 136.164578 300.036005 
L 136.164578 289.391525 
" style="fill:none;stroke:#1f77b4;stroke-width:1.5;"/>
    <path clip-path="url(#pc07492ed16)" d="M 185.219523 298.061167 
L 185.219523 287.416687 
" style="fill:none;stroke:#1f77b4;stroke-width:1.5;"/>
    <path clip-path="url(#pc07492ed16)" d="M 234.274468 296.164338 
L 234.274468 285.519858 
" style="fill:none;stroke:#1f77b4;stroke-width:1.5;"/>
    <path clip-path="url(#pc07492ed16)" d="M 283.329413 295.983673 
L 283.329413 285.339193 
" style="fill:none;stroke:#1f77b4;stroke-width:1.5;"/>
    <path clip-path="url(#pc07492ed16)" d="M 332.384358 295.800199 
L 332.384358 285.155719 
" style="fill:none;stroke:#1f77b4;stroke-width:1.5;"/>
    <path clip-path="url(#pc07492ed16)" d="M 381.439303 296.014876 
L 381.439303 285.370396 
" style="fill:none;stroke:#1f77b4;stroke-width:1.5;"/>
   </g>
   <g id="line2d_21">
    <path clip-path="url(#pc07492ed16)" d="M 38.054688 297.54825 
L 87.109633 270.25029 
L 136.164578 198.386306 
L 185.219523 108.736908 
L 234.274468 35.354897 
L 283.329413 34.09974 
L 332.384358 34.106325 
L 381.439303 34.175736 
" style="fill:none;stroke:#1f77b4;stroke-linecap:square;stroke-width:1.5;"/>
   </g>
   <g id="line2d_22">
    <path clip-path="url(#pc07492ed16)" d="M 38.054688 297.54825 
L 87.109633 270.867485 
L 136.164578 201.267277 
L 185.219523 114.236138 
L 234.274468 42.465133 
L 283.329413 34.013168 
L 332.384358 34.233461 
L 381.439303 34.186657 
" style="fill:none;stroke:#ff7f0e;stroke-linecap:square;stroke-width:1.5;"/>
   </g>
   <g id="line2d_23">
    <path clip-path="url(#pc07492ed16)" d="M 38.054688 297.54825 
L 87.109633 273.18743 
L 136.164578 209.904276 
L 185.219523 130.562802 
L 234.274468 62.023185 
L 283.329413 35.272606 
L 332.384358 35.074071 
L 381.439303 35.195138 
" style="fill:none;stroke:#2ca02c;stroke-linecap:square;stroke-width:1.5;"/>
   </g>
   <g id="line2d_24">
    <path clip-path="url(#pc07492ed16)" d="M 38.054688 297.54825 
L 87.109633 276.434415 
L 136.164578 222.054733 
L 185.219523 154.179091 
L 234.274468 95.760209 
L 283.329413 63.405474 
L 332.384358 56.661261 
L 381.439303 55.658396 
" style="fill:none;stroke:#d62728;stroke-linecap:square;stroke-width:1.5;"/>
   </g>
   <g id="line2d_25">
    <path clip-path="url(#pc07492ed16)" d="M 38.054688 297.54825 
L 87.109633 280.806895 
L 136.164578 237.202236 
L 185.219523 182.239366 
L 234.274468 135.601776 
L 283.329413 109.414518 
L 332.384358 102.818947 
L 381.439303 101.980211 
" style="fill:none;stroke:#9467bd;stroke-linecap:square;stroke-width:1.5;"/>
   </g>
   <g id="line2d_26">
    <path clip-path="url(#pc07492ed16)" d="M 38.054688 297.54825 
L 87.109633 284.930834 
L 136.164578 251.99948 
L 185.219523 210.933187 
L 234.274468 174.713661 
L 283.329413 155.404918 
L 332.384358 151.176601 
L 381.439303 149.872004 
" style="fill:none;stroke:#8c564b;stroke-linecap:square;stroke-width:1.5;"/>
   </g>
   <g id="line2d_27">
    <path clip-path="url(#pc07492ed16)" d="M 38.054688 297.54825 
L 87.109633 288.340455 
L 136.164578 265.217771 
L 185.219523 236.17399 
L 234.274468 210.834031 
L 283.329413 196.497182 
L 332.384358 193.199333 
L 381.439303 191.973364 
" style="fill:none;stroke:#e377c2;stroke-linecap:square;stroke-width:1.5;"/>
   </g>
   <g id="line2d_28">
    <path clip-path="url(#pc07492ed16)" d="M 38.054688 297.54825 
L 87.109633 291.312636 
L 136.164578 275.570404 
L 185.219523 256.654892 
L 234.274468 239.630769 
L 283.329413 230.071723 
L 332.384358 228.095325 
L 381.439303 227.865359 
" style="fill:none;stroke:#7f7f7f;stroke-linecap:square;stroke-width:1.5;"/>
   </g>
   <g id="line2d_29">
    <path clip-path="url(#pc07492ed16)" d="M 38.054688 297.54825 
L 87.109633 292.922091 
L 136.164578 282.960842 
L 185.219523 270.869361 
L 234.274468 260.158613 
L 283.329413 253.659956 
L 332.384358 252.56317 
L 381.439303 251.928501 
" style="fill:none;stroke:#bcbd22;stroke-linecap:square;stroke-width:1.5;"/>
   </g>
   <g id="line2d_30">
    <path clip-path="url(#pc07492ed16)" d="M 38.054688 297.54825 
L 87.109633 294.422738 
L 136.164578 288.136487 
L 185.219523 280.313575 
L 234.274468 274.376889 
L 283.329413 270.600698 
L 332.384358 269.181898 
L 381.439303 268.82868 
" style="fill:none;stroke:#17becf;stroke-linecap:square;stroke-width:1.5;"/>
   </g>
   <g id="line2d_31">
    <path clip-path="url(#pc07492ed16)" d="M 38.054688 297.54825 
L 87.109633 296.294823 
L 136.164578 291.820933 
L 185.219523 287.035955 
L 234.274468 282.102441 
L 283.329413 279.432082 
L 332.384358 279.312886 
L 381.439303 279.244552 
" style="fill:none;stroke:#1f77b4;stroke-linecap:square;stroke-width:1.5;"/>
   </g>
   <g id="line2d_32">
    <path clip-path="url(#pc07492ed16)" d="M 38.054688 297.54825 
L 87.109633 295.80587 
L 136.164578 293.540215 
L 185.219523 289.815509 
L 234.274468 286.063974 
L 283.329413 284.215821 
L 332.384358 284.02049 
L 381.439303 283.9974 
" style="fill:none;stroke:#ff7f0e;stroke-linecap:square;stroke-width:1.5;"/>
   </g>
   <g id="line2d_33">
    <path clip-path="url(#pc07492ed16)" d="M 38.054688 297.54825 
L 87.109633 296.760375 
L 136.164578 293.80982 
L 185.219523 291.472092 
L 234.274468 288.066911 
L 283.329413 287.420697 
L 332.384358 286.687739 
L 381.439303 286.354491 
" style="fill:none;stroke:#2ca02c;stroke-linecap:square;stroke-width:1.5;"/>
   </g>
   <g id="line2d_34">
    <path clip-path="url(#pc07492ed16)" d="M 38.054688 297.54825 
L 87.109633 296.20777 
L 136.164578 294.134019 
L 185.219523 291.920791 
L 234.274468 289.96686 
L 283.329413 288.36333 
L 332.384358 288.043185 
L 381.439303 288.045057 
" style="fill:none;stroke:#d62728;stroke-linecap:square;stroke-width:1.5;"/>
   </g>
   <g id="line2d_35">
    <path clip-path="url(#pc07492ed16)" d="M 38.054688 297.54825 
L 87.109633 296.21401 
L 136.164578 294.442617 
L 185.219523 291.836532 
L 234.274468 289.894146 
L 283.329413 288.354581 
L 332.384358 288.031629 
L 381.439303 288.004794 
" style="fill:none;stroke:#9467bd;stroke-linecap:square;stroke-width:1.5;"/>
   </g>
   <g id="line2d_36">
    <path clip-path="url(#pc07492ed16)" d="M 38.054688 297.54825 
L 87.109633 297.344182 
L 136.164578 295.423315 
L 185.219523 293.481241 
L 234.274468 291.541964 
L 283.329413 289.861995 
L 332.384358 289.675713 
L 381.439303 289.637958 
" style="fill:none;stroke:#8c564b;stroke-linecap:square;stroke-width:1.5;"/>
   </g>
   <g id="line2d_37">
    <path clip-path="url(#pc07492ed16)" d="M 38.054688 297.54825 
L 87.109633 297.27335 
L 136.164578 295.349997 
L 185.219523 293.375461 
L 234.274468 291.481752 
L 283.329413 290.234568 
L 332.384358 289.715039 
L 381.439303 289.887279 
" style="fill:none;stroke:#e377c2;stroke-linecap:square;stroke-width:1.5;"/>
   </g>
   <g id="line2d_38">
    <path clip-path="url(#pc07492ed16)" d="M 38.054688 297.54825 
L 87.109633 296.33539 
L 136.164578 295.137502 
L 185.219523 292.557633 
L 234.274468 290.950055 
L 283.329413 290.207424 
L 332.384358 289.931277 
L 381.439303 290.018958 
" style="fill:none;stroke:#7f7f7f;stroke-linecap:square;stroke-width:1.5;"/>
   </g>
   <g id="line2d_39">
    <path clip-path="url(#pc07492ed16)" d="M 38.054688 297.54825 
L 87.109633 297.387554 
L 136.164578 295.581514 
L 185.219523 293.61323 
L 234.274468 291.6256 
L 283.329413 289.9163 
L 332.384358 289.843597 
L 381.439303 289.80865 
" style="fill:none;stroke:#bcbd22;stroke-linecap:square;stroke-width:1.5;"/>
   </g>
   <g id="line2d_40">
    <path clip-path="url(#pc07492ed16)" d="M 38.054688 297.54825 
L 87.109633 296.616523 
L 136.164578 295.29632 
L 185.219523 293.267501 
L 234.274468 291.145698 
L 283.329413 289.961857 
L 332.384358 289.938455 
L 381.439303 289.93627 
" style="fill:none;stroke:#17becf;stroke-linecap:square;stroke-width:1.5;"/>
   </g>
   <g id="line2d_41">
    <path clip-path="url(#pc07492ed16)" d="M 38.054688 297.54825 
L 87.109633 296.583448 
L 136.164578 294.713765 
L 185.219523 292.738927 
L 234.274468 290.842098 
L 283.329413 290.661433 
L 332.384358 290.477959 
L 381.439303 290.692636 
" style="fill:none;stroke:#1f77b4;stroke-linecap:square;stroke-width:1.5;"/>
   </g>
   <g id="patch_3">
    <path d="M 38.054688 297.54825 
L 38.054688 31.43625 
" style="fill:none;stroke:#000000;stroke-linecap:square;stroke-linejoin:miter;stroke-width:0.8;"/>
   </g>
   <g id="patch_4">
    <path d="M 395.174688 297.54825 
L 395.174688 31.43625 
" style="fill:none;stroke:#000000;stroke-linecap:square;stroke-linejoin:miter;stroke-width:0.8;"/>
   </g>
   <g id="patch_5">
    <path d="M 38.054688 297.54825 
L 395.174688 297.54825 
" style="fill:none;stroke:#000000;stroke-linecap:square;stroke-linejoin:miter;stroke-width:0.8;"/>
   </g>
   <g id="patch_6">
    <path d="M 38.054688 31.43625 
L 395.174688 31.43625 
" style="fill:none;stroke:#000000;stroke-linecap:square;stroke-linejoin:miter;stroke-width:0.8;"/>
   </g>
   <g id="text_12">
    <!-- Single Pass Power (normalized) -->
    <defs>
     <path d="M 53.515625 70.515625 
L 53.515625 60.890625 
Q 47.90625 63.578125 42.921875 64.890625 
Q 37.9375 66.21875 33.296875 66.21875 
Q 25.25 66.21875 20.875 63.09375 
Q 16.5 59.96875 16.5 54.203125 
Q 16.5 49.359375 19.40625 46.890625 
Q 22.3125 44.4375 30.421875 42.921875 
L 36.375 41.703125 
Q 47.40625 39.59375 52.65625 34.296875 
Q 57.90625 29 57.90625 20.125 
Q 57.90625 9.515625 50.796875 4.046875 
Q 43.703125 -1.421875 29.984375 -1.421875 
Q 24.8125 -1.421875 18.96875 -0.25 
Q 13.140625 0.921875 6.890625 3.21875 
L 6.890625 13.375 
Q 12.890625 10.015625 18.65625 8.296875 
Q 24.421875 6.59375 29.984375 6.59375 
Q 38.421875 6.59375 43.015625 9.90625 
Q 47.609375 13.234375 47.609375 19.390625 
Q 47.609375 24.75 44.3125 27.78125 
Q 41.015625 30.8125 33.5 32.328125 
L 27.484375 33.5 
Q 16.453125 35.6875 11.515625 40.375 
Q 6.59375 45.0625 6.59375 53.421875 
Q 6.59375 63.09375 13.40625 68.65625 
Q 20.21875 74.21875 32.171875 74.21875 
Q 37.3125 74.21875 42.625 73.28125 
Q 47.953125 72.359375 53.515625 70.515625 
z
" id="DejaVuSans-83"/>
     <path d="M 9.421875 54.6875 
L 18.40625 54.6875 
L 18.40625 0 
L 9.421875 0 
z
M 9.421875 75.984375 
L 18.40625 75.984375 
L 18.40625 64.59375 
L 9.421875 64.59375 
z
" id="DejaVuSans-105"/>
     <path d="M 54.890625 33.015625 
L 54.890625 0 
L 45.90625 0 
L 45.90625 32.71875 
Q 45.90625 40.484375 42.875 44.328125 
Q 39.84375 48.1875 33.796875 48.1875 
Q 26.515625 48.1875 22.3125 43.546875 
Q 18.109375 38.921875 18.109375 30.90625 
L 18.109375 0 
L 9.078125 0 
L 9.078125 54.6875 
L 18.109375 54.6875 
L 18.109375 46.1875 
Q 21.34375 51.125 25.703125 53.5625 
Q 30.078125 56 35.796875 56 
Q 45.21875 56 50.046875 50.171875 
Q 54.890625 44.34375 54.890625 33.015625 
z
" id="DejaVuSans-110"/>
     <path d="M 45.40625 27.984375 
Q 45.40625 37.75 41.375 43.109375 
Q 37.359375 48.484375 30.078125 48.484375 
Q 22.859375 48.484375 18.828125 43.109375 
Q 14.796875 37.75 14.796875 27.984375 
Q 14.796875 18.265625 18.828125 12.890625 
Q 22.859375 7.515625 30.078125 7.515625 
Q 37.359375 7.515625 41.375 12.890625 
Q 45.40625 18.265625 45.40625 27.984375 
z
M 54.390625 6.78125 
Q 54.390625 -7.171875 48.1875 -13.984375 
Q 42 -20.796875 29.203125 -20.796875 
Q 24.46875 -20.796875 20.265625 -20.09375 
Q 16.0625 -19.390625 12.109375 -17.921875 
L 12.109375 -9.1875 
Q 16.0625 -11.328125 19.921875 -12.34375 
Q 23.78125 -13.375 27.78125 -13.375 
Q 36.625 -13.375 41.015625 -8.765625 
Q 45.40625 -4.15625 45.40625 5.171875 
L 45.40625 9.625 
Q 42.625 4.78125 38.28125 2.390625 
Q 33.9375 0 27.875 0 
Q 17.828125 0 11.671875 7.65625 
Q 5.515625 15.328125 5.515625 27.984375 
Q 5.515625 40.671875 11.671875 48.328125 
Q 17.828125 56 27.875 56 
Q 33.9375 56 38.28125 53.609375 
Q 42.625 51.21875 45.40625 46.390625 
L 45.40625 54.6875 
L 54.390625 54.6875 
z
" id="DejaVuSans-103"/>
     <path d="M 9.421875 75.984375 
L 18.40625 75.984375 
L 18.40625 0 
L 9.421875 0 
z
" id="DejaVuSans-108"/>
     <path d="M 56.203125 29.59375 
L 56.203125 25.203125 
L 14.890625 25.203125 
Q 15.484375 15.921875 20.484375 11.0625 
Q 25.484375 6.203125 34.421875 6.203125 
Q 39.59375 6.203125 44.453125 7.46875 
Q 49.3125 8.734375 54.109375 11.28125 
L 54.109375 2.78125 
Q 49.265625 0.734375 44.1875 -0.34375 
Q 39.109375 -1.421875 33.890625 -1.421875 
Q 20.796875 -1.421875 13.15625 6.1875 
Q 5.515625 13.8125 5.515625 26.8125 
Q 5.515625 40.234375 12.765625 48.109375 
Q 20.015625 56 32.328125 56 
Q 43.359375 56 49.78125 48.890625 
Q 56.203125 41.796875 56.203125 29.59375 
z
M 47.21875 32.234375 
Q 47.125 39.59375 43.09375 43.984375 
Q 39.0625 48.390625 32.421875 48.390625 
Q 24.90625 48.390625 20.390625 44.140625 
Q 15.875 39.890625 15.1875 32.171875 
z
" id="DejaVuSans-101"/>
     <path id="DejaVuSans-32"/>
     <path d="M 34.28125 27.484375 
Q 23.390625 27.484375 19.1875 25 
Q 14.984375 22.515625 14.984375 16.5 
Q 14.984375 11.71875 18.140625 8.90625 
Q 21.296875 6.109375 26.703125 6.109375 
Q 34.1875 6.109375 38.703125 11.40625 
Q 43.21875 16.703125 43.21875 25.484375 
L 43.21875 27.484375 
z
M 52.203125 31.203125 
L 52.203125 0 
L 43.21875 0 
L 43.21875 8.296875 
Q 40.140625 3.328125 35.546875 0.953125 
Q 30.953125 -1.421875 24.3125 -1.421875 
Q 15.921875 -1.421875 10.953125 3.296875 
Q 6 8.015625 6 15.921875 
Q 6 25.140625 12.171875 29.828125 
Q 18.359375 34.515625 30.609375 34.515625 
L 43.21875 34.515625 
L 43.21875 35.40625 
Q 43.21875 41.609375 39.140625 45 
Q 35.0625 48.390625 27.6875 48.390625 
Q 23 48.390625 18.546875 47.265625 
Q 14.109375 46.140625 10.015625 43.890625 
L 10.015625 52.203125 
Q 14.9375 54.109375 19.578125 55.046875 
Q 24.21875 56 28.609375 56 
Q 40.484375 56 46.34375 49.84375 
Q 52.203125 43.703125 52.203125 31.203125 
z
" id="DejaVuSans-97"/>
     <path d="M 44.28125 53.078125 
L 44.28125 44.578125 
Q 40.484375 46.53125 36.375 47.5 
Q 32.28125 48.484375 27.875 48.484375 
Q 21.1875 48.484375 17.84375 46.4375 
Q 14.5 44.390625 14.5 40.28125 
Q 14.5 37.15625 16.890625 35.375 
Q 19.28125 33.59375 26.515625 31.984375 
L 29.59375 31.296875 
Q 39.15625 29.25 43.1875 25.515625 
Q 47.21875 21.78125 47.21875 15.09375 
Q 47.21875 7.46875 41.1875 3.015625 
Q 35.15625 -1.421875 24.609375 -1.421875 
Q 20.21875 -1.421875 15.453125 -0.5625 
Q 10.6875 0.296875 5.421875 2 
L 5.421875 11.28125 
Q 10.40625 8.6875 15.234375 7.390625 
Q 20.0625 6.109375 24.8125 6.109375 
Q 31.15625 6.109375 34.5625 8.28125 
Q 37.984375 10.453125 37.984375 14.40625 
Q 37.984375 18.0625 35.515625 20.015625 
Q 33.0625 21.96875 24.703125 23.78125 
L 21.578125 24.515625 
Q 13.234375 26.265625 9.515625 29.90625 
Q 5.8125 33.546875 5.8125 39.890625 
Q 5.8125 47.609375 11.28125 51.796875 
Q 16.75 56 26.8125 56 
Q 31.78125 56 36.171875 55.265625 
Q 40.578125 54.546875 44.28125 53.078125 
z
" id="DejaVuSans-115"/>
     <path d="M 30.609375 48.390625 
Q 23.390625 48.390625 19.1875 42.75 
Q 14.984375 37.109375 14.984375 27.296875 
Q 14.984375 17.484375 19.15625 11.84375 
Q 23.34375 6.203125 30.609375 6.203125 
Q 37.796875 6.203125 41.984375 11.859375 
Q 46.1875 17.53125 46.1875 27.296875 
Q 46.1875 37.015625 41.984375 42.703125 
Q 37.796875 48.390625 30.609375 48.390625 
z
M 30.609375 56 
Q 42.328125 56 49.015625 48.375 
Q 55.71875 40.765625 55.71875 27.296875 
Q 55.71875 13.875 49.015625 6.21875 
Q 42.328125 -1.421875 30.609375 -1.421875 
Q 18.84375 -1.421875 12.171875 6.21875 
Q 5.515625 13.875 5.515625 27.296875 
Q 5.515625 40.765625 12.171875 48.375 
Q 18.84375 56 30.609375 56 
z
" id="DejaVuSans-111"/>
     <path d="M 4.203125 54.6875 
L 13.1875 54.6875 
L 24.421875 12.015625 
L 35.59375 54.6875 
L 46.1875 54.6875 
L 57.421875 12.015625 
L 68.609375 54.6875 
L 77.59375 54.6875 
L 63.28125 0 
L 52.6875 0 
L 40.921875 44.828125 
L 29.109375 0 
L 18.5 0 
z
" id="DejaVuSans-119"/>
     <path d="M 41.109375 46.296875 
Q 39.59375 47.171875 37.8125 47.578125 
Q 36.03125 48 33.890625 48 
Q 26.265625 48 22.1875 43.046875 
Q 18.109375 38.09375 18.109375 28.8125 
L 18.109375 0 
L 9.078125 0 
L 9.078125 54.6875 
L 18.109375 54.6875 
L 18.109375 46.1875 
Q 20.953125 51.171875 25.484375 53.578125 
Q 30.03125 56 36.53125 56 
Q 37.453125 56 38.578125 55.875 
Q 39.703125 55.765625 41.0625 55.515625 
z
" id="DejaVuSans-114"/>
     <path d="M 31 75.875 
Q 24.46875 64.65625 21.28125 53.65625 
Q 18.109375 42.671875 18.109375 31.390625 
Q 18.109375 20.125 21.3125 9.0625 
Q 24.515625 -2 31 -13.1875 
L 23.1875 -13.1875 
Q 15.875 -1.703125 12.234375 9.375 
Q 8.59375 20.453125 8.59375 31.390625 
Q 8.59375 42.28125 12.203125 53.3125 
Q 15.828125 64.359375 23.1875 75.875 
z
" id="DejaVuSans-40"/>
     <path d="M 52 44.1875 
Q 55.375 50.25 60.0625 53.125 
Q 64.75 56 71.09375 56 
Q 79.640625 56 84.28125 50.015625 
Q 88.921875 44.046875 88.921875 33.015625 
L 88.921875 0 
L 79.890625 0 
L 79.890625 32.71875 
Q 79.890625 40.578125 77.09375 44.375 
Q 74.3125 48.1875 68.609375 48.1875 
Q 61.625 48.1875 57.5625 43.546875 
Q 53.515625 38.921875 53.515625 30.90625 
L 53.515625 0 
L 44.484375 0 
L 44.484375 32.71875 
Q 44.484375 40.625 41.703125 44.40625 
Q 38.921875 48.1875 33.109375 48.1875 
Q 26.21875 48.1875 22.15625 43.53125 
Q 18.109375 38.875 18.109375 30.90625 
L 18.109375 0 
L 9.078125 0 
L 9.078125 54.6875 
L 18.109375 54.6875 
L 18.109375 46.1875 
Q 21.1875 51.21875 25.484375 53.609375 
Q 29.78125 56 35.6875 56 
Q 41.65625 56 45.828125 52.96875 
Q 50 49.953125 52 44.1875 
z
" id="DejaVuSans-109"/>
     <path d="M 5.515625 54.6875 
L 48.1875 54.6875 
L 48.1875 46.484375 
L 14.40625 7.171875 
L 48.1875 7.171875 
L 48.1875 0 
L 4.296875 0 
L 4.296875 8.203125 
L 38.09375 47.515625 
L 5.515625 47.515625 
z
" id="DejaVuSans-122"/>
     <path d="M 45.40625 46.390625 
L 45.40625 75.984375 
L 54.390625 75.984375 
L 54.390625 0 
L 45.40625 0 
L 45.40625 8.203125 
Q 42.578125 3.328125 38.25 0.953125 
Q 33.9375 -1.421875 27.875 -1.421875 
Q 17.96875 -1.421875 11.734375 6.484375 
Q 5.515625 14.40625 5.515625 27.296875 
Q 5.515625 40.1875 11.734375 48.09375 
Q 17.96875 56 27.875 56 
Q 33.9375 56 38.25 53.625 
Q 42.578125 51.265625 45.40625 46.390625 
z
M 14.796875 27.296875 
Q 14.796875 17.390625 18.875 11.75 
Q 22.953125 6.109375 30.078125 6.109375 
Q 37.203125 6.109375 41.296875 11.75 
Q 45.40625 17.390625 45.40625 27.296875 
Q 45.40625 37.203125 41.296875 42.84375 
Q 37.203125 48.484375 30.078125 48.484375 
Q 22.953125 48.484375 18.875 42.84375 
Q 14.796875 37.203125 14.796875 27.296875 
z
" id="DejaVuSans-100"/>
     <path d="M 8.015625 75.875 
L 15.828125 75.875 
Q 23.140625 64.359375 26.78125 53.3125 
Q 30.421875 42.28125 30.421875 31.390625 
Q 30.421875 20.453125 26.78125 9.375 
Q 23.140625 -1.703125 15.828125 -13.1875 
L 8.015625 -13.1875 
Q 14.5 -2 17.703125 9.0625 
Q 20.90625 20.125 20.90625 31.390625 
Q 20.90625 42.671875 17.703125 53.65625 
Q 14.5 64.65625 8.015625 75.875 
z
" id="DejaVuSans-41"/>
    </defs>
    <g transform="translate(29.410938 25.43625)scale(0.24 -0.24)">
     <use xlink:href="#DejaVuSans-83"/>
     <use x="63.476562" xlink:href="#DejaVuSans-105"/>
     <use x="91.259766" xlink:href="#DejaVuSans-110"/>
     <use x="154.638672" xlink:href="#DejaVuSans-103"/>
     <use x="218.115234" xlink:href="#DejaVuSans-108"/>
     <use x="245.898438" xlink:href="#DejaVuSans-101"/>
     <use x="307.421875" xlink:href="#DejaVuSans-32"/>
     <use x="339.208984" xlink:href="#DejaVuSans-80"/>
     <use x="395.011719" xlink:href="#DejaVuSans-97"/>
     <use x="456.291016" xlink:href="#DejaVuSans-115"/>
     <use x="508.390625" xlink:href="#DejaVuSans-115"/>
     <use x="560.490234" xlink:href="#DejaVuSans-32"/>
     <use x="592.277344" xlink:href="#DejaVuSans-80"/>
     <use x="648.955078" xlink:href="#DejaVuSans-111"/>
     <use x="710.136719" xlink:href="#DejaVuSans-119"/>
     <use x="791.923828" xlink:href="#DejaVuSans-101"/>
     <use x="853.447266" xlink:href="#DejaVuSans-114"/>
     <use x="894.560547" xlink:href="#DejaVuSans-32"/>
     <use x="926.347656" xlink:href="#DejaVuSans-40"/>
     <use x="965.361328" xlink:href="#DejaVuSans-110"/>
     <use x="1028.740234" xlink:href="#DejaVuSans-111"/>
     <use x="1089.921875" xlink:href="#DejaVuSans-114"/>
     <use x="1129.285156" xlink:href="#DejaVuSans-109"/>
     <use x="1226.697266" xlink:href="#DejaVuSans-97"/>
     <use x="1287.976562" xlink:href="#DejaVuSans-108"/>
     <use x="1315.759766" xlink:href="#DejaVuSans-105"/>
     <use x="1343.542969" xlink:href="#DejaVuSans-122"/>
     <use x="1396.033203" xlink:href="#DejaVuSans-101"/>
     <use x="1457.556641" xlink:href="#DejaVuSans-100"/>
     <use x="1521.033203" xlink:href="#DejaVuSans-41"/>
    </g>
   </g>
  </g>
 </g>
 <defs>
  <clipPath id="pc07492ed16">
   <rect height="266.112" width="357.12" x="38.054688" y="31.43625"/>
  </clipPath>
 </defs>
</svg>
