M48
;DRILL file {kicad (2015-02-18 BZR 5430)-product} date 2015年02月19日 星期四 19时52分01秒
;FORMAT={-:-/ absolute / inch / decimal}
FMAT,2
INCH,TZ
T1C0.016
T2C0.030
T3C0.047
T4C0.071
T5C0.091
T6C0.120
%
G90
G05
M72
T1
X4.294Y-1.806
X4.3325Y-1.7675
X4.334Y-1.91
X4.395Y-2.11
X4.475Y-2.345
X4.5025Y-1.995
X4.526Y-1.798
X4.528Y-1.906
X4.5425Y-2.0375
X4.544Y-2.216
X4.5525Y-1.9875
X4.58Y-2.335
X4.654Y-2.346
X4.73Y-2.345
X4.7425Y-2.2125
X4.77Y-2.255
X4.818Y-2.342
X4.845Y-1.93
X4.866Y-1.752
X4.866Y-1.824
X4.9Y-2.343
X4.925Y-2.005
X4.952Y-1.706
X4.96Y-1.885
X4.964Y-1.804
X4.978Y-1.994
X4.984Y-2.254
X5.026Y-2.407
X5.034Y-1.994
X5.036Y-1.848
X5.042Y-2.13
X5.054Y-1.744
X5.136Y-1.852
X5.142Y-1.994
X5.144Y-2.584
X5.226Y-2.546
X5.236Y-1.744
X5.312Y-1.856
X5.33Y-2.54
X5.412Y-2.37
X5.414Y-2.586
X5.42Y-1.746
T2
X3.4083Y-2.75
X3.4083Y-2.8606
X3.4083Y-2.9394
X3.487Y-2.75
X3.487Y-2.8606
X3.487Y-2.9394
X3.5657Y-2.75
X3.5657Y-2.8606
X3.5657Y-2.9394
X3.6445Y-2.75
X3.6445Y-2.8606
X3.6445Y-2.9394
X3.7232Y-2.75
X3.7232Y-2.8606
X3.7232Y-2.9394
X3.802Y-2.75
X3.802Y-2.8606
X3.802Y-2.9394
X3.8807Y-2.75
X3.8807Y-2.8606
X3.8807Y-2.9394
X3.9594Y-2.75
X3.9594Y-2.8606
X3.9594Y-2.9394
X4.0382Y-2.75
X4.0382Y-2.8606
X4.0382Y-2.9394
X4.1169Y-2.75
X4.1169Y-2.8606
X4.1169Y-2.9394
X4.1957Y-2.75
X4.1957Y-2.8606
X4.1957Y-2.9394
X4.2744Y-2.75
X4.2744Y-2.8606
X4.2744Y-2.9394
X4.3531Y-2.75
X4.3531Y-2.8606
X4.3531Y-2.9394
X4.4319Y-2.75
X4.4319Y-2.8606
X4.4319Y-2.9394
X4.5106Y-2.75
X4.5106Y-2.8606
X4.5106Y-2.9394
X4.5894Y-2.75
X4.5894Y-2.8606
X4.5894Y-2.9394
X4.6681Y-2.75
X4.6681Y-2.8606
X4.6681Y-2.9394
X4.7469Y-2.75
X4.7469Y-2.8606
X4.7469Y-2.9394
X4.8256Y-2.75
X4.8256Y-2.8606
X4.8256Y-2.9394
X4.9043Y-2.75
X4.9043Y-2.8606
X4.9043Y-2.9394
X4.9831Y-2.75
X4.9831Y-2.8606
X4.9831Y-2.9394
X5.0618Y-2.75
X5.0618Y-2.8606
X5.0618Y-2.9394
X5.1406Y-2.75
X5.1406Y-2.8606
X5.1406Y-2.9394
X5.2193Y-2.75
X5.2193Y-2.8606
X5.2193Y-2.9394
X5.298Y-2.75
X5.298Y-2.8606
X5.298Y-2.9394
X5.3768Y-2.75
X5.3768Y-2.8606
X5.3768Y-2.9394
X5.4555Y-2.75
X5.4555Y-2.8606
X5.4555Y-2.9394
X5.5343Y-2.75
X5.5343Y-2.8606
X5.5343Y-2.9394
X5.613Y-2.75
X5.613Y-2.8606
X5.613Y-2.9394
X5.6917Y-2.75
X5.6917Y-2.8606
X5.6917Y-2.9394
T3
X5.6675Y-1.795
X5.6675Y-1.945
T4
X4.3689Y-1.35
X4.7311Y-1.35
T5
X4.172Y-1.4484
X4.928Y-1.4484
T6
X3.41Y-1.31
X3.41Y-2.21
X5.64Y-2.175
X5.69Y-1.31
T0
M30
