G04 #@! TF.FileFunction,Legend,Top*
%FSLAX46Y46*%
G04 Gerber Fmt 4.6, Leading zero omitted, Abs format (unit mm)*
G04 Created by KiCad (PCBNEW (2015-02-18 BZR 5430)-product) date 2015年02月19日 星期四 19时51分06秒*
%MOMM*%
G01*
G04 APERTURE LIST*
%ADD10C,0.150000*%
G04 APERTURE END LIST*
D10*
X123534249Y-47702223D02*
X124029223Y-47207249D01*
X124877751Y-48055777D02*
X124382777Y-48550751D01*
X127370000Y-39890000D02*
X103870000Y-39890000D01*
X103870000Y-39890000D02*
X103770000Y-39890000D01*
X103770000Y-39890000D02*
X103770000Y-30290000D01*
X103770000Y-30290000D02*
X127370000Y-30290000D01*
X127370000Y-30290000D02*
X127370000Y-39890000D01*
X127825000Y-42250000D02*
X127825000Y-41250000D01*
X129175000Y-41250000D02*
X129175000Y-42250000D01*
X110574200Y-55306600D02*
X111574200Y-55306600D01*
X111574200Y-56656600D02*
X110574200Y-56656600D01*
X110561500Y-57554500D02*
X111561500Y-57554500D01*
X111561500Y-58904500D02*
X110561500Y-58904500D01*
X128552320Y-58882920D02*
X129552320Y-58882920D01*
X129552320Y-60232920D02*
X128552320Y-60232920D01*
X128430400Y-56449600D02*
X129430400Y-56449600D01*
X129430400Y-57799600D02*
X128430400Y-57799600D01*
X131323460Y-55372640D02*
X132323460Y-55372640D01*
X132323460Y-56722640D02*
X131323460Y-56722640D01*
X125915768Y-54914800D02*
G75*
G03X125915768Y-54914800I-287368J0D01*
G01*
X126168411Y-54914800D02*
G75*
G03X126168411Y-54914800I-540011J0D01*
G01*
X126380000Y-60200000D02*
X126380000Y-54100000D01*
X126380000Y-54100000D02*
X112380000Y-54100000D01*
X112380000Y-54100000D02*
X112380000Y-60200000D01*
X112380000Y-60200000D02*
X126380000Y-60200000D01*
X146812000Y-33274000D02*
G75*
G03X146812000Y-33274000I-2286000J0D01*
G01*
X88900000Y-33274000D02*
G75*
G03X88900000Y-33274000I-2286000J0D01*
G01*
X140454500Y-42998000D02*
X140454500Y-51998000D01*
X146954500Y-51998000D02*
X139954500Y-51998000D01*
X139954500Y-51998000D02*
X139954500Y-42998000D01*
X139954500Y-42998000D02*
X146954500Y-42998000D01*
X146954500Y-42998000D02*
X146954500Y-51998000D01*
X88900000Y-56134000D02*
G75*
G03X88900000Y-56134000I-2286000J0D01*
G01*
X145542000Y-55245000D02*
G75*
G03X145542000Y-55245000I-2286000J0D01*
G01*
X88170000Y-75660000D02*
G75*
G03X85570000Y-73060000I-2600000J0D01*
G01*
X87770000Y-75660000D02*
G75*
G03X85570000Y-73460000I-2200000J0D01*
G01*
X86370000Y-75660000D02*
G75*
G03X85570000Y-74860000I-800000J0D01*
G01*
X86170000Y-75660000D02*
G75*
G03X85570000Y-75060000I-600000J0D01*
G01*
X86570000Y-74660000D02*
X86570000Y-76660000D01*
X86570000Y-72660000D02*
X86570000Y-70660000D01*
X85570000Y-71660000D02*
X145570000Y-71660000D01*
X145570000Y-71660000D02*
X145570000Y-75660000D01*
X145570000Y-75660000D02*
X85570000Y-75660000D01*
X85570000Y-75660000D02*
X85570000Y-71660000D01*
X122660467Y-47242604D02*
X122660467Y-47309947D01*
X122593123Y-47444634D01*
X122525780Y-47511978D01*
X122391092Y-47579322D01*
X122256405Y-47579322D01*
X122155390Y-47545650D01*
X121987032Y-47444635D01*
X121886016Y-47343619D01*
X121785001Y-47175260D01*
X121751329Y-47074245D01*
X121751329Y-46939558D01*
X121818673Y-46804871D01*
X121886016Y-46737527D01*
X122020703Y-46670184D01*
X122088047Y-46670184D01*
X123401245Y-46636512D02*
X122997184Y-47040573D01*
X123199214Y-46838543D02*
X122492107Y-46131436D01*
X122525779Y-46299795D01*
X122525779Y-46434482D01*
X122492107Y-46535497D01*
X123300230Y-45323314D02*
X123165542Y-45458001D01*
X123131871Y-45559016D01*
X123131871Y-45626360D01*
X123165542Y-45794719D01*
X123266558Y-45963077D01*
X123535932Y-46232452D01*
X123636947Y-46266123D01*
X123704291Y-46266123D01*
X123805306Y-46232452D01*
X123939993Y-46097764D01*
X123973665Y-45996749D01*
X123973665Y-45929405D01*
X123939993Y-45828390D01*
X123771635Y-45660032D01*
X123670619Y-45626359D01*
X123603275Y-45626359D01*
X123502260Y-45660031D01*
X123367573Y-45794719D01*
X123333901Y-45895734D01*
X123333901Y-45963077D01*
X123367573Y-46064093D01*
X125751534Y-49660235D02*
X125347473Y-50064297D01*
X125549503Y-49862266D02*
X124842396Y-49155160D01*
X124876068Y-49323518D01*
X124876068Y-49458205D01*
X124842396Y-49559220D01*
X125583175Y-48885785D02*
X126054579Y-49357190D01*
X125650518Y-48953129D02*
X125650518Y-48885785D01*
X125684190Y-48784770D01*
X125785206Y-48683754D01*
X125886221Y-48650082D01*
X125987236Y-48683754D01*
X126357626Y-49054144D01*
X114462858Y-68528571D02*
X114462858Y-67028571D01*
X115034286Y-67028571D01*
X115177144Y-67100000D01*
X115248572Y-67171429D01*
X115320001Y-67314286D01*
X115320001Y-67528571D01*
X115248572Y-67671429D01*
X115177144Y-67742857D01*
X115034286Y-67814286D01*
X114462858Y-67814286D01*
X116677144Y-67028571D02*
X115962858Y-67028571D01*
X115891429Y-67742857D01*
X115962858Y-67671429D01*
X116105715Y-67600000D01*
X116462858Y-67600000D01*
X116605715Y-67671429D01*
X116677144Y-67742857D01*
X116748572Y-67885714D01*
X116748572Y-68242857D01*
X116677144Y-68385714D01*
X116605715Y-68457143D01*
X116462858Y-68528571D01*
X116105715Y-68528571D01*
X115962858Y-68457143D01*
X115891429Y-68385714D01*
X114831905Y-38542381D02*
X114831905Y-37542381D01*
X115212858Y-37542381D01*
X115308096Y-37590000D01*
X115355715Y-37637619D01*
X115403334Y-37732857D01*
X115403334Y-37875714D01*
X115355715Y-37970952D01*
X115308096Y-38018571D01*
X115212858Y-38066190D01*
X114831905Y-38066190D01*
X116260477Y-37542381D02*
X116070000Y-37542381D01*
X115974762Y-37590000D01*
X115927143Y-37637619D01*
X115831905Y-37780476D01*
X115784286Y-37970952D01*
X115784286Y-38351905D01*
X115831905Y-38447143D01*
X115879524Y-38494762D01*
X115974762Y-38542381D01*
X116165239Y-38542381D01*
X116260477Y-38494762D01*
X116308096Y-38447143D01*
X116355715Y-38351905D01*
X116355715Y-38113810D01*
X116308096Y-38018571D01*
X116260477Y-37970952D01*
X116165239Y-37923333D01*
X115974762Y-37923333D01*
X115879524Y-37970952D01*
X115831905Y-38018571D01*
X115784286Y-38113810D01*
X108927143Y-32942381D02*
X108355714Y-32942381D01*
X108641428Y-32942381D02*
X108641428Y-31942381D01*
X108546190Y-32085238D01*
X108450952Y-32180476D01*
X108355714Y-32228095D01*
X109308095Y-32037619D02*
X109355714Y-31990000D01*
X109450952Y-31942381D01*
X109689048Y-31942381D01*
X109784286Y-31990000D01*
X109831905Y-32037619D01*
X109879524Y-32132857D01*
X109879524Y-32228095D01*
X109831905Y-32370952D01*
X109260476Y-32942381D01*
X109879524Y-32942381D01*
X110260476Y-32037619D02*
X110308095Y-31990000D01*
X110403333Y-31942381D01*
X110641429Y-31942381D01*
X110736667Y-31990000D01*
X110784286Y-32037619D01*
X110831905Y-32132857D01*
X110831905Y-32228095D01*
X110784286Y-32370952D01*
X110212857Y-32942381D01*
X110831905Y-32942381D01*
X111212857Y-32037619D02*
X111260476Y-31990000D01*
X111355714Y-31942381D01*
X111593810Y-31942381D01*
X111689048Y-31990000D01*
X111736667Y-32037619D01*
X111784286Y-32132857D01*
X111784286Y-32228095D01*
X111736667Y-32370952D01*
X111165238Y-32942381D01*
X111784286Y-32942381D01*
X112641429Y-31942381D02*
X112450952Y-31942381D01*
X112355714Y-31990000D01*
X112308095Y-32037619D01*
X112212857Y-32180476D01*
X112165238Y-32370952D01*
X112165238Y-32751905D01*
X112212857Y-32847143D01*
X112260476Y-32894762D01*
X112355714Y-32942381D01*
X112546191Y-32942381D01*
X112641429Y-32894762D01*
X112689048Y-32847143D01*
X112736667Y-32751905D01*
X112736667Y-32513810D01*
X112689048Y-32418571D01*
X112641429Y-32370952D01*
X112546191Y-32323333D01*
X112355714Y-32323333D01*
X112260476Y-32370952D01*
X112212857Y-32418571D01*
X112165238Y-32513810D01*
X113165238Y-32561429D02*
X113927143Y-32561429D01*
X114546190Y-32370952D02*
X114450952Y-32323333D01*
X114403333Y-32275714D01*
X114355714Y-32180476D01*
X114355714Y-32132857D01*
X114403333Y-32037619D01*
X114450952Y-31990000D01*
X114546190Y-31942381D01*
X114736667Y-31942381D01*
X114831905Y-31990000D01*
X114879524Y-32037619D01*
X114927143Y-32132857D01*
X114927143Y-32180476D01*
X114879524Y-32275714D01*
X114831905Y-32323333D01*
X114736667Y-32370952D01*
X114546190Y-32370952D01*
X114450952Y-32418571D01*
X114403333Y-32466190D01*
X114355714Y-32561429D01*
X114355714Y-32751905D01*
X114403333Y-32847143D01*
X114450952Y-32894762D01*
X114546190Y-32942381D01*
X114736667Y-32942381D01*
X114831905Y-32894762D01*
X114879524Y-32847143D01*
X114927143Y-32751905D01*
X114927143Y-32561429D01*
X114879524Y-32466190D01*
X114831905Y-32418571D01*
X114736667Y-32370952D01*
X115308095Y-32037619D02*
X115355714Y-31990000D01*
X115450952Y-31942381D01*
X115689048Y-31942381D01*
X115784286Y-31990000D01*
X115831905Y-32037619D01*
X115879524Y-32132857D01*
X115879524Y-32228095D01*
X115831905Y-32370952D01*
X115260476Y-32942381D01*
X115879524Y-32942381D01*
X116784286Y-31942381D02*
X116308095Y-31942381D01*
X116260476Y-32418571D01*
X116308095Y-32370952D01*
X116403333Y-32323333D01*
X116641429Y-32323333D01*
X116736667Y-32370952D01*
X116784286Y-32418571D01*
X116831905Y-32513810D01*
X116831905Y-32751905D01*
X116784286Y-32847143D01*
X116736667Y-32894762D01*
X116641429Y-32942381D01*
X116403333Y-32942381D01*
X116308095Y-32894762D01*
X116260476Y-32847143D01*
X117450952Y-31942381D02*
X117546191Y-31942381D01*
X117641429Y-31990000D01*
X117689048Y-32037619D01*
X117736667Y-32132857D01*
X117784286Y-32323333D01*
X117784286Y-32561429D01*
X117736667Y-32751905D01*
X117689048Y-32847143D01*
X117641429Y-32894762D01*
X117546191Y-32942381D01*
X117450952Y-32942381D01*
X117355714Y-32894762D01*
X117308095Y-32847143D01*
X117260476Y-32751905D01*
X117212857Y-32561429D01*
X117212857Y-32323333D01*
X117260476Y-32132857D01*
X117308095Y-32037619D01*
X117355714Y-31990000D01*
X117450952Y-31942381D01*
X118212857Y-32561429D02*
X118974762Y-32561429D01*
X119641428Y-31942381D02*
X119736667Y-31942381D01*
X119831905Y-31990000D01*
X119879524Y-32037619D01*
X119927143Y-32132857D01*
X119974762Y-32323333D01*
X119974762Y-32561429D01*
X119927143Y-32751905D01*
X119879524Y-32847143D01*
X119831905Y-32894762D01*
X119736667Y-32942381D01*
X119641428Y-32942381D01*
X119546190Y-32894762D01*
X119498571Y-32847143D01*
X119450952Y-32751905D01*
X119403333Y-32561429D01*
X119403333Y-32323333D01*
X119450952Y-32132857D01*
X119498571Y-32037619D01*
X119546190Y-31990000D01*
X119641428Y-31942381D01*
X120593809Y-31942381D02*
X120689048Y-31942381D01*
X120784286Y-31990000D01*
X120831905Y-32037619D01*
X120879524Y-32132857D01*
X120927143Y-32323333D01*
X120927143Y-32561429D01*
X120879524Y-32751905D01*
X120831905Y-32847143D01*
X120784286Y-32894762D01*
X120689048Y-32942381D01*
X120593809Y-32942381D01*
X120498571Y-32894762D01*
X120450952Y-32847143D01*
X120403333Y-32751905D01*
X120355714Y-32561429D01*
X120355714Y-32323333D01*
X120403333Y-32132857D01*
X120450952Y-32037619D01*
X120498571Y-31990000D01*
X120593809Y-31942381D01*
X121689048Y-32418571D02*
X121355714Y-32418571D01*
X121355714Y-32942381D02*
X121355714Y-31942381D01*
X121831905Y-31942381D01*
X122784286Y-32942381D02*
X122450952Y-32466190D01*
X122212857Y-32942381D02*
X122212857Y-31942381D01*
X122593810Y-31942381D01*
X122689048Y-31990000D01*
X122736667Y-32037619D01*
X122784286Y-32132857D01*
X122784286Y-32275714D01*
X122736667Y-32370952D01*
X122689048Y-32418571D01*
X122593810Y-32466190D01*
X122212857Y-32466190D01*
X130852381Y-41916666D02*
X130376190Y-42250000D01*
X130852381Y-42488095D02*
X129852381Y-42488095D01*
X129852381Y-42107142D01*
X129900000Y-42011904D01*
X129947619Y-41964285D01*
X130042857Y-41916666D01*
X130185714Y-41916666D01*
X130280952Y-41964285D01*
X130328571Y-42011904D01*
X130376190Y-42107142D01*
X130376190Y-42488095D01*
X130852381Y-40964285D02*
X130852381Y-41535714D01*
X130852381Y-41250000D02*
X129852381Y-41250000D01*
X129995238Y-41345238D01*
X130090476Y-41440476D01*
X130138095Y-41535714D01*
X127052381Y-41440476D02*
X126576190Y-41773810D01*
X127052381Y-42011905D02*
X126052381Y-42011905D01*
X126052381Y-41630952D01*
X126100000Y-41535714D01*
X126147619Y-41488095D01*
X126242857Y-41440476D01*
X126385714Y-41440476D01*
X126480952Y-41488095D01*
X126528571Y-41535714D01*
X126576190Y-41630952D01*
X126576190Y-42011905D01*
X110907534Y-58333981D02*
X110574200Y-57857790D01*
X110336105Y-58333981D02*
X110336105Y-57333981D01*
X110717058Y-57333981D01*
X110812296Y-57381600D01*
X110859915Y-57429219D01*
X110907534Y-57524457D01*
X110907534Y-57667314D01*
X110859915Y-57762552D01*
X110812296Y-57810171D01*
X110717058Y-57857790D01*
X110336105Y-57857790D01*
X111288486Y-57429219D02*
X111336105Y-57381600D01*
X111431343Y-57333981D01*
X111669439Y-57333981D01*
X111764677Y-57381600D01*
X111812296Y-57429219D01*
X111859915Y-57524457D01*
X111859915Y-57619695D01*
X111812296Y-57762552D01*
X111240867Y-58333981D01*
X111859915Y-58333981D01*
X110407534Y-54533981D02*
X109836105Y-54533981D01*
X110121819Y-54533981D02*
X110121819Y-53533981D01*
X110026581Y-53676838D01*
X109931343Y-53772076D01*
X109836105Y-53819695D01*
X111026581Y-53533981D02*
X111121820Y-53533981D01*
X111217058Y-53581600D01*
X111264677Y-53629219D01*
X111312296Y-53724457D01*
X111359915Y-53914933D01*
X111359915Y-54153029D01*
X111312296Y-54343505D01*
X111264677Y-54438743D01*
X111217058Y-54486362D01*
X111121820Y-54533981D01*
X111026581Y-54533981D01*
X110931343Y-54486362D01*
X110883724Y-54438743D01*
X110836105Y-54343505D01*
X110788486Y-54153029D01*
X110788486Y-53914933D01*
X110836105Y-53724457D01*
X110883724Y-53629219D01*
X110931343Y-53581600D01*
X111026581Y-53533981D01*
X111978962Y-53533981D02*
X112074201Y-53533981D01*
X112169439Y-53581600D01*
X112217058Y-53629219D01*
X112264677Y-53724457D01*
X112312296Y-53914933D01*
X112312296Y-54153029D01*
X112264677Y-54343505D01*
X112217058Y-54438743D01*
X112169439Y-54486362D01*
X112074201Y-54533981D01*
X111978962Y-54533981D01*
X111883724Y-54486362D01*
X111836105Y-54438743D01*
X111788486Y-54343505D01*
X111740867Y-54153029D01*
X111740867Y-53914933D01*
X111788486Y-53724457D01*
X111836105Y-53629219D01*
X111883724Y-53581600D01*
X111978962Y-53533981D01*
X110894834Y-60581881D02*
X110561500Y-60105690D01*
X110323405Y-60581881D02*
X110323405Y-59581881D01*
X110704358Y-59581881D01*
X110799596Y-59629500D01*
X110847215Y-59677119D01*
X110894834Y-59772357D01*
X110894834Y-59915214D01*
X110847215Y-60010452D01*
X110799596Y-60058071D01*
X110704358Y-60105690D01*
X110323405Y-60105690D01*
X111228167Y-59581881D02*
X111847215Y-59581881D01*
X111513881Y-59962833D01*
X111656739Y-59962833D01*
X111751977Y-60010452D01*
X111799596Y-60058071D01*
X111847215Y-60153310D01*
X111847215Y-60391405D01*
X111799596Y-60486643D01*
X111751977Y-60534262D01*
X111656739Y-60581881D01*
X111371024Y-60581881D01*
X111275786Y-60534262D01*
X111228167Y-60486643D01*
X110394834Y-56781881D02*
X109823405Y-56781881D01*
X110109119Y-56781881D02*
X110109119Y-55781881D01*
X110013881Y-55924738D01*
X109918643Y-56019976D01*
X109823405Y-56067595D01*
X111013881Y-55781881D02*
X111109120Y-55781881D01*
X111204358Y-55829500D01*
X111251977Y-55877119D01*
X111299596Y-55972357D01*
X111347215Y-56162833D01*
X111347215Y-56400929D01*
X111299596Y-56591405D01*
X111251977Y-56686643D01*
X111204358Y-56734262D01*
X111109120Y-56781881D01*
X111013881Y-56781881D01*
X110918643Y-56734262D01*
X110871024Y-56686643D01*
X110823405Y-56591405D01*
X110775786Y-56400929D01*
X110775786Y-56162833D01*
X110823405Y-55972357D01*
X110871024Y-55877119D01*
X110918643Y-55829500D01*
X111013881Y-55781881D01*
X111966262Y-55781881D02*
X112061501Y-55781881D01*
X112156739Y-55829500D01*
X112204358Y-55877119D01*
X112251977Y-55972357D01*
X112299596Y-56162833D01*
X112299596Y-56400929D01*
X112251977Y-56591405D01*
X112204358Y-56686643D01*
X112156739Y-56734262D01*
X112061501Y-56781881D01*
X111966262Y-56781881D01*
X111871024Y-56734262D01*
X111823405Y-56686643D01*
X111775786Y-56591405D01*
X111728167Y-56400929D01*
X111728167Y-56162833D01*
X111775786Y-55972357D01*
X111823405Y-55877119D01*
X111871024Y-55829500D01*
X111966262Y-55781881D01*
X128885654Y-61910301D02*
X128552320Y-61434110D01*
X128314225Y-61910301D02*
X128314225Y-60910301D01*
X128695178Y-60910301D01*
X128790416Y-60957920D01*
X128838035Y-61005539D01*
X128885654Y-61100777D01*
X128885654Y-61243634D01*
X128838035Y-61338872D01*
X128790416Y-61386491D01*
X128695178Y-61434110D01*
X128314225Y-61434110D01*
X129742797Y-61243634D02*
X129742797Y-61910301D01*
X129504701Y-60862682D02*
X129266606Y-61576968D01*
X129885654Y-61576968D01*
X128385654Y-58110301D02*
X127814225Y-58110301D01*
X128099939Y-58110301D02*
X128099939Y-57110301D01*
X128004701Y-57253158D01*
X127909463Y-57348396D01*
X127814225Y-57396015D01*
X129004701Y-57110301D02*
X129099940Y-57110301D01*
X129195178Y-57157920D01*
X129242797Y-57205539D01*
X129290416Y-57300777D01*
X129338035Y-57491253D01*
X129338035Y-57729349D01*
X129290416Y-57919825D01*
X129242797Y-58015063D01*
X129195178Y-58062682D01*
X129099940Y-58110301D01*
X129004701Y-58110301D01*
X128909463Y-58062682D01*
X128861844Y-58015063D01*
X128814225Y-57919825D01*
X128766606Y-57729349D01*
X128766606Y-57491253D01*
X128814225Y-57300777D01*
X128861844Y-57205539D01*
X128909463Y-57157920D01*
X129004701Y-57110301D01*
X129957082Y-57110301D02*
X130052321Y-57110301D01*
X130147559Y-57157920D01*
X130195178Y-57205539D01*
X130242797Y-57300777D01*
X130290416Y-57491253D01*
X130290416Y-57729349D01*
X130242797Y-57919825D01*
X130195178Y-58015063D01*
X130147559Y-58062682D01*
X130052321Y-58110301D01*
X129957082Y-58110301D01*
X129861844Y-58062682D01*
X129814225Y-58015063D01*
X129766606Y-57919825D01*
X129718987Y-57729349D01*
X129718987Y-57491253D01*
X129766606Y-57300777D01*
X129814225Y-57205539D01*
X129861844Y-57157920D01*
X129957082Y-57110301D01*
X128763734Y-59476981D02*
X128430400Y-59000790D01*
X128192305Y-59476981D02*
X128192305Y-58476981D01*
X128573258Y-58476981D01*
X128668496Y-58524600D01*
X128716115Y-58572219D01*
X128763734Y-58667457D01*
X128763734Y-58810314D01*
X128716115Y-58905552D01*
X128668496Y-58953171D01*
X128573258Y-59000790D01*
X128192305Y-59000790D01*
X129668496Y-58476981D02*
X129192305Y-58476981D01*
X129144686Y-58953171D01*
X129192305Y-58905552D01*
X129287543Y-58857933D01*
X129525639Y-58857933D01*
X129620877Y-58905552D01*
X129668496Y-58953171D01*
X129716115Y-59048410D01*
X129716115Y-59286505D01*
X129668496Y-59381743D01*
X129620877Y-59429362D01*
X129525639Y-59476981D01*
X129287543Y-59476981D01*
X129192305Y-59429362D01*
X129144686Y-59381743D01*
X128263734Y-55676981D02*
X127692305Y-55676981D01*
X127978019Y-55676981D02*
X127978019Y-54676981D01*
X127882781Y-54819838D01*
X127787543Y-54915076D01*
X127692305Y-54962695D01*
X128882781Y-54676981D02*
X128978020Y-54676981D01*
X129073258Y-54724600D01*
X129120877Y-54772219D01*
X129168496Y-54867457D01*
X129216115Y-55057933D01*
X129216115Y-55296029D01*
X129168496Y-55486505D01*
X129120877Y-55581743D01*
X129073258Y-55629362D01*
X128978020Y-55676981D01*
X128882781Y-55676981D01*
X128787543Y-55629362D01*
X128739924Y-55581743D01*
X128692305Y-55486505D01*
X128644686Y-55296029D01*
X128644686Y-55057933D01*
X128692305Y-54867457D01*
X128739924Y-54772219D01*
X128787543Y-54724600D01*
X128882781Y-54676981D01*
X129835162Y-54676981D02*
X129930401Y-54676981D01*
X130025639Y-54724600D01*
X130073258Y-54772219D01*
X130120877Y-54867457D01*
X130168496Y-55057933D01*
X130168496Y-55296029D01*
X130120877Y-55486505D01*
X130073258Y-55581743D01*
X130025639Y-55629362D01*
X129930401Y-55676981D01*
X129835162Y-55676981D01*
X129739924Y-55629362D01*
X129692305Y-55581743D01*
X129644686Y-55486505D01*
X129597067Y-55296029D01*
X129597067Y-55057933D01*
X129644686Y-54867457D01*
X129692305Y-54772219D01*
X129739924Y-54724600D01*
X129835162Y-54676981D01*
X131656794Y-58400021D02*
X131323460Y-57923830D01*
X131085365Y-58400021D02*
X131085365Y-57400021D01*
X131466318Y-57400021D01*
X131561556Y-57447640D01*
X131609175Y-57495259D01*
X131656794Y-57590497D01*
X131656794Y-57733354D01*
X131609175Y-57828592D01*
X131561556Y-57876211D01*
X131466318Y-57923830D01*
X131085365Y-57923830D01*
X132513937Y-57400021D02*
X132323460Y-57400021D01*
X132228222Y-57447640D01*
X132180603Y-57495259D01*
X132085365Y-57638116D01*
X132037746Y-57828592D01*
X132037746Y-58209545D01*
X132085365Y-58304783D01*
X132132984Y-58352402D01*
X132228222Y-58400021D01*
X132418699Y-58400021D01*
X132513937Y-58352402D01*
X132561556Y-58304783D01*
X132609175Y-58209545D01*
X132609175Y-57971450D01*
X132561556Y-57876211D01*
X132513937Y-57828592D01*
X132418699Y-57780973D01*
X132228222Y-57780973D01*
X132132984Y-57828592D01*
X132085365Y-57876211D01*
X132037746Y-57971450D01*
X131156794Y-54600021D02*
X130585365Y-54600021D01*
X130871079Y-54600021D02*
X130871079Y-53600021D01*
X130775841Y-53742878D01*
X130680603Y-53838116D01*
X130585365Y-53885735D01*
X131775841Y-53600021D02*
X131871080Y-53600021D01*
X131966318Y-53647640D01*
X132013937Y-53695259D01*
X132061556Y-53790497D01*
X132109175Y-53980973D01*
X132109175Y-54219069D01*
X132061556Y-54409545D01*
X132013937Y-54504783D01*
X131966318Y-54552402D01*
X131871080Y-54600021D01*
X131775841Y-54600021D01*
X131680603Y-54552402D01*
X131632984Y-54504783D01*
X131585365Y-54409545D01*
X131537746Y-54219069D01*
X131537746Y-53980973D01*
X131585365Y-53790497D01*
X131632984Y-53695259D01*
X131680603Y-53647640D01*
X131775841Y-53600021D01*
X132728222Y-53600021D02*
X132823461Y-53600021D01*
X132918699Y-53647640D01*
X132966318Y-53695259D01*
X133013937Y-53790497D01*
X133061556Y-53980973D01*
X133061556Y-54219069D01*
X133013937Y-54409545D01*
X132966318Y-54504783D01*
X132918699Y-54552402D01*
X132823461Y-54600021D01*
X132728222Y-54600021D01*
X132632984Y-54552402D01*
X132585365Y-54504783D01*
X132537746Y-54409545D01*
X132490127Y-54219069D01*
X132490127Y-53980973D01*
X132537746Y-53790497D01*
X132585365Y-53695259D01*
X132632984Y-53647640D01*
X132728222Y-53600021D01*
X118618095Y-55586381D02*
X118618095Y-56395905D01*
X118665714Y-56491143D01*
X118713333Y-56538762D01*
X118808571Y-56586381D01*
X118999048Y-56586381D01*
X119094286Y-56538762D01*
X119141905Y-56491143D01*
X119189524Y-56395905D01*
X119189524Y-55586381D01*
X120189524Y-56586381D02*
X119618095Y-56586381D01*
X119903809Y-56586381D02*
X119903809Y-55586381D01*
X119808571Y-55729238D01*
X119713333Y-55824476D01*
X119618095Y-55872095D01*
X114832381Y-58618381D02*
X114832381Y-57618381D01*
X115070476Y-57618381D01*
X115213334Y-57666000D01*
X115308572Y-57761238D01*
X115356191Y-57856476D01*
X115403810Y-58046952D01*
X115403810Y-58189810D01*
X115356191Y-58380286D01*
X115308572Y-58475524D01*
X115213334Y-58570762D01*
X115070476Y-58618381D01*
X114832381Y-58618381D01*
X115784762Y-58570762D02*
X115927619Y-58618381D01*
X116165715Y-58618381D01*
X116260953Y-58570762D01*
X116308572Y-58523143D01*
X116356191Y-58427905D01*
X116356191Y-58332667D01*
X116308572Y-58237429D01*
X116260953Y-58189810D01*
X116165715Y-58142190D01*
X115975238Y-58094571D01*
X115880000Y-58046952D01*
X115832381Y-57999333D01*
X115784762Y-57904095D01*
X115784762Y-57808857D01*
X115832381Y-57713619D01*
X115880000Y-57666000D01*
X115975238Y-57618381D01*
X116213334Y-57618381D01*
X116356191Y-57666000D01*
X116832381Y-58618381D02*
X117022857Y-58618381D01*
X117118096Y-58570762D01*
X117165715Y-58523143D01*
X117260953Y-58380286D01*
X117308572Y-58189810D01*
X117308572Y-57808857D01*
X117260953Y-57713619D01*
X117213334Y-57666000D01*
X117118096Y-57618381D01*
X116927619Y-57618381D01*
X116832381Y-57666000D01*
X116784762Y-57713619D01*
X116737143Y-57808857D01*
X116737143Y-58046952D01*
X116784762Y-58142190D01*
X116832381Y-58189810D01*
X116927619Y-58237429D01*
X117118096Y-58237429D01*
X117213334Y-58189810D01*
X117260953Y-58142190D01*
X117308572Y-58046952D01*
X117927619Y-57618381D02*
X118022858Y-57618381D01*
X118118096Y-57666000D01*
X118165715Y-57713619D01*
X118213334Y-57808857D01*
X118260953Y-57999333D01*
X118260953Y-58237429D01*
X118213334Y-58427905D01*
X118165715Y-58523143D01*
X118118096Y-58570762D01*
X118022858Y-58618381D01*
X117927619Y-58618381D01*
X117832381Y-58570762D01*
X117784762Y-58523143D01*
X117737143Y-58427905D01*
X117689524Y-58237429D01*
X117689524Y-57999333D01*
X117737143Y-57808857D01*
X117784762Y-57713619D01*
X117832381Y-57666000D01*
X117927619Y-57618381D01*
X119260953Y-58523143D02*
X119213334Y-58570762D01*
X119070477Y-58618381D01*
X118975239Y-58618381D01*
X118832381Y-58570762D01*
X118737143Y-58475524D01*
X118689524Y-58380286D01*
X118641905Y-58189810D01*
X118641905Y-58046952D01*
X118689524Y-57856476D01*
X118737143Y-57761238D01*
X118832381Y-57666000D01*
X118975239Y-57618381D01*
X119070477Y-57618381D01*
X119213334Y-57666000D01*
X119260953Y-57713619D01*
X120260953Y-58618381D02*
X119927619Y-58142190D01*
X119689524Y-58618381D02*
X119689524Y-57618381D01*
X120070477Y-57618381D01*
X120165715Y-57666000D01*
X120213334Y-57713619D01*
X120260953Y-57808857D01*
X120260953Y-57951714D01*
X120213334Y-58046952D01*
X120165715Y-58094571D01*
X120070477Y-58142190D01*
X119689524Y-58142190D01*
X120641905Y-57713619D02*
X120689524Y-57666000D01*
X120784762Y-57618381D01*
X121022858Y-57618381D01*
X121118096Y-57666000D01*
X121165715Y-57713619D01*
X121213334Y-57808857D01*
X121213334Y-57904095D01*
X121165715Y-58046952D01*
X120594286Y-58618381D01*
X121213334Y-58618381D01*
X121784762Y-58046952D02*
X121689524Y-57999333D01*
X121641905Y-57951714D01*
X121594286Y-57856476D01*
X121594286Y-57808857D01*
X121641905Y-57713619D01*
X121689524Y-57666000D01*
X121784762Y-57618381D01*
X121975239Y-57618381D01*
X122070477Y-57666000D01*
X122118096Y-57713619D01*
X122165715Y-57808857D01*
X122165715Y-57856476D01*
X122118096Y-57951714D01*
X122070477Y-57999333D01*
X121975239Y-58046952D01*
X121784762Y-58046952D01*
X121689524Y-58094571D01*
X121641905Y-58142190D01*
X121594286Y-58237429D01*
X121594286Y-58427905D01*
X121641905Y-58523143D01*
X121689524Y-58570762D01*
X121784762Y-58618381D01*
X121975239Y-58618381D01*
X122070477Y-58570762D01*
X122118096Y-58523143D01*
X122165715Y-58427905D01*
X122165715Y-58237429D01*
X122118096Y-58142190D01*
X122070477Y-58094571D01*
X121975239Y-58046952D01*
X122737143Y-58046952D02*
X122641905Y-57999333D01*
X122594286Y-57951714D01*
X122546667Y-57856476D01*
X122546667Y-57808857D01*
X122594286Y-57713619D01*
X122641905Y-57666000D01*
X122737143Y-57618381D01*
X122927620Y-57618381D01*
X123022858Y-57666000D01*
X123070477Y-57713619D01*
X123118096Y-57808857D01*
X123118096Y-57856476D01*
X123070477Y-57951714D01*
X123022858Y-57999333D01*
X122927620Y-58046952D01*
X122737143Y-58046952D01*
X122641905Y-58094571D01*
X122594286Y-58142190D01*
X122546667Y-58237429D01*
X122546667Y-58427905D01*
X122594286Y-58523143D01*
X122641905Y-58570762D01*
X122737143Y-58618381D01*
X122927620Y-58618381D01*
X123022858Y-58570762D01*
X123070477Y-58523143D01*
X123118096Y-58427905D01*
X123118096Y-58237429D01*
X123070477Y-58142190D01*
X123022858Y-58094571D01*
X122927620Y-58046952D01*
X123499048Y-58332667D02*
X123975239Y-58332667D01*
X123403810Y-58618381D02*
X123737143Y-57618381D01*
X124070477Y-58618381D01*
X143787905Y-30678381D02*
X143787905Y-29678381D01*
X144168858Y-29678381D01*
X144264096Y-29726000D01*
X144311715Y-29773619D01*
X144359334Y-29868857D01*
X144359334Y-30011714D01*
X144311715Y-30106952D01*
X144264096Y-30154571D01*
X144168858Y-30202190D01*
X143787905Y-30202190D01*
X145311715Y-30678381D02*
X144740286Y-30678381D01*
X145026000Y-30678381D02*
X145026000Y-29678381D01*
X144930762Y-29821238D01*
X144835524Y-29916476D01*
X144740286Y-29964095D01*
X85875905Y-30678381D02*
X85875905Y-29678381D01*
X86256858Y-29678381D01*
X86352096Y-29726000D01*
X86399715Y-29773619D01*
X86447334Y-29868857D01*
X86447334Y-30011714D01*
X86399715Y-30106952D01*
X86352096Y-30154571D01*
X86256858Y-30202190D01*
X85875905Y-30202190D01*
X86828286Y-29773619D02*
X86875905Y-29726000D01*
X86971143Y-29678381D01*
X87209239Y-29678381D01*
X87304477Y-29726000D01*
X87352096Y-29773619D01*
X87399715Y-29868857D01*
X87399715Y-29964095D01*
X87352096Y-30106952D01*
X86780667Y-30678381D01*
X87399715Y-30678381D01*
X142133071Y-48605142D02*
X140633071Y-48605142D01*
X140633071Y-48033714D01*
X140704500Y-47890856D01*
X140775929Y-47819428D01*
X140918786Y-47747999D01*
X141133071Y-47747999D01*
X141275929Y-47819428D01*
X141347357Y-47890856D01*
X141418786Y-48033714D01*
X141418786Y-48605142D01*
X141133071Y-46462285D02*
X142133071Y-46462285D01*
X140561643Y-46819428D02*
X141633071Y-47176571D01*
X141633071Y-46247999D01*
X85756858Y-53538381D02*
X85185429Y-53538381D01*
X85471143Y-53538381D02*
X85471143Y-52538381D01*
X85375905Y-52681238D01*
X85280667Y-52776476D01*
X85185429Y-52824095D01*
X86185429Y-52871714D02*
X86185429Y-53871714D01*
X86185429Y-52919333D02*
X86280667Y-52871714D01*
X86471144Y-52871714D01*
X86566382Y-52919333D01*
X86614001Y-52966952D01*
X86661620Y-53062190D01*
X86661620Y-53347905D01*
X86614001Y-53443143D01*
X86566382Y-53490762D01*
X86471144Y-53538381D01*
X86280667Y-53538381D01*
X86185429Y-53490762D01*
X87090191Y-53538381D02*
X87090191Y-52871714D01*
X87090191Y-52538381D02*
X87042572Y-52586000D01*
X87090191Y-52633619D01*
X87137810Y-52586000D01*
X87090191Y-52538381D01*
X87090191Y-52633619D01*
X87566381Y-52871714D02*
X87566381Y-53538381D01*
X87566381Y-52966952D02*
X87614000Y-52919333D01*
X87709238Y-52871714D01*
X87852096Y-52871714D01*
X87947334Y-52919333D01*
X87994953Y-53014571D01*
X87994953Y-53538381D01*
X142398858Y-52649381D02*
X141827429Y-52649381D01*
X142113143Y-52649381D02*
X142113143Y-51649381D01*
X142017905Y-51792238D01*
X141922667Y-51887476D01*
X141827429Y-51935095D01*
X142827429Y-51982714D02*
X142827429Y-52982714D01*
X142827429Y-52030333D02*
X142922667Y-51982714D01*
X143113144Y-51982714D01*
X143208382Y-52030333D01*
X143256001Y-52077952D01*
X143303620Y-52173190D01*
X143303620Y-52458905D01*
X143256001Y-52554143D01*
X143208382Y-52601762D01*
X143113144Y-52649381D01*
X142922667Y-52649381D01*
X142827429Y-52601762D01*
X143732191Y-52649381D02*
X143732191Y-51982714D01*
X143732191Y-51649381D02*
X143684572Y-51697000D01*
X143732191Y-51744619D01*
X143779810Y-51697000D01*
X143732191Y-51649381D01*
X143732191Y-51744619D01*
X144208381Y-51982714D02*
X144208381Y-52649381D01*
X144208381Y-52077952D02*
X144256000Y-52030333D01*
X144351238Y-51982714D01*
X144494096Y-51982714D01*
X144589334Y-52030333D01*
X144636953Y-52125571D01*
X144636953Y-52649381D01*
X114462858Y-77338571D02*
X114462858Y-75838571D01*
X115034286Y-75838571D01*
X115177144Y-75910000D01*
X115248572Y-75981429D01*
X115320001Y-76124286D01*
X115320001Y-76338571D01*
X115248572Y-76481429D01*
X115177144Y-76552857D01*
X115034286Y-76624286D01*
X114462858Y-76624286D01*
X115820001Y-75838571D02*
X116748572Y-75838571D01*
X116248572Y-76410000D01*
X116462858Y-76410000D01*
X116605715Y-76481429D01*
X116677144Y-76552857D01*
X116748572Y-76695714D01*
X116748572Y-77052857D01*
X116677144Y-77195714D01*
X116605715Y-77267143D01*
X116462858Y-77338571D01*
X116034286Y-77338571D01*
X115891429Y-77267143D01*
X115820001Y-77195714D01*
X86141429Y-68981429D02*
X86212858Y-68910000D01*
X86355715Y-68838571D01*
X86712858Y-68838571D01*
X86855715Y-68910000D01*
X86927144Y-68981429D01*
X86998572Y-69124286D01*
X86998572Y-69267143D01*
X86927144Y-69481429D01*
X86070001Y-70338571D01*
X86998572Y-70338571D01*
X86998572Y-78338571D02*
X86141429Y-78338571D01*
X86570001Y-78338571D02*
X86570001Y-76838571D01*
X86427144Y-77052857D01*
X86284286Y-77195714D01*
X86141429Y-77267143D01*
M02*
