G04 #@! TF.FileFunction,Copper,L4,Bot,Signal*
%FSLAX46Y46*%
G04 Gerber Fmt 4.6, Leading zero omitted, Abs format (unit mm)*
G04 Created by KiCad (PCBNEW (2015-02-18 BZR 5430)-product) date 2015年02月19日 星期四 19时51分06秒*
%MOMM*%
G01*
G04 APERTURE LIST*
%ADD10C,0.150000*%
%ADD11R,0.800000X0.750000*%
%ADD12R,0.750000X0.800000*%
%ADD13C,1.524000*%
%ADD14C,3.000000*%
%ADD15C,4.000000*%
%ADD16C,4.064000*%
%ADD17R,1.400000X1.800000*%
%ADD18R,0.800000X2.600000*%
%ADD19R,2.000000X2.000000*%
%ADD20C,2.000000*%
%ADD21R,0.900000X0.500000*%
%ADD22C,0.762000*%
%ADD23C,1.016000*%
%ADD24C,0.254000*%
%ADD25C,0.762000*%
%ADD26C,0.152400*%
G04 APERTURE END LIST*
D10*
D11*
X115391500Y-54991000D03*
X116891500Y-54991000D03*
X123710000Y-51943000D03*
X125210000Y-51943000D03*
D10*
G36*
X123318162Y-54633492D02*
X123848492Y-54103162D01*
X124414178Y-54668848D01*
X123883848Y-55199178D01*
X123318162Y-54633492D01*
X123318162Y-54633492D01*
G37*
G36*
X124378822Y-55694152D02*
X124909152Y-55163822D01*
X125474838Y-55729508D01*
X124944508Y-56259838D01*
X124378822Y-55694152D01*
X124378822Y-55694152D01*
G37*
D11*
X122135200Y-62890400D03*
X123635200Y-62890400D03*
X118223600Y-63093600D03*
X119723600Y-63093600D03*
D12*
X127914400Y-62343600D03*
X127914400Y-63843600D03*
D11*
X114642200Y-63119000D03*
X116142200Y-63119000D03*
X115391500Y-53848000D03*
X116891500Y-53848000D03*
D10*
G36*
X123911992Y-50481338D02*
X123381662Y-49951008D01*
X123947348Y-49385322D01*
X124477678Y-49915652D01*
X123911992Y-50481338D01*
X123911992Y-50481338D01*
G37*
G36*
X124972652Y-49420678D02*
X124442322Y-48890348D01*
X125008008Y-48324662D01*
X125538338Y-48854992D01*
X124972652Y-49420678D01*
X124972652Y-49420678D01*
G37*
G36*
X122048162Y-55268492D02*
X122578492Y-54738162D01*
X123144178Y-55303848D01*
X122613848Y-55834178D01*
X122048162Y-55268492D01*
X122048162Y-55268492D01*
G37*
G36*
X123108822Y-56329152D02*
X123639152Y-55798822D01*
X124204838Y-56364508D01*
X123674508Y-56894838D01*
X123108822Y-56329152D01*
X123108822Y-56329152D01*
G37*
D12*
X126644400Y-62343600D03*
X126644400Y-63843600D03*
D11*
X122135200Y-61696600D03*
X123635200Y-61696600D03*
X118223600Y-61899800D03*
X119723600Y-61899800D03*
X114642200Y-61925200D03*
X116142200Y-61925200D03*
X115391500Y-52705000D03*
X116891500Y-52705000D03*
D10*
G36*
X120587662Y-55649492D02*
X121117992Y-55119162D01*
X121683678Y-55684848D01*
X121153348Y-56215178D01*
X120587662Y-55649492D01*
X120587662Y-55649492D01*
G37*
G36*
X121648322Y-56710152D02*
X122178652Y-56179822D01*
X122744338Y-56745508D01*
X122214008Y-57275838D01*
X121648322Y-56710152D01*
X121648322Y-56710152D01*
G37*
D12*
X126644400Y-61075000D03*
X126644400Y-59575000D03*
D11*
X114642200Y-60731400D03*
X116142200Y-60731400D03*
X122135200Y-60502800D03*
X123635200Y-60502800D03*
X118223600Y-60706000D03*
X119723600Y-60706000D03*
D13*
X144570000Y-69850000D03*
X142570000Y-69850000D03*
X140570000Y-69850000D03*
X138570000Y-69850000D03*
X136570000Y-69850000D03*
X134570000Y-69850000D03*
X132570000Y-69850000D03*
X130570000Y-69850000D03*
X128570000Y-69850000D03*
X126570000Y-69850000D03*
X124570000Y-69850000D03*
X122570000Y-69850000D03*
X120570000Y-69850000D03*
X118570000Y-69850000D03*
X116570000Y-69850000D03*
X114570000Y-69850000D03*
X112570000Y-69850000D03*
X110570000Y-69850000D03*
X108570000Y-69850000D03*
X106570000Y-69850000D03*
X104570000Y-69850000D03*
X102570000Y-69850000D03*
X100570000Y-69850000D03*
X98570000Y-69850000D03*
X96570000Y-69850000D03*
X94570000Y-69850000D03*
X92570000Y-69850000D03*
X90570000Y-69850000D03*
X88570000Y-69850000D03*
X86570000Y-69850000D03*
D14*
X120170000Y-34290000D03*
D15*
X125170000Y-36790000D03*
X105970000Y-36790000D03*
D14*
X110970000Y-34290000D03*
D16*
X144526000Y-33274000D03*
X86614000Y-33274000D03*
D17*
X135233000Y-54102000D03*
X138833000Y-54102000D03*
D18*
X137033000Y-54102000D03*
D17*
X135233000Y-62230000D03*
X138833000Y-62230000D03*
D18*
X137033000Y-62230000D03*
D17*
X135233000Y-58166000D03*
X138833000Y-58166000D03*
D18*
X137033000Y-58166000D03*
D17*
X129645000Y-54102000D03*
X133245000Y-54102000D03*
D18*
X131445000Y-54102000D03*
D17*
X129645000Y-62230000D03*
X133245000Y-62230000D03*
D18*
X131445000Y-62230000D03*
D17*
X129645000Y-58166000D03*
X133245000Y-58166000D03*
D18*
X131445000Y-58166000D03*
D19*
X143954500Y-45593000D03*
D20*
X143954500Y-49403000D03*
D21*
X144526000Y-65925000D03*
X144526000Y-67425000D03*
X142875000Y-65925000D03*
X142875000Y-67425000D03*
D16*
X86614000Y-56134000D03*
X143256000Y-55245000D03*
D13*
X86570000Y-74660000D03*
X86570000Y-72660000D03*
X88570000Y-74660000D03*
X88570000Y-72660000D03*
X90570000Y-74660000D03*
X90570000Y-72660000D03*
X92570000Y-74660000D03*
X92570000Y-72660000D03*
X94570000Y-74660000D03*
X94570000Y-72660000D03*
X96570000Y-74660000D03*
X96570000Y-72660000D03*
X98570000Y-74660000D03*
X98570000Y-72660000D03*
X100570000Y-74660000D03*
X100570000Y-72660000D03*
X102570000Y-74660000D03*
X102570000Y-72660000D03*
X104570000Y-74660000D03*
X104570000Y-72660000D03*
X106570000Y-74660000D03*
X106570000Y-72660000D03*
X108570000Y-74660000D03*
X108570000Y-72660000D03*
X110570000Y-74660000D03*
X110570000Y-72660000D03*
X112570000Y-74660000D03*
X112570000Y-72660000D03*
X114570000Y-74660000D03*
X114570000Y-72660000D03*
X116570000Y-74660000D03*
X116570000Y-72660000D03*
X118570000Y-74660000D03*
X118570000Y-72660000D03*
X120570000Y-74660000D03*
X120570000Y-72660000D03*
X122570000Y-74660000D03*
X122570000Y-72660000D03*
X124570000Y-74660000D03*
X124570000Y-72660000D03*
X126570000Y-74660000D03*
X126570000Y-72660000D03*
X128570000Y-74660000D03*
X128570000Y-72660000D03*
X130570000Y-74660000D03*
X130570000Y-72660000D03*
X132570000Y-74660000D03*
X132570000Y-72660000D03*
X134570000Y-74660000D03*
X134570000Y-72660000D03*
X136570000Y-74660000D03*
X136570000Y-72660000D03*
X138570000Y-74660000D03*
X138570000Y-72660000D03*
X140570000Y-74660000D03*
X140570000Y-72660000D03*
X142570000Y-74660000D03*
X142570000Y-72660000D03*
X144570000Y-74660000D03*
X144570000Y-72660000D03*
D22*
X128066800Y-54102000D03*
X120459500Y-56197500D03*
X123063000Y-49022000D03*
X115417600Y-56286400D03*
X126593600Y-57251600D03*
X114363500Y-50673000D03*
X115379500Y-51752500D03*
X113665000Y-59563000D03*
X118211600Y-59588400D03*
X122377200Y-59486800D03*
X127660400Y-61137800D03*
X126085600Y-45821600D03*
X127914400Y-46939200D03*
X130454400Y-47040800D03*
X134924800Y-47142400D03*
X137668000Y-44348400D03*
X132994400Y-44297600D03*
X128371600Y-44297600D03*
X125780800Y-43332400D03*
X123596400Y-44500800D03*
X123596400Y-46329600D03*
X110083600Y-48514000D03*
X115011200Y-48412400D03*
X114960400Y-45669200D03*
X110045500Y-44894500D03*
X109067600Y-45872400D03*
X126441200Y-50647600D03*
X127863600Y-50647600D03*
X132740400Y-64668400D03*
X130657600Y-65633600D03*
X137464800Y-60198000D03*
X137515600Y-65684400D03*
X130606800Y-50647600D03*
X124460000Y-59512200D03*
X115633500Y-50482500D03*
X121158000Y-57277000D03*
X125984000Y-47879000D03*
X116332000Y-59309000D03*
X120142000Y-59563000D03*
X111633000Y-53594000D03*
X125095000Y-50927000D03*
X135382000Y-64516000D03*
D23*
X129645000Y-54102000D02*
X128066800Y-54102000D01*
X120459500Y-56197500D02*
X120605340Y-56197500D01*
X120605340Y-56197500D02*
X121135670Y-55667170D01*
D24*
X120459500Y-56197500D02*
X120989830Y-55667170D01*
X120989830Y-55667170D02*
X121135670Y-55667170D01*
D23*
X122596170Y-55286170D02*
X121516670Y-55286170D01*
X121516670Y-55286170D02*
X121135670Y-55667170D01*
X123866170Y-54651170D02*
X123231170Y-54651170D01*
X123231170Y-54651170D02*
X122596170Y-55286170D01*
X125222000Y-54102000D02*
X124415340Y-54102000D01*
X124415340Y-54102000D02*
X123866170Y-54651170D01*
X124968000Y-54102000D02*
X125222000Y-54102000D01*
X125222000Y-54102000D02*
X129645000Y-54102000D01*
X123710000Y-51943000D02*
X123710000Y-52717000D01*
X125095000Y-54102000D02*
X124968000Y-54102000D01*
X123710000Y-52717000D02*
X125095000Y-54102000D01*
X123710000Y-51943000D02*
X123710000Y-50153000D01*
X123710000Y-50153000D02*
X123929670Y-49933330D01*
X123929670Y-49933330D02*
X123929670Y-49888670D01*
X123929670Y-49888670D02*
X123063000Y-49022000D01*
X115417600Y-56286400D02*
X115391500Y-56286400D01*
X129645000Y-58166000D02*
X127508000Y-58166000D01*
X127508000Y-58166000D02*
X126593600Y-57251600D01*
D25*
X115391500Y-54991000D02*
X115391500Y-56286400D01*
X115391500Y-56286400D02*
X115391500Y-56704798D01*
D24*
X115391500Y-56704798D02*
X116852702Y-58166000D01*
X116852702Y-58166000D02*
X129645000Y-58166000D01*
D25*
X115379500Y-51752500D02*
X114973100Y-51752500D01*
X114973100Y-51752500D02*
X114363500Y-51142900D01*
X114363500Y-51142900D02*
X114363500Y-50673000D01*
D23*
X115443000Y-54991000D02*
X115391500Y-54991000D01*
X115391500Y-54991000D02*
X115443000Y-54991000D01*
X115391500Y-53848000D02*
X115391500Y-54991000D01*
X115391500Y-52705000D02*
X115391500Y-53848000D01*
X115391500Y-53848000D02*
X115443000Y-53848000D01*
X115443000Y-53848000D02*
X115391500Y-53848000D01*
X115379500Y-51689000D02*
X115379500Y-52693000D01*
X115379500Y-52693000D02*
X115391500Y-52705000D01*
D26*
X115379500Y-51689000D02*
X115379500Y-51752500D01*
X114363500Y-50673000D02*
X115379500Y-51689000D01*
D23*
X114642200Y-63119000D02*
X114642200Y-63588200D01*
X118999000Y-64363600D02*
X119024400Y-64338200D01*
X115417600Y-64363600D02*
X118999000Y-64363600D01*
X114642200Y-63588200D02*
X115417600Y-64363600D01*
X114642200Y-61925200D02*
X114642200Y-63119000D01*
X114642200Y-60731400D02*
X114642200Y-61925200D01*
X113665000Y-59563000D02*
X113665000Y-59754200D01*
X113665000Y-59754200D02*
X114642200Y-60731400D01*
X118223600Y-63093600D02*
X118223600Y-63537400D01*
X118223600Y-63537400D02*
X119024400Y-64338200D01*
X122834400Y-64338200D02*
X122961400Y-64211200D01*
X119024400Y-64338200D02*
X122834400Y-64338200D01*
X118223600Y-61899800D02*
X118223600Y-63093600D01*
X118223600Y-60706000D02*
X118223600Y-61899800D01*
X118211600Y-59588400D02*
X118211600Y-60694000D01*
X118211600Y-60694000D02*
X118223600Y-60706000D01*
X122135200Y-62890400D02*
X122135200Y-63385000D01*
X122135200Y-63385000D02*
X122961400Y-64211200D01*
X126200600Y-62343600D02*
X126644400Y-62343600D01*
X122961400Y-64211200D02*
X124333000Y-64211200D01*
X124333000Y-64211200D02*
X126200600Y-62343600D01*
X122135200Y-62890400D02*
X122135200Y-61696600D01*
X122135200Y-61696600D02*
X122135200Y-60502800D01*
X122135200Y-60502800D02*
X122135200Y-59728800D01*
X122135200Y-59728800D02*
X122377200Y-59486800D01*
D24*
X113665000Y-59563000D02*
X114642200Y-60540200D01*
X114642200Y-60540200D02*
X114642200Y-60731400D01*
X118223600Y-59600400D02*
X118223600Y-60706000D01*
X118211600Y-59588400D02*
X118223600Y-59600400D01*
X122377200Y-59486800D02*
X122135200Y-59728800D01*
D23*
X127660400Y-61137800D02*
X128552800Y-61137800D01*
X128552800Y-61137800D02*
X129645000Y-62230000D01*
X127914400Y-62343600D02*
X129531400Y-62343600D01*
X129531400Y-62343600D02*
X129645000Y-62230000D01*
X126644400Y-62343600D02*
X127914400Y-62343600D01*
X127660400Y-61137800D02*
X126707200Y-61137800D01*
X126707200Y-61137800D02*
X126644400Y-61200600D01*
X126644400Y-61200600D02*
X126644400Y-62343600D01*
D24*
X127597600Y-61075000D02*
X126644400Y-61075000D01*
X127660400Y-61137800D02*
X127597600Y-61075000D01*
D23*
X125984000Y-45923200D02*
X125984000Y-47879000D01*
X126085600Y-45821600D02*
X125984000Y-45923200D01*
X130352800Y-46939200D02*
X127914400Y-46939200D01*
X130454400Y-47040800D02*
X130352800Y-46939200D01*
X134924800Y-47091600D02*
X134924800Y-47142400D01*
X137668000Y-44348400D02*
X134924800Y-47091600D01*
X128371600Y-44297600D02*
X132994400Y-44297600D01*
X124764800Y-43332400D02*
X125780800Y-43332400D01*
X123596400Y-44500800D02*
X124764800Y-43332400D01*
X122936000Y-46990000D02*
X123596400Y-46329600D01*
X111607600Y-46990000D02*
X122936000Y-46990000D01*
X110083600Y-48514000D02*
X111607600Y-46990000D01*
X115011200Y-45720000D02*
X115011200Y-48412400D01*
X114960400Y-45669200D02*
X115011200Y-45720000D01*
X110045500Y-44894500D02*
X109067600Y-45872400D01*
X125272800Y-56007000D02*
X125272800Y-56540400D01*
X124536200Y-57277000D02*
X121647160Y-57277000D01*
X125272800Y-56540400D02*
X124536200Y-57277000D01*
D24*
X126441200Y-50647600D02*
X127863600Y-50647600D01*
X127050800Y-50901600D02*
X127050800Y-50927000D01*
X127025400Y-50927000D02*
X127050800Y-50901600D01*
X127584200Y-50927000D02*
X127025400Y-50927000D01*
X127863600Y-50647600D02*
X127584200Y-50927000D01*
D23*
X130606800Y-50647600D02*
X129819400Y-50647600D01*
X129819400Y-50647600D02*
X129540000Y-50927000D01*
X128524000Y-64135000D02*
X129159000Y-64135000D01*
X132740400Y-64668400D02*
X131445000Y-63373000D01*
X129159000Y-64135000D02*
X130657600Y-65633600D01*
X131445000Y-63373000D02*
X131445000Y-62230000D01*
X137033000Y-62230000D02*
X137033000Y-65201800D01*
X137464800Y-60198000D02*
X135991600Y-60198000D01*
X137033000Y-65201800D02*
X137515600Y-65684400D01*
X135991600Y-60198000D02*
X135991600Y-60147200D01*
X135991600Y-60147200D02*
X135991600Y-60198000D01*
D24*
X125095000Y-50927000D02*
X127050800Y-50927000D01*
X127050800Y-50927000D02*
X130327400Y-50927000D01*
X130327400Y-50927000D02*
X130606800Y-50647600D01*
D23*
X86570000Y-74660000D02*
X144570000Y-74660000D01*
X124460000Y-59512200D02*
X126581600Y-59512200D01*
X126581600Y-59512200D02*
X126644400Y-59575000D01*
D24*
X121031000Y-58674000D02*
X121031002Y-58674000D01*
X123571002Y-58623202D02*
X124460000Y-59512200D01*
X121081800Y-58623202D02*
X123571002Y-58623202D01*
X121031002Y-58674000D02*
X121081800Y-58623202D01*
D23*
X116142200Y-61925200D02*
X116142200Y-63119000D01*
X116142200Y-60731400D02*
X116142200Y-61925200D01*
X116332000Y-59309000D02*
X116332000Y-60541600D01*
X116332000Y-60541600D02*
X116142200Y-60731400D01*
X120142000Y-59563000D02*
X120142000Y-60287600D01*
X120142000Y-60287600D02*
X119723600Y-60706000D01*
X119723600Y-61899800D02*
X119723600Y-63093600D01*
X119723600Y-60706000D02*
X119723600Y-61899800D01*
X124460000Y-59512200D02*
X124460000Y-59678000D01*
X124460000Y-59678000D02*
X123635200Y-60502800D01*
X123635200Y-61696600D02*
X123635200Y-62890400D01*
X123635200Y-60502800D02*
X123635200Y-61696600D01*
D24*
X126173800Y-59575000D02*
X126644400Y-59575000D01*
X124460000Y-59512200D02*
X125984000Y-59512200D01*
X125984000Y-59512200D02*
X126111000Y-59512200D01*
X126111000Y-59512200D02*
X126173800Y-59575000D01*
D23*
X126644400Y-59575000D02*
X127418402Y-59575000D01*
X130886200Y-59893200D02*
X131445000Y-59334400D01*
X127736602Y-59893200D02*
X130886200Y-59893200D01*
X127418402Y-59575000D02*
X127736602Y-59893200D01*
X131445000Y-59334400D02*
X131445000Y-58166000D01*
X127914400Y-63843600D02*
X128232600Y-63843600D01*
X128232600Y-63843600D02*
X128524000Y-64135000D01*
X130505200Y-64135000D02*
X131445000Y-63195200D01*
X128524000Y-64135000D02*
X130505200Y-64135000D01*
X131445000Y-63195200D02*
X131445000Y-62230000D01*
X126644400Y-63843600D02*
X127914400Y-63843600D01*
D25*
X121158000Y-57277000D02*
X121647160Y-57277000D01*
X121647160Y-57277000D02*
X122196330Y-56727830D01*
X116891500Y-54991000D02*
X116891500Y-55296500D01*
X116891500Y-55296500D02*
X118999000Y-57404000D01*
X121031000Y-57404000D02*
X121158000Y-57277000D01*
X118999000Y-57404000D02*
X121031000Y-57404000D01*
D23*
X116891500Y-53848000D02*
X116891500Y-54991000D01*
X116891500Y-52705000D02*
X116891500Y-53848000D01*
X116891500Y-52705000D02*
X116891500Y-51169000D01*
X116891500Y-51169000D02*
X116205000Y-50482500D01*
X116205000Y-50482500D02*
X115633500Y-50482500D01*
X121647160Y-57277000D02*
X122196330Y-56727830D01*
D24*
X121158000Y-57277000D02*
X121094500Y-57340500D01*
X121094500Y-57340500D02*
X121094500Y-57277000D01*
D23*
X132207000Y-56007000D02*
X125272800Y-56007000D01*
X125272800Y-56007000D02*
X125222000Y-56007000D01*
X125222000Y-56007000D02*
X124926830Y-55711830D01*
X123656830Y-56346830D02*
X124291830Y-56346830D01*
X124291830Y-56346830D02*
X124926830Y-55711830D01*
X122196330Y-56727830D02*
X123275830Y-56727830D01*
X123275830Y-56727830D02*
X123656830Y-56346830D01*
D24*
X122196330Y-56727830D02*
X122069330Y-56727830D01*
X121158000Y-57277000D02*
X121094500Y-57277000D01*
X121094500Y-57277000D02*
X121647160Y-57277000D01*
D23*
X125984000Y-47879000D02*
X124990330Y-48872670D01*
X124990330Y-48872670D02*
X124990330Y-48917330D01*
X124990330Y-48917330D02*
X125730000Y-49657000D01*
X125730000Y-49657000D02*
X125730000Y-50927000D01*
X125210000Y-51943000D02*
X125210000Y-51042000D01*
X125210000Y-51042000D02*
X125095000Y-50927000D01*
X144570000Y-74660000D02*
X145558000Y-74660000D01*
X145558000Y-74660000D02*
X146367500Y-73850500D01*
X146367500Y-73850500D02*
X146367500Y-48006000D01*
X146367500Y-48006000D02*
X143954500Y-45593000D01*
X125095000Y-50927000D02*
X125730000Y-50927000D01*
X125730000Y-50927000D02*
X129540000Y-50927000D01*
X129540000Y-50927000D02*
X131445000Y-52832000D01*
X131445000Y-52832000D02*
X131445000Y-54102000D01*
X137033000Y-56007000D02*
X132207000Y-56007000D01*
X132207000Y-56007000D02*
X131445000Y-55245000D01*
X131445000Y-55245000D02*
X131445000Y-54102000D01*
X137033000Y-60198000D02*
X135991600Y-60198000D01*
X135991600Y-60198000D02*
X131826000Y-60198000D01*
X131826000Y-60198000D02*
X131445000Y-60579000D01*
X131445000Y-58166000D02*
X131445000Y-60579000D01*
X131445000Y-60579000D02*
X131445000Y-62230000D01*
X131445000Y-54102000D02*
X131445000Y-58166000D01*
X137033000Y-58166000D02*
X137033000Y-60198000D01*
X137033000Y-60198000D02*
X137033000Y-62230000D01*
X137033000Y-54102000D02*
X137033000Y-58166000D01*
X137033000Y-54102000D02*
X137033000Y-52514500D01*
X137033000Y-52514500D02*
X143954500Y-45593000D01*
D24*
X131445000Y-60261500D02*
X137033000Y-60261500D01*
X137033000Y-60261500D02*
X136969500Y-60261500D01*
X136969500Y-60261500D02*
X137033000Y-60261500D01*
X137033000Y-56007000D02*
X131318000Y-56007000D01*
X144570000Y-74660000D02*
X144986500Y-74660000D01*
X144986500Y-74660000D02*
X146113500Y-73533000D01*
X146113500Y-73533000D02*
X146113500Y-47752000D01*
X146113500Y-47752000D02*
X143954500Y-45593000D01*
X137033000Y-52514500D02*
X143954500Y-45593000D01*
X116967000Y-58674000D02*
X117221000Y-58674000D01*
X116332000Y-59309000D02*
X116967000Y-58674000D01*
X120142000Y-59563000D02*
X121031000Y-58674000D01*
X111633000Y-53594000D02*
X111633000Y-54927500D01*
X115379500Y-58674000D02*
X117221000Y-58674000D01*
X117221000Y-58674000D02*
X121031000Y-58674000D01*
X111633000Y-54927500D02*
X115379500Y-58674000D01*
X131445000Y-58737500D02*
X131445000Y-58166000D01*
X131445000Y-56007000D02*
X131318000Y-56007000D01*
X131318000Y-56007000D02*
X131445000Y-56007000D01*
X129540000Y-50927000D02*
X131445000Y-52832000D01*
X131445000Y-52832000D02*
X131445000Y-54102000D01*
X131445000Y-58166000D02*
X131445000Y-56007000D01*
X131445000Y-56007000D02*
X131445000Y-54102000D01*
X131445000Y-62230000D02*
X131445000Y-60452000D01*
X131445000Y-60452000D02*
X131445000Y-60261500D01*
X131445000Y-60261500D02*
X131445000Y-58166000D01*
X137033000Y-58166000D02*
X137033000Y-60261500D01*
X137033000Y-60261500D02*
X137033000Y-62230000D01*
X137033000Y-54102000D02*
X137033000Y-56007000D01*
X137033000Y-56007000D02*
X137033000Y-58166000D01*
X135382000Y-64516000D02*
X132715000Y-67183000D01*
X89237000Y-67183000D02*
X86570000Y-69850000D01*
X132715000Y-67183000D02*
X89237000Y-67183000D01*
D23*
X138833000Y-62230000D02*
X138833000Y-63395000D01*
X141363000Y-65925000D02*
X142875000Y-65925000D01*
X138833000Y-63395000D02*
X141363000Y-65925000D01*
X140411200Y-54102000D02*
X140411200Y-61569600D01*
X140411200Y-61569600D02*
X140411200Y-61518800D01*
X140411200Y-61518800D02*
X140411200Y-61569600D01*
X144526000Y-65925000D02*
X144526000Y-65684400D01*
X144526000Y-65684400D02*
X140411200Y-61569600D01*
X140411200Y-61569600D02*
X139825300Y-60983700D01*
X138833000Y-54102000D02*
X140411200Y-54102000D01*
X140411200Y-54102000D02*
X140055600Y-54102000D01*
X140055600Y-54102000D02*
X143954500Y-50203100D01*
X143954500Y-50203100D02*
X143954500Y-49403000D01*
X138833000Y-54102000D02*
X138833000Y-52581400D01*
X142011400Y-49403000D02*
X143954500Y-49403000D01*
X138833000Y-52581400D02*
X142011400Y-49403000D01*
X138833000Y-54102000D02*
X138833000Y-53648200D01*
X138833000Y-53648200D02*
X143078200Y-49403000D01*
X143078200Y-49403000D02*
X143954500Y-49403000D01*
X144526000Y-65925000D02*
X143699800Y-65925000D01*
X143699800Y-65925000D02*
X139825300Y-62050500D01*
X139825300Y-63222300D02*
X139825300Y-62050500D01*
X139825300Y-62050500D02*
X139825300Y-60983700D01*
X139825300Y-60983700D02*
X139825300Y-53532200D01*
X139825300Y-53532200D02*
X143954500Y-49403000D01*
X138833000Y-54102000D02*
X139255500Y-54102000D01*
X139255500Y-54102000D02*
X143954500Y-49403000D01*
X138833000Y-58166000D02*
X138833000Y-54102000D01*
X138833000Y-62230000D02*
X138833000Y-58166000D01*
X142875000Y-65925000D02*
X142528000Y-65925000D01*
X142528000Y-65925000D02*
X139825300Y-63222300D01*
X139825300Y-63222300D02*
X138833000Y-62230000D01*
X142875000Y-65925000D02*
X144526000Y-65925000D01*
D24*
X143954500Y-49403000D02*
X143532000Y-49403000D01*
X143532000Y-49403000D02*
X138833000Y-54102000D01*
D23*
X133245000Y-54102000D02*
X135233000Y-54102000D01*
X133245000Y-62230000D02*
X135233000Y-62230000D01*
X133245000Y-58166000D02*
X135233000Y-58166000D01*
X144570000Y-69850000D02*
X144570000Y-68979600D01*
X144570000Y-68979600D02*
X143015400Y-67425000D01*
X143015400Y-67425000D02*
X142875000Y-67425000D01*
X144570000Y-72660000D02*
X144570000Y-69850000D01*
X144570000Y-69850000D02*
X144570000Y-67469000D01*
X144570000Y-67469000D02*
X144526000Y-67425000D01*
X144526000Y-67425000D02*
X142875000Y-67425000D01*
D26*
G36*
X121442196Y-58877200D02*
X121362898Y-58956498D01*
X121126139Y-59310833D01*
X121043000Y-59728800D01*
X121043000Y-60502800D01*
X121043000Y-61696600D01*
X121043000Y-62890400D01*
X121043000Y-63246000D01*
X120707800Y-63246000D01*
X120707800Y-62769750D01*
X120707800Y-62602396D01*
X120664019Y-62496700D01*
X120707800Y-62391004D01*
X120707800Y-62223650D01*
X120707800Y-61575950D01*
X120707800Y-61408596D01*
X120664019Y-61302900D01*
X120707800Y-61197204D01*
X120707800Y-61029850D01*
X120707800Y-60382150D01*
X120707800Y-60214796D01*
X120618861Y-60000078D01*
X120454523Y-59835739D01*
X120239805Y-59746800D01*
X120047450Y-59746800D01*
X119901400Y-59892850D01*
X119901400Y-60528200D01*
X120561750Y-60528200D01*
X120707800Y-60382150D01*
X120707800Y-61029850D01*
X120561750Y-60883800D01*
X119901400Y-60883800D01*
X119901400Y-61086650D01*
X119901400Y-61519150D01*
X119901400Y-61722000D01*
X120561750Y-61722000D01*
X120707800Y-61575950D01*
X120707800Y-62223650D01*
X120561750Y-62077600D01*
X119901400Y-62077600D01*
X119901400Y-62280450D01*
X119901400Y-62712950D01*
X119901400Y-62915800D01*
X120561750Y-62915800D01*
X120707800Y-62769750D01*
X120707800Y-63246000D01*
X119525800Y-63246000D01*
X119525800Y-62915800D01*
X119545800Y-62915800D01*
X119545800Y-62712950D01*
X119545800Y-62280450D01*
X119545800Y-62077600D01*
X119525800Y-62077600D01*
X119525800Y-61722000D01*
X119545800Y-61722000D01*
X119545800Y-61519150D01*
X119545800Y-61086650D01*
X119545800Y-60883800D01*
X119525800Y-60883800D01*
X119525800Y-60528200D01*
X119545800Y-60528200D01*
X119545800Y-59892850D01*
X119399750Y-59746800D01*
X119303800Y-59746800D01*
X119303800Y-59588400D01*
X119220661Y-59170433D01*
X119024729Y-58877200D01*
X121442196Y-58877200D01*
X121442196Y-58877200D01*
G37*
X121442196Y-58877200D02*
X121362898Y-58956498D01*
X121126139Y-59310833D01*
X121043000Y-59728800D01*
X121043000Y-60502800D01*
X121043000Y-61696600D01*
X121043000Y-62890400D01*
X121043000Y-63246000D01*
X120707800Y-63246000D01*
X120707800Y-62769750D01*
X120707800Y-62602396D01*
X120664019Y-62496700D01*
X120707800Y-62391004D01*
X120707800Y-62223650D01*
X120707800Y-61575950D01*
X120707800Y-61408596D01*
X120664019Y-61302900D01*
X120707800Y-61197204D01*
X120707800Y-61029850D01*
X120707800Y-60382150D01*
X120707800Y-60214796D01*
X120618861Y-60000078D01*
X120454523Y-59835739D01*
X120239805Y-59746800D01*
X120047450Y-59746800D01*
X119901400Y-59892850D01*
X119901400Y-60528200D01*
X120561750Y-60528200D01*
X120707800Y-60382150D01*
X120707800Y-61029850D01*
X120561750Y-60883800D01*
X119901400Y-60883800D01*
X119901400Y-61086650D01*
X119901400Y-61519150D01*
X119901400Y-61722000D01*
X120561750Y-61722000D01*
X120707800Y-61575950D01*
X120707800Y-62223650D01*
X120561750Y-62077600D01*
X119901400Y-62077600D01*
X119901400Y-62280450D01*
X119901400Y-62712950D01*
X119901400Y-62915800D01*
X120561750Y-62915800D01*
X120707800Y-62769750D01*
X120707800Y-63246000D01*
X119525800Y-63246000D01*
X119525800Y-62915800D01*
X119545800Y-62915800D01*
X119545800Y-62712950D01*
X119545800Y-62280450D01*
X119545800Y-62077600D01*
X119525800Y-62077600D01*
X119525800Y-61722000D01*
X119545800Y-61722000D01*
X119545800Y-61519150D01*
X119545800Y-61086650D01*
X119545800Y-60883800D01*
X119525800Y-60883800D01*
X119525800Y-60528200D01*
X119545800Y-60528200D01*
X119545800Y-59892850D01*
X119399750Y-59746800D01*
X119303800Y-59746800D01*
X119303800Y-59588400D01*
X119220661Y-59170433D01*
X119024729Y-58877200D01*
X121442196Y-58877200D01*
G36*
X146685800Y-75565800D02*
X145934911Y-75565800D01*
X145603202Y-75565800D01*
X145665226Y-75503776D01*
X145553848Y-75392398D01*
X145775588Y-75316138D01*
X145934911Y-74804834D01*
X145916434Y-74601525D01*
X145916434Y-72393399D01*
X145711919Y-71898435D01*
X145662200Y-71848629D01*
X145662200Y-70661860D01*
X145710588Y-70613557D01*
X145915966Y-70118951D01*
X145916434Y-69583399D01*
X145711919Y-69088435D01*
X145662200Y-69038629D01*
X145662200Y-68979600D01*
X145662200Y-67469000D01*
X145579061Y-67051033D01*
X145534716Y-66984665D01*
X145528426Y-66952247D01*
X145399820Y-66756467D01*
X145367793Y-66734849D01*
X145342302Y-66696698D01*
X145316167Y-66670563D01*
X145340302Y-66634443D01*
X145394533Y-66598820D01*
X145525586Y-66404669D01*
X145571645Y-66175000D01*
X145571645Y-66159047D01*
X145618200Y-65925000D01*
X145618200Y-65684400D01*
X145535061Y-65266433D01*
X145298302Y-64912098D01*
X141503400Y-61117196D01*
X141503400Y-57192436D01*
X141772107Y-57461613D01*
X142733323Y-57860744D01*
X143774111Y-57861653D01*
X144736022Y-57464199D01*
X145472613Y-56728893D01*
X145871744Y-55767677D01*
X145872653Y-54726889D01*
X145475199Y-53764978D01*
X144739893Y-53028387D01*
X143778677Y-52629256D01*
X143073563Y-52628640D01*
X144726802Y-50975402D01*
X144937322Y-50660335D01*
X145296736Y-50301549D01*
X145538424Y-49719499D01*
X145538974Y-49089266D01*
X145538700Y-49088602D01*
X145538700Y-46709205D01*
X145538700Y-45916850D01*
X145538700Y-45269150D01*
X145538700Y-44476795D01*
X145449761Y-44262077D01*
X145285422Y-44097739D01*
X145070704Y-44008800D01*
X144838295Y-44008800D01*
X144278350Y-44008800D01*
X144132300Y-44154850D01*
X144132300Y-45415200D01*
X145392650Y-45415200D01*
X145538700Y-45269150D01*
X145538700Y-45916850D01*
X145392650Y-45770800D01*
X144132300Y-45770800D01*
X144132300Y-47031150D01*
X144278350Y-47177200D01*
X144838295Y-47177200D01*
X145070704Y-47177200D01*
X145285422Y-47088261D01*
X145449761Y-46923923D01*
X145538700Y-46709205D01*
X145538700Y-49088602D01*
X145298302Y-48506795D01*
X144853049Y-48060764D01*
X144270999Y-47819076D01*
X143776700Y-47818644D01*
X143776700Y-47031150D01*
X143776700Y-45770800D01*
X143776700Y-45415200D01*
X143776700Y-44154850D01*
X143630650Y-44008800D01*
X143070705Y-44008800D01*
X142838296Y-44008800D01*
X142623578Y-44097739D01*
X142459239Y-44262077D01*
X142370300Y-44476795D01*
X142370300Y-45269150D01*
X142516350Y-45415200D01*
X143776700Y-45415200D01*
X143776700Y-45770800D01*
X142516350Y-45770800D01*
X142370300Y-45916850D01*
X142370300Y-46709205D01*
X142459239Y-46923923D01*
X142623578Y-47088261D01*
X142838296Y-47177200D01*
X143070705Y-47177200D01*
X143630650Y-47177200D01*
X143776700Y-47031150D01*
X143776700Y-47818644D01*
X143640766Y-47818526D01*
X143058295Y-48059198D01*
X142806253Y-48310800D01*
X142011400Y-48310800D01*
X141593433Y-48393939D01*
X141239098Y-48630698D01*
X138060698Y-51809098D01*
X137823939Y-52163433D01*
X137790205Y-52333021D01*
X137763923Y-52306739D01*
X137549205Y-52217800D01*
X137356850Y-52217800D01*
X137210800Y-52363850D01*
X137210800Y-53924200D01*
X137230800Y-53924200D01*
X137230800Y-54279800D01*
X137210800Y-54279800D01*
X137210800Y-55840150D01*
X137356850Y-55986200D01*
X137549205Y-55986200D01*
X137740800Y-55906838D01*
X137740800Y-56361161D01*
X137549205Y-56281800D01*
X137356850Y-56281800D01*
X137210800Y-56427850D01*
X137210800Y-57988200D01*
X137230800Y-57988200D01*
X137230800Y-58343800D01*
X137210800Y-58343800D01*
X137210800Y-59904150D01*
X137356850Y-60050200D01*
X137549205Y-60050200D01*
X137740800Y-59970838D01*
X137740800Y-60425161D01*
X137549205Y-60345800D01*
X137356850Y-60345800D01*
X137210800Y-60491850D01*
X137210800Y-62052200D01*
X137230800Y-62052200D01*
X137230800Y-62407800D01*
X137210800Y-62407800D01*
X137210800Y-63968150D01*
X137356850Y-64114200D01*
X137549205Y-64114200D01*
X137763923Y-64025261D01*
X137884932Y-63904250D01*
X138060698Y-64167302D01*
X140590698Y-66697302D01*
X140945033Y-66934061D01*
X141363000Y-67017200D01*
X141861001Y-67017200D01*
X141829355Y-67175000D01*
X141829355Y-67190952D01*
X141782800Y-67425000D01*
X141829355Y-67659047D01*
X141829355Y-67675000D01*
X141872574Y-67897753D01*
X142001180Y-68093533D01*
X142059801Y-68133102D01*
X142102698Y-68197302D01*
X142457033Y-68434061D01*
X142485524Y-68439728D01*
X142549577Y-68503781D01*
X142303399Y-68503566D01*
X141808435Y-68708081D01*
X141569916Y-68946183D01*
X141333557Y-68709412D01*
X140838951Y-68504034D01*
X140303399Y-68503566D01*
X139808435Y-68708081D01*
X139569916Y-68946183D01*
X139333557Y-68709412D01*
X138838951Y-68504034D01*
X138303399Y-68503566D01*
X137808435Y-68708081D01*
X137569916Y-68946183D01*
X137333557Y-68709412D01*
X136838951Y-68504034D01*
X136303399Y-68503566D01*
X135808435Y-68708081D01*
X135569916Y-68946183D01*
X135333557Y-68709412D01*
X134838951Y-68504034D01*
X134303399Y-68503566D01*
X133808435Y-68708081D01*
X133569916Y-68946183D01*
X133333557Y-68709412D01*
X132838951Y-68504034D01*
X132303399Y-68503566D01*
X131808435Y-68708081D01*
X131569916Y-68946183D01*
X131333557Y-68709412D01*
X130838951Y-68504034D01*
X130303399Y-68503566D01*
X129808435Y-68708081D01*
X129569916Y-68946183D01*
X129333557Y-68709412D01*
X128838951Y-68504034D01*
X128303399Y-68503566D01*
X127808435Y-68708081D01*
X127569916Y-68946183D01*
X127333557Y-68709412D01*
X126838951Y-68504034D01*
X126303399Y-68503566D01*
X125808435Y-68708081D01*
X125569916Y-68946183D01*
X125333557Y-68709412D01*
X124838951Y-68504034D01*
X124303399Y-68503566D01*
X123808435Y-68708081D01*
X123569916Y-68946183D01*
X123333557Y-68709412D01*
X122838951Y-68504034D01*
X122303399Y-68503566D01*
X121808435Y-68708081D01*
X121569916Y-68946183D01*
X121333557Y-68709412D01*
X120838951Y-68504034D01*
X120303399Y-68503566D01*
X119808435Y-68708081D01*
X119569916Y-68946183D01*
X119333557Y-68709412D01*
X118838951Y-68504034D01*
X118303399Y-68503566D01*
X117808435Y-68708081D01*
X117569916Y-68946183D01*
X117333557Y-68709412D01*
X116838951Y-68504034D01*
X116303399Y-68503566D01*
X115808435Y-68708081D01*
X115569916Y-68946183D01*
X115333557Y-68709412D01*
X114838951Y-68504034D01*
X114303399Y-68503566D01*
X113808435Y-68708081D01*
X113569916Y-68946183D01*
X113333557Y-68709412D01*
X112838951Y-68504034D01*
X112303399Y-68503566D01*
X111808435Y-68708081D01*
X111569916Y-68946183D01*
X111333557Y-68709412D01*
X110838951Y-68504034D01*
X110303399Y-68503566D01*
X109808435Y-68708081D01*
X109569916Y-68946183D01*
X109333557Y-68709412D01*
X108838951Y-68504034D01*
X108303399Y-68503566D01*
X107808435Y-68708081D01*
X107569916Y-68946183D01*
X107333557Y-68709412D01*
X106838951Y-68504034D01*
X106303399Y-68503566D01*
X105808435Y-68708081D01*
X105569916Y-68946183D01*
X105333557Y-68709412D01*
X104838951Y-68504034D01*
X104303399Y-68503566D01*
X103808435Y-68708081D01*
X103569916Y-68946183D01*
X103333557Y-68709412D01*
X102838951Y-68504034D01*
X102303399Y-68503566D01*
X101808435Y-68708081D01*
X101569916Y-68946183D01*
X101333557Y-68709412D01*
X100838951Y-68504034D01*
X100303399Y-68503566D01*
X99808435Y-68708081D01*
X99569916Y-68946183D01*
X99333557Y-68709412D01*
X98838951Y-68504034D01*
X98303399Y-68503566D01*
X97808435Y-68708081D01*
X97569916Y-68946183D01*
X97333557Y-68709412D01*
X96838951Y-68504034D01*
X96303399Y-68503566D01*
X95808435Y-68708081D01*
X95569916Y-68946183D01*
X95333557Y-68709412D01*
X94838951Y-68504034D01*
X94303399Y-68503566D01*
X93808435Y-68708081D01*
X93569916Y-68946183D01*
X93333557Y-68709412D01*
X92838951Y-68504034D01*
X92303399Y-68503566D01*
X91808435Y-68708081D01*
X91569916Y-68946183D01*
X91333557Y-68709412D01*
X90838951Y-68504034D01*
X90303399Y-68503566D01*
X89808435Y-68708081D01*
X89569916Y-68946183D01*
X89333557Y-68709412D01*
X88897459Y-68528328D01*
X89531588Y-67894200D01*
X132715000Y-67894200D01*
X132987164Y-67840063D01*
X132987165Y-67840063D01*
X133217894Y-67685894D01*
X135422553Y-65481235D01*
X135573148Y-65481367D01*
X135928027Y-65334734D01*
X136199779Y-65063456D01*
X136347032Y-64708832D01*
X136347367Y-64324852D01*
X136200734Y-63969973D01*
X135952965Y-63721771D01*
X136070643Y-63698939D01*
X136137739Y-63860922D01*
X136302077Y-64025261D01*
X136516795Y-64114200D01*
X136709150Y-64114200D01*
X136855200Y-63968150D01*
X136855200Y-62407800D01*
X136835200Y-62407800D01*
X136835200Y-62052200D01*
X136855200Y-62052200D01*
X136855200Y-60491850D01*
X136855200Y-59904150D01*
X136855200Y-58343800D01*
X136835200Y-58343800D01*
X136835200Y-57988200D01*
X136855200Y-57988200D01*
X136855200Y-56427850D01*
X136855200Y-55840150D01*
X136855200Y-54279800D01*
X136835200Y-54279800D01*
X136835200Y-53924200D01*
X136855200Y-53924200D01*
X136855200Y-52363850D01*
X136709150Y-52217800D01*
X136516795Y-52217800D01*
X136302077Y-52306739D01*
X136137739Y-52471078D01*
X136070300Y-52633889D01*
X135933000Y-52606355D01*
X134533000Y-52606355D01*
X134310247Y-52649574D01*
X134239403Y-52696110D01*
X134174669Y-52652414D01*
X133945000Y-52606355D01*
X132545000Y-52606355D01*
X132407356Y-52633060D01*
X132340261Y-52471078D01*
X132175923Y-52306739D01*
X131961205Y-52217800D01*
X131768850Y-52217800D01*
X131622800Y-52363850D01*
X131622800Y-53924200D01*
X131642800Y-53924200D01*
X131642800Y-54279800D01*
X131622800Y-54279800D01*
X131622800Y-55840150D01*
X131768850Y-55986200D01*
X131961205Y-55986200D01*
X132175923Y-55897261D01*
X132340261Y-55732922D01*
X132407699Y-55570110D01*
X132545000Y-55597645D01*
X133945000Y-55597645D01*
X134167753Y-55554426D01*
X134238596Y-55507889D01*
X134303331Y-55551586D01*
X134533000Y-55597645D01*
X135933000Y-55597645D01*
X136070643Y-55570939D01*
X136137739Y-55732922D01*
X136302077Y-55897261D01*
X136516795Y-55986200D01*
X136709150Y-55986200D01*
X136855200Y-55840150D01*
X136855200Y-56427850D01*
X136709150Y-56281800D01*
X136516795Y-56281800D01*
X136302077Y-56370739D01*
X136137739Y-56535078D01*
X136070300Y-56697889D01*
X135933000Y-56670355D01*
X134533000Y-56670355D01*
X134310247Y-56713574D01*
X134239403Y-56760110D01*
X134174669Y-56716414D01*
X133945000Y-56670355D01*
X132545000Y-56670355D01*
X132407356Y-56697060D01*
X132340261Y-56535078D01*
X132175923Y-56370739D01*
X131961205Y-56281800D01*
X131768850Y-56281800D01*
X131622800Y-56427850D01*
X131622800Y-57988200D01*
X131642800Y-57988200D01*
X131642800Y-58343800D01*
X131622800Y-58343800D01*
X131622800Y-59904150D01*
X131768850Y-60050200D01*
X131961205Y-60050200D01*
X132175923Y-59961261D01*
X132340261Y-59796922D01*
X132407699Y-59634110D01*
X132545000Y-59661645D01*
X133945000Y-59661645D01*
X134167753Y-59618426D01*
X134238596Y-59571889D01*
X134303331Y-59615586D01*
X134533000Y-59661645D01*
X135933000Y-59661645D01*
X136070643Y-59634939D01*
X136137739Y-59796922D01*
X136302077Y-59961261D01*
X136516795Y-60050200D01*
X136709150Y-60050200D01*
X136855200Y-59904150D01*
X136855200Y-60491850D01*
X136709150Y-60345800D01*
X136516795Y-60345800D01*
X136302077Y-60434739D01*
X136137739Y-60599078D01*
X136070300Y-60761889D01*
X135933000Y-60734355D01*
X134533000Y-60734355D01*
X134310247Y-60777574D01*
X134239403Y-60824110D01*
X134174669Y-60780414D01*
X133945000Y-60734355D01*
X132545000Y-60734355D01*
X132407356Y-60761060D01*
X132340261Y-60599078D01*
X132175923Y-60434739D01*
X131961205Y-60345800D01*
X131768850Y-60345800D01*
X131622800Y-60491850D01*
X131622800Y-62052200D01*
X131642800Y-62052200D01*
X131642800Y-62407800D01*
X131622800Y-62407800D01*
X131622800Y-63968150D01*
X131768850Y-64114200D01*
X131961205Y-64114200D01*
X132175923Y-64025261D01*
X132340261Y-63860922D01*
X132407699Y-63698110D01*
X132545000Y-63725645D01*
X133945000Y-63725645D01*
X134167753Y-63682426D01*
X134238596Y-63635889D01*
X134303331Y-63679586D01*
X134533000Y-63725645D01*
X134807544Y-63725645D01*
X134564221Y-63968544D01*
X134416968Y-64323168D01*
X134416835Y-64475375D01*
X132420411Y-66471800D01*
X131267200Y-66471800D01*
X131267200Y-63968150D01*
X131267200Y-62407800D01*
X131247200Y-62407800D01*
X131247200Y-62052200D01*
X131267200Y-62052200D01*
X131267200Y-60491850D01*
X131121150Y-60345800D01*
X130928795Y-60345800D01*
X130714077Y-60434739D01*
X130549739Y-60599078D01*
X130482300Y-60761889D01*
X130345000Y-60734355D01*
X129693959Y-60734355D01*
X129325102Y-60365498D01*
X128970767Y-60128739D01*
X128552800Y-60045600D01*
X127660400Y-60045600D01*
X127603600Y-60045600D01*
X127603600Y-59898850D01*
X127457550Y-59752800D01*
X126822200Y-59752800D01*
X126822200Y-59772800D01*
X126466600Y-59772800D01*
X126466600Y-59752800D01*
X125831250Y-59752800D01*
X125685200Y-59898850D01*
X125685200Y-60091205D01*
X125774139Y-60305923D01*
X125797885Y-60329669D01*
X125719814Y-60445331D01*
X125673755Y-60675000D01*
X125673755Y-60725139D01*
X125635339Y-60782633D01*
X125552200Y-61200600D01*
X125552200Y-61488509D01*
X125428298Y-61571298D01*
X124613835Y-62385760D01*
X124575619Y-62293500D01*
X124619400Y-62187804D01*
X124619400Y-62020450D01*
X124619400Y-61372750D01*
X124619400Y-61205396D01*
X124575619Y-61099700D01*
X124619400Y-60994004D01*
X124619400Y-60826650D01*
X124619400Y-60178950D01*
X124619400Y-60011596D01*
X124530461Y-59796878D01*
X124366123Y-59632539D01*
X124151405Y-59543600D01*
X123959050Y-59543600D01*
X123813000Y-59689650D01*
X123813000Y-60325000D01*
X124473350Y-60325000D01*
X124619400Y-60178950D01*
X124619400Y-60826650D01*
X124473350Y-60680600D01*
X123813000Y-60680600D01*
X123813000Y-60883450D01*
X123813000Y-61315950D01*
X123813000Y-61518800D01*
X124473350Y-61518800D01*
X124619400Y-61372750D01*
X124619400Y-62020450D01*
X124473350Y-61874400D01*
X123813000Y-61874400D01*
X123813000Y-62077250D01*
X123813000Y-62509750D01*
X123813000Y-62712600D01*
X123833000Y-62712600D01*
X123833000Y-63068200D01*
X123813000Y-63068200D01*
X123813000Y-63088200D01*
X123457400Y-63088200D01*
X123457400Y-63068200D01*
X123437400Y-63068200D01*
X123437400Y-62712600D01*
X123457400Y-62712600D01*
X123457400Y-62509750D01*
X123457400Y-62077250D01*
X123457400Y-61874400D01*
X123437400Y-61874400D01*
X123437400Y-61518800D01*
X123457400Y-61518800D01*
X123457400Y-61315950D01*
X123457400Y-60883450D01*
X123457400Y-60680600D01*
X123437400Y-60680600D01*
X123437400Y-60325000D01*
X123457400Y-60325000D01*
X123457400Y-59689650D01*
X123433753Y-59666003D01*
X123469400Y-59486800D01*
X123386261Y-59068833D01*
X123258215Y-58877200D01*
X125760419Y-58877200D01*
X125685200Y-59058795D01*
X125685200Y-59251150D01*
X125831250Y-59397200D01*
X126466600Y-59397200D01*
X126466600Y-59377200D01*
X126822200Y-59377200D01*
X126822200Y-59397200D01*
X127457550Y-59397200D01*
X127596550Y-59258200D01*
X128386646Y-59258200D01*
X128392574Y-59288753D01*
X128521180Y-59484533D01*
X128715331Y-59615586D01*
X128945000Y-59661645D01*
X130345000Y-59661645D01*
X130482643Y-59634939D01*
X130549739Y-59796922D01*
X130714077Y-59961261D01*
X130928795Y-60050200D01*
X131121150Y-60050200D01*
X131267200Y-59904150D01*
X131267200Y-58343800D01*
X131247200Y-58343800D01*
X131247200Y-57988200D01*
X131267200Y-57988200D01*
X131267200Y-56427850D01*
X131121150Y-56281800D01*
X130928795Y-56281800D01*
X130714077Y-56370739D01*
X130549739Y-56535078D01*
X130482300Y-56697889D01*
X130345000Y-56670355D01*
X128945000Y-56670355D01*
X128722247Y-56713574D01*
X128526467Y-56842180D01*
X128395414Y-57036331D01*
X128387899Y-57073800D01*
X127960404Y-57073800D01*
X127365902Y-56479298D01*
X127011567Y-56242539D01*
X126593600Y-56159400D01*
X126175633Y-56242539D01*
X126059038Y-56320445D01*
X125821298Y-56479298D01*
X125584539Y-56833633D01*
X125501400Y-57251600D01*
X125541819Y-57454800D01*
X123849226Y-57454800D01*
X124005431Y-57390098D01*
X124123768Y-57271761D01*
X124123768Y-57065215D01*
X123656830Y-56598277D01*
X123642687Y-56612419D01*
X123391240Y-56360972D01*
X123405383Y-56346830D01*
X123391240Y-56332687D01*
X123642687Y-56081240D01*
X123656830Y-56095383D01*
X123670972Y-56081240D01*
X123922419Y-56332687D01*
X123908277Y-56346830D01*
X124375215Y-56813768D01*
X124581761Y-56813768D01*
X124632567Y-56762961D01*
X124828303Y-56844038D01*
X125060713Y-56844037D01*
X125275431Y-56755098D01*
X125393768Y-56636761D01*
X125393768Y-56430215D01*
X124926830Y-55963277D01*
X124912687Y-55977419D01*
X124661240Y-55725972D01*
X124675383Y-55711830D01*
X124661240Y-55697687D01*
X124912687Y-55446240D01*
X124926830Y-55460383D01*
X124940972Y-55446240D01*
X125192419Y-55697687D01*
X125178277Y-55711830D01*
X125645215Y-56178768D01*
X125851761Y-56178768D01*
X125970098Y-56060431D01*
X126059037Y-55845713D01*
X126059038Y-55613303D01*
X125970099Y-55398585D01*
X125834083Y-55262570D01*
X125627540Y-55262570D01*
X125695910Y-55194200D01*
X128066800Y-55194200D01*
X128386646Y-55194200D01*
X128392574Y-55224753D01*
X128521180Y-55420533D01*
X128715331Y-55551586D01*
X128945000Y-55597645D01*
X130345000Y-55597645D01*
X130482643Y-55570939D01*
X130549739Y-55732922D01*
X130714077Y-55897261D01*
X130928795Y-55986200D01*
X131121150Y-55986200D01*
X131267200Y-55840150D01*
X131267200Y-54279800D01*
X131247200Y-54279800D01*
X131247200Y-53924200D01*
X131267200Y-53924200D01*
X131267200Y-52363850D01*
X131121150Y-52217800D01*
X130928795Y-52217800D01*
X130714077Y-52306739D01*
X130549739Y-52471078D01*
X130482300Y-52633889D01*
X130345000Y-52606355D01*
X128945000Y-52606355D01*
X128722247Y-52649574D01*
X128526467Y-52778180D01*
X128395414Y-52972331D01*
X128387899Y-53009800D01*
X128066800Y-53009800D01*
X127754647Y-53009800D01*
X127754647Y-36278226D01*
X127362055Y-35328081D01*
X126635743Y-34600500D01*
X125686284Y-34206250D01*
X124658226Y-34205353D01*
X123708081Y-34597945D01*
X122980500Y-35324257D01*
X122586250Y-36273716D01*
X122585353Y-37301774D01*
X122977945Y-38251919D01*
X123704257Y-38979500D01*
X124653716Y-39373750D01*
X125681774Y-39374647D01*
X126631919Y-38982055D01*
X127359500Y-38255743D01*
X127753750Y-37306284D01*
X127754647Y-36278226D01*
X127754647Y-53009800D01*
X126194200Y-53009800D01*
X125547404Y-53009800D01*
X125387802Y-52850198D01*
X125387802Y-52756152D01*
X125533850Y-52902200D01*
X125726205Y-52902200D01*
X125940923Y-52813261D01*
X126105261Y-52648922D01*
X126194200Y-52434204D01*
X126194200Y-52266850D01*
X126194200Y-51619150D01*
X126194200Y-51451796D01*
X126122538Y-51278788D01*
X126122538Y-48971197D01*
X126122537Y-48738787D01*
X126033598Y-48524069D01*
X125915261Y-48405732D01*
X125708715Y-48405732D01*
X125457268Y-48657179D01*
X125457268Y-48154285D01*
X125457268Y-47947739D01*
X125338931Y-47829402D01*
X125124213Y-47740463D01*
X124891803Y-47740462D01*
X124677085Y-47829401D01*
X124541070Y-47965417D01*
X124541070Y-48171963D01*
X124990330Y-48621223D01*
X125457268Y-48154285D01*
X125457268Y-48657179D01*
X125241777Y-48872670D01*
X125691037Y-49321930D01*
X125897583Y-49321930D01*
X126033599Y-49185915D01*
X126122538Y-48971197D01*
X126122538Y-51278788D01*
X126105261Y-51237078D01*
X125940923Y-51072739D01*
X125726205Y-50983800D01*
X125533850Y-50983800D01*
X125387800Y-51129850D01*
X125387800Y-51765200D01*
X126048150Y-51765200D01*
X126194200Y-51619150D01*
X126194200Y-52266850D01*
X126048150Y-52120800D01*
X125387800Y-52120800D01*
X125387800Y-52140800D01*
X125032200Y-52140800D01*
X125032200Y-52120800D01*
X125012200Y-52120800D01*
X125012200Y-51765200D01*
X125032200Y-51765200D01*
X125032200Y-51129850D01*
X124886150Y-50983800D01*
X124802200Y-50983800D01*
X124802200Y-50555630D01*
X124938731Y-50351297D01*
X124959465Y-50247055D01*
X125025812Y-50148766D01*
X125055608Y-50004877D01*
X125088857Y-50004878D01*
X125303575Y-49915939D01*
X125439590Y-49779923D01*
X125439590Y-49573377D01*
X124990330Y-49124117D01*
X124976187Y-49138259D01*
X124724740Y-48886812D01*
X124738883Y-48872670D01*
X124289623Y-48423410D01*
X124083077Y-48423410D01*
X124046045Y-48460441D01*
X123835302Y-48249698D01*
X123480967Y-48012939D01*
X123063000Y-47929800D01*
X122645033Y-48012939D01*
X122290698Y-48249698D01*
X122254561Y-48303780D01*
X122254561Y-33877246D01*
X121937929Y-33110938D01*
X121352146Y-32524131D01*
X120586392Y-32206162D01*
X119757246Y-32205439D01*
X118990938Y-32522071D01*
X118404131Y-33107854D01*
X118086162Y-33873608D01*
X118085439Y-34702754D01*
X118402071Y-35469062D01*
X118987854Y-36055869D01*
X119753608Y-36373838D01*
X120582754Y-36374561D01*
X121349062Y-36057929D01*
X121935869Y-35472146D01*
X122253838Y-34706392D01*
X122254561Y-33877246D01*
X122254561Y-48303780D01*
X122053939Y-48604033D01*
X121970800Y-49022000D01*
X122053939Y-49439967D01*
X122290698Y-49794302D01*
X122623042Y-50126646D01*
X122617800Y-50153000D01*
X122617800Y-51943000D01*
X122617800Y-52717000D01*
X122700939Y-53134967D01*
X122937698Y-53489302D01*
X123044497Y-53596101D01*
X122813203Y-53642109D01*
X122458868Y-53878868D01*
X122143766Y-54193970D01*
X121516670Y-54193970D01*
X121098703Y-54277109D01*
X120744368Y-54513868D01*
X120363368Y-54894868D01*
X120076815Y-55181420D01*
X120041533Y-55188439D01*
X119687198Y-55425198D01*
X119450439Y-55779533D01*
X119367300Y-56197500D01*
X119450439Y-56615467D01*
X119687198Y-56969802D01*
X120041533Y-57206561D01*
X120459500Y-57289700D01*
X120605340Y-57289700D01*
X121023307Y-57206561D01*
X121200290Y-57088304D01*
X121289077Y-57177090D01*
X121495623Y-57177090D01*
X121944883Y-56727830D01*
X121930740Y-56713687D01*
X122182187Y-56462240D01*
X122196330Y-56476383D01*
X122210472Y-56462240D01*
X122461919Y-56713687D01*
X122447777Y-56727830D01*
X122914715Y-57194768D01*
X123121261Y-57194768D01*
X123207570Y-57108459D01*
X123207570Y-57254083D01*
X123343585Y-57390099D01*
X123499787Y-57454800D01*
X122663268Y-57454800D01*
X122663268Y-57446215D01*
X122196330Y-56979277D01*
X121747070Y-57428537D01*
X121747070Y-57454800D01*
X117875700Y-57454800D01*
X117875700Y-55482204D01*
X117875700Y-55314850D01*
X117875700Y-54667150D01*
X117875700Y-54499796D01*
X117842440Y-54419500D01*
X117875700Y-54339204D01*
X117875700Y-54171850D01*
X117875700Y-53524150D01*
X117875700Y-53356796D01*
X117842440Y-53276500D01*
X117875700Y-53196204D01*
X117875700Y-53028850D01*
X117875700Y-52381150D01*
X117875700Y-52213796D01*
X117786761Y-51999078D01*
X117622423Y-51834739D01*
X117407705Y-51745800D01*
X117215350Y-51745800D01*
X117069300Y-51891850D01*
X117069300Y-52527200D01*
X117729650Y-52527200D01*
X117875700Y-52381150D01*
X117875700Y-53028850D01*
X117729650Y-52882800D01*
X117069300Y-52882800D01*
X117069300Y-53034850D01*
X117069300Y-53518150D01*
X117069300Y-53670200D01*
X117729650Y-53670200D01*
X117875700Y-53524150D01*
X117875700Y-54171850D01*
X117729650Y-54025800D01*
X117069300Y-54025800D01*
X117069300Y-54177850D01*
X117069300Y-54661150D01*
X117069300Y-54813200D01*
X117729650Y-54813200D01*
X117875700Y-54667150D01*
X117875700Y-55314850D01*
X117729650Y-55168800D01*
X117069300Y-55168800D01*
X117069300Y-55804150D01*
X117215350Y-55950200D01*
X117407705Y-55950200D01*
X117622423Y-55861261D01*
X117786761Y-55696922D01*
X117875700Y-55482204D01*
X117875700Y-57454800D01*
X117147290Y-57454800D01*
X116414723Y-56722232D01*
X116426661Y-56704367D01*
X116509800Y-56286400D01*
X116442925Y-55950200D01*
X116567650Y-55950200D01*
X116713700Y-55804150D01*
X116713700Y-55168800D01*
X116693700Y-55168800D01*
X116693700Y-54813200D01*
X116713700Y-54813200D01*
X116713700Y-54661150D01*
X116713700Y-54177850D01*
X116713700Y-54025800D01*
X116693700Y-54025800D01*
X116693700Y-53670200D01*
X116713700Y-53670200D01*
X116713700Y-53518150D01*
X116713700Y-53034850D01*
X116713700Y-52882800D01*
X116693700Y-52882800D01*
X116693700Y-52527200D01*
X116713700Y-52527200D01*
X116713700Y-51891850D01*
X116567650Y-51745800D01*
X116471700Y-51745800D01*
X116471700Y-51689000D01*
X116388561Y-51271033D01*
X116151802Y-50916698D01*
X115797467Y-50679939D01*
X115379500Y-50596800D01*
X115328757Y-50606893D01*
X115328867Y-50481852D01*
X115255229Y-50303634D01*
X115255228Y-50303633D01*
X115182234Y-50126973D01*
X114910956Y-49855221D01*
X114732867Y-49781272D01*
X114732866Y-49781271D01*
X114732863Y-49781270D01*
X114556332Y-49707968D01*
X114172352Y-49707633D01*
X113994134Y-49781270D01*
X113994134Y-49781271D01*
X113994133Y-49781271D01*
X113817473Y-49854266D01*
X113545721Y-50125544D01*
X113471772Y-50303632D01*
X113471771Y-50303634D01*
X113471770Y-50303636D01*
X113398468Y-50480168D01*
X113398133Y-50864148D01*
X113398300Y-50864552D01*
X113398300Y-51142900D01*
X113471771Y-51512266D01*
X113681001Y-51825399D01*
X114287300Y-52431698D01*
X114287300Y-52693000D01*
X114299300Y-52753327D01*
X114299300Y-53848000D01*
X114299300Y-54991000D01*
X114382439Y-55408967D01*
X114413092Y-55454843D01*
X114426300Y-55522915D01*
X114426300Y-55802790D01*
X114382439Y-55868433D01*
X114299300Y-56286400D01*
X114382439Y-56704367D01*
X114444769Y-56797651D01*
X114499771Y-57074164D01*
X114709001Y-57387297D01*
X115022134Y-57596527D01*
X115340833Y-57659919D01*
X116349808Y-58668895D01*
X116580538Y-58823063D01*
X116852702Y-58877200D01*
X117398470Y-58877200D01*
X117202539Y-59170433D01*
X117119400Y-59588400D01*
X117119400Y-60223296D01*
X117037461Y-60025478D01*
X116873123Y-59861139D01*
X116658405Y-59772200D01*
X116466050Y-59772200D01*
X116320000Y-59918250D01*
X116320000Y-60553600D01*
X116980350Y-60553600D01*
X117119400Y-60414550D01*
X117119400Y-60694000D01*
X117131400Y-60754327D01*
X117131400Y-61899800D01*
X117131400Y-63093600D01*
X117131400Y-63271400D01*
X117126400Y-63271400D01*
X117126400Y-62795150D01*
X117126400Y-62627796D01*
X117082619Y-62522100D01*
X117126400Y-62416404D01*
X117126400Y-62249050D01*
X117126400Y-61601350D01*
X117126400Y-61433996D01*
X117082619Y-61328300D01*
X117126400Y-61222604D01*
X117126400Y-61055250D01*
X116980350Y-60909200D01*
X116320000Y-60909200D01*
X116320000Y-61112050D01*
X116320000Y-61544550D01*
X116320000Y-61747400D01*
X116980350Y-61747400D01*
X117126400Y-61601350D01*
X117126400Y-62249050D01*
X116980350Y-62103000D01*
X116320000Y-62103000D01*
X116320000Y-62305850D01*
X116320000Y-62738350D01*
X116320000Y-62941200D01*
X116980350Y-62941200D01*
X117126400Y-62795150D01*
X117126400Y-63271400D01*
X115944400Y-63271400D01*
X115944400Y-62941200D01*
X115964400Y-62941200D01*
X115964400Y-62738350D01*
X115964400Y-62305850D01*
X115964400Y-62103000D01*
X115944400Y-62103000D01*
X115944400Y-61747400D01*
X115964400Y-61747400D01*
X115964400Y-61544550D01*
X115964400Y-61112050D01*
X115964400Y-60909200D01*
X115944400Y-60909200D01*
X115944400Y-60553600D01*
X115964400Y-60553600D01*
X115964400Y-59918250D01*
X115818350Y-59772200D01*
X115625995Y-59772200D01*
X115411277Y-59861139D01*
X115387530Y-59884885D01*
X115271869Y-59806814D01*
X115259797Y-59804393D01*
X114692342Y-59236938D01*
X114674061Y-59145033D01*
X114437302Y-58790698D01*
X114082967Y-58553939D01*
X113665000Y-58470800D01*
X113247033Y-58553939D01*
X113054561Y-58682544D01*
X113054561Y-33877246D01*
X112737929Y-33110938D01*
X112152146Y-32524131D01*
X111386392Y-32206162D01*
X110557246Y-32205439D01*
X109790938Y-32522071D01*
X109204131Y-33107854D01*
X108886162Y-33873608D01*
X108885439Y-34702754D01*
X109202071Y-35469062D01*
X109787854Y-36055869D01*
X110553608Y-36373838D01*
X111382754Y-36374561D01*
X112149062Y-36057929D01*
X112735869Y-35472146D01*
X113053838Y-34706392D01*
X113054561Y-33877246D01*
X113054561Y-58682544D01*
X112892698Y-58790698D01*
X112655939Y-59145033D01*
X112572800Y-59563000D01*
X112572800Y-59754200D01*
X112655939Y-60172167D01*
X112892698Y-60526502D01*
X113550000Y-61183804D01*
X113550000Y-61925200D01*
X113550000Y-63119000D01*
X113550000Y-63588200D01*
X113633139Y-64006167D01*
X113869898Y-64360502D01*
X114645298Y-65135902D01*
X114999633Y-65372661D01*
X115417600Y-65455800D01*
X118999000Y-65455800D01*
X119126694Y-65430400D01*
X122834400Y-65430400D01*
X123252367Y-65347261D01*
X123318009Y-65303400D01*
X124333000Y-65303400D01*
X124750967Y-65220261D01*
X125105302Y-64983502D01*
X125698028Y-64390775D01*
X125774139Y-64574523D01*
X125938478Y-64738861D01*
X126153196Y-64827800D01*
X126320550Y-64827800D01*
X126466600Y-64681750D01*
X126466600Y-64021400D01*
X126446600Y-64021400D01*
X126446600Y-63665800D01*
X126466600Y-63665800D01*
X126466600Y-63645800D01*
X126822200Y-63645800D01*
X126822200Y-63665800D01*
X127101250Y-63665800D01*
X127457550Y-63665800D01*
X127736600Y-63665800D01*
X127736600Y-63645800D01*
X128092200Y-63645800D01*
X128092200Y-63665800D01*
X128694907Y-63665800D01*
X128715331Y-63679586D01*
X128945000Y-63725645D01*
X130345000Y-63725645D01*
X130482643Y-63698939D01*
X130549739Y-63860922D01*
X130714077Y-64025261D01*
X130928795Y-64114200D01*
X131121150Y-64114200D01*
X131267200Y-63968150D01*
X131267200Y-66471800D01*
X128873600Y-66471800D01*
X128873600Y-64359805D01*
X128873600Y-64167450D01*
X128727550Y-64021400D01*
X128092200Y-64021400D01*
X128092200Y-64681750D01*
X128238250Y-64827800D01*
X128405604Y-64827800D01*
X128620322Y-64738861D01*
X128784661Y-64574523D01*
X128873600Y-64359805D01*
X128873600Y-66471800D01*
X127736600Y-66471800D01*
X127736600Y-64681750D01*
X127736600Y-64021400D01*
X127457550Y-64021400D01*
X127101250Y-64021400D01*
X126822200Y-64021400D01*
X126822200Y-64681750D01*
X126968250Y-64827800D01*
X127135604Y-64827800D01*
X127279400Y-64768237D01*
X127423196Y-64827800D01*
X127590550Y-64827800D01*
X127736600Y-64681750D01*
X127736600Y-66471800D01*
X108554647Y-66471800D01*
X108554647Y-36278226D01*
X108162055Y-35328081D01*
X107435743Y-34600500D01*
X106486284Y-34206250D01*
X105458226Y-34205353D01*
X104508081Y-34597945D01*
X103780500Y-35324257D01*
X103386250Y-36273716D01*
X103385353Y-37301774D01*
X103777945Y-38251919D01*
X104504257Y-38979500D01*
X105453716Y-39373750D01*
X106481774Y-39374647D01*
X107431919Y-38982055D01*
X108159500Y-38255743D01*
X108553750Y-37306284D01*
X108554647Y-36278226D01*
X108554647Y-66471800D01*
X89237000Y-66471800D01*
X88964836Y-66525937D01*
X88734106Y-66680105D01*
X86889279Y-68524932D01*
X86838951Y-68504034D01*
X86303399Y-68503566D01*
X85808435Y-68708081D01*
X85429412Y-69086443D01*
X85224034Y-69581049D01*
X85223566Y-70116601D01*
X85428081Y-70611565D01*
X85806443Y-70990588D01*
X86301049Y-71195966D01*
X86836601Y-71196434D01*
X87331565Y-70991919D01*
X87570083Y-70753816D01*
X87806443Y-70990588D01*
X88301049Y-71195966D01*
X88836601Y-71196434D01*
X89331565Y-70991919D01*
X89570083Y-70753816D01*
X89806443Y-70990588D01*
X90301049Y-71195966D01*
X90836601Y-71196434D01*
X91331565Y-70991919D01*
X91570083Y-70753816D01*
X91806443Y-70990588D01*
X92301049Y-71195966D01*
X92836601Y-71196434D01*
X93331565Y-70991919D01*
X93570083Y-70753816D01*
X93806443Y-70990588D01*
X94301049Y-71195966D01*
X94836601Y-71196434D01*
X95331565Y-70991919D01*
X95570083Y-70753816D01*
X95806443Y-70990588D01*
X96301049Y-71195966D01*
X96836601Y-71196434D01*
X97331565Y-70991919D01*
X97570083Y-70753816D01*
X97806443Y-70990588D01*
X98301049Y-71195966D01*
X98836601Y-71196434D01*
X99331565Y-70991919D01*
X99570083Y-70753816D01*
X99806443Y-70990588D01*
X100301049Y-71195966D01*
X100836601Y-71196434D01*
X101331565Y-70991919D01*
X101570083Y-70753816D01*
X101806443Y-70990588D01*
X102301049Y-71195966D01*
X102836601Y-71196434D01*
X103331565Y-70991919D01*
X103570083Y-70753816D01*
X103806443Y-70990588D01*
X104301049Y-71195966D01*
X104836601Y-71196434D01*
X105331565Y-70991919D01*
X105570083Y-70753816D01*
X105806443Y-70990588D01*
X106301049Y-71195966D01*
X106836601Y-71196434D01*
X107331565Y-70991919D01*
X107570083Y-70753816D01*
X107806443Y-70990588D01*
X108301049Y-71195966D01*
X108836601Y-71196434D01*
X109331565Y-70991919D01*
X109570083Y-70753816D01*
X109806443Y-70990588D01*
X110301049Y-71195966D01*
X110836601Y-71196434D01*
X111331565Y-70991919D01*
X111570083Y-70753816D01*
X111806443Y-70990588D01*
X112301049Y-71195966D01*
X112836601Y-71196434D01*
X113331565Y-70991919D01*
X113570083Y-70753816D01*
X113806443Y-70990588D01*
X114301049Y-71195966D01*
X114836601Y-71196434D01*
X115331565Y-70991919D01*
X115570083Y-70753816D01*
X115806443Y-70990588D01*
X116301049Y-71195966D01*
X116836601Y-71196434D01*
X117331565Y-70991919D01*
X117570083Y-70753816D01*
X117806443Y-70990588D01*
X118301049Y-71195966D01*
X118836601Y-71196434D01*
X119331565Y-70991919D01*
X119570083Y-70753816D01*
X119806443Y-70990588D01*
X120301049Y-71195966D01*
X120836601Y-71196434D01*
X121331565Y-70991919D01*
X121570083Y-70753816D01*
X121806443Y-70990588D01*
X122301049Y-71195966D01*
X122836601Y-71196434D01*
X123331565Y-70991919D01*
X123570083Y-70753816D01*
X123806443Y-70990588D01*
X124301049Y-71195966D01*
X124836601Y-71196434D01*
X125331565Y-70991919D01*
X125570083Y-70753816D01*
X125806443Y-70990588D01*
X126301049Y-71195966D01*
X126836601Y-71196434D01*
X127331565Y-70991919D01*
X127570083Y-70753816D01*
X127806443Y-70990588D01*
X128301049Y-71195966D01*
X128836601Y-71196434D01*
X129331565Y-70991919D01*
X129570083Y-70753816D01*
X129806443Y-70990588D01*
X130301049Y-71195966D01*
X130836601Y-71196434D01*
X131331565Y-70991919D01*
X131570083Y-70753816D01*
X131806443Y-70990588D01*
X132301049Y-71195966D01*
X132836601Y-71196434D01*
X133331565Y-70991919D01*
X133570083Y-70753816D01*
X133806443Y-70990588D01*
X134301049Y-71195966D01*
X134836601Y-71196434D01*
X135331565Y-70991919D01*
X135570083Y-70753816D01*
X135806443Y-70990588D01*
X136301049Y-71195966D01*
X136836601Y-71196434D01*
X137331565Y-70991919D01*
X137570083Y-70753816D01*
X137806443Y-70990588D01*
X138301049Y-71195966D01*
X138836601Y-71196434D01*
X139331565Y-70991919D01*
X139570083Y-70753816D01*
X139806443Y-70990588D01*
X140301049Y-71195966D01*
X140836601Y-71196434D01*
X141331565Y-70991919D01*
X141570083Y-70753816D01*
X141806443Y-70990588D01*
X142301049Y-71195966D01*
X142836601Y-71196434D01*
X143331565Y-70991919D01*
X143477800Y-70845939D01*
X143477800Y-71663906D01*
X143333557Y-71519412D01*
X142838951Y-71314034D01*
X142303399Y-71313566D01*
X141808435Y-71518081D01*
X141569916Y-71756183D01*
X141333557Y-71519412D01*
X140838951Y-71314034D01*
X140303399Y-71313566D01*
X139808435Y-71518081D01*
X139569916Y-71756183D01*
X139333557Y-71519412D01*
X138838951Y-71314034D01*
X138303399Y-71313566D01*
X137808435Y-71518081D01*
X137569916Y-71756183D01*
X137333557Y-71519412D01*
X136838951Y-71314034D01*
X136303399Y-71313566D01*
X135808435Y-71518081D01*
X135569916Y-71756183D01*
X135333557Y-71519412D01*
X134838951Y-71314034D01*
X134303399Y-71313566D01*
X133808435Y-71518081D01*
X133569916Y-71756183D01*
X133333557Y-71519412D01*
X132838951Y-71314034D01*
X132303399Y-71313566D01*
X131808435Y-71518081D01*
X131569916Y-71756183D01*
X131333557Y-71519412D01*
X130838951Y-71314034D01*
X130303399Y-71313566D01*
X129808435Y-71518081D01*
X129569916Y-71756183D01*
X129333557Y-71519412D01*
X128838951Y-71314034D01*
X128303399Y-71313566D01*
X127808435Y-71518081D01*
X127569916Y-71756183D01*
X127333557Y-71519412D01*
X126838951Y-71314034D01*
X126303399Y-71313566D01*
X125808435Y-71518081D01*
X125569916Y-71756183D01*
X125333557Y-71519412D01*
X124838951Y-71314034D01*
X124303399Y-71313566D01*
X123808435Y-71518081D01*
X123569916Y-71756183D01*
X123333557Y-71519412D01*
X122838951Y-71314034D01*
X122303399Y-71313566D01*
X121808435Y-71518081D01*
X121569916Y-71756183D01*
X121333557Y-71519412D01*
X120838951Y-71314034D01*
X120303399Y-71313566D01*
X119808435Y-71518081D01*
X119569916Y-71756183D01*
X119333557Y-71519412D01*
X118838951Y-71314034D01*
X118303399Y-71313566D01*
X117808435Y-71518081D01*
X117569916Y-71756183D01*
X117333557Y-71519412D01*
X116838951Y-71314034D01*
X116303399Y-71313566D01*
X115808435Y-71518081D01*
X115569916Y-71756183D01*
X115333557Y-71519412D01*
X114838951Y-71314034D01*
X114303399Y-71313566D01*
X113808435Y-71518081D01*
X113569916Y-71756183D01*
X113333557Y-71519412D01*
X112838951Y-71314034D01*
X112303399Y-71313566D01*
X111808435Y-71518081D01*
X111569916Y-71756183D01*
X111333557Y-71519412D01*
X110838951Y-71314034D01*
X110303399Y-71313566D01*
X109808435Y-71518081D01*
X109569916Y-71756183D01*
X109333557Y-71519412D01*
X108838951Y-71314034D01*
X108303399Y-71313566D01*
X107808435Y-71518081D01*
X107569916Y-71756183D01*
X107333557Y-71519412D01*
X106838951Y-71314034D01*
X106303399Y-71313566D01*
X105808435Y-71518081D01*
X105569916Y-71756183D01*
X105333557Y-71519412D01*
X104838951Y-71314034D01*
X104303399Y-71313566D01*
X103808435Y-71518081D01*
X103569916Y-71756183D01*
X103333557Y-71519412D01*
X102838951Y-71314034D01*
X102303399Y-71313566D01*
X101808435Y-71518081D01*
X101569916Y-71756183D01*
X101333557Y-71519412D01*
X100838951Y-71314034D01*
X100303399Y-71313566D01*
X99808435Y-71518081D01*
X99569916Y-71756183D01*
X99333557Y-71519412D01*
X98838951Y-71314034D01*
X98303399Y-71313566D01*
X97808435Y-71518081D01*
X97569916Y-71756183D01*
X97333557Y-71519412D01*
X96838951Y-71314034D01*
X96303399Y-71313566D01*
X95808435Y-71518081D01*
X95569916Y-71756183D01*
X95333557Y-71519412D01*
X94838951Y-71314034D01*
X94303399Y-71313566D01*
X93808435Y-71518081D01*
X93569916Y-71756183D01*
X93333557Y-71519412D01*
X92838951Y-71314034D01*
X92303399Y-71313566D01*
X91808435Y-71518081D01*
X91569916Y-71756183D01*
X91333557Y-71519412D01*
X90838951Y-71314034D01*
X90303399Y-71313566D01*
X89808435Y-71518081D01*
X89569916Y-71756183D01*
X89333557Y-71519412D01*
X88838951Y-71314034D01*
X88303399Y-71313566D01*
X87808435Y-71518081D01*
X87569916Y-71756183D01*
X87333557Y-71519412D01*
X86838951Y-71314034D01*
X86303399Y-71313566D01*
X85808435Y-71518081D01*
X85429412Y-71896443D01*
X85224034Y-72391049D01*
X85223566Y-72926601D01*
X85428081Y-73421565D01*
X85806443Y-73800588D01*
X86072519Y-73911072D01*
X86570000Y-74408553D01*
X87067541Y-73911011D01*
X87331565Y-73801919D01*
X87570083Y-73563816D01*
X87806443Y-73800588D01*
X88072519Y-73911072D01*
X88570000Y-74408553D01*
X89067541Y-73911011D01*
X89331565Y-73801919D01*
X89570083Y-73563816D01*
X89806443Y-73800588D01*
X90072519Y-73911072D01*
X90570000Y-74408553D01*
X91067541Y-73911011D01*
X91331565Y-73801919D01*
X91570083Y-73563816D01*
X91806443Y-73800588D01*
X92072519Y-73911072D01*
X92570000Y-74408553D01*
X93067541Y-73911011D01*
X93331565Y-73801919D01*
X93570083Y-73563816D01*
X93806443Y-73800588D01*
X94072519Y-73911072D01*
X94570000Y-74408553D01*
X95067541Y-73911011D01*
X95331565Y-73801919D01*
X95570083Y-73563816D01*
X95806443Y-73800588D01*
X96072519Y-73911072D01*
X96570000Y-74408553D01*
X97067541Y-73911011D01*
X97331565Y-73801919D01*
X97570083Y-73563816D01*
X97806443Y-73800588D01*
X98072519Y-73911072D01*
X98570000Y-74408553D01*
X99067541Y-73911011D01*
X99331565Y-73801919D01*
X99570083Y-73563816D01*
X99806443Y-73800588D01*
X100072519Y-73911072D01*
X100570000Y-74408553D01*
X101067541Y-73911011D01*
X101331565Y-73801919D01*
X101570083Y-73563816D01*
X101806443Y-73800588D01*
X102072519Y-73911072D01*
X102570000Y-74408553D01*
X103067541Y-73911011D01*
X103331565Y-73801919D01*
X103570083Y-73563816D01*
X103806443Y-73800588D01*
X104072519Y-73911072D01*
X104570000Y-74408553D01*
X105067541Y-73911011D01*
X105331565Y-73801919D01*
X105570083Y-73563816D01*
X105806443Y-73800588D01*
X106072519Y-73911072D01*
X106570000Y-74408553D01*
X107067541Y-73911011D01*
X107331565Y-73801919D01*
X107570083Y-73563816D01*
X107806443Y-73800588D01*
X108072519Y-73911072D01*
X108570000Y-74408553D01*
X109067541Y-73911011D01*
X109331565Y-73801919D01*
X109570083Y-73563816D01*
X109806443Y-73800588D01*
X110072519Y-73911072D01*
X110570000Y-74408553D01*
X111067541Y-73911011D01*
X111331565Y-73801919D01*
X111570083Y-73563816D01*
X111806443Y-73800588D01*
X112072519Y-73911072D01*
X112570000Y-74408553D01*
X113067541Y-73911011D01*
X113331565Y-73801919D01*
X113570083Y-73563816D01*
X113806443Y-73800588D01*
X114072519Y-73911072D01*
X114570000Y-74408553D01*
X115067541Y-73911011D01*
X115331565Y-73801919D01*
X115570083Y-73563816D01*
X115806443Y-73800588D01*
X116072519Y-73911072D01*
X116570000Y-74408553D01*
X117067541Y-73911011D01*
X117331565Y-73801919D01*
X117570083Y-73563816D01*
X117806443Y-73800588D01*
X118072519Y-73911072D01*
X118570000Y-74408553D01*
X119067541Y-73911011D01*
X119331565Y-73801919D01*
X119570083Y-73563816D01*
X119806443Y-73800588D01*
X120072519Y-73911072D01*
X120570000Y-74408553D01*
X121067541Y-73911011D01*
X121331565Y-73801919D01*
X121570083Y-73563816D01*
X121806443Y-73800588D01*
X122072519Y-73911072D01*
X122570000Y-74408553D01*
X123067541Y-73911011D01*
X123331565Y-73801919D01*
X123570083Y-73563816D01*
X123806443Y-73800588D01*
X124072519Y-73911072D01*
X124570000Y-74408553D01*
X125067541Y-73911011D01*
X125331565Y-73801919D01*
X125570083Y-73563816D01*
X125806443Y-73800588D01*
X126072519Y-73911072D01*
X126570000Y-74408553D01*
X127067541Y-73911011D01*
X127331565Y-73801919D01*
X127570083Y-73563816D01*
X127806443Y-73800588D01*
X128072519Y-73911072D01*
X128570000Y-74408553D01*
X129067541Y-73911011D01*
X129331565Y-73801919D01*
X129570083Y-73563816D01*
X129806443Y-73800588D01*
X130072519Y-73911072D01*
X130570000Y-74408553D01*
X131067541Y-73911011D01*
X131331565Y-73801919D01*
X131570083Y-73563816D01*
X131806443Y-73800588D01*
X132072519Y-73911072D01*
X132570000Y-74408553D01*
X133067541Y-73911011D01*
X133331565Y-73801919D01*
X133570083Y-73563816D01*
X133806443Y-73800588D01*
X134072519Y-73911072D01*
X134570000Y-74408553D01*
X135067541Y-73911011D01*
X135331565Y-73801919D01*
X135570083Y-73563816D01*
X135806443Y-73800588D01*
X136072519Y-73911072D01*
X136570000Y-74408553D01*
X137067541Y-73911011D01*
X137331565Y-73801919D01*
X137570083Y-73563816D01*
X137806443Y-73800588D01*
X138072519Y-73911072D01*
X138570000Y-74408553D01*
X139067541Y-73911011D01*
X139331565Y-73801919D01*
X139570083Y-73563816D01*
X139806443Y-73800588D01*
X140072519Y-73911072D01*
X140570000Y-74408553D01*
X141067541Y-73911011D01*
X141331565Y-73801919D01*
X141570083Y-73563816D01*
X141806443Y-73800588D01*
X142072519Y-73911072D01*
X142570000Y-74408553D01*
X143067541Y-73911011D01*
X143331565Y-73801919D01*
X143570083Y-73563816D01*
X143806443Y-73800588D01*
X144072519Y-73911072D01*
X144570000Y-74408553D01*
X145067541Y-73911011D01*
X145331565Y-73801919D01*
X145710588Y-73423557D01*
X145915966Y-72928951D01*
X145916434Y-72393399D01*
X145916434Y-74601525D01*
X145886439Y-74271480D01*
X145775588Y-74003862D01*
X145553846Y-73927601D01*
X144821447Y-74660000D01*
X144835589Y-74674142D01*
X144584142Y-74925589D01*
X144570000Y-74911447D01*
X144555857Y-74925589D01*
X144318553Y-74688285D01*
X144304410Y-74674142D01*
X144318553Y-74660000D01*
X143855613Y-74197060D01*
X143775588Y-74003862D01*
X143603089Y-73944536D01*
X143586154Y-73927601D01*
X143570000Y-73933156D01*
X143553846Y-73927601D01*
X143536910Y-73944536D01*
X143364412Y-74003862D01*
X143313184Y-74168262D01*
X142821447Y-74660000D01*
X142835589Y-74674142D01*
X142584142Y-74925589D01*
X142570000Y-74911447D01*
X142555857Y-74925589D01*
X142318553Y-74688285D01*
X142304410Y-74674142D01*
X142318553Y-74660000D01*
X141855613Y-74197060D01*
X141775588Y-74003862D01*
X141603089Y-73944536D01*
X141586154Y-73927601D01*
X141570000Y-73933156D01*
X141553846Y-73927601D01*
X141536910Y-73944536D01*
X141364412Y-74003862D01*
X141313184Y-74168262D01*
X140821447Y-74660000D01*
X140835589Y-74674142D01*
X140584142Y-74925589D01*
X140570000Y-74911447D01*
X140555857Y-74925589D01*
X140318553Y-74688285D01*
X140304410Y-74674142D01*
X140318553Y-74660000D01*
X139855613Y-74197060D01*
X139775588Y-74003862D01*
X139603089Y-73944536D01*
X139586154Y-73927601D01*
X139570000Y-73933156D01*
X139553846Y-73927601D01*
X139536910Y-73944536D01*
X139364412Y-74003862D01*
X139313184Y-74168262D01*
X138821447Y-74660000D01*
X138835589Y-74674142D01*
X138584142Y-74925589D01*
X138570000Y-74911447D01*
X138555857Y-74925589D01*
X138318553Y-74688285D01*
X138304410Y-74674142D01*
X138318553Y-74660000D01*
X137855613Y-74197060D01*
X137775588Y-74003862D01*
X137603089Y-73944536D01*
X137586154Y-73927601D01*
X137570000Y-73933156D01*
X137553846Y-73927601D01*
X137536910Y-73944536D01*
X137364412Y-74003862D01*
X137313184Y-74168262D01*
X136821447Y-74660000D01*
X136835589Y-74674142D01*
X136584142Y-74925589D01*
X136570000Y-74911447D01*
X136555857Y-74925589D01*
X136318553Y-74688285D01*
X136304410Y-74674142D01*
X136318553Y-74660000D01*
X135855613Y-74197060D01*
X135775588Y-74003862D01*
X135603089Y-73944536D01*
X135586154Y-73927601D01*
X135570000Y-73933156D01*
X135553846Y-73927601D01*
X135536910Y-73944536D01*
X135364412Y-74003862D01*
X135313184Y-74168262D01*
X134821447Y-74660000D01*
X134835589Y-74674142D01*
X134584142Y-74925589D01*
X134570000Y-74911447D01*
X134555857Y-74925589D01*
X134318553Y-74688285D01*
X134304410Y-74674142D01*
X134318553Y-74660000D01*
X133855613Y-74197060D01*
X133775588Y-74003862D01*
X133603089Y-73944536D01*
X133586154Y-73927601D01*
X133570000Y-73933156D01*
X133553846Y-73927601D01*
X133536910Y-73944536D01*
X133364412Y-74003862D01*
X133313184Y-74168262D01*
X132821447Y-74660000D01*
X132835589Y-74674142D01*
X132584142Y-74925589D01*
X132570000Y-74911447D01*
X132555857Y-74925589D01*
X132318553Y-74688285D01*
X132304410Y-74674142D01*
X132318553Y-74660000D01*
X131855613Y-74197060D01*
X131775588Y-74003862D01*
X131603089Y-73944536D01*
X131586154Y-73927601D01*
X131570000Y-73933156D01*
X131553846Y-73927601D01*
X131536910Y-73944536D01*
X131364412Y-74003862D01*
X131313184Y-74168262D01*
X130821447Y-74660000D01*
X130835589Y-74674142D01*
X130584142Y-74925589D01*
X130570000Y-74911447D01*
X130555857Y-74925589D01*
X130318553Y-74688285D01*
X130304410Y-74674142D01*
X130318553Y-74660000D01*
X129855613Y-74197060D01*
X129775588Y-74003862D01*
X129603089Y-73944536D01*
X129586154Y-73927601D01*
X129570000Y-73933156D01*
X129553846Y-73927601D01*
X129536910Y-73944536D01*
X129364412Y-74003862D01*
X129313184Y-74168262D01*
X128821447Y-74660000D01*
X128835589Y-74674142D01*
X128584142Y-74925589D01*
X128570000Y-74911447D01*
X128555857Y-74925589D01*
X128318553Y-74688285D01*
X128304410Y-74674142D01*
X128318553Y-74660000D01*
X127855613Y-74197060D01*
X127775588Y-74003862D01*
X127603089Y-73944536D01*
X127586154Y-73927601D01*
X127570000Y-73933156D01*
X127553846Y-73927601D01*
X127536910Y-73944536D01*
X127364412Y-74003862D01*
X127313184Y-74168262D01*
X126821447Y-74660000D01*
X126835589Y-74674142D01*
X126584142Y-74925589D01*
X126570000Y-74911447D01*
X126555857Y-74925589D01*
X126318553Y-74688285D01*
X126304410Y-74674142D01*
X126318553Y-74660000D01*
X125855613Y-74197060D01*
X125775588Y-74003862D01*
X125603089Y-73944536D01*
X125586154Y-73927601D01*
X125570000Y-73933156D01*
X125553846Y-73927601D01*
X125536910Y-73944536D01*
X125364412Y-74003862D01*
X125313184Y-74168262D01*
X124821447Y-74660000D01*
X124835589Y-74674142D01*
X124584142Y-74925589D01*
X124570000Y-74911447D01*
X124555857Y-74925589D01*
X124318553Y-74688285D01*
X124304410Y-74674142D01*
X124318553Y-74660000D01*
X123855613Y-74197060D01*
X123775588Y-74003862D01*
X123603089Y-73944536D01*
X123586154Y-73927601D01*
X123570000Y-73933156D01*
X123553846Y-73927601D01*
X123536910Y-73944536D01*
X123364412Y-74003862D01*
X123313184Y-74168262D01*
X122821447Y-74660000D01*
X122835589Y-74674142D01*
X122584142Y-74925589D01*
X122570000Y-74911447D01*
X122555857Y-74925589D01*
X122318553Y-74688285D01*
X122304410Y-74674142D01*
X122318553Y-74660000D01*
X121855613Y-74197060D01*
X121775588Y-74003862D01*
X121603089Y-73944536D01*
X121586154Y-73927601D01*
X121570000Y-73933156D01*
X121553846Y-73927601D01*
X121536910Y-73944536D01*
X121364412Y-74003862D01*
X121313184Y-74168262D01*
X120821447Y-74660000D01*
X120835589Y-74674142D01*
X120584142Y-74925589D01*
X120570000Y-74911447D01*
X120555857Y-74925589D01*
X120318553Y-74688285D01*
X120304410Y-74674142D01*
X120318553Y-74660000D01*
X119855613Y-74197060D01*
X119775588Y-74003862D01*
X119603089Y-73944536D01*
X119586154Y-73927601D01*
X119570000Y-73933156D01*
X119553846Y-73927601D01*
X119536910Y-73944536D01*
X119364412Y-74003862D01*
X119313184Y-74168262D01*
X118821447Y-74660000D01*
X118835589Y-74674142D01*
X118584142Y-74925589D01*
X118570000Y-74911447D01*
X118555857Y-74925589D01*
X118318553Y-74688285D01*
X118304410Y-74674142D01*
X118318553Y-74660000D01*
X117855613Y-74197060D01*
X117775588Y-74003862D01*
X117603089Y-73944536D01*
X117586154Y-73927601D01*
X117570000Y-73933156D01*
X117553846Y-73927601D01*
X117536910Y-73944536D01*
X117364412Y-74003862D01*
X117313184Y-74168262D01*
X116821447Y-74660000D01*
X116835589Y-74674142D01*
X116584142Y-74925589D01*
X116570000Y-74911447D01*
X116555857Y-74925589D01*
X116318553Y-74688285D01*
X116304410Y-74674142D01*
X116318553Y-74660000D01*
X115855613Y-74197060D01*
X115775588Y-74003862D01*
X115603089Y-73944536D01*
X115586154Y-73927601D01*
X115570000Y-73933156D01*
X115553846Y-73927601D01*
X115536910Y-73944536D01*
X115364412Y-74003862D01*
X115313184Y-74168262D01*
X114821447Y-74660000D01*
X114835589Y-74674142D01*
X114584142Y-74925589D01*
X114570000Y-74911447D01*
X114555857Y-74925589D01*
X114318553Y-74688285D01*
X114304410Y-74674142D01*
X114318553Y-74660000D01*
X113855613Y-74197060D01*
X113775588Y-74003862D01*
X113603089Y-73944536D01*
X113586154Y-73927601D01*
X113570000Y-73933156D01*
X113553846Y-73927601D01*
X113536910Y-73944536D01*
X113364412Y-74003862D01*
X113313184Y-74168262D01*
X112821447Y-74660000D01*
X112835589Y-74674142D01*
X112584142Y-74925589D01*
X112570000Y-74911447D01*
X112555857Y-74925589D01*
X112318553Y-74688285D01*
X112304410Y-74674142D01*
X112318553Y-74660000D01*
X111855613Y-74197060D01*
X111775588Y-74003862D01*
X111603089Y-73944536D01*
X111586154Y-73927601D01*
X111570000Y-73933156D01*
X111553846Y-73927601D01*
X111536910Y-73944536D01*
X111364412Y-74003862D01*
X111313184Y-74168262D01*
X110821447Y-74660000D01*
X110835589Y-74674142D01*
X110584142Y-74925589D01*
X110570000Y-74911447D01*
X110555857Y-74925589D01*
X110318553Y-74688285D01*
X110304410Y-74674142D01*
X110318553Y-74660000D01*
X109855613Y-74197060D01*
X109775588Y-74003862D01*
X109603089Y-73944536D01*
X109586154Y-73927601D01*
X109570000Y-73933156D01*
X109553846Y-73927601D01*
X109536910Y-73944536D01*
X109364412Y-74003862D01*
X109313184Y-74168262D01*
X108821447Y-74660000D01*
X108835589Y-74674142D01*
X108584142Y-74925589D01*
X108570000Y-74911447D01*
X108555857Y-74925589D01*
X108318553Y-74688285D01*
X108304410Y-74674142D01*
X108318553Y-74660000D01*
X107855613Y-74197060D01*
X107775588Y-74003862D01*
X107603089Y-73944536D01*
X107586154Y-73927601D01*
X107570000Y-73933156D01*
X107553846Y-73927601D01*
X107536910Y-73944536D01*
X107364412Y-74003862D01*
X107313184Y-74168262D01*
X106821447Y-74660000D01*
X106835589Y-74674142D01*
X106584142Y-74925589D01*
X106570000Y-74911447D01*
X106555857Y-74925589D01*
X106318553Y-74688285D01*
X106304410Y-74674142D01*
X106318553Y-74660000D01*
X105855613Y-74197060D01*
X105775588Y-74003862D01*
X105603089Y-73944536D01*
X105586154Y-73927601D01*
X105570000Y-73933156D01*
X105553846Y-73927601D01*
X105536910Y-73944536D01*
X105364412Y-74003862D01*
X105313184Y-74168262D01*
X104821447Y-74660000D01*
X104835589Y-74674142D01*
X104584142Y-74925589D01*
X104570000Y-74911447D01*
X104555857Y-74925589D01*
X104318553Y-74688285D01*
X104304410Y-74674142D01*
X104318553Y-74660000D01*
X103855613Y-74197060D01*
X103775588Y-74003862D01*
X103603089Y-73944536D01*
X103586154Y-73927601D01*
X103570000Y-73933156D01*
X103553846Y-73927601D01*
X103536910Y-73944536D01*
X103364412Y-74003862D01*
X103313184Y-74168262D01*
X102821447Y-74660000D01*
X102835589Y-74674142D01*
X102584142Y-74925589D01*
X102570000Y-74911447D01*
X102555857Y-74925589D01*
X102318553Y-74688285D01*
X102304410Y-74674142D01*
X102318553Y-74660000D01*
X101855613Y-74197060D01*
X101775588Y-74003862D01*
X101603089Y-73944536D01*
X101586154Y-73927601D01*
X101570000Y-73933156D01*
X101553846Y-73927601D01*
X101536910Y-73944536D01*
X101364412Y-74003862D01*
X101313184Y-74168262D01*
X100821447Y-74660000D01*
X100835589Y-74674142D01*
X100584142Y-74925589D01*
X100570000Y-74911447D01*
X100555857Y-74925589D01*
X100318553Y-74688285D01*
X100304410Y-74674142D01*
X100318553Y-74660000D01*
X99855613Y-74197060D01*
X99775588Y-74003862D01*
X99603089Y-73944536D01*
X99586154Y-73927601D01*
X99570000Y-73933156D01*
X99553846Y-73927601D01*
X99536910Y-73944536D01*
X99364412Y-74003862D01*
X99313184Y-74168262D01*
X98821447Y-74660000D01*
X98835589Y-74674142D01*
X98584142Y-74925589D01*
X98570000Y-74911447D01*
X98555857Y-74925589D01*
X98318553Y-74688285D01*
X98304410Y-74674142D01*
X98318553Y-74660000D01*
X97855613Y-74197060D01*
X97775588Y-74003862D01*
X97603089Y-73944536D01*
X97586154Y-73927601D01*
X97570000Y-73933156D01*
X97553846Y-73927601D01*
X97536910Y-73944536D01*
X97364412Y-74003862D01*
X97313184Y-74168262D01*
X96821447Y-74660000D01*
X96835589Y-74674142D01*
X96584142Y-74925589D01*
X96570000Y-74911447D01*
X96555857Y-74925589D01*
X96318553Y-74688285D01*
X96304410Y-74674142D01*
X96318553Y-74660000D01*
X95855613Y-74197060D01*
X95775588Y-74003862D01*
X95603089Y-73944536D01*
X95586154Y-73927601D01*
X95570000Y-73933156D01*
X95553846Y-73927601D01*
X95536910Y-73944536D01*
X95364412Y-74003862D01*
X95313184Y-74168262D01*
X94821447Y-74660000D01*
X94835589Y-74674142D01*
X94584142Y-74925589D01*
X94570000Y-74911447D01*
X94555857Y-74925589D01*
X94318553Y-74688285D01*
X94304410Y-74674142D01*
X94318553Y-74660000D01*
X93855613Y-74197060D01*
X93775588Y-74003862D01*
X93603089Y-73944536D01*
X93586154Y-73927601D01*
X93570000Y-73933156D01*
X93553846Y-73927601D01*
X93536910Y-73944536D01*
X93364412Y-74003862D01*
X93313184Y-74168262D01*
X92821447Y-74660000D01*
X92835589Y-74674142D01*
X92584142Y-74925589D01*
X92570000Y-74911447D01*
X92555857Y-74925589D01*
X92318553Y-74688285D01*
X92304410Y-74674142D01*
X92318553Y-74660000D01*
X91855613Y-74197060D01*
X91775588Y-74003862D01*
X91603089Y-73944536D01*
X91586154Y-73927601D01*
X91570000Y-73933156D01*
X91553846Y-73927601D01*
X91536910Y-73944536D01*
X91364412Y-74003862D01*
X91313184Y-74168262D01*
X90821447Y-74660000D01*
X90835589Y-74674142D01*
X90584142Y-74925589D01*
X90570000Y-74911447D01*
X90555857Y-74925589D01*
X90318553Y-74688285D01*
X90304410Y-74674142D01*
X90318553Y-74660000D01*
X89855613Y-74197060D01*
X89775588Y-74003862D01*
X89603089Y-73944536D01*
X89586154Y-73927601D01*
X89570000Y-73933156D01*
X89553846Y-73927601D01*
X89536910Y-73944536D01*
X89364412Y-74003862D01*
X89313184Y-74168262D01*
X88821447Y-74660000D01*
X88835589Y-74674142D01*
X88584142Y-74925589D01*
X88570000Y-74911447D01*
X88555857Y-74925589D01*
X88318553Y-74688285D01*
X88304410Y-74674142D01*
X88318553Y-74660000D01*
X87855613Y-74197060D01*
X87775588Y-74003862D01*
X87603089Y-73944536D01*
X87586154Y-73927601D01*
X87570000Y-73933156D01*
X87553846Y-73927601D01*
X87536910Y-73944536D01*
X87364412Y-74003862D01*
X87313184Y-74168262D01*
X86821447Y-74660000D01*
X86835589Y-74674142D01*
X86584142Y-74925589D01*
X86570000Y-74911447D01*
X86555857Y-74925589D01*
X86318553Y-74688285D01*
X86304410Y-74674142D01*
X86318553Y-74660000D01*
X85586154Y-73927601D01*
X85364412Y-74003862D01*
X85205089Y-74515166D01*
X85253561Y-75048520D01*
X85364412Y-75316138D01*
X85586151Y-75392398D01*
X85474774Y-75503776D01*
X85536798Y-75565800D01*
X84454200Y-75565800D01*
X84454200Y-57673524D01*
X85130107Y-58350613D01*
X86091323Y-58749744D01*
X87132111Y-58750653D01*
X88094022Y-58353199D01*
X88830613Y-57617893D01*
X89229744Y-56656677D01*
X89230653Y-55615889D01*
X88833199Y-54653978D01*
X88097893Y-53917387D01*
X87136677Y-53518256D01*
X86095889Y-53517347D01*
X85133978Y-53914801D01*
X84454200Y-54593393D01*
X84454200Y-34813524D01*
X85130107Y-35490613D01*
X86091323Y-35889744D01*
X87132111Y-35890653D01*
X88094022Y-35493199D01*
X88830613Y-34757893D01*
X89229744Y-33796677D01*
X89230653Y-32755889D01*
X88833199Y-31793978D01*
X88154606Y-31114200D01*
X142986475Y-31114200D01*
X142309387Y-31790107D01*
X141910256Y-32751323D01*
X141909347Y-33792111D01*
X142306801Y-34754022D01*
X143042107Y-35490613D01*
X144003323Y-35889744D01*
X145044111Y-35890653D01*
X146006022Y-35493199D01*
X146685800Y-34814606D01*
X146685800Y-75565800D01*
X146685800Y-75565800D01*
G37*
X146685800Y-75565800D02*
X145934911Y-75565800D01*
X145603202Y-75565800D01*
X145665226Y-75503776D01*
X145553848Y-75392398D01*
X145775588Y-75316138D01*
X145934911Y-74804834D01*
X145916434Y-74601525D01*
X145916434Y-72393399D01*
X145711919Y-71898435D01*
X145662200Y-71848629D01*
X145662200Y-70661860D01*
X145710588Y-70613557D01*
X145915966Y-70118951D01*
X145916434Y-69583399D01*
X145711919Y-69088435D01*
X145662200Y-69038629D01*
X145662200Y-68979600D01*
X145662200Y-67469000D01*
X145579061Y-67051033D01*
X145534716Y-66984665D01*
X145528426Y-66952247D01*
X145399820Y-66756467D01*
X145367793Y-66734849D01*
X145342302Y-66696698D01*
X145316167Y-66670563D01*
X145340302Y-66634443D01*
X145394533Y-66598820D01*
X145525586Y-66404669D01*
X145571645Y-66175000D01*
X145571645Y-66159047D01*
X145618200Y-65925000D01*
X145618200Y-65684400D01*
X145535061Y-65266433D01*
X145298302Y-64912098D01*
X141503400Y-61117196D01*
X141503400Y-57192436D01*
X141772107Y-57461613D01*
X142733323Y-57860744D01*
X143774111Y-57861653D01*
X144736022Y-57464199D01*
X145472613Y-56728893D01*
X145871744Y-55767677D01*
X145872653Y-54726889D01*
X145475199Y-53764978D01*
X144739893Y-53028387D01*
X143778677Y-52629256D01*
X143073563Y-52628640D01*
X144726802Y-50975402D01*
X144937322Y-50660335D01*
X145296736Y-50301549D01*
X145538424Y-49719499D01*
X145538974Y-49089266D01*
X145538700Y-49088602D01*
X145538700Y-46709205D01*
X145538700Y-45916850D01*
X145538700Y-45269150D01*
X145538700Y-44476795D01*
X145449761Y-44262077D01*
X145285422Y-44097739D01*
X145070704Y-44008800D01*
X144838295Y-44008800D01*
X144278350Y-44008800D01*
X144132300Y-44154850D01*
X144132300Y-45415200D01*
X145392650Y-45415200D01*
X145538700Y-45269150D01*
X145538700Y-45916850D01*
X145392650Y-45770800D01*
X144132300Y-45770800D01*
X144132300Y-47031150D01*
X144278350Y-47177200D01*
X144838295Y-47177200D01*
X145070704Y-47177200D01*
X145285422Y-47088261D01*
X145449761Y-46923923D01*
X145538700Y-46709205D01*
X145538700Y-49088602D01*
X145298302Y-48506795D01*
X144853049Y-48060764D01*
X144270999Y-47819076D01*
X143776700Y-47818644D01*
X143776700Y-47031150D01*
X143776700Y-45770800D01*
X143776700Y-45415200D01*
X143776700Y-44154850D01*
X143630650Y-44008800D01*
X143070705Y-44008800D01*
X142838296Y-44008800D01*
X142623578Y-44097739D01*
X142459239Y-44262077D01*
X142370300Y-44476795D01*
X142370300Y-45269150D01*
X142516350Y-45415200D01*
X143776700Y-45415200D01*
X143776700Y-45770800D01*
X142516350Y-45770800D01*
X142370300Y-45916850D01*
X142370300Y-46709205D01*
X142459239Y-46923923D01*
X142623578Y-47088261D01*
X142838296Y-47177200D01*
X143070705Y-47177200D01*
X143630650Y-47177200D01*
X143776700Y-47031150D01*
X143776700Y-47818644D01*
X143640766Y-47818526D01*
X143058295Y-48059198D01*
X142806253Y-48310800D01*
X142011400Y-48310800D01*
X141593433Y-48393939D01*
X141239098Y-48630698D01*
X138060698Y-51809098D01*
X137823939Y-52163433D01*
X137790205Y-52333021D01*
X137763923Y-52306739D01*
X137549205Y-52217800D01*
X137356850Y-52217800D01*
X137210800Y-52363850D01*
X137210800Y-53924200D01*
X137230800Y-53924200D01*
X137230800Y-54279800D01*
X137210800Y-54279800D01*
X137210800Y-55840150D01*
X137356850Y-55986200D01*
X137549205Y-55986200D01*
X137740800Y-55906838D01*
X137740800Y-56361161D01*
X137549205Y-56281800D01*
X137356850Y-56281800D01*
X137210800Y-56427850D01*
X137210800Y-57988200D01*
X137230800Y-57988200D01*
X137230800Y-58343800D01*
X137210800Y-58343800D01*
X137210800Y-59904150D01*
X137356850Y-60050200D01*
X137549205Y-60050200D01*
X137740800Y-59970838D01*
X137740800Y-60425161D01*
X137549205Y-60345800D01*
X137356850Y-60345800D01*
X137210800Y-60491850D01*
X137210800Y-62052200D01*
X137230800Y-62052200D01*
X137230800Y-62407800D01*
X137210800Y-62407800D01*
X137210800Y-63968150D01*
X137356850Y-64114200D01*
X137549205Y-64114200D01*
X137763923Y-64025261D01*
X137884932Y-63904250D01*
X138060698Y-64167302D01*
X140590698Y-66697302D01*
X140945033Y-66934061D01*
X141363000Y-67017200D01*
X141861001Y-67017200D01*
X141829355Y-67175000D01*
X141829355Y-67190952D01*
X141782800Y-67425000D01*
X141829355Y-67659047D01*
X141829355Y-67675000D01*
X141872574Y-67897753D01*
X142001180Y-68093533D01*
X142059801Y-68133102D01*
X142102698Y-68197302D01*
X142457033Y-68434061D01*
X142485524Y-68439728D01*
X142549577Y-68503781D01*
X142303399Y-68503566D01*
X141808435Y-68708081D01*
X141569916Y-68946183D01*
X141333557Y-68709412D01*
X140838951Y-68504034D01*
X140303399Y-68503566D01*
X139808435Y-68708081D01*
X139569916Y-68946183D01*
X139333557Y-68709412D01*
X138838951Y-68504034D01*
X138303399Y-68503566D01*
X137808435Y-68708081D01*
X137569916Y-68946183D01*
X137333557Y-68709412D01*
X136838951Y-68504034D01*
X136303399Y-68503566D01*
X135808435Y-68708081D01*
X135569916Y-68946183D01*
X135333557Y-68709412D01*
X134838951Y-68504034D01*
X134303399Y-68503566D01*
X133808435Y-68708081D01*
X133569916Y-68946183D01*
X133333557Y-68709412D01*
X132838951Y-68504034D01*
X132303399Y-68503566D01*
X131808435Y-68708081D01*
X131569916Y-68946183D01*
X131333557Y-68709412D01*
X130838951Y-68504034D01*
X130303399Y-68503566D01*
X129808435Y-68708081D01*
X129569916Y-68946183D01*
X129333557Y-68709412D01*
X128838951Y-68504034D01*
X128303399Y-68503566D01*
X127808435Y-68708081D01*
X127569916Y-68946183D01*
X127333557Y-68709412D01*
X126838951Y-68504034D01*
X126303399Y-68503566D01*
X125808435Y-68708081D01*
X125569916Y-68946183D01*
X125333557Y-68709412D01*
X124838951Y-68504034D01*
X124303399Y-68503566D01*
X123808435Y-68708081D01*
X123569916Y-68946183D01*
X123333557Y-68709412D01*
X122838951Y-68504034D01*
X122303399Y-68503566D01*
X121808435Y-68708081D01*
X121569916Y-68946183D01*
X121333557Y-68709412D01*
X120838951Y-68504034D01*
X120303399Y-68503566D01*
X119808435Y-68708081D01*
X119569916Y-68946183D01*
X119333557Y-68709412D01*
X118838951Y-68504034D01*
X118303399Y-68503566D01*
X117808435Y-68708081D01*
X117569916Y-68946183D01*
X117333557Y-68709412D01*
X116838951Y-68504034D01*
X116303399Y-68503566D01*
X115808435Y-68708081D01*
X115569916Y-68946183D01*
X115333557Y-68709412D01*
X114838951Y-68504034D01*
X114303399Y-68503566D01*
X113808435Y-68708081D01*
X113569916Y-68946183D01*
X113333557Y-68709412D01*
X112838951Y-68504034D01*
X112303399Y-68503566D01*
X111808435Y-68708081D01*
X111569916Y-68946183D01*
X111333557Y-68709412D01*
X110838951Y-68504034D01*
X110303399Y-68503566D01*
X109808435Y-68708081D01*
X109569916Y-68946183D01*
X109333557Y-68709412D01*
X108838951Y-68504034D01*
X108303399Y-68503566D01*
X107808435Y-68708081D01*
X107569916Y-68946183D01*
X107333557Y-68709412D01*
X106838951Y-68504034D01*
X106303399Y-68503566D01*
X105808435Y-68708081D01*
X105569916Y-68946183D01*
X105333557Y-68709412D01*
X104838951Y-68504034D01*
X104303399Y-68503566D01*
X103808435Y-68708081D01*
X103569916Y-68946183D01*
X103333557Y-68709412D01*
X102838951Y-68504034D01*
X102303399Y-68503566D01*
X101808435Y-68708081D01*
X101569916Y-68946183D01*
X101333557Y-68709412D01*
X100838951Y-68504034D01*
X100303399Y-68503566D01*
X99808435Y-68708081D01*
X99569916Y-68946183D01*
X99333557Y-68709412D01*
X98838951Y-68504034D01*
X98303399Y-68503566D01*
X97808435Y-68708081D01*
X97569916Y-68946183D01*
X97333557Y-68709412D01*
X96838951Y-68504034D01*
X96303399Y-68503566D01*
X95808435Y-68708081D01*
X95569916Y-68946183D01*
X95333557Y-68709412D01*
X94838951Y-68504034D01*
X94303399Y-68503566D01*
X93808435Y-68708081D01*
X93569916Y-68946183D01*
X93333557Y-68709412D01*
X92838951Y-68504034D01*
X92303399Y-68503566D01*
X91808435Y-68708081D01*
X91569916Y-68946183D01*
X91333557Y-68709412D01*
X90838951Y-68504034D01*
X90303399Y-68503566D01*
X89808435Y-68708081D01*
X89569916Y-68946183D01*
X89333557Y-68709412D01*
X88897459Y-68528328D01*
X89531588Y-67894200D01*
X132715000Y-67894200D01*
X132987164Y-67840063D01*
X132987165Y-67840063D01*
X133217894Y-67685894D01*
X135422553Y-65481235D01*
X135573148Y-65481367D01*
X135928027Y-65334734D01*
X136199779Y-65063456D01*
X136347032Y-64708832D01*
X136347367Y-64324852D01*
X136200734Y-63969973D01*
X135952965Y-63721771D01*
X136070643Y-63698939D01*
X136137739Y-63860922D01*
X136302077Y-64025261D01*
X136516795Y-64114200D01*
X136709150Y-64114200D01*
X136855200Y-63968150D01*
X136855200Y-62407800D01*
X136835200Y-62407800D01*
X136835200Y-62052200D01*
X136855200Y-62052200D01*
X136855200Y-60491850D01*
X136855200Y-59904150D01*
X136855200Y-58343800D01*
X136835200Y-58343800D01*
X136835200Y-57988200D01*
X136855200Y-57988200D01*
X136855200Y-56427850D01*
X136855200Y-55840150D01*
X136855200Y-54279800D01*
X136835200Y-54279800D01*
X136835200Y-53924200D01*
X136855200Y-53924200D01*
X136855200Y-52363850D01*
X136709150Y-52217800D01*
X136516795Y-52217800D01*
X136302077Y-52306739D01*
X136137739Y-52471078D01*
X136070300Y-52633889D01*
X135933000Y-52606355D01*
X134533000Y-52606355D01*
X134310247Y-52649574D01*
X134239403Y-52696110D01*
X134174669Y-52652414D01*
X133945000Y-52606355D01*
X132545000Y-52606355D01*
X132407356Y-52633060D01*
X132340261Y-52471078D01*
X132175923Y-52306739D01*
X131961205Y-52217800D01*
X131768850Y-52217800D01*
X131622800Y-52363850D01*
X131622800Y-53924200D01*
X131642800Y-53924200D01*
X131642800Y-54279800D01*
X131622800Y-54279800D01*
X131622800Y-55840150D01*
X131768850Y-55986200D01*
X131961205Y-55986200D01*
X132175923Y-55897261D01*
X132340261Y-55732922D01*
X132407699Y-55570110D01*
X132545000Y-55597645D01*
X133945000Y-55597645D01*
X134167753Y-55554426D01*
X134238596Y-55507889D01*
X134303331Y-55551586D01*
X134533000Y-55597645D01*
X135933000Y-55597645D01*
X136070643Y-55570939D01*
X136137739Y-55732922D01*
X136302077Y-55897261D01*
X136516795Y-55986200D01*
X136709150Y-55986200D01*
X136855200Y-55840150D01*
X136855200Y-56427850D01*
X136709150Y-56281800D01*
X136516795Y-56281800D01*
X136302077Y-56370739D01*
X136137739Y-56535078D01*
X136070300Y-56697889D01*
X135933000Y-56670355D01*
X134533000Y-56670355D01*
X134310247Y-56713574D01*
X134239403Y-56760110D01*
X134174669Y-56716414D01*
X133945000Y-56670355D01*
X132545000Y-56670355D01*
X132407356Y-56697060D01*
X132340261Y-56535078D01*
X132175923Y-56370739D01*
X131961205Y-56281800D01*
X131768850Y-56281800D01*
X131622800Y-56427850D01*
X131622800Y-57988200D01*
X131642800Y-57988200D01*
X131642800Y-58343800D01*
X131622800Y-58343800D01*
X131622800Y-59904150D01*
X131768850Y-60050200D01*
X131961205Y-60050200D01*
X132175923Y-59961261D01*
X132340261Y-59796922D01*
X132407699Y-59634110D01*
X132545000Y-59661645D01*
X133945000Y-59661645D01*
X134167753Y-59618426D01*
X134238596Y-59571889D01*
X134303331Y-59615586D01*
X134533000Y-59661645D01*
X135933000Y-59661645D01*
X136070643Y-59634939D01*
X136137739Y-59796922D01*
X136302077Y-59961261D01*
X136516795Y-60050200D01*
X136709150Y-60050200D01*
X136855200Y-59904150D01*
X136855200Y-60491850D01*
X136709150Y-60345800D01*
X136516795Y-60345800D01*
X136302077Y-60434739D01*
X136137739Y-60599078D01*
X136070300Y-60761889D01*
X135933000Y-60734355D01*
X134533000Y-60734355D01*
X134310247Y-60777574D01*
X134239403Y-60824110D01*
X134174669Y-60780414D01*
X133945000Y-60734355D01*
X132545000Y-60734355D01*
X132407356Y-60761060D01*
X132340261Y-60599078D01*
X132175923Y-60434739D01*
X131961205Y-60345800D01*
X131768850Y-60345800D01*
X131622800Y-60491850D01*
X131622800Y-62052200D01*
X131642800Y-62052200D01*
X131642800Y-62407800D01*
X131622800Y-62407800D01*
X131622800Y-63968150D01*
X131768850Y-64114200D01*
X131961205Y-64114200D01*
X132175923Y-64025261D01*
X132340261Y-63860922D01*
X132407699Y-63698110D01*
X132545000Y-63725645D01*
X133945000Y-63725645D01*
X134167753Y-63682426D01*
X134238596Y-63635889D01*
X134303331Y-63679586D01*
X134533000Y-63725645D01*
X134807544Y-63725645D01*
X134564221Y-63968544D01*
X134416968Y-64323168D01*
X134416835Y-64475375D01*
X132420411Y-66471800D01*
X131267200Y-66471800D01*
X131267200Y-63968150D01*
X131267200Y-62407800D01*
X131247200Y-62407800D01*
X131247200Y-62052200D01*
X131267200Y-62052200D01*
X131267200Y-60491850D01*
X131121150Y-60345800D01*
X130928795Y-60345800D01*
X130714077Y-60434739D01*
X130549739Y-60599078D01*
X130482300Y-60761889D01*
X130345000Y-60734355D01*
X129693959Y-60734355D01*
X129325102Y-60365498D01*
X128970767Y-60128739D01*
X128552800Y-60045600D01*
X127660400Y-60045600D01*
X127603600Y-60045600D01*
X127603600Y-59898850D01*
X127457550Y-59752800D01*
X126822200Y-59752800D01*
X126822200Y-59772800D01*
X126466600Y-59772800D01*
X126466600Y-59752800D01*
X125831250Y-59752800D01*
X125685200Y-59898850D01*
X125685200Y-60091205D01*
X125774139Y-60305923D01*
X125797885Y-60329669D01*
X125719814Y-60445331D01*
X125673755Y-60675000D01*
X125673755Y-60725139D01*
X125635339Y-60782633D01*
X125552200Y-61200600D01*
X125552200Y-61488509D01*
X125428298Y-61571298D01*
X124613835Y-62385760D01*
X124575619Y-62293500D01*
X124619400Y-62187804D01*
X124619400Y-62020450D01*
X124619400Y-61372750D01*
X124619400Y-61205396D01*
X124575619Y-61099700D01*
X124619400Y-60994004D01*
X124619400Y-60826650D01*
X124619400Y-60178950D01*
X124619400Y-60011596D01*
X124530461Y-59796878D01*
X124366123Y-59632539D01*
X124151405Y-59543600D01*
X123959050Y-59543600D01*
X123813000Y-59689650D01*
X123813000Y-60325000D01*
X124473350Y-60325000D01*
X124619400Y-60178950D01*
X124619400Y-60826650D01*
X124473350Y-60680600D01*
X123813000Y-60680600D01*
X123813000Y-60883450D01*
X123813000Y-61315950D01*
X123813000Y-61518800D01*
X124473350Y-61518800D01*
X124619400Y-61372750D01*
X124619400Y-62020450D01*
X124473350Y-61874400D01*
X123813000Y-61874400D01*
X123813000Y-62077250D01*
X123813000Y-62509750D01*
X123813000Y-62712600D01*
X123833000Y-62712600D01*
X123833000Y-63068200D01*
X123813000Y-63068200D01*
X123813000Y-63088200D01*
X123457400Y-63088200D01*
X123457400Y-63068200D01*
X123437400Y-63068200D01*
X123437400Y-62712600D01*
X123457400Y-62712600D01*
X123457400Y-62509750D01*
X123457400Y-62077250D01*
X123457400Y-61874400D01*
X123437400Y-61874400D01*
X123437400Y-61518800D01*
X123457400Y-61518800D01*
X123457400Y-61315950D01*
X123457400Y-60883450D01*
X123457400Y-60680600D01*
X123437400Y-60680600D01*
X123437400Y-60325000D01*
X123457400Y-60325000D01*
X123457400Y-59689650D01*
X123433753Y-59666003D01*
X123469400Y-59486800D01*
X123386261Y-59068833D01*
X123258215Y-58877200D01*
X125760419Y-58877200D01*
X125685200Y-59058795D01*
X125685200Y-59251150D01*
X125831250Y-59397200D01*
X126466600Y-59397200D01*
X126466600Y-59377200D01*
X126822200Y-59377200D01*
X126822200Y-59397200D01*
X127457550Y-59397200D01*
X127596550Y-59258200D01*
X128386646Y-59258200D01*
X128392574Y-59288753D01*
X128521180Y-59484533D01*
X128715331Y-59615586D01*
X128945000Y-59661645D01*
X130345000Y-59661645D01*
X130482643Y-59634939D01*
X130549739Y-59796922D01*
X130714077Y-59961261D01*
X130928795Y-60050200D01*
X131121150Y-60050200D01*
X131267200Y-59904150D01*
X131267200Y-58343800D01*
X131247200Y-58343800D01*
X131247200Y-57988200D01*
X131267200Y-57988200D01*
X131267200Y-56427850D01*
X131121150Y-56281800D01*
X130928795Y-56281800D01*
X130714077Y-56370739D01*
X130549739Y-56535078D01*
X130482300Y-56697889D01*
X130345000Y-56670355D01*
X128945000Y-56670355D01*
X128722247Y-56713574D01*
X128526467Y-56842180D01*
X128395414Y-57036331D01*
X128387899Y-57073800D01*
X127960404Y-57073800D01*
X127365902Y-56479298D01*
X127011567Y-56242539D01*
X126593600Y-56159400D01*
X126175633Y-56242539D01*
X126059038Y-56320445D01*
X125821298Y-56479298D01*
X125584539Y-56833633D01*
X125501400Y-57251600D01*
X125541819Y-57454800D01*
X123849226Y-57454800D01*
X124005431Y-57390098D01*
X124123768Y-57271761D01*
X124123768Y-57065215D01*
X123656830Y-56598277D01*
X123642687Y-56612419D01*
X123391240Y-56360972D01*
X123405383Y-56346830D01*
X123391240Y-56332687D01*
X123642687Y-56081240D01*
X123656830Y-56095383D01*
X123670972Y-56081240D01*
X123922419Y-56332687D01*
X123908277Y-56346830D01*
X124375215Y-56813768D01*
X124581761Y-56813768D01*
X124632567Y-56762961D01*
X124828303Y-56844038D01*
X125060713Y-56844037D01*
X125275431Y-56755098D01*
X125393768Y-56636761D01*
X125393768Y-56430215D01*
X124926830Y-55963277D01*
X124912687Y-55977419D01*
X124661240Y-55725972D01*
X124675383Y-55711830D01*
X124661240Y-55697687D01*
X124912687Y-55446240D01*
X124926830Y-55460383D01*
X124940972Y-55446240D01*
X125192419Y-55697687D01*
X125178277Y-55711830D01*
X125645215Y-56178768D01*
X125851761Y-56178768D01*
X125970098Y-56060431D01*
X126059037Y-55845713D01*
X126059038Y-55613303D01*
X125970099Y-55398585D01*
X125834083Y-55262570D01*
X125627540Y-55262570D01*
X125695910Y-55194200D01*
X128066800Y-55194200D01*
X128386646Y-55194200D01*
X128392574Y-55224753D01*
X128521180Y-55420533D01*
X128715331Y-55551586D01*
X128945000Y-55597645D01*
X130345000Y-55597645D01*
X130482643Y-55570939D01*
X130549739Y-55732922D01*
X130714077Y-55897261D01*
X130928795Y-55986200D01*
X131121150Y-55986200D01*
X131267200Y-55840150D01*
X131267200Y-54279800D01*
X131247200Y-54279800D01*
X131247200Y-53924200D01*
X131267200Y-53924200D01*
X131267200Y-52363850D01*
X131121150Y-52217800D01*
X130928795Y-52217800D01*
X130714077Y-52306739D01*
X130549739Y-52471078D01*
X130482300Y-52633889D01*
X130345000Y-52606355D01*
X128945000Y-52606355D01*
X128722247Y-52649574D01*
X128526467Y-52778180D01*
X128395414Y-52972331D01*
X128387899Y-53009800D01*
X128066800Y-53009800D01*
X127754647Y-53009800D01*
X127754647Y-36278226D01*
X127362055Y-35328081D01*
X126635743Y-34600500D01*
X125686284Y-34206250D01*
X124658226Y-34205353D01*
X123708081Y-34597945D01*
X122980500Y-35324257D01*
X122586250Y-36273716D01*
X122585353Y-37301774D01*
X122977945Y-38251919D01*
X123704257Y-38979500D01*
X124653716Y-39373750D01*
X125681774Y-39374647D01*
X126631919Y-38982055D01*
X127359500Y-38255743D01*
X127753750Y-37306284D01*
X127754647Y-36278226D01*
X127754647Y-53009800D01*
X126194200Y-53009800D01*
X125547404Y-53009800D01*
X125387802Y-52850198D01*
X125387802Y-52756152D01*
X125533850Y-52902200D01*
X125726205Y-52902200D01*
X125940923Y-52813261D01*
X126105261Y-52648922D01*
X126194200Y-52434204D01*
X126194200Y-52266850D01*
X126194200Y-51619150D01*
X126194200Y-51451796D01*
X126122538Y-51278788D01*
X126122538Y-48971197D01*
X126122537Y-48738787D01*
X126033598Y-48524069D01*
X125915261Y-48405732D01*
X125708715Y-48405732D01*
X125457268Y-48657179D01*
X125457268Y-48154285D01*
X125457268Y-47947739D01*
X125338931Y-47829402D01*
X125124213Y-47740463D01*
X124891803Y-47740462D01*
X124677085Y-47829401D01*
X124541070Y-47965417D01*
X124541070Y-48171963D01*
X124990330Y-48621223D01*
X125457268Y-48154285D01*
X125457268Y-48657179D01*
X125241777Y-48872670D01*
X125691037Y-49321930D01*
X125897583Y-49321930D01*
X126033599Y-49185915D01*
X126122538Y-48971197D01*
X126122538Y-51278788D01*
X126105261Y-51237078D01*
X125940923Y-51072739D01*
X125726205Y-50983800D01*
X125533850Y-50983800D01*
X125387800Y-51129850D01*
X125387800Y-51765200D01*
X126048150Y-51765200D01*
X126194200Y-51619150D01*
X126194200Y-52266850D01*
X126048150Y-52120800D01*
X125387800Y-52120800D01*
X125387800Y-52140800D01*
X125032200Y-52140800D01*
X125032200Y-52120800D01*
X125012200Y-52120800D01*
X125012200Y-51765200D01*
X125032200Y-51765200D01*
X125032200Y-51129850D01*
X124886150Y-50983800D01*
X124802200Y-50983800D01*
X124802200Y-50555630D01*
X124938731Y-50351297D01*
X124959465Y-50247055D01*
X125025812Y-50148766D01*
X125055608Y-50004877D01*
X125088857Y-50004878D01*
X125303575Y-49915939D01*
X125439590Y-49779923D01*
X125439590Y-49573377D01*
X124990330Y-49124117D01*
X124976187Y-49138259D01*
X124724740Y-48886812D01*
X124738883Y-48872670D01*
X124289623Y-48423410D01*
X124083077Y-48423410D01*
X124046045Y-48460441D01*
X123835302Y-48249698D01*
X123480967Y-48012939D01*
X123063000Y-47929800D01*
X122645033Y-48012939D01*
X122290698Y-48249698D01*
X122254561Y-48303780D01*
X122254561Y-33877246D01*
X121937929Y-33110938D01*
X121352146Y-32524131D01*
X120586392Y-32206162D01*
X119757246Y-32205439D01*
X118990938Y-32522071D01*
X118404131Y-33107854D01*
X118086162Y-33873608D01*
X118085439Y-34702754D01*
X118402071Y-35469062D01*
X118987854Y-36055869D01*
X119753608Y-36373838D01*
X120582754Y-36374561D01*
X121349062Y-36057929D01*
X121935869Y-35472146D01*
X122253838Y-34706392D01*
X122254561Y-33877246D01*
X122254561Y-48303780D01*
X122053939Y-48604033D01*
X121970800Y-49022000D01*
X122053939Y-49439967D01*
X122290698Y-49794302D01*
X122623042Y-50126646D01*
X122617800Y-50153000D01*
X122617800Y-51943000D01*
X122617800Y-52717000D01*
X122700939Y-53134967D01*
X122937698Y-53489302D01*
X123044497Y-53596101D01*
X122813203Y-53642109D01*
X122458868Y-53878868D01*
X122143766Y-54193970D01*
X121516670Y-54193970D01*
X121098703Y-54277109D01*
X120744368Y-54513868D01*
X120363368Y-54894868D01*
X120076815Y-55181420D01*
X120041533Y-55188439D01*
X119687198Y-55425198D01*
X119450439Y-55779533D01*
X119367300Y-56197500D01*
X119450439Y-56615467D01*
X119687198Y-56969802D01*
X120041533Y-57206561D01*
X120459500Y-57289700D01*
X120605340Y-57289700D01*
X121023307Y-57206561D01*
X121200290Y-57088304D01*
X121289077Y-57177090D01*
X121495623Y-57177090D01*
X121944883Y-56727830D01*
X121930740Y-56713687D01*
X122182187Y-56462240D01*
X122196330Y-56476383D01*
X122210472Y-56462240D01*
X122461919Y-56713687D01*
X122447777Y-56727830D01*
X122914715Y-57194768D01*
X123121261Y-57194768D01*
X123207570Y-57108459D01*
X123207570Y-57254083D01*
X123343585Y-57390099D01*
X123499787Y-57454800D01*
X122663268Y-57454800D01*
X122663268Y-57446215D01*
X122196330Y-56979277D01*
X121747070Y-57428537D01*
X121747070Y-57454800D01*
X117875700Y-57454800D01*
X117875700Y-55482204D01*
X117875700Y-55314850D01*
X117875700Y-54667150D01*
X117875700Y-54499796D01*
X117842440Y-54419500D01*
X117875700Y-54339204D01*
X117875700Y-54171850D01*
X117875700Y-53524150D01*
X117875700Y-53356796D01*
X117842440Y-53276500D01*
X117875700Y-53196204D01*
X117875700Y-53028850D01*
X117875700Y-52381150D01*
X117875700Y-52213796D01*
X117786761Y-51999078D01*
X117622423Y-51834739D01*
X117407705Y-51745800D01*
X117215350Y-51745800D01*
X117069300Y-51891850D01*
X117069300Y-52527200D01*
X117729650Y-52527200D01*
X117875700Y-52381150D01*
X117875700Y-53028850D01*
X117729650Y-52882800D01*
X117069300Y-52882800D01*
X117069300Y-53034850D01*
X117069300Y-53518150D01*
X117069300Y-53670200D01*
X117729650Y-53670200D01*
X117875700Y-53524150D01*
X117875700Y-54171850D01*
X117729650Y-54025800D01*
X117069300Y-54025800D01*
X117069300Y-54177850D01*
X117069300Y-54661150D01*
X117069300Y-54813200D01*
X117729650Y-54813200D01*
X117875700Y-54667150D01*
X117875700Y-55314850D01*
X117729650Y-55168800D01*
X117069300Y-55168800D01*
X117069300Y-55804150D01*
X117215350Y-55950200D01*
X117407705Y-55950200D01*
X117622423Y-55861261D01*
X117786761Y-55696922D01*
X117875700Y-55482204D01*
X117875700Y-57454800D01*
X117147290Y-57454800D01*
X116414723Y-56722232D01*
X116426661Y-56704367D01*
X116509800Y-56286400D01*
X116442925Y-55950200D01*
X116567650Y-55950200D01*
X116713700Y-55804150D01*
X116713700Y-55168800D01*
X116693700Y-55168800D01*
X116693700Y-54813200D01*
X116713700Y-54813200D01*
X116713700Y-54661150D01*
X116713700Y-54177850D01*
X116713700Y-54025800D01*
X116693700Y-54025800D01*
X116693700Y-53670200D01*
X116713700Y-53670200D01*
X116713700Y-53518150D01*
X116713700Y-53034850D01*
X116713700Y-52882800D01*
X116693700Y-52882800D01*
X116693700Y-52527200D01*
X116713700Y-52527200D01*
X116713700Y-51891850D01*
X116567650Y-51745800D01*
X116471700Y-51745800D01*
X116471700Y-51689000D01*
X116388561Y-51271033D01*
X116151802Y-50916698D01*
X115797467Y-50679939D01*
X115379500Y-50596800D01*
X115328757Y-50606893D01*
X115328867Y-50481852D01*
X115255229Y-50303634D01*
X115255228Y-50303633D01*
X115182234Y-50126973D01*
X114910956Y-49855221D01*
X114732867Y-49781272D01*
X114732866Y-49781271D01*
X114732863Y-49781270D01*
X114556332Y-49707968D01*
X114172352Y-49707633D01*
X113994134Y-49781270D01*
X113994134Y-49781271D01*
X113994133Y-49781271D01*
X113817473Y-49854266D01*
X113545721Y-50125544D01*
X113471772Y-50303632D01*
X113471771Y-50303634D01*
X113471770Y-50303636D01*
X113398468Y-50480168D01*
X113398133Y-50864148D01*
X113398300Y-50864552D01*
X113398300Y-51142900D01*
X113471771Y-51512266D01*
X113681001Y-51825399D01*
X114287300Y-52431698D01*
X114287300Y-52693000D01*
X114299300Y-52753327D01*
X114299300Y-53848000D01*
X114299300Y-54991000D01*
X114382439Y-55408967D01*
X114413092Y-55454843D01*
X114426300Y-55522915D01*
X114426300Y-55802790D01*
X114382439Y-55868433D01*
X114299300Y-56286400D01*
X114382439Y-56704367D01*
X114444769Y-56797651D01*
X114499771Y-57074164D01*
X114709001Y-57387297D01*
X115022134Y-57596527D01*
X115340833Y-57659919D01*
X116349808Y-58668895D01*
X116580538Y-58823063D01*
X116852702Y-58877200D01*
X117398470Y-58877200D01*
X117202539Y-59170433D01*
X117119400Y-59588400D01*
X117119400Y-60223296D01*
X117037461Y-60025478D01*
X116873123Y-59861139D01*
X116658405Y-59772200D01*
X116466050Y-59772200D01*
X116320000Y-59918250D01*
X116320000Y-60553600D01*
X116980350Y-60553600D01*
X117119400Y-60414550D01*
X117119400Y-60694000D01*
X117131400Y-60754327D01*
X117131400Y-61899800D01*
X117131400Y-63093600D01*
X117131400Y-63271400D01*
X117126400Y-63271400D01*
X117126400Y-62795150D01*
X117126400Y-62627796D01*
X117082619Y-62522100D01*
X117126400Y-62416404D01*
X117126400Y-62249050D01*
X117126400Y-61601350D01*
X117126400Y-61433996D01*
X117082619Y-61328300D01*
X117126400Y-61222604D01*
X117126400Y-61055250D01*
X116980350Y-60909200D01*
X116320000Y-60909200D01*
X116320000Y-61112050D01*
X116320000Y-61544550D01*
X116320000Y-61747400D01*
X116980350Y-61747400D01*
X117126400Y-61601350D01*
X117126400Y-62249050D01*
X116980350Y-62103000D01*
X116320000Y-62103000D01*
X116320000Y-62305850D01*
X116320000Y-62738350D01*
X116320000Y-62941200D01*
X116980350Y-62941200D01*
X117126400Y-62795150D01*
X117126400Y-63271400D01*
X115944400Y-63271400D01*
X115944400Y-62941200D01*
X115964400Y-62941200D01*
X115964400Y-62738350D01*
X115964400Y-62305850D01*
X115964400Y-62103000D01*
X115944400Y-62103000D01*
X115944400Y-61747400D01*
X115964400Y-61747400D01*
X115964400Y-61544550D01*
X115964400Y-61112050D01*
X115964400Y-60909200D01*
X115944400Y-60909200D01*
X115944400Y-60553600D01*
X115964400Y-60553600D01*
X115964400Y-59918250D01*
X115818350Y-59772200D01*
X115625995Y-59772200D01*
X115411277Y-59861139D01*
X115387530Y-59884885D01*
X115271869Y-59806814D01*
X115259797Y-59804393D01*
X114692342Y-59236938D01*
X114674061Y-59145033D01*
X114437302Y-58790698D01*
X114082967Y-58553939D01*
X113665000Y-58470800D01*
X113247033Y-58553939D01*
X113054561Y-58682544D01*
X113054561Y-33877246D01*
X112737929Y-33110938D01*
X112152146Y-32524131D01*
X111386392Y-32206162D01*
X110557246Y-32205439D01*
X109790938Y-32522071D01*
X109204131Y-33107854D01*
X108886162Y-33873608D01*
X108885439Y-34702754D01*
X109202071Y-35469062D01*
X109787854Y-36055869D01*
X110553608Y-36373838D01*
X111382754Y-36374561D01*
X112149062Y-36057929D01*
X112735869Y-35472146D01*
X113053838Y-34706392D01*
X113054561Y-33877246D01*
X113054561Y-58682544D01*
X112892698Y-58790698D01*
X112655939Y-59145033D01*
X112572800Y-59563000D01*
X112572800Y-59754200D01*
X112655939Y-60172167D01*
X112892698Y-60526502D01*
X113550000Y-61183804D01*
X113550000Y-61925200D01*
X113550000Y-63119000D01*
X113550000Y-63588200D01*
X113633139Y-64006167D01*
X113869898Y-64360502D01*
X114645298Y-65135902D01*
X114999633Y-65372661D01*
X115417600Y-65455800D01*
X118999000Y-65455800D01*
X119126694Y-65430400D01*
X122834400Y-65430400D01*
X123252367Y-65347261D01*
X123318009Y-65303400D01*
X124333000Y-65303400D01*
X124750967Y-65220261D01*
X125105302Y-64983502D01*
X125698028Y-64390775D01*
X125774139Y-64574523D01*
X125938478Y-64738861D01*
X126153196Y-64827800D01*
X126320550Y-64827800D01*
X126466600Y-64681750D01*
X126466600Y-64021400D01*
X126446600Y-64021400D01*
X126446600Y-63665800D01*
X126466600Y-63665800D01*
X126466600Y-63645800D01*
X126822200Y-63645800D01*
X126822200Y-63665800D01*
X127101250Y-63665800D01*
X127457550Y-63665800D01*
X127736600Y-63665800D01*
X127736600Y-63645800D01*
X128092200Y-63645800D01*
X128092200Y-63665800D01*
X128694907Y-63665800D01*
X128715331Y-63679586D01*
X128945000Y-63725645D01*
X130345000Y-63725645D01*
X130482643Y-63698939D01*
X130549739Y-63860922D01*
X130714077Y-64025261D01*
X130928795Y-64114200D01*
X131121150Y-64114200D01*
X131267200Y-63968150D01*
X131267200Y-66471800D01*
X128873600Y-66471800D01*
X128873600Y-64359805D01*
X128873600Y-64167450D01*
X128727550Y-64021400D01*
X128092200Y-64021400D01*
X128092200Y-64681750D01*
X128238250Y-64827800D01*
X128405604Y-64827800D01*
X128620322Y-64738861D01*
X128784661Y-64574523D01*
X128873600Y-64359805D01*
X128873600Y-66471800D01*
X127736600Y-66471800D01*
X127736600Y-64681750D01*
X127736600Y-64021400D01*
X127457550Y-64021400D01*
X127101250Y-64021400D01*
X126822200Y-64021400D01*
X126822200Y-64681750D01*
X126968250Y-64827800D01*
X127135604Y-64827800D01*
X127279400Y-64768237D01*
X127423196Y-64827800D01*
X127590550Y-64827800D01*
X127736600Y-64681750D01*
X127736600Y-66471800D01*
X108554647Y-66471800D01*
X108554647Y-36278226D01*
X108162055Y-35328081D01*
X107435743Y-34600500D01*
X106486284Y-34206250D01*
X105458226Y-34205353D01*
X104508081Y-34597945D01*
X103780500Y-35324257D01*
X103386250Y-36273716D01*
X103385353Y-37301774D01*
X103777945Y-38251919D01*
X104504257Y-38979500D01*
X105453716Y-39373750D01*
X106481774Y-39374647D01*
X107431919Y-38982055D01*
X108159500Y-38255743D01*
X108553750Y-37306284D01*
X108554647Y-36278226D01*
X108554647Y-66471800D01*
X89237000Y-66471800D01*
X88964836Y-66525937D01*
X88734106Y-66680105D01*
X86889279Y-68524932D01*
X86838951Y-68504034D01*
X86303399Y-68503566D01*
X85808435Y-68708081D01*
X85429412Y-69086443D01*
X85224034Y-69581049D01*
X85223566Y-70116601D01*
X85428081Y-70611565D01*
X85806443Y-70990588D01*
X86301049Y-71195966D01*
X86836601Y-71196434D01*
X87331565Y-70991919D01*
X87570083Y-70753816D01*
X87806443Y-70990588D01*
X88301049Y-71195966D01*
X88836601Y-71196434D01*
X89331565Y-70991919D01*
X89570083Y-70753816D01*
X89806443Y-70990588D01*
X90301049Y-71195966D01*
X90836601Y-71196434D01*
X91331565Y-70991919D01*
X91570083Y-70753816D01*
X91806443Y-70990588D01*
X92301049Y-71195966D01*
X92836601Y-71196434D01*
X93331565Y-70991919D01*
X93570083Y-70753816D01*
X93806443Y-70990588D01*
X94301049Y-71195966D01*
X94836601Y-71196434D01*
X95331565Y-70991919D01*
X95570083Y-70753816D01*
X95806443Y-70990588D01*
X96301049Y-71195966D01*
X96836601Y-71196434D01*
X97331565Y-70991919D01*
X97570083Y-70753816D01*
X97806443Y-70990588D01*
X98301049Y-71195966D01*
X98836601Y-71196434D01*
X99331565Y-70991919D01*
X99570083Y-70753816D01*
X99806443Y-70990588D01*
X100301049Y-71195966D01*
X100836601Y-71196434D01*
X101331565Y-70991919D01*
X101570083Y-70753816D01*
X101806443Y-70990588D01*
X102301049Y-71195966D01*
X102836601Y-71196434D01*
X103331565Y-70991919D01*
X103570083Y-70753816D01*
X103806443Y-70990588D01*
X104301049Y-71195966D01*
X104836601Y-71196434D01*
X105331565Y-70991919D01*
X105570083Y-70753816D01*
X105806443Y-70990588D01*
X106301049Y-71195966D01*
X106836601Y-71196434D01*
X107331565Y-70991919D01*
X107570083Y-70753816D01*
X107806443Y-70990588D01*
X108301049Y-71195966D01*
X108836601Y-71196434D01*
X109331565Y-70991919D01*
X109570083Y-70753816D01*
X109806443Y-70990588D01*
X110301049Y-71195966D01*
X110836601Y-71196434D01*
X111331565Y-70991919D01*
X111570083Y-70753816D01*
X111806443Y-70990588D01*
X112301049Y-71195966D01*
X112836601Y-71196434D01*
X113331565Y-70991919D01*
X113570083Y-70753816D01*
X113806443Y-70990588D01*
X114301049Y-71195966D01*
X114836601Y-71196434D01*
X115331565Y-70991919D01*
X115570083Y-70753816D01*
X115806443Y-70990588D01*
X116301049Y-71195966D01*
X116836601Y-71196434D01*
X117331565Y-70991919D01*
X117570083Y-70753816D01*
X117806443Y-70990588D01*
X118301049Y-71195966D01*
X118836601Y-71196434D01*
X119331565Y-70991919D01*
X119570083Y-70753816D01*
X119806443Y-70990588D01*
X120301049Y-71195966D01*
X120836601Y-71196434D01*
X121331565Y-70991919D01*
X121570083Y-70753816D01*
X121806443Y-70990588D01*
X122301049Y-71195966D01*
X122836601Y-71196434D01*
X123331565Y-70991919D01*
X123570083Y-70753816D01*
X123806443Y-70990588D01*
X124301049Y-71195966D01*
X124836601Y-71196434D01*
X125331565Y-70991919D01*
X125570083Y-70753816D01*
X125806443Y-70990588D01*
X126301049Y-71195966D01*
X126836601Y-71196434D01*
X127331565Y-70991919D01*
X127570083Y-70753816D01*
X127806443Y-70990588D01*
X128301049Y-71195966D01*
X128836601Y-71196434D01*
X129331565Y-70991919D01*
X129570083Y-70753816D01*
X129806443Y-70990588D01*
X130301049Y-71195966D01*
X130836601Y-71196434D01*
X131331565Y-70991919D01*
X131570083Y-70753816D01*
X131806443Y-70990588D01*
X132301049Y-71195966D01*
X132836601Y-71196434D01*
X133331565Y-70991919D01*
X133570083Y-70753816D01*
X133806443Y-70990588D01*
X134301049Y-71195966D01*
X134836601Y-71196434D01*
X135331565Y-70991919D01*
X135570083Y-70753816D01*
X135806443Y-70990588D01*
X136301049Y-71195966D01*
X136836601Y-71196434D01*
X137331565Y-70991919D01*
X137570083Y-70753816D01*
X137806443Y-70990588D01*
X138301049Y-71195966D01*
X138836601Y-71196434D01*
X139331565Y-70991919D01*
X139570083Y-70753816D01*
X139806443Y-70990588D01*
X140301049Y-71195966D01*
X140836601Y-71196434D01*
X141331565Y-70991919D01*
X141570083Y-70753816D01*
X141806443Y-70990588D01*
X142301049Y-71195966D01*
X142836601Y-71196434D01*
X143331565Y-70991919D01*
X143477800Y-70845939D01*
X143477800Y-71663906D01*
X143333557Y-71519412D01*
X142838951Y-71314034D01*
X142303399Y-71313566D01*
X141808435Y-71518081D01*
X141569916Y-71756183D01*
X141333557Y-71519412D01*
X140838951Y-71314034D01*
X140303399Y-71313566D01*
X139808435Y-71518081D01*
X139569916Y-71756183D01*
X139333557Y-71519412D01*
X138838951Y-71314034D01*
X138303399Y-71313566D01*
X137808435Y-71518081D01*
X137569916Y-71756183D01*
X137333557Y-71519412D01*
X136838951Y-71314034D01*
X136303399Y-71313566D01*
X135808435Y-71518081D01*
X135569916Y-71756183D01*
X135333557Y-71519412D01*
X134838951Y-71314034D01*
X134303399Y-71313566D01*
X133808435Y-71518081D01*
X133569916Y-71756183D01*
X133333557Y-71519412D01*
X132838951Y-71314034D01*
X132303399Y-71313566D01*
X131808435Y-71518081D01*
X131569916Y-71756183D01*
X131333557Y-71519412D01*
X130838951Y-71314034D01*
X130303399Y-71313566D01*
X129808435Y-71518081D01*
X129569916Y-71756183D01*
X129333557Y-71519412D01*
X128838951Y-71314034D01*
X128303399Y-71313566D01*
X127808435Y-71518081D01*
X127569916Y-71756183D01*
X127333557Y-71519412D01*
X126838951Y-71314034D01*
X126303399Y-71313566D01*
X125808435Y-71518081D01*
X125569916Y-71756183D01*
X125333557Y-71519412D01*
X124838951Y-71314034D01*
X124303399Y-71313566D01*
X123808435Y-71518081D01*
X123569916Y-71756183D01*
X123333557Y-71519412D01*
X122838951Y-71314034D01*
X122303399Y-71313566D01*
X121808435Y-71518081D01*
X121569916Y-71756183D01*
X121333557Y-71519412D01*
X120838951Y-71314034D01*
X120303399Y-71313566D01*
X119808435Y-71518081D01*
X119569916Y-71756183D01*
X119333557Y-71519412D01*
X118838951Y-71314034D01*
X118303399Y-71313566D01*
X117808435Y-71518081D01*
X117569916Y-71756183D01*
X117333557Y-71519412D01*
X116838951Y-71314034D01*
X116303399Y-71313566D01*
X115808435Y-71518081D01*
X115569916Y-71756183D01*
X115333557Y-71519412D01*
X114838951Y-71314034D01*
X114303399Y-71313566D01*
X113808435Y-71518081D01*
X113569916Y-71756183D01*
X113333557Y-71519412D01*
X112838951Y-71314034D01*
X112303399Y-71313566D01*
X111808435Y-71518081D01*
X111569916Y-71756183D01*
X111333557Y-71519412D01*
X110838951Y-71314034D01*
X110303399Y-71313566D01*
X109808435Y-71518081D01*
X109569916Y-71756183D01*
X109333557Y-71519412D01*
X108838951Y-71314034D01*
X108303399Y-71313566D01*
X107808435Y-71518081D01*
X107569916Y-71756183D01*
X107333557Y-71519412D01*
X106838951Y-71314034D01*
X106303399Y-71313566D01*
X105808435Y-71518081D01*
X105569916Y-71756183D01*
X105333557Y-71519412D01*
X104838951Y-71314034D01*
X104303399Y-71313566D01*
X103808435Y-71518081D01*
X103569916Y-71756183D01*
X103333557Y-71519412D01*
X102838951Y-71314034D01*
X102303399Y-71313566D01*
X101808435Y-71518081D01*
X101569916Y-71756183D01*
X101333557Y-71519412D01*
X100838951Y-71314034D01*
X100303399Y-71313566D01*
X99808435Y-71518081D01*
X99569916Y-71756183D01*
X99333557Y-71519412D01*
X98838951Y-71314034D01*
X98303399Y-71313566D01*
X97808435Y-71518081D01*
X97569916Y-71756183D01*
X97333557Y-71519412D01*
X96838951Y-71314034D01*
X96303399Y-71313566D01*
X95808435Y-71518081D01*
X95569916Y-71756183D01*
X95333557Y-71519412D01*
X94838951Y-71314034D01*
X94303399Y-71313566D01*
X93808435Y-71518081D01*
X93569916Y-71756183D01*
X93333557Y-71519412D01*
X92838951Y-71314034D01*
X92303399Y-71313566D01*
X91808435Y-71518081D01*
X91569916Y-71756183D01*
X91333557Y-71519412D01*
X90838951Y-71314034D01*
X90303399Y-71313566D01*
X89808435Y-71518081D01*
X89569916Y-71756183D01*
X89333557Y-71519412D01*
X88838951Y-71314034D01*
X88303399Y-71313566D01*
X87808435Y-71518081D01*
X87569916Y-71756183D01*
X87333557Y-71519412D01*
X86838951Y-71314034D01*
X86303399Y-71313566D01*
X85808435Y-71518081D01*
X85429412Y-71896443D01*
X85224034Y-72391049D01*
X85223566Y-72926601D01*
X85428081Y-73421565D01*
X85806443Y-73800588D01*
X86072519Y-73911072D01*
X86570000Y-74408553D01*
X87067541Y-73911011D01*
X87331565Y-73801919D01*
X87570083Y-73563816D01*
X87806443Y-73800588D01*
X88072519Y-73911072D01*
X88570000Y-74408553D01*
X89067541Y-73911011D01*
X89331565Y-73801919D01*
X89570083Y-73563816D01*
X89806443Y-73800588D01*
X90072519Y-73911072D01*
X90570000Y-74408553D01*
X91067541Y-73911011D01*
X91331565Y-73801919D01*
X91570083Y-73563816D01*
X91806443Y-73800588D01*
X92072519Y-73911072D01*
X92570000Y-74408553D01*
X93067541Y-73911011D01*
X93331565Y-73801919D01*
X93570083Y-73563816D01*
X93806443Y-73800588D01*
X94072519Y-73911072D01*
X94570000Y-74408553D01*
X95067541Y-73911011D01*
X95331565Y-73801919D01*
X95570083Y-73563816D01*
X95806443Y-73800588D01*
X96072519Y-73911072D01*
X96570000Y-74408553D01*
X97067541Y-73911011D01*
X97331565Y-73801919D01*
X97570083Y-73563816D01*
X97806443Y-73800588D01*
X98072519Y-73911072D01*
X98570000Y-74408553D01*
X99067541Y-73911011D01*
X99331565Y-73801919D01*
X99570083Y-73563816D01*
X99806443Y-73800588D01*
X100072519Y-73911072D01*
X100570000Y-74408553D01*
X101067541Y-73911011D01*
X101331565Y-73801919D01*
X101570083Y-73563816D01*
X101806443Y-73800588D01*
X102072519Y-73911072D01*
X102570000Y-74408553D01*
X103067541Y-73911011D01*
X103331565Y-73801919D01*
X103570083Y-73563816D01*
X103806443Y-73800588D01*
X104072519Y-73911072D01*
X104570000Y-74408553D01*
X105067541Y-73911011D01*
X105331565Y-73801919D01*
X105570083Y-73563816D01*
X105806443Y-73800588D01*
X106072519Y-73911072D01*
X106570000Y-74408553D01*
X107067541Y-73911011D01*
X107331565Y-73801919D01*
X107570083Y-73563816D01*
X107806443Y-73800588D01*
X108072519Y-73911072D01*
X108570000Y-74408553D01*
X109067541Y-73911011D01*
X109331565Y-73801919D01*
X109570083Y-73563816D01*
X109806443Y-73800588D01*
X110072519Y-73911072D01*
X110570000Y-74408553D01*
X111067541Y-73911011D01*
X111331565Y-73801919D01*
X111570083Y-73563816D01*
X111806443Y-73800588D01*
X112072519Y-73911072D01*
X112570000Y-74408553D01*
X113067541Y-73911011D01*
X113331565Y-73801919D01*
X113570083Y-73563816D01*
X113806443Y-73800588D01*
X114072519Y-73911072D01*
X114570000Y-74408553D01*
X115067541Y-73911011D01*
X115331565Y-73801919D01*
X115570083Y-73563816D01*
X115806443Y-73800588D01*
X116072519Y-73911072D01*
X116570000Y-74408553D01*
X117067541Y-73911011D01*
X117331565Y-73801919D01*
X117570083Y-73563816D01*
X117806443Y-73800588D01*
X118072519Y-73911072D01*
X118570000Y-74408553D01*
X119067541Y-73911011D01*
X119331565Y-73801919D01*
X119570083Y-73563816D01*
X119806443Y-73800588D01*
X120072519Y-73911072D01*
X120570000Y-74408553D01*
X121067541Y-73911011D01*
X121331565Y-73801919D01*
X121570083Y-73563816D01*
X121806443Y-73800588D01*
X122072519Y-73911072D01*
X122570000Y-74408553D01*
X123067541Y-73911011D01*
X123331565Y-73801919D01*
X123570083Y-73563816D01*
X123806443Y-73800588D01*
X124072519Y-73911072D01*
X124570000Y-74408553D01*
X125067541Y-73911011D01*
X125331565Y-73801919D01*
X125570083Y-73563816D01*
X125806443Y-73800588D01*
X126072519Y-73911072D01*
X126570000Y-74408553D01*
X127067541Y-73911011D01*
X127331565Y-73801919D01*
X127570083Y-73563816D01*
X127806443Y-73800588D01*
X128072519Y-73911072D01*
X128570000Y-74408553D01*
X129067541Y-73911011D01*
X129331565Y-73801919D01*
X129570083Y-73563816D01*
X129806443Y-73800588D01*
X130072519Y-73911072D01*
X130570000Y-74408553D01*
X131067541Y-73911011D01*
X131331565Y-73801919D01*
X131570083Y-73563816D01*
X131806443Y-73800588D01*
X132072519Y-73911072D01*
X132570000Y-74408553D01*
X133067541Y-73911011D01*
X133331565Y-73801919D01*
X133570083Y-73563816D01*
X133806443Y-73800588D01*
X134072519Y-73911072D01*
X134570000Y-74408553D01*
X135067541Y-73911011D01*
X135331565Y-73801919D01*
X135570083Y-73563816D01*
X135806443Y-73800588D01*
X136072519Y-73911072D01*
X136570000Y-74408553D01*
X137067541Y-73911011D01*
X137331565Y-73801919D01*
X137570083Y-73563816D01*
X137806443Y-73800588D01*
X138072519Y-73911072D01*
X138570000Y-74408553D01*
X139067541Y-73911011D01*
X139331565Y-73801919D01*
X139570083Y-73563816D01*
X139806443Y-73800588D01*
X140072519Y-73911072D01*
X140570000Y-74408553D01*
X141067541Y-73911011D01*
X141331565Y-73801919D01*
X141570083Y-73563816D01*
X141806443Y-73800588D01*
X142072519Y-73911072D01*
X142570000Y-74408553D01*
X143067541Y-73911011D01*
X143331565Y-73801919D01*
X143570083Y-73563816D01*
X143806443Y-73800588D01*
X144072519Y-73911072D01*
X144570000Y-74408553D01*
X145067541Y-73911011D01*
X145331565Y-73801919D01*
X145710588Y-73423557D01*
X145915966Y-72928951D01*
X145916434Y-72393399D01*
X145916434Y-74601525D01*
X145886439Y-74271480D01*
X145775588Y-74003862D01*
X145553846Y-73927601D01*
X144821447Y-74660000D01*
X144835589Y-74674142D01*
X144584142Y-74925589D01*
X144570000Y-74911447D01*
X144555857Y-74925589D01*
X144318553Y-74688285D01*
X144304410Y-74674142D01*
X144318553Y-74660000D01*
X143855613Y-74197060D01*
X143775588Y-74003862D01*
X143603089Y-73944536D01*
X143586154Y-73927601D01*
X143570000Y-73933156D01*
X143553846Y-73927601D01*
X143536910Y-73944536D01*
X143364412Y-74003862D01*
X143313184Y-74168262D01*
X142821447Y-74660000D01*
X142835589Y-74674142D01*
X142584142Y-74925589D01*
X142570000Y-74911447D01*
X142555857Y-74925589D01*
X142318553Y-74688285D01*
X142304410Y-74674142D01*
X142318553Y-74660000D01*
X141855613Y-74197060D01*
X141775588Y-74003862D01*
X141603089Y-73944536D01*
X141586154Y-73927601D01*
X141570000Y-73933156D01*
X141553846Y-73927601D01*
X141536910Y-73944536D01*
X141364412Y-74003862D01*
X141313184Y-74168262D01*
X140821447Y-74660000D01*
X140835589Y-74674142D01*
X140584142Y-74925589D01*
X140570000Y-74911447D01*
X140555857Y-74925589D01*
X140318553Y-74688285D01*
X140304410Y-74674142D01*
X140318553Y-74660000D01*
X139855613Y-74197060D01*
X139775588Y-74003862D01*
X139603089Y-73944536D01*
X139586154Y-73927601D01*
X139570000Y-73933156D01*
X139553846Y-73927601D01*
X139536910Y-73944536D01*
X139364412Y-74003862D01*
X139313184Y-74168262D01*
X138821447Y-74660000D01*
X138835589Y-74674142D01*
X138584142Y-74925589D01*
X138570000Y-74911447D01*
X138555857Y-74925589D01*
X138318553Y-74688285D01*
X138304410Y-74674142D01*
X138318553Y-74660000D01*
X137855613Y-74197060D01*
X137775588Y-74003862D01*
X137603089Y-73944536D01*
X137586154Y-73927601D01*
X137570000Y-73933156D01*
X137553846Y-73927601D01*
X137536910Y-73944536D01*
X137364412Y-74003862D01*
X137313184Y-74168262D01*
X136821447Y-74660000D01*
X136835589Y-74674142D01*
X136584142Y-74925589D01*
X136570000Y-74911447D01*
X136555857Y-74925589D01*
X136318553Y-74688285D01*
X136304410Y-74674142D01*
X136318553Y-74660000D01*
X135855613Y-74197060D01*
X135775588Y-74003862D01*
X135603089Y-73944536D01*
X135586154Y-73927601D01*
X135570000Y-73933156D01*
X135553846Y-73927601D01*
X135536910Y-73944536D01*
X135364412Y-74003862D01*
X135313184Y-74168262D01*
X134821447Y-74660000D01*
X134835589Y-74674142D01*
X134584142Y-74925589D01*
X134570000Y-74911447D01*
X134555857Y-74925589D01*
X134318553Y-74688285D01*
X134304410Y-74674142D01*
X134318553Y-74660000D01*
X133855613Y-74197060D01*
X133775588Y-74003862D01*
X133603089Y-73944536D01*
X133586154Y-73927601D01*
X133570000Y-73933156D01*
X133553846Y-73927601D01*
X133536910Y-73944536D01*
X133364412Y-74003862D01*
X133313184Y-74168262D01*
X132821447Y-74660000D01*
X132835589Y-74674142D01*
X132584142Y-74925589D01*
X132570000Y-74911447D01*
X132555857Y-74925589D01*
X132318553Y-74688285D01*
X132304410Y-74674142D01*
X132318553Y-74660000D01*
X131855613Y-74197060D01*
X131775588Y-74003862D01*
X131603089Y-73944536D01*
X131586154Y-73927601D01*
X131570000Y-73933156D01*
X131553846Y-73927601D01*
X131536910Y-73944536D01*
X131364412Y-74003862D01*
X131313184Y-74168262D01*
X130821447Y-74660000D01*
X130835589Y-74674142D01*
X130584142Y-74925589D01*
X130570000Y-74911447D01*
X130555857Y-74925589D01*
X130318553Y-74688285D01*
X130304410Y-74674142D01*
X130318553Y-74660000D01*
X129855613Y-74197060D01*
X129775588Y-74003862D01*
X129603089Y-73944536D01*
X129586154Y-73927601D01*
X129570000Y-73933156D01*
X129553846Y-73927601D01*
X129536910Y-73944536D01*
X129364412Y-74003862D01*
X129313184Y-74168262D01*
X128821447Y-74660000D01*
X128835589Y-74674142D01*
X128584142Y-74925589D01*
X128570000Y-74911447D01*
X128555857Y-74925589D01*
X128318553Y-74688285D01*
X128304410Y-74674142D01*
X128318553Y-74660000D01*
X127855613Y-74197060D01*
X127775588Y-74003862D01*
X127603089Y-73944536D01*
X127586154Y-73927601D01*
X127570000Y-73933156D01*
X127553846Y-73927601D01*
X127536910Y-73944536D01*
X127364412Y-74003862D01*
X127313184Y-74168262D01*
X126821447Y-74660000D01*
X126835589Y-74674142D01*
X126584142Y-74925589D01*
X126570000Y-74911447D01*
X126555857Y-74925589D01*
X126318553Y-74688285D01*
X126304410Y-74674142D01*
X126318553Y-74660000D01*
X125855613Y-74197060D01*
X125775588Y-74003862D01*
X125603089Y-73944536D01*
X125586154Y-73927601D01*
X125570000Y-73933156D01*
X125553846Y-73927601D01*
X125536910Y-73944536D01*
X125364412Y-74003862D01*
X125313184Y-74168262D01*
X124821447Y-74660000D01*
X124835589Y-74674142D01*
X124584142Y-74925589D01*
X124570000Y-74911447D01*
X124555857Y-74925589D01*
X124318553Y-74688285D01*
X124304410Y-74674142D01*
X124318553Y-74660000D01*
X123855613Y-74197060D01*
X123775588Y-74003862D01*
X123603089Y-73944536D01*
X123586154Y-73927601D01*
X123570000Y-73933156D01*
X123553846Y-73927601D01*
X123536910Y-73944536D01*
X123364412Y-74003862D01*
X123313184Y-74168262D01*
X122821447Y-74660000D01*
X122835589Y-74674142D01*
X122584142Y-74925589D01*
X122570000Y-74911447D01*
X122555857Y-74925589D01*
X122318553Y-74688285D01*
X122304410Y-74674142D01*
X122318553Y-74660000D01*
X121855613Y-74197060D01*
X121775588Y-74003862D01*
X121603089Y-73944536D01*
X121586154Y-73927601D01*
X121570000Y-73933156D01*
X121553846Y-73927601D01*
X121536910Y-73944536D01*
X121364412Y-74003862D01*
X121313184Y-74168262D01*
X120821447Y-74660000D01*
X120835589Y-74674142D01*
X120584142Y-74925589D01*
X120570000Y-74911447D01*
X120555857Y-74925589D01*
X120318553Y-74688285D01*
X120304410Y-74674142D01*
X120318553Y-74660000D01*
X119855613Y-74197060D01*
X119775588Y-74003862D01*
X119603089Y-73944536D01*
X119586154Y-73927601D01*
X119570000Y-73933156D01*
X119553846Y-73927601D01*
X119536910Y-73944536D01*
X119364412Y-74003862D01*
X119313184Y-74168262D01*
X118821447Y-74660000D01*
X118835589Y-74674142D01*
X118584142Y-74925589D01*
X118570000Y-74911447D01*
X118555857Y-74925589D01*
X118318553Y-74688285D01*
X118304410Y-74674142D01*
X118318553Y-74660000D01*
X117855613Y-74197060D01*
X117775588Y-74003862D01*
X117603089Y-73944536D01*
X117586154Y-73927601D01*
X117570000Y-73933156D01*
X117553846Y-73927601D01*
X117536910Y-73944536D01*
X117364412Y-74003862D01*
X117313184Y-74168262D01*
X116821447Y-74660000D01*
X116835589Y-74674142D01*
X116584142Y-74925589D01*
X116570000Y-74911447D01*
X116555857Y-74925589D01*
X116318553Y-74688285D01*
X116304410Y-74674142D01*
X116318553Y-74660000D01*
X115855613Y-74197060D01*
X115775588Y-74003862D01*
X115603089Y-73944536D01*
X115586154Y-73927601D01*
X115570000Y-73933156D01*
X115553846Y-73927601D01*
X115536910Y-73944536D01*
X115364412Y-74003862D01*
X115313184Y-74168262D01*
X114821447Y-74660000D01*
X114835589Y-74674142D01*
X114584142Y-74925589D01*
X114570000Y-74911447D01*
X114555857Y-74925589D01*
X114318553Y-74688285D01*
X114304410Y-74674142D01*
X114318553Y-74660000D01*
X113855613Y-74197060D01*
X113775588Y-74003862D01*
X113603089Y-73944536D01*
X113586154Y-73927601D01*
X113570000Y-73933156D01*
X113553846Y-73927601D01*
X113536910Y-73944536D01*
X113364412Y-74003862D01*
X113313184Y-74168262D01*
X112821447Y-74660000D01*
X112835589Y-74674142D01*
X112584142Y-74925589D01*
X112570000Y-74911447D01*
X112555857Y-74925589D01*
X112318553Y-74688285D01*
X112304410Y-74674142D01*
X112318553Y-74660000D01*
X111855613Y-74197060D01*
X111775588Y-74003862D01*
X111603089Y-73944536D01*
X111586154Y-73927601D01*
X111570000Y-73933156D01*
X111553846Y-73927601D01*
X111536910Y-73944536D01*
X111364412Y-74003862D01*
X111313184Y-74168262D01*
X110821447Y-74660000D01*
X110835589Y-74674142D01*
X110584142Y-74925589D01*
X110570000Y-74911447D01*
X110555857Y-74925589D01*
X110318553Y-74688285D01*
X110304410Y-74674142D01*
X110318553Y-74660000D01*
X109855613Y-74197060D01*
X109775588Y-74003862D01*
X109603089Y-73944536D01*
X109586154Y-73927601D01*
X109570000Y-73933156D01*
X109553846Y-73927601D01*
X109536910Y-73944536D01*
X109364412Y-74003862D01*
X109313184Y-74168262D01*
X108821447Y-74660000D01*
X108835589Y-74674142D01*
X108584142Y-74925589D01*
X108570000Y-74911447D01*
X108555857Y-74925589D01*
X108318553Y-74688285D01*
X108304410Y-74674142D01*
X108318553Y-74660000D01*
X107855613Y-74197060D01*
X107775588Y-74003862D01*
X107603089Y-73944536D01*
X107586154Y-73927601D01*
X107570000Y-73933156D01*
X107553846Y-73927601D01*
X107536910Y-73944536D01*
X107364412Y-74003862D01*
X107313184Y-74168262D01*
X106821447Y-74660000D01*
X106835589Y-74674142D01*
X106584142Y-74925589D01*
X106570000Y-74911447D01*
X106555857Y-74925589D01*
X106318553Y-74688285D01*
X106304410Y-74674142D01*
X106318553Y-74660000D01*
X105855613Y-74197060D01*
X105775588Y-74003862D01*
X105603089Y-73944536D01*
X105586154Y-73927601D01*
X105570000Y-73933156D01*
X105553846Y-73927601D01*
X105536910Y-73944536D01*
X105364412Y-74003862D01*
X105313184Y-74168262D01*
X104821447Y-74660000D01*
X104835589Y-74674142D01*
X104584142Y-74925589D01*
X104570000Y-74911447D01*
X104555857Y-74925589D01*
X104318553Y-74688285D01*
X104304410Y-74674142D01*
X104318553Y-74660000D01*
X103855613Y-74197060D01*
X103775588Y-74003862D01*
X103603089Y-73944536D01*
X103586154Y-73927601D01*
X103570000Y-73933156D01*
X103553846Y-73927601D01*
X103536910Y-73944536D01*
X103364412Y-74003862D01*
X103313184Y-74168262D01*
X102821447Y-74660000D01*
X102835589Y-74674142D01*
X102584142Y-74925589D01*
X102570000Y-74911447D01*
X102555857Y-74925589D01*
X102318553Y-74688285D01*
X102304410Y-74674142D01*
X102318553Y-74660000D01*
X101855613Y-74197060D01*
X101775588Y-74003862D01*
X101603089Y-73944536D01*
X101586154Y-73927601D01*
X101570000Y-73933156D01*
X101553846Y-73927601D01*
X101536910Y-73944536D01*
X101364412Y-74003862D01*
X101313184Y-74168262D01*
X100821447Y-74660000D01*
X100835589Y-74674142D01*
X100584142Y-74925589D01*
X100570000Y-74911447D01*
X100555857Y-74925589D01*
X100318553Y-74688285D01*
X100304410Y-74674142D01*
X100318553Y-74660000D01*
X99855613Y-74197060D01*
X99775588Y-74003862D01*
X99603089Y-73944536D01*
X99586154Y-73927601D01*
X99570000Y-73933156D01*
X99553846Y-73927601D01*
X99536910Y-73944536D01*
X99364412Y-74003862D01*
X99313184Y-74168262D01*
X98821447Y-74660000D01*
X98835589Y-74674142D01*
X98584142Y-74925589D01*
X98570000Y-74911447D01*
X98555857Y-74925589D01*
X98318553Y-74688285D01*
X98304410Y-74674142D01*
X98318553Y-74660000D01*
X97855613Y-74197060D01*
X97775588Y-74003862D01*
X97603089Y-73944536D01*
X97586154Y-73927601D01*
X97570000Y-73933156D01*
X97553846Y-73927601D01*
X97536910Y-73944536D01*
X97364412Y-74003862D01*
X97313184Y-74168262D01*
X96821447Y-74660000D01*
X96835589Y-74674142D01*
X96584142Y-74925589D01*
X96570000Y-74911447D01*
X96555857Y-74925589D01*
X96318553Y-74688285D01*
X96304410Y-74674142D01*
X96318553Y-74660000D01*
X95855613Y-74197060D01*
X95775588Y-74003862D01*
X95603089Y-73944536D01*
X95586154Y-73927601D01*
X95570000Y-73933156D01*
X95553846Y-73927601D01*
X95536910Y-73944536D01*
X95364412Y-74003862D01*
X95313184Y-74168262D01*
X94821447Y-74660000D01*
X94835589Y-74674142D01*
X94584142Y-74925589D01*
X94570000Y-74911447D01*
X94555857Y-74925589D01*
X94318553Y-74688285D01*
X94304410Y-74674142D01*
X94318553Y-74660000D01*
X93855613Y-74197060D01*
X93775588Y-74003862D01*
X93603089Y-73944536D01*
X93586154Y-73927601D01*
X93570000Y-73933156D01*
X93553846Y-73927601D01*
X93536910Y-73944536D01*
X93364412Y-74003862D01*
X93313184Y-74168262D01*
X92821447Y-74660000D01*
X92835589Y-74674142D01*
X92584142Y-74925589D01*
X92570000Y-74911447D01*
X92555857Y-74925589D01*
X92318553Y-74688285D01*
X92304410Y-74674142D01*
X92318553Y-74660000D01*
X91855613Y-74197060D01*
X91775588Y-74003862D01*
X91603089Y-73944536D01*
X91586154Y-73927601D01*
X91570000Y-73933156D01*
X91553846Y-73927601D01*
X91536910Y-73944536D01*
X91364412Y-74003862D01*
X91313184Y-74168262D01*
X90821447Y-74660000D01*
X90835589Y-74674142D01*
X90584142Y-74925589D01*
X90570000Y-74911447D01*
X90555857Y-74925589D01*
X90318553Y-74688285D01*
X90304410Y-74674142D01*
X90318553Y-74660000D01*
X89855613Y-74197060D01*
X89775588Y-74003862D01*
X89603089Y-73944536D01*
X89586154Y-73927601D01*
X89570000Y-73933156D01*
X89553846Y-73927601D01*
X89536910Y-73944536D01*
X89364412Y-74003862D01*
X89313184Y-74168262D01*
X88821447Y-74660000D01*
X88835589Y-74674142D01*
X88584142Y-74925589D01*
X88570000Y-74911447D01*
X88555857Y-74925589D01*
X88318553Y-74688285D01*
X88304410Y-74674142D01*
X88318553Y-74660000D01*
X87855613Y-74197060D01*
X87775588Y-74003862D01*
X87603089Y-73944536D01*
X87586154Y-73927601D01*
X87570000Y-73933156D01*
X87553846Y-73927601D01*
X87536910Y-73944536D01*
X87364412Y-74003862D01*
X87313184Y-74168262D01*
X86821447Y-74660000D01*
X86835589Y-74674142D01*
X86584142Y-74925589D01*
X86570000Y-74911447D01*
X86555857Y-74925589D01*
X86318553Y-74688285D01*
X86304410Y-74674142D01*
X86318553Y-74660000D01*
X85586154Y-73927601D01*
X85364412Y-74003862D01*
X85205089Y-74515166D01*
X85253561Y-75048520D01*
X85364412Y-75316138D01*
X85586151Y-75392398D01*
X85474774Y-75503776D01*
X85536798Y-75565800D01*
X84454200Y-75565800D01*
X84454200Y-57673524D01*
X85130107Y-58350613D01*
X86091323Y-58749744D01*
X87132111Y-58750653D01*
X88094022Y-58353199D01*
X88830613Y-57617893D01*
X89229744Y-56656677D01*
X89230653Y-55615889D01*
X88833199Y-54653978D01*
X88097893Y-53917387D01*
X87136677Y-53518256D01*
X86095889Y-53517347D01*
X85133978Y-53914801D01*
X84454200Y-54593393D01*
X84454200Y-34813524D01*
X85130107Y-35490613D01*
X86091323Y-35889744D01*
X87132111Y-35890653D01*
X88094022Y-35493199D01*
X88830613Y-34757893D01*
X89229744Y-33796677D01*
X89230653Y-32755889D01*
X88833199Y-31793978D01*
X88154606Y-31114200D01*
X142986475Y-31114200D01*
X142309387Y-31790107D01*
X141910256Y-32751323D01*
X141909347Y-33792111D01*
X142306801Y-34754022D01*
X143042107Y-35490613D01*
X144003323Y-35889744D01*
X145044111Y-35890653D01*
X146006022Y-35493199D01*
X146685800Y-34814606D01*
X146685800Y-75565800D01*
M02*
