G04 #@! TF.FileFunction,Soldermask,Bot*
%FSLAX46Y46*%
G04 Gerber Fmt 4.6, Leading zero omitted, Abs format (unit mm)*
G04 Created by KiCad (PCBNEW (2015-02-18 BZR 5430)-product) date 2015年02月19日 星期四 19时51分06秒*
%MOMM*%
G01*
G04 APERTURE LIST*
%ADD10C,0.150000*%
%ADD11R,0.800000X0.750000*%
%ADD12R,0.750000X0.800000*%
%ADD13C,1.524000*%
%ADD14C,3.000000*%
%ADD15C,4.000000*%
%ADD16C,4.064000*%
%ADD17R,1.400000X1.800000*%
%ADD18R,0.800000X2.600000*%
%ADD19R,2.000000X2.000000*%
%ADD20C,2.000000*%
%ADD21R,0.900000X0.500000*%
G04 APERTURE END LIST*
D10*
D11*
X115391500Y-54991000D03*
X116891500Y-54991000D03*
X123710000Y-51943000D03*
X125210000Y-51943000D03*
D10*
G36*
X123318162Y-54633492D02*
X123848492Y-54103162D01*
X124414178Y-54668848D01*
X123883848Y-55199178D01*
X123318162Y-54633492D01*
X123318162Y-54633492D01*
G37*
G36*
X124378822Y-55694152D02*
X124909152Y-55163822D01*
X125474838Y-55729508D01*
X124944508Y-56259838D01*
X124378822Y-55694152D01*
X124378822Y-55694152D01*
G37*
D11*
X122135200Y-62890400D03*
X123635200Y-62890400D03*
X118223600Y-63093600D03*
X119723600Y-63093600D03*
D12*
X127914400Y-62343600D03*
X127914400Y-63843600D03*
D11*
X114642200Y-63119000D03*
X116142200Y-63119000D03*
X115391500Y-53848000D03*
X116891500Y-53848000D03*
D10*
G36*
X123911992Y-50481338D02*
X123381662Y-49951008D01*
X123947348Y-49385322D01*
X124477678Y-49915652D01*
X123911992Y-50481338D01*
X123911992Y-50481338D01*
G37*
G36*
X124972652Y-49420678D02*
X124442322Y-48890348D01*
X125008008Y-48324662D01*
X125538338Y-48854992D01*
X124972652Y-49420678D01*
X124972652Y-49420678D01*
G37*
G36*
X122048162Y-55268492D02*
X122578492Y-54738162D01*
X123144178Y-55303848D01*
X122613848Y-55834178D01*
X122048162Y-55268492D01*
X122048162Y-55268492D01*
G37*
G36*
X123108822Y-56329152D02*
X123639152Y-55798822D01*
X124204838Y-56364508D01*
X123674508Y-56894838D01*
X123108822Y-56329152D01*
X123108822Y-56329152D01*
G37*
D12*
X126644400Y-62343600D03*
X126644400Y-63843600D03*
D11*
X122135200Y-61696600D03*
X123635200Y-61696600D03*
X118223600Y-61899800D03*
X119723600Y-61899800D03*
X114642200Y-61925200D03*
X116142200Y-61925200D03*
X115391500Y-52705000D03*
X116891500Y-52705000D03*
D10*
G36*
X120587662Y-55649492D02*
X121117992Y-55119162D01*
X121683678Y-55684848D01*
X121153348Y-56215178D01*
X120587662Y-55649492D01*
X120587662Y-55649492D01*
G37*
G36*
X121648322Y-56710152D02*
X122178652Y-56179822D01*
X122744338Y-56745508D01*
X122214008Y-57275838D01*
X121648322Y-56710152D01*
X121648322Y-56710152D01*
G37*
D12*
X126644400Y-61075000D03*
X126644400Y-59575000D03*
D11*
X114642200Y-60731400D03*
X116142200Y-60731400D03*
X122135200Y-60502800D03*
X123635200Y-60502800D03*
X118223600Y-60706000D03*
X119723600Y-60706000D03*
D13*
X144570000Y-69850000D03*
X142570000Y-69850000D03*
X140570000Y-69850000D03*
X138570000Y-69850000D03*
X136570000Y-69850000D03*
X134570000Y-69850000D03*
X132570000Y-69850000D03*
X130570000Y-69850000D03*
X128570000Y-69850000D03*
X126570000Y-69850000D03*
X124570000Y-69850000D03*
X122570000Y-69850000D03*
X120570000Y-69850000D03*
X118570000Y-69850000D03*
X116570000Y-69850000D03*
X114570000Y-69850000D03*
X112570000Y-69850000D03*
X110570000Y-69850000D03*
X108570000Y-69850000D03*
X106570000Y-69850000D03*
X104570000Y-69850000D03*
X102570000Y-69850000D03*
X100570000Y-69850000D03*
X98570000Y-69850000D03*
X96570000Y-69850000D03*
X94570000Y-69850000D03*
X92570000Y-69850000D03*
X90570000Y-69850000D03*
X88570000Y-69850000D03*
X86570000Y-69850000D03*
D14*
X120170000Y-34290000D03*
D15*
X125170000Y-36790000D03*
X105970000Y-36790000D03*
D14*
X110970000Y-34290000D03*
D16*
X144526000Y-33274000D03*
X86614000Y-33274000D03*
D17*
X135233000Y-54102000D03*
X138833000Y-54102000D03*
D18*
X137033000Y-54102000D03*
D17*
X135233000Y-62230000D03*
X138833000Y-62230000D03*
D18*
X137033000Y-62230000D03*
D17*
X135233000Y-58166000D03*
X138833000Y-58166000D03*
D18*
X137033000Y-58166000D03*
D17*
X129645000Y-54102000D03*
X133245000Y-54102000D03*
D18*
X131445000Y-54102000D03*
D17*
X129645000Y-62230000D03*
X133245000Y-62230000D03*
D18*
X131445000Y-62230000D03*
D17*
X129645000Y-58166000D03*
X133245000Y-58166000D03*
D18*
X131445000Y-58166000D03*
D19*
X143954500Y-45593000D03*
D20*
X143954500Y-49403000D03*
D21*
X144526000Y-65925000D03*
X144526000Y-67425000D03*
X142875000Y-65925000D03*
X142875000Y-67425000D03*
D16*
X86614000Y-56134000D03*
X143256000Y-55245000D03*
D13*
X86570000Y-74660000D03*
X86570000Y-72660000D03*
X88570000Y-74660000D03*
X88570000Y-72660000D03*
X90570000Y-74660000D03*
X90570000Y-72660000D03*
X92570000Y-74660000D03*
X92570000Y-72660000D03*
X94570000Y-74660000D03*
X94570000Y-72660000D03*
X96570000Y-74660000D03*
X96570000Y-72660000D03*
X98570000Y-74660000D03*
X98570000Y-72660000D03*
X100570000Y-74660000D03*
X100570000Y-72660000D03*
X102570000Y-74660000D03*
X102570000Y-72660000D03*
X104570000Y-74660000D03*
X104570000Y-72660000D03*
X106570000Y-74660000D03*
X106570000Y-72660000D03*
X108570000Y-74660000D03*
X108570000Y-72660000D03*
X110570000Y-74660000D03*
X110570000Y-72660000D03*
X112570000Y-74660000D03*
X112570000Y-72660000D03*
X114570000Y-74660000D03*
X114570000Y-72660000D03*
X116570000Y-74660000D03*
X116570000Y-72660000D03*
X118570000Y-74660000D03*
X118570000Y-72660000D03*
X120570000Y-74660000D03*
X120570000Y-72660000D03*
X122570000Y-74660000D03*
X122570000Y-72660000D03*
X124570000Y-74660000D03*
X124570000Y-72660000D03*
X126570000Y-74660000D03*
X126570000Y-72660000D03*
X128570000Y-74660000D03*
X128570000Y-72660000D03*
X130570000Y-74660000D03*
X130570000Y-72660000D03*
X132570000Y-74660000D03*
X132570000Y-72660000D03*
X134570000Y-74660000D03*
X134570000Y-72660000D03*
X136570000Y-74660000D03*
X136570000Y-72660000D03*
X138570000Y-74660000D03*
X138570000Y-72660000D03*
X140570000Y-74660000D03*
X140570000Y-72660000D03*
X142570000Y-74660000D03*
X142570000Y-72660000D03*
X144570000Y-74660000D03*
X144570000Y-72660000D03*
M02*
